<svg xmlns="http://www.w3.org/2000/svg" version="1.1" viewBox="0 0 6500 1000">
	<path fill="none" stroke="gold" stroke-width="125" stroke-linecap="round" stroke-linejoin="round" d="M0 3445  L-726368 3445 L-723764 3445 L-722096 3445 L-703767 3445 L-703596 3445 L-696439 3444 L-696405 3444 L-682974 3444 L-680053 3444 L-666712 3444 L-662543 3443 L-661383 3442 L-660764 3442 L-658752 3441 L-654980 3441 L-654380 3441 L-654051 3440 L-653838 3440 L-653296 3440 L-652058 3438 L-650879 3437 L-648015 3436 L-647493 3435 L-642637 3434 L-639700 3434 L-639657 3434 L-639349 3434 L-639097 3433 L-636502 3433 L-632247 3433 L-632229 3433 L-630992 3433 L-629114 3433 L-627161 3433 L-626213 3432 L-625942 3432 L-625632 3432 L-625534 3432 L-624704 3432 L-622673 3432 L-622383 3431 L-620236 3430 L-620081 3429 L-616424 3428 L-616173 3429 L-616075 3428 L-615558 3429 L-613406 3430 L-612478 3430 L-610952 3431 L-609712 3431 L-608166 3431 L-605204 3431 L-604082 3430 L-603773 3430 L-602562 3430 L-599555 3432 L-599535 3431 L-599188 3431 L-598975 3431 L-598848 3429 L-598607 3429 L-598569 3428 L-598549 3428 L-598530 3428 L-598471 3428 L-598413 3427 L-598395 3427 L-597951 3427 L-596712 3426 L-595166 3426 L-591779 3426 L-586052 3426 L-585851 3425 L-584215 3425 L-582493 3425 L-581061 3425 L-580829 3425 L-580113 3425 L-573981 3424 L-573613 3424 L-573459 3424 L-572881 3424 L-572588 3423 L-571621 3423 L-571311 3423 L-570712 3422 L-569106 3422 L-568371 3422 L-568061 3422 L-567293 3422 L-565256 3422 L-564831 3422 L-564019 3422 L-556590 3421 L-556067 3421 L-555893 3421 L-555158 3421 L-553591 3420 L-553185 3420 L-550960 3420 L-550012 3420 L-549587 3419 L-549257 3419 L-548213 3419 L-546105 3419 L-545853 3419 L-545234 3418 L-544421 3418 L-542313 3418 L-542265 3418 L-540337 3417 L-540011 3417 L-539876 3417 L-539373 3417 L-537960 3416 L-537457 3416 L-536935 3415 L-533376 3415 L-532641 3414 L-530216 3414 L-528926 3414 L-528519 3414 L-525367 3414 L-525212 3414 L-525192 3414 L-524825 3414 L-523567 3414 L-522852 3414 L-521962 3414 L-521555 3414 L-520627 3414 L-519518 3414 L-519215 3414 L-512966 3415 L-512019 3415 L-510392 3415 L-509891 3415 L-506215 3416 L-505382 3416 L-501429 3416 L-500018 3415 L-497528 3415 L-496852 3415 L-496813 3415 L-495942 3415 L-492731 3415 L-489868 3414 L-488900 3414 L-487778 3414 L-487759 3414 L-486134 3413 L-485670 3413 L-485578 3413 L-479209 3413 L-478261 3412 L-475804 3412 L-474931 3412 L-473695 3412 L-471694 3412 L-471296 3411 L-469860 3411 L-467834 3411 L-467621 3411 L-466441 3410 L-464932 3410 L-464912 3410 L-462900 3410 L-462030 3410 L-461159 3410 L-460575 3409 L-460037 3409 L-459380 3409 L-458142 3408 L-457581 3408 L-456400 3408 L-455162 3408 L-455124 3408 L-454737 3408 L-454195 3407 L-453421 3407 L-452299 3407 L-450210 3407 L-449877 3406 L-449591 3406 L-448662 3406 L-448179 3406 L-447444 3405 L-443812 3405 L-442685 3405 L-442530 3405 L-441504 3405 L-437789 3405 L-436572 3404 L-434754 3404 L-431968 3404 L-431406 3403 L-427519 3403 L-425042 3403 L-423707 3403 L-423204 3403 L-422721 3403 L-420031 3403 L-416260 3403 L-413802 3403 L-412623 3403 L-411983 3403 L-409624 3403 L-409546 3402 L-408499 3402 L-408405 3402 L-407903 3402 L-407457 3402 L-407399 3402 L-407186 3402 L-404226 3402 L-401519 3402 L-401364 3401 L-397843 3401 L-397320 3401 L-396353 3401 L-396004 3400 L-394960 3400 L-394031 3400 L-393606 3400 L-392097 3400 L-391130 3400 L-391111 3399 L-389215 3388 L-389099 3377 L-389051 3366 L-389027 3354 L-386022 3354 L-383992 3354 L-382231 3354 L-381864 3354 L-381418 3353 L-381051 3353 L-380637 3353 L-378652 3353 L-378439 3353 L-378284 3353 L-376679 3353 L-375557 3352 L-374609 3352 L-373352 3352 L-371707 3352 L-370527 3352 L-363938 3351 L-363891 3351 L-363486 3351 L-362441 3351 L-362305 3351 L-360623 3350 L-360603 3350 L-359266 3350 L-358030 3350 L-357875 3350 L-357502 3349 L-357295 3349 L-356986 3349 L-356212 3349 L-353890 3349 L-353233 3348 L-351105 3348 L-349382 3348 L-349189 3348 L-346636 3348 L-346359 3347 L-346171 3347 L-345339 3347 L-344566 3347 L-343868 3347 L-338868 3347 L-338492 3346 L-334239 3346 L-333752 3361 L-333732 3361 L-333653 3361 L-333578 3361 L-333558 3345 L-332746 3345 L-331992 3345 L-330773 3345 L-329341 3345 L-329245 3345 L-329070 3345 L-328716 3344 L-327406 3344 L-325549 3344 L-323847 3344 L-323344 3344 L-323079 3343 L-322685 3343 L-322551 3343 L-321641 3343 L-321265 3343 L-320337 3343 L-319997 3343 L-319958 3343 L-319920 3343 L-318005 3343 L-317831 3342 L-316302 3342 L-315974 3342 L-315858 3342 L-315451 3342 L-315103 3342 L-313459 3341 L-312908 3341 L-312665 3341 L-312124 3341 L-311292 3341 L-310751 3340 L-309216 3340 L-309124 3340 L-309087 3340 L-308951 3340 L-308564 3340 L-307539 3339 L-305662 3339 L-305566 3339 L-304966 3344 L-304599 3349 L-304114 3354 L-304076 3360 L-303302 3360 L-303245 3360 L-303070 3359 L-302877 3359 L-301271 3359 L-301252 3359 L-301096 3359 L-300981 3359 L-299801 3359 L-299647 3360 L-298980 3360 L-296531 3372 L-294017 3385 L-291347 3397 L-283648 3410 L-277980 3410 L-275765 3410 L-275742 3410 L-274768 3413 L-274748 3413 L-273884 3412 L-271144 3412 L-265346 3409 L-265192 3409 L-262406 3409 L-248798 3408 L-248052 3408 L-243642 3408 L-227295 3408 L-227063 3407 L-226526 3407 L-218067 3407 L-209361 3407 L-209149 3407 L-207176 3407 L-204390 3407 L-199903 3407 L-199748 3407 L-199579 3407 L-199438 3406 L-199148 3406 L-199109 3406 L-198838 3406 L-198666 3406 L-198256 3405 L-197136 3405 L-195955 3405 L-194679 3405 L-191815 3405 L-188895 3405 L-186902 3405 L-185355 3404 L-182317 3404 L-172992 3404 L-172468 3404 L-166745 3404 L-165238 3404 L-164423 3404 L-162739 3403 L-162018 3403 L-161850 3403 L-160805 3403 L-158737 3403 L-157375 3403 L-152932 3402 L-152835 3402 L-152796 3402 L-152777 3402 L-151945 3402 L-151867 3402 L-149295 3401 L-146045 3401 L-145891 3401 L-144942 3401 L-143201 3401 L-142486 3402 L-138945 3402 L-132368 3403 L-130950 3404 L-130930 3404 L-129979 3404 L-126505 3404 L-125752 3404 L-125190 3403 L-124408 3403 L-116904 3403 L-115305 3403 L-113731 3403 L-110546 3403 L-106213 3403 L-97643 3402 L-88897 3402 L-85823 3402 L-82557 3402 L-82010 3402 L-74873 3402 L-69206 3402 L-55141 3402 L-49130 3402 L-44423 3402 L-40420 3401 L-35313 3401 L-25599 3401 L-10028 3401 L-6945 3400 L-6643 3332 L-6624 3248 L-6605 3152 L-6585 3045 L-6565 2997 L-6546 2955 L-6527 2918 L-6500 2880 L-6479 2844 L-6451 2806 L-6416 2764 L-6402 2728 L-6389 2697 L-6371 2672 L-6352 2653 L-6332 2634 L-6314 2614 L-6294 2595 L-6274 2575 L-6253 2555 L-6237 2535 L-6218 2516 L-6197 2497 L-6177 2479 L-6159 2458 L-6140 2437 L-6120 2416 L-6100 2395 L-6082 2374 L-6063 2355 L-6042 2337 L-6017 2318 L-6002 2300 L-5985 2283 L-5966 2265 L-5946 2248 L-5927 2229 L-5908 2210 L-5888 2192 L-5868 2175 L-5850 2158 L-5831 2143 L-5810 2128 L-5790 2114 L-5773 2102 L-5754 2090 L-5734 2079 L-5715 2068 L-5695 2057 L-5676 2047 L-5656 2039 L-5637 2031 L-5617 2023 L-5599 2015 L-5571 2004 L-5551 1994 L-5523 1982 L-5489 1969 L-5475 1958 L-5461 1949 L-5443 1940 L-5424 1933 L-5404 1925 L-5385 1916 L-5366 1907 L-5346 1898 L-5325 1890 L-5308 1882 L-5289 1874 L-5269 1866 L-5249 1856 L-5231 1845 L-5212 1834 L-5192 1822 L-5172 1810 L-5153 1798 L-5135 1786 L-5113 1772 L-5089 1757 L-5074 1742 L-5057 1728 L-5037 1715 L-5018 1701 L-4999 1686 L-4980 1671 L-4960 1657 L-4939 1642 L-4921 1629 L-4902 1615 L-4882 1602 L-4862 1589 L-4844 1577 L-4825 1566 L-4805 1554 L-4786 1545 L-4766 1534 L-4748 1524 L-4728 1514 L-4709 1504 L-4689 1494 L-4670 1484 L-4641 1474 L-4622 1465 L-4594 1455 L-4557 1444 L-4542 1433 L-4529 1422 L-4512 1413 L-4495 1406 L-4475 1400 L-4457 1394 L-4438 1388 L-4418 1383 L-4397 1377 L-4380 1370 L-4361 1363 L-4340 1356 L-4321 1349 L-4302 1341 L-4283 1333 L-4263 1325 L-4244 1316 L-4225 1306 L-4206 1298 L-4185 1289 L-4161 1280 L-4146 1271 L-4129 1262 L-4109 1253 L-4090 1244 L-4070 1235 L-4051 1225 L-4031 1215 L-4011 1206 L-3993 1197 L-3974 1188 L-3954 1180 L-3933 1172 L-3915 1165 L-3896 1157 L-3876 1150 L-3858 1142 L-3838 1134 L-3819 1127 L-3799 1120 L-3780 1113 L-3761 1106 L-3742 1099 L-3713 1092 L-3693 1085 L-3665 1076 L-3629 1065 L-3615 1054 L-3602 1045 L-3584 1036 L-3566 1030 L-3546 1025 L-3528 1018 L-3508 1010 L-3489 1002 L-3467 994 L-3449 985 L-3432 976 L-3411 966 L-3391 955 L-3373 944 L-3354 933 L-3334 921 L-3314 911 L-3296 901 L-3277 892 L-3256 886 L-3231 880 L-3217 875 L-3199 869 L-3180 863 L-3160 857 L-3141 851 L-3122 845 L-3102 840 L-3081 835 L-3064 831 L-3045 826 L-3025 819 L-3004 811 L-2987 804 L-2968 798 L-2948 794 L-2929 790 L-2909 787 L-2890 783 L-2871 779 L-2851 775 L-2832 771 L-2813 767 L-2786 763 L-2765 760 L-2737 755 L-2702 750 L-2688 746 L-2675 742 L-2656 739 L-2638 736 L-2618 733 L-2600 730 L-2580 727 L-2560 724 L-2539 722 L-2522 719 L-2504 716 L-2483 712 L-2463 709 L-2445 705 L-2426 702 L-2406 699 L-2386 696 L-2368 693 L-2349 690 L-2328 687 L-2303 685 L-2288 682 L-2271 679 L-2251 677 L-2232 674 L-2213 671 L-2194 667 L-2174 664 L-2153 661 L-2135 658 L-2117 655 L-2096 652 L-2076 650 L-2058 647 L-2039 644 L-2019 642 L-2001 639 L-1981 637 L-1962 635 L-1942 633 L-1923 631 L-1903 629 L-1885 633 L-1856 635 L-1836 639 L-1808 641 L-1771 639 L-1756 636 L-1743 634 L-1725 633 L-1709 631 L-1689 630 L-1671 628 L-1651 626 L-1632 624 L-1610 623 L-1594 621 L-1575 620 L-1554 618 L-1534 616 L-1516 615 L-1497 613 L-1478 611 L-1457 609 L-1439 607 L-1420 606 L-1399 605 L-1374 603 L-1360 601 L-1342 600 L-1323 598 L-1303 596 L-1284 594 L-1265 592 L-1245 590 L-1224 588 L-1207 585 L-1188 583 L-1168 581 L-1147 579 L-1130 576 L-1111 574 L-1091 572 L-1072 570 L-1052 568 L-1033 566 L-1013 563 L-994 561 L-975 560 L-956 558 L-928 556 L-908 554 L-880 552 L-845 549 L-831 547 L-818 545 L-799 543 L-781 542 L-761 540 L-742 538 L-723 536 L-703 534 L-682 533 L-665 531 L-646 529 L-626 527 L-606 525 L-588 522 L-569 519 L-549 516 L-529 513 L-510 510 L-492 508 L-470 506 L-445 503 L-431 500 L-414 497 L-394 495 L-375 492 L-356 489 L-337 486 L-317 484 L-296 481 L-278 479 L-259 476 L-239 474 L-218 472 L-201 470 L-182 468 L-162 467 L-143 465 L-124 463 L-105 462 L-85 460 L-65 459 L-46 458 L-27 457 L0 455 L20 454 L48 452 L83 449 L97 447 L110 444 L129 441 L147 440 L167 438 L185 436 L205 435 L225 433 L246 431 L262 430 L281 427 L302 425 L322 423 L340 421 L359 419 L379 417 L399 415 L417 413 L436 411 L457 409 L482 408 L497 406 L514 404 L533 402 L553 400 L572 398 L591 396 L611 393 L632 390 L649 387 L668 385 L689 382 L709 380 L726 379 L745 377 L766 376 L784 375 L804 373 L823 372 L843 371 L862 369 L882 368 L900 367 L928 365 L948 364 L976 363 L1010 362 L1025 361 L1038 359 L1056 358 L1075 357 L1095 356 L1114 355 L1133 354 L1153 353 L1174 353 L1191 351 L1210 350 L1230 349 L1250 348 L1268 347 L1287 346 L1307 345 L1327 344 L1346 343 L1365 343 L1386 342 L1410 341 L1425 340 L1442 339 L1462 338 L1481 337 L1500 336 L1519 335 L1539 333 L1560 332 L1578 329 L1597 327 L1617 325 L1638 323 L1655 322 L1674 320 L1694 319 L1713 318 L1733 316 L1751 315 L1771 313 L1790 312 L1810 311 L1829 310 L1857 309 L1905 308 L1942 307 L1957 306 L1969 305 L1986 304 L2004 304 L2024 303 L2042 302 L2061 301 L2082 301 L2102 300 L2119 299 L2138 299 L2159 298 L2178 297 L2197 296 L2216 295 L2236 294 L2255 293 L2274 292 L2293 291 L2314 289 L2339 288 L2353 286 L2370 284 L2390 283 L2409 281 L2429 280 L2448 279 L2468 277 L2488 275 L2506 274 L2525 272 L2546 271 L2566 270 L2584 269 L2603 268 L2623 267 L2641 266 L2661 265 L2680 264 L2700 263 L2719 261 L2739 260 L2757 259 L2786 258 L2806 257 L2834 255 L2870 253 L2885 251 L2898 248 L2915 247 L2933 245 L2953 244 L2971 243 L2991 243 L3010 242 L3032 241 L3048 240 L3067 238 L3088 237 L3108 235 L3126 233 L3145 231 L3165 229 L3185 227 L3203 225 L3222 223 L3243 222 L3268 220 L3283 219 L3301 217 L3319 216 L3339 215 L3358 213 L3377 211 L3397 210 L3418 208 L3435 206 L3454 205 L3474 204 L3496 202 L3512 201 L3531 200 L3551 199 L3570 198 L3590 196 L3609 195 L3628 194 L3648 193 L3667 192 L3686 191 L3714 997 L3734 996 L3762 994 L3798 992 L3812 184 L3826 182 L3843 181 L3861 180 L3881 179 L3899 179 L3919 178 L3939 176 L3960 175 L3977 173 L3995 171 L4016 170 L4036 168 L4054 166 L4073 163 L4093 161 L4114 160 L4131 158 L4150 157 L4172 156 L4197 154 L4212 152 L4241 150 L4281 147 L4304 145 L4333 142 L4350 140 L4364 138 L4383 136 L4403 135 L4424 134 L4441 133 L4460 132 L4480 131 L4499 130 L4518 129 L4537 129 L4557 128 L4577 127 L4596 126 L4614 125 L4642 124 L4663 123 L4691 122 L4726 120 L4739 119 L4771 118 L4790 117 L4810 116 L4828 115 L4848 114 L4867 114 L4888 113 L4905 112 L4924 110 L4945 107 L4965 103 L4983 100 L5002 96 L5022 93 L5042 91 L5060 88 L5079 87 L5100 85 L5125 84 L5140 83 L5157 81 L5176 79 L5196 78 L5215 76 L5234 75 L5254 73 L5275 72 L5292 70 L5311 68 L5332 67 L5353 66 L5369 65 L5388 64 L5409 63 L5428 62 L5447 61 L5466 60 L5486 59 L5506 57 L5524 57 L5543 56 L5571 55 L5591 54 L5661 52 L5689 49 L5704 47 L5718 44 L5738 43 L5757 41 L5776 40 L5796 39 L5817 37 L5834 36 L5853 35 L5873 35 L5893 34 L5911 33 L5930 31 L5950 30 L5971 28 L5988 27 L6007 26 L6029 25 L6054 24 L6069 23 L6086 22 L6105 20 L6125 18 L6144 17 L6163 16 L6182 14 L6204 14 L6221 12 L6240 12 L6260 10 L6281 9 L6298 8 L6356 7 L6376 6 L6394 5 L6414 4 L6434 3 L6453 3 L6472 2 L6500 1" />
</svg>
