<svg xmlns="http://www.w3.org/2000/svg" version="1.1" viewBox="0 0 6500 1000">
	<path fill="none" stroke="gold" stroke-width="125" stroke-linecap="round" stroke-linejoin="round" d="M0 5139  L-723265 5139 L-720661 5139 L-718993 5139 L-700664 5138 L-700493 5138 L-693336 5137 L-693303 5137 L-679872 5137 L-676950 5137 L-663609 5136 L-659440 5135 L-658280 5134 L-657661 5133 L-655649 5132 L-651877 5132 L-651277 5131 L-650948 5131 L-650735 5130 L-650194 5130 L-648956 5128 L-647777 5126 L-644912 5124 L-644390 5122 L-639535 5122 L-636597 5121 L-636554 5121 L-636246 5120 L-635994 5120 L-633399 5119 L-629144 5119 L-629126 5119 L-627889 5119 L-626011 5119 L-624058 5119 L-623110 5118 L-622839 5118 L-622529 5118 L-622431 5117 L-621601 5117 L-619570 5118 L-619280 5115 L-617133 5114 L-616978 5113 L-613321 5111 L-613070 5112 L-612972 5112 L-612455 5113 L-610304 5114 L-609375 5115 L-607849 5116 L-606609 5116 L-605063 5116 L-602101 5116 L-600979 5115 L-600670 5115 L-599459 5114 L-596452 5117 L-596432 5117 L-596085 5117 L-595872 5116 L-595746 5113 L-595504 5112 L-595466 5112 L-595447 5111 L-595427 5111 L-595368 5111 L-595310 5110 L-595292 5110 L-594849 5109 L-593609 5109 L-592063 5108 L-588676 5108 L-582949 5107 L-582748 5107 L-581112 5107 L-579390 5107 L-577958 5106 L-577726 5106 L-577010 5106 L-570878 5106 L-570510 5105 L-570356 5105 L-569778 5104 L-569485 5104 L-568518 5103 L-568208 5103 L-567609 5102 L-566003 5102 L-565268 5102 L-564958 5103 L-564190 5103 L-562154 5102 L-561728 5102 L-560916 5101 L-553487 5101 L-552964 5100 L-552791 5100 L-552056 5099 L-550488 5099 L-550082 5099 L-547857 5098 L-546909 5098 L-546484 5098 L-546154 5098 L-545110 5098 L-543002 5097 L-542750 5097 L-542131 5096 L-541318 5096 L-539210 5095 L-539162 5095 L-537234 5094 L-536908 5094 L-536773 5093 L-536270 5093 L-534857 5093 L-534354 5092 L-533832 5091 L-530273 5090 L-529538 5089 L-527113 5089 L-525824 5089 L-525417 5088 L-522264 5088 L-522109 5088 L-522089 5089 L-521722 5089 L-520464 5089 L-519749 5089 L-518859 5089 L-518452 5089 L-517524 5089 L-516415 5089 L-516112 5090 L-509863 5090 L-508916 5091 L-507289 5091 L-506788 5091 L-503112 5092 L-502280 5092 L-498327 5092 L-496915 5091 L-494425 5091 L-493749 5091 L-493710 5090 L-492839 5090 L-489628 5090 L-486765 5090 L-485797 5090 L-484676 5089 L-484657 5089 L-483032 5088 L-482568 5087 L-482476 5087 L-476106 5087 L-475158 5087 L-472701 5086 L-471828 5086 L-470592 5086 L-468591 5085 L-468194 5085 L-466757 5084 L-464731 5084 L-464518 5084 L-463338 5084 L-461829 5083 L-461809 5083 L-459797 5083 L-458928 5082 L-458057 5082 L-457472 5082 L-456935 5081 L-456277 5081 L-455039 5080 L-454478 5080 L-453297 5080 L-452060 5079 L-452021 5079 L-451634 5079 L-451092 5078 L-450319 5078 L-449196 5078 L-447107 5077 L-446774 5077 L-446488 5077 L-445560 5076 L-445076 5076 L-444341 5076 L-440710 5075 L-439582 5075 L-439427 5075 L-438401 5074 L-434687 5074 L-433469 5074 L-431651 5073 L-428865 5073 L-428304 5072 L-424416 5072 L-421939 5072 L-420604 5072 L-420101 5072 L-419618 5072 L-416928 5072 L-413157 5072 L-410700 5072 L-409520 5072 L-408881 5071 L-406521 5071 L-406444 5071 L-405396 5070 L-405303 5070 L-404800 5070 L-404354 5070 L-404297 5070 L-404083 5070 L-401123 5070 L-398416 5069 L-398261 5069 L-394740 5069 L-394217 5068 L-393250 5068 L-392901 5068 L-391857 5067 L-390929 5067 L-390503 5066 L-388994 5066 L-388027 5066 L-388008 5066 L-386112 5048 L-385996 5030 L-385948 5012 L-385924 4995 L-382920 4994 L-380889 4994 L-379128 4994 L-378761 4993 L-378315 4993 L-377948 4993 L-377535 4992 L-375550 4992 L-375336 4992 L-375181 4992 L-373576 4992 L-372454 4991 L-371506 4991 L-370249 4991 L-368604 4990 L-367425 4990 L-360835 4990 L-360789 4989 L-360383 4989 L-359338 4989 L-359202 4989 L-357520 4988 L-357500 4988 L-356163 4988 L-354927 4987 L-354773 4987 L-354399 4987 L-354192 4986 L-353883 4986 L-353109 4986 L-350788 4985 L-350130 4985 L-348002 4985 L-346280 4985 L-346086 4984 L-343533 4984 L-343256 4983 L-343068 4983 L-342236 4983 L-341463 4982 L-340765 4982 L-335765 4982 L-335389 4982 L-331136 4981 L-330649 5005 L-330630 5005 L-330551 5005 L-330475 5005 L-330456 4980 L-329643 4980 L-328889 4980 L-327670 4979 L-326238 4979 L-326142 4979 L-325967 4979 L-325613 4979 L-324304 4978 L-322446 4978 L-320744 4978 L-320241 4977 L-319976 4977 L-319583 4977 L-319448 4977 L-318539 4976 L-318162 4976 L-317234 4976 L-316895 4976 L-316855 4976 L-316817 4976 L-314902 4976 L-314728 4975 L-313199 4975 L-312871 4975 L-312755 4975 L-312348 4974 L-312000 4974 L-310356 4974 L-309805 4974 L-309562 4973 L-309021 4973 L-308189 4973 L-307648 4972 L-306113 4972 L-306021 4972 L-305984 4971 L-305848 4971 L-305461 4971 L-304436 4971 L-302560 4970 L-302463 4970 L-301863 4978 L-301496 4986 L-301011 4995 L-300973 5003 L-300200 5003 L-300142 5003 L-299967 5002 L-299774 5002 L-298169 5002 L-298149 5002 L-297993 5002 L-297878 5002 L-296698 5002 L-296544 5003 L-295877 5003 L-293429 5023 L-290914 5043 L-288244 5063 L-280545 5082 L-274877 5082 L-272662 5082 L-272639 5082 L-271665 5087 L-271645 5087 L-270782 5086 L-268041 5086 L-262243 5081 L-262089 5081 L-259304 5080 L-245695 5080 L-244949 5080 L-240539 5079 L-224192 5079 L-223960 5078 L-223423 5078 L-214964 5078 L-206258 5078 L-206046 5077 L-204073 5077 L-201287 5077 L-196800 5077 L-196645 5077 L-196476 5077 L-196335 5077 L-196045 5077 L-196006 5076 L-195735 5076 L-195564 5076 L-195153 5076 L-194033 5075 L-192853 5075 L-191576 5075 L-188712 5075 L-185792 5074 L-183800 5074 L-182252 5074 L-179214 5073 L-169890 5073 L-169366 5073 L-163642 5073 L-162135 5073 L-161320 5073 L-159637 5072 L-158916 5072 L-158747 5072 L-157702 5071 L-155635 5071 L-154273 5071 L-149829 5071 L-149732 5070 L-149694 5070 L-149675 5070 L-148842 5070 L-148764 5069 L-146192 5069 L-142943 5069 L-142788 5069 L-141839 5068 L-140098 5068 L-139383 5069 L-135842 5070 L-129265 5072 L-127848 5074 L-127827 5074 L-126876 5073 L-123402 5073 L-122649 5073 L-122087 5072 L-121305 5072 L-113801 5072 L-112202 5072 L-110628 5071 L-107443 5071 L-103110 5071 L-94540 5071 L-85794 5071 L-82720 5070 L-79454 5070 L-78908 5070 L-71770 5070 L-66103 5070 L-52038 5070 L-46027 5070 L-41321 5070 L-37317 5069 L-32210 5069 L-22496 5069 L-6925 5068 L-3843 5068 L-3540 4959 L-3521 4825 L-3502 4673 L-3482 4504 L-3463 4426 L-3443 4361 L-3425 4301 L-3397 4242 L-3376 4185 L-3348 4124 L-3313 4057 L-3299 4000 L-3286 3951 L-3268 3911 L-3249 3881 L-3229 3850 L-3211 3819 L-3191 3789 L-3172 3758 L-3151 3726 L-3134 3694 L-3115 3664 L-3094 3634 L-3075 3604 L-3056 3572 L-3037 3539 L-3018 3504 L-2997 3471 L-2979 3439 L-2960 3408 L-2939 3379 L-2914 3349 L-2900 3321 L-2882 3294 L-2863 3265 L-2843 3238 L-2824 3208 L-2805 3178 L-2785 3149 L-2765 3122 L-2747 3096 L-2728 3071 L-2707 3048 L-2687 3025 L-2670 3006 L-2651 2987 L-2631 2969 L-2612 2952 L-2592 2935 L-2573 2919 L-2553 2906 L-2534 2893 L-2515 2880 L-2496 2868 L-2469 2851 L-2448 2835 L-2420 2816 L-2386 2795 L-2372 2778 L-2359 2763 L-2340 2749 L-2321 2738 L-2301 2725 L-2283 2711 L-2263 2697 L-2243 2683 L-2223 2670 L-2205 2657 L-2186 2644 L-2166 2631 L-2146 2616 L-2128 2599 L-2109 2581 L-2089 2562 L-2069 2543 L-2051 2524 L-2032 2504 L-2011 2482 L-1986 2459 L-1972 2435 L-1954 2413 L-1935 2391 L-1915 2369 L-1896 2347 L-1877 2322 L-1857 2299 L-1837 2277 L-1818 2255 L-1800 2233 L-1779 2213 L-1759 2192 L-1741 2173 L-1722 2155 L-1702 2137 L-1683 2122 L-1664 2105 L-1645 2089 L-1625 2074 L-1606 2057 L-1586 2041 L-1567 2025 L-1539 2009 L-1519 1995 L-1491 1979 L-1454 1961 L-1439 1944 L-1426 1928 L-1409 1913 L-1392 1902 L-1372 1891 L-1354 1882 L-1335 1873 L-1315 1864 L-1294 1855 L-1277 1845 L-1258 1834 L-1237 1823 L-1218 1811 L-1199 1799 L-1181 1786 L-1161 1773 L-1141 1758 L-1122 1743 L-1103 1729 L-1082 1716 L-1058 1701 L-1043 1687 L-1026 1673 L-1006 1658 L-987 1645 L-967 1630 L-948 1614 L-928 1599 L-908 1584 L-890 1569 L-871 1556 L-851 1543 L-830 1530 L-813 1519 L-794 1506 L-774 1494 L-755 1482 L-735 1470 L-716 1459 L-696 1447 L-677 1436 L-658 1425 L-639 1414 L-611 1403 L-590 1391 L-563 1378 L-526 1360 L-512 1343 L-499 1328 L-482 1314 L-464 1305 L-444 1296 L-425 1285 L-405 1273 L-386 1261 L-365 1247 L-346 1233 L-329 1218 L-309 1203 L-288 1186 L-270 1169 L-251 1150 L-232 1132 L-211 1115 L-193 1099 L-175 1086 L-153 1075 L-128 1066 L-114 1058 L-96 1049 L-77 1040 L-58 1030 L-38 1021 L-20 1011 L0 1003 L20 995 L38 988 L57 980 L77 969 L98 957 L115 946 L134 936 L154 929 L173 924 L192 918 L211 913 L231 907 L251 900 L270 893 L289 887 L316 881 L337 875 L365 869 L400 861 L413 854 L427 848 L445 843 L464 838 L484 833 L502 828 L522 824 L542 820 L563 815 L580 810 L598 805 L619 800 L639 794 L657 788 L676 783 L696 779 L716 774 L734 770 L753 765 L774 761 L799 756 L814 752 L831 748 L850 744 L870 739 L889 734 L908 729 L928 724 L949 719 L966 714 L985 710 L1006 705 L1026 701 L1044 697 L1063 692 L1083 688 L1101 684 L1121 680 L1140 677 L1160 674 L1179 671 L1198 668 L1217 674 L1246 678 L1266 683 L1294 688 L1331 683 L1346 680 L1359 676 L1376 674 L1393 672 L1413 669 L1431 666 L1451 663 L1470 661 L1492 658 L1508 656 L1527 654 L1547 651 L1568 648 L1586 645 L1604 642 L1624 639 L1644 636 L1663 634 L1682 631 L1703 629 L1728 627 L1742 624 L1759 621 L1779 618 L1798 615 L1818 613 L1837 610 L1856 607 L1877 602 L1895 598 L1914 595 L1934 591 L1955 588 L1972 585 L1991 581 L2011 578 L2030 575 L2050 571 L2068 567 L2088 563 L2108 560 L2127 558 L2146 555 L2173 552 L2194 549 L2222 545 L2257 541 L2270 538 L2284 535 L2303 532 L2321 529 L2341 527 L2359 524 L2379 521 L2399 518 L2420 515 L2437 512 L2455 509 L2476 506 L2496 502 L2514 498 L2533 493 L2553 489 L2573 484 L2591 480 L2610 476 L2631 472 L2656 467 L2671 463 L2688 459 L2707 455 L2727 450 L2746 446 L2765 442 L2785 438 L2806 434 L2823 430 L2843 426 L2863 422 L2884 419 L2901 416 L2920 413 L2940 410 L2959 408 L2978 405 L2997 402 L3017 400 L3037 398 L3056 396 L3075 394 L3102 392 L3123 389 L3151 387 L3186 382 L3200 378 L3213 374 L3232 370 L3250 367 L3270 365 L3288 362 L3308 360 L3327 357 L3348 354 L3365 351 L3384 348 L3405 345 L3425 341 L3443 338 L3462 334 L3481 331 L3502 327 L3520 324 L3539 322 L3560 319 L3585 316 L3600 314 L3617 311 L3636 308 L3656 305 L3675 301 L3694 298 L3714 293 L3735 288 L3752 284 L3771 280 L3792 276 L3812 273 L3829 271 L3848 268 L3868 266 L3887 265 L3907 262 L3926 260 L3946 258 L3965 256 L3984 254 L4003 252 L4030 250 L4051 248 L4079 246 L4113 244 L4127 242 L4141 240 L4159 238 L4178 237 L4198 235 L4216 233 L4236 232 L4256 230 L4276 229 L4294 227 L4312 226 L4333 224 L4353 222 L4371 220 L4390 218 L4410 217 L4430 216 L4448 215 L4467 214 L4488 212 L4513 211 L4528 209 L4545 207 L4564 205 L4584 204 L4603 202 L4622 201 L4642 199 L4663 196 L4680 192 L4699 189 L4720 185 L4740 182 L4758 180 L4777 178 L4797 176 L4815 174 L4835 171 L4854 169 L4874 167 L4893 165 L4913 163 L4932 162 L4960 161 L5008 159 L5045 157 L5060 155 L5072 154 L5089 152 L5107 151 L5126 151 L5145 149 L5164 148 L5184 147 L5205 145 L5222 144 L5241 143 L5261 142 L5281 141 L5300 140 L5318 138 L5339 136 L5358 135 L5377 133 L5396 131 L5417 129 L5441 126 L5456 123 L5473 121 L5493 118 L5512 116 L5532 114 L5550 112 L5571 109 L5591 107 L5609 104 L5628 102 L5648 100 L5669 98 L5686 97 L5705 95 L5725 93 L5744 92 L5764 90 L5783 88 L5803 86 L5822 85 L5841 83 L5860 81 L5888 79 L5909 77 L5937 75 L5973 71 L5988 67 L6001 64 L6018 61 L6035 59 L6056 57 L6074 56 L6094 54 L6113 53 L6135 52 L6151 50 L6170 48 L6190 45 L6211 43 L6229 40 L6248 36 L6267 32 L6288 29 L6306 26 L6325 24 L6346 21 L6371 19 L6386 16 L6404 14 L6422 12 L6442 10 L6461 8 L6479 5 L6500 2" />
</svg>
