<svg xmlns="http://www.w3.org/2000/svg" version="1.1" viewBox="0 0 6500 1000">
	<path fill="none" stroke="gold" stroke-width="125" stroke-linecap="round" stroke-linejoin="round" d="M0 33089  L-200653 33089 L-198049 32932 L-196381 32774 L-178051 32459 L-177881 32144 L-170723 31829 L-170690 31829 L-157259 31672 L-154337 31829 L-140997 31357 L-136828 30727 L-135668 29940 L-135048 29152 L-133037 28680 L-129265 28365 L-128665 28050 L-128336 27735 L-128123 27420 L-127581 27105 L-126343 25845 L-125164 24585 L-122300 23325 L-121778 22066 L-116922 21751 L-113985 21436 L-113942 21121 L-113634 20806 L-113382 20491 L-110787 20176 L-106531 20176 L-106513 20176 L-105277 20176 L-103399 20176 L-101446 19861 L-100498 19546 L-100227 19231 L-99917 19074 L-99819 18916 L-98989 18916 L-96958 19074 L-96667 17656 L-94521 17026 L-94366 16081 L-90709 15137 L-90458 15609 L-90360 15451 L-89842 15924 L-87691 16711 L-86762 17499 L-85236 18286 L-83997 18286 L-82450 18129 L-79489 17814 L-78367 17499 L-78058 17184 L-76846 17026 L-73840 18759 L-73820 18601 L-73473 18444 L-73260 18286 L-73133 16081 L-72892 15766 L-72854 15451 L-72834 15137 L-72815 14822 L-72756 14507 L-72697 14192 L-72679 13877 L-72236 13562 L-70997 13247 L-69451 12932 L-66063 12617 L-60337 12459 L-60136 12302 L-58500 12144 L-56778 11987 L-55346 11829 L-55113 11672 L-54398 11514 L-48266 11357 L-47898 11042 L-47744 10727 L-47165 10412 L-46873 10097 L-45906 9782 L-45596 9467 L-44997 9152 L-43391 9152 L-42656 9152 L-42346 9310 L-41577 9310 L-39541 8995 L-39116 8680 L-38303 8522 L-30875 8207 L-30352 7892 L-30178 7577 L-29443 7262 L-27876 6948 L-27470 6790 L-25245 6475 L-24297 6318 L-23872 6160 L-23542 6160 L-22498 6003 L-20390 5688 L-20138 5373 L-19519 5058 L-18706 4900 L-16598 4585 L-16550 4270 L-14621 3955 L-14296 3640 L-14161 3325 L-13658 3168 L-12245 2853 L-11742 2223 L-11220 1751 L-7660 1121 L-6925 491 L-4501 491 L-3211 176 L-2804 18 L347 18 L502 18 L522 176 L889 176 L2147 333 L2862 491 L3752 491 L4159 491 L5088 491 L6196 333 L6500 963" />
</svg>
