<svg xmlns="http://www.w3.org/2000/svg" version="1.1" viewBox="0 0 6500 1000">
	<path fill="none" stroke="gold" stroke-width="125" stroke-linecap="round" stroke-linejoin="round" d="M0 12421  L-94235 12421 L-91631 12281 L-89963 12142 L-71634 11863 L-71464 11584 L-64306 11305 L-64273 11305 L-50842 11165 L-47920 11305 L-34579 10887 L-30410 10329 L-29250 9631 L-28631 8934 L-26619 8516 L-22847 8237 L-22247 7958 L-21918 7679 L-21705 7400 L-21164 7121 L-19926 6005 L-18747 4889 L-15882 3774 L-15360 2658 L-10505 2379 L-7567 2100 L-7524 1821 L-7216 1542 L-6964 1263 L-4369 984 L-114 984 L-96 984 L1140 984 L3017 984 L4971 705 L5919 426 L6190 147 L6500 8" />
</svg>
