<svg xmlns="http://www.w3.org/2000/svg" version="1.1" viewBox="0 0 6500 1000">
	<path fill="none" stroke="gold" stroke-width="125" stroke-linecap="round" stroke-linejoin="round" d="M0 1016  L-718564 1016 L-715960 1015 L-714292 1015 L-695963 1015 L-695792 1015 L-688635 1015 L-688601 1015 L-675170 1015 L-672249 1015 L-658908 1015 L-654739 1015 L-653579 1014 L-652960 1014 L-650948 1014 L-647176 1014 L-646576 1014 L-646247 1014 L-646034 1014 L-645492 1013 L-644254 1013 L-643075 1013 L-640211 1012 L-639689 1012 L-634833 1012 L-631896 1012 L-631853 1011 L-631545 1011 L-631293 1011 L-628698 1011 L-624443 1011 L-624425 1011 L-623188 1011 L-621310 1011 L-619357 1011 L-618409 1011 L-618138 1011 L-617828 1011 L-617730 1011 L-616900 1011 L-614869 1011 L-614579 1010 L-612432 1010 L-612277 1010 L-608620 1009 L-608369 1009 L-608271 1009 L-607754 1010 L-605602 1010 L-604674 1010 L-603148 1010 L-601908 1010 L-600362 1010 L-597400 1010 L-596278 1010 L-595969 1010 L-594758 1010 L-591751 1011 L-591731 1011 L-591384 1010 L-591171 1010 L-591045 1010 L-590803 1010 L-590765 1009 L-590745 1009 L-590726 1009 L-590667 1009 L-590609 1009 L-590591 1009 L-590147 1009 L-588908 1009 L-587362 1009 L-583975 1008 L-578248 1008 L-578047 1008 L-576411 1008 L-574689 1008 L-573257 1008 L-573025 1008 L-572309 1008 L-566177 1008 L-565809 1008 L-565655 1008 L-565077 1008 L-564784 1008 L-563817 1007 L-563507 1007 L-562908 1007 L-561302 1007 L-560567 1007 L-560257 1007 L-559489 1007 L-557453 1007 L-557027 1007 L-556215 1007 L-548786 1007 L-548263 1007 L-548089 1007 L-547354 1007 L-545787 1007 L-545381 1006 L-543156 1006 L-542208 1006 L-541783 1006 L-541453 1006 L-540409 1006 L-538301 1006 L-538049 1006 L-537430 1006 L-536617 1006 L-534509 1006 L-534461 1006 L-532533 1005 L-532207 1005 L-532072 1005 L-531569 1005 L-530156 1005 L-529653 1005 L-529131 1005 L-525572 1005 L-524837 1004 L-522412 1004 L-521122 1004 L-520715 1004 L-517563 1004 L-517408 1004 L-517388 1004 L-517021 1004 L-515763 1004 L-515048 1004 L-514158 1004 L-513751 1004 L-512823 1004 L-511714 1004 L-511411 1004 L-505162 1005 L-504215 1005 L-502588 1005 L-502087 1005 L-498411 1005 L-497578 1005 L-493625 1005 L-492214 1005 L-489724 1005 L-489048 1005 L-489009 1005 L-488138 1005 L-484927 1005 L-482064 1004 L-481096 1004 L-479974 1004 L-479956 1004 L-478330 1004 L-477866 1004 L-477774 1004 L-471405 1004 L-470457 1004 L-468000 1004 L-467127 1004 L-465891 1004 L-463890 1003 L-463492 1003 L-462056 1003 L-460030 1003 L-459817 1003 L-458637 1003 L-457128 1003 L-457108 1003 L-455096 1003 L-454226 1003 L-453355 1003 L-452771 1003 L-452233 1003 L-451576 1002 L-450338 1002 L-449777 1002 L-448596 1002 L-447358 1002 L-447320 1002 L-446933 1002 L-446391 1002 L-445617 1002 L-444495 1002 L-442406 1002 L-442073 1002 L-441787 1001 L-440858 1001 L-440375 1001 L-439640 1001 L-436008 1001 L-434881 1001 L-434726 1001 L-433700 1001 L-429985 1001 L-428768 1001 L-426950 1001 L-424164 1001 L-423602 1001 L-419715 1001 L-417238 1001 L-415903 1001 L-415400 1000 L-414917 1000 L-412227 1000 L-408456 1000 L-405998 1000 L-404819 1000 L-404179 1000 L-401820 1000 L-401742 1000 L-400695 1000 L-400601 1000 L-400099 1000 L-399653 1000 L-399595 1000 L-399382 1000 L-396422 1000 L-393715 1000 L-393560 1000 L-390039 1000 L-389516 1000 L-388549 1000 L-388200 999 L-387156 999 L-386227 999 L-385802 999 L-384293 999 L-383326 999 L-383307 999 L-381411 995 L-381295 991 L-381247 987 L-381223 983 L-378218 983 L-376188 983 L-374427 983 L-374060 983 L-373614 983 L-373247 983 L-372833 983 L-370848 982 L-370635 982 L-370480 982 L-368875 982 L-367753 982 L-366805 982 L-365548 982 L-363903 982 L-362723 982 L-356134 982 L-356087 982 L-355682 982 L-354637 982 L-354501 982 L-352819 982 L-352799 982 L-351462 982 L-350226 981 L-350071 981 L-349698 981 L-349491 981 L-349182 981 L-348408 981 L-346086 981 L-345429 981 L-343301 981 L-341578 981 L-341385 981 L-338832 981 L-338555 981 L-338367 980 L-337535 980 L-336762 980 L-336064 980 L-331064 980 L-330688 980 L-326435 980 L-325948 986 L-325928 986 L-325849 985 L-325774 985 L-325754 980 L-324942 980 L-324188 980 L-322969 980 L-321537 980 L-321441 980 L-321266 980 L-320912 980 L-319602 979 L-317745 979 L-316043 979 L-315540 979 L-315275 979 L-314881 979 L-314747 979 L-313837 979 L-313461 979 L-312533 979 L-312193 979 L-312154 979 L-312116 979 L-310201 979 L-310027 979 L-308498 979 L-308170 979 L-308054 979 L-307647 979 L-307299 979 L-305655 978 L-305104 978 L-304861 978 L-304320 978 L-303488 978 L-302947 978 L-301412 978 L-301320 978 L-301283 978 L-301147 978 L-300760 978 L-299735 978 L-297859 978 L-297762 978 L-297162 979 L-296795 981 L-296310 983 L-296272 985 L-295498 985 L-295441 985 L-295266 985 L-295073 985 L-293467 985 L-293448 985 L-293292 985 L-293177 985 L-291997 985 L-291843 985 L-291176 985 L-288727 989 L-286213 994 L-283543 998 L-275844 1003 L-270176 1003 L-267961 1003 L-267938 1003 L-266964 1004 L-266944 1004 L-266081 1004 L-263340 1004 L-257542 1003 L-257388 1002 L-254602 1002 L-240994 1002 L-240248 1002 L-235838 1002 L-219491 1002 L-219259 1002 L-218722 1002 L-210263 1002 L-201557 1002 L-201345 1002 L-199372 1002 L-196586 1002 L-192099 1002 L-191944 1002 L-191775 1002 L-191634 1002 L-191344 1001 L-191305 1001 L-191034 1001 L-190862 1001 L-190452 1001 L-189332 1001 L-188151 1001 L-186875 1001 L-184011 1001 L-181091 1001 L-179099 1001 L-177551 1001 L-174513 1001 L-165188 1001 L-164664 1001 L-158941 1001 L-157434 1001 L-156619 1001 L-154935 1001 L-154214 1000 L-154046 1000 L-153001 1000 L-150933 1000 L-149571 1000 L-145128 1000 L-145031 1000 L-144992 1000 L-144973 1000 L-144141 1000 L-144063 1000 L-141491 1000 L-138241 1000 L-138087 1000 L-137138 1000 L-135397 1000 L-134682 1000 L-131141 1000 L-124564 1000 L-123146 1001 L-123126 1001 L-122175 1001 L-118701 1001 L-117948 1001 L-117386 1001 L-116604 1001 L-109100 1000 L-107501 1000 L-105927 1000 L-102742 1000 L-98409 1000 L-89839 1000 L-81093 1000 L-78019 1000 L-74753 1000 L-74206 1000 L-67069 1000 L-61402 1000 L-47337 1000 L-41326 1000 L-36619 1000 L-32616 1000 L-27509 1000 L-17795 1000 L-2224 1000 L858 999 L1160 975 L1179 945 L1198 911 L1218 873 L1238 856 L1257 841 L1276 827 L1303 814 L1324 801 L1352 788 L1387 773 L1401 760 L1414 749 L1432 740 L1451 733 L1471 726 L1489 719 L1509 712 L1528 705 L1550 698 L1566 691 L1585 684 L1606 678 L1626 671 L1644 664 L1663 656 L1683 649 L1703 641 L1721 634 L1740 627 L1761 620 L1786 614 L1801 607 L1818 601 L1837 595 L1857 589 L1876 582 L1895 575 L1915 569 L1935 563 L1953 557 L1972 551 L1993 546 L2013 541 L2030 537 L2049 533 L2069 528 L2088 524 L2108 521 L2127 517 L2147 514 L2166 511 L2186 508 L2204 506 L2231 502 L2252 498 L2280 494 L2314 489 L2328 485 L2342 482 L2360 479 L2379 476 L2399 474 L2418 470 L2437 467 L2457 464 L2478 461 L2495 458 L2514 456 L2534 453 L2554 449 L2572 445 L2591 441 L2611 437 L2631 433 L2650 428 L2668 424 L2690 419 L2714 414 L2729 409 L2746 404 L2766 399 L2785 394 L2804 389 L2823 383 L2843 378 L2864 373 L2882 368 L2901 363 L2921 359 L2941 354 L2959 350 L2978 346 L2998 342 L3017 338 L3037 334 L3055 331 L3075 327 L3094 324 L3114 320 L3133 317 L3162 313 L3181 310 L3209 306 L3246 302 L3261 298 L3274 295 L3291 291 L3308 289 L3328 286 L3346 284 L3365 282 L3385 280 L3406 278 L3423 276 L3442 274 L3463 271 L3482 268 L3501 266 L3520 263 L3540 260 L3559 257 L3578 253 L3597 250 L3618 247 L3642 244 L3657 241 L3674 237 L3694 234 L3713 231 L3733 228 L3752 224 L3772 221 L3792 217 L3810 214 L3829 211 L3849 208 L3870 205 L3888 203 L3907 200 L3926 197 L3945 195 L3965 192 L3984 189 L4004 187 L4023 184 L4042 182 L4061 179 L4090 177 L4110 174 L4138 171 L4174 167 L4188 163 L4201 160 L4219 157 L4237 155 L4257 153 L4275 150 L4295 148 L4314 145 L4336 142 L4354 139 L4371 135 L4392 132 L4412 128 L4430 124 L4449 120 L4469 116 L4489 112 L4507 109 L4526 106 L4547 103 L4572 101 L4586 99 L4604 97 L4623 95 L4643 93 L4662 91 L4681 89 L4701 87 L4722 85 L4739 84 L4758 82 L4778 79 L4799 77 L4816 74 L4835 72 L4855 70 L4874 69 L4894 68 L4913 67 L4932 65 L4952 64 L4971 62 L4990 61 L5017 60 L5038 58 L5066 57 L5101 55 L5115 54 L5128 52 L5147 51 L5165 50 L5185 49 L5203 48 L5223 47 L5243 46 L5264 45 L5281 44 L5299 43 L5320 41 L5340 40 L5358 39 L5377 38 L5397 37 L5417 36 L5435 35 L5454 34 L5475 33 L5500 32 L5515 31 L5532 30 L5552 29 L5571 28 L5590 27 L5609 26 L5629 24 L5650 23 L5667 22 L5686 21 L5707 20 L5727 19 L5745 18 L5764 17 L5784 16 L5802 15 L5822 15 L5841 14 L5861 13 L5880 13 L5900 12 L5918 13 L5947 14 L5967 15 L5995 16 L6032 15 L6047 14 L6060 14 L6078 13 L6094 13 L6114 12 L6132 11 L6152 11 L6171 10 L6193 10 L6209 9 L6228 9 L6249 8 L6269 7 L6287 7 L6306 6 L6325 5 L6346 5 L6364 4 L6383 4 L6404 3 L6429 3 L6443 2 L6461 1 L6480 1 L6500 0" />
</svg>
