<svg xmlns="http://www.w3.org/2000/svg" version="1.1" viewBox="0 0 6500 1000">
	<path fill="none" stroke="gold" stroke-width="125" stroke-linecap="round" stroke-linejoin="round" d="M0 4501  L-722977 4501 L-720373 4501 L-718705 4501 L-700375 4500 L-700205 4500 L-693047 4499 L-693014 4499 L-679583 4499 L-676661 4499 L-663320 4499 L-659151 4498 L-657991 4497 L-657372 4496 L-655360 4495 L-651588 4495 L-650988 4494 L-650660 4494 L-650447 4493 L-649905 4493 L-648667 4491 L-647488 4490 L-644624 4488 L-644101 4486 L-639246 4486 L-636309 4485 L-636266 4485 L-635957 4484 L-635705 4484 L-633110 4484 L-628855 4484 L-628837 4484 L-627600 4484 L-625723 4484 L-623769 4483 L-622821 4483 L-622551 4482 L-622241 4482 L-622143 4482 L-621312 4482 L-619281 4482 L-618991 4480 L-616845 4479 L-616689 4478 L-613033 4477 L-612782 4477 L-612683 4477 L-612166 4478 L-610015 4479 L-609086 4480 L-607560 4481 L-606321 4481 L-604774 4481 L-601812 4480 L-600690 4480 L-600381 4480 L-599170 4479 L-596163 4482 L-596144 4481 L-595796 4481 L-595583 4481 L-595457 4478 L-595215 4478 L-595178 4477 L-595158 4477 L-595139 4476 L-595080 4476 L-595021 4475 L-595003 4475 L-594560 4475 L-593321 4474 L-591775 4474 L-588387 4473 L-582661 4473 L-582459 4473 L-580823 4473 L-579102 4473 L-577669 4472 L-577437 4472 L-576722 4472 L-570590 4472 L-570222 4471 L-570067 4471 L-569489 4470 L-569196 4470 L-568229 4470 L-567920 4469 L-567321 4469 L-565714 4469 L-564979 4469 L-564669 4469 L-563901 4469 L-561865 4468 L-561440 4468 L-560627 4468 L-553199 4467 L-552675 4467 L-552502 4467 L-551767 4466 L-550199 4466 L-549794 4465 L-547569 4465 L-546621 4465 L-546196 4465 L-545865 4465 L-544822 4464 L-542713 4464 L-542461 4464 L-541842 4463 L-541030 4463 L-538922 4463 L-538873 4462 L-536945 4462 L-536619 4461 L-536484 4461 L-535981 4461 L-534569 4460 L-534066 4459 L-533544 4459 L-529984 4458 L-529249 4457 L-526824 4457 L-525535 4457 L-525128 4456 L-521975 4456 L-521821 4456 L-521800 4457 L-521434 4457 L-520175 4457 L-519460 4457 L-518571 4457 L-518164 4457 L-517235 4457 L-516126 4457 L-515823 4458 L-509574 4458 L-508627 4458 L-507001 4459 L-506499 4459 L-502823 4459 L-501991 4460 L-498038 4460 L-496626 4459 L-494137 4459 L-493460 4458 L-493422 4458 L-492551 4458 L-489340 4458 L-486476 4458 L-485508 4457 L-484387 4457 L-484368 4457 L-482743 4456 L-482279 4455 L-482187 4455 L-475818 4455 L-474869 4455 L-472412 4455 L-471540 4454 L-470304 4454 L-468302 4454 L-467905 4453 L-466469 4453 L-464442 4453 L-464229 4452 L-463049 4452 L-461541 4452 L-461521 4452 L-459508 4451 L-458639 4451 L-457768 4451 L-457183 4450 L-456646 4450 L-455988 4450 L-454750 4449 L-454190 4449 L-453008 4449 L-451771 4448 L-451732 4448 L-451345 4448 L-450804 4448 L-450030 4447 L-448908 4447 L-446818 4447 L-446485 4446 L-446199 4446 L-445271 4446 L-444788 4445 L-444052 4445 L-440421 4445 L-439293 4445 L-439139 4444 L-438113 4444 L-434398 4444 L-433181 4443 L-431362 4443 L-428576 4443 L-428015 4442 L-424127 4442 L-421650 4442 L-420316 4442 L-419812 4442 L-419329 4442 L-416640 4442 L-412868 4442 L-410411 4442 L-409231 4442 L-408592 4441 L-406232 4441 L-406155 4441 L-405107 4441 L-405014 4440 L-404511 4440 L-404066 4440 L-404008 4440 L-403794 4440 L-400835 4440 L-398127 4440 L-397972 4439 L-394451 4439 L-393929 4439 L-392961 4438 L-392612 4438 L-391569 4438 L-390640 4437 L-390214 4437 L-388705 4437 L-387738 4437 L-387719 4437 L-385823 4421 L-385707 4405 L-385659 4389 L-385635 4373 L-382631 4373 L-380600 4373 L-378839 4373 L-378472 4372 L-378027 4372 L-377660 4372 L-377246 4371 L-375261 4371 L-375048 4371 L-374893 4371 L-373288 4371 L-372166 4371 L-371217 4371 L-369960 4370 L-368316 4370 L-367136 4369 L-360547 4369 L-360500 4369 L-360094 4369 L-359049 4369 L-358914 4368 L-357231 4368 L-357211 4368 L-355874 4367 L-354638 4367 L-354484 4367 L-354110 4366 L-353904 4366 L-353594 4366 L-352821 4366 L-350499 4365 L-349841 4365 L-347713 4365 L-345991 4365 L-345798 4364 L-343244 4364 L-342968 4364 L-342780 4363 L-341947 4363 L-341175 4363 L-340477 4363 L-335476 4363 L-335100 4362 L-330847 4362 L-330360 4383 L-330341 4383 L-330262 4383 L-330187 4383 L-330167 4361 L-329354 4361 L-328600 4360 L-327381 4360 L-325949 4360 L-325853 4360 L-325679 4360 L-325324 4359 L-324015 4359 L-322158 4359 L-320455 4359 L-319952 4358 L-319687 4358 L-319294 4358 L-319160 4358 L-318250 4358 L-317874 4357 L-316945 4357 L-316606 4357 L-316566 4357 L-316529 4357 L-314613 4357 L-314440 4357 L-312911 4357 L-312583 4356 L-312466 4356 L-312059 4356 L-311711 4356 L-310068 4355 L-309517 4355 L-309273 4355 L-308732 4355 L-307901 4354 L-307359 4354 L-305825 4353 L-305732 4353 L-305695 4353 L-305559 4353 L-305172 4353 L-304147 4352 L-302271 4352 L-302175 4352 L-301574 4359 L-301207 4366 L-300723 4373 L-300685 4381 L-299911 4381 L-299853 4381 L-299679 4381 L-299485 4380 L-297880 4380 L-297860 4380 L-297705 4380 L-297589 4380 L-296410 4381 L-296255 4381 L-295588 4381 L-293140 4399 L-290625 4417 L-287955 4434 L-280256 4451 L-274588 4451 L-272374 4451 L-272350 4451 L-271377 4455 L-271357 4455 L-270493 4455 L-267753 4454 L-261954 4450 L-261801 4450 L-259015 4449 L-245407 4449 L-244661 4449 L-240250 4448 L-223904 4448 L-223672 4448 L-223135 4447 L-214675 4447 L-205970 4447 L-205757 4447 L-203785 4447 L-200998 4447 L-196511 4447 L-196356 4447 L-196187 4447 L-196047 4446 L-195756 4446 L-195717 4446 L-195447 4445 L-195275 4445 L-194865 4445 L-193744 4445 L-192564 4445 L-191287 4444 L-188423 4444 L-185503 4444 L-183511 4444 L-181963 4443 L-178925 4443 L-169601 4443 L-169077 4443 L-163353 4443 L-161846 4442 L-161031 4442 L-159348 4442 L-158627 4442 L-158458 4442 L-157413 4441 L-155346 4441 L-153984 4441 L-149541 4441 L-149443 4441 L-149405 4440 L-149386 4440 L-148553 4440 L-148476 4440 L-145903 4439 L-142654 4439 L-142499 4439 L-141551 4439 L-139810 4438 L-139094 4440 L-135554 4441 L-128976 4442 L-127559 4444 L-127538 4443 L-126588 4443 L-123113 4443 L-122360 4442 L-121798 4442 L-121016 4442 L-113512 4442 L-111914 4442 L-110340 4441 L-107154 4441 L-102821 4441 L-94252 4441 L-85505 4441 L-82431 4441 L-79165 4440 L-78619 4440 L-71482 4440 L-65814 4440 L-51750 4440 L-45738 4440 L-41032 4440 L-37029 4439 L-31921 4439 L-22207 4439 L-6637 4438 L-3554 4438 L-3252 4342 L-3232 4224 L-3213 4090 L-3193 3940 L-3174 3872 L-3155 3814 L-3136 3761 L-3108 3709 L-3088 3658 L-3060 3605 L-3024 3546 L-3011 3496 L-2998 3452 L-2979 3417 L-2961 3390 L-2941 3363 L-2922 3336 L-2903 3309 L-2883 3282 L-2862 3253 L-2845 3226 L-2826 3198 L-2806 3172 L-2786 3146 L-2768 3118 L-2749 3088 L-2729 3058 L-2709 3029 L-2690 3000 L-2672 2973 L-2650 2947 L-2626 2921 L-2611 2896 L-2594 2872 L-2574 2847 L-2555 2823 L-2536 2797 L-2517 2770 L-2497 2744 L-2476 2720 L-2458 2697 L-2439 2675 L-2419 2655 L-2398 2635 L-2381 2618 L-2362 2602 L-2342 2585 L-2323 2570 L-2304 2555 L-2285 2542 L-2265 2530 L-2245 2519 L-2226 2507 L-2207 2496 L-2180 2481 L-2159 2467 L-2131 2450 L-2097 2432 L-2083 2417 L-2070 2403 L-2051 2391 L-2032 2381 L-2012 2370 L-1994 2357 L-1975 2345 L-1955 2332 L-1934 2321 L-1917 2310 L-1898 2299 L-1878 2287 L-1858 2274 L-1839 2259 L-1821 2243 L-1800 2226 L-1781 2209 L-1762 2192 L-1743 2175 L-1722 2156 L-1698 2135 L-1683 2114 L-1666 2095 L-1646 2075 L-1627 2056 L-1607 2036 L-1588 2014 L-1568 1994 L-1548 1974 L-1530 1955 L-1511 1935 L-1491 1918 L-1470 1899 L-1453 1882 L-1434 1867 L-1413 1851 L-1395 1837 L-1375 1823 L-1356 1808 L-1336 1795 L-1317 1780 L-1298 1766 L-1279 1752 L-1250 1738 L-1230 1725 L-1203 1712 L-1165 1696 L-1150 1680 L-1138 1666 L-1121 1653 L-1104 1643 L-1084 1634 L-1065 1625 L-1046 1618 L-1026 1610 L-1005 1602 L-988 1593 L-969 1583 L-949 1573 L-929 1563 L-911 1552 L-892 1541 L-872 1529 L-852 1516 L-833 1503 L-815 1491 L-793 1479 L-769 1466 L-754 1454 L-737 1441 L-717 1428 L-698 1416 L-679 1403 L-660 1389 L-640 1376 L-619 1363 L-601 1350 L-582 1338 L-562 1326 L-542 1315 L-524 1305 L-505 1294 L-485 1283 L-466 1273 L-446 1262 L-428 1252 L-408 1242 L-388 1232 L-369 1222 L-350 1212 L-322 1202 L-302 1192 L-274 1181 L-238 1165 L-224 1150 L-210 1136 L-193 1124 L-175 1117 L-155 1108 L-137 1098 L-117 1088 L-97 1077 L-76 1065 L-57 1053 L-41 1040 L-20 1026 L0 1011 L17 996 L36 980 L56 964 L76 949 L94 934 L113 923 L134 913 L159 905 L174 898 L191 890 L210 882 L230 874 L249 865 L268 857 L288 849 L309 843 L326 837 L345 829 L366 820 L387 809 L404 799 L423 791 L443 785 L462 780 L481 775 L500 770 L520 765 L540 759 L559 753 L577 747 L605 742 L626 737 L654 731 L688 724 L702 718 L715 713 L734 708 L753 704 L772 700 L791 695 L811 691 L830 688 L851 684 L868 680 L887 675 L908 670 L928 665 L946 660 L964 656 L984 652 L1005 648 L1023 644 L1042 640 L1063 636 L1088 632 L1102 628 L1119 625 L1139 621 L1158 617 L1178 612 L1197 608 L1217 603 L1237 599 L1255 594 L1274 591 L1294 586 L1315 583 L1332 579 L1351 575 L1371 572 L1390 568 L1410 565 L1428 562 L1449 559 L1468 557 L1487 554 L1506 559 L1535 563 L1554 567 L1582 571 L1620 567 L1635 564 L1648 561 L1665 559 L1681 557 L1701 555 L1720 552 L1739 550 L1759 547 L1780 545 L1797 543 L1816 541 L1836 539 L1856 536 L1874 534 L1893 531 L1913 529 L1933 526 L1951 524 L1970 522 L1992 520 L2016 518 L2031 515 L2048 513 L2068 510 L2087 507 L2106 505 L2125 503 L2145 500 L2166 496 L2184 492 L2202 489 L2223 486 L2244 483 L2261 480 L2280 477 L2300 474 L2319 472 L2338 468 L2357 465 L2377 461 L2397 459 L2416 457 L2435 454 L2462 451 L2483 449 L2511 446 L2546 442 L2559 439 L2572 437 L2591 434 L2610 431 L2630 429 L2648 427 L2668 424 L2687 421 L2708 419 L2725 416 L2744 414 L2765 411 L2785 407 L2803 404 L2822 400 L2841 395 L2862 391 L2880 388 L2899 384 L2920 381 L2945 377 L2960 373 L2977 369 L2996 365 L3016 362 L3035 358 L3054 354 L3074 351 L3095 347 L3112 344 L3131 340 L3152 337 L3172 334 L3189 331 L3208 328 L3228 326 L3247 324 L3267 322 L3286 319 L3305 318 L3325 316 L3344 314 L3363 312 L3391 310 L3411 308 L3439 306 L3475 302 L3488 298 L3502 295 L3520 291 L3538 289 L3558 286 L3577 284 L3596 282 L3616 279 L3637 277 L3654 274 L3673 271 L3693 269 L3713 266 L3731 262 L3750 259 L3770 256 L3791 253 L3808 250 L3827 248 L3849 246 L3874 243 L3888 241 L3905 239 L3925 236 L3944 233 L3964 230 L3982 227 L4002 223 L4024 219 L4041 215 L4060 211 L4080 208 L4101 205 L4118 203 L4137 201 L4157 199 L4176 198 L4196 196 L4214 194 L4234 192 L4254 190 L4273 188 L4292 186 L4319 184 L4340 183 L4368 181 L4402 179 L4416 178 L4429 176 L4448 174 L4467 173 L4486 171 L4505 170 L4524 169 L4544 168 L4565 166 L4582 165 L4601 163 L4621 162 L4641 160 L4660 158 L4679 157 L4699 156 L4719 155 L4737 154 L4756 153 L4777 152 L4802 150 L4816 149 L4834 147 L4853 145 L4872 144 L4892 143 L4911 141 L4931 140 L4951 137 L4969 134 L4988 131 L5008 128 L5029 125 L5047 123 L5066 121 L5085 119 L5104 117 L5124 115 L5143 113 L5163 112 L5182 110 L5202 108 L5220 107 L5249 106 L5297 105 L5333 103 L5348 101 L5361 100 L5378 98 L5395 98 L5415 97 L5434 96 L5453 95 L5473 94 L5494 92 L5511 92 L5530 91 L5550 90 L5570 89 L5588 87 L5607 86 L5627 85 L5647 83 L5665 82 L5684 80 L5706 78 L5730 75 L5745 73 L5762 71 L5782 69 L5801 66 L5820 64 L5839 63 L5859 61 L5880 58 L5898 56 L5917 54 L5937 52 L5957 51 L5975 49 L5994 48 L6014 46 L6033 45 L6053 44 L6071 42 L6091 41 L6111 39 L6130 37 L6149 36 L6177 34 L6197 32 L6225 30 L6262 27 L6277 23 L6289 20 L6307 18 L6324 16 L6344 15 L6362 13 L6382 12 L6402 11 L6423 10 L6440 8 L6458 6 L6479 4 L6500 2" />
</svg>
