<svg xmlns="http://www.w3.org/2000/svg" version="1.1" viewBox="0 0 6500 1000">
	<path fill="none" stroke="gold" stroke-width="125" stroke-linecap="round" stroke-linejoin="round" d="M0 11231  L-730482 11231 L-727878 11230 L-726210 11230 L-707880 11229 L-707710 11228 L-700552 11227 L-700519 11227 L-687088 11226 L-684166 11227 L-670825 11225 L-666656 11224 L-665496 11221 L-664877 11219 L-662865 11217 L-659094 11216 L-658493 11216 L-658165 11215 L-657952 11214 L-657410 11213 L-656172 11209 L-654993 11205 L-652129 11201 L-651606 11198 L-646751 11197 L-643814 11196 L-643771 11195 L-643462 11194 L-643211 11193 L-640616 11192 L-636360 11192 L-636342 11192 L-635105 11192 L-633228 11192 L-631274 11191 L-630326 11190 L-630056 11189 L-629746 11189 L-629648 11188 L-628817 11188 L-626787 11189 L-626496 11184 L-624350 11182 L-624194 11180 L-620538 11177 L-620287 11178 L-620188 11178 L-619671 11179 L-617520 11181 L-616591 11184 L-615065 11186 L-613826 11186 L-612279 11186 L-609317 11185 L-608196 11184 L-607886 11183 L-606675 11182 L-603668 11188 L-603649 11187 L-603301 11187 L-603088 11186 L-602962 11180 L-602721 11179 L-602683 11178 L-602663 11177 L-602644 11176 L-602585 11175 L-602526 11174 L-602508 11173 L-602065 11172 L-600826 11171 L-599280 11170 L-595892 11169 L-590166 11169 L-589964 11168 L-588329 11168 L-586607 11167 L-585174 11167 L-584942 11166 L-584227 11166 L-578095 11165 L-577727 11164 L-577573 11163 L-576994 11162 L-576702 11162 L-575734 11161 L-575425 11160 L-574826 11159 L-573219 11159 L-572484 11159 L-572174 11159 L-571406 11159 L-569370 11158 L-568945 11157 L-568132 11157 L-560704 11156 L-560181 11155 L-560007 11154 L-559272 11153 L-557704 11152 L-557299 11152 L-555074 11151 L-554126 11150 L-553701 11150 L-553370 11150 L-552327 11149 L-550219 11148 L-549966 11147 L-549347 11146 L-548535 11146 L-546427 11145 L-546378 11144 L-544450 11143 L-544124 11142 L-543989 11141 L-543486 11141 L-542074 11140 L-541571 11138 L-541049 11136 L-537489 11135 L-536754 11133 L-534329 11133 L-533040 11132 L-532633 11131 L-529480 11131 L-529326 11131 L-529305 11132 L-528939 11132 L-527681 11132 L-526966 11133 L-526076 11133 L-525669 11133 L-524740 11133 L-523631 11132 L-523328 11134 L-517079 11135 L-516132 11136 L-514506 11137 L-514004 11137 L-510328 11138 L-509496 11138 L-505543 11139 L-504131 11137 L-501642 11136 L-500965 11135 L-500927 11135 L-500056 11135 L-496845 11135 L-493982 11134 L-493014 11134 L-491892 11133 L-491873 11132 L-490248 11131 L-489784 11129 L-489692 11129 L-483323 11128 L-482374 11128 L-479917 11127 L-479045 11126 L-477809 11126 L-475808 11126 L-475410 11125 L-473974 11124 L-471948 11123 L-471734 11122 L-470554 11122 L-469046 11121 L-469026 11121 L-467013 11120 L-466144 11119 L-465273 11119 L-464688 11118 L-464151 11117 L-463493 11116 L-462255 11115 L-461695 11115 L-460513 11114 L-459276 11114 L-459237 11113 L-458850 11113 L-458309 11112 L-457535 11111 L-456413 11111 L-454324 11110 L-453990 11109 L-453704 11108 L-452776 11108 L-452293 11107 L-451557 11106 L-447926 11106 L-446798 11105 L-446644 11105 L-445618 11104 L-441903 11103 L-440686 11102 L-438867 11101 L-436081 11101 L-435520 11100 L-431632 11100 L-429156 11099 L-427821 11099 L-427317 11099 L-426834 11099 L-424145 11099 L-420373 11099 L-417916 11099 L-416736 11099 L-416097 11098 L-413737 11097 L-413660 11097 L-412613 11096 L-412519 11095 L-412016 11095 L-411571 11095 L-411513 11095 L-411299 11095 L-408340 11094 L-405632 11094 L-405477 11093 L-401957 11093 L-401434 11092 L-400466 11091 L-400117 11090 L-399074 11090 L-398145 11089 L-397719 11088 L-396210 11088 L-395243 11088 L-395224 11087 L-393328 11053 L-393212 11017 L-393165 10982 L-393140 10947 L-390136 10947 L-388105 10946 L-386344 10945 L-385977 10945 L-385532 10944 L-385165 10943 L-384751 10942 L-382766 10942 L-382553 10942 L-382398 10941 L-380793 10941 L-379671 10941 L-378723 10940 L-377465 10939 L-375821 10939 L-374641 10938 L-368052 10938 L-368005 10937 L-367599 10937 L-366554 10936 L-366419 10936 L-364736 10935 L-364716 10934 L-363379 10933 L-362143 10933 L-361989 10932 L-361615 10931 L-361409 10931 L-361099 10930 L-360326 10929 L-358004 10929 L-357346 10929 L-355218 10928 L-353496 10928 L-353303 10927 L-350749 10926 L-350473 10925 L-350285 10924 L-349452 10924 L-348680 10923 L-347982 10923 L-342981 10923 L-342605 10922 L-338352 10921 L-337865 10968 L-337846 10968 L-337767 10968 L-337692 10967 L-337672 10919 L-336859 10919 L-336105 10918 L-334886 10917 L-333454 10917 L-333358 10917 L-333184 10917 L-332829 10916 L-331520 10915 L-329663 10915 L-327960 10914 L-327458 10913 L-327192 10913 L-326799 10912 L-326665 10912 L-325755 10911 L-325379 10911 L-324450 10911 L-324111 10911 L-324071 10911 L-324034 10910 L-322118 10910 L-321945 10910 L-320416 10910 L-320088 10909 L-319972 10909 L-319564 10908 L-319216 10907 L-317573 10906 L-317022 10906 L-316779 10905 L-316237 10905 L-315406 10904 L-314864 10903 L-313330 10902 L-313237 10902 L-313201 10902 L-313065 10901 L-312677 10901 L-311653 10900 L-309776 10900 L-309680 10899 L-309080 10914 L-308712 10930 L-308228 10947 L-308190 10963 L-307416 10964 L-307358 10964 L-307184 10963 L-306990 10962 L-305385 10961 L-305365 10961 L-305210 10962 L-305095 10962 L-303915 10963 L-303760 10964 L-303093 10964 L-300645 11003 L-298130 11043 L-295460 11081 L-287761 11119 L-282093 11119 L-279879 11119 L-279856 11119 L-278882 11128 L-278862 11128 L-277998 11127 L-275258 11127 L-269459 11117 L-269306 11116 L-266520 11116 L-252912 11115 L-252166 11114 L-247755 11113 L-231409 11113 L-231177 11112 L-230640 11111 L-222180 11111 L-213475 11110 L-213262 11110 L-211290 11109 L-208504 11109 L-204016 11110 L-203861 11109 L-203692 11109 L-203552 11109 L-203261 11108 L-203222 11108 L-202952 11107 L-202780 11107 L-202370 11106 L-201249 11106 L-200069 11105 L-198792 11105 L-195928 11104 L-193008 11104 L-191016 11103 L-189468 11102 L-186430 11102 L-177106 11101 L-176582 11101 L-170858 11101 L-169351 11100 L-168537 11100 L-166853 11099 L-166132 11099 L-165963 11099 L-164918 11098 L-162851 11098 L-161489 11097 L-157046 11097 L-156948 11096 L-156910 11096 L-156891 11095 L-156058 11095 L-155981 11094 L-153408 11093 L-150159 11093 L-150004 11092 L-149056 11092 L-147315 11091 L-146599 11094 L-143059 11096 L-136481 11099 L-135064 11103 L-135043 11102 L-134093 11102 L-130618 11101 L-129865 11100 L-129303 11100 L-128521 11099 L-121017 11099 L-119419 11099 L-117845 11098 L-114660 11098 L-110326 11097 L-101757 11097 L-93010 11097 L-89937 11096 L-86670 11095 L-86124 11095 L-78987 11094 L-73319 11094 L-59255 11094 L-53243 11095 L-48537 11094 L-44534 11093 L-39426 11093 L-29712 11092 L-14142 11091 L-11059 11090 L-10757 10877 L-10737 10615 L-10718 10317 L-10699 9984 L-10679 9832 L-10660 9703 L-10641 9586 L-10613 9469 L-10593 9357 L-10565 9237 L-10529 9106 L-10516 8994 L-10503 8898 L-10484 8819 L-10466 8760 L-10446 8700 L-10428 8640 L-10408 8580 L-10388 8519 L-10367 8455 L-10350 8394 L-10332 8334 L-10311 8276 L-10291 8217 L-10273 8154 L-10254 8089 L-10234 8021 L-10214 7956 L-10196 7892 L-10177 7833 L-10155 7775 L-10131 7716 L-10116 7662 L-10099 7607 L-10079 7552 L-10060 7498 L-10041 7440 L-10022 7380 L-10002 7324 L-9981 7270 L-9963 7218 L-9944 7170 L-9924 7124 L-9903 7081 L-9886 7043 L-9867 7006 L-9847 6970 L-9828 6936 L-9809 6903 L-9790 6873 L-9770 6847 L-9750 6822 L-9731 6796 L-9712 6771 L-9685 6739 L-9664 6706 L-9636 6669 L-9602 6628 L-9588 6595 L-9575 6565 L-9556 6538 L-9537 6516 L-9517 6491 L-9499 6463 L-9480 6436 L-9460 6408 L-9439 6382 L-9422 6358 L-9403 6333 L-9383 6307 L-9363 6277 L-9344 6244 L-9326 6208 L-9306 6171 L-9286 6133 L-9267 6096 L-9248 6058 L-9227 6015 L-9203 5968 L-9188 5922 L-9171 5879 L-9151 5836 L-9132 5793 L-9112 5748 L-9093 5701 L-9073 5655 L-9053 5611 L-9035 5567 L-9016 5525 L-8996 5485 L-8975 5444 L-8958 5406 L-8939 5372 L-8919 5336 L-8900 5306 L-8880 5274 L-8861 5242 L-8841 5212 L-8822 5179 L-8803 5148 L-8784 5117 L-8755 5085 L-8735 5057 L-8708 5027 L-8670 4991 L-8655 4957 L-8643 4925 L-8626 4896 L-8609 4874 L-8589 4854 L-8570 4835 L-8551 4818 L-8531 4801 L-8510 4782 L-8493 4762 L-8474 4741 L-8454 4719 L-8434 4697 L-8416 4673 L-8397 4648 L-8377 4621 L-8357 4592 L-8338 4563 L-8320 4536 L-8299 4509 L-8274 4481 L-8260 4454 L-8242 4426 L-8222 4397 L-8203 4370 L-8184 4340 L-8165 4310 L-8145 4280 L-8124 4251 L-8106 4222 L-8087 4196 L-8067 4170 L-8047 4145 L-8029 4123 L-8010 4098 L-7990 4075 L-7971 4051 L-7952 4027 L-7933 4005 L-7913 3982 L-7894 3961 L-7874 3939 L-7855 3917 L-7827 3894 L-7807 3872 L-7779 3846 L-7743 3811 L-7729 3778 L-7716 3747 L-7698 3720 L-7680 3703 L-7660 3685 L-7642 3663 L-7622 3640 L-7602 3616 L-7581 3589 L-7563 3561 L-7546 3533 L-7525 3502 L-7505 3469 L-7487 3435 L-7468 3399 L-7448 3363 L-7428 3330 L-7410 3298 L-7391 3272 L-7370 3252 L-7345 3234 L-7330 3217 L-7313 3200 L-7294 3182 L-7274 3164 L-7255 3145 L-7236 3126 L-7216 3109 L-7195 3095 L-7178 3081 L-7159 3065 L-7138 3044 L-7117 3020 L-7100 2997 L-7081 2979 L-7061 2965 L-7043 2954 L-7023 2944 L-7004 2933 L-6984 2921 L-6965 2908 L-6945 2895 L-6927 2883 L-6899 2870 L-6878 2859 L-6851 2846 L-6816 2830 L-6802 2817 L-6789 2805 L-6770 2795 L-6751 2786 L-6732 2777 L-6713 2767 L-6694 2758 L-6674 2750 L-6653 2741 L-6636 2732 L-6617 2722 L-6596 2711 L-6576 2700 L-6558 2688 L-6540 2679 L-6520 2670 L-6499 2661 L-6481 2652 L-6462 2643 L-6441 2634 L-6416 2626 L-6402 2617 L-6385 2609 L-6365 2601 L-6346 2592 L-6326 2582 L-6307 2572 L-6288 2561 L-6267 2552 L-6249 2542 L-6230 2534 L-6210 2525 L-6189 2517 L-6172 2509 L-6153 2500 L-6133 2492 L-6114 2484 L-6094 2476 L-6076 2470 L-6056 2464 L-6036 2458 L-6017 2453 L-5998 2463 L-5969 2472 L-5950 2482 L-5922 2491 L-5884 2482 L-5869 2475 L-5856 2469 L-5839 2464 L-5823 2459 L-5803 2454 L-5785 2448 L-5765 2443 L-5745 2437 L-5724 2433 L-5707 2428 L-5689 2424 L-5668 2419 L-5648 2413 L-5630 2407 L-5611 2401 L-5591 2396 L-5571 2390 L-5553 2385 L-5534 2380 L-5513 2376 L-5488 2372 L-5473 2366 L-5456 2360 L-5436 2355 L-5417 2349 L-5398 2344 L-5379 2338 L-5359 2331 L-5338 2323 L-5321 2315 L-5302 2308 L-5281 2301 L-5261 2295 L-5243 2288 L-5224 2281 L-5204 2275 L-5185 2269 L-5166 2261 L-5147 2254 L-5127 2247 L-5107 2240 L-5088 2236 L-5070 2231 L-5042 2224 L-5021 2218 L-4993 2211 L-4959 2204 L-4945 2197 L-4932 2191 L-4913 2185 L-4894 2180 L-4874 2175 L-4856 2169 L-4836 2163 L-4817 2157 L-4796 2151 L-4779 2146 L-4760 2140 L-4739 2133 L-4719 2126 L-4701 2118 L-4682 2109 L-4663 2100 L-4642 2091 L-4624 2082 L-4605 2075 L-4584 2067 L-4559 2058 L-4544 2050 L-4527 2041 L-4508 2033 L-4488 2025 L-4469 2016 L-4450 2007 L-4430 2000 L-4409 1992 L-4392 1984 L-4373 1977 L-4352 1969 L-4332 1962 L-4315 1957 L-4296 1951 L-4276 1946 L-4257 1941 L-4237 1935 L-4218 1931 L-4199 1926 L-4179 1922 L-4160 1918 L-4141 1915 L-4113 1910 L-4093 1905 L-4065 1900 L-4029 1891 L-4016 1883 L-4003 1875 L-3984 1867 L-3966 1862 L-3946 1857 L-3927 1852 L-3908 1847 L-3888 1842 L-3867 1836 L-3850 1830 L-3831 1824 L-3811 1818 L-3791 1811 L-3773 1804 L-3754 1797 L-3734 1790 L-3714 1783 L-3696 1777 L-3677 1772 L-3655 1767 L-3630 1762 L-3616 1757 L-3599 1751 L-3579 1745 L-3560 1739 L-3541 1732 L-3522 1725 L-3502 1716 L-3481 1706 L-3463 1698 L-3444 1690 L-3424 1683 L-3403 1677 L-3386 1672 L-3367 1667 L-3347 1664 L-3328 1660 L-3309 1656 L-3290 1651 L-3270 1647 L-3250 1642 L-3231 1639 L-3212 1635 L-3185 1630 L-3164 1627 L-3136 1623 L-3102 1619 L-3088 1615 L-3075 1612 L-3056 1608 L-3037 1605 L-3018 1602 L-2999 1598 L-2980 1595 L-2960 1593 L-2939 1590 L-2922 1587 L-2903 1584 L-2883 1580 L-2863 1576 L-2844 1573 L-2826 1569 L-2806 1567 L-2785 1564 L-2767 1562 L-2748 1560 L-2727 1558 L-2702 1554 L-2688 1551 L-2671 1547 L-2651 1544 L-2632 1541 L-2612 1538 L-2593 1535 L-2573 1531 L-2553 1525 L-2535 1518 L-2516 1512 L-2496 1505 L-2475 1499 L-2457 1495 L-2438 1490 L-2419 1486 L-2400 1481 L-2380 1477 L-2361 1472 L-2341 1469 L-2322 1465 L-2303 1461 L-2284 1459 L-2255 1456 L-2208 1453 L-2171 1449 L-2156 1445 L-2143 1442 L-2126 1439 L-2109 1438 L-2089 1436 L-2070 1434 L-2051 1431 L-2031 1428 L-2011 1426 L-1993 1424 L-1974 1422 L-1954 1420 L-1934 1417 L-1916 1415 L-1897 1412 L-1877 1408 L-1857 1406 L-1839 1402 L-1820 1398 L-1798 1394 L-1774 1388 L-1759 1383 L-1742 1378 L-1722 1373 L-1703 1368 L-1684 1363 L-1665 1360 L-1645 1355 L-1624 1350 L-1606 1345 L-1587 1341 L-1567 1337 L-1547 1333 L-1529 1330 L-1510 1327 L-1490 1324 L-1471 1321 L-1452 1317 L-1433 1314 L-1413 1310 L-1393 1307 L-1374 1303 L-1355 1299 L-1327 1296 L-1307 1292 L-1279 1287 L-1242 1280 L-1228 1272 L-1215 1266 L-1197 1260 L-1180 1256 L-1160 1253 L-1142 1250 L-1122 1247 L-1102 1245 L-1081 1242 L-1064 1238 L-1046 1234 L-1025 1229 L-1005 1224 L-987 1218 L-968 1211 L-948 1204 L-927 1198 L-910 1192 L-891 1187 L-870 1182 L-845 1177 L-830 1173 L-812 1168 L-794 1164 L-773 1160 L-755 1156 L-736 1150 L-716 1145 L-694 1139 L-678 1135 L-658 1131 L-638 1127 L-617 1122 L-600 1119 L-581 1115 L-562 1111 L-542 1108 L-523 1104 L-504 1100 L-484 1097 L-464 1093 L-445 1091 L-427 1087 L-399 3599 L-378 3595 L-351 3591 L-315 3585 L-301 1065 L-287 1060 L-269 1056 L-251 1053 L-232 1051 L-213 1048 L-194 1046 L-174 1041 L-153 1036 L-136 1031 L-117 1026 L-96 1020 L-76 1014 L-58 1008 L-39 1001 L-20 994 L0 989 L18 985 L37 981 L58 977 L83 971 L98 965 L128 958 L167 950 L190 943 L220 935 L236 927 L250 922 L269 917 L290 913 L310 910 L327 906 L346 903 L366 899 L385 897 L405 895 L424 893 L443 890 L464 887 L482 884 L501 881 L529 877 L549 874 L577 871 L612 867 L626 862 L658 859 L676 855 L696 853 L715 850 L734 848 L754 846 L775 843 L792 841 L810 834 L831 825 L852 814 L869 802 L888 791 L908 781 L928 774 L946 767 L965 761 L987 758 L1012 753 L1027 749 L1044 744 L1062 738 L1083 734 L1101 730 L1121 725 L1140 720 L1162 715 L1178 709 L1198 704 L1218 701 L1239 697 L1256 694 L1275 691 L1295 688 L1314 685 L1333 681 L1352 678 L1372 674 L1392 671 L1411 668 L1429 665 L1457 662 L1478 659 L1548 652 L1576 644 L1590 636 L1605 629 L1625 625 L1643 621 L1662 617 L1682 612 L1703 608 L1720 605 L1739 602 L1760 600 L1780 598 L1798 594 L1817 590 L1837 585 L1857 580 L1875 575 L1894 572 L1915 569 L1940 566 L1955 562 L1972 559 L1991 554 L2011 549 L2030 545 L2049 540 L2069 536 L2090 534 L2107 530 L2126 527 L2147 524 L2168 521 L2184 518 L2242 514 L2262 510 L2281 508 L2301 505 L2321 502 L2339 500 L2358 498 L2386 495 L2406 493 L2434 491 L2471 489 L2485 486 L2498 483 L2516 482 L2533 480 L2553 478 L2572 477 L2591 475 L2611 474 L2632 473 L2649 472 L2668 470 L2688 468 L2708 466 L2727 464 L2745 461 L2765 458 L2786 456 L2803 453 L2822 451 L2844 448 L2869 446 L2883 445 L2900 442 L2920 440 L2940 438 L2958 435 L2978 432 L2997 428 L3019 424 L3036 420 L3055 418 L3075 417 L3096 415 L3113 413 L3132 411 L3152 410 L3171 408 L3190 407 L3209 406 L3229 404 L3249 403 L3268 402 L3287 401 L3314 399 L3335 397 L3363 395 L3398 393 L3412 391 L3425 389 L3443 388 L3462 386 L3482 384 L3500 382 L3539 381 L3560 379 L3577 378 L3596 376 L3616 373 L3636 370 L3655 367 L3673 364 L3693 362 L3713 360 L3732 358 L3751 356 L3772 354 L3796 353 L3811 351 L3828 349 L3848 348 L3867 345 L3887 343 L3906 340 L3926 339 L3946 337 L3964 334 L3983 332 L4004 330 L4024 328 L4041 326 L4060 324 L4080 322 L4099 321 L4119 320 L4138 318 L4158 317 L4177 315 L4196 313 L4215 312 L4244 310 L4292 308 L4329 306 L4344 304 L4357 303 L4374 302 L4390 300 L4410 299 L4429 298 L4448 297 L4468 295 L4489 295 L4506 294 L4525 294 L4545 294 L4565 293 L4583 292 L4602 290 L4622 289 L4642 288 L4660 286 L4679 285 L4701 283 L4725 281 L4740 278 L4757 276 L4777 273 L4796 269 L4815 265 L4834 260 L4854 256 L4875 252 L4893 249 L4912 245 L4932 241 L4952 238 L4970 234 L4989 231 L5009 227 L5028 223 L5047 221 L5066 218 L5086 215 L5106 211 L5125 207 L5144 203 L5172 198 L5192 196 L5220 193 L5257 190 L5272 187 L5285 185 L5302 182 L5319 180 L5339 178 L5357 176 L5377 174 L5397 171 L5418 169 L5435 166 L5453 163 L5474 160 L5495 156 L5512 153 L5532 151 L5551 148 L5572 146 L5589 142 L5608 140 L5630 136 L5654 133 L5670 129 L5687 125 L5706 122 L5726 118 L5744 115 L5764 111 L5783 107 L5805 103 L5821 98 L5841 94 L5861 91 L5882 88 L5899 85 L5918 83 L5938 81 L5957 79 L5976 77 L5995 74 L6015 71 L6034 68 L6053 66 L6072 63 L6121 60 L6148 57 L6181 52 L6196 49 L6208 46 L6227 43 L6247 41 L6267 37 L6286 34 L6305 32 L6325 29 L6346 27 L6363 25 L6382 23 L6402 20 L6422 17 L6441 15 L6459 11 L6479 8 L6500 5" />
</svg>
