<svg xmlns="http://www.w3.org/2000/svg" version="1.1" viewBox="0 0 6500 1000">
	<path fill="none" stroke="gold" stroke-width="125" stroke-linecap="round" stroke-linejoin="round" d="M0 11272  L-730540 11272 L-727936 11272 L-726268 11271 L-707938 11270 L-707768 11269 L-700610 11268 L-700577 11268 L-687146 11268 L-684225 11268 L-670884 11267 L-666715 11265 L-665555 11263 L-664936 11260 L-662924 11259 L-659152 11258 L-658552 11257 L-658223 11256 L-658010 11255 L-657468 11254 L-656230 11250 L-655051 11246 L-652187 11243 L-651665 11239 L-646809 11238 L-643872 11237 L-643829 11236 L-643521 11235 L-643269 11234 L-640674 11233 L-636418 11233 L-636401 11233 L-635164 11233 L-633286 11233 L-631333 11232 L-630385 11231 L-630114 11230 L-629804 11230 L-629706 11229 L-628876 11229 L-626845 11230 L-626554 11225 L-624408 11224 L-624253 11221 L-620596 11218 L-620345 11219 L-620247 11219 L-619730 11220 L-617578 11223 L-616650 11225 L-615124 11227 L-613884 11227 L-612338 11227 L-609376 11226 L-608254 11225 L-607945 11224 L-606733 11224 L-603727 11229 L-603707 11228 L-603360 11228 L-603147 11227 L-603020 11221 L-602779 11220 L-602741 11219 L-602721 11218 L-602702 11217 L-602643 11216 L-602584 11215 L-602566 11214 L-602123 11213 L-600884 11212 L-599338 11211 L-595951 11210 L-590224 11210 L-590023 11209 L-588387 11209 L-586665 11208 L-585233 11208 L-585000 11207 L-584285 11207 L-578153 11206 L-577785 11206 L-577631 11205 L-577052 11204 L-576760 11203 L-575793 11202 L-575483 11201 L-574884 11200 L-573278 11200 L-572543 11200 L-572233 11200 L-571465 11200 L-569428 11199 L-569003 11198 L-568191 11198 L-560762 11197 L-560239 11196 L-560065 11195 L-559330 11194 L-557763 11193 L-557357 11193 L-555132 11192 L-554184 11191 L-553759 11191 L-553429 11191 L-552385 11190 L-550277 11189 L-550025 11188 L-549406 11187 L-548593 11187 L-546485 11186 L-546437 11185 L-544509 11184 L-544183 11183 L-544048 11182 L-543545 11182 L-542132 11181 L-541629 11179 L-541107 11178 L-537548 11176 L-536813 11174 L-534388 11174 L-533098 11173 L-532691 11172 L-529539 11172 L-529384 11172 L-529364 11173 L-528997 11173 L-527739 11173 L-527024 11174 L-526134 11174 L-525727 11174 L-524798 11174 L-523690 11173 L-523387 11175 L-517138 11176 L-516190 11177 L-514564 11178 L-514062 11178 L-510387 11179 L-509554 11179 L-505601 11180 L-504189 11178 L-501700 11178 L-501024 11177 L-500985 11176 L-500114 11176 L-496903 11176 L-494040 11175 L-493072 11175 L-491950 11174 L-491931 11173 L-490306 11172 L-489842 11170 L-489750 11170 L-483381 11169 L-482433 11169 L-479976 11168 L-479103 11168 L-477867 11167 L-475866 11167 L-475468 11166 L-474032 11165 L-472006 11164 L-471793 11163 L-470613 11163 L-469104 11162 L-469084 11162 L-467072 11161 L-466202 11160 L-465331 11160 L-464747 11159 L-464209 11158 L-463552 11157 L-462313 11156 L-461753 11156 L-460572 11155 L-459334 11155 L-459296 11154 L-458909 11154 L-458367 11153 L-457593 11152 L-456471 11152 L-454382 11151 L-454049 11150 L-453763 11149 L-452834 11149 L-452351 11148 L-451616 11147 L-447984 11147 L-446857 11146 L-446702 11146 L-445676 11145 L-441961 11144 L-440744 11143 L-438926 11142 L-436140 11142 L-435578 11141 L-431690 11141 L-429214 11140 L-427879 11140 L-427376 11140 L-426892 11140 L-424203 11140 L-420432 11140 L-417974 11140 L-416795 11140 L-416155 11139 L-413796 11138 L-413718 11138 L-412671 11137 L-412577 11136 L-412074 11136 L-411629 11136 L-411571 11136 L-411358 11136 L-408398 11135 L-405690 11135 L-405536 11134 L-402015 11134 L-401492 11133 L-400525 11132 L-400176 11131 L-399132 11130 L-398203 11130 L-397778 11129 L-396269 11129 L-395302 11129 L-395283 11128 L-393387 11093 L-393271 11058 L-393223 11023 L-393199 10988 L-390194 10987 L-388164 10986 L-386403 10986 L-386036 10985 L-385590 10984 L-385223 10984 L-384809 10983 L-382824 10982 L-382611 10982 L-382456 10982 L-380851 10982 L-379729 10981 L-378781 10981 L-377524 10980 L-375879 10979 L-374699 10979 L-368110 10978 L-368063 10978 L-367658 10977 L-366612 10977 L-366477 10976 L-364795 10975 L-364775 10975 L-363438 10974 L-362202 10973 L-362047 10973 L-361673 10972 L-361467 10971 L-361158 10971 L-360384 10970 L-358062 10969 L-357405 10969 L-355277 10969 L-353554 10968 L-353361 10967 L-350808 10967 L-350531 10966 L-350343 10965 L-349511 10964 L-348738 10964 L-348040 10963 L-343040 10963 L-342664 10962 L-338411 10962 L-337924 11009 L-337904 11009 L-337825 11008 L-337750 11008 L-337730 10960 L-336917 10959 L-336164 10958 L-334945 10958 L-333513 10958 L-333416 10957 L-333242 10957 L-332888 10956 L-331578 10956 L-329721 10955 L-328019 10954 L-327516 10954 L-327251 10953 L-326857 10953 L-326723 10952 L-325813 10952 L-325437 10951 L-324508 10951 L-324169 10951 L-324130 10951 L-324092 10950 L-322177 10950 L-322003 10950 L-320474 10950 L-320146 10950 L-320030 10949 L-319623 10948 L-319275 10948 L-317631 10947 L-317080 10946 L-316837 10946 L-316296 10945 L-315464 10944 L-314923 10944 L-313388 10943 L-313296 10942 L-313259 10942 L-313123 10941 L-312736 10941 L-311711 10941 L-309834 10940 L-309738 10940 L-309138 10955 L-308771 10971 L-308286 10988 L-308248 11004 L-307474 11005 L-307417 11004 L-307242 11003 L-307049 11003 L-305443 11002 L-305423 11001 L-305268 11002 L-305153 11003 L-303973 11003 L-303818 11005 L-303152 11005 L-300703 11044 L-298189 11083 L-295519 11122 L-287819 11160 L-282152 11160 L-279937 11160 L-279914 11160 L-278940 11169 L-278920 11169 L-278056 11168 L-275316 11168 L-269518 11158 L-269364 11157 L-266578 11157 L-252970 11156 L-252224 11155 L-247813 11154 L-231467 11154 L-231235 11153 L-230698 11152 L-222239 11152 L-213533 11151 L-213321 11151 L-211348 11150 L-208562 11150 L-204074 11151 L-203920 11150 L-203751 11150 L-203610 11150 L-203319 11149 L-203281 11149 L-203010 11148 L-202838 11148 L-202428 11147 L-201308 11147 L-200127 11146 L-198851 11146 L-195987 11145 L-193066 11145 L-191074 11144 L-189527 11143 L-186489 11143 L-177164 11142 L-176640 11142 L-170917 11142 L-169410 11141 L-168595 11141 L-166911 11140 L-166190 11140 L-166022 11140 L-164977 11139 L-162909 11139 L-161547 11138 L-157104 11138 L-157007 11137 L-156968 11137 L-156949 11136 L-156117 11136 L-156039 11135 L-153467 11134 L-150217 11134 L-150062 11133 L-149114 11133 L-147373 11132 L-146658 11135 L-143117 11137 L-136540 11140 L-135122 11144 L-135102 11143 L-134151 11143 L-130677 11142 L-129923 11141 L-129362 11141 L-128580 11140 L-121076 11140 L-119477 11140 L-117903 11139 L-114718 11139 L-110385 11138 L-101815 11138 L-93069 11138 L-89995 11137 L-86729 11136 L-86182 11136 L-79045 11135 L-73377 11135 L-59313 11135 L-53302 11136 L-48595 11135 L-44592 11134 L-39485 11134 L-29771 11133 L-14200 11132 L-11117 11131 L-10815 10918 L-10795 10655 L-10777 10355 L-10757 10022 L-10737 9869 L-10718 9740 L-10699 9623 L-10672 9506 L-10651 9393 L-10623 9273 L-10588 9141 L-10574 9029 L-10561 8933 L-10543 8853 L-10524 8794 L-10504 8734 L-10486 8674 L-10466 8613 L-10446 8553 L-10425 8489 L-10408 8427 L-10390 8367 L-10369 8309 L-10349 8250 L-10331 8186 L-10312 8121 L-10292 8053 L-10272 7988 L-10254 7924 L-10235 7864 L-10214 7806 L-10189 7748 L-10174 7693 L-10157 7638 L-10138 7583 L-10118 7529 L-10099 7471 L-10080 7411 L-10060 7354 L-10040 7301 L-10022 7248 L-10003 7200 L-9982 7154 L-9962 7110 L-9945 7073 L-9926 7036 L-9906 7000 L-9887 6965 L-9867 6932 L-9848 6902 L-9828 6876 L-9809 6850 L-9789 6825 L-9771 6800 L-9743 6768 L-9722 6734 L-9695 6697 L-9661 6657 L-9646 6623 L-9633 6593 L-9615 6566 L-9596 6544 L-9576 6519 L-9557 6491 L-9538 6463 L-9518 6435 L-9497 6410 L-9480 6386 L-9461 6360 L-9441 6334 L-9421 6305 L-9403 6271 L-9384 6235 L-9364 6198 L-9344 6160 L-9325 6123 L-9307 6084 L-9285 6041 L-9261 5995 L-9246 5948 L-9229 5905 L-9209 5862 L-9190 5819 L-9170 5774 L-9152 5726 L-9132 5681 L-9111 5636 L-9093 5593 L-9074 5550 L-9054 5510 L-9034 5469 L-9016 5431 L-8997 5397 L-8977 5361 L-8958 5331 L-8938 5298 L-8920 5266 L-8900 5236 L-8880 5203 L-8861 5172 L-8842 5141 L-8813 5109 L-8794 5081 L-8766 5051 L-8729 5015 L-8714 4981 L-8701 4949 L-8684 4919 L-8667 4897 L-8647 4877 L-8629 4859 L-8610 4841 L-8589 4824 L-8569 4805 L-8552 4785 L-8533 4764 L-8512 4742 L-8493 4720 L-8474 4696 L-8455 4670 L-8435 4643 L-8416 4615 L-8397 4586 L-8378 4558 L-8357 4532 L-8333 4503 L-8318 4476 L-8301 4448 L-8281 4419 L-8262 4392 L-8242 4362 L-8223 4331 L-8203 4301 L-8183 4272 L-8165 4243 L-8146 4217 L-8126 4191 L-8105 4167 L-8087 4144 L-8068 4120 L-8048 4096 L-8030 4072 L-8010 4048 L-7991 4025 L-7971 4003 L-7952 3981 L-7932 3959 L-7914 3937 L-7885 3915 L-7865 3892 L-7837 3866 L-7801 3831 L-7787 3798 L-7774 3768 L-7756 3741 L-7738 3723 L-7718 3705 L-7700 3683 L-7680 3660 L-7661 3636 L-7639 3609 L-7621 3581 L-7604 3552 L-7583 3521 L-7563 3488 L-7545 3455 L-7526 3418 L-7506 3382 L-7486 3349 L-7468 3317 L-7449 3291 L-7428 3270 L-7403 3252 L-7388 3236 L-7371 3219 L-7352 3201 L-7332 3182 L-7313 3163 L-7294 3144 L-7274 3127 L-7253 3113 L-7236 3099 L-7217 3083 L-7197 3062 L-7176 3038 L-7159 3015 L-7140 2997 L-7120 2983 L-7101 2972 L-7081 2962 L-7062 2951 L-7043 2939 L-7023 2926 L-7004 2912 L-6985 2900 L-6957 2888 L-6937 2877 L-6909 2864 L-6874 2848 L-6860 2834 L-6847 2823 L-6828 2812 L-6810 2803 L-6790 2794 L-6771 2784 L-6752 2775 L-6732 2767 L-6711 2758 L-6694 2749 L-6675 2739 L-6655 2728 L-6635 2717 L-6617 2706 L-6598 2696 L-6578 2687 L-6558 2678 L-6540 2669 L-6521 2660 L-6499 2651 L-6475 2642 L-6460 2634 L-6443 2626 L-6423 2618 L-6404 2609 L-6385 2599 L-6366 2589 L-6346 2578 L-6325 2568 L-6307 2559 L-6289 2550 L-6268 2541 L-6248 2533 L-6230 2525 L-6211 2516 L-6191 2509 L-6172 2500 L-6153 2493 L-6134 2487 L-6114 2481 L-6094 2475 L-6075 2469 L-6057 2480 L-6028 2489 L-6008 2499 L-5980 2507 L-5943 2499 L-5928 2492 L-5915 2485 L-5897 2480 L-5881 2476 L-5861 2471 L-5843 2465 L-5823 2459 L-5803 2454 L-5782 2450 L-5765 2445 L-5747 2440 L-5726 2435 L-5706 2429 L-5688 2424 L-5669 2418 L-5649 2412 L-5629 2406 L-5611 2401 L-5592 2396 L-5571 2392 L-5546 2388 L-5532 2382 L-5514 2376 L-5495 2371 L-5475 2365 L-5456 2360 L-5437 2354 L-5417 2348 L-5396 2339 L-5379 2331 L-5360 2324 L-5339 2317 L-5319 2311 L-5301 2304 L-5283 2297 L-5263 2291 L-5244 2285 L-5224 2277 L-5205 2270 L-5185 2263 L-5166 2256 L-5147 2252 L-5128 2246 L-5100 2240 L-5080 2234 L-5052 2227 L-5017 2219 L-5003 2213 L-4990 2207 L-4971 2201 L-4953 2196 L-4933 2190 L-4914 2185 L-4895 2179 L-4875 2173 L-4854 2167 L-4837 2161 L-4818 2156 L-4798 2149 L-4778 2142 L-4759 2134 L-4741 2125 L-4721 2115 L-4701 2106 L-4682 2098 L-4664 2091 L-4642 2083 L-4617 2073 L-4603 2065 L-4586 2056 L-4566 2048 L-4547 2040 L-4528 2032 L-4509 2023 L-4489 2015 L-4468 2007 L-4450 1999 L-4431 1992 L-4411 1984 L-4390 1978 L-4373 1972 L-4354 1966 L-4334 1961 L-4315 1956 L-4296 1950 L-4277 1946 L-4257 1941 L-4237 1937 L-4218 1933 L-4199 1930 L-4172 1925 L-4151 1920 L-4123 1915 L-4088 1906 L-4074 1898 L-4061 1890 L-4042 1882 L-4024 1877 L-4004 1872 L-3986 1866 L-3966 1862 L-3946 1856 L-3925 1851 L-3908 1845 L-3890 1838 L-3869 1832 L-3849 1826 L-3831 1818 L-3812 1812 L-3792 1805 L-3772 1798 L-3754 1792 L-3735 1787 L-3714 1782 L-3689 1776 L-3674 1771 L-3657 1766 L-3638 1760 L-3618 1754 L-3599 1747 L-3580 1739 L-3560 1730 L-3539 1721 L-3522 1712 L-3503 1704 L-3482 1697 L-3462 1691 L-3444 1686 L-3425 1682 L-3405 1678 L-3387 1674 L-3367 1670 L-3348 1665 L-3328 1661 L-3309 1656 L-3289 1653 L-3271 1649 L-3243 1645 L-3222 1641 L-3195 1637 L-3161 1633 L-3146 1629 L-3133 1626 L-3115 1622 L-3096 1619 L-3076 1616 L-3057 1612 L-3038 1609 L-3018 1607 L-2997 1604 L-2980 1601 L-2961 1598 L-2941 1594 L-2921 1590 L-2903 1587 L-2884 1583 L-2864 1580 L-2844 1578 L-2825 1576 L-2806 1574 L-2785 1571 L-2761 1568 L-2746 1565 L-2729 1561 L-2709 1558 L-2690 1555 L-2671 1552 L-2652 1549 L-2632 1544 L-2611 1539 L-2593 1532 L-2574 1525 L-2554 1518 L-2533 1513 L-2516 1508 L-2497 1504 L-2477 1499 L-2458 1495 L-2438 1490 L-2420 1486 L-2400 1482 L-2381 1478 L-2361 1475 L-2342 1472 L-2314 1469 L-2266 1467 L-2229 1463 L-2214 1459 L-2202 1456 L-2184 1453 L-2167 1451 L-2147 1450 L-2129 1448 L-2110 1445 L-2089 1442 L-2069 1439 L-2052 1438 L-2033 1436 L-2012 1434 L-1993 1431 L-1974 1428 L-1955 1425 L-1935 1422 L-1916 1419 L-1897 1416 L-1878 1411 L-1857 1407 L-1832 1401 L-1818 1396 L-1801 1391 L-1781 1386 L-1762 1381 L-1742 1377 L-1723 1373 L-1703 1368 L-1682 1363 L-1665 1359 L-1646 1354 L-1625 1350 L-1605 1346 L-1587 1344 L-1568 1340 L-1548 1337 L-1530 1334 L-1510 1331 L-1491 1327 L-1471 1324 L-1452 1320 L-1432 1316 L-1414 1313 L-1385 1309 L-1365 1306 L-1337 1300 L-1301 1293 L-1286 1286 L-1273 1279 L-1256 1273 L-1238 1269 L-1218 1266 L-1200 1263 L-1180 1260 L-1160 1258 L-1139 1255 L-1123 1251 L-1104 1247 L-1083 1242 L-1063 1237 L-1045 1231 L-1026 1224 L-1006 1217 L-986 1211 L-968 1205 L-949 1200 L-928 1195 L-903 1190 L-888 1185 L-870 1181 L-852 1177 L-832 1173 L-813 1169 L-794 1163 L-774 1157 L-753 1152 L-736 1147 L-717 1144 L-697 1139 L-675 1135 L-659 1131 L-640 1127 L-620 1124 L-601 1120 L-581 1116 L-562 1113 L-543 1109 L-523 1106 L-504 1103 L-485 1099 L-457 3619 L-437 3615 L-409 3611 L-373 3605 L-359 1077 L-345 1072 L-328 1068 L-310 1066 L-290 1063 L-272 1061 L-252 1058 L-232 1054 L-211 1049 L-194 1043 L-176 1038 L-155 1033 L-135 1027 L-117 1020 L-97 1013 L-78 1006 L-57 1002 L-40 997 L-21 993 L0 989 L25 984 L40 977 L69 971 L109 963 L132 955 L161 947 L178 939 L192 934 L211 929 L231 926 L252 922 L269 918 L288 915 L308 911 L327 909 L346 907 L365 905 L385 902 L405 899 L424 896 L443 893 L470 889 L491 886 L519 883 L554 879 L568 874 L599 870 L618 867 L638 865 L656 862 L676 860 L696 858 L717 855 L733 852 L752 846 L773 837 L793 826 L811 813 L830 803 L850 793 L870 785 L888 778 L907 773 L928 769 L953 765 L968 760 L986 756 L1004 750 L1024 746 L1043 741 L1062 737 L1082 731 L1103 726 L1120 720 L1139 716 L1160 712 L1181 709 L1197 706 L1216 703 L1237 699 L1256 697 L1275 692 L1294 689 L1314 685 L1334 682 L1352 679 L1371 676 L1399 673 L1419 670 L1490 663 L1518 655 L1532 648 L1546 640 L1566 636 L1585 632 L1604 628 L1624 623 L1645 619 L1662 616 L1681 613 L1701 611 L1721 609 L1739 605 L1758 601 L1778 596 L1799 591 L1816 586 L1835 583 L1857 580 L1882 577 L1897 573 L1914 570 L1933 565 L1953 560 L1972 556 L1991 551 L2010 548 L2032 545 L2049 541 L2068 538 L2088 535 L2109 532 L2126 529 L2184 525 L2204 521 L2222 519 L2242 516 L2262 513 L2281 510 L2300 509 L2328 506 L2348 504 L2376 502 L2412 500 L2427 497 L2440 494 L2457 492 L2475 491 L2495 489 L2513 488 L2533 486 L2553 485 L2574 484 L2591 482 L2609 481 L2630 479 L2650 477 L2668 475 L2687 472 L2707 469 L2728 467 L2745 464 L2764 462 L2786 459 L2810 457 L2825 455 L2842 453 L2862 451 L2881 448 L2900 446 L2919 443 L2939 438 L2960 435 L2977 431 L2997 429 L3017 427 L3038 426 L3054 424 L3073 422 L3094 420 L3113 419 L3132 418 L3151 416 L3171 415 L3191 414 L3210 413 L3228 411 L3256 410 L3277 408 L3304 406 L3340 404 L3353 402 L3367 400 L3385 398 L3403 396 L3423 395 L3442 393 L3481 391 L3502 390 L3519 388 L3538 387 L3558 384 L3578 381 L3596 377 L3615 375 L3635 373 L3655 371 L3674 368 L3693 367 L3713 365 L3738 363 L3753 361 L3770 360 L3790 358 L3809 356 L3829 353 L3847 351 L3867 349 L3888 347 L3906 345 L3925 343 L3945 340 L3965 339 L3983 337 L4002 335 L4022 333 L4041 332 L4061 330 L4079 329 L4099 327 L4119 325 L4138 324 L4157 322 L4186 320 L4233 319 L4271 317 L4286 315 L4298 313 L4315 312 L4332 311 L4352 310 L4370 308 L4389 307 L4410 306 L4430 305 L4448 305 L4466 304 L4487 304 L4506 303 L4525 302 L4544 301 L4564 300 L4583 298 L4602 297 L4621 295 L4642 293 L4667 291 L4681 288 L4698 286 L4718 283 L4737 279 L4757 275 L4776 271 L4796 266 L4816 262 L4834 259 L4853 255 L4874 252 L4894 248 L4912 245 L4931 241 L4951 237 L4969 234 L4989 231 L5008 228 L5028 225 L5047 221 L5067 217 L5085 213 L5114 208 L5134 206 L5162 203 L5199 200 L5214 197 L5226 195 L5244 192 L5261 190 L5281 188 L5299 186 L5319 184 L5339 181 L5360 178 L5376 176 L5395 173 L5416 169 L5437 166 L5454 163 L5473 160 L5493 158 L5514 156 L5531 152 L5550 150 L5571 146 L5596 143 L5611 139 L5629 135 L5647 131 L5668 128 L5686 125 L5706 121 L5725 117 L5746 113 L5763 108 L5783 104 L5803 101 L5824 97 L5840 95 L5859 93 L5879 91 L5898 89 L5918 86 L5937 84 L5956 81 L5975 78 L5995 75 L6014 73 L6062 69 L6090 66 L6123 62 L6138 59 L6150 55 L6169 52 L6189 50 L6209 47 L6227 44 L6247 41 L6267 39 L6288 36 L6305 34 L6323 32 L6344 30 L6364 27 L6382 25 L6401 21 L6421 17 L6441 15 L6459 11 L6478 8 L6500 5" />
</svg>
