<svg xmlns="http://www.w3.org/2000/svg" version="1.1" viewBox="0 0 6500 1000">
	<path fill="none" stroke="gold" stroke-width="125" stroke-linecap="round" stroke-linejoin="round" d="M0 11674  L-731010 11674 L-728406 11674 L-726738 11673 L-708409 11672 L-708239 11671 L-701081 11670 L-701048 11670 L-687617 11670 L-684695 11670 L-671354 11669 L-667185 11667 L-666025 11665 L-665406 11662 L-663394 11661 L-659622 11660 L-659022 11659 L-658694 11658 L-658481 11657 L-657939 11656 L-656701 11652 L-655522 11648 L-652657 11644 L-652135 11640 L-647280 11639 L-644342 11638 L-644300 11637 L-643991 11636 L-643739 11635 L-641144 11634 L-636889 11634 L-636871 11634 L-635634 11634 L-633757 11634 L-631803 11633 L-630855 11632 L-630584 11631 L-630275 11631 L-630177 11630 L-629346 11630 L-627315 11631 L-627025 11626 L-624879 11625 L-624723 11622 L-621067 11619 L-620816 11620 L-620717 11620 L-620200 11621 L-618049 11624 L-617120 11626 L-615594 11628 L-614354 11628 L-612808 11628 L-609846 11627 L-608724 11626 L-608415 11625 L-607204 11625 L-604197 11630 L-604178 11629 L-603830 11629 L-603617 11628 L-603491 11622 L-603249 11621 L-603211 11620 L-603192 11619 L-603172 11618 L-603114 11617 L-603055 11616 L-603037 11615 L-602594 11614 L-601354 11613 L-599809 11612 L-596421 11611 L-590695 11610 L-590493 11610 L-588857 11609 L-587135 11609 L-585703 11608 L-585471 11608 L-584756 11607 L-578623 11607 L-578256 11606 L-578101 11605 L-577523 11604 L-577230 11603 L-576263 11602 L-575953 11601 L-575354 11600 L-573748 11600 L-573013 11600 L-572703 11601 L-571935 11601 L-569899 11600 L-569474 11599 L-568661 11598 L-561232 11597 L-560709 11596 L-560536 11595 L-559801 11594 L-558233 11593 L-557827 11593 L-555602 11592 L-554654 11591 L-554230 11591 L-553899 11591 L-552855 11590 L-550747 11589 L-550495 11588 L-549876 11587 L-549064 11587 L-546956 11586 L-546907 11585 L-544979 11584 L-544653 11583 L-544518 11582 L-544015 11582 L-542602 11581 L-542099 11579 L-541578 11577 L-538018 11575 L-537283 11573 L-534858 11573 L-533569 11572 L-533162 11572 L-530009 11572 L-529854 11572 L-529834 11572 L-529468 11572 L-528209 11573 L-527494 11573 L-526604 11573 L-526197 11573 L-525269 11573 L-524160 11573 L-523857 11575 L-517608 11576 L-516661 11577 L-515035 11578 L-514533 11578 L-510857 11579 L-510025 11579 L-506072 11580 L-504660 11578 L-502171 11577 L-501494 11576 L-501455 11576 L-500585 11576 L-497373 11575 L-494510 11575 L-493542 11574 L-492421 11573 L-492402 11572 L-490777 11571 L-490313 11570 L-490221 11569 L-483852 11569 L-482903 11568 L-480446 11568 L-479574 11567 L-478338 11566 L-476336 11566 L-475939 11565 L-474502 11564 L-472476 11563 L-472263 11562 L-471083 11562 L-469575 11561 L-469554 11561 L-467542 11560 L-466673 11560 L-465802 11559 L-465217 11558 L-464680 11557 L-464022 11556 L-462784 11555 L-462223 11555 L-461042 11554 L-459805 11554 L-459766 11553 L-459379 11553 L-458838 11552 L-458064 11551 L-456942 11551 L-454852 11550 L-454519 11549 L-454233 11548 L-453305 11547 L-452822 11546 L-452086 11546 L-448455 11545 L-447327 11545 L-447172 11544 L-446146 11543 L-442432 11543 L-441214 11542 L-439396 11541 L-436610 11540 L-436049 11539 L-432161 11539 L-429684 11539 L-428349 11539 L-427846 11539 L-427363 11538 L-424674 11538 L-420902 11538 L-418445 11538 L-417265 11538 L-416626 11538 L-414266 11537 L-414189 11536 L-413141 11536 L-413048 11535 L-412545 11535 L-412099 11535 L-412042 11535 L-411828 11535 L-408869 11534 L-406161 11533 L-406006 11533 L-402485 11532 L-401962 11531 L-400995 11530 L-400646 11530 L-399602 11529 L-398674 11528 L-398248 11527 L-396739 11527 L-395772 11527 L-395753 11526 L-393857 11491 L-393741 11454 L-393693 11418 L-393669 11382 L-390665 11381 L-388634 11380 L-386873 11380 L-386506 11379 L-386061 11378 L-385694 11378 L-385280 11377 L-383295 11376 L-383082 11376 L-382927 11376 L-381321 11376 L-380200 11375 L-379251 11375 L-377994 11374 L-376349 11373 L-375170 11372 L-368580 11372 L-368534 11371 L-368128 11371 L-367083 11370 L-366948 11370 L-365265 11369 L-365245 11368 L-363908 11367 L-362672 11367 L-362518 11366 L-362144 11365 L-361938 11365 L-361628 11364 L-360854 11364 L-358533 11363 L-357875 11363 L-355747 11362 L-354025 11362 L-353831 11361 L-351278 11360 L-351002 11359 L-350814 11358 L-349981 11358 L-349209 11357 L-348511 11357 L-343510 11357 L-343134 11356 L-338881 11355 L-338394 11404 L-338375 11404 L-338296 11403 L-338220 11403 L-338201 11353 L-337388 11352 L-336634 11351 L-335415 11351 L-333983 11351 L-333887 11350 L-333712 11350 L-333358 11349 L-332049 11349 L-330191 11348 L-328489 11347 L-327986 11347 L-327721 11346 L-327328 11346 L-327194 11345 L-326284 11345 L-325907 11344 L-324979 11344 L-324640 11344 L-324600 11344 L-324563 11343 L-322647 11343 L-322473 11343 L-320945 11343 L-320616 11342 L-320500 11342 L-320093 11341 L-319745 11341 L-318101 11340 L-317550 11339 L-317307 11339 L-316766 11338 L-315935 11337 L-315393 11337 L-313858 11336 L-313766 11335 L-313729 11335 L-313593 11334 L-313206 11334 L-312181 11333 L-310305 11333 L-310209 11332 L-309608 11348 L-309241 11364 L-308757 11382 L-308719 11398 L-307945 11399 L-307887 11399 L-307713 11398 L-307519 11397 L-305914 11396 L-305894 11396 L-305739 11397 L-305623 11397 L-304444 11398 L-304289 11399 L-303622 11399 L-301174 11439 L-298659 11480 L-295989 11520 L-288290 11560 L-282622 11560 L-280408 11559 L-280384 11559 L-279411 11569 L-279391 11569 L-278527 11568 L-275787 11567 L-269988 11557 L-269835 11556 L-267049 11556 L-253440 11555 L-252695 11554 L-248284 11553 L-231938 11553 L-231706 11552 L-231168 11551 L-222709 11551 L-214003 11550 L-213791 11550 L-211819 11549 L-209032 11549 L-204545 11550 L-204390 11549 L-204221 11549 L-204081 11549 L-203790 11548 L-203751 11547 L-203480 11547 L-203309 11546 L-202899 11546 L-201778 11545 L-200598 11545 L-199321 11544 L-196457 11544 L-193537 11543 L-191545 11543 L-189997 11542 L-186959 11541 L-177635 11541 L-177111 11540 L-171387 11540 L-169880 11540 L-169065 11540 L-167382 11539 L-166661 11539 L-166492 11538 L-165447 11538 L-163380 11537 L-162018 11537 L-157575 11536 L-157477 11536 L-157439 11535 L-157420 11535 L-156587 11534 L-156510 11533 L-153937 11533 L-150688 11532 L-150533 11532 L-149585 11531 L-147844 11530 L-147128 11533 L-143587 11536 L-137010 11539 L-135593 11542 L-135572 11542 L-134622 11541 L-131147 11541 L-130394 11540 L-129832 11539 L-129050 11539 L-121546 11539 L-119948 11538 L-118374 11538 L-115188 11537 L-110855 11537 L-102286 11536 L-93539 11536 L-90465 11536 L-87199 11535 L-86653 11534 L-79516 11534 L-73848 11534 L-59783 11534 L-53772 11534 L-49066 11534 L-45063 11533 L-39955 11532 L-30241 11532 L-14670 11531 L-11588 11530 L-11286 11310 L-11266 11039 L-11247 10731 L-11227 10387 L-11208 10230 L-11188 10098 L-11170 9977 L-11142 9857 L-11121 9740 L-11093 9617 L-11058 9481 L-11045 9366 L-11031 9267 L-11013 9185 L-10994 9124 L-10974 9063 L-10956 9000 L-10937 8938 L-10917 8876 L-10896 8810 L-10879 8746 L-10860 8684 L-10840 8625 L-10820 8564 L-10801 8499 L-10783 8432 L-10763 8362 L-10743 8294 L-10724 8229 L-10705 8167 L-10684 8108 L-10659 8047 L-10645 7991 L-10628 7935 L-10608 7877 L-10589 7822 L-10570 7762 L-10551 7700 L-10531 7642 L-10510 7587 L-10492 7533 L-10473 7483 L-10453 7436 L-10432 7391 L-10415 7352 L-10396 7314 L-10376 7277 L-10357 7242 L-10337 7208 L-10319 7176 L-10299 7150 L-10279 7124 L-10260 7097 L-10241 7071 L-10214 7039 L-10193 7004 L-10165 6966 L-10131 6924 L-10117 6890 L-10104 6859 L-10085 6831 L-10066 6808 L-10046 6783 L-10028 6754 L-10008 6725 L-9988 6696 L-9968 6670 L-9950 6646 L-9932 6619 L-9911 6592 L-9892 6562 L-9873 6527 L-9854 6490 L-9834 6453 L-9815 6413 L-9796 6375 L-9777 6335 L-9756 6291 L-9732 6243 L-9717 6195 L-9700 6150 L-9680 6107 L-9661 6062 L-9641 6016 L-9622 5967 L-9602 5920 L-9582 5874 L-9564 5829 L-9545 5785 L-9525 5744 L-9504 5702 L-9486 5663 L-9467 5627 L-9447 5590 L-9429 5560 L-9409 5526 L-9390 5494 L-9370 5462 L-9351 5429 L-9331 5396 L-9313 5365 L-9284 5332 L-9264 5302 L-9236 5272 L-9199 5234 L-9184 5200 L-9172 5167 L-9154 5136 L-9137 5114 L-9118 5093 L-9099 5074 L-9080 5056 L-9060 5038 L-9039 5019 L-9022 4998 L-9003 4976 L-8983 4954 L-8963 4931 L-8945 4906 L-8926 4880 L-8906 4852 L-8886 4823 L-8867 4793 L-8848 4765 L-8827 4737 L-8803 4708 L-8788 4680 L-8771 4651 L-8751 4621 L-8732 4593 L-8712 4563 L-8694 4531 L-8674 4500 L-8653 4470 L-8635 4441 L-8616 4414 L-8596 4387 L-8576 4361 L-8558 4338 L-8539 4313 L-8519 4289 L-8500 4264 L-8480 4239 L-8461 4216 L-8442 4193 L-8422 4171 L-8403 4148 L-8384 4125 L-8356 4102 L-8336 4079 L-8308 4053 L-8272 4016 L-8257 3983 L-8244 3951 L-8227 3923 L-8209 3905 L-8189 3887 L-8170 3864 L-8151 3840 L-8131 3815 L-8110 3788 L-8091 3759 L-8074 3729 L-8054 3697 L-8034 3663 L-8016 3629 L-7997 3592 L-7977 3554 L-7956 3520 L-7939 3488 L-7920 3460 L-7898 3439 L-7873 3421 L-7859 3404 L-7841 3386 L-7822 3368 L-7803 3348 L-7784 3329 L-7765 3310 L-7745 3292 L-7724 3277 L-7707 3263 L-7687 3246 L-7667 3225 L-7646 3200 L-7629 3177 L-7610 3158 L-7590 3143 L-7571 3132 L-7552 3121 L-7533 3110 L-7513 3098 L-7493 3084 L-7474 3071 L-7456 3058 L-7428 3046 L-7407 3034 L-7379 3021 L-7344 3004 L-7331 2990 L-7318 2979 L-7299 2968 L-7280 2959 L-7260 2949 L-7242 2939 L-7222 2929 L-7203 2921 L-7182 2912 L-7165 2902 L-7146 2892 L-7125 2881 L-7105 2870 L-7087 2858 L-7068 2848 L-7048 2839 L-7028 2830 L-7010 2820 L-6991 2811 L-6970 2802 L-6945 2793 L-6931 2784 L-6913 2776 L-6894 2768 L-6875 2758 L-6855 2748 L-6836 2738 L-6816 2726 L-6795 2717 L-6778 2707 L-6759 2698 L-6739 2689 L-6718 2681 L-6701 2672 L-6682 2663 L-6662 2655 L-6643 2647 L-6623 2639 L-6604 2633 L-6584 2627 L-6565 2620 L-6546 2615 L-6527 2625 L-6498 2635 L-6478 2645 L-6450 2654 L-6413 2645 L-6398 2638 L-6385 2631 L-6368 2626 L-6352 2621 L-6332 2616 L-6313 2610 L-6294 2604 L-6274 2599 L-6253 2594 L-6236 2590 L-6217 2585 L-6197 2579 L-6177 2573 L-6159 2568 L-6140 2562 L-6120 2556 L-6100 2550 L-6082 2545 L-6063 2540 L-6041 2535 L-6017 2531 L-6002 2525 L-5985 2519 L-5965 2513 L-5946 2507 L-5927 2503 L-5908 2496 L-5888 2489 L-5867 2481 L-5849 2473 L-5830 2465 L-5810 2458 L-5789 2452 L-5772 2445 L-5753 2438 L-5733 2431 L-5714 2425 L-5694 2417 L-5676 2410 L-5656 2402 L-5636 2396 L-5617 2391 L-5598 2385 L-5571 2379 L-5550 2372 L-5522 2365 L-5487 2357 L-5474 2351 L-5460 2345 L-5441 2338 L-5423 2333 L-5403 2328 L-5385 2322 L-5365 2316 L-5345 2310 L-5324 2304 L-5307 2298 L-5289 2292 L-5268 2285 L-5248 2278 L-5230 2269 L-5211 2260 L-5191 2250 L-5171 2241 L-5153 2232 L-5134 2225 L-5113 2217 L-5088 2207 L-5073 2199 L-5056 2190 L-5037 2181 L-5017 2173 L-4998 2164 L-4979 2155 L-4959 2147 L-4938 2139 L-4921 2131 L-4902 2123 L-4881 2115 L-4860 2109 L-4843 2103 L-4824 2096 L-4804 2092 L-4786 2086 L-4766 2081 L-4747 2076 L-4727 2071 L-4707 2067 L-4688 2063 L-4670 2059 L-4642 2054 L-4621 2049 L-4594 2045 L-4558 2035 L-4544 2027 L-4531 2019 L-4513 2010 L-4495 2005 L-4475 2000 L-4456 1994 L-4437 1989 L-4417 1984 L-4396 1978 L-4379 1972 L-4360 1965 L-4340 1959 L-4320 1952 L-4301 1945 L-4283 1938 L-4263 1931 L-4242 1924 L-4224 1918 L-4205 1912 L-4184 1907 L-4159 1901 L-4145 1896 L-4127 1891 L-4108 1884 L-4088 1878 L-4069 1871 L-4050 1863 L-4030 1854 L-4009 1844 L-3992 1835 L-3973 1828 L-3953 1820 L-3932 1814 L-3915 1809 L-3896 1804 L-3876 1800 L-3857 1796 L-3837 1792 L-3819 1787 L-3799 1783 L-3779 1778 L-3760 1775 L-3741 1770 L-3714 1766 L-3693 1763 L-3665 1758 L-3631 1754 L-3617 1750 L-3604 1746 L-3585 1743 L-3566 1740 L-3546 1736 L-3528 1733 L-3508 1730 L-3489 1727 L-3468 1724 L-3451 1721 L-3432 1718 L-3411 1714 L-3391 1710 L-3373 1706 L-3354 1703 L-3334 1700 L-3314 1698 L-3296 1695 L-3277 1693 L-3256 1691 L-3231 1687 L-3217 1684 L-3199 1680 L-3180 1677 L-3160 1674 L-3141 1670 L-3122 1667 L-3102 1663 L-3082 1657 L-3064 1650 L-3045 1643 L-3024 1636 L-3004 1630 L-2986 1626 L-2967 1621 L-2947 1616 L-2929 1612 L-2909 1607 L-2890 1602 L-2870 1599 L-2851 1595 L-2831 1591 L-2813 1589 L-2784 1586 L-2736 1583 L-2699 1579 L-2685 1575 L-2672 1571 L-2655 1569 L-2637 1567 L-2618 1566 L-2599 1563 L-2580 1560 L-2560 1557 L-2539 1555 L-2522 1553 L-2503 1551 L-2483 1549 L-2463 1546 L-2445 1543 L-2426 1540 L-2406 1537 L-2386 1534 L-2367 1530 L-2348 1526 L-2327 1522 L-2303 1516 L-2288 1510 L-2271 1505 L-2251 1500 L-2232 1495 L-2212 1490 L-2194 1486 L-2174 1482 L-2153 1477 L-2135 1472 L-2116 1467 L-2096 1463 L-2076 1459 L-2058 1456 L-2039 1453 L-2019 1449 L-2000 1446 L-1980 1443 L-1962 1439 L-1942 1436 L-1922 1432 L-1903 1428 L-1884 1424 L-1856 1421 L-1836 1417 L-1808 1412 L-1771 1404 L-1756 1396 L-1744 1390 L-1726 1384 L-1709 1380 L-1689 1376 L-1670 1373 L-1651 1371 L-1631 1368 L-1610 1365 L-1593 1361 L-1575 1357 L-1554 1352 L-1533 1347 L-1516 1341 L-1496 1333 L-1477 1326 L-1456 1320 L-1439 1314 L-1420 1308 L-1398 1304 L-1373 1298 L-1358 1293 L-1341 1289 L-1322 1285 L-1302 1281 L-1284 1276 L-1265 1270 L-1245 1264 L-1223 1259 L-1206 1254 L-1187 1250 L-1167 1246 L-1146 1242 L-1129 1238 L-1110 1234 L-1090 1230 L-1071 1226 L-1052 1222 L-1033 1219 L-1013 1215 L-993 1211 L-974 1209 L-955 1205 L-927 3798 L-907 3794 L-879 3790 L-843 3783 L-829 1182 L-816 1177 L-798 1173 L-780 1170 L-760 1168 L-742 1165 L-722 1162 L-703 1158 L-681 1153 L-665 1147 L-646 1142 L-625 1136 L-605 1130 L-587 1123 L-568 1116 L-548 1109 L-527 1104 L-510 1100 L-491 1096 L-470 1091 L-445 1086 L-430 1079 L-400 1072 L-360 1064 L-337 1057 L-308 1048 L-292 1040 L-278 1034 L-258 1029 L-238 1026 L-217 1023 L-201 1019 L-182 1015 L-162 1011 L-143 1009 L-123 1007 L-104 1004 L-84 1002 L-64 999 L-46 995 L-27 992 L0 989 L20 985 L48 982 L84 978 L97 973 L129 969 L147 966 L167 963 L186 961 L205 958 L225 956 L246 954 L263 951 L282 944 L302 935 L323 923 L340 911 L359 899 L379 890 L399 882 L417 874 L436 869 L458 865 L483 860 L498 856 L515 851 L534 845 L554 841 L572 836 L592 831 L611 826 L633 821 L650 815 L669 810 L689 806 L710 803 L727 800 L746 797 L766 793 L785 790 L805 786 L824 783 L843 779 L863 775 L882 772 L901 769 L929 766 L949 763 L1019 756 L1047 748 L1062 740 L1076 732 L1096 728 L1114 724 L1133 719 L1154 715 L1174 711 L1192 707 L1210 704 L1231 702 L1251 700 L1269 696 L1288 692 L1308 687 L1328 682 L1346 677 L1365 673 L1386 670 L1411 667 L1426 663 L1444 660 L1462 654 L1482 650 L1501 645 L1520 640 L1540 637 L1561 634 L1578 631 L1598 628 L1618 624 L1639 621 L1656 617 L1714 613 L1733 610 L1752 607 L1772 604 L1792 601 L1811 599 L1829 597 L1857 594 L1878 592 L1905 590 L1942 587 L1956 585 L1969 582 L1987 580 L2005 579 L2025 577 L2043 575 L2063 574 L2082 573 L2103 571 L2120 570 L2139 568 L2159 566 L2180 565 L2198 562 L2217 559 L2236 556 L2257 554 L2275 551 L2294 548 L2315 546 L2340 544 L2354 542 L2372 540 L2391 538 L2411 535 L2430 532 L2449 529 L2469 524 L2490 521 L2507 517 L2526 515 L2546 513 L2567 512 L2584 510 L2603 508 L2623 506 L2642 504 L2662 503 L2680 502 L2700 500 L2721 500 L2739 498 L2758 497 L2785 495 L2806 493 L2834 491 L2869 489 L2883 487 L2897 485 L2915 483 L2933 481 L2953 479 L2971 478 L3011 476 L3031 475 L3048 473 L3067 471 L3088 468 L3107 465 L3126 462 L3145 459 L3165 457 L3185 455 L3203 453 L3222 451 L3243 449 L3268 447 L3282 445 L3299 444 L3319 442 L3338 439 L3358 437 L3377 435 L3397 433 L3417 431 L3435 428 L3454 426 L3475 424 L3495 422 L3513 420 L3532 418 L3552 416 L3570 415 L3590 413 L3609 412 L3629 410 L3648 408 L3668 407 L3686 405 L3715 403 L3763 401 L3800 399 L3816 397 L3828 396 L3845 394 L3861 393 L3881 392 L3900 391 L3919 390 L3939 388 L3960 388 L3977 387 L3996 387 L4016 386 L4036 385 L4055 384 L4073 383 L4093 382 L4113 380 L4132 379 L4151 377 L4172 375 L4196 373 L4211 370 L4228 368 L4248 365 L4267 361 L4287 357 L4305 352 L4325 347 L4346 343 L4364 340 L4383 336 L4403 332 L4423 329 L4441 325 L4460 321 L4480 317 L4499 314 L4519 311 L4538 308 L4557 305 L4577 301 L4596 297 L4615 292 L4643 288 L4663 285 L4691 282 L4728 279 L4743 277 L4756 274 L4773 271 L4790 269 L4811 266 L4829 264 L4849 262 L4868 260 L4890 257 L4906 254 L4924 251 L4945 248 L4966 244 L4983 241 L5003 238 L5022 236 L5043 234 L5060 230 L5079 227 L5101 224 L5126 220 L5141 217 L5158 213 L5177 209 L5197 205 L5215 202 L5235 198 L5254 194 L5276 190 L5292 185 L5312 180 L5332 177 L5354 173 L5370 171 L5389 169 L5409 167 L5428 165 L5447 162 L5466 159 L5486 156 L5505 153 L5525 151 L5544 148 L5592 145 L5619 142 L5653 137 L5667 134 L5680 130 L5699 127 L5719 125 L5738 122 L5757 119 L5776 116 L5796 113 L5817 111 L5834 108 L5853 107 L5874 104 L5894 101 L5912 99 L5931 95 L5950 91 L5971 88 L5989 85 L6008 82 L6029 79 L6054 76 L6068 72 L6085 68 L6105 64 L6125 60 L6144 55 L6163 51 L6183 48 L6204 44 L6221 42 L6241 39 L6261 36 L6281 33 L6298 30 L6317 28 L6338 26 L6356 23 L6376 22 L6395 20 L6415 17 L6434 14 L6453 11 L6472 9 L6500 5" />
</svg>
