<svg xmlns="http://www.w3.org/2000/svg" version="1.1" viewBox="0 0 6500 1000">
	<path fill="none" stroke="gold" stroke-width="125" stroke-linecap="round" stroke-linejoin="round" d="M0 189828  L-296161 189828 L-293556 189143 L-291888 188458 L-273559 187089 L-273389 185719 L-266231 184349 L-266198 184349 L-252767 183664 L-249845 184349 L-236504 182294 L-232335 179554 L-231175 176130 L-230556 172705 L-228544 170650 L-224772 169280 L-224172 167910 L-223844 166541 L-223631 165171 L-223089 163801 L-221851 158321 L-220672 152842 L-217808 147363 L-217285 141883 L-212430 140513 L-209493 139143 L-209450 137773 L-209141 136404 L-208889 135034 L-206294 133664 L-202039 133664 L-202021 133664 L-200784 133664 L-198907 133664 L-196953 132294 L-196005 130924 L-195735 129554 L-195425 128869 L-195327 128184 L-194496 128184 L-192465 128869 L-192175 122705 L-190029 119965 L-189873 115856 L-186217 111746 L-185966 113801 L-185867 113116 L-185350 115171 L-183199 118595 L-182270 122020 L-180744 125445 L-179505 125445 L-177958 124760 L-174996 123390 L-173874 122020 L-173565 120650 L-172354 119965 L-169347 127500 L-169328 126815 L-168980 126130 L-168767 125445 L-168641 115856 L-168399 114486 L-168362 113116 L-168342 111746 L-168323 110376 L-168264 109006 L-168205 107636 L-168187 106267 L-167744 104897 L-166505 103527 L-164959 102157 L-161571 100787 L-155845 100102 L-155643 99417 L-154007 98732 L-152285 98047 L-150853 97363 L-150621 96678 L-149906 95993 L-143774 95308 L-143406 93938 L-143251 92568 L-142673 91198 L-142380 89828 L-141413 88458 L-141104 87089 L-140504 85719 L-138898 85719 L-138163 85719 L-137853 86404 L-137085 86404 L-135049 85034 L-134624 83664 L-133811 82979 L-126382 81609 L-125859 80239 L-125686 78869 L-124951 77500 L-123383 76130 L-122978 75445 L-120753 74075 L-119805 73390 L-119380 72705 L-119049 72705 L-118006 72020 L-115897 70650 L-115645 69280 L-115026 67910 L-114214 67226 L-112106 65856 L-112057 64486 L-110129 63116 L-109803 61746 L-109668 60376 L-109165 59691 L-107752 58321 L-107249 55582 L-106728 53527 L-103168 50787 L-102433 48047 L-100008 48047 L-98719 46678 L-98312 45993 L-95159 45993 L-95004 45993 L-94984 46678 L-94618 46678 L-93359 47363 L-92644 48047 L-91754 48047 L-91347 48047 L-90419 48047 L-89310 47363 L-89007 50102 L-82758 51472 L-81811 52842 L-80185 54212 L-79683 54897 L-76007 55582 L-75175 56267 L-71222 56952 L-69810 54897 L-67321 53527 L-66644 52157 L-66606 51472 L-65735 51472 L-62523 50787 L-59660 50102 L-58692 49417 L-57571 48047 L-57552 46678 L-55927 45308 L-55463 43253 L-55371 42568 L-49002 41883 L-48053 41198 L-45596 40513 L-44724 39143 L-43488 38458 L-41486 37773 L-41089 36404 L-39653 35034 L-37626 34349 L-37413 32979 L-36233 32294 L-34725 31609 L-34705 30924 L-32692 30239 L-31823 28869 L-30952 28184 L-30367 26815 L-29830 25445 L-29172 24075 L-27934 22705 L-27373 22020 L-26192 21335 L-24955 20650 L-24916 19965 L-24529 19280 L-23988 17910 L-23214 17226 L-22092 16541 L-20002 15171 L-19669 13801 L-19383 12431 L-18455 11746 L-17972 10376 L-17236 9691 L-13605 9006 L-12477 8321 L-12323 7636 L-11297 6267 L-7582 5582 L-6365 4212 L-4546 2842 L-1760 2157 L-1199 787 L2688 787 L5165 102 L6500 102" />
</svg>
