<svg xmlns="http://www.w3.org/2000/svg" version="1.1" viewBox="0 0 6500 1000">
	<path fill="none" stroke="gold" stroke-width="125" stroke-linecap="round" stroke-linejoin="round" d="M0 2857  L-721892 2857 L-719288 2857 L-717620 2857 L-699291 2857 L-699120 2856 L-691963 2856 L-691929 2856 L-678498 2856 L-675577 2856 L-662236 2856 L-658067 2855 L-656907 2854 L-656288 2854 L-654276 2853 L-650504 2853 L-649904 2853 L-649575 2852 L-649362 2852 L-648820 2852 L-647582 2851 L-646403 2850 L-643539 2849 L-643017 2847 L-638161 2847 L-635224 2847 L-635181 2847 L-634873 2846 L-634621 2846 L-632026 2846 L-627771 2846 L-627753 2846 L-626516 2846 L-624638 2846 L-622685 2845 L-621737 2845 L-621466 2845 L-621156 2845 L-621058 2845 L-620228 2845 L-618197 2845 L-617907 2844 L-615760 2843 L-615605 2842 L-611948 2841 L-611697 2842 L-611599 2842 L-611082 2842 L-608930 2843 L-608002 2843 L-606476 2844 L-605236 2844 L-603690 2844 L-600728 2844 L-599606 2843 L-599297 2843 L-598086 2843 L-595079 2845 L-595059 2844 L-594712 2844 L-594499 2844 L-594373 2842 L-594131 2842 L-594093 2842 L-594073 2841 L-594054 2841 L-593995 2841 L-593937 2841 L-593919 2840 L-593475 2840 L-592236 2840 L-590690 2839 L-587303 2839 L-581576 2839 L-581375 2839 L-579739 2839 L-578017 2839 L-576585 2838 L-576353 2838 L-575637 2838 L-569505 2838 L-569137 2838 L-568983 2837 L-568405 2837 L-568112 2837 L-567145 2837 L-566835 2836 L-566236 2836 L-564630 2836 L-563895 2836 L-563585 2836 L-562817 2836 L-560781 2836 L-560355 2836 L-559543 2836 L-552114 2835 L-551591 2835 L-551417 2835 L-550682 2834 L-549115 2834 L-548709 2834 L-546484 2834 L-545536 2834 L-545111 2833 L-544781 2833 L-543737 2833 L-541629 2833 L-541377 2833 L-540758 2833 L-539945 2832 L-537837 2832 L-537789 2832 L-535861 2832 L-535535 2831 L-535400 2831 L-534897 2831 L-533484 2831 L-532981 2830 L-532459 2830 L-528900 2829 L-528165 2829 L-525740 2829 L-524450 2828 L-524043 2828 L-520891 2828 L-520736 2828 L-520716 2828 L-520349 2828 L-519091 2828 L-518376 2829 L-517486 2829 L-517079 2829 L-516151 2829 L-515042 2828 L-514739 2829 L-508490 2829 L-507543 2829 L-505916 2830 L-505415 2830 L-501739 2830 L-500906 2830 L-496953 2830 L-495542 2830 L-493052 2830 L-492376 2829 L-492337 2829 L-491466 2829 L-488255 2829 L-485392 2829 L-484424 2829 L-483302 2829 L-483284 2828 L-481659 2828 L-481194 2828 L-481102 2827 L-474733 2827 L-473785 2827 L-471328 2827 L-470455 2827 L-469219 2827 L-467218 2826 L-466820 2826 L-465384 2826 L-463358 2826 L-463145 2825 L-461965 2825 L-460456 2825 L-460436 2825 L-458424 2825 L-457554 2825 L-456683 2824 L-456099 2824 L-455561 2824 L-454904 2824 L-453666 2823 L-453105 2823 L-451924 2823 L-450686 2823 L-450648 2823 L-450261 2823 L-449719 2822 L-448945 2822 L-447823 2822 L-445734 2822 L-445401 2822 L-445115 2821 L-444186 2821 L-443703 2821 L-442968 2821 L-439336 2821 L-438209 2820 L-438054 2820 L-437028 2820 L-433313 2820 L-432096 2820 L-430278 2819 L-427492 2819 L-426930 2819 L-423043 2819 L-420566 2819 L-419231 2819 L-418728 2819 L-418245 2819 L-415555 2819 L-411784 2819 L-409326 2819 L-408147 2819 L-407507 2818 L-405148 2818 L-405070 2818 L-404023 2818 L-403929 2818 L-403427 2818 L-402981 2818 L-402923 2818 L-402710 2818 L-399750 2817 L-397043 2817 L-396888 2817 L-393367 2817 L-392844 2817 L-391877 2816 L-391528 2816 L-390484 2816 L-389555 2816 L-389130 2816 L-387621 2816 L-386654 2815 L-386635 2815 L-384739 2805 L-384623 2795 L-384575 2785 L-384551 2774 L-381546 2774 L-379516 2774 L-377755 2774 L-377388 2774 L-376942 2773 L-376575 2773 L-376161 2773 L-374176 2773 L-373963 2773 L-373808 2773 L-372203 2773 L-371081 2773 L-370133 2772 L-368876 2772 L-367231 2772 L-366051 2772 L-359462 2772 L-359415 2771 L-359010 2771 L-357965 2771 L-357829 2771 L-356147 2771 L-356127 2771 L-354790 2770 L-353554 2770 L-353400 2770 L-353026 2770 L-352819 2770 L-352510 2770 L-351736 2769 L-349415 2769 L-348757 2769 L-346629 2769 L-344906 2769 L-344713 2768 L-342160 2768 L-341883 2768 L-341695 2768 L-340863 2768 L-340090 2767 L-339392 2767 L-334392 2767 L-334016 2767 L-329763 2767 L-329276 2781 L-329256 2781 L-329178 2780 L-329102 2780 L-329082 2766 L-328270 2766 L-327516 2766 L-326297 2766 L-324865 2766 L-324769 2766 L-324594 2766 L-324240 2765 L-322930 2765 L-321073 2765 L-319371 2765 L-318868 2765 L-318603 2764 L-318209 2764 L-318075 2764 L-317165 2764 L-316789 2764 L-315861 2764 L-315522 2764 L-315482 2764 L-315444 2764 L-313529 2764 L-313355 2763 L-311826 2763 L-311498 2763 L-311382 2763 L-310975 2763 L-310627 2763 L-308983 2762 L-308432 2762 L-308189 2762 L-307648 2762 L-306816 2762 L-306275 2762 L-304740 2761 L-304648 2761 L-304611 2761 L-304475 2761 L-304088 2761 L-303063 2761 L-301187 2761 L-301090 2760 L-300490 2765 L-300123 2770 L-299638 2774 L-299600 2779 L-298826 2779 L-298769 2779 L-298594 2779 L-298401 2779 L-296795 2779 L-296776 2778 L-296620 2779 L-296505 2779 L-295325 2779 L-295171 2779 L-294504 2779 L-292055 2791 L-289541 2802 L-286871 2813 L-279172 2825 L-273504 2825 L-271289 2824 L-271266 2824 L-270292 2827 L-270272 2827 L-269409 2827 L-266668 2827 L-260870 2824 L-260716 2824 L-257930 2824 L-244322 2823 L-243576 2823 L-239166 2823 L-222819 2823 L-222587 2822 L-222050 2822 L-213591 2822 L-204885 2822 L-204673 2822 L-202700 2822 L-199914 2822 L-195427 2822 L-195272 2822 L-195103 2822 L-194962 2822 L-194672 2821 L-194633 2821 L-194362 2821 L-194190 2821 L-193780 2821 L-192660 2821 L-191479 2820 L-190203 2820 L-187339 2820 L-184419 2820 L-182427 2820 L-180879 2820 L-177841 2820 L-168516 2819 L-167992 2819 L-162269 2819 L-160762 2819 L-159947 2819 L-158263 2819 L-157542 2819 L-157374 2819 L-156329 2818 L-154262 2818 L-152899 2818 L-148456 2818 L-148359 2818 L-148320 2818 L-148301 2818 L-147469 2817 L-147391 2817 L-144819 2817 L-141569 2817 L-141415 2817 L-140466 2817 L-138725 2816 L-138010 2817 L-134469 2818 L-127892 2819 L-126474 2820 L-126454 2820 L-125503 2820 L-122029 2819 L-121276 2819 L-120714 2819 L-119932 2819 L-112428 2819 L-110829 2819 L-109255 2818 L-106070 2818 L-101737 2818 L-93167 2818 L-84421 2818 L-81347 2818 L-78081 2818 L-77534 2817 L-70397 2817 L-64730 2817 L-50665 2817 L-44654 2817 L-39948 2817 L-35944 2817 L-30837 2817 L-21123 2817 L-5552 2816 L-2469 2816 L-2167 2754 L-2148 2678 L-2129 2591 L-2109 2493 L-2089 2449 L-2070 2412 L-2051 2377 L-2024 2343 L-2003 2311 L-1975 2276 L-1940 2237 L-1926 2205 L-1913 2177 L-1895 2154 L-1876 2137 L-1856 2119 L-1838 2102 L-1818 2084 L-1799 2066 L-1777 2048 L-1761 2030 L-1742 2012 L-1721 1995 L-1701 1978 L-1683 1960 L-1664 1941 L-1645 1921 L-1624 1902 L-1606 1884 L-1587 1866 L-1566 1849 L-1541 1832 L-1526 1816 L-1509 1800 L-1490 1784 L-1470 1769 L-1451 1752 L-1432 1734 L-1412 1718 L-1392 1702 L-1374 1687 L-1355 1673 L-1334 1660 L-1314 1647 L-1297 1636 L-1278 1625 L-1258 1615 L-1239 1605 L-1219 1595 L-1200 1586 L-1180 1579 L-1161 1571 L-1142 1564 L-1123 1557 L-1096 1547 L-1075 1538 L-1047 1527 L-1013 1515 L-999 1505 L-985 1497 L-967 1489 L-948 1482 L-928 1475 L-909 1467 L-890 1459 L-870 1451 L-850 1443 L-832 1436 L-813 1429 L-793 1421 L-773 1413 L-755 1403 L-736 1392 L-716 1382 L-696 1371 L-677 1360 L-659 1349 L-637 1336 L-613 1322 L-598 1309 L-581 1296 L-561 1284 L-542 1271 L-523 1258 L-504 1244 L-484 1231 L-463 1218 L-445 1206 L-426 1193 L-406 1182 L-386 1170 L-368 1159 L-349 1149 L-329 1138 L-310 1129 L-291 1120 L-272 1111 L-252 1102 L-233 1092 L-213 1083 L-194 1074 L-165 1065 L-146 1057 L-118 1048 L-81 1038 L-66 1028 L-53 1018 L-36 1010 L-19 1003 L0 998 L18 992 L37 987 L57 982 L78 977 L95 971 L114 965 L135 958 L154 952 L173 945 L192 937 L212 930 L231 921 L250 913 L269 905 L290 897 L314 889 L329 881 L346 873 L366 864 L385 856 L405 848 L424 839 L444 830 L464 822 L482 813 L501 806 L521 798 L542 791 L560 784 L579 777 L598 770 L617 763 L637 756 L656 750 L676 743 L695 737 L714 731 L733 724 L761 718 L782 711 L810 704 L846 693 L860 684 L873 675 L891 667 L909 662 L928 657 L947 650 L967 644 L986 636 L1008 629 L1026 621 L1043 612 L1064 603 L1084 594 L1102 584 L1121 573 L1141 563 L1161 553 L1179 544 L1198 536 L1219 530 L1244 525 L1258 520 L1276 515 L1295 510 L1315 505 L1334 499 L1353 494 L1373 489 L1394 485 L1411 481 L1430 476 L1450 470 L1471 463 L1488 456 L1507 451 L1527 447 L1546 444 L1566 441 L1584 437 L1604 434 L1624 430 L1643 426 L1662 423 L1689 419 L1710 416 L1738 412 L1773 407 L1787 404 L1800 400 L1819 397 L1837 395 L1857 392 L1875 389 L1895 386 L1915 384 L1936 381 L1953 379 L1971 376 L1992 373 L2012 369 L2030 366 L2049 363 L2069 361 L2089 358 L2107 355 L2126 353 L2147 350 L2172 348 L2187 345 L2204 343 L2224 341 L2243 338 L2262 335 L2281 332 L2301 329 L2322 326 L2339 323 L2358 321 L2379 318 L2399 316 L2417 314 L2436 311 L2456 309 L2474 306 L2494 304 L2513 302 L2533 301 L2552 299 L2572 297 L2590 300 L2619 303 L2639 306 L2667 308 L2704 306 L2719 304 L2732 302 L2750 300 L2766 299 L2786 298 L2804 296 L2824 294 L2843 293 L2865 292 L2881 290 L2900 289 L2921 287 L2941 286 L2959 284 L2978 282 L2997 281 L3018 279 L3036 278 L3055 276 L3076 275 L3101 274 L3115 272 L3133 270 L3152 269 L3171 267 L3191 266 L3210 264 L3230 262 L3250 260 L3268 257 L3287 255 L3307 253 L3328 251 L3345 249 L3364 247 L3384 246 L3403 244 L3423 242 L3442 239 L3462 237 L3481 235 L3500 234 L3519 233 L3547 231 L3567 229 L3595 227 L3630 225 L3644 223 L3657 221 L3676 219 L3694 218 L3714 216 L3733 215 L3752 213 L3772 211 L3793 209 L3810 208 L3829 206 L3849 204 L3869 202 L3887 200 L3906 197 L3926 194 L3946 192 L3964 189 L3983 187 L4005 185 L4030 182 L4044 180 L4061 177 L4081 175 L4100 173 L4119 170 L4138 167 L4158 165 L4179 163 L4197 161 L4216 159 L4236 156 L4257 154 L4274 153 L4293 151 L4313 150 L4332 148 L4351 146 L4370 145 L4390 144 L4410 143 L4429 141 L4448 140 L4475 139 L4496 138 L4524 136 L4559 134 L4573 131 L4586 129 L4605 127 L4623 125 L4643 124 L4661 122 L4681 121 L4700 119 L4722 117 L4738 116 L4757 114 L4778 112 L4798 110 L4816 108 L4835 106 L4855 104 L4875 102 L4893 100 L4912 99 L4933 97 L4958 96 L4973 94 L4990 93 L5009 91 L5029 89 L5048 87 L5067 85 L5087 82 L5108 80 L5125 77 L5144 75 L5165 73 L5185 71 L5202 70 L5221 68 L5242 67 L5260 66 L5280 65 L5299 63 L5319 62 L5338 61 L5358 60 L5376 59 L5403 58 L5424 57 L5452 55 L5486 54 L5501 53 L5514 52 L5532 51 L5551 50 L5571 49 L5589 48 L5609 47 L5629 47 L5650 46 L5667 45 L5686 44 L5706 43 L5726 42 L5744 41 L5763 40 L5783 39 L5803 38 L5822 38 L5840 37 L5862 36 L5886 35 L5901 34 L5918 33 L5938 32 L5957 31 L5976 30 L5995 30 L6015 28 L6036 27 L6054 25 L6073 23 L6093 21 L6113 19 L6131 18 L6150 17 L6170 15 L6189 14 L6209 13 L6227 11 L6247 10 L6266 9 L6286 8 L6305 7 L6333 7 L6381 6 L6418 5 L6433 4 L6445 3 L6462 2 L6480 1 L6500 1" />
</svg>
