<svg xmlns="http://www.w3.org/2000/svg" version="1.1" viewBox="0 0 6500 1000">
	<path fill="none" stroke="gold" stroke-width="125" stroke-linecap="round" stroke-linejoin="round" d="M0 3342  L-727714 3342 L-725110 3342 L-723442 3342 L-705113 3342 L-704942 3341 L-697785 3341 L-697751 3341 L-684321 3341 L-681399 3341 L-668058 3341 L-663889 3340 L-662729 3339 L-662110 3339 L-660098 3338 L-656326 3338 L-655726 3337 L-655397 3337 L-655184 3337 L-654642 3337 L-653404 3335 L-652226 3334 L-649361 3333 L-648839 3332 L-643983 3332 L-641046 3331 L-641003 3331 L-640695 3331 L-640443 3331 L-637848 3330 L-633593 3330 L-633575 3330 L-632338 3330 L-630460 3330 L-628507 3330 L-627559 3330 L-627288 3329 L-626978 3329 L-626880 3329 L-626050 3329 L-624019 3329 L-623729 3328 L-621582 3327 L-621427 3326 L-617770 3326 L-617519 3326 L-617421 3326 L-616904 3326 L-614753 3327 L-613824 3328 L-612298 3328 L-611058 3328 L-609512 3328 L-606550 3328 L-605428 3328 L-605119 3327 L-603908 3327 L-600901 3329 L-600881 3329 L-600534 3329 L-600321 3328 L-600195 3326 L-599953 3326 L-599915 3326 L-599895 3326 L-599876 3325 L-599817 3325 L-599759 3325 L-599741 3324 L-599298 3324 L-598058 3324 L-596512 3324 L-593125 3323 L-587398 3323 L-587197 3323 L-585561 3323 L-583839 3323 L-582407 3323 L-582175 3322 L-581459 3322 L-575327 3322 L-574959 3322 L-574805 3321 L-574227 3321 L-573934 3321 L-572967 3321 L-572657 3320 L-572058 3320 L-570452 3320 L-569717 3320 L-569407 3320 L-568639 3320 L-566603 3320 L-566177 3320 L-565365 3319 L-557936 3319 L-557413 3319 L-557240 3319 L-556505 3318 L-554937 3318 L-554531 3318 L-552306 3318 L-551358 3317 L-550933 3317 L-550603 3317 L-549559 3317 L-547451 3317 L-547199 3317 L-546580 3316 L-545767 3316 L-543659 3316 L-543611 3316 L-541683 3315 L-541357 3315 L-541222 3315 L-540719 3315 L-539306 3314 L-538803 3314 L-538281 3313 L-534722 3313 L-533987 3312 L-531562 3312 L-530272 3312 L-529865 3312 L-526713 3312 L-526558 3312 L-526538 3312 L-526171 3312 L-524913 3312 L-524198 3312 L-523308 3312 L-522901 3312 L-521973 3312 L-520864 3312 L-520561 3312 L-514312 3313 L-513365 3313 L-511738 3313 L-511237 3313 L-507561 3314 L-506729 3314 L-502775 3314 L-501364 3313 L-498874 3313 L-498198 3313 L-498159 3313 L-497288 3313 L-494077 3313 L-491214 3312 L-490246 3312 L-489125 3312 L-489106 3312 L-487481 3311 L-487016 3311 L-486925 3311 L-480555 3311 L-479607 3311 L-477150 3310 L-476277 3310 L-475041 3310 L-473040 3310 L-472642 3310 L-471206 3309 L-469180 3309 L-468967 3309 L-467787 3309 L-466278 3309 L-466258 3308 L-464246 3308 L-463376 3308 L-462506 3308 L-461921 3308 L-461384 3307 L-460726 3307 L-459488 3307 L-458927 3307 L-457746 3306 L-456508 3306 L-456470 3306 L-456083 3306 L-455541 3306 L-454768 3305 L-453645 3305 L-451556 3305 L-451223 3305 L-450937 3304 L-450008 3304 L-449525 3304 L-448790 3304 L-445158 3304 L-444031 3304 L-443876 3303 L-442850 3303 L-439136 3303 L-437918 3303 L-436100 3302 L-433314 3302 L-432752 3302 L-428865 3302 L-426388 3302 L-425053 3302 L-424550 3302 L-424067 3302 L-421377 3302 L-417606 3302 L-415148 3302 L-413969 3302 L-413329 3301 L-410970 3301 L-410892 3301 L-409845 3301 L-409751 3301 L-409249 3301 L-408803 3301 L-408745 3301 L-408532 3301 L-405572 3300 L-402865 3300 L-402710 3300 L-399189 3300 L-398666 3300 L-397699 3299 L-397350 3299 L-396306 3299 L-395377 3298 L-394952 3298 L-393443 3298 L-392476 3298 L-392457 3298 L-390561 3287 L-390445 3277 L-390397 3266 L-390373 3255 L-387369 3255 L-385338 3255 L-383577 3254 L-383210 3254 L-382764 3254 L-382397 3254 L-381983 3254 L-379998 3253 L-379785 3253 L-379630 3253 L-378025 3253 L-376903 3253 L-375955 3253 L-374698 3253 L-373053 3253 L-371874 3252 L-365284 3252 L-365237 3252 L-364832 3252 L-363787 3252 L-363651 3251 L-361969 3251 L-361949 3251 L-360612 3251 L-359376 3251 L-359222 3250 L-358848 3250 L-358641 3250 L-358332 3250 L-357558 3250 L-355237 3249 L-354579 3249 L-352451 3249 L-350729 3249 L-350535 3249 L-347982 3249 L-347705 3248 L-347517 3248 L-346685 3248 L-345912 3248 L-345214 3248 L-340214 3248 L-339838 3247 L-335585 3247 L-335098 3262 L-335079 3262 L-335000 3261 L-334924 3261 L-334904 3246 L-334092 3246 L-333338 3246 L-332119 3246 L-330687 3246 L-330591 3246 L-330416 3246 L-330062 3245 L-328752 3245 L-326895 3245 L-325193 3245 L-324690 3245 L-324425 3245 L-324032 3244 L-323897 3244 L-322988 3244 L-322611 3244 L-321683 3244 L-321344 3244 L-321304 3244 L-321266 3244 L-319351 3244 L-319177 3243 L-317648 3243 L-317320 3243 L-317204 3243 L-316797 3243 L-316449 3243 L-314805 3242 L-314254 3242 L-314011 3242 L-313470 3242 L-312638 3242 L-312097 3242 L-310562 3241 L-310470 3241 L-310433 3241 L-310297 3241 L-309910 3241 L-308885 3241 L-307009 3240 L-306912 3240 L-306312 3245 L-305945 3250 L-305460 3255 L-305422 3260 L-304648 3260 L-304591 3260 L-304416 3260 L-304223 3260 L-302618 3259 L-302598 3259 L-302442 3259 L-302327 3260 L-301147 3260 L-300993 3260 L-300326 3260 L-297878 3272 L-295363 3284 L-292693 3296 L-284994 3308 L-279326 3308 L-277111 3308 L-277088 3308 L-276114 3311 L-276094 3311 L-275231 3310 L-272490 3310 L-266692 3307 L-266538 3307 L-263753 3307 L-250144 3307 L-249398 3306 L-244988 3306 L-228641 3306 L-228409 3306 L-227872 3305 L-219413 3305 L-210707 3305 L-210495 3305 L-208522 3305 L-205736 3305 L-201249 3305 L-201094 3305 L-200925 3305 L-200784 3305 L-200494 3304 L-200455 3304 L-200184 3304 L-200012 3304 L-199602 3304 L-198482 3304 L-197301 3304 L-196025 3303 L-193161 3303 L-190241 3303 L-188249 3303 L-186701 3303 L-183663 3303 L-174339 3302 L-173815 3302 L-168091 3302 L-166584 3302 L-165769 3302 L-164086 3302 L-163365 3302 L-163196 3302 L-162151 3301 L-160084 3301 L-158722 3301 L-154278 3301 L-154181 3301 L-154142 3301 L-154123 3301 L-153291 3300 L-153213 3300 L-150641 3300 L-147391 3300 L-147237 3300 L-146288 3300 L-144547 3299 L-143832 3300 L-140291 3301 L-133714 3302 L-132296 3303 L-132276 3303 L-131325 3303 L-127851 3302 L-127098 3302 L-126536 3302 L-125754 3302 L-118250 3302 L-116651 3302 L-115077 3301 L-111892 3301 L-107559 3301 L-98989 3301 L-90243 3301 L-87169 3301 L-83903 3301 L-83357 3300 L-76219 3300 L-70552 3300 L-56487 3300 L-50476 3300 L-45770 3300 L-41766 3300 L-36659 3300 L-26945 3300 L-11374 3299 L-8291 3299 L-7989 3234 L-7970 3153 L-7951 3061 L-7931 2959 L-7911 2912 L-7892 2873 L-7874 2837 L-7846 2801 L-7825 2766 L-7797 2730 L-7762 2689 L-7748 2655 L-7735 2625 L-7717 2601 L-7698 2583 L-7678 2565 L-7660 2546 L-7640 2528 L-7621 2509 L-7599 2489 L-7583 2470 L-7564 2452 L-7543 2434 L-7523 2416 L-7505 2397 L-7486 2377 L-7467 2356 L-7446 2336 L-7428 2316 L-7409 2298 L-7388 2280 L-7363 2262 L-7348 2245 L-7331 2229 L-7312 2212 L-7292 2195 L-7273 2177 L-7254 2159 L-7234 2142 L-7214 2125 L-7196 2109 L-7177 2094 L-7156 2080 L-7136 2067 L-7119 2055 L-7100 2044 L-7080 2033 L-7061 2023 L-7041 2012 L-7022 2003 L-7002 1995 L-6983 1987 L-6964 1979 L-6945 1972 L-6918 1962 L-6897 1952 L-6869 1940 L-6835 1928 L-6821 1918 L-6808 1909 L-6789 1900 L-6770 1893 L-6750 1886 L-6732 1877 L-6712 1869 L-6692 1860 L-6672 1852 L-6654 1845 L-6635 1837 L-6615 1829 L-6595 1820 L-6577 1810 L-6558 1799 L-6538 1788 L-6518 1776 L-6499 1764 L-6481 1753 L-6460 1739 L-6435 1725 L-6420 1711 L-6403 1698 L-6383 1684 L-6364 1671 L-6345 1657 L-6326 1643 L-6306 1629 L-6285 1615 L-6267 1602 L-6248 1589 L-6228 1577 L-6208 1564 L-6190 1552 L-6171 1542 L-6151 1531 L-6132 1522 L-6113 1512 L-6094 1502 L-6074 1493 L-6055 1483 L-6035 1473 L-6016 1464 L-5988 1454 L-5968 1445 L-5940 1436 L-5903 1425 L-5888 1415 L-5875 1405 L-5858 1396 L-5841 1389 L-5821 1383 L-5803 1377 L-5784 1372 L-5764 1366 L-5743 1361 L-5726 1355 L-5707 1348 L-5686 1341 L-5667 1334 L-5648 1327 L-5629 1319 L-5610 1311 L-5590 1302 L-5571 1293 L-5552 1285 L-5531 1277 L-5507 1268 L-5492 1260 L-5475 1251 L-5455 1242 L-5436 1234 L-5416 1225 L-5397 1215 L-5377 1206 L-5357 1197 L-5339 1189 L-5320 1181 L-5300 1173 L-5279 1165 L-5262 1158 L-5243 1151 L-5223 1143 L-5204 1136 L-5184 1129 L-5165 1122 L-5145 1115 L-5126 1108 L-5107 1101 L-5088 1095 L-5060 1088 L-5039 1081 L-5011 1073 L-4975 1062 L-4961 1052 L-4948 1043 L-4930 1034 L-4912 1029 L-4893 1024 L-4874 1017 L-4854 1010 L-4835 1002 L-4813 994 L-4795 986 L-4778 977 L-4758 967 L-4737 957 L-4719 947 L-4700 936 L-4681 925 L-4660 914 L-4642 905 L-4623 897 L-4602 890 L-4577 885 L-4563 880 L-4545 875 L-4526 869 L-4506 863 L-4487 857 L-4468 852 L-4449 847 L-4428 842 L-4410 838 L-4391 833 L-4371 826 L-4350 819 L-4333 812 L-4314 807 L-4294 802 L-4275 799 L-4256 796 L-4237 792 L-4217 789 L-4197 785 L-4178 781 L-4159 777 L-4132 773 L-4111 770 L-4083 766 L-4048 761 L-4035 757 L-4021 753 L-4003 750 L-3984 747 L-3964 744 L-3946 741 L-3926 739 L-3906 736 L-3885 733 L-3868 731 L-3850 727 L-3829 724 L-3809 721 L-3791 717 L-3772 714 L-3752 712 L-3732 709 L-3714 706 L-3695 703 L-3674 701 L-3649 698 L-3634 695 L-3617 693 L-3598 690 L-3578 688 L-3559 685 L-3540 682 L-3520 678 L-3499 675 L-3482 672 L-3463 670 L-3442 667 L-3422 664 L-3404 662 L-3385 659 L-3365 657 L-3347 654 L-3327 652 L-3308 650 L-3288 648 L-3269 647 L-3249 645 L-3231 648 L-3202 651 L-3182 654 L-3154 656 L-3117 654 L-3102 652 L-3089 650 L-3072 648 L-3055 647 L-3035 645 L-3017 644 L-2997 642 L-2978 640 L-2956 639 L-2940 637 L-2921 636 L-2900 634 L-2880 633 L-2862 631 L-2843 629 L-2824 627 L-2803 626 L-2785 624 L-2766 623 L-2745 621 L-2720 620 L-2706 618 L-2689 616 L-2669 615 L-2650 613 L-2630 612 L-2611 610 L-2591 608 L-2571 605 L-2553 603 L-2534 600 L-2514 598 L-2493 596 L-2476 594 L-2457 592 L-2437 590 L-2418 588 L-2398 586 L-2379 584 L-2360 582 L-2340 580 L-2321 578 L-2302 577 L-2274 575 L-2254 573 L-2226 571 L-2191 568 L-2177 566 L-2164 565 L-2145 563 L-2127 561 L-2107 559 L-2088 558 L-2069 556 L-2049 554 L-2028 552 L-2011 551 L-1992 549 L-1972 547 L-1952 545 L-1934 542 L-1915 539 L-1895 536 L-1875 534 L-1857 531 L-1838 529 L-1816 526 L-1791 524 L-1777 521 L-1760 518 L-1740 516 L-1721 513 L-1702 511 L-1683 508 L-1663 506 L-1642 503 L-1625 501 L-1605 499 L-1585 496 L-1564 494 L-1547 492 L-1528 491 L-1508 489 L-1489 488 L-1470 486 L-1451 484 L-1431 483 L-1411 482 L-1392 481 L-1373 480 L-1346 478 L-1325 477 L-1297 475 L-1262 472 L-1248 470 L-1235 467 L-1216 465 L-1198 463 L-1178 462 L-1160 460 L-1140 459 L-1121 457 L-1100 455 L-1083 454 L-1064 452 L-1043 450 L-1023 448 L-1005 445 L-986 443 L-967 441 L-946 439 L-928 437 L-909 436 L-888 434 L-863 433 L-848 431 L-831 429 L-812 427 L-792 426 L-773 423 L-754 421 L-734 418 L-713 415 L-696 413 L-677 411 L-656 408 L-636 406 L-619 405 L-600 404 L-580 402 L-561 401 L-541 400 L-522 398 L-502 397 L-483 396 L-464 395 L-445 394 L-418 392 L-397 391 L-369 390 L-335 389 L-320 388 L-307 386 L-289 385 L-270 384 L-250 383 L-232 382 L-212 381 L-192 381 L-172 380 L-154 379 L-135 378 L-115 377 L-95 375 L-77 374 L-58 373 L-38 373 L-18 372 L0 371 L18 371 L40 370 L64 369 L79 368 L96 367 L116 366 L135 365 L154 364 L173 363 L193 361 L214 360 L232 358 L250 356 L271 353 L291 352 L309 350 L328 349 L348 348 L367 346 L386 345 L405 343 L425 342 L444 341 L464 340 L483 339 L511 339 L559 338 L596 336 L611 335 L623 334 L640 333 L658 333 L677 333 L696 332 L715 331 L735 330 L756 329 L773 329 L792 328 L812 328 L832 327 L851 326 L870 325 L890 324 L909 323 L928 322 L947 321 L968 319 L992 318 L1007 316 L1024 314 L1044 313 L1063 312 L1083 310 L1102 309 L1122 308 L1142 306 L1160 305 L1179 303 L1199 302 L1220 301 L1237 300 L1256 299 L1276 298 L1295 297 L1315 296 L1334 295 L1354 294 L1373 293 L1393 292 L1411 290 L1440 289 L1460 288 L1488 287 L1524 285 L1539 282 L1552 280 L1569 278 L1587 277 L1607 276 L1625 275 L1645 274 L1664 274 L1686 273 L1702 272 L1721 270 L1742 269 L1762 267 L1780 266 L1799 263 L1818 261 L1839 259 L1857 258 L1876 256 L1897 255 L1922 253 L1937 251 L1955 250 L1973 249 L1993 248 L2012 246 L2031 244 L2051 243 L2072 241 L2089 240 L2108 239 L2128 237 L2150 236 L2166 235 L2185 234 L2205 233 L2224 232 L2244 230 L2262 229 L2282 228 L2302 227 L2321 226 L2340 225 L2368 997 L2388 996 L2416 995 L2452 993 L2466 218 L2479 217 L2497 216 L2515 215 L2535 214 L2553 213 L2573 212 L2593 211 L2614 210 L2631 208 L2649 206 L2670 205 L2690 203 L2708 201 L2727 199 L2747 197 L2768 195 L2785 194 L2804 193 L2826 191 L2851 190 L2866 188 L2895 186 L2935 183 L2958 181 L2987 178 L3004 176 L3017 174 L3037 173 L3057 172 L3078 171 L3095 170 L3114 169 L3134 168 L3153 167 L3172 166 L3191 165 L3211 165 L3231 164 L3250 163 L3268 162 L3296 161 L3317 160 L3345 159 L3380 157 L3393 156 L3425 155 L3444 154 L3464 153 L3482 153 L3502 152 L3521 151 L3542 150 L3559 149 L3578 148 L3599 145 L3619 141 L3637 138 L3656 134 L3676 131 L3696 129 L3714 127 L3733 125 L3754 124 L3779 123 L3794 121 L3811 120 L3830 118 L3850 117 L3869 115 L3888 114 L3908 112 L3929 111 L3946 109 L3965 108 L3986 107 L4007 105 L4023 104 L4042 104 L4062 103 L4082 102 L4101 100 L4120 99 L4140 98 L4159 97 L4178 96 L4197 95 L4225 95 L4245 94 L4315 92 L4343 89 L4358 87 L4372 84 L4392 83 L4410 82 L4430 81 L4450 79 L4471 78 L4488 77 L4507 76 L4527 76 L4547 75 L4565 74 L4584 72 L4604 71 L4625 69 L4642 68 L4661 67 L4683 66 L4708 65 L4723 64 L4740 63 L4759 61 L4779 60 L4798 59 L4817 57 L4836 56 L4858 55 L4874 54 L4894 53 L4914 52 L4935 51 L4952 50 L5010 49 L5029 48 L5048 47 L5068 46 L5088 45 L5107 45 L5126 44 L5153 43 L5174 43 L5202 42 L5238 41 L5253 40 L5265 40 L5283 39 L5301 39 L5321 38 L5339 38 L5359 37 L5379 37 L5400 37 L5416 36 L5435 36 L5456 35 L5476 34 L5494 34 L5513 33 L5533 32 L5553 31 L5571 30 L5590 30 L5611 29 L5636 28 L5651 28 L5668 27 L5687 26 L5707 26 L5726 25 L5745 24 L5765 23 L5786 22 L5803 20 L5822 20 L5843 19 L5864 19 L5880 18 L5899 18 L5920 17 L5939 17 L5958 16 L5977 16 L5997 15 L6017 15 L6035 15 L6054 14 L6082 14 L6102 13 L6130 13 L6166 12 L6179 11 L6193 11 L6211 10 L6229 10 L6249 9 L6267 9 L6307 8 L6327 8 L6345 7 L6364 7 L6384 6 L6404 5 L6422 4 L6441 3 L6461 2 L6481 2 L6500 1" />
</svg>
