<svg xmlns="http://www.w3.org/2000/svg" version="1.1" viewBox="0 0 6500 1000">
	<path fill="none" stroke="gold" stroke-width="125" stroke-linecap="round" stroke-linejoin="round" d="M0 3377  L-727191 3377 L-724587 3377 L-722919 3377 L-704590 3377 L-704420 3376 L-697262 3376 L-697229 3376 L-683798 3376 L-680876 3376 L-667535 3375 L-663366 3375 L-662206 3374 L-661587 3373 L-659575 3373 L-655803 3373 L-655203 3372 L-654875 3372 L-654661 3372 L-654120 3372 L-652882 3370 L-651703 3369 L-648838 3368 L-648316 3367 L-643461 3366 L-640523 3366 L-640481 3366 L-640172 3366 L-639920 3365 L-637325 3365 L-633070 3365 L-633052 3365 L-631815 3365 L-629938 3365 L-627984 3365 L-627036 3364 L-626765 3364 L-626456 3364 L-626357 3364 L-625527 3364 L-623496 3364 L-623206 3363 L-621059 3362 L-620904 3361 L-617248 3360 L-616997 3361 L-616898 3361 L-616381 3361 L-614230 3362 L-613301 3362 L-611775 3363 L-610535 3363 L-608989 3363 L-606027 3363 L-604905 3362 L-604596 3362 L-603385 3362 L-600378 3364 L-600359 3364 L-600011 3363 L-599798 3363 L-599672 3361 L-599430 3361 L-599392 3361 L-599373 3360 L-599353 3360 L-599294 3360 L-599236 3359 L-599218 3359 L-598775 3359 L-597535 3359 L-595990 3358 L-592602 3358 L-586876 3358 L-586674 3358 L-585038 3357 L-583316 3357 L-581884 3357 L-581652 3357 L-580937 3357 L-574804 3357 L-574437 3356 L-574282 3356 L-573704 3356 L-573411 3356 L-572444 3355 L-572134 3355 L-571535 3355 L-569929 3355 L-569194 3355 L-568884 3355 L-568116 3355 L-566080 3355 L-565654 3354 L-564842 3354 L-557413 3354 L-556890 3353 L-556717 3353 L-555982 3353 L-554414 3353 L-554008 3352 L-551783 3352 L-550835 3352 L-550410 3352 L-550080 3352 L-549036 3352 L-546928 3351 L-546676 3351 L-546057 3351 L-545244 3351 L-543137 3350 L-543088 3350 L-541160 3350 L-540834 3349 L-540699 3349 L-540196 3349 L-538783 3349 L-538280 3348 L-537759 3348 L-534199 3347 L-533464 3347 L-531039 3347 L-529750 3346 L-529343 3346 L-526190 3346 L-526035 3346 L-526015 3346 L-525649 3346 L-524390 3346 L-523675 3347 L-522785 3347 L-522378 3347 L-521450 3347 L-520341 3346 L-520038 3347 L-513789 3347 L-512842 3348 L-511216 3348 L-510714 3348 L-507038 3348 L-506206 3348 L-502253 3348 L-500841 3348 L-498352 3348 L-497675 3347 L-497636 3347 L-496766 3347 L-493554 3347 L-490691 3347 L-489723 3347 L-488602 3347 L-488583 3346 L-486958 3346 L-486494 3346 L-486402 3345 L-480032 3345 L-479084 3345 L-476627 3345 L-475755 3345 L-474519 3344 L-472517 3344 L-472120 3344 L-470683 3344 L-468657 3344 L-468444 3343 L-467264 3343 L-465756 3343 L-465735 3343 L-463723 3343 L-462854 3342 L-461983 3342 L-461398 3342 L-460861 3342 L-460203 3341 L-458965 3341 L-458404 3341 L-457223 3341 L-455986 3341 L-455947 3340 L-455560 3340 L-455019 3340 L-454245 3340 L-453123 3340 L-451033 3339 L-450700 3339 L-450414 3339 L-449486 3339 L-449002 3338 L-448267 3338 L-444636 3338 L-443508 3338 L-443353 3338 L-442327 3338 L-438613 3337 L-437395 3337 L-435577 3337 L-432791 3337 L-432230 3336 L-428342 3336 L-425865 3336 L-424530 3336 L-424027 3336 L-423544 3336 L-420855 3336 L-417083 3336 L-414626 3336 L-413446 3336 L-412807 3336 L-410447 3335 L-410370 3335 L-409322 3335 L-409229 3335 L-408726 3335 L-408280 3335 L-408223 3335 L-408009 3335 L-405049 3335 L-402342 3334 L-402187 3334 L-398666 3334 L-398143 3334 L-397176 3334 L-396827 3333 L-395783 3333 L-394855 3333 L-394429 3333 L-392920 3333 L-391953 3333 L-391934 3332 L-390038 3322 L-389922 3311 L-389874 3300 L-389850 3289 L-386846 3289 L-384815 3288 L-383054 3288 L-382687 3288 L-382242 3288 L-381875 3287 L-381461 3287 L-379476 3287 L-379263 3287 L-379108 3287 L-377502 3287 L-376381 3287 L-375432 3287 L-374175 3286 L-372530 3286 L-371351 3286 L-364761 3286 L-364715 3286 L-364309 3285 L-363264 3285 L-363128 3285 L-361446 3285 L-361426 3285 L-360089 3284 L-358853 3284 L-358699 3284 L-358325 3284 L-358119 3284 L-357809 3283 L-357035 3283 L-354714 3283 L-354056 3283 L-351928 3283 L-350206 3283 L-350012 3282 L-347459 3282 L-347183 3282 L-346995 3282 L-346162 3281 L-345390 3281 L-344692 3281 L-339691 3281 L-339315 3281 L-335062 3281 L-334575 3295 L-334556 3295 L-334477 3295 L-334401 3295 L-334382 3280 L-333569 3280 L-332815 3279 L-331596 3279 L-330164 3279 L-330068 3279 L-329893 3279 L-329539 3279 L-328230 3279 L-326372 3279 L-324670 3278 L-324167 3278 L-323902 3278 L-323509 3278 L-323375 3278 L-322465 3278 L-322088 3277 L-321160 3277 L-320821 3277 L-320781 3277 L-320744 3277 L-318828 3277 L-318654 3277 L-317126 3277 L-316797 3277 L-316681 3277 L-316274 3276 L-315926 3276 L-314282 3276 L-313731 3276 L-313488 3276 L-312947 3276 L-312116 3275 L-311574 3275 L-310039 3275 L-309947 3275 L-309910 3274 L-309774 3274 L-309387 3274 L-308362 3274 L-306486 3274 L-306390 3274 L-305789 3278 L-305422 3283 L-304938 3289 L-304900 3294 L-304126 3294 L-304068 3294 L-303894 3294 L-303700 3293 L-302095 3293 L-302075 3293 L-301920 3293 L-301804 3293 L-300625 3294 L-300470 3294 L-299803 3294 L-297355 3306 L-294840 3318 L-292170 3330 L-284471 3342 L-278803 3342 L-276589 3342 L-276565 3342 L-275591 3345 L-275572 3345 L-274708 3345 L-271968 3345 L-266169 3342 L-266016 3341 L-263230 3341 L-249621 3341 L-248876 3341 L-244465 3340 L-228119 3340 L-227886 3340 L-227349 3340 L-218890 3340 L-210184 3340 L-209972 3339 L-208000 3339 L-205213 3339 L-200726 3339 L-200571 3339 L-200402 3339 L-200262 3339 L-199971 3339 L-199932 3339 L-199661 3339 L-199490 3338 L-199080 3338 L-197959 3338 L-196779 3338 L-195502 3338 L-192638 3338 L-189718 3338 L-187726 3337 L-186178 3337 L-183140 3337 L-173816 3337 L-173292 3337 L-167568 3337 L-166061 3337 L-165246 3337 L-163563 3336 L-162842 3336 L-162673 3336 L-161628 3336 L-159561 3336 L-158199 3335 L-153755 3335 L-153658 3335 L-153620 3335 L-153601 3335 L-152768 3335 L-152690 3334 L-150118 3334 L-146869 3334 L-146714 3334 L-145766 3334 L-144024 3334 L-143309 3334 L-139768 3335 L-133191 3336 L-131774 3337 L-131753 3337 L-130802 3337 L-127328 3337 L-126575 3337 L-126013 3336 L-125231 3336 L-117727 3336 L-116129 3336 L-114555 3336 L-111369 3336 L-107036 3335 L-98467 3335 L-89720 3335 L-86646 3335 L-83380 3335 L-82834 3335 L-75697 3335 L-70029 3335 L-55964 3335 L-49953 3335 L-45247 3335 L-41244 3334 L-36136 3334 L-26422 3334 L-10851 3334 L-7769 3333 L-7467 3267 L-7447 3185 L-7428 3092 L-7408 2988 L-7389 2941 L-7369 2901 L-7351 2864 L-7323 2828 L-7302 2793 L-7274 2755 L-7239 2714 L-7226 2680 L-7212 2650 L-7194 2625 L-7175 2607 L-7155 2588 L-7137 2569 L-7118 2550 L-7098 2531 L-7077 2512 L-7060 2492 L-7041 2474 L-7021 2456 L-7001 2437 L-6982 2418 L-6964 2397 L-6944 2376 L-6924 2356 L-6905 2336 L-6886 2317 L-6865 2299 L-6840 2281 L-6826 2264 L-6809 2247 L-6789 2230 L-6770 2213 L-6750 2195 L-6732 2176 L-6712 2159 L-6691 2142 L-6673 2126 L-6654 2111 L-6634 2096 L-6613 2083 L-6596 2071 L-6577 2060 L-6557 2048 L-6538 2038 L-6518 2027 L-6500 2018 L-6480 2010 L-6460 2002 L-6441 1994 L-6422 1986 L-6395 1976 L-6374 1966 L-6346 1954 L-6312 1942 L-6298 1931 L-6285 1922 L-6266 1914 L-6247 1907 L-6227 1899 L-6209 1890 L-6189 1882 L-6169 1873 L-6149 1865 L-6131 1858 L-6113 1850 L-6092 1842 L-6073 1832 L-6054 1822 L-6035 1811 L-6015 1799 L-5996 1787 L-5977 1776 L-5958 1764 L-5937 1750 L-5912 1736 L-5898 1722 L-5881 1708 L-5861 1695 L-5842 1681 L-5822 1667 L-5803 1652 L-5783 1638 L-5763 1624 L-5745 1611 L-5726 1598 L-5706 1585 L-5685 1573 L-5667 1561 L-5648 1550 L-5628 1539 L-5610 1529 L-5590 1519 L-5571 1509 L-5551 1500 L-5532 1490 L-5512 1480 L-5494 1470 L-5465 1461 L-5445 1452 L-5417 1442 L-5380 1431 L-5365 1421 L-5353 1411 L-5335 1402 L-5318 1395 L-5299 1389 L-5280 1383 L-5261 1377 L-5241 1372 L-5220 1366 L-5203 1360 L-5184 1353 L-5164 1346 L-5144 1339 L-5126 1332 L-5107 1324 L-5087 1316 L-5067 1307 L-5048 1298 L-5029 1289 L-5008 1281 L-4984 1272 L-4969 1264 L-4952 1255 L-4932 1246 L-4913 1237 L-4893 1228 L-4875 1219 L-4855 1209 L-4834 1200 L-4816 1191 L-4797 1183 L-4777 1175 L-4757 1167 L-4739 1160 L-4720 1153 L-4700 1145 L-4681 1138 L-4661 1130 L-4642 1124 L-4623 1117 L-4603 1110 L-4584 1103 L-4565 1096 L-4537 1089 L-4517 1082 L-4489 1074 L-4453 1063 L-4438 1053 L-4425 1043 L-4408 1035 L-4390 1030 L-4370 1024 L-4351 1017 L-4332 1010 L-4312 1002 L-4291 994 L-4272 985 L-4255 976 L-4235 967 L-4215 956 L-4197 946 L-4178 935 L-4158 924 L-4137 913 L-4120 903 L-4101 895 L-4079 889 L-4054 883 L-4040 878 L-4022 873 L-4003 867 L-3984 861 L-3965 855 L-3946 850 L-3926 844 L-3905 840 L-3888 836 L-3868 830 L-3848 824 L-3827 816 L-3810 809 L-3791 804 L-3771 799 L-3752 796 L-3733 793 L-3714 789 L-3694 786 L-3674 781 L-3655 777 L-3636 774 L-3609 770 L-3588 766 L-3560 762 L-3525 757 L-3512 753 L-3499 750 L-3480 746 L-3461 744 L-3441 741 L-3423 737 L-3403 735 L-3384 732 L-3363 729 L-3346 727 L-3327 723 L-3306 720 L-3286 717 L-3268 713 L-3249 710 L-3229 707 L-3209 705 L-3191 702 L-3172 699 L-3151 696 L-3126 693 L-3111 691 L-3094 688 L-3075 686 L-3056 683 L-3036 680 L-3017 677 L-2997 673 L-2976 670 L-2959 667 L-2940 665 L-2920 662 L-2899 659 L-2881 657 L-2863 654 L-2843 652 L-2824 649 L-2804 647 L-2785 645 L-2765 643 L-2746 641 L-2727 640 L-2708 643 L-2679 646 L-2659 649 L-2631 651 L-2594 649 L-2579 647 L-2566 645 L-2549 643 L-2533 642 L-2513 640 L-2494 638 L-2475 636 L-2455 635 L-2434 633 L-2417 632 L-2398 631 L-2378 629 L-2358 627 L-2340 625 L-2321 624 L-2301 622 L-2281 620 L-2263 618 L-2244 617 L-2222 616 L-2197 614 L-2183 613 L-2166 611 L-2146 609 L-2127 607 L-2108 606 L-2088 604 L-2069 602 L-2048 599 L-2030 597 L-2011 594 L-1991 592 L-1970 590 L-1953 588 L-1934 586 L-1914 584 L-1895 582 L-1875 580 L-1857 578 L-1837 575 L-1817 573 L-1798 572 L-1779 570 L-1752 568 L-1731 566 L-1703 564 L-1668 562 L-1655 560 L-1641 558 L-1622 556 L-1604 554 L-1584 553 L-1566 551 L-1546 549 L-1526 547 L-1505 546 L-1488 544 L-1470 542 L-1449 540 L-1429 538 L-1411 535 L-1392 532 L-1372 530 L-1352 527 L-1334 524 L-1315 522 L-1294 519 L-1269 517 L-1254 514 L-1237 511 L-1218 509 L-1198 506 L-1179 504 L-1160 501 L-1140 498 L-1119 496 L-1102 493 L-1083 491 L-1062 489 L-1041 487 L-1024 485 L-1005 483 L-985 482 L-967 480 L-947 478 L-928 477 L-908 475 L-888 474 L-869 473 L-851 472 L-823 470 L-802 469 L-775 467 L-739 465 L-725 462 L-712 459 L-694 457 L-675 455 L-656 454 L-637 452 L-618 451 L-598 449 L-577 447 L-560 445 L-541 443 L-521 441 L-501 439 L-482 437 L-464 435 L-444 433 L-423 431 L-405 429 L-386 427 L-365 426 L-340 424 L-325 423 L-308 421 L-289 419 L-269 417 L-250 415 L-231 413 L-211 410 L-190 407 L-173 404 L-154 402 L-134 400 L-113 398 L-96 396 L-77 395 L-57 393 L-38 392 L-18 391 L0 389 L19 388 L39 387 L58 386 L77 384 L104 383 L125 382 L153 381 L187 380 L201 378 L215 377 L233 376 L252 375 L272 374 L290 373 L310 372 L330 371 L350 371 L367 370 L386 369 L407 367 L427 366 L445 365 L464 364 L484 363 L504 362 L522 362 L541 361 L562 360 L587 359 L601 358 L619 357 L638 356 L658 355 L677 354 L696 353 L716 352 L736 350 L754 348 L773 346 L794 344 L814 342 L832 341 L851 339 L871 338 L889 337 L909 335 L928 334 L948 333 L967 331 L987 330 L1005 330 L1034 329 L1082 328 L1119 327 L1133 325 L1146 324 L1163 323 L1181 323 L1200 323 L1219 322 L1238 321 L1258 320 L1279 319 L1296 319 L1315 318 L1335 318 L1355 317 L1373 316 L1392 315 L1412 314 L1432 313 L1451 312 L1470 311 L1491 309 L1515 308 L1530 306 L1547 304 L1567 303 L1586 301 L1606 300 L1624 299 L1644 297 L1665 296 L1683 294 L1702 293 L1722 292 L1742 290 L1760 289 L1779 288 L1799 287 L1818 287 L1838 286 L1856 284 L1876 283 L1896 282 L1915 281 L1934 280 L1962 279 L1982 278 L2010 276 L2047 274 L2062 271 L2074 269 L2092 268 L2109 266 L2129 265 L2148 264 L2167 264 L2187 263 L2208 262 L2225 261 L2244 260 L2264 258 L2285 256 L2302 255 L2322 252 L2341 250 L2362 248 L2380 247 L2398 245 L2420 243 L2445 242 L2460 240 L2477 239 L2496 238 L2516 236 L2534 235 L2553 233 L2573 232 L2595 230 L2612 228 L2631 227 L2651 226 L2672 225 L2689 223 L2708 222 L2728 221 L2747 220 L2766 219 L2785 218 L2805 217 L2825 215 L2844 215 L2863 214 L2891 997 L2911 996 L2939 995 L2975 993 L2989 207 L3002 205 L3020 204 L3038 203 L3058 202 L3076 202 L3096 201 L3115 199 L3137 198 L3153 196 L3172 195 L3193 193 L3213 191 L3231 189 L3250 187 L3270 185 L3291 183 L3308 182 L3327 181 L3348 179 L3373 178 L3388 176 L3418 174 L3458 171 L3481 169 L3510 166 L3526 164 L3540 162 L3560 161 L3580 160 L3601 158 L3617 157 L3636 156 L3656 155 L3675 154 L3695 154 L3714 153 L3734 152 L3754 151 L3772 150 L3791 149 L3819 148 L3840 147 L3867 146 L3903 145 L3916 144 L3948 142 L3966 141 L3986 141 L4005 140 L4024 139 L4044 138 L4065 138 L4082 137 L4101 135 L4121 132 L4142 129 L4159 125 L4179 121 L4198 118 L4219 116 L4236 114 L4256 112 L4277 111 L4302 109 L4317 108 L4334 107 L4353 105 L4373 104 L4392 102 L4411 101 L4430 99 L4452 97 L4469 96 L4488 94 L4508 93 L4529 92 L4546 91 L4565 90 L4585 89 L4604 88 L4624 87 L4643 86 L4662 85 L4682 84 L4701 83 L4720 82 L4748 81 L4768 80 L4838 78 L4866 75 L4881 73 L4895 71 L4915 69 L4933 68 L4952 67 L4973 65 L4993 64 L5011 63 L5029 62 L5050 62 L5070 61 L5088 60 L5107 58 L5127 57 L5147 56 L5165 54 L5184 53 L5205 52 L5230 51 L5245 50 L5263 49 L5281 47 L5301 46 L5320 44 L5340 43 L5359 42 L5380 41 L5397 40 L5417 39 L5437 38 L5458 37 L5475 36 L5533 35 L5552 34 L5571 33 L5591 32 L5611 31 L5630 30 L5648 30 L5676 29 L5697 29 L5724 28 L5761 27 L5775 26 L5788 25 L5806 25 L5824 24 L5844 24 L5862 23 L5882 23 L5901 23 L5922 22 L5939 22 L5958 21 L5979 21 L5999 20 L6017 19 L6036 18 L6056 18 L6076 17 L6094 16 L6113 15 L6134 14 L6159 14 L6173 13 L6191 13 L6210 12 L6230 11 L6249 10 L6268 9 L6288 8 L6309 7 L6326 6 L6345 5 L6365 5 L6386 4 L6403 4 L6422 3 L6442 2 L6461 2 L6481 2 L6500 1" />
</svg>
