<svg xmlns="http://www.w3.org/2000/svg" version="1.1" viewBox="0 0 6500 1000">
	<path fill="none" stroke="gold" stroke-width="125" stroke-linecap="round" stroke-linejoin="round" d="M0 1015  L-718738 1015 L-716134 1015 L-714466 1015 L-696136 1015 L-695966 1015 L-688808 1015 L-688775 1015 L-675344 1015 L-672423 1015 L-659082 1015 L-654913 1015 L-653753 1014 L-653134 1014 L-651122 1014 L-647350 1014 L-646750 1014 L-646421 1014 L-646208 1013 L-645666 1013 L-644428 1013 L-643249 1012 L-640385 1012 L-639863 1012 L-635007 1012 L-632070 1011 L-632027 1011 L-631719 1011 L-631467 1011 L-628872 1011 L-624616 1011 L-624599 1011 L-623362 1011 L-621484 1011 L-619531 1011 L-618583 1011 L-618312 1011 L-618002 1011 L-617904 1011 L-617074 1011 L-615043 1011 L-614752 1010 L-612606 1010 L-612451 1010 L-608794 1009 L-608543 1009 L-608445 1009 L-607928 1010 L-605776 1010 L-604848 1010 L-603322 1010 L-602082 1010 L-600536 1010 L-597574 1010 L-596452 1010 L-596143 1010 L-594931 1010 L-591925 1011 L-591905 1010 L-591558 1010 L-591345 1010 L-591218 1010 L-590977 1009 L-590939 1009 L-590919 1009 L-590900 1009 L-590841 1009 L-590782 1009 L-590764 1009 L-590321 1009 L-589082 1009 L-587536 1009 L-584149 1008 L-578422 1008 L-578221 1008 L-576585 1008 L-574863 1008 L-573431 1008 L-573198 1008 L-572483 1008 L-566351 1008 L-565983 1008 L-565829 1008 L-565250 1008 L-564958 1008 L-563991 1007 L-563681 1007 L-563082 1007 L-561476 1007 L-560741 1007 L-560431 1007 L-559663 1007 L-557626 1007 L-557201 1007 L-556389 1007 L-548960 1007 L-548437 1007 L-548263 1007 L-547528 1007 L-545961 1006 L-545555 1006 L-543330 1006 L-542382 1006 L-541957 1006 L-541627 1006 L-540583 1006 L-538475 1006 L-538223 1006 L-537604 1006 L-536791 1006 L-534683 1006 L-534635 1006 L-532707 1005 L-532381 1005 L-532246 1005 L-531743 1005 L-530330 1005 L-529827 1005 L-529305 1005 L-525746 1004 L-525011 1004 L-522586 1004 L-521296 1004 L-520889 1004 L-517737 1004 L-517582 1004 L-517562 1004 L-517195 1004 L-515937 1004 L-515222 1004 L-514332 1004 L-513925 1004 L-512996 1004 L-511888 1004 L-511585 1004 L-505336 1005 L-504388 1005 L-502762 1005 L-502260 1005 L-498585 1005 L-497752 1005 L-493799 1005 L-492387 1005 L-489898 1005 L-489222 1005 L-489183 1005 L-488312 1005 L-485101 1004 L-482238 1004 L-481270 1004 L-480148 1004 L-480129 1004 L-478504 1004 L-478040 1004 L-477948 1004 L-471579 1004 L-470631 1004 L-468174 1004 L-467301 1004 L-466065 1004 L-464064 1003 L-463666 1003 L-462230 1003 L-460204 1003 L-459991 1003 L-458811 1003 L-457302 1003 L-457282 1003 L-455270 1003 L-454400 1003 L-453529 1003 L-452945 1003 L-452407 1002 L-451750 1002 L-450511 1002 L-449951 1002 L-448770 1002 L-447532 1002 L-447494 1002 L-447107 1002 L-446565 1002 L-445791 1002 L-444669 1002 L-442580 1002 L-442247 1002 L-441961 1001 L-441032 1001 L-440549 1001 L-439814 1001 L-436182 1001 L-435055 1001 L-434900 1001 L-433874 1001 L-430159 1001 L-428942 1001 L-427124 1001 L-424338 1001 L-423776 1001 L-419888 1001 L-417412 1001 L-416077 1001 L-415574 1000 L-415090 1000 L-412401 1000 L-408630 1000 L-406172 1000 L-404993 1000 L-404353 1000 L-401994 1000 L-401916 1000 L-400869 1000 L-400775 1000 L-400272 1000 L-399827 1000 L-399769 1000 L-399556 1000 L-396596 1000 L-393888 1000 L-393734 1000 L-390213 1000 L-389690 1000 L-388723 1000 L-388374 999 L-387330 999 L-386401 999 L-385976 999 L-384467 999 L-383500 999 L-383481 999 L-381585 995 L-381469 991 L-381421 987 L-381397 983 L-378392 983 L-376362 983 L-374601 983 L-374234 983 L-373788 983 L-373421 983 L-373007 983 L-371022 983 L-370809 983 L-370654 983 L-369049 983 L-367927 982 L-366979 982 L-365722 982 L-364077 982 L-362897 982 L-356308 982 L-356261 982 L-355856 982 L-354810 982 L-354675 982 L-352993 982 L-352973 982 L-351636 982 L-350400 982 L-350245 982 L-349871 981 L-349665 981 L-349356 981 L-348582 981 L-346260 981 L-345603 981 L-343475 981 L-341752 981 L-341559 981 L-339006 981 L-338729 981 L-338541 981 L-337709 981 L-336936 980 L-336238 980 L-331238 980 L-330862 980 L-326609 980 L-326122 986 L-326102 986 L-326023 986 L-325948 986 L-325928 980 L-325115 980 L-324362 980 L-323143 980 L-321711 980 L-321614 980 L-321440 980 L-321086 980 L-319776 980 L-317919 980 L-316217 979 L-315714 979 L-315449 979 L-315055 979 L-314921 979 L-314011 979 L-313635 979 L-312707 979 L-312367 979 L-312328 979 L-312290 979 L-310375 979 L-310201 979 L-308672 979 L-308344 979 L-308228 979 L-307821 979 L-307473 979 L-305829 979 L-305278 979 L-305035 978 L-304494 978 L-303662 978 L-303121 978 L-301586 978 L-301494 978 L-301457 978 L-301321 978 L-300934 978 L-299909 978 L-298032 978 L-297936 978 L-297336 979 L-296969 981 L-296484 983 L-296446 985 L-295672 985 L-295615 985 L-295440 985 L-295247 985 L-293641 985 L-293621 985 L-293466 985 L-293351 985 L-292171 985 L-292016 985 L-291350 985 L-288901 990 L-286387 994 L-283717 998 L-276017 1003 L-270350 1003 L-268135 1003 L-268112 1003 L-267138 1004 L-267118 1004 L-266254 1004 L-263514 1004 L-257716 1002 L-257562 1002 L-254776 1002 L-241168 1002 L-240422 1002 L-236011 1002 L-219665 1002 L-219433 1002 L-218896 1002 L-210437 1002 L-201731 1002 L-201519 1002 L-199546 1002 L-196760 1002 L-192272 1002 L-192118 1002 L-191949 1002 L-191808 1002 L-191517 1001 L-191479 1001 L-191208 1001 L-191036 1001 L-190626 1001 L-189506 1001 L-188325 1001 L-187049 1001 L-184185 1001 L-181264 1001 L-179272 1001 L-177725 1001 L-174687 1001 L-165362 1001 L-164838 1001 L-159115 1001 L-157608 1001 L-156793 1001 L-155109 1001 L-154388 1000 L-154220 1000 L-153175 1000 L-151107 1000 L-149745 1000 L-145302 1000 L-145205 1000 L-145166 1000 L-145147 1000 L-144315 1000 L-144237 1000 L-141665 1000 L-138415 1000 L-138260 1000 L-137312 1000 L-135571 1000 L-134856 1000 L-131315 1000 L-124738 1000 L-123320 1001 L-123300 1001 L-122349 1001 L-118875 1001 L-118121 1001 L-117560 1001 L-116778 1001 L-109274 1000 L-107675 1000 L-106101 1000 L-102916 1000 L-98583 1000 L-90013 1000 L-81267 1000 L-78193 1000 L-74927 1000 L-74380 1000 L-67243 1000 L-61575 1000 L-47511 1000 L-41500 1000 L-36793 1000 L-32790 1000 L-27683 1000 L-17969 1000 L-2398 1000 L684 999 L986 975 L1006 945 L1024 912 L1044 874 L1064 857 L1083 842 L1102 829 L1129 815 L1150 803 L1178 789 L1213 774 L1227 761 L1240 751 L1258 742 L1277 735 L1297 728 L1315 721 L1335 714 L1355 707 L1376 700 L1393 693 L1411 686 L1432 680 L1452 673 L1470 666 L1489 659 L1509 651 L1529 644 L1547 636 L1566 630 L1587 623 L1612 616 L1627 610 L1644 604 L1663 598 L1683 592 L1702 585 L1721 578 L1741 572 L1761 566 L1779 560 L1798 554 L1819 549 L1839 544 L1856 540 L1875 536 L1895 532 L1914 528 L1934 524 L1953 521 L1973 518 L1992 515 L2012 512 L2030 509 L2058 505 L2079 502 L2106 497 L2140 493 L2155 489 L2168 486 L2186 483 L2205 480 L2225 477 L2244 474 L2263 471 L2283 468 L2304 465 L2321 462 L2340 459 L2360 456 L2380 453 L2398 449 L2417 445 L2437 441 L2457 437 L2476 432 L2494 428 L2516 423 L2540 418 L2555 413 L2572 408 L2592 403 L2611 398 L2631 393 L2649 387 L2669 382 L2690 377 L2708 372 L2727 368 L2747 363 L2767 358 L2785 354 L2804 350 L2824 346 L2843 343 L2863 339 L2881 335 L2901 332 L2921 328 L2940 325 L2959 321 L2988 318 L3007 314 L3035 311 L3072 307 L3087 303 L3100 299 L3117 296 L3134 294 L3154 291 L3172 289 L3191 287 L3212 285 L3232 283 L3249 281 L3268 279 L3289 276 L3308 274 L3327 271 L3346 268 L3366 265 L3385 262 L3404 258 L3423 255 L3444 252 L3468 249 L3483 246 L3500 243 L3520 239 L3539 236 L3559 233 L3578 230 L3598 226 L3618 223 L3636 220 L3655 217 L3675 214 L3696 211 L3714 208 L3733 206 L3753 203 L3771 200 L3791 197 L3810 195 L3830 192 L3849 190 L3869 187 L3887 185 L3916 182 L3936 180 L3964 177 L4000 173 L4014 169 L4027 166 L4045 163 L4063 161 L4083 159 L4101 156 L4121 154 L4140 151 L4162 148 L4180 145 L4197 141 L4218 138 L4238 134 L4256 130 L4275 126 L4295 122 L4315 118 L4333 115 L4352 112 L4373 109 L4398 107 L4413 106 L4430 104 L4449 102 L4469 99 L4488 97 L4507 95 L4527 93 L4548 92 L4565 90 L4584 88 L4604 86 L4625 83 L4642 81 L4661 78 L4681 77 L4700 76 L4720 74 L4739 73 L4758 72 L4778 70 L4797 69 L4816 67 L4844 66 L4864 65 L4892 63 L4927 62 L4941 60 L4954 59 L4973 58 L4991 57 L5011 55 L5030 54 L5049 53 L5069 52 L5090 51 L5107 50 L5126 49 L5146 48 L5166 47 L5184 45 L5203 44 L5223 43 L5243 42 L5261 41 L5280 40 L5302 39 L5326 38 L5341 37 L5358 36 L5378 36 L5397 34 L5416 33 L5435 32 L5455 31 L5476 30 L5494 29 L5512 28 L5533 27 L5553 26 L5571 25 L5590 24 L5610 23 L5629 22 L5648 21 L5667 21 L5687 20 L5706 19 L5726 19 L5744 20 L5773 21 L5793 22 L5821 23 L5858 22 L5873 21 L5886 20 L5904 20 L5920 19 L5940 19 L5958 18 L5978 18 L5998 17 L6019 16 L6036 16 L6054 15 L6075 15 L6095 14 L6113 14 L6132 13 L6152 12 L6172 12 L6190 11 L6209 10 L6230 10 L6255 9 L6269 9 L6287 8 L6306 8 L6326 7 L6345 6 L6364 6 L6384 5 L6405 4 L6422 3 L6441 2 L6462 1 L6482 1 L6500 0" />
</svg>
