<svg xmlns="http://www.w3.org/2000/svg" version="1.1" viewBox="0 0 6500 1000">
	<path fill="none" stroke="gold" stroke-width="125" stroke-linecap="round" stroke-linejoin="round" d="M0 1016  L-718333 1016 L-715729 1016 L-714061 1016 L-695732 1015 L-695562 1015 L-688404 1015 L-688371 1015 L-674940 1015 L-672018 1015 L-658677 1015 L-654508 1015 L-653348 1015 L-652729 1014 L-650717 1014 L-646945 1014 L-646345 1014 L-646016 1014 L-645803 1014 L-645262 1014 L-644024 1013 L-642845 1013 L-639980 1012 L-639458 1012 L-634603 1012 L-631665 1012 L-631622 1011 L-631314 1011 L-631062 1011 L-628467 1011 L-624212 1011 L-624194 1011 L-622957 1011 L-621080 1011 L-619126 1011 L-618178 1011 L-617907 1011 L-617597 1011 L-617499 1011 L-616669 1011 L-614638 1011 L-614348 1010 L-612201 1010 L-612046 1010 L-608390 1009 L-608139 1010 L-608040 1010 L-607523 1010 L-605372 1010 L-604443 1010 L-602917 1011 L-601677 1011 L-600131 1010 L-597169 1010 L-596047 1010 L-595738 1010 L-594527 1010 L-591520 1011 L-591500 1011 L-591153 1011 L-590940 1011 L-590814 1010 L-590572 1010 L-590534 1010 L-590515 1009 L-590495 1009 L-590436 1009 L-590378 1009 L-590360 1009 L-589917 1009 L-588677 1009 L-587132 1009 L-583744 1009 L-578018 1008 L-577816 1008 L-576180 1008 L-574458 1008 L-573026 1008 L-572794 1008 L-572079 1008 L-565946 1008 L-565579 1008 L-565424 1008 L-564846 1008 L-564553 1008 L-563586 1008 L-563276 1007 L-562677 1007 L-561071 1007 L-560336 1007 L-560026 1007 L-559258 1007 L-557222 1007 L-556796 1007 L-555984 1007 L-548555 1007 L-548032 1007 L-547859 1007 L-547124 1007 L-545556 1007 L-545150 1007 L-542925 1006 L-541977 1006 L-541552 1006 L-541222 1006 L-540178 1006 L-538070 1006 L-537818 1006 L-537199 1006 L-536386 1006 L-534278 1006 L-534230 1006 L-532302 1006 L-531976 1005 L-531841 1005 L-531338 1005 L-529925 1005 L-529422 1005 L-528901 1005 L-525341 1005 L-524606 1004 L-522181 1004 L-520892 1004 L-520485 1004 L-517332 1004 L-517177 1004 L-517157 1004 L-516790 1004 L-515532 1004 L-514817 1004 L-513927 1004 L-513520 1004 L-512592 1004 L-511483 1004 L-511180 1005 L-504931 1005 L-503984 1005 L-502358 1005 L-501856 1005 L-498180 1005 L-497348 1005 L-493395 1005 L-491983 1005 L-489493 1005 L-488817 1005 L-488778 1005 L-487907 1005 L-484696 1005 L-481833 1005 L-480865 1004 L-479744 1004 L-479725 1004 L-478100 1004 L-477636 1004 L-477544 1004 L-471174 1004 L-470226 1004 L-467769 1004 L-466897 1004 L-465661 1004 L-463659 1004 L-463262 1003 L-461825 1003 L-459799 1003 L-459586 1003 L-458406 1003 L-456897 1003 L-456877 1003 L-454865 1003 L-453996 1003 L-453125 1003 L-452540 1003 L-452003 1003 L-451345 1002 L-450107 1002 L-449546 1002 L-448365 1002 L-447128 1002 L-447089 1002 L-446702 1002 L-446160 1002 L-445387 1002 L-444264 1002 L-442175 1002 L-441842 1002 L-441556 1002 L-440628 1001 L-440144 1001 L-439409 1001 L-435778 1001 L-434650 1001 L-434495 1001 L-433469 1001 L-429755 1001 L-428537 1001 L-426719 1001 L-423933 1001 L-423372 1001 L-419484 1001 L-417007 1001 L-415672 1001 L-415169 1000 L-414686 1000 L-411996 1000 L-408225 1000 L-405768 1000 L-404588 1000 L-403949 1000 L-401589 1000 L-401512 1000 L-400464 1000 L-400371 1000 L-399868 1000 L-399422 1000 L-399365 1000 L-399151 1000 L-396191 1000 L-393484 1000 L-393329 1000 L-389808 1000 L-389285 1000 L-388318 1000 L-387969 999 L-386925 999 L-385997 999 L-385571 999 L-384062 999 L-383095 999 L-383076 999 L-381180 995 L-381064 991 L-381016 987 L-380992 983 L-377988 983 L-375957 983 L-374196 983 L-373829 983 L-373383 983 L-373017 983 L-372603 982 L-370618 982 L-370404 982 L-370250 982 L-368644 982 L-367523 982 L-366574 982 L-365317 982 L-363672 982 L-362493 982 L-355903 982 L-355857 982 L-355451 982 L-354406 982 L-354270 982 L-352588 982 L-352568 981 L-351231 981 L-349995 981 L-349841 981 L-349467 981 L-349261 981 L-348951 981 L-348177 981 L-345856 981 L-345198 981 L-343070 981 L-341348 981 L-341154 981 L-338601 981 L-338325 980 L-338136 980 L-337304 980 L-336531 980 L-335833 980 L-330833 980 L-330457 980 L-326204 980 L-325717 985 L-325698 985 L-325619 985 L-325543 985 L-325524 980 L-324711 980 L-323957 980 L-322738 980 L-321306 980 L-321210 979 L-321035 979 L-320681 979 L-319372 979 L-317514 979 L-315812 979 L-315309 979 L-315044 979 L-314651 979 L-314516 979 L-313607 979 L-313230 979 L-312302 979 L-311963 979 L-311923 979 L-311885 979 L-309970 979 L-309796 979 L-308268 979 L-307939 979 L-307823 979 L-307416 978 L-307068 978 L-305424 978 L-304873 978 L-304630 978 L-304089 978 L-303258 978 L-302716 978 L-301181 978 L-301089 978 L-301052 978 L-300916 978 L-300529 978 L-299504 978 L-297628 977 L-297531 977 L-296931 979 L-296564 981 L-296080 983 L-296041 985 L-295268 985 L-295210 985 L-295036 985 L-294842 985 L-293237 985 L-293217 985 L-293062 985 L-292946 985 L-291767 985 L-291612 985 L-290945 985 L-288497 989 L-285982 994 L-283312 998 L-275613 1003 L-269945 1003 L-267731 1003 L-267707 1003 L-266733 1004 L-266713 1004 L-265850 1004 L-263110 1004 L-257311 1003 L-257158 1002 L-254372 1002 L-240763 1002 L-240017 1002 L-235607 1002 L-219261 1002 L-219028 1002 L-218491 1002 L-210032 1002 L-201326 1002 L-201114 1002 L-199141 1002 L-196355 1002 L-191868 1002 L-191713 1002 L-191544 1002 L-191403 1002 L-191113 1002 L-191074 1001 L-190803 1001 L-190632 1001 L-190222 1001 L-189101 1001 L-187921 1001 L-186644 1001 L-183780 1001 L-180860 1001 L-178868 1001 L-177320 1001 L-174282 1001 L-164958 1001 L-164434 1001 L-158710 1001 L-157203 1001 L-156388 1001 L-154705 1001 L-153984 1000 L-153815 1000 L-152770 1000 L-150703 1000 L-149341 1000 L-144897 1000 L-144800 1000 L-144762 1000 L-144743 1000 L-143910 1000 L-143832 1000 L-141260 1000 L-138011 1000 L-137856 1000 L-136907 1000 L-135166 1000 L-134451 1000 L-130910 1000 L-124333 1000 L-122916 1001 L-122895 1001 L-121944 1001 L-118470 1001 L-117717 1001 L-117155 1001 L-116373 1001 L-108869 1000 L-107271 1000 L-105697 1000 L-102511 1000 L-98178 1000 L-89608 1000 L-80862 1000 L-77788 1000 L-74522 1000 L-73976 1000 L-66838 1000 L-61171 1000 L-47106 1000 L-41095 1000 L-36389 1000 L-32385 1000 L-27278 1000 L-17564 1000 L-1993 1000 L1088 999 L1391 975 L1410 945 L1429 910 L1449 872 L1468 854 L1488 840 L1506 826 L1534 813 L1555 800 L1583 786 L1618 771 L1632 758 L1645 747 L1663 738 L1682 731 L1702 724 L1720 717 L1739 710 L1759 703 L1780 696 L1797 689 L1816 682 L1836 675 L1856 669 L1875 661 L1894 654 L1913 646 L1933 638 L1952 631 L1971 624 L1992 618 L2017 611 L2031 605 L2049 598 L2068 592 L2088 586 L2107 579 L2126 572 L2146 566 L2166 560 L2184 554 L2203 548 L2223 543 L2244 538 L2261 533 L2280 529 L2300 525 L2319 521 L2339 517 L2358 514 L2377 511 L2397 508 L2416 505 L2435 502 L2462 498 L2483 494 L2511 490 L2545 486 L2559 482 L2572 478 L2591 475 L2610 473 L2630 470 L2648 466 L2668 463 L2688 460 L2708 457 L2726 454 L2744 451 L2765 448 L2784 445 L2803 441 L2822 437 L2842 433 L2862 429 L2880 424 L2899 420 L2920 415 L2945 409 L2959 404 L2977 399 L2996 394 L3016 389 L3035 384 L3054 379 L3074 373 L3094 368 L3113 363 L3131 358 L3152 354 L3172 349 L3190 345 L3209 341 L3229 337 L3247 333 L3267 330 L3286 326 L3306 322 L3325 319 L3345 315 L3363 311 L3392 308 L3412 305 L3440 301 L3477 297 L3492 293 L3505 289 L3522 286 L3539 283 L3558 281 L3577 279 L3596 277 L3616 275 L3637 273 L3654 271 L3673 268 L3693 266 L3713 263 L3732 260 L3750 257 L3770 254 L3790 251 L3809 248 L3828 245 L3849 241 L3873 238 L3888 235 L3905 232 L3925 229 L3944 225 L3964 222 L3983 218 L4003 215 L4023 212 L4041 208 L4060 205 L4080 202 L4100 200 L4118 197 L4137 194 L4157 191 L4176 189 L4196 186 L4215 183 L4235 181 L4254 178 L4273 176 L4292 173 L4320 171 L4340 168 L4368 165 L4405 161 L4419 157 L4432 154 L4449 151 L4467 149 L4487 147 L4506 144 L4526 141 L4545 139 L4566 136 L4585 132 L4602 129 L4622 125 L4642 122 L4661 118 L4679 114 L4699 109 L4720 106 L4737 102 L4756 99 L4778 97 L4803 95 L4817 93 L4835 91 L4854 89 L4873 86 L4892 84 L4911 82 L4931 80 L4952 79 L4970 77 L4989 75 L5009 73 L5030 70 L5047 67 L5066 65 L5086 64 L5105 62 L5124 61 L5143 60 L5163 59 L5183 57 L5202 55 L5221 54 L5248 53 L5269 51 L5297 50 L5332 48 L5345 47 L5359 45 L5377 44 L5396 43 L5416 42 L5434 41 L5454 40 L5474 39 L5495 38 L5512 37 L5530 36 L5551 34 L5571 33 L5589 32 L5608 31 L5628 30 L5648 29 L5666 28 L5685 27 L5706 25 L5731 25 L5746 24 L5763 23 L5782 22 L5802 21 L5821 20 L5840 18 L5860 17 L5881 16 L5898 15 L5917 14 L5938 13 L5958 12 L5976 11 L5994 10 L6015 9 L6033 8 L6053 7 L6072 7 L6092 6 L6111 5 L6130 5 L6149 6 L6178 7 L6198 8 L6226 9 L6263 8 L6278 7 L6291 6 L6308 6 L6325 5 L6344 5 L6363 4 L6382 3 L6402 3 L6423 2 L6440 2 L6459 1 L6479 1 L6500 0" />
</svg>
