<svg xmlns="http://www.w3.org/2000/svg" version="1.1" viewBox="0 0 6500 1000">
	<path fill="none" stroke="gold" stroke-width="125" stroke-linecap="round" stroke-linejoin="round" d="M0 1015  L-718661 1015 L-716057 1015 L-714389 1015 L-696059 1015 L-695889 1015 L-688731 1015 L-688698 1015 L-675267 1015 L-672345 1015 L-659004 1015 L-654835 1015 L-653675 1014 L-653056 1014 L-651044 1014 L-647272 1014 L-646672 1014 L-646344 1014 L-646131 1014 L-645589 1013 L-644351 1013 L-643172 1013 L-640308 1012 L-639785 1012 L-634930 1012 L-631993 1011 L-631950 1011 L-631641 1011 L-631389 1011 L-628795 1011 L-624539 1011 L-624521 1011 L-623284 1011 L-621407 1011 L-619453 1011 L-618505 1011 L-618235 1011 L-617925 1011 L-617827 1011 L-616996 1011 L-614965 1011 L-614675 1010 L-612529 1010 L-612373 1010 L-608717 1009 L-608466 1009 L-608367 1009 L-607850 1010 L-605699 1010 L-604770 1010 L-603244 1010 L-602005 1010 L-600458 1010 L-597496 1010 L-596375 1010 L-596065 1010 L-594854 1010 L-591847 1011 L-591828 1010 L-591480 1010 L-591267 1010 L-591141 1010 L-590900 1010 L-590862 1009 L-590842 1009 L-590823 1009 L-590764 1009 L-590705 1009 L-590687 1009 L-590244 1009 L-589005 1009 L-587459 1009 L-584071 1008 L-578345 1008 L-578143 1008 L-576507 1008 L-574786 1008 L-573353 1008 L-573121 1008 L-572406 1008 L-566274 1008 L-565906 1008 L-565751 1008 L-565173 1008 L-564881 1008 L-563913 1007 L-563604 1007 L-563005 1007 L-561398 1007 L-560663 1007 L-560353 1007 L-559585 1007 L-557549 1007 L-557124 1007 L-556311 1007 L-548883 1007 L-548360 1007 L-548186 1007 L-547451 1007 L-545883 1006 L-545478 1006 L-543253 1006 L-542305 1006 L-541880 1006 L-541549 1006 L-540506 1006 L-538397 1006 L-538145 1006 L-537526 1006 L-536714 1006 L-534606 1006 L-534557 1006 L-532629 1005 L-532303 1005 L-532168 1005 L-531665 1005 L-530253 1005 L-529750 1005 L-529228 1005 L-525668 1004 L-524933 1004 L-522508 1004 L-521219 1004 L-520812 1004 L-517659 1004 L-517505 1004 L-517484 1004 L-517118 1004 L-515860 1004 L-515145 1004 L-514255 1004 L-513848 1004 L-512919 1004 L-511810 1004 L-511507 1004 L-505258 1005 L-504311 1005 L-502685 1005 L-502183 1005 L-498507 1005 L-497675 1005 L-493722 1005 L-492310 1005 L-489821 1005 L-489144 1005 L-489106 1005 L-488235 1005 L-485024 1004 L-482160 1004 L-481193 1004 L-480071 1004 L-480052 1004 L-478427 1004 L-477963 1004 L-477871 1004 L-471502 1004 L-470553 1004 L-468096 1004 L-467224 1004 L-465988 1004 L-463986 1003 L-463589 1003 L-462153 1003 L-460126 1003 L-459913 1003 L-458733 1003 L-457225 1003 L-457205 1003 L-455192 1003 L-454323 1003 L-453452 1003 L-452867 1003 L-452330 1003 L-451672 1002 L-450434 1002 L-449874 1002 L-448692 1002 L-447455 1002 L-447416 1002 L-447029 1002 L-446488 1002 L-445714 1002 L-444592 1002 L-442503 1002 L-442169 1002 L-441883 1001 L-440955 1001 L-440472 1001 L-439736 1001 L-436105 1001 L-434977 1001 L-434823 1001 L-433797 1001 L-430082 1001 L-428865 1001 L-427046 1001 L-424260 1001 L-423699 1001 L-419811 1001 L-417335 1001 L-416000 1001 L-415496 1000 L-415013 1000 L-412324 1000 L-408552 1000 L-406095 1000 L-404915 1000 L-404276 1000 L-401916 1000 L-401839 1000 L-400791 1000 L-400698 1000 L-400195 1000 L-399750 1000 L-399692 1000 L-399478 1000 L-396519 1000 L-393811 1000 L-393656 1000 L-390135 1000 L-389613 1000 L-388645 1000 L-388296 999 L-387253 999 L-386324 999 L-385898 999 L-384389 999 L-383422 999 L-383403 999 L-381507 995 L-381391 991 L-381343 987 L-381319 983 L-378315 983 L-376284 983 L-374523 983 L-374156 983 L-373711 983 L-373344 983 L-372930 983 L-370945 983 L-370732 983 L-370577 982 L-368972 982 L-367850 982 L-366901 982 L-365644 982 L-364000 982 L-362820 982 L-356231 982 L-356184 982 L-355778 982 L-354733 982 L-354598 982 L-352915 982 L-352895 982 L-351558 982 L-350322 982 L-350168 981 L-349794 981 L-349588 981 L-349278 981 L-348505 981 L-346183 981 L-345525 981 L-343397 981 L-341675 981 L-341482 981 L-338928 981 L-338652 981 L-338464 981 L-337631 980 L-336859 980 L-336161 980 L-331160 980 L-330784 980 L-326531 980 L-326044 986 L-326025 986 L-325946 986 L-325871 985 L-325851 980 L-325038 980 L-324284 980 L-323065 980 L-321633 980 L-321537 980 L-321363 980 L-321008 980 L-319699 980 L-317842 979 L-316139 979 L-315636 979 L-315371 979 L-314978 979 L-314844 979 L-313934 979 L-313558 979 L-312629 979 L-312290 979 L-312250 979 L-312213 979 L-310297 979 L-310124 979 L-308595 979 L-308267 979 L-308151 979 L-307743 979 L-307395 979 L-305752 978 L-305201 978 L-304957 978 L-304416 978 L-303585 978 L-303043 978 L-301509 978 L-301416 978 L-301379 978 L-301244 978 L-300856 978 L-299832 978 L-297955 978 L-297859 978 L-297258 979 L-296891 981 L-296407 983 L-296369 985 L-295595 985 L-295537 985 L-295363 985 L-295169 985 L-293564 985 L-293544 985 L-293389 985 L-293273 985 L-292094 985 L-291939 985 L-291272 985 L-288824 990 L-286309 994 L-283639 998 L-275940 1003 L-270272 1003 L-268058 1003 L-268034 1003 L-267061 1004 L-267041 1004 L-266177 1004 L-263437 1004 L-257638 1003 L-257485 1002 L-254699 1002 L-241091 1002 L-240345 1002 L-235934 1002 L-219588 1002 L-219356 1002 L-218819 1002 L-210359 1002 L-201654 1002 L-201441 1002 L-199469 1002 L-196683 1002 L-192195 1002 L-192040 1002 L-191871 1002 L-191731 1002 L-191440 1001 L-191401 1001 L-191131 1001 L-190959 1001 L-190549 1001 L-189428 1001 L-188248 1001 L-186971 1001 L-184107 1001 L-181187 1001 L-179195 1001 L-177647 1001 L-174609 1001 L-165285 1001 L-164761 1001 L-159037 1001 L-157530 1001 L-156715 1001 L-155032 1001 L-154311 1000 L-154142 1000 L-153097 1000 L-151030 1000 L-149668 1000 L-145225 1000 L-145127 1000 L-145089 1000 L-145070 1000 L-144237 1000 L-144160 1000 L-141587 1000 L-138338 1000 L-138183 1000 L-137235 1000 L-135494 1000 L-134778 1000 L-131238 1000 L-124660 1000 L-123243 1001 L-123222 1001 L-122272 1001 L-118797 1001 L-118044 1001 L-117482 1001 L-116700 1001 L-109196 1000 L-107598 1000 L-106024 1000 L-102838 1000 L-98505 1000 L-89936 1000 L-81189 1000 L-78115 1000 L-74849 1000 L-74303 1000 L-67166 1000 L-61498 1000 L-47434 1000 L-41422 1000 L-36716 1000 L-32713 1000 L-27605 1000 L-17891 1000 L-2321 1000 L761 999 L1063 975 L1083 945 L1102 911 L1121 873 L1141 856 L1160 841 L1179 828 L1207 815 L1227 802 L1255 788 L1291 773 L1304 761 L1317 750 L1336 741 L1354 734 L1374 727 L1393 720 L1412 713 L1432 707 L1453 699 L1470 692 L1489 685 L1509 679 L1529 672 L1547 665 L1566 658 L1586 650 L1606 642 L1625 635 L1643 628 L1665 622 L1689 615 L1704 609 L1721 603 L1741 596 L1760 590 L1779 584 L1798 577 L1818 570 L1839 564 L1857 558 L1876 553 L1896 548 L1917 543 L1934 539 L1953 534 L1973 530 L1992 526 L2011 523 L2030 519 L2050 516 L2070 513 L2089 510 L2108 507 L2135 504 L2156 500 L2184 496 L2218 491 L2232 487 L2245 484 L2264 481 L2283 478 L2303 476 L2321 472 L2340 469 L2360 466 L2381 463 L2398 461 L2417 458 L2437 455 L2457 451 L2476 447 L2494 443 L2515 439 L2534 435 L2553 431 L2572 426 L2593 421 L2617 416 L2632 411 L2649 406 L2669 401 L2688 396 L2708 391 L2727 386 L2747 380 L2767 375 L2785 370 L2804 366 L2824 361 L2845 356 L2862 352 L2881 348 L2901 344 L2920 341 L2940 337 L2959 333 L2979 330 L2998 326 L3017 323 L3036 319 L3065 316 L3085 312 L3112 309 L3150 305 L3165 301 L3177 297 L3194 294 L3211 291 L3231 289 L3250 287 L3269 285 L3289 283 L3310 281 L3327 279 L3346 276 L3366 274 L3386 271 L3404 269 L3423 266 L3443 263 L3463 259 L3482 256 L3500 253 L3522 250 L3546 247 L3560 244 L3578 240 L3598 237 L3617 234 L3636 231 L3655 227 L3675 224 L3696 220 L3714 217 L3733 214 L3753 211 L3773 208 L3791 206 L3810 203 L3830 200 L3849 198 L3868 195 L3887 192 L3907 190 L3926 187 L3946 185 L3965 182 L3993 180 L4013 177 L4041 174 L4077 170 L4091 167 L4104 163 L4122 160 L4140 158 L4160 156 L4178 154 L4198 151 L4218 148 L4239 145 L4257 142 L4274 139 L4295 135 L4315 131 L4333 128 L4352 123 L4372 119 L4392 116 L4410 112 L4429 109 L4450 107 L4475 105 L4490 103 L4507 101 L4526 99 L4546 97 L4565 94 L4584 92 L4604 90 L4625 89 L4642 87 L4661 85 L4682 83 L4703 80 L4720 78 L4739 76 L4759 74 L4777 73 L4797 72 L4816 70 L4836 69 L4855 67 L4875 66 L4893 65 L4921 63 L4942 62 L4969 60 L5004 59 L5018 57 L5031 56 L5050 55 L5069 54 L5088 53 L5107 51 L5126 50 L5146 49 L5167 48 L5184 47 L5203 46 L5224 45 L5244 44 L5262 43 L5280 41 L5300 40 L5321 39 L5339 38 L5358 37 L5379 36 L5404 35 L5418 34 L5435 34 L5455 33 L5474 32 L5494 30 L5513 29 L5532 28 L5553 27 L5571 26 L5590 25 L5610 24 L5631 23 L5648 22 L5667 21 L5687 20 L5706 19 L5726 18 L5744 18 L5765 17 L5784 16 L5803 16 L5822 17 L5851 18 L5870 19 L5898 20 L5936 19 L5951 18 L5964 17 L5981 17 L5997 16 L6017 16 L6035 15 L6055 15 L6075 14 L6096 13 L6113 13 L6131 12 L6152 12 L6172 11 L6190 10 L6209 10 L6229 9 L6249 9 L6267 8 L6286 7 L6308 7 L6332 6 L6347 6 L6364 5 L6384 4 L6403 4 L6422 3 L6441 3 L6461 2 L6482 1 L6500 0" />
</svg>
