<svg xmlns="http://www.w3.org/2000/svg" version="1.1" viewBox="0 0 6500 1000">
	<path fill="none" stroke="gold" stroke-width="125" stroke-linecap="round" stroke-linejoin="round" d="M0 1026  L-714869 1026 L-712265 1025 L-710597 1025 L-692268 1025 L-692097 1025 L-684940 1025 L-684906 1025 L-671475 1025 L-668554 1025 L-655213 1025 L-651044 1024 L-649884 1024 L-649265 1023 L-647253 1023 L-643481 1023 L-642881 1023 L-642552 1023 L-642339 1022 L-641797 1022 L-640559 1021 L-639380 1021 L-636516 1020 L-635994 1019 L-631138 1019 L-628201 1019 L-628158 1019 L-627850 1019 L-627598 1018 L-625003 1018 L-620748 1018 L-620730 1018 L-619493 1018 L-617615 1018 L-615662 1018 L-614714 1018 L-614443 1018 L-614133 1018 L-614035 1018 L-613205 1018 L-611174 1018 L-610884 1017 L-608737 1016 L-608582 1016 L-604925 1015 L-604674 1016 L-604576 1016 L-604059 1016 L-601907 1016 L-600979 1017 L-599453 1017 L-598213 1017 L-596667 1017 L-593705 1017 L-592583 1017 L-592274 1017 L-591063 1016 L-588056 1017 L-588036 1017 L-587689 1017 L-587476 1017 L-587349 1016 L-587108 1016 L-587070 1016 L-587050 1015 L-587031 1015 L-586972 1015 L-586914 1015 L-586896 1015 L-586452 1015 L-585213 1014 L-583667 1014 L-580280 1014 L-574553 1014 L-574352 1014 L-572716 1014 L-570994 1014 L-569562 1014 L-569330 1013 L-568614 1013 L-562482 1013 L-562114 1013 L-561960 1013 L-561382 1013 L-561089 1013 L-560122 1012 L-559812 1012 L-559213 1012 L-557607 1012 L-556872 1012 L-556562 1012 L-555794 1012 L-553757 1012 L-553332 1012 L-552520 1012 L-545091 1012 L-544568 1011 L-544394 1011 L-543659 1011 L-542092 1011 L-541686 1011 L-539461 1011 L-538513 1010 L-538088 1010 L-537758 1010 L-536714 1010 L-534606 1010 L-534354 1010 L-533735 1010 L-532922 1010 L-530814 1009 L-530766 1009 L-528838 1009 L-528512 1009 L-528377 1009 L-527874 1009 L-526461 1009 L-525958 1008 L-525436 1008 L-521877 1008 L-521142 1007 L-518717 1007 L-517427 1007 L-517020 1007 L-513868 1007 L-513713 1007 L-513693 1007 L-513326 1007 L-512068 1007 L-511353 1007 L-510463 1007 L-510056 1007 L-509128 1007 L-508019 1007 L-507716 1007 L-501467 1008 L-500520 1008 L-498893 1008 L-498392 1008 L-494716 1008 L-493883 1008 L-489930 1008 L-488519 1008 L-486029 1008 L-485353 1008 L-485314 1008 L-484443 1008 L-481232 1008 L-478369 1007 L-477401 1007 L-476279 1007 L-476260 1007 L-474635 1007 L-474171 1007 L-474079 1006 L-467710 1006 L-466762 1006 L-464305 1006 L-463432 1006 L-462196 1006 L-460195 1006 L-459797 1006 L-458361 1005 L-456335 1005 L-456122 1005 L-454942 1005 L-453433 1005 L-453413 1005 L-451401 1005 L-450531 1005 L-449660 1005 L-449076 1004 L-448538 1004 L-447881 1004 L-446643 1004 L-446082 1004 L-444901 1004 L-443663 1004 L-443625 1004 L-443238 1003 L-442696 1003 L-441922 1003 L-440800 1003 L-438711 1003 L-438378 1003 L-438092 1003 L-437163 1002 L-436680 1002 L-435945 1002 L-432313 1002 L-431186 1002 L-431031 1002 L-430005 1002 L-426290 1002 L-425073 1002 L-423255 1001 L-420469 1001 L-419907 1001 L-416020 1001 L-413543 1001 L-412208 1001 L-411705 1001 L-411222 1001 L-408532 1001 L-404761 1001 L-402303 1001 L-401124 1001 L-400484 1001 L-398125 1001 L-398047 1000 L-397000 1000 L-396906 1000 L-396404 1000 L-395958 1000 L-395900 1000 L-395687 1000 L-392727 1000 L-390020 1000 L-389865 1000 L-386344 1000 L-385821 1000 L-384854 999 L-384505 999 L-383461 999 L-382532 999 L-382107 999 L-380598 999 L-379631 999 L-379612 999 L-377716 992 L-377600 986 L-377552 979 L-377528 972 L-374523 972 L-372493 972 L-370732 972 L-370365 972 L-369919 972 L-369552 972 L-369138 972 L-367153 971 L-366940 971 L-366785 971 L-365180 971 L-364058 971 L-363110 971 L-361853 971 L-360208 971 L-359028 971 L-352439 971 L-352392 971 L-351987 971 L-350942 970 L-350806 970 L-349124 970 L-349104 970 L-347767 970 L-346531 970 L-346376 970 L-346003 970 L-345796 969 L-345487 969 L-344713 969 L-342391 969 L-341734 969 L-339606 969 L-337883 969 L-337690 969 L-335137 969 L-334860 968 L-334672 968 L-333840 968 L-333067 968 L-332369 968 L-327369 968 L-326993 968 L-322740 968 L-322253 976 L-322233 976 L-322154 976 L-322079 976 L-322059 967 L-321247 967 L-320493 967 L-319274 967 L-317842 967 L-317746 967 L-317571 967 L-317217 967 L-315907 967 L-314050 966 L-312348 966 L-311845 966 L-311580 966 L-311186 966 L-311052 966 L-310142 966 L-309766 966 L-308838 966 L-308498 966 L-308459 966 L-308421 966 L-306506 966 L-306332 965 L-304803 965 L-304475 965 L-304359 965 L-303952 965 L-303604 965 L-301960 965 L-301409 965 L-301166 965 L-300625 965 L-299793 964 L-299252 964 L-297717 964 L-297625 964 L-297588 964 L-297452 964 L-297065 964 L-296040 964 L-294163 964 L-294067 964 L-293467 966 L-293100 969 L-292615 972 L-292577 975 L-291803 976 L-291746 976 L-291571 975 L-291378 975 L-289772 975 L-289753 975 L-289597 975 L-289482 975 L-288302 975 L-288148 976 L-287481 976 L-285032 983 L-282518 990 L-279848 998 L-272149 1005 L-266481 1005 L-264266 1005 L-264243 1005 L-263269 1006 L-263249 1006 L-262385 1006 L-259645 1006 L-253847 1004 L-253693 1004 L-250907 1004 L-237299 1004 L-236553 1004 L-232143 1004 L-215796 1003 L-215564 1003 L-215027 1003 L-206568 1003 L-197862 1003 L-197650 1003 L-195677 1003 L-192891 1003 L-188404 1003 L-188249 1003 L-188080 1003 L-187939 1003 L-187649 1003 L-187610 1002 L-187339 1002 L-187167 1002 L-186757 1002 L-185637 1002 L-184456 1002 L-183180 1002 L-180316 1002 L-177396 1002 L-175403 1002 L-173856 1002 L-170818 1001 L-161493 1001 L-160969 1001 L-155246 1001 L-153739 1001 L-152924 1001 L-151240 1001 L-150519 1001 L-150351 1001 L-149306 1001 L-147238 1001 L-145876 1001 L-141433 1000 L-141336 1000 L-141297 1000 L-141278 1000 L-140446 1000 L-140368 1000 L-137796 1000 L-134546 1000 L-134392 1000 L-133443 1000 L-131702 999 L-130987 1000 L-127446 1000 L-120869 1001 L-119451 1002 L-119431 1002 L-118480 1001 L-115006 1001 L-114253 1001 L-113691 1001 L-112909 1001 L-105405 1001 L-103806 1001 L-102232 1001 L-99047 1001 L-94714 1001 L-86144 1000 L-77398 1000 L-74324 1000 L-71058 1000 L-70511 1000 L-63374 1000 L-57707 1000 L-43642 1000 L-37631 1000 L-32924 1000 L-28921 1000 L-23814 1000 L-14100 1000 L1470 999 L4553 999 L4855 959 L4874 910 L4893 855 L4913 792 L4933 764 L4952 740 L4971 718 L4998 696 L5019 675 L5047 653 L5082 628 L5096 607 L5109 589 L5127 574 L5146 563 L5166 552 L5184 541 L5204 530 L5224 518 L5245 506 L5261 495 L5280 484 L5301 473 L5321 462 L5339 450 L5358 438 L5378 425 L5398 413 L5416 401 L5435 390 L5456 379 L5481 368 L5496 358 L5513 348 L5532 337 L5552 327 L5571 317 L5590 305 L5610 295 L5630 285 L5648 275 L5667 266 L5688 257 L5708 249 L5725 242 L5744 235 L5764 229 L5783 222 L5803 216 L5822 210 L5842 206 L5861 201 L5881 196 L5899 191 L5927 185 L5947 179 L5975 172 L6009 165 L6023 158 L6037 153 L6055 148 L6074 144 L6094 139 L6113 134 L6132 129 L6152 123 L6173 119 L6190 114 L6209 109 L6229 105 L6249 99 L6267 93 L6286 86 L6306 79 L6326 72 L6345 65 L6363 58 L6385 50 L6409 41 L6424 33 L6441 24 L6461 16 L6480 8 L6500 0" />
</svg>
