<svg xmlns="http://www.w3.org/2000/svg" version="1.1" viewBox="0 0 6500 1000">
	<path fill="none" stroke="gold" stroke-width="125" stroke-linecap="round" stroke-linejoin="round" d="M0 1028  L-714695 1028 L-712091 1027 L-710423 1027 L-692094 1027 L-691924 1027 L-684766 1027 L-684733 1027 L-671302 1027 L-668380 1027 L-655039 1026 L-650870 1026 L-649710 1026 L-649091 1025 L-647079 1025 L-643307 1025 L-642707 1024 L-642378 1024 L-642165 1024 L-641624 1024 L-640386 1023 L-639207 1022 L-636342 1022 L-635820 1021 L-630965 1021 L-628027 1020 L-627984 1020 L-627676 1020 L-627424 1020 L-624829 1020 L-620574 1020 L-620556 1020 L-619319 1020 L-617442 1020 L-615488 1020 L-614540 1019 L-614269 1019 L-613960 1019 L-613861 1019 L-613031 1019 L-611000 1019 L-610710 1018 L-608563 1018 L-608408 1017 L-604752 1017 L-604501 1017 L-604402 1017 L-603885 1017 L-601734 1018 L-600805 1018 L-599279 1019 L-598039 1019 L-596493 1018 L-593531 1018 L-592409 1018 L-592100 1018 L-590889 1018 L-587882 1019 L-587863 1019 L-587515 1019 L-587302 1019 L-587176 1017 L-586934 1017 L-586896 1017 L-586877 1017 L-586857 1016 L-586798 1016 L-586740 1016 L-586722 1016 L-586279 1016 L-585039 1016 L-583494 1015 L-580106 1015 L-574380 1015 L-574178 1015 L-572542 1015 L-570820 1015 L-569388 1015 L-569156 1015 L-568441 1014 L-562308 1014 L-561941 1014 L-561786 1014 L-561208 1014 L-560915 1014 L-559948 1013 L-559638 1013 L-559039 1013 L-557433 1013 L-556698 1013 L-556388 1013 L-555620 1013 L-553584 1013 L-553158 1013 L-552346 1013 L-544917 1012 L-544394 1012 L-544221 1012 L-543486 1012 L-541918 1012 L-541512 1012 L-539287 1011 L-538339 1011 L-537914 1011 L-537584 1011 L-536540 1011 L-534432 1011 L-534180 1011 L-533561 1011 L-532748 1010 L-530641 1010 L-530592 1010 L-528664 1010 L-528338 1010 L-528203 1009 L-527700 1009 L-526287 1009 L-525784 1009 L-525263 1009 L-521703 1008 L-520968 1008 L-518543 1008 L-517254 1008 L-516847 1007 L-513694 1007 L-513539 1007 L-513519 1008 L-513153 1008 L-511894 1008 L-511179 1008 L-510289 1008 L-509882 1008 L-508954 1008 L-507845 1008 L-507542 1008 L-501293 1008 L-500346 1008 L-498720 1009 L-498218 1009 L-494542 1009 L-493710 1009 L-489757 1009 L-488345 1009 L-485856 1009 L-485179 1008 L-485140 1008 L-484270 1008 L-481058 1008 L-478195 1008 L-477227 1008 L-476106 1008 L-476087 1008 L-474462 1007 L-473998 1007 L-473906 1007 L-467536 1007 L-466588 1007 L-464131 1007 L-463259 1007 L-462023 1006 L-460021 1006 L-459624 1006 L-458187 1006 L-456161 1006 L-455948 1006 L-454768 1006 L-453260 1005 L-453239 1005 L-451227 1005 L-450358 1005 L-449487 1005 L-448902 1005 L-448365 1005 L-447707 1004 L-446469 1004 L-445908 1004 L-444727 1004 L-443490 1004 L-443451 1004 L-443064 1004 L-442523 1004 L-441749 1003 L-440627 1003 L-438537 1003 L-438204 1003 L-437918 1003 L-436990 1003 L-436506 1003 L-435771 1002 L-432140 1002 L-431012 1002 L-430857 1002 L-429831 1002 L-426117 1002 L-424899 1002 L-423081 1001 L-420295 1001 L-419734 1001 L-415846 1001 L-413369 1001 L-412034 1001 L-411531 1001 L-411048 1001 L-408359 1001 L-404587 1001 L-402130 1001 L-400950 1001 L-400311 1001 L-397951 1001 L-397874 1001 L-396826 1000 L-396733 1000 L-396230 1000 L-395784 1000 L-395727 1000 L-395513 1000 L-392553 1000 L-389846 1000 L-389691 1000 L-386170 1000 L-385647 1000 L-384680 999 L-384331 999 L-383287 999 L-382359 999 L-381933 999 L-380424 999 L-379457 999 L-379438 999 L-377542 992 L-377426 984 L-377378 977 L-377354 970 L-374350 970 L-372319 970 L-370558 970 L-370191 970 L-369746 970 L-369379 970 L-368965 969 L-366980 969 L-366767 969 L-366612 969 L-365006 969 L-363885 969 L-362936 969 L-361679 969 L-360034 969 L-358855 969 L-352265 968 L-352219 968 L-351813 968 L-350768 968 L-350632 968 L-348950 968 L-348930 968 L-347593 968 L-346357 967 L-346203 967 L-345829 967 L-345623 967 L-345313 967 L-344539 967 L-342218 967 L-341560 967 L-339432 967 L-337710 966 L-337516 966 L-334963 966 L-334687 966 L-334498 966 L-333666 966 L-332894 966 L-332195 965 L-327195 965 L-326819 965 L-322566 965 L-322079 975 L-322060 975 L-321981 975 L-321905 974 L-321886 965 L-321073 965 L-320319 964 L-319100 964 L-317668 964 L-317572 964 L-317397 964 L-317043 964 L-315734 964 L-313876 964 L-312174 964 L-311671 964 L-311406 963 L-311013 963 L-310879 963 L-309969 963 L-309592 963 L-308664 963 L-308325 963 L-308285 963 L-308248 963 L-306332 963 L-306158 963 L-304630 963 L-304301 963 L-304185 963 L-303778 962 L-303430 962 L-301786 962 L-301235 962 L-300992 962 L-300451 962 L-299620 962 L-299078 962 L-297543 961 L-297451 961 L-297414 961 L-297278 961 L-296891 961 L-295866 961 L-293990 961 L-293894 961 L-293293 964 L-292926 967 L-292442 970 L-292403 974 L-291630 974 L-291572 974 L-291398 974 L-291204 973 L-289599 973 L-289579 973 L-289424 973 L-289308 973 L-288129 974 L-287974 974 L-287307 974 L-284859 982 L-282344 990 L-279674 997 L-271975 1005 L-266307 1005 L-264093 1005 L-264069 1005 L-263095 1007 L-263075 1007 L-262212 1007 L-259472 1007 L-253673 1005 L-253520 1004 L-250734 1004 L-237125 1004 L-236380 1004 L-231969 1004 L-215623 1004 L-215390 1004 L-214853 1003 L-206394 1003 L-197688 1003 L-197476 1003 L-195503 1003 L-192717 1003 L-188230 1003 L-188075 1003 L-187906 1003 L-187766 1003 L-187475 1003 L-187436 1003 L-187165 1003 L-186994 1003 L-186584 1002 L-185463 1002 L-184283 1002 L-183006 1002 L-180142 1002 L-177222 1002 L-175230 1002 L-173682 1002 L-170644 1002 L-161320 1001 L-160796 1001 L-155072 1001 L-153565 1001 L-152750 1001 L-151067 1001 L-150346 1001 L-150177 1001 L-149132 1001 L-147065 1001 L-145703 1001 L-141259 1001 L-141162 1000 L-141124 1000 L-141105 1000 L-140272 1000 L-140194 1000 L-137622 1000 L-134373 1000 L-134218 1000 L-133270 1000 L-131528 999 L-130813 1000 L-127272 1000 L-120695 1001 L-119278 1002 L-119257 1002 L-118306 1002 L-114832 1001 L-114079 1001 L-113517 1001 L-112735 1001 L-105231 1001 L-103633 1001 L-102059 1001 L-98873 1001 L-94540 1001 L-85971 1001 L-77224 1001 L-74150 1000 L-70884 1000 L-70338 1000 L-63201 1000 L-57533 1000 L-43468 1000 L-37457 1000 L-32751 1000 L-28748 1000 L-23640 1000 L-13926 1000 L1644 999 L4726 999 L5029 956 L5048 903 L5067 843 L5087 776 L5106 746 L5126 720 L5144 696 L5172 672 L5193 650 L5221 626 L5256 599 L5269 577 L5283 557 L5301 541 L5320 529 L5340 517 L5358 505 L5377 493 L5397 481 L5418 468 L5435 456 L5454 444 L5474 432 L5494 420 L5513 407 L5531 394 L5551 381 L5571 367 L5590 355 L5609 343 L5630 331 L5655 319 L5669 308 L5686 297 L5706 286 L5726 275 L5745 263 L5763 251 L5784 240 L5804 229 L5822 219 L5841 209 L5861 200 L5882 191 L5899 183 L5918 176 L5938 169 L5957 162 L5977 155 L5995 149 L6015 144 L6035 139 L6054 134 L6073 129 L6100 122 L6121 115 L6149 108 L6183 100 L6197 93 L6210 87 L6229 82 L6248 77 L6268 72 L6286 66 L6306 61 L6326 55 L6346 50 L6364 45 L6382 40 L6403 35 L6422 29 L6441 22 L6460 15 L6480 8 L6500 0" />
</svg>
