<svg xmlns="http://www.w3.org/2000/svg" version="1.1" viewBox="0 0 6500 1000">
	<path fill="none" stroke="gold" stroke-width="125" stroke-linecap="round" stroke-linejoin="round" d="M0 1019  L-715991 1019 L-713387 1019 L-711719 1019 L-693390 1019 L-693219 1019 L-686062 1019 L-686028 1019 L-672597 1019 L-669676 1019 L-656335 1019 L-652166 1018 L-651006 1018 L-650387 1018 L-648375 1017 L-644603 1017 L-644003 1017 L-643674 1017 L-643461 1017 L-642919 1017 L-641681 1016 L-640502 1016 L-637638 1015 L-637116 1015 L-632260 1014 L-629323 1014 L-629280 1014 L-628972 1014 L-628720 1014 L-626125 1014 L-621870 1014 L-621852 1014 L-620615 1014 L-618737 1014 L-616784 1014 L-615836 1014 L-615565 1013 L-615255 1013 L-615157 1013 L-614327 1013 L-612296 1013 L-612006 1013 L-609859 1012 L-609704 1012 L-606047 1012 L-605796 1012 L-605698 1012 L-605181 1012 L-603029 1012 L-602101 1013 L-600575 1013 L-599335 1013 L-597789 1013 L-594827 1013 L-593705 1013 L-593396 1012 L-592185 1012 L-589178 1013 L-589158 1013 L-588811 1013 L-588598 1013 L-588472 1012 L-588230 1012 L-588192 1012 L-588172 1012 L-588153 1011 L-588094 1011 L-588036 1011 L-588018 1011 L-587574 1011 L-586335 1011 L-584789 1011 L-581402 1011 L-575675 1010 L-575474 1010 L-573838 1010 L-572116 1010 L-570684 1010 L-570452 1010 L-569736 1010 L-563604 1010 L-563236 1010 L-563082 1010 L-562504 1010 L-562211 1009 L-561244 1009 L-560934 1009 L-560335 1009 L-558729 1009 L-557994 1009 L-557684 1009 L-556916 1009 L-554880 1009 L-554454 1009 L-553642 1009 L-546213 1009 L-545690 1009 L-545516 1008 L-544781 1008 L-543214 1008 L-542808 1008 L-540583 1008 L-539635 1008 L-539210 1008 L-538880 1008 L-537836 1008 L-535728 1008 L-535476 1007 L-534857 1007 L-534044 1007 L-531936 1007 L-531888 1007 L-529960 1007 L-529634 1007 L-529499 1007 L-528996 1006 L-527583 1006 L-527080 1006 L-526558 1006 L-522999 1006 L-522264 1005 L-519839 1005 L-518549 1005 L-518142 1005 L-514990 1005 L-514835 1005 L-514815 1005 L-514448 1005 L-513190 1005 L-512475 1005 L-511585 1005 L-511178 1005 L-510250 1005 L-509141 1005 L-508838 1006 L-502589 1006 L-501642 1006 L-500015 1006 L-499514 1006 L-495838 1006 L-495005 1006 L-491052 1006 L-489641 1006 L-487151 1006 L-486475 1006 L-486436 1006 L-485565 1006 L-482354 1006 L-479491 1006 L-478523 1005 L-477401 1005 L-477382 1005 L-475757 1005 L-475293 1005 L-475201 1005 L-468832 1005 L-467884 1005 L-465427 1005 L-464554 1004 L-463318 1004 L-461317 1004 L-460919 1004 L-459483 1004 L-457457 1004 L-457244 1004 L-456064 1004 L-454555 1004 L-454535 1004 L-452523 1004 L-451653 1003 L-450782 1003 L-450198 1003 L-449660 1003 L-449003 1003 L-447765 1003 L-447204 1003 L-446023 1003 L-444785 1003 L-444747 1003 L-444360 1003 L-443818 1002 L-443044 1002 L-441922 1002 L-439833 1002 L-439500 1002 L-439214 1002 L-438285 1002 L-437802 1002 L-437067 1002 L-433435 1002 L-432308 1001 L-432153 1001 L-431127 1001 L-427412 1001 L-426195 1001 L-424377 1001 L-421591 1001 L-421029 1001 L-417142 1001 L-414665 1001 L-413330 1001 L-412827 1001 L-412344 1000 L-409654 1000 L-405883 1000 L-403425 1000 L-402246 1000 L-401606 1000 L-399247 1000 L-399169 1000 L-398122 1000 L-398028 1000 L-397526 1000 L-397080 1000 L-397022 1000 L-396809 1000 L-393849 1000 L-391142 1000 L-390987 1000 L-387466 1000 L-386943 1000 L-385976 999 L-385627 999 L-384583 999 L-383654 999 L-383229 999 L-381720 999 L-380753 999 L-380734 999 L-378838 994 L-378722 989 L-378674 984 L-378650 979 L-375645 979 L-373615 979 L-371854 979 L-371487 979 L-371041 978 L-370674 978 L-370260 978 L-368275 978 L-368062 978 L-367907 978 L-366302 978 L-365180 978 L-364232 978 L-362975 978 L-361330 978 L-360150 978 L-353561 978 L-353514 977 L-353109 977 L-352064 977 L-351928 977 L-350246 977 L-350226 977 L-348889 977 L-347653 977 L-347498 977 L-347125 977 L-346918 977 L-346609 977 L-345835 976 L-343513 976 L-342856 976 L-340728 976 L-339005 976 L-338812 976 L-336259 976 L-335982 976 L-335794 976 L-334962 976 L-334189 976 L-333491 975 L-328491 975 L-328115 975 L-323862 975 L-323375 982 L-323355 982 L-323276 982 L-323201 982 L-323181 975 L-322369 975 L-321615 975 L-320396 975 L-318964 975 L-318868 975 L-318693 975 L-318339 974 L-317029 974 L-315172 974 L-313470 974 L-312967 974 L-312702 974 L-312308 974 L-312174 974 L-311264 974 L-310888 974 L-309960 974 L-309620 974 L-309581 974 L-309543 974 L-307628 974 L-307454 974 L-305925 974 L-305597 974 L-305481 973 L-305074 973 L-304726 973 L-303082 973 L-302531 973 L-302288 973 L-301747 973 L-300915 973 L-300374 973 L-298839 973 L-298747 972 L-298710 972 L-298574 972 L-298187 972 L-297162 972 L-295286 972 L-295189 972 L-294589 974 L-294222 977 L-293737 979 L-293699 981 L-292925 981 L-292868 981 L-292693 981 L-292500 981 L-290894 981 L-290875 981 L-290719 981 L-290604 981 L-289424 981 L-289270 981 L-288603 981 L-286154 987 L-283640 993 L-280970 998 L-273271 1003 L-267603 1003 L-265388 1003 L-265365 1003 L-264391 1005 L-264371 1005 L-263508 1005 L-260767 1005 L-254969 1003 L-254815 1003 L-252029 1003 L-238421 1003 L-237675 1003 L-233265 1003 L-216918 1003 L-216686 1002 L-216149 1002 L-207690 1002 L-198984 1002 L-198772 1002 L-196799 1002 L-194013 1002 L-189526 1002 L-189371 1002 L-189202 1002 L-189061 1002 L-188771 1002 L-188732 1002 L-188461 1002 L-188289 1002 L-187879 1002 L-186759 1002 L-185578 1001 L-184302 1001 L-181438 1001 L-178518 1001 L-176526 1001 L-174978 1001 L-171940 1001 L-162615 1001 L-162091 1001 L-156368 1001 L-154861 1001 L-154046 1001 L-152362 1001 L-151641 1001 L-151473 1000 L-150428 1000 L-148360 1000 L-146998 1000 L-142555 1000 L-142458 1000 L-142419 1000 L-142400 1000 L-141568 1000 L-141490 1000 L-138918 1000 L-135668 1000 L-135514 1000 L-134565 1000 L-132824 999 L-132109 1000 L-128568 1000 L-121991 1001 L-120573 1001 L-120553 1001 L-119602 1001 L-116128 1001 L-115375 1001 L-114813 1001 L-114031 1001 L-106527 1001 L-104928 1000 L-103354 1000 L-100169 1000 L-95836 1000 L-87266 1000 L-78520 1000 L-75446 1000 L-72180 1000 L-71633 1000 L-64496 1000 L-58829 1000 L-44764 1000 L-38753 1000 L-34046 1000 L-30043 1000 L-24936 1000 L-15222 1000 L348 999 L3431 999 L3733 969 L3752 932 L3771 889 L3791 842 L3811 820 L3830 802 L3849 785 L3876 768 L3897 752 L3925 735 L3960 717 L3974 701 L3987 687 L4005 676 L4024 667 L4044 659 L4062 650 L4082 642 L4101 633 L4123 624 L4139 615 L4158 607 L4179 598 L4199 590 L4217 581 L4236 572 L4256 562 L4276 553 L4294 544 L4313 535 L4334 527 L4359 519 L4374 511 L4391 503 L4410 495 L4430 488 L4449 479 L4468 471 L4488 463 L4508 455 L4526 448 L4545 441 L4566 434 L4586 428 L4603 423 L4622 418 L4642 412 L4661 408 L4681 403 L4700 399 L4720 395 L4739 391 L4759 388 L4777 384 L4805 380 L4825 375 L4853 370 L4887 364 L4901 359 L4915 355 L4933 351 L4952 348 L4972 344 L4991 340 L5010 336 L5030 332 L5051 329 L5068 325 L5087 322 L5107 318 L5127 314 L5145 309 L5164 304 L5184 299 L5204 293 L5223 288 L5241 282 L5263 276 L5287 270 L5302 263 L5319 257 L5339 251 L5358 245 L5377 238 L5396 232 L5416 225 L5437 219 L5455 213 L5474 207 L5494 201 L5514 195 L5532 190 L5551 185 L5571 180 L5590 175 L5610 171 L5628 166 L5648 162 L5667 157 L5687 153 L5706 148 L5735 144 L5754 140 L5782 136 L5819 131 L5834 126 L5847 121 L5864 117 L5881 114 L5901 111 L5919 108 L5938 106 L5958 103 L5979 101 L5996 98 L6015 95 L6036 92 L6055 89 L6074 85 L6093 82 L6113 78 L6132 74 L6151 70 L6170 66 L6191 62 L6215 58 L6230 54 L6247 50 L6267 46 L6286 42 L6306 38 L6325 33 L6345 29 L6365 25 L6383 21 L6402 17 L6422 14 L6443 10 L6461 7 L6480 3 L6500 0" />
</svg>
