<svg xmlns="http://www.w3.org/2000/svg" version="1.1" viewBox="0 0 6500 1000">
	<path fill="none" stroke="gold" stroke-width="125" stroke-linecap="round" stroke-linejoin="round" d="M0 3847  L-724202 3847 L-721598 3847 L-719930 3847 L-701600 3846 L-701430 3846 L-694272 3846 L-694239 3846 L-680808 3846 L-677887 3846 L-664546 3845 L-660377 3845 L-659217 3844 L-658598 3843 L-656586 3842 L-652814 3842 L-652214 3841 L-651885 3841 L-651672 3841 L-651130 3840 L-649892 3839 L-648713 3838 L-645849 3836 L-645327 3835 L-640471 3834 L-637534 3834 L-637491 3834 L-637183 3833 L-636931 3833 L-634336 3833 L-630080 3833 L-630063 3833 L-628826 3833 L-626948 3833 L-624995 3832 L-624047 3832 L-623776 3832 L-623466 3831 L-623368 3831 L-622538 3831 L-620507 3831 L-620216 3830 L-618070 3829 L-617915 3828 L-614258 3827 L-614007 3828 L-613909 3827 L-613392 3828 L-611240 3829 L-610312 3830 L-608786 3831 L-607546 3831 L-606000 3830 L-603038 3830 L-601916 3830 L-601607 3829 L-600395 3829 L-597389 3831 L-597369 3831 L-597022 3831 L-596809 3831 L-596682 3828 L-596441 3828 L-596403 3827 L-596383 3827 L-596364 3827 L-596305 3826 L-596246 3826 L-596228 3826 L-595785 3825 L-594546 3825 L-593000 3825 L-589613 3824 L-583886 3824 L-583685 3824 L-582049 3824 L-580327 3823 L-578895 3823 L-578662 3823 L-577947 3823 L-571815 3823 L-571447 3822 L-571293 3822 L-570714 3822 L-570422 3821 L-569455 3821 L-569145 3821 L-568546 3820 L-566940 3820 L-566205 3820 L-565895 3820 L-565127 3820 L-563090 3820 L-562665 3820 L-561853 3820 L-554424 3819 L-553901 3819 L-553727 3818 L-552992 3818 L-551425 3818 L-551019 3818 L-548794 3817 L-547846 3817 L-547421 3817 L-547091 3817 L-546047 3817 L-543939 3816 L-543687 3816 L-543068 3816 L-542255 3815 L-540147 3815 L-540099 3815 L-538171 3814 L-537845 3814 L-537710 3814 L-537207 3814 L-535794 3813 L-535291 3812 L-534769 3812 L-531210 3811 L-530474 3811 L-528050 3811 L-526760 3810 L-526353 3810 L-523201 3810 L-523046 3810 L-523026 3810 L-522659 3810 L-521401 3810 L-520686 3811 L-519796 3811 L-519389 3811 L-518460 3811 L-517352 3810 L-517049 3811 L-510800 3811 L-509852 3812 L-508226 3812 L-507724 3812 L-504049 3812 L-503216 3813 L-499263 3813 L-497851 3812 L-495362 3812 L-494686 3812 L-494647 3811 L-493776 3811 L-490565 3811 L-487702 3811 L-486734 3811 L-485612 3811 L-485593 3810 L-483968 3810 L-483504 3809 L-483412 3809 L-477043 3809 L-476095 3809 L-473638 3809 L-472765 3808 L-471529 3808 L-469528 3808 L-469130 3808 L-467694 3807 L-465668 3807 L-465455 3807 L-464275 3806 L-462766 3806 L-462746 3806 L-460734 3806 L-459864 3806 L-458993 3805 L-458409 3805 L-457871 3805 L-457214 3804 L-455975 3804 L-455415 3804 L-454234 3804 L-452996 3803 L-452958 3803 L-452571 3803 L-452029 3803 L-451255 3803 L-450133 3802 L-448044 3802 L-447711 3802 L-447425 3801 L-446496 3801 L-446013 3801 L-445278 3801 L-441646 3800 L-440519 3800 L-440364 3800 L-439338 3800 L-435623 3800 L-434406 3799 L-432588 3799 L-429802 3799 L-429240 3798 L-425352 3798 L-422876 3798 L-421541 3798 L-421038 3798 L-420554 3798 L-417865 3798 L-414094 3798 L-411636 3798 L-410457 3798 L-409817 3798 L-407458 3797 L-407380 3797 L-406333 3797 L-406239 3797 L-405736 3797 L-405291 3797 L-405233 3797 L-405020 3797 L-402060 3796 L-399352 3796 L-399198 3796 L-395677 3796 L-395154 3795 L-394187 3795 L-393838 3795 L-392794 3794 L-391865 3794 L-391440 3794 L-389931 3794 L-388964 3794 L-388945 3794 L-387049 3781 L-386933 3767 L-386885 3754 L-386861 3741 L-383856 3741 L-381826 3741 L-380065 3740 L-379698 3740 L-379252 3740 L-378885 3740 L-378471 3739 L-376486 3739 L-376273 3739 L-376118 3739 L-374513 3739 L-373391 3739 L-372443 3739 L-371186 3738 L-369541 3738 L-368361 3738 L-361772 3738 L-361725 3737 L-361320 3737 L-360274 3737 L-360139 3737 L-358457 3737 L-358437 3736 L-357100 3736 L-355864 3736 L-355709 3736 L-355335 3735 L-355129 3735 L-354820 3735 L-354046 3735 L-351724 3734 L-351067 3734 L-348939 3734 L-347216 3734 L-347023 3734 L-344470 3733 L-344193 3733 L-344005 3733 L-343173 3733 L-342400 3732 L-341702 3732 L-336702 3732 L-336326 3732 L-332073 3732 L-331586 3749 L-331566 3749 L-331487 3749 L-331412 3749 L-331392 3731 L-330579 3731 L-329826 3730 L-328607 3730 L-327175 3730 L-327078 3730 L-326904 3730 L-326550 3730 L-325240 3729 L-323383 3729 L-321681 3729 L-321178 3729 L-320913 3728 L-320519 3728 L-320385 3728 L-319475 3728 L-319099 3728 L-318170 3728 L-317831 3728 L-317792 3728 L-317754 3727 L-315839 3727 L-315665 3727 L-314136 3727 L-313808 3727 L-313692 3727 L-313285 3727 L-312937 3726 L-311293 3726 L-310742 3726 L-310499 3726 L-309958 3725 L-309126 3725 L-308585 3725 L-307050 3725 L-306958 3724 L-306921 3724 L-306785 3724 L-306398 3724 L-305373 3724 L-303496 3724 L-303400 3723 L-302800 3729 L-302433 3735 L-301948 3741 L-301910 3747 L-301136 3748 L-301079 3747 L-300904 3747 L-300711 3747 L-299105 3747 L-299085 3746 L-298930 3747 L-298815 3747 L-297635 3747 L-297480 3748 L-296814 3748 L-294365 3762 L-291850 3777 L-289181 3791 L-281481 3806 L-275814 3806 L-273599 3805 L-273576 3805 L-272602 3809 L-272582 3809 L-271718 3809 L-268978 3808 L-263180 3805 L-263026 3804 L-260240 3804 L-246632 3804 L-245886 3804 L-241475 3803 L-225129 3803 L-224897 3803 L-224360 3803 L-215901 3802 L-207195 3802 L-206983 3802 L-205010 3802 L-202224 3802 L-197736 3802 L-197582 3802 L-197413 3802 L-197272 3802 L-196981 3801 L-196943 3801 L-196672 3801 L-196500 3801 L-196090 3801 L-194970 3800 L-193789 3800 L-192513 3800 L-189649 3800 L-186728 3800 L-184736 3800 L-183189 3799 L-180151 3799 L-170826 3799 L-170302 3799 L-164579 3799 L-163072 3799 L-162257 3799 L-160573 3798 L-159852 3798 L-159684 3798 L-158639 3798 L-156571 3797 L-155209 3797 L-150766 3797 L-150669 3797 L-150630 3797 L-150611 3797 L-149779 3796 L-149701 3796 L-147129 3796 L-143879 3796 L-143724 3796 L-142776 3795 L-141035 3795 L-140320 3796 L-136779 3797 L-130202 3798 L-128784 3799 L-128764 3799 L-127813 3799 L-124339 3799 L-123585 3799 L-123024 3798 L-122242 3798 L-114738 3798 L-113139 3798 L-111565 3798 L-108380 3797 L-104047 3797 L-95477 3797 L-86731 3797 L-83657 3797 L-80391 3797 L-79844 3796 L-72707 3796 L-67039 3796 L-52975 3796 L-46964 3796 L-42257 3796 L-38254 3796 L-33147 3796 L-23433 3796 L-7862 3795 L-4779 3795 L-4477 3715 L-4457 3617 L-4439 3506 L-4419 3381 L-4399 3325 L-4380 3277 L-4361 3233 L-4334 3189 L-4313 3147 L-4285 3103 L-4250 3053 L-4236 3012 L-4223 2976 L-4205 2946 L-4186 2924 L-4166 2902 L-4148 2879 L-4128 2857 L-4108 2834 L-4087 2811 L-4070 2788 L-4052 2765 L-4031 2743 L-4011 2722 L-3993 2698 L-3974 2674 L-3954 2648 L-3934 2624 L-3916 2600 L-3897 2578 L-3876 2556 L-3851 2534 L-3836 2514 L-3819 2494 L-3800 2473 L-3780 2453 L-3761 2431 L-3742 2409 L-3722 2388 L-3702 2368 L-3684 2348 L-3665 2330 L-3644 2313 L-3624 2297 L-3607 2283 L-3588 2269 L-3568 2256 L-3549 2243 L-3529 2231 L-3510 2219 L-3490 2210 L-3471 2200 L-3451 2191 L-3433 2181 L-3405 2169 L-3384 2157 L-3357 2143 L-3323 2128 L-3308 2116 L-3295 2105 L-3277 2094 L-3258 2086 L-3238 2077 L-3219 2066 L-3200 2056 L-3180 2046 L-3159 2036 L-3142 2027 L-3123 2018 L-3103 2008 L-3083 1997 L-3065 1984 L-3046 1971 L-3026 1957 L-3006 1943 L-2987 1929 L-2968 1915 L-2947 1899 L-2923 1881 L-2908 1864 L-2891 1848 L-2871 1832 L-2852 1816 L-2832 1799 L-2814 1782 L-2794 1765 L-2773 1748 L-2755 1732 L-2736 1716 L-2716 1701 L-2696 1686 L-2678 1672 L-2659 1659 L-2639 1645 L-2620 1634 L-2600 1622 L-2582 1610 L-2562 1599 L-2542 1587 L-2523 1575 L-2504 1564 L-2475 1552 L-2456 1541 L-2428 1530 L-2391 1517 L-2376 1504 L-2363 1492 L-2346 1481 L-2329 1473 L-2309 1465 L-2291 1458 L-2272 1452 L-2251 1445 L-2231 1439 L-2214 1431 L-2195 1423 L-2174 1415 L-2155 1407 L-2136 1398 L-2117 1388 L-2097 1378 L-2078 1368 L-2059 1357 L-2040 1347 L-2019 1337 L-1995 1326 L-1980 1316 L-1963 1305 L-1943 1295 L-1924 1284 L-1904 1273 L-1885 1262 L-1865 1251 L-1845 1240 L-1827 1229 L-1808 1220 L-1788 1210 L-1767 1201 L-1749 1192 L-1730 1183 L-1710 1174 L-1692 1165 L-1672 1156 L-1653 1148 L-1633 1140 L-1614 1132 L-1594 1123 L-1576 1115 L-1547 1107 L-1527 1099 L-1499 1089 L-1463 1076 L-1449 1064 L-1436 1052 L-1418 1042 L-1400 1036 L-1380 1029 L-1362 1021 L-1342 1012 L-1323 1003 L-1301 993 L-1283 982 L-1266 972 L-1245 960 L-1225 948 L-1207 935 L-1188 922 L-1168 909 L-1148 896 L-1130 884 L-1111 874 L-1090 867 L-1065 860 L-1050 854 L-1033 848 L-1014 841 L-994 834 L-975 827 L-956 820 L-936 814 L-915 808 L-898 803 L-879 797 L-859 789 L-838 780 L-821 772 L-802 765 L-782 760 L-763 756 L-743 752 L-724 748 L-705 743 L-685 738 L-666 733 L-647 729 L-619 724 L-599 720 L-571 715 L-536 709 L-522 704 L-509 700 L-490 696 L-472 693 L-452 689 L-433 686 L-414 682 L-394 679 L-373 676 L-356 673 L-337 669 L-317 665 L-297 661 L-279 656 L-260 653 L-240 650 L-220 646 L-202 643 L-183 639 L-161 636 L-137 633 L-122 630 L-105 627 L-85 624 L-66 620 L-47 617 L-28 613 L-8 609 L12 605 L30 602 L48 599 L69 595 L89 592 L107 589 L126 586 L146 583 L165 580 L184 577 L203 575 L223 573 L243 571 L262 568 L280 572 L309 576 L329 579 L357 583 L394 579 L409 577 L422 574 L440 572 L456 571 L476 569 L494 567 L514 565 L534 563 L555 561 L572 559 L590 558 L611 556 L631 554 L649 551 L668 549 L688 547 L708 545 L726 543 L745 541 L766 540 L791 538 L805 536 L823 534 L842 532 L862 530 L881 528 L900 526 L920 523 L941 520 L958 517 L977 514 L998 512 L1018 509 L1036 507 L1054 504 L1074 502 L1093 500 L1113 497 L1132 494 L1152 491 L1171 489 L1190 487 L1209 485 L1237 483 L1257 481 L1285 478 L1320 475 L1334 473 L1347 471 L1366 468 L1384 466 L1404 465 L1423 462 L1442 460 L1462 458 L1483 456 L1500 454 L1519 452 L1539 449 L1559 446 L1578 443 L1596 440 L1616 437 L1636 433 L1655 430 L1673 427 L1695 424 L1720 421 L1734 418 L1752 415 L1771 412 L1790 409 L1809 405 L1828 402 L1848 399 L1869 396 L1887 393 L1906 391 L1926 388 L1947 385 L1964 383 L1983 381 L2003 379 L2022 377 L2041 375 L2060 373 L2080 372 L2100 370 L2119 369 L2138 367 L2165 366 L2186 364 L2214 362 L2249 359 L2263 356 L2276 353 L2295 350 L2313 348 L2333 346 L2351 344 L2371 342 L2391 340 L2412 338 L2429 336 L2447 333 L2468 331 L2488 329 L2506 326 L2525 324 L2545 321 L2565 318 L2583 316 L2602 314 L2623 312 L2648 310 L2663 309 L2680 306 L2699 304 L2719 302 L2738 299 L2757 296 L2777 293 L2798 290 L2815 286 L2834 284 L2855 281 L2875 279 L2893 277 L2912 275 L2932 274 L2950 272 L2970 271 L2989 269 L3009 267 L3028 266 L3048 264 L3066 263 L3094 261 L3115 260 L3142 258 L3177 257 L3191 256 L3204 254 L3222 253 L3241 252 L3261 250 L3280 249 L3299 248 L3319 247 L3340 246 L3357 245 L3376 244 L3396 242 L3416 241 L3434 240 L3453 238 L3473 237 L3493 237 L3512 236 L3531 235 L3552 234 L3576 233 L3591 232 L3608 230 L3628 229 L3647 228 L3666 227 L3685 226 L3705 224 L3726 222 L3744 219 L3763 217 L3783 214 L3804 212 L3821 211 L3840 209 L3860 207 L3879 206 L3899 204 L3917 202 L3937 201 L3956 199 L3976 198 L3995 197 L4023 196 L4071 195 L4108 194 L4123 192 L4135 191 L4153 190 L4170 189 L4190 189 L4208 188 L4227 187 L4248 186 L4268 185 L4285 184 L4304 183 L4325 183 L4344 182 L4363 181 L4382 180 L4402 178 L4421 177 L4440 176 L4459 174 L4480 173 L4505 171 L4519 169 L4536 167 L4556 165 L4575 163 L4595 162 L4614 160 L4634 158 L4655 157 L4672 155 L4691 153 L4712 152 L4732 150 L4750 149 L4769 148 L4789 147 L4807 146 L4827 144 L4846 143 L4866 142 L4885 140 L4905 139 L4923 138 L4952 136 L4972 135 L5000 133 L5036 130 L5051 128 L5064 125 L5081 123 L5099 122 L5119 120 L5137 119 L5157 118 L5177 117 L5198 116 L5214 115 L5233 113 L5254 111 L5274 110 L5292 107 L5311 105 L5331 102 L5351 100 L5369 98 L5388 96 L5409 94 L5434 92 L5449 90 L5467 89 L5485 87 L5505 86 L5524 84 L5543 82 L5563 80 L5584 78 L5601 76 L5620 75 L5640 73 L5662 71 L5678 70 L5697 69 L5717 67 L5736 66 L5756 65 L5775 63 L5794 62 L5814 61 L5833 60 L5852 58 L5880 997 L5900 995 L5928 994 L5964 991 L5978 50 L5992 48 L6009 47 L6027 46 L6047 45 L6065 44 L6085 43 L6105 41 L6126 39 L6143 37 L6161 35 L6182 33 L6202 31 L6220 29 L6240 26 L6259 24 L6280 22 L6297 20 L6316 19 L6338 17 L6363 15 L6378 13 L6407 10 L6447 7 L6470 5 L6500 1" />
</svg>
