<svg xmlns="http://www.w3.org/2000/svg" version="1.1" viewBox="0 0 6500 1000">
	<path fill="none" stroke="gold" stroke-width="125" stroke-linecap="round" stroke-linejoin="round" d="M0 3600  L-725316 3600 L-722711 3600 L-721043 3600 L-702714 3600 L-702544 3599 L-695386 3599 L-695353 3599 L-681922 3599 L-679000 3599 L-665659 3599 L-661490 3598 L-660330 3597 L-659711 3596 L-657699 3596 L-653927 3596 L-653327 3595 L-652999 3595 L-652786 3595 L-652244 3594 L-651006 3593 L-649827 3592 L-646963 3590 L-646440 3589 L-641585 3589 L-638648 3588 L-638605 3588 L-638296 3588 L-638044 3587 L-635449 3587 L-631194 3587 L-631176 3587 L-629939 3587 L-628062 3587 L-626108 3587 L-625160 3587 L-624890 3586 L-624580 3586 L-624482 3586 L-623651 3586 L-621620 3586 L-621330 3585 L-619184 3584 L-619028 3583 L-615372 3582 L-615121 3582 L-615022 3582 L-614505 3583 L-612354 3584 L-611425 3584 L-609899 3585 L-608660 3585 L-607113 3585 L-604151 3585 L-603029 3584 L-602720 3584 L-601509 3584 L-598502 3586 L-598483 3586 L-598135 3585 L-597922 3585 L-597796 3583 L-597554 3583 L-597517 3582 L-597497 3582 L-597478 3582 L-597419 3581 L-597360 3581 L-597342 3581 L-596899 3580 L-595660 3580 L-594114 3580 L-590726 3579 L-585000 3579 L-584798 3579 L-583162 3579 L-581440 3579 L-580008 3579 L-579776 3578 L-579061 3578 L-572929 3578 L-572561 3578 L-572406 3577 L-571828 3577 L-571535 3577 L-570568 3577 L-570259 3576 L-569659 3576 L-568053 3576 L-567318 3576 L-567008 3576 L-566240 3576 L-564204 3576 L-563779 3575 L-562966 3575 L-555537 3575 L-555014 3575 L-554841 3574 L-554106 3574 L-552538 3574 L-552133 3573 L-549908 3573 L-548960 3573 L-548535 3573 L-548204 3573 L-547161 3573 L-545052 3572 L-544800 3572 L-544181 3572 L-543369 3572 L-541261 3571 L-541212 3571 L-539284 3571 L-538958 3570 L-538823 3570 L-538320 3570 L-536907 3569 L-536404 3569 L-535883 3568 L-532323 3568 L-531588 3567 L-529163 3567 L-527874 3567 L-527467 3566 L-524314 3566 L-524159 3566 L-524139 3567 L-523773 3567 L-522514 3567 L-521799 3567 L-520909 3567 L-520502 3567 L-519574 3567 L-518465 3567 L-518162 3567 L-511913 3568 L-510966 3568 L-509340 3568 L-508838 3569 L-505162 3569 L-504330 3569 L-500377 3569 L-498965 3569 L-496476 3568 L-495799 3568 L-495761 3568 L-494890 3568 L-491678 3568 L-488815 3567 L-487847 3567 L-486726 3567 L-486707 3567 L-485082 3566 L-484618 3566 L-484526 3566 L-478157 3566 L-477208 3565 L-474751 3565 L-473879 3565 L-472643 3565 L-470641 3565 L-470244 3564 L-468808 3564 L-466781 3564 L-466568 3563 L-465388 3563 L-463880 3563 L-463860 3563 L-461847 3563 L-460978 3562 L-460107 3562 L-459522 3562 L-458985 3562 L-458327 3561 L-457089 3561 L-456528 3561 L-455347 3561 L-454110 3561 L-454071 3560 L-453684 3560 L-453143 3560 L-452369 3560 L-451247 3560 L-449157 3559 L-448824 3559 L-448538 3559 L-447610 3558 L-447127 3558 L-446391 3558 L-442760 3558 L-441632 3558 L-441478 3557 L-440452 3557 L-436737 3557 L-435520 3557 L-433701 3556 L-430915 3556 L-430354 3556 L-426466 3556 L-423989 3556 L-422654 3556 L-422151 3556 L-421668 3555 L-418979 3555 L-415207 3555 L-412750 3555 L-411570 3555 L-410931 3555 L-408571 3555 L-408494 3555 L-407446 3555 L-407353 3554 L-406850 3554 L-406404 3554 L-406347 3554 L-406133 3554 L-403174 3554 L-400466 3554 L-400311 3554 L-396790 3553 L-396267 3553 L-395300 3553 L-394951 3553 L-393907 3552 L-392979 3552 L-392553 3552 L-391044 3552 L-390077 3552 L-390058 3551 L-388162 3540 L-388046 3528 L-387998 3516 L-387974 3504 L-384970 3503 L-382939 3503 L-381178 3503 L-380811 3503 L-380366 3503 L-379999 3502 L-379585 3502 L-377600 3502 L-377387 3502 L-377232 3502 L-375626 3502 L-374505 3502 L-373556 3501 L-372299 3501 L-370655 3501 L-369475 3501 L-362885 3500 L-362839 3500 L-362433 3500 L-361388 3500 L-361253 3500 L-359570 3499 L-359550 3499 L-358213 3499 L-356977 3499 L-356823 3499 L-356449 3498 L-356243 3498 L-355933 3498 L-355159 3498 L-352838 3498 L-352180 3497 L-350052 3497 L-348330 3497 L-348136 3497 L-345583 3497 L-345307 3496 L-345119 3496 L-344286 3496 L-343514 3496 L-342816 3495 L-337815 3495 L-337439 3495 L-333186 3495 L-332699 3511 L-332680 3511 L-332601 3511 L-332526 3511 L-332506 3494 L-331693 3494 L-330939 3494 L-329720 3493 L-328288 3493 L-328192 3493 L-328018 3493 L-327663 3493 L-326354 3493 L-324497 3493 L-322794 3492 L-322291 3492 L-322026 3492 L-321633 3492 L-321499 3492 L-320589 3492 L-320213 3491 L-319284 3491 L-318945 3491 L-318905 3491 L-318868 3491 L-316952 3491 L-316778 3491 L-315250 3491 L-314921 3491 L-314805 3491 L-314398 3490 L-314050 3490 L-312406 3490 L-311856 3490 L-311612 3489 L-311071 3489 L-310240 3489 L-309698 3489 L-308164 3488 L-308071 3488 L-308034 3488 L-307898 3488 L-307511 3488 L-306486 3488 L-304610 3487 L-304514 3487 L-303913 3492 L-303546 3498 L-303062 3504 L-303024 3509 L-302250 3509 L-302192 3509 L-302018 3509 L-301824 3509 L-300219 3508 L-300199 3508 L-300044 3509 L-299928 3509 L-298749 3509 L-298594 3509 L-297927 3509 L-295479 3523 L-292964 3536 L-290294 3549 L-282595 3562 L-276927 3562 L-274713 3562 L-274689 3562 L-273716 3566 L-273696 3566 L-272832 3565 L-270092 3565 L-264293 3562 L-264140 3561 L-261354 3561 L-247746 3561 L-247000 3561 L-242589 3560 L-226243 3560 L-226011 3560 L-225474 3560 L-217014 3560 L-208308 3559 L-208096 3559 L-206124 3559 L-203337 3559 L-198850 3559 L-198695 3559 L-198526 3559 L-198386 3559 L-198095 3559 L-198056 3558 L-197785 3558 L-197614 3558 L-197204 3558 L-196083 3558 L-194903 3558 L-193626 3557 L-190762 3557 L-187842 3557 L-185850 3557 L-184302 3557 L-181264 3556 L-171940 3556 L-171416 3556 L-165692 3556 L-164185 3556 L-163370 3556 L-161687 3556 L-160966 3556 L-160797 3555 L-159752 3555 L-157685 3555 L-156323 3555 L-151880 3555 L-151782 3555 L-151744 3554 L-151725 3554 L-150892 3554 L-150815 3554 L-148242 3554 L-144993 3553 L-144838 3553 L-143890 3553 L-142149 3553 L-141433 3554 L-137892 3555 L-131315 3556 L-129898 3557 L-129877 3557 L-128927 3556 L-125452 3556 L-124699 3556 L-124137 3556 L-123355 3556 L-115851 3556 L-114253 3555 L-112679 3555 L-109493 3555 L-105160 3555 L-96591 3555 L-87844 3555 L-84770 3555 L-81504 3554 L-80958 3554 L-73821 3554 L-68153 3554 L-54089 3554 L-48077 3554 L-43371 3554 L-39368 3554 L-34260 3553 L-24546 3553 L-8976 3553 L-5893 3553 L-5591 3480 L-5571 3390 L-5552 3289 L-5532 3175 L-5513 3123 L-5494 3079 L-5475 3039 L-5447 3000 L-5426 2961 L-5399 2920 L-5363 2875 L-5350 2837 L-5337 2805 L-5318 2778 L-5299 2758 L-5279 2737 L-5261 2716 L-5242 2696 L-5222 2675 L-5201 2654 L-5184 2633 L-5165 2612 L-5145 2592 L-5125 2572 L-5107 2551 L-5088 2529 L-5068 2505 L-5048 2483 L-5029 2462 L-5010 2441 L-4989 2421 L-4964 2401 L-4950 2383 L-4933 2364 L-4913 2345 L-4894 2327 L-4875 2307 L-4856 2287 L-4836 2268 L-4815 2249 L-4797 2232 L-4778 2215 L-4758 2199 L-4737 2185 L-4720 2172 L-4701 2159 L-4681 2147 L-4662 2135 L-4642 2124 L-4624 2114 L-4604 2105 L-4584 2096 L-4565 2087 L-4546 2079 L-4519 2068 L-4498 2057 L-4470 2044 L-4436 2030 L-4422 2019 L-4409 2009 L-4390 2000 L-4371 1992 L-4351 1983 L-4333 1974 L-4313 1965 L-4294 1955 L-4273 1946 L-4256 1938 L-4237 1929 L-4217 1921 L-4197 1911 L-4178 1899 L-4159 1887 L-4139 1874 L-4120 1861 L-4101 1849 L-4082 1836 L-4061 1821 L-4037 1805 L-4022 1789 L-4005 1775 L-3985 1760 L-3966 1745 L-3946 1730 L-3927 1714 L-3907 1698 L-3887 1683 L-3869 1668 L-3850 1654 L-3830 1640 L-3809 1626 L-3791 1613 L-3772 1602 L-3752 1589 L-3734 1579 L-3714 1568 L-3695 1557 L-3675 1547 L-3656 1536 L-3637 1525 L-3618 1515 L-3589 1504 L-3569 1494 L-3541 1484 L-3504 1472 L-3489 1460 L-3477 1449 L-3460 1439 L-3443 1432 L-3423 1425 L-3404 1419 L-3385 1413 L-3365 1407 L-3344 1400 L-3327 1394 L-3308 1386 L-3288 1379 L-3268 1371 L-3250 1363 L-3231 1355 L-3211 1345 L-3191 1336 L-3172 1326 L-3154 1316 L-3132 1307 L-3108 1298 L-3093 1288 L-3076 1279 L-3056 1269 L-3037 1260 L-3017 1250 L-2999 1239 L-2979 1229 L-2958 1219 L-2940 1209 L-2921 1200 L-2901 1192 L-2881 1183 L-2863 1175 L-2844 1167 L-2824 1159 L-2805 1151 L-2785 1143 L-2766 1135 L-2747 1128 L-2727 1120 L-2708 1113 L-2689 1105 L-2661 1098 L-2641 1090 L-2613 1081 L-2577 1069 L-2562 1058 L-2549 1047 L-2532 1038 L-2514 1032 L-2494 1026 L-2475 1019 L-2456 1011 L-2436 1003 L-2415 993 L-2396 984 L-2379 974 L-2359 964 L-2339 952 L-2321 941 L-2302 929 L-2282 916 L-2261 905 L-2244 894 L-2225 885 L-2204 878 L-2179 872 L-2164 867 L-2146 861 L-2127 855 L-2108 848 L-2089 842 L-2070 835 L-2050 830 L-2029 825 L-2012 820 L-1992 814 L-1972 807 L-1951 799 L-1934 792 L-1915 785 L-1895 781 L-1876 777 L-1857 773 L-1838 770 L-1818 766 L-1798 761 L-1779 756 L-1761 752 L-1733 748 L-1712 744 L-1684 740 L-1650 735 L-1636 730 L-1623 726 L-1604 723 L-1585 719 L-1566 716 L-1547 713 L-1527 710 L-1508 707 L-1487 704 L-1470 701 L-1451 698 L-1430 694 L-1410 690 L-1392 686 L-1374 683 L-1354 680 L-1333 677 L-1315 674 L-1296 671 L-1275 668 L-1250 665 L-1236 662 L-1218 659 L-1199 656 L-1180 653 L-1160 650 L-1141 646 L-1121 643 L-1100 640 L-1083 636 L-1064 633 L-1044 630 L-1023 628 L-1006 625 L-987 622 L-967 619 L-948 616 L-928 614 L-909 612 L-889 610 L-870 608 L-851 606 L-832 609 L-803 612 L-783 616 L-756 619 L-718 616 L-703 613 L-690 611 L-673 609 L-657 608 L-637 606 L-618 604 L-599 602 L-579 601 L-558 599 L-541 597 L-522 596 L-502 594 L-482 592 L-464 590 L-445 588 L-425 586 L-405 584 L-387 583 L-368 581 L-346 580 L-322 578 L-307 576 L-290 574 L-270 572 L-251 570 L-232 569 L-213 567 L-193 564 L-172 562 L-154 559 L-135 556 L-115 554 L-94 552 L-77 550 L-58 547 L-38 545 L-19 543 L0 540 L18 538 L38 535 L58 533 L77 532 L96 530 L123 528 L144 526 L172 523 L207 521 L220 518 L234 517 L253 514 L271 513 L291 511 L309 509 L329 507 L348 505 L370 503 L387 501 L405 499 L426 497 L446 494 L464 492 L483 489 L503 485 L523 482 L541 479 L560 477 L581 474 L606 471 L621 468 L638 465 L657 463 L677 460 L696 457 L715 454 L735 451 L756 449 L773 446 L792 443 L813 441 L834 439 L851 437 L869 434 L889 433 L908 431 L928 429 L947 428 L967 426 L986 425 L1005 423 L1024 422 L1052 421 L1072 419 L1100 417 L1136 414 L1150 412 L1163 409 L1181 406 L1199 404 L1219 403 L1238 401 L1257 399 L1277 397 L1298 395 L1315 393 L1334 391 L1354 389 L1374 387 L1393 384 L1411 382 L1431 380 L1452 377 L1470 375 L1488 374 L1510 372 L1535 370 L1549 368 L1567 366 L1586 364 L1605 362 L1625 360 L1644 357 L1663 354 L1685 351 L1702 348 L1721 346 L1741 343 L1762 341 L1779 339 L1798 338 L1818 337 L1837 335 L1857 334 L1875 332 L1895 331 L1915 329 L1934 328 L1953 327 L1980 325 L2001 324 L2029 323 L2063 321 L2077 320 L2090 319 L2109 318 L2128 317 L2148 315 L2166 314 L2186 313 L2205 312 L2226 312 L2243 310 L2262 309 L2282 308 L2302 307 L2321 306 L2340 304 L2360 303 L2380 303 L2398 302 L2417 301 L2438 300 L2463 299 L2477 298 L2495 297 L2514 296 L2533 295 L2553 294 L2572 293 L2592 291 L2612 289 L2630 287 L2649 285 L2669 282 L2690 280 L2708 279 L2727 277 L2747 276 L2765 274 L2785 273 L2804 271 L2824 270 L2843 269 L2863 268 L2881 267 L2910 266 L2958 265 L2995 263 L3009 262 L3022 261 L3039 260 L3056 259 L3076 259 L3095 258 L3114 257 L3134 256 L3155 255 L3172 255 L3191 254 L3211 254 L3231 253 L3249 252 L3268 251 L3288 249 L3308 249 L3327 247 L3345 246 L3367 244 L3391 243 L3406 241 L3423 239 L3443 237 L3462 236 L3482 234 L3500 233 L3520 231 L3541 230 L3559 228 L3578 226 L3598 225 L3618 224 L3636 223 L3655 222 L3675 221 L3694 220 L3714 218 L3732 217 L3752 216 L3772 215 L3791 214 L3810 212 L3838 211 L3858 210 L3886 208 L3923 206 L3938 203 L3950 201 L3968 199 L3985 198 L4005 196 L4024 195 L4043 195 L4063 194 L4084 193 L4101 191 L4119 190 L4140 188 L4161 187 L4178 185 L4198 182 L4217 180 L4238 178 L4255 176 L4274 174 L4296 172 L4321 171 L4336 169 L4353 168 L4372 166 L4392 165 L4410 163 L4429 161 L4449 159 L4471 158 L4487 156 L4507 155 L4527 153 L4548 152 L4565 151 L4584 149 L4604 148 L4623 147 L4642 146 L4661 144 L4681 143 L4701 142 L4720 141 L4739 140 L4767 997 L4787 996 L4815 994 L4851 992 L4865 132 L4878 131 L4896 129 L4914 128 L4933 127 L4952 127 L4971 126 L4991 124 L5013 122 L5029 121 L5048 119 L5069 117 L5089 115 L5107 113 L5126 110 L5146 108 L5167 106 L5184 105 L5203 104 L5224 102 L5249 100 L5264 98 L5294 96 L5334 93 L5357 91 L5386 88 L5402 85 L5416 83 L5435 82 L5456 81 L5477 80 L5493 78 L5512 77 L5532 76 L5551 75 L5571 74 L5590 74 L5610 73 L5630 72 L5648 70 L5667 69 L5695 68 L5715 67 L5743 66 L5778 65 L5792 63 L5824 62 L5842 61 L5862 60 L5881 59 L5900 58 L5920 58 L5941 57 L5958 56 L5976 54 L5997 51 L6018 47 L6035 43 L6054 39 L6074 36 L6094 33 L6112 31 L6131 29 L6153 27 L6178 26 L6193 24 L6210 23 L6229 21 L6249 19 L6267 18 L6287 16 L6306 15 L6328 13 L6345 11 L6364 9 L6384 8 L6405 7 L6422 6 L6441 5 L6461 4 L6480 3 L6500 1" />
</svg>
