<svg xmlns="http://www.w3.org/2000/svg" version="1.1" viewBox="0 0 6500 1000">
	<path fill="none" stroke="gold" stroke-width="125" stroke-linecap="round" stroke-linejoin="round" d="M0 3385  L-727057 3385 L-724453 3385 L-722785 3385 L-704456 3385 L-704286 3384 L-697128 3384 L-697095 3384 L-683664 3384 L-680742 3384 L-667401 3384 L-663232 3383 L-662072 3382 L-661453 3382 L-659441 3381 L-655669 3381 L-655069 3380 L-654740 3380 L-654527 3380 L-653986 3380 L-652748 3378 L-651569 3377 L-648704 3376 L-648182 3375 L-643327 3375 L-640389 3374 L-640346 3374 L-640038 3374 L-639786 3373 L-637191 3373 L-632936 3373 L-632918 3373 L-631681 3373 L-629804 3373 L-627850 3373 L-626902 3372 L-626631 3372 L-626321 3372 L-626223 3372 L-625393 3372 L-623362 3372 L-623072 3371 L-620925 3370 L-620770 3369 L-617114 3368 L-616863 3369 L-616764 3369 L-616247 3369 L-614096 3370 L-613167 3371 L-611641 3371 L-610401 3371 L-608855 3371 L-605893 3371 L-604771 3371 L-604462 3370 L-603251 3370 L-600244 3372 L-600225 3372 L-599877 3371 L-599664 3371 L-599538 3369 L-599296 3369 L-599258 3369 L-599239 3368 L-599219 3368 L-599160 3368 L-599102 3367 L-599084 3367 L-598641 3367 L-597401 3367 L-595856 3366 L-592468 3366 L-586742 3366 L-586540 3366 L-584904 3366 L-583182 3365 L-581750 3365 L-581518 3365 L-580803 3365 L-574670 3365 L-574303 3364 L-574148 3364 L-573570 3364 L-573277 3364 L-572310 3363 L-572000 3363 L-571401 3363 L-569795 3363 L-569060 3363 L-568750 3363 L-567982 3363 L-565946 3363 L-565520 3362 L-564708 3362 L-557279 3362 L-556756 3362 L-556583 3361 L-555848 3361 L-554280 3361 L-553874 3360 L-551649 3360 L-550701 3360 L-550276 3360 L-549946 3360 L-548902 3360 L-546794 3359 L-546542 3359 L-545923 3359 L-545110 3359 L-543003 3358 L-542954 3358 L-541026 3358 L-540700 3358 L-540565 3357 L-540062 3357 L-538649 3357 L-538146 3356 L-537625 3356 L-534065 3355 L-533330 3355 L-530905 3355 L-529616 3354 L-529209 3354 L-526056 3354 L-525901 3354 L-525881 3354 L-525514 3354 L-524256 3354 L-523541 3355 L-522651 3355 L-522244 3355 L-521316 3355 L-520207 3354 L-519904 3355 L-513655 3355 L-512708 3356 L-511082 3356 L-510580 3356 L-506904 3356 L-506072 3356 L-502119 3356 L-500707 3356 L-498218 3356 L-497541 3355 L-497502 3355 L-496631 3355 L-493420 3355 L-490557 3355 L-489589 3355 L-488468 3355 L-488449 3354 L-486824 3354 L-486360 3354 L-486268 3353 L-479898 3353 L-478950 3353 L-476493 3353 L-475621 3353 L-474385 3352 L-472383 3352 L-471986 3352 L-470549 3352 L-468523 3352 L-468310 3351 L-467130 3351 L-465621 3351 L-465601 3351 L-463589 3351 L-462720 3350 L-461849 3350 L-461264 3350 L-460727 3350 L-460069 3349 L-458831 3349 L-458270 3349 L-457089 3349 L-455852 3349 L-455813 3348 L-455426 3348 L-454884 3348 L-454111 3348 L-452988 3348 L-450899 3347 L-450566 3347 L-450280 3347 L-449352 3347 L-448868 3346 L-448133 3346 L-444502 3346 L-443374 3346 L-443219 3346 L-442193 3346 L-438479 3345 L-437261 3345 L-435443 3345 L-432657 3345 L-432096 3344 L-428208 3344 L-425731 3344 L-424396 3344 L-423893 3344 L-423410 3344 L-420721 3344 L-416949 3344 L-414492 3344 L-413312 3344 L-412673 3344 L-410313 3343 L-410236 3343 L-409188 3343 L-409095 3343 L-408592 3343 L-408146 3343 L-408089 3343 L-407875 3343 L-404915 3343 L-402208 3342 L-402053 3342 L-398532 3342 L-398009 3342 L-397042 3342 L-396693 3341 L-395649 3341 L-394721 3341 L-394295 3341 L-392786 3341 L-391819 3340 L-391800 3340 L-389904 3330 L-389788 3318 L-389740 3307 L-389716 3296 L-386712 3296 L-384681 3296 L-382920 3296 L-382553 3296 L-382107 3295 L-381741 3295 L-381327 3295 L-379342 3295 L-379128 3295 L-378974 3295 L-377368 3295 L-376247 3295 L-375298 3294 L-374041 3294 L-372396 3294 L-371217 3294 L-364627 3293 L-364581 3293 L-364175 3293 L-363130 3293 L-362994 3293 L-361312 3293 L-361292 3292 L-359955 3292 L-358719 3292 L-358565 3292 L-358191 3292 L-357985 3291 L-357675 3291 L-356901 3291 L-354580 3291 L-353922 3291 L-351794 3291 L-350072 3290 L-349878 3290 L-347325 3290 L-347049 3290 L-346860 3289 L-346028 3289 L-345255 3289 L-344557 3289 L-339557 3289 L-339181 3289 L-334928 3288 L-334441 3303 L-334422 3303 L-334343 3303 L-334267 3303 L-334248 3288 L-333435 3288 L-332681 3287 L-331462 3287 L-330030 3287 L-329934 3287 L-329759 3287 L-329405 3287 L-328096 3287 L-326238 3286 L-324536 3286 L-324033 3286 L-323768 3286 L-323375 3286 L-323241 3285 L-322331 3285 L-321954 3285 L-321026 3285 L-320687 3285 L-320647 3285 L-320609 3285 L-318694 3285 L-318520 3285 L-316992 3285 L-316663 3285 L-316547 3284 L-316140 3284 L-315792 3284 L-314148 3284 L-313597 3284 L-313354 3283 L-312813 3283 L-311982 3283 L-311440 3283 L-309905 3283 L-309813 3282 L-309776 3282 L-309640 3282 L-309253 3282 L-308228 3282 L-306352 3282 L-306255 3281 L-305655 3286 L-305288 3291 L-304804 3296 L-304765 3301 L-303992 3302 L-303934 3302 L-303760 3301 L-303566 3301 L-301961 3301 L-301941 3301 L-301786 3301 L-301670 3301 L-300491 3301 L-300336 3302 L-299669 3302 L-297221 3314 L-294706 3326 L-292036 3338 L-284337 3350 L-278669 3350 L-276455 3350 L-276431 3350 L-275457 3353 L-275437 3353 L-274574 3353 L-271834 3353 L-266035 3350 L-265882 3349 L-263096 3349 L-249487 3349 L-248741 3349 L-244331 3348 L-227985 3348 L-227752 3348 L-227215 3348 L-218756 3348 L-210050 3348 L-209838 3347 L-207865 3347 L-205079 3347 L-200592 3347 L-200437 3347 L-200268 3347 L-200128 3347 L-199837 3347 L-199798 3347 L-199527 3347 L-199356 3346 L-198946 3346 L-197825 3346 L-196645 3346 L-195368 3346 L-192504 3346 L-189584 3346 L-187592 3345 L-186044 3345 L-183006 3345 L-173682 3345 L-173158 3345 L-167434 3345 L-165927 3344 L-165112 3344 L-163429 3344 L-162708 3344 L-162539 3344 L-161494 3344 L-159427 3344 L-158065 3343 L-153621 3343 L-153524 3343 L-153486 3343 L-153467 3343 L-152634 3343 L-152556 3342 L-149984 3342 L-146735 3342 L-146580 3342 L-145631 3342 L-143890 3342 L-143175 3342 L-139634 3343 L-133057 3344 L-131640 3345 L-131619 3345 L-130668 3345 L-127194 3345 L-126441 3344 L-125879 3344 L-125097 3344 L-117593 3344 L-115995 3344 L-114421 3344 L-111235 3344 L-106902 3343 L-98332 3343 L-89586 3343 L-86512 3343 L-83246 3343 L-82700 3343 L-75562 3343 L-69895 3343 L-55830 3343 L-49819 3343 L-45113 3343 L-41109 3342 L-36002 3342 L-26288 3342 L-10717 3342 L-7635 3341 L-7332 3275 L-7313 3193 L-7294 3099 L-7274 2995 L-7255 2947 L-7235 2907 L-7217 2871 L-7189 2834 L-7168 2799 L-7140 2761 L-7105 2720 L-7091 2685 L-7078 2655 L-7060 2630 L-7041 2612 L-7021 2593 L-7003 2574 L-6984 2556 L-6964 2537 L-6943 2517 L-6926 2498 L-6907 2479 L-6887 2461 L-6867 2442 L-6848 2422 L-6829 2402 L-6810 2381 L-6790 2360 L-6771 2341 L-6752 2322 L-6731 2304 L-6706 2285 L-6692 2268 L-6674 2251 L-6655 2234 L-6635 2217 L-6616 2199 L-6597 2180 L-6577 2163 L-6557 2146 L-6539 2130 L-6520 2115 L-6500 2100 L-6479 2087 L-6462 2075 L-6443 2063 L-6423 2052 L-6404 2041 L-6384 2031 L-6365 2021 L-6346 2013 L-6326 2005 L-6307 1997 L-6288 1990 L-6261 1980 L-6240 1969 L-6212 1958 L-6178 1945 L-6164 1934 L-6151 1925 L-6132 1917 L-6113 1910 L-6093 1902 L-6075 1893 L-6055 1885 L-6035 1876 L-6015 1868 L-5997 1861 L-5979 1853 L-5958 1844 L-5939 1835 L-5920 1825 L-5901 1813 L-5881 1802 L-5861 1790 L-5843 1778 L-5824 1766 L-5803 1753 L-5778 1738 L-5764 1724 L-5746 1710 L-5727 1697 L-5707 1684 L-5688 1669 L-5669 1655 L-5649 1640 L-5629 1627 L-5611 1613 L-5592 1600 L-5571 1587 L-5551 1575 L-5533 1563 L-5514 1552 L-5494 1541 L-5476 1531 L-5456 1521 L-5437 1511 L-5417 1502 L-5398 1492 L-5378 1482 L-5360 1472 L-5331 1462 L-5311 1453 L-5283 1444 L-5246 1433 L-5231 1422 L-5218 1412 L-5201 1403 L-5184 1396 L-5165 1390 L-5146 1384 L-5127 1378 L-5107 1373 L-5086 1367 L-5069 1361 L-5050 1354 L-5030 1348 L-5010 1341 L-4991 1333 L-4973 1325 L-4953 1317 L-4933 1308 L-4914 1299 L-4895 1290 L-4874 1282 L-4850 1273 L-4835 1264 L-4818 1256 L-4798 1247 L-4779 1238 L-4759 1229 L-4740 1219 L-4720 1210 L-4700 1201 L-4682 1192 L-4663 1184 L-4643 1176 L-4623 1168 L-4605 1161 L-4586 1153 L-4566 1146 L-4547 1138 L-4527 1131 L-4508 1124 L-4488 1117 L-4469 1110 L-4450 1103 L-4431 1096 L-4403 1089 L-4383 1082 L-4355 1074 L-4318 1063 L-4304 1053 L-4291 1043 L-4274 1035 L-4256 1030 L-4236 1024 L-4217 1017 L-4197 1010 L-4178 1002 L-4157 994 L-4138 985 L-4121 976 L-4101 967 L-4081 956 L-4062 946 L-4044 935 L-4024 923 L-4003 913 L-3986 903 L-3967 895 L-3945 888 L-3920 883 L-3906 878 L-3888 872 L-3869 867 L-3850 861 L-3831 855 L-3812 849 L-3792 844 L-3771 839 L-3753 835 L-3734 830 L-3714 823 L-3693 816 L-3676 809 L-3657 803 L-3637 799 L-3618 795 L-3599 792 L-3580 789 L-3560 785 L-3540 781 L-3521 777 L-3502 773 L-3475 769 L-3454 765 L-3426 761 L-3391 756 L-3378 752 L-3364 749 L-3346 745 L-3327 743 L-3307 740 L-3289 737 L-3269 734 L-3249 731 L-3228 728 L-3211 726 L-3193 722 L-3172 719 L-3152 716 L-3134 712 L-3115 709 L-3095 706 L-3075 704 L-3057 701 L-3038 698 L-3017 695 L-2992 692 L-2977 690 L-2960 687 L-2941 685 L-2921 682 L-2902 679 L-2883 676 L-2863 672 L-2842 669 L-2825 666 L-2806 664 L-2785 661 L-2765 658 L-2747 656 L-2729 653 L-2708 651 L-2690 648 L-2670 646 L-2651 644 L-2631 642 L-2612 640 L-2593 638 L-2574 642 L-2545 644 L-2525 648 L-2497 650 L-2460 648 L-2445 645 L-2432 643 L-2415 642 L-2398 640 L-2379 639 L-2360 637 L-2341 635 L-2321 634 L-2300 632 L-2283 631 L-2264 629 L-2244 628 L-2224 626 L-2205 624 L-2187 622 L-2167 621 L-2147 619 L-2128 617 L-2110 616 L-2088 614 L-2063 613 L-2049 611 L-2032 609 L-2012 608 L-1993 606 L-1973 604 L-1954 602 L-1935 600 L-1914 598 L-1896 595 L-1877 593 L-1857 591 L-1836 589 L-1819 587 L-1800 585 L-1780 583 L-1761 581 L-1741 578 L-1723 576 L-1703 574 L-1683 572 L-1664 570 L-1645 569 L-1618 567 L-1597 565 L-1569 563 L-1534 560 L-1521 558 L-1507 557 L-1488 555 L-1470 553 L-1450 551 L-1432 550 L-1412 548 L-1392 546 L-1371 544 L-1354 542 L-1336 540 L-1315 538 L-1295 536 L-1277 534 L-1258 531 L-1238 528 L-1218 525 L-1200 522 L-1181 520 L-1160 518 L-1135 515 L-1120 512 L-1103 510 L-1084 507 L-1064 504 L-1045 502 L-1026 499 L-1006 497 L-985 494 L-968 492 L-949 489 L-928 487 L-907 485 L-890 483 L-871 481 L-851 480 L-832 478 L-813 476 L-794 475 L-774 474 L-754 472 L-735 471 L-717 470 L-689 468 L-668 467 L-641 466 L-605 463 L-591 460 L-578 458 L-560 455 L-541 454 L-522 452 L-503 450 L-483 449 L-464 447 L-443 445 L-426 444 L-407 442 L-386 440 L-367 437 L-348 435 L-329 433 L-310 431 L-289 429 L-271 427 L-252 425 L-231 424 L-206 422 L-191 421 L-174 419 L-155 417 L-135 415 L-116 413 L-97 411 L-77 408 L-56 405 L-39 402 L-20 400 L0 397 L20 396 L37 394 L56 393 L76 391 L95 390 L115 389 L133 387 L153 386 L173 385 L192 384 L211 382 L238 381 L259 380 L287 379 L321 377 L335 376 L349 375 L367 374 L386 373 L406 372 L424 371 L444 370 L464 369 L484 368 L502 367 L520 366 L541 365 L561 364 L579 363 L598 362 L618 361 L638 360 L656 360 L675 359 L696 358 L721 357 L735 356 L753 355 L772 354 L792 353 L811 352 L830 351 L850 350 L870 348 L888 346 L907 344 L928 342 L948 340 L966 339 L985 337 L1005 336 L1023 334 L1043 333 L1062 331 L1082 330 L1101 329 L1121 328 L1139 327 L1168 326 L1216 325 L1253 324 L1268 323 L1280 322 L1297 321 L1315 321 L1334 320 L1353 320 L1372 319 L1392 318 L1413 317 L1430 316 L1449 316 L1469 315 L1489 314 L1508 313 L1526 313 L1546 312 L1566 311 L1585 310 L1604 308 L1625 307 L1649 305 L1664 304 L1681 302 L1701 300 L1720 299 L1740 297 L1758 296 L1779 295 L1799 293 L1817 292 L1836 290 L1856 289 L1876 288 L1894 287 L1913 286 L1933 285 L1952 284 L1972 283 L1991 282 L2011 281 L2030 280 L2049 279 L2068 277 L2096 276 L2117 275 L2145 274 L2181 271 L2196 269 L2208 267 L2226 265 L2243 264 L2264 263 L2282 262 L2302 261 L2321 260 L2342 260 L2359 258 L2378 257 L2398 256 L2419 254 L2437 252 L2456 250 L2475 248 L2496 246 L2514 244 L2532 242 L2554 241 L2579 239 L2594 238 L2611 236 L2630 235 L2650 234 L2669 233 L2687 231 L2707 229 L2729 227 L2746 226 L2765 225 L2785 223 L2806 222 L2823 221 L2842 220 L2862 218 L2881 217 L2900 216 L2919 215 L2939 214 L2959 213 L2978 212 L2997 211 L3025 997 L3045 996 L3073 995 L3109 993 L3123 204 L3136 202 L3154 201 L3172 200 L3192 200 L3210 199 L3230 198 L3250 197 L3271 195 L3288 193 L3306 192 L3327 190 L3347 188 L3365 186 L3384 184 L3404 182 L3425 180 L3442 179 L3461 178 L3482 177 L3507 175 L3522 173 L3552 171 L3592 168 L3615 166 L3644 163 L3661 161 L3674 159 L3694 158 L3714 157 L3735 156 L3751 154 L3770 153 L3791 152 L3809 151 L3829 151 L3848 150 L3868 149 L3888 148 L3906 147 L3925 146 L3953 145 L3974 144 L4002 143 L4037 142 L4050 141 L4082 139 L4100 138 L4120 138 L4139 137 L4158 136 L4178 135 L4199 135 L4216 134 L4235 132 L4255 129 L4276 126 L4293 122 L4313 118 L4332 115 L4353 113 L4371 111 L4390 109 L4411 108 L4436 106 L4451 105 L4468 104 L4487 102 L4507 100 L4526 99 L4545 98 L4565 96 L4586 94 L4603 93 L4622 91 L4642 90 L4663 89 L4680 88 L4699 87 L4719 86 L4738 85 L4758 84 L4777 83 L4796 82 L4816 81 L4835 80 L4854 79 L4882 78 L4902 77 L4972 75 L5000 72 L5015 70 L5029 68 L5049 66 L5067 65 L5086 64 L5107 62 L5128 61 L5145 60 L5163 59 L5184 59 L5204 58 L5222 57 L5241 55 L5261 54 L5282 52 L5299 51 L5318 50 L5339 49 L5364 48 L5379 47 L5397 46 L5415 44 L5435 43 L5454 41 L5474 40 L5493 39 L5514 38 L5531 37 L5551 36 L5571 35 L5592 34 L5609 33 L5667 32 L5686 31 L5705 30 L5725 29 L5745 28 L5764 27 L5782 27 L5810 26 L5831 25 L5859 25 L5895 24 L5910 23 L5922 22 L5940 21 L5958 21 L5978 20 L5996 20 L6016 20 L6035 19 L6057 19 L6073 18 L6092 18 L6113 17 L6133 17 L6151 16 L6170 15 L6190 14 L6210 13 L6228 13 L6247 12 L6268 11 L6293 10 L6308 10 L6325 9 L6344 9 L6364 8 L6383 7 L6402 6 L6422 5 L6443 4 L6460 2 L6479 2 L6500 1" />
</svg>
