<svg xmlns="http://www.w3.org/2000/svg" version="1.1" viewBox="0 0 6500 1000">
	<path fill="none" stroke="gold" stroke-width="125" stroke-linecap="round" stroke-linejoin="round" d="M0 1888  L-720796 1888 L-718192 1888 L-716524 1888 L-698195 1888 L-698024 1888 L-690867 1888 L-690833 1888 L-677402 1888 L-674481 1888 L-661140 1887 L-656971 1887 L-655811 1887 L-655192 1886 L-653180 1886 L-649408 1886 L-648808 1885 L-648479 1885 L-648266 1885 L-647724 1885 L-646486 1884 L-645307 1883 L-642443 1883 L-641921 1882 L-637065 1882 L-634128 1882 L-634085 1881 L-633777 1881 L-633525 1881 L-630930 1881 L-626675 1881 L-626657 1881 L-625420 1881 L-623542 1881 L-621589 1881 L-620641 1880 L-620370 1880 L-620060 1880 L-619962 1880 L-619132 1880 L-617101 1880 L-616811 1879 L-614664 1879 L-614509 1878 L-610852 1878 L-610601 1878 L-610503 1878 L-609986 1878 L-607834 1879 L-606906 1879 L-605380 1880 L-604140 1880 L-602594 1880 L-599632 1879 L-598510 1879 L-598201 1879 L-596990 1879 L-593983 1880 L-593963 1880 L-593616 1880 L-593403 1880 L-593277 1878 L-593035 1878 L-592997 1878 L-592977 1878 L-592958 1878 L-592899 1877 L-592841 1877 L-592823 1877 L-592379 1877 L-591140 1877 L-589594 1877 L-586207 1876 L-580480 1876 L-580279 1876 L-578643 1876 L-576921 1876 L-575489 1876 L-575257 1876 L-574541 1876 L-568409 1876 L-568041 1875 L-567887 1875 L-567309 1875 L-567016 1875 L-566049 1875 L-565739 1874 L-565140 1874 L-563534 1874 L-562799 1874 L-562489 1874 L-561721 1874 L-559685 1874 L-559259 1874 L-558447 1874 L-551018 1874 L-550495 1874 L-550321 1873 L-549586 1873 L-548019 1873 L-547613 1873 L-545388 1873 L-544440 1873 L-544015 1873 L-543685 1873 L-542641 1872 L-540533 1872 L-540281 1872 L-539662 1872 L-538849 1872 L-536741 1872 L-536693 1871 L-534765 1871 L-534439 1871 L-534304 1871 L-533801 1871 L-532388 1871 L-531885 1870 L-531363 1870 L-527804 1870 L-527069 1869 L-524644 1869 L-523354 1869 L-522947 1869 L-519795 1869 L-519640 1869 L-519620 1869 L-519253 1869 L-517995 1869 L-517280 1869 L-516390 1869 L-515983 1869 L-515055 1869 L-513946 1869 L-513643 1869 L-507394 1870 L-506447 1870 L-504820 1870 L-504319 1870 L-500643 1870 L-499810 1870 L-495857 1870 L-494446 1870 L-491956 1870 L-491280 1870 L-491241 1870 L-490370 1870 L-487159 1870 L-484296 1869 L-483328 1869 L-482206 1869 L-482188 1869 L-480563 1869 L-480098 1869 L-480006 1868 L-473637 1868 L-472689 1868 L-470232 1868 L-469359 1868 L-468123 1868 L-466122 1868 L-465724 1868 L-464288 1867 L-462262 1867 L-462049 1867 L-460869 1867 L-459360 1867 L-459340 1867 L-457328 1867 L-456458 1867 L-455587 1866 L-455003 1866 L-454465 1866 L-453808 1866 L-452570 1866 L-452009 1866 L-450828 1866 L-449590 1865 L-449552 1865 L-449165 1865 L-448623 1865 L-447849 1865 L-446727 1865 L-444638 1865 L-444305 1865 L-444019 1864 L-443090 1864 L-442607 1864 L-441872 1864 L-438240 1864 L-437113 1864 L-436958 1864 L-435932 1863 L-432217 1863 L-431000 1863 L-429182 1863 L-426396 1863 L-425834 1863 L-421947 1863 L-419470 1863 L-418135 1863 L-417632 1863 L-417149 1862 L-414459 1862 L-410688 1862 L-408230 1862 L-407051 1862 L-406411 1862 L-404052 1862 L-403974 1862 L-402927 1862 L-402833 1862 L-402331 1862 L-401885 1862 L-401827 1862 L-401614 1862 L-398654 1862 L-395947 1862 L-395792 1861 L-392271 1861 L-391748 1861 L-390781 1861 L-390432 1861 L-389388 1861 L-388459 1861 L-388034 1860 L-386525 1860 L-385558 1860 L-385539 1860 L-383643 1853 L-383527 1846 L-383479 1840 L-383455 1833 L-380450 1833 L-378420 1832 L-376659 1832 L-376292 1832 L-375846 1832 L-375479 1832 L-375065 1832 L-373080 1832 L-372867 1832 L-372712 1832 L-371107 1832 L-369985 1831 L-369037 1831 L-367780 1831 L-366135 1831 L-364955 1831 L-358366 1831 L-358319 1831 L-357914 1831 L-356869 1831 L-356733 1830 L-355051 1830 L-355031 1830 L-353694 1830 L-352458 1830 L-352303 1830 L-351930 1830 L-351723 1829 L-351414 1829 L-350640 1829 L-348319 1829 L-347661 1829 L-345533 1829 L-343810 1829 L-343617 1829 L-341064 1829 L-340787 1828 L-340599 1828 L-339767 1828 L-338994 1828 L-338296 1828 L-333296 1828 L-332920 1828 L-328667 1828 L-328180 1837 L-328160 1837 L-328082 1837 L-328006 1837 L-327986 1827 L-327174 1827 L-326420 1827 L-325201 1827 L-323769 1827 L-323673 1827 L-323498 1827 L-323144 1827 L-321834 1826 L-319977 1826 L-318275 1826 L-317772 1826 L-317507 1826 L-317113 1826 L-316979 1826 L-316069 1826 L-315693 1826 L-314765 1826 L-314426 1825 L-314386 1825 L-314348 1825 L-312433 1825 L-312259 1825 L-310730 1825 L-310402 1825 L-310286 1825 L-309879 1825 L-309531 1825 L-307887 1825 L-307336 1825 L-307093 1824 L-306552 1824 L-305720 1824 L-305179 1824 L-303644 1824 L-303552 1824 L-303515 1824 L-303379 1824 L-302992 1824 L-301967 1823 L-300091 1823 L-299994 1823 L-299394 1826 L-299027 1829 L-298542 1833 L-298504 1836 L-297730 1836 L-297673 1836 L-297498 1836 L-297305 1836 L-295699 1835 L-295680 1835 L-295524 1836 L-295409 1836 L-294229 1836 L-294075 1836 L-293408 1836 L-290959 1844 L-288445 1851 L-285775 1859 L-278076 1867 L-272408 1867 L-270193 1866 L-270170 1866 L-269196 1868 L-269176 1868 L-268313 1868 L-265572 1868 L-259774 1866 L-259620 1866 L-256834 1866 L-243226 1866 L-242480 1866 L-238070 1865 L-221723 1865 L-221491 1865 L-220954 1865 L-212495 1865 L-203789 1865 L-203577 1865 L-201604 1865 L-198818 1865 L-194331 1865 L-194176 1865 L-194007 1865 L-193866 1865 L-193576 1864 L-193537 1864 L-193266 1864 L-193094 1864 L-192684 1864 L-191564 1864 L-190383 1864 L-189107 1864 L-186243 1864 L-183323 1863 L-181331 1863 L-179783 1863 L-176745 1863 L-167420 1863 L-166896 1863 L-161173 1863 L-159666 1863 L-158851 1863 L-157167 1863 L-156446 1863 L-156278 1862 L-155233 1862 L-153165 1862 L-151803 1862 L-147360 1862 L-147263 1862 L-147224 1862 L-147205 1862 L-146373 1862 L-146295 1862 L-143723 1861 L-140473 1861 L-140319 1861 L-139370 1861 L-137629 1861 L-136914 1862 L-133373 1862 L-126796 1863 L-125378 1863 L-125358 1863 L-124407 1863 L-120933 1863 L-120180 1863 L-119618 1863 L-118836 1863 L-111332 1863 L-109733 1862 L-108159 1862 L-104974 1862 L-100641 1862 L-92071 1862 L-83325 1862 L-80251 1862 L-76985 1862 L-76438 1862 L-69301 1862 L-63634 1862 L-49569 1862 L-43558 1862 L-38852 1862 L-34848 1861 L-29741 1861 L-20027 1861 L-4456 1861 L-1373 1861 L-1071 1819 L-1052 1767 L-1033 1709 L-1013 1643 L-993 1613 L-974 1588 L-955 1565 L-928 1542 L-907 1520 L-879 1496 L-844 1471 L-830 1449 L-817 1430 L-799 1414 L-780 1403 L-760 1391 L-742 1379 L-722 1367 L-703 1355 L-681 1343 L-665 1331 L-646 1319 L-625 1307 L-605 1296 L-587 1283 L-568 1271 L-549 1257 L-528 1244 L-510 1232 L-491 1220 L-470 1209 L-445 1197 L-430 1187 L-413 1176 L-394 1165 L-374 1154 L-355 1143 L-336 1131 L-316 1120 L-296 1110 L-278 1099 L-259 1090 L-238 1081 L-218 1072 L-201 1065 L-182 1058 L-162 1051 L-143 1044 L-123 1037 L-104 1031 L-84 1026 L-65 1021 L-45 1016 L-27 1011 L0 1005 L20 999 L48 991 L82 983 L96 977 L110 971 L128 966 L147 961 L167 956 L186 951 L205 945 L225 940 L245 935 L263 930 L282 925 L302 920 L322 914 L340 908 L359 901 L379 893 L399 886 L418 879 L436 871 L458 863 L482 853 L497 844 L514 836 L534 828 L553 819 L572 810 L591 801 L611 792 L632 783 L650 775 L669 766 L689 758 L709 750 L727 743 L746 736 L766 729 L785 723 L804 717 L823 711 L843 705 L862 698 L882 692 L901 686 L930 680 L949 674 L977 668 L1014 661 L1029 655 L1042 648 L1059 643 L1076 638 L1096 634 L1114 631 L1133 627 L1153 624 L1174 620 L1191 616 L1210 612 L1231 608 L1250 604 L1269 599 L1288 594 L1308 589 L1327 583 L1346 577 L1365 572 L1386 567 L1410 561 L1425 556 L1442 550 L1462 544 L1481 539 L1501 533 L1520 527 L1540 521 L1560 516 L1578 510 L1597 505 L1617 500 L1638 495 L1656 491 L1675 486 L1694 481 L1713 476 L1733 472 L1752 467 L1772 463 L1791 459 L1810 454 L1829 450 L1857 446 L1878 441 L1906 436 L1942 429 L1956 423 L1969 417 L1987 411 L2005 408 L2024 405 L2043 400 L2063 396 L2082 391 L2104 386 L2122 380 L2139 375 L2160 368 L2180 362 L2198 355 L2217 348 L2237 341 L2257 335 L2275 328 L2294 323 L2315 319 L2340 316 L2354 313 L2372 309 L2391 306 L2411 302 L2430 298 L2449 295 L2469 291 L2490 288 L2507 286 L2526 282 L2546 278 L2567 274 L2584 269 L2603 266 L2623 263 L2642 261 L2662 259 L2680 257 L2700 254 L2720 252 L2739 249 L2758 247 L2785 244 L2806 242 L2834 240 L2869 236 L2883 234 L2896 232 L2915 229 L2933 228 L2953 226 L2971 224 L2991 222 L3011 221 L3032 219 L3049 217 L3067 215 L3088 213 L3108 211 L3126 209 L3145 207 L3165 205 L3185 203 L3203 201 L3222 200 L3243 198 L3268 196 L3283 194 L3300 193 L3320 191 L3339 190 L3358 188 L3377 186 L3397 183 L3418 182 L3435 180 L3454 178 L3475 176 L3495 175 L3513 173 L3532 171 L3552 170 L3570 168 L3590 167 L3609 166 L3629 164 L3648 163 L3668 162 L3686 164 L3715 166 L3735 168 L3763 170 L3800 168 L3815 167 L3828 165 L3846 164 L3862 163 L3882 162 L3900 161 L3920 160 L3939 159 L3961 158 L3977 157 L3996 156 L4017 155 L4037 154 L4055 153 L4074 152 L4093 151 L4114 150 L4132 149 L4151 148 L4172 147 L4197 146 L4211 145 L4229 144 L4248 143 L4267 142 L4287 141 L4306 140 L4326 138 L4346 137 L4364 135 L4383 134 L4403 132 L4424 131 L4441 130 L4460 128 L4480 127 L4499 126 L4519 125 L4538 123 L4558 122 L4577 120 L4596 119 L4615 118 L4643 117 L4663 116 L4691 115 L4726 113 L4740 112 L4753 111 L4772 110 L4790 108 L4810 107 L4829 106 L4848 105 L4868 104 L4889 103 L4906 102 L4925 101 L4945 99 L4965 98 L4983 96 L5002 95 L5022 93 L5042 91 L5060 89 L5079 88 L5101 86 L5126 85 L5140 83 L5157 81 L5177 80 L5196 78 L5215 76 L5234 75 L5254 73 L5275 72 L5293 70 L5312 69 L5332 67 L5353 66 L5370 65 L5389 63 L5409 62 L5428 61 L5447 60 L5466 59 L5486 59 L5506 58 L5525 57 L5544 56 L5571 55 L5592 54 L5620 54 L5655 52 L5669 50 L5682 49 L5701 47 L5719 46 L5739 45 L5757 44 L5777 43 L5796 42 L5818 41 L5834 40 L5853 38 L5874 37 L5894 36 L5912 35 L5931 33 L5951 32 L5971 31 L5989 29 L6008 28 L6029 27 L6054 26 L6069 25 L6086 24 L6105 23 L6125 22 L6144 20 L6163 19 L6183 17 L6204 15 L6221 14 L6240 12 L6261 11 L6281 10 L6298 9 L6317 8 L6338 7 L6356 6 L6376 5 L6395 4 L6415 4 L6434 3 L6454 2 L6472 1 L6500 0" />
</svg>
