<svg xmlns="http://www.w3.org/2000/svg" version="1.1" viewBox="0 0 6500 1000">
	<path fill="none" stroke="gold" stroke-width="125" stroke-linecap="round" stroke-linejoin="round" d="M0 11478  L-730674 11478 L-728070 11477 L-726402 11477 L-708072 11476 L-707902 11475 L-700744 11474 L-700711 11474 L-687280 11474 L-684358 11474 L-671018 11473 L-666849 11471 L-665689 11468 L-665069 11466 L-663058 11464 L-659286 11463 L-658686 11462 L-658357 11461 L-658144 11461 L-657602 11460 L-656364 11456 L-655185 11452 L-652321 11448 L-651799 11444 L-646943 11443 L-644006 11442 L-643963 11441 L-643655 11440 L-643403 11439 L-640808 11438 L-636552 11438 L-636534 11438 L-635298 11438 L-633420 11438 L-631467 11437 L-630519 11436 L-630248 11435 L-629938 11435 L-629840 11434 L-629010 11434 L-626979 11435 L-626688 11431 L-624542 11429 L-624387 11426 L-620730 11423 L-620479 11424 L-620381 11424 L-619863 11425 L-617712 11428 L-616783 11430 L-615257 11433 L-614018 11433 L-612471 11432 L-609510 11431 L-608388 11430 L-608079 11429 L-606867 11429 L-603861 11434 L-603841 11433 L-603494 11433 L-603281 11433 L-603154 11426 L-602913 11425 L-602875 11424 L-602855 11423 L-602836 11422 L-602777 11421 L-602718 11420 L-602700 11419 L-602257 11418 L-601018 11417 L-599472 11416 L-596084 11415 L-590358 11415 L-590157 11414 L-588521 11414 L-586799 11413 L-585367 11413 L-585134 11412 L-584419 11412 L-578287 11411 L-577919 11410 L-577765 11409 L-577186 11408 L-576894 11407 L-575926 11406 L-575617 11406 L-575018 11405 L-573412 11405 L-572677 11405 L-572367 11405 L-571598 11405 L-569562 11404 L-569137 11403 L-568324 11403 L-560896 11402 L-560373 11401 L-560199 11400 L-559464 11399 L-557897 11398 L-557491 11397 L-555266 11396 L-554318 11396 L-553893 11395 L-553563 11395 L-552519 11395 L-550411 11394 L-550159 11393 L-549540 11392 L-548727 11392 L-546619 11391 L-546571 11390 L-544642 11389 L-544317 11388 L-544182 11387 L-543679 11386 L-542266 11385 L-541763 11383 L-541241 11382 L-537681 11380 L-536946 11378 L-534522 11378 L-533232 11377 L-532825 11377 L-529673 11377 L-529518 11377 L-529498 11377 L-529131 11377 L-527873 11378 L-527158 11378 L-526268 11378 L-525861 11378 L-524932 11378 L-523824 11378 L-523520 11379 L-517272 11380 L-516324 11381 L-514698 11382 L-514196 11383 L-510521 11383 L-509688 11384 L-505735 11384 L-504323 11383 L-501834 11382 L-501158 11381 L-501119 11380 L-500248 11380 L-497037 11380 L-494174 11379 L-493206 11379 L-492084 11378 L-492065 11377 L-490440 11376 L-489976 11375 L-489884 11374 L-483515 11374 L-482567 11373 L-480109 11373 L-479237 11372 L-478001 11371 L-476000 11371 L-475602 11370 L-474166 11369 L-472140 11368 L-471927 11367 L-470746 11367 L-469238 11366 L-469218 11366 L-467206 11365 L-466336 11365 L-465465 11364 L-464880 11363 L-464343 11362 L-463686 11361 L-462447 11360 L-461887 11360 L-460706 11359 L-459468 11359 L-459430 11358 L-459043 11358 L-458501 11357 L-457727 11356 L-456605 11356 L-454516 11355 L-454182 11354 L-453897 11353 L-452968 11352 L-452485 11351 L-451750 11351 L-448118 11351 L-446991 11350 L-446836 11350 L-445810 11349 L-442095 11348 L-440878 11347 L-439059 11346 L-436274 11346 L-435712 11345 L-431824 11345 L-429348 11344 L-428013 11344 L-427509 11344 L-427026 11343 L-424337 11343 L-420565 11343 L-418108 11343 L-416928 11343 L-416289 11343 L-413930 11342 L-413852 11341 L-412805 11341 L-412711 11340 L-412208 11340 L-411763 11340 L-411705 11340 L-411492 11340 L-408532 11339 L-405824 11338 L-405670 11338 L-402149 11337 L-401626 11337 L-400659 11336 L-400309 11335 L-399266 11334 L-398337 11333 L-397912 11333 L-396403 11333 L-395436 11332 L-395417 11332 L-393521 11296 L-393405 11260 L-393357 11225 L-393332 11189 L-390328 11188 L-388298 11187 L-386537 11187 L-386170 11186 L-385724 11186 L-385357 11185 L-384943 11184 L-382958 11184 L-382745 11184 L-382590 11183 L-380985 11183 L-379863 11183 L-378915 11182 L-377658 11181 L-376013 11181 L-374833 11180 L-368244 11179 L-368197 11179 L-367792 11178 L-366746 11178 L-366611 11177 L-364928 11176 L-364909 11176 L-363572 11175 L-362336 11174 L-362181 11174 L-361807 11173 L-361601 11172 L-361292 11172 L-360518 11171 L-358196 11171 L-357539 11170 L-355411 11170 L-353688 11169 L-353495 11168 L-350941 11168 L-350665 11167 L-350477 11166 L-349644 11165 L-348872 11165 L-348174 11164 L-343173 11164 L-342797 11163 L-338545 11163 L-338058 11211 L-338038 11211 L-337959 11210 L-337884 11210 L-337864 11160 L-337051 11160 L-336298 11159 L-335078 11158 L-333647 11158 L-333550 11158 L-333376 11158 L-333021 11157 L-331712 11157 L-329855 11156 L-328153 11155 L-327650 11155 L-327384 11154 L-326991 11154 L-326857 11153 L-325947 11153 L-325571 11152 L-324642 11152 L-324303 11152 L-324264 11152 L-324226 11151 L-322310 11151 L-322137 11151 L-320608 11151 L-320280 11150 L-320164 11150 L-319757 11149 L-319409 11148 L-317765 11147 L-317214 11147 L-316971 11146 L-316429 11146 L-315598 11145 L-315056 11144 L-313522 11144 L-313430 11143 L-313393 11143 L-313257 11142 L-312870 11142 L-311845 11141 L-309968 11141 L-309872 11140 L-309272 11156 L-308905 11172 L-308420 11189 L-308382 11205 L-307608 11206 L-307551 11206 L-307376 11205 L-307183 11204 L-305577 11203 L-305557 11203 L-305402 11204 L-305287 11204 L-304107 11205 L-303952 11206 L-303285 11206 L-300837 11246 L-298322 11286 L-295653 11325 L-287953 11365 L-282286 11365 L-280071 11364 L-280048 11364 L-279074 11374 L-279054 11374 L-278190 11373 L-275450 11372 L-269652 11362 L-269498 11361 L-266712 11361 L-253104 11360 L-252358 11359 L-247947 11358 L-231601 11358 L-231369 11357 L-230832 11356 L-222372 11356 L-213667 11355 L-213455 11355 L-211482 11354 L-208696 11354 L-204208 11355 L-204053 11354 L-203884 11354 L-203744 11354 L-203453 11353 L-203415 11352 L-203144 11352 L-202972 11351 L-202562 11351 L-201442 11351 L-200261 11350 L-198984 11350 L-196121 11349 L-193200 11349 L-191208 11348 L-189661 11347 L-186623 11347 L-177298 11346 L-176774 11346 L-171050 11346 L-169543 11345 L-168729 11345 L-167045 11344 L-166324 11344 L-166156 11343 L-165111 11343 L-163043 11342 L-161681 11342 L-157238 11341 L-157141 11341 L-157102 11340 L-157083 11340 L-156251 11339 L-156173 11338 L-153600 11338 L-150351 11337 L-150196 11337 L-149248 11337 L-147507 11336 L-146792 11338 L-143251 11341 L-136673 11344 L-135256 11348 L-135235 11347 L-134285 11347 L-130811 11346 L-130057 11345 L-129496 11345 L-128714 11344 L-121209 11344 L-119611 11343 L-118037 11343 L-114852 11342 L-110519 11342 L-101949 11341 L-93203 11341 L-90129 11341 L-86863 11340 L-86316 11339 L-79179 11339 L-73511 11339 L-59447 11339 L-53436 11339 L-48729 11339 L-44726 11338 L-39619 11337 L-29905 11337 L-14334 11336 L-11251 11335 L-10949 11118 L-10929 10851 L-10911 10547 L-10891 10208 L-10871 10053 L-10852 9922 L-10833 9802 L-10806 9684 L-10785 9569 L-10757 9447 L-10722 9313 L-10708 9200 L-10695 9102 L-10676 9021 L-10658 8961 L-10638 8900 L-10620 8838 L-10600 8777 L-10580 8715 L-10559 8651 L-10542 8588 L-10524 8527 L-10503 8468 L-10483 8408 L-10465 8343 L-10446 8277 L-10426 8208 L-10406 8142 L-10388 8077 L-10369 8016 L-10348 7957 L-10323 7897 L-10308 7842 L-10291 7787 L-10272 7730 L-10252 7676 L-10233 7616 L-10214 7555 L-10194 7498 L-10173 7443 L-10156 7390 L-10137 7341 L-10116 7294 L-10096 7250 L-10078 7212 L-10059 7174 L-10039 7138 L-10021 7103 L-10001 7069 L-9982 7038 L-9962 7012 L-9943 6986 L-9923 6960 L-9905 6934 L-9877 6902 L-9856 6868 L-9829 6831 L-9795 6789 L-9780 6755 L-9767 6725 L-9749 6698 L-9730 6674 L-9710 6649 L-9691 6621 L-9672 6593 L-9652 6564 L-9631 6538 L-9614 6514 L-9595 6488 L-9575 6462 L-9555 6432 L-9536 6397 L-9518 6361 L-9498 6324 L-9478 6285 L-9459 6247 L-9440 6208 L-9419 6164 L-9395 6117 L-9380 6070 L-9363 6025 L-9343 5982 L-9324 5938 L-9304 5892 L-9286 5844 L-9266 5798 L-9245 5752 L-9227 5709 L-9208 5665 L-9188 5625 L-9168 5583 L-9150 5544 L-9131 5509 L-9111 5473 L-9092 5442 L-9072 5409 L-9054 5377 L-9034 5346 L-9014 5313 L-8995 5281 L-8976 5250 L-8947 5217 L-8928 5188 L-8900 5158 L-8863 5121 L-8847 5087 L-8835 5054 L-8818 5024 L-8801 5002 L-8781 4982 L-8763 4963 L-8743 4945 L-8723 4927 L-8703 4909 L-8685 4888 L-8667 4867 L-8646 4844 L-8626 4822 L-8608 4797 L-8589 4772 L-8569 4744 L-8550 4715 L-8531 4686 L-8512 4658 L-8491 4631 L-8466 4601 L-8452 4574 L-8435 4545 L-8415 4516 L-8396 4488 L-8376 4458 L-8357 4427 L-8337 4397 L-8317 4367 L-8298 4338 L-8280 4311 L-8259 4285 L-8239 4260 L-8221 4236 L-8202 4212 L-8182 4188 L-8164 4164 L-8144 4139 L-8125 4116 L-8105 4094 L-8086 4071 L-8066 4049 L-8047 4027 L-8019 4004 L-7999 3981 L-7971 3955 L-7935 3919 L-7921 3886 L-7908 3854 L-7890 3827 L-7872 3810 L-7852 3791 L-7834 3769 L-7814 3745 L-7794 3720 L-7773 3693 L-7755 3665 L-7738 3636 L-7717 3604 L-7697 3571 L-7679 3536 L-7660 3500 L-7640 3463 L-7620 3429 L-7602 3397 L-7583 3370 L-7562 3349 L-7537 3331 L-7522 3314 L-7505 3297 L-7486 3279 L-7466 3259 L-7447 3240 L-7428 3221 L-7408 3204 L-7387 3190 L-7370 3176 L-7351 3159 L-7330 3137 L-7310 3113 L-7293 3090 L-7274 3072 L-7253 3057 L-7235 3046 L-7215 3036 L-7196 3025 L-7176 3012 L-7157 2999 L-7138 2985 L-7119 2973 L-7091 2961 L-7071 2949 L-7043 2936 L-7008 2920 L-6994 2906 L-6981 2895 L-6962 2884 L-6944 2875 L-6924 2865 L-6905 2855 L-6886 2846 L-6866 2838 L-6845 2829 L-6828 2819 L-6809 2809 L-6789 2798 L-6769 2787 L-6751 2776 L-6732 2765 L-6712 2757 L-6692 2748 L-6673 2738 L-6655 2729 L-6633 2720 L-6608 2711 L-6594 2703 L-6577 2695 L-6557 2686 L-6538 2677 L-6519 2668 L-6500 2657 L-6480 2646 L-6459 2636 L-6441 2626 L-6422 2618 L-6402 2609 L-6381 2600 L-6364 2592 L-6345 2583 L-6325 2575 L-6306 2567 L-6286 2559 L-6268 2553 L-6248 2547 L-6228 2541 L-6209 2535 L-6190 2546 L-6162 2555 L-6142 2565 L-6114 2574 L-6077 2565 L-6061 2558 L-6049 2552 L-6031 2546 L-6015 2542 L-5995 2537 L-5977 2531 L-5957 2525 L-5937 2520 L-5916 2516 L-5899 2511 L-5881 2506 L-5860 2501 L-5840 2495 L-5822 2489 L-5803 2483 L-5783 2477 L-5763 2472 L-5745 2466 L-5726 2461 L-5705 2457 L-5680 2453 L-5666 2447 L-5648 2441 L-5629 2435 L-5609 2430 L-5590 2425 L-5571 2419 L-5551 2412 L-5530 2404 L-5513 2395 L-5494 2388 L-5473 2381 L-5453 2375 L-5435 2368 L-5416 2361 L-5397 2354 L-5378 2348 L-5358 2340 L-5339 2333 L-5319 2325 L-5300 2319 L-5280 2314 L-5262 2309 L-5234 2303 L-5213 2296 L-5186 2289 L-5151 2282 L-5137 2275 L-5124 2269 L-5105 2263 L-5086 2257 L-5066 2252 L-5048 2246 L-5029 2241 L-5009 2234 L-4988 2228 L-4971 2223 L-4952 2217 L-4932 2210 L-4912 2203 L-4893 2195 L-4875 2186 L-4855 2176 L-4834 2167 L-4816 2158 L-4798 2151 L-4776 2143 L-4751 2133 L-4737 2125 L-4719 2116 L-4700 2108 L-4680 2100 L-4661 2091 L-4642 2082 L-4622 2074 L-4602 2066 L-4584 2058 L-4565 2050 L-4545 2043 L-4524 2036 L-4507 2030 L-4488 2024 L-4468 2019 L-4449 2014 L-4429 2008 L-4411 2004 L-4391 1999 L-4371 1995 L-4352 1991 L-4333 1987 L-4306 1982 L-4285 1978 L-4257 1973 L-4222 1964 L-4208 1955 L-4195 1947 L-4176 1939 L-4158 1934 L-4138 1929 L-4120 1923 L-4100 1918 L-4080 1913 L-4059 1907 L-4042 1901 L-4024 1895 L-4003 1888 L-3983 1882 L-3965 1874 L-3946 1868 L-3926 1860 L-3906 1854 L-3888 1847 L-3869 1842 L-3848 1837 L-3823 1831 L-3808 1827 L-3791 1821 L-3772 1815 L-3752 1809 L-3733 1801 L-3714 1794 L-3694 1785 L-3673 1775 L-3656 1766 L-3637 1759 L-3616 1751 L-3595 1745 L-3578 1740 L-3559 1735 L-3539 1732 L-3520 1728 L-3501 1723 L-3482 1718 L-3462 1714 L-3443 1710 L-3423 1706 L-3405 1702 L-3377 1698 L-3356 1694 L-3329 1690 L-3294 1686 L-3280 1682 L-3267 1678 L-3248 1675 L-3230 1672 L-3210 1668 L-3191 1665 L-3172 1662 L-3152 1660 L-3131 1657 L-3114 1653 L-3095 1650 L-3075 1646 L-3055 1642 L-3037 1639 L-3018 1636 L-2998 1633 L-2978 1630 L-2959 1628 L-2940 1626 L-2919 1623 L-2895 1620 L-2880 1617 L-2863 1613 L-2843 1609 L-2824 1607 L-2804 1603 L-2786 1600 L-2766 1596 L-2745 1590 L-2727 1583 L-2708 1577 L-2688 1569 L-2667 1564 L-2650 1559 L-2631 1555 L-2611 1550 L-2592 1546 L-2572 1541 L-2554 1536 L-2534 1533 L-2514 1529 L-2495 1526 L-2476 1523 L-2447 1520 L-2400 1517 L-2363 1513 L-2348 1509 L-2335 1506 L-2318 1503 L-2301 1501 L-2281 1500 L-2263 1498 L-2243 1495 L-2223 1492 L-2203 1489 L-2185 1487 L-2167 1485 L-2146 1484 L-2127 1481 L-2108 1478 L-2089 1475 L-2069 1471 L-2049 1469 L-2031 1465 L-2012 1461 L-1991 1457 L-1966 1451 L-1952 1445 L-1934 1440 L-1915 1435 L-1896 1430 L-1876 1426 L-1857 1422 L-1837 1417 L-1816 1412 L-1798 1407 L-1780 1402 L-1759 1399 L-1739 1395 L-1721 1392 L-1702 1388 L-1682 1385 L-1663 1382 L-1644 1379 L-1625 1375 L-1605 1372 L-1586 1368 L-1566 1364 L-1547 1360 L-1519 1357 L-1499 1353 L-1471 1348 L-1434 1341 L-1420 1333 L-1407 1326 L-1390 1320 L-1372 1317 L-1352 1313 L-1334 1310 L-1314 1307 L-1294 1305 L-1273 1302 L-1256 1298 L-1238 1294 L-1217 1289 L-1197 1284 L-1179 1278 L-1160 1271 L-1140 1264 L-1120 1257 L-1102 1251 L-1083 1246 L-1062 1241 L-1037 1236 L-1022 1231 L-1004 1227 L-986 1223 L-966 1219 L-947 1214 L-928 1208 L-908 1203 L-887 1197 L-870 1193 L-851 1189 L-830 1184 L-809 1180 L-793 1176 L-774 1172 L-754 1168 L-735 1165 L-715 1161 L-696 1157 L-676 1154 L-656 1150 L-638 1148 L-619 1144 L-591 3703 L-571 3700 L-543 3695 L-507 3689 L-493 1121 L-479 1116 L-462 1112 L-444 1110 L-424 1107 L-405 1105 L-386 1102 L-366 1098 L-345 1092 L-328 1087 L-309 1082 L-289 1076 L-268 1070 L-251 1063 L-231 1056 L-212 1049 L-191 1044 L-174 1040 L-155 1036 L-133 1032 L-108 1026 L-93 1020 L-64 1013 L-24 1005 L-1 998 L28 989 L44 981 L58 975 L77 971 L97 967 L118 964 L135 960 L154 956 L174 953 L193 950 L213 948 L231 946 L251 944 L271 940 L290 937 L309 934 L336 931 L357 927 L385 924 L420 920 L434 915 L465 911 L484 908 L504 906 L522 903 L542 901 L562 898 L583 896 L600 893 L618 887 L639 878 L659 866 L677 853 L696 842 L716 833 L736 825 L754 818 L773 812 L795 809 L819 804 L834 799 L852 795 L870 789 L890 784 L909 780 L929 775 L948 770 L969 765 L986 759 L1005 754 L1026 751 L1047 747 L1063 744 L1083 741 L1103 738 L1122 735 L1141 730 L1160 727 L1180 723 L1200 720 L1218 717 L1237 714 L1265 711 L1286 708 L1356 701 L1384 693 L1398 685 L1412 677 L1432 673 L1451 669 L1470 665 L1490 660 L1511 656 L1528 653 L1547 650 L1567 648 L1587 645 L1606 642 L1625 637 L1644 632 L1665 628 L1683 623 L1702 619 L1723 616 L1748 613 L1763 609 L1780 606 L1799 601 L1819 596 L1838 591 L1857 587 L1877 583 L1898 580 L1915 577 L1934 574 L1954 571 L1976 567 L1992 564 L2050 560 L2070 557 L2088 554 L2108 551 L2128 548 L2147 546 L2166 544 L2194 541 L2214 539 L2242 537 L2279 535 L2293 532 L2306 529 L2323 527 L2341 526 L2361 524 L2379 522 L2399 521 L2419 520 L2440 519 L2457 517 L2475 516 L2496 514 L2516 512 L2534 509 L2553 507 L2573 504 L2594 501 L2611 498 L2630 496 L2652 494 L2677 491 L2691 490 L2708 487 L2728 485 L2748 482 L2766 480 L2785 477 L2805 472 L2826 469 L2843 465 L2863 463 L2883 461 L2904 460 L2921 458 L2940 456 L2960 454 L2979 452 L2998 452 L3017 450 L3037 449 L3057 448 L3076 446 L3094 445 L3122 443 L3143 441 L3171 439 L3206 437 L3219 435 L3233 433 L3251 432 L3269 430 L3289 428 L3308 426 L3347 425 L3368 423 L3385 422 L3404 420 L3424 417 L3444 414 L3463 411 L3481 408 L3501 406 L3521 404 L3540 401 L3559 399 L3580 397 L3604 396 L3619 394 L3636 393 L3656 391 L3675 388 L3695 386 L3713 383 L3733 382 L3754 380 L3772 377 L3791 375 L3811 373 L3832 371 L3849 369 L3868 367 L3888 365 L3907 364 L3927 363 L3945 361 L3965 359 L3985 357 L4004 356 L4023 355 L4052 353 L4099 351 L4137 349 L4152 347 L4165 345 L4182 344 L4198 342 L4218 342 L4236 340 L4256 339 L4276 338 L4296 337 L4314 337 L4333 336 L4353 336 L4372 335 L4391 334 L4410 332 L4430 331 L4449 330 L4468 328 L4487 327 L4508 325 L4533 323 L4547 320 L4565 317 L4584 315 L4603 311 L4623 307 L4642 302 L4662 298 L4682 293 L4701 290 L4719 286 L4740 283 L4760 279 L4778 275 L4797 272 L4817 268 L4835 264 L4855 261 L4874 259 L4894 256 L4913 252 L4933 247 L4952 243 L4980 239 L5000 236 L5028 233 L5065 230 L5080 228 L5092 225 L5110 222 L5127 220 L5147 218 L5165 216 L5185 214 L5205 211 L5226 208 L5243 205 L5261 203 L5282 199 L5303 196 L5320 193 L5340 190 L5359 188 L5380 185 L5397 182 L5416 179 L5437 176 L5462 172 L5477 168 L5495 164 L5513 161 L5534 157 L5552 154 L5572 150 L5591 146 L5613 142 L5629 137 L5649 133 L5669 129 L5690 126 L5707 123 L5725 122 L5745 120 L5764 118 L5784 115 L5803 112 L5823 109 L5842 106 L5861 104 L5880 101 L5928 97 L5956 94 L5989 90 L6004 87 L6016 83 L6035 80 L6055 78 L6075 75 L6094 72 L6113 69 L6133 67 L6154 64 L6171 62 L6190 60 L6210 57 L6230 54 L6248 52 L6267 48 L6287 45 L6307 42 L6326 39 L6344 35 L6366 32 L6390 29 L6405 26 L6422 22 L6442 18 L6461 13 L6480 9 L6500 5" />
</svg>
