<svg xmlns="http://www.w3.org/2000/svg" version="1.1" viewBox="0 0 6500 1000">
	<path fill="none" stroke="gold" stroke-width="125" stroke-linecap="round" stroke-linejoin="round" d="M0 1015  L-719023 1015 L-716419 1015 L-714751 1015 L-696421 1015 L-696251 1015 L-689093 1015 L-689060 1015 L-675629 1015 L-672707 1015 L-659366 1015 L-655197 1014 L-654037 1014 L-653418 1014 L-651406 1014 L-647635 1014 L-647034 1014 L-646706 1013 L-646493 1013 L-645951 1013 L-644713 1013 L-643534 1012 L-640670 1012 L-640147 1012 L-635292 1011 L-632355 1011 L-632312 1011 L-632003 1011 L-631751 1011 L-629157 1011 L-624901 1011 L-624883 1011 L-623646 1011 L-621769 1011 L-619815 1011 L-618867 1011 L-618597 1011 L-618287 1011 L-618189 1010 L-617358 1010 L-615328 1011 L-615037 1010 L-612891 1010 L-612735 1009 L-609079 1009 L-608828 1009 L-608729 1009 L-608212 1009 L-606061 1010 L-605132 1010 L-603606 1010 L-602367 1010 L-600820 1010 L-597858 1010 L-596737 1010 L-596427 1010 L-595216 1010 L-592209 1010 L-592190 1010 L-591842 1010 L-591629 1010 L-591503 1009 L-591262 1009 L-591224 1009 L-591204 1009 L-591185 1009 L-591126 1009 L-591067 1009 L-591049 1009 L-590606 1009 L-589367 1009 L-587821 1008 L-584433 1008 L-578707 1008 L-578505 1008 L-576870 1008 L-575148 1008 L-573715 1008 L-573483 1008 L-572768 1008 L-566636 1008 L-566268 1008 L-566114 1008 L-565535 1008 L-565243 1007 L-564275 1007 L-563966 1007 L-563367 1007 L-561760 1007 L-561025 1007 L-560715 1007 L-559947 1007 L-557911 1007 L-557486 1007 L-556673 1007 L-549245 1007 L-548722 1007 L-548548 1007 L-547813 1007 L-546245 1006 L-545840 1006 L-543615 1006 L-542667 1006 L-542242 1006 L-541911 1006 L-540868 1006 L-538760 1006 L-538507 1006 L-537888 1006 L-537076 1006 L-534968 1006 L-534919 1006 L-532991 1005 L-532665 1005 L-532530 1005 L-532027 1005 L-530615 1005 L-530112 1005 L-529590 1005 L-526030 1004 L-525295 1004 L-522870 1004 L-521581 1004 L-521174 1004 L-518021 1004 L-517867 1004 L-517846 1004 L-517480 1004 L-516222 1004 L-515507 1004 L-514617 1004 L-514210 1004 L-513281 1004 L-512172 1004 L-511869 1004 L-505620 1004 L-504673 1005 L-503047 1005 L-502545 1005 L-498869 1005 L-498037 1005 L-494084 1005 L-492672 1005 L-490183 1005 L-489506 1005 L-489468 1004 L-488597 1004 L-485386 1004 L-482523 1004 L-481555 1004 L-480433 1004 L-480414 1004 L-478789 1004 L-478325 1004 L-478233 1004 L-471864 1004 L-470915 1004 L-468458 1004 L-467586 1004 L-466350 1003 L-464349 1003 L-463951 1003 L-462515 1003 L-460489 1003 L-460275 1003 L-459095 1003 L-457587 1003 L-457567 1003 L-455554 1003 L-454685 1003 L-453814 1003 L-453229 1003 L-452692 1002 L-452034 1002 L-450796 1002 L-450236 1002 L-449054 1002 L-447817 1002 L-447778 1002 L-447391 1002 L-446850 1002 L-446076 1002 L-444954 1002 L-442865 1002 L-442531 1002 L-442245 1001 L-441317 1001 L-440834 1001 L-440098 1001 L-436467 1001 L-435339 1001 L-435185 1001 L-434159 1001 L-430444 1001 L-429227 1001 L-427408 1001 L-424622 1001 L-424061 1001 L-420173 1001 L-417697 1000 L-416362 1000 L-415858 1000 L-415375 1000 L-412686 1000 L-408914 1000 L-406457 1000 L-405277 1000 L-404638 1000 L-402278 1000 L-402201 1000 L-401154 1000 L-401060 1000 L-400557 1000 L-400112 1000 L-400054 1000 L-399840 1000 L-396881 1000 L-394173 1000 L-394018 1000 L-390498 1000 L-389975 1000 L-389007 1000 L-388658 999 L-387615 999 L-386686 999 L-386260 999 L-384751 999 L-383784 999 L-383765 999 L-381869 995 L-381753 991 L-381706 987 L-381681 983 L-378677 983 L-376646 983 L-374885 983 L-374518 983 L-374073 983 L-373706 983 L-373292 983 L-371307 983 L-371094 983 L-370939 983 L-369334 983 L-368212 983 L-367264 983 L-366006 982 L-364362 982 L-363182 982 L-356593 982 L-356546 982 L-356140 982 L-355095 982 L-354960 982 L-353277 982 L-353257 982 L-351920 982 L-350684 982 L-350530 982 L-350156 982 L-349950 982 L-349640 981 L-348867 981 L-346545 981 L-345887 981 L-343759 981 L-342037 981 L-341844 981 L-339290 981 L-339014 981 L-338826 981 L-337993 981 L-337221 981 L-336523 981 L-331522 981 L-331146 981 L-326893 980 L-326406 986 L-326387 986 L-326308 986 L-326233 986 L-326213 980 L-325400 980 L-324646 980 L-323427 980 L-321995 980 L-321899 980 L-321725 980 L-321370 980 L-320061 980 L-318204 980 L-316501 980 L-315999 980 L-315733 980 L-315340 979 L-315206 979 L-314296 979 L-313920 979 L-312991 979 L-312652 979 L-312612 979 L-312575 979 L-310659 979 L-310486 979 L-308957 979 L-308629 979 L-308513 979 L-308105 979 L-307757 979 L-306114 979 L-305563 979 L-305320 979 L-304778 979 L-303947 978 L-303405 978 L-301871 978 L-301778 978 L-301741 978 L-301606 978 L-301218 978 L-300194 978 L-298317 978 L-298221 978 L-297621 980 L-297253 981 L-296769 983 L-296731 985 L-295957 985 L-295899 985 L-295725 985 L-295531 985 L-293926 985 L-293906 985 L-293751 985 L-293636 985 L-292456 985 L-292301 985 L-291634 985 L-289186 990 L-286671 994 L-284001 998 L-276302 1003 L-270634 1003 L-268420 1003 L-268397 1003 L-267423 1004 L-267403 1004 L-266539 1004 L-263799 1004 L-258000 1002 L-257847 1002 L-255061 1002 L-241453 1002 L-240707 1002 L-236296 1002 L-219950 1002 L-219718 1002 L-219181 1002 L-210721 1002 L-202016 1002 L-201803 1002 L-199831 1002 L-197045 1002 L-192557 1002 L-192402 1002 L-192233 1002 L-192093 1002 L-191802 1001 L-191763 1001 L-191493 1001 L-191321 1001 L-190911 1001 L-189790 1001 L-188610 1001 L-187333 1001 L-184469 1001 L-181549 1001 L-179557 1001 L-178009 1001 L-174971 1001 L-165647 1001 L-165123 1001 L-159399 1001 L-157892 1001 L-157078 1001 L-155394 1000 L-154673 1000 L-154504 1000 L-153459 1000 L-151392 1000 L-150030 1000 L-145587 1000 L-145489 1000 L-145451 1000 L-145432 1000 L-144599 1000 L-144522 1000 L-141949 1000 L-138700 1000 L-138545 1000 L-137597 1000 L-135856 1000 L-135140 1000 L-131600 1000 L-125022 1000 L-123605 1001 L-123584 1001 L-122634 1001 L-119159 1001 L-118406 1001 L-117844 1001 L-117062 1000 L-109558 1000 L-107960 1000 L-106386 1000 L-103200 1000 L-98867 1000 L-90298 1000 L-81551 1000 L-78478 1000 L-75211 1000 L-74665 1000 L-67528 1000 L-61860 1000 L-47796 1000 L-41784 1000 L-37078 1000 L-33075 1000 L-27967 1000 L-18253 1000 L-2683 1000 L399 999 L701 976 L721 946 L740 912 L759 875 L779 858 L798 843 L817 830 L845 817 L865 804 L893 791 L929 776 L942 764 L955 753 L974 744 L992 737 L1012 731 L1031 724 L1050 717 L1070 710 L1091 703 L1108 696 L1126 689 L1147 683 L1167 676 L1185 669 L1204 662 L1224 654 L1244 647 L1263 640 L1281 633 L1303 627 L1327 620 L1342 614 L1359 608 L1379 602 L1398 595 L1417 589 L1436 582 L1456 576 L1477 570 L1495 564 L1514 559 L1534 553 L1555 549 L1572 544 L1591 540 L1611 536 L1630 532 L1649 529 L1668 525 L1688 522 L1708 519 L1727 516 L1746 514 L1773 510 L1794 506 L1822 502 L1856 498 L1870 494 L1883 491 L1902 488 L1921 485 L1941 482 L1959 479 L1978 476 L1998 473 L2019 470 L2036 467 L2055 464 L2075 461 L2095 458 L2114 454 L2132 450 L2152 446 L2172 442 L2191 438 L2210 433 L2231 429 L2255 423 L2270 418 L2287 413 L2307 409 L2326 404 L2346 399 L2365 393 L2385 388 L2405 383 L2423 378 L2442 374 L2462 369 L2483 364 L2500 360 L2519 356 L2539 352 L2558 349 L2578 345 L2597 342 L2617 338 L2636 335 L2655 331 L2674 328 L2703 324 L2723 321 L2750 318 L2788 314 L2803 310 L2815 306 L2832 303 L2849 300 L2869 298 L2888 296 L2907 294 L2927 292 L2948 290 L2965 288 L2984 285 L3004 283 L3024 280 L3042 278 L3061 275 L3081 272 L3101 269 L3120 265 L3138 262 L3159 259 L3184 256 L3198 253 L3216 250 L3236 247 L3255 244 L3274 240 L3293 237 L3313 234 L3334 230 L3352 227 L3371 224 L3391 221 L3411 218 L3429 216 L3448 213 L3468 210 L3487 208 L3506 205 L3525 203 L3545 200 L3564 198 L3584 195 L3603 193 L3631 190 L3651 188 L3679 185 L3715 181 L3729 177 L3742 174 L3760 171 L3778 169 L3798 167 L3816 164 L3836 162 L3856 159 L3877 156 L3895 153 L3912 150 L3933 146 L3953 142 L3971 139 L3990 134 L4010 130 L4030 127 L4048 123 L4067 120 L4088 118 L4113 116 L4128 114 L4145 112 L4164 110 L4184 108 L4203 106 L4222 104 L4242 102 L4263 100 L4280 99 L4299 97 L4320 94 L4341 92 L4358 89 L4377 87 L4397 86 L4415 84 L4435 83 L4454 82 L4474 81 L4493 79 L4513 78 L4531 76 L4559 75 L4580 74 L4607 72 L4642 70 L4656 69 L4669 68 L4688 67 L4707 66 L4726 64 L4745 63 L4764 62 L4784 61 L4805 60 L4822 59 L4841 58 L4862 57 L4882 56 L4900 55 L4918 53 L4938 52 L4959 51 L4977 50 L4996 49 L5017 48 L5042 47 L5056 47 L5073 46 L5093 45 L5112 44 L5132 43 L5151 41 L5170 40 L5191 39 L5209 38 L5228 37 L5248 36 L5269 35 L5286 34 L5305 33 L5325 32 L5344 32 L5364 31 L5382 30 L5403 29 L5422 29 L5441 28 L5460 29 L5489 30 L5508 31 L5536 32 L5574 31 L5589 31 L5602 30 L5619 29 L5635 29 L5655 28 L5673 28 L5693 27 L5713 26 L5734 26 L5751 25 L5769 25 L5790 24 L5810 24 L5828 23 L5847 22 L5867 22 L5887 21 L5905 20 L5924 20 L5945 19 L5970 19 L5985 18 L6002 18 L6022 17 L6041 16 L6060 16 L6079 15 L6099 14 L6120 13 L6137 13 L6156 12 L6177 11 L6197 10 L6215 10 L6234 9 L6254 8 L6273 7 L6292 7 L6311 6 L6331 5 L6351 4 L6370 4 L6388 3 L6416 2 L6437 2 L6465 1 L6500 0" />
</svg>
