<svg xmlns="http://www.w3.org/2000/svg" version="1.1" viewBox="0 0 6500 1000">
	<path fill="none" stroke="gold" stroke-width="125" stroke-linecap="round" stroke-linejoin="round" d="M0 3429  L-726593 3429 L-723989 3429 L-722321 3429 L-703992 3429 L-703821 3428 L-696664 3428 L-696630 3428 L-683200 3428 L-680278 3428 L-666937 3428 L-662768 3427 L-661608 3426 L-660989 3425 L-658977 3425 L-655205 3425 L-654605 3424 L-654276 3424 L-654063 3424 L-653522 3423 L-652284 3422 L-651105 3421 L-648240 3420 L-647718 3419 L-642862 3418 L-639925 3418 L-639882 3418 L-639574 3417 L-639322 3417 L-636727 3417 L-632472 3417 L-632454 3417 L-631217 3417 L-629339 3417 L-627386 3417 L-626438 3416 L-626167 3416 L-625857 3416 L-625759 3416 L-624929 3416 L-622898 3416 L-622608 3414 L-620461 3414 L-620306 3413 L-616649 3412 L-616398 3412 L-616300 3412 L-615783 3413 L-613632 3413 L-612703 3414 L-611177 3415 L-609937 3415 L-608391 3415 L-605429 3415 L-604307 3414 L-603998 3414 L-602787 3414 L-599780 3415 L-599760 3415 L-599413 3415 L-599200 3415 L-599074 3413 L-598832 3413 L-598794 3412 L-598774 3412 L-598755 3412 L-598696 3411 L-598638 3411 L-598620 3411 L-598177 3410 L-596937 3410 L-595391 3410 L-592004 3410 L-586277 3409 L-586076 3409 L-584440 3409 L-582718 3409 L-581286 3409 L-581054 3409 L-580338 3409 L-574206 3408 L-573838 3408 L-573684 3408 L-573106 3407 L-572813 3407 L-571846 3407 L-571536 3407 L-570937 3406 L-569331 3406 L-568596 3406 L-568286 3406 L-567518 3406 L-565482 3406 L-565056 3406 L-564244 3406 L-556815 3405 L-556292 3405 L-556119 3405 L-555384 3404 L-553816 3404 L-553410 3404 L-551185 3404 L-550237 3404 L-549812 3403 L-549482 3403 L-548438 3403 L-546330 3403 L-546078 3403 L-545459 3402 L-544646 3402 L-542538 3402 L-542490 3402 L-540562 3401 L-540236 3401 L-540101 3401 L-539598 3401 L-538185 3400 L-537682 3400 L-537160 3399 L-533601 3399 L-532866 3398 L-530441 3398 L-529151 3398 L-528745 3397 L-525592 3397 L-525437 3397 L-525417 3398 L-525050 3398 L-523792 3398 L-523077 3398 L-522187 3398 L-521780 3398 L-520852 3398 L-519743 3398 L-519440 3398 L-513191 3399 L-512244 3399 L-510617 3399 L-510116 3399 L-506440 3400 L-505608 3400 L-501655 3400 L-500243 3399 L-497753 3399 L-497077 3399 L-497038 3399 L-496167 3399 L-492956 3399 L-490093 3398 L-489125 3398 L-488004 3398 L-487985 3398 L-486360 3397 L-485895 3397 L-485804 3397 L-479434 3397 L-478486 3396 L-476029 3396 L-475156 3396 L-473920 3396 L-471919 3396 L-471522 3395 L-470085 3395 L-468059 3395 L-467846 3395 L-466666 3394 L-465157 3394 L-465137 3394 L-463125 3394 L-462255 3394 L-461385 3394 L-460800 3393 L-460263 3393 L-459605 3393 L-458367 3392 L-457806 3392 L-456625 3392 L-455387 3392 L-455349 3392 L-454962 3392 L-454420 3391 L-453647 3391 L-452524 3391 L-450435 3391 L-450102 3390 L-449816 3390 L-448887 3390 L-448404 3390 L-447669 3389 L-444038 3389 L-442910 3389 L-442755 3389 L-441729 3389 L-438015 3389 L-436797 3388 L-434979 3388 L-432193 3388 L-431631 3388 L-427744 3388 L-425267 3387 L-423932 3387 L-423429 3387 L-422946 3387 L-420256 3387 L-416485 3387 L-414028 3387 L-412848 3387 L-412209 3387 L-409849 3387 L-409771 3386 L-408724 3386 L-408630 3386 L-408128 3386 L-407682 3386 L-407625 3386 L-407411 3386 L-404451 3386 L-401744 3386 L-401589 3385 L-398068 3385 L-397545 3385 L-396578 3385 L-396229 3385 L-395185 3384 L-394257 3384 L-393831 3384 L-392322 3384 L-391355 3384 L-391336 3383 L-389440 3372 L-389324 3361 L-389276 3350 L-389252 3339 L-386248 3339 L-384217 3338 L-382456 3338 L-382089 3338 L-381643 3338 L-381276 3338 L-380863 3337 L-378878 3337 L-378664 3337 L-378509 3337 L-376904 3337 L-375782 3337 L-374834 3337 L-373577 3336 L-371932 3336 L-370753 3336 L-364163 3336 L-364117 3336 L-363711 3335 L-362666 3335 L-362530 3335 L-360848 3335 L-360828 3335 L-359491 3334 L-358255 3334 L-358101 3334 L-357727 3334 L-357520 3334 L-357211 3333 L-356437 3333 L-354116 3333 L-353458 3333 L-351330 3333 L-349608 3333 L-349414 3332 L-346861 3332 L-346584 3332 L-346396 3332 L-345564 3331 L-344791 3331 L-344093 3331 L-339093 3331 L-338717 3331 L-334464 3331 L-333977 3346 L-333958 3346 L-333879 3345 L-333803 3345 L-333783 3330 L-332971 3330 L-332217 3329 L-330998 3329 L-329566 3329 L-329470 3329 L-329295 3329 L-328941 3329 L-327631 3329 L-325774 3329 L-324072 3328 L-323569 3328 L-323304 3328 L-322911 3328 L-322776 3328 L-321867 3327 L-321490 3327 L-320562 3327 L-320223 3327 L-320183 3327 L-320145 3327 L-318230 3327 L-318056 3327 L-316527 3327 L-316199 3327 L-316083 3327 L-315676 3326 L-315328 3326 L-313684 3326 L-313133 3326 L-312890 3325 L-312349 3325 L-311517 3325 L-310976 3325 L-309441 3325 L-309349 3324 L-309312 3324 L-309176 3324 L-308789 3324 L-307764 3324 L-305888 3324 L-305791 3324 L-305191 3328 L-304824 3333 L-304339 3339 L-304301 3344 L-303527 3344 L-303470 3344 L-303295 3344 L-303102 3344 L-301497 3343 L-301477 3343 L-301321 3343 L-301206 3344 L-300026 3344 L-299872 3344 L-299205 3344 L-296757 3357 L-294242 3369 L-291572 3381 L-283873 3394 L-278205 3394 L-275990 3394 L-275967 3394 L-274993 3397 L-274973 3397 L-274110 3396 L-271369 3396 L-265571 3393 L-265417 3393 L-262632 3393 L-249023 3392 L-248277 3392 L-243867 3392 L-227520 3392 L-227288 3391 L-226751 3391 L-218292 3391 L-209586 3391 L-209374 3391 L-207401 3391 L-204615 3391 L-200128 3391 L-199973 3391 L-199804 3391 L-199663 3390 L-199373 3390 L-199334 3390 L-199063 3390 L-198891 3390 L-198481 3389 L-197361 3389 L-196181 3389 L-194904 3389 L-192040 3389 L-189120 3389 L-187128 3389 L-185580 3388 L-182542 3388 L-173218 3388 L-172694 3388 L-166970 3388 L-165463 3388 L-164648 3388 L-162965 3387 L-162244 3387 L-162075 3387 L-161030 3387 L-158963 3387 L-157601 3387 L-153157 3386 L-153060 3386 L-153021 3386 L-153003 3386 L-152170 3386 L-152092 3386 L-149520 3385 L-146271 3385 L-146116 3385 L-145167 3385 L-143426 3385 L-142711 3386 L-139170 3386 L-132593 3387 L-131176 3388 L-131155 3388 L-130204 3388 L-126730 3388 L-125977 3388 L-125415 3388 L-124633 3387 L-117129 3387 L-115530 3387 L-113956 3387 L-110771 3387 L-106438 3387 L-97868 3386 L-89122 3386 L-86048 3386 L-82782 3386 L-82236 3386 L-75098 3386 L-69431 3386 L-55366 3386 L-49355 3386 L-44649 3386 L-40645 3385 L-35538 3385 L-25824 3385 L-10253 3385 L-7171 3385 L-6868 3317 L-6849 3233 L-6830 3138 L-6810 3032 L-6791 2983 L-6771 2942 L-6753 2905 L-6725 2868 L-6704 2832 L-6676 2794 L-6641 2752 L-6627 2716 L-6614 2686 L-6596 2660 L-6577 2642 L-6557 2623 L-6539 2603 L-6519 2584 L-6500 2565 L-6478 2545 L-6462 2525 L-6443 2506 L-6422 2488 L-6402 2469 L-6384 2449 L-6365 2428 L-6346 2406 L-6325 2385 L-6307 2365 L-6288 2346 L-6267 2328 L-6242 2309 L-6228 2292 L-6210 2274 L-6191 2257 L-6171 2240 L-6152 2221 L-6133 2202 L-6113 2184 L-6093 2167 L-6075 2150 L-6056 2135 L-6035 2120 L-6015 2107 L-5998 2095 L-5979 2083 L-5959 2071 L-5940 2061 L-5920 2050 L-5901 2040 L-5881 2032 L-5862 2024 L-5843 2016 L-5824 2008 L-5797 1998 L-5776 1987 L-5748 1975 L-5714 1962 L-5700 1952 L-5687 1942 L-5668 1934 L-5649 1927 L-5629 1919 L-5611 1910 L-5591 1901 L-5571 1892 L-5551 1884 L-5533 1876 L-5514 1868 L-5494 1860 L-5474 1851 L-5456 1840 L-5437 1828 L-5417 1817 L-5397 1805 L-5379 1793 L-5360 1781 L-5339 1767 L-5314 1752 L-5299 1737 L-5282 1723 L-5263 1710 L-5243 1696 L-5224 1682 L-5205 1667 L-5185 1652 L-5165 1638 L-5146 1624 L-5128 1611 L-5107 1598 L-5087 1585 L-5069 1573 L-5050 1562 L-5030 1551 L-5011 1541 L-4992 1531 L-4973 1521 L-4953 1511 L-4934 1501 L-4914 1491 L-4895 1481 L-4867 1471 L-4847 1462 L-4819 1452 L-4782 1441 L-4767 1430 L-4754 1420 L-4737 1410 L-4720 1403 L-4700 1397 L-4682 1391 L-4663 1385 L-4643 1380 L-4622 1374 L-4605 1368 L-4586 1361 L-4565 1354 L-4546 1347 L-4527 1339 L-4509 1331 L-4489 1323 L-4469 1314 L-4450 1304 L-4431 1296 L-4410 1287 L-4386 1278 L-4371 1269 L-4354 1260 L-4334 1251 L-4315 1243 L-4295 1233 L-4276 1223 L-4256 1214 L-4236 1205 L-4218 1196 L-4199 1187 L-4179 1179 L-4158 1171 L-4141 1164 L-4122 1156 L-4102 1149 L-4083 1141 L-4063 1133 L-4044 1126 L-4024 1119 L-4005 1112 L-3986 1105 L-3967 1098 L-3939 1091 L-3918 1084 L-3891 1076 L-3854 1065 L-3840 1054 L-3827 1044 L-3810 1036 L-3791 1030 L-3772 1025 L-3753 1017 L-3733 1010 L-3714 1002 L-3692 994 L-3674 985 L-3657 976 L-3637 966 L-3616 956 L-3598 945 L-3579 933 L-3560 922 L-3539 911 L-3521 901 L-3502 893 L-3481 886 L-3456 881 L-3442 875 L-3424 870 L-3405 864 L-3385 858 L-3366 852 L-3347 846 L-3328 841 L-3307 836 L-3289 832 L-3270 827 L-3250 820 L-3229 812 L-3212 805 L-3193 799 L-3173 795 L-3154 791 L-3135 788 L-3116 785 L-3096 781 L-3076 777 L-3057 772 L-3038 769 L-3011 765 L-2990 761 L-2962 757 L-2927 752 L-2914 748 L-2900 744 L-2882 741 L-2863 738 L-2843 735 L-2825 732 L-2805 729 L-2785 726 L-2764 723 L-2747 721 L-2729 717 L-2708 714 L-2688 710 L-2670 707 L-2651 704 L-2631 701 L-2611 698 L-2593 695 L-2574 692 L-2553 689 L-2528 687 L-2513 684 L-2496 682 L-2477 679 L-2457 676 L-2438 673 L-2419 670 L-2399 666 L-2378 663 L-2361 660 L-2342 657 L-2321 655 L-2301 652 L-2283 649 L-2264 647 L-2244 644 L-2226 642 L-2206 639 L-2187 637 L-2167 635 L-2148 633 L-2129 632 L-2110 635 L-2081 638 L-2061 641 L-2033 644 L-1996 641 L-1981 639 L-1968 637 L-1951 635 L-1934 634 L-1914 632 L-1896 630 L-1876 628 L-1857 627 L-1835 625 L-1819 624 L-1800 622 L-1780 621 L-1759 619 L-1741 617 L-1723 615 L-1703 614 L-1683 612 L-1664 610 L-1645 609 L-1624 607 L-1599 606 L-1585 604 L-1568 602 L-1548 600 L-1529 599 L-1509 597 L-1490 595 L-1470 593 L-1450 590 L-1432 588 L-1413 586 L-1393 583 L-1372 581 L-1355 579 L-1336 577 L-1316 575 L-1297 573 L-1277 571 L-1258 568 L-1239 566 L-1219 564 L-1200 563 L-1181 561 L-1153 559 L-1133 557 L-1105 555 L-1070 552 L-1056 550 L-1043 548 L-1024 546 L-1006 545 L-986 543 L-968 541 L-948 539 L-928 537 L-907 536 L-890 534 L-872 532 L-851 530 L-831 528 L-813 525 L-794 522 L-774 519 L-754 516 L-736 514 L-717 511 L-696 509 L-671 506 L-656 503 L-639 500 L-620 498 L-600 495 L-581 493 L-562 490 L-542 487 L-521 485 L-504 482 L-484 480 L-464 478 L-443 475 L-426 474 L-407 472 L-387 470 L-368 469 L-349 467 L-330 465 L-310 464 L-290 463 L-271 461 L-252 460 L-225 459 L-204 457 L-176 456 L-141 453 L-127 450 L-114 448 L-95 445 L-77 443 L-57 442 L-39 440 L-19 439 L0 437 L20 435 L37 433 L56 431 L77 429 L97 427 L115 425 L134 423 L153 421 L174 418 L192 416 L211 415 L232 413 L257 411 L272 410 L289 408 L308 406 L328 404 L347 402 L366 400 L386 397 L407 394 L424 391 L443 389 L464 386 L484 384 L501 383 L520 381 L540 380 L559 379 L579 378 L598 376 L618 375 L637 373 L656 372 L675 371 L702 370 L723 369 L751 367 L785 366 L800 365 L813 364 L831 363 L850 361 L870 360 L888 359 L908 358 L928 358 L948 357 L966 356 L985 355 L1005 353 L1025 352 L1043 351 L1062 350 L1082 349 L1102 349 L1120 348 L1139 347 L1160 346 L1185 345 L1200 344 L1217 343 L1236 342 L1256 341 L1275 340 L1294 339 L1314 338 L1335 336 L1353 334 L1371 332 L1392 329 L1412 328 L1430 326 L1449 325 L1469 323 L1488 322 L1507 321 L1526 319 L1546 318 L1565 317 L1585 316 L1604 315 L1632 314 L1680 313 L1717 312 L1732 311 L1744 310 L1761 309 L1779 308 L1798 308 L1817 307 L1836 306 L1856 305 L1877 304 L1894 304 L1913 303 L1933 303 L1953 302 L1972 301 L1990 300 L2011 299 L2030 298 L2049 297 L2068 296 L2089 294 L2113 292 L2128 291 L2145 289 L2165 288 L2184 286 L2204 285 L2223 283 L2243 282 L2263 280 L2281 279 L2300 277 L2320 276 L2341 275 L2358 274 L2377 273 L2397 272 L2416 271 L2436 270 L2455 269 L2475 268 L2494 266 L2514 265 L2532 264 L2561 263 L2581 262 L2609 260 L2645 258 L2660 256 L2673 253 L2690 252 L2708 250 L2728 249 L2746 248 L2766 248 L2785 247 L2807 246 L2823 245 L2842 243 L2862 242 L2883 240 L2901 238 L2920 236 L2939 234 L2960 232 L2978 230 L2997 228 L3018 227 L3043 225 L3058 224 L3076 222 L3094 221 L3114 220 L3133 218 L3152 216 L3172 215 L3193 213 L3210 212 L3229 210 L3249 209 L3270 208 L3287 206 L3306 205 L3326 204 L3345 203 L3364 202 L3383 201 L3403 200 L3423 198 L3442 198 L3461 196 L3489 997 L3509 996 L3537 994 L3573 993 L3587 189 L3600 188 L3618 186 L3636 186 L3656 185 L3674 184 L3694 183 L3714 182 L3735 180 L3752 179 L3770 177 L3791 175 L3811 173 L3829 171 L3848 169 L3868 167 L3889 165 L3906 164 L3925 163 L3947 161 L3971 160 L3987 158 L4016 155 L4056 153 L4079 151 L4108 148 L4125 146 L4138 144 L4158 142 L4178 141 L4199 140 L4216 139 L4235 138 L4255 137 L4274 136 L4293 135 L4312 134 L4332 134 L4352 133 L4371 132 L4389 131 L4417 130 L4438 129 L4466 128 L4501 126 L4514 125 L4546 124 L4565 123 L4585 122 L4603 121 L4623 120 L4642 120 L4663 119 L4680 118 L4699 116 L4720 113 L4740 109 L4758 106 L4777 102 L4797 99 L4817 97 L4835 94 L4854 93 L4875 91 L4900 90 L4915 89 L4932 87 L4951 85 L4971 84 L4990 83 L5009 81 L5029 79 L5050 78 L5067 76 L5086 74 L5106 73 L5127 72 L5144 71 L5163 70 L5183 69 L5202 68 L5222 67 L5241 66 L5260 65 L5280 64 L5299 63 L5318 62 L5346 61 L5366 60 L5436 58 L5464 55 L5479 53 L5493 50 L5513 49 L5531 48 L5551 46 L5571 45 L5592 44 L5609 43 L5627 42 L5648 41 L5668 40 L5686 39 L5705 38 L5725 36 L5746 35 L5763 33 L5782 32 L5804 31 L5829 30 L5844 29 L5861 28 L5880 26 L5900 25 L5918 24 L5938 22 L5957 21 L5979 20 L5995 19 L6015 18 L6035 17 L6056 16 L6073 15 L6131 14 L6150 13 L6169 12 L6189 11 L6209 10 L6228 9 L6246 9 L6274 8 L6295 7 L6323 7 L6359 6 L6374 5 L6386 4 L6404 3 L6422 3 L6442 2 L6460 2 L6480 2 L6500 1" />
</svg>
