<svg xmlns="http://www.w3.org/2000/svg" version="1.1" viewBox="0 0 6500 1000">
	<path fill="none" stroke="gold" stroke-width="125" stroke-linecap="round" stroke-linejoin="round" d="M0 1018  L-716419 1018 L-713815 1018 L-712147 1018 L-693817 1018 L-693647 1018 L-686489 1018 L-686456 1018 L-673025 1018 L-670103 1018 L-656762 1017 L-652593 1017 L-651433 1017 L-650814 1017 L-648802 1016 L-645030 1016 L-644430 1016 L-644102 1016 L-643889 1016 L-643347 1016 L-642109 1015 L-640930 1015 L-638066 1014 L-637543 1014 L-632688 1014 L-629751 1013 L-629708 1013 L-629399 1013 L-629147 1013 L-626553 1013 L-622297 1013 L-622279 1013 L-621042 1013 L-619165 1013 L-617211 1013 L-616263 1013 L-615993 1013 L-615683 1012 L-615585 1012 L-614754 1012 L-612723 1012 L-612433 1012 L-610287 1012 L-610131 1011 L-606475 1011 L-606224 1011 L-606125 1011 L-605608 1011 L-603457 1012 L-602528 1012 L-601002 1012 L-599763 1012 L-598216 1012 L-595254 1012 L-594132 1012 L-593823 1012 L-592612 1012 L-589605 1012 L-589586 1012 L-589238 1012 L-589025 1012 L-588899 1011 L-588657 1011 L-588620 1011 L-588600 1011 L-588581 1011 L-588522 1011 L-588463 1011 L-588445 1010 L-588002 1010 L-586763 1010 L-585217 1010 L-581829 1010 L-576103 1010 L-575901 1010 L-574265 1010 L-572544 1010 L-571111 1010 L-570879 1010 L-570164 1009 L-564032 1009 L-563664 1009 L-563509 1009 L-562931 1009 L-562639 1009 L-561671 1009 L-561362 1009 L-560763 1009 L-559156 1009 L-558421 1009 L-558111 1009 L-557343 1009 L-555307 1008 L-554882 1008 L-554069 1008 L-546641 1008 L-546118 1008 L-545944 1008 L-545209 1008 L-543641 1008 L-543236 1008 L-541011 1007 L-540063 1007 L-539638 1007 L-539307 1007 L-538264 1007 L-536155 1007 L-535903 1007 L-535284 1007 L-534472 1007 L-532364 1007 L-532315 1007 L-530387 1006 L-530061 1006 L-529926 1006 L-529423 1006 L-528011 1006 L-527508 1006 L-526986 1006 L-523426 1005 L-522691 1005 L-520266 1005 L-518977 1005 L-518570 1005 L-515417 1005 L-515263 1005 L-515242 1005 L-514876 1005 L-513617 1005 L-512903 1005 L-512013 1005 L-511606 1005 L-510677 1005 L-509568 1005 L-509265 1005 L-503016 1005 L-502069 1006 L-500443 1006 L-499941 1006 L-496265 1006 L-495433 1006 L-491480 1006 L-490068 1006 L-487579 1006 L-486902 1005 L-486864 1005 L-485993 1005 L-482782 1005 L-479918 1005 L-478950 1005 L-477829 1005 L-477810 1005 L-476185 1005 L-475721 1005 L-475629 1005 L-469260 1005 L-468311 1004 L-465854 1004 L-464982 1004 L-463746 1004 L-461744 1004 L-461347 1004 L-459911 1004 L-457884 1004 L-457671 1004 L-456491 1004 L-454983 1004 L-454963 1004 L-452950 1003 L-452081 1003 L-451210 1003 L-450625 1003 L-450088 1003 L-449430 1003 L-448192 1003 L-447632 1003 L-446450 1003 L-445213 1003 L-445174 1002 L-444787 1002 L-444246 1002 L-443472 1002 L-442350 1002 L-440261 1002 L-439927 1002 L-439641 1002 L-438713 1002 L-438230 1002 L-437494 1002 L-433863 1001 L-432735 1001 L-432581 1001 L-431555 1001 L-427840 1001 L-426623 1001 L-424804 1001 L-422018 1001 L-421457 1001 L-417569 1001 L-415093 1001 L-413758 1001 L-413254 1001 L-412771 1001 L-410082 1001 L-406310 1001 L-403853 1001 L-402673 1001 L-402034 1000 L-399674 1000 L-399597 1000 L-398549 1000 L-398456 1000 L-397953 1000 L-397508 1000 L-397450 1000 L-397236 1000 L-394277 1000 L-391569 1000 L-391414 1000 L-387893 1000 L-387371 1000 L-386403 1000 L-386054 999 L-385011 999 L-384082 999 L-383656 999 L-382147 999 L-381180 999 L-381161 999 L-379265 994 L-379149 990 L-379101 985 L-379077 980 L-376073 980 L-374042 980 L-372281 980 L-371914 980 L-371469 980 L-371102 980 L-370688 980 L-368703 980 L-368490 980 L-368335 980 L-366730 980 L-365608 980 L-364659 980 L-363402 979 L-361758 979 L-360578 979 L-353989 979 L-353942 979 L-353536 979 L-352491 979 L-352356 979 L-350673 979 L-350653 979 L-349316 979 L-348080 979 L-347926 978 L-347552 978 L-347346 978 L-347036 978 L-346263 978 L-343941 978 L-343283 978 L-341155 978 L-339433 978 L-339240 978 L-336686 978 L-336410 978 L-336222 977 L-335389 977 L-334617 977 L-333919 977 L-328918 977 L-328542 977 L-324289 977 L-323802 983 L-323783 983 L-323704 983 L-323629 983 L-323609 977 L-322796 977 L-322042 977 L-320823 976 L-319391 976 L-319295 976 L-319121 976 L-318766 976 L-317457 976 L-315600 976 L-313897 976 L-313394 976 L-313129 976 L-312736 976 L-312602 976 L-311692 976 L-311316 976 L-310387 976 L-310048 976 L-310008 976 L-309971 976 L-308055 976 L-307882 975 L-306353 975 L-306025 975 L-305909 975 L-305501 975 L-305153 975 L-303510 975 L-302959 975 L-302715 975 L-302174 975 L-301343 975 L-300801 975 L-299267 975 L-299174 974 L-299137 974 L-299001 974 L-298614 974 L-297589 974 L-295713 974 L-295617 974 L-295016 976 L-294649 978 L-294165 980 L-294127 983 L-293353 983 L-293295 983 L-293121 983 L-292927 982 L-291322 982 L-291302 982 L-291147 982 L-291031 982 L-289852 983 L-289697 983 L-289030 983 L-286582 988 L-284067 993 L-281397 998 L-273698 1003 L-268030 1003 L-265816 1003 L-265792 1003 L-264819 1005 L-264799 1005 L-263935 1004 L-261195 1004 L-255396 1003 L-255243 1003 L-252457 1003 L-238849 1003 L-238103 1003 L-233692 1002 L-217346 1002 L-217114 1002 L-216577 1002 L-208117 1002 L-199412 1002 L-199199 1002 L-197227 1002 L-194440 1002 L-189953 1002 L-189798 1002 L-189629 1002 L-189489 1002 L-189198 1002 L-189159 1002 L-188889 1002 L-188717 1002 L-188307 1002 L-187186 1001 L-186006 1001 L-184729 1001 L-181865 1001 L-178945 1001 L-176953 1001 L-175405 1001 L-172367 1001 L-163043 1001 L-162519 1001 L-156795 1001 L-155288 1001 L-154473 1001 L-152790 1001 L-152069 1001 L-151900 1001 L-150855 1000 L-148788 1000 L-147426 1000 L-142983 1000 L-142885 1000 L-142847 1000 L-142828 1000 L-141995 1000 L-141918 1000 L-139345 1000 L-136096 1000 L-135941 1000 L-134993 1000 L-133252 1000 L-132536 1000 L-128996 1000 L-122418 1001 L-121001 1001 L-120980 1001 L-120030 1001 L-116555 1001 L-115802 1001 L-115240 1001 L-114458 1001 L-106954 1001 L-105356 1001 L-103782 1000 L-100596 1000 L-96263 1000 L-87694 1000 L-78947 1000 L-75873 1000 L-72607 1000 L-72061 1000 L-64924 1000 L-59256 1000 L-45192 1000 L-39180 1000 L-34474 1000 L-30471 1000 L-25363 1000 L-15649 1000 L-79 1000 L3003 999 L3305 971 L3325 936 L3344 897 L3363 853 L3383 832 L3402 815 L3421 800 L3449 784 L3469 769 L3497 753 L3533 736 L3546 721 L3559 708 L3578 698 L3596 690 L3616 682 L3635 674 L3654 666 L3674 658 L3695 650 L3712 642 L3731 634 L3751 626 L3771 618 L3789 610 L3808 601 L3828 592 L3848 583 L3867 575 L3885 567 L3907 559 L3931 552 L3946 544 L3963 537 L3983 530 L4002 523 L4021 515 L4040 507 L4060 499 L4081 492 L4099 485 L4118 479 L4138 473 L4159 467 L4176 462 L4195 457 L4215 453 L4234 448 L4253 444 L4272 440 L4292 436 L4312 433 L4331 429 L4350 426 L4377 422 L4398 417 L4426 413 L4460 407 L4474 403 L4487 399 L4506 395 L4525 392 L4545 389 L4563 385 L4582 382 L4602 378 L4623 374 L4640 371 L4659 368 L4679 364 L4699 361 L4718 356 L4736 351 L4757 346 L4776 341 L4795 336 L4814 331 L4835 326 L4859 320 L4874 313 L4891 308 L4911 302 L4930 296 L4950 290 L4969 284 L4989 278 L5009 272 L5027 266 L5046 261 L5066 255 L5087 250 L5104 245 L5123 240 L5143 236 L5162 232 L5182 227 L5201 223 L5221 219 L5240 215 L5259 211 L5278 207 L5307 202 L5327 199 L5354 195 L5392 190 L5407 185 L5419 181 L5436 177 L5453 174 L5473 172 L5492 169 L5511 167 L5531 165 L5552 162 L5569 159 L5588 157 L5608 154 L5628 151 L5646 148 L5665 144 L5685 141 L5705 137 L5724 133 L5742 129 L5764 126 L5788 122 L5803 118 L5820 115 L5840 111 L5859 107 L5878 103 L5897 99 L5917 95 L5938 92 L5956 88 L5975 84 L5995 81 L6015 78 L6033 75 L6052 71 L6072 68 L6091 65 L6110 62 L6129 59 L6149 56 L6169 53 L6188 50 L6207 47 L6235 44 L6255 41 L6283 38 L6319 33 L6333 29 L6347 25 L6364 21 L6382 19 L6402 16 L6420 14 L6440 11 L6460 7 L6481 4 L6500 0" />
</svg>
