<svg xmlns="http://www.w3.org/2000/svg" version="1.1" viewBox="0 0 6500 1000">
	<path fill="none" stroke="gold" stroke-width="125" stroke-linecap="round" stroke-linejoin="round" d="M0 64991  L-573822 64991 L-571218 64767 L-569550 64544 L-551221 64098 L-551050 63651 L-543893 63205 L-543859 63205 L-530429 62982 L-527507 63205 L-514166 62535 L-509997 61642 L-508837 60526 L-508218 59410 L-506206 58741 L-502434 58294 L-501834 57848 L-501505 57401 L-501292 56955 L-500751 56508 L-499513 54723 L-498334 52937 L-495469 51151 L-494947 49366 L-490091 48919 L-487154 48473 L-487111 48026 L-486803 47580 L-486551 47133 L-483956 46687 L-479701 46687 L-479683 46687 L-478446 46687 L-476568 46687 L-474615 46241 L-473667 45794 L-473396 45348 L-473086 45125 L-472988 44901 L-472158 44901 L-470127 45125 L-469837 43116 L-467690 42223 L-467535 40883 L-463878 39544 L-463627 40214 L-463529 39991 L-463012 40660 L-460861 41776 L-459932 42892 L-458406 44008 L-457166 44008 L-455620 43785 L-452658 43339 L-451536 42892 L-451227 42446 L-450016 42223 L-447009 44678 L-446989 44455 L-446642 44232 L-446429 44008 L-446303 40883 L-446061 40437 L-446023 39991 L-446003 39544 L-445984 39098 L-445925 38651 L-445867 38205 L-445849 37758 L-445406 37312 L-444166 36866 L-442620 36419 L-439233 35973 L-433506 35750 L-433305 35526 L-431669 35303 L-429947 35080 L-428515 34857 L-428283 34633 L-427567 34410 L-421435 34187 L-421067 33741 L-420913 33294 L-420335 32848 L-420042 32401 L-419075 31955 L-418765 31508 L-418166 31062 L-416560 31062 L-415825 31062 L-415515 31285 L-414747 31285 L-412711 30839 L-412285 30392 L-411473 30169 L-404044 29723 L-403521 29276 L-403348 28830 L-402613 28383 L-401045 27937 L-400639 27714 L-398414 27267 L-397466 27044 L-397041 26821 L-396711 26821 L-395667 26598 L-393559 26151 L-393307 25705 L-392688 25258 L-391875 25035 L-389767 24589 L-389719 24142 L-387791 23696 L-387465 23250 L-387330 22803 L-386827 22580 L-385414 22133 L-384911 21241 L-384389 20571 L-380830 19678 L-380095 18785 L-377670 18785 L-376380 18339 L-375973 18116 L-372821 18116 L-372666 18116 L-372646 18339 L-372279 18339 L-371021 18562 L-370306 18785 L-369416 18785 L-369009 18785 L-368081 18785 L-366972 18562 L-366669 19455 L-360420 19901 L-359473 20348 L-357846 20794 L-357345 21017 L-353669 21241 L-352837 21464 L-348883 21687 L-347472 21017 L-344982 20571 L-344306 20125 L-344267 19901 L-343396 19901 L-340185 19678 L-337322 19455 L-336354 19232 L-335233 18785 L-335214 18339 L-333589 17892 L-333124 17223 L-333033 17000 L-326663 16776 L-325715 16553 L-323258 16330 L-322385 15883 L-321149 15660 L-319148 15437 L-318751 14991 L-317314 14544 L-315288 14321 L-315075 13875 L-313895 13651 L-312386 13428 L-312366 13205 L-310354 12982 L-309484 12535 L-308614 12312 L-308029 11866 L-307492 11419 L-306834 10973 L-305596 10526 L-305035 10303 L-303854 10080 L-302616 9857 L-302578 9633 L-302191 9410 L-301649 8964 L-300876 8741 L-299753 8517 L-297664 8071 L-297331 7625 L-297045 7178 L-296116 6955 L-295633 6508 L-294898 6285 L-291267 6062 L-290139 5839 L-289984 5616 L-288958 5169 L-285244 4946 L-284026 4500 L-282208 4053 L-279422 3830 L-278860 3383 L-274973 3383 L-272496 3160 L-271161 3160 L-270658 2937 L-270175 2714 L-267485 2714 L-263714 2714 L-261256 2714 L-260077 2714 L-259437 2491 L-257078 2044 L-257000 1821 L-255953 1598 L-255859 1151 L-255357 1151 L-254911 1151 L-254854 1151 L-254640 1151 L-251680 705 L-248973 482 L-248818 258 L-245297 35 L-244774 -410 L-243807 -857 L-243458 -1080 L-242414 -1526 L-241486 -1973 L-241060 -2196 L-239551 -2196 L-238584 -2419 L-238565 -2642 L-236669 -18937 L-236553 -35678 L-236505 -52196 L-236481 -68714 L-233477 -68937 L-231446 -69383 L-229685 -69607 L-229318 -69830 L-228872 -70276 L-228505 -70500 L-228091 -70946 L-226107 -71169 L-225893 -71169 L-225738 -71392 L-224133 -71392 L-223011 -71616 L-222063 -71839 L-220806 -72285 L-219161 -72508 L-217982 -72955 L-211392 -73178 L-211346 -73401 L-210940 -73625 L-209895 -73848 L-209759 -74071 L-208077 -74517 L-208057 -74741 L-206720 -75187 L-205484 -75410 L-205330 -75633 L-204956 -76080 L-204749 -76303 L-204440 -76526 L-203666 -76973 L-201345 -77196 L-200687 -77419 L-198559 -77642 L-196837 -77866 L-196643 -78312 L-194090 -78535 L-193813 -78982 L-193625 -79428 L-192793 -79651 L-192020 -79875 L-191322 -80098 L-186322 -80098 L-185946 -80544 L-181693 -80767 L-181206 -58669 L-181187 -58669 L-181108 -58892 L-181032 -59116 L-181012 -81883 L-180200 -82107 L-179446 -82553 L-178227 -82776 L-176795 -82776 L-176699 -83000 L-176524 -83000 L-176170 -83446 L-174860 -83669 L-173003 -83892 L-171301 -84339 L-170798 -84562 L-170533 -84785 L-170140 -85008 L-170005 -85232 L-169096 -85455 L-168719 -85678 L-167791 -85678 L-167452 -85901 L-167412 -85901 L-167374 -86125 L-165459 -86125 L-165285 -86348 L-163756 -86348 L-163428 -86571 L-163312 -86794 L-162905 -87241 L-162557 -87464 L-160913 -87910 L-160362 -88133 L-160119 -88357 L-159578 -88580 L-158746 -89026 L-158205 -89250 L-156670 -89696 L-156578 -89919 L-156541 -90142 L-156405 -90366 L-156018 -90589 L-154993 -90812 L-153117 -91035 L-153020 -91258 L-152420 -84116 L-152053 -76526 L-151568 -68714 L-151530 -61125 L-150756 -60678 L-150699 -60901 L-150524 -61348 L-150331 -61571 L-148726 -62017 L-148706 -62241 L-148550 -61794 L-148435 -61571 L-147255 -61348 L-147101 -60678 L-146434 -60678 L-143986 -42375 L-141471 -23625 L-138801 -5544 L-131102 12535 L-125434 12535 L-123219 12312 L-123196 12312 L-122222 16776 L-122202 16776 L-121339 16330 L-118598 16107 L-112800 11419 L-112646 10973 L-109861 10750 L-96252 10303 L-95506 10080 L-91096 9633 L-74749 9410 L-74517 8964 L-73980 8741 L-65521 8517 L-56815 8294 L-56603 8071 L-54630 7848 L-51844 7848 L-47357 8071 L-47202 7848 L-47033 7848 L-46892 7625 L-46602 7178 L-46563 6955 L-46292 6732 L-46120 6508 L-45710 6285 L-44590 6062 L-43410 5839 L-42133 5616 L-39269 5392 L-36349 5169 L-34357 4946 L-32809 4500 L-29771 4276 L-20447 4053 L-19923 3830 L-14199 3830 L-12692 3607 L-11877 3607 L-10194 3160 L-9473 2937 L-9304 2714 L-8259 2491 L-6192 2267 L-4830 2044 L-386 1821 L-289 1598 L-250 1375 L-232 1151 L600 928 L678 482 L3250 258 L6500 35" />
</svg>
