<svg xmlns="http://www.w3.org/2000/svg" version="1.1" viewBox="0 0 6500 1000">
	<path fill="none" stroke="gold" stroke-width="125" stroke-linecap="round" stroke-linejoin="round" d="M0 11702  L-731059 11702 L-728455 11702 L-726787 11701 L-708458 11700 L-708287 11699 L-701130 11698 L-701096 11698 L-687665 11698 L-684744 11698 L-671403 11697 L-667234 11695 L-666074 11692 L-665455 11690 L-663443 11688 L-659671 11687 L-659071 11686 L-658742 11685 L-658529 11684 L-657987 11683 L-656749 11680 L-655570 11676 L-652706 11672 L-652184 11668 L-647328 11667 L-644391 11666 L-644348 11665 L-644040 11664 L-643788 11663 L-641193 11662 L-636938 11662 L-636920 11662 L-635683 11662 L-633805 11662 L-631852 11661 L-630904 11660 L-630633 11659 L-630323 11658 L-630225 11658 L-629395 11658 L-627364 11658 L-627074 11654 L-624927 11652 L-624772 11649 L-621115 11646 L-620864 11648 L-620766 11647 L-620249 11649 L-618097 11651 L-617169 11654 L-615643 11656 L-614403 11656 L-612857 11656 L-609895 11655 L-608773 11654 L-608464 11653 L-607253 11652 L-604246 11657 L-604226 11657 L-603879 11656 L-603666 11656 L-603540 11649 L-603298 11648 L-603260 11647 L-603240 11646 L-603221 11645 L-603162 11644 L-603104 11643 L-603086 11642 L-602642 11641 L-601403 11640 L-599857 11639 L-596470 11638 L-590743 11638 L-590542 11637 L-588906 11637 L-587184 11636 L-585752 11636 L-585520 11635 L-584804 11635 L-578672 11634 L-578304 11633 L-578150 11632 L-577572 11632 L-577279 11631 L-576312 11630 L-576002 11629 L-575403 11628 L-573797 11628 L-573062 11628 L-572752 11628 L-571984 11628 L-569948 11627 L-569522 11626 L-568710 11626 L-561281 11625 L-560758 11624 L-560584 11623 L-559849 11622 L-558282 11621 L-557876 11620 L-555651 11619 L-554703 11619 L-554278 11618 L-553948 11618 L-552904 11618 L-550796 11617 L-550544 11616 L-549925 11615 L-549112 11614 L-547004 11613 L-546956 11612 L-545028 11611 L-544702 11610 L-544567 11609 L-544064 11609 L-542651 11608 L-542148 11606 L-541626 11605 L-538067 11603 L-537332 11601 L-534907 11601 L-533617 11600 L-533210 11599 L-530058 11599 L-529903 11599 L-529883 11600 L-529516 11600 L-528258 11600 L-527543 11601 L-526653 11601 L-526246 11601 L-525318 11601 L-524209 11600 L-523906 11602 L-517657 11603 L-516710 11604 L-515083 11605 L-514582 11606 L-510906 11606 L-510073 11607 L-506120 11607 L-504709 11606 L-502219 11605 L-501543 11604 L-501504 11603 L-500633 11603 L-497422 11603 L-494559 11602 L-493591 11602 L-492469 11601 L-492451 11600 L-490826 11599 L-490361 11597 L-490269 11597 L-483900 11596 L-482952 11596 L-480495 11595 L-479622 11594 L-478386 11594 L-476385 11593 L-475987 11592 L-474551 11591 L-472525 11591 L-472312 11590 L-471132 11589 L-469623 11589 L-469603 11588 L-467591 11588 L-466721 11587 L-465850 11586 L-465266 11585 L-464728 11585 L-464071 11584 L-462833 11583 L-462272 11582 L-461091 11582 L-459853 11581 L-459815 11581 L-459428 11580 L-458886 11579 L-458112 11579 L-456990 11578 L-454901 11577 L-454568 11576 L-454282 11575 L-453353 11575 L-452870 11574 L-452135 11573 L-448503 11573 L-447376 11572 L-447221 11572 L-446195 11571 L-442480 11570 L-441263 11569 L-439445 11568 L-436659 11568 L-436097 11567 L-432210 11567 L-429733 11566 L-428398 11566 L-427895 11566 L-427412 11565 L-424722 11565 L-420951 11565 L-418493 11565 L-417314 11565 L-416674 11565 L-414315 11564 L-414237 11563 L-413190 11563 L-413096 11562 L-412594 11562 L-412148 11562 L-412090 11562 L-411877 11562 L-408917 11561 L-406210 11561 L-406055 11560 L-402534 11560 L-402011 11559 L-401044 11558 L-400695 11557 L-399651 11556 L-398722 11555 L-398297 11555 L-396788 11555 L-395821 11554 L-395802 11554 L-393906 11518 L-393790 11481 L-393742 11445 L-393718 11409 L-390713 11408 L-388683 11407 L-386922 11407 L-386555 11406 L-386109 11405 L-385742 11405 L-385328 11404 L-383343 11403 L-383130 11403 L-382975 11403 L-381370 11403 L-380248 11402 L-379300 11402 L-378043 11401 L-376398 11400 L-375218 11399 L-368629 11399 L-368582 11398 L-368177 11398 L-367132 11397 L-366996 11397 L-365314 11396 L-365294 11395 L-363957 11394 L-362721 11394 L-362567 11393 L-362193 11393 L-361986 11392 L-361677 11392 L-360903 11391 L-358582 11390 L-357924 11390 L-355796 11389 L-354073 11389 L-353880 11388 L-351327 11387 L-351050 11386 L-350862 11385 L-350030 11385 L-349257 11384 L-348559 11384 L-343559 11384 L-343183 11383 L-338930 11382 L-338443 11431 L-338423 11431 L-338345 11430 L-338269 11430 L-338249 11380 L-337437 11379 L-336683 11378 L-335464 11378 L-334032 11378 L-333936 11377 L-333761 11377 L-333407 11376 L-332097 11376 L-330240 11375 L-328538 11374 L-328035 11374 L-327770 11373 L-327376 11373 L-327242 11372 L-326332 11372 L-325956 11371 L-325028 11371 L-324689 11371 L-324649 11371 L-324611 11370 L-322696 11370 L-322522 11370 L-320993 11370 L-320665 11370 L-320549 11369 L-320142 11368 L-319794 11368 L-318150 11367 L-317599 11366 L-317356 11366 L-316815 11365 L-315983 11364 L-315442 11364 L-313907 11363 L-313815 11362 L-313778 11362 L-313642 11361 L-313255 11361 L-312230 11360 L-310354 11360 L-310257 11359 L-309657 11375 L-309290 11392 L-308805 11409 L-308767 11425 L-307993 11426 L-307936 11426 L-307761 11425 L-307568 11424 L-305962 11423 L-305943 11423 L-305787 11424 L-305672 11424 L-304492 11425 L-304338 11426 L-303671 11426 L-301222 11466 L-298708 11508 L-296038 11547 L-288339 11587 L-282671 11587 L-280456 11586 L-280433 11586 L-279459 11596 L-279439 11596 L-278576 11595 L-275835 11595 L-270037 11585 L-269883 11584 L-267097 11583 L-253489 11582 L-252743 11582 L-248333 11581 L-231986 11580 L-231754 11579 L-231217 11579 L-222758 11578 L-214052 11578 L-213840 11577 L-211867 11577 L-209081 11577 L-204594 11577 L-204439 11577 L-204270 11577 L-204129 11576 L-203839 11575 L-203800 11575 L-203529 11574 L-203357 11574 L-202947 11573 L-201827 11573 L-200646 11572 L-199370 11572 L-196506 11571 L-193586 11571 L-191594 11570 L-190046 11569 L-187008 11569 L-177683 11568 L-177159 11568 L-171436 11568 L-169929 11567 L-169114 11567 L-167430 11566 L-166709 11566 L-166541 11565 L-165496 11565 L-163429 11564 L-162066 11564 L-157623 11563 L-157526 11563 L-157487 11562 L-157468 11562 L-156636 11561 L-156558 11561 L-153986 11560 L-150736 11560 L-150582 11559 L-149633 11559 L-147892 11558 L-147177 11561 L-143636 11563 L-137059 11566 L-135641 11570 L-135621 11569 L-134670 11569 L-131196 11568 L-130443 11567 L-129881 11567 L-129099 11566 L-121595 11566 L-119996 11565 L-118422 11565 L-115237 11564 L-110904 11564 L-102334 11563 L-93588 11563 L-90514 11563 L-87248 11562 L-86701 11561 L-79564 11561 L-73897 11561 L-59832 11561 L-53821 11561 L-49115 11561 L-45111 11560 L-40004 11560 L-30290 11559 L-14719 11558 L-11636 11557 L-11334 11337 L-11315 11065 L-11296 10757 L-11276 10413 L-11256 10255 L-11237 10123 L-11218 10001 L-11191 9881 L-11170 9764 L-11142 9641 L-11107 9505 L-11093 9389 L-11080 9290 L-11062 9208 L-11043 9147 L-11023 9085 L-11005 9023 L-10985 8960 L-10966 8898 L-10944 8832 L-10928 8768 L-10909 8706 L-10888 8646 L-10868 8586 L-10850 8520 L-10831 8453 L-10812 8383 L-10791 8315 L-10773 8250 L-10754 8188 L-10733 8128 L-10708 8068 L-10693 8011 L-10676 7955 L-10657 7898 L-10637 7842 L-10618 7782 L-10599 7720 L-10579 7662 L-10559 7607 L-10541 7553 L-10522 7503 L-10501 7455 L-10481 7410 L-10464 7372 L-10445 7333 L-10425 7296 L-10406 7261 L-10386 7227 L-10367 7195 L-10347 7168 L-10328 7142 L-10309 7116 L-10290 7090 L-10263 7057 L-10242 7023 L-10214 6985 L-10180 6943 L-10166 6908 L-10152 6878 L-10134 6850 L-10115 6826 L-10095 6801 L-10076 6772 L-10057 6743 L-10037 6714 L-10017 6688 L-9999 6663 L-9980 6637 L-9960 6610 L-9940 6580 L-9922 6545 L-9903 6508 L-9883 6470 L-9863 6431 L-9844 6392 L-9826 6353 L-9804 6308 L-9780 6260 L-9765 6212 L-9748 6167 L-9728 6123 L-9709 6079 L-9690 6032 L-9671 5983 L-9651 5936 L-9630 5890 L-9612 5846 L-9593 5802 L-9573 5760 L-9553 5718 L-9535 5679 L-9516 5643 L-9496 5606 L-9477 5575 L-9458 5542 L-9439 5509 L-9419 5478 L-9400 5444 L-9380 5412 L-9361 5380 L-9332 5347 L-9313 5318 L-9285 5287 L-9248 5250 L-9233 5215 L-9220 5182 L-9203 5151 L-9186 5129 L-9166 5108 L-9148 5088 L-9129 5070 L-9109 5053 L-9088 5034 L-9071 5013 L-9052 4991 L-9031 4968 L-9012 4945 L-8993 4920 L-8974 4895 L-8954 4867 L-8935 4837 L-8916 4807 L-8897 4779 L-8876 4752 L-8852 4722 L-8837 4694 L-8820 4665 L-8800 4635 L-8781 4607 L-8761 4577 L-8742 4545 L-8722 4514 L-8702 4484 L-8684 4454 L-8665 4427 L-8645 4400 L-8624 4375 L-8606 4351 L-8587 4326 L-8568 4302 L-8549 4277 L-8529 4252 L-8510 4229 L-8490 4206 L-8471 4184 L-8452 4161 L-8433 4138 L-8405 4115 L-8384 4092 L-8356 4065 L-8320 4029 L-8306 3995 L-8293 3964 L-8275 3936 L-8257 3918 L-8238 3899 L-8219 3876 L-8199 3853 L-8180 3827 L-8158 3800 L-8140 3771 L-8123 3742 L-8102 3709 L-8082 3676 L-8064 3641 L-8045 3604 L-8025 3566 L-8005 3532 L-7987 3499 L-7968 3472 L-7947 3451 L-7922 3432 L-7908 3415 L-7890 3398 L-7871 3379 L-7851 3360 L-7832 3340 L-7813 3321 L-7793 3303 L-7772 3289 L-7755 3274 L-7736 3257 L-7716 3236 L-7695 3211 L-7678 3188 L-7659 3169 L-7639 3154 L-7620 3143 L-7600 3132 L-7582 3121 L-7562 3109 L-7542 3095 L-7523 3081 L-7504 3069 L-7477 3056 L-7456 3045 L-7428 3032 L-7393 3015 L-7379 3001 L-7366 2989 L-7347 2979 L-7329 2969 L-7309 2960 L-7291 2949 L-7271 2940 L-7251 2932 L-7230 2922 L-7213 2913 L-7195 2903 L-7174 2891 L-7154 2880 L-7136 2868 L-7117 2858 L-7097 2849 L-7077 2840 L-7059 2831 L-7040 2821 L-7019 2812 L-6994 2803 L-6979 2794 L-6962 2787 L-6942 2778 L-6923 2769 L-6904 2759 L-6885 2748 L-6865 2737 L-6844 2727 L-6827 2717 L-6808 2708 L-6787 2699 L-6767 2691 L-6749 2682 L-6730 2673 L-6710 2665 L-6692 2657 L-6672 2649 L-6653 2643 L-6633 2637 L-6614 2630 L-6594 2625 L-6576 2635 L-6547 2645 L-6527 2655 L-6499 2664 L-6462 2655 L-6447 2648 L-6434 2641 L-6416 2636 L-6400 2631 L-6380 2626 L-6362 2620 L-6342 2614 L-6323 2609 L-6301 2604 L-6285 2600 L-6266 2595 L-6245 2589 L-6225 2583 L-6207 2578 L-6188 2572 L-6169 2566 L-6148 2560 L-6130 2554 L-6111 2550 L-6090 2545 L-6065 2541 L-6051 2535 L-6033 2529 L-6014 2523 L-5995 2517 L-5975 2512 L-5956 2506 L-5936 2499 L-5916 2491 L-5898 2483 L-5879 2475 L-5859 2468 L-5838 2461 L-5821 2455 L-5802 2447 L-5782 2441 L-5763 2435 L-5743 2427 L-5724 2419 L-5704 2411 L-5685 2405 L-5666 2400 L-5647 2395 L-5619 2388 L-5599 2382 L-5571 2375 L-5536 2367 L-5522 2360 L-5509 2354 L-5490 2348 L-5472 2342 L-5452 2337 L-5433 2331 L-5414 2325 L-5394 2319 L-5373 2313 L-5356 2307 L-5337 2301 L-5317 2294 L-5297 2287 L-5279 2279 L-5260 2269 L-5240 2260 L-5220 2250 L-5202 2242 L-5183 2234 L-5161 2226 L-5136 2217 L-5122 2208 L-5105 2199 L-5085 2191 L-5066 2182 L-5047 2173 L-5028 2164 L-5008 2156 L-4987 2148 L-4969 2140 L-4950 2132 L-4930 2124 L-4909 2118 L-4892 2112 L-4873 2105 L-4853 2101 L-4834 2095 L-4815 2090 L-4796 2085 L-4776 2080 L-4756 2076 L-4737 2072 L-4718 2068 L-4691 2063 L-4670 2058 L-4642 2053 L-4607 2044 L-4593 2036 L-4580 2028 L-4561 2019 L-4543 2014 L-4523 2009 L-4505 2003 L-4485 1998 L-4466 1993 L-4444 1987 L-4428 1981 L-4409 1974 L-4388 1968 L-4368 1961 L-4350 1954 L-4331 1947 L-4311 1939 L-4291 1933 L-4273 1926 L-4254 1921 L-4233 1916 L-4208 1910 L-4193 1905 L-4176 1899 L-4157 1893 L-4137 1887 L-4118 1880 L-4099 1872 L-4079 1862 L-4058 1853 L-4041 1844 L-4022 1836 L-4001 1829 L-3981 1822 L-3964 1817 L-3945 1813 L-3924 1809 L-3906 1805 L-3886 1800 L-3867 1795 L-3847 1791 L-3828 1787 L-3808 1783 L-3790 1779 L-3763 1774 L-3742 1771 L-3714 1766 L-3680 1763 L-3665 1759 L-3652 1755 L-3634 1751 L-3615 1748 L-3595 1744 L-3577 1741 L-3557 1738 L-3537 1736 L-3516 1733 L-3499 1729 L-3480 1726 L-3460 1722 L-3440 1718 L-3422 1715 L-3403 1711 L-3383 1708 L-3363 1706 L-3344 1703 L-3326 1701 L-3304 1699 L-3280 1695 L-3265 1692 L-3248 1688 L-3228 1685 L-3209 1682 L-3190 1678 L-3171 1675 L-3151 1671 L-3130 1665 L-3112 1658 L-3093 1651 L-3073 1644 L-3053 1638 L-3035 1634 L-3016 1629 L-2996 1624 L-2977 1620 L-2957 1615 L-2939 1610 L-2919 1607 L-2900 1603 L-2880 1599 L-2861 1597 L-2833 1594 L-2785 1591 L-2748 1587 L-2733 1583 L-2721 1579 L-2704 1576 L-2686 1575 L-2666 1574 L-2648 1571 L-2629 1568 L-2608 1565 L-2588 1563 L-2571 1561 L-2552 1559 L-2531 1557 L-2512 1554 L-2493 1551 L-2474 1548 L-2454 1545 L-2435 1542 L-2416 1538 L-2397 1534 L-2376 1529 L-2351 1524 L-2337 1518 L-2320 1513 L-2300 1508 L-2281 1503 L-2261 1498 L-2242 1494 L-2222 1489 L-2202 1484 L-2184 1479 L-2165 1475 L-2144 1471 L-2124 1467 L-2106 1464 L-2088 1460 L-2067 1457 L-2049 1454 L-2029 1451 L-2010 1447 L-1990 1443 L-1971 1439 L-1951 1436 L-1933 1432 L-1904 1429 L-1884 1425 L-1856 1419 L-1820 1412 L-1805 1404 L-1792 1397 L-1775 1391 L-1757 1387 L-1737 1384 L-1719 1381 L-1699 1378 L-1680 1376 L-1658 1373 L-1642 1369 L-1623 1364 L-1602 1360 L-1582 1354 L-1564 1348 L-1545 1341 L-1525 1334 L-1505 1327 L-1487 1321 L-1468 1316 L-1447 1311 L-1422 1306 L-1407 1301 L-1389 1296 L-1371 1292 L-1351 1288 L-1332 1284 L-1313 1277 L-1293 1272 L-1272 1266 L-1255 1262 L-1236 1258 L-1216 1253 L-1194 1249 L-1178 1245 L-1159 1241 L-1139 1237 L-1120 1234 L-1100 1230 L-1082 1226 L-1062 1222 L-1042 1218 L-1023 1216 L-1004 1212 L-976 3810 L-956 3806 L-928 3802 L-892 3796 L-878 1189 L-865 1184 L-847 1180 L-829 1177 L-809 1175 L-791 1172 L-771 1169 L-751 1165 L-730 1160 L-713 1154 L-695 1149 L-674 1144 L-654 1137 L-636 1130 L-617 1123 L-597 1116 L-576 1111 L-559 1107 L-540 1103 L-518 1098 L-493 1093 L-478 1086 L-449 1079 L-409 1071 L-386 1064 L-357 1055 L-340 1047 L-326 1041 L-307 1036 L-287 1033 L-266 1029 L-249 1026 L-230 1022 L-210 1018 L-191 1016 L-172 1014 L-153 1011 L-133 1009 L-113 1005 L-94 1002 L-76 999 L-48 996 L-27 992 L0 989 L35 984 L48 980 L80 976 L99 973 L119 970 L137 968 L157 965 L176 963 L197 960 L214 957 L233 951 L254 942 L274 930 L292 917 L311 906 L331 896 L351 888 L369 881 L388 876 L409 872 L434 867 L449 862 L466 858 L485 852 L505 847 L524 843 L543 838 L563 833 L584 827 L601 821 L620 816 L641 813 L662 809 L678 806 L697 803 L717 800 L737 797 L756 792 L775 789 L795 785 L814 782 L833 779 L852 776 L880 773 L900 769 L970 763 L998 754 L1013 746 L1027 739 L1047 734 L1066 730 L1085 726 L1105 721 L1126 717 L1143 714 L1162 711 L1182 709 L1202 706 L1220 702 L1239 698 L1259 693 L1280 688 L1297 683 L1316 679 L1338 676 L1363 673 L1378 669 L1395 666 L1414 661 L1434 656 L1453 651 L1472 646 L1491 643 L1513 640 L1530 637 L1549 634 L1569 630 L1590 627 L1607 623 L1665 619 L1685 616 L1703 613 L1723 610 L1743 607 L1762 605 L1781 603 L1808 600 L1829 598 L1857 596 L1893 594 L1908 591 L1921 588 L1938 586 L1956 585 L1976 583 L1994 581 L2014 580 L2034 579 L2055 577 L2071 576 L2090 574 L2111 572 L2131 571 L2149 568 L2168 565 L2188 562 L2208 560 L2226 557 L2245 554 L2266 552 L2291 549 L2306 548 L2323 546 L2342 544 L2362 541 L2381 538 L2400 535 L2420 530 L2441 527 L2458 523 L2477 521 L2498 519 L2519 518 L2535 516 L2554 514 L2575 512 L2594 510 L2613 509 L2632 508 L2652 506 L2672 505 L2690 504 L2709 502 L2737 501 L2758 499 L2785 497 L2821 495 L2834 493 L2848 491 L2866 489 L2884 487 L2904 485 L2923 483 L2962 482 L2982 480 L3000 479 L3019 477 L3039 474 L3059 471 L3077 468 L3096 465 L3116 463 L3136 461 L3155 458 L3174 456 L3194 454 L3219 453 L3234 451 L3251 450 L3271 448 L3290 445 L3309 443 L3328 440 L3348 438 L3369 436 L3387 434 L3405 432 L3426 429 L3446 428 L3464 426 L3483 424 L3503 422 L3522 421 L3542 419 L3560 417 L3580 416 L3600 414 L3619 412 L3638 411 L3667 409 L3714 407 L3752 405 L3767 403 L3779 402 L3796 400 L3813 399 L3833 398 L3851 396 L3870 395 L3890 394 L3911 393 L3928 393 L3947 392 L3968 392 L3987 391 L4006 390 L4025 388 L4045 387 L4064 386 L4083 384 L4102 382 L4123 381 L4147 379 L4162 376 L4179 373 L4199 370 L4218 366 L4238 362 L4257 357 L4277 353 L4297 349 L4315 345 L4334 341 L4354 338 L4375 334 L4393 331 L4412 327 L4432 323 L4450 319 L4470 316 L4489 314 L4509 310 L4528 307 L4548 302 L4566 298 L4595 293 L4615 290 L4643 288 L4680 285 L4694 282 L4707 280 L4725 276 L4742 274 L4762 272 L4780 270 L4800 268 L4819 265 L4841 262 L4857 260 L4876 257 L4897 253 L4917 250 L4935 247 L4954 244 L4974 241 L4995 239 L5012 236 L5031 233 L5052 229 L5077 226 L5092 222 L5110 218 L5128 214 L5149 211 L5167 207 L5187 203 L5206 199 L5227 195 L5244 190 L5263 186 L5284 182 L5305 179 L5321 176 L5340 174 L5360 172 L5379 170 L5399 167 L5418 165 L5437 162 L5456 159 L5476 156 L5495 153 L5543 150 L5571 147 L5604 142 L5619 139 L5631 136 L5650 132 L5670 130 L5690 127 L5708 124 L5727 121 L5748 118 L5768 116 L5786 114 L5804 112 L5825 109 L5845 106 L5863 104 L5882 100 L5902 96 L5922 94 L5940 90 L5959 87 L5980 84 L6005 81 L6020 77 L6037 73 L6056 69 L6076 65 L6095 60 L6114 56 L6134 53 L6155 49 L6172 46 L6192 44 L6212 41 L6233 38 L6250 35 L6269 33 L6289 31 L6308 28 L6327 27 L6346 24 L6366 22 L6385 19 L6405 16 L6423 14 L6451 10 L6472 8 L6500 5" />
</svg>
