<svg xmlns="http://www.w3.org/2000/svg" version="1.1" viewBox="0 0 6500 1000">
	<path fill="none" stroke="gold" stroke-width="125" stroke-linecap="round" stroke-linejoin="round" d="M0 1726  L-720501 1726 L-717897 1725 L-716229 1725 L-697899 1725 L-697729 1725 L-690571 1725 L-690538 1725 L-677107 1725 L-674185 1725 L-660844 1725 L-656675 1724 L-655515 1724 L-654896 1723 L-652884 1723 L-649112 1723 L-648512 1723 L-648184 1723 L-647971 1722 L-647429 1722 L-646191 1722 L-645012 1721 L-642148 1720 L-641625 1720 L-636770 1719 L-633833 1719 L-633790 1719 L-633481 1719 L-633229 1719 L-630635 1718 L-626379 1718 L-626361 1718 L-625124 1718 L-623247 1718 L-621293 1718 L-620345 1718 L-620075 1718 L-619765 1718 L-619667 1718 L-618836 1718 L-616806 1718 L-616515 1717 L-614369 1717 L-614213 1716 L-610557 1716 L-610306 1716 L-610207 1716 L-609690 1716 L-607539 1717 L-606610 1717 L-605084 1717 L-603845 1717 L-602298 1717 L-599336 1717 L-598215 1717 L-597905 1717 L-596694 1717 L-593687 1718 L-593668 1718 L-593320 1718 L-593107 1717 L-592981 1716 L-592740 1716 L-592702 1716 L-592682 1716 L-592663 1716 L-592604 1715 L-592545 1715 L-592527 1715 L-592084 1715 L-590845 1715 L-589299 1715 L-585911 1714 L-580185 1714 L-579983 1714 L-578348 1714 L-576626 1714 L-575193 1714 L-574961 1714 L-574246 1714 L-568114 1714 L-567746 1713 L-567591 1713 L-567013 1713 L-566721 1713 L-565753 1713 L-565444 1713 L-564845 1712 L-563238 1712 L-562503 1712 L-562193 1713 L-561425 1713 L-559389 1712 L-558964 1712 L-558151 1712 L-550723 1712 L-550200 1712 L-550026 1712 L-549291 1711 L-547723 1711 L-547318 1711 L-545093 1711 L-544145 1711 L-543720 1711 L-543389 1711 L-542346 1711 L-540238 1711 L-539985 1710 L-539366 1710 L-538554 1710 L-536446 1710 L-536397 1710 L-534469 1710 L-534143 1709 L-534008 1709 L-533505 1709 L-532093 1709 L-531590 1709 L-531068 1708 L-527508 1708 L-526773 1708 L-524348 1708 L-523059 1708 L-522652 1707 L-519499 1707 L-519345 1707 L-519324 1708 L-518958 1708 L-517700 1708 L-516985 1708 L-516095 1708 L-515688 1708 L-514759 1708 L-513650 1708 L-513347 1708 L-507098 1708 L-506151 1708 L-504525 1709 L-504023 1709 L-500347 1709 L-499515 1709 L-495562 1709 L-494150 1709 L-491661 1708 L-490984 1708 L-490946 1708 L-490075 1708 L-486864 1708 L-484000 1708 L-483033 1708 L-481911 1708 L-481892 1708 L-480267 1707 L-479803 1707 L-479711 1707 L-473342 1707 L-472393 1707 L-469936 1707 L-469064 1707 L-467828 1707 L-465827 1706 L-465429 1706 L-463993 1706 L-461967 1706 L-461753 1706 L-460573 1706 L-459065 1706 L-459045 1706 L-457032 1706 L-456163 1705 L-455292 1705 L-454707 1705 L-454170 1705 L-453512 1705 L-452274 1705 L-451714 1704 L-450532 1704 L-449295 1704 L-449256 1704 L-448869 1704 L-448328 1704 L-447554 1704 L-446432 1704 L-444343 1704 L-444009 1703 L-443723 1703 L-442795 1703 L-442312 1703 L-441576 1703 L-437945 1703 L-436817 1703 L-436663 1703 L-435637 1703 L-431922 1702 L-430705 1702 L-428886 1702 L-426100 1702 L-425539 1702 L-421651 1702 L-419175 1702 L-417840 1702 L-417336 1702 L-416853 1702 L-414164 1702 L-410392 1702 L-407935 1702 L-406755 1702 L-406116 1701 L-403756 1701 L-403679 1701 L-402631 1701 L-402538 1701 L-402035 1701 L-401590 1701 L-401532 1701 L-401318 1701 L-398359 1701 L-395651 1701 L-395496 1701 L-391975 1701 L-391453 1700 L-390485 1700 L-390136 1700 L-389093 1700 L-388164 1700 L-387738 1700 L-386229 1700 L-385262 1700 L-385243 1700 L-383347 1693 L-383231 1687 L-383183 1680 L-383159 1674 L-380155 1674 L-378124 1674 L-376363 1674 L-375996 1674 L-375551 1674 L-375184 1673 L-374770 1673 L-372785 1673 L-372572 1673 L-372417 1673 L-370812 1673 L-369690 1673 L-368742 1673 L-367484 1673 L-365840 1673 L-364660 1672 L-358071 1672 L-358024 1672 L-357618 1672 L-356573 1672 L-356438 1672 L-354755 1672 L-354735 1672 L-353398 1672 L-352162 1672 L-352008 1671 L-351634 1671 L-351428 1671 L-351118 1671 L-350345 1671 L-348023 1671 L-347365 1671 L-345237 1671 L-343515 1671 L-343322 1670 L-340768 1670 L-340492 1670 L-340304 1670 L-339471 1670 L-338699 1670 L-338001 1670 L-333000 1670 L-332624 1670 L-328371 1669 L-327884 1678 L-327865 1678 L-327786 1678 L-327711 1678 L-327691 1669 L-326878 1669 L-326124 1669 L-324905 1669 L-323473 1669 L-323377 1669 L-323203 1669 L-322848 1668 L-321539 1668 L-319682 1668 L-317979 1668 L-317476 1668 L-317211 1668 L-316818 1668 L-316684 1668 L-315774 1668 L-315398 1668 L-314469 1668 L-314130 1668 L-314090 1668 L-314053 1667 L-312137 1667 L-311964 1667 L-310435 1667 L-310107 1667 L-309991 1667 L-309583 1667 L-309235 1667 L-307592 1667 L-307041 1667 L-306798 1667 L-306256 1666 L-305425 1666 L-304883 1666 L-303349 1666 L-303256 1666 L-303219 1666 L-303084 1666 L-302696 1666 L-301672 1666 L-299795 1666 L-299699 1665 L-299098 1668 L-298731 1671 L-298247 1674 L-298209 1677 L-297435 1677 L-297377 1677 L-297203 1677 L-297009 1677 L-295404 1677 L-295384 1677 L-295229 1677 L-295113 1677 L-293934 1677 L-293779 1677 L-293112 1677 L-290664 1684 L-288149 1691 L-285479 1698 L-277780 1705 L-272112 1705 L-269898 1705 L-269874 1705 L-268901 1707 L-268881 1707 L-268017 1707 L-265277 1707 L-259478 1705 L-259325 1705 L-256539 1705 L-242931 1704 L-242185 1704 L-237774 1704 L-221428 1704 L-221196 1704 L-220659 1704 L-212199 1704 L-203494 1704 L-203281 1704 L-201309 1704 L-198523 1704 L-194035 1704 L-193880 1704 L-193711 1704 L-193571 1703 L-193280 1703 L-193241 1703 L-192971 1703 L-192799 1703 L-192389 1703 L-191268 1703 L-190088 1703 L-188811 1703 L-185947 1703 L-183027 1703 L-181035 1702 L-179487 1702 L-176449 1702 L-167125 1702 L-166601 1702 L-160877 1702 L-159370 1702 L-158556 1702 L-156872 1702 L-156151 1702 L-155982 1702 L-154937 1701 L-152870 1701 L-151508 1701 L-147065 1701 L-146967 1701 L-146929 1701 L-146910 1701 L-146077 1701 L-146000 1701 L-143427 1701 L-140178 1701 L-140023 1700 L-139075 1700 L-137334 1700 L-136618 1701 L-133078 1701 L-126500 1702 L-125083 1702 L-125062 1702 L-124112 1702 L-120637 1702 L-119884 1702 L-119322 1702 L-118540 1702 L-111036 1702 L-109438 1702 L-107864 1701 L-104678 1701 L-100345 1701 L-91776 1701 L-83029 1701 L-79955 1701 L-76689 1701 L-76143 1701 L-69006 1701 L-63338 1701 L-49274 1701 L-43262 1701 L-38556 1701 L-34553 1701 L-29445 1701 L-19731 1700 L-4161 1700 L-1078 1700 L-776 1662 L-756 1614 L-737 1560 L-718 1500 L-698 1472 L-679 1449 L-660 1428 L-632 1406 L-612 1386 L-584 1364 L-548 1341 L-535 1320 L-522 1303 L-503 1289 L-485 1278 L-465 1267 L-446 1256 L-427 1245 L-407 1234 L-386 1223 L-369 1212 L-351 1201 L-330 1190 L-310 1180 L-292 1168 L-273 1156 L-253 1144 L-233 1132 L-214 1121 L-196 1110 L-174 1100 L-150 1089 L-135 1079 L-118 1069 L-98 1059 L-79 1049 L-60 1039 L-41 1028 L-21 1018 L0 1008 L17 999 L36 990 L56 982 L77 974 L94 967 L113 960 L133 954 L152 948 L171 942 L190 936 L210 931 L230 927 L249 922 L268 918 L295 912 L316 906 L344 899 L378 892 L392 886 L405 880 L424 876 L443 871 L463 867 L481 862 L500 857 L520 852 L541 847 L558 843 L577 838 L597 834 L617 828 L636 822 L654 816 L674 809 L694 802 L713 795 L732 789 L753 781 L777 772 L792 764 L809 756 L829 748 L848 741 L868 732 L887 724 L907 716 L927 708 L945 700 L964 692 L984 685 L1005 677 L1022 671 L1041 664 L1061 658 L1080 652 L1100 647 L1119 641 L1139 635 L1158 629 L1177 624 L1196 618 L1225 612 L1245 607 L1272 602 L1310 595 L1325 589 L1337 583 L1354 578 L1371 574 L1391 571 L1410 567 L1429 564 L1449 561 L1470 558 L1487 554 L1506 550 L1526 546 L1546 542 L1564 538 L1583 533 L1603 528 L1623 523 L1642 518 L1660 513 L1681 508 L1706 503 L1720 498 L1738 493 L1758 488 L1777 483 L1796 477 L1815 472 L1835 466 L1856 461 L1874 456 L1893 451 L1913 447 L1933 442 L1951 438 L1970 434 L1990 429 L2009 425 L2028 421 L2047 417 L2067 413 L2086 409 L2106 405 L2125 401 L2153 397 L2173 393 L2201 388 L2237 382 L2251 376 L2264 370 L2282 365 L2300 362 L2320 359 L2338 355 L2358 351 L2378 346 L2399 341 L2417 336 L2434 331 L2455 326 L2475 320 L2493 314 L2512 307 L2532 301 L2552 294 L2570 289 L2589 284 L2610 280 L2635 277 L2650 274 L2667 271 L2686 268 L2706 264 L2725 261 L2744 258 L2764 254 L2785 252 L2802 249 L2821 246 L2842 243 L2863 238 L2880 234 L2899 231 L2919 228 L2937 226 L2957 225 L2976 223 L2996 220 L3015 218 L3035 216 L3053 213 L3081 211 L3102 209 L3129 207 L3164 204 L3178 202 L3191 199 L3210 198 L3229 196 L3248 194 L3267 192 L3286 191 L3306 189 L3327 188 L3344 186 L3363 184 L3384 182 L3404 180 L3422 178 L3440 176 L3460 175 L3481 173 L3499 172 L3518 170 L3539 168 L3564 167 L3578 165 L3595 164 L3615 162 L3634 161 L3654 159 L3673 157 L3692 155 L3713 153 L3731 152 L3750 150 L3770 149 L3791 147 L3808 146 L3827 144 L3847 143 L3866 141 L3886 140 L3904 139 L3925 138 L3944 137 L3963 136 L3982 137 L4011 139 L4030 141 L4058 142 L4096 141 L4111 140 L4124 138 L4141 138 L4157 137 L4177 136 L4195 135 L4215 134 L4235 133 L4256 132 L4273 131 L4291 130 L4312 129 L4332 128 L4350 127 L4369 126 L4389 125 L4409 124 L4427 123 L4446 122 L4467 122 L4492 121 L4507 120 L4524 119 L4544 118 L4563 117 L4582 116 L4601 115 L4621 114 L4642 112 L4659 111 L4678 109 L4699 108 L4720 107 L4737 106 L4756 105 L4776 103 L4795 102 L4814 101 L4833 100 L4853 98 L4873 97 L4892 96 L4910 95 L4938 94 L4959 93 L4987 92 L5022 90 L5035 89 L5048 88 L5067 87 L5086 86 L5106 85 L5124 84 L5144 83 L5163 82 L5184 81 L5201 80 L5220 79 L5241 78 L5261 76 L5279 75 L5298 73 L5317 72 L5338 70 L5356 68 L5375 67 L5396 66 L5421 64 L5436 63 L5453 61 L5472 60 L5492 58 L5511 57 L5530 55 L5550 54 L5571 52 L5588 51 L5607 49 L5628 48 L5648 47 L5665 46 L5684 45 L5704 44 L5723 43 L5743 42 L5762 41 L5781 40 L5801 39 L5820 39 L5839 38 L5867 37 L5887 36 L5915 36 L5951 34 L5964 32 L5978 31 L5996 30 L6014 29 L6034 28 L6053 27 L6072 26 L6092 25 L6113 24 L6130 23 L6149 22 L6169 21 L6189 19 L6207 18 L6226 17 L6246 16 L6267 14 L6284 13 L6303 12 L6325 11 L6350 10 L6364 10 L6381 9 L6401 7 L6420 6 L6439 5 L6458 4 L6478 2 L6500 0" />
</svg>
