<svg xmlns="http://www.w3.org/2000/svg" version="1.1" viewBox="0 0 6500 1000">
	<path fill="none" stroke="gold" stroke-width="125" stroke-linecap="round" stroke-linejoin="round" d="M0 5082  L-723226 5082 L-720622 5082 L-718954 5081 L-700625 5081 L-700455 5080 L-693297 5080 L-693264 5080 L-679833 5080 L-676911 5080 L-663570 5079 L-659401 5078 L-658241 5077 L-657622 5076 L-655610 5075 L-651838 5075 L-651238 5074 L-650909 5074 L-650696 5073 L-650155 5073 L-648917 5071 L-647738 5069 L-644873 5067 L-644351 5065 L-639496 5065 L-636558 5064 L-636515 5064 L-636207 5063 L-635955 5063 L-633360 5062 L-629105 5062 L-629087 5062 L-627850 5062 L-625973 5062 L-624019 5062 L-623071 5061 L-622800 5061 L-622491 5061 L-622392 5060 L-621562 5060 L-619531 5061 L-619241 5058 L-617094 5057 L-616939 5056 L-613283 5055 L-613032 5055 L-612933 5055 L-612416 5056 L-610265 5057 L-609336 5058 L-607810 5059 L-606570 5059 L-605024 5059 L-602062 5059 L-600940 5058 L-600631 5058 L-599420 5057 L-596413 5060 L-596394 5060 L-596046 5060 L-595833 5059 L-595707 5056 L-595465 5056 L-595427 5055 L-595408 5055 L-595388 5054 L-595329 5054 L-595271 5053 L-595253 5053 L-594810 5052 L-593570 5052 L-592025 5051 L-588637 5051 L-582911 5051 L-582709 5050 L-581073 5050 L-579351 5050 L-577919 5050 L-577687 5049 L-576972 5049 L-570839 5049 L-570472 5048 L-570317 5048 L-569739 5047 L-569446 5047 L-568479 5046 L-568169 5046 L-567570 5046 L-565964 5046 L-565229 5046 L-564919 5046 L-564151 5046 L-562115 5045 L-561689 5045 L-560877 5045 L-553448 5044 L-552925 5044 L-552752 5043 L-552017 5043 L-550449 5042 L-550043 5042 L-547818 5041 L-546870 5041 L-546445 5041 L-546115 5041 L-545071 5041 L-542963 5040 L-542711 5040 L-542092 5039 L-541279 5039 L-539172 5039 L-539123 5038 L-537195 5038 L-536869 5037 L-536734 5037 L-536231 5036 L-534818 5036 L-534315 5035 L-533794 5034 L-530234 5033 L-529499 5032 L-527074 5032 L-525785 5032 L-525378 5032 L-522225 5032 L-522070 5032 L-522050 5032 L-521683 5032 L-520425 5032 L-519710 5032 L-518820 5032 L-518413 5032 L-517485 5032 L-516376 5032 L-516073 5033 L-509824 5034 L-508877 5034 L-507251 5035 L-506749 5035 L-503073 5035 L-502241 5035 L-498288 5035 L-496876 5035 L-494387 5034 L-493710 5034 L-493671 5034 L-492801 5034 L-489589 5033 L-486726 5033 L-485758 5033 L-484637 5032 L-484618 5032 L-482993 5031 L-482529 5031 L-482437 5030 L-476067 5030 L-475119 5030 L-472662 5030 L-471790 5029 L-470554 5029 L-468552 5029 L-468155 5028 L-466718 5028 L-464692 5028 L-464479 5027 L-463299 5027 L-461791 5027 L-461770 5026 L-459758 5026 L-458889 5026 L-458018 5025 L-457433 5025 L-456896 5025 L-456238 5024 L-455000 5024 L-454439 5023 L-453258 5023 L-452021 5023 L-451982 5023 L-451595 5022 L-451054 5022 L-450280 5022 L-449158 5021 L-447068 5021 L-446735 5020 L-446449 5020 L-445521 5020 L-445037 5019 L-444302 5019 L-440671 5019 L-439543 5019 L-439388 5018 L-438362 5018 L-434648 5018 L-433430 5017 L-431612 5017 L-428826 5016 L-428265 5016 L-424377 5016 L-421900 5016 L-420565 5016 L-420062 5015 L-419579 5015 L-416890 5015 L-413118 5015 L-410661 5015 L-409481 5015 L-408842 5015 L-406482 5014 L-406405 5014 L-405357 5014 L-405264 5014 L-404761 5014 L-404315 5014 L-404258 5014 L-404044 5014 L-401084 5013 L-398377 5013 L-398222 5013 L-394701 5012 L-394178 5012 L-393211 5011 L-392862 5011 L-391818 5011 L-390890 5010 L-390464 5010 L-388955 5010 L-387988 5010 L-387969 5009 L-386073 4992 L-385957 4974 L-385909 4956 L-385885 4939 L-382881 4939 L-380850 4938 L-379089 4938 L-378722 4938 L-378277 4937 L-377910 4937 L-377496 4936 L-375511 4936 L-375298 4936 L-375143 4936 L-373537 4936 L-372416 4936 L-371467 4935 L-370210 4935 L-368565 4935 L-367386 4934 L-360796 4934 L-360750 4934 L-360344 4934 L-359299 4933 L-359163 4933 L-357481 4933 L-357461 4932 L-356124 4932 L-354888 4932 L-354734 4931 L-354360 4931 L-354154 4931 L-353844 4930 L-353070 4930 L-350749 4930 L-350091 4929 L-347963 4929 L-346241 4929 L-346047 4929 L-343494 4928 L-343218 4928 L-343029 4927 L-342197 4927 L-341424 4927 L-340726 4927 L-335726 4927 L-335350 4926 L-331097 4926 L-330610 4950 L-330591 4950 L-330512 4949 L-330436 4949 L-330417 4925 L-329604 4924 L-328850 4924 L-327631 4924 L-326199 4924 L-326103 4923 L-325928 4923 L-325574 4923 L-324265 4923 L-322407 4923 L-320705 4922 L-320202 4922 L-319937 4922 L-319544 4921 L-319410 4921 L-318500 4921 L-318123 4921 L-317195 4921 L-316856 4920 L-316816 4920 L-316779 4920 L-314863 4920 L-314689 4920 L-313161 4920 L-312832 4920 L-312716 4919 L-312309 4919 L-311961 4919 L-310317 4918 L-309766 4918 L-309523 4918 L-308982 4918 L-308151 4917 L-307609 4917 L-306074 4916 L-305982 4916 L-305945 4916 L-305809 4916 L-305422 4915 L-304397 4915 L-302521 4915 L-302425 4915 L-301824 4922 L-301457 4930 L-300973 4939 L-300934 4947 L-300161 4947 L-300103 4947 L-299929 4947 L-299735 4946 L-298130 4946 L-298110 4946 L-297955 4946 L-297839 4946 L-296660 4947 L-296505 4947 L-295838 4947 L-293390 4967 L-290875 4987 L-288205 5006 L-280506 5026 L-274838 5026 L-272624 5025 L-272600 5025 L-271626 5030 L-271606 5030 L-270743 5030 L-268003 5030 L-262204 5025 L-262051 5024 L-259265 5024 L-245656 5023 L-244911 5023 L-240500 5023 L-224154 5022 L-223921 5022 L-223384 5022 L-214925 5021 L-206219 5021 L-206007 5021 L-204034 5021 L-201248 5021 L-196761 5021 L-196606 5021 L-196437 5021 L-196297 5020 L-196006 5020 L-195967 5020 L-195696 5019 L-195525 5019 L-195115 5019 L-193994 5019 L-192814 5019 L-191537 5018 L-188673 5018 L-185753 5018 L-183761 5018 L-182213 5017 L-179175 5017 L-169851 5017 L-169327 5016 L-163603 5016 L-162096 5016 L-161281 5016 L-159598 5016 L-158877 5015 L-158708 5015 L-157663 5015 L-155596 5015 L-154234 5014 L-149790 5014 L-149693 5014 L-149655 5014 L-149636 5014 L-148803 5013 L-148725 5013 L-146153 5013 L-142904 5012 L-142749 5012 L-141800 5012 L-140059 5011 L-139344 5013 L-135803 5014 L-129226 5015 L-127809 5017 L-127788 5017 L-126837 5017 L-123363 5017 L-122610 5016 L-122048 5016 L-121266 5016 L-113762 5015 L-112164 5015 L-110590 5015 L-107404 5015 L-103071 5014 L-94501 5014 L-85755 5014 L-82681 5014 L-79415 5014 L-78869 5013 L-71732 5013 L-66064 5013 L-51999 5013 L-45988 5013 L-41282 5013 L-37278 5013 L-32171 5012 L-22457 5012 L-6886 5012 L-3804 5011 L-3501 4904 L-3482 4771 L-3463 4621 L-3443 4453 L-3424 4376 L-3404 4312 L-3386 4252 L-3358 4194 L-3337 4137 L-3309 4077 L-3274 4010 L-3261 3954 L-3247 3906 L-3229 3866 L-3210 3836 L-3190 3806 L-3172 3775 L-3153 3745 L-3133 3715 L-3112 3683 L-3095 3651 L-3076 3621 L-3056 3592 L-3036 3562 L-3017 3530 L-2999 3498 L-2979 3464 L-2959 3431 L-2940 3399 L-2921 3368 L-2900 3339 L-2875 3310 L-2861 3282 L-2844 3255 L-2824 3227 L-2804 3200 L-2785 3171 L-2767 3140 L-2746 3112 L-2726 3085 L-2708 3059 L-2689 3034 L-2669 3011 L-2648 2989 L-2631 2970 L-2612 2952 L-2592 2934 L-2573 2916 L-2553 2900 L-2535 2884 L-2515 2871 L-2495 2859 L-2476 2846 L-2457 2833 L-2430 2817 L-2409 2800 L-2381 2782 L-2347 2761 L-2333 2744 L-2320 2729 L-2301 2716 L-2282 2704 L-2262 2692 L-2244 2678 L-2224 2664 L-2204 2650 L-2184 2637 L-2166 2625 L-2148 2612 L-2127 2599 L-2108 2584 L-2089 2567 L-2070 2549 L-2050 2531 L-2030 2512 L-2012 2493 L-1993 2474 L-1972 2452 L-1947 2428 L-1933 2405 L-1916 2383 L-1896 2362 L-1877 2340 L-1857 2317 L-1838 2293 L-1818 2271 L-1798 2248 L-1780 2226 L-1761 2205 L-1740 2185 L-1720 2164 L-1702 2145 L-1683 2128 L-1663 2110 L-1645 2095 L-1625 2078 L-1606 2062 L-1586 2047 L-1567 2031 L-1547 2015 L-1529 1999 L-1500 1983 L-1480 1969 L-1452 1954 L-1415 1936 L-1400 1919 L-1388 1903 L-1370 1888 L-1353 1877 L-1334 1867 L-1315 1857 L-1296 1848 L-1276 1840 L-1255 1830 L-1238 1820 L-1219 1810 L-1199 1799 L-1179 1787 L-1160 1775 L-1142 1763 L-1122 1749 L-1102 1735 L-1083 1720 L-1064 1706 L-1043 1693 L-1019 1678 L-1004 1665 L-987 1651 L-967 1636 L-948 1622 L-928 1608 L-909 1592 L-889 1577 L-869 1563 L-851 1548 L-832 1535 L-812 1522 L-792 1509 L-774 1498 L-755 1486 L-735 1474 L-716 1462 L-696 1450 L-677 1438 L-658 1427 L-638 1416 L-619 1405 L-600 1394 L-572 1383 L-552 1372 L-524 1358 L-488 1341 L-473 1324 L-460 1309 L-443 1295 L-425 1286 L-405 1277 L-386 1266 L-367 1255 L-347 1242 L-326 1229 L-307 1215 L-290 1201 L-270 1185 L-250 1168 L-231 1151 L-213 1133 L-193 1115 L-172 1098 L-155 1082 L-136 1069 L-114 1059 L-89 1050 L-75 1041 L-57 1033 L-38 1024 L-19 1014 L0 1005 L18 995 L38 987 L59 980 L77 973 L96 964 L116 954 L137 942 L154 930 L173 921 L193 914 L212 909 L231 903 L250 898 L270 892 L290 885 L309 879 L328 873 L355 866 L376 861 L404 854 L439 846 L452 839 L466 834 L484 828 L503 824 L523 819 L541 814 L561 810 L580 806 L601 801 L619 796 L637 791 L658 786 L678 780 L696 775 L715 770 L735 765 L755 761 L773 756 L792 752 L813 747 L838 743 L853 739 L870 735 L889 731 L909 726 L928 721 L947 716 L967 711 L988 706 L1005 701 L1024 697 L1045 692 L1065 688 L1083 684 L1101 679 L1121 676 L1140 672 L1160 668 L1179 665 L1199 662 L1218 659 L1237 656 L1256 661 L1285 666 L1305 671 L1333 675 L1370 671 L1385 667 L1398 664 L1415 661 L1431 659 L1451 657 L1470 654 L1489 651 L1509 648 L1530 646 L1547 644 L1566 641 L1586 639 L1606 636 L1625 633 L1643 630 L1663 627 L1683 624 L1701 622 L1720 619 L1742 617 L1767 615 L1781 612 L1798 609 L1818 606 L1837 604 L1857 601 L1876 598 L1895 595 L1916 591 L1934 587 L1953 583 L1973 579 L1994 576 L2011 573 L2030 569 L2050 566 L2069 563 L2089 559 L2107 556 L2127 552 L2147 549 L2166 546 L2185 544 L2212 541 L2233 537 L2261 534 L2296 530 L2309 527 L2323 524 L2342 521 L2360 518 L2380 516 L2398 513 L2418 510 L2438 507 L2459 504 L2476 501 L2494 498 L2515 495 L2535 491 L2553 487 L2572 483 L2592 478 L2612 473 L2630 469 L2649 466 L2670 461 L2695 457 L2710 453 L2727 448 L2746 444 L2766 440 L2785 436 L2804 431 L2824 428 L2845 424 L2862 420 L2881 416 L2902 412 L2923 409 L2940 406 L2959 403 L2979 400 L2998 398 L3017 395 L3036 393 L3056 391 L3076 388 L3095 386 L3113 385 L3141 382 L3162 380 L3189 377 L3225 373 L3239 369 L3252 365 L3270 361 L3289 358 L3308 356 L3327 353 L3346 350 L3366 348 L3387 345 L3404 342 L3423 339 L3444 336 L3463 332 L3482 329 L3500 325 L3520 322 L3541 318 L3559 315 L3578 313 L3599 310 L3624 307 L3639 305 L3656 302 L3675 299 L3695 296 L3714 293 L3733 289 L3753 284 L3774 280 L3791 275 L3810 271 L3831 268 L3851 265 L3868 262 L3887 260 L3907 258 L3926 256 L3946 254 L3964 252 L3984 249 L4004 247 L4023 246 L4042 243 L4069 241 L4090 240 L4118 237 L4152 236 L4166 234 L4180 232 L4198 230 L4217 228 L4237 227 L4255 225 L4275 224 L4295 222 L4315 221 L4333 219 L4351 218 L4372 216 L4392 214 L4410 212 L4429 211 L4449 209 L4469 208 L4487 207 L4506 206 L4527 205 L4552 203 L4566 201 L4584 199 L4603 198 L4623 196 L4642 195 L4661 193 L4681 191 L4701 188 L4719 185 L4738 181 L4759 178 L4779 175 L4797 173 L4816 171 L4836 168 L4854 166 L4874 164 L4893 161 L4913 160 L4932 158 L4952 156 L4970 155 L4999 153 L5047 152 L5084 150 L5098 148 L5111 146 L5128 145 L5146 144 L5165 143 L5184 142 L5203 141 L5223 139 L5244 138 L5261 137 L5280 136 L5300 135 L5320 134 L5339 132 L5357 131 L5377 129 L5397 128 L5416 126 L5435 124 L5456 122 L5480 119 L5495 116 L5512 114 L5532 111 L5551 109 L5571 107 L5589 105 L5610 102 L5630 100 L5648 98 L5667 95 L5687 93 L5707 91 L5725 90 L5744 88 L5764 87 L5783 85 L5803 83 L5822 82 L5841 80 L5861 78 L5880 76 L5899 74 L5927 73 L5947 71 L5975 68 L6012 65 L6027 61 L6039 57 L6057 55 L6074 53 L6095 51 L6113 49 L6132 48 L6152 47 L6173 46 L6190 44 L6209 41 L6229 39 L6250 36 L6267 34 L6287 30 L6306 26 L6327 23 L6345 20 L6363 18 L6385 15 L6410 13 L6425 10 L6442 8 L6461 6 L6481 4 L6500 2" />
</svg>
