<svg xmlns="http://www.w3.org/2000/svg" version="1.1" viewBox="0 0 6500 1000">
	<path fill="none" stroke="gold" stroke-width="125" stroke-linecap="round" stroke-linejoin="round" d="M0 1016  L-717165 1016 L-714561 1016 L-712893 1016 L-694564 1016 L-694394 1016 L-687236 1016 L-687203 1016 L-673772 1016 L-670850 1016 L-657509 1016 L-653340 1016 L-652180 1015 L-651561 1015 L-649549 1015 L-645777 1015 L-645177 1015 L-644849 1014 L-644636 1014 L-644094 1014 L-642856 1014 L-641677 1013 L-638812 1013 L-638290 1012 L-633435 1012 L-630497 1012 L-630455 1012 L-630146 1012 L-629894 1012 L-627299 1012 L-623044 1012 L-623026 1012 L-621789 1012 L-619912 1012 L-617958 1012 L-617010 1012 L-616739 1011 L-616430 1011 L-616332 1011 L-615501 1011 L-613470 1011 L-613180 1011 L-611034 1011 L-610878 1010 L-607222 1010 L-606971 1010 L-606872 1010 L-606355 1010 L-604204 1010 L-603275 1011 L-601749 1011 L-600509 1011 L-598963 1011 L-596001 1011 L-594879 1011 L-594570 1011 L-593359 1011 L-590352 1011 L-590333 1011 L-589985 1011 L-589772 1011 L-589646 1010 L-589404 1010 L-589366 1010 L-589347 1010 L-589327 1010 L-589269 1010 L-589210 1010 L-589192 1009 L-588749 1009 L-587509 1009 L-585964 1009 L-582576 1009 L-576850 1009 L-576648 1009 L-575012 1009 L-573290 1009 L-571858 1009 L-571626 1009 L-570911 1009 L-564778 1009 L-564411 1008 L-564256 1008 L-563678 1008 L-563385 1008 L-562418 1008 L-562108 1008 L-561509 1008 L-559903 1008 L-559168 1008 L-558858 1008 L-558090 1008 L-556054 1008 L-555629 1008 L-554816 1008 L-547387 1007 L-546864 1007 L-546691 1007 L-545956 1007 L-544388 1007 L-543982 1007 L-541757 1007 L-540809 1007 L-540385 1007 L-540054 1007 L-539010 1007 L-536902 1006 L-536650 1006 L-536031 1006 L-535219 1006 L-533111 1006 L-533062 1006 L-531134 1006 L-530808 1006 L-530673 1006 L-530170 1006 L-528757 1005 L-528254 1005 L-527733 1005 L-524173 1005 L-523438 1005 L-521013 1005 L-519724 1004 L-519317 1004 L-516164 1004 L-516009 1004 L-515989 1004 L-515623 1004 L-514364 1005 L-513649 1005 L-512759 1005 L-512352 1005 L-511424 1005 L-510315 1005 L-510012 1005 L-503763 1005 L-502816 1005 L-501190 1005 L-500688 1005 L-497012 1005 L-496180 1005 L-492227 1005 L-490815 1005 L-488326 1005 L-487649 1005 L-487610 1005 L-486740 1005 L-483528 1005 L-480665 1005 L-479697 1005 L-478576 1005 L-478557 1004 L-476932 1004 L-476468 1004 L-476376 1004 L-470007 1004 L-469058 1004 L-466601 1004 L-465729 1004 L-464493 1004 L-462491 1004 L-462094 1004 L-460657 1003 L-458631 1003 L-458418 1003 L-457238 1003 L-455730 1003 L-455709 1003 L-453697 1003 L-452828 1003 L-451957 1003 L-451372 1003 L-450835 1003 L-450177 1003 L-448939 1002 L-448378 1002 L-447197 1002 L-445960 1002 L-445921 1002 L-445534 1002 L-444993 1002 L-444219 1002 L-443097 1002 L-441007 1002 L-440674 1002 L-440388 1002 L-439460 1002 L-438977 1001 L-438241 1001 L-434610 1001 L-433482 1001 L-433327 1001 L-432301 1001 L-428587 1001 L-427369 1001 L-425551 1001 L-422765 1001 L-422204 1001 L-418316 1001 L-415839 1001 L-414504 1001 L-414001 1001 L-413518 1000 L-410829 1000 L-407057 1000 L-404600 1000 L-403420 1000 L-402781 1000 L-400421 1000 L-400344 1000 L-399296 1000 L-399203 1000 L-398700 1000 L-398254 1000 L-398197 1000 L-397983 1000 L-395024 1000 L-392316 1000 L-392161 1000 L-388640 1000 L-388117 1000 L-387150 1000 L-386801 999 L-385757 999 L-384829 999 L-384403 999 L-382894 999 L-381927 999 L-381908 999 L-380012 995 L-379896 991 L-379848 986 L-379824 982 L-376820 982 L-374789 982 L-373028 982 L-372661 982 L-372216 982 L-371849 982 L-371435 982 L-369450 981 L-369237 981 L-369082 981 L-367476 981 L-366355 981 L-365406 981 L-364149 981 L-362504 981 L-361325 981 L-354735 981 L-354689 981 L-354283 981 L-353238 981 L-353103 981 L-351420 981 L-351400 981 L-350063 980 L-348827 980 L-348673 980 L-348299 980 L-348093 980 L-347783 980 L-347009 980 L-344688 980 L-344030 980 L-341902 980 L-340180 980 L-339986 980 L-337433 980 L-337157 979 L-336969 979 L-336136 979 L-335364 979 L-334666 979 L-329665 979 L-329289 979 L-325036 979 L-324549 985 L-324530 985 L-324451 985 L-324375 985 L-324356 979 L-323543 979 L-322789 979 L-321570 979 L-320138 979 L-320042 978 L-319867 978 L-319513 978 L-318204 978 L-316346 978 L-314644 978 L-314141 978 L-313876 978 L-313483 978 L-313349 978 L-312439 978 L-312063 978 L-311134 978 L-310795 978 L-310755 978 L-310718 978 L-308802 978 L-308628 978 L-307100 978 L-306771 978 L-306655 977 L-306248 977 L-305900 977 L-304256 977 L-303705 977 L-303462 977 L-302921 977 L-302090 977 L-301548 977 L-300013 977 L-299921 977 L-299884 977 L-299748 977 L-299361 977 L-298336 976 L-296460 976 L-296364 976 L-295763 978 L-295396 980 L-294912 982 L-294874 984 L-294100 984 L-294042 984 L-293868 984 L-293674 984 L-292069 984 L-292049 984 L-291894 984 L-291778 984 L-290599 984 L-290444 984 L-289777 984 L-287329 989 L-284814 994 L-282144 998 L-274445 1003 L-268777 1003 L-266563 1003 L-266539 1003 L-265566 1004 L-265546 1004 L-264682 1004 L-261942 1004 L-256143 1003 L-255990 1003 L-253204 1003 L-239595 1002 L-238850 1002 L-234439 1002 L-218093 1002 L-217861 1002 L-217323 1002 L-208864 1002 L-200158 1002 L-199946 1002 L-197974 1002 L-195187 1002 L-190700 1002 L-190545 1002 L-190376 1002 L-190236 1002 L-189945 1002 L-189906 1002 L-189635 1001 L-189464 1001 L-189054 1001 L-187933 1001 L-186753 1001 L-185476 1001 L-182612 1001 L-179692 1001 L-177700 1001 L-176152 1001 L-173114 1001 L-163790 1001 L-163266 1001 L-157542 1001 L-156035 1001 L-155220 1001 L-153537 1001 L-152816 1001 L-152647 1000 L-151602 1000 L-149535 1000 L-148173 1000 L-143730 1000 L-143632 1000 L-143594 1000 L-143575 1000 L-142742 1000 L-142665 1000 L-140092 1000 L-136843 1000 L-136688 1000 L-135740 1000 L-133999 1000 L-133283 1000 L-129742 1000 L-123165 1001 L-121748 1001 L-121727 1001 L-120777 1001 L-117302 1001 L-116549 1001 L-115987 1001 L-115205 1001 L-107701 1001 L-106103 1000 L-104529 1000 L-101343 1000 L-97010 1000 L-88441 1000 L-79694 1000 L-76620 1000 L-73354 1000 L-72808 1000 L-65671 1000 L-60003 1000 L-45939 1000 L-39927 1000 L-35221 1000 L-31218 1000 L-26110 1000 L-16396 1000 L-826 1000 L2256 999 L2558 974 L2578 942 L2597 906 L2617 866 L2636 847 L2656 832 L2674 817 L2702 803 L2723 790 L2750 775 L2786 759 L2799 746 L2812 734 L2831 725 L2850 717 L2870 710 L2888 703 L2907 696 L2927 688 L2948 681 L2965 673 L2984 666 L3004 659 L3024 652 L3043 644 L3061 636 L3081 628 L3101 620 L3120 613 L3139 605 L3160 598 L3185 591 L3199 585 L3216 578 L3236 571 L3255 565 L3274 558 L3293 551 L3313 544 L3334 537 L3352 531 L3371 525 L3391 520 L3412 514 L3429 510 L3448 505 L3468 501 L3487 497 L3507 493 L3525 489 L3545 486 L3565 483 L3584 480 L3603 477 L3630 473 L3651 469 L3679 465 L3713 460 L3727 456 L3740 452 L3759 449 L3778 446 L3798 443 L3816 440 L3836 436 L3856 433 L3876 430 L3893 427 L3912 424 L3933 421 L3952 417 L3971 413 L3990 409 L4010 404 L4029 400 L4048 395 L4067 391 L4088 385 L4112 380 L4127 374 L4144 369 L4164 364 L4183 358 L4203 353 L4222 347 L4242 342 L4262 336 L4280 331 L4299 326 L4319 321 L4340 316 L4358 312 L4377 308 L4397 303 L4415 300 L4435 296 L4454 292 L4474 288 L4493 284 L4513 280 L4531 277 L4560 273 L4580 269 L4608 266 L4645 261 L4660 257 L4672 254 L4689 250 L4706 247 L4726 245 L4745 243 L4764 241 L4784 238 L4805 236 L4822 234 L4841 231 L4861 229 L4881 226 L4899 223 L4918 220 L4938 217 L4958 213 L4977 210 L4996 206 L5017 203 L5041 200 L5056 196 L5073 193 L5093 190 L5112 186 L5132 183 L5150 179 L5170 175 L5191 172 L5209 168 L5228 165 L5248 162 L5268 159 L5286 156 L5305 153 L5325 151 L5344 148 L5364 145 L5383 142 L5402 139 L5422 137 L5441 134 L5460 131 L5488 129 L5508 126 L5536 123 L5572 119 L5587 115 L5600 111 L5617 108 L5635 106 L5655 103 L5674 101 L5693 98 L5713 95 L5734 92 L5753 88 L5770 85 L5790 81 L5810 77 L5828 73 L5847 69 L5867 65 L5888 60 L5905 57 L5924 53 L5946 51 L5970 49 L5985 47 L6003 45 L6022 43 L6041 40 L6060 38 L6079 36 L6099 34 L6120 32 L6137 30 L6157 28 L6177 26 L6198 23 L6215 20 L6234 18 L6254 16 L6273 15 L6292 14 L6311 12 L6331 11 L6351 9 L6370 8 L6388 6 L6416 5 L6437 4 L6465 2 L6500 0" />
</svg>
