<svg xmlns="http://www.w3.org/2000/svg" version="1.1" viewBox="0 0 6500 1000">
	<path fill="none" stroke="gold" stroke-width="125" stroke-linecap="round" stroke-linejoin="round" d="M0 19769  L-262287 19769 L-259683 19688 L-258015 19608 L-239685 19446 L-239515 19285 L-232357 19124 L-232324 19124 L-218893 19043 L-215971 19124 L-202630 18882 L-198461 18559 L-197301 18156 L-196682 17753 L-194670 17511 L-190898 17350 L-190298 17188 L-189970 17027 L-189757 16866 L-189215 16704 L-187977 16059 L-186798 15414 L-183934 14769 L-183411 14124 L-178556 13962 L-175619 13801 L-175576 13640 L-175267 13479 L-175015 13317 L-172420 13156 L-168165 13156 L-168147 13156 L-166910 13156 L-165033 13156 L-163079 12995 L-162131 12833 L-161861 12672 L-161551 12591 L-161453 12511 L-160622 12511 L-158591 12591 L-158301 11866 L-156155 11543 L-155999 11059 L-152343 10575 L-152092 10817 L-151993 10737 L-151476 10979 L-149325 11382 L-148396 11785 L-146870 12188 L-145631 12188 L-144084 12108 L-141122 11946 L-140000 11785 L-139691 11624 L-138480 11543 L-135473 12430 L-135454 12350 L-135106 12269 L-134893 12188 L-134767 11059 L-134525 10898 L-134488 10737 L-134468 10575 L-134449 10414 L-134390 10253 L-134331 10091 L-134313 9930 L-133870 9769 L-132631 9608 L-131085 9446 L-127697 9285 L-121971 9204 L-121769 9124 L-120133 9043 L-118411 8962 L-116979 8882 L-116747 8801 L-116032 8720 L-109900 8640 L-109532 8479 L-109377 8317 L-108799 8156 L-108506 7995 L-107539 7833 L-107230 7672 L-106631 7511 L-105024 7511 L-104289 7511 L-103979 7591 L-103211 7591 L-101175 7430 L-100750 7269 L-99937 7188 L-92509 7027 L-91985 6866 L-91812 6704 L-91077 6543 L-89509 6382 L-89104 6301 L-86879 6140 L-85931 6059 L-85506 5979 L-85175 5979 L-84132 5898 L-82023 5737 L-81771 5575 L-81152 5414 L-80340 5333 L-78232 5172 L-78183 5011 L-76255 4850 L-75929 4688 L-75794 4527 L-75291 4446 L-73879 4285 L-73376 3962 L-72854 3720 L-69294 3398 L-68559 3075 L-66134 3075 L-64845 2914 L-64438 2833 L-61285 2833 L-61131 2833 L-61110 2914 L-60744 2914 L-59485 2995 L-58770 3075 L-57881 3075 L-57474 3075 L-56545 3075 L-55436 2995 L-55133 3317 L-48884 3479 L-47937 3640 L-46311 3801 L-45809 3882 L-42133 3962 L-41301 4043 L-37348 4124 L-35936 3882 L-33447 3720 L-32770 3559 L-32732 3479 L-31861 3479 L-28650 3398 L-25786 3317 L-24818 3237 L-23697 3075 L-23678 2914 L-22053 2753 L-21589 2511 L-21497 2430 L-15128 2350 L-14179 2269 L-11722 2188 L-10850 2027 L-9614 1946 L-7612 1866 L-7215 1704 L-5779 1543 L-3752 1462 L-3539 1301 L-2359 1220 L-851 1140 L-831 1059 L1181 979 L2050 817 L2921 737 L3506 575 L4043 414 L4701 253 L5939 91 L6500 11" />
</svg>
