<svg xmlns="http://www.w3.org/2000/svg" version="1.1" viewBox="0 0 6500 1000">
	<path fill="none" stroke="gold" stroke-width="125" stroke-linecap="round" stroke-linejoin="round" d="M0 1018  L-716513 1018 L-713909 1018 L-712241 1018 L-693912 1017 L-693741 1017 L-686584 1017 L-686551 1017 L-673120 1017 L-670198 1017 L-656857 1017 L-652688 1017 L-651528 1016 L-650909 1016 L-648897 1016 L-645125 1016 L-644525 1016 L-644196 1016 L-643983 1015 L-643442 1015 L-642204 1015 L-641025 1014 L-638160 1014 L-637638 1013 L-632783 1013 L-629845 1013 L-629802 1013 L-629494 1013 L-629242 1013 L-626647 1013 L-622392 1013 L-622374 1013 L-621137 1013 L-619259 1013 L-617306 1013 L-616358 1012 L-616087 1012 L-615777 1012 L-615679 1012 L-614849 1012 L-612818 1012 L-612528 1012 L-610381 1011 L-610226 1011 L-606569 1011 L-606318 1011 L-606220 1011 L-605703 1011 L-603552 1011 L-602623 1012 L-601097 1012 L-599857 1012 L-598311 1012 L-595349 1012 L-594227 1012 L-593918 1011 L-592707 1011 L-589700 1012 L-589680 1012 L-589333 1012 L-589120 1012 L-588994 1011 L-588752 1011 L-588714 1011 L-588695 1011 L-588675 1011 L-588616 1010 L-588558 1010 L-588540 1010 L-588097 1010 L-586857 1010 L-585311 1010 L-581924 1010 L-576198 1010 L-575996 1010 L-574360 1010 L-572638 1009 L-571206 1009 L-570974 1009 L-570258 1009 L-564126 1009 L-563758 1009 L-563604 1009 L-563026 1009 L-562733 1009 L-561766 1009 L-561456 1008 L-560857 1008 L-559251 1008 L-558516 1008 L-558206 1008 L-557438 1008 L-555402 1008 L-554976 1008 L-554164 1008 L-546735 1008 L-546212 1008 L-546039 1008 L-545304 1008 L-543736 1007 L-543330 1007 L-541105 1007 L-540157 1007 L-539732 1007 L-539402 1007 L-538358 1007 L-536250 1007 L-535998 1007 L-535379 1007 L-534566 1007 L-532458 1007 L-532410 1006 L-530482 1006 L-530156 1006 L-530021 1006 L-529518 1006 L-528105 1006 L-527602 1006 L-527080 1005 L-523521 1005 L-522786 1005 L-520361 1005 L-519072 1005 L-518665 1005 L-515512 1005 L-515357 1005 L-515337 1005 L-514970 1005 L-513712 1005 L-512997 1005 L-512107 1005 L-511700 1005 L-510772 1005 L-509663 1005 L-509360 1005 L-503111 1005 L-502164 1005 L-500537 1006 L-500036 1006 L-496360 1006 L-495528 1006 L-491575 1006 L-490163 1006 L-487673 1005 L-486997 1005 L-486958 1005 L-486087 1005 L-482876 1005 L-480013 1005 L-479045 1005 L-477924 1005 L-477905 1005 L-476280 1005 L-475816 1005 L-475724 1004 L-469354 1004 L-468406 1004 L-465949 1004 L-465076 1004 L-463840 1004 L-461839 1004 L-461442 1004 L-460005 1004 L-457979 1004 L-457766 1004 L-456586 1004 L-455077 1003 L-455057 1003 L-453045 1003 L-452176 1003 L-451305 1003 L-450720 1003 L-450183 1003 L-449525 1003 L-448287 1003 L-447726 1003 L-446545 1003 L-445308 1002 L-445269 1002 L-444882 1002 L-444340 1002 L-443567 1002 L-442444 1002 L-440355 1002 L-440022 1002 L-439736 1002 L-438808 1002 L-438324 1002 L-437589 1002 L-433958 1001 L-432830 1001 L-432675 1001 L-431649 1001 L-427935 1001 L-426717 1001 L-424899 1001 L-422113 1001 L-421552 1001 L-417664 1001 L-415187 1001 L-413852 1001 L-413349 1001 L-412866 1001 L-410176 1001 L-406405 1001 L-403948 1001 L-402768 1001 L-402129 1000 L-399769 1000 L-399692 1000 L-398644 1000 L-398551 1000 L-398048 1000 L-397602 1000 L-397545 1000 L-397331 1000 L-394371 1000 L-391664 1000 L-391509 1000 L-387988 1000 L-387465 1000 L-386498 1000 L-386149 999 L-385105 999 L-384177 999 L-383751 999 L-382242 999 L-381275 999 L-381256 999 L-379360 995 L-379244 990 L-379196 985 L-379172 981 L-376168 981 L-374137 981 L-372376 981 L-372009 981 L-371563 980 L-371196 980 L-370783 980 L-368798 980 L-368584 980 L-368429 980 L-366824 980 L-365702 980 L-364754 980 L-363497 980 L-361852 980 L-360673 980 L-354083 980 L-354037 980 L-353631 979 L-352586 979 L-352450 979 L-350768 979 L-350748 979 L-349411 979 L-348175 979 L-348021 979 L-347647 979 L-347441 979 L-347131 979 L-346357 979 L-344036 978 L-343378 978 L-341250 978 L-339528 978 L-339334 978 L-336781 978 L-336505 978 L-336316 978 L-335484 978 L-334711 978 L-334013 978 L-329013 978 L-328637 978 L-324384 978 L-323897 984 L-323878 984 L-323799 984 L-323723 983 L-323704 977 L-322891 977 L-322137 977 L-320918 977 L-319486 977 L-319390 977 L-319215 977 L-318861 977 L-317552 977 L-315694 977 L-313992 977 L-313489 976 L-313224 976 L-312831 976 L-312696 976 L-311787 976 L-311410 976 L-310482 976 L-310143 976 L-310103 976 L-310065 976 L-308150 976 L-307976 976 L-306447 976 L-306119 976 L-306003 976 L-305596 976 L-305248 976 L-303604 976 L-303053 975 L-302810 975 L-302269 975 L-301437 975 L-300896 975 L-299361 975 L-299269 975 L-299232 975 L-299096 975 L-298709 975 L-297684 975 L-295808 975 L-295711 975 L-295111 977 L-294744 979 L-294259 981 L-294221 983 L-293448 983 L-293390 983 L-293215 983 L-293022 983 L-291417 983 L-291397 983 L-291241 983 L-291126 983 L-289946 983 L-289792 983 L-289125 983 L-286677 988 L-284162 993 L-281492 998 L-273793 1003 L-268125 1003 L-265910 1003 L-265887 1003 L-264913 1004 L-264893 1004 L-264030 1004 L-261289 1004 L-255491 1003 L-255337 1003 L-252552 1003 L-238943 1003 L-238197 1003 L-233787 1002 L-217440 1002 L-217208 1002 L-216671 1002 L-208212 1002 L-199506 1002 L-199294 1002 L-197321 1002 L-194535 1002 L-190048 1002 L-189893 1002 L-189724 1002 L-189583 1002 L-189293 1002 L-189254 1002 L-188983 1002 L-188812 1002 L-188401 1002 L-187281 1001 L-186101 1001 L-184824 1001 L-181960 1001 L-179040 1001 L-177048 1001 L-175500 1001 L-172462 1001 L-163138 1001 L-162614 1001 L-156890 1001 L-155383 1001 L-154568 1001 L-152885 1001 L-152164 1001 L-151995 1001 L-150950 1000 L-148883 1000 L-147521 1000 L-143077 1000 L-142980 1000 L-142942 1000 L-142923 1000 L-142090 1000 L-142012 1000 L-139440 1000 L-136191 1000 L-136036 1000 L-135087 1000 L-133346 1000 L-132631 1000 L-129090 1000 L-122513 1001 L-121096 1001 L-121075 1001 L-120124 1001 L-116650 1001 L-115897 1001 L-115335 1001 L-114553 1001 L-107049 1001 L-105450 1001 L-103876 1000 L-100691 1000 L-96358 1000 L-87788 1000 L-79042 1000 L-75968 1000 L-72702 1000 L-72156 1000 L-65018 1000 L-59351 1000 L-45286 1000 L-39275 1000 L-34569 1000 L-30565 1000 L-25458 1000 L-15744 1000 L-173 1000 L2908 999 L3211 972 L3230 938 L3249 899 L3269 856 L3288 836 L3308 819 L3326 804 L3354 789 L3375 774 L3403 759 L3438 742 L3452 727 L3465 715 L3483 704 L3502 697 L3522 689 L3540 681 L3560 673 L3579 665 L3600 657 L3617 649 L3636 641 L3657 634 L3676 626 L3695 618 L3714 609 L3733 601 L3754 592 L3772 584 L3791 576 L3812 569 L3837 561 L3851 554 L3869 547 L3888 540 L3908 533 L3927 525 L3946 517 L3966 510 L3986 503 L4004 496 L4023 490 L4044 484 L4064 478 L4081 474 L4100 469 L4120 464 L4139 460 L4159 455 L4178 451 L4198 448 L4217 445 L4236 441 L4255 438 L4282 434 L4303 430 L4331 425 L4365 420 L4379 415 L4392 411 L4411 408 L4430 405 L4450 402 L4468 398 L4488 395 L4508 391 L4528 388 L4546 385 L4565 381 L4585 378 L4605 374 L4623 370 L4642 365 L4662 360 L4682 355 L4700 350 L4719 345 L4740 340 L4765 334 L4779 328 L4797 322 L4816 317 L4836 311 L4855 305 L4874 299 L4894 293 L4914 287 L4933 282 L4951 276 L4972 271 L4992 266 L5010 261 L5029 256 L5049 252 L5068 248 L5087 244 L5106 239 L5126 236 L5145 231 L5165 227 L5184 223 L5212 219 L5232 215 L5260 212 L5297 207 L5312 202 L5325 198 L5342 194 L5359 192 L5379 189 L5397 187 L5416 184 L5436 182 L5457 180 L5474 177 L5493 174 L5513 172 L5533 169 L5552 166 L5570 162 L5590 159 L5610 155 L5629 151 L5648 148 L5669 144 L5693 141 L5708 137 L5725 133 L5745 130 L5764 126 L5784 122 L5803 118 L5823 114 L5843 111 L5861 107 L5880 104 L5900 100 L5921 97 L5938 94 L5957 91 L5977 88 L5996 85 L6016 82 L6035 79 L6055 76 L6074 73 L6093 70 L6112 67 L6140 64 L6160 61 L6188 58 L6225 53 L6239 49 L6252 45 L6269 42 L6287 40 L6307 37 L6326 34 L6346 31 L6365 28 L6386 25 L6405 21 L6422 17 L6442 13 L6463 9 L6481 5 L6500 0" />
</svg>
