<svg xmlns="http://www.w3.org/2000/svg" version="1.1" viewBox="0 0 6500 1000">
	<path fill="none" stroke="gold" stroke-width="125" stroke-linecap="round" stroke-linejoin="round" d="M0 58496  L-520720 58496 L-518116 58270 L-516448 58045 L-498118 57593 L-497948 57142 L-490790 56690 L-490757 56690 L-477326 56465 L-474405 56690 L-461064 56013 L-456895 55110 L-455735 53981 L-455116 52853 L-453104 52176 L-449332 51724 L-448732 51273 L-448403 50821 L-448190 50370 L-447648 49918 L-446410 48112 L-445231 46306 L-442367 44501 L-441845 42695 L-436989 42243 L-434052 41792 L-434009 41340 L-433701 40889 L-433449 40437 L-430854 39986 L-426598 39986 L-426581 39986 L-425344 39986 L-423466 39986 L-421513 39534 L-420565 39083 L-420294 38632 L-419984 38406 L-419886 38180 L-419056 38180 L-417025 38406 L-416734 36374 L-414588 35471 L-414433 34117 L-410776 32762 L-410525 33440 L-410427 33214 L-409910 33891 L-407758 35020 L-406830 36148 L-405304 37277 L-404064 37277 L-402518 37051 L-399556 36600 L-398434 36148 L-398125 35697 L-396913 35471 L-393907 37954 L-393887 37729 L-393540 37503 L-393327 37277 L-393200 34117 L-392959 33665 L-392921 33214 L-392901 32762 L-392882 32311 L-392823 31860 L-392764 31408 L-392746 30957 L-392303 30505 L-391064 30054 L-389518 29602 L-386131 29151 L-380404 28925 L-380203 28699 L-378567 28474 L-376845 28248 L-375413 28022 L-375180 27796 L-374465 27571 L-368333 27345 L-367965 26893 L-367811 26442 L-367232 25990 L-366940 25539 L-365973 25088 L-365663 24636 L-365064 24185 L-363458 24185 L-362723 24185 L-362413 24410 L-361645 24410 L-359608 23959 L-359183 23507 L-358371 23282 L-350942 22830 L-350419 22379 L-350245 21927 L-349510 21476 L-347943 21024 L-347537 20799 L-345312 20347 L-344364 20121 L-343939 19896 L-343609 19896 L-342565 19670 L-340457 19218 L-340205 18767 L-339586 18316 L-338773 18090 L-336665 17638 L-336617 17187 L-334689 16735 L-334363 16284 L-334228 15832 L-333725 15607 L-332312 15155 L-331809 14252 L-331287 13575 L-327728 12672 L-326993 11769 L-324568 11769 L-323278 11318 L-322871 11092 L-319719 11092 L-319564 11092 L-319544 11318 L-319177 11318 L-317919 11544 L-317204 11769 L-316314 11769 L-315907 11769 L-314978 11769 L-313870 11544 L-313567 12446 L-307318 12898 L-306370 13349 L-304744 13801 L-304242 14027 L-300567 14252 L-299734 14478 L-295781 14704 L-294369 14027 L-291880 13575 L-291204 13124 L-291165 12898 L-290294 12898 L-287083 12672 L-284220 12446 L-283252 12221 L-282130 11769 L-282111 11318 L-280486 10866 L-280022 10189 L-279930 9963 L-273561 9738 L-272613 9512 L-270156 9286 L-269283 8835 L-268047 8609 L-266046 8383 L-265648 7932 L-264212 7480 L-262186 7255 L-261973 6803 L-260793 6577 L-259284 6352 L-259264 6126 L-257252 5900 L-256382 5449 L-255511 5223 L-254927 4772 L-254389 4320 L-253732 3869 L-252493 3417 L-251933 3191 L-250752 2966 L-249514 2740 L-249476 2514 L-249089 2288 L-248547 1837 L-247773 1611 L-246651 1386 L-244562 934 L-244229 483 L-243943 31 L-243014 -194 L-242531 -645 L-241796 -871 L-238164 -1097 L-237037 -1322 L-236882 -1548 L-235856 -2000 L-232141 -2225 L-230924 -2677 L-229106 -3128 L-226320 -3354 L-225758 -3805 L-221870 -3805 L-219394 -4031 L-218059 -4031 L-217556 -4257 L-217072 -4483 L-214383 -4483 L-210612 -4483 L-208154 -4483 L-206975 -4483 L-206335 -4708 L-203976 -5160 L-203898 -5386 L-202851 -5611 L-202757 -6063 L-202254 -6063 L-201809 -6063 L-201751 -6063 L-201538 -6063 L-198578 -6514 L-195870 -6740 L-195716 -6966 L-192195 -7191 L-191672 -7643 L-190705 -8094 L-190356 -8320 L-189312 -8772 L-188383 -9223 L-187958 -9449 L-186449 -9449 L-185482 -9674 L-185463 -9900 L-183567 -26379 L-183451 -43309 L-183403 -60013 L-183379 -76717 L-180374 -76943 L-178344 -77395 L-176583 -77620 L-176216 -77846 L-175770 -78297 L-175403 -78523 L-174989 -78975 L-173004 -79200 L-172791 -79200 L-172636 -79426 L-171031 -79426 L-169909 -79652 L-168961 -79878 L-167704 -80329 L-166059 -80555 L-164879 -81006 L-158290 -81232 L-158243 -81458 L-157838 -81683 L-156792 -81909 L-156657 -82135 L-154975 -82586 L-154955 -82812 L-153618 -83264 L-152382 -83489 L-152227 -83715 L-151853 -84167 L-151647 -84392 L-151338 -84618 L-150564 -85069 L-148242 -85295 L-147585 -85521 L-145457 -85747 L-143734 -85972 L-143541 -86424 L-140988 -86650 L-140711 -87101 L-140523 -87553 L-139691 -87778 L-138918 -88004 L-138220 -88230 L-133220 -88230 L-132844 -88681 L-128591 -88907 L-128104 -66559 L-128084 -66559 L-128005 -66785 L-127930 -67011 L-127910 -90036 L-127097 -90261 L-126344 -90713 L-125125 -90939 L-123693 -90939 L-123596 -91164 L-123422 -91164 L-123068 -91616 L-121758 -91841 L-119901 -92067 L-118199 -92519 L-117696 -92744 L-117431 -92970 L-117037 -93196 L-116903 -93422 L-115993 -93647 L-115617 -93873 L-114689 -93873 L-114349 -94099 L-114310 -94099 L-114272 -94325 L-112357 -94325 L-112183 -94550 L-110654 -94550 L-110326 -94776 L-110210 -95002 L-109803 -95453 L-109455 -95679 L-107811 -96130 L-107260 -96356 L-107017 -96582 L-106476 -96808 L-105644 -97259 L-105103 -97485 L-103568 -97936 L-103476 -98162 L-103439 -98388 L-103303 -98613 L-102916 -98839 L-101891 -99065 L-100014 -99291 L-99918 -99516 L-99318 -92293 L-98951 -84618 L-98466 -76717 L-98428 -69042 L-97654 -68591 L-97597 -68817 L-97422 -69268 L-97229 -69494 L-95623 -69945 L-95603 -70171 L-95448 -69720 L-95333 -69494 L-94153 -69268 L-93998 -68591 L-93332 -68591 L-90883 -50081 L-88369 -31119 L-85699 -12835 L-77999 5449 L-72332 5449 L-70117 5223 L-70094 5223 L-69120 9738 L-69100 9738 L-68236 9286 L-65496 9060 L-59698 4320 L-59544 3869 L-56758 3643 L-43150 3191 L-42404 2966 L-37993 2514 L-21647 2288 L-21415 1837 L-20878 1611 L-12419 1386 L-3713 1160 L-3501 934 L-1528 708 L1257 708 L5745 934 L5899 708 L6068 708 L6209 483 L6500 31" />
</svg>
