<svg xmlns="http://www.w3.org/2000/svg" version="1.1" viewBox="0 0 6500 1000">
	<path fill="none" stroke="gold" stroke-width="125" stroke-linecap="round" stroke-linejoin="round" d="M0 19995  L-264744 19995 L-262140 19914 L-260472 19834 L-242142 19672 L-241972 19511 L-234814 19350 L-234781 19350 L-221350 19269 L-218428 19350 L-205087 19108 L-200918 18786 L-199758 18383 L-199139 17980 L-197127 17738 L-193356 17577 L-192756 17416 L-192427 17255 L-192214 17094 L-191672 16933 L-190434 16288 L-189255 15643 L-186391 14999 L-185869 14354 L-181013 14193 L-178076 14032 L-178033 13871 L-177724 13709 L-177473 13548 L-174878 13387 L-170622 13387 L-170604 13387 L-169367 13387 L-167490 13387 L-165537 13226 L-164589 13065 L-164318 12904 L-164008 12823 L-163910 12742 L-163079 12742 L-161049 12823 L-160758 12098 L-158612 11775 L-158456 11292 L-154800 10809 L-154549 11050 L-154450 10970 L-153933 11211 L-151782 11614 L-150853 12017 L-149327 12420 L-148088 12420 L-146541 12340 L-143580 12178 L-142458 12017 L-142148 11856 L-140937 11775 L-137931 12662 L-137911 12581 L-137564 12501 L-137350 12420 L-137224 11292 L-136983 11131 L-136945 10970 L-136925 10809 L-136906 10647 L-136847 10486 L-136788 10325 L-136770 10164 L-136327 10003 L-135088 9842 L-133542 9680 L-130154 9519 L-124428 9439 L-124226 9358 L-122591 9278 L-120869 9197 L-119437 9116 L-119204 9036 L-118489 8955 L-112357 8875 L-111989 8713 L-111835 8552 L-111256 8391 L-110964 8230 L-109996 8069 L-109687 7908 L-109088 7746 L-107481 7746 L-106746 7746 L-106437 7827 L-105668 7827 L-103632 7666 L-103207 7505 L-102394 7424 L-94966 7263 L-94443 7102 L-94269 6941 L-93534 6780 L-91966 6618 L-91561 6538 L-89336 6377 L-88388 6296 L-87963 6215 L-87633 6215 L-86589 6135 L-84481 5974 L-84228 5813 L-83610 5651 L-82797 5571 L-80689 5410 L-80641 5248 L-78712 5087 L-78387 4926 L-78252 4765 L-77748 4684 L-76336 4523 L-75833 4201 L-75311 3959 L-71751 3637 L-71016 3315 L-68591 3315 L-67302 3153 L-66895 3073 L-63743 3073 L-63588 3073 L-63567 3153 L-63201 3153 L-61943 3234 L-61228 3315 L-60338 3315 L-59931 3315 L-59002 3315 L-57894 3234 L-57590 3556 L-51342 3717 L-50394 3879 L-48768 4040 L-48266 4120 L-44591 4201 L-43758 4282 L-39805 4362 L-38393 4120 L-35904 3959 L-35228 3798 L-35189 3717 L-34318 3717 L-31107 3637 L-28244 3556 L-27276 3476 L-26154 3315 L-26135 3153 L-24510 2992 L-24046 2751 L-23954 2670 L-17585 2589 L-16636 2509 L-14179 2428 L-13307 2267 L-12071 2186 L-10070 2106 L-9672 1945 L-8236 1784 L-6210 1703 L-5996 1542 L-4816 1461 L-3308 1381 L-3288 1300 L-1276 1219 L-406 1058 L464 978 L1049 817 L1586 655 L2244 494 L3482 333 L4042 253 L5223 172 L6461 91 L6500 11" />
</svg>
