<svg xmlns="http://www.w3.org/2000/svg" version="1.1" viewBox="0 0 6500 1000">
	<path fill="none" stroke="gold" stroke-width="125" stroke-linecap="round" stroke-linejoin="round" d="M0 3982  L-723712 3982 L-721108 3982 L-719440 3981 L-701110 3981 L-700940 3981 L-693782 3980 L-693749 3980 L-680318 3980 L-677396 3980 L-664055 3980 L-659886 3979 L-658726 3978 L-658107 3977 L-656095 3977 L-652324 3976 L-651724 3976 L-651395 3975 L-651182 3975 L-650640 3975 L-649402 3973 L-648223 3972 L-645359 3970 L-644837 3969 L-639981 3968 L-637044 3968 L-637001 3968 L-636693 3967 L-636441 3967 L-633846 3967 L-629590 3967 L-629572 3967 L-628336 3967 L-626458 3967 L-624505 3966 L-623557 3966 L-623286 3965 L-622976 3965 L-622878 3965 L-622048 3965 L-620017 3965 L-619726 3964 L-617580 3963 L-617424 3962 L-613768 3961 L-613517 3961 L-613418 3961 L-612901 3962 L-610750 3962 L-609821 3963 L-608295 3964 L-607056 3964 L-605509 3964 L-602548 3964 L-601426 3963 L-601116 3963 L-599905 3963 L-596899 3965 L-596879 3965 L-596532 3965 L-596318 3964 L-596192 3962 L-595951 3961 L-595913 3961 L-595893 3961 L-595874 3960 L-595815 3960 L-595756 3960 L-595738 3959 L-595295 3959 L-594056 3958 L-592510 3958 L-589122 3958 L-583396 3957 L-583194 3957 L-581559 3957 L-579837 3957 L-578405 3957 L-578172 3957 L-577457 3956 L-571325 3956 L-570957 3956 L-570803 3955 L-570224 3955 L-569932 3955 L-568964 3954 L-568655 3954 L-568056 3954 L-566449 3954 L-565714 3954 L-565405 3954 L-564636 3954 L-562600 3953 L-562175 3953 L-561362 3953 L-553934 3952 L-553411 3952 L-553237 3952 L-552502 3951 L-550934 3951 L-550529 3951 L-548304 3950 L-547356 3950 L-546931 3950 L-546601 3950 L-545557 3950 L-543449 3950 L-543196 3949 L-542578 3949 L-541765 3949 L-539657 3948 L-539609 3948 L-537680 3947 L-537355 3947 L-537220 3947 L-536716 3947 L-535304 3946 L-534801 3945 L-534279 3945 L-530719 3944 L-529984 3943 L-527559 3943 L-526270 3943 L-525863 3943 L-522711 3943 L-522556 3943 L-522535 3943 L-522169 3943 L-520911 3943 L-520196 3943 L-519306 3943 L-518899 3943 L-517970 3943 L-516862 3943 L-516558 3944 L-510310 3944 L-509362 3945 L-507736 3945 L-507234 3945 L-503559 3945 L-502726 3946 L-498773 3946 L-497361 3945 L-494872 3945 L-494196 3945 L-494157 3944 L-493286 3944 L-490075 3944 L-487212 3944 L-486244 3944 L-485122 3943 L-485103 3943 L-483478 3943 L-483014 3942 L-482922 3942 L-476553 3942 L-475604 3942 L-473147 3941 L-472275 3941 L-471039 3941 L-469038 3941 L-468640 3940 L-467204 3940 L-465178 3940 L-464964 3939 L-463784 3939 L-462276 3939 L-462256 3939 L-460244 3939 L-459374 3938 L-458503 3938 L-457918 3938 L-457381 3937 L-456723 3937 L-455485 3937 L-454925 3936 L-453744 3936 L-452506 3936 L-452468 3936 L-452081 3936 L-451539 3935 L-450765 3935 L-449643 3935 L-447554 3935 L-447220 3934 L-446935 3934 L-446006 3934 L-445523 3933 L-444787 3933 L-441156 3933 L-440029 3933 L-439874 3932 L-438848 3932 L-435133 3932 L-433916 3932 L-432097 3931 L-429312 3931 L-428750 3931 L-424862 3931 L-422386 3930 L-421051 3930 L-420547 3930 L-420064 3930 L-417375 3930 L-413603 3930 L-411146 3930 L-409966 3930 L-409327 3930 L-406968 3930 L-406890 3929 L-405843 3929 L-405749 3929 L-405246 3929 L-404801 3929 L-404743 3929 L-404529 3929 L-401570 3928 L-398862 3928 L-398707 3928 L-395187 3928 L-394664 3927 L-393696 3927 L-393347 3927 L-392304 3927 L-391375 3926 L-390949 3926 L-389440 3926 L-388474 3926 L-388455 3926 L-386559 3912 L-386443 3898 L-386395 3884 L-386370 3871 L-383366 3871 L-381335 3870 L-379575 3870 L-379208 3870 L-378762 3869 L-378395 3869 L-377981 3869 L-375996 3869 L-375783 3869 L-375628 3869 L-374023 3869 L-372901 3868 L-371953 3868 L-370695 3868 L-369051 3868 L-367871 3867 L-361282 3867 L-361235 3867 L-360829 3867 L-359784 3867 L-359649 3866 L-357966 3866 L-357946 3866 L-356610 3865 L-355373 3865 L-355219 3865 L-354845 3865 L-354639 3864 L-354330 3864 L-353556 3864 L-351234 3864 L-350576 3864 L-348449 3863 L-346726 3863 L-346533 3863 L-343979 3863 L-343703 3862 L-343515 3862 L-342682 3862 L-341910 3862 L-341212 3861 L-336211 3861 L-335835 3861 L-331583 3861 L-331095 3879 L-331076 3879 L-330997 3879 L-330922 3879 L-330902 3860 L-330089 3860 L-329336 3859 L-328116 3859 L-326685 3859 L-326588 3859 L-326414 3859 L-326059 3859 L-324750 3858 L-322893 3858 L-321190 3858 L-320688 3858 L-320422 3857 L-320029 3857 L-319895 3857 L-318985 3857 L-318609 3857 L-317680 3857 L-317341 3857 L-317302 3857 L-317264 3856 L-315348 3856 L-315175 3856 L-313646 3856 L-313318 3856 L-313202 3856 L-312795 3855 L-312446 3855 L-310803 3855 L-310252 3855 L-310009 3854 L-309467 3854 L-308636 3854 L-308094 3854 L-306560 3853 L-306468 3853 L-306431 3853 L-306295 3853 L-305908 3853 L-304883 3852 L-303006 3852 L-302910 3852 L-302310 3858 L-301943 3864 L-301458 3871 L-301420 3877 L-300646 3877 L-300589 3877 L-300414 3877 L-300221 3877 L-298615 3876 L-298595 3876 L-298440 3877 L-298325 3877 L-297145 3877 L-296990 3877 L-296323 3877 L-293875 3893 L-291360 3908 L-288690 3923 L-280991 3938 L-275324 3938 L-273109 3938 L-273086 3938 L-272112 3942 L-272092 3942 L-271228 3941 L-268488 3941 L-262689 3937 L-262536 3937 L-259750 3937 L-246142 3936 L-245396 3936 L-240985 3936 L-224639 3936 L-224407 3935 L-223870 3935 L-215410 3935 L-206705 3935 L-206492 3935 L-204520 3934 L-201734 3934 L-197246 3935 L-197091 3934 L-196922 3934 L-196782 3934 L-196491 3934 L-196453 3934 L-196182 3933 L-196010 3933 L-195600 3933 L-194479 3933 L-193299 3933 L-192022 3932 L-189158 3932 L-186238 3932 L-184246 3932 L-182698 3932 L-179661 3931 L-170336 3931 L-169812 3931 L-164088 3931 L-162581 3931 L-161767 3931 L-160083 3930 L-159362 3930 L-159194 3930 L-158148 3930 L-156081 3930 L-154719 3930 L-150276 3929 L-150179 3929 L-150140 3929 L-150121 3929 L-149289 3929 L-149211 3928 L-146638 3928 L-143389 3928 L-143234 3928 L-142286 3927 L-140545 3927 L-139829 3928 L-136289 3929 L-129711 3930 L-128294 3932 L-128273 3932 L-127323 3931 L-123848 3931 L-123095 3931 L-122534 3931 L-121751 3930 L-114247 3930 L-112649 3930 L-111075 3930 L-107890 3930 L-103557 3930 L-94987 3929 L-86241 3929 L-83167 3929 L-79901 3929 L-79354 3929 L-72217 3928 L-66549 3928 L-52485 3928 L-46473 3929 L-41767 3928 L-37764 3928 L-32656 3928 L-22942 3928 L-7372 3927 L-4289 3927 L-3987 3844 L-3967 3741 L-3948 3624 L-3929 3494 L-3909 3434 L-3890 3384 L-3871 3338 L-3844 3293 L-3823 3249 L-3795 3202 L-3760 3150 L-3746 3107 L-3733 3069 L-3714 3038 L-3696 3015 L-3676 2992 L-3658 2968 L-3638 2945 L-3618 2921 L-3597 2896 L-3580 2872 L-3562 2849 L-3541 2826 L-3521 2803 L-3503 2778 L-3484 2753 L-3464 2726 L-3444 2701 L-3426 2676 L-3407 2653 L-3386 2630 L-3361 2607 L-3346 2586 L-3329 2564 L-3309 2543 L-3290 2522 L-3271 2499 L-3252 2476 L-3232 2454 L-3211 2433 L-3193 2412 L-3175 2393 L-3154 2375 L-3133 2358 L-3116 2344 L-3097 2329 L-3077 2315 L-3058 2302 L-3039 2289 L-3020 2277 L-3000 2267 L-2980 2257 L-2961 2247 L-2943 2237 L-2915 2225 L-2894 2212 L-2867 2197 L-2833 2181 L-2818 2168 L-2805 2157 L-2787 2146 L-2768 2137 L-2748 2128 L-2729 2117 L-2710 2106 L-2690 2095 L-2669 2085 L-2652 2076 L-2633 2066 L-2613 2056 L-2593 2044 L-2574 2031 L-2556 2017 L-2536 2003 L-2516 1988 L-2497 1973 L-2478 1958 L-2457 1941 L-2433 1923 L-2418 1905 L-2401 1888 L-2381 1871 L-2362 1855 L-2342 1837 L-2324 1818 L-2303 1801 L-2283 1783 L-2265 1766 L-2246 1750 L-2226 1734 L-2205 1718 L-2188 1703 L-2169 1690 L-2149 1676 L-2130 1664 L-2110 1652 L-2091 1639 L-2072 1627 L-2052 1615 L-2033 1602 L-2014 1590 L-1985 1578 L-1965 1567 L-1938 1555 L-1900 1541 L-1885 1528 L-1873 1515 L-1856 1504 L-1839 1495 L-1819 1487 L-1800 1480 L-1781 1473 L-1761 1467 L-1741 1459 L-1723 1452 L-1705 1443 L-1684 1435 L-1664 1426 L-1646 1416 L-1627 1407 L-1607 1396 L-1587 1385 L-1569 1374 L-1550 1363 L-1529 1353 L-1504 1341 L-1490 1331 L-1472 1320 L-1452 1308 L-1433 1298 L-1414 1286 L-1395 1274 L-1375 1263 L-1355 1251 L-1336 1240 L-1318 1230 L-1297 1220 L-1277 1210 L-1259 1201 L-1240 1192 L-1220 1183 L-1202 1173 L-1182 1164 L-1163 1155 L-1143 1146 L-1124 1138 L-1104 1129 L-1085 1121 L-1057 1112 L-1037 1103 L-1009 1093 L-973 1079 L-959 1067 L-946 1054 L-928 1044 L-910 1037 L-890 1030 L-872 1022 L-852 1013 L-832 1003 L-811 993 L-793 982 L-776 971 L-755 958 L-735 946 L-717 932 L-698 918 L-678 904 L-658 891 L-640 879 L-621 868 L-600 861 L-575 853 L-560 847 L-543 841 L-524 833 L-504 826 L-485 819 L-466 811 L-446 805 L-425 799 L-408 794 L-389 787 L-368 779 L-348 770 L-331 761 L-312 754 L-291 748 L-273 744 L-253 740 L-234 736 L-214 731 L-195 726 L-176 721 L-157 716 L-129 711 L-108 707 L-81 702 L-46 696 L-32 690 L-19 686 L0 682 L17 678 L37 675 L56 671 L75 667 L95 664 L116 661 L133 657 L152 653 L172 649 L192 645 L210 640 L229 636 L249 633 L269 630 L288 626 L306 622 L328 619 L353 616 L367 612 L384 609 L404 606 L423 602 L443 599 L461 595 L481 590 L502 587 L520 583 L539 580 L559 576 L580 573 L597 570 L616 566 L636 563 L655 560 L675 557 L693 555 L713 553 L733 550 L752 548 L771 552 L800 556 L819 559 L847 563 L884 559 L900 557 L912 554 L930 552 L946 551 L966 549 L984 546 L1004 544 L1024 542 L1045 540 L1062 539 L1080 537 L1101 535 L1121 532 L1139 530 L1158 528 L1178 526 L1198 524 L1216 522 L1235 520 L1256 518 L1281 516 L1296 514 L1313 512 L1332 510 L1352 507 L1371 506 L1390 503 L1410 501 L1431 497 L1448 494 L1467 491 L1488 489 L1508 486 L1526 484 L1545 481 L1565 479 L1583 476 L1603 473 L1622 470 L1642 467 L1661 465 L1681 463 L1699 461 L1727 459 L1748 456 L1776 454 L1810 451 L1824 448 L1837 446 L1856 443 L1875 441 L1895 439 L1913 437 L1932 435 L1952 432 L1973 430 L1990 428 L2009 426 L2030 423 L2049 420 L2068 417 L2086 414 L2106 410 L2127 406 L2145 403 L2164 400 L2185 397 L2210 394 L2225 391 L2242 387 L2261 384 L2281 381 L2300 377 L2319 374 L2339 371 L2360 368 L2377 365 L2396 362 L2417 359 L2437 356 L2454 354 L2473 352 L2493 350 L2512 348 L2532 346 L2551 344 L2570 342 L2590 341 L2609 339 L2628 338 L2656 336 L2676 334 L2704 332 L2740 328 L2753 325 L2766 322 L2785 319 L2803 317 L2823 315 L2841 313 L2861 311 L2881 309 L2902 307 L2919 305 L2937 302 L2958 300 L2978 297 L2996 294 L3015 292 L3035 289 L3055 286 L3073 284 L3092 282 L3114 280 L3138 278 L3153 276 L3170 274 L3190 271 L3209 269 L3228 266 L3247 263 L3267 260 L3288 256 L3305 253 L3325 250 L3345 247 L3366 245 L3383 243 L3402 241 L3422 239 L3441 238 L3460 236 L3479 234 L3499 233 L3519 231 L3538 230 L3556 228 L3584 226 L3605 225 L3632 223 L3667 222 L3681 220 L3694 219 L3713 218 L3732 216 L3751 215 L3770 214 L3789 213 L3809 212 L3830 211 L3847 209 L3866 208 L3886 207 L3906 205 L3925 204 L3943 202 L3963 201 L3983 200 L4002 200 L4021 199 L4042 198 L4066 197 L4081 195 L4098 194 L4118 192 L4137 191 L4157 190 L4176 189 L4195 187 L4216 185 L4234 182 L4253 180 L4273 177 L4294 175 L4311 173 L4330 172 L4350 170 L4369 168 L4389 166 L4408 164 L4428 163 L4447 162 L4466 160 L4485 159 L4514 158 L4561 157 L4598 155 L4613 154 L4626 153 L4643 152 L4660 151 L4680 150 L4698 150 L4718 148 L4738 147 L4758 146 L4776 146 L4794 145 L4815 144 L4834 143 L4853 142 L4872 141 L4892 140 L4912 138 L4930 137 L4949 135 L4970 134 L4995 132 L5010 130 L5027 127 L5047 126 L5066 124 L5085 122 L5104 120 L5124 119 L5145 117 L5163 115 L5181 113 L5202 112 L5222 110 L5240 109 L5259 108 L5279 106 L5298 105 L5317 104 L5336 102 L5356 101 L5375 100 L5395 98 L5414 97 L5442 96 L5462 94 L5490 92 L5527 89 L5541 86 L5554 84 L5572 82 L5589 80 L5609 79 L5627 77 L5647 77 L5667 76 L5688 74 L5705 73 L5723 71 L5744 69 L5764 67 L5782 65 L5801 62 L5821 60 L5842 57 L5859 55 L5878 53 L5899 51 L5924 49 L5939 47 L5957 46 L5975 44 L5996 42 L6014 41 L6033 38 L6053 36 L6074 34 L6091 32 L6111 31 L6131 29 L6152 28 L6169 26 L6188 25 L6207 23 L6226 22 L6246 20 L6265 19 L6285 18 L6305 16 L6324 15 L6342 14 L6370 997 L6391 995 L6418 993 L6454 991 L6468 5 L6482 3 L6500 1" />
</svg>
