<svg xmlns="http://www.w3.org/2000/svg" version="1.1" viewBox="0 0 6500 1000">
	<path fill="none" stroke="gold" stroke-width="125" stroke-linecap="round" stroke-linejoin="round" d="M0 3290  L-728662 3290 L-726058 3290 L-724389 3290 L-706060 3290 L-705890 3290 L-698732 3289 L-698699 3289 L-685268 3289 L-682346 3289 L-669005 3289 L-664836 3288 L-663676 3288 L-663057 3287 L-661045 3286 L-657273 3286 L-656673 3286 L-656345 3286 L-656132 3285 L-655590 3285 L-654352 3284 L-653173 3283 L-650309 3282 L-649786 3280 L-644931 3280 L-641994 3280 L-641951 3280 L-641642 3279 L-641390 3279 L-638795 3279 L-634540 3279 L-634522 3279 L-633285 3279 L-631408 3279 L-629454 3278 L-628506 3278 L-628236 3278 L-627926 3278 L-627828 3278 L-626997 3278 L-624966 3278 L-624676 3277 L-622530 3276 L-622374 3275 L-618718 3274 L-618467 3275 L-618368 3275 L-617851 3275 L-615700 3276 L-614771 3276 L-613245 3277 L-612006 3277 L-610459 3277 L-607497 3277 L-606375 3276 L-606066 3276 L-604855 3276 L-601848 3278 L-601829 3277 L-601481 3277 L-601268 3277 L-601142 3275 L-600900 3275 L-600863 3275 L-600843 3274 L-600824 3274 L-600765 3274 L-600706 3273 L-600688 3273 L-600245 3273 L-599006 3273 L-597460 3272 L-594072 3272 L-588346 3272 L-588144 3272 L-586508 3272 L-584786 3271 L-583354 3271 L-583122 3271 L-582407 3271 L-576275 3271 L-575907 3271 L-575752 3270 L-575174 3270 L-574881 3270 L-573914 3269 L-573605 3269 L-573005 3269 L-571399 3269 L-570664 3269 L-570354 3269 L-569586 3269 L-567550 3269 L-567125 3268 L-566312 3268 L-558883 3268 L-558360 3268 L-558187 3267 L-557452 3267 L-555884 3267 L-555479 3267 L-553254 3266 L-552306 3266 L-551881 3266 L-551550 3266 L-550507 3266 L-548398 3266 L-548146 3265 L-547527 3265 L-546715 3265 L-544607 3265 L-544558 3264 L-542630 3264 L-542304 3264 L-542169 3264 L-541666 3263 L-540253 3263 L-539750 3263 L-539229 3262 L-535669 3262 L-534934 3261 L-532509 3261 L-531220 3261 L-530813 3261 L-527660 3261 L-527505 3261 L-527485 3261 L-527119 3261 L-525860 3261 L-525145 3261 L-524255 3261 L-523848 3261 L-522920 3261 L-521811 3261 L-521508 3261 L-515259 3262 L-514312 3262 L-512686 3262 L-512184 3262 L-508508 3263 L-507676 3263 L-503723 3263 L-502311 3262 L-499822 3262 L-499145 3262 L-499107 3262 L-498236 3262 L-495024 3262 L-492161 3261 L-491193 3261 L-490072 3261 L-490053 3261 L-488428 3260 L-487964 3260 L-487872 3260 L-481503 3260 L-480554 3260 L-478097 3259 L-477225 3259 L-475989 3259 L-473987 3259 L-473590 3259 L-472154 3258 L-470127 3258 L-469914 3258 L-468734 3258 L-467226 3258 L-467206 3257 L-465193 3257 L-464324 3257 L-463453 3257 L-462868 3257 L-462331 3256 L-461673 3256 L-460435 3256 L-459874 3256 L-458693 3255 L-457456 3255 L-457417 3255 L-457030 3255 L-456489 3255 L-455715 3255 L-454593 3254 L-452503 3254 L-452170 3254 L-451884 3254 L-450956 3253 L-450473 3253 L-449737 3253 L-446106 3253 L-444978 3253 L-444824 3253 L-443798 3252 L-440083 3252 L-438866 3252 L-437047 3252 L-434261 3251 L-433700 3251 L-429812 3251 L-427335 3251 L-426001 3251 L-425497 3251 L-425014 3251 L-422325 3251 L-418553 3251 L-416096 3251 L-414916 3251 L-414277 3251 L-411917 3250 L-411840 3250 L-410792 3250 L-410699 3250 L-410196 3250 L-409750 3250 L-409693 3250 L-409479 3250 L-406520 3249 L-403812 3249 L-403657 3249 L-400136 3249 L-399613 3249 L-398646 3248 L-398297 3248 L-397254 3248 L-396325 3248 L-395899 3248 L-394390 3248 L-393423 3247 L-393404 3247 L-391508 3237 L-391392 3226 L-391344 3216 L-391320 3205 L-388316 3205 L-386285 3205 L-384524 3205 L-384157 3204 L-383712 3204 L-383345 3204 L-382931 3204 L-380946 3204 L-380733 3204 L-380578 3203 L-378972 3203 L-377851 3203 L-376902 3203 L-375645 3203 L-374001 3203 L-372821 3203 L-366231 3202 L-366185 3202 L-365779 3202 L-364734 3202 L-364599 3202 L-362916 3202 L-362896 3201 L-361559 3201 L-360323 3201 L-360169 3201 L-359795 3201 L-359589 3200 L-359279 3200 L-358505 3200 L-356184 3200 L-355526 3200 L-353398 3200 L-351676 3199 L-351482 3199 L-348929 3199 L-348653 3199 L-348465 3198 L-347632 3198 L-346860 3198 L-346162 3198 L-341161 3198 L-340785 3198 L-336532 3198 L-336045 3212 L-336026 3212 L-335947 3211 L-335872 3211 L-335852 3197 L-335039 3197 L-334285 3196 L-333066 3196 L-331634 3196 L-331538 3196 L-331364 3196 L-331009 3196 L-329700 3196 L-327843 3196 L-326140 3195 L-325637 3195 L-325372 3195 L-324979 3195 L-324845 3195 L-323935 3195 L-323559 3194 L-322630 3194 L-322291 3194 L-322251 3194 L-322214 3194 L-320298 3194 L-320125 3194 L-318596 3194 L-318267 3194 L-318151 3194 L-317744 3193 L-317396 3193 L-315752 3193 L-315202 3193 L-314958 3193 L-314417 3193 L-313586 3192 L-313044 3192 L-311510 3192 L-311417 3192 L-311380 3192 L-311244 3191 L-310857 3191 L-309832 3191 L-307956 3191 L-307860 3191 L-307259 3195 L-306892 3200 L-306408 3205 L-306370 3210 L-305596 3210 L-305538 3210 L-305364 3210 L-305170 3210 L-303565 3209 L-303545 3209 L-303390 3210 L-303274 3210 L-302095 3210 L-301940 3210 L-301273 3210 L-298825 3222 L-296310 3234 L-293640 3245 L-285941 3257 L-280273 3257 L-278059 3257 L-278035 3257 L-277062 3260 L-277042 3260 L-276178 3259 L-273438 3259 L-267639 3256 L-267486 3256 L-264700 3256 L-251092 3256 L-250346 3255 L-245935 3255 L-229589 3255 L-229357 3255 L-228820 3255 L-220360 3254 L-211654 3254 L-211442 3254 L-209470 3254 L-206683 3254 L-202196 3254 L-202041 3254 L-201872 3254 L-201732 3254 L-201441 3254 L-201402 3253 L-201131 3253 L-200960 3253 L-200550 3253 L-199429 3253 L-198249 3253 L-196972 3253 L-194108 3252 L-191188 3252 L-189196 3252 L-187648 3252 L-184610 3252 L-175286 3252 L-174762 3251 L-169038 3251 L-167531 3251 L-166716 3251 L-165033 3251 L-164312 3251 L-164143 3251 L-163098 3251 L-161031 3250 L-159669 3250 L-155226 3250 L-155128 3250 L-155090 3250 L-155071 3250 L-154238 3250 L-154161 3249 L-151588 3249 L-148339 3249 L-148184 3249 L-147236 3249 L-145495 3248 L-144779 3249 L-141238 3250 L-134661 3251 L-133244 3252 L-133223 3252 L-132273 3252 L-128798 3252 L-128045 3251 L-127483 3251 L-126701 3251 L-119197 3251 L-117599 3251 L-116025 3251 L-112839 3250 L-108506 3250 L-99937 3250 L-91190 3250 L-88116 3250 L-84850 3250 L-84304 3250 L-77167 3249 L-71499 3249 L-57435 3249 L-51423 3250 L-46717 3249 L-42714 3249 L-37606 3249 L-27892 3249 L-12322 3249 L-9239 3248 L-8937 3184 L-8917 3105 L-8898 3016 L-8878 2916 L-8859 2870 L-8840 2831 L-8821 2796 L-8793 2761 L-8772 2727 L-8745 2691 L-8709 2652 L-8696 2618 L-8683 2590 L-8664 2566 L-8645 2548 L-8626 2530 L-8607 2512 L-8588 2494 L-8568 2476 L-8547 2456 L-8530 2438 L-8511 2420 L-8491 2403 L-8471 2385 L-8453 2366 L-8434 2346 L-8414 2326 L-8394 2306 L-8375 2287 L-8357 2269 L-8335 2252 L-8311 2234 L-8296 2218 L-8279 2202 L-8259 2185 L-8240 2169 L-8221 2151 L-8202 2133 L-8182 2117 L-8161 2100 L-8143 2085 L-8124 2070 L-8104 2056 L-8083 2043 L-8066 2032 L-8047 2021 L-8027 2010 L-8008 2000 L-7989 1990 L-7970 1981 L-7950 1973 L-7930 1966 L-7911 1958 L-7892 1950 L-7865 1941 L-7844 1931 L-7816 1920 L-7782 1907 L-7768 1897 L-7755 1889 L-7736 1880 L-7717 1874 L-7697 1866 L-7679 1858 L-7660 1850 L-7640 1841 L-7619 1833 L-7602 1826 L-7583 1819 L-7563 1811 L-7543 1802 L-7524 1792 L-7506 1781 L-7485 1770 L-7466 1759 L-7447 1747 L-7428 1736 L-7407 1723 L-7383 1709 L-7368 1695 L-7351 1682 L-7331 1669 L-7312 1656 L-7292 1643 L-7273 1629 L-7253 1615 L-7233 1602 L-7215 1589 L-7196 1576 L-7176 1564 L-7155 1552 L-7137 1540 L-7118 1530 L-7098 1519 L-7080 1510 L-7060 1500 L-7041 1491 L-7021 1482 L-7002 1472 L-6983 1463 L-6964 1453 L-6935 1444 L-6915 1435 L-6887 1426 L-6850 1415 L-6835 1405 L-6823 1396 L-6806 1387 L-6789 1380 L-6769 1374 L-6750 1369 L-6731 1363 L-6711 1358 L-6690 1353 L-6673 1347 L-6654 1340 L-6634 1334 L-6614 1327 L-6596 1320 L-6577 1312 L-6557 1304 L-6537 1296 L-6518 1287 L-6500 1279 L-6478 1271 L-6454 1262 L-6439 1254 L-6422 1246 L-6402 1237 L-6383 1229 L-6364 1220 L-6345 1211 L-6325 1202 L-6304 1193 L-6286 1184 L-6267 1177 L-6247 1169 L-6227 1161 L-6209 1154 L-6190 1147 L-6170 1140 L-6151 1133 L-6131 1126 L-6113 1119 L-6093 1112 L-6073 1106 L-6054 1099 L-6035 1093 L-6007 1086 L-5987 1079 L-5959 1071 L-5923 1061 L-5909 1051 L-5895 1042 L-5878 1034 L-5860 1029 L-5840 1023 L-5822 1016 L-5802 1010 L-5782 1002 L-5761 994 L-5742 986 L-5725 977 L-5705 968 L-5685 958 L-5667 948 L-5648 937 L-5628 926 L-5608 916 L-5590 907 L-5571 899 L-5550 893 L-5525 887 L-5510 882 L-5492 877 L-5474 872 L-5454 866 L-5435 861 L-5416 855 L-5396 850 L-5375 846 L-5358 842 L-5338 837 L-5318 830 L-5297 823 L-5280 816 L-5261 811 L-5241 807 L-5222 803 L-5203 800 L-5184 797 L-5164 793 L-5144 789 L-5125 785 L-5107 782 L-5079 778 L-5058 775 L-5030 771 L-4996 766 L-4982 762 L-4969 759 L-4950 756 L-4931 753 L-4912 750 L-4893 747 L-4873 744 L-4854 742 L-4833 739 L-4816 736 L-4797 733 L-4776 730 L-4756 727 L-4738 724 L-4720 721 L-4700 718 L-4679 715 L-4661 713 L-4642 710 L-4621 707 L-4596 705 L-4582 702 L-4564 700 L-4545 697 L-4526 695 L-4506 692 L-4487 689 L-4467 685 L-4446 682 L-4429 680 L-4410 677 L-4390 674 L-4369 672 L-4352 669 L-4333 667 L-4313 664 L-4294 662 L-4274 660 L-4255 658 L-4235 656 L-4216 654 L-4197 653 L-4178 656 L-4149 658 L-4130 661 L-4102 664 L-4064 661 L-4049 659 L-4036 657 L-4019 656 L-4003 655 L-3983 653 L-3964 651 L-3945 650 L-3925 648 L-3904 647 L-3887 645 L-3868 644 L-3848 642 L-3828 641 L-3810 639 L-3791 637 L-3771 636 L-3751 634 L-3733 632 L-3714 631 L-3692 630 L-3668 628 L-3653 627 L-3636 625 L-3616 623 L-3597 621 L-3578 620 L-3559 618 L-3539 616 L-3518 614 L-3500 611 L-3481 609 L-3461 607 L-3440 605 L-3423 603 L-3404 601 L-3384 599 L-3365 597 L-3346 595 L-3327 593 L-3307 591 L-3287 589 L-3268 587 L-3249 586 L-3222 584 L-3201 582 L-3173 580 L-3138 578 L-3125 576 L-3112 574 L-3093 572 L-3074 571 L-3054 569 L-3036 567 L-3016 566 L-2997 564 L-2975 562 L-2958 560 L-2940 559 L-2919 557 L-2899 555 L-2881 552 L-2862 549 L-2842 547 L-2822 544 L-2804 541 L-2785 539 L-2764 537 L-2739 534 L-2724 532 L-2707 529 L-2688 527 L-2668 524 L-2649 522 L-2630 519 L-2610 517 L-2589 514 L-2572 512 L-2553 510 L-2532 507 L-2512 505 L-2495 504 L-2476 502 L-2456 500 L-2437 499 L-2417 497 L-2398 496 L-2378 495 L-2359 493 L-2340 492 L-2321 491 L-2293 490 L-2273 488 L-2245 487 L-2209 484 L-2195 482 L-2182 479 L-2164 477 L-2146 475 L-2126 474 L-2107 472 L-2088 471 L-2068 469 L-2047 467 L-2030 466 L-2011 464 L-1991 462 L-1971 460 L-1952 458 L-1934 456 L-1914 454 L-1893 452 L-1875 450 L-1857 448 L-1835 447 L-1810 445 L-1796 444 L-1779 442 L-1759 440 L-1740 438 L-1720 436 L-1702 434 L-1682 431 L-1660 428 L-1643 426 L-1624 424 L-1604 421 L-1583 420 L-1566 418 L-1547 417 L-1527 416 L-1508 414 L-1488 413 L-1470 412 L-1450 410 L-1430 409 L-1411 408 L-1392 407 L-1365 406 L-1344 405 L-1316 403 L-1282 402 L-1268 401 L-1255 400 L-1236 399 L-1217 398 L-1197 397 L-1179 396 L-1160 395 L-1140 394 L-1119 394 L-1102 393 L-1083 392 L-1063 390 L-1043 389 L-1024 388 L-1005 387 L-985 386 L-965 386 L-947 385 L-928 384 L-907 384 L-882 383 L-868 382 L-850 381 L-831 380 L-812 379 L-792 378 L-773 377 L-753 376 L-733 374 L-715 372 L-696 370 L-676 368 L-655 366 L-637 365 L-618 363 L-598 362 L-580 361 L-560 359 L-541 358 L-521 357 L-502 356 L-482 355 L-464 354 L-435 353 L-387 352 L-351 351 L-336 350 L-323 349 L-306 348 L-289 348 L-269 347 L-250 347 L-231 346 L-211 345 L-190 344 L-173 344 L-154 343 L-134 342 L-114 342 L-96 341 L-77 340 L-57 339 L-37 338 L-18 337 L0 336 L21 334 L45 333 L60 331 L77 330 L97 328 L116 327 L136 325 L154 324 L174 323 L195 321 L213 320 L232 319 L252 317 L272 316 L290 315 L309 314 L329 313 L348 313 L368 312 L386 310 L406 309 L426 308 L445 307 L464 306 L492 305 L512 304 L540 302 L577 300 L592 298 L604 296 L622 294 L639 293 L659 292 L678 291 L697 290 L717 290 L738 289 L755 288 L773 286 L794 285 L815 283 L832 282 L852 280 L871 278 L892 276 L909 274 L928 272 L950 271 L975 269 L990 268 L1007 267 L1026 265 L1046 264 L1064 263 L1083 261 L1103 260 L1125 258 L1141 257 L1161 255 L1181 254 L1202 253 L1219 252 L1238 251 L1258 249 L1277 248 L1296 247 L1315 246 L1335 245 L1355 244 L1374 243 L1393 242 L1421 997 L1441 996 L1469 995 L1505 993 L1519 236 L1532 234 L1550 233 L1568 232 L1587 231 L1606 231 L1625 230 L1645 229 L1667 227 L1683 225 L1702 224 L1723 222 L1743 220 L1761 218 L1780 216 L1800 214 L1821 213 L1838 212 L1857 210 L1878 209 L1903 208 L1918 206 L1948 204 L1988 201 L2011 199 L2040 197 L2056 194 L2070 193 L2089 191 L2110 190 L2131 189 L2147 188 L2166 187 L2186 186 L2205 185 L2225 185 L2244 184 L2264 183 L2284 182 L2302 181 L2321 180 L2349 179 L2369 178 L2397 177 L2432 176 L2446 175 L2478 174 L2496 173 L2516 172 L2535 171 L2554 171 L2574 170 L2595 169 L2612 168 L2630 166 L2651 164 L2672 160 L2689 157 L2708 153 L2728 150 L2748 148 L2766 146 L2785 144 L2807 143 L2832 142 L2847 141 L2864 139 L2883 137 L2903 136 L2921 135 L2941 133 L2960 132 L2982 130 L2999 129 L3018 127 L3038 126 L3059 125 L3076 124 L3095 123 L3115 122 L3134 122 L3153 120 L3173 119 L3192 118 L3212 117 L3231 116 L3250 115 L3277 115 L3298 114 L3368 112 L3396 109 L3411 107 L3425 105 L3445 103 L3463 102 L3482 101 L3502 99 L3523 98 L3541 97 L3559 96 L3580 96 L3600 95 L3618 94 L3637 93 L3657 91 L3677 90 L3695 89 L3714 87 L3735 87 L3760 86 L3775 85 L3793 84 L3811 82 L3831 81 L3850 79 L3869 78 L3889 77 L3910 76 L3927 75 L3946 74 L3967 73 L3988 72 L4005 71 L4063 70 L4082 69 L4101 68 L4121 67 L4141 66 L4160 66 L4178 65 L4206 64 L4227 64 L4254 63 L4291 62 L4305 62 L4318 61 L4336 60 L4354 60 L4373 59 L4392 59 L4412 58 L4431 58 L4452 58 L4469 57 L4488 57 L4508 56 L4529 56 L4547 55 L4566 54 L4585 53 L4606 53 L4624 52 L4643 51 L4664 50 L4689 50 L4703 49 L4720 49 L4740 48 L4760 47 L4779 46 L4798 45 L4817 44 L4839 43 L4856 42 L4875 41 L4895 41 L4916 40 L4933 40 L4952 39 L4972 39 L4991 38 L5011 38 L5029 38 L5049 37 L5069 37 L5088 36 L5107 36 L5134 36 L5155 35 L5183 34 L5218 34 L5232 33 L5246 33 L5264 32 L5282 32 L5302 31 L5320 30 L5359 30 L5380 30 L5397 29 L5416 29 L5436 28 L5456 27 L5475 26 L5494 25 L5514 24 L5533 24 L5552 23 L5571 23 L5592 22 L5617 22 L5631 21 L5648 21 L5668 20 L5687 19 L5707 19 L5726 18 L5746 17 L5766 17 L5784 16 L5803 16 L5824 15 L5844 14 L5861 14 L5880 13 L5901 13 L5919 12 L5939 12 L5958 11 L5978 11 L5997 10 L6017 10 L6035 9 L6064 9 L6112 8 L6149 8 L6165 7 L6177 7 L6194 6 L6210 6 L6230 6 L6249 5 L6268 5 L6288 4 L6309 4 L6326 4 L6345 4 L6365 4 L6385 4 L6403 3 L6422 3 L6442 3 L6462 2 L6481 2 L6500 1" />
</svg>
