<svg xmlns="http://www.w3.org/2000/svg" version="1.1" viewBox="0 0 6500 1000">
	<path fill="none" stroke="gold" stroke-width="125" stroke-linecap="round" stroke-linejoin="round" d="M0 1029  L-714502 1029 L-711898 1029 L-710229 1029 L-691900 1029 L-691730 1029 L-684572 1029 L-684539 1029 L-671108 1028 L-668186 1029 L-654845 1028 L-650676 1028 L-649516 1027 L-648897 1027 L-646885 1027 L-643113 1026 L-642513 1026 L-642185 1026 L-641972 1026 L-641430 1025 L-640192 1025 L-639013 1024 L-636149 1023 L-635626 1022 L-630771 1022 L-627834 1022 L-627791 1022 L-627482 1021 L-627230 1021 L-624635 1021 L-620380 1021 L-620362 1021 L-619125 1021 L-617248 1021 L-615294 1021 L-614346 1021 L-614076 1020 L-613766 1020 L-613668 1020 L-612837 1020 L-610806 1020 L-610516 1019 L-608370 1019 L-608214 1018 L-604558 1018 L-604307 1018 L-604208 1018 L-603691 1018 L-601540 1019 L-600611 1019 L-599085 1020 L-597846 1020 L-596299 1020 L-593337 1019 L-592215 1019 L-591906 1019 L-590695 1019 L-587688 1020 L-587669 1020 L-587321 1020 L-587108 1020 L-586982 1018 L-586740 1018 L-586703 1018 L-586683 1018 L-586664 1018 L-586605 1017 L-586546 1017 L-586528 1017 L-586085 1017 L-584846 1017 L-583300 1016 L-579912 1016 L-574186 1016 L-573984 1016 L-572348 1016 L-570626 1016 L-569194 1016 L-568962 1016 L-568247 1015 L-562115 1015 L-561747 1015 L-561592 1015 L-561014 1015 L-560721 1015 L-559754 1014 L-559445 1014 L-558845 1014 L-557239 1014 L-556504 1014 L-556194 1014 L-555426 1014 L-553390 1014 L-552965 1014 L-552152 1013 L-544723 1013 L-544200 1013 L-544027 1013 L-543292 1013 L-541724 1012 L-541319 1012 L-539094 1012 L-538146 1012 L-537721 1012 L-537390 1012 L-536347 1012 L-534238 1012 L-533986 1011 L-533367 1011 L-532555 1011 L-530447 1011 L-530398 1011 L-528470 1011 L-528144 1010 L-528009 1010 L-527506 1010 L-526093 1010 L-525590 1009 L-525069 1009 L-521509 1009 L-520774 1008 L-518349 1008 L-517060 1008 L-516653 1008 L-513500 1008 L-513345 1008 L-513325 1008 L-512959 1008 L-511700 1008 L-510985 1008 L-510095 1008 L-509688 1008 L-508760 1008 L-507651 1008 L-507348 1009 L-501099 1009 L-500152 1009 L-498526 1009 L-498024 1009 L-494348 1009 L-493516 1010 L-489563 1010 L-488151 1009 L-485662 1009 L-484985 1009 L-484947 1009 L-484076 1009 L-480864 1009 L-478001 1009 L-477033 1009 L-475912 1008 L-475893 1008 L-474268 1008 L-473804 1008 L-473712 1007 L-467343 1007 L-466394 1007 L-463937 1007 L-463065 1007 L-461829 1007 L-459827 1007 L-459430 1007 L-457994 1006 L-455967 1006 L-455754 1006 L-454574 1006 L-453066 1006 L-453046 1006 L-451033 1006 L-450164 1005 L-449293 1005 L-448708 1005 L-448171 1005 L-447513 1005 L-446275 1005 L-445714 1004 L-444533 1004 L-443296 1004 L-443257 1004 L-442870 1004 L-442329 1004 L-441555 1004 L-440433 1004 L-438343 1003 L-438010 1003 L-437724 1003 L-436796 1003 L-436313 1003 L-435577 1003 L-431946 1003 L-430818 1002 L-430664 1002 L-429638 1002 L-425923 1002 L-424706 1002 L-422887 1002 L-420101 1002 L-419540 1001 L-415652 1001 L-413175 1001 L-411841 1001 L-411337 1001 L-410854 1001 L-408165 1001 L-404393 1001 L-401936 1001 L-400756 1001 L-400117 1001 L-397757 1001 L-397680 1001 L-396632 1000 L-396539 1000 L-396036 1000 L-395590 1000 L-395533 1000 L-395319 1000 L-392360 1000 L-389652 1000 L-389497 1000 L-385976 1000 L-385453 1000 L-384486 999 L-384137 999 L-383093 999 L-382165 999 L-381739 999 L-380230 999 L-379263 999 L-379244 999 L-377348 991 L-377232 984 L-377184 976 L-377160 968 L-374156 968 L-372125 968 L-370364 968 L-369997 968 L-369552 968 L-369185 968 L-368771 967 L-366786 967 L-366573 967 L-366418 967 L-364812 967 L-363691 967 L-362742 967 L-361485 967 L-359841 967 L-358661 967 L-352071 966 L-352025 966 L-351619 966 L-350574 966 L-350439 966 L-348756 966 L-348736 966 L-347399 966 L-346163 965 L-346009 965 L-345635 965 L-345429 965 L-345119 965 L-344345 965 L-342024 965 L-341366 964 L-339238 964 L-337516 964 L-337322 964 L-334769 964 L-334493 964 L-334305 964 L-333472 963 L-332700 963 L-332002 963 L-327001 963 L-326625 963 L-322372 963 L-321885 973 L-321866 973 L-321787 973 L-321712 973 L-321692 962 L-320879 962 L-320125 962 L-318906 962 L-317474 962 L-317378 962 L-317204 962 L-316849 962 L-315540 962 L-313683 962 L-311980 961 L-311477 961 L-311212 961 L-310819 961 L-310685 961 L-309775 961 L-309399 961 L-308470 961 L-308131 961 L-308091 961 L-308054 961 L-306138 961 L-305964 960 L-304436 960 L-304107 960 L-303991 960 L-303584 960 L-303236 960 L-301592 960 L-301042 960 L-300798 960 L-300257 959 L-299426 959 L-298884 959 L-297350 959 L-297257 959 L-297220 959 L-297084 959 L-296697 958 L-295672 958 L-293796 958 L-293700 958 L-293099 961 L-292732 965 L-292248 968 L-292210 972 L-291436 972 L-291378 972 L-291204 972 L-291010 972 L-289405 972 L-289385 971 L-289230 972 L-289114 972 L-287935 972 L-287780 972 L-287113 972 L-284665 980 L-282150 989 L-279480 997 L-271781 1005 L-266113 1005 L-263899 1005 L-263875 1005 L-262902 1007 L-262882 1007 L-262018 1007 L-259278 1007 L-253479 1005 L-253326 1005 L-250540 1005 L-236932 1004 L-236186 1004 L-231775 1004 L-215429 1004 L-215197 1004 L-214660 1004 L-206200 1004 L-197494 1004 L-197282 1003 L-195310 1003 L-192523 1003 L-188036 1003 L-187881 1003 L-187712 1003 L-187572 1003 L-187281 1003 L-187242 1003 L-186971 1003 L-186800 1003 L-186390 1003 L-185269 1003 L-184089 1002 L-182812 1002 L-179948 1002 L-177028 1002 L-175036 1002 L-173488 1002 L-170450 1002 L-161126 1002 L-160602 1002 L-154878 1002 L-153371 1001 L-152556 1001 L-150873 1001 L-150152 1001 L-149983 1001 L-148938 1001 L-146871 1001 L-145509 1001 L-141066 1001 L-140968 1000 L-140930 1000 L-140911 1000 L-140078 1000 L-140001 1000 L-137428 1000 L-134179 1000 L-134024 1000 L-133076 1000 L-131335 999 L-130619 1000 L-127078 1000 L-120501 1001 L-119084 1002 L-119063 1002 L-118113 1002 L-114638 1002 L-113885 1001 L-113323 1001 L-112541 1001 L-105037 1001 L-103439 1001 L-101865 1001 L-98679 1001 L-94346 1001 L-85777 1001 L-77030 1001 L-73956 1000 L-70690 1000 L-70144 1000 L-63007 1000 L-57339 1000 L-43275 1000 L-37263 1000 L-32557 1000 L-28554 1000 L-23446 1000 L-13732 1000 L1837 999 L4920 999 L5222 954 L5242 897 L5261 833 L5281 762 L5300 729 L5319 701 L5338 676 L5366 651 L5387 627 L5414 601 L5450 573 L5463 549 L5476 529 L5495 512 L5514 499 L5533 486 L5552 473 L5571 460 L5591 447 L5612 434 L5629 420 L5648 407 L5668 395 L5688 382 L5706 369 L5725 355 L5745 340 L5765 326 L5784 313 L5802 300 L5824 288 L5849 275 L5863 263 L5880 252 L5900 240 L5919 228 L5938 216 L5957 203 L5977 191 L5998 179 L6016 168 L6035 158 L6055 148 L6076 138 L6093 130 L6112 123 L6132 115 L6151 107 L6170 100 L6189 94 L6209 88 L6229 83 L6248 77 L6267 72 L6294 65 L6315 58 L6343 50 L6377 41 L6391 34 L6404 28 L6423 22 L6442 17 L6462 12 L6480 6 L6500 0" />
</svg>
