<svg xmlns="http://www.w3.org/2000/svg" version="1.1" viewBox="0 0 6500 1000">
	<path fill="none" stroke="gold" stroke-width="125" stroke-linecap="round" stroke-linejoin="round" d="M0 82466  L-637311 82466 L-634707 82178 L-633039 81890 L-614709 81314 L-614539 80737 L-607381 80161 L-607348 80161 L-593917 79873 L-590995 80161 L-577654 79296 L-573485 78144 L-572325 76703 L-571706 75262 L-569694 74397 L-565923 73821 L-565322 73244 L-564994 72668 L-564781 72092 L-564239 71515 L-563001 69210 L-561822 66904 L-558958 64599 L-558435 62293 L-553580 61717 L-550643 61141 L-550600 60564 L-550291 59988 L-550040 59412 L-547445 58835 L-543189 58835 L-543171 58835 L-541934 58835 L-540057 58835 L-538103 58259 L-537155 57682 L-536885 57106 L-536575 56818 L-536477 56530 L-535646 56530 L-533616 56818 L-533325 54224 L-531179 53072 L-531023 51342 L-527367 49613 L-527116 50478 L-527017 50190 L-526500 51054 L-524349 52495 L-523420 53936 L-521894 55377 L-520655 55377 L-519108 55089 L-516146 54512 L-515025 53936 L-514715 53360 L-513504 53072 L-510497 56242 L-510478 55953 L-510130 55665 L-509917 55377 L-509791 51342 L-509550 50766 L-509512 50190 L-509492 49613 L-509473 49037 L-509414 48461 L-509355 47884 L-509337 47308 L-508894 46731 L-507655 46155 L-506109 45579 L-502721 45002 L-496995 44714 L-496793 44426 L-495158 44138 L-493436 43850 L-492004 43561 L-491771 43273 L-491056 42985 L-484924 42697 L-484556 42121 L-484402 41544 L-483823 40968 L-483531 40391 L-482563 39815 L-482254 39239 L-481655 38662 L-480048 38662 L-479313 38662 L-479003 38951 L-478235 38951 L-476199 38374 L-475774 37798 L-474961 37510 L-467533 36933 L-467010 36357 L-466836 35780 L-466101 35204 L-464533 34628 L-464128 34340 L-461903 33763 L-460955 33475 L-460530 33187 L-460199 33187 L-459156 32899 L-457048 32322 L-456795 31746 L-456176 31170 L-455364 30881 L-453256 30305 L-453207 29729 L-451279 29152 L-450953 28576 L-450818 28000 L-450315 27711 L-448903 27135 L-448400 25982 L-447878 25118 L-444318 23965 L-443583 22812 L-441158 22812 L-439869 22236 L-439462 21948 L-436309 21948 L-436155 21948 L-436134 22236 L-435768 22236 L-434510 22524 L-433795 22812 L-432905 22812 L-432498 22812 L-431569 22812 L-430460 22524 L-430157 23677 L-423908 24253 L-422961 24829 L-421335 25406 L-420833 25694 L-417157 25982 L-416325 26270 L-412372 26559 L-410960 25694 L-408471 25118 L-407794 24541 L-407756 24253 L-406885 24253 L-403674 23965 L-400811 23677 L-399843 23389 L-398721 22812 L-398702 22236 L-397077 21659 L-396613 20795 L-396521 20507 L-390152 20219 L-389203 19930 L-386746 19642 L-385874 19066 L-384638 18778 L-382637 18489 L-382239 17913 L-380803 17337 L-378777 17048 L-378563 16472 L-377383 16184 L-375875 15896 L-375855 15608 L-373842 15319 L-372973 14743 L-372102 14455 L-371517 13878 L-370980 13302 L-370322 12726 L-369084 12149 L-368524 11861 L-367342 11573 L-366105 11285 L-366066 10997 L-365679 10708 L-365138 10132 L-364364 9844 L-363242 9556 L-361153 8979 L-360819 8403 L-360533 7827 L-359605 7538 L-359122 6962 L-358386 6674 L-354755 6386 L-353627 6097 L-353473 5809 L-352447 5233 L-348732 4945 L-347515 4368 L-345696 3792 L-342910 3504 L-342349 2927 L-338461 2927 L-335985 2639 L-334650 2639 L-334146 2351 L-333663 2063 L-330974 2063 L-327202 2063 L-324745 2063 L-323565 2063 L-322926 1775 L-320566 1198 L-320489 910 L-319442 622 L-319348 46 L-318845 46 L-318400 46 L-318342 46 L-318128 46 L-315169 -530 L-312461 -818 L-312306 -1106 L-308786 -1394 L-308263 -1971 L-307295 -2547 L-306946 -2835 L-305903 -3412 L-304974 -3988 L-304548 -4276 L-303039 -4276 L-302072 -4564 L-302053 -4853 L-300157 -25890 L-300041 -47504 L-299994 -68829 L-299969 -90155 L-296965 -90443 L-294934 -91020 L-293173 -91308 L-292806 -91596 L-292361 -92172 L-291994 -92461 L-291580 -93037 L-289595 -93325 L-289382 -93325 L-289227 -93613 L-287622 -93613 L-286500 -93902 L-285552 -94190 L-284294 -94766 L-282650 -95054 L-281470 -95631 L-274881 -95919 L-274834 -96207 L-274428 -96495 L-273383 -96783 L-273248 -97072 L-271565 -97648 L-271545 -97936 L-270208 -98512 L-268972 -98801 L-268818 -99089 L-268444 -99665 L-268238 -99953 L-267928 -100242 L-267155 -100818 L-264833 -101106 L-264175 -101394 L-262047 -101682 L-260325 -101971 L-260132 -102547 L-257578 -102835 L-257302 -103412 L-257114 -103988 L-256281 -104276 L-255509 -104564 L-254811 -104853 L-249810 -104853 L-249434 -105429 L-245181 -105717 L-244694 -77187 L-244675 -77187 L-244596 -77475 L-244521 -77763 L-244501 -107158 L-243688 -107446 L-242934 -108023 L-241715 -108311 L-240283 -108311 L-240187 -108599 L-240013 -108599 L-239658 -109175 L-238349 -109463 L-236492 -109752 L-234789 -110328 L-234287 -110616 L-234021 -110904 L-233628 -111193 L-233494 -111481 L-232584 -111769 L-232208 -112057 L-231279 -112057 L-230940 -112345 L-230900 -112345 L-230863 -112634 L-228947 -112634 L-228774 -112922 L-227245 -112922 L-226917 -113210 L-226801 -113498 L-226393 -114074 L-226045 -114363 L-224402 -114939 L-223851 -115227 L-223608 -115515 L-223066 -115804 L-222235 -116380 L-221693 -116668 L-220159 -117244 L-220066 -117533 L-220030 -117821 L-219894 -118109 L-219506 -118397 L-218482 -118685 L-216605 -118974 L-216509 -119262 L-215909 -110040 L-215541 -100242 L-215057 -90155 L-215019 -80357 L-214245 -79780 L-214187 -80069 L-214013 -80645 L-213819 -80933 L-212214 -81510 L-212194 -81798 L-212039 -81221 L-211924 -80933 L-210744 -80645 L-210589 -79780 L-209922 -79780 L-207474 -56149 L-204959 -31942 L-202289 -8599 L-194590 14743 L-188922 14743 L-186708 14455 L-186685 14455 L-185711 20219 L-185691 20219 L-184827 19642 L-182087 19354 L-176288 13302 L-176135 12726 L-173349 12438 L-159741 11861 L-158995 11573 L-154584 10997 L-138238 10708 L-138006 10132 L-137469 9844 L-129009 9556 L-120304 9268 L-120091 8979 L-118119 8691 L-115333 8691 L-110845 8979 L-110690 8691 L-110521 8691 L-110381 8403 L-110090 7827 L-110051 7538 L-109781 7250 L-109609 6962 L-109199 6674 L-108078 6386 L-106898 6097 L-105621 5809 L-102757 5521 L-99837 5233 L-97845 4945 L-96297 4368 L-93259 4080 L-83935 3792 L-83411 3504 L-77687 3504 L-76180 3216 L-75366 3216 L-73682 2639 L-72961 2351 L-72792 2063 L-71747 1775 L-69680 1487 L-68318 1198 L-63875 910 L-63777 622 L-63739 334 L-63720 46 L-62887 -242 L-62810 -818 L-60237 -1106 L-56988 -1394 L-56833 -1682 L-55885 -1971 L-54144 -2547 L-53428 -818 L-49888 622 L-43310 2351 L-41893 4657 L-41872 4368 L-40922 4080 L-37447 3792 L-36694 3216 L-36132 2927 L-35350 2639 L-27846 2351 L-26248 2063 L-24674 1775 L-21489 1487 L-17155 1198 L-8586 910 L160 910 L3233 622 L6500 46" />
</svg>
