<svg xmlns="http://www.w3.org/2000/svg" version="1.1" viewBox="0 0 6500 1000">
	<path fill="none" stroke="gold" stroke-width="125" stroke-linecap="round" stroke-linejoin="round" d="M0 3157  L-729939 3157 L-727335 3157 L-725667 3157 L-707337 3157 L-707167 3157 L-700009 3156 L-699976 3156 L-686545 3156 L-683623 3156 L-670282 3156 L-666113 3155 L-664953 3155 L-664334 3154 L-662322 3154 L-658551 3153 L-657950 3153 L-657622 3153 L-657409 3153 L-656867 3152 L-655629 3151 L-654450 3150 L-651586 3149 L-651063 3148 L-646208 3148 L-643271 3147 L-643228 3147 L-642919 3147 L-642668 3147 L-640073 3146 L-635817 3146 L-635799 3146 L-634562 3146 L-632685 3146 L-630731 3146 L-629783 3146 L-629513 3146 L-629203 3145 L-629105 3145 L-628274 3145 L-626244 3145 L-625953 3144 L-623807 3144 L-623651 3143 L-619995 3142 L-619744 3143 L-619645 3142 L-619128 3143 L-616977 3143 L-616048 3144 L-614522 3145 L-613283 3145 L-611736 3145 L-608774 3144 L-607653 3144 L-607343 3144 L-606132 3144 L-603125 3145 L-603106 3145 L-602758 3145 L-602545 3145 L-602419 3143 L-602178 3143 L-602140 3142 L-602120 3142 L-602101 3142 L-602042 3142 L-601983 3141 L-601965 3141 L-601522 3141 L-600283 3141 L-598737 3140 L-595349 3140 L-589623 3140 L-589421 3140 L-587786 3140 L-586064 3139 L-584632 3139 L-584399 3139 L-583684 3139 L-577552 3139 L-577184 3139 L-577030 3138 L-576451 3138 L-576159 3138 L-575191 3138 L-574882 3137 L-574283 3137 L-572676 3137 L-571941 3137 L-571631 3137 L-570863 3137 L-568827 3137 L-568402 3137 L-567589 3136 L-560161 3136 L-559638 3136 L-559464 3136 L-558729 3135 L-557161 3135 L-556756 3135 L-554531 3135 L-553583 3135 L-553158 3134 L-552827 3134 L-551784 3134 L-549676 3134 L-549423 3134 L-548805 3134 L-547992 3133 L-545884 3133 L-545835 3133 L-543907 3133 L-543581 3132 L-543446 3132 L-542943 3132 L-541531 3132 L-541028 3131 L-540506 3131 L-536946 3130 L-536211 3130 L-533786 3130 L-532497 3129 L-532090 3129 L-528937 3129 L-528783 3129 L-528762 3129 L-528396 3129 L-527138 3130 L-526423 3130 L-525533 3130 L-525126 3130 L-524197 3130 L-523089 3130 L-522785 3130 L-516536 3130 L-515589 3131 L-513963 3131 L-513461 3131 L-509785 3131 L-508953 3131 L-505000 3131 L-503588 3131 L-501099 3131 L-500422 3130 L-500384 3130 L-499513 3130 L-496302 3130 L-493439 3130 L-492471 3130 L-491349 3130 L-491330 3129 L-489705 3129 L-489241 3129 L-489149 3129 L-482780 3128 L-481831 3128 L-479374 3128 L-478502 3128 L-477266 3128 L-475265 3128 L-474867 3127 L-473431 3127 L-471405 3127 L-471191 3127 L-470011 3127 L-468503 3126 L-468483 3126 L-466470 3126 L-465601 3126 L-464730 3126 L-464145 3126 L-463608 3125 L-462950 3125 L-461712 3125 L-461152 3125 L-459971 3124 L-458733 3124 L-458694 3124 L-458307 3124 L-457766 3124 L-456992 3124 L-455870 3123 L-453781 3123 L-453447 3123 L-453162 3123 L-452233 3123 L-451750 3122 L-451014 3122 L-447383 3122 L-446256 3122 L-446101 3122 L-445075 3121 L-441360 3121 L-440143 3121 L-438324 3121 L-435539 3121 L-434977 3120 L-431089 3120 L-428613 3120 L-427278 3120 L-426774 3120 L-426291 3120 L-423602 3120 L-419830 3120 L-417373 3120 L-416193 3120 L-415554 3120 L-413194 3120 L-413117 3119 L-412070 3119 L-411976 3119 L-411473 3119 L-411028 3119 L-410970 3119 L-410756 3119 L-407797 3119 L-405089 3119 L-404934 3119 L-401414 3118 L-400891 3118 L-399923 3118 L-399574 3118 L-398531 3117 L-397602 3117 L-397176 3117 L-395667 3117 L-394700 3117 L-394681 3117 L-392785 3107 L-392670 3097 L-392622 3087 L-392597 3077 L-389593 3077 L-387562 3077 L-385802 3077 L-385434 3076 L-384989 3076 L-384622 3076 L-384208 3076 L-382223 3076 L-382010 3076 L-381855 3076 L-380250 3076 L-379128 3075 L-378180 3075 L-376922 3075 L-375278 3075 L-374098 3075 L-367509 3074 L-367462 3074 L-367056 3074 L-366011 3074 L-365876 3074 L-364193 3074 L-364173 3073 L-362836 3073 L-361600 3073 L-361446 3073 L-361072 3073 L-360866 3073 L-360556 3072 L-359783 3072 L-357461 3072 L-356803 3072 L-354676 3072 L-352953 3072 L-352760 3071 L-350206 3071 L-349930 3071 L-349742 3071 L-348909 3071 L-348137 3070 L-347439 3070 L-342438 3070 L-342062 3070 L-337809 3070 L-337322 3083 L-337303 3083 L-337224 3083 L-337149 3083 L-337129 3069 L-336316 3069 L-335562 3069 L-334343 3069 L-332911 3069 L-332815 3069 L-332641 3069 L-332286 3068 L-330977 3068 L-329120 3068 L-327417 3068 L-326915 3068 L-326649 3067 L-326256 3067 L-326122 3067 L-325212 3067 L-324836 3067 L-323907 3067 L-323568 3067 L-323528 3067 L-323491 3067 L-321575 3067 L-321402 3067 L-319873 3067 L-319545 3066 L-319429 3066 L-319021 3066 L-318673 3066 L-317030 3066 L-316479 3065 L-316236 3065 L-315694 3065 L-314863 3065 L-314321 3065 L-312787 3065 L-312694 3064 L-312658 3064 L-312522 3064 L-312134 3064 L-311110 3064 L-309233 3064 L-309137 3064 L-308537 3068 L-308169 3072 L-307685 3077 L-307647 3082 L-306873 3082 L-306815 3082 L-306641 3082 L-306447 3081 L-304842 3081 L-304822 3081 L-304667 3081 L-304552 3081 L-303372 3082 L-303217 3082 L-302550 3082 L-300102 3093 L-297587 3104 L-294917 3115 L-287218 3126 L-281550 3126 L-279336 3126 L-279313 3126 L-278339 3128 L-278319 3128 L-277455 3128 L-274715 3128 L-268916 3125 L-268763 3125 L-265977 3125 L-252369 3125 L-251623 3124 L-247212 3124 L-230866 3124 L-230634 3124 L-230097 3124 L-221637 3123 L-212932 3123 L-212719 3123 L-210747 3123 L-207961 3123 L-203473 3123 L-203318 3123 L-203149 3123 L-203009 3123 L-202718 3123 L-202679 3123 L-202409 3122 L-202237 3122 L-201827 3122 L-200706 3122 L-199526 3122 L-198249 3122 L-195385 3122 L-192465 3121 L-190473 3121 L-188925 3121 L-185887 3121 L-176563 3121 L-176039 3121 L-170315 3121 L-168808 3121 L-167994 3121 L-166310 3120 L-165589 3120 L-165420 3120 L-164375 3120 L-162308 3120 L-160946 3120 L-156503 3119 L-156406 3119 L-156367 3119 L-156348 3119 L-155515 3119 L-155438 3119 L-152865 3119 L-149616 3118 L-149461 3118 L-148513 3118 L-146772 3118 L-146056 3119 L-142516 3119 L-135938 3120 L-134521 3121 L-134500 3121 L-133550 3121 L-130075 3121 L-129322 3121 L-128760 3120 L-127978 3120 L-120474 3120 L-118876 3120 L-117302 3120 L-114117 3120 L-109783 3120 L-101214 3119 L-92467 3119 L-89394 3119 L-86128 3119 L-85581 3119 L-78444 3119 L-72776 3119 L-58712 3119 L-52700 3119 L-47994 3119 L-43991 3119 L-38883 3118 L-29169 3118 L-13599 3118 L-10516 3118 L-10214 3057 L-10194 2983 L-10175 2899 L-10156 2804 L-10136 2761 L-10117 2725 L-10098 2692 L-10070 2659 L-10050 2627 L-10022 2593 L-9986 2556 L-9973 2524 L-9960 2497 L-9941 2475 L-9923 2458 L-9903 2441 L-9885 2424 L-9865 2407 L-9845 2390 L-9824 2372 L-9807 2354 L-9789 2337 L-9768 2321 L-9748 2304 L-9730 2286 L-9711 2268 L-9691 2249 L-9671 2230 L-9653 2212 L-9634 2196 L-9612 2179 L-9588 2163 L-9573 2147 L-9556 2132 L-9536 2116 L-9517 2101 L-9498 2084 L-9479 2068 L-9459 2052 L-9438 2036 L-9420 2022 L-9402 2008 L-9381 1995 L-9360 1983 L-9343 1972 L-9324 1962 L-9304 1952 L-9285 1942 L-9266 1932 L-9247 1924 L-9227 1917 L-9207 1909 L-9188 1902 L-9169 1895 L-9142 1886 L-9121 1877 L-9093 1866 L-9059 1855 L-9045 1845 L-9032 1837 L-9013 1829 L-8994 1823 L-8974 1816 L-8956 1808 L-8937 1800 L-8917 1792 L-8896 1785 L-8879 1778 L-8860 1771 L-8840 1764 L-8820 1755 L-8801 1746 L-8783 1736 L-8763 1725 L-8743 1715 L-8724 1704 L-8705 1693 L-8684 1681 L-8660 1668 L-8645 1655 L-8628 1643 L-8608 1630 L-8589 1618 L-8569 1606 L-8550 1592 L-8530 1579 L-8510 1567 L-8492 1554 L-8473 1542 L-8453 1531 L-8432 1520 L-8415 1509 L-8396 1499 L-8376 1489 L-8357 1480 L-8337 1471 L-8318 1462 L-8298 1454 L-8279 1445 L-8260 1436 L-8241 1427 L-8212 1418 L-8192 1410 L-8165 1401 L-8127 1391 L-8112 1382 L-8100 1373 L-8083 1364 L-8066 1358 L-8046 1353 L-8027 1347 L-8008 1342 L-7988 1337 L-7967 1332 L-7950 1327 L-7931 1321 L-7911 1314 L-7891 1308 L-7873 1301 L-7854 1294 L-7834 1286 L-7814 1278 L-7795 1270 L-7777 1262 L-7756 1255 L-7731 1247 L-7717 1239 L-7699 1231 L-7679 1223 L-7660 1215 L-7641 1207 L-7622 1198 L-7602 1190 L-7582 1182 L-7563 1174 L-7544 1166 L-7524 1159 L-7504 1152 L-7486 1145 L-7467 1139 L-7447 1132 L-7428 1125 L-7409 1118 L-7390 1112 L-7370 1106 L-7351 1100 L-7331 1093 L-7312 1087 L-7284 1081 L-7264 1075 L-7236 1067 L-7200 1057 L-7186 1048 L-7173 1039 L-7155 1032 L-7137 1027 L-7117 1022 L-7099 1015 L-7079 1009 L-7059 1002 L-7038 995 L-7020 987 L-7003 979 L-6982 970 L-6962 960 L-6944 951 L-6925 941 L-6905 931 L-6885 921 L-6867 912 L-6848 905 L-6827 899 L-6802 894 L-6787 889 L-6770 884 L-6751 879 L-6731 874 L-6712 869 L-6693 863 L-6673 859 L-6652 855 L-6635 851 L-6616 846 L-6595 840 L-6574 833 L-6558 827 L-6538 822 L-6518 818 L-6500 815 L-6480 812 L-6461 809 L-6441 805 L-6422 802 L-6402 798 L-6384 795 L-6356 791 L-6335 788 L-6308 784 L-6273 780 L-6259 776 L-6246 773 L-6227 770 L-6208 767 L-6189 764 L-6170 762 L-6151 759 L-6131 757 L-6110 754 L-6093 752 L-6074 749 L-6053 746 L-6034 743 L-6015 740 L-5997 737 L-5977 734 L-5956 732 L-5938 729 L-5919 727 L-5898 724 L-5873 722 L-5859 719 L-5842 717 L-5822 715 L-5803 712 L-5783 710 L-5764 707 L-5745 703 L-5724 701 L-5706 698 L-5687 696 L-5667 693 L-5646 691 L-5629 689 L-5610 686 L-5590 684 L-5571 682 L-5551 680 L-5533 678 L-5513 676 L-5493 674 L-5474 673 L-5455 676 L-5426 678 L-5407 681 L-5379 684 L-5341 681 L-5326 679 L-5313 677 L-5296 676 L-5280 675 L-5260 673 L-5242 672 L-5222 670 L-5202 669 L-5181 667 L-5164 666 L-5146 665 L-5125 663 L-5105 662 L-5087 660 L-5068 658 L-5048 657 L-5028 655 L-5010 654 L-4991 652 L-4970 651 L-4945 650 L-4930 648 L-4913 647 L-4893 645 L-4874 643 L-4855 642 L-4836 640 L-4816 638 L-4795 636 L-4778 634 L-4759 632 L-4738 630 L-4718 628 L-4700 626 L-4681 624 L-4661 623 L-4642 621 L-4623 619 L-4604 617 L-4584 614 L-4564 613 L-4545 611 L-4527 610 L-4499 608 L-4478 606 L-4450 604 L-4416 602 L-4402 600 L-4389 599 L-4370 597 L-4351 596 L-4331 594 L-4313 593 L-4293 591 L-4274 589 L-4253 588 L-4236 586 L-4217 584 L-4196 582 L-4176 580 L-4158 578 L-4139 576 L-4120 573 L-4099 570 L-4081 568 L-4062 566 L-4041 564 L-4016 561 L-4001 559 L-3984 556 L-3965 554 L-3945 552 L-3926 549 L-3907 547 L-3887 545 L-3866 542 L-3849 540 L-3830 538 L-3809 536 L-3789 534 L-3772 532 L-3753 531 L-3733 529 L-3714 528 L-3694 526 L-3675 525 L-3656 524 L-3636 523 L-3617 521 L-3598 521 L-3570 519 L-3550 518 L-3522 517 L-3486 514 L-3473 512 L-3460 509 L-3441 507 L-3423 506 L-3403 504 L-3385 503 L-3365 501 L-3345 500 L-3324 498 L-3307 497 L-3289 495 L-3268 493 L-3248 491 L-3230 489 L-3211 487 L-3191 485 L-3171 483 L-3153 482 L-3134 480 L-3112 479 L-3087 477 L-3073 476 L-3056 474 L-3036 473 L-3017 471 L-2998 469 L-2979 467 L-2959 464 L-2938 462 L-2920 459 L-2901 457 L-2881 455 L-2860 453 L-2843 452 L-2824 451 L-2804 449 L-2785 448 L-2766 447 L-2747 446 L-2727 445 L-2707 443 L-2688 443 L-2669 441 L-2642 440 L-2621 439 L-2593 438 L-2559 437 L-2545 436 L-2532 435 L-2513 434 L-2494 433 L-2475 432 L-2456 431 L-2437 430 L-2417 430 L-2396 429 L-2379 428 L-2360 427 L-2340 426 L-2320 425 L-2301 424 L-2283 423 L-2263 422 L-2242 421 L-2224 421 L-2205 420 L-2184 419 L-2159 419 L-2145 418 L-2128 416 L-2108 416 L-2089 415 L-2069 414 L-2050 413 L-2030 412 L-2010 410 L-1992 408 L-1973 406 L-1953 404 L-1932 403 L-1914 402 L-1895 400 L-1876 399 L-1857 398 L-1837 397 L-1818 395 L-1798 394 L-1779 393 L-1760 392 L-1741 391 L-1712 391 L-1665 390 L-1628 389 L-1613 388 L-1600 387 L-1583 386 L-1566 386 L-1546 385 L-1527 384 L-1508 384 L-1488 383 L-1468 382 L-1450 382 L-1431 381 L-1411 381 L-1391 380 L-1373 379 L-1354 378 L-1334 377 L-1314 376 L-1296 375 L-1277 374 L-1255 373 L-1231 371 L-1216 370 L-1199 369 L-1179 367 L-1160 366 L-1141 364 L-1122 363 L-1102 362 L-1081 361 L-1063 359 L-1044 358 L-1024 357 L-1004 356 L-986 355 L-967 354 L-947 353 L-928 352 L-909 351 L-890 350 L-870 349 L-850 348 L-831 347 L-812 346 L-784 345 L-764 344 L-736 343 L-699 341 L-685 339 L-672 337 L-654 335 L-637 334 L-617 333 L-599 332 L-579 332 L-559 331 L-538 330 L-521 329 L-503 328 L-482 327 L-462 325 L-444 323 L-425 321 L-405 319 L-384 318 L-367 316 L-348 315 L-327 313 L-302 312 L-287 310 L-269 309 L-251 308 L-230 307 L-212 306 L-193 304 L-173 303 L-151 301 L-135 300 L-115 299 L-95 297 L-74 296 L-57 295 L-38 294 L-19 293 L0 292 L19 291 L38 290 L58 289 L78 288 L97 287 L115 286 L143 997 L164 996 L191 995 L227 993 L241 280 L255 279 L273 277 L291 277 L310 276 L329 275 L348 275 L368 273 L389 272 L406 270 L425 269 L446 267 L466 266 L484 264 L503 262 L522 260 L543 259 L561 257 L580 256 L601 255 L626 253 L641 252 L671 250 L710 248 L733 246 L763 243 L779 241 L793 239 L812 238 L833 237 L853 236 L870 235 L889 234 L909 233 L928 232 L948 232 L967 231 L986 231 L1007 230 L1025 229 L1044 228 L1072 227 L1092 226 L1120 225 L1155 224 L1169 223 L1201 222 L1219 221 L1239 220 L1258 219 L1277 219 L1297 218 L1318 217 L1335 216 L1353 215 L1374 212 L1395 209 L1412 206 L1431 202 L1451 200 L1471 198 L1489 196 L1508 194 L1530 193 L1555 192 L1569 190 L1587 189 L1605 188 L1626 186 L1644 185 L1664 184 L1683 182 L1705 181 L1721 179 L1741 178 L1761 177 L1782 176 L1799 175 L1818 174 L1838 173 L1857 173 L1876 171 L1895 170 L1915 169 L1935 168 L1954 168 L1972 167 L2000 166 L2021 165 L2091 163 L2119 161 L2133 159 L2148 157 L2168 155 L2186 154 L2205 153 L2225 152 L2246 151 L2263 150 L2282 149 L2303 148 L2323 148 L2341 147 L2360 145 L2380 144 L2400 143 L2418 141 L2437 140 L2458 140 L2483 139 L2498 138 L2515 137 L2534 135 L2554 134 L2573 133 L2592 131 L2612 130 L2633 130 L2650 129 L2669 128 L2690 127 L2711 126 L2727 125 L2785 124 L2805 123 L2824 122 L2843 121 L2864 121 L2882 120 L2901 119 L2929 119 L2949 118 L2977 118 L3014 117 L3028 116 L3041 115 L3059 115 L3076 114 L3096 114 L3115 114 L3134 113 L3154 113 L3175 112 L3192 112 L3210 112 L3231 111 L3251 111 L3270 110 L3288 109 L3308 108 L3329 108 L3346 107 L3365 106 L3387 106 L3412 105 L3426 104 L3443 104 L3463 103 L3483 102 L3501 102 L3521 101 L3540 100 L3562 99 L3578 98 L3598 97 L3618 97 L3639 96 L3656 96 L3675 95 L3695 95 L3714 94 L3733 94 L3752 93 L3772 93 L3792 93 L3811 92 L3830 92 L3857 92 L3878 91 L3906 90 L3941 90 L3955 89 L3968 89 L3986 88 L4005 88 L4025 87 L4043 87 L4082 86 L4103 86 L4120 86 L4139 85 L4159 84 L4179 83 L4198 82 L4216 82 L4236 81 L4256 81 L4275 80 L4294 79 L4315 79 L4339 78 L4354 78 L4371 77 L4391 77 L4410 76 L4430 76 L4449 75 L4469 74 L4489 74 L4507 73 L4526 73 L4547 72 L4567 71 L4584 71 L4603 70 L4623 70 L4642 70 L4662 69 L4681 69 L4700 68 L4720 68 L4739 67 L4758 67 L4787 66 L4835 66 L4872 65 L4887 65 L4900 64 L4917 64 L4933 64 L4953 63 L4972 63 L4991 63 L5011 62 L5032 62 L5049 62 L5068 62 L5088 62 L5108 61 L5126 61 L5145 61 L5165 60 L5185 60 L5203 60 L5222 59 L5243 59 L5268 58 L5283 57 L5300 57 L5320 56 L5339 55 L5358 54 L5377 52 L5397 51 L5418 50 L5436 49 L5455 48 L5475 47 L5495 46 L5513 45 L5532 44 L5552 43 L5571 42 L5590 41 L5609 40 L5629 39 L5649 38 L5668 37 L5687 36 L5715 35 L5735 34 L5763 33 L5800 32 L5815 32 L5828 31 L5845 30 L5862 29 L5882 29 L5900 28 L5920 28 L5940 27 L5961 26 L5978 25 L5996 25 L6017 24 L6038 23 L6055 22 L6075 21 L6094 21 L6115 20 L6132 19 L6151 18 L6173 17 L6197 16 L6213 15 L6230 14 L6249 13 L6269 12 L6287 11 L6307 10 L6326 9 L6348 8 L6364 6 L6384 5 L6404 4 L6425 3 L6442 3 L6461 2 L6481 2 L6500 1" />
</svg>
