<svg xmlns="http://www.w3.org/2000/svg" version="1.1" viewBox="0 0 6500 1000">
	<path fill="none" stroke="gold" stroke-width="125" stroke-linecap="round" stroke-linejoin="round" d="M0 3833  L-724232 3833 L-721628 3833 L-719960 3833 L-701631 3832 L-701460 3832 L-694303 3832 L-694269 3832 L-680838 3832 L-677917 3832 L-664576 3831 L-660407 3830 L-659247 3830 L-658628 3829 L-656616 3828 L-652844 3828 L-652244 3827 L-651915 3827 L-651702 3827 L-651160 3826 L-649922 3825 L-648743 3824 L-645879 3822 L-645357 3821 L-640501 3820 L-637564 3820 L-637521 3820 L-637213 3819 L-636961 3819 L-634366 3819 L-630111 3819 L-630093 3819 L-628856 3819 L-626978 3819 L-625025 3818 L-624077 3818 L-623806 3818 L-623496 3817 L-623398 3817 L-622568 3817 L-620537 3817 L-620247 3816 L-618100 3815 L-617945 3814 L-614288 3813 L-614037 3814 L-613939 3813 L-613422 3814 L-611270 3815 L-610342 3816 L-608816 3817 L-607576 3817 L-606030 3816 L-603068 3816 L-601946 3816 L-601637 3815 L-600426 3815 L-597419 3817 L-597399 3817 L-597052 3817 L-596839 3817 L-596713 3814 L-596471 3814 L-596433 3813 L-596413 3813 L-596394 3813 L-596335 3812 L-596277 3812 L-596259 3812 L-595815 3811 L-594576 3811 L-593030 3811 L-589643 3810 L-583916 3810 L-583715 3810 L-582079 3810 L-580357 3810 L-578925 3809 L-578693 3809 L-577977 3809 L-571845 3809 L-571477 3808 L-571323 3808 L-570745 3808 L-570452 3807 L-569485 3807 L-569175 3807 L-568576 3806 L-566970 3806 L-566235 3806 L-565925 3807 L-565157 3807 L-563121 3806 L-562695 3806 L-561883 3806 L-554454 3805 L-553931 3805 L-553757 3805 L-553022 3804 L-551455 3804 L-551049 3804 L-548824 3803 L-547876 3803 L-547451 3803 L-547121 3803 L-546077 3803 L-543969 3802 L-543717 3802 L-543098 3802 L-542285 3802 L-540177 3801 L-540129 3801 L-538201 3801 L-537875 3800 L-537740 3800 L-537237 3800 L-535824 3799 L-535321 3799 L-534799 3798 L-531240 3797 L-530505 3797 L-528080 3797 L-526790 3796 L-526383 3796 L-523231 3796 L-523076 3796 L-523056 3796 L-522689 3796 L-521431 3796 L-520716 3797 L-519826 3797 L-519419 3797 L-518491 3797 L-517382 3796 L-517079 3797 L-510830 3798 L-509883 3798 L-508256 3798 L-507755 3798 L-504079 3799 L-503246 3799 L-499293 3799 L-497882 3798 L-495392 3798 L-494716 3798 L-494677 3798 L-493806 3798 L-490595 3797 L-487732 3797 L-486764 3797 L-485642 3797 L-485624 3796 L-483999 3796 L-483534 3795 L-483442 3795 L-477073 3795 L-476125 3795 L-473668 3795 L-472795 3794 L-471559 3794 L-469558 3794 L-469160 3794 L-467724 3793 L-465698 3793 L-465485 3793 L-464305 3793 L-462796 3792 L-462776 3792 L-460764 3792 L-459894 3792 L-459023 3792 L-458439 3791 L-457901 3791 L-457244 3791 L-456006 3790 L-455445 3790 L-454264 3790 L-453026 3790 L-452988 3789 L-452601 3789 L-452059 3789 L-451285 3789 L-450163 3789 L-448074 3788 L-447741 3788 L-447455 3788 L-446526 3787 L-446043 3787 L-445308 3787 L-441676 3787 L-440549 3786 L-440394 3786 L-439368 3786 L-435653 3786 L-434436 3785 L-432618 3785 L-429832 3785 L-429270 3785 L-425383 3785 L-422906 3784 L-421571 3784 L-421068 3784 L-420585 3784 L-417895 3784 L-414124 3784 L-411666 3784 L-410487 3784 L-409847 3784 L-407488 3783 L-407410 3783 L-406363 3783 L-406269 3783 L-405767 3783 L-405321 3783 L-405263 3783 L-405050 3783 L-402090 3782 L-399383 3782 L-399228 3782 L-395707 3782 L-395184 3782 L-394217 3781 L-393868 3781 L-392824 3781 L-391895 3780 L-391470 3780 L-389961 3780 L-388994 3780 L-388975 3780 L-387079 3767 L-386963 3754 L-386915 3741 L-386891 3728 L-383886 3727 L-381856 3727 L-380095 3727 L-379728 3727 L-379282 3726 L-378915 3726 L-378501 3726 L-376516 3726 L-376303 3726 L-376148 3726 L-374543 3726 L-373421 3725 L-372473 3725 L-371216 3725 L-369571 3725 L-368391 3724 L-361802 3724 L-361755 3724 L-361350 3724 L-360305 3724 L-360169 3723 L-358487 3723 L-358467 3723 L-357130 3723 L-355894 3722 L-355740 3722 L-355366 3722 L-355159 3722 L-354850 3722 L-354076 3721 L-351755 3721 L-351097 3721 L-348969 3721 L-347246 3720 L-347053 3720 L-344500 3720 L-344223 3720 L-344035 3719 L-343203 3719 L-342430 3719 L-341732 3719 L-336732 3719 L-336356 3718 L-332103 3718 L-331616 3736 L-331596 3736 L-331518 3735 L-331442 3735 L-331422 3717 L-330610 3717 L-329856 3717 L-328637 3717 L-327205 3717 L-327109 3716 L-326934 3716 L-326580 3716 L-325270 3716 L-323413 3716 L-321711 3715 L-321208 3715 L-320943 3715 L-320549 3715 L-320415 3715 L-319505 3714 L-319129 3714 L-318201 3714 L-317862 3714 L-317822 3714 L-317784 3714 L-315869 3714 L-315695 3714 L-314166 3714 L-313838 3714 L-313722 3713 L-313315 3713 L-312967 3713 L-311323 3713 L-310772 3712 L-310529 3712 L-309988 3712 L-309156 3712 L-308615 3711 L-307080 3711 L-306988 3711 L-306951 3711 L-306815 3711 L-306428 3710 L-305403 3710 L-303527 3710 L-303430 3710 L-302830 3716 L-302463 3722 L-301978 3728 L-301940 3734 L-301166 3734 L-301109 3734 L-300934 3733 L-300741 3733 L-299135 3733 L-299116 3733 L-298960 3733 L-298845 3733 L-297665 3733 L-297511 3734 L-296844 3734 L-294395 3748 L-291881 3763 L-289211 3777 L-281512 3792 L-275844 3792 L-273629 3792 L-273606 3792 L-272632 3795 L-272612 3795 L-271749 3795 L-269008 3795 L-263210 3791 L-263056 3791 L-260270 3790 L-246662 3790 L-245916 3790 L-241506 3789 L-225159 3789 L-224927 3789 L-224390 3789 L-215931 3789 L-207225 3788 L-207013 3788 L-205040 3788 L-202254 3788 L-197767 3788 L-197612 3788 L-197443 3788 L-197302 3788 L-197012 3788 L-196973 3787 L-196702 3787 L-196530 3787 L-196120 3787 L-195000 3787 L-193819 3786 L-192543 3786 L-189679 3786 L-186759 3786 L-184767 3786 L-183219 3785 L-180181 3785 L-170856 3785 L-170332 3785 L-164609 3785 L-163102 3785 L-162287 3785 L-160603 3784 L-159882 3784 L-159714 3784 L-158669 3784 L-156602 3784 L-155239 3783 L-150796 3783 L-150699 3783 L-150660 3783 L-150641 3783 L-149809 3783 L-149731 3782 L-147159 3782 L-143909 3782 L-143755 3782 L-142806 3782 L-141065 3781 L-140350 3782 L-136809 3783 L-130232 3784 L-128814 3786 L-128794 3785 L-127843 3785 L-124369 3785 L-123616 3785 L-123054 3785 L-122272 3784 L-114768 3784 L-113169 3784 L-111595 3784 L-108410 3784 L-104077 3783 L-95507 3783 L-86761 3783 L-83687 3783 L-80421 3783 L-79874 3783 L-72737 3782 L-67070 3782 L-53005 3782 L-46994 3783 L-42288 3782 L-38284 3782 L-33177 3782 L-23463 3782 L-7892 3781 L-4809 3781 L-4507 3702 L-4488 3604 L-4469 3493 L-4449 3370 L-4429 3313 L-4410 3265 L-4391 3222 L-4364 3178 L-4343 3137 L-4315 3092 L-4280 3043 L-4266 3002 L-4253 2966 L-4235 2937 L-4216 2915 L-4196 2893 L-4178 2870 L-4158 2848 L-4139 2825 L-4117 2802 L-4101 2779 L-4082 2756 L-4061 2735 L-4041 2713 L-4023 2689 L-4004 2665 L-3985 2640 L-3964 2616 L-3946 2592 L-3927 2570 L-3906 2549 L-3881 2527 L-3866 2507 L-3849 2486 L-3830 2466 L-3810 2446 L-3791 2424 L-3772 2402 L-3752 2381 L-3732 2361 L-3714 2342 L-3695 2324 L-3674 2307 L-3654 2291 L-3637 2277 L-3618 2263 L-3598 2250 L-3579 2237 L-3559 2225 L-3540 2213 L-3520 2204 L-3501 2194 L-3482 2185 L-3463 2175 L-3436 2164 L-3415 2151 L-3387 2138 L-3353 2123 L-3339 2110 L-3325 2099 L-3307 2089 L-3288 2081 L-3268 2071 L-3249 2061 L-3230 2051 L-3210 2040 L-3190 2031 L-3172 2022 L-3153 2013 L-3133 2003 L-3113 1992 L-3095 1980 L-3076 1966 L-3056 1953 L-3036 1939 L-3017 1925 L-2999 1910 L-2977 1894 L-2953 1877 L-2938 1860 L-2921 1844 L-2901 1828 L-2882 1812 L-2863 1795 L-2844 1778 L-2824 1761 L-2803 1744 L-2785 1728 L-2766 1712 L-2746 1698 L-2726 1682 L-2708 1668 L-2689 1656 L-2669 1642 L-2650 1631 L-2631 1619 L-2612 1607 L-2592 1596 L-2573 1584 L-2553 1572 L-2534 1561 L-2505 1549 L-2486 1538 L-2458 1527 L-2421 1514 L-2406 1501 L-2393 1490 L-2376 1479 L-2359 1471 L-2339 1463 L-2321 1456 L-2302 1450 L-2282 1443 L-2261 1436 L-2244 1429 L-2225 1421 L-2204 1413 L-2185 1405 L-2166 1396 L-2147 1386 L-2127 1376 L-2108 1366 L-2089 1355 L-2070 1345 L-2049 1335 L-2025 1324 L-2010 1314 L-1993 1304 L-1973 1293 L-1954 1283 L-1934 1272 L-1915 1261 L-1895 1250 L-1875 1239 L-1857 1228 L-1838 1218 L-1818 1209 L-1797 1200 L-1779 1191 L-1760 1182 L-1741 1173 L-1722 1165 L-1702 1156 L-1683 1147 L-1663 1139 L-1644 1131 L-1625 1123 L-1606 1115 L-1578 1106 L-1557 1098 L-1529 1088 L-1493 1075 L-1479 1063 L-1466 1052 L-1448 1042 L-1430 1035 L-1411 1029 L-1392 1020 L-1372 1012 L-1353 1003 L-1331 993 L-1313 983 L-1296 972 L-1275 960 L-1255 948 L-1237 936 L-1218 922 L-1198 909 L-1178 897 L-1160 885 L-1141 875 L-1120 867 L-1095 861 L-1081 855 L-1063 848 L-1044 842 L-1024 835 L-1005 828 L-986 821 L-966 814 L-945 809 L-928 804 L-909 798 L-889 790 L-868 781 L-851 773 L-832 766 L-812 761 L-793 757 L-773 753 L-755 749 L-735 745 L-715 740 L-696 735 L-677 730 L-650 726 L-629 722 L-601 717 L-566 711 L-552 706 L-539 702 L-520 698 L-502 694 L-482 691 L-464 687 L-444 684 L-424 681 L-403 678 L-386 674 L-368 670 L-347 666 L-327 662 L-309 658 L-290 654 L-270 651 L-250 648 L-232 645 L-213 641 L-192 638 L-167 635 L-152 632 L-135 629 L-115 626 L-96 622 L-77 619 L-58 615 L-38 611 L-17 607 L0 604 L18 601 L39 597 L59 594 L77 591 L96 588 L116 585 L134 582 L154 579 L173 577 L193 575 L212 573 L232 571 L250 574 L279 578 L299 581 L327 585 L364 581 L379 579 L392 576 L410 575 L426 573 L446 571 L464 569 L484 567 L503 565 L525 563 L541 562 L560 560 L581 558 L601 556 L619 554 L638 551 L657 549 L678 547 L696 545 L715 544 L736 542 L761 540 L775 538 L793 536 L812 534 L831 532 L851 530 L870 528 L890 525 L910 522 L928 519 L947 517 L967 514 L988 512 L1005 509 L1024 507 L1044 504 L1063 502 L1083 499 L1102 497 L1122 494 L1141 492 L1160 490 L1179 488 L1207 486 L1227 483 L1255 481 L1290 478 L1304 475 L1317 473 L1336 471 L1354 469 L1374 467 L1393 465 L1412 463 L1432 461 L1453 459 L1470 456 L1489 454 L1509 452 L1529 449 L1547 446 L1566 443 L1586 439 L1606 436 L1624 433 L1643 430 L1665 427 L1690 424 L1704 421 L1721 418 L1741 415 L1760 412 L1779 408 L1798 405 L1818 402 L1839 399 L1857 396 L1876 394 L1896 391 L1917 388 L1934 386 L1953 384 L1973 382 L1992 380 L2011 378 L2030 377 L2050 375 L2070 373 L2089 372 L2108 371 L2135 369 L2156 367 L2184 365 L2219 362 L2233 359 L2246 356 L2265 353 L2283 351 L2303 349 L2321 347 L2341 345 L2360 343 L2382 341 L2398 339 L2417 337 L2438 334 L2458 332 L2476 329 L2495 327 L2515 324 L2535 322 L2553 319 L2572 318 L2593 316 L2618 314 L2633 312 L2650 310 L2669 308 L2689 305 L2708 303 L2727 300 L2747 297 L2768 293 L2785 290 L2804 287 L2825 284 L2845 282 L2862 280 L2881 279 L2902 277 L2920 276 L2940 274 L2959 272 L2979 271 L2998 269 L3018 268 L3036 267 L3063 265 L3084 264 L3112 262 L3146 261 L3161 259 L3174 258 L3192 257 L3211 255 L3231 254 L3249 253 L3269 252 L3289 251 L3310 250 L3327 249 L3346 248 L3366 246 L3386 245 L3404 243 L3423 242 L3443 241 L3463 240 L3482 239 L3500 239 L3522 238 L3546 237 L3561 235 L3578 234 L3598 233 L3617 232 L3636 230 L3655 229 L3675 228 L3696 226 L3714 223 L3733 221 L3753 218 L3773 216 L3791 214 L3810 213 L3830 211 L3849 209 L3869 208 L3887 206 L3907 205 L3926 203 L3946 202 L3965 201 L3993 200 L4041 199 L4078 198 L4093 196 L4105 195 L4122 194 L4140 193 L4160 193 L4178 192 L4197 191 L4218 190 L4238 189 L4255 188 L4274 187 L4295 187 L4314 186 L4333 185 L4352 184 L4372 182 L4391 181 L4410 180 L4429 178 L4450 177 L4475 175 L4489 173 L4506 171 L4526 169 L4545 167 L4565 166 L4584 164 L4604 162 L4624 161 L4642 159 L4661 157 L4682 156 L4702 154 L4720 153 L4738 152 L4759 151 L4777 150 L4797 149 L4816 147 L4836 146 L4855 145 L4875 143 L4893 142 L4922 141 L4942 139 L4970 137 L5006 135 L5021 132 L5034 129 L5051 127 L5069 126 L5089 124 L5107 123 L5127 123 L5146 122 L5168 121 L5184 119 L5203 118 L5224 116 L5244 114 L5262 112 L5281 109 L5301 107 L5321 104 L5339 102 L5358 100 L5379 98 L5404 96 L5419 95 L5437 93 L5455 92 L5475 90 L5494 89 L5513 86 L5533 84 L5554 82 L5571 81 L5590 79 L5610 78 L5632 76 L5648 75 L5667 73 L5687 72 L5706 71 L5726 69 L5744 68 L5764 67 L5784 65 L5803 64 L5822 63 L5850 997 L5870 995 L5898 994 L5934 991 L5948 55 L5961 53 L5979 51 L5997 50 L6017 49 L6035 49 L6055 48 L6075 46 L6096 44 L6113 42 L6131 40 L6152 38 L6172 36 L6190 33 L6209 31 L6229 28 L6250 27 L6267 25 L6286 24 L6308 22 L6333 20 L6348 18 L6377 15 L6417 12 L6440 10 L6469 6 L6486 4 L6500 1" />
</svg>
