<svg xmlns="http://www.w3.org/2000/svg" version="1.1" viewBox="0 0 6500 1000">
	<path fill="none" stroke="gold" stroke-width="125" stroke-linecap="round" stroke-linejoin="round" d="M0 1021  L-715565 1021 L-712961 1021 L-711293 1021 L-692964 1021 L-692794 1021 L-685636 1021 L-685603 1021 L-672172 1020 L-669250 1021 L-655909 1020 L-651740 1020 L-650580 1020 L-649961 1019 L-647949 1019 L-644177 1019 L-643577 1019 L-643249 1019 L-643035 1019 L-642494 1018 L-641256 1018 L-640077 1017 L-637212 1017 L-636690 1016 L-631835 1016 L-628897 1016 L-628854 1016 L-628546 1015 L-628294 1015 L-625699 1015 L-621444 1015 L-621426 1015 L-620189 1015 L-618312 1015 L-616358 1015 L-615410 1015 L-615139 1015 L-614830 1015 L-614731 1015 L-613901 1015 L-611870 1015 L-611580 1014 L-609433 1014 L-609278 1013 L-605622 1013 L-605371 1013 L-605272 1013 L-604755 1013 L-602604 1013 L-601675 1014 L-600149 1014 L-598909 1014 L-597363 1014 L-594401 1014 L-593279 1014 L-592970 1014 L-591759 1014 L-588752 1014 L-588733 1014 L-588385 1014 L-588172 1014 L-588046 1013 L-587804 1013 L-587766 1013 L-587747 1013 L-587727 1013 L-587668 1012 L-587610 1012 L-587592 1012 L-587149 1012 L-585909 1012 L-584364 1012 L-580976 1012 L-575250 1011 L-575048 1011 L-573412 1011 L-571690 1011 L-570258 1011 L-570026 1011 L-569311 1011 L-563178 1011 L-562811 1011 L-562656 1011 L-562078 1011 L-561785 1010 L-560818 1010 L-560508 1010 L-559909 1010 L-558303 1010 L-557568 1010 L-557258 1010 L-556490 1010 L-554454 1010 L-554028 1010 L-553216 1010 L-545787 1010 L-545264 1009 L-545091 1009 L-544356 1009 L-542788 1009 L-542382 1009 L-540157 1009 L-539209 1009 L-538784 1009 L-538454 1009 L-537410 1008 L-535302 1008 L-535050 1008 L-534431 1008 L-533618 1008 L-531511 1008 L-531462 1008 L-529534 1008 L-529208 1007 L-529073 1007 L-528570 1007 L-527157 1007 L-526654 1007 L-526133 1006 L-522573 1006 L-521838 1006 L-519413 1006 L-518124 1006 L-517717 1006 L-514564 1006 L-514409 1006 L-514389 1006 L-514023 1006 L-512764 1006 L-512049 1006 L-511159 1006 L-510752 1006 L-509824 1006 L-508715 1006 L-508412 1006 L-502163 1006 L-501216 1006 L-499590 1007 L-499088 1007 L-495412 1007 L-494580 1007 L-490627 1007 L-489215 1007 L-486726 1006 L-486049 1006 L-486010 1006 L-485140 1006 L-481928 1006 L-479065 1006 L-478097 1006 L-476976 1006 L-476957 1006 L-475332 1006 L-474868 1005 L-474776 1005 L-468406 1005 L-467458 1005 L-465001 1005 L-464129 1005 L-462893 1005 L-460891 1005 L-460494 1005 L-459057 1004 L-457031 1004 L-456818 1004 L-455638 1004 L-454130 1004 L-454109 1004 L-452097 1004 L-451228 1004 L-450357 1004 L-449772 1004 L-449235 1003 L-448577 1003 L-447339 1003 L-446778 1003 L-445597 1003 L-444360 1003 L-444321 1003 L-443934 1003 L-443393 1003 L-442619 1003 L-441497 1002 L-439407 1002 L-439074 1002 L-438788 1002 L-437860 1002 L-437376 1002 L-436641 1002 L-433010 1002 L-431882 1002 L-431727 1002 L-430701 1001 L-426987 1001 L-425769 1001 L-423951 1001 L-421165 1001 L-420604 1001 L-416716 1001 L-414239 1001 L-412904 1001 L-412401 1001 L-411918 1001 L-409229 1001 L-405457 1001 L-403000 1001 L-401820 1001 L-401181 1001 L-398821 1000 L-398744 1000 L-397696 1000 L-397603 1000 L-397100 1000 L-396654 1000 L-396597 1000 L-396383 1000 L-393423 1000 L-390716 1000 L-390561 1000 L-387040 1000 L-386517 1000 L-385550 999 L-385201 999 L-384157 999 L-383229 999 L-382803 999 L-381294 999 L-380327 999 L-380308 999 L-378412 993 L-378296 988 L-378248 982 L-378224 977 L-375220 977 L-373189 977 L-371428 977 L-371061 977 L-370616 976 L-370249 976 L-369835 976 L-367850 976 L-367637 976 L-367482 976 L-365876 976 L-364755 976 L-363806 976 L-362549 976 L-360904 976 L-359725 976 L-353135 976 L-353089 975 L-352683 975 L-351638 975 L-351502 975 L-349820 975 L-349800 975 L-348463 975 L-347227 975 L-347073 975 L-346699 975 L-346493 974 L-346183 974 L-345409 974 L-343088 974 L-342430 974 L-340302 974 L-338580 974 L-338386 974 L-335833 974 L-335557 974 L-335368 973 L-334536 973 L-333764 973 L-333065 973 L-328065 973 L-327689 973 L-323436 973 L-322949 980 L-322930 980 L-322851 980 L-322775 980 L-322756 973 L-321943 973 L-321189 972 L-319970 972 L-318538 972 L-318442 972 L-318267 972 L-317913 972 L-316604 972 L-314746 972 L-313044 972 L-312541 972 L-312276 972 L-311883 972 L-311749 972 L-310839 971 L-310462 971 L-309534 971 L-309195 971 L-309155 971 L-309118 971 L-307202 971 L-307028 971 L-305500 971 L-305171 971 L-305055 971 L-304648 971 L-304300 971 L-302656 971 L-302105 971 L-301862 970 L-301321 970 L-300490 970 L-299948 970 L-298413 970 L-298321 970 L-298284 970 L-298148 970 L-297761 970 L-296736 970 L-294860 970 L-294764 970 L-294163 972 L-293796 974 L-293312 977 L-293274 979 L-292500 980 L-292442 980 L-292268 979 L-292074 979 L-290469 979 L-290449 979 L-290294 979 L-290178 979 L-288999 979 L-288844 980 L-288177 980 L-285729 986 L-283214 992 L-280544 998 L-272845 1004 L-267177 1004 L-264963 1004 L-264939 1004 L-263965 1005 L-263945 1005 L-263082 1005 L-260342 1005 L-254543 1003 L-254390 1003 L-251604 1003 L-237995 1003 L-237250 1003 L-232839 1003 L-216493 1003 L-216260 1003 L-215723 1003 L-207264 1002 L-198558 1002 L-198346 1002 L-196373 1002 L-193587 1002 L-189100 1002 L-188945 1002 L-188776 1002 L-188636 1002 L-188345 1002 L-188306 1002 L-188035 1002 L-187864 1002 L-187454 1002 L-186333 1002 L-185153 1002 L-183876 1002 L-181012 1001 L-178092 1001 L-176100 1001 L-174552 1001 L-171514 1001 L-162190 1001 L-161666 1001 L-155942 1001 L-154435 1001 L-153620 1001 L-151937 1001 L-151216 1001 L-151047 1001 L-150002 1001 L-147935 1000 L-146573 1000 L-142129 1000 L-142032 1000 L-141994 1000 L-141975 1000 L-141142 1000 L-141064 1000 L-138492 1000 L-135243 1000 L-135088 1000 L-134140 1000 L-132398 999 L-131683 1000 L-128142 1000 L-121565 1001 L-120148 1001 L-120127 1001 L-119176 1001 L-115702 1001 L-114949 1001 L-114387 1001 L-113605 1001 L-106101 1001 L-104503 1001 L-102929 1001 L-99743 1000 L-95410 1000 L-86841 1000 L-78094 1000 L-75020 1000 L-71754 1000 L-71208 1000 L-64071 1000 L-58403 1000 L-44338 1000 L-38327 1000 L-33621 1000 L-29618 1000 L-24510 1000 L-14796 1000 L774 999 L3856 999 L4158 966 L4178 925 L4197 879 L4217 827 L4236 803 L4256 783 L4274 765 L4302 747 L4323 729 L4351 711 L4386 690 L4399 673 L4413 658 L4431 646 L4450 636 L4470 627 L4488 618 L4507 608 L4527 599 L4548 589 L4565 579 L4584 570 L4604 561 L4624 552 L4643 542 L4661 532 L4681 521 L4701 511 L4720 501 L4739 492 L4760 483 L4785 474 L4799 465 L4816 457 L4836 448 L4855 440 L4875 431 L4893 422 L4914 413 L4934 405 L4952 396 L4971 389 L4991 382 L5012 375 L5029 369 L5048 363 L5068 358 L5087 352 L5107 347 L5125 343 L5145 339 L5165 335 L5184 331 L5203 327 L5230 322 L5251 317 L5279 311 L5313 305 L5327 299 L5340 295 L5359 290 L5378 287 L5398 283 L5416 279 L5436 274 L5456 270 L5476 266 L5494 262 L5512 258 L5533 254 L5552 250 L5571 245 L5590 239 L5610 233 L5629 227 L5648 222 L5667 216 L5688 209 L5713 202 L5727 195 L5744 188 L5764 181 L5783 174 L5803 167 L5822 160 L5842 153 L5862 146 L5880 139 L5899 133 L5920 126 L5940 120 L5958 114 L5977 109 L5997 103 L6015 99 L6035 94 L6054 89 L6074 84 L6093 79 L6113 74 L6131 69 L6160 64 L6180 60 L6208 55 L6245 50 L6260 44 L6272 39 L6290 35 L6307 31 L6326 28 L6345 25 L6364 23 L6384 20 L6405 17 L6422 14 L6441 11 L6461 7 L6481 4 L6500 0" />
</svg>
