<svg xmlns="http://www.w3.org/2000/svg" version="1.1" viewBox="0 0 6500 1000">
	<path fill="none" stroke="gold" stroke-width="125" stroke-linecap="round" stroke-linejoin="round" d="M0 3776  L-724594 3776 L-721990 3776 L-720322 3776 L-701993 3776 L-701823 3775 L-694665 3775 L-694632 3775 L-681201 3775 L-678279 3775 L-664938 3774 L-660769 3774 L-659609 3773 L-658990 3772 L-656978 3772 L-653206 3771 L-652606 3771 L-652278 3771 L-652065 3770 L-651523 3770 L-650285 3768 L-649106 3767 L-646242 3766 L-645719 3764 L-640864 3764 L-637927 3764 L-637884 3763 L-637575 3763 L-637323 3763 L-634728 3762 L-630473 3762 L-630455 3762 L-629218 3762 L-627341 3762 L-625387 3762 L-624439 3762 L-624168 3761 L-623859 3761 L-623761 3761 L-622930 3761 L-620899 3761 L-620609 3759 L-618463 3759 L-618307 3758 L-614651 3757 L-614400 3757 L-614301 3757 L-613784 3758 L-611633 3758 L-610704 3759 L-609178 3760 L-607939 3760 L-606392 3760 L-603430 3760 L-602308 3759 L-601999 3759 L-600788 3759 L-597781 3761 L-597762 3761 L-597414 3760 L-597201 3760 L-597075 3758 L-596833 3757 L-596795 3757 L-596776 3757 L-596757 3756 L-596698 3756 L-596639 3756 L-596621 3755 L-596178 3755 L-594939 3755 L-593393 3754 L-590005 3754 L-584279 3754 L-584077 3754 L-582441 3753 L-580719 3753 L-579287 3753 L-579055 3753 L-578340 3753 L-572208 3753 L-571840 3752 L-571685 3752 L-571107 3752 L-570814 3751 L-569847 3751 L-569537 3751 L-568938 3750 L-567332 3750 L-566597 3750 L-566287 3750 L-565519 3750 L-563483 3750 L-563058 3750 L-562245 3749 L-554816 3749 L-554293 3749 L-554120 3748 L-553385 3748 L-551817 3748 L-551411 3748 L-549186 3747 L-548239 3747 L-547814 3747 L-547483 3747 L-546439 3747 L-544331 3746 L-544079 3746 L-543460 3746 L-542648 3746 L-540540 3745 L-540491 3745 L-538563 3744 L-538237 3744 L-538102 3744 L-537599 3744 L-536186 3743 L-535683 3743 L-535162 3742 L-531602 3741 L-530867 3741 L-528442 3741 L-527153 3740 L-526746 3740 L-523593 3740 L-523438 3740 L-523418 3740 L-523052 3740 L-521793 3741 L-521078 3741 L-520188 3741 L-519781 3741 L-518853 3741 L-517744 3741 L-517441 3741 L-511192 3742 L-510245 3742 L-508619 3742 L-508117 3742 L-504441 3743 L-503609 3743 L-499656 3743 L-498244 3742 L-495755 3742 L-495078 3742 L-495039 3742 L-494169 3742 L-490957 3741 L-488094 3741 L-487126 3741 L-486005 3741 L-485986 3740 L-484361 3740 L-483897 3739 L-483805 3739 L-477436 3739 L-476487 3739 L-474030 3739 L-473158 3738 L-471922 3738 L-469920 3738 L-469523 3738 L-468087 3737 L-466060 3737 L-465847 3737 L-464667 3737 L-463159 3737 L-463138 3736 L-461126 3736 L-460257 3736 L-459386 3736 L-458801 3735 L-458264 3735 L-457606 3735 L-456368 3734 L-455807 3734 L-454626 3734 L-453389 3734 L-453350 3734 L-452963 3733 L-452422 3733 L-451648 3733 L-450526 3733 L-448436 3732 L-448103 3732 L-447817 3732 L-446889 3732 L-446406 3731 L-445670 3731 L-442039 3731 L-440911 3731 L-440757 3731 L-439731 3730 L-436016 3730 L-434798 3730 L-432980 3729 L-430194 3729 L-429633 3729 L-425745 3729 L-423268 3729 L-421933 3729 L-421430 3728 L-420947 3728 L-418258 3728 L-414486 3728 L-412029 3728 L-410849 3728 L-410210 3728 L-407850 3728 L-407773 3728 L-406725 3727 L-406632 3727 L-406129 3727 L-405683 3727 L-405626 3727 L-405412 3727 L-402453 3727 L-399745 3727 L-399590 3726 L-396069 3726 L-395546 3726 L-394579 3725 L-394230 3725 L-393186 3725 L-392258 3725 L-391832 3724 L-390323 3724 L-389356 3724 L-389337 3724 L-387441 3712 L-387325 3699 L-387277 3686 L-387253 3673 L-384249 3673 L-382218 3673 L-380457 3672 L-380090 3672 L-379645 3672 L-379278 3672 L-378864 3671 L-376879 3671 L-376666 3671 L-376511 3671 L-374905 3671 L-373784 3671 L-372835 3671 L-371578 3670 L-369934 3670 L-368754 3670 L-362164 3670 L-362118 3669 L-361712 3669 L-360667 3669 L-360532 3669 L-358849 3669 L-358829 3668 L-357492 3668 L-356256 3668 L-356102 3668 L-355728 3667 L-355522 3667 L-355212 3667 L-354438 3667 L-352117 3667 L-351459 3666 L-349331 3666 L-347609 3666 L-347415 3666 L-344862 3665 L-344586 3665 L-344398 3665 L-343565 3665 L-342793 3664 L-342095 3664 L-337094 3664 L-336718 3664 L-332465 3664 L-331978 3681 L-331959 3681 L-331880 3681 L-331805 3680 L-331785 3663 L-330972 3663 L-330218 3662 L-328999 3662 L-327567 3662 L-327471 3662 L-327296 3662 L-326942 3662 L-325633 3662 L-323776 3661 L-322073 3661 L-321570 3661 L-321305 3661 L-320912 3660 L-320778 3660 L-319868 3660 L-319492 3660 L-318563 3660 L-318224 3660 L-318184 3660 L-318147 3660 L-316231 3660 L-316057 3659 L-314529 3659 L-314200 3659 L-314084 3659 L-313677 3659 L-313329 3659 L-311685 3658 L-311135 3658 L-310891 3658 L-310350 3658 L-309519 3657 L-308977 3657 L-307443 3657 L-307350 3657 L-307313 3656 L-307177 3656 L-306790 3656 L-305765 3656 L-303889 3656 L-303793 3656 L-303192 3661 L-302825 3667 L-302341 3673 L-302303 3679 L-301529 3679 L-301471 3679 L-301297 3679 L-301103 3679 L-299498 3678 L-299478 3678 L-299323 3678 L-299207 3679 L-298028 3679 L-297873 3679 L-297206 3679 L-294758 3693 L-292243 3708 L-289573 3722 L-281874 3736 L-276206 3736 L-273992 3736 L-273968 3736 L-272995 3739 L-272975 3739 L-272111 3739 L-269371 3739 L-263572 3735 L-263419 3735 L-260633 3734 L-247025 3734 L-246279 3734 L-241868 3734 L-225522 3733 L-225290 3733 L-224752 3733 L-216293 3733 L-207587 3733 L-207375 3732 L-205403 3732 L-202616 3732 L-198129 3732 L-197974 3732 L-197805 3732 L-197665 3732 L-197374 3732 L-197335 3732 L-197064 3731 L-196893 3731 L-196483 3731 L-195362 3731 L-194182 3731 L-192905 3731 L-190041 3730 L-187121 3730 L-185129 3730 L-183581 3730 L-180543 3729 L-171219 3729 L-170695 3729 L-164971 3729 L-163464 3729 L-162649 3729 L-160966 3729 L-160245 3728 L-160076 3728 L-159031 3728 L-156964 3728 L-155602 3728 L-151159 3728 L-151061 3727 L-151023 3727 L-151004 3727 L-150171 3727 L-150094 3727 L-147521 3726 L-144272 3726 L-144117 3726 L-143169 3726 L-141428 3725 L-140712 3727 L-137171 3727 L-130594 3728 L-129177 3730 L-129156 3730 L-128206 3729 L-124731 3729 L-123978 3729 L-123416 3729 L-122634 3729 L-115130 3728 L-113532 3728 L-111958 3728 L-108772 3728 L-104439 3728 L-95870 3728 L-87123 3728 L-84049 3727 L-80783 3727 L-80237 3727 L-73100 3727 L-67432 3727 L-53368 3727 L-47356 3727 L-42650 3727 L-38647 3726 L-33539 3726 L-23825 3726 L-8255 3726 L-5172 3725 L-4870 3648 L-4850 3552 L-4831 3443 L-4811 3322 L-4792 3267 L-4772 3220 L-4754 3177 L-4726 3135 L-4705 3094 L-4678 3050 L-4642 3002 L-4629 2962 L-4616 2927 L-4597 2898 L-4578 2876 L-4558 2855 L-4540 2833 L-4521 2811 L-4501 2789 L-4480 2766 L-4463 2743 L-4444 2721 L-4424 2700 L-4404 2679 L-4385 2656 L-4367 2632 L-4347 2607 L-4327 2584 L-4308 2560 L-4289 2539 L-4268 2518 L-4243 2496 L-4229 2476 L-4212 2457 L-4192 2436 L-4173 2417 L-4154 2396 L-4135 2374 L-4115 2353 L-4094 2334 L-4076 2315 L-4057 2297 L-4037 2281 L-4016 2265 L-3999 2251 L-3980 2238 L-3960 2225 L-3941 2212 L-3921 2200 L-3903 2189 L-3883 2180 L-3863 2170 L-3844 2161 L-3825 2152 L-3798 2140 L-3777 2128 L-3749 2115 L-3715 2100 L-3701 2088 L-3688 2077 L-3669 2067 L-3650 2059 L-3630 2050 L-3612 2040 L-3592 2030 L-3573 2020 L-3552 2010 L-3535 2002 L-3516 1992 L-3495 1983 L-3476 1972 L-3457 1960 L-3438 1947 L-3418 1934 L-3399 1920 L-3380 1906 L-3361 1892 L-3340 1876 L-3316 1860 L-3301 1843 L-3284 1827 L-3264 1811 L-3245 1796 L-3225 1779 L-3206 1762 L-3186 1746 L-3166 1729 L-3148 1714 L-3129 1698 L-3109 1684 L-3088 1669 L-3070 1655 L-3051 1642 L-3031 1629 L-3013 1618 L-2993 1607 L-2974 1595 L-2954 1584 L-2935 1572 L-2915 1561 L-2897 1550 L-2868 1538 L-2848 1528 L-2820 1517 L-2783 1504 L-2768 1491 L-2756 1480 L-2739 1469 L-2722 1461 L-2702 1454 L-2683 1447 L-2664 1441 L-2644 1434 L-2623 1428 L-2606 1420 L-2587 1413 L-2567 1405 L-2547 1397 L-2529 1388 L-2510 1379 L-2490 1369 L-2470 1358 L-2451 1348 L-2432 1338 L-2411 1328 L-2387 1318 L-2372 1308 L-2355 1298 L-2335 1287 L-2316 1277 L-2296 1267 L-2278 1255 L-2258 1245 L-2237 1234 L-2219 1224 L-2200 1214 L-2180 1205 L-2160 1196 L-2142 1187 L-2123 1179 L-2103 1170 L-2084 1161 L-2064 1152 L-2045 1144 L-2026 1136 L-2006 1128 L-1987 1120 L-1968 1112 L-1940 1104 L-1920 1096 L-1892 1087 L-1856 1074 L-1841 1062 L-1828 1051 L-1811 1041 L-1793 1035 L-1773 1028 L-1754 1020 L-1735 1012 L-1715 1003 L-1694 993 L-1675 983 L-1658 973 L-1638 961 L-1618 949 L-1600 937 L-1581 924 L-1561 911 L-1540 899 L-1523 887 L-1504 878 L-1482 870 L-1458 864 L-1443 858 L-1425 851 L-1406 845 L-1387 838 L-1368 831 L-1349 824 L-1329 818 L-1308 813 L-1291 808 L-1271 802 L-1251 794 L-1230 786 L-1213 777 L-1194 771 L-1174 766 L-1155 762 L-1136 758 L-1117 754 L-1097 750 L-1077 745 L-1058 740 L-1040 736 L-1012 731 L-991 727 L-963 722 L-929 717 L-915 712 L-902 708 L-883 704 L-864 701 L-844 697 L-826 693 L-806 690 L-787 687 L-766 684 L-749 681 L-730 677 L-709 673 L-689 669 L-671 665 L-653 661 L-633 658 L-612 655 L-594 652 L-575 648 L-554 645 L-529 642 L-515 639 L-497 636 L-478 633 L-459 630 L-439 626 L-420 623 L-400 619 L-379 615 L-362 612 L-343 609 L-323 605 L-302 602 L-285 599 L-266 596 L-246 593 L-227 590 L-207 588 L-188 585 L-168 583 L-149 581 L-130 579 L-111 583 L-82 586 L-62 590 L-34 593 L2 590 L17 587 L30 585 L47 583 L63 582 L83 580 L102 578 L121 575 L141 574 L162 572 L179 570 L198 569 L218 567 L238 565 L256 563 L275 560 L295 558 L315 556 L333 554 L352 553 L374 551 L398 550 L413 548 L430 545 L450 543 L469 541 L488 540 L507 537 L527 535 L548 532 L566 529 L585 526 L605 524 L626 522 L643 519 L662 517 L682 514 L701 512 L720 509 L739 507 L759 504 L779 502 L798 500 L817 498 L844 496 L865 494 L893 491 L928 488 L941 486 L955 484 L974 482 L992 480 L1012 478 L1030 476 L1050 474 L1070 471 L1091 469 L1108 467 L1126 465 L1147 463 L1167 460 L1185 457 L1204 454 L1224 451 L1244 447 L1262 444 L1281 442 L1302 439 L1327 435 L1342 432 L1359 429 L1378 426 L1398 423 L1417 420 L1436 417 L1456 414 L1477 411 L1494 408 L1513 406 L1534 403 L1555 401 L1572 398 L1590 396 L1610 395 L1629 393 L1649 391 L1668 389 L1688 387 L1708 386 L1726 384 L1745 383 L1773 381 L1794 380 L1821 378 L1857 375 L1871 372 L1884 369 L1902 366 L1920 364 L1940 362 L1959 360 L1978 358 L1998 357 L2019 354 L2036 352 L2055 350 L2075 348 L2095 345 L2114 343 L2132 340 L2152 338 L2173 335 L2191 333 L2209 331 L2231 329 L2256 327 L2270 326 L2288 324 L2307 321 L2327 319 L2346 317 L2365 314 L2385 311 L2406 307 L2423 304 L2442 301 L2462 299 L2483 297 L2500 295 L2519 293 L2539 292 L2558 290 L2578 289 L2596 287 L2616 285 L2636 284 L2655 283 L2674 281 L2701 280 L2722 278 L2750 277 L2784 275 L2798 274 L2811 273 L2830 272 L2849 270 L2869 269 L2887 268 L2907 267 L2926 266 L2947 265 L2964 264 L2983 263 L3004 261 L3024 260 L3042 259 L3061 257 L3081 256 L3101 255 L3119 255 L3138 254 L3159 253 L3184 252 L3198 251 L3216 249 L3235 248 L3254 247 L3274 246 L3293 245 L3313 243 L3333 241 L3351 239 L3370 236 L3391 234 L3411 232 L3429 230 L3448 229 L3468 227 L3486 225 L3506 224 L3525 222 L3545 221 L3564 219 L3584 218 L3602 217 L3631 216 L3679 215 L3716 214 L3730 212 L3743 211 L3760 210 L3777 209 L3797 209 L3816 208 L3835 207 L3855 206 L3876 205 L3893 204 L3912 204 L3932 203 L3952 202 L3970 201 L3989 200 L4009 199 L4029 198 L4048 196 L4067 195 L4088 193 L4112 191 L4127 189 L4144 188 L4164 186 L4183 184 L4203 182 L4221 181 L4241 179 L4262 178 L4280 176 L4299 174 L4319 173 L4339 171 L4357 170 L4376 169 L4396 168 L4415 167 L4435 166 L4453 164 L4473 163 L4493 162 L4512 160 L4531 159 L4559 158 L4579 156 L4607 155 L4644 152 L4659 149 L4671 147 L4689 145 L4706 143 L4726 142 L4745 141 L4764 140 L4784 139 L4805 138 L4822 137 L4840 135 L4861 134 L4882 132 L4899 130 L4919 127 L4938 124 L4959 122 L4976 120 L4995 118 L5017 116 L5042 115 L5057 113 L5074 111 L5093 110 L5113 108 L5131 107 L5150 105 L5170 103 L5192 101 L5208 99 L5228 98 L5248 96 L5269 95 L5286 93 L5305 92 L5325 90 L5344 89 L5363 88 L5382 86 L5402 85 L5422 84 L5441 83 L5460 82 L5488 997 L5508 995 L5536 994 L5572 992 L5586 73 L5599 72 L5617 70 L5635 69 L5654 68 L5673 68 L5693 67 L5712 65 L5734 63 L5750 61 L5769 59 L5790 57 L5810 55 L5828 53 L5847 50 L5867 48 L5888 46 L5905 45 L5924 43 L5945 42 L5970 40 L5985 37 L6015 35 L6055 32 L6078 29 L6107 26 L6123 23 L6137 21 L6156 20 L6177 18 L6198 17 L6214 16 L6233 14 L6253 13 L6272 12 L6292 12 L6311 11 L6331 10 L6351 9 L6369 8 L6388 7 L6416 5 L6436 4 L6464 3 L6500 1" />
</svg>
