<svg xmlns="http://www.w3.org/2000/svg" version="1.1" viewBox="0 0 6500 1000">
	<path fill="none" stroke="gold" stroke-width="125" stroke-linecap="round" stroke-linejoin="round" d="M0 5288  L-121299 5288 L-118694 5241 L-117026 5194 L-98697 5100 L-98527 5005 L-91369 4911 L-91336 4911 L-77905 4864 L-74983 4911 L-61642 4769 L-57473 4580 L-56313 4344 L-55694 4109 L-53682 3967 L-49910 3873 L-49310 3778 L-48982 3684 L-48769 3589 L-48227 3495 L-46989 3117 L-45810 2740 L-42946 2362 L-42423 1985 L-37568 1890 L-34631 1796 L-34588 1702 L-34279 1607 L-34027 1513 L-31432 1419 L-27177 1419 L-27159 1419 L-25922 1419 L-24045 1419 L-22091 1324 L-21143 1230 L-20873 1135 L-20563 1088 L-20465 1041 L-19634 1041 L-17603 1088 L-17313 663 L-15167 475 L-15011 192 L-11355 -91 L-11104 50 L-11005 3 L-10488 144 L-8337 380 L-7408 616 L-5882 852 L-4643 852 L-3096 805 L-134 711 L987 616 L1296 522 L2507 475 L5514 994 L5533 947 L5881 899 L6094 852 L6220 192 L6462 97 L6500 3" />
</svg>
