<svg xmlns="http://www.w3.org/2000/svg" version="1.1" viewBox="0 0 6500 1000">
	<path fill="none" stroke="gold" stroke-width="125" stroke-linecap="round" stroke-linejoin="round" d="M0 3413  L-726786 3413 L-724182 3413 L-722514 3412 L-704184 3412 L-704014 3412 L-696856 3412 L-696823 3412 L-683392 3411 L-680470 3412 L-667129 3411 L-662960 3411 L-661800 3410 L-661181 3409 L-659169 3409 L-655398 3408 L-654797 3408 L-654469 3408 L-654256 3407 L-653714 3407 L-652476 3406 L-651297 3405 L-648433 3403 L-647910 3402 L-643055 3402 L-640118 3402 L-640075 3401 L-639766 3401 L-639514 3401 L-636920 3400 L-632664 3400 L-632646 3400 L-631409 3400 L-629532 3400 L-627578 3400 L-626630 3400 L-626360 3400 L-626050 3399 L-625952 3399 L-625121 3399 L-623091 3399 L-622800 3398 L-620654 3397 L-620498 3397 L-616842 3396 L-616591 3396 L-616492 3396 L-615975 3396 L-613824 3397 L-612895 3398 L-611369 3399 L-610130 3399 L-608583 3399 L-605621 3398 L-604500 3398 L-604190 3398 L-602979 3397 L-599972 3399 L-599953 3399 L-599605 3399 L-599392 3399 L-599266 3397 L-599025 3396 L-598987 3396 L-598967 3396 L-598948 3395 L-598889 3395 L-598830 3395 L-598812 3394 L-598369 3394 L-597130 3394 L-595584 3394 L-592196 3393 L-586470 3393 L-586268 3393 L-584633 3393 L-582911 3393 L-581478 3393 L-581246 3392 L-580531 3392 L-574399 3392 L-574031 3392 L-573877 3391 L-573298 3391 L-573006 3391 L-572038 3391 L-571729 3390 L-571130 3390 L-569523 3390 L-568788 3390 L-568478 3390 L-567710 3390 L-565674 3390 L-565249 3390 L-564436 3389 L-557008 3389 L-556485 3389 L-556311 3388 L-555576 3388 L-554008 3388 L-553603 3388 L-551378 3387 L-550430 3387 L-550005 3387 L-549674 3387 L-548631 3387 L-546523 3387 L-546270 3386 L-545651 3386 L-544839 3386 L-542731 3386 L-542682 3385 L-540754 3385 L-540428 3385 L-540293 3384 L-539790 3384 L-538378 3384 L-537875 3383 L-537353 3383 L-533793 3382 L-533058 3382 L-530633 3382 L-529344 3381 L-528937 3381 L-525784 3381 L-525630 3381 L-525609 3381 L-525243 3381 L-523985 3382 L-523270 3382 L-522380 3382 L-521973 3382 L-521044 3382 L-519935 3382 L-519632 3382 L-513383 3382 L-512436 3383 L-510810 3383 L-510308 3383 L-506632 3383 L-505800 3384 L-501847 3384 L-500435 3383 L-497946 3383 L-497269 3383 L-497231 3382 L-496360 3382 L-493149 3382 L-490286 3382 L-489318 3382 L-488196 3382 L-488177 3381 L-486552 3381 L-486088 3381 L-485996 3381 L-479627 3380 L-478678 3380 L-476221 3380 L-475349 3380 L-474113 3380 L-472112 3379 L-471714 3379 L-470278 3379 L-468252 3379 L-468038 3378 L-466858 3378 L-465350 3378 L-465330 3378 L-463317 3378 L-462448 3378 L-461577 3377 L-460992 3377 L-460455 3377 L-459797 3377 L-458559 3376 L-457999 3376 L-456817 3376 L-455580 3376 L-455541 3376 L-455154 3375 L-454613 3375 L-453839 3375 L-452717 3375 L-450628 3375 L-450294 3374 L-450008 3374 L-449080 3374 L-448597 3374 L-447861 3373 L-444230 3373 L-443102 3373 L-442948 3373 L-441922 3373 L-438207 3372 L-436990 3372 L-435171 3372 L-432385 3372 L-431824 3371 L-427936 3371 L-425460 3371 L-424125 3371 L-423621 3371 L-423138 3371 L-420449 3371 L-416677 3371 L-414220 3371 L-413040 3371 L-412401 3371 L-410041 3371 L-409964 3370 L-408917 3370 L-408823 3370 L-408320 3370 L-407875 3370 L-407817 3370 L-407603 3370 L-404644 3370 L-401936 3369 L-401781 3369 L-398261 3369 L-397738 3369 L-396770 3369 L-396421 3368 L-395378 3368 L-394449 3368 L-394023 3368 L-392514 3368 L-391547 3368 L-391528 3367 L-389632 3356 L-389516 3345 L-389469 3334 L-389444 3323 L-386440 3323 L-384409 3323 L-382648 3322 L-382281 3322 L-381836 3322 L-381469 3322 L-381055 3321 L-379070 3321 L-378857 3321 L-378702 3321 L-377097 3321 L-375975 3321 L-375027 3321 L-373769 3321 L-372125 3320 L-370945 3320 L-364356 3320 L-364309 3320 L-363903 3320 L-362858 3320 L-362723 3319 L-361040 3319 L-361020 3319 L-359683 3319 L-358447 3318 L-358293 3318 L-357919 3318 L-357713 3318 L-357403 3318 L-356630 3317 L-354308 3317 L-353650 3317 L-351522 3317 L-349800 3317 L-349607 3317 L-347053 3316 L-346777 3316 L-346589 3316 L-345756 3316 L-344984 3315 L-344286 3315 L-339285 3315 L-338909 3315 L-334656 3315 L-334169 3330 L-334150 3330 L-334071 3330 L-333996 3329 L-333976 3314 L-333163 3314 L-332409 3314 L-331190 3314 L-329758 3314 L-329662 3313 L-329488 3313 L-329133 3313 L-327824 3313 L-325967 3313 L-324264 3312 L-323762 3312 L-323496 3312 L-323103 3312 L-322969 3312 L-322059 3312 L-321683 3312 L-320754 3312 L-320415 3311 L-320375 3311 L-320338 3311 L-318422 3311 L-318249 3311 L-316720 3311 L-316392 3311 L-316276 3311 L-315868 3311 L-315520 3310 L-313877 3310 L-313326 3310 L-313083 3310 L-312541 3310 L-311710 3309 L-311168 3309 L-309634 3309 L-309541 3309 L-309505 3309 L-309369 3308 L-308981 3308 L-307957 3308 L-306080 3308 L-305984 3308 L-305384 3313 L-305016 3318 L-304532 3323 L-304494 3328 L-303720 3328 L-303662 3328 L-303488 3328 L-303294 3328 L-301689 3327 L-301669 3327 L-301514 3328 L-301399 3328 L-300219 3328 L-300064 3328 L-299397 3328 L-296949 3341 L-294434 3353 L-291764 3365 L-284065 3378 L-278397 3378 L-276183 3377 L-276160 3377 L-275186 3380 L-275166 3380 L-274302 3380 L-271562 3380 L-265763 3377 L-265610 3377 L-262824 3376 L-249216 3376 L-248470 3376 L-244059 3376 L-227713 3375 L-227481 3375 L-226944 3375 L-218484 3375 L-209779 3375 L-209566 3375 L-207594 3374 L-204808 3374 L-200320 3375 L-200165 3374 L-199996 3374 L-199856 3374 L-199565 3374 L-199526 3374 L-199256 3374 L-199084 3374 L-198674 3373 L-197553 3373 L-196373 3373 L-195096 3373 L-192232 3373 L-189312 3373 L-187320 3372 L-185772 3372 L-182734 3372 L-173410 3372 L-172886 3372 L-167162 3372 L-165655 3372 L-164841 3372 L-163157 3371 L-162436 3371 L-162267 3371 L-161222 3371 L-159155 3371 L-157793 3371 L-153350 3370 L-153252 3370 L-153214 3370 L-153195 3370 L-152362 3370 L-152285 3369 L-149712 3369 L-146463 3369 L-146308 3369 L-145360 3369 L-143619 3369 L-142903 3369 L-139363 3370 L-132785 3371 L-131368 3372 L-131347 3372 L-130397 3372 L-126922 3372 L-126169 3372 L-125607 3371 L-124825 3371 L-117321 3371 L-115723 3371 L-114149 3371 L-110963 3371 L-106630 3371 L-98061 3370 L-89314 3370 L-86241 3370 L-82974 3370 L-82428 3370 L-75291 3370 L-69623 3370 L-55559 3370 L-49547 3370 L-44841 3370 L-40838 3369 L-35730 3369 L-26016 3369 L-10446 3369 L-7363 3368 L-7061 3301 L-7041 3218 L-7022 3123 L-7003 3018 L-6983 2970 L-6964 2929 L-6945 2892 L-6917 2855 L-6897 2820 L-6869 2782 L-6833 2740 L-6820 2705 L-6807 2674 L-6788 2649 L-6770 2631 L-6750 2612 L-6732 2593 L-6712 2574 L-6692 2554 L-6671 2534 L-6654 2515 L-6636 2496 L-6615 2477 L-6595 2459 L-6577 2439 L-6558 2418 L-6538 2397 L-6518 2376 L-6500 2356 L-6481 2337 L-6459 2319 L-6435 2300 L-6420 2283 L-6403 2266 L-6383 2248 L-6364 2231 L-6345 2213 L-6326 2194 L-6306 2176 L-6285 2159 L-6267 2143 L-6248 2127 L-6228 2113 L-6207 2099 L-6190 2087 L-6171 2076 L-6151 2064 L-6132 2053 L-6113 2043 L-6094 2033 L-6074 2025 L-6054 2017 L-6035 2009 L-6016 2001 L-5989 1991 L-5968 1981 L-5940 1969 L-5906 1956 L-5892 1945 L-5879 1936 L-5860 1927 L-5841 1920 L-5821 1912 L-5803 1904 L-5784 1895 L-5764 1886 L-5743 1878 L-5726 1870 L-5707 1862 L-5687 1854 L-5667 1845 L-5648 1834 L-5630 1823 L-5610 1811 L-5590 1799 L-5571 1787 L-5552 1775 L-5531 1762 L-5507 1747 L-5492 1732 L-5475 1719 L-5455 1705 L-5436 1691 L-5416 1677 L-5397 1662 L-5377 1648 L-5357 1634 L-5339 1620 L-5320 1607 L-5300 1594 L-5279 1581 L-5262 1569 L-5243 1558 L-5223 1547 L-5204 1537 L-5184 1527 L-5165 1517 L-5145 1508 L-5126 1497 L-5107 1487 L-5088 1478 L-5059 1468 L-5039 1459 L-5012 1449 L-4974 1438 L-4959 1427 L-4947 1417 L-4930 1408 L-4913 1401 L-4893 1394 L-4874 1388 L-4855 1383 L-4835 1377 L-4814 1372 L-4797 1365 L-4778 1359 L-4758 1352 L-4738 1345 L-4720 1337 L-4701 1329 L-4681 1320 L-4661 1311 L-4642 1302 L-4624 1294 L-4603 1285 L-4578 1276 L-4564 1268 L-4546 1259 L-4526 1250 L-4507 1241 L-4488 1232 L-4469 1222 L-4449 1213 L-4428 1203 L-4410 1194 L-4391 1186 L-4371 1178 L-4351 1170 L-4333 1163 L-4314 1155 L-4294 1148 L-4275 1140 L-4256 1132 L-4237 1125 L-4217 1118 L-4198 1111 L-4178 1105 L-4159 1098 L-4131 1090 L-4111 1083 L-4083 1075 L-4047 1064 L-4033 1054 L-4020 1044 L-4002 1035 L-3984 1030 L-3964 1024 L-3946 1017 L-3926 1010 L-3906 1002 L-3885 994 L-3867 985 L-3850 976 L-3829 966 L-3809 956 L-3791 945 L-3772 934 L-3752 922 L-3732 912 L-3714 902 L-3695 893 L-3674 887 L-3649 881 L-3634 876 L-3617 871 L-3598 865 L-3578 859 L-3559 853 L-3540 847 L-3520 842 L-3499 837 L-3482 833 L-3463 828 L-3442 821 L-3421 814 L-3404 807 L-3385 801 L-3365 796 L-3347 793 L-3327 790 L-3308 786 L-3288 782 L-3269 778 L-3249 774 L-3231 770 L-3203 766 L-3182 763 L-3155 759 L-3120 754 L-3106 749 L-3093 746 L-3074 743 L-3055 740 L-3036 737 L-3017 734 L-2998 731 L-2978 728 L-2957 725 L-2940 722 L-2921 719 L-2900 716 L-2880 712 L-2862 709 L-2844 706 L-2824 703 L-2803 700 L-2785 697 L-2766 694 L-2745 692 L-2720 689 L-2706 686 L-2689 684 L-2669 681 L-2650 678 L-2630 675 L-2611 672 L-2592 668 L-2571 665 L-2553 662 L-2534 660 L-2514 657 L-2493 654 L-2476 652 L-2457 649 L-2437 647 L-2418 644 L-2398 642 L-2380 640 L-2360 638 L-2340 636 L-2321 634 L-2302 637 L-2273 640 L-2254 643 L-2226 646 L-2188 643 L-2173 641 L-2160 639 L-2143 638 L-2127 636 L-2107 635 L-2089 633 L-2069 631 L-2049 629 L-2028 628 L-2011 626 L-1993 625 L-1972 623 L-1952 622 L-1934 620 L-1915 618 L-1895 616 L-1875 614 L-1857 613 L-1838 611 L-1817 610 L-1792 609 L-1777 607 L-1760 605 L-1740 603 L-1721 601 L-1702 600 L-1683 598 L-1663 596 L-1642 593 L-1625 591 L-1606 588 L-1585 586 L-1565 584 L-1547 582 L-1528 580 L-1508 578 L-1489 576 L-1470 574 L-1451 571 L-1431 569 L-1411 567 L-1392 565 L-1374 564 L-1346 562 L-1325 560 L-1297 558 L-1263 555 L-1249 553 L-1236 551 L-1217 549 L-1198 548 L-1178 546 L-1160 544 L-1140 543 L-1121 541 L-1100 539 L-1083 537 L-1064 535 L-1043 533 L-1023 531 L-1005 528 L-986 525 L-967 522 L-946 520 L-928 517 L-909 515 L-888 512 L-863 509 L-848 507 L-831 504 L-812 501 L-792 499 L-773 496 L-754 493 L-734 491 L-713 488 L-696 486 L-677 483 L-656 481 L-636 479 L-619 477 L-600 475 L-580 474 L-561 472 L-541 470 L-522 469 L-503 468 L-483 466 L-464 465 L-445 464 L-417 462 L-397 461 L-369 459 L-333 456 L-320 454 L-306 451 L-288 449 L-270 447 L-250 446 L-231 444 L-212 442 L-192 441 L-171 439 L-154 437 L-135 435 L-115 433 L-95 431 L-77 429 L-58 427 L-38 424 L-18 422 L0 420 L18 419 L40 417 L65 415 L79 414 L96 412 L116 410 L135 408 L154 406 L173 404 L193 401 L214 398 L232 395 L251 393 L271 391 L292 389 L309 387 L328 386 L348 384 L367 383 L386 382 L405 380 L425 379 L445 378 L464 377 L483 375 L510 374 L531 373 L559 371 L593 370 L607 369 L620 368 L639 367 L658 366 L677 365 L696 364 L715 363 L735 362 L756 361 L773 360 L792 359 L812 358 L832 357 L851 356 L869 355 L889 354 L910 353 L928 352 L947 352 L968 351 L993 350 L1007 349 L1024 348 L1044 346 L1063 346 L1083 345 L1102 344 L1122 342 L1142 340 L1160 338 L1179 336 L1199 334 L1220 332 L1238 331 L1257 330 L1276 328 L1295 327 L1315 325 L1334 324 L1354 323 L1373 321 L1392 320 L1411 319 L1440 319 L1488 318 L1524 316 L1539 315 L1552 314 L1569 313 L1586 313 L1606 312 L1625 312 L1644 311 L1664 310 L1684 309 L1702 309 L1721 308 L1741 307 L1761 306 L1779 306 L1798 305 L1818 304 L1838 303 L1856 302 L1875 300 L1897 299 L1921 297 L1936 295 L1953 294 L1973 292 L1992 291 L2011 289 L2030 288 L2050 287 L2071 285 L2089 284 L2108 282 L2128 281 L2148 280 L2166 279 L2185 278 L2205 277 L2224 276 L2243 275 L2262 274 L2282 273 L2302 271 L2321 270 L2340 269 L2368 268 L2388 267 L2416 265 L2453 263 L2467 261 L2480 258 L2498 257 L2515 255 L2535 254 L2553 253 L2573 253 L2593 252 L2614 251 L2631 250 L2649 248 L2670 247 L2690 245 L2708 243 L2727 241 L2747 239 L2768 237 L2785 235 L2804 234 L2825 232 L2850 230 L2865 229 L2883 228 L2901 226 L2922 225 L2940 224 L2959 222 L2979 220 L3001 218 L3017 217 L3037 216 L3057 214 L3078 213 L3095 212 L3114 211 L3133 209 L3153 208 L3172 207 L3191 206 L3211 205 L3231 204 L3250 203 L3268 202 L3296 997 L3317 996 L3344 995 L3380 993 L3394 195 L3408 193 L3426 192 L3444 191 L3463 190 L3482 190 L3501 189 L3521 187 L3542 186 L3559 184 L3578 182 L3599 181 L3619 179 L3637 177 L3656 175 L3675 172 L3696 171 L3714 170 L3733 168 L3754 167 L3779 165 L3794 163 L3824 161 L3863 159 L3886 156 L3916 154 L3932 151 L3946 149 L3965 148 L3986 147 L4006 146 L4023 145 L4042 143 L4062 142 L4081 142 L4101 141 L4120 140 L4139 140 L4160 139 L4178 137 L4197 137 L4225 136 L4245 134 L4273 133 L4308 132 L4322 131 L4354 130 L4372 128 L4392 128 L4411 127 L4430 126 L4450 125 L4471 125 L4488 124 L4506 122 L4527 119 L4548 115 L4565 112 L4584 108 L4604 105 L4624 103 L4642 100 L4661 99 L4683 98 L4708 96 L4723 95 L4740 93 L4759 91 L4779 90 L4797 89 L4817 87 L4836 86 L4858 84 L4874 82 L4894 81 L4914 80 L4935 78 L4952 78 L4971 77 L4991 76 L5010 75 L5029 73 L5048 72 L5068 71 L5088 70 L5107 69 L5125 68 L5153 67 L5174 66 L5244 64 L5272 62 L5286 59 L5301 57 L5321 55 L5339 54 L5358 53 L5378 51 L5399 50 L5416 49 L5435 48 L5456 48 L5476 47 L5494 46 L5513 44 L5533 43 L5553 41 L5571 40 L5590 39 L5611 38 L5636 37 L5651 36 L5669 35 L5687 33 L5707 31 L5726 30 L5745 29 L5765 28 L5786 27 L5803 26 L5822 25 L5843 24 L5864 23 L5880 22 L5938 20 L5958 19 L5977 18 L5997 18 L6017 17 L6035 16 L6054 15 L6082 15 L6102 14 L6130 13 L6167 12 L6181 12 L6194 11 L6212 10 L6229 10 L6249 9 L6268 9 L6287 8 L6307 8 L6328 8 L6345 7 L6364 7 L6384 6 L6404 5 L6423 5 L6441 4 L6461 3 L6482 2 L6500 1" />
</svg>
