<svg xmlns="http://www.w3.org/2000/svg" version="1.1" viewBox="0 0 6500 1000">
	<path fill="none" stroke="gold" stroke-width="125" stroke-linecap="round" stroke-linejoin="round" d="M0 3782  L-722607 3782 L-720003 3782 L-718335 3782 L-700006 3782 L-699835 3781 L-692678 3781 L-692645 3781 L-679214 3781 L-676292 3781 L-662951 3780 L-658782 3780 L-657622 3779 L-657003 3778 L-654991 3777 L-651219 3777 L-650619 3777 L-650290 3776 L-650077 3776 L-649536 3776 L-648298 3774 L-647119 3773 L-644254 3771 L-643732 3770 L-638876 3769 L-635939 3769 L-635896 3769 L-635588 3768 L-635336 3768 L-632741 3768 L-628486 3768 L-628468 3768 L-627231 3768 L-625353 3768 L-623400 3767 L-622452 3767 L-622181 3767 L-621871 3766 L-621773 3766 L-620943 3766 L-618912 3766 L-618622 3765 L-616475 3764 L-616320 3763 L-612663 3762 L-612412 3762 L-612314 3762 L-611797 3763 L-609646 3764 L-608717 3765 L-607191 3765 L-605951 3765 L-604405 3765 L-601443 3765 L-600321 3765 L-600012 3764 L-598801 3764 L-595794 3766 L-595774 3766 L-595427 3766 L-595214 3765 L-595088 3763 L-594846 3763 L-594808 3762 L-594789 3762 L-594769 3762 L-594710 3761 L-594652 3761 L-594634 3760 L-594191 3760 L-592951 3760 L-591405 3759 L-588018 3759 L-582291 3759 L-582090 3759 L-580454 3758 L-578732 3758 L-577300 3758 L-577068 3758 L-576352 3758 L-570220 3758 L-569852 3757 L-569698 3757 L-569120 3756 L-568827 3756 L-567860 3756 L-567550 3755 L-566951 3755 L-565345 3755 L-564610 3755 L-564300 3755 L-563532 3755 L-561496 3755 L-561070 3754 L-560258 3754 L-552829 3754 L-552306 3754 L-552133 3753 L-551398 3753 L-549830 3753 L-549424 3752 L-547199 3752 L-546251 3752 L-545826 3752 L-545496 3752 L-544452 3751 L-542344 3751 L-542092 3751 L-541473 3750 L-540660 3750 L-538552 3750 L-538504 3749 L-536576 3749 L-536250 3749 L-536115 3748 L-535612 3748 L-534199 3748 L-533696 3747 L-533174 3747 L-529615 3746 L-528880 3745 L-526455 3745 L-525165 3745 L-524759 3745 L-521606 3745 L-521451 3745 L-521431 3745 L-521064 3745 L-519806 3745 L-519091 3745 L-518201 3745 L-517794 3745 L-516866 3745 L-515757 3745 L-515454 3746 L-509205 3746 L-508258 3746 L-506631 3747 L-506130 3747 L-502454 3747 L-501622 3747 L-497669 3747 L-496257 3747 L-493767 3747 L-493091 3746 L-493052 3746 L-492181 3746 L-488970 3746 L-486107 3746 L-485139 3745 L-484018 3745 L-483999 3745 L-482374 3744 L-481910 3744 L-481818 3744 L-475448 3743 L-474500 3743 L-472043 3743 L-471170 3743 L-469934 3743 L-467933 3742 L-467536 3742 L-466099 3742 L-464073 3741 L-463860 3741 L-462680 3741 L-461171 3741 L-461151 3741 L-459139 3740 L-458270 3740 L-457399 3740 L-456814 3740 L-456277 3739 L-455619 3739 L-454381 3738 L-453820 3738 L-452639 3738 L-451402 3738 L-451363 3738 L-450976 3738 L-450434 3737 L-449661 3737 L-448538 3737 L-446449 3736 L-446116 3736 L-445830 3736 L-444902 3736 L-444418 3735 L-443683 3735 L-440052 3735 L-438924 3735 L-438769 3734 L-437743 3734 L-434029 3734 L-432811 3734 L-430993 3733 L-428207 3733 L-427646 3733 L-423758 3733 L-421281 3732 L-419946 3732 L-419443 3732 L-418960 3732 L-416270 3732 L-412499 3732 L-410042 3732 L-408862 3732 L-408223 3732 L-405863 3732 L-405786 3731 L-404738 3731 L-404645 3731 L-404142 3731 L-403696 3731 L-403639 3731 L-403425 3731 L-400465 3730 L-397758 3730 L-397603 3730 L-394082 3730 L-393559 3730 L-392592 3729 L-392243 3729 L-391199 3729 L-390271 3728 L-389845 3728 L-388336 3728 L-387369 3728 L-387350 3728 L-385454 3715 L-385338 3701 L-385290 3688 L-385266 3674 L-382262 3674 L-380231 3674 L-378470 3674 L-378103 3673 L-377657 3673 L-377290 3673 L-376877 3673 L-374892 3672 L-374678 3672 L-374523 3672 L-372918 3672 L-371796 3672 L-370848 3672 L-369591 3672 L-367946 3671 L-366767 3671 L-360177 3671 L-360131 3671 L-359725 3670 L-358680 3670 L-358544 3670 L-356862 3670 L-356842 3670 L-355505 3669 L-354269 3669 L-354115 3669 L-353741 3668 L-353534 3668 L-353225 3668 L-352451 3668 L-350130 3668 L-349472 3667 L-347344 3667 L-345622 3667 L-345428 3667 L-342875 3666 L-342598 3666 L-342410 3666 L-341578 3666 L-340805 3665 L-340107 3665 L-335107 3665 L-334731 3665 L-330478 3665 L-329991 3683 L-329972 3683 L-329893 3682 L-329817 3682 L-329797 3664 L-328985 3664 L-328231 3663 L-327012 3663 L-325580 3663 L-325484 3663 L-325309 3663 L-324955 3662 L-323646 3662 L-321788 3662 L-320086 3662 L-319583 3662 L-319318 3661 L-318925 3661 L-318790 3661 L-317881 3661 L-317504 3661 L-316576 3661 L-316237 3661 L-316197 3661 L-316159 3660 L-314244 3660 L-314070 3660 L-312541 3660 L-312213 3660 L-312097 3660 L-311690 3659 L-311342 3659 L-309698 3659 L-309147 3659 L-308904 3659 L-308363 3658 L-307531 3658 L-306990 3658 L-305455 3657 L-305363 3657 L-305326 3657 L-305190 3657 L-304803 3657 L-303778 3657 L-301902 3656 L-301805 3656 L-301205 3662 L-300838 3668 L-300353 3674 L-300315 3681 L-299541 3681 L-299484 3681 L-299309 3680 L-299116 3680 L-297511 3680 L-297491 3680 L-297335 3680 L-297220 3680 L-296040 3680 L-295886 3681 L-295219 3681 L-292771 3696 L-290256 3711 L-287586 3725 L-279887 3740 L-274219 3740 L-272004 3740 L-271981 3740 L-271007 3743 L-270987 3743 L-270124 3743 L-267383 3743 L-261585 3739 L-261431 3739 L-258646 3739 L-245037 3738 L-244291 3738 L-239881 3738 L-223534 3738 L-223302 3737 L-222765 3737 L-214306 3737 L-205600 3737 L-205388 3736 L-203415 3736 L-200629 3736 L-196142 3736 L-195987 3736 L-195818 3736 L-195677 3736 L-195387 3736 L-195348 3736 L-195077 3735 L-194906 3735 L-194495 3735 L-193375 3735 L-192195 3735 L-190918 3734 L-188054 3734 L-185134 3734 L-183142 3734 L-181594 3734 L-178556 3733 L-169232 3733 L-168708 3733 L-162984 3733 L-161477 3733 L-160662 3733 L-158979 3732 L-158258 3732 L-158089 3732 L-157044 3732 L-154977 3732 L-153615 3732 L-149171 3731 L-149074 3731 L-149036 3731 L-149017 3731 L-148184 3731 L-148106 3730 L-145534 3730 L-142285 3730 L-142130 3730 L-141181 3730 L-139440 3729 L-138725 3730 L-135184 3731 L-128607 3732 L-127190 3734 L-127169 3734 L-126218 3733 L-122744 3733 L-121991 3733 L-121429 3733 L-120647 3732 L-113143 3732 L-111544 3732 L-109970 3732 L-106785 3732 L-102452 3732 L-93882 3731 L-85136 3731 L-82062 3731 L-78796 3731 L-78250 3731 L-71112 3730 L-65445 3730 L-51380 3730 L-45369 3731 L-40663 3730 L-36659 3730 L-31552 3730 L-21838 3730 L-6267 3729 L-3185 3729 L-2882 3648 L-2863 3548 L-2844 3434 L-2824 3308 L-2805 3250 L-2785 3201 L-2767 3156 L-2739 3112 L-2718 3069 L-2690 3023 L-2655 2973 L-2641 2931 L-2628 2894 L-2610 2864 L-2591 2841 L-2571 2819 L-2553 2796 L-2533 2773 L-2514 2750 L-2493 2725 L-2476 2702 L-2457 2679 L-2436 2657 L-2417 2635 L-2398 2611 L-2379 2586 L-2360 2560 L-2339 2535 L-2321 2511 L-2302 2488 L-2281 2466 L-2256 2444 L-2242 2423 L-2224 2402 L-2205 2381 L-2185 2361 L-2166 2339 L-2147 2316 L-2127 2295 L-2107 2274 L-2089 2254 L-2070 2236 L-2049 2218 L-2029 2202 L-2012 2188 L-1993 2173 L-1973 2160 L-1954 2147 L-1934 2134 L-1915 2123 L-1895 2113 L-1876 2103 L-1857 2093 L-1838 2084 L-1811 2072 L-1790 2059 L-1762 2045 L-1728 2030 L-1714 2017 L-1701 2006 L-1682 1995 L-1663 1987 L-1643 1977 L-1625 1967 L-1605 1956 L-1585 1945 L-1565 1936 L-1547 1927 L-1528 1917 L-1508 1907 L-1488 1896 L-1470 1883 L-1451 1869 L-1431 1855 L-1411 1841 L-1393 1827 L-1374 1812 L-1353 1796 L-1328 1778 L-1314 1761 L-1296 1744 L-1277 1728 L-1257 1711 L-1238 1694 L-1219 1676 L-1199 1659 L-1179 1642 L-1160 1626 L-1142 1609 L-1121 1594 L-1101 1579 L-1083 1564 L-1064 1551 L-1044 1537 L-1025 1526 L-1006 1514 L-987 1502 L-967 1490 L-948 1478 L-928 1466 L-909 1454 L-881 1442 L-861 1431 L-833 1420 L-796 1406 L-781 1393 L-768 1381 L-751 1370 L-734 1361 L-714 1354 L-696 1347 L-677 1340 L-657 1333 L-636 1326 L-619 1319 L-600 1311 L-579 1302 L-560 1294 L-541 1285 L-523 1275 L-503 1265 L-483 1254 L-464 1243 L-445 1233 L-424 1223 L-400 1212 L-385 1201 L-368 1191 L-348 1180 L-329 1169 L-309 1158 L-290 1146 L-270 1135 L-250 1124 L-232 1113 L-213 1103 L-193 1093 L-172 1084 L-155 1075 L-136 1066 L-116 1057 L-97 1048 L-77 1039 L-58 1030 L-38 1022 L-19 1013 L0 1005 L18 997 L46 988 L67 980 L94 970 L131 956 L145 944 L158 932 L175 922 L193 916 L213 909 L232 900 L252 892 L271 882 L292 872 L311 861 L328 851 L348 839 L369 826 L387 813 L406 800 L425 786 L446 773 L464 761 L482 751 L504 743 L529 737 L543 730 L561 724 L580 717 L599 710 L619 703 L637 696 L657 689 L678 684 L696 679 L715 672 L735 664 L756 655 L773 647 L792 640 L812 634 L831 630 L850 626 L869 622 L889 618 L909 613 L928 607 L947 603 L974 598 L995 594 L1023 589 L1058 583 L1071 578 L1085 574 L1103 570 L1122 566 L1142 563 L1160 559 L1180 555 L1200 552 L1221 549 L1238 545 L1256 542 L1277 537 L1297 533 L1315 529 L1334 525 L1354 522 L1374 519 L1392 515 L1411 512 L1432 508 L1457 505 L1472 502 L1489 499 L1508 496 L1528 492 L1547 489 L1566 485 L1586 480 L1607 477 L1624 473 L1643 470 L1664 467 L1684 464 L1702 460 L1721 457 L1741 454 L1759 451 L1779 448 L1798 446 L1818 444 L1837 441 L1856 439 L1875 443 L1904 447 L1924 450 L1952 454 L1989 450 L2004 448 L2017 445 L2034 443 L2051 442 L2071 440 L2089 438 L2109 435 L2128 433 L2150 432 L2166 430 L2185 428 L2205 426 L2226 424 L2244 422 L2262 420 L2282 418 L2302 415 L2321 413 L2340 412 L2361 410 L2386 408 L2400 406 L2417 404 L2437 402 L2456 400 L2476 398 L2495 396 L2514 393 L2535 390 L2553 387 L2572 384 L2592 381 L2613 379 L2630 377 L2649 374 L2669 372 L2688 369 L2708 366 L2726 364 L2746 361 L2766 358 L2785 357 L2804 355 L2831 352 L2852 350 L2880 347 L2915 344 L2928 342 L2942 340 L2961 337 L2979 335 L2999 333 L3017 331 L3037 329 L3057 327 L3078 324 L3095 322 L3113 320 L3134 318 L3154 315 L3172 312 L3191 308 L3211 305 L3231 301 L3249 298 L3268 295 L3289 292 L3314 289 L3329 286 L3346 282 L3365 279 L3385 276 L3404 273 L3423 270 L3443 267 L3464 264 L3481 261 L3501 258 L3521 255 L3542 252 L3559 250 L3578 248 L3598 246 L3617 244 L3636 242 L3655 240 L3675 239 L3695 237 L3714 236 L3733 234 L3760 232 L3781 231 L3809 229 L3844 225 L3858 222 L3871 219 L3890 216 L3908 214 L3928 212 L3946 210 L3966 208 L3985 206 L4006 204 L4023 202 L4042 200 L4063 197 L4083 195 L4101 192 L4120 190 L4139 187 L4160 184 L4178 182 L4197 180 L4218 178 L4243 176 L4258 174 L4275 172 L4294 170 L4314 168 L4333 165 L4352 162 L4372 159 L4393 155 L4410 152 L4429 149 L4450 146 L4470 144 L4487 142 L4506 140 L4526 139 L4545 137 L4565 136 L4584 134 L4604 132 L4623 131 L4642 129 L4661 128 L4688 126 L4709 125 L4737 123 L4771 122 L4785 120 L4799 119 L4817 118 L4836 116 L4856 115 L4874 114 L4894 113 L4914 112 L4934 111 L4952 109 L4970 108 L4991 107 L5011 105 L5029 104 L5048 103 L5068 102 L5088 101 L5106 100 L5125 99 L5146 98 L5171 97 L5186 96 L5203 94 L5222 93 L5242 92 L5261 91 L5280 90 L5300 88 L5321 86 L5338 83 L5357 81 L5378 78 L5398 76 L5416 74 L5435 73 L5455 71 L5474 69 L5493 67 L5512 66 L5532 64 L5551 63 L5571 62 L5590 61 L5618 59 L5666 58 L5703 57 L5718 56 L5730 54 L5747 53 L5765 53 L5784 52 L5803 51 L5822 50 L5842 49 L5863 48 L5880 47 L5899 47 L5919 46 L5939 45 L5958 44 L5976 43 L5997 41 L6016 40 L6035 39 L6054 37 L6075 36 L6099 34 L6114 32 L6131 30 L6151 28 L6170 26 L6190 24 L6209 23 L6229 21 L6249 19 L6267 17 L6286 16 L6306 14 L6327 13 L6344 12 L6363 10 L6383 9 L6402 8 L6422 7 L6441 5 L6461 4 L6480 3 L6500 1" />
</svg>
