<svg xmlns="http://www.w3.org/2000/svg" version="1.1" viewBox="0 0 6500 1000">
	<path fill="none" stroke="gold" stroke-width="125" stroke-linecap="round" stroke-linejoin="round" d="M0 3295  L-728565 3295 L-725961 3295 L-724293 3295 L-705964 3295 L-705794 3295 L-698636 3294 L-698603 3294 L-685172 3294 L-682250 3294 L-668909 3294 L-664740 3293 L-663580 3293 L-662961 3292 L-660949 3291 L-657177 3291 L-656577 3291 L-656249 3291 L-656036 3290 L-655494 3290 L-654256 3289 L-653077 3288 L-650212 3287 L-649690 3285 L-644835 3285 L-641897 3285 L-641855 3285 L-641546 3284 L-641294 3284 L-638699 3284 L-634444 3284 L-634426 3284 L-633189 3284 L-631312 3284 L-629358 3283 L-628410 3283 L-628139 3283 L-627830 3283 L-627732 3283 L-626901 3283 L-624870 3283 L-624580 3281 L-622434 3281 L-622278 3280 L-618622 3279 L-618371 3280 L-618272 3279 L-617755 3280 L-615604 3281 L-614675 3281 L-613149 3282 L-611909 3282 L-610363 3282 L-607401 3282 L-606279 3281 L-605970 3281 L-604759 3281 L-601752 3282 L-601733 3282 L-601385 3282 L-601172 3282 L-601046 3280 L-600804 3280 L-600766 3279 L-600747 3279 L-600727 3279 L-600669 3279 L-600610 3278 L-600592 3278 L-600149 3278 L-598910 3277 L-597364 3277 L-593976 3277 L-588250 3277 L-588048 3277 L-586412 3276 L-584690 3276 L-583258 3276 L-583026 3276 L-582311 3276 L-576178 3276 L-575811 3275 L-575656 3275 L-575078 3275 L-574785 3275 L-573818 3274 L-573508 3274 L-572909 3274 L-571303 3274 L-570568 3274 L-570258 3274 L-569490 3274 L-567454 3274 L-567029 3273 L-566216 3273 L-558787 3273 L-558264 3273 L-558091 3272 L-557356 3272 L-555788 3272 L-555382 3272 L-553157 3271 L-552210 3271 L-551785 3271 L-551454 3271 L-550410 3271 L-548302 3271 L-548050 3270 L-547431 3270 L-546619 3270 L-544511 3270 L-544462 3269 L-542534 3269 L-542208 3269 L-542073 3268 L-541570 3268 L-540157 3268 L-539654 3267 L-539133 3267 L-535573 3266 L-534838 3266 L-532413 3266 L-531124 3266 L-530717 3265 L-527564 3265 L-527409 3265 L-527389 3266 L-527023 3266 L-525764 3266 L-525049 3266 L-524159 3266 L-523752 3266 L-522824 3266 L-521715 3266 L-521412 3266 L-515163 3267 L-514216 3267 L-512590 3267 L-512088 3267 L-508412 3267 L-507580 3268 L-503627 3268 L-502215 3267 L-499726 3267 L-499049 3267 L-499010 3267 L-498140 3267 L-494928 3266 L-492065 3266 L-491097 3266 L-489976 3266 L-489957 3266 L-488332 3265 L-487868 3265 L-487776 3265 L-481407 3265 L-480458 3264 L-478001 3264 L-477129 3264 L-475893 3264 L-473891 3264 L-473494 3263 L-472057 3263 L-470031 3263 L-469818 3263 L-468638 3263 L-467130 3262 L-467109 3262 L-465097 3262 L-464228 3262 L-463357 3262 L-462772 3261 L-462235 3261 L-461577 3261 L-460339 3261 L-459778 3260 L-458597 3260 L-457360 3260 L-457321 3260 L-456934 3260 L-456393 3260 L-455619 3259 L-454497 3259 L-452407 3259 L-452074 3259 L-451788 3258 L-450860 3258 L-450377 3258 L-449641 3258 L-446010 3258 L-444882 3258 L-444728 3257 L-443702 3257 L-439987 3257 L-438769 3257 L-436951 3256 L-434165 3256 L-433604 3256 L-429716 3256 L-427239 3256 L-425904 3256 L-425401 3256 L-424918 3256 L-422229 3256 L-418457 3256 L-416000 3256 L-414820 3256 L-414181 3255 L-411821 3255 L-411744 3255 L-410696 3255 L-410603 3255 L-410100 3255 L-409654 3255 L-409597 3255 L-409383 3255 L-406424 3254 L-403716 3254 L-403561 3254 L-400040 3254 L-399517 3254 L-398550 3253 L-398201 3253 L-397157 3253 L-396229 3253 L-395803 3252 L-394294 3252 L-393327 3252 L-393308 3252 L-391412 3242 L-391296 3231 L-391248 3220 L-391224 3210 L-388220 3210 L-386189 3210 L-384428 3209 L-384061 3209 L-383616 3209 L-383249 3209 L-382835 3209 L-380850 3208 L-380637 3208 L-380482 3208 L-378876 3208 L-377755 3208 L-376806 3208 L-375549 3208 L-373904 3208 L-372725 3207 L-366135 3207 L-366089 3207 L-365683 3207 L-364638 3207 L-364503 3207 L-362820 3206 L-362800 3206 L-361463 3206 L-360227 3206 L-360073 3206 L-359699 3205 L-359493 3205 L-359183 3205 L-358409 3205 L-356088 3205 L-355430 3204 L-353302 3204 L-351580 3204 L-351386 3204 L-348833 3204 L-348557 3203 L-348369 3203 L-347536 3203 L-346764 3203 L-346066 3203 L-341065 3203 L-340689 3202 L-336436 3202 L-335949 3216 L-335930 3216 L-335851 3216 L-335775 3216 L-335756 3202 L-334943 3201 L-334189 3201 L-332970 3201 L-331538 3201 L-331442 3201 L-331267 3201 L-330913 3201 L-329604 3200 L-327747 3200 L-326044 3200 L-325541 3200 L-325276 3200 L-324883 3200 L-324749 3199 L-323839 3199 L-323463 3199 L-322534 3199 L-322195 3199 L-322155 3199 L-322118 3199 L-320202 3199 L-320028 3199 L-318500 3199 L-318171 3199 L-318055 3198 L-317648 3198 L-317300 3198 L-315656 3198 L-315105 3198 L-314862 3197 L-314321 3197 L-313490 3197 L-312948 3197 L-311413 3197 L-311321 3196 L-311284 3196 L-311148 3196 L-310761 3196 L-309736 3196 L-307860 3196 L-307764 3196 L-307163 3200 L-306796 3205 L-306312 3210 L-306274 3215 L-305500 3215 L-305442 3215 L-305268 3215 L-305074 3214 L-303469 3214 L-303449 3214 L-303294 3214 L-303178 3214 L-301999 3215 L-301844 3215 L-301177 3215 L-298729 3227 L-296214 3239 L-293544 3250 L-285845 3262 L-280177 3262 L-277963 3262 L-277939 3262 L-276966 3265 L-276946 3265 L-276082 3264 L-273342 3264 L-267543 3261 L-267390 3261 L-264604 3261 L-250996 3260 L-250250 3260 L-245839 3260 L-229493 3260 L-229261 3260 L-228723 3259 L-220264 3259 L-211558 3259 L-211346 3259 L-209374 3259 L-206587 3259 L-202100 3259 L-201945 3259 L-201776 3259 L-201636 3259 L-201345 3258 L-201306 3258 L-201035 3258 L-200864 3258 L-200454 3258 L-199333 3258 L-198153 3258 L-196876 3257 L-194012 3257 L-191092 3257 L-189100 3257 L-187552 3257 L-184514 3257 L-175190 3256 L-174666 3256 L-168942 3256 L-167435 3256 L-166620 3256 L-164937 3256 L-164216 3256 L-164047 3256 L-163002 3255 L-160935 3255 L-159573 3255 L-155130 3255 L-155032 3255 L-154994 3255 L-154975 3255 L-154142 3254 L-154065 3254 L-151492 3254 L-148243 3254 L-148088 3254 L-147140 3254 L-145399 3253 L-144683 3254 L-141142 3255 L-134565 3256 L-133148 3257 L-133127 3257 L-132177 3257 L-128702 3256 L-127949 3256 L-127387 3256 L-126605 3256 L-119101 3256 L-117503 3256 L-115929 3255 L-112743 3255 L-108410 3255 L-99841 3255 L-91094 3255 L-88020 3255 L-84754 3255 L-84208 3254 L-77071 3254 L-71403 3254 L-57339 3254 L-51327 3254 L-46621 3254 L-42618 3254 L-37510 3254 L-27796 3254 L-12226 3253 L-9143 3253 L-8841 3189 L-8821 3110 L-8802 3020 L-8782 2920 L-8763 2874 L-8743 2835 L-8725 2800 L-8697 2765 L-8676 2731 L-8649 2695 L-8613 2655 L-8600 2622 L-8587 2593 L-8568 2569 L-8549 2551 L-8529 2533 L-8511 2515 L-8492 2497 L-8472 2479 L-8451 2460 L-8434 2441 L-8415 2423 L-8395 2406 L-8375 2388 L-8356 2369 L-8338 2349 L-8318 2329 L-8298 2309 L-8279 2290 L-8260 2272 L-8239 2255 L-8214 2237 L-8200 2221 L-8183 2204 L-8163 2187 L-8144 2171 L-8125 2154 L-8106 2136 L-8086 2119 L-8065 2103 L-8047 2087 L-8028 2073 L-8008 2059 L-7987 2046 L-7970 2034 L-7951 2023 L-7931 2012 L-7912 2002 L-7892 1992 L-7874 1983 L-7854 1975 L-7834 1968 L-7815 1960 L-7796 1952 L-7769 1943 L-7748 1933 L-7720 1922 L-7686 1909 L-7672 1899 L-7659 1890 L-7640 1882 L-7621 1875 L-7601 1868 L-7583 1860 L-7563 1851 L-7543 1843 L-7523 1835 L-7506 1828 L-7487 1820 L-7466 1813 L-7447 1804 L-7428 1794 L-7409 1783 L-7389 1772 L-7370 1760 L-7351 1749 L-7332 1738 L-7311 1725 L-7287 1711 L-7272 1697 L-7255 1684 L-7235 1671 L-7216 1658 L-7196 1644 L-7177 1630 L-7157 1616 L-7137 1603 L-7119 1590 L-7100 1577 L-7080 1565 L-7059 1553 L-7041 1541 L-7022 1531 L-7002 1520 L-6984 1511 L-6964 1501 L-6945 1492 L-6925 1483 L-6906 1473 L-6886 1464 L-6868 1454 L-6839 1445 L-6819 1436 L-6791 1427 L-6754 1416 L-6739 1406 L-6727 1397 L-6710 1388 L-6693 1381 L-6673 1375 L-6654 1369 L-6635 1364 L-6615 1359 L-6594 1353 L-6577 1347 L-6558 1341 L-6538 1334 L-6518 1328 L-6500 1321 L-6481 1313 L-6461 1305 L-6441 1296 L-6422 1288 L-6403 1279 L-6382 1271 L-6358 1263 L-6343 1254 L-6326 1246 L-6306 1237 L-6287 1229 L-6267 1220 L-6249 1211 L-6229 1202 L-6208 1193 L-6190 1185 L-6171 1177 L-6151 1169 L-6131 1162 L-6113 1155 L-6094 1148 L-6074 1140 L-6055 1133 L-6035 1126 L-6016 1119 L-5997 1113 L-5977 1106 L-5958 1099 L-5939 1093 L-5911 1086 L-5891 1079 L-5863 1072 L-5827 1061 L-5812 1051 L-5799 1042 L-5782 1034 L-5764 1029 L-5744 1023 L-5725 1016 L-5706 1010 L-5686 1002 L-5665 994 L-5646 986 L-5629 977 L-5609 968 L-5589 958 L-5571 948 L-5552 937 L-5532 926 L-5511 916 L-5494 907 L-5475 899 L-5453 893 L-5429 887 L-5414 882 L-5396 877 L-5377 872 L-5358 866 L-5339 860 L-5320 855 L-5300 850 L-5279 845 L-5262 841 L-5242 836 L-5222 830 L-5201 823 L-5184 816 L-5165 811 L-5145 806 L-5126 803 L-5107 800 L-5088 797 L-5068 793 L-5048 789 L-5029 785 L-5011 781 L-4983 778 L-4962 774 L-4934 770 L-4900 766 L-4886 762 L-4873 758 L-4854 755 L-4835 752 L-4815 749 L-4797 746 L-4777 744 L-4758 741 L-4737 739 L-4720 736 L-4701 733 L-4680 730 L-4660 726 L-4642 723 L-4624 720 L-4604 717 L-4583 715 L-4565 712 L-4546 709 L-4525 707 L-4500 704 L-4486 701 L-4468 699 L-4449 697 L-4430 694 L-4410 691 L-4391 688 L-4371 685 L-4350 682 L-4333 679 L-4314 676 L-4294 674 L-4273 671 L-4256 669 L-4237 666 L-4217 664 L-4198 661 L-4178 659 L-4159 657 L-4139 655 L-4120 654 L-4101 652 L-4082 655 L-4053 658 L-4033 661 L-4005 663 L-3968 661 L-3953 659 L-3940 657 L-3923 655 L-3907 654 L-3887 652 L-3868 651 L-3849 649 L-3829 647 L-3808 646 L-3791 645 L-3772 643 L-3752 642 L-3732 640 L-3714 638 L-3695 637 L-3675 635 L-3655 633 L-3637 632 L-3618 630 L-3596 629 L-3572 628 L-3557 626 L-3540 624 L-3520 622 L-3501 621 L-3482 619 L-3463 617 L-3443 615 L-3422 613 L-3404 611 L-3385 608 L-3365 606 L-3344 604 L-3327 602 L-3308 600 L-3288 598 L-3269 597 L-3250 594 L-3231 592 L-3211 590 L-3191 588 L-3172 587 L-3153 585 L-3126 583 L-3105 581 L-3077 579 L-3042 577 L-3029 575 L-3015 573 L-2996 571 L-2978 570 L-2958 568 L-2940 566 L-2920 565 L-2900 563 L-2879 561 L-2862 560 L-2844 558 L-2823 556 L-2803 554 L-2785 551 L-2766 549 L-2746 546 L-2726 543 L-2708 540 L-2689 538 L-2668 536 L-2643 533 L-2628 531 L-2611 528 L-2592 526 L-2572 523 L-2553 521 L-2534 518 L-2514 516 L-2493 513 L-2476 511 L-2457 509 L-2436 506 L-2415 504 L-2398 503 L-2380 501 L-2360 499 L-2341 498 L-2321 496 L-2302 495 L-2282 493 L-2262 492 L-2244 491 L-2225 490 L-2197 488 L-2176 487 L-2149 486 L-2113 483 L-2099 480 L-2086 478 L-2068 476 L-2050 474 L-2030 473 L-2011 471 L-1992 470 L-1972 468 L-1951 466 L-1934 465 L-1915 463 L-1895 461 L-1875 459 L-1856 457 L-1838 455 L-1818 452 L-1797 450 L-1779 449 L-1761 447 L-1739 446 L-1714 444 L-1700 442 L-1682 441 L-1663 439 L-1643 437 L-1624 435 L-1605 433 L-1585 430 L-1564 427 L-1547 425 L-1528 422 L-1508 420 L-1487 418 L-1470 417 L-1451 415 L-1431 414 L-1412 413 L-1392 412 L-1374 410 L-1354 409 L-1334 408 L-1315 407 L-1296 406 L-1269 404 L-1248 403 L-1220 402 L-1186 401 L-1172 400 L-1159 399 L-1140 398 L-1121 397 L-1101 396 L-1083 395 L-1063 394 L-1044 393 L-1023 392 L-1006 391 L-987 390 L-966 389 L-946 388 L-928 387 L-909 386 L-889 385 L-869 384 L-851 384 L-832 383 L-811 382 L-786 381 L-772 380 L-754 379 L-735 378 L-716 377 L-696 376 L-677 376 L-657 374 L-637 373 L-619 371 L-600 369 L-579 366 L-559 365 L-541 363 L-522 362 L-502 361 L-484 359 L-464 358 L-445 357 L-425 356 L-406 354 L-386 353 L-368 353 L-339 352 L-291 351 L-254 350 L-240 349 L-227 348 L-210 347 L-192 346 L-173 346 L-154 345 L-135 344 L-115 343 L-94 343 L-77 342 L-58 342 L-38 341 L-18 340 L0 339 L18 338 L38 337 L58 337 L77 336 L96 334 L117 333 L141 331 L156 330 L173 328 L193 327 L212 325 L232 324 L250 323 L270 321 L291 320 L309 318 L328 317 L348 316 L368 315 L386 314 L405 313 L425 312 L444 311 L464 310 L482 309 L502 308 L522 307 L541 306 L560 305 L588 304 L608 303 L636 301 L673 299 L688 297 L700 295 L718 293 L735 292 L755 291 L774 290 L793 289 L813 288 L834 287 L851 286 L869 285 L890 284 L911 282 L928 280 L948 278 L967 276 L988 274 L1005 272 L1024 271 L1046 269 L1071 268 L1086 266 L1103 265 L1122 264 L1142 263 L1160 261 L1179 260 L1199 258 L1221 256 L1237 255 L1257 254 L1277 253 L1298 251 L1315 250 L1334 249 L1354 248 L1373 247 L1392 246 L1411 245 L1431 244 L1451 242 L1470 242 L1489 241 L1517 997 L1537 996 L1565 995 L1601 993 L1615 234 L1628 232 L1646 231 L1664 230 L1683 230 L1702 229 L1722 228 L1741 227 L1763 225 L1779 224 L1798 222 L1819 221 L1839 219 L1857 217 L1876 215 L1896 213 L1917 211 L1934 210 L1953 209 L1974 208 L1999 206 L2014 204 L2044 202 L2084 200 L2107 197 L2136 195 L2152 193 L2166 191 L2185 189 L2206 188 L2227 187 L2243 186 L2262 185 L2282 184 L2301 183 L2321 183 L2340 182 L2360 181 L2380 180 L2398 179 L2417 179 L2445 178 L2465 177 L2493 176 L2529 174 L2542 173 L2574 172 L2592 171 L2612 170 L2631 169 L2650 169 L2670 168 L2691 167 L2708 166 L2727 165 L2747 162 L2768 158 L2785 155 L2804 151 L2824 149 L2844 146 L2862 144 L2881 143 L2903 141 L2928 140 L2943 139 L2960 137 L2979 136 L2999 134 L3017 133 L3037 132 L3056 130 L3078 129 L3095 127 L3114 125 L3134 124 L3155 123 L3172 122 L3191 122 L3211 121 L3230 120 L3250 118 L3269 117 L3288 116 L3308 115 L3327 114 L3346 114 L3374 113 L3394 112 L3464 110 L3492 107 L3507 105 L3521 103 L3541 101 L3559 100 L3578 99 L3599 98 L3619 96 L3637 95 L3655 95 L3676 94 L3696 93 L3714 92 L3733 91 L3753 89 L3773 88 L3791 87 L3810 85 L3831 85 L3856 84 L3871 83 L3889 82 L3907 80 L3927 79 L3946 77 L3965 76 L3985 75 L4006 74 L4023 73 L4043 72 L4063 71 L4084 70 L4101 69 L4159 68 L4178 67 L4197 66 L4217 65 L4237 64 L4256 64 L4274 63 L4302 62 L4323 62 L4350 61 L4387 60 L4401 60 L4414 59 L4432 58 L4450 58 L4469 57 L4488 57 L4508 56 L4527 56 L4548 56 L4565 55 L4584 55 L4604 54 L4625 54 L4643 53 L4662 52 L4681 51 L4702 51 L4720 50 L4739 49 L4760 48 L4785 48 L4799 47 L4817 47 L4836 46 L4856 45 L4875 44 L4894 43 L4914 42 L4935 41 L4952 40 L4971 39 L4991 39 L5012 38 L5029 38 L5048 37 L5068 37 L5087 36 L5107 36 L5125 36 L5145 35 L5166 35 L5184 34 L5203 34 L5230 34 L5251 33 L5279 32 L5314 32 L5328 31 L5342 31 L5360 30 L5378 30 L5398 29 L5416 28 L5455 28 L5476 28 L5493 27 L5512 27 L5533 26 L5552 25 L5571 24 L5590 23 L5610 22 L5629 22 L5648 21 L5667 21 L5688 20 L5713 20 L5727 19 L5744 19 L5764 18 L5783 17 L5803 17 L5822 16 L5842 15 L5862 15 L5880 14 L5899 13 L5920 13 L5940 12 L5958 12 L5977 11 L5997 10 L6015 10 L6035 10 L6054 9 L6074 9 L6093 8 L6113 8 L6131 7 L6160 7 L6208 6 L6245 6 L6261 5 L6273 5 L6290 4 L6306 4 L6326 3 L6345 3 L6364 3 L6384 2 L6405 2 L6422 2 L6441 2 L6461 2 L6481 1 L6500 1" />
</svg>
