<svg xmlns="http://www.w3.org/2000/svg" version="1.1" viewBox="0 0 6500 1000">
	<path fill="none" stroke="gold" stroke-width="125" stroke-linecap="round" stroke-linejoin="round" d="M0 28025  L-257837 28025 L-255233 27905 L-253565 27786 L-235236 27548 L-235065 27309 L-227908 27071 L-227875 27071 L-214444 26952 L-211522 27071 L-198181 26713 L-194012 26237 L-192852 25641 L-192233 25045 L-190221 24687 L-186449 24449 L-185849 24210 L-185520 23972 L-185307 23734 L-184766 23495 L-183528 22542 L-182349 21588 L-179484 20635 L-178962 19681 L-174106 19443 L-171169 19205 L-171126 18966 L-170818 18728 L-170566 18489 L-167971 18251 L-163716 18251 L-163698 18251 L-162461 18251 L-160583 18251 L-158630 18013 L-157682 17774 L-157411 17536 L-157101 17417 L-157003 17297 L-156173 17297 L-154142 17417 L-153852 16344 L-151705 15867 L-151550 15152 L-147893 14437 L-147642 14794 L-147544 14675 L-147027 15033 L-144876 15629 L-143947 16225 L-142421 16821 L-141181 16821 L-139635 16702 L-136673 16463 L-135551 16225 L-135242 15986 L-134031 15867 L-131024 17178 L-131004 17059 L-130657 16940 L-130444 16821 L-130318 15152 L-130076 14914 L-130038 14675 L-130019 14437 L-129999 14199 L-129940 13960 L-129882 13722 L-129864 13483 L-129421 13245 L-128181 13007 L-126635 12768 L-123248 12530 L-117521 12411 L-117320 12292 L-115684 12172 L-113962 12053 L-112530 11934 L-112298 11815 L-111582 11696 L-105450 11576 L-105082 11338 L-104928 11100 L-104350 10861 L-104057 10623 L-103090 10384 L-102780 10146 L-102181 9908 L-100575 9908 L-99840 9908 L-99530 10027 L-98762 10027 L-96726 9789 L-96300 9550 L-95488 9431 L-88059 9193 L-87536 8954 L-87363 8716 L-86628 8477 L-85060 8239 L-84654 8120 L-82429 7882 L-81481 7762 L-81056 7643 L-80726 7643 L-79682 7524 L-77574 7286 L-77322 7047 L-76703 6809 L-75890 6690 L-73782 6451 L-73734 6213 L-71806 5974 L-71480 5736 L-71345 5498 L-70842 5379 L-69429 5140 L-68926 4663 L-68404 4306 L-64845 3829 L-64110 3352 L-61685 3352 L-60395 3114 L-59989 2995 L-56836 2995 L-56681 2995 L-56661 3114 L-56294 3114 L-55036 3233 L-54321 3352 L-53431 3352 L-53024 3352 L-52096 3352 L-50987 3233 L-50684 3710 L-44435 3948 L-43488 4187 L-41861 4425 L-41360 4544 L-37684 4663 L-36852 4783 L-32899 4902 L-31487 4544 L-28997 4306 L-28321 4067 L-28282 3948 L-27411 3948 L-24200 3829 L-21337 3710 L-20369 3591 L-19248 3352 L-19229 3114 L-17604 2876 L-17139 2518 L-17048 2399 L-10678 2280 L-9730 2160 L-7273 2041 L-6400 1803 L-5164 1684 L-3163 1564 L-2766 1326 L-1329 1088 L696 969 L909 730 L2089 611 L3598 492 L3618 373 L5630 253 L6500 15" />
</svg>
