<svg xmlns="http://www.w3.org/2000/svg" version="1.1" viewBox="0 0 6500 1000">
	<path fill="none" stroke="gold" stroke-width="125" stroke-linecap="round" stroke-linejoin="round" d="M0 1314  L-719952 1314 L-717348 1314 L-715680 1314 L-697350 1313 L-697180 1313 L-690022 1313 L-689989 1313 L-676558 1313 L-673636 1313 L-660296 1313 L-656127 1313 L-654966 1312 L-654347 1312 L-652335 1312 L-648564 1312 L-647964 1312 L-647635 1311 L-647422 1311 L-646880 1311 L-645642 1311 L-644463 1310 L-641599 1310 L-641077 1309 L-636221 1309 L-633284 1309 L-633241 1309 L-632933 1309 L-632681 1308 L-630086 1308 L-625830 1308 L-625812 1308 L-624576 1308 L-622698 1308 L-620745 1308 L-619797 1308 L-619526 1308 L-619216 1308 L-619118 1308 L-618288 1308 L-616257 1308 L-615966 1307 L-613820 1307 L-613665 1307 L-610008 1306 L-609757 1306 L-609659 1306 L-609141 1306 L-606990 1307 L-606061 1307 L-604535 1307 L-603296 1307 L-601749 1307 L-598788 1307 L-597666 1307 L-597357 1307 L-596145 1307 L-593139 1308 L-593119 1308 L-592772 1308 L-592559 1307 L-592432 1307 L-592191 1306 L-592153 1306 L-592133 1306 L-592114 1306 L-592055 1306 L-591996 1306 L-591978 1306 L-591535 1305 L-590296 1305 L-588750 1305 L-585362 1305 L-579636 1305 L-579435 1305 L-577799 1305 L-576077 1305 L-574645 1305 L-574412 1305 L-573697 1305 L-567565 1305 L-567197 1304 L-567043 1304 L-566464 1304 L-566172 1304 L-565204 1304 L-564895 1304 L-564296 1304 L-562690 1304 L-561954 1304 L-561645 1304 L-560876 1304 L-558840 1304 L-558415 1303 L-557602 1303 L-550174 1303 L-549651 1303 L-549477 1303 L-548742 1303 L-547175 1303 L-546769 1303 L-544544 1302 L-543596 1302 L-543171 1302 L-542841 1302 L-541797 1302 L-539689 1302 L-539437 1302 L-538818 1302 L-538005 1302 L-535897 1302 L-535849 1302 L-533920 1301 L-533595 1301 L-533460 1301 L-532956 1301 L-531544 1301 L-531041 1301 L-530519 1300 L-526959 1300 L-526224 1300 L-523799 1300 L-522510 1300 L-522103 1300 L-518951 1300 L-518796 1300 L-518776 1300 L-518409 1300 L-517151 1300 L-516436 1300 L-515546 1300 L-515139 1300 L-514210 1300 L-513102 1300 L-512798 1300 L-506550 1300 L-505602 1300 L-503976 1301 L-503474 1301 L-499799 1301 L-498966 1301 L-495013 1301 L-493601 1301 L-491112 1300 L-490436 1300 L-490397 1300 L-489526 1300 L-486315 1300 L-483452 1300 L-482484 1300 L-481362 1300 L-481343 1300 L-479718 1300 L-479254 1299 L-479162 1299 L-472793 1299 L-471844 1299 L-469387 1299 L-468515 1299 L-467279 1299 L-465278 1299 L-464880 1299 L-463444 1299 L-461418 1299 L-461205 1298 L-460024 1298 L-458516 1298 L-458496 1298 L-456484 1298 L-455614 1298 L-454743 1298 L-454158 1298 L-453621 1298 L-452963 1298 L-451725 1297 L-451165 1297 L-449984 1297 L-448746 1297 L-448708 1297 L-448321 1297 L-447779 1297 L-447005 1297 L-445883 1297 L-443794 1297 L-443460 1297 L-443175 1296 L-442246 1296 L-441763 1296 L-441027 1296 L-437396 1296 L-436269 1296 L-436114 1296 L-435088 1296 L-431373 1296 L-430156 1296 L-428337 1296 L-425552 1295 L-424990 1295 L-421102 1295 L-418626 1295 L-417291 1295 L-416787 1295 L-416304 1295 L-413615 1295 L-409843 1295 L-407386 1295 L-406206 1295 L-405567 1295 L-403208 1295 L-403130 1295 L-402083 1295 L-401989 1295 L-401486 1295 L-401041 1295 L-400983 1295 L-400770 1295 L-397810 1295 L-395102 1294 L-394948 1294 L-391427 1294 L-390904 1294 L-389936 1294 L-389587 1294 L-388544 1294 L-387615 1294 L-387190 1294 L-385681 1294 L-384714 1294 L-384695 1294 L-382799 1289 L-382683 1284 L-382635 1279 L-382610 1274 L-379606 1274 L-377575 1274 L-375815 1274 L-375448 1273 L-375002 1273 L-374635 1273 L-374221 1273 L-372236 1273 L-372023 1273 L-371868 1273 L-370263 1273 L-369141 1273 L-368193 1273 L-366935 1273 L-365291 1273 L-364111 1273 L-357522 1272 L-357475 1272 L-357069 1272 L-356024 1272 L-355889 1272 L-354206 1272 L-354186 1272 L-352850 1272 L-351613 1272 L-351459 1272 L-351085 1272 L-350879 1272 L-350570 1271 L-349796 1271 L-347474 1271 L-346817 1271 L-344689 1271 L-342966 1271 L-342773 1271 L-340219 1271 L-339943 1271 L-339755 1271 L-338922 1271 L-338150 1270 L-337452 1270 L-332451 1270 L-332075 1270 L-327823 1270 L-327335 1277 L-327316 1277 L-327237 1277 L-327162 1277 L-327142 1270 L-326329 1270 L-325576 1270 L-324356 1270 L-322925 1270 L-322828 1270 L-322654 1270 L-322299 1269 L-320990 1269 L-319133 1269 L-317431 1269 L-316928 1269 L-316662 1269 L-316269 1269 L-316135 1269 L-315225 1269 L-314849 1269 L-313920 1269 L-313581 1269 L-313542 1269 L-313504 1269 L-311588 1269 L-311415 1269 L-309886 1269 L-309558 1268 L-309442 1268 L-309035 1268 L-308686 1268 L-307043 1268 L-306492 1268 L-306249 1268 L-305707 1268 L-304876 1268 L-304334 1268 L-302800 1268 L-302708 1267 L-302671 1267 L-302535 1267 L-302148 1267 L-301123 1267 L-299246 1267 L-299150 1267 L-298550 1269 L-298183 1271 L-297698 1274 L-297660 1276 L-296886 1276 L-296829 1276 L-296654 1276 L-296461 1276 L-294855 1276 L-294835 1276 L-294680 1276 L-294565 1276 L-293385 1276 L-293230 1276 L-292563 1276 L-290115 1282 L-287600 1287 L-284931 1293 L-277231 1298 L-271564 1298 L-269349 1298 L-269326 1298 L-268352 1299 L-268332 1299 L-267468 1299 L-264728 1299 L-258930 1298 L-258776 1298 L-255990 1298 L-242382 1297 L-241636 1297 L-237225 1297 L-220879 1297 L-220647 1297 L-220110 1297 L-211650 1297 L-202945 1297 L-202732 1297 L-200760 1297 L-197974 1297 L-193486 1297 L-193331 1297 L-193162 1297 L-193022 1297 L-192731 1296 L-192693 1296 L-192422 1296 L-192250 1296 L-191840 1296 L-190719 1296 L-189539 1296 L-188262 1296 L-185398 1296 L-182478 1296 L-180486 1296 L-178939 1296 L-175901 1296 L-166576 1296 L-166052 1295 L-160328 1295 L-158821 1295 L-158007 1295 L-156323 1295 L-155602 1295 L-155434 1295 L-154389 1295 L-152321 1295 L-150959 1295 L-146516 1295 L-146419 1295 L-146380 1295 L-146361 1295 L-145529 1295 L-145451 1294 L-142878 1294 L-139629 1294 L-139474 1294 L-138526 1294 L-136785 1294 L-136070 1294 L-132529 1295 L-125951 1295 L-124534 1296 L-124513 1296 L-123563 1296 L-120089 1296 L-119335 1295 L-118774 1295 L-117992 1295 L-110487 1295 L-108889 1295 L-107315 1295 L-104130 1295 L-99797 1295 L-91227 1295 L-82481 1295 L-79407 1295 L-76141 1295 L-75594 1295 L-68457 1295 L-62789 1295 L-48725 1295 L-42714 1295 L-38007 1295 L-34004 1294 L-28897 1294 L-19183 1294 L-3612 1294 L-529 1294 L-227 1264 L-207 1227 L-189 1185 L-169 1138 L-149 1117 L-130 1099 L-111 1082 L-84 1066 L-63 1050 L-35 1033 L0 1015 L13 999 L26 986 L45 974 L63 966 L83 958 L101 949 L121 941 L141 932 L162 923 L179 915 L197 906 L218 898 L238 890 L256 881 L275 872 L295 862 L315 853 L333 844 L352 836 L373 828 L398 819 L413 812 L430 804 L450 796 L469 789 L488 781 L507 772 L527 764 L548 757 L565 749 L584 743 L605 736 L625 730 L643 725 L662 720 L682 714 L700 710 L720 705 L739 701 L759 697 L779 694 L798 690 L816 686 L844 682 L865 677 L892 672 L926 666 L941 662 L954 658 L972 654 L991 651 L1011 647 L1030 643 L1049 639 L1069 635 L1090 632 L1107 628 L1126 625 L1146 621 L1166 617 L1185 612 L1203 607 L1223 602 L1243 597 L1262 592 L1281 586 L1302 580 L1326 574 L1341 567 L1358 561 L1378 555 L1397 549 L1417 543 L1435 536 L1456 530 L1476 523 L1494 517 L1513 511 L1533 506 L1553 500 L1571 495 L1590 490 L1610 485 L1629 480 L1649 476 L1668 471 L1687 467 L1707 463 L1726 458 L1745 454 L1774 449 L1794 445 L1821 441 L1858 436 L1874 431 L1886 427 L1903 423 L1920 420 L1940 417 L1958 414 L1978 412 L1998 409 L2018 407 L2036 404 L2054 401 L2075 398 L2095 395 L2113 391 L2132 388 L2152 384 L2172 380 L2190 376 L2209 372 L2230 368 L2255 364 L2269 361 L2287 357 L2307 353 L2325 349 L2345 345 L2364 340 L2384 336 L2404 332 L2423 328 L2441 324 L2462 321 L2482 317 L2500 314 L2519 311 L2539 307 L2557 304 L2577 301 L2596 297 L2616 294 L2635 291 L2655 288 L2674 285 L2702 282 L2722 279 L2750 275 L2786 270 L2800 266 L2813 261 L2831 257 L2849 255 L2869 252 L2887 249 L2907 246 L2927 243 L2948 239 L2966 235 L2983 231 L3004 227 L3024 222 L3042 217 L3061 212 L3081 207 L3101 202 L3119 198 L3138 194 L3159 191 L3184 189 L3199 187 L3216 184 L3235 182 L3255 179 L3274 176 L3293 174 L3313 171 L3334 169 L3351 167 L3370 165 L3391 162 L3411 159 L3428 156 L3447 153 L3468 151 L3486 150 L3506 148 L3525 147 L3545 145 L3564 143 L3583 141 L3602 140 L3630 138 L3651 136 L3678 134 L3713 132 L3727 130 L3740 129 L3759 127 L3777 126 L3797 125 L3816 123 L3835 122 L3855 121 L3876 120 L3893 118 L3912 117 L3932 115 L3952 114 L3970 112 L3989 111 L4009 110 L4029 108 L4048 107 L4066 106 L4088 105 L4113 103 L4127 102 L4144 101 L4164 100 L4183 99 L4202 97 L4221 96 L4241 94 L4262 93 L4280 92 L4299 90 L4319 89 L4340 88 L4357 87 L4376 86 L4396 85 L4415 83 L4435 82 L4453 82 L4473 81 L4493 80 L4512 79 L4531 81 L4559 82 L4579 83 L4607 84 L4644 83 L4660 82 L4672 81 L4690 81 L4706 80 L4726 79 L4744 78 L4764 78 L4784 77 L4805 76 L4822 76 L4840 75 L4861 74 L4881 73 L4899 73 L4918 72 L4938 71 L4958 70 L4976 70 L4995 69 L5016 68 L5041 68 L5056 67 L5073 66 L5092 65 L5112 65 L5131 64 L5150 63 L5170 62 L5191 61 L5208 60 L5227 59 L5248 58 L5268 57 L5286 56 L5305 55 L5325 54 L5343 53 L5363 52 L5382 51 L5402 50 L5421 49 L5441 49 L5459 48 L5487 47 L5508 46 L5535 45 L5570 44 L5584 43 L5597 42 L5616 41 L5635 41 L5655 40 L5673 39 L5692 38 L5712 38 L5733 37 L5750 36 L5769 35 L5789 34 L5809 33 L5828 32 L5846 31 L5866 29 L5887 28 L5905 27 L5923 26 L5945 25 L5970 24 L5985 22 L6002 21 L6021 20 L6041 19 L6060 18 L6079 16 L6099 15 L6119 14 L6137 13 L6156 12 L6176 11 L6197 10 L6214 9 L6233 8 L6253 8 L6272 7 L6292 6 L6310 6 L6330 5 L6350 4 L6369 4 L6388 3 L6416 3 L6436 2 L6464 1 L6500 0" />
</svg>
