<svg xmlns="http://www.w3.org/2000/svg" version="1.1" viewBox="0 0 6500 1000">
	<path fill="none" stroke="gold" stroke-width="125" stroke-linecap="round" stroke-linejoin="round" d="M0 3417  L-726747 3417 L-724143 3417 L-722475 3416 L-704146 3416 L-703976 3416 L-696818 3416 L-696785 3416 L-683354 3415 L-680432 3416 L-667091 3415 L-662922 3415 L-661762 3414 L-661143 3413 L-659131 3413 L-655359 3412 L-654759 3412 L-654431 3412 L-654218 3411 L-653676 3411 L-652438 3410 L-651259 3409 L-648394 3407 L-647872 3406 L-643017 3406 L-640079 3406 L-640037 3405 L-639728 3405 L-639476 3405 L-636881 3404 L-632626 3404 L-632608 3404 L-631371 3404 L-629494 3404 L-627540 3404 L-626592 3404 L-626321 3404 L-626012 3403 L-625913 3403 L-625083 3403 L-623052 3403 L-622762 3402 L-620615 3401 L-620460 3401 L-616804 3400 L-616553 3400 L-616454 3400 L-615937 3400 L-613786 3401 L-612857 3402 L-611331 3403 L-610091 3403 L-608545 3403 L-605583 3402 L-604461 3402 L-604152 3402 L-602941 3401 L-599934 3403 L-599915 3403 L-599567 3403 L-599354 3403 L-599228 3401 L-598986 3400 L-598948 3400 L-598929 3400 L-598909 3399 L-598851 3399 L-598792 3399 L-598774 3398 L-598331 3398 L-597091 3398 L-595546 3398 L-592158 3397 L-586432 3397 L-586230 3397 L-584594 3397 L-582872 3397 L-581440 3396 L-581208 3396 L-580493 3396 L-574360 3396 L-573993 3396 L-573838 3395 L-573260 3395 L-572967 3395 L-572000 3395 L-571690 3394 L-571091 3394 L-569485 3394 L-568750 3394 L-568440 3394 L-567672 3394 L-565636 3394 L-565211 3393 L-564398 3393 L-556969 3393 L-556446 3393 L-556273 3392 L-555538 3392 L-553970 3392 L-553564 3392 L-551339 3391 L-550391 3391 L-549967 3391 L-549636 3391 L-548592 3391 L-546484 3391 L-546232 3390 L-545613 3390 L-544800 3390 L-542693 3390 L-542644 3389 L-540716 3389 L-540390 3389 L-540255 3388 L-539752 3388 L-538339 3388 L-537836 3387 L-537315 3387 L-533755 3386 L-533020 3386 L-530595 3386 L-529306 3385 L-528899 3385 L-525746 3385 L-525591 3385 L-525571 3385 L-525205 3385 L-523946 3386 L-523231 3386 L-522341 3386 L-521934 3386 L-521006 3386 L-519897 3386 L-519594 3386 L-513345 3386 L-512398 3387 L-510772 3387 L-510270 3387 L-506594 3387 L-505762 3387 L-501809 3388 L-500397 3387 L-497908 3387 L-497231 3387 L-497192 3386 L-496322 3386 L-493110 3386 L-490247 3386 L-489279 3386 L-488158 3386 L-488139 3385 L-486514 3385 L-486050 3385 L-485958 3384 L-479589 3384 L-478640 3384 L-476183 3384 L-475311 3384 L-474075 3384 L-472073 3383 L-471676 3383 L-470239 3383 L-468213 3383 L-468000 3382 L-466820 3382 L-465312 3382 L-465291 3382 L-463279 3382 L-462410 3381 L-461539 3381 L-460954 3381 L-460417 3381 L-459759 3380 L-458521 3380 L-457960 3380 L-456779 3380 L-455542 3380 L-455503 3380 L-455116 3379 L-454575 3379 L-453801 3379 L-452679 3379 L-450589 3378 L-450256 3378 L-449970 3378 L-449042 3378 L-448558 3377 L-447823 3377 L-444192 3377 L-443064 3377 L-442909 3377 L-441883 3377 L-438169 3376 L-436951 3376 L-435133 3376 L-432347 3376 L-431786 3375 L-427898 3375 L-425421 3375 L-424086 3375 L-423583 3375 L-423100 3375 L-420411 3375 L-416639 3375 L-414182 3375 L-413002 3375 L-412363 3375 L-410003 3374 L-409926 3374 L-408878 3374 L-408785 3374 L-408282 3374 L-407836 3374 L-407779 3374 L-407565 3374 L-404605 3374 L-401898 3373 L-401743 3373 L-398222 3373 L-397699 3373 L-396732 3372 L-396383 3372 L-395339 3372 L-394411 3372 L-393985 3372 L-392476 3372 L-391509 3371 L-391490 3371 L-389594 3360 L-389478 3349 L-389430 3338 L-389406 3327 L-386402 3327 L-384371 3326 L-382610 3326 L-382243 3326 L-381798 3326 L-381431 3326 L-381017 3325 L-379032 3325 L-378819 3325 L-378664 3325 L-377058 3325 L-375937 3325 L-374988 3325 L-373731 3324 L-372086 3324 L-370907 3324 L-364317 3324 L-364271 3324 L-363865 3324 L-362820 3323 L-362685 3323 L-361002 3323 L-360982 3323 L-359645 3322 L-358409 3322 L-358255 3322 L-357881 3322 L-357675 3322 L-357365 3322 L-356591 3321 L-354270 3321 L-353612 3321 L-351484 3321 L-349762 3321 L-349568 3320 L-347015 3320 L-346739 3320 L-346551 3320 L-345718 3319 L-344946 3319 L-344248 3319 L-339247 3319 L-338871 3319 L-334618 3319 L-334131 3334 L-334112 3334 L-334033 3333 L-333957 3333 L-333938 3318 L-333125 3318 L-332371 3318 L-331152 3317 L-329720 3317 L-329624 3317 L-329449 3317 L-329095 3317 L-327786 3317 L-325928 3317 L-324226 3316 L-323723 3316 L-323458 3316 L-323065 3316 L-322931 3316 L-322021 3316 L-321644 3315 L-320716 3315 L-320377 3315 L-320337 3315 L-320300 3315 L-318384 3315 L-318210 3315 L-316682 3315 L-316353 3315 L-316237 3315 L-315830 3314 L-315482 3314 L-313838 3314 L-313287 3314 L-313044 3314 L-312503 3313 L-311672 3313 L-311130 3313 L-309595 3313 L-309503 3313 L-309466 3312 L-309330 3312 L-308943 3312 L-307918 3312 L-306042 3312 L-305946 3312 L-305345 3316 L-304978 3322 L-304494 3327 L-304456 3332 L-303682 3332 L-303624 3332 L-303450 3332 L-303256 3332 L-301651 3331 L-301631 3331 L-301476 3331 L-301360 3332 L-300181 3332 L-300026 3332 L-299359 3332 L-296911 3345 L-294396 3357 L-291726 3369 L-284027 3381 L-278359 3381 L-276145 3381 L-276121 3381 L-275147 3384 L-275128 3384 L-274264 3384 L-271524 3384 L-265725 3381 L-265572 3380 L-262786 3380 L-249177 3380 L-248432 3380 L-244021 3380 L-227675 3379 L-227443 3379 L-226905 3379 L-218446 3379 L-209740 3379 L-209528 3378 L-207556 3378 L-204769 3378 L-200282 3378 L-200127 3378 L-199958 3378 L-199818 3378 L-199527 3378 L-199488 3378 L-199217 3378 L-199046 3377 L-198636 3377 L-197515 3377 L-196335 3377 L-195058 3377 L-192194 3377 L-189274 3377 L-187282 3376 L-185734 3376 L-182696 3376 L-173372 3376 L-172848 3376 L-167124 3376 L-165617 3375 L-164802 3375 L-163119 3375 L-162398 3375 L-162229 3375 L-161184 3375 L-159117 3375 L-157755 3374 L-153312 3374 L-153214 3374 L-153176 3374 L-153157 3374 L-152324 3374 L-152246 3373 L-149674 3373 L-146425 3373 L-146270 3373 L-145322 3373 L-143581 3372 L-142865 3373 L-139324 3374 L-132747 3375 L-131330 3376 L-131309 3376 L-130359 3376 L-126884 3376 L-126131 3375 L-125569 3375 L-124787 3375 L-117283 3375 L-115685 3375 L-114111 3375 L-110925 3375 L-106592 3374 L-98023 3374 L-89276 3374 L-86202 3374 L-82936 3374 L-82390 3374 L-75253 3374 L-69585 3374 L-55520 3374 L-49509 3374 L-44803 3374 L-40800 3373 L-35692 3373 L-25978 3373 L-10407 3373 L-7325 3372 L-7023 3305 L-7003 3222 L-6984 3127 L-6964 3021 L-6945 2973 L-6925 2932 L-6907 2895 L-6879 2858 L-6858 2823 L-6830 2785 L-6795 2743 L-6782 2708 L-6768 2677 L-6750 2652 L-6731 2633 L-6711 2614 L-6693 2595 L-6674 2576 L-6654 2557 L-6633 2537 L-6616 2517 L-6597 2498 L-6577 2480 L-6557 2461 L-6538 2441 L-6520 2421 L-6500 2399 L-6480 2378 L-6461 2358 L-6442 2339 L-6421 2321 L-6396 2302 L-6382 2285 L-6365 2268 L-6345 2250 L-6326 2233 L-6306 2215 L-6288 2196 L-6268 2178 L-6247 2161 L-6229 2145 L-6210 2129 L-6190 2115 L-6169 2101 L-6152 2089 L-6133 2077 L-6113 2066 L-6094 2055 L-6074 2045 L-6056 2035 L-6036 2027 L-6016 2019 L-5997 2011 L-5978 2003 L-5951 1993 L-5930 1982 L-5902 1970 L-5868 1958 L-5854 1947 L-5841 1938 L-5822 1929 L-5803 1922 L-5783 1914 L-5765 1905 L-5745 1896 L-5725 1888 L-5705 1879 L-5687 1872 L-5669 1864 L-5648 1856 L-5629 1846 L-5610 1836 L-5591 1824 L-5571 1813 L-5552 1801 L-5533 1789 L-5514 1777 L-5493 1763 L-5469 1748 L-5454 1734 L-5437 1720 L-5417 1706 L-5398 1693 L-5378 1678 L-5359 1663 L-5339 1649 L-5319 1635 L-5301 1621 L-5282 1608 L-5262 1595 L-5241 1582 L-5223 1570 L-5204 1559 L-5184 1548 L-5166 1538 L-5146 1528 L-5127 1518 L-5107 1508 L-5088 1498 L-5068 1488 L-5050 1478 L-5021 1468 L-5001 1459 L-4973 1450 L-4936 1438 L-4921 1428 L-4909 1418 L-4891 1408 L-4874 1401 L-4855 1395 L-4836 1389 L-4817 1383 L-4797 1378 L-4776 1372 L-4759 1366 L-4740 1359 L-4720 1352 L-4700 1345 L-4682 1337 L-4663 1330 L-4643 1321 L-4623 1312 L-4604 1303 L-4585 1294 L-4564 1286 L-4540 1277 L-4525 1268 L-4508 1259 L-4488 1250 L-4469 1241 L-4449 1232 L-4431 1222 L-4411 1213 L-4390 1204 L-4372 1195 L-4353 1186 L-4333 1178 L-4313 1170 L-4295 1163 L-4276 1155 L-4256 1148 L-4237 1140 L-4217 1133 L-4198 1126 L-4179 1119 L-4159 1112 L-4140 1105 L-4121 1098 L-4093 1091 L-4073 1084 L-4045 1075 L-4009 1064 L-3994 1054 L-3981 1044 L-3964 1036 L-3946 1030 L-3926 1024 L-3907 1017 L-3888 1010 L-3868 1002 L-3847 994 L-3828 985 L-3811 976 L-3791 966 L-3771 956 L-3753 945 L-3734 934 L-3714 922 L-3693 912 L-3676 902 L-3657 893 L-3635 887 L-3610 881 L-3596 876 L-3578 871 L-3559 865 L-3540 859 L-3521 853 L-3502 847 L-3482 842 L-3461 837 L-3444 833 L-3424 828 L-3404 821 L-3383 813 L-3366 806 L-3347 801 L-3327 796 L-3308 793 L-3289 789 L-3270 786 L-3250 782 L-3230 778 L-3211 774 L-3193 770 L-3165 766 L-3144 762 L-3116 758 L-3081 753 L-3068 749 L-3055 745 L-3036 742 L-3017 739 L-2997 736 L-2979 733 L-2959 730 L-2940 728 L-2919 725 L-2902 722 L-2883 719 L-2862 715 L-2842 712 L-2824 708 L-2805 705 L-2785 702 L-2765 700 L-2747 697 L-2728 694 L-2707 691 L-2682 688 L-2667 686 L-2650 683 L-2631 681 L-2612 678 L-2592 675 L-2573 671 L-2553 668 L-2532 665 L-2515 662 L-2496 659 L-2476 656 L-2455 654 L-2438 651 L-2419 648 L-2399 646 L-2380 643 L-2360 641 L-2341 639 L-2321 637 L-2302 635 L-2283 634 L-2264 637 L-2235 640 L-2215 643 L-2187 646 L-2150 643 L-2135 641 L-2122 639 L-2105 637 L-2089 636 L-2069 634 L-2050 632 L-2031 630 L-2011 629 L-1990 627 L-1973 626 L-1954 624 L-1934 623 L-1914 621 L-1896 619 L-1877 617 L-1857 616 L-1837 614 L-1819 612 L-1800 611 L-1778 609 L-1754 608 L-1739 606 L-1722 604 L-1702 602 L-1683 601 L-1664 599 L-1645 597 L-1625 595 L-1604 593 L-1586 590 L-1567 588 L-1547 585 L-1526 584 L-1509 581 L-1490 579 L-1470 577 L-1451 575 L-1431 573 L-1413 571 L-1393 568 L-1373 566 L-1354 565 L-1335 563 L-1308 561 L-1287 559 L-1259 557 L-1224 555 L-1211 552 L-1197 551 L-1178 549 L-1160 547 L-1140 545 L-1122 544 L-1102 542 L-1082 540 L-1061 538 L-1044 536 L-1026 534 L-1005 532 L-985 530 L-967 528 L-948 525 L-928 522 L-908 519 L-890 516 L-871 514 L-850 511 L-825 508 L-810 506 L-793 503 L-774 500 L-754 498 L-735 495 L-716 492 L-696 490 L-675 487 L-658 485 L-639 483 L-618 480 L-597 478 L-580 476 L-561 474 L-541 473 L-523 471 L-503 470 L-484 468 L-464 467 L-444 465 L-425 464 L-407 463 L-379 461 L-358 460 L-331 458 L-295 456 L-281 453 L-268 450 L-250 448 L-231 446 L-212 445 L-193 443 L-174 441 L-154 440 L-133 438 L-116 436 L-97 434 L-77 432 L-57 430 L-38 428 L-20 426 L0 423 L20 421 L38 419 L57 418 L78 416 L103 414 L118 413 L135 411 L154 409 L174 407 L193 405 L212 403 L232 400 L253 397 L270 394 L289 392 L309 390 L330 388 L347 386 L366 385 L386 383 L405 382 L425 381 L443 379 L463 378 L483 377 L502 376 L521 374 L548 373 L569 372 L597 370 L631 369 L645 368 L658 367 L677 366 L696 365 L716 364 L734 363 L754 362 L774 361 L794 360 L811 359 L830 358 L851 357 L871 356 L889 355 L908 353 L928 353 L948 352 L966 351 L985 350 L1006 350 L1031 349 L1045 348 L1063 346 L1082 345 L1102 344 L1121 343 L1140 343 L1160 341 L1180 339 L1198 337 L1217 335 L1238 333 L1258 331 L1276 330 L1295 328 L1315 327 L1333 326 L1353 324 L1372 323 L1392 322 L1411 320 L1431 319 L1449 318 L1478 317 L1526 317 L1563 315 L1577 314 L1590 313 L1607 312 L1625 312 L1644 311 L1663 311 L1682 310 L1702 309 L1723 308 L1740 307 L1759 307 L1779 306 L1799 305 L1817 304 L1836 303 L1856 302 L1876 302 L1895 300 L1914 299 L1935 298 L1959 296 L1974 294 L1991 293 L2011 291 L2030 290 L2050 288 L2068 287 L2088 285 L2109 284 L2127 282 L2146 281 L2166 280 L2186 279 L2204 278 L2223 277 L2243 276 L2262 275 L2282 274 L2300 272 L2320 271 L2340 270 L2359 269 L2378 268 L2406 267 L2426 266 L2454 264 L2491 262 L2506 259 L2518 257 L2536 255 L2553 254 L2573 253 L2592 252 L2611 251 L2631 251 L2652 250 L2669 249 L2687 247 L2708 246 L2729 244 L2746 242 L2766 240 L2785 238 L2806 236 L2823 234 L2842 232 L2864 231 L2889 229 L2904 228 L2921 226 L2940 225 L2960 224 L2978 222 L2997 220 L3017 219 L3039 217 L3056 216 L3075 214 L3095 213 L3116 212 L3133 211 L3152 209 L3172 208 L3191 207 L3210 206 L3229 205 L3249 204 L3269 202 L3288 202 L3307 200 L3335 997 L3355 996 L3383 995 L3419 993 L3433 193 L3446 192 L3464 191 L3482 190 L3502 189 L3520 188 L3540 187 L3559 186 L3581 184 L3597 183 L3616 181 L3637 179 L3657 177 L3675 175 L3694 173 L3714 171 L3735 170 L3752 168 L3771 167 L3792 166 L3817 164 L3832 162 L3862 160 L3902 157 L3925 155 L3954 152 L3970 150 L3984 148 L4004 147 L4024 146 L4045 144 L4061 143 L4080 142 L4100 141 L4119 140 L4139 140 L4158 139 L4178 138 L4198 137 L4216 136 L4235 135 L4263 134 L4283 133 L4311 132 L4347 131 L4360 129 L4392 128 L4410 127 L4430 126 L4449 126 L4468 125 L4488 124 L4509 123 L4526 122 L4545 120 L4565 118 L4586 114 L4603 110 L4622 107 L4642 104 L4662 101 L4680 99 L4699 97 L4721 96 L4746 95 L4761 93 L4778 92 L4797 90 L4817 89 L4835 87 L4855 86 L4874 84 L4896 82 L4913 81 L4932 79 L4952 78 L4973 77 L4990 76 L5009 75 L5029 74 L5048 73 L5068 72 L5087 71 L5106 70 L5126 68 L5145 68 L5164 67 L5192 66 L5212 65 L5282 63 L5310 60 L5325 58 L5339 55 L5359 54 L5377 53 L5396 51 L5417 50 L5437 49 L5455 48 L5473 47 L5494 46 L5514 45 L5532 44 L5551 43 L5571 41 L5591 40 L5609 38 L5628 37 L5649 36 L5674 35 L5689 34 L5707 33 L5725 31 L5745 30 L5764 29 L5783 27 L5803 26 L5824 25 L5841 24 L5861 23 L5881 22 L5902 21 L5919 20 L5977 19 L5996 18 L6015 17 L6035 16 L6055 15 L6074 14 L6092 14 L6120 13 L6141 12 L6168 12 L6205 11 L6219 10 L6232 9 L6250 9 L6268 8 L6288 8 L6306 7 L6326 7 L6345 6 L6366 6 L6383 5 L6402 5 L6422 4 L6443 4 L6461 3 L6480 2 L6500 1" />
</svg>
