<svg xmlns="http://www.w3.org/2000/svg" version="1.1" viewBox="0 0 6500 1000">
	<path fill="none" stroke="gold" stroke-width="125" stroke-linecap="round" stroke-linejoin="round" d="M0 1016  L-718493 1016 L-715889 1015 L-714221 1015 L-695892 1015 L-695722 1015 L-688564 1015 L-688531 1015 L-675100 1015 L-672178 1015 L-658837 1015 L-654668 1015 L-653508 1014 L-652889 1014 L-650877 1014 L-647105 1014 L-646505 1014 L-646177 1014 L-645964 1014 L-645422 1013 L-644184 1013 L-643005 1013 L-640140 1012 L-639618 1012 L-634763 1012 L-631825 1012 L-631783 1011 L-631474 1011 L-631222 1011 L-628627 1011 L-624372 1011 L-624354 1011 L-623117 1011 L-621240 1011 L-619286 1011 L-618338 1011 L-618067 1011 L-617758 1011 L-617659 1011 L-616829 1011 L-614798 1011 L-614508 1010 L-612361 1010 L-612206 1010 L-608550 1009 L-608299 1010 L-608200 1009 L-607683 1010 L-605532 1010 L-604603 1010 L-603077 1010 L-601837 1010 L-600291 1010 L-597329 1010 L-596207 1010 L-595898 1010 L-594687 1010 L-591680 1011 L-591661 1011 L-591313 1011 L-591100 1010 L-590974 1010 L-590732 1010 L-590694 1009 L-590675 1009 L-590655 1009 L-590596 1009 L-590538 1009 L-590520 1009 L-590077 1009 L-588837 1009 L-587292 1009 L-583904 1008 L-578178 1008 L-577976 1008 L-576340 1008 L-574618 1008 L-573186 1008 L-572954 1008 L-572239 1008 L-566106 1008 L-565739 1008 L-565584 1008 L-565006 1008 L-564713 1008 L-563746 1008 L-563436 1007 L-562837 1007 L-561231 1007 L-560496 1007 L-560186 1007 L-559418 1007 L-557382 1007 L-556956 1007 L-556144 1007 L-548715 1007 L-548192 1007 L-548019 1007 L-547284 1007 L-545716 1007 L-545310 1006 L-543085 1006 L-542137 1006 L-541712 1006 L-541382 1006 L-540338 1006 L-538230 1006 L-537978 1006 L-537359 1006 L-536546 1006 L-534439 1006 L-534390 1006 L-532462 1006 L-532136 1005 L-532001 1005 L-531498 1005 L-530085 1005 L-529582 1005 L-529061 1005 L-525501 1005 L-524766 1004 L-522341 1004 L-521052 1004 L-520645 1004 L-517492 1004 L-517337 1004 L-517317 1004 L-516951 1004 L-515692 1004 L-514977 1004 L-514087 1004 L-513680 1004 L-512752 1004 L-511643 1004 L-511340 1004 L-505091 1005 L-504144 1005 L-502518 1005 L-502016 1005 L-498340 1005 L-497508 1005 L-493555 1005 L-492143 1005 L-489654 1005 L-488977 1005 L-488938 1005 L-488068 1005 L-484856 1005 L-481993 1004 L-481025 1004 L-479904 1004 L-479885 1004 L-478260 1004 L-477796 1004 L-477704 1004 L-471335 1004 L-470386 1004 L-467929 1004 L-467057 1004 L-465821 1004 L-463819 1003 L-463422 1003 L-461985 1003 L-459959 1003 L-459746 1003 L-458566 1003 L-457058 1003 L-457037 1003 L-455025 1003 L-454156 1003 L-453285 1003 L-452700 1003 L-452163 1003 L-451505 1002 L-450267 1002 L-449706 1002 L-448525 1002 L-447288 1002 L-447249 1002 L-446862 1002 L-446321 1002 L-445547 1002 L-444425 1002 L-442335 1002 L-442002 1002 L-441716 1001 L-440788 1001 L-440304 1001 L-439569 1001 L-435938 1001 L-434810 1001 L-434655 1001 L-433629 1001 L-429915 1001 L-428697 1001 L-426879 1001 L-424093 1001 L-423532 1001 L-419644 1001 L-417167 1001 L-415832 1001 L-415329 1000 L-414846 1000 L-412157 1000 L-408385 1000 L-405928 1000 L-404748 1000 L-404109 1000 L-401749 1000 L-401672 1000 L-400624 1000 L-400531 1000 L-400028 1000 L-399582 1000 L-399525 1000 L-399311 1000 L-396351 1000 L-393644 1000 L-393489 1000 L-389968 1000 L-389445 1000 L-388478 1000 L-388129 999 L-387085 999 L-386157 999 L-385731 999 L-384222 999 L-383255 999 L-383236 999 L-381340 995 L-381224 991 L-381176 987 L-381152 983 L-378148 983 L-376117 983 L-374356 983 L-373989 983 L-373544 983 L-373177 983 L-372763 982 L-370778 982 L-370565 982 L-370410 982 L-368804 982 L-367683 982 L-366734 982 L-365477 982 L-363832 982 L-362653 982 L-356063 982 L-356017 982 L-355611 982 L-354566 982 L-354430 982 L-352748 982 L-352728 982 L-351391 981 L-350155 981 L-350001 981 L-349627 981 L-349421 981 L-349111 981 L-348337 981 L-346016 981 L-345358 981 L-343230 981 L-341508 981 L-341314 981 L-338761 981 L-338485 981 L-338297 980 L-337464 980 L-336692 980 L-335994 980 L-330993 980 L-330617 980 L-326364 980 L-325877 985 L-325858 985 L-325779 985 L-325703 985 L-325684 980 L-324871 980 L-324117 980 L-322898 980 L-321466 980 L-321370 980 L-321195 980 L-320841 979 L-319532 979 L-317674 979 L-315972 979 L-315469 979 L-315204 979 L-314811 979 L-314677 979 L-313767 979 L-313390 979 L-312462 979 L-312123 979 L-312083 979 L-312046 979 L-310130 979 L-309956 979 L-308428 979 L-308099 979 L-307983 979 L-307576 979 L-307228 978 L-305584 978 L-305033 978 L-304790 978 L-304249 978 L-303418 978 L-302876 978 L-301341 978 L-301249 978 L-301212 978 L-301076 978 L-300689 978 L-299664 978 L-297788 978 L-297692 978 L-297091 979 L-296724 981 L-296240 983 L-296202 985 L-295428 985 L-295370 985 L-295196 985 L-295002 985 L-293397 985 L-293377 985 L-293222 985 L-293106 985 L-291927 985 L-291772 985 L-291105 985 L-288657 989 L-286142 994 L-283472 998 L-275773 1003 L-270105 1003 L-267891 1003 L-267867 1003 L-266893 1004 L-266874 1004 L-266010 1004 L-263270 1004 L-257471 1003 L-257318 1002 L-254532 1002 L-240923 1002 L-240178 1002 L-235767 1002 L-219421 1002 L-219188 1002 L-218651 1002 L-210192 1002 L-201486 1002 L-201274 1002 L-199302 1002 L-196515 1002 L-192028 1002 L-191873 1002 L-191704 1002 L-191564 1002 L-191273 1001 L-191234 1001 L-190963 1001 L-190792 1001 L-190382 1001 L-189261 1001 L-188081 1001 L-186804 1001 L-183940 1001 L-181020 1001 L-179028 1001 L-177480 1001 L-174442 1001 L-165118 1001 L-164594 1001 L-158870 1001 L-157363 1001 L-156548 1001 L-154865 1001 L-154144 1000 L-153975 1000 L-152930 1000 L-150863 1000 L-149501 1000 L-145057 1000 L-144960 1000 L-144922 1000 L-144903 1000 L-144070 1000 L-143992 1000 L-141420 1000 L-138171 1000 L-138016 1000 L-137068 1000 L-135326 1000 L-134611 1000 L-131070 1000 L-124493 1000 L-123076 1001 L-123055 1001 L-122105 1001 L-118630 1001 L-117877 1001 L-117315 1001 L-116533 1001 L-109029 1000 L-107431 1000 L-105857 1000 L-102671 1000 L-98338 1000 L-89769 1000 L-81022 1000 L-77948 1000 L-74682 1000 L-74136 1000 L-66999 1000 L-61331 1000 L-47266 1000 L-41255 1000 L-36549 1000 L-32546 1000 L-27438 1000 L-17724 1000 L-2153 1000 L928 999 L1230 975 L1250 945 L1269 911 L1289 873 L1308 855 L1328 840 L1346 827 L1374 814 L1395 801 L1423 787 L1458 772 L1471 759 L1485 748 L1503 739 L1522 732 L1542 725 L1560 719 L1579 712 L1599 705 L1620 697 L1637 690 L1656 683 L1676 677 L1696 670 L1715 663 L1733 655 L1753 648 L1773 640 L1792 633 L1811 626 L1832 619 L1857 613 L1871 606 L1888 600 L1908 594 L1927 588 L1947 581 L1965 574 L1985 568 L2006 562 L2024 556 L2043 550 L2063 545 L2084 540 L2101 536 L2120 531 L2140 527 L2159 523 L2179 519 L2197 516 L2217 513 L2237 510 L2256 507 L2275 504 L2302 501 L2323 497 L2351 493 L2385 488 L2399 484 L2412 481 L2431 478 L2450 475 L2470 472 L2488 469 L2508 466 L2528 463 L2548 460 L2566 457 L2584 454 L2605 451 L2624 448 L2643 444 L2662 440 L2682 436 L2701 431 L2720 427 L2739 423 L2760 418 L2785 412 L2799 407 L2816 402 L2836 397 L2855 392 L2875 387 L2894 382 L2914 376 L2934 371 L2952 366 L2971 361 L2991 357 L3012 352 L3030 348 L3049 344 L3069 340 L3087 336 L3107 333 L3126 329 L3146 326 L3165 322 L3185 318 L3203 315 L3232 311 L3252 308 L3280 304 L3317 300 L3332 296 L3344 293 L3362 289 L3379 287 L3398 285 L3417 282 L3436 280 L3456 278 L3477 276 L3494 274 L3513 272 L3533 269 L3553 267 L3571 264 L3590 261 L3610 258 L3630 255 L3649 251 L3668 248 L3689 245 L3713 242 L3728 239 L3745 235 L3765 232 L3784 229 L3804 226 L3822 222 L3842 219 L3863 215 L3881 212 L3900 209 L3920 206 L3940 203 L3958 201 L3977 198 L3997 195 L4016 193 L4036 190 L4055 187 L4074 185 L4094 182 L4113 180 L4132 177 L4160 175 L4180 172 L4208 169 L4244 165 L4259 161 L4272 158 L4289 155 L4307 153 L4327 151 L4346 148 L4365 145 L4385 143 L4406 140 L4425 136 L4442 133 L4462 130 L4482 126 L4500 122 L4519 118 L4539 114 L4560 110 L4577 106 L4596 103 L4618 101 L4643 99 L4657 97 L4675 95 L4694 93 L4713 91 L4732 89 L4751 86 L4771 85 L4792 83 L4809 81 L4829 79 L4849 77 L4870 74 L4887 72 L4906 70 L4926 68 L4945 67 L4964 66 L4983 64 L5003 63 L5023 61 L5042 60 L5061 59 L5088 57 L5109 56 L5137 54 L5172 53 L5185 51 L5198 50 L5217 49 L5236 48 L5256 46 L5274 45 L5294 44 L5313 43 L5334 42 L5351 41 L5370 40 L5391 39 L5411 38 L5429 36 L5448 35 L5468 34 L5488 33 L5506 32 L5525 31 L5546 30 L5571 29 L5586 28 L5603 27 L5622 26 L5641 25 L5661 24 L5680 23 L5700 22 L5721 21 L5738 20 L5757 19 L5777 18 L5798 17 L5815 16 L5834 15 L5854 14 L5873 13 L5893 12 L5912 11 L5932 11 L5951 10 L5970 9 L5989 10 L6018 12 L6038 13 L6066 14 L6103 13 L6118 12 L6131 11 L6148 11 L6164 10 L6184 9 L6203 9 L6222 8 L6242 8 L6263 7 L6280 7 L6299 6 L6319 5 L6339 5 L6357 4 L6376 3 L6396 3 L6416 2 L6434 2 L6453 1 L6475 0 L6500 0" />
</svg>
