<svg xmlns="http://www.w3.org/2000/svg" version="1.1" viewBox="0 0 6500 1000">
	<path fill="none" stroke="gold" stroke-width="125" stroke-linecap="round" stroke-linejoin="round" d="M0 3154  L-729977 3154 L-727373 3154 L-725705 3154 L-707376 3153 L-707205 3153 L-700048 3153 L-700014 3153 L-686584 3153 L-683662 3153 L-670321 3152 L-666152 3152 L-664992 3151 L-664373 3151 L-662361 3150 L-658589 3150 L-657989 3150 L-657660 3149 L-657447 3149 L-656905 3149 L-655667 3148 L-654489 3147 L-651624 3146 L-651102 3145 L-646246 3144 L-643309 3144 L-643266 3144 L-642958 3144 L-642706 3143 L-640111 3143 L-635856 3143 L-635838 3143 L-634601 3143 L-632723 3143 L-630770 3143 L-629822 3142 L-629551 3142 L-629241 3142 L-629143 3142 L-628313 3142 L-626282 3142 L-625992 3141 L-623845 3140 L-623690 3139 L-620033 3139 L-619782 3139 L-619684 3139 L-619167 3139 L-617015 3140 L-616087 3141 L-614561 3141 L-613321 3141 L-611775 3141 L-608813 3141 L-607691 3141 L-607382 3140 L-606171 3140 L-603164 3142 L-603144 3142 L-602797 3141 L-602584 3141 L-602458 3139 L-602216 3139 L-602178 3139 L-602158 3139 L-602139 3138 L-602080 3138 L-602022 3138 L-602004 3138 L-601561 3137 L-600321 3137 L-598775 3137 L-595388 3137 L-589661 3136 L-589460 3136 L-587824 3136 L-586102 3136 L-584670 3136 L-584438 3136 L-583722 3136 L-577590 3135 L-577222 3135 L-577068 3135 L-576490 3135 L-576197 3134 L-575230 3134 L-574920 3134 L-574321 3134 L-572715 3134 L-571980 3134 L-571670 3134 L-570902 3134 L-568866 3133 L-568440 3133 L-567628 3133 L-560199 3133 L-559676 3133 L-559503 3132 L-558767 3132 L-557200 3132 L-556794 3132 L-554569 3131 L-553621 3131 L-553196 3131 L-552866 3131 L-551822 3131 L-549714 3131 L-549462 3130 L-548843 3130 L-548030 3130 L-545922 3130 L-545874 3129 L-543946 3129 L-543620 3129 L-543485 3129 L-542982 3129 L-541569 3128 L-541066 3128 L-540544 3127 L-536985 3127 L-536250 3126 L-533825 3126 L-532535 3126 L-532128 3126 L-528976 3126 L-528821 3126 L-528801 3126 L-528434 3126 L-527176 3126 L-526461 3126 L-525571 3126 L-525164 3126 L-524236 3126 L-523127 3126 L-522824 3127 L-516575 3127 L-515628 3127 L-514001 3127 L-513500 3128 L-509824 3128 L-508992 3128 L-505038 3128 L-503627 3128 L-501137 3127 L-500461 3127 L-500422 3127 L-499551 3127 L-496340 3127 L-493477 3127 L-492509 3127 L-491388 3126 L-491369 3126 L-489744 3126 L-489279 3125 L-489187 3125 L-482818 3125 L-481870 3125 L-479413 3125 L-478540 3125 L-477304 3124 L-475303 3124 L-474905 3124 L-473469 3124 L-471443 3124 L-471230 3123 L-470050 3123 L-468541 3123 L-468521 3123 L-466509 3123 L-465639 3122 L-464769 3122 L-464184 3122 L-463646 3122 L-462989 3122 L-461751 3121 L-461190 3121 L-460009 3121 L-458771 3121 L-458733 3121 L-458346 3121 L-457804 3120 L-457030 3120 L-455908 3120 L-453819 3120 L-453486 3120 L-453200 3119 L-452271 3119 L-451788 3119 L-451053 3119 L-447421 3119 L-446294 3118 L-446139 3118 L-445113 3118 L-441398 3118 L-440181 3118 L-438363 3117 L-435577 3117 L-435015 3117 L-431128 3117 L-428651 3117 L-427316 3117 L-426813 3117 L-426330 3117 L-423640 3117 L-419869 3117 L-417411 3117 L-416232 3117 L-415592 3116 L-413233 3116 L-413155 3116 L-412108 3116 L-412014 3116 L-411512 3116 L-411066 3116 L-411008 3116 L-410795 3116 L-407835 3115 L-405128 3115 L-404973 3115 L-401452 3115 L-400929 3115 L-399962 3114 L-399613 3114 L-398569 3114 L-397640 3114 L-397215 3114 L-395706 3114 L-394739 3114 L-394720 3113 L-392824 3104 L-392708 3094 L-392660 3084 L-392636 3074 L-389631 3074 L-387601 3073 L-385840 3073 L-385473 3073 L-385027 3073 L-384660 3073 L-384246 3072 L-382261 3072 L-382048 3072 L-381893 3072 L-380288 3072 L-379166 3072 L-378218 3072 L-376961 3072 L-375316 3072 L-374137 3071 L-367547 3071 L-367500 3071 L-367095 3071 L-366050 3071 L-365914 3071 L-364232 3070 L-364212 3070 L-362875 3070 L-361639 3070 L-361485 3070 L-361111 3069 L-360904 3069 L-360595 3069 L-359821 3069 L-357500 3069 L-356842 3069 L-354714 3068 L-352992 3068 L-352798 3068 L-350245 3068 L-349968 3068 L-349780 3067 L-348948 3067 L-348175 3067 L-347477 3067 L-342477 3067 L-342101 3067 L-337848 3067 L-337361 3080 L-337342 3080 L-337263 3080 L-337187 3080 L-337167 3066 L-336355 3066 L-335601 3065 L-334382 3065 L-332950 3065 L-332854 3065 L-332679 3065 L-332325 3065 L-331015 3065 L-329158 3065 L-327456 3064 L-326953 3064 L-326688 3064 L-326295 3064 L-326160 3064 L-325251 3064 L-324874 3064 L-323946 3064 L-323607 3063 L-323567 3063 L-323529 3063 L-321614 3063 L-321440 3063 L-319911 3063 L-319583 3063 L-319467 3063 L-319060 3063 L-318712 3063 L-317068 3062 L-316517 3062 L-316274 3062 L-315733 3062 L-314901 3062 L-314360 3061 L-312825 3061 L-312733 3061 L-312696 3061 L-312560 3061 L-312173 3061 L-311148 3061 L-309272 3060 L-309175 3060 L-308575 3065 L-308208 3069 L-307723 3074 L-307685 3078 L-306911 3079 L-306854 3078 L-306679 3078 L-306486 3078 L-304881 3078 L-304861 3078 L-304705 3078 L-304590 3078 L-303410 3078 L-303256 3079 L-302589 3079 L-300141 3090 L-297626 3101 L-294956 3112 L-287257 3122 L-281589 3122 L-279374 3122 L-279351 3122 L-278377 3125 L-278357 3125 L-277494 3125 L-274753 3125 L-268955 3122 L-268801 3122 L-266015 3121 L-252407 3121 L-251661 3121 L-247251 3121 L-230904 3121 L-230672 3120 L-230135 3120 L-221676 3120 L-212970 3120 L-212758 3120 L-210785 3120 L-207999 3120 L-203512 3120 L-203357 3120 L-203188 3120 L-203047 3120 L-202757 3119 L-202718 3119 L-202447 3119 L-202275 3119 L-201865 3119 L-200745 3119 L-199564 3118 L-198288 3118 L-195424 3118 L-192504 3118 L-190512 3118 L-188964 3118 L-185926 3118 L-176601 3117 L-176077 3117 L-170354 3117 L-168847 3117 L-168032 3117 L-166348 3117 L-165627 3117 L-165459 3117 L-164414 3116 L-162347 3116 L-160985 3116 L-156541 3116 L-156444 3116 L-156405 3116 L-156386 3116 L-155554 3116 L-155476 3115 L-152904 3115 L-149654 3115 L-149500 3115 L-148551 3115 L-146810 3114 L-146095 3115 L-142554 3116 L-135977 3117 L-134559 3118 L-134539 3118 L-133588 3118 L-130114 3117 L-129361 3117 L-128799 3117 L-128017 3117 L-120513 3117 L-118914 3117 L-117340 3116 L-114155 3116 L-109822 3116 L-101252 3116 L-92506 3116 L-89432 3116 L-86166 3116 L-85620 3116 L-78482 3115 L-72815 3115 L-58750 3115 L-52739 3116 L-48033 3115 L-44029 3115 L-38922 3115 L-29208 3115 L-13637 3115 L-10554 3114 L-10252 3054 L-10233 2980 L-10214 2896 L-10194 2802 L-10174 2759 L-10155 2722 L-10136 2689 L-10109 2656 L-10088 2624 L-10060 2591 L-10025 2553 L-10011 2522 L-9998 2495 L-9980 2472 L-9961 2456 L-9941 2439 L-9923 2422 L-9903 2405 L-9884 2388 L-9862 2370 L-9846 2352 L-9827 2335 L-9806 2319 L-9786 2302 L-9768 2284 L-9749 2266 L-9730 2247 L-9709 2228 L-9691 2211 L-9672 2194 L-9651 2177 L-9626 2161 L-9611 2145 L-9594 2130 L-9575 2114 L-9555 2099 L-9536 2083 L-9517 2066 L-9497 2050 L-9477 2035 L-9459 2020 L-9440 2006 L-9419 1993 L-9399 1981 L-9382 1971 L-9363 1960 L-9343 1950 L-9324 1940 L-9304 1931 L-9285 1922 L-9265 1915 L-9246 1908 L-9227 1901 L-9208 1894 L-9181 1885 L-9160 1875 L-9132 1865 L-9098 1853 L-9084 1844 L-9070 1836 L-9052 1828 L-9033 1821 L-9013 1815 L-8995 1807 L-8975 1799 L-8955 1791 L-8935 1784 L-8917 1777 L-8898 1770 L-8878 1762 L-8858 1754 L-8840 1745 L-8821 1734 L-8801 1724 L-8781 1713 L-8762 1703 L-8744 1692 L-8722 1680 L-8698 1667 L-8683 1654 L-8666 1641 L-8646 1629 L-8627 1617 L-8608 1605 L-8589 1591 L-8569 1578 L-8548 1566 L-8530 1554 L-8511 1542 L-8491 1530 L-8471 1519 L-8453 1508 L-8434 1498 L-8414 1488 L-8395 1480 L-8376 1471 L-8357 1462 L-8337 1453 L-8318 1444 L-8298 1435 L-8279 1426 L-8251 1417 L-8231 1409 L-8203 1401 L-8166 1391 L-8151 1381 L-8138 1372 L-8121 1364 L-8104 1358 L-8084 1352 L-8066 1347 L-8047 1342 L-8027 1337 L-8006 1332 L-7989 1326 L-7970 1320 L-7949 1314 L-7930 1308 L-7911 1301 L-7892 1294 L-7872 1286 L-7853 1278 L-7834 1270 L-7815 1262 L-7794 1255 L-7770 1246 L-7755 1239 L-7738 1231 L-7718 1223 L-7699 1215 L-7679 1207 L-7660 1198 L-7640 1190 L-7620 1181 L-7602 1173 L-7583 1166 L-7563 1159 L-7542 1152 L-7525 1145 L-7505 1138 L-7486 1132 L-7467 1125 L-7447 1118 L-7428 1112 L-7408 1106 L-7389 1099 L-7370 1093 L-7351 1087 L-7323 1081 L-7302 1074 L-7274 1067 L-7238 1057 L-7224 1048 L-7211 1039 L-7193 1032 L-7175 1027 L-7156 1022 L-7137 1015 L-7117 1009 L-7098 1002 L-7076 995 L-7058 987 L-7041 979 L-7021 970 L-7000 961 L-6982 951 L-6963 941 L-6943 931 L-6923 921 L-6905 912 L-6886 905 L-6865 899 L-6840 894 L-6826 889 L-6808 885 L-6789 880 L-6769 874 L-6750 869 L-6731 864 L-6711 859 L-6691 855 L-6673 851 L-6654 846 L-6634 840 L-6613 834 L-6596 827 L-6577 822 L-6557 818 L-6538 815 L-6519 812 L-6500 809 L-6480 806 L-6460 802 L-6441 798 L-6422 795 L-6395 791 L-6374 788 L-6346 785 L-6311 780 L-6298 776 L-6284 773 L-6265 770 L-6247 768 L-6227 765 L-6209 762 L-6189 760 L-6169 757 L-6148 755 L-6131 752 L-6113 749 L-6092 746 L-6072 743 L-6054 740 L-6035 737 L-6015 735 L-5995 732 L-5977 730 L-5958 727 L-5937 725 L-5912 722 L-5897 720 L-5880 718 L-5861 715 L-5841 713 L-5822 710 L-5803 707 L-5783 704 L-5762 701 L-5745 699 L-5726 696 L-5705 694 L-5685 691 L-5667 689 L-5648 687 L-5628 684 L-5610 682 L-5590 680 L-5571 678 L-5551 677 L-5532 675 L-5512 673 L-5494 676 L-5465 679 L-5445 682 L-5417 684 L-5380 682 L-5365 680 L-5352 678 L-5334 676 L-5318 675 L-5298 674 L-5280 672 L-5260 671 L-5241 669 L-5219 668 L-5203 667 L-5184 665 L-5163 664 L-5143 662 L-5125 660 L-5106 659 L-5087 657 L-5066 656 L-5048 654 L-5029 653 L-5008 652 L-4983 650 L-4969 649 L-4951 647 L-4932 646 L-4913 644 L-4893 643 L-4874 641 L-4854 639 L-4834 637 L-4816 635 L-4797 633 L-4777 631 L-4756 629 L-4739 627 L-4720 625 L-4700 623 L-4681 621 L-4661 619 L-4642 617 L-4623 615 L-4603 613 L-4584 612 L-4565 611 L-4537 609 L-4517 607 L-4489 605 L-4454 603 L-4440 601 L-4427 599 L-4408 598 L-4390 596 L-4370 595 L-4351 593 L-4332 592 L-4312 590 L-4291 588 L-4274 587 L-4255 585 L-4235 583 L-4215 581 L-4197 579 L-4178 576 L-4158 574 L-4138 571 L-4120 569 L-4101 567 L-4079 564 L-4054 562 L-4040 560 L-4023 557 L-4003 555 L-3984 552 L-3965 550 L-3946 548 L-3926 545 L-3905 543 L-3888 541 L-3868 539 L-3848 537 L-3827 535 L-3810 533 L-3791 531 L-3771 530 L-3752 529 L-3733 527 L-3714 526 L-3694 525 L-3674 523 L-3655 522 L-3636 521 L-3609 520 L-3588 519 L-3560 517 L-3525 515 L-3511 512 L-3498 510 L-3479 508 L-3461 506 L-3441 505 L-3423 503 L-3403 502 L-3384 501 L-3363 499 L-3346 497 L-3327 496 L-3306 494 L-3286 492 L-3268 490 L-3249 488 L-3229 486 L-3209 484 L-3191 482 L-3172 481 L-3151 480 L-3126 478 L-3111 477 L-3094 475 L-3075 473 L-3055 472 L-3036 470 L-3017 468 L-2997 465 L-2976 462 L-2959 460 L-2940 458 L-2919 456 L-2899 454 L-2882 453 L-2863 451 L-2843 450 L-2824 449 L-2804 448 L-2785 447 L-2765 446 L-2746 444 L-2726 443 L-2708 442 L-2681 441 L-2660 440 L-2632 439 L-2598 438 L-2583 437 L-2570 436 L-2552 435 L-2533 434 L-2513 433 L-2495 432 L-2475 431 L-2455 430 L-2435 430 L-2417 429 L-2398 428 L-2378 427 L-2358 426 L-2340 425 L-2321 424 L-2301 423 L-2281 422 L-2262 422 L-2244 421 L-2222 420 L-2198 419 L-2183 419 L-2166 417 L-2146 416 L-2127 416 L-2108 415 L-2089 414 L-2069 413 L-2048 411 L-2030 409 L-2011 407 L-1991 405 L-1971 404 L-1953 403 L-1934 401 L-1914 400 L-1895 399 L-1875 397 L-1857 396 L-1837 395 L-1818 394 L-1798 393 L-1779 392 L-1751 392 L-1703 391 L-1666 390 L-1651 389 L-1639 388 L-1622 387 L-1604 387 L-1585 386 L-1566 385 L-1547 385 L-1526 384 L-1506 383 L-1489 383 L-1470 382 L-1450 382 L-1430 381 L-1411 380 L-1392 379 L-1372 378 L-1353 377 L-1334 376 L-1315 375 L-1294 374 L-1269 372 L-1255 371 L-1238 370 L-1218 368 L-1199 367 L-1179 366 L-1160 364 L-1140 363 L-1120 362 L-1102 360 L-1083 359 L-1062 358 L-1042 357 L-1024 356 L-1006 355 L-985 354 L-967 353 L-947 353 L-928 351 L-908 351 L-889 349 L-869 349 L-851 347 L-822 347 L-802 345 L-774 344 L-738 342 L-723 340 L-710 338 L-693 336 L-675 335 L-655 334 L-637 333 L-617 333 L-598 332 L-576 331 L-560 330 L-541 329 L-520 328 L-500 326 L-482 325 L-463 323 L-443 321 L-423 319 L-405 317 L-386 316 L-365 314 L-340 313 L-325 312 L-307 310 L-289 309 L-269 308 L-250 307 L-231 305 L-211 304 L-190 302 L-173 301 L-154 300 L-134 299 L-112 297 L-96 296 L-77 295 L-57 294 L-38 293 L-18 292 L0 291 L19 290 L39 289 L58 288 L77 287 L105 997 L125 996 L153 995 L189 993 L203 281 L216 280 L234 279 L252 278 L272 277 L290 277 L310 276 L330 275 L351 273 L368 272 L386 270 L407 269 L427 267 L445 265 L464 263 L484 261 L505 260 L522 259 L541 258 L563 256 L588 255 L603 253 L632 251 L672 249 L695 247 L724 244 L741 242 L754 241 L774 239 L794 238 L815 237 L832 236 L851 235 L871 234 L890 234 L909 233 L928 232 L948 232 L968 231 L987 230 L1005 229 L1033 228 L1054 227 L1082 226 L1117 225 L1130 224 L1162 223 L1181 222 L1201 221 L1219 221 L1239 220 L1258 219 L1279 219 L1296 218 L1315 216 L1336 213 L1356 210 L1374 207 L1393 204 L1413 201 L1433 199 L1451 197 L1470 195 L1491 194 L1516 193 L1531 192 L1548 190 L1567 189 L1587 188 L1606 186 L1625 185 L1645 184 L1666 182 L1683 181 L1702 179 L1723 178 L1744 177 L1760 176 L1779 176 L1799 175 L1819 174 L1838 173 L1857 172 L1877 171 L1896 170 L1915 169 L1934 168 L1962 167 L1982 166 L2052 164 L2080 162 L2095 160 L2109 158 L2129 157 L2147 156 L2167 154 L2187 153 L2208 152 L2225 151 L2244 150 L2264 150 L2284 149 L2302 148 L2321 147 L2341 145 L2362 144 L2379 143 L2398 142 L2420 141 L2445 140 L2460 139 L2477 138 L2496 137 L2516 135 L2535 134 L2554 133 L2573 132 L2595 131 L2612 130 L2631 129 L2651 128 L2672 127 L2689 126 L2747 125 L2767 124 L2785 124 L2805 123 L2825 122 L2844 121 L2863 121 L2890 120 L2911 120 L2939 119 L2975 118 L2990 118 L3002 117 L3020 116 L3038 116 L3058 115 L3076 115 L3096 115 L3116 114 L3137 114 L3153 113 L3172 113 L3193 113 L3213 112 L3231 111 L3250 111 L3270 110 L3290 109 L3308 108 L3327 108 L3348 107 L3373 106 L3388 106 L3405 105 L3424 105 L3444 104 L3463 103 L3482 102 L3502 101 L3523 100 L3540 99 L3559 98 L3580 98 L3601 98 L3617 97 L3636 97 L3657 96 L3676 96 L3695 95 L3714 95 L3734 94 L3754 94 L3772 94 L3791 93 L3819 93 L3839 92 L3867 92 L3903 91 L3916 91 L3930 90 L3948 90 L3966 89 L3986 89 L4005 88 L4044 88 L4064 87 L4082 87 L4101 86 L4121 86 L4141 85 L4159 84 L4178 83 L4198 83 L4218 82 L4237 81 L4256 81 L4276 80 L4301 80 L4316 79 L4333 79 L4353 78 L4372 78 L4391 77 L4410 76 L4430 76 L4451 75 L4469 75 L4487 74 L4508 73 L4528 73 L4546 72 L4565 72 L4585 71 L4604 71 L4624 71 L4642 70 L4662 70 L4682 69 L4701 69 L4720 68 L4749 68 L4796 67 L4834 67 L4849 66 L4861 66 L4878 65 L4895 65 L4915 65 L4933 64 L4952 64 L4972 64 L4993 64 L5010 63 L5029 63 L5050 63 L5069 63 L5088 63 L5107 62 L5127 62 L5146 62 L5165 61 L5184 61 L5205 60 L5229 60 L5244 59 L5261 58 L5281 57 L5300 56 L5320 55 L5339 54 L5359 53 L5379 51 L5397 50 L5416 49 L5436 48 L5457 48 L5475 46 L5494 45 L5514 44 L5532 43 L5552 43 L5571 42 L5591 41 L5610 40 L5630 39 L5648 37 L5677 36 L5697 35 L5725 35 L5762 34 L5776 33 L5789 33 L5807 32 L5824 31 L5844 30 L5862 30 L5882 29 L5901 29 L5923 28 L5939 27 L5958 26 L5979 25 L5999 24 L6017 24 L6036 23 L6056 22 L6076 21 L6094 20 L6113 20 L6134 19 L6159 18 L6174 17 L6192 16 L6210 15 L6231 14 L6249 13 L6269 12 L6288 11 L6309 9 L6326 8 L6345 7 L6366 6 L6387 5 L6403 4 L6422 4 L6442 3 L6461 3 L6481 2 L6500 1" />
</svg>
