<svg xmlns="http://www.w3.org/2000/svg" version="1.1" viewBox="0 0 6500 1000">
	<path fill="none" stroke="gold" stroke-width="125" stroke-linecap="round" stroke-linejoin="round" d="M0 1015  L-719299 1015 L-716695 1015 L-715027 1015 L-696697 1015 L-696527 1015 L-689369 1015 L-689336 1015 L-675905 1015 L-672983 1015 L-659642 1015 L-655473 1014 L-654313 1014 L-653694 1014 L-651682 1014 L-647911 1014 L-647311 1013 L-646982 1013 L-646769 1013 L-646227 1013 L-644989 1013 L-643810 1012 L-640946 1012 L-640424 1011 L-635568 1011 L-632631 1011 L-632588 1011 L-632279 1011 L-632028 1011 L-629433 1011 L-625177 1011 L-625159 1011 L-623922 1011 L-622045 1011 L-620092 1011 L-619144 1011 L-618873 1010 L-618563 1010 L-618465 1010 L-617634 1010 L-615604 1010 L-615313 1010 L-613167 1010 L-613011 1009 L-609355 1009 L-609104 1009 L-609005 1009 L-608488 1009 L-606337 1010 L-605408 1010 L-603882 1010 L-602643 1010 L-601096 1010 L-598134 1010 L-597013 1010 L-596703 1010 L-595492 1010 L-592486 1010 L-592466 1010 L-592119 1010 L-591905 1010 L-591779 1009 L-591538 1009 L-591500 1009 L-591480 1009 L-591461 1009 L-591402 1009 L-591343 1009 L-591325 1009 L-590882 1009 L-589643 1008 L-588097 1008 L-584709 1008 L-578983 1008 L-578781 1008 L-577146 1008 L-575424 1008 L-573992 1008 L-573759 1008 L-573044 1008 L-566912 1008 L-566544 1008 L-566390 1008 L-565811 1007 L-565519 1007 L-564551 1007 L-564242 1007 L-563643 1007 L-562036 1007 L-561301 1007 L-560992 1007 L-560223 1007 L-558187 1007 L-557762 1007 L-556949 1007 L-549521 1007 L-548998 1007 L-548824 1007 L-548089 1006 L-546521 1006 L-546116 1006 L-543891 1006 L-542943 1006 L-542518 1006 L-542188 1006 L-541144 1006 L-539036 1006 L-538783 1006 L-538165 1006 L-537352 1006 L-535244 1006 L-535195 1005 L-533267 1005 L-532942 1005 L-532807 1005 L-532303 1005 L-530891 1005 L-530388 1005 L-529866 1005 L-526306 1004 L-525571 1004 L-523146 1004 L-521857 1004 L-521450 1004 L-518298 1004 L-518143 1004 L-518122 1004 L-517756 1004 L-516498 1004 L-515783 1004 L-514893 1004 L-514486 1004 L-513557 1004 L-512449 1004 L-512145 1004 L-505896 1004 L-504949 1005 L-503323 1005 L-502821 1005 L-499146 1005 L-498313 1005 L-494360 1005 L-492948 1005 L-490459 1005 L-489782 1004 L-489744 1004 L-488873 1004 L-485662 1004 L-482799 1004 L-481831 1004 L-480709 1004 L-480690 1004 L-479065 1004 L-478601 1004 L-478509 1004 L-472140 1004 L-471191 1004 L-468734 1004 L-467862 1003 L-466626 1003 L-464625 1003 L-464227 1003 L-462791 1003 L-460765 1003 L-460551 1003 L-459371 1003 L-457863 1003 L-457843 1003 L-455830 1003 L-454961 1003 L-454090 1003 L-453505 1003 L-452968 1002 L-452310 1002 L-451072 1002 L-450512 1002 L-449331 1002 L-448093 1002 L-448054 1002 L-447668 1002 L-447126 1002 L-446352 1002 L-445230 1002 L-443141 1002 L-442807 1002 L-442522 1001 L-441593 1001 L-441110 1001 L-440374 1001 L-436743 1001 L-435616 1001 L-435461 1001 L-434435 1001 L-430720 1001 L-429503 1001 L-427684 1001 L-424899 1001 L-424337 1001 L-420449 1001 L-417973 1000 L-416638 1000 L-416134 1000 L-415651 1000 L-412962 1000 L-409190 1000 L-406733 1000 L-405553 1000 L-404914 1000 L-402555 1000 L-402477 1000 L-401430 1000 L-401336 1000 L-400833 1000 L-400388 1000 L-400330 1000 L-400116 1000 L-397157 1000 L-394449 1000 L-394294 1000 L-390774 1000 L-390251 1000 L-389283 1000 L-388934 999 L-387891 999 L-386962 999 L-386536 999 L-385027 999 L-384060 999 L-384042 999 L-382146 995 L-382030 991 L-381982 987 L-381957 984 L-378953 983 L-376922 983 L-375162 983 L-374794 983 L-374349 983 L-373982 983 L-373568 983 L-371583 983 L-371370 983 L-371215 983 L-369610 983 L-368488 983 L-367540 983 L-366282 983 L-364638 983 L-363458 983 L-356869 982 L-356822 982 L-356416 982 L-355371 982 L-355236 982 L-353553 982 L-353533 982 L-352197 982 L-350960 982 L-350806 982 L-350432 982 L-350226 982 L-349916 982 L-349143 982 L-346821 982 L-346163 981 L-344036 981 L-342313 981 L-342120 981 L-339566 981 L-339290 981 L-339102 981 L-338269 981 L-337497 981 L-336799 981 L-331798 981 L-331422 981 L-327169 981 L-326682 986 L-326663 986 L-326584 986 L-326509 986 L-326489 980 L-325676 980 L-324922 980 L-323703 980 L-322271 980 L-322175 980 L-322001 980 L-321646 980 L-320337 980 L-318480 980 L-316777 980 L-316275 980 L-316009 980 L-315616 980 L-315482 980 L-314572 980 L-314196 980 L-313267 980 L-312928 979 L-312889 979 L-312851 979 L-310935 979 L-310762 979 L-309233 979 L-308905 979 L-308789 979 L-308382 979 L-308033 979 L-306390 979 L-305839 979 L-305596 979 L-305054 979 L-304223 979 L-303681 979 L-302147 979 L-302055 979 L-302018 978 L-301882 978 L-301494 978 L-300470 978 L-298593 978 L-298497 978 L-297897 980 L-297530 982 L-297045 984 L-297007 985 L-296233 985 L-296176 985 L-296001 985 L-295807 985 L-294202 985 L-294182 985 L-294027 985 L-293912 985 L-292732 985 L-292577 985 L-291910 985 L-289462 990 L-286947 994 L-284277 998 L-276578 1003 L-270910 1003 L-268696 1003 L-268673 1003 L-267699 1004 L-267679 1004 L-266815 1004 L-264075 1004 L-258276 1002 L-258123 1002 L-255337 1002 L-241729 1002 L-240983 1002 L-236572 1002 L-220226 1002 L-219994 1002 L-219457 1002 L-210997 1002 L-202292 1002 L-202079 1002 L-200107 1002 L-197321 1002 L-192833 1002 L-192678 1002 L-192509 1002 L-192369 1002 L-192078 1001 L-192040 1001 L-191769 1001 L-191597 1001 L-191187 1001 L-190066 1001 L-188886 1001 L-187609 1001 L-184745 1001 L-181825 1001 L-179833 1001 L-178285 1001 L-175248 1001 L-165923 1001 L-165399 1001 L-159675 1001 L-158168 1001 L-157354 1001 L-155670 1000 L-154949 1000 L-154781 1000 L-153735 1000 L-151668 1000 L-150306 1000 L-145863 1000 L-145766 1000 L-145727 1000 L-145708 1000 L-144876 1000 L-144798 1000 L-142225 1000 L-138976 1000 L-138821 1000 L-137873 1000 L-136132 1000 L-135416 1000 L-131876 1000 L-125298 1000 L-123881 1001 L-123860 1001 L-122910 1001 L-119435 1001 L-118682 1001 L-118120 1001 L-117338 1000 L-109834 1000 L-108236 1000 L-106662 1000 L-103477 1000 L-99144 1000 L-90574 1000 L-81827 1000 L-78754 1000 L-75488 1000 L-74941 1000 L-67804 1000 L-62136 1000 L-48072 1000 L-42060 1000 L-37354 1000 L-33351 1000 L-28243 1000 L-18529 1000 L-2959 1000 L123 999 L425 976 L445 947 L464 913 L483 876 L503 859 L522 845 L541 832 L568 819 L589 807 L617 793 L653 779 L666 766 L679 756 L698 747 L716 740 L736 733 L754 727 L774 720 L794 713 L815 706 L832 699 L850 693 L871 686 L891 680 L909 673 L928 665 L948 658 L968 651 L986 644 L1005 637 L1026 631 L1051 624 L1066 618 L1083 612 L1103 606 L1122 600 L1141 593 L1160 587 L1180 580 L1201 574 L1219 569 L1237 563 L1258 558 L1279 553 L1296 549 L1315 545 L1335 541 L1354 537 L1373 533 L1392 530 L1412 527 L1432 524 L1451 522 L1469 519 L1497 515 L1518 512 L1546 507 L1580 503 L1594 499 L1607 496 L1626 493 L1645 490 L1664 488 L1683 485 L1702 481 L1722 478 L1743 476 L1760 473 L1779 470 L1799 467 L1819 464 L1838 460 L1856 456 L1876 452 L1896 448 L1915 444 L1934 439 L1955 435 L1979 429 L1994 424 L2011 419 L2031 415 L2050 410 L2070 405 L2088 400 L2109 395 L2129 390 L2147 385 L2166 380 L2186 376 L2207 371 L2224 367 L2243 363 L2263 359 L2282 356 L2302 352 L2321 349 L2340 345 L2360 342 L2379 338 L2398 335 L2427 331 L2447 328 L2474 325 L2512 321 L2527 317 L2539 313 L2556 310 L2573 308 L2593 305 L2612 303 L2631 301 L2651 300 L2671 297 L2689 295 L2708 293 L2728 290 L2748 288 L2766 285 L2785 283 L2805 279 L2825 276 L2844 273 L2862 270 L2883 267 L2908 264 L2922 261 L2940 258 L2960 255 L2979 252 L2998 248 L3017 245 L3037 242 L3057 238 L3076 235 L3095 232 L3115 229 L3135 227 L3153 224 L3172 221 L3192 219 L3210 216 L3230 213 L3249 211 L3269 208 L3288 206 L3308 204 L3327 201 L3355 199 L3375 196 L3403 193 L3439 189 L3453 186 L3466 182 L3484 179 L3502 177 L3522 175 L3540 173 L3560 170 L3580 168 L3601 165 L3619 162 L3636 158 L3657 155 L3677 151 L3695 148 L3714 144 L3734 140 L3754 136 L3772 132 L3791 129 L3812 127 L3837 125 L3852 123 L3869 121 L3888 119 L3908 117 L3927 115 L3946 113 L3966 111 L3987 110 L4004 108 L4023 106 L4044 104 L4065 101 L4081 99 L4100 97 L4121 95 L4139 94 L4159 93 L4178 92 L4198 90 L4217 89 L4236 87 L4255 86 L4283 85 L4304 83 L4331 82 L4366 80 L4380 79 L4393 77 L4412 76 L4430 75 L4450 74 L4469 73 L4488 72 L4508 71 L4529 70 L4546 69 L4565 68 L4586 67 L4605 66 L4623 64 L4642 63 L4662 62 L4682 61 L4701 60 L4720 59 L4741 58 L4766 57 L4780 57 L4797 56 L4817 55 L4836 54 L4856 53 L4875 51 L4894 50 L4915 49 L4933 48 L4952 47 L4972 46 L4993 45 L5010 44 L5029 43 L5049 43 L5068 42 L5088 41 L5106 40 L5126 40 L5146 39 L5165 38 L5184 39 L5213 40 L5232 41 L5260 42 L5298 41 L5313 41 L5325 40 L5343 39 L5359 39 L5379 38 L5397 38 L5417 37 L5437 37 L5458 36 L5475 36 L5493 35 L5514 34 L5534 34 L5552 33 L5571 33 L5591 32 L5611 31 L5629 31 L5648 30 L5669 30 L5694 29 L5709 29 L5726 28 L5745 27 L5765 27 L5784 26 L5803 25 L5823 25 L5844 24 L5861 23 L5880 22 L5901 21 L5921 21 L5939 20 L5958 19 L5978 18 L5996 18 L6016 17 L6035 16 L6055 15 L6075 15 L6094 14 L6112 14 L6140 13 L6161 12 L6189 11 L6223 10 L6237 10 L6250 9 L6269 8 L6288 8 L6308 7 L6326 7 L6346 6 L6365 5 L6386 5 L6403 4 L6422 3 L6443 3 L6463 2 L6481 1 L6500 0" />
</svg>
