<svg xmlns="http://www.w3.org/2000/svg" version="1.1" viewBox="0 0 6500 1000">
	<path fill="none" stroke="gold" stroke-width="125" stroke-linecap="round" stroke-linejoin="round" d="M0 1030  L-714444 1030 L-711840 1030 L-710172 1030 L-691842 1029 L-691672 1029 L-684514 1029 L-684481 1029 L-671050 1029 L-668128 1029 L-654787 1029 L-650618 1028 L-649458 1028 L-648839 1027 L-646827 1027 L-643056 1027 L-642456 1027 L-642127 1026 L-641914 1026 L-641372 1026 L-640134 1025 L-638955 1024 L-636091 1023 L-635569 1023 L-630713 1022 L-627776 1022 L-627733 1022 L-627424 1022 L-627173 1022 L-624578 1021 L-620322 1021 L-620304 1021 L-619067 1021 L-617190 1021 L-615237 1021 L-614289 1021 L-614018 1021 L-613708 1021 L-613610 1021 L-612779 1021 L-610749 1021 L-610458 1020 L-608312 1019 L-608156 1019 L-604500 1018 L-604249 1018 L-604150 1018 L-603633 1019 L-601482 1019 L-600553 1020 L-599027 1020 L-597788 1020 L-596241 1020 L-593280 1020 L-592158 1020 L-591848 1019 L-590637 1019 L-587631 1020 L-587611 1020 L-587264 1020 L-587050 1020 L-586924 1019 L-586683 1019 L-586645 1018 L-586625 1018 L-586606 1018 L-586547 1018 L-586488 1017 L-586470 1017 L-586027 1017 L-584788 1017 L-583242 1017 L-579854 1016 L-574128 1016 L-573926 1016 L-572291 1016 L-570569 1016 L-569137 1016 L-568904 1016 L-568189 1016 L-562057 1016 L-561689 1015 L-561535 1015 L-560956 1015 L-560664 1015 L-559696 1015 L-559387 1014 L-558788 1014 L-557181 1014 L-556446 1014 L-556137 1014 L-555368 1014 L-553332 1014 L-552907 1014 L-552094 1014 L-544666 1014 L-544143 1013 L-543969 1013 L-543234 1013 L-541666 1013 L-541261 1013 L-539036 1012 L-538088 1012 L-537663 1012 L-537333 1012 L-536289 1012 L-534181 1012 L-533928 1012 L-533310 1011 L-532497 1011 L-530389 1011 L-530341 1011 L-528412 1011 L-528087 1011 L-527952 1010 L-527448 1010 L-526036 1010 L-525533 1010 L-525011 1009 L-521451 1009 L-520716 1008 L-518291 1008 L-517002 1008 L-516595 1008 L-513443 1008 L-513288 1008 L-513267 1008 L-512901 1008 L-511643 1008 L-510928 1008 L-510038 1008 L-509631 1008 L-508702 1008 L-507594 1008 L-507290 1009 L-501042 1009 L-500094 1009 L-498468 1009 L-497966 1010 L-494291 1010 L-493458 1010 L-489505 1010 L-488093 1010 L-485604 1009 L-484928 1009 L-484889 1009 L-484018 1009 L-480807 1009 L-477944 1009 L-476976 1009 L-475854 1008 L-475835 1008 L-474210 1008 L-473746 1008 L-473654 1008 L-467285 1008 L-466336 1007 L-463879 1007 L-463007 1007 L-461771 1007 L-459770 1007 L-459372 1007 L-457936 1007 L-455910 1006 L-455696 1006 L-454516 1006 L-453008 1006 L-452988 1006 L-450976 1006 L-450106 1006 L-449235 1005 L-448650 1005 L-448113 1005 L-447455 1005 L-446217 1005 L-445657 1005 L-444476 1004 L-443238 1004 L-443200 1004 L-442813 1004 L-442271 1004 L-441497 1004 L-440375 1004 L-438286 1004 L-437952 1003 L-437667 1003 L-436738 1003 L-436255 1003 L-435519 1003 L-431888 1003 L-430761 1002 L-430606 1002 L-429580 1002 L-425865 1002 L-424648 1002 L-422829 1002 L-420044 1002 L-419482 1001 L-415594 1001 L-413118 1001 L-411783 1001 L-411279 1001 L-410796 1001 L-408107 1001 L-404335 1001 L-401878 1001 L-400698 1001 L-400059 1001 L-397700 1001 L-397622 1001 L-396575 1001 L-396481 1000 L-395978 1000 L-395533 1000 L-395475 1000 L-395261 1000 L-392302 1000 L-389594 1000 L-389439 1000 L-385919 1000 L-385396 1000 L-384428 999 L-384079 999 L-383036 999 L-382107 999 L-381681 999 L-380172 999 L-379206 999 L-379187 999 L-377291 991 L-377175 983 L-377127 976 L-377102 968 L-374098 968 L-372067 968 L-370307 968 L-369939 967 L-369494 967 L-369127 967 L-368713 967 L-366728 967 L-366515 967 L-366360 967 L-364755 967 L-363633 967 L-362685 966 L-361427 966 L-359783 966 L-358603 966 L-352014 966 L-351967 966 L-351561 966 L-350516 966 L-350381 965 L-348698 965 L-348678 965 L-347342 965 L-346105 965 L-345951 965 L-345577 965 L-345371 964 L-345062 964 L-344288 964 L-341966 964 L-341308 964 L-339181 964 L-337458 964 L-337265 963 L-334711 963 L-334435 963 L-334247 963 L-333414 963 L-332642 963 L-331944 963 L-326943 963 L-326567 962 L-322315 962 L-321827 973 L-321808 973 L-321729 972 L-321654 972 L-321634 962 L-320821 962 L-320068 962 L-318848 961 L-317416 961 L-317320 961 L-317146 961 L-316791 961 L-315482 961 L-313625 961 L-311922 961 L-311420 961 L-311154 960 L-310761 960 L-310627 960 L-309717 960 L-309341 960 L-308412 960 L-308073 960 L-308034 960 L-307996 960 L-306080 960 L-305907 960 L-304378 960 L-304050 960 L-303934 960 L-303527 959 L-303178 959 L-301535 959 L-300984 959 L-300741 959 L-300199 959 L-299368 959 L-298826 958 L-297292 958 L-297200 958 L-297163 958 L-297027 958 L-296639 958 L-295615 958 L-293738 958 L-293642 957 L-293042 961 L-292675 964 L-292190 968 L-292152 971 L-291378 972 L-291321 972 L-291146 971 L-290953 971 L-289347 971 L-289327 971 L-289172 971 L-289057 971 L-287877 971 L-287722 972 L-287055 972 L-284607 980 L-282092 989 L-279422 997 L-271723 1006 L-266056 1006 L-263841 1005 L-263818 1005 L-262844 1008 L-262824 1008 L-261960 1007 L-259220 1007 L-253421 1005 L-253268 1005 L-250482 1005 L-236874 1005 L-236128 1004 L-231717 1004 L-215371 1004 L-215139 1004 L-214602 1004 L-206142 1004 L-197437 1004 L-197224 1004 L-195252 1003 L-192466 1003 L-187978 1004 L-187823 1003 L-187654 1003 L-187514 1003 L-187223 1003 L-187185 1003 L-186914 1003 L-186742 1003 L-186332 1003 L-185211 1003 L-184031 1002 L-182754 1002 L-179890 1002 L-176970 1002 L-174978 1002 L-173430 1002 L-170393 1002 L-161068 1002 L-160544 1002 L-154820 1002 L-153313 1001 L-152499 1001 L-150815 1001 L-150094 1001 L-149926 1001 L-148880 1001 L-146813 1001 L-145451 1001 L-141008 1001 L-140911 1001 L-140872 1000 L-140853 1000 L-140021 1000 L-139943 1000 L-137370 1000 L-134121 1000 L-133966 1000 L-133018 1000 L-131277 999 L-130561 1000 L-127021 1001 L-120443 1001 L-119026 1002 L-119005 1002 L-118055 1002 L-114580 1002 L-113827 1001 L-113266 1001 L-112483 1001 L-104979 1001 L-103381 1001 L-101807 1001 L-98622 1001 L-94289 1001 L-85719 1001 L-76973 1001 L-73899 1001 L-70633 1000 L-70086 1000 L-62949 1000 L-57281 1000 L-43217 1000 L-37205 1000 L-32499 1000 L-28496 1000 L-23388 1000 L-13674 1000 L1895 999 L4978 999 L5280 953 L5300 895 L5319 830 L5338 758 L5358 724 L5377 696 L5396 671 L5423 645 L5444 621 L5472 594 L5507 566 L5521 541 L5534 520 L5553 503 L5571 490 L5591 477 L5609 464 L5629 451 L5649 438 L5670 424 L5687 410 L5705 397 L5726 385 L5746 372 L5764 358 L5783 344 L5803 329 L5823 315 L5841 301 L5860 288 L5881 275 L5906 262 L5921 250 L5938 238 L5958 226 L5977 215 L5996 202 L6015 189 L6035 177 L6056 165 L6074 154 L6092 143 L6113 133 L6134 123 L6151 115 L6170 107 L6190 99 L6209 92 L6228 85 L6247 78 L6267 72 L6287 67 L6306 61 L6324 56 L6352 49 L6373 42 L6400 34 L6435 25 L6449 17 L6462 11 L6480 5 L6500 0" />
</svg>
