<svg xmlns="http://www.w3.org/2000/svg" version="1.1" viewBox="0 0 6500 1000">
	<path fill="none" stroke="gold" stroke-width="125" stroke-linecap="round" stroke-linejoin="round" d="M0 3647  L-722510 3647 L-719906 3647 L-718238 3647 L-699908 3646 L-699738 3646 L-692580 3646 L-692547 3646 L-679116 3645 L-676194 3646 L-662854 3645 L-658685 3644 L-657525 3643 L-656905 3643 L-654894 3642 L-651122 3642 L-650522 3641 L-650193 3641 L-649980 3641 L-649438 3640 L-648200 3639 L-647021 3638 L-644157 3636 L-643635 3635 L-638779 3634 L-635842 3634 L-635799 3634 L-635491 3633 L-635239 3633 L-632644 3633 L-628388 3633 L-628370 3633 L-627134 3633 L-625256 3633 L-623303 3632 L-622355 3632 L-622084 3632 L-621774 3631 L-621676 3631 L-620846 3631 L-618815 3631 L-618524 3630 L-616378 3629 L-616223 3628 L-612566 3627 L-612315 3628 L-612217 3627 L-611699 3628 L-609548 3629 L-608619 3630 L-607093 3631 L-605854 3631 L-604307 3630 L-601346 3630 L-600224 3630 L-599915 3629 L-598703 3629 L-595697 3631 L-595677 3631 L-595330 3631 L-595117 3631 L-594990 3628 L-594749 3628 L-594711 3627 L-594691 3627 L-594672 3627 L-594613 3626 L-594554 3626 L-594536 3626 L-594093 3625 L-592854 3625 L-591308 3625 L-587920 3624 L-582194 3624 L-581993 3624 L-580357 3624 L-578635 3624 L-577203 3623 L-576970 3623 L-576255 3623 L-570123 3623 L-569755 3623 L-569601 3622 L-569022 3622 L-568730 3622 L-567763 3621 L-567453 3621 L-566854 3620 L-565248 3620 L-564513 3620 L-564203 3621 L-563434 3621 L-561398 3620 L-560973 3620 L-560160 3620 L-552732 3619 L-552209 3619 L-552035 3619 L-551300 3618 L-549733 3618 L-549327 3618 L-547102 3618 L-546154 3617 L-545729 3617 L-545399 3617 L-544355 3617 L-542247 3617 L-541995 3616 L-541376 3616 L-540563 3616 L-538455 3615 L-538407 3615 L-536478 3615 L-536153 3614 L-536018 3614 L-535515 3614 L-534102 3614 L-533599 3613 L-533077 3612 L-529517 3612 L-528782 3611 L-526358 3611 L-525068 3611 L-524661 3610 L-521509 3610 L-521354 3610 L-521334 3611 L-520967 3611 L-519709 3611 L-518994 3611 L-518104 3611 L-517697 3611 L-516768 3611 L-515660 3611 L-515356 3611 L-509108 3612 L-508160 3612 L-506534 3612 L-506032 3613 L-502357 3613 L-501524 3613 L-497571 3613 L-496159 3613 L-493670 3612 L-492994 3612 L-492955 3612 L-492084 3612 L-488873 3612 L-486010 3611 L-485042 3611 L-483920 3611 L-483901 3611 L-482276 3610 L-481812 3610 L-481720 3610 L-475351 3609 L-474403 3609 L-471945 3609 L-471073 3609 L-469837 3608 L-467836 3608 L-467438 3608 L-466002 3608 L-463976 3607 L-463763 3607 L-462583 3607 L-461074 3607 L-461054 3607 L-459042 3606 L-458172 3606 L-457301 3606 L-456716 3606 L-456179 3605 L-455522 3605 L-454283 3604 L-453723 3604 L-452542 3604 L-451304 3604 L-451266 3604 L-450879 3604 L-450337 3603 L-449563 3603 L-448441 3603 L-446352 3603 L-446019 3602 L-445733 3602 L-444804 3602 L-444321 3601 L-443586 3601 L-439954 3601 L-438827 3601 L-438672 3601 L-437646 3600 L-433931 3600 L-432714 3600 L-430895 3599 L-428110 3599 L-427548 3599 L-423660 3599 L-421184 3599 L-419849 3599 L-419346 3599 L-418862 3598 L-416173 3598 L-412401 3598 L-409944 3598 L-408764 3598 L-408125 3598 L-405766 3598 L-405688 3598 L-404641 3597 L-404547 3597 L-404044 3597 L-403599 3597 L-403541 3597 L-403328 3597 L-400368 3597 L-397660 3597 L-397506 3596 L-393985 3596 L-393462 3596 L-392495 3596 L-392145 3595 L-391102 3595 L-390173 3595 L-389748 3595 L-388239 3595 L-387272 3594 L-387253 3594 L-385357 3581 L-385241 3568 L-385193 3556 L-385168 3543 L-382164 3542 L-380134 3542 L-378373 3542 L-378006 3542 L-377560 3541 L-377193 3541 L-376779 3541 L-374794 3541 L-374581 3541 L-374426 3541 L-372821 3541 L-371699 3540 L-370751 3540 L-369494 3540 L-367849 3540 L-366669 3539 L-360080 3539 L-360033 3539 L-359628 3539 L-358582 3539 L-358447 3538 L-356764 3538 L-356745 3538 L-355408 3538 L-354172 3537 L-354017 3537 L-353643 3537 L-353437 3537 L-353128 3537 L-352354 3536 L-350032 3536 L-349375 3536 L-347247 3536 L-345524 3535 L-345331 3535 L-342778 3535 L-342501 3535 L-342313 3534 L-341481 3534 L-340708 3534 L-340010 3534 L-335009 3534 L-334634 3533 L-330381 3533 L-329894 3550 L-329874 3550 L-329795 3550 L-329720 3550 L-329700 3532 L-328887 3532 L-328134 3532 L-326914 3532 L-325483 3532 L-325386 3531 L-325212 3531 L-324857 3531 L-323548 3531 L-321691 3531 L-319989 3530 L-319486 3530 L-319220 3530 L-318827 3530 L-318693 3530 L-317783 3530 L-317407 3529 L-316478 3529 L-316139 3529 L-316100 3529 L-316062 3529 L-314147 3529 L-313973 3529 L-312444 3529 L-312116 3529 L-312000 3529 L-311593 3528 L-311245 3528 L-309601 3528 L-309050 3527 L-308807 3527 L-308265 3527 L-307434 3527 L-306892 3527 L-305358 3526 L-305266 3526 L-305229 3526 L-305093 3526 L-304706 3526 L-303681 3525 L-301804 3525 L-301708 3525 L-301108 3531 L-300741 3537 L-300256 3543 L-300218 3549 L-299444 3549 L-299387 3549 L-299212 3548 L-299019 3548 L-297413 3548 L-297393 3548 L-297238 3548 L-297123 3548 L-295943 3548 L-295788 3549 L-295121 3549 L-292673 3563 L-290158 3578 L-287489 3592 L-279789 3606 L-274122 3606 L-271907 3606 L-271884 3606 L-270910 3609 L-270890 3609 L-270026 3609 L-267286 3609 L-261488 3605 L-261334 3605 L-258548 3605 L-244940 3604 L-244194 3604 L-239783 3604 L-223437 3604 L-223205 3603 L-222668 3603 L-214208 3603 L-205503 3603 L-205291 3603 L-203318 3602 L-200532 3602 L-196044 3603 L-195890 3602 L-195720 3602 L-195580 3602 L-195289 3602 L-195251 3602 L-194980 3602 L-194808 3601 L-194398 3601 L-193278 3601 L-192097 3601 L-190820 3601 L-187957 3600 L-185036 3600 L-183044 3600 L-181497 3600 L-178459 3600 L-169134 3599 L-168610 3599 L-162886 3599 L-161379 3599 L-160565 3599 L-158881 3599 L-158160 3599 L-157992 3598 L-156947 3598 L-154879 3598 L-153517 3598 L-149074 3598 L-148977 3597 L-148938 3597 L-148919 3597 L-148087 3597 L-148009 3597 L-145437 3596 L-142187 3596 L-142032 3596 L-141084 3596 L-139343 3596 L-138628 3597 L-135087 3597 L-128510 3599 L-127092 3600 L-127071 3600 L-126121 3600 L-122647 3599 L-121893 3599 L-121332 3599 L-120550 3599 L-113045 3599 L-111447 3598 L-109873 3598 L-106688 3598 L-102355 3598 L-93785 3598 L-85039 3598 L-81965 3597 L-78699 3597 L-78152 3597 L-71015 3597 L-65347 3597 L-51283 3597 L-45272 3597 L-40565 3597 L-36562 3596 L-31455 3596 L-21741 3596 L-6170 3596 L-3087 3595 L-2785 3517 L-2765 3420 L-2747 3311 L-2727 3188 L-2707 3132 L-2688 3085 L-2669 3042 L-2642 2999 L-2621 2958 L-2593 2914 L-2558 2865 L-2544 2824 L-2531 2789 L-2512 2760 L-2494 2738 L-2474 2716 L-2456 2694 L-2436 2672 L-2416 2649 L-2395 2626 L-2378 2603 L-2360 2581 L-2339 2560 L-2319 2538 L-2301 2515 L-2282 2491 L-2262 2466 L-2242 2442 L-2224 2419 L-2205 2397 L-2184 2376 L-2159 2354 L-2144 2334 L-2127 2314 L-2108 2294 L-2088 2274 L-2069 2252 L-2050 2231 L-2030 2210 L-2009 2190 L-1992 2171 L-1973 2153 L-1952 2136 L-1932 2120 L-1914 2106 L-1895 2093 L-1875 2080 L-1857 2067 L-1837 2055 L-1818 2044 L-1798 2034 L-1779 2025 L-1759 2016 L-1741 2006 L-1713 1995 L-1692 1982 L-1665 1969 L-1631 1954 L-1616 1941 L-1603 1931 L-1585 1921 L-1566 1912 L-1546 1903 L-1527 1893 L-1508 1883 L-1488 1873 L-1467 1863 L-1450 1855 L-1431 1845 L-1411 1836 L-1391 1825 L-1372 1812 L-1354 1799 L-1334 1786 L-1314 1772 L-1295 1758 L-1276 1744 L-1255 1728 L-1231 1711 L-1216 1694 L-1199 1678 L-1179 1662 L-1160 1647 L-1140 1630 L-1122 1613 L-1102 1596 L-1081 1579 L-1063 1564 L-1044 1548 L-1024 1533 L-1004 1518 L-986 1504 L-967 1492 L-947 1478 L-928 1467 L-908 1456 L-890 1444 L-870 1433 L-850 1421 L-831 1409 L-812 1398 L-783 1386 L-764 1376 L-736 1365 L-699 1352 L-684 1339 L-671 1327 L-654 1317 L-637 1309 L-617 1301 L-599 1294 L-579 1288 L-559 1282 L-539 1275 L-521 1267 L-503 1260 L-482 1252 L-462 1243 L-444 1234 L-425 1225 L-405 1215 L-386 1205 L-367 1194 L-348 1184 L-327 1174 L-302 1164 L-288 1154 L-271 1144 L-251 1133 L-232 1123 L-212 1112 L-193 1101 L-173 1090 L-153 1079 L-134 1069 L-116 1059 L-95 1049 L-75 1040 L-57 1032 L-38 1023 L-18 1014 L0 1006 L19 997 L38 989 L58 980 L77 972 L97 964 L116 956 L144 948 L164 940 L192 930 L228 917 L242 905 L255 894 L273 884 L291 878 L311 871 L329 863 L349 855 L369 846 L390 836 L408 826 L425 815 L446 804 L466 792 L484 779 L503 766 L523 753 L543 740 L561 729 L580 719 L601 712 L626 705 L641 699 L658 693 L677 686 L697 679 L716 672 L735 665 L755 659 L776 654 L793 649 L812 643 L833 635 L853 626 L870 618 L889 611 L910 606 L928 602 L948 598 L967 594 L987 590 L1006 585 L1025 580 L1044 576 L1072 571 L1092 567 L1120 563 L1155 557 L1169 552 L1182 548 L1201 544 L1219 540 L1239 537 L1258 533 L1277 530 L1297 527 L1318 524 L1335 520 L1354 517 L1374 513 L1394 509 L1412 504 L1431 501 L1451 498 L1471 494 L1490 491 L1508 488 L1530 484 L1555 481 L1569 478 L1586 475 L1606 472 L1625 469 L1644 465 L1663 462 L1683 458 L1704 454 L1722 451 L1741 448 L1761 444 L1782 441 L1799 438 L1818 435 L1838 432 L1857 429 L1877 426 L1895 424 L1915 422 L1935 420 L1954 418 L1973 422 L2001 425 L2021 429 L2049 432 L2086 429 L2102 426 L2114 424 L2132 422 L2148 420 L2168 418 L2186 416 L2206 414 L2226 412 L2247 411 L2264 409 L2282 407 L2303 405 L2323 403 L2341 401 L2360 399 L2380 397 L2400 395 L2418 393 L2437 391 L2458 389 L2483 388 L2497 386 L2515 384 L2534 382 L2554 380 L2573 378 L2592 376 L2612 373 L2633 370 L2650 367 L2669 365 L2690 362 L2710 360 L2728 357 L2747 355 L2766 352 L2785 350 L2805 347 L2824 345 L2844 342 L2863 340 L2883 338 L2901 336 L2929 334 L2949 331 L2977 329 L3012 326 L3026 324 L3039 322 L3058 319 L3076 317 L3097 315 L3115 313 L3134 311 L3154 309 L3175 307 L3192 305 L3211 303 L3231 300 L3251 298 L3270 295 L3288 291 L3308 288 L3329 285 L3347 281 L3365 279 L3387 276 L3412 273 L3426 270 L3444 266 L3463 263 L3482 260 L3501 257 L3521 254 L3541 251 L3561 248 L3579 245 L3598 243 L3618 240 L3639 237 L3656 235 L3675 233 L3695 231 L3714 229 L3734 227 L3752 226 L3772 224 L3792 223 L3811 221 L3830 220 L3857 218 L3878 216 L3906 215 L3941 211 L3955 208 L3968 205 L3987 202 L4005 200 L4025 199 L4043 197 L4063 195 L4083 193 L4104 191 L4121 189 L4139 186 L4160 184 L4180 182 L4198 179 L4217 177 L4237 174 L4257 172 L4275 169 L4294 167 L4315 166 L4340 164 L4355 162 L4372 160 L4391 157 L4411 155 L4430 153 L4449 150 L4469 147 L4490 143 L4507 140 L4526 137 L4547 135 L4568 132 L4585 130 L4604 129 L4624 127 L4643 126 L4662 125 L4681 123 L4701 121 L4720 120 L4740 118 L4758 117 L4786 115 L4807 114 L4834 112 L4869 111 L4883 110 L4896 108 L4915 107 L4933 106 L4953 105 L4972 103 L4991 102 L5011 102 L5032 100 L5049 99 L5068 98 L5088 97 L5108 95 L5126 94 L5145 93 L5165 92 L5185 91 L5204 90 L5223 89 L5244 88 L5268 87 L5283 86 L5300 85 L5320 83 L5339 82 L5359 81 L5377 80 L5397 79 L5418 76 L5436 74 L5455 72 L5475 69 L5496 67 L5513 65 L5532 64 L5552 62 L5571 60 L5591 59 L5609 57 L5629 56 L5649 54 L5668 53 L5687 52 L5716 51 L5763 50 L5800 49 L5815 47 L5828 46 L5845 45 L5862 44 L5882 44 L5900 43 L5920 42 L5940 41 L5960 40 L5978 39 L5996 39 L6017 38 L6036 37 L6055 36 L6074 35 L6094 34 L6114 33 L6132 31 L6151 30 L6172 28 L6197 26 L6211 24 L6229 22 L6248 20 L6267 19 L6287 17 L6306 16 L6326 14 L6347 12 L6364 10 L6383 9 L6404 7 L6424 6 L6442 5 L6461 4 L6481 2 L6500 1" />
</svg>
