<svg xmlns="http://www.w3.org/2000/svg" version="1.1" viewBox="0 0 6500 1000">
	<path fill="none" stroke="gold" stroke-width="125" stroke-linecap="round" stroke-linejoin="round" d="M0 512812  L-88876 512812 L-86272 506562 L-84604 500312 L-66274 487812 L-66104 475312 L-58946 462812 L-58913 462812 L-45482 456562 L-42560 462812 L-29219 444062 L-25050 419062 L-23890 387812 L-23271 356562 L-21259 337812 L-17488 325312 L-16888 312812 L-16559 300312 L-16346 287812 L-15804 275312 L-14566 225312 L-13387 175312 L-10523 125312 L-10001 75312 L-5145 62812 L-2208 50312 L-2165 37812 L-1857 25312 L-1605 12812 L989 312 L5245 312 L5263 312 L6500 312" />
</svg>
