<svg xmlns="http://www.w3.org/2000/svg" version="1.1" viewBox="0 0 6500 1000">
	<path fill="none" stroke="gold" stroke-width="125" stroke-linecap="round" stroke-linejoin="round" d="M0 1016  L-717405 1016 L-714801 1016 L-713133 1016 L-694803 1016 L-694633 1016 L-687475 1016 L-687442 1016 L-674011 1016 L-671089 1016 L-657748 1016 L-653579 1015 L-652419 1015 L-651800 1015 L-649788 1015 L-646017 1014 L-645416 1014 L-645088 1014 L-644875 1014 L-644333 1014 L-643095 1014 L-641916 1013 L-639052 1013 L-638529 1012 L-633674 1012 L-630737 1012 L-630694 1012 L-630385 1012 L-630134 1012 L-627539 1012 L-623283 1012 L-623265 1012 L-622028 1012 L-620151 1012 L-618197 1011 L-617249 1011 L-616979 1011 L-616669 1011 L-616571 1011 L-615740 1011 L-613710 1011 L-613419 1011 L-611273 1010 L-611117 1010 L-607461 1010 L-607210 1010 L-607111 1010 L-606594 1010 L-604443 1010 L-603514 1011 L-601988 1011 L-600749 1011 L-599202 1011 L-596240 1011 L-595119 1011 L-594809 1010 L-593598 1010 L-590591 1011 L-590572 1011 L-590224 1011 L-590011 1011 L-589885 1010 L-589644 1010 L-589606 1010 L-589586 1010 L-589567 1010 L-589508 1010 L-589449 1009 L-589431 1009 L-588988 1009 L-587749 1009 L-586203 1009 L-582815 1009 L-577089 1009 L-576887 1009 L-575252 1009 L-573530 1009 L-572098 1009 L-571865 1009 L-571150 1008 L-565018 1008 L-564650 1008 L-564496 1008 L-563917 1008 L-563625 1008 L-562657 1008 L-562348 1008 L-561749 1008 L-560142 1008 L-559407 1008 L-559097 1008 L-558329 1008 L-556293 1008 L-555868 1007 L-555055 1007 L-547627 1007 L-547104 1007 L-546930 1007 L-546195 1007 L-544627 1007 L-544222 1007 L-541997 1007 L-541049 1007 L-540624 1007 L-540293 1007 L-539250 1006 L-537142 1006 L-536889 1006 L-536271 1006 L-535458 1006 L-533350 1006 L-533301 1006 L-531373 1006 L-531047 1006 L-530912 1006 L-530409 1005 L-528997 1005 L-528494 1005 L-527972 1005 L-524412 1005 L-523677 1005 L-521252 1005 L-519963 1004 L-519556 1004 L-516403 1004 L-516249 1004 L-516228 1004 L-515862 1004 L-514604 1004 L-513889 1005 L-512999 1005 L-512592 1005 L-511663 1005 L-510555 1004 L-510251 1005 L-504002 1005 L-503055 1005 L-501429 1005 L-500927 1005 L-497251 1005 L-496419 1005 L-492466 1005 L-491054 1005 L-488565 1005 L-487888 1005 L-487850 1005 L-486979 1005 L-483768 1005 L-480905 1005 L-479937 1005 L-478815 1005 L-478796 1004 L-477171 1004 L-476707 1004 L-476615 1004 L-470246 1004 L-469297 1004 L-466840 1004 L-465968 1004 L-464732 1004 L-462731 1004 L-462333 1004 L-460897 1003 L-458871 1003 L-458657 1003 L-457477 1003 L-455969 1003 L-455949 1003 L-453936 1003 L-453067 1003 L-452196 1003 L-451611 1003 L-451074 1003 L-450416 1003 L-449178 1002 L-448618 1002 L-447437 1002 L-446199 1002 L-446160 1002 L-445773 1002 L-445232 1002 L-444458 1002 L-443336 1002 L-441247 1002 L-440913 1002 L-440628 1002 L-439699 1002 L-439216 1001 L-438480 1001 L-434849 1001 L-433722 1001 L-433567 1001 L-432541 1001 L-428826 1001 L-427609 1001 L-425790 1001 L-423005 1001 L-422443 1001 L-418555 1001 L-416079 1001 L-414744 1001 L-414240 1000 L-413757 1000 L-411068 1000 L-407296 1000 L-404839 1000 L-403659 1000 L-403020 1000 L-400660 1000 L-400583 1000 L-399536 1000 L-399442 1000 L-398939 1000 L-398494 1000 L-398436 1000 L-398222 1000 L-395263 1000 L-392555 1000 L-392400 1000 L-388880 1000 L-388357 1000 L-387389 1000 L-387040 999 L-385997 999 L-385068 999 L-384642 999 L-383133 999 L-382166 999 L-382147 999 L-380251 995 L-380136 991 L-380088 987 L-380063 982 L-377059 982 L-375028 982 L-373268 982 L-372900 982 L-372455 982 L-372088 982 L-371674 982 L-369689 982 L-369476 982 L-369321 982 L-367716 982 L-366594 982 L-365646 982 L-364388 981 L-362744 981 L-361564 981 L-354975 981 L-354928 981 L-354522 981 L-353477 981 L-353342 981 L-351659 981 L-351639 981 L-350302 981 L-349066 981 L-348912 981 L-348538 981 L-348332 980 L-348022 980 L-347249 980 L-344927 980 L-344269 980 L-342142 980 L-340419 980 L-340226 980 L-337672 980 L-337396 980 L-337208 980 L-336375 980 L-335603 980 L-334905 980 L-329904 980 L-329528 979 L-325275 979 L-324788 985 L-324769 985 L-324690 985 L-324615 985 L-324595 979 L-323782 979 L-323028 979 L-321809 979 L-320377 979 L-320281 979 L-320107 979 L-319752 979 L-318443 979 L-316586 979 L-314883 978 L-314381 978 L-314115 978 L-313722 978 L-313588 978 L-312678 978 L-312302 978 L-311373 978 L-311034 978 L-310994 978 L-310957 978 L-309041 978 L-308868 978 L-307339 978 L-307011 978 L-306895 978 L-306487 978 L-306139 978 L-304496 978 L-303945 977 L-303702 977 L-303160 977 L-302329 977 L-301787 977 L-300253 977 L-300160 977 L-300124 977 L-299988 977 L-299600 977 L-298576 977 L-296699 977 L-296603 977 L-296003 978 L-295635 980 L-295151 982 L-295113 984 L-294339 984 L-294281 984 L-294107 984 L-293913 984 L-292308 984 L-292288 984 L-292133 984 L-292018 984 L-290838 984 L-290683 984 L-290016 984 L-287568 989 L-285053 994 L-282383 998 L-274684 1003 L-269016 1003 L-266802 1003 L-266779 1003 L-265805 1004 L-265785 1004 L-264921 1004 L-262181 1004 L-256382 1003 L-256229 1003 L-253443 1002 L-239835 1002 L-239089 1002 L-234678 1002 L-218332 1002 L-218100 1002 L-217563 1002 L-209103 1002 L-200398 1002 L-200185 1002 L-198213 1002 L-195427 1002 L-190939 1002 L-190784 1002 L-190615 1002 L-190475 1002 L-190184 1002 L-190145 1002 L-189875 1001 L-189703 1001 L-189293 1001 L-188172 1001 L-186992 1001 L-185715 1001 L-182851 1001 L-179931 1001 L-177939 1001 L-176391 1001 L-173353 1001 L-164029 1001 L-163505 1001 L-157781 1001 L-156274 1001 L-155460 1001 L-153776 1001 L-153055 1000 L-152886 1000 L-151841 1000 L-149774 1000 L-148412 1000 L-143969 1000 L-143872 1000 L-143833 1000 L-143814 1000 L-142981 1000 L-142904 1000 L-140331 1000 L-137082 1000 L-136927 1000 L-135979 1000 L-134238 1000 L-133522 1000 L-129982 1000 L-123404 1000 L-121987 1001 L-121966 1001 L-121016 1001 L-117541 1001 L-116788 1001 L-116226 1001 L-115444 1001 L-107940 1000 L-106342 1000 L-104768 1000 L-101583 1000 L-97249 1000 L-88680 1000 L-79933 1000 L-76860 1000 L-73594 1000 L-73047 1000 L-65910 1000 L-60242 1000 L-46178 1000 L-40166 1000 L-35460 1000 L-31457 1000 L-26349 1000 L-16635 1000 L-1065 1000 L2017 999 L2319 974 L2339 943 L2358 907 L2377 868 L2397 850 L2416 834 L2435 820 L2463 806 L2483 793 L2511 779 L2547 763 L2560 750 L2573 738 L2592 729 L2610 722 L2630 715 L2648 708 L2668 700 L2688 693 L2709 686 L2726 678 L2744 671 L2765 664 L2785 657 L2803 650 L2822 642 L2842 634 L2862 626 L2880 619 L2899 611 L2921 605 L2945 598 L2960 591 L2977 585 L2997 578 L3016 572 L3035 565 L3054 558 L3074 551 L3095 544 L3113 538 L3132 532 L3152 527 L3173 522 L3190 517 L3209 513 L3229 509 L3248 505 L3267 501 L3286 497 L3306 494 L3326 491 L3345 488 L3364 485 L3391 481 L3412 477 L3440 473 L3474 468 L3488 464 L3501 460 L3520 457 L3539 455 L3559 452 L3577 448 L3596 445 L3616 442 L3637 439 L3654 436 L3673 433 L3693 430 L3713 426 L3732 422 L3750 418 L3770 414 L3790 409 L3809 405 L3828 400 L3849 395 L3873 389 L3888 384 L3905 379 L3925 374 L3944 368 L3964 363 L3983 357 L4003 352 L4023 347 L4041 342 L4060 337 L4080 332 L4101 327 L4118 322 L4137 318 L4157 314 L4176 310 L4196 307 L4215 303 L4235 299 L4254 295 L4273 292 L4292 288 L4321 284 L4341 281 L4368 277 L4406 273 L4421 269 L4433 265 L4450 262 L4467 259 L4487 257 L4506 254 L4525 252 L4545 250 L4566 248 L4583 246 L4602 243 L4622 241 L4642 238 L4660 235 L4679 232 L4699 229 L4719 225 L4738 222 L4756 219 L4777 216 L4802 212 L4816 209 L4834 206 L4854 202 L4873 199 L4892 195 L4911 192 L4931 188 L4951 185 L4970 181 L4989 178 L5009 175 L5029 172 L5047 169 L5066 167 L5086 164 L5105 161 L5124 158 L5143 155 L5163 153 L5182 150 L5202 148 L5221 145 L5249 142 L5269 140 L5297 137 L5333 132 L5347 128 L5360 125 L5378 122 L5396 120 L5416 117 L5434 115 L5454 112 L5474 109 L5495 106 L5513 103 L5530 99 L5551 96 L5571 92 L5589 88 L5608 83 L5628 79 L5648 75 L5666 71 L5685 68 L5706 66 L5731 64 L5746 62 L5763 60 L5782 57 L5802 55 L5821 53 L5840 51 L5860 49 L5881 47 L5898 45 L5917 43 L5938 41 L5959 38 L5975 35 L5995 33 L6015 32 L6033 30 L6053 29 L6072 28 L6092 26 L6111 25 L6131 23 L6149 22 L6177 20 L6198 19 L6225 17 L6260 16 L6274 14 L6287 13 L6306 11 L6325 10 L6344 9 L6363 8 L6382 7 L6402 6 L6423 5 L6440 4 L6459 3 L6480 1 L6500 0" />
</svg>
