<svg xmlns="http://www.w3.org/2000/svg" version="1.1" viewBox="0 0 6500 1000">
	<path fill="none" stroke="gold" stroke-width="125" stroke-linecap="round" stroke-linejoin="round" d="M0 3202  L-729514 3202 L-726910 3202 L-725242 3201 L-706912 3201 L-706742 3201 L-699584 3201 L-699551 3201 L-686120 3200 L-683198 3201 L-669858 3200 L-665689 3200 L-664529 3199 L-663909 3198 L-661898 3198 L-658126 3198 L-657526 3197 L-657197 3197 L-656984 3197 L-656442 3197 L-655204 3195 L-654025 3194 L-651161 3193 L-650639 3192 L-645783 3192 L-642846 3192 L-642803 3191 L-642495 3191 L-642243 3191 L-639648 3190 L-635392 3190 L-635374 3190 L-634138 3190 L-632260 3190 L-630307 3190 L-629359 3190 L-629088 3190 L-628778 3190 L-628680 3189 L-627850 3189 L-625819 3190 L-625528 3188 L-623382 3188 L-623227 3187 L-619570 3186 L-619319 3187 L-619221 3186 L-618703 3187 L-616552 3187 L-615623 3188 L-614097 3189 L-612858 3189 L-611311 3189 L-608350 3188 L-607228 3188 L-606919 3188 L-605707 3188 L-602701 3189 L-602681 3189 L-602334 3189 L-602121 3189 L-601994 3187 L-601753 3187 L-601715 3186 L-601695 3186 L-601676 3186 L-601617 3186 L-601558 3185 L-601540 3185 L-601097 3185 L-599858 3184 L-598312 3184 L-594924 3184 L-589198 3184 L-588997 3184 L-587361 3184 L-585639 3183 L-584207 3183 L-583974 3183 L-583259 3183 L-577127 3183 L-576759 3183 L-576605 3182 L-576026 3182 L-575734 3182 L-574766 3181 L-574457 3181 L-573858 3181 L-572252 3181 L-571517 3181 L-571207 3181 L-570438 3181 L-568402 3181 L-567977 3181 L-567164 3180 L-559736 3180 L-559213 3180 L-559039 3180 L-558304 3179 L-556737 3179 L-556331 3179 L-554106 3179 L-553158 3178 L-552733 3178 L-552403 3178 L-551359 3178 L-549251 3178 L-548999 3178 L-548380 3177 L-547567 3177 L-545459 3177 L-545411 3177 L-543482 3176 L-543157 3176 L-543022 3176 L-542519 3176 L-541106 3175 L-540603 3175 L-540081 3174 L-536521 3174 L-535786 3173 L-533362 3173 L-532072 3173 L-531665 3173 L-528513 3173 L-528358 3173 L-528338 3173 L-527971 3173 L-526713 3173 L-525998 3173 L-525108 3173 L-524701 3173 L-523772 3173 L-522664 3173 L-522360 3174 L-516112 3174 L-515164 3174 L-513538 3175 L-513036 3175 L-509361 3175 L-508528 3175 L-504575 3175 L-503163 3175 L-500674 3174 L-499998 3174 L-499959 3174 L-499088 3174 L-495877 3174 L-493014 3174 L-492046 3174 L-490924 3173 L-490905 3173 L-489280 3173 L-488816 3172 L-488724 3172 L-482355 3172 L-481407 3172 L-478949 3172 L-478077 3172 L-476841 3171 L-474840 3171 L-474442 3171 L-473006 3171 L-470980 3171 L-470767 3170 L-469586 3170 L-468078 3170 L-468058 3170 L-466046 3170 L-465176 3170 L-464305 3169 L-463720 3169 L-463183 3169 L-462526 3169 L-461287 3168 L-460727 3168 L-459546 3168 L-458308 3168 L-458270 3168 L-457883 3168 L-457341 3167 L-456567 3167 L-455445 3167 L-453356 3167 L-453023 3167 L-452737 3166 L-451808 3166 L-451325 3166 L-450590 3166 L-446958 3166 L-445831 3165 L-445676 3165 L-444650 3165 L-440935 3165 L-439718 3165 L-437899 3164 L-435114 3164 L-434552 3164 L-430664 3164 L-428188 3164 L-426853 3164 L-426350 3164 L-425866 3164 L-423177 3164 L-419405 3164 L-416948 3164 L-415768 3164 L-415129 3163 L-412770 3163 L-412692 3163 L-411645 3163 L-411551 3163 L-411048 3163 L-410603 3163 L-410545 3163 L-410332 3163 L-407372 3162 L-404664 3162 L-404510 3162 L-400989 3162 L-400466 3162 L-399499 3161 L-399149 3161 L-398106 3161 L-397177 3161 L-396752 3161 L-395243 3161 L-394276 3160 L-394257 3160 L-392361 3150 L-392245 3140 L-392197 3130 L-392172 3120 L-389168 3120 L-387138 3119 L-385377 3119 L-385010 3119 L-384564 3119 L-384197 3119 L-383783 3118 L-381798 3118 L-381585 3118 L-381430 3118 L-379825 3118 L-378703 3118 L-377755 3118 L-376498 3118 L-374853 3117 L-373673 3117 L-367084 3117 L-367037 3117 L-366632 3117 L-365586 3117 L-365451 3116 L-363768 3116 L-363749 3116 L-362412 3116 L-361176 3116 L-361021 3116 L-360647 3115 L-360441 3115 L-360132 3115 L-359358 3115 L-357036 3115 L-356379 3114 L-354251 3114 L-352528 3114 L-352335 3114 L-349782 3114 L-349505 3113 L-349317 3113 L-348485 3113 L-347712 3113 L-347014 3113 L-342013 3113 L-341638 3113 L-337385 3112 L-336898 3126 L-336878 3126 L-336799 3126 L-336724 3126 L-336704 3112 L-335891 3112 L-335138 3111 L-333918 3111 L-332487 3111 L-332390 3111 L-332216 3111 L-331861 3111 L-330552 3111 L-328695 3110 L-326993 3110 L-326490 3110 L-326224 3110 L-325831 3110 L-325697 3110 L-324787 3110 L-324411 3109 L-323482 3109 L-323143 3109 L-323104 3109 L-323066 3109 L-321150 3109 L-320977 3109 L-319448 3109 L-319120 3109 L-319004 3109 L-318597 3108 L-318249 3108 L-316605 3108 L-316054 3108 L-315811 3108 L-315269 3108 L-314438 3107 L-313896 3107 L-312362 3107 L-312270 3107 L-312233 3107 L-312097 3107 L-311710 3106 L-310685 3106 L-308808 3106 L-308712 3106 L-308112 3110 L-307745 3115 L-307260 3120 L-307222 3124 L-306448 3125 L-306391 3125 L-306216 3124 L-306023 3124 L-304417 3124 L-304397 3124 L-304242 3124 L-304127 3124 L-302947 3124 L-302792 3125 L-302125 3125 L-299677 3136 L-297162 3147 L-294493 3158 L-286793 3170 L-281126 3170 L-278911 3169 L-278888 3169 L-277914 3172 L-277894 3172 L-277030 3172 L-274290 3172 L-268492 3169 L-268338 3169 L-265552 3168 L-251944 3168 L-251198 3168 L-246787 3168 L-230441 3168 L-230209 3167 L-229672 3167 L-221212 3167 L-212507 3167 L-212295 3167 L-210322 3167 L-207536 3167 L-203048 3167 L-202893 3167 L-202724 3167 L-202584 3167 L-202293 3166 L-202255 3166 L-201984 3166 L-201812 3166 L-201402 3166 L-200282 3166 L-199101 3165 L-197824 3165 L-194961 3165 L-192040 3165 L-190048 3165 L-188501 3165 L-185463 3165 L-176138 3164 L-175614 3164 L-169890 3164 L-168383 3164 L-167569 3164 L-165885 3164 L-165164 3164 L-164996 3164 L-163951 3163 L-161883 3163 L-160521 3163 L-156078 3163 L-155981 3163 L-155942 3163 L-155923 3163 L-155091 3162 L-155013 3162 L-152440 3162 L-149191 3162 L-149036 3162 L-148088 3162 L-146347 3161 L-145632 3162 L-142091 3163 L-135513 3164 L-134096 3165 L-134075 3165 L-133125 3165 L-129651 3164 L-128897 3164 L-128336 3164 L-127554 3164 L-120049 3164 L-118451 3164 L-116877 3163 L-113692 3163 L-109359 3163 L-100789 3163 L-92043 3163 L-88969 3163 L-85703 3163 L-85156 3162 L-78019 3162 L-72351 3162 L-58287 3162 L-52276 3162 L-47569 3162 L-43566 3162 L-38459 3162 L-28745 3162 L-13174 3161 L-10091 3161 L-9789 3100 L-9769 3024 L-9751 2938 L-9731 2842 L-9711 2798 L-9692 2761 L-9673 2727 L-9646 2693 L-9625 2660 L-9597 2626 L-9562 2588 L-9548 2556 L-9535 2528 L-9516 2505 L-9498 2488 L-9478 2471 L-9460 2453 L-9440 2436 L-9420 2418 L-9399 2400 L-9382 2382 L-9364 2365 L-9343 2348 L-9323 2331 L-9305 2313 L-9286 2294 L-9266 2275 L-9246 2256 L-9228 2237 L-9209 2220 L-9188 2203 L-9163 2187 L-9148 2171 L-9131 2155 L-9112 2139 L-9092 2124 L-9073 2107 L-9054 2090 L-9034 2073 L-9013 2058 L-8996 2043 L-8977 2029 L-8956 2016 L-8936 2003 L-8918 1992 L-8899 1981 L-8879 1971 L-8861 1961 L-8841 1952 L-8822 1943 L-8802 1935 L-8783 1928 L-8763 1921 L-8745 1913 L-8717 1904 L-8696 1895 L-8669 1884 L-8635 1872 L-8620 1863 L-8607 1854 L-8589 1846 L-8570 1840 L-8550 1833 L-8531 1825 L-8512 1817 L-8492 1809 L-8471 1801 L-8454 1794 L-8435 1787 L-8415 1779 L-8395 1771 L-8376 1761 L-8358 1751 L-8338 1740 L-8318 1729 L-8299 1719 L-8280 1707 L-8259 1695 L-8235 1682 L-8220 1668 L-8203 1656 L-8183 1643 L-8164 1631 L-8144 1618 L-8126 1604 L-8106 1591 L-8085 1578 L-8067 1566 L-8048 1554 L-8028 1542 L-8008 1530 L-7990 1519 L-7971 1509 L-7951 1499 L-7932 1490 L-7912 1481 L-7894 1472 L-7874 1463 L-7854 1454 L-7835 1445 L-7816 1436 L-7787 1427 L-7768 1418 L-7740 1410 L-7703 1399 L-7688 1390 L-7675 1380 L-7658 1372 L-7641 1366 L-7621 1360 L-7603 1354 L-7583 1349 L-7563 1344 L-7543 1339 L-7525 1333 L-7507 1327 L-7486 1321 L-7466 1314 L-7448 1307 L-7429 1300 L-7409 1292 L-7390 1284 L-7371 1276 L-7352 1268 L-7331 1260 L-7306 1252 L-7292 1244 L-7275 1236 L-7255 1228 L-7236 1220 L-7216 1211 L-7197 1202 L-7177 1194 L-7157 1186 L-7138 1177 L-7120 1170 L-7099 1162 L-7079 1155 L-7061 1148 L-7042 1141 L-7022 1135 L-7004 1128 L-6984 1121 L-6965 1114 L-6945 1108 L-6926 1102 L-6906 1095 L-6887 1089 L-6859 1083 L-6839 1076 L-6811 1069 L-6775 1058 L-6761 1049 L-6748 1040 L-6730 1032 L-6712 1027 L-6692 1022 L-6674 1016 L-6654 1009 L-6634 1002 L-6613 994 L-6595 986 L-6578 978 L-6557 969 L-6537 960 L-6519 950 L-6500 940 L-6480 929 L-6460 919 L-6442 910 L-6423 903 L-6402 897 L-6377 892 L-6362 887 L-6345 882 L-6326 877 L-6306 871 L-6287 866 L-6268 861 L-6248 856 L-6227 852 L-6210 848 L-6191 843 L-6170 837 L-6150 830 L-6133 823 L-6114 818 L-6093 814 L-6075 811 L-6055 808 L-6036 805 L-6016 801 L-5997 798 L-5978 794 L-5959 790 L-5931 787 L-5911 783 L-5883 780 L-5848 775 L-5834 771 L-5821 768 L-5802 765 L-5784 762 L-5764 760 L-5745 757 L-5726 754 L-5706 752 L-5685 749 L-5668 747 L-5649 744 L-5629 741 L-5609 738 L-5591 734 L-5572 731 L-5552 729 L-5532 726 L-5513 724 L-5495 721 L-5473 718 L-5448 716 L-5434 714 L-5417 711 L-5397 709 L-5378 706 L-5359 704 L-5340 701 L-5320 697 L-5299 695 L-5281 692 L-5262 689 L-5242 687 L-5221 685 L-5204 682 L-5185 680 L-5165 677 L-5146 675 L-5126 673 L-5108 671 L-5088 670 L-5068 668 L-5049 666 L-5030 669 L-5002 672 L-4982 675 L-4954 677 L-4917 675 L-4901 673 L-4889 671 L-4871 669 L-4855 668 L-4835 667 L-4817 665 L-4797 663 L-4777 662 L-4756 660 L-4739 659 L-4721 658 L-4700 656 L-4680 655 L-4662 653 L-4643 651 L-4623 650 L-4603 648 L-4585 647 L-4566 645 L-4545 644 L-4520 643 L-4506 641 L-4488 639 L-4469 638 L-4449 636 L-4430 635 L-4411 633 L-4391 631 L-4370 629 L-4353 626 L-4334 624 L-4313 622 L-4293 621 L-4275 619 L-4256 617 L-4237 615 L-4218 613 L-4198 611 L-4179 609 L-4159 607 L-4140 605 L-4120 603 L-4102 602 L-4074 600 L-4053 598 L-4026 596 L-3991 594 L-3977 592 L-3964 591 L-3945 589 L-3926 587 L-3906 586 L-3888 584 L-3869 583 L-3849 581 L-3828 579 L-3811 577 L-3792 576 L-3772 574 L-3752 572 L-3733 570 L-3715 567 L-3695 564 L-3674 562 L-3656 559 L-3638 557 L-3616 555 L-3591 552 L-3577 550 L-3559 547 L-3540 545 L-3520 543 L-3501 540 L-3482 538 L-3462 535 L-3442 533 L-3424 531 L-3405 529 L-3385 526 L-3364 525 L-3347 523 L-3328 521 L-3308 520 L-3289 518 L-3269 517 L-3251 515 L-3231 514 L-3211 513 L-3192 512 L-3173 511 L-3146 509 L-3125 508 L-3097 507 L-3062 504 L-3048 502 L-3035 499 L-3016 497 L-2998 496 L-2978 494 L-2960 492 L-2940 491 L-2920 490 L-2899 488 L-2882 486 L-2864 484 L-2843 483 L-2823 481 L-2805 479 L-2786 477 L-2766 475 L-2746 473 L-2728 471 L-2709 470 L-2688 468 L-2663 467 L-2648 465 L-2631 463 L-2612 462 L-2592 460 L-2573 458 L-2554 456 L-2534 453 L-2513 450 L-2496 448 L-2477 446 L-2456 444 L-2435 442 L-2418 441 L-2399 439 L-2379 438 L-2360 437 L-2341 436 L-2322 434 L-2302 433 L-2283 432 L-2263 431 L-2245 430 L-2217 429 L-2196 428 L-2169 426 L-2134 425 L-2120 424 L-2107 423 L-2088 422 L-2070 421 L-2050 420 L-2031 419 L-2012 418 L-1992 418 L-1971 417 L-1954 416 L-1935 415 L-1915 414 L-1895 413 L-1877 412 L-1858 411 L-1838 410 L-1818 409 L-1799 409 L-1780 408 L-1759 408 L-1735 407 L-1720 406 L-1703 405 L-1683 404 L-1664 403 L-1644 402 L-1626 401 L-1606 400 L-1585 398 L-1567 396 L-1548 394 L-1528 392 L-1507 391 L-1490 389 L-1471 388 L-1451 387 L-1432 386 L-1412 384 L-1394 383 L-1374 382 L-1354 381 L-1335 380 L-1316 379 L-1287 378 L-1240 377 L-1203 376 L-1188 375 L-1175 374 L-1158 373 L-1141 373 L-1121 373 L-1103 372 L-1083 371 L-1063 370 L-1043 370 L-1025 369 L-1007 368 L-986 368 L-967 367 L-948 366 L-929 365 L-909 364 L-889 364 L-871 363 L-852 361 L-831 360 L-806 359 L-792 357 L-774 356 L-755 354 L-736 353 L-716 351 L-697 350 L-677 349 L-656 348 L-638 346 L-620 345 L-599 344 L-579 343 L-561 342 L-542 341 L-522 340 L-503 339 L-484 338 L-465 337 L-445 336 L-426 335 L-406 334 L-387 333 L-359 332 L-339 331 L-311 329 L-274 327 L-260 325 L-247 323 L-230 322 L-212 321 L-192 319 L-174 319 L-154 318 L-134 317 L-113 316 L-96 315 L-78 314 L-57 313 L-37 311 L-19 310 L0 308 L19 305 L39 304 L57 302 L76 301 L97 299 L122 298 L137 296 L155 295 L173 294 L193 293 L212 292 L231 290 L251 288 L272 287 L289 285 L308 284 L329 283 L350 282 L366 281 L385 280 L405 279 L424 278 L444 276 L463 275 L483 274 L503 273 L521 273 L540 272 L568 997 L588 996 L616 995 L652 993 L666 265 L680 264 L697 263 L715 262 L735 261 L754 260 L773 260 L793 258 L814 257 L831 255 L850 254 L870 252 L890 251 L908 249 L928 247 L947 245 L968 243 L985 242 L1004 241 L1026 240 L1051 238 L1066 236 L1095 234 L1135 232 L1158 230 L1188 228 L1204 225 L1218 224 L1237 222 L1257 221 L1278 221 L1295 219 L1314 218 L1334 217 L1353 217 L1373 216 L1391 215 L1411 215 L1431 214 L1450 213 L1469 212 L1496 211 L1517 210 L1545 209 L1580 208 L1594 207 L1625 206 L1644 205 L1664 204 L1682 203 L1702 203 L1722 202 L1743 201 L1759 200 L1778 199 L1799 196 L1819 193 L1837 189 L1856 186 L1876 183 L1896 181 L1914 179 L1933 178 L1955 176 L1979 175 L1994 174 L2012 173 L2030 171 L2050 170 L2069 168 L2089 167 L2108 166 L2129 164 L2146 162 L2165 161 L2186 160 L2207 159 L2223 158 L2243 157 L2263 156 L2282 156 L2301 154 L2320 153 L2340 152 L2360 151 L2378 150 L2397 150 L2425 149 L2446 148 L2516 146 L2544 144 L2558 141 L2572 139 L2592 138 L2611 137 L2630 136 L2650 134 L2671 133 L2688 132 L2707 131 L2727 131 L2747 130 L2766 129 L2785 128 L2804 127 L2825 125 L2843 124 L2861 123 L2883 122 L2908 121 L2923 120 L2940 119 L2959 118 L2979 116 L2998 115 L3017 114 L3037 113 L3058 112 L3075 111 L3094 110 L3114 109 L3136 108 L3152 107 L3210 106 L3230 105 L3248 104 L3268 103 L3288 103 L3307 102 L3326 101 L3354 101 L3374 100 L3402 100 L3439 99 L3453 98 L3466 97 L3483 97 L3501 96 L3521 96 L3539 95 L3559 95 L3579 95 L3600 94 L3617 94 L3635 93 L3656 93 L3676 92 L3694 92 L3713 91 L3733 90 L3754 89 L3771 89 L3790 88 L3812 87 L3837 86 L3851 86 L3868 85 L3888 85 L3908 84 L3926 83 L3945 82 L3965 81 L3986 80 L4003 79 L4023 78 L4043 78 L4064 78 L4081 77 L4100 76 L4120 76 L4139 76 L4158 75 L4177 75 L4197 74 L4217 74 L4236 74 L4254 73 L4282 73 L4303 72 L4331 72 L4366 71 L4379 71 L4393 70 L4411 70 L4429 69 L4449 69 L4468 68 L4507 68 L4528 67 L4545 67 L4564 66 L4584 65 L4604 65 L4622 64 L4641 63 L4661 62 L4681 62 L4700 61 L4719 60 L4740 60 L4764 60 L4779 59 L4796 59 L4816 58 L4835 57 L4855 57 L4873 56 L4893 55 L4914 55 L4932 54 L4951 54 L4971 53 L4992 52 L5009 52 L5028 51 L5048 51 L5067 50 L5087 50 L5105 50 L5125 49 L5145 49 L5164 48 L5183 48 L5212 47 L5259 47 L5297 46 L5312 46 L5325 45 L5342 45 L5358 44 L5378 44 L5396 44 L5416 43 L5436 43 L5456 43 L5474 43 L5492 43 L5513 42 L5532 42 L5551 42 L5570 41 L5590 41 L5609 41 L5628 40 L5647 40 L5668 39 L5693 39 L5707 38 L5725 37 L5744 36 L5763 35 L5783 34 L5802 33 L5822 32 L5842 30 L5861 29 L5879 28 L5900 27 L5920 26 L5938 25 L5957 24 L5977 23 L5995 22 L6015 21 L6034 21 L6054 20 L6073 19 L6093 17 L6111 16 L6140 15 L6160 14 L6188 13 L6225 12 L6240 12 L6252 11 L6270 10 L6287 10 L6307 9 L6325 8 L6345 8 L6365 7 L6386 6 L6403 5 L6421 5 L6442 4 L6463 3 L6480 2 L6500 1" />
</svg>
