<svg xmlns="http://www.w3.org/2000/svg" version="1.1" viewBox="0 0 6500 1000">
	<path fill="none" stroke="gold" stroke-width="125" stroke-linecap="round" stroke-linejoin="round" d="M0 1016  L-717828 1016 L-715224 1016 L-713556 1016 L-695227 1016 L-695057 1015 L-687899 1015 L-687866 1015 L-674435 1015 L-671513 1015 L-658172 1015 L-654003 1015 L-652843 1015 L-652224 1014 L-650212 1014 L-646440 1014 L-645840 1014 L-645511 1014 L-645298 1014 L-644757 1014 L-643519 1013 L-642340 1013 L-639475 1012 L-638953 1012 L-634098 1012 L-631160 1012 L-631117 1012 L-630809 1011 L-630557 1011 L-627962 1011 L-623707 1011 L-623689 1011 L-622452 1011 L-620575 1011 L-618621 1011 L-617673 1011 L-617402 1011 L-617092 1011 L-616994 1011 L-616164 1011 L-614133 1011 L-613843 1010 L-611696 1010 L-611541 1010 L-607885 1010 L-607634 1010 L-607535 1010 L-607018 1010 L-604867 1010 L-603938 1010 L-602412 1011 L-601172 1011 L-599626 1011 L-596664 1010 L-595542 1010 L-595233 1010 L-594022 1010 L-591015 1011 L-590995 1011 L-590648 1011 L-590435 1011 L-590309 1010 L-590067 1010 L-590029 1010 L-590010 1010 L-589990 1009 L-589931 1009 L-589873 1009 L-589855 1009 L-589412 1009 L-588172 1009 L-586627 1009 L-583239 1009 L-577513 1009 L-577311 1009 L-575675 1008 L-573953 1008 L-572521 1008 L-572289 1008 L-571574 1008 L-565441 1008 L-565074 1008 L-564919 1008 L-564341 1008 L-564048 1008 L-563081 1008 L-562771 1008 L-562172 1007 L-560566 1007 L-559831 1007 L-559521 1007 L-558753 1007 L-556717 1007 L-556291 1007 L-555479 1007 L-548050 1007 L-547527 1007 L-547354 1007 L-546619 1007 L-545051 1007 L-544645 1007 L-542420 1006 L-541472 1006 L-541047 1006 L-540717 1006 L-539673 1006 L-537565 1006 L-537313 1006 L-536694 1006 L-535881 1006 L-533773 1006 L-533725 1006 L-531797 1006 L-531471 1005 L-531336 1005 L-530833 1005 L-529420 1005 L-528917 1005 L-528395 1005 L-524836 1005 L-524101 1004 L-521676 1004 L-520387 1004 L-519980 1004 L-516827 1004 L-516672 1004 L-516652 1004 L-516285 1004 L-515027 1004 L-514312 1004 L-513422 1004 L-513015 1004 L-512087 1004 L-510978 1004 L-510675 1005 L-504426 1005 L-503479 1005 L-501853 1005 L-501351 1005 L-497675 1005 L-496843 1005 L-492890 1005 L-491478 1005 L-488988 1005 L-488312 1005 L-488273 1005 L-487402 1005 L-484191 1005 L-481328 1005 L-480360 1004 L-479239 1004 L-479220 1004 L-477595 1004 L-477131 1004 L-477039 1004 L-470669 1004 L-469721 1004 L-467264 1004 L-466392 1004 L-465156 1004 L-463154 1004 L-462757 1003 L-461320 1003 L-459294 1003 L-459081 1003 L-457901 1003 L-456392 1003 L-456372 1003 L-454360 1003 L-453491 1003 L-452620 1003 L-452035 1003 L-451498 1003 L-450840 1002 L-449602 1002 L-449041 1002 L-447860 1002 L-446623 1002 L-446584 1002 L-446197 1002 L-445655 1002 L-444882 1002 L-443759 1002 L-441670 1002 L-441337 1002 L-441051 1002 L-440123 1001 L-439639 1001 L-438904 1001 L-435273 1001 L-434145 1001 L-433990 1001 L-432964 1001 L-429250 1001 L-428032 1001 L-426214 1001 L-423428 1001 L-422867 1001 L-418979 1001 L-416502 1001 L-415167 1001 L-414664 1000 L-414181 1000 L-411491 1000 L-407720 1000 L-405263 1000 L-404083 1000 L-403444 1000 L-401084 1000 L-401007 1000 L-399959 1000 L-399866 1000 L-399363 1000 L-398917 1000 L-398860 1000 L-398646 1000 L-395686 1000 L-392979 1000 L-392824 1000 L-389303 1000 L-388780 1000 L-387813 1000 L-387464 999 L-386420 999 L-385492 999 L-385066 999 L-383557 999 L-382590 999 L-382571 999 L-380675 995 L-380559 991 L-380511 987 L-380487 983 L-377483 983 L-375452 983 L-373691 983 L-373324 983 L-372878 982 L-372512 982 L-372098 982 L-370113 982 L-369899 982 L-369745 982 L-368139 982 L-367018 982 L-366069 982 L-364812 982 L-363167 982 L-361988 982 L-355398 982 L-355352 982 L-354946 982 L-353901 982 L-353765 981 L-352083 981 L-352063 981 L-350726 981 L-349490 981 L-349336 981 L-348962 981 L-348756 981 L-348446 981 L-347672 981 L-345351 981 L-344693 981 L-342565 981 L-340843 981 L-340649 980 L-338096 980 L-337820 980 L-337631 980 L-336799 980 L-336026 980 L-335328 980 L-330328 980 L-329952 980 L-325699 980 L-325212 985 L-325193 985 L-325114 985 L-325038 985 L-325019 980 L-324206 979 L-323452 979 L-322233 979 L-320801 979 L-320705 979 L-320530 979 L-320176 979 L-318867 979 L-317009 979 L-315307 979 L-314804 979 L-314539 979 L-314146 979 L-314011 979 L-313102 979 L-312725 979 L-311797 979 L-311458 979 L-311418 979 L-311380 978 L-309465 978 L-309291 978 L-307762 978 L-307434 978 L-307318 978 L-306911 978 L-306563 978 L-304919 978 L-304368 978 L-304125 978 L-303584 978 L-302753 978 L-302211 978 L-300676 978 L-300584 978 L-300547 977 L-300411 977 L-300024 977 L-298999 977 L-297123 977 L-297026 977 L-296426 979 L-296059 981 L-295574 983 L-295536 985 L-294763 985 L-294705 985 L-294531 985 L-294337 985 L-292732 984 L-292712 984 L-292557 984 L-292441 985 L-291262 985 L-291107 985 L-290440 985 L-287992 989 L-285477 994 L-282807 998 L-275108 1003 L-269440 1003 L-267226 1003 L-267202 1003 L-266228 1004 L-266208 1004 L-265345 1004 L-262604 1004 L-256806 1003 L-256653 1002 L-253867 1002 L-240258 1002 L-239512 1002 L-235102 1002 L-218756 1002 L-218523 1002 L-217986 1002 L-209527 1002 L-200821 1002 L-200609 1002 L-198636 1002 L-195850 1002 L-191363 1002 L-191208 1002 L-191039 1002 L-190898 1002 L-190608 1002 L-190569 1001 L-190298 1001 L-190127 1001 L-189716 1001 L-188596 1001 L-187416 1001 L-186139 1001 L-183275 1001 L-180355 1001 L-178363 1001 L-176815 1001 L-173777 1001 L-164453 1001 L-163929 1001 L-158205 1001 L-156698 1001 L-155883 1001 L-154200 1001 L-153479 1000 L-153310 1000 L-152265 1000 L-150198 1000 L-148836 1000 L-144392 1000 L-144295 1000 L-144257 1000 L-144238 1000 L-143405 1000 L-143327 1000 L-140755 1000 L-137506 1000 L-137351 1000 L-136402 1000 L-134661 1000 L-133946 1000 L-130405 1000 L-123828 1000 L-122411 1001 L-122390 1001 L-121439 1001 L-117965 1001 L-117212 1001 L-116650 1001 L-115868 1001 L-108364 1000 L-106766 1000 L-105192 1000 L-102006 1000 L-97673 1000 L-89103 1000 L-80357 1000 L-77283 1000 L-74017 1000 L-73471 1000 L-66333 1000 L-60666 1000 L-46601 1000 L-40590 1000 L-35884 1000 L-31880 1000 L-26773 1000 L-17059 1000 L-1488 1000 L1593 999 L1896 975 L1915 944 L1934 909 L1954 871 L1973 853 L1993 838 L2011 824 L2039 811 L2060 798 L2088 784 L2123 769 L2137 756 L2150 744 L2168 735 L2187 728 L2207 721 L2225 714 L2244 707 L2264 700 L2285 693 L2302 686 L2321 679 L2341 672 L2361 665 L2380 658 L2399 650 L2418 642 L2439 635 L2457 627 L2476 620 L2497 614 L2522 607 L2536 601 L2554 594 L2573 588 L2593 582 L2612 575 L2631 568 L2651 561 L2671 555 L2689 549 L2708 543 L2728 538 L2749 533 L2766 529 L2785 524 L2805 520 L2824 516 L2844 512 L2863 509 L2882 506 L2902 503 L2921 500 L2940 497 L2967 493 L2988 489 L3016 485 L3050 480 L3064 476 L3077 473 L3096 470 L3115 467 L3135 464 L3153 461 L3173 458 L3193 455 L3213 452 L3231 449 L3249 446 L3270 443 L3290 440 L3308 436 L3327 431 L3347 427 L3367 423 L3385 418 L3404 414 L3425 409 L3450 404 L3464 398 L3482 393 L3501 388 L3521 383 L3540 378 L3559 372 L3579 367 L3599 362 L3618 357 L3636 352 L3657 347 L3677 343 L3695 338 L3714 334 L3734 330 L3752 327 L3772 323 L3791 319 L3811 316 L3830 312 L3850 308 L3869 305 L3897 301 L3917 298 L3945 294 L3982 290 L3997 286 L4010 282 L4027 279 L4044 276 L4064 274 L4082 272 L4101 270 L4121 268 L4142 266 L4159 263 L4178 261 L4198 258 L4218 256 L4237 253 L4255 250 L4275 247 L4295 243 L4314 240 L4333 237 L4354 234 L4378 230 L4393 227 L4410 224 L4430 221 L4449 218 L4469 214 L4488 211 L4508 207 L4528 204 L4546 200 L4565 197 L4585 194 L4605 191 L4623 189 L4642 186 L4662 183 L4681 181 L4701 178 L4720 175 L4740 173 L4759 170 L4778 167 L4797 165 L4825 162 L4845 160 L4873 157 L4910 153 L4924 149 L4937 145 L4954 142 L4972 140 L4992 138 L5011 135 L5031 133 L5050 130 L5071 127 L5090 124 L5107 120 L5127 117 L5148 113 L5166 109 L5184 105 L5204 101 L5225 97 L5242 93 L5261 90 L5283 88 L5308 85 L5322 84 L5340 82 L5359 79 L5378 77 L5397 75 L5416 73 L5436 71 L5457 69 L5475 68 L5494 66 L5514 63 L5535 61 L5552 58 L5571 56 L5591 54 L5610 53 L5629 52 L5648 50 L5668 49 L5688 48 L5707 46 L5726 45 L5753 43 L5774 42 L5802 40 L5837 38 L5850 37 L5864 36 L5882 34 L5901 33 L5921 32 L5939 31 L5959 30 L5979 29 L6000 28 L6017 27 L6035 26 L6056 25 L6076 23 L6094 22 L6113 21 L6133 20 L6153 19 L6171 18 L6190 17 L6211 16 L6236 15 L6251 14 L6268 13 L6287 12 L6307 11 L6326 10 L6345 8 L6365 7 L6386 6 L6403 5 L6422 4 L6443 3 L6463 2 L6481 1 L6500 0" />
</svg>
