<svg xmlns="http://www.w3.org/2000/svg" version="1.1" viewBox="0 0 6500 1000">
	<path fill="none" stroke="gold" stroke-width="125" stroke-linecap="round" stroke-linejoin="round" d="M0 7041  L-103793 7041 L-101189 6979 L-99521 6917 L-81191 6794 L-81021 6670 L-73863 6547 L-73830 6547 L-60399 6485 L-57477 6547 L-44136 6362 L-39968 6115 L-38807 5806 L-38188 5498 L-36176 5312 L-32405 5189 L-31805 5066 L-31476 4942 L-31263 4819 L-30721 4695 L-29483 4201 L-28304 3708 L-25440 3214 L-24918 2720 L-20062 2596 L-17125 2473 L-17082 2350 L-16774 2226 L-16522 2103 L-13927 1979 L-9671 1979 L-9653 1979 L-8417 1979 L-6539 1979 L-4586 1856 L-3638 1732 L-3367 1609 L-3057 1547 L-2959 1485 L-2129 1485 L-98 1547 L192 991 L2338 745 L2494 374 L6150 4 L6401 189 L6500 127" />
</svg>
