<svg xmlns="http://www.w3.org/2000/svg" version="1.1" viewBox="0 0 6500 1000">
	<path fill="none" stroke="gold" stroke-width="125" stroke-linecap="round" stroke-linejoin="round" d="M0 1032  L-714211 1032 L-711607 1032 L-709939 1032 L-691610 1032 L-691440 1032 L-684282 1031 L-684249 1031 L-670818 1031 L-667896 1031 L-654555 1031 L-650386 1031 L-649226 1030 L-648607 1029 L-646595 1029 L-642823 1029 L-642223 1029 L-641894 1028 L-641681 1028 L-641140 1028 L-639902 1027 L-638723 1026 L-635858 1025 L-635336 1024 L-630481 1024 L-627543 1024 L-627500 1024 L-627192 1024 L-626940 1023 L-624345 1023 L-620090 1023 L-620072 1023 L-618835 1023 L-616957 1023 L-615004 1023 L-614056 1023 L-613785 1022 L-613475 1022 L-613377 1022 L-612547 1022 L-610516 1022 L-610226 1021 L-608079 1021 L-607924 1020 L-604268 1020 L-604016 1020 L-603918 1020 L-603401 1020 L-601250 1021 L-600321 1021 L-598795 1022 L-597555 1022 L-596009 1022 L-593047 1021 L-591925 1021 L-591616 1021 L-590405 1021 L-587398 1022 L-587378 1022 L-587031 1022 L-586818 1022 L-586692 1020 L-586450 1020 L-586412 1020 L-586393 1020 L-586373 1019 L-586314 1019 L-586256 1019 L-586238 1019 L-585795 1018 L-584555 1018 L-583010 1018 L-579622 1018 L-573896 1018 L-573694 1018 L-572058 1017 L-570336 1017 L-568904 1017 L-568672 1017 L-567956 1017 L-561824 1017 L-561457 1017 L-561302 1016 L-560724 1016 L-560431 1016 L-559464 1016 L-559154 1016 L-558555 1015 L-556949 1015 L-556214 1015 L-555904 1015 L-555136 1015 L-553100 1015 L-552674 1015 L-551862 1015 L-544433 1015 L-543910 1014 L-543737 1014 L-543002 1014 L-541434 1014 L-541028 1014 L-538803 1013 L-537855 1013 L-537430 1013 L-537100 1013 L-536056 1013 L-533948 1013 L-533696 1013 L-533077 1012 L-532264 1012 L-530156 1012 L-530108 1012 L-528180 1012 L-527854 1011 L-527719 1011 L-527216 1011 L-525803 1011 L-525300 1010 L-524778 1010 L-521219 1010 L-520484 1009 L-518059 1009 L-516770 1009 L-516363 1009 L-513210 1009 L-513055 1009 L-513035 1009 L-512668 1009 L-511410 1009 L-510695 1009 L-509805 1009 L-509398 1009 L-508470 1009 L-507361 1009 L-507058 1010 L-500809 1010 L-499862 1010 L-498236 1010 L-497734 1010 L-494058 1010 L-493226 1011 L-489273 1011 L-487861 1010 L-485371 1010 L-484695 1010 L-484656 1010 L-483785 1010 L-480574 1010 L-477711 1010 L-476743 1009 L-475622 1009 L-475603 1009 L-473978 1009 L-473514 1008 L-473422 1008 L-467052 1008 L-466104 1008 L-463647 1008 L-462775 1008 L-461538 1008 L-459537 1007 L-459140 1007 L-457703 1007 L-455677 1007 L-455464 1007 L-454284 1007 L-452775 1006 L-452755 1006 L-450743 1006 L-449874 1006 L-449003 1006 L-448418 1006 L-447881 1005 L-447223 1005 L-445985 1005 L-445424 1005 L-444243 1005 L-443006 1005 L-442967 1005 L-442580 1004 L-442038 1004 L-441265 1004 L-440142 1004 L-438053 1004 L-437720 1004 L-437434 1003 L-436506 1003 L-436022 1003 L-435287 1003 L-431656 1003 L-430528 1003 L-430373 1003 L-429347 1002 L-425633 1002 L-424415 1002 L-422597 1002 L-419811 1002 L-419250 1001 L-415362 1001 L-412885 1001 L-411550 1001 L-411047 1001 L-410564 1001 L-407874 1001 L-404103 1001 L-401646 1001 L-400466 1001 L-399827 1001 L-397467 1001 L-397390 1001 L-396342 1001 L-396249 1000 L-395746 1000 L-395300 1000 L-395243 1000 L-395029 1000 L-392069 1000 L-389362 1000 L-389207 1000 L-385686 1000 L-385163 1000 L-384196 999 L-383847 999 L-382803 999 L-381875 999 L-381449 999 L-379940 999 L-378973 999 L-378954 998 L-377058 990 L-376942 982 L-376894 974 L-376870 965 L-373866 965 L-371835 965 L-370074 965 L-369707 965 L-369261 965 L-368895 965 L-368481 964 L-366496 964 L-366282 964 L-366128 964 L-364522 964 L-363400 964 L-362452 964 L-361195 964 L-359550 964 L-358371 963 L-351781 963 L-351735 963 L-351329 963 L-350284 963 L-350148 963 L-348466 963 L-348446 962 L-347109 962 L-345873 962 L-345719 962 L-345345 962 L-345139 962 L-344829 962 L-344055 961 L-341734 961 L-341076 961 L-338948 961 L-337226 961 L-337032 961 L-334479 961 L-334203 960 L-334014 960 L-333182 960 L-332409 960 L-331711 960 L-326711 960 L-326335 960 L-322082 959 L-321595 970 L-321576 970 L-321497 970 L-321421 970 L-321402 959 L-320589 959 L-319835 959 L-318616 958 L-317184 958 L-317088 958 L-316913 958 L-316559 958 L-315250 958 L-313392 958 L-311690 958 L-311187 958 L-310922 957 L-310529 957 L-310394 957 L-309485 957 L-309108 957 L-308180 957 L-307841 957 L-307801 957 L-307763 957 L-305848 957 L-305674 957 L-304145 957 L-303817 957 L-303701 956 L-303294 956 L-302946 956 L-301302 956 L-300751 956 L-300508 956 L-299967 956 L-299136 955 L-298594 955 L-297059 955 L-296967 955 L-296930 955 L-296794 955 L-296407 955 L-295382 954 L-293506 954 L-293409 954 L-292809 958 L-292442 962 L-291957 965 L-291919 969 L-291146 969 L-291088 969 L-290914 969 L-290720 969 L-289115 969 L-289095 969 L-288940 969 L-288824 969 L-287645 969 L-287490 969 L-286823 969 L-284375 979 L-281860 988 L-279190 997 L-271491 1006 L-265823 1006 L-263609 1006 L-263585 1006 L-262611 1008 L-262591 1008 L-261728 1008 L-258987 1008 L-253189 1005 L-253035 1005 L-250250 1005 L-236641 1005 L-235895 1005 L-231485 1005 L-215138 1004 L-214906 1004 L-214369 1004 L-205910 1004 L-197204 1004 L-196992 1004 L-195019 1004 L-192233 1004 L-187746 1004 L-187591 1004 L-187422 1004 L-187281 1004 L-186991 1003 L-186952 1003 L-186681 1003 L-186510 1003 L-186099 1003 L-184979 1003 L-183799 1003 L-182522 1003 L-179658 1002 L-176738 1002 L-174746 1002 L-173198 1002 L-170160 1002 L-160836 1002 L-160312 1002 L-154588 1002 L-153081 1002 L-152266 1002 L-150583 1001 L-149862 1001 L-149693 1001 L-148648 1001 L-146581 1001 L-145219 1001 L-140775 1001 L-140678 1001 L-140640 1000 L-140621 1000 L-139788 1000 L-139710 1000 L-137138 1000 L-133889 1000 L-133734 1000 L-132785 1000 L-131044 999 L-130329 1000 L-126788 1001 L-120211 1001 L-118794 1002 L-118773 1002 L-117822 1002 L-114348 1002 L-113595 1002 L-113033 1001 L-112251 1001 L-104747 1001 L-103148 1001 L-101574 1001 L-98389 1001 L-94056 1001 L-85486 1001 L-76740 1001 L-73666 1001 L-70400 1000 L-69854 1000 L-62716 1000 L-57049 1000 L-42984 1000 L-36973 1000 L-32267 1000 L-28263 1000 L-23156 1000 L-13442 1000 L2128 999 L5210 999 L5513 949 L5532 887 L5551 817 L5571 739 L5590 703 L5610 673 L5628 645 L5656 618 L5677 591 L5705 563 L5740 532 L5754 506 L5767 483 L5785 464 L5804 451 L5824 436 L5842 422 L5861 408 L5881 394 L5902 379 L5919 364 L5938 350 L5958 337 L5978 323 L5997 308 L6016 293 L6035 277 L6056 261 L6074 246 L6093 232 L6114 219 L6139 205 L6153 192 L6171 179 L6190 166 L6210 153 L6229 140 L6248 126 L6268 112 L6288 100 L6306 88 L6325 76 L6346 65 L6366 55 L6383 46 L6402 38 L6422 29 L6441 21 L6461 13 L6480 6 L6500 0" />
</svg>
