<svg xmlns="http://www.w3.org/2000/svg" version="1.1" viewBox="0 0 6500 1000">
	<path fill="none" stroke="gold" stroke-width="125" stroke-linecap="round" stroke-linejoin="round" d="M0 3430  L-726574 3430 L-723970 3430 L-722301 3430 L-703972 3429 L-703802 3429 L-696644 3429 L-696611 3429 L-683180 3429 L-680258 3429 L-666917 3428 L-662748 3428 L-661588 3427 L-660969 3426 L-658957 3426 L-655185 3425 L-654585 3425 L-654257 3425 L-654044 3424 L-653502 3424 L-652264 3423 L-651085 3422 L-648221 3421 L-647698 3419 L-642843 3419 L-639906 3419 L-639863 3418 L-639554 3418 L-639302 3418 L-636707 3418 L-632452 3418 L-632434 3418 L-631197 3418 L-629320 3418 L-627366 3417 L-626418 3417 L-626148 3417 L-625838 3416 L-625740 3416 L-624909 3416 L-622878 3416 L-622588 3415 L-620442 3415 L-620286 3414 L-616630 3413 L-616379 3413 L-616280 3413 L-615763 3413 L-613612 3414 L-612683 3415 L-611157 3416 L-609918 3416 L-608371 3416 L-605409 3415 L-604287 3415 L-603978 3415 L-602767 3415 L-599760 3416 L-599741 3416 L-599393 3416 L-599180 3416 L-599054 3414 L-598812 3413 L-598775 3413 L-598755 3413 L-598736 3412 L-598677 3412 L-598618 3412 L-598600 3411 L-598157 3411 L-596918 3411 L-595372 3411 L-591984 3410 L-586258 3410 L-586056 3410 L-584420 3410 L-582698 3410 L-581266 3410 L-581034 3409 L-580319 3409 L-574187 3409 L-573819 3409 L-573664 3408 L-573086 3408 L-572793 3408 L-571826 3408 L-571517 3407 L-570917 3407 L-569311 3407 L-568576 3407 L-568266 3407 L-567498 3407 L-565462 3407 L-565037 3407 L-564224 3406 L-556795 3406 L-556272 3406 L-556099 3405 L-555364 3405 L-553796 3405 L-553391 3405 L-551166 3404 L-550218 3404 L-549793 3404 L-549462 3404 L-548419 3404 L-546310 3404 L-546058 3403 L-545439 3403 L-544627 3403 L-542519 3403 L-542470 3402 L-540542 3402 L-540216 3402 L-540081 3401 L-539578 3401 L-538165 3401 L-537662 3400 L-537141 3400 L-533581 3399 L-532846 3399 L-530421 3399 L-529132 3398 L-528725 3398 L-525572 3398 L-525417 3398 L-525397 3398 L-525031 3398 L-523772 3399 L-523057 3399 L-522167 3399 L-521760 3399 L-520832 3399 L-519723 3399 L-519420 3399 L-513171 3399 L-512224 3400 L-510598 3400 L-510096 3400 L-506420 3400 L-505588 3400 L-501635 3401 L-500223 3400 L-497734 3400 L-497057 3400 L-497019 3399 L-496148 3399 L-492937 3399 L-490073 3399 L-489105 3399 L-487984 3399 L-487965 3398 L-486340 3398 L-485876 3398 L-485784 3397 L-479415 3397 L-478466 3397 L-476009 3397 L-475137 3397 L-473901 3397 L-471899 3396 L-471502 3396 L-470066 3396 L-468039 3396 L-467826 3395 L-466646 3395 L-465138 3395 L-465118 3395 L-463105 3395 L-462236 3394 L-461365 3394 L-460780 3394 L-460243 3394 L-459585 3393 L-458347 3393 L-457786 3393 L-456605 3393 L-455368 3393 L-455329 3392 L-454942 3392 L-454401 3392 L-453627 3392 L-452505 3392 L-450415 3391 L-450082 3391 L-449796 3391 L-448868 3391 L-448385 3390 L-447649 3390 L-444018 3390 L-442890 3390 L-442736 3390 L-441710 3389 L-437995 3389 L-436778 3389 L-434959 3389 L-432173 3389 L-431612 3388 L-427724 3388 L-425247 3388 L-423913 3388 L-423409 3388 L-422926 3388 L-420237 3388 L-416465 3388 L-414008 3388 L-412828 3388 L-412189 3388 L-409829 3387 L-409752 3387 L-408704 3387 L-408611 3387 L-408108 3387 L-407662 3387 L-407605 3387 L-407391 3387 L-404432 3386 L-401724 3386 L-401569 3386 L-398048 3386 L-397525 3386 L-396558 3385 L-396209 3385 L-395166 3385 L-394237 3385 L-393811 3384 L-392302 3384 L-391335 3384 L-391316 3384 L-389420 3373 L-389304 3362 L-389256 3351 L-389232 3339 L-386228 3339 L-384197 3339 L-382436 3339 L-382069 3339 L-381624 3338 L-381257 3338 L-380843 3338 L-378858 3338 L-378645 3338 L-378490 3338 L-376885 3338 L-375763 3338 L-374814 3337 L-373557 3337 L-371913 3337 L-370733 3337 L-364143 3336 L-364097 3336 L-363691 3336 L-362646 3336 L-362511 3336 L-360828 3336 L-360808 3335 L-359471 3335 L-358235 3335 L-358081 3335 L-357707 3334 L-357501 3334 L-357191 3334 L-356417 3334 L-354096 3334 L-353438 3334 L-351310 3333 L-349588 3333 L-349394 3333 L-346841 3333 L-346565 3333 L-346377 3332 L-345544 3332 L-344772 3332 L-344074 3332 L-339073 3332 L-338697 3331 L-334444 3331 L-333957 3346 L-333938 3346 L-333859 3346 L-333784 3346 L-333764 3331 L-332951 3330 L-332197 3330 L-330978 3330 L-329546 3330 L-329450 3330 L-329276 3330 L-328921 3330 L-327612 3329 L-325755 3329 L-324052 3329 L-323549 3329 L-323284 3329 L-322891 3328 L-322757 3328 L-321847 3328 L-321471 3328 L-320542 3328 L-320203 3328 L-320163 3328 L-320126 3328 L-318210 3328 L-318037 3328 L-316508 3328 L-316180 3327 L-316063 3327 L-315656 3327 L-315308 3327 L-313664 3326 L-313114 3326 L-312870 3326 L-312329 3326 L-311498 3326 L-310956 3326 L-309422 3325 L-309329 3325 L-309292 3325 L-309156 3325 L-308769 3325 L-307744 3325 L-305868 3324 L-305772 3324 L-305171 3329 L-304804 3334 L-304320 3339 L-304282 3345 L-303508 3345 L-303450 3345 L-303276 3344 L-303082 3344 L-301477 3344 L-301457 3344 L-301302 3344 L-301186 3344 L-300007 3344 L-299852 3345 L-299185 3345 L-296737 3357 L-294222 3370 L-291552 3382 L-283853 3394 L-278185 3394 L-275971 3394 L-275947 3394 L-274974 3397 L-274954 3397 L-274090 3397 L-271350 3397 L-265551 3394 L-265398 3393 L-262612 3393 L-249004 3393 L-248258 3393 L-243847 3392 L-227501 3392 L-227269 3392 L-226732 3392 L-218272 3392 L-209566 3392 L-209354 3391 L-207382 3391 L-204595 3391 L-200108 3391 L-199953 3391 L-199784 3391 L-199644 3391 L-199353 3391 L-199314 3391 L-199043 3391 L-198872 3390 L-198462 3390 L-197341 3390 L-196161 3390 L-194884 3390 L-192020 3390 L-189100 3389 L-187108 3389 L-185560 3389 L-182522 3389 L-173198 3389 L-172674 3389 L-166950 3389 L-165443 3388 L-164628 3388 L-162945 3388 L-162224 3388 L-162055 3388 L-161010 3388 L-158943 3387 L-157581 3387 L-153138 3387 L-153040 3387 L-153002 3387 L-152983 3387 L-152150 3387 L-152073 3386 L-149500 3386 L-146251 3386 L-146096 3386 L-145148 3386 L-143407 3385 L-142691 3386 L-139150 3387 L-132573 3388 L-131156 3389 L-131135 3389 L-130185 3389 L-126710 3389 L-125957 3388 L-125395 3388 L-124613 3388 L-117109 3388 L-115511 3388 L-113937 3388 L-110751 3387 L-106418 3387 L-97849 3387 L-89102 3387 L-86028 3387 L-82762 3387 L-82216 3387 L-75079 3386 L-69411 3386 L-55347 3386 L-49335 3387 L-44629 3386 L-40626 3386 L-35518 3386 L-25804 3386 L-10234 3386 L-7151 3385 L-6849 3317 L-6829 3234 L-6810 3139 L-6790 3032 L-6771 2984 L-6752 2943 L-6733 2906 L-6705 2868 L-6684 2832 L-6657 2794 L-6621 2752 L-6608 2717 L-6595 2686 L-6576 2661 L-6558 2642 L-6538 2623 L-6519 2604 L-6500 2585 L-6480 2565 L-6459 2545 L-6442 2526 L-6423 2506 L-6403 2488 L-6383 2469 L-6365 2449 L-6346 2428 L-6326 2407 L-6306 2386 L-6287 2366 L-6269 2347 L-6247 2328 L-6223 2310 L-6208 2292 L-6191 2275 L-6171 2257 L-6152 2240 L-6133 2221 L-6114 2202 L-6094 2185 L-6073 2167 L-6055 2151 L-6036 2135 L-6016 2121 L-5995 2107 L-5978 2095 L-5959 2083 L-5939 2072 L-5920 2061 L-5901 2050 L-5882 2041 L-5862 2032 L-5842 2024 L-5823 2016 L-5804 2008 L-5777 1998 L-5756 1987 L-5728 1976 L-5694 1963 L-5680 1952 L-5667 1943 L-5648 1934 L-5629 1927 L-5609 1919 L-5591 1910 L-5572 1901 L-5552 1892 L-5531 1884 L-5514 1877 L-5495 1869 L-5475 1860 L-5455 1851 L-5436 1840 L-5418 1829 L-5397 1817 L-5378 1805 L-5359 1793 L-5340 1781 L-5319 1767 L-5295 1752 L-5280 1738 L-5263 1724 L-5243 1710 L-5224 1696 L-5204 1682 L-5185 1667 L-5165 1652 L-5145 1638 L-5127 1625 L-5108 1611 L-5088 1598 L-5067 1585 L-5049 1573 L-5030 1562 L-5010 1551 L-4992 1541 L-4972 1531 L-4953 1521 L-4933 1511 L-4914 1501 L-4895 1491 L-4876 1481 L-4847 1471 L-4827 1462 L-4799 1452 L-4762 1441 L-4747 1430 L-4735 1420 L-4718 1410 L-4701 1403 L-4681 1397 L-4662 1391 L-4643 1386 L-4623 1380 L-4602 1374 L-4585 1368 L-4566 1361 L-4546 1354 L-4526 1347 L-4508 1339 L-4489 1331 L-4469 1323 L-4449 1314 L-4430 1304 L-4412 1296 L-4390 1287 L-4366 1278 L-4351 1269 L-4334 1261 L-4314 1251 L-4295 1243 L-4276 1233 L-4257 1224 L-4237 1214 L-4216 1205 L-4198 1196 L-4179 1187 L-4159 1179 L-4139 1171 L-4121 1164 L-4102 1156 L-4082 1149 L-4063 1141 L-4043 1133 L-4025 1126 L-4005 1119 L-3985 1112 L-3966 1105 L-3947 1098 L-3919 1091 L-3899 1084 L-3871 1076 L-3835 1065 L-3821 1054 L-3807 1044 L-3790 1036 L-3772 1030 L-3752 1025 L-3734 1017 L-3714 1010 L-3694 1002 L-3673 994 L-3654 985 L-3637 976 L-3617 966 L-3597 956 L-3579 945 L-3560 933 L-3540 922 L-3520 911 L-3502 901 L-3483 893 L-3462 886 L-3437 881 L-3422 875 L-3404 870 L-3386 864 L-3366 858 L-3347 852 L-3328 846 L-3308 841 L-3287 836 L-3270 832 L-3250 827 L-3230 820 L-3209 812 L-3192 805 L-3173 799 L-3153 795 L-3134 791 L-3115 788 L-3096 785 L-3076 781 L-3056 777 L-3037 772 L-3019 769 L-2991 765 L-2970 761 L-2942 757 L-2908 752 L-2894 748 L-2881 744 L-2862 741 L-2843 738 L-2824 735 L-2805 732 L-2785 729 L-2766 726 L-2745 723 L-2728 720 L-2709 717 L-2688 714 L-2668 710 L-2650 707 L-2632 704 L-2612 701 L-2591 698 L-2573 695 L-2554 692 L-2533 689 L-2508 687 L-2494 684 L-2476 682 L-2457 679 L-2438 676 L-2418 673 L-2399 670 L-2379 666 L-2358 663 L-2341 660 L-2322 657 L-2302 654 L-2281 652 L-2264 649 L-2245 646 L-2225 644 L-2206 642 L-2186 639 L-2167 637 L-2147 635 L-2128 633 L-2109 632 L-2090 635 L-2061 638 L-2042 641 L-2014 644 L-1976 641 L-1961 639 L-1948 637 L-1931 635 L-1915 634 L-1895 632 L-1876 630 L-1857 628 L-1837 627 L-1816 625 L-1799 624 L-1780 622 L-1760 621 L-1740 619 L-1722 617 L-1703 615 L-1683 613 L-1663 612 L-1645 610 L-1626 608 L-1604 607 L-1580 606 L-1565 604 L-1548 602 L-1528 600 L-1509 598 L-1490 597 L-1471 595 L-1451 593 L-1430 590 L-1412 588 L-1393 585 L-1373 583 L-1352 581 L-1335 579 L-1316 577 L-1296 575 L-1277 573 L-1258 571 L-1239 568 L-1219 566 L-1199 564 L-1180 562 L-1161 561 L-1134 559 L-1113 557 L-1085 555 L-1050 552 L-1037 550 L-1024 548 L-1005 546 L-986 545 L-966 543 L-948 541 L-928 539 L-909 537 L-887 536 L-870 534 L-852 532 L-831 530 L-811 528 L-793 525 L-774 522 L-754 519 L-734 516 L-716 513 L-697 511 L-676 509 L-651 506 L-636 503 L-619 500 L-600 498 L-580 495 L-561 492 L-542 490 L-522 487 L-501 485 L-484 482 L-465 480 L-444 477 L-424 475 L-407 473 L-388 472 L-368 470 L-349 468 L-329 467 L-310 465 L-290 464 L-271 462 L-252 461 L-233 460 L-205 459 L-185 457 L-157 456 L-121 453 L-107 450 L-94 448 L-76 445 L-58 443 L-38 442 L-19 440 L0 438 L19 437 L40 435 L57 433 L76 431 L96 429 L116 427 L134 425 L153 423 L173 420 L194 418 L212 416 L230 415 L252 413 L277 411 L291 410 L308 408 L328 406 L347 404 L367 402 L385 399 L405 397 L427 394 L444 391 L463 388 L483 386 L504 384 L521 383 L540 381 L560 380 L579 379 L599 377 L617 376 L637 375 L657 373 L676 372 L695 371 L722 369 L743 368 L771 367 L805 366 L819 365 L832 363 L851 362 L870 361 L889 360 L908 359 L927 358 L947 358 L968 357 L985 356 L1004 355 L1024 353 L1044 352 L1063 351 L1082 350 L1102 349 L1122 348 L1140 348 L1159 347 L1180 346 L1205 345 L1219 344 L1237 343 L1256 342 L1275 341 L1295 340 L1314 339 L1334 338 L1354 336 L1372 334 L1391 332 L1411 329 L1432 327 L1450 326 L1469 325 L1489 323 L1507 322 L1527 320 L1546 319 L1566 318 L1585 317 L1605 316 L1623 315 L1652 314 L1700 313 L1736 312 L1751 310 L1764 309 L1781 308 L1798 308 L1818 308 L1837 307 L1856 306 L1876 305 L1897 304 L1914 304 L1933 303 L1953 302 L1973 302 L1991 301 L2010 300 L2030 299 L2050 298 L2069 297 L2087 295 L2109 294 L2133 292 L2148 290 L2165 289 L2185 287 L2204 286 L2224 284 L2242 283 L2262 282 L2283 280 L2301 279 L2320 277 L2340 276 L2360 275 L2378 274 L2397 273 L2417 272 L2436 271 L2456 270 L2474 268 L2494 267 L2514 266 L2533 265 L2552 264 L2580 263 L2600 262 L2628 260 L2665 258 L2680 255 L2692 253 L2710 251 L2727 250 L2747 249 L2766 248 L2785 247 L2805 247 L2826 246 L2843 244 L2861 243 L2882 242 L2903 240 L2920 238 L2940 236 L2959 234 L2980 232 L2997 230 L3016 228 L3038 227 L3063 225 L3078 223 L3095 222 L3114 221 L3134 220 L3152 218 L3171 216 L3191 215 L3213 213 L3229 211 L3249 210 L3269 209 L3290 207 L3307 206 L3326 205 L3346 204 L3365 203 L3384 202 L3403 200 L3423 199 L3443 198 L3462 197 L3481 196 L3509 997 L3529 996 L3557 994 L3593 993 L3607 189 L3620 188 L3638 186 L3656 185 L3675 185 L3694 184 L3713 183 L3733 182 L3755 180 L3771 178 L3790 177 L3811 175 L3831 173 L3849 171 L3868 169 L3888 167 L3909 165 L3926 164 L3945 162 L3966 161 L3991 159 L4006 157 L4036 155 L4076 153 L4099 150 L4128 148 L4144 145 L4158 143 L4177 142 L4198 141 L4219 140 L4235 139 L4254 137 L4274 136 L4293 136 L4313 135 L4332 134 L4352 133 L4372 132 L4390 131 L4409 130 L4437 129 L4457 128 L4485 127 L4520 126 L4534 125 L4566 123 L4584 122 L4604 122 L4623 121 L4642 120 L4662 119 L4683 119 L4700 118 L4718 116 L4739 113 L4760 109 L4777 105 L4796 102 L4816 99 L4836 96 L4854 94 L4873 92 L4895 91 L4920 90 L4935 88 L4952 87 L4971 85 L4991 84 L5009 82 L5029 81 L5048 79 L5070 77 L5087 76 L5106 74 L5126 73 L5147 72 L5164 71 L5183 70 L5203 69 L5222 68 L5241 67 L5261 66 L5280 64 L5300 63 L5319 63 L5338 62 L5365 61 L5386 60 L5456 58 L5484 55 L5499 53 L5513 50 L5533 49 L5551 48 L5570 46 L5590 45 L5611 43 L5629 42 L5647 42 L5668 41 L5688 40 L5706 39 L5725 38 L5745 36 L5765 35 L5783 33 L5802 32 L5823 31 L5848 30 L5863 29 L5881 28 L5899 26 L5919 25 L5938 23 L5957 22 L5977 21 L5998 20 L6015 19 L6034 18 L6055 17 L6076 16 L6093 15 L6151 13 L6170 12 L6189 11 L6209 11 L6229 10 L6248 9 L6266 8 L6294 8 L6315 7 L6342 6 L6379 5 L6393 5 L6406 4 L6424 3 L6441 3 L6461 2 L6480 2 L6500 1" />
</svg>
