<svg xmlns="http://www.w3.org/2000/svg" version="1.1" viewBox="0 0 6500 1000">
	<path fill="none" stroke="gold" stroke-width="125" stroke-linecap="round" stroke-linejoin="round" d="M0 3301  L-728392 3301 L-725788 3300 L-724120 3300 L-705791 3300 L-705620 3300 L-698463 3299 L-698430 3299 L-684999 3299 L-682077 3299 L-668736 3299 L-664567 3298 L-663407 3298 L-662788 3297 L-660776 3297 L-657004 3296 L-656404 3296 L-656075 3296 L-655862 3295 L-655321 3295 L-654083 3294 L-652904 3293 L-650039 3292 L-649517 3291 L-644662 3290 L-641724 3290 L-641681 3290 L-641373 3289 L-641121 3289 L-638526 3289 L-634271 3289 L-634253 3289 L-633016 3289 L-631138 3289 L-629185 3289 L-628237 3288 L-627966 3288 L-627656 3288 L-627558 3288 L-626728 3288 L-624697 3288 L-624407 3287 L-622260 3286 L-622105 3285 L-618448 3284 L-618197 3285 L-618099 3285 L-617582 3285 L-615431 3286 L-614502 3286 L-612976 3287 L-611736 3287 L-610190 3287 L-607228 3287 L-606106 3286 L-605797 3286 L-604586 3286 L-601579 3288 L-601559 3287 L-601212 3287 L-600999 3287 L-600873 3285 L-600631 3285 L-600593 3285 L-600574 3284 L-600554 3284 L-600495 3284 L-600437 3283 L-600419 3283 L-599976 3283 L-598736 3283 L-597190 3282 L-593803 3282 L-588076 3282 L-587875 3282 L-586239 3282 L-584517 3281 L-583085 3281 L-582853 3281 L-582137 3281 L-576005 3281 L-575637 3281 L-575483 3280 L-574905 3280 L-574612 3280 L-573645 3279 L-573335 3279 L-572736 3279 L-571130 3279 L-570395 3279 L-570085 3279 L-569317 3279 L-567281 3279 L-566855 3278 L-566043 3278 L-558614 3278 L-558091 3278 L-557918 3277 L-557183 3277 L-555615 3277 L-555209 3277 L-552984 3276 L-552036 3276 L-551611 3276 L-551281 3276 L-550237 3276 L-548129 3276 L-547877 3275 L-547258 3275 L-546445 3275 L-544337 3275 L-544289 3274 L-542361 3274 L-542035 3274 L-541900 3274 L-541397 3273 L-539984 3273 L-539481 3273 L-538959 3272 L-535400 3272 L-534665 3271 L-532240 3271 L-530951 3271 L-530544 3271 L-527391 3271 L-527236 3271 L-527216 3271 L-526849 3271 L-525591 3271 L-524876 3271 L-523986 3271 L-523579 3271 L-522651 3271 L-521542 3271 L-521239 3271 L-514990 3272 L-514043 3272 L-512416 3272 L-511915 3272 L-508239 3273 L-507407 3273 L-503454 3273 L-502042 3272 L-499552 3272 L-498876 3272 L-498837 3272 L-497966 3272 L-494755 3272 L-491892 3271 L-490924 3271 L-489803 3271 L-489784 3271 L-488159 3270 L-487695 3270 L-487603 3270 L-481233 3270 L-480285 3270 L-477828 3269 L-476955 3269 L-475719 3269 L-473718 3269 L-473321 3269 L-471884 3268 L-469858 3268 L-469645 3268 L-468465 3268 L-466956 3268 L-466936 3267 L-464924 3267 L-464055 3267 L-463184 3267 L-462599 3267 L-462062 3266 L-461404 3266 L-460166 3266 L-459605 3266 L-458424 3265 L-457187 3265 L-457148 3265 L-456761 3265 L-456219 3265 L-455446 3265 L-454323 3264 L-452234 3264 L-451901 3264 L-451615 3264 L-450687 3263 L-450203 3263 L-449468 3263 L-445837 3263 L-444709 3263 L-444554 3263 L-443528 3262 L-439814 3262 L-438596 3262 L-436778 3262 L-433992 3261 L-433431 3261 L-429543 3261 L-427066 3261 L-425731 3261 L-425228 3261 L-424745 3261 L-422055 3261 L-418284 3261 L-415827 3261 L-414647 3261 L-414008 3261 L-411648 3260 L-411571 3260 L-410523 3260 L-410430 3260 L-409927 3260 L-409481 3260 L-409424 3260 L-409210 3260 L-406250 3259 L-403543 3259 L-403388 3259 L-399867 3259 L-399344 3259 L-398377 3258 L-398028 3258 L-396984 3258 L-396056 3258 L-395630 3258 L-394121 3258 L-393154 3257 L-393135 3257 L-391239 3247 L-391123 3236 L-391075 3226 L-391051 3215 L-388047 3215 L-386016 3215 L-384255 3214 L-383888 3214 L-383442 3214 L-383075 3214 L-382662 3214 L-380677 3213 L-380463 3213 L-380308 3213 L-378703 3213 L-377581 3213 L-376633 3213 L-375376 3213 L-373731 3213 L-372552 3212 L-365962 3212 L-365916 3212 L-365510 3212 L-364465 3212 L-364329 3212 L-362647 3211 L-362627 3211 L-361290 3211 L-360054 3211 L-359900 3211 L-359526 3210 L-359320 3210 L-359010 3210 L-358236 3210 L-355915 3210 L-355257 3209 L-353129 3209 L-351407 3209 L-351213 3209 L-348660 3209 L-348383 3208 L-348195 3208 L-347363 3208 L-346590 3208 L-345892 3208 L-340892 3208 L-340516 3207 L-336263 3207 L-335776 3221 L-335757 3221 L-335678 3221 L-335602 3221 L-335583 3207 L-334770 3206 L-334016 3206 L-332797 3206 L-331365 3206 L-331269 3206 L-331094 3206 L-330740 3206 L-329431 3205 L-327573 3205 L-325871 3205 L-325368 3205 L-325103 3205 L-324710 3205 L-324575 3204 L-323666 3204 L-323289 3204 L-322361 3204 L-322022 3204 L-321982 3204 L-321944 3204 L-320029 3204 L-319855 3204 L-318326 3204 L-317998 3204 L-317882 3203 L-317475 3203 L-317127 3203 L-315483 3203 L-314932 3203 L-314689 3202 L-314148 3202 L-313316 3202 L-312775 3202 L-311240 3202 L-311148 3201 L-311111 3201 L-310975 3201 L-310588 3201 L-309563 3201 L-307687 3201 L-307590 3201 L-306990 3205 L-306623 3210 L-306138 3215 L-306100 3220 L-305327 3220 L-305269 3220 L-305094 3220 L-304901 3220 L-303296 3219 L-303276 3219 L-303120 3219 L-303005 3220 L-301825 3220 L-301671 3220 L-301004 3220 L-298556 3232 L-296041 3244 L-293371 3255 L-285672 3267 L-280004 3267 L-277789 3267 L-277766 3267 L-276792 3270 L-276772 3270 L-275909 3269 L-273168 3269 L-267370 3266 L-267216 3266 L-264431 3266 L-250822 3266 L-250076 3265 L-245666 3265 L-229319 3265 L-229087 3265 L-228550 3265 L-220091 3264 L-211385 3264 L-211173 3264 L-209200 3264 L-206414 3264 L-201927 3264 L-201772 3264 L-201603 3264 L-201462 3264 L-201172 3264 L-201133 3263 L-200862 3263 L-200691 3263 L-200280 3263 L-199160 3263 L-197980 3263 L-196703 3263 L-193839 3262 L-190919 3262 L-188927 3262 L-187379 3262 L-184341 3262 L-175017 3262 L-174493 3261 L-168769 3261 L-167262 3261 L-166447 3261 L-164764 3261 L-164043 3261 L-163874 3261 L-162829 3261 L-160762 3260 L-159400 3260 L-154956 3260 L-154859 3260 L-154821 3260 L-154802 3260 L-153969 3260 L-153891 3259 L-151319 3259 L-148070 3259 L-147915 3259 L-146966 3259 L-145225 3258 L-144510 3259 L-140969 3260 L-134392 3261 L-132975 3262 L-132954 3262 L-132003 3262 L-128529 3262 L-127776 3261 L-127214 3261 L-126432 3261 L-118928 3261 L-117329 3261 L-115755 3261 L-112570 3260 L-108237 3260 L-99667 3260 L-90921 3260 L-87847 3260 L-84581 3260 L-84035 3260 L-76897 3259 L-71230 3259 L-57165 3259 L-51154 3260 L-46448 3259 L-42444 3259 L-37337 3259 L-27623 3259 L-12052 3259 L-8970 3258 L-8667 3194 L-8648 3115 L-8629 3025 L-8609 2924 L-8590 2878 L-8570 2840 L-8552 2804 L-8524 2769 L-8503 2735 L-8475 2699 L-8440 2659 L-8426 2626 L-8413 2597 L-8395 2573 L-8376 2555 L-8356 2537 L-8338 2519 L-8318 2500 L-8299 2482 L-8278 2463 L-8261 2444 L-8242 2426 L-8221 2409 L-8202 2391 L-8183 2372 L-8164 2352 L-8145 2332 L-8124 2312 L-8106 2293 L-8087 2275 L-8066 2258 L-8041 2240 L-8027 2223 L-8009 2207 L-7990 2190 L-7970 2174 L-7951 2156 L-7932 2138 L-7912 2121 L-7892 2105 L-7874 2090 L-7855 2075 L-7834 2061 L-7814 2048 L-7797 2037 L-7778 2026 L-7758 2015 L-7739 2004 L-7719 1994 L-7700 1985 L-7680 1977 L-7661 1970 L-7642 1962 L-7623 1954 L-7596 1945 L-7575 1935 L-7547 1924 L-7513 1911 L-7499 1901 L-7486 1892 L-7467 1884 L-7448 1877 L-7428 1870 L-7410 1862 L-7390 1853 L-7370 1845 L-7350 1837 L-7332 1830 L-7313 1822 L-7293 1814 L-7273 1806 L-7255 1795 L-7236 1785 L-7216 1774 L-7196 1762 L-7178 1751 L-7159 1739 L-7138 1726 L-7113 1712 L-7099 1698 L-7081 1685 L-7062 1672 L-7042 1659 L-7023 1646 L-7004 1631 L-6984 1618 L-6964 1604 L-6945 1591 L-6927 1578 L-6906 1566 L-6886 1554 L-6868 1543 L-6849 1532 L-6829 1521 L-6810 1512 L-6791 1503 L-6772 1493 L-6752 1484 L-6733 1474 L-6713 1465 L-6694 1455 L-6666 1446 L-6646 1437 L-6618 1428 L-6581 1417 L-6566 1407 L-6553 1397 L-6536 1389 L-6519 1382 L-6499 1376 L-6481 1370 L-6462 1365 L-6442 1360 L-6421 1354 L-6404 1348 L-6385 1342 L-6365 1335 L-6345 1329 L-6326 1321 L-6308 1314 L-6288 1306 L-6268 1297 L-6249 1288 L-6230 1280 L-6209 1272 L-6185 1263 L-6170 1255 L-6153 1247 L-6133 1238 L-6114 1230 L-6094 1221 L-6075 1212 L-6055 1203 L-6035 1194 L-6017 1185 L-5998 1177 L-5978 1169 L-5957 1162 L-5940 1155 L-5921 1148 L-5901 1141 L-5882 1134 L-5862 1126 L-5843 1120 L-5823 1113 L-5804 1106 L-5785 1100 L-5766 1093 L-5738 1086 L-5718 1080 L-5690 1072 L-5653 1061 L-5639 1051 L-5626 1042 L-5609 1034 L-5591 1029 L-5571 1023 L-5552 1016 L-5532 1010 L-5513 1002 L-5492 994 L-5473 986 L-5456 977 L-5436 968 L-5415 958 L-5397 948 L-5378 937 L-5359 926 L-5338 916 L-5320 906 L-5302 898 L-5280 892 L-5255 887 L-5241 882 L-5223 877 L-5204 871 L-5185 866 L-5165 860 L-5147 854 L-5127 849 L-5106 845 L-5088 841 L-5069 836 L-5049 830 L-5028 822 L-5011 816 L-4992 810 L-4972 806 L-4953 803 L-4934 799 L-4915 796 L-4895 792 L-4875 788 L-4856 784 L-4837 781 L-4810 777 L-4789 774 L-4761 770 L-4726 765 L-4713 761 L-4699 758 L-4681 754 L-4662 752 L-4642 749 L-4624 746 L-4604 743 L-4584 741 L-4563 738 L-4546 735 L-4528 732 L-4507 729 L-4487 726 L-4469 722 L-4450 719 L-4430 717 L-4410 714 L-4392 711 L-4373 709 L-4352 706 L-4327 703 L-4312 701 L-4295 698 L-4276 696 L-4256 693 L-4237 690 L-4218 687 L-4198 684 L-4177 681 L-4160 678 L-4141 676 L-4120 673 L-4100 670 L-4082 668 L-4063 665 L-4043 663 L-4025 661 L-4005 658 L-3986 656 L-3966 655 L-3947 653 L-3928 651 L-3909 654 L-3880 657 L-3860 660 L-3832 663 L-3795 660 L-3780 658 L-3767 656 L-3750 654 L-3733 653 L-3713 652 L-3695 650 L-3675 648 L-3656 647 L-3634 645 L-3618 644 L-3599 642 L-3579 641 L-3558 639 L-3540 637 L-3522 636 L-3502 634 L-3482 632 L-3463 631 L-3444 629 L-3423 628 L-3398 627 L-3384 625 L-3367 623 L-3347 622 L-3328 620 L-3308 618 L-3289 617 L-3270 615 L-3249 612 L-3231 610 L-3212 608 L-3192 605 L-3171 604 L-3154 602 L-3135 599 L-3115 598 L-3096 596 L-3076 593 L-3058 591 L-3038 589 L-3018 587 L-2999 586 L-2980 584 L-2953 582 L-2932 580 L-2904 578 L-2869 576 L-2856 574 L-2842 572 L-2823 570 L-2805 569 L-2785 567 L-2767 565 L-2747 564 L-2727 562 L-2706 560 L-2689 558 L-2671 557 L-2650 555 L-2630 553 L-2612 550 L-2593 547 L-2573 545 L-2553 542 L-2535 539 L-2516 537 L-2495 535 L-2470 532 L-2455 530 L-2438 527 L-2419 524 L-2399 522 L-2380 519 L-2361 517 L-2341 514 L-2320 512 L-2303 510 L-2283 507 L-2263 505 L-2242 503 L-2225 501 L-2206 500 L-2186 498 L-2167 497 L-2148 495 L-2129 494 L-2109 492 L-2089 491 L-2070 490 L-2052 489 L-2024 487 L-2003 486 L-1975 484 L-1940 482 L-1926 479 L-1913 477 L-1894 474 L-1876 473 L-1856 471 L-1838 470 L-1818 468 L-1799 467 L-1778 465 L-1761 463 L-1742 461 L-1721 459 L-1701 457 L-1683 455 L-1664 453 L-1645 451 L-1624 449 L-1606 447 L-1587 446 L-1566 444 L-1541 443 L-1526 441 L-1509 439 L-1490 438 L-1470 436 L-1451 434 L-1432 431 L-1412 429 L-1391 426 L-1374 423 L-1355 421 L-1334 419 L-1314 417 L-1297 415 L-1278 414 L-1258 413 L-1239 412 L-1219 411 L-1200 409 L-1180 408 L-1161 407 L-1142 406 L-1123 404 L-1096 403 L-1075 402 L-1047 401 L-1013 400 L-999 398 L-985 397 L-967 396 L-948 395 L-928 394 L-910 393 L-890 392 L-870 392 L-850 391 L-832 390 L-814 389 L-793 388 L-773 387 L-755 386 L-736 385 L-716 384 L-696 383 L-678 382 L-659 382 L-638 381 L-613 380 L-598 379 L-581 378 L-562 377 L-542 376 L-523 375 L-504 374 L-484 373 L-463 371 L-446 369 L-427 367 L-406 365 L-386 363 L-368 362 L-349 361 L-329 359 L-311 358 L-291 357 L-272 355 L-252 354 L-233 353 L-213 352 L-194 351 L-166 350 L-118 349 L-81 348 L-66 347 L-54 346 L-37 345 L-19 345 L0 344 L18 344 L37 343 L57 342 L78 341 L95 341 L114 340 L134 340 L154 339 L173 338 L191 337 L212 336 L231 335 L250 334 L269 333 L290 331 L314 330 L329 328 L346 327 L366 325 L385 324 L405 322 L423 321 L444 320 L464 318 L482 317 L501 315 L521 314 L542 313 L559 312 L578 311 L598 310 L617 309 L637 308 L656 307 L676 306 L695 305 L714 304 L733 303 L761 302 L782 301 L810 299 L846 297 L861 295 L874 293 L891 291 L908 290 L929 289 L947 288 L967 287 L986 287 L1008 286 L1024 285 L1043 283 L1063 282 L1084 280 L1102 279 L1121 276 L1140 274 L1161 272 L1179 271 L1197 269 L1219 268 L1244 266 L1259 265 L1277 263 L1295 262 L1315 261 L1334 260 L1352 258 L1372 256 L1394 255 L1411 253 L1430 252 L1450 251 L1471 250 L1488 248 L1507 247 L1527 246 L1546 245 L1565 244 L1584 243 L1604 242 L1624 241 L1643 240 L1662 239 L1690 997 L1710 996 L1738 995 L1774 993 L1788 232 L1801 231 L1819 229 L1837 229 L1857 228 L1875 227 L1895 226 L1915 225 L1936 224 L1953 222 L1971 220 L1992 219 L2012 217 L2030 215 L2049 213 L2069 211 L2090 209 L2107 208 L2126 207 L2148 206 L2172 204 L2188 202 L2217 200 L2257 198 L2280 196 L2309 193 L2326 191 L2339 189 L2359 188 L2379 187 L2400 186 L2417 184 L2436 183 L2456 182 L2475 182 L2494 181 L2513 180 L2533 180 L2553 179 L2572 178 L2590 177 L2618 176 L2639 175 L2667 174 L2702 172 L2715 171 L2747 170 L2766 169 L2785 168 L2804 168 L2824 167 L2843 166 L2864 165 L2881 165 L2900 163 L2921 160 L2941 157 L2959 153 L2978 150 L2997 147 L3018 144 L3036 142 L3055 141 L3076 140 L3101 138 L3116 137 L3133 135 L3152 134 L3172 132 L3191 131 L3210 130 L3230 128 L3251 127 L3268 125 L3287 123 L3307 122 L3328 121 L3345 120 L3364 120 L3384 119 L3403 118 L3423 116 L3442 115 L3461 114 L3481 113 L3500 112 L3519 112 L3547 111 L3567 110 L3637 108 L3665 105 L3680 103 L3694 101 L3714 99 L3732 98 L3752 97 L3772 95 L3793 94 L3810 93 L3828 92 L3849 92 L3869 91 L3887 90 L3906 89 L3926 87 L3947 86 L3964 84 L3983 83 L4005 82 L4030 82 L4045 80 L4062 79 L4081 78 L4101 76 L4119 75 L4139 74 L4158 73 L4180 72 L4196 71 L4216 70 L4236 69 L4257 68 L4274 67 L4332 66 L4351 65 L4370 64 L4390 63 L4410 62 L4429 62 L4447 61 L4475 60 L4496 60 L4524 59 L4560 58 L4575 57 L4587 57 L4605 56 L4623 56 L4643 55 L4661 55 L4681 54 L4700 54 L4722 54 L4738 53 L4757 53 L4778 52 L4798 52 L4816 51 L4835 50 L4855 49 L4875 48 L4893 48 L4912 47 L4933 46 L4958 45 L4973 45 L4990 44 L5009 44 L5029 43 L5048 42 L5067 41 L5087 40 L5108 39 L5125 38 L5144 37 L5165 37 L5186 36 L5202 36 L5221 35 L5242 34 L5260 34 L5280 34 L5299 33 L5319 33 L5339 33 L5357 32 L5376 32 L5404 31 L5424 31 L5452 30 L5487 29 L5501 29 L5515 28 L5533 28 L5551 27 L5571 27 L5589 26 L5629 26 L5649 25 L5667 25 L5685 24 L5706 23 L5726 23 L5744 22 L5763 21 L5783 20 L5803 20 L5821 19 L5840 18 L5861 18 L5886 17 L5900 17 L5918 16 L5937 16 L5957 15 L5976 14 L5995 14 L6015 13 L6036 12 L6053 12 L6072 11 L6093 10 L6113 10 L6131 9 L6150 9 L6170 8 L6188 8 L6208 7 L6227 7 L6247 6 L6266 6 L6286 5 L6305 5 L6333 4 L6381 4 L6418 3 L6434 3 L6446 2 L6463 2 L6480 1 L6500 1" />
</svg>
