<svg xmlns="http://www.w3.org/2000/svg" version="1.1" viewBox="0 0 6500 1000">
	<path fill="none" stroke="gold" stroke-width="125" stroke-linecap="round" stroke-linejoin="round" d="M0 38307  L-311965 38307 L-309361 38174 L-307693 38040 L-289364 37772 L-289193 37504 L-282036 37236 L-282002 37236 L-268571 37103 L-265650 37236 L-252309 36835 L-248140 36299 L-246980 35630 L-246361 34961 L-244349 34559 L-240577 34291 L-239977 34024 L-239648 33756 L-239435 33488 L-238893 33220 L-237655 32149 L-236476 31078 L-233612 30008 L-233090 28937 L-228234 28669 L-225297 28401 L-225254 28133 L-224946 27866 L-224694 27598 L-222099 27330 L-217844 27330 L-217826 27330 L-216589 27330 L-214711 27330 L-212758 27062 L-211810 26795 L-211539 26527 L-211229 26393 L-211131 26259 L-210301 26259 L-208270 26393 L-207979 25188 L-205833 24653 L-205678 23850 L-202021 23046 L-201770 23448 L-201672 23314 L-201155 23716 L-199003 24385 L-198075 25054 L-196549 25724 L-195309 25724 L-193763 25590 L-190801 25322 L-189679 25054 L-189370 24787 L-188159 24653 L-185152 26125 L-185132 25991 L-184785 25858 L-184572 25724 L-184445 23850 L-184204 23582 L-184166 23314 L-184146 23046 L-184127 22779 L-184068 22511 L-184010 22243 L-183991 21975 L-183548 21708 L-182309 21440 L-180763 21172 L-177376 20904 L-171649 20771 L-171448 20637 L-169812 20503 L-168090 20369 L-166658 20235 L-166426 20101 L-165710 19967 L-159578 19834 L-159210 19566 L-159056 19298 L-158478 19030 L-158185 18763 L-157218 18495 L-156908 18227 L-156309 17959 L-154703 17959 L-153968 17959 L-153658 18093 L-152890 18093 L-150853 17825 L-150428 17558 L-149616 17424 L-142187 17156 L-141664 16888 L-141490 16621 L-140755 16353 L-139188 16085 L-138782 15951 L-136557 15684 L-135609 15550 L-135184 15416 L-134854 15416 L-133810 15282 L-131702 15014 L-131450 14746 L-130831 14479 L-130018 14345 L-127910 14077 L-127862 13809 L-125934 13542 L-125608 13274 L-125473 13006 L-124970 12872 L-123557 12605 L-123054 12069 L-122532 11668 L-118973 11132 L-118238 10597 L-115813 10597 L-114523 10329 L-114116 10195 L-110964 10195 L-110809 10195 L-110789 10329 L-110422 10329 L-109164 10463 L-108449 10597 L-107559 10597 L-107152 10597 L-106224 10597 L-105115 10463 L-104812 10998 L-98563 11266 L-97615 11534 L-95989 11801 L-95488 11935 L-91812 12069 L-90979 12203 L-87026 12337 L-85615 11935 L-83125 11668 L-82449 11400 L-82410 11266 L-81539 11266 L-78328 11132 L-75465 10998 L-74497 10864 L-73375 10597 L-73356 10329 L-71731 10061 L-71267 9659 L-71175 9526 L-64806 9392 L-63858 9258 L-61401 9124 L-60528 8856 L-59292 8722 L-57291 8589 L-56893 8321 L-55457 8053 L-53431 7919 L-53218 7651 L-52038 7518 L-50529 7384 L-50509 7250 L-48497 7116 L-47627 6848 L-46756 6714 L-46172 6447 L-45634 6179 L-44977 5911 L-43739 5643 L-43178 5510 L-41997 5376 L-40759 5242 L-40721 5108 L-40334 4974 L-39792 4706 L-39018 4572 L-37896 4439 L-35807 4171 L-35474 3903 L-35188 3635 L-34259 3502 L-33776 3234 L-33041 3100 L-29409 2966 L-28282 2832 L-28127 2698 L-27101 2431 L-23386 2297 L-22169 2029 L-20351 1761 L-17565 1627 L-17003 1360 L-13116 1360 L-10639 1226 L-9304 1226 L-8801 1092 L-8318 958 L-5628 958 L-1857 958 L600 958 L1779 958 L2419 824 L4778 556 L4856 423 L5903 289 L5997 21 L6500 21" />
</svg>
