<svg xmlns="http://www.w3.org/2000/svg" version="1.1" viewBox="0 0 6500 1000">
	<path fill="none" stroke="gold" stroke-width="125" stroke-linecap="round" stroke-linejoin="round" d="M0 3902  L-724000 3902 L-721396 3901 L-719728 3901 L-701398 3901 L-701228 3901 L-694070 3900 L-694037 3900 L-680606 3900 L-677684 3900 L-664344 3900 L-660175 3899 L-659015 3898 L-658395 3897 L-656384 3897 L-652612 3896 L-652012 3896 L-651683 3895 L-651470 3895 L-650928 3895 L-649690 3893 L-648511 3892 L-645647 3890 L-645125 3889 L-640269 3889 L-637332 3888 L-637289 3888 L-636981 3888 L-636729 3887 L-634134 3887 L-629878 3887 L-629860 3887 L-628624 3887 L-626746 3887 L-624793 3886 L-623845 3886 L-623574 3886 L-623264 3886 L-623166 3885 L-622336 3885 L-620305 3886 L-620014 3884 L-617868 3883 L-617713 3882 L-614056 3881 L-613805 3882 L-613707 3881 L-613189 3882 L-611038 3883 L-610109 3884 L-608583 3885 L-607344 3885 L-605797 3884 L-602836 3884 L-601714 3884 L-601405 3883 L-600193 3883 L-597187 3885 L-597167 3885 L-596820 3885 L-596607 3885 L-596480 3882 L-596239 3882 L-596201 3881 L-596181 3881 L-596162 3881 L-596103 3880 L-596044 3880 L-596026 3880 L-595583 3879 L-594344 3879 L-592798 3879 L-589410 3878 L-583684 3878 L-583483 3878 L-581847 3878 L-580125 3877 L-578693 3877 L-578460 3877 L-577745 3877 L-571613 3877 L-571245 3876 L-571091 3876 L-570512 3876 L-570220 3875 L-569252 3875 L-568943 3875 L-568344 3874 L-566738 3874 L-566002 3874 L-565693 3874 L-564924 3874 L-562888 3874 L-562463 3874 L-561650 3873 L-554222 3873 L-553699 3873 L-553525 3872 L-552790 3872 L-551223 3872 L-550817 3871 L-548592 3871 L-547644 3871 L-547219 3871 L-546889 3871 L-545845 3871 L-543737 3870 L-543485 3870 L-542866 3870 L-542053 3869 L-539945 3869 L-539897 3869 L-537968 3868 L-537643 3868 L-537508 3868 L-537005 3867 L-535592 3867 L-535089 3866 L-534567 3866 L-531007 3865 L-530272 3864 L-527848 3864 L-526558 3864 L-526151 3864 L-522999 3864 L-522844 3864 L-522824 3864 L-522457 3864 L-521199 3864 L-520484 3864 L-519594 3864 L-519187 3864 L-518258 3864 L-517150 3864 L-516846 3865 L-510598 3865 L-509650 3866 L-508024 3866 L-507522 3866 L-503847 3866 L-503014 3866 L-499061 3867 L-497649 3866 L-495160 3866 L-494484 3865 L-494445 3865 L-493574 3865 L-490363 3865 L-487500 3865 L-486532 3865 L-485410 3864 L-485391 3864 L-483766 3864 L-483302 3863 L-483210 3863 L-476841 3863 L-475893 3862 L-473435 3862 L-472563 3862 L-471327 3862 L-469326 3862 L-468928 3861 L-467492 3861 L-465466 3861 L-465253 3860 L-464072 3860 L-462564 3860 L-462544 3860 L-460532 3860 L-459662 3859 L-458791 3859 L-458206 3859 L-457669 3858 L-457012 3858 L-455773 3858 L-455213 3857 L-454032 3857 L-452794 3857 L-452756 3857 L-452369 3857 L-451827 3856 L-451053 3856 L-449931 3856 L-447842 3856 L-447508 3855 L-447223 3855 L-446294 3855 L-445811 3854 L-445076 3854 L-441444 3854 L-440317 3854 L-440162 3854 L-439136 3853 L-435421 3853 L-434204 3853 L-432385 3852 L-429600 3852 L-429038 3852 L-425150 3852 L-422674 3852 L-421339 3852 L-420835 3851 L-420352 3851 L-417663 3851 L-413891 3851 L-411434 3851 L-410254 3851 L-409615 3851 L-407256 3851 L-407178 3851 L-406131 3850 L-406037 3850 L-405534 3850 L-405089 3850 L-405031 3850 L-404818 3850 L-401858 3850 L-399150 3849 L-398996 3849 L-395475 3849 L-394952 3849 L-393985 3848 L-393635 3848 L-392592 3848 L-391663 3848 L-391238 3847 L-389729 3847 L-388762 3847 L-388743 3847 L-386847 3834 L-386731 3820 L-386683 3807 L-386658 3794 L-383654 3793 L-381624 3793 L-379863 3793 L-379496 3793 L-379050 3792 L-378683 3792 L-378269 3792 L-376284 3792 L-376071 3792 L-375916 3791 L-374311 3791 L-373189 3791 L-372241 3791 L-370984 3791 L-369339 3791 L-368159 3790 L-361570 3790 L-361523 3790 L-361118 3790 L-360072 3789 L-359937 3789 L-358254 3789 L-358235 3789 L-356898 3788 L-355662 3788 L-355507 3788 L-355133 3788 L-354927 3787 L-354618 3787 L-353844 3787 L-351522 3787 L-350865 3787 L-348737 3786 L-347014 3786 L-346821 3786 L-344267 3786 L-343991 3785 L-343803 3785 L-342970 3785 L-342198 3785 L-341500 3784 L-336499 3784 L-336123 3784 L-331871 3784 L-331384 3802 L-331364 3802 L-331285 3802 L-331210 3801 L-331190 3783 L-330377 3783 L-329624 3782 L-328404 3782 L-326973 3782 L-326876 3782 L-326702 3782 L-326347 3782 L-325038 3782 L-323181 3781 L-321479 3781 L-320976 3781 L-320710 3781 L-320317 3780 L-320183 3780 L-319273 3780 L-318897 3780 L-317968 3780 L-317629 3780 L-317590 3780 L-317552 3780 L-315636 3780 L-315463 3779 L-313934 3779 L-313606 3779 L-313490 3779 L-313083 3779 L-312734 3778 L-311091 3778 L-310540 3778 L-310297 3778 L-309755 3778 L-308924 3777 L-308382 3777 L-306848 3777 L-306756 3776 L-306719 3776 L-306583 3776 L-306196 3776 L-305171 3776 L-303294 3776 L-303198 3775 L-302598 3781 L-302231 3787 L-301746 3794 L-301708 3800 L-300934 3800 L-300877 3800 L-300702 3800 L-300509 3799 L-298903 3799 L-298883 3799 L-298728 3799 L-298613 3799 L-297433 3800 L-297278 3800 L-296611 3800 L-294163 3815 L-291648 3830 L-288979 3845 L-281279 3859 L-275612 3859 L-273397 3859 L-273374 3859 L-272400 3863 L-272380 3863 L-271516 3862 L-268776 3862 L-262978 3858 L-262824 3858 L-260038 3858 L-246430 3857 L-245684 3857 L-241273 3857 L-224927 3857 L-224695 3856 L-224158 3856 L-215698 3856 L-206993 3856 L-206780 3856 L-204808 3855 L-202022 3855 L-197534 3856 L-197379 3855 L-197210 3855 L-197070 3855 L-196779 3855 L-196741 3855 L-196470 3855 L-196298 3854 L-195888 3854 L-194767 3854 L-193587 3854 L-192310 3854 L-189447 3853 L-186526 3853 L-184534 3853 L-182987 3853 L-179949 3853 L-170624 3852 L-170100 3852 L-164376 3852 L-162869 3852 L-162055 3852 L-160371 3852 L-159650 3851 L-159482 3851 L-158437 3851 L-156369 3851 L-155007 3851 L-150564 3851 L-150467 3850 L-150428 3850 L-150409 3850 L-149577 3850 L-149499 3849 L-146926 3849 L-143677 3849 L-143522 3849 L-142574 3849 L-140833 3848 L-140118 3849 L-136577 3850 L-129999 3851 L-128582 3853 L-128561 3853 L-127611 3853 L-124137 3852 L-123383 3852 L-122822 3852 L-122040 3852 L-114535 3851 L-112937 3851 L-111363 3851 L-108178 3851 L-103845 3851 L-95275 3851 L-86529 3851 L-83455 3850 L-80189 3850 L-79642 3850 L-72505 3850 L-66837 3850 L-52773 3850 L-46762 3850 L-42055 3850 L-38052 3849 L-32945 3849 L-23231 3849 L-7660 3849 L-4577 3848 L-4275 3767 L-4255 3667 L-4237 3554 L-4217 3427 L-4197 3369 L-4178 3320 L-4159 3275 L-4132 3231 L-4111 3188 L-4083 3143 L-4048 3093 L-4034 3050 L-4021 3014 L-4002 2983 L-3984 2961 L-3964 2938 L-3946 2915 L-3926 2892 L-3906 2869 L-3885 2845 L-3868 2822 L-3850 2799 L-3829 2777 L-3809 2754 L-3791 2730 L-3772 2706 L-3752 2680 L-3732 2655 L-3714 2631 L-3695 2608 L-3674 2586 L-3649 2564 L-3634 2543 L-3617 2522 L-3597 2501 L-3578 2481 L-3559 2459 L-3540 2436 L-3520 2414 L-3499 2394 L-3482 2374 L-3463 2356 L-3442 2338 L-3422 2322 L-3404 2308 L-3385 2294 L-3365 2280 L-3347 2267 L-3327 2254 L-3308 2243 L-3288 2233 L-3269 2223 L-3249 2213 L-3231 2204 L-3203 2192 L-3182 2179 L-3155 2165 L-3121 2150 L-3106 2137 L-3093 2126 L-3075 2115 L-3056 2107 L-3036 2097 L-3017 2087 L-2998 2076 L-2978 2066 L-2957 2056 L-2940 2047 L-2921 2037 L-2901 2027 L-2881 2016 L-2862 2003 L-2844 1990 L-2824 1976 L-2804 1961 L-2785 1947 L-2766 1932 L-2745 1916 L-2721 1898 L-2706 1881 L-2689 1864 L-2669 1848 L-2650 1832 L-2630 1815 L-2612 1796 L-2592 1779 L-2571 1762 L-2553 1746 L-2534 1730 L-2514 1714 L-2494 1699 L-2476 1685 L-2457 1671 L-2437 1658 L-2418 1646 L-2398 1634 L-2380 1622 L-2360 1610 L-2340 1598 L-2321 1586 L-2302 1574 L-2273 1562 L-2254 1551 L-2226 1540 L-2189 1526 L-2173 1514 L-2161 1501 L-2144 1490 L-2127 1482 L-2107 1474 L-2089 1467 L-2069 1460 L-2049 1454 L-2029 1447 L-2011 1439 L-1993 1431 L-1972 1423 L-1952 1414 L-1934 1405 L-1915 1396 L-1895 1385 L-1876 1375 L-1857 1364 L-1838 1353 L-1817 1343 L-1792 1332 L-1778 1322 L-1761 1311 L-1741 1300 L-1722 1290 L-1702 1279 L-1683 1267 L-1663 1256 L-1643 1245 L-1624 1234 L-1606 1224 L-1585 1214 L-1565 1204 L-1547 1196 L-1528 1187 L-1508 1178 L-1490 1169 L-1470 1159 L-1451 1151 L-1431 1142 L-1412 1134 L-1392 1126 L-1373 1117 L-1345 1109 L-1325 1100 L-1297 1091 L-1261 1077 L-1247 1065 L-1234 1053 L-1216 1043 L-1198 1036 L-1178 1029 L-1160 1021 L-1140 1012 L-1120 1003 L-1099 993 L-1081 982 L-1064 971 L-1043 959 L-1023 947 L-1005 934 L-986 921 L-966 907 L-946 894 L-928 882 L-909 872 L-888 864 L-863 857 L-848 851 L-831 845 L-812 838 L-792 831 L-773 824 L-754 816 L-734 810 L-713 805 L-696 799 L-677 793 L-656 785 L-636 776 L-619 767 L-600 761 L-579 755 L-561 751 L-541 747 L-522 743 L-502 738 L-483 733 L-464 728 L-445 724 L-417 719 L-397 715 L-369 710 L-334 704 L-320 699 L-307 694 L-288 690 L-270 687 L-250 683 L-231 680 L-212 676 L-192 673 L-171 670 L-154 666 L-135 663 L-115 658 L-95 654 L-77 650 L-58 646 L-38 643 L-18 639 L0 636 L18 633 L40 629 L65 626 L79 623 L96 620 L116 617 L135 613 L154 610 L173 606 L193 601 L214 598 L232 594 L251 591 L271 588 L292 584 L309 581 L328 578 L348 575 L367 572 L387 569 L405 567 L425 565 L445 562 L464 560 L483 564 L511 568 L531 571 L559 575 L596 571 L612 569 L624 566 L642 564 L658 563 L678 561 L696 559 L716 556 L736 554 L757 553 L774 551 L792 549 L813 547 L833 545 L851 543 L870 541 L890 539 L910 536 L928 534 L947 533 L968 531 L993 529 L1007 527 L1025 525 L1044 523 L1064 521 L1083 519 L1102 517 L1122 514 L1143 511 L1160 508 L1179 505 L1200 502 L1220 500 L1238 498 L1257 495 L1276 493 L1295 490 L1315 487 L1334 485 L1354 482 L1373 479 L1393 478 L1411 476 L1439 473 L1460 471 L1487 468 L1522 465 L1536 463 L1549 461 L1568 458 L1587 456 L1607 454 L1625 452 L1644 450 L1664 448 L1685 445 L1702 443 L1721 441 L1741 439 L1761 436 L1780 433 L1798 429 L1818 426 L1839 422 L1857 419 L1875 416 L1897 413 L1922 410 L1936 407 L1954 403 L1973 400 L1993 397 L2012 394 L2031 391 L2051 388 L2071 385 L2089 382 L2108 379 L2128 376 L2149 374 L2166 371 L2185 369 L2205 367 L2224 365 L2244 363 L2262 361 L2282 360 L2302 358 L2321 357 L2340 355 L2367 354 L2388 352 L2416 350 L2451 347 L2465 343 L2478 340 L2497 337 L2515 335 L2535 334 L2553 331 L2573 330 L2593 328 L2614 325 L2631 323 L2649 321 L2670 318 L2690 316 L2708 313 L2727 311 L2747 308 L2767 305 L2785 303 L2804 301 L2826 299 L2850 297 L2865 295 L2882 293 L2902 291 L2921 289 L2940 286 L2959 283 L2979 280 L3000 276 L3017 273 L3036 270 L3057 267 L3078 265 L3095 263 L3114 261 L3134 260 L3153 258 L3172 257 L3191 255 L3211 253 L3231 252 L3250 250 L3268 249 L3296 247 L3317 246 L3344 244 L3379 243 L3393 241 L3406 240 L3425 239 L3443 237 L3463 236 L3482 235 L3501 234 L3521 233 L3542 232 L3559 231 L3578 229 L3598 228 L3618 226 L3636 225 L3655 224 L3675 223 L3695 222 L3714 221 L3733 220 L3754 219 L3778 218 L3793 217 L3810 215 L3830 214 L3849 213 L3869 212 L3887 211 L3907 209 L3928 207 L3946 204 L3965 202 L3985 199 L4006 197 L4023 195 L4042 194 L4062 192 L4081 190 L4101 189 L4120 187 L4139 186 L4159 184 L4178 183 L4197 182 L4226 181 L4273 180 L4310 178 L4325 177 L4338 175 L4355 174 L4372 174 L4392 173 L4410 172 L4430 171 L4450 170 L4470 169 L4488 169 L4506 168 L4527 167 L4546 166 L4565 165 L4584 164 L4604 163 L4624 162 L4642 160 L4661 159 L4682 157 L4707 155 L4722 153 L4739 151 L4758 149 L4777 147 L4797 145 L4816 144 L4836 142 L4857 140 L4875 139 L4893 137 L4914 135 L4934 134 L4952 133 L4971 132 L4991 130 L5010 129 L5029 128 L5048 127 L5068 125 L5087 124 L5107 123 L5126 121 L5154 120 L5174 118 L5202 116 L5239 114 L5253 111 L5266 108 L5283 106 L5301 105 L5321 103 L5339 102 L5359 101 L5379 100 L5400 99 L5417 98 L5435 96 L5456 94 L5476 92 L5494 90 L5513 88 L5533 85 L5554 83 L5571 80 L5590 78 L5611 77 L5636 75 L5651 73 L5669 71 L5687 70 L5707 68 L5726 67 L5745 64 L5765 62 L5786 60 L5803 58 L5822 57 L5843 55 L5864 54 L5880 52 L5899 51 L5919 49 L5938 48 L5958 47 L5977 45 L5997 44 L6017 43 L6035 42 L6054 40 L6082 997 L6102 995 L6130 994 L6166 991 L6180 32 L6194 30 L6211 28 L6229 27 L6249 27 L6268 26 L6287 25 L6307 23 L6328 21 L6345 19 L6364 17 L6384 15 L6405 13 L6423 10 L6442 7 L6461 5 L6482 3 L6500 1" />
</svg>
