<svg xmlns="http://www.w3.org/2000/svg" version="1.1" viewBox="0 0 6500 1000">
	<path fill="none" stroke="gold" stroke-width="125" stroke-linecap="round" stroke-linejoin="round" d="M0 606847  L-306065 606847 L-303461 604673 L-301793 602500 L-283464 598152 L-283293 593804 L-276136 589456 L-276102 589456 L-262672 587282 L-259750 589456 L-246409 582934 L-242240 574239 L-241080 563369 L-240461 552500 L-238449 545978 L-234677 541630 L-234077 537282 L-233748 532934 L-233535 528586 L-232994 524239 L-231756 506847 L-230577 489456 L-227712 472065 L-227190 454673 L-222334 450326 L-219397 445978 L-219354 441630 L-219046 437282 L-218794 432934 L-216199 428586 L-211944 428586 L-211926 428586 L-210689 428586 L-208811 428586 L-206858 424239 L-205910 419891 L-205639 415543 L-205329 413369 L-205231 411195 L-204401 411195 L-202370 413369 L-202080 393804 L-199933 385108 L-199778 372065 L-196121 359021 L-195870 365543 L-195772 363369 L-195255 369891 L-193104 380760 L-192175 391630 L-190649 402500 L-189409 402500 L-187863 400326 L-184901 395978 L-183779 391630 L-183470 387282 L-182259 385108 L-179252 409021 L-179232 406847 L-178885 404673 L-178672 402500 L-178546 372065 L-178304 367717 L-178266 363369 L-178246 359021 L-178227 354673 L-178168 350326 L-178110 345978 L-178092 341630 L-177649 337282 L-176409 332934 L-174863 328586 L-171476 324239 L-165749 322065 L-165548 319891 L-163912 317717 L-162190 315543 L-160758 313369 L-160526 311195 L-159810 309021 L-153678 306847 L-153310 302500 L-153156 298152 L-152578 293804 L-152285 289456 L-151318 285108 L-151008 280760 L-150409 276413 L-148803 276413 L-148068 276413 L-147758 278586 L-146990 278586 L-144954 274239 L-144528 269891 L-143716 267717 L-136287 263369 L-135764 259021 L-135591 254673 L-134856 250326 L-133288 245978 L-132882 243804 L-130657 239456 L-129709 237282 L-129284 235108 L-128954 235108 L-127910 232934 L-125802 228586 L-125550 224239 L-124931 219891 L-124118 217717 L-122010 213369 L-121962 209021 L-120034 204673 L-119708 200326 L-119573 195978 L-119070 193804 L-117657 189456 L-117154 180760 L-116632 174239 L-113073 165543 L-112338 156847 L-109913 156847 L-108623 152500 L-108216 150326 L-105064 150326 L-104909 150326 L-104889 152500 L-104522 152500 L-103264 154673 L-102549 156847 L-101659 156847 L-101252 156847 L-100324 156847 L-99215 154673 L-98912 163369 L-92663 167717 L-91716 172065 L-90089 176413 L-89588 178586 L-85912 180760 L-85080 182934 L-81126 185108 L-79715 178586 L-77225 174239 L-76549 169891 L-76510 167717 L-75639 167717 L-72428 165543 L-69565 163369 L-68597 161195 L-67476 156847 L-67457 152500 L-65832 148152 L-65367 141630 L-65276 139456 L-58906 137282 L-57958 135108 L-55501 132934 L-54628 128586 L-53392 126413 L-51391 124239 L-50994 119891 L-49557 115543 L-47531 113369 L-47318 109021 L-46138 106847 L-44629 104673 L-44609 102500 L-42597 100326 L-41727 95978 L-40857 93804 L-40272 89456 L-39735 85108 L-39077 80760 L-37839 76413 L-37278 74239 L-36097 72065 L-34859 69891 L-34821 67717 L-34434 65543 L-33892 61195 L-33119 59021 L-31996 56847 L-29907 52500 L-29574 48152 L-29288 43804 L-28359 41630 L-27876 37282 L-27141 35108 L-23510 32934 L-22382 30760 L-22227 28586 L-21201 24239 L-17487 22065 L-16269 17717 L-14451 13369 L-11665 11195 L-11103 6847 L-7216 6847 L-4739 4673 L-3404 4673 L-2901 2500 L-2418 326 L271 326 L4042 326 L6500 326" />
</svg>
