<svg xmlns="http://www.w3.org/2000/svg" version="1.1" viewBox="0 0 6500 1000">
	<path fill="none" stroke="gold" stroke-width="125" stroke-linecap="round" stroke-linejoin="round" d="M0 3345  L-727676 3345 L-725072 3345 L-723404 3345 L-705074 3345 L-704904 3344 L-697746 3344 L-697713 3344 L-684282 3344 L-681360 3344 L-668019 3344 L-663850 3343 L-662690 3342 L-662071 3342 L-660059 3341 L-656287 3341 L-655687 3341 L-655359 3340 L-655146 3340 L-654604 3340 L-653366 3339 L-652187 3337 L-649323 3336 L-648800 3335 L-643945 3335 L-641008 3334 L-640965 3334 L-640656 3334 L-640404 3334 L-637809 3333 L-633554 3333 L-633536 3333 L-632299 3333 L-630422 3333 L-628468 3333 L-627520 3333 L-627250 3332 L-626940 3332 L-626842 3332 L-626011 3332 L-623980 3332 L-623690 3331 L-621544 3330 L-621388 3329 L-617732 3329 L-617481 3329 L-617382 3329 L-616865 3329 L-614714 3330 L-613785 3331 L-612259 3332 L-611020 3332 L-609473 3331 L-606511 3331 L-605389 3331 L-605080 3331 L-603869 3330 L-600862 3332 L-600843 3332 L-600495 3332 L-600282 3332 L-600156 3329 L-599914 3329 L-599877 3329 L-599857 3329 L-599838 3328 L-599779 3328 L-599720 3328 L-599702 3327 L-599259 3327 L-598020 3327 L-596474 3327 L-593086 3326 L-587360 3326 L-587158 3326 L-585522 3326 L-583801 3326 L-582368 3326 L-582136 3325 L-581421 3325 L-575289 3325 L-574921 3325 L-574766 3325 L-574188 3324 L-573895 3324 L-572928 3324 L-572619 3323 L-572020 3323 L-570413 3323 L-569678 3323 L-569368 3323 L-568600 3323 L-566564 3323 L-566139 3323 L-565326 3322 L-557898 3322 L-557375 3322 L-557201 3322 L-556466 3321 L-554898 3321 L-554493 3321 L-552268 3321 L-551320 3320 L-550895 3320 L-550564 3320 L-549521 3320 L-547412 3320 L-547160 3320 L-546541 3319 L-545729 3319 L-543621 3319 L-543572 3319 L-541644 3318 L-541318 3318 L-541183 3318 L-540680 3318 L-539268 3317 L-538765 3317 L-538243 3316 L-534683 3316 L-533948 3315 L-531523 3315 L-530234 3315 L-529827 3315 L-526674 3315 L-526520 3315 L-526499 3315 L-526133 3315 L-524874 3315 L-524159 3315 L-523270 3315 L-522863 3315 L-521934 3315 L-520825 3315 L-520522 3316 L-514273 3316 L-513326 3316 L-511700 3316 L-511198 3317 L-507522 3317 L-506690 3317 L-502737 3317 L-501325 3317 L-498836 3316 L-498159 3316 L-498121 3316 L-497250 3316 L-494039 3316 L-491175 3316 L-490207 3315 L-489086 3315 L-489067 3315 L-487442 3314 L-486978 3314 L-486886 3314 L-480517 3314 L-479568 3314 L-477111 3313 L-476239 3313 L-475003 3313 L-473001 3313 L-472604 3313 L-471168 3312 L-469141 3312 L-468928 3312 L-467748 3312 L-466240 3312 L-466220 3311 L-464207 3311 L-463338 3311 L-462467 3311 L-461882 3311 L-461345 3310 L-460687 3310 L-459449 3310 L-458889 3310 L-457707 3309 L-456470 3309 L-456431 3309 L-456044 3309 L-455503 3309 L-454729 3309 L-453607 3308 L-451517 3308 L-451184 3308 L-450898 3307 L-449970 3307 L-449487 3307 L-448751 3307 L-445120 3307 L-443992 3307 L-443838 3306 L-442812 3306 L-439097 3306 L-437880 3306 L-436061 3305 L-433275 3305 L-432714 3305 L-428826 3305 L-426349 3305 L-425015 3305 L-424511 3305 L-424028 3305 L-421339 3305 L-417567 3305 L-415110 3305 L-413930 3305 L-413291 3304 L-410931 3304 L-410854 3304 L-409806 3304 L-409713 3304 L-409210 3304 L-408765 3304 L-408707 3304 L-408493 3304 L-405534 3303 L-402826 3303 L-402671 3303 L-399150 3303 L-398628 3303 L-397660 3302 L-397311 3302 L-396268 3302 L-395339 3302 L-394913 3301 L-393404 3301 L-392437 3301 L-392418 3301 L-390522 3290 L-390406 3280 L-390358 3269 L-390334 3258 L-387330 3258 L-385299 3258 L-383538 3257 L-383171 3257 L-382726 3257 L-382359 3257 L-381945 3256 L-379960 3256 L-379747 3256 L-379592 3256 L-377987 3256 L-376865 3256 L-375916 3256 L-374659 3256 L-373015 3255 L-371835 3255 L-365246 3255 L-365199 3255 L-364793 3255 L-363748 3255 L-363613 3254 L-361930 3254 L-361910 3254 L-360573 3254 L-359337 3254 L-359183 3253 L-358809 3253 L-358603 3253 L-358293 3253 L-357520 3253 L-355198 3252 L-354540 3252 L-352412 3252 L-350690 3252 L-350497 3252 L-347943 3252 L-347667 3251 L-347479 3251 L-346646 3251 L-345874 3251 L-345176 3251 L-340175 3251 L-339799 3250 L-335546 3250 L-335059 3265 L-335040 3265 L-334961 3264 L-334886 3264 L-334866 3249 L-334053 3249 L-333299 3249 L-332080 3249 L-330648 3249 L-330552 3249 L-330378 3249 L-330023 3248 L-328714 3248 L-326857 3248 L-325154 3248 L-324651 3248 L-324386 3247 L-323993 3247 L-323859 3247 L-322949 3247 L-322573 3247 L-321644 3247 L-321305 3247 L-321265 3247 L-321228 3247 L-319312 3247 L-319139 3246 L-317610 3246 L-317282 3246 L-317165 3246 L-316758 3246 L-316410 3246 L-314767 3245 L-314216 3245 L-313972 3245 L-313431 3245 L-312600 3245 L-312058 3245 L-310524 3244 L-310431 3244 L-310394 3244 L-310258 3244 L-309871 3244 L-308846 3244 L-306970 3243 L-306874 3243 L-306273 3248 L-305906 3253 L-305422 3258 L-305384 3263 L-304610 3263 L-304552 3263 L-304378 3263 L-304184 3263 L-302579 3262 L-302559 3262 L-302404 3262 L-302288 3263 L-301109 3263 L-300954 3263 L-300287 3263 L-297839 3275 L-295324 3287 L-292654 3299 L-284955 3311 L-279287 3311 L-277073 3311 L-277049 3311 L-276076 3314 L-276056 3314 L-275192 3313 L-272452 3313 L-266653 3310 L-266500 3310 L-263714 3310 L-250106 3310 L-249360 3309 L-244949 3309 L-228603 3309 L-228371 3309 L-227834 3309 L-219374 3308 L-210669 3308 L-210456 3308 L-208484 3308 L-205697 3308 L-201210 3308 L-201055 3308 L-200886 3308 L-200746 3308 L-200455 3307 L-200416 3307 L-200146 3307 L-199974 3307 L-199564 3307 L-198443 3307 L-197263 3307 L-195986 3306 L-193122 3306 L-190202 3306 L-188210 3306 L-186662 3306 L-183624 3306 L-174300 3305 L-173776 3305 L-168052 3305 L-166545 3305 L-165730 3305 L-164047 3305 L-163326 3305 L-163157 3305 L-162112 3304 L-160045 3304 L-158683 3304 L-154240 3304 L-154142 3304 L-154104 3304 L-154085 3304 L-153252 3303 L-153175 3303 L-150602 3303 L-147353 3303 L-147198 3303 L-146250 3303 L-144509 3302 L-143793 3303 L-140253 3304 L-133675 3305 L-132258 3306 L-132237 3306 L-131287 3306 L-127812 3305 L-127059 3305 L-126497 3305 L-125715 3305 L-118211 3305 L-116613 3305 L-115039 3304 L-111853 3304 L-107520 3304 L-98951 3304 L-90204 3304 L-87130 3304 L-83864 3304 L-83318 3303 L-76181 3303 L-70513 3303 L-56449 3303 L-50437 3303 L-45731 3303 L-41728 3303 L-36620 3303 L-26906 3303 L-11336 3302 L-8253 3302 L-7951 3237 L-7931 3156 L-7912 3064 L-7892 2962 L-7873 2915 L-7854 2875 L-7835 2839 L-7807 2803 L-7787 2769 L-7759 2732 L-7723 2691 L-7710 2657 L-7697 2628 L-7678 2603 L-7660 2585 L-7640 2567 L-7621 2548 L-7602 2530 L-7582 2511 L-7561 2491 L-7544 2472 L-7525 2454 L-7505 2436 L-7485 2418 L-7467 2399 L-7448 2379 L-7428 2358 L-7408 2338 L-7389 2318 L-7371 2300 L-7349 2282 L-7325 2264 L-7310 2247 L-7293 2230 L-7273 2213 L-7254 2197 L-7235 2179 L-7216 2161 L-7196 2143 L-7175 2127 L-7157 2111 L-7138 2096 L-7118 2082 L-7097 2068 L-7080 2057 L-7061 2045 L-7041 2034 L-7022 2024 L-7003 2014 L-6984 2004 L-6964 1996 L-6944 1989 L-6925 1981 L-6906 1973 L-6879 1963 L-6858 1953 L-6830 1942 L-6796 1929 L-6782 1919 L-6769 1910 L-6750 1901 L-6731 1894 L-6711 1887 L-6693 1878 L-6674 1870 L-6654 1861 L-6633 1853 L-6616 1846 L-6597 1838 L-6577 1830 L-6557 1821 L-6538 1811 L-6520 1800 L-6499 1789 L-6480 1777 L-6461 1765 L-6442 1754 L-6421 1740 L-6397 1726 L-6382 1712 L-6365 1698 L-6345 1685 L-6326 1672 L-6306 1658 L-6287 1644 L-6267 1630 L-6247 1616 L-6229 1603 L-6210 1590 L-6190 1577 L-6169 1565 L-6152 1553 L-6133 1543 L-6112 1531 L-6094 1522 L-6074 1512 L-6055 1503 L-6035 1493 L-6016 1483 L-5997 1474 L-5978 1464 L-5949 1454 L-5929 1446 L-5902 1436 L-5864 1425 L-5849 1415 L-5837 1405 L-5820 1396 L-5803 1389 L-5783 1383 L-5764 1377 L-5745 1372 L-5725 1367 L-5704 1361 L-5687 1355 L-5668 1348 L-5648 1342 L-5628 1335 L-5610 1327 L-5591 1320 L-5571 1311 L-5551 1303 L-5532 1294 L-5514 1285 L-5492 1277 L-5468 1268 L-5453 1260 L-5436 1251 L-5416 1243 L-5397 1234 L-5378 1225 L-5359 1216 L-5339 1207 L-5318 1198 L-5300 1189 L-5281 1181 L-5261 1173 L-5241 1165 L-5223 1158 L-5204 1151 L-5184 1143 L-5165 1136 L-5145 1129 L-5127 1122 L-5107 1115 L-5087 1108 L-5068 1102 L-5049 1095 L-5021 1088 L-5001 1081 L-4973 1073 L-4937 1062 L-4923 1052 L-4909 1043 L-4892 1034 L-4874 1029 L-4854 1024 L-4836 1017 L-4816 1010 L-4796 1002 L-4775 994 L-4756 985 L-4740 977 L-4719 967 L-4699 957 L-4681 947 L-4662 936 L-4642 925 L-4622 914 L-4604 905 L-4585 896 L-4564 890 L-4539 885 L-4524 880 L-4507 874 L-4488 869 L-4468 863 L-4449 857 L-4430 852 L-4410 846 L-4389 842 L-4372 838 L-4353 833 L-4332 826 L-4311 819 L-4294 812 L-4275 806 L-4255 802 L-4236 799 L-4217 795 L-4198 792 L-4178 788 L-4158 784 L-4139 780 L-4121 777 L-4093 773 L-4072 769 L-4044 765 L-4010 761 L-3996 756 L-3983 753 L-3964 750 L-3945 747 L-3926 744 L-3907 741 L-3887 738 L-3868 736 L-3847 733 L-3830 730 L-3811 727 L-3790 724 L-3770 720 L-3752 717 L-3734 714 L-3714 711 L-3693 708 L-3675 706 L-3656 703 L-3635 700 L-3610 698 L-3596 695 L-3579 693 L-3559 690 L-3540 687 L-3520 684 L-3501 681 L-3481 678 L-3461 675 L-3443 672 L-3424 669 L-3404 667 L-3383 664 L-3366 662 L-3347 659 L-3327 656 L-3308 654 L-3288 652 L-3270 650 L-3249 648 L-3230 646 L-3211 644 L-3192 648 L-3163 650 L-3144 653 L-3116 656 L-3078 653 L-3063 651 L-3050 649 L-3033 648 L-3017 646 L-2997 645 L-2978 643 L-2959 641 L-2939 640 L-2918 638 L-2901 637 L-2882 635 L-2862 634 L-2842 632 L-2824 630 L-2805 629 L-2785 627 L-2765 625 L-2747 624 L-2728 622 L-2706 621 L-2682 619 L-2667 618 L-2650 616 L-2630 614 L-2611 612 L-2592 611 L-2573 609 L-2553 607 L-2532 605 L-2514 602 L-2496 600 L-2475 598 L-2454 596 L-2437 594 L-2418 592 L-2398 590 L-2379 588 L-2360 585 L-2341 583 L-2321 581 L-2301 579 L-2282 578 L-2263 576 L-2236 574 L-2215 572 L-2187 570 L-2152 568 L-2139 566 L-2126 564 L-2107 562 L-2088 560 L-2068 559 L-2050 557 L-2030 555 L-2011 553 L-1990 552 L-1973 550 L-1954 548 L-1933 546 L-1913 544 L-1895 541 L-1876 539 L-1857 536 L-1836 533 L-1818 530 L-1799 528 L-1778 526 L-1753 523 L-1738 521 L-1721 518 L-1702 515 L-1682 513 L-1663 510 L-1644 507 L-1624 505 L-1603 503 L-1586 500 L-1567 498 L-1546 496 L-1526 494 L-1509 492 L-1490 490 L-1470 488 L-1451 487 L-1431 485 L-1412 484 L-1393 482 L-1373 481 L-1354 480 L-1335 479 L-1307 477 L-1287 476 L-1259 474 L-1223 472 L-1210 469 L-1196 467 L-1178 464 L-1160 463 L-1140 461 L-1121 459 L-1102 458 L-1082 456 L-1061 455 L-1044 453 L-1025 451 L-1005 449 L-985 447 L-967 445 L-948 443 L-928 441 L-907 438 L-890 437 L-871 435 L-849 434 L-824 432 L-810 430 L-793 429 L-773 427 L-754 425 L-734 423 L-716 420 L-696 418 L-674 415 L-657 412 L-638 410 L-618 408 L-597 406 L-580 404 L-561 403 L-541 402 L-522 400 L-502 399 L-484 398 L-464 396 L-444 395 L-425 394 L-406 393 L-379 391 L-358 390 L-330 389 L-296 388 L-282 387 L-269 386 L-250 385 L-231 384 L-212 383 L-193 381 L-174 381 L-154 380 L-133 379 L-116 378 L-97 377 L-77 376 L-57 375 L-38 374 L-20 373 L0 372 L20 371 L38 370 L57 370 L78 369 L103 368 L117 367 L135 366 L154 365 L173 364 L193 363 L212 362 L232 361 L252 359 L270 357 L289 355 L309 353 L330 351 L348 350 L367 348 L386 347 L405 346 L425 344 L444 343 L464 342 L483 340 L503 339 L521 339 L550 338 L598 337 L634 336 L649 334 L662 333 L679 333 L696 332 L716 332 L735 331 L754 330 L774 329 L795 328 L812 328 L831 327 L851 327 L871 326 L889 325 L908 324 L928 323 L948 322 L966 321 L985 320 L1007 319 L1031 317 L1046 315 L1063 314 L1083 312 L1102 311 L1121 309 L1140 308 L1160 307 L1181 305 L1199 304 L1218 302 L1238 301 L1258 300 L1276 299 L1295 298 L1315 297 L1334 296 L1354 295 L1372 294 L1392 293 L1412 292 L1431 291 L1450 290 L1478 289 L1498 287 L1526 286 L1563 284 L1578 281 L1590 279 L1608 277 L1625 276 L1645 275 L1663 274 L1683 274 L1703 273 L1724 272 L1741 271 L1759 269 L1780 268 L1800 266 L1818 265 L1837 262 L1857 260 L1878 258 L1895 257 L1914 255 L1936 254 L1960 252 L1976 250 L1993 249 L2012 248 L2032 247 L2050 245 L2069 244 L2089 242 L2111 240 L2127 239 L2147 238 L2167 236 L2188 235 L2205 234 L2224 233 L2244 232 L2263 231 L2282 229 L2301 228 L2321 227 L2341 226 L2360 225 L2379 224 L2406 997 L2427 996 L2455 995 L2491 993 L2505 217 L2518 216 L2536 215 L2554 214 L2573 213 L2592 212 L2611 211 L2631 210 L2653 209 L2669 207 L2688 205 L2709 204 L2729 202 L2747 200 L2766 198 L2786 196 L2807 194 L2824 193 L2843 192 L2864 190 L2889 189 L2904 187 L2934 185 L2974 182 L2997 180 L3026 177 L3042 175 L3056 173 L3075 172 L3096 171 L3117 170 L3133 169 L3152 167 L3172 166 L3191 166 L3211 165 L3230 164 L3250 164 L3270 163 L3288 162 L3307 161 L3335 160 L3355 159 L3383 158 L3418 156 L3432 155 L3464 154 L3482 153 L3502 152 L3521 151 L3540 151 L3560 150 L3581 149 L3598 148 L3616 146 L3637 144 L3658 140 L3675 136 L3694 133 L3714 130 L3734 128 L3752 126 L3771 124 L3793 123 L3818 121 L3833 120 L3850 119 L3869 117 L3889 116 L3907 114 L3927 113 L3946 111 L3968 110 L3984 108 L4004 106 L4024 105 L4045 104 L4062 103 L4081 102 L4101 101 L4120 101 L4139 99 L4159 98 L4178 97 L4198 96 L4217 95 L4236 94 L4263 93 L4284 92 L4354 90 L4382 88 L4397 86 L4411 83 L4431 82 L4449 81 L4468 79 L4488 78 L4509 77 L4526 76 L4545 75 L4566 74 L4586 74 L4604 72 L4623 71 L4643 70 L4663 68 L4681 67 L4700 66 L4721 65 L4746 64 L4761 63 L4779 62 L4797 60 L4817 59 L4836 57 L4855 56 L4875 55 L4896 54 L4913 53 L4932 52 L4953 51 L4974 50 L4990 49 L5049 48 L5068 47 L5087 46 L5107 45 L5127 44 L5146 43 L5164 43 L5192 42 L5212 42 L5240 41 L5277 40 L5291 39 L5304 38 L5322 38 L5339 37 L5359 37 L5378 36 L5397 36 L5417 36 L5438 35 L5455 35 L5474 34 L5494 34 L5515 33 L5533 33 L5552 32 L5571 31 L5592 30 L5610 29 L5628 28 L5650 28 L5675 27 L5689 27 L5706 26 L5726 25 L5746 24 L5764 24 L5784 23 L5803 21 L5825 20 L5842 19 L5861 18 L5881 18 L5902 17 L5919 17 L5938 16 L5958 16 L5977 15 L5997 15 L6015 15 L6035 14 L6055 14 L6074 13 L6093 13 L6120 13 L6141 12 L6169 11 L6204 11 L6218 10 L6231 9 L6250 9 L6268 8 L6288 8 L6306 7 L6345 7 L6366 6 L6383 6 L6402 5 L6422 5 L6442 4 L6461 3 L6479 2 L6500 1" />
</svg>
