<svg xmlns="http://www.w3.org/2000/svg" version="1.1" viewBox="0 0 6500 1000">
	<path fill="none" stroke="gold" stroke-width="125" stroke-linecap="round" stroke-linejoin="round" d="M0 1023  L-715178 1023 L-712574 1023 L-710906 1023 L-692577 1023 L-692407 1022 L-685249 1022 L-685216 1022 L-671785 1022 L-668863 1022 L-655522 1022 L-651353 1022 L-650193 1021 L-649574 1021 L-647562 1021 L-643790 1020 L-643190 1020 L-642862 1020 L-642649 1020 L-642107 1020 L-640869 1019 L-639690 1019 L-636826 1018 L-636303 1017 L-631448 1017 L-628511 1017 L-628468 1017 L-628159 1017 L-627907 1017 L-625312 1016 L-621057 1016 L-621039 1016 L-619802 1016 L-617925 1016 L-615971 1016 L-615023 1016 L-614752 1016 L-614443 1016 L-614345 1016 L-613514 1016 L-611483 1016 L-611193 1015 L-609047 1015 L-608891 1014 L-605235 1014 L-604984 1014 L-604885 1014 L-604368 1014 L-602217 1015 L-601288 1015 L-599762 1015 L-598523 1015 L-596976 1015 L-594014 1015 L-592892 1015 L-592583 1015 L-591372 1015 L-588365 1016 L-588346 1016 L-587998 1015 L-587785 1015 L-587659 1014 L-587417 1014 L-587379 1014 L-587360 1014 L-587341 1014 L-587282 1013 L-587223 1013 L-587205 1013 L-586762 1013 L-585523 1013 L-583977 1013 L-580589 1013 L-574863 1012 L-574661 1012 L-573025 1012 L-571303 1012 L-569871 1012 L-569639 1012 L-568924 1012 L-562792 1012 L-562424 1012 L-562269 1012 L-561691 1011 L-561398 1011 L-560431 1011 L-560121 1011 L-559522 1011 L-557916 1011 L-557181 1011 L-556871 1011 L-556103 1011 L-554067 1011 L-553642 1011 L-552829 1010 L-545400 1010 L-544877 1010 L-544704 1010 L-543969 1010 L-542401 1010 L-541995 1010 L-539770 1009 L-538823 1009 L-538398 1009 L-538067 1009 L-537023 1009 L-534915 1009 L-534663 1009 L-534044 1009 L-533232 1009 L-531124 1008 L-531075 1008 L-529147 1008 L-528821 1008 L-528686 1008 L-528183 1008 L-526770 1008 L-526267 1007 L-525746 1007 L-522186 1007 L-521451 1006 L-519026 1006 L-517737 1006 L-517330 1006 L-514177 1006 L-514022 1006 L-514002 1006 L-513636 1006 L-512377 1006 L-511662 1006 L-510772 1006 L-510365 1006 L-509437 1006 L-508328 1006 L-508025 1007 L-501776 1007 L-500829 1007 L-499203 1007 L-498701 1007 L-495025 1007 L-494193 1007 L-490240 1007 L-488828 1007 L-486339 1007 L-485662 1007 L-485623 1007 L-484753 1007 L-481541 1007 L-478678 1007 L-477710 1007 L-476589 1006 L-476570 1006 L-474945 1006 L-474481 1006 L-474389 1006 L-468020 1006 L-467071 1006 L-464614 1006 L-463742 1005 L-462506 1005 L-460504 1005 L-460107 1005 L-458671 1005 L-456644 1005 L-456431 1005 L-455251 1005 L-453743 1004 L-453722 1004 L-451710 1004 L-450841 1004 L-449970 1004 L-449385 1004 L-448848 1004 L-448190 1004 L-446952 1003 L-446391 1003 L-445210 1003 L-443973 1003 L-443934 1003 L-443547 1003 L-443006 1003 L-442232 1003 L-441110 1003 L-439020 1003 L-438687 1002 L-438401 1002 L-437473 1002 L-436990 1002 L-436254 1002 L-432623 1002 L-431495 1002 L-431341 1002 L-430315 1002 L-426600 1001 L-425382 1001 L-423564 1001 L-420778 1001 L-420217 1001 L-416329 1001 L-413852 1001 L-412517 1001 L-412014 1001 L-411531 1001 L-408842 1001 L-405070 1001 L-402613 1001 L-401433 1001 L-400794 1001 L-398434 1000 L-398357 1000 L-397309 1000 L-397216 1000 L-396713 1000 L-396267 1000 L-396210 1000 L-395996 1000 L-393037 1000 L-390329 1000 L-390174 1000 L-386653 1000 L-386130 1000 L-385163 999 L-384814 999 L-383770 999 L-382842 999 L-382416 999 L-380907 999 L-379940 999 L-379921 999 L-378025 993 L-377909 987 L-377861 981 L-377837 975 L-374833 975 L-372802 975 L-371041 975 L-370674 975 L-370229 975 L-369862 975 L-369448 974 L-367463 974 L-367250 974 L-367095 974 L-365489 974 L-364368 974 L-363419 974 L-362162 974 L-360518 974 L-359338 974 L-352748 974 L-352702 974 L-352296 973 L-351251 973 L-351116 973 L-349433 973 L-349413 973 L-348076 973 L-346840 973 L-346686 973 L-346312 973 L-346106 972 L-345796 972 L-345022 972 L-342701 972 L-342043 972 L-339915 972 L-338193 972 L-337999 972 L-335446 972 L-335170 972 L-334982 971 L-334149 971 L-333377 971 L-332679 971 L-327678 971 L-327302 971 L-323049 971 L-322562 979 L-322543 979 L-322464 979 L-322389 979 L-322369 970 L-321556 970 L-320802 970 L-319583 970 L-318151 970 L-318055 970 L-317880 970 L-317526 970 L-316217 970 L-314360 970 L-312657 970 L-312154 970 L-311889 969 L-311496 969 L-311362 969 L-310452 969 L-310076 969 L-309147 969 L-308808 969 L-308768 969 L-308731 969 L-306815 969 L-306641 969 L-305113 969 L-304784 969 L-304668 969 L-304261 969 L-303913 968 L-302269 968 L-301719 968 L-301475 968 L-300934 968 L-300103 968 L-299561 968 L-298027 968 L-297934 968 L-297897 968 L-297761 967 L-297374 967 L-296349 967 L-294473 967 L-294377 967 L-293776 970 L-293409 972 L-292925 975 L-292887 978 L-292113 978 L-292055 978 L-291881 978 L-291687 978 L-290082 978 L-290062 977 L-289907 978 L-289791 978 L-288612 978 L-288457 978 L-287790 978 L-285342 985 L-282827 991 L-280157 998 L-272458 1004 L-266790 1004 L-264576 1004 L-264552 1004 L-263579 1006 L-263559 1006 L-262695 1006 L-259955 1005 L-254156 1004 L-254003 1004 L-251217 1004 L-237609 1003 L-236863 1003 L-232452 1003 L-216106 1003 L-215874 1003 L-215336 1003 L-206877 1003 L-198171 1003 L-197959 1003 L-195987 1003 L-193200 1003 L-188713 1003 L-188558 1003 L-188389 1003 L-188249 1002 L-187958 1002 L-187919 1002 L-187648 1002 L-187477 1002 L-187067 1002 L-185946 1002 L-184766 1002 L-183489 1002 L-180625 1002 L-177705 1002 L-175713 1001 L-174165 1001 L-171127 1001 L-161803 1001 L-161279 1001 L-155555 1001 L-154048 1001 L-153233 1001 L-151550 1001 L-150829 1001 L-150660 1001 L-149615 1001 L-147548 1001 L-146186 1000 L-141743 1000 L-141645 1000 L-141607 1000 L-141588 1000 L-140755 1000 L-140678 1000 L-138105 1000 L-134856 1000 L-134701 1000 L-133753 1000 L-132012 999 L-131296 1000 L-127755 1000 L-121178 1001 L-119761 1001 L-119740 1001 L-118790 1001 L-115315 1001 L-114562 1001 L-114000 1001 L-113218 1001 L-105714 1001 L-104116 1001 L-102542 1001 L-99356 1001 L-95023 1000 L-86454 1000 L-77707 1000 L-74633 1000 L-71367 1000 L-70821 1000 L-63684 1000 L-58016 1000 L-43952 1000 L-37940 1000 L-33234 1000 L-29231 1000 L-24123 1000 L-14409 1000 L1160 999 L4243 999 L4545 963 L4565 919 L4584 869 L4604 813 L4623 788 L4642 766 L4661 746 L4689 727 L4710 708 L4737 688 L4773 666 L4786 647 L4799 631 L4818 617 L4837 607 L4857 597 L4875 587 L4894 577 L4914 567 L4935 556 L4952 546 L4971 536 L4991 526 L5011 516 L5030 505 L5048 495 L5068 483 L5088 472 L5107 462 L5126 451 L5147 442 L5172 432 L5186 423 L5203 414 L5223 404 L5242 395 L5261 385 L5280 375 L5300 366 L5321 357 L5339 348 L5358 340 L5378 332 L5399 325 L5416 319 L5435 313 L5455 306 L5474 301 L5494 295 L5512 290 L5532 286 L5552 281 L5571 277 L5590 273 L5617 268 L5638 262 L5666 256 L5700 249 L5714 243 L5727 238 L5746 234 L5765 230 L5785 226 L5803 221 L5823 217 L5842 212 L5863 208 L5880 204 L5899 199 L5920 195 L5939 190 L5958 184 L5977 178 L5997 172 L6016 166 L6035 159 L6054 153 L6075 146 L6099 138 L6114 130 L6131 123 L6151 116 L6170 108 L6190 101 L6209 93 L6229 85 L6249 78 L6267 71 L6286 63 L6306 57 L6327 50 L6345 43 L6364 38 L6384 32 L6402 27 L6422 21 L6441 16 L6461 11 L6480 5 L6500 0" />
</svg>
