<svg xmlns="http://www.w3.org/2000/svg" version="1.1" viewBox="0 0 6500 1000">
	<path fill="none" stroke="gold" stroke-width="125" stroke-linecap="round" stroke-linejoin="round" d="M0 3347  L-727656 3347 L-725052 3346 L-723384 3346 L-705054 3346 L-704884 3346 L-697726 3345 L-697693 3345 L-684262 3345 L-681340 3345 L-667999 3345 L-663830 3344 L-662670 3344 L-662051 3343 L-660039 3343 L-656267 3342 L-655667 3342 L-655339 3342 L-655126 3341 L-654584 3341 L-653346 3340 L-652167 3339 L-649303 3338 L-648780 3336 L-643925 3336 L-640988 3336 L-640945 3336 L-640636 3335 L-640384 3335 L-637789 3335 L-633534 3335 L-633516 3335 L-632279 3335 L-630402 3335 L-628448 3334 L-627500 3334 L-627230 3334 L-626920 3334 L-626822 3333 L-625991 3333 L-623960 3334 L-623670 3332 L-621524 3332 L-621368 3331 L-617712 3330 L-617461 3330 L-617362 3330 L-616845 3331 L-614694 3331 L-613765 3332 L-612239 3333 L-611000 3333 L-609453 3333 L-606491 3332 L-605369 3332 L-605060 3332 L-603849 3332 L-600842 3333 L-600823 3333 L-600475 3333 L-600262 3333 L-600136 3331 L-599894 3331 L-599857 3330 L-599837 3330 L-599818 3330 L-599759 3329 L-599700 3329 L-599682 3329 L-599239 3329 L-598000 3328 L-596454 3328 L-593066 3328 L-587340 3327 L-587138 3327 L-585502 3327 L-583780 3327 L-582348 3327 L-582116 3327 L-581401 3327 L-575269 3326 L-574901 3326 L-574746 3326 L-574168 3326 L-573875 3325 L-572908 3325 L-572599 3325 L-572000 3324 L-570393 3324 L-569658 3324 L-569348 3325 L-568580 3325 L-566544 3324 L-566119 3324 L-565306 3324 L-557877 3324 L-557354 3323 L-557181 3323 L-556446 3323 L-554878 3322 L-554473 3322 L-552248 3322 L-551300 3322 L-550875 3322 L-550544 3322 L-549501 3322 L-547392 3321 L-547140 3321 L-546521 3321 L-545709 3320 L-543601 3320 L-543552 3320 L-541624 3320 L-541298 3319 L-541163 3319 L-540660 3319 L-539247 3319 L-538744 3318 L-538223 3318 L-534663 3317 L-533928 3316 L-531503 3316 L-530214 3316 L-529807 3316 L-526654 3316 L-526500 3316 L-526479 3316 L-526113 3316 L-524854 3316 L-524139 3316 L-523249 3316 L-522843 3316 L-521914 3316 L-520805 3316 L-520502 3317 L-514253 3317 L-513306 3317 L-511680 3318 L-511178 3318 L-507502 3318 L-506670 3318 L-502717 3318 L-501305 3318 L-498816 3318 L-498139 3317 L-498101 3317 L-497230 3317 L-494019 3317 L-491155 3317 L-490187 3317 L-489066 3316 L-489047 3316 L-487422 3316 L-486958 3315 L-486866 3315 L-480497 3315 L-479548 3315 L-477091 3315 L-476219 3315 L-474983 3314 L-472981 3314 L-472584 3314 L-471148 3314 L-469121 3313 L-468908 3313 L-467728 3313 L-466220 3313 L-466200 3313 L-464187 3313 L-463318 3312 L-462447 3312 L-461862 3312 L-461325 3312 L-460667 3311 L-459429 3311 L-458868 3311 L-457687 3311 L-456450 3311 L-456411 3310 L-456024 3310 L-455483 3310 L-454709 3310 L-453587 3310 L-451497 3309 L-451164 3309 L-450878 3309 L-449950 3309 L-449467 3308 L-448731 3308 L-445100 3308 L-443972 3308 L-443818 3308 L-442792 3308 L-439077 3307 L-437860 3307 L-436041 3307 L-433255 3307 L-432694 3306 L-428806 3306 L-426329 3306 L-424995 3306 L-424491 3306 L-424008 3306 L-421319 3306 L-417547 3306 L-415090 3306 L-413910 3306 L-413271 3306 L-410911 3305 L-410834 3305 L-409786 3305 L-409693 3305 L-409190 3305 L-408744 3305 L-408687 3305 L-408473 3305 L-405514 3305 L-402806 3304 L-402651 3304 L-399130 3304 L-398607 3304 L-397640 3304 L-397291 3303 L-396248 3303 L-395319 3303 L-394893 3303 L-393384 3303 L-392417 3303 L-392398 3302 L-390502 3292 L-390386 3281 L-390338 3270 L-390314 3259 L-387310 3259 L-385279 3259 L-383518 3259 L-383151 3259 L-382706 3258 L-382339 3258 L-381925 3258 L-379940 3258 L-379727 3258 L-379572 3258 L-377967 3258 L-376845 3257 L-375896 3257 L-374639 3257 L-372995 3257 L-371815 3256 L-365225 3256 L-365179 3256 L-364773 3256 L-363728 3256 L-363593 3256 L-361910 3255 L-361890 3255 L-360553 3255 L-359317 3255 L-359163 3255 L-358789 3254 L-358583 3254 L-358273 3254 L-357499 3254 L-355178 3254 L-354520 3254 L-352392 3253 L-350670 3253 L-350476 3253 L-347923 3253 L-347647 3253 L-347459 3252 L-346626 3252 L-345854 3252 L-345156 3252 L-340155 3252 L-339779 3252 L-335526 3251 L-335039 3266 L-335020 3266 L-334941 3266 L-334866 3266 L-334846 3251 L-334033 3251 L-333279 3250 L-332060 3250 L-330628 3250 L-330532 3250 L-330358 3250 L-330003 3250 L-328694 3249 L-326837 3249 L-325134 3249 L-324631 3249 L-324366 3249 L-323973 3249 L-323839 3248 L-322929 3248 L-322553 3248 L-321624 3248 L-321285 3248 L-321245 3248 L-321208 3248 L-319292 3248 L-319119 3248 L-317590 3248 L-317262 3248 L-317145 3247 L-316738 3247 L-316390 3247 L-314747 3247 L-314196 3247 L-313952 3246 L-313411 3246 L-312580 3246 L-312038 3246 L-310504 3246 L-310411 3245 L-310374 3245 L-310238 3245 L-309851 3245 L-308826 3245 L-306950 3245 L-306854 3245 L-306253 3249 L-305886 3254 L-305402 3259 L-305364 3264 L-304590 3265 L-304532 3264 L-304358 3264 L-304164 3264 L-302559 3264 L-302539 3263 L-302384 3264 L-302268 3264 L-301089 3264 L-300934 3265 L-300267 3265 L-297819 3276 L-295304 3289 L-292634 3301 L-284935 3312 L-279267 3312 L-277053 3312 L-277029 3312 L-276056 3315 L-276036 3315 L-275172 3315 L-272432 3315 L-266633 3312 L-266480 3311 L-263694 3311 L-250086 3311 L-249340 3311 L-244929 3310 L-228583 3310 L-228351 3310 L-227814 3310 L-219354 3310 L-210649 3310 L-210436 3309 L-208464 3309 L-205677 3309 L-201190 3309 L-201035 3309 L-200866 3309 L-200726 3309 L-200435 3309 L-200396 3309 L-200126 3309 L-199954 3308 L-199544 3308 L-198423 3308 L-197243 3308 L-195966 3308 L-193102 3308 L-190182 3308 L-188190 3307 L-186642 3307 L-183604 3307 L-174280 3307 L-173756 3307 L-168032 3307 L-166525 3307 L-165710 3307 L-164027 3306 L-163306 3306 L-163137 3306 L-162092 3306 L-160025 3306 L-158663 3305 L-154220 3305 L-154122 3305 L-154084 3305 L-154065 3305 L-153232 3305 L-153155 3304 L-150582 3304 L-147333 3304 L-147178 3304 L-146230 3304 L-144489 3304 L-143773 3304 L-140232 3305 L-133655 3306 L-132238 3307 L-132217 3307 L-131267 3307 L-127792 3307 L-127039 3307 L-126477 3306 L-125695 3306 L-118191 3306 L-116593 3306 L-115019 3306 L-111833 3306 L-107500 3305 L-98931 3305 L-90184 3305 L-87110 3305 L-83844 3305 L-83298 3305 L-76161 3305 L-70493 3305 L-56429 3305 L-50417 3305 L-45711 3305 L-41708 3304 L-36600 3304 L-26886 3304 L-11316 3304 L-8233 3303 L-7931 3238 L-7911 3157 L-7892 3065 L-7872 2963 L-7853 2916 L-7834 2876 L-7815 2840 L-7787 2804 L-7767 2770 L-7739 2733 L-7703 2692 L-7690 2658 L-7677 2629 L-7658 2604 L-7640 2586 L-7620 2568 L-7601 2549 L-7582 2530 L-7562 2512 L-7541 2492 L-7524 2473 L-7505 2455 L-7485 2437 L-7465 2419 L-7447 2399 L-7428 2379 L-7408 2358 L-7388 2338 L-7369 2319 L-7351 2300 L-7329 2283 L-7305 2265 L-7290 2248 L-7273 2231 L-7253 2214 L-7234 2198 L-7215 2180 L-7196 2161 L-7176 2144 L-7155 2127 L-7137 2111 L-7118 2096 L-7098 2082 L-7077 2069 L-7060 2057 L-7041 2046 L-7021 2035 L-7002 2024 L-6983 2014 L-6964 2005 L-6944 1997 L-6924 1989 L-6905 1981 L-6886 1974 L-6859 1964 L-6838 1954 L-6810 1942 L-6776 1930 L-6762 1919 L-6749 1910 L-6730 1902 L-6711 1895 L-6691 1887 L-6673 1879 L-6654 1870 L-6634 1862 L-6613 1854 L-6596 1847 L-6577 1839 L-6557 1831 L-6537 1822 L-6518 1811 L-6500 1800 L-6479 1789 L-6460 1777 L-6441 1766 L-6422 1754 L-6401 1741 L-6377 1726 L-6362 1712 L-6345 1699 L-6325 1686 L-6306 1673 L-6286 1659 L-6267 1644 L-6247 1630 L-6227 1616 L-6209 1603 L-6190 1590 L-6170 1578 L-6149 1565 L-6132 1554 L-6112 1543 L-6092 1532 L-6074 1523 L-6054 1513 L-6035 1503 L-6015 1494 L-5996 1484 L-5977 1474 L-5958 1464 L-5929 1455 L-5909 1446 L-5881 1437 L-5844 1426 L-5829 1415 L-5817 1405 L-5800 1396 L-5783 1390 L-5763 1384 L-5744 1378 L-5725 1372 L-5705 1367 L-5684 1361 L-5667 1355 L-5648 1349 L-5628 1342 L-5608 1335 L-5590 1328 L-5571 1320 L-5551 1312 L-5531 1303 L-5512 1294 L-5494 1286 L-5472 1277 L-5448 1268 L-5433 1260 L-5416 1252 L-5396 1243 L-5377 1234 L-5358 1225 L-5339 1216 L-5319 1207 L-5298 1198 L-5280 1189 L-5261 1181 L-5241 1173 L-5221 1165 L-5203 1158 L-5184 1151 L-5164 1144 L-5145 1136 L-5125 1129 L-5107 1122 L-5087 1115 L-5067 1108 L-5048 1102 L-5029 1095 L-5001 1088 L-4981 1081 L-4953 1073 L-4917 1062 L-4903 1052 L-4889 1043 L-4872 1034 L-4854 1029 L-4834 1024 L-4816 1017 L-4796 1010 L-4776 1002 L-4755 994 L-4736 985 L-4719 977 L-4699 967 L-4679 957 L-4661 947 L-4642 936 L-4622 925 L-4602 914 L-4584 905 L-4565 896 L-4544 890 L-4519 885 L-4504 880 L-4486 874 L-4468 869 L-4448 863 L-4429 857 L-4410 851 L-4390 846 L-4369 842 L-4352 838 L-4332 833 L-4312 826 L-4291 819 L-4274 812 L-4255 806 L-4235 802 L-4216 799 L-4197 795 L-4178 792 L-4158 788 L-4138 784 L-4119 780 L-4101 777 L-4073 773 L-4052 769 L-4024 765 L-3990 760 L-3976 756 L-3963 753 L-3944 750 L-3925 747 L-3906 744 L-3887 741 L-3867 738 L-3848 736 L-3827 733 L-3810 730 L-3791 727 L-3770 724 L-3750 720 L-3732 717 L-3714 714 L-3694 711 L-3673 708 L-3655 706 L-3636 703 L-3615 700 L-3590 697 L-3576 695 L-3558 692 L-3539 690 L-3520 687 L-3500 684 L-3481 681 L-3461 678 L-3440 675 L-3423 672 L-3404 669 L-3384 666 L-3363 664 L-3346 661 L-3327 659 L-3307 656 L-3288 654 L-3268 651 L-3250 650 L-3229 648 L-3210 646 L-3191 644 L-3172 647 L-3143 650 L-3124 653 L-3096 656 L-3058 653 L-3043 651 L-3030 649 L-3013 648 L-2997 646 L-2977 645 L-2958 643 L-2939 641 L-2919 639 L-2898 638 L-2881 637 L-2862 635 L-2842 634 L-2822 632 L-2804 630 L-2785 628 L-2765 627 L-2745 625 L-2727 623 L-2708 622 L-2686 621 L-2662 619 L-2647 617 L-2630 616 L-2610 614 L-2591 612 L-2572 611 L-2553 609 L-2533 607 L-2512 604 L-2494 602 L-2476 600 L-2455 598 L-2434 596 L-2417 594 L-2398 591 L-2378 589 L-2359 588 L-2340 585 L-2321 583 L-2301 581 L-2281 579 L-2262 577 L-2243 576 L-2216 574 L-2195 572 L-2167 570 L-2132 567 L-2119 565 L-2106 564 L-2087 562 L-2068 560 L-2048 559 L-2030 557 L-2010 555 L-1991 553 L-1969 551 L-1952 550 L-1934 548 L-1913 546 L-1893 544 L-1875 541 L-1856 538 L-1836 536 L-1816 533 L-1798 530 L-1779 528 L-1758 525 L-1733 523 L-1718 520 L-1701 517 L-1682 515 L-1662 513 L-1643 510 L-1624 507 L-1604 505 L-1583 502 L-1566 500 L-1547 498 L-1526 495 L-1506 493 L-1489 492 L-1470 490 L-1450 488 L-1431 487 L-1411 485 L-1392 483 L-1373 482 L-1353 481 L-1334 480 L-1315 479 L-1287 477 L-1267 476 L-1239 474 L-1203 471 L-1189 469 L-1176 466 L-1158 464 L-1140 462 L-1120 461 L-1101 459 L-1082 458 L-1062 456 L-1041 454 L-1024 453 L-1005 451 L-985 449 L-965 447 L-947 444 L-928 442 L-908 440 L-887 438 L-870 436 L-851 435 L-829 433 L-804 431 L-790 430 L-773 428 L-753 426 L-734 425 L-714 422 L-696 420 L-676 417 L-654 414 L-637 412 L-618 409 L-598 407 L-577 405 L-560 404 L-541 402 L-521 401 L-502 400 L-482 399 L-464 397 L-444 396 L-424 395 L-405 394 L-386 392 L-359 391 L-338 390 L-310 389 L-276 388 L-262 386 L-249 385 L-230 384 L-211 383 L-192 382 L-173 381 L-154 380 L-134 380 L-113 379 L-96 378 L-77 377 L-57 375 L-37 374 L-18 373 L0 372 L20 371 L40 371 L58 370 L77 369 L98 369 L123 368 L137 367 L155 365 L174 364 L193 363 L213 362 L232 362 L252 360 L272 359 L290 356 L309 354 L329 352 L350 351 L368 349 L387 348 L407 346 L425 345 L445 344 L464 342 L484 341 L503 340 L523 339 L541 338 L570 337 L618 336 L654 335 L669 334 L682 333 L699 332 L716 332 L736 331 L755 331 L774 330 L794 329 L815 328 L832 327 L851 327 L871 326 L891 325 L909 325 L928 324 L948 323 L968 322 L987 321 L1005 319 L1027 318 L1051 316 L1066 315 L1083 313 L1103 312 L1122 310 L1142 309 L1160 308 L1180 306 L1201 305 L1219 303 L1238 302 L1258 301 L1278 299 L1296 299 L1315 298 L1335 297 L1354 296 L1374 295 L1392 294 L1412 292 L1432 291 L1451 290 L1470 289 L1498 288 L1518 287 L1546 285 L1583 283 L1598 281 L1610 279 L1628 277 L1645 276 L1665 275 L1683 274 L1703 273 L1723 272 L1744 271 L1761 270 L1779 269 L1800 268 L1821 266 L1838 264 L1857 262 L1877 260 L1898 258 L1915 256 L1934 255 L1956 253 L1981 252 L1996 250 L2013 249 L2032 247 L2052 246 L2070 245 L2089 243 L2109 241 L2131 240 L2147 238 L2167 237 L2187 236 L2208 235 L2225 233 L2244 232 L2264 231 L2283 230 L2302 229 L2321 228 L2341 227 L2361 226 L2380 225 L2399 224 L2426 997 L2447 996 L2475 995 L2511 993 L2525 217 L2538 215 L2556 214 L2574 213 L2593 213 L2612 212 L2631 211 L2651 210 L2673 208 L2689 206 L2708 205 L2729 203 L2749 201 L2767 199 L2786 197 L2806 195 L2827 194 L2844 192 L2863 191 L2884 190 L2909 188 L2924 186 L2954 184 L2994 182 L3017 179 L3046 177 L3062 175 L3076 173 L3095 171 L3116 170 L3137 169 L3153 168 L3172 167 L3192 166 L3211 165 L3231 165 L3250 164 L3270 163 L3290 162 L3308 161 L3327 160 L3355 159 L3375 158 L3403 157 L3438 156 L3452 155 L3484 153 L3502 152 L3522 152 L3541 151 L3560 150 L3580 149 L3601 149 L3618 148 L3636 146 L3657 143 L3678 140 L3695 136 L3714 133 L3734 130 L3754 127 L3772 125 L3791 124 L3813 122 L3838 121 L3853 120 L3870 118 L3889 116 L3909 115 L3927 114 L3947 112 L3966 111 L3988 109 L4005 107 L4024 106 L4044 105 L4065 104 L4082 103 L4101 102 L4121 101 L4140 100 L4159 99 L4179 98 L4198 97 L4218 96 L4237 95 L4256 94 L4283 93 L4304 92 L4374 90 L4402 87 L4417 85 L4431 83 L4451 81 L4469 80 L4488 79 L4508 77 L4529 76 L4546 75 L4565 74 L4586 74 L4606 73 L4624 72 L4643 71 L4663 69 L4683 68 L4701 66 L4720 65 L4741 64 L4766 63 L4781 62 L4799 61 L4817 59 L4837 58 L4856 57 L4875 55 L4895 54 L4916 53 L4933 52 L4952 51 L4973 50 L4994 49 L5010 48 L5069 47 L5088 46 L5107 45 L5127 44 L5147 44 L5166 43 L5184 42 L5212 42 L5232 41 L5260 40 L5297 40 L5311 39 L5324 38 L5342 37 L5359 37 L5379 36 L5398 36 L5417 35 L5437 35 L5458 35 L5475 34 L5494 34 L5514 33 L5535 33 L5553 32 L5572 31 L5591 30 L5612 29 L5630 29 L5649 28 L5670 27 L5695 26 L5709 26 L5726 25 L5746 25 L5766 24 L5785 23 L5804 22 L5823 21 L5845 20 L5862 19 L5881 18 L5901 17 L5922 17 L5939 16 L5958 16 L5978 15 L5997 15 L6017 14 L6035 14 L6055 14 L6075 13 L6094 13 L6113 12 L6140 12 L6161 11 L6189 11 L6224 10 L6238 9 L6251 9 L6270 8 L6288 8 L6308 7 L6326 7 L6365 6 L6386 6 L6403 5 L6422 5 L6442 4 L6462 3 L6481 2 L6500 1" />
</svg>
