<svg xmlns="http://www.w3.org/2000/svg" version="1.1" viewBox="0 0 6500 1000">
	<path fill="none" stroke="gold" stroke-width="125" stroke-linecap="round" stroke-linejoin="round" d="M0 15237  L-186492 15237 L-183888 15162 L-182220 15087 L-163890 14936 L-163720 14786 L-156562 14636 L-156529 14636 L-143098 14561 L-140177 14636 L-126836 14411 L-122667 14111 L-121507 13736 L-120887 13361 L-118876 13136 L-115104 12986 L-114504 12836 L-114175 12686 L-113962 12536 L-113420 12386 L-112182 11786 L-111003 11186 L-108139 10585 L-107617 9985 L-102761 9835 L-99824 9685 L-99781 9535 L-99473 9385 L-99221 9235 L-96626 9085 L-92370 9085 L-92352 9085 L-91116 9085 L-89238 9085 L-87285 8935 L-86337 8785 L-86066 8635 L-85756 8560 L-85658 8485 L-84828 8485 L-82797 8560 L-82506 7885 L-80360 7585 L-80205 7135 L-76548 6684 L-76297 6909 L-76199 6834 L-75681 7060 L-73530 7435 L-72601 7810 L-71075 8185 L-69836 8185 L-68289 8110 L-65328 7960 L-64206 7810 L-63897 7660 L-62685 7585 L-59679 8410 L-59659 8335 L-59312 8260 L-59099 8185 L-58972 7135 L-58731 6984 L-58693 6834 L-58673 6684 L-58654 6534 L-58595 6384 L-58536 6234 L-58518 6084 L-58075 5934 L-56836 5784 L-55290 5634 L-51902 5484 L-46176 5409 L-45975 5334 L-44339 5259 L-42617 5184 L-41185 5109 L-40952 5034 L-40237 4959 L-34105 4884 L-33737 4734 L-33583 4584 L-33004 4434 L-32712 4284 L-31745 4134 L-31435 3984 L-30836 3834 L-29230 3834 L-28495 3834 L-28185 3909 L-27416 3909 L-25380 3759 L-24955 3609 L-24142 3534 L-16714 3384 L-16191 3234 L-16017 3084 L-15282 2933 L-13715 2783 L-13309 2708 L-11084 2558 L-10136 2483 L-9711 2408 L-9381 2408 L-8337 2333 L-6229 2183 L-5977 2033 L-5358 1883 L-4545 1808 L-2437 1658 L-2389 1508 L-460 1358 L-135 1208 L0 1058 L502 983 L1915 833 L2418 533 L2940 308 L6500 8" />
</svg>
