<svg xmlns="http://www.w3.org/2000/svg" version="1.1" viewBox="0 0 6500 1000">
	<path fill="none" stroke="gold" stroke-width="125" stroke-linecap="round" stroke-linejoin="round" d="M0 3840  L-722654 3840 L-720050 3840 L-718382 3839 L-700053 3839 L-699882 3839 L-692725 3838 L-692692 3838 L-679261 3838 L-676339 3838 L-662998 3838 L-658829 3837 L-657669 3836 L-657050 3835 L-655038 3835 L-651266 3834 L-650666 3834 L-650337 3834 L-650124 3833 L-649583 3833 L-648345 3831 L-647166 3830 L-644301 3828 L-643779 3827 L-638923 3827 L-635986 3826 L-635943 3826 L-635635 3826 L-635383 3825 L-632788 3825 L-628533 3825 L-628515 3825 L-627278 3825 L-625400 3825 L-623447 3824 L-622499 3824 L-622228 3824 L-621918 3824 L-621820 3823 L-620990 3823 L-618959 3824 L-618669 3822 L-616522 3821 L-616367 3820 L-612710 3819 L-612459 3819 L-612361 3819 L-611844 3820 L-609693 3821 L-608764 3822 L-607238 3823 L-605998 3823 L-604452 3822 L-601490 3822 L-600368 3822 L-600059 3821 L-598848 3821 L-595841 3823 L-595821 3823 L-595474 3823 L-595261 3823 L-595135 3820 L-594893 3820 L-594855 3819 L-594835 3819 L-594816 3819 L-594757 3818 L-594699 3818 L-594681 3817 L-594238 3817 L-592998 3817 L-591452 3816 L-588065 3816 L-582338 3816 L-582137 3816 L-580501 3815 L-578779 3815 L-577347 3815 L-577115 3815 L-576399 3815 L-570267 3815 L-569899 3814 L-569745 3814 L-569167 3813 L-568874 3813 L-567907 3813 L-567597 3812 L-566998 3812 L-565392 3812 L-564657 3812 L-564347 3812 L-563579 3812 L-561543 3812 L-561117 3811 L-560305 3811 L-552876 3811 L-552353 3811 L-552180 3810 L-551445 3810 L-549877 3809 L-549471 3809 L-547246 3809 L-546298 3809 L-545873 3809 L-545543 3809 L-544499 3808 L-542391 3808 L-542139 3808 L-541520 3807 L-540707 3807 L-538599 3807 L-538551 3806 L-536623 3806 L-536297 3806 L-536162 3805 L-535659 3805 L-534246 3805 L-533743 3804 L-533221 3803 L-529662 3803 L-528927 3802 L-526502 3802 L-525212 3802 L-524806 3801 L-521653 3801 L-521498 3801 L-521478 3802 L-521111 3802 L-519853 3802 L-519138 3802 L-518248 3802 L-517841 3802 L-516913 3802 L-515804 3802 L-515501 3802 L-509252 3803 L-508305 3803 L-506678 3804 L-506177 3804 L-502501 3804 L-501669 3804 L-497716 3804 L-496304 3804 L-493814 3803 L-493138 3803 L-493099 3803 L-492228 3803 L-489017 3803 L-486154 3802 L-485186 3802 L-484065 3802 L-484046 3802 L-482421 3801 L-481956 3801 L-481865 3800 L-475495 3800 L-474547 3800 L-472090 3800 L-471217 3800 L-469981 3799 L-467980 3799 L-467583 3799 L-466146 3798 L-464120 3798 L-463907 3798 L-462727 3798 L-461218 3798 L-461198 3797 L-459186 3797 L-458316 3797 L-457446 3797 L-456861 3796 L-456324 3796 L-455666 3796 L-454428 3795 L-453867 3795 L-452686 3795 L-451448 3795 L-451410 3794 L-451023 3794 L-450481 3794 L-449708 3794 L-448585 3794 L-446496 3793 L-446163 3793 L-445877 3792 L-444948 3792 L-444465 3792 L-443730 3792 L-440099 3791 L-438971 3791 L-438816 3791 L-437790 3791 L-434076 3791 L-432858 3790 L-431040 3790 L-428254 3790 L-427693 3789 L-423805 3789 L-421328 3789 L-419993 3789 L-419490 3789 L-419007 3789 L-416317 3789 L-412546 3789 L-410089 3789 L-408909 3789 L-408270 3789 L-405910 3788 L-405833 3788 L-404785 3788 L-404691 3787 L-404189 3787 L-403743 3787 L-403686 3787 L-403472 3787 L-400512 3787 L-397805 3787 L-397650 3787 L-394129 3787 L-393606 3786 L-392639 3786 L-392290 3786 L-391246 3785 L-390318 3785 L-389892 3785 L-388383 3785 L-387416 3785 L-387397 3784 L-385501 3771 L-385385 3757 L-385337 3744 L-385313 3730 L-382309 3730 L-380278 3730 L-378517 3729 L-378150 3729 L-377704 3729 L-377337 3729 L-376924 3728 L-374939 3728 L-374725 3728 L-374570 3728 L-372965 3728 L-371843 3728 L-370895 3728 L-369638 3727 L-367993 3727 L-366814 3727 L-360224 3727 L-360178 3726 L-359772 3726 L-358727 3726 L-358591 3726 L-356909 3725 L-356889 3725 L-355552 3725 L-354316 3725 L-354162 3725 L-353788 3724 L-353581 3724 L-353272 3724 L-352498 3723 L-350177 3723 L-349519 3723 L-347391 3723 L-345669 3723 L-345475 3722 L-342922 3722 L-342645 3722 L-342457 3721 L-341625 3721 L-340852 3721 L-340154 3721 L-335154 3721 L-334778 3720 L-330525 3720 L-330038 3738 L-330019 3738 L-329940 3738 L-329864 3738 L-329844 3719 L-329032 3719 L-328278 3719 L-327059 3719 L-325627 3719 L-325531 3718 L-325356 3718 L-325002 3718 L-323692 3718 L-321835 3718 L-320133 3717 L-319630 3717 L-319365 3717 L-318972 3717 L-318837 3717 L-317928 3716 L-317551 3716 L-316623 3716 L-316284 3716 L-316244 3716 L-316206 3716 L-314291 3716 L-314117 3716 L-312588 3716 L-312260 3716 L-312144 3715 L-311737 3715 L-311389 3715 L-309745 3714 L-309194 3714 L-308951 3714 L-308410 3714 L-307578 3714 L-307037 3713 L-305502 3713 L-305410 3713 L-305373 3713 L-305237 3712 L-304850 3712 L-303825 3712 L-301949 3712 L-301852 3712 L-301252 3718 L-300885 3724 L-300400 3730 L-300362 3736 L-299588 3737 L-299531 3737 L-299356 3736 L-299163 3736 L-297558 3736 L-297538 3735 L-297382 3736 L-297267 3736 L-296087 3736 L-295933 3737 L-295266 3737 L-292818 3752 L-290303 3767 L-287633 3782 L-279934 3797 L-274266 3797 L-272051 3797 L-272028 3797 L-271054 3800 L-271034 3800 L-270171 3800 L-267430 3800 L-261632 3796 L-261478 3796 L-258693 3795 L-245084 3795 L-244338 3795 L-239928 3794 L-223581 3794 L-223349 3794 L-222812 3794 L-214353 3794 L-205647 3793 L-205435 3793 L-203462 3793 L-200676 3793 L-196189 3793 L-196034 3793 L-195865 3793 L-195724 3793 L-195434 3792 L-195395 3792 L-195124 3792 L-194953 3792 L-194542 3792 L-193422 3791 L-192242 3791 L-190965 3791 L-188101 3791 L-185181 3791 L-183189 3791 L-181641 3790 L-178603 3790 L-169279 3790 L-168755 3790 L-163031 3790 L-161524 3789 L-160709 3789 L-159026 3789 L-158305 3789 L-158136 3789 L-157091 3789 L-155024 3788 L-153662 3788 L-149218 3788 L-149121 3788 L-149082 3788 L-149064 3787 L-148231 3787 L-148153 3787 L-145581 3787 L-142332 3787 L-142177 3786 L-141228 3786 L-139487 3786 L-138772 3787 L-135231 3788 L-128654 3789 L-127237 3790 L-127216 3790 L-126265 3790 L-122791 3790 L-122038 3789 L-121476 3789 L-120694 3789 L-113190 3789 L-111591 3789 L-110017 3789 L-106832 3788 L-102499 3788 L-93929 3788 L-85183 3788 L-82109 3788 L-78843 3787 L-78297 3787 L-71159 3787 L-65492 3787 L-51427 3787 L-45416 3787 L-40710 3787 L-36706 3787 L-31599 3787 L-21885 3786 L-6314 3786 L-3232 3786 L-2929 3703 L-2910 3602 L-2891 3487 L-2871 3358 L-2852 3299 L-2832 3250 L-2814 3204 L-2786 3159 L-2765 3116 L-2737 3070 L-2702 3019 L-2688 2976 L-2675 2939 L-2657 2908 L-2638 2885 L-2618 2862 L-2600 2839 L-2580 2815 L-2561 2792 L-2539 2768 L-2523 2744 L-2504 2721 L-2483 2698 L-2463 2675 L-2445 2651 L-2426 2626 L-2407 2600 L-2386 2574 L-2368 2550 L-2349 2527 L-2328 2505 L-2303 2482 L-2289 2461 L-2271 2440 L-2252 2418 L-2232 2398 L-2213 2375 L-2194 2352 L-2174 2330 L-2154 2310 L-2136 2290 L-2117 2271 L-2096 2253 L-2076 2236 L-2059 2222 L-2040 2208 L-2020 2194 L-2001 2181 L-1981 2168 L-1962 2156 L-1942 2146 L-1923 2136 L-1904 2126 L-1885 2117 L-1858 2104 L-1837 2092 L-1809 2077 L-1775 2062 L-1761 2049 L-1748 2037 L-1729 2027 L-1710 2018 L-1690 2009 L-1672 1998 L-1652 1987 L-1632 1976 L-1612 1966 L-1594 1957 L-1575 1947 L-1555 1937 L-1535 1926 L-1517 1913 L-1498 1899 L-1478 1885 L-1458 1870 L-1440 1856 L-1421 1841 L-1400 1824 L-1375 1807 L-1361 1789 L-1343 1772 L-1324 1755 L-1304 1739 L-1285 1721 L-1266 1703 L-1246 1686 L-1226 1668 L-1207 1652 L-1189 1635 L-1168 1620 L-1148 1604 L-1130 1590 L-1111 1576 L-1091 1562 L-1072 1551 L-1053 1538 L-1034 1526 L-1014 1514 L-995 1502 L-975 1490 L-956 1478 L-928 1465 L-908 1454 L-880 1443 L-843 1429 L-828 1416 L-815 1404 L-798 1392 L-781 1384 L-761 1376 L-743 1369 L-724 1362 L-704 1355 L-683 1348 L-666 1341 L-647 1332 L-626 1324 L-607 1315 L-588 1306 L-570 1296 L-550 1286 L-530 1275 L-511 1264 L-492 1253 L-471 1243 L-447 1232 L-432 1221 L-415 1211 L-395 1199 L-376 1189 L-356 1178 L-337 1166 L-317 1154 L-297 1143 L-279 1132 L-260 1122 L-240 1112 L-219 1102 L-202 1093 L-183 1084 L-163 1075 L-144 1066 L-124 1056 L-105 1048 L-85 1039 L-66 1031 L-47 1022 L-28 1014 L0 1005 L20 997 L47 987 L84 973 L98 960 L111 949 L128 938 L147 932 L166 925 L185 916 L205 907 L224 898 L246 887 L264 877 L281 866 L301 854 L322 841 L340 828 L359 814 L378 800 L399 787 L417 775 L436 765 L457 757 L482 750 L496 744 L514 737 L533 730 L553 723 L572 716 L591 708 L610 702 L631 696 L649 691 L668 685 L688 677 L709 667 L726 659 L745 652 L765 646 L784 642 L803 638 L822 634 L842 629 L862 624 L881 619 L900 614 L927 610 L948 605 L976 600 L1011 594 L1024 589 L1038 585 L1056 581 L1075 577 L1095 573 L1113 570 L1133 566 L1153 563 L1174 560 L1191 556 L1209 552 L1230 548 L1250 544 L1268 539 L1287 536 L1307 532 L1327 529 L1345 525 L1364 522 L1385 518 L1410 515 L1425 512 L1442 509 L1461 506 L1481 502 L1500 498 L1519 494 L1539 490 L1560 487 L1577 483 L1596 480 L1617 476 L1637 473 L1655 470 L1674 466 L1694 463 L1712 460 L1732 457 L1751 455 L1771 453 L1790 450 L1809 448 L1828 452 L1857 456 L1877 460 L1905 463 L1942 460 L1957 457 L1970 454 L1987 452 L2004 451 L2024 449 L2042 447 L2062 444 L2081 442 L2103 441 L2119 439 L2138 437 L2158 435 L2179 433 L2197 431 L2215 428 L2235 426 L2255 424 L2274 422 L2293 420 L2314 419 L2339 417 L2353 415 L2370 413 L2390 410 L2409 408 L2429 406 L2448 404 L2468 401 L2488 398 L2506 395 L2525 392 L2545 390 L2566 387 L2583 385 L2602 382 L2622 380 L2641 377 L2661 374 L2680 372 L2699 369 L2719 366 L2738 364 L2757 362 L2784 360 L2805 358 L2833 355 L2868 352 L2881 349 L2895 347 L2914 345 L2932 343 L2952 341 L2970 339 L2990 336 L3010 334 L3031 332 L3048 330 L3066 327 L3087 325 L3107 322 L3125 319 L3144 316 L3164 312 L3184 308 L3202 305 L3221 302 L3242 299 L3267 296 L3282 293 L3299 289 L3318 286 L3338 283 L3357 280 L3376 276 L3396 273 L3417 270 L3434 267 L3454 264 L3474 261 L3495 259 L3512 257 L3531 254 L3551 252 L3570 250 L3589 248 L3608 247 L3628 245 L3648 243 L3667 242 L3686 240 L3713 239 L3734 237 L3762 235 L3797 231 L3811 228 L3824 225 L3843 222 L3861 220 L3881 218 L3899 216 L3919 214 L3938 212 L3959 210 L3976 208 L3995 205 L4016 203 L4036 200 L4054 198 L4073 195 L4092 192 L4113 190 L4131 187 L4150 185 L4171 183 L4196 181 L4211 179 L4228 177 L4247 175 L4267 173 L4286 170 L4305 167 L4325 164 L4346 160 L4363 157 L4382 154 L4403 151 L4423 149 L4440 147 L4459 145 L4479 143 L4498 142 L4518 140 L4537 138 L4557 137 L4576 135 L4595 134 L4614 132 L4641 131 L4662 129 L4690 128 L4724 126 L4738 125 L4752 123 L4770 122 L4789 121 L4809 119 L4827 118 L4847 117 L4867 116 L4887 115 L4905 114 L4924 112 L4944 111 L4964 110 L4982 108 L5001 107 L5021 106 L5041 105 L5059 104 L5078 103 L5099 102 L5124 101 L5139 100 L5156 98 L5175 97 L5195 96 L5214 95 L5233 94 L5253 92 L5274 90 L5291 87 L5310 85 L5331 82 L5351 80 L5369 78 L5388 76 L5408 75 L5427 73 L5446 71 L5465 69 L5485 68 L5504 67 L5524 65 L5543 64 L5571 63 L5619 62 L5656 61 L5671 59 L5683 58 L5700 57 L5718 56 L5737 56 L5756 55 L5775 54 L5795 52 L5816 52 L5833 51 L5852 50 L5872 49 L5892 48 L5911 47 L5929 46 L5950 45 L5969 44 L5988 42 L6007 41 L6028 39 L6052 37 L6067 35 L6084 33 L6104 31 L6123 29 L6143 27 L6162 26 L6182 24 L6202 22 L6220 20 L6239 19 L6259 17 L6280 16 L6297 15 L6316 13 L6336 12 L6355 11 L6375 10 L6394 8 L6414 7 L6433 5 L6453 4 L6471 3 L6500 1" />
</svg>
