<svg xmlns="http://www.w3.org/2000/svg" version="1.1" viewBox="0 0 6500 1000">
	<path fill="none" stroke="gold" stroke-width="125" stroke-linecap="round" stroke-linejoin="round" d="M0 3451  L-726303 3451 L-723699 3450 L-722031 3450 L-703701 3450 L-703531 3450 L-696373 3449 L-696340 3449 L-682909 3449 L-679987 3449 L-666646 3449 L-662477 3448 L-661317 3448 L-660698 3447 L-658686 3446 L-654915 3446 L-654315 3446 L-653986 3445 L-653773 3445 L-653231 3445 L-651993 3444 L-650814 3442 L-647950 3441 L-647428 3440 L-642572 3440 L-639635 3439 L-639592 3439 L-639284 3439 L-639032 3438 L-636437 3438 L-632181 3438 L-632163 3438 L-630927 3438 L-629049 3438 L-627096 3438 L-626148 3438 L-625877 3437 L-625567 3437 L-625469 3437 L-624638 3437 L-622608 3437 L-622317 3436 L-620171 3435 L-620015 3434 L-616359 3433 L-616108 3434 L-616009 3434 L-615492 3434 L-613341 3435 L-612412 3436 L-610886 3436 L-609647 3436 L-608100 3436 L-605139 3436 L-604017 3436 L-603707 3435 L-602496 3435 L-599490 3437 L-599470 3437 L-599123 3436 L-598909 3436 L-598783 3434 L-598542 3434 L-598504 3434 L-598484 3433 L-598465 3433 L-598406 3433 L-598347 3432 L-598329 3432 L-597886 3432 L-596647 3431 L-595101 3431 L-591713 3431 L-585987 3431 L-585785 3431 L-584150 3430 L-582428 3430 L-580996 3430 L-580763 3430 L-580048 3430 L-573916 3430 L-573548 3429 L-573394 3429 L-572815 3429 L-572523 3428 L-571555 3428 L-571246 3428 L-570647 3428 L-569040 3428 L-568305 3428 L-567996 3428 L-567227 3428 L-565191 3427 L-564766 3427 L-563953 3427 L-556525 3427 L-556002 3426 L-555828 3426 L-555093 3426 L-553525 3425 L-553120 3425 L-550895 3425 L-549947 3425 L-549522 3425 L-549192 3425 L-548148 3424 L-546040 3424 L-545787 3424 L-545169 3424 L-544356 3423 L-542248 3423 L-542200 3423 L-540271 3422 L-539946 3422 L-539811 3422 L-539307 3422 L-537895 3421 L-537392 3421 L-536870 3420 L-533310 3420 L-532575 3419 L-530150 3419 L-528861 3419 L-528454 3419 L-525302 3419 L-525147 3419 L-525126 3419 L-524760 3419 L-523502 3419 L-522787 3419 L-521897 3419 L-521490 3419 L-520561 3419 L-519453 3419 L-519149 3420 L-512901 3420 L-511953 3420 L-510327 3420 L-509825 3421 L-506150 3421 L-505317 3421 L-501364 3421 L-499952 3421 L-497463 3420 L-496787 3420 L-496748 3420 L-495877 3420 L-492666 3420 L-489803 3420 L-488835 3419 L-487713 3419 L-487694 3419 L-486069 3419 L-485605 3418 L-485513 3418 L-479144 3418 L-478195 3418 L-475738 3417 L-474866 3417 L-473630 3417 L-471629 3417 L-471231 3417 L-469795 3416 L-467769 3416 L-467555 3416 L-466375 3416 L-464867 3415 L-464847 3415 L-462835 3415 L-461965 3415 L-461094 3415 L-460509 3414 L-459972 3414 L-459314 3414 L-458076 3413 L-457516 3413 L-456335 3413 L-455097 3413 L-455059 3413 L-454672 3413 L-454130 3412 L-453356 3412 L-452234 3412 L-450145 3412 L-449811 3412 L-449526 3411 L-448597 3411 L-448114 3411 L-447378 3411 L-443747 3410 L-442620 3410 L-442465 3410 L-441439 3410 L-437724 3410 L-436507 3409 L-434688 3409 L-431903 3409 L-431341 3409 L-427453 3409 L-424977 3408 L-423642 3408 L-423138 3408 L-422655 3408 L-419966 3408 L-416194 3408 L-413737 3408 L-412557 3408 L-411918 3408 L-409559 3408 L-409481 3408 L-408434 3407 L-408340 3407 L-407837 3407 L-407392 3407 L-407334 3407 L-407120 3407 L-404161 3407 L-401453 3407 L-401298 3406 L-397778 3406 L-397255 3406 L-396287 3406 L-395938 3406 L-394895 3405 L-393966 3405 L-393540 3405 L-392031 3405 L-391065 3405 L-391046 3405 L-389150 3393 L-389034 3382 L-388986 3371 L-388961 3359 L-385957 3359 L-383926 3359 L-382166 3359 L-381799 3359 L-381353 3358 L-380986 3358 L-380572 3358 L-378587 3358 L-378374 3358 L-378219 3358 L-376614 3358 L-375492 3357 L-374544 3357 L-373286 3357 L-371642 3357 L-370462 3357 L-363873 3356 L-363826 3356 L-363420 3356 L-362375 3356 L-362240 3356 L-360557 3355 L-360537 3355 L-359201 3355 L-357964 3355 L-357810 3355 L-357436 3354 L-357230 3354 L-356921 3354 L-356147 3354 L-353825 3354 L-353167 3354 L-351040 3353 L-349317 3353 L-349124 3353 L-346570 3353 L-346294 3352 L-346106 3352 L-345273 3352 L-344501 3352 L-343803 3352 L-338802 3352 L-338426 3351 L-334174 3351 L-333686 3366 L-333667 3366 L-333588 3366 L-333513 3366 L-333493 3350 L-332680 3350 L-331927 3350 L-330707 3350 L-329275 3350 L-329179 3350 L-329005 3350 L-328650 3349 L-327341 3349 L-325484 3349 L-323781 3349 L-323279 3349 L-323013 3348 L-322620 3348 L-322486 3348 L-321576 3348 L-321200 3348 L-320271 3348 L-319932 3348 L-319893 3348 L-319855 3348 L-317939 3348 L-317766 3347 L-316237 3347 L-315909 3347 L-315793 3347 L-315386 3347 L-315037 3347 L-313394 3346 L-312843 3346 L-312600 3346 L-312058 3346 L-311227 3346 L-310685 3345 L-309151 3345 L-309059 3345 L-309022 3345 L-308886 3345 L-308498 3345 L-307474 3344 L-305597 3344 L-305501 3344 L-304901 3349 L-304534 3354 L-304049 3359 L-304011 3365 L-303237 3365 L-303180 3365 L-303005 3364 L-302812 3364 L-301206 3364 L-301186 3364 L-301031 3364 L-300916 3364 L-299736 3364 L-299581 3365 L-298914 3365 L-296466 3377 L-293951 3390 L-291281 3403 L-283582 3415 L-277915 3415 L-275700 3415 L-275677 3415 L-274703 3418 L-274683 3418 L-273819 3417 L-271079 3417 L-265280 3414 L-265127 3414 L-262341 3414 L-248733 3413 L-247987 3413 L-243576 3413 L-227230 3413 L-226998 3412 L-226461 3412 L-218001 3412 L-209296 3412 L-209083 3412 L-207111 3412 L-204325 3412 L-199837 3412 L-199682 3412 L-199513 3412 L-199373 3412 L-199082 3411 L-199044 3411 L-198773 3411 L-198601 3411 L-198191 3411 L-197070 3410 L-195890 3410 L-194613 3410 L-191749 3410 L-188829 3410 L-186837 3410 L-185289 3409 L-182252 3409 L-172927 3409 L-172403 3409 L-166679 3409 L-165172 3409 L-164358 3409 L-162674 3408 L-161953 3408 L-161785 3408 L-160739 3408 L-158672 3408 L-157310 3408 L-152867 3408 L-152770 3407 L-152731 3407 L-152712 3407 L-151880 3407 L-151802 3407 L-149229 3406 L-145980 3406 L-145825 3406 L-144877 3406 L-143136 3406 L-142420 3407 L-138880 3407 L-132302 3408 L-130885 3410 L-130864 3409 L-129914 3409 L-126439 3409 L-125686 3409 L-125125 3409 L-124342 3408 L-116838 3408 L-115240 3408 L-113666 3408 L-110481 3408 L-106148 3408 L-97578 3408 L-88832 3408 L-85758 3407 L-82492 3407 L-81945 3407 L-74808 3407 L-69140 3407 L-55076 3407 L-49064 3407 L-44358 3407 L-40355 3406 L-35247 3406 L-25533 3406 L-9963 3406 L-6880 3406 L-6578 3337 L-6558 3253 L-6539 3157 L-6520 3050 L-6500 3001 L-6481 2960 L-6462 2922 L-6435 2884 L-6414 2848 L-6386 2810 L-6351 2767 L-6337 2732 L-6324 2701 L-6305 2675 L-6287 2656 L-6267 2637 L-6249 2618 L-6229 2598 L-6209 2579 L-6188 2558 L-6171 2539 L-6153 2519 L-6132 2501 L-6112 2482 L-6094 2461 L-6075 2441 L-6055 2419 L-6035 2398 L-6017 2377 L-5998 2358 L-5977 2340 L-5952 2321 L-5937 2303 L-5920 2286 L-5900 2268 L-5881 2251 L-5862 2232 L-5843 2213 L-5823 2195 L-5802 2177 L-5784 2161 L-5766 2145 L-5745 2130 L-5724 2116 L-5707 2104 L-5688 2092 L-5668 2081 L-5649 2070 L-5630 2059 L-5611 2050 L-5591 2041 L-5571 2033 L-5552 2025 L-5534 2017 L-5506 2007 L-5485 1996 L-5458 1984 L-5424 1971 L-5409 1960 L-5396 1951 L-5378 1942 L-5359 1935 L-5339 1927 L-5320 1918 L-5301 1909 L-5281 1900 L-5260 1892 L-5243 1884 L-5224 1876 L-5204 1868 L-5184 1858 L-5165 1847 L-5147 1836 L-5127 1824 L-5107 1812 L-5088 1800 L-5069 1787 L-5048 1774 L-5024 1759 L-5009 1744 L-4992 1730 L-4972 1716 L-4953 1702 L-4933 1688 L-4915 1673 L-4894 1658 L-4874 1644 L-4856 1630 L-4837 1616 L-4817 1603 L-4796 1590 L-4779 1578 L-4760 1567 L-4740 1555 L-4721 1546 L-4701 1535 L-4682 1525 L-4663 1516 L-4643 1505 L-4624 1495 L-4605 1485 L-4576 1475 L-4556 1466 L-4529 1456 L-4491 1445 L-4476 1434 L-4464 1423 L-4447 1414 L-4430 1407 L-4410 1401 L-4391 1394 L-4372 1389 L-4352 1383 L-4332 1377 L-4314 1371 L-4296 1364 L-4275 1357 L-4255 1350 L-4237 1342 L-4218 1334 L-4198 1325 L-4178 1316 L-4160 1307 L-4141 1298 L-4120 1290 L-4095 1280 L-4081 1272 L-4063 1263 L-4043 1253 L-4024 1245 L-4005 1235 L-3986 1225 L-3966 1216 L-3946 1207 L-3927 1197 L-3909 1189 L-3888 1181 L-3868 1173 L-3850 1165 L-3831 1158 L-3811 1150 L-3793 1142 L-3773 1135 L-3754 1127 L-3734 1120 L-3715 1113 L-3695 1106 L-3676 1099 L-3648 1092 L-3628 1085 L-3600 1076 L-3564 1065 L-3550 1055 L-3537 1045 L-3519 1036 L-3501 1031 L-3481 1025 L-3463 1018 L-3443 1010 L-3423 1002 L-3402 994 L-3384 985 L-3367 976 L-3346 966 L-3326 955 L-3308 944 L-3289 933 L-3269 921 L-3249 910 L-3231 900 L-3212 892 L-3191 885 L-3166 879 L-3151 874 L-3134 869 L-3115 863 L-3095 857 L-3076 851 L-3057 845 L-3037 839 L-3016 835 L-2999 830 L-2980 825 L-2959 818 L-2939 811 L-2922 804 L-2903 798 L-2882 793 L-2864 790 L-2844 786 L-2825 783 L-2805 779 L-2786 775 L-2767 770 L-2748 767 L-2720 763 L-2699 759 L-2672 755 L-2637 750 L-2623 745 L-2610 742 L-2591 738 L-2573 736 L-2553 733 L-2534 729 L-2515 726 L-2495 724 L-2474 721 L-2457 718 L-2438 715 L-2418 711 L-2398 708 L-2380 704 L-2361 701 L-2341 698 L-2321 695 L-2302 693 L-2284 690 L-2262 687 L-2237 684 L-2223 681 L-2206 679 L-2186 676 L-2167 673 L-2147 670 L-2128 667 L-2109 663 L-2088 660 L-2070 657 L-2051 654 L-2031 652 L-2010 649 L-1993 646 L-1974 643 L-1954 641 L-1935 638 L-1915 636 L-1897 634 L-1877 632 L-1857 630 L-1838 628 L-1819 632 L-1790 635 L-1771 638 L-1743 641 L-1706 638 L-1690 636 L-1678 634 L-1660 632 L-1644 631 L-1624 629 L-1606 627 L-1586 625 L-1566 624 L-1545 622 L-1528 621 L-1510 619 L-1489 617 L-1469 616 L-1451 614 L-1432 612 L-1412 610 L-1392 608 L-1374 607 L-1355 605 L-1334 604 L-1309 602 L-1294 601 L-1277 599 L-1258 597 L-1238 595 L-1219 594 L-1200 592 L-1180 589 L-1159 587 L-1142 584 L-1123 582 L-1102 580 L-1082 578 L-1064 576 L-1045 573 L-1025 571 L-1007 569 L-987 567 L-968 565 L-948 562 L-929 560 L-909 559 L-891 557 L-863 555 L-842 553 L-814 551 L-780 548 L-766 546 L-753 544 L-734 542 L-715 541 L-695 539 L-677 537 L-658 535 L-638 533 L-617 532 L-600 530 L-581 528 L-560 526 L-541 523 L-522 521 L-504 518 L-484 515 L-463 512 L-445 509 L-426 507 L-405 504 L-380 502 L-365 499 L-348 496 L-329 494 L-309 491 L-290 488 L-271 485 L-251 483 L-230 480 L-213 478 L-194 475 L-173 473 L-153 471 L-136 469 L-117 467 L-97 465 L-78 464 L-58 462 L-39 461 L-20 459 L0 458 L18 457 L37 455 L65 454 L85 452 L113 451 L149 448 L162 445 L175 443 L194 440 L212 439 L232 437 L250 435 L270 434 L290 432 L311 430 L328 428 L346 426 L367 424 L387 422 L405 420 L424 418 L444 415 L464 413 L482 411 L501 410 L523 408 L547 406 L562 405 L579 403 L599 401 L618 399 L637 397 L656 394 L676 391 L697 388 L714 386 L734 383 L754 381 L775 379 L792 377 L811 376 L831 375 L850 374 L869 372 L888 371 L908 369 L928 368 L947 367 L965 365 L993 364 L1014 363 L1041 362 L1076 360 L1090 359 L1103 358 L1122 357 L1141 356 L1160 355 L1179 354 L1198 353 L1218 352 L1239 351 L1256 350 L1275 349 L1295 348 L1315 347 L1334 345 L1352 344 L1372 344 L1392 343 L1411 342 L1430 341 L1451 341 L1475 340 L1490 338 L1507 337 L1527 336 L1546 335 L1566 334 L1585 333 L1604 332 L1625 330 L1643 328 L1662 326 L1682 324 L1703 322 L1720 320 L1739 319 L1759 317 L1778 316 L1798 315 L1817 313 L1837 312 L1856 311 L1875 310 L1894 309 L1923 308 L1970 307 L2007 306 L2022 305 L2035 303 L2052 303 L2069 302 L2089 302 L2107 301 L2127 300 L2147 299 L2167 298 L2185 298 L2203 297 L2224 296 L2243 296 L2262 295 L2281 294 L2301 293 L2321 292 L2339 291 L2358 289 L2379 288 L2404 286 L2419 284 L2436 283 L2456 281 L2475 280 L2494 278 L2513 277 L2533 275 L2554 274 L2572 272 L2591 271 L2611 270 L2631 268 L2649 268 L2668 266 L2688 265 L2707 264 L2726 263 L2745 262 L2765 261 L2784 260 L2804 259 L2823 258 L2851 257 L2871 255 L2899 254 L2936 251 L2950 249 L2963 247 L2981 245 L2998 244 L3018 243 L3036 242 L3056 241 L3076 240 L3097 239 L3114 238 L3132 237 L3153 235 L3173 233 L3191 232 L3210 229 L3230 227 L3251 225 L3268 223 L3287 222 L3308 220 L3333 218 L3348 217 L3366 215 L3384 214 L3405 213 L3423 212 L3442 210 L3462 208 L3483 206 L3500 205 L3520 203 L3540 202 L3561 201 L3578 199 L3597 198 L3616 197 L3635 196 L3655 195 L3674 194 L3694 192 L3714 191 L3733 190 L3751 189 L3779 997 L3800 996 L3827 994 L3863 992 L3877 182 L3891 181 L3909 179 L3926 178 L3946 178 L3965 177 L3984 176 L4004 175 L4025 173 L4042 171 L4061 170 L4082 168 L4102 166 L4120 164 L4139 162 L4158 159 L4179 158 L4197 157 L4215 155 L4237 154 L4262 152 L4277 150 L4306 148 L4346 145 L4369 143 L4399 140 L4415 138 L4429 136 L4448 135 L4468 134 L4489 132 L4506 131 L4525 130 L4545 129 L4564 128 L4584 128 L4602 127 L4622 126 L4642 125 L4661 124 L4680 123 L4708 122 L4728 121 L4756 120 L4791 118 L4805 117 L4837 116 L4855 115 L4875 114 L4893 113 L4913 113 L4933 112 L4954 111 L4971 110 L4989 108 L5010 105 L5030 102 L5048 98 L5067 94 L5087 91 L5107 89 L5125 86 L5144 85 L5166 83 L5191 82 L5205 81 L5223 79 L5241 77 L5261 76 L5280 74 L5300 73 L5319 71 L5340 70 L5357 68 L5377 66 L5397 65 L5418 64 L5435 63 L5454 62 L5474 61 L5493 60 L5512 59 L5531 58 L5551 56 L5571 55 L5590 55 L5608 54 L5636 53 L5657 52 L5727 49 L5755 47 L5769 44 L5783 42 L5804 41 L5822 39 L5841 38 L5861 37 L5882 35 L5899 34 L5918 33 L5939 33 L5959 32 L5977 31 L5996 29 L6016 28 L6036 26 L6054 25 L6073 24 L6094 23 L6119 22 L6134 21 L6151 19 L6170 18 L6190 16 L6209 15 L6228 13 L6248 12 L6269 11 L6286 10 L6305 9 L6325 8 L6347 7 L6363 6 L6421 5 L6441 4 L6459 3 L6479 2 L6500 1" />
</svg>
