<svg xmlns="http://www.w3.org/2000/svg" version="1.1" viewBox="0 0 6500 1000">
	<path fill="none" stroke="gold" stroke-width="125" stroke-linecap="round" stroke-linejoin="round" d="M0 1023  L-715140 1023 L-712536 1023 L-710868 1023 L-692538 1023 L-692368 1023 L-685210 1022 L-685177 1022 L-671746 1022 L-668824 1022 L-655483 1022 L-651314 1022 L-650154 1022 L-649535 1021 L-647523 1021 L-643752 1021 L-643152 1021 L-642823 1020 L-642610 1020 L-642068 1020 L-640830 1019 L-639651 1019 L-636787 1018 L-636265 1018 L-631409 1017 L-628472 1017 L-628429 1017 L-628120 1017 L-627869 1017 L-625274 1017 L-621018 1017 L-621000 1017 L-619763 1017 L-617886 1017 L-615933 1016 L-614985 1016 L-614714 1016 L-614404 1016 L-614306 1016 L-613475 1016 L-611445 1016 L-611154 1015 L-609008 1015 L-608852 1014 L-605196 1014 L-604945 1014 L-604846 1014 L-604329 1014 L-602178 1015 L-601249 1015 L-599723 1016 L-598484 1016 L-596937 1015 L-593975 1015 L-592854 1015 L-592544 1015 L-591333 1015 L-588327 1016 L-588307 1016 L-587960 1016 L-587746 1016 L-587620 1014 L-587379 1014 L-587341 1014 L-587321 1014 L-587302 1014 L-587243 1014 L-587184 1013 L-587166 1013 L-586723 1013 L-585484 1013 L-583938 1013 L-580550 1013 L-574824 1013 L-574622 1013 L-572987 1012 L-571265 1012 L-569833 1012 L-569600 1012 L-568885 1012 L-562753 1012 L-562385 1012 L-562231 1012 L-561652 1012 L-561360 1011 L-560392 1011 L-560083 1011 L-559484 1011 L-557877 1011 L-557142 1011 L-556833 1011 L-556064 1011 L-554028 1011 L-553603 1011 L-552790 1011 L-545362 1010 L-544839 1010 L-544665 1010 L-543930 1010 L-542362 1010 L-541957 1010 L-539732 1010 L-538784 1009 L-538359 1009 L-538029 1009 L-536985 1009 L-534877 1009 L-534624 1009 L-534006 1009 L-533193 1009 L-531085 1009 L-531036 1008 L-529108 1008 L-528783 1008 L-528648 1008 L-528144 1008 L-526732 1008 L-526229 1007 L-525707 1007 L-522147 1007 L-521412 1006 L-518987 1006 L-517698 1006 L-517291 1006 L-514139 1006 L-513984 1006 L-513963 1006 L-513597 1006 L-512339 1006 L-511624 1006 L-510734 1006 L-510327 1006 L-509398 1006 L-508290 1006 L-507986 1007 L-501737 1007 L-500790 1007 L-499164 1007 L-498662 1007 L-494987 1007 L-494154 1007 L-490201 1008 L-488789 1007 L-486300 1007 L-485623 1007 L-485585 1007 L-484714 1007 L-481503 1007 L-478640 1007 L-477672 1007 L-476550 1006 L-476531 1006 L-474906 1006 L-474442 1006 L-474350 1006 L-467981 1006 L-467032 1006 L-464575 1006 L-463703 1005 L-462467 1005 L-460466 1005 L-460068 1005 L-458632 1005 L-456606 1005 L-456392 1005 L-455212 1005 L-453704 1005 L-453684 1004 L-451671 1004 L-450802 1004 L-449931 1004 L-449346 1004 L-448809 1004 L-448151 1004 L-446913 1003 L-446353 1003 L-445172 1003 L-443934 1003 L-443895 1003 L-443509 1003 L-442967 1003 L-442193 1003 L-441071 1003 L-438982 1003 L-438648 1002 L-438363 1002 L-437434 1002 L-436951 1002 L-436215 1002 L-432584 1002 L-431457 1002 L-431302 1002 L-430276 1002 L-426561 1001 L-425344 1001 L-423525 1001 L-420740 1001 L-420178 1001 L-416290 1001 L-413814 1001 L-412479 1001 L-411975 1001 L-411492 1001 L-408803 1001 L-405031 1001 L-402574 1001 L-401394 1001 L-400755 1001 L-398395 1000 L-398318 1000 L-397271 1000 L-397177 1000 L-396674 1000 L-396229 1000 L-396171 1000 L-395957 1000 L-392998 1000 L-390290 1000 L-390135 1000 L-386615 1000 L-386092 1000 L-385124 999 L-384775 999 L-383732 999 L-382803 999 L-382377 999 L-380868 999 L-379901 999 L-379883 999 L-377987 993 L-377871 987 L-377823 981 L-377798 975 L-374794 975 L-372763 975 L-371003 975 L-370635 975 L-370190 974 L-369823 974 L-369409 974 L-367424 974 L-367211 974 L-367056 974 L-365451 974 L-364329 974 L-363381 974 L-362123 974 L-360479 974 L-359299 973 L-352710 973 L-352663 973 L-352257 973 L-351212 973 L-351077 973 L-349394 973 L-349374 973 L-348038 973 L-346801 973 L-346647 972 L-346273 972 L-346067 972 L-345757 972 L-344984 972 L-342662 972 L-342004 972 L-339877 972 L-338154 972 L-337961 971 L-335407 971 L-335131 971 L-334943 971 L-334110 971 L-333338 971 L-332640 971 L-327639 971 L-327263 971 L-323010 971 L-322523 979 L-322504 979 L-322425 978 L-322350 978 L-322330 970 L-321517 970 L-320763 970 L-319544 970 L-318112 970 L-318016 970 L-317842 970 L-317487 970 L-316178 970 L-314321 969 L-312618 969 L-312116 969 L-311850 969 L-311457 969 L-311323 969 L-310413 969 L-310037 969 L-309108 969 L-308769 969 L-308730 969 L-308692 969 L-306776 969 L-306603 969 L-305074 969 L-304746 968 L-304630 968 L-304223 968 L-303874 968 L-302231 968 L-301680 968 L-301437 968 L-300895 968 L-300064 968 L-299522 968 L-297988 967 L-297895 967 L-297859 967 L-297723 967 L-297335 967 L-296311 967 L-294434 967 L-294338 967 L-293738 969 L-293370 972 L-292886 975 L-292848 978 L-292074 978 L-292017 978 L-291842 978 L-291648 977 L-290043 977 L-290023 977 L-289868 977 L-289753 977 L-288573 978 L-288418 978 L-287751 978 L-285303 984 L-282788 991 L-280118 998 L-272419 1004 L-266751 1004 L-264537 1004 L-264514 1004 L-263540 1006 L-263520 1006 L-262656 1006 L-259916 1006 L-254117 1004 L-253964 1004 L-251178 1004 L-237570 1003 L-236824 1003 L-232413 1003 L-216067 1003 L-215835 1003 L-215298 1003 L-206838 1003 L-198133 1003 L-197920 1003 L-195948 1003 L-193162 1003 L-188674 1003 L-188519 1003 L-188350 1003 L-188210 1002 L-187919 1002 L-187881 1002 L-187610 1002 L-187438 1002 L-187028 1002 L-185907 1002 L-184727 1002 L-183450 1002 L-180586 1002 L-177666 1002 L-175674 1001 L-174126 1001 L-171089 1001 L-161764 1001 L-161240 1001 L-155516 1001 L-154009 1001 L-153195 1001 L-151511 1001 L-150790 1001 L-150622 1001 L-149576 1001 L-147509 1001 L-146147 1000 L-141704 1000 L-141607 1000 L-141568 1000 L-141549 1000 L-140717 1000 L-140639 1000 L-138066 1000 L-134817 1000 L-134662 1000 L-133714 1000 L-131973 999 L-131257 1000 L-127717 1000 L-121139 1001 L-119722 1001 L-119701 1001 L-118751 1001 L-115276 1001 L-114523 1001 L-113961 1001 L-113179 1001 L-105675 1001 L-104077 1001 L-102503 1001 L-99318 1001 L-94985 1000 L-86415 1000 L-77668 1000 L-74595 1000 L-71329 1000 L-70782 1000 L-63645 1000 L-57977 1000 L-43913 1000 L-37901 1000 L-33195 1000 L-29192 1000 L-24084 1000 L-14370 1000 L1199 999 L4282 999 L4584 963 L4604 918 L4623 868 L4642 811 L4662 785 L4681 764 L4700 744 L4727 724 L4748 705 L4776 684 L4812 662 L4825 643 L4838 627 L4857 613 L4875 603 L4895 593 L4913 583 L4933 572 L4953 562 L4974 551 L4991 541 L5009 531 L5030 521 L5050 511 L5068 500 L5087 489 L5107 478 L5127 466 L5145 456 L5164 446 L5185 436 L5210 426 L5225 416 L5242 407 L5262 398 L5281 389 L5300 379 L5319 369 L5339 359 L5360 350 L5378 341 L5396 333 L5417 325 L5438 318 L5455 311 L5474 305 L5494 299 L5513 293 L5532 287 L5551 282 L5571 278 L5591 274 L5610 269 L5628 265 L5656 260 L5677 254 L5705 248 L5739 241 L5753 235 L5766 230 L5785 226 L5804 222 L5823 217 L5842 213 L5861 208 L5881 203 L5902 199 L5919 195 L5938 191 L5958 186 L5978 181 L5997 175 L6015 169 L6035 163 L6055 157 L6074 150 L6093 144 L6114 136 L6138 129 L6153 121 L6170 113 L6190 106 L6209 99 L6229 91 L6247 83 L6268 75 L6288 68 L6306 60 L6325 53 L6345 46 L6366 40 L6383 33 L6402 27 L6422 21 L6441 16 L6461 11 L6480 5 L6500 0" />
</svg>
