<svg xmlns="http://www.w3.org/2000/svg" version="1.1" viewBox="0 0 6500 1000">
	<path fill="none" stroke="gold" stroke-width="125" stroke-linecap="round" stroke-linejoin="round" d="M0 1028  L-714637 1028 L-712033 1028 L-710365 1028 L-692035 1028 L-691865 1028 L-684707 1027 L-684674 1027 L-671243 1027 L-668322 1027 L-654981 1027 L-650812 1027 L-649652 1026 L-649032 1026 L-647021 1025 L-643249 1025 L-642649 1025 L-642320 1025 L-642107 1025 L-641565 1024 L-640327 1024 L-639148 1023 L-636284 1022 L-635762 1021 L-630906 1021 L-627969 1021 L-627926 1021 L-627618 1021 L-627366 1020 L-624771 1020 L-620515 1020 L-620498 1020 L-619261 1020 L-617383 1020 L-615430 1020 L-614482 1020 L-614211 1020 L-613901 1019 L-613803 1019 L-612973 1019 L-610942 1019 L-610651 1019 L-608505 1018 L-608350 1018 L-604693 1017 L-604442 1017 L-604344 1017 L-603827 1018 L-601675 1018 L-600747 1019 L-599220 1019 L-597981 1019 L-596435 1019 L-593473 1019 L-592351 1019 L-592042 1018 L-590830 1018 L-587824 1019 L-587804 1019 L-587457 1019 L-587244 1019 L-587117 1018 L-586876 1017 L-586838 1017 L-586818 1017 L-586799 1017 L-586740 1017 L-586681 1016 L-586663 1016 L-586220 1016 L-584981 1016 L-583435 1016 L-580047 1015 L-574321 1015 L-574120 1015 L-572484 1015 L-570762 1015 L-569330 1015 L-569097 1015 L-568382 1015 L-562250 1015 L-561882 1015 L-561728 1014 L-561149 1014 L-560857 1014 L-559890 1014 L-559580 1014 L-558981 1013 L-557375 1013 L-556640 1013 L-556330 1013 L-555561 1013 L-553525 1013 L-553100 1013 L-552287 1013 L-544859 1013 L-544336 1013 L-544162 1012 L-543427 1012 L-541860 1012 L-541454 1012 L-539229 1012 L-538281 1012 L-537856 1011 L-537526 1011 L-536482 1011 L-534374 1011 L-534122 1011 L-533503 1011 L-532690 1011 L-530582 1011 L-530534 1010 L-528605 1010 L-528280 1010 L-528145 1010 L-527642 1010 L-526229 1009 L-525726 1009 L-525204 1009 L-521645 1008 L-520909 1008 L-518485 1008 L-517195 1008 L-516788 1008 L-513636 1008 L-513481 1008 L-513461 1008 L-513094 1008 L-511836 1008 L-511121 1008 L-510231 1008 L-509824 1008 L-508895 1008 L-507787 1008 L-507484 1008 L-501235 1008 L-500287 1009 L-498661 1009 L-498159 1009 L-494484 1009 L-493651 1009 L-489698 1009 L-488286 1009 L-485797 1009 L-485121 1009 L-485082 1008 L-484211 1008 L-481000 1008 L-478137 1008 L-477169 1008 L-476047 1008 L-476028 1008 L-474403 1008 L-473939 1007 L-473847 1007 L-467478 1007 L-466530 1007 L-464073 1007 L-463200 1007 L-461964 1007 L-459963 1006 L-459565 1006 L-458129 1006 L-456103 1006 L-455890 1006 L-454710 1006 L-453201 1006 L-453181 1006 L-451169 1005 L-450299 1005 L-449428 1005 L-448844 1005 L-448306 1005 L-447649 1005 L-446410 1004 L-445850 1004 L-444669 1004 L-443431 1004 L-443393 1004 L-443006 1004 L-442464 1004 L-441690 1004 L-440568 1003 L-438479 1003 L-438146 1003 L-437860 1003 L-436931 1003 L-436448 1003 L-435713 1002 L-432081 1002 L-430954 1002 L-430799 1002 L-429773 1002 L-426058 1002 L-424841 1002 L-423022 1002 L-420237 1001 L-419675 1001 L-415787 1001 L-413311 1001 L-411976 1001 L-411473 1001 L-410989 1001 L-408300 1001 L-404528 1001 L-402071 1001 L-400891 1001 L-400252 1001 L-397893 1001 L-397815 1001 L-396768 1000 L-396674 1000 L-396171 1000 L-395726 1000 L-395668 1000 L-395455 1000 L-392495 1000 L-389787 1000 L-389633 1000 L-386112 1000 L-385589 1000 L-384622 999 L-384273 999 L-383229 999 L-382300 999 L-381875 999 L-380366 999 L-379399 999 L-379380 999 L-377484 991 L-377368 984 L-377320 977 L-377295 970 L-374291 970 L-372261 969 L-370500 969 L-370133 969 L-369687 969 L-369320 969 L-368906 969 L-366921 969 L-366708 969 L-366553 969 L-364948 969 L-363826 968 L-362878 968 L-361621 968 L-359976 968 L-358796 968 L-352207 968 L-352160 968 L-351755 968 L-350709 967 L-350574 967 L-348892 967 L-348872 967 L-347535 967 L-346299 967 L-346144 967 L-345770 966 L-345564 966 L-345255 966 L-344481 966 L-342159 966 L-341502 966 L-339374 966 L-337651 966 L-337458 965 L-334905 965 L-334628 965 L-334440 965 L-333608 965 L-332835 965 L-332137 965 L-327136 965 L-326761 965 L-322508 964 L-322021 974 L-322001 974 L-321922 974 L-321847 974 L-321827 964 L-321014 964 L-320261 964 L-319042 964 L-317610 964 L-317513 963 L-317339 963 L-316985 963 L-315675 963 L-313818 963 L-312116 963 L-311613 963 L-311347 963 L-310954 963 L-310820 962 L-309910 962 L-309534 962 L-308605 962 L-308266 962 L-308227 962 L-308189 962 L-306274 962 L-306100 962 L-304571 962 L-304243 962 L-304127 962 L-303720 962 L-303372 961 L-301728 961 L-301177 961 L-300934 961 L-300393 961 L-299561 961 L-299020 961 L-297485 961 L-297393 960 L-297356 960 L-297220 960 L-296833 960 L-295808 960 L-293931 960 L-293835 960 L-293235 963 L-292868 966 L-292383 970 L-292345 973 L-291571 973 L-291514 973 L-291339 973 L-291146 973 L-289540 973 L-289520 973 L-289365 973 L-289250 973 L-288070 973 L-287915 973 L-287249 973 L-284800 981 L-282285 989 L-279616 997 L-271916 1005 L-266249 1005 L-264034 1005 L-264011 1005 L-263037 1007 L-263017 1007 L-262153 1007 L-259413 1007 L-253615 1005 L-253461 1005 L-250675 1004 L-237067 1004 L-236321 1004 L-231910 1004 L-215564 1004 L-215332 1004 L-214795 1004 L-206336 1003 L-197630 1003 L-197418 1003 L-195445 1003 L-192659 1003 L-188171 1003 L-188017 1003 L-187848 1003 L-187707 1003 L-187416 1003 L-187378 1003 L-187107 1003 L-186935 1003 L-186525 1002 L-185405 1002 L-184224 1002 L-182948 1002 L-180084 1002 L-177163 1002 L-175171 1002 L-173624 1002 L-170586 1002 L-161261 1002 L-160737 1001 L-155014 1001 L-153506 1001 L-152692 1001 L-151008 1001 L-150287 1001 L-150119 1001 L-149074 1001 L-147006 1001 L-145644 1001 L-141201 1001 L-141104 1000 L-141065 1000 L-141046 1000 L-140214 1000 L-140136 1000 L-137564 1000 L-134314 1000 L-134159 1000 L-133211 1000 L-131470 999 L-130755 1000 L-127214 1000 L-120637 1001 L-119219 1002 L-119199 1002 L-118248 1002 L-114774 1002 L-114020 1001 L-113459 1001 L-112677 1001 L-105173 1001 L-103574 1001 L-102000 1001 L-98815 1001 L-94482 1001 L-85912 1001 L-77166 1001 L-74092 1000 L-70826 1000 L-70279 1000 L-63142 1000 L-57474 1000 L-43410 1000 L-37399 1000 L-32692 1000 L-28689 1000 L-23582 1000 L-13868 1000 L1702 999 L4785 999 L5087 955 L5107 901 L5125 840 L5145 771 L5165 740 L5184 713 L5203 689 L5230 665 L5251 642 L5279 617 L5314 590 L5328 567 L5341 547 L5359 531 L5378 519 L5398 506 L5416 494 L5436 482 L5456 469 L5477 456 L5494 443 L5512 431 L5533 419 L5553 407 L5571 394 L5590 380 L5610 366 L5630 353 L5648 340 L5667 328 L5688 316 L5713 304 L5728 292 L5745 281 L5764 270 L5784 259 L5803 247 L5822 234 L5842 223 L5862 212 L5880 201 L5899 191 L5920 182 L5940 173 L5957 165 L5976 157 L5997 150 L6015 143 L6035 136 L6054 130 L6074 124 L6093 119 L6113 114 L6131 109 L6159 102 L6180 95 L6207 88 L6241 79 L6256 72 L6269 66 L6287 61 L6306 56 L6326 51 L6345 45 L6364 40 L6384 34 L6405 29 L6422 24 L6441 18 L6461 13 L6481 7 L6500 0" />
</svg>
