<svg xmlns="http://www.w3.org/2000/svg" version="1.1" viewBox="0 0 6500 1000">
	<path fill="none" stroke="gold" stroke-width="125" stroke-linecap="round" stroke-linejoin="round" d="M0 3294  L-728604 3294 L-726000 3294 L-724332 3293 L-706003 3293 L-705832 3293 L-698675 3293 L-698641 3293 L-685211 3292 L-682289 3293 L-668948 3292 L-664779 3292 L-663619 3291 L-663000 3290 L-660988 3290 L-657216 3289 L-656616 3289 L-656287 3289 L-656074 3289 L-655532 3288 L-654294 3287 L-653116 3286 L-650251 3285 L-649729 3284 L-644873 3283 L-641936 3283 L-641893 3283 L-641585 3283 L-641333 3282 L-638738 3282 L-634483 3282 L-634465 3282 L-633228 3282 L-631350 3282 L-629397 3282 L-628449 3281 L-628178 3281 L-627868 3281 L-627770 3281 L-626940 3281 L-624909 3281 L-624619 3280 L-622472 3279 L-622317 3278 L-618660 3277 L-618409 3278 L-618311 3278 L-617794 3278 L-615642 3279 L-614714 3280 L-613188 3280 L-611948 3280 L-610402 3280 L-607440 3280 L-606318 3280 L-606009 3279 L-604798 3279 L-601791 3281 L-601771 3281 L-601424 3280 L-601211 3280 L-601085 3278 L-600843 3278 L-600805 3278 L-600785 3277 L-600766 3277 L-600707 3277 L-600649 3277 L-600631 3276 L-600188 3276 L-598948 3276 L-597402 3275 L-594015 3275 L-588288 3275 L-588087 3275 L-586451 3275 L-584729 3275 L-583297 3274 L-583065 3274 L-582349 3274 L-576217 3274 L-575849 3274 L-575695 3273 L-575117 3273 L-574824 3273 L-573857 3273 L-573547 3272 L-572948 3272 L-571342 3272 L-570607 3272 L-570297 3272 L-569529 3272 L-567493 3272 L-567067 3272 L-566255 3271 L-558826 3271 L-558303 3271 L-558130 3271 L-557394 3270 L-555827 3270 L-555421 3270 L-553196 3270 L-552248 3269 L-551823 3269 L-551493 3269 L-550449 3269 L-548341 3269 L-548089 3269 L-547470 3268 L-546657 3268 L-544549 3268 L-544501 3268 L-542573 3267 L-542247 3267 L-542112 3267 L-541609 3267 L-540196 3266 L-539693 3266 L-539171 3265 L-535612 3265 L-534877 3264 L-532452 3264 L-531162 3264 L-530755 3264 L-527603 3264 L-527448 3264 L-527428 3264 L-527061 3264 L-525803 3264 L-525088 3264 L-524198 3264 L-523791 3264 L-522863 3264 L-521754 3264 L-521451 3265 L-515202 3265 L-514255 3265 L-512628 3266 L-512127 3266 L-508451 3266 L-507619 3266 L-503665 3266 L-502254 3266 L-499764 3265 L-499088 3265 L-499049 3265 L-498178 3265 L-494967 3265 L-492104 3265 L-491136 3265 L-490015 3264 L-489996 3264 L-488371 3264 L-487906 3263 L-487815 3263 L-481445 3263 L-480497 3263 L-478040 3263 L-477167 3262 L-475931 3262 L-473930 3262 L-473532 3262 L-472096 3262 L-470070 3261 L-469857 3261 L-468677 3261 L-467168 3261 L-467148 3261 L-465136 3261 L-464266 3260 L-463396 3260 L-462811 3260 L-462274 3260 L-461616 3259 L-460378 3259 L-459817 3259 L-458636 3259 L-457398 3259 L-457360 3258 L-456973 3258 L-456431 3258 L-455658 3258 L-454535 3258 L-452446 3257 L-452113 3257 L-451827 3257 L-450898 3257 L-450415 3256 L-449680 3256 L-446048 3256 L-444921 3256 L-444766 3256 L-443740 3256 L-440026 3255 L-438808 3255 L-436990 3255 L-434204 3255 L-433642 3254 L-429755 3254 L-427278 3254 L-425943 3254 L-425440 3254 L-424957 3254 L-422267 3254 L-418496 3254 L-416038 3254 L-414859 3254 L-414219 3254 L-411860 3254 L-411782 3253 L-410735 3253 L-410641 3253 L-410139 3253 L-409693 3253 L-409635 3253 L-409422 3253 L-406462 3253 L-403755 3253 L-403600 3252 L-400079 3252 L-399556 3252 L-398589 3252 L-398240 3252 L-397196 3251 L-396267 3251 L-395842 3251 L-394333 3251 L-393366 3251 L-393347 3251 L-391451 3240 L-391335 3229 L-391287 3219 L-391263 3208 L-388258 3208 L-386228 3208 L-384467 3208 L-384100 3208 L-383654 3207 L-383287 3207 L-382873 3207 L-380888 3207 L-380675 3207 L-380520 3207 L-378915 3207 L-377793 3207 L-376845 3206 L-375588 3206 L-373943 3206 L-372764 3206 L-366174 3206 L-366127 3205 L-365722 3205 L-364677 3205 L-364541 3205 L-362859 3205 L-362839 3205 L-361502 3204 L-360266 3204 L-360112 3204 L-359738 3204 L-359531 3204 L-359222 3203 L-358448 3203 L-356127 3203 L-355469 3203 L-353341 3203 L-351619 3203 L-351425 3202 L-348872 3202 L-348595 3202 L-348407 3202 L-347575 3201 L-346802 3201 L-346104 3201 L-341104 3201 L-340728 3201 L-336475 3201 L-335988 3215 L-335969 3215 L-335890 3215 L-335814 3214 L-335794 3200 L-334982 3200 L-334228 3200 L-333009 3199 L-331577 3199 L-331481 3199 L-331306 3199 L-330952 3199 L-329642 3199 L-327785 3199 L-326083 3198 L-325580 3198 L-325315 3198 L-324922 3198 L-324787 3198 L-323878 3198 L-323501 3198 L-322573 3198 L-322234 3197 L-322194 3197 L-322156 3197 L-320241 3197 L-320067 3197 L-318538 3197 L-318210 3197 L-318094 3197 L-317687 3197 L-317339 3196 L-315695 3196 L-315144 3196 L-314901 3196 L-314360 3196 L-313528 3195 L-312987 3195 L-311452 3195 L-311360 3195 L-311323 3195 L-311187 3195 L-310800 3194 L-309775 3194 L-307899 3194 L-307802 3194 L-307202 3199 L-306835 3203 L-306350 3208 L-306312 3213 L-305538 3213 L-305481 3213 L-305306 3213 L-305113 3213 L-303508 3213 L-303488 3212 L-303332 3213 L-303217 3213 L-302037 3213 L-301883 3213 L-301216 3213 L-298768 3225 L-296253 3237 L-293583 3249 L-285884 3260 L-280216 3260 L-278001 3260 L-277978 3260 L-277004 3263 L-276984 3263 L-276121 3263 L-273380 3263 L-267582 3260 L-267428 3259 L-264642 3259 L-251034 3259 L-250288 3259 L-245878 3258 L-229531 3258 L-229299 3258 L-228762 3258 L-220303 3258 L-211597 3258 L-211385 3257 L-209412 3257 L-206626 3257 L-202139 3257 L-201984 3257 L-201815 3257 L-201674 3257 L-201384 3257 L-201345 3257 L-201074 3257 L-200902 3256 L-200492 3256 L-199372 3256 L-198191 3256 L-196915 3256 L-194051 3256 L-191131 3256 L-189139 3255 L-187591 3255 L-184553 3255 L-175229 3255 L-174705 3255 L-168981 3255 L-167474 3255 L-166659 3255 L-164976 3254 L-164255 3254 L-164086 3254 L-163041 3254 L-160974 3254 L-159612 3254 L-155168 3253 L-155071 3253 L-155032 3253 L-155013 3253 L-154181 3253 L-154103 3253 L-151531 3252 L-148281 3252 L-148127 3252 L-147178 3252 L-145437 3252 L-144722 3253 L-141181 3253 L-134604 3254 L-133186 3255 L-133166 3255 L-132215 3255 L-128741 3255 L-127988 3255 L-127426 3254 L-126644 3254 L-119140 3254 L-117541 3254 L-115967 3254 L-112782 3254 L-108449 3254 L-99879 3253 L-91133 3253 L-88059 3253 L-84793 3253 L-84247 3253 L-77109 3253 L-71442 3253 L-57377 3253 L-51366 3253 L-46660 3253 L-42656 3252 L-37549 3252 L-27835 3252 L-12264 3252 L-9181 3252 L-8879 3187 L-8860 3108 L-8841 3019 L-8821 2918 L-8801 2873 L-8782 2834 L-8764 2799 L-8736 2764 L-8715 2730 L-8687 2694 L-8652 2654 L-8638 2621 L-8625 2592 L-8607 2568 L-8588 2550 L-8568 2532 L-8550 2514 L-8530 2496 L-8511 2478 L-8489 2459 L-8473 2440 L-8454 2422 L-8433 2405 L-8413 2387 L-8395 2368 L-8376 2348 L-8357 2328 L-8336 2308 L-8318 2289 L-8299 2271 L-8278 2254 L-8253 2236 L-8238 2220 L-8221 2203 L-8202 2187 L-8182 2171 L-8163 2153 L-8144 2135 L-8124 2118 L-8104 2102 L-8086 2086 L-8067 2072 L-8046 2058 L-8026 2045 L-8009 2034 L-7990 2022 L-7970 2012 L-7951 2001 L-7931 1991 L-7912 1982 L-7892 1974 L-7873 1967 L-7854 1959 L-7835 1952 L-7808 1942 L-7787 1932 L-7759 1921 L-7725 1909 L-7711 1899 L-7698 1890 L-7679 1882 L-7660 1875 L-7640 1867 L-7622 1859 L-7602 1851 L-7582 1842 L-7562 1835 L-7544 1828 L-7525 1820 L-7505 1812 L-7485 1803 L-7467 1793 L-7448 1782 L-7428 1771 L-7408 1760 L-7389 1749 L-7371 1737 L-7350 1724 L-7325 1710 L-7310 1696 L-7293 1683 L-7273 1670 L-7254 1657 L-7235 1644 L-7216 1630 L-7196 1616 L-7175 1602 L-7157 1590 L-7138 1577 L-7118 1565 L-7098 1552 L-7080 1541 L-7061 1531 L-7041 1520 L-7022 1511 L-7003 1501 L-6984 1492 L-6964 1482 L-6945 1473 L-6925 1463 L-6906 1454 L-6878 1444 L-6858 1436 L-6830 1427 L-6793 1416 L-6778 1406 L-6765 1396 L-6748 1387 L-6731 1381 L-6711 1375 L-6693 1369 L-6674 1364 L-6654 1359 L-6633 1353 L-6616 1347 L-6597 1341 L-6576 1334 L-6557 1328 L-6538 1320 L-6519 1313 L-6499 1305 L-6480 1296 L-6461 1287 L-6442 1279 L-6421 1271 L-6397 1262 L-6382 1254 L-6365 1246 L-6345 1237 L-6326 1229 L-6306 1220 L-6287 1211 L-6267 1202 L-6247 1193 L-6229 1185 L-6210 1177 L-6190 1169 L-6169 1162 L-6152 1155 L-6132 1147 L-6113 1140 L-6094 1133 L-6074 1126 L-6055 1119 L-6035 1112 L-6016 1106 L-5997 1099 L-5978 1093 L-5950 1086 L-5929 1079 L-5901 1071 L-5865 1061 L-5851 1051 L-5838 1042 L-5820 1034 L-5802 1029 L-5783 1023 L-5764 1016 L-5744 1010 L-5725 1002 L-5703 994 L-5685 986 L-5668 977 L-5648 968 L-5627 958 L-5609 948 L-5590 937 L-5571 926 L-5550 916 L-5532 907 L-5513 899 L-5492 893 L-5467 887 L-5453 882 L-5435 877 L-5416 872 L-5396 866 L-5377 860 L-5358 855 L-5338 850 L-5318 845 L-5300 841 L-5281 836 L-5261 830 L-5240 823 L-5223 816 L-5204 811 L-5184 806 L-5165 803 L-5146 800 L-5127 797 L-5107 793 L-5087 789 L-5068 785 L-5049 782 L-5022 778 L-5001 774 L-4973 771 L-4938 766 L-4925 762 L-4911 758 L-4893 755 L-4874 752 L-4854 750 L-4836 747 L-4816 744 L-4796 742 L-4775 739 L-4758 736 L-4740 733 L-4719 730 L-4699 727 L-4681 723 L-4662 720 L-4642 718 L-4622 715 L-4604 712 L-4585 709 L-4564 707 L-4539 704 L-4524 702 L-4507 699 L-4488 697 L-4468 694 L-4449 691 L-4430 688 L-4410 685 L-4389 682 L-4372 679 L-4353 677 L-4332 674 L-4312 671 L-4294 669 L-4275 666 L-4255 664 L-4237 662 L-4217 659 L-4198 657 L-4178 656 L-4159 654 L-4139 652 L-4121 655 L-4092 658 L-4072 661 L-4044 664 L-4007 661 L-3992 659 L-3979 657 L-3962 655 L-3945 654 L-3925 653 L-3907 651 L-3887 649 L-3868 648 L-3846 646 L-3830 645 L-3811 643 L-3790 642 L-3770 640 L-3752 638 L-3733 637 L-3714 635 L-3693 633 L-3675 632 L-3656 630 L-3635 629 L-3610 628 L-3596 626 L-3579 624 L-3559 623 L-3540 621 L-3520 620 L-3501 618 L-3481 616 L-3461 613 L-3443 611 L-3424 609 L-3404 607 L-3383 605 L-3366 603 L-3347 601 L-3327 599 L-3308 597 L-3288 595 L-3269 592 L-3250 590 L-3230 588 L-3211 587 L-3192 585 L-3164 583 L-3144 581 L-3116 579 L-3081 577 L-3067 575 L-3054 573 L-3035 572 L-3017 570 L-2997 569 L-2978 567 L-2959 565 L-2939 563 L-2918 562 L-2901 560 L-2882 558 L-2862 556 L-2842 554 L-2824 552 L-2805 549 L-2785 546 L-2765 543 L-2747 541 L-2728 539 L-2706 536 L-2681 533 L-2667 531 L-2650 528 L-2630 526 L-2611 523 L-2592 521 L-2573 518 L-2553 516 L-2532 513 L-2515 511 L-2495 509 L-2475 507 L-2454 505 L-2437 503 L-2418 501 L-2398 500 L-2379 498 L-2360 497 L-2341 495 L-2321 494 L-2301 493 L-2282 491 L-2263 490 L-2236 489 L-2215 487 L-2187 486 L-2152 483 L-2138 481 L-2125 478 L-2106 476 L-2088 474 L-2068 473 L-2050 471 L-2030 470 L-2011 468 L-1990 467 L-1973 465 L-1954 463 L-1933 461 L-1913 459 L-1895 457 L-1876 455 L-1856 453 L-1836 451 L-1818 449 L-1799 447 L-1778 446 L-1753 444 L-1738 443 L-1721 441 L-1702 439 L-1682 438 L-1663 435 L-1644 433 L-1624 430 L-1603 428 L-1586 425 L-1567 423 L-1546 421 L-1526 419 L-1509 417 L-1490 416 L-1470 415 L-1451 414 L-1431 412 L-1412 411 L-1392 410 L-1373 408 L-1353 407 L-1335 406 L-1308 405 L-1287 404 L-1259 402 L-1225 401 L-1210 400 L-1197 399 L-1179 398 L-1160 397 L-1140 396 L-1122 395 L-1102 394 L-1082 393 L-1062 393 L-1044 392 L-1025 391 L-1005 390 L-985 388 L-967 387 L-948 386 L-928 386 L-908 385 L-889 384 L-871 384 L-849 383 L-825 382 L-810 381 L-793 380 L-773 379 L-754 378 L-735 377 L-716 376 L-696 375 L-675 373 L-657 371 L-638 369 L-618 367 L-598 365 L-580 364 L-561 363 L-541 361 L-522 360 L-502 358 L-484 357 L-464 356 L-445 355 L-425 354 L-406 353 L-378 352 L-330 351 L-293 350 L-278 349 L-266 348 L-249 347 L-231 347 L-212 346 L-193 346 L-174 345 L-154 344 L-133 343 L-116 343 L-97 342 L-77 341 L-57 341 L-38 340 L-19 339 L0 338 L19 337 L38 336 L57 335 L78 333 L103 332 L117 330 L134 329 L154 327 L173 326 L193 324 L212 323 L232 322 L252 320 L270 319 L289 318 L310 316 L330 315 L347 314 L366 313 L386 312 L405 312 L425 311 L444 309 L464 308 L483 307 L503 306 L521 305 L550 304 L570 303 L598 301 L634 299 L649 297 L662 295 L679 293 L697 292 L717 291 L735 290 L755 289 L774 289 L796 288 L812 287 L831 285 L852 284 L872 282 L890 281 L909 279 L929 276 L949 275 L967 273 L986 271 L1007 270 L1032 268 L1047 267 L1065 266 L1083 264 L1103 263 L1122 262 L1141 260 L1161 259 L1182 257 L1199 256 L1218 254 L1238 253 L1260 252 L1276 251 L1295 250 L1315 248 L1334 247 L1354 246 L1372 245 L1392 244 L1412 243 L1431 242 L1450 241 L1478 997 L1498 996 L1526 995 L1562 993 L1576 234 L1589 233 L1607 232 L1625 231 L1645 230 L1663 230 L1683 229 L1703 227 L1724 226 L1741 224 L1759 223 L1780 221 L1800 219 L1818 217 L1837 215 L1857 213 L1878 212 L1895 211 L1914 209 L1936 208 L1961 206 L1976 205 L2005 203 L2045 200 L2068 198 L2097 195 L2114 193 L2127 191 L2147 190 L2167 189 L2188 188 L2205 187 L2224 186 L2244 185 L2263 184 L2282 183 L2301 183 L2321 182 L2341 181 L2360 180 L2378 179 L2406 178 L2427 177 L2455 176 L2490 175 L2503 174 L2535 172 L2554 171 L2574 171 L2592 170 L2612 169 L2631 169 L2652 168 L2669 167 L2688 165 L2709 162 L2729 159 L2747 155 L2766 152 L2786 149 L2806 147 L2824 145 L2843 143 L2864 142 L2889 141 L2904 139 L2921 138 L2940 136 L2960 135 L2979 134 L2998 132 L3018 131 L3039 129 L3056 127 L3075 126 L3096 125 L3117 124 L3133 123 L3152 122 L3172 121 L3192 120 L3211 119 L3230 118 L3250 117 L3269 116 L3288 115 L3307 114 L3335 113 L3355 112 L3425 110 L3453 108 L3468 106 L3482 103 L3502 102 L3520 101 L3540 100 L3560 98 L3581 97 L3598 96 L3617 95 L3637 95 L3657 94 L3675 93 L3694 92 L3714 90 L3735 89 L3752 87 L3771 86 L3793 85 L3818 84 L3833 83 L3850 82 L3869 81 L3889 79 L3908 78 L3927 77 L3946 76 L3968 75 L3984 74 L4004 73 L4024 72 L4045 71 L4062 70 L4120 69 L4139 68 L4158 67 L4178 66 L4198 65 L4217 64 L4236 64 L4263 63 L4284 63 L4312 62 L4348 61 L4363 60 L4375 60 L4393 59 L4411 59 L4431 58 L4449 58 L4469 57 L4489 57 L4510 56 L4526 56 L4545 56 L4566 55 L4586 54 L4604 54 L4623 53 L4643 52 L4663 51 L4681 50 L4700 50 L4721 49 L4746 48 L4761 48 L4778 47 L4797 47 L4817 46 L4836 45 L4855 44 L4875 43 L4896 42 L4913 41 L4932 40 L4953 39 L4974 39 L4990 38 L5009 38 L5030 37 L5049 37 L5068 37 L5087 36 L5107 36 L5127 35 L5145 35 L5164 35 L5192 34 L5212 34 L5240 33 L5276 32 L5289 32 L5303 31 L5321 31 L5339 30 L5359 30 L5377 29 L5417 29 L5437 28 L5455 28 L5474 27 L5494 26 L5514 26 L5532 25 L5551 24 L5571 23 L5591 23 L5610 22 L5628 21 L5649 21 L5674 20 L5689 20 L5706 19 L5726 19 L5745 18 L5764 17 L5783 17 L5803 16 L5824 15 L5842 15 L5860 14 L5881 13 L5901 13 L5919 12 L5938 12 L5958 11 L5977 11 L5996 10 L6015 10 L6035 9 L6055 9 L6074 8 L6093 8 L6121 7 L6169 7 L6206 6 L6222 6 L6234 5 L6251 5 L6268 4 L6288 4 L6306 4 L6325 3 L6345 3 L6366 3 L6383 3 L6402 3 L6423 2 L6442 2 L6461 2 L6480 1 L6500 1" />
</svg>
