<svg xmlns="http://www.w3.org/2000/svg" version="1.1" viewBox="0 0 6500 1000">
	<path fill="none" stroke="gold" stroke-width="125" stroke-linecap="round" stroke-linejoin="round" d="M0 1022  L-715450 1022 L-712846 1022 L-711178 1021 L-692849 1021 L-692678 1021 L-685521 1021 L-685487 1021 L-672056 1021 L-669135 1021 L-655794 1021 L-651625 1020 L-650465 1020 L-649846 1020 L-647834 1019 L-644062 1019 L-643462 1019 L-643133 1019 L-642920 1019 L-642378 1019 L-641140 1018 L-639961 1018 L-637097 1017 L-636575 1016 L-631719 1016 L-628782 1016 L-628739 1016 L-628431 1016 L-628179 1016 L-625584 1015 L-621329 1015 L-621311 1015 L-620074 1015 L-618196 1015 L-616243 1015 L-615295 1015 L-615024 1015 L-614714 1015 L-614616 1015 L-613786 1015 L-611755 1015 L-611464 1014 L-609318 1014 L-609163 1013 L-605506 1013 L-605255 1013 L-605157 1013 L-604640 1013 L-602488 1014 L-601560 1014 L-600034 1015 L-598794 1015 L-597248 1014 L-594286 1014 L-593164 1014 L-592855 1014 L-591644 1014 L-588637 1015 L-588617 1015 L-588270 1015 L-588057 1015 L-587930 1013 L-587689 1013 L-587651 1013 L-587631 1013 L-587612 1013 L-587553 1013 L-587495 1013 L-587476 1012 L-587033 1012 L-585794 1012 L-584248 1012 L-580861 1012 L-575134 1012 L-574933 1012 L-573297 1012 L-571575 1012 L-570143 1011 L-569911 1011 L-569195 1011 L-563063 1011 L-562695 1011 L-562541 1011 L-561963 1011 L-561670 1011 L-560703 1010 L-560393 1010 L-559794 1010 L-558188 1010 L-557453 1010 L-557143 1010 L-556375 1010 L-554338 1010 L-553913 1010 L-553101 1010 L-545672 1010 L-545149 1010 L-544975 1009 L-544240 1009 L-542673 1009 L-542267 1009 L-540042 1009 L-539094 1009 L-538669 1009 L-538339 1009 L-537295 1009 L-535187 1009 L-534935 1008 L-534316 1008 L-533503 1008 L-531395 1008 L-531347 1008 L-529419 1008 L-529093 1008 L-528958 1007 L-528455 1007 L-527042 1007 L-526539 1007 L-526017 1007 L-522458 1006 L-521723 1006 L-519298 1006 L-518008 1006 L-517601 1006 L-514449 1006 L-514294 1006 L-514274 1006 L-513907 1006 L-512649 1006 L-511934 1006 L-511044 1006 L-510637 1006 L-509708 1006 L-508600 1006 L-508297 1006 L-502048 1006 L-501100 1007 L-499474 1007 L-498973 1007 L-495297 1007 L-494464 1007 L-490511 1007 L-489100 1007 L-486610 1007 L-485934 1006 L-485895 1006 L-485024 1006 L-481813 1006 L-478950 1006 L-477982 1006 L-476860 1006 L-476841 1006 L-475216 1006 L-474752 1005 L-474660 1005 L-468291 1005 L-467343 1005 L-464886 1005 L-464013 1005 L-462777 1005 L-460776 1005 L-460378 1005 L-458942 1005 L-456916 1005 L-456703 1004 L-455523 1004 L-454014 1004 L-453994 1004 L-451982 1004 L-451112 1004 L-450241 1004 L-449657 1004 L-449119 1004 L-448462 1003 L-447224 1003 L-446663 1003 L-445482 1003 L-444244 1003 L-444206 1003 L-443819 1003 L-443277 1003 L-442503 1003 L-441381 1003 L-439292 1002 L-438959 1002 L-438673 1002 L-437744 1002 L-437261 1002 L-436526 1002 L-432894 1002 L-431767 1002 L-431612 1002 L-430586 1001 L-426871 1001 L-425654 1001 L-423836 1001 L-421050 1001 L-420488 1001 L-416601 1001 L-414124 1001 L-412789 1001 L-412286 1001 L-411803 1001 L-409113 1001 L-405342 1001 L-402884 1001 L-401705 1001 L-401065 1001 L-398706 1000 L-398628 1000 L-397581 1000 L-397487 1000 L-396984 1000 L-396539 1000 L-396481 1000 L-396268 1000 L-393308 1000 L-390601 1000 L-390446 1000 L-386925 1000 L-386402 1000 L-385435 999 L-385086 999 L-384042 999 L-383113 999 L-382688 999 L-381179 999 L-380212 999 L-380193 999 L-378297 993 L-378181 988 L-378133 982 L-378109 977 L-375104 976 L-373074 976 L-371313 976 L-370946 976 L-370500 976 L-370133 976 L-369719 976 L-367734 976 L-367521 976 L-367366 976 L-365761 976 L-364639 976 L-363691 975 L-362434 975 L-360789 975 L-359609 975 L-353020 975 L-352973 975 L-352568 975 L-351523 975 L-351387 975 L-349705 975 L-349685 974 L-348348 974 L-347112 974 L-346957 974 L-346584 974 L-346377 974 L-346068 974 L-345294 974 L-342972 974 L-342315 974 L-340187 974 L-338464 973 L-338271 973 L-335718 973 L-335441 973 L-335253 973 L-334421 973 L-333648 973 L-332950 973 L-327950 973 L-327574 973 L-323321 972 L-322834 980 L-322814 980 L-322735 980 L-322660 980 L-322640 972 L-321828 972 L-321074 972 L-319855 972 L-318423 972 L-318326 972 L-318152 972 L-317798 972 L-316488 971 L-314631 971 L-312929 971 L-312426 971 L-312161 971 L-311767 971 L-311633 971 L-310723 971 L-310347 971 L-309419 971 L-309079 971 L-309040 971 L-309002 971 L-307087 971 L-306913 971 L-305384 971 L-305056 971 L-304940 970 L-304533 970 L-304185 970 L-302541 970 L-301990 970 L-301747 970 L-301206 970 L-300374 970 L-299833 970 L-298298 969 L-298206 969 L-298169 969 L-298033 969 L-297646 969 L-296621 969 L-294744 969 L-294648 969 L-294048 971 L-293681 974 L-293196 977 L-293158 979 L-292384 979 L-292327 979 L-292152 979 L-291959 979 L-290353 979 L-290333 979 L-290178 979 L-290063 979 L-288883 979 L-288729 979 L-288062 979 L-285613 985 L-283099 992 L-280429 998 L-272730 1004 L-267062 1004 L-264847 1004 L-264824 1004 L-263850 1005 L-263830 1005 L-262966 1005 L-260226 1005 L-254428 1004 L-254274 1003 L-251488 1003 L-237880 1003 L-237134 1003 L-232723 1003 L-216377 1003 L-216145 1003 L-215608 1003 L-207149 1003 L-198443 1002 L-198231 1002 L-196258 1002 L-193472 1002 L-188985 1002 L-188830 1002 L-188661 1002 L-188520 1002 L-188230 1002 L-188191 1002 L-187920 1002 L-187748 1002 L-187338 1002 L-186218 1002 L-185037 1002 L-183761 1002 L-180897 1002 L-177977 1001 L-175984 1001 L-174437 1001 L-171399 1001 L-162074 1001 L-161550 1001 L-155827 1001 L-154320 1001 L-153505 1001 L-151821 1001 L-151100 1001 L-150932 1001 L-149887 1001 L-147819 1000 L-146457 1000 L-142014 1000 L-141917 1000 L-141878 1000 L-141859 1000 L-141027 1000 L-140949 1000 L-138377 1000 L-135127 1000 L-134973 1000 L-134024 1000 L-132283 999 L-131568 1000 L-128027 1000 L-121450 1001 L-120032 1001 L-120012 1001 L-119061 1001 L-115587 1001 L-114834 1001 L-114272 1001 L-113490 1001 L-105986 1001 L-104387 1001 L-102813 1001 L-99628 1000 L-95295 1000 L-86725 1000 L-77979 1000 L-74905 1000 L-71639 1000 L-71092 1000 L-63955 1000 L-58288 1000 L-44223 1000 L-38212 1000 L-33505 1000 L-29502 1000 L-24395 1000 L-14681 1000 L889 999 L3972 999 L4274 965 L4293 924 L4312 876 L4332 823 L4352 799 L4371 779 L4390 760 L4417 742 L4438 724 L4466 705 L4501 684 L4515 666 L4528 651 L4546 638 L4565 629 L4585 620 L4603 610 L4623 600 L4643 591 L4664 581 L4681 571 L4699 561 L4720 552 L4740 543 L4758 533 L4777 522 L4797 512 L4817 501 L4835 491 L4854 482 L4875 473 L4900 463 L4915 455 L4932 446 L4951 437 L4971 429 L4990 419 L5009 410 L5029 401 L5049 392 L5067 384 L5086 376 L5107 369 L5127 362 L5144 356 L5163 350 L5183 345 L5202 339 L5222 334 L5241 329 L5261 325 L5280 321 L5300 317 L5318 313 L5346 308 L5366 303 L5394 297 L5428 290 L5442 285 L5456 280 L5474 276 L5493 272 L5513 269 L5532 264 L5551 260 L5571 255 L5592 251 L5609 247 L5628 243 L5648 239 L5668 235 L5686 229 L5705 224 L5725 218 L5745 212 L5764 206 L5782 200 L5804 193 L5828 185 L5843 178 L5860 171 L5880 164 L5899 158 L5919 150 L5937 143 L5957 136 L5978 129 L5996 122 L6015 115 L6035 109 L6055 102 L6073 96 L6092 91 L6112 85 L6131 80 L6151 75 L6169 70 L6189 65 L6209 60 L6228 55 L6247 50 L6276 45 L6295 41 L6323 36 L6360 30 L6375 25 L6388 20 L6405 15 L6422 12 L6442 9 L6460 6 L6479 3 L6500 0" />
</svg>
