<svg xmlns="http://www.w3.org/2000/svg" version="1.1" viewBox="0 0 6500 1000">
	<path fill="none" stroke="gold" stroke-width="125" stroke-linecap="round" stroke-linejoin="round" d="M0 3286  L-728722 3286 L-726118 3286 L-724450 3286 L-706120 3285 L-705950 3285 L-698792 3285 L-698759 3285 L-685328 3285 L-682406 3285 L-669065 3284 L-664896 3284 L-663736 3283 L-663117 3282 L-661105 3282 L-657334 3282 L-656734 3281 L-656405 3281 L-656192 3281 L-655650 3280 L-654412 3279 L-653233 3278 L-650369 3277 L-649847 3276 L-644991 3276 L-642054 3275 L-642011 3275 L-641702 3275 L-641451 3275 L-638856 3274 L-634600 3274 L-634582 3274 L-633345 3274 L-631468 3274 L-629515 3274 L-628567 3274 L-628296 3273 L-627986 3273 L-627888 3273 L-627057 3273 L-625027 3273 L-624736 3272 L-622590 3271 L-622434 3271 L-618778 3270 L-618527 3270 L-618428 3270 L-617911 3270 L-615760 3271 L-614831 3272 L-613305 3273 L-612066 3273 L-610519 3272 L-607557 3272 L-606436 3272 L-606126 3272 L-604915 3271 L-601909 3273 L-601889 3273 L-601542 3273 L-601328 3273 L-601202 3271 L-600961 3270 L-600923 3270 L-600903 3270 L-600884 3269 L-600825 3269 L-600766 3269 L-600748 3269 L-600305 3268 L-599066 3268 L-597520 3268 L-594132 3267 L-588406 3267 L-588204 3267 L-586569 3267 L-584847 3267 L-583415 3267 L-583182 3267 L-582467 3266 L-576335 3266 L-575967 3266 L-575813 3266 L-575234 3265 L-574942 3265 L-573974 3265 L-573665 3265 L-573066 3264 L-571459 3264 L-570724 3264 L-570415 3264 L-569646 3264 L-567610 3264 L-567185 3264 L-566372 3264 L-558944 3263 L-558421 3263 L-558247 3263 L-557512 3263 L-555944 3262 L-555539 3262 L-553314 3262 L-552366 3262 L-551941 3262 L-551611 3262 L-550567 3261 L-548459 3261 L-548206 3261 L-547588 3261 L-546775 3260 L-544667 3260 L-544618 3260 L-542690 3260 L-542365 3259 L-542230 3259 L-541726 3259 L-540314 3259 L-539811 3258 L-539289 3258 L-535729 3257 L-534994 3256 L-532569 3256 L-531280 3256 L-530873 3256 L-527721 3256 L-527566 3256 L-527545 3256 L-527179 3256 L-525921 3256 L-525206 3256 L-524316 3256 L-523909 3256 L-522980 3256 L-521872 3256 L-521568 3257 L-515320 3257 L-514372 3257 L-512746 3258 L-512244 3258 L-508569 3258 L-507736 3258 L-503783 3258 L-502371 3258 L-499882 3258 L-499205 3257 L-499167 3257 L-498296 3257 L-495085 3257 L-492222 3257 L-491254 3257 L-490132 3256 L-490113 3256 L-488488 3256 L-488024 3255 L-487932 3255 L-481563 3255 L-480614 3255 L-478157 3255 L-477285 3255 L-476049 3255 L-474048 3254 L-473650 3254 L-472214 3254 L-470188 3254 L-469974 3253 L-468794 3253 L-467286 3253 L-467266 3253 L-465253 3253 L-464384 3253 L-463513 3252 L-462928 3252 L-462391 3252 L-461733 3252 L-460495 3251 L-459935 3251 L-458754 3251 L-457516 3251 L-457477 3251 L-457091 3251 L-456549 3250 L-455775 3250 L-454653 3250 L-452564 3250 L-452230 3249 L-451945 3249 L-451016 3249 L-450533 3249 L-449797 3249 L-446166 3248 L-445039 3248 L-444884 3248 L-443858 3248 L-440143 3248 L-438926 3247 L-437107 3247 L-434322 3247 L-433760 3247 L-429872 3247 L-427396 3247 L-426061 3247 L-425557 3246 L-425074 3246 L-422385 3246 L-418613 3246 L-416156 3246 L-414976 3246 L-414337 3246 L-411978 3246 L-411900 3246 L-410853 3246 L-410759 3245 L-410256 3245 L-409811 3245 L-409753 3245 L-409539 3245 L-406580 3245 L-403872 3245 L-403717 3245 L-400197 3245 L-399674 3244 L-398706 3244 L-398357 3244 L-397314 3244 L-396385 3243 L-395959 3243 L-394450 3243 L-393483 3243 L-393465 3243 L-391569 3232 L-391453 3222 L-391405 3211 L-391380 3201 L-388376 3201 L-386345 3200 L-384585 3200 L-384217 3200 L-383772 3200 L-383405 3200 L-382991 3199 L-381006 3199 L-380793 3199 L-380638 3199 L-379033 3199 L-377911 3199 L-376963 3199 L-375705 3199 L-374061 3198 L-372881 3198 L-366292 3198 L-366245 3198 L-365839 3198 L-364794 3198 L-364659 3197 L-362976 3197 L-362956 3197 L-361620 3197 L-360383 3197 L-360229 3196 L-359855 3196 L-359649 3196 L-359340 3196 L-358566 3196 L-356244 3195 L-355586 3195 L-353459 3195 L-351736 3195 L-351543 3195 L-348989 3195 L-348713 3194 L-348525 3194 L-347692 3194 L-346920 3194 L-346222 3194 L-341221 3194 L-340845 3193 L-336592 3193 L-336105 3207 L-336086 3207 L-336007 3207 L-335932 3207 L-335912 3192 L-335099 3192 L-334345 3192 L-333126 3192 L-331694 3192 L-331598 3192 L-331424 3192 L-331069 3191 L-329760 3191 L-327903 3191 L-326200 3191 L-325698 3191 L-325432 3191 L-325039 3190 L-324905 3190 L-323995 3190 L-323619 3190 L-322690 3190 L-322351 3190 L-322312 3190 L-322274 3190 L-320358 3190 L-320185 3190 L-318656 3190 L-318328 3189 L-318212 3189 L-317805 3189 L-317456 3189 L-315813 3189 L-315262 3188 L-315019 3188 L-314477 3188 L-313646 3188 L-313104 3188 L-311570 3187 L-311478 3187 L-311441 3187 L-311305 3187 L-310917 3187 L-309893 3187 L-308016 3187 L-307920 3186 L-307320 3191 L-306953 3196 L-306468 3201 L-306430 3206 L-305656 3206 L-305599 3206 L-305424 3206 L-305230 3205 L-303625 3205 L-303605 3205 L-303450 3205 L-303335 3205 L-302155 3206 L-302000 3206 L-301333 3206 L-298885 3218 L-296370 3230 L-293700 3241 L-286001 3253 L-280333 3253 L-278119 3252 L-278096 3252 L-277122 3255 L-277102 3255 L-276238 3255 L-273498 3255 L-267699 3252 L-267546 3252 L-264760 3251 L-251152 3251 L-250406 3251 L-245995 3251 L-229649 3251 L-229417 3250 L-228880 3250 L-220420 3250 L-211715 3250 L-211502 3250 L-209530 3250 L-206744 3250 L-202256 3250 L-202101 3250 L-201932 3250 L-201792 3249 L-201501 3249 L-201463 3249 L-201192 3249 L-201020 3249 L-200610 3249 L-199489 3248 L-198309 3248 L-197032 3248 L-194168 3248 L-191248 3248 L-189256 3248 L-187708 3247 L-184671 3247 L-175346 3247 L-174822 3247 L-169098 3247 L-167591 3247 L-166777 3247 L-165093 3247 L-164372 3246 L-164204 3246 L-163158 3246 L-161091 3246 L-159729 3246 L-155286 3246 L-155189 3246 L-155150 3245 L-155131 3245 L-154299 3245 L-154221 3245 L-151648 3245 L-148399 3245 L-148244 3244 L-147296 3244 L-145555 3244 L-144839 3245 L-141299 3246 L-134721 3246 L-133304 3248 L-133283 3247 L-132333 3247 L-128858 3247 L-128105 3247 L-127543 3247 L-126761 3247 L-119257 3246 L-117659 3246 L-116085 3246 L-112900 3246 L-108567 3246 L-99997 3246 L-91250 3246 L-88177 3246 L-84911 3245 L-84364 3245 L-77227 3245 L-71559 3245 L-57495 3245 L-51483 3245 L-46777 3245 L-42774 3245 L-37666 3245 L-27952 3244 L-12382 3244 L-9299 3244 L-8997 3180 L-8977 3101 L-8958 3012 L-8939 2912 L-8919 2866 L-8900 2828 L-8881 2793 L-8854 2758 L-8833 2724 L-8805 2688 L-8769 2649 L-8756 2615 L-8743 2586 L-8724 2563 L-8706 2545 L-8686 2527 L-8668 2509 L-8648 2491 L-8628 2473 L-8607 2454 L-8590 2435 L-8572 2417 L-8551 2400 L-8531 2382 L-8513 2363 L-8494 2344 L-8474 2323 L-8454 2304 L-8436 2285 L-8417 2267 L-8396 2249 L-8371 2232 L-8356 2216 L-8339 2199 L-8319 2183 L-8300 2167 L-8281 2149 L-8262 2131 L-8242 2114 L-8221 2098 L-8203 2083 L-8185 2068 L-8164 2054 L-8143 2041 L-8126 2030 L-8107 2019 L-8087 2008 L-8068 1998 L-8049 1988 L-8030 1979 L-8010 1971 L-7990 1964 L-7971 1956 L-7953 1948 L-7925 1939 L-7904 1929 L-7876 1918 L-7842 1906 L-7828 1896 L-7815 1887 L-7796 1879 L-7777 1872 L-7758 1864 L-7739 1856 L-7720 1848 L-7700 1839 L-7679 1832 L-7662 1825 L-7643 1817 L-7623 1809 L-7603 1800 L-7584 1790 L-7566 1780 L-7546 1769 L-7526 1757 L-7507 1746 L-7488 1734 L-7467 1722 L-7443 1708 L-7428 1694 L-7411 1681 L-7391 1668 L-7372 1655 L-7352 1642 L-7334 1627 L-7313 1614 L-7293 1600 L-7275 1587 L-7256 1575 L-7236 1563 L-7215 1551 L-7198 1539 L-7179 1529 L-7159 1518 L-7140 1509 L-7120 1499 L-7101 1490 L-7082 1481 L-7062 1471 L-7043 1462 L-7024 1452 L-6995 1443 L-6975 1434 L-6948 1425 L-6910 1415 L-6895 1405 L-6883 1395 L-6866 1386 L-6849 1380 L-6829 1374 L-6810 1368 L-6791 1363 L-6771 1358 L-6751 1352 L-6733 1346 L-6714 1340 L-6694 1333 L-6674 1326 L-6656 1319 L-6637 1312 L-6617 1304 L-6597 1295 L-6578 1286 L-6560 1278 L-6539 1270 L-6514 1262 L-6500 1253 L-6482 1245 L-6462 1236 L-6443 1228 L-6424 1219 L-6405 1210 L-6385 1201 L-6365 1193 L-6346 1184 L-6327 1176 L-6307 1168 L-6287 1161 L-6269 1154 L-6250 1147 L-6230 1140 L-6212 1133 L-6192 1125 L-6173 1119 L-6153 1112 L-6134 1106 L-6114 1099 L-6095 1092 L-6067 1086 L-6047 1079 L-6019 1071 L-5983 1061 L-5969 1051 L-5956 1042 L-5938 1034 L-5920 1028 L-5900 1023 L-5882 1016 L-5862 1010 L-5842 1002 L-5821 994 L-5803 986 L-5786 977 L-5765 968 L-5745 958 L-5727 948 L-5708 937 L-5688 926 L-5668 916 L-5650 907 L-5631 899 L-5610 893 L-5585 888 L-5570 883 L-5553 878 L-5534 872 L-5514 867 L-5495 861 L-5476 855 L-5456 850 L-5435 846 L-5418 842 L-5399 837 L-5378 831 L-5357 824 L-5341 817 L-5322 811 L-5301 807 L-5283 804 L-5263 801 L-5244 797 L-5224 794 L-5205 790 L-5186 786 L-5167 782 L-5139 779 L-5118 775 L-5091 771 L-5056 767 L-5042 763 L-5029 759 L-5010 756 L-4992 753 L-4972 750 L-4953 748 L-4934 745 L-4914 742 L-4893 740 L-4876 737 L-4857 734 L-4836 731 L-4817 727 L-4799 724 L-4780 721 L-4760 719 L-4740 716 L-4721 713 L-4702 710 L-4681 708 L-4656 705 L-4642 703 L-4625 700 L-4605 698 L-4586 695 L-4566 692 L-4547 689 L-4528 686 L-4507 683 L-4489 680 L-4470 678 L-4450 675 L-4429 673 L-4412 670 L-4393 667 L-4373 665 L-4354 663 L-4334 660 L-4316 659 L-4296 657 L-4276 655 L-4257 653 L-4238 656 L-4209 659 L-4190 662 L-4162 665 L-4124 662 L-4109 660 L-4097 658 L-4079 657 L-4063 655 L-4043 654 L-4025 652 L-4005 650 L-3985 649 L-3964 648 L-3947 646 L-3929 645 L-3908 643 L-3888 641 L-3870 640 L-3851 638 L-3831 636 L-3811 635 L-3793 633 L-3774 632 L-3753 630 L-3728 629 L-3713 627 L-3696 626 L-3677 624 L-3657 622 L-3638 621 L-3619 619 L-3599 617 L-3578 615 L-3561 612 L-3542 610 L-3521 608 L-3501 606 L-3483 604 L-3464 602 L-3444 600 L-3426 598 L-3406 596 L-3387 594 L-3367 592 L-3347 590 L-3328 588 L-3310 587 L-3282 585 L-3261 583 L-3233 581 L-3199 579 L-3185 577 L-3172 575 L-3153 573 L-3134 572 L-3114 570 L-3096 568 L-3076 567 L-3057 565 L-3036 563 L-3019 561 L-3000 560 L-2979 558 L-2959 555 L-2941 553 L-2923 550 L-2903 548 L-2882 545 L-2864 542 L-2845 540 L-2824 538 L-2799 535 L-2784 533 L-2767 530 L-2748 528 L-2728 525 L-2709 523 L-2690 520 L-2670 518 L-2649 515 L-2632 513 L-2613 511 L-2592 508 L-2572 506 L-2555 505 L-2536 503 L-2516 501 L-2497 500 L-2477 498 L-2458 497 L-2439 496 L-2419 494 L-2400 493 L-2381 492 L-2353 491 L-2333 489 L-2305 488 L-2269 485 L-2256 483 L-2243 480 L-2224 478 L-2206 476 L-2186 475 L-2168 473 L-2148 472 L-2128 470 L-2107 468 L-2090 467 L-2072 465 L-2051 463 L-2031 461 L-2013 459 L-1994 457 L-1974 455 L-1954 453 L-1936 451 L-1917 449 L-1895 448 L-1870 446 L-1856 445 L-1839 443 L-1819 441 L-1800 439 L-1781 437 L-1762 435 L-1742 432 L-1721 430 L-1704 427 L-1684 425 L-1664 423 L-1643 421 L-1626 419 L-1607 418 L-1587 417 L-1568 416 L-1549 414 L-1530 413 L-1510 412 L-1490 410 L-1471 409 L-1452 408 L-1425 407 L-1404 406 L-1377 405 L-1342 403 L-1328 402 L-1315 401 L-1296 400 L-1277 399 L-1258 398 L-1239 397 L-1220 396 L-1200 396 L-1179 395 L-1162 394 L-1143 393 L-1123 392 L-1103 390 L-1084 389 L-1066 388 L-1046 388 L-1025 387 L-1007 386 L-988 386 L-967 385 L-943 384 L-928 383 L-911 382 L-891 381 L-872 380 L-852 379 L-833 378 L-814 377 L-793 375 L-775 373 L-756 371 L-736 369 L-715 367 L-698 366 L-679 365 L-659 363 L-640 362 L-620 361 L-601 359 L-581 358 L-562 357 L-543 356 L-524 355 L-495 354 L-448 354 L-411 352 L-396 351 L-383 350 L-366 349 L-349 349 L-329 349 L-310 348 L-291 347 L-271 346 L-251 345 L-233 345 L-214 344 L-194 344 L-175 343 L-156 342 L-137 341 L-117 340 L-97 339 L-79 338 L-60 337 L-39 336 L-14 334 L0 333 L17 331 L37 330 L56 328 L75 327 L94 326 L114 324 L135 323 L153 321 L172 320 L192 319 L212 318 L230 317 L249 316 L269 315 L288 314 L307 313 L326 312 L346 311 L365 310 L385 309 L404 308 L432 307 L452 305 L480 304 L517 302 L531 299 L544 297 L562 296 L579 295 L599 293 L617 293 L637 292 L657 291 L678 290 L695 289 L713 288 L734 286 L754 285 L772 283 L791 281 L811 279 L832 277 L849 275 L868 274 L889 272 L914 271 L929 269 L947 268 L965 267 L986 266 L1004 264 L1023 263 L1043 261 L1064 259 L1081 258 L1101 257 L1121 256 L1142 254 L1159 253 L1178 252 L1197 251 L1216 250 L1236 249 L1255 248 L1275 247 L1295 246 L1314 245 L1332 244 L1360 997 L1381 996 L1408 995 L1444 993 L1458 237 L1472 236 L1490 234 L1508 234 L1527 233 L1546 232 L1565 231 L1585 230 L1606 229 L1623 227 L1642 225 L1663 224 L1683 222 L1701 220 L1720 218 L1739 216 L1760 214 L1778 213 L1797 212 L1818 211 L1843 209 L1858 207 L1888 205 L1927 203 L1950 201 L1980 198 L1996 196 L2010 194 L2029 193 L2049 192 L2070 191 L2087 190 L2106 188 L2126 187 L2145 187 L2165 186 L2183 186 L2203 185 L2223 184 L2242 183 L2261 182 L2289 181 L2309 180 L2337 179 L2372 178 L2386 176 L2418 175 L2436 174 L2456 174 L2474 173 L2494 172 L2514 171 L2535 171 L2552 170 L2570 168 L2591 165 L2611 162 L2629 158 L2648 155 L2668 152 L2688 150 L2706 148 L2725 146 L2747 145 L2772 144 L2786 142 L2804 141 L2822 139 L2843 138 L2861 137 L2881 135 L2900 134 L2922 132 L2938 130 L2958 129 L2978 128 L2999 127 L3016 126 L3035 125 L3055 124 L3074 123 L3093 122 L3112 121 L3132 120 L3152 119 L3171 118 L3189 117 L3217 116 L3238 115 L3308 113 L3336 111 L3350 109 L3365 106 L3385 105 L3403 104 L3422 103 L3442 101 L3463 100 L3480 99 L3499 98 L3520 98 L3540 97 L3558 96 L3577 95 L3597 93 L3617 92 L3635 90 L3654 89 L3675 88 L3700 87 L3715 86 L3732 85 L3751 84 L3771 82 L3790 81 L3809 80 L3829 79 L3850 78 L3867 77 L3886 76 L3907 75 L3928 74 L3944 73 L4002 72 L4022 71 L4041 70 L4060 69 L4081 68 L4099 68 L4118 67 L4146 66 L4166 66 L4194 65 L4231 64 L4245 63 L4258 63 L4276 62 L4293 62 L4313 61 L4331 61 L4351 60 L4371 60 L4392 60 L4409 59 L4427 59 L4448 58 L4468 58 L4486 57 L4505 56 L4525 55 L4546 55 L4563 54 L4582 53 L4604 52 L4629 52 L4643 51 L4660 50 L4680 50 L4700 49 L4718 48 L4738 47 L4757 46 L4779 45 L4795 44 L4815 43 L4835 43 L4856 42 L4873 42 L4892 41 L4912 41 L4931 40 L4950 40 L4969 39 L4989 39 L5009 39 L5028 38 L5047 38 L5074 38 L5095 37 L5123 36 L5158 36 L5172 35 L5185 35 L5203 34 L5222 34 L5241 33 L5260 32 L5299 32 L5320 32 L5337 31 L5356 31 L5376 30 L5396 29 L5415 28 L5433 27 L5453 26 L5473 26 L5492 25 L5511 25 L5532 24 L5556 24 L5571 23 L5588 23 L5608 22 L5627 21 L5647 21 L5665 20 L5685 19 L5706 19 L5724 18 L5743 17 L5763 17 L5784 16 L5801 16 L5820 15 L5840 14 L5859 14 L5879 14 L5898 13 L5917 13 L5937 12 L5956 12 L5975 11 L6004 11 L6052 10 L6089 10 L6104 9 L6117 9 L6134 8 L6150 8 L6170 8 L6188 7 L6208 7 L6228 6 L6249 6 L6266 6 L6285 6 L6305 6 L6324 6 L6343 5 L6362 5 L6382 5 L6402 4 L6420 4 L6439 3 L6460 3 L6485 2 L6500 1" />
</svg>
