<svg xmlns="http://www.w3.org/2000/svg" version="1.1" viewBox="0 0 6500 1000">
	<path fill="none" stroke="gold" stroke-width="125" stroke-linecap="round" stroke-linejoin="round" d="M0 3215  L-729379 3215 L-726775 3215 L-725107 3215 L-706777 3215 L-706607 3214 L-699449 3214 L-699416 3214 L-685985 3214 L-683064 3214 L-669723 3214 L-665554 3213 L-664394 3212 L-663775 3212 L-661763 3211 L-657991 3211 L-657391 3211 L-657062 3210 L-656849 3210 L-656307 3210 L-655069 3209 L-653890 3208 L-651026 3207 L-650504 3205 L-645648 3205 L-642711 3205 L-642668 3205 L-642360 3204 L-642108 3204 L-639513 3204 L-635257 3204 L-635240 3204 L-634003 3204 L-632125 3204 L-630172 3203 L-629224 3203 L-628953 3203 L-628643 3203 L-628545 3203 L-627715 3203 L-625684 3203 L-625393 3202 L-623247 3201 L-623092 3200 L-619435 3199 L-619184 3200 L-619086 3200 L-618569 3200 L-616417 3201 L-615489 3201 L-613963 3202 L-612723 3202 L-611177 3202 L-608215 3202 L-607093 3201 L-606784 3201 L-605572 3201 L-602566 3203 L-602546 3202 L-602199 3202 L-601986 3202 L-601859 3200 L-601618 3200 L-601580 3200 L-601560 3199 L-601541 3199 L-601482 3199 L-601423 3199 L-601405 3198 L-600962 3198 L-599723 3198 L-598177 3197 L-594790 3197 L-589063 3197 L-588862 3197 L-587226 3197 L-585504 3197 L-584072 3196 L-583839 3196 L-583124 3196 L-576992 3196 L-576624 3196 L-576470 3196 L-575891 3195 L-575599 3195 L-574632 3195 L-574322 3194 L-573723 3194 L-572117 3194 L-571382 3194 L-571072 3194 L-570304 3194 L-568267 3194 L-567842 3194 L-567030 3194 L-559601 3193 L-559078 3193 L-558904 3193 L-558169 3192 L-556602 3192 L-556196 3192 L-553971 3192 L-553023 3192 L-552598 3192 L-552268 3192 L-551224 3191 L-549116 3191 L-548864 3191 L-548245 3191 L-547432 3190 L-545324 3190 L-545276 3190 L-543348 3190 L-543022 3189 L-542887 3189 L-542384 3189 L-540971 3189 L-540468 3188 L-539946 3188 L-536387 3187 L-535652 3187 L-533227 3187 L-531937 3186 L-531530 3186 L-528378 3186 L-528223 3186 L-528203 3186 L-527836 3186 L-526578 3186 L-525863 3187 L-524973 3187 L-524566 3187 L-523637 3187 L-522529 3186 L-522226 3187 L-515977 3187 L-515029 3188 L-513403 3188 L-512901 3188 L-509226 3188 L-508393 3188 L-504440 3188 L-503028 3188 L-500539 3188 L-499863 3187 L-499824 3187 L-498953 3187 L-495742 3187 L-492879 3187 L-491911 3187 L-490789 3187 L-490770 3186 L-489145 3186 L-488681 3186 L-488589 3185 L-482220 3185 L-481272 3185 L-478815 3185 L-477942 3185 L-476706 3185 L-474705 3185 L-474307 3184 L-472871 3184 L-470845 3184 L-470632 3184 L-469452 3183 L-467943 3183 L-467923 3183 L-465911 3183 L-465041 3183 L-464170 3183 L-463586 3182 L-463048 3182 L-462391 3182 L-461153 3181 L-460592 3181 L-459411 3181 L-458173 3181 L-458135 3181 L-457748 3181 L-457206 3181 L-456432 3180 L-455310 3180 L-453221 3180 L-452888 3180 L-452602 3179 L-451673 3179 L-451190 3179 L-450455 3179 L-446823 3179 L-445696 3179 L-445541 3178 L-444515 3178 L-440800 3178 L-439583 3178 L-437765 3177 L-434979 3177 L-434417 3177 L-430529 3177 L-428053 3177 L-426718 3177 L-426215 3177 L-425731 3177 L-423042 3177 L-419271 3177 L-416813 3177 L-415634 3177 L-414994 3177 L-412635 3176 L-412557 3176 L-411510 3176 L-411416 3176 L-410913 3176 L-410468 3176 L-410410 3176 L-410197 3176 L-407237 3175 L-404529 3175 L-404375 3175 L-400854 3175 L-400331 3175 L-399364 3174 L-399015 3174 L-397971 3174 L-397042 3174 L-396617 3174 L-395108 3174 L-394141 3173 L-394122 3173 L-392226 3163 L-392110 3153 L-392062 3143 L-392038 3133 L-389033 3132 L-387003 3132 L-385242 3132 L-384875 3132 L-384429 3132 L-384062 3132 L-383648 3131 L-381663 3131 L-381450 3131 L-381295 3131 L-379690 3131 L-378568 3131 L-377620 3131 L-376363 3130 L-374718 3130 L-373538 3130 L-366949 3130 L-366902 3130 L-366497 3130 L-365451 3129 L-365316 3129 L-363634 3129 L-363614 3129 L-362277 3129 L-361041 3128 L-360886 3128 L-360512 3128 L-360306 3128 L-359997 3128 L-359223 3128 L-356901 3127 L-356244 3127 L-354116 3127 L-352393 3127 L-352200 3127 L-349647 3127 L-349370 3126 L-349182 3126 L-348350 3126 L-347577 3126 L-346879 3126 L-341879 3126 L-341503 3125 L-337250 3125 L-336763 3139 L-336743 3139 L-336664 3139 L-336589 3139 L-336569 3124 L-335757 3124 L-335003 3124 L-333784 3124 L-332352 3124 L-332255 3124 L-332081 3124 L-331727 3124 L-330417 3123 L-328560 3123 L-326858 3123 L-326355 3123 L-326090 3123 L-325696 3123 L-325562 3122 L-324652 3122 L-324276 3122 L-323348 3122 L-323008 3122 L-322969 3122 L-322931 3122 L-321016 3122 L-320842 3122 L-319313 3122 L-318985 3122 L-318869 3121 L-318462 3121 L-318114 3121 L-316470 3121 L-315919 3121 L-315676 3121 L-315135 3120 L-314303 3120 L-313762 3120 L-312227 3120 L-312135 3120 L-312098 3119 L-311962 3119 L-311575 3119 L-310550 3119 L-308673 3119 L-308577 3119 L-307977 3123 L-307610 3128 L-307125 3133 L-307087 3137 L-306313 3138 L-306256 3137 L-306081 3137 L-305888 3137 L-304282 3137 L-304262 3137 L-304107 3137 L-303992 3137 L-302812 3137 L-302657 3138 L-301991 3138 L-299542 3149 L-297028 3160 L-294358 3172 L-286658 3183 L-280991 3183 L-278776 3183 L-278753 3183 L-277779 3185 L-277759 3185 L-276895 3185 L-274155 3185 L-268357 3182 L-268203 3182 L-265417 3182 L-251809 3181 L-251063 3181 L-246652 3181 L-230306 3181 L-230074 3181 L-229537 3180 L-221078 3180 L-212372 3180 L-212160 3180 L-210187 3180 L-207401 3180 L-202913 3180 L-202759 3180 L-202590 3180 L-202449 3180 L-202159 3179 L-202120 3179 L-201849 3179 L-201677 3179 L-201267 3179 L-200147 3179 L-198966 3179 L-197690 3178 L-194826 3178 L-191905 3178 L-189913 3178 L-188366 3178 L-185328 3178 L-176003 3177 L-175479 3177 L-169756 3177 L-168249 3177 L-167434 3177 L-165750 3177 L-165029 3177 L-164861 3177 L-163816 3177 L-161748 3176 L-160386 3176 L-155943 3176 L-155846 3176 L-155807 3176 L-155788 3176 L-154956 3176 L-154878 3175 L-152306 3175 L-149056 3175 L-148902 3175 L-147953 3175 L-146212 3174 L-145497 3175 L-141956 3176 L-135379 3177 L-133961 3178 L-133941 3178 L-132990 3178 L-129516 3177 L-128762 3177 L-128201 3177 L-127419 3177 L-119915 3177 L-118316 3177 L-116742 3177 L-113557 3176 L-109224 3176 L-100654 3176 L-91908 3176 L-88834 3176 L-85568 3176 L-85021 3176 L-77884 3175 L-72216 3175 L-58152 3175 L-52141 3176 L-47434 3175 L-43431 3175 L-38324 3175 L-28610 3175 L-13039 3175 L-9956 3174 L-9654 3112 L-9635 3036 L-9616 2949 L-9596 2853 L-9576 2808 L-9557 2771 L-9538 2737 L-9511 2703 L-9490 2670 L-9462 2636 L-9427 2598 L-9413 2565 L-9400 2537 L-9382 2514 L-9363 2497 L-9343 2480 L-9325 2462 L-9305 2445 L-9285 2427 L-9264 2409 L-9247 2391 L-9229 2373 L-9208 2356 L-9188 2339 L-9170 2321 L-9151 2302 L-9131 2282 L-9111 2263 L-9093 2245 L-9074 2228 L-9053 2211 L-9028 2194 L-9013 2178 L-8996 2162 L-8977 2146 L-8957 2130 L-8938 2113 L-8919 2096 L-8899 2080 L-8879 2064 L-8861 2049 L-8842 2035 L-8821 2022 L-8801 2009 L-8784 1998 L-8765 1987 L-8745 1977 L-8726 1967 L-8706 1957 L-8687 1949 L-8667 1941 L-8648 1934 L-8628 1926 L-8610 1919 L-8582 1910 L-8561 1900 L-8534 1889 L-8500 1878 L-8485 1868 L-8472 1859 L-8454 1851 L-8435 1845 L-8415 1838 L-8396 1830 L-8377 1822 L-8357 1813 L-8336 1806 L-8319 1799 L-8300 1792 L-8280 1784 L-8260 1776 L-8242 1766 L-8223 1755 L-8203 1745 L-8183 1734 L-8164 1723 L-8146 1712 L-8124 1699 L-8100 1686 L-8085 1672 L-8068 1660 L-8048 1647 L-8029 1635 L-8009 1622 L-7991 1608 L-7971 1595 L-7950 1582 L-7932 1569 L-7913 1557 L-7893 1545 L-7873 1533 L-7855 1522 L-7836 1512 L-7816 1502 L-7797 1493 L-7777 1484 L-7759 1475 L-7739 1466 L-7719 1456 L-7700 1447 L-7681 1438 L-7652 1429 L-7633 1421 L-7605 1412 L-7568 1402 L-7553 1392 L-7540 1383 L-7523 1374 L-7506 1368 L-7486 1362 L-7468 1356 L-7449 1351 L-7428 1346 L-7408 1341 L-7391 1335 L-7372 1329 L-7351 1323 L-7332 1316 L-7313 1309 L-7294 1302 L-7274 1294 L-7255 1286 L-7236 1277 L-7217 1270 L-7196 1262 L-7172 1253 L-7157 1246 L-7140 1237 L-7120 1229 L-7101 1221 L-7081 1213 L-7062 1204 L-7042 1195 L-7022 1187 L-7004 1178 L-6985 1171 L-6965 1163 L-6944 1156 L-6926 1149 L-6907 1142 L-6887 1135 L-6869 1129 L-6849 1122 L-6830 1115 L-6810 1109 L-6791 1102 L-6771 1096 L-6753 1089 L-6724 1083 L-6704 1077 L-6676 1069 L-6640 1059 L-6626 1049 L-6613 1040 L-6595 1033 L-6577 1028 L-6557 1022 L-6539 1016 L-6519 1009 L-6500 1002 L-6478 994 L-6460 986 L-6443 978 L-6422 969 L-6402 959 L-6384 950 L-6365 939 L-6345 929 L-6325 919 L-6307 910 L-6288 902 L-6267 896 L-6242 891 L-6227 886 L-6210 881 L-6191 876 L-6171 871 L-6152 865 L-6133 860 L-6113 855 L-6092 851 L-6075 847 L-6056 842 L-6036 836 L-6015 829 L-5998 822 L-5979 817 L-5959 813 L-5940 810 L-5920 807 L-5901 804 L-5882 800 L-5862 796 L-5843 792 L-5824 789 L-5796 785 L-5776 782 L-5748 778 L-5713 774 L-5699 770 L-5686 767 L-5667 764 L-5649 761 L-5629 758 L-5610 755 L-5591 753 L-5571 750 L-5550 748 L-5533 745 L-5514 742 L-5494 739 L-5474 736 L-5456 733 L-5437 730 L-5417 727 L-5397 725 L-5379 722 L-5360 719 L-5338 717 L-5314 714 L-5299 712 L-5282 710 L-5262 707 L-5243 705 L-5224 702 L-5205 699 L-5185 696 L-5164 693 L-5146 690 L-5128 688 L-5107 685 L-5087 683 L-5069 680 L-5050 678 L-5030 675 L-5011 673 L-4992 671 L-4973 669 L-4953 668 L-4934 666 L-4914 664 L-4896 667 L-4867 670 L-4847 673 L-4819 675 L-4782 673 L-4767 671 L-4754 669 L-4736 667 L-4720 666 L-4700 664 L-4682 663 L-4662 661 L-4643 660 L-4621 658 L-4604 657 L-4586 656 L-4565 654 L-4545 653 L-4527 651 L-4508 649 L-4488 648 L-4468 646 L-4450 644 L-4431 643 L-4410 642 L-4385 641 L-4371 639 L-4353 637 L-4334 636 L-4314 634 L-4295 633 L-4276 631 L-4256 629 L-4235 627 L-4218 624 L-4199 622 L-4178 620 L-4158 618 L-4141 616 L-4122 614 L-4102 612 L-4083 611 L-4063 608 L-4044 606 L-4024 604 L-4005 602 L-3986 601 L-3967 600 L-3939 598 L-3919 596 L-3891 594 L-3856 592 L-3842 590 L-3829 588 L-3810 586 L-3792 585 L-3772 583 L-3753 582 L-3734 580 L-3714 578 L-3693 577 L-3676 575 L-3657 573 L-3637 571 L-3617 569 L-3599 567 L-3580 564 L-3560 562 L-3540 559 L-3521 556 L-3503 554 L-3481 552 L-3456 549 L-3442 547 L-3425 544 L-3405 542 L-3386 540 L-3367 537 L-3348 535 L-3328 533 L-3307 530 L-3289 528 L-3270 526 L-3250 524 L-3229 522 L-3212 520 L-3193 518 L-3173 517 L-3154 515 L-3135 514 L-3116 512 L-3096 511 L-3076 510 L-3057 509 L-3038 508 L-3011 506 L-2990 505 L-2962 504 L-2927 501 L-2913 499 L-2900 496 L-2881 494 L-2863 492 L-2843 491 L-2825 489 L-2805 488 L-2785 487 L-2764 485 L-2747 483 L-2729 481 L-2708 480 L-2688 478 L-2670 476 L-2651 474 L-2631 472 L-2611 470 L-2593 468 L-2574 466 L-2553 465 L-2528 463 L-2513 462 L-2496 460 L-2477 458 L-2457 457 L-2438 455 L-2419 453 L-2399 450 L-2378 447 L-2361 445 L-2342 442 L-2321 440 L-2301 439 L-2284 437 L-2265 436 L-2244 435 L-2226 434 L-2206 432 L-2187 431 L-2167 430 L-2148 429 L-2128 428 L-2110 426 L-2082 425 L-2061 424 L-2034 423 L-2000 422 L-1985 421 L-1972 420 L-1954 419 L-1935 418 L-1915 417 L-1896 416 L-1877 415 L-1857 414 L-1836 413 L-1819 412 L-1800 412 L-1780 410 L-1760 409 L-1742 408 L-1723 407 L-1703 407 L-1683 406 L-1664 405 L-1645 405 L-1624 404 L-1600 403 L-1585 402 L-1568 401 L-1548 400 L-1529 399 L-1510 398 L-1491 397 L-1471 396 L-1450 394 L-1432 393 L-1413 391 L-1393 389 L-1372 387 L-1355 386 L-1336 384 L-1316 383 L-1297 382 L-1277 380 L-1259 379 L-1239 378 L-1220 377 L-1200 376 L-1181 375 L-1153 374 L-1105 374 L-1068 372 L-1053 371 L-1041 370 L-1024 370 L-1006 369 L-986 369 L-968 368 L-949 367 L-928 366 L-908 366 L-891 365 L-872 365 L-851 364 L-832 363 L-813 362 L-794 362 L-774 361 L-755 360 L-736 359 L-717 358 L-696 356 L-671 355 L-657 353 L-640 352 L-620 350 L-601 349 L-581 348 L-562 346 L-542 345 L-521 344 L-504 342 L-485 341 L-464 340 L-444 339 L-426 338 L-407 337 L-387 336 L-369 335 L-349 334 L-330 333 L-310 332 L-291 331 L-271 330 L-253 329 L-224 328 L-204 327 L-176 325 L-140 323 L-125 321 L-112 319 L-95 318 L-77 316 L-57 315 L-39 314 L-19 314 L0 313 L21 312 L37 311 L56 310 L77 309 L97 307 L115 305 L134 303 L154 301 L174 299 L192 298 L211 296 L232 295 L257 293 L272 292 L290 291 L308 290 L328 288 L347 287 L366 285 L386 284 L407 282 L424 281 L443 280 L463 279 L485 277 L501 276 L520 275 L540 274 L559 273 L579 272 L598 271 L617 270 L637 269 L656 268 L675 267 L703 997 L723 996 L751 995 L787 993 L801 261 L815 259 L832 258 L850 257 L870 257 L888 256 L908 255 L928 254 L949 252 L966 251 L984 249 L1005 248 L1025 246 L1043 244 L1062 242 L1082 240 L1103 239 L1120 238 L1139 236 L1161 235 L1186 234 L1201 232 L1230 230 L1270 228 L1293 225 L1322 223 L1339 221 L1353 219 L1372 218 L1392 217 L1413 216 L1430 215 L1449 214 L1469 213 L1488 212 L1507 211 L1526 211 L1546 210 L1566 209 L1585 208 L1604 207 L1631 206 L1652 205 L1680 204 L1715 203 L1729 202 L1760 201 L1779 200 L1799 199 L1817 198 L1837 198 L1856 197 L1878 196 L1894 196 L1913 194 L1934 191 L1954 188 L1972 184 L1991 181 L2011 178 L2031 176 L2049 174 L2068 173 L2089 171 L2114 170 L2129 169 L2146 168 L2165 166 L2185 165 L2204 163 L2223 162 L2243 160 L2264 159 L2281 157 L2300 156 L2321 155 L2342 154 L2358 153 L2377 152 L2398 151 L2417 150 L2436 149 L2455 148 L2475 147 L2495 146 L2513 145 L2532 145 L2560 144 L2580 143 L2651 141 L2679 138 L2693 136 L2707 134 L2727 133 L2746 132 L2765 130 L2785 129 L2806 128 L2823 127 L2842 126 L2862 126 L2882 125 L2900 124 L2919 123 L2939 121 L2960 120 L2977 119 L2996 117 L3018 117 L3043 116 L3058 115 L3075 114 L3094 112 L3114 111 L3133 110 L3152 108 L3171 107 L3193 106 L3210 105 L3229 105 L3249 104 L3270 103 L3287 102 L3345 101 L3365 100 L3383 99 L3403 98 L3423 97 L3442 96 L3461 96 L3489 95 L3509 95 L3537 94 L3573 93 L3588 92 L3601 92 L3618 91 L3636 91 L3656 90 L3674 90 L3694 89 L3714 89 L3735 89 L3752 88 L3770 88 L3791 87 L3811 87 L3829 86 L3848 85 L3868 85 L3889 84 L3906 83 L3925 82 L3947 82 L3971 81 L3986 81 L4003 80 L4023 79 L4042 78 L4061 78 L4080 77 L4100 76 L4121 75 L4138 74 L4158 73 L4178 72 L4199 72 L4215 71 L4234 71 L4255 70 L4274 70 L4293 70 L4312 69 L4332 69 L4352 69 L4371 68 L4389 68 L4417 67 L4438 67 L4465 66 L4501 66 L4514 65 L4528 64 L4546 64 L4564 63 L4584 63 L4603 62 L4642 62 L4663 62 L4680 61 L4699 61 L4719 60 L4739 59 L4757 58 L4776 57 L4796 57 L4816 56 L4835 55 L4854 55 L4874 54 L4899 54 L4914 53 L4931 53 L4951 52 L4970 52 L4990 51 L5008 50 L5028 50 L5049 49 L5067 48 L5086 48 L5106 47 L5126 47 L5144 46 L5163 46 L5183 45 L5202 45 L5222 44 L5240 44 L5260 43 L5280 43 L5299 42 L5318 42 L5347 41 L5394 41 L5432 40 L5447 40 L5459 39 L5476 39 L5493 39 L5513 38 L5531 38 L5550 38 L5571 37 L5591 37 L5609 37 L5627 37 L5648 37 L5667 36 L5686 36 L5705 36 L5725 35 L5744 35 L5763 35 L5782 34 L5803 33 L5828 33 L5842 32 L5859 31 L5879 31 L5898 29 L5918 28 L5937 27 L5957 26 L5977 25 L5995 24 L6014 22 L6035 21 L6055 21 L6073 19 L6092 18 L6112 17 L6130 16 L6150 15 L6169 15 L6189 14 L6208 13 L6228 11 L6246 10 L6275 9 L6295 8 L6323 7 L6360 6 L6375 6 L6387 5 L6405 4 L6422 4 L6442 3 L6460 2 L6480 2 L6500 1" />
</svg>
