<svg xmlns="http://www.w3.org/2000/svg" version="1.1" viewBox="0 0 6500 1000">
	<path fill="none" stroke="gold" stroke-width="125" stroke-linecap="round" stroke-linejoin="round" d="M0 1049  L-713670 1049 L-711066 1049 L-709398 1049 L-691069 1048 L-690898 1048 L-683741 1048 L-683708 1048 L-670277 1047 L-667355 1048 L-654014 1047 L-649845 1046 L-648685 1046 L-648066 1045 L-646054 1044 L-642282 1044 L-641682 1043 L-641353 1043 L-641140 1043 L-640599 1042 L-639361 1041 L-638182 1040 L-635317 1038 L-634795 1037 L-629940 1037 L-627002 1036 L-626959 1036 L-626651 1036 L-626399 1035 L-623804 1035 L-619549 1035 L-619531 1035 L-618294 1035 L-616416 1035 L-614463 1035 L-613515 1034 L-613244 1034 L-612934 1034 L-612836 1034 L-612006 1034 L-609975 1034 L-609685 1032 L-607538 1032 L-607383 1031 L-603726 1030 L-603475 1030 L-603377 1030 L-602860 1031 L-600709 1031 L-599780 1032 L-598254 1033 L-597014 1033 L-595468 1033 L-592506 1033 L-591384 1032 L-591075 1032 L-589864 1032 L-586857 1034 L-586837 1033 L-586490 1033 L-586277 1033 L-586151 1031 L-585909 1030 L-585871 1030 L-585852 1030 L-585832 1029 L-585773 1029 L-585715 1029 L-585697 1028 L-585254 1028 L-584014 1028 L-582468 1027 L-579081 1027 L-573355 1027 L-573153 1027 L-571517 1027 L-569795 1026 L-568363 1026 L-568131 1026 L-567415 1026 L-561283 1026 L-560916 1025 L-560761 1025 L-560183 1025 L-559890 1024 L-558923 1024 L-558613 1024 L-558014 1023 L-556408 1023 L-555673 1023 L-555363 1023 L-554595 1023 L-552559 1023 L-552133 1023 L-551321 1023 L-543892 1022 L-543369 1022 L-543196 1022 L-542461 1021 L-540893 1021 L-540487 1021 L-538262 1020 L-537314 1020 L-536889 1020 L-536559 1020 L-535515 1020 L-533407 1020 L-533155 1019 L-532536 1019 L-531723 1019 L-529615 1018 L-529567 1018 L-527639 1018 L-527313 1017 L-527178 1017 L-526675 1017 L-525262 1017 L-524759 1016 L-524237 1015 L-520678 1015 L-519943 1014 L-517518 1014 L-516229 1014 L-515822 1014 L-512669 1014 L-512514 1014 L-512494 1014 L-512127 1014 L-510869 1014 L-510154 1014 L-509264 1014 L-508857 1014 L-507929 1014 L-506820 1014 L-506517 1015 L-500268 1015 L-499321 1015 L-497694 1016 L-497193 1016 L-493517 1016 L-492685 1016 L-488732 1016 L-487320 1016 L-484830 1015 L-484154 1015 L-484115 1015 L-483244 1015 L-480033 1015 L-477170 1015 L-476202 1014 L-475081 1014 L-475062 1014 L-473437 1013 L-472973 1013 L-472881 1013 L-466511 1013 L-465563 1012 L-463106 1012 L-462233 1012 L-460997 1012 L-458996 1012 L-458599 1011 L-457162 1011 L-455136 1011 L-454923 1010 L-453743 1010 L-452234 1010 L-452214 1010 L-450202 1010 L-449333 1009 L-448462 1009 L-447877 1009 L-447340 1009 L-446682 1008 L-445444 1008 L-444883 1008 L-443702 1008 L-442465 1007 L-442426 1007 L-442039 1007 L-441497 1007 L-440724 1007 L-439601 1006 L-437512 1006 L-437179 1006 L-436893 1005 L-435965 1005 L-435481 1005 L-434746 1005 L-431115 1004 L-429987 1004 L-429832 1004 L-428806 1004 L-425092 1004 L-423874 1003 L-422056 1003 L-419270 1003 L-418709 1002 L-414821 1002 L-412344 1002 L-411009 1002 L-410506 1002 L-410023 1002 L-407333 1002 L-403562 1002 L-401105 1002 L-399925 1002 L-399286 1002 L-396926 1001 L-396849 1001 L-395801 1001 L-395708 1001 L-395205 1001 L-394759 1001 L-394702 1001 L-394488 1001 L-391528 1000 L-388821 1000 L-388666 1000 L-385145 1000 L-384622 1000 L-383655 999 L-383306 999 L-382262 999 L-381334 998 L-380908 998 L-379399 998 L-378432 998 L-378413 998 L-376517 986 L-376401 973 L-376353 961 L-376329 948 L-373325 948 L-371294 948 L-369533 947 L-369166 947 L-368720 947 L-368354 947 L-367940 946 L-365955 946 L-365741 946 L-365586 946 L-363981 946 L-362859 946 L-361911 946 L-360654 945 L-359009 945 L-357830 945 L-351240 945 L-351194 945 L-350788 944 L-349743 944 L-349607 944 L-347925 944 L-347905 944 L-346568 943 L-345332 943 L-345178 943 L-344804 943 L-344598 942 L-344288 942 L-343514 942 L-341193 942 L-340535 942 L-338407 941 L-336685 941 L-336491 941 L-333938 941 L-333662 940 L-333473 940 L-332641 940 L-331868 940 L-331170 940 L-326170 940 L-325794 939 L-321541 939 L-321054 956 L-321035 956 L-320956 956 L-320880 955 L-320861 938 L-320048 938 L-319294 938 L-318075 938 L-316643 938 L-316547 937 L-316372 937 L-316018 937 L-314709 937 L-312851 937 L-311149 936 L-310646 936 L-310381 936 L-309988 936 L-309853 936 L-308944 936 L-308567 935 L-307639 935 L-307300 935 L-307260 935 L-307222 935 L-305307 935 L-305133 935 L-303604 935 L-303276 935 L-303160 935 L-302753 934 L-302405 934 L-300761 934 L-300210 934 L-299967 933 L-299426 933 L-298594 933 L-298053 933 L-296518 932 L-296426 932 L-296389 932 L-296253 932 L-295866 932 L-294841 932 L-292965 931 L-292868 931 L-292268 937 L-291901 942 L-291416 948 L-291378 954 L-290605 954 L-290547 954 L-290373 954 L-290179 954 L-288574 953 L-288554 953 L-288398 953 L-288283 954 L-287104 954 L-286949 954 L-286282 954 L-283834 968 L-281319 982 L-278649 996 L-270950 1009 L-265282 1009 L-263067 1009 L-263044 1009 L-262070 1013 L-262050 1013 L-261187 1012 L-258446 1012 L-252648 1009 L-252494 1008 L-249709 1008 L-236100 1008 L-235354 1008 L-230944 1007 L-214597 1007 L-214365 1007 L-213828 1007 L-205369 1006 L-196663 1006 L-196451 1006 L-194478 1006 L-191692 1006 L-187205 1006 L-187050 1006 L-186881 1006 L-186740 1006 L-186450 1005 L-186411 1005 L-186140 1005 L-185969 1005 L-185558 1005 L-184438 1004 L-183258 1004 L-181981 1004 L-179117 1004 L-176197 1004 L-174205 1004 L-172657 1003 L-169619 1003 L-160295 1003 L-159771 1003 L-154047 1003 L-152540 1003 L-151725 1003 L-150042 1002 L-149321 1002 L-149152 1002 L-148107 1002 L-146040 1002 L-144678 1001 L-140234 1001 L-140137 1001 L-140099 1001 L-140080 1001 L-139247 1001 L-139169 1000 L-136597 1000 L-133348 1000 L-133193 1000 L-132244 1000 L-130503 999 L-129788 1000 L-126247 1001 L-119670 1002 L-118253 1003 L-118232 1003 L-117281 1003 L-113807 1003 L-113054 1003 L-112492 1002 L-111710 1002 L-104206 1002 L-102607 1002 L-101033 1002 L-97848 1002 L-93515 1001 L-84945 1001 L-76199 1001 L-73125 1001 L-69859 1001 L-69313 1001 L-62175 1000 L-56508 1000 L-42443 1000 L-36432 1001 L-31726 1000 L-27722 1000 L-22615 1000 L-12901 1000 L2669 999 L5751 999 L6054 923 L6073 830 L6092 724 L6112 606 L6131 552 L6151 507 L6169 465 L6197 424 L6218 384 L6246 341 L6281 295 L6295 255 L6308 221 L6326 193 L6345 172 L6365 151 L6383 129 L6403 108 L6422 86 L6443 64 L6460 42 L6479 21 L6500 0" />
</svg>
