<svg xmlns="http://www.w3.org/2000/svg" version="1.1" viewBox="0 0 6500 1000">
	<path fill="none" stroke="gold" stroke-width="125" stroke-linecap="round" stroke-linejoin="round" d="M0 3154  L-730163 3154 L-727559 3153 L-725891 3153 L-707562 3153 L-707392 3153 L-700234 3153 L-700201 3153 L-686770 3152 L-683848 3153 L-670507 3152 L-666338 3152 L-665178 3151 L-664559 3150 L-662547 3150 L-658775 3150 L-658175 3149 L-657847 3149 L-657634 3149 L-657092 3149 L-655854 3147 L-654675 3146 L-651810 3145 L-651288 3144 L-646433 3144 L-643495 3144 L-643453 3143 L-643144 3143 L-642892 3143 L-640297 3143 L-636042 3143 L-636024 3143 L-634787 3143 L-632910 3143 L-630956 3142 L-630008 3142 L-629737 3142 L-629428 3142 L-629330 3142 L-628499 3142 L-626468 3142 L-626178 3141 L-624032 3140 L-623876 3139 L-620220 3138 L-619969 3139 L-619870 3139 L-619353 3139 L-617202 3140 L-616273 3140 L-614747 3141 L-613507 3141 L-611961 3141 L-608999 3141 L-607877 3140 L-607568 3140 L-606357 3140 L-603350 3141 L-603331 3141 L-602983 3141 L-602770 3141 L-602644 3139 L-602402 3139 L-602364 3139 L-602345 3138 L-602325 3138 L-602267 3138 L-602208 3138 L-602190 3137 L-601747 3137 L-600507 3137 L-598962 3137 L-595574 3136 L-589848 3136 L-589646 3136 L-588010 3136 L-586288 3136 L-584856 3136 L-584624 3135 L-583909 3135 L-577776 3135 L-577409 3135 L-577254 3135 L-576676 3134 L-576383 3134 L-575416 3134 L-575106 3134 L-574507 3133 L-572901 3133 L-572166 3133 L-571856 3133 L-571088 3133 L-569052 3133 L-568627 3133 L-567814 3133 L-560385 3133 L-559862 3132 L-559689 3132 L-558954 3132 L-557386 3131 L-556980 3131 L-554755 3131 L-553807 3131 L-553383 3131 L-553052 3131 L-552008 3131 L-549900 3130 L-549648 3130 L-549029 3130 L-548217 3130 L-546109 3129 L-546060 3129 L-544132 3129 L-543806 3129 L-543671 3128 L-543168 3128 L-541755 3128 L-541252 3127 L-540731 3127 L-537171 3127 L-536436 3126 L-534011 3126 L-532722 3126 L-532315 3126 L-529162 3126 L-529007 3126 L-528987 3126 L-528621 3126 L-527362 3126 L-526647 3126 L-525757 3126 L-525350 3126 L-524422 3126 L-523313 3126 L-523010 3126 L-516761 3127 L-515814 3127 L-514188 3127 L-513686 3127 L-510010 3127 L-509178 3128 L-505225 3128 L-503813 3127 L-501324 3127 L-500647 3127 L-500608 3127 L-499738 3127 L-496526 3127 L-493663 3126 L-492695 3126 L-491574 3126 L-491555 3126 L-489930 3125 L-489466 3125 L-489374 3125 L-483005 3125 L-482056 3125 L-479599 3124 L-478727 3124 L-477491 3124 L-475489 3124 L-475092 3124 L-473655 3123 L-471629 3123 L-471416 3123 L-470236 3123 L-468728 3123 L-468707 3123 L-466695 3122 L-465826 3122 L-464955 3122 L-464370 3122 L-463833 3122 L-463175 3121 L-461937 3121 L-461376 3121 L-460195 3121 L-458958 3121 L-458919 3120 L-458532 3120 L-457991 3120 L-457217 3120 L-456095 3120 L-454005 3120 L-453672 3119 L-453386 3119 L-452458 3119 L-451975 3119 L-451239 3118 L-447608 3118 L-446480 3118 L-446325 3118 L-445299 3118 L-441585 3118 L-440367 3117 L-438549 3117 L-435763 3117 L-435202 3117 L-431314 3117 L-428837 3117 L-427502 3117 L-426999 3116 L-426516 3116 L-423827 3116 L-420055 3116 L-417598 3116 L-416418 3116 L-415779 3116 L-413419 3116 L-413342 3116 L-412294 3116 L-412201 3115 L-411698 3115 L-411252 3115 L-411195 3115 L-410981 3115 L-408022 3115 L-405314 3115 L-405159 3115 L-401638 3115 L-401115 3114 L-400148 3114 L-399799 3114 L-398755 3114 L-397827 3114 L-397401 3113 L-395892 3113 L-394925 3113 L-394906 3113 L-393010 3103 L-392894 3093 L-392846 3083 L-392822 3074 L-389818 3073 L-387787 3073 L-386026 3073 L-385659 3073 L-385214 3073 L-384847 3073 L-384433 3072 L-382448 3072 L-382235 3072 L-382080 3072 L-380474 3072 L-379353 3072 L-378404 3072 L-377147 3071 L-375502 3071 L-374323 3071 L-367733 3071 L-367687 3071 L-367281 3071 L-366236 3071 L-366101 3070 L-364418 3070 L-364398 3070 L-363061 3070 L-361825 3070 L-361671 3069 L-361297 3069 L-361091 3069 L-360781 3069 L-360007 3069 L-357686 3069 L-357028 3068 L-354900 3068 L-353178 3068 L-352984 3068 L-350431 3068 L-350155 3067 L-349967 3067 L-349134 3067 L-348362 3067 L-347664 3067 L-342663 3067 L-342287 3067 L-338034 3066 L-337547 3080 L-337528 3080 L-337449 3079 L-337373 3079 L-337354 3066 L-336541 3066 L-335787 3065 L-334568 3065 L-333136 3065 L-333040 3065 L-332865 3065 L-332511 3065 L-331202 3065 L-329344 3065 L-327642 3064 L-327139 3064 L-326874 3064 L-326481 3064 L-326347 3064 L-325437 3064 L-325061 3063 L-324132 3063 L-323793 3063 L-323753 3063 L-323716 3063 L-321800 3063 L-321626 3063 L-320098 3063 L-319769 3063 L-319653 3063 L-319246 3063 L-318898 3062 L-317254 3062 L-316703 3062 L-316460 3062 L-315919 3062 L-315088 3061 L-314546 3061 L-313011 3061 L-312919 3061 L-312882 3061 L-312746 3061 L-312359 3061 L-311334 3060 L-309458 3060 L-309362 3060 L-308761 3064 L-308394 3069 L-307910 3074 L-307872 3078 L-307098 3078 L-307040 3078 L-306866 3078 L-306672 3078 L-305067 3078 L-305047 3077 L-304892 3078 L-304776 3078 L-303597 3078 L-303442 3078 L-302775 3078 L-300327 3089 L-297812 3101 L-295142 3111 L-287443 3122 L-281775 3122 L-279561 3122 L-279537 3122 L-278564 3125 L-278544 3125 L-277680 3124 L-274940 3124 L-269141 3122 L-268988 3121 L-266202 3121 L-252593 3121 L-251848 3121 L-247437 3120 L-231091 3120 L-230859 3120 L-230321 3120 L-221862 3120 L-213156 3120 L-212944 3120 L-210972 3119 L-208185 3119 L-203698 3120 L-203543 3119 L-203374 3119 L-203234 3119 L-202943 3119 L-202904 3119 L-202633 3119 L-202462 3119 L-202052 3118 L-200931 3118 L-199751 3118 L-198474 3118 L-195610 3118 L-192690 3118 L-190698 3118 L-189150 3117 L-186112 3117 L-176788 3117 L-176264 3117 L-170540 3117 L-169033 3117 L-168218 3117 L-166535 3117 L-165814 3116 L-165645 3116 L-164600 3116 L-162533 3116 L-161171 3116 L-156728 3116 L-156630 3116 L-156592 3116 L-156573 3115 L-155740 3115 L-155663 3115 L-153090 3115 L-149841 3115 L-149686 3115 L-148738 3114 L-146997 3114 L-146281 3115 L-142740 3116 L-136163 3116 L-134746 3118 L-134725 3117 L-133775 3117 L-130300 3117 L-129547 3117 L-128985 3117 L-128203 3117 L-120699 3116 L-119101 3116 L-117527 3116 L-114341 3116 L-110008 3116 L-101439 3116 L-92692 3116 L-89618 3116 L-86352 3115 L-85806 3115 L-78669 3115 L-73001 3115 L-58937 3115 L-52925 3115 L-48219 3115 L-44216 3115 L-39108 3115 L-29394 3115 L-13824 3114 L-10741 3114 L-10439 3054 L-10419 2980 L-10400 2896 L-10380 2802 L-10361 2759 L-10341 2723 L-10323 2690 L-10295 2657 L-10274 2625 L-10247 2591 L-10211 2554 L-10198 2523 L-10185 2496 L-10166 2473 L-10147 2457 L-10127 2440 L-10109 2423 L-10090 2406 L-10070 2389 L-10049 2371 L-10032 2354 L-10013 2337 L-9993 2320 L-9973 2304 L-9954 2286 L-9936 2268 L-9916 2248 L-9896 2230 L-9877 2212 L-9858 2195 L-9837 2179 L-9812 2162 L-9798 2147 L-9781 2132 L-9761 2116 L-9742 2101 L-9723 2085 L-9704 2068 L-9684 2052 L-9663 2037 L-9645 2022 L-9626 2008 L-9606 1995 L-9585 1983 L-9568 1973 L-9549 1962 L-9529 1952 L-9510 1942 L-9490 1933 L-9472 1925 L-9452 1917 L-9432 1910 L-9413 1903 L-9394 1896 L-9367 1887 L-9346 1878 L-9318 1867 L-9284 1856 L-9270 1846 L-9257 1838 L-9238 1830 L-9219 1824 L-9199 1817 L-9181 1809 L-9161 1801 L-9141 1793 L-9121 1786 L-9104 1779 L-9085 1772 L-9064 1765 L-9045 1757 L-9026 1747 L-9007 1737 L-8987 1727 L-8968 1716 L-8949 1706 L-8930 1695 L-8909 1683 L-8885 1669 L-8870 1656 L-8853 1644 L-8833 1632 L-8814 1620 L-8794 1607 L-8775 1594 L-8755 1581 L-8735 1569 L-8717 1556 L-8698 1544 L-8678 1533 L-8657 1522 L-8639 1511 L-8620 1501 L-8600 1491 L-8582 1483 L-8562 1474 L-8543 1465 L-8523 1456 L-8504 1447 L-8484 1438 L-8466 1429 L-8437 1420 L-8417 1412 L-8389 1404 L-8352 1394 L-8337 1384 L-8325 1375 L-8308 1367 L-8291 1361 L-8271 1355 L-8252 1350 L-8233 1345 L-8213 1340 L-8192 1335 L-8175 1329 L-8156 1323 L-8136 1317 L-8116 1311 L-8098 1304 L-8079 1297 L-8059 1289 L-8039 1281 L-8020 1273 L-8001 1266 L-7980 1258 L-7956 1250 L-7941 1242 L-7924 1234 L-7904 1226 L-7885 1219 L-7865 1210 L-7847 1202 L-7827 1193 L-7806 1185 L-7788 1177 L-7769 1170 L-7749 1162 L-7729 1155 L-7711 1149 L-7692 1142 L-7672 1135 L-7653 1129 L-7633 1122 L-7614 1116 L-7595 1109 L-7575 1103 L-7556 1097 L-7537 1091 L-7509 1085 L-7489 1078 L-7461 1071 L-7425 1061 L-7410 1052 L-7397 1043 L-7380 1036 L-7362 1031 L-7342 1026 L-7323 1019 L-7304 1013 L-7284 1006 L-7263 999 L-7244 991 L-7227 983 L-7207 974 L-7187 965 L-7169 955 L-7150 945 L-7130 935 L-7109 925 L-7092 917 L-7073 909 L-7051 903 L-7027 898 L-7012 894 L-6994 889 L-6975 884 L-6956 878 L-6937 873 L-6918 868 L-6898 863 L-6877 859 L-6860 855 L-6840 851 L-6820 845 L-6799 838 L-6782 832 L-6763 827 L-6743 823 L-6724 819 L-6705 816 L-6686 813 L-6666 810 L-6646 806 L-6627 803 L-6609 799 L-6581 796 L-6560 793 L-6532 789 L-6498 784 L-6484 781 L-6471 777 L-6452 775 L-6433 772 L-6413 769 L-6395 767 L-6375 764 L-6356 762 L-6335 759 L-6318 757 L-6299 754 L-6278 751 L-6258 748 L-6240 745 L-6222 742 L-6202 739 L-6181 737 L-6163 734 L-6144 732 L-6123 729 L-6098 727 L-6084 724 L-6066 722 L-6047 720 L-6028 717 L-6008 715 L-5989 712 L-5969 709 L-5948 706 L-5931 703 L-5912 701 L-5892 698 L-5871 696 L-5854 694 L-5835 691 L-5815 689 L-5796 687 L-5776 685 L-5757 683 L-5737 681 L-5718 680 L-5699 678 L-5680 681 L-5651 683 L-5631 686 L-5603 689 L-5566 686 L-5551 684 L-5538 683 L-5521 681 L-5505 680 L-5485 678 L-5466 677 L-5447 675 L-5427 674 L-5406 673 L-5389 671 L-5370 670 L-5350 668 L-5330 667 L-5312 665 L-5293 664 L-5273 662 L-5253 660 L-5235 659 L-5216 658 L-5194 656 L-5170 655 L-5155 654 L-5138 652 L-5118 650 L-5099 649 L-5080 647 L-5061 646 L-5041 644 L-5020 642 L-5002 639 L-4983 637 L-4963 635 L-4942 634 L-4925 632 L-4906 630 L-4886 628 L-4867 626 L-4848 624 L-4829 622 L-4809 620 L-4789 618 L-4770 617 L-4751 615 L-4724 614 L-4703 612 L-4675 610 L-4640 608 L-4627 606 L-4613 604 L-4594 603 L-4576 601 L-4556 600 L-4538 598 L-4518 596 L-4498 595 L-4477 593 L-4460 591 L-4442 590 L-4421 588 L-4401 586 L-4383 584 L-4364 581 L-4344 578 L-4324 576 L-4306 574 L-4287 572 L-4266 569 L-4241 567 L-4226 564 L-4209 562 L-4190 560 L-4170 557 L-4151 555 L-4132 552 L-4112 550 L-4091 548 L-4074 546 L-4055 544 L-4034 542 L-4013 540 L-3996 538 L-3977 536 L-3957 535 L-3939 534 L-3919 532 L-3900 531 L-3880 530 L-3860 528 L-3842 527 L-3823 526 L-3795 525 L-3774 524 L-3747 522 L-3711 520 L-3697 517 L-3684 515 L-3666 513 L-3648 511 L-3628 510 L-3609 508 L-3590 507 L-3570 506 L-3549 504 L-3532 502 L-3513 501 L-3493 499 L-3473 497 L-3454 495 L-3436 493 L-3416 491 L-3395 489 L-3377 488 L-3359 486 L-3337 485 L-3312 483 L-3298 482 L-3280 480 L-3261 478 L-3241 477 L-3222 475 L-3203 473 L-3183 470 L-3162 467 L-3145 465 L-3126 463 L-3106 461 L-3085 459 L-3068 458 L-3049 457 L-3029 455 L-3010 454 L-2990 453 L-2972 452 L-2952 451 L-2932 449 L-2913 449 L-2894 447 L-2867 446 L-2846 445 L-2818 444 L-2784 443 L-2770 442 L-2757 441 L-2738 440 L-2719 439 L-2699 438 L-2681 437 L-2661 436 L-2642 436 L-2621 435 L-2604 434 L-2585 433 L-2564 432 L-2544 431 L-2526 430 L-2507 429 L-2487 428 L-2467 427 L-2449 427 L-2430 426 L-2409 426 L-2384 425 L-2370 424 L-2352 423 L-2333 422 L-2314 421 L-2294 420 L-2275 419 L-2255 418 L-2235 416 L-2217 414 L-2198 413 L-2177 411 L-2157 409 L-2139 408 L-2120 407 L-2100 405 L-2082 404 L-2062 403 L-2043 401 L-2023 400 L-2004 399 L-1984 398 L-1966 398 L-1937 397 L-1889 396 L-1852 395 L-1838 394 L-1825 393 L-1808 392 L-1790 392 L-1771 391 L-1752 391 L-1733 390 L-1713 389 L-1692 388 L-1675 388 L-1656 387 L-1636 387 L-1616 386 L-1598 385 L-1579 384 L-1559 383 L-1539 383 L-1520 382 L-1501 381 L-1480 379 L-1456 378 L-1441 376 L-1424 375 L-1404 373 L-1385 372 L-1365 371 L-1347 370 L-1327 368 L-1306 367 L-1288 366 L-1269 364 L-1249 363 L-1229 362 L-1211 361 L-1192 361 L-1172 360 L-1153 359 L-1133 358 L-1115 357 L-1095 356 L-1075 355 L-1056 354 L-1037 353 L-1009 352 L-989 351 L-961 349 L-924 347 L-909 345 L-897 343 L-879 342 L-862 341 L-842 340 L-823 339 L-804 338 L-784 337 L-763 337 L-746 336 L-728 334 L-707 333 L-686 332 L-669 330 L-649 328 L-630 326 L-609 324 L-592 323 L-573 321 L-551 320 L-526 318 L-511 317 L-494 316 L-475 315 L-455 313 L-437 312 L-418 311 L-398 309 L-376 308 L-360 306 L-340 305 L-320 304 L-299 303 L-282 302 L-263 301 L-243 300 L-224 299 L-205 298 L-186 297 L-166 296 L-146 295 L-127 294 L-108 293 L-80 1001 L-60 1000 L-32 999 L3 997 L17 287 L30 285 L48 284 L66 283 L85 283 L104 282 L124 281 L143 280 L165 278 L181 277 L200 276 L221 274 L241 272 L259 270 L278 268 L298 267 L319 265 L336 264 L355 263 L376 262 L401 260 L416 258 L446 257 L486 254 L509 252 L538 250 L554 248 L568 246 L587 245 L608 244 L629 243 L645 242 L664 241 L684 240 L703 239 L723 239 L742 238 L762 237 L782 236 L800 235 L819 235 L847 234 L867 233 L895 232 L931 231 L944 229 L976 228 L994 227 L1014 227 L1033 226 L1052 225 L1072 225 L1093 224 L1110 223 L1129 222 L1149 219 L1170 216 L1187 212 L1206 209 L1226 207 L1246 204 L1264 202 L1283 201 L1305 200 L1330 199 L1345 197 L1362 196 L1381 194 L1401 193 L1419 192 L1439 191 L1458 189 L1480 188 L1497 186 L1516 185 L1536 184 L1557 183 L1574 182 L1593 181 L1613 180 L1632 180 L1652 178 L1671 177 L1690 176 L1710 175 L1729 175 L1748 174 L1776 173 L1796 172 L1866 170 L1894 168 L1909 166 L1923 164 L1943 162 L1961 161 L1980 160 L2001 159 L2021 158 L2039 157 L2057 156 L2078 155 L2098 155 L2116 154 L2135 153 L2155 151 L2175 150 L2193 149 L2212 147 L2233 147 L2258 146 L2273 145 L2291 144 L2309 142 L2329 141 L2348 140 L2367 139 L2387 138 L2408 137 L2425 136 L2445 135 L2465 134 L2486 133 L2503 132 L2561 131 L2580 130 L2599 129 L2619 129 L2639 128 L2658 127 L2676 127 L2704 126 L2725 125 L2752 125 L2789 124 L2803 123 L2816 123 L2834 122 L2852 122 L2871 121 L2890 121 L2910 120 L2929 120 L2950 120 L2967 119 L2986 119 L3006 118 L3027 118 L3045 117 L3064 116 L3083 116 L3104 115 L3122 114 L3141 113 L3162 113 L3187 112 L3201 112 L3219 111 L3238 110 L3258 110 L3277 109 L3296 108 L3316 107 L3337 106 L3354 105 L3373 104 L3393 104 L3414 103 L3431 103 L3450 102 L3470 102 L3489 101 L3509 101 L3527 101 L3547 100 L3568 100 L3586 100 L3605 99 L3632 99 L3653 98 L3681 98 L3716 97 L3730 97 L3744 96 L3762 96 L3780 95 L3800 95 L3818 94 L3857 94 L3878 93 L3895 93 L3914 92 L3935 92 L3954 91 L3973 90 L3992 89 L4012 88 L4031 88 L4050 87 L4069 87 L4090 86 L4115 86 L4129 85 L4146 85 L4166 84 L4185 84 L4205 83 L4224 82 L4244 82 L4264 81 L4282 81 L4301 80 L4322 79 L4342 79 L4360 78 L4379 78 L4399 77 L4417 77 L4437 77 L4456 76 L4476 76 L4495 75 L4515 75 L4533 74 L4562 74 L4610 73 L4647 73 L4663 72 L4675 72 L4692 71 L4708 71 L4728 71 L4747 70 L4766 70 L4786 70 L4807 69 L4824 69 L4843 69 L4863 69 L4883 69 L4902 69 L4920 68 L4940 68 L4960 67 L4979 67 L4998 67 L5019 66 L5043 65 L5058 65 L5075 64 L5095 63 L5114 62 L5134 61 L5152 60 L5172 59 L5193 57 L5211 56 L5230 55 L5250 54 L5270 53 L5288 52 L5307 51 L5327 50 L5346 49 L5366 48 L5385 48 L5404 47 L5424 46 L5443 45 L5462 43 L5490 42 L5510 41 L5538 41 L5575 40 L5590 39 L5603 38 L5620 38 L5637 37 L5658 36 L5676 36 L5695 35 L5715 35 L5737 34 L5753 33 L5771 32 L5792 31 L5813 30 L5830 30 L5850 29 L5869 28 L5890 27 L5907 26 L5926 26 L5948 25 L5973 24 L5988 23 L6005 22 L6024 21 L6044 20 L6062 19 L6082 18 L6101 17 L6123 15 L6139 14 L6159 13 L6179 12 L6201 11 L6217 10 L6236 10 L6256 9 L6275 9 L6294 8 L6313 7 L6333 6 L6352 5 L6372 5 L6390 4 L6439 3 L6466 2 L6500 1" />
</svg>
