<svg xmlns="http://www.w3.org/2000/svg" version="1.1" viewBox="0 0 6500 1000">
	<path fill="none" stroke="gold" stroke-width="125" stroke-linecap="round" stroke-linejoin="round" d="M0 1016  L-718097 1016 L-715493 1016 L-713825 1016 L-695495 1015 L-695325 1015 L-688167 1015 L-688134 1015 L-674703 1015 L-671781 1015 L-658440 1015 L-654271 1015 L-653111 1015 L-652492 1014 L-650480 1014 L-646709 1014 L-646109 1014 L-645780 1014 L-645567 1014 L-645025 1014 L-643787 1013 L-642608 1013 L-639744 1012 L-639222 1012 L-634366 1012 L-631429 1012 L-631386 1012 L-631078 1011 L-630826 1011 L-628231 1011 L-623975 1011 L-623957 1011 L-622721 1011 L-620843 1011 L-618890 1011 L-617942 1011 L-617671 1011 L-617361 1011 L-617263 1011 L-616432 1011 L-614402 1011 L-614111 1010 L-611965 1010 L-611809 1010 L-608153 1009 L-607902 1010 L-607803 1010 L-607286 1010 L-605135 1010 L-604206 1010 L-602680 1011 L-601441 1011 L-599894 1010 L-596933 1010 L-595811 1010 L-595501 1010 L-594290 1010 L-591284 1011 L-591264 1011 L-590917 1011 L-590703 1011 L-590577 1010 L-590336 1010 L-590298 1010 L-590278 1009 L-590259 1009 L-590200 1009 L-590141 1009 L-590123 1009 L-589680 1009 L-588441 1009 L-586895 1009 L-583507 1009 L-577781 1009 L-577579 1008 L-575944 1008 L-574222 1008 L-572790 1008 L-572557 1008 L-571842 1008 L-565710 1008 L-565342 1008 L-565188 1008 L-564609 1008 L-564317 1008 L-563349 1008 L-563040 1007 L-562441 1007 L-560834 1007 L-560099 1007 L-559790 1007 L-559021 1007 L-556985 1007 L-556560 1007 L-555747 1007 L-548319 1007 L-547796 1007 L-547622 1007 L-546887 1007 L-545319 1007 L-544914 1007 L-542689 1006 L-541741 1006 L-541316 1006 L-540986 1006 L-539942 1006 L-537834 1006 L-537581 1006 L-536963 1006 L-536150 1006 L-534042 1006 L-533994 1006 L-532065 1006 L-531740 1005 L-531605 1005 L-531101 1005 L-529689 1005 L-529186 1005 L-528664 1005 L-525104 1005 L-524369 1004 L-521944 1004 L-520655 1004 L-520248 1004 L-517096 1004 L-516941 1004 L-516920 1004 L-516554 1004 L-515296 1004 L-514581 1004 L-513691 1004 L-513284 1004 L-512355 1004 L-511247 1004 L-510943 1005 L-504695 1005 L-503747 1005 L-502121 1005 L-501619 1005 L-497944 1005 L-497111 1005 L-493158 1005 L-491746 1005 L-489257 1005 L-488581 1005 L-488542 1005 L-487671 1005 L-484460 1005 L-481597 1005 L-480629 1004 L-479507 1004 L-479488 1004 L-477863 1004 L-477399 1004 L-477307 1004 L-470938 1004 L-469989 1004 L-467532 1004 L-466660 1004 L-465424 1004 L-463423 1004 L-463025 1003 L-461589 1003 L-459563 1003 L-459349 1003 L-458169 1003 L-456661 1003 L-456641 1003 L-454629 1003 L-453759 1003 L-452888 1003 L-452303 1003 L-451766 1003 L-451108 1002 L-449870 1002 L-449310 1002 L-448129 1002 L-446891 1002 L-446853 1002 L-446466 1002 L-445924 1002 L-445150 1002 L-444028 1002 L-441939 1002 L-441605 1002 L-441320 1002 L-440391 1001 L-439908 1001 L-439172 1001 L-435541 1001 L-434414 1001 L-434259 1001 L-433233 1001 L-429518 1001 L-428301 1001 L-426482 1001 L-423697 1001 L-423135 1001 L-419247 1001 L-416771 1001 L-415436 1001 L-414932 1000 L-414449 1000 L-411760 1000 L-407988 1000 L-405531 1000 L-404351 1000 L-403712 1000 L-401353 1000 L-401275 1000 L-400228 1000 L-400134 1000 L-399631 1000 L-399186 1000 L-399128 1000 L-398914 1000 L-395955 1000 L-393247 1000 L-393092 1000 L-389572 1000 L-389049 1000 L-388081 1000 L-387732 999 L-386689 999 L-385760 999 L-385334 999 L-383825 999 L-382859 999 L-382840 999 L-380944 995 L-380828 991 L-380780 987 L-380755 983 L-377751 983 L-375720 983 L-373960 983 L-373593 983 L-373147 982 L-372780 982 L-372366 982 L-370381 982 L-370168 982 L-370013 982 L-368408 982 L-367286 982 L-366338 982 L-365080 982 L-363436 982 L-362256 982 L-355667 982 L-355620 982 L-355214 982 L-354169 982 L-354034 982 L-352351 981 L-352331 981 L-350995 981 L-349758 981 L-349604 981 L-349230 981 L-349024 981 L-348715 981 L-347941 981 L-345619 981 L-344961 981 L-342834 981 L-341111 981 L-340918 981 L-338364 980 L-338088 980 L-337900 980 L-337067 980 L-336295 980 L-335597 980 L-330596 980 L-330220 980 L-325968 980 L-325480 985 L-325461 985 L-325382 985 L-325307 985 L-325287 980 L-324474 980 L-323721 979 L-322501 979 L-321069 979 L-320973 979 L-320799 979 L-320444 979 L-319135 979 L-317278 979 L-315575 979 L-315073 979 L-314807 979 L-314414 979 L-314280 979 L-313370 979 L-312994 979 L-312065 979 L-311726 979 L-311687 979 L-311649 979 L-309733 979 L-309560 979 L-308031 979 L-307703 978 L-307587 978 L-307180 978 L-306831 978 L-305188 978 L-304637 978 L-304394 978 L-303852 978 L-303021 978 L-302479 978 L-300945 978 L-300853 978 L-300816 978 L-300680 978 L-300292 978 L-299268 977 L-297391 977 L-297295 977 L-296695 979 L-296328 981 L-295843 983 L-295805 985 L-295031 985 L-294974 985 L-294799 985 L-294606 985 L-293000 985 L-292980 984 L-292825 985 L-292710 985 L-291530 985 L-291375 985 L-290708 985 L-288260 989 L-285745 994 L-283075 998 L-275376 1003 L-269709 1003 L-267494 1003 L-267471 1003 L-266497 1004 L-266477 1004 L-265613 1004 L-262873 1004 L-257074 1003 L-256921 1002 L-254135 1002 L-240527 1002 L-239781 1002 L-235370 1002 L-219024 1002 L-218792 1002 L-218255 1002 L-209795 1002 L-201090 1002 L-200877 1002 L-198905 1002 L-196119 1002 L-191631 1002 L-191476 1002 L-191307 1002 L-191167 1002 L-190876 1002 L-190838 1001 L-190567 1001 L-190395 1001 L-189985 1001 L-188864 1001 L-187684 1001 L-186407 1001 L-183543 1001 L-180623 1001 L-178631 1001 L-177083 1001 L-174046 1001 L-164721 1001 L-164197 1001 L-158473 1001 L-156966 1001 L-156152 1001 L-154468 1001 L-153747 1000 L-153579 1000 L-152533 1000 L-150466 1000 L-149104 1000 L-144661 1000 L-144564 1000 L-144525 1000 L-144506 1000 L-143674 1000 L-143596 1000 L-141023 1000 L-137774 1000 L-137619 1000 L-136671 1000 L-134930 1000 L-134214 1000 L-130674 1000 L-124096 1000 L-122679 1001 L-122658 1001 L-121708 1001 L-118233 1001 L-117480 1001 L-116919 1001 L-116136 1001 L-108632 1000 L-107034 1000 L-105460 1000 L-102275 1000 L-97942 1000 L-89372 1000 L-80626 1000 L-77552 1000 L-74286 1000 L-73739 1000 L-66602 1000 L-60934 1000 L-46870 1000 L-40858 1000 L-36152 1000 L-32149 1000 L-27041 1000 L-17327 1000 L-1757 1000 L1325 999 L1627 975 L1647 944 L1666 910 L1685 871 L1705 854 L1724 839 L1743 825 L1770 812 L1791 799 L1819 785 L1854 770 L1868 757 L1881 746 L1900 737 L1918 730 L1938 723 L1956 716 L1976 709 L1996 702 L2017 695 L2034 687 L2052 680 L2073 674 L2093 667 L2111 660 L2130 652 L2150 644 L2170 637 L2188 629 L2207 623 L2228 616 L2253 609 L2268 603 L2285 596 L2305 590 L2324 584 L2343 577 L2362 570 L2382 564 L2403 557 L2421 551 L2439 546 L2460 541 L2481 536 L2498 531 L2517 527 L2537 523 L2556 519 L2575 515 L2594 511 L2614 508 L2634 506 L2653 503 L2671 500 L2699 496 L2720 492 L2747 488 L2781 483 L2796 479 L2809 476 L2827 473 L2846 470 L2866 467 L2885 464 L2904 461 L2924 458 L2945 455 L2962 452 L2981 449 L3001 446 L3021 443 L3040 439 L3058 435 L3078 430 L3098 426 L3117 422 L3136 417 L3157 412 L3181 407 L3196 401 L3213 396 L3233 391 L3252 387 L3272 381 L3290 376 L3311 371 L3331 365 L3349 360 L3368 355 L3388 351 L3409 346 L3426 342 L3445 338 L3465 334 L3484 330 L3504 326 L3523 323 L3542 319 L3562 315 L3581 312 L3600 308 L3629 305 L3649 301 L3676 298 L3714 294 L3729 290 L3741 286 L3758 283 L3775 280 L3795 278 L3814 276 L3833 274 L3853 272 L3873 270 L3891 267 L3909 265 L3930 262 L3950 260 L3968 257 L3987 254 L4007 251 L4027 248 L4045 244 L4064 241 L4085 238 L4110 235 L4124 232 L4142 228 L4162 225 L4181 222 L4200 218 L4219 215 L4239 211 L4259 208 L4278 205 L4296 202 L4317 199 L4337 196 L4355 193 L4374 190 L4394 188 L4412 185 L4432 182 L4451 180 L4471 177 L4490 174 L4510 172 L4529 169 L4557 167 L4577 164 L4605 161 L4641 157 L4655 153 L4668 150 L4686 147 L4704 145 L4724 143 L4742 140 L4762 137 L4782 135 L4803 132 L4821 128 L4838 125 L4859 121 L4879 118 L4897 114 L4916 110 L4936 105 L4956 101 L4974 98 L4993 95 L5014 92 L5039 90 L5054 89 L5071 87 L5090 84 L5110 82 L5129 80 L5148 78 L5168 76 L5189 74 L5206 73 L5225 71 L5246 68 L5266 66 L5283 63 L5302 61 L5323 59 L5341 58 L5361 57 L5380 56 L5400 54 L5419 53 L5438 51 L5457 50 L5485 48 L5506 47 L5533 46 L5568 44 L5582 42 L5595 41 L5614 40 L5632 39 L5652 37 L5671 36 L5690 35 L5710 34 L5731 33 L5748 32 L5767 31 L5787 30 L5807 29 L5825 27 L5844 26 L5864 25 L5884 24 L5903 23 L5921 22 L5943 21 L5968 20 L5982 19 L5999 18 L6019 17 L6038 16 L6058 15 L6077 14 L6096 13 L6117 11 L6135 10 L6154 9 L6174 8 L6195 7 L6212 6 L6231 5 L6251 5 L6270 4 L6290 3 L6308 2 L6328 1 L6348 1 L6367 0 L6386 1 L6415 2 L6434 3 L6462 4 L6500 3" />
</svg>
