<svg xmlns="http://www.w3.org/2000/svg" version="1.1" viewBox="0 0 6500 1000">
	<path fill="none" stroke="gold" stroke-width="125" stroke-linecap="round" stroke-linejoin="round" d="M0 10880  L-730287 10880 L-727683 10880 L-726015 10879 L-707685 10878 L-707515 10877 L-700357 10877 L-700324 10877 L-686893 10876 L-683972 10877 L-670631 10875 L-666462 10873 L-665302 10871 L-664683 10869 L-662671 10867 L-658899 10866 L-658299 10866 L-657970 10865 L-657757 10864 L-657215 10863 L-655977 10859 L-654798 10855 L-651934 10852 L-651412 10848 L-646556 10847 L-643619 10846 L-643576 10845 L-643268 10844 L-643016 10843 L-640421 10843 L-636166 10843 L-636148 10843 L-634911 10843 L-633033 10843 L-631080 10842 L-630132 10841 L-629861 10840 L-629551 10839 L-629453 10839 L-628623 10839 L-626592 10839 L-626301 10835 L-624155 10833 L-624000 10831 L-620343 10828 L-620092 10829 L-619994 10829 L-619477 10830 L-617325 10832 L-616397 10835 L-614871 10837 L-613631 10837 L-612085 10837 L-609123 10836 L-608001 10835 L-607692 10834 L-606481 10833 L-603474 10838 L-603454 10838 L-603107 10837 L-602894 10837 L-602767 10831 L-602526 10830 L-602488 10829 L-602468 10828 L-602449 10827 L-602390 10826 L-602332 10825 L-602313 10824 L-601870 10823 L-600631 10822 L-599085 10821 L-595698 10820 L-589971 10820 L-589770 10820 L-588134 10819 L-586412 10819 L-584980 10818 L-584748 10818 L-584032 10817 L-577900 10817 L-577532 10816 L-577378 10815 L-576799 10814 L-576507 10813 L-575540 10812 L-575230 10811 L-574631 10810 L-573025 10810 L-572290 10810 L-571980 10811 L-571212 10811 L-569175 10810 L-568750 10809 L-567938 10808 L-560509 10808 L-559986 10807 L-559812 10806 L-559077 10805 L-557510 10804 L-557104 10803 L-554879 10803 L-553931 10802 L-553506 10802 L-553176 10802 L-552132 10801 L-550024 10800 L-549772 10799 L-549153 10798 L-548340 10798 L-546232 10797 L-546184 10796 L-544256 10795 L-543930 10794 L-543795 10793 L-543292 10793 L-541879 10792 L-541376 10790 L-540854 10789 L-537295 10787 L-536560 10785 L-534135 10785 L-532845 10784 L-532438 10784 L-529286 10784 L-529131 10784 L-529111 10784 L-528744 10784 L-527486 10785 L-526771 10785 L-525881 10785 L-525474 10785 L-524545 10785 L-523437 10785 L-523134 10786 L-516885 10787 L-515937 10788 L-514311 10789 L-513810 10790 L-510134 10790 L-509301 10791 L-505348 10791 L-503937 10790 L-501447 10789 L-500771 10788 L-500732 10787 L-499861 10787 L-496650 10787 L-493787 10786 L-492819 10786 L-491697 10785 L-491678 10784 L-490053 10783 L-489589 10782 L-489497 10781 L-483128 10781 L-482180 10780 L-479723 10780 L-478850 10779 L-477614 10779 L-475613 10778 L-475215 10777 L-473779 10776 L-471753 10776 L-471540 10775 L-470360 10774 L-468851 10774 L-468831 10774 L-466819 10773 L-465949 10772 L-465078 10772 L-464494 10771 L-463956 10770 L-463299 10769 L-462061 10768 L-461500 10768 L-460319 10767 L-459081 10767 L-459043 10766 L-458656 10766 L-458114 10765 L-457340 10764 L-456218 10764 L-454129 10763 L-453796 10762 L-453510 10761 L-452581 10761 L-452098 10760 L-451363 10759 L-447731 10759 L-446604 10758 L-446449 10758 L-445423 10757 L-441708 10757 L-440491 10756 L-438673 10755 L-435887 10754 L-435325 10753 L-431438 10753 L-428961 10753 L-427626 10753 L-427123 10752 L-426639 10752 L-423950 10752 L-420179 10752 L-417721 10752 L-416542 10752 L-415902 10751 L-413543 10751 L-413465 10750 L-412418 10750 L-412324 10749 L-411821 10749 L-411376 10749 L-411318 10749 L-411105 10749 L-408145 10748 L-405438 10747 L-405283 10747 L-401762 10746 L-401239 10745 L-400272 10745 L-399923 10744 L-398879 10743 L-397950 10742 L-397525 10742 L-396016 10742 L-395049 10741 L-395030 10741 L-393134 10707 L-393018 10673 L-392970 10639 L-392946 10605 L-389941 10604 L-387911 10603 L-386150 10603 L-385783 10602 L-385337 10602 L-384970 10601 L-384556 10600 L-382571 10600 L-382358 10600 L-382203 10599 L-380598 10599 L-379476 10599 L-378528 10598 L-377271 10597 L-375626 10597 L-374446 10596 L-367857 10596 L-367810 10595 L-367405 10595 L-366360 10594 L-366224 10594 L-364542 10593 L-364522 10592 L-363185 10591 L-361949 10591 L-361794 10590 L-361421 10590 L-361214 10589 L-360905 10589 L-360131 10588 L-357809 10587 L-357152 10587 L-355024 10586 L-353301 10586 L-353108 10585 L-350555 10585 L-350278 10584 L-350090 10583 L-349258 10582 L-348485 10582 L-347787 10581 L-342787 10581 L-342411 10580 L-338158 10580 L-337671 10625 L-337651 10625 L-337572 10625 L-337497 10625 L-337477 10578 L-336665 10577 L-335911 10576 L-334692 10576 L-333260 10576 L-333163 10575 L-332989 10575 L-332635 10574 L-331325 10574 L-329468 10573 L-327766 10573 L-327263 10572 L-326998 10572 L-326604 10571 L-326470 10571 L-325560 10570 L-325184 10570 L-324256 10570 L-323916 10569 L-323877 10569 L-323839 10569 L-321924 10569 L-321750 10568 L-320221 10568 L-319893 10568 L-319777 10567 L-319370 10567 L-319022 10566 L-317378 10565 L-316827 10565 L-316584 10564 L-316043 10564 L-315211 10563 L-314670 10562 L-313135 10562 L-313043 10561 L-313006 10561 L-312870 10560 L-312483 10560 L-311458 10559 L-309581 10559 L-309485 10558 L-308885 10573 L-308518 10589 L-308033 10605 L-307995 10620 L-307221 10621 L-307164 10621 L-306989 10620 L-306796 10619 L-305190 10619 L-305170 10618 L-305015 10619 L-304900 10619 L-303720 10620 L-303565 10621 L-302899 10621 L-300450 10659 L-297936 10698 L-295266 10735 L-287567 10772 L-281899 10772 L-279684 10772 L-279661 10772 L-278687 10781 L-278667 10781 L-277803 10780 L-275063 10780 L-269265 10770 L-269111 10769 L-266325 10768 L-252717 10768 L-251971 10767 L-247560 10766 L-231214 10766 L-230982 10765 L-230445 10764 L-221986 10764 L-213280 10763 L-213068 10763 L-211095 10762 L-208309 10762 L-203821 10763 L-203667 10762 L-203498 10762 L-203357 10762 L-203067 10761 L-203028 10761 L-202757 10760 L-202585 10760 L-202175 10759 L-201055 10759 L-199874 10758 L-198598 10758 L-195734 10757 L-192813 10757 L-190821 10757 L-189274 10756 L-186236 10755 L-176911 10755 L-176387 10754 L-170664 10754 L-169157 10754 L-168342 10754 L-166658 10753 L-165937 10752 L-165769 10752 L-164724 10751 L-162656 10751 L-161294 10751 L-156851 10750 L-156754 10750 L-156715 10749 L-156696 10749 L-155864 10748 L-155786 10747 L-153214 10747 L-149964 10746 L-149810 10746 L-148861 10745 L-147120 10745 L-146405 10747 L-142864 10750 L-136287 10752 L-134869 10756 L-134849 10756 L-133898 10755 L-130424 10755 L-129671 10754 L-129109 10753 L-128327 10753 L-120823 10752 L-119224 10752 L-117650 10751 L-114465 10751 L-110132 10751 L-101562 10750 L-92816 10750 L-89742 10750 L-86476 10749 L-85929 10748 L-78792 10748 L-73125 10748 L-59060 10748 L-53049 10748 L-48342 10748 L-44339 10747 L-39232 10746 L-29518 10746 L-13947 10745 L-10864 10744 L-10562 10537 L-10543 10282 L-10524 9993 L-10504 9669 L-10484 9522 L-10465 9397 L-10446 9283 L-10419 9170 L-10398 9060 L-10370 8945 L-10335 8817 L-10321 8709 L-10308 8615 L-10290 8538 L-10271 8481 L-10251 8423 L-10233 8364 L-10213 8306 L-10193 8247 L-10172 8185 L-10155 8125 L-10137 8067 L-10116 8011 L-10096 7954 L-10078 7892 L-10059 7829 L-10039 7763 L-10019 7700 L-10001 7638 L-9982 7580 L-9961 7524 L-9936 7467 L-9921 7414 L-9904 7362 L-9885 7308 L-9865 7256 L-9846 7199 L-9827 7141 L-9807 7087 L-9787 7035 L-9769 6984 L-9750 6937 L-9729 6892 L-9709 6850 L-9692 6814 L-9673 6778 L-9653 6743 L-9634 6710 L-9614 6678 L-9595 6648 L-9575 6623 L-9556 6599 L-9536 6574 L-9518 6549 L-9490 6519 L-9469 6486 L-9442 6450 L-9408 6411 L-9394 6378 L-9380 6350 L-9362 6324 L-9343 6301 L-9323 6278 L-9304 6250 L-9285 6224 L-9265 6197 L-9244 6172 L-9227 6149 L-9208 6124 L-9188 6099 L-9168 6070 L-9150 6037 L-9131 6003 L-9111 5967 L-9091 5930 L-9072 5894 L-9054 5857 L-9032 5815 L-9008 5770 L-8993 5725 L-8976 5683 L-8956 5641 L-8937 5600 L-8917 5556 L-8899 5510 L-8879 5466 L-8858 5423 L-8840 5381 L-8821 5339 L-8801 5301 L-8781 5261 L-8763 5224 L-8744 5191 L-8724 5156 L-8705 5127 L-8685 5096 L-8667 5065 L-8647 5035 L-8627 5004 L-8608 4973 L-8589 4943 L-8560 4913 L-8541 4885 L-8513 4856 L-8476 4821 L-8461 4788 L-8448 4757 L-8431 4729 L-8414 4707 L-8394 4688 L-8376 4670 L-8357 4653 L-8336 4636 L-8316 4618 L-8299 4599 L-8280 4578 L-8259 4557 L-8240 4535 L-8221 4512 L-8202 4488 L-8182 4461 L-8163 4434 L-8144 4406 L-8125 4379 L-8104 4353 L-8080 4325 L-8065 4299 L-8048 4272 L-8028 4244 L-8009 4218 L-7989 4189 L-7970 4159 L-7950 4130 L-7930 4102 L-7912 4074 L-7893 4049 L-7873 4024 L-7852 4000 L-7834 3978 L-7815 3954 L-7795 3931 L-7777 3908 L-7757 3885 L-7738 3863 L-7718 3841 L-7699 3820 L-7679 3799 L-7661 3778 L-7632 3756 L-7612 3734 L-7584 3709 L-7548 3675 L-7534 3643 L-7521 3613 L-7503 3587 L-7485 3571 L-7465 3553 L-7447 3531 L-7427 3509 L-7408 3485 L-7386 3460 L-7368 3433 L-7351 3405 L-7330 3375 L-7310 3343 L-7292 3310 L-7273 3275 L-7253 3240 L-7233 3208 L-7215 3177 L-7196 3152 L-7175 3132 L-7150 3114 L-7136 3099 L-7118 3082 L-7099 3065 L-7079 3046 L-7060 3028 L-7041 3010 L-7021 2993 L-7000 2980 L-6983 2966 L-6964 2950 L-6944 2930 L-6923 2907 L-6906 2885 L-6887 2867 L-6867 2854 L-6848 2843 L-6828 2833 L-6809 2822 L-6790 2811 L-6770 2798 L-6751 2785 L-6732 2774 L-6704 2762 L-6684 2751 L-6656 2738 L-6621 2723 L-6607 2710 L-6594 2699 L-6575 2688 L-6557 2680 L-6537 2671 L-6519 2661 L-6499 2652 L-6479 2644 L-6458 2636 L-6441 2627 L-6422 2617 L-6402 2607 L-6382 2596 L-6364 2585 L-6345 2575 L-6325 2567 L-6305 2558 L-6287 2550 L-6268 2541 L-6246 2532 L-6222 2524 L-6207 2516 L-6190 2508 L-6170 2500 L-6151 2491 L-6132 2482 L-6113 2472 L-6093 2461 L-6072 2452 L-6054 2443 L-6036 2435 L-6015 2426 L-5995 2418 L-5977 2410 L-5958 2401 L-5938 2394 L-5919 2386 L-5900 2379 L-5881 2373 L-5861 2367 L-5842 2361 L-5822 2356 L-5804 2366 L-5775 2375 L-5755 2384 L-5727 2393 L-5690 2384 L-5675 2378 L-5662 2372 L-5644 2367 L-5628 2362 L-5608 2357 L-5590 2352 L-5570 2346 L-5551 2341 L-5529 2337 L-5513 2333 L-5494 2328 L-5473 2323 L-5453 2317 L-5435 2312 L-5416 2306 L-5396 2301 L-5376 2295 L-5358 2290 L-5339 2286 L-5318 2281 L-5293 2277 L-5279 2272 L-5261 2266 L-5242 2261 L-5222 2255 L-5203 2251 L-5184 2245 L-5164 2238 L-5143 2230 L-5126 2223 L-5107 2216 L-5086 2209 L-5066 2203 L-5049 2196 L-5030 2189 L-5010 2183 L-4991 2178 L-4971 2170 L-4952 2163 L-4932 2156 L-4913 2150 L-4894 2145 L-4875 2140 L-4847 2134 L-4827 2128 L-4799 2121 L-4764 2114 L-4750 2108 L-4737 2102 L-4718 2096 L-4700 2091 L-4680 2086 L-4661 2080 L-4642 2075 L-4622 2069 L-4601 2063 L-4584 2058 L-4565 2052 L-4545 2046 L-4525 2039 L-4507 2031 L-4488 2023 L-4468 2013 L-4448 2005 L-4429 1996 L-4411 1989 L-4389 1982 L-4364 1973 L-4350 1965 L-4333 1956 L-4313 1948 L-4294 1941 L-4275 1932 L-4256 1924 L-4236 1916 L-4215 1908 L-4197 1901 L-4178 1894 L-4158 1886 L-4137 1880 L-4120 1874 L-4101 1868 L-4081 1864 L-4062 1859 L-4043 1854 L-4024 1849 L-4004 1845 L-3984 1841 L-3965 1837 L-3946 1834 L-3919 1829 L-3898 1824 L-3870 1820 L-3835 1811 L-3821 1803 L-3808 1795 L-3789 1788 L-3771 1782 L-3751 1778 L-3733 1772 L-3713 1768 L-3693 1763 L-3672 1757 L-3655 1752 L-3637 1745 L-3616 1739 L-3596 1733 L-3578 1726 L-3559 1719 L-3539 1713 L-3519 1706 L-3501 1700 L-3482 1695 L-3461 1690 L-3436 1685 L-3421 1680 L-3404 1675 L-3385 1669 L-3365 1663 L-3346 1656 L-3327 1649 L-3307 1640 L-3286 1631 L-3269 1623 L-3250 1616 L-3229 1609 L-3209 1603 L-3192 1598 L-3173 1593 L-3152 1590 L-3134 1586 L-3114 1582 L-3095 1577 L-3075 1573 L-3056 1569 L-3036 1566 L-3018 1562 L-2990 1558 L-2969 1554 L-2942 1550 L-2908 1547 L-2893 1543 L-2880 1539 L-2862 1536 L-2843 1533 L-2823 1530 L-2804 1526 L-2785 1524 L-2765 1521 L-2744 1518 L-2727 1515 L-2708 1512 L-2688 1508 L-2668 1505 L-2650 1501 L-2631 1498 L-2611 1495 L-2591 1493 L-2572 1491 L-2553 1489 L-2532 1487 L-2508 1484 L-2493 1480 L-2476 1477 L-2456 1473 L-2437 1471 L-2418 1467 L-2399 1465 L-2379 1461 L-2358 1455 L-2340 1449 L-2321 1442 L-2301 1435 L-2280 1430 L-2263 1426 L-2244 1421 L-2224 1417 L-2205 1413 L-2185 1408 L-2167 1404 L-2147 1400 L-2128 1397 L-2108 1393 L-2089 1391 L-2061 1388 L-2013 1385 L-1976 1381 L-1961 1378 L-1949 1375 L-1932 1372 L-1914 1370 L-1894 1369 L-1876 1367 L-1857 1364 L-1836 1361 L-1816 1359 L-1799 1357 L-1780 1355 L-1759 1353 L-1740 1351 L-1721 1348 L-1702 1345 L-1682 1342 L-1663 1339 L-1644 1336 L-1625 1332 L-1604 1328 L-1579 1322 L-1565 1317 L-1548 1312 L-1528 1307 L-1509 1303 L-1489 1298 L-1470 1295 L-1450 1290 L-1430 1285 L-1412 1281 L-1393 1276 L-1372 1272 L-1352 1269 L-1334 1266 L-1315 1263 L-1295 1260 L-1277 1257 L-1257 1254 L-1238 1250 L-1218 1247 L-1199 1243 L-1179 1240 L-1161 1236 L-1132 1233 L-1112 1229 L-1084 1224 L-1048 1217 L-1033 1210 L-1020 1203 L-1003 1198 L-985 1194 L-965 1191 L-947 1188 L-927 1186 L-908 1183 L-886 1180 L-870 1177 L-851 1173 L-830 1168 L-810 1163 L-792 1157 L-773 1151 L-753 1144 L-733 1138 L-715 1132 L-696 1127 L-675 1123 L-650 1117 L-635 1113 L-617 1109 L-599 1105 L-579 1101 L-560 1097 L-541 1091 L-521 1086 L-500 1081 L-483 1076 L-464 1072 L-444 1068 L-422 1064 L-406 1060 L-387 1057 L-367 1053 L-348 1050 L-328 1046 L-309 1042 L-290 1039 L-270 1036 L-251 1033 L-232 1030 L-204 3469 L-184 3466 L-156 3462 L-120 3456 L-106 1008 L-92 1003 L-75 999 L-57 997 L-37 995 L-19 992 L0 990 L20 985 L41 980 L58 975 L76 970 L97 965 L117 959 L135 953 L154 946 L174 939 L195 935 L212 931 L231 927 L253 923 L278 917 L293 911 L322 905 L362 897 L385 890 L414 882 L431 875 L445 869 L464 865 L484 861 L505 858 L522 854 L541 851 L561 847 L580 845 L599 843 L618 841 L638 839 L658 836 L677 832 L695 830 L723 826 L744 823 L772 820 L807 816 L820 812 L852 808 L871 805 L891 802 L909 800 L929 798 L948 796 L970 793 L986 790 L1005 784 L1026 776 L1046 765 L1064 753 L1083 742 L1103 733 L1123 726 L1141 719 L1160 714 L1181 710 L1206 705 L1221 701 L1238 697 L1257 691 L1277 687 L1296 683 L1315 678 L1335 673 L1356 668 L1373 663 L1392 658 L1413 655 L1434 651 L1450 648 L1469 646 L1490 642 L1509 640 L1528 635 L1547 632 L1567 629 L1587 625 L1605 623 L1624 620 L1652 617 L1672 614 L1743 607 L1770 600 L1785 592 L1799 585 L1819 581 L1838 577 L1857 573 L1877 568 L1898 565 L1915 561 L1934 559 L1954 557 L1974 555 L1992 551 L2011 547 L2031 542 L2052 538 L2069 533 L2088 529 L2110 526 L2135 524 L2150 520 L2167 517 L2186 512 L2206 507 L2225 503 L2244 498 L2263 495 L2285 492 L2302 489 L2321 486 L2341 483 L2362 480 L2379 477 L2437 473 L2457 470 L2475 467 L2495 464 L2515 462 L2534 459 L2553 457 L2581 455 L2601 453 L2629 452 L2665 449 L2680 446 L2693 444 L2710 442 L2728 440 L2748 439 L2766 437 L2786 436 L2806 435 L2827 434 L2844 432 L2862 431 L2883 429 L2903 427 L2921 425 L2940 422 L2960 419 L2981 417 L2998 414 L3017 412 L3039 410 L3063 407 L3078 406 L3095 404 L3115 402 L3134 399 L3153 397 L3172 394 L3192 389 L3213 386 L3230 383 L3250 380 L3270 379 L3291 377 L3307 376 L3326 374 L3347 372 L3366 371 L3385 370 L3404 368 L3424 367 L3444 366 L3463 365 L3481 363 L3509 362 L3530 360 L3557 358 L3593 356 L3606 354 L3620 352 L3638 351 L3656 349 L3676 347 L3695 345 L3734 344 L3755 343 L3772 341 L3791 339 L3811 337 L3831 334 L3849 331 L3868 328 L3888 326 L3908 324 L3927 322 L3946 320 L3966 318 L3991 317 L4006 315 L4023 314 L4043 312 L4062 309 L4081 307 L4100 305 L4120 303 L4141 301 L4159 299 L4178 297 L4198 295 L4218 293 L4236 291 L4255 289 L4275 287 L4294 286 L4314 285 L4332 283 L4352 282 L4372 280 L4391 279 L4410 277 L4439 275 L4486 274 L4524 272 L4539 270 L4551 268 L4568 267 L4585 266 L4605 265 L4623 263 L4642 262 L4663 261 L4683 261 L4700 260 L4719 260 L4740 259 L4759 258 L4778 257 L4797 256 L4817 255 L4836 254 L4855 252 L4874 251 L4895 249 L4920 247 L4934 244 L4951 242 L4971 239 L4990 235 L5010 232 L5029 227 L5049 223 L5069 219 L5087 216 L5106 212 L5127 209 L5147 205 L5165 202 L5184 198 L5204 194 L5222 191 L5242 188 L5261 186 L5281 183 L5300 179 L5320 175 L5338 171 L5367 167 L5387 164 L5415 162 L5452 159 L5467 156 L5479 154 L5497 151 L5514 149 L5534 147 L5552 145 L5572 143 L5591 141 L5613 138 L5629 135 L5648 132 L5669 129 L5690 126 L5707 123 L5726 120 L5746 118 L5767 116 L5784 113 L5803 110 L5824 107 L5849 103 L5864 100 L5882 96 L5900 92 L5921 89 L5939 86 L5959 82 L5978 79 L5999 74 L6016 70 L6035 66 L6056 62 L6077 59 L6093 57 L6112 55 L6132 53 L6151 51 L6171 49 L6190 46 L6209 43 L6228 40 L6248 38 L6267 35 L6315 32 L6343 29 L6376 25 L6391 22 L6403 19 L6422 16 L6442 14 L6462 10 L6480 8 L6500 5" />
</svg>
