<svg xmlns="http://www.w3.org/2000/svg" version="1.1" viewBox="0 0 6500 1000">
	<path fill="none" stroke="gold" stroke-width="125" stroke-linecap="round" stroke-linejoin="round" d="M0 1016  L-717792 1016 L-715188 1016 L-713520 1016 L-695190 1016 L-695020 1015 L-687862 1015 L-687829 1015 L-674398 1015 L-671477 1015 L-658136 1015 L-653967 1015 L-652807 1015 L-652187 1014 L-650176 1014 L-646404 1014 L-645804 1014 L-645475 1014 L-645262 1014 L-644720 1014 L-643482 1013 L-642303 1013 L-639439 1012 L-638917 1012 L-634061 1012 L-631124 1012 L-631081 1012 L-630773 1012 L-630521 1011 L-627926 1011 L-623670 1011 L-623653 1011 L-622416 1011 L-620538 1011 L-618585 1011 L-617637 1011 L-617366 1011 L-617056 1011 L-616958 1011 L-616128 1011 L-614097 1011 L-613806 1010 L-611660 1010 L-611505 1010 L-607848 1010 L-607597 1010 L-607499 1010 L-606982 1010 L-604830 1010 L-603902 1010 L-602375 1011 L-601136 1011 L-599590 1011 L-596628 1010 L-595506 1010 L-595197 1010 L-593985 1010 L-590979 1011 L-590959 1011 L-590612 1011 L-590399 1011 L-590272 1010 L-590031 1010 L-589993 1010 L-589973 1010 L-589954 1009 L-589895 1009 L-589836 1009 L-589818 1009 L-589375 1009 L-588136 1009 L-586590 1009 L-583202 1009 L-577476 1009 L-577275 1009 L-575639 1008 L-573917 1008 L-572485 1008 L-572252 1008 L-571537 1008 L-565405 1008 L-565037 1008 L-564883 1008 L-564304 1008 L-564012 1008 L-563045 1008 L-562735 1008 L-562136 1007 L-560530 1007 L-559795 1007 L-559485 1007 L-558716 1007 L-556680 1007 L-556255 1007 L-555442 1007 L-548014 1007 L-547491 1007 L-547317 1007 L-546582 1007 L-545015 1007 L-544609 1007 L-542384 1006 L-541436 1006 L-541011 1006 L-540681 1006 L-539637 1006 L-537529 1006 L-537277 1006 L-536658 1006 L-535845 1006 L-533737 1006 L-533689 1006 L-531760 1006 L-531435 1005 L-531300 1005 L-530797 1005 L-529384 1005 L-528881 1005 L-528359 1005 L-524800 1005 L-524064 1004 L-521640 1004 L-520350 1004 L-519943 1004 L-516791 1004 L-516636 1004 L-516616 1004 L-516249 1004 L-514991 1004 L-514276 1004 L-513386 1004 L-512979 1004 L-512050 1004 L-510942 1004 L-510639 1005 L-504390 1005 L-503442 1005 L-501816 1005 L-501314 1005 L-497639 1005 L-496806 1005 L-492853 1005 L-491441 1005 L-488952 1005 L-488276 1005 L-488237 1005 L-487366 1005 L-484155 1005 L-481292 1005 L-480324 1005 L-479202 1004 L-479183 1004 L-477558 1004 L-477094 1004 L-477002 1004 L-470633 1004 L-469685 1004 L-467228 1004 L-466355 1004 L-465119 1004 L-463118 1004 L-462720 1003 L-461284 1003 L-459258 1003 L-459045 1003 L-457865 1003 L-456356 1003 L-456336 1003 L-454324 1003 L-453454 1003 L-452583 1003 L-451999 1003 L-451461 1003 L-450804 1002 L-449565 1002 L-449005 1002 L-447824 1002 L-446586 1002 L-446548 1002 L-446161 1002 L-445619 1002 L-444845 1002 L-443723 1002 L-441634 1002 L-441301 1002 L-441015 1002 L-440086 1001 L-439603 1001 L-438868 1001 L-435236 1001 L-434109 1001 L-433954 1001 L-432928 1001 L-429213 1001 L-427996 1001 L-426177 1001 L-423392 1001 L-422830 1001 L-418942 1001 L-416466 1001 L-415131 1001 L-414628 1000 L-414144 1000 L-411455 1000 L-407683 1000 L-405226 1000 L-404046 1000 L-403407 1000 L-401048 1000 L-400970 1000 L-399923 1000 L-399829 1000 L-399326 1000 L-398881 1000 L-398823 1000 L-398610 1000 L-395650 1000 L-392942 1000 L-392788 1000 L-389267 1000 L-388744 1000 L-387777 1000 L-387428 999 L-386384 999 L-385455 999 L-385030 999 L-383521 999 L-382554 999 L-382535 999 L-380639 995 L-380523 991 L-380475 987 L-380450 983 L-377446 983 L-375416 983 L-373655 983 L-373288 982 L-372842 982 L-372475 982 L-372061 982 L-370076 982 L-369863 982 L-369708 982 L-368103 982 L-366981 982 L-366033 982 L-364776 982 L-363131 982 L-361951 982 L-355362 982 L-355315 982 L-354910 982 L-353864 981 L-353729 981 L-352046 981 L-352027 981 L-350690 981 L-349454 981 L-349299 981 L-348925 981 L-348719 981 L-348410 981 L-347636 981 L-345314 981 L-344657 981 L-342529 981 L-340806 980 L-340613 980 L-338060 980 L-337783 980 L-337595 980 L-336763 980 L-335990 980 L-335292 980 L-330291 980 L-329916 980 L-325663 980 L-325176 985 L-325156 985 L-325077 985 L-325002 985 L-324982 979 L-324169 979 L-323416 979 L-322196 979 L-320765 979 L-320668 979 L-320494 979 L-320140 979 L-318830 979 L-316973 979 L-315271 979 L-314768 979 L-314502 979 L-314109 979 L-313975 979 L-313065 979 L-312689 979 L-311760 979 L-311421 979 L-311382 979 L-311344 978 L-309429 978 L-309255 978 L-307726 978 L-307398 978 L-307282 978 L-306875 978 L-306527 978 L-304883 978 L-304332 978 L-304089 978 L-303548 978 L-302716 978 L-302175 978 L-300640 978 L-300548 978 L-300511 977 L-300375 977 L-299988 977 L-298963 977 L-297086 977 L-296990 977 L-296390 979 L-296023 981 L-295538 983 L-295500 985 L-294726 985 L-294669 985 L-294494 985 L-294301 985 L-292695 984 L-292675 984 L-292520 984 L-292405 985 L-291225 985 L-291070 985 L-290403 985 L-287955 989 L-285440 994 L-282771 998 L-275071 1003 L-269404 1003 L-267189 1003 L-267166 1003 L-266192 1004 L-266172 1004 L-265308 1004 L-262568 1004 L-256770 1003 L-256616 1002 L-253830 1002 L-240222 1002 L-239476 1002 L-235065 1002 L-218719 1002 L-218487 1002 L-217950 1002 L-209491 1002 L-200785 1002 L-200573 1002 L-198600 1002 L-195814 1002 L-191326 1002 L-191172 1002 L-191002 1002 L-190862 1002 L-190571 1002 L-190533 1001 L-190262 1001 L-190090 1001 L-189680 1001 L-188560 1001 L-187379 1001 L-186102 1001 L-183239 1001 L-180318 1001 L-178326 1001 L-176779 1001 L-173741 1001 L-164416 1001 L-163892 1001 L-158169 1001 L-156661 1001 L-155847 1001 L-154163 1001 L-153442 1000 L-153274 1000 L-152229 1000 L-150161 1000 L-148799 1000 L-144356 1000 L-144259 1000 L-144220 1000 L-144201 1000 L-143369 1000 L-143291 1000 L-140719 1000 L-137469 1000 L-137314 1000 L-136366 1000 L-134625 1000 L-133910 1000 L-130369 1000 L-123792 1000 L-122374 1001 L-122353 1001 L-121403 1001 L-117929 1001 L-117175 1001 L-116614 1001 L-115832 1001 L-108328 1000 L-106729 1000 L-105155 1000 L-101970 1000 L-97637 1000 L-89067 1000 L-80321 1000 L-77247 1000 L-73981 1000 L-73434 1000 L-66297 1000 L-60629 1000 L-46565 1000 L-40554 1000 L-35847 1000 L-31844 1000 L-26737 1000 L-17023 1000 L-1452 1000 L1630 999 L1932 975 L1952 944 L1970 909 L1990 870 L2010 853 L2029 838 L2048 824 L2075 811 L2096 797 L2124 783 L2159 768 L2173 755 L2186 744 L2204 735 L2223 728 L2243 721 L2261 714 L2281 707 L2301 700 L2322 692 L2339 685 L2357 678 L2378 671 L2398 665 L2416 657 L2435 650 L2455 642 L2475 634 L2493 627 L2512 620 L2533 613 L2558 606 L2573 600 L2590 593 L2609 587 L2629 581 L2648 574 L2667 567 L2687 560 L2708 554 L2725 548 L2744 542 L2765 537 L2785 532 L2803 528 L2821 523 L2842 519 L2860 515 L2880 511 L2899 508 L2919 505 L2938 502 L2958 499 L2976 496 L3004 492 L3025 488 L3052 484 L3086 479 L3101 475 L3114 472 L3132 469 L3151 466 L3171 463 L3190 460 L3209 457 L3229 454 L3250 451 L3267 448 L3286 445 L3306 442 L3326 438 L3345 434 L3363 430 L3383 426 L3403 422 L3422 417 L3441 413 L3462 408 L3486 402 L3501 397 L3518 392 L3538 387 L3557 382 L3577 377 L3595 371 L3615 366 L3636 361 L3654 356 L3673 351 L3693 346 L3713 341 L3731 337 L3750 333 L3770 329 L3789 325 L3809 321 L3827 318 L3847 314 L3867 310 L3886 307 L3905 303 L3934 299 L3953 296 L3981 293 L4018 288 L4033 285 L4046 281 L4063 277 L4080 275 L4100 273 L4118 270 L4138 268 L4158 266 L4178 264 L4196 262 L4214 259 L4235 257 L4254 254 L4273 251 L4292 248 L4312 245 L4331 242 L4350 239 L4369 235 L4390 232 L4414 229 L4429 226 L4446 223 L4466 219 L4485 216 L4505 213 L4524 209 L4544 206 L4564 202 L4583 199 L4601 196 L4621 193 L4642 190 L4660 187 L4679 184 L4699 182 L4717 179 L4737 176 L4756 173 L4776 171 L4795 168 L4815 166 L4833 163 L4862 161 L4882 158 L4910 155 L4946 151 L4960 147 L4973 143 L4991 140 L5009 138 L5029 136 L5047 134 L5067 131 L5087 128 L5108 125 L5126 122 L5143 118 L5164 115 L5184 111 L5202 107 L5221 103 L5241 99 L5261 95 L5279 91 L5298 88 L5319 86 L5344 84 L5359 82 L5376 80 L5395 78 L5415 75 L5434 73 L5453 71 L5473 69 L5494 67 L5511 66 L5530 64 L5551 61 L5571 59 L5588 56 L5607 54 L5627 52 L5646 51 L5666 50 L5685 49 L5705 47 L5724 46 L5743 44 L5762 43 L5790 41 L5810 40 L5838 38 L5873 37 L5887 35 L5900 34 L5919 32 L5937 31 L5957 30 L5976 29 L5995 28 L6015 27 L6036 26 L6053 25 L6072 24 L6092 23 L6112 21 L6130 20 L6149 19 L6169 18 L6189 17 L6207 16 L6226 15 L6248 14 L6272 13 L6287 12 L6304 11 L6324 10 L6343 9 L6362 8 L6381 6 L6401 5 L6422 4 L6440 3 L6459 2 L6479 1 L6500 0" />
</svg>
