<svg xmlns="http://www.w3.org/2000/svg" version="1.1" viewBox="0 0 6500 1000">
	<path fill="none" stroke="gold" stroke-width="125" stroke-linecap="round" stroke-linejoin="round" d="M0 35600  L-252034 35600 L-249430 35443 L-247762 35286 L-229432 34973 L-229262 34659 L-222104 34346 L-222071 34346 L-208640 34189 L-205718 34346 L-192377 33876 L-188208 33249 L-187048 32465 L-186429 31681 L-184417 31211 L-180645 30898 L-180045 30584 L-179717 30271 L-179504 29957 L-178962 29644 L-177724 28390 L-176545 27136 L-173681 25882 L-173158 24628 L-168303 24315 L-165366 24001 L-165323 23688 L-165014 23374 L-164762 23061 L-162168 22747 L-157912 22747 L-157894 22747 L-156657 22747 L-154780 22747 L-152826 22434 L-151878 22120 L-151608 21807 L-151298 21650 L-151200 21493 L-150369 21493 L-148338 21650 L-148048 20239 L-145902 19612 L-145746 18672 L-142090 17731 L-141839 18202 L-141740 18045 L-141223 18515 L-139072 19299 L-138143 20083 L-136617 20866 L-135378 20866 L-133831 20710 L-130869 20396 L-129748 20083 L-129438 19769 L-128227 19612 L-125220 21336 L-125201 21180 L-124853 21023 L-124640 20866 L-124514 18672 L-124273 18358 L-124235 18045 L-124215 17731 L-124196 17418 L-124137 17105 L-124078 16791 L-124060 16478 L-123617 16164 L-122378 15851 L-120832 15537 L-117444 15224 L-111718 15067 L-111516 14910 L-109880 14753 L-108159 14597 L-106726 14440 L-106494 14283 L-105779 14126 L-99647 13970 L-99279 13656 L-99124 13343 L-98546 13029 L-98254 12716 L-97286 12402 L-96977 12089 L-96378 11775 L-94771 11775 L-94036 11775 L-93726 11932 L-92958 11932 L-90922 11619 L-90497 11305 L-89684 11148 L-82256 10835 L-81733 10521 L-81559 10208 L-80824 9894 L-79256 9581 L-78851 9424 L-76626 9111 L-75678 8954 L-75253 8797 L-74922 8797 L-73879 8641 L-71770 8327 L-71518 8014 L-70899 7700 L-70087 7543 L-67979 7230 L-67930 6916 L-66002 6603 L-65676 6289 L-65541 5976 L-65038 5819 L-63626 5506 L-63123 4879 L-62601 4409 L-59041 3782 L-58306 3155 L-55881 3155 L-54592 2841 L-54185 2684 L-51032 2684 L-50878 2684 L-50857 2841 L-50491 2841 L-49233 2998 L-48518 3155 L-47628 3155 L-47221 3155 L-46292 3155 L-45183 2998 L-44880 3625 L-38631 3938 L-37684 4252 L-36058 4565 L-35556 4722 L-31880 4879 L-31048 5036 L-27095 5192 L-25683 4722 L-23194 4409 L-22517 4095 L-22479 3938 L-21608 3938 L-18397 3782 L-15533 3625 L-14566 3468 L-13444 3155 L-13425 2841 L-11800 2528 L-11336 2057 L-11244 1901 L-4875 1744 L-3926 1587 L-1469 1431 L-597 1117 L638 960 L2640 804 L3037 490 L4473 177 L6500 20" />
</svg>
