<svg xmlns="http://www.w3.org/2000/svg" version="1.1" viewBox="0 0 6500 1000">
	<path fill="none" stroke="gold" stroke-width="125" stroke-linecap="round" stroke-linejoin="round" d="M0 1023  L-715246 1023 L-712642 1022 L-710974 1022 L-692644 1022 L-692474 1022 L-685316 1022 L-685283 1022 L-671852 1022 L-668930 1022 L-655590 1022 L-651421 1021 L-650260 1021 L-649641 1021 L-647629 1020 L-643858 1020 L-643258 1020 L-642929 1020 L-642716 1020 L-642174 1020 L-640936 1019 L-639757 1018 L-636893 1018 L-636371 1017 L-631515 1017 L-628578 1017 L-628535 1017 L-628227 1016 L-627975 1016 L-625380 1016 L-621124 1016 L-621106 1016 L-619870 1016 L-617992 1016 L-616039 1016 L-615091 1016 L-614820 1016 L-614510 1016 L-614412 1015 L-613582 1015 L-611551 1016 L-611260 1015 L-609114 1015 L-608959 1014 L-605302 1014 L-605051 1014 L-604953 1014 L-604435 1014 L-602284 1014 L-601355 1015 L-599829 1015 L-598590 1015 L-597043 1015 L-594082 1015 L-592960 1015 L-592651 1015 L-591439 1015 L-588433 1015 L-588413 1015 L-588066 1015 L-587853 1015 L-587726 1014 L-587485 1014 L-587447 1014 L-587427 1014 L-587408 1013 L-587349 1013 L-587290 1013 L-587272 1013 L-586829 1013 L-585590 1013 L-584044 1012 L-580656 1012 L-574930 1012 L-574729 1012 L-573093 1012 L-571371 1012 L-569939 1012 L-569706 1012 L-568991 1012 L-562859 1012 L-562491 1012 L-562337 1011 L-561758 1011 L-561466 1011 L-560498 1011 L-560189 1011 L-559590 1011 L-557984 1011 L-557248 1011 L-556939 1011 L-556170 1011 L-554134 1011 L-553709 1010 L-552896 1010 L-545468 1010 L-544945 1010 L-544771 1010 L-544036 1010 L-542469 1010 L-542063 1009 L-539838 1009 L-538890 1009 L-538465 1009 L-538135 1009 L-537091 1009 L-534983 1009 L-534731 1009 L-534112 1009 L-533299 1008 L-531191 1008 L-531143 1008 L-529214 1008 L-528889 1008 L-528754 1008 L-528250 1008 L-526838 1007 L-526335 1007 L-525813 1007 L-522253 1007 L-521518 1006 L-519093 1006 L-517804 1006 L-517397 1006 L-514245 1006 L-514090 1006 L-514070 1006 L-513703 1006 L-512445 1006 L-511730 1006 L-510840 1006 L-510433 1006 L-509504 1006 L-508396 1006 L-508092 1007 L-501844 1007 L-500896 1007 L-499270 1007 L-498768 1007 L-495093 1007 L-494260 1007 L-490307 1007 L-488895 1007 L-486406 1007 L-485730 1007 L-485691 1007 L-484820 1007 L-481609 1007 L-478746 1007 L-477778 1006 L-476656 1006 L-476637 1006 L-475012 1006 L-474548 1006 L-474456 1006 L-468087 1006 L-467138 1006 L-464681 1005 L-463809 1005 L-462573 1005 L-460572 1005 L-460174 1005 L-458738 1005 L-456712 1005 L-456499 1005 L-455318 1004 L-453810 1004 L-453790 1004 L-451778 1004 L-450908 1004 L-450037 1004 L-449452 1004 L-448915 1004 L-448258 1004 L-447019 1003 L-446459 1003 L-445278 1003 L-444040 1003 L-444002 1003 L-443615 1003 L-443073 1003 L-442299 1003 L-441177 1003 L-439088 1003 L-438754 1002 L-438469 1002 L-437540 1002 L-437057 1002 L-436322 1002 L-432690 1002 L-431563 1002 L-431408 1002 L-430382 1002 L-426667 1001 L-425450 1001 L-423631 1001 L-420846 1001 L-420284 1001 L-416396 1001 L-413920 1001 L-412585 1001 L-412081 1001 L-411598 1001 L-408909 1001 L-405137 1001 L-402680 1001 L-401500 1001 L-400861 1001 L-398502 1000 L-398424 1000 L-397377 1000 L-397283 1000 L-396780 1000 L-396335 1000 L-396277 1000 L-396064 1000 L-393104 1000 L-390396 1000 L-390242 1000 L-386721 1000 L-386198 1000 L-385231 999 L-384881 999 L-383838 999 L-382909 999 L-382484 999 L-380975 999 L-380008 999 L-379989 999 L-378093 993 L-377977 987 L-377929 981 L-377904 976 L-374900 975 L-372869 975 L-371109 975 L-370742 975 L-370296 975 L-369929 975 L-369515 975 L-367530 975 L-367317 975 L-367162 975 L-365557 975 L-364435 975 L-363487 974 L-362230 974 L-360585 974 L-359405 974 L-352816 974 L-352769 974 L-352364 974 L-351318 974 L-351183 974 L-349500 974 L-349480 973 L-348144 973 L-346908 973 L-346753 973 L-346379 973 L-346173 973 L-345864 973 L-345090 973 L-342768 973 L-342111 972 L-339983 972 L-338260 972 L-338067 972 L-335513 972 L-335237 972 L-335049 972 L-334216 972 L-333444 972 L-332746 972 L-327745 972 L-327369 971 L-323117 971 L-322630 979 L-322610 979 L-322531 979 L-322456 979 L-322436 971 L-321623 971 L-320870 971 L-319650 971 L-318219 971 L-318122 971 L-317948 971 L-317593 970 L-316284 970 L-314427 970 L-312725 970 L-312222 970 L-311956 970 L-311563 970 L-311429 970 L-310519 970 L-310143 970 L-309214 970 L-308875 970 L-308836 970 L-308798 969 L-306882 969 L-306709 969 L-305180 969 L-304852 969 L-304736 969 L-304329 969 L-303980 969 L-302337 969 L-301786 969 L-301543 969 L-301001 969 L-300170 968 L-299628 968 L-298094 968 L-298002 968 L-297965 968 L-297829 968 L-297442 968 L-296417 968 L-294540 968 L-294444 968 L-293844 970 L-293477 973 L-292992 976 L-292954 978 L-292180 978 L-292123 978 L-291948 978 L-291755 978 L-290149 978 L-290129 978 L-289974 978 L-289859 978 L-288679 978 L-288524 978 L-287857 978 L-285409 985 L-282894 991 L-280225 998 L-272525 1004 L-266858 1004 L-264643 1004 L-264620 1004 L-263646 1006 L-263626 1006 L-262762 1005 L-260022 1005 L-254224 1004 L-254070 1004 L-251284 1003 L-237676 1003 L-236930 1003 L-232519 1003 L-216173 1003 L-215941 1003 L-215404 1003 L-206944 1003 L-198239 1003 L-198026 1003 L-196054 1002 L-193268 1002 L-188780 1003 L-188625 1002 L-188456 1002 L-188316 1002 L-188025 1002 L-187987 1002 L-187716 1002 L-187544 1002 L-187134 1002 L-186013 1002 L-184833 1002 L-183556 1002 L-180692 1002 L-177772 1002 L-175780 1001 L-174233 1001 L-171195 1001 L-161870 1001 L-161346 1001 L-155622 1001 L-154115 1001 L-153301 1001 L-151617 1001 L-150896 1001 L-150728 1001 L-149683 1001 L-147615 1000 L-146253 1000 L-141810 1000 L-141713 1000 L-141674 1000 L-141655 1000 L-140823 1000 L-140745 1000 L-138172 1000 L-134923 1000 L-134768 1000 L-133820 1000 L-132079 999 L-131364 1000 L-127823 1000 L-121245 1001 L-119828 1001 L-119807 1001 L-118857 1001 L-115383 1001 L-114629 1001 L-114068 1001 L-113286 1001 L-105781 1001 L-104183 1001 L-102609 1001 L-99424 1000 L-95091 1000 L-86521 1000 L-77775 1000 L-74701 1000 L-71435 1000 L-70888 1000 L-63751 1000 L-58083 1000 L-44019 1000 L-38008 1000 L-33301 1000 L-29298 1000 L-24191 1000 L-14477 1000 L1093 999 L4176 999 L4478 964 L4498 921 L4516 871 L4536 816 L4556 791 L4575 770 L4594 750 L4621 731 L4642 712 L4670 692 L4705 671 L4719 652 L4732 636 L4751 623 L4769 613 L4789 603 L4807 593 L4827 583 L4847 573 L4868 563 L4885 553 L4903 543 L4924 533 L4944 523 L4962 513 L4981 502 L5001 491 L5021 480 L5039 470 L5058 460 L5079 450 L5104 440 L5119 431 L5136 422 L5156 413 L5175 404 L5194 395 L5213 385 L5233 375 L5254 367 L5271 358 L5290 350 L5311 342 L5331 335 L5349 329 L5368 323 L5388 317 L5406 311 L5426 306 L5445 301 L5465 296 L5484 292 L5504 288 L5522 284 L5550 279 L5571 273 L5598 267 L5632 260 L5647 255 L5660 250 L5678 245 L5697 242 L5717 238 L5736 233 L5755 228 L5775 224 L5796 219 L5813 216 L5832 211 L5852 207 L5872 202 L5891 197 L5909 191 L5929 185 L5949 178 L5968 172 L5987 166 L6008 159 L6032 151 L6047 143 L6064 136 L6084 129 L6103 122 L6123 114 L6141 107 L6162 99 L6182 92 L6200 85 L6219 78 L6239 71 L6259 64 L6277 58 L6296 52 L6316 46 L6335 41 L6355 36 L6373 31 L6393 26 L6413 20 L6432 15 L6451 10 L6480 5 L6500 0" />
</svg>
