<svg xmlns="http://www.w3.org/2000/svg" version="1.1" viewBox="0 0 6500 1000">
	<path fill="none" stroke="gold" stroke-width="125" stroke-linecap="round" stroke-linejoin="round" d="M0 1036  L-713979 1036 L-711375 1036 L-709707 1036 L-691378 1036 L-691208 1036 L-684050 1035 L-684017 1035 L-670586 1035 L-667664 1035 L-654323 1035 L-650154 1035 L-648994 1034 L-648375 1033 L-646363 1033 L-642591 1033 L-641991 1032 L-641663 1032 L-641449 1032 L-640908 1032 L-639670 1031 L-638491 1030 L-635626 1029 L-635104 1028 L-630249 1027 L-627311 1027 L-627269 1027 L-626960 1027 L-626708 1026 L-624113 1026 L-619858 1026 L-619840 1026 L-618603 1026 L-616726 1026 L-614772 1026 L-613824 1026 L-613553 1025 L-613244 1025 L-613145 1025 L-612315 1025 L-610284 1025 L-609994 1024 L-607847 1024 L-607692 1023 L-604036 1022 L-603785 1022 L-603686 1022 L-603169 1023 L-601018 1023 L-600089 1024 L-598563 1025 L-597323 1025 L-595777 1024 L-592815 1024 L-591693 1024 L-591384 1024 L-590173 1024 L-587166 1025 L-587147 1025 L-586799 1025 L-586586 1025 L-586460 1023 L-586218 1023 L-586180 1022 L-586161 1022 L-586141 1022 L-586082 1022 L-586024 1021 L-586006 1021 L-585563 1021 L-584323 1021 L-582778 1020 L-579390 1020 L-573664 1020 L-573462 1020 L-571826 1020 L-570104 1020 L-568672 1019 L-568440 1019 L-567725 1019 L-561592 1019 L-561225 1019 L-561070 1019 L-560492 1018 L-560199 1018 L-559232 1018 L-558922 1018 L-558323 1017 L-556717 1017 L-555982 1017 L-555672 1017 L-554904 1017 L-552868 1017 L-552442 1017 L-551630 1017 L-544201 1017 L-543678 1016 L-543505 1016 L-542770 1016 L-541202 1016 L-540796 1015 L-538571 1015 L-537623 1015 L-537198 1015 L-536868 1015 L-535824 1015 L-533716 1015 L-533464 1014 L-532845 1014 L-532032 1014 L-529925 1014 L-529876 1013 L-527948 1013 L-527622 1013 L-527487 1013 L-526984 1013 L-525571 1012 L-525068 1012 L-524547 1011 L-520987 1011 L-520252 1010 L-517827 1010 L-516538 1010 L-516131 1010 L-512978 1010 L-512823 1010 L-512803 1010 L-512437 1010 L-511178 1010 L-510463 1010 L-509573 1010 L-509166 1010 L-508238 1010 L-507129 1010 L-506826 1011 L-500577 1011 L-499630 1011 L-498004 1012 L-497502 1012 L-493826 1012 L-492994 1012 L-489041 1012 L-487629 1012 L-485140 1011 L-484463 1011 L-484424 1011 L-483554 1011 L-480342 1011 L-477479 1011 L-476511 1011 L-475390 1010 L-475371 1010 L-473746 1010 L-473282 1010 L-473190 1009 L-466820 1009 L-465872 1009 L-463415 1009 L-462543 1009 L-461307 1009 L-459305 1009 L-458908 1008 L-457471 1008 L-455445 1008 L-455232 1008 L-454052 1008 L-452544 1007 L-452523 1007 L-450511 1007 L-449642 1007 L-448771 1007 L-448186 1006 L-447649 1006 L-446991 1006 L-445753 1006 L-445192 1006 L-444011 1005 L-442774 1005 L-442735 1005 L-442348 1005 L-441807 1005 L-441033 1005 L-439911 1005 L-437821 1004 L-437488 1004 L-437202 1004 L-436274 1004 L-435790 1003 L-435055 1003 L-431424 1003 L-430296 1003 L-430141 1003 L-429115 1003 L-425401 1003 L-424183 1002 L-422365 1002 L-419579 1002 L-419018 1002 L-415130 1002 L-412653 1002 L-411318 1002 L-410815 1001 L-410332 1001 L-407643 1001 L-403871 1001 L-401414 1001 L-400234 1001 L-399595 1001 L-397235 1001 L-397158 1001 L-396110 1001 L-396017 1000 L-395514 1000 L-395068 1000 L-395011 1000 L-394797 1000 L-391837 1000 L-389130 1000 L-388975 1000 L-385454 1000 L-384931 1000 L-383964 999 L-383615 999 L-382571 999 L-381643 999 L-381217 999 L-379708 999 L-378741 998 L-378722 998 L-376826 989 L-376710 980 L-376662 970 L-376638 961 L-373634 961 L-371603 961 L-369842 961 L-369475 961 L-369030 960 L-368663 960 L-368249 960 L-366264 960 L-366051 960 L-365896 960 L-364290 960 L-363169 960 L-362220 959 L-360963 959 L-359318 959 L-358139 959 L-351549 959 L-351503 959 L-351097 958 L-350052 958 L-349916 958 L-348234 958 L-348214 958 L-346877 957 L-345641 957 L-345487 957 L-345113 957 L-344907 957 L-344597 957 L-343823 956 L-341502 956 L-340844 956 L-338716 956 L-336994 956 L-336800 956 L-334247 956 L-333971 955 L-333782 955 L-332950 955 L-332178 955 L-331479 955 L-326479 955 L-326103 954 L-321850 954 L-321363 967 L-321344 967 L-321265 967 L-321189 967 L-321170 954 L-320357 954 L-319603 953 L-318384 953 L-316952 953 L-316856 953 L-316681 953 L-316327 953 L-315018 953 L-313160 953 L-311458 952 L-310955 952 L-310690 952 L-310297 952 L-310163 952 L-309253 952 L-308876 952 L-307948 952 L-307609 951 L-307569 951 L-307532 951 L-305616 951 L-305442 951 L-303914 951 L-303585 951 L-303469 951 L-303062 951 L-302714 951 L-301070 950 L-300519 950 L-300276 950 L-299735 950 L-298904 950 L-298362 950 L-296827 949 L-296735 949 L-296698 949 L-296562 949 L-296175 949 L-295150 949 L-293274 949 L-293178 948 L-292577 952 L-292210 957 L-291726 961 L-291688 965 L-290914 966 L-290856 966 L-290682 965 L-290488 965 L-288883 965 L-288863 965 L-288708 965 L-288592 965 L-287413 965 L-287258 966 L-286591 966 L-284143 976 L-281628 987 L-278958 997 L-271259 1007 L-265591 1007 L-263377 1007 L-263353 1007 L-262379 1009 L-262360 1009 L-261496 1009 L-258756 1009 L-252957 1006 L-252804 1006 L-250018 1006 L-236409 1006 L-235664 1005 L-231253 1005 L-214907 1005 L-214674 1005 L-214137 1005 L-205678 1005 L-196972 1004 L-196760 1004 L-194787 1004 L-192001 1004 L-187514 1004 L-187359 1004 L-187190 1004 L-187050 1004 L-186759 1004 L-186720 1004 L-186449 1004 L-186278 1003 L-185868 1003 L-184747 1003 L-183567 1003 L-182290 1003 L-179426 1003 L-176506 1003 L-174514 1003 L-172966 1002 L-169928 1002 L-160604 1002 L-160080 1002 L-154356 1002 L-152849 1002 L-152034 1002 L-150351 1002 L-149630 1001 L-149461 1001 L-148416 1001 L-146349 1001 L-144987 1001 L-140543 1001 L-140446 1001 L-140408 1001 L-140389 1000 L-139556 1000 L-139478 1000 L-136906 1000 L-133657 1000 L-133502 1000 L-132554 1000 L-130812 999 L-130097 1000 L-126556 1001 L-119979 1001 L-118562 1002 L-118541 1002 L-117590 1002 L-114116 1002 L-113363 1002 L-112801 1002 L-112019 1002 L-104515 1001 L-102917 1001 L-101343 1001 L-98157 1001 L-93824 1001 L-85255 1001 L-76508 1001 L-73434 1001 L-70168 1000 L-69622 1000 L-62485 1000 L-56817 1000 L-42752 1000 L-36741 1000 L-32035 1000 L-28032 1000 L-22924 1000 L-13210 1000 L2360 999 L5442 999 L5744 943 L5764 873 L5783 794 L5803 706 L5822 665 L5842 631 L5860 600 L5888 569 L5909 539 L5937 508 L5972 473 L5985 443 L5999 418 L6017 397 L6036 381 L6056 365 L6074 349 L6093 333 L6113 317 L6134 300 L6151 284 L6170 268 L6190 253 L6210 237 L6229 220 L6247 203 L6267 185 L6287 168 L6306 151 L6325 135 L6346 120 L6371 104 L6385 90 L6402 75 L6422 60 L6441 46 L6461 31 L6479 15 L6500 0" />
</svg>
