<svg xmlns="http://www.w3.org/2000/svg" version="1.1" viewBox="0 0 6500 1000">
	<path fill="none" stroke="gold" stroke-width="125" stroke-linecap="round" stroke-linejoin="round" d="M0 53861  L-576666 53861 L-574062 53678 L-572394 53496 L-554065 53131 L-553895 52766 L-546737 52401 L-546704 52401 L-533273 52218 L-530351 52401 L-517010 51854 L-512841 51124 L-511681 50211 L-511062 49299 L-509050 48751 L-505278 48386 L-504678 48021 L-504350 47656 L-504137 47291 L-503595 46927 L-502357 45467 L-501178 44007 L-498313 42547 L-497791 41087 L-492936 40722 L-489998 40357 L-489956 39992 L-489647 39627 L-489395 39262 L-486800 38897 L-482545 38897 L-482527 38897 L-481290 38897 L-479413 38897 L-477459 38532 L-476511 38167 L-476240 37802 L-475931 37620 L-475832 37437 L-475002 37437 L-472971 37620 L-472681 35978 L-470534 35248 L-470379 34153 L-466723 33058 L-466472 33605 L-466373 33423 L-465856 33970 L-463705 34883 L-462776 35795 L-461250 36708 L-460010 36708 L-458464 36525 L-455502 36160 L-454380 35795 L-454071 35430 L-452860 35248 L-449853 37255 L-449834 37072 L-449486 36890 L-449273 36708 L-449147 34153 L-448905 33788 L-448867 33423 L-448848 33058 L-448828 32693 L-448770 32328 L-448711 31963 L-448693 31598 L-448250 31233 L-447010 30868 L-445465 30503 L-442077 30138 L-436351 29956 L-436149 29773 L-434513 29591 L-432791 29408 L-431359 29226 L-431127 29043 L-430412 28861 L-424279 28678 L-423912 28313 L-423757 27948 L-423179 27583 L-422886 27218 L-421919 26854 L-421609 26489 L-421010 26124 L-419404 26124 L-418669 26124 L-418359 26306 L-417591 26306 L-415555 25941 L-415130 25576 L-414317 25394 L-406888 25029 L-406365 24664 L-406192 24299 L-405457 23934 L-403889 23569 L-403483 23386 L-401258 23021 L-400310 22839 L-399886 22656 L-399555 22656 L-398511 22474 L-396403 22109 L-396151 21744 L-395532 21379 L-394719 21197 L-392612 20832 L-392563 20467 L-390635 20102 L-390309 19737 L-390174 19372 L-389671 19189 L-388258 18824 L-387755 18094 L-387234 17547 L-383674 16817 L-382939 16087 L-380514 16087 L-379225 15722 L-378818 15540 L-375665 15540 L-375510 15540 L-375490 15722 L-375124 15722 L-373865 15905 L-373150 16087 L-372260 16087 L-371853 16087 L-370925 16087 L-369816 15905 L-369513 16635 L-363264 17000 L-362317 17364 L-360691 17729 L-360189 17912 L-356513 18094 L-355681 18277 L-351728 18459 L-350316 17912 L-347827 17547 L-347150 17182 L-347111 17000 L-346241 17000 L-343029 16817 L-340166 16635 L-339198 16452 L-338077 16087 L-338058 15722 L-336433 15357 L-335969 14810 L-335877 14627 L-329508 14445 L-328559 14262 L-326102 14080 L-325230 13715 L-323994 13532 L-321992 13350 L-321595 12985 L-320158 12620 L-318132 12437 L-317919 12072 L-316739 11890 L-315231 11708 L-315210 11525 L-313198 11343 L-312329 10978 L-311458 10795 L-310873 10430 L-310336 10065 L-309678 9700 L-308440 9335 L-307879 9153 L-306698 8970 L-305461 8788 L-305422 8605 L-305035 8423 L-304494 8058 L-303720 7875 L-302598 7693 L-300508 7328 L-300175 6963 L-299889 6598 L-298961 6416 L-298477 6051 L-297742 5868 L-294111 5686 L-292983 5503 L-292828 5321 L-291802 4956 L-288088 4773 L-286870 4408 L-285052 4043 L-282266 3861 L-281705 3496 L-277817 3496 L-275340 3313 L-274005 3313 L-273502 3131 L-273019 2948 L-270330 2948 L-266558 2948 L-264101 2948 L-262921 2948 L-262282 2766 L-259922 2401 L-259845 2218 L-258797 2036 L-258704 1671 L-258201 1671 L-257755 1671 L-257698 1671 L-257484 1671 L-254524 1306 L-251817 1124 L-251662 941 L-248141 759 L-247618 394 L-246651 29 L-246302 -153 L-245258 -518 L-244330 -883 L-243904 -1065 L-242395 -1065 L-241428 -1248 L-241409 -1430 L-239513 -14751 L-239397 -28437 L-239349 -41941 L-239325 -55445 L-236321 -55627 L-234290 -55992 L-232529 -56175 L-232162 -56357 L-231717 -56722 L-231350 -56905 L-230936 -57270 L-228951 -57452 L-228738 -57452 L-228583 -57635 L-226977 -57635 L-225856 -57817 L-224907 -58000 L-223650 -58364 L-222005 -58547 L-220826 -58912 L-214236 -59094 L-214190 -59277 L-213784 -59459 L-212739 -59642 L-212604 -59824 L-210921 -60189 L-210901 -60372 L-209564 -60737 L-208328 -60919 L-208174 -61102 L-207800 -61467 L-207594 -61649 L-207284 -61832 L-206510 -62197 L-204189 -62379 L-203531 -62562 L-201403 -62744 L-199681 -62927 L-199487 -63291 L-196934 -63474 L-196658 -63839 L-196470 -64204 L-195637 -64386 L-194865 -64569 L-194167 -64751 L-189166 -64751 L-188790 -65116 L-184537 -65299 L-184050 -47233 L-184031 -47233 L-183952 -47416 L-183876 -47598 L-183857 -66211 L-183044 -66394 L-182290 -66759 L-181071 -66941 L-179639 -66941 L-179543 -67124 L-179368 -67124 L-179014 -67489 L-177705 -67671 L-175847 -67854 L-174145 -68218 L-173642 -68401 L-173377 -68583 L-172984 -68766 L-172850 -68948 L-171940 -69131 L-171563 -69313 L-170635 -69313 L-170296 -69496 L-170256 -69496 L-170219 -69678 L-168303 -69678 L-168129 -69861 L-166601 -69861 L-166272 -70043 L-166156 -70226 L-165749 -70591 L-165401 -70773 L-163757 -71138 L-163206 -71321 L-162963 -71503 L-162422 -71686 L-161591 -72051 L-161049 -72233 L-159514 -72598 L-159422 -72781 L-159385 -72963 L-159249 -73145 L-158862 -73328 L-157837 -73510 L-155961 -73693 L-155865 -73875 L-155264 -68036 L-154897 -61832 L-154413 -55445 L-154375 -49240 L-153601 -48875 L-153543 -49058 L-153369 -49423 L-153175 -49605 L-151570 -49970 L-151550 -50153 L-151395 -49788 L-151279 -49605 L-150100 -49423 L-149945 -48875 L-149278 -48875 L-146830 -33912 L-144315 -18583 L-141645 -3802 L-133946 10978 L-128278 10978 L-126064 10795 L-126040 10795 L-125066 14445 L-125047 14445 L-124183 14080 L-121443 13897 L-115644 10065 L-115491 9700 L-112705 9518 L-99096 9153 L-98351 8970 L-93940 8605 L-77594 8423 L-77362 8058 L-76824 7875 L-68365 7693 L-59659 7510 L-59447 7328 L-57475 7145 L-54688 7145 L-50201 7328 L-50046 7145 L-49877 7145 L-49737 6963 L-49446 6598 L-49407 6416 L-49136 6233 L-48965 6051 L-48555 5868 L-47434 5686 L-46254 5503 L-44977 5321 L-42113 5138 L-39193 4956 L-37201 4773 L-35653 4408 L-32615 4226 L-23291 4043 L-22767 3861 L-17043 3861 L-15536 3678 L-14721 3678 L-13038 3313 L-12317 3131 L-12148 2948 L-11103 2766 L-9036 2583 L-7674 2401 L-3230 2218 L-3133 2036 L-3095 1854 L-3076 1671 L-2243 1489 L-2165 1124 L406 941 L3655 759 L3810 576 L4758 394 L6500 29" />
</svg>
