<svg xmlns="http://www.w3.org/2000/svg" version="1.1" viewBox="0 0 6500 1000">
	<path fill="none" stroke="gold" stroke-width="125" stroke-linecap="round" stroke-linejoin="round" d="M0 3334  L-722316 3334 L-719712 3334 L-718044 3334 L-699715 3333 L-699544 3333 L-692387 3333 L-692354 3333 L-678923 3332 L-676001 3333 L-662660 3332 L-658491 3331 L-657331 3331 L-656712 3330 L-654700 3329 L-650928 3329 L-650328 3329 L-649999 3328 L-649786 3328 L-649245 3328 L-648007 3327 L-646828 3325 L-643963 3324 L-643441 3323 L-638585 3322 L-635648 3322 L-635605 3322 L-635297 3321 L-635045 3321 L-632450 3321 L-628195 3321 L-628177 3321 L-626940 3321 L-625062 3321 L-623109 3320 L-622161 3320 L-621890 3320 L-621580 3320 L-621482 3319 L-620652 3319 L-618621 3320 L-618331 3318 L-616184 3318 L-616029 3317 L-612372 3316 L-612121 3316 L-612023 3316 L-611506 3316 L-609355 3317 L-608426 3318 L-606900 3319 L-605660 3319 L-604114 3319 L-601152 3318 L-600030 3318 L-599721 3318 L-598510 3318 L-595503 3319 L-595483 3319 L-595136 3319 L-594923 3319 L-594797 3317 L-594555 3316 L-594517 3316 L-594498 3316 L-594478 3315 L-594419 3315 L-594361 3315 L-594343 3314 L-593900 3314 L-592660 3314 L-591114 3313 L-587727 3313 L-582000 3313 L-581799 3313 L-580163 3313 L-578441 3312 L-577009 3312 L-576777 3312 L-576061 3312 L-569929 3312 L-569561 3311 L-569407 3311 L-568829 3311 L-568536 3311 L-567569 3310 L-567259 3310 L-566660 3310 L-565054 3310 L-564319 3310 L-564009 3310 L-563241 3310 L-561205 3309 L-560779 3309 L-559967 3309 L-552538 3309 L-552015 3308 L-551842 3308 L-551107 3308 L-549539 3307 L-549133 3307 L-546908 3307 L-545960 3307 L-545535 3307 L-545205 3307 L-544161 3306 L-542053 3306 L-541801 3306 L-541182 3305 L-540369 3305 L-538261 3305 L-538213 3305 L-536285 3304 L-535959 3304 L-535824 3304 L-535321 3303 L-533908 3303 L-533405 3303 L-532883 3302 L-529324 3301 L-528589 3301 L-526164 3301 L-524875 3300 L-524468 3300 L-521315 3300 L-521160 3300 L-521140 3300 L-520773 3300 L-519515 3301 L-518800 3301 L-517910 3301 L-517503 3301 L-516575 3301 L-515466 3301 L-515163 3301 L-508914 3302 L-507967 3302 L-506340 3302 L-505839 3302 L-502163 3303 L-501331 3303 L-497378 3303 L-495966 3302 L-493476 3302 L-492800 3302 L-492761 3302 L-491890 3302 L-488679 3301 L-485816 3301 L-484848 3301 L-483727 3301 L-483708 3300 L-482083 3300 L-481619 3300 L-481527 3299 L-475157 3299 L-474209 3299 L-471752 3299 L-470879 3299 L-469643 3299 L-467642 3298 L-467245 3298 L-465808 3298 L-463782 3298 L-463569 3297 L-462389 3297 L-460880 3297 L-460860 3297 L-458848 3297 L-457979 3296 L-457108 3296 L-456523 3296 L-455986 3296 L-455328 3295 L-454090 3295 L-453529 3295 L-452348 3295 L-451111 3294 L-451072 3294 L-450685 3294 L-450143 3294 L-449370 3294 L-448247 3293 L-446158 3293 L-445825 3293 L-445539 3292 L-444611 3292 L-444127 3292 L-443392 3292 L-439761 3292 L-438633 3292 L-438478 3291 L-437452 3291 L-433738 3291 L-432520 3291 L-430702 3290 L-427916 3290 L-427355 3290 L-423467 3290 L-420990 3290 L-419655 3290 L-419152 3289 L-418669 3289 L-415979 3289 L-412208 3289 L-409751 3289 L-408571 3289 L-407932 3289 L-405572 3289 L-405495 3289 L-404447 3288 L-404354 3288 L-403851 3288 L-403405 3288 L-403348 3288 L-403134 3288 L-400174 3288 L-397467 3288 L-397312 3288 L-393791 3287 L-393268 3287 L-392301 3287 L-391952 3287 L-390908 3286 L-389980 3286 L-389554 3286 L-388045 3286 L-387078 3286 L-387059 3285 L-385163 3274 L-385047 3262 L-384999 3250 L-384975 3238 L-381971 3238 L-379940 3238 L-378179 3237 L-377812 3237 L-377366 3237 L-376999 3237 L-376586 3237 L-374601 3236 L-374387 3236 L-374232 3236 L-372627 3236 L-371505 3236 L-370557 3236 L-369300 3236 L-367655 3235 L-366476 3235 L-359886 3235 L-359840 3235 L-359434 3235 L-358389 3234 L-358253 3234 L-356571 3234 L-356551 3234 L-355214 3233 L-353978 3233 L-353824 3233 L-353450 3233 L-353243 3233 L-352934 3233 L-352160 3232 L-349839 3232 L-349181 3232 L-347053 3232 L-345331 3232 L-345137 3231 L-342584 3231 L-342307 3231 L-342119 3230 L-341287 3230 L-340514 3230 L-339816 3230 L-334816 3230 L-334440 3230 L-330187 3229 L-329700 3245 L-329681 3245 L-329602 3245 L-329526 3245 L-329506 3229 L-328694 3229 L-327940 3228 L-326721 3228 L-325289 3228 L-325193 3228 L-325018 3228 L-324664 3228 L-323355 3227 L-321497 3227 L-319795 3227 L-319292 3227 L-319027 3227 L-318634 3226 L-318499 3226 L-317590 3226 L-317213 3226 L-316285 3226 L-315946 3226 L-315906 3226 L-315868 3226 L-313953 3226 L-313779 3225 L-312250 3225 L-311922 3225 L-311806 3225 L-311399 3225 L-311051 3225 L-309407 3224 L-308856 3224 L-308613 3224 L-308072 3224 L-307240 3224 L-306699 3223 L-305164 3223 L-305072 3223 L-305035 3223 L-304899 3223 L-304512 3222 L-303487 3222 L-301611 3222 L-301514 3222 L-300914 3227 L-300547 3233 L-300062 3238 L-300024 3244 L-299251 3244 L-299193 3244 L-299018 3243 L-298825 3243 L-297220 3243 L-297200 3243 L-297044 3243 L-296929 3243 L-295749 3243 L-295595 3244 L-294928 3244 L-292480 3257 L-289965 3270 L-287295 3283 L-279596 3296 L-273928 3296 L-271713 3296 L-271690 3296 L-270716 3299 L-270696 3299 L-269833 3299 L-267092 3299 L-261294 3296 L-261140 3295 L-258355 3295 L-244746 3295 L-244000 3295 L-239590 3294 L-223243 3294 L-223011 3294 L-222474 3294 L-214015 3293 L-205309 3293 L-205097 3293 L-203124 3293 L-200338 3293 L-195851 3293 L-195696 3293 L-195527 3293 L-195386 3293 L-195096 3292 L-195057 3292 L-194786 3292 L-194615 3292 L-194204 3292 L-193084 3292 L-191904 3292 L-190627 3291 L-187763 3291 L-184843 3291 L-182851 3291 L-181303 3291 L-178265 3290 L-168941 3290 L-168417 3290 L-162693 3290 L-161186 3290 L-160371 3290 L-158688 3290 L-157967 3289 L-157798 3289 L-156753 3289 L-154686 3289 L-153324 3289 L-148880 3289 L-148783 3288 L-148745 3288 L-148726 3288 L-147893 3288 L-147815 3288 L-145243 3288 L-141994 3287 L-141839 3287 L-140890 3287 L-139149 3287 L-138434 3288 L-134893 3288 L-128316 3289 L-126899 3291 L-126878 3291 L-125927 3290 L-122453 3290 L-121700 3290 L-121138 3290 L-120356 3290 L-112852 3289 L-111253 3289 L-109679 3289 L-106494 3289 L-102161 3289 L-93591 3289 L-84845 3289 L-81771 3288 L-78505 3288 L-77959 3288 L-70821 3288 L-65154 3288 L-51089 3288 L-45078 3288 L-40372 3288 L-36368 3288 L-31261 3287 L-21547 3287 L-5976 3287 L-2894 3287 L-2591 3215 L-2572 3126 L-2553 3025 L-2533 2913 L-2514 2862 L-2494 2818 L-2476 2779 L-2448 2739 L-2427 2701 L-2399 2661 L-2364 2616 L-2350 2579 L-2337 2546 L-2319 2520 L-2300 2500 L-2280 2480 L-2262 2459 L-2242 2439 L-2223 2418 L-2202 2397 L-2185 2376 L-2166 2356 L-2145 2336 L-2126 2316 L-2107 2295 L-2088 2273 L-2069 2250 L-2048 2228 L-2030 2207 L-2011 2187 L-1990 2167 L-1965 2147 L-1951 2129 L-1933 2111 L-1914 2092 L-1894 2074 L-1875 2054 L-1856 2034 L-1836 2015 L-1816 1997 L-1798 1979 L-1779 1963 L-1758 1947 L-1738 1933 L-1721 1920 L-1702 1908 L-1682 1895 L-1663 1884 L-1643 1873 L-1624 1863 L-1604 1854 L-1585 1845 L-1566 1837 L-1547 1828 L-1520 1817 L-1499 1806 L-1471 1794 L-1437 1780 L-1423 1769 L-1410 1759 L-1391 1750 L-1372 1742 L-1352 1734 L-1334 1724 L-1314 1715 L-1294 1705 L-1274 1697 L-1256 1689 L-1237 1680 L-1217 1671 L-1197 1662 L-1179 1650 L-1160 1638 L-1140 1626 L-1120 1613 L-1102 1600 L-1083 1587 L-1062 1573 L-1037 1557 L-1023 1542 L-1005 1527 L-986 1513 L-966 1498 L-947 1483 L-928 1467 L-908 1451 L-888 1436 L-869 1422 L-851 1407 L-830 1394 L-810 1380 L-792 1367 L-773 1356 L-753 1344 L-734 1334 L-715 1323 L-696 1312 L-676 1302 L-657 1291 L-637 1280 L-618 1270 L-590 1259 L-570 1249 L-542 1239 L-505 1227 L-490 1216 L-477 1205 L-460 1195 L-443 1188 L-423 1181 L-405 1175 L-386 1169 L-366 1163 L-345 1157 L-328 1150 L-309 1143 L-288 1135 L-269 1128 L-250 1120 L-232 1111 L-212 1102 L-192 1093 L-173 1083 L-154 1074 L-133 1065 L-109 1055 L-94 1046 L-77 1036 L-57 1027 L-38 1017 L-18 1008 L0 997 L20 987 L40 977 L58 968 L77 959 L97 950 L118 942 L135 934 L154 926 L174 918 L193 910 L213 902 L232 894 L252 887 L271 879 L290 872 L309 864 L337 857 L358 849 L385 841 L422 829 L436 818 L449 807 L466 798 L484 792 L504 786 L523 779 L543 771 L562 763 L583 754 L602 745 L619 735 L639 724 L660 713 L678 702 L697 690 L716 678 L737 666 L755 656 L773 647 L795 640 L820 634 L834 628 L852 623 L871 617 L890 610 L910 604 L928 598 L948 592 L969 587 L987 582 L1006 577 L1026 570 L1047 562 L1064 554 L1083 548 L1103 543 L1122 540 L1141 536 L1160 532 L1180 528 L1200 524 L1219 519 L1238 515 L1265 511 L1286 507 L1314 503 L1349 498 L1362 493 L1376 489 L1394 486 L1413 483 L1433 480 L1451 476 L1471 473 L1491 470 L1512 467 L1529 464 L1547 461 L1568 457 L1588 454 L1606 450 L1625 446 L1645 444 L1665 441 L1683 438 L1702 434 L1723 431 L1748 429 L1763 426 L1780 423 L1799 420 L1819 417 L1838 414 L1857 411 L1877 407 L1898 404 L1915 400 L1934 398 L1955 395 L1975 392 L1993 389 L2012 386 L2032 383 L2050 381 L2070 378 L2089 376 L2109 374 L2128 372 L2147 370 L2166 374 L2195 377 L2215 380 L2243 383 L2280 380 L2295 378 L2308 376 L2325 374 L2342 372 L2362 371 L2380 369 L2400 367 L2419 365 L2441 364 L2457 362 L2476 360 L2496 359 L2517 357 L2535 355 L2553 353 L2573 351 L2593 349 L2612 347 L2631 346 L2652 344 L2677 343 L2691 341 L2708 339 L2728 337 L2747 335 L2767 334 L2786 332 L2805 329 L2826 327 L2844 324 L2863 321 L2883 319 L2904 317 L2921 315 L2940 312 L2960 310 L2979 308 L2999 306 L3017 303 L3037 301 L3057 299 L3076 297 L3095 295 L3122 293 L3143 291 L3171 289 L3206 286 L3219 284 L3233 282 L3252 280 L3270 278 L3290 276 L3308 274 L3328 273 L3348 270 L3369 269 L3386 267 L3404 265 L3425 262 L3445 260 L3463 257 L3482 254 L3502 251 L3522 248 L3540 245 L3559 243 L3580 240 L3605 237 L3620 234 L3637 231 L3656 229 L3676 226 L3695 223 L3714 220 L3734 217 L3755 215 L3772 212 L3792 210 L3812 207 L3833 205 L3850 203 L3869 201 L3889 199 L3908 197 L3927 196 L3946 194 L3966 193 L3986 191 L4005 190 L4024 189 L4051 187 L4072 185 L4100 184 L4135 181 L4149 178 L4162 175 L4181 173 L4199 171 L4219 169 L4237 167 L4257 166 L4276 164 L4297 162 L4314 160 L4333 158 L4354 156 L4374 154 L4392 151 L4411 149 L4430 147 L4451 144 L4469 142 L4488 140 L4509 139 L4534 137 L4549 135 L4566 133 L4585 131 L4605 129 L4624 127 L4643 124 L4663 121 L4684 118 L4701 115 L4720 113 L4741 110 L4761 108 L4778 107 L4797 105 L4817 104 L4836 103 L4856 101 L4875 100 L4895 98 L4914 97 L4933 96 L4952 94 L4979 93 L5000 92 L5028 90 L5062 89 L5076 88 L5090 86 L5108 85 L5127 84 L5147 83 L5165 82 L5185 81 L5205 80 L5225 79 L5243 78 L5261 77 L5282 76 L5302 74 L5320 73 L5339 72 L5359 71 L5379 70 L5397 69 L5416 69 L5437 68 L5462 67 L5477 66 L5494 64 L5513 63 L5533 62 L5552 61 L5571 60 L5591 59 L5612 57 L5629 55 L5648 52 L5669 50 L5689 48 L5707 47 L5726 45 L5746 44 L5764 42 L5784 41 L5803 39 L5823 38 L5842 37 L5862 36 L5881 35 L5909 34 L5957 33 L5994 31 L6009 30 L6021 29 L6038 28 L6056 28 L6075 27 L6094 26 L6113 25 L6133 24 L6154 24 L6171 23 L6190 22 L6210 22 L6230 21 L6249 20 L6267 19 L6288 18 L6307 17 L6326 16 L6345 14 L6366 13 L6390 11 L6405 9 L6422 7 L6442 6 L6461 4 L6481 2 L6500 1" />
</svg>
