<svg xmlns="http://www.w3.org/2000/svg" version="1.1" viewBox="0 0 6500 1000">
	<path fill="none" stroke="gold" stroke-width="125" stroke-linecap="round" stroke-linejoin="round" d="M0 3307  L-728274 3307 L-725670 3307 L-724002 3307 L-705672 3306 L-705502 3306 L-698344 3306 L-698311 3306 L-684880 3306 L-681958 3306 L-668617 3305 L-664448 3305 L-663288 3304 L-662669 3303 L-660657 3303 L-656886 3303 L-656286 3302 L-655957 3302 L-655744 3302 L-655202 3301 L-653964 3300 L-652785 3299 L-649921 3298 L-649399 3297 L-644543 3297 L-641606 3296 L-641563 3296 L-641254 3296 L-641003 3295 L-638408 3295 L-634152 3295 L-634134 3295 L-632897 3295 L-631020 3295 L-629067 3295 L-628119 3295 L-627848 3294 L-627538 3294 L-627440 3294 L-626609 3294 L-624579 3294 L-624288 3293 L-622142 3292 L-621986 3291 L-618330 3291 L-618079 3291 L-617980 3291 L-617463 3291 L-615312 3292 L-614383 3293 L-612857 3293 L-611618 3293 L-610071 3293 L-607109 3293 L-605988 3293 L-605678 3292 L-604467 3292 L-601461 3294 L-601441 3294 L-601094 3294 L-600880 3293 L-600754 3291 L-600513 3291 L-600475 3291 L-600455 3291 L-600436 3290 L-600377 3290 L-600318 3290 L-600300 3289 L-599857 3289 L-598618 3289 L-597072 3289 L-593684 3288 L-587958 3288 L-587756 3288 L-586121 3288 L-584399 3288 L-582967 3288 L-582734 3287 L-582019 3287 L-575887 3287 L-575519 3287 L-575365 3287 L-574786 3286 L-574494 3286 L-573526 3286 L-573217 3285 L-572618 3285 L-571011 3285 L-570276 3285 L-569967 3285 L-569198 3285 L-567162 3285 L-566737 3285 L-565924 3285 L-558496 3284 L-557973 3284 L-557799 3284 L-557064 3283 L-555496 3283 L-555091 3283 L-552866 3283 L-551918 3283 L-551493 3282 L-551163 3282 L-550119 3282 L-548011 3282 L-547758 3282 L-547140 3281 L-546327 3281 L-544219 3281 L-544171 3281 L-542242 3280 L-541917 3280 L-541782 3280 L-541278 3280 L-539866 3279 L-539363 3279 L-538841 3278 L-535281 3278 L-534546 3277 L-532121 3277 L-530832 3277 L-530425 3277 L-527273 3277 L-527118 3277 L-527097 3277 L-526731 3277 L-525473 3277 L-524758 3277 L-523868 3277 L-523461 3277 L-522532 3277 L-521424 3277 L-521120 3278 L-514872 3278 L-513924 3278 L-512298 3279 L-511796 3279 L-508121 3279 L-507288 3279 L-503335 3279 L-501923 3279 L-499434 3278 L-498757 3278 L-498719 3278 L-497848 3278 L-494637 3278 L-491774 3278 L-490806 3277 L-489684 3277 L-489665 3277 L-488040 3277 L-487576 3276 L-487484 3276 L-481115 3276 L-480166 3276 L-477709 3276 L-476837 3275 L-475601 3275 L-473600 3275 L-473202 3275 L-471766 3274 L-469740 3274 L-469526 3274 L-468346 3274 L-466838 3274 L-466818 3274 L-464805 3273 L-463936 3273 L-463065 3273 L-462480 3273 L-461943 3272 L-461285 3272 L-460047 3272 L-459487 3272 L-458306 3272 L-457068 3271 L-457029 3271 L-456643 3271 L-456101 3271 L-455327 3271 L-454205 3271 L-452116 3270 L-451782 3270 L-451497 3270 L-450568 3270 L-450085 3269 L-449349 3269 L-445718 3269 L-444591 3269 L-444436 3269 L-443410 3268 L-439695 3268 L-438478 3268 L-436659 3268 L-433874 3268 L-433312 3267 L-429424 3267 L-426948 3267 L-425613 3267 L-425109 3267 L-424626 3267 L-421937 3267 L-418165 3267 L-415708 3267 L-414528 3267 L-413889 3267 L-411530 3266 L-411452 3266 L-410405 3266 L-410311 3266 L-409808 3266 L-409363 3266 L-409305 3266 L-409091 3266 L-406132 3266 L-403424 3265 L-403269 3265 L-399749 3265 L-399226 3265 L-398258 3265 L-397909 3264 L-396866 3264 L-395937 3264 L-395511 3264 L-394002 3264 L-393035 3264 L-393017 3263 L-391121 3253 L-391005 3242 L-390957 3232 L-390932 3221 L-387928 3221 L-385897 3221 L-384137 3220 L-383769 3220 L-383324 3220 L-382957 3220 L-382543 3220 L-380558 3219 L-380345 3219 L-380190 3219 L-378585 3219 L-377463 3219 L-376515 3219 L-375257 3219 L-373613 3219 L-372433 3218 L-365844 3218 L-365797 3218 L-365391 3218 L-364346 3218 L-364211 3218 L-362528 3217 L-362508 3217 L-361172 3217 L-359935 3217 L-359781 3217 L-359407 3216 L-359201 3216 L-358892 3216 L-358118 3216 L-355796 3216 L-355138 3215 L-353011 3215 L-351288 3215 L-351095 3215 L-348541 3215 L-348265 3214 L-348077 3214 L-347244 3214 L-346472 3214 L-345774 3214 L-340773 3214 L-340397 3213 L-336144 3213 L-335657 3227 L-335638 3227 L-335559 3227 L-335484 3227 L-335464 3213 L-334651 3212 L-333897 3212 L-332678 3212 L-331246 3212 L-331150 3212 L-330976 3212 L-330621 3212 L-329312 3211 L-327455 3211 L-325752 3211 L-325250 3211 L-324984 3211 L-324591 3211 L-324457 3210 L-323547 3210 L-323171 3210 L-322242 3210 L-321903 3210 L-321864 3210 L-321826 3210 L-319910 3210 L-319737 3210 L-318208 3210 L-317880 3210 L-317764 3209 L-317357 3209 L-317008 3209 L-315365 3209 L-314814 3209 L-314571 3208 L-314029 3208 L-313198 3208 L-312656 3208 L-311122 3208 L-311030 3207 L-310993 3207 L-310857 3207 L-310469 3207 L-309445 3207 L-307568 3207 L-307472 3207 L-306872 3211 L-306505 3216 L-306020 3221 L-305982 3226 L-305208 3226 L-305151 3226 L-304976 3226 L-304782 3226 L-303177 3225 L-303157 3225 L-303002 3225 L-302887 3226 L-301707 3226 L-301552 3226 L-300885 3226 L-298437 3238 L-295922 3250 L-293252 3262 L-285553 3273 L-279885 3273 L-277671 3273 L-277648 3273 L-276674 3276 L-276654 3276 L-275790 3276 L-273050 3275 L-267251 3272 L-267098 3272 L-264312 3272 L-250704 3272 L-249958 3272 L-245547 3271 L-229201 3271 L-228969 3271 L-228432 3271 L-219972 3271 L-211267 3270 L-211054 3270 L-209082 3270 L-206296 3270 L-201808 3270 L-201653 3270 L-201484 3270 L-201344 3270 L-201053 3270 L-201015 3270 L-200744 3269 L-200572 3269 L-200162 3269 L-199041 3269 L-197861 3269 L-196584 3269 L-193720 3269 L-190800 3268 L-188808 3268 L-187260 3268 L-184223 3268 L-174898 3268 L-174374 3268 L-168650 3268 L-167143 3267 L-166329 3267 L-164645 3267 L-163924 3267 L-163756 3267 L-162710 3267 L-160643 3267 L-159281 3266 L-154838 3266 L-154741 3266 L-154702 3266 L-154683 3266 L-153851 3266 L-153773 3265 L-151200 3265 L-147951 3265 L-147796 3265 L-146848 3265 L-145107 3265 L-144391 3265 L-140851 3266 L-134273 3267 L-132856 3268 L-132835 3268 L-131885 3268 L-128410 3268 L-127657 3267 L-127095 3267 L-126313 3267 L-118809 3267 L-117211 3267 L-115637 3267 L-112452 3267 L-108119 3266 L-99549 3266 L-90803 3266 L-87729 3266 L-84463 3266 L-83916 3266 L-76779 3266 L-71111 3266 L-57047 3266 L-51035 3266 L-46329 3266 L-42326 3265 L-37218 3265 L-27504 3265 L-11934 3265 L-8851 3264 L-8549 3200 L-8529 3121 L-8510 3030 L-8491 2929 L-8471 2883 L-8452 2845 L-8433 2809 L-8406 2774 L-8385 2740 L-8357 2704 L-8321 2664 L-8308 2630 L-8295 2601 L-8276 2577 L-8258 2559 L-8238 2541 L-8220 2523 L-8200 2504 L-8180 2486 L-8159 2467 L-8142 2448 L-8124 2430 L-8103 2413 L-8083 2395 L-8065 2376 L-8046 2356 L-8026 2336 L-8006 2316 L-7988 2297 L-7969 2278 L-7948 2261 L-7923 2243 L-7908 2227 L-7891 2210 L-7871 2193 L-7852 2177 L-7833 2160 L-7814 2142 L-7794 2125 L-7773 2108 L-7755 2093 L-7737 2078 L-7716 2064 L-7695 2051 L-7678 2040 L-7659 2028 L-7639 2017 L-7620 2007 L-7601 1997 L-7582 1988 L-7562 1980 L-7542 1972 L-7523 1965 L-7505 1957 L-7477 1947 L-7456 1937 L-7428 1926 L-7394 1914 L-7380 1904 L-7367 1895 L-7348 1887 L-7329 1880 L-7310 1872 L-7291 1864 L-7272 1856 L-7252 1847 L-7231 1839 L-7214 1832 L-7195 1825 L-7175 1817 L-7155 1808 L-7136 1798 L-7118 1787 L-7098 1776 L-7078 1764 L-7059 1753 L-7040 1741 L-7019 1728 L-6995 1714 L-6980 1700 L-6963 1687 L-6943 1674 L-6924 1661 L-6904 1647 L-6886 1633 L-6865 1619 L-6845 1606 L-6827 1593 L-6808 1580 L-6788 1568 L-6767 1556 L-6750 1544 L-6731 1534 L-6711 1523 L-6692 1514 L-6672 1504 L-6653 1494 L-6634 1485 L-6614 1475 L-6595 1466 L-6576 1457 L-6547 1447 L-6527 1438 L-6500 1429 L-6462 1418 L-6447 1408 L-6435 1399 L-6418 1390 L-6401 1383 L-6381 1377 L-6362 1371 L-6343 1366 L-6323 1361 L-6303 1355 L-6285 1349 L-6266 1343 L-6246 1336 L-6226 1329 L-6208 1322 L-6189 1315 L-6169 1306 L-6149 1298 L-6130 1289 L-6112 1281 L-6091 1273 L-6066 1264 L-6052 1256 L-6034 1247 L-6014 1239 L-5995 1230 L-5976 1222 L-5957 1212 L-5937 1203 L-5917 1194 L-5898 1186 L-5879 1178 L-5859 1170 L-5839 1162 L-5821 1156 L-5802 1148 L-5782 1141 L-5764 1134 L-5744 1127 L-5725 1120 L-5705 1113 L-5686 1107 L-5666 1100 L-5647 1093 L-5619 1086 L-5599 1080 L-5571 1072 L-5535 1061 L-5521 1051 L-5508 1042 L-5490 1034 L-5472 1029 L-5452 1023 L-5434 1017 L-5414 1010 L-5394 1002 L-5373 994 L-5355 986 L-5338 977 L-5317 968 L-5297 958 L-5279 948 L-5260 937 L-5240 926 L-5220 916 L-5202 906 L-5183 898 L-5162 892 L-5137 887 L-5122 882 L-5105 876 L-5086 871 L-5066 865 L-5047 860 L-5028 854 L-5008 849 L-4987 845 L-4970 840 L-4951 835 L-4930 829 L-4909 822 L-4893 815 L-4874 810 L-4853 805 L-4835 802 L-4815 799 L-4796 796 L-4776 792 L-4757 788 L-4738 784 L-4719 780 L-4691 777 L-4670 773 L-4643 769 L-4608 764 L-4594 760 L-4581 757 L-4562 754 L-4544 751 L-4524 748 L-4505 745 L-4486 742 L-4466 740 L-4445 737 L-4428 735 L-4409 732 L-4389 728 L-4369 725 L-4351 722 L-4332 719 L-4312 716 L-4292 713 L-4273 711 L-4254 708 L-4233 705 L-4208 702 L-4194 700 L-4177 698 L-4157 695 L-4138 692 L-4118 689 L-4099 686 L-4080 683 L-4059 680 L-4041 677 L-4022 675 L-4002 672 L-3981 670 L-3964 667 L-3945 664 L-3925 662 L-3906 660 L-3886 657 L-3868 655 L-3848 654 L-3828 652 L-3809 650 L-3790 653 L-3761 656 L-3742 659 L-3714 662 L-3676 659 L-3661 657 L-3649 655 L-3631 653 L-3615 652 L-3595 651 L-3577 649 L-3557 647 L-3537 646 L-3516 644 L-3499 643 L-3481 641 L-3460 640 L-3440 638 L-3422 636 L-3403 635 L-3383 633 L-3363 631 L-3345 630 L-3326 628 L-3305 627 L-3280 626 L-3265 624 L-3248 622 L-3229 621 L-3209 619 L-3190 617 L-3171 615 L-3151 613 L-3130 611 L-3113 609 L-3094 606 L-3073 604 L-3053 602 L-3035 600 L-3016 598 L-2996 596 L-2978 595 L-2958 592 L-2939 590 L-2919 588 L-2900 586 L-2880 585 L-2862 583 L-2834 581 L-2813 579 L-2785 577 L-2751 575 L-2737 573 L-2724 571 L-2705 569 L-2686 568 L-2666 566 L-2648 564 L-2628 563 L-2609 561 L-2588 559 L-2571 557 L-2552 556 L-2531 554 L-2511 551 L-2493 549 L-2475 546 L-2455 543 L-2434 541 L-2416 538 L-2397 536 L-2376 533 L-2351 531 L-2336 528 L-2319 526 L-2300 523 L-2280 521 L-2261 518 L-2242 515 L-2222 513 L-2201 511 L-2184 508 L-2165 506 L-2144 504 L-2124 502 L-2107 500 L-2088 498 L-2068 497 L-2049 495 L-2029 494 L-2010 492 L-1991 491 L-1971 490 L-1952 488 L-1933 487 L-1905 486 L-1885 484 L-1857 483 L-1821 480 L-1808 478 L-1795 475 L-1776 473 L-1758 471 L-1738 470 L-1720 468 L-1700 467 L-1680 465 L-1659 464 L-1642 462 L-1624 460 L-1603 458 L-1583 456 L-1565 454 L-1546 452 L-1526 450 L-1506 448 L-1488 446 L-1469 444 L-1447 443 L-1423 441 L-1408 440 L-1391 438 L-1371 436 L-1352 434 L-1333 432 L-1314 430 L-1294 427 L-1273 424 L-1256 422 L-1236 419 L-1216 417 L-1195 415 L-1178 414 L-1159 413 L-1139 411 L-1120 410 L-1101 409 L-1082 408 L-1062 406 L-1042 405 L-1023 404 L-1005 403 L-977 401 L-956 400 L-929 399 L-894 398 L-880 397 L-867 396 L-848 395 L-829 394 L-810 393 L-791 392 L-772 391 L-752 390 L-731 389 L-714 388 L-695 387 L-675 386 L-655 385 L-636 384 L-618 383 L-598 382 L-578 381 L-559 381 L-540 380 L-519 379 L-495 378 L-480 377 L-463 376 L-443 375 L-424 374 L-404 373 L-385 372 L-366 371 L-345 369 L-327 367 L-308 365 L-288 363 L-267 361 L-250 360 L-231 359 L-211 357 L-192 356 L-172 355 L-153 353 L-133 352 L-114 351 L-95 350 L-76 349 L-47 348 L0 348 L36 346 L51 345 L64 344 L81 343 L98 343 L118 343 L137 342 L156 341 L176 340 L196 339 L214 339 L233 338 L253 338 L272 337 L291 336 L310 335 L330 334 L350 333 L368 332 L387 331 L408 330 L433 328 L448 326 L465 325 L485 323 L504 322 L523 321 L542 319 L562 318 L583 316 L601 315 L620 314 L640 312 L660 311 L678 310 L697 309 L717 308 L736 308 L755 307 L774 305 L794 304 L813 303 L833 302 L852 301 L880 300 L900 299 L928 297 L965 295 L979 293 L992 291 L1010 289 L1027 288 L1047 287 L1065 286 L1085 285 L1105 285 L1126 284 L1143 283 L1161 281 L1182 280 L1202 278 L1220 277 L1239 274 L1259 272 L1280 270 L1297 269 L1316 267 L1337 266 L1362 264 L1377 263 L1395 261 L1413 260 L1434 259 L1452 258 L1471 256 L1491 254 L1512 253 L1529 251 L1549 250 L1569 249 L1590 248 L1607 246 L1626 245 L1645 244 L1664 243 L1684 242 L1703 241 L1723 240 L1743 239 L1762 238 L1780 237 L1808 997 L1829 996 L1856 995 L1892 993 L1906 230 L1920 229 L1938 227 L1956 227 L1975 226 L1994 225 L2013 224 L2033 223 L2054 221 L2071 220 L2090 218 L2111 217 L2131 215 L2149 213 L2168 211 L2187 209 L2208 207 L2226 206 L2245 205 L2266 204 L2291 202 L2306 200 L2336 198 L2375 196 L2398 193 L2428 191 L2444 188 L2458 187 L2477 185 L2497 184 L2518 183 L2535 182 L2554 181 L2574 180 L2593 179 L2613 179 L2631 178 L2651 177 L2671 176 L2690 175 L2709 174 L2737 173 L2757 172 L2785 171 L2820 170 L2834 169 L2866 168 L2884 167 L2904 166 L2922 165 L2942 165 L2962 164 L2983 163 L3000 162 L3018 160 L3039 158 L3059 154 L3077 151 L3096 147 L3116 144 L3136 142 L3154 140 L3173 138 L3195 137 L3220 136 L3234 134 L3252 133 L3270 131 L3291 130 L3309 129 L3329 127 L3348 126 L3369 124 L3386 122 L3406 121 L3426 120 L3447 119 L3464 118 L3483 117 L3503 116 L3522 115 L3541 114 L3560 113 L3580 112 L3600 111 L3619 110 L3637 109 L3665 108 L3686 107 L3756 105 L3784 103 L3798 100 L3813 98 L3833 97 L3851 96 L3870 94 L3890 93 L3911 92 L3928 91 L3947 90 L3968 89 L3988 89 L4006 88 L4025 86 L4045 85 L4065 83 L4083 82 L4102 81 L4123 80 L4148 79 L4163 78 L4180 77 L4199 75 L4219 74 L4238 73 L4257 71 L4277 70 L4298 69 L4315 68 L4334 68 L4355 67 L4376 66 L4392 65 L4450 63 L4470 62 L4489 61 L4508 61 L4529 60 L4547 59 L4566 58 L4594 58 L4614 57 L4642 57 L4679 56 L4693 55 L4706 54 L4723 54 L4741 53 L4761 53 L4779 52 L4799 52 L4819 51 L4840 51 L4857 51 L4875 50 L4896 50 L4916 49 L4934 48 L4953 47 L4973 47 L4994 46 L5011 45 L5030 44 L5052 44 L5077 43 L5091 42 L5108 42 L5128 41 L5148 40 L5166 40 L5186 39 L5205 37 L5227 36 L5243 35 L5263 34 L5283 34 L5304 34 L5321 33 L5340 32 L5360 32 L5379 31 L5398 31 L5417 31 L5437 30 L5457 30 L5476 30 L5495 29 L5522 29 L5543 28 L5571 28 L5606 27 L5620 26 L5633 26 L5651 25 L5670 25 L5689 24 L5708 24 L5747 23 L5768 23 L5785 22 L5804 22 L5824 21 L5844 20 L5863 19 L5881 18 L5901 17 L5921 17 L5940 16 L5959 16 L5980 15 L6004 15 L6019 14 L6036 14 L6056 13 L6075 12 L6095 12 L6113 11 L6133 10 L6154 10 L6172 9 L6191 8 L6211 8 L6232 7 L6249 7 L6268 6 L6288 5 L6307 5 L6327 5 L6346 4 L6365 4 L6385 3 L6404 3 L6423 2 L6452 2 L6500 1" />
</svg>
