<svg xmlns="http://www.w3.org/2000/svg" version="1.1" viewBox="0 0 6500 1000">
	<path fill="none" stroke="gold" stroke-width="125" stroke-linecap="round" stroke-linejoin="round" d="M0 3404  L-726883 3404 L-724278 3404 L-722610 3404 L-704281 3404 L-704111 3404 L-696953 3403 L-696920 3403 L-683489 3403 L-680567 3403 L-667226 3403 L-663057 3402 L-661897 3401 L-661278 3401 L-659266 3400 L-655494 3400 L-654894 3400 L-654566 3399 L-654353 3399 L-653811 3399 L-652573 3398 L-651394 3396 L-648530 3395 L-648007 3394 L-643152 3394 L-640215 3393 L-640172 3393 L-639863 3393 L-639611 3393 L-637016 3392 L-632761 3392 L-632743 3392 L-631506 3392 L-629629 3392 L-627675 3392 L-626727 3392 L-626457 3391 L-626147 3391 L-626049 3391 L-625218 3391 L-623187 3391 L-622897 3390 L-620751 3389 L-620595 3388 L-616939 3387 L-616688 3388 L-616589 3388 L-616072 3388 L-613921 3389 L-612992 3390 L-611466 3390 L-610227 3390 L-608680 3390 L-605718 3390 L-604596 3390 L-604287 3389 L-603076 3389 L-600069 3391 L-600050 3391 L-599702 3391 L-599489 3390 L-599363 3388 L-599121 3388 L-599083 3388 L-599064 3387 L-599045 3387 L-598986 3387 L-598927 3387 L-598909 3386 L-598466 3386 L-597227 3386 L-595681 3385 L-592293 3385 L-586567 3385 L-586365 3385 L-584729 3385 L-583007 3384 L-581575 3384 L-581343 3384 L-580628 3384 L-574496 3384 L-574128 3384 L-573973 3383 L-573395 3383 L-573102 3383 L-572135 3382 L-571826 3382 L-571226 3382 L-569620 3382 L-568885 3382 L-568575 3382 L-567807 3382 L-565771 3382 L-565346 3381 L-564533 3381 L-557104 3381 L-556581 3381 L-556408 3380 L-555673 3380 L-554105 3380 L-553700 3380 L-551475 3379 L-550527 3379 L-550102 3379 L-549771 3379 L-548728 3379 L-546619 3378 L-546367 3378 L-545748 3378 L-544936 3378 L-542828 3377 L-542779 3377 L-540851 3377 L-540525 3377 L-540390 3376 L-539887 3376 L-538474 3376 L-537971 3375 L-537450 3375 L-533890 3374 L-533155 3374 L-530730 3374 L-529441 3373 L-529034 3373 L-525881 3373 L-525726 3373 L-525706 3373 L-525340 3373 L-524081 3373 L-523366 3374 L-522476 3374 L-522069 3374 L-521141 3374 L-520032 3373 L-519729 3374 L-513480 3374 L-512533 3375 L-510907 3375 L-510405 3375 L-506729 3375 L-505897 3375 L-501944 3376 L-500532 3375 L-498043 3375 L-497366 3374 L-497328 3374 L-496457 3374 L-493245 3374 L-490382 3374 L-489414 3374 L-488293 3374 L-488274 3373 L-486649 3373 L-486185 3373 L-486093 3372 L-479724 3372 L-478775 3372 L-476318 3372 L-475446 3372 L-474210 3371 L-472208 3371 L-471811 3371 L-470375 3371 L-468348 3371 L-468135 3370 L-466955 3370 L-465447 3370 L-465426 3370 L-463414 3370 L-462545 3369 L-461674 3369 L-461089 3369 L-460552 3369 L-459894 3368 L-458656 3368 L-458095 3368 L-456914 3368 L-455677 3368 L-455638 3367 L-455251 3367 L-454710 3367 L-453936 3367 L-452814 3367 L-450724 3366 L-450391 3366 L-450105 3366 L-449177 3366 L-448694 3365 L-447958 3365 L-444327 3365 L-443199 3365 L-443045 3365 L-442019 3364 L-438304 3364 L-437087 3364 L-435268 3364 L-432482 3364 L-431921 3363 L-428033 3363 L-425556 3363 L-424221 3363 L-423718 3363 L-423235 3363 L-420546 3363 L-416774 3363 L-414317 3363 L-413137 3363 L-412498 3363 L-410138 3362 L-410061 3362 L-409013 3362 L-408920 3362 L-408417 3362 L-407971 3362 L-407914 3362 L-407700 3362 L-404741 3361 L-402033 3361 L-401878 3361 L-398357 3361 L-397834 3361 L-396867 3360 L-396518 3360 L-395474 3360 L-394546 3360 L-394120 3360 L-392611 3360 L-391644 3359 L-391625 3359 L-389729 3348 L-389613 3337 L-389565 3326 L-389541 3315 L-386537 3315 L-384506 3315 L-382745 3314 L-382378 3314 L-381933 3314 L-381566 3314 L-381152 3314 L-379167 3313 L-378954 3313 L-378799 3313 L-377193 3313 L-376072 3313 L-375123 3313 L-373866 3313 L-372222 3312 L-371042 3312 L-364452 3312 L-364406 3312 L-364000 3312 L-362955 3312 L-362820 3311 L-361137 3311 L-361117 3311 L-359780 3311 L-358544 3311 L-358390 3310 L-358016 3310 L-357810 3310 L-357500 3310 L-356726 3309 L-354405 3309 L-353747 3309 L-351619 3309 L-349897 3309 L-349703 3309 L-347150 3308 L-346874 3308 L-346686 3308 L-345853 3308 L-345081 3308 L-344383 3307 L-339382 3307 L-339006 3307 L-334753 3307 L-334266 3322 L-334247 3322 L-334168 3322 L-334093 3321 L-334073 3306 L-333260 3306 L-332506 3306 L-331287 3306 L-329855 3306 L-329759 3305 L-329585 3305 L-329230 3305 L-327921 3305 L-326064 3305 L-324361 3305 L-323858 3304 L-323593 3304 L-323200 3304 L-323066 3304 L-322156 3304 L-321780 3304 L-320851 3304 L-320512 3303 L-320472 3303 L-320435 3303 L-318519 3303 L-318345 3303 L-316817 3303 L-316488 3303 L-316372 3303 L-315965 3303 L-315617 3302 L-313973 3302 L-313423 3302 L-313179 3302 L-312638 3302 L-311807 3301 L-311265 3301 L-309731 3301 L-309638 3301 L-309601 3301 L-309465 3301 L-309078 3300 L-308053 3300 L-306177 3300 L-306081 3300 L-305480 3305 L-305113 3310 L-304629 3315 L-304591 3320 L-303817 3320 L-303759 3320 L-303585 3320 L-303391 3320 L-301786 3319 L-301766 3319 L-301611 3320 L-301495 3320 L-300316 3320 L-300161 3320 L-299494 3320 L-297046 3333 L-294531 3345 L-291861 3357 L-284162 3369 L-278494 3369 L-276280 3369 L-276256 3369 L-275283 3372 L-275263 3372 L-274399 3372 L-271659 3372 L-265860 3369 L-265707 3368 L-262921 3368 L-249313 3368 L-248567 3368 L-244156 3367 L-227810 3367 L-227578 3367 L-227041 3367 L-218581 3367 L-209875 3367 L-209663 3366 L-207691 3366 L-204904 3366 L-200417 3366 L-200262 3366 L-200093 3366 L-199953 3366 L-199662 3366 L-199623 3366 L-199352 3365 L-199181 3365 L-198771 3365 L-197650 3365 L-196470 3365 L-195193 3365 L-192329 3365 L-189409 3364 L-187417 3364 L-185869 3364 L-182831 3364 L-173507 3364 L-172983 3364 L-167259 3364 L-165752 3363 L-164937 3363 L-163254 3363 L-162533 3363 L-162364 3363 L-161319 3363 L-159252 3363 L-157890 3362 L-153447 3362 L-153349 3362 L-153311 3362 L-153292 3362 L-152459 3362 L-152382 3361 L-149809 3361 L-146560 3361 L-146405 3361 L-145457 3361 L-143716 3360 L-143000 3361 L-139459 3362 L-132882 3363 L-131465 3364 L-131444 3364 L-130494 3364 L-127019 3364 L-126266 3363 L-125704 3363 L-124922 3363 L-117418 3363 L-115820 3363 L-114246 3363 L-111060 3363 L-106727 3362 L-98158 3362 L-89411 3362 L-86337 3362 L-83071 3362 L-82525 3362 L-75388 3361 L-69720 3361 L-55656 3361 L-49644 3362 L-44938 3361 L-40935 3361 L-35827 3361 L-26113 3361 L-10543 3361 L-7460 3360 L-7158 3293 L-7138 3210 L-7119 3116 L-7099 3011 L-7080 2963 L-7061 2923 L-7042 2886 L-7014 2849 L-6993 2813 L-6966 2776 L-6930 2734 L-6917 2699 L-6904 2669 L-6885 2644 L-6866 2625 L-6846 2606 L-6828 2587 L-6809 2568 L-6789 2549 L-6768 2529 L-6751 2510 L-6732 2491 L-6712 2472 L-6692 2454 L-6673 2434 L-6655 2413 L-6635 2392 L-6615 2371 L-6596 2351 L-6577 2333 L-6556 2314 L-6531 2296 L-6517 2279 L-6500 2261 L-6480 2244 L-6461 2227 L-6442 2209 L-6423 2190 L-6403 2172 L-6382 2155 L-6364 2139 L-6345 2124 L-6325 2109 L-6304 2095 L-6287 2084 L-6268 2072 L-6248 2061 L-6229 2050 L-6209 2039 L-6191 2030 L-6171 2022 L-6151 2014 L-6132 2006 L-6113 1998 L-6086 1988 L-6065 1977 L-6037 1965 L-6003 1953 L-5989 1942 L-5976 1933 L-5957 1924 L-5938 1917 L-5918 1909 L-5900 1900 L-5880 1892 L-5861 1883 L-5840 1875 L-5823 1867 L-5804 1859 L-5784 1851 L-5764 1842 L-5745 1831 L-5726 1820 L-5706 1808 L-5687 1797 L-5668 1785 L-5649 1773 L-5628 1759 L-5604 1744 L-5589 1730 L-5572 1716 L-5552 1703 L-5533 1689 L-5513 1675 L-5494 1660 L-5474 1646 L-5454 1632 L-5436 1618 L-5417 1605 L-5397 1592 L-5376 1579 L-5358 1567 L-5339 1556 L-5319 1545 L-5301 1536 L-5281 1525 L-5262 1515 L-5242 1506 L-5223 1495 L-5204 1486 L-5185 1476 L-5156 1466 L-5136 1457 L-5108 1448 L-5071 1436 L-5056 1426 L-5044 1415 L-5027 1406 L-5010 1399 L-4990 1393 L-4971 1387 L-4952 1381 L-4932 1376 L-4911 1370 L-4894 1364 L-4875 1357 L-4855 1350 L-4835 1343 L-4817 1336 L-4798 1328 L-4778 1319 L-4758 1310 L-4739 1301 L-4721 1293 L-4699 1284 L-4675 1275 L-4660 1267 L-4643 1258 L-4623 1249 L-4604 1240 L-4584 1231 L-4566 1221 L-4546 1212 L-4525 1203 L-4507 1194 L-4488 1185 L-4468 1177 L-4448 1169 L-4430 1162 L-4411 1155 L-4391 1147 L-4372 1140 L-4352 1132 L-4333 1125 L-4314 1118 L-4294 1111 L-4275 1104 L-4256 1097 L-4228 1090 L-4208 1083 L-4180 1075 L-4144 1064 L-4129 1054 L-4116 1044 L-4099 1035 L-4081 1030 L-4061 1024 L-4042 1017 L-4023 1010 L-4003 1002 L-3982 994 L-3963 985 L-3946 976 L-3926 966 L-3906 956 L-3888 945 L-3869 934 L-3849 923 L-3828 912 L-3811 902 L-3792 894 L-3771 887 L-3746 882 L-3731 877 L-3713 871 L-3694 866 L-3675 860 L-3656 854 L-3637 848 L-3617 842 L-3596 838 L-3579 834 L-3559 828 L-3539 822 L-3518 814 L-3501 807 L-3482 802 L-3462 797 L-3443 794 L-3424 790 L-3405 787 L-3385 783 L-3365 779 L-3346 775 L-3328 771 L-3300 767 L-3279 764 L-3251 760 L-3217 754 L-3203 750 L-3190 747 L-3171 743 L-3152 741 L-3133 738 L-3114 734 L-3094 732 L-3075 729 L-3054 726 L-3037 723 L-3018 720 L-2997 717 L-2977 713 L-2959 710 L-2941 707 L-2921 704 L-2900 701 L-2882 698 L-2863 695 L-2842 693 L-2817 690 L-2803 687 L-2785 685 L-2766 682 L-2747 679 L-2727 676 L-2708 673 L-2688 670 L-2667 667 L-2650 664 L-2631 661 L-2611 658 L-2590 656 L-2573 653 L-2554 650 L-2534 648 L-2515 645 L-2495 643 L-2476 641 L-2456 639 L-2437 637 L-2418 635 L-2399 639 L-2370 642 L-2350 645 L-2323 647 L-2285 645 L-2270 643 L-2257 640 L-2240 639 L-2224 637 L-2204 636 L-2185 634 L-2166 632 L-2146 631 L-2125 629 L-2108 628 L-2089 626 L-2069 625 L-2049 623 L-2031 621 L-2012 619 L-1992 617 L-1972 616 L-1954 614 L-1935 613 L-1913 611 L-1889 610 L-1874 608 L-1857 606 L-1837 604 L-1818 603 L-1799 601 L-1780 599 L-1760 597 L-1739 595 L-1721 592 L-1702 590 L-1682 588 L-1661 586 L-1644 584 L-1625 581 L-1605 579 L-1586 577 L-1567 575 L-1548 573 L-1528 570 L-1508 568 L-1489 567 L-1470 565 L-1443 563 L-1422 561 L-1394 559 L-1359 557 L-1346 555 L-1332 553 L-1313 551 L-1295 549 L-1275 548 L-1257 546 L-1237 544 L-1217 542 L-1196 540 L-1179 539 L-1161 537 L-1140 535 L-1120 532 L-1102 530 L-1083 527 L-1063 524 L-1043 521 L-1025 519 L-1006 516 L-985 514 L-960 511 L-945 508 L-928 506 L-909 503 L-889 500 L-870 498 L-851 495 L-831 493 L-810 490 L-793 488 L-774 485 L-753 483 L-732 481 L-715 479 L-697 477 L-677 476 L-658 474 L-638 472 L-619 471 L-599 469 L-580 468 L-561 467 L-542 466 L-514 464 L-494 463 L-466 461 L-430 458 L-416 456 L-403 453 L-385 451 L-367 449 L-347 448 L-328 446 L-309 444 L-289 443 L-268 441 L-251 439 L-232 437 L-212 435 L-192 433 L-173 431 L-155 429 L-135 426 L-114 424 L-96 422 L-78 421 L-56 419 L-31 417 L-17 416 L0 414 L19 412 L38 410 L58 408 L77 406 L96 403 L118 400 L135 397 L154 395 L174 393 L195 391 L212 389 L231 388 L251 387 L270 385 L290 384 L308 382 L328 381 L348 380 L367 379 L386 377 L413 376 L434 375 L462 374 L496 372 L510 371 L523 370 L542 369 L561 368 L581 367 L599 366 L619 365 L638 364 L659 363 L676 362 L695 361 L715 360 L736 359 L754 358 L773 357 L793 356 L813 355 L831 354 L850 354 L871 353 L896 352 L910 351 L928 350 L947 349 L966 348 L986 347 L1005 346 L1025 345 L1045 343 L1063 341 L1082 339 L1102 336 L1123 335 L1141 333 L1160 332 L1180 330 L1198 329 L1218 327 L1237 326 L1257 325 L1276 324 L1296 323 L1314 322 L1343 321 L1391 320 L1428 319 L1442 318 L1455 317 L1472 316 L1489 315 L1509 315 L1528 314 L1547 313 L1567 312 L1588 312 L1605 311 L1624 310 L1644 310 L1664 309 L1682 308 L1701 307 L1721 306 L1741 305 L1760 304 L1778 303 L1800 301 L1824 300 L1839 298 L1856 296 L1876 295 L1895 293 L1915 292 L1933 291 L1953 289 L1974 288 L1992 286 L2011 285 L2031 283 L2051 282 L2069 281 L2088 280 L2108 279 L2127 278 L2147 277 L2165 276 L2185 275 L2205 274 L2224 273 L2243 272 L2271 271 L2291 269 L2319 268 L2356 265 L2371 263 L2383 261 L2401 259 L2418 258 L2438 257 L2457 256 L2476 255 L2496 254 L2517 254 L2534 252 L2552 251 L2573 250 L2594 248 L2611 246 L2631 244 L2650 242 L2671 240 L2688 238 L2707 236 L2729 235 L2754 233 L2769 232 L2786 230 L2805 229 L2825 228 L2843 226 L2862 224 L2882 223 L2904 221 L2920 220 L2940 218 L2960 217 L2981 216 L2998 215 L3017 213 L3037 212 L3056 211 L3075 210 L3094 209 L3114 208 L3134 206 L3153 206 L3172 205 L3200 997 L3220 996 L3248 995 L3284 993 L3298 198 L3311 196 L3329 195 L3347 194 L3366 193 L3385 192 L3404 192 L3424 190 L3446 189 L3462 187 L3481 185 L3502 184 L3522 182 L3540 180 L3559 177 L3579 175 L3600 174 L3617 172 L3636 171 L3657 170 L3682 168 L3697 166 L3727 164 L3767 162 L3790 159 L3819 157 L3835 154 L3849 152 L3868 151 L3889 150 L3910 149 L3926 148 L3945 146 L3965 145 L3984 145 L4004 144 L4023 143 L4043 143 L4063 141 L4081 140 L4100 140 L4128 138 L4148 137 L4176 136 L4211 135 L4225 134 L4257 133 L4275 131 L4295 131 L4314 130 L4333 129 L4353 128 L4374 128 L4391 127 L4409 125 L4430 122 L4451 118 L4468 115 L4487 111 L4507 108 L4527 106 L4545 104 L4564 102 L4586 101 L4611 99 L4626 98 L4643 96 L4662 95 L4682 93 L4700 92 L4720 90 L4739 89 L4761 87 L4778 85 L4797 84 L4817 83 L4838 82 L4855 81 L4874 80 L4894 79 L4913 78 L4933 76 L4952 75 L4971 74 L4991 73 L5010 72 L5029 71 L5056 71 L5077 69 L5147 67 L5175 65 L5190 62 L5204 60 L5224 59 L5242 58 L5261 56 L5281 55 L5302 53 L5320 52 L5338 52 L5359 51 L5379 50 L5397 49 L5416 48 L5436 46 L5456 45 L5474 43 L5493 42 L5514 41 L5539 40 L5554 39 L5572 38 L5590 36 L5610 35 L5629 33 L5648 32 L5668 31 L5689 30 L5706 29 L5725 28 L5746 27 L5767 26 L5784 25 L5842 24 L5861 23 L5880 22 L5900 21 L5920 20 L5939 19 L5957 19 L5985 18 L6006 17 L6033 17 L6070 16 L6084 15 L6097 14 L6115 14 L6133 13 L6152 13 L6171 12 L6191 12 L6210 11 L6231 11 L6248 10 L6267 10 L6287 9 L6308 9 L6326 8 L6345 7 L6364 6 L6385 6 L6403 5 L6422 4 L6443 3 L6468 2 L6482 2 L6500 1" />
</svg>
