<svg xmlns="http://www.w3.org/2000/svg" version="1.1" viewBox="0 0 6500 1000">
	<path fill="none" stroke="gold" stroke-width="125" stroke-linecap="round" stroke-linejoin="round" d="M0 122329  L-338004 122329 L-335400 122127 L-333732 121925 L-315402 121520 L-315232 121115 L-308074 120710 L-308041 120710 L-294610 120508 L-291688 120710 L-278347 120103 L-274178 119293 L-273018 118281 L-272399 117269 L-270387 116661 L-266616 116257 L-266016 115852 L-265687 115447 L-265474 115042 L-264932 114637 L-263694 113018 L-262515 111398 L-259651 109779 L-259129 108159 L-254273 107755 L-251336 107350 L-251293 106945 L-250985 106540 L-250733 106135 L-248138 105730 L-243882 105730 L-243864 105730 L-242627 105730 L-240750 105730 L-238797 105325 L-237849 104921 L-237578 104516 L-237268 104313 L-237170 104111 L-236339 104111 L-234309 104313 L-234018 102491 L-231872 101682 L-231716 100467 L-228060 99253 L-227809 99860 L-227710 99657 L-227193 100265 L-225042 101277 L-224113 102289 L-222587 103301 L-221348 103301 L-219801 103099 L-216840 102694 L-215718 102289 L-215408 101884 L-214197 101682 L-211191 103908 L-211171 103706 L-210824 103504 L-210610 103301 L-210484 100467 L-210243 100062 L-210205 99657 L-210185 99253 L-210166 98848 L-210107 98443 L-210048 98038 L-210030 97633 L-209587 97228 L-208348 96823 L-206802 96419 L-203414 96014 L-197688 95811 L-197486 95609 L-195851 95406 L-194129 95204 L-192697 95002 L-192464 94799 L-191749 94597 L-185617 94394 L-185249 93989 L-185095 93585 L-184516 93180 L-184224 92775 L-183256 92370 L-182947 91965 L-182348 91560 L-180741 91560 L-180006 91560 L-179697 91763 L-178928 91763 L-176892 91358 L-176467 90953 L-175654 90751 L-168226 90346 L-167703 89941 L-167529 89536 L-166794 89131 L-165226 88726 L-164821 88524 L-162596 88119 L-161648 87917 L-161223 87714 L-160893 87714 L-159849 87512 L-157741 87107 L-157488 86702 L-156870 86297 L-156057 86095 L-153949 85690 L-153901 85285 L-151972 84880 L-151647 84475 L-151512 84070 L-151008 83868 L-149596 83463 L-149093 82653 L-148571 82046 L-145011 81236 L-144276 80427 L-141851 80427 L-140562 80022 L-140155 79819 L-137003 79819 L-136848 79819 L-136827 80022 L-136461 80022 L-135203 80224 L-134488 80427 L-133598 80427 L-133191 80427 L-132262 80427 L-131154 80224 L-130850 81034 L-124602 81439 L-123654 81844 L-122028 82248 L-121526 82451 L-117851 82653 L-117018 82856 L-113065 83058 L-111653 82451 L-109164 82046 L-108488 81641 L-108449 81439 L-107578 81439 L-104367 81236 L-101504 81034 L-100536 80831 L-99414 80427 L-99395 80022 L-97770 79617 L-97306 79010 L-97214 78807 L-90845 78605 L-89896 78402 L-87439 78200 L-86567 77795 L-85331 77593 L-83330 77390 L-82932 76985 L-81496 76580 L-79470 76378 L-79256 75973 L-78076 75771 L-76568 75568 L-76548 75366 L-74536 75163 L-73666 74759 L-72795 74556 L-72210 74151 L-71673 73746 L-71015 73342 L-69777 72937 L-69217 72734 L-68036 72532 L-66798 72329 L-66760 72127 L-66373 71925 L-65831 71520 L-65057 71317 L-63935 71115 L-61846 70710 L-61512 70305 L-61227 69900 L-60298 69698 L-59815 69293 L-59079 69091 L-55448 68888 L-54321 68686 L-54166 68483 L-53140 68078 L-49425 67876 L-48208 67471 L-46389 67066 L-43604 66864 L-43042 66459 L-39154 66459 L-36678 66257 L-35343 66257 L-34839 66054 L-34356 65852 L-31667 65852 L-27895 65852 L-25438 65852 L-24258 65852 L-23619 65649 L-21260 65244 L-21182 65042 L-20135 64840 L-20041 64435 L-19538 64435 L-19093 64435 L-19035 64435 L-18821 64435 L-15862 64030 L-13154 63827 L-12999 63625 L-9479 63423 L-8956 63018 L-7988 62613 L-7639 62410 L-6596 62006 L-5667 61601 L-5241 61398 L-3732 61398 L-2766 61196 L-2747 60993 L-851 46216 L-735 31034 L-687 16054 L-662 1074 L2341 872 L4372 467 L6132 265 L6500 62" />
</svg>
