<svg xmlns="http://www.w3.org/2000/svg" version="1.1" viewBox="0 0 6500 1000">
	<path fill="none" stroke="gold" stroke-width="125" stroke-linecap="round" stroke-linejoin="round" d="M0 107055  L-370679 107055 L-368075 106888 L-366407 106721 L-348077 106388 L-347907 106055 L-340749 105721 L-340716 105721 L-327285 105555 L-324363 105721 L-311022 105221 L-306853 104555 L-305693 103721 L-305074 102888 L-303062 102388 L-299290 102055 L-298690 101721 L-298362 101388 L-298149 101055 L-297607 100721 L-296369 99388 L-295190 98055 L-292326 96721 L-291803 95388 L-286948 95055 L-284011 94721 L-283968 94388 L-283659 94055 L-283407 93721 L-280812 93388 L-276557 93388 L-276539 93388 L-275302 93388 L-273425 93388 L-271471 93055 L-270523 92721 L-270253 92388 L-269943 92221 L-269845 92055 L-269014 92055 L-266983 92221 L-266693 90721 L-264547 90055 L-264391 89055 L-260735 88055 L-260484 88555 L-260385 88388 L-259868 88888 L-257717 89721 L-256788 90555 L-255262 91388 L-254023 91388 L-252476 91221 L-249514 90888 L-248392 90555 L-248083 90221 L-246872 90055 L-243865 91888 L-243846 91721 L-243498 91555 L-243285 91388 L-243159 89055 L-242917 88721 L-242880 88388 L-242860 88055 L-242841 87721 L-242782 87388 L-242723 87055 L-242705 86721 L-242262 86388 L-241023 86055 L-239477 85721 L-236089 85388 L-230363 85221 L-230161 85055 L-228525 84888 L-226803 84721 L-225371 84555 L-225139 84388 L-224424 84221 L-218292 84055 L-217924 83721 L-217769 83388 L-217191 83055 L-216898 82721 L-215931 82388 L-215622 82055 L-215023 81721 L-213416 81721 L-212681 81721 L-212371 81888 L-211603 81888 L-209567 81555 L-209142 81221 L-208329 81055 L-200900 80721 L-200377 80388 L-200204 80055 L-199469 79721 L-197901 79388 L-197496 79221 L-195271 78888 L-194323 78721 L-193898 78555 L-193567 78555 L-192524 78388 L-190415 78055 L-190163 77721 L-189544 77388 L-188732 77221 L-186624 76888 L-186575 76555 L-184647 76221 L-184321 75888 L-184186 75555 L-183683 75388 L-182270 75055 L-181768 74388 L-181246 73888 L-177686 73221 L-176951 72555 L-174526 72555 L-173237 72221 L-172830 72055 L-169677 72055 L-169523 72055 L-169502 72221 L-169136 72221 L-167877 72388 L-167162 72555 L-166272 72555 L-165866 72555 L-164937 72555 L-163828 72388 L-163525 73055 L-157276 73388 L-156329 73721 L-154703 74055 L-154201 74221 L-150525 74388 L-149693 74555 L-145740 74721 L-144328 74221 L-141839 73888 L-141162 73555 L-141124 73388 L-140253 73388 L-137042 73221 L-134178 73055 L-133210 72888 L-132089 72555 L-132070 72221 L-130445 71888 L-129981 71388 L-129889 71221 L-123520 71055 L-122571 70888 L-120114 70721 L-119242 70388 L-118006 70221 L-116004 70055 L-115607 69721 L-114171 69388 L-112144 69221 L-111931 68888 L-110751 68721 L-109243 68555 L-109223 68388 L-107210 68221 L-106341 67888 L-105470 67721 L-104885 67388 L-104348 67055 L-103690 66721 L-102452 66388 L-101891 66221 L-100710 66055 L-99473 65888 L-99434 65721 L-99047 65555 L-98506 65221 L-97732 65055 L-96610 64888 L-94520 64555 L-94187 64221 L-93901 63888 L-92973 63721 L-92490 63388 L-91754 63221 L-88123 63055 L-86995 62888 L-86841 62721 L-85815 62388 L-82100 62221 L-80883 61888 L-79064 61555 L-76278 61388 L-75717 61055 L-71829 61055 L-69352 60888 L-68018 60888 L-67514 60721 L-67031 60555 L-64342 60555 L-60570 60555 L-58113 60555 L-56933 60555 L-56294 60388 L-53934 60055 L-53857 59888 L-52809 59721 L-52716 59388 L-52213 59388 L-51767 59388 L-51710 59388 L-51496 59388 L-48537 59055 L-45829 58888 L-45674 58721 L-42153 58555 L-41630 58221 L-40663 57888 L-40314 57721 L-39271 57388 L-38342 57055 L-37916 56888 L-36407 56888 L-35440 56721 L-35421 56555 L-33525 44388 L-33409 31888 L-33361 19555 L-33337 7221 L-30333 7055 L-28302 6721 L-26541 6555 L-26174 6388 L-25729 6055 L-25362 5888 L-24948 5555 L-22963 5388 L-22750 5388 L-22595 5221 L-20990 5221 L-19868 5055 L-18919 4888 L-17662 4555 L-16018 4388 L-14838 4055 L-8248 3888 L-8202 3721 L-7796 3555 L-6751 3388 L-6616 3221 L-4933 2888 L-4913 2721 L-3576 2388 L-2340 2221 L-2186 2055 L-1812 1721 L-1606 1555 L-1296 1388 L-522 1055 L1798 888 L2456 721 L4584 555 L6306 388 L6500 55" />
</svg>
