<svg xmlns="http://www.w3.org/2000/svg" version="1.1" viewBox="0 0 6500 1000">
	<path fill="none" stroke="gold" stroke-width="125" stroke-linecap="round" stroke-linejoin="round" d="M0 3791  L-724483 3791 L-721879 3791 L-720211 3790 L-701881 3790 L-701711 3790 L-694553 3789 L-694520 3789 L-681089 3789 L-678168 3789 L-664827 3789 L-660658 3788 L-659498 3787 L-658879 3787 L-656867 3786 L-653095 3786 L-652495 3785 L-652166 3785 L-651953 3785 L-651411 3784 L-650173 3783 L-648994 3781 L-646130 3780 L-645608 3779 L-640752 3778 L-637815 3778 L-637772 3778 L-637464 3777 L-637212 3777 L-634617 3777 L-630362 3777 L-630344 3777 L-629107 3777 L-627229 3777 L-625276 3776 L-624328 3776 L-624057 3776 L-623747 3775 L-623649 3775 L-622819 3775 L-620788 3775 L-620497 3774 L-618351 3773 L-618196 3772 L-614539 3771 L-614288 3772 L-614190 3771 L-613673 3772 L-611521 3773 L-610593 3774 L-609067 3775 L-607827 3775 L-606281 3774 L-603319 3774 L-602197 3774 L-601888 3773 L-600677 3773 L-597670 3775 L-597650 3775 L-597303 3775 L-597090 3775 L-596963 3772 L-596722 3772 L-596684 3771 L-596664 3771 L-596645 3771 L-596586 3770 L-596527 3770 L-596509 3770 L-596066 3769 L-594827 3769 L-593281 3769 L-589894 3768 L-584167 3768 L-583966 3768 L-582330 3768 L-580608 3768 L-579176 3767 L-578944 3767 L-578228 3767 L-572096 3767 L-571728 3767 L-571574 3766 L-570995 3766 L-570703 3766 L-569736 3765 L-569426 3765 L-568827 3764 L-567221 3764 L-566486 3764 L-566176 3765 L-565408 3765 L-563371 3764 L-562946 3764 L-562134 3764 L-554705 3763 L-554182 3763 L-554008 3763 L-553273 3762 L-551706 3762 L-551300 3762 L-549075 3762 L-548127 3761 L-547702 3761 L-547372 3761 L-546328 3761 L-544220 3761 L-543968 3760 L-543349 3760 L-542536 3760 L-540428 3759 L-540380 3759 L-538452 3759 L-538126 3758 L-537991 3758 L-537488 3758 L-536075 3758 L-535572 3757 L-535050 3756 L-531491 3756 L-530756 3755 L-528331 3755 L-527041 3755 L-526634 3754 L-523482 3754 L-523327 3754 L-523307 3755 L-522940 3755 L-521682 3755 L-520967 3755 L-520077 3755 L-519670 3755 L-518741 3755 L-517633 3755 L-517330 3755 L-511081 3756 L-510133 3756 L-508507 3757 L-508006 3757 L-504330 3757 L-503497 3757 L-499544 3757 L-498133 3757 L-495643 3756 L-494967 3756 L-494928 3756 L-494057 3756 L-490846 3756 L-487983 3755 L-487015 3755 L-485893 3755 L-485874 3755 L-484249 3754 L-483785 3754 L-483693 3754 L-477324 3753 L-476376 3753 L-473919 3753 L-473046 3753 L-471810 3753 L-469809 3752 L-469411 3752 L-467975 3752 L-465949 3751 L-465736 3751 L-464556 3751 L-463047 3751 L-463027 3751 L-461015 3750 L-460145 3750 L-459274 3750 L-458690 3750 L-458152 3749 L-457495 3749 L-456257 3749 L-455696 3748 L-454515 3748 L-453277 3748 L-453239 3748 L-452852 3748 L-452310 3747 L-451536 3747 L-450414 3747 L-448325 3747 L-447992 3746 L-447706 3746 L-446777 3746 L-446294 3745 L-445559 3745 L-441927 3745 L-440800 3745 L-440645 3745 L-439619 3744 L-435904 3744 L-434687 3744 L-432869 3743 L-430083 3743 L-429521 3743 L-425634 3743 L-423157 3743 L-421822 3743 L-421319 3743 L-420835 3742 L-418146 3742 L-414375 3742 L-411917 3742 L-410738 3742 L-410098 3742 L-407739 3742 L-407661 3742 L-406614 3742 L-406520 3741 L-406017 3741 L-405572 3741 L-405514 3741 L-405301 3741 L-402341 3741 L-399634 3741 L-399479 3741 L-395958 3740 L-395435 3740 L-394468 3740 L-394119 3740 L-393075 3739 L-392146 3739 L-391721 3739 L-390212 3739 L-389245 3738 L-389226 3738 L-387330 3726 L-387214 3713 L-387166 3700 L-387142 3687 L-384137 3687 L-382107 3686 L-380346 3686 L-379979 3686 L-379533 3686 L-379166 3686 L-378752 3685 L-376767 3685 L-376554 3685 L-376399 3685 L-374794 3685 L-373672 3685 L-372724 3685 L-371467 3684 L-369822 3684 L-368642 3684 L-362053 3684 L-362006 3683 L-361601 3683 L-360556 3683 L-360420 3683 L-358738 3682 L-358718 3682 L-357381 3682 L-356145 3682 L-355990 3682 L-355617 3681 L-355410 3681 L-355101 3681 L-354327 3681 L-352005 3680 L-351348 3680 L-349220 3680 L-347497 3680 L-347304 3680 L-344751 3679 L-344474 3679 L-344286 3679 L-343454 3678 L-342681 3678 L-341983 3678 L-336983 3678 L-336607 3678 L-332354 3678 L-331867 3695 L-331847 3695 L-331768 3695 L-331693 3694 L-331673 3677 L-330861 3677 L-330107 3676 L-328888 3676 L-327456 3676 L-327359 3676 L-327185 3676 L-326831 3676 L-325521 3675 L-323664 3675 L-321962 3675 L-321459 3675 L-321194 3674 L-320800 3674 L-320666 3674 L-319756 3674 L-319380 3674 L-318452 3674 L-318112 3674 L-318073 3674 L-318035 3673 L-316120 3673 L-315946 3673 L-314417 3673 L-314089 3673 L-313973 3673 L-313566 3673 L-313218 3672 L-311574 3672 L-311023 3672 L-310780 3672 L-310239 3672 L-309407 3671 L-308866 3671 L-307331 3671 L-307239 3670 L-307202 3670 L-307066 3670 L-306679 3670 L-305654 3670 L-303777 3670 L-303681 3669 L-303081 3675 L-302714 3681 L-302229 3687 L-302191 3693 L-301417 3693 L-301360 3693 L-301185 3693 L-300992 3693 L-299386 3692 L-299366 3692 L-299211 3692 L-299096 3693 L-297916 3693 L-297761 3693 L-297095 3693 L-294646 3707 L-292132 3722 L-289462 3736 L-281763 3750 L-276095 3750 L-273880 3750 L-273857 3750 L-272883 3753 L-272863 3753 L-271999 3753 L-269259 3753 L-263461 3749 L-263307 3749 L-260521 3749 L-246913 3748 L-246167 3748 L-241756 3748 L-225410 3748 L-225178 3747 L-224641 3747 L-216182 3747 L-207476 3747 L-207264 3747 L-205291 3746 L-202505 3746 L-198017 3747 L-197863 3746 L-197694 3746 L-197553 3746 L-197263 3746 L-197224 3746 L-196953 3746 L-196781 3745 L-196371 3745 L-195251 3745 L-194070 3745 L-192794 3745 L-189930 3745 L-187009 3744 L-185017 3744 L-183470 3744 L-180432 3744 L-171107 3743 L-170583 3743 L-164860 3743 L-163353 3743 L-162538 3743 L-160854 3743 L-160133 3743 L-159965 3742 L-158920 3742 L-156852 3742 L-155490 3742 L-151047 3742 L-150950 3742 L-150911 3741 L-150892 3741 L-150060 3741 L-149982 3741 L-147410 3741 L-144160 3740 L-144006 3740 L-143057 3740 L-141316 3740 L-140601 3741 L-137060 3742 L-130483 3743 L-129065 3744 L-129045 3744 L-128094 3744 L-124620 3743 L-123867 3743 L-123305 3743 L-122523 3743 L-115019 3743 L-113420 3742 L-111846 3742 L-108661 3742 L-104328 3742 L-95758 3742 L-87012 3742 L-83938 3742 L-80672 3741 L-80125 3741 L-72988 3741 L-67321 3741 L-53256 3741 L-47245 3741 L-42538 3741 L-38535 3741 L-33428 3740 L-23714 3740 L-8143 3740 L-5060 3740 L-4758 3661 L-4739 3565 L-4720 3456 L-4700 3334 L-4680 3279 L-4661 3232 L-4642 3189 L-4615 3146 L-4594 3105 L-4566 3061 L-4531 3013 L-4517 2972 L-4504 2937 L-4486 2908 L-4467 2886 L-4447 2864 L-4429 2842 L-4409 2820 L-4389 2798 L-4368 2775 L-4351 2752 L-4333 2730 L-4312 2709 L-4292 2688 L-4274 2664 L-4255 2641 L-4235 2616 L-4215 2592 L-4197 2569 L-4178 2547 L-4157 2526 L-4132 2504 L-4117 2484 L-4100 2464 L-4081 2444 L-4061 2424 L-4042 2403 L-4023 2381 L-4003 2360 L-3983 2341 L-3965 2322 L-3946 2304 L-3925 2287 L-3905 2271 L-3888 2258 L-3869 2244 L-3849 2231 L-3830 2218 L-3810 2206 L-3791 2195 L-3771 2186 L-3752 2177 L-3732 2167 L-3714 2158 L-3686 2146 L-3665 2134 L-3638 2121 L-3604 2106 L-3590 2093 L-3576 2083 L-3558 2073 L-3539 2064 L-3519 2055 L-3500 2045 L-3481 2035 L-3461 2025 L-3440 2016 L-3423 2007 L-3404 1998 L-3384 1988 L-3364 1977 L-3346 1965 L-3327 1952 L-3307 1938 L-3287 1925 L-3268 1911 L-3250 1897 L-3228 1881 L-3204 1864 L-3189 1847 L-3172 1831 L-3152 1816 L-3133 1800 L-3113 1783 L-3095 1766 L-3075 1749 L-3054 1733 L-3036 1717 L-3017 1702 L-2997 1687 L-2977 1672 L-2959 1658 L-2940 1646 L-2920 1633 L-2901 1622 L-2881 1610 L-2863 1598 L-2843 1587 L-2823 1575 L-2804 1564 L-2785 1552 L-2756 1541 L-2737 1530 L-2709 1519 L-2672 1506 L-2657 1494 L-2644 1482 L-2627 1471 L-2610 1463 L-2590 1456 L-2572 1449 L-2553 1443 L-2532 1437 L-2512 1430 L-2495 1423 L-2476 1415 L-2455 1407 L-2436 1399 L-2417 1390 L-2398 1381 L-2378 1371 L-2359 1360 L-2340 1350 L-2321 1340 L-2300 1330 L-2276 1319 L-2261 1310 L-2244 1299 L-2224 1289 L-2205 1279 L-2185 1268 L-2166 1257 L-2146 1246 L-2126 1235 L-2108 1225 L-2089 1215 L-2069 1206 L-2048 1197 L-2030 1188 L-2011 1179 L-1991 1171 L-1973 1162 L-1953 1153 L-1934 1145 L-1914 1137 L-1895 1129 L-1875 1121 L-1857 1113 L-1828 1105 L-1808 1097 L-1780 1087 L-1744 1074 L-1730 1062 L-1717 1051 L-1699 1041 L-1681 1035 L-1661 1028 L-1643 1020 L-1623 1012 L-1604 1003 L-1582 993 L-1564 983 L-1547 972 L-1526 961 L-1506 949 L-1488 937 L-1469 924 L-1449 910 L-1429 898 L-1411 887 L-1392 877 L-1371 869 L-1346 863 L-1332 857 L-1314 851 L-1295 844 L-1275 837 L-1256 830 L-1237 823 L-1217 817 L-1196 812 L-1179 807 L-1160 801 L-1140 793 L-1119 785 L-1102 776 L-1083 770 L-1063 765 L-1044 761 L-1024 757 L-1005 753 L-986 748 L-966 744 L-947 739 L-928 734 L-900 730 L-880 726 L-852 721 L-817 715 L-803 710 L-790 706 L-771 702 L-753 699 L-733 696 L-715 692 L-695 689 L-675 686 L-654 682 L-637 679 L-618 675 L-598 671 L-578 667 L-560 663 L-541 660 L-521 656 L-501 653 L-483 650 L-464 647 L-442 643 L-418 640 L-403 637 L-386 634 L-366 631 L-347 628 L-328 624 L-309 621 L-289 617 L-268 613 L-250 610 L-232 607 L-211 603 L-191 600 L-173 597 L-154 594 L-134 591 L-115 588 L-96 586 L-77 583 L-57 581 L-38 579 L-18 577 L0 581 L28 584 L48 588 L76 591 L113 588 L128 585 L141 583 L159 581 L175 579 L195 577 L213 575 L233 573 L252 571 L274 570 L290 568 L309 566 L330 564 L350 562 L368 560 L387 558 L407 556 L427 554 L445 552 L464 550 L485 549 L510 547 L524 545 L542 543 L561 541 L581 539 L600 537 L619 535 L639 533 L660 530 L677 527 L696 524 L717 521 L737 519 L754 517 L773 514 L793 512 L812 510 L832 507 L851 504 L871 501 L890 499 L909 497 L928 496 L956 493 L976 491 L1004 488 L1039 486 L1053 483 L1066 481 L1085 479 L1103 477 L1123 475 L1142 473 L1161 471 L1181 469 L1202 467 L1219 465 L1238 462 L1258 460 L1278 457 L1296 454 L1315 451 L1335 448 L1355 444 L1374 441 L1392 439 L1414 436 L1439 432 L1453 430 L1470 426 L1490 423 L1509 420 L1528 417 L1547 414 L1567 411 L1588 408 L1606 405 L1625 403 L1645 400 L1666 397 L1683 395 L1702 393 L1722 391 L1741 389 L1760 388 L1779 386 L1799 384 L1819 383 L1838 381 L1857 380 L1884 378 L1905 376 L1933 375 L1968 371 L1982 368 L1995 366 L2014 363 L2032 361 L2052 359 L2070 357 L2090 355 L2110 353 L2131 351 L2148 349 L2166 347 L2187 344 L2207 342 L2225 339 L2244 337 L2264 334 L2284 332 L2302 330 L2321 328 L2342 326 L2367 324 L2382 322 L2399 320 L2418 318 L2438 316 L2457 313 L2476 310 L2496 307 L2517 304 L2534 301 L2553 298 L2574 295 L2594 293 L2611 291 L2630 289 L2651 288 L2669 287 L2689 285 L2708 283 L2728 282 L2747 280 L2767 279 L2785 277 L2813 276 L2834 275 L2861 273 L2895 272 L2910 270 L2923 269 L2941 268 L2960 267 L2980 265 L2999 264 L3018 263 L3038 262 L3059 261 L3076 260 L3095 259 L3115 257 L3135 256 L3153 255 L3172 254 L3192 252 L3212 252 L3231 251 L3250 250 L3271 249 L3295 248 L3310 247 L3327 245 L3347 244 L3366 243 L3385 242 L3404 241 L3424 239 L3445 237 L3463 235 L3482 232 L3502 230 L3523 228 L3540 226 L3559 225 L3579 223 L3598 221 L3618 220 L3636 218 L3656 217 L3675 215 L3695 214 L3714 213 L3742 212 L3790 211 L3827 209 L3842 208 L3854 207 L3871 206 L3889 205 L3909 205 L3927 204 L3946 203 L3967 202 L3987 201 L4004 200 L4023 200 L4044 199 L4063 198 L4082 197 L4101 196 L4121 195 L4140 194 L4159 192 L4178 191 L4199 189 L4224 187 L4238 185 L4255 183 L4275 182 L4294 180 L4314 178 L4333 177 L4353 175 L4373 173 L4391 172 L4410 170 L4431 168 L4451 167 L4469 166 L4488 165 L4508 164 L4526 162 L4546 161 L4565 160 L4585 159 L4604 157 L4624 156 L4642 155 L4671 153 L4691 152 L4719 150 L4755 148 L4770 145 L4783 142 L4800 140 L4818 139 L4838 138 L4856 136 L4876 136 L4895 135 L4917 134 L4933 132 L4952 131 L4973 129 L4993 127 L5011 125 L5030 122 L5050 120 L5070 118 L5088 115 L5107 114 L5128 112 L5153 110 L5168 108 L5186 107 L5204 105 L5224 104 L5243 102 L5262 100 L5282 98 L5303 96 L5320 94 L5339 93 L5359 91 L5381 90 L5397 88 L5416 87 L5436 86 L5455 84 L5475 83 L5494 82 L5513 80 L5533 79 L5552 78 L5571 77 L5599 997 L5619 995 L5647 994 L5683 991 L5697 69 L5711 67 L5728 65 L5746 65 L5766 64 L5784 63 L5804 62 L5824 60 L5845 58 L5862 56 L5880 54 L5901 53 L5921 50 L5939 48 L5958 45 L5978 43 L5999 41 L6016 40 L6035 38 L6057 37 L6082 35 L6097 32 L6126 30 L6166 27 L6189 24 L6218 21 L6235 18 L6249 16 L6268 15 L6288 13 L6309 12 L6326 11 L6345 9 L6365 8 L6384 7 L6403 7 L6422 6 L6442 5 L6462 4 L6481 2 L6500 1" />
</svg>
