<svg xmlns="http://www.w3.org/2000/svg" version="1.1" viewBox="0 0 6500 1000">
	<path fill="none" stroke="gold" stroke-width="125" stroke-linecap="round" stroke-linejoin="round" d="M0 1016  L-718545 1016 L-715941 1015 L-714273 1015 L-695943 1015 L-695773 1015 L-688615 1015 L-688582 1015 L-675151 1015 L-672229 1015 L-658888 1015 L-654719 1015 L-653559 1014 L-652940 1014 L-650928 1014 L-647157 1014 L-646557 1014 L-646228 1014 L-646015 1014 L-645473 1013 L-644235 1013 L-643056 1013 L-640192 1012 L-639670 1012 L-634814 1012 L-631877 1012 L-631834 1011 L-631525 1011 L-631274 1011 L-628679 1011 L-624423 1011 L-624405 1011 L-623168 1011 L-621291 1011 L-619338 1011 L-618390 1011 L-618119 1011 L-617809 1011 L-617711 1011 L-616880 1011 L-614850 1011 L-614559 1010 L-612413 1010 L-612257 1010 L-608601 1009 L-608350 1010 L-608251 1009 L-607734 1010 L-605583 1010 L-604654 1010 L-603128 1010 L-601889 1010 L-600342 1010 L-597380 1010 L-596259 1010 L-595949 1010 L-594738 1010 L-591732 1011 L-591712 1011 L-591365 1010 L-591151 1010 L-591025 1010 L-590784 1010 L-590746 1009 L-590726 1009 L-590707 1009 L-590648 1009 L-590589 1009 L-590571 1009 L-590128 1009 L-588889 1009 L-587343 1009 L-583955 1008 L-578229 1008 L-578027 1008 L-576392 1008 L-574670 1008 L-573238 1008 L-573005 1008 L-572290 1008 L-566158 1008 L-565790 1008 L-565636 1008 L-565057 1008 L-564765 1008 L-563797 1008 L-563488 1007 L-562889 1007 L-561282 1007 L-560547 1007 L-560238 1007 L-559469 1007 L-557433 1007 L-557008 1007 L-556195 1007 L-548767 1007 L-548244 1007 L-548070 1007 L-547335 1007 L-545767 1007 L-545362 1006 L-543137 1006 L-542189 1006 L-541764 1006 L-541434 1006 L-540390 1006 L-538282 1006 L-538029 1006 L-537411 1006 L-536598 1006 L-534490 1006 L-534441 1006 L-532513 1005 L-532188 1005 L-532053 1005 L-531549 1005 L-530137 1005 L-529634 1005 L-529112 1005 L-525552 1005 L-524817 1004 L-522392 1004 L-521103 1004 L-520696 1004 L-517544 1004 L-517389 1004 L-517368 1004 L-517002 1004 L-515744 1004 L-515029 1004 L-514139 1004 L-513732 1004 L-512803 1004 L-511695 1004 L-511391 1004 L-505142 1005 L-504195 1005 L-502569 1005 L-502067 1005 L-498392 1005 L-497559 1005 L-493606 1005 L-492194 1005 L-489705 1005 L-489028 1005 L-488990 1005 L-488119 1005 L-484908 1005 L-482045 1004 L-481077 1004 L-479955 1004 L-479936 1004 L-478311 1004 L-477847 1004 L-477755 1004 L-471386 1004 L-470437 1004 L-467980 1004 L-467108 1004 L-465872 1004 L-463871 1003 L-463473 1003 L-462037 1003 L-460011 1003 L-459797 1003 L-458617 1003 L-457109 1003 L-457089 1003 L-455076 1003 L-454207 1003 L-453336 1003 L-452751 1003 L-452214 1003 L-451556 1002 L-450318 1002 L-449758 1002 L-448577 1002 L-447339 1002 L-447300 1002 L-446914 1002 L-446372 1002 L-445598 1002 L-444476 1002 L-442387 1002 L-442053 1002 L-441768 1001 L-440839 1001 L-440356 1001 L-439620 1001 L-435989 1001 L-434862 1001 L-434707 1001 L-433681 1001 L-429966 1001 L-428749 1001 L-426930 1001 L-424145 1001 L-423583 1001 L-419695 1001 L-417219 1001 L-415884 1001 L-415380 1000 L-414897 1000 L-412208 1000 L-408436 1000 L-405979 1000 L-404799 1000 L-404160 1000 L-401801 1000 L-401723 1000 L-400676 1000 L-400582 1000 L-400079 1000 L-399634 1000 L-399576 1000 L-399362 1000 L-396403 1000 L-393695 1000 L-393540 1000 L-390020 1000 L-389497 1000 L-388529 1000 L-388180 999 L-387137 999 L-386208 999 L-385782 999 L-384273 999 L-383306 999 L-383288 999 L-381392 995 L-381276 991 L-381228 987 L-381203 983 L-378199 983 L-376168 983 L-374408 983 L-374040 983 L-373595 983 L-373228 983 L-372814 983 L-370829 982 L-370616 982 L-370461 982 L-368856 982 L-367734 982 L-366786 982 L-365528 982 L-363884 982 L-362704 982 L-356115 982 L-356068 982 L-355662 982 L-354617 982 L-354482 982 L-352799 982 L-352779 982 L-351443 981 L-350206 981 L-350052 981 L-349678 981 L-349472 981 L-349162 981 L-348389 981 L-346067 981 L-345409 981 L-343282 981 L-341559 981 L-341366 981 L-338812 981 L-338536 981 L-338348 980 L-337515 980 L-336743 980 L-336045 980 L-331044 980 L-330668 980 L-326415 980 L-325928 986 L-325909 986 L-325830 985 L-325755 985 L-325735 980 L-324922 980 L-324168 980 L-322949 980 L-321517 980 L-321421 980 L-321247 980 L-320892 979 L-319583 979 L-317726 979 L-316023 979 L-315521 979 L-315255 979 L-314862 979 L-314728 979 L-313818 979 L-313442 979 L-312513 979 L-312174 979 L-312135 979 L-312097 979 L-310181 979 L-310008 979 L-308479 979 L-308151 979 L-308035 979 L-307628 979 L-307279 979 L-305636 978 L-305085 978 L-304842 978 L-304300 978 L-303469 978 L-302927 978 L-301393 978 L-301301 978 L-301264 978 L-301128 978 L-300740 978 L-299716 978 L-297839 978 L-297743 978 L-297143 979 L-296776 981 L-296291 983 L-296253 985 L-295479 985 L-295422 985 L-295247 985 L-295053 985 L-293448 985 L-293428 985 L-293273 985 L-293158 985 L-291978 985 L-291823 985 L-291156 985 L-288708 989 L-286193 994 L-283523 998 L-275824 1003 L-270156 1003 L-267942 1003 L-267919 1003 L-266945 1004 L-266925 1004 L-266061 1004 L-263321 1004 L-257522 1003 L-257369 1002 L-254583 1002 L-240975 1002 L-240229 1002 L-235818 1002 L-219472 1002 L-219240 1002 L-218703 1002 L-210243 1002 L-201538 1002 L-201325 1002 L-199353 1002 L-196567 1002 L-192079 1002 L-191924 1002 L-191755 1002 L-191615 1002 L-191324 1001 L-191286 1001 L-191015 1001 L-190843 1001 L-190433 1001 L-189312 1001 L-188132 1001 L-186855 1001 L-183991 1001 L-181071 1001 L-179079 1001 L-177531 1001 L-174494 1001 L-165169 1001 L-164645 1001 L-158921 1001 L-157414 1001 L-156600 1001 L-154916 1001 L-154195 1000 L-154027 1000 L-152981 1000 L-150914 1000 L-149552 1000 L-145109 1000 L-145012 1000 L-144973 1000 L-144954 1000 L-144122 1000 L-144044 1000 L-141471 1000 L-138222 1000 L-138067 1000 L-137119 1000 L-135378 1000 L-134662 1000 L-131122 1000 L-124544 1000 L-123127 1001 L-123106 1001 L-122156 1001 L-118681 1001 L-117928 1001 L-117366 1001 L-116584 1001 L-109080 1000 L-107482 1000 L-105908 1000 L-102723 1000 L-98390 1000 L-89820 1000 L-81073 1000 L-78000 1000 L-74734 1000 L-74187 1000 L-67050 1000 L-61382 1000 L-47318 1000 L-41306 1000 L-36600 1000 L-32597 1000 L-27489 1000 L-17775 1000 L-2205 1000 L877 999 L1179 975 L1199 945 L1218 911 L1237 873 L1257 855 L1276 841 L1295 827 L1322 814 L1343 801 L1371 787 L1407 772 L1420 760 L1433 749 L1452 740 L1470 733 L1490 726 L1508 719 L1528 712 L1548 705 L1569 698 L1586 691 L1604 684 L1625 677 L1645 671 L1663 663 L1682 656 L1702 648 L1722 641 L1740 634 L1759 627 L1780 620 L1805 613 L1820 607 L1837 601 L1857 595 L1876 588 L1895 582 L1914 575 L1934 569 L1955 562 L1973 556 L1991 551 L2012 546 L2033 541 L2050 536 L2069 532 L2089 528 L2108 524 L2127 520 L2146 517 L2166 514 L2186 511 L2205 508 L2223 505 L2251 502 L2272 498 L2300 494 L2334 489 L2348 485 L2361 482 L2380 479 L2399 476 L2418 473 L2437 470 L2456 467 L2476 464 L2497 461 L2514 458 L2533 455 L2553 452 L2573 449 L2592 445 L2610 441 L2630 437 L2650 432 L2669 428 L2688 424 L2709 419 L2733 413 L2748 408 L2765 403 L2785 398 L2804 393 L2824 388 L2842 383 L2863 378 L2883 373 L2901 368 L2920 363 L2940 358 L2961 354 L2978 349 L2997 345 L3017 341 L3036 338 L3056 334 L3075 330 L3094 327 L3114 323 L3133 320 L3152 316 L3181 312 L3201 309 L3228 306 L3266 302 L3281 298 L3293 294 L3310 291 L3327 288 L3347 286 L3366 284 L3385 282 L3405 280 L3425 278 L3443 275 L3462 273 L3482 271 L3502 268 L3520 265 L3539 262 L3559 259 L3579 256 L3598 253 L3616 250 L3637 247 L3662 243 L3676 240 L3694 237 L3714 234 L3733 231 L3752 227 L3771 224 L3791 220 L3811 217 L3830 214 L3849 211 L3869 208 L3889 205 L3907 202 L3926 200 L3946 197 L3964 194 L3984 191 L4003 189 L4023 186 L4042 184 L4062 181 L4081 179 L4109 176 L4129 174 L4157 171 L4193 167 L4207 163 L4220 159 L4238 156 L4256 154 L4276 152 L4294 150 L4314 147 L4334 144 L4355 141 L4373 138 L4390 135 L4411 131 L4431 128 L4449 124 L4468 120 L4488 115 L4508 112 L4526 108 L4545 105 L4566 103 L4591 101 L4606 99 L4623 97 L4642 95 L4662 93 L4681 90 L4700 88 L4720 86 L4741 85 L4758 83 L4777 81 L4798 79 L4819 76 L4835 74 L4854 71 L4875 70 L4893 69 L4913 67 L4932 66 L4952 65 L4971 63 L4990 62 L5009 60 L5037 59 L5058 58 L5085 56 L5120 54 L5134 53 L5147 52 L5166 50 L5184 49 L5204 48 L5223 47 L5242 46 L5262 45 L5283 44 L5300 43 L5319 42 L5340 41 L5359 40 L5377 38 L5396 37 L5416 36 L5436 35 L5455 34 L5474 33 L5495 32 L5520 31 L5534 30 L5551 29 L5571 28 L5590 27 L5610 26 L5629 25 L5648 24 L5669 23 L5687 21 L5706 20 L5726 19 L5747 19 L5764 18 L5783 17 L5803 16 L5822 15 L5842 14 L5860 13 L5880 13 L5900 12 L5919 11 L5938 12 L5967 13 L5986 15 L6014 16 L6052 15 L6067 14 L6079 13 L6097 12 L6113 12 L6133 11 L6151 11 L6171 10 L6191 9 L6212 9 L6229 8 L6247 8 L6268 7 L6288 7 L6306 6 L6325 5 L6345 5 L6365 4 L6383 3 L6402 3 L6423 2 L6448 2 L6463 1 L6480 1 L6500 0" />
</svg>
