<svg xmlns="http://www.w3.org/2000/svg" version="1.1" viewBox="0 0 6500 1000">
	<path fill="none" stroke="gold" stroke-width="125" stroke-linecap="round" stroke-linejoin="round" d="M0 1016  L-718125 1016 L-715521 1016 L-713853 1016 L-695523 1015 L-695353 1015 L-688195 1015 L-688162 1015 L-674731 1015 L-671809 1015 L-658468 1015 L-654299 1015 L-653139 1015 L-652520 1014 L-650508 1014 L-646737 1014 L-646136 1014 L-645808 1014 L-645595 1014 L-645053 1014 L-643815 1013 L-642636 1013 L-639772 1012 L-639249 1012 L-634394 1012 L-631457 1012 L-631414 1012 L-631105 1011 L-630854 1011 L-628259 1011 L-624003 1011 L-623985 1011 L-622748 1011 L-620871 1011 L-618917 1011 L-617969 1011 L-617699 1011 L-617389 1011 L-617291 1011 L-616460 1011 L-614430 1011 L-614139 1010 L-611993 1010 L-611837 1010 L-608181 1009 L-607930 1010 L-607831 1010 L-607314 1010 L-605163 1010 L-604234 1010 L-602708 1011 L-601469 1011 L-599922 1010 L-596960 1010 L-595839 1010 L-595529 1010 L-594318 1010 L-591311 1011 L-591292 1011 L-590944 1011 L-590731 1011 L-590605 1010 L-590364 1010 L-590326 1010 L-590306 1009 L-590287 1009 L-590228 1009 L-590169 1009 L-590151 1009 L-589708 1009 L-588469 1009 L-586923 1009 L-583535 1009 L-577809 1009 L-577607 1008 L-575972 1008 L-574250 1008 L-572818 1008 L-572585 1008 L-571870 1008 L-565738 1008 L-565370 1008 L-565216 1008 L-564637 1008 L-564345 1008 L-563377 1008 L-563068 1007 L-562469 1007 L-560862 1007 L-560127 1007 L-559817 1007 L-559049 1007 L-557013 1007 L-556588 1007 L-555775 1007 L-548347 1007 L-547824 1007 L-547650 1007 L-546915 1007 L-545347 1007 L-544942 1007 L-542717 1006 L-541769 1006 L-541344 1006 L-541013 1006 L-539970 1006 L-537862 1006 L-537609 1006 L-536991 1006 L-536178 1006 L-534070 1006 L-534021 1006 L-532093 1006 L-531767 1005 L-531632 1005 L-531129 1005 L-529717 1005 L-529214 1005 L-528692 1005 L-525132 1005 L-524397 1004 L-521972 1004 L-520683 1004 L-520276 1004 L-517123 1004 L-516969 1004 L-516948 1004 L-516582 1004 L-515324 1004 L-514609 1004 L-513719 1004 L-513312 1004 L-512383 1004 L-511275 1004 L-510971 1005 L-504722 1005 L-503775 1005 L-502149 1005 L-501647 1005 L-497971 1005 L-497139 1005 L-493186 1005 L-491774 1005 L-489285 1005 L-488608 1005 L-488570 1005 L-487699 1005 L-484488 1005 L-481625 1005 L-480657 1004 L-479535 1004 L-479516 1004 L-477891 1004 L-477427 1004 L-477335 1004 L-470966 1004 L-470017 1004 L-467560 1004 L-466688 1004 L-465452 1004 L-463451 1004 L-463053 1003 L-461617 1003 L-459591 1003 L-459377 1003 L-458197 1003 L-456689 1003 L-456669 1003 L-454656 1003 L-453787 1003 L-452916 1003 L-452331 1003 L-451794 1003 L-451136 1002 L-449898 1002 L-449338 1002 L-448157 1002 L-446919 1002 L-446880 1002 L-446493 1002 L-445952 1002 L-445178 1002 L-444056 1002 L-441967 1002 L-441633 1002 L-441348 1002 L-440419 1001 L-439936 1001 L-439200 1001 L-435569 1001 L-434442 1001 L-434287 1001 L-433261 1001 L-429546 1001 L-428329 1001 L-426510 1001 L-423725 1001 L-423163 1001 L-419275 1001 L-416799 1001 L-415464 1001 L-414960 1000 L-414477 1000 L-411788 1000 L-408016 1000 L-405559 1000 L-404379 1000 L-403740 1000 L-401380 1000 L-401303 1000 L-400256 1000 L-400162 1000 L-399659 1000 L-399214 1000 L-399156 1000 L-398942 1000 L-395983 1000 L-393275 1000 L-393120 1000 L-389600 1000 L-389077 1000 L-388109 1000 L-387760 999 L-386717 999 L-385788 999 L-385362 999 L-383853 999 L-382886 999 L-382867 999 L-380971 995 L-380856 991 L-380808 987 L-380783 983 L-377779 983 L-375748 983 L-373988 983 L-373620 983 L-373175 982 L-372808 982 L-372394 982 L-370409 982 L-370196 982 L-370041 982 L-368436 982 L-367314 982 L-366366 982 L-365108 982 L-363464 982 L-362284 982 L-355695 982 L-355648 982 L-355242 982 L-354197 982 L-354062 982 L-352379 981 L-352359 981 L-351022 981 L-349786 981 L-349632 981 L-349258 981 L-349052 981 L-348742 981 L-347969 981 L-345647 981 L-344989 981 L-342862 981 L-341139 981 L-340946 981 L-338392 980 L-338116 980 L-337928 980 L-337095 980 L-336323 980 L-335625 980 L-330624 980 L-330248 980 L-325995 980 L-325508 985 L-325489 985 L-325410 985 L-325335 985 L-325315 980 L-324502 980 L-323748 979 L-322529 979 L-321097 979 L-321001 979 L-320827 979 L-320472 979 L-319163 979 L-317306 979 L-315603 979 L-315101 979 L-314835 979 L-314442 979 L-314308 979 L-313398 979 L-313022 979 L-312093 979 L-311754 979 L-311715 979 L-311677 979 L-309761 979 L-309588 979 L-308059 979 L-307731 978 L-307615 978 L-307207 978 L-306859 978 L-305216 978 L-304665 978 L-304422 978 L-303880 978 L-303049 978 L-302507 978 L-300973 978 L-300880 978 L-300844 978 L-300708 978 L-300320 978 L-299296 977 L-297419 977 L-297323 977 L-296723 979 L-296355 981 L-295871 983 L-295833 985 L-295059 985 L-295001 985 L-294827 985 L-294633 985 L-293028 985 L-293008 984 L-292853 985 L-292738 985 L-291558 985 L-291403 985 L-290736 985 L-288288 989 L-285773 994 L-283103 998 L-275404 1003 L-269736 1003 L-267522 1003 L-267499 1003 L-266525 1004 L-266505 1004 L-265641 1004 L-262901 1004 L-257102 1003 L-256949 1002 L-254163 1002 L-240555 1002 L-239809 1002 L-235398 1002 L-219052 1002 L-218820 1002 L-218283 1002 L-209823 1002 L-201118 1002 L-200905 1002 L-198933 1002 L-196147 1002 L-191659 1002 L-191504 1002 L-191335 1002 L-191195 1002 L-190904 1002 L-190865 1001 L-190595 1001 L-190423 1001 L-190013 1001 L-188892 1001 L-187712 1001 L-186435 1001 L-183571 1001 L-180651 1001 L-178659 1001 L-177111 1001 L-174073 1001 L-164749 1001 L-164225 1001 L-158501 1001 L-156994 1001 L-156180 1001 L-154496 1001 L-153775 1000 L-153606 1000 L-152561 1000 L-150494 1000 L-149132 1000 L-144689 1000 L-144592 1000 L-144553 1000 L-144534 1000 L-143701 1000 L-143624 1000 L-141051 1000 L-137802 1000 L-137647 1000 L-136699 1000 L-134958 1000 L-134242 1000 L-130702 1000 L-124124 1000 L-122707 1001 L-122686 1001 L-121736 1001 L-118261 1001 L-117508 1001 L-116946 1001 L-116164 1001 L-108660 1000 L-107062 1000 L-105488 1000 L-102303 1000 L-97969 1000 L-89400 1000 L-80653 1000 L-77580 1000 L-74314 1000 L-73767 1000 L-66630 1000 L-60962 1000 L-46898 1000 L-40886 1000 L-36180 1000 L-32177 1000 L-27069 1000 L-17355 1000 L-1785 1000 L1297 999 L1599 975 L1619 944 L1638 910 L1657 871 L1677 854 L1696 839 L1715 825 L1743 812 L1763 799 L1791 785 L1827 770 L1840 757 L1853 746 L1872 737 L1890 730 L1910 723 L1928 716 L1948 709 L1968 702 L1989 695 L2006 687 L2024 680 L2045 674 L2065 667 L2083 660 L2102 652 L2122 644 L2142 637 L2160 629 L2179 623 L2201 616 L2225 609 L2240 603 L2257 596 L2277 590 L2296 584 L2315 577 L2334 570 L2354 564 L2375 557 L2393 551 L2411 546 L2432 541 L2453 536 L2470 531 L2489 527 L2509 523 L2528 519 L2547 515 L2566 511 L2586 508 L2606 506 L2625 503 L2643 500 L2671 496 L2692 492 L2720 488 L2754 483 L2768 479 L2781 476 L2800 473 L2819 470 L2839 467 L2857 464 L2876 461 L2896 458 L2917 455 L2934 452 L2953 449 L2973 446 L2993 443 L3012 439 L3030 435 L3050 430 L3070 426 L3089 422 L3108 417 L3129 412 L3153 407 L3168 401 L3185 396 L3205 391 L3224 387 L3244 381 L3263 376 L3283 371 L3303 365 L3321 360 L3340 355 L3360 351 L3381 346 L3398 342 L3417 338 L3437 334 L3456 330 L3476 326 L3495 323 L3515 319 L3534 315 L3553 312 L3572 308 L3601 305 L3621 301 L3648 298 L3686 294 L3701 290 L3713 286 L3730 283 L3747 280 L3767 278 L3786 276 L3805 274 L3825 272 L3846 270 L3863 267 L3882 265 L3902 262 L3922 260 L3940 257 L3959 254 L3979 251 L3999 248 L4018 244 L4036 241 L4057 238 L4082 235 L4096 232 L4114 228 L4134 225 L4153 222 L4172 218 L4191 215 L4211 211 L4231 208 L4250 205 L4269 202 L4289 199 L4309 196 L4327 193 L4346 190 L4366 188 L4385 185 L4404 182 L4423 180 L4443 177 L4462 174 L4482 172 L4501 169 L4529 167 L4549 164 L4577 161 L4613 157 L4627 153 L4640 150 L4658 147 L4676 145 L4696 143 L4714 140 L4734 137 L4754 135 L4775 132 L4793 128 L4810 125 L4831 121 L4851 118 L4869 114 L4888 110 L4908 105 L4928 101 L4946 98 L4965 95 L4986 92 L5011 90 L5026 89 L5043 87 L5062 84 L5082 82 L5101 80 L5120 78 L5140 76 L5161 74 L5178 73 L5197 71 L5218 68 L5239 66 L5255 63 L5275 61 L5295 59 L5313 58 L5333 57 L5352 56 L5372 54 L5391 53 L5411 51 L5429 50 L5457 48 L5478 47 L5505 46 L5540 44 L5554 42 L5567 41 L5586 40 L5605 39 L5624 37 L5643 36 L5662 35 L5682 34 L5703 33 L5720 32 L5739 31 L5760 30 L5779 29 L5798 27 L5816 26 L5836 25 L5857 24 L5875 23 L5894 22 L5915 21 L5940 20 L5954 19 L5971 18 L5991 17 L6010 16 L6030 15 L6049 14 L6068 13 L6089 11 L6107 10 L6126 9 L6146 8 L6167 7 L6184 6 L6203 5 L6223 5 L6242 4 L6262 3 L6280 2 L6300 1 L6320 1 L6339 0 L6358 1 L6387 2 L6406 3 L6434 4 L6472 3 L6487 3 L6500 2" />
</svg>
