<svg xmlns="http://www.w3.org/2000/svg" version="1.1" viewBox="0 0 6500 1000">
	<path fill="none" stroke="gold" stroke-width="125" stroke-linecap="round" stroke-linejoin="round" d="M0 31952  L-258708 31952 L-256104 31817 L-254436 31682 L-236107 31411 L-235936 31140 L-228779 30870 L-228745 30870 L-215315 30734 L-212393 30870 L-199052 30464 L-194883 29922 L-193723 29246 L-193104 28569 L-191092 28163 L-187320 27893 L-186720 27622 L-186391 27351 L-186178 27081 L-185636 26810 L-184398 25728 L-183220 24645 L-180355 23562 L-179833 22480 L-174977 22209 L-172040 21939 L-171997 21668 L-171689 21397 L-171437 21127 L-168842 20856 L-164587 20856 L-164569 20856 L-163332 20856 L-161454 20856 L-159501 20585 L-158553 20315 L-158282 20044 L-157972 19909 L-157874 19774 L-157044 19774 L-155013 19909 L-154723 18691 L-152576 18150 L-152421 17338 L-148764 16526 L-148513 16932 L-148415 16797 L-147898 17202 L-145746 17879 L-144818 18556 L-143292 19232 L-142052 19232 L-140506 19097 L-137544 18826 L-136422 18556 L-136113 18285 L-134902 18150 L-131895 19638 L-131875 19503 L-131528 19368 L-131315 19232 L-131189 17338 L-130947 17067 L-130909 16797 L-130889 16526 L-130870 16255 L-130811 15985 L-130753 15714 L-130735 15443 L-130292 15173 L-129052 14902 L-127506 14631 L-124119 14361 L-118392 14225 L-118191 14090 L-116555 13955 L-114833 13820 L-113401 13684 L-113169 13549 L-112453 13414 L-106321 13278 L-105953 13008 L-105799 12737 L-105221 12466 L-104928 12196 L-103961 11925 L-103651 11654 L-103052 11384 L-101446 11384 L-100711 11384 L-100401 11519 L-99633 11519 L-97597 11248 L-97171 10978 L-96359 10843 L-88930 10572 L-88407 10301 L-88234 10031 L-87498 9760 L-85931 9489 L-85525 9354 L-83300 9083 L-82352 8948 L-81927 8813 L-81597 8813 L-80553 8677 L-78445 8407 L-78193 8136 L-77574 7866 L-76761 7730 L-74653 7460 L-74605 7189 L-72677 6918 L-72351 6648 L-72216 6377 L-71713 6242 L-70300 5971 L-69797 5430 L-69275 5024 L-65716 4483 L-64981 3941 L-62556 3941 L-61266 3671 L-60859 3535 L-57707 3535 L-57552 3535 L-57532 3671 L-57165 3671 L-55907 3806 L-55192 3941 L-54302 3941 L-53895 3941 L-52967 3941 L-51858 3806 L-51555 4347 L-45306 4618 L-44359 4889 L-42732 5159 L-42231 5294 L-38555 5430 L-37723 5565 L-33769 5700 L-32358 5294 L-29868 5024 L-29192 4753 L-29153 4618 L-28282 4618 L-25071 4483 L-22208 4347 L-21240 4212 L-20119 3941 L-20100 3671 L-18475 3400 L-18010 2994 L-17918 2859 L-11549 2723 L-10601 2588 L-8144 2453 L-7271 2182 L-6035 2047 L-4034 1912 L-3636 1641 L-2200 1370 L-174 1235 L38 964 L1218 829 L2727 694 L2747 558 L4759 423 L5629 152 L6500 17" />
</svg>
