<svg xmlns="http://www.w3.org/2000/svg" version="1.1" viewBox="0 0 6500 1000">
	<path fill="none" stroke="gold" stroke-width="125" stroke-linecap="round" stroke-linejoin="round" d="M0 80016  L-368763 80016 L-366159 79891 L-364491 79765 L-346161 79515 L-345991 79265 L-338833 79015 L-338800 79015 L-325369 78889 L-322447 79015 L-309106 78639 L-304937 78138 L-303777 77513 L-303158 76887 L-301146 76511 L-297375 76261 L-296774 76011 L-296446 75760 L-296233 75510 L-295691 75260 L-294453 74259 L-293274 73257 L-290410 72256 L-289887 71255 L-285032 71005 L-282095 70754 L-282052 70504 L-281743 70254 L-281492 70003 L-278897 69753 L-274641 69753 L-274623 69753 L-273386 69753 L-271509 69753 L-269555 69503 L-268607 69252 L-268337 69002 L-268027 68877 L-267929 68752 L-267098 68752 L-265068 68877 L-264777 67750 L-262631 67250 L-262475 66499 L-258819 65748 L-258568 66123 L-258469 65998 L-257952 66374 L-255801 67000 L-254872 67625 L-253346 68251 L-252107 68251 L-250560 68126 L-247598 67876 L-246477 67625 L-246167 67375 L-244956 67250 L-241949 68627 L-241930 68501 L-241582 68376 L-241369 68251 L-241243 66499 L-241002 66249 L-240964 65998 L-240944 65748 L-240925 65498 L-240866 65247 L-240807 64997 L-240789 64747 L-240346 64496 L-239107 64246 L-237561 63996 L-234173 63745 L-228447 63620 L-228245 63495 L-226610 63370 L-224888 63245 L-223456 63120 L-223223 62994 L-222508 62869 L-216376 62744 L-216008 62494 L-215854 62244 L-215275 61993 L-214983 61743 L-214015 61493 L-213706 61242 L-213107 60992 L-211500 60992 L-210765 60992 L-210455 61117 L-209687 61117 L-207651 60867 L-207226 60617 L-206413 60491 L-198985 60241 L-198462 59991 L-198288 59740 L-197553 59490 L-195985 59240 L-195580 59115 L-193355 58864 L-192407 58739 L-191982 58614 L-191651 58614 L-190608 58489 L-188500 58239 L-188247 57988 L-187628 57738 L-186816 57613 L-184708 57362 L-184659 57112 L-182731 56862 L-182405 56612 L-182270 56361 L-181767 56236 L-180355 55986 L-179852 55485 L-179330 55110 L-175770 54609 L-175035 54108 L-172610 54108 L-171321 53858 L-170914 53733 L-167761 53733 L-167607 53733 L-167586 53858 L-167220 53858 L-165962 53983 L-165247 54108 L-164357 54108 L-163950 54108 L-163021 54108 L-161913 53983 L-161609 54484 L-155360 54734 L-154413 54984 L-152787 55235 L-152285 55360 L-148609 55485 L-147777 55610 L-143824 55735 L-142412 55360 L-139923 55110 L-139246 54859 L-139208 54734 L-138337 54734 L-135126 54609 L-132263 54484 L-131295 54359 L-130173 54108 L-130154 53858 L-128529 53608 L-128065 53232 L-127973 53107 L-121604 52982 L-120655 52857 L-118198 52732 L-117326 52481 L-116090 52356 L-114089 52231 L-113691 51981 L-112255 51730 L-110229 51605 L-110015 51355 L-108835 51230 L-107327 51105 L-107307 50979 L-105294 50854 L-104425 50604 L-103554 50479 L-102969 50229 L-102432 49978 L-101774 49728 L-100536 49478 L-99976 49352 L-98794 49227 L-97557 49102 L-97518 48977 L-97131 48852 L-96590 48602 L-95816 48476 L-94694 48351 L-92605 48101 L-92271 47851 L-91985 47600 L-91057 47475 L-90574 47225 L-89838 47100 L-86207 46974 L-85079 46849 L-84925 46724 L-83899 46474 L-80184 46349 L-78967 46098 L-77148 45848 L-74362 45723 L-73801 45473 L-69913 45473 L-67437 45347 L-66102 45347 L-65598 45222 L-65115 45097 L-62426 45097 L-58654 45097 L-56197 45097 L-55017 45097 L-54378 44972 L-52018 44722 L-51941 44596 L-50894 44471 L-50800 44221 L-50297 44221 L-49852 44221 L-49794 44221 L-49580 44221 L-46621 43971 L-43913 43846 L-43758 43720 L-40238 43595 L-39715 43345 L-38747 43095 L-38398 42969 L-37355 42719 L-36426 42469 L-36000 42344 L-34491 42344 L-33524 42219 L-33505 42093 L-31609 32957 L-31493 23570 L-31446 14309 L-31421 5047 L-28417 4922 L-26386 4672 L-24625 4546 L-24258 4421 L-23813 4171 L-23446 4046 L-23032 3795 L-21047 3670 L-20834 3670 L-20679 3545 L-19074 3545 L-17952 3420 L-17004 3295 L-15746 3045 L-14102 2919 L-12922 2669 L-6333 2544 L-6286 2419 L-5880 2294 L-4835 2168 L-4700 2043 L-3017 1793 L-2997 1668 L-1660 1418 L-424 1292 L-270 1167 L103 917 L309 792 L619 667 L1392 416 L3714 291 L4372 166 L6500 41" />
</svg>
