<svg xmlns="http://www.w3.org/2000/svg" version="1.1" viewBox="0 0 6500 1000">
	<path fill="none" stroke="gold" stroke-width="125" stroke-linecap="round" stroke-linejoin="round" d="M0 74624  L-399531 74624 L-396927 74513 L-395259 74403 L-376929 74182 L-376759 73961 L-369601 73740 L-369568 73740 L-356137 73629 L-353216 73740 L-339875 73408 L-335706 72966 L-334546 72414 L-333927 71861 L-331915 71530 L-328143 71309 L-327543 71088 L-327214 70867 L-327001 70646 L-326459 70425 L-325221 69541 L-324042 68657 L-321178 67773 L-320656 66889 L-315800 66668 L-312863 66447 L-312820 66226 L-312512 66005 L-312260 65784 L-309665 65563 L-305409 65563 L-305392 65563 L-304155 65563 L-302277 65563 L-300324 65342 L-299376 65121 L-299105 64900 L-298795 64790 L-298697 64679 L-297867 64679 L-295836 64790 L-295545 63795 L-293399 63353 L-293244 62690 L-289587 62027 L-289336 62359 L-289238 62248 L-288721 62580 L-286569 63132 L-285641 63685 L-284115 64237 L-282875 64237 L-281329 64127 L-278367 63906 L-277245 63685 L-276936 63464 L-275724 63353 L-272718 64569 L-272698 64458 L-272351 64348 L-272138 64237 L-272011 62690 L-271770 62469 L-271732 62248 L-271712 62027 L-271693 61806 L-271634 61585 L-271575 61364 L-271557 61143 L-271114 60922 L-269875 60701 L-268329 60480 L-264942 60259 L-259215 60149 L-259014 60038 L-257378 59928 L-255656 59817 L-254224 59707 L-253991 59596 L-253276 59486 L-247144 59375 L-246776 59154 L-246622 58933 L-246043 58712 L-245751 58491 L-244784 58270 L-244474 58049 L-243875 57828 L-242269 57828 L-241534 57828 L-241224 57939 L-240456 57939 L-238419 57718 L-237994 57497 L-237182 57386 L-229753 57165 L-229230 56944 L-229056 56723 L-228321 56502 L-226754 56281 L-226348 56171 L-224123 55950 L-223175 55839 L-222750 55729 L-222420 55729 L-221376 55618 L-219268 55397 L-219016 55176 L-218397 54955 L-217584 54845 L-215476 54624 L-215428 54403 L-213500 54182 L-213174 53961 L-213039 53740 L-212536 53629 L-211123 53408 L-210620 52966 L-210098 52635 L-206539 52193 L-205804 51751 L-203379 51751 L-202089 51530 L-201682 51419 L-198530 51419 L-198375 51419 L-198355 51530 L-197988 51530 L-196730 51640 L-196015 51751 L-195125 51751 L-194718 51751 L-193789 51751 L-192681 51640 L-192378 52082 L-186129 52303 L-185181 52524 L-183555 52745 L-183053 52856 L-179378 52966 L-178545 53077 L-174592 53187 L-173180 52856 L-170691 52635 L-170015 52414 L-169976 52303 L-169105 52303 L-165894 52193 L-163031 52082 L-162063 51972 L-160941 51751 L-160922 51530 L-159297 51309 L-158833 50977 L-158741 50867 L-152372 50756 L-151424 50646 L-148967 50535 L-148094 50314 L-146858 50204 L-144857 50093 L-144459 49872 L-143023 49651 L-140997 49541 L-140784 49320 L-139604 49209 L-138095 49099 L-138075 48988 L-136063 48878 L-135193 48657 L-134322 48546 L-133738 48325 L-133200 48104 L-132543 47883 L-131304 47662 L-130744 47552 L-129563 47441 L-128325 47331 L-128287 47220 L-127900 47110 L-127358 46889 L-126584 46779 L-125462 46668 L-123373 46447 L-123040 46226 L-122754 46005 L-121825 45895 L-121342 45674 L-120607 45563 L-116975 45453 L-115848 45342 L-115693 45232 L-114667 45011 L-110952 44900 L-109735 44679 L-107917 44458 L-105131 44348 L-104569 44127 L-100681 44127 L-98205 44016 L-96870 44016 L-96367 43906 L-95883 43795 L-93194 43795 L-89423 43795 L-86965 43795 L-85786 43795 L-85146 43685 L-82787 43464 L-82709 43353 L-81662 43243 L-81568 43022 L-81065 43022 L-80620 43022 L-80562 43022 L-80349 43022 L-77389 42801 L-74681 42690 L-74527 42580 L-71006 42469 L-70483 42248 L-69516 42027 L-69167 41917 L-68123 41696 L-67194 41475 L-66769 41364 L-65260 41364 L-64293 41254 L-64274 41143 L-62378 33077 L-62262 24790 L-62214 16613 L-62190 8436 L-59185 8325 L-57155 8104 L-55394 7994 L-55027 7883 L-54581 7662 L-54214 7552 L-53800 7331 L-51815 7220 L-51602 7220 L-51447 7110 L-49842 7110 L-48720 7000 L-47772 6889 L-46515 6668 L-44870 6558 L-43690 6337 L-37101 6226 L-37054 6116 L-36649 6005 L-35603 5895 L-35468 5784 L-33786 5563 L-33766 5453 L-32429 5232 L-31193 5121 L-31038 5011 L-30664 4790 L-30458 4679 L-30149 4569 L-29375 4348 L-27053 4237 L-26396 4127 L-24268 4016 L-22545 3906 L-22352 3685 L-19799 3574 L-19522 3353 L-19334 3132 L-18502 3022 L-17729 2911 L-17031 2801 L-12031 2801 L-11655 2580 L-7402 2469 L-6915 13408 L-6895 13408 L-6816 13298 L-6741 13187 L-6721 1917 L-5908 1806 L-5155 1585 L-3936 1475 L-2504 1475 L-2407 1364 L-2233 1364 L-1879 1143 L-569 1033 L1287 922 L2989 701 L3492 591 L3757 480 L4151 370 L4285 259 L5195 149 L5571 38 L6500 38" />
</svg>
