<svg xmlns="http://www.w3.org/2000/svg" version="1.1" viewBox="0 0 6500 1000">
	<path fill="none" stroke="gold" stroke-width="125" stroke-linecap="round" stroke-linejoin="round" d="M0 3528  L-725762 3528 L-723158 3528 L-721490 3528 L-703160 3528 L-702990 3528 L-695832 3527 L-695799 3527 L-682368 3527 L-679446 3527 L-666106 3527 L-661937 3526 L-660776 3525 L-660157 3525 L-658145 3524 L-654374 3524 L-653774 3523 L-653445 3523 L-653232 3523 L-652690 3523 L-651452 3521 L-650273 3520 L-647409 3519 L-646887 3517 L-642031 3517 L-639094 3517 L-639051 3517 L-638743 3516 L-638491 3516 L-635896 3516 L-631640 3516 L-631622 3516 L-630386 3516 L-628508 3516 L-626555 3515 L-625607 3515 L-625336 3515 L-625026 3514 L-624928 3514 L-624098 3514 L-622067 3514 L-621776 3513 L-619630 3512 L-619474 3512 L-615818 3511 L-615567 3511 L-615469 3511 L-614951 3511 L-612800 3512 L-611871 3513 L-610345 3514 L-609106 3514 L-607559 3514 L-604598 3513 L-603476 3513 L-603167 3513 L-601955 3512 L-598949 3514 L-598929 3514 L-598582 3514 L-598369 3514 L-598242 3512 L-598001 3511 L-597963 3511 L-597943 3511 L-597924 3510 L-597865 3510 L-597806 3510 L-597788 3509 L-597345 3509 L-596106 3509 L-594560 3508 L-591172 3508 L-585446 3508 L-585245 3508 L-583609 3508 L-581887 3507 L-580455 3507 L-580222 3507 L-579507 3507 L-573375 3507 L-573007 3506 L-572853 3506 L-572274 3506 L-571982 3506 L-571014 3505 L-570705 3505 L-570106 3505 L-568500 3505 L-567764 3505 L-567455 3505 L-566686 3505 L-564650 3504 L-564225 3504 L-563412 3504 L-555984 3504 L-555461 3503 L-555287 3503 L-554552 3503 L-552985 3502 L-552579 3502 L-550354 3502 L-549406 3502 L-548981 3502 L-548651 3502 L-547607 3501 L-545499 3501 L-545247 3501 L-544628 3501 L-543815 3500 L-541707 3500 L-541659 3500 L-539730 3499 L-539405 3499 L-539270 3499 L-538766 3499 L-537354 3498 L-536851 3498 L-536329 3497 L-532769 3497 L-532034 3496 L-529609 3496 L-528320 3496 L-527913 3495 L-524761 3495 L-524606 3495 L-524586 3496 L-524219 3496 L-522961 3496 L-522246 3496 L-521356 3496 L-520949 3496 L-520020 3496 L-518912 3496 L-518608 3496 L-512360 3497 L-511412 3497 L-509786 3497 L-509284 3498 L-505609 3498 L-504776 3498 L-500823 3498 L-499411 3498 L-496922 3497 L-496246 3497 L-496207 3497 L-495336 3497 L-492125 3497 L-489262 3496 L-488294 3496 L-487172 3496 L-487153 3496 L-485528 3495 L-485064 3495 L-484972 3495 L-478603 3495 L-477654 3494 L-475197 3494 L-474325 3494 L-473089 3494 L-471088 3494 L-470690 3493 L-469254 3493 L-467228 3493 L-467015 3492 L-465834 3492 L-464326 3492 L-464306 3492 L-462294 3492 L-461424 3492 L-460553 3491 L-459968 3491 L-459431 3491 L-458773 3490 L-457535 3490 L-456975 3490 L-455794 3490 L-454556 3490 L-454518 3490 L-454131 3489 L-453589 3489 L-452815 3489 L-451693 3489 L-449604 3488 L-449270 3488 L-448985 3488 L-448056 3488 L-447573 3487 L-446837 3487 L-443206 3487 L-442079 3487 L-441924 3487 L-440898 3486 L-437183 3486 L-435966 3486 L-434147 3486 L-431362 3485 L-430800 3485 L-426912 3485 L-424436 3485 L-423101 3485 L-422597 3485 L-422114 3485 L-419425 3485 L-415653 3485 L-413196 3485 L-412016 3485 L-411377 3484 L-409018 3484 L-408940 3484 L-407893 3484 L-407799 3484 L-407296 3484 L-406851 3484 L-406793 3484 L-406580 3484 L-403620 3483 L-400912 3483 L-400758 3483 L-397237 3483 L-396714 3482 L-395746 3482 L-395397 3482 L-394354 3482 L-393425 3481 L-393000 3481 L-391491 3481 L-390524 3481 L-390505 3481 L-388609 3469 L-388493 3458 L-388445 3446 L-388420 3434 L-385416 3434 L-383385 3434 L-381625 3434 L-381258 3434 L-380812 3433 L-380445 3433 L-380031 3433 L-378046 3433 L-377833 3433 L-377678 3432 L-376073 3432 L-374951 3432 L-374003 3432 L-372745 3432 L-371101 3432 L-369921 3431 L-363332 3431 L-363285 3431 L-362879 3431 L-361834 3431 L-361699 3431 L-360016 3430 L-359996 3430 L-358660 3430 L-357423 3430 L-357269 3429 L-356895 3429 L-356689 3429 L-356380 3429 L-355606 3429 L-353284 3428 L-352627 3428 L-350499 3428 L-348776 3428 L-348583 3428 L-346029 3427 L-345753 3427 L-345565 3427 L-344732 3427 L-343960 3427 L-343262 3426 L-338261 3426 L-337885 3426 L-333633 3426 L-333145 3441 L-333126 3441 L-333047 3441 L-332972 3441 L-332952 3425 L-332139 3425 L-331386 3425 L-330166 3424 L-328735 3424 L-328638 3424 L-328464 3424 L-328109 3424 L-326800 3424 L-324943 3424 L-323241 3423 L-322738 3423 L-322472 3423 L-322079 3423 L-321945 3423 L-321035 3423 L-320659 3422 L-319730 3422 L-319391 3422 L-319352 3422 L-319314 3422 L-317398 3422 L-317225 3422 L-315696 3422 L-315368 3422 L-315252 3422 L-314845 3421 L-314496 3421 L-312853 3421 L-312302 3421 L-312059 3421 L-311517 3420 L-310686 3420 L-310144 3420 L-308610 3420 L-308518 3419 L-308481 3419 L-308345 3419 L-307958 3419 L-306933 3419 L-305056 3419 L-304960 3419 L-304360 3424 L-303993 3429 L-303508 3434 L-303470 3440 L-302696 3440 L-302639 3440 L-302464 3440 L-302271 3439 L-300665 3439 L-300645 3439 L-300490 3439 L-300375 3439 L-299195 3440 L-299040 3440 L-298373 3440 L-295925 3453 L-293410 3466 L-290741 3479 L-283041 3492 L-277374 3492 L-275159 3491 L-275136 3491 L-274162 3495 L-274142 3495 L-273278 3494 L-270538 3494 L-264740 3491 L-264586 3490 L-261800 3490 L-248192 3490 L-247446 3490 L-243035 3490 L-226689 3489 L-226457 3489 L-225920 3489 L-217460 3489 L-208755 3489 L-208542 3488 L-206570 3488 L-203784 3488 L-199296 3488 L-199141 3488 L-198972 3488 L-198832 3488 L-198541 3488 L-198503 3488 L-198232 3487 L-198060 3487 L-197650 3487 L-196529 3487 L-195349 3487 L-194072 3487 L-191208 3487 L-188288 3486 L-186296 3486 L-184749 3486 L-181711 3486 L-172386 3486 L-171862 3485 L-166138 3485 L-164631 3485 L-163817 3485 L-162133 3485 L-161412 3485 L-161244 3485 L-160199 3484 L-158131 3484 L-156769 3484 L-152326 3484 L-152229 3484 L-152190 3484 L-152171 3484 L-151339 3483 L-151261 3483 L-148688 3483 L-145439 3483 L-145284 3483 L-144336 3482 L-142595 3482 L-141880 3483 L-138339 3484 L-131761 3485 L-130344 3486 L-130323 3486 L-129373 3486 L-125899 3486 L-125145 3485 L-124584 3485 L-123802 3485 L-116297 3485 L-114699 3485 L-113125 3484 L-109940 3484 L-105607 3484 L-97037 3484 L-88291 3484 L-85217 3484 L-81951 3484 L-81404 3483 L-74267 3483 L-68599 3483 L-54535 3483 L-48524 3483 L-43817 3483 L-39814 3483 L-34707 3483 L-24993 3483 L-9422 3482 L-6339 3482 L-6037 3411 L-6017 3324 L-5999 3225 L-5979 3115 L-5959 3064 L-5940 3022 L-5921 2983 L-5894 2944 L-5873 2907 L-5845 2867 L-5810 2824 L-5796 2787 L-5783 2755 L-5764 2728 L-5746 2709 L-5726 2689 L-5708 2669 L-5688 2649 L-5668 2629 L-5647 2608 L-5630 2587 L-5612 2567 L-5591 2548 L-5571 2529 L-5553 2508 L-5534 2486 L-5514 2464 L-5494 2442 L-5476 2421 L-5457 2401 L-5436 2382 L-5411 2363 L-5396 2345 L-5379 2327 L-5359 2308 L-5340 2290 L-5321 2271 L-5302 2251 L-5282 2233 L-5261 2215 L-5244 2198 L-5225 2181 L-5204 2166 L-5184 2152 L-5166 2139 L-5147 2127 L-5127 2115 L-5109 2104 L-5089 2093 L-5070 2083 L-5050 2074 L-5030 2066 L-5011 2057 L-4993 2049 L-4965 2039 L-4944 2028 L-4917 2015 L-4883 2002 L-4868 1991 L-4855 1981 L-4837 1972 L-4818 1964 L-4798 1956 L-4779 1947 L-4760 1938 L-4740 1929 L-4719 1920 L-4702 1912 L-4683 1904 L-4663 1895 L-4643 1885 L-4624 1874 L-4606 1862 L-4586 1850 L-4566 1838 L-4547 1825 L-4528 1812 L-4507 1798 L-4483 1783 L-4468 1768 L-4451 1753 L-4431 1739 L-4412 1725 L-4392 1710 L-4374 1694 L-4353 1679 L-4333 1664 L-4315 1650 L-4296 1636 L-4276 1623 L-4256 1609 L-4238 1596 L-4219 1585 L-4199 1573 L-4180 1563 L-4160 1552 L-4141 1542 L-4122 1532 L-4102 1521 L-4083 1511 L-4064 1500 L-4035 1490 L-4015 1481 L-3988 1471 L-3951 1459 L-3935 1448 L-3923 1437 L-3906 1427 L-3889 1420 L-3869 1413 L-3851 1407 L-3831 1401 L-3811 1396 L-3791 1389 L-3773 1383 L-3755 1376 L-3734 1369 L-3714 1361 L-3696 1353 L-3677 1345 L-3657 1336 L-3637 1326 L-3619 1317 L-3600 1308 L-3579 1299 L-3554 1289 L-3540 1280 L-3522 1271 L-3502 1262 L-3484 1253 L-3464 1243 L-3445 1233 L-3425 1223 L-3405 1213 L-3386 1204 L-3368 1195 L-3347 1186 L-3327 1178 L-3309 1171 L-3290 1163 L-3270 1155 L-3252 1147 L-3232 1139 L-3213 1131 L-3193 1124 L-3174 1117 L-3154 1110 L-3135 1102 L-3107 1095 L-3087 1087 L-3059 1079 L-3023 1067 L-3009 1056 L-2996 1046 L-2978 1037 L-2960 1032 L-2940 1026 L-2922 1018 L-2902 1011 L-2882 1002 L-2861 994 L-2843 984 L-2826 975 L-2805 965 L-2785 954 L-2767 943 L-2748 931 L-2728 919 L-2708 908 L-2690 897 L-2671 888 L-2650 882 L-2625 876 L-2610 870 L-2593 865 L-2574 859 L-2554 852 L-2535 846 L-2516 840 L-2496 834 L-2475 830 L-2458 825 L-2439 820 L-2418 813 L-2398 805 L-2381 797 L-2362 791 L-2341 787 L-2323 783 L-2303 780 L-2284 776 L-2264 772 L-2245 768 L-2226 763 L-2207 759 L-2179 755 L-2158 751 L-2131 747 L-2096 742 L-2082 737 L-2069 734 L-2050 730 L-2032 727 L-2012 724 L-1993 721 L-1974 718 L-1954 715 L-1933 712 L-1916 709 L-1897 706 L-1877 702 L-1857 699 L-1839 695 L-1820 692 L-1800 689 L-1780 686 L-1761 683 L-1743 680 L-1721 677 L-1696 674 L-1682 671 L-1665 669 L-1645 666 L-1626 663 L-1607 660 L-1588 656 L-1568 653 L-1547 649 L-1529 646 L-1510 643 L-1490 641 L-1469 638 L-1452 635 L-1433 632 L-1413 630 L-1394 627 L-1374 624 L-1356 622 L-1336 621 L-1316 619 L-1297 617 L-1278 620 L-1250 623 L-1230 626 L-1202 629 L-1165 626 L-1149 624 L-1137 622 L-1119 620 L-1103 619 L-1083 617 L-1065 615 L-1045 613 L-1025 612 L-1004 610 L-987 609 L-969 607 L-948 605 L-928 603 L-910 602 L-891 600 L-871 598 L-851 596 L-833 594 L-814 593 L-793 591 L-768 590 L-753 588 L-736 586 L-717 584 L-697 582 L-678 581 L-659 579 L-639 576 L-618 574 L-601 571 L-582 569 L-561 566 L-541 564 L-523 562 L-504 560 L-484 558 L-466 556 L-446 553 L-427 551 L-407 548 L-388 546 L-368 545 L-350 543 L-322 541 L-301 539 L-274 537 L-239 534 L-225 532 L-212 530 L-193 528 L-174 526 L-154 524 L-136 523 L-117 521 L-97 519 L-76 517 L-59 515 L-40 513 L-20 511 L0 508 L18 506 L36 503 L56 500 L77 497 L95 494 L113 491 L135 489 L160 486 L175 483 L192 480 L211 477 L231 475 L250 472 L269 469 L289 466 L309 464 L327 461 L346 459 L366 456 L387 454 L404 452 L423 450 L443 449 L462 447 L482 445 L500 444 L520 442 L540 441 L559 439 L578 438 L606 437 L626 435 L654 433 L690 430 L703 428 L716 425 L735 422 L753 421 L773 419 L791 417 L811 416 L831 414 L852 412 L869 410 L887 408 L908 406 L928 404 L946 401 L965 399 L985 397 L1005 395 L1023 393 L1042 391 L1064 389 L1088 387 L1103 386 L1120 384 L1140 382 L1159 380 L1178 378 L1197 375 L1217 372 L1238 369 L1255 366 L1275 364 L1295 361 L1316 359 L1333 358 L1352 356 L1372 355 L1391 354 L1410 352 L1429 351 L1449 349 L1469 348 L1488 347 L1506 345 L1534 344 L1555 343 L1582 341 L1617 340 L1631 339 L1644 338 L1663 337 L1681 335 L1701 334 L1720 333 L1739 332 L1759 331 L1780 331 L1797 329 L1816 328 L1836 327 L1856 326 L1875 325 L1893 324 L1913 323 L1933 322 L1952 321 L1971 320 L1992 320 L2016 319 L2031 318 L2048 316 L2068 315 L2087 314 L2107 313 L2125 312 L2145 311 L2166 309 L2184 307 L2203 304 L2223 302 L2244 300 L2261 299 L2280 297 L2300 296 L2319 294 L2339 293 L2358 291 L2377 290 L2397 289 L2416 288 L2435 287 L2464 286 L2511 285 L2548 284 L2563 282 L2576 281 L2593 280 L2610 280 L2630 279 L2648 279 L2668 278 L2688 277 L2708 276 L2726 275 L2744 275 L2765 274 L2784 273 L2803 272 L2822 271 L2842 270 L2862 269 L2880 268 L2899 267 L2920 265 L2945 263 L2960 262 L2977 260 L2996 258 L3016 257 L3035 255 L3054 254 L3074 252 L3095 251 L3113 249 L3131 248 L3152 246 L3172 245 L3190 244 L3209 243 L3229 242 L3248 241 L3267 240 L3286 239 L3306 238 L3325 236 L3345 235 L3364 234 L3392 233 L3412 232 L3440 230 L3477 228 L3491 225 L3504 223 L3521 221 L3539 220 L3559 219 L3577 218 L3597 217 L3617 216 L3638 215 L3655 214 L3673 212 L3694 211 L3714 209 L3732 207 L3751 205 L3771 203 L3792 200 L3809 199 L3828 197 L3849 195 L3874 194 L3889 192 L3907 191 L3925 189 L3945 188 L3964 186 L3983 184 L4003 183 L4024 181 L4041 179 L4060 178 L4081 177 L4102 175 L4118 174 L4137 173 L4157 172 L4176 170 L4196 169 L4215 168 L4235 167 L4255 166 L4273 165 L4292 164 L4320 997 L4340 996 L4368 994 L4404 992 L4418 156 L4432 155 L4449 153 L4467 152 L4487 152 L4506 151 L4525 150 L4545 148 L4566 147 L4583 145 L4602 143 L4622 142 L4643 140 L4661 137 L4680 135 L4699 133 L4720 131 L4738 130 L4756 129 L4778 127 L4803 125 L4818 123 L4847 121 L4887 118 L4910 116 L4940 113 L4956 111 L4970 109 L4989 107 L5009 106 L5030 105 L5047 104 L5066 102 L5086 101 L5105 101 L5125 100 L5143 99 L5163 98 L5183 97 L5202 96 L5221 95 L5248 94 L5269 93 L5297 92 L5332 90 L5346 89 L5377 88 L5396 87 L5416 86 L5434 85 L5454 84 L5474 84 L5495 83 L5512 82 L5530 80 L5551 77 L5571 73 L5589 69 L5608 65 L5628 62 L5648 60 L5666 57 L5685 56 L5707 54 L5731 53 L5746 51 L5764 50 L5782 48 L5802 47 L5821 45 L5841 44 L5860 42 L5881 40 L5898 38 L5918 37 L5938 36 L5959 34 L5976 33 L5995 32 L6015 31 L6034 30 L6053 29 L6072 28 L6092 27 L6112 25 L6130 25 L6149 24 L6177 23 L6198 22 L6268 19 L6296 17 L6310 14 L6324 12 L6344 10 L6363 9 L6382 8 L6402 6 L6423 5 L6440 4 L6459 3 L6479 2 L6500 1" />
</svg>
