<svg xmlns="http://www.w3.org/2000/svg" version="1.1" viewBox="0 0 6500 1000">
	<path fill="none" stroke="gold" stroke-width="125" stroke-linecap="round" stroke-linejoin="round" d="M0 16530  L-169855 16530 L-167251 16433 L-165583 16336 L-147254 16141 L-147084 15947 L-139926 15753 L-139893 15753 L-126462 15655 L-123540 15753 L-110199 15461 L-106030 15072 L-104870 14586 L-104251 14101 L-102239 13809 L-98467 13615 L-97867 13420 L-97539 13226 L-97326 13032 L-96784 12837 L-95546 12060 L-94367 11282 L-91502 10505 L-90980 9727 L-86125 9533 L-83187 9339 L-83145 9144 L-82836 8950 L-82584 8756 L-79989 8561 L-75734 8561 L-75716 8561 L-74479 8561 L-72602 8561 L-70648 8367 L-69700 8172 L-69429 7978 L-69120 7881 L-69022 7784 L-68191 7784 L-66160 7881 L-65870 7006 L-63724 6618 L-63568 6034 L-59912 5451 L-59661 5743 L-59562 5646 L-59045 5937 L-56894 6423 L-55965 6909 L-54439 7395 L-53199 7395 L-51653 7298 L-48691 7103 L-47569 6909 L-47260 6715 L-46049 6618 L-43042 7687 L-43023 7589 L-42675 7492 L-42462 7395 L-42336 6034 L-42094 5840 L-42056 5646 L-42037 5451 L-42017 5257 L-41959 5063 L-41900 4868 L-41882 4674 L-41439 4480 L-40199 4285 L-38654 4091 L-35266 3896 L-29540 3799 L-29338 3702 L-27702 3605 L-25980 3508 L-24548 3411 L-24316 3313 L-23601 3216 L-17468 3119 L-17101 2925 L-16946 2730 L-16368 2536 L-16075 2342 L-15108 2147 L-14798 1953 L-14199 1758 L-12593 1758 L-11858 1758 L-11548 1856 L-10780 1856 L-8744 1661 L-8319 1467 L-7506 1370 L-77 1175 L445 981 L618 787 L1353 592 L2921 398 L3327 301 L5552 106 L6500 9" />
</svg>
