<svg xmlns="http://www.w3.org/2000/svg" version="1.1" viewBox="0 0 6500 1000">
	<path fill="none" stroke="gold" stroke-width="125" stroke-linecap="round" stroke-linejoin="round" d="M0 1016  L-718142 1016 L-715538 1016 L-713870 1016 L-695541 1015 L-695370 1015 L-688213 1015 L-688179 1015 L-674749 1015 L-671827 1015 L-658486 1015 L-654317 1015 L-653157 1015 L-652538 1014 L-650526 1014 L-646754 1014 L-646154 1014 L-645825 1014 L-645612 1014 L-645070 1014 L-643832 1013 L-642654 1013 L-639789 1012 L-639267 1012 L-634411 1012 L-631474 1012 L-631431 1012 L-631123 1011 L-630871 1011 L-628276 1011 L-624021 1011 L-624003 1011 L-622766 1011 L-620888 1011 L-618935 1011 L-617987 1011 L-617716 1011 L-617406 1011 L-617308 1011 L-616478 1011 L-614447 1011 L-614157 1010 L-612010 1010 L-611855 1010 L-608198 1009 L-607947 1010 L-607849 1010 L-607332 1010 L-605180 1010 L-604252 1010 L-602726 1011 L-601486 1011 L-599940 1010 L-596978 1010 L-595856 1010 L-595547 1010 L-594336 1010 L-591329 1011 L-591309 1011 L-590962 1011 L-590749 1011 L-590623 1010 L-590381 1010 L-590343 1010 L-590323 1009 L-590304 1009 L-590245 1009 L-590187 1009 L-590169 1009 L-589726 1009 L-588486 1009 L-586940 1009 L-583553 1009 L-577826 1009 L-577625 1008 L-575989 1008 L-574267 1008 L-572835 1008 L-572603 1008 L-571887 1008 L-565755 1008 L-565387 1008 L-565233 1008 L-564655 1008 L-564362 1008 L-563395 1008 L-563085 1007 L-562486 1007 L-560880 1007 L-560145 1007 L-559835 1007 L-559067 1007 L-557031 1007 L-556605 1007 L-555793 1007 L-548364 1007 L-547841 1007 L-547668 1007 L-546932 1007 L-545365 1007 L-544959 1007 L-542734 1006 L-541786 1006 L-541361 1006 L-541031 1006 L-539987 1006 L-537879 1006 L-537627 1006 L-537008 1006 L-536195 1006 L-534087 1006 L-534039 1006 L-532111 1006 L-531785 1005 L-531650 1005 L-531147 1005 L-529734 1005 L-529231 1005 L-528709 1005 L-525150 1005 L-524415 1004 L-521990 1004 L-520700 1004 L-520293 1004 L-517141 1004 L-516986 1004 L-516966 1004 L-516599 1004 L-515341 1004 L-514626 1004 L-513736 1004 L-513329 1004 L-512401 1004 L-511292 1004 L-510989 1005 L-504740 1005 L-503793 1005 L-502166 1005 L-501665 1005 L-497989 1005 L-497157 1005 L-493203 1005 L-491792 1005 L-489302 1005 L-488626 1005 L-488587 1005 L-487716 1005 L-484505 1005 L-481642 1005 L-480674 1004 L-479553 1004 L-479534 1004 L-477909 1004 L-477444 1004 L-477353 1004 L-470983 1004 L-470035 1004 L-467578 1004 L-466705 1004 L-465469 1004 L-463468 1004 L-463070 1003 L-461634 1003 L-459608 1003 L-459395 1003 L-458215 1003 L-456706 1003 L-456686 1003 L-454674 1003 L-453804 1003 L-452934 1003 L-452349 1003 L-451812 1003 L-451154 1002 L-449916 1002 L-449355 1002 L-448174 1002 L-446936 1002 L-446898 1002 L-446511 1002 L-445969 1002 L-445196 1002 L-444073 1002 L-441984 1002 L-441651 1002 L-441365 1002 L-440436 1001 L-439953 1001 L-439218 1001 L-435586 1001 L-434459 1001 L-434304 1001 L-433278 1001 L-429564 1001 L-428346 1001 L-426528 1001 L-423742 1001 L-423180 1001 L-419293 1001 L-416816 1001 L-415481 1001 L-414978 1000 L-414495 1000 L-411805 1000 L-408034 1000 L-405576 1000 L-404397 1000 L-403757 1000 L-401398 1000 L-401320 1000 L-400273 1000 L-400179 1000 L-399677 1000 L-399231 1000 L-399173 1000 L-398960 1000 L-396000 1000 L-393293 1000 L-393138 1000 L-389617 1000 L-389094 1000 L-388127 1000 L-387778 999 L-386734 999 L-385805 999 L-385380 999 L-383871 999 L-382904 999 L-382885 999 L-380989 995 L-380873 991 L-380825 987 L-380801 983 L-377796 983 L-375766 983 L-374005 983 L-373638 983 L-373192 982 L-372825 982 L-372411 982 L-370426 982 L-370213 982 L-370058 982 L-368453 982 L-367331 982 L-366383 982 L-365126 982 L-363481 982 L-362302 982 L-355712 982 L-355665 982 L-355260 982 L-354215 982 L-354079 982 L-352397 981 L-352377 981 L-351040 981 L-349804 981 L-349650 981 L-349276 981 L-349069 981 L-348760 981 L-347986 981 L-345665 981 L-345007 981 L-342879 981 L-341157 981 L-340963 981 L-338410 980 L-338133 980 L-337945 980 L-337113 980 L-336340 980 L-335642 980 L-330642 980 L-330266 980 L-326013 980 L-325526 985 L-325507 985 L-325428 985 L-325352 985 L-325332 980 L-324520 980 L-323766 979 L-322547 979 L-321115 979 L-321019 979 L-320844 979 L-320490 979 L-319180 979 L-317323 979 L-315621 979 L-315118 979 L-314853 979 L-314460 979 L-314325 979 L-313416 979 L-313039 979 L-312111 979 L-311772 979 L-311732 979 L-311694 979 L-309779 979 L-309605 979 L-308076 979 L-307748 978 L-307632 978 L-307225 978 L-306877 978 L-305233 978 L-304682 978 L-304439 978 L-303898 978 L-303066 978 L-302525 978 L-300990 978 L-300898 978 L-300861 978 L-300725 978 L-300338 978 L-299313 977 L-297437 977 L-297340 977 L-296740 979 L-296373 981 L-295888 983 L-295850 985 L-295076 985 L-295019 985 L-294844 985 L-294651 985 L-293046 985 L-293026 984 L-292870 985 L-292755 985 L-291575 985 L-291421 985 L-290754 985 L-288306 989 L-285791 994 L-283121 998 L-275422 1003 L-269754 1003 L-267539 1003 L-267516 1003 L-266542 1004 L-266522 1004 L-265659 1004 L-262918 1004 L-257120 1003 L-256966 1002 L-254180 1002 L-240572 1002 L-239826 1002 L-235416 1002 L-219069 1002 L-218837 1002 L-218300 1002 L-209841 1002 L-201135 1002 L-200923 1002 L-198950 1002 L-196164 1002 L-191677 1002 L-191522 1002 L-191353 1002 L-191212 1002 L-190922 1002 L-190883 1001 L-190612 1001 L-190440 1001 L-190030 1001 L-188910 1001 L-187729 1001 L-186453 1001 L-183589 1001 L-180669 1001 L-178677 1001 L-177129 1001 L-174091 1001 L-164767 1001 L-164243 1001 L-158519 1001 L-157012 1001 L-156197 1001 L-154514 1001 L-153793 1000 L-153624 1000 L-152579 1000 L-150512 1000 L-149150 1000 L-144706 1000 L-144609 1000 L-144570 1000 L-144551 1000 L-143719 1000 L-143641 1000 L-141069 1000 L-137819 1000 L-137665 1000 L-136716 1000 L-134975 1000 L-134260 1000 L-130719 1000 L-124142 1000 L-122724 1001 L-122704 1001 L-121753 1001 L-118279 1001 L-117526 1001 L-116964 1001 L-116182 1001 L-108678 1000 L-107079 1000 L-105505 1000 L-102320 1000 L-97987 1000 L-89417 1000 L-80671 1000 L-77597 1000 L-74331 1000 L-73785 1000 L-66647 1000 L-60980 1000 L-46915 1000 L-40904 1000 L-36198 1000 L-32194 1000 L-27087 1000 L-17373 1000 L-1802 1000 L1280 999 L1582 975 L1601 944 L1620 910 L1640 871 L1660 854 L1679 839 L1697 825 L1725 812 L1746 799 L1774 785 L1809 770 L1823 757 L1836 746 L1854 737 L1873 730 L1893 723 L1911 716 L1931 709 L1950 702 L1972 695 L1988 687 L2007 680 L2028 674 L2048 667 L2066 660 L2085 652 L2104 644 L2125 637 L2143 629 L2162 623 L2183 616 L2208 609 L2223 603 L2240 596 L2259 590 L2279 584 L2298 577 L2317 570 L2337 564 L2357 557 L2375 551 L2394 546 L2415 541 L2435 536 L2452 531 L2471 527 L2491 523 L2510 519 L2530 515 L2549 511 L2569 508 L2588 506 L2607 503 L2626 500 L2653 496 L2674 492 L2702 488 L2736 483 L2750 479 L2763 476 L2782 473 L2801 470 L2821 467 L2839 464 L2859 461 L2879 458 L2899 455 L2917 452 L2936 449 L2956 446 L2976 443 L2994 439 L3013 435 L3033 430 L3053 426 L3072 422 L3090 417 L3111 412 L3136 407 L3151 401 L3168 396 L3188 391 L3207 387 L3226 381 L3245 376 L3265 371 L3286 365 L3304 360 L3323 355 L3343 351 L3363 346 L3381 342 L3400 338 L3420 334 L3439 330 L3458 326 L3477 323 L3497 319 L3516 315 L3536 312 L3555 308 L3583 305 L3603 301 L3631 298 L3668 294 L3683 290 L3696 286 L3713 283 L3730 280 L3750 278 L3768 276 L3787 274 L3807 272 L3828 270 L3845 267 L3864 265 L3885 262 L3904 260 L3923 257 L3942 254 L3962 251 L3981 248 L4000 244 L4019 241 L4040 238 L4064 235 L4079 232 L4096 228 L4116 225 L4135 222 L4155 218 L4174 215 L4194 211 L4214 208 L4232 205 L4251 202 L4271 199 L4292 196 L4309 193 L4329 190 L4348 188 L4367 185 L4387 182 L4406 180 L4426 177 L4445 174 L4464 172 L4483 169 L4511 167 L4532 164 L4560 161 L4596 157 L4610 153 L4623 150 L4641 147 L4659 145 L4678 143 L4697 140 L4717 137 L4736 135 L4758 132 L4776 128 L4793 125 L4813 121 L4834 118 L4852 114 L4871 110 L4890 105 L4911 101 L4929 98 L4948 95 L4969 92 L4994 90 L5008 89 L5026 87 L5045 84 L5065 82 L5084 80 L5103 78 L5123 76 L5143 74 L5161 73 L5180 71 L5200 68 L5221 66 L5238 63 L5257 61 L5277 59 L5296 58 L5315 57 L5334 56 L5354 54 L5374 53 L5393 51 L5412 50 L5439 48 L5460 47 L5488 46 L5523 44 L5536 42 L5550 41 L5568 40 L5587 39 L5607 37 L5625 36 L5645 35 L5665 34 L5686 33 L5703 32 L5721 31 L5742 30 L5762 29 L5780 27 L5799 26 L5819 25 L5839 24 L5857 23 L5876 22 L5897 21 L5922 20 L5937 19 L5954 18 L5973 17 L5993 16 L6012 15 L6031 14 L6051 13 L6072 11 L6089 10 L6108 9 L6129 8 L6149 7 L6167 6 L6186 5 L6206 5 L6224 4 L6244 3 L6263 2 L6283 1 L6302 1 L6322 0 L6340 1 L6369 2 L6389 3 L6417 4 L6454 3 L6469 3 L6482 2 L6500 1" />
</svg>
