<svg xmlns="http://www.w3.org/2000/svg" version="1.1" viewBox="0 0 6500 1000">
	<path fill="none" stroke="gold" stroke-width="125" stroke-linecap="round" stroke-linejoin="round" d="M0 2527  L-721543 2527 L-718939 2526 L-717271 2526 L-698941 2526 L-698771 2526 L-691613 2526 L-691580 2526 L-678149 2525 L-675227 2526 L-661886 2525 L-657717 2525 L-656557 2524 L-655938 2523 L-653926 2523 L-650155 2523 L-649554 2523 L-649226 2522 L-649013 2522 L-648471 2522 L-647233 2521 L-646054 2520 L-643190 2519 L-642668 2518 L-637812 2518 L-634875 2517 L-634832 2517 L-634523 2517 L-634272 2517 L-631677 2516 L-627421 2516 L-627403 2516 L-626166 2516 L-624289 2516 L-622336 2516 L-621388 2516 L-621117 2516 L-620807 2516 L-620709 2516 L-619878 2516 L-617848 2516 L-617557 2515 L-615411 2514 L-615255 2513 L-611599 2513 L-611348 2513 L-611249 2513 L-610732 2513 L-608581 2514 L-607652 2514 L-606126 2515 L-604887 2515 L-603340 2515 L-600378 2515 L-599257 2514 L-598947 2514 L-597736 2514 L-594729 2515 L-594710 2515 L-594363 2515 L-594149 2515 L-594023 2513 L-593782 2513 L-593744 2513 L-593724 2513 L-593705 2512 L-593646 2512 L-593587 2512 L-593569 2512 L-593126 2511 L-591887 2511 L-590341 2511 L-586953 2511 L-581227 2510 L-581025 2510 L-579390 2510 L-577668 2510 L-576236 2510 L-576003 2510 L-575288 2510 L-569156 2510 L-568788 2509 L-568634 2509 L-568055 2509 L-567763 2509 L-566795 2508 L-566486 2508 L-565887 2508 L-564280 2508 L-563545 2508 L-563235 2508 L-562467 2508 L-560431 2508 L-560006 2508 L-559193 2507 L-551765 2507 L-551242 2507 L-551068 2507 L-550333 2506 L-548765 2506 L-548360 2506 L-546135 2506 L-545187 2506 L-544762 2506 L-544431 2506 L-543388 2505 L-541280 2505 L-541027 2505 L-540409 2505 L-539596 2505 L-537488 2504 L-537439 2504 L-535511 2504 L-535186 2504 L-535050 2503 L-534547 2503 L-533135 2503 L-532632 2502 L-532110 2502 L-528550 2502 L-527815 2501 L-525390 2501 L-524101 2501 L-523694 2501 L-520541 2501 L-520387 2501 L-520366 2501 L-520000 2501 L-518742 2501 L-518027 2501 L-517137 2501 L-516730 2501 L-515801 2501 L-514693 2501 L-514389 2502 L-508140 2502 L-507193 2502 L-505567 2502 L-505065 2502 L-501389 2502 L-500557 2503 L-496604 2503 L-495192 2502 L-492703 2502 L-492026 2502 L-491988 2502 L-491117 2502 L-487906 2502 L-485043 2502 L-484075 2501 L-482953 2501 L-482934 2501 L-481309 2501 L-480845 2500 L-480753 2500 L-474384 2500 L-473435 2500 L-470978 2500 L-470106 2500 L-468870 2499 L-466869 2499 L-466471 2499 L-465035 2499 L-463009 2499 L-462795 2498 L-461615 2498 L-460107 2498 L-460087 2498 L-458074 2498 L-457205 2498 L-456334 2498 L-455749 2497 L-455212 2497 L-454554 2497 L-453316 2497 L-452756 2496 L-451575 2496 L-450337 2496 L-450298 2496 L-449912 2496 L-449370 2496 L-448596 2496 L-447474 2495 L-445385 2495 L-445051 2495 L-444766 2495 L-443837 2495 L-443354 2494 L-442618 2494 L-438987 2494 L-437860 2494 L-437705 2494 L-436679 2494 L-432964 2494 L-431747 2493 L-429928 2493 L-427143 2493 L-426581 2493 L-422693 2493 L-420217 2493 L-418882 2493 L-418378 2492 L-417895 2492 L-415206 2492 L-411434 2492 L-408977 2492 L-407797 2492 L-407158 2492 L-404798 2492 L-404721 2492 L-403674 2492 L-403580 2491 L-403077 2491 L-402632 2491 L-402574 2491 L-402360 2491 L-399401 2491 L-396693 2491 L-396538 2491 L-393018 2491 L-392495 2491 L-391527 2490 L-391178 2490 L-390135 2490 L-389206 2490 L-388780 2490 L-387271 2490 L-386304 2489 L-386286 2489 L-384390 2480 L-384274 2471 L-384226 2462 L-384201 2453 L-381197 2453 L-379166 2453 L-377406 2453 L-377038 2452 L-376593 2452 L-376226 2452 L-375812 2452 L-373827 2452 L-373614 2452 L-373459 2452 L-371854 2452 L-370732 2451 L-369784 2451 L-368526 2451 L-366882 2451 L-365702 2451 L-359113 2451 L-359066 2450 L-358660 2450 L-357615 2450 L-357480 2450 L-355797 2450 L-355777 2450 L-354441 2449 L-353204 2449 L-353050 2449 L-352676 2449 L-352470 2449 L-352160 2449 L-351387 2448 L-349065 2448 L-348407 2448 L-346280 2448 L-344557 2448 L-344364 2448 L-341810 2448 L-341534 2447 L-341346 2447 L-340513 2447 L-339741 2447 L-339043 2447 L-334042 2447 L-333666 2446 L-329413 2446 L-328926 2459 L-328907 2459 L-328828 2458 L-328753 2458 L-328733 2446 L-327920 2446 L-327166 2445 L-325947 2445 L-324515 2445 L-324419 2445 L-324245 2445 L-323890 2445 L-322581 2445 L-320724 2445 L-319021 2444 L-318519 2444 L-318253 2444 L-317860 2444 L-317726 2444 L-316816 2444 L-316440 2444 L-315511 2444 L-315172 2444 L-315133 2444 L-315095 2443 L-313179 2443 L-313006 2443 L-311477 2443 L-311149 2443 L-311033 2443 L-310625 2443 L-310277 2443 L-308634 2442 L-308083 2442 L-307840 2442 L-307298 2442 L-306467 2442 L-305925 2442 L-304391 2441 L-304298 2441 L-304262 2441 L-304126 2441 L-303738 2441 L-302714 2441 L-300837 2441 L-300741 2441 L-300141 2445 L-299773 2449 L-299289 2453 L-299251 2457 L-298477 2457 L-298420 2457 L-298245 2457 L-298051 2457 L-296446 2457 L-296426 2457 L-296271 2457 L-296156 2457 L-294976 2457 L-294821 2457 L-294154 2457 L-291706 2467 L-289191 2478 L-286521 2488 L-278822 2498 L-273154 2498 L-270940 2498 L-270917 2498 L-269943 2500 L-269923 2500 L-269059 2500 L-266319 2500 L-260520 2497 L-260367 2497 L-257581 2497 L-243973 2496 L-243227 2496 L-238816 2496 L-222470 2496 L-222238 2496 L-221701 2496 L-213241 2495 L-204536 2495 L-204323 2495 L-202351 2495 L-199565 2495 L-195077 2495 L-194922 2495 L-194753 2495 L-194613 2495 L-194322 2495 L-194283 2495 L-194013 2495 L-193841 2494 L-193431 2494 L-192310 2494 L-191130 2494 L-189853 2494 L-186989 2494 L-184069 2494 L-182077 2494 L-180529 2493 L-177492 2493 L-168167 2493 L-167643 2493 L-161919 2493 L-160412 2493 L-159598 2493 L-157914 2493 L-157193 2492 L-157025 2492 L-155979 2492 L-153912 2492 L-152550 2492 L-148107 2492 L-148010 2492 L-147971 2492 L-147952 2491 L-147119 2491 L-147042 2491 L-144469 2491 L-141220 2491 L-141065 2491 L-140117 2491 L-138376 2490 L-137660 2491 L-134120 2492 L-127542 2492 L-126125 2493 L-126104 2493 L-125154 2493 L-121679 2493 L-120926 2493 L-120364 2493 L-119582 2493 L-112078 2492 L-110480 2492 L-108906 2492 L-105721 2492 L-101387 2492 L-92818 2492 L-84071 2492 L-80998 2492 L-77732 2491 L-77185 2491 L-70048 2491 L-64380 2491 L-50316 2491 L-44304 2491 L-39598 2491 L-35595 2491 L-30487 2491 L-20773 2491 L-5203 2490 L-2120 2490 L-1818 2435 L-1798 2367 L-1779 2290 L-1760 2203 L-1740 2164 L-1721 2131 L-1702 2100 L-1674 2070 L-1654 2041 L-1626 2010 L-1590 1976 L-1577 1947 L-1564 1922 L-1545 1901 L-1527 1886 L-1507 1870 L-1489 1855 L-1469 1839 L-1449 1823 L-1428 1807 L-1411 1791 L-1393 1775 L-1372 1760 L-1352 1745 L-1334 1729 L-1315 1712 L-1295 1694 L-1275 1677 L-1257 1661 L-1238 1645 L-1216 1630 L-1192 1615 L-1177 1601 L-1160 1587 L-1140 1573 L-1121 1559 L-1102 1544 L-1083 1528 L-1063 1514 L-1042 1500 L-1024 1486 L-1006 1474 L-985 1462 L-964 1450 L-947 1441 L-928 1431 L-908 1422 L-889 1413 L-870 1404 L-851 1396 L-831 1390 L-811 1383 L-792 1377 L-774 1370 L-746 1362 L-725 1353 L-697 1344 L-663 1333 L-649 1324 L-636 1317 L-617 1310 L-598 1304 L-579 1297 L-560 1290 L-541 1283 L-521 1276 L-500 1269 L-483 1263 L-464 1256 L-444 1250 L-424 1242 L-405 1233 L-387 1224 L-367 1215 L-347 1205 L-328 1195 L-309 1185 L-288 1174 L-264 1162 L-249 1150 L-232 1139 L-212 1128 L-193 1116 L-173 1105 L-154 1093 L-134 1081 L-114 1069 L-96 1058 L-77 1047 L-57 1037 L-36 1026 L-19 1016 L0 1007 L19 998 L38 990 L58 982 L77 974 L97 966 L116 957 L135 949 L154 941 L183 933 L203 926 L230 918 L268 909 L283 900 L295 891 L312 884 L329 878 L349 873 L368 868 L387 864 L407 859 L427 854 L445 849 L464 844 L484 838 L504 832 L522 826 L541 820 L561 813 L581 805 L600 798 L618 791 L639 784 L664 776 L678 769 L696 762 L716 754 L735 747 L754 740 L773 732 L793 724 L813 717 L832 709 L851 702 L871 696 L891 689 L909 683 L928 677 L948 671 L966 665 L986 659 L1005 653 L1025 647 L1044 641 L1064 636 L1083 630 L1111 624 L1131 618 L1159 612 L1195 603 L1209 594 L1222 586 L1240 579 L1258 575 L1278 570 L1296 564 L1316 558 L1336 552 L1357 545 L1375 538 L1392 530 L1413 522 L1433 514 L1451 505 L1470 496 L1490 486 L1510 478 L1528 470 L1547 463 L1568 457 L1593 453 L1608 449 L1625 444 L1644 440 L1664 435 L1683 430 L1702 425 L1722 421 L1743 417 L1760 413 L1779 409 L1800 404 L1821 397 L1837 392 L1857 387 L1877 383 L1895 380 L1915 378 L1934 375 L1954 372 L1973 368 L1992 365 L2011 362 L2039 359 L2060 356 L2087 352 L2122 348 L2136 345 L2149 342 L2168 339 L2186 337 L2206 334 L2225 332 L2244 329 L2264 327 L2285 325 L2302 323 L2321 320 L2342 317 L2361 314 L2380 311 L2398 309 L2418 307 L2438 304 L2457 302 L2476 300 L2497 297 L2522 295 L2536 293 L2553 291 L2573 289 L2592 286 L2612 284 L2631 281 L2650 278 L2671 276 L2689 274 L2708 271 L2728 269 L2749 267 L2766 265 L2785 262 L2805 261 L2824 258 L2844 256 L2862 255 L2882 253 L2902 252 L2921 250 L2940 253 L2969 255 L2988 258 L3016 260 L3054 258 L3069 256 L3081 254 L3099 253 L3115 252 L3135 251 L3153 249 L3173 248 L3193 246 L3214 245 L3231 244 L3249 243 L3270 241 L3290 240 L3308 239 L3327 237 L3347 236 L3367 234 L3385 233 L3404 232 L3425 230 L3450 229 L3465 228 L3482 226 L3502 225 L3521 223 L3540 222 L3559 221 L3579 219 L3600 217 L3617 215 L3636 213 L3657 211 L3677 209 L3695 208 L3714 206 L3734 204 L3752 203 L3772 201 L3791 199 L3811 197 L3831 195 L3850 194 L3868 193 L3896 191 L3917 189 L3945 188 L3979 186 L3993 184 L4006 183 L4025 181 L4044 180 L4064 178 L4082 177 L4102 175 L4121 174 L4142 172 L4159 171 L4178 169 L4199 168 L4219 166 L4237 164 L4256 161 L4275 159 L4296 156 L4314 154 L4333 152 L4354 150 L4379 148 L4394 146 L4411 144 L4430 142 L4450 139 L4469 137 L4488 135 L4508 133 L4529 131 L4546 129 L4565 127 L4586 125 L4606 123 L4623 122 L4642 120 L4662 119 L4681 118 L4701 116 L4720 115 L4739 114 L4759 113 L4778 112 L4797 111 L4825 110 L4845 108 L4873 107 L4909 105 L4922 103 L4935 101 L4954 99 L4972 97 L4992 96 L5010 94 L5030 93 L5050 92 L5071 90 L5088 89 L5106 87 L5127 86 L5147 84 L5165 82 L5184 80 L5204 79 L5224 77 L5242 75 L5261 74 L5283 73 L5308 71 L5322 70 L5339 68 L5359 67 L5378 65 L5397 64 L5416 62 L5436 59 L5457 57 L5475 55 L5494 53 L5514 51 L5535 49 L5552 48 L5571 47 L5591 46 L5610 45 L5629 44 L5648 42 L5668 41 L5688 40 L5707 39 L5726 38 L5753 37 L5774 36 L5802 35 L5836 34 L5850 33 L5863 32 L5882 31 L5901 30 L5920 30 L5939 29 L5958 28 L5978 27 L5999 27 L6016 26 L6035 25 L6055 24 L6075 23 L6094 22 L6112 21 L6132 21 L6153 20 L6171 19 L6190 19 L6211 18 L6235 17 L6250 16 L6267 16 L6287 15 L6306 14 L6326 13 L6345 12 L6364 11 L6385 10 L6403 8 L6422 6 L6442 4 L6463 3 L6481 2 L6500 1" />
</svg>
