<svg xmlns="http://www.w3.org/2000/svg" version="1.1" viewBox="0 0 6500 1000">
	<path fill="none" stroke="gold" stroke-width="125" stroke-linecap="round" stroke-linejoin="round" d="M0 16203  L-177603 16203 L-174999 16115 L-173331 16026 L-155001 15849 L-154831 15672 L-147673 15495 L-147640 15495 L-134209 15407 L-131287 15495 L-117946 15230 L-113777 14876 L-112617 14433 L-111998 13991 L-109986 13725 L-106215 13548 L-105615 13371 L-105286 13194 L-105073 13017 L-104531 12840 L-103293 12132 L-102114 11424 L-99250 10716 L-98728 10008 L-93872 9831 L-90935 9654 L-90892 9477 L-90583 9300 L-90332 9123 L-87737 8946 L-83481 8946 L-83463 8946 L-82226 8946 L-80349 8946 L-78396 8769 L-77448 8592 L-77177 8415 L-76867 8327 L-76769 8238 L-75938 8238 L-73908 8327 L-73617 7530 L-71471 7176 L-71315 6646 L-67659 6115 L-67408 6380 L-67309 6292 L-66792 6557 L-64641 7000 L-63712 7442 L-62186 7884 L-60947 7884 L-59400 7796 L-56438 7619 L-55317 7442 L-55007 7265 L-53796 7176 L-50790 8150 L-50770 8061 L-50423 7973 L-50209 7884 L-50083 6646 L-49842 6469 L-49804 6292 L-49784 6115 L-49765 5938 L-49706 5761 L-49647 5584 L-49629 5407 L-49186 5230 L-47947 5053 L-46401 4876 L-43013 4699 L-37287 4610 L-37085 4522 L-35450 4433 L-33728 4345 L-32296 4256 L-32063 4168 L-31348 4079 L-25216 3991 L-24848 3814 L-24694 3637 L-24115 3460 L-23823 3283 L-22855 3106 L-22546 2929 L-21947 2752 L-20340 2752 L-19605 2752 L-19296 2840 L-18527 2840 L-16491 2663 L-16066 2486 L-15253 2398 L-7825 2221 L-7302 2044 L-7128 1867 L-6393 1690 L-4825 1513 L-4420 1424 L-2195 1247 L-1247 1159 L-822 1070 L-492 1070 L551 982 L2659 805 L2912 628 L3530 451 L4343 362 L6451 185 L6500 8" />
</svg>
