<svg xmlns="http://www.w3.org/2000/svg" version="1.1" viewBox="0 0 6500 1000">
	<path fill="none" stroke="gold" stroke-width="125" stroke-linecap="round" stroke-linejoin="round" d="M0 3362  L-727444 3362 L-724840 3362 L-723172 3362 L-704842 3362 L-704672 3362 L-697514 3361 L-697481 3361 L-684050 3361 L-681128 3361 L-667787 3361 L-663618 3360 L-662458 3360 L-661839 3359 L-659827 3358 L-656056 3358 L-655456 3358 L-655127 3357 L-654914 3357 L-654372 3357 L-653134 3356 L-651955 3355 L-649091 3353 L-648569 3352 L-643713 3352 L-640776 3352 L-640733 3351 L-640424 3351 L-640173 3351 L-637578 3350 L-633322 3350 L-633304 3350 L-632067 3350 L-630190 3350 L-628237 3350 L-627289 3350 L-627018 3350 L-626708 3349 L-626610 3349 L-625779 3349 L-623749 3349 L-623458 3348 L-621312 3347 L-621156 3347 L-617500 3346 L-617249 3346 L-617150 3346 L-616633 3346 L-614482 3347 L-613553 3348 L-612027 3349 L-610788 3349 L-609241 3349 L-606279 3348 L-605158 3348 L-604848 3348 L-603637 3347 L-600631 3349 L-600611 3349 L-600264 3349 L-600050 3349 L-599924 3347 L-599683 3346 L-599645 3346 L-599625 3346 L-599606 3345 L-599547 3345 L-599488 3345 L-599470 3345 L-599027 3344 L-597788 3344 L-596242 3344 L-592854 3343 L-587128 3343 L-586926 3343 L-585291 3343 L-583569 3343 L-582137 3343 L-581904 3342 L-581189 3342 L-575057 3342 L-574689 3342 L-574535 3342 L-573956 3341 L-573664 3341 L-572696 3341 L-572387 3340 L-571788 3340 L-570181 3340 L-569446 3340 L-569137 3340 L-568368 3340 L-566332 3340 L-565907 3340 L-565094 3340 L-557666 3339 L-557143 3339 L-556969 3339 L-556234 3338 L-554666 3338 L-554261 3338 L-552036 3338 L-551088 3338 L-550663 3337 L-550333 3337 L-549289 3337 L-547181 3337 L-546928 3337 L-546310 3336 L-545497 3336 L-543389 3336 L-543341 3336 L-541412 3335 L-541087 3335 L-540952 3335 L-540448 3335 L-539036 3334 L-538533 3334 L-538011 3333 L-534451 3333 L-533716 3332 L-531291 3332 L-530002 3332 L-529595 3332 L-526443 3332 L-526288 3332 L-526267 3332 L-525901 3332 L-524643 3332 L-523928 3332 L-523038 3332 L-522631 3332 L-521702 3332 L-520594 3332 L-520290 3333 L-514042 3333 L-513094 3333 L-511468 3333 L-510966 3334 L-507291 3334 L-506458 3334 L-502505 3334 L-501093 3334 L-498604 3333 L-497927 3333 L-497889 3333 L-497018 3333 L-493807 3333 L-490944 3333 L-489976 3332 L-488854 3332 L-488835 3332 L-487210 3331 L-486746 3331 L-486654 3331 L-480285 3331 L-479336 3331 L-476879 3330 L-476007 3330 L-474771 3330 L-472770 3330 L-472372 3330 L-470936 3329 L-468910 3329 L-468696 3329 L-467516 3329 L-466008 3329 L-465988 3328 L-463975 3328 L-463106 3328 L-462235 3328 L-461650 3328 L-461113 3327 L-460455 3327 L-459217 3327 L-458657 3326 L-457476 3326 L-456238 3326 L-456199 3326 L-455813 3326 L-455271 3326 L-454497 3325 L-453375 3325 L-451286 3325 L-450952 3325 L-450667 3324 L-449738 3324 L-449255 3324 L-448519 3324 L-444888 3324 L-443761 3324 L-443606 3323 L-442580 3323 L-438865 3323 L-437648 3323 L-435829 3322 L-433044 3322 L-432482 3322 L-428594 3322 L-426118 3322 L-424783 3322 L-424279 3322 L-423796 3322 L-421107 3322 L-417335 3322 L-414878 3322 L-413698 3322 L-413059 3321 L-410700 3321 L-410622 3321 L-409575 3321 L-409481 3320 L-408978 3320 L-408533 3320 L-408475 3320 L-408261 3320 L-405302 3320 L-402594 3320 L-402439 3320 L-398919 3320 L-398396 3319 L-397428 3319 L-397079 3319 L-396036 3319 L-395107 3318 L-394681 3318 L-393172 3318 L-392205 3318 L-392187 3318 L-390291 3307 L-390175 3296 L-390127 3285 L-390102 3275 L-387098 3274 L-385067 3274 L-383307 3274 L-382939 3274 L-382494 3274 L-382127 3273 L-381713 3273 L-379728 3273 L-379515 3273 L-379360 3273 L-377755 3273 L-376633 3273 L-375685 3272 L-374427 3272 L-372783 3272 L-371603 3272 L-365014 3272 L-364967 3271 L-364561 3271 L-363516 3271 L-363381 3271 L-361698 3271 L-361678 3271 L-360342 3270 L-359105 3270 L-358951 3270 L-358577 3270 L-358371 3270 L-358062 3269 L-357288 3269 L-354966 3269 L-354308 3269 L-352181 3269 L-350458 3269 L-350265 3268 L-347711 3268 L-347435 3268 L-347247 3267 L-346414 3267 L-345642 3267 L-344944 3267 L-339943 3267 L-339567 3267 L-335314 3267 L-334827 3281 L-334808 3281 L-334729 3281 L-334654 3281 L-334634 3266 L-333821 3266 L-333067 3265 L-331848 3265 L-330416 3265 L-330320 3265 L-330146 3265 L-329791 3265 L-328482 3265 L-326625 3265 L-324922 3264 L-324420 3264 L-324154 3264 L-323761 3264 L-323627 3264 L-322717 3264 L-322341 3263 L-321412 3263 L-321073 3263 L-321034 3263 L-320996 3263 L-319080 3263 L-318907 3263 L-317378 3263 L-317050 3263 L-316934 3263 L-316527 3262 L-316178 3262 L-314535 3262 L-313984 3262 L-313741 3262 L-313199 3261 L-312368 3261 L-311826 3261 L-310292 3261 L-310200 3261 L-310163 3260 L-310027 3260 L-309639 3260 L-308615 3260 L-306738 3260 L-306642 3260 L-306042 3264 L-305675 3269 L-305190 3275 L-305152 3280 L-304378 3280 L-304321 3280 L-304146 3279 L-303952 3279 L-302347 3279 L-302327 3279 L-302172 3279 L-302057 3279 L-300877 3279 L-300722 3280 L-300055 3280 L-297607 3292 L-295092 3304 L-292422 3316 L-284723 3328 L-279055 3328 L-276841 3328 L-276818 3328 L-275844 3331 L-275824 3331 L-274960 3330 L-272220 3330 L-266421 3327 L-266268 3327 L-263482 3327 L-249874 3326 L-249128 3326 L-244717 3326 L-228371 3326 L-228139 3326 L-227602 3325 L-219142 3325 L-210437 3325 L-210224 3325 L-208252 3325 L-205466 3325 L-200978 3325 L-200823 3325 L-200654 3325 L-200514 3325 L-200223 3324 L-200185 3324 L-199914 3324 L-199742 3324 L-199332 3324 L-198211 3324 L-197031 3324 L-195754 3323 L-192890 3323 L-189970 3323 L-187978 3323 L-186430 3323 L-183393 3323 L-174068 3322 L-173544 3322 L-167820 3322 L-166313 3322 L-165499 3322 L-163815 3322 L-163094 3322 L-162926 3322 L-161880 3321 L-159813 3321 L-158451 3321 L-154008 3321 L-153911 3321 L-153872 3321 L-153853 3320 L-153021 3320 L-152943 3320 L-150370 3320 L-147121 3320 L-146966 3320 L-146018 3319 L-144277 3319 L-143561 3320 L-140021 3321 L-133443 3322 L-132026 3323 L-132005 3323 L-131055 3323 L-127580 3322 L-126827 3322 L-126265 3322 L-125483 3322 L-117979 3322 L-116381 3322 L-114807 3321 L-111622 3321 L-107289 3321 L-98719 3321 L-89973 3321 L-86899 3321 L-83633 3320 L-83086 3320 L-75949 3320 L-70281 3320 L-56217 3320 L-50205 3320 L-45499 3320 L-41496 3320 L-36388 3320 L-26674 3320 L-11104 3319 L-8021 3319 L-7719 3253 L-7699 3172 L-7680 3079 L-7661 2976 L-7641 2929 L-7622 2889 L-7603 2853 L-7576 2817 L-7555 2782 L-7527 2745 L-7491 2704 L-7478 2669 L-7465 2640 L-7446 2615 L-7428 2597 L-7408 2578 L-7390 2559 L-7370 2541 L-7350 2522 L-7329 2502 L-7312 2483 L-7294 2465 L-7273 2447 L-7253 2428 L-7235 2409 L-7216 2389 L-7196 2368 L-7176 2347 L-7158 2328 L-7139 2309 L-7118 2291 L-7093 2273 L-7078 2256 L-7061 2239 L-7041 2222 L-7022 2206 L-7003 2188 L-6984 2169 L-6964 2152 L-6943 2135 L-6925 2119 L-6907 2104 L-6886 2090 L-6865 2076 L-6848 2065 L-6829 2053 L-6809 2042 L-6790 2031 L-6771 2021 L-6752 2012 L-6732 2004 L-6712 1996 L-6693 1988 L-6675 1980 L-6647 1970 L-6626 1960 L-6598 1949 L-6564 1936 L-6550 1926 L-6537 1916 L-6518 1908 L-6499 1901 L-6480 1893 L-6461 1885 L-6442 1876 L-6422 1868 L-6401 1860 L-6384 1852 L-6365 1844 L-6345 1836 L-6325 1827 L-6306 1817 L-6288 1806 L-6268 1794 L-6248 1783 L-6229 1771 L-6210 1759 L-6189 1746 L-6165 1731 L-6150 1717 L-6133 1704 L-6113 1690 L-6094 1677 L-6074 1663 L-6056 1648 L-6035 1634 L-6015 1621 L-5997 1607 L-5978 1594 L-5958 1582 L-5937 1569 L-5920 1557 L-5901 1547 L-5881 1535 L-5862 1526 L-5842 1516 L-5823 1506 L-5804 1497 L-5784 1487 L-5765 1477 L-5746 1468 L-5717 1458 L-5697 1449 L-5670 1440 L-5632 1429 L-5617 1418 L-5605 1408 L-5588 1399 L-5571 1392 L-5551 1386 L-5532 1380 L-5513 1375 L-5493 1370 L-5473 1364 L-5455 1358 L-5437 1351 L-5416 1344 L-5396 1337 L-5378 1330 L-5359 1322 L-5339 1314 L-5319 1305 L-5300 1296 L-5282 1287 L-5261 1279 L-5236 1270 L-5222 1262 L-5204 1253 L-5184 1244 L-5165 1236 L-5146 1227 L-5127 1217 L-5107 1208 L-5087 1199 L-5068 1190 L-5049 1182 L-5029 1174 L-5009 1166 L-4991 1159 L-4972 1152 L-4952 1145 L-4934 1137 L-4914 1130 L-4895 1123 L-4875 1116 L-4856 1109 L-4836 1102 L-4817 1095 L-4789 1089 L-4769 1082 L-4741 1074 L-4705 1063 L-4691 1053 L-4678 1043 L-4660 1035 L-4642 1029 L-4622 1024 L-4604 1017 L-4584 1010 L-4564 1002 L-4543 994 L-4525 985 L-4508 977 L-4487 967 L-4467 957 L-4449 946 L-4430 935 L-4410 924 L-4390 914 L-4372 904 L-4353 896 L-4332 889 L-4307 884 L-4292 879 L-4275 874 L-4256 868 L-4236 862 L-4217 856 L-4198 850 L-4178 845 L-4157 841 L-4140 837 L-4121 831 L-4100 825 L-4079 818 L-4063 811 L-4044 805 L-4023 801 L-4005 797 L-3985 794 L-3966 791 L-3946 787 L-3927 783 L-3908 779 L-3889 775 L-3861 771 L-3840 768 L-3813 764 L-3778 759 L-3764 755 L-3751 751 L-3732 748 L-3714 745 L-3694 742 L-3675 739 L-3656 736 L-3636 734 L-3615 731 L-3598 728 L-3579 725 L-3559 722 L-3539 718 L-3521 715 L-3502 712 L-3482 709 L-3462 706 L-3443 704 L-3424 701 L-3403 698 L-3378 695 L-3364 693 L-3347 690 L-3327 688 L-3308 685 L-3288 682 L-3269 679 L-3250 675 L-3229 672 L-3211 670 L-3192 667 L-3172 664 L-3151 662 L-3134 659 L-3115 656 L-3095 654 L-3076 651 L-3056 649 L-3038 647 L-3018 645 L-2998 644 L-2979 642 L-2960 645 L-2931 648 L-2912 651 L-2884 654 L-2846 651 L-2831 649 L-2819 647 L-2801 645 L-2785 644 L-2765 642 L-2747 640 L-2727 639 L-2707 637 L-2686 636 L-2669 634 L-2651 633 L-2630 631 L-2610 629 L-2592 628 L-2573 626 L-2553 624 L-2533 622 L-2515 621 L-2496 619 L-2475 618 L-2450 617 L-2435 615 L-2418 613 L-2399 611 L-2379 610 L-2360 608 L-2341 606 L-2321 604 L-2300 602 L-2283 599 L-2264 597 L-2243 595 L-2223 593 L-2205 591 L-2186 589 L-2166 587 L-2148 585 L-2128 582 L-2109 580 L-2089 578 L-2070 576 L-2050 575 L-2032 573 L-2004 571 L-1983 569 L-1955 567 L-1921 565 L-1907 562 L-1894 561 L-1875 559 L-1856 557 L-1836 556 L-1818 554 L-1798 552 L-1779 550 L-1758 548 L-1741 547 L-1722 545 L-1701 543 L-1681 541 L-1663 538 L-1645 535 L-1625 532 L-1604 530 L-1586 527 L-1567 525 L-1546 522 L-1521 519 L-1506 517 L-1489 514 L-1470 512 L-1450 509 L-1431 507 L-1412 504 L-1392 501 L-1371 499 L-1354 497 L-1335 494 L-1314 492 L-1294 490 L-1277 488 L-1258 486 L-1238 485 L-1219 483 L-1199 481 L-1180 480 L-1161 479 L-1141 477 L-1122 476 L-1103 475 L-1075 474 L-1055 472 L-1027 471 L-991 468 L-978 465 L-965 463 L-946 460 L-928 459 L-908 457 L-890 455 L-870 454 L-850 452 L-829 451 L-812 449 L-794 447 L-773 445 L-753 443 L-735 441 L-716 439 L-696 436 L-676 434 L-658 432 L-639 431 L-617 429 L-593 428 L-578 426 L-561 424 L-541 422 L-522 421 L-503 418 L-484 416 L-464 413 L-443 410 L-426 408 L-406 405 L-386 403 L-365 401 L-348 400 L-329 398 L-309 397 L-290 396 L-271 395 L-252 393 L-232 392 L-212 391 L-193 390 L-175 388 L-147 387 L-126 386 L-99 385 L-64 383 L-50 382 L-37 381 L-18 380 L0 379 L19 378 L38 377 L57 376 L77 375 L98 374 L115 373 L134 372 L154 371 L174 370 L193 369 L211 368 L231 367 L251 366 L270 366 L289 365 L310 364 L334 363 L349 362 L366 361 L386 360 L405 359 L425 358 L444 357 L463 356 L484 354 L502 352 L521 350 L541 348 L562 346 L579 345 L598 343 L618 342 L637 341 L657 339 L676 338 L696 337 L715 336 L734 335 L753 334 L782 333 L829 332 L866 331 L881 330 L894 329 L911 328 L928 327 L948 327 L967 326 L986 325 L1006 324 L1026 324 L1044 323 L1063 322 L1083 322 L1102 321 L1121 320 L1140 319 L1160 318 L1180 317 L1198 316 L1217 315 L1238 314 L1263 312 L1278 310 L1295 309 L1315 307 L1334 306 L1353 304 L1372 303 L1392 302 L1413 300 L1431 299 L1450 297 L1470 296 L1490 295 L1508 294 L1527 293 L1547 292 L1566 291 L1585 290 L1604 289 L1624 288 L1643 287 L1663 286 L1682 284 L1710 283 L1730 282 L1758 281 L1795 278 L1809 276 L1822 274 L1840 272 L1857 271 L1877 270 L1895 269 L1915 268 L1935 267 L1956 267 L1973 265 L1991 264 L2012 263 L2032 261 L2050 259 L2069 257 L2089 255 L2110 253 L2127 251 L2146 250 L2167 248 L2192 246 L2207 245 L2225 244 L2243 242 L2264 241 L2282 240 L2301 238 L2321 236 L2342 235 L2359 233 L2379 232 L2399 231 L2420 229 L2437 228 L2456 227 L2475 226 L2494 225 L2514 224 L2533 223 L2553 222 L2573 220 L2592 220 L2610 218 L2638 997 L2659 996 L2686 995 L2722 993 L2736 212 L2750 210 L2768 209 L2786 208 L2805 207 L2824 207 L2843 206 L2863 204 L2884 203 L2901 201 L2920 199 L2941 198 L2961 196 L2979 194 L2998 192 L3017 190 L3038 188 L3056 187 L3075 186 L3096 184 L3121 183 L3136 181 L3166 179 L3205 176 L3228 174 L3258 171 L3274 169 L3288 167 L3307 166 L3327 165 L3348 164 L3365 163 L3384 161 L3404 160 L3423 160 L3443 159 L3461 158 L3481 158 L3501 156 L3520 155 L3539 155 L3567 154 L3587 153 L3615 151 L3650 150 L3664 149 L3696 148 L3714 147 L3734 146 L3752 145 L3772 144 L3792 144 L3813 143 L3830 142 L3848 140 L3869 137 L3889 134 L3907 130 L3926 127 L3946 124 L3966 121 L3984 119 L4003 118 L4025 116 L4050 115 L4064 114 L4082 112 L4100 110 L4121 109 L4139 108 L4159 106 L4178 105 L4199 103 L4216 101 L4236 100 L4256 99 L4277 98 L4294 97 L4313 96 L4333 95 L4352 94 L4371 93 L4390 92 L4410 90 L4430 89 L4449 89 L4467 88 L4495 87 L4516 86 L4586 84 L4614 81 L4628 79 L4642 76 L4663 75 L4681 74 L4700 73 L4720 71 L4741 70 L4758 69 L4777 68 L4798 68 L4818 67 L4836 66 L4855 64 L4875 63 L4895 61 L4913 60 L4932 59 L4953 58 L4978 57 L4993 56 L5010 55 L5029 53 L5049 52 L5068 50 L5087 49 L5107 48 L5128 47 L5145 46 L5164 45 L5185 44 L5206 43 L5222 42 L5280 41 L5300 40 L5319 39 L5338 38 L5359 37 L5377 36 L5396 36 L5424 35 L5444 35 L5472 34 L5509 33 L5523 32 L5536 31 L5553 31 L5571 30 L5591 30 L5609 29 L5629 29 L5649 29 L5670 28 L5687 28 L5705 27 L5726 27 L5746 26 L5764 25 L5783 25 L5803 24 L5824 23 L5841 22 L5860 21 L5882 21 L5907 20 L5921 19 L5938 19 L5958 18 L5978 17 L5996 16 L6016 15 L6035 14 L6057 13 L6073 12 L6093 11 L6113 11 L6134 10 L6151 10 L6170 9 L6190 9 L6209 8 L6228 8 L6247 7 L6267 7 L6287 7 L6306 6 L6325 6 L6352 5 L6373 5 L6401 4 L6436 3 L6450 3 L6463 2 L6481 2 L6500 1" />
</svg>
