<svg xmlns="http://www.w3.org/2000/svg" version="1.1" viewBox="0 0 6500 1000">
	<path fill="none" stroke="gold" stroke-width="125" stroke-linecap="round" stroke-linejoin="round" d="M0 1711  L-720479 1711 L-717875 1711 L-716207 1710 L-697878 1710 L-697708 1710 L-690550 1710 L-690517 1710 L-677086 1710 L-674164 1710 L-660823 1710 L-656654 1709 L-655494 1709 L-654875 1708 L-652863 1708 L-649091 1708 L-648491 1708 L-648163 1708 L-647950 1708 L-647408 1707 L-646170 1707 L-644991 1706 L-642127 1705 L-641604 1705 L-636749 1704 L-633812 1704 L-633769 1704 L-633460 1704 L-633208 1704 L-630613 1704 L-626358 1704 L-626340 1704 L-625103 1704 L-623226 1704 L-621272 1703 L-620324 1703 L-620054 1703 L-619744 1703 L-619646 1703 L-618815 1703 L-616784 1703 L-616494 1702 L-614348 1702 L-614192 1701 L-610536 1701 L-610285 1701 L-610186 1701 L-609669 1701 L-607518 1702 L-606589 1702 L-605063 1703 L-603824 1703 L-602277 1703 L-599315 1702 L-598193 1702 L-597884 1702 L-596673 1702 L-593666 1703 L-593647 1703 L-593299 1703 L-593086 1703 L-592960 1701 L-592718 1701 L-592680 1701 L-592661 1701 L-592642 1701 L-592583 1701 L-592524 1700 L-592506 1700 L-592063 1700 L-590824 1700 L-589278 1700 L-585890 1700 L-580164 1699 L-579962 1699 L-578326 1699 L-576604 1699 L-575172 1699 L-574940 1699 L-574225 1699 L-568093 1699 L-567725 1699 L-567570 1699 L-566992 1698 L-566699 1698 L-565732 1698 L-565422 1698 L-564823 1698 L-563217 1698 L-562482 1698 L-562172 1698 L-561404 1698 L-559368 1698 L-558943 1697 L-558130 1697 L-550701 1697 L-550178 1697 L-550005 1697 L-549270 1697 L-547702 1696 L-547297 1696 L-545071 1696 L-544124 1696 L-543699 1696 L-543368 1696 L-542324 1696 L-540216 1696 L-539964 1696 L-539345 1695 L-538533 1695 L-536425 1695 L-536376 1695 L-534448 1695 L-534122 1695 L-533987 1695 L-533484 1694 L-532071 1694 L-531568 1694 L-531047 1694 L-527487 1693 L-526752 1693 L-524327 1693 L-523038 1693 L-522631 1693 L-519478 1693 L-519323 1693 L-519303 1693 L-518937 1693 L-517678 1693 L-516963 1693 L-516073 1693 L-515666 1693 L-514738 1693 L-513629 1693 L-513326 1693 L-507077 1693 L-506130 1694 L-504504 1694 L-504002 1694 L-500326 1694 L-499494 1694 L-495541 1694 L-494129 1694 L-491640 1694 L-490963 1693 L-490924 1693 L-490054 1693 L-486842 1693 L-483979 1693 L-483011 1693 L-481890 1693 L-481871 1693 L-480246 1693 L-479782 1692 L-479690 1692 L-473321 1692 L-472372 1692 L-469915 1692 L-469043 1692 L-467807 1692 L-465805 1692 L-465408 1692 L-463972 1691 L-461945 1691 L-461732 1691 L-460552 1691 L-459044 1691 L-459023 1691 L-457011 1691 L-456142 1691 L-455271 1691 L-454686 1690 L-454149 1690 L-453491 1690 L-452253 1690 L-451692 1690 L-450511 1690 L-449274 1690 L-449235 1689 L-448848 1689 L-448307 1689 L-447533 1689 L-446411 1689 L-444321 1689 L-443988 1689 L-443702 1689 L-442774 1688 L-442291 1688 L-441555 1688 L-437924 1688 L-436796 1688 L-436642 1688 L-435616 1688 L-431901 1688 L-430683 1688 L-428865 1687 L-426079 1687 L-425518 1687 L-421630 1687 L-419153 1687 L-417818 1687 L-417315 1687 L-416832 1687 L-414143 1687 L-410371 1687 L-407914 1687 L-406734 1687 L-406095 1687 L-403735 1687 L-403658 1687 L-402610 1686 L-402517 1686 L-402014 1686 L-401568 1686 L-401511 1686 L-401297 1686 L-398338 1686 L-395630 1686 L-395475 1686 L-391954 1686 L-391431 1686 L-390464 1685 L-390115 1685 L-389071 1685 L-388143 1685 L-387717 1685 L-386208 1685 L-385241 1685 L-385222 1685 L-383326 1679 L-383210 1672 L-383162 1666 L-383138 1660 L-380134 1660 L-378103 1659 L-376342 1659 L-375975 1659 L-375530 1659 L-375163 1659 L-374749 1659 L-372764 1659 L-372551 1659 L-372396 1659 L-370790 1659 L-369669 1659 L-368720 1658 L-367463 1658 L-365819 1658 L-364639 1658 L-358049 1658 L-358003 1658 L-357597 1658 L-356552 1658 L-356417 1658 L-354734 1657 L-354714 1657 L-353377 1657 L-352141 1657 L-351987 1657 L-351613 1657 L-351407 1657 L-351097 1657 L-350323 1656 L-348002 1656 L-347344 1656 L-345216 1656 L-343494 1656 L-343300 1656 L-340747 1656 L-340471 1656 L-340283 1656 L-339450 1655 L-338678 1655 L-337980 1655 L-332979 1655 L-332603 1655 L-328350 1655 L-327863 1663 L-327844 1663 L-327765 1663 L-327690 1663 L-327670 1655 L-326857 1655 L-326103 1654 L-324884 1654 L-323452 1654 L-323356 1654 L-323181 1654 L-322827 1654 L-321518 1654 L-319661 1654 L-317958 1654 L-317455 1654 L-317190 1653 L-316797 1653 L-316663 1653 L-315753 1653 L-315377 1653 L-314448 1653 L-314109 1653 L-314069 1653 L-314032 1653 L-312116 1653 L-311942 1653 L-310414 1653 L-310085 1653 L-309969 1653 L-309562 1653 L-309214 1652 L-307570 1652 L-307020 1652 L-306776 1652 L-306235 1652 L-305404 1652 L-304862 1652 L-303328 1652 L-303235 1652 L-303198 1651 L-303062 1651 L-302675 1651 L-301650 1651 L-299774 1651 L-299678 1651 L-299077 1654 L-298710 1657 L-298226 1660 L-298188 1663 L-297414 1663 L-297356 1663 L-297182 1662 L-296988 1662 L-295383 1662 L-295363 1662 L-295208 1662 L-295092 1662 L-293913 1662 L-293758 1663 L-293091 1663 L-290643 1670 L-288128 1677 L-285458 1684 L-277759 1691 L-272091 1691 L-269877 1691 L-269853 1691 L-268880 1692 L-268860 1692 L-267996 1692 L-265256 1692 L-259457 1690 L-259304 1690 L-256518 1690 L-242910 1690 L-242164 1690 L-237753 1689 L-221407 1689 L-221175 1689 L-220637 1689 L-212178 1689 L-203472 1689 L-203260 1689 L-201288 1689 L-198501 1689 L-194014 1689 L-193859 1689 L-193690 1689 L-193550 1689 L-193259 1689 L-193220 1688 L-192949 1688 L-192778 1688 L-192368 1688 L-191247 1688 L-190067 1688 L-188790 1688 L-185926 1688 L-183006 1688 L-181014 1688 L-179466 1688 L-176428 1687 L-167104 1687 L-166580 1687 L-160856 1687 L-159349 1687 L-158534 1687 L-156851 1687 L-156130 1687 L-155961 1687 L-154916 1687 L-152849 1687 L-151487 1687 L-147044 1687 L-146946 1686 L-146908 1686 L-146889 1686 L-146056 1686 L-145979 1686 L-143406 1686 L-140157 1686 L-140002 1686 L-139054 1686 L-137313 1685 L-136597 1686 L-133056 1686 L-126479 1687 L-125062 1688 L-125041 1688 L-124091 1687 L-120616 1687 L-119863 1687 L-119301 1687 L-118519 1687 L-111015 1687 L-109417 1687 L-107843 1687 L-104657 1687 L-100324 1687 L-91755 1687 L-83008 1687 L-79934 1686 L-76668 1686 L-76122 1686 L-68985 1686 L-63317 1686 L-49253 1686 L-43241 1686 L-38535 1686 L-34532 1686 L-29424 1686 L-19710 1686 L-4140 1686 L-1057 1685 L-755 1647 L-735 1600 L-716 1546 L-696 1486 L-677 1459 L-658 1436 L-639 1415 L-611 1394 L-590 1374 L-563 1352 L-527 1329 L-514 1309 L-501 1291 L-482 1277 L-463 1267 L-443 1256 L-425 1245 L-406 1234 L-386 1223 L-365 1212 L-348 1201 L-329 1190 L-309 1180 L-289 1169 L-270 1158 L-252 1146 L-232 1134 L-212 1122 L-193 1111 L-174 1100 L-153 1089 L-128 1079 L-114 1069 L-97 1059 L-77 1049 L-58 1040 L-39 1029 L-20 1019 L0 1008 L20 999 L38 989 L57 981 L77 972 L98 965 L115 958 L134 951 L154 945 L173 939 L193 933 L211 927 L231 923 L251 918 L270 913 L289 909 L316 903 L337 897 L365 891 L399 883 L413 877 L426 872 L445 867 L464 863 L484 859 L502 854 L522 849 L541 844 L562 839 L579 835 L598 830 L619 826 L638 820 L657 814 L676 808 L696 801 L715 794 L734 788 L753 781 L774 773 L798 765 L813 756 L830 749 L850 741 L869 733 L889 725 L908 717 L928 708 L948 700 L966 693 L985 685 L1005 678 L1026 671 L1044 664 L1063 658 L1083 651 L1101 646 L1121 640 L1140 634 L1160 629 L1179 623 L1198 617 L1217 612 L1246 606 L1266 601 L1294 596 L1331 589 L1346 583 L1358 577 L1375 572 L1392 568 L1412 564 L1431 561 L1450 558 L1470 555 L1491 552 L1508 548 L1527 544 L1547 540 L1567 536 L1585 532 L1604 527 L1624 523 L1644 517 L1663 512 L1681 507 L1703 503 L1727 497 L1742 492 L1759 487 L1779 482 L1798 477 L1818 472 L1836 467 L1856 461 L1877 456 L1895 451 L1914 446 L1934 441 L1954 437 L1972 433 L1991 429 L2011 424 L2030 420 L2050 416 L2069 412 L2088 408 L2108 404 L2127 400 L2146 396 L2174 392 L2194 388 L2222 383 L2258 377 L2273 371 L2286 366 L2303 361 L2321 358 L2341 354 L2360 350 L2379 346 L2399 342 L2420 337 L2439 332 L2456 327 L2476 321 L2496 315 L2514 309 L2533 303 L2553 297 L2574 290 L2591 285 L2610 280 L2632 276 L2656 273 L2671 270 L2689 267 L2708 264 L2727 261 L2746 257 L2765 254 L2785 251 L2806 248 L2823 246 L2843 243 L2863 239 L2884 235 L2901 231 L2920 227 L2940 225 L2959 223 L2978 221 L2997 219 L3017 217 L3037 215 L3056 212 L3074 210 L3102 208 L3123 206 L3151 204 L3185 201 L3199 198 L3212 196 L3231 194 L3250 193 L3270 191 L3288 189 L3308 188 L3327 186 L3348 185 L3365 183 L3384 181 L3405 179 L3425 177 L3443 175 L3461 173 L3481 172 L3502 170 L3520 169 L3539 167 L3560 165 L3585 164 L3599 162 L3617 161 L3636 159 L3655 158 L3675 156 L3694 154 L3714 152 L3735 151 L3752 149 L3771 147 L3791 146 L3812 144 L3829 143 L3848 141 L3868 140 L3887 138 L3907 137 L3926 136 L3946 135 L3965 134 L3984 133 L4003 135 L4032 136 L4052 138 L4080 140 L4117 138 L4132 137 L4145 136 L4162 135 L4178 134 L4198 133 L4217 132 L4236 131 L4256 130 L4277 129 L4294 128 L4313 128 L4333 127 L4353 126 L4371 125 L4390 124 L4410 123 L4430 122 L4448 121 L4467 120 L4489 119 L4513 118 L4528 117 L4545 116 L4565 115 L4584 114 L4603 113 L4622 112 L4642 111 L4663 110 L4681 108 L4700 107 L4720 106 L4741 104 L4758 103 L4777 102 L4797 101 L4816 100 L4835 98 L4854 97 L4874 96 L4894 95 L4913 94 L4932 93 L4959 92 L4980 91 L5008 89 L5043 88 L5056 87 L5070 86 L5089 85 L5107 84 L5127 83 L5145 82 L5165 81 L5185 80 L5206 79 L5223 78 L5241 77 L5262 75 L5282 74 L5300 73 L5319 71 L5339 69 L5359 68 L5377 66 L5396 65 L5417 64 L5442 62 L5457 60 L5474 59 L5493 57 L5513 56 L5532 54 L5551 53 L5571 51 L5592 50 L5609 49 L5628 47 L5649 46 L5670 45 L5687 44 L5705 43 L5725 42 L5744 41 L5764 40 L5783 39 L5803 38 L5823 37 L5841 37 L5860 36 L5888 35 L5909 34 L5936 34 L5972 32 L5986 30 L5999 29 L6017 28 L6035 27 L6055 26 L6074 25 L6093 24 L6113 23 L6134 22 L6151 21 L6170 20 L6190 19 L6210 17 L6229 16 L6247 15 L6267 14 L6288 13 L6306 11 L6324 10 L6346 10 L6371 9 L6385 8 L6403 7 L6422 6 L6442 5 L6461 3 L6480 2 L6500 0" />
</svg>
