<svg xmlns="http://www.w3.org/2000/svg" version="1.1" viewBox="0 0 6500 1000">
	<path fill="none" stroke="gold" stroke-width="125" stroke-linecap="round" stroke-linejoin="round" d="M0 11343  L-730579 11343 L-727975 11342 L-726307 11342 L-707978 11341 L-707808 11340 L-700650 11339 L-700617 11339 L-687186 11338 L-684264 11339 L-670923 11337 L-666754 11335 L-665594 11333 L-664975 11331 L-662963 11329 L-659191 11328 L-658591 11327 L-658262 11326 L-658049 11325 L-657508 11324 L-656270 11321 L-655091 11317 L-652226 11313 L-651704 11309 L-646849 11308 L-643911 11307 L-643868 11306 L-643560 11305 L-643308 11304 L-640713 11303 L-636458 11303 L-636440 11303 L-635203 11303 L-633325 11303 L-631372 11303 L-630424 11302 L-630153 11301 L-629843 11300 L-629745 11300 L-628915 11300 L-626884 11300 L-626594 11296 L-624447 11294 L-624292 11291 L-620636 11288 L-620384 11290 L-620286 11289 L-619769 11291 L-617618 11293 L-616689 11295 L-615163 11298 L-613923 11298 L-612377 11297 L-609415 11296 L-608293 11295 L-607984 11294 L-606773 11294 L-603766 11299 L-603746 11299 L-603399 11298 L-603186 11298 L-603060 11291 L-602818 11290 L-602780 11289 L-602761 11288 L-602741 11287 L-602682 11286 L-602624 11285 L-602606 11284 L-602163 11283 L-600923 11282 L-599378 11281 L-595990 11281 L-590264 11280 L-590062 11280 L-588426 11279 L-586704 11279 L-585272 11278 L-585040 11278 L-584324 11277 L-578192 11277 L-577825 11276 L-577670 11275 L-577092 11274 L-576799 11273 L-575832 11272 L-575522 11271 L-574923 11270 L-573317 11270 L-572582 11270 L-572272 11271 L-571504 11271 L-569468 11270 L-569042 11269 L-568230 11268 L-560801 11267 L-560278 11266 L-560105 11265 L-559370 11264 L-557802 11263 L-557396 11263 L-555171 11262 L-554223 11261 L-553798 11261 L-553468 11261 L-552424 11260 L-550316 11260 L-550064 11259 L-549445 11258 L-548632 11257 L-546524 11256 L-546476 11255 L-544548 11254 L-544222 11253 L-544087 11252 L-543584 11252 L-542171 11251 L-541668 11249 L-541146 11248 L-537587 11246 L-536852 11244 L-534427 11244 L-533138 11243 L-532731 11242 L-529578 11242 L-529423 11242 L-529403 11243 L-529036 11243 L-527778 11243 L-527063 11244 L-526173 11244 L-525766 11244 L-524838 11244 L-523729 11243 L-523426 11245 L-517177 11246 L-516230 11247 L-514604 11248 L-514102 11249 L-510426 11249 L-509594 11249 L-505641 11250 L-504229 11249 L-501739 11248 L-501063 11247 L-501024 11246 L-500153 11246 L-496942 11246 L-494079 11245 L-493111 11245 L-491990 11244 L-491971 11243 L-490346 11242 L-489882 11240 L-489790 11240 L-483420 11239 L-482472 11239 L-480015 11239 L-479143 11238 L-477906 11237 L-475905 11237 L-475508 11236 L-474071 11235 L-472045 11234 L-471832 11233 L-470652 11233 L-469143 11232 L-469123 11232 L-467111 11231 L-466242 11230 L-465371 11230 L-464786 11229 L-464249 11228 L-463591 11227 L-462353 11226 L-461792 11226 L-460611 11225 L-459374 11225 L-459335 11224 L-458948 11224 L-458406 11223 L-457633 11222 L-456510 11222 L-454421 11221 L-454088 11220 L-453802 11219 L-452874 11218 L-452390 11217 L-451655 11217 L-448024 11217 L-446896 11216 L-446741 11216 L-445715 11215 L-442001 11214 L-440783 11213 L-438965 11212 L-436179 11212 L-435618 11211 L-431730 11211 L-429253 11210 L-427918 11210 L-427415 11210 L-426932 11209 L-424242 11209 L-420471 11209 L-418014 11209 L-416834 11209 L-416195 11209 L-413835 11208 L-413758 11207 L-412710 11207 L-412617 11206 L-412114 11206 L-411668 11206 L-411611 11206 L-411397 11206 L-408437 11205 L-405730 11205 L-405575 11204 L-402054 11204 L-401531 11203 L-400564 11202 L-400215 11201 L-399171 11200 L-398243 11199 L-397817 11199 L-396308 11199 L-395341 11198 L-395322 11198 L-393426 11163 L-393310 11127 L-393262 11092 L-393238 11057 L-390234 11056 L-388203 11055 L-386442 11055 L-386075 11054 L-385629 11053 L-385263 11053 L-384849 11052 L-382864 11051 L-382650 11051 L-382496 11051 L-380890 11051 L-379768 11050 L-378820 11050 L-377563 11049 L-375918 11048 L-374739 11047 L-368149 11047 L-368103 11046 L-367697 11046 L-366652 11046 L-366516 11045 L-364834 11044 L-364814 11044 L-363477 11043 L-362241 11042 L-362087 11042 L-361713 11041 L-361507 11040 L-361197 11040 L-360423 11039 L-358102 11038 L-357444 11038 L-355316 11037 L-353594 11037 L-353400 11036 L-350847 11036 L-350571 11035 L-350382 11034 L-349550 11033 L-348777 11033 L-348079 11032 L-343079 11032 L-342703 11031 L-338450 11031 L-337963 11078 L-337944 11078 L-337865 11078 L-337789 11077 L-337770 11028 L-336957 11028 L-336203 11027 L-334984 11026 L-333552 11026 L-333456 11026 L-333281 11026 L-332927 11025 L-331618 11025 L-329760 11024 L-328058 11023 L-327555 11023 L-327290 11022 L-326897 11022 L-326762 11021 L-325853 11021 L-325476 11020 L-324548 11020 L-324209 11020 L-324169 11020 L-324131 11019 L-322216 11019 L-322042 11019 L-320513 11019 L-320185 11018 L-320069 11018 L-319662 11017 L-319314 11016 L-317670 11015 L-317119 11015 L-316876 11014 L-316335 11014 L-315504 11013 L-314962 11013 L-313427 11012 L-313335 11011 L-313298 11011 L-313162 11010 L-312775 11010 L-311750 11009 L-309874 11009 L-309777 11008 L-309177 11024 L-308810 11040 L-308325 11057 L-308287 11073 L-307514 11074 L-307456 11073 L-307282 11072 L-307088 11072 L-305483 11071 L-305463 11070 L-305308 11071 L-305192 11072 L-304013 11072 L-303858 11074 L-303191 11074 L-300743 11113 L-298228 11153 L-295558 11192 L-287859 11230 L-282191 11230 L-279977 11230 L-279953 11230 L-278979 11239 L-278959 11239 L-278096 11239 L-275355 11238 L-269557 11228 L-269403 11227 L-266618 11227 L-253009 11226 L-252263 11225 L-247853 11224 L-231507 11224 L-231274 11223 L-230737 11222 L-222278 11222 L-213572 11221 L-213360 11221 L-211387 11220 L-208601 11220 L-204114 11221 L-203959 11220 L-203790 11220 L-203649 11220 L-203359 11219 L-203320 11218 L-203049 11218 L-202878 11217 L-202467 11217 L-201347 11217 L-200167 11216 L-198890 11216 L-196026 11215 L-193106 11215 L-191114 11214 L-189566 11213 L-186528 11213 L-177204 11212 L-176680 11212 L-170956 11212 L-169449 11211 L-168634 11211 L-166951 11210 L-166230 11210 L-166061 11209 L-165016 11209 L-162949 11208 L-161587 11208 L-157143 11207 L-157046 11207 L-157008 11207 L-156989 11206 L-156156 11206 L-156078 11205 L-153506 11204 L-150257 11204 L-150102 11203 L-149153 11203 L-147412 11202 L-146697 11205 L-143156 11207 L-136579 11210 L-135162 11214 L-135141 11213 L-134190 11213 L-130716 11212 L-129963 11211 L-129401 11211 L-128619 11210 L-121115 11210 L-119516 11209 L-117942 11209 L-114757 11208 L-110424 11208 L-101854 11207 L-93108 11207 L-90034 11207 L-86768 11206 L-86222 11206 L-79084 11205 L-73417 11205 L-59352 11205 L-53341 11206 L-48635 11205 L-44631 11204 L-39524 11204 L-29810 11203 L-14239 11202 L-11157 11201 L-10854 10986 L-10835 10722 L-10816 10421 L-10796 10085 L-10777 9932 L-10757 9802 L-10739 9684 L-10711 9566 L-10690 9453 L-10662 9332 L-10627 9199 L-10613 9087 L-10600 8990 L-10582 8910 L-10563 8851 L-10543 8791 L-10525 8729 L-10506 8669 L-10486 8608 L-10465 8544 L-10448 8482 L-10429 8421 L-10409 8363 L-10389 8303 L-10370 8239 L-10351 8174 L-10332 8106 L-10311 8040 L-10293 7976 L-10274 7916 L-10253 7857 L-10228 7798 L-10214 7743 L-10196 7688 L-10177 7632 L-10157 7578 L-10138 7520 L-10119 7459 L-10099 7403 L-10079 7349 L-10061 7296 L-10042 7247 L-10021 7201 L-10001 7157 L-9984 7119 L-9965 7082 L-9945 7046 L-9926 7011 L-9906 6978 L-9887 6947 L-9868 6921 L-9848 6896 L-9829 6870 L-9810 6845 L-9783 6813 L-9762 6779 L-9734 6742 L-9700 6701 L-9686 6667 L-9673 6637 L-9654 6610 L-9635 6587 L-9615 6562 L-9597 6534 L-9577 6506 L-9557 6478 L-9537 6452 L-9519 6429 L-9500 6403 L-9480 6377 L-9460 6347 L-9442 6313 L-9423 6277 L-9403 6240 L-9383 6202 L-9365 6164 L-9346 6125 L-9325 6082 L-9300 6035 L-9286 5989 L-9268 5945 L-9249 5902 L-9229 5858 L-9210 5813 L-9191 5765 L-9171 5719 L-9151 5674 L-9132 5631 L-9114 5588 L-9093 5548 L-9073 5507 L-9055 5469 L-9036 5434 L-9016 5397 L-8997 5367 L-8978 5335 L-8959 5303 L-8939 5272 L-8920 5239 L-8900 5208 L-8881 5177 L-8853 5145 L-8833 5116 L-8805 5086 L-8768 5050 L-8753 5016 L-8740 4983 L-8723 4954 L-8706 4932 L-8686 4912 L-8668 4892 L-8649 4875 L-8629 4858 L-8608 4839 L-8591 4819 L-8572 4797 L-8552 4775 L-8532 4753 L-8513 4729 L-8495 4703 L-8475 4676 L-8455 4647 L-8436 4618 L-8417 4591 L-8396 4564 L-8372 4535 L-8357 4507 L-8340 4479 L-8320 4450 L-8301 4423 L-8281 4393 L-8262 4362 L-8242 4332 L-8222 4303 L-8204 4274 L-8185 4248 L-8165 4221 L-8145 4197 L-8127 4174 L-8108 4149 L-8088 4125 L-8069 4101 L-8049 4077 L-8030 4055 L-8010 4032 L-7991 4010 L-7972 3988 L-7953 3966 L-7925 3943 L-7905 3921 L-7877 3895 L-7840 3859 L-7826 3826 L-7813 3795 L-7796 3768 L-7778 3751 L-7758 3733 L-7739 3710 L-7719 3687 L-7700 3663 L-7679 3636 L-7660 3608 L-7643 3579 L-7623 3547 L-7602 3514 L-7584 3481 L-7566 3444 L-7546 3408 L-7525 3374 L-7508 3343 L-7489 3316 L-7467 3295 L-7442 3277 L-7428 3261 L-7410 3244 L-7391 3225 L-7372 3206 L-7353 3187 L-7334 3169 L-7314 3151 L-7293 3137 L-7275 3123 L-7256 3107 L-7236 3086 L-7215 3062 L-7198 3039 L-7179 3021 L-7159 3006 L-7140 2995 L-7121 2985 L-7102 2974 L-7082 2962 L-7062 2948 L-7043 2935 L-7024 2923 L-6997 2911 L-6976 2899 L-6948 2886 L-6913 2870 L-6900 2857 L-6886 2845 L-6868 2835 L-6849 2826 L-6829 2816 L-6811 2806 L-6791 2797 L-6771 2789 L-6750 2780 L-6733 2771 L-6715 2761 L-6694 2750 L-6674 2739 L-6656 2727 L-6637 2717 L-6617 2709 L-6597 2700 L-6579 2691 L-6560 2681 L-6539 2672 L-6514 2664 L-6499 2655 L-6482 2648 L-6463 2639 L-6443 2630 L-6424 2620 L-6405 2610 L-6385 2599 L-6364 2589 L-6347 2580 L-6328 2571 L-6307 2562 L-6287 2554 L-6269 2546 L-6250 2537 L-6230 2529 L-6212 2521 L-6192 2513 L-6173 2507 L-6153 2501 L-6134 2495 L-6115 2489 L-6096 2500 L-6067 2509 L-6047 2519 L-6019 2528 L-5982 2519 L-5967 2512 L-5954 2506 L-5937 2500 L-5920 2496 L-5901 2491 L-5882 2485 L-5862 2479 L-5843 2474 L-5822 2470 L-5805 2465 L-5786 2460 L-5766 2455 L-5745 2449 L-5727 2444 L-5709 2438 L-5689 2432 L-5669 2426 L-5650 2421 L-5632 2416 L-5610 2412 L-5585 2408 L-5571 2402 L-5554 2396 L-5534 2391 L-5515 2385 L-5495 2380 L-5476 2374 L-5457 2367 L-5436 2359 L-5418 2351 L-5399 2344 L-5379 2337 L-5358 2330 L-5341 2324 L-5322 2317 L-5302 2310 L-5283 2304 L-5263 2296 L-5245 2289 L-5225 2282 L-5205 2275 L-5186 2271 L-5167 2265 L-5140 2259 L-5119 2253 L-5091 2246 L-5056 2238 L-5043 2231 L-5029 2226 L-5010 2220 L-4992 2214 L-4972 2209 L-4954 2203 L-4934 2198 L-4914 2191 L-4893 2186 L-4876 2180 L-4858 2174 L-4837 2167 L-4817 2160 L-4799 2152 L-4780 2143 L-4760 2134 L-4740 2125 L-4722 2116 L-4703 2109 L-4682 2101 L-4657 2092 L-4642 2083 L-4625 2074 L-4606 2066 L-4586 2058 L-4567 2050 L-4548 2040 L-4528 2033 L-4507 2025 L-4490 2017 L-4471 2009 L-4450 2002 L-4429 1995 L-4412 1989 L-4393 1983 L-4373 1978 L-4354 1973 L-4335 1968 L-4316 1963 L-4296 1959 L-4276 1954 L-4257 1950 L-4239 1947 L-4211 1942 L-4190 1937 L-4162 1932 L-4127 1923 L-4113 1915 L-4100 1907 L-4081 1899 L-4063 1894 L-4044 1889 L-4025 1883 L-4005 1879 L-3986 1873 L-3965 1868 L-3948 1862 L-3929 1855 L-3908 1849 L-3888 1842 L-3870 1835 L-3851 1828 L-3832 1821 L-3811 1815 L-3793 1808 L-3774 1803 L-3753 1798 L-3728 1793 L-3713 1788 L-3696 1782 L-3677 1776 L-3657 1770 L-3638 1763 L-3619 1755 L-3599 1746 L-3578 1737 L-3561 1728 L-3542 1720 L-3521 1713 L-3501 1707 L-3484 1702 L-3465 1697 L-3445 1694 L-3426 1690 L-3406 1686 L-3387 1681 L-3368 1676 L-3348 1672 L-3329 1669 L-3310 1665 L-3283 1660 L-3262 1657 L-3234 1653 L-3200 1649 L-3186 1645 L-3172 1641 L-3154 1638 L-3135 1634 L-3115 1631 L-3097 1628 L-3077 1625 L-3057 1622 L-3037 1620 L-3019 1616 L-3001 1613 L-2980 1609 L-2960 1605 L-2942 1602 L-2923 1599 L-2903 1596 L-2883 1593 L-2865 1591 L-2846 1589 L-2825 1587 L-2800 1583 L-2785 1580 L-2768 1576 L-2749 1573 L-2729 1570 L-2710 1567 L-2691 1564 L-2671 1559 L-2651 1554 L-2633 1547 L-2614 1540 L-2593 1533 L-2573 1527 L-2555 1523 L-2536 1519 L-2516 1514 L-2498 1510 L-2478 1505 L-2459 1500 L-2439 1497 L-2420 1493 L-2400 1490 L-2381 1487 L-2353 1484 L-2305 1481 L-2268 1477 L-2253 1473 L-2241 1470 L-2224 1467 L-2206 1466 L-2187 1464 L-2168 1462 L-2149 1459 L-2129 1456 L-2108 1454 L-2091 1452 L-2072 1450 L-2052 1448 L-2032 1445 L-2013 1442 L-1995 1440 L-1975 1436 L-1955 1433 L-1936 1430 L-1917 1426 L-1896 1421 L-1872 1416 L-1857 1410 L-1840 1405 L-1820 1400 L-1801 1396 L-1781 1391 L-1763 1387 L-1742 1382 L-1722 1377 L-1704 1373 L-1685 1368 L-1665 1364 L-1644 1360 L-1627 1357 L-1608 1354 L-1588 1351 L-1569 1348 L-1549 1345 L-1530 1341 L-1510 1337 L-1491 1334 L-1472 1330 L-1453 1326 L-1425 1323 L-1404 1319 L-1376 1314 L-1340 1307 L-1325 1299 L-1312 1292 L-1295 1287 L-1278 1283 L-1257 1279 L-1239 1276 L-1219 1274 L-1200 1271 L-1179 1269 L-1162 1265 L-1143 1260 L-1123 1256 L-1102 1250 L-1084 1245 L-1065 1238 L-1046 1230 L-1025 1224 L-1007 1218 L-989 1213 L-967 1208 L-942 1203 L-927 1198 L-910 1194 L-891 1190 L-871 1186 L-852 1182 L-834 1175 L-814 1170 L-792 1165 L-775 1160 L-756 1156 L-736 1152 L-715 1148 L-698 1144 L-679 1140 L-659 1136 L-640 1133 L-621 1129 L-602 1125 L-582 1122 L-562 1118 L-543 1116 L-524 1112 L-496 3646 L-476 3642 L-448 3638 L-412 3631 L-398 1089 L-385 1085 L-367 1080 L-349 1078 L-329 1076 L-311 1073 L-291 1070 L-271 1066 L-250 1061 L-233 1056 L-215 1050 L-194 1045 L-174 1039 L-156 1032 L-137 1025 L-117 1018 L-96 1013 L-79 1009 L-60 1005 L-38 1001 L-14 995 L1 989 L30 982 L70 974 L93 967 L122 959 L139 951 L152 945 L172 940 L192 937 L213 934 L230 930 L249 926 L269 923 L287 920 L307 918 L326 916 L346 914 L366 910 L384 907 L403 904 L431 901 L452 897 L480 894 L515 890 L528 885 L560 882 L579 878 L598 876 L617 874 L637 871 L656 869 L677 866 L694 864 L713 857 L733 848 L754 837 L772 824 L791 813 L810 804 L831 796 L849 789 L868 784 L889 780 L914 775 L929 771 L946 766 L965 760 L985 756 L1004 752 L1023 747 L1043 742 L1064 736 L1081 731 L1100 726 L1120 723 L1141 719 L1158 716 L1177 713 L1197 710 L1216 707 L1236 703 L1255 699 L1274 695 L1294 692 L1313 689 L1332 686 L1360 683 L1380 680 L1450 673 L1478 665 L1493 658 L1507 650 L1527 646 L1545 642 L1565 638 L1585 633 L1606 629 L1623 626 L1641 623 L1662 621 L1682 618 L1700 615 L1719 610 L1739 606 L1760 601 L1777 596 L1796 592 L1817 589 L1842 586 L1857 583 L1875 579 L1894 574 L1914 569 L1932 565 L1952 560 L1971 557 L1993 554 L2009 551 L2029 548 L2049 544 L2070 541 L2087 538 L2145 534 L2164 531 L2183 528 L2203 525 L2223 522 L2242 520 L2260 518 L2288 515 L2309 513 L2337 511 L2373 509 L2388 506 L2400 503 L2418 501 L2436 500 L2456 498 L2474 497 L2494 495 L2513 494 L2535 493 L2551 491 L2570 490 L2591 488 L2611 486 L2629 484 L2648 481 L2668 478 L2688 476 L2706 473 L2725 470 L2746 468 L2771 466 L2786 464 L2803 462 L2822 460 L2842 457 L2861 455 L2880 451 L2900 447 L2921 444 L2938 440 L2957 437 L2978 436 L2998 435 L3015 433 L3034 431 L3055 429 L3073 427 L3093 426 L3112 425 L3131 424 L3152 423 L3170 421 L3189 420 L3217 418 L3237 416 L3265 415 L3300 412 L3314 410 L3328 408 L3346 407 L3364 405 L3384 403 L3402 401 L3442 400 L3462 398 L3480 397 L3498 395 L3519 392 L3539 389 L3557 386 L3576 383 L3596 381 L3616 379 L3634 377 L3653 375 L3674 373 L3699 372 L3713 370 L3731 368 L3750 366 L3769 364 L3789 362 L3808 359 L3828 357 L3848 355 L3866 353 L3885 351 L3906 349 L3926 347 L3944 345 L3963 343 L3983 341 L4001 340 L4021 339 L4040 337 L4060 335 L4079 333 L4099 332 L4118 330 L4146 329 L4194 327 L4231 325 L4247 323 L4259 321 L4276 320 L4293 319 L4312 318 L4331 316 L4350 315 L4370 314 L4391 313 L4408 313 L4427 312 L4447 312 L4467 311 L4486 310 L4504 308 L4524 308 L4544 306 L4563 305 L4582 303 L4603 301 L4627 299 L4642 296 L4659 294 L4679 291 L4698 287 L4718 283 L4736 278 L4757 274 L4777 270 L4795 266 L4814 263 L4834 259 L4855 256 L4872 252 L4891 248 L4911 244 L4930 241 L4950 238 L4969 236 L4989 233 L5008 229 L5027 224 L5046 220 L5075 216 L5095 213 L5123 211 L5159 207 L5174 205 L5187 202 L5205 199 L5222 197 L5242 195 L5260 193 L5280 191 L5299 189 L5321 186 L5337 183 L5356 180 L5377 177 L5397 173 L5415 170 L5434 168 L5453 165 L5474 163 L5492 159 L5510 157 L5532 153 L5557 150 L5572 146 L5589 142 L5608 138 L5628 135 L5647 132 L5666 128 L5686 124 L5707 120 L5724 115 L5743 111 L5763 107 L5785 104 L5801 102 L5820 100 L5840 98 L5859 96 L5879 93 L5897 90 L5917 87 L5936 84 L5956 82 L5975 79 L6023 76 L6051 73 L6084 69 L6098 65 L6111 62 L6130 59 L6150 57 L6169 53 L6188 51 L6207 48 L6227 45 L6248 43 L6266 41 L6284 39 L6305 36 L6325 33 L6343 31 L6362 27 L6382 24 L6402 21 L6420 18 L6439 14 L6460 11 L6485 9 L6500 5" />
</svg>
