<svg xmlns="http://www.w3.org/2000/svg" version="1.1" viewBox="0 0 6500 1000">
	<path fill="none" stroke="gold" stroke-width="125" stroke-linecap="round" stroke-linejoin="round" d="M0 1812  L-720634 1812 L-718030 1812 L-716362 1812 L-698033 1811 L-697862 1811 L-690705 1811 L-690671 1811 L-677241 1811 L-674319 1811 L-660978 1811 L-656809 1810 L-655649 1810 L-655030 1810 L-653018 1809 L-649246 1809 L-648646 1809 L-648317 1809 L-648104 1809 L-647562 1808 L-646324 1808 L-645146 1807 L-642281 1806 L-641759 1806 L-636903 1805 L-633966 1805 L-633923 1805 L-633615 1805 L-633363 1805 L-630768 1804 L-626513 1804 L-626495 1804 L-625258 1804 L-623380 1804 L-621427 1804 L-620479 1804 L-620208 1804 L-619898 1804 L-619800 1804 L-618970 1804 L-616939 1804 L-616649 1803 L-614502 1803 L-614347 1802 L-610690 1802 L-610439 1802 L-610341 1802 L-609824 1802 L-607672 1802 L-606744 1803 L-605218 1803 L-603978 1803 L-602432 1803 L-599470 1803 L-598348 1803 L-598039 1803 L-596828 1803 L-593821 1804 L-593801 1804 L-593454 1803 L-593241 1803 L-593115 1802 L-592873 1802 L-592835 1802 L-592815 1802 L-592796 1801 L-592737 1801 L-592679 1801 L-592661 1801 L-592217 1801 L-590978 1800 L-589432 1800 L-586045 1800 L-580318 1800 L-580117 1800 L-578481 1800 L-576759 1800 L-575327 1800 L-575095 1800 L-574379 1800 L-568247 1799 L-567879 1799 L-567725 1799 L-567147 1799 L-566854 1799 L-565887 1799 L-565577 1798 L-564978 1798 L-563372 1798 L-562637 1798 L-562327 1798 L-561559 1798 L-559523 1798 L-559097 1798 L-558285 1798 L-550856 1798 L-550333 1797 L-550160 1797 L-549424 1797 L-547857 1797 L-547451 1797 L-545226 1797 L-544278 1797 L-543853 1796 L-543523 1796 L-542479 1796 L-540371 1796 L-540119 1796 L-539500 1796 L-538687 1796 L-536579 1796 L-536531 1795 L-534603 1795 L-534277 1795 L-534142 1795 L-533639 1795 L-532226 1795 L-531723 1794 L-531201 1794 L-527642 1794 L-526907 1793 L-524482 1793 L-523192 1793 L-522785 1793 L-519633 1793 L-519478 1793 L-519458 1793 L-519091 1793 L-517833 1793 L-517118 1793 L-516228 1793 L-515821 1793 L-514893 1793 L-513784 1793 L-513481 1794 L-507232 1794 L-506285 1794 L-504658 1794 L-504157 1794 L-500481 1794 L-499649 1794 L-495695 1794 L-494284 1794 L-491794 1794 L-491118 1794 L-491079 1794 L-490208 1794 L-486997 1794 L-484134 1794 L-483166 1793 L-482044 1793 L-482026 1793 L-480401 1793 L-479936 1793 L-479844 1793 L-473475 1792 L-472527 1792 L-470070 1792 L-469197 1792 L-467961 1792 L-465960 1792 L-465562 1792 L-464126 1792 L-462100 1791 L-461887 1791 L-460707 1791 L-459198 1791 L-459178 1791 L-457166 1791 L-456296 1791 L-455425 1791 L-454841 1790 L-454303 1790 L-453646 1790 L-452408 1790 L-451847 1790 L-450666 1790 L-449428 1790 L-449390 1790 L-449003 1789 L-448461 1789 L-447687 1789 L-446565 1789 L-444476 1789 L-444143 1789 L-443857 1789 L-442928 1788 L-442445 1788 L-441710 1788 L-438078 1788 L-436951 1788 L-436796 1788 L-435770 1788 L-432055 1788 L-430838 1787 L-429020 1787 L-426234 1787 L-425672 1787 L-421785 1787 L-419308 1787 L-417973 1787 L-417470 1787 L-416987 1787 L-414297 1787 L-410526 1787 L-408068 1787 L-406889 1787 L-406249 1787 L-403890 1787 L-403812 1786 L-402765 1786 L-402671 1786 L-402169 1786 L-401723 1786 L-401665 1786 L-401452 1786 L-398492 1786 L-395785 1786 L-395630 1786 L-392109 1786 L-391586 1786 L-390619 1785 L-390270 1785 L-389226 1785 L-388297 1785 L-387872 1785 L-386363 1785 L-385396 1785 L-385377 1785 L-383481 1778 L-383365 1771 L-383317 1765 L-383293 1758 L-380288 1758 L-378258 1758 L-376497 1758 L-376130 1758 L-375684 1757 L-375317 1757 L-374903 1757 L-372918 1757 L-372705 1757 L-372550 1757 L-370945 1757 L-369823 1757 L-368875 1757 L-367618 1757 L-365973 1757 L-364794 1756 L-358204 1756 L-358157 1756 L-357752 1756 L-356707 1756 L-356571 1756 L-354889 1756 L-354869 1756 L-353532 1755 L-352296 1755 L-352142 1755 L-351768 1755 L-351561 1755 L-351252 1755 L-350478 1755 L-348157 1755 L-347499 1755 L-345371 1754 L-343648 1754 L-343455 1754 L-340902 1754 L-340625 1754 L-340437 1754 L-339605 1754 L-338832 1754 L-338134 1754 L-333134 1754 L-332758 1753 L-328505 1753 L-328018 1762 L-327998 1762 L-327920 1762 L-327844 1762 L-327824 1753 L-327012 1753 L-326258 1753 L-325039 1752 L-323607 1752 L-323511 1752 L-323336 1752 L-322982 1752 L-321672 1752 L-319815 1752 L-318113 1752 L-317610 1752 L-317345 1752 L-316952 1752 L-316817 1751 L-315907 1751 L-315531 1751 L-314603 1751 L-314264 1751 L-314224 1751 L-314186 1751 L-312271 1751 L-312097 1751 L-310568 1751 L-310240 1751 L-310124 1751 L-309717 1751 L-309369 1751 L-307725 1750 L-307174 1750 L-306931 1750 L-306390 1750 L-305558 1750 L-305017 1750 L-303482 1750 L-303390 1750 L-303353 1749 L-303217 1749 L-302830 1749 L-301805 1749 L-299929 1749 L-299832 1749 L-299232 1752 L-298865 1755 L-298380 1758 L-298342 1761 L-297568 1761 L-297511 1761 L-297336 1761 L-297143 1761 L-295537 1761 L-295518 1761 L-295362 1761 L-295247 1761 L-294067 1761 L-293913 1761 L-293246 1761 L-290797 1769 L-288283 1776 L-285613 1783 L-277914 1791 L-272246 1791 L-270031 1791 L-270008 1791 L-269034 1792 L-269014 1792 L-268151 1792 L-265410 1792 L-259612 1790 L-259458 1790 L-256672 1790 L-243064 1790 L-242318 1790 L-237908 1790 L-221561 1789 L-221329 1789 L-220792 1789 L-212333 1789 L-203627 1789 L-203415 1789 L-201442 1789 L-198656 1789 L-194169 1789 L-194014 1789 L-193845 1789 L-193704 1789 L-193414 1789 L-193375 1788 L-193104 1788 L-192932 1788 L-192522 1788 L-191402 1788 L-190221 1788 L-188945 1788 L-186081 1788 L-183161 1788 L-181169 1788 L-179621 1787 L-176583 1787 L-167258 1787 L-166734 1787 L-161011 1787 L-159504 1787 L-158689 1787 L-157005 1787 L-156284 1787 L-156116 1787 L-155071 1787 L-153004 1787 L-151641 1787 L-147198 1786 L-147101 1786 L-147062 1786 L-147043 1786 L-146211 1786 L-146133 1786 L-143561 1786 L-140311 1786 L-140157 1786 L-139208 1786 L-137467 1785 L-136752 1786 L-133211 1786 L-126634 1787 L-125216 1788 L-125196 1787 L-124245 1787 L-120771 1787 L-120018 1787 L-119456 1787 L-118674 1787 L-111170 1787 L-109571 1787 L-107997 1787 L-104812 1787 L-100479 1787 L-91909 1786 L-83163 1786 L-80089 1786 L-76823 1786 L-76276 1786 L-69139 1786 L-63472 1786 L-49407 1786 L-43396 1786 L-38690 1786 L-34686 1786 L-29579 1786 L-19865 1786 L-4294 1785 L-1211 1785 L-909 1745 L-890 1695 L-871 1639 L-851 1576 L-831 1547 L-812 1523 L-793 1500 L-766 1478 L-745 1457 L-717 1434 L-682 1409 L-668 1388 L-655 1370 L-637 1355 L-618 1344 L-598 1333 L-580 1321 L-560 1310 L-541 1298 L-519 1286 L-503 1275 L-484 1263 L-463 1252 L-443 1241 L-425 1229 L-406 1217 L-387 1204 L-366 1192 L-348 1180 L-329 1168 L-308 1157 L-283 1146 L-268 1136 L-251 1126 L-232 1115 L-212 1105 L-193 1094 L-174 1083 L-154 1072 L-134 1062 L-116 1052 L-97 1043 L-76 1034 L-56 1026 L-39 1019 L-20 1012 L0 1005 L18 999 L38 992 L57 987 L77 982 L96 977 L115 972 L134 967 L161 961 L182 955 L210 948 L244 940 L258 934 L272 928 L290 923 L309 919 L329 914 L347 909 L367 904 L387 899 L407 894 L425 889 L444 884 L464 880 L484 874 L502 868 L521 861 L541 854 L561 847 L580 840 L598 832 L620 824 L644 815 L659 807 L676 798 L696 790 L715 782 L734 774 L753 765 L773 756 L794 748 L812 740 L831 731 L851 724 L871 716 L889 709 L908 703 L928 696 L947 690 L966 684 L985 678 L1005 672 L1024 666 L1044 660 L1063 654 L1092 648 L1111 643 L1139 637 L1176 630 L1191 624 L1204 618 L1221 612 L1238 608 L1258 605 L1276 601 L1295 598 L1315 594 L1336 591 L1353 587 L1372 583 L1393 579 L1412 575 L1431 570 L1450 565 L1470 560 L1489 555 L1508 549 L1527 544 L1548 539 L1572 534 L1587 529 L1604 523 L1624 518 L1643 513 L1663 507 L1682 501 L1702 496 L1722 490 L1740 485 L1759 480 L1779 475 L1800 470 L1818 466 L1837 461 L1856 457 L1875 452 L1895 448 L1914 444 L1934 439 L1953 435 L1972 431 L1991 427 L2019 423 L2040 419 L2068 414 L2104 407 L2118 401 L2131 395 L2149 390 L2167 387 L2186 383 L2205 379 L2225 375 L2244 370 L2266 365 L2284 360 L2301 354 L2322 348 L2342 342 L2360 336 L2379 329 L2399 322 L2419 316 L2437 310 L2456 305 L2477 301 L2502 298 L2516 295 L2534 291 L2553 288 L2573 284 L2592 281 L2611 277 L2631 274 L2651 271 L2669 269 L2688 266 L2708 262 L2729 257 L2746 253 L2765 250 L2785 247 L2804 245 L2824 243 L2842 241 L2862 238 L2882 236 L2901 233 L2920 231 L2947 229 L2968 227 L2996 224 L3031 221 L3044 219 L3058 217 L3077 215 L3095 213 L3115 211 L3133 209 L3153 208 L3173 206 L3194 204 L3211 203 L3229 201 L3250 199 L3270 197 L3288 194 L3307 193 L3327 191 L3347 189 L3365 188 L3384 186 L3405 184 L3430 183 L3445 181 L3462 179 L3482 178 L3501 176 L3520 174 L3539 172 L3559 170 L3580 169 L3597 167 L3616 165 L3637 163 L3657 162 L3675 160 L3694 159 L3714 157 L3732 156 L3752 154 L3771 153 L3791 152 L3810 151 L3830 150 L3848 152 L3877 153 L3897 155 L3925 157 L3962 155 L3977 154 L3990 153 L4008 152 L4024 151 L4044 150 L4062 149 L4082 148 L4101 147 L4123 146 L4139 145 L4158 144 L4179 143 L4199 142 L4217 141 L4236 140 L4255 139 L4276 138 L4294 137 L4313 136 L4334 135 L4359 134 L4373 133 L4391 132 L4410 131 L4429 130 L4449 129 L4468 128 L4488 127 L4508 125 L4526 124 L4545 122 L4565 121 L4586 120 L4603 119 L4622 117 L4642 116 L4661 115 L4681 114 L4700 112 L4720 111 L4739 110 L4758 109 L4777 108 L4805 107 L4825 105 L4853 104 L4888 103 L4902 101 L4915 100 L4934 99 L4952 98 L4972 97 L4991 96 L5010 95 L5030 94 L5051 93 L5068 92 L5087 91 L5107 89 L5127 88 L5145 86 L5164 85 L5184 83 L5204 81 L5222 80 L5241 78 L5263 77 L5288 75 L5302 74 L5319 72 L5339 70 L5358 69 L5377 67 L5396 66 L5416 64 L5437 63 L5455 61 L5474 60 L5494 58 L5515 57 L5532 56 L5551 55 L5571 54 L5590 53 L5609 52 L5628 51 L5648 50 L5668 49 L5687 49 L5706 48 L5733 47 L5754 46 L5782 45 L5817 44 L5831 42 L5844 40 L5863 39 L5881 38 L5901 37 L5919 36 L5939 35 L5958 34 L5980 33 L5996 32 L6015 31 L6036 30 L6056 28 L6074 27 L6093 26 L6113 24 L6133 23 L6151 22 L6170 21 L6191 20 L6216 19 L6231 18 L6248 17 L6267 16 L6287 15 L6306 13 L6325 12 L6345 10 L6366 8 L6383 7 L6402 5 L6423 4 L6443 3 L6460 2 L6479 1 L6500 0" />
</svg>
