<svg xmlns="http://www.w3.org/2000/svg" version="1.1" viewBox="0 0 6500 1000">
	<path fill="none" stroke="gold" stroke-width="125" stroke-linecap="round" stroke-linejoin="round" d="M0 1033  L-714134 1033 L-711530 1033 L-709862 1033 L-691532 1033 L-691362 1033 L-684204 1032 L-684171 1032 L-670740 1032 L-667819 1032 L-654478 1032 L-650309 1032 L-649149 1031 L-648529 1030 L-646518 1030 L-642746 1030 L-642146 1030 L-641817 1029 L-641604 1029 L-641062 1029 L-639824 1028 L-638645 1027 L-635781 1026 L-635259 1025 L-630403 1025 L-627466 1025 L-627423 1025 L-627115 1024 L-626863 1024 L-624268 1024 L-620012 1024 L-619995 1024 L-618758 1024 L-616880 1024 L-614927 1024 L-613979 1023 L-613708 1023 L-613398 1023 L-613300 1023 L-612470 1023 L-610439 1023 L-610148 1022 L-608002 1022 L-607847 1021 L-604190 1020 L-603939 1020 L-603841 1020 L-603324 1021 L-601172 1021 L-600244 1022 L-598717 1022 L-597478 1022 L-595932 1022 L-592970 1022 L-591848 1022 L-591539 1022 L-590327 1022 L-587321 1023 L-587301 1023 L-586954 1023 L-586741 1022 L-586614 1021 L-586373 1021 L-586335 1020 L-586315 1020 L-586296 1020 L-586237 1020 L-586178 1019 L-586160 1019 L-585717 1019 L-584478 1019 L-582932 1019 L-579544 1018 L-573818 1018 L-573617 1018 L-571981 1018 L-570259 1018 L-568827 1018 L-568594 1018 L-567879 1017 L-561747 1017 L-561379 1017 L-561225 1017 L-560646 1017 L-560354 1016 L-559387 1016 L-559077 1016 L-558478 1016 L-556872 1016 L-556137 1016 L-555827 1016 L-555058 1016 L-553022 1016 L-552597 1015 L-551784 1015 L-544356 1015 L-543833 1015 L-543659 1015 L-542924 1014 L-541357 1014 L-540951 1014 L-538726 1014 L-537778 1014 L-537353 1014 L-537023 1014 L-535979 1013 L-533871 1013 L-533619 1013 L-533000 1013 L-532187 1013 L-530079 1012 L-530031 1012 L-528102 1012 L-527777 1012 L-527642 1012 L-527139 1011 L-525726 1011 L-525223 1011 L-524701 1010 L-521142 1010 L-520406 1009 L-517982 1009 L-516692 1009 L-516285 1009 L-513133 1009 L-512978 1009 L-512958 1009 L-512591 1009 L-511333 1009 L-510618 1009 L-509728 1009 L-509321 1009 L-508392 1009 L-507284 1009 L-506981 1010 L-500732 1010 L-499784 1010 L-498158 1010 L-497656 1011 L-493981 1011 L-493148 1011 L-489195 1011 L-487783 1011 L-485294 1010 L-484618 1010 L-484579 1010 L-483708 1010 L-480497 1010 L-477634 1010 L-476666 1010 L-475544 1009 L-475525 1009 L-473900 1009 L-473436 1009 L-473344 1009 L-466975 1008 L-466027 1008 L-463570 1008 L-462697 1008 L-461461 1008 L-459460 1008 L-459062 1008 L-457626 1007 L-455600 1007 L-455387 1007 L-454207 1007 L-452698 1007 L-452678 1007 L-450666 1006 L-449796 1006 L-448925 1006 L-448341 1006 L-447803 1006 L-447146 1005 L-445907 1005 L-445347 1005 L-444166 1005 L-442928 1005 L-442890 1005 L-442503 1005 L-441961 1004 L-441187 1004 L-440065 1004 L-437976 1004 L-437643 1004 L-437357 1003 L-436428 1003 L-435945 1003 L-435210 1003 L-431578 1003 L-430451 1003 L-430296 1003 L-429270 1002 L-425555 1002 L-424338 1002 L-422519 1002 L-419734 1002 L-419172 1002 L-415284 1002 L-412808 1001 L-411473 1001 L-410970 1001 L-410486 1001 L-407797 1001 L-404025 1001 L-401568 1001 L-400388 1001 L-399749 1001 L-397390 1001 L-397312 1001 L-396265 1001 L-396171 1000 L-395668 1000 L-395223 1000 L-395165 1000 L-394952 1000 L-391992 1000 L-389284 1000 L-389130 1000 L-385609 1000 L-385086 1000 L-384119 999 L-383770 999 L-382726 999 L-381797 999 L-381372 999 L-379863 999 L-378896 999 L-378877 998 L-376981 990 L-376865 981 L-376817 973 L-376792 964 L-373788 964 L-371758 964 L-369997 964 L-369630 964 L-369184 964 L-368817 964 L-368403 963 L-366418 963 L-366205 963 L-366050 963 L-364445 963 L-363323 963 L-362375 963 L-361118 963 L-359473 962 L-358293 962 L-351704 962 L-351657 962 L-351252 962 L-350206 962 L-350071 962 L-348389 961 L-348369 961 L-347032 961 L-345796 961 L-345641 961 L-345267 961 L-345061 961 L-344752 960 L-343978 960 L-341656 960 L-340999 960 L-338871 960 L-337148 960 L-336955 959 L-334402 959 L-334125 959 L-333937 959 L-333105 959 L-332332 959 L-331634 959 L-326633 959 L-326258 958 L-322005 958 L-321518 970 L-321498 970 L-321419 969 L-321344 969 L-321324 958 L-320511 958 L-319758 957 L-318539 957 L-317107 957 L-317010 957 L-316836 957 L-316482 957 L-315172 957 L-313315 957 L-311613 956 L-311110 956 L-310844 956 L-310451 956 L-310317 956 L-309407 956 L-309031 956 L-308102 956 L-307763 956 L-307724 956 L-307686 955 L-305771 955 L-305597 955 L-304068 955 L-303740 955 L-303624 955 L-303217 955 L-302869 955 L-301225 955 L-300674 954 L-300431 954 L-299890 954 L-299058 954 L-298517 954 L-296982 954 L-296890 954 L-296853 953 L-296717 953 L-296330 953 L-295305 953 L-293428 953 L-293332 953 L-292732 957 L-292365 960 L-291880 964 L-291842 968 L-291068 969 L-291011 968 L-290836 968 L-290643 968 L-289037 968 L-289017 968 L-288862 968 L-288747 968 L-287567 968 L-287412 969 L-286746 969 L-284297 978 L-281782 988 L-279113 997 L-271413 1006 L-265746 1006 L-263531 1006 L-263508 1006 L-262534 1008 L-262514 1008 L-261650 1008 L-258910 1008 L-253112 1006 L-252958 1005 L-250172 1005 L-236564 1005 L-235818 1005 L-231407 1005 L-215061 1005 L-214829 1004 L-214292 1004 L-205833 1004 L-197127 1004 L-196915 1004 L-194942 1004 L-192156 1004 L-187668 1004 L-187514 1004 L-187345 1004 L-187204 1004 L-186913 1003 L-186875 1003 L-186604 1003 L-186432 1003 L-186022 1003 L-184902 1003 L-183721 1003 L-182445 1003 L-179581 1003 L-176660 1002 L-174668 1002 L-173121 1002 L-170083 1002 L-160758 1002 L-160234 1002 L-154511 1002 L-153003 1002 L-152189 1002 L-150505 1001 L-149784 1001 L-149616 1001 L-148571 1001 L-146503 1001 L-145141 1001 L-140698 1001 L-140601 1001 L-140562 1000 L-140543 1000 L-139711 1000 L-139633 1000 L-137061 1000 L-133811 1000 L-133656 1000 L-132708 1000 L-130967 999 L-130252 1000 L-126711 1001 L-120134 1001 L-118716 1002 L-118696 1002 L-117745 1002 L-114271 1002 L-113517 1002 L-112956 1002 L-112174 1001 L-104670 1001 L-103071 1001 L-101497 1001 L-98312 1001 L-93979 1001 L-85409 1001 L-76663 1001 L-73589 1001 L-70323 1000 L-69776 1000 L-62639 1000 L-56971 1000 L-42907 1000 L-36896 1000 L-32189 1000 L-28186 1000 L-23079 1000 L-13365 1000 L2205 999 L5288 999 L5590 948 L5610 884 L5628 812 L5648 731 L5668 694 L5687 663 L5706 634 L5733 606 L5754 579 L5782 550 L5817 518 L5831 491 L5844 468 L5862 448 L5881 434 L5901 420 L5919 405 L5939 390 L5959 376 L5980 360 L5997 345 L6015 331 L6036 317 L6056 302 L6074 287 L6093 271 L6113 255 L6133 239 L6151 224 L6170 209 L6191 195 L6216 181 L6231 168 L6248 154 L6267 141 L6287 128 L6306 114 L6325 99 L6345 86 L6365 73 L6383 60 L6402 48 L6423 37 L6443 27 L6460 18 L6479 9 L6500 0" />
</svg>
