<svg xmlns="http://www.w3.org/2000/svg" version="1.1" viewBox="0 0 6500 1000">
	<path fill="none" stroke="gold" stroke-width="125" stroke-linecap="round" stroke-linejoin="round" d="M0 1016  L-717771 1016 L-715167 1016 L-713499 1016 L-695170 1016 L-695000 1016 L-687842 1015 L-687809 1015 L-674378 1015 L-671456 1015 L-658115 1015 L-653946 1015 L-652786 1015 L-652167 1014 L-650155 1014 L-646383 1014 L-645783 1014 L-645455 1014 L-645241 1014 L-644700 1014 L-643462 1013 L-642283 1013 L-639418 1012 L-638896 1012 L-634041 1012 L-631103 1012 L-631061 1012 L-630752 1012 L-630500 1011 L-627905 1011 L-623650 1011 L-623632 1011 L-622395 1011 L-620518 1011 L-618564 1011 L-617616 1011 L-617345 1011 L-617036 1011 L-616937 1011 L-616107 1011 L-614076 1011 L-613786 1010 L-611639 1010 L-611484 1010 L-607828 1010 L-607577 1010 L-607478 1010 L-606961 1010 L-604810 1010 L-603881 1010 L-602355 1011 L-601115 1011 L-599569 1011 L-596607 1010 L-595485 1010 L-595176 1010 L-593965 1010 L-590958 1011 L-590939 1011 L-590591 1011 L-590378 1011 L-590252 1010 L-590010 1010 L-589972 1010 L-589953 1010 L-589933 1009 L-589874 1009 L-589816 1009 L-589798 1009 L-589355 1009 L-588115 1009 L-586570 1009 L-583182 1009 L-577456 1009 L-577254 1009 L-575618 1008 L-573896 1008 L-572464 1008 L-572232 1008 L-571517 1008 L-565384 1008 L-565017 1008 L-564862 1008 L-564284 1008 L-563991 1008 L-563024 1008 L-562714 1008 L-562115 1007 L-560509 1007 L-559774 1007 L-559464 1007 L-558696 1007 L-556660 1007 L-556234 1007 L-555422 1007 L-547993 1007 L-547470 1007 L-547297 1007 L-546562 1007 L-544994 1007 L-544588 1007 L-542363 1006 L-541415 1006 L-540990 1006 L-540660 1006 L-539616 1006 L-537508 1006 L-537256 1006 L-536637 1006 L-535824 1006 L-533717 1006 L-533668 1006 L-531740 1006 L-531414 1006 L-531279 1005 L-530776 1005 L-529363 1005 L-528860 1005 L-528339 1005 L-524779 1005 L-524044 1004 L-521619 1004 L-520330 1004 L-519923 1004 L-516770 1004 L-516615 1004 L-516595 1004 L-516229 1004 L-514970 1004 L-514255 1004 L-513365 1004 L-512958 1004 L-512030 1004 L-510921 1004 L-510618 1005 L-504369 1005 L-503422 1005 L-501796 1005 L-501294 1005 L-497618 1005 L-496786 1005 L-492833 1005 L-491421 1005 L-488932 1005 L-488255 1005 L-488216 1005 L-487346 1005 L-484134 1005 L-481271 1005 L-480303 1005 L-479182 1004 L-479163 1004 L-477538 1004 L-477074 1004 L-476982 1004 L-470612 1004 L-469664 1004 L-467207 1004 L-466335 1004 L-465099 1004 L-463097 1004 L-462700 1003 L-461263 1003 L-459237 1003 L-459024 1003 L-457844 1003 L-456336 1003 L-456315 1003 L-454303 1003 L-453434 1003 L-452563 1003 L-451978 1003 L-451441 1003 L-450783 1002 L-449545 1002 L-448984 1002 L-447803 1002 L-446566 1002 L-446527 1002 L-446140 1002 L-445599 1002 L-444825 1002 L-443703 1002 L-441613 1002 L-441280 1002 L-440994 1002 L-440066 1001 L-439582 1001 L-438847 1001 L-435216 1001 L-434088 1001 L-433933 1001 L-432907 1001 L-429193 1001 L-427975 1001 L-426157 1001 L-423371 1001 L-422810 1001 L-418922 1001 L-416445 1001 L-415110 1001 L-414607 1000 L-414124 1000 L-411435 1000 L-407663 1000 L-405206 1000 L-404026 1000 L-403387 1000 L-401027 1000 L-400950 1000 L-399902 1000 L-399809 1000 L-399306 1000 L-398860 1000 L-398803 1000 L-398589 1000 L-395629 1000 L-392922 1000 L-392767 1000 L-389246 1000 L-388723 1000 L-387756 1000 L-387407 999 L-386363 999 L-385435 999 L-385009 999 L-383500 999 L-382533 999 L-382514 999 L-380618 995 L-380502 991 L-380454 987 L-380430 983 L-377426 983 L-375395 983 L-373634 983 L-373267 982 L-372822 982 L-372455 982 L-372041 982 L-370056 982 L-369843 982 L-369688 982 L-368082 982 L-366961 982 L-366012 982 L-364755 982 L-363110 982 L-361931 982 L-355341 982 L-355295 982 L-354889 982 L-353844 981 L-353708 981 L-352026 981 L-352006 981 L-350669 981 L-349433 981 L-349279 981 L-348905 981 L-348699 981 L-348389 981 L-347615 981 L-345294 981 L-344636 981 L-342508 981 L-340786 980 L-340592 980 L-338039 980 L-337763 980 L-337575 980 L-336742 980 L-335970 980 L-335272 980 L-330271 980 L-329895 980 L-325642 980 L-325155 985 L-325136 985 L-325057 985 L-324981 985 L-324962 979 L-324149 979 L-323395 979 L-322176 979 L-320744 979 L-320648 979 L-320473 979 L-320119 979 L-318810 979 L-316952 979 L-315250 979 L-314747 979 L-314482 979 L-314089 979 L-313955 979 L-313045 979 L-312668 979 L-311740 979 L-311401 978 L-311361 978 L-311324 978 L-309408 978 L-309234 978 L-307706 978 L-307377 978 L-307261 978 L-306854 978 L-306506 978 L-304862 978 L-304311 978 L-304068 978 L-303527 978 L-302696 978 L-302154 978 L-300619 978 L-300527 977 L-300490 977 L-300354 977 L-299967 977 L-298942 977 L-297066 977 L-296970 977 L-296369 979 L-296002 981 L-295518 983 L-295480 985 L-294706 985 L-294648 985 L-294474 985 L-294280 985 L-292675 984 L-292655 984 L-292500 984 L-292384 985 L-291205 985 L-291050 985 L-290383 985 L-287935 989 L-285420 994 L-282750 998 L-275051 1003 L-269383 1003 L-267169 1003 L-267145 1003 L-266171 1004 L-266152 1004 L-265288 1004 L-262548 1004 L-256749 1003 L-256596 1002 L-253810 1002 L-240201 1002 L-239456 1002 L-235045 1002 L-218699 1002 L-218466 1002 L-217929 1002 L-209470 1002 L-200764 1002 L-200552 1002 L-198579 1002 L-195793 1002 L-191306 1002 L-191151 1002 L-190982 1002 L-190842 1002 L-190551 1002 L-190512 1001 L-190241 1001 L-190070 1001 L-189660 1001 L-188539 1001 L-187359 1001 L-186082 1001 L-183218 1001 L-180298 1001 L-178306 1001 L-176758 1001 L-173720 1001 L-164396 1001 L-163872 1001 L-158148 1001 L-156641 1001 L-155826 1001 L-154143 1001 L-153422 1000 L-153253 1000 L-152208 1000 L-150141 1000 L-148779 1000 L-144335 1000 L-144238 1000 L-144200 1000 L-144181 1000 L-143348 1000 L-143270 1000 L-140698 1000 L-137449 1000 L-137294 1000 L-136346 1000 L-134604 1000 L-133889 1000 L-130348 1000 L-123771 1000 L-122354 1001 L-122333 1001 L-121382 1001 L-117908 1001 L-117155 1001 L-116593 1001 L-115811 1001 L-108307 1000 L-106709 1000 L-105135 1000 L-101949 1000 L-97616 1000 L-89047 1000 L-80300 1000 L-77226 1000 L-73960 1000 L-73414 1000 L-66277 1000 L-60609 1000 L-46544 1000 L-40533 1000 L-35827 1000 L-31824 1000 L-26716 1000 L-17002 1000 L-1431 1000 L1650 999 L1952 975 L1972 944 L1991 909 L2011 870 L2030 853 L2050 838 L2068 824 L2096 810 L2117 797 L2145 783 L2180 768 L2193 755 L2207 744 L2225 734 L2244 728 L2264 721 L2282 714 L2301 706 L2321 699 L2342 692 L2359 685 L2378 678 L2398 671 L2418 664 L2437 657 L2455 649 L2475 641 L2495 634 L2514 626 L2533 619 L2554 613 L2579 606 L2593 599 L2610 593 L2630 587 L2649 580 L2669 574 L2687 567 L2707 560 L2728 554 L2746 548 L2765 542 L2785 537 L2806 532 L2823 527 L2842 523 L2862 519 L2881 515 L2901 511 L2919 507 L2939 504 L2959 501 L2978 498 L2997 495 L3024 492 L3045 488 L3073 484 L3107 479 L3121 475 L3134 471 L3153 468 L3172 466 L3192 463 L3210 460 L3230 456 L3250 453 L3270 450 L3288 447 L3306 444 L3327 441 L3346 438 L3365 434 L3384 430 L3404 426 L3423 421 L3442 417 L3461 412 L3482 407 L3507 402 L3521 396 L3538 391 L3558 386 L3577 381 L3597 376 L3616 371 L3636 365 L3656 360 L3674 355 L3693 350 L3713 345 L3734 341 L3752 336 L3771 332 L3791 328 L3809 325 L3829 321 L3848 317 L3868 314 L3887 310 L3907 306 L3925 302 L3954 299 L3974 295 L4002 292 L4039 288 L4054 284 L4066 280 L4084 277 L4101 274 L4120 272 L4139 270 L4158 268 L4178 266 L4199 263 L4216 261 L4235 259 L4255 256 L4275 253 L4293 251 L4312 248 L4332 245 L4352 241 L4371 238 L4390 235 L4411 232 L4435 228 L4450 225 L4467 222 L4487 218 L4506 215 L4526 212 L4544 208 L4564 205 L4585 201 L4603 198 L4622 195 L4642 192 L4662 189 L4680 186 L4699 184 L4719 181 L4738 178 L4758 175 L4777 173 L4796 170 L4816 168 L4835 165 L4854 162 L4882 160 L4902 157 L4930 154 L4966 150 L4981 146 L4994 143 L5011 140 L5029 138 L5049 135 L5068 133 L5087 130 L5107 127 L5128 124 L5147 121 L5164 118 L5184 114 L5204 110 L5222 106 L5241 102 L5261 98 L5282 94 L5299 90 L5318 87 L5340 85 L5365 83 L5379 81 L5397 79 L5416 77 L5435 75 L5454 72 L5473 70 L5493 68 L5514 67 L5531 65 L5551 63 L5571 61 L5592 58 L5609 55 L5628 53 L5648 51 L5667 50 L5686 49 L5705 48 L5725 46 L5745 45 L5764 43 L5783 42 L5810 40 L5831 39 L5859 38 L5894 36 L5907 34 L5920 33 L5939 32 L5958 31 L5978 29 L5996 28 L6016 27 L6035 26 L6056 25 L6073 24 L6092 23 L6113 22 L6133 20 L6151 19 L6170 18 L6190 17 L6210 16 L6228 15 L6247 14 L6268 13 L6293 12 L6308 11 L6325 10 L6344 9 L6363 8 L6383 7 L6402 6 L6422 4 L6443 3 L6460 2 L6479 1 L6500 0" />
</svg>
