<svg xmlns="http://www.w3.org/2000/svg" version="1.1" viewBox="0 0 6500 1000">
	<path fill="none" stroke="gold" stroke-width="125" stroke-linecap="round" stroke-linejoin="round" d="M0 1016  L-718012 1016 L-715408 1016 L-713740 1016 L-695410 1015 L-695240 1015 L-688082 1015 L-688049 1015 L-674618 1015 L-671696 1015 L-658355 1015 L-654186 1015 L-653026 1015 L-652407 1014 L-650395 1014 L-646624 1014 L-646024 1014 L-645695 1014 L-645482 1014 L-644940 1014 L-643702 1013 L-642523 1013 L-639659 1012 L-639137 1012 L-634281 1012 L-631344 1012 L-631301 1012 L-630993 1011 L-630741 1011 L-628146 1011 L-623890 1011 L-623872 1011 L-622636 1011 L-620758 1011 L-618805 1011 L-617857 1011 L-617586 1011 L-617276 1011 L-617178 1011 L-616348 1011 L-614317 1011 L-614026 1010 L-611880 1010 L-611724 1010 L-608068 1009 L-607817 1010 L-607718 1010 L-607201 1010 L-605050 1010 L-604121 1010 L-602595 1011 L-601356 1011 L-599809 1010 L-596848 1010 L-595726 1010 L-595417 1010 L-594205 1010 L-591199 1011 L-591179 1011 L-590832 1011 L-590618 1011 L-590492 1010 L-590251 1010 L-590213 1010 L-590193 1009 L-590174 1009 L-590115 1009 L-590056 1009 L-590038 1009 L-589595 1009 L-588356 1009 L-586810 1009 L-583422 1009 L-577696 1009 L-577495 1008 L-575859 1008 L-574137 1008 L-572705 1008 L-572472 1008 L-571757 1008 L-565625 1008 L-565257 1008 L-565103 1008 L-564524 1008 L-564232 1008 L-563264 1008 L-562955 1007 L-562356 1007 L-560750 1007 L-560014 1007 L-559705 1007 L-558936 1007 L-556900 1007 L-556475 1007 L-555662 1007 L-548234 1007 L-547711 1007 L-547537 1007 L-546802 1007 L-545234 1007 L-544829 1007 L-542604 1006 L-541656 1006 L-541231 1006 L-540901 1006 L-539857 1006 L-537749 1006 L-537497 1006 L-536878 1006 L-536065 1006 L-533957 1006 L-533909 1006 L-531980 1006 L-531655 1005 L-531520 1005 L-531016 1005 L-529604 1005 L-529101 1005 L-528579 1005 L-525019 1005 L-524284 1004 L-521859 1004 L-520570 1004 L-520163 1004 L-517011 1004 L-516856 1004 L-516836 1004 L-516469 1004 L-515211 1004 L-514496 1004 L-513606 1004 L-513199 1004 L-512270 1004 L-511162 1004 L-510858 1005 L-504610 1005 L-503662 1005 L-502036 1005 L-501534 1005 L-497859 1005 L-497026 1005 L-493073 1005 L-491661 1005 L-489172 1005 L-488496 1005 L-488457 1005 L-487586 1005 L-484375 1005 L-481512 1005 L-480544 1004 L-479422 1004 L-479403 1004 L-477778 1004 L-477314 1004 L-477222 1004 L-470853 1004 L-469904 1004 L-467447 1004 L-466575 1004 L-465339 1004 L-463338 1004 L-462940 1003 L-461504 1003 L-459478 1003 L-459264 1003 L-458084 1003 L-456576 1003 L-456556 1003 L-454544 1003 L-453674 1003 L-452803 1003 L-452218 1003 L-451681 1003 L-451023 1002 L-449785 1002 L-449225 1002 L-448044 1002 L-446806 1002 L-446768 1002 L-446381 1002 L-445839 1002 L-445065 1002 L-443943 1002 L-441854 1002 L-441520 1002 L-441235 1002 L-440306 1001 L-439823 1001 L-439087 1001 L-435456 1001 L-434329 1001 L-434174 1001 L-433148 1001 L-429433 1001 L-428216 1001 L-426397 1001 L-423612 1001 L-423050 1001 L-419162 1001 L-416686 1001 L-415351 1001 L-414847 1000 L-414364 1000 L-411675 1000 L-407903 1000 L-405446 1000 L-404266 1000 L-403627 1000 L-401268 1000 L-401190 1000 L-400143 1000 L-400049 1000 L-399546 1000 L-399101 1000 L-399043 1000 L-398829 1000 L-395870 1000 L-393162 1000 L-393007 1000 L-389487 1000 L-388964 1000 L-387996 1000 L-387647 999 L-386604 999 L-385675 999 L-385250 999 L-383740 999 L-382774 999 L-382755 999 L-380859 995 L-380743 991 L-380695 987 L-380670 983 L-377666 983 L-375635 983 L-373875 983 L-373508 983 L-373062 982 L-372695 982 L-372281 982 L-370296 982 L-370083 982 L-369928 982 L-368323 982 L-367201 982 L-366253 982 L-364995 982 L-363351 982 L-362171 982 L-355582 982 L-355535 982 L-355129 982 L-354084 982 L-353949 982 L-352266 981 L-352246 981 L-350910 981 L-349673 981 L-349519 981 L-349145 981 L-348939 981 L-348630 981 L-347856 981 L-345534 981 L-344876 981 L-342749 981 L-341026 981 L-340833 981 L-338279 980 L-338003 980 L-337815 980 L-336982 980 L-336210 980 L-335512 980 L-330511 980 L-330135 980 L-325883 980 L-325395 985 L-325376 985 L-325297 985 L-325222 985 L-325202 980 L-324389 980 L-323636 979 L-322416 979 L-320985 979 L-320888 979 L-320714 979 L-320359 979 L-319050 979 L-317193 979 L-315490 979 L-314988 979 L-314722 979 L-314329 979 L-314195 979 L-313285 979 L-312909 979 L-311980 979 L-311641 979 L-311602 979 L-311564 979 L-309648 979 L-309475 979 L-307946 979 L-307618 978 L-307502 978 L-307095 978 L-306746 978 L-305103 978 L-304552 978 L-304309 978 L-303767 978 L-302936 978 L-302394 978 L-300860 978 L-300768 978 L-300731 978 L-300595 978 L-300208 978 L-299183 977 L-297306 977 L-297210 977 L-296610 979 L-296243 981 L-295758 983 L-295720 985 L-294946 985 L-294889 985 L-294714 985 L-294521 985 L-292915 985 L-292895 984 L-292740 985 L-292625 985 L-291445 985 L-291290 985 L-290623 985 L-288175 989 L-285660 994 L-282990 998 L-275291 1003 L-269624 1003 L-267409 1003 L-267386 1003 L-266412 1004 L-266392 1004 L-265528 1004 L-262788 1004 L-256989 1003 L-256836 1002 L-254050 1002 L-240442 1002 L-239696 1002 L-235285 1002 L-218939 1002 L-218707 1002 L-218170 1002 L-209710 1002 L-201005 1002 L-200792 1002 L-198820 1002 L-196034 1002 L-191546 1002 L-191391 1002 L-191222 1002 L-191082 1002 L-190791 1002 L-190753 1001 L-190482 1001 L-190310 1001 L-189900 1001 L-188779 1001 L-187599 1001 L-186322 1001 L-183458 1001 L-180538 1001 L-178546 1001 L-176999 1001 L-173961 1001 L-164636 1001 L-164112 1001 L-158388 1001 L-156881 1001 L-156067 1001 L-154383 1001 L-153662 1000 L-153494 1000 L-152448 1000 L-150381 1000 L-149019 1000 L-144576 1000 L-144479 1000 L-144440 1000 L-144421 1000 L-143589 1000 L-143511 1000 L-140938 1000 L-137689 1000 L-137534 1000 L-136586 1000 L-134845 1000 L-134129 1000 L-130589 1000 L-124011 1000 L-122594 1001 L-122573 1001 L-121623 1001 L-118148 1001 L-117395 1001 L-116834 1001 L-116052 1001 L-108547 1000 L-106949 1000 L-105375 1000 L-102190 1000 L-97857 1000 L-89287 1000 L-80541 1000 L-77467 1000 L-74201 1000 L-73654 1000 L-66517 1000 L-60849 1000 L-46785 1000 L-40774 1000 L-36067 1000 L-32064 1000 L-26956 1000 L-17242 1000 L-1672 1000 L1410 999 L1712 975 L1732 944 L1751 910 L1770 871 L1790 854 L1809 839 L1828 825 L1855 812 L1876 799 L1904 785 L1939 770 L1953 757 L1966 746 L1985 737 L2003 730 L2023 723 L2041 716 L2061 709 L2081 702 L2102 695 L2119 687 L2137 680 L2158 674 L2178 667 L2196 660 L2215 652 L2235 644 L2255 637 L2273 629 L2292 623 L2313 616 L2338 609 L2353 603 L2370 596 L2390 590 L2409 584 L2428 577 L2447 570 L2467 564 L2488 557 L2505 551 L2524 546 L2545 541 L2565 536 L2583 531 L2602 527 L2622 523 L2641 519 L2660 515 L2679 511 L2699 508 L2719 506 L2738 503 L2756 500 L2784 496 L2805 492 L2832 488 L2866 483 L2881 479 L2894 476 L2912 473 L2931 470 L2951 467 L2970 464 L2989 461 L3009 458 L3030 455 L3047 452 L3066 449 L3086 446 L3106 443 L3125 439 L3143 435 L3163 430 L3183 426 L3202 422 L3221 417 L3242 412 L3266 407 L3281 401 L3298 396 L3318 391 L3337 387 L3357 381 L3375 376 L3396 371 L3416 365 L3434 360 L3453 355 L3473 351 L3494 346 L3511 342 L3530 338 L3550 334 L3569 330 L3589 326 L3608 323 L3627 319 L3647 315 L3666 312 L3685 308 L3714 305 L3734 301 L3761 298 L3799 294 L3814 290 L3826 286 L3843 283 L3860 280 L3880 278 L3899 276 L3918 274 L3938 272 L3958 270 L3976 267 L3994 265 L4015 262 L4035 260 L4053 257 L4072 254 L4092 251 L4112 248 L4130 244 L4149 241 L4170 238 L4195 235 L4209 232 L4227 228 L4247 225 L4266 222 L4285 218 L4304 215 L4324 211 L4344 208 L4363 205 L4381 202 L4402 199 L4422 196 L4440 193 L4459 190 L4479 188 L4497 185 L4517 182 L4536 180 L4556 177 L4575 174 L4595 172 L4614 169 L4642 167 L4662 164 L4690 161 L4726 157 L4740 153 L4753 150 L4771 147 L4789 145 L4809 143 L4827 140 L4847 137 L4867 135 L4888 132 L4906 128 L4923 125 L4944 121 L4964 118 L4982 114 L5001 110 L5021 105 L5041 101 L5059 98 L5078 95 L5099 92 L5124 90 L5139 89 L5156 87 L5175 84 L5195 82 L5214 80 L5233 78 L5253 76 L5274 74 L5291 73 L5310 71 L5331 68 L5351 66 L5368 63 L5387 61 L5408 59 L5426 58 L5446 57 L5465 56 L5485 54 L5504 53 L5523 51 L5542 50 L5570 48 L5591 47 L5618 46 L5653 44 L5667 42 L5680 41 L5699 40 L5717 39 L5737 37 L5756 36 L5775 35 L5795 34 L5816 33 L5833 32 L5852 31 L5872 30 L5892 29 L5910 27 L5929 26 L5949 25 L5969 24 L5988 23 L6006 22 L6028 21 L6053 20 L6067 19 L6084 18 L6104 17 L6123 16 L6142 15 L6161 14 L6181 13 L6202 11 L6220 10 L6239 9 L6259 8 L6280 7 L6297 6 L6316 5 L6336 5 L6355 4 L6375 3 L6393 2 L6413 1 L6433 1 L6452 0 L6471 1 L6500 2" />
</svg>
