<svg xmlns="http://www.w3.org/2000/svg" version="1.1" viewBox="0 0 6500 1000">
	<path fill="none" stroke="gold" stroke-width="125" stroke-linecap="round" stroke-linejoin="round" d="M0 3333  L-727849 3333 L-725245 3333 L-723577 3333 L-705248 3332 L-705077 3332 L-697920 3332 L-697887 3332 L-684456 3332 L-681534 3332 L-668193 3331 L-664024 3331 L-662864 3330 L-662245 3329 L-660233 3329 L-656461 3329 L-655861 3328 L-655532 3328 L-655319 3328 L-654778 3327 L-653540 3326 L-652361 3325 L-649496 3324 L-648974 3323 L-644119 3323 L-641181 3322 L-641138 3322 L-640830 3322 L-640578 3321 L-637983 3321 L-633728 3321 L-633710 3321 L-632473 3321 L-630595 3321 L-628642 3321 L-627694 3321 L-627423 3320 L-627113 3320 L-627015 3320 L-626185 3320 L-624154 3320 L-623864 3319 L-621717 3318 L-621562 3317 L-617906 3316 L-617654 3317 L-617556 3317 L-617039 3317 L-614888 3318 L-613959 3319 L-612433 3319 L-611193 3319 L-609647 3319 L-606685 3319 L-605563 3319 L-605254 3318 L-604043 3318 L-601036 3320 L-601016 3320 L-600669 3319 L-600456 3319 L-600330 3317 L-600088 3317 L-600050 3317 L-600031 3316 L-600011 3316 L-599952 3316 L-599894 3316 L-599876 3315 L-599433 3315 L-598193 3315 L-596648 3314 L-593260 3314 L-587534 3314 L-587332 3314 L-585696 3314 L-583974 3314 L-582542 3313 L-582310 3313 L-581594 3313 L-575462 3313 L-575095 3313 L-574940 3312 L-574362 3312 L-574069 3312 L-573102 3312 L-572792 3311 L-572193 3311 L-570587 3311 L-569852 3311 L-569542 3311 L-568774 3311 L-566738 3311 L-566312 3311 L-565500 3310 L-558071 3310 L-557548 3310 L-557375 3309 L-556640 3309 L-555072 3309 L-554666 3309 L-552441 3308 L-551493 3308 L-551068 3308 L-550738 3308 L-549694 3308 L-547586 3308 L-547334 3307 L-546715 3307 L-545902 3307 L-543794 3307 L-543746 3306 L-541818 3306 L-541492 3306 L-541357 3306 L-540854 3305 L-539441 3305 L-538938 3305 L-538416 3304 L-534857 3304 L-534122 3303 L-531697 3303 L-530408 3303 L-530001 3303 L-526848 3303 L-526693 3303 L-526673 3303 L-526306 3303 L-525048 3303 L-524333 3303 L-523443 3303 L-523036 3303 L-522108 3303 L-520999 3303 L-520696 3303 L-514447 3304 L-513500 3304 L-511874 3304 L-511372 3304 L-507696 3305 L-506864 3305 L-502911 3305 L-501499 3304 L-499009 3304 L-498333 3304 L-498294 3304 L-497423 3304 L-494212 3304 L-491349 3303 L-490381 3303 L-489260 3303 L-489241 3303 L-487616 3302 L-487152 3302 L-487060 3302 L-480690 3302 L-479742 3302 L-477285 3301 L-476413 3301 L-475176 3301 L-473175 3301 L-472778 3301 L-471341 3300 L-469315 3300 L-469102 3300 L-467922 3300 L-466413 3299 L-466393 3299 L-464381 3299 L-463512 3299 L-462641 3299 L-462056 3298 L-461519 3298 L-460861 3298 L-459623 3298 L-459062 3297 L-457881 3297 L-456644 3297 L-456605 3297 L-456218 3297 L-455676 3297 L-454903 3296 L-453780 3296 L-451691 3296 L-451358 3296 L-451072 3295 L-450144 3295 L-449660 3295 L-448925 3295 L-445294 3295 L-444166 3295 L-444011 3294 L-442985 3294 L-439271 3294 L-438053 3294 L-436235 3293 L-433449 3293 L-432888 3293 L-429000 3293 L-426523 3293 L-425188 3293 L-424685 3293 L-424202 3293 L-421512 3293 L-417741 3293 L-415284 3293 L-414104 3293 L-413465 3292 L-411105 3292 L-411028 3292 L-409980 3292 L-409887 3292 L-409384 3292 L-408938 3292 L-408881 3292 L-408667 3292 L-405707 3291 L-403000 3291 L-402845 3291 L-399324 3291 L-398801 3291 L-397834 3290 L-397485 3290 L-396441 3290 L-395513 3289 L-395087 3289 L-393578 3289 L-392611 3289 L-392592 3289 L-390696 3278 L-390580 3268 L-390532 3257 L-390508 3246 L-387504 3246 L-385473 3246 L-383712 3246 L-383345 3245 L-382899 3245 L-382533 3245 L-382119 3245 L-380134 3245 L-379920 3245 L-379766 3244 L-378160 3244 L-377038 3244 L-376090 3244 L-374833 3244 L-373188 3244 L-372009 3243 L-365419 3243 L-365373 3243 L-364967 3243 L-363922 3243 L-363786 3243 L-362104 3242 L-362084 3242 L-360747 3242 L-359511 3242 L-359357 3242 L-358983 3241 L-358777 3241 L-358467 3241 L-357693 3241 L-355372 3241 L-354714 3240 L-352586 3240 L-350864 3240 L-350670 3240 L-348117 3240 L-347841 3239 L-347652 3239 L-346820 3239 L-346047 3239 L-345349 3239 L-340349 3239 L-339973 3238 L-335720 3238 L-335233 3253 L-335214 3253 L-335135 3253 L-335059 3252 L-335040 3238 L-334227 3237 L-333473 3237 L-332254 3237 L-330822 3237 L-330726 3237 L-330551 3237 L-330197 3237 L-328888 3236 L-327030 3236 L-325328 3236 L-324825 3236 L-324560 3236 L-324167 3236 L-324032 3235 L-323123 3235 L-322746 3235 L-321818 3235 L-321479 3235 L-321439 3235 L-321401 3235 L-319486 3235 L-319312 3235 L-317783 3235 L-317455 3235 L-317339 3234 L-316932 3234 L-316584 3234 L-314940 3234 L-314389 3234 L-314146 3233 L-313605 3233 L-312774 3233 L-312232 3233 L-310697 3233 L-310605 3232 L-310568 3232 L-310432 3232 L-310045 3232 L-309020 3232 L-307144 3232 L-307047 3232 L-306447 3236 L-306080 3241 L-305595 3246 L-305557 3251 L-304784 3251 L-304726 3251 L-304552 3251 L-304358 3251 L-302753 3250 L-302733 3250 L-302578 3251 L-302462 3251 L-301283 3251 L-301128 3251 L-300461 3251 L-298013 3263 L-295498 3275 L-292828 3287 L-285129 3299 L-279461 3299 L-277247 3299 L-277223 3299 L-276249 3302 L-276229 3302 L-275366 3301 L-272625 3301 L-266827 3298 L-266673 3298 L-263888 3298 L-250279 3297 L-249533 3297 L-245123 3297 L-228776 3297 L-228544 3297 L-228007 3296 L-219548 3296 L-210842 3296 L-210630 3296 L-208657 3296 L-205871 3296 L-201384 3296 L-201229 3296 L-201060 3296 L-200919 3296 L-200629 3295 L-200590 3295 L-200319 3295 L-200148 3295 L-199737 3295 L-198617 3295 L-197437 3295 L-196160 3294 L-193296 3294 L-190376 3294 L-188384 3294 L-186836 3294 L-183798 3294 L-174474 3293 L-173950 3293 L-168226 3293 L-166719 3293 L-165904 3293 L-164221 3293 L-163500 3293 L-163331 3293 L-162286 3292 L-160219 3292 L-158857 3292 L-154413 3292 L-154316 3292 L-154278 3292 L-154259 3292 L-153426 3291 L-153348 3291 L-150776 3291 L-147527 3291 L-147372 3291 L-146423 3291 L-144682 3290 L-143967 3291 L-140426 3292 L-133849 3293 L-132432 3294 L-132411 3294 L-131460 3294 L-127986 3293 L-127233 3293 L-126671 3293 L-125889 3293 L-118385 3293 L-116786 3293 L-115212 3292 L-112027 3292 L-107694 3292 L-99124 3292 L-90378 3292 L-87304 3292 L-84038 3292 L-83492 3291 L-76354 3291 L-70687 3291 L-56622 3291 L-50611 3291 L-45905 3291 L-41901 3291 L-36794 3291 L-27080 3291 L-11509 3290 L-8427 3290 L-8124 3225 L-8105 3145 L-8086 3053 L-8066 2951 L-8047 2905 L-8027 2865 L-8009 2830 L-7981 2794 L-7960 2759 L-7932 2723 L-7897 2683 L-7883 2648 L-7870 2619 L-7852 2595 L-7833 2577 L-7813 2558 L-7795 2540 L-7776 2522 L-7756 2503 L-7735 2484 L-7718 2465 L-7699 2446 L-7679 2429 L-7659 2411 L-7640 2391 L-7621 2371 L-7602 2351 L-7581 2331 L-7563 2311 L-7544 2293 L-7523 2275 L-7498 2257 L-7484 2241 L-7466 2224 L-7447 2207 L-7427 2191 L-7408 2173 L-7389 2154 L-7369 2137 L-7349 2121 L-7331 2105 L-7312 2090 L-7291 2076 L-7271 2063 L-7254 2051 L-7235 2040 L-7215 2029 L-7196 2019 L-7176 2008 L-7157 1999 L-7137 1991 L-7118 1983 L-7099 1976 L-7080 1968 L-7053 1958 L-7032 1948 L-7004 1937 L-6970 1924 L-6956 1914 L-6943 1905 L-6924 1897 L-6905 1890 L-6885 1882 L-6867 1874 L-6847 1865 L-6827 1857 L-6807 1849 L-6789 1842 L-6770 1834 L-6750 1826 L-6730 1817 L-6712 1807 L-6693 1796 L-6673 1784 L-6653 1773 L-6635 1761 L-6616 1750 L-6595 1736 L-6570 1722 L-6556 1708 L-6538 1695 L-6519 1682 L-6499 1669 L-6480 1655 L-6461 1640 L-6441 1626 L-6421 1613 L-6402 1600 L-6384 1587 L-6363 1574 L-6343 1562 L-6325 1550 L-6306 1540 L-6286 1529 L-6267 1520 L-6248 1510 L-6229 1500 L-6209 1491 L-6190 1481 L-6170 1471 L-6151 1462 L-6123 1452 L-6103 1443 L-6075 1434 L-6038 1423 L-6023 1413 L-6010 1403 L-5993 1394 L-5976 1387 L-5956 1381 L-5938 1375 L-5919 1370 L-5899 1365 L-5878 1359 L-5861 1353 L-5842 1347 L-5822 1340 L-5802 1333 L-5783 1326 L-5765 1318 L-5745 1310 L-5725 1301 L-5706 1292 L-5687 1284 L-5666 1276 L-5642 1267 L-5627 1259 L-5610 1250 L-5590 1241 L-5571 1233 L-5551 1224 L-5532 1215 L-5512 1205 L-5492 1197 L-5474 1188 L-5455 1180 L-5435 1172 L-5415 1164 L-5397 1157 L-5378 1150 L-5358 1143 L-5339 1135 L-5319 1128 L-5300 1121 L-5280 1114 L-5261 1108 L-5242 1101 L-5223 1094 L-5195 1087 L-5175 1081 L-5147 1073 L-5110 1062 L-5096 1052 L-5083 1043 L-5066 1034 L-5048 1029 L-5028 1024 L-5009 1017 L-4989 1010 L-4970 1002 L-4949 994 L-4930 986 L-4913 977 L-4893 967 L-4872 957 L-4854 947 L-4836 936 L-4816 925 L-4795 915 L-4777 905 L-4759 897 L-4737 891 L-4712 885 L-4698 880 L-4680 875 L-4661 870 L-4642 864 L-4623 858 L-4604 852 L-4584 847 L-4563 843 L-4545 839 L-4526 834 L-4506 827 L-4485 820 L-4468 813 L-4449 807 L-4429 803 L-4410 800 L-4391 797 L-4372 793 L-4352 790 L-4332 786 L-4313 781 L-4294 778 L-4267 774 L-4246 771 L-4218 767 L-4183 762 L-4170 758 L-4156 754 L-4138 751 L-4119 748 L-4099 745 L-4081 742 L-4061 740 L-4041 737 L-4020 734 L-4003 732 L-3985 729 L-3964 725 L-3944 722 L-3926 718 L-3907 715 L-3887 713 L-3867 710 L-3849 707 L-3830 704 L-3809 702 L-3784 699 L-3769 697 L-3752 694 L-3733 692 L-3713 689 L-3694 686 L-3675 683 L-3655 679 L-3634 677 L-3617 674 L-3598 671 L-3577 668 L-3557 666 L-3539 663 L-3520 661 L-3500 658 L-3482 656 L-3462 653 L-3443 652 L-3423 650 L-3404 648 L-3385 646 L-3366 649 L-3337 652 L-3317 655 L-3289 658 L-3252 655 L-3237 653 L-3224 651 L-3207 650 L-3190 648 L-3171 647 L-3152 645 L-3132 643 L-3113 642 L-3091 640 L-3075 639 L-3056 637 L-3036 636 L-3015 634 L-2997 632 L-2979 631 L-2959 629 L-2939 627 L-2920 625 L-2901 624 L-2880 623 L-2855 621 L-2841 620 L-2824 618 L-2804 616 L-2785 614 L-2765 613 L-2746 611 L-2727 609 L-2706 607 L-2688 604 L-2669 602 L-2649 600 L-2628 598 L-2611 596 L-2592 594 L-2572 592 L-2553 590 L-2533 588 L-2515 585 L-2495 583 L-2475 581 L-2456 580 L-2437 578 L-2410 576 L-2389 574 L-2361 572 L-2326 570 L-2313 568 L-2299 566 L-2280 564 L-2262 563 L-2242 561 L-2224 559 L-2204 558 L-2184 556 L-2163 554 L-2146 552 L-2128 551 L-2107 549 L-2087 546 L-2069 544 L-2050 541 L-2030 538 L-2010 535 L-1992 533 L-1973 531 L-1952 528 L-1927 525 L-1912 523 L-1895 520 L-1876 518 L-1856 515 L-1837 513 L-1818 510 L-1798 508 L-1777 505 L-1760 503 L-1741 501 L-1720 498 L-1699 496 L-1682 494 L-1663 493 L-1643 491 L-1624 490 L-1605 488 L-1586 486 L-1566 485 L-1546 484 L-1527 483 L-1509 482 L-1481 480 L-1460 479 L-1432 477 L-1397 474 L-1383 472 L-1370 470 L-1351 467 L-1333 465 L-1314 464 L-1295 462 L-1275 461 L-1256 459 L-1235 457 L-1218 456 L-1199 454 L-1178 452 L-1158 450 L-1140 448 L-1121 446 L-1102 443 L-1081 441 L-1063 440 L-1044 438 L-1023 436 L-998 435 L-983 433 L-966 432 L-947 430 L-927 428 L-908 426 L-889 423 L-869 421 L-848 418 L-831 415 L-812 413 L-791 411 L-771 409 L-754 407 L-735 406 L-715 405 L-696 404 L-676 402 L-657 401 L-637 400 L-618 398 L-599 397 L-580 396 L-553 395 L-532 394 L-504 392 L-470 391 L-456 390 L-442 389 L-424 388 L-405 387 L-385 386 L-367 385 L-347 384 L-327 383 L-307 382 L-289 381 L-271 380 L-250 379 L-230 378 L-212 377 L-193 376 L-173 375 L-153 374 L-135 374 L-116 373 L-95 372 L-70 371 L-55 370 L-38 369 L-19 368 L0 367 L19 366 L38 365 L58 364 L78 362 L96 360 L115 358 L136 356 L156 354 L174 353 L193 352 L213 350 L231 349 L251 347 L270 346 L290 345 L309 344 L329 343 L348 342 L376 341 L424 340 L461 339 L476 338 L488 337 L505 336 L523 336 L542 335 L561 334 L580 334 L600 333 L621 332 L638 331 L657 331 L677 330 L697 329 L716 328 L734 328 L754 327 L774 326 L793 325 L812 323 L833 322 L857 320 L872 319 L889 317 L909 316 L928 314 L948 313 L966 312 L987 310 L1007 309 L1025 307 L1044 306 L1064 305 L1085 304 L1102 303 L1121 302 L1141 301 L1160 300 L1180 299 L1199 298 L1219 297 L1238 295 L1257 294 L1276 293 L1304 292 L1325 291 L1353 289 L1389 287 L1404 285 L1417 283 L1434 281 L1451 280 L1472 279 L1490 278 L1510 277 L1529 277 L1550 276 L1567 275 L1586 273 L1606 272 L1627 270 L1645 268 L1664 266 L1683 264 L1704 262 L1722 260 L1740 259 L1762 257 L1787 256 L1802 254 L1819 253 L1838 252 L1858 251 L1877 249 L1895 247 L1915 246 L1937 244 L1954 243 L1973 242 L1993 240 L2014 239 L2031 238 L2050 237 L2070 236 L2089 235 L2108 233 L2127 232 L2147 231 L2167 230 L2186 229 L2205 228 L2233 997 L2253 996 L2281 995 L2317 993 L2331 221 L2344 220 L2362 219 L2380 218 L2400 217 L2418 216 L2438 216 L2458 214 L2479 213 L2496 211 L2514 209 L2535 208 L2555 206 L2573 204 L2592 202 L2612 200 L2633 198 L2650 197 L2669 196 L2691 195 L2715 193 L2731 191 L2760 189 L2800 186 L2823 184 L2852 182 L2869 179 L2882 178 L2902 176 L2922 175 L2943 174 L2960 173 L2979 172 L2999 171 L3018 170 L3037 169 L3056 169 L3076 168 L3096 167 L3115 166 L3133 165 L3161 164 L3182 163 L3210 162 L3245 161 L3258 159 L3290 158 L3309 157 L3328 157 L3347 156 L3367 155 L3386 154 L3407 154 L3424 153 L3443 151 L3464 148 L3484 145 L3502 141 L3521 138 L3540 135 L3561 132 L3579 130 L3598 129 L3619 127 L3644 126 L3659 125 L3676 123 L3695 121 L3715 120 L3734 119 L3753 117 L3773 116 L3794 114 L3811 112 L3830 111 L3850 110 L3871 109 L3888 108 L3907 107 L3927 106 L3946 105 L3966 104 L3985 103 L4004 102 L4024 101 L4043 100 L4062 99 L4090 98 L4110 97 L4180 95 L4208 93 L4223 90 L4237 88 L4257 87 L4275 86 L4295 84 L4315 83 L4336 82 L4353 81 L4371 80 L4392 79 L4412 78 L4430 77 L4449 76 L4469 75 L4490 73 L4507 72 L4526 70 L4547 70 L4573 69 L4588 68 L4605 67 L4624 65 L4644 63 L4662 62 L4682 61 L4701 60 L4723 59 L4739 58 L4759 57 L4779 56 L4800 55 L4817 54 L4875 53 L4894 52 L4913 51 L4933 50 L4953 49 L4972 48 L4990 48 L5018 47 L5039 47 L5067 46 L5103 45 L5118 44 L5130 43 L5148 43 L5166 42 L5186 42 L5204 41 L5224 41 L5243 41 L5265 40 L5281 40 L5300 39 L5321 39 L5341 38 L5359 38 L5378 37 L5398 36 L5418 35 L5436 34 L5455 33 L5476 33 L5501 32 L5516 32 L5533 31 L5552 30 L5572 29 L5591 29 L5610 28 L5630 26 L5651 25 L5668 24 L5687 23 L5708 23 L5728 23 L5745 22 L5764 21 L5785 21 L5803 20 L5823 20 L5842 20 L5861 19 L5882 19 L5900 19 L5919 18 L5947 18 L5967 17 L5995 17 L6030 16 L6044 15 L6058 15 L6076 14 L6094 14 L6114 13 L6132 12 L6172 12 L6192 12 L6210 11 L6228 11 L6249 10 L6269 9 L6287 8 L6306 7 L6326 6 L6346 6 L6364 5 L6383 5 L6404 4 L6429 3 L6443 3 L6461 2 L6480 2 L6500 1" />
</svg>
