<svg xmlns="http://www.w3.org/2000/svg" version="1.1" viewBox="0 0 6500 1000">
	<path fill="none" stroke="gold" stroke-width="125" stroke-linecap="round" stroke-linejoin="round" d="M0 1016  L-718428 1016 L-715824 1016 L-714156 1015 L-695827 1015 L-695657 1015 L-688499 1015 L-688466 1015 L-675035 1015 L-672113 1015 L-658772 1015 L-654603 1015 L-653443 1014 L-652824 1014 L-650812 1014 L-647040 1014 L-646440 1014 L-646111 1014 L-645898 1014 L-645357 1014 L-644119 1013 L-642940 1013 L-640075 1012 L-639553 1012 L-634698 1012 L-631760 1012 L-631717 1011 L-631409 1011 L-631157 1011 L-628562 1011 L-624307 1011 L-624289 1011 L-623052 1011 L-621175 1011 L-619221 1011 L-618273 1011 L-618002 1011 L-617693 1011 L-617594 1011 L-616764 1011 L-614733 1011 L-614443 1010 L-612296 1010 L-612141 1010 L-608485 1009 L-608234 1010 L-608135 1009 L-607618 1010 L-605467 1010 L-604538 1010 L-603012 1010 L-601772 1010 L-600226 1010 L-597264 1010 L-596142 1010 L-595833 1010 L-594622 1010 L-591615 1011 L-591596 1011 L-591248 1011 L-591035 1010 L-590909 1010 L-590667 1010 L-590629 1009 L-590610 1009 L-590590 1009 L-590531 1009 L-590473 1009 L-590455 1009 L-590012 1009 L-588772 1009 L-587227 1009 L-583839 1009 L-578113 1008 L-577911 1008 L-576275 1008 L-574553 1008 L-573121 1008 L-572889 1008 L-572174 1008 L-566041 1008 L-565674 1008 L-565519 1008 L-564941 1008 L-564648 1008 L-563681 1008 L-563371 1007 L-562772 1007 L-561166 1007 L-560431 1007 L-560121 1007 L-559353 1007 L-557317 1007 L-556891 1007 L-556079 1007 L-548650 1007 L-548127 1007 L-547954 1007 L-547219 1007 L-545651 1007 L-545245 1006 L-543020 1006 L-542072 1006 L-541647 1006 L-541317 1006 L-540273 1006 L-538165 1006 L-537913 1006 L-537294 1006 L-536481 1006 L-534374 1006 L-534325 1006 L-532397 1006 L-532071 1005 L-531936 1005 L-531433 1005 L-530020 1005 L-529517 1005 L-528996 1005 L-525436 1005 L-524701 1004 L-522276 1004 L-520987 1004 L-520580 1004 L-517427 1004 L-517272 1004 L-517252 1004 L-516885 1004 L-515627 1004 L-514912 1004 L-514022 1004 L-513615 1004 L-512687 1004 L-511578 1004 L-511275 1004 L-505026 1005 L-504079 1005 L-502453 1005 L-501951 1005 L-498275 1005 L-497443 1005 L-493490 1005 L-492078 1005 L-489589 1005 L-488912 1005 L-488873 1005 L-488003 1005 L-484791 1005 L-481928 1004 L-480960 1004 L-479839 1004 L-479820 1004 L-478195 1004 L-477731 1004 L-477639 1004 L-471269 1004 L-470321 1004 L-467864 1004 L-466992 1004 L-465756 1004 L-463754 1004 L-463357 1003 L-461920 1003 L-459894 1003 L-459681 1003 L-458501 1003 L-456993 1003 L-456972 1003 L-454960 1003 L-454091 1003 L-453220 1003 L-452635 1003 L-452098 1003 L-451440 1002 L-450202 1002 L-449641 1002 L-448460 1002 L-447223 1002 L-447184 1002 L-446797 1002 L-446255 1002 L-445482 1002 L-444360 1002 L-442270 1002 L-441937 1002 L-441651 1001 L-440723 1001 L-440239 1001 L-439504 1001 L-435873 1001 L-434745 1001 L-434590 1001 L-433564 1001 L-429850 1001 L-428632 1001 L-426814 1001 L-424028 1001 L-423467 1001 L-419579 1001 L-417102 1001 L-415767 1001 L-415264 1000 L-414781 1000 L-412092 1000 L-408320 1000 L-405863 1000 L-404683 1000 L-404044 1000 L-401684 1000 L-401607 1000 L-400559 1000 L-400466 1000 L-399963 1000 L-399517 1000 L-399460 1000 L-399246 1000 L-396286 1000 L-393579 1000 L-393424 1000 L-389903 1000 L-389380 1000 L-388413 1000 L-388064 999 L-387020 999 L-386092 999 L-385666 999 L-384157 999 L-383190 999 L-383171 999 L-381275 995 L-381159 991 L-381111 987 L-381087 983 L-378083 983 L-376052 983 L-374291 983 L-373924 983 L-373479 983 L-373112 983 L-372698 982 L-370713 982 L-370500 982 L-370345 982 L-368739 982 L-367618 982 L-366669 982 L-365412 982 L-363767 982 L-362588 982 L-355998 982 L-355952 982 L-355546 982 L-354501 982 L-354365 982 L-352683 982 L-352663 982 L-351326 981 L-350090 981 L-349936 981 L-349562 981 L-349356 981 L-349046 981 L-348272 981 L-345951 981 L-345293 981 L-343165 981 L-341443 981 L-341249 981 L-338696 981 L-338420 981 L-338231 980 L-337399 980 L-336626 980 L-335928 980 L-330928 980 L-330552 980 L-326299 980 L-325812 985 L-325793 985 L-325714 985 L-325638 985 L-325619 980 L-324806 980 L-324052 980 L-322833 980 L-321401 980 L-321305 980 L-321130 980 L-320776 979 L-319467 979 L-317609 979 L-315907 979 L-315404 979 L-315139 979 L-314746 979 L-314612 979 L-313702 979 L-313325 979 L-312397 979 L-312058 979 L-312018 979 L-311980 979 L-310065 979 L-309891 979 L-308363 979 L-308034 979 L-307918 979 L-307511 978 L-307163 978 L-305519 978 L-304968 978 L-304725 978 L-304184 978 L-303353 978 L-302811 978 L-301276 978 L-301184 978 L-301147 978 L-301011 978 L-300624 978 L-299599 978 L-297723 978 L-297627 978 L-297026 979 L-296659 981 L-296175 983 L-296136 985 L-295363 985 L-295305 985 L-295131 985 L-294937 985 L-293332 985 L-293312 985 L-293157 985 L-293041 985 L-291862 985 L-291707 985 L-291040 985 L-288592 989 L-286077 994 L-283407 998 L-275708 1003 L-270040 1003 L-267826 1003 L-267802 1003 L-266828 1004 L-266808 1004 L-265945 1004 L-263205 1004 L-257406 1003 L-257253 1002 L-254467 1002 L-240858 1002 L-240113 1002 L-235702 1002 L-219356 1002 L-219123 1002 L-218586 1002 L-210127 1002 L-201421 1002 L-201209 1002 L-199236 1002 L-196450 1002 L-191963 1002 L-191808 1002 L-191639 1002 L-191499 1002 L-191208 1001 L-191169 1001 L-190898 1001 L-190727 1001 L-190317 1001 L-189196 1001 L-188016 1001 L-186739 1001 L-183875 1001 L-180955 1001 L-178963 1001 L-177415 1001 L-174377 1001 L-165053 1001 L-164529 1001 L-158805 1001 L-157298 1001 L-156483 1001 L-154800 1001 L-154079 1000 L-153910 1000 L-152865 1000 L-150798 1000 L-149436 1000 L-144992 1000 L-144895 1000 L-144857 1000 L-144838 1000 L-144005 1000 L-143927 1000 L-141355 1000 L-138106 1000 L-137951 1000 L-137002 1000 L-135261 1000 L-134546 1000 L-131005 1000 L-124428 1000 L-123011 1001 L-122990 1001 L-122039 1001 L-118565 1001 L-117812 1001 L-117250 1001 L-116468 1001 L-108964 1000 L-107366 1000 L-105792 1000 L-102606 1000 L-98273 1000 L-89703 1000 L-80957 1000 L-77883 1000 L-74617 1000 L-74071 1000 L-66933 1000 L-61266 1000 L-47201 1000 L-41190 1000 L-36484 1000 L-32480 1000 L-27373 1000 L-17659 1000 L-2088 1000 L993 999 L1296 975 L1315 945 L1334 911 L1354 872 L1373 855 L1393 840 L1411 827 L1439 813 L1460 800 L1488 787 L1523 772 L1537 759 L1550 748 L1568 739 L1587 732 L1607 725 L1625 718 L1644 711 L1664 704 L1685 697 L1702 690 L1721 683 L1741 676 L1761 670 L1780 662 L1798 655 L1818 647 L1838 640 L1857 632 L1876 625 L1897 619 L1922 612 L1936 606 L1953 600 L1973 593 L1993 587 L2012 580 L2031 574 L2051 567 L2071 561 L2089 555 L2108 549 L2128 544 L2149 539 L2166 535 L2185 531 L2205 526 L2224 523 L2244 519 L2263 515 L2282 512 L2302 509 L2321 506 L2340 504 L2367 500 L2388 496 L2416 492 L2450 487 L2464 483 L2477 480 L2496 477 L2515 474 L2535 471 L2553 468 L2573 465 L2593 462 L2613 459 L2631 456 L2649 453 L2670 450 L2689 447 L2708 443 L2727 439 L2747 435 L2767 430 L2785 426 L2804 422 L2825 417 L2850 411 L2864 406 L2881 401 L2901 396 L2921 391 L2940 386 L2959 381 L2979 375 L2999 370 L3017 365 L3036 360 L3057 356 L3077 351 L3095 347 L3114 343 L3134 339 L3152 335 L3172 332 L3191 328 L3211 325 L3230 321 L3250 317 L3268 314 L3297 310 L3317 307 L3345 303 L3382 299 L3397 295 L3409 292 L3427 288 L3444 286 L3463 284 L3482 281 L3501 279 L3521 277 L3542 275 L3559 273 L3578 271 L3598 268 L3618 265 L3637 263 L3655 260 L3675 257 L3695 253 L3714 250 L3733 247 L3754 244 L3778 241 L3793 238 L3810 234 L3830 231 L3849 228 L3869 225 L3888 221 L3908 218 L3928 214 L3946 211 L3965 208 L3985 205 L4005 202 L4023 200 L4042 197 L4062 194 L4081 191 L4101 189 L4120 186 L4139 183 L4159 181 L4178 178 L4197 176 L4225 173 L4245 171 L4273 168 L4309 164 L4324 160 L4337 156 L4354 153 L4372 151 L4392 149 L4411 147 L4430 144 L4450 141 L4471 138 L4490 135 L4507 132 L4527 128 L4547 124 L4566 121 L4584 116 L4604 112 L4625 108 L4642 105 L4661 102 L4683 100 L4708 97 L4722 96 L4740 94 L4759 92 L4778 89 L4797 87 L4816 85 L4836 83 L4857 82 L4875 80 L4894 78 L4914 76 L4935 73 L4952 70 L4971 68 L4991 67 L5010 65 L5029 64 L5048 63 L5068 62 L5088 60 L5107 59 L5126 57 L5153 56 L5174 54 L5202 53 L5237 51 L5250 50 L5264 48 L5282 47 L5301 46 L5321 45 L5339 44 L5359 43 L5378 42 L5399 41 L5417 40 L5435 39 L5456 37 L5476 36 L5494 35 L5513 34 L5533 33 L5553 32 L5571 31 L5590 30 L5611 29 L5636 28 L5651 27 L5668 26 L5687 25 L5707 24 L5726 23 L5745 21 L5765 20 L5786 19 L5803 18 L5822 17 L5843 16 L5863 15 L5881 14 L5899 13 L5919 12 L5938 11 L5958 11 L5977 10 L5997 9 L6016 8 L6035 8 L6054 9 L6083 10 L6103 11 L6131 12 L6168 11 L6183 10 L6196 10 L6213 9 L6230 9 L6249 8 L6268 7 L6287 7 L6307 6 L6328 6 L6345 5 L6364 4 L6384 4 L6404 3 L6423 3 L6441 2 L6461 1 L6481 1 L6500 0" />
</svg>
