<svg xmlns="http://www.w3.org/2000/svg" version="1.1" viewBox="0 0 6500 1000">
	<path fill="none" stroke="gold" stroke-width="125" stroke-linecap="round" stroke-linejoin="round" d="M0 2964  L-722027 2964 L-719423 2964 L-717755 2964 L-699426 2964 L-699255 2964 L-692098 2963 L-692064 2963 L-678634 2963 L-675712 2963 L-662371 2963 L-658202 2962 L-657042 2962 L-656423 2961 L-654411 2960 L-650639 2960 L-650039 2960 L-649710 2960 L-649497 2959 L-648955 2959 L-647717 2958 L-646539 2957 L-643674 2956 L-643152 2954 L-638296 2954 L-635359 2954 L-635316 2954 L-635008 2953 L-634756 2953 L-632161 2953 L-627906 2953 L-627888 2953 L-626651 2953 L-624773 2953 L-622820 2952 L-621872 2952 L-621601 2952 L-621291 2952 L-621193 2952 L-620363 2952 L-618332 2952 L-618042 2950 L-615895 2950 L-615740 2949 L-612083 2948 L-611832 2949 L-611734 2948 L-611217 2949 L-609065 2950 L-608137 2950 L-606611 2951 L-605371 2951 L-603825 2951 L-600863 2951 L-599741 2950 L-599432 2950 L-598221 2950 L-595214 2951 L-595194 2951 L-594847 2951 L-594634 2951 L-594508 2949 L-594266 2949 L-594228 2948 L-594208 2948 L-594189 2948 L-594130 2948 L-594072 2947 L-594054 2947 L-593611 2947 L-592371 2946 L-590825 2946 L-587438 2946 L-581711 2946 L-581510 2946 L-579874 2945 L-578152 2945 L-576720 2945 L-576488 2945 L-575772 2945 L-569640 2945 L-569272 2944 L-569118 2944 L-568540 2944 L-568247 2944 L-567280 2943 L-566970 2943 L-566371 2943 L-564765 2943 L-564030 2943 L-563720 2943 L-562952 2943 L-560916 2943 L-560490 2942 L-559678 2942 L-552249 2942 L-551726 2942 L-551553 2941 L-550817 2941 L-549250 2941 L-548844 2941 L-546619 2940 L-545671 2940 L-545246 2940 L-544916 2940 L-543872 2940 L-541764 2940 L-541512 2939 L-540893 2939 L-540080 2939 L-537972 2939 L-537924 2938 L-535996 2938 L-535670 2938 L-535535 2937 L-535032 2937 L-533619 2937 L-533116 2936 L-532594 2936 L-529035 2935 L-528300 2935 L-525875 2935 L-524585 2935 L-524178 2934 L-521026 2934 L-520871 2934 L-520851 2935 L-520484 2935 L-519226 2935 L-518511 2935 L-517621 2935 L-517214 2935 L-516286 2935 L-515177 2935 L-514874 2935 L-508625 2936 L-507678 2936 L-506051 2936 L-505550 2936 L-501874 2936 L-501042 2937 L-497088 2937 L-495677 2936 L-493187 2936 L-492511 2936 L-492472 2936 L-491601 2936 L-488390 2935 L-485527 2935 L-484559 2935 L-483438 2935 L-483419 2935 L-481794 2934 L-481329 2934 L-481237 2934 L-474868 2934 L-473920 2933 L-471463 2933 L-470590 2933 L-469354 2933 L-467353 2933 L-466955 2932 L-465519 2932 L-463493 2932 L-463280 2932 L-462100 2932 L-460591 2931 L-460571 2931 L-458559 2931 L-457689 2931 L-456818 2931 L-456234 2930 L-455696 2930 L-455039 2930 L-453801 2930 L-453240 2929 L-452059 2929 L-450821 2929 L-450783 2929 L-450396 2929 L-449854 2929 L-449080 2928 L-447958 2928 L-445869 2928 L-445536 2928 L-445250 2927 L-444321 2927 L-443838 2927 L-443103 2927 L-439471 2927 L-438344 2927 L-438189 2926 L-437163 2926 L-433448 2926 L-432231 2926 L-430413 2925 L-427627 2925 L-427065 2925 L-423178 2925 L-420701 2925 L-419366 2925 L-418863 2925 L-418380 2925 L-415690 2925 L-411919 2925 L-409461 2925 L-408282 2925 L-407642 2924 L-405283 2924 L-405205 2924 L-404158 2924 L-404064 2924 L-403562 2924 L-403116 2924 L-403058 2924 L-402845 2924 L-399885 2923 L-397178 2923 L-397023 2923 L-393502 2923 L-392979 2923 L-392012 2922 L-391663 2922 L-390619 2922 L-389690 2922 L-389265 2921 L-387756 2921 L-386789 2921 L-386770 2921 L-384874 2911 L-384758 2900 L-384710 2889 L-384686 2879 L-381681 2879 L-379651 2878 L-377890 2878 L-377523 2878 L-377077 2878 L-376710 2878 L-376296 2877 L-374311 2877 L-374098 2877 L-373943 2877 L-372338 2877 L-371216 2877 L-370268 2877 L-369011 2876 L-367366 2876 L-366187 2876 L-359597 2876 L-359550 2876 L-359145 2876 L-358100 2875 L-357964 2875 L-356282 2875 L-356262 2875 L-354925 2875 L-353689 2874 L-353535 2874 L-353161 2874 L-352954 2874 L-352645 2874 L-351871 2873 L-349550 2873 L-348892 2873 L-346764 2873 L-345041 2873 L-344848 2873 L-342295 2872 L-342018 2872 L-341830 2872 L-340998 2872 L-340225 2872 L-339527 2871 L-334527 2871 L-334151 2871 L-329898 2871 L-329411 2885 L-329391 2885 L-329313 2885 L-329237 2885 L-329217 2870 L-328405 2870 L-327651 2870 L-326432 2870 L-325000 2870 L-324904 2870 L-324729 2870 L-324375 2869 L-323065 2869 L-321208 2869 L-319506 2869 L-319003 2869 L-318738 2868 L-318345 2868 L-318210 2868 L-317301 2868 L-316924 2868 L-315996 2868 L-315657 2868 L-315617 2868 L-315579 2868 L-313664 2868 L-313490 2867 L-311961 2867 L-311633 2867 L-311517 2867 L-311110 2867 L-310762 2867 L-309118 2866 L-308567 2866 L-308324 2866 L-307783 2866 L-306951 2866 L-306410 2866 L-304875 2865 L-304783 2865 L-304746 2865 L-304610 2865 L-304223 2865 L-303198 2865 L-301322 2864 L-301225 2864 L-300625 2869 L-300258 2874 L-299773 2879 L-299735 2884 L-298961 2884 L-298904 2884 L-298729 2883 L-298536 2883 L-296930 2883 L-296911 2883 L-296755 2883 L-296640 2883 L-295460 2883 L-295306 2884 L-294639 2884 L-292190 2896 L-289676 2908 L-287006 2919 L-279307 2931 L-273639 2931 L-271424 2931 L-271401 2931 L-270427 2934 L-270407 2934 L-269544 2933 L-266803 2933 L-261005 2930 L-260851 2930 L-258065 2930 L-244457 2929 L-243711 2929 L-239301 2929 L-222954 2929 L-222722 2929 L-222185 2928 L-213726 2928 L-205020 2928 L-204808 2928 L-202835 2928 L-200049 2928 L-195562 2928 L-195407 2928 L-195238 2928 L-195097 2928 L-194807 2927 L-194768 2927 L-194497 2927 L-194325 2927 L-193915 2927 L-192795 2927 L-191614 2927 L-190338 2926 L-187474 2926 L-184554 2926 L-182562 2926 L-181014 2926 L-177976 2926 L-168651 2925 L-168127 2925 L-162404 2925 L-160897 2925 L-160082 2925 L-158398 2925 L-157677 2925 L-157509 2925 L-156464 2924 L-154397 2924 L-153034 2924 L-148591 2924 L-148494 2924 L-148455 2924 L-148436 2924 L-147604 2923 L-147526 2923 L-144954 2923 L-141704 2923 L-141550 2923 L-140601 2923 L-138860 2922 L-138145 2923 L-134604 2924 L-128027 2925 L-126609 2926 L-126589 2926 L-125638 2926 L-122164 2925 L-121411 2925 L-120849 2925 L-120067 2925 L-112563 2925 L-110964 2925 L-109390 2924 L-106205 2924 L-101872 2924 L-93302 2924 L-84556 2924 L-81482 2924 L-78216 2924 L-77670 2923 L-70532 2923 L-64865 2923 L-50800 2923 L-44789 2923 L-40083 2923 L-36079 2923 L-30972 2923 L-21258 2923 L-5687 2922 L-2604 2922 L-2302 2858 L-2283 2778 L-2264 2688 L-2244 2588 L-2224 2542 L-2205 2503 L-2186 2468 L-2159 2432 L-2138 2398 L-2110 2362 L-2075 2323 L-2061 2289 L-2048 2260 L-2030 2236 L-2011 2218 L-1991 2200 L-1973 2182 L-1953 2164 L-1934 2145 L-1912 2126 L-1896 2108 L-1877 2089 L-1856 2072 L-1836 2054 L-1818 2035 L-1799 2015 L-1780 1995 L-1759 1975 L-1741 1956 L-1722 1938 L-1701 1921 L-1676 1903 L-1661 1886 L-1644 1870 L-1625 1853 L-1605 1837 L-1586 1819 L-1567 1801 L-1547 1784 L-1527 1768 L-1509 1752 L-1490 1738 L-1469 1724 L-1449 1711 L-1432 1700 L-1413 1688 L-1393 1677 L-1374 1667 L-1354 1657 L-1335 1648 L-1315 1640 L-1296 1633 L-1277 1625 L-1258 1617 L-1231 1608 L-1210 1598 L-1182 1587 L-1148 1574 L-1134 1564 L-1120 1555 L-1102 1547 L-1083 1540 L-1063 1533 L-1045 1524 L-1025 1516 L-1005 1508 L-985 1500 L-967 1493 L-948 1485 L-928 1477 L-908 1468 L-890 1458 L-871 1447 L-851 1436 L-831 1425 L-812 1413 L-794 1402 L-772 1389 L-748 1375 L-733 1361 L-716 1348 L-696 1335 L-677 1322 L-658 1308 L-639 1294 L-619 1280 L-598 1267 L-580 1254 L-561 1241 L-541 1229 L-521 1217 L-503 1205 L-484 1195 L-464 1184 L-445 1175 L-426 1165 L-407 1155 L-387 1146 L-368 1136 L-348 1127 L-329 1118 L-301 1108 L-281 1100 L-253 1091 L-216 1080 L-201 1069 L-188 1060 L-171 1051 L-154 1044 L-134 1038 L-116 1033 L-97 1027 L-77 1022 L-56 1017 L-39 1011 L-20 1004 L0 998 L19 991 L38 984 L57 976 L77 968 L96 959 L115 950 L134 942 L155 934 L179 925 L194 917 L211 909 L231 900 L250 892 L270 883 L289 874 L309 865 L329 856 L347 847 L366 839 L386 832 L407 824 L424 817 L444 810 L463 803 L482 796 L502 788 L521 782 L541 775 L560 768 L579 762 L598 755 L626 748 L647 742 L675 734 L711 723 L725 713 L738 704 L756 696 L774 691 L793 685 L812 679 L832 672 L851 664 L873 656 L891 648 L908 639 L929 630 L949 620 L967 610 L986 599 L1006 588 L1026 578 L1044 568 L1063 560 L1084 554 L1109 549 L1123 544 L1141 539 L1160 533 L1180 528 L1199 522 L1218 516 L1238 511 L1258 507 L1276 503 L1295 498 L1315 491 L1336 484 L1353 477 L1372 472 L1392 468 L1411 464 L1431 461 L1449 458 L1469 454 L1489 450 L1508 446 L1527 443 L1554 439 L1575 436 L1603 432 L1638 427 L1651 423 L1665 419 L1684 416 L1702 414 L1722 411 L1740 408 L1760 405 L1780 403 L1801 400 L1818 397 L1836 394 L1857 391 L1877 388 L1895 384 L1914 381 L1934 379 L1954 376 L1972 373 L1991 370 L2012 368 L2037 365 L2052 362 L2069 360 L2088 358 L2108 355 L2127 352 L2146 349 L2166 346 L2187 343 L2204 340 L2223 337 L2244 335 L2264 332 L2282 330 L2301 327 L2321 325 L2339 322 L2359 320 L2378 318 L2398 316 L2417 315 L2437 313 L2455 316 L2484 319 L2504 322 L2532 324 L2569 322 L2584 320 L2597 318 L2615 316 L2631 315 L2651 313 L2669 312 L2689 310 L2708 308 L2730 307 L2746 306 L2765 304 L2786 303 L2806 301 L2824 299 L2843 297 L2862 296 L2883 294 L2901 292 L2920 291 L2941 290 L2966 288 L2980 287 L2998 285 L3017 283 L3036 282 L3056 280 L3075 278 L3095 276 L3115 274 L3133 271 L3152 269 L3172 267 L3193 265 L3210 263 L3229 261 L3249 259 L3268 257 L3288 255 L3307 253 L3327 251 L3346 249 L3365 247 L3384 246 L3412 244 L3432 242 L3460 240 L3495 238 L3509 236 L3522 234 L3541 232 L3559 230 L3579 229 L3598 227 L3617 225 L3637 224 L3658 222 L3675 220 L3694 218 L3714 216 L3734 214 L3752 212 L3771 209 L3791 206 L3811 204 L3829 201 L3848 199 L3870 196 L3895 194 L3909 191 L3926 189 L3946 186 L3965 184 L3984 181 L4003 178 L4023 176 L4044 174 L4061 171 L4081 169 L4101 167 L4122 165 L4139 163 L4158 161 L4178 160 L4197 158 L4216 157 L4235 155 L4255 154 L4275 153 L4294 151 L4313 150 L4340 149 L4361 147 L4389 146 L4424 143 L4438 141 L4451 138 L4470 136 L4488 134 L4508 133 L4526 131 L4546 130 L4565 128 L4586 127 L4603 125 L4622 123 L4643 121 L4663 119 L4681 117 L4700 115 L4720 113 L4740 111 L4758 109 L4777 107 L4798 106 L4823 104 L4838 103 L4855 101 L4874 99 L4894 97 L4913 95 L4932 93 L4952 90 L4973 87 L4990 85 L5009 83 L5030 80 L5050 79 L5067 77 L5086 76 L5106 75 L5125 73 L5145 72 L5164 71 L5184 69 L5203 68 L5223 67 L5241 66 L5268 65 L5289 64 L5317 62 L5351 61 L5366 60 L5379 59 L5397 58 L5416 57 L5436 56 L5454 55 L5474 54 L5494 53 L5514 52 L5532 51 L5551 50 L5571 49 L5591 48 L5609 47 L5628 46 L5648 45 L5668 44 L5687 44 L5705 43 L5727 42 L5751 41 L5766 40 L5783 39 L5803 38 L5822 37 L5841 36 L5860 36 L5880 34 L5901 33 L5919 31 L5938 29 L5958 26 L5978 25 L5996 23 L6015 22 L6035 21 L6054 19 L6074 18 L6092 17 L6112 16 L6131 14 L6151 13 L6170 13 L6198 12 L6246 11 L6283 10 L6298 9 L6310 8 L6327 7 L6345 6 L6364 6 L6383 5 L6402 4 L6423 3 L6443 3 L6460 2 L6479 2 L6500 1" />
</svg>
