<svg xmlns="http://www.w3.org/2000/svg" version="1.1" viewBox="0 0 6500 1000">
	<path fill="none" stroke="gold" stroke-width="125" stroke-linecap="round" stroke-linejoin="round" d="M0 604673  L-602964 604673 L-600360 602500 L-598692 600326 L-580362 595978 L-580192 591630 L-573034 587282 L-573001 587282 L-559570 585108 L-556649 587282 L-543308 580760 L-539139 572065 L-537979 561195 L-537359 550326 L-535348 543804 L-531576 539456 L-530976 535108 L-530647 530760 L-530434 526413 L-529892 522065 L-528654 504673 L-527475 487282 L-524611 469891 L-524089 452500 L-519233 448152 L-516296 443804 L-516253 439456 L-515945 435108 L-515693 430760 L-513098 426413 L-508842 426413 L-508824 426413 L-507588 426413 L-505710 426413 L-503757 422065 L-502809 417717 L-502538 413369 L-502228 411195 L-502130 409021 L-501300 409021 L-499269 411195 L-498978 391630 L-496832 382934 L-496677 369891 L-493020 356847 L-492769 363369 L-492671 361195 L-492154 367717 L-490002 378586 L-489073 389456 L-487547 400326 L-486308 400326 L-484762 398152 L-481800 393804 L-480678 389456 L-480369 385108 L-479157 382934 L-476151 406847 L-476131 404673 L-475784 402500 L-475571 400326 L-475444 369891 L-475203 365543 L-475165 361195 L-475145 356847 L-475126 352500 L-475067 348152 L-475008 343804 L-474990 339456 L-474547 335108 L-473308 330760 L-471762 326413 L-468374 322065 L-462648 319891 L-462447 317717 L-460811 315543 L-459089 313369 L-457657 311195 L-457424 309021 L-456709 306847 L-450577 304673 L-450209 300326 L-450055 295978 L-449476 291630 L-449184 287282 L-448217 282934 L-447907 278586 L-447308 274239 L-445702 274239 L-444967 274239 L-444657 276413 L-443888 276413 L-441852 272065 L-441427 267717 L-440614 265543 L-433186 261195 L-432663 256847 L-432489 252500 L-431754 248152 L-430187 243804 L-429781 241630 L-427556 237282 L-426608 235108 L-426183 232934 L-425853 232934 L-424809 230760 L-422701 226413 L-422449 222065 L-421830 217717 L-421017 215543 L-418909 211195 L-418861 206847 L-416932 202500 L-416607 198152 L-416472 193804 L-415969 191630 L-414556 187282 L-414053 178586 L-413531 172065 L-409972 163369 L-409236 154673 L-406812 154673 L-405522 150326 L-405115 148152 L-401963 148152 L-401808 148152 L-401788 150326 L-401421 150326 L-400163 152500 L-399448 154673 L-398558 154673 L-398151 154673 L-397222 154673 L-396114 152500 L-395811 161195 L-389562 165543 L-388614 169891 L-386988 174239 L-386486 176413 L-382811 178586 L-381978 180760 L-378025 182934 L-376613 176413 L-374124 172065 L-373448 167717 L-373409 165543 L-372538 165543 L-369327 163369 L-366464 161195 L-365496 159021 L-364374 154673 L-364355 150326 L-362730 145978 L-362266 139456 L-362174 137282 L-355805 135108 L-354857 132934 L-352400 130760 L-351527 126413 L-350291 124239 L-348290 122065 L-347892 117717 L-346456 113369 L-344430 111195 L-344217 106847 L-343037 104673 L-341528 102500 L-341508 100326 L-339496 98152 L-338626 93804 L-337755 91630 L-337171 87282 L-336633 82934 L-335976 78586 L-334737 74239 L-334177 72065 L-332996 69891 L-331758 67717 L-331720 65543 L-331333 63369 L-330791 59021 L-330017 56847 L-328895 54673 L-326806 50326 L-326473 45978 L-326187 41630 L-325258 39456 L-324775 35108 L-324040 32934 L-320408 30760 L-319281 28586 L-319126 26413 L-318100 22065 L-314385 19891 L-313168 15543 L-311349 11195 L-308564 9021 L-308002 4673 L-304114 4673 L-301638 2500 L-300303 2500 L-299800 326 L-299316 -1847 L-296627 -1847 L-292855 -1847 L-290398 -1847 L-289218 -1847 L-288579 -4021 L-286220 -8369 L-286142 -10543 L-285095 -12717 L-285001 -17065 L-284498 -17065 L-284053 -17065 L-283995 -17065 L-283782 -17065 L-280822 -21413 L-278114 -23586 L-277960 -25760 L-274439 -27934 L-273916 -32282 L-272949 -36630 L-272599 -38804 L-271556 -43152 L-270627 -47500 L-270202 -49673 L-268693 -49673 L-267726 -51847 L-267707 -54021 L-265811 -212717 L-265695 -375760 L-265647 -536630 L-265622 -697500 L-262618 -699673 L-260588 -704021 L-258827 -706195 L-258460 -708369 L-258014 -712717 L-257647 -714891 L-257233 -719239 L-255248 -721413 L-255035 -721413 L-254880 -723586 L-253275 -723586 L-252153 -725760 L-251205 -727934 L-249948 -732282 L-248303 -734456 L-247123 -738804 L-240534 -740978 L-240487 -743152 L-240082 -745326 L-239036 -747500 L-238901 -749673 L-237218 -754021 L-237199 -756195 L-235862 -760543 L-234626 -762717 L-234471 -764891 L-234097 -769239 L-233891 -771413 L-233582 -773586 L-232808 -777934 L-230486 -780108 L-229829 -782282 L-227701 -784456 L-225978 -786630 L-225785 -790978 L-223232 -793152 L-222955 -797500 L-222767 -801847 L-221935 -804021 L-221162 -806195 L-220464 -808369 L-215463 -808369 L-215088 -812717 L-210835 -814891 L-210348 -599673 L-210328 -599673 L-210249 -601847 L-210174 -604021 L-210154 -825760 L-209341 -827934 L-208588 -832282 L-207368 -834456 L-205937 -834456 L-205840 -836630 L-205666 -836630 L-205312 -840978 L-204002 -843152 L-202145 -845326 L-200443 -849673 L-199940 -851847 L-199674 -854021 L-199281 -856195 L-199147 -858369 L-198237 -860543 L-197861 -862717 L-196932 -862717 L-196593 -864891 L-196554 -864891 L-196516 -867065 L-194601 -867065 L-194427 -869239 L-192898 -869239 L-192570 -871413 L-192454 -873586 L-192047 -877934 L-191699 -880108 L-190055 -884456 L-189504 -886630 L-189261 -888804 L-188719 -890978 L-187888 -895326 L-187346 -897500 L-185812 -901847 L-185720 -904021 L-185683 -906195 L-185547 -908369 L-185160 -910543 L-184135 -912717 L-182258 -914891 L-182162 -917065 L-181562 -847500 L-181195 -773586 L-180710 -697500 L-180672 -623586 L-179898 -619239 L-179841 -621413 L-179666 -625760 L-179473 -627934 L-177867 -632282 L-177847 -634456 L-177692 -630108 L-177577 -627934 L-176397 -625760 L-176242 -619239 L-175575 -619239 L-173127 -440978 L-170612 -258369 L-167943 -82282 L-160243 93804 L-154576 93804 L-152361 91630 L-152338 91630 L-151364 135108 L-151344 135108 L-150480 130760 L-147740 128586 L-141942 82934 L-141788 78586 L-139002 76413 L-125394 72065 L-124648 69891 L-120237 65543 L-103891 63369 L-103659 59021 L-103122 56847 L-94662 54673 L-85957 52500 L-85745 50326 L-83772 48152 L-80986 48152 L-76498 50326 L-76344 48152 L-76174 48152 L-76034 45978 L-75743 41630 L-75705 39456 L-75434 37282 L-75262 35108 L-74852 32934 L-73732 30760 L-72551 28586 L-71274 26413 L-68411 24239 L-65490 22065 L-63498 19891 L-61951 15543 L-58913 13369 L-49588 11195 L-49064 9021 L-43340 9021 L-41833 6847 L-41019 6847 L-39335 2500 L-38614 326 L-38446 -1847 L-37401 -4021 L-35333 -6195 L-33971 -8369 L-29528 -10543 L-29431 -12717 L-29392 -14891 L-29373 -17065 L-28541 -19239 L-28463 -23586 L-25891 -25760 L-22641 -27934 L-22486 -30108 L-21538 -32282 L-19797 -36630 L-19082 -23586 L-15541 -12717 L-8964 326 L-7546 17717 L-7525 15543 L-6575 13369 L-3101 11195 L-2347 6847 L-1786 4673 L-1004 2500 L6500 326" />
</svg>
