<svg xmlns="http://www.w3.org/2000/svg" version="1.1" viewBox="0 0 6500 1000">
	<path fill="none" stroke="gold" stroke-width="125" stroke-linecap="round" stroke-linejoin="round" d="M0 3248  L-722259 3248 L-719655 3248 L-717987 3248 L-699657 3248 L-699487 3248 L-692329 3247 L-692296 3247 L-678865 3247 L-675943 3247 L-662603 3247 L-658434 3246 L-657273 3245 L-656654 3245 L-654642 3244 L-650871 3244 L-650271 3243 L-649942 3243 L-649729 3243 L-649187 3243 L-647949 3241 L-646770 3240 L-643906 3239 L-643384 3238 L-638528 3237 L-635591 3237 L-635548 3237 L-635240 3236 L-634988 3236 L-632393 3236 L-628137 3236 L-628119 3236 L-626883 3236 L-625005 3236 L-623052 3235 L-622104 3235 L-621833 3235 L-621523 3235 L-621425 3234 L-620595 3234 L-618564 3235 L-618273 3233 L-616127 3233 L-615971 3232 L-612315 3231 L-612064 3231 L-611966 3231 L-611448 3231 L-609297 3232 L-608368 3233 L-606842 3234 L-605603 3234 L-604056 3234 L-601095 3233 L-599973 3233 L-599664 3233 L-598452 3233 L-595446 3234 L-595426 3234 L-595079 3234 L-594866 3234 L-594739 3232 L-594498 3231 L-594460 3231 L-594440 3231 L-594421 3230 L-594362 3230 L-594303 3230 L-594285 3229 L-593842 3229 L-592603 3229 L-591057 3228 L-587669 3228 L-581943 3228 L-581742 3228 L-580106 3228 L-578384 3228 L-576952 3227 L-576719 3227 L-576004 3227 L-569872 3227 L-569504 3227 L-569350 3226 L-568771 3226 L-568479 3226 L-567511 3225 L-567202 3225 L-566603 3225 L-564997 3225 L-564261 3225 L-563952 3225 L-563183 3225 L-561147 3225 L-560722 3224 L-559909 3224 L-552481 3224 L-551958 3223 L-551784 3223 L-551049 3223 L-549482 3223 L-549076 3222 L-546851 3222 L-545903 3222 L-545478 3222 L-545148 3222 L-544104 3222 L-541996 3221 L-541744 3221 L-541125 3221 L-540312 3221 L-538204 3220 L-538156 3220 L-536227 3220 L-535902 3219 L-535767 3219 L-535263 3219 L-533851 3219 L-533348 3218 L-532826 3217 L-529266 3217 L-528531 3216 L-526106 3216 L-524817 3216 L-524410 3216 L-521258 3216 L-521103 3216 L-521083 3216 L-520716 3216 L-519458 3216 L-518743 3216 L-517853 3216 L-517446 3216 L-516517 3216 L-515409 3216 L-515105 3217 L-508857 3217 L-507909 3217 L-506283 3218 L-505781 3218 L-502106 3218 L-501273 3218 L-497320 3218 L-495908 3218 L-493419 3217 L-492743 3217 L-492704 3217 L-491833 3217 L-488622 3217 L-485759 3217 L-484791 3216 L-483669 3216 L-483650 3216 L-482025 3216 L-481561 3215 L-481469 3215 L-475100 3215 L-474151 3215 L-471694 3214 L-470822 3214 L-469586 3214 L-467585 3214 L-467187 3214 L-465751 3213 L-463725 3213 L-463512 3213 L-462331 3213 L-460823 3212 L-460803 3212 L-458791 3212 L-457921 3212 L-457050 3212 L-456465 3211 L-455928 3211 L-455270 3211 L-454032 3210 L-453472 3210 L-452291 3210 L-451053 3210 L-451015 3210 L-450628 3210 L-450086 3209 L-449312 3209 L-448190 3209 L-446101 3209 L-445767 3208 L-445482 3208 L-444553 3208 L-444070 3208 L-443334 3207 L-439703 3207 L-438576 3207 L-438421 3207 L-437395 3207 L-433680 3206 L-432463 3206 L-430644 3206 L-427859 3206 L-427297 3205 L-423409 3205 L-420933 3205 L-419598 3205 L-419094 3205 L-418611 3205 L-415922 3205 L-412150 3205 L-409693 3205 L-408513 3205 L-407874 3205 L-405515 3204 L-405437 3204 L-404390 3204 L-404296 3204 L-403793 3204 L-403348 3204 L-403290 3204 L-403077 3204 L-400117 3204 L-397409 3203 L-397255 3203 L-393734 3203 L-393211 3203 L-392243 3202 L-391894 3202 L-390851 3202 L-389922 3202 L-389497 3201 L-387987 3201 L-387021 3201 L-387002 3201 L-385106 3190 L-384990 3178 L-384942 3167 L-384917 3155 L-381913 3155 L-379882 3155 L-378122 3154 L-377755 3154 L-377309 3154 L-376942 3154 L-376528 3153 L-374543 3153 L-374330 3153 L-374175 3153 L-372570 3153 L-371448 3153 L-370500 3153 L-369242 3153 L-367598 3152 L-366418 3152 L-359829 3152 L-359782 3152 L-359376 3152 L-358331 3151 L-358196 3151 L-356513 3151 L-356493 3151 L-355157 3150 L-353920 3150 L-353766 3150 L-353392 3150 L-353186 3150 L-352877 3150 L-352103 3149 L-349781 3149 L-349124 3149 L-346996 3149 L-345273 3149 L-345080 3148 L-342526 3148 L-342250 3148 L-342062 3148 L-341229 3147 L-340457 3147 L-339759 3147 L-334758 3147 L-334382 3147 L-330130 3147 L-329642 3162 L-329623 3162 L-329544 3162 L-329469 3162 L-329449 3146 L-328636 3146 L-327883 3145 L-326663 3145 L-325232 3145 L-325135 3145 L-324961 3145 L-324606 3145 L-323297 3145 L-321440 3144 L-319738 3144 L-319235 3144 L-318969 3144 L-318576 3144 L-318442 3143 L-317532 3143 L-317156 3143 L-316227 3143 L-315888 3143 L-315849 3143 L-315811 3143 L-313895 3143 L-313722 3143 L-312193 3143 L-311865 3143 L-311749 3142 L-311342 3142 L-310993 3142 L-309350 3142 L-308799 3141 L-308556 3141 L-308014 3141 L-307183 3141 L-306641 3141 L-305107 3140 L-305015 3140 L-304978 3140 L-304842 3140 L-304455 3140 L-303430 3140 L-301553 3139 L-301457 3139 L-300857 3144 L-300490 3150 L-300005 3155 L-299967 3160 L-299193 3161 L-299136 3160 L-298961 3160 L-298768 3160 L-297162 3160 L-297142 3160 L-296987 3160 L-296872 3160 L-295692 3160 L-295537 3161 L-294870 3161 L-292422 3173 L-289907 3187 L-287238 3199 L-279538 3212 L-273871 3212 L-271656 3212 L-271633 3212 L-270659 3215 L-270639 3215 L-269775 3214 L-267035 3214 L-261236 3211 L-261083 3211 L-258297 3211 L-244689 3210 L-243943 3210 L-239532 3210 L-223186 3210 L-222954 3209 L-222417 3209 L-213957 3209 L-205252 3209 L-205039 3209 L-203067 3209 L-200281 3209 L-195793 3209 L-195638 3209 L-195469 3209 L-195329 3208 L-195038 3208 L-195000 3208 L-194729 3208 L-194557 3208 L-194147 3207 L-193026 3207 L-191846 3207 L-190569 3207 L-187705 3207 L-184785 3207 L-182793 3206 L-181246 3206 L-178208 3206 L-168883 3206 L-168359 3206 L-162635 3206 L-161128 3206 L-160314 3206 L-158630 3205 L-157909 3205 L-157741 3205 L-156696 3205 L-154628 3205 L-153266 3204 L-148823 3204 L-148726 3204 L-148687 3204 L-148668 3204 L-147836 3204 L-147758 3203 L-145185 3203 L-141936 3203 L-141781 3203 L-140833 3203 L-139092 3202 L-138377 3203 L-134836 3204 L-128258 3205 L-126841 3206 L-126820 3206 L-125870 3206 L-122395 3206 L-121642 3206 L-121081 3205 L-120299 3205 L-112794 3205 L-111196 3205 L-109622 3205 L-106437 3205 L-102104 3204 L-93534 3204 L-84788 3204 L-81714 3204 L-78448 3204 L-77901 3204 L-70764 3204 L-65096 3204 L-51032 3204 L-45021 3204 L-40314 3204 L-36311 3203 L-31204 3203 L-21490 3203 L-5919 3203 L-2836 3202 L-2534 3132 L-2514 3046 L-2496 2947 L-2476 2838 L-2456 2788 L-2437 2745 L-2418 2707 L-2391 2668 L-2370 2631 L-2342 2592 L-2307 2548 L-2293 2512 L-2280 2480 L-2261 2454 L-2243 2435 L-2223 2415 L-2205 2395 L-2185 2375 L-2165 2355 L-2144 2334 L-2127 2314 L-2109 2294 L-2088 2275 L-2068 2256 L-2050 2235 L-2031 2213 L-2011 2191 L-1991 2170 L-1973 2149 L-1954 2129 L-1933 2110 L-1908 2091 L-1893 2073 L-1876 2055 L-1856 2037 L-1837 2019 L-1818 2000 L-1799 1980 L-1779 1962 L-1758 1944 L-1741 1927 L-1722 1911 L-1701 1896 L-1681 1881 L-1663 1869 L-1644 1857 L-1624 1845 L-1606 1834 L-1586 1823 L-1567 1813 L-1547 1804 L-1527 1796 L-1508 1788 L-1490 1779 L-1462 1769 L-1441 1758 L-1414 1746 L-1380 1732 L-1365 1721 L-1352 1712 L-1334 1703 L-1315 1695 L-1295 1687 L-1276 1678 L-1257 1669 L-1237 1660 L-1216 1651 L-1199 1643 L-1180 1635 L-1160 1626 L-1140 1617 L-1121 1606 L-1103 1594 L-1083 1582 L-1063 1569 L-1044 1557 L-1025 1544 L-1004 1530 L-980 1515 L-965 1500 L-948 1485 L-928 1471 L-909 1457 L-889 1442 L-871 1427 L-850 1412 L-830 1397 L-812 1383 L-793 1369 L-773 1356 L-753 1342 L-735 1330 L-716 1318 L-696 1307 L-677 1297 L-657 1286 L-638 1276 L-619 1266 L-599 1255 L-580 1245 L-561 1235 L-532 1224 L-512 1215 L-485 1205 L-448 1193 L-432 1182 L-420 1171 L-403 1162 L-386 1155 L-366 1148 L-348 1142 L-328 1136 L-308 1130 L-288 1124 L-270 1118 L-252 1111 L-231 1103 L-211 1096 L-193 1088 L-174 1080 L-154 1071 L-134 1062 L-116 1052 L-97 1043 L-76 1034 L-51 1025 L-37 1016 L-19 1007 L0 997 L18 988 L38 979 L57 969 L77 959 L97 949 L116 940 L134 931 L155 923 L175 914 L193 907 L212 899 L232 891 L250 883 L270 875 L289 868 L309 861 L328 854 L348 846 L367 839 L395 832 L415 824 L443 816 L479 804 L493 793 L506 783 L524 774 L542 769 L562 763 L580 756 L600 748 L620 740 L641 731 L659 722 L676 713 L697 702 L717 692 L735 681 L754 669 L774 657 L794 646 L812 635 L831 627 L852 620 L877 614 L892 609 L909 603 L928 597 L948 591 L967 585 L986 579 L1006 573 L1027 568 L1044 564 L1063 558 L1084 552 L1104 544 L1121 536 L1140 530 L1161 526 L1179 522 L1199 519 L1218 515 L1238 511 L1257 507 L1276 502 L1295 498 L1323 494 L1344 491 L1371 486 L1406 481 L1420 477 L1433 473 L1452 470 L1470 467 L1490 464 L1509 460 L1528 457 L1548 455 L1569 452 L1586 449 L1605 445 L1625 442 L1645 438 L1663 435 L1682 431 L1702 428 L1722 425 L1741 423 L1759 420 L1781 417 L1806 414 L1820 411 L1837 408 L1857 406 L1876 403 L1895 400 L1914 396 L1934 393 L1955 389 L1973 386 L1992 384 L2012 381 L2033 378 L2050 375 L2069 372 L2089 370 L2108 367 L2128 365 L2146 363 L2166 361 L2186 359 L2205 357 L2224 360 L2252 363 L2272 366 L2300 369 L2337 366 L2353 364 L2365 362 L2383 360 L2399 359 L2419 357 L2437 355 L2457 354 L2477 352 L2498 350 L2515 349 L2533 347 L2554 346 L2574 344 L2592 342 L2611 340 L2631 338 L2651 336 L2669 335 L2688 333 L2709 332 L2734 330 L2749 328 L2766 326 L2785 325 L2805 323 L2824 321 L2843 319 L2863 317 L2884 314 L2901 312 L2920 309 L2941 307 L2961 305 L2979 303 L2998 300 L3018 298 L3036 296 L3056 294 L3075 291 L3095 289 L3114 287 L3134 285 L3152 284 L3180 282 L3201 279 L3228 277 L3263 275 L3277 273 L3290 271 L3309 269 L3328 267 L3348 265 L3366 263 L3385 262 L3405 259 L3426 258 L3443 256 L3462 254 L3482 252 L3502 249 L3521 247 L3539 244 L3559 241 L3580 238 L3598 235 L3616 232 L3638 230 L3663 227 L3678 224 L3695 221 L3714 219 L3734 216 L3753 213 L3772 210 L3792 208 L3812 205 L3830 203 L3849 200 L3869 198 L3890 195 L3907 193 L3926 191 L3946 190 L3965 188 L3985 186 L4003 185 L4023 184 L4043 182 L4062 181 L4081 180 L4109 178 L4129 176 L4157 175 L4193 172 L4206 169 L4219 167 L4238 164 L4256 162 L4276 161 L4294 159 L4314 157 L4334 156 L4355 154 L4372 152 L4390 150 L4411 148 L4431 145 L4449 143 L4468 141 L4488 139 L4508 136 L4526 134 L4545 133 L4567 131 L4591 129 L4606 128 L4623 126 L4643 124 L4662 122 L4681 120 L4700 117 L4720 114 L4741 111 L4758 108 L4778 106 L4798 103 L4819 101 L4836 100 L4855 98 L4875 97 L4894 96 L4913 94 L4932 93 L4952 91 L4972 90 L4991 89 L5009 87 L5037 86 L5058 85 L5085 83 L5120 82 L5134 81 L5147 80 L5166 79 L5184 78 L5204 76 L5223 75 L5242 74 L5262 74 L5283 73 L5300 72 L5319 71 L5339 69 L5359 68 L5378 67 L5396 66 L5416 65 L5436 64 L5455 63 L5474 63 L5495 62 L5519 61 L5534 60 L5551 59 L5571 57 L5590 57 L5610 55 L5628 54 L5648 53 L5669 51 L5687 49 L5706 47 L5726 44 L5747 43 L5764 41 L5783 40 L5803 38 L5822 37 L5842 35 L5861 34 L5880 33 L5900 31 L5919 30 L5938 29 L5967 28 L6014 27 L6051 26 L6066 25 L6079 24 L6096 23 L6113 22 L6133 22 L6151 21 L6171 20 L6191 19 L6211 19 L6229 18 L6247 17 L6268 17 L6287 16 L6306 15 L6325 14 L6345 13 L6365 12 L6383 11 L6402 9 L6423 8 L6448 6 L6463 4 L6480 3 L6500 1" />
</svg>
