<svg xmlns="http://www.w3.org/2000/svg" version="1.1" viewBox="0 0 6500 1000">
	<path fill="none" stroke="gold" stroke-width="125" stroke-linecap="round" stroke-linejoin="round" d="M0 3318  L-728043 3318 L-725438 3318 L-723770 3318 L-705441 3318 L-705271 3317 L-698113 3317 L-698080 3317 L-684649 3317 L-681727 3317 L-668386 3317 L-664217 3316 L-663057 3315 L-662438 3315 L-660426 3314 L-656654 3314 L-656054 3314 L-655726 3313 L-655513 3313 L-654971 3313 L-653733 3312 L-652554 3310 L-649690 3309 L-649167 3308 L-644312 3308 L-641375 3308 L-641332 3307 L-641023 3307 L-640771 3307 L-638176 3306 L-633921 3306 L-633903 3306 L-632666 3306 L-630789 3306 L-628835 3306 L-627887 3306 L-627617 3306 L-627307 3305 L-627209 3305 L-626378 3305 L-624347 3305 L-624057 3304 L-621911 3303 L-621755 3303 L-618099 3302 L-617848 3302 L-617749 3302 L-617232 3302 L-615081 3303 L-614152 3304 L-612626 3305 L-611387 3305 L-609840 3305 L-606878 3304 L-605756 3304 L-605447 3304 L-604236 3303 L-601229 3305 L-601210 3305 L-600862 3305 L-600649 3305 L-600523 3303 L-600281 3302 L-600244 3302 L-600224 3302 L-600205 3301 L-600146 3301 L-600087 3301 L-600069 3301 L-599626 3300 L-598387 3300 L-596841 3300 L-593453 3299 L-587727 3299 L-587525 3299 L-585889 3299 L-584167 3299 L-582735 3299 L-582503 3299 L-581788 3298 L-575656 3298 L-575288 3298 L-575133 3298 L-574555 3297 L-574262 3297 L-573295 3297 L-572986 3297 L-572386 3296 L-570780 3296 L-570045 3296 L-569735 3296 L-568967 3296 L-566931 3296 L-566506 3296 L-565693 3296 L-558264 3295 L-557741 3295 L-557568 3295 L-556833 3295 L-555265 3294 L-554860 3294 L-552635 3294 L-551687 3294 L-551262 3294 L-550931 3294 L-549888 3293 L-547779 3293 L-547527 3293 L-546908 3293 L-546096 3292 L-543988 3292 L-543939 3292 L-542011 3292 L-541685 3291 L-541550 3291 L-541047 3291 L-539634 3291 L-539131 3290 L-538610 3290 L-535050 3289 L-534315 3288 L-531890 3288 L-530601 3288 L-530194 3288 L-527041 3288 L-526886 3288 L-526866 3288 L-526500 3288 L-525241 3288 L-524526 3288 L-523636 3288 L-523229 3288 L-522301 3288 L-521192 3288 L-520889 3289 L-514640 3289 L-513693 3289 L-512067 3290 L-511565 3290 L-507889 3290 L-507057 3290 L-503104 3290 L-501692 3290 L-499203 3290 L-498526 3289 L-498488 3289 L-497617 3289 L-494405 3289 L-491542 3289 L-490574 3289 L-489453 3288 L-489434 3288 L-487809 3288 L-487345 3287 L-487253 3287 L-480884 3287 L-479935 3287 L-477478 3287 L-476606 3286 L-475370 3286 L-473368 3286 L-472971 3286 L-471535 3286 L-469508 3285 L-469295 3285 L-468115 3285 L-466607 3285 L-466587 3285 L-464574 3285 L-463705 3284 L-462834 3284 L-462249 3284 L-461712 3284 L-461054 3283 L-459816 3283 L-459255 3283 L-458074 3283 L-456837 3283 L-456798 3282 L-456411 3282 L-455870 3282 L-455096 3282 L-453974 3282 L-451884 3281 L-451551 3281 L-451265 3281 L-450337 3281 L-449854 3280 L-449118 3280 L-445487 3280 L-444359 3280 L-444205 3280 L-443179 3280 L-439464 3279 L-438247 3279 L-436428 3279 L-433642 3279 L-433081 3278 L-429193 3278 L-426716 3278 L-425381 3278 L-424878 3278 L-424395 3278 L-421706 3278 L-417934 3278 L-415477 3278 L-414297 3278 L-413658 3278 L-411298 3278 L-411221 3277 L-410173 3277 L-410080 3277 L-409577 3277 L-409131 3277 L-409074 3277 L-408860 3277 L-405901 3277 L-403193 3277 L-403038 3276 L-399517 3276 L-398994 3276 L-398027 3276 L-397678 3276 L-396634 3275 L-395706 3275 L-395280 3275 L-393771 3275 L-392804 3275 L-392785 3275 L-390889 3264 L-390773 3253 L-390725 3243 L-390701 3232 L-387697 3232 L-385666 3231 L-383905 3231 L-383538 3231 L-383093 3231 L-382726 3231 L-382312 3230 L-380327 3230 L-380114 3230 L-379959 3230 L-378353 3230 L-377232 3230 L-376283 3230 L-375026 3230 L-373382 3229 L-372202 3229 L-365612 3229 L-365566 3229 L-365160 3229 L-364115 3229 L-363980 3228 L-362297 3228 L-362277 3228 L-360940 3228 L-359704 3228 L-359550 3227 L-359176 3227 L-358970 3227 L-358660 3227 L-357886 3227 L-355565 3226 L-354907 3226 L-352779 3226 L-351057 3226 L-350863 3226 L-348310 3226 L-348034 3225 L-347846 3225 L-347013 3225 L-346241 3225 L-345543 3225 L-340542 3225 L-340166 3224 L-335913 3224 L-335426 3238 L-335407 3238 L-335328 3238 L-335253 3238 L-335233 3223 L-334420 3223 L-333666 3223 L-332447 3223 L-331015 3223 L-330919 3223 L-330745 3223 L-330390 3222 L-329081 3222 L-327224 3222 L-325521 3222 L-325018 3222 L-324753 3222 L-324360 3221 L-324226 3221 L-323316 3221 L-322940 3221 L-322011 3221 L-321672 3221 L-321632 3221 L-321595 3221 L-319679 3221 L-319505 3221 L-317977 3221 L-317648 3220 L-317532 3220 L-317125 3220 L-316777 3220 L-315133 3220 L-314583 3219 L-314339 3219 L-313798 3219 L-312967 3219 L-312425 3219 L-310891 3218 L-310798 3218 L-310761 3218 L-310625 3218 L-310238 3218 L-309213 3218 L-307337 3218 L-307241 3217 L-306640 3222 L-306273 3227 L-305789 3232 L-305751 3237 L-304977 3237 L-304919 3237 L-304745 3237 L-304551 3237 L-302946 3236 L-302926 3236 L-302771 3236 L-302655 3237 L-301476 3237 L-301321 3237 L-300654 3237 L-298206 3249 L-295691 3261 L-293021 3273 L-285322 3284 L-279654 3284 L-277440 3284 L-277416 3284 L-276443 3287 L-276423 3287 L-275559 3287 L-272819 3287 L-267020 3284 L-266867 3283 L-264081 3283 L-250473 3283 L-249727 3283 L-245316 3282 L-228970 3282 L-228738 3282 L-228201 3282 L-219741 3282 L-211035 3282 L-210823 3281 L-208851 3281 L-206064 3281 L-201577 3281 L-201422 3281 L-201253 3281 L-201113 3281 L-200822 3281 L-200783 3281 L-200512 3281 L-200341 3280 L-199931 3280 L-198810 3280 L-197630 3280 L-196353 3280 L-193489 3280 L-190569 3280 L-188577 3279 L-187029 3279 L-183991 3279 L-174667 3279 L-174143 3279 L-168419 3279 L-166912 3279 L-166097 3279 L-164414 3278 L-163693 3278 L-163524 3278 L-162479 3278 L-160412 3278 L-159050 3278 L-154607 3277 L-154509 3277 L-154471 3277 L-154452 3277 L-153619 3277 L-153542 3277 L-150969 3276 L-147720 3276 L-147565 3276 L-146617 3276 L-144876 3276 L-144160 3277 L-140619 3277 L-134042 3278 L-132625 3279 L-132604 3279 L-131654 3279 L-128179 3279 L-127426 3279 L-126864 3278 L-126082 3278 L-118578 3278 L-116980 3278 L-115406 3278 L-112220 3278 L-107887 3278 L-99318 3277 L-90571 3277 L-87497 3277 L-84231 3277 L-83685 3277 L-76548 3277 L-70880 3277 L-56816 3277 L-50804 3277 L-46098 3277 L-42095 3276 L-36987 3276 L-27273 3276 L-11703 3276 L-8620 3276 L-8318 3211 L-8298 3131 L-8279 3040 L-8259 2939 L-8240 2893 L-8221 2854 L-8202 2818 L-8174 2783 L-8153 2748 L-8126 2712 L-8090 2672 L-8077 2638 L-8064 2609 L-8045 2585 L-8026 2567 L-8006 2549 L-7988 2530 L-7969 2512 L-7949 2493 L-7928 2474 L-7911 2455 L-7892 2437 L-7872 2420 L-7852 2402 L-7834 2382 L-7815 2363 L-7795 2342 L-7775 2322 L-7756 2303 L-7737 2285 L-7716 2267 L-7691 2249 L-7677 2233 L-7660 2216 L-7640 2199 L-7621 2183 L-7602 2165 L-7583 2147 L-7563 2130 L-7542 2114 L-7524 2098 L-7505 2083 L-7485 2069 L-7464 2056 L-7447 2045 L-7428 2033 L-7408 2022 L-7389 2012 L-7369 2002 L-7351 1993 L-7331 1985 L-7311 1977 L-7292 1969 L-7273 1962 L-7246 1952 L-7225 1942 L-7197 1931 L-7163 1918 L-7149 1908 L-7136 1899 L-7117 1891 L-7098 1884 L-7078 1877 L-7060 1868 L-7040 1860 L-7021 1851 L-7000 1844 L-6983 1836 L-6964 1829 L-6944 1821 L-6924 1812 L-6905 1801 L-6886 1791 L-6866 1779 L-6847 1768 L-6828 1757 L-6809 1745 L-6788 1732 L-6764 1718 L-6749 1704 L-6732 1690 L-6712 1677 L-6693 1664 L-6673 1651 L-6654 1636 L-6634 1622 L-6614 1609 L-6596 1596 L-6577 1583 L-6557 1571 L-6536 1558 L-6518 1547 L-6499 1536 L-6479 1525 L-6461 1516 L-6441 1506 L-6422 1497 L-6402 1488 L-6383 1478 L-6364 1468 L-6345 1459 L-6316 1449 L-6296 1441 L-6268 1431 L-6231 1420 L-6216 1410 L-6204 1400 L-6187 1392 L-6170 1385 L-6150 1379 L-6131 1373 L-6112 1368 L-6092 1363 L-6071 1357 L-6054 1351 L-6035 1344 L-6015 1338 L-5995 1331 L-5977 1324 L-5958 1316 L-5938 1308 L-5918 1299 L-5899 1290 L-5881 1282 L-5859 1274 L-5835 1265 L-5820 1257 L-5803 1249 L-5783 1240 L-5764 1232 L-5744 1223 L-5726 1213 L-5706 1204 L-5685 1195 L-5667 1187 L-5648 1179 L-5628 1171 L-5608 1163 L-5590 1156 L-5571 1149 L-5551 1142 L-5532 1135 L-5512 1127 L-5493 1120 L-5474 1114 L-5454 1107 L-5435 1100 L-5416 1094 L-5388 1087 L-5368 1080 L-5340 1072 L-5304 1062 L-5289 1052 L-5276 1042 L-5259 1034 L-5241 1029 L-5221 1023 L-5202 1017 L-5183 1010 L-5163 1002 L-5142 994 L-5123 986 L-5106 977 L-5086 968 L-5066 958 L-5048 947 L-5029 936 L-5009 925 L-4988 915 L-4971 906 L-4952 898 L-4931 891 L-4906 886 L-4891 881 L-4873 876 L-4854 870 L-4835 865 L-4816 859 L-4797 853 L-4777 848 L-4756 844 L-4739 840 L-4719 835 L-4699 828 L-4678 821 L-4661 814 L-4642 809 L-4622 804 L-4603 801 L-4584 798 L-4565 795 L-4545 791 L-4525 787 L-4506 783 L-4488 779 L-4460 776 L-4439 772 L-4411 768 L-4377 763 L-4363 759 L-4350 756 L-4331 753 L-4312 750 L-4293 747 L-4274 744 L-4254 741 L-4235 739 L-4214 736 L-4197 733 L-4178 730 L-4157 727 L-4137 724 L-4119 720 L-4101 717 L-4081 715 L-4060 712 L-4042 709 L-4023 706 L-4002 704 L-3977 701 L-3963 698 L-3945 696 L-3926 694 L-3907 691 L-3887 688 L-3868 685 L-3848 681 L-3827 679 L-3810 676 L-3791 673 L-3771 670 L-3750 668 L-3733 665 L-3714 663 L-3694 660 L-3675 658 L-3655 656 L-3636 654 L-3616 652 L-3597 650 L-3578 648 L-3559 652 L-3530 654 L-3510 657 L-3483 660 L-3445 657 L-3430 655 L-3417 653 L-3400 652 L-3384 650 L-3364 649 L-3345 647 L-3326 645 L-3306 644 L-3285 643 L-3268 641 L-3249 640 L-3229 638 L-3209 636 L-3191 635 L-3172 633 L-3152 631 L-3132 629 L-3114 628 L-3095 626 L-3073 625 L-3049 624 L-3034 622 L-3017 620 L-2997 619 L-2978 617 L-2959 615 L-2940 614 L-2920 612 L-2899 609 L-2881 607 L-2862 605 L-2842 602 L-2821 600 L-2804 598 L-2785 596 L-2765 594 L-2746 593 L-2727 590 L-2708 588 L-2688 586 L-2668 584 L-2649 582 L-2630 581 L-2603 579 L-2582 577 L-2554 575 L-2519 573 L-2506 571 L-2492 569 L-2473 567 L-2455 565 L-2435 564 L-2417 562 L-2397 560 L-2378 559 L-2356 557 L-2339 555 L-2321 553 L-2300 551 L-2280 549 L-2262 547 L-2243 544 L-2223 541 L-2203 538 L-2185 536 L-2166 534 L-2145 531 L-2120 528 L-2105 526 L-2088 523 L-2069 521 L-2049 518 L-2030 516 L-2011 513 L-1991 511 L-1970 508 L-1953 506 L-1934 504 L-1913 501 L-1892 499 L-1875 498 L-1857 496 L-1837 494 L-1818 493 L-1798 491 L-1779 490 L-1759 488 L-1740 487 L-1721 486 L-1702 485 L-1674 483 L-1654 482 L-1626 481 L-1590 478 L-1576 475 L-1563 473 L-1545 470 L-1527 469 L-1507 467 L-1488 466 L-1469 464 L-1449 463 L-1428 461 L-1411 459 L-1392 457 L-1372 455 L-1352 453 L-1333 451 L-1315 449 L-1295 447 L-1274 445 L-1256 443 L-1238 441 L-1216 440 L-1191 438 L-1177 437 L-1159 435 L-1140 433 L-1121 432 L-1101 429 L-1082 427 L-1063 424 L-1041 421 L-1024 419 L-1005 417 L-985 414 L-964 413 L-947 411 L-928 410 L-908 408 L-889 407 L-869 406 L-851 405 L-831 403 L-811 402 L-792 401 L-773 400 L-746 398 L-725 397 L-697 396 L-663 395 L-649 394 L-636 393 L-617 392 L-598 391 L-578 390 L-560 389 L-540 388 L-521 387 L-500 386 L-483 385 L-464 384 L-444 383 L-424 382 L-405 381 L-386 380 L-366 379 L-346 378 L-328 378 L-309 377 L-288 376 L-263 375 L-249 374 L-231 373 L-212 372 L-193 371 L-173 370 L-154 369 L-134 368 L-114 366 L-96 364 L-77 362 L-57 360 L-36 358 L-18 357 L0 356 L20 354 L38 353 L58 352 L77 350 L97 349 L116 348 L136 347 L154 346 L183 345 L231 344 L268 343 L282 342 L295 341 L312 340 L329 340 L349 339 L368 339 L387 338 L407 337 L428 336 L445 336 L464 335 L484 334 L504 334 L522 333 L541 332 L561 331 L581 330 L600 329 L618 328 L640 326 L664 325 L679 323 L696 321 L716 320 L735 319 L755 317 L773 316 L793 315 L814 313 L832 312 L851 310 L871 309 L891 308 L909 307 L928 306 L948 305 L967 304 L987 303 L1005 302 L1025 301 L1045 300 L1064 299 L1083 298 L1111 297 L1131 296 L1159 294 L1196 292 L1211 290 L1223 288 L1241 286 L1258 285 L1278 283 L1297 283 L1316 282 L1336 281 L1357 280 L1374 279 L1392 278 L1413 276 L1434 275 L1451 273 L1471 271 L1490 269 L1511 267 L1528 265 L1547 264 L1569 262 L1594 261 L1609 259 L1626 258 L1645 257 L1665 255 L1683 254 L1702 252 L1722 251 L1744 249 L1760 248 L1780 246 L1800 245 L1821 244 L1838 243 L1857 242 L1877 240 L1896 239 L1915 238 L1934 237 L1954 236 L1974 235 L1993 234 L2012 233 L2040 997 L2060 996 L2088 995 L2124 993 L2138 226 L2151 225 L2169 224 L2187 223 L2206 222 L2225 221 L2244 221 L2264 219 L2286 218 L2302 216 L2321 214 L2342 213 L2362 211 L2380 209 L2399 207 L2419 205 L2440 203 L2457 202 L2476 201 L2497 200 L2522 198 L2537 196 L2567 194 L2607 192 L2630 189 L2659 187 L2675 185 L2689 183 L2708 181 L2729 180 L2750 179 L2766 178 L2785 177 L2805 176 L2824 175 L2844 175 L2863 174 L2883 173 L2903 172 L2921 171 L2940 170 L2968 169 L2988 168 L3016 167 L3051 166 L3065 165 L3097 164 L3115 163 L3135 162 L3154 161 L3173 160 L3193 160 L3214 159 L3231 158 L3249 156 L3270 154 L3291 150 L3308 146 L3327 143 L3347 140 L3367 138 L3385 136 L3404 134 L3426 133 L3451 132 L3466 130 L3483 129 L3502 127 L3522 126 L3540 124 L3560 123 L3579 121 L3601 120 L3618 118 L3637 117 L3657 116 L3678 115 L3695 114 L3714 113 L3734 112 L3753 111 L3772 110 L3792 109 L3811 107 L3831 106 L3850 106 L3869 105 L3896 104 L3917 103 L3987 101 L4015 98 L4030 96 L4044 94 L4064 92 L4082 91 L4101 90 L4121 89 L4142 87 L4160 86 L4178 86 L4199 85 L4219 84 L4237 83 L4256 82 L4276 80 L4296 79 L4314 78 L4333 76 L4354 75 L4379 75 L4394 73 L4412 72 L4430 71 L4450 69 L4469 68 L4488 67 L4508 66 L4529 65 L4546 64 L4565 63 L4586 62 L4607 61 L4624 60 L4682 59 L4701 58 L4720 57 L4740 56 L4760 55 L4779 54 L4797 54 L4825 53 L4846 53 L4873 52 L4910 51 L4924 50 L4937 50 L4955 49 L4973 49 L4992 48 L5011 48 L5031 47 L5050 47 L5071 46 L5088 46 L5107 46 L5127 45 L5148 44 L5166 44 L5185 43 L5204 42 L5225 41 L5243 40 L5262 40 L5283 39 L5308 38 L5322 38 L5339 37 L5359 36 L5379 36 L5398 35 L5417 34 L5436 33 L5458 32 L5475 30 L5494 30 L5514 29 L5535 29 L5552 28 L5571 28 L5591 27 L5610 27 L5630 26 L5648 26 L5668 26 L5688 25 L5707 25 L5726 24 L5753 24 L5774 23 L5802 23 L5837 22 L5851 21 L5865 21 L5883 20 L5901 20 L5921 19 L5939 19 L5978 18 L5999 18 L6016 17 L6035 17 L6055 16 L6075 15 L6094 14 L6113 13 L6133 13 L6152 12 L6171 11 L6190 11 L6211 10 L6236 10 L6250 9 L6267 9 L6287 8 L6306 7 L6326 7 L6345 6 L6365 5 L6385 5 L6403 4 L6422 4 L6443 3 L6463 2 L6480 2 L6500 1" />
</svg>
