<svg xmlns="http://www.w3.org/2000/svg" version="1.1" viewBox="0 0 6500 1000">
	<path fill="none" stroke="gold" stroke-width="125" stroke-linecap="round" stroke-linejoin="round" d="M0 3919  L-723942 3919 L-721338 3919 L-719670 3919 L-701340 3918 L-701170 3918 L-694012 3918 L-693979 3918 L-680548 3917 L-677627 3918 L-664286 3917 L-660117 3916 L-658957 3915 L-658338 3914 L-656326 3914 L-652554 3914 L-651954 3913 L-651625 3913 L-651412 3912 L-650870 3912 L-649632 3911 L-648453 3909 L-645589 3908 L-645067 3906 L-640211 3906 L-637274 3906 L-637231 3905 L-636923 3905 L-636671 3904 L-634076 3904 L-629820 3904 L-629803 3904 L-628566 3904 L-626688 3904 L-624735 3904 L-623787 3903 L-623516 3903 L-623206 3903 L-623108 3903 L-622278 3903 L-620247 3903 L-619956 3901 L-617810 3900 L-617655 3899 L-613998 3898 L-613747 3899 L-613649 3899 L-613132 3899 L-610980 3900 L-610052 3901 L-608526 3902 L-607286 3902 L-605740 3902 L-602778 3901 L-601656 3901 L-601347 3901 L-600135 3900 L-597129 3902 L-597109 3902 L-596762 3902 L-596549 3902 L-596422 3899 L-596181 3899 L-596143 3899 L-596123 3898 L-596104 3898 L-596045 3898 L-595986 3897 L-595968 3897 L-595525 3896 L-594286 3896 L-592740 3896 L-589353 3895 L-583626 3895 L-583425 3895 L-581789 3895 L-580067 3895 L-578635 3894 L-578402 3894 L-577687 3894 L-571555 3894 L-571187 3894 L-571033 3893 L-570454 3893 L-570162 3893 L-569195 3892 L-568885 3892 L-568286 3891 L-566680 3891 L-565945 3891 L-565635 3892 L-564867 3892 L-562830 3891 L-562405 3891 L-561593 3891 L-554164 3890 L-553641 3890 L-553467 3890 L-552732 3889 L-551165 3889 L-550759 3889 L-548534 3888 L-547586 3888 L-547161 3888 L-546831 3888 L-545787 3888 L-543679 3887 L-543427 3887 L-542808 3887 L-541995 3887 L-539887 3886 L-539839 3886 L-537911 3885 L-537585 3885 L-537450 3885 L-536947 3885 L-535534 3884 L-535031 3883 L-534509 3883 L-530950 3882 L-530215 3881 L-527790 3881 L-526500 3881 L-526093 3881 L-522941 3881 L-522786 3881 L-522766 3881 L-522399 3881 L-521141 3881 L-520426 3881 L-519536 3881 L-519129 3881 L-518200 3881 L-517092 3881 L-516789 3882 L-510540 3882 L-509592 3883 L-507966 3883 L-507464 3883 L-503789 3883 L-502956 3884 L-499003 3884 L-497591 3883 L-495102 3883 L-494426 3883 L-494387 3882 L-493516 3882 L-490305 3882 L-487442 3882 L-486474 3882 L-485352 3881 L-485333 3881 L-483708 3881 L-483244 3880 L-483152 3880 L-476783 3880 L-475835 3880 L-473378 3879 L-472505 3879 L-471269 3879 L-469268 3879 L-468870 3878 L-467434 3878 L-465408 3878 L-465195 3877 L-464015 3877 L-462506 3877 L-462486 3877 L-460474 3877 L-459604 3876 L-458733 3876 L-458149 3876 L-457611 3875 L-456954 3875 L-455715 3875 L-455155 3875 L-453974 3874 L-452736 3874 L-452698 3874 L-452311 3874 L-451769 3873 L-450995 3873 L-449873 3873 L-447784 3873 L-447451 3872 L-447165 3872 L-446236 3872 L-445753 3871 L-445018 3871 L-441386 3871 L-440259 3871 L-440104 3871 L-439078 3870 L-435363 3870 L-434146 3870 L-432328 3869 L-429542 3869 L-428980 3869 L-425092 3869 L-422616 3869 L-421281 3869 L-420778 3869 L-420294 3868 L-417605 3868 L-413834 3868 L-411376 3868 L-410197 3868 L-409557 3868 L-407198 3868 L-407120 3868 L-406073 3867 L-405979 3867 L-405476 3867 L-405031 3867 L-404973 3867 L-404760 3867 L-401800 3867 L-399092 3867 L-398938 3866 L-395417 3866 L-394894 3866 L-393927 3865 L-393578 3865 L-392534 3865 L-391605 3865 L-391180 3864 L-389671 3864 L-388704 3864 L-388685 3864 L-386789 3851 L-386673 3837 L-386625 3824 L-386601 3810 L-383596 3810 L-381566 3810 L-379805 3810 L-379438 3809 L-378992 3809 L-378625 3809 L-378211 3809 L-376226 3808 L-376013 3808 L-375858 3808 L-374253 3808 L-373131 3808 L-372183 3808 L-370926 3807 L-369281 3807 L-368101 3807 L-361512 3807 L-361465 3807 L-361060 3806 L-360014 3806 L-359879 3806 L-358197 3806 L-358177 3805 L-356840 3805 L-355604 3805 L-355449 3805 L-355075 3804 L-354869 3804 L-354560 3804 L-353786 3804 L-351464 3803 L-350807 3803 L-348679 3803 L-346956 3803 L-346763 3803 L-344210 3802 L-343933 3802 L-343745 3802 L-342913 3801 L-342140 3801 L-341442 3801 L-336442 3801 L-336066 3801 L-331813 3801 L-331326 3819 L-331306 3819 L-331227 3818 L-331152 3818 L-331132 3800 L-330319 3799 L-329566 3799 L-328347 3799 L-326915 3799 L-326818 3799 L-326644 3799 L-326290 3798 L-324980 3798 L-323123 3798 L-321421 3798 L-320918 3797 L-320653 3797 L-320259 3797 L-320125 3797 L-319215 3797 L-318839 3797 L-317911 3797 L-317571 3796 L-317532 3796 L-317494 3796 L-315579 3796 L-315405 3796 L-313876 3796 L-313548 3796 L-313432 3796 L-313025 3795 L-312677 3795 L-311033 3795 L-310482 3795 L-310239 3794 L-309698 3794 L-308866 3794 L-308325 3794 L-306790 3793 L-306698 3793 L-306661 3793 L-306525 3793 L-306138 3793 L-305113 3792 L-303236 3792 L-303140 3792 L-302540 3798 L-302173 3804 L-301688 3810 L-301650 3817 L-300876 3817 L-300819 3817 L-300644 3816 L-300451 3816 L-298845 3816 L-298825 3816 L-298670 3816 L-298555 3816 L-297375 3816 L-297220 3817 L-296554 3817 L-294105 3832 L-291591 3847 L-288921 3862 L-281221 3876 L-275554 3876 L-273339 3876 L-273316 3876 L-272342 3880 L-272322 3880 L-271458 3879 L-268718 3879 L-262920 3875 L-262766 3875 L-259980 3875 L-246372 3875 L-245626 3874 L-241215 3874 L-224869 3874 L-224637 3873 L-224100 3873 L-215641 3873 L-206935 3873 L-206723 3873 L-204750 3873 L-201964 3873 L-197476 3873 L-197322 3873 L-197153 3873 L-197012 3872 L-196721 3872 L-196683 3872 L-196412 3872 L-196240 3871 L-195830 3871 L-194710 3871 L-193529 3871 L-192253 3871 L-189389 3871 L-186468 3870 L-184476 3870 L-182929 3870 L-179891 3870 L-170566 3869 L-170042 3869 L-164319 3869 L-162812 3869 L-161997 3869 L-160313 3869 L-159592 3869 L-159424 3868 L-158379 3868 L-156311 3868 L-154949 3868 L-150506 3868 L-150409 3867 L-150370 3867 L-150351 3867 L-149519 3867 L-149441 3867 L-146869 3866 L-143619 3866 L-143464 3866 L-142516 3866 L-140775 3865 L-140060 3867 L-136519 3867 L-129942 3869 L-128524 3870 L-128504 3870 L-127553 3870 L-124079 3869 L-123325 3869 L-122764 3869 L-121982 3869 L-114478 3869 L-112879 3868 L-111305 3868 L-108120 3868 L-103787 3868 L-95217 3868 L-86471 3868 L-83397 3867 L-80131 3867 L-79584 3867 L-72447 3867 L-66779 3867 L-52715 3867 L-46704 3867 L-41997 3867 L-37994 3866 L-32887 3866 L-23173 3866 L-7602 3866 L-4519 3865 L-4217 3784 L-4197 3683 L-4179 3569 L-4159 3441 L-4139 3383 L-4120 3334 L-4101 3289 L-4074 3245 L-4053 3201 L-4025 3156 L-3990 3105 L-3976 3063 L-3963 3026 L-3945 2995 L-3926 2973 L-3906 2950 L-3888 2927 L-3868 2904 L-3848 2881 L-3827 2856 L-3810 2833 L-3792 2810 L-3771 2787 L-3751 2765 L-3733 2741 L-3714 2716 L-3694 2690 L-3674 2665 L-3656 2641 L-3637 2618 L-3616 2596 L-3591 2573 L-3576 2552 L-3559 2531 L-3540 2510 L-3520 2490 L-3501 2467 L-3482 2445 L-3462 2423 L-3442 2402 L-3424 2383 L-3405 2364 L-3384 2346 L-3364 2330 L-3347 2315 L-3328 2301 L-3308 2287 L-3289 2274 L-3269 2262 L-3250 2250 L-3230 2240 L-3211 2231 L-3191 2221 L-3173 2211 L-3145 2199 L-3124 2186 L-3097 2172 L-3063 2157 L-3048 2144 L-3035 2132 L-3017 2122 L-2998 2113 L-2978 2104 L-2959 2093 L-2940 2083 L-2920 2072 L-2899 2062 L-2882 2053 L-2863 2043 L-2843 2033 L-2823 2022 L-2805 2009 L-2786 1995 L-2766 1982 L-2746 1967 L-2727 1953 L-2709 1938 L-2687 1921 L-2663 1904 L-2648 1886 L-2631 1869 L-2611 1853 L-2592 1837 L-2572 1819 L-2554 1801 L-2534 1784 L-2513 1767 L-2495 1750 L-2476 1734 L-2456 1719 L-2436 1703 L-2418 1689 L-2399 1675 L-2379 1662 L-2360 1650 L-2340 1638 L-2322 1626 L-2302 1614 L-2282 1602 L-2263 1590 L-2244 1578 L-2215 1566 L-2196 1555 L-2168 1543 L-2131 1530 L-2116 1517 L-2103 1504 L-2086 1493 L-2069 1485 L-2049 1477 L-2031 1470 L-2012 1463 L-1991 1457 L-1971 1450 L-1954 1442 L-1935 1434 L-1914 1425 L-1895 1417 L-1876 1408 L-1857 1398 L-1837 1388 L-1818 1377 L-1799 1366 L-1780 1355 L-1759 1345 L-1735 1334 L-1720 1324 L-1703 1313 L-1683 1302 L-1664 1292 L-1644 1280 L-1625 1269 L-1605 1257 L-1585 1246 L-1567 1235 L-1548 1225 L-1528 1215 L-1507 1206 L-1489 1197 L-1470 1188 L-1450 1179 L-1432 1170 L-1412 1160 L-1393 1152 L-1373 1143 L-1354 1135 L-1334 1127 L-1316 1118 L-1287 1110 L-1267 1101 L-1239 1091 L-1203 1078 L-1189 1065 L-1176 1053 L-1158 1043 L-1140 1036 L-1120 1030 L-1102 1021 L-1082 1012 L-1063 1003 L-1041 993 L-1023 982 L-1006 971 L-985 959 L-965 947 L-947 934 L-928 920 L-908 906 L-888 893 L-870 881 L-851 871 L-830 863 L-805 857 L-790 850 L-773 844 L-754 837 L-734 830 L-715 822 L-696 815 L-676 809 L-655 803 L-638 798 L-619 792 L-599 784 L-578 775 L-561 766 L-542 759 L-522 754 L-503 750 L-483 746 L-464 741 L-445 737 L-425 732 L-406 727 L-387 722 L-359 717 L-339 713 L-311 708 L-276 702 L-262 697 L-249 693 L-230 689 L-212 685 L-192 682 L-173 678 L-154 674 L-134 671 L-113 668 L-96 664 L-77 661 L-57 656 L-37 652 L-19 648 L0 644 L19 641 L39 637 L57 634 L76 630 L98 627 L122 624 L137 620 L154 618 L174 614 L193 611 L212 607 L231 603 L251 599 L272 595 L290 592 L308 589 L329 585 L349 582 L367 579 L386 575 L406 573 L425 569 L444 567 L463 564 L483 562 L502 560 L522 558 L540 561 L569 565 L589 569 L617 572 L654 569 L669 566 L682 564 L700 562 L716 560 L736 558 L754 556 L774 554 L794 552 L815 550 L832 548 L850 546 L871 544 L891 542 L909 540 L928 538 L948 536 L968 534 L986 532 L1005 530 L1026 528 L1051 526 L1065 524 L1083 522 L1102 520 L1122 518 L1141 516 L1160 514 L1180 511 L1201 508 L1218 505 L1237 502 L1258 499 L1278 497 L1296 495 L1314 492 L1334 489 L1353 487 L1373 484 L1392 482 L1412 479 L1431 476 L1450 474 L1469 472 L1497 470 L1517 468 L1545 465 L1580 462 L1594 460 L1607 457 L1626 455 L1644 453 L1664 451 L1683 449 L1702 447 L1722 444 L1743 442 L1760 440 L1779 438 L1799 435 L1819 433 L1838 429 L1856 426 L1876 422 L1896 419 L1915 416 L1933 413 L1955 410 L1980 406 L1994 403 L2011 400 L2031 397 L2050 394 L2069 390 L2088 387 L2108 384 L2129 381 L2147 378 L2166 375 L2186 372 L2207 370 L2224 368 L2243 365 L2263 363 L2282 361 L2301 359 L2320 358 L2340 356 L2360 354 L2379 353 L2398 351 L2425 350 L2446 348 L2474 346 L2509 343 L2523 340 L2536 336 L2555 333 L2573 331 L2593 330 L2611 327 L2631 326 L2651 324 L2672 321 L2689 319 L2707 317 L2728 314 L2748 312 L2766 309 L2785 307 L2805 304 L2825 301 L2843 299 L2862 297 L2883 295 L2908 293 L2923 291 L2940 289 L2959 287 L2979 284 L2998 282 L3017 279 L3037 275 L3058 272 L3075 268 L3094 266 L3115 263 L3135 260 L3153 258 L3172 257 L3192 255 L3210 254 L3230 252 L3249 250 L3269 249 L3288 247 L3308 246 L3326 244 L3354 243 L3375 241 L3402 240 L3436 238 L3451 237 L3464 235 L3482 234 L3501 233 L3521 232 L3540 230 L3559 229 L3579 228 L3600 227 L3617 226 L3636 225 L3656 223 L3676 222 L3694 221 L3713 219 L3733 218 L3753 217 L3772 216 L3791 216 L3812 215 L3836 213 L3851 212 L3868 211 L3888 209 L3907 208 L3926 207 L3945 206 L3965 204 L3986 202 L4004 200 L4023 197 L4043 194 L4064 192 L4081 191 L4100 189 L4120 187 L4139 186 L4159 184 L4177 182 L4197 181 L4216 179 L4236 178 L4255 177 L4283 176 L4331 175 L4368 173 L4383 172 L4395 170 L4413 169 L4430 169 L4450 168 L4468 167 L4487 166 L4508 165 L4528 164 L4545 164 L4564 163 L4585 162 L4604 161 L4623 160 L4642 159 L4662 158 L4681 157 L4700 155 L4719 154 L4740 152 L4765 150 L4779 148 L4796 146 L4816 144 L4835 142 L4855 140 L4874 139 L4894 137 L4915 135 L4932 133 L4951 132 L4972 130 L4992 129 L5010 128 L5029 126 L5049 125 L5067 124 L5087 123 L5106 121 L5126 120 L5145 119 L5165 117 L5183 116 L5212 115 L5232 113 L5260 111 L5296 108 L5311 106 L5324 103 L5341 101 L5359 99 L5379 98 L5397 97 L5417 96 L5437 95 L5458 94 L5474 93 L5493 91 L5514 89 L5534 87 L5552 85 L5571 82 L5591 79 L5611 77 L5629 75 L5648 73 L5669 71 L5694 69 L5709 67 L5727 66 L5745 64 L5765 63 L5784 61 L5803 59 L5823 57 L5844 55 L5861 53 L5880 51 L5900 50 L5922 48 L5938 47 L5957 45 L5977 44 L5996 42 L6016 41 L6035 40 L6054 38 L6074 37 L6093 36 L6112 34 L6140 997 L6160 995 L6188 993 L6224 991 L6238 26 L6252 24 L6269 22 L6287 22 L6307 21 L6325 20 L6345 19 L6365 17 L6386 15 L6403 13 L6421 11 L6442 9 L6462 7 L6480 4 L6500 1" />
</svg>
