<svg xmlns="http://www.w3.org/2000/svg" version="1.1" viewBox="0 0 6500 1000">
	<path fill="none" stroke="gold" stroke-width="125" stroke-linecap="round" stroke-linejoin="round" d="M0 4630  L-723014 4630 L-720410 4630 L-718741 4629 L-700412 4629 L-700242 4629 L-693084 4628 L-693051 4628 L-679620 4628 L-676698 4628 L-663357 4627 L-659188 4627 L-658028 4626 L-657409 4624 L-655397 4624 L-651625 4623 L-651025 4623 L-650697 4622 L-650484 4622 L-649942 4622 L-648704 4620 L-647525 4618 L-644661 4616 L-644138 4615 L-639283 4614 L-636346 4614 L-636303 4613 L-635994 4613 L-635742 4612 L-633147 4612 L-628892 4612 L-628874 4612 L-627637 4612 L-625760 4612 L-623806 4612 L-622858 4611 L-622588 4611 L-622278 4610 L-622180 4610 L-621349 4610 L-619318 4610 L-619028 4608 L-616882 4608 L-616726 4606 L-613070 4605 L-612819 4606 L-612720 4605 L-612203 4606 L-610052 4607 L-609123 4608 L-607597 4609 L-606358 4609 L-604811 4609 L-601849 4609 L-600727 4608 L-600418 4608 L-599207 4608 L-596200 4610 L-596181 4610 L-595833 4610 L-595620 4609 L-595494 4606 L-595252 4606 L-595215 4605 L-595195 4605 L-595176 4605 L-595117 4604 L-595058 4604 L-595040 4603 L-594597 4603 L-593358 4602 L-591812 4602 L-588424 4601 L-582698 4601 L-582496 4601 L-580860 4601 L-579138 4601 L-577706 4600 L-577474 4600 L-576759 4600 L-570627 4600 L-570259 4599 L-570104 4599 L-569526 4598 L-569233 4598 L-568266 4598 L-567957 4597 L-567358 4597 L-565751 4597 L-565016 4597 L-564706 4597 L-563938 4597 L-561902 4596 L-561477 4596 L-560664 4596 L-553235 4595 L-552712 4595 L-552539 4594 L-551804 4594 L-550236 4594 L-549831 4593 L-547606 4593 L-546658 4593 L-546233 4592 L-545902 4592 L-544859 4592 L-542750 4592 L-542498 4591 L-541879 4591 L-541067 4591 L-538959 4590 L-538910 4590 L-536982 4589 L-536656 4589 L-536521 4589 L-536018 4588 L-534605 4588 L-534102 4587 L-533581 4586 L-530021 4585 L-529286 4585 L-526861 4585 L-525572 4584 L-525165 4584 L-522012 4584 L-521858 4584 L-521837 4584 L-521471 4584 L-520212 4584 L-519497 4585 L-518607 4585 L-518201 4585 L-517272 4585 L-516163 4584 L-515860 4585 L-509611 4586 L-508664 4586 L-507038 4587 L-506536 4587 L-502860 4587 L-502028 4587 L-498075 4587 L-496663 4587 L-494174 4586 L-493497 4586 L-493459 4586 L-492588 4586 L-489377 4585 L-486513 4585 L-485545 4585 L-484424 4585 L-484405 4584 L-482780 4584 L-482316 4583 L-482224 4583 L-475855 4583 L-474906 4582 L-472449 4582 L-471577 4582 L-470341 4582 L-468339 4581 L-467942 4581 L-466506 4580 L-464479 4580 L-464266 4580 L-463086 4580 L-461578 4579 L-461558 4579 L-459545 4579 L-458676 4578 L-457805 4578 L-457220 4578 L-456683 4577 L-456025 4577 L-454787 4577 L-454226 4576 L-453045 4576 L-451808 4576 L-451769 4576 L-451382 4575 L-450841 4575 L-450067 4575 L-448945 4575 L-446855 4574 L-446522 4574 L-446236 4573 L-445308 4573 L-444825 4573 L-444089 4572 L-440458 4572 L-439330 4572 L-439176 4572 L-438150 4571 L-434435 4571 L-433218 4571 L-431399 4570 L-428613 4570 L-428052 4570 L-424164 4570 L-421687 4569 L-420353 4569 L-419849 4569 L-419366 4569 L-416677 4569 L-412905 4569 L-410448 4569 L-409268 4569 L-408629 4569 L-406269 4568 L-406192 4568 L-405144 4568 L-405051 4567 L-404548 4567 L-404102 4567 L-404045 4567 L-403831 4567 L-400872 4567 L-398164 4567 L-398009 4566 L-394488 4566 L-393965 4566 L-392998 4565 L-392649 4565 L-391606 4565 L-390677 4564 L-390251 4564 L-388742 4564 L-387775 4564 L-387756 4564 L-385860 4548 L-385744 4531 L-385696 4515 L-385672 4499 L-382668 4499 L-380637 4498 L-378876 4498 L-378509 4498 L-378064 4497 L-377697 4497 L-377283 4497 L-375298 4496 L-375085 4496 L-374930 4496 L-373325 4496 L-372203 4496 L-371254 4496 L-369997 4495 L-368353 4495 L-367173 4495 L-360583 4494 L-360537 4494 L-360131 4494 L-359086 4494 L-358951 4494 L-357268 4493 L-357248 4493 L-355911 4493 L-354675 4492 L-354521 4492 L-354147 4492 L-353941 4491 L-353631 4491 L-352857 4491 L-350536 4491 L-349878 4490 L-347750 4490 L-346028 4490 L-345834 4489 L-343281 4489 L-343005 4489 L-342817 4488 L-341984 4488 L-341212 4488 L-340514 4488 L-335513 4488 L-335137 4487 L-330884 4487 L-330397 4509 L-330378 4509 L-330299 4508 L-330224 4508 L-330204 4486 L-329391 4486 L-328637 4485 L-327418 4485 L-325986 4485 L-325890 4485 L-325716 4485 L-325361 4484 L-324052 4484 L-322195 4484 L-320492 4484 L-319989 4483 L-319724 4483 L-319331 4483 L-319197 4483 L-318287 4482 L-317911 4482 L-316982 4482 L-316643 4482 L-316603 4482 L-316566 4482 L-314650 4482 L-314477 4482 L-312948 4482 L-312620 4481 L-312503 4481 L-312096 4481 L-311748 4480 L-310104 4480 L-309554 4480 L-309310 4480 L-308769 4479 L-307938 4479 L-307396 4479 L-305862 4478 L-305769 4478 L-305732 4478 L-305596 4478 L-305209 4477 L-304184 4477 L-302308 4477 L-302212 4477 L-301611 4484 L-301244 4491 L-300760 4499 L-300722 4506 L-299948 4507 L-299890 4507 L-299716 4506 L-299522 4506 L-297917 4505 L-297897 4505 L-297742 4506 L-297626 4506 L-296447 4506 L-296292 4507 L-295625 4507 L-293177 4525 L-290662 4543 L-287992 4561 L-280293 4578 L-274625 4578 L-272411 4578 L-272387 4578 L-271414 4583 L-271394 4583 L-270530 4582 L-267790 4582 L-261991 4577 L-261838 4577 L-259052 4577 L-245444 4576 L-244698 4576 L-240287 4576 L-223941 4575 L-223709 4575 L-223172 4575 L-214712 4575 L-206006 4574 L-205794 4574 L-203822 4574 L-201035 4574 L-196548 4574 L-196393 4574 L-196224 4574 L-196084 4574 L-195793 4573 L-195754 4573 L-195483 4573 L-195312 4573 L-194902 4572 L-193781 4572 L-192601 4572 L-191324 4572 L-188460 4571 L-185540 4571 L-183548 4571 L-182000 4571 L-178962 4570 L-169638 4570 L-169114 4570 L-163390 4570 L-161883 4570 L-161068 4570 L-159385 4569 L-158664 4569 L-158495 4569 L-157450 4569 L-155383 4568 L-154021 4568 L-149578 4568 L-149480 4568 L-149442 4568 L-149423 4567 L-148590 4567 L-148513 4567 L-145940 4566 L-142691 4566 L-142536 4566 L-141588 4566 L-139847 4565 L-139131 4567 L-135590 4568 L-129013 4569 L-127596 4571 L-127575 4571 L-126625 4570 L-123150 4570 L-122397 4570 L-121835 4570 L-121053 4569 L-113549 4569 L-111951 4569 L-110377 4569 L-107191 4568 L-102858 4568 L-94289 4568 L-85542 4568 L-82468 4568 L-79202 4567 L-78656 4567 L-71519 4567 L-65851 4567 L-51787 4567 L-45775 4567 L-41069 4567 L-37066 4566 L-31958 4566 L-22244 4566 L-6674 4566 L-3591 4565 L-3289 4467 L-3269 4346 L-3250 4208 L-3230 4054 L-3211 3984 L-3192 3924 L-3173 3870 L-3145 3816 L-3124 3764 L-3097 3709 L-3061 3648 L-3048 3597 L-3035 3553 L-3016 3516 L-2998 3489 L-2978 3461 L-2959 3433 L-2940 3405 L-2920 3377 L-2899 3348 L-2882 3320 L-2863 3292 L-2843 3265 L-2823 3238 L-2805 3209 L-2786 3179 L-2766 3147 L-2746 3117 L-2727 3088 L-2709 3060 L-2687 3034 L-2663 3006 L-2648 2981 L-2631 2956 L-2611 2931 L-2592 2906 L-2573 2879 L-2554 2851 L-2534 2825 L-2513 2801 L-2495 2777 L-2476 2754 L-2456 2733 L-2435 2713 L-2418 2696 L-2399 2679 L-2379 2662 L-2360 2646 L-2341 2631 L-2322 2617 L-2302 2605 L-2282 2593 L-2263 2581 L-2244 2570 L-2217 2555 L-2196 2540 L-2168 2523 L-2134 2504 L-2120 2488 L-2107 2475 L-2088 2462 L-2069 2452 L-2049 2441 L-2031 2428 L-2012 2415 L-1992 2402 L-1971 2390 L-1954 2379 L-1935 2367 L-1915 2355 L-1895 2342 L-1876 2326 L-1858 2310 L-1837 2293 L-1818 2275 L-1799 2258 L-1780 2240 L-1759 2220 L-1735 2199 L-1720 2178 L-1703 2158 L-1683 2138 L-1664 2118 L-1644 2097 L-1625 2075 L-1605 2054 L-1585 2034 L-1567 2014 L-1548 1994 L-1528 1976 L-1507 1957 L-1490 1940 L-1470 1924 L-1450 1907 L-1432 1893 L-1412 1878 L-1393 1864 L-1373 1850 L-1354 1835 L-1335 1820 L-1316 1806 L-1287 1791 L-1267 1778 L-1239 1764 L-1202 1748 L-1187 1732 L-1175 1717 L-1158 1704 L-1141 1694 L-1121 1685 L-1102 1676 L-1083 1668 L-1063 1660 L-1042 1651 L-1025 1642 L-1006 1632 L-986 1622 L-966 1612 L-948 1601 L-929 1589 L-909 1577 L-889 1564 L-870 1550 L-852 1538 L-830 1525 L-806 1512 L-791 1499 L-774 1487 L-754 1473 L-735 1461 L-716 1447 L-697 1433 L-677 1419 L-656 1406 L-638 1392 L-619 1380 L-599 1368 L-579 1357 L-561 1347 L-542 1335 L-522 1324 L-503 1313 L-483 1302 L-465 1292 L-445 1282 L-425 1272 L-406 1262 L-387 1251 L-359 1241 L-339 1231 L-311 1219 L-275 1203 L-261 1187 L-247 1173 L-230 1161 L-212 1153 L-192 1145 L-174 1134 L-154 1124 L-134 1112 L-113 1100 L-94 1087 L-77 1074 L-57 1060 L-37 1045 L-19 1029 L0 1012 L19 996 L39 980 L57 966 L76 954 L97 944 L122 936 L137 928 L155 921 L173 912 L193 904 L212 895 L231 886 L251 878 L272 872 L289 865 L309 858 L329 848 L350 837 L367 827 L386 818 L406 812 L425 807 L444 802 L463 797 L483 792 L503 785 L522 779 L540 774 L568 768 L589 763 L617 757 L651 750 L665 743 L678 738 L697 733 L716 729 L735 725 L754 720 L774 716 L793 712 L814 708 L831 704 L850 699 L871 694 L891 689 L909 684 L927 680 L947 676 L968 671 L986 667 L1005 663 L1026 659 L1051 655 L1065 651 L1083 648 L1102 644 L1121 640 L1141 635 L1160 630 L1180 625 L1201 621 L1218 617 L1237 613 L1257 608 L1278 605 L1295 601 L1314 597 L1334 593 L1353 590 L1373 586 L1392 583 L1412 581 L1431 578 L1450 575 L1469 580 L1498 584 L1517 589 L1545 593 L1583 589 L1598 586 L1611 583 L1628 580 L1644 578 L1664 576 L1683 573 L1702 571 L1722 568 L1743 566 L1760 564 L1779 562 L1799 559 L1819 557 L1837 554 L1856 552 L1876 549 L1896 546 L1914 544 L1933 542 L1955 540 L1979 538 L1994 535 L2011 533 L2031 530 L2050 527 L2069 525 L2088 522 L2108 519 L2129 515 L2147 512 L2166 508 L2186 505 L2207 502 L2224 499 L2243 496 L2263 493 L2282 490 L2301 487 L2320 484 L2340 480 L2360 477 L2379 475 L2398 473 L2425 470 L2446 467 L2474 464 L2509 460 L2522 457 L2535 454 L2554 452 L2573 449 L2593 447 L2611 444 L2631 442 L2650 439 L2672 436 L2689 433 L2707 431 L2728 428 L2748 424 L2766 421 L2785 417 L2805 412 L2825 408 L2843 404 L2862 401 L2883 397 L2908 393 L2923 389 L2940 385 L2959 381 L2979 378 L2998 374 L3017 370 L3037 366 L3058 362 L3075 359 L3094 355 L3115 352 L3135 349 L3152 346 L3171 343 L3191 341 L3210 339 L3230 336 L3249 334 L3269 332 L3288 330 L3307 328 L3326 327 L3354 324 L3374 322 L3402 320 L3438 316 L3452 312 L3465 309 L3483 305 L3501 302 L3521 300 L3540 298 L3559 295 L3579 293 L3600 290 L3617 288 L3636 285 L3656 282 L3676 279 L3694 275 L3713 272 L3733 269 L3754 266 L3771 263 L3790 261 L3812 259 L3837 256 L3851 254 L3868 251 L3888 248 L3907 246 L3927 242 L3945 239 L3965 235 L3987 230 L4004 226 L4023 223 L4043 220 L4064 217 L4081 214 L4100 212 L4120 211 L4139 209 L4159 207 L4177 205 L4197 203 L4217 201 L4236 199 L4255 197 L4282 195 L4303 194 L4331 192 L4365 190 L4379 188 L4392 187 L4411 185 L4430 184 L4449 182 L4468 181 L4487 179 L4507 178 L4528 177 L4545 175 L4564 174 L4584 172 L4604 170 L4623 169 L4642 167 L4662 166 L4682 165 L4700 164 L4719 163 L4740 162 L4765 160 L4779 159 L4797 157 L4816 155 L4835 154 L4855 153 L4874 151 L4894 149 L4914 147 L4932 144 L4951 141 L4971 137 L4992 135 L5010 133 L5029 131 L5049 128 L5067 127 L5087 124 L5106 122 L5126 121 L5145 119 L5165 117 L5183 116 L5212 115 L5260 113 L5296 112 L5311 110 L5324 108 L5341 107 L5358 106 L5378 106 L5397 105 L5416 103 L5436 102 L5457 101 L5474 100 L5493 99 L5513 98 L5533 97 L5551 96 L5570 94 L5590 93 L5610 92 L5629 90 L5647 88 L5669 86 L5693 83 L5708 81 L5725 79 L5745 76 L5764 74 L5784 72 L5802 70 L5822 68 L5843 66 L5861 64 L5880 62 L5900 60 L5920 58 L5938 57 L5957 55 L5977 54 L5996 52 L6016 51 L6034 49 L6054 48 L6074 46 L6093 44 L6112 43 L6140 41 L6160 39 L6188 37 L6225 34 L6240 30 L6252 27 L6270 24 L6287 23 L6307 21 L6326 20 L6345 18 L6365 17 L6386 16 L6403 14 L6421 12 L6442 10 L6463 8 L6480 5 L6500 2" />
</svg>
