<svg xmlns="http://www.w3.org/2000/svg" version="1.1" viewBox="0 0 6500 1000">
	<path fill="none" stroke="gold" stroke-width="125" stroke-linecap="round" stroke-linejoin="round" d="M0 3927  L-723923 3927 L-721319 3927 L-719651 3927 L-701321 3926 L-701151 3926 L-693993 3925 L-693960 3925 L-680529 3925 L-677607 3925 L-664267 3925 L-660098 3924 L-658938 3923 L-658318 3922 L-656307 3922 L-652535 3921 L-651935 3921 L-651606 3921 L-651393 3920 L-650851 3920 L-649613 3919 L-648434 3917 L-645570 3916 L-645048 3914 L-640192 3914 L-637255 3913 L-637212 3913 L-636904 3913 L-636652 3912 L-634057 3912 L-629801 3912 L-629783 3912 L-628547 3912 L-626669 3912 L-624716 3912 L-623768 3911 L-623497 3911 L-623187 3911 L-623089 3911 L-622259 3911 L-620228 3911 L-619937 3909 L-617791 3908 L-617636 3907 L-613979 3906 L-613728 3907 L-613630 3907 L-613112 3907 L-610961 3908 L-610032 3909 L-608506 3910 L-607267 3910 L-605720 3910 L-602759 3909 L-601637 3909 L-601328 3909 L-600116 3908 L-597110 3910 L-597090 3910 L-596743 3910 L-596530 3910 L-596403 3907 L-596162 3907 L-596124 3907 L-596104 3906 L-596085 3906 L-596026 3905 L-595967 3905 L-595949 3905 L-595506 3904 L-594267 3904 L-592721 3904 L-589333 3903 L-583607 3903 L-583406 3903 L-581770 3903 L-580048 3903 L-578616 3902 L-578383 3902 L-577668 3902 L-571536 3902 L-571168 3901 L-571014 3901 L-570435 3901 L-570143 3900 L-569175 3900 L-568866 3900 L-568267 3899 L-566661 3899 L-565926 3899 L-565616 3899 L-564847 3899 L-562811 3899 L-562386 3899 L-561573 3899 L-554145 3898 L-553622 3898 L-553448 3897 L-552713 3897 L-551146 3897 L-550740 3897 L-548515 3896 L-547567 3896 L-547142 3896 L-546812 3896 L-545768 3896 L-543660 3895 L-543408 3895 L-542789 3895 L-541976 3894 L-539868 3894 L-539820 3894 L-537891 3893 L-537566 3893 L-537431 3893 L-536928 3892 L-535515 3892 L-535012 3891 L-534490 3891 L-530930 3890 L-530195 3889 L-527771 3889 L-526481 3889 L-526074 3889 L-522922 3889 L-522767 3889 L-522747 3889 L-522380 3889 L-521122 3889 L-520407 3889 L-519517 3889 L-519110 3889 L-518181 3889 L-517073 3889 L-516769 3890 L-510521 3890 L-509573 3891 L-507947 3891 L-507445 3891 L-503770 3891 L-502937 3891 L-498984 3892 L-497572 3891 L-495083 3891 L-494407 3890 L-494368 3890 L-493497 3890 L-490286 3890 L-487423 3890 L-486455 3890 L-485333 3889 L-485314 3889 L-483689 3889 L-483225 3888 L-483133 3888 L-476764 3888 L-475816 3887 L-473358 3887 L-472486 3887 L-471250 3887 L-469249 3887 L-468851 3886 L-467415 3886 L-465389 3886 L-465176 3885 L-463995 3885 L-462487 3885 L-462467 3885 L-460455 3885 L-459585 3884 L-458714 3884 L-458129 3884 L-457592 3883 L-456935 3883 L-455696 3883 L-455136 3882 L-453955 3882 L-452717 3882 L-452679 3882 L-452292 3882 L-451750 3881 L-450976 3881 L-449854 3881 L-447765 3881 L-447431 3880 L-447146 3880 L-446217 3880 L-445734 3879 L-444999 3879 L-441367 3879 L-440240 3879 L-440085 3879 L-439059 3878 L-435344 3878 L-434127 3878 L-432308 3877 L-429523 3877 L-428961 3877 L-425073 3877 L-422597 3877 L-421262 3877 L-420758 3876 L-420275 3876 L-417586 3876 L-413814 3876 L-411357 3876 L-410177 3876 L-409538 3876 L-407179 3876 L-407101 3875 L-406054 3875 L-405960 3875 L-405457 3875 L-405012 3875 L-404954 3875 L-404741 3875 L-401781 3875 L-399073 3874 L-398919 3874 L-395398 3874 L-394875 3874 L-393908 3873 L-393558 3873 L-392515 3873 L-391586 3872 L-391161 3872 L-389652 3872 L-388685 3872 L-388666 3872 L-386770 3859 L-386654 3845 L-386606 3831 L-386581 3818 L-383577 3818 L-381547 3817 L-379786 3817 L-379419 3817 L-378973 3817 L-378606 3817 L-378192 3816 L-376207 3816 L-375994 3816 L-375839 3816 L-374234 3816 L-373112 3816 L-372164 3815 L-370907 3815 L-369262 3815 L-368082 3815 L-361493 3814 L-361446 3814 L-361041 3814 L-359995 3814 L-359860 3814 L-358177 3813 L-358158 3813 L-356821 3813 L-355585 3813 L-355430 3812 L-355056 3812 L-354850 3812 L-354541 3812 L-353767 3811 L-351445 3811 L-350788 3811 L-348660 3811 L-346937 3811 L-346744 3810 L-344190 3810 L-343914 3810 L-343726 3809 L-342893 3809 L-342121 3809 L-341423 3809 L-336422 3809 L-336046 3808 L-331794 3808 L-331307 3826 L-331287 3826 L-331208 3826 L-331133 3826 L-331113 3807 L-330300 3807 L-329547 3807 L-328327 3807 L-326896 3807 L-326799 3806 L-326625 3806 L-326270 3806 L-324961 3806 L-323104 3806 L-321402 3805 L-320899 3805 L-320633 3805 L-320240 3805 L-320106 3805 L-319196 3804 L-318820 3804 L-317891 3804 L-317552 3804 L-317513 3804 L-317475 3804 L-315559 3804 L-315386 3804 L-313857 3804 L-313529 3803 L-313413 3803 L-313006 3803 L-312657 3803 L-311014 3802 L-310463 3802 L-310220 3802 L-309678 3802 L-308847 3801 L-308305 3801 L-306771 3801 L-306679 3801 L-306642 3801 L-306506 3800 L-306119 3800 L-305094 3800 L-303217 3800 L-303121 3800 L-302521 3805 L-302154 3812 L-301669 3818 L-301631 3824 L-300857 3825 L-300800 3824 L-300625 3824 L-300432 3824 L-298826 3823 L-298806 3823 L-298651 3824 L-298536 3824 L-297356 3824 L-297201 3825 L-296534 3825 L-294086 3839 L-291571 3855 L-288902 3869 L-281202 3884 L-275535 3884 L-273320 3884 L-273297 3884 L-272323 3888 L-272303 3888 L-271439 3887 L-268699 3887 L-262901 3883 L-262747 3883 L-259961 3883 L-246353 3882 L-245607 3882 L-241196 3882 L-224850 3882 L-224618 3881 L-224081 3881 L-215621 3881 L-206916 3881 L-206703 3881 L-204731 3880 L-201945 3880 L-197457 3881 L-197302 3880 L-197133 3880 L-196993 3880 L-196702 3880 L-196664 3880 L-196393 3879 L-196221 3879 L-195811 3879 L-194691 3879 L-193510 3879 L-192233 3879 L-189370 3878 L-186449 3878 L-184457 3878 L-182910 3878 L-179872 3877 L-170547 3877 L-170023 3877 L-164299 3877 L-162792 3877 L-161978 3877 L-160294 3877 L-159573 3876 L-159405 3876 L-158360 3876 L-156292 3876 L-154930 3876 L-150487 3875 L-150390 3875 L-150351 3875 L-150332 3875 L-149500 3875 L-149422 3874 L-146849 3874 L-143600 3874 L-143445 3874 L-142497 3874 L-140756 3873 L-140041 3874 L-136500 3875 L-129922 3876 L-128505 3878 L-128484 3878 L-127534 3877 L-124060 3877 L-123306 3877 L-122745 3877 L-121963 3877 L-114458 3876 L-112860 3876 L-111286 3876 L-108101 3876 L-103768 3876 L-95198 3875 L-86452 3875 L-83378 3875 L-80112 3875 L-79565 3875 L-72428 3875 L-66760 3875 L-52696 3875 L-46685 3875 L-41978 3875 L-37975 3874 L-32868 3874 L-23154 3874 L-7583 3873 L-4500 3873 L-4198 3791 L-4178 3691 L-4160 3576 L-4140 3448 L-4120 3390 L-4101 3340 L-4082 3295 L-4055 3251 L-4034 3207 L-4006 3162 L-3971 3111 L-3957 3068 L-3944 3031 L-3925 3001 L-3907 2978 L-3887 2955 L-3869 2932 L-3849 2909 L-3829 2886 L-3808 2861 L-3791 2838 L-3773 2815 L-3752 2792 L-3732 2770 L-3714 2745 L-3695 2721 L-3675 2695 L-3655 2669 L-3637 2645 L-3618 2622 L-3597 2600 L-3572 2577 L-3557 2556 L-3540 2536 L-3521 2514 L-3501 2494 L-3482 2471 L-3463 2448 L-3443 2427 L-3422 2406 L-3405 2386 L-3386 2368 L-3365 2350 L-3345 2333 L-3327 2319 L-3308 2305 L-3288 2291 L-3270 2278 L-3250 2265 L-3231 2254 L-3211 2244 L-3192 2234 L-3172 2224 L-3154 2214 L-3126 2202 L-3105 2190 L-3078 2175 L-3044 2160 L-3029 2147 L-3016 2136 L-2998 2125 L-2979 2116 L-2959 2107 L-2940 2096 L-2921 2086 L-2901 2075 L-2880 2065 L-2863 2056 L-2844 2046 L-2824 2036 L-2804 2025 L-2785 2012 L-2767 1998 L-2747 1984 L-2727 1970 L-2708 1955 L-2689 1941 L-2668 1924 L-2644 1906 L-2629 1889 L-2612 1872 L-2592 1855 L-2573 1839 L-2553 1822 L-2535 1803 L-2515 1786 L-2494 1769 L-2476 1752 L-2457 1736 L-2437 1721 L-2417 1705 L-2399 1691 L-2380 1677 L-2360 1663 L-2341 1652 L-2321 1640 L-2303 1627 L-2283 1616 L-2263 1603 L-2244 1591 L-2225 1579 L-2196 1567 L-2177 1556 L-2149 1545 L-2112 1531 L-2096 1518 L-2084 1506 L-2067 1494 L-2050 1486 L-2030 1478 L-2012 1471 L-1992 1464 L-1972 1458 L-1952 1451 L-1934 1443 L-1916 1435 L-1895 1427 L-1875 1418 L-1857 1409 L-1838 1399 L-1818 1389 L-1799 1378 L-1780 1367 L-1761 1356 L-1740 1346 L-1715 1335 L-1701 1325 L-1684 1314 L-1664 1303 L-1645 1292 L-1625 1281 L-1606 1269 L-1586 1258 L-1566 1247 L-1547 1236 L-1529 1226 L-1508 1216 L-1488 1206 L-1470 1198 L-1451 1188 L-1431 1179 L-1413 1170 L-1393 1161 L-1374 1152 L-1354 1144 L-1335 1135 L-1315 1127 L-1296 1118 L-1268 1110 L-1248 1101 L-1220 1091 L-1184 1078 L-1170 1065 L-1157 1053 L-1139 1043 L-1121 1037 L-1101 1030 L-1083 1021 L-1063 1012 L-1043 1003 L-1022 993 L-1004 982 L-987 971 L-966 959 L-946 947 L-928 934 L-909 920 L-889 906 L-869 893 L-851 881 L-832 871 L-811 863 L-786 856 L-771 850 L-754 843 L-735 837 L-715 829 L-696 822 L-677 815 L-657 808 L-636 803 L-619 798 L-600 791 L-579 783 L-559 774 L-542 765 L-523 759 L-502 753 L-484 749 L-464 745 L-445 741 L-425 736 L-406 731 L-387 726 L-368 721 L-340 717 L-320 712 L-292 707 L-257 701 L-243 696 L-230 692 L-211 688 L-193 684 L-173 681 L-154 677 L-135 673 L-115 670 L-94 667 L-77 663 L-58 660 L-38 655 L-18 651 L0 647 L18 643 L38 640 L58 636 L77 633 L95 629 L117 626 L142 623 L156 619 L173 616 L193 613 L212 610 L231 606 L250 602 L270 598 L291 594 L309 591 L328 587 L348 584 L369 581 L386 578 L405 574 L425 571 L444 568 L464 565 L482 563 L502 561 L522 558 L541 556 L560 560 L588 564 L608 568 L636 571 L673 568 L689 565 L701 562 L719 560 L735 559 L755 557 L773 555 L793 552 L813 550 L834 549 L851 547 L869 545 L890 543 L910 541 L928 539 L947 537 L967 534 L987 532 L1005 530 L1024 528 L1045 527 L1070 525 L1084 523 L1102 521 L1121 519 L1141 516 L1160 515 L1179 512 L1199 510 L1220 507 L1237 504 L1256 501 L1277 498 L1297 496 L1315 493 L1334 490 L1353 488 L1372 486 L1392 483 L1411 480 L1431 477 L1450 475 L1470 473 L1488 471 L1516 469 L1537 466 L1564 464 L1599 461 L1613 458 L1626 456 L1645 454 L1664 452 L1684 450 L1702 447 L1721 445 L1741 443 L1762 441 L1779 438 L1798 436 L1818 434 L1838 431 L1857 428 L1875 424 L1895 421 L1916 417 L1934 414 L1952 411 L1974 408 L1999 405 L2013 402 L2031 398 L2050 395 L2070 392 L2089 389 L2108 385 L2128 382 L2148 379 L2166 376 L2185 374 L2205 371 L2226 368 L2243 366 L2262 364 L2282 362 L2301 360 L2321 358 L2339 356 L2359 354 L2379 353 L2398 351 L2417 350 L2444 348 L2465 346 L2493 344 L2528 341 L2542 338 L2555 335 L2574 332 L2592 330 L2612 328 L2630 326 L2650 324 L2670 322 L2691 320 L2708 317 L2726 315 L2747 312 L2767 310 L2785 307 L2804 305 L2824 302 L2844 299 L2862 297 L2881 295 L2903 293 L2927 291 L2942 289 L2959 287 L2978 285 L2998 282 L3017 280 L3036 277 L3056 273 L3077 270 L3094 266 L3113 264 L3134 261 L3155 258 L3172 256 L3191 255 L3211 253 L3230 252 L3249 250 L3268 248 L3288 247 L3308 245 L3327 244 L3345 242 L3373 241 L3394 239 L3421 238 L3456 236 L3470 235 L3483 233 L3502 232 L3520 231 L3540 230 L3559 228 L3578 227 L3598 226 L3619 225 L3636 224 L3655 223 L3675 221 L3695 220 L3713 218 L3732 217 L3752 216 L3772 215 L3791 214 L3810 214 L3831 213 L3855 211 L3870 210 L3887 209 L3907 207 L3926 206 L3946 205 L3964 204 L3984 202 L4005 200 L4023 198 L4042 195 L4062 192 L4083 190 L4100 188 L4119 187 L4139 185 L4158 183 L4178 182 L4197 180 L4216 178 L4236 177 L4255 176 L4274 175 L4303 173 L4350 172 L4387 171 L4402 169 L4415 168 L4432 167 L4449 167 L4469 166 L4487 165 L4507 164 L4527 163 L4547 162 L4565 161 L4583 161 L4604 160 L4623 159 L4642 158 L4661 157 L4681 155 L4701 154 L4719 153 L4738 151 L4759 150 L4784 147 L4798 145 L4816 143 L4835 142 L4854 140 L4874 138 L4893 137 L4913 135 L4934 133 L4952 131 L4970 129 L4991 128 L5011 126 L5029 125 L5048 124 L5068 123 L5087 122 L5106 120 L5125 119 L5145 118 L5164 116 L5184 115 L5203 113 L5231 112 L5251 111 L5279 109 L5316 106 L5330 103 L5343 101 L5360 98 L5378 97 L5398 95 L5416 94 L5436 93 L5456 93 L5477 91 L5494 90 L5512 88 L5533 87 L5553 85 L5571 82 L5590 80 L5610 77 L5631 75 L5648 72 L5667 70 L5688 69 L5713 67 L5728 65 L5746 63 L5764 61 L5784 60 L5803 58 L5822 56 L5842 54 L5863 52 L5880 50 L5899 49 L5920 47 L5941 45 L5957 44 L5976 43 L5996 41 L6015 40 L6035 38 L6054 37 L6074 36 L6094 34 L6112 33 L6131 32 L6159 997 L6179 995 L6207 993 L6243 991 L6257 23 L6271 21 L6288 20 L6306 19 L6326 18 L6345 17 L6364 16 L6384 14 L6405 12 L6422 10 L6441 8 L6461 6 L6482 4 L6500 1" />
</svg>
