<svg xmlns="http://www.w3.org/2000/svg" version="1.1" viewBox="0 0 6500 1000">
	<path fill="none" stroke="gold" stroke-width="125" stroke-linecap="round" stroke-linejoin="round" d="M0 3152  L-729997 3152 L-727393 3152 L-725725 3152 L-707395 3152 L-707225 3151 L-700067 3151 L-700034 3151 L-686603 3151 L-683682 3151 L-670341 3151 L-666172 3150 L-665012 3150 L-664392 3149 L-662381 3148 L-658609 3148 L-658009 3148 L-657680 3148 L-657467 3147 L-656925 3147 L-655687 3146 L-654508 3145 L-651644 3144 L-651122 3143 L-646266 3143 L-643329 3142 L-643286 3142 L-642978 3142 L-642726 3142 L-640131 3141 L-635875 3141 L-635857 3141 L-634621 3141 L-632743 3141 L-630790 3141 L-629842 3141 L-629571 3140 L-629261 3140 L-629163 3140 L-628333 3140 L-626302 3140 L-626011 3139 L-623865 3139 L-623710 3138 L-620053 3137 L-619802 3137 L-619704 3137 L-619187 3138 L-617035 3138 L-616107 3139 L-614580 3140 L-613341 3140 L-611795 3140 L-608833 3139 L-607711 3139 L-607402 3139 L-606190 3139 L-603184 3140 L-603164 3140 L-602817 3140 L-602604 3140 L-602477 3138 L-602236 3138 L-602198 3137 L-602178 3137 L-602159 3137 L-602100 3136 L-602041 3136 L-602023 3136 L-601580 3136 L-600341 3135 L-598795 3135 L-595407 3135 L-589681 3135 L-589480 3135 L-587844 3134 L-586122 3134 L-584690 3134 L-584457 3134 L-583742 3134 L-577610 3134 L-577242 3133 L-577088 3133 L-576509 3133 L-576217 3133 L-575250 3132 L-574940 3132 L-574341 3132 L-572735 3132 L-572000 3132 L-571690 3132 L-570921 3132 L-568885 3132 L-568460 3131 L-567647 3131 L-560219 3131 L-559696 3131 L-559522 3131 L-558787 3130 L-557220 3130 L-556814 3130 L-554589 3130 L-553641 3129 L-553216 3129 L-552886 3129 L-551842 3129 L-549734 3129 L-549482 3129 L-548863 3128 L-548050 3128 L-545942 3128 L-545894 3128 L-543965 3127 L-543640 3127 L-543505 3127 L-543002 3127 L-541589 3127 L-541086 3126 L-540564 3126 L-537005 3125 L-536269 3125 L-533845 3125 L-532555 3124 L-532148 3124 L-528996 3124 L-528841 3124 L-528821 3124 L-528454 3124 L-527196 3124 L-526481 3125 L-525591 3125 L-525184 3125 L-524255 3125 L-523147 3124 L-522844 3125 L-516595 3125 L-515647 3125 L-514021 3126 L-513519 3126 L-509844 3126 L-509011 3126 L-505058 3126 L-503646 3126 L-501157 3126 L-500481 3125 L-500442 3125 L-499571 3125 L-496360 3125 L-493497 3125 L-492529 3125 L-491407 3125 L-491388 3124 L-489763 3124 L-489299 3124 L-489207 3123 L-482838 3123 L-481890 3123 L-479433 3123 L-478560 3123 L-477324 3123 L-475323 3123 L-474925 3122 L-473489 3122 L-471463 3122 L-471250 3122 L-470070 3121 L-468561 3121 L-468541 3121 L-466529 3121 L-465659 3121 L-464788 3121 L-464204 3120 L-463666 3120 L-463009 3120 L-461770 3120 L-461210 3119 L-460029 3119 L-458791 3119 L-458753 3119 L-458366 3119 L-457824 3119 L-457050 3119 L-455928 3118 L-453839 3118 L-453506 3118 L-453220 3118 L-452291 3117 L-451808 3117 L-451073 3117 L-447441 3117 L-446314 3117 L-446159 3117 L-445133 3116 L-441418 3116 L-440201 3116 L-438382 3116 L-435597 3116 L-435035 3115 L-431147 3115 L-428671 3115 L-427336 3115 L-426833 3115 L-426349 3115 L-423660 3115 L-419888 3115 L-417431 3115 L-416251 3115 L-415612 3115 L-413253 3115 L-413175 3114 L-412128 3114 L-412034 3114 L-411531 3114 L-411086 3114 L-411028 3114 L-410815 3114 L-407855 3114 L-405147 3114 L-404993 3113 L-401472 3113 L-400949 3113 L-399982 3113 L-399633 3113 L-398589 3112 L-397660 3112 L-397235 3112 L-395726 3112 L-394759 3112 L-394740 3112 L-392844 3102 L-392728 3092 L-392680 3082 L-392655 3072 L-389651 3072 L-387621 3072 L-385860 3072 L-385493 3071 L-385047 3071 L-384680 3071 L-384266 3071 L-382281 3071 L-382068 3071 L-381913 3071 L-380308 3071 L-379186 3070 L-378238 3070 L-376981 3070 L-375336 3070 L-374156 3070 L-367567 3069 L-367520 3069 L-367115 3069 L-366069 3069 L-365934 3069 L-364251 3069 L-364232 3069 L-362895 3068 L-361659 3068 L-361504 3068 L-361130 3068 L-360924 3068 L-360615 3067 L-359841 3067 L-357519 3067 L-356862 3067 L-354734 3067 L-353011 3067 L-352818 3066 L-350265 3066 L-349988 3066 L-349800 3066 L-348968 3066 L-348195 3065 L-347497 3065 L-342496 3065 L-342121 3065 L-337868 3065 L-337381 3078 L-337361 3078 L-337282 3078 L-337207 3078 L-337187 3064 L-336374 3064 L-335621 3064 L-334401 3064 L-332970 3064 L-332873 3064 L-332699 3064 L-332345 3063 L-331035 3063 L-329178 3063 L-327476 3063 L-326973 3063 L-326707 3062 L-326314 3062 L-326180 3062 L-325270 3062 L-324894 3062 L-323965 3062 L-323626 3062 L-323587 3062 L-323549 3062 L-321634 3062 L-321460 3062 L-319931 3062 L-319603 3061 L-319487 3061 L-319080 3061 L-318732 3061 L-317088 3061 L-316537 3060 L-316294 3060 L-315753 3060 L-314921 3060 L-314380 3060 L-312845 3060 L-312753 3059 L-312716 3059 L-312580 3059 L-312193 3059 L-311168 3059 L-309291 3059 L-309195 3059 L-308595 3063 L-308228 3067 L-307743 3072 L-307705 3077 L-306931 3077 L-306874 3077 L-306699 3077 L-306506 3076 L-304900 3076 L-304880 3076 L-304725 3076 L-304610 3076 L-303430 3077 L-303275 3077 L-302608 3077 L-300160 3088 L-297645 3099 L-294976 3110 L-287276 3121 L-281609 3121 L-279394 3121 L-279371 3121 L-278397 3123 L-278377 3123 L-277513 3123 L-274773 3123 L-268975 3120 L-268821 3120 L-266035 3120 L-252427 3119 L-251681 3119 L-247270 3119 L-230924 3119 L-230692 3119 L-230155 3119 L-221696 3118 L-212990 3118 L-212778 3118 L-210805 3118 L-208019 3118 L-203531 3118 L-203377 3118 L-203207 3118 L-203067 3118 L-202776 3118 L-202738 3117 L-202467 3117 L-202295 3117 L-201885 3117 L-200765 3117 L-199584 3117 L-198307 3117 L-195444 3117 L-192523 3116 L-190531 3116 L-188984 3116 L-185946 3116 L-176621 3116 L-176097 3116 L-170374 3116 L-168866 3115 L-168052 3115 L-166368 3115 L-165647 3115 L-165479 3115 L-164434 3115 L-162366 3115 L-161004 3115 L-156561 3114 L-156464 3114 L-156425 3114 L-156406 3114 L-155574 3114 L-155496 3114 L-152924 3113 L-149674 3113 L-149519 3113 L-148571 3113 L-146830 3113 L-146115 3114 L-142574 3114 L-135997 3115 L-134579 3116 L-134558 3116 L-133608 3116 L-130134 3116 L-129380 3115 L-128819 3115 L-128037 3115 L-120533 3115 L-118934 3115 L-117360 3115 L-114175 3115 L-109842 3115 L-101272 3114 L-92526 3114 L-89452 3114 L-86186 3114 L-85639 3114 L-78502 3114 L-72834 3114 L-58770 3114 L-52759 3114 L-48052 3114 L-44049 3113 L-38942 3113 L-29228 3113 L-13657 3113 L-10574 3113 L-10272 3052 L-10252 2978 L-10234 2894 L-10214 2800 L-10194 2757 L-10175 2721 L-10156 2688 L-10129 2655 L-10108 2623 L-10080 2589 L-10045 2552 L-10031 2521 L-10018 2494 L-10000 2471 L-9981 2455 L-9961 2438 L-9943 2421 L-9923 2404 L-9903 2386 L-9882 2369 L-9865 2351 L-9847 2334 L-9826 2318 L-9806 2301 L-9788 2283 L-9769 2265 L-9749 2246 L-9729 2227 L-9711 2210 L-9692 2193 L-9671 2176 L-9646 2160 L-9631 2144 L-9614 2129 L-9595 2113 L-9575 2098 L-9556 2082 L-9537 2065 L-9517 2049 L-9496 2034 L-9479 2019 L-9460 2006 L-9439 1993 L-9419 1980 L-9401 1970 L-9383 1959 L-9362 1949 L-9344 1940 L-9324 1930 L-9305 1922 L-9285 1914 L-9266 1907 L-9246 1900 L-9228 1893 L-9200 1884 L-9179 1875 L-9152 1864 L-9118 1853 L-9103 1843 L-9090 1835 L-9072 1827 L-9053 1821 L-9033 1814 L-9014 1806 L-8995 1798 L-8975 1790 L-8954 1783 L-8937 1776 L-8918 1769 L-8898 1762 L-8878 1754 L-8859 1744 L-8841 1734 L-8821 1724 L-8801 1713 L-8782 1702 L-8763 1692 L-8742 1679 L-8718 1666 L-8703 1653 L-8686 1641 L-8666 1629 L-8647 1617 L-8627 1604 L-8609 1591 L-8589 1578 L-8568 1565 L-8550 1553 L-8531 1541 L-8511 1530 L-8491 1518 L-8473 1508 L-8454 1498 L-8434 1488 L-8415 1479 L-8395 1470 L-8377 1461 L-8357 1453 L-8337 1443 L-8318 1435 L-8299 1426 L-8270 1417 L-8251 1409 L-8223 1401 L-8186 1390 L-8171 1381 L-8158 1372 L-8141 1363 L-8124 1357 L-8104 1352 L-8086 1346 L-8066 1341 L-8046 1337 L-8026 1331 L-8008 1326 L-7990 1320 L-7969 1314 L-7950 1307 L-7931 1301 L-7912 1293 L-7892 1286 L-7873 1278 L-7854 1270 L-7835 1262 L-7814 1254 L-7790 1246 L-7775 1239 L-7758 1231 L-7738 1223 L-7719 1215 L-7699 1207 L-7680 1198 L-7660 1190 L-7640 1181 L-7621 1173 L-7603 1166 L-7583 1158 L-7562 1152 L-7544 1145 L-7525 1138 L-7505 1132 L-7487 1125 L-7467 1118 L-7448 1112 L-7428 1106 L-7409 1099 L-7389 1093 L-7370 1087 L-7342 1081 L-7322 1074 L-7294 1067 L-7258 1057 L-7244 1048 L-7231 1039 L-7213 1032 L-7195 1027 L-7175 1022 L-7157 1015 L-7137 1009 L-7117 1002 L-7096 995 L-7078 987 L-7061 979 L-7040 970 L-7020 961 L-7002 951 L-6983 941 L-6963 931 L-6943 921 L-6925 912 L-6906 905 L-6885 899 L-6860 894 L-6845 890 L-6828 885 L-6809 880 L-6789 874 L-6770 869 L-6751 864 L-6731 859 L-6710 855 L-6693 851 L-6674 846 L-6653 840 L-6633 834 L-6616 827 L-6597 822 L-6577 818 L-6558 815 L-6538 812 L-6519 809 L-6499 806 L-6480 802 L-6461 798 L-6442 795 L-6414 792 L-6394 788 L-6366 785 L-6331 780 L-6317 776 L-6304 773 L-6285 770 L-6267 768 L-6247 765 L-6228 762 L-6209 760 L-6189 757 L-6168 755 L-6151 752 L-6132 750 L-6112 746 L-6092 743 L-6074 740 L-6055 737 L-6035 735 L-6015 732 L-5997 730 L-5978 727 L-5956 725 L-5932 722 L-5917 720 L-5900 718 L-5880 715 L-5861 713 L-5842 710 L-5823 707 L-5803 704 L-5782 702 L-5764 699 L-5745 696 L-5725 694 L-5704 692 L-5687 689 L-5668 687 L-5648 685 L-5629 682 L-5610 680 L-5591 679 L-5571 677 L-5551 675 L-5532 674 L-5513 677 L-5485 679 L-5465 682 L-5437 684 L-5400 682 L-5384 680 L-5372 678 L-5354 677 L-5338 675 L-5318 674 L-5300 672 L-5280 671 L-5260 669 L-5239 668 L-5222 667 L-5204 665 L-5183 664 L-5163 662 L-5145 661 L-5126 659 L-5106 658 L-5086 656 L-5068 654 L-5049 653 L-5028 652 L-5003 651 L-4989 649 L-4971 648 L-4952 646 L-4932 644 L-4913 643 L-4894 641 L-4874 639 L-4853 637 L-4836 635 L-4817 633 L-4796 631 L-4776 629 L-4758 627 L-4740 625 L-4720 623 L-4701 622 L-4681 620 L-4662 618 L-4642 615 L-4623 614 L-4604 612 L-4585 611 L-4557 609 L-4537 607 L-4509 605 L-4474 603 L-4460 601 L-4447 600 L-4428 598 L-4410 597 L-4389 595 L-4371 593 L-4352 592 L-4332 590 L-4311 589 L-4294 587 L-4275 585 L-4255 583 L-4235 581 L-4216 579 L-4198 577 L-4178 574 L-4157 571 L-4139 569 L-4121 567 L-4099 565 L-4074 562 L-4060 560 L-4042 557 L-4023 555 L-4004 553 L-3985 550 L-3966 548 L-3945 546 L-3925 543 L-3907 541 L-3888 539 L-3868 537 L-3847 535 L-3830 534 L-3811 532 L-3791 531 L-3772 529 L-3752 528 L-3734 526 L-3714 525 L-3694 524 L-3675 523 L-3656 522 L-3629 520 L-3608 519 L-3580 518 L-3545 515 L-3531 513 L-3518 511 L-3499 508 L-3481 507 L-3461 505 L-3443 504 L-3423 503 L-3403 501 L-3382 499 L-3365 498 L-3347 496 L-3326 494 L-3306 492 L-3288 490 L-3269 489 L-3249 487 L-3229 485 L-3211 483 L-3192 481 L-3171 480 L-3146 478 L-3131 477 L-3114 476 L-3095 474 L-3075 472 L-3056 470 L-3037 468 L-3017 466 L-2996 463 L-2979 460 L-2960 458 L-2939 456 L-2918 455 L-2901 453 L-2882 452 L-2862 451 L-2844 450 L-2824 449 L-2805 447 L-2785 446 L-2766 445 L-2746 444 L-2728 443 L-2700 441 L-2679 441 L-2652 439 L-2617 438 L-2603 437 L-2590 436 L-2571 435 L-2553 434 L-2533 433 L-2514 432 L-2495 432 L-2475 431 L-2454 430 L-2437 429 L-2418 428 L-2398 427 L-2378 426 L-2360 425 L-2341 424 L-2321 423 L-2301 423 L-2282 422 L-2263 422 L-2242 421 L-2218 420 L-2203 419 L-2186 418 L-2166 417 L-2147 416 L-2128 415 L-2109 414 L-2089 413 L-2068 412 L-2050 410 L-2031 408 L-2011 406 L-1990 404 L-1973 403 L-1954 402 L-1934 401 L-1915 399 L-1895 398 L-1877 397 L-1857 396 L-1837 395 L-1818 394 L-1799 393 L-1770 392 L-1723 391 L-1686 390 L-1671 389 L-1659 388 L-1641 387 L-1624 387 L-1604 387 L-1586 386 L-1567 385 L-1546 384 L-1526 384 L-1509 383 L-1490 383 L-1469 382 L-1450 381 L-1431 380 L-1412 380 L-1392 379 L-1372 378 L-1354 377 L-1335 376 L-1314 375 L-1289 373 L-1275 372 L-1257 370 L-1238 369 L-1219 367 L-1199 366 L-1180 365 L-1160 364 L-1139 362 L-1122 361 L-1103 360 L-1082 359 L-1062 357 L-1044 357 L-1025 356 L-1005 355 L-987 354 L-967 353 L-948 352 L-928 351 L-909 350 L-889 349 L-870 348 L-842 347 L-822 346 L-794 344 L-757 342 L-743 340 L-730 338 L-713 337 L-695 336 L-675 335 L-657 334 L-637 333 L-617 333 L-596 332 L-580 331 L-561 330 L-540 328 L-520 327 L-502 325 L-483 323 L-463 321 L-443 319 L-425 318 L-406 316 L-385 315 L-360 313 L-345 312 L-327 311 L-309 310 L-289 309 L-270 307 L-251 306 L-231 304 L-210 303 L-193 301 L-174 300 L-154 299 L-132 298 L-116 297 L-97 296 L-77 295 L-58 294 L-38 293 L-19 292 L0 291 L20 290 L38 289 L57 288 L85 997 L105 996 L133 995 L169 993 L183 282 L197 280 L214 279 L232 278 L252 278 L270 277 L290 276 L310 275 L331 274 L348 272 L367 271 L387 269 L407 267 L425 266 L445 264 L464 262 L485 260 L502 259 L521 258 L543 257 L568 255 L583 254 L612 252 L652 249 L675 247 L705 245 L721 243 L735 241 L754 240 L774 239 L795 238 L812 237 L831 236 L851 235 L870 234 L890 234 L908 233 L928 232 L948 231 L967 231 L986 230 L1013 229 L1034 228 L1062 227 L1097 226 L1111 225 L1142 223 L1161 223 L1181 222 L1199 221 L1219 221 L1239 220 L1260 219 L1276 218 L1295 217 L1316 214 L1336 211 L1354 207 L1373 204 L1393 202 L1413 200 L1431 198 L1450 196 L1471 195 L1496 194 L1511 192 L1529 191 L1547 189 L1567 188 L1586 187 L1606 186 L1625 184 L1646 183 L1663 181 L1682 180 L1703 179 L1724 178 L1740 177 L1759 176 L1780 175 L1799 175 L1818 173 L1837 172 L1857 171 L1877 170 L1895 170 L1914 169 L1942 168 L1963 167 L2033 165 L2061 163 L2075 161 L2089 159 L2109 157 L2128 156 L2147 155 L2167 154 L2188 153 L2205 152 L2224 151 L2244 150 L2264 150 L2282 149 L2301 148 L2321 146 L2342 145 L2360 143 L2378 142 L2400 142 L2425 141 L2440 140 L2457 139 L2476 137 L2496 136 L2515 135 L2534 133 L2553 133 L2575 132 L2592 131 L2611 130 L2631 129 L2653 128 L2669 127 L2727 126 L2747 125 L2765 124 L2785 124 L2805 123 L2824 122 L2843 122 L2871 121 L2891 120 L2919 120 L2955 119 L2970 118 L2983 118 L3000 117 L3018 117 L3038 116 L3056 116 L3076 115 L3096 115 L3117 115 L3134 114 L3152 114 L3173 113 L3193 113 L3211 112 L3230 111 L3250 110 L3271 110 L3288 109 L3307 108 L3329 108 L3353 107 L3368 107 L3385 106 L3405 105 L3424 105 L3443 104 L3462 103 L3482 102 L3503 101 L3520 100 L3540 99 L3560 99 L3581 98 L3598 98 L3616 97 L3637 97 L3656 96 L3675 96 L3694 96 L3714 95 L3734 95 L3753 95 L3771 94 L3799 94 L3820 93 L3847 93 L3883 92 L3896 91 L3910 91 L3928 91 L3946 90 L3966 89 L3985 89 L4024 89 L4045 88 L4062 88 L4081 87 L4101 86 L4121 86 L4139 85 L4158 84 L4178 83 L4198 83 L4217 82 L4236 82 L4256 81 L4281 81 L4296 80 L4313 80 L4333 79 L4352 79 L4372 78 L4390 77 L4410 77 L4431 76 L4449 75 L4468 75 L4488 74 L4509 74 L4526 73 L4545 73 L4565 72 L4584 72 L4604 71 L4622 71 L4642 70 L4662 70 L4681 70 L4700 69 L4729 69 L4776 68 L4814 68 L4829 67 L4841 67 L4858 66 L4875 66 L4895 66 L4913 65 L4933 65 L4953 64 L4973 64 L4991 64 L5009 64 L5030 64 L5049 64 L5068 63 L5087 63 L5107 63 L5126 62 L5145 62 L5164 61 L5185 61 L5210 60 L5224 60 L5241 59 L5261 58 L5280 57 L5300 56 L5319 55 L5339 53 L5359 52 L5377 51 L5396 50 L5417 49 L5437 48 L5455 47 L5474 46 L5494 45 L5512 44 L5532 43 L5551 43 L5571 42 L5590 41 L5610 39 L5628 38 L5657 37 L5677 36 L5705 36 L5742 35 L5757 34 L5769 33 L5787 32 L5804 32 L5824 31 L5842 31 L5862 30 L5882 29 L5903 29 L5920 28 L5938 27 L5959 26 L5980 25 L5997 24 L6016 24 L6036 23 L6057 22 L6074 21 L6093 20 L6114 20 L6139 19 L6154 18 L6172 16 L6190 15 L6211 14 L6229 14 L6249 12 L6268 11 L6290 10 L6306 9 L6326 8 L6346 7 L6367 6 L6383 5 L6402 5 L6422 4 L6441 3 L6461 3 L6480 2 L6500 1" />
</svg>
