<svg xmlns="http://www.w3.org/2000/svg" version="1.1" viewBox="0 0 6500 1000">
	<path fill="none" stroke="gold" stroke-width="125" stroke-linecap="round" stroke-linejoin="round" d="M0 5076  L-418596 5076 L-415992 5069 L-414324 5062 L-395995 5047 L-395824 5033 L-388667 5018 L-388633 5018 L-375203 5011 L-372281 5018 L-358940 4997 L-354771 4968 L-353611 4931 L-352992 4895 L-350980 4873 L-347208 4859 L-346608 4844 L-346279 4830 L-346066 4815 L-345524 4801 L-344286 4743 L-343108 4685 L-340243 4627 L-339721 4569 L-334865 4554 L-331928 4540 L-331885 4525 L-331577 4511 L-331325 4496 L-328730 4482 L-324475 4482 L-324457 4482 L-323220 4482 L-321342 4482 L-319389 4467 L-318441 4453 L-318170 4438 L-317860 4431 L-317762 4424 L-316932 4424 L-314901 4431 L-314611 4366 L-312464 4337 L-312309 4294 L-308652 4250 L-308401 4272 L-308303 4265 L-307786 4286 L-305634 4323 L-304706 4359 L-303180 4395 L-301940 4395 L-300394 4388 L-297432 4373 L-296310 4359 L-296001 4344 L-294790 4337 L-291783 4417 L-291763 4410 L-291416 4402 L-291203 4395 L-291077 4294 L-290835 4279 L-290797 4265 L-290777 4250 L-290758 4236 L-290699 4221 L-290641 4207 L-290623 4192 L-290180 4178 L-288940 4163 L-287394 4149 L-284007 4134 L-278280 4127 L-278079 4120 L-276443 4112 L-274721 4105 L-273289 4098 L-273057 4091 L-272341 4083 L-266209 4076 L-265841 4062 L-265687 4047 L-265109 4033 L-264816 4018 L-263849 4004 L-263539 3989 L-262940 3975 L-261334 3975 L-260599 3975 L-260289 3982 L-259521 3982 L-257485 3967 L-257059 3953 L-256247 3946 L-248818 3931 L-248295 3917 L-248122 3902 L-247386 3888 L-245819 3873 L-245413 3866 L-243188 3851 L-242240 3844 L-241815 3837 L-241485 3837 L-240441 3830 L-238333 3815 L-238081 3801 L-237462 3786 L-236649 3779 L-234541 3764 L-234493 3750 L-232565 3735 L-232239 3721 L-232104 3706 L-231601 3699 L-230188 3685 L-229685 3656 L-229163 3634 L-225604 3605 L-224869 3576 L-222444 3576 L-221154 3561 L-220747 3554 L-217595 3554 L-217440 3554 L-217420 3561 L-217053 3561 L-215795 3569 L-215080 3576 L-214190 3576 L-213783 3576 L-212855 3576 L-211746 3569 L-211443 3598 L-205194 3612 L-204247 3627 L-202620 3641 L-202119 3648 L-198443 3656 L-197611 3663 L-193657 3670 L-192246 3648 L-189756 3634 L-189080 3619 L-189041 3612 L-188170 3612 L-184959 3605 L-182096 3598 L-181128 3590 L-180007 3576 L-179988 3561 L-178363 3547 L-177898 3525 L-177806 3518 L-171437 3511 L-170489 3503 L-168032 3496 L-167159 3482 L-165923 3474 L-163922 3467 L-163524 3453 L-162088 3438 L-160062 3431 L-159849 3416 L-158669 3409 L-157160 3402 L-157140 3395 L-155128 3387 L-154258 3373 L-153387 3366 L-152803 3351 L-152265 3337 L-151608 3322 L-150370 3308 L-149809 3300 L-148628 3293 L-147390 3286 L-147352 3279 L-146965 3271 L-146423 3257 L-145649 3250 L-144527 3242 L-142438 3228 L-142105 3213 L-141819 3199 L-140890 3192 L-140407 3177 L-139672 3170 L-136040 3163 L-134913 3155 L-134758 3148 L-133732 3134 L-130017 3126 L-128800 3112 L-126982 3097 L-124196 3090 L-123634 3076 L-119747 3076 L-117270 3068 L-115935 3068 L-115432 3061 L-114949 3054 L-112259 3054 L-108488 3054 L-106030 3054 L-104851 3054 L-104211 3047 L-101852 3032 L-101774 3025 L-100727 3018 L-100633 3003 L-100131 3003 L-99685 3003 L-99627 3003 L-99414 3003 L-96454 2989 L-93747 2981 L-93592 2974 L-90071 2967 L-89548 2952 L-88581 2938 L-88232 2931 L-87188 2916 L-86259 2902 L-85834 2894 L-84325 2894 L-83358 2887 L-83339 2880 L-81443 2351 L-81327 1807 L-81279 1271 L-81255 734 L-78250 727 L-76220 713 L-74459 705 L-74092 698 L-73646 684 L-73279 676 L-72865 662 L-70880 655 L-70667 655 L-70512 647 L-68907 647 L-67785 640 L-66837 633 L-65580 618 L-63935 611 L-62756 597 L-56166 589 L-56119 582 L-55714 575 L-54669 568 L-54533 560 L-52851 546 L-52831 539 L-51494 524 L-50258 517 L-50104 510 L-49730 495 L-49523 488 L-49214 481 L-48440 466 L-46119 459 L-45461 452 L-43333 444 L-41611 437 L-41417 423 L-38864 415 L-38587 401 L-38399 386 L-37567 379 L-36794 372 L-36096 365 L-31096 365 L-30720 350 L-26467 343 L-25980 1060 L-25960 1060 L-25882 1053 L-25806 1046 L-25786 307 L-24974 299 L-24220 285 L-23001 278 L-21569 278 L-21473 270 L-21298 270 L-20944 256 L-19634 249 L-17777 241 L-16075 227 L-15572 220 L-15307 212 L-14914 205 L-14779 198 L-13870 191 L-13493 183 L-12565 183 L-12226 176 L-12186 176 L-12148 169 L-10233 169 L-10059 162 L-8530 162 L-8202 154 L-8086 147 L-7679 133 L-7331 125 L-5687 111 L-5136 104 L-4893 96 L-4352 89 L-3520 75 L-2979 67 L-1444 53 L-1352 46 L-1315 38 L-1179 31 L-792 24 L232 17 L2108 9 L2205 2 L2805 234 L3172 481 L3657 734 L3695 981 L4469 995 L4526 988 L4701 973 L4894 966 L6500 952" />
</svg>
