<svg xmlns="http://www.w3.org/2000/svg" version="1.1" viewBox="0 0 6500 1000">
	<path fill="none" stroke="gold" stroke-width="125" stroke-linecap="round" stroke-linejoin="round" d="M0 3941  L-723885 3941 L-721281 3941 L-719613 3941 L-701283 3941 L-701113 3940 L-693955 3940 L-693922 3940 L-680491 3940 L-677569 3940 L-664228 3939 L-660059 3939 L-658899 3938 L-658280 3937 L-656268 3936 L-652497 3936 L-651897 3936 L-651568 3935 L-651355 3935 L-650813 3934 L-649575 3933 L-648396 3932 L-645532 3930 L-645010 3929 L-640154 3928 L-637217 3928 L-637174 3928 L-636866 3927 L-636614 3927 L-634019 3926 L-629763 3926 L-629745 3926 L-628509 3926 L-626631 3926 L-624678 3926 L-623730 3926 L-623459 3925 L-623149 3925 L-623051 3925 L-622221 3925 L-620190 3925 L-619899 3923 L-617753 3923 L-617597 3922 L-613941 3921 L-613690 3921 L-613591 3921 L-613074 3921 L-610923 3922 L-609994 3923 L-608468 3924 L-607229 3924 L-605682 3924 L-602721 3924 L-601599 3923 L-601290 3923 L-600078 3923 L-597072 3925 L-597052 3925 L-596705 3924 L-596491 3924 L-596365 3922 L-596124 3921 L-596086 3921 L-596066 3921 L-596047 3920 L-595988 3920 L-595929 3919 L-595911 3919 L-595468 3919 L-594229 3918 L-592683 3918 L-589295 3918 L-583569 3917 L-583368 3917 L-581732 3917 L-580010 3917 L-578578 3917 L-578345 3917 L-577630 3916 L-571498 3916 L-571130 3916 L-570976 3915 L-570397 3915 L-570105 3915 L-569137 3914 L-568828 3914 L-568229 3914 L-566623 3914 L-565887 3914 L-565578 3914 L-564809 3914 L-562773 3913 L-562348 3913 L-561535 3913 L-554107 3913 L-553584 3912 L-553410 3912 L-552675 3911 L-551107 3911 L-550702 3911 L-548477 3911 L-547529 3910 L-547104 3910 L-546774 3910 L-545730 3910 L-543622 3910 L-543370 3909 L-542751 3909 L-541938 3909 L-539830 3908 L-539782 3908 L-537853 3908 L-537528 3907 L-537393 3907 L-536889 3907 L-535477 3906 L-534974 3906 L-534452 3905 L-530892 3904 L-530157 3904 L-527732 3904 L-526443 3903 L-526036 3903 L-522884 3903 L-522729 3903 L-522709 3903 L-522342 3903 L-521084 3903 L-520369 3904 L-519479 3904 L-519072 3904 L-518143 3904 L-517035 3903 L-516731 3904 L-510483 3904 L-509535 3905 L-507909 3905 L-507407 3905 L-503732 3906 L-502899 3906 L-498946 3906 L-497534 3905 L-495045 3905 L-494369 3905 L-494330 3904 L-493459 3904 L-490248 3904 L-487385 3904 L-486417 3904 L-485295 3904 L-485276 3903 L-483651 3903 L-483187 3902 L-483095 3902 L-476726 3902 L-475777 3902 L-473320 3902 L-472448 3901 L-471212 3901 L-469211 3901 L-468813 3900 L-467377 3900 L-465351 3900 L-465137 3900 L-463957 3899 L-462449 3899 L-462429 3899 L-460417 3899 L-459547 3898 L-458676 3898 L-458091 3898 L-457554 3898 L-456896 3897 L-455658 3897 L-455098 3897 L-453917 3896 L-452679 3896 L-452641 3896 L-452254 3896 L-451712 3896 L-450938 3895 L-449816 3895 L-447727 3895 L-447393 3894 L-447108 3894 L-446179 3894 L-445696 3894 L-444960 3893 L-441329 3893 L-440202 3893 L-440047 3893 L-439021 3892 L-435306 3892 L-434089 3892 L-432270 3892 L-429485 3891 L-428923 3891 L-425035 3891 L-422559 3891 L-421224 3891 L-420720 3891 L-420237 3890 L-417548 3890 L-413776 3890 L-411319 3890 L-410139 3890 L-409500 3890 L-407141 3890 L-407063 3890 L-406016 3889 L-405922 3889 L-405419 3889 L-404974 3889 L-404916 3889 L-404702 3889 L-401743 3889 L-399035 3889 L-398880 3888 L-395360 3888 L-394837 3888 L-393869 3887 L-393520 3887 L-392477 3887 L-391548 3887 L-391123 3886 L-389613 3886 L-388647 3886 L-388628 3886 L-386732 3873 L-386616 3859 L-386568 3845 L-386543 3832 L-383539 3832 L-381508 3831 L-379748 3831 L-379381 3831 L-378935 3831 L-378568 3830 L-378154 3830 L-376169 3830 L-375956 3830 L-375801 3830 L-374196 3830 L-373074 3830 L-372126 3829 L-370868 3829 L-369224 3829 L-368044 3828 L-361455 3828 L-361408 3828 L-361002 3828 L-359957 3828 L-359822 3828 L-358139 3827 L-358119 3827 L-356783 3827 L-355546 3826 L-355392 3826 L-355018 3826 L-354812 3826 L-354503 3826 L-353729 3825 L-351407 3825 L-350749 3825 L-348622 3825 L-346899 3824 L-346706 3824 L-344152 3824 L-343876 3824 L-343688 3823 L-342855 3823 L-342083 3823 L-341385 3823 L-336384 3823 L-336008 3822 L-331756 3822 L-331268 3840 L-331249 3840 L-331170 3840 L-331095 3840 L-331075 3821 L-330262 3821 L-329509 3821 L-328289 3820 L-326858 3820 L-326761 3820 L-326587 3820 L-326232 3820 L-324923 3820 L-323066 3820 L-321363 3819 L-320861 3819 L-320595 3819 L-320202 3819 L-320068 3818 L-319158 3818 L-318782 3818 L-317853 3818 L-317514 3818 L-317475 3818 L-317437 3818 L-315521 3818 L-315348 3817 L-313819 3817 L-313491 3817 L-313375 3817 L-312968 3817 L-312619 3817 L-310976 3816 L-310425 3816 L-310182 3816 L-309640 3816 L-308809 3815 L-308267 3815 L-306733 3815 L-306641 3815 L-306604 3814 L-306468 3814 L-306081 3814 L-305056 3814 L-303179 3814 L-303083 3813 L-302483 3819 L-302116 3826 L-301631 3832 L-301593 3838 L-300819 3839 L-300762 3838 L-300587 3838 L-300394 3838 L-298788 3837 L-298768 3837 L-298613 3838 L-298498 3838 L-297318 3838 L-297163 3839 L-296496 3839 L-294048 3853 L-291533 3869 L-288863 3884 L-281164 3898 L-275497 3898 L-273282 3898 L-273259 3898 L-272285 3902 L-272265 3902 L-271401 3902 L-268661 3901 L-262862 3898 L-262709 3897 L-259923 3897 L-246315 3897 L-245569 3896 L-241158 3896 L-224812 3896 L-224580 3896 L-224043 3895 L-215583 3895 L-206878 3895 L-206665 3895 L-204693 3895 L-201907 3895 L-197419 3895 L-197264 3895 L-197095 3895 L-196955 3894 L-196664 3894 L-196626 3894 L-196355 3894 L-196183 3894 L-195773 3893 L-194652 3893 L-193472 3893 L-192195 3893 L-189331 3893 L-186411 3892 L-184419 3892 L-182872 3892 L-179834 3892 L-170509 3892 L-169985 3891 L-164261 3891 L-162754 3891 L-161940 3891 L-160256 3891 L-159535 3891 L-159367 3890 L-158321 3890 L-156254 3890 L-154892 3890 L-150449 3890 L-150352 3889 L-150313 3889 L-150294 3889 L-149462 3889 L-149384 3889 L-146811 3888 L-143562 3888 L-143407 3888 L-142459 3888 L-140718 3887 L-140002 3889 L-136462 3889 L-129884 3891 L-128467 3892 L-128446 3892 L-127496 3892 L-124021 3892 L-123268 3891 L-122707 3891 L-121925 3891 L-114420 3891 L-112822 3890 L-111248 3890 L-108063 3890 L-103730 3890 L-95160 3890 L-86414 3890 L-83340 3889 L-80074 3889 L-79527 3889 L-72390 3889 L-66722 3889 L-52658 3889 L-46647 3889 L-41940 3889 L-37937 3888 L-32829 3888 L-23115 3888 L-7545 3888 L-4462 3887 L-4160 3805 L-4140 3704 L-4121 3589 L-4102 3460 L-4082 3402 L-4063 3352 L-4044 3307 L-4017 3262 L-3996 3218 L-3968 3172 L-3933 3121 L-3919 3078 L-3906 3041 L-3887 3011 L-3869 2988 L-3849 2965 L-3831 2942 L-3811 2918 L-3791 2895 L-3770 2870 L-3753 2847 L-3735 2824 L-3714 2801 L-3694 2779 L-3676 2754 L-3657 2729 L-3637 2703 L-3617 2678 L-3599 2653 L-3580 2630 L-3559 2608 L-3534 2585 L-3519 2564 L-3502 2543 L-3482 2522 L-3463 2501 L-3444 2479 L-3425 2456 L-3405 2434 L-3384 2413 L-3367 2393 L-3348 2374 L-3327 2357 L-3307 2340 L-3289 2326 L-3270 2311 L-3250 2297 L-3231 2284 L-3212 2271 L-3193 2260 L-3173 2250 L-3153 2240 L-3134 2230 L-3116 2220 L-3088 2208 L-3067 2195 L-3040 2181 L-3006 2165 L-2991 2152 L-2978 2141 L-2960 2131 L-2941 2122 L-2921 2112 L-2902 2102 L-2883 2091 L-2863 2080 L-2842 2070 L-2825 2061 L-2806 2051 L-2786 2041 L-2766 2030 L-2747 2017 L-2729 2003 L-2709 1989 L-2689 1974 L-2670 1960 L-2651 1945 L-2630 1929 L-2606 1911 L-2591 1893 L-2574 1876 L-2554 1860 L-2535 1843 L-2515 1826 L-2497 1807 L-2476 1790 L-2456 1773 L-2438 1756 L-2419 1740 L-2399 1724 L-2378 1709 L-2361 1694 L-2342 1681 L-2322 1667 L-2303 1655 L-2283 1643 L-2264 1631 L-2245 1619 L-2225 1606 L-2206 1594 L-2187 1582 L-2158 1570 L-2138 1559 L-2111 1548 L-2073 1534 L-2058 1521 L-2046 1508 L-2029 1497 L-2012 1489 L-1992 1481 L-1973 1474 L-1954 1467 L-1934 1460 L-1914 1453 L-1896 1445 L-1878 1437 L-1857 1429 L-1837 1420 L-1819 1411 L-1800 1401 L-1780 1391 L-1760 1380 L-1742 1369 L-1723 1358 L-1702 1348 L-1677 1337 L-1663 1326 L-1645 1315 L-1625 1304 L-1606 1294 L-1587 1283 L-1568 1271 L-1548 1259 L-1528 1248 L-1509 1237 L-1491 1227 L-1470 1217 L-1450 1207 L-1432 1198 L-1413 1189 L-1393 1180 L-1375 1171 L-1355 1162 L-1336 1153 L-1316 1144 L-1297 1136 L-1277 1128 L-1258 1119 L-1230 1110 L-1210 1102 L-1182 1092 L-1146 1078 L-1132 1066 L-1119 1054 L-1101 1043 L-1083 1037 L-1063 1030 L-1045 1021 L-1025 1012 L-1005 1003 L-984 993 L-966 982 L-949 971 L-928 959 L-908 946 L-890 933 L-871 919 L-851 906 L-831 893 L-813 881 L-794 870 L-773 862 L-748 855 L-733 849 L-716 843 L-697 836 L-677 828 L-658 821 L-639 814 L-619 807 L-598 802 L-581 797 L-562 790 L-541 782 L-521 773 L-504 764 L-485 757 L-464 752 L-446 748 L-426 744 L-407 739 L-387 735 L-368 730 L-349 725 L-330 720 L-302 715 L-281 711 L-254 706 L-219 700 L-205 695 L-192 690 L-173 686 L-155 683 L-135 679 L-116 675 L-97 672 L-77 669 L-56 665 L-39 662 L-20 658 L0 654 L19 650 L37 645 L56 641 L76 638 L96 635 L115 631 L133 628 L155 624 L180 621 L194 618 L211 615 L231 611 L250 608 L269 604 L288 600 L308 596 L329 592 L347 589 L366 585 L386 582 L407 579 L424 576 L443 572 L463 569 L482 566 L502 563 L520 561 L540 559 L560 556 L579 554 L598 558 L627 562 L646 565 L674 569 L711 565 L727 563 L739 560 L757 558 L773 557 L793 555 L811 552 L831 550 L851 548 L872 547 L889 545 L907 543 L928 541 L948 539 L966 537 L985 534 L1005 532 L1025 530 L1043 528 L1062 526 L1083 525 L1108 523 L1123 521 L1140 518 L1159 516 L1179 514 L1198 512 L1217 510 L1237 507 L1258 504 L1275 501 L1294 498 L1315 496 L1335 493 L1353 491 L1372 488 L1392 486 L1410 483 L1430 480 L1449 478 L1469 475 L1488 472 L1508 470 L1526 468 L1554 466 L1575 463 L1603 461 L1637 458 L1651 455 L1664 453 L1683 451 L1702 449 L1722 447 L1740 445 L1759 442 L1779 440 L1800 438 L1817 436 L1836 433 L1856 431 L1876 428 L1895 425 L1913 422 L1933 418 L1954 414 L1972 411 L1991 408 L2012 405 L2037 402 L2052 399 L2069 395 L2088 392 L2108 389 L2127 386 L2146 382 L2166 379 L2186 376 L2204 373 L2223 370 L2244 368 L2264 365 L2281 363 L2300 360 L2320 359 L2339 357 L2359 355 L2377 353 L2397 351 L2417 349 L2436 348 L2455 347 L2483 345 L2503 343 L2531 341 L2567 338 L2580 334 L2593 331 L2612 328 L2630 326 L2650 324 L2668 322 L2688 320 L2708 318 L2729 316 L2746 314 L2764 311 L2785 309 L2805 306 L2823 304 L2842 301 L2862 298 L2882 296 L2900 294 L2919 291 L2941 290 L2965 287 L2980 286 L2997 283 L3017 281 L3036 279 L3055 276 L3074 273 L3094 270 L3115 266 L3132 263 L3152 260 L3172 257 L3193 255 L3210 253 L3229 251 L3249 250 L3268 248 L3287 247 L3306 245 L3326 243 L3346 241 L3365 240 L3383 238 L3411 237 L3432 236 L3459 234 L3494 232 L3508 231 L3521 230 L3540 228 L3559 227 L3578 226 L3597 224 L3616 223 L3636 222 L3657 221 L3674 220 L3693 219 L3713 217 L3733 216 L3752 215 L3770 213 L3790 212 L3810 211 L3829 210 L3848 210 L3869 209 L3893 207 L3908 206 L3925 205 L3945 203 L3964 202 L3984 201 L4002 200 L4022 198 L4043 196 L4061 194 L4080 191 L4100 188 L4121 186 L4138 184 L4157 183 L4177 181 L4196 179 L4216 177 L4235 176 L4254 174 L4274 173 L4293 172 L4312 171 L4341 169 L4388 168 L4425 167 L4440 165 L4453 164 L4470 163 L4487 162 L4507 162 L4525 161 L4545 160 L4565 159 L4585 158 L4603 157 L4621 156 L4642 156 L4661 155 L4680 154 L4699 152 L4719 151 L4739 150 L4757 149 L4776 147 L4797 145 L4822 143 L4837 141 L4854 139 L4874 137 L4893 136 L4912 134 L4931 132 L4951 130 L4972 129 L4990 127 L5008 125 L5029 124 L5049 122 L5067 121 L5086 120 L5106 118 L5125 117 L5144 116 L5163 115 L5183 113 L5202 112 L5222 111 L5241 109 L5269 108 L5289 106 L5317 104 L5354 102 L5368 99 L5381 96 L5399 94 L5416 92 L5436 91 L5454 90 L5474 89 L5494 88 L5515 87 L5532 86 L5550 84 L5571 82 L5591 80 L5609 78 L5628 75 L5648 72 L5669 70 L5686 68 L5705 66 L5726 64 L5751 62 L5766 60 L5784 58 L5802 57 L5823 55 L5841 54 L5860 51 L5880 49 L5901 47 L5918 46 L5938 44 L5958 42 L5979 41 L5995 39 L6015 38 L6034 36 L6053 35 L6073 34 L6092 32 L6112 31 L6132 29 L6151 29 L6169 27 L6197 997 L6218 995 L6245 993 L6281 991 L6295 18 L6309 17 L6326 15 L6344 14 L6364 13 L6383 12 L6402 11 L6422 10 L6443 8 L6460 5 L6479 3 L6500 1" />
</svg>
