<svg xmlns="http://www.w3.org/2000/svg" version="1.1" viewBox="0 0 6500 1000">
	<path fill="none" stroke="gold" stroke-width="125" stroke-linecap="round" stroke-linejoin="round" d="M0 593190  L-492572 593190 L-489968 590809 L-488300 588428 L-469971 583666 L-469801 578904 L-462643 574142 L-462610 574142 L-449179 571761 L-446257 574142 L-432916 567000 L-428747 557476 L-427587 545571 L-426968 533666 L-424956 526523 L-421184 521761 L-420584 517000 L-420255 512238 L-420042 507476 L-419501 502714 L-418263 483666 L-417084 464619 L-414219 445571 L-413697 426523 L-408842 421761 L-405904 417000 L-405861 412238 L-405553 407476 L-405301 402714 L-402706 397952 L-398451 397952 L-398433 397952 L-397196 397952 L-395318 397952 L-393365 393190 L-392417 388428 L-392146 383666 L-391836 381285 L-391738 378904 L-390908 378904 L-388877 381285 L-388587 359857 L-386440 350333 L-386285 336047 L-382629 321761 L-382377 328904 L-382279 326523 L-381762 333666 L-379611 345571 L-378682 357476 L-377156 369380 L-375916 369380 L-374370 367000 L-371408 362238 L-370286 357476 L-369977 352714 L-368766 350333 L-365759 376523 L-365739 374142 L-365392 371761 L-365179 369380 L-365053 336047 L-364811 331285 L-364773 326523 L-364754 321761 L-364734 317000 L-364675 312238 L-364617 307476 L-364599 302714 L-364156 297952 L-362916 293190 L-361371 288428 L-357983 283666 L-352257 281285 L-352055 278904 L-350419 276523 L-348697 274142 L-347265 271761 L-347033 269380 L-346317 267000 L-340185 264619 L-339818 259857 L-339663 255095 L-339085 250333 L-338792 245571 L-337825 240809 L-337515 236047 L-336916 231285 L-335310 231285 L-334575 231285 L-334265 233666 L-333497 233666 L-331461 228904 L-331035 224142 L-330223 221761 L-322794 217000 L-322271 212238 L-322098 207476 L-321363 202714 L-319795 197952 L-319389 195571 L-317164 190809 L-316216 188428 L-315791 186047 L-315461 186047 L-314417 183666 L-312309 178904 L-312057 174142 L-311438 169380 L-310625 167000 L-308517 162238 L-308469 157476 L-306541 152714 L-306215 147952 L-306080 143190 L-305577 140809 L-304164 136047 L-303661 126523 L-303139 119380 L-299580 109857 L-298845 100333 L-296420 100333 L-295131 95571 L-294724 93190 L-291571 93190 L-291416 93190 L-291396 95571 L-291029 95571 L-289771 97952 L-289056 100333 L-288166 100333 L-287759 100333 L-286831 100333 L-285722 97952 L-285419 107476 L-279170 112238 L-278223 117000 L-276597 121761 L-276095 124142 L-272419 126523 L-271587 128904 L-267634 131285 L-266222 124142 L-263732 119380 L-263056 114619 L-263017 112238 L-262146 112238 L-258935 109857 L-256072 107476 L-255104 105095 L-253983 100333 L-253964 95571 L-252339 90809 L-251875 83666 L-251783 81285 L-245413 78904 L-244465 76523 L-242008 74142 L-241136 69380 L-239899 67000 L-237898 64619 L-237501 59857 L-236064 55095 L-234038 52714 L-233825 47952 L-232645 45571 L-231136 43190 L-231116 40809 L-229104 38428 L-228235 33666 L-227364 31285 L-226779 26523 L-226242 21761 L-225584 17000 L-224346 12238 L-223785 9857 L-222604 7476 L-221367 5095 L-221328 2714 L-220941 333 L-220399 -4428 L-219626 -6809 L-218503 -9190 L-216414 -13952 L-216081 -18714 L-215795 -23476 L-214867 -25857 L-214383 -30619 L-213648 -33000 L-210017 -35380 L-208889 -37761 L-208734 -40142 L-207708 -44904 L-203994 -47285 L-202776 -52047 L-200958 -56809 L-198172 -59190 L-197611 -63952 L-193723 -63952 L-191246 -66333 L-189911 -66333 L-189408 -68714 L-188925 -71095 L-186235 -71095 L-182464 -71095 L-180007 -71095 L-178827 -71095 L-178188 -73476 L-175828 -78238 L-175751 -80619 L-174703 -83000 L-174610 -87761 L-174107 -87761 L-173661 -87761 L-173604 -87761 L-173390 -87761 L-170430 -92523 L-167723 -94904 L-167568 -97285 L-164047 -99666 L-163524 -104428 L-162557 -109190 L-162208 -111571 L-161164 -116333 L-160236 -121095 L-159810 -123476 L-158301 -123476 L-157334 -125857 L-157315 -128238 L-155419 -302047 L-155303 -480619 L-155255 -656809 L-155231 -833000 L-152227 -835380 L-150196 -840142 L-148435 -842523 L-148068 -844904 L-147622 -849666 L-147256 -852047 L-146842 -856809 L-144857 -859190 L-144643 -859190 L-144489 -861571 L-142883 -861571 L-141761 -863952 L-140813 -866333 L-139556 -871095 L-137911 -873476 L-136732 -878238 L-130142 -880619 L-130096 -883000 L-129690 -885380 L-128645 -887761 L-128509 -890142 L-126827 -894904 L-126807 -897285 L-125470 -902047 L-124234 -904428 L-124080 -906809 L-123706 -911571 L-123500 -913952 L-123190 -916333 L-122416 -921095 L-120095 -923476 L-119437 -925857 L-117309 -928238 L-115587 -930619 L-115393 -935380 L-112840 -937761 L-112564 -942523 L-112375 -947285 L-111543 -949666 L-110770 -952047 L-110072 -954428 L-105072 -954428 L-104696 -959190 L-100443 -961571 L-99956 -725857 L-99937 -725857 L-99858 -728238 L-99782 -730619 L-99763 -973476 L-98950 -975857 L-98196 -980619 L-96977 -983000 L-95545 -983000 L-95449 -985380 L-95274 -985380 L-94920 -990142 L-93611 -992523 L-91753 -994904 L-90051 -999666 L-89548 -1002047 L-89283 -1004428 L-88890 -1006809 L-88755 -1009190 L-87846 -1011571 L-87469 -1013952 L-86541 -1013952 L-86202 -1016333 L-86162 -1016333 L-86124 -1018714 L-84209 -1018714 L-84035 -1021095 L-82506 -1021095 L-82178 -1023476 L-82062 -1025857 L-81655 -1030619 L-81307 -1033000 L-79663 -1037761 L-79112 -1040142 L-78869 -1042523 L-78328 -1044904 L-77497 -1049666 L-76955 -1052047 L-75420 -1056809 L-75328 -1059190 L-75291 -1061571 L-75155 -1063952 L-74768 -1066333 L-73743 -1068714 L-71867 -1071095 L-71770 -1073476 L-71170 -997285 L-70803 -916333 L-70318 -833000 L-70280 -752047 L-69507 -747285 L-69449 -749666 L-69275 -754428 L-69081 -756809 L-67476 -761571 L-67456 -763952 L-67301 -759190 L-67185 -756809 L-66006 -754428 L-65851 -747285 L-65184 -747285 L-62736 -552047 L-60221 -352047 L-57551 -159190 L-49852 33666 L-44184 33666 L-41970 31285 L-41946 31285 L-40972 78904 L-40952 78904 L-40089 74142 L-37348 71761 L-31550 21761 L-31396 17000 L-28611 14619 L-15002 9857 L-14256 7476 L-9846 2714 L6500 333" />
</svg>
