<svg xmlns="http://www.w3.org/2000/svg" version="1.1" viewBox="0 0 6500 1000">
	<path fill="none" stroke="gold" stroke-width="125" stroke-linecap="round" stroke-linejoin="round" d="M0 11038  L-730385 11038 L-727781 11038 L-726113 11037 L-707783 11036 L-707613 11035 L-700455 11034 L-700422 11034 L-686991 11034 L-684069 11034 L-670728 11033 L-666559 11031 L-665399 11029 L-664780 11027 L-662768 11025 L-658996 11024 L-658396 11023 L-658068 11022 L-657855 11021 L-657313 11020 L-656075 11017 L-654896 11013 L-652032 11009 L-651509 11006 L-646654 11005 L-643717 11004 L-643674 11003 L-643365 11002 L-643113 11001 L-640519 11000 L-636263 11000 L-636245 11000 L-635008 11000 L-633131 11000 L-631177 10999 L-630229 10998 L-629959 10997 L-629649 10997 L-629551 10996 L-628720 10996 L-626689 10997 L-626399 10993 L-624253 10991 L-624097 10988 L-620441 10985 L-620190 10986 L-620091 10986 L-619574 10987 L-617423 10990 L-616494 10992 L-614968 10994 L-613729 10994 L-612182 10994 L-609220 10993 L-608099 10992 L-607789 10991 L-606578 10991 L-603571 10996 L-603552 10995 L-603204 10995 L-602991 10994 L-602865 10988 L-602624 10987 L-602586 10986 L-602566 10985 L-602547 10984 L-602488 10983 L-602429 10982 L-602411 10981 L-601968 10980 L-600729 10979 L-599183 10979 L-595795 10978 L-590069 10977 L-589867 10977 L-588231 10976 L-586510 10976 L-585077 10975 L-584845 10975 L-584130 10974 L-577998 10974 L-577630 10973 L-577475 10972 L-576897 10971 L-576605 10970 L-575637 10969 L-575328 10968 L-574729 10967 L-573122 10967 L-572387 10967 L-572077 10968 L-571309 10968 L-569273 10967 L-568848 10966 L-568035 10965 L-560607 10965 L-560084 10964 L-559910 10963 L-559175 10962 L-557607 10961 L-557202 10960 L-554977 10959 L-554029 10959 L-553604 10958 L-553273 10958 L-552230 10958 L-550122 10957 L-549869 10956 L-549250 10955 L-548438 10955 L-546330 10954 L-546281 10953 L-544353 10952 L-544027 10951 L-543892 10950 L-543389 10950 L-541977 10949 L-541474 10947 L-540952 10945 L-537392 10944 L-536657 10942 L-534232 10942 L-532943 10941 L-532536 10940 L-529383 10940 L-529229 10940 L-529208 10941 L-528842 10941 L-527584 10941 L-526869 10942 L-525979 10942 L-525572 10942 L-524643 10942 L-523534 10941 L-523231 10943 L-516982 10944 L-516035 10945 L-514409 10946 L-513907 10946 L-510231 10947 L-509399 10947 L-505446 10948 L-504034 10946 L-501545 10945 L-500868 10945 L-500830 10944 L-499959 10944 L-496748 10944 L-493884 10943 L-492917 10943 L-491795 10942 L-491776 10941 L-490151 10940 L-489687 10938 L-489595 10938 L-483226 10938 L-482277 10937 L-479820 10937 L-478948 10936 L-477712 10935 L-475711 10935 L-475313 10934 L-473877 10933 L-471851 10932 L-471637 10931 L-470457 10931 L-468949 10931 L-468929 10930 L-466916 10930 L-466047 10929 L-465176 10928 L-464591 10927 L-464054 10926 L-463396 10925 L-462158 10924 L-461598 10924 L-460416 10924 L-459179 10923 L-459140 10923 L-458753 10922 L-458212 10921 L-457438 10921 L-456316 10920 L-454227 10919 L-453893 10918 L-453607 10917 L-452679 10917 L-452196 10916 L-451460 10916 L-447829 10915 L-446701 10915 L-446547 10914 L-445521 10913 L-441806 10913 L-440589 10912 L-438770 10911 L-435984 10910 L-435423 10910 L-431535 10910 L-429059 10909 L-427724 10909 L-427220 10909 L-426737 10908 L-424048 10908 L-420276 10908 L-417819 10908 L-416639 10908 L-416000 10908 L-413640 10907 L-413563 10906 L-412515 10906 L-412422 10905 L-411919 10905 L-411474 10905 L-411416 10905 L-411202 10905 L-408243 10904 L-405535 10903 L-405380 10903 L-401859 10903 L-401337 10902 L-400369 10901 L-400020 10900 L-398977 10899 L-398048 10898 L-397622 10898 L-396113 10898 L-395146 10897 L-395127 10897 L-393231 10863 L-393115 10828 L-393067 10793 L-393043 10759 L-390039 10759 L-388008 10758 L-386247 10757 L-385880 10757 L-385435 10756 L-385068 10755 L-384654 10754 L-382669 10754 L-382456 10754 L-382301 10753 L-380696 10753 L-379574 10753 L-378626 10752 L-377368 10752 L-375724 10751 L-374544 10750 L-367955 10750 L-367908 10749 L-367502 10749 L-366457 10748 L-366322 10748 L-364639 10747 L-364619 10746 L-363282 10745 L-362046 10745 L-361892 10745 L-361518 10744 L-361312 10743 L-361002 10743 L-360229 10742 L-357907 10741 L-357249 10741 L-355121 10740 L-353399 10740 L-353206 10739 L-350652 10738 L-350376 10738 L-350188 10737 L-349355 10736 L-348583 10736 L-347885 10735 L-342884 10735 L-342508 10734 L-338255 10734 L-337768 10780 L-337749 10780 L-337670 10780 L-337595 10779 L-337575 10731 L-336762 10731 L-336008 10730 L-334789 10730 L-333357 10730 L-333261 10729 L-333087 10729 L-332732 10728 L-331423 10728 L-329566 10727 L-327863 10726 L-327360 10726 L-327095 10725 L-326702 10725 L-326568 10725 L-325658 10724 L-325282 10724 L-324353 10724 L-324014 10723 L-323974 10723 L-323937 10723 L-322021 10723 L-321848 10722 L-320319 10722 L-319991 10722 L-319875 10721 L-319467 10720 L-319119 10720 L-317476 10719 L-316925 10718 L-316682 10718 L-316140 10718 L-315309 10717 L-314767 10716 L-313233 10715 L-313140 10715 L-313103 10714 L-312968 10714 L-312580 10713 L-311556 10713 L-309679 10712 L-309583 10712 L-308982 10727 L-308615 10743 L-308131 10759 L-308093 10775 L-307319 10776 L-307261 10775 L-307087 10774 L-306893 10774 L-305288 10773 L-305268 10773 L-305113 10773 L-304997 10774 L-303818 10774 L-303663 10776 L-302996 10776 L-300548 10814 L-298033 10853 L-295363 10891 L-287664 10929 L-281996 10929 L-279782 10928 L-279758 10928 L-278785 10938 L-278765 10938 L-277901 10937 L-275161 10936 L-269362 10926 L-269209 10925 L-266423 10925 L-252815 10924 L-252069 10924 L-247658 10923 L-231312 10922 L-231080 10921 L-230543 10921 L-222083 10920 L-213378 10920 L-213165 10919 L-211193 10919 L-208407 10919 L-203919 10919 L-203764 10919 L-203595 10919 L-203455 10918 L-203164 10917 L-203125 10917 L-202855 10917 L-202683 10916 L-202273 10916 L-201152 10915 L-199972 10915 L-198695 10914 L-195831 10914 L-192911 10913 L-190919 10913 L-189371 10912 L-186333 10911 L-177009 10911 L-176485 10910 L-170761 10910 L-169254 10910 L-168439 10910 L-166756 10909 L-166035 10909 L-165866 10908 L-164821 10908 L-162754 10907 L-161392 10907 L-156949 10906 L-156851 10906 L-156813 10905 L-156794 10905 L-155961 10904 L-155884 10903 L-153311 10903 L-150062 10903 L-149907 10902 L-148959 10902 L-147218 10901 L-146502 10903 L-142962 10906 L-136384 10909 L-134967 10912 L-134946 10912 L-133996 10911 L-130521 10911 L-129768 10910 L-129206 10910 L-128424 10909 L-120920 10909 L-119322 10908 L-117748 10908 L-114562 10907 L-110229 10907 L-101660 10906 L-92913 10906 L-89839 10906 L-86573 10905 L-86027 10904 L-78890 10904 L-73222 10904 L-59158 10904 L-53146 10904 L-48440 10904 L-44437 10903 L-39329 10903 L-29615 10902 L-14045 10901 L-10962 10900 L-10660 10690 L-10640 10432 L-10621 10139 L-10602 9811 L-10582 9661 L-10563 9535 L-10544 9419 L-10516 9305 L-10496 9194 L-10468 9076 L-10432 8947 L-10419 8837 L-10406 8743 L-10387 8664 L-10369 8607 L-10349 8548 L-10330 8488 L-10311 8429 L-10291 8369 L-10270 8307 L-10253 8246 L-10235 8187 L-10214 8130 L-10194 8072 L-10176 8010 L-10157 7946 L-10137 7879 L-10117 7815 L-10098 7753 L-10080 7694 L-10058 7637 L-10034 7579 L-10019 7526 L-10002 7472 L-9982 7417 L-9963 7365 L-9944 7307 L-9925 7249 L-9905 7193 L-9884 7141 L-9866 7089 L-9847 7042 L-9827 6997 L-9806 6954 L-9789 6917 L-9770 6881 L-9750 6845 L-9731 6812 L-9712 6779 L-9693 6749 L-9673 6723 L-9653 6699 L-9634 6674 L-9615 6649 L-9588 6618 L-9567 6585 L-9539 6549 L-9505 6509 L-9491 6475 L-9478 6447 L-9459 6420 L-9440 6398 L-9420 6373 L-9402 6346 L-9383 6319 L-9363 6291 L-9342 6266 L-9325 6243 L-9306 6218 L-9286 6192 L-9266 6163 L-9247 6130 L-9229 6095 L-9209 6059 L-9189 6022 L-9170 5985 L-9151 5947 L-9130 5905 L-9106 5859 L-9091 5814 L-9074 5771 L-9054 5729 L-9035 5686 L-9015 5642 L-8996 5595 L-8976 5551 L-8956 5507 L-8938 5465 L-8919 5423 L-8899 5383 L-8878 5343 L-8861 5306 L-8842 5272 L-8822 5237 L-8803 5207 L-8783 5176 L-8764 5144 L-8744 5114 L-8725 5082 L-8706 5052 L-8687 5021 L-8658 4990 L-8638 4962 L-8611 4933 L-8573 4897 L-8558 4864 L-8546 4832 L-8529 4804 L-8512 4782 L-8492 4763 L-8473 4744 L-8454 4727 L-8434 4710 L-8413 4692 L-8396 4672 L-8377 4651 L-8357 4630 L-8337 4608 L-8319 4584 L-8300 4559 L-8280 4533 L-8260 4505 L-8241 4476 L-8223 4449 L-8202 4423 L-8177 4395 L-8163 4368 L-8145 4341 L-8125 4312 L-8106 4286 L-8087 4257 L-8068 4227 L-8048 4197 L-8027 4169 L-8009 4140 L-7990 4115 L-7970 4089 L-7950 4065 L-7932 4042 L-7913 4019 L-7893 3995 L-7874 3972 L-7855 3948 L-7836 3926 L-7816 3904 L-7797 3883 L-7777 3862 L-7758 3840 L-7730 3818 L-7710 3796 L-7682 3770 L-7646 3736 L-7632 3704 L-7619 3673 L-7601 3647 L-7583 3630 L-7563 3612 L-7545 3590 L-7525 3568 L-7505 3544 L-7484 3518 L-7466 3490 L-7449 3462 L-7428 3431 L-7408 3399 L-7390 3366 L-7371 3331 L-7351 3295 L-7331 3262 L-7313 3231 L-7294 3205 L-7273 3185 L-7248 3168 L-7233 3152 L-7216 3135 L-7197 3117 L-7177 3099 L-7158 3080 L-7139 3062 L-7119 3045 L-7098 3031 L-7081 3017 L-7062 3001 L-7041 2981 L-7020 2957 L-7003 2935 L-6984 2917 L-6964 2903 L-6946 2893 L-6926 2882 L-6907 2872 L-6887 2860 L-6868 2847 L-6848 2834 L-6830 2822 L-6802 2810 L-6781 2799 L-6754 2786 L-6719 2770 L-6705 2757 L-6692 2746 L-6673 2736 L-6654 2727 L-6635 2718 L-6616 2708 L-6597 2699 L-6577 2691 L-6556 2682 L-6539 2673 L-6520 2664 L-6499 2653 L-6479 2642 L-6461 2631 L-6443 2621 L-6423 2613 L-6402 2604 L-6384 2595 L-6365 2586 L-6344 2577 L-6319 2569 L-6305 2561 L-6288 2553 L-6268 2545 L-6249 2536 L-6229 2527 L-6210 2516 L-6191 2506 L-6170 2496 L-6152 2487 L-6133 2479 L-6113 2470 L-6092 2462 L-6075 2454 L-6056 2445 L-6036 2438 L-6017 2430 L-5997 2422 L-5979 2416 L-5958 2411 L-5939 2405 L-5920 2399 L-5901 2409 L-5872 2418 L-5853 2428 L-5825 2436 L-5787 2428 L-5772 2421 L-5759 2415 L-5742 2410 L-5726 2405 L-5706 2400 L-5688 2395 L-5668 2389 L-5648 2384 L-5627 2380 L-5610 2375 L-5592 2371 L-5571 2365 L-5551 2360 L-5533 2354 L-5514 2349 L-5494 2343 L-5474 2337 L-5456 2332 L-5437 2328 L-5416 2323 L-5391 2319 L-5376 2314 L-5359 2308 L-5339 2302 L-5320 2297 L-5301 2292 L-5282 2286 L-5262 2280 L-5241 2272 L-5224 2264 L-5205 2257 L-5184 2250 L-5163 2244 L-5146 2237 L-5127 2230 L-5107 2224 L-5088 2218 L-5069 2211 L-5050 2204 L-5030 2196 L-5010 2190 L-4991 2185 L-4973 2180 L-4945 2174 L-4924 2168 L-4896 2161 L-4861 2154 L-4848 2147 L-4835 2142 L-4816 2136 L-4797 2130 L-4777 2125 L-4759 2120 L-4739 2114 L-4720 2108 L-4699 2102 L-4682 2097 L-4663 2091 L-4642 2085 L-4622 2078 L-4604 2070 L-4585 2061 L-4566 2052 L-4545 2043 L-4527 2034 L-4508 2027 L-4487 2020 L-4462 2011 L-4447 2003 L-4430 1994 L-4411 1986 L-4391 1978 L-4372 1970 L-4353 1961 L-4333 1953 L-4312 1945 L-4295 1938 L-4276 1931 L-4255 1923 L-4235 1917 L-4218 1911 L-4199 1905 L-4179 1900 L-4160 1895 L-4140 1890 L-4121 1885 L-4102 1881 L-4082 1877 L-4063 1873 L-4044 1869 L-4016 1865 L-3996 1860 L-3968 1855 L-3932 1847 L-3919 1839 L-3905 1831 L-3887 1823 L-3869 1818 L-3849 1813 L-3830 1807 L-3811 1803 L-3791 1798 L-3770 1792 L-3753 1786 L-3734 1780 L-3714 1774 L-3694 1767 L-3676 1760 L-3657 1754 L-3637 1747 L-3616 1740 L-3599 1734 L-3580 1729 L-3558 1724 L-3533 1719 L-3519 1714 L-3502 1709 L-3482 1703 L-3463 1697 L-3444 1690 L-3425 1683 L-3405 1674 L-3383 1664 L-3366 1656 L-3347 1649 L-3327 1642 L-3306 1635 L-3289 1630 L-3270 1626 L-3250 1622 L-3231 1619 L-3212 1614 L-3193 1610 L-3173 1606 L-3153 1601 L-3134 1598 L-3115 1594 L-3088 1590 L-3067 1587 L-3039 1582 L-3005 1579 L-2991 1575 L-2978 1571 L-2959 1568 L-2940 1565 L-2921 1561 L-2902 1558 L-2883 1555 L-2863 1553 L-2842 1550 L-2825 1547 L-2806 1544 L-2786 1540 L-2766 1536 L-2747 1533 L-2729 1530 L-2708 1527 L-2688 1525 L-2670 1522 L-2651 1520 L-2630 1518 L-2605 1515 L-2591 1511 L-2573 1508 L-2554 1504 L-2535 1502 L-2515 1498 L-2496 1496 L-2476 1491 L-2456 1486 L-2438 1479 L-2419 1473 L-2399 1466 L-2378 1460 L-2360 1456 L-2341 1452 L-2322 1447 L-2303 1443 L-2283 1438 L-2264 1434 L-2244 1430 L-2225 1427 L-2206 1423 L-2187 1421 L-2158 1418 L-2110 1415 L-2074 1411 L-2059 1408 L-2046 1404 L-2029 1401 L-2012 1400 L-1992 1399 L-1973 1396 L-1954 1394 L-1934 1391 L-1914 1388 L-1896 1387 L-1877 1385 L-1857 1383 L-1837 1380 L-1819 1377 L-1800 1374 L-1780 1371 L-1760 1368 L-1742 1365 L-1723 1361 L-1701 1357 L-1677 1351 L-1662 1346 L-1645 1341 L-1625 1336 L-1606 1332 L-1587 1327 L-1568 1323 L-1548 1319 L-1527 1314 L-1509 1309 L-1490 1305 L-1470 1301 L-1450 1297 L-1432 1294 L-1413 1291 L-1393 1288 L-1374 1285 L-1354 1282 L-1336 1278 L-1316 1275 L-1296 1271 L-1277 1268 L-1258 1264 L-1230 1261 L-1210 1257 L-1182 1252 L-1145 1245 L-1131 1237 L-1118 1231 L-1100 1225 L-1083 1222 L-1063 1218 L-1045 1215 L-1025 1213 L-1005 1210 L-984 1208 L-967 1204 L-949 1200 L-928 1195 L-908 1190 L-890 1184 L-871 1177 L-851 1170 L-830 1164 L-813 1159 L-794 1154 L-773 1149 L-748 1144 L-733 1139 L-715 1135 L-697 1131 L-676 1127 L-658 1123 L-639 1117 L-619 1112 L-597 1106 L-581 1102 L-561 1098 L-541 1094 L-520 1090 L-503 1086 L-484 1082 L-465 1078 L-445 1075 L-426 1071 L-407 1068 L-387 1064 L-367 1061 L-348 1058 L-330 1055 L-302 3527 L-281 3524 L-253 3519 L-218 3513 L-204 1033 L-190 1028 L-172 1024 L-154 1022 L-135 1019 L-116 1017 L-97 1014 L-77 1010 L-55 1005 L-39 1000 L-20 995 L0 989 L20 983 L38 977 L57 970 L76 963 L97 959 L115 954 L134 951 L155 947 L180 941 L195 935 L225 928 L264 920 L287 913 L317 905 L333 898 L347 892 L366 887 L387 884 L407 881 L424 877 L443 873 L463 870 L482 868 L502 866 L521 864 L540 861 L561 858 L579 855 L598 852 L626 849 L646 845 L674 842 L709 838 L723 834 L755 830 L773 827 L793 824 L812 822 L831 820 L851 817 L872 815 L889 812 L907 806 L928 797 L949 786 L966 774 L985 763 L1005 754 L1025 747 L1043 740 L1062 734 L1084 731 L1109 726 L1124 722 L1141 717 L1160 712 L1180 707 L1198 703 L1218 699 L1237 693 L1259 688 L1275 683 L1295 678 L1315 675 L1336 671 L1353 668 L1372 665 L1392 662 L1411 659 L1430 655 L1449 652 L1469 648 L1489 645 L1508 642 L1526 639 L1554 637 L1575 633 L1645 627 L1673 619 L1687 611 L1702 604 L1722 600 L1740 596 L1759 592 L1779 587 L1800 583 L1817 580 L1836 577 L1857 576 L1877 573 L1895 569 L1914 565 L1934 561 L1954 556 L1972 551 L1991 548 L2012 545 L2037 542 L2052 538 L2070 535 L2088 530 L2108 525 L2127 521 L2146 516 L2166 513 L2187 510 L2204 507 L2223 504 L2244 501 L2265 498 L2281 494 L2340 491 L2359 487 L2378 485 L2398 482 L2418 479 L2437 477 L2455 475 L2483 473 L2503 471 L2531 469 L2568 466 L2582 463 L2595 461 L2613 459 L2630 458 L2650 456 L2669 454 L2688 453 L2708 452 L2729 451 L2746 449 L2765 448 L2785 446 L2805 444 L2824 442 L2842 439 L2862 436 L2883 434 L2901 431 L2919 429 L2941 426 L2966 424 L2980 423 L2997 420 L3017 418 L3037 416 L3055 413 L3075 410 L3094 406 L3116 403 L3133 399 L3152 397 L3172 395 L3193 394 L3210 392 L3229 390 L3249 388 L3268 387 L3287 386 L3306 384 L3326 383 L3346 382 L3365 381 L3384 379 L3411 378 L3432 376 L3460 374 L3495 372 L3509 370 L3522 368 L3540 367 L3559 365 L3579 363 L3597 361 L3636 360 L3657 358 L3674 357 L3693 355 L3713 352 L3733 349 L3752 346 L3770 343 L3790 342 L3810 340 L3829 337 L3848 335 L3869 334 L3893 332 L3908 330 L3925 329 L3945 327 L3964 325 L3984 322 L4003 320 L4023 318 L4043 316 L4061 314 L4080 312 L4101 310 L4121 308 L4138 306 L4157 304 L4178 302 L4196 301 L4216 300 L4235 298 L4255 297 L4274 295 L4293 294 L4312 292 L4341 290 L4389 288 L4426 287 L4441 285 L4454 283 L4471 282 L4487 280 L4507 280 L4526 278 L4545 277 L4565 276 L4586 275 L4603 275 L4622 274 L4642 274 L4662 273 L4680 272 L4699 271 L4719 270 L4739 268 L4757 267 L4776 265 L4798 263 L4822 261 L4837 259 L4854 256 L4874 253 L4893 250 L4912 246 L4931 241 L4951 237 L4972 233 L4990 230 L5009 226 L5029 223 L5049 219 L5067 216 L5086 212 L5106 208 L5125 205 L5144 202 L5163 200 L5183 197 L5203 193 L5222 189 L5241 184 L5269 180 L5289 177 L5317 175 L5354 172 L5369 170 L5382 167 L5399 164 L5416 162 L5436 160 L5454 158 L5474 156 L5494 154 L5515 151 L5532 148 L5550 145 L5571 142 L5592 139 L5609 136 L5629 133 L5648 131 L5669 129 L5686 125 L5705 122 L5727 119 L5751 116 L5767 112 L5784 108 L5803 105 L5823 102 L5841 98 L5861 95 L5880 91 L5902 87 L5918 82 L5938 78 L5958 74 L5979 71 L5996 69 L6015 67 L6035 65 L6054 63 L6073 60 L6092 58 L6112 55 L6131 52 L6150 50 L6169 47 L6218 44 L6245 41 L6278 37 L6293 33 L6305 30 L6324 27 L6344 25 L6364 22 L6383 19 L6402 16 L6422 14 L6443 12 L6460 9 L6479 7 L6500 5" />
</svg>
