<svg xmlns="http://www.w3.org/2000/svg" version="1.1" viewBox="0 0 6500 1000">
	<path fill="none" stroke="gold" stroke-width="125" stroke-linecap="round" stroke-linejoin="round" d="M0 3391  L-727001 3391 L-724397 3391 L-722729 3391 L-704399 3390 L-704229 3390 L-697071 3390 L-697038 3390 L-683607 3390 L-680685 3390 L-667344 3389 L-663175 3389 L-662015 3388 L-661396 3387 L-659384 3387 L-655613 3386 L-655013 3386 L-654684 3386 L-654471 3386 L-653929 3385 L-652691 3384 L-651512 3383 L-648648 3382 L-648126 3381 L-643270 3380 L-640333 3380 L-640290 3380 L-639982 3379 L-639730 3379 L-637135 3379 L-632879 3379 L-632861 3379 L-631625 3379 L-629747 3379 L-627794 3378 L-626846 3378 L-626575 3378 L-626265 3378 L-626167 3378 L-625337 3378 L-623306 3378 L-623015 3376 L-620869 3376 L-620713 3375 L-617057 3374 L-616806 3374 L-616707 3374 L-616190 3375 L-614039 3375 L-613110 3376 L-611584 3377 L-610345 3377 L-608798 3377 L-605837 3376 L-604715 3376 L-604406 3376 L-603194 3376 L-600188 3377 L-600168 3377 L-599821 3377 L-599607 3377 L-599481 3375 L-599240 3375 L-599202 3374 L-599182 3374 L-599163 3374 L-599104 3373 L-599045 3373 L-599027 3373 L-598584 3372 L-597345 3372 L-595799 3372 L-592411 3372 L-586685 3371 L-586484 3371 L-584848 3371 L-583126 3371 L-581694 3371 L-581461 3371 L-580746 3371 L-574614 3370 L-574246 3370 L-574092 3370 L-573513 3370 L-573221 3369 L-572253 3369 L-571944 3369 L-571345 3368 L-569739 3368 L-569003 3368 L-568694 3368 L-567925 3368 L-565889 3368 L-565464 3368 L-564651 3368 L-557223 3367 L-556700 3367 L-556526 3367 L-555791 3367 L-554223 3366 L-553818 3366 L-551593 3366 L-550645 3366 L-550220 3365 L-549890 3365 L-548846 3365 L-546738 3365 L-546486 3365 L-545867 3364 L-545054 3364 L-542946 3364 L-542898 3364 L-540969 3363 L-540644 3363 L-540509 3363 L-540005 3363 L-538593 3362 L-538090 3362 L-537568 3361 L-534008 3361 L-533273 3360 L-530848 3360 L-529559 3360 L-529152 3360 L-526000 3360 L-525845 3360 L-525825 3360 L-525458 3360 L-524200 3360 L-523485 3360 L-522595 3360 L-522188 3360 L-521259 3360 L-520151 3360 L-519847 3361 L-513599 3361 L-512651 3361 L-511025 3361 L-510523 3362 L-506848 3362 L-506015 3362 L-502062 3362 L-500650 3362 L-498161 3361 L-497485 3361 L-497446 3361 L-496575 3361 L-493364 3361 L-490501 3361 L-489533 3360 L-488411 3360 L-488392 3360 L-486767 3360 L-486303 3359 L-486211 3359 L-479842 3359 L-478893 3359 L-476436 3359 L-475564 3358 L-474328 3358 L-472327 3358 L-471929 3358 L-470493 3357 L-468467 3357 L-468253 3357 L-467073 3357 L-465565 3357 L-465545 3356 L-463533 3356 L-462663 3356 L-461792 3356 L-461207 3356 L-460670 3355 L-460012 3355 L-458774 3355 L-458214 3355 L-457033 3354 L-455795 3354 L-455757 3354 L-455370 3354 L-454828 3354 L-454054 3353 L-452932 3353 L-450843 3353 L-450509 3353 L-450224 3352 L-449295 3352 L-448812 3352 L-448076 3352 L-444445 3352 L-443318 3352 L-443163 3351 L-442137 3351 L-438422 3351 L-437205 3351 L-435386 3350 L-432601 3350 L-432039 3350 L-428151 3350 L-425675 3350 L-424340 3350 L-423836 3350 L-423353 3349 L-420664 3349 L-416892 3349 L-414435 3349 L-413255 3349 L-412616 3349 L-410257 3349 L-410179 3349 L-409132 3349 L-409038 3348 L-408535 3348 L-408090 3348 L-408032 3348 L-407818 3348 L-404859 3348 L-402151 3348 L-401996 3348 L-398476 3348 L-397953 3347 L-396985 3347 L-396636 3347 L-395593 3347 L-394664 3346 L-394239 3346 L-392729 3346 L-391763 3346 L-391744 3346 L-389848 3335 L-389732 3324 L-389684 3313 L-389659 3302 L-386655 3302 L-384624 3301 L-382864 3301 L-382497 3301 L-382051 3301 L-381684 3301 L-381270 3300 L-379285 3300 L-379072 3300 L-378917 3300 L-377312 3300 L-376190 3300 L-375242 3300 L-373984 3300 L-372340 3299 L-371160 3299 L-364571 3299 L-364524 3299 L-364118 3299 L-363073 3299 L-362938 3298 L-361255 3298 L-361235 3298 L-359899 3298 L-358662 3297 L-358508 3297 L-358134 3297 L-357928 3297 L-357619 3297 L-356845 3296 L-354523 3296 L-353865 3296 L-351738 3296 L-350015 3296 L-349822 3296 L-347268 3295 L-346992 3295 L-346804 3295 L-345971 3295 L-345199 3294 L-344501 3294 L-339500 3294 L-339124 3294 L-334872 3294 L-334384 3309 L-334365 3309 L-334286 3308 L-334211 3308 L-334191 3293 L-333378 3293 L-332625 3293 L-331405 3293 L-329974 3293 L-329877 3292 L-329703 3292 L-329348 3292 L-328039 3292 L-326182 3292 L-324480 3292 L-323977 3291 L-323711 3291 L-323318 3291 L-323184 3291 L-322274 3291 L-321898 3291 L-320969 3291 L-320630 3290 L-320591 3290 L-320553 3290 L-318637 3290 L-318464 3290 L-316935 3290 L-316607 3290 L-316491 3290 L-316084 3290 L-315735 3289 L-314092 3289 L-313541 3289 L-313298 3289 L-312756 3289 L-311925 3288 L-311383 3288 L-309849 3288 L-309757 3288 L-309720 3288 L-309584 3288 L-309197 3287 L-308172 3287 L-306295 3287 L-306199 3287 L-305599 3292 L-305232 3297 L-304747 3302 L-304709 3307 L-303935 3307 L-303878 3307 L-303703 3307 L-303510 3307 L-301904 3306 L-301884 3306 L-301729 3307 L-301614 3307 L-300434 3307 L-300279 3307 L-299612 3307 L-297164 3319 L-294649 3332 L-291980 3344 L-284280 3356 L-278613 3356 L-276398 3356 L-276375 3356 L-275401 3359 L-275381 3359 L-274517 3359 L-271777 3358 L-265978 3355 L-265825 3355 L-263039 3355 L-249431 3355 L-248685 3354 L-244274 3354 L-227928 3354 L-227696 3354 L-227159 3353 L-218699 3353 L-209994 3353 L-209781 3353 L-207809 3353 L-205023 3353 L-200535 3353 L-200380 3353 L-200211 3353 L-200071 3353 L-199780 3352 L-199742 3352 L-199471 3352 L-199299 3352 L-198889 3352 L-197768 3352 L-196588 3352 L-195311 3351 L-192447 3351 L-189527 3351 L-187535 3351 L-185988 3351 L-182950 3350 L-173625 3350 L-173101 3350 L-167377 3350 L-165870 3350 L-165056 3350 L-163372 3350 L-162651 3350 L-162483 3349 L-161438 3349 L-159370 3349 L-158008 3349 L-153565 3349 L-153468 3349 L-153429 3349 L-153410 3348 L-152578 3348 L-152500 3348 L-149927 3348 L-146678 3348 L-146523 3348 L-145575 3347 L-143834 3347 L-143118 3348 L-139578 3349 L-133000 3350 L-131583 3351 L-131562 3351 L-130612 3350 L-127137 3350 L-126384 3350 L-125823 3350 L-125041 3350 L-117536 3350 L-115938 3349 L-114364 3349 L-111179 3349 L-106846 3349 L-98276 3349 L-89530 3349 L-86456 3349 L-83190 3348 L-82643 3348 L-75506 3348 L-69838 3348 L-55774 3348 L-49763 3348 L-45056 3348 L-41053 3348 L-35945 3348 L-26231 3348 L-10661 3347 L-7578 3347 L-7276 3280 L-7256 3198 L-7237 3104 L-7218 3000 L-7198 2952 L-7179 2912 L-7160 2875 L-7133 2838 L-7112 2803 L-7084 2766 L-7049 2724 L-7035 2689 L-7022 2659 L-7003 2634 L-6985 2616 L-6965 2597 L-6947 2578 L-6927 2559 L-6907 2540 L-6886 2520 L-6869 2501 L-6851 2482 L-6830 2464 L-6810 2446 L-6792 2426 L-6773 2405 L-6753 2384 L-6733 2364 L-6715 2344 L-6696 2325 L-6675 2307 L-6650 2288 L-6635 2271 L-6618 2254 L-6598 2237 L-6579 2220 L-6560 2202 L-6541 2183 L-6521 2165 L-6500 2149 L-6483 2132 L-6464 2117 L-6443 2103 L-6423 2089 L-6405 2077 L-6386 2066 L-6366 2055 L-6348 2044 L-6328 2033 L-6309 2024 L-6289 2016 L-6269 2008 L-6250 2000 L-6232 1992 L-6204 1982 L-6183 1972 L-6156 1960 L-6122 1947 L-6107 1937 L-6094 1927 L-6076 1919 L-6057 1912 L-6037 1904 L-6018 1895 L-5999 1887 L-5979 1878 L-5958 1870 L-5941 1863 L-5922 1855 L-5902 1846 L-5882 1837 L-5863 1827 L-5845 1815 L-5825 1804 L-5805 1792 L-5786 1780 L-5767 1768 L-5746 1755 L-5722 1740 L-5707 1726 L-5690 1712 L-5670 1699 L-5651 1685 L-5631 1671 L-5613 1656 L-5592 1642 L-5572 1628 L-5554 1614 L-5535 1601 L-5515 1589 L-5494 1576 L-5477 1564 L-5458 1553 L-5438 1542 L-5419 1532 L-5399 1522 L-5380 1512 L-5361 1503 L-5341 1493 L-5322 1483 L-5303 1473 L-5274 1463 L-5254 1454 L-5227 1445 L-5189 1434 L-5174 1423 L-5162 1413 L-5145 1404 L-5128 1397 L-5108 1391 L-5089 1385 L-5070 1379 L-5050 1374 L-5030 1368 L-5012 1362 L-4994 1355 L-4973 1348 L-4953 1341 L-4935 1334 L-4916 1326 L-4896 1318 L-4876 1309 L-4858 1300 L-4839 1291 L-4818 1283 L-4793 1274 L-4779 1265 L-4761 1256 L-4741 1247 L-4723 1239 L-4703 1230 L-4684 1220 L-4664 1211 L-4644 1202 L-4625 1192 L-4607 1184 L-4586 1176 L-4566 1168 L-4548 1161 L-4529 1154 L-4509 1146 L-4491 1139 L-4471 1131 L-4452 1124 L-4432 1117 L-4413 1110 L-4393 1104 L-4374 1097 L-4346 1090 L-4326 1083 L-4298 1074 L-4262 1064 L-4248 1053 L-4235 1044 L-4217 1035 L-4199 1030 L-4179 1024 L-4161 1017 L-4141 1010 L-4121 1002 L-4100 994 L-4082 985 L-4065 976 L-4044 967 L-4024 956 L-4006 946 L-3987 934 L-3967 923 L-3947 913 L-3929 903 L-3910 894 L-3889 888 L-3864 882 L-3849 877 L-3832 872 L-3813 866 L-3793 860 L-3774 854 L-3755 849 L-3735 843 L-3714 839 L-3697 835 L-3678 829 L-3657 823 L-3637 815 L-3620 808 L-3601 803 L-3580 798 L-3562 795 L-3542 792 L-3523 788 L-3503 784 L-3484 780 L-3465 776 L-3446 772 L-3418 768 L-3397 765 L-3370 761 L-3335 756 L-3321 752 L-3308 748 L-3289 745 L-3271 742 L-3251 739 L-3232 736 L-3213 733 L-3193 731 L-3172 728 L-3155 725 L-3136 722 L-3116 718 L-3096 715 L-3078 711 L-3059 708 L-3039 706 L-3019 703 L-3000 700 L-2982 697 L-2960 694 L-2935 692 L-2921 689 L-2904 687 L-2884 684 L-2865 681 L-2846 678 L-2827 675 L-2807 671 L-2786 669 L-2768 666 L-2749 663 L-2729 660 L-2708 658 L-2691 655 L-2672 652 L-2652 650 L-2633 647 L-2613 645 L-2595 643 L-2575 641 L-2555 639 L-2536 637 L-2517 641 L-2489 644 L-2469 647 L-2441 649 L-2404 647 L-2388 645 L-2376 643 L-2358 641 L-2342 640 L-2322 638 L-2304 636 L-2284 634 L-2264 633 L-2243 631 L-2226 630 L-2208 628 L-2187 627 L-2167 625 L-2149 623 L-2130 621 L-2110 620 L-2090 618 L-2072 616 L-2053 615 L-2032 613 L-2007 612 L-1992 610 L-1975 608 L-1956 607 L-1936 605 L-1917 603 L-1898 602 L-1878 599 L-1857 597 L-1840 594 L-1821 592 L-1800 590 L-1780 588 L-1762 586 L-1743 584 L-1723 582 L-1705 580 L-1685 577 L-1666 575 L-1646 573 L-1627 571 L-1607 569 L-1589 568 L-1561 566 L-1540 564 L-1512 562 L-1478 559 L-1464 557 L-1451 555 L-1432 554 L-1413 552 L-1393 550 L-1375 548 L-1356 547 L-1336 545 L-1315 543 L-1298 541 L-1279 539 L-1259 537 L-1239 535 L-1220 533 L-1202 530 L-1182 527 L-1161 524 L-1143 521 L-1125 519 L-1103 517 L-1078 514 L-1063 511 L-1046 508 L-1027 506 L-1007 503 L-988 501 L-969 498 L-949 495 L-929 493 L-911 491 L-892 488 L-871 486 L-851 484 L-834 482 L-815 480 L-795 479 L-776 477 L-756 475 L-738 474 L-718 472 L-698 471 L-679 470 L-660 469 L-632 467 L-612 466 L-584 464 L-548 461 L-535 459 L-522 456 L-503 454 L-485 452 L-465 451 L-447 449 L-427 447 L-407 446 L-386 444 L-369 442 L-351 440 L-330 438 L-310 436 L-292 434 L-273 432 L-253 430 L-233 428 L-215 426 L-196 424 L-174 422 L-150 421 L-135 419 L-118 417 L-98 416 L-79 414 L-60 412 L-41 409 L-21 406 L0 403 L16 401 L36 398 L56 396 L77 394 L94 392 L113 391 L133 390 L152 389 L171 387 L190 386 L210 385 L230 383 L249 382 L267 381 L295 380 L316 379 L343 377 L378 376 L392 375 L405 374 L424 373 L443 372 L462 371 L481 369 L500 369 L520 368 L541 367 L558 366 L577 365 L597 364 L617 362 L636 361 L654 360 L674 360 L694 359 L713 358 L732 357 L753 357 L777 356 L792 355 L809 353 L829 352 L848 351 L868 350 L886 350 L906 348 L927 346 L945 344 L964 342 L984 340 L1005 338 L1022 337 L1041 336 L1061 334 L1080 333 L1100 331 L1119 330 L1138 329 L1158 328 L1177 327 L1196 326 L1225 325 L1272 324 L1309 323 L1324 321 L1337 320 L1354 320 L1371 319 L1391 319 L1409 318 L1429 317 L1449 316 L1469 315 L1487 315 L1505 314 L1526 314 L1545 313 L1564 312 L1583 311 L1603 310 L1623 309 L1641 308 L1660 307 L1681 305 L1706 304 L1721 302 L1738 300 L1758 299 L1777 297 L1796 296 L1815 295 L1835 293 L1856 292 L1874 290 L1892 289 L1913 287 L1933 286 L1951 285 L1970 284 L1990 283 L2009 282 L2028 281 L2047 280 L2067 279 L2086 278 L2106 277 L2125 276 L2153 275 L2173 273 L2201 272 L2238 270 L2252 267 L2265 265 L2283 263 L2300 262 L2320 261 L2338 260 L2358 259 L2378 259 L2399 258 L2416 257 L2434 255 L2455 254 L2475 252 L2493 250 L2512 248 L2532 246 L2553 244 L2570 242 L2589 241 L2610 239 L2635 237 L2650 236 L2668 235 L2686 233 L2707 232 L2725 231 L2744 229 L2764 227 L2785 226 L2802 224 L2822 223 L2842 222 L2863 220 L2879 219 L2899 218 L2918 217 L2937 216 L2957 214 L2976 213 L2996 212 L3016 211 L3035 210 L3053 209 L3081 997 L3102 996 L3129 995 L3165 993 L3179 202 L3193 201 L3210 199 L3228 198 L3248 198 L3267 197 L3286 196 L3306 195 L3327 193 L3344 191 L3363 190 L3383 188 L3404 186 L3422 184 L3441 182 L3460 180 L3481 178 L3499 177 L3517 176 L3539 175 L3564 173 L3579 171 L3608 169 L3648 166 L3671 164 L3701 161 L3717 159 L3731 157 L3750 156 L3770 155 L3791 154 L3808 152 L3827 151 L3847 150 L3866 149 L3886 149 L3904 148 L3924 147 L3944 146 L3963 145 L3982 144 L4009 143 L4030 142 L4058 141 L4093 140 L4107 139 L4138 137 L4157 136 L4177 136 L4195 135 L4215 134 L4235 133 L4256 133 L4273 132 L4291 130 L4312 127 L4332 123 L4350 120 L4369 116 L4389 113 L4409 111 L4427 109 L4446 107 L4468 106 L4492 104 L4507 103 L4525 101 L4543 100 L4563 98 L4582 97 L4602 96 L4621 94 L4642 92 L4659 90 L4679 89 L4699 88 L4720 87 L4737 86 L4756 85 L4776 84 L4795 83 L4814 82 L4833 81 L4853 79 L4873 78 L4892 78 L4910 77 L4938 76 L4959 75 L5029 73 L5057 70 L5071 68 L5085 65 L5106 64 L5124 63 L5143 62 L5163 60 L5184 59 L5201 58 L5220 57 L5240 56 L5261 56 L5279 54 L5298 53 L5318 52 L5338 50 L5356 49 L5375 47 L5396 47 L5421 46 L5436 44 L5453 43 L5472 42 L5492 40 L5511 39 L5530 37 L5550 36 L5571 36 L5588 34 L5607 34 L5627 33 L5649 32 L5665 30 L5723 29 L5743 28 L5761 27 L5781 26 L5801 26 L5820 25 L5839 24 L5867 23 L5887 23 L5915 22 L5952 21 L5966 21 L5979 20 L5996 19 L6014 19 L6034 18 L6052 18 L6072 17 L6092 17 L6113 16 L6130 16 L6148 16 L6169 15 L6189 14 L6207 14 L6226 13 L6246 12 L6267 11 L6284 10 L6303 10 L6325 9 L6350 8 L6364 8 L6381 7 L6401 6 L6421 5 L6439 5 L6458 4 L6478 2 L6500 1" />
</svg>
