<svg xmlns="http://www.w3.org/2000/svg" version="1.1" viewBox="0 0 6500 1000">
	<path fill="none" stroke="gold" stroke-width="125" stroke-linecap="round" stroke-linejoin="round" d="M0 1766  L-720557 1766 L-717953 1766 L-716285 1766 L-697956 1766 L-697786 1766 L-690628 1766 L-690595 1766 L-677164 1766 L-674242 1766 L-660901 1765 L-656732 1765 L-655572 1765 L-654953 1764 L-652941 1764 L-649169 1764 L-648569 1764 L-648241 1763 L-648027 1763 L-647486 1763 L-646248 1762 L-645069 1762 L-642204 1761 L-641682 1760 L-636827 1760 L-633889 1760 L-633846 1760 L-633538 1760 L-633286 1759 L-630691 1759 L-626436 1759 L-626418 1759 L-625181 1759 L-623304 1759 L-621350 1759 L-620402 1759 L-620131 1759 L-619822 1759 L-619723 1758 L-618893 1758 L-616862 1759 L-616572 1758 L-614425 1757 L-614270 1757 L-610614 1756 L-610363 1757 L-610264 1757 L-609747 1757 L-607596 1757 L-606667 1758 L-605141 1758 L-603901 1758 L-602355 1758 L-599393 1758 L-598271 1758 L-597962 1757 L-596751 1757 L-593744 1758 L-593725 1758 L-593377 1758 L-593164 1758 L-593038 1757 L-592796 1757 L-592758 1757 L-592739 1756 L-592719 1756 L-592660 1756 L-592602 1756 L-592584 1756 L-592141 1755 L-590901 1755 L-589356 1755 L-585968 1755 L-580242 1755 L-580040 1755 L-578404 1755 L-576682 1755 L-575250 1755 L-575018 1754 L-574303 1754 L-568170 1754 L-567803 1754 L-567648 1754 L-567070 1754 L-566777 1754 L-565810 1753 L-565500 1753 L-564901 1753 L-563295 1753 L-562560 1753 L-562250 1753 L-561482 1753 L-559446 1753 L-559020 1753 L-558208 1753 L-550779 1753 L-550256 1752 L-550083 1752 L-549348 1752 L-547780 1752 L-547374 1752 L-545149 1752 L-544201 1751 L-543776 1751 L-543446 1751 L-542402 1751 L-540294 1751 L-540042 1751 L-539423 1751 L-538610 1751 L-536503 1750 L-536454 1750 L-534526 1750 L-534200 1750 L-534065 1750 L-533562 1750 L-532149 1750 L-531646 1749 L-531125 1749 L-527565 1749 L-526830 1748 L-524405 1748 L-523116 1748 L-522709 1748 L-519556 1748 L-519401 1748 L-519381 1748 L-519015 1748 L-517756 1748 L-517041 1748 L-516151 1748 L-515744 1748 L-514816 1748 L-513707 1748 L-513404 1748 L-507155 1749 L-506208 1749 L-504582 1749 L-504080 1749 L-500404 1749 L-499572 1749 L-495619 1749 L-494207 1749 L-491718 1749 L-491041 1749 L-491002 1749 L-490132 1749 L-486920 1749 L-484057 1748 L-483089 1748 L-481968 1748 L-481949 1748 L-480324 1748 L-479860 1748 L-479768 1748 L-473398 1747 L-472450 1747 L-469993 1747 L-469121 1747 L-467885 1747 L-465883 1747 L-465486 1747 L-464049 1747 L-462023 1746 L-461810 1746 L-460630 1746 L-459122 1746 L-459101 1746 L-457089 1746 L-456220 1746 L-455349 1746 L-454764 1745 L-454227 1745 L-453569 1745 L-452331 1745 L-451770 1745 L-450589 1745 L-449352 1745 L-449313 1745 L-448926 1745 L-448385 1744 L-447611 1744 L-446489 1744 L-444399 1744 L-444066 1744 L-443780 1744 L-442852 1744 L-442368 1743 L-441633 1743 L-438002 1743 L-436874 1743 L-436719 1743 L-435693 1743 L-431979 1743 L-430761 1743 L-428943 1742 L-426157 1742 L-425596 1742 L-421708 1742 L-419231 1742 L-417896 1742 L-417393 1742 L-416910 1742 L-414221 1742 L-410449 1742 L-407992 1742 L-406812 1742 L-406173 1742 L-403813 1742 L-403736 1742 L-402688 1741 L-402595 1741 L-402092 1741 L-401646 1741 L-401589 1741 L-401375 1741 L-398415 1741 L-395708 1741 L-395553 1741 L-392032 1741 L-391509 1741 L-390542 1741 L-390193 1740 L-389149 1740 L-388221 1740 L-387795 1740 L-386286 1740 L-385319 1740 L-385300 1740 L-383404 1733 L-383288 1727 L-383240 1720 L-383216 1714 L-380212 1714 L-378181 1714 L-376420 1714 L-376053 1713 L-375608 1713 L-375241 1713 L-374827 1713 L-372842 1713 L-372629 1713 L-372474 1713 L-370868 1713 L-369747 1713 L-368798 1713 L-367541 1712 L-365896 1712 L-364717 1712 L-358127 1712 L-358081 1712 L-357675 1712 L-356630 1712 L-356494 1712 L-354812 1712 L-354792 1712 L-353455 1711 L-352219 1711 L-352065 1711 L-351691 1711 L-351485 1711 L-351175 1711 L-350401 1711 L-348080 1711 L-347422 1710 L-345294 1710 L-343572 1710 L-343378 1710 L-340825 1710 L-340549 1710 L-340360 1710 L-339528 1710 L-338756 1709 L-338057 1709 L-333057 1709 L-332681 1709 L-328428 1709 L-327941 1718 L-327922 1718 L-327843 1718 L-327767 1718 L-327748 1709 L-326935 1709 L-326181 1708 L-324962 1708 L-323530 1708 L-323434 1708 L-323259 1708 L-322905 1708 L-321596 1708 L-319738 1708 L-318036 1708 L-317533 1708 L-317268 1708 L-316875 1707 L-316741 1707 L-315831 1707 L-315454 1707 L-314526 1707 L-314187 1707 L-314147 1707 L-314110 1707 L-312194 1707 L-312020 1707 L-310492 1707 L-310163 1707 L-310047 1707 L-309640 1707 L-309292 1707 L-307648 1706 L-307097 1706 L-306854 1706 L-306313 1706 L-305482 1706 L-304940 1706 L-303405 1706 L-303313 1706 L-303276 1705 L-303140 1705 L-302753 1705 L-301728 1705 L-299852 1705 L-299756 1705 L-299155 1708 L-298788 1711 L-298304 1714 L-298265 1717 L-297492 1717 L-297434 1717 L-297260 1717 L-297066 1717 L-295461 1717 L-295441 1716 L-295286 1717 L-295170 1717 L-293991 1717 L-293836 1717 L-293169 1717 L-290721 1724 L-288206 1732 L-285536 1739 L-277837 1746 L-272169 1746 L-269955 1746 L-269931 1746 L-268957 1747 L-268937 1747 L-268074 1747 L-265334 1747 L-259535 1745 L-259382 1745 L-256596 1745 L-242987 1745 L-242242 1745 L-237831 1745 L-221485 1745 L-221252 1744 L-220715 1744 L-212256 1744 L-203550 1744 L-203338 1744 L-201365 1744 L-198579 1744 L-194092 1744 L-193937 1744 L-193768 1744 L-193628 1744 L-193337 1744 L-193298 1744 L-193027 1743 L-192856 1743 L-192446 1743 L-191325 1743 L-190145 1743 L-188868 1743 L-186004 1743 L-183084 1743 L-181092 1743 L-179544 1743 L-176506 1743 L-167182 1742 L-166658 1742 L-160934 1742 L-159427 1742 L-158612 1742 L-156929 1742 L-156208 1742 L-156039 1742 L-154994 1742 L-152927 1742 L-151565 1742 L-147121 1742 L-147024 1741 L-146986 1741 L-146967 1741 L-146134 1741 L-146056 1741 L-143484 1741 L-140235 1741 L-140080 1741 L-139132 1741 L-137390 1741 L-136675 1741 L-133134 1741 L-126557 1742 L-125140 1743 L-125119 1743 L-124168 1743 L-120694 1742 L-119941 1742 L-119379 1742 L-118597 1742 L-111093 1742 L-109495 1742 L-107921 1742 L-104735 1742 L-100402 1742 L-91833 1742 L-83086 1742 L-80012 1741 L-76746 1741 L-76200 1741 L-69063 1741 L-63395 1741 L-49330 1741 L-43319 1741 L-38613 1741 L-34610 1741 L-29502 1741 L-19788 1741 L-4217 1741 L-1135 1740 L-833 1701 L-813 1652 L-794 1597 L-774 1536 L-755 1508 L-735 1484 L-717 1462 L-689 1441 L-668 1420 L-640 1398 L-605 1373 L-592 1353 L-578 1335 L-560 1320 L-541 1309 L-521 1298 L-503 1287 L-484 1276 L-464 1265 L-443 1253 L-426 1242 L-407 1231 L-387 1220 L-367 1209 L-348 1197 L-330 1185 L-310 1173 L-290 1161 L-271 1149 L-252 1138 L-231 1127 L-206 1116 L-192 1106 L-175 1096 L-155 1086 L-136 1076 L-116 1065 L-98 1054 L-77 1044 L-57 1034 L-39 1024 L-20 1015 L0 1007 L20 999 L37 992 L56 985 L76 978 L95 972 L115 966 L133 960 L153 955 L173 951 L192 946 L211 941 L238 936 L259 929 L287 923 L321 915 L335 909 L348 903 L367 898 L386 894 L406 890 L424 885 L444 879 L464 874 L484 870 L502 865 L520 860 L541 856 L560 850 L579 844 L598 837 L618 831 L637 824 L656 817 L675 810 L696 802 L721 793 L735 784 L752 776 L772 769 L791 761 L811 752 L830 743 L850 735 L870 727 L888 719 L907 711 L928 704 L948 696 L966 689 L985 683 L1005 676 L1023 671 L1043 665 L1062 659 L1082 653 L1101 647 L1121 641 L1139 636 L1168 630 L1188 624 L1216 619 L1253 612 L1268 606 L1280 600 L1298 595 L1315 591 L1334 587 L1353 583 L1372 580 L1392 577 L1413 574 L1430 570 L1449 566 L1469 562 L1489 558 L1508 553 L1526 549 L1546 544 L1566 538 L1585 533 L1604 528 L1625 523 L1649 518 L1664 513 L1681 508 L1701 502 L1720 497 L1740 492 L1759 486 L1779 481 L1799 475 L1817 470 L1836 465 L1856 460 L1876 456 L1894 452 L1913 447 L1933 443 L1952 438 L1972 434 L1991 430 L2010 426 L2030 422 L2049 418 L2068 413 L2096 409 L2116 405 L2144 400 L2180 394 L2195 388 L2208 382 L2225 377 L2243 374 L2263 371 L2282 367 L2301 362 L2321 358 L2342 353 L2361 348 L2378 343 L2398 337 L2418 331 L2436 324 L2455 318 L2475 311 L2496 305 L2513 299 L2532 294 L2554 291 L2579 287 L2593 284 L2611 281 L2630 278 L2649 274 L2668 271 L2687 267 L2707 264 L2728 262 L2745 259 L2765 256 L2785 252 L2806 248 L2823 243 L2842 240 L2862 238 L2881 235 L2900 234 L2919 232 L2939 229 L2959 227 L2978 224 L2997 222 L3024 220 L3045 218 L3073 216 L3108 213 L3121 210 L3135 208 L3153 206 L3172 204 L3192 203 L3210 201 L3230 199 L3249 198 L3270 196 L3288 194 L3306 192 L3327 190 L3347 188 L3365 186 L3384 185 L3404 183 L3424 181 L3442 180 L3461 178 L3482 176 L3507 175 L3522 173 L3539 172 L3558 170 L3577 168 L3597 167 L3616 165 L3636 163 L3657 161 L3674 159 L3693 158 L3714 156 L3734 155 L3752 153 L3770 151 L3790 150 L3809 149 L3829 147 L3848 146 L3868 145 L3887 144 L3906 143 L3925 145 L3954 146 L3974 148 L4002 150 L4039 148 L4054 147 L4067 146 L4084 145 L4100 144 L4120 143 L4139 142 L4158 141 L4178 140 L4199 139 L4216 138 L4235 137 L4255 136 L4275 135 L4293 134 L4312 133 L4332 132 L4352 131 L4370 130 L4389 129 L4411 129 L4436 128 L4450 127 L4467 126 L4487 125 L4506 124 L4525 123 L4545 122 L4564 120 L4585 119 L4603 117 L4622 116 L4642 115 L4663 114 L4680 112 L4699 111 L4719 110 L4738 109 L4758 107 L4776 106 L4796 105 L4816 103 L4835 103 L4854 102 L4881 101 L4902 99 L4930 98 L4965 97 L4978 95 L4992 94 L5011 93 L5029 92 L5049 91 L5067 90 L5087 89 L5107 88 L5128 87 L5145 86 L5163 85 L5184 84 L5204 82 L5222 81 L5241 79 L5261 77 L5281 76 L5299 74 L5318 73 L5339 71 L5364 70 L5379 68 L5396 67 L5415 65 L5435 64 L5454 62 L5473 60 L5493 59 L5514 57 L5531 56 L5550 55 L5571 53 L5592 52 L5609 51 L5628 50 L5648 49 L5667 48 L5686 47 L5705 46 L5725 45 L5745 45 L5764 44 L5782 43 L5810 42 L5831 41 L5858 41 L5894 39 L5908 37 L5921 36 L5939 34 L5958 33 L5977 33 L5996 32 L6015 31 L6035 30 L6056 29 L6073 28 L6092 26 L6112 25 L6132 24 L6151 23 L6169 21 L6189 20 L6210 19 L6228 18 L6247 17 L6268 16 L6293 15 L6308 14 L6325 13 L6344 12 L6364 11 L6383 9 L6402 8 L6422 6 L6443 5 L6460 3 L6479 2 L6500 0" />
</svg>
