<svg xmlns="http://www.w3.org/2000/svg" version="1.1" viewBox="0 0 6500 1000">
	<path fill="none" stroke="gold" stroke-width="125" stroke-linecap="round" stroke-linejoin="round" d="M0 1020  L-715875 1020 L-713271 1020 L-711603 1020 L-693273 1019 L-693103 1019 L-685945 1019 L-685912 1019 L-672481 1019 L-669560 1019 L-656219 1019 L-652050 1019 L-650890 1018 L-650271 1018 L-648259 1018 L-644487 1018 L-643887 1018 L-643558 1017 L-643345 1017 L-642803 1017 L-641565 1017 L-640386 1016 L-637522 1015 L-637000 1015 L-632144 1015 L-629207 1015 L-629164 1014 L-628856 1014 L-628604 1014 L-626009 1014 L-621753 1014 L-621736 1014 L-620499 1014 L-618621 1014 L-616668 1014 L-615720 1014 L-615449 1014 L-615139 1014 L-615041 1014 L-614211 1014 L-612180 1014 L-611889 1013 L-609743 1013 L-609588 1012 L-605931 1012 L-605680 1012 L-605582 1012 L-605065 1012 L-602913 1013 L-601985 1013 L-600459 1013 L-599219 1013 L-597673 1013 L-594711 1013 L-593589 1013 L-593280 1013 L-592068 1013 L-589062 1013 L-589042 1013 L-588695 1013 L-588482 1013 L-588355 1012 L-588114 1012 L-588076 1012 L-588056 1012 L-588037 1012 L-587978 1012 L-587919 1011 L-587901 1011 L-587458 1011 L-586219 1011 L-584673 1011 L-581285 1011 L-575559 1011 L-575358 1011 L-573722 1011 L-572000 1011 L-570568 1010 L-570335 1010 L-569620 1010 L-563488 1010 L-563120 1010 L-562966 1010 L-562387 1010 L-562095 1010 L-561128 1010 L-560818 1009 L-560219 1009 L-558613 1009 L-557878 1009 L-557568 1009 L-556800 1009 L-554763 1009 L-554338 1009 L-553525 1009 L-546097 1009 L-545574 1009 L-545400 1009 L-544665 1008 L-543098 1008 L-542692 1008 L-540467 1008 L-539519 1008 L-539094 1008 L-538764 1008 L-537720 1008 L-535612 1008 L-535360 1008 L-534741 1007 L-533928 1007 L-531820 1007 L-531772 1007 L-529843 1007 L-529518 1007 L-529383 1007 L-528880 1007 L-527467 1007 L-526964 1006 L-526442 1006 L-522883 1006 L-522147 1005 L-519723 1005 L-518433 1005 L-518026 1005 L-514874 1005 L-514719 1005 L-514699 1005 L-514332 1005 L-513074 1005 L-512359 1005 L-511469 1005 L-511062 1005 L-510133 1005 L-509025 1005 L-508722 1006 L-502473 1006 L-501525 1006 L-499899 1006 L-499397 1006 L-495722 1006 L-494889 1006 L-490936 1006 L-489524 1006 L-487035 1006 L-486359 1006 L-486320 1006 L-485449 1006 L-482238 1006 L-479375 1006 L-478407 1006 L-477285 1005 L-477266 1005 L-475641 1005 L-475177 1005 L-475085 1005 L-468716 1005 L-467768 1005 L-465311 1005 L-464438 1005 L-463202 1005 L-461201 1004 L-460803 1004 L-459367 1004 L-457341 1004 L-457128 1004 L-455948 1004 L-454439 1004 L-454419 1004 L-452407 1004 L-451537 1004 L-450666 1003 L-450082 1003 L-449544 1003 L-448887 1003 L-447648 1003 L-447088 1003 L-445907 1003 L-444669 1003 L-444631 1003 L-444244 1003 L-443702 1002 L-442928 1002 L-441806 1002 L-439717 1002 L-439384 1002 L-439098 1002 L-438169 1002 L-437686 1002 L-436951 1002 L-433319 1002 L-432192 1001 L-432037 1001 L-431011 1001 L-427296 1001 L-426079 1001 L-424261 1001 L-421475 1001 L-420913 1001 L-417025 1001 L-414549 1001 L-413214 1001 L-412711 1001 L-412227 1001 L-409538 1001 L-405767 1001 L-403309 1001 L-402130 1001 L-401490 1000 L-399131 1000 L-399053 1000 L-398006 1000 L-397912 1000 L-397409 1000 L-396964 1000 L-396906 1000 L-396693 1000 L-393733 1000 L-391025 1000 L-390871 1000 L-387350 1000 L-386827 1000 L-385860 999 L-385511 999 L-384467 999 L-383538 999 L-383113 999 L-381604 999 L-380637 999 L-380618 999 L-378722 994 L-378606 989 L-378558 984 L-378534 978 L-375529 978 L-373499 978 L-371738 978 L-371371 978 L-370925 978 L-370558 978 L-370144 978 L-368159 978 L-367946 978 L-367791 978 L-366186 978 L-365064 978 L-364116 977 L-362859 977 L-361214 977 L-360034 977 L-353445 977 L-353398 977 L-352993 977 L-351947 977 L-351812 977 L-350130 977 L-350110 977 L-348773 976 L-347537 976 L-347382 976 L-347008 976 L-346802 976 L-346493 976 L-345719 976 L-343397 976 L-342740 976 L-340612 976 L-338889 976 L-338696 975 L-336143 975 L-335866 975 L-335678 975 L-334846 975 L-334073 975 L-333375 975 L-328375 975 L-327999 975 L-323746 975 L-323259 982 L-323239 982 L-323160 981 L-323085 981 L-323065 974 L-322252 974 L-321499 974 L-320280 974 L-318848 974 L-318751 974 L-318577 974 L-318223 974 L-316913 974 L-315056 974 L-313354 974 L-312851 974 L-312585 974 L-312192 973 L-312058 973 L-311148 973 L-310772 973 L-309843 973 L-309504 973 L-309465 973 L-309427 973 L-307512 973 L-307338 973 L-305809 973 L-305481 973 L-305365 973 L-304958 973 L-304610 973 L-302966 973 L-302415 972 L-302172 972 L-301631 972 L-300799 972 L-300258 972 L-298723 972 L-298631 972 L-298594 972 L-298458 972 L-298071 972 L-297046 972 L-295169 972 L-295073 972 L-294473 974 L-294106 976 L-293621 978 L-293583 981 L-292809 981 L-292752 981 L-292577 981 L-292384 981 L-290778 981 L-290758 980 L-290603 981 L-290488 981 L-289308 981 L-289153 981 L-288487 981 L-286038 987 L-283523 992 L-280854 998 L-273154 1004 L-267487 1004 L-265272 1003 L-265249 1003 L-264275 1005 L-264255 1005 L-263391 1005 L-260651 1005 L-254853 1003 L-254699 1003 L-251913 1003 L-238305 1003 L-237559 1003 L-233148 1003 L-216802 1003 L-216570 1002 L-216033 1002 L-207574 1002 L-198868 1002 L-198656 1002 L-196683 1002 L-193897 1002 L-189409 1002 L-189255 1002 L-189086 1002 L-188945 1002 L-188654 1002 L-188616 1002 L-188345 1002 L-188173 1002 L-187763 1002 L-186643 1002 L-185462 1001 L-184186 1001 L-181322 1001 L-178401 1001 L-176409 1001 L-174862 1001 L-171824 1001 L-162499 1001 L-161975 1001 L-156252 1001 L-154744 1001 L-153930 1001 L-152246 1001 L-151525 1001 L-151357 1001 L-150312 1000 L-148244 1000 L-146882 1000 L-142439 1000 L-142342 1000 L-142303 1000 L-142284 1000 L-141452 1000 L-141374 1000 L-138802 1000 L-135552 1000 L-135397 1000 L-134449 1000 L-132708 999 L-131993 1000 L-128452 1000 L-121875 1001 L-120457 1001 L-120437 1001 L-119486 1001 L-116012 1001 L-115258 1001 L-114697 1001 L-113915 1001 L-106411 1001 L-104812 1001 L-103238 1000 L-100053 1000 L-95720 1000 L-87150 1000 L-78404 1000 L-75330 1000 L-72064 1000 L-71517 1000 L-64380 1000 L-58712 1000 L-44648 1000 L-38637 1000 L-33930 1000 L-29927 1000 L-24820 1000 L-15106 1000 L464 999 L3547 999 L3849 968 L3869 930 L3887 887 L3907 838 L3927 816 L3946 798 L3965 780 L3992 763 L4013 747 L4041 730 L4076 711 L4090 694 L4103 680 L4121 669 L4140 660 L4160 652 L4178 643 L4198 634 L4218 625 L4239 616 L4256 607 L4274 598 L4295 590 L4315 581 L4333 572 L4352 563 L4372 553 L4392 543 L4410 534 L4429 525 L4450 517 L4475 508 L4490 500 L4507 493 L4526 484 L4546 477 L4565 468 L4584 460 L4604 451 L4624 444 L4642 436 L4661 429 L4682 422 L4702 416 L4719 410 L4738 405 L4758 400 L4777 395 L4797 390 L4816 386 L4836 382 L4855 378 L4875 375 L4893 371 L4921 366 L4942 361 L4969 356 L5003 350 L5018 345 L5031 341 L5049 337 L5068 334 L5088 330 L5107 326 L5126 322 L5146 318 L5167 314 L5184 311 L5203 307 L5223 303 L5243 299 L5261 294 L5280 289 L5300 284 L5320 278 L5339 273 L5358 267 L5379 261 L5403 254 L5418 247 L5435 241 L5455 235 L5474 229 L5494 222 L5512 215 L5532 209 L5553 202 L5571 196 L5590 190 L5610 184 L5630 178 L5648 172 L5667 167 L5687 162 L5706 158 L5726 153 L5744 148 L5764 144 L5784 139 L5803 135 L5822 130 L5851 126 L5870 121 L5898 117 L5935 112 L5950 107 L5963 102 L5980 98 L5997 95 L6017 92 L6035 89 L6055 87 L6075 84 L6095 82 L6112 79 L6131 76 L6152 72 L6171 69 L6190 66 L6209 62 L6229 58 L6248 54 L6267 50 L6286 46 L6307 42 L6331 38 L6346 34 L6363 30 L6383 25 L6402 22 L6422 17 L6441 13 L6461 8 L6481 4 L6500 0" />
</svg>
