<svg xmlns="http://www.w3.org/2000/svg" version="1.1" viewBox="0 0 6500 1000">
	<path fill="none" stroke="gold" stroke-width="125" stroke-linecap="round" stroke-linejoin="round" d="M0 3875  L-722674 3875 L-720070 3874 L-718402 3874 L-700073 3874 L-699903 3873 L-692745 3873 L-692712 3873 L-679281 3873 L-676359 3873 L-663018 3873 L-658849 3872 L-657689 3871 L-657070 3870 L-655058 3869 L-651286 3869 L-650686 3869 L-650357 3868 L-650144 3868 L-649603 3868 L-648365 3866 L-647186 3865 L-644321 3863 L-643799 3862 L-638944 3861 L-636006 3861 L-635963 3861 L-635655 3860 L-635403 3860 L-632808 3859 L-628553 3859 L-628535 3859 L-627298 3859 L-625421 3859 L-623467 3859 L-622519 3859 L-622248 3858 L-621938 3858 L-621840 3858 L-621010 3858 L-618979 3858 L-618689 3856 L-616542 3856 L-616387 3855 L-612731 3854 L-612480 3854 L-612381 3854 L-611864 3854 L-609713 3855 L-608784 3856 L-607258 3857 L-606018 3857 L-604472 3857 L-601510 3857 L-600388 3856 L-600079 3856 L-598868 3856 L-595861 3858 L-595842 3858 L-595494 3857 L-595281 3857 L-595155 3855 L-594913 3854 L-594875 3854 L-594856 3854 L-594836 3853 L-594777 3853 L-594719 3852 L-594701 3852 L-594258 3852 L-593018 3851 L-591473 3851 L-588085 3851 L-582359 3850 L-582157 3850 L-580521 3850 L-578799 3850 L-577367 3850 L-577135 3849 L-576420 3849 L-570287 3849 L-569920 3849 L-569765 3848 L-569187 3848 L-568894 3848 L-567927 3847 L-567617 3847 L-567018 3846 L-565412 3846 L-564677 3846 L-564367 3847 L-563599 3847 L-561563 3846 L-561137 3846 L-560325 3846 L-552896 3845 L-552373 3845 L-552200 3845 L-551465 3844 L-549897 3844 L-549491 3844 L-547266 3843 L-546318 3843 L-545893 3843 L-545563 3843 L-544519 3843 L-542411 3842 L-542159 3842 L-541540 3842 L-540727 3842 L-538620 3841 L-538571 3841 L-536643 3840 L-536317 3840 L-536182 3840 L-535679 3839 L-534266 3839 L-533763 3838 L-533242 3838 L-529682 3837 L-528947 3836 L-526522 3836 L-525233 3836 L-524826 3836 L-521673 3836 L-521518 3836 L-521498 3836 L-521131 3836 L-519873 3836 L-519158 3836 L-518268 3836 L-517861 3836 L-516933 3836 L-515824 3836 L-515521 3837 L-509272 3837 L-508325 3838 L-506699 3838 L-506197 3838 L-502521 3838 L-501689 3839 L-497736 3839 L-496324 3838 L-493835 3838 L-493158 3837 L-493119 3837 L-492248 3837 L-489037 3837 L-486174 3837 L-485206 3837 L-484085 3836 L-484066 3836 L-482441 3836 L-481977 3835 L-481885 3835 L-475515 3835 L-474567 3834 L-472110 3834 L-471238 3834 L-470002 3834 L-468000 3834 L-467603 3833 L-466166 3833 L-464140 3833 L-463927 3832 L-462747 3832 L-461239 3832 L-461218 3832 L-459206 3832 L-458337 3831 L-457466 3831 L-456881 3831 L-456344 3830 L-455686 3830 L-454448 3830 L-453887 3829 L-452706 3829 L-451469 3829 L-451430 3829 L-451043 3829 L-450501 3828 L-449728 3828 L-448606 3828 L-446516 3827 L-446183 3827 L-445897 3827 L-444969 3827 L-444485 3826 L-443750 3826 L-440119 3826 L-438991 3826 L-438836 3825 L-437810 3825 L-434096 3825 L-432878 3825 L-431060 3824 L-428274 3824 L-427713 3824 L-423825 3824 L-421348 3823 L-420013 3823 L-419510 3823 L-419027 3823 L-416338 3823 L-412566 3823 L-410109 3823 L-408929 3823 L-408290 3823 L-405930 3822 L-405853 3822 L-404805 3822 L-404712 3822 L-404209 3822 L-403763 3822 L-403706 3822 L-403492 3822 L-400532 3821 L-397825 3821 L-397670 3821 L-394149 3821 L-393626 3820 L-392659 3820 L-392310 3820 L-391266 3820 L-390338 3819 L-389912 3819 L-388403 3819 L-387436 3819 L-387417 3819 L-385521 3805 L-385405 3791 L-385357 3778 L-385333 3764 L-382329 3764 L-380298 3763 L-378537 3763 L-378170 3763 L-377724 3763 L-377358 3763 L-376944 3762 L-374959 3762 L-374745 3762 L-374591 3762 L-372985 3762 L-371864 3762 L-370915 3761 L-369658 3761 L-368013 3761 L-366834 3760 L-360244 3760 L-360198 3760 L-359792 3760 L-358747 3760 L-358611 3760 L-356929 3759 L-356909 3759 L-355572 3759 L-354336 3758 L-354182 3758 L-353808 3758 L-353602 3758 L-353292 3758 L-352518 3757 L-350197 3757 L-349539 3757 L-347411 3757 L-345689 3756 L-345495 3756 L-342942 3756 L-342666 3756 L-342477 3755 L-341645 3755 L-340872 3755 L-340174 3755 L-335174 3755 L-334798 3754 L-330545 3754 L-330058 3772 L-330039 3772 L-329960 3772 L-329884 3772 L-329865 3753 L-329052 3753 L-328298 3753 L-327079 3752 L-325647 3752 L-325551 3752 L-325376 3752 L-325022 3752 L-323713 3752 L-321855 3751 L-320153 3751 L-319650 3751 L-319385 3751 L-318992 3751 L-318858 3750 L-317948 3750 L-317571 3750 L-316643 3750 L-316304 3750 L-316264 3750 L-316226 3750 L-314311 3750 L-314137 3749 L-312609 3749 L-312280 3749 L-312164 3749 L-311757 3749 L-311409 3748 L-309765 3748 L-309214 3748 L-308971 3748 L-308430 3748 L-307599 3747 L-307057 3747 L-305522 3747 L-305430 3746 L-305393 3746 L-305257 3746 L-304870 3746 L-303845 3746 L-301969 3746 L-301872 3745 L-301272 3751 L-300905 3758 L-300421 3764 L-300382 3770 L-299609 3771 L-299551 3770 L-299377 3770 L-299183 3770 L-297578 3770 L-297558 3769 L-297403 3770 L-297287 3770 L-296108 3770 L-295953 3771 L-295286 3771 L-292838 3786 L-290323 3801 L-287653 3816 L-279954 3831 L-274286 3831 L-272072 3831 L-272048 3831 L-271074 3835 L-271054 3835 L-270191 3834 L-267451 3834 L-261652 3830 L-261499 3830 L-258713 3830 L-245104 3829 L-244358 3829 L-239948 3829 L-223602 3829 L-223369 3828 L-222832 3828 L-214373 3828 L-205667 3828 L-205455 3827 L-203482 3827 L-200696 3827 L-196209 3827 L-196054 3827 L-195885 3827 L-195745 3827 L-195454 3827 L-195415 3827 L-195144 3826 L-194973 3826 L-194563 3826 L-193442 3826 L-192262 3826 L-190985 3825 L-188121 3825 L-185201 3825 L-183209 3825 L-181661 3825 L-178623 3824 L-169299 3824 L-168775 3824 L-163051 3824 L-161544 3824 L-160729 3824 L-159046 3823 L-158325 3823 L-158156 3823 L-157111 3823 L-155044 3823 L-153682 3822 L-149238 3822 L-149141 3822 L-149103 3822 L-149084 3822 L-148251 3822 L-148173 3821 L-145601 3821 L-142352 3821 L-142197 3821 L-141248 3820 L-139507 3820 L-138792 3821 L-135251 3822 L-128674 3823 L-127257 3825 L-127236 3825 L-126285 3824 L-122811 3824 L-122058 3824 L-121496 3824 L-120714 3823 L-113210 3823 L-111612 3823 L-110038 3823 L-106852 3823 L-102519 3822 L-93949 3822 L-85203 3822 L-82129 3822 L-78863 3822 L-78317 3822 L-71179 3821 L-65512 3821 L-51447 3821 L-45436 3822 L-40730 3821 L-36726 3821 L-31619 3821 L-21905 3821 L-6334 3820 L-3252 3820 L-2949 3737 L-2930 3635 L-2911 3518 L-2891 3389 L-2872 3329 L-2852 3279 L-2834 3234 L-2806 3188 L-2785 3144 L-2757 3098 L-2722 3046 L-2708 3003 L-2695 2966 L-2677 2935 L-2658 2912 L-2638 2888 L-2620 2865 L-2601 2841 L-2581 2818 L-2560 2793 L-2543 2769 L-2524 2746 L-2504 2723 L-2484 2700 L-2465 2675 L-2446 2650 L-2427 2624 L-2407 2598 L-2388 2574 L-2369 2550 L-2348 2528 L-2323 2505 L-2309 2484 L-2292 2462 L-2272 2441 L-2252 2420 L-2233 2397 L-2214 2374 L-2194 2352 L-2174 2331 L-2156 2311 L-2137 2292 L-2117 2274 L-2096 2257 L-2079 2243 L-2060 2228 L-2040 2214 L-2021 2201 L-2001 2188 L-1982 2176 L-1963 2166 L-1943 2156 L-1924 2146 L-1905 2136 L-1878 2124 L-1857 2111 L-1829 2097 L-1795 2081 L-1781 2068 L-1768 2056 L-1749 2046 L-1730 2037 L-1710 2027 L-1692 2017 L-1672 2006 L-1652 1995 L-1632 1985 L-1614 1976 L-1596 1966 L-1575 1956 L-1556 1944 L-1537 1931 L-1518 1917 L-1498 1903 L-1478 1888 L-1460 1873 L-1441 1859 L-1420 1842 L-1395 1824 L-1381 1806 L-1363 1789 L-1344 1772 L-1324 1755 L-1305 1738 L-1286 1719 L-1266 1702 L-1246 1684 L-1228 1668 L-1209 1651 L-1188 1635 L-1168 1620 L-1150 1605 L-1131 1591 L-1111 1577 L-1093 1566 L-1073 1553 L-1054 1541 L-1034 1529 L-1015 1516 L-995 1504 L-977 1492 L-948 1480 L-928 1469 L-900 1457 L-863 1443 L-848 1430 L-835 1417 L-818 1406 L-801 1397 L-782 1390 L-763 1382 L-744 1375 L-724 1369 L-703 1362 L-686 1354 L-667 1345 L-647 1337 L-627 1328 L-608 1319 L-590 1309 L-570 1299 L-550 1287 L-531 1276 L-512 1266 L-491 1255 L-467 1244 L-452 1233 L-435 1223 L-415 1211 L-396 1201 L-376 1189 L-357 1177 L-337 1166 L-317 1154 L-299 1143 L-280 1133 L-260 1123 L-240 1113 L-222 1104 L-203 1095 L-183 1086 L-164 1077 L-144 1067 L-125 1058 L-105 1050 L-86 1041 L-67 1033 L-48 1024 L-20 1015 L0 1007 L27 997 L64 983 L78 970 L91 958 L108 948 L126 941 L146 934 L165 925 L185 917 L204 907 L225 897 L244 886 L261 875 L281 862 L301 850 L320 837 L338 823 L358 809 L379 795 L396 783 L415 773 L437 765 L462 758 L476 752 L494 745 L513 738 L532 731 L551 723 L570 716 L590 709 L611 704 L629 699 L648 692 L668 684 L689 675 L706 666 L725 659 L745 653 L764 649 L783 645 L802 641 L822 636 L842 631 L861 626 L880 621 L907 616 L928 612 L956 607 L991 601 L1004 596 L1018 591 L1036 587 L1055 584 L1075 580 L1093 576 L1113 572 L1133 569 L1154 566 L1171 562 L1189 558 L1210 554 L1230 550 L1248 546 L1267 542 L1287 538 L1307 535 L1325 531 L1344 528 L1365 524 L1390 521 L1405 518 L1422 515 L1441 511 L1461 508 L1480 504 L1499 500 L1519 496 L1540 492 L1557 489 L1576 485 L1597 482 L1617 479 L1635 475 L1653 472 L1673 469 L1692 466 L1712 463 L1731 460 L1751 458 L1770 456 L1789 454 L1808 458 L1837 461 L1857 465 L1885 468 L1922 465 L1937 462 L1950 460 L1967 458 L1984 456 L2003 454 L2022 452 L2041 450 L2061 448 L2082 446 L2099 444 L2118 442 L2138 440 L2158 438 L2177 436 L2195 434 L2215 431 L2235 429 L2254 427 L2272 425 L2294 424 L2319 422 L2333 420 L2350 418 L2370 415 L2389 413 L2409 411 L2428 409 L2447 406 L2468 403 L2486 400 L2505 397 L2525 395 L2546 392 L2563 390 L2582 387 L2602 384 L2621 382 L2641 379 L2659 376 L2679 373 L2699 371 L2718 369 L2737 367 L2764 365 L2785 362 L2813 359 L2848 357 L2861 354 L2875 352 L2894 349 L2912 347 L2932 345 L2950 343 L2970 341 L2990 338 L3011 336 L3028 334 L3046 332 L3067 329 L3087 326 L3105 323 L3124 320 L3144 316 L3164 313 L3182 309 L3201 307 L3222 303 L3247 300 L3262 297 L3279 293 L3298 290 L3318 287 L3337 284 L3356 280 L3376 277 L3397 274 L3414 271 L3433 268 L3454 265 L3475 263 L3492 260 L3511 258 L3531 256 L3550 254 L3569 252 L3588 250 L3608 249 L3628 247 L3647 245 L3665 244 L3693 242 L3714 240 L3741 238 L3777 235 L3791 232 L3804 229 L3822 226 L3841 223 L3860 222 L3879 219 L3899 218 L3918 216 L3939 213 L3956 211 L3975 209 L3996 206 L4015 204 L4034 201 L4053 198 L4072 195 L4093 193 L4111 190 L4130 188 L4151 187 L4176 184 L4191 182 L4208 180 L4227 178 L4247 176 L4266 173 L4285 170 L4305 166 L4326 163 L4343 159 L4362 156 L4383 154 L4403 151 L4420 149 L4439 148 L4459 146 L4478 145 L4498 143 L4516 141 L4536 139 L4556 138 L4575 137 L4594 135 L4621 133 L4642 132 L4670 130 L4704 129 L4718 127 L4732 126 L4750 125 L4769 123 L4789 122 L4807 121 L4827 120 L4847 119 L4867 118 L4885 116 L4903 115 L4924 113 L4944 112 L4962 111 L4981 109 L5001 108 L5021 107 L5039 106 L5058 106 L5079 105 L5104 104 L5118 102 L5136 101 L5155 99 L5175 98 L5194 97 L5213 96 L5233 94 L5253 92 L5271 89 L5290 87 L5311 84 L5331 82 L5349 80 L5368 79 L5388 77 L5406 75 L5426 73 L5445 71 L5465 70 L5484 69 L5504 67 L5522 66 L5551 65 L5599 64 L5636 63 L5651 61 L5663 60 L5680 59 L5698 58 L5717 58 L5736 57 L5755 56 L5775 54 L5796 53 L5813 53 L5832 52 L5852 51 L5872 50 L5891 49 L5909 48 L5929 47 L5949 46 L5968 44 L5987 43 L6008 41 L6032 39 L6047 37 L6064 35 L6084 33 L6103 31 L6123 29 L6141 28 L6162 26 L6182 24 L6200 22 L6219 20 L6239 19 L6259 17 L6277 16 L6296 15 L6316 14 L6335 13 L6355 11 L6374 10 L6393 8 L6413 7 L6432 6 L6451 4 L6479 3 L6500 1" />
</svg>
