<svg xmlns="http://www.w3.org/2000/svg" version="1.1" viewBox="0 0 6500 1000">
	<path fill="none" stroke="gold" stroke-width="125" stroke-linecap="round" stroke-linejoin="round" d="M0 3537  L-725685 3537 L-723081 3537 L-721413 3537 L-703084 3537 L-702914 3536 L-695756 3536 L-695723 3536 L-682292 3536 L-679370 3536 L-666029 3536 L-661860 3535 L-660700 3534 L-660081 3533 L-658069 3533 L-654297 3533 L-653697 3532 L-653368 3532 L-653155 3532 L-652614 3531 L-651376 3530 L-650197 3529 L-647332 3527 L-646810 3526 L-641955 3526 L-639017 3526 L-638974 3525 L-638666 3525 L-638414 3525 L-635819 3524 L-631564 3524 L-631546 3524 L-630309 3524 L-628432 3524 L-626478 3524 L-625530 3524 L-625259 3523 L-624950 3523 L-624851 3523 L-624021 3523 L-621990 3523 L-621700 3522 L-619553 3521 L-619398 3520 L-615742 3519 L-615491 3520 L-615392 3520 L-614875 3520 L-612724 3521 L-611795 3522 L-610269 3522 L-609029 3522 L-607483 3522 L-604521 3522 L-603399 3522 L-603090 3521 L-601879 3521 L-598872 3523 L-598853 3523 L-598505 3523 L-598292 3522 L-598166 3520 L-597924 3520 L-597886 3520 L-597867 3519 L-597847 3519 L-597788 3519 L-597730 3518 L-597712 3518 L-597269 3518 L-596029 3517 L-594484 3517 L-591096 3517 L-585370 3517 L-585168 3516 L-583532 3516 L-581810 3516 L-580378 3516 L-580146 3516 L-579431 3516 L-573298 3515 L-572931 3515 L-572776 3515 L-572198 3515 L-571905 3514 L-570938 3514 L-570628 3514 L-570029 3513 L-568423 3513 L-567688 3513 L-567378 3513 L-566610 3513 L-564574 3513 L-564148 3513 L-563336 3513 L-555907 3512 L-555384 3512 L-555211 3512 L-554476 3511 L-552908 3511 L-552502 3511 L-550277 3511 L-549329 3510 L-548904 3510 L-548574 3510 L-547530 3510 L-545422 3510 L-545170 3510 L-544551 3509 L-543738 3509 L-541631 3509 L-541582 3508 L-539654 3508 L-539328 3508 L-539193 3507 L-538690 3507 L-537277 3507 L-536774 3506 L-536253 3506 L-532693 3505 L-531958 3505 L-529533 3505 L-528244 3504 L-527837 3504 L-524684 3504 L-524529 3504 L-524509 3504 L-524143 3504 L-522884 3504 L-522169 3505 L-521279 3505 L-520872 3505 L-519944 3505 L-518835 3504 L-518532 3505 L-512283 3505 L-511336 3506 L-509710 3506 L-509208 3506 L-505532 3506 L-504700 3507 L-500747 3507 L-499335 3506 L-496846 3506 L-496169 3506 L-496130 3505 L-495260 3505 L-492048 3505 L-489185 3505 L-488217 3505 L-487096 3505 L-487077 3504 L-485452 3504 L-484988 3504 L-484896 3503 L-478526 3503 L-477578 3503 L-475121 3503 L-474249 3503 L-473013 3502 L-471011 3502 L-470614 3502 L-469177 3502 L-467151 3501 L-466938 3501 L-465758 3501 L-464250 3501 L-464229 3501 L-462217 3501 L-461348 3500 L-460477 3500 L-459892 3500 L-459355 3499 L-458697 3499 L-457459 3499 L-456898 3499 L-455717 3498 L-454480 3498 L-454441 3498 L-454054 3498 L-453513 3498 L-452739 3498 L-451617 3497 L-449527 3497 L-449194 3497 L-448908 3496 L-447980 3496 L-447496 3496 L-446761 3496 L-443130 3496 L-442002 3495 L-441847 3495 L-440821 3495 L-437107 3495 L-435889 3495 L-434071 3494 L-431285 3494 L-430724 3494 L-426836 3494 L-424359 3494 L-423024 3494 L-422521 3493 L-422038 3493 L-419349 3493 L-415577 3493 L-413120 3493 L-411940 3493 L-411301 3493 L-408941 3493 L-408864 3493 L-407816 3492 L-407723 3492 L-407220 3492 L-406774 3492 L-406717 3492 L-406503 3492 L-403543 3492 L-400836 3492 L-400681 3492 L-397160 3491 L-396637 3491 L-395670 3491 L-395321 3491 L-394277 3490 L-393349 3490 L-392923 3490 L-391414 3490 L-390447 3490 L-390428 3489 L-388532 3478 L-388416 3466 L-388368 3454 L-388344 3443 L-385340 3443 L-383309 3442 L-381548 3442 L-381181 3442 L-380736 3442 L-380369 3442 L-379955 3441 L-377970 3441 L-377757 3441 L-377602 3441 L-375996 3441 L-374875 3441 L-373926 3441 L-372669 3440 L-371024 3440 L-369845 3440 L-363255 3440 L-363209 3440 L-362803 3439 L-361758 3439 L-361622 3439 L-359940 3439 L-359920 3439 L-358583 3438 L-357347 3438 L-357193 3438 L-356819 3438 L-356613 3437 L-356303 3437 L-355529 3437 L-353208 3437 L-352550 3437 L-350422 3437 L-348700 3436 L-348506 3436 L-345953 3436 L-345677 3436 L-345488 3435 L-344656 3435 L-343884 3435 L-343185 3435 L-338185 3435 L-337809 3434 L-333556 3434 L-333069 3450 L-333050 3450 L-332971 3450 L-332895 3450 L-332876 3434 L-332063 3433 L-331309 3433 L-330090 3433 L-328658 3433 L-328562 3433 L-328387 3433 L-328033 3432 L-326724 3432 L-324866 3432 L-323164 3432 L-322661 3432 L-322396 3431 L-322003 3431 L-321869 3431 L-320959 3431 L-320582 3431 L-319654 3431 L-319315 3431 L-319275 3431 L-319238 3431 L-317322 3431 L-317148 3430 L-315620 3430 L-315291 3430 L-315175 3430 L-314768 3430 L-314420 3430 L-312776 3429 L-312225 3429 L-311982 3429 L-311441 3429 L-310610 3428 L-310068 3428 L-308533 3428 L-308441 3428 L-308404 3428 L-308268 3428 L-307881 3427 L-306856 3427 L-304980 3427 L-304884 3427 L-304283 3432 L-303916 3437 L-303432 3443 L-303393 3448 L-302620 3448 L-302562 3448 L-302388 3448 L-302194 3448 L-300589 3448 L-300569 3447 L-300414 3448 L-300298 3448 L-299119 3448 L-298964 3448 L-298297 3448 L-295849 3461 L-293334 3475 L-290664 3487 L-282965 3500 L-277297 3500 L-275083 3500 L-275059 3500 L-274085 3503 L-274065 3503 L-273202 3503 L-270462 3503 L-264663 3499 L-264510 3499 L-261724 3499 L-248115 3499 L-247370 3498 L-242959 3498 L-226613 3498 L-226380 3498 L-225843 3498 L-217384 3497 L-208678 3497 L-208466 3497 L-206493 3497 L-203707 3497 L-199220 3497 L-199065 3497 L-198896 3497 L-198756 3497 L-198465 3496 L-198426 3496 L-198155 3496 L-197984 3496 L-197574 3496 L-196453 3496 L-195273 3495 L-193996 3495 L-191132 3495 L-188212 3495 L-186220 3495 L-184672 3495 L-181634 3494 L-172310 3494 L-171786 3494 L-166062 3494 L-164555 3494 L-163740 3494 L-162057 3494 L-161336 3493 L-161167 3493 L-160122 3493 L-158055 3493 L-156693 3493 L-152249 3493 L-152152 3492 L-152114 3492 L-152095 3492 L-151262 3492 L-151184 3492 L-148612 3492 L-145363 3491 L-145208 3491 L-144260 3491 L-142518 3491 L-141803 3492 L-138262 3492 L-131685 3493 L-130268 3495 L-130247 3495 L-129296 3494 L-125822 3494 L-125069 3494 L-124507 3494 L-123725 3494 L-116221 3493 L-114623 3493 L-113049 3493 L-109863 3493 L-105530 3493 L-96961 3493 L-88214 3493 L-85140 3492 L-81874 3492 L-81328 3492 L-74191 3492 L-68523 3492 L-54458 3492 L-48447 3492 L-43741 3492 L-39738 3492 L-34630 3491 L-24916 3491 L-9345 3491 L-6263 3491 L-5960 3420 L-5941 3332 L-5922 3233 L-5902 3122 L-5883 3072 L-5863 3029 L-5845 2990 L-5817 2951 L-5796 2913 L-5768 2874 L-5733 2830 L-5720 2793 L-5706 2761 L-5688 2734 L-5669 2715 L-5649 2695 L-5631 2675 L-5612 2655 L-5592 2635 L-5571 2613 L-5554 2593 L-5535 2573 L-5515 2554 L-5495 2534 L-5476 2513 L-5458 2491 L-5438 2469 L-5418 2447 L-5399 2426 L-5380 2406 L-5359 2387 L-5334 2367 L-5320 2349 L-5303 2331 L-5283 2313 L-5264 2295 L-5244 2275 L-5226 2256 L-5205 2237 L-5185 2219 L-5167 2202 L-5148 2186 L-5128 2170 L-5107 2156 L-5090 2143 L-5071 2131 L-5051 2119 L-5032 2108 L-5012 2097 L-4994 2087 L-4974 2078 L-4954 2070 L-4935 2061 L-4916 2053 L-4889 2042 L-4868 2031 L-4840 2019 L-4806 2005 L-4792 1994 L-4779 1984 L-4760 1975 L-4741 1968 L-4721 1960 L-4703 1950 L-4683 1941 L-4663 1932 L-4643 1923 L-4625 1915 L-4607 1907 L-4586 1898 L-4567 1888 L-4548 1877 L-4529 1865 L-4509 1853 L-4490 1841 L-4471 1828 L-4452 1815 L-4431 1801 L-4406 1785 L-4392 1770 L-4375 1756 L-4355 1742 L-4336 1727 L-4316 1712 L-4297 1696 L-4277 1681 L-4257 1666 L-4239 1652 L-4220 1638 L-4199 1625 L-4179 1611 L-4161 1599 L-4142 1587 L-4122 1575 L-4104 1565 L-4084 1554 L-4065 1544 L-4045 1534 L-4026 1523 L-4006 1512 L-3988 1502 L-3959 1492 L-3939 1482 L-3911 1472 L-3874 1460 L-3859 1449 L-3847 1438 L-3829 1429 L-3812 1421 L-3793 1415 L-3774 1408 L-3755 1403 L-3735 1397 L-3714 1391 L-3697 1384 L-3678 1377 L-3658 1370 L-3638 1362 L-3619 1354 L-3601 1346 L-3581 1337 L-3561 1328 L-3542 1318 L-3523 1309 L-3502 1300 L-3478 1290 L-3463 1281 L-3446 1272 L-3426 1262 L-3407 1253 L-3387 1244 L-3368 1233 L-3348 1223 L-3328 1214 L-3310 1204 L-3291 1196 L-3271 1187 L-3251 1179 L-3233 1171 L-3214 1163 L-3194 1155 L-3175 1147 L-3155 1139 L-3136 1132 L-3117 1124 L-3097 1117 L-3078 1110 L-3059 1103 L-3031 1095 L-3011 1088 L-2983 1079 L-2947 1067 L-2932 1057 L-2919 1046 L-2902 1037 L-2884 1032 L-2864 1026 L-2845 1018 L-2826 1011 L-2806 1002 L-2785 994 L-2766 984 L-2749 975 L-2729 964 L-2709 954 L-2691 942 L-2672 930 L-2652 918 L-2631 907 L-2614 897 L-2595 888 L-2573 881 L-2548 875 L-2534 870 L-2516 864 L-2497 858 L-2478 852 L-2459 846 L-2440 839 L-2420 834 L-2399 829 L-2382 824 L-2362 819 L-2342 812 L-2321 804 L-2304 797 L-2285 791 L-2265 786 L-2246 782 L-2227 779 L-2208 775 L-2188 771 L-2168 767 L-2149 762 L-2130 758 L-2103 754 L-2082 751 L-2054 746 L-2019 741 L-2006 737 L-1992 733 L-1974 729 L-1955 726 L-1935 723 L-1917 720 L-1897 717 L-1878 714 L-1857 711 L-1839 708 L-1821 705 L-1800 701 L-1780 698 L-1762 694 L-1743 690 L-1723 688 L-1703 685 L-1685 682 L-1666 679 L-1645 676 L-1620 673 L-1605 670 L-1588 667 L-1569 665 L-1550 662 L-1530 658 L-1511 655 L-1491 651 L-1470 648 L-1453 645 L-1434 642 L-1413 639 L-1393 637 L-1375 634 L-1357 631 L-1337 628 L-1318 626 L-1298 623 L-1279 621 L-1259 619 L-1240 617 L-1221 615 L-1202 619 L-1173 622 L-1153 625 L-1125 628 L-1088 625 L-1073 623 L-1060 621 L-1043 619 L-1027 618 L-1007 616 L-988 614 L-969 612 L-949 610 L-928 609 L-911 607 L-892 606 L-872 604 L-852 602 L-834 600 L-815 598 L-795 596 L-775 594 L-757 593 L-738 591 L-716 590 L-691 588 L-677 586 L-660 585 L-640 583 L-621 581 L-602 579 L-582 577 L-563 575 L-542 572 L-524 570 L-505 567 L-485 565 L-464 563 L-447 561 L-428 558 L-408 556 L-389 554 L-369 552 L-351 549 L-331 547 L-311 545 L-292 543 L-273 541 L-246 539 L-225 537 L-197 535 L-162 532 L-149 530 L-135 528 L-116 526 L-98 524 L-78 523 L-60 521 L-40 519 L-20 517 L0 515 L17 513 L35 511 L56 509 L76 507 L94 504 L113 501 L133 498 L153 495 L171 492 L190 490 L211 487 L236 484 L251 481 L268 478 L287 476 L307 473 L326 470 L345 467 L365 465 L386 462 L403 459 L422 457 L443 454 L464 452 L481 450 L500 448 L520 447 L539 445 L558 443 L577 442 L597 440 L617 439 L636 437 L654 436 L682 435 L703 433 L730 431 L766 428 L780 426 L793 423 L811 420 L830 419 L849 417 L868 415 L887 414 L907 412 L928 410 L945 408 L964 406 L984 404 L1004 402 L1023 399 L1041 397 L1061 395 L1082 393 L1100 390 L1119 389 L1140 387 L1165 385 L1180 384 L1197 382 L1216 380 L1236 378 L1255 376 L1274 373 L1294 370 L1315 367 L1332 364 L1351 361 L1372 359 L1392 357 L1409 355 L1428 354 L1448 353 L1467 351 L1487 350 L1505 348 L1525 347 L1545 346 L1564 344 L1583 343 L1610 342 L1631 341 L1659 339 L1693 338 L1707 337 L1721 335 L1739 334 L1758 333 L1778 332 L1796 331 L1816 330 L1836 329 L1856 328 L1873 327 L1892 326 L1913 325 L1933 323 L1951 322 L1970 321 L1990 320 L2010 320 L2028 319 L2047 318 L2068 317 L2093 316 L2107 315 L2125 314 L2144 313 L2164 312 L2183 311 L2202 310 L2222 308 L2242 306 L2260 304 L2279 302 L2300 300 L2320 298 L2338 296 L2357 295 L2377 293 L2395 292 L2415 290 L2434 289 L2454 288 L2473 286 L2493 285 L2511 284 L2540 283 L2588 283 L2625 281 L2639 280 L2652 279 L2669 278 L2687 277 L2706 277 L2725 276 L2744 275 L2764 274 L2785 274 L2802 273 L2821 272 L2841 272 L2861 271 L2880 270 L2898 269 L2918 268 L2938 267 L2957 266 L2976 264 L2997 263 L3021 261 L3036 259 L3053 257 L3073 256 L3092 254 L3112 253 L3130 251 L3150 250 L3171 248 L3189 247 L3208 245 L3228 244 L3248 243 L3266 242 L3285 241 L3305 239 L3324 239 L3344 237 L3363 236 L3382 235 L3402 234 L3421 233 L3440 231 L3468 230 L3488 229 L3516 227 L3553 225 L3568 222 L3580 220 L3598 218 L3615 217 L3636 216 L3654 215 L3673 214 L3693 213 L3714 212 L3731 211 L3750 210 L3770 208 L3791 206 L3808 204 L3828 202 L3847 200 L3868 198 L3886 196 L3904 194 L3926 192 L3951 191 L3966 189 L3983 188 L4002 186 L4022 185 L4040 184 L4059 182 L4079 180 L4101 178 L4118 177 L4137 175 L4157 174 L4178 172 L4195 171 L4214 170 L4234 169 L4253 168 L4272 166 L4291 165 L4311 164 L4331 163 L4350 162 L4369 161 L4397 997 L4417 996 L4445 994 L4481 992 L4495 153 L4508 152 L4526 150 L4544 149 L4564 149 L4582 148 L4602 147 L4621 146 L4643 144 L4659 142 L4678 140 L4699 139 L4719 137 L4737 134 L4756 132 L4776 130 L4797 128 L4814 127 L4833 125 L4854 124 L4879 122 L4894 120 L4924 118 L4964 115 L4987 113 L5016 110 L5032 108 L5046 106 L5066 104 L5086 103 L5107 102 L5123 101 L5142 99 L5163 98 L5181 97 L5201 97 L5220 96 L5240 95 L5260 94 L5278 93 L5297 92 L5325 91 L5346 90 L5373 89 L5409 87 L5422 86 L5454 85 L5472 84 L5492 83 L5511 82 L5530 81 L5550 80 L5571 80 L5588 79 L5607 77 L5627 74 L5648 70 L5665 66 L5685 62 L5704 59 L5725 56 L5743 54 L5762 52 L5783 51 L5808 50 L5823 48 L5840 47 L5859 45 L5879 43 L5898 42 L5917 40 L5937 38 L5958 37 L5975 35 L5994 33 L6014 32 L6035 31 L6052 30 L6071 29 L6091 28 L6110 27 L6130 26 L6149 24 L6168 23 L6188 22 L6207 21 L6226 20 L6254 19 L6274 18 L6344 16 L6372 13 L6387 11 L6401 8 L6421 7 L6439 6 L6458 4 L6479 3 L6500 1" />
</svg>
