<svg xmlns="http://www.w3.org/2000/svg" version="1.1" viewBox="0 0 6500 1000">
	<path fill="none" stroke="gold" stroke-width="125" stroke-linecap="round" stroke-linejoin="round" d="M0 1025  L-714928 1025 L-712324 1025 L-710656 1025 L-692327 1025 L-692156 1024 L-684999 1024 L-684965 1024 L-671535 1024 L-668613 1024 L-655272 1024 L-651103 1024 L-649943 1023 L-649324 1023 L-647312 1022 L-643540 1022 L-642940 1022 L-642611 1022 L-642398 1022 L-641856 1022 L-640618 1021 L-639440 1020 L-636575 1020 L-636053 1019 L-631197 1019 L-628260 1018 L-628217 1018 L-627909 1018 L-627657 1018 L-625062 1018 L-620807 1018 L-620789 1018 L-619552 1018 L-617674 1018 L-615721 1018 L-614773 1017 L-614502 1017 L-614192 1017 L-614094 1017 L-613264 1017 L-611233 1017 L-610943 1016 L-608796 1016 L-608641 1016 L-604984 1015 L-604733 1015 L-604635 1015 L-604118 1015 L-601967 1016 L-601038 1016 L-599512 1017 L-598272 1017 L-596726 1017 L-593764 1016 L-592642 1016 L-592333 1016 L-591122 1016 L-588115 1017 L-588095 1017 L-587748 1017 L-587535 1017 L-587409 1016 L-587167 1015 L-587129 1015 L-587109 1015 L-587090 1015 L-587031 1015 L-586973 1014 L-586955 1014 L-586512 1014 L-585272 1014 L-583726 1014 L-580339 1014 L-574612 1014 L-574411 1013 L-572775 1013 L-571053 1013 L-569621 1013 L-569389 1013 L-568673 1013 L-562541 1013 L-562173 1013 L-562019 1013 L-561441 1012 L-561148 1012 L-560181 1012 L-559871 1012 L-559272 1012 L-557666 1012 L-556931 1012 L-556621 1012 L-555853 1012 L-553817 1012 L-553391 1011 L-552579 1011 L-545150 1011 L-544627 1011 L-544454 1011 L-543719 1011 L-542151 1011 L-541745 1010 L-539520 1010 L-538572 1010 L-538147 1010 L-537817 1010 L-536773 1010 L-534665 1010 L-534413 1010 L-533794 1009 L-532981 1009 L-530873 1009 L-530825 1009 L-528897 1009 L-528571 1009 L-528436 1009 L-527933 1008 L-526520 1008 L-526017 1008 L-525495 1008 L-521936 1007 L-521201 1007 L-518776 1007 L-517486 1007 L-517079 1007 L-513927 1007 L-513772 1007 L-513752 1007 L-513385 1007 L-512127 1007 L-511412 1007 L-510522 1007 L-510115 1007 L-509187 1007 L-508078 1007 L-507775 1007 L-501526 1007 L-500579 1008 L-498952 1008 L-498451 1008 L-494775 1008 L-493943 1008 L-489989 1008 L-488578 1008 L-486088 1008 L-485412 1008 L-485373 1007 L-484502 1007 L-481291 1007 L-478428 1007 L-477460 1007 L-476339 1007 L-476320 1007 L-474695 1007 L-474230 1006 L-474139 1006 L-467769 1006 L-466821 1006 L-464364 1006 L-463491 1006 L-462255 1006 L-460254 1006 L-459856 1006 L-458420 1005 L-456394 1005 L-456181 1005 L-455001 1005 L-453492 1005 L-453472 1005 L-451460 1005 L-450590 1005 L-449720 1004 L-449135 1004 L-448598 1004 L-447940 1004 L-446702 1004 L-446141 1004 L-444960 1004 L-443722 1004 L-443684 1003 L-443297 1003 L-442755 1003 L-441982 1003 L-440859 1003 L-438770 1003 L-438437 1003 L-438151 1002 L-437222 1002 L-436739 1002 L-436004 1002 L-432372 1002 L-431245 1002 L-431090 1002 L-430064 1002 L-426350 1002 L-425132 1001 L-423314 1001 L-420528 1001 L-419966 1001 L-416079 1001 L-413602 1001 L-412267 1001 L-411764 1001 L-411281 1001 L-408591 1001 L-404820 1001 L-402362 1001 L-401183 1001 L-400543 1001 L-398184 1001 L-398106 1000 L-397059 1000 L-396965 1000 L-396463 1000 L-396017 1000 L-395959 1000 L-395746 1000 L-392786 1000 L-390079 1000 L-389924 1000 L-386403 1000 L-385880 1000 L-384913 999 L-384564 999 L-383520 999 L-382591 999 L-382166 999 L-380657 999 L-379690 999 L-379671 999 L-377775 992 L-377659 986 L-377611 980 L-377587 973 L-374583 973 L-372552 973 L-370791 973 L-370424 973 L-369978 973 L-369611 972 L-369197 972 L-367212 972 L-366999 972 L-366844 972 L-365239 972 L-364117 972 L-363169 972 L-361912 972 L-360267 972 L-359088 971 L-352498 971 L-352451 971 L-352046 971 L-351001 971 L-350865 971 L-349183 971 L-349163 971 L-347826 971 L-346590 971 L-346436 970 L-346062 970 L-345855 970 L-345546 970 L-344772 970 L-342451 970 L-341793 970 L-339665 970 L-337943 970 L-337749 969 L-335196 969 L-334919 969 L-334731 969 L-333899 969 L-333126 969 L-332428 969 L-327428 969 L-327052 969 L-322799 968 L-322312 977 L-322293 977 L-322214 977 L-322138 977 L-322118 968 L-321306 968 L-320552 968 L-319333 968 L-317901 968 L-317805 968 L-317630 968 L-317276 967 L-315966 967 L-314109 967 L-312407 967 L-311904 967 L-311639 967 L-311246 967 L-311111 967 L-310202 967 L-309825 967 L-308897 967 L-308558 966 L-308518 966 L-308480 966 L-306565 966 L-306391 966 L-304862 966 L-304534 966 L-304418 966 L-304011 966 L-303663 966 L-302019 966 L-301468 966 L-301225 966 L-300684 965 L-299852 965 L-299311 965 L-297776 965 L-297684 965 L-297647 965 L-297511 965 L-297124 965 L-296099 965 L-294223 964 L-294126 964 L-293526 967 L-293159 970 L-292674 973 L-292636 976 L-291862 976 L-291805 976 L-291630 976 L-291437 976 L-289832 976 L-289812 976 L-289656 976 L-289541 976 L-288361 976 L-288207 976 L-287540 976 L-285092 983 L-282577 991 L-279907 998 L-272208 1005 L-266540 1005 L-264325 1004 L-264302 1004 L-263328 1006 L-263308 1006 L-262445 1006 L-259704 1006 L-253906 1004 L-253752 1004 L-250967 1004 L-237358 1004 L-236612 1004 L-232202 1003 L-215855 1003 L-215623 1003 L-215086 1003 L-206627 1003 L-197921 1003 L-197709 1003 L-195736 1003 L-192950 1003 L-188463 1003 L-188308 1003 L-188139 1003 L-187998 1003 L-187708 1002 L-187669 1002 L-187398 1002 L-187226 1002 L-186816 1002 L-185696 1002 L-184515 1002 L-183239 1002 L-180375 1002 L-177455 1002 L-175463 1002 L-173915 1001 L-170877 1001 L-161553 1001 L-161029 1001 L-155305 1001 L-153798 1001 L-152983 1001 L-151300 1001 L-150579 1001 L-150410 1001 L-149365 1001 L-147298 1001 L-145936 1001 L-141492 1000 L-141395 1000 L-141356 1000 L-141337 1000 L-140505 1000 L-140427 1000 L-137855 1000 L-134605 1000 L-134451 1000 L-133502 1000 L-131761 999 L-131046 1000 L-127505 1000 L-120928 1001 L-119510 1002 L-119490 1001 L-118539 1001 L-115065 1001 L-114312 1001 L-113750 1001 L-112968 1001 L-105464 1001 L-103865 1001 L-102291 1001 L-99106 1001 L-94773 1001 L-86203 1000 L-77457 1000 L-74383 1000 L-71117 1000 L-70571 1000 L-63433 1000 L-57766 1000 L-43701 1000 L-37690 1000 L-32984 1000 L-28980 1000 L-23873 1000 L-14159 1000 L1411 999 L4494 999 L4796 960 L4815 913 L4834 858 L4854 797 L4874 770 L4893 746 L4911 725 L4939 704 L4960 683 L4988 661 L5023 637 L5037 617 L5050 600 L5068 585 L5087 574 L5107 563 L5125 552 L5145 541 L5164 530 L5186 519 L5202 508 L5221 497 L5242 486 L5262 475 L5280 464 L5299 452 L5318 440 L5339 428 L5357 416 L5376 405 L5397 395 L5422 384 L5437 374 L5454 364 L5473 354 L5493 344 L5512 334 L5531 323 L5551 312 L5571 303 L5589 293 L5608 284 L5629 276 L5649 268 L5666 261 L5685 255 L5705 248 L5724 242 L5744 236 L5763 230 L5783 225 L5802 221 L5821 216 L5840 212 L5867 206 L5888 200 L5916 193 L5950 186 L5964 179 L5977 174 L5996 169 L6015 165 L6035 161 L6053 155 L6073 150 L6093 145 L6113 141 L6131 136 L6150 132 L6170 127 L6190 122 L6208 115 L6227 109 L6247 102 L6267 95 L6286 89 L6304 82 L6325 74 L6350 65 L6365 57 L6382 49 L6402 41 L6421 33 L6440 25 L6459 16 L6479 8 L6500 0" />
</svg>
