<svg xmlns="http://www.w3.org/2000/svg" version="1.1" viewBox="0 0 6500 1000">
	<path fill="none" stroke="gold" stroke-width="125" stroke-linecap="round" stroke-linejoin="round" d="M0 1179  L-713263 1179 L-710659 1178 L-708991 1178 L-690661 1176 L-690491 1175 L-683333 1174 L-683300 1174 L-669869 1173 L-666947 1174 L-653606 1172 L-649437 1170 L-648277 1167 L-647658 1164 L-645646 1162 L-641875 1161 L-641275 1159 L-640946 1158 L-640733 1157 L-640191 1156 L-638953 1151 L-637774 1146 L-634910 1141 L-634388 1136 L-629532 1135 L-626595 1134 L-626552 1132 L-626244 1131 L-625992 1130 L-623397 1129 L-619141 1129 L-619123 1129 L-617887 1129 L-616009 1129 L-614056 1128 L-613108 1126 L-612837 1125 L-612527 1125 L-612429 1124 L-611599 1124 L-609568 1125 L-609277 1119 L-607131 1117 L-606975 1113 L-603319 1109 L-603068 1111 L-602969 1110 L-602452 1112 L-600301 1115 L-599372 1118 L-597846 1121 L-596607 1121 L-595060 1121 L-592099 1120 L-590977 1118 L-590668 1117 L-589456 1117 L-586450 1123 L-586430 1123 L-586083 1122 L-585869 1121 L-585743 1113 L-585502 1112 L-585464 1110 L-585444 1109 L-585425 1108 L-585366 1107 L-585307 1106 L-585289 1104 L-584846 1103 L-583607 1102 L-582061 1101 L-578673 1099 L-572947 1099 L-572746 1098 L-571110 1098 L-569388 1097 L-567956 1096 L-567723 1096 L-567008 1095 L-560876 1095 L-560508 1093 L-560354 1092 L-559775 1091 L-559483 1090 L-558515 1088 L-558206 1087 L-557607 1086 L-556001 1086 L-555265 1086 L-554956 1087 L-554187 1087 L-552151 1085 L-551726 1084 L-550913 1084 L-543485 1082 L-542962 1081 L-542788 1080 L-542053 1079 L-540485 1077 L-540080 1077 L-537855 1076 L-536907 1075 L-536482 1074 L-536152 1074 L-535108 1074 L-533000 1073 L-532748 1071 L-532129 1070 L-531316 1070 L-529208 1068 L-529160 1067 L-527231 1066 L-526906 1065 L-526771 1063 L-526267 1063 L-524855 1062 L-524352 1059 L-523830 1057 L-520270 1055 L-519535 1052 L-517110 1052 L-515821 1051 L-515414 1051 L-512262 1051 L-512107 1051 L-512087 1051 L-511720 1051 L-510462 1052 L-509747 1052 L-508857 1052 L-508450 1052 L-507521 1052 L-506413 1052 L-506109 1054 L-499861 1055 L-498913 1057 L-497287 1058 L-496785 1059 L-493110 1059 L-492277 1060 L-488324 1060 L-486912 1059 L-484423 1057 L-483747 1056 L-483708 1055 L-482837 1055 L-479626 1055 L-476763 1054 L-475795 1054 L-474673 1052 L-474654 1051 L-473029 1050 L-472565 1048 L-472473 1048 L-466104 1047 L-465155 1046 L-462698 1046 L-461826 1045 L-460590 1044 L-458589 1043 L-458191 1042 L-456755 1041 L-454729 1040 L-454515 1039 L-453335 1038 L-451827 1038 L-451807 1037 L-449795 1037 L-448925 1035 L-448054 1035 L-447469 1034 L-446932 1032 L-446274 1031 L-445036 1030 L-444476 1029 L-443295 1029 L-442057 1028 L-442019 1027 L-441632 1027 L-441090 1026 L-440316 1025 L-439194 1024 L-437105 1023 L-436771 1022 L-436486 1021 L-435557 1020 L-435074 1019 L-434338 1018 L-430707 1018 L-429580 1017 L-429425 1016 L-428399 1015 L-424684 1015 L-423467 1013 L-421648 1012 L-418863 1012 L-418301 1010 L-414413 1010 L-411937 1010 L-410602 1010 L-410098 1009 L-409615 1008 L-406926 1008 L-403154 1008 L-400697 1008 L-399517 1008 L-398878 1008 L-396519 1007 L-396441 1006 L-395394 1005 L-395300 1004 L-394797 1004 L-394352 1004 L-394294 1004 L-394080 1004 L-391121 1003 L-388413 1002 L-388258 1002 L-384738 1001 L-384215 1000 L-383247 999 L-382898 998 L-381855 997 L-380926 996 L-380501 995 L-378991 995 L-378025 994 L-378006 994 L-376110 949 L-375994 903 L-375946 858 L-375921 813 L-372917 812 L-370886 811 L-369126 811 L-368759 810 L-368313 809 L-367946 808 L-367532 807 L-365547 806 L-365334 806 L-365179 806 L-363574 806 L-362452 805 L-361504 804 L-360246 803 L-358602 803 L-357422 801 L-350833 801 L-350786 800 L-350380 800 L-349335 799 L-349200 798 L-347517 797 L-347497 797 L-346161 795 L-344924 795 L-344770 794 L-344396 793 L-344190 792 L-343881 792 L-343107 790 L-340785 790 L-340127 789 L-338000 789 L-336277 788 L-336084 787 L-333530 786 L-333254 785 L-333066 784 L-332233 783 L-331461 782 L-330763 782 L-325762 782 L-325386 781 L-321134 780 L-320646 841 L-320627 841 L-320548 840 L-320473 839 L-320453 777 L-319640 776 L-318887 775 L-317667 775 L-316236 775 L-316139 774 L-315965 774 L-315610 773 L-314301 772 L-312444 771 L-310742 770 L-310239 770 L-309973 769 L-309580 768 L-309446 768 L-308536 767 L-308160 767 L-307231 767 L-306892 766 L-306853 766 L-306815 765 L-304899 765 L-304726 765 L-303197 765 L-302869 764 L-302753 764 L-302346 762 L-301997 762 L-300354 760 L-299803 760 L-299560 759 L-299018 759 L-298187 757 L-297645 757 L-296111 756 L-296019 755 L-295982 754 L-295846 754 L-295459 753 L-294434 753 L-292557 752 L-292461 751 L-291861 771 L-291494 792 L-291009 813 L-290971 834 L-290197 835 L-290140 834 L-289965 833 L-289772 833 L-288166 831 L-288146 831 L-287991 832 L-287876 833 L-286696 833 L-286541 835 L-285874 835 L-283426 885 L-280911 936 L-278242 986 L-270542 1035 L-264875 1035 L-262660 1035 L-262637 1035 L-261663 1047 L-261643 1047 L-260779 1046 L-258039 1045 L-252240 1032 L-252087 1031 L-249301 1030 L-235693 1029 L-234947 1029 L-230536 1027 L-214190 1027 L-213958 1026 L-213421 1025 L-204961 1024 L-196256 1024 L-196043 1023 L-194071 1023 L-191285 1023 L-186797 1023 L-186642 1023 L-186473 1023 L-186333 1022 L-186042 1021 L-186004 1020 L-185733 1019 L-185561 1019 L-185151 1018 L-184030 1018 L-182850 1017 L-181573 1016 L-178709 1016 L-175789 1015 L-173797 1015 L-172250 1013 L-169212 1013 L-159887 1012 L-159363 1012 L-153639 1012 L-152132 1011 L-151318 1011 L-149634 1010 L-148913 1009 L-148745 1008 L-147700 1008 L-145632 1007 L-144270 1007 L-139827 1006 L-139730 1005 L-139691 1005 L-139672 1004 L-138840 1004 L-138762 1002 L-136189 1002 L-132940 1001 L-132785 1001 L-131837 1000 L-130096 999 L-129380 1002 L-125840 1005 L-119262 1009 L-117845 1014 L-117824 1013 L-116874 1013 L-113399 1012 L-112646 1011 L-112085 1010 L-111303 1010 L-103798 1009 L-102200 1008 L-100626 1008 L-97441 1007 L-93108 1007 L-84538 1006 L-75792 1006 L-72718 1005 L-69452 1004 L-68905 1004 L-61768 1003 L-56100 1003 L-42036 1003 L-36025 1004 L-31318 1003 L-27315 1002 L-22208 1001 L-12493 1001 L3076 999 L6159 998 L6461 723 L6481 385 L6500 0" />
</svg>
