<svg xmlns="http://www.w3.org/2000/svg" version="1.1" viewBox="0 0 6500 1000">
	<path fill="none" stroke="gold" stroke-width="125" stroke-linecap="round" stroke-linejoin="round" d="M0 1043  L-713786 1043 L-711182 1043 L-709514 1043 L-691184 1042 L-691014 1042 L-683856 1042 L-683823 1042 L-670392 1042 L-667470 1042 L-654129 1041 L-649960 1041 L-648800 1040 L-648181 1039 L-646169 1039 L-642398 1039 L-641797 1038 L-641469 1038 L-641256 1038 L-640714 1037 L-639476 1036 L-638297 1035 L-635433 1034 L-634910 1033 L-630055 1032 L-627118 1032 L-627075 1032 L-626766 1031 L-626514 1031 L-623920 1031 L-619664 1031 L-619646 1031 L-618409 1031 L-616532 1031 L-614578 1031 L-613630 1030 L-613360 1030 L-613050 1030 L-612952 1030 L-612121 1030 L-610091 1030 L-609800 1028 L-607654 1028 L-607498 1027 L-603842 1026 L-603591 1027 L-603492 1026 L-602975 1027 L-600824 1028 L-599895 1028 L-598369 1029 L-597130 1029 L-595583 1029 L-592621 1029 L-591500 1028 L-591190 1028 L-589979 1028 L-586972 1029 L-586953 1029 L-586605 1029 L-586392 1029 L-586266 1027 L-586025 1027 L-585987 1026 L-585967 1026 L-585948 1026 L-585889 1025 L-585830 1025 L-585812 1025 L-585369 1025 L-584130 1024 L-582584 1024 L-579196 1024 L-573470 1024 L-573268 1023 L-571633 1023 L-569911 1023 L-568478 1023 L-568246 1023 L-567531 1023 L-561399 1023 L-561031 1022 L-560877 1022 L-560298 1022 L-560006 1021 L-559038 1021 L-558729 1021 L-558130 1020 L-556523 1020 L-555788 1020 L-555478 1021 L-554710 1021 L-552674 1020 L-552249 1020 L-551436 1020 L-544008 1020 L-543485 1019 L-543311 1019 L-542576 1019 L-541008 1018 L-540603 1018 L-538378 1018 L-537430 1018 L-537005 1018 L-536674 1018 L-535631 1018 L-533523 1017 L-533270 1017 L-532651 1017 L-531839 1016 L-529731 1016 L-529682 1016 L-527754 1016 L-527428 1015 L-527293 1015 L-526790 1015 L-525378 1015 L-524875 1014 L-524353 1014 L-520793 1013 L-520058 1012 L-517633 1012 L-516344 1012 L-515937 1012 L-512784 1012 L-512630 1012 L-512609 1012 L-512243 1012 L-510985 1012 L-510270 1012 L-509380 1012 L-508973 1012 L-508044 1012 L-506935 1012 L-506632 1013 L-500383 1013 L-499436 1013 L-497810 1014 L-497308 1014 L-493632 1014 L-492800 1014 L-488847 1014 L-487435 1014 L-484946 1014 L-484269 1013 L-484231 1013 L-483360 1013 L-480149 1013 L-477286 1013 L-476318 1013 L-475196 1012 L-475177 1012 L-473552 1012 L-473088 1011 L-472996 1011 L-466627 1011 L-465678 1011 L-463221 1011 L-462349 1010 L-461113 1010 L-459112 1010 L-458714 1010 L-457278 1010 L-455252 1009 L-455038 1009 L-453858 1009 L-452350 1009 L-452330 1009 L-450317 1008 L-449448 1008 L-448577 1008 L-447992 1008 L-447455 1007 L-446797 1007 L-445559 1007 L-444999 1007 L-443817 1007 L-442580 1006 L-442541 1006 L-442154 1006 L-441613 1006 L-440839 1006 L-439717 1006 L-437628 1005 L-437294 1005 L-437008 1005 L-436080 1004 L-435597 1004 L-434861 1004 L-431230 1004 L-430102 1004 L-429948 1004 L-428922 1003 L-425207 1003 L-423990 1003 L-422171 1003 L-419385 1002 L-418824 1002 L-414936 1002 L-412460 1002 L-411125 1002 L-410621 1002 L-410138 1002 L-407449 1002 L-403677 1002 L-401220 1002 L-400040 1002 L-399401 1002 L-397041 1001 L-396964 1001 L-395917 1001 L-395823 1001 L-395320 1001 L-394875 1001 L-394817 1001 L-394603 1001 L-391644 1000 L-388936 1000 L-388781 1000 L-385261 1000 L-384738 1000 L-383770 999 L-383421 999 L-382378 999 L-381449 999 L-381023 998 L-379514 998 L-378547 998 L-378528 998 L-376632 987 L-376516 976 L-376469 965 L-376444 954 L-373440 954 L-371409 954 L-369648 954 L-369281 954 L-368836 953 L-368469 953 L-368055 953 L-366070 953 L-365857 953 L-365702 953 L-364097 953 L-362975 952 L-362027 952 L-360769 952 L-359125 952 L-357945 952 L-351356 951 L-351309 951 L-350903 951 L-349858 951 L-349723 951 L-348040 950 L-348020 950 L-346683 950 L-345447 950 L-345293 950 L-344919 949 L-344713 949 L-344403 949 L-343630 949 L-341308 949 L-340650 949 L-338522 948 L-336800 948 L-336607 948 L-334053 948 L-333777 948 L-333589 947 L-332756 947 L-331984 947 L-331286 947 L-326285 947 L-325909 946 L-321656 946 L-321169 961 L-321150 961 L-321071 961 L-320996 961 L-320976 946 L-320163 945 L-319409 945 L-318190 945 L-316758 945 L-316662 945 L-316488 945 L-316133 945 L-314824 944 L-312967 944 L-311264 944 L-310762 944 L-310496 944 L-310103 944 L-309969 943 L-309059 943 L-308683 943 L-307754 943 L-307415 943 L-307375 943 L-307338 943 L-305422 943 L-305249 943 L-303720 943 L-303392 942 L-303276 942 L-302868 942 L-302520 942 L-300877 942 L-300326 941 L-300083 941 L-299541 941 L-298710 941 L-298168 941 L-296634 940 L-296541 940 L-296505 940 L-296369 940 L-295981 940 L-294957 940 L-293080 940 L-292984 939 L-292384 944 L-292016 949 L-291532 954 L-291494 959 L-290720 960 L-290662 960 L-290488 959 L-290294 959 L-288689 959 L-288669 959 L-288514 959 L-288399 959 L-287219 959 L-287064 960 L-286397 960 L-283949 972 L-281434 984 L-278764 996 L-271065 1008 L-265397 1008 L-263183 1008 L-263160 1008 L-262186 1011 L-262166 1011 L-261302 1011 L-258562 1011 L-252763 1007 L-252610 1007 L-249824 1007 L-236216 1007 L-235470 1007 L-231059 1006 L-214713 1006 L-214481 1006 L-213944 1006 L-205484 1006 L-196779 1005 L-196566 1005 L-194594 1005 L-191808 1005 L-187320 1005 L-187165 1005 L-186996 1005 L-186856 1005 L-186565 1005 L-186526 1004 L-186256 1004 L-186084 1004 L-185674 1004 L-184553 1004 L-183373 1004 L-182096 1004 L-179232 1003 L-176312 1003 L-174320 1003 L-172772 1003 L-169734 1003 L-160410 1003 L-159886 1002 L-154162 1002 L-152655 1002 L-151841 1002 L-150157 1002 L-149436 1002 L-149267 1002 L-148222 1002 L-146155 1001 L-144793 1001 L-140350 1001 L-140252 1001 L-140214 1001 L-140195 1001 L-139362 1000 L-139285 1000 L-136712 1000 L-133463 1000 L-133308 1000 L-132360 1000 L-130619 999 L-129903 1000 L-126363 1001 L-119785 1002 L-118368 1003 L-118347 1003 L-117397 1003 L-113922 1003 L-113169 1002 L-112607 1002 L-111825 1002 L-104321 1002 L-102723 1002 L-101149 1002 L-97963 1001 L-93630 1001 L-85061 1001 L-76314 1001 L-73241 1001 L-69974 1001 L-69428 1000 L-62291 1000 L-56623 1000 L-42559 1000 L-36547 1000 L-31841 1000 L-27838 1000 L-22730 1000 L-13016 1000 L2553 999 L5636 999 L5938 933 L5958 851 L5977 757 L5996 653 L6016 606 L6035 566 L6054 529 L6082 493 L6102 457 L6130 420 L6166 379 L6179 344 L6192 314 L6211 289 L6229 271 L6249 252 L6267 233 L6287 215 L6307 196 L6328 176 L6345 157 L6363 138 L6384 120 L6404 102 L6422 82 L6441 61 L6461 40 L6481 20 L6500 0" />
</svg>
