<svg xmlns="http://www.w3.org/2000/svg" version="1.1" viewBox="0 0 6500 1000">
	<path fill="none" stroke="gold" stroke-width="125" stroke-linecap="round" stroke-linejoin="round" d="M0 24677  L-269991 24677 L-267387 24581 L-265719 24485 L-247389 24293 L-247219 24101 L-240061 23909 L-240028 23909 L-226597 23813 L-223675 23909 L-210335 23621 L-206166 23238 L-205006 22758 L-204386 22278 L-202375 21990 L-198603 21798 L-198003 21606 L-197674 21414 L-197461 21222 L-196919 21030 L-195681 20262 L-194502 19495 L-191638 18727 L-191116 17959 L-186260 17767 L-183323 17575 L-183280 17383 L-182972 17191 L-182720 17000 L-180125 16808 L-175869 16808 L-175851 16808 L-174615 16808 L-172737 16808 L-170784 16616 L-169836 16424 L-169565 16232 L-169255 16136 L-169157 16040 L-168327 16040 L-166296 16136 L-166005 15272 L-163859 14888 L-163704 14312 L-160047 13737 L-159796 14024 L-159698 13928 L-159180 14216 L-157029 14696 L-156100 15176 L-154574 15656 L-153335 15656 L-151788 15560 L-148827 15368 L-147705 15176 L-147396 14984 L-146184 14888 L-143178 15944 L-143158 15848 L-142811 15752 L-142598 15656 L-142471 14312 L-142230 14120 L-142192 13928 L-142172 13737 L-142153 13545 L-142094 13353 L-142035 13161 L-142017 12969 L-141574 12777 L-140335 12585 L-138789 12393 L-135401 12201 L-129675 12105 L-129474 12009 L-127838 11913 L-126116 11817 L-124684 11721 L-124451 11625 L-123736 11529 L-117604 11433 L-117236 11241 L-117082 11049 L-116503 10857 L-116211 10666 L-115243 10474 L-114934 10282 L-114335 10090 L-112729 10090 L-111994 10090 L-111684 10186 L-110915 10186 L-108879 9994 L-108454 9802 L-107641 9706 L-100213 9514 L-99690 9322 L-99516 9130 L-98781 8938 L-97214 8746 L-96808 8650 L-94583 8458 L-93635 8362 L-93210 8266 L-92880 8266 L-91836 8170 L-89728 7978 L-89476 7786 L-88857 7595 L-88044 7499 L-85936 7307 L-85888 7115 L-83959 6923 L-83634 6731 L-83499 6539 L-82996 6443 L-81583 6251 L-81080 5867 L-80558 5579 L-76998 5195 L-76263 4811 L-73839 4811 L-72549 4619 L-72142 4523 L-68990 4523 L-68835 4523 L-68815 4619 L-68448 4619 L-67190 4715 L-66475 4811 L-65585 4811 L-65178 4811 L-64249 4811 L-63141 4715 L-62837 5099 L-56589 5291 L-55641 5483 L-54015 5675 L-53513 5771 L-49838 5867 L-49005 5963 L-45052 6059 L-43640 5771 L-41151 5579 L-40475 5387 L-40436 5291 L-39565 5291 L-36354 5195 L-33491 5099 L-32523 5003 L-31401 4811 L-31382 4619 L-29757 4428 L-29293 4140 L-29201 4044 L-22832 3948 L-21884 3852 L-19426 3756 L-18554 3564 L-17318 3468 L-15317 3372 L-14919 3180 L-13483 2988 L-11457 2892 L-11244 2700 L-10063 2604 L-8555 2508 L-8535 2412 L-6523 2316 L-5653 2124 L-4782 2028 L-4197 1836 L-3660 1644 L-3003 1452 L-1764 1261 L-1204 1165 L-23 1069 L1214 973 L1252 877 L1639 781 L2181 589 L2955 493 L4077 397 L6166 205 L6500 13" />
</svg>
