<svg xmlns="http://www.w3.org/2000/svg" version="1.1" viewBox="0 0 6500 1000">
	<path fill="none" stroke="gold" stroke-width="125" stroke-linecap="round" stroke-linejoin="round" d="M0 4691  L-723033 4691 L-720429 4690 L-718761 4690 L-700432 4690 L-700261 4689 L-693104 4689 L-693070 4689 L-679640 4689 L-676718 4689 L-663377 4688 L-659208 4687 L-658048 4686 L-657429 4685 L-655417 4684 L-651645 4684 L-651045 4683 L-650716 4683 L-650503 4683 L-649961 4682 L-648723 4680 L-647545 4679 L-644680 4677 L-644158 4675 L-639302 4675 L-636365 4674 L-636322 4674 L-636014 4673 L-635762 4673 L-633167 4672 L-628912 4672 L-628894 4672 L-627657 4672 L-625779 4672 L-623826 4672 L-622878 4672 L-622607 4671 L-622297 4671 L-622199 4671 L-621369 4671 L-619338 4671 L-619048 4669 L-616901 4668 L-616746 4667 L-613089 4665 L-612838 4666 L-612740 4666 L-612223 4666 L-610071 4668 L-609143 4669 L-607617 4670 L-606377 4670 L-604831 4670 L-601869 4669 L-600747 4669 L-600438 4668 L-599227 4668 L-596220 4670 L-596200 4670 L-595853 4670 L-595640 4670 L-595514 4667 L-595272 4666 L-595234 4666 L-595214 4665 L-595195 4665 L-595136 4664 L-595078 4664 L-595060 4664 L-594617 4663 L-593377 4663 L-591831 4662 L-588444 4662 L-582717 4662 L-582516 4661 L-580880 4661 L-579158 4661 L-577726 4661 L-577494 4660 L-576778 4660 L-570646 4660 L-570278 4660 L-570124 4659 L-569546 4659 L-569253 4658 L-568286 4658 L-567976 4657 L-567377 4657 L-565771 4657 L-565036 4657 L-564726 4657 L-563958 4657 L-561922 4657 L-561496 4656 L-560684 4656 L-553255 4656 L-552732 4655 L-552559 4655 L-551823 4654 L-550256 4654 L-549850 4654 L-547625 4653 L-546677 4653 L-546252 4653 L-545922 4653 L-544878 4652 L-542770 4652 L-542518 4652 L-541899 4651 L-541086 4651 L-538978 4650 L-538930 4650 L-537002 4650 L-536676 4649 L-536541 4649 L-536038 4648 L-534625 4648 L-534122 4647 L-533600 4646 L-530041 4646 L-529306 4645 L-526881 4645 L-525591 4644 L-525184 4644 L-522032 4644 L-521877 4644 L-521857 4644 L-521490 4644 L-520232 4644 L-519517 4645 L-518627 4645 L-518220 4645 L-517292 4645 L-516183 4644 L-515880 4645 L-509631 4646 L-508684 4646 L-507057 4647 L-506556 4647 L-502880 4647 L-502048 4647 L-498094 4648 L-496683 4647 L-494193 4646 L-493517 4646 L-493478 4646 L-492607 4646 L-489396 4646 L-486533 4645 L-485565 4645 L-484444 4645 L-484425 4644 L-482800 4644 L-482335 4643 L-482244 4643 L-475874 4643 L-474926 4643 L-472469 4642 L-471596 4642 L-470360 4642 L-468359 4641 L-467961 4641 L-466525 4641 L-464499 4640 L-464286 4640 L-463106 4640 L-461597 4639 L-461577 4639 L-459565 4639 L-458695 4639 L-457825 4638 L-457240 4638 L-456703 4637 L-456045 4637 L-454807 4637 L-454246 4636 L-453065 4636 L-451827 4636 L-451789 4636 L-451402 4635 L-450860 4635 L-450087 4635 L-448964 4635 L-446875 4634 L-446542 4634 L-446256 4633 L-445327 4633 L-444844 4633 L-444109 4632 L-440477 4632 L-439350 4632 L-439195 4632 L-438169 4631 L-434455 4631 L-433237 4631 L-431419 4630 L-428633 4630 L-428071 4629 L-424184 4629 L-421707 4629 L-420372 4629 L-419869 4629 L-419386 4629 L-416696 4629 L-412925 4629 L-410467 4629 L-409288 4629 L-408648 4629 L-406289 4628 L-406211 4628 L-405164 4628 L-405070 4627 L-404568 4627 L-404122 4627 L-404064 4627 L-403851 4627 L-400891 4627 L-398184 4627 L-398029 4626 L-394508 4626 L-393985 4626 L-393018 4625 L-392669 4625 L-391625 4625 L-390696 4624 L-390271 4624 L-388762 4624 L-387795 4624 L-387776 4623 L-385880 4607 L-385764 4591 L-385716 4574 L-385692 4558 L-382687 4558 L-380657 4557 L-378896 4557 L-378529 4557 L-378083 4556 L-377716 4556 L-377302 4556 L-375317 4555 L-375104 4555 L-374949 4555 L-373344 4555 L-372222 4555 L-371274 4555 L-370017 4554 L-368372 4554 L-367193 4554 L-360603 4553 L-360556 4553 L-360151 4553 L-359106 4553 L-358970 4553 L-357288 4552 L-357268 4552 L-355931 4551 L-354695 4551 L-354541 4551 L-354167 4551 L-353960 4550 L-353651 4550 L-352877 4550 L-350556 4549 L-349898 4549 L-347770 4549 L-346048 4549 L-345854 4548 L-343301 4548 L-343024 4548 L-342836 4547 L-342004 4547 L-341231 4547 L-340533 4547 L-335533 4547 L-335157 4546 L-330904 4546 L-330417 4568 L-330398 4568 L-330319 4568 L-330243 4567 L-330223 4545 L-329411 4545 L-328657 4544 L-327438 4544 L-326006 4544 L-325910 4544 L-325735 4544 L-325381 4543 L-324071 4543 L-322214 4543 L-320512 4542 L-320009 4542 L-319744 4542 L-319351 4542 L-319216 4542 L-318307 4541 L-317930 4541 L-317002 4541 L-316663 4541 L-316623 4541 L-316585 4541 L-314670 4541 L-314496 4540 L-312967 4540 L-312639 4540 L-312523 4540 L-312116 4540 L-311768 4539 L-310124 4539 L-309573 4539 L-309330 4538 L-308789 4538 L-307957 4538 L-307416 4538 L-305881 4537 L-305789 4537 L-305752 4537 L-305616 4536 L-305229 4536 L-304204 4536 L-302328 4536 L-302231 4536 L-301631 4543 L-301264 4550 L-300779 4558 L-300741 4565 L-299967 4566 L-299910 4566 L-299735 4565 L-299542 4565 L-297937 4565 L-297917 4564 L-297761 4565 L-297646 4565 L-296466 4565 L-296312 4566 L-295645 4566 L-293197 4584 L-290682 4603 L-288012 4621 L-280313 4639 L-274645 4639 L-272430 4638 L-272407 4638 L-271433 4643 L-271413 4643 L-270550 4642 L-267809 4642 L-262011 4637 L-261857 4637 L-259071 4637 L-245463 4636 L-244717 4636 L-240307 4636 L-223960 4635 L-223728 4635 L-223191 4635 L-214732 4635 L-206026 4634 L-205814 4634 L-203841 4634 L-201055 4634 L-196568 4634 L-196413 4634 L-196244 4634 L-196103 4634 L-195813 4633 L-195774 4633 L-195503 4633 L-195331 4633 L-194921 4632 L-193801 4632 L-192620 4632 L-191344 4632 L-188480 4631 L-185560 4631 L-183568 4631 L-182020 4631 L-178982 4630 L-169658 4630 L-169134 4630 L-163410 4630 L-161903 4630 L-161088 4630 L-159405 4629 L-158684 4629 L-158515 4629 L-157470 4629 L-155403 4628 L-154041 4628 L-149597 4628 L-149500 4628 L-149461 4627 L-149442 4627 L-148610 4627 L-148532 4627 L-145960 4626 L-142710 4626 L-142556 4626 L-141607 4626 L-139866 4625 L-139151 4627 L-135610 4628 L-129033 4629 L-127615 4631 L-127595 4631 L-126644 4630 L-123170 4630 L-122417 4630 L-121855 4629 L-121073 4629 L-113569 4629 L-111970 4629 L-110396 4629 L-107211 4628 L-102878 4628 L-94308 4628 L-85562 4628 L-82488 4628 L-79222 4627 L-78676 4627 L-71538 4627 L-65871 4627 L-51806 4627 L-45795 4627 L-41089 4627 L-37085 4626 L-31978 4626 L-22264 4626 L-6693 4625 L-3610 4625 L-3308 4525 L-3289 4403 L-3270 4263 L-3250 4107 L-3230 4036 L-3211 3976 L-3193 3921 L-3165 3867 L-3144 3814 L-3116 3758 L-3081 3697 L-3067 3645 L-3054 3600 L-3036 3563 L-3017 3535 L-2997 3507 L-2979 3479 L-2959 3451 L-2940 3422 L-2918 3393 L-2902 3364 L-2883 3336 L-2862 3309 L-2842 3281 L-2824 3252 L-2805 3221 L-2786 3190 L-2765 3159 L-2747 3129 L-2728 3102 L-2707 3075 L-2682 3047 L-2667 3022 L-2650 2996 L-2631 2970 L-2611 2945 L-2592 2918 L-2573 2890 L-2553 2864 L-2533 2839 L-2515 2814 L-2496 2792 L-2475 2770 L-2455 2750 L-2438 2732 L-2419 2715 L-2399 2698 L-2380 2682 L-2360 2667 L-2341 2653 L-2321 2640 L-2302 2629 L-2283 2617 L-2264 2605 L-2237 2590 L-2216 2575 L-2188 2557 L-2154 2538 L-2140 2523 L-2127 2509 L-2108 2496 L-2089 2486 L-2069 2474 L-2051 2461 L-2031 2448 L-2011 2435 L-1991 2423 L-1973 2412 L-1954 2400 L-1934 2388 L-1914 2374 L-1896 2358 L-1877 2342 L-1857 2325 L-1837 2307 L-1818 2289 L-1800 2271 L-1779 2251 L-1754 2230 L-1739 2208 L-1722 2188 L-1702 2168 L-1683 2148 L-1664 2127 L-1645 2104 L-1625 2083 L-1604 2062 L-1586 2042 L-1567 2022 L-1547 2004 L-1527 1985 L-1509 1967 L-1490 1951 L-1470 1934 L-1451 1920 L-1432 1905 L-1413 1890 L-1393 1876 L-1374 1861 L-1354 1846 L-1335 1832 L-1307 1817 L-1287 1803 L-1259 1790 L-1222 1773 L-1207 1757 L-1194 1742 L-1177 1728 L-1160 1718 L-1140 1709 L-1122 1700 L-1103 1692 L-1083 1684 L-1062 1675 L-1045 1666 L-1026 1656 L-1005 1646 L-986 1635 L-967 1624 L-948 1612 L-928 1600 L-909 1586 L-890 1573 L-871 1560 L-850 1547 L-826 1534 L-811 1521 L-794 1508 L-774 1495 L-755 1482 L-735 1468 L-716 1454 L-696 1440 L-676 1427 L-658 1413 L-639 1401 L-619 1389 L-598 1377 L-581 1367 L-561 1355 L-542 1344 L-523 1333 L-503 1322 L-484 1311 L-464 1301 L-445 1291 L-426 1281 L-407 1270 L-379 1260 L-358 1249 L-330 1237 L-294 1221 L-280 1206 L-267 1191 L-249 1179 L-231 1171 L-212 1162 L-193 1152 L-173 1141 L-154 1130 L-132 1117 L-114 1104 L-97 1091 L-77 1076 L-56 1061 L-38 1045 L-19 1028 L0 1012 L20 996 L38 981 L57 969 L78 959 L103 951 L117 943 L135 935 L154 927 L174 918 L193 909 L212 901 L232 893 L252 886 L270 880 L289 872 L309 862 L330 851 L347 840 L366 832 L386 825 L405 820 L424 815 L443 810 L463 805 L483 798 L502 792 L521 787 L548 781 L569 776 L597 770 L632 762 L645 756 L659 751 L677 746 L696 742 L716 737 L734 732 L754 728 L774 725 L795 720 L812 716 L830 711 L851 706 L871 701 L889 696 L908 691 L928 687 L948 683 L966 679 L985 675 L1006 670 L1031 666 L1046 662 L1063 659 L1082 655 L1102 651 L1121 646 L1140 641 L1160 636 L1181 632 L1198 627 L1217 624 L1238 619 L1258 616 L1276 612 L1295 608 L1315 604 L1333 600 L1353 597 L1372 594 L1392 591 L1411 588 L1431 586 L1449 591 L1478 595 L1498 599 L1526 603 L1563 599 L1578 596 L1591 593 L1608 591 L1625 589 L1645 586 L1663 584 L1683 581 L1702 579 L1724 577 L1740 574 L1759 572 L1780 570 L1800 567 L1818 564 L1837 562 L1856 559 L1877 556 L1895 554 L1914 552 L1935 550 L1960 548 L1974 545 L1991 542 L2011 540 L2030 537 L2050 535 L2069 532 L2089 529 L2109 525 L2127 521 L2146 518 L2166 515 L2187 512 L2204 509 L2223 505 L2243 503 L2262 500 L2282 496 L2301 493 L2320 489 L2340 486 L2359 484 L2378 482 L2406 479 L2426 476 L2454 473 L2489 469 L2503 466 L2516 463 L2535 461 L2553 458 L2573 456 L2592 453 L2611 450 L2631 447 L2652 445 L2669 442 L2688 439 L2708 436 L2728 433 L2746 429 L2765 425 L2785 421 L2805 416 L2823 412 L2842 409 L2864 405 L2889 401 L2903 397 L2920 393 L2940 389 L2959 386 L2978 382 L2997 377 L3017 374 L3038 370 L3055 367 L3075 363 L3095 360 L3116 356 L3133 354 L3152 351 L3172 349 L3191 346 L3210 344 L3229 342 L3249 340 L3269 338 L3288 336 L3307 334 L3334 332 L3355 330 L3383 327 L3418 323 L3432 319 L3445 316 L3464 312 L3482 309 L3502 307 L3520 305 L3540 302 L3559 300 L3580 297 L3597 295 L3616 292 L3637 289 L3657 286 L3675 282 L3694 279 L3714 276 L3734 273 L3752 270 L3771 267 L3792 265 L3817 263 L3832 260 L3849 258 L3868 255 L3888 252 L3907 249 L3926 245 L3946 241 L3967 237 L3984 233 L4003 229 L4024 226 L4044 223 L4061 220 L4080 218 L4100 217 L4119 215 L4139 213 L4158 211 L4178 209 L4197 207 L4217 205 L4235 203 L4262 201 L4283 200 L4311 198 L4345 196 L4360 194 L4373 192 L4391 191 L4410 189 L4430 188 L4448 186 L4468 185 L4488 184 L4508 182 L4526 181 L4545 179 L4565 177 L4585 176 L4603 174 L4622 173 L4642 171 L4662 170 L4681 169 L4699 168 L4721 167 L4745 166 L4760 164 L4777 162 L4797 161 L4816 159 L4835 158 L4854 156 L4874 154 L4895 152 L4913 149 L4932 146 L4952 142 L4972 140 L4990 138 L5009 136 L5029 133 L5048 131 L5068 129 L5086 127 L5106 125 L5125 124 L5145 122 L5164 121 L5192 119 L5240 118 L5277 116 L5292 115 L5304 113 L5321 112 L5339 111 L5358 110 L5377 109 L5396 108 L5416 107 L5437 105 L5454 105 L5473 104 L5493 103 L5513 102 L5532 100 L5551 99 L5571 97 L5590 96 L5609 94 L5628 92 L5649 90 L5674 88 L5688 85 L5705 83 L5725 81 L5744 78 L5764 76 L5783 74 L5803 72 L5823 70 L5841 68 L5860 66 L5881 64 L5901 62 L5918 61 L5937 59 L5957 58 L5976 56 L5996 55 L6015 53 L6035 51 L6054 50 L6074 48 L6092 46 L6121 45 L6141 43 L6169 41 L6205 37 L6220 34 L6233 31 L6250 28 L6268 26 L6288 24 L6306 23 L6326 22 L6345 21 L6367 20 L6383 18 L6402 16 L6423 14 L6443 11 L6461 8 L6480 5 L6500 2" />
</svg>
