<svg xmlns="http://www.w3.org/2000/svg" version="1.1" viewBox="0 0 6500 1000">
	<path fill="none" stroke="gold" stroke-width="125" stroke-linecap="round" stroke-linejoin="round" d="M0 1251  L-719888 1251 L-717284 1250 L-715616 1250 L-697287 1250 L-697117 1250 L-689959 1250 L-689926 1250 L-676495 1250 L-673573 1250 L-660232 1250 L-656063 1250 L-654903 1249 L-654284 1249 L-652272 1249 L-648500 1249 L-647900 1248 L-647572 1248 L-647359 1248 L-646817 1248 L-645579 1248 L-644400 1247 L-641536 1247 L-641013 1246 L-636158 1246 L-633221 1246 L-633178 1246 L-632869 1246 L-632617 1245 L-630022 1245 L-625767 1245 L-625749 1245 L-624512 1245 L-622635 1245 L-620681 1245 L-619733 1245 L-619463 1245 L-619153 1245 L-619055 1245 L-618224 1245 L-616193 1245 L-615903 1244 L-613757 1244 L-613601 1244 L-609945 1243 L-609694 1243 L-609595 1243 L-609078 1244 L-606927 1244 L-605998 1244 L-604472 1245 L-603233 1245 L-601686 1244 L-598724 1244 L-597602 1244 L-597293 1244 L-596082 1244 L-593075 1245 L-593056 1245 L-592708 1245 L-592495 1245 L-592369 1244 L-592127 1244 L-592089 1243 L-592070 1243 L-592051 1243 L-591992 1243 L-591933 1243 L-591915 1243 L-591472 1243 L-590233 1243 L-588687 1242 L-585299 1242 L-579573 1242 L-579371 1242 L-577735 1242 L-576013 1242 L-574581 1242 L-574349 1242 L-573634 1242 L-567502 1242 L-567134 1242 L-566979 1242 L-566401 1241 L-566108 1241 L-565141 1241 L-564831 1241 L-564232 1241 L-562626 1241 L-561891 1241 L-561581 1241 L-560813 1241 L-558777 1241 L-558352 1241 L-557539 1241 L-550110 1240 L-549587 1240 L-549414 1240 L-548679 1240 L-547111 1240 L-546706 1240 L-544480 1240 L-543533 1240 L-543108 1240 L-542777 1240 L-541733 1240 L-539625 1239 L-539373 1239 L-538754 1239 L-537942 1239 L-535834 1239 L-535785 1239 L-533857 1239 L-533531 1239 L-533396 1239 L-532893 1238 L-531480 1238 L-530977 1238 L-530456 1238 L-526896 1238 L-526161 1237 L-523736 1237 L-522447 1237 L-522040 1237 L-518887 1237 L-518732 1237 L-518712 1237 L-518346 1237 L-517087 1237 L-516372 1237 L-515482 1237 L-515075 1237 L-514147 1237 L-513038 1237 L-512735 1238 L-506486 1238 L-505539 1238 L-503913 1238 L-503411 1238 L-499735 1238 L-498903 1238 L-494950 1238 L-493538 1238 L-491049 1238 L-490372 1238 L-490334 1238 L-489463 1238 L-486251 1238 L-483388 1238 L-482420 1238 L-481299 1237 L-481280 1237 L-479655 1237 L-479191 1237 L-479099 1237 L-472730 1237 L-471781 1237 L-469324 1237 L-468452 1237 L-467216 1236 L-465214 1236 L-464817 1236 L-463381 1236 L-461354 1236 L-461141 1236 L-459961 1236 L-458453 1236 L-458432 1236 L-456420 1236 L-455551 1236 L-454680 1236 L-454095 1235 L-453558 1235 L-452900 1235 L-451662 1235 L-451101 1235 L-449920 1235 L-448683 1235 L-448644 1235 L-448257 1235 L-447716 1235 L-446942 1235 L-445820 1234 L-443730 1234 L-443397 1234 L-443111 1234 L-442183 1234 L-441700 1234 L-440964 1234 L-437333 1234 L-436205 1234 L-436051 1234 L-435025 1234 L-431310 1233 L-430092 1233 L-428274 1233 L-425488 1233 L-424927 1233 L-421039 1233 L-418562 1233 L-417227 1233 L-416724 1233 L-416241 1233 L-413552 1233 L-409780 1233 L-407323 1233 L-406143 1233 L-405504 1233 L-403144 1233 L-403067 1233 L-402019 1232 L-401926 1232 L-401423 1232 L-400977 1232 L-400920 1232 L-400706 1232 L-397747 1232 L-395039 1232 L-394884 1232 L-391363 1232 L-390840 1232 L-389873 1232 L-389524 1232 L-388480 1232 L-387552 1231 L-387126 1231 L-385617 1231 L-384650 1231 L-384631 1231 L-382735 1227 L-382619 1222 L-382571 1217 L-382547 1212 L-379543 1212 L-377512 1212 L-375751 1212 L-375384 1212 L-374939 1212 L-374572 1212 L-374158 1212 L-372173 1212 L-371960 1212 L-371805 1212 L-370199 1212 L-369078 1212 L-368129 1212 L-366872 1211 L-365228 1211 L-364048 1211 L-357458 1211 L-357412 1211 L-357006 1211 L-355961 1211 L-355826 1211 L-354143 1211 L-354123 1211 L-352786 1211 L-351550 1211 L-351396 1211 L-351022 1210 L-350816 1210 L-350506 1210 L-349732 1210 L-347411 1210 L-346753 1210 L-344625 1210 L-342903 1210 L-342709 1210 L-340156 1210 L-339880 1210 L-339692 1209 L-338859 1209 L-338087 1209 L-337389 1209 L-332388 1209 L-332012 1209 L-327759 1209 L-327272 1215 L-327253 1215 L-327174 1215 L-327099 1215 L-327079 1209 L-326266 1209 L-325512 1209 L-324293 1208 L-322861 1208 L-322765 1208 L-322591 1208 L-322236 1208 L-320927 1208 L-319070 1208 L-317367 1208 L-316864 1208 L-316599 1208 L-316206 1208 L-316072 1208 L-315162 1208 L-314786 1208 L-313857 1208 L-313518 1208 L-313478 1208 L-313441 1208 L-311525 1208 L-311351 1207 L-309823 1207 L-309494 1207 L-309378 1207 L-308971 1207 L-308623 1207 L-306979 1207 L-306429 1207 L-306185 1207 L-305644 1207 L-304813 1207 L-304271 1207 L-302737 1207 L-302644 1206 L-302607 1206 L-302471 1206 L-302084 1206 L-301059 1206 L-299183 1206 L-299087 1206 L-298486 1208 L-298119 1210 L-297635 1212 L-297597 1215 L-296823 1215 L-296765 1215 L-296591 1215 L-296397 1215 L-294792 1214 L-294772 1214 L-294617 1214 L-294501 1215 L-293322 1215 L-293167 1215 L-292500 1215 L-290052 1220 L-287537 1225 L-284867 1230 L-277168 1236 L-271500 1236 L-269286 1236 L-269262 1236 L-268289 1237 L-268269 1237 L-267405 1237 L-264665 1237 L-258866 1235 L-258713 1235 L-255927 1235 L-242319 1235 L-241573 1235 L-237162 1235 L-220816 1235 L-220584 1235 L-220046 1235 L-211587 1234 L-202881 1234 L-202669 1234 L-200697 1234 L-197910 1234 L-193423 1234 L-193268 1234 L-193099 1234 L-192959 1234 L-192668 1234 L-192629 1234 L-192358 1234 L-192187 1234 L-191777 1234 L-190656 1234 L-189476 1234 L-188199 1234 L-185335 1234 L-182415 1234 L-180423 1233 L-178875 1233 L-175837 1233 L-166513 1233 L-165989 1233 L-160265 1233 L-158758 1233 L-157943 1233 L-156260 1233 L-155539 1233 L-155370 1233 L-154325 1233 L-152258 1233 L-150896 1233 L-146453 1233 L-146355 1232 L-146317 1232 L-146298 1232 L-145465 1232 L-145388 1232 L-142815 1232 L-139566 1232 L-139411 1232 L-138463 1232 L-136722 1232 L-136006 1232 L-132465 1232 L-125888 1233 L-124471 1233 L-124450 1233 L-123500 1233 L-120025 1233 L-119272 1233 L-118710 1233 L-117928 1233 L-110424 1233 L-108826 1233 L-107252 1233 L-104066 1233 L-99733 1233 L-91164 1233 L-82417 1233 L-79343 1232 L-76077 1232 L-75531 1232 L-68394 1232 L-62726 1232 L-48662 1232 L-42650 1232 L-37944 1232 L-33941 1232 L-28833 1232 L-19119 1232 L-3549 1232 L-466 1232 L-164 1203 L-144 1168 L-125 1128 L-105 1083 L-86 1063 L-67 1046 L-48 1030 L-20 1014 L0 999 L27 983 L63 966 L76 951 L89 938 L108 927 L127 919 L147 911 L165 903 L184 895 L204 887 L225 878 L242 870 L261 862 L281 854 L301 846 L320 838 L338 829 L358 820 L378 811 L397 803 L416 795 L437 787 L462 779 L476 772 L493 765 L513 757 L532 750 L551 742 L570 734 L590 727 L611 720 L629 713 L648 706 L668 700 L689 694 L706 689 L725 684 L745 679 L764 675 L784 670 L802 666 L822 663 L842 659 L861 656 L880 653 L907 648 L928 644 L956 639 L990 633 L1004 629 L1017 625 L1036 621 L1055 618 L1075 615 L1093 611 L1113 608 L1132 604 L1153 600 L1170 597 L1189 594 L1210 590 L1229 586 L1248 582 L1267 577 L1287 572 L1306 567 L1325 562 L1344 557 L1365 551 L1389 545 L1404 539 L1421 533 L1441 527 L1460 521 L1480 515 L1499 509 L1519 503 L1539 497 L1557 491 L1576 485 L1596 480 L1617 475 L1635 470 L1654 465 L1674 460 L1692 456 L1712 452 L1731 448 L1751 443 L1770 439 L1789 435 L1808 431 L1837 427 L1857 423 L1885 419 L1922 414 L1937 409 L1949 405 L1966 401 L1983 398 L2003 396 L2022 393 L2041 391 L2061 388 L2082 386 L2099 383 L2118 380 L2138 377 L2158 374 L2176 371 L2195 368 L2215 364 L2235 360 L2254 357 L2272 353 L2294 349 L2318 345 L2333 342 L2350 338 L2370 334 L2389 331 L2409 327 L2427 323 L2447 319 L2468 315 L2486 311 L2505 307 L2525 304 L2545 300 L2563 297 L2582 294 L2602 291 L2621 288 L2641 285 L2660 282 L2679 279 L2699 276 L2718 273 L2737 270 L2765 267 L2785 264 L2813 260 L2849 256 L2864 251 L2877 247 L2894 244 L2912 241 L2932 239 L2951 236 L2970 233 L2990 229 L3011 226 L3030 222 L3047 218 L3067 214 L3087 210 L3105 205 L3124 200 L3144 196 L3165 191 L3182 187 L3201 183 L3223 181 L3247 178 L3262 176 L3280 174 L3299 171 L3318 169 L3337 166 L3356 164 L3376 162 L3397 160 L3414 158 L3434 156 L3454 153 L3475 150 L3492 147 L3511 144 L3531 142 L3550 141 L3569 139 L3588 138 L3608 136 L3628 135 L3647 133 L3665 131 L3693 130 L3714 128 L3742 126 L3776 124 L3790 122 L3803 121 L3822 119 L3841 118 L3861 117 L3879 116 L3899 114 L3918 113 L3939 112 L3956 111 L3975 110 L3996 108 L4016 107 L4034 105 L4052 104 L4072 103 L4093 101 L4111 100 L4130 99 L4151 98 L4176 97 L4190 96 L4208 95 L4227 93 L4246 92 L4266 91 L4285 90 L4305 88 L4326 87 L4343 86 L4362 84 L4382 83 L4403 82 L4420 81 L4439 80 L4459 79 L4478 78 L4498 77 L4517 76 L4537 75 L4556 74 L4575 74 L4594 75 L4623 76 L4643 77 L4671 79 L4708 77 L4723 77 L4736 76 L4753 75 L4769 74 L4789 74 L4808 73 L4827 72 L4847 72 L4868 71 L4885 70 L4904 70 L4924 69 L4944 68 L4962 67 L4981 67 L5001 66 L5021 65 L5039 64 L5058 64 L5080 63 L5104 63 L5119 62 L5136 61 L5156 60 L5175 60 L5194 59 L5213 58 L5233 57 L5254 56 L5272 55 L5291 54 L5311 53 L5332 52 L5349 51 L5368 51 L5388 50 L5407 49 L5426 48 L5445 47 L5465 46 L5485 45 L5504 44 L5523 44 L5550 43 L5571 42 L5599 41 L5634 40 L5647 39 L5661 38 L5680 38 L5698 37 L5718 36 L5736 35 L5756 35 L5776 34 L5797 33 L5814 32 L5832 32 L5853 31 L5873 30 L5891 29 L5910 27 L5930 26 L5950 25 L5968 24 L5987 23 L6008 22 L6033 21 L6048 20 L6065 18 L6084 17 L6104 16 L6123 15 L6142 14 L6162 13 L6183 12 L6200 11 L6219 10 L6240 9 L6261 8 L6278 7 L6296 6 L6316 6 L6335 5 L6355 4 L6374 4 L6394 3 L6413 2 L6432 2 L6451 1 L6479 1 L6500 0" />
</svg>
