<svg xmlns="http://www.w3.org/2000/svg" version="1.1" viewBox="0 0 6500 1000">
	<path fill="none" stroke="gold" stroke-width="125" stroke-linecap="round" stroke-linejoin="round" d="M0 11532  L-730732 11532 L-728128 11531 L-726460 11531 L-708130 11530 L-707960 11529 L-700802 11528 L-700769 11528 L-687338 11527 L-684417 11528 L-671076 11526 L-666907 11525 L-665747 11522 L-665127 11520 L-663116 11518 L-659344 11517 L-658744 11516 L-658415 11515 L-658202 11514 L-657660 11513 L-656422 11510 L-655243 11506 L-652379 11502 L-651857 11498 L-647001 11497 L-644064 11496 L-644021 11495 L-643713 11494 L-643461 11493 L-640866 11492 L-636610 11492 L-636592 11492 L-635356 11492 L-633478 11492 L-631525 11491 L-630577 11490 L-630306 11489 L-629996 11489 L-629898 11488 L-629068 11488 L-627037 11489 L-626746 11484 L-624600 11482 L-624445 11480 L-620788 11477 L-620537 11478 L-620439 11478 L-619922 11479 L-617770 11481 L-616841 11484 L-615315 11486 L-614076 11486 L-612530 11486 L-609568 11485 L-608446 11484 L-608137 11483 L-606925 11482 L-603919 11488 L-603899 11487 L-603552 11487 L-603339 11486 L-603212 11480 L-602971 11479 L-602933 11478 L-602913 11477 L-602894 11476 L-602835 11475 L-602776 11474 L-602758 11473 L-602315 11472 L-601076 11471 L-599530 11470 L-596142 11469 L-590416 11468 L-590215 11468 L-588579 11467 L-586857 11467 L-585425 11466 L-585192 11466 L-584477 11465 L-578345 11465 L-577977 11464 L-577823 11463 L-577244 11462 L-576952 11461 L-575985 11460 L-575675 11459 L-575076 11458 L-573470 11458 L-572735 11458 L-572425 11459 L-571656 11459 L-569620 11458 L-569195 11457 L-568382 11456 L-560954 11455 L-560431 11454 L-560257 11453 L-559522 11452 L-557955 11451 L-557549 11451 L-555324 11450 L-554376 11449 L-553951 11449 L-553621 11449 L-552577 11449 L-550469 11448 L-550217 11447 L-549598 11446 L-548785 11445 L-546677 11444 L-546629 11443 L-544700 11442 L-544375 11441 L-544240 11440 L-543737 11440 L-542324 11439 L-541821 11437 L-541299 11435 L-537740 11434 L-537004 11432 L-534580 11432 L-533290 11431 L-532883 11430 L-529731 11430 L-529576 11430 L-529556 11431 L-529189 11431 L-527931 11431 L-527216 11432 L-526326 11432 L-525919 11432 L-524990 11432 L-523882 11431 L-523579 11433 L-517330 11434 L-516382 11435 L-514756 11436 L-514254 11436 L-510579 11437 L-509746 11437 L-505793 11438 L-504381 11436 L-501892 11435 L-501216 11434 L-501177 11434 L-500306 11434 L-497095 11434 L-494232 11433 L-493264 11433 L-492142 11432 L-492123 11431 L-490498 11430 L-490034 11428 L-489942 11428 L-483573 11427 L-482625 11427 L-480168 11426 L-479295 11425 L-478059 11425 L-476058 11424 L-475660 11423 L-474224 11422 L-472198 11422 L-471985 11421 L-470805 11420 L-469296 11420 L-469276 11419 L-467264 11419 L-466394 11418 L-465523 11418 L-464939 11417 L-464401 11416 L-463744 11415 L-462505 11414 L-461945 11413 L-460764 11413 L-459526 11412 L-459488 11412 L-459101 11411 L-458559 11410 L-457785 11410 L-456663 11409 L-454574 11408 L-454241 11407 L-453955 11406 L-453026 11406 L-452543 11405 L-451808 11404 L-448176 11404 L-447049 11403 L-446894 11403 L-445868 11402 L-442153 11402 L-440936 11401 L-439117 11400 L-436332 11399 L-435770 11398 L-431882 11398 L-429406 11398 L-428071 11398 L-427568 11397 L-427084 11397 L-424395 11397 L-420623 11397 L-418166 11397 L-416986 11397 L-416347 11396 L-413988 11395 L-413910 11395 L-412863 11394 L-412769 11393 L-412266 11393 L-411821 11393 L-411763 11393 L-411550 11393 L-408590 11392 L-405882 11392 L-405728 11391 L-402207 11391 L-401684 11390 L-400717 11389 L-400367 11388 L-399324 11387 L-398395 11387 L-397970 11386 L-396461 11386 L-395494 11386 L-395475 11385 L-393579 11350 L-393463 11313 L-393415 11278 L-393390 11242 L-390386 11241 L-388356 11240 L-386595 11240 L-386228 11239 L-385782 11238 L-385415 11238 L-385001 11237 L-383016 11236 L-382803 11236 L-382648 11236 L-381043 11236 L-379921 11235 L-378973 11235 L-377716 11234 L-376071 11233 L-374891 11233 L-368302 11232 L-368255 11232 L-367850 11231 L-366804 11231 L-366669 11230 L-364986 11229 L-364967 11229 L-363630 11228 L-362394 11227 L-362239 11227 L-361865 11226 L-361659 11225 L-361350 11225 L-360576 11224 L-358254 11223 L-357597 11223 L-355469 11222 L-353746 11222 L-353553 11221 L-351000 11220 L-350723 11219 L-350535 11218 L-349703 11218 L-348930 11217 L-348232 11217 L-343231 11217 L-342856 11216 L-338603 11216 L-338116 11264 L-338096 11264 L-338017 11263 L-337942 11263 L-337922 11213 L-337109 11213 L-336356 11212 L-335136 11211 L-333705 11211 L-333608 11211 L-333434 11211 L-333080 11210 L-331770 11209 L-329913 11209 L-328211 11208 L-327708 11207 L-327442 11207 L-327049 11206 L-326915 11206 L-326005 11205 L-325629 11205 L-324700 11205 L-324361 11204 L-324322 11204 L-324284 11204 L-322369 11204 L-322195 11203 L-320666 11203 L-320338 11203 L-320222 11202 L-319815 11202 L-319467 11201 L-317823 11200 L-317272 11200 L-317029 11199 L-316487 11199 L-315656 11198 L-315114 11197 L-313580 11196 L-313488 11196 L-313451 11195 L-313315 11195 L-312928 11194 L-311903 11194 L-310026 11193 L-309930 11193 L-309330 11208 L-308963 11225 L-308478 11242 L-308440 11258 L-307666 11259 L-307609 11259 L-307434 11258 L-307241 11257 L-305635 11256 L-305615 11256 L-305460 11257 L-305345 11257 L-304165 11258 L-304010 11259 L-303343 11259 L-300895 11299 L-298380 11340 L-295711 11379 L-288011 11418 L-282344 11418 L-280129 11418 L-280106 11418 L-279132 11427 L-279112 11427 L-278248 11426 L-275508 11426 L-269710 11416 L-269556 11415 L-266770 11414 L-253162 11413 L-252416 11413 L-248005 11412 L-231659 11411 L-231427 11410 L-230890 11410 L-222430 11409 L-213725 11409 L-213513 11408 L-211540 11408 L-208754 11408 L-204266 11408 L-204112 11408 L-203942 11408 L-203802 11407 L-203511 11406 L-203473 11406 L-203202 11405 L-203030 11405 L-202620 11404 L-201500 11404 L-200319 11403 L-199042 11403 L-196179 11403 L-193258 11402 L-191266 11402 L-189719 11401 L-186681 11400 L-177356 11400 L-176832 11399 L-171108 11399 L-169601 11399 L-168787 11399 L-167103 11398 L-166382 11397 L-166214 11397 L-165169 11396 L-163101 11396 L-161739 11395 L-157296 11395 L-157199 11394 L-157160 11394 L-157141 11393 L-156309 11393 L-156231 11392 L-153659 11391 L-150409 11391 L-150254 11390 L-149306 11390 L-147565 11389 L-146850 11392 L-143309 11394 L-136732 11397 L-135314 11401 L-135293 11401 L-134343 11400 L-130869 11400 L-130115 11399 L-129554 11398 L-128772 11398 L-121268 11397 L-119669 11397 L-118095 11396 L-114910 11396 L-110577 11395 L-102007 11395 L-93261 11395 L-90187 11394 L-86921 11393 L-86374 11393 L-79237 11392 L-73569 11392 L-59505 11392 L-53494 11393 L-48787 11392 L-44784 11391 L-39677 11391 L-29963 11390 L-14392 11389 L-11309 11388 L-11007 11171 L-10987 10902 L-10969 10597 L-10949 10257 L-10929 10101 L-10910 9970 L-10891 9850 L-10864 9731 L-10843 9615 L-10815 9493 L-10780 9359 L-10766 9245 L-10753 9147 L-10734 9065 L-10716 9005 L-10696 8944 L-10678 8882 L-10658 8821 L-10638 8759 L-10617 8694 L-10600 8631 L-10582 8569 L-10561 8510 L-10541 8450 L-10523 8385 L-10504 8319 L-10484 8250 L-10464 8183 L-10446 8118 L-10427 8057 L-10406 7998 L-10381 7938 L-10366 7882 L-10349 7826 L-10330 7770 L-10310 7715 L-10291 7655 L-10272 7594 L-10252 7537 L-10231 7482 L-10214 7429 L-10195 7379 L-10174 7332 L-10154 7288 L-10136 7249 L-10118 7212 L-10097 7175 L-10079 7140 L-10059 7106 L-10040 7075 L-10020 7048 L-10001 7023 L-9981 6997 L-9963 6971 L-9935 6938 L-9914 6905 L-9887 6867 L-9853 6825 L-9838 6791 L-9825 6761 L-9807 6733 L-9788 6710 L-9768 6685 L-9749 6656 L-9730 6628 L-9710 6599 L-9689 6573 L-9672 6549 L-9653 6523 L-9633 6496 L-9613 6466 L-9594 6432 L-9576 6395 L-9556 6358 L-9536 6319 L-9517 6281 L-9498 6241 L-9477 6197 L-9453 6150 L-9438 6103 L-9421 6058 L-9401 6015 L-9382 5971 L-9362 5925 L-9344 5876 L-9324 5830 L-9303 5784 L-9285 5740 L-9266 5697 L-9246 5656 L-9226 5614 L-9208 5576 L-9189 5540 L-9169 5503 L-9150 5473 L-9130 5440 L-9112 5407 L-9092 5376 L-9072 5343 L-9053 5311 L-9034 5280 L-9005 5247 L-8986 5218 L-8958 5188 L-8921 5151 L-8906 5116 L-8893 5083 L-8876 5053 L-8859 5031 L-8839 5011 L-8821 4991 L-8801 4974 L-8781 4956 L-8761 4937 L-8743 4917 L-8725 4895 L-8704 4873 L-8685 4850 L-8666 4825 L-8647 4800 L-8627 4772 L-8608 4743 L-8589 4713 L-8570 4685 L-8549 4658 L-8525 4629 L-8510 4601 L-8493 4572 L-8473 4543 L-8454 4515 L-8434 4485 L-8415 4454 L-8395 4423 L-8375 4394 L-8356 4364 L-8338 4338 L-8318 4311 L-8297 4286 L-8279 4263 L-8260 4238 L-8240 4214 L-8222 4189 L-8202 4165 L-8183 4142 L-8163 4119 L-8144 4097 L-8124 4075 L-8105 4052 L-8077 4029 L-8057 4006 L-8029 3980 L-7993 3944 L-7979 3910 L-7966 3879 L-7948 3851 L-7930 3834 L-7910 3815 L-7892 3793 L-7872 3769 L-7852 3744 L-7831 3717 L-7813 3689 L-7796 3660 L-7775 3628 L-7755 3594 L-7737 3560 L-7718 3523 L-7698 3486 L-7678 3452 L-7660 3420 L-7641 3393 L-7620 3372 L-7595 3353 L-7580 3337 L-7563 3320 L-7544 3301 L-7524 3282 L-7505 3262 L-7486 3243 L-7466 3226 L-7445 3212 L-7428 3197 L-7409 3181 L-7388 3159 L-7368 3135 L-7351 3112 L-7332 3093 L-7312 3079 L-7293 3068 L-7273 3057 L-7254 3046 L-7234 3034 L-7215 3020 L-7196 3007 L-7177 2995 L-7149 2982 L-7129 2970 L-7101 2957 L-7066 2941 L-7052 2927 L-7039 2916 L-7020 2905 L-7002 2896 L-6982 2886 L-6963 2876 L-6944 2867 L-6924 2858 L-6903 2849 L-6886 2840 L-6867 2830 L-6847 2819 L-6827 2808 L-6809 2796 L-6790 2786 L-6770 2777 L-6750 2768 L-6732 2759 L-6713 2749 L-6691 2740 L-6667 2732 L-6652 2723 L-6635 2715 L-6615 2706 L-6596 2697 L-6577 2687 L-6558 2677 L-6538 2666 L-6517 2656 L-6499 2646 L-6480 2638 L-6460 2628 L-6439 2620 L-6422 2612 L-6403 2603 L-6383 2595 L-6364 2587 L-6345 2579 L-6326 2573 L-6306 2567 L-6286 2561 L-6267 2555 L-6248 2565 L-6220 2575 L-6200 2585 L-6172 2594 L-6135 2585 L-6119 2578 L-6107 2571 L-6089 2566 L-6073 2562 L-6053 2556 L-6035 2550 L-6015 2545 L-5995 2539 L-5974 2535 L-5957 2530 L-5939 2525 L-5918 2520 L-5898 2514 L-5880 2508 L-5861 2502 L-5841 2497 L-5821 2491 L-5803 2486 L-5784 2481 L-5763 2476 L-5738 2472 L-5724 2466 L-5706 2460 L-5687 2455 L-5667 2449 L-5648 2444 L-5629 2438 L-5609 2431 L-5588 2423 L-5571 2414 L-5552 2407 L-5531 2400 L-5511 2393 L-5493 2387 L-5475 2379 L-5455 2373 L-5436 2367 L-5416 2359 L-5397 2352 L-5377 2344 L-5358 2338 L-5338 2333 L-5320 2328 L-5292 2321 L-5272 2315 L-5244 2308 L-5209 2300 L-5195 2293 L-5182 2287 L-5163 2281 L-5145 2276 L-5124 2270 L-5106 2265 L-5087 2259 L-5067 2253 L-5046 2247 L-5029 2241 L-5010 2235 L-4990 2228 L-4970 2221 L-4951 2213 L-4933 2204 L-4913 2194 L-4892 2185 L-4874 2176 L-4856 2169 L-4834 2161 L-4809 2151 L-4795 2143 L-4777 2134 L-4758 2126 L-4739 2117 L-4720 2109 L-4701 2100 L-4680 2092 L-4660 2084 L-4642 2076 L-4623 2068 L-4603 2060 L-4582 2053 L-4565 2048 L-4546 2041 L-4526 2037 L-4507 2031 L-4487 2026 L-4469 2021 L-4449 2017 L-4429 2012 L-4410 2008 L-4391 2005 L-4364 2000 L-4343 1995 L-4315 1990 L-4280 1981 L-4266 1973 L-4253 1964 L-4234 1956 L-4216 1951 L-4196 1946 L-4178 1940 L-4158 1935 L-4138 1930 L-4117 1924 L-4100 1918 L-4082 1912 L-4061 1905 L-4041 1899 L-4023 1891 L-4004 1884 L-3984 1877 L-3964 1870 L-3946 1864 L-3927 1859 L-3906 1854 L-3881 1848 L-3866 1843 L-3849 1837 L-3830 1831 L-3810 1825 L-3791 1818 L-3772 1810 L-3752 1801 L-3731 1791 L-3714 1783 L-3695 1775 L-3674 1768 L-3653 1761 L-3636 1756 L-3617 1752 L-3597 1748 L-3578 1744 L-3559 1740 L-3540 1735 L-3520 1730 L-3501 1726 L-3481 1723 L-3463 1718 L-3435 1714 L-3414 1711 L-3387 1706 L-3352 1702 L-3338 1698 L-3325 1695 L-3306 1691 L-3288 1688 L-3268 1684 L-3249 1681 L-3230 1678 L-3210 1676 L-3189 1673 L-3172 1669 L-3153 1666 L-3133 1662 L-3113 1658 L-3095 1655 L-3076 1652 L-3056 1649 L-3036 1646 L-3017 1644 L-2998 1642 L-2977 1639 L-2953 1636 L-2938 1633 L-2921 1629 L-2901 1625 L-2882 1622 L-2862 1619 L-2844 1616 L-2824 1612 L-2803 1606 L-2785 1599 L-2766 1592 L-2746 1585 L-2725 1579 L-2708 1575 L-2689 1571 L-2669 1566 L-2650 1561 L-2630 1557 L-2612 1552 L-2592 1548 L-2572 1544 L-2553 1541 L-2534 1538 L-2505 1535 L-2458 1532 L-2421 1528 L-2406 1525 L-2394 1521 L-2376 1518 L-2359 1517 L-2339 1515 L-2321 1513 L-2301 1510 L-2281 1507 L-2261 1505 L-2244 1503 L-2225 1501 L-2204 1499 L-2185 1496 L-2166 1493 L-2147 1490 L-2127 1487 L-2107 1484 L-2089 1481 L-2070 1476 L-2049 1472 L-2024 1466 L-2010 1461 L-1992 1455 L-1973 1451 L-1954 1446 L-1934 1441 L-1915 1437 L-1895 1432 L-1874 1427 L-1857 1422 L-1838 1418 L-1817 1414 L-1797 1410 L-1779 1407 L-1760 1404 L-1740 1400 L-1722 1397 L-1702 1394 L-1683 1390 L-1663 1387 L-1644 1383 L-1624 1379 L-1605 1375 L-1577 1372 L-1557 1368 L-1529 1363 L-1492 1356 L-1478 1348 L-1465 1341 L-1448 1335 L-1430 1331 L-1410 1327 L-1392 1325 L-1372 1322 L-1352 1320 L-1331 1317 L-1315 1313 L-1296 1309 L-1275 1304 L-1255 1298 L-1237 1293 L-1218 1285 L-1198 1278 L-1178 1272 L-1160 1266 L-1141 1261 L-1120 1256 L-1095 1250 L-1080 1246 L-1062 1241 L-1044 1237 L-1024 1233 L-1005 1229 L-986 1222 L-966 1217 L-945 1212 L-928 1207 L-909 1203 L-888 1199 L-867 1194 L-851 1190 L-832 1187 L-812 1183 L-793 1179 L-773 1175 L-754 1172 L-735 1168 L-714 1164 L-696 1162 L-677 1158 L-649 3727 L-629 3723 L-601 3719 L-565 3713 L-551 1135 L-537 1130 L-520 1126 L-502 1124 L-482 1121 L-464 1119 L-444 1116 L-424 1111 L-403 1106 L-386 1101 L-367 1095 L-347 1090 L-327 1084 L-309 1077 L-289 1070 L-270 1063 L-249 1058 L-232 1054 L-213 1050 L-191 1046 L-166 1040 L-151 1033 L-122 1027 L-82 1018 L-59 1011 L-29 1003 L-13 995 L0 989 L19 984 L39 981 L60 977 L77 973 L96 970 L116 966 L135 964 L155 962 L173 959 L193 957 L213 954 L232 950 L251 947 L278 944 L299 941 L327 937 L362 933 L376 928 L407 925 L426 921 L446 919 L464 916 L484 914 L504 911 L525 909 L541 906 L560 900 L581 891 L601 879 L619 866 L638 855 L658 846 L678 838 L696 831 L715 825 L736 821 L761 817 L776 812 L794 807 L812 802 L832 797 L851 793 L871 788 L890 783 L911 777 L928 771 L947 767 L968 763 L989 759 L1005 756 L1024 754 L1045 750 L1064 747 L1083 743 L1102 740 L1122 736 L1142 732 L1160 729 L1179 726 L1207 724 L1228 720 L1298 713 L1326 705 L1340 697 L1354 690 L1374 685 L1393 681 L1412 677 L1432 672 L1453 668 L1470 665 L1489 662 L1509 660 L1529 658 L1547 654 L1566 649 L1586 645 L1607 640 L1625 635 L1643 631 L1665 628 L1690 625 L1705 621 L1722 618 L1741 613 L1761 608 L1780 603 L1799 599 L1818 595 L1840 592 L1857 589 L1876 586 L1896 583 L1918 579 L1934 576 L1992 572 L2012 569 L2030 566 L2050 563 L2070 560 L2089 557 L2108 555 L2136 553 L2156 551 L2184 549 L2220 546 L2235 543 L2248 541 L2265 539 L2283 538 L2303 536 L2321 534 L2341 533 L2361 532 L2382 530 L2399 529 L2417 527 L2438 525 L2458 524 L2476 521 L2495 518 L2515 515 L2536 513 L2553 510 L2572 508 L2594 505 L2618 503 L2633 501 L2650 499 L2670 497 L2690 494 L2708 492 L2727 488 L2747 484 L2768 480 L2785 477 L2805 474 L2825 473 L2846 471 L2863 469 L2881 467 L2902 465 L2921 464 L2940 463 L2959 462 L2979 460 L2999 459 L3018 458 L3036 456 L3064 455 L3085 453 L3112 451 L3148 448 L3161 446 L3175 445 L3193 443 L3211 441 L3231 439 L3250 437 L3289 436 L3310 434 L3327 433 L3346 431 L3366 428 L3386 425 L3404 422 L3423 419 L3443 417 L3463 415 L3482 413 L3501 411 L3521 409 L3546 407 L3561 405 L3578 404 L3598 402 L3617 400 L3637 397 L3655 395 L3675 393 L3696 391 L3714 388 L3733 386 L3753 384 L3774 382 L3791 380 L3810 378 L3830 376 L3849 375 L3869 374 L3887 372 L3907 370 L3927 369 L3946 367 L3965 366 L3994 364 L4041 362 L4079 360 L4094 358 L4106 356 L4123 355 L4140 354 L4160 353 L4178 351 L4198 350 L4218 349 L4238 348 L4256 348 L4274 347 L4295 347 L4314 346 L4333 345 L4352 343 L4372 342 L4391 341 L4410 339 L4429 338 L4450 336 L4475 334 L4489 331 L4506 328 L4526 325 L4545 322 L4565 318 L4584 313 L4604 308 L4624 304 L4642 301 L4661 297 L4682 293 L4702 290 L4720 286 L4739 282 L4759 278 L4777 275 L4797 272 L4816 270 L4836 266 L4855 262 L4875 258 L4893 254 L4922 249 L4942 246 L4970 244 L5007 241 L5022 238 L5034 236 L5052 232 L5069 230 L5089 228 L5107 226 L5127 224 L5147 222 L5168 219 L5185 216 L5203 213 L5224 210 L5245 206 L5262 203 L5281 200 L5301 198 L5322 196 L5339 192 L5358 189 L5379 186 L5404 183 L5419 179 L5437 175 L5455 171 L5476 168 L5494 164 L5514 160 L5533 156 L5555 152 L5571 147 L5591 143 L5611 139 L5632 136 L5648 134 L5667 132 L5687 130 L5706 128 L5726 125 L5745 122 L5765 119 L5783 116 L5803 114 L5822 111 L5870 107 L5898 105 L5931 100 L5946 97 L5958 93 L5977 90 L5997 88 L6017 85 L6035 82 L6055 79 L6075 76 L6096 74 L6113 72 L6131 70 L6152 67 L6172 64 L6190 62 L6209 58 L6229 55 L6249 52 L6268 48 L6286 45 L6308 42 L6332 39 L6347 36 L6364 32 L6384 28 L6403 23 L6422 19 L6441 15 L6461 12 L6482 8 L6500 5" />
</svg>
