<svg xmlns="http://www.w3.org/2000/svg" version="1.1" viewBox="0 0 6500 1000">
	<path fill="none" stroke="gold" stroke-width="125" stroke-linecap="round" stroke-linejoin="round" d="M0 3256  L-728952 3256 L-726348 3256 L-724680 3256 L-706351 3256 L-706180 3256 L-699023 3255 L-698989 3255 L-685559 3255 L-682637 3255 L-669296 3255 L-665127 3254 L-663967 3254 L-663348 3253 L-661336 3252 L-657564 3252 L-656964 3252 L-656635 3252 L-656422 3251 L-655881 3251 L-654643 3250 L-653464 3249 L-650599 3248 L-650077 3247 L-645221 3246 L-642284 3246 L-642241 3246 L-641933 3245 L-641681 3245 L-639086 3245 L-634831 3245 L-634813 3245 L-633576 3245 L-631698 3245 L-629745 3245 L-628797 3244 L-628526 3244 L-628216 3244 L-628118 3244 L-627288 3244 L-625257 3244 L-624967 3243 L-622820 3242 L-622665 3241 L-619008 3240 L-618757 3241 L-618659 3241 L-618142 3241 L-615991 3242 L-615062 3243 L-613536 3243 L-612296 3243 L-610750 3243 L-607788 3243 L-606666 3243 L-606357 3242 L-605146 3242 L-602139 3244 L-602119 3243 L-601772 3243 L-601559 3243 L-601433 3241 L-601191 3241 L-601153 3241 L-601133 3240 L-601114 3240 L-601055 3240 L-600997 3240 L-600979 3239 L-600536 3239 L-599296 3239 L-597750 3238 L-594363 3238 L-588636 3238 L-588435 3238 L-586799 3238 L-585077 3238 L-583645 3237 L-583413 3237 L-582697 3237 L-576565 3237 L-576197 3237 L-576043 3236 L-575465 3236 L-575172 3236 L-574205 3236 L-573895 3235 L-573296 3235 L-571690 3235 L-570955 3235 L-570645 3235 L-569877 3235 L-567841 3235 L-567415 3235 L-566603 3235 L-559174 3234 L-558651 3234 L-558478 3234 L-557743 3233 L-556175 3233 L-555769 3233 L-553544 3233 L-552596 3233 L-552171 3232 L-551841 3232 L-550797 3232 L-548689 3232 L-548437 3232 L-547818 3231 L-547005 3231 L-544897 3231 L-544849 3231 L-542921 3230 L-542595 3230 L-542460 3230 L-541957 3230 L-540544 3229 L-540041 3229 L-539519 3228 L-535960 3228 L-535225 3227 L-532800 3227 L-531510 3227 L-531103 3227 L-527951 3227 L-527796 3227 L-527776 3227 L-527409 3227 L-526151 3227 L-525436 3227 L-524546 3227 L-524139 3227 L-523211 3227 L-522102 3227 L-521799 3228 L-515550 3228 L-514603 3228 L-512976 3229 L-512475 3229 L-508799 3229 L-507967 3229 L-504013 3229 L-502602 3229 L-500112 3228 L-499436 3228 L-499397 3228 L-498526 3228 L-495315 3228 L-492452 3228 L-491484 3228 L-490363 3227 L-490344 3227 L-488719 3227 L-488254 3226 L-488163 3226 L-481793 3226 L-480845 3226 L-478388 3226 L-477515 3226 L-476279 3225 L-474278 3225 L-473880 3225 L-472444 3225 L-470418 3225 L-470205 3224 L-469025 3224 L-467516 3224 L-467496 3224 L-465484 3224 L-464614 3223 L-463744 3223 L-463159 3223 L-462622 3223 L-461964 3222 L-460726 3222 L-460165 3222 L-458984 3222 L-457746 3222 L-457708 3222 L-457321 3221 L-456779 3221 L-456006 3221 L-454883 3221 L-452794 3221 L-452461 3220 L-452175 3220 L-451246 3220 L-450763 3220 L-450028 3220 L-446397 3219 L-445269 3219 L-445114 3219 L-444088 3219 L-440374 3219 L-439156 3218 L-437338 3218 L-434552 3218 L-433990 3218 L-430103 3218 L-427626 3218 L-426291 3218 L-425788 3217 L-425305 3217 L-422615 3217 L-418844 3217 L-416386 3217 L-415207 3217 L-414567 3217 L-412208 3217 L-412130 3217 L-411083 3217 L-410989 3216 L-410487 3216 L-410041 3216 L-409984 3216 L-409770 3216 L-406810 3216 L-404103 3216 L-403948 3216 L-400427 3216 L-399904 3215 L-398937 3215 L-398588 3215 L-397544 3215 L-396616 3214 L-396190 3214 L-394681 3214 L-393714 3214 L-393695 3214 L-391799 3204 L-391683 3193 L-391635 3183 L-391611 3172 L-388607 3172 L-386576 3172 L-384815 3172 L-384448 3172 L-384002 3171 L-383635 3171 L-383221 3171 L-381236 3171 L-381023 3171 L-380868 3171 L-379263 3171 L-378141 3171 L-377193 3170 L-375936 3170 L-374291 3170 L-373112 3170 L-366522 3170 L-366476 3169 L-366070 3169 L-365025 3169 L-364889 3169 L-363207 3169 L-363187 3169 L-361850 3168 L-360614 3168 L-360460 3168 L-360086 3168 L-359879 3168 L-359570 3168 L-358796 3167 L-356475 3167 L-355817 3167 L-353689 3167 L-351967 3167 L-351773 3166 L-349220 3166 L-348943 3166 L-348755 3166 L-347923 3166 L-347150 3165 L-346452 3165 L-341452 3165 L-341076 3165 L-336823 3165 L-336336 3179 L-336317 3179 L-336238 3179 L-336162 3178 L-336142 3164 L-335330 3164 L-334576 3164 L-333357 3164 L-331925 3164 L-331829 3163 L-331654 3163 L-331300 3163 L-329990 3163 L-328133 3163 L-326431 3163 L-325928 3162 L-325663 3162 L-325270 3162 L-325135 3162 L-324226 3162 L-323849 3162 L-322921 3162 L-322582 3162 L-322542 3162 L-322504 3161 L-320589 3161 L-320415 3161 L-318886 3161 L-318558 3161 L-318442 3161 L-318035 3161 L-317687 3161 L-316043 3160 L-315492 3160 L-315249 3160 L-314708 3160 L-313876 3160 L-313335 3160 L-311800 3159 L-311708 3159 L-311671 3159 L-311535 3159 L-311148 3159 L-310123 3159 L-308247 3158 L-308150 3158 L-307550 3163 L-307183 3168 L-306698 3172 L-306660 3177 L-305886 3177 L-305829 3177 L-305654 3177 L-305461 3177 L-303856 3177 L-303836 3176 L-303680 3177 L-303565 3177 L-302385 3177 L-302231 3177 L-301564 3177 L-299116 3189 L-296601 3201 L-293931 3212 L-286232 3223 L-280564 3223 L-278349 3223 L-278326 3223 L-277352 3226 L-277332 3226 L-276469 3226 L-273728 3226 L-267930 3223 L-267776 3222 L-264991 3222 L-251382 3222 L-250636 3222 L-246226 3222 L-229879 3221 L-229647 3221 L-229110 3221 L-220651 3221 L-211945 3221 L-211733 3221 L-209760 3221 L-206974 3221 L-202487 3221 L-202332 3221 L-202163 3221 L-202022 3220 L-201732 3220 L-201693 3220 L-201422 3220 L-201250 3220 L-200840 3220 L-199720 3219 L-198540 3219 L-197263 3219 L-194399 3219 L-191479 3219 L-189487 3219 L-187939 3218 L-184901 3218 L-175577 3218 L-175053 3218 L-169329 3218 L-167822 3218 L-167007 3218 L-165324 3218 L-164603 3217 L-164434 3217 L-163389 3217 L-161322 3217 L-159960 3217 L-155516 3217 L-155419 3217 L-155380 3216 L-155361 3216 L-154529 3216 L-154451 3216 L-151879 3216 L-148629 3216 L-148475 3215 L-147526 3215 L-145785 3215 L-145070 3216 L-141529 3217 L-134952 3217 L-133534 3219 L-133514 3218 L-132563 3218 L-129089 3218 L-128336 3218 L-127774 3218 L-126992 3218 L-119488 3217 L-117889 3217 L-116315 3217 L-113130 3217 L-108797 3217 L-100227 3217 L-91481 3217 L-88407 3217 L-85141 3216 L-84595 3216 L-77457 3216 L-71790 3216 L-57725 3216 L-51714 3216 L-47008 3216 L-43004 3216 L-37897 3216 L-28183 3215 L-12612 3215 L-9529 3215 L-9227 3152 L-9208 3074 L-9189 2986 L-9169 2887 L-9149 2842 L-9130 2804 L-9112 2769 L-9084 2735 L-9063 2702 L-9035 2666 L-9000 2627 L-8986 2594 L-8973 2566 L-8955 2542 L-8936 2525 L-8916 2507 L-8898 2489 L-8878 2472 L-8859 2454 L-8837 2435 L-8821 2417 L-8802 2399 L-8781 2382 L-8761 2364 L-8743 2346 L-8724 2326 L-8705 2306 L-8684 2287 L-8666 2268 L-8647 2250 L-8626 2233 L-8601 2216 L-8587 2200 L-8569 2184 L-8550 2167 L-8530 2151 L-8511 2134 L-8492 2117 L-8472 2100 L-8452 2084 L-8434 2069 L-8415 2054 L-8394 2041 L-8374 2028 L-8357 2017 L-8338 2006 L-8318 1995 L-8299 1985 L-8279 1975 L-8260 1966 L-8240 1959 L-8221 1951 L-8202 1944 L-8183 1936 L-8156 1927 L-8135 1917 L-8107 1906 L-8073 1894 L-8059 1884 L-8046 1875 L-8027 1867 L-8008 1861 L-7988 1853 L-7970 1845 L-7950 1837 L-7930 1829 L-7910 1821 L-7892 1814 L-7873 1806 L-7853 1799 L-7833 1790 L-7815 1780 L-7796 1769 L-7776 1759 L-7756 1747 L-7737 1736 L-7719 1725 L-7698 1712 L-7673 1699 L-7658 1685 L-7641 1672 L-7621 1659 L-7602 1647 L-7583 1633 L-7564 1619 L-7544 1606 L-7524 1593 L-7505 1580 L-7487 1567 L-7466 1556 L-7446 1543 L-7428 1532 L-7409 1522 L-7389 1511 L-7370 1503 L-7351 1493 L-7332 1484 L-7312 1475 L-7293 1465 L-7273 1456 L-7254 1447 L-7226 1437 L-7206 1429 L-7178 1420 L-7141 1409 L-7126 1399 L-7113 1390 L-7096 1381 L-7079 1375 L-7059 1369 L-7041 1363 L-7022 1358 L-7002 1353 L-6981 1347 L-6964 1342 L-6945 1335 L-6924 1329 L-6905 1322 L-6886 1315 L-6867 1308 L-6848 1300 L-6828 1291 L-6809 1283 L-6790 1275 L-6769 1267 L-6745 1258 L-6730 1250 L-6713 1242 L-6693 1233 L-6674 1225 L-6654 1217 L-6635 1208 L-6615 1199 L-6595 1190 L-6577 1182 L-6558 1174 L-6538 1166 L-6517 1159 L-6500 1152 L-6481 1145 L-6461 1138 L-6442 1131 L-6422 1124 L-6403 1117 L-6383 1111 L-6364 1104 L-6345 1098 L-6326 1091 L-6298 1085 L-6277 1078 L-6249 1070 L-6213 1060 L-6199 1050 L-6186 1041 L-6168 1033 L-6150 1028 L-6131 1023 L-6112 1016 L-6092 1009 L-6073 1002 L-6051 994 L-6033 986 L-6016 978 L-5996 968 L-5975 959 L-5957 949 L-5938 938 L-5919 927 L-5898 917 L-5880 908 L-5861 900 L-5840 894 L-5815 889 L-5801 884 L-5783 879 L-5764 874 L-5744 868 L-5725 863 L-5706 857 L-5687 852 L-5666 848 L-5648 844 L-5629 839 L-5609 833 L-5588 826 L-5571 819 L-5552 814 L-5532 810 L-5513 806 L-5494 803 L-5475 800 L-5455 796 L-5435 793 L-5416 789 L-5397 785 L-5370 781 L-5349 778 L-5321 774 L-5286 770 L-5273 766 L-5259 762 L-5241 759 L-5222 757 L-5202 754 L-5184 751 L-5164 748 L-5144 746 L-5123 743 L-5106 740 L-5088 737 L-5067 734 L-5047 731 L-5029 728 L-5010 725 L-4990 722 L-4970 720 L-4952 717 L-4933 714 L-4912 712 L-4887 709 L-4872 706 L-4855 704 L-4836 702 L-4816 699 L-4797 696 L-4778 693 L-4758 690 L-4737 687 L-4720 684 L-4701 682 L-4680 679 L-4660 677 L-4642 674 L-4623 672 L-4603 669 L-4585 667 L-4565 665 L-4546 663 L-4526 661 L-4507 659 L-4487 658 L-4469 661 L-4440 664 L-4420 667 L-4392 669 L-4355 667 L-4340 665 L-4327 663 L-4310 661 L-4293 660 L-4273 658 L-4255 657 L-4235 655 L-4216 653 L-4194 652 L-4178 651 L-4159 649 L-4138 648 L-4118 646 L-4100 644 L-4081 643 L-4062 641 L-4041 639 L-4023 638 L-4004 636 L-3983 635 L-3958 634 L-3944 632 L-3927 630 L-3907 629 L-3888 627 L-3868 626 L-3849 624 L-3829 622 L-3809 620 L-3791 617 L-3772 615 L-3752 613 L-3731 611 L-3714 609 L-3695 607 L-3675 605 L-3656 603 L-3636 601 L-3617 599 L-3598 597 L-3578 595 L-3559 594 L-3540 592 L-3512 590 L-3492 588 L-3464 586 L-3429 584 L-3415 582 L-3402 580 L-3383 579 L-3365 577 L-3345 576 L-3326 574 L-3307 572 L-3287 570 L-3266 569 L-3249 567 L-3231 565 L-3210 563 L-3190 561 L-3172 559 L-3153 556 L-3133 553 L-3113 551 L-3095 548 L-3076 546 L-3055 544 L-3029 541 L-3015 539 L-2998 536 L-2978 534 L-2959 531 L-2940 529 L-2921 526 L-2901 524 L-2880 521 L-2863 519 L-2843 517 L-2823 515 L-2802 513 L-2785 511 L-2766 509 L-2746 508 L-2727 506 L-2708 505 L-2689 503 L-2669 502 L-2649 501 L-2630 500 L-2611 499 L-2584 497 L-2563 496 L-2535 494 L-2500 492 L-2486 489 L-2473 487 L-2454 485 L-2436 483 L-2416 482 L-2398 480 L-2378 479 L-2359 477 L-2338 475 L-2321 474 L-2302 472 L-2281 470 L-2261 468 L-2243 466 L-2224 464 L-2205 462 L-2184 460 L-2166 458 L-2147 456 L-2126 455 L-2101 453 L-2086 452 L-2069 450 L-2050 448 L-2030 447 L-2011 445 L-1992 442 L-1972 440 L-1951 437 L-1934 434 L-1915 432 L-1894 430 L-1874 428 L-1857 427 L-1838 425 L-1818 424 L-1799 423 L-1779 422 L-1760 420 L-1740 419 L-1721 418 L-1702 417 L-1683 416 L-1656 414 L-1635 413 L-1607 412 L-1573 411 L-1558 410 L-1545 409 L-1527 408 L-1508 407 L-1488 406 L-1470 405 L-1450 404 L-1430 403 L-1410 403 L-1392 402 L-1373 401 L-1353 399 L-1333 398 L-1315 397 L-1296 396 L-1276 396 L-1256 395 L-1238 394 L-1219 394 L-1198 393 L-1173 392 L-1158 391 L-1141 390 L-1121 389 L-1102 388 L-1083 387 L-1064 386 L-1044 385 L-1023 383 L-1005 381 L-987 379 L-966 377 L-946 375 L-928 374 L-909 373 L-889 372 L-870 370 L-851 369 L-832 367 L-812 366 L-793 365 L-773 364 L-754 364 L-726 363 L-678 362 L-641 361 L-626 360 L-614 359 L-597 358 L-579 357 L-560 357 L-541 356 L-522 355 L-502 355 L-481 354 L-464 353 L-445 353 L-425 352 L-405 351 L-386 351 L-368 350 L-347 349 L-328 348 L-309 347 L-290 346 L-269 344 L-245 343 L-230 341 L-213 340 L-193 338 L-174 337 L-154 335 L-135 334 L-115 333 L-95 331 L-77 330 L-58 329 L-38 328 L-17 326 L0 326 L18 325 L38 324 L57 323 L77 322 L96 321 L116 320 L135 319 L155 318 L173 316 L202 315 L222 314 L250 313 L286 311 L301 308 L314 306 L331 305 L349 304 L369 303 L387 302 L407 301 L426 300 L448 299 L464 298 L483 297 L503 296 L524 294 L542 292 L561 290 L580 288 L601 286 L619 285 L638 283 L659 282 L684 280 L699 279 L717 278 L735 276 L755 275 L774 274 L793 272 L813 271 L834 269 L851 268 L870 267 L890 265 L911 264 L928 263 L947 262 L967 261 L986 260 L1005 259 L1024 257 L1044 256 L1064 255 L1083 255 L1102 253 L1130 997 L1150 996 L1178 995 L1214 993 L1228 247 L1241 245 L1259 244 L1277 244 L1297 243 L1315 242 L1335 241 L1355 240 L1376 238 L1393 237 L1411 235 L1432 234 L1452 232 L1470 230 L1489 228 L1509 226 L1530 225 L1547 223 L1566 222 L1588 221 L1612 219 L1628 217 L1657 215 L1697 213 L1720 211 L1749 208 L1766 206 L1779 205 L1799 203 L1819 202 L1840 201 L1857 200 L1876 199 L1896 198 L1915 197 L1934 197 L1953 196 L1973 195 L1993 194 L2012 193 L2030 192 L2058 192 L2079 191 L2107 190 L2142 188 L2155 187 L2187 186 L2206 185 L2226 184 L2244 184 L2264 183 L2283 182 L2304 181 L2321 181 L2340 179 L2361 176 L2381 173 L2399 169 L2418 166 L2438 163 L2458 161 L2476 159 L2495 157 L2516 156 L2541 155 L2556 153 L2573 152 L2592 150 L2612 149 L2631 148 L2650 146 L2670 145 L2691 143 L2708 142 L2727 140 L2748 139 L2769 138 L2785 137 L2804 136 L2824 135 L2844 135 L2863 133 L2882 132 L2901 131 L2921 130 L2940 129 L2959 129 L2987 128 L3007 127 L3077 125 L3105 122 L3120 120 L3134 118 L3154 117 L3172 116 L3192 114 L3212 113 L3233 112 L3250 111 L3269 110 L3289 109 L3309 109 L3327 108 L3346 106 L3366 105 L3387 103 L3404 102 L3423 101 L3445 100 L3470 99 L3485 98 L3502 97 L3521 96 L3541 94 L3559 93 L3579 92 L3598 91 L3620 90 L3636 89 L3656 88 L3676 87 L3697 86 L3714 85 L3772 84 L3791 83 L3810 82 L3830 81 L3850 80 L3869 80 L3888 79 L3915 78 L3936 78 L3964 77 L4000 76 L4015 76 L4027 75 L4045 74 L4063 74 L4083 73 L4101 73 L4121 72 L4141 72 L4162 72 L4178 71 L4197 71 L4218 70 L4238 70 L4256 69 L4275 68 L4295 67 L4315 67 L4333 66 L4352 65 L4373 64 L4398 64 L4413 63 L4430 63 L4449 62 L4469 61 L4488 61 L4507 60 L4527 58 L4548 57 L4565 56 L4584 56 L4605 55 L4626 55 L4642 54 L4661 54 L4682 53 L4701 53 L4720 52 L4739 52 L4759 51 L4779 51 L4797 51 L4816 50 L4844 50 L4864 49 L4892 49 L4927 48 L4941 48 L4955 47 L4973 47 L4991 46 L5011 45 L5029 45 L5069 44 L5089 44 L5107 44 L5126 43 L5146 42 L5166 41 L5184 40 L5203 40 L5223 39 L5243 38 L5261 38 L5280 37 L5301 37 L5326 36 L5341 36 L5358 35 L5378 35 L5397 34 L5416 33 L5435 33 L5455 32 L5476 31 L5494 31 L5512 30 L5533 29 L5553 29 L5571 28 L5590 28 L5610 27 L5629 27 L5648 27 L5667 26 L5687 26 L5707 25 L5726 25 L5745 24 L5773 24 L5821 23 L5858 22 L5874 22 L5886 21 L5903 21 L5920 21 L5940 20 L5958 20 L5977 20 L5997 19 L6018 19 L6035 19 L6054 19 L6075 19 L6094 18 L6113 18 L6132 18 L6151 17 L6171 17 L6190 17 L6209 16 L6230 15 L6254 15 L6269 14 L6286 13 L6306 12 L6325 11 L6345 10 L6364 9 L6384 8 L6404 6 L6422 5 L6441 4 L6461 3 L6482 2 L6500 1" />
</svg>
