<svg xmlns="http://www.w3.org/2000/svg" version="1.1" viewBox="0 0 6500 1000">
	<path fill="none" stroke="gold" stroke-width="125" stroke-linecap="round" stroke-linejoin="round" d="M0 32932  L-190941 32932 L-188337 32774 L-186669 32617 L-168340 32302 L-168169 31987 L-161012 31672 L-160979 31672 L-147548 31514 L-144626 31672 L-131285 31200 L-127116 30570 L-125956 29782 L-125337 28995 L-123325 28522 L-119553 28207 L-118953 27892 L-118624 27577 L-118411 27262 L-117870 26948 L-116632 25688 L-115453 24428 L-112588 23168 L-112066 21908 L-107210 21593 L-104273 21278 L-104230 20963 L-103922 20648 L-103670 20333 L-101075 20018 L-96820 20018 L-96802 20018 L-95565 20018 L-93687 20018 L-91734 19703 L-90786 19388 L-90515 19074 L-90205 18916 L-90107 18759 L-89277 18759 L-87246 18916 L-86956 17499 L-84809 16869 L-84654 15924 L-80997 14979 L-80746 15451 L-80648 15294 L-80131 15766 L-77980 16554 L-77051 17341 L-75525 18129 L-74285 18129 L-72739 17971 L-69777 17656 L-68655 17341 L-68346 17026 L-67135 16869 L-64128 18601 L-64108 18444 L-63761 18286 L-63548 18129 L-63422 15924 L-63180 15609 L-63142 15294 L-63123 14979 L-63103 14664 L-63044 14349 L-62986 14034 L-62968 13719 L-62525 13404 L-61285 13089 L-59739 12774 L-56352 12459 L-50625 12302 L-50424 12144 L-48788 11987 L-47066 11829 L-45634 11672 L-45402 11514 L-44686 11357 L-38554 11200 L-38186 10885 L-38032 10570 L-37454 10255 L-37161 9940 L-36194 9625 L-35884 9310 L-35285 8995 L-33679 8995 L-32944 8995 L-32634 9152 L-31866 9152 L-29830 8837 L-29404 8522 L-28592 8365 L-21163 8050 L-20640 7735 L-20467 7420 L-19732 7105 L-18164 6790 L-17758 6633 L-15533 6318 L-14585 6160 L-14160 6003 L-13830 6003 L-12786 5845 L-10678 5530 L-10426 5215 L-9807 4900 L-8994 4743 L-6886 4428 L-6838 4113 L-4910 3798 L-4584 3483 L-4449 3168 L-3946 3011 L-2533 2696 L-2030 2066 L-1508 1593 L2050 963 L2785 333 L5210 333 L6500 18" />
</svg>
