<svg xmlns="http://www.w3.org/2000/svg" version="1.1" viewBox="0 0 6500 1000">
	<path fill="none" stroke="gold" stroke-width="125" stroke-linecap="round" stroke-linejoin="round" d="M0 47613  L-189652 47613 L-187048 47383 L-185380 47154 L-167050 46694 L-166880 46234 L-159722 45774 L-159689 45774 L-146258 45544 L-143336 45774 L-129996 45085 L-125827 44165 L-124666 43016 L-124047 41866 L-122035 41177 L-118264 40717 L-117664 40257 L-117335 39797 L-117122 39337 L-116580 38878 L-115342 37039 L-114163 35200 L-111299 33360 L-110777 31521 L-105921 31062 L-102984 30602 L-102941 30142 L-102633 29682 L-102381 29222 L-99786 28763 L-95530 28763 L-95512 28763 L-94276 28763 L-92398 28763 L-90445 28303 L-89497 27843 L-89226 27383 L-88916 27154 L-88818 26924 L-87988 26924 L-85957 27154 L-85666 25085 L-83520 24165 L-83365 22786 L-79708 21406 L-79457 22096 L-79359 21866 L-78841 22556 L-76690 23705 L-75761 24855 L-74235 26004 L-72996 26004 L-71449 25774 L-68488 25314 L-67366 24855 L-67057 24395 L-65845 24165 L-62839 26694 L-62819 26464 L-62472 26234 L-62259 26004 L-62132 22786 L-61891 22326 L-61853 21866 L-61833 21406 L-61814 20947 L-61755 20487 L-61696 20027 L-61678 19567 L-61235 19108 L-59996 18648 L-58450 18188 L-55062 17728 L-49336 17498 L-49135 17268 L-47499 17039 L-45777 16809 L-44345 16579 L-44112 16349 L-43397 16119 L-37265 15889 L-36897 15429 L-36743 14970 L-36164 14510 L-35872 14050 L-34904 13590 L-34595 13131 L-33996 12671 L-32390 12671 L-31654 12671 L-31345 12901 L-30576 12901 L-28540 12441 L-28115 11981 L-27302 11751 L-19874 11291 L-19351 10832 L-19177 10372 L-18442 9912 L-16875 9452 L-16469 9222 L-14244 8763 L-13296 8533 L-12871 8303 L-12541 8303 L-11497 8073 L-9389 7613 L-9137 7154 L-8518 6694 L-7705 6464 L-5597 6004 L-5549 5544 L-3620 5085 L-3295 4625 L-3160 4165 L-2656 3935 L-1244 3475 L-741 2556 L-219 1866 L3340 947 L4075 27 L6500 27" />
</svg>
