<svg xmlns="http://www.w3.org/2000/svg" version="1.1" viewBox="0 0 6500 1000">
	<path fill="none" stroke="gold" stroke-width="125" stroke-linecap="round" stroke-linejoin="round" d="M0 3485  L-726012 3485 L-723408 3485 L-721740 3484 L-703411 3484 L-703240 3484 L-696083 3483 L-696049 3483 L-682619 3483 L-679697 3483 L-666356 3483 L-662187 3482 L-661027 3482 L-660408 3481 L-658396 3480 L-654624 3480 L-654024 3480 L-653695 3479 L-653482 3479 L-652941 3479 L-651703 3478 L-650524 3476 L-647659 3475 L-647137 3474 L-642281 3474 L-639344 3473 L-639301 3473 L-638993 3473 L-638741 3472 L-636146 3472 L-631891 3472 L-631873 3472 L-630636 3472 L-628758 3472 L-626805 3472 L-625857 3471 L-625586 3471 L-625276 3471 L-625178 3471 L-624348 3471 L-622317 3471 L-622027 3470 L-619880 3469 L-619725 3468 L-616068 3467 L-615817 3468 L-615719 3467 L-615202 3468 L-613051 3469 L-612122 3469 L-610596 3470 L-609356 3470 L-607810 3470 L-604848 3470 L-603726 3469 L-603417 3469 L-602206 3469 L-599199 3471 L-599179 3471 L-598832 3470 L-598619 3470 L-598493 3468 L-598251 3468 L-598213 3467 L-598193 3467 L-598174 3467 L-598115 3467 L-598057 3466 L-598039 3466 L-597596 3466 L-596356 3465 L-594810 3465 L-591423 3465 L-585696 3464 L-585495 3464 L-583859 3464 L-582137 3464 L-580705 3464 L-580473 3464 L-579757 3464 L-573625 3463 L-573257 3463 L-573103 3463 L-572525 3462 L-572232 3462 L-571265 3462 L-570955 3462 L-570356 3461 L-568750 3461 L-568015 3461 L-567705 3461 L-566937 3461 L-564901 3461 L-564475 3461 L-563663 3461 L-556234 3460 L-555711 3460 L-555538 3460 L-554803 3459 L-553235 3459 L-552829 3459 L-550604 3459 L-549656 3458 L-549231 3458 L-548901 3458 L-547857 3458 L-545749 3458 L-545497 3458 L-544878 3457 L-544065 3457 L-541957 3457 L-541909 3456 L-539981 3456 L-539655 3456 L-539520 3456 L-539017 3455 L-537604 3455 L-537101 3454 L-536579 3454 L-533020 3453 L-532285 3453 L-529860 3453 L-528570 3452 L-528163 3452 L-525011 3452 L-524856 3452 L-524836 3452 L-524469 3452 L-523211 3453 L-522496 3453 L-521606 3453 L-521199 3453 L-520271 3453 L-519162 3453 L-518859 3453 L-512610 3454 L-511663 3454 L-510036 3454 L-509535 3454 L-505859 3454 L-505027 3455 L-501073 3455 L-499662 3454 L-497172 3454 L-496496 3454 L-496457 3454 L-495586 3454 L-492375 3453 L-489512 3453 L-488544 3453 L-487423 3453 L-487404 3452 L-485779 3452 L-485314 3452 L-485223 3452 L-478853 3451 L-477905 3451 L-475448 3451 L-474575 3451 L-473339 3451 L-471338 3450 L-470940 3450 L-469504 3450 L-467478 3450 L-467265 3449 L-466085 3449 L-464576 3449 L-464556 3449 L-462544 3449 L-461674 3448 L-460804 3448 L-460219 3448 L-459682 3448 L-459024 3447 L-457786 3447 L-457225 3447 L-456044 3447 L-454806 3447 L-454768 3446 L-454381 3446 L-453839 3446 L-453066 3446 L-451943 3446 L-449854 3445 L-449521 3445 L-449235 3445 L-448306 3445 L-447823 3444 L-447088 3444 L-443457 3444 L-442329 3444 L-442174 3444 L-441148 3443 L-437434 3443 L-436216 3443 L-434398 3443 L-431612 3442 L-431050 3442 L-427163 3442 L-424686 3442 L-423351 3442 L-422848 3442 L-422365 3442 L-419675 3442 L-415904 3442 L-413446 3442 L-412267 3442 L-411627 3441 L-409268 3441 L-409190 3441 L-408143 3441 L-408049 3441 L-407547 3441 L-407101 3441 L-407044 3441 L-406830 3441 L-403870 3440 L-401163 3440 L-401008 3440 L-397487 3440 L-396964 3439 L-395997 3439 L-395648 3439 L-394604 3439 L-393676 3438 L-393250 3438 L-391741 3438 L-390774 3438 L-390755 3438 L-388859 3427 L-388743 3415 L-388695 3404 L-388671 3392 L-385667 3392 L-383636 3392 L-381875 3392 L-381508 3391 L-381062 3391 L-380695 3391 L-380281 3391 L-378296 3391 L-378083 3391 L-377928 3390 L-376323 3390 L-375201 3390 L-374253 3390 L-372996 3390 L-371351 3390 L-370172 3389 L-363582 3389 L-363536 3389 L-363130 3389 L-362085 3389 L-361949 3389 L-360267 3388 L-360247 3388 L-358910 3388 L-357674 3388 L-357520 3387 L-357146 3387 L-356939 3387 L-356630 3387 L-355856 3387 L-353535 3386 L-352877 3386 L-350749 3386 L-349027 3386 L-348833 3386 L-346280 3385 L-346003 3385 L-345815 3385 L-344983 3385 L-344210 3385 L-343512 3384 L-338512 3384 L-338136 3384 L-333883 3384 L-333396 3399 L-333377 3399 L-333298 3399 L-333222 3399 L-333202 3383 L-332390 3383 L-331636 3383 L-330417 3383 L-328985 3383 L-328889 3382 L-328714 3382 L-328360 3382 L-327050 3382 L-325193 3382 L-323491 3381 L-322988 3381 L-322723 3381 L-322330 3381 L-322195 3381 L-321286 3381 L-320909 3381 L-319981 3381 L-319642 3380 L-319602 3380 L-319564 3380 L-317649 3380 L-317475 3380 L-315946 3380 L-315618 3380 L-315502 3380 L-315095 3379 L-314747 3379 L-313103 3379 L-312552 3379 L-312309 3379 L-311768 3379 L-310936 3378 L-310395 3378 L-308860 3378 L-308768 3378 L-308731 3377 L-308595 3377 L-308208 3377 L-307183 3377 L-305307 3377 L-305210 3377 L-304610 3382 L-304243 3387 L-303758 3392 L-303720 3397 L-302946 3398 L-302889 3398 L-302714 3397 L-302521 3397 L-300916 3397 L-300896 3397 L-300740 3397 L-300625 3397 L-299445 3397 L-299291 3398 L-298624 3398 L-296176 3410 L-293661 3423 L-290991 3436 L-283292 3448 L-277624 3448 L-275409 3448 L-275386 3448 L-274412 3451 L-274392 3451 L-273529 3451 L-270788 3451 L-264990 3448 L-264836 3447 L-262051 3447 L-248442 3447 L-247696 3447 L-243286 3446 L-226939 3446 L-226707 3446 L-226170 3446 L-217711 3446 L-209005 3446 L-208793 3445 L-206820 3445 L-204034 3445 L-199547 3445 L-199392 3445 L-199223 3445 L-199082 3445 L-198792 3445 L-198753 3445 L-198482 3444 L-198310 3444 L-197900 3444 L-196780 3444 L-195600 3444 L-194323 3444 L-191459 3444 L-188539 3443 L-186547 3443 L-184999 3443 L-181961 3443 L-172637 3443 L-172113 3442 L-166389 3442 L-164882 3442 L-164067 3442 L-162384 3442 L-161663 3442 L-161494 3442 L-160449 3441 L-158382 3441 L-157020 3441 L-152576 3441 L-152479 3441 L-152440 3441 L-152421 3441 L-151589 3440 L-151511 3440 L-148939 3440 L-145689 3440 L-145535 3440 L-144586 3439 L-142845 3439 L-142130 3440 L-138589 3441 L-132012 3442 L-130594 3443 L-130574 3443 L-129623 3443 L-126149 3443 L-125396 3442 L-124834 3442 L-124052 3442 L-116548 3442 L-114949 3442 L-113375 3441 L-110190 3441 L-105857 3441 L-97287 3441 L-88541 3441 L-85467 3441 L-82201 3441 L-81655 3440 L-74517 3440 L-68850 3440 L-54785 3440 L-48774 3440 L-44068 3440 L-40064 3440 L-34957 3440 L-25243 3440 L-9672 3439 L-6589 3439 L-6287 3370 L-6268 3284 L-6249 3187 L-6229 3078 L-6209 3029 L-6190 2987 L-6172 2949 L-6144 2911 L-6123 2874 L-6095 2835 L-6060 2792 L-6046 2756 L-6033 2724 L-6015 2698 L-5996 2679 L-5976 2660 L-5958 2640 L-5938 2620 L-5919 2601 L-5897 2580 L-5881 2560 L-5862 2540 L-5841 2522 L-5821 2502 L-5803 2482 L-5784 2461 L-5765 2438 L-5744 2417 L-5726 2396 L-5707 2377 L-5686 2358 L-5661 2339 L-5647 2321 L-5629 2304 L-5610 2285 L-5590 2268 L-5571 2249 L-5552 2230 L-5532 2211 L-5512 2194 L-5494 2177 L-5475 2161 L-5454 2146 L-5434 2132 L-5417 2120 L-5398 2108 L-5378 2096 L-5359 2085 L-5339 2074 L-5320 2064 L-5300 2056 L-5281 2047 L-5262 2039 L-5243 2031 L-5216 2021 L-5195 2010 L-5167 1998 L-5133 1984 L-5119 1973 L-5106 1964 L-5087 1955 L-5068 1948 L-5048 1940 L-5030 1931 L-5010 1922 L-4990 1912 L-4970 1904 L-4952 1896 L-4933 1888 L-4913 1880 L-4893 1870 L-4875 1859 L-4856 1847 L-4836 1835 L-4816 1823 L-4797 1811 L-4779 1798 L-4758 1784 L-4733 1769 L-4718 1754 L-4701 1740 L-4681 1726 L-4662 1712 L-4643 1697 L-4624 1682 L-4604 1667 L-4584 1653 L-4565 1639 L-4547 1625 L-4526 1612 L-4506 1598 L-4488 1586 L-4469 1575 L-4449 1563 L-4430 1553 L-4411 1543 L-4392 1533 L-4372 1523 L-4353 1512 L-4333 1502 L-4314 1492 L-4286 1481 L-4266 1472 L-4238 1462 L-4201 1451 L-4186 1440 L-4173 1429 L-4156 1420 L-4139 1413 L-4119 1406 L-4101 1400 L-4082 1394 L-4062 1389 L-4041 1383 L-4024 1376 L-4005 1369 L-3984 1362 L-3965 1355 L-3946 1347 L-3927 1339 L-3908 1330 L-3888 1321 L-3869 1311 L-3850 1302 L-3829 1294 L-3805 1284 L-3790 1276 L-3773 1266 L-3753 1257 L-3734 1248 L-3714 1239 L-3695 1229 L-3675 1219 L-3655 1209 L-3637 1200 L-3618 1192 L-3598 1183 L-3577 1175 L-3560 1168 L-3541 1160 L-3521 1152 L-3502 1144 L-3482 1136 L-3463 1129 L-3443 1122 L-3424 1115 L-3405 1108 L-3386 1100 L-3358 1093 L-3337 1086 L-3309 1077 L-3273 1066 L-3259 1055 L-3246 1045 L-3228 1037 L-3210 1031 L-3191 1025 L-3172 1018 L-3152 1010 L-3133 1002 L-3111 994 L-3093 985 L-3076 975 L-3056 965 L-3035 955 L-3017 944 L-2998 932 L-2979 920 L-2958 909 L-2940 899 L-2921 890 L-2900 884 L-2875 878 L-2861 873 L-2843 867 L-2824 861 L-2804 855 L-2785 849 L-2766 843 L-2747 837 L-2726 833 L-2708 828 L-2689 823 L-2669 816 L-2648 808 L-2631 801 L-2612 795 L-2592 790 L-2573 787 L-2554 783 L-2535 780 L-2515 776 L-2495 772 L-2476 767 L-2457 763 L-2430 759 L-2409 756 L-2381 752 L-2346 746 L-2333 742 L-2319 738 L-2301 735 L-2282 732 L-2262 729 L-2244 726 L-2224 723 L-2204 720 L-2183 717 L-2166 714 L-2148 711 L-2127 707 L-2107 704 L-2089 700 L-2070 697 L-2050 694 L-2030 691 L-2012 688 L-1993 685 L-1972 682 L-1947 680 L-1932 677 L-1915 674 L-1896 672 L-1876 669 L-1857 666 L-1838 662 L-1818 659 L-1797 656 L-1780 652 L-1761 650 L-1740 647 L-1720 644 L-1702 641 L-1683 639 L-1663 636 L-1645 633 L-1625 631 L-1606 629 L-1586 627 L-1567 625 L-1547 623 L-1529 627 L-1500 630 L-1480 633 L-1452 636 L-1415 633 L-1400 631 L-1387 628 L-1370 627 L-1353 625 L-1333 624 L-1315 622 L-1295 620 L-1276 618 L-1254 617 L-1238 615 L-1219 614 L-1198 612 L-1178 610 L-1160 608 L-1141 607 L-1122 605 L-1101 603 L-1083 601 L-1064 600 L-1043 598 L-1018 597 L-1004 595 L-987 593 L-967 591 L-948 589 L-928 588 L-909 586 L-889 584 L-869 581 L-851 578 L-832 576 L-812 574 L-791 572 L-774 570 L-755 567 L-735 565 L-716 563 L-696 561 L-677 559 L-658 556 L-638 554 L-619 553 L-600 551 L-572 549 L-552 547 L-524 545 L-489 542 L-475 540 L-462 538 L-443 536 L-425 534 L-405 533 L-386 531 L-367 529 L-347 527 L-326 525 L-309 523 L-291 521 L-270 519 L-250 517 L-232 514 L-213 511 L-193 508 L-173 505 L-155 503 L-136 500 L-114 498 L-89 495 L-75 492 L-58 489 L-38 486 L-19 484 L0 481 L18 478 L38 476 L59 473 L76 471 L96 468 L116 466 L137 463 L154 462 L173 460 L193 458 L212 456 L231 455 L250 453 L270 452 L290 450 L309 449 L328 448 L355 446 L376 445 L404 443 L439 440 L453 438 L466 435 L485 432 L503 431 L523 429 L541 427 L561 426 L580 424 L601 422 L618 420 L637 418 L658 416 L678 414 L696 412 L715 410 L734 407 L755 405 L773 403 L792 401 L813 400 L838 398 L853 396 L870 395 L889 393 L909 391 L928 388 L947 386 L967 383 L988 380 L1005 377 L1024 375 L1045 372 L1065 370 L1082 369 L1101 367 L1121 366 L1140 365 L1160 363 L1179 362 L1199 360 L1218 359 L1237 358 L1256 357 L1283 355 L1304 354 L1332 353 L1366 352 L1381 350 L1394 349 L1412 348 L1431 347 L1451 346 L1469 345 L1489 344 L1509 343 L1529 342 L1547 341 L1566 340 L1586 339 L1606 337 L1624 336 L1643 335 L1663 334 L1683 334 L1701 333 L1720 332 L1741 331 L1766 330 L1781 329 L1798 328 L1818 327 L1837 326 L1856 325 L1875 324 L1895 323 L1916 321 L1934 319 L1952 316 L1973 314 L1993 312 L2011 311 L2030 310 L2050 308 L2069 307 L2088 305 L2107 304 L2127 302 L2146 301 L2166 300 L2185 299 L2213 298 L2261 297 L2298 296 L2313 295 L2325 294 L2342 293 L2360 292 L2379 292 L2398 291 L2417 290 L2437 289 L2458 289 L2475 288 L2494 287 L2514 287 L2534 286 L2553 285 L2571 284 L2592 283 L2611 282 L2630 281 L2649 279 L2670 278 L2694 276 L2709 274 L2726 273 L2746 271 L2765 270 L2785 268 L2804 267 L2824 265 L2844 264 L2862 262 L2881 261 L2901 260 L2922 258 L2939 257 L2958 256 L2978 255 L2997 254 L3017 253 L3036 252 L3056 251 L3075 250 L3095 249 L3113 247 L3142 246 L3162 245 L3190 243 L3226 241 L3241 239 L3254 236 L3271 235 L3289 233 L3309 232 L3327 231 L3347 230 L3366 230 L3388 229 L3404 227 L3423 226 L3444 224 L3464 223 L3482 221 L3501 219 L3520 216 L3541 214 L3559 212 L3578 211 L3599 209 L3624 207 L3639 206 L3657 205 L3675 203 L3695 202 L3714 201 L3733 199 L3753 197 L3774 195 L3791 194 L3810 192 L3830 191 L3851 190 L3868 188 L3887 187 L3907 186 L3926 185 L3945 184 L3964 182 L3984 181 L4004 180 L4023 179 L4042 178 L4070 997 L4090 996 L4118 994 L4154 992 L4168 171 L4181 169 L4199 168 L4217 167 L4237 166 L4255 166 L4275 165 L4295 163 L4316 161 L4333 160 L4351 158 L4372 156 L4392 154 L4410 152 L4429 150 L4449 148 L4470 146 L4487 145 L4506 144 L4528 142 L4552 140 L4568 138 L4597 136 L4637 134 L4660 131 L4689 128 L4706 126 L4719 124 L4739 123 L4759 122 L4780 120 L4797 119 L4816 118 L4836 117 L4855 116 L4874 115 L4893 115 L4913 114 L4933 113 L4952 112 L4970 111 L4998 110 L5019 109 L5047 108 L5082 106 L5095 105 L5127 104 L5146 103 L5166 102 L5184 101 L5204 100 L5223 99 L5244 99 L5261 98 L5280 96 L5301 93 L5321 89 L5339 85 L5358 82 L5378 78 L5398 76 L5416 74 L5435 72 L5456 71 L5481 69 L5496 68 L5513 66 L5532 64 L5552 63 L5571 62 L5590 60 L5610 58 L5631 57 L5648 55 L5667 53 L5688 52 L5709 51 L5725 50 L5744 49 L5764 48 L5784 47 L5803 46 L5822 45 L5841 43 L5861 42 L5880 41 L5899 40 L5927 40 L5947 38 L6017 36 L6045 34 L6060 31 L6074 29 L6094 27 L6112 26 L6132 25 L6152 23 L6173 22 L6190 21 L6209 20 L6229 19 L6249 19 L6267 17 L6286 16 L6306 14 L6327 13 L6344 11 L6363 10 L6385 9 L6410 8 L6425 7 L6442 6 L6461 4 L6481 3 L6500 1" />
</svg>
