<svg xmlns="http://www.w3.org/2000/svg" version="1.1" viewBox="0 0 6500 1000">
	<path fill="none" stroke="gold" stroke-width="125" stroke-linecap="round" stroke-linejoin="round" d="M0 3407  L-726851 3407 L-724247 3407 L-722579 3407 L-704249 3407 L-704079 3406 L-696921 3406 L-696888 3406 L-683457 3406 L-680535 3406 L-667195 3406 L-663026 3405 L-661866 3404 L-661246 3404 L-659235 3403 L-655463 3403 L-654863 3403 L-654534 3402 L-654321 3402 L-653779 3402 L-652541 3400 L-651362 3399 L-648498 3398 L-647976 3397 L-643120 3397 L-640183 3396 L-640140 3396 L-639832 3396 L-639580 3395 L-636985 3395 L-632729 3395 L-632711 3395 L-631475 3395 L-629597 3395 L-627644 3395 L-626696 3394 L-626425 3394 L-626115 3394 L-626017 3394 L-625187 3394 L-623156 3394 L-622865 3393 L-620719 3392 L-620564 3391 L-616907 3390 L-616656 3391 L-616558 3391 L-616040 3391 L-613889 3392 L-612960 3393 L-611434 3393 L-610195 3393 L-608648 3393 L-605687 3393 L-604565 3393 L-604256 3392 L-603044 3392 L-600038 3394 L-600018 3394 L-599671 3393 L-599458 3393 L-599331 3391 L-599090 3391 L-599052 3391 L-599032 3390 L-599013 3390 L-598954 3390 L-598895 3389 L-598877 3389 L-598434 3389 L-597195 3389 L-595649 3388 L-592261 3388 L-586535 3388 L-586334 3388 L-584698 3387 L-582976 3387 L-581544 3387 L-581311 3387 L-580596 3387 L-574464 3387 L-574096 3386 L-573942 3386 L-573363 3386 L-573071 3386 L-572104 3385 L-571794 3385 L-571195 3385 L-569589 3385 L-568854 3385 L-568544 3385 L-567775 3385 L-565739 3384 L-565314 3384 L-564501 3384 L-557073 3384 L-556550 3383 L-556376 3383 L-555641 3383 L-554074 3383 L-553668 3382 L-551443 3382 L-550495 3382 L-550070 3382 L-549740 3382 L-548696 3382 L-546588 3381 L-546336 3381 L-545717 3381 L-544904 3381 L-542796 3380 L-542748 3380 L-540819 3380 L-540494 3379 L-540359 3379 L-539856 3379 L-538443 3379 L-537940 3378 L-537418 3378 L-533858 3377 L-533123 3376 L-530699 3376 L-529409 3376 L-529002 3376 L-525850 3376 L-525695 3376 L-525675 3376 L-525308 3376 L-524050 3376 L-523335 3376 L-522445 3376 L-522038 3376 L-521109 3376 L-520001 3376 L-519697 3377 L-513449 3377 L-512501 3377 L-510875 3378 L-510373 3378 L-506698 3378 L-505865 3378 L-501912 3378 L-500500 3378 L-498011 3378 L-497335 3377 L-497296 3377 L-496425 3377 L-493214 3377 L-490351 3377 L-489383 3377 L-488261 3376 L-488242 3376 L-486617 3376 L-486153 3375 L-486061 3375 L-479692 3375 L-478744 3375 L-476286 3375 L-475414 3374 L-474178 3374 L-472177 3374 L-471779 3374 L-470343 3374 L-468317 3373 L-468104 3373 L-466924 3373 L-465415 3373 L-465395 3373 L-463383 3373 L-462513 3372 L-461642 3372 L-461057 3372 L-460520 3371 L-459863 3371 L-458624 3371 L-458064 3371 L-456883 3371 L-455645 3370 L-455607 3370 L-455220 3370 L-454678 3370 L-453904 3370 L-452782 3370 L-450693 3369 L-450360 3369 L-450074 3369 L-449145 3368 L-448662 3368 L-447927 3368 L-444295 3368 L-443168 3368 L-443013 3368 L-441987 3367 L-438272 3367 L-437055 3367 L-435236 3367 L-432451 3366 L-431889 3366 L-428001 3366 L-425525 3366 L-424190 3366 L-423687 3366 L-423203 3366 L-420514 3366 L-416742 3366 L-414285 3366 L-413105 3366 L-412466 3365 L-410107 3365 L-410029 3365 L-408982 3365 L-408888 3365 L-408385 3365 L-407940 3365 L-407882 3365 L-407669 3365 L-404709 3364 L-402001 3364 L-401847 3364 L-398326 3364 L-397803 3364 L-396836 3363 L-396486 3363 L-395443 3363 L-394514 3362 L-394089 3362 L-392580 3362 L-391613 3362 L-391594 3362 L-389698 3351 L-389582 3340 L-389534 3329 L-389509 3318 L-386505 3318 L-384475 3317 L-382714 3317 L-382347 3317 L-381901 3317 L-381534 3317 L-381120 3316 L-379135 3316 L-378922 3316 L-378767 3316 L-377162 3316 L-376040 3316 L-375092 3316 L-373835 3315 L-372190 3315 L-371010 3315 L-364421 3315 L-364374 3315 L-363969 3314 L-362923 3314 L-362788 3314 L-361105 3314 L-361086 3314 L-359749 3313 L-358513 3313 L-358358 3313 L-357984 3313 L-357778 3313 L-357469 3313 L-356695 3312 L-354373 3312 L-353716 3312 L-351588 3312 L-349865 3312 L-349672 3311 L-347119 3311 L-346842 3311 L-346654 3311 L-345822 3310 L-345049 3310 L-344351 3310 L-339350 3310 L-338975 3310 L-334722 3310 L-334235 3324 L-334215 3324 L-334136 3324 L-334061 3324 L-334041 3309 L-333228 3309 L-332475 3308 L-331255 3308 L-329824 3308 L-329727 3308 L-329553 3308 L-329198 3308 L-327889 3308 L-326032 3308 L-324330 3307 L-323827 3307 L-323561 3307 L-323168 3307 L-323034 3307 L-322124 3307 L-321748 3306 L-320819 3306 L-320480 3306 L-320441 3306 L-320403 3306 L-318488 3306 L-318314 3306 L-316785 3306 L-316457 3306 L-316341 3306 L-315934 3305 L-315586 3305 L-313942 3305 L-313391 3305 L-313148 3305 L-312606 3304 L-311775 3304 L-311233 3304 L-309699 3304 L-309607 3304 L-309570 3303 L-309434 3303 L-309047 3303 L-308022 3303 L-306145 3303 L-306049 3303 L-305449 3307 L-305082 3313 L-304597 3318 L-304559 3323 L-303785 3323 L-303728 3323 L-303553 3323 L-303360 3323 L-301754 3322 L-301734 3322 L-301579 3322 L-301464 3323 L-300284 3323 L-300129 3323 L-299462 3323 L-297014 3335 L-294499 3348 L-291830 3360 L-284130 3372 L-278463 3372 L-276248 3372 L-276225 3372 L-275251 3375 L-275231 3375 L-274367 3375 L-271627 3375 L-265829 3371 L-265675 3371 L-262889 3371 L-249281 3371 L-248535 3371 L-244124 3370 L-227778 3370 L-227546 3370 L-227009 3370 L-218549 3370 L-209844 3369 L-209632 3369 L-207659 3369 L-204873 3369 L-200385 3369 L-200231 3369 L-200061 3369 L-199921 3369 L-199630 3369 L-199592 3368 L-199321 3368 L-199149 3368 L-198739 3368 L-197619 3368 L-196438 3368 L-195161 3368 L-192298 3367 L-189377 3367 L-187385 3367 L-185838 3367 L-182800 3367 L-173475 3367 L-172951 3366 L-167227 3366 L-165720 3366 L-164906 3366 L-163222 3366 L-162501 3366 L-162333 3366 L-161288 3365 L-159220 3365 L-157858 3365 L-153415 3365 L-153318 3365 L-153279 3365 L-153260 3365 L-152428 3364 L-152350 3364 L-149778 3364 L-146528 3364 L-146373 3364 L-145425 3364 L-143684 3363 L-142969 3364 L-139428 3365 L-132851 3366 L-131433 3367 L-131412 3367 L-130462 3367 L-126988 3367 L-126234 3366 L-125673 3366 L-124891 3366 L-117386 3366 L-115788 3366 L-114214 3365 L-111029 3365 L-106696 3365 L-98126 3365 L-89380 3365 L-86306 3365 L-83040 3365 L-82493 3364 L-75356 3364 L-69688 3364 L-55624 3364 L-49613 3364 L-44906 3364 L-40903 3364 L-35796 3364 L-26082 3364 L-10511 3363 L-7428 3363 L-7126 3296 L-7106 3213 L-7088 3119 L-7068 3014 L-7048 2966 L-7029 2925 L-7010 2888 L-6983 2851 L-6962 2815 L-6934 2778 L-6899 2736 L-6885 2701 L-6872 2671 L-6853 2646 L-6835 2627 L-6815 2608 L-6797 2589 L-6777 2570 L-6757 2551 L-6736 2531 L-6719 2511 L-6701 2492 L-6680 2474 L-6660 2456 L-6642 2436 L-6623 2415 L-6603 2394 L-6583 2373 L-6565 2353 L-6546 2334 L-6525 2316 L-6500 2297 L-6485 2280 L-6468 2263 L-6449 2245 L-6429 2229 L-6410 2210 L-6391 2191 L-6371 2174 L-6350 2157 L-6333 2140 L-6314 2125 L-6293 2110 L-6273 2097 L-6255 2085 L-6236 2073 L-6216 2062 L-6198 2051 L-6178 2041 L-6159 2031 L-6139 2023 L-6120 2015 L-6100 2007 L-6082 1999 L-6054 1989 L-6033 1978 L-6006 1967 L-5972 1954 L-5957 1943 L-5944 1934 L-5926 1925 L-5907 1918 L-5887 1910 L-5868 1902 L-5849 1893 L-5829 1884 L-5808 1876 L-5791 1869 L-5772 1860 L-5752 1852 L-5732 1843 L-5713 1832 L-5695 1821 L-5675 1809 L-5655 1797 L-5636 1786 L-5617 1774 L-5596 1760 L-5572 1745 L-5557 1731 L-5540 1717 L-5520 1704 L-5501 1690 L-5481 1676 L-5463 1661 L-5443 1646 L-5422 1632 L-5404 1619 L-5385 1605 L-5365 1593 L-5345 1580 L-5327 1568 L-5308 1557 L-5288 1546 L-5269 1536 L-5249 1526 L-5231 1516 L-5211 1506 L-5191 1496 L-5172 1486 L-5153 1476 L-5124 1466 L-5105 1457 L-5077 1448 L-5040 1437 L-5025 1426 L-5012 1416 L-4995 1407 L-4978 1400 L-4958 1393 L-4940 1387 L-4920 1382 L-4900 1377 L-4880 1371 L-4862 1364 L-4844 1358 L-4823 1351 L-4803 1344 L-4785 1336 L-4766 1328 L-4746 1320 L-4727 1311 L-4708 1302 L-4689 1293 L-4668 1285 L-4643 1275 L-4629 1267 L-4612 1258 L-4592 1249 L-4573 1240 L-4553 1231 L-4534 1221 L-4514 1212 L-4494 1203 L-4475 1194 L-4457 1186 L-4436 1177 L-4416 1170 L-4398 1162 L-4379 1155 L-4359 1147 L-4341 1140 L-4321 1132 L-4302 1125 L-4282 1118 L-4263 1111 L-4243 1104 L-4224 1097 L-4196 1090 L-4176 1083 L-4148 1075 L-4112 1064 L-4098 1054 L-4085 1044 L-4067 1035 L-4049 1030 L-4029 1024 L-4011 1017 L-3991 1010 L-3971 1002 L-3950 994 L-3932 985 L-3915 976 L-3894 966 L-3874 956 L-3856 945 L-3837 934 L-3817 923 L-3797 912 L-3779 902 L-3760 894 L-3739 887 L-3714 882 L-3699 877 L-3682 871 L-3663 865 L-3643 859 L-3624 853 L-3605 848 L-3585 842 L-3564 838 L-3547 833 L-3528 828 L-3507 822 L-3487 814 L-3470 807 L-3451 801 L-3430 797 L-3412 793 L-3392 790 L-3373 787 L-3353 783 L-3334 779 L-3315 775 L-3296 771 L-3268 767 L-3248 763 L-3220 759 L-3185 754 L-3171 750 L-3158 746 L-3139 743 L-3121 740 L-3101 737 L-3082 734 L-3063 731 L-3043 729 L-3022 726 L-3005 723 L-2986 720 L-2966 716 L-2946 713 L-2928 709 L-2909 706 L-2889 704 L-2869 701 L-2850 698 L-2832 695 L-2810 692 L-2785 690 L-2771 687 L-2754 684 L-2734 682 L-2715 679 L-2696 676 L-2677 673 L-2657 669 L-2636 666 L-2618 663 L-2599 661 L-2579 658 L-2558 655 L-2541 653 L-2522 650 L-2502 647 L-2483 645 L-2463 642 L-2445 640 L-2425 639 L-2405 637 L-2386 635 L-2367 638 L-2339 641 L-2319 644 L-2291 647 L-2254 644 L-2238 642 L-2226 640 L-2208 638 L-2192 637 L-2172 635 L-2154 634 L-2134 632 L-2114 630 L-2093 629 L-2076 627 L-2058 626 L-2037 624 L-2017 622 L-1999 621 L-1980 619 L-1960 617 L-1940 615 L-1922 614 L-1903 612 L-1882 611 L-1857 609 L-1843 608 L-1825 606 L-1806 604 L-1786 602 L-1767 601 L-1748 599 L-1728 597 L-1707 594 L-1690 592 L-1671 589 L-1650 587 L-1630 585 L-1612 583 L-1593 581 L-1574 579 L-1555 577 L-1535 575 L-1516 572 L-1496 570 L-1477 568 L-1457 566 L-1439 565 L-1411 563 L-1390 561 L-1363 559 L-1328 556 L-1314 554 L-1301 552 L-1282 550 L-1263 549 L-1243 547 L-1225 545 L-1206 544 L-1186 542 L-1165 540 L-1148 538 L-1129 536 L-1109 534 L-1089 532 L-1070 529 L-1052 527 L-1032 524 L-1011 521 L-993 518 L-975 516 L-953 513 L-928 510 L-914 508 L-896 505 L-877 502 L-858 500 L-839 497 L-819 494 L-799 492 L-779 489 L-761 487 L-742 485 L-722 482 L-701 480 L-684 478 L-665 476 L-645 475 L-626 473 L-606 472 L-588 470 L-568 469 L-548 467 L-529 466 L-510 465 L-483 464 L-462 462 L-434 461 L-399 458 L-385 455 L-372 453 L-353 450 L-335 448 L-315 447 L-297 445 L-277 444 L-257 442 L-236 440 L-219 438 L-201 436 L-180 434 L-160 432 L-142 430 L-123 428 L-103 426 L-83 424 L-65 422 L-46 420 L-25 419 L0 417 L14 415 L31 413 L50 411 L70 410 L89 407 L108 405 L128 402 L149 399 L166 397 L185 394 L206 392 L227 390 L244 388 L263 387 L283 386 L302 385 L321 383 L340 382 L360 380 L379 379 L399 378 L417 377 L445 375 L466 374 L493 373 L528 372 L542 371 L555 369 L574 368 L592 367 L612 366 L631 365 L650 364 L670 363 L691 363 L708 362 L727 360 L747 359 L767 358 L785 357 L804 356 L824 355 L844 354 L863 354 L882 353 L903 352 L927 351 L942 350 L959 349 L979 348 L998 347 L1018 346 L1036 345 L1056 344 L1077 342 L1095 340 L1114 338 L1134 336 L1155 334 L1172 332 L1191 331 L1211 330 L1230 328 L1250 327 L1268 325 L1288 324 L1308 323 L1327 322 L1346 321 L1375 320 L1422 319 L1459 318 L1474 317 L1487 316 L1504 315 L1521 314 L1541 314 L1559 313 L1579 312 L1599 311 L1619 311 L1637 310 L1655 309 L1676 309 L1695 308 L1714 307 L1733 306 L1753 305 L1773 304 L1791 303 L1810 302 L1831 301 L1856 299 L1870 297 L1888 295 L1907 294 L1926 292 L1946 291 L1965 290 L1985 288 L2006 287 L2023 285 L2042 284 L2063 283 L2083 281 L2101 280 L2120 279 L2140 278 L2159 277 L2178 276 L2197 275 L2217 274 L2236 273 L2256 272 L2275 271 L2303 270 L2323 268 L2351 267 L2388 265 L2402 262 L2415 260 L2432 258 L2450 257 L2470 256 L2488 255 L2508 254 L2528 254 L2549 253 L2566 251 L2584 250 L2605 249 L2625 247 L2643 245 L2662 243 L2682 241 L2702 239 L2720 237 L2739 235 L2760 234 L2785 232 L2800 231 L2818 229 L2836 228 L2856 227 L2875 225 L2894 223 L2914 222 L2935 220 L2952 219 L2971 217 L2992 216 L3013 215 L3029 214 L3048 212 L3068 211 L3087 210 L3107 209 L3126 208 L3145 207 L3166 206 L3184 205 L3203 204 L3231 997 L3251 996 L3279 995 L3315 993 L3329 197 L3343 195 L3360 194 L3378 193 L3398 192 L3417 191 L3436 191 L3456 189 L3477 188 L3494 186 L3513 184 L3533 183 L3553 181 L3571 179 L3591 176 L3610 174 L3631 173 L3648 171 L3667 170 L3689 169 L3714 167 L3729 165 L3758 163 L3798 161 L3821 158 L3851 156 L3867 153 L3881 151 L3900 150 L3920 149 L3941 148 L3958 147 L3977 145 L3997 144 L4016 144 L4036 143 L4054 142 L4074 142 L4094 140 L4113 139 L4132 139 L4159 137 L4180 136 L4208 135 L4243 134 L4257 133 L4288 131 L4307 130 L4327 130 L4345 129 L4365 128 L4385 127 L4406 127 L4422 126 L4441 124 L4462 121 L4482 117 L4500 114 L4519 110 L4539 107 L4559 105 L4577 102 L4596 101 L4617 100 L4642 98 L4657 97 L4675 95 L4693 93 L4713 92 L4732 91 L4752 89 L4771 88 L4792 86 L4809 84 L4828 83 L4849 82 L4870 80 L4886 80 L4906 79 L4926 78 L4945 77 L4964 75 L4983 74 L5003 73 L5023 72 L5041 71 L5060 70 L5088 69 L5109 68 L5179 66 L5207 64 L5221 61 L5235 59 L5255 58 L5274 56 L5293 55 L5313 54 L5334 52 L5351 51 L5370 50 L5390 50 L5410 49 L5429 48 L5448 47 L5467 45 L5488 44 L5506 42 L5524 41 L5546 40 L5571 39 L5586 38 L5603 37 L5622 35 L5642 34 L5661 32 L5680 31 L5700 30 L5721 29 L5738 28 L5757 27 L5777 26 L5799 25 L5815 24 L5873 23 L5893 22 L5911 21 L5931 20 L5951 19 L5970 18 L5989 18 L6017 17 L6037 16 L6065 16 L6102 15 L6116 14 L6129 13 L6146 12 L6164 12 L6184 11 L6202 11 L6222 10 L6242 10 L6263 10 L6280 9 L6298 9 L6319 8 L6339 8 L6357 7 L6376 6 L6396 5 L6417 4 L6434 3 L6453 3 L6475 2 L6500 1" />
</svg>
