<svg xmlns="http://www.w3.org/2000/svg" version="1.1" viewBox="0 0 6500 1000">
	<path fill="none" stroke="gold" stroke-width="125" stroke-linecap="round" stroke-linejoin="round" d="M0 3225  L-722222 3225 L-719618 3225 L-717950 3225 L-699620 3224 L-699450 3224 L-692292 3224 L-692259 3224 L-678828 3224 L-675906 3224 L-662566 3223 L-658397 3223 L-657237 3222 L-656617 3221 L-654606 3221 L-650834 3220 L-650234 3220 L-649905 3220 L-649692 3220 L-649150 3219 L-647912 3218 L-646733 3217 L-643869 3215 L-643347 3214 L-638491 3214 L-635554 3214 L-635511 3213 L-635203 3213 L-634951 3213 L-632356 3212 L-628100 3212 L-628082 3212 L-626846 3212 L-624968 3212 L-623015 3212 L-622067 3212 L-621796 3211 L-621486 3211 L-621388 3211 L-620558 3211 L-618527 3211 L-618236 3210 L-616090 3209 L-615935 3208 L-612278 3207 L-612027 3208 L-611929 3208 L-611411 3208 L-609260 3209 L-608331 3210 L-606805 3211 L-605566 3211 L-604019 3210 L-601058 3210 L-599936 3210 L-599627 3209 L-598415 3209 L-595409 3211 L-595389 3211 L-595042 3211 L-594829 3211 L-594702 3208 L-594461 3208 L-594423 3208 L-594403 3207 L-594384 3207 L-594325 3207 L-594266 3206 L-594248 3206 L-593805 3206 L-592566 3206 L-591020 3205 L-587632 3205 L-581906 3205 L-581705 3205 L-580069 3204 L-578347 3204 L-576915 3204 L-576682 3204 L-575967 3204 L-569835 3204 L-569467 3203 L-569313 3203 L-568734 3203 L-568442 3202 L-567474 3202 L-567165 3202 L-566566 3202 L-564960 3202 L-564224 3202 L-563915 3202 L-563146 3202 L-561110 3201 L-560685 3201 L-559872 3201 L-552444 3201 L-551921 3200 L-551747 3200 L-551012 3200 L-549445 3199 L-549039 3199 L-546814 3199 L-545866 3199 L-545441 3199 L-545111 3199 L-544067 3198 L-541959 3198 L-541707 3198 L-541088 3197 L-540275 3197 L-538167 3197 L-538119 3197 L-536190 3196 L-535865 3196 L-535730 3196 L-535227 3196 L-533814 3195 L-533311 3195 L-532789 3194 L-529229 3194 L-528494 3193 L-526070 3193 L-524780 3193 L-524373 3193 L-521221 3193 L-521066 3193 L-521046 3193 L-520679 3193 L-519421 3193 L-518706 3193 L-517816 3193 L-517409 3193 L-516480 3193 L-515372 3193 L-515068 3193 L-508820 3194 L-507872 3194 L-506246 3194 L-505744 3195 L-502069 3195 L-501236 3195 L-497283 3195 L-495871 3195 L-493382 3194 L-492706 3194 L-492667 3194 L-491796 3194 L-488585 3194 L-485722 3193 L-484754 3193 L-483632 3193 L-483613 3193 L-481988 3192 L-481524 3192 L-481432 3192 L-475063 3192 L-474115 3191 L-471657 3191 L-470785 3191 L-469549 3191 L-467548 3191 L-467150 3190 L-465714 3190 L-463688 3190 L-463475 3190 L-462294 3189 L-460786 3189 L-460766 3189 L-458754 3189 L-457884 3189 L-457013 3188 L-456428 3188 L-455891 3188 L-455234 3188 L-453995 3187 L-453435 3187 L-452254 3187 L-451016 3187 L-450978 3187 L-450591 3186 L-450049 3186 L-449275 3186 L-448153 3186 L-446064 3186 L-445730 3185 L-445445 3185 L-444516 3185 L-444033 3184 L-443298 3184 L-439666 3184 L-438539 3184 L-438384 3184 L-437358 3184 L-433643 3183 L-432426 3183 L-430607 3183 L-427822 3183 L-427260 3182 L-423372 3182 L-420896 3182 L-419561 3182 L-419057 3182 L-418574 3182 L-415885 3182 L-412113 3182 L-409656 3182 L-408476 3182 L-407837 3182 L-405478 3181 L-405400 3181 L-404353 3181 L-404259 3181 L-403756 3181 L-403311 3181 L-403253 3181 L-403040 3181 L-400080 3180 L-397372 3180 L-397218 3180 L-393697 3180 L-393174 3180 L-392207 3179 L-391857 3179 L-390814 3179 L-389885 3179 L-389460 3178 L-387951 3178 L-386984 3178 L-386965 3178 L-385069 3167 L-384953 3155 L-384905 3144 L-384880 3132 L-381876 3132 L-379846 3132 L-378085 3132 L-377718 3131 L-377272 3131 L-376905 3131 L-376491 3131 L-374506 3131 L-374293 3131 L-374138 3130 L-372533 3130 L-371411 3130 L-370463 3130 L-369206 3130 L-367561 3130 L-366381 3129 L-359792 3129 L-359745 3129 L-359340 3129 L-358294 3129 L-358159 3128 L-356476 3128 L-356457 3128 L-355120 3128 L-353884 3128 L-353729 3127 L-353355 3127 L-353149 3127 L-352840 3127 L-352066 3126 L-349744 3126 L-349087 3126 L-346959 3126 L-345236 3126 L-345043 3126 L-342489 3125 L-342213 3125 L-342025 3125 L-341192 3125 L-340420 3124 L-339722 3124 L-334721 3124 L-334345 3124 L-330093 3124 L-329606 3139 L-329586 3139 L-329507 3139 L-329432 3139 L-329412 3123 L-328599 3123 L-327846 3123 L-326626 3122 L-325195 3122 L-325098 3122 L-324924 3122 L-324569 3122 L-323260 3122 L-321403 3122 L-319701 3121 L-319198 3121 L-318932 3121 L-318539 3121 L-318405 3121 L-317495 3121 L-317119 3120 L-316190 3120 L-315851 3120 L-315812 3120 L-315774 3120 L-313858 3120 L-313685 3120 L-312156 3120 L-311828 3120 L-311712 3120 L-311305 3119 L-310956 3119 L-309313 3119 L-308762 3119 L-308519 3119 L-307977 3118 L-307146 3118 L-306604 3118 L-305070 3118 L-304978 3117 L-304941 3117 L-304805 3117 L-304418 3117 L-303393 3117 L-301516 3117 L-301420 3117 L-300820 3122 L-300453 3127 L-299968 3132 L-299930 3137 L-299156 3138 L-299099 3138 L-298924 3137 L-298731 3137 L-297125 3137 L-297105 3137 L-296950 3137 L-296835 3137 L-295655 3137 L-295500 3138 L-294833 3138 L-292385 3151 L-289870 3164 L-287201 3176 L-279501 3189 L-273834 3189 L-271619 3188 L-271596 3188 L-270622 3192 L-270602 3192 L-269738 3191 L-266998 3191 L-261200 3188 L-261046 3188 L-258260 3187 L-244652 3187 L-243906 3187 L-239495 3187 L-223149 3186 L-222917 3186 L-222380 3186 L-213920 3186 L-205215 3186 L-205002 3186 L-203030 3185 L-200244 3185 L-195756 3186 L-195601 3185 L-195432 3185 L-195292 3185 L-195001 3185 L-194963 3185 L-194692 3185 L-194520 3184 L-194110 3184 L-192989 3184 L-191809 3184 L-190532 3184 L-187669 3184 L-184748 3184 L-182756 3183 L-181209 3183 L-178171 3183 L-168846 3183 L-168322 3183 L-162598 3183 L-161091 3182 L-160277 3182 L-158593 3182 L-157872 3182 L-157704 3182 L-156659 3182 L-154591 3182 L-153229 3181 L-148786 3181 L-148689 3181 L-148650 3181 L-148631 3181 L-147799 3181 L-147721 3180 L-145148 3180 L-141899 3180 L-141744 3180 L-140796 3180 L-139055 3179 L-138340 3180 L-134799 3181 L-128221 3182 L-126804 3183 L-126783 3183 L-125833 3183 L-122359 3183 L-121605 3182 L-121044 3182 L-120262 3182 L-112757 3182 L-111159 3182 L-109585 3182 L-106400 3182 L-102067 3181 L-93497 3181 L-84751 3181 L-81677 3181 L-78411 3181 L-77864 3181 L-70727 3180 L-65059 3180 L-50995 3180 L-44984 3181 L-40277 3180 L-36274 3180 L-31167 3180 L-21453 3180 L-5882 3180 L-2799 3179 L-2497 3109 L-2477 3024 L-2459 2926 L-2439 2817 L-2419 2767 L-2400 2725 L-2381 2687 L-2354 2648 L-2333 2612 L-2305 2573 L-2270 2529 L-2256 2493 L-2243 2461 L-2224 2435 L-2206 2416 L-2186 2397 L-2168 2377 L-2148 2357 L-2128 2337 L-2107 2317 L-2090 2296 L-2072 2277 L-2051 2258 L-2031 2239 L-2013 2218 L-1994 2197 L-1974 2174 L-1954 2153 L-1936 2132 L-1917 2113 L-1896 2094 L-1871 2075 L-1856 2057 L-1839 2039 L-1820 2021 L-1800 2003 L-1781 1984 L-1762 1965 L-1742 1946 L-1721 1929 L-1704 1912 L-1685 1896 L-1664 1881 L-1644 1866 L-1626 1854 L-1607 1842 L-1587 1830 L-1569 1819 L-1549 1808 L-1530 1798 L-1510 1790 L-1491 1782 L-1471 1773 L-1453 1765 L-1425 1755 L-1404 1744 L-1377 1732 L-1343 1718 L-1328 1707 L-1315 1698 L-1297 1689 L-1278 1681 L-1258 1673 L-1239 1664 L-1220 1655 L-1200 1646 L-1179 1638 L-1162 1630 L-1143 1622 L-1123 1613 L-1103 1603 L-1084 1592 L-1066 1581 L-1046 1569 L-1026 1556 L-1007 1544 L-988 1532 L-967 1517 L-943 1502 L-928 1487 L-911 1473 L-891 1459 L-872 1445 L-852 1430 L-834 1415 L-814 1400 L-793 1385 L-775 1371 L-756 1357 L-736 1344 L-716 1331 L-698 1318 L-679 1307 L-659 1295 L-640 1285 L-620 1275 L-602 1265 L-582 1255 L-562 1244 L-543 1234 L-524 1224 L-495 1213 L-476 1204 L-448 1194 L-411 1182 L-395 1171 L-383 1161 L-366 1151 L-349 1144 L-329 1138 L-311 1131 L-291 1126 L-271 1120 L-251 1114 L-233 1108 L-215 1101 L-194 1093 L-174 1086 L-156 1078 L-137 1070 L-117 1061 L-98 1052 L-79 1042 L-60 1033 L-39 1025 L-14 1015 L0 1006 L16 997 L36 988 L55 979 L75 969 L94 959 L114 950 L134 940 L153 931 L171 922 L192 914 L212 905 L230 898 L249 890 L269 882 L287 875 L307 867 L326 859 L346 852 L365 845 L385 838 L404 831 L432 823 L452 816 L480 807 L516 796 L530 785 L543 775 L561 766 L579 761 L599 755 L617 748 L637 740 L657 732 L678 723 L696 714 L713 705 L734 695 L754 684 L772 673 L791 661 L811 650 L831 638 L849 628 L868 620 L889 613 L914 607 L929 602 L946 596 L965 590 L985 584 L1004 578 L1023 572 L1043 566 L1064 562 L1081 557 L1100 552 L1121 545 L1141 537 L1158 530 L1177 524 L1198 519 L1216 516 L1236 512 L1255 509 L1275 505 L1294 500 L1313 496 L1332 492 L1360 488 L1380 484 L1408 480 L1443 475 L1457 471 L1470 467 L1489 463 L1507 461 L1527 457 L1546 454 L1565 451 L1585 449 L1606 446 L1623 443 L1642 439 L1662 436 L1682 432 L1700 429 L1719 425 L1739 423 L1759 420 L1778 417 L1796 414 L1818 411 L1843 408 L1857 405 L1874 403 L1894 400 L1913 397 L1932 394 L1951 390 L1971 387 L1992 384 L2010 381 L2029 378 L2049 375 L2070 372 L2087 370 L2106 367 L2126 364 L2145 362 L2165 359 L2183 357 L2203 355 L2223 353 L2242 351 L2261 355 L2289 358 L2309 361 L2337 364 L2374 361 L2390 359 L2402 357 L2420 355 L2436 354 L2456 352 L2474 350 L2494 348 L2514 346 L2535 345 L2552 343 L2570 342 L2591 340 L2611 338 L2629 336 L2648 335 L2668 333 L2688 331 L2706 329 L2725 328 L2746 326 L2771 325 L2785 323 L2803 321 L2822 319 L2842 317 L2861 316 L2880 314 L2900 312 L2921 309 L2938 306 L2957 304 L2978 302 L2998 300 L3016 298 L3035 295 L3054 293 L3073 291 L3093 289 L3112 286 L3132 284 L3151 282 L3171 280 L3189 279 L3217 277 L3238 274 L3265 272 L3300 270 L3314 268 L3327 266 L3346 264 L3365 262 L3385 260 L3403 258 L3422 257 L3442 255 L3463 253 L3480 251 L3499 249 L3519 247 L3539 245 L3558 242 L3576 239 L3596 236 L3617 233 L3635 230 L3653 228 L3675 225 L3700 222 L3714 220 L3732 217 L3751 214 L3771 211 L3790 209 L3809 206 L3829 203 L3849 200 L3867 198 L3886 196 L3906 193 L3927 191 L3944 189 L3963 187 L3983 185 L4002 184 L4022 182 L4040 180 L4060 179 L4080 178 L4099 176 L4118 175 L4145 174 L4166 172 L4194 171 L4229 168 L4243 165 L4256 162 L4275 160 L4293 158 L4313 156 L4331 155 L4351 153 L4371 151 L4392 149 L4409 148 L4427 145 L4448 143 L4468 141 L4486 139 L4505 137 L4525 134 L4545 132 L4563 130 L4582 129 L4604 127 L4628 125 L4643 124 L4660 122 L4680 120 L4699 118 L4718 116 L4737 113 L4757 110 L4778 107 L4795 104 L4814 102 L4835 99 L4856 97 L4873 96 L4892 94 L4912 93 L4931 92 L4950 90 L4969 89 L4989 87 L5009 86 L5028 85 L5046 84 L5074 82 L5095 81 L5122 80 L5157 78 L5171 77 L5184 76 L5203 75 L5221 74 L5241 73 L5260 72 L5279 71 L5299 70 L5320 69 L5337 68 L5356 67 L5376 66 L5396 64 L5414 63 L5433 62 L5453 61 L5473 60 L5492 60 L5511 59 L5532 58 L5556 57 L5571 56 L5588 55 L5608 54 L5627 53 L5647 52 L5665 51 L5685 49 L5706 48 L5724 45 L5743 43 L5763 41 L5784 39 L5801 38 L5820 36 L5840 35 L5859 33 L5879 32 L5898 30 L5917 29 L5937 28 L5956 27 L5975 26 L6004 25 L6051 24 L6088 23 L6103 22 L6116 20 L6133 20 L6150 19 L6170 19 L6188 18 L6208 17 L6228 16 L6248 15 L6266 15 L6284 14 L6305 13 L6324 12 L6343 12 L6362 11 L6382 9 L6402 9 L6420 7 L6439 6 L6460 5 L6485 3 L6500 1" />
</svg>
