<svg xmlns="http://www.w3.org/2000/svg" version="1.1" viewBox="0 0 6500 1000">
	<path fill="none" stroke="gold" stroke-width="125" stroke-linecap="round" stroke-linejoin="round" d="M0 11688  L-731031 11688 L-728427 11688 L-726759 11687 L-708430 11686 L-708260 11685 L-701102 11684 L-701069 11684 L-687638 11684 L-684716 11684 L-671375 11683 L-667206 11681 L-666046 11678 L-665427 11676 L-663415 11675 L-659643 11674 L-659043 11673 L-658715 11672 L-658502 11671 L-657960 11670 L-656722 11666 L-655543 11662 L-652678 11658 L-652156 11654 L-647301 11653 L-644363 11652 L-644321 11651 L-644012 11650 L-643760 11649 L-641165 11648 L-636910 11648 L-636892 11648 L-635655 11648 L-633778 11648 L-631824 11647 L-630876 11646 L-630605 11645 L-630296 11645 L-630197 11644 L-629367 11644 L-627336 11645 L-627046 11640 L-624899 11638 L-624744 11635 L-621088 11632 L-620837 11634 L-620738 11633 L-620221 11635 L-618070 11637 L-617141 11640 L-615615 11642 L-614375 11642 L-612829 11642 L-609867 11641 L-608745 11640 L-608436 11639 L-607225 11638 L-604218 11644 L-604199 11643 L-603851 11643 L-603638 11642 L-603512 11635 L-603270 11634 L-603232 11633 L-603213 11632 L-603193 11631 L-603135 11630 L-603076 11629 L-603058 11629 L-602615 11628 L-601375 11627 L-599830 11626 L-596442 11625 L-590716 11624 L-590514 11624 L-588878 11623 L-587156 11623 L-585724 11622 L-585492 11622 L-584777 11621 L-578644 11621 L-578277 11620 L-578122 11619 L-577544 11618 L-577251 11617 L-576284 11616 L-575974 11615 L-575375 11614 L-573769 11614 L-573034 11614 L-572724 11614 L-571956 11614 L-569920 11613 L-569494 11612 L-568682 11612 L-561253 11611 L-560730 11610 L-560557 11609 L-559822 11608 L-558254 11607 L-557848 11606 L-555623 11606 L-554675 11605 L-554251 11605 L-553920 11605 L-552876 11604 L-550768 11603 L-550516 11602 L-549897 11601 L-549084 11601 L-546977 11600 L-546928 11599 L-545000 11598 L-544674 11597 L-544539 11596 L-544036 11595 L-542623 11594 L-542120 11592 L-541599 11591 L-538039 11589 L-537304 11587 L-534879 11587 L-533590 11586 L-533183 11585 L-530030 11585 L-529875 11585 L-529855 11586 L-529489 11586 L-528230 11586 L-527515 11587 L-526625 11587 L-526218 11587 L-525290 11587 L-524181 11586 L-523878 11588 L-517629 11589 L-516682 11590 L-515056 11591 L-514554 11592 L-510878 11592 L-510046 11593 L-506093 11593 L-504681 11592 L-502192 11591 L-501515 11590 L-501476 11589 L-500606 11589 L-497394 11589 L-494531 11588 L-493563 11588 L-492442 11587 L-492423 11586 L-490798 11585 L-490334 11583 L-490242 11583 L-483873 11583 L-482924 11582 L-480467 11582 L-479595 11581 L-478359 11580 L-476357 11580 L-475960 11579 L-474523 11578 L-472497 11577 L-472284 11576 L-471104 11576 L-469596 11575 L-469575 11575 L-467563 11574 L-466694 11573 L-465823 11573 L-465238 11572 L-464701 11571 L-464043 11570 L-462805 11569 L-462244 11568 L-461063 11568 L-459826 11567 L-459787 11567 L-459400 11566 L-458859 11565 L-458085 11565 L-456963 11564 L-454873 11563 L-454540 11562 L-454254 11561 L-453326 11561 L-452842 11560 L-452107 11560 L-448476 11559 L-447348 11559 L-447193 11558 L-446167 11557 L-442453 11557 L-441235 11556 L-439417 11555 L-436631 11554 L-436070 11553 L-432182 11553 L-429705 11553 L-428370 11553 L-427867 11552 L-427384 11552 L-424695 11552 L-420923 11552 L-418466 11552 L-417286 11552 L-416647 11551 L-414287 11550 L-414210 11550 L-413162 11549 L-413069 11548 L-412566 11548 L-412120 11548 L-412063 11548 L-411849 11548 L-408889 11547 L-406182 11547 L-406027 11546 L-402506 11546 L-401983 11545 L-401016 11544 L-400667 11543 L-399623 11542 L-398695 11541 L-398269 11541 L-396760 11541 L-395793 11540 L-395774 11540 L-393878 11504 L-393762 11468 L-393714 11431 L-393690 11395 L-390686 11395 L-388655 11394 L-386894 11393 L-386527 11393 L-386082 11392 L-385715 11391 L-385301 11390 L-383316 11390 L-383103 11390 L-382948 11389 L-381342 11389 L-380221 11389 L-379272 11388 L-378015 11387 L-376370 11387 L-375191 11386 L-368601 11385 L-368555 11385 L-368149 11384 L-367104 11384 L-366968 11383 L-365286 11382 L-365266 11382 L-363929 11381 L-362693 11380 L-362539 11380 L-362165 11379 L-361959 11378 L-361649 11378 L-360875 11377 L-358554 11377 L-357896 11376 L-355768 11376 L-354046 11375 L-353852 11374 L-351299 11374 L-351023 11373 L-350835 11372 L-350002 11371 L-349230 11371 L-348532 11370 L-343531 11370 L-343155 11369 L-338902 11369 L-338415 11417 L-338396 11417 L-338317 11417 L-338241 11416 L-338222 11366 L-337409 11366 L-336655 11365 L-335436 11364 L-334004 11364 L-333908 11364 L-333733 11364 L-333379 11363 L-332070 11362 L-330212 11362 L-328510 11361 L-328007 11360 L-327742 11360 L-327349 11359 L-327215 11359 L-326305 11358 L-325928 11358 L-325000 11358 L-324661 11357 L-324621 11357 L-324584 11357 L-322668 11357 L-322494 11356 L-320966 11356 L-320637 11356 L-320521 11355 L-320114 11355 L-319766 11354 L-318122 11353 L-317571 11353 L-317328 11352 L-316787 11352 L-315956 11351 L-315414 11350 L-313879 11349 L-313787 11349 L-313750 11348 L-313614 11348 L-313227 11347 L-312202 11347 L-310326 11346 L-310230 11346 L-309629 11361 L-309262 11378 L-308778 11395 L-308740 11412 L-307966 11413 L-307908 11412 L-307734 11411 L-307540 11411 L-305935 11410 L-305915 11409 L-305760 11410 L-305644 11411 L-304465 11411 L-304310 11413 L-303643 11413 L-301195 11453 L-298680 11494 L-296010 11534 L-288311 11573 L-282643 11573 L-280429 11573 L-280405 11573 L-279431 11583 L-279412 11583 L-278548 11582 L-275808 11581 L-270009 11571 L-269856 11570 L-267070 11569 L-253461 11568 L-252716 11568 L-248305 11567 L-231959 11566 L-231726 11565 L-231189 11565 L-222730 11564 L-214024 11564 L-213812 11563 L-211840 11563 L-209053 11563 L-204566 11563 L-204411 11563 L-204242 11563 L-204102 11562 L-203811 11561 L-203772 11561 L-203501 11561 L-203330 11560 L-202920 11560 L-201799 11559 L-200619 11559 L-199342 11558 L-196478 11558 L-193558 11557 L-191566 11557 L-190018 11556 L-186980 11555 L-177656 11555 L-177132 11554 L-171408 11554 L-169901 11554 L-169086 11554 L-167403 11553 L-166682 11552 L-166513 11552 L-165468 11551 L-163401 11551 L-162039 11550 L-157595 11550 L-157498 11549 L-157460 11549 L-157441 11548 L-156608 11548 L-156530 11547 L-153958 11546 L-150709 11546 L-150554 11545 L-149606 11545 L-147864 11544 L-147149 11547 L-143608 11549 L-137031 11552 L-135614 11556 L-135593 11556 L-134643 11555 L-131168 11555 L-130415 11554 L-129853 11553 L-129071 11553 L-121567 11552 L-119969 11552 L-118395 11551 L-115209 11551 L-110876 11550 L-102307 11550 L-93560 11550 L-90486 11549 L-87220 11548 L-86674 11548 L-79537 11547 L-73869 11547 L-59804 11547 L-53793 11548 L-49087 11547 L-45084 11546 L-39976 11546 L-30262 11545 L-14691 11544 L-11609 11543 L-11307 11323 L-11287 11052 L-11268 10744 L-11248 10400 L-11229 10243 L-11209 10110 L-11191 9989 L-11163 9869 L-11142 9752 L-11114 9629 L-11079 9493 L-11066 9378 L-11052 9279 L-11034 9196 L-11015 9136 L-10995 9074 L-10977 9011 L-10958 8949 L-10938 8887 L-10917 8821 L-10900 8757 L-10881 8695 L-10861 8636 L-10841 8575 L-10822 8509 L-10804 8442 L-10784 8372 L-10764 8305 L-10745 8239 L-10726 8178 L-10705 8118 L-10680 8057 L-10666 8001 L-10649 7945 L-10629 7888 L-10610 7832 L-10590 7772 L-10572 7710 L-10552 7652 L-10531 7597 L-10513 7543 L-10494 7493 L-10474 7446 L-10453 7401 L-10436 7362 L-10417 7324 L-10397 7287 L-10378 7251 L-10358 7217 L-10340 7186 L-10320 7159 L-10300 7133 L-10281 7107 L-10262 7081 L-10235 7048 L-10214 7014 L-10186 6976 L-10152 6933 L-10138 6899 L-10125 6868 L-10106 6840 L-10087 6817 L-10067 6792 L-10049 6763 L-10029 6734 L-10009 6705 L-9989 6679 L-9971 6655 L-9953 6628 L-9932 6601 L-9913 6571 L-9894 6536 L-9875 6499 L-9855 6461 L-9836 6422 L-9817 6384 L-9798 6344 L-9777 6299 L-9752 6251 L-9738 6204 L-9721 6159 L-9701 6115 L-9682 6070 L-9662 6024 L-9643 5975 L-9623 5928 L-9603 5882 L-9585 5837 L-9566 5793 L-9546 5752 L-9525 5710 L-9507 5671 L-9488 5635 L-9468 5598 L-9450 5567 L-9430 5534 L-9411 5501 L-9391 5470 L-9372 5436 L-9352 5404 L-9334 5372 L-9305 5339 L-9285 5310 L-9257 5279 L-9220 5242 L-9205 5207 L-9193 5174 L-9175 5144 L-9158 5121 L-9139 5101 L-9120 5081 L-9101 5063 L-9081 5045 L-9060 5026 L-9043 5006 L-9024 4984 L-9004 4961 L-8984 4938 L-8966 4913 L-8947 4887 L-8927 4859 L-8907 4830 L-8888 4800 L-8869 4772 L-8848 4744 L-8824 4715 L-8809 4687 L-8792 4658 L-8772 4628 L-8753 4600 L-8733 4570 L-8715 4538 L-8695 4507 L-8674 4477 L-8656 4447 L-8637 4421 L-8617 4394 L-8597 4368 L-8579 4345 L-8560 4320 L-8540 4295 L-8521 4271 L-8501 4246 L-8482 4223 L-8463 4200 L-8443 4177 L-8424 4155 L-8405 4132 L-8377 4109 L-8357 4086 L-8329 4059 L-8293 4023 L-8278 3989 L-8265 3957 L-8248 3929 L-8230 3912 L-8210 3893 L-8191 3870 L-8172 3847 L-8152 3821 L-8131 3794 L-8112 3765 L-8095 3736 L-8075 3703 L-8055 3670 L-8037 3635 L-8018 3598 L-7998 3560 L-7977 3526 L-7960 3493 L-7941 3466 L-7919 3445 L-7894 3426 L-7880 3410 L-7862 3392 L-7843 3374 L-7824 3354 L-7805 3334 L-7786 3315 L-7766 3298 L-7745 3283 L-7728 3269 L-7708 3252 L-7688 3230 L-7667 3206 L-7650 3182 L-7631 3164 L-7611 3149 L-7592 3138 L-7573 3127 L-7554 3116 L-7534 3103 L-7514 3090 L-7495 3076 L-7476 3064 L-7449 3051 L-7428 3039 L-7400 3026 L-7365 3009 L-7352 2996 L-7339 2984 L-7320 2973 L-7301 2964 L-7281 2954 L-7263 2944 L-7243 2935 L-7224 2926 L-7203 2917 L-7186 2908 L-7167 2897 L-7146 2886 L-7126 2875 L-7108 2863 L-7089 2853 L-7069 2844 L-7049 2835 L-7031 2826 L-7012 2816 L-6991 2807 L-6966 2798 L-6951 2789 L-6934 2781 L-6915 2773 L-6896 2763 L-6876 2754 L-6857 2743 L-6837 2732 L-6816 2722 L-6799 2712 L-6780 2703 L-6760 2694 L-6739 2686 L-6722 2677 L-6703 2668 L-6683 2660 L-6664 2652 L-6644 2644 L-6625 2638 L-6605 2632 L-6586 2625 L-6567 2620 L-6548 2630 L-6519 2640 L-6499 2650 L-6471 2659 L-6434 2650 L-6419 2643 L-6406 2636 L-6389 2631 L-6373 2626 L-6353 2621 L-6334 2615 L-6315 2609 L-6295 2604 L-6274 2599 L-6257 2595 L-6238 2590 L-6218 2584 L-6198 2578 L-6180 2573 L-6161 2567 L-6141 2561 L-6121 2555 L-6103 2550 L-6084 2545 L-6062 2540 L-6038 2536 L-6023 2530 L-6006 2524 L-5986 2518 L-5967 2512 L-5948 2507 L-5928 2501 L-5909 2494 L-5888 2486 L-5870 2478 L-5851 2470 L-5831 2463 L-5810 2457 L-5793 2450 L-5774 2442 L-5754 2436 L-5735 2430 L-5715 2422 L-5697 2415 L-5677 2407 L-5657 2400 L-5638 2395 L-5619 2390 L-5592 2384 L-5571 2377 L-5543 2370 L-5508 2362 L-5495 2355 L-5481 2349 L-5462 2343 L-5444 2338 L-5424 2332 L-5406 2326 L-5386 2321 L-5366 2314 L-5345 2308 L-5328 2302 L-5310 2297 L-5289 2290 L-5269 2282 L-5251 2274 L-5232 2265 L-5212 2255 L-5192 2246 L-5174 2237 L-5155 2230 L-5134 2221 L-5109 2212 L-5094 2204 L-5077 2194 L-5058 2186 L-5038 2178 L-5019 2169 L-5000 2160 L-4980 2152 L-4959 2143 L-4942 2136 L-4923 2128 L-4902 2120 L-4881 2113 L-4864 2107 L-4845 2101 L-4825 2096 L-4807 2091 L-4787 2085 L-4768 2080 L-4748 2076 L-4728 2072 L-4709 2067 L-4691 2064 L-4663 2059 L-4642 2054 L-4615 2049 L-4579 2040 L-4565 2031 L-4552 2023 L-4534 2015 L-4515 2009 L-4496 2005 L-4477 1999 L-4458 1994 L-4438 1988 L-4417 1982 L-4400 1977 L-4381 1970 L-4361 1963 L-4341 1957 L-4322 1949 L-4304 1942 L-4284 1935 L-4263 1928 L-4245 1922 L-4226 1916 L-4205 1912 L-4180 1906 L-4165 1901 L-4148 1895 L-4129 1889 L-4109 1883 L-4090 1875 L-4071 1868 L-4051 1858 L-4030 1848 L-4013 1840 L-3994 1832 L-3974 1824 L-3953 1818 L-3936 1813 L-3917 1808 L-3897 1804 L-3878 1800 L-3858 1796 L-3840 1791 L-3820 1787 L-3800 1782 L-3781 1779 L-3762 1775 L-3735 1770 L-3714 1767 L-3686 1762 L-3652 1758 L-3638 1754 L-3625 1751 L-3606 1747 L-3587 1744 L-3567 1740 L-3549 1737 L-3529 1734 L-3509 1732 L-3489 1729 L-3472 1725 L-3453 1722 L-3432 1718 L-3412 1714 L-3394 1710 L-3375 1707 L-3355 1704 L-3335 1702 L-3317 1699 L-3298 1697 L-3277 1695 L-3252 1691 L-3238 1688 L-3220 1684 L-3201 1681 L-3181 1678 L-3162 1674 L-3143 1671 L-3123 1667 L-3103 1661 L-3085 1654 L-3066 1647 L-3045 1640 L-3025 1634 L-3007 1630 L-2988 1625 L-2968 1620 L-2950 1616 L-2930 1611 L-2911 1606 L-2891 1603 L-2872 1599 L-2852 1595 L-2834 1593 L-2805 1590 L-2757 1587 L-2720 1583 L-2706 1579 L-2693 1575 L-2676 1572 L-2658 1571 L-2639 1570 L-2620 1567 L-2601 1564 L-2581 1561 L-2560 1559 L-2543 1557 L-2524 1555 L-2504 1553 L-2484 1550 L-2466 1547 L-2447 1544 L-2427 1541 L-2407 1538 L-2388 1534 L-2369 1530 L-2348 1526 L-2324 1520 L-2309 1514 L-2292 1509 L-2272 1504 L-2253 1499 L-2233 1494 L-2215 1490 L-2195 1485 L-2174 1481 L-2156 1476 L-2137 1471 L-2117 1467 L-2097 1463 L-2079 1460 L-2060 1457 L-2040 1453 L-2021 1450 L-2001 1447 L-1983 1443 L-1963 1439 L-1943 1435 L-1924 1432 L-1905 1428 L-1877 1425 L-1857 1421 L-1829 1415 L-1792 1408 L-1777 1400 L-1765 1393 L-1747 1388 L-1730 1384 L-1710 1380 L-1691 1377 L-1672 1374 L-1652 1372 L-1631 1369 L-1614 1365 L-1596 1361 L-1575 1356 L-1554 1350 L-1537 1344 L-1517 1337 L-1498 1330 L-1477 1323 L-1459 1318 L-1441 1312 L-1419 1307 L-1394 1302 L-1379 1297 L-1362 1293 L-1343 1288 L-1323 1284 L-1305 1280 L-1286 1274 L-1266 1268 L-1244 1263 L-1227 1258 L-1208 1254 L-1188 1250 L-1167 1245 L-1150 1241 L-1131 1237 L-1111 1233 L-1092 1230 L-1073 1226 L-1054 1222 L-1034 1219 L-1014 1215 L-995 1212 L-976 1208 L-948 3804 L-928 3800 L-900 3796 L-864 3789 L-850 1185 L-837 1181 L-819 1176 L-801 1174 L-781 1171 L-763 1169 L-743 1166 L-724 1161 L-702 1156 L-686 1151 L-667 1145 L-646 1140 L-626 1134 L-608 1127 L-589 1119 L-569 1113 L-548 1108 L-531 1103 L-512 1099 L-491 1095 L-466 1089 L-451 1083 L-421 1076 L-381 1068 L-358 1060 L-329 1051 L-313 1044 L-299 1038 L-279 1033 L-259 1029 L-238 1026 L-222 1022 L-203 1018 L-183 1015 L-164 1012 L-144 1010 L-125 1008 L-105 1005 L-85 1002 L-67 999 L-48 996 L-20 992 L0 989 L27 985 L63 981 L76 977 L108 973 L126 969 L146 967 L165 964 L184 962 L204 959 L225 957 L242 954 L261 948 L281 938 L302 927 L319 914 L339 903 L358 893 L379 885 L396 878 L415 872 L437 868 L462 864 L477 859 L494 854 L513 848 L533 844 L551 840 L571 835 L590 829 L612 824 L629 818 L648 813 L668 810 L689 806 L706 803 L725 800 L745 797 L764 794 L784 789 L803 786 L822 782 L842 778 L861 775 L880 773 L908 770 L928 766 L998 759 L1026 751 L1041 743 L1055 735 L1075 731 L1093 727 L1112 723 L1133 718 L1153 714 L1171 710 L1189 707 L1210 705 L1230 703 L1248 699 L1267 695 L1287 690 L1307 685 L1325 680 L1344 676 L1365 673 L1390 670 L1405 666 L1423 663 L1441 658 L1461 653 L1480 648 L1499 643 L1519 640 L1540 637 L1557 634 L1577 631 L1597 627 L1618 624 L1635 620 L1693 616 L1712 613 L1731 610 L1751 607 L1771 604 L1790 602 L1808 600 L1836 597 L1857 595 L1884 593 L1921 591 L1935 588 L1948 585 L1966 583 L1984 582 L2004 580 L2022 578 L2042 577 L2061 576 L2082 574 L2099 573 L2118 571 L2138 569 L2159 568 L2177 565 L2196 562 L2216 559 L2236 557 L2254 554 L2273 551 L2294 549 L2319 546 L2333 545 L2351 543 L2370 541 L2390 538 L2409 535 L2428 532 L2448 527 L2469 524 L2486 520 L2505 518 L2525 516 L2546 515 L2563 513 L2582 511 L2602 509 L2621 507 L2641 506 L2659 505 L2679 503 L2700 502 L2718 501 L2737 500 L2764 498 L2785 496 L2813 494 L2848 492 L2862 490 L2876 488 L2894 486 L2912 484 L2932 482 L2950 480 L2990 479 L3010 477 L3027 476 L3046 474 L3067 471 L3086 468 L3105 465 L3124 462 L3144 460 L3164 458 L3182 455 L3201 454 L3222 452 L3247 450 L3261 448 L3278 447 L3298 445 L3317 442 L3337 440 L3356 437 L3376 435 L3396 433 L3414 431 L3433 429 L3454 427 L3474 425 L3492 423 L3511 421 L3531 419 L3549 418 L3569 416 L3588 414 L3608 413 L3627 411 L3647 409 L3665 408 L3694 406 L3742 404 L3779 402 L3795 400 L3807 399 L3824 397 L3840 396 L3860 395 L3879 393 L3898 392 L3918 391 L3939 390 L3956 390 L3975 389 L3995 389 L4015 388 L4034 387 L4052 386 L4072 385 L4092 383 L4111 382 L4130 380 L4151 378 L4175 376 L4190 373 L4207 370 L4227 367 L4246 363 L4266 360 L4284 355 L4304 350 L4325 346 L4343 342 L4362 339 L4382 335 L4403 332 L4420 328 L4439 324 L4459 320 L4478 317 L4498 314 L4517 311 L4536 308 L4556 304 L4575 299 L4594 295 L4622 291 L4642 288 L4670 285 L4707 282 L4722 279 L4735 277 L4752 273 L4769 272 L4790 269 L4808 267 L4828 265 L4847 263 L4869 260 L4885 257 L4903 254 L4924 250 L4945 247 L4962 244 L4982 241 L5001 239 L5022 236 L5039 233 L5058 230 L5080 226 L5105 223 L5120 219 L5137 215 L5156 211 L5176 208 L5194 204 L5214 201 L5233 197 L5255 192 L5271 187 L5291 183 L5311 180 L5333 176 L5349 174 L5368 172 L5388 170 L5407 168 L5426 165 L5445 162 L5465 159 L5484 156 L5504 154 L5523 151 L5571 147 L5598 144 L5632 140 L5646 136 L5659 133 L5678 130 L5698 128 L5717 124 L5736 121 L5755 118 L5775 116 L5796 113 L5813 111 L5832 109 L5853 107 L5873 104 L5891 101 L5910 97 L5929 94 L5950 91 L5968 88 L5987 84 L6008 81 L6033 78 L6047 75 L6064 71 L6084 67 L6104 62 L6123 58 L6142 54 L6162 50 L6183 47 L6200 44 L6220 41 L6240 38 L6260 35 L6277 33 L6296 30 L6317 28 L6335 26 L6355 24 L6374 22 L6394 19 L6413 17 L6432 14 L6451 11 L6479 8 L6500 5" />
</svg>
