<svg xmlns="http://www.w3.org/2000/svg" version="1.1" viewBox="0 0 6500 1000">
	<path fill="none" stroke="gold" stroke-width="125" stroke-linecap="round" stroke-linejoin="round" d="M0 156755  L-357427 156755 L-354823 156503 L-353155 156251 L-334825 155748 L-334655 155244 L-327497 154740 L-327464 154740 L-314033 154488 L-311112 154740 L-297771 153984 L-293602 152977 L-292442 151717 L-291823 150458 L-289811 149702 L-286039 149198 L-285439 148695 L-285110 148191 L-284897 147687 L-284355 147183 L-283117 145168 L-281938 143153 L-279074 141138 L-278552 139123 L-273696 138619 L-270759 138115 L-270716 137612 L-270408 137108 L-270156 136604 L-267561 136100 L-263305 136100 L-263288 136100 L-262051 136100 L-260173 136100 L-258220 135596 L-257272 135093 L-257001 134589 L-256691 134337 L-256593 134085 L-255763 134085 L-253732 134337 L-253441 132070 L-251295 131062 L-251140 129551 L-247483 128040 L-247232 128795 L-247134 128544 L-246617 129299 L-244465 130559 L-243537 131818 L-242011 133078 L-240771 133078 L-239225 132826 L-236263 132322 L-235141 131818 L-234832 131314 L-233620 131062 L-230614 133833 L-230594 133581 L-230247 133329 L-230034 133078 L-229907 129551 L-229666 129047 L-229628 128544 L-229608 128040 L-229589 127536 L-229530 127032 L-229471 126528 L-229453 126025 L-229010 125521 L-227771 125017 L-226225 124513 L-222838 124010 L-217111 123758 L-216910 123506 L-215274 123254 L-213552 123002 L-212120 122750 L-211887 122498 L-211172 122246 L-205040 121994 L-204672 121491 L-204518 120987 L-203939 120483 L-203647 119979 L-202680 119476 L-202370 118972 L-201771 118468 L-200165 118468 L-199430 118468 L-199120 118720 L-198352 118720 L-196315 118216 L-195890 117712 L-195078 117460 L-187649 116957 L-187126 116453 L-186952 115949 L-186217 115445 L-184650 114942 L-184244 114690 L-182019 114186 L-181071 113934 L-180646 113682 L-180316 113682 L-179272 113430 L-177164 112926 L-176912 112423 L-176293 111919 L-175480 111667 L-173372 111163 L-173324 110659 L-171396 110156 L-171070 109652 L-170935 109148 L-170432 108896 L-169019 108392 L-168516 107385 L-167994 106629 L-164435 105622 L-163700 104614 L-161275 104614 L-159985 104110 L-159578 103858 L-156426 103858 L-156271 103858 L-156251 104110 L-155884 104110 L-154626 104362 L-153911 104614 L-153021 104614 L-152614 104614 L-151685 104614 L-150577 104362 L-150274 105370 L-144025 105874 L-143077 106377 L-141451 106881 L-140949 107133 L-137274 107385 L-136441 107637 L-132488 107889 L-131076 107133 L-128587 106629 L-127911 106125 L-127872 105874 L-127001 105874 L-123790 105622 L-120927 105370 L-119959 105118 L-118837 104614 L-118818 104110 L-117193 103607 L-116729 102851 L-116637 102599 L-110268 102347 L-109320 102095 L-106863 101843 L-105990 101340 L-104754 101088 L-102753 100836 L-102355 100332 L-100919 99828 L-98893 99576 L-98680 99073 L-97500 98821 L-95991 98569 L-95971 98317 L-93959 98065 L-93089 97561 L-92218 97309 L-91634 96806 L-91096 96302 L-90439 95798 L-89201 95294 L-88640 95042 L-87459 94790 L-86221 94539 L-86183 94287 L-85796 94035 L-85254 93531 L-84480 93279 L-83358 93027 L-81269 92523 L-80936 92020 L-80650 91516 L-79721 91264 L-79238 90760 L-78503 90508 L-74871 90256 L-73744 90005 L-73589 89753 L-72563 89249 L-68848 88997 L-67631 88493 L-65813 87989 L-63027 87738 L-62465 87234 L-58577 87234 L-56101 86982 L-54766 86982 L-54263 86730 L-53779 86478 L-51090 86478 L-47319 86478 L-44861 86478 L-43682 86478 L-43042 86226 L-40683 85722 L-40605 85471 L-39558 85219 L-39464 84715 L-38961 84715 L-38516 84715 L-38458 84715 L-38245 84715 L-35285 84211 L-32577 83959 L-32423 83707 L-28902 83455 L-28379 82952 L-27412 82448 L-27063 82196 L-26019 81692 L-25090 81188 L-24665 80937 L-23156 80937 L-22189 80685 L-22170 80433 L-20274 62045 L-20158 43153 L-20110 24513 L-20086 5874 L-17081 5622 L-15051 5118 L-13290 4866 L-12923 4614 L-12477 4110 L-12110 3858 L-11696 3355 L-9711 3103 L-9498 3103 L-9343 2851 L-7738 2851 L-6616 2599 L-5668 2347 L-4411 1843 L-2766 1591 L-1586 1088 L5002 836 L5049 584 L5454 332 L6500 80" />
</svg>
