<svg xmlns="http://www.w3.org/2000/svg" version="1.1" viewBox="0 0 6500 1000">
	<path fill="none" stroke="gold" stroke-width="125" stroke-linecap="round" stroke-linejoin="round" d="M0 6350  L-423336 6350 L-420732 6338 L-419064 6327 L-400735 6305 L-400564 6283 L-393407 6260 L-393373 6260 L-379943 6249 L-377021 6260 L-363680 6227 L-359511 6183 L-358351 6127 L-357732 6071 L-355720 6038 L-351948 6016 L-351348 5993 L-351019 5971 L-350806 5949 L-350264 5926 L-349026 5837 L-347848 5748 L-344983 5659 L-344461 5570 L-339605 5548 L-336668 5526 L-336625 5503 L-336317 5481 L-336065 5459 L-333470 5437 L-329215 5437 L-329197 5437 L-327960 5437 L-326082 5437 L-324129 5414 L-323181 5392 L-322910 5370 L-322600 5359 L-322502 5347 L-321672 5347 L-319641 5359 L-319351 5258 L-317204 5214 L-317049 5147 L-313392 5080 L-313141 5114 L-313043 5102 L-312526 5136 L-310374 5192 L-309446 5247 L-307920 5303 L-306680 5303 L-305134 5292 L-302172 5270 L-301050 5247 L-300741 5225 L-299530 5214 L-296523 5336 L-296503 5325 L-296156 5314 L-295943 5303 L-295817 5147 L-295575 5125 L-295537 5102 L-295517 5080 L-295498 5058 L-295439 5036 L-295381 5013 L-295363 4991 L-294920 4969 L-293680 4947 L-292134 4924 L-288747 4902 L-283020 4891 L-282819 4880 L-281183 4869 L-279461 4858 L-278029 4846 L-277797 4835 L-277081 4824 L-270949 4813 L-270581 4791 L-270427 4768 L-269849 4746 L-269556 4724 L-268589 4702 L-268279 4679 L-267680 4657 L-266074 4657 L-265339 4657 L-265029 4668 L-264261 4668 L-262225 4646 L-261799 4624 L-260987 4613 L-253558 4590 L-253035 4568 L-252862 4546 L-252126 4523 L-250559 4501 L-250153 4490 L-247928 4468 L-246980 4457 L-246555 4446 L-246225 4446 L-245181 4434 L-243073 4412 L-242821 4390 L-242202 4368 L-241389 4356 L-239281 4334 L-239233 4312 L-237305 4290 L-236979 4267 L-236844 4245 L-236341 4234 L-234928 4212 L-234425 4167 L-233903 4134 L-230344 4089 L-229609 4045 L-227184 4045 L-225894 4022 L-225487 4011 L-222335 4011 L-222180 4011 L-222160 4022 L-221793 4022 L-220535 4034 L-219820 4045 L-218930 4045 L-218523 4045 L-217595 4045 L-216486 4034 L-216183 4078 L-209934 4100 L-208987 4123 L-207360 4145 L-206859 4156 L-203183 4167 L-202351 4178 L-198397 4189 L-196986 4156 L-194496 4134 L-193820 4112 L-193781 4100 L-192910 4100 L-189699 4089 L-186836 4078 L-185868 4067 L-184747 4045 L-184728 4022 L-183103 4000 L-182638 3967 L-182546 3956 L-176177 3944 L-175229 3933 L-172772 3922 L-171899 3900 L-170663 3889 L-168662 3878 L-168264 3855 L-166828 3833 L-164802 3822 L-164589 3800 L-163409 3789 L-161900 3777 L-161880 3766 L-159868 3755 L-158998 3733 L-158127 3722 L-157543 3700 L-157005 3677 L-156348 3655 L-155110 3633 L-154549 3622 L-153368 3610 L-152130 3599 L-152092 3588 L-151705 3577 L-151163 3555 L-150389 3544 L-149267 3533 L-147178 3510 L-146845 3488 L-146559 3466 L-145630 3455 L-145147 3432 L-144412 3421 L-140780 3410 L-139653 3399 L-139498 3388 L-138472 3365 L-134757 3354 L-133540 3332 L-131722 3310 L-128936 3299 L-128374 3276 L-124487 3276 L-122010 3265 L-120675 3265 L-120172 3254 L-119689 3243 L-116999 3243 L-113228 3243 L-110770 3243 L-109591 3243 L-108951 3232 L-106592 3210 L-106514 3198 L-105467 3187 L-105373 3165 L-104871 3165 L-104425 3165 L-104367 3165 L-104154 3165 L-101194 3143 L-98487 3132 L-98332 3121 L-94811 3109 L-94288 3087 L-93321 3065 L-92972 3054 L-91928 3031 L-90999 3009 L-90574 2998 L-89065 2998 L-88098 2987 L-88079 2976 L-86183 2163 L-86067 1328 L-86019 504 L-85995 -319 L-82990 -330 L-80960 -352 L-79199 -364 L-78832 -375 L-78386 -397 L-78019 -408 L-77605 -430 L-75620 -442 L-75407 -442 L-75252 -453 L-73647 -453 L-72525 -464 L-71577 -475 L-70320 -497 L-68675 -508 L-67496 -531 L-60906 -542 L-60859 -553 L-60454 -564 L-59409 -575 L-59273 -586 L-57591 -609 L-57571 -620 L-56234 -642 L-54998 -653 L-54844 -664 L-54470 -687 L-54263 -698 L-53954 -709 L-53180 -731 L-50859 -742 L-50201 -753 L-48073 -764 L-46351 -776 L-46157 -798 L-43604 -809 L-43327 -831 L-43139 -854 L-42307 -865 L-41534 -876 L-40836 -887 L-35836 -887 L-35460 -909 L-31207 -920 L-30720 181 L-30701 181 L-30622 170 L-30546 159 L-30526 -976 L-29714 -987 L-28960 -1009 L-27741 -1021 L-26309 -1021 L-26213 -1032 L-26038 -1032 L-25684 -1054 L-24374 -1065 L-22517 -1076 L-20815 -1098 L-20312 -1110 L-20047 -1121 L-19654 -1132 L-19519 -1143 L-18610 -1154 L-18233 -1165 L-17305 -1165 L-16966 -1176 L-16926 -1176 L-16888 -1188 L-14973 -1188 L-14799 -1199 L-13270 -1199 L-12942 -1210 L-12826 -1221 L-12419 -1243 L-12071 -1254 L-10427 -1277 L-9876 -1288 L-9633 -1299 L-9092 -1310 L-8260 -1332 L-7719 -1343 L-6184 -1366 L-6092 -1377 L-6055 -1388 L-5919 -1399 L-5532 -1410 L-4507 -1421 L-2631 -1433 L-2534 -1444 L-1934 -1087 L-1567 -709 L-1082 -319 L-1044 59 L-270 81 L-213 70 L-38 47 L154 36 L1759 14 L1779 3 L1935 25 L2050 36 L3230 47 L3384 81 L4051 81 L6500 994" />
</svg>
