<svg xmlns="http://www.w3.org/2000/svg" version="1.1" viewBox="0 0 6500 1000">
	<path fill="none" stroke="gold" stroke-width="125" stroke-linecap="round" stroke-linejoin="round" d="M0 1048  L-713690 1048 L-711086 1048 L-709418 1048 L-691089 1047 L-690918 1047 L-683761 1047 L-683728 1047 L-670297 1046 L-667375 1047 L-654034 1046 L-649865 1045 L-648705 1045 L-648086 1044 L-646074 1043 L-642302 1043 L-641702 1043 L-641373 1042 L-641160 1042 L-640619 1042 L-639381 1040 L-638202 1039 L-635337 1038 L-634815 1036 L-629959 1036 L-627022 1036 L-626979 1035 L-626671 1035 L-626419 1035 L-623824 1034 L-619569 1034 L-619551 1034 L-618314 1034 L-616436 1034 L-614483 1034 L-613535 1034 L-613264 1033 L-612954 1033 L-612856 1033 L-612026 1033 L-609995 1033 L-609705 1032 L-607558 1031 L-607403 1030 L-603746 1029 L-603495 1030 L-603397 1029 L-602880 1030 L-600729 1031 L-599800 1032 L-598274 1032 L-597034 1032 L-595488 1032 L-592526 1032 L-591404 1032 L-591095 1031 L-589884 1031 L-586877 1033 L-586857 1033 L-586510 1033 L-586297 1032 L-586171 1030 L-585929 1030 L-585891 1029 L-585872 1029 L-585852 1029 L-585793 1028 L-585735 1028 L-585717 1028 L-585274 1027 L-584034 1027 L-582488 1027 L-579101 1026 L-573374 1026 L-573173 1026 L-571537 1026 L-569815 1026 L-568383 1026 L-568151 1025 L-567435 1025 L-561303 1025 L-560935 1025 L-560781 1024 L-560203 1024 L-559910 1024 L-558943 1023 L-558633 1023 L-558034 1023 L-556428 1023 L-555693 1023 L-555383 1023 L-554615 1023 L-552579 1023 L-552153 1022 L-551341 1022 L-543912 1022 L-543389 1022 L-543216 1021 L-542481 1021 L-540913 1021 L-540507 1020 L-538282 1020 L-537334 1020 L-536909 1020 L-536579 1020 L-535535 1020 L-533427 1019 L-533175 1019 L-532556 1019 L-531743 1018 L-529635 1018 L-529587 1018 L-527659 1017 L-527333 1017 L-527198 1017 L-526695 1017 L-525282 1016 L-524779 1016 L-524257 1015 L-520698 1014 L-519963 1014 L-517538 1014 L-516248 1013 L-515842 1013 L-512689 1013 L-512534 1013 L-512514 1013 L-512147 1013 L-510889 1014 L-510174 1014 L-509284 1014 L-508877 1014 L-507949 1014 L-506840 1014 L-506537 1014 L-500288 1015 L-499341 1015 L-497714 1015 L-497213 1015 L-493537 1016 L-492705 1016 L-488752 1016 L-487340 1015 L-484850 1015 L-484174 1015 L-484135 1015 L-483264 1015 L-480053 1014 L-477190 1014 L-476222 1014 L-475101 1014 L-475082 1013 L-473457 1013 L-472992 1013 L-472901 1012 L-466531 1012 L-465583 1012 L-463126 1012 L-462253 1012 L-461017 1011 L-459016 1011 L-458619 1011 L-457182 1011 L-455156 1010 L-454943 1010 L-453763 1010 L-452254 1010 L-452234 1010 L-450222 1009 L-449352 1009 L-448482 1009 L-447897 1009 L-447360 1008 L-446702 1008 L-445464 1008 L-444903 1008 L-443722 1007 L-442484 1007 L-442446 1007 L-442059 1007 L-441517 1007 L-440744 1006 L-439621 1006 L-437532 1006 L-437199 1006 L-436913 1005 L-435985 1005 L-435501 1005 L-434766 1005 L-431135 1004 L-430007 1004 L-429852 1004 L-428826 1004 L-425112 1004 L-423894 1003 L-422076 1003 L-419290 1003 L-418729 1002 L-414841 1002 L-412364 1002 L-411029 1002 L-410526 1002 L-410043 1002 L-407353 1002 L-403582 1002 L-401125 1002 L-399945 1002 L-399306 1002 L-396946 1001 L-396869 1001 L-395821 1001 L-395727 1001 L-395225 1001 L-394779 1001 L-394722 1001 L-394508 1001 L-391548 1000 L-388841 1000 L-388686 1000 L-385165 1000 L-384642 1000 L-383675 999 L-383326 999 L-382282 999 L-381354 998 L-380928 998 L-379419 998 L-378452 998 L-378433 998 L-376537 986 L-376421 974 L-376373 961 L-376349 949 L-373345 949 L-371314 949 L-369553 949 L-369186 948 L-368740 948 L-368373 948 L-367960 948 L-365975 947 L-365761 947 L-365606 947 L-364001 947 L-362879 947 L-361931 947 L-360674 947 L-359029 946 L-357850 946 L-351260 946 L-351214 946 L-350808 946 L-349763 945 L-349627 945 L-347945 945 L-347925 945 L-346588 944 L-345352 944 L-345198 944 L-344824 944 L-344617 944 L-344308 943 L-343534 943 L-341213 943 L-340555 943 L-338427 943 L-336705 942 L-336511 942 L-333958 942 L-333681 942 L-333493 941 L-332661 941 L-331888 941 L-331190 941 L-326190 941 L-325814 940 L-321561 940 L-321074 957 L-321055 957 L-320976 956 L-320900 956 L-320880 940 L-320068 939 L-319314 939 L-318095 939 L-316663 939 L-316567 939 L-316392 939 L-316038 938 L-314729 938 L-312871 938 L-311169 938 L-310666 938 L-310401 937 L-310008 937 L-309873 937 L-308964 937 L-308587 937 L-307659 937 L-307320 937 L-307280 937 L-307242 936 L-305327 936 L-305153 936 L-303624 936 L-303296 936 L-303180 936 L-302773 936 L-302425 935 L-300781 935 L-300230 935 L-299987 935 L-299446 935 L-298614 934 L-298073 934 L-296538 934 L-296446 934 L-296409 933 L-296273 933 L-295886 933 L-294861 933 L-292985 933 L-292888 933 L-292288 938 L-291921 943 L-291436 949 L-291398 955 L-290624 955 L-290567 955 L-290392 955 L-290199 954 L-288594 954 L-288574 954 L-288418 954 L-288303 954 L-287123 955 L-286969 955 L-286302 955 L-283854 969 L-281339 982 L-278669 996 L-270970 1009 L-265302 1009 L-263087 1009 L-263064 1009 L-262090 1012 L-262070 1012 L-261207 1012 L-258466 1012 L-252668 1008 L-252514 1008 L-249729 1008 L-236120 1008 L-235374 1007 L-230964 1007 L-214617 1007 L-214385 1007 L-213848 1006 L-205389 1006 L-196683 1006 L-196471 1006 L-194498 1006 L-191712 1006 L-187225 1006 L-187070 1006 L-186901 1006 L-186760 1006 L-186470 1005 L-186431 1005 L-186160 1005 L-185989 1005 L-185578 1005 L-184458 1004 L-183278 1004 L-182001 1004 L-179137 1004 L-176217 1004 L-174225 1004 L-172677 1003 L-169639 1003 L-160315 1003 L-159791 1003 L-154067 1003 L-152560 1003 L-151745 1003 L-150062 1002 L-149341 1002 L-149172 1002 L-148127 1002 L-146060 1002 L-144698 1001 L-140254 1001 L-140157 1001 L-140118 1001 L-140100 1001 L-139267 1001 L-139189 1000 L-136617 1000 L-133368 1000 L-133213 1000 L-132264 1000 L-130523 999 L-129808 1000 L-126267 1001 L-119690 1002 L-118273 1003 L-118252 1003 L-117301 1003 L-113827 1003 L-113074 1003 L-112512 1002 L-111730 1002 L-104226 1002 L-102627 1002 L-101053 1002 L-97868 1002 L-93535 1001 L-84965 1001 L-76219 1001 L-73145 1001 L-69879 1001 L-69333 1001 L-62195 1000 L-56528 1000 L-42463 1000 L-36452 1001 L-31746 1000 L-27742 1000 L-22635 1000 L-12921 1000 L2649 999 L5731 999 L6034 925 L6053 834 L6072 730 L6092 614 L6111 561 L6131 517 L6149 476 L6177 435 L6198 396 L6226 355 L6261 309 L6275 270 L6288 237 L6306 209 L6325 189 L6345 168 L6363 147 L6383 126 L6402 105 L6423 83 L6440 61 L6459 41 L6480 20 L6500 0" />
</svg>
