<svg xmlns="http://www.w3.org/2000/svg" version="1.1" viewBox="0 0 6500 1000">
	<path fill="none" stroke="gold" stroke-width="125" stroke-linecap="round" stroke-linejoin="round" d="M0 38307  L-312411 38307 L-309807 38174 L-308139 38040 L-289809 37772 L-289639 37504 L-282481 37236 L-282448 37236 L-269017 37103 L-266095 37236 L-252754 36835 L-248585 36299 L-247425 35630 L-246806 34961 L-244794 34559 L-241022 34291 L-240422 34024 L-240094 33756 L-239881 33488 L-239339 33220 L-238101 32149 L-236922 31078 L-234058 30008 L-233535 28937 L-228680 28669 L-225743 28401 L-225700 28133 L-225391 27866 L-225139 27598 L-222544 27330 L-218289 27330 L-218271 27330 L-217034 27330 L-215157 27330 L-213203 27062 L-212255 26795 L-211985 26527 L-211675 26393 L-211577 26259 L-210746 26259 L-208715 26393 L-208425 25188 L-206279 24653 L-206123 23850 L-202467 23046 L-202216 23448 L-202117 23314 L-201600 23716 L-199449 24385 L-198520 25054 L-196994 25724 L-195755 25724 L-194208 25590 L-191246 25322 L-190124 25054 L-189815 24787 L-188604 24653 L-185597 26125 L-185578 25991 L-185230 25858 L-185017 25724 L-184891 23850 L-184649 23582 L-184612 23314 L-184592 23046 L-184573 22779 L-184514 22511 L-184455 22243 L-184437 21975 L-183994 21708 L-182755 21440 L-181209 21172 L-177821 20904 L-172095 20771 L-171893 20637 L-170257 20503 L-168535 20369 L-167103 20235 L-166871 20101 L-166156 19967 L-160024 19834 L-159656 19566 L-159501 19298 L-158923 19030 L-158630 18763 L-157663 18495 L-157354 18227 L-156755 17959 L-155148 17959 L-154413 17959 L-154103 18093 L-153335 18093 L-151299 17825 L-150874 17558 L-150061 17424 L-142632 17156 L-142109 16888 L-141936 16621 L-141201 16353 L-139633 16085 L-139228 15951 L-137003 15684 L-136055 15550 L-135630 15416 L-135299 15416 L-134256 15282 L-132147 15014 L-131895 14746 L-131276 14479 L-130464 14345 L-128356 14077 L-128307 13809 L-126379 13542 L-126053 13274 L-125918 13006 L-125415 12872 L-124002 12605 L-123500 12069 L-122978 11668 L-119418 11132 L-118683 10597 L-116258 10597 L-114969 10329 L-114562 10195 L-111409 10195 L-111255 10195 L-111234 10329 L-110868 10329 L-109609 10463 L-108894 10597 L-108005 10597 L-107598 10597 L-106669 10597 L-105560 10463 L-105257 10998 L-99008 11266 L-98061 11534 L-96435 11801 L-95933 11935 L-92257 12069 L-91425 12203 L-87472 12337 L-86060 11935 L-83571 11668 L-82894 11400 L-82856 11266 L-81985 11266 L-78774 11132 L-75910 10998 L-74942 10864 L-73821 10597 L-73802 10329 L-72177 10061 L-71713 9659 L-71621 9526 L-65252 9392 L-64303 9258 L-61846 9124 L-60974 8856 L-59738 8722 L-57736 8589 L-57339 8321 L-55903 8053 L-53876 7919 L-53663 7651 L-52483 7518 L-50975 7384 L-50955 7250 L-48942 7116 L-48073 6848 L-47202 6714 L-46617 6447 L-46080 6179 L-45422 5911 L-44184 5643 L-43623 5510 L-42442 5376 L-41205 5242 L-41166 5108 L-40779 4974 L-40238 4706 L-39464 4572 L-38342 4439 L-36252 4171 L-35919 3903 L-35633 3635 L-34705 3502 L-34222 3234 L-33486 3100 L-29855 2966 L-28727 2832 L-28573 2698 L-27547 2431 L-23832 2297 L-22615 2029 L-20796 1761 L-18010 1627 L-17449 1360 L-13561 1360 L-11084 1226 L-9750 1226 L-9246 1092 L-8763 958 L-6074 958 L-2302 958 L154 958 L1334 958 L1973 824 L4333 556 L4410 423 L5458 289 L5551 21 L6054 21 L6500 21" />
</svg>
