<svg xmlns="http://www.w3.org/2000/svg" version="1.1" viewBox="0 0 6500 1000">
	<path fill="none" stroke="gold" stroke-width="125" stroke-linecap="round" stroke-linejoin="round" d="M0 1939  L-720893 1939 L-718289 1939 L-716621 1939 L-698292 1939 L-698121 1939 L-690964 1938 L-690930 1938 L-677500 1938 L-674578 1938 L-661237 1938 L-657068 1938 L-655908 1937 L-655289 1937 L-653277 1937 L-649505 1936 L-648905 1936 L-648576 1936 L-648363 1936 L-647822 1936 L-646584 1935 L-645405 1934 L-642540 1933 L-642018 1933 L-637162 1932 L-634225 1932 L-634182 1932 L-633874 1932 L-633622 1932 L-631027 1931 L-626772 1931 L-626754 1931 L-625517 1931 L-623639 1931 L-621686 1931 L-620738 1931 L-620467 1931 L-620157 1931 L-620059 1931 L-619229 1931 L-617198 1931 L-616908 1930 L-614761 1930 L-614606 1929 L-610949 1928 L-610698 1929 L-610600 1929 L-610083 1929 L-607932 1929 L-607003 1930 L-605477 1930 L-604237 1930 L-602691 1930 L-599729 1930 L-598607 1930 L-598298 1930 L-597087 1930 L-594080 1931 L-594060 1930 L-593713 1930 L-593500 1930 L-593374 1929 L-593132 1929 L-593094 1929 L-593074 1928 L-593055 1928 L-592996 1928 L-592938 1928 L-592920 1928 L-592477 1927 L-591237 1927 L-589691 1927 L-586304 1927 L-580577 1927 L-580376 1927 L-578740 1927 L-577018 1926 L-575586 1926 L-575354 1926 L-574638 1926 L-568506 1926 L-568138 1926 L-567984 1926 L-567406 1926 L-567113 1925 L-566146 1925 L-565836 1925 L-565237 1925 L-563631 1925 L-562896 1925 L-562586 1925 L-561818 1925 L-559782 1925 L-559356 1924 L-558544 1924 L-551115 1924 L-550592 1924 L-550419 1924 L-549684 1924 L-548116 1923 L-547710 1923 L-545485 1923 L-544537 1923 L-544112 1923 L-543782 1923 L-542738 1923 L-540630 1923 L-540378 1922 L-539759 1922 L-538946 1922 L-536838 1922 L-536790 1922 L-534862 1922 L-534536 1921 L-534401 1921 L-533898 1921 L-532485 1921 L-531982 1921 L-531460 1920 L-527901 1920 L-527166 1919 L-524741 1919 L-523451 1919 L-523045 1919 L-519892 1919 L-519737 1919 L-519717 1919 L-519350 1919 L-518092 1919 L-517377 1919 L-516487 1919 L-516080 1919 L-515152 1919 L-514043 1919 L-513740 1920 L-507491 1920 L-506544 1920 L-504917 1920 L-504416 1920 L-500740 1921 L-499908 1921 L-495955 1921 L-494543 1920 L-492053 1920 L-491377 1920 L-491338 1920 L-490467 1920 L-487256 1920 L-484393 1920 L-483425 1920 L-482304 1919 L-482285 1919 L-480660 1919 L-480195 1919 L-480104 1919 L-473734 1919 L-472786 1919 L-470329 1918 L-469456 1918 L-468220 1918 L-466219 1918 L-465822 1918 L-464385 1918 L-462359 1918 L-462146 1917 L-460966 1917 L-459457 1917 L-459437 1917 L-457425 1917 L-456555 1917 L-455685 1917 L-455100 1917 L-454563 1916 L-453905 1916 L-452667 1916 L-452106 1916 L-450925 1916 L-449687 1916 L-449649 1916 L-449262 1915 L-448720 1915 L-447947 1915 L-446824 1915 L-444735 1915 L-444402 1915 L-444116 1915 L-443187 1914 L-442704 1914 L-441969 1914 L-438338 1914 L-437210 1914 L-437055 1914 L-436029 1914 L-432315 1914 L-431097 1913 L-429279 1913 L-426493 1913 L-425931 1913 L-422044 1913 L-419567 1913 L-418232 1913 L-417729 1913 L-417246 1913 L-414556 1913 L-410785 1913 L-408328 1913 L-407148 1913 L-406509 1913 L-404149 1912 L-404071 1912 L-403024 1912 L-402930 1912 L-402428 1912 L-401982 1912 L-401925 1912 L-401711 1912 L-398751 1912 L-396044 1912 L-395889 1912 L-392368 1911 L-391845 1911 L-390878 1911 L-390529 1911 L-389485 1911 L-388557 1911 L-388131 1911 L-386622 1911 L-385655 1910 L-385636 1910 L-383740 1903 L-383624 1896 L-383576 1889 L-383552 1882 L-380548 1882 L-378517 1882 L-376756 1882 L-376389 1882 L-375943 1881 L-375576 1881 L-375163 1881 L-373178 1881 L-372964 1881 L-372809 1881 L-371204 1881 L-370082 1881 L-369134 1881 L-367877 1881 L-366232 1880 L-365053 1880 L-358463 1880 L-358417 1880 L-358011 1880 L-356966 1880 L-356830 1880 L-355148 1880 L-355128 1879 L-353791 1879 L-352555 1879 L-352401 1879 L-352027 1879 L-351820 1879 L-351511 1879 L-350737 1879 L-348416 1878 L-347758 1878 L-345630 1878 L-343908 1878 L-343714 1878 L-341161 1878 L-340884 1878 L-340696 1877 L-339864 1877 L-339091 1877 L-338393 1877 L-333393 1877 L-333017 1877 L-328764 1877 L-328277 1886 L-328258 1886 L-328179 1886 L-328103 1886 L-328083 1876 L-327271 1876 L-326517 1876 L-325298 1876 L-323866 1876 L-323770 1876 L-323595 1876 L-323241 1876 L-321931 1876 L-320074 1876 L-318372 1875 L-317869 1875 L-317604 1875 L-317211 1875 L-317076 1875 L-316167 1875 L-315790 1875 L-314862 1875 L-314523 1875 L-314483 1875 L-314445 1875 L-312530 1875 L-312356 1875 L-310827 1875 L-310499 1874 L-310383 1874 L-309976 1874 L-309628 1874 L-307984 1874 L-307433 1874 L-307190 1874 L-306649 1874 L-305817 1873 L-305276 1873 L-303741 1873 L-303649 1873 L-303612 1873 L-303476 1873 L-303089 1873 L-302064 1873 L-300188 1873 L-300091 1872 L-299491 1875 L-299124 1879 L-298639 1882 L-298601 1885 L-297827 1885 L-297770 1885 L-297595 1885 L-297402 1885 L-295797 1885 L-295777 1885 L-295621 1885 L-295506 1885 L-294326 1885 L-294172 1885 L-293505 1885 L-291057 1893 L-288542 1901 L-285872 1909 L-278173 1917 L-272505 1917 L-270290 1917 L-270267 1917 L-269293 1919 L-269273 1919 L-268410 1918 L-265669 1918 L-259871 1916 L-259717 1916 L-256932 1916 L-243323 1916 L-242577 1916 L-238167 1916 L-221820 1915 L-221588 1915 L-221051 1915 L-212592 1915 L-203886 1915 L-203674 1915 L-201701 1915 L-198915 1915 L-194428 1915 L-194273 1915 L-194104 1915 L-193963 1915 L-193673 1915 L-193634 1914 L-193363 1914 L-193191 1914 L-192781 1914 L-191661 1914 L-190481 1914 L-189204 1914 L-186340 1914 L-183420 1914 L-181428 1914 L-179880 1913 L-176842 1913 L-167518 1913 L-166994 1913 L-161270 1913 L-159763 1913 L-158948 1913 L-157265 1913 L-156544 1913 L-156375 1913 L-155330 1913 L-153263 1912 L-151901 1912 L-147457 1912 L-147360 1912 L-147321 1912 L-147303 1912 L-146470 1912 L-146392 1912 L-143820 1912 L-140571 1911 L-140416 1911 L-139467 1911 L-137726 1911 L-137011 1912 L-133470 1912 L-126893 1913 L-125476 1913 L-125455 1913 L-124504 1913 L-121030 1913 L-120277 1913 L-119715 1913 L-118933 1913 L-111429 1913 L-109830 1913 L-108256 1913 L-105071 1912 L-100738 1912 L-92168 1912 L-83422 1912 L-80348 1912 L-77082 1912 L-76536 1912 L-69398 1912 L-63731 1912 L-49666 1912 L-43655 1912 L-38949 1912 L-34945 1912 L-29838 1911 L-20124 1911 L-4553 1911 L-1471 1911 L-1168 1868 L-1149 1815 L-1130 1755 L-1110 1688 L-1091 1657 L-1071 1631 L-1053 1608 L-1025 1584 L-1004 1561 L-976 1537 L-941 1511 L-927 1488 L-914 1469 L-896 1453 L-877 1441 L-857 1429 L-839 1417 L-819 1405 L-800 1392 L-778 1380 L-762 1367 L-743 1355 L-722 1343 L-702 1332 L-684 1319 L-665 1306 L-646 1292 L-625 1279 L-607 1266 L-588 1254 L-567 1242 L-542 1231 L-528 1220 L-510 1209 L-491 1197 L-471 1187 L-452 1175 L-433 1163 L-413 1152 L-393 1141 L-375 1130 L-356 1121 L-335 1111 L-315 1102 L-298 1095 L-279 1087 L-259 1080 L-240 1073 L-220 1067 L-201 1061 L-181 1055 L-162 1050 L-143 1045 L-124 1040 L-97 1034 L-76 1027 L-48 1019 L-14 1011 L0 1004 L12 999 L31 993 L50 989 L70 984 L88 978 L108 972 L128 967 L148 962 L166 957 L185 952 L205 946 L225 940 L243 934 L262 926 L282 919 L302 911 L320 904 L339 896 L360 887 L385 878 L400 869 L417 860 L436 851 L456 843 L475 834 L494 824 L514 815 L534 806 L553 797 L571 789 L592 781 L612 773 L630 765 L649 758 L669 751 L688 745 L707 738 L726 732 L746 726 L765 719 L785 713 L804 707 L832 700 L852 694 L880 688 L917 681 L932 674 L945 668 L962 662 L979 658 L999 654 L1017 650 L1036 646 L1056 643 L1077 639 L1094 635 L1113 631 L1134 626 L1153 622 L1172 617 L1190 612 L1210 606 L1230 601 L1249 595 L1268 589 L1289 584 L1313 578 L1328 573 L1345 567 L1365 561 L1384 556 L1404 550 L1423 544 L1443 538 L1463 532 L1481 526 L1500 521 L1520 516 L1541 511 L1558 506 L1577 501 L1597 496 L1616 492 L1636 487 L1655 482 L1675 478 L1694 473 L1713 469 L1732 464 L1760 460 L1781 455 L1808 450 L1845 443 L1859 437 L1872 430 L1889 425 L1908 421 L1927 418 L1946 413 L1966 409 L1985 404 L2007 398 L2025 393 L2042 387 L2062 381 L2083 374 L2101 367 L2120 360 L2139 353 L2160 346 L2178 340 L2197 335 L2218 330 L2243 327 L2257 324 L2275 320 L2294 316 L2314 313 L2333 309 L2352 305 L2371 302 L2392 299 L2410 296 L2429 293 L2449 288 L2470 284 L2487 279 L2506 275 L2526 273 L2545 270 L2564 268 L2583 266 L2603 264 L2623 261 L2642 258 L2661 256 L2688 254 L2709 251 L2737 249 L2772 245 L2785 243 L2799 240 L2817 238 L2836 237 L2856 235 L2874 233 L2894 231 L2914 229 L2935 227 L2952 226 L2970 224 L2991 221 L3011 219 L3029 217 L3048 215 L3068 213 L3088 211 L3106 210 L3125 208 L3146 206 L3171 204 L3186 202 L3203 201 L3222 199 L3242 197 L3261 195 L3280 193 L3300 191 L3321 189 L3338 187 L3357 186 L3378 184 L3398 182 L3416 181 L3435 179 L3455 177 L3473 176 L3493 174 L3512 173 L3532 172 L3551 170 L3570 169 L3589 171 L3618 173 L3638 175 L3666 177 L3703 175 L3718 174 L3731 173 L3748 171 L3765 171 L3785 170 L3803 168 L3823 167 L3842 166 L3864 165 L3880 164 L3899 163 L3919 162 L3940 161 L3958 160 L3976 159 L3996 158 L4016 157 L4035 156 L4054 155 L4075 154 L4100 153 L4114 152 L4131 151 L4151 150 L4170 148 L4190 147 L4209 146 L4229 145 L4249 143 L4267 142 L4286 140 L4306 139 L4327 138 L4344 136 L4363 135 L4383 133 L4402 132 L4422 131 L4441 129 L4460 128 L4480 127 L4499 126 L4518 125 L4546 123 L4566 122 L4594 121 L4629 119 L4643 118 L4656 117 L4675 115 L4693 114 L4713 113 L4731 112 L4751 111 L4771 110 L4792 109 L4809 107 L4827 106 L4848 105 L4868 104 L4886 102 L4905 100 L4925 98 L4945 96 L4963 95 L4982 93 L5003 92 L5028 90 L5043 88 L5060 86 L5079 85 L5099 83 L5118 81 L5137 80 L5157 78 L5178 76 L5195 75 L5215 73 L5235 72 L5256 70 L5273 69 L5292 68 L5312 67 L5331 66 L5350 65 L5369 64 L5389 63 L5409 62 L5428 61 L5447 61 L5474 60 L5495 59 L5523 58 L5558 56 L5572 55 L5585 53 L5604 51 L5622 50 L5642 49 L5660 48 L5680 47 L5699 46 L5720 45 L5737 44 L5756 42 L5777 41 L5797 40 L5815 38 L5834 37 L5853 36 L5874 34 L5892 33 L5911 32 L5932 31 L5957 30 L5972 29 L5989 28 L6008 27 L6028 25 L6047 24 L6066 23 L6086 21 L6107 19 L6124 17 L6143 16 L6164 14 L6184 13 L6201 12 L6220 11 L6240 10 L6259 9 L6279 9 L6298 8 L6318 7 L6337 6 L6356 5 L6375 4 L6402 4 L6423 3 L6451 2 L6485 1 L6500 0" />
</svg>
