<svg xmlns="http://www.w3.org/2000/svg" version="1.1" viewBox="0 0 6500 1000">
	<path fill="none" stroke="gold" stroke-width="125" stroke-linecap="round" stroke-linejoin="round" d="M0 22954  L-271688 22954 L-269084 22866 L-267416 22779 L-249087 22604 L-248917 22429 L-241759 22253 L-241726 22253 L-228295 22166 L-225373 22253 L-212032 21991 L-207863 21640 L-206703 21203 L-206084 20765 L-204072 20502 L-200300 20327 L-199700 20152 L-199372 19977 L-199159 19802 L-198617 19626 L-197379 18926 L-196200 18225 L-193335 17525 L-192813 16824 L-187958 16649 L-185020 16474 L-184978 16299 L-184669 16124 L-184417 15949 L-181822 15774 L-177567 15774 L-177549 15774 L-176312 15774 L-174435 15774 L-172481 15598 L-171533 15423 L-171262 15248 L-170953 15161 L-170855 15073 L-170024 15073 L-167993 15161 L-167703 14373 L-165556 14022 L-165401 13497 L-161745 12971 L-161494 13234 L-161395 13147 L-160878 13409 L-158727 13847 L-157798 14285 L-156272 14723 L-155032 14723 L-153486 14635 L-150524 14460 L-149402 14285 L-149093 14110 L-147882 14022 L-144875 14985 L-144856 14898 L-144508 14810 L-144295 14723 L-144169 13497 L-143927 13322 L-143889 13147 L-143870 12971 L-143850 12796 L-143792 12621 L-143733 12446 L-143715 12271 L-143272 12096 L-142032 11921 L-140487 11746 L-137099 11570 L-131373 11483 L-131171 11395 L-129535 11308 L-127813 11220 L-126381 11133 L-126149 11045 L-125434 10957 L-119301 10870 L-118934 10695 L-118779 10520 L-118201 10345 L-117908 10169 L-116941 9994 L-116631 9819 L-116032 9644 L-114426 9644 L-113691 9644 L-113381 9732 L-112613 9732 L-110577 9556 L-110152 9381 L-109339 9294 L-101910 9119 L-101387 8943 L-101214 8768 L-100479 8593 L-98911 8418 L-98505 8330 L-96280 8155 L-95332 8068 L-94908 7980 L-94577 7980 L-93533 7893 L-91425 7718 L-91173 7542 L-90554 7367 L-89742 7280 L-87634 7105 L-87585 6929 L-85657 6754 L-85331 6579 L-85196 6404 L-84693 6316 L-83280 6141 L-82777 5791 L-82256 5528 L-78696 5178 L-77961 4828 L-75536 4828 L-74247 4653 L-73840 4565 L-70687 4565 L-70532 4565 L-70512 4653 L-70146 4653 L-68887 4740 L-68172 4828 L-67282 4828 L-66875 4828 L-65947 4828 L-64838 4740 L-64535 5091 L-58286 5266 L-57339 5441 L-55713 5616 L-55211 5704 L-51535 5791 L-50703 5879 L-46750 5966 L-45338 5704 L-42849 5528 L-42172 5353 L-42133 5266 L-41263 5266 L-38051 5178 L-35188 5091 L-34220 5003 L-33099 4828 L-33080 4653 L-31455 4478 L-30991 4215 L-30899 4127 L-24530 4040 L-23581 3952 L-21124 3865 L-20252 3690 L-19016 3602 L-17014 3514 L-16617 3339 L-15180 3164 L-13154 3077 L-12941 2901 L-11761 2814 L-10253 2726 L-10232 2639 L-8220 2551 L-7351 2376 L-6480 2288 L-5895 2113 L-5358 1938 L-4700 1763 L-3462 1588 L-2901 1500 L-1720 1413 L-483 1325 L-444 1238 L-57 1150 L483 975 L1257 887 L2379 800 L4469 625 L4802 450 L5088 274 L6016 187 L6500 12" />
</svg>
