<svg xmlns="http://www.w3.org/2000/svg" version="1.1" viewBox="0 0 6500 1000">
	<path fill="none" stroke="gold" stroke-width="125" stroke-linecap="round" stroke-linejoin="round" d="M0 11760  L-731158 11760 L-728554 11760 L-726886 11759 L-708557 11758 L-708386 11757 L-701229 11756 L-701196 11756 L-687765 11756 L-684843 11756 L-671502 11755 L-667333 11753 L-666173 11750 L-665554 11748 L-663542 11746 L-659770 11745 L-659170 11744 L-658841 11743 L-658628 11742 L-658087 11741 L-656849 11737 L-655670 11734 L-652805 11730 L-652283 11726 L-647427 11725 L-644490 11724 L-644447 11723 L-644139 11722 L-643887 11721 L-641292 11720 L-637037 11720 L-637019 11720 L-635782 11720 L-633904 11720 L-631951 11719 L-631003 11718 L-630732 11717 L-630422 11716 L-630324 11716 L-629494 11716 L-627463 11716 L-627173 11712 L-625026 11710 L-624871 11707 L-621214 11704 L-620963 11706 L-620865 11705 L-620348 11706 L-618197 11709 L-617268 11711 L-615742 11714 L-614502 11714 L-612956 11713 L-609994 11712 L-608872 11711 L-608563 11710 L-607352 11710 L-604345 11715 L-604325 11715 L-603978 11714 L-603765 11714 L-603639 11707 L-603397 11706 L-603359 11705 L-603339 11704 L-603320 11703 L-603261 11702 L-603203 11701 L-603185 11700 L-602742 11699 L-601502 11698 L-599956 11697 L-596569 11696 L-590842 11696 L-590641 11695 L-589005 11695 L-587283 11694 L-585851 11694 L-585619 11693 L-584903 11693 L-578771 11692 L-578403 11691 L-578249 11690 L-577671 11689 L-577378 11688 L-576411 11687 L-576101 11686 L-575502 11685 L-573896 11685 L-573161 11685 L-572851 11686 L-572083 11686 L-570047 11685 L-569621 11684 L-568809 11683 L-561380 11682 L-560857 11681 L-560684 11680 L-559949 11679 L-558381 11678 L-557975 11678 L-555750 11677 L-554802 11677 L-554377 11676 L-554047 11676 L-553003 11676 L-550895 11675 L-550643 11674 L-550024 11673 L-549211 11672 L-547103 11671 L-547055 11670 L-545127 11669 L-544801 11668 L-544666 11667 L-544163 11667 L-542750 11666 L-542247 11664 L-541725 11662 L-538166 11660 L-537431 11658 L-535006 11658 L-533716 11657 L-533310 11657 L-530157 11657 L-530002 11657 L-529982 11657 L-529615 11657 L-528357 11658 L-527642 11658 L-526752 11658 L-526345 11658 L-525417 11658 L-524308 11658 L-524005 11660 L-517756 11661 L-516809 11662 L-515182 11663 L-514681 11663 L-511005 11664 L-510173 11664 L-506220 11665 L-504808 11663 L-502318 11662 L-501642 11661 L-501603 11661 L-500732 11661 L-497521 11660 L-494658 11660 L-493690 11659 L-492569 11658 L-492550 11657 L-490925 11656 L-490460 11655 L-490369 11654 L-483999 11654 L-483051 11653 L-480594 11653 L-479721 11652 L-478485 11651 L-476484 11651 L-476087 11650 L-474650 11649 L-472624 11648 L-472411 11647 L-471231 11647 L-469722 11647 L-469702 11646 L-467690 11646 L-466820 11645 L-465950 11644 L-465365 11643 L-464828 11642 L-464170 11641 L-462932 11640 L-462371 11640 L-461190 11639 L-459952 11639 L-459914 11638 L-459527 11638 L-458985 11637 L-458212 11636 L-457089 11636 L-455000 11635 L-454667 11634 L-454381 11633 L-453452 11632 L-452969 11631 L-452234 11631 L-448603 11630 L-447475 11630 L-447320 11629 L-446294 11628 L-442580 11628 L-441362 11627 L-439544 11626 L-436758 11625 L-436197 11624 L-432309 11624 L-429832 11624 L-428497 11624 L-427994 11623 L-427511 11623 L-424821 11623 L-421050 11623 L-418593 11623 L-417413 11623 L-416774 11622 L-414414 11621 L-414337 11621 L-413289 11620 L-413195 11619 L-412693 11619 L-412247 11619 L-412190 11619 L-411976 11619 L-409016 11618 L-406309 11618 L-406154 11618 L-402633 11617 L-402110 11616 L-401143 11615 L-400794 11615 L-399750 11614 L-398822 11613 L-398396 11612 L-396887 11612 L-395920 11612 L-395901 11611 L-394005 11575 L-393889 11538 L-393841 11502 L-393817 11466 L-390813 11465 L-388782 11464 L-387021 11464 L-386654 11463 L-386208 11462 L-385841 11462 L-385428 11461 L-383443 11460 L-383229 11460 L-383074 11460 L-381469 11460 L-380347 11459 L-379399 11459 L-378142 11458 L-376497 11457 L-375318 11456 L-368728 11456 L-368682 11455 L-368276 11455 L-367231 11454 L-367095 11454 L-365413 11453 L-365393 11452 L-364056 11451 L-362820 11451 L-362666 11450 L-362292 11449 L-362085 11449 L-361776 11448 L-361002 11447 L-358681 11447 L-358023 11446 L-355895 11446 L-354173 11445 L-353979 11444 L-351426 11444 L-351149 11443 L-350961 11442 L-350129 11441 L-349356 11441 L-348658 11441 L-343658 11441 L-343282 11440 L-339029 11439 L-338542 11488 L-338523 11488 L-338444 11487 L-338368 11487 L-338348 11437 L-337536 11436 L-336782 11435 L-335563 11435 L-334131 11435 L-334035 11434 L-333860 11434 L-333506 11433 L-332196 11433 L-330339 11432 L-328637 11431 L-328134 11431 L-327869 11430 L-327476 11430 L-327341 11429 L-326432 11429 L-326055 11428 L-325127 11428 L-324788 11428 L-324748 11428 L-324710 11427 L-322795 11427 L-322621 11427 L-321092 11427 L-320764 11426 L-320648 11426 L-320241 11425 L-319893 11424 L-318249 11423 L-317698 11423 L-317455 11422 L-316914 11422 L-316082 11421 L-315541 11420 L-314006 11419 L-313914 11419 L-313877 11418 L-313741 11418 L-313354 11417 L-312329 11417 L-310453 11416 L-310356 11416 L-309756 11432 L-309389 11448 L-308904 11466 L-308866 11482 L-308092 11483 L-308035 11483 L-307860 11482 L-307667 11481 L-306062 11480 L-306042 11480 L-305886 11481 L-305771 11481 L-304591 11482 L-304437 11483 L-303770 11483 L-301322 11524 L-298807 11565 L-296137 11605 L-288438 11645 L-282770 11645 L-280555 11644 L-280532 11644 L-279558 11654 L-279538 11654 L-278675 11653 L-275934 11652 L-270136 11642 L-269982 11641 L-267197 11641 L-253588 11640 L-252842 11639 L-248432 11638 L-232085 11638 L-231853 11637 L-231316 11636 L-222857 11636 L-214151 11635 L-213939 11635 L-211966 11634 L-209180 11634 L-204693 11635 L-204538 11634 L-204369 11634 L-204228 11634 L-203938 11633 L-203899 11632 L-203628 11632 L-203457 11631 L-203046 11631 L-201926 11630 L-200746 11630 L-199469 11629 L-196605 11629 L-193685 11628 L-191693 11628 L-190145 11627 L-187107 11626 L-177783 11626 L-177259 11625 L-171535 11625 L-170028 11625 L-169213 11625 L-167530 11624 L-166809 11623 L-166640 11623 L-165595 11622 L-163528 11622 L-162166 11621 L-157722 11621 L-157625 11620 L-157586 11620 L-157568 11619 L-156735 11619 L-156657 11618 L-154085 11618 L-150836 11617 L-150681 11617 L-149732 11616 L-147991 11615 L-147276 11618 L-143735 11620 L-137158 11623 L-135741 11627 L-135720 11627 L-134769 11626 L-131295 11626 L-130542 11625 L-129980 11624 L-129198 11624 L-121694 11623 L-120095 11623 L-118521 11622 L-115336 11622 L-111003 11621 L-102433 11621 L-93687 11621 L-90613 11620 L-87347 11619 L-86801 11619 L-79663 11618 L-73996 11618 L-59931 11618 L-53920 11619 L-49214 11618 L-45210 11618 L-40103 11617 L-30389 11617 L-14818 11616 L-11736 11615 L-11433 11393 L-11414 11121 L-11395 10811 L-11375 10466 L-11356 10308 L-11336 10174 L-11318 10053 L-11290 9932 L-11269 9815 L-11241 9691 L-11206 9554 L-11192 9438 L-11179 9339 L-11161 9256 L-11142 9195 L-11122 9133 L-11104 9070 L-11084 9008 L-11065 8945 L-11044 8879 L-11027 8815 L-11008 8753 L-10987 8693 L-10967 8632 L-10949 8566 L-10930 8498 L-10911 8428 L-10890 8360 L-10872 8294 L-10853 8232 L-10832 8172 L-10807 8111 L-10793 8055 L-10775 7998 L-10756 7941 L-10736 7885 L-10717 7825 L-10698 7763 L-10678 7704 L-10658 7649 L-10640 7595 L-10621 7545 L-10600 7497 L-10580 7452 L-10563 7413 L-10544 7374 L-10524 7337 L-10505 7302 L-10485 7267 L-10466 7236 L-10446 7209 L-10427 7183 L-10408 7156 L-10389 7130 L-10362 7097 L-10341 7063 L-10313 7024 L-10279 6982 L-10265 6947 L-10252 6917 L-10233 6889 L-10214 6865 L-10194 6840 L-10176 6811 L-10156 6782 L-10136 6753 L-10116 6726 L-10098 6702 L-10079 6675 L-10059 6648 L-10039 6618 L-10021 6583 L-10002 6545 L-9982 6508 L-9962 6468 L-9944 6429 L-9925 6390 L-9904 6345 L-9879 6297 L-9865 6249 L-9847 6204 L-9828 6160 L-9808 6115 L-9789 6068 L-9770 6019 L-9750 5972 L-9730 5926 L-9711 5881 L-9693 5837 L-9672 5795 L-9652 5753 L-9634 5714 L-9615 5678 L-9595 5640 L-9576 5609 L-9557 5576 L-9538 5543 L-9518 5512 L-9499 5478 L-9479 5445 L-9460 5413 L-9432 5380 L-9412 5351 L-9384 5320 L-9347 5282 L-9332 5248 L-9319 5214 L-9302 5184 L-9285 5161 L-9265 5140 L-9247 5121 L-9228 5102 L-9208 5085 L-9187 5066 L-9170 5045 L-9151 5023 L-9130 5000 L-9111 4977 L-9092 4952 L-9074 4926 L-9054 4898 L-9034 4868 L-9015 4838 L-8996 4810 L-8975 4782 L-8951 4752 L-8936 4724 L-8919 4695 L-8899 4665 L-8880 4637 L-8860 4607 L-8841 4575 L-8821 4544 L-8801 4514 L-8783 4484 L-8764 4457 L-8744 4430 L-8723 4404 L-8706 4381 L-8687 4356 L-8667 4331 L-8648 4306 L-8628 4281 L-8609 4258 L-8589 4235 L-8570 4213 L-8551 4190 L-8532 4167 L-8504 4144 L-8483 4121 L-8456 4094 L-8419 4057 L-8405 4023 L-8392 3991 L-8375 3963 L-8357 3946 L-8337 3927 L-8318 3904 L-8298 3880 L-8279 3855 L-8257 3827 L-8239 3798 L-8222 3769 L-8202 3736 L-8181 3702 L-8163 3667 L-8144 3630 L-8125 3593 L-8104 3558 L-8086 3525 L-8067 3498 L-8046 3477 L-8021 3458 L-8007 3441 L-7989 3423 L-7970 3405 L-7950 3385 L-7931 3365 L-7912 3346 L-7893 3329 L-7872 3314 L-7854 3300 L-7835 3282 L-7815 3261 L-7794 3236 L-7777 3213 L-7758 3194 L-7738 3179 L-7719 3168 L-7700 3157 L-7681 3146 L-7661 3133 L-7641 3120 L-7622 3106 L-7603 3094 L-7576 3081 L-7555 3069 L-7527 3056 L-7492 3039 L-7479 3025 L-7465 3013 L-7447 3003 L-7428 2993 L-7408 2983 L-7390 2973 L-7370 2964 L-7350 2955 L-7329 2946 L-7312 2937 L-7294 2926 L-7273 2915 L-7253 2904 L-7235 2892 L-7216 2882 L-7196 2873 L-7176 2863 L-7158 2854 L-7139 2845 L-7118 2835 L-7093 2827 L-7078 2818 L-7061 2810 L-7042 2801 L-7022 2792 L-7003 2782 L-6984 2771 L-6964 2760 L-6943 2750 L-6926 2740 L-6907 2731 L-6886 2722 L-6866 2713 L-6848 2705 L-6829 2696 L-6809 2688 L-6791 2680 L-6771 2672 L-6752 2665 L-6732 2659 L-6713 2653 L-6694 2647 L-6675 2658 L-6646 2667 L-6626 2678 L-6598 2686 L-6561 2678 L-6546 2671 L-6533 2664 L-6516 2658 L-6499 2654 L-6479 2649 L-6461 2643 L-6441 2637 L-6422 2631 L-6400 2627 L-6384 2622 L-6365 2617 L-6345 2612 L-6324 2606 L-6306 2600 L-6288 2594 L-6268 2588 L-6248 2582 L-6229 2577 L-6210 2572 L-6189 2567 L-6164 2563 L-6150 2557 L-6133 2551 L-6113 2545 L-6094 2539 L-6074 2535 L-6055 2528 L-6036 2521 L-6015 2513 L-5997 2505 L-5978 2497 L-5958 2490 L-5937 2483 L-5920 2476 L-5901 2469 L-5881 2463 L-5862 2456 L-5842 2448 L-5824 2441 L-5804 2433 L-5784 2427 L-5765 2422 L-5746 2417 L-5719 2410 L-5698 2403 L-5670 2396 L-5635 2388 L-5622 2382 L-5608 2376 L-5589 2369 L-5571 2364 L-5551 2358 L-5533 2353 L-5513 2347 L-5493 2340 L-5472 2334 L-5455 2328 L-5437 2323 L-5416 2316 L-5396 2308 L-5378 2300 L-5359 2291 L-5339 2281 L-5319 2271 L-5301 2263 L-5282 2255 L-5261 2247 L-5236 2238 L-5221 2229 L-5204 2220 L-5185 2211 L-5165 2203 L-5146 2194 L-5127 2185 L-5107 2177 L-5086 2169 L-5069 2161 L-5049 2153 L-5029 2145 L-5008 2138 L-4991 2132 L-4972 2126 L-4952 2121 L-4933 2116 L-4914 2110 L-4895 2105 L-4875 2101 L-4855 2096 L-4836 2092 L-4817 2089 L-4790 2084 L-4769 2079 L-4741 2074 L-4706 2064 L-4692 2056 L-4679 2048 L-4660 2039 L-4642 2034 L-4622 2029 L-4604 2023 L-4584 2018 L-4565 2013 L-4544 2007 L-4527 2001 L-4508 1994 L-4487 1988 L-4467 1981 L-4449 1974 L-4430 1967 L-4411 1959 L-4390 1952 L-4372 1946 L-4353 1941 L-4332 1936 L-4307 1930 L-4292 1925 L-4275 1919 L-4256 1913 L-4236 1907 L-4217 1899 L-4198 1891 L-4178 1882 L-4157 1872 L-4140 1863 L-4121 1856 L-4100 1848 L-4080 1842 L-4063 1836 L-4044 1832 L-4024 1828 L-4005 1824 L-3985 1820 L-3966 1815 L-3946 1810 L-3927 1806 L-3908 1802 L-3889 1798 L-3862 1794 L-3841 1790 L-3813 1786 L-3779 1782 L-3765 1778 L-3751 1774 L-3733 1770 L-3714 1767 L-3694 1764 L-3676 1760 L-3656 1757 L-3636 1755 L-3616 1752 L-3598 1748 L-3579 1745 L-3559 1741 L-3539 1737 L-3521 1734 L-3502 1730 L-3482 1727 L-3462 1725 L-3444 1722 L-3425 1720 L-3404 1718 L-3379 1714 L-3364 1711 L-3347 1707 L-3328 1704 L-3308 1701 L-3289 1697 L-3270 1694 L-3250 1690 L-3229 1684 L-3212 1677 L-3193 1670 L-3172 1663 L-3152 1657 L-3134 1652 L-3115 1648 L-3095 1643 L-3076 1639 L-3057 1634 L-3038 1629 L-3018 1625 L-2999 1621 L-2979 1618 L-2960 1615 L-2932 1612 L-2884 1609 L-2847 1605 L-2832 1601 L-2820 1598 L-2803 1595 L-2785 1593 L-2766 1592 L-2747 1590 L-2728 1587 L-2708 1584 L-2687 1581 L-2670 1579 L-2651 1577 L-2631 1575 L-2611 1572 L-2592 1569 L-2574 1566 L-2553 1563 L-2534 1560 L-2515 1557 L-2496 1552 L-2475 1548 L-2451 1542 L-2436 1536 L-2419 1531 L-2399 1526 L-2380 1521 L-2360 1516 L-2341 1512 L-2321 1507 L-2301 1503 L-2283 1498 L-2264 1493 L-2244 1489 L-2223 1485 L-2206 1482 L-2187 1478 L-2167 1475 L-2148 1472 L-2128 1469 L-2109 1465 L-2089 1461 L-2070 1457 L-2050 1454 L-2032 1450 L-2004 1446 L-1983 1443 L-1955 1437 L-1919 1430 L-1904 1422 L-1891 1415 L-1874 1409 L-1857 1405 L-1836 1401 L-1818 1398 L-1798 1396 L-1779 1393 L-1757 1390 L-1741 1386 L-1722 1382 L-1702 1377 L-1681 1372 L-1663 1366 L-1644 1358 L-1625 1351 L-1604 1345 L-1586 1339 L-1567 1333 L-1546 1328 L-1521 1323 L-1506 1318 L-1488 1314 L-1470 1309 L-1450 1305 L-1431 1301 L-1412 1295 L-1392 1289 L-1371 1284 L-1354 1279 L-1335 1275 L-1315 1270 L-1294 1266 L-1277 1262 L-1258 1258 L-1238 1254 L-1219 1251 L-1200 1247 L-1181 1243 L-1161 1239 L-1141 1236 L-1122 1233 L-1103 1229 L-1075 3837 L-1055 3833 L-1027 3829 L-991 3823 L-977 1206 L-964 1201 L-946 1197 L-928 1194 L-908 1192 L-890 1189 L-870 1186 L-850 1182 L-829 1177 L-812 1171 L-794 1166 L-773 1160 L-753 1154 L-735 1147 L-716 1140 L-696 1133 L-675 1128 L-658 1123 L-639 1119 L-617 1115 L-593 1109 L-577 1103 L-548 1096 L-508 1088 L-485 1080 L-456 1071 L-439 1063 L-426 1058 L-406 1053 L-386 1049 L-365 1046 L-348 1042 L-329 1038 L-309 1034 L-290 1032 L-271 1030 L-252 1028 L-232 1025 L-212 1022 L-193 1018 L-175 1015 L-147 1012 L-126 1008 L-98 1005 L-63 1001 L-50 996 L-18 992 L0 989 L20 986 L38 984 L58 981 L77 979 L98 976 L115 973 L134 967 L155 958 L175 946 L193 933 L212 922 L231 912 L252 904 L270 897 L289 891 L310 887 L335 883 L350 878 L367 873 L386 867 L406 863 L425 858 L444 854 L464 848 L485 843 L502 837 L521 832 L541 828 L562 824 L579 822 L598 819 L618 815 L637 812 L657 808 L676 804 L695 800 L715 797 L734 794 L753 791 L781 788 L801 785 L871 778 L899 769 L914 762 L928 754 L948 749 L966 745 L986 741 L1006 736 L1027 732 L1044 729 L1062 726 L1083 724 L1103 721 L1121 717 L1140 713 L1160 708 L1181 703 L1198 698 L1217 694 L1239 691 L1264 688 L1279 684 L1296 681 L1315 676 L1335 671 L1353 666 L1373 661 L1392 658 L1414 655 L1430 651 L1450 648 L1470 645 L1491 642 L1508 638 L1566 634 L1585 631 L1604 628 L1624 625 L1644 622 L1663 619 L1681 618 L1709 615 L1730 613 L1758 611 L1794 608 L1809 605 L1821 603 L1839 601 L1857 599 L1877 597 L1895 596 L1915 594 L1934 593 L1956 592 L1972 590 L1991 589 L2012 587 L2032 585 L2050 583 L2069 580 L2089 577 L2109 574 L2127 571 L2146 569 L2167 566 L2192 564 L2207 562 L2224 560 L2243 558 L2263 555 L2282 553 L2301 549 L2321 545 L2342 541 L2359 537 L2378 535 L2399 533 L2420 532 L2436 530 L2455 528 L2476 526 L2495 525 L2514 524 L2533 522 L2553 521 L2573 520 L2591 518 L2610 517 L2638 515 L2658 513 L2686 511 L2721 509 L2735 507 L2749 505 L2767 503 L2785 501 L2805 500 L2823 498 L2863 496 L2883 495 L2901 493 L2920 491 L2940 488 L2960 485 L2978 482 L2997 479 L3017 477 L3037 475 L3055 472 L3074 470 L3095 469 L3120 467 L3135 465 L3152 464 L3171 462 L3191 459 L3210 457 L3229 454 L3249 452 L3270 450 L3288 448 L3306 446 L3327 443 L3347 441 L3365 440 L3384 438 L3404 436 L3423 435 L3442 433 L3461 431 L3481 430 L3501 428 L3520 426 L3539 425 L3567 423 L3615 421 L3652 419 L3668 417 L3680 415 L3697 414 L3714 412 L3734 411 L3752 410 L3771 409 L3791 408 L3812 407 L3829 407 L3848 406 L3869 406 L3888 405 L3907 404 L3926 402 L3945 401 L3965 400 L3984 398 L4003 396 L4024 394 L4048 392 L4063 389 L4080 387 L4100 384 L4119 380 L4139 376 L4158 371 L4178 367 L4198 362 L4216 359 L4235 355 L4255 352 L4276 348 L4293 344 L4312 340 L4332 336 L4351 333 L4371 330 L4390 327 L4410 324 L4429 320 L4448 316 L4467 311 L4496 307 L4516 304 L4544 301 L4581 298 L4595 295 L4608 293 L4626 290 L4643 288 L4663 285 L4681 283 L4701 281 L4720 279 L4742 276 L4758 273 L4777 270 L4798 266 L4818 263 L4836 260 L4855 257 L4874 255 L4895 252 L4913 249 L4932 246 L4953 242 L4978 239 L4993 235 L5010 231 L5029 227 L5049 224 L5068 220 L5087 216 L5107 212 L5128 208 L5145 203 L5164 199 L5185 195 L5206 192 L5222 189 L5241 187 L5261 185 L5280 183 L5300 180 L5318 177 L5338 175 L5357 172 L5377 169 L5396 166 L5444 163 L5472 160 L5505 155 L5519 152 L5532 148 L5551 145 L5571 143 L5590 140 L5609 137 L5628 134 L5649 131 L5669 129 L5687 126 L5705 124 L5726 122 L5746 119 L5764 117 L5783 113 L5803 109 L5823 106 L5841 103 L5860 99 L5881 96 L5906 93 L5921 90 L5938 86 L5957 82 L5977 77 L5996 73 L6015 69 L6035 65 L6056 62 L6073 59 L6093 56 L6113 53 L6133 50 L6151 48 L6170 45 L6190 43 L6208 41 L6228 39 L6247 37 L6267 34 L6286 31 L6305 28 L6324 26 L6352 23 L6373 20 L6400 18 L6434 14 L6448 12 L6461 9 L6480 7 L6500 5" />
</svg>
