<svg xmlns="http://www.w3.org/2000/svg" version="1.1" viewBox="0 0 6500 1000">
	<path fill="none" stroke="gold" stroke-width="125" stroke-linecap="round" stroke-linejoin="round" d="M0 3934  L-723905 3934 L-721301 3934 L-719633 3934 L-701303 3934 L-701133 3933 L-693975 3933 L-693942 3933 L-680511 3933 L-677589 3933 L-664249 3932 L-660080 3932 L-658920 3931 L-658300 3930 L-656289 3929 L-652517 3929 L-651917 3929 L-651588 3928 L-651375 3928 L-650833 3927 L-649595 3926 L-648416 3925 L-645552 3923 L-645030 3922 L-640174 3921 L-637237 3921 L-637194 3921 L-636886 3920 L-636634 3920 L-634039 3919 L-629783 3919 L-629765 3919 L-628529 3919 L-626651 3919 L-624698 3919 L-623750 3919 L-623479 3918 L-623169 3918 L-623071 3918 L-622241 3918 L-620210 3918 L-619919 3917 L-617773 3916 L-617618 3915 L-613961 3914 L-613710 3914 L-613612 3914 L-613094 3915 L-610943 3915 L-610014 3916 L-608488 3917 L-607249 3917 L-605702 3917 L-602741 3917 L-601619 3916 L-601310 3916 L-600098 3916 L-597092 3918 L-597072 3918 L-596725 3917 L-596512 3917 L-596385 3915 L-596144 3914 L-596106 3914 L-596086 3914 L-596067 3913 L-596008 3913 L-595949 3913 L-595931 3912 L-595488 3912 L-594249 3911 L-592703 3911 L-589315 3911 L-583589 3911 L-583388 3910 L-581752 3910 L-580030 3910 L-578598 3910 L-578365 3910 L-577650 3909 L-571518 3909 L-571150 3909 L-570996 3909 L-570417 3908 L-570125 3908 L-569157 3907 L-568848 3907 L-568249 3907 L-566643 3907 L-565908 3907 L-565598 3907 L-564829 3907 L-562793 3907 L-562368 3906 L-561555 3906 L-554127 3906 L-553604 3905 L-553430 3905 L-552695 3905 L-551128 3904 L-550722 3904 L-548497 3904 L-547549 3903 L-547124 3903 L-546794 3903 L-545750 3903 L-543642 3903 L-543390 3902 L-542771 3902 L-541958 3902 L-539850 3901 L-539802 3901 L-537873 3901 L-537548 3900 L-537413 3900 L-536910 3900 L-535497 3899 L-534994 3899 L-534472 3898 L-530912 3897 L-530177 3897 L-527753 3897 L-526463 3896 L-526056 3896 L-522904 3896 L-522749 3896 L-522729 3896 L-522362 3896 L-521104 3896 L-520389 3897 L-519499 3897 L-519092 3897 L-518163 3897 L-517055 3896 L-516751 3897 L-510503 3898 L-509555 3898 L-507929 3898 L-507427 3899 L-503752 3899 L-502919 3899 L-498966 3899 L-497554 3899 L-495065 3898 L-494389 3898 L-494350 3898 L-493479 3898 L-490268 3897 L-487405 3897 L-486437 3897 L-485315 3897 L-485296 3896 L-483671 3896 L-483207 3895 L-483115 3895 L-476746 3895 L-475798 3895 L-473340 3895 L-472468 3894 L-471232 3894 L-469231 3894 L-468833 3894 L-467397 3893 L-465371 3893 L-465158 3893 L-463977 3892 L-462469 3892 L-462449 3892 L-460437 3892 L-459567 3892 L-458696 3891 L-458111 3891 L-457574 3891 L-456917 3890 L-455678 3890 L-455118 3890 L-453937 3890 L-452699 3889 L-452661 3889 L-452274 3889 L-451732 3889 L-450958 3888 L-449836 3888 L-447747 3888 L-447414 3888 L-447128 3887 L-446199 3887 L-445716 3887 L-444981 3886 L-441349 3886 L-440222 3886 L-440067 3886 L-439041 3886 L-435326 3885 L-434109 3885 L-432290 3885 L-429505 3884 L-428943 3884 L-425055 3884 L-422579 3884 L-421244 3884 L-420741 3884 L-420257 3884 L-417568 3884 L-413796 3884 L-411339 3884 L-410159 3884 L-409520 3883 L-407161 3883 L-407083 3883 L-406036 3883 L-405942 3882 L-405439 3882 L-404994 3882 L-404936 3882 L-404723 3882 L-401763 3882 L-399055 3882 L-398901 3882 L-395380 3881 L-394857 3881 L-393890 3881 L-393540 3880 L-392497 3880 L-391568 3880 L-391143 3880 L-389634 3880 L-388667 3879 L-388648 3879 L-386752 3866 L-386636 3852 L-386588 3839 L-386563 3825 L-383559 3825 L-381529 3825 L-379768 3824 L-379401 3824 L-378955 3824 L-378588 3824 L-378174 3823 L-376189 3823 L-375976 3823 L-375821 3823 L-374216 3823 L-373094 3823 L-372146 3823 L-370889 3822 L-369244 3822 L-368064 3822 L-361475 3822 L-361428 3821 L-361023 3821 L-359977 3821 L-359842 3821 L-358159 3820 L-358140 3820 L-356803 3820 L-355567 3820 L-355412 3820 L-355038 3819 L-354832 3819 L-354523 3819 L-353749 3818 L-351427 3818 L-350770 3818 L-348642 3818 L-346919 3818 L-346726 3817 L-344173 3817 L-343896 3817 L-343708 3816 L-342875 3816 L-342103 3816 L-341405 3816 L-336404 3816 L-336028 3816 L-331776 3815 L-331289 3833 L-331269 3833 L-331190 3833 L-331115 3833 L-331095 3814 L-330282 3814 L-329529 3814 L-328309 3814 L-326878 3814 L-326781 3814 L-326607 3814 L-326252 3813 L-324943 3813 L-323086 3813 L-321384 3812 L-320881 3812 L-320615 3812 L-320222 3812 L-320088 3812 L-319178 3812 L-318802 3811 L-317873 3811 L-317534 3811 L-317495 3811 L-317457 3811 L-315541 3811 L-315368 3811 L-313839 3811 L-313511 3811 L-313395 3810 L-312988 3810 L-312640 3810 L-310996 3810 L-310445 3809 L-310202 3809 L-309660 3809 L-308829 3809 L-308287 3808 L-306753 3808 L-306661 3808 L-306624 3808 L-306488 3808 L-306101 3807 L-305076 3807 L-303199 3807 L-303103 3807 L-302503 3813 L-302136 3819 L-301651 3825 L-301613 3831 L-300839 3832 L-300782 3832 L-300607 3831 L-300414 3831 L-298808 3831 L-298788 3830 L-298633 3831 L-298518 3831 L-297338 3831 L-297183 3832 L-296516 3832 L-294068 3847 L-291553 3862 L-288884 3877 L-281184 3892 L-275517 3892 L-273302 3891 L-273279 3891 L-272305 3895 L-272285 3895 L-271421 3895 L-268681 3894 L-262883 3891 L-262729 3890 L-259943 3890 L-246335 3890 L-245589 3890 L-241178 3889 L-224832 3889 L-224600 3889 L-224063 3888 L-215603 3888 L-206898 3888 L-206686 3888 L-204713 3888 L-201927 3888 L-197439 3888 L-197284 3888 L-197115 3888 L-196975 3888 L-196684 3887 L-196646 3887 L-196375 3887 L-196203 3887 L-195793 3886 L-194673 3886 L-193492 3886 L-192215 3886 L-189352 3886 L-186431 3886 L-184439 3885 L-182892 3885 L-179854 3885 L-170529 3885 L-170005 3884 L-164281 3884 L-162774 3884 L-161960 3884 L-160276 3884 L-159555 3884 L-159387 3884 L-158342 3883 L-156274 3883 L-154912 3883 L-150469 3883 L-150372 3883 L-150333 3882 L-150314 3882 L-149482 3882 L-149404 3882 L-146831 3882 L-143582 3881 L-143427 3881 L-142479 3881 L-140738 3881 L-140023 3882 L-136482 3883 L-129904 3884 L-128487 3885 L-128466 3885 L-127516 3885 L-124042 3885 L-123288 3884 L-122727 3884 L-121945 3884 L-114440 3884 L-112842 3884 L-111268 3883 L-108083 3883 L-103750 3883 L-95180 3883 L-86434 3883 L-83360 3883 L-80094 3882 L-79547 3882 L-72410 3882 L-66742 3882 L-52678 3882 L-46667 3882 L-41960 3882 L-37957 3882 L-32850 3881 L-23136 3881 L-7565 3881 L-4482 3880 L-4180 3798 L-4160 3697 L-4142 3583 L-4122 3454 L-4102 3396 L-4083 3346 L-4064 3301 L-4037 3256 L-4016 3213 L-3988 3167 L-3953 3116 L-3939 3074 L-3926 3037 L-3907 3006 L-3889 2983 L-3869 2960 L-3851 2937 L-3831 2914 L-3811 2890 L-3790 2866 L-3773 2842 L-3755 2819 L-3734 2797 L-3714 2774 L-3696 2750 L-3677 2725 L-3657 2699 L-3637 2674 L-3619 2649 L-3600 2626 L-3579 2604 L-3554 2581 L-3539 2560 L-3522 2540 L-3503 2518 L-3483 2498 L-3464 2475 L-3445 2452 L-3425 2430 L-3404 2410 L-3387 2390 L-3368 2371 L-3347 2354 L-3327 2337 L-3309 2322 L-3290 2308 L-3270 2294 L-3252 2281 L-3232 2268 L-3213 2257 L-3193 2247 L-3174 2237 L-3154 2227 L-3136 2218 L-3108 2205 L-3087 2193 L-3060 2178 L-3026 2163 L-3011 2150 L-2998 2138 L-2980 2128 L-2961 2119 L-2941 2110 L-2922 2099 L-2903 2088 L-2883 2078 L-2862 2068 L-2845 2059 L-2826 2049 L-2806 2039 L-2786 2028 L-2767 2015 L-2749 2001 L-2729 1987 L-2709 1972 L-2690 1958 L-2671 1943 L-2650 1926 L-2626 1909 L-2611 1891 L-2594 1874 L-2574 1858 L-2555 1841 L-2535 1824 L-2517 1805 L-2497 1788 L-2476 1771 L-2458 1754 L-2439 1738 L-2419 1723 L-2399 1707 L-2381 1692 L-2362 1679 L-2342 1665 L-2323 1654 L-2303 1641 L-2285 1629 L-2265 1617 L-2245 1605 L-2226 1593 L-2207 1581 L-2178 1569 L-2159 1558 L-2131 1546 L-2094 1532 L-2079 1519 L-2066 1507 L-2049 1496 L-2032 1487 L-2012 1480 L-1994 1472 L-1974 1466 L-1954 1459 L-1934 1452 L-1916 1444 L-1898 1436 L-1877 1428 L-1857 1419 L-1839 1410 L-1820 1400 L-1800 1390 L-1781 1379 L-1762 1368 L-1743 1357 L-1722 1347 L-1697 1336 L-1683 1325 L-1666 1315 L-1646 1304 L-1627 1293 L-1607 1282 L-1588 1270 L-1568 1259 L-1548 1247 L-1529 1236 L-1511 1226 L-1490 1216 L-1470 1207 L-1452 1198 L-1433 1189 L-1413 1180 L-1395 1170 L-1375 1161 L-1356 1153 L-1336 1144 L-1317 1136 L-1297 1127 L-1278 1119 L-1250 1110 L-1230 1102 L-1202 1092 L-1166 1078 L-1152 1065 L-1139 1054 L-1121 1043 L-1103 1037 L-1083 1030 L-1065 1021 L-1045 1012 L-1025 1003 L-1004 993 L-986 982 L-969 971 L-948 959 L-928 946 L-910 933 L-891 920 L-871 906 L-851 893 L-833 881 L-814 871 L-793 863 L-768 856 L-753 850 L-736 843 L-717 836 L-697 829 L-678 822 L-659 814 L-639 808 L-618 802 L-601 797 L-582 791 L-561 783 L-541 774 L-524 765 L-505 758 L-484 752 L-466 748 L-446 744 L-427 740 L-407 735 L-388 730 L-369 725 L-350 721 L-322 716 L-302 712 L-274 707 L-239 700 L-225 695 L-212 691 L-193 687 L-175 684 L-155 680 L-136 676 L-117 673 L-97 669 L-76 666 L-59 663 L-40 659 L-20 655 L0 650 L17 646 L36 642 L56 639 L76 635 L95 632 L113 628 L135 625 L160 622 L174 618 L191 616 L211 612 L230 609 L249 605 L268 601 L288 597 L309 593 L327 590 L346 586 L366 583 L387 580 L404 577 L423 573 L443 570 L462 567 L482 564 L500 562 L520 560 L540 557 L559 555 L578 559 L606 563 L626 566 L654 570 L691 566 L707 564 L719 561 L737 559 L753 558 L773 556 L791 554 L811 551 L831 549 L852 548 L869 546 L887 544 L908 542 L928 540 L946 538 L965 535 L985 533 L1005 531 L1023 529 L1042 527 L1063 526 L1088 524 L1102 522 L1120 520 L1139 517 L1159 515 L1178 513 L1197 511 L1217 508 L1238 505 L1255 502 L1274 500 L1295 497 L1315 494 L1333 492 L1352 489 L1371 487 L1390 484 L1410 482 L1429 479 L1449 476 L1468 473 L1488 472 L1506 470 L1534 467 L1555 465 L1582 462 L1617 459 L1631 457 L1644 455 L1663 452 L1682 450 L1702 448 L1720 446 L1739 444 L1759 441 L1780 439 L1797 437 L1816 435 L1836 432 L1856 430 L1875 426 L1893 423 L1913 419 L1934 416 L1952 413 L1970 410 L1992 407 L2017 403 L2031 400 L2049 397 L2068 394 L2088 391 L2107 387 L2126 384 L2146 381 L2166 378 L2184 375 L2203 372 L2223 369 L2244 366 L2261 364 L2280 362 L2300 360 L2319 358 L2339 356 L2357 354 L2377 353 L2397 351 L2416 349 L2435 348 L2462 346 L2483 344 L2511 343 L2546 339 L2560 336 L2573 333 L2592 330 L2610 328 L2630 326 L2648 324 L2668 322 L2688 320 L2709 318 L2726 316 L2744 313 L2765 311 L2785 308 L2803 305 L2822 303 L2842 300 L2862 298 L2880 295 L2899 293 L2920 291 L2945 289 L2960 287 L2977 285 L2996 283 L3016 281 L3035 278 L3054 275 L3074 271 L3095 268 L3112 265 L3131 262 L3152 259 L3173 257 L3190 255 L3209 253 L3229 251 L3248 250 L3267 248 L3286 247 L3306 245 L3325 243 L3345 242 L3363 240 L3391 239 L3412 237 L3439 236 L3474 234 L3488 233 L3501 231 L3520 230 L3538 229 L3558 228 L3577 226 L3596 225 L3616 224 L3637 223 L3654 222 L3673 221 L3693 219 L3713 218 L3731 216 L3750 215 L3770 214 L3790 213 L3809 212 L3828 211 L3849 211 L3873 209 L3888 208 L3905 207 L3925 205 L3944 204 L3964 203 L3982 202 L4002 200 L4023 198 L4041 195 L4060 193 L4080 190 L4101 188 L4118 186 L4137 185 L4157 183 L4176 181 L4196 179 L4214 178 L4234 176 L4254 175 L4273 174 L4292 172 L4321 171 L4368 170 L4405 169 L4420 167 L4433 166 L4450 165 L4467 164 L4487 164 L4505 163 L4525 162 L4545 161 L4565 160 L4583 159 L4601 158 L4622 158 L4641 157 L4660 156 L4679 154 L4699 153 L4719 152 L4737 151 L4756 149 L4777 148 L4802 145 L4816 143 L4834 141 L4853 139 L4872 138 L4892 136 L4911 134 L4931 133 L4952 131 L4970 129 L4988 127 L5009 126 L5029 124 L5047 123 L5066 122 L5086 121 L5105 119 L5124 118 L5143 117 L5163 115 L5182 114 L5202 113 L5221 111 L5249 110 L5269 108 L5297 106 L5334 104 L5348 101 L5361 98 L5378 96 L5396 95 L5416 93 L5434 92 L5454 91 L5474 90 L5495 89 L5512 88 L5530 86 L5551 84 L5571 82 L5589 80 L5608 77 L5628 75 L5648 72 L5666 70 L5685 68 L5706 66 L5731 64 L5746 62 L5764 61 L5782 59 L5802 58 L5821 56 L5840 54 L5860 52 L5881 50 L5898 48 L5917 46 L5938 45 L5959 43 L5975 42 L5994 40 L6014 39 L6033 37 L6053 36 L6072 34 L6092 33 L6112 32 L6130 31 L6149 29 L6177 997 L6197 995 L6225 993 L6261 991 L6275 21 L6289 19 L6306 17 L6324 16 L6344 16 L6363 15 L6382 14 L6402 12 L6423 10 L6440 8 L6459 6 L6479 4 L6500 1" />
</svg>
