<svg xmlns="http://www.w3.org/2000/svg" version="1.1" viewBox="0 0 6500 1000">
	<path fill="none" stroke="gold" stroke-width="125" stroke-linecap="round" stroke-linejoin="round" d="M0 1901  L-720845 1901 L-718241 1901 L-716573 1901 L-698243 1901 L-698073 1900 L-690915 1900 L-690882 1900 L-677451 1900 L-674529 1900 L-661188 1900 L-657019 1900 L-655859 1899 L-655240 1899 L-653228 1898 L-649457 1898 L-648856 1898 L-648528 1898 L-648315 1898 L-647773 1897 L-646535 1897 L-645356 1896 L-642492 1895 L-641970 1894 L-637114 1894 L-634177 1894 L-634134 1894 L-633825 1894 L-633574 1893 L-630979 1893 L-626723 1893 L-626705 1893 L-625468 1893 L-623591 1893 L-621638 1893 L-620690 1893 L-620419 1893 L-620109 1893 L-620011 1892 L-619180 1892 L-617150 1893 L-616859 1892 L-614713 1891 L-614557 1891 L-610901 1890 L-610650 1891 L-610551 1890 L-610034 1891 L-607883 1891 L-606954 1892 L-605428 1892 L-604189 1892 L-602642 1892 L-599680 1892 L-598559 1892 L-598249 1891 L-597038 1891 L-594031 1892 L-594012 1892 L-593665 1892 L-593451 1892 L-593325 1891 L-593084 1891 L-593046 1890 L-593026 1890 L-593007 1890 L-592948 1890 L-592889 1890 L-592871 1889 L-592428 1889 L-591189 1889 L-589643 1889 L-586255 1889 L-580529 1889 L-580327 1889 L-578692 1888 L-576970 1888 L-575538 1888 L-575305 1888 L-574590 1888 L-568458 1888 L-568090 1888 L-567936 1888 L-567357 1887 L-567065 1887 L-566097 1887 L-565788 1887 L-565189 1887 L-563582 1887 L-562847 1887 L-562537 1887 L-561769 1887 L-559733 1887 L-559308 1886 L-558495 1886 L-551067 1886 L-550544 1886 L-550370 1886 L-549635 1886 L-548067 1885 L-547662 1885 L-545437 1885 L-544489 1885 L-544064 1885 L-543733 1885 L-542690 1885 L-540582 1885 L-540329 1884 L-539711 1884 L-538898 1884 L-536790 1884 L-536741 1884 L-534813 1884 L-534488 1883 L-534352 1883 L-533849 1883 L-532437 1883 L-531934 1883 L-531412 1882 L-527852 1882 L-527117 1882 L-524692 1882 L-523403 1881 L-522996 1881 L-519844 1881 L-519689 1881 L-519668 1881 L-519302 1881 L-518044 1881 L-517329 1882 L-516439 1882 L-516032 1882 L-515103 1882 L-513995 1881 L-513691 1882 L-507442 1882 L-506495 1882 L-504869 1882 L-504367 1882 L-500691 1883 L-499859 1883 L-495906 1883 L-494494 1882 L-492005 1882 L-491328 1882 L-491290 1882 L-490419 1882 L-487208 1882 L-484345 1882 L-483377 1882 L-482255 1882 L-482236 1881 L-480611 1881 L-480147 1881 L-480055 1881 L-473686 1881 L-472737 1881 L-470280 1880 L-469408 1880 L-468172 1880 L-466171 1880 L-465773 1880 L-464337 1880 L-462311 1880 L-462097 1879 L-460917 1879 L-459409 1879 L-459389 1879 L-457376 1879 L-456507 1879 L-455636 1879 L-455051 1879 L-454514 1878 L-453856 1878 L-452618 1878 L-452058 1878 L-450877 1878 L-449639 1878 L-449600 1878 L-449214 1878 L-448672 1877 L-447898 1877 L-446776 1877 L-444687 1877 L-444353 1877 L-444068 1877 L-443139 1877 L-442656 1876 L-441920 1876 L-438289 1876 L-437162 1876 L-437007 1876 L-435981 1876 L-432266 1876 L-431049 1876 L-429230 1875 L-426445 1875 L-425883 1875 L-421995 1875 L-419519 1875 L-418184 1875 L-417680 1875 L-417197 1875 L-414508 1875 L-410736 1875 L-408279 1875 L-407099 1875 L-406460 1875 L-404100 1874 L-404023 1874 L-402976 1874 L-402882 1874 L-402379 1874 L-401934 1874 L-401876 1874 L-401662 1874 L-398703 1874 L-395995 1874 L-395840 1874 L-392320 1874 L-391797 1873 L-390829 1873 L-390480 1873 L-389437 1873 L-388508 1873 L-388082 1873 L-386573 1873 L-385606 1873 L-385588 1873 L-383692 1866 L-383576 1859 L-383528 1852 L-383503 1845 L-380499 1845 L-378468 1845 L-376708 1844 L-376340 1844 L-375895 1844 L-375528 1844 L-375114 1844 L-373129 1844 L-372916 1844 L-372761 1844 L-371156 1844 L-370034 1844 L-369086 1843 L-367828 1843 L-366184 1843 L-365004 1843 L-358415 1843 L-358368 1843 L-357962 1843 L-356917 1843 L-356782 1843 L-355099 1842 L-355079 1842 L-353743 1842 L-352506 1842 L-352352 1842 L-351978 1842 L-351772 1842 L-351462 1842 L-350689 1841 L-348367 1841 L-347709 1841 L-345582 1841 L-343859 1841 L-343666 1841 L-341112 1841 L-340836 1840 L-340648 1840 L-339815 1840 L-339043 1840 L-338345 1840 L-333344 1840 L-332968 1840 L-328715 1840 L-328228 1849 L-328209 1849 L-328130 1849 L-328055 1849 L-328035 1839 L-327222 1839 L-326468 1839 L-325249 1839 L-323817 1839 L-323721 1839 L-323547 1839 L-323192 1839 L-321883 1839 L-320026 1838 L-318323 1838 L-317821 1838 L-317555 1838 L-317162 1838 L-317028 1838 L-316118 1838 L-315742 1838 L-314813 1838 L-314474 1838 L-314435 1838 L-314397 1837 L-312481 1837 L-312308 1837 L-310779 1837 L-310451 1837 L-310335 1837 L-309927 1837 L-309579 1837 L-307936 1837 L-307385 1837 L-307142 1837 L-306600 1836 L-305769 1836 L-305227 1836 L-303693 1836 L-303600 1836 L-303564 1836 L-303428 1836 L-303040 1836 L-302016 1836 L-300139 1835 L-300043 1835 L-299443 1838 L-299075 1842 L-298591 1845 L-298553 1848 L-297779 1848 L-297722 1848 L-297547 1848 L-297353 1848 L-295748 1848 L-295728 1848 L-295573 1848 L-295458 1848 L-294278 1848 L-294123 1848 L-293456 1848 L-291008 1856 L-288493 1864 L-285823 1871 L-278124 1879 L-272456 1879 L-270242 1879 L-270219 1879 L-269245 1881 L-269225 1881 L-268361 1880 L-265621 1880 L-259822 1878 L-259669 1878 L-256883 1878 L-243275 1878 L-242529 1878 L-238118 1878 L-221772 1878 L-221540 1877 L-221003 1877 L-212543 1877 L-203838 1877 L-203625 1877 L-201653 1877 L-198867 1877 L-194379 1877 L-194224 1877 L-194055 1877 L-193915 1877 L-193624 1877 L-193585 1877 L-193315 1876 L-193143 1876 L-192733 1876 L-191612 1876 L-190432 1876 L-189155 1876 L-186291 1876 L-183371 1876 L-181379 1876 L-179831 1876 L-176794 1875 L-167469 1875 L-166945 1875 L-161221 1875 L-159714 1875 L-158900 1875 L-157216 1875 L-156495 1875 L-156327 1875 L-155281 1875 L-153214 1875 L-151852 1874 L-147409 1874 L-147312 1874 L-147273 1874 L-147254 1874 L-146422 1874 L-146344 1874 L-143771 1874 L-140522 1874 L-140367 1874 L-139419 1873 L-137678 1873 L-136962 1874 L-133422 1874 L-126844 1875 L-125427 1876 L-125406 1876 L-124456 1875 L-120981 1875 L-120228 1875 L-119666 1875 L-118884 1875 L-111380 1875 L-109782 1875 L-108208 1875 L-105023 1875 L-100689 1874 L-92120 1874 L-83373 1874 L-80300 1874 L-77034 1874 L-76487 1874 L-69350 1874 L-63682 1874 L-49618 1874 L-43606 1874 L-38900 1874 L-34897 1874 L-29789 1874 L-20075 1874 L-4505 1873 L-1422 1873 L-1120 1831 L-1100 1779 L-1081 1720 L-1062 1654 L-1042 1624 L-1023 1599 L-1004 1576 L-976 1553 L-956 1530 L-928 1507 L-892 1481 L-879 1459 L-866 1440 L-847 1424 L-829 1412 L-809 1400 L-791 1388 L-771 1376 L-751 1365 L-730 1352 L-713 1340 L-695 1328 L-674 1316 L-654 1305 L-636 1292 L-617 1279 L-597 1266 L-577 1253 L-559 1241 L-540 1229 L-518 1217 L-494 1206 L-479 1195 L-462 1184 L-442 1173 L-423 1163 L-404 1151 L-385 1139 L-365 1128 L-344 1118 L-326 1107 L-308 1098 L-287 1089 L-266 1080 L-249 1073 L-230 1065 L-210 1058 L-191 1051 L-172 1045 L-153 1039 L-133 1034 L-113 1029 L-94 1024 L-76 1019 L-48 1012 L-27 1006 L0 999 L34 991 L48 984 L61 978 L80 973 L99 968 L118 963 L137 958 L156 952 L176 947 L197 942 L214 937 L233 932 L253 927 L273 921 L292 914 L310 907 L330 900 L350 893 L369 885 L388 878 L409 869 L433 860 L448 851 L465 842 L485 834 L504 825 L524 816 L542 807 L563 798 L583 789 L601 781 L620 772 L640 764 L661 756 L678 749 L697 742 L717 735 L736 729 L756 723 L775 716 L795 710 L814 704 L833 698 L852 692 L881 685 L901 680 L928 674 L966 667 L981 660 L993 654 L1010 648 L1027 644 L1047 640 L1066 636 L1085 632 L1105 629 L1125 625 L1143 621 L1162 617 L1182 613 L1202 609 L1220 604 L1239 599 L1259 593 L1279 588 L1298 582 L1316 577 L1337 571 L1362 566 L1376 560 L1394 555 L1414 549 L1433 544 L1452 538 L1471 532 L1491 526 L1511 520 L1530 515 L1549 509 L1569 504 L1589 499 L1607 495 L1626 490 L1646 485 L1664 481 L1684 476 L1703 472 L1723 467 L1742 463 L1762 459 L1781 454 L1809 450 L1829 445 L1857 440 L1893 433 L1907 427 L1920 421 L1938 415 L1956 412 L1976 408 L1994 404 L2014 400 L2034 395 L2055 389 L2073 384 L2090 378 L2111 372 L2131 366 L2149 359 L2168 352 L2188 345 L2208 338 L2226 332 L2245 327 L2266 323 L2291 319 L2306 316 L2323 312 L2342 309 L2362 305 L2381 301 L2400 298 L2420 294 L2441 292 L2458 289 L2477 286 L2498 281 L2519 277 L2535 272 L2555 269 L2575 266 L2593 264 L2613 262 L2632 260 L2652 257 L2671 255 L2690 252 L2709 250 L2737 247 L2758 245 L2785 242 L2820 239 L2834 237 L2847 234 L2866 232 L2884 231 L2904 229 L2923 227 L2942 225 L2962 223 L2983 222 L3000 220 L3019 218 L3040 216 L3059 213 L3078 211 L3096 209 L3116 208 L3136 206 L3155 204 L3174 202 L3195 200 L3220 199 L3234 197 L3251 196 L3271 194 L3290 192 L3310 190 L3329 188 L3348 186 L3369 184 L3387 182 L3406 181 L3426 179 L3447 177 L3464 176 L3483 174 L3503 172 L3522 171 L3542 169 L3560 168 L3580 167 L3600 166 L3619 165 L3638 167 L3667 168 L3686 170 L3714 172 L3752 170 L3767 169 L3779 168 L3797 167 L3813 166 L3833 165 L3851 164 L3871 163 L3891 162 L3912 161 L3929 160 L3947 159 L3968 158 L3988 157 L4006 156 L4025 154 L4045 153 L4065 152 L4083 151 L4102 150 L4123 149 L4148 149 L4163 147 L4180 146 L4200 145 L4219 144 L4238 143 L4257 142 L4277 141 L4298 139 L4315 137 L4334 136 L4355 135 L4375 133 L4393 132 L4412 131 L4432 129 L4450 128 L4470 127 L4489 125 L4509 124 L4529 123 L4548 122 L4566 121 L4594 119 L4615 118 L4643 117 L4677 115 L4691 114 L4704 113 L4723 112 L4742 111 L4762 110 L4780 108 L4800 107 L4819 106 L4840 105 L4857 104 L4876 103 L4897 101 L4917 100 L4935 98 L4954 97 L4973 95 L4994 93 L5012 91 L5031 90 L5052 88 L5077 87 L5092 85 L5109 83 L5128 82 L5148 80 L5167 78 L5186 77 L5206 75 L5227 73 L5244 72 L5263 70 L5284 69 L5304 68 L5321 66 L5340 65 L5360 64 L5379 63 L5399 62 L5418 61 L5437 60 L5457 60 L5476 59 L5495 58 L5523 57 L5543 56 L5571 55 L5607 54 L5620 52 L5633 50 L5652 49 L5670 48 L5690 47 L5708 46 L5728 45 L5748 44 L5769 43 L5786 41 L5804 40 L5825 39 L5845 38 L5863 36 L5882 35 L5902 34 L5922 32 L5940 31 L5959 30 L5981 29 L6006 28 L6020 27 L6037 26 L6057 25 L6076 23 L6095 22 L6114 21 L6134 19 L6155 17 L6173 15 L6192 14 L6212 12 L6233 11 L6250 10 L6269 9 L6289 9 L6308 8 L6327 7 L6346 6 L6366 5 L6386 4 L6405 4 L6424 3 L6451 2 L6472 1 L6500 0" />
</svg>
