<svg xmlns="http://www.w3.org/2000/svg" version="1.1" viewBox="0 0 6500 1000">
	<path fill="none" stroke="gold" stroke-width="125" stroke-linecap="round" stroke-linejoin="round" d="M0 1061  L-713497 1061 L-710893 1060 L-709225 1060 L-690895 1060 L-690725 1059 L-683567 1059 L-683534 1059 L-670103 1059 L-667182 1059 L-653841 1058 L-649672 1058 L-648512 1056 L-647892 1055 L-645881 1055 L-642109 1054 L-641509 1054 L-641180 1054 L-640967 1053 L-640425 1053 L-639187 1051 L-638008 1049 L-635144 1048 L-634622 1046 L-629766 1046 L-626829 1045 L-626786 1045 L-626478 1044 L-626226 1044 L-623631 1044 L-619375 1044 L-619357 1044 L-618121 1044 L-616243 1044 L-614290 1043 L-613342 1043 L-613071 1042 L-612761 1042 L-612663 1042 L-611833 1042 L-609802 1042 L-609511 1040 L-607365 1039 L-607210 1038 L-603553 1037 L-603302 1038 L-603204 1037 L-602687 1038 L-600535 1039 L-599606 1040 L-598080 1041 L-596841 1041 L-595295 1041 L-592333 1040 L-591211 1040 L-590902 1040 L-589690 1039 L-586684 1042 L-586664 1042 L-586317 1041 L-586104 1041 L-585977 1038 L-585736 1038 L-585698 1037 L-585678 1037 L-585659 1037 L-585600 1036 L-585541 1036 L-585523 1035 L-585080 1035 L-583841 1034 L-582295 1034 L-578907 1034 L-573181 1033 L-572980 1033 L-571344 1033 L-569622 1033 L-568190 1033 L-567957 1032 L-567242 1032 L-561110 1032 L-560742 1032 L-560588 1031 L-560009 1031 L-559717 1030 L-558750 1030 L-558440 1029 L-557841 1029 L-556235 1029 L-555500 1029 L-555190 1029 L-554421 1029 L-552385 1029 L-551960 1028 L-551147 1028 L-543719 1028 L-543196 1027 L-543022 1027 L-542287 1027 L-540720 1026 L-540314 1026 L-538089 1025 L-537141 1025 L-536716 1025 L-536386 1025 L-535342 1025 L-533234 1024 L-532982 1024 L-532363 1024 L-531550 1023 L-529442 1023 L-529394 1023 L-527465 1022 L-527140 1022 L-527005 1021 L-526502 1021 L-525089 1021 L-524586 1020 L-524064 1019 L-520505 1018 L-519769 1018 L-517345 1018 L-516055 1017 L-515648 1017 L-512496 1017 L-512341 1017 L-512321 1017 L-511954 1017 L-510696 1017 L-509981 1018 L-509091 1018 L-508684 1018 L-507755 1018 L-506647 1017 L-506344 1018 L-500095 1019 L-499147 1019 L-497521 1019 L-497019 1020 L-493344 1020 L-492511 1020 L-488558 1020 L-487146 1020 L-484657 1019 L-483981 1019 L-483942 1019 L-483071 1019 L-479860 1018 L-476997 1018 L-476029 1018 L-474907 1018 L-474888 1017 L-473263 1017 L-472799 1016 L-472707 1016 L-466338 1016 L-465390 1015 L-462933 1015 L-462060 1015 L-460824 1015 L-458823 1014 L-458425 1014 L-456989 1014 L-454963 1013 L-454750 1013 L-453570 1013 L-452061 1013 L-452041 1012 L-450029 1012 L-449159 1012 L-448288 1012 L-447704 1011 L-447166 1011 L-446509 1010 L-445270 1010 L-444710 1010 L-443529 1009 L-442291 1009 L-442253 1009 L-441866 1009 L-441324 1008 L-440550 1008 L-439428 1008 L-437339 1008 L-437006 1007 L-436720 1007 L-435791 1007 L-435308 1006 L-434573 1006 L-430941 1006 L-429814 1005 L-429659 1005 L-428633 1005 L-424918 1005 L-423701 1004 L-421882 1004 L-419097 1004 L-418535 1003 L-414647 1003 L-412171 1003 L-410836 1003 L-410333 1003 L-409849 1003 L-407160 1003 L-403388 1003 L-400931 1003 L-399751 1003 L-399112 1002 L-396753 1002 L-396675 1002 L-395628 1002 L-395534 1001 L-395031 1001 L-394586 1001 L-394528 1001 L-394315 1001 L-391355 1001 L-388647 1000 L-388493 1000 L-384972 1000 L-384449 1000 L-383482 999 L-383132 999 L-382089 999 L-381160 998 L-380735 998 L-379226 998 L-378259 998 L-378240 998 L-376344 982 L-376228 967 L-376180 951 L-376155 936 L-373151 936 L-371121 935 L-369360 935 L-368993 935 L-368547 934 L-368180 934 L-367766 934 L-365781 934 L-365568 934 L-365413 933 L-363808 933 L-362686 933 L-361738 933 L-360481 933 L-358836 932 L-357656 932 L-351067 932 L-351020 932 L-350615 931 L-349569 931 L-349434 931 L-347751 931 L-347732 930 L-346395 930 L-345159 930 L-345004 929 L-344630 929 L-344424 929 L-344115 929 L-343341 928 L-341019 928 L-340362 928 L-338234 928 L-336511 927 L-336318 927 L-333765 927 L-333488 926 L-333300 926 L-332468 926 L-331695 926 L-330997 925 L-325996 925 L-325621 925 L-321368 925 L-320881 945 L-320861 945 L-320782 945 L-320707 945 L-320687 924 L-319874 923 L-319121 923 L-317901 923 L-316470 923 L-316373 923 L-316199 923 L-315845 922 L-314535 922 L-312678 922 L-310976 921 L-310473 921 L-310207 921 L-309814 921 L-309680 921 L-308770 920 L-308394 920 L-307465 920 L-307126 920 L-307087 920 L-307049 920 L-305134 920 L-304960 919 L-303431 919 L-303103 919 L-302987 919 L-302580 919 L-302232 918 L-300588 918 L-300037 918 L-299794 918 L-299253 917 L-298421 917 L-297879 917 L-296345 916 L-296253 916 L-296216 916 L-296080 916 L-295693 916 L-294668 915 L-292791 915 L-292695 915 L-292095 922 L-291728 929 L-291243 936 L-291205 943 L-290431 943 L-290374 943 L-290199 943 L-290006 943 L-288400 942 L-288380 942 L-288225 942 L-288110 943 L-286930 943 L-286775 943 L-286108 943 L-283660 960 L-281145 978 L-278476 995 L-270776 1012 L-265109 1012 L-262894 1012 L-262871 1012 L-261897 1016 L-261877 1016 L-261013 1015 L-258273 1015 L-252475 1011 L-252321 1010 L-249535 1010 L-235927 1010 L-235181 1009 L-230770 1009 L-214424 1009 L-214192 1008 L-213655 1008 L-205196 1008 L-196490 1008 L-196278 1008 L-194305 1007 L-191519 1007 L-187031 1008 L-186877 1007 L-186707 1007 L-186567 1007 L-186276 1007 L-186238 1007 L-185967 1006 L-185795 1006 L-185385 1006 L-184265 1006 L-183084 1005 L-181807 1005 L-178944 1005 L-176023 1005 L-174031 1005 L-172484 1004 L-169446 1004 L-160121 1004 L-159597 1004 L-153874 1004 L-152366 1003 L-151552 1003 L-149868 1003 L-149147 1003 L-148979 1003 L-147934 1002 L-145866 1002 L-144504 1002 L-140061 1002 L-139964 1002 L-139925 1001 L-139906 1001 L-139074 1001 L-138996 1000 L-136424 1000 L-133174 1000 L-133019 1000 L-132071 1000 L-130330 999 L-129615 1000 L-126074 1002 L-119497 1003 L-118079 1004 L-118058 1004 L-117108 1004 L-113634 1004 L-112880 1003 L-112319 1003 L-111537 1003 L-104033 1003 L-102434 1003 L-100860 1002 L-97675 1002 L-93342 1002 L-84772 1002 L-76026 1002 L-72952 1002 L-69686 1001 L-69139 1001 L-62002 1001 L-56334 1001 L-42270 1001 L-36259 1001 L-31552 1001 L-27549 1000 L-22442 1000 L-12728 1000 L2842 999 L5925 999 L6227 905 L6247 790 L6265 659 L6285 512 L6305 445 L6324 389 L6343 337 L6370 286 L6391 237 L6419 184 L6454 126 L6468 77 L6481 35 L6500 0" />
</svg>
