<svg xmlns="http://www.w3.org/2000/svg" version="1.1" viewBox="0 0 6500 1000">
	<path fill="none" stroke="gold" stroke-width="125" stroke-linecap="round" stroke-linejoin="round" d="M0 1018  L-716436 1018 L-713832 1018 L-712164 1018 L-693834 1018 L-693664 1018 L-686506 1018 L-686473 1018 L-673042 1017 L-670120 1018 L-656779 1017 L-652610 1017 L-651450 1017 L-650831 1016 L-648819 1016 L-645047 1016 L-644447 1016 L-644119 1016 L-643906 1016 L-643364 1016 L-642126 1015 L-640947 1015 L-638083 1014 L-637560 1014 L-632705 1014 L-629768 1013 L-629725 1013 L-629416 1013 L-629164 1013 L-626569 1013 L-622314 1013 L-622296 1013 L-621059 1013 L-619182 1013 L-617228 1013 L-616280 1013 L-616010 1013 L-615700 1012 L-615602 1012 L-614771 1012 L-612740 1012 L-612450 1012 L-610304 1012 L-610148 1011 L-606492 1011 L-606241 1011 L-606142 1011 L-605625 1011 L-603474 1012 L-602545 1012 L-601019 1012 L-599780 1012 L-598233 1012 L-595271 1012 L-594149 1012 L-593840 1012 L-592629 1012 L-589622 1012 L-589603 1012 L-589255 1012 L-589042 1012 L-588916 1011 L-588674 1011 L-588637 1011 L-588617 1011 L-588598 1011 L-588539 1011 L-588480 1011 L-588462 1010 L-588019 1010 L-586780 1010 L-585234 1010 L-581846 1010 L-576120 1010 L-575918 1010 L-574282 1010 L-572561 1010 L-571128 1010 L-570896 1010 L-570181 1009 L-564049 1009 L-563681 1009 L-563526 1009 L-562948 1009 L-562655 1009 L-561688 1009 L-561379 1009 L-560780 1008 L-559173 1008 L-558438 1008 L-558128 1009 L-557360 1009 L-555324 1008 L-554899 1008 L-554086 1008 L-546658 1008 L-546134 1008 L-545961 1008 L-545226 1008 L-543658 1008 L-543253 1008 L-541028 1007 L-540080 1007 L-539655 1007 L-539324 1007 L-538281 1007 L-536172 1007 L-535920 1007 L-535301 1007 L-534489 1007 L-532381 1007 L-532332 1007 L-530404 1006 L-530078 1006 L-529943 1006 L-529440 1006 L-528028 1006 L-527525 1006 L-527003 1006 L-523443 1005 L-522708 1005 L-520283 1005 L-518994 1005 L-518587 1005 L-515434 1005 L-515280 1005 L-515259 1005 L-514893 1005 L-513634 1005 L-512919 1005 L-512030 1005 L-511623 1005 L-510694 1005 L-509585 1005 L-509282 1005 L-503033 1005 L-502086 1005 L-500460 1006 L-499958 1006 L-496282 1006 L-495450 1006 L-491497 1006 L-490085 1006 L-487596 1006 L-486919 1005 L-486881 1005 L-486010 1005 L-482799 1005 L-479935 1005 L-478967 1005 L-477846 1005 L-477827 1005 L-476202 1005 L-475738 1005 L-475646 1005 L-469277 1004 L-468328 1004 L-465871 1004 L-464999 1004 L-463763 1004 L-461761 1004 L-461364 1004 L-459928 1004 L-457901 1004 L-457688 1004 L-456508 1004 L-455000 1004 L-454980 1003 L-452967 1003 L-452098 1003 L-451227 1003 L-450642 1003 L-450105 1003 L-449447 1003 L-448209 1003 L-447649 1003 L-446467 1003 L-445230 1003 L-445191 1002 L-444804 1002 L-444263 1002 L-443489 1002 L-442367 1002 L-440277 1002 L-439944 1002 L-439658 1002 L-438730 1002 L-438247 1002 L-437511 1002 L-433880 1001 L-432752 1001 L-432598 1001 L-431572 1001 L-427857 1001 L-426640 1001 L-424821 1001 L-422035 1001 L-421474 1001 L-417586 1001 L-415109 1001 L-413775 1001 L-413271 1001 L-412788 1001 L-410099 1001 L-406327 1001 L-403870 1001 L-402690 1001 L-402051 1000 L-399691 1000 L-399614 1000 L-398566 1000 L-398473 1000 L-397970 1000 L-397525 1000 L-397467 1000 L-397253 1000 L-394294 1000 L-391586 1000 L-391431 1000 L-387910 1000 L-387388 1000 L-386420 1000 L-386071 999 L-385028 999 L-384099 999 L-383673 999 L-382164 999 L-381197 999 L-381178 999 L-379282 994 L-379166 990 L-379118 985 L-379094 981 L-376090 980 L-374059 980 L-372298 980 L-371931 980 L-371486 980 L-371119 980 L-370705 980 L-368720 980 L-368507 980 L-368352 980 L-366747 980 L-365625 980 L-364676 980 L-363419 979 L-361775 979 L-360595 979 L-354005 979 L-353959 979 L-353553 979 L-352508 979 L-352373 979 L-350690 979 L-350670 979 L-349333 979 L-348097 979 L-347943 979 L-347569 978 L-347363 978 L-347053 978 L-346280 978 L-343958 978 L-343300 978 L-341172 978 L-339450 978 L-339257 978 L-336703 978 L-336427 978 L-336239 977 L-335406 977 L-334634 977 L-333936 977 L-328935 977 L-328559 977 L-324306 977 L-323819 983 L-323800 983 L-323721 983 L-323646 983 L-323626 977 L-322813 977 L-322059 977 L-320840 977 L-319408 977 L-319312 976 L-319138 976 L-318783 976 L-317474 976 L-315617 976 L-313914 976 L-313411 976 L-313146 976 L-312753 976 L-312619 976 L-311709 976 L-311333 976 L-310404 976 L-310065 976 L-310025 976 L-309988 976 L-308072 976 L-307899 976 L-306370 976 L-306042 975 L-305925 975 L-305518 975 L-305170 975 L-303527 975 L-302976 975 L-302732 975 L-302191 975 L-301360 975 L-300818 975 L-299284 975 L-299191 975 L-299154 974 L-299018 974 L-298631 974 L-297606 974 L-295730 974 L-295634 974 L-295033 976 L-294666 978 L-294182 981 L-294144 983 L-293370 983 L-293312 983 L-293138 983 L-292944 983 L-291339 982 L-291319 982 L-291164 982 L-291048 983 L-289869 983 L-289714 983 L-289047 983 L-286599 988 L-284084 993 L-281414 998 L-273715 1003 L-268047 1003 L-265833 1003 L-265809 1003 L-264836 1004 L-264816 1004 L-263952 1004 L-261212 1004 L-255413 1003 L-255260 1003 L-252474 1003 L-238866 1003 L-238120 1003 L-233709 1002 L-217363 1002 L-217131 1002 L-216594 1002 L-208134 1002 L-199429 1002 L-199216 1002 L-197244 1002 L-194457 1002 L-189970 1002 L-189815 1002 L-189646 1002 L-189506 1002 L-189215 1002 L-189176 1002 L-188906 1002 L-188734 1002 L-188324 1002 L-187203 1001 L-186023 1001 L-184746 1001 L-181882 1001 L-178962 1001 L-176970 1001 L-175422 1001 L-172384 1001 L-163060 1001 L-162536 1001 L-156812 1001 L-155305 1001 L-154490 1001 L-152807 1001 L-152086 1001 L-151917 1001 L-150872 1000 L-148805 1000 L-147443 1000 L-143000 1000 L-142902 1000 L-142864 1000 L-142845 1000 L-142012 1000 L-141935 1000 L-139362 1000 L-136113 1000 L-135958 1000 L-135010 1000 L-133269 1000 L-132553 1000 L-129013 1000 L-122435 1001 L-121018 1001 L-120997 1001 L-120047 1001 L-116572 1001 L-115819 1001 L-115257 1001 L-114475 1001 L-106971 1001 L-105373 1001 L-103799 1000 L-100613 1000 L-96280 1000 L-87711 1000 L-78964 1000 L-75890 1000 L-72624 1000 L-72078 1000 L-64941 1000 L-59273 1000 L-45209 1000 L-39197 1000 L-34491 1000 L-30488 1000 L-25380 1000 L-15666 1000 L-96 1000 L2986 999 L3288 971 L3308 937 L3327 897 L3347 853 L3366 833 L3385 816 L3404 800 L3432 785 L3452 770 L3480 754 L3516 737 L3529 722 L3542 710 L3561 699 L3579 691 L3599 683 L3618 675 L3637 667 L3657 659 L3678 651 L3695 643 L3714 635 L3734 627 L3754 619 L3772 611 L3791 603 L3811 594 L3831 585 L3850 577 L3868 569 L3890 561 L3914 553 L3929 546 L3946 539 L3966 531 L3985 524 L4004 517 L4023 509 L4043 501 L4064 494 L4082 487 L4101 481 L4121 475 L4142 469 L4159 464 L4178 459 L4198 455 L4217 450 L4236 446 L4255 442 L4275 438 L4295 435 L4314 432 L4333 428 L4360 424 L4381 420 L4409 415 L4443 409 L4457 405 L4470 401 L4489 397 L4508 394 L4528 391 L4546 388 L4565 384 L4585 380 L4606 377 L4623 374 L4642 370 L4662 367 L4682 363 L4701 359 L4719 354 L4740 349 L4759 344 L4778 339 L4797 334 L4818 328 L4842 322 L4857 316 L4874 310 L4894 305 L4913 299 L4933 293 L4952 287 L4972 281 L4992 275 L5010 269 L5029 263 L5049 258 L5070 253 L5087 248 L5106 243 L5127 238 L5145 235 L5165 230 L5184 226 L5204 222 L5223 218 L5242 214 L5261 210 L5290 205 L5310 202 L5337 198 L5375 193 L5390 188 L5402 184 L5419 180 L5436 177 L5456 175 L5475 172 L5494 170 L5514 168 L5535 165 L5552 163 L5571 160 L5591 157 L5611 154 L5629 151 L5648 147 L5668 144 L5688 140 L5707 136 L5725 133 L5747 129 L5771 125 L5786 122 L5803 118 L5823 114 L5842 111 L5861 107 L5880 103 L5900 99 L5921 95 L5939 91 L5958 88 L5978 84 L5998 81 L6016 78 L6035 75 L6055 72 L6074 69 L6094 65 L6112 62 L6132 59 L6152 57 L6171 54 L6190 51 L6218 48 L6238 45 L6266 41 L6302 37 L6316 32 L6330 28 L6347 25 L6365 23 L6385 20 L6403 17 L6423 14 L6443 11 L6464 7 L6483 4 L6500 0" />
</svg>
