<svg xmlns="http://www.w3.org/2000/svg" version="1.1" viewBox="0 0 6500 1000">
	<path fill="none" stroke="gold" stroke-width="125" stroke-linecap="round" stroke-linejoin="round" d="M0 3561  L-725573 3561 L-722969 3561 L-721301 3561 L-702971 3561 L-702801 3561 L-695643 3560 L-695610 3560 L-682179 3560 L-679257 3560 L-665916 3560 L-661747 3559 L-660587 3558 L-659968 3558 L-657956 3557 L-654184 3557 L-653584 3556 L-653256 3556 L-653043 3556 L-652501 3555 L-651263 3554 L-650084 3553 L-647220 3552 L-646697 3550 L-641842 3550 L-638905 3550 L-638862 3549 L-638553 3549 L-638301 3549 L-635707 3548 L-631451 3548 L-631433 3548 L-630196 3548 L-628319 3548 L-626365 3548 L-625417 3548 L-625147 3547 L-624837 3547 L-624739 3547 L-623908 3547 L-621877 3547 L-621587 3546 L-619441 3545 L-619285 3544 L-615629 3543 L-615378 3544 L-615279 3544 L-614762 3544 L-612611 3545 L-611682 3546 L-610156 3547 L-608917 3547 L-607370 3546 L-604408 3546 L-603287 3546 L-602977 3545 L-601766 3545 L-598759 3547 L-598740 3547 L-598392 3547 L-598179 3547 L-598053 3544 L-597812 3544 L-597774 3544 L-597754 3543 L-597735 3543 L-597676 3543 L-597617 3542 L-597599 3542 L-597156 3542 L-595917 3541 L-594371 3541 L-590983 3541 L-585257 3541 L-585055 3540 L-583419 3540 L-581698 3540 L-580265 3540 L-580033 3540 L-579318 3540 L-573186 3540 L-572818 3539 L-572663 3539 L-572085 3539 L-571793 3538 L-570825 3538 L-570516 3538 L-569917 3537 L-568310 3537 L-567575 3537 L-567265 3537 L-566497 3537 L-564461 3537 L-564036 3537 L-563223 3537 L-555795 3536 L-555272 3536 L-555098 3536 L-554363 3535 L-552795 3535 L-552390 3535 L-550165 3535 L-549217 3534 L-548792 3534 L-548461 3534 L-547418 3534 L-545309 3534 L-545057 3533 L-544438 3533 L-543626 3533 L-541518 3533 L-541469 3532 L-539541 3532 L-539215 3532 L-539080 3531 L-538577 3531 L-537165 3531 L-536662 3530 L-536140 3530 L-532580 3529 L-531845 3529 L-529420 3529 L-528131 3528 L-527724 3528 L-524571 3528 L-524417 3528 L-524396 3528 L-524030 3528 L-522772 3528 L-522057 3529 L-521167 3529 L-520760 3529 L-519831 3529 L-518722 3528 L-518419 3529 L-512170 3529 L-511223 3530 L-509597 3530 L-509095 3530 L-505419 3530 L-504587 3530 L-500634 3531 L-499222 3530 L-496733 3530 L-496056 3530 L-496018 3529 L-495147 3529 L-491936 3529 L-489072 3529 L-488105 3529 L-486983 3529 L-486964 3528 L-485339 3528 L-484875 3527 L-484783 3527 L-478414 3527 L-477465 3527 L-475008 3527 L-474136 3526 L-472900 3526 L-470898 3526 L-470501 3526 L-469065 3526 L-467038 3525 L-466825 3525 L-465645 3525 L-464137 3525 L-464117 3525 L-462104 3524 L-461235 3524 L-460364 3524 L-459779 3524 L-459242 3523 L-458584 3523 L-457346 3523 L-456786 3522 L-455604 3522 L-454367 3522 L-454328 3522 L-453941 3522 L-453400 3522 L-452626 3521 L-451504 3521 L-449415 3521 L-449081 3521 L-448795 3520 L-447867 3520 L-447384 3520 L-446648 3520 L-443017 3519 L-441889 3519 L-441735 3519 L-440709 3519 L-436994 3519 L-435777 3518 L-433958 3518 L-431172 3518 L-430611 3518 L-426723 3518 L-424247 3517 L-422912 3517 L-422408 3517 L-421925 3517 L-419236 3517 L-415464 3517 L-413007 3517 L-411827 3517 L-411188 3517 L-408828 3517 L-408751 3516 L-407703 3516 L-407610 3516 L-407107 3516 L-406662 3516 L-406604 3516 L-406390 3516 L-403431 3516 L-400723 3515 L-400568 3515 L-397047 3515 L-396525 3515 L-395557 3515 L-395208 3514 L-394165 3514 L-393236 3514 L-392810 3514 L-391301 3514 L-390334 3513 L-390315 3513 L-388419 3502 L-388303 3490 L-388255 3478 L-388231 3466 L-385227 3466 L-383196 3466 L-381435 3466 L-381068 3465 L-380623 3465 L-380256 3465 L-379842 3465 L-377857 3464 L-377644 3464 L-377489 3464 L-375884 3464 L-374762 3464 L-373813 3464 L-372556 3464 L-370912 3463 L-369732 3463 L-363143 3463 L-363096 3463 L-362690 3463 L-361645 3462 L-361510 3462 L-359827 3462 L-359807 3462 L-358470 3462 L-357234 3461 L-357080 3461 L-356706 3461 L-356500 3461 L-356190 3461 L-355417 3460 L-353095 3460 L-352437 3460 L-350309 3460 L-348587 3460 L-348394 3459 L-345840 3459 L-345564 3459 L-345376 3459 L-344543 3458 L-343771 3458 L-343073 3458 L-338072 3458 L-337696 3458 L-333443 3458 L-332956 3473 L-332937 3473 L-332858 3473 L-332783 3473 L-332763 3457 L-331950 3457 L-331196 3456 L-329977 3456 L-328545 3456 L-328449 3456 L-328275 3456 L-327920 3456 L-326611 3455 L-324754 3455 L-323051 3455 L-322548 3455 L-322283 3455 L-321890 3455 L-321756 3454 L-320846 3454 L-320470 3454 L-319541 3454 L-319202 3454 L-319162 3454 L-319125 3454 L-317209 3454 L-317036 3454 L-315507 3454 L-315179 3453 L-315063 3453 L-314655 3453 L-314307 3453 L-312664 3452 L-312113 3452 L-311869 3452 L-311328 3452 L-310497 3452 L-309955 3452 L-308421 3451 L-308328 3451 L-308291 3451 L-308156 3451 L-307768 3451 L-306744 3450 L-304867 3450 L-304771 3450 L-304170 3455 L-303803 3461 L-303319 3466 L-303281 3472 L-302507 3472 L-302449 3472 L-302275 3471 L-302081 3471 L-300476 3471 L-300456 3471 L-300301 3471 L-300185 3471 L-299006 3471 L-298851 3472 L-298184 3472 L-295736 3485 L-293221 3498 L-290551 3511 L-282852 3524 L-277184 3524 L-274970 3524 L-274946 3524 L-273973 3527 L-273953 3527 L-273089 3527 L-270349 3527 L-264550 3523 L-264397 3523 L-261611 3523 L-248003 3522 L-247257 3522 L-242846 3522 L-226500 3522 L-226268 3522 L-225731 3521 L-217271 3521 L-208566 3521 L-208353 3521 L-206381 3521 L-203595 3521 L-199107 3521 L-198952 3521 L-198783 3521 L-198643 3521 L-198352 3520 L-198313 3520 L-198043 3520 L-197871 3520 L-197461 3520 L-196340 3519 L-195160 3519 L-193883 3519 L-191019 3519 L-188099 3519 L-186107 3519 L-184559 3518 L-181521 3518 L-172197 3518 L-171673 3518 L-165949 3518 L-164442 3518 L-163627 3518 L-161944 3517 L-161223 3517 L-161054 3517 L-160009 3517 L-157942 3517 L-156580 3517 L-152137 3516 L-152039 3516 L-152001 3516 L-151982 3516 L-151149 3516 L-151072 3515 L-148499 3515 L-145250 3515 L-145095 3515 L-144147 3515 L-142406 3515 L-141690 3515 L-138150 3516 L-131572 3517 L-130155 3519 L-130134 3518 L-129184 3518 L-125709 3518 L-124956 3518 L-124394 3518 L-123612 3517 L-116108 3517 L-114510 3517 L-112936 3517 L-109750 3517 L-105417 3517 L-96848 3516 L-88101 3516 L-85027 3516 L-81761 3516 L-81215 3516 L-74078 3516 L-68410 3516 L-54346 3516 L-48334 3516 L-43628 3516 L-39625 3515 L-34517 3515 L-24803 3515 L-9233 3515 L-6150 3514 L-5848 3443 L-5828 3355 L-5809 3254 L-5790 3142 L-5770 3091 L-5751 3048 L-5732 3009 L-5704 2970 L-5684 2932 L-5656 2892 L-5620 2847 L-5607 2810 L-5594 2778 L-5575 2751 L-5557 2731 L-5537 2711 L-5518 2691 L-5499 2671 L-5479 2650 L-5458 2629 L-5441 2608 L-5422 2588 L-5402 2569 L-5382 2549 L-5364 2527 L-5345 2506 L-5325 2483 L-5305 2461 L-5286 2440 L-5268 2420 L-5246 2400 L-5222 2380 L-5207 2362 L-5190 2344 L-5170 2325 L-5151 2307 L-5132 2288 L-5113 2268 L-5093 2249 L-5072 2231 L-5054 2213 L-5035 2197 L-5015 2181 L-4994 2167 L-4977 2154 L-4958 2142 L-4938 2130 L-4919 2118 L-4900 2107 L-4881 2097 L-4861 2088 L-4841 2080 L-4822 2071 L-4803 2063 L-4776 2052 L-4755 2041 L-4727 2029 L-4693 2015 L-4679 2004 L-4666 1994 L-4647 1985 L-4628 1977 L-4608 1969 L-4590 1959 L-4571 1950 L-4551 1941 L-4530 1932 L-4513 1924 L-4494 1916 L-4474 1907 L-4454 1897 L-4435 1886 L-4417 1874 L-4396 1861 L-4377 1849 L-4358 1836 L-4339 1823 L-4318 1809 L-4294 1793 L-4279 1778 L-4262 1763 L-4242 1749 L-4223 1734 L-4203 1719 L-4184 1703 L-4164 1688 L-4144 1673 L-4126 1658 L-4107 1644 L-4087 1631 L-4066 1617 L-4049 1604 L-4030 1593 L-4010 1581 L-3991 1571 L-3971 1560 L-3952 1549 L-3932 1539 L-3913 1528 L-3894 1517 L-3875 1507 L-3846 1496 L-3826 1487 L-3799 1477 L-3761 1465 L-3746 1453 L-3734 1443 L-3717 1433 L-3700 1425 L-3680 1419 L-3661 1412 L-3642 1406 L-3622 1401 L-3601 1394 L-3584 1388 L-3565 1381 L-3545 1373 L-3525 1366 L-3507 1358 L-3488 1349 L-3468 1340 L-3448 1331 L-3429 1321 L-3411 1312 L-3389 1303 L-3365 1293 L-3351 1284 L-3333 1275 L-3313 1265 L-3294 1256 L-3275 1246 L-3256 1236 L-3236 1226 L-3215 1216 L-3197 1206 L-3178 1197 L-3158 1189 L-3138 1180 L-3120 1173 L-3101 1165 L-3081 1157 L-3062 1149 L-3043 1141 L-3024 1133 L-3004 1126 L-2985 1118 L-2965 1111 L-2946 1104 L-2918 1096 L-2898 1089 L-2870 1080 L-2834 1068 L-2820 1057 L-2807 1047 L-2789 1038 L-2771 1032 L-2751 1026 L-2733 1018 L-2713 1011 L-2693 1003 L-2672 994 L-2654 984 L-2637 975 L-2616 964 L-2596 953 L-2578 942 L-2559 930 L-2539 918 L-2519 906 L-2501 896 L-2482 887 L-2461 880 L-2436 874 L-2421 869 L-2404 863 L-2385 857 L-2365 851 L-2346 844 L-2327 838 L-2307 832 L-2286 827 L-2269 823 L-2250 817 L-2229 810 L-2208 802 L-2191 795 L-2172 789 L-2152 784 L-2134 780 L-2114 777 L-2095 773 L-2075 769 L-2056 765 L-2036 760 L-2018 756 L-1990 752 L-1969 748 L-1942 744 L-1907 738 L-1893 734 L-1880 730 L-1861 727 L-1842 724 L-1823 720 L-1804 717 L-1785 714 L-1765 711 L-1744 708 L-1727 705 L-1708 702 L-1687 698 L-1667 695 L-1649 691 L-1631 688 L-1611 685 L-1590 682 L-1572 679 L-1553 676 L-1532 673 L-1507 670 L-1493 667 L-1476 664 L-1456 661 L-1437 658 L-1417 655 L-1398 652 L-1379 648 L-1358 645 L-1340 642 L-1321 639 L-1301 636 L-1280 633 L-1263 630 L-1244 627 L-1224 625 L-1205 622 L-1185 620 L-1167 618 L-1146 616 L-1127 614 L-1108 612 L-1089 615 L-1060 618 L-1041 621 L-1013 624 L-975 621 L-960 619 L-947 617 L-930 615 L-914 614 L-894 612 L-876 610 L-856 608 L-836 607 L-815 605 L-798 604 L-780 602 L-759 600 L-739 598 L-721 596 L-702 594 L-682 593 L-662 591 L-644 589 L-625 587 L-603 586 L-579 584 L-564 583 L-547 581 L-527 579 L-508 577 L-489 575 L-470 573 L-450 571 L-429 568 L-411 565 L-393 563 L-372 561 L-351 559 L-334 556 L-315 554 L-295 552 L-276 550 L-257 547 L-238 545 L-218 542 L-198 540 L-179 539 L-160 537 L-133 535 L-112 533 L-84 530 L-49 528 L-36 526 L-23 524 L-4 522 L14 520 L34 518 L52 516 L72 514 L91 512 L112 510 L129 508 L148 507 L169 504 L189 502 L207 499 L226 496 L245 493 L266 490 L284 487 L303 485 L324 482 L349 479 L364 476 L381 473 L400 471 L420 468 L439 465 L458 462 L478 459 L499 457 L516 454 L535 452 L556 449 L576 447 L593 445 L612 443 L632 441 L651 440 L671 438 L690 436 L709 435 L729 433 L748 432 L767 431 L795 429 L815 428 L843 426 L879 423 L892 420 L906 418 L924 415 L942 413 L962 412 L981 410 L1000 408 L1020 406 L1041 404 L1058 403 L1077 400 L1097 398 L1117 396 L1135 394 L1154 391 L1174 389 L1195 387 L1212 385 L1231 383 L1253 381 L1278 379 L1292 378 L1309 376 L1329 374 L1348 372 L1367 370 L1386 367 L1406 364 L1428 361 L1445 358 L1464 355 L1484 353 L1505 351 L1522 349 L1541 348 L1561 346 L1580 345 L1600 344 L1618 342 L1638 341 L1658 339 L1677 338 L1696 337 L1723 335 L1744 334 L1772 333 L1806 332 L1820 330 L1833 329 L1852 328 L1871 327 L1890 326 L1909 325 L1928 324 L1948 323 L1969 322 L1986 321 L2005 320 L2025 318 L2045 317 L2064 316 L2082 315 L2103 314 L2123 313 L2141 312 L2160 312 L2181 311 L2206 310 L2220 309 L2238 307 L2257 306 L2276 305 L2296 304 L2315 303 L2335 302 L2355 300 L2373 298 L2392 295 L2412 293 L2433 291 L2451 290 L2470 288 L2489 287 L2508 285 L2528 284 L2547 282 L2567 281 L2586 280 L2605 279 L2624 278 L2653 277 L2701 276 L2737 274 L2752 273 L2765 272 L2782 271 L2799 271 L2819 270 L2838 269 L2857 268 L2877 267 L2898 267 L2915 266 L2934 265 L2954 265 L2974 264 L2992 263 L3011 262 L3031 261 L3051 260 L3069 259 L3088 257 L3110 256 L3134 254 L3149 252 L3166 250 L3186 249 L3205 247 L3224 246 L3243 244 L3263 243 L3284 241 L3302 240 L3321 238 L3341 237 L3361 235 L3379 234 L3398 233 L3418 232 L3437 231 L3457 230 L3475 229 L3495 228 L3515 226 L3534 225 L3553 224 L3581 223 L3601 222 L3629 220 L3666 218 L3681 215 L3693 213 L3711 211 L3728 210 L3748 208 L3766 207 L3786 207 L3806 206 L3827 205 L3844 204 L3862 202 L3883 201 L3903 199 L3921 197 L3940 194 L3960 192 L3981 190 L3998 188 L4017 186 L4039 185 L4063 183 L4079 181 L4096 180 L4114 179 L4135 177 L4153 176 L4172 174 L4192 172 L4214 170 L4230 169 L4250 167 L4270 166 L4291 165 L4308 163 L4327 162 L4346 161 L4366 160 L4385 158 L4404 157 L4424 156 L4444 155 L4463 154 L4481 153 L4509 997 L4530 996 L4558 994 L4593 992 L4607 145 L4621 144 L4639 142 L4657 141 L4676 141 L4695 140 L4714 139 L4734 137 L4756 136 L4772 134 L4791 132 L4812 130 L4832 128 L4850 126 L4869 124 L4888 121 L4909 120 L4927 118 L4946 117 L4967 116 L4992 114 L5007 112 L5037 110 L5076 107 L5100 104 L5129 102 L5145 99 L5159 97 L5178 95 L5199 94 L5219 93 L5236 92 L5255 91 L5275 90 L5294 89 L5314 88 L5333 87 L5352 87 L5373 85 L5391 84 L5410 83 L5438 82 L5458 81 L5486 80 L5521 79 L5535 77 L5567 76 L5585 75 L5605 74 L5624 73 L5643 72 L5663 72 L5684 71 L5701 70 L5719 68 L5740 65 L5761 61 L5778 57 L5797 53 L5817 50 L5837 47 L5855 45 L5874 43 L5896 42 L5921 40 L5936 39 L5953 37 L5972 35 L5992 34 L6010 33 L6030 31 L6049 29 L6071 28 L6087 26 L6107 24 L6127 23 L6148 22 L6165 21 L6184 20 L6204 19 L6223 18 L6242 16 L6261 15 L6281 14 L6301 13 L6320 12 L6339 11 L6366 10 L6387 9 L6457 7 L6485 4 L6500 1" />
</svg>
