<svg xmlns="http://www.w3.org/2000/svg" version="1.1" viewBox="0 0 6500 1000">
	<path fill="none" stroke="gold" stroke-width="125" stroke-linecap="round" stroke-linejoin="round" d="M0 3610  L-725257 3610 L-722653 3610 L-720985 3609 L-702655 3609 L-702485 3609 L-695327 3608 L-695294 3608 L-681863 3608 L-678942 3608 L-665601 3608 L-661432 3607 L-660272 3606 L-659652 3606 L-657641 3605 L-653869 3605 L-653269 3605 L-652940 3604 L-652727 3604 L-652185 3604 L-650947 3602 L-649768 3601 L-646904 3600 L-646382 3598 L-641526 3598 L-638589 3598 L-638546 3597 L-638238 3597 L-637986 3597 L-635391 3596 L-631135 3596 L-631117 3596 L-629881 3596 L-628003 3596 L-626050 3596 L-625102 3596 L-624831 3595 L-624521 3595 L-624423 3595 L-623593 3595 L-621562 3595 L-621271 3594 L-619125 3593 L-618970 3592 L-615313 3591 L-615062 3592 L-614964 3592 L-614446 3592 L-612295 3593 L-611366 3594 L-609840 3594 L-608601 3594 L-607054 3594 L-604093 3594 L-602971 3594 L-602662 3593 L-601450 3593 L-598444 3595 L-598424 3595 L-598077 3595 L-597864 3594 L-597737 3592 L-597496 3592 L-597458 3592 L-597438 3591 L-597419 3591 L-597360 3591 L-597301 3590 L-597283 3590 L-596840 3590 L-595601 3589 L-594055 3589 L-590667 3589 L-584941 3588 L-584740 3588 L-583104 3588 L-581382 3588 L-579950 3588 L-579717 3588 L-579002 3587 L-572870 3587 L-572502 3587 L-572348 3587 L-571769 3586 L-571477 3586 L-570510 3586 L-570200 3585 L-569601 3585 L-567995 3585 L-567260 3585 L-566950 3585 L-566181 3585 L-564145 3585 L-563720 3585 L-562907 3584 L-555479 3584 L-554956 3584 L-554782 3583 L-554047 3583 L-552480 3583 L-552074 3583 L-549849 3582 L-548901 3582 L-548476 3582 L-548146 3582 L-547102 3582 L-544994 3581 L-544742 3581 L-544123 3581 L-543310 3581 L-541202 3580 L-541154 3580 L-539225 3580 L-538900 3579 L-538765 3579 L-538262 3579 L-536849 3579 L-536346 3578 L-535824 3577 L-532264 3577 L-531529 3576 L-529105 3576 L-527815 3576 L-527408 3576 L-524256 3576 L-524101 3576 L-524081 3576 L-523714 3576 L-522456 3576 L-521741 3576 L-520851 3576 L-520444 3576 L-519515 3576 L-518407 3576 L-518104 3577 L-511855 3577 L-510907 3577 L-509281 3578 L-508779 3578 L-505104 3578 L-504271 3578 L-500318 3578 L-498906 3578 L-496417 3577 L-495741 3577 L-495702 3577 L-494831 3577 L-491620 3577 L-488757 3577 L-487789 3576 L-486667 3576 L-486648 3576 L-485023 3575 L-484559 3575 L-484467 3575 L-478098 3575 L-477150 3575 L-474692 3574 L-473820 3574 L-472584 3574 L-470583 3574 L-470185 3573 L-468749 3573 L-466723 3573 L-466510 3573 L-465330 3572 L-463821 3572 L-463801 3572 L-461789 3572 L-460919 3572 L-460048 3571 L-459463 3571 L-458926 3571 L-458269 3570 L-457030 3570 L-456470 3570 L-455289 3570 L-454051 3570 L-454013 3569 L-453626 3569 L-453084 3569 L-452310 3569 L-451188 3569 L-449099 3568 L-448766 3568 L-448480 3568 L-447551 3568 L-447068 3567 L-446333 3567 L-442701 3567 L-441574 3567 L-441419 3567 L-440393 3566 L-436678 3566 L-435461 3566 L-433642 3565 L-430857 3565 L-430295 3565 L-426407 3565 L-423931 3565 L-422596 3565 L-422093 3565 L-421609 3564 L-418920 3564 L-415148 3564 L-412691 3564 L-411511 3564 L-410872 3564 L-408513 3564 L-408435 3564 L-407388 3564 L-407294 3563 L-406791 3563 L-406346 3563 L-406288 3563 L-406075 3563 L-403115 3563 L-400407 3563 L-400253 3563 L-396732 3563 L-396209 3562 L-395242 3562 L-394892 3562 L-393849 3561 L-392920 3561 L-392495 3561 L-390986 3561 L-390019 3561 L-390000 3561 L-388104 3549 L-387988 3537 L-387940 3525 L-387915 3513 L-384911 3512 L-382881 3512 L-381120 3512 L-380753 3512 L-380307 3511 L-379940 3511 L-379526 3511 L-377541 3511 L-377328 3511 L-377173 3511 L-375568 3511 L-374446 3510 L-373498 3510 L-372241 3510 L-370596 3510 L-369416 3509 L-362827 3509 L-362780 3509 L-362375 3509 L-361329 3509 L-361194 3509 L-359511 3508 L-359492 3508 L-358155 3508 L-356919 3508 L-356764 3508 L-356390 3507 L-356184 3507 L-355875 3507 L-355101 3507 L-352779 3506 L-352122 3506 L-349994 3506 L-348271 3506 L-348078 3506 L-345525 3505 L-345248 3505 L-345060 3505 L-344228 3505 L-343455 3504 L-342757 3504 L-337756 3504 L-337381 3504 L-333128 3504 L-332641 3520 L-332621 3520 L-332542 3520 L-332467 3520 L-332447 3503 L-331634 3503 L-330881 3503 L-329661 3502 L-328230 3502 L-328133 3502 L-327959 3502 L-327604 3502 L-326295 3502 L-324438 3502 L-322736 3501 L-322233 3501 L-321967 3501 L-321574 3501 L-321440 3501 L-320530 3500 L-320154 3500 L-319225 3500 L-318886 3500 L-318847 3500 L-318809 3500 L-316894 3500 L-316720 3500 L-315191 3500 L-314863 3500 L-314747 3499 L-314340 3499 L-313992 3499 L-312348 3499 L-311797 3498 L-311554 3498 L-311012 3498 L-310181 3498 L-309639 3498 L-308105 3497 L-308013 3497 L-307976 3497 L-307840 3497 L-307453 3497 L-306428 3497 L-304551 3496 L-304455 3496 L-303855 3501 L-303488 3507 L-303003 3513 L-302965 3518 L-302191 3518 L-302134 3518 L-301959 3518 L-301766 3518 L-300160 3517 L-300140 3517 L-299985 3518 L-299870 3518 L-298690 3518 L-298535 3518 L-297868 3518 L-295420 3532 L-292905 3545 L-290236 3558 L-282536 3572 L-276869 3572 L-274654 3571 L-274631 3571 L-273657 3575 L-273637 3575 L-272773 3574 L-270033 3574 L-264235 3571 L-264081 3570 L-261295 3570 L-247687 3570 L-246941 3570 L-242530 3569 L-226184 3569 L-225952 3569 L-225415 3569 L-216955 3569 L-208250 3569 L-208038 3568 L-206065 3568 L-203279 3568 L-198791 3568 L-198637 3568 L-198467 3568 L-198327 3568 L-198036 3568 L-197998 3568 L-197727 3567 L-197555 3567 L-197145 3567 L-196025 3567 L-194844 3567 L-193567 3567 L-190704 3566 L-187783 3566 L-185791 3566 L-184244 3566 L-181206 3566 L-171881 3565 L-171357 3565 L-165633 3565 L-164126 3565 L-163312 3565 L-161628 3565 L-160907 3565 L-160739 3564 L-159694 3564 L-157626 3564 L-156264 3564 L-151821 3564 L-151724 3564 L-151685 3563 L-151666 3563 L-150834 3563 L-150756 3563 L-148184 3563 L-144934 3563 L-144779 3562 L-143831 3562 L-142090 3562 L-141375 3563 L-137834 3564 L-131257 3565 L-129839 3566 L-129818 3566 L-128868 3566 L-125394 3565 L-124640 3565 L-124079 3565 L-123297 3565 L-115792 3565 L-114194 3564 L-112620 3564 L-109435 3564 L-105102 3564 L-96532 3564 L-87786 3564 L-84712 3564 L-81446 3563 L-80899 3563 L-73762 3563 L-68094 3563 L-54030 3563 L-48019 3563 L-43312 3563 L-39309 3563 L-34202 3563 L-24488 3562 L-8917 3562 L-5834 3562 L-5532 3489 L-5512 3399 L-5494 3297 L-5474 3183 L-5454 3131 L-5435 3087 L-5416 3047 L-5389 3007 L-5368 2968 L-5340 2927 L-5305 2882 L-5291 2844 L-5278 2811 L-5259 2784 L-5241 2764 L-5221 2743 L-5203 2723 L-5183 2702 L-5163 2681 L-5142 2660 L-5125 2638 L-5107 2618 L-5086 2598 L-5066 2578 L-5048 2556 L-5029 2534 L-5009 2511 L-4989 2488 L-4971 2467 L-4952 2446 L-4931 2427 L-4906 2406 L-4891 2388 L-4874 2369 L-4855 2350 L-4835 2332 L-4816 2312 L-4797 2291 L-4777 2272 L-4756 2254 L-4739 2236 L-4720 2219 L-4699 2204 L-4679 2189 L-4661 2176 L-4642 2163 L-4622 2151 L-4604 2139 L-4584 2128 L-4565 2118 L-4545 2109 L-4526 2100 L-4506 2091 L-4488 2083 L-4460 2072 L-4439 2061 L-4412 2048 L-4378 2034 L-4363 2022 L-4350 2012 L-4332 2003 L-4313 1995 L-4293 1987 L-4274 1977 L-4255 1968 L-4235 1958 L-4214 1950 L-4197 1942 L-4178 1933 L-4158 1924 L-4138 1914 L-4119 1902 L-4101 1890 L-4081 1877 L-4061 1865 L-4042 1852 L-4023 1839 L-4002 1824 L-3978 1808 L-3963 1792 L-3946 1777 L-3926 1763 L-3907 1748 L-3887 1733 L-3869 1716 L-3849 1701 L-3828 1686 L-3810 1671 L-3791 1656 L-3771 1643 L-3751 1629 L-3733 1616 L-3714 1604 L-3694 1591 L-3675 1581 L-3655 1570 L-3637 1559 L-3617 1549 L-3597 1538 L-3578 1527 L-3559 1517 L-3530 1506 L-3511 1496 L-3483 1486 L-3446 1473 L-3431 1462 L-3418 1451 L-3401 1441 L-3384 1433 L-3364 1427 L-3346 1420 L-3326 1414 L-3306 1408 L-3286 1402 L-3268 1395 L-3250 1388 L-3229 1380 L-3209 1373 L-3191 1364 L-3172 1356 L-3152 1347 L-3133 1337 L-3114 1327 L-3095 1318 L-3074 1309 L-3049 1299 L-3035 1289 L-3018 1280 L-2998 1270 L-2979 1261 L-2959 1251 L-2940 1240 L-2920 1230 L-2900 1220 L-2881 1210 L-2863 1201 L-2842 1192 L-2822 1184 L-2804 1176 L-2785 1168 L-2765 1160 L-2747 1152 L-2727 1143 L-2708 1136 L-2688 1128 L-2669 1121 L-2649 1113 L-2630 1106 L-2602 1098 L-2582 1090 L-2554 1081 L-2518 1069 L-2504 1058 L-2491 1048 L-2473 1038 L-2455 1033 L-2435 1026 L-2417 1019 L-2397 1011 L-2377 1003 L-2356 993 L-2338 984 L-2321 974 L-2300 963 L-2280 952 L-2262 941 L-2243 928 L-2223 916 L-2203 905 L-2185 894 L-2166 885 L-2145 878 L-2120 872 L-2105 866 L-2088 860 L-2069 854 L-2049 848 L-2030 841 L-2011 835 L-1991 829 L-1970 824 L-1953 819 L-1934 814 L-1913 807 L-1893 799 L-1876 791 L-1857 785 L-1837 780 L-1818 776 L-1798 772 L-1779 769 L-1759 765 L-1740 760 L-1721 756 L-1702 752 L-1674 747 L-1654 743 L-1626 739 L-1591 734 L-1577 729 L-1564 725 L-1545 722 L-1527 718 L-1507 715 L-1488 712 L-1469 709 L-1449 706 L-1428 703 L-1411 700 L-1392 696 L-1372 693 L-1352 689 L-1334 685 L-1315 682 L-1295 679 L-1275 676 L-1256 673 L-1238 670 L-1216 666 L-1192 664 L-1177 661 L-1160 658 L-1140 655 L-1121 652 L-1102 649 L-1083 645 L-1063 641 L-1042 638 L-1024 635 L-1005 632 L-985 629 L-964 626 L-947 623 L-928 620 L-908 618 L-889 615 L-870 612 L-851 610 L-831 608 L-811 606 L-792 604 L-773 608 L-745 611 L-725 614 L-697 617 L-660 614 L-644 612 L-632 610 L-614 608 L-598 607 L-578 605 L-560 603 L-540 601 L-520 599 L-499 598 L-482 596 L-464 594 L-443 593 L-423 591 L-405 589 L-386 587 L-366 585 L-346 583 L-328 581 L-309 580 L-288 578 L-263 577 L-249 575 L-231 573 L-212 571 L-192 569 L-173 567 L-154 565 L-134 563 L-113 560 L-96 557 L-77 555 L-56 552 L-36 550 L-18 548 L0 546 L19 544 L38 541 L58 539 L77 536 L97 534 L116 532 L136 530 L154 528 L182 526 L202 524 L230 522 L265 519 L279 517 L292 515 L311 513 L329 511 L350 509 L368 507 L387 505 L407 503 L428 501 L445 499 L464 497 L484 495 L504 493 L523 490 L541 487 L561 484 L582 480 L600 478 L618 475 L640 472 L665 469 L679 467 L697 463 L716 461 L735 458 L754 455 L774 452 L794 449 L814 447 L832 444 L851 441 L871 439 L892 437 L909 435 L928 432 L948 431 L967 429 L987 427 L1005 426 L1025 424 L1045 423 L1064 421 L1083 420 L1110 419 L1131 417 L1159 415 L1194 412 L1208 409 L1221 407 L1240 404 L1258 402 L1278 401 L1296 399 L1316 397 L1336 395 L1357 393 L1374 391 L1392 389 L1413 387 L1433 385 L1451 382 L1470 380 L1490 377 L1510 375 L1528 373 L1547 371 L1568 370 L1593 368 L1608 366 L1625 364 L1644 362 L1664 360 L1683 358 L1702 355 L1722 352 L1743 349 L1760 346 L1779 343 L1800 341 L1821 339 L1838 337 L1857 335 L1877 334 L1896 333 L1915 331 L1934 330 L1954 328 L1973 327 L1993 326 L2011 324 L2039 323 L2060 322 L2087 320 L2122 319 L2136 318 L2149 316 L2168 315 L2186 314 L2206 313 L2225 312 L2244 311 L2264 310 L2285 309 L2302 308 L2321 307 L2341 305 L2361 304 L2379 303 L2398 302 L2418 301 L2438 300 L2457 299 L2476 299 L2497 298 L2521 297 L2536 296 L2553 294 L2573 293 L2592 292 L2612 291 L2630 290 L2650 289 L2671 287 L2689 284 L2708 282 L2728 280 L2749 278 L2766 276 L2785 275 L2805 273 L2824 272 L2844 270 L2862 269 L2882 267 L2902 266 L2921 265 L2940 264 L2969 263 L3016 262 L3053 261 L3068 259 L3080 258 L3098 257 L3115 257 L3135 256 L3153 256 L3173 255 L3193 254 L3213 253 L3231 252 L3249 251 L3270 251 L3289 250 L3308 249 L3327 248 L3347 247 L3367 246 L3385 245 L3404 243 L3425 242 L3450 240 L3464 238 L3482 236 L3501 235 L3520 233 L3540 231 L3559 230 L3579 228 L3600 227 L3617 225 L3636 224 L3657 222 L3677 221 L3695 220 L3714 219 L3734 218 L3752 217 L3772 216 L3791 214 L3811 213 L3830 212 L3850 211 L3869 210 L3897 208 L3917 207 L3945 205 L3982 203 L3996 200 L4009 198 L4026 196 L4044 195 L4064 193 L4082 192 L4102 192 L4122 191 L4143 190 L4160 189 L4178 187 L4199 186 L4219 184 L4237 182 L4256 179 L4276 177 L4296 175 L4314 173 L4333 171 L4354 169 L4379 168 L4394 166 L4412 165 L4430 163 L4450 162 L4469 160 L4488 158 L4508 156 L4529 155 L4546 153 L4565 152 L4586 150 L4607 149 L4623 148 L4642 146 L4662 145 L4681 144 L4701 143 L4720 141 L4739 140 L4760 139 L4778 138 L4797 137 L4825 997 L4845 996 L4873 994 L4909 992 L4923 129 L4937 127 L4954 126 L4972 125 L4992 124 L5010 124 L5030 123 L5050 121 L5071 119 L5088 118 L5107 116 L5127 114 L5147 112 L5165 110 L5185 107 L5204 105 L5225 103 L5242 102 L5261 101 L5283 99 L5308 97 L5323 95 L5352 93 L5392 90 L5415 88 L5445 85 L5461 82 L5475 80 L5494 78 L5514 77 L5535 76 L5552 75 L5571 74 L5591 72 L5610 72 L5630 71 L5648 70 L5668 69 L5688 68 L5707 67 L5726 66 L5753 65 L5774 64 L5802 63 L5837 61 L5851 60 L5882 59 L5901 57 L5921 57 L5939 56 L5959 55 L5979 54 L6000 53 L6016 52 L6035 50 L6056 47 L6076 43 L6094 39 L6113 35 L6133 32 L6153 30 L6171 27 L6190 25 L6211 24 L6236 22 L6251 21 L6269 19 L6287 17 L6307 16 L6326 14 L6346 13 L6365 11 L6386 9 L6403 7 L6422 6 L6443 5 L6464 3 L6480 2 L6500 1" />
</svg>
