<svg xmlns="http://www.w3.org/2000/svg" version="1.1" viewBox="0 0 6500 1000">
	<path fill="none" stroke="gold" stroke-width="125" stroke-linecap="round" stroke-linejoin="round" d="M0 2347  L-721408 2347 L-718804 2346 L-717136 2346 L-698806 2346 L-698636 2346 L-691478 2346 L-691445 2346 L-678014 2346 L-675092 2346 L-661751 2345 L-657582 2345 L-656422 2344 L-655803 2344 L-653791 2343 L-650020 2343 L-649419 2343 L-649091 2343 L-648878 2342 L-648336 2342 L-647098 2341 L-645919 2340 L-643055 2339 L-642532 2339 L-637677 2338 L-634740 2338 L-634697 2338 L-634388 2338 L-634137 2337 L-631542 2337 L-627286 2337 L-627268 2337 L-626031 2337 L-624154 2337 L-622201 2337 L-621253 2337 L-620982 2336 L-620672 2336 L-620574 2336 L-619743 2336 L-617713 2336 L-617422 2335 L-615276 2335 L-615120 2334 L-611464 2333 L-611213 2334 L-611114 2334 L-610597 2334 L-608446 2335 L-607517 2335 L-605991 2336 L-604752 2336 L-603205 2336 L-600243 2335 L-599122 2335 L-598812 2335 L-597601 2335 L-594594 2336 L-594575 2336 L-594228 2336 L-594014 2336 L-593888 2334 L-593647 2334 L-593609 2334 L-593589 2333 L-593570 2333 L-593511 2333 L-593452 2333 L-593434 2333 L-592991 2332 L-591752 2332 L-590206 2332 L-586818 2332 L-581092 2332 L-580890 2331 L-579255 2331 L-577533 2331 L-576101 2331 L-575868 2331 L-575153 2331 L-569021 2331 L-568653 2331 L-568499 2330 L-567920 2330 L-567628 2330 L-566660 2330 L-566351 2329 L-565752 2329 L-564145 2329 L-563410 2329 L-563100 2329 L-562332 2329 L-560296 2329 L-559871 2329 L-559058 2329 L-551630 2328 L-551107 2328 L-550933 2328 L-550198 2328 L-548630 2328 L-548225 2327 L-546000 2327 L-545052 2327 L-544627 2327 L-544296 2327 L-543253 2327 L-541145 2327 L-540892 2326 L-540274 2326 L-539461 2326 L-537353 2326 L-537304 2326 L-535376 2325 L-535051 2325 L-534915 2325 L-534412 2325 L-533000 2325 L-532497 2324 L-531975 2324 L-528415 2323 L-527680 2323 L-525255 2323 L-523966 2323 L-523559 2323 L-520406 2323 L-520252 2323 L-520231 2323 L-519865 2323 L-518607 2323 L-517892 2323 L-517002 2323 L-516595 2323 L-515666 2323 L-514558 2323 L-514254 2323 L-508005 2323 L-507058 2324 L-505432 2324 L-504930 2324 L-501254 2324 L-500422 2324 L-496469 2324 L-495057 2324 L-492568 2324 L-491891 2324 L-491853 2323 L-490982 2323 L-487771 2323 L-484908 2323 L-483940 2323 L-482818 2323 L-482799 2323 L-481174 2322 L-480710 2322 L-480618 2322 L-474249 2322 L-473300 2322 L-470843 2322 L-469971 2321 L-468735 2321 L-466734 2321 L-466336 2321 L-464900 2321 L-462874 2321 L-462660 2320 L-461480 2320 L-459972 2320 L-459952 2320 L-457939 2320 L-457070 2320 L-456199 2320 L-455614 2319 L-455077 2319 L-454419 2319 L-453181 2319 L-452621 2318 L-451440 2318 L-450202 2318 L-450163 2318 L-449777 2318 L-449235 2318 L-448461 2318 L-447339 2318 L-445250 2317 L-444916 2317 L-444631 2317 L-443702 2317 L-443219 2317 L-442483 2316 L-438852 2316 L-437725 2316 L-437570 2316 L-436544 2316 L-432829 2316 L-431612 2316 L-429793 2315 L-427008 2315 L-426446 2315 L-422558 2315 L-420082 2315 L-418747 2315 L-418243 2315 L-417760 2315 L-415071 2315 L-411299 2315 L-408842 2315 L-407662 2315 L-407023 2314 L-404663 2314 L-404586 2314 L-403539 2314 L-403445 2314 L-402942 2314 L-402497 2314 L-402439 2314 L-402225 2314 L-399266 2314 L-396558 2313 L-396403 2313 L-392883 2313 L-392360 2313 L-391392 2313 L-391043 2313 L-390000 2312 L-389071 2312 L-388645 2312 L-387136 2312 L-386169 2312 L-386150 2312 L-384255 2303 L-384139 2295 L-384091 2286 L-384066 2278 L-381062 2278 L-379031 2278 L-377271 2277 L-376903 2277 L-376458 2277 L-376091 2277 L-375677 2277 L-373692 2277 L-373479 2277 L-373324 2277 L-371719 2277 L-370597 2276 L-369649 2276 L-368391 2276 L-366747 2276 L-365567 2276 L-358978 2276 L-358931 2276 L-358525 2275 L-357480 2275 L-357345 2275 L-355662 2275 L-355642 2275 L-354306 2275 L-353069 2275 L-352915 2274 L-352541 2274 L-352335 2274 L-352025 2274 L-351252 2274 L-348930 2274 L-348272 2273 L-346145 2273 L-344422 2273 L-344229 2273 L-341675 2273 L-341399 2273 L-341211 2272 L-340378 2272 L-339606 2272 L-338908 2272 L-333907 2272 L-333531 2272 L-329278 2272 L-328791 2283 L-328772 2283 L-328693 2283 L-328618 2283 L-328598 2271 L-327785 2271 L-327031 2271 L-325812 2271 L-324380 2271 L-324284 2271 L-324110 2271 L-323755 2270 L-322446 2270 L-320589 2270 L-318886 2270 L-318384 2270 L-318118 2270 L-317725 2270 L-317591 2269 L-316681 2269 L-316305 2269 L-315376 2269 L-315037 2269 L-314998 2269 L-314960 2269 L-313044 2269 L-312871 2269 L-311342 2269 L-311014 2269 L-310898 2269 L-310490 2268 L-310142 2268 L-308499 2268 L-307948 2268 L-307705 2268 L-307163 2268 L-306332 2268 L-305790 2267 L-304256 2267 L-304163 2267 L-304127 2267 L-303991 2267 L-303603 2267 L-302579 2267 L-300702 2266 L-300606 2266 L-300006 2270 L-299638 2274 L-299154 2278 L-299116 2282 L-298342 2282 L-298285 2282 L-298110 2282 L-297916 2282 L-296311 2281 L-296291 2281 L-296136 2281 L-296021 2282 L-294841 2282 L-294686 2282 L-294019 2282 L-291571 2291 L-289056 2301 L-286386 2310 L-278687 2320 L-273019 2320 L-270805 2320 L-270782 2320 L-269808 2322 L-269788 2322 L-268924 2322 L-266184 2321 L-260385 2319 L-260232 2319 L-257446 2319 L-243838 2318 L-243092 2318 L-238681 2318 L-222335 2318 L-222103 2318 L-221566 2318 L-213106 2318 L-204401 2317 L-204188 2317 L-202216 2317 L-199430 2317 L-194942 2317 L-194787 2317 L-194618 2317 L-194478 2317 L-194187 2317 L-194148 2317 L-193878 2317 L-193706 2317 L-193296 2316 L-192175 2316 L-190995 2316 L-189718 2316 L-186854 2316 L-183934 2316 L-181942 2316 L-180394 2316 L-177356 2315 L-168032 2315 L-167508 2315 L-161784 2315 L-160277 2315 L-159463 2315 L-157779 2315 L-157058 2315 L-156889 2315 L-155844 2314 L-153777 2314 L-152415 2314 L-147972 2314 L-147875 2314 L-147836 2314 L-147817 2314 L-146984 2314 L-146907 2313 L-144334 2313 L-141085 2313 L-140930 2313 L-139982 2313 L-138241 2313 L-137525 2313 L-133985 2314 L-127407 2315 L-125990 2316 L-125969 2316 L-125019 2315 L-121544 2315 L-120791 2315 L-120229 2315 L-119447 2315 L-111943 2315 L-110345 2315 L-108771 2314 L-105586 2314 L-101252 2314 L-92683 2314 L-83936 2314 L-80863 2314 L-77597 2314 L-77050 2314 L-69913 2314 L-64245 2314 L-50181 2314 L-44169 2314 L-39463 2314 L-35460 2313 L-30352 2313 L-20638 2313 L-5068 2313 L-1985 2313 L-1683 2261 L-1663 2198 L-1644 2126 L-1625 2045 L-1605 2008 L-1586 1977 L-1567 1949 L-1539 1921 L-1519 1893 L-1491 1864 L-1455 1833 L-1442 1806 L-1429 1782 L-1410 1763 L-1392 1749 L-1372 1735 L-1354 1720 L-1334 1705 L-1314 1691 L-1293 1675 L-1276 1660 L-1258 1646 L-1237 1632 L-1217 1618 L-1199 1602 L-1180 1587 L-1160 1570 L-1140 1555 L-1122 1539 L-1103 1525 L-1081 1511 L-1057 1497 L-1042 1483 L-1025 1470 L-1005 1457 L-986 1444 L-967 1430 L-948 1415 L-928 1402 L-907 1389 L-889 1376 L-871 1365 L-850 1353 L-829 1343 L-812 1334 L-793 1325 L-773 1316 L-754 1308 L-735 1300 L-716 1293 L-696 1286 L-676 1280 L-657 1274 L-639 1268 L-611 1260 L-590 1252 L-562 1243 L-528 1234 L-514 1225 L-501 1218 L-482 1212 L-463 1206 L-444 1200 L-425 1194 L-406 1187 L-386 1180 L-365 1174 L-348 1168 L-329 1162 L-309 1156 L-289 1149 L-270 1141 L-252 1132 L-232 1123 L-212 1114 L-193 1105 L-174 1096 L-153 1085 L-129 1074 L-114 1063 L-97 1052 L-77 1042 L-58 1031 L-38 1021 L-19 1009 L0 998 L20 987 L38 977 L57 967 L77 957 L98 947 L115 938 L134 930 L154 921 L173 914 L193 906 L212 898 L232 891 L251 883 L270 875 L289 868 L318 860 L338 853 L365 846 L403 838 L418 829 L430 822 L447 815 L464 809 L484 804 L503 800 L522 796 L542 792 L563 787 L580 782 L599 777 L619 772 L639 766 L657 761 L676 755 L696 748 L716 741 L735 734 L753 728 L774 721 L799 714 L813 708 L831 701 L851 694 L870 687 L889 680 L908 673 L928 666 L948 659 L967 652 L986 645 L1006 639 L1026 633 L1044 628 L1063 622 L1083 616 L1102 610 L1121 604 L1140 599 L1160 594 L1179 588 L1199 583 L1218 578 L1246 572 L1266 567 L1294 561 L1330 552 L1344 544 L1357 537 L1375 530 L1393 526 L1413 522 L1431 516 L1451 511 L1471 505 L1492 499 L1510 492 L1527 485 L1548 477 L1568 469 L1586 461 L1605 453 L1625 444 L1645 436 L1663 428 L1682 422 L1703 417 L1728 413 L1743 409 L1760 405 L1779 400 L1799 396 L1818 391 L1837 387 L1857 382 L1878 379 L1895 376 L1914 372 L1935 367 L1956 361 L1972 355 L1992 351 L2012 348 L2030 345 L2050 342 L2069 340 L2089 337 L2108 334 L2127 331 L2146 328 L2174 325 L2195 322 L2222 319 L2257 315 L2271 312 L2284 309 L2303 306 L2321 304 L2341 302 L2360 300 L2379 297 L2399 295 L2420 293 L2437 291 L2456 289 L2477 286 L2496 283 L2515 281 L2533 278 L2553 276 L2574 274 L2592 272 L2611 270 L2632 268 L2657 265 L2671 263 L2688 262 L2708 260 L2727 257 L2747 255 L2766 253 L2785 250 L2806 248 L2824 245 L2843 243 L2863 241 L2884 239 L2901 237 L2920 235 L2940 233 L2959 231 L2979 229 L2997 228 L3017 227 L3037 225 L3056 224 L3075 226 L3104 228 L3123 231 L3151 233 L3189 231 L3204 229 L3216 228 L3234 226 L3250 225 L3270 224 L3288 223 L3308 221 L3328 220 L3349 219 L3366 218 L3384 217 L3405 215 L3425 214 L3443 213 L3462 211 L3482 210 L3502 209 L3520 207 L3539 206 L3560 205 L3585 204 L3600 203 L3617 201 L3637 200 L3656 199 L3675 197 L3694 196 L3714 194 L3735 192 L3752 190 L3771 189 L3792 187 L3812 186 L3830 184 L3849 182 L3869 181 L3888 179 L3907 177 L3926 176 L3946 174 L3966 172 L3985 171 L4003 170 L4031 168 L4052 167 L4080 165 L4114 163 L4128 162 L4141 160 L4160 159 L4179 158 L4199 156 L4217 155 L4237 154 L4256 152 L4277 151 L4294 149 L4313 148 L4334 146 L4354 145 L4372 143 L4391 141 L4410 138 L4431 136 L4449 134 L4468 132 L4489 130 L4514 128 L4529 126 L4546 124 L4565 122 L4585 120 L4604 118 L4623 116 L4643 114 L4664 112 L4681 110 L4700 109 L4721 107 L4741 105 L4758 104 L4777 102 L4797 101 L4816 100 L4836 99 L4855 97 L4874 96 L4894 95 L4913 94 L4932 94 L4960 92 L4980 91 L5008 90 L5044 88 L5057 86 L5070 84 L5089 82 L5107 81 L5127 80 L5145 78 L5165 77 L5185 76 L5206 75 L5223 73 L5241 72 L5262 70 L5282 68 L5300 67 L5319 65 L5339 63 L5359 62 L5377 60 L5396 59 L5418 58 L5443 57 L5457 55 L5474 54 L5494 53 L5513 51 L5532 49 L5551 48 L5571 45 L5592 43 L5610 41 L5629 39 L5649 38 L5670 36 L5687 35 L5706 34 L5726 33 L5745 32 L5764 31 L5783 30 L5803 29 L5823 28 L5842 27 L5861 26 L5888 25 L5909 24 L5937 23 L5971 22 L5985 21 L5998 20 L6017 19 L6036 19 L6055 18 L6074 17 L6093 16 L6113 16 L6134 15 L6151 14 L6170 14 L6190 13 L6210 12 L6229 11 L6247 10 L6267 9 L6288 9 L6306 8 L6325 8 L6346 7 L6370 6 L6385 6 L6402 5 L6422 4 L6441 3 L6461 2 L6480 2 L6500 1" />
</svg>
