<svg xmlns="http://www.w3.org/2000/svg" version="1.1" viewBox="0 0 6500 1000">
	<path fill="none" stroke="gold" stroke-width="125" stroke-linecap="round" stroke-linejoin="round" d="M0 1032  L-714191 1032 L-711587 1032 L-709919 1032 L-691590 1032 L-691420 1032 L-684262 1032 L-684229 1032 L-670798 1031 L-667876 1032 L-654535 1031 L-650366 1031 L-649206 1030 L-648587 1030 L-646575 1029 L-642803 1029 L-642203 1029 L-641874 1029 L-641661 1028 L-641120 1028 L-639882 1027 L-638703 1026 L-635838 1025 L-635316 1025 L-630461 1024 L-627523 1024 L-627480 1024 L-627172 1024 L-626920 1023 L-624325 1023 L-620070 1023 L-620052 1023 L-618815 1023 L-616938 1023 L-614984 1023 L-614036 1023 L-613765 1023 L-613456 1022 L-613357 1022 L-612527 1022 L-610496 1022 L-610206 1021 L-608059 1021 L-607904 1020 L-604248 1020 L-603997 1020 L-603898 1020 L-603381 1020 L-601230 1021 L-600301 1021 L-598775 1022 L-597535 1022 L-595989 1022 L-593027 1022 L-591905 1021 L-591596 1021 L-590385 1021 L-587378 1022 L-587359 1022 L-587011 1022 L-586798 1022 L-586672 1020 L-586430 1020 L-586392 1020 L-586373 1020 L-586353 1019 L-586294 1019 L-586236 1019 L-586218 1019 L-585775 1019 L-584535 1018 L-582990 1018 L-579602 1018 L-573876 1018 L-573674 1018 L-572038 1018 L-570316 1017 L-568884 1017 L-568652 1017 L-567937 1017 L-561804 1017 L-561437 1017 L-561282 1017 L-560704 1016 L-560411 1016 L-559444 1016 L-559134 1016 L-558535 1015 L-556929 1015 L-556194 1015 L-555884 1016 L-555116 1016 L-553080 1015 L-552654 1015 L-551842 1015 L-544413 1015 L-543890 1014 L-543717 1014 L-542982 1014 L-541414 1014 L-541008 1014 L-538783 1013 L-537835 1013 L-537410 1013 L-537080 1013 L-536036 1013 L-533928 1013 L-533676 1013 L-533057 1012 L-532244 1012 L-530137 1012 L-530088 1012 L-528160 1012 L-527834 1011 L-527699 1011 L-527196 1011 L-525783 1011 L-525280 1010 L-524759 1010 L-521199 1010 L-520464 1009 L-518039 1009 L-516750 1009 L-516343 1009 L-513190 1009 L-513035 1009 L-513015 1009 L-512648 1009 L-511390 1009 L-510675 1009 L-509785 1009 L-509378 1009 L-508450 1009 L-507341 1009 L-507038 1010 L-500789 1010 L-499842 1010 L-498216 1010 L-497714 1010 L-494038 1010 L-493206 1011 L-489253 1011 L-487841 1010 L-485352 1010 L-484675 1010 L-484636 1010 L-483766 1010 L-480554 1010 L-477691 1010 L-476723 1009 L-475602 1009 L-475583 1009 L-473958 1009 L-473494 1008 L-473402 1008 L-467032 1008 L-466084 1008 L-463627 1008 L-462755 1008 L-461519 1008 L-459517 1008 L-459120 1007 L-457683 1007 L-455657 1007 L-455444 1007 L-454264 1007 L-452756 1007 L-452735 1006 L-450723 1006 L-449854 1006 L-448983 1006 L-448398 1006 L-447861 1006 L-447203 1005 L-445965 1005 L-445404 1005 L-444223 1005 L-442986 1005 L-442947 1005 L-442560 1005 L-442019 1004 L-441245 1004 L-440123 1004 L-438033 1004 L-437700 1004 L-437414 1003 L-436486 1003 L-436002 1003 L-435267 1003 L-431636 1003 L-430508 1003 L-430353 1003 L-429327 1002 L-425613 1002 L-424395 1002 L-422577 1002 L-419791 1002 L-419230 1001 L-415342 1001 L-412865 1001 L-411530 1001 L-411027 1001 L-410544 1001 L-407855 1001 L-404083 1001 L-401626 1001 L-400446 1001 L-399807 1001 L-397447 1001 L-397370 1001 L-396322 1001 L-396229 1000 L-395726 1000 L-395280 1000 L-395223 1000 L-395009 1000 L-392049 1000 L-389342 1000 L-389187 1000 L-385666 1000 L-385143 1000 L-384176 999 L-383827 999 L-382783 999 L-381855 999 L-381429 999 L-379920 999 L-378953 999 L-378934 998 L-377038 990 L-376922 982 L-376874 974 L-376850 965 L-373846 965 L-371815 965 L-370054 965 L-369687 965 L-369242 964 L-368875 964 L-368461 964 L-366476 964 L-366263 964 L-366108 964 L-364502 964 L-363381 964 L-362432 964 L-361175 963 L-359530 963 L-358351 963 L-351761 963 L-351715 963 L-351309 963 L-350264 963 L-350128 963 L-348446 962 L-348426 962 L-347089 962 L-345853 962 L-345699 962 L-345325 962 L-345119 961 L-344809 961 L-344035 961 L-341714 961 L-341056 961 L-338928 961 L-337206 961 L-337012 960 L-334459 960 L-334183 960 L-333994 960 L-333162 960 L-332389 960 L-331691 960 L-326691 960 L-326315 959 L-322062 959 L-321575 970 L-321556 970 L-321477 970 L-321401 970 L-321382 959 L-320569 959 L-319815 958 L-318596 958 L-317164 958 L-317068 958 L-316893 958 L-316539 958 L-315230 958 L-313372 958 L-311670 957 L-311167 957 L-310902 957 L-310509 957 L-310375 957 L-309465 957 L-309088 957 L-308160 957 L-307821 957 L-307781 957 L-307744 956 L-305828 956 L-305654 956 L-304126 956 L-303797 956 L-303681 956 L-303274 956 L-302926 956 L-301282 956 L-300731 955 L-300488 955 L-299947 955 L-299116 955 L-298574 955 L-297039 955 L-296947 955 L-296910 954 L-296774 954 L-296387 954 L-295362 954 L-293486 954 L-293390 954 L-292789 958 L-292422 961 L-291938 965 L-291899 969 L-291126 969 L-291068 969 L-290894 969 L-290700 969 L-289095 969 L-289075 968 L-288920 969 L-288804 969 L-287625 969 L-287470 969 L-286803 969 L-284355 978 L-281840 988 L-279170 997 L-271471 1006 L-265803 1006 L-263589 1006 L-263565 1006 L-262591 1008 L-262571 1008 L-261708 1008 L-258968 1008 L-253169 1006 L-253016 1005 L-250230 1005 L-236621 1005 L-235876 1005 L-231465 1005 L-215119 1005 L-214886 1004 L-214349 1004 L-205890 1004 L-197184 1004 L-196972 1004 L-194999 1004 L-192213 1004 L-187726 1004 L-187571 1004 L-187402 1004 L-187262 1004 L-186971 1003 L-186932 1003 L-186661 1003 L-186490 1003 L-186080 1003 L-184959 1003 L-183779 1003 L-182502 1003 L-179638 1002 L-176718 1002 L-174726 1002 L-173178 1002 L-170140 1002 L-160816 1002 L-160292 1002 L-154568 1002 L-153061 1002 L-152246 1002 L-150563 1001 L-149842 1001 L-149673 1001 L-148628 1001 L-146561 1001 L-145199 1001 L-140755 1001 L-140658 1001 L-140620 1000 L-140601 1000 L-139768 1000 L-139690 1000 L-137118 1000 L-133869 1000 L-133714 1000 L-132765 1000 L-131024 999 L-130309 1000 L-126768 1001 L-120191 1001 L-118774 1002 L-118753 1002 L-117802 1002 L-114328 1002 L-113575 1002 L-113013 1001 L-112231 1001 L-104727 1001 L-103129 1001 L-101555 1001 L-98369 1001 L-94036 1001 L-85466 1001 L-76720 1001 L-73646 1001 L-70380 1000 L-69834 1000 L-62697 1000 L-57029 1000 L-42964 1000 L-36953 1000 L-32247 1000 L-28243 1000 L-23136 1000 L-13422 1000 L2148 999 L5230 999 L5533 949 L5552 887 L5571 816 L5591 737 L5610 701 L5630 671 L5648 643 L5676 615 L5697 588 L5725 560 L5760 529 L5773 503 L5787 480 L5805 461 L5824 447 L5844 433 L5862 419 L5881 404 L5901 390 L5922 375 L5939 360 L5958 346 L5978 332 L5998 319 L6017 304 L6035 288 L6055 272 L6075 257 L6094 242 L6113 227 L6134 214 L6159 200 L6173 187 L6190 174 L6210 161 L6230 148 L6249 134 L6267 120 L6288 107 L6308 94 L6326 82 L6345 70 L6365 60 L6386 49 L6403 40 L6422 32 L6442 23 L6461 15 L6481 7 L6500 0" />
</svg>
