<svg xmlns="http://www.w3.org/2000/svg" version="1.1" viewBox="0 0 6500 1000">
	<path fill="none" stroke="gold" stroke-width="125" stroke-linecap="round" stroke-linejoin="round" d="M0 1015  L-718700 1015 L-716096 1015 L-714428 1015 L-696099 1015 L-695928 1015 L-688771 1015 L-688737 1015 L-675306 1015 L-672385 1015 L-659044 1015 L-654875 1015 L-653715 1014 L-653096 1014 L-651084 1014 L-647312 1014 L-646712 1014 L-646383 1014 L-646170 1013 L-645628 1013 L-644390 1013 L-643211 1013 L-640347 1012 L-639825 1012 L-634969 1012 L-632032 1011 L-631989 1011 L-631681 1011 L-631429 1011 L-628834 1011 L-624579 1011 L-624561 1011 L-623324 1011 L-621446 1011 L-619493 1011 L-618545 1011 L-618274 1011 L-617964 1011 L-617866 1011 L-617036 1011 L-615005 1011 L-614714 1010 L-612568 1010 L-612413 1010 L-608756 1009 L-608505 1009 L-608407 1009 L-607890 1010 L-605738 1010 L-604810 1010 L-603284 1010 L-602044 1010 L-600498 1010 L-597536 1010 L-596414 1010 L-596105 1010 L-594894 1010 L-591887 1011 L-591867 1010 L-591520 1010 L-591307 1010 L-591180 1010 L-590939 1009 L-590901 1009 L-590881 1009 L-590862 1009 L-590803 1009 L-590745 1009 L-590726 1009 L-590283 1009 L-589044 1009 L-587498 1009 L-584111 1008 L-578384 1008 L-578183 1008 L-576547 1008 L-574825 1008 L-573393 1008 L-573161 1008 L-572445 1008 L-566313 1008 L-565945 1008 L-565791 1008 L-565213 1008 L-564920 1008 L-563953 1007 L-563643 1007 L-563044 1007 L-561438 1007 L-560703 1007 L-560393 1007 L-559625 1007 L-557588 1007 L-557163 1007 L-556351 1007 L-548922 1007 L-548399 1007 L-548225 1007 L-547490 1007 L-545923 1006 L-545517 1006 L-543292 1006 L-542344 1006 L-541919 1006 L-541589 1006 L-540545 1006 L-538437 1006 L-538185 1006 L-537566 1006 L-536753 1006 L-534645 1006 L-534597 1006 L-532669 1005 L-532343 1005 L-532208 1005 L-531705 1005 L-530292 1005 L-529789 1005 L-529267 1005 L-525708 1004 L-524973 1004 L-522548 1004 L-521258 1004 L-520851 1004 L-517699 1004 L-517544 1004 L-517524 1004 L-517157 1004 L-515899 1004 L-515184 1004 L-514294 1004 L-513887 1004 L-512958 1004 L-511850 1004 L-511547 1004 L-505298 1005 L-504350 1005 L-502724 1005 L-502223 1005 L-498547 1005 L-497714 1005 L-493761 1005 L-492350 1005 L-489860 1005 L-489184 1005 L-489145 1005 L-488274 1005 L-485063 1004 L-482200 1004 L-481232 1004 L-480110 1004 L-480091 1004 L-478466 1004 L-478002 1004 L-477910 1004 L-471541 1004 L-470593 1004 L-468136 1004 L-467263 1004 L-466027 1004 L-464026 1003 L-463628 1003 L-462192 1003 L-460166 1003 L-459953 1003 L-458773 1003 L-457264 1003 L-457244 1003 L-455232 1003 L-454362 1003 L-453491 1003 L-452907 1003 L-452369 1002 L-451712 1002 L-450474 1002 L-449913 1002 L-448732 1002 L-447494 1002 L-447456 1002 L-447069 1002 L-446527 1002 L-445753 1002 L-444631 1002 L-442542 1002 L-442209 1002 L-441923 1001 L-440994 1001 L-440511 1001 L-439776 1001 L-436144 1001 L-435017 1001 L-434862 1001 L-433836 1001 L-430121 1001 L-428904 1001 L-427086 1001 L-424300 1001 L-423738 1001 L-419851 1001 L-417374 1001 L-416039 1001 L-415536 1000 L-415053 1000 L-412363 1000 L-408592 1000 L-406134 1000 L-404955 1000 L-404315 1000 L-401956 1000 L-401878 1000 L-400831 1000 L-400737 1000 L-400234 1000 L-399789 1000 L-399731 1000 L-399518 1000 L-396558 1000 L-393851 1000 L-393696 1000 L-390175 1000 L-389652 1000 L-388685 1000 L-388336 999 L-387292 999 L-386363 999 L-385938 999 L-384429 999 L-383462 999 L-383443 999 L-381547 995 L-381431 991 L-381383 987 L-381359 983 L-378354 983 L-376324 983 L-374563 983 L-374196 983 L-373750 983 L-373383 983 L-372969 983 L-370984 983 L-370771 983 L-370616 983 L-369011 983 L-367889 982 L-366941 982 L-365684 982 L-364039 982 L-362859 982 L-356270 982 L-356223 982 L-355818 982 L-354773 982 L-354637 982 L-352955 982 L-352935 982 L-351598 982 L-350362 982 L-350207 981 L-349834 981 L-349627 981 L-349318 981 L-348544 981 L-346222 981 L-345565 981 L-343437 981 L-341714 981 L-341521 981 L-338968 981 L-338691 981 L-338503 981 L-337671 981 L-336898 980 L-336200 980 L-331200 980 L-330824 980 L-326571 980 L-326084 986 L-326064 986 L-325985 986 L-325910 985 L-325890 980 L-325078 980 L-324324 980 L-323105 980 L-321673 980 L-321576 980 L-321402 980 L-321048 980 L-319738 980 L-317881 980 L-316179 979 L-315676 979 L-315411 979 L-315017 979 L-314883 979 L-313973 979 L-313597 979 L-312669 979 L-312329 979 L-312290 979 L-312252 979 L-310337 979 L-310163 979 L-308634 979 L-308306 979 L-308190 979 L-307783 979 L-307435 979 L-305791 979 L-305240 978 L-304997 978 L-304456 978 L-303624 978 L-303083 978 L-301548 978 L-301456 978 L-301419 978 L-301283 978 L-300896 978 L-299871 978 L-297994 978 L-297898 978 L-297298 979 L-296931 981 L-296446 983 L-296408 985 L-295634 985 L-295577 985 L-295402 985 L-295209 985 L-293603 985 L-293583 985 L-293428 985 L-293313 985 L-292133 985 L-291979 985 L-291312 985 L-288863 990 L-286349 994 L-283679 998 L-275980 1003 L-270312 1003 L-268097 1003 L-268074 1003 L-267100 1004 L-267080 1004 L-266216 1004 L-263476 1004 L-257678 1002 L-257524 1002 L-254738 1002 L-241130 1002 L-240384 1002 L-235973 1002 L-219627 1002 L-219395 1002 L-218858 1002 L-210399 1002 L-201693 1002 L-201481 1002 L-199508 1002 L-196722 1002 L-192235 1002 L-192080 1002 L-191911 1002 L-191770 1002 L-191480 1001 L-191441 1001 L-191170 1001 L-190998 1001 L-190588 1001 L-189468 1001 L-188287 1001 L-187011 1001 L-184147 1001 L-181227 1001 L-179234 1001 L-177687 1001 L-174649 1001 L-165324 1001 L-164800 1001 L-159077 1001 L-157570 1001 L-156755 1001 L-155071 1001 L-154350 1000 L-154182 1000 L-153137 1000 L-151069 1000 L-149707 1000 L-145264 1000 L-145167 1000 L-145128 1000 L-145109 1000 L-144277 1000 L-144199 1000 L-141627 1000 L-138377 1000 L-138223 1000 L-137274 1000 L-135533 1000 L-134818 1000 L-131277 1000 L-124700 1000 L-123282 1001 L-123262 1001 L-122311 1001 L-118837 1001 L-118084 1001 L-117522 1001 L-116740 1001 L-109236 1000 L-107637 1000 L-106063 1000 L-102878 1000 L-98545 1000 L-89975 1000 L-81229 1000 L-78155 1000 L-74889 1000 L-74342 1000 L-67205 1000 L-61538 1000 L-47473 1000 L-41462 1000 L-36755 1000 L-32752 1000 L-27645 1000 L-17931 1000 L-2360 1000 L722 999 L1024 975 L1043 945 L1062 911 L1082 874 L1102 856 L1121 842 L1140 828 L1167 815 L1188 802 L1216 789 L1251 774 L1265 761 L1278 750 L1296 741 L1315 734 L1335 728 L1353 721 L1373 714 L1393 707 L1414 700 L1431 693 L1449 686 L1470 679 L1490 673 L1508 666 L1527 658 L1547 650 L1567 643 L1585 636 L1604 629 L1625 622 L1650 616 L1665 610 L1682 603 L1701 597 L1721 591 L1740 584 L1759 578 L1779 571 L1799 565 L1817 559 L1836 554 L1857 548 L1877 544 L1894 539 L1913 535 L1933 531 L1952 527 L1972 523 L1991 520 L2011 517 L2030 514 L2050 511 L2068 508 L2096 505 L2116 501 L2144 497 L2178 492 L2192 488 L2206 485 L2224 482 L2243 479 L2263 476 L2282 473 L2301 470 L2321 467 L2342 464 L2359 461 L2378 458 L2398 456 L2418 452 L2436 448 L2455 444 L2475 440 L2495 436 L2514 432 L2532 427 L2554 422 L2578 417 L2593 412 L2610 407 L2630 402 L2649 397 L2669 392 L2687 387 L2707 381 L2728 376 L2746 371 L2765 367 L2785 362 L2805 357 L2823 353 L2842 349 L2862 345 L2881 342 L2901 338 L2919 334 L2939 331 L2959 327 L2978 324 L2997 320 L3026 317 L3045 313 L3073 310 L3110 306 L3125 302 L3138 298 L3155 295 L3172 293 L3192 290 L3210 288 L3229 286 L3250 284 L3270 282 L3287 280 L3306 277 L3327 275 L3346 272 L3365 270 L3384 267 L3404 264 L3423 261 L3442 257 L3461 254 L3482 251 L3506 248 L3521 245 L3538 242 L3558 238 L3577 235 L3597 232 L3616 228 L3636 225 L3656 222 L3674 218 L3693 215 L3713 213 L3734 210 L3752 207 L3771 204 L3791 202 L3809 199 L3829 196 L3848 194 L3868 191 L3887 189 L3907 186 L3925 184 L3954 181 L3974 179 L4002 176 L4038 172 L4052 168 L4065 164 L4083 161 L4101 159 L4121 157 L4139 155 L4159 152 L4178 150 L4200 146 L4218 143 L4235 140 L4256 137 L4276 133 L4294 129 L4313 125 L4333 121 L4353 117 L4371 113 L4390 110 L4411 108 L4436 106 L4450 104 L4468 102 L4487 100 L4507 98 L4526 96 L4545 94 L4565 92 L4586 90 L4603 89 L4622 87 L4642 84 L4663 82 L4680 79 L4699 77 L4719 76 L4738 74 L4758 73 L4777 72 L4796 71 L4816 69 L4835 67 L4854 66 L4881 65 L4902 63 L4930 62 L4965 60 L4979 59 L4992 57 L5011 56 L5029 55 L5049 54 L5067 53 L5087 52 L5107 51 L5128 50 L5145 49 L5163 48 L5184 47 L5204 45 L5222 44 L5241 43 L5261 42 L5281 41 L5299 40 L5318 39 L5340 38 L5364 37 L5379 36 L5396 35 L5416 34 L5435 33 L5454 32 L5473 31 L5493 30 L5514 28 L5532 27 L5550 26 L5571 25 L5591 25 L5609 24 L5628 23 L5648 22 L5667 21 L5686 20 L5705 19 L5725 19 L5744 18 L5764 17 L5782 18 L5811 19 L5831 21 L5859 22 L5896 21 L5911 20 L5924 19 L5942 18 L5958 18 L5978 17 L5996 17 L6016 16 L6035 16 L6057 15 L6073 14 L6092 14 L6113 13 L6133 13 L6151 12 L6170 11 L6190 11 L6210 10 L6228 10 L6247 9 L6268 9 L6293 8 L6307 7 L6325 7 L6344 6 L6364 5 L6383 5 L6402 4 L6422 3 L6443 3 L6460 2 L6479 1 L6500 0" />
</svg>
