<svg xmlns="http://www.w3.org/2000/svg" version="1.1" viewBox="0 0 6500 1000">
	<path fill="none" stroke="gold" stroke-width="125" stroke-linecap="round" stroke-linejoin="round" d="M0 3349  L-727637 3349 L-725033 3349 L-723365 3348 L-705035 3348 L-704865 3348 L-697707 3347 L-697674 3347 L-684243 3347 L-681321 3347 L-667981 3347 L-663812 3346 L-662652 3346 L-662032 3345 L-660021 3345 L-656249 3344 L-655649 3344 L-655320 3344 L-655107 3343 L-654565 3343 L-653327 3342 L-652148 3341 L-649284 3340 L-648762 3338 L-643906 3338 L-640969 3338 L-640926 3338 L-640618 3337 L-640366 3337 L-637771 3337 L-633515 3337 L-633497 3337 L-632261 3337 L-630383 3337 L-628430 3336 L-627482 3336 L-627211 3336 L-626901 3336 L-626803 3336 L-625973 3336 L-623942 3336 L-623651 3334 L-621505 3334 L-621350 3333 L-617693 3332 L-617442 3332 L-617344 3332 L-616826 3333 L-614675 3333 L-613746 3334 L-612220 3335 L-610981 3335 L-609434 3335 L-606473 3334 L-605351 3334 L-605042 3334 L-603830 3334 L-600824 3335 L-600804 3335 L-600457 3335 L-600244 3335 L-600117 3333 L-599876 3333 L-599838 3332 L-599818 3332 L-599799 3332 L-599740 3331 L-599681 3331 L-599663 3331 L-599220 3331 L-597981 3330 L-596435 3330 L-593047 3330 L-587321 3330 L-587120 3329 L-585484 3329 L-583762 3329 L-582330 3329 L-582097 3329 L-581382 3329 L-575250 3329 L-574882 3328 L-574728 3328 L-574149 3328 L-573857 3327 L-572889 3327 L-572580 3327 L-571981 3326 L-570375 3326 L-569640 3326 L-569330 3327 L-568561 3327 L-566525 3326 L-566100 3326 L-565287 3326 L-557859 3326 L-557336 3325 L-557162 3325 L-556427 3325 L-554860 3324 L-554454 3324 L-552229 3324 L-551281 3324 L-550856 3324 L-550526 3324 L-549482 3324 L-547374 3323 L-547122 3323 L-546503 3323 L-545690 3323 L-543582 3322 L-543534 3322 L-541605 3322 L-541280 3321 L-541145 3321 L-540642 3321 L-539229 3321 L-538726 3320 L-538204 3320 L-534644 3319 L-533909 3318 L-531485 3318 L-530195 3318 L-529788 3318 L-526636 3318 L-526481 3318 L-526461 3318 L-526094 3318 L-524836 3318 L-524121 3318 L-523231 3318 L-522824 3318 L-521895 3318 L-520787 3318 L-520483 3319 L-514235 3319 L-513287 3319 L-511661 3320 L-511159 3320 L-507484 3320 L-506651 3320 L-502698 3320 L-501286 3320 L-498797 3320 L-498121 3319 L-498082 3319 L-497211 3319 L-494000 3319 L-491137 3319 L-490169 3319 L-489047 3318 L-489028 3318 L-487403 3318 L-486939 3317 L-486847 3317 L-480478 3317 L-479530 3317 L-477072 3317 L-476200 3317 L-474964 3316 L-472963 3316 L-472565 3316 L-471129 3316 L-469103 3316 L-468890 3315 L-467709 3315 L-466201 3315 L-466181 3315 L-464169 3315 L-463299 3314 L-462428 3314 L-461843 3314 L-461306 3314 L-460649 3313 L-459410 3313 L-458850 3313 L-457669 3313 L-456431 3313 L-456393 3312 L-456006 3312 L-455464 3312 L-454690 3312 L-453568 3312 L-451479 3311 L-451145 3311 L-450860 3311 L-449931 3311 L-449448 3310 L-448713 3310 L-445081 3310 L-443954 3310 L-443799 3310 L-442773 3310 L-439058 3309 L-437841 3309 L-436022 3309 L-433237 3309 L-432675 3308 L-428787 3308 L-426311 3308 L-424976 3308 L-424472 3308 L-423989 3308 L-421300 3308 L-417528 3308 L-415071 3308 L-413891 3308 L-413252 3308 L-410893 3308 L-410815 3307 L-409768 3307 L-409674 3307 L-409171 3307 L-408726 3307 L-408668 3307 L-408455 3307 L-405495 3307 L-402787 3306 L-402633 3306 L-399112 3306 L-398589 3306 L-397622 3306 L-397272 3305 L-396229 3305 L-395300 3305 L-394875 3305 L-393366 3305 L-392399 3305 L-392380 3304 L-390484 3294 L-390368 3283 L-390320 3272 L-390295 3261 L-387291 3261 L-385261 3261 L-383500 3261 L-383133 3261 L-382687 3260 L-382320 3260 L-381906 3260 L-379921 3260 L-379708 3260 L-379553 3259 L-377948 3259 L-376826 3259 L-375878 3259 L-374621 3259 L-372976 3259 L-371796 3258 L-365207 3258 L-365160 3258 L-364755 3258 L-363709 3258 L-363574 3258 L-361891 3257 L-361872 3257 L-360535 3257 L-359299 3257 L-359144 3257 L-358770 3256 L-358564 3256 L-358255 3256 L-357481 3256 L-355159 3256 L-354502 3256 L-352374 3255 L-350651 3255 L-350458 3255 L-347904 3255 L-347628 3255 L-347440 3254 L-346607 3254 L-345835 3254 L-345137 3254 L-340136 3254 L-339760 3254 L-335508 3253 L-335021 3268 L-335001 3268 L-334922 3268 L-334847 3268 L-334827 3253 L-334014 3252 L-333261 3252 L-332041 3252 L-330610 3252 L-330513 3252 L-330339 3252 L-329984 3252 L-328675 3251 L-326818 3251 L-325116 3251 L-324613 3251 L-324347 3251 L-323954 3251 L-323820 3250 L-322910 3250 L-322534 3250 L-321605 3250 L-321266 3250 L-321227 3250 L-321189 3250 L-319273 3250 L-319100 3250 L-317571 3250 L-317243 3250 L-317127 3249 L-316720 3249 L-316372 3249 L-314728 3249 L-314177 3249 L-313934 3248 L-313392 3248 L-312561 3248 L-312019 3248 L-310485 3248 L-310393 3247 L-310356 3247 L-310220 3247 L-309833 3247 L-308808 3247 L-306931 3247 L-306835 3247 L-306235 3251 L-305868 3256 L-305383 3261 L-305345 3266 L-304571 3266 L-304514 3266 L-304339 3266 L-304146 3266 L-302540 3266 L-302520 3265 L-302365 3266 L-302250 3266 L-301070 3266 L-300915 3266 L-300248 3266 L-297800 3278 L-295285 3291 L-292616 3303 L-284916 3314 L-279249 3314 L-277034 3314 L-277011 3314 L-276037 3317 L-276017 3317 L-275153 3317 L-272413 3317 L-266615 3314 L-266461 3313 L-263675 3313 L-250067 3313 L-249321 3313 L-244910 3312 L-228564 3312 L-228332 3312 L-227795 3312 L-219335 3312 L-210630 3312 L-210418 3311 L-208445 3311 L-205659 3311 L-201171 3311 L-201016 3311 L-200847 3311 L-200707 3311 L-200416 3311 L-200378 3311 L-200107 3311 L-199935 3310 L-199525 3310 L-198405 3310 L-197224 3310 L-195947 3310 L-193084 3310 L-190163 3310 L-188171 3309 L-186624 3309 L-183586 3309 L-174261 3309 L-173737 3309 L-168013 3309 L-166506 3309 L-165692 3309 L-164008 3308 L-163287 3308 L-163119 3308 L-162074 3308 L-160006 3308 L-158644 3308 L-154201 3307 L-154104 3307 L-154065 3307 L-154046 3307 L-153214 3307 L-153136 3306 L-150563 3306 L-147314 3306 L-147159 3306 L-146211 3306 L-144470 3306 L-143755 3306 L-140214 3307 L-133636 3308 L-132219 3309 L-132198 3309 L-131248 3309 L-127774 3309 L-127020 3309 L-126459 3308 L-125677 3308 L-118172 3308 L-116574 3308 L-115000 3308 L-111815 3308 L-107482 3308 L-98912 3307 L-90166 3307 L-87092 3307 L-83826 3307 L-83279 3307 L-76142 3307 L-70474 3307 L-56410 3307 L-50399 3307 L-45692 3307 L-41689 3306 L-36582 3306 L-26868 3306 L-11297 3306 L-8214 3305 L-7912 3240 L-7892 3159 L-7874 3067 L-7854 2964 L-7834 2918 L-7815 2878 L-7796 2842 L-7769 2806 L-7748 2771 L-7720 2734 L-7685 2694 L-7671 2660 L-7658 2630 L-7639 2605 L-7621 2587 L-7601 2569 L-7583 2550 L-7563 2532 L-7543 2513 L-7522 2494 L-7505 2475 L-7487 2456 L-7466 2438 L-7446 2420 L-7428 2401 L-7409 2381 L-7389 2360 L-7369 2340 L-7351 2320 L-7332 2302 L-7311 2284 L-7286 2266 L-7271 2249 L-7254 2232 L-7235 2215 L-7215 2199 L-7196 2181 L-7177 2162 L-7157 2145 L-7136 2128 L-7119 2112 L-7100 2097 L-7079 2083 L-7059 2070 L-7041 2058 L-7022 2047 L-7002 2036 L-6984 2025 L-6964 2015 L-6945 2006 L-6925 1998 L-6906 1990 L-6886 1982 L-6868 1974 L-6840 1965 L-6819 1954 L-6792 1943 L-6758 1931 L-6743 1920 L-6730 1911 L-6712 1903 L-6693 1896 L-6673 1888 L-6654 1880 L-6635 1871 L-6615 1863 L-6594 1855 L-6577 1847 L-6558 1839 L-6538 1831 L-6518 1822 L-6499 1812 L-6481 1801 L-6461 1790 L-6441 1778 L-6422 1766 L-6403 1755 L-6382 1741 L-6358 1727 L-6343 1713 L-6326 1700 L-6306 1686 L-6287 1673 L-6267 1659 L-6249 1645 L-6229 1631 L-6208 1617 L-6190 1604 L-6171 1590 L-6151 1578 L-6131 1566 L-6113 1554 L-6094 1543 L-6074 1532 L-6055 1523 L-6035 1513 L-6017 1503 L-5997 1494 L-5977 1484 L-5958 1474 L-5939 1465 L-5910 1455 L-5891 1446 L-5863 1437 L-5826 1426 L-5810 1416 L-5798 1406 L-5781 1397 L-5764 1390 L-5744 1384 L-5726 1378 L-5706 1373 L-5686 1367 L-5666 1362 L-5648 1356 L-5630 1349 L-5609 1342 L-5589 1335 L-5571 1328 L-5552 1320 L-5532 1312 L-5513 1303 L-5494 1294 L-5475 1286 L-5454 1278 L-5429 1269 L-5415 1260 L-5398 1252 L-5378 1243 L-5359 1235 L-5339 1226 L-5320 1216 L-5300 1207 L-5280 1198 L-5261 1189 L-5243 1181 L-5222 1173 L-5202 1165 L-5184 1158 L-5165 1151 L-5145 1144 L-5127 1136 L-5107 1129 L-5088 1122 L-5068 1115 L-5049 1108 L-5029 1102 L-5010 1095 L-4982 1088 L-4962 1081 L-4934 1073 L-4898 1062 L-4884 1052 L-4871 1043 L-4853 1035 L-4835 1029 L-4815 1024 L-4797 1017 L-4777 1010 L-4757 1002 L-4736 994 L-4718 985 L-4701 977 L-4680 967 L-4660 957 L-4642 947 L-4623 936 L-4603 924 L-4583 914 L-4565 904 L-4546 896 L-4525 890 L-4500 884 L-4485 880 L-4468 874 L-4449 869 L-4429 863 L-4410 857 L-4391 851 L-4371 846 L-4350 842 L-4333 837 L-4314 832 L-4293 826 L-4273 819 L-4256 812 L-4237 806 L-4216 802 L-4198 798 L-4178 795 L-4159 792 L-4139 788 L-4120 784 L-4101 780 L-4082 776 L-4054 773 L-4034 769 L-4006 765 L-3971 760 L-3957 756 L-3944 753 L-3925 749 L-3907 747 L-3887 744 L-3868 741 L-3849 738 L-3829 735 L-3808 733 L-3791 730 L-3772 727 L-3752 723 L-3732 720 L-3714 717 L-3695 713 L-3675 711 L-3655 708 L-3636 705 L-3618 703 L-3596 700 L-3571 697 L-3557 694 L-3540 692 L-3520 690 L-3501 687 L-3482 684 L-3463 681 L-3443 677 L-3422 674 L-3404 671 L-3385 669 L-3365 666 L-3344 664 L-3327 661 L-3308 658 L-3288 656 L-3269 653 L-3249 651 L-3231 649 L-3211 647 L-3191 646 L-3172 644 L-3153 647 L-3125 650 L-3105 653 L-3077 656 L-3040 653 L-3024 651 L-3012 649 L-2994 647 L-2978 646 L-2958 644 L-2940 643 L-2920 641 L-2900 639 L-2879 638 L-2862 636 L-2844 635 L-2823 633 L-2803 632 L-2785 630 L-2766 628 L-2746 626 L-2726 625 L-2708 623 L-2689 622 L-2668 620 L-2643 619 L-2629 617 L-2611 615 L-2592 614 L-2572 612 L-2553 610 L-2534 609 L-2514 606 L-2493 604 L-2476 602 L-2457 599 L-2436 597 L-2416 595 L-2398 593 L-2379 591 L-2360 589 L-2341 587 L-2321 585 L-2302 583 L-2282 580 L-2263 578 L-2243 577 L-2225 575 L-2197 574 L-2176 571 L-2149 569 L-2114 567 L-2100 565 L-2087 563 L-2068 561 L-2049 560 L-2029 558 L-2011 556 L-1992 555 L-1972 553 L-1951 551 L-1934 549 L-1915 548 L-1895 545 L-1875 543 L-1856 541 L-1838 538 L-1818 535 L-1797 532 L-1779 530 L-1761 528 L-1739 525 L-1714 522 L-1700 520 L-1682 517 L-1663 515 L-1643 512 L-1624 509 L-1605 507 L-1585 504 L-1565 502 L-1547 500 L-1528 497 L-1508 495 L-1487 493 L-1470 491 L-1451 489 L-1431 488 L-1412 486 L-1392 484 L-1374 483 L-1354 482 L-1334 480 L-1315 479 L-1296 478 L-1269 477 L-1248 475 L-1220 474 L-1185 471 L-1171 468 L-1158 466 L-1139 463 L-1121 462 L-1101 460 L-1083 459 L-1063 457 L-1043 456 L-1022 454 L-1005 452 L-987 450 L-966 448 L-946 446 L-928 444 L-909 442 L-889 440 L-869 438 L-851 436 L-832 434 L-811 433 L-786 431 L-771 429 L-754 428 L-735 426 L-715 424 L-696 422 L-677 420 L-657 417 L-636 414 L-619 411 L-600 409 L-579 407 L-558 405 L-541 403 L-522 402 L-502 401 L-483 400 L-464 398 L-445 397 L-425 395 L-406 394 L-386 393 L-368 392 L-340 391 L-319 389 L-292 388 L-257 387 L-243 386 L-230 385 L-211 384 L-193 383 L-173 382 L-154 381 L-135 380 L-115 379 L-94 378 L-77 377 L-58 376 L-38 375 L-18 374 L0 373 L18 372 L38 371 L58 370 L77 369 L96 369 L117 368 L141 367 L156 366 L173 365 L193 364 L212 363 L232 362 L250 361 L270 360 L291 358 L309 356 L328 354 L348 352 L369 350 L386 349 L405 347 L425 346 L444 345 L464 343 L482 342 L502 341 L522 339 L541 338 L560 338 L589 337 L636 336 L673 335 L688 333 L701 332 L718 332 L735 331 L755 331 L773 330 L793 329 L813 328 L833 327 L851 327 L869 326 L890 326 L909 325 L928 324 L947 323 L967 322 L987 321 L1005 320 L1024 319 L1045 318 L1070 316 L1084 314 L1102 313 L1121 311 L1140 310 L1160 308 L1179 307 L1199 306 L1220 304 L1238 303 L1256 301 L1277 300 L1297 299 L1315 298 L1334 297 L1354 296 L1373 295 L1392 294 L1411 293 L1431 292 L1450 291 L1470 290 L1489 289 L1517 287 L1537 286 L1565 285 L1602 283 L1616 280 L1629 278 L1646 276 L1664 275 L1684 274 L1702 273 L1722 272 L1742 272 L1763 271 L1780 270 L1798 268 L1819 267 L1839 265 L1857 264 L1876 261 L1896 259 L1916 257 L1934 256 L1953 254 L1974 252 L1999 251 L2014 249 L2032 248 L2050 247 L2070 246 L2089 244 L2108 242 L2128 241 L2149 239 L2166 238 L2185 237 L2206 235 L2227 234 L2243 233 L2262 232 L2282 230 L2301 229 L2321 228 L2340 227 L2360 226 L2380 225 L2398 224 L2417 223 L2445 997 L2465 996 L2493 995 L2529 993 L2543 216 L2557 215 L2574 213 L2592 213 L2612 212 L2631 211 L2650 210 L2670 209 L2691 207 L2708 206 L2727 204 L2747 203 L2768 201 L2785 199 L2805 196 L2824 194 L2845 193 L2862 192 L2881 190 L2903 189 L2928 187 L2943 185 L2972 183 L3012 181 L3035 179 L3065 176 L3081 174 L3095 172 L3114 171 L3134 170 L3155 169 L3172 167 L3191 166 L3211 165 L3230 164 L3250 164 L3268 163 L3288 162 L3308 161 L3327 160 L3346 160 L3373 158 L3394 157 L3422 156 L3457 155 L3471 154 L3502 153 L3521 152 L3541 151 L3559 150 L3579 149 L3599 149 L3620 148 L3637 147 L3655 145 L3676 142 L3696 139 L3714 135 L3733 132 L3753 129 L3773 127 L3791 124 L3810 123 L3832 122 L3856 120 L3871 119 L3889 117 L3907 116 L3927 114 L3946 113 L3966 111 L3985 110 L4006 108 L4023 107 L4042 105 L4063 104 L4084 103 L4100 102 L4120 101 L4140 100 L4159 99 L4178 98 L4197 97 L4217 96 L4237 95 L4255 94 L4274 93 L4302 92 L4323 91 L4393 89 L4421 87 L4435 84 L4449 82 L4469 81 L4488 79 L4507 78 L4527 77 L4548 75 L4565 74 L4584 74 L4604 73 L4624 72 L4643 71 L4662 70 L4681 68 L4702 67 L4720 65 L4739 64 L4760 63 L4785 62 L4800 61 L4817 60 L4836 59 L4856 57 L4875 56 L4894 54 L4914 53 L4935 53 L4952 52 L4971 51 L4991 50 L5013 49 L5029 48 L5087 46 L5107 45 L5125 45 L5145 44 L5165 43 L5184 42 L5203 41 L5231 41 L5251 40 L5279 40 L5316 39 L5330 38 L5343 37 L5360 36 L5378 36 L5398 35 L5416 35 L5436 35 L5456 34 L5477 34 L5494 33 L5512 33 L5533 32 L5553 32 L5571 31 L5590 30 L5610 29 L5631 29 L5648 28 L5667 27 L5689 26 L5714 26 L5728 25 L5745 24 L5765 24 L5785 23 L5803 22 L5822 21 L5842 20 L5863 19 L5880 18 L5900 17 L5920 16 L5941 16 L5958 15 L5977 15 L5997 14 L6016 14 L6035 14 L6054 13 L6074 13 L6094 12 L6113 12 L6131 12 L6159 11 L6180 11 L6208 10 L6243 9 L6256 9 L6270 8 L6288 8 L6306 7 L6326 6 L6345 6 L6384 5 L6405 5 L6422 5 L6441 4 L6461 3 L6481 2 L6500 1" />
</svg>
