<svg xmlns="http://www.w3.org/2000/svg" version="1.1" viewBox="0 0 6500 1000">
	<path fill="none" stroke="gold" stroke-width="125" stroke-linecap="round" stroke-linejoin="round" d="M0 20687  L-234197 20687 L-231593 20591 L-229925 20494 L-211596 20301 L-211425 20108 L-204268 19914 L-204235 19914 L-190804 19818 L-187882 19914 L-174541 19625 L-170372 19238 L-169212 18755 L-168593 18272 L-166581 17982 L-162809 17789 L-162209 17596 L-161880 17402 L-161667 17209 L-161126 17016 L-159888 16243 L-158709 15470 L-155844 14697 L-155322 13924 L-150466 13731 L-147529 13538 L-147486 13344 L-147178 13151 L-146926 12958 L-144331 12765 L-140076 12765 L-140058 12765 L-138821 12765 L-136943 12765 L-134990 12571 L-134042 12378 L-133771 12185 L-133461 12088 L-133363 11992 L-132533 11992 L-130502 12088 L-130212 11219 L-128065 10832 L-127910 10253 L-124253 9673 L-124002 9963 L-123904 9866 L-123387 10156 L-121236 10639 L-120307 11122 L-118781 11605 L-117541 11605 L-115995 11509 L-113033 11315 L-111911 11122 L-111602 10929 L-110391 10832 L-107384 11895 L-107364 11799 L-107017 11702 L-106804 11605 L-106678 10253 L-106436 10059 L-106398 9866 L-106379 9673 L-106359 9480 L-106300 9286 L-106242 9093 L-106224 8900 L-105781 8707 L-104541 8514 L-102995 8320 L-99608 8127 L-93881 8030 L-93680 7934 L-92044 7837 L-90322 7741 L-88890 7644 L-88658 7547 L-87942 7451 L-81810 7354 L-81442 7161 L-81288 6968 L-80710 6774 L-80417 6581 L-79450 6388 L-79140 6195 L-78541 6001 L-76935 6001 L-76200 6001 L-75890 6098 L-75122 6098 L-73086 5905 L-72660 5712 L-71848 5615 L-64419 5422 L-63896 5228 L-63723 5035 L-62988 4842 L-61420 4649 L-61014 4552 L-58789 4359 L-57841 4262 L-57416 4166 L-57086 4166 L-56042 4069 L-53934 3876 L-53682 3683 L-53063 3489 L-52250 3393 L-50142 3200 L-50094 3006 L-48166 2813 L-47840 2620 L-47705 2427 L-47202 2330 L-45789 2137 L-45286 1750 L-44764 1460 L-41205 1074 L-40470 687 L-38045 687 L-36755 494 L-36349 398 L-33196 398 L-33041 398 L-33021 494 L-32654 494 L-31396 591 L-30681 687 L-29791 687 L-29384 687 L-28456 687 L-27347 591 L-27044 977 L-20795 1171 L-19848 1364 L-18221 1557 L-17720 1654 L-14044 1750 L-13212 1847 L-9259 1943 L-7847 1654 L-5357 1460 L-4681 1267 L-4642 1171 L-3771 1171 L-560 1074 L2302 977 L3270 881 L4391 687 L4410 494 L6035 301 L6500 11" />
</svg>
