<svg xmlns="http://www.w3.org/2000/svg" version="1.1" viewBox="0 0 6500 1000">
	<path fill="none" stroke="gold" stroke-width="125" stroke-linecap="round" stroke-linejoin="round" d="M0 14075  L-116095 14075 L-113491 13935 L-111823 13796 L-93493 13518 L-93323 13239 L-86165 12961 L-86132 12961 L-72701 12821 L-69779 12961 L-56438 12543 L-52269 11986 L-51109 11289 L-50490 10593 L-48478 10175 L-44707 9896 L-44107 9618 L-43778 9339 L-43565 9061 L-43023 8782 L-41785 7668 L-40606 6554 L-37742 5440 L-37220 4325 L-32364 4047 L-29427 3768 L-29384 3490 L-29076 3211 L-28824 2933 L-26229 2654 L-21973 2654 L-21955 2654 L-20719 2654 L-18841 2654 L-16888 2376 L-15940 2097 L-15669 1818 L-15359 1679 L-15261 1540 L-14431 1540 L-12400 1679 L-12109 426 L-9963 -130 L-9807 -966 L-6151 -1802 L-5900 -1384 L-5801 -1523 L-5284 -1105 L-3133 -409 L-2204 286 L-678 983 L560 983 L2107 844 L5068 565 L6190 286 L6500 8" />
</svg>
