<svg xmlns="http://www.w3.org/2000/svg" version="1.1" viewBox="0 0 6500 1000">
	<path fill="none" stroke="gold" stroke-width="125" stroke-linecap="round" stroke-linejoin="round" d="M0 3897  L-724019 3897 L-721415 3897 L-719747 3897 L-701417 3897 L-701247 3896 L-694089 3896 L-694056 3896 L-680625 3896 L-677703 3896 L-664362 3895 L-660193 3895 L-659033 3894 L-658414 3893 L-656402 3892 L-652631 3892 L-652031 3892 L-651702 3891 L-651489 3891 L-650947 3891 L-649709 3889 L-648530 3888 L-645666 3886 L-645144 3885 L-640288 3884 L-637351 3884 L-637308 3884 L-637000 3883 L-636748 3883 L-634153 3883 L-629897 3883 L-629879 3883 L-628642 3883 L-626765 3883 L-624812 3882 L-623864 3882 L-623593 3882 L-623283 3881 L-623185 3881 L-622354 3881 L-620324 3881 L-620033 3880 L-617887 3879 L-617731 3878 L-614075 3877 L-613824 3877 L-613725 3877 L-613208 3878 L-611057 3879 L-610128 3880 L-608602 3880 L-607363 3880 L-605816 3880 L-602855 3880 L-601733 3880 L-601423 3879 L-600212 3879 L-597206 3881 L-597186 3881 L-596839 3881 L-596625 3880 L-596499 3878 L-596258 3878 L-596220 3877 L-596200 3877 L-596181 3877 L-596122 3876 L-596063 3876 L-596045 3875 L-595602 3875 L-594363 3875 L-592817 3874 L-589429 3874 L-583703 3874 L-583501 3874 L-581866 3873 L-580144 3873 L-578712 3873 L-578479 3873 L-577764 3873 L-571632 3873 L-571264 3872 L-571110 3872 L-570531 3871 L-570239 3871 L-569271 3871 L-568962 3870 L-568363 3870 L-566756 3870 L-566021 3870 L-565712 3870 L-564943 3870 L-562907 3870 L-562482 3870 L-561669 3869 L-554241 3869 L-553718 3869 L-553544 3868 L-552809 3868 L-551241 3868 L-550836 3867 L-548611 3867 L-547663 3867 L-547238 3867 L-546908 3867 L-545864 3866 L-543756 3866 L-543503 3866 L-542885 3865 L-542072 3865 L-539964 3865 L-539916 3864 L-537987 3864 L-537662 3864 L-537527 3863 L-537023 3863 L-535611 3863 L-535108 3862 L-534586 3862 L-531026 3861 L-530291 3860 L-527866 3860 L-526577 3860 L-526170 3860 L-523018 3860 L-522863 3860 L-522842 3860 L-522476 3860 L-521218 3860 L-520503 3860 L-519613 3860 L-519206 3860 L-518277 3860 L-517169 3860 L-516865 3861 L-510617 3861 L-509669 3861 L-508043 3862 L-507541 3862 L-503866 3862 L-503033 3862 L-499080 3862 L-497668 3862 L-495179 3862 L-494503 3861 L-494464 3861 L-493593 3861 L-490382 3861 L-487519 3861 L-486551 3861 L-485429 3860 L-485410 3860 L-483785 3859 L-483321 3859 L-483229 3859 L-476860 3859 L-475911 3858 L-473454 3858 L-472582 3858 L-471346 3858 L-469345 3857 L-468947 3857 L-467511 3857 L-465485 3857 L-465271 3856 L-464091 3856 L-462583 3856 L-462563 3856 L-460551 3855 L-459681 3855 L-458810 3855 L-458225 3855 L-457688 3854 L-457030 3854 L-455792 3853 L-455232 3853 L-454051 3853 L-452813 3853 L-452775 3853 L-452388 3853 L-451846 3852 L-451072 3852 L-449950 3852 L-447861 3852 L-447527 3851 L-447242 3851 L-446313 3851 L-445830 3850 L-445094 3850 L-441463 3850 L-440336 3850 L-440181 3850 L-439155 3849 L-435440 3849 L-434223 3849 L-432404 3848 L-429619 3848 L-429057 3848 L-425169 3848 L-422693 3848 L-421358 3848 L-420854 3847 L-420371 3847 L-417682 3847 L-413910 3847 L-411453 3847 L-410273 3847 L-409634 3847 L-407275 3847 L-407197 3846 L-406150 3846 L-406056 3846 L-405553 3846 L-405108 3846 L-405050 3846 L-404836 3846 L-401877 3846 L-399169 3845 L-399014 3845 L-395494 3845 L-394971 3845 L-394003 3844 L-393654 3844 L-392611 3844 L-391682 3843 L-391256 3843 L-389747 3843 L-388781 3843 L-388762 3843 L-386866 3830 L-386750 3816 L-386702 3803 L-386677 3790 L-383673 3789 L-381642 3789 L-379882 3789 L-379514 3789 L-379069 3788 L-378702 3788 L-378288 3788 L-376303 3788 L-376090 3788 L-375935 3787 L-374330 3787 L-373208 3787 L-372260 3787 L-371002 3787 L-369358 3787 L-368178 3786 L-361589 3786 L-361542 3786 L-361136 3786 L-360091 3785 L-359956 3785 L-358273 3785 L-358253 3785 L-356917 3784 L-355680 3784 L-355526 3784 L-355152 3784 L-354946 3783 L-354637 3783 L-353863 3783 L-351541 3783 L-350883 3783 L-348756 3782 L-347033 3782 L-346840 3782 L-344286 3782 L-344010 3781 L-343822 3781 L-342989 3781 L-342217 3781 L-341519 3780 L-336518 3780 L-336142 3780 L-331890 3780 L-331402 3798 L-331383 3798 L-331304 3798 L-331229 3797 L-331209 3779 L-330396 3779 L-329643 3778 L-328423 3778 L-326991 3778 L-326895 3778 L-326721 3778 L-326366 3778 L-325057 3778 L-323200 3777 L-321497 3777 L-320995 3777 L-320729 3777 L-320336 3776 L-320202 3776 L-319292 3776 L-318916 3776 L-317987 3776 L-317648 3776 L-317609 3776 L-317571 3776 L-315655 3776 L-315482 3775 L-313953 3775 L-313625 3775 L-313509 3775 L-313102 3775 L-312753 3774 L-311110 3774 L-310559 3774 L-310316 3774 L-309774 3774 L-308943 3773 L-308401 3773 L-306867 3773 L-306775 3772 L-306738 3772 L-306602 3772 L-306214 3772 L-305190 3772 L-303313 3772 L-303217 3771 L-302617 3777 L-302250 3783 L-301765 3790 L-301727 3796 L-300953 3796 L-300896 3796 L-300721 3796 L-300528 3795 L-298922 3795 L-298902 3795 L-298747 3795 L-298632 3795 L-297452 3796 L-297297 3796 L-296630 3796 L-294182 3811 L-291667 3826 L-288997 3841 L-281298 3855 L-275631 3855 L-273416 3855 L-273393 3855 L-272419 3859 L-272399 3859 L-271535 3858 L-268795 3858 L-262996 3854 L-262843 3854 L-260057 3854 L-246449 3853 L-245703 3853 L-241292 3853 L-224946 3853 L-224714 3852 L-224177 3852 L-215717 3852 L-207012 3852 L-206799 3852 L-204827 3851 L-202041 3851 L-197553 3852 L-197398 3851 L-197229 3851 L-197089 3851 L-196798 3851 L-196760 3851 L-196489 3850 L-196317 3850 L-195907 3850 L-194786 3850 L-193606 3850 L-192329 3850 L-189465 3849 L-186545 3849 L-184553 3849 L-183005 3849 L-179968 3848 L-170643 3848 L-170119 3848 L-164395 3848 L-162888 3848 L-162074 3848 L-160390 3848 L-159669 3847 L-159501 3847 L-158455 3847 L-156388 3847 L-155026 3847 L-150583 3846 L-150486 3846 L-150447 3846 L-150428 3846 L-149596 3846 L-149518 3845 L-146945 3845 L-143696 3845 L-143541 3845 L-142593 3845 L-140852 3844 L-140136 3845 L-136596 3846 L-130018 3847 L-128601 3849 L-128580 3849 L-127630 3848 L-124155 3848 L-123402 3848 L-122841 3848 L-122058 3848 L-114554 3847 L-112956 3847 L-111382 3847 L-108197 3847 L-103864 3847 L-95294 3846 L-86548 3846 L-83474 3846 L-80208 3846 L-79661 3846 L-72524 3846 L-66856 3846 L-52792 3846 L-46780 3846 L-42074 3846 L-38071 3845 L-32963 3845 L-23249 3845 L-7679 3844 L-4596 3844 L-4294 3763 L-4274 3663 L-4255 3550 L-4236 3423 L-4216 3366 L-4197 3317 L-4178 3272 L-4151 3228 L-4130 3185 L-4102 3140 L-4067 3090 L-4053 3047 L-4040 3011 L-4021 2981 L-4003 2958 L-3983 2936 L-3965 2913 L-3945 2890 L-3925 2867 L-3904 2843 L-3887 2819 L-3869 2796 L-3848 2774 L-3828 2752 L-3810 2728 L-3791 2703 L-3771 2677 L-3751 2653 L-3733 2628 L-3714 2606 L-3693 2584 L-3668 2561 L-3653 2541 L-3636 2520 L-3616 2499 L-3597 2479 L-3578 2457 L-3559 2434 L-3539 2412 L-3518 2392 L-3500 2372 L-3482 2354 L-3461 2336 L-3440 2320 L-3423 2306 L-3404 2292 L-3384 2278 L-3365 2265 L-3346 2252 L-3327 2241 L-3307 2231 L-3287 2221 L-3268 2212 L-3250 2202 L-3222 2190 L-3201 2178 L-3174 2163 L-3140 2148 L-3125 2135 L-3112 2124 L-3094 2114 L-3075 2105 L-3055 2096 L-3036 2085 L-3017 2075 L-2997 2064 L-2976 2054 L-2959 2045 L-2940 2036 L-2920 2026 L-2900 2015 L-2881 2002 L-2863 1988 L-2843 1974 L-2823 1960 L-2804 1946 L-2785 1931 L-2764 1915 L-2740 1897 L-2725 1880 L-2708 1863 L-2688 1847 L-2669 1830 L-2649 1813 L-2631 1795 L-2610 1778 L-2590 1761 L-2572 1745 L-2553 1729 L-2533 1713 L-2512 1698 L-2495 1684 L-2476 1670 L-2456 1657 L-2437 1645 L-2417 1633 L-2398 1621 L-2379 1610 L-2359 1597 L-2340 1585 L-2321 1574 L-2292 1561 L-2272 1551 L-2245 1539 L-2207 1526 L-2192 1513 L-2180 1501 L-2163 1489 L-2146 1481 L-2126 1474 L-2107 1466 L-2088 1460 L-2068 1453 L-2048 1446 L-2030 1439 L-2012 1431 L-1991 1422 L-1971 1414 L-1953 1405 L-1934 1395 L-1914 1385 L-1894 1374 L-1876 1363 L-1857 1353 L-1836 1343 L-1811 1332 L-1797 1321 L-1779 1311 L-1759 1300 L-1740 1289 L-1721 1278 L-1702 1267 L-1682 1255 L-1662 1244 L-1643 1233 L-1625 1223 L-1604 1214 L-1584 1204 L-1566 1196 L-1547 1186 L-1527 1177 L-1509 1168 L-1489 1159 L-1470 1151 L-1450 1142 L-1431 1134 L-1411 1126 L-1392 1117 L-1364 1109 L-1344 1100 L-1316 1090 L-1280 1077 L-1266 1065 L-1253 1053 L-1235 1043 L-1217 1036 L-1197 1029 L-1179 1021 L-1159 1012 L-1139 1003 L-1118 993 L-1100 982 L-1083 971 L-1062 960 L-1042 947 L-1024 934 L-1005 921 L-985 907 L-965 894 L-947 882 L-928 872 L-907 864 L-882 858 L-867 851 L-850 845 L-831 838 L-811 831 L-792 824 L-773 817 L-753 810 L-732 805 L-715 800 L-696 793 L-675 785 L-654 776 L-638 768 L-619 761 L-598 756 L-580 751 L-560 747 L-541 743 L-521 739 L-502 734 L-483 729 L-464 724 L-436 720 L-415 715 L-388 710 L-353 704 L-339 699 L-326 695 L-307 691 L-289 688 L-269 684 L-250 680 L-231 677 L-211 674 L-190 670 L-173 667 L-154 663 L-134 659 L-114 655 L-96 650 L-77 647 L-57 643 L-37 640 L-18 637 L0 633 L21 630 L46 626 L60 623 L77 620 L97 617 L116 614 L136 610 L155 606 L174 602 L195 598 L213 595 L232 592 L252 588 L273 585 L290 582 L309 579 L329 576 L348 573 L368 570 L386 567 L406 565 L426 563 L445 561 L464 565 L493 568 L512 572 L540 575 L578 572 L593 569 L605 567 L623 565 L639 563 L659 561 L677 559 L697 557 L717 555 L738 553 L755 552 L773 550 L794 548 L814 546 L832 543 L851 541 L871 539 L891 537 L909 535 L928 533 L949 532 L974 530 L989 528 L1006 526 L1025 524 L1045 521 L1064 520 L1083 517 L1103 515 L1124 512 L1141 509 L1160 506 L1181 503 L1201 501 L1219 498 L1238 496 L1258 493 L1276 491 L1296 488 L1315 485 L1335 482 L1354 480 L1374 478 L1392 476 L1420 474 L1441 471 L1469 469 L1503 466 L1517 464 L1530 461 L1549 459 L1568 457 L1588 455 L1606 453 L1625 451 L1645 448 L1666 446 L1683 444 L1702 442 L1723 439 L1742 437 L1761 434 L1779 430 L1799 427 L1820 423 L1838 420 L1857 417 L1878 414 L1903 411 L1918 408 L1935 404 L1954 401 L1974 398 L1993 395 L2012 392 L2032 389 L2053 386 L2070 383 L2089 380 L2110 377 L2130 374 L2147 372 L2166 370 L2186 368 L2205 366 L2225 364 L2244 362 L2263 361 L2283 359 L2302 358 L2321 356 L2349 354 L2369 353 L2397 351 L2433 347 L2446 344 L2459 341 L2478 338 L2496 336 L2516 334 L2534 332 L2554 331 L2574 329 L2595 326 L2612 324 L2630 322 L2651 319 L2671 317 L2689 314 L2708 312 L2728 309 L2748 306 L2766 304 L2785 302 L2807 300 L2831 298 L2846 296 L2863 294 L2883 292 L2902 290 L2921 287 L2940 284 L2960 281 L2981 277 L2998 274 L3018 271 L3038 268 L3059 266 L3076 264 L3095 262 L3115 261 L3134 259 L3153 258 L3172 256 L3192 254 L3212 253 L3231 251 L3249 250 L3277 248 L3298 247 L3325 245 L3360 244 L3374 242 L3387 241 L3406 240 L3425 239 L3444 237 L3463 236 L3482 235 L3502 234 L3523 233 L3540 232 L3559 230 L3579 229 L3599 228 L3618 226 L3636 225 L3656 224 L3676 223 L3695 222 L3714 221 L3735 221 L3759 219 L3774 218 L3791 217 L3811 215 L3830 214 L3850 213 L3869 212 L3888 210 L3909 208 L3927 206 L3946 203 L3966 200 L3987 198 L4004 197 L4023 195 L4043 193 L4062 192 L4082 190 L4101 188 L4121 187 L4140 185 L4159 184 L4178 183 L4207 182 L4254 181 L4291 179 L4306 178 L4319 177 L4336 176 L4353 175 L4373 174 L4392 174 L4411 172 L4431 171 L4451 170 L4469 170 L4487 169 L4508 168 L4527 167 L4546 166 L4565 165 L4585 164 L4605 163 L4623 161 L4642 160 L4663 158 L4688 156 L4703 154 L4720 152 L4740 150 L4759 149 L4778 147 L4797 145 L4817 143 L4838 142 L4856 140 L4875 138 L4895 137 L4915 135 L4933 134 L4952 133 L4972 132 L4991 131 L5010 129 L5029 128 L5049 127 L5068 125 L5088 124 L5107 122 L5135 121 L5155 120 L5183 118 L5220 115 L5234 112 L5247 110 L5265 107 L5282 106 L5302 105 L5320 104 L5340 103 L5360 102 L5381 101 L5398 99 L5416 98 L5437 96 L5457 94 L5475 92 L5494 89 L5514 86 L5535 84 L5552 82 L5571 80 L5592 78 L5617 76 L5632 74 L5650 73 L5668 71 L5689 69 L5707 68 L5726 66 L5746 64 L5767 62 L5784 60 L5804 58 L5824 57 L5845 55 L5862 54 L5881 52 L5900 51 L5919 50 L5939 48 L5958 47 L5978 45 L5998 44 L6017 43 L6035 42 L6063 997 L6084 995 L6111 994 L6147 991 L6161 33 L6175 31 L6193 30 L6210 29 L6230 28 L6249 27 L6268 26 L6288 24 L6309 22 L6326 20 L6345 18 L6366 16 L6386 14 L6404 12 L6423 9 L6442 6 L6463 5 L6481 3 L6500 1" />
</svg>
