<svg xmlns="http://www.w3.org/2000/svg" version="1.1" viewBox="0 0 6500 1000">
	<path fill="none" stroke="gold" stroke-width="125" stroke-linecap="round" stroke-linejoin="round" d="M0 1016  L-717328 1016 L-714724 1016 L-713056 1016 L-694727 1016 L-694557 1016 L-687399 1016 L-687366 1016 L-673935 1016 L-671013 1016 L-657672 1016 L-653503 1015 L-652343 1015 L-651724 1015 L-649712 1015 L-645940 1015 L-645340 1014 L-645011 1014 L-644798 1014 L-644257 1014 L-643019 1014 L-641840 1013 L-638975 1013 L-638453 1012 L-633598 1012 L-630660 1012 L-630617 1012 L-630309 1012 L-630057 1012 L-627462 1012 L-623207 1012 L-623189 1012 L-621952 1012 L-620075 1012 L-618121 1011 L-617173 1011 L-616902 1011 L-616593 1011 L-616494 1011 L-615664 1011 L-613633 1011 L-613343 1011 L-611196 1010 L-611041 1010 L-607385 1010 L-607134 1010 L-607035 1010 L-606518 1010 L-604367 1010 L-603438 1011 L-601912 1011 L-600672 1011 L-599126 1011 L-596164 1011 L-595042 1011 L-594733 1011 L-593522 1010 L-590515 1011 L-590496 1011 L-590148 1011 L-589935 1011 L-589809 1010 L-589567 1010 L-589529 1010 L-589510 1010 L-589490 1010 L-589431 1010 L-589373 1009 L-589355 1009 L-588912 1009 L-587672 1009 L-586127 1009 L-582739 1009 L-577013 1009 L-576811 1009 L-575175 1009 L-573453 1009 L-572021 1009 L-571789 1009 L-571074 1008 L-564941 1008 L-564574 1008 L-564419 1008 L-563841 1008 L-563548 1008 L-562581 1008 L-562271 1008 L-561672 1008 L-560066 1008 L-559331 1008 L-559021 1008 L-558253 1008 L-556217 1008 L-555791 1007 L-554979 1007 L-547550 1007 L-547027 1007 L-546854 1007 L-546119 1007 L-544551 1007 L-544145 1007 L-541920 1007 L-540972 1007 L-540547 1007 L-540217 1007 L-539173 1007 L-537065 1006 L-536813 1006 L-536194 1006 L-535381 1006 L-533274 1006 L-533225 1006 L-531297 1006 L-530971 1006 L-530836 1006 L-530333 1005 L-528920 1005 L-528417 1005 L-527896 1005 L-524336 1005 L-523601 1005 L-521176 1005 L-519887 1004 L-519480 1004 L-516327 1004 L-516172 1004 L-516152 1004 L-515785 1004 L-514527 1004 L-513812 1005 L-512922 1005 L-512515 1005 L-511587 1005 L-510478 1004 L-510175 1005 L-503926 1005 L-502979 1005 L-501353 1005 L-500851 1005 L-497175 1005 L-496343 1005 L-492390 1005 L-490978 1005 L-488489 1005 L-487812 1005 L-487773 1005 L-486903 1005 L-483691 1005 L-480828 1005 L-479860 1005 L-478739 1005 L-478720 1004 L-477095 1004 L-476631 1004 L-476539 1004 L-470169 1004 L-469221 1004 L-466764 1004 L-465892 1004 L-464656 1004 L-462654 1004 L-462257 1004 L-460820 1003 L-458794 1003 L-458581 1003 L-457401 1003 L-455893 1003 L-455872 1003 L-453860 1003 L-452991 1003 L-452120 1003 L-451535 1003 L-450998 1003 L-450340 1003 L-449102 1002 L-448541 1002 L-447360 1002 L-446123 1002 L-446084 1002 L-445697 1002 L-445155 1002 L-444382 1002 L-443260 1002 L-441170 1002 L-440837 1002 L-440551 1002 L-439623 1002 L-439139 1001 L-438404 1001 L-434773 1001 L-433645 1001 L-433490 1001 L-432464 1001 L-428750 1001 L-427532 1001 L-425714 1001 L-422928 1001 L-422367 1001 L-418479 1001 L-416002 1001 L-414667 1001 L-414164 1001 L-413681 1000 L-410992 1000 L-407220 1000 L-404763 1000 L-403583 1000 L-402944 1000 L-400584 1000 L-400507 1000 L-399459 1000 L-399366 1000 L-398863 1000 L-398417 1000 L-398360 1000 L-398146 1000 L-395186 1000 L-392479 1000 L-392324 1000 L-388803 1000 L-388280 1000 L-387313 1000 L-386964 999 L-385920 999 L-384992 999 L-384566 999 L-383057 999 L-382090 999 L-382071 999 L-380175 995 L-380059 991 L-380011 986 L-379987 982 L-376983 982 L-374952 982 L-373191 982 L-372824 982 L-372379 982 L-372012 982 L-371598 982 L-369613 982 L-369400 982 L-369245 982 L-367639 982 L-366518 982 L-365569 982 L-364312 981 L-362667 981 L-361488 981 L-354898 981 L-354852 981 L-354446 981 L-353401 981 L-353265 981 L-351583 981 L-351563 981 L-350226 981 L-348990 981 L-348836 981 L-348462 980 L-348256 980 L-347946 980 L-347172 980 L-344851 980 L-344193 980 L-342065 980 L-340343 980 L-340149 980 L-337596 980 L-337320 980 L-337131 980 L-336299 980 L-335526 979 L-334828 979 L-329828 979 L-329452 979 L-325199 979 L-324712 985 L-324693 985 L-324614 985 L-324538 985 L-324519 979 L-323706 979 L-322952 979 L-321733 979 L-320301 979 L-320205 979 L-320030 979 L-319676 979 L-318367 979 L-316509 978 L-314807 978 L-314304 978 L-314039 978 L-313646 978 L-313512 978 L-312602 978 L-312225 978 L-311297 978 L-310958 978 L-310918 978 L-310880 978 L-308965 978 L-308791 978 L-307263 978 L-306934 978 L-306818 978 L-306411 978 L-306063 978 L-304419 977 L-303868 977 L-303625 977 L-303084 977 L-302253 977 L-301711 977 L-300176 977 L-300084 977 L-300047 977 L-299911 977 L-299524 977 L-298499 977 L-296623 977 L-296527 977 L-295926 978 L-295559 980 L-295075 982 L-295036 984 L-294263 984 L-294205 984 L-294031 984 L-293837 984 L-292232 984 L-292212 984 L-292057 984 L-291941 984 L-290762 984 L-290607 984 L-289940 984 L-287492 989 L-284977 994 L-282307 998 L-274608 1003 L-268940 1003 L-266726 1003 L-266702 1003 L-265728 1004 L-265708 1004 L-264845 1004 L-262105 1004 L-256306 1003 L-256153 1003 L-253367 1002 L-239758 1002 L-239013 1002 L-234602 1002 L-218256 1002 L-218023 1002 L-217486 1002 L-209027 1002 L-200321 1002 L-200109 1002 L-198136 1002 L-195350 1002 L-190863 1002 L-190708 1002 L-190539 1002 L-190399 1002 L-190108 1002 L-190069 1002 L-189798 1001 L-189627 1001 L-189217 1001 L-188096 1001 L-186916 1001 L-185639 1001 L-182775 1001 L-179855 1001 L-177863 1001 L-176315 1001 L-173277 1001 L-163953 1001 L-163429 1001 L-157705 1001 L-156198 1001 L-155383 1001 L-153700 1001 L-152979 1001 L-152810 1000 L-151765 1000 L-149698 1000 L-148336 1000 L-143892 1000 L-143795 1000 L-143757 1000 L-143738 1000 L-142905 1000 L-142827 1000 L-140255 1000 L-137006 1000 L-136851 1000 L-135902 1000 L-134161 1000 L-133446 1000 L-129905 1000 L-123328 1001 L-121911 1001 L-121890 1001 L-120939 1001 L-117465 1001 L-116712 1001 L-116150 1001 L-115368 1001 L-107864 1001 L-106266 1000 L-104692 1000 L-101506 1000 L-97173 1000 L-88603 1000 L-79857 1000 L-76783 1000 L-73517 1000 L-72971 1000 L-65833 1000 L-60166 1000 L-46101 1000 L-40090 1000 L-35384 1000 L-31380 1000 L-26273 1000 L-16559 1000 L-988 1000 L2093 999 L2396 974 L2415 943 L2434 907 L2454 867 L2473 849 L2493 833 L2511 819 L2539 805 L2560 792 L2588 778 L2623 762 L2637 749 L2650 737 L2668 728 L2687 721 L2707 713 L2725 706 L2744 699 L2764 692 L2785 684 L2802 677 L2821 669 L2841 663 L2861 656 L2880 648 L2899 640 L2918 632 L2938 624 L2957 617 L2976 610 L2997 603 L3022 596 L3036 589 L3053 583 L3073 576 L3093 570 L3112 563 L3131 555 L3151 549 L3171 542 L3189 536 L3208 530 L3228 525 L3249 520 L3266 515 L3285 511 L3305 506 L3324 502 L3344 498 L3363 495 L3382 491 L3402 488 L3421 485 L3440 482 L3467 479 L3488 475 L3516 470 L3550 465 L3564 461 L3577 458 L3596 455 L3615 452 L3635 449 L3653 446 L3673 442 L3693 439 L3713 436 L3731 433 L3749 430 L3770 427 L3789 423 L3808 419 L3827 415 L3847 411 L3867 406 L3885 402 L3904 397 L3925 392 L3950 386 L3964 381 L3982 376 L4001 371 L4021 365 L4040 360 L4059 354 L4079 349 L4099 344 L4117 338 L4136 333 L4157 329 L4177 324 L4195 319 L4214 315 L4234 311 L4252 307 L4272 303 L4291 299 L4311 296 L4330 292 L4350 288 L4368 284 L4397 281 L4417 277 L4445 274 L4482 269 L4497 265 L4509 262 L4527 258 L4544 255 L4563 253 L4582 251 L4601 249 L4621 247 L4642 244 L4659 242 L4678 239 L4698 237 L4718 234 L4737 231 L4755 228 L4775 225 L4795 222 L4814 218 L4833 215 L4854 212 L4878 208 L4893 205 L4910 202 L4930 198 L4949 195 L4969 192 L4988 188 L5008 184 L5028 181 L5046 177 L5065 174 L5085 171 L5105 168 L5123 165 L5142 163 L5162 160 L5181 157 L5201 154 L5220 151 L5240 149 L5259 146 L5278 143 L5297 141 L5325 138 L5345 135 L5373 132 L5409 128 L5424 124 L5437 121 L5454 117 L5472 115 L5492 113 L5511 110 L5530 108 L5550 105 L5571 102 L5590 98 L5607 95 L5627 91 L5647 87 L5666 83 L5684 79 L5704 75 L5725 71 L5742 67 L5761 64 L5783 61 L5808 59 L5822 57 L5840 55 L5859 53 L5878 51 L5897 48 L5916 46 L5936 44 L5957 42 L5975 41 L5994 39 L6014 36 L6035 33 L6052 31 L6071 29 L6091 27 L6110 26 L6129 24 L6148 23 L6168 22 L6188 20 L6207 18 L6226 17 L6253 16 L6274 14 L6302 13 L6337 11 L6350 9 L6364 8 L6382 7 L6401 5 L6421 4 L6439 3 L6459 2 L6478 1 L6500 0" />
</svg>
