<svg xmlns="http://www.w3.org/2000/svg" version="1.1" viewBox="0 0 6500 1000">
	<path fill="none" stroke="gold" stroke-width="125" stroke-linecap="round" stroke-linejoin="round" d="M0 1016  L-717579 1016 L-714975 1016 L-713307 1016 L-694978 1016 L-694808 1016 L-687650 1016 L-687617 1016 L-674186 1016 L-671264 1016 L-657923 1015 L-653754 1015 L-652594 1015 L-651975 1015 L-649963 1014 L-646191 1014 L-645591 1014 L-645263 1014 L-645050 1014 L-644508 1014 L-643270 1013 L-642091 1013 L-639226 1013 L-638704 1012 L-633849 1012 L-630911 1012 L-630869 1012 L-630560 1012 L-630308 1012 L-627713 1011 L-623458 1011 L-623440 1011 L-622203 1011 L-620326 1011 L-618372 1011 L-617424 1011 L-617153 1011 L-616844 1011 L-616745 1011 L-615915 1011 L-613884 1011 L-613594 1011 L-611447 1010 L-611292 1010 L-607636 1010 L-607385 1010 L-607286 1010 L-606769 1010 L-604618 1010 L-603689 1010 L-602163 1011 L-600923 1011 L-599377 1011 L-596415 1011 L-595293 1010 L-594984 1010 L-593773 1010 L-590766 1011 L-590747 1011 L-590399 1011 L-590186 1011 L-590060 1010 L-589818 1010 L-589780 1010 L-589761 1010 L-589741 1010 L-589683 1009 L-589624 1009 L-589606 1009 L-589163 1009 L-587923 1009 L-586378 1009 L-582990 1009 L-577264 1009 L-577062 1009 L-575426 1009 L-573704 1009 L-572272 1008 L-572040 1008 L-571325 1008 L-565192 1008 L-564825 1008 L-564670 1008 L-564092 1008 L-563799 1008 L-562832 1008 L-562522 1008 L-561923 1008 L-560317 1008 L-559582 1008 L-559272 1008 L-558504 1008 L-556468 1007 L-556043 1007 L-555230 1007 L-547801 1007 L-547278 1007 L-547105 1007 L-546370 1007 L-544802 1007 L-544396 1007 L-542171 1007 L-541223 1007 L-540799 1006 L-540468 1006 L-539424 1006 L-537316 1006 L-537064 1006 L-536445 1006 L-535632 1006 L-533525 1006 L-533476 1006 L-531548 1006 L-531222 1006 L-531087 1005 L-530584 1005 L-529171 1005 L-528668 1005 L-528147 1005 L-524587 1005 L-523852 1004 L-521427 1004 L-520138 1004 L-519731 1004 L-516578 1004 L-516423 1004 L-516403 1004 L-516037 1004 L-514778 1004 L-514063 1004 L-513173 1004 L-512766 1004 L-511838 1004 L-510729 1004 L-510426 1005 L-504177 1005 L-503230 1005 L-501604 1005 L-501102 1005 L-497426 1005 L-496594 1005 L-492641 1005 L-491229 1005 L-488740 1005 L-488063 1005 L-488024 1005 L-487154 1005 L-483942 1005 L-481079 1005 L-480111 1005 L-478990 1004 L-478971 1004 L-477346 1004 L-476882 1004 L-476790 1004 L-470421 1004 L-469472 1004 L-467015 1004 L-466143 1004 L-464907 1004 L-462905 1004 L-462508 1004 L-461071 1003 L-459045 1003 L-458832 1003 L-457652 1003 L-456144 1003 L-456123 1003 L-454111 1003 L-453242 1003 L-452371 1003 L-451786 1003 L-451249 1003 L-450591 1002 L-449353 1002 L-448792 1002 L-447611 1002 L-446374 1002 L-446335 1002 L-445948 1002 L-445407 1002 L-444633 1002 L-443511 1002 L-441421 1002 L-441088 1002 L-440802 1002 L-439874 1001 L-439390 1001 L-438655 1001 L-435024 1001 L-433896 1001 L-433741 1001 L-432715 1001 L-429001 1001 L-427783 1001 L-425965 1001 L-423179 1001 L-422618 1001 L-418730 1001 L-416253 1001 L-414918 1001 L-414415 1000 L-413932 1000 L-411243 1000 L-407471 1000 L-405014 1000 L-403834 1000 L-403195 1000 L-400835 1000 L-400758 1000 L-399710 1000 L-399617 1000 L-399114 1000 L-398668 1000 L-398611 1000 L-398397 1000 L-395438 1000 L-392730 1000 L-392575 1000 L-389054 1000 L-388531 1000 L-387564 1000 L-387215 999 L-386171 999 L-385243 999 L-384817 999 L-383308 999 L-382341 999 L-382322 999 L-380426 995 L-380310 991 L-380262 987 L-380238 983 L-377234 982 L-375203 982 L-373442 982 L-373075 982 L-372630 982 L-372263 982 L-371849 982 L-369864 982 L-369651 982 L-369496 982 L-367890 982 L-366769 982 L-365820 982 L-364563 982 L-362918 982 L-361739 981 L-355149 981 L-355103 981 L-354697 981 L-353652 981 L-353517 981 L-351834 981 L-351814 981 L-350477 981 L-349241 981 L-349087 981 L-348713 981 L-348507 981 L-348197 981 L-347423 980 L-345102 980 L-344444 980 L-342316 980 L-340594 980 L-340400 980 L-337847 980 L-337571 980 L-337383 980 L-336550 980 L-335778 980 L-335080 980 L-330079 980 L-329703 980 L-325450 980 L-324963 985 L-324944 985 L-324865 985 L-324789 985 L-324770 979 L-323957 979 L-323203 979 L-321984 979 L-320552 979 L-320456 979 L-320281 979 L-319927 979 L-318618 979 L-316760 979 L-315058 979 L-314555 979 L-314290 979 L-313897 978 L-313763 978 L-312853 978 L-312476 978 L-311548 978 L-311209 978 L-311169 978 L-311132 978 L-309216 978 L-309042 978 L-307514 978 L-307185 978 L-307069 978 L-306662 978 L-306314 978 L-304670 978 L-304119 978 L-303876 978 L-303335 978 L-302504 977 L-301962 977 L-300427 977 L-300335 977 L-300298 977 L-300162 977 L-299775 977 L-298750 977 L-296874 977 L-296778 977 L-296177 979 L-295810 981 L-295326 983 L-295288 984 L-294514 985 L-294456 985 L-294282 984 L-294088 984 L-292483 984 L-292463 984 L-292308 984 L-292192 984 L-291013 984 L-290858 985 L-290191 985 L-287743 989 L-285228 994 L-282558 998 L-274859 1003 L-269191 1003 L-266977 1003 L-266953 1003 L-265980 1004 L-265960 1004 L-265096 1004 L-262356 1004 L-256557 1003 L-256404 1002 L-253618 1002 L-240009 1002 L-239264 1002 L-234853 1002 L-218507 1002 L-218275 1002 L-217737 1002 L-209278 1002 L-200572 1002 L-200360 1002 L-198388 1002 L-195601 1002 L-191114 1002 L-190959 1002 L-190790 1002 L-190650 1002 L-190359 1002 L-190320 1001 L-190049 1001 L-189878 1001 L-189468 1001 L-188347 1001 L-187167 1001 L-185890 1001 L-183026 1001 L-180106 1001 L-178114 1001 L-176566 1001 L-173528 1001 L-164204 1001 L-163680 1001 L-157956 1001 L-156449 1001 L-155634 1001 L-153951 1001 L-153230 1000 L-153061 1000 L-152016 1000 L-149949 1000 L-148587 1000 L-144144 1000 L-144046 1000 L-144008 1000 L-143989 1000 L-143156 1000 L-143078 1000 L-140506 1000 L-137257 1000 L-137102 1000 L-136154 1000 L-134413 1000 L-133697 1000 L-130156 1000 L-123579 1000 L-122162 1001 L-122141 1001 L-121191 1001 L-117716 1001 L-116963 1001 L-116401 1001 L-115619 1001 L-108115 1000 L-106517 1000 L-104943 1000 L-101757 1000 L-97424 1000 L-88855 1000 L-80108 1000 L-77034 1000 L-73768 1000 L-73222 1000 L-66085 1000 L-60417 1000 L-46352 1000 L-40341 1000 L-35635 1000 L-31632 1000 L-26524 1000 L-16810 1000 L-1239 1000 L1842 999 L2144 974 L2164 943 L2183 908 L2203 869 L2222 851 L2242 836 L2260 822 L2288 808 L2309 795 L2337 781 L2372 765 L2385 752 L2399 741 L2417 732 L2436 725 L2456 718 L2474 710 L2493 703 L2513 696 L2534 689 L2551 681 L2570 674 L2590 667 L2610 661 L2629 653 L2647 645 L2667 637 L2687 630 L2706 622 L2725 615 L2746 608 L2771 601 L2785 595 L2802 589 L2822 582 L2841 576 L2861 569 L2879 562 L2899 555 L2920 549 L2938 543 L2957 537 L2977 532 L2998 527 L3015 522 L3034 518 L3054 513 L3073 509 L3093 506 L3111 502 L3131 499 L3151 496 L3170 493 L3189 490 L3216 486 L3237 482 L3265 478 L3299 473 L3313 469 L3326 466 L3345 463 L3364 460 L3384 457 L3402 454 L3422 450 L3442 447 L3462 444 L3480 441 L3498 438 L3519 435 L3538 432 L3557 428 L3576 424 L3596 419 L3615 415 L3634 410 L3653 406 L3674 401 L3698 395 L3713 390 L3730 385 L3750 380 L3769 375 L3789 369 L3808 364 L3828 358 L3848 353 L3866 348 L3885 343 L3905 338 L3926 334 L3944 329 L3963 325 L3983 321 L4001 317 L4021 313 L4040 310 L4060 306 L4079 302 L4099 299 L4117 295 L4146 291 L4166 288 L4194 284 L4231 280 L4246 276 L4258 272 L4276 269 L4293 266 L4312 264 L4331 262 L4350 260 L4370 258 L4391 255 L4408 253 L4427 251 L4447 248 L4467 245 L4485 243 L4504 240 L4524 236 L4544 233 L4563 230 L4582 226 L4603 223 L4627 220 L4642 217 L4659 213 L4679 210 L4698 207 L4718 203 L4736 200 L4756 196 L4777 193 L4795 189 L4814 186 L4834 183 L4854 180 L4872 178 L4891 175 L4911 172 L4930 169 L4950 166 L4969 164 L4988 161 L5008 158 L5027 156 L5046 153 L5074 151 L5094 148 L5122 145 L5158 141 L5173 137 L5186 133 L5203 130 L5221 128 L5241 126 L5260 123 L5279 121 L5299 118 L5320 115 L5339 111 L5356 108 L5376 104 L5396 101 L5414 97 L5433 92 L5453 88 L5474 84 L5491 80 L5510 77 L5532 75 L5557 73 L5571 71 L5589 69 L5608 67 L5627 64 L5646 62 L5665 60 L5685 58 L5706 56 L5723 55 L5743 53 L5763 50 L5784 48 L5801 45 L5820 43 L5840 41 L5859 40 L5878 39 L5897 37 L5917 36 L5937 34 L5956 33 L5974 31 L6002 30 L6023 29 L6051 27 L6086 25 L6099 24 L6112 22 L6131 21 L6150 20 L6170 19 L6188 18 L6208 17 L6227 16 L6248 15 L6265 14 L6284 12 L6305 11 L6325 10 L6343 8 L6362 7 L6382 6 L6402 5 L6420 4 L6439 3 L6460 2 L6485 1 L6500 0" />
</svg>
