<svg xmlns="http://www.w3.org/2000/svg" version="1.1" viewBox="0 0 6500 1000">
	<path fill="none" stroke="gold" stroke-width="125" stroke-linecap="round" stroke-linejoin="round" d="M0 96219  L-403565 96219 L-400961 96078 L-399293 95936 L-380964 95652 L-380794 95368 L-373636 95085 L-373603 95085 L-360172 94943 L-357250 95085 L-343909 94659 L-339740 94092 L-338580 93382 L-337961 92673 L-335949 92248 L-332177 91964 L-331577 91680 L-331248 91397 L-331035 91113 L-330494 90829 L-329256 89695 L-328077 88560 L-325212 87425 L-324690 86290 L-319835 86007 L-316897 85723 L-316854 85439 L-316546 85156 L-316294 84872 L-313699 84588 L-309444 84588 L-309426 84588 L-308189 84588 L-306312 84588 L-304358 84304 L-303410 84021 L-303139 83737 L-302829 83595 L-302731 83453 L-301901 83453 L-299870 83595 L-299580 82319 L-297433 81751 L-297278 80900 L-293622 80049 L-293371 80475 L-293272 80333 L-292755 80758 L-290604 81468 L-289675 82177 L-288149 82886 L-286909 82886 L-285363 82744 L-282401 82460 L-281279 82177 L-280970 81893 L-279759 81751 L-276752 83312 L-276732 83170 L-276385 83028 L-276172 82886 L-276046 80900 L-275804 80617 L-275766 80333 L-275747 80049 L-275727 79765 L-275668 79482 L-275610 79198 L-275592 78914 L-275149 78631 L-273909 78347 L-272364 78063 L-268976 77780 L-263250 77638 L-263048 77496 L-261412 77354 L-259690 77212 L-258258 77070 L-258026 76929 L-257311 76787 L-251178 76645 L-250811 76361 L-250656 76078 L-250078 75794 L-249785 75510 L-248818 75226 L-248508 74943 L-247909 74659 L-246303 74659 L-245568 74659 L-245258 74801 L-244490 74801 L-242454 74517 L-242028 74234 L-241216 74092 L-233787 73808 L-233264 73524 L-233091 73241 L-232356 72957 L-230788 72673 L-230382 72531 L-228157 72248 L-227209 72106 L-226784 71964 L-226454 71964 L-225410 71822 L-223302 71539 L-223050 71255 L-222431 70971 L-221618 70829 L-219510 70546 L-219462 70262 L-217534 69978 L-217208 69695 L-217073 69411 L-216570 69269 L-215157 68985 L-214654 68418 L-214132 67992 L-210573 67425 L-209838 66858 L-207413 66858 L-206124 66574 L-205717 66432 L-202564 66432 L-202409 66432 L-202389 66574 L-202022 66574 L-200764 66716 L-200049 66858 L-199159 66858 L-198752 66858 L-197824 66858 L-196715 66716 L-196412 67283 L-190163 67567 L-189216 67851 L-187590 68134 L-187088 68276 L-183412 68418 L-182580 68560 L-178627 68702 L-177215 68276 L-174725 67992 L-174049 67709 L-174010 67567 L-173139 67567 L-169928 67425 L-167065 67283 L-166097 67141 L-164976 66858 L-164957 66574 L-163332 66290 L-162868 65865 L-162776 65723 L-156406 65581 L-155458 65439 L-153001 65297 L-152129 65014 L-150893 64872 L-148891 64730 L-148494 64446 L-147057 64163 L-145031 64021 L-144818 63737 L-143638 63595 L-142129 63453 L-142109 63312 L-140097 63170 L-139228 62886 L-138357 62744 L-137772 62460 L-137235 62177 L-136577 61893 L-135339 61609 L-134778 61468 L-133597 61326 L-132360 61184 L-132321 61042 L-131934 60900 L-131392 60617 L-130619 60475 L-129496 60333 L-127407 60049 L-127074 59765 L-126788 59482 L-125860 59340 L-125376 59056 L-124641 58914 L-121010 58773 L-119882 58631 L-119727 58489 L-118701 58205 L-114987 58063 L-113769 57780 L-111951 57496 L-109165 57354 L-108604 57070 L-104716 57070 L-102239 56929 L-100904 56929 L-100401 56787 L-99918 56645 L-97228 56645 L-93457 56645 L-91000 56645 L-89820 56645 L-89181 56503 L-86821 56219 L-86744 56078 L-85696 55936 L-85603 55652 L-85100 55652 L-84654 55652 L-84597 55652 L-84383 55652 L-81423 55368 L-78716 55226 L-78561 55085 L-75040 54943 L-74517 54659 L-73550 54375 L-73201 54234 L-72157 53950 L-71229 53666 L-70803 53524 L-69294 53524 L-68327 53382 L-68308 53241 L-66412 42886 L-66296 32248 L-66248 21751 L-66224 11255 L-63220 11113 L-61189 10829 L-59428 10687 L-59061 10546 L-58615 10262 L-58249 10120 L-57835 9836 L-55850 9695 L-55636 9695 L-55482 9553 L-53876 9553 L-52755 9411 L-51806 9269 L-50549 8985 L-48904 8843 L-47725 8560 L-41135 8418 L-41089 8276 L-40683 8134 L-39638 7992 L-39502 7851 L-37820 7567 L-37800 7425 L-36463 7141 L-35227 7000 L-35073 6858 L-34699 6574 L-34493 6432 L-34183 6290 L-33409 6007 L-31088 5865 L-30430 5723 L-28302 5581 L-26580 5439 L-26386 5156 L-23833 5014 L-23557 4730 L-23368 4446 L-22536 4304 L-21763 4163 L-21065 4021 L-16065 4021 L-15689 3737 L-11436 3595 L-10949 17638 L-10930 17638 L-10851 17496 L-10775 17354 L-10756 2886 L-9943 2744 L-9189 2460 L-7970 2319 L-6538 2319 L-6442 2177 L-6267 2177 L-5913 1893 L-4604 1751 L-2746 1609 L-1044 1326 L-541 1184 L-276 1042 L116 900 L251 758 L1160 617 L1537 475 L2465 475 L2804 333 L2844 333 L2882 191 L4797 191 L4971 49 L6500 49" />
</svg>
