<svg xmlns="http://www.w3.org/2000/svg" version="1.1" viewBox="0 0 6500 1000">
	<path fill="none" stroke="gold" stroke-width="125" stroke-linecap="round" stroke-linejoin="round" d="M0 1022  L-715430 1022 L-712826 1022 L-711158 1022 L-692828 1021 L-692658 1021 L-685500 1021 L-685467 1021 L-672036 1021 L-669115 1021 L-655774 1021 L-651605 1021 L-650445 1020 L-649826 1020 L-647814 1020 L-644042 1019 L-643442 1019 L-643113 1019 L-642900 1019 L-642358 1019 L-641120 1018 L-639941 1018 L-637077 1017 L-636555 1016 L-631699 1016 L-628762 1016 L-628719 1016 L-628411 1016 L-628159 1016 L-625564 1015 L-621308 1015 L-621291 1015 L-620054 1015 L-618176 1015 L-616223 1015 L-615275 1015 L-615004 1015 L-614694 1015 L-614596 1015 L-613766 1015 L-611735 1015 L-611444 1014 L-609298 1014 L-609143 1014 L-605486 1013 L-605235 1013 L-605137 1013 L-604620 1013 L-602468 1014 L-601540 1014 L-600014 1015 L-598774 1015 L-597228 1014 L-594266 1014 L-593144 1014 L-592835 1014 L-591623 1014 L-588617 1015 L-588597 1015 L-588250 1015 L-588037 1015 L-587910 1014 L-587669 1013 L-587631 1013 L-587611 1013 L-587592 1013 L-587533 1013 L-587474 1013 L-587456 1012 L-587013 1012 L-585774 1012 L-584228 1012 L-580840 1012 L-575114 1012 L-574913 1012 L-573277 1012 L-571555 1012 L-570123 1011 L-569890 1011 L-569175 1011 L-563043 1011 L-562675 1011 L-562521 1011 L-561942 1011 L-561650 1011 L-560683 1010 L-560373 1010 L-559774 1010 L-558168 1010 L-557433 1010 L-557123 1010 L-556355 1010 L-554318 1010 L-553893 1010 L-553081 1010 L-545652 1010 L-545129 1010 L-544955 1009 L-544220 1009 L-542653 1009 L-542247 1009 L-540022 1009 L-539074 1009 L-538649 1009 L-538319 1009 L-537275 1009 L-535167 1009 L-534915 1008 L-534296 1008 L-533483 1008 L-531375 1008 L-531327 1008 L-529399 1008 L-529073 1008 L-528938 1007 L-528435 1007 L-527022 1007 L-526519 1007 L-525997 1007 L-522438 1006 L-521702 1006 L-519278 1006 L-517988 1006 L-517581 1006 L-514429 1006 L-514274 1006 L-514254 1006 L-513887 1006 L-512629 1006 L-511914 1006 L-511024 1006 L-510617 1006 L-509688 1006 L-508580 1006 L-508277 1006 L-502028 1006 L-501080 1007 L-499454 1007 L-498952 1007 L-495277 1007 L-494444 1007 L-490491 1007 L-489079 1007 L-486590 1007 L-485914 1006 L-485875 1006 L-485004 1006 L-481793 1006 L-478930 1006 L-477962 1006 L-476840 1006 L-476821 1006 L-475196 1006 L-474732 1006 L-474640 1005 L-468271 1005 L-467323 1005 L-464866 1005 L-463993 1005 L-462757 1005 L-460756 1005 L-460358 1005 L-458922 1005 L-456896 1005 L-456683 1004 L-455503 1004 L-453994 1004 L-453974 1004 L-451962 1004 L-451092 1004 L-450221 1004 L-449637 1004 L-449099 1004 L-448442 1003 L-447203 1003 L-446643 1003 L-445462 1003 L-444224 1003 L-444186 1003 L-443799 1003 L-443257 1003 L-442483 1003 L-441361 1003 L-439272 1002 L-438939 1002 L-438653 1002 L-437724 1002 L-437241 1002 L-436506 1002 L-432874 1002 L-431747 1002 L-431592 1002 L-430566 1001 L-426851 1001 L-425634 1001 L-423816 1001 L-421030 1001 L-420468 1001 L-416580 1001 L-414104 1001 L-412769 1001 L-412266 1001 L-411782 1001 L-409093 1001 L-405322 1001 L-402864 1001 L-401685 1001 L-401045 1001 L-398686 1000 L-398608 1000 L-397561 1000 L-397467 1000 L-396964 1000 L-396519 1000 L-396461 1000 L-396248 1000 L-393288 1000 L-390580 1000 L-390426 1000 L-386905 1000 L-386382 1000 L-385415 999 L-385066 999 L-384022 999 L-383093 999 L-382668 999 L-381159 999 L-380192 999 L-380173 999 L-378277 993 L-378161 988 L-378113 982 L-378089 976 L-375084 976 L-373054 976 L-371293 976 L-370926 976 L-370480 976 L-370113 976 L-369699 976 L-367714 976 L-367501 976 L-367346 976 L-365741 976 L-364619 975 L-363671 975 L-362414 975 L-360769 975 L-359589 975 L-353000 975 L-352953 975 L-352548 975 L-351502 975 L-351367 975 L-349685 975 L-349665 974 L-348328 974 L-347092 974 L-346937 974 L-346563 974 L-346357 974 L-346048 974 L-345274 974 L-342952 974 L-342295 974 L-340167 973 L-338444 973 L-338251 973 L-335698 973 L-335421 973 L-335233 973 L-334401 973 L-333628 973 L-332930 973 L-327930 973 L-327554 972 L-323301 972 L-322814 980 L-322794 980 L-322715 980 L-322640 980 L-322620 972 L-321807 972 L-321054 972 L-319835 972 L-318403 972 L-318306 972 L-318132 972 L-317778 971 L-316468 971 L-314611 971 L-312909 971 L-312406 971 L-312141 971 L-311747 971 L-311613 971 L-310703 971 L-310327 971 L-309398 971 L-309059 971 L-309020 971 L-308982 971 L-307067 971 L-306893 971 L-305364 971 L-305036 970 L-304920 970 L-304513 970 L-304165 970 L-302521 970 L-301970 970 L-301727 970 L-301186 970 L-300354 970 L-299813 970 L-298278 969 L-298186 969 L-298149 969 L-298013 969 L-297626 969 L-296601 969 L-294724 969 L-294628 969 L-294028 971 L-293661 974 L-293176 976 L-293138 979 L-292364 979 L-292307 979 L-292132 979 L-291939 979 L-290333 979 L-290313 979 L-290158 979 L-290043 979 L-288863 979 L-288708 979 L-288042 979 L-285593 985 L-283078 992 L-280409 998 L-272709 1004 L-267042 1004 L-264827 1004 L-264804 1004 L-263830 1005 L-263810 1005 L-262946 1005 L-260206 1005 L-254408 1004 L-254254 1003 L-251468 1003 L-237860 1003 L-237114 1003 L-232703 1003 L-216357 1003 L-216125 1003 L-215588 1003 L-207129 1003 L-198423 1002 L-198211 1002 L-196238 1002 L-193452 1002 L-188964 1002 L-188810 1002 L-188641 1002 L-188500 1002 L-188209 1002 L-188171 1002 L-187900 1002 L-187728 1002 L-187318 1002 L-186198 1002 L-185017 1002 L-183741 1002 L-180877 1002 L-177956 1001 L-175964 1001 L-174417 1001 L-171379 1001 L-162054 1001 L-161530 1001 L-155807 1001 L-154300 1001 L-153485 1001 L-151801 1001 L-151080 1001 L-150912 1001 L-149867 1001 L-147799 1000 L-146437 1000 L-141994 1000 L-141897 1000 L-141858 1000 L-141839 1000 L-141007 1000 L-140929 1000 L-138357 1000 L-135107 1000 L-134952 1000 L-134004 1000 L-132263 999 L-131548 1000 L-128007 1000 L-121430 1001 L-120012 1001 L-119992 1001 L-119041 1001 L-115567 1001 L-114813 1001 L-114252 1001 L-113470 1001 L-105966 1001 L-104367 1001 L-102793 1001 L-99608 1000 L-95275 1000 L-86705 1000 L-77959 1000 L-74885 1000 L-71619 1000 L-71072 1000 L-63935 1000 L-58267 1000 L-44203 1000 L-38192 1000 L-33485 1000 L-29482 1000 L-24375 1000 L-14661 1000 L909 999 L3992 999 L4294 965 L4314 924 L4332 876 L4352 823 L4372 799 L4391 778 L4410 760 L4437 741 L4458 723 L4486 704 L4521 683 L4535 665 L4548 650 L4566 637 L4585 628 L4605 619 L4623 609 L4643 599 L4663 590 L4684 580 L4701 570 L4719 560 L4740 551 L4760 542 L4778 531 L4797 521 L4817 510 L4837 500 L4855 490 L4874 480 L4895 471 L4920 462 L4935 453 L4952 444 L4971 436 L4991 427 L5010 418 L5029 408 L5049 399 L5069 391 L5087 382 L5106 375 L5127 367 L5147 361 L5164 355 L5183 349 L5203 343 L5222 337 L5242 332 L5261 327 L5281 323 L5300 319 L5320 315 L5338 311 L5366 306 L5387 301 L5414 295 L5448 288 L5463 283 L5476 278 L5494 274 L5513 270 L5533 267 L5552 262 L5571 258 L5591 253 L5612 249 L5629 245 L5648 241 L5668 237 L5688 233 L5706 227 L5725 221 L5745 216 L5765 210 L5784 204 L5803 198 L5824 191 L5848 183 L5863 176 L5880 169 L5900 162 L5919 155 L5939 148 L5957 141 L5977 133 L5998 126 L6016 119 L6035 113 L6055 106 L6075 100 L6093 94 L6112 88 L6132 83 L6151 78 L6171 73 L6189 68 L6209 63 L6229 58 L6248 53 L6267 48 L6296 43 L6315 38 L6343 33 L6380 28 L6395 22 L6408 17 L6425 12 L6442 9 L6462 6 L6480 3 L6500 0" />
</svg>
