<svg xmlns="http://www.w3.org/2000/svg" version="1.1" viewBox="0 0 6500 1000">
	<path fill="none" stroke="gold" stroke-width="125" stroke-linecap="round" stroke-linejoin="round" d="M0 18727  L-265672 18727 L-263068 18653 L-261400 18578 L-243071 18429 L-242901 18280 L-235743 18131 L-235710 18131 L-222279 18056 L-219357 18131 L-206016 17907 L-201847 17609 L-200687 17236 L-200068 16863 L-198056 16639 L-194284 16490 L-193684 16341 L-193355 16192 L-193142 16043 L-192601 15894 L-191363 15297 L-190184 14700 L-187319 14104 L-186797 13507 L-181942 13358 L-179004 13209 L-178961 13060 L-178653 12911 L-178401 12762 L-175806 12612 L-171551 12612 L-171533 12612 L-170296 12612 L-168419 12612 L-166465 12463 L-165517 12314 L-165246 12165 L-164937 12090 L-164838 12016 L-164008 12016 L-161977 12090 L-161687 11419 L-159540 11121 L-159385 10674 L-155729 10226 L-155478 10450 L-155379 10375 L-154862 10599 L-152711 10972 L-151782 11345 L-150256 11718 L-149016 11718 L-147470 11643 L-144508 11494 L-143386 11345 L-143077 11196 L-141866 11121 L-138859 11941 L-138840 11867 L-138492 11792 L-138279 11718 L-138153 10674 L-137911 10524 L-137873 10375 L-137854 10226 L-137834 10077 L-137775 9928 L-137717 9779 L-137699 9630 L-137256 9480 L-136016 9331 L-134471 9182 L-131083 9033 L-125357 8958 L-125155 8884 L-123519 8809 L-121797 8735 L-120365 8660 L-120133 8586 L-119418 8511 L-113285 8436 L-112918 8287 L-112763 8138 L-112185 7989 L-111892 7840 L-110925 7691 L-110615 7542 L-110016 7392 L-108410 7392 L-107675 7392 L-107365 7467 L-106597 7467 L-104561 7318 L-104135 7169 L-103323 7094 L-95894 6945 L-95371 6796 L-95198 6647 L-94463 6498 L-92895 6348 L-92489 6274 L-90264 6125 L-89316 6050 L-88891 5976 L-88561 5976 L-87517 5901 L-85409 5752 L-85157 5603 L-84538 5454 L-83725 5379 L-81618 5230 L-81569 5081 L-79641 4932 L-79315 4782 L-79180 4633 L-78677 4559 L-77264 4410 L-76761 4111 L-76240 3888 L-72680 3589 L-71945 3291 L-69520 3291 L-68231 3142 L-67824 3067 L-64671 3067 L-64516 3067 L-64496 3142 L-64129 3142 L-62871 3217 L-62156 3291 L-61266 3291 L-60859 3291 L-59931 3291 L-58822 3217 L-58519 3515 L-52270 3664 L-51323 3813 L-49697 3962 L-49195 4037 L-45519 4111 L-44687 4186 L-40734 4260 L-39322 4037 L-36833 3888 L-36156 3739 L-36117 3664 L-35247 3664 L-32035 3589 L-29172 3515 L-28204 3440 L-27083 3291 L-27064 3142 L-25439 2993 L-24975 2769 L-24883 2695 L-18513 2620 L-17565 2545 L-15108 2471 L-14236 2322 L-13000 2247 L-10998 2173 L-10601 2023 L-9164 1874 L-7138 1800 L-6925 1651 L-5745 1576 L-4237 1501 L-4216 1427 L-2204 1352 L-1335 1203 L-464 1129 L120 979 L657 830 L1315 681 L2553 532 L3114 457 L4295 383 L5532 308 L5571 234 L5958 159 L6500 10" />
</svg>
