<svg xmlns="http://www.w3.org/2000/svg" version="1.1" viewBox="0 0 6500 1000">
	<path fill="none" stroke="gold" stroke-width="125" stroke-linecap="round" stroke-linejoin="round" d="M0 67298  L-399910 67298 L-397306 67199 L-395638 67099 L-377308 66900 L-377138 66701 L-369980 66502 L-369947 66502 L-356516 66402 L-353594 66502 L-340253 66203 L-336084 65805 L-334924 65308 L-334305 64810 L-332293 64512 L-328522 64313 L-327921 64114 L-327593 63915 L-327380 63716 L-326838 63517 L-325600 62721 L-324421 61925 L-321557 61129 L-321034 60333 L-316179 60134 L-313242 59935 L-313199 59736 L-312890 59537 L-312639 59338 L-310044 59139 L-305788 59139 L-305770 59139 L-304533 59139 L-302656 59139 L-300702 58940 L-299754 58741 L-299484 58542 L-299174 58442 L-299076 58343 L-298245 58343 L-296215 58442 L-295924 57547 L-293778 57149 L-293622 56552 L-289966 55955 L-289715 56253 L-289616 56154 L-289099 56452 L-286948 56950 L-286019 57447 L-284493 57945 L-283254 57945 L-281707 57845 L-278745 57646 L-277624 57447 L-277314 57248 L-276103 57149 L-273096 58243 L-273077 58144 L-272729 58044 L-272516 57945 L-272390 56552 L-272149 56353 L-272111 56154 L-272091 55955 L-272072 55756 L-272013 55557 L-271954 55358 L-271936 55159 L-271493 54960 L-270254 54761 L-268708 54562 L-265320 54363 L-259594 54263 L-259392 54164 L-257757 54064 L-256035 53965 L-254603 53865 L-254370 53766 L-253655 53666 L-247523 53567 L-247155 53368 L-247001 53169 L-246422 52970 L-246130 52771 L-245162 52572 L-244853 52373 L-244254 52174 L-242647 52174 L-241912 52174 L-241602 52273 L-240834 52273 L-238798 52074 L-238373 51875 L-237560 51776 L-230132 51577 L-229609 51378 L-229435 51179 L-228700 50980 L-227132 50781 L-226727 50681 L-224502 50482 L-223554 50383 L-223129 50283 L-222798 50283 L-221755 50184 L-219647 49985 L-219394 49786 L-218776 49587 L-217963 49487 L-215855 49288 L-215806 49089 L-213878 48890 L-213552 48691 L-213417 48492 L-212914 48393 L-211502 48194 L-210999 47796 L-210477 47497 L-206917 47099 L-206182 46701 L-203757 46701 L-202468 46502 L-202061 46402 L-198908 46402 L-198754 46402 L-198733 46502 L-198367 46502 L-197109 46601 L-196394 46701 L-195504 46701 L-195097 46701 L-194168 46701 L-193060 46601 L-192756 47000 L-186507 47199 L-185560 47398 L-183934 47597 L-183432 47696 L-179756 47796 L-178924 47895 L-174971 47995 L-173559 47696 L-171070 47497 L-170393 47298 L-170355 47199 L-169484 47199 L-166273 47099 L-163410 47000 L-162442 46900 L-161320 46701 L-161301 46502 L-159676 46303 L-159212 46004 L-159120 45905 L-152751 45805 L-151802 45706 L-149345 45606 L-148473 45407 L-147237 45308 L-145236 45208 L-144838 45009 L-143402 44810 L-141376 44711 L-141162 44512 L-139982 44412 L-138474 44313 L-138454 44213 L-136441 44114 L-135572 43915 L-134701 43815 L-134116 43616 L-133579 43417 L-132921 43218 L-131683 43019 L-131123 42920 L-129942 42820 L-128704 42721 L-128665 42621 L-128278 42522 L-127737 42323 L-126963 42223 L-125841 42124 L-123752 41925 L-123418 41726 L-123133 41527 L-122204 41427 L-121721 41228 L-120985 41129 L-117354 41029 L-116227 40930 L-116072 40830 L-115046 40631 L-111331 40532 L-110114 40333 L-108295 40134 L-105510 40034 L-104948 39835 L-101060 39835 L-98584 39736 L-97249 39736 L-96745 39636 L-96262 39537 L-93573 39537 L-89801 39537 L-87344 39537 L-86164 39537 L-85525 39437 L-83165 39238 L-83088 39139 L-82041 39039 L-81947 38840 L-81444 38840 L-80999 38840 L-80941 38840 L-80727 38840 L-77768 38641 L-75060 38542 L-74905 38442 L-71385 38343 L-70862 38144 L-69894 37945 L-69545 37845 L-68502 37646 L-67573 37447 L-67147 37348 L-65638 37348 L-64671 37248 L-64652 37149 L-62756 29885 L-62641 22422 L-62593 15059 L-62568 7696 L-59564 7597 L-57533 7398 L-55773 7298 L-55405 7199 L-54960 7000 L-54593 6900 L-54179 6701 L-52194 6601 L-51981 6601 L-51826 6502 L-50221 6502 L-49099 6402 L-48151 6303 L-46893 6104 L-45249 6004 L-44069 5805 L-37480 5706 L-37433 5606 L-37027 5507 L-35982 5407 L-35847 5308 L-34164 5109 L-34144 5009 L-32807 4810 L-31571 4711 L-31417 4611 L-31043 4412 L-30837 4313 L-30527 4213 L-29754 4014 L-27432 3915 L-26774 3815 L-24647 3716 L-22924 3616 L-22731 3417 L-20177 3318 L-19901 3119 L-19713 2920 L-18880 2820 L-18108 2721 L-17410 2621 L-12409 2621 L-12033 2422 L-7780 2323 L-7293 12174 L-7274 12174 L-7195 12074 L-7120 11975 L-7100 1825 L-6287 1726 L-5533 1527 L-4314 1427 L-2882 1427 L-2786 1328 L-2612 1328 L-2257 1129 L-948 1029 L908 930 L2611 731 L3113 631 L3379 532 L3772 432 L3906 333 L4816 233 L5192 134 L6121 134 L6460 34 L6500 34" />
</svg>
