<svg xmlns="http://www.w3.org/2000/svg" version="1.1" viewBox="0 0 6500 1000">
	<path fill="none" stroke="gold" stroke-width="125" stroke-linecap="round" stroke-linejoin="round" d="M0 3101  L-722124 3101 L-719520 3101 L-717852 3101 L-699522 3100 L-699352 3100 L-692194 3100 L-692161 3100 L-678730 3100 L-675809 3100 L-662468 3099 L-658299 3099 L-657139 3098 L-656520 3097 L-654508 3097 L-650736 3096 L-650136 3096 L-649807 3096 L-649594 3096 L-649052 3095 L-647814 3094 L-646635 3093 L-643771 3092 L-643249 3090 L-638393 3090 L-635456 3090 L-635413 3090 L-635105 3089 L-634853 3089 L-632258 3089 L-628002 3089 L-627985 3089 L-626748 3089 L-624870 3089 L-622917 3088 L-621969 3088 L-621698 3088 L-621388 3088 L-621290 3087 L-620460 3087 L-618429 3088 L-618138 3086 L-615992 3086 L-615837 3085 L-612180 3084 L-611929 3084 L-611831 3084 L-611314 3085 L-609162 3085 L-608234 3086 L-606708 3087 L-605468 3087 L-603922 3087 L-600960 3086 L-599838 3086 L-599529 3086 L-598317 3086 L-595311 3087 L-595291 3087 L-594944 3087 L-594731 3087 L-594604 3085 L-594363 3085 L-594325 3084 L-594305 3084 L-594286 3084 L-594227 3083 L-594168 3083 L-594150 3083 L-593707 3082 L-592468 3082 L-590922 3082 L-587535 3082 L-581808 3081 L-581607 3081 L-579971 3081 L-578249 3081 L-576817 3081 L-576584 3081 L-575869 3080 L-569737 3080 L-569369 3080 L-569215 3080 L-568636 3079 L-568344 3079 L-567377 3079 L-567067 3079 L-566468 3078 L-564862 3078 L-564127 3078 L-563817 3078 L-563049 3078 L-561012 3078 L-560587 3078 L-559775 3078 L-552346 3077 L-551823 3077 L-551649 3077 L-550914 3076 L-549347 3076 L-548941 3076 L-546716 3076 L-545768 3076 L-545343 3075 L-545013 3075 L-543969 3075 L-541861 3075 L-541609 3075 L-540990 3074 L-540177 3074 L-538069 3074 L-538021 3074 L-536093 3073 L-535767 3073 L-535632 3073 L-535129 3073 L-533716 3072 L-533213 3072 L-532691 3071 L-529132 3071 L-528396 3070 L-525972 3070 L-524682 3070 L-524275 3070 L-521123 3070 L-520968 3070 L-520948 3070 L-520581 3070 L-519323 3070 L-518608 3070 L-517718 3070 L-517311 3070 L-516382 3070 L-515274 3070 L-514971 3070 L-508722 3071 L-507774 3071 L-506148 3071 L-505646 3072 L-501971 3072 L-501138 3072 L-497185 3072 L-495773 3072 L-493284 3071 L-492608 3071 L-492569 3071 L-491698 3071 L-488487 3071 L-485624 3070 L-484656 3070 L-483534 3070 L-483515 3070 L-481890 3069 L-481426 3069 L-481334 3069 L-474965 3069 L-474017 3069 L-471560 3068 L-470687 3068 L-469451 3068 L-467450 3068 L-467052 3067 L-465616 3067 L-463590 3067 L-463377 3067 L-462197 3067 L-460688 3066 L-460668 3066 L-458656 3066 L-457786 3066 L-456915 3066 L-456331 3065 L-455793 3065 L-455136 3065 L-453897 3064 L-453337 3064 L-452156 3064 L-450918 3064 L-450880 3064 L-450493 3064 L-449951 3063 L-449177 3063 L-448055 3063 L-445966 3063 L-445633 3063 L-445347 3062 L-444418 3062 L-443935 3062 L-443200 3062 L-439568 3061 L-438441 3061 L-438286 3061 L-437260 3061 L-433545 3061 L-432328 3060 L-430510 3060 L-427724 3060 L-427162 3060 L-423274 3060 L-420798 3060 L-419463 3060 L-418960 3059 L-418476 3059 L-415787 3059 L-412016 3059 L-409558 3059 L-408379 3059 L-407739 3059 L-405380 3059 L-405302 3059 L-404255 3059 L-404161 3058 L-403658 3058 L-403213 3058 L-403155 3058 L-402942 3058 L-399982 3058 L-397274 3058 L-397120 3058 L-393599 3057 L-393076 3057 L-392109 3057 L-391760 3057 L-390716 3056 L-389787 3056 L-389362 3056 L-387853 3056 L-386886 3056 L-386867 3056 L-384971 3045 L-384855 3034 L-384807 3022 L-384783 3011 L-381778 3011 L-379748 3011 L-377987 3011 L-377620 3011 L-377174 3010 L-376807 3010 L-376393 3010 L-374408 3010 L-374195 3010 L-374040 3010 L-372435 3010 L-371313 3009 L-370365 3009 L-369108 3009 L-367463 3009 L-366283 3009 L-359694 3008 L-359647 3008 L-359242 3008 L-358196 3008 L-358061 3008 L-356379 3008 L-356359 3007 L-355022 3007 L-353786 3007 L-353631 3007 L-353257 3007 L-353051 3006 L-352742 3006 L-351968 3006 L-349646 3006 L-348989 3006 L-346861 3005 L-345138 3005 L-344945 3005 L-342392 3005 L-342115 3005 L-341927 3004 L-341095 3004 L-340322 3004 L-339624 3004 L-334624 3004 L-334248 3004 L-329995 3003 L-329508 3018 L-329488 3018 L-329409 3018 L-329334 3018 L-329314 3003 L-328501 3002 L-327748 3002 L-326529 3002 L-325097 3002 L-325000 3002 L-324826 3002 L-324472 3002 L-323162 3001 L-321305 3001 L-319603 3001 L-319100 3001 L-318835 3001 L-318441 3001 L-318307 3000 L-317397 3000 L-317021 3000 L-316092 3000 L-315753 3000 L-315714 3000 L-315676 3000 L-313761 3000 L-313587 3000 L-312058 3000 L-311730 2999 L-311614 2999 L-311207 2999 L-310859 2999 L-309215 2999 L-308664 2998 L-308421 2998 L-307880 2998 L-307048 2998 L-306507 2998 L-304972 2997 L-304880 2997 L-304843 2997 L-304707 2997 L-304320 2997 L-303295 2997 L-301418 2996 L-301322 2996 L-300722 3001 L-300355 3006 L-299870 3011 L-299832 3017 L-299058 3017 L-299001 3017 L-298826 3016 L-298633 3016 L-297027 3016 L-297007 3016 L-296852 3016 L-296737 3016 L-295557 3016 L-295402 3017 L-294736 3017 L-292287 3029 L-289772 3042 L-287103 3054 L-279403 3066 L-273736 3066 L-271521 3066 L-271498 3066 L-270524 3069 L-270504 3069 L-269640 3068 L-266900 3068 L-261102 3065 L-260948 3065 L-258162 3065 L-244554 3064 L-243808 3064 L-239397 3064 L-223051 3064 L-222819 3063 L-222282 3063 L-213823 3063 L-205117 3063 L-204905 3063 L-202932 3063 L-200146 3063 L-195658 3063 L-195504 3063 L-195335 3063 L-195194 3063 L-194903 3062 L-194865 3062 L-194594 3062 L-194422 3062 L-194012 3062 L-192892 3061 L-191711 3061 L-190435 3061 L-187571 3061 L-184650 3061 L-182658 3061 L-181111 3060 L-178073 3060 L-168748 3060 L-168224 3060 L-162501 3060 L-160994 3060 L-160179 3060 L-158495 3060 L-157774 3059 L-157606 3059 L-156561 3059 L-154493 3059 L-153131 3059 L-148688 3059 L-148591 3059 L-148552 3058 L-148533 3058 L-147701 3058 L-147623 3058 L-145051 3058 L-141801 3057 L-141646 3057 L-140698 3057 L-138957 3057 L-138242 3058 L-134701 3059 L-128124 3059 L-126706 3061 L-126686 3060 L-125735 3060 L-122261 3060 L-121507 3060 L-120946 3060 L-120164 3060 L-112660 3059 L-111061 3059 L-109487 3059 L-106302 3059 L-101969 3059 L-93399 3059 L-84653 3059 L-81579 3059 L-78313 3058 L-77766 3058 L-70629 3058 L-64961 3058 L-50897 3058 L-44886 3058 L-40179 3058 L-36176 3058 L-31069 3057 L-21355 3057 L-5784 3057 L-2701 3057 L-2399 2989 L-2379 2907 L-2361 2813 L-2341 2708 L-2321 2660 L-2302 2619 L-2283 2582 L-2256 2545 L-2235 2510 L-2207 2472 L-2172 2430 L-2158 2395 L-2145 2365 L-2127 2340 L-2108 2321 L-2088 2303 L-2070 2283 L-2050 2264 L-2030 2245 L-2009 2225 L-1992 2206 L-1974 2187 L-1953 2169 L-1933 2150 L-1915 2130 L-1896 2110 L-1876 2088 L-1856 2068 L-1838 2048 L-1819 2029 L-1798 2011 L-1773 1992 L-1758 1975 L-1741 1958 L-1722 1940 L-1702 1923 L-1683 1905 L-1664 1886 L-1644 1868 L-1624 1851 L-1606 1835 L-1587 1820 L-1566 1805 L-1546 1792 L-1529 1780 L-1510 1768 L-1490 1757 L-1471 1746 L-1451 1736 L-1432 1726 L-1412 1718 L-1393 1710 L-1373 1702 L-1355 1694 L-1327 1684 L-1306 1673 L-1279 1662 L-1245 1649 L-1230 1638 L-1217 1629 L-1199 1620 L-1180 1613 L-1160 1606 L-1141 1597 L-1122 1588 L-1102 1579 L-1081 1571 L-1064 1564 L-1045 1556 L-1025 1547 L-1005 1538 L-987 1528 L-968 1516 L-948 1505 L-928 1493 L-909 1481 L-890 1469 L-869 1455 L-845 1441 L-830 1426 L-813 1412 L-793 1399 L-774 1385 L-754 1371 L-736 1356 L-716 1342 L-695 1328 L-677 1314 L-658 1301 L-638 1288 L-618 1275 L-600 1263 L-581 1252 L-561 1241 L-542 1232 L-522 1222 L-504 1212 L-484 1202 L-464 1192 L-445 1182 L-426 1172 L-397 1162 L-378 1153 L-350 1144 L-313 1132 L-298 1122 L-285 1112 L-268 1102 L-251 1095 L-231 1089 L-213 1083 L-194 1078 L-173 1072 L-153 1066 L-136 1060 L-117 1053 L-96 1047 L-77 1040 L-58 1032 L-39 1024 L-19 1015 L0 1007 L18 997 L37 989 L58 980 L82 971 L97 963 L114 954 L134 945 L153 936 L173 927 L192 917 L212 908 L232 899 L250 890 L269 881 L289 873 L310 865 L328 858 L347 851 L367 843 L385 836 L405 828 L424 821 L444 814 L463 807 L483 800 L501 793 L530 786 L550 779 L578 771 L614 760 L628 750 L641 740 L659 731 L677 726 L697 720 L715 713 L735 706 L754 698 L776 690 L794 681 L811 672 L832 662 L852 652 L870 641 L889 630 L909 619 L929 608 L947 598 L966 590 L987 583 L1012 578 L1027 573 L1044 567 L1063 562 L1083 556 L1102 550 L1121 544 L1141 539 L1162 534 L1179 530 L1198 524 L1218 518 L1239 510 L1256 503 L1275 498 L1295 493 L1314 490 L1334 486 L1353 483 L1372 479 L1392 475 L1411 471 L1430 467 L1458 463 L1478 460 L1506 456 L1541 451 L1555 446 L1568 443 L1587 439 L1605 437 L1625 434 L1644 430 L1663 428 L1683 425 L1704 422 L1721 419 L1740 416 L1760 413 L1780 409 L1798 406 L1817 403 L1837 400 L1857 397 L1875 394 L1894 391 L1916 389 L1940 386 L1955 383 L1972 381 L1992 378 L2011 375 L2030 372 L2049 369 L2069 366 L2090 363 L2108 360 L2126 357 L2147 354 L2167 352 L2185 349 L2204 346 L2224 344 L2243 341 L2262 339 L2281 337 L2301 335 L2321 333 L2340 331 L2358 335 L2387 338 L2407 341 L2435 343 L2472 341 L2487 339 L2500 337 L2518 335 L2534 334 L2554 332 L2572 330 L2592 328 L2612 327 L2633 325 L2650 324 L2668 322 L2689 321 L2709 319 L2727 317 L2746 315 L2766 313 L2786 312 L2804 310 L2823 309 L2844 307 L2869 306 L2883 304 L2901 302 L2920 300 L2940 299 L2959 297 L2978 295 L2998 293 L3019 291 L3036 288 L3055 286 L3076 284 L3096 282 L3114 280 L3132 277 L3152 275 L3171 273 L3191 271 L3210 269 L3230 266 L3249 264 L3268 263 L3287 261 L3315 259 L3335 257 L3363 255 L3398 253 L3412 251 L3425 249 L3444 247 L3462 245 L3482 244 L3501 242 L3520 240 L3540 238 L3561 236 L3578 235 L3597 233 L3617 231 L3637 228 L3656 226 L3674 223 L3694 220 L3714 217 L3733 215 L3751 212 L3773 210 L3798 207 L3812 204 L3830 202 L3849 199 L3868 196 L3887 194 L3906 191 L3926 189 L3947 186 L3965 184 L3984 181 L4004 179 L4025 177 L4042 175 L4061 173 L4081 172 L4100 170 L4119 168 L4138 167 L4158 165 L4178 164 L4197 163 L4216 162 L4243 160 L4264 159 L4292 157 L4327 154 L4341 152 L4354 149 L4373 147 L4391 145 L4411 144 L4429 142 L4449 140 L4469 139 L4490 137 L4507 135 L4525 133 L4546 131 L4566 129 L4584 127 L4603 125 L4623 122 L4643 120 L4661 118 L4680 117 L4701 115 L4726 113 L4741 112 L4758 110 L4777 108 L4797 106 L4816 104 L4835 102 L4855 99 L4876 96 L4893 93 L4912 91 L4933 89 L4953 87 L4971 85 L4990 84 L5010 82 L5028 81 L5048 80 L5067 78 L5087 77 L5106 76 L5126 75 L5144 73 L5172 72 L5193 71 L5220 70 L5255 68 L5269 67 L5282 66 L5300 65 L5319 64 L5339 63 L5358 62 L5377 61 L5397 60 L5418 59 L5435 58 L5454 57 L5474 56 L5494 55 L5512 54 L5531 53 L5551 52 L5571 51 L5590 50 L5609 50 L5630 49 L5654 48 L5669 47 L5686 46 L5706 45 L5725 44 L5744 43 L5763 42 L5783 40 L5804 39 L5822 37 L5841 35 L5861 32 L5882 30 L5899 29 L5918 28 L5938 26 L5957 25 L5977 23 L5995 22 L6015 21 L6034 20 L6054 19 L6073 18 L6101 17 L6149 16 L6186 15 L6201 14 L6213 13 L6231 12 L6248 11 L6268 11 L6286 10 L6305 9 L6326 8 L6346 7 L6363 7 L6382 6 L6403 6 L6422 5 L6441 4 L6460 3 L6480 2 L6500 1" />
</svg>
