<svg xmlns="http://www.w3.org/2000/svg" version="1.1" viewBox="0 0 6500 1000">
	<path fill="none" stroke="gold" stroke-width="125" stroke-linecap="round" stroke-linejoin="round" d="M0 1015  L-718815 1015 L-716211 1015 L-714543 1015 L-696214 1015 L-696044 1015 L-688886 1015 L-688853 1015 L-675422 1015 L-672500 1015 L-659159 1015 L-654990 1015 L-653830 1014 L-653211 1014 L-651199 1014 L-647427 1014 L-646827 1014 L-646499 1014 L-646286 1013 L-645744 1013 L-644506 1013 L-643327 1012 L-640462 1012 L-639940 1012 L-635085 1011 L-632147 1011 L-632105 1011 L-631796 1011 L-631544 1011 L-628949 1011 L-624694 1011 L-624676 1011 L-623439 1011 L-621562 1011 L-619608 1011 L-618660 1011 L-618389 1011 L-618080 1011 L-617982 1011 L-617151 1011 L-615120 1011 L-614830 1010 L-612684 1010 L-612528 1010 L-608872 1009 L-608621 1009 L-608522 1009 L-608005 1010 L-605854 1010 L-604925 1010 L-603399 1010 L-602159 1010 L-600613 1010 L-597651 1010 L-596529 1010 L-596220 1010 L-595009 1010 L-592002 1010 L-591983 1010 L-591635 1010 L-591422 1010 L-591296 1010 L-591054 1009 L-591016 1009 L-590997 1009 L-590977 1009 L-590919 1009 L-590860 1009 L-590842 1009 L-590399 1009 L-589159 1009 L-587614 1008 L-584226 1008 L-578500 1008 L-578298 1008 L-576662 1008 L-574940 1008 L-573508 1008 L-573276 1008 L-572561 1008 L-566428 1008 L-566061 1008 L-565906 1008 L-565328 1008 L-565035 1008 L-564068 1007 L-563758 1007 L-563159 1007 L-561553 1007 L-560818 1007 L-560508 1007 L-559740 1007 L-557704 1007 L-557279 1007 L-556466 1007 L-549037 1007 L-548514 1007 L-548341 1007 L-547606 1007 L-546038 1006 L-545632 1006 L-543407 1006 L-542459 1006 L-542035 1006 L-541704 1006 L-540660 1006 L-538552 1006 L-538300 1006 L-537681 1006 L-536869 1006 L-534761 1006 L-534712 1006 L-532784 1005 L-532458 1005 L-532323 1005 L-531820 1005 L-530407 1005 L-529904 1005 L-529383 1005 L-525823 1004 L-525088 1004 L-522663 1004 L-521374 1004 L-520967 1004 L-517814 1004 L-517659 1004 L-517639 1004 L-517273 1004 L-516014 1004 L-515299 1004 L-514409 1004 L-514002 1004 L-513074 1004 L-511965 1004 L-511662 1004 L-505413 1005 L-504466 1005 L-502840 1005 L-502338 1005 L-498662 1005 L-497830 1005 L-493877 1005 L-492465 1005 L-489976 1005 L-489299 1005 L-489260 1005 L-488390 1005 L-485178 1004 L-482315 1004 L-481347 1004 L-480226 1004 L-480207 1004 L-478582 1004 L-478118 1004 L-478026 1004 L-471657 1004 L-470708 1004 L-468251 1004 L-467379 1004 L-466143 1004 L-464141 1003 L-463744 1003 L-462307 1003 L-460281 1003 L-460068 1003 L-458888 1003 L-457380 1003 L-457359 1003 L-455347 1003 L-454478 1003 L-453607 1003 L-453022 1003 L-452485 1002 L-451827 1002 L-450589 1002 L-450028 1002 L-448847 1002 L-447610 1002 L-447571 1002 L-447184 1002 L-446643 1002 L-445869 1002 L-444747 1002 L-442657 1002 L-442324 1002 L-442038 1001 L-441110 1001 L-440627 1001 L-439891 1001 L-436260 1001 L-435132 1001 L-434977 1001 L-433951 1001 L-430237 1001 L-429019 1001 L-427201 1001 L-424415 1001 L-423854 1001 L-419966 1001 L-417489 1001 L-416154 1001 L-415651 1000 L-415168 1000 L-412479 1000 L-408707 1000 L-406250 1000 L-405070 1000 L-404431 1000 L-402071 1000 L-401994 1000 L-400946 1000 L-400853 1000 L-400350 1000 L-399904 1000 L-399847 1000 L-399633 1000 L-396674 1000 L-393966 1000 L-393811 1000 L-390290 1000 L-389767 1000 L-388800 1000 L-388451 999 L-387407 999 L-386479 999 L-386053 999 L-384544 999 L-383577 999 L-383558 999 L-381662 995 L-381546 991 L-381498 987 L-381474 983 L-378470 983 L-376439 983 L-374678 983 L-374311 983 L-373866 983 L-373499 983 L-373085 983 L-371100 983 L-370887 983 L-370732 983 L-369126 983 L-368005 983 L-367056 982 L-365799 982 L-364154 982 L-362975 982 L-356385 982 L-356339 982 L-355933 982 L-354888 982 L-354753 982 L-353070 982 L-353050 982 L-351713 982 L-350477 982 L-350323 982 L-349949 981 L-349743 981 L-349433 981 L-348659 981 L-346338 981 L-345680 981 L-343552 981 L-341830 981 L-341636 981 L-339083 981 L-338807 981 L-338619 981 L-337786 981 L-337014 981 L-336316 981 L-331315 981 L-330939 980 L-326686 980 L-326199 986 L-326180 986 L-326101 986 L-326025 986 L-326006 980 L-325193 980 L-324439 980 L-323220 980 L-321788 980 L-321692 980 L-321517 980 L-321163 980 L-319854 980 L-317996 980 L-316294 979 L-315791 979 L-315526 979 L-315133 979 L-314999 979 L-314089 979 L-313712 979 L-312784 979 L-312445 979 L-312405 979 L-312368 979 L-310452 979 L-310278 979 L-308750 979 L-308421 979 L-308305 979 L-307898 979 L-307550 979 L-305906 979 L-305355 979 L-305112 979 L-304571 978 L-303740 978 L-303198 978 L-301663 978 L-301571 978 L-301534 978 L-301398 978 L-301011 978 L-299986 978 L-298110 978 L-298014 978 L-297413 980 L-297046 981 L-296562 983 L-296524 985 L-295750 985 L-295692 985 L-295518 985 L-295324 985 L-293719 985 L-293699 985 L-293544 985 L-293428 985 L-292249 985 L-292094 985 L-291427 985 L-288979 990 L-286464 994 L-283794 998 L-276095 1003 L-270427 1003 L-268213 1003 L-268189 1003 L-267216 1004 L-267196 1004 L-266332 1004 L-263592 1004 L-257793 1002 L-257640 1002 L-254854 1002 L-241245 1002 L-240500 1002 L-236089 1002 L-219743 1002 L-219511 1002 L-218973 1002 L-210514 1002 L-201808 1002 L-201596 1002 L-199624 1002 L-196837 1002 L-192350 1002 L-192195 1002 L-192026 1002 L-191886 1002 L-191595 1001 L-191556 1001 L-191285 1001 L-191114 1001 L-190704 1001 L-189583 1001 L-188403 1001 L-187126 1001 L-184262 1001 L-181342 1001 L-179350 1001 L-177802 1001 L-174764 1001 L-165440 1001 L-164916 1001 L-159192 1001 L-157685 1001 L-156870 1001 L-155187 1001 L-154466 1000 L-154297 1000 L-153252 1000 L-151185 1000 L-149823 1000 L-145380 1000 L-145282 1000 L-145244 1000 L-145225 1000 L-144392 1000 L-144315 1000 L-141742 1000 L-138493 1000 L-138338 1000 L-137390 1000 L-135649 1000 L-134933 1000 L-131392 1000 L-124815 1000 L-123398 1001 L-123377 1001 L-122427 1001 L-118952 1001 L-118199 1001 L-117637 1001 L-116855 1001 L-109351 1000 L-107753 1000 L-106179 1000 L-102993 1000 L-98660 1000 L-90091 1000 L-81344 1000 L-78270 1000 L-75004 1000 L-74458 1000 L-67321 1000 L-61653 1000 L-47589 1000 L-41577 1000 L-36871 1000 L-32868 1000 L-27760 1000 L-18046 1000 L-2476 1000 L606 999 L908 975 L928 946 L947 912 L967 874 L986 857 L1006 842 L1024 829 L1052 816 L1073 803 L1100 790 L1136 775 L1149 762 L1162 751 L1181 742 L1200 736 L1220 729 L1238 722 L1257 715 L1277 708 L1298 701 L1315 694 L1334 687 L1354 681 L1374 674 L1393 667 L1411 660 L1431 652 L1451 645 L1470 637 L1489 631 L1510 624 L1535 618 L1549 611 L1566 605 L1586 599 L1605 593 L1624 586 L1643 579 L1663 573 L1684 567 L1702 561 L1721 556 L1741 550 L1762 546 L1779 541 L1798 537 L1818 533 L1837 529 L1857 525 L1875 522 L1895 519 L1915 516 L1934 513 L1953 510 L1980 507 L2001 503 L2029 499 L2063 494 L2077 491 L2090 487 L2109 484 L2128 482 L2148 479 L2166 476 L2186 473 L2206 469 L2226 466 L2243 464 L2262 461 L2283 458 L2302 455 L2321 451 L2340 447 L2360 443 L2379 438 L2398 434 L2417 430 L2438 425 L2462 420 L2477 414 L2494 409 L2514 405 L2533 400 L2553 395 L2572 389 L2592 384 L2612 379 L2630 374 L2649 369 L2669 365 L2690 360 L2708 356 L2727 352 L2747 348 L2765 345 L2785 341 L2804 337 L2824 334 L2843 330 L2863 327 L2881 323 L2910 320 L2930 316 L2958 313 L2995 309 L3010 305 L3022 302 L3039 298 L3056 296 L3076 294 L3095 291 L3114 289 L3134 287 L3155 285 L3172 283 L3191 281 L3211 278 L3231 276 L3249 273 L3268 270 L3288 267 L3308 264 L3327 261 L3346 258 L3367 255 L3391 251 L3406 248 L3423 245 L3443 242 L3462 239 L3482 235 L3500 232 L3520 228 L3541 225 L3559 222 L3578 219 L3598 216 L3618 213 L3636 211 L3655 208 L3675 205 L3694 203 L3714 200 L3733 197 L3752 195 L3772 192 L3791 190 L3810 187 L3838 185 L3858 182 L3886 179 L3922 175 L3937 172 L3950 168 L3967 165 L3985 163 L4005 161 L4024 159 L4043 156 L4063 153 L4084 150 L4103 147 L4120 144 L4140 140 L4160 137 L4178 133 L4197 129 L4217 125 L4238 121 L4255 117 L4274 114 L4296 112 L4320 110 L4335 108 L4353 106 L4372 104 L4391 102 L4410 100 L4429 98 L4449 96 L4470 94 L4487 93 L4507 91 L4527 89 L4548 86 L4565 83 L4584 81 L4604 80 L4623 78 L4642 77 L4661 76 L4681 75 L4701 73 L4720 72 L4738 70 L4766 69 L4787 68 L4815 66 L4850 64 L4863 63 L4876 62 L4895 60 L4914 59 L4934 58 L4952 57 L4972 56 L4991 55 L5012 54 L5029 53 L5048 52 L5069 51 L5089 50 L5107 48 L5125 47 L5145 46 L5166 45 L5184 44 L5203 43 L5224 42 L5249 41 L5263 40 L5281 39 L5300 38 L5319 37 L5339 36 L5358 35 L5378 34 L5399 33 L5416 32 L5435 31 L5455 30 L5476 29 L5493 28 L5512 27 L5532 26 L5551 25 L5571 24 L5590 24 L5610 23 L5629 22 L5648 22 L5667 23 L5696 24 L5716 25 L5744 26 L5781 25 L5796 24 L5809 23 L5826 23 L5842 22 L5862 22 L5881 21 L5900 21 L5920 20 L5941 19 L5958 19 L5977 18 L5997 18 L6017 17 L6035 17 L6054 16 L6074 15 L6094 15 L6112 14 L6131 13 L6153 13 L6177 12 L6192 12 L6209 11 L6229 11 L6248 10 L6267 9 L6286 9 L6306 8 L6327 7 L6345 6 L6364 5 L6384 5 L6405 4 L6422 3 L6441 2 L6461 2 L6480 1 L6500 0" />
</svg>
