<svg xmlns="http://www.w3.org/2000/svg" version="1.1" viewBox="0 0 6500 1000">
	<path fill="none" stroke="gold" stroke-width="125" stroke-linecap="round" stroke-linejoin="round" d="M0 1085  L-713368 1085 L-710764 1085 L-709096 1085 L-690766 1084 L-690596 1083 L-683438 1083 L-683405 1083 L-669974 1083 L-667052 1083 L-653711 1082 L-649542 1081 L-648382 1079 L-647763 1078 L-645751 1077 L-641980 1076 L-641380 1076 L-641051 1075 L-640838 1075 L-640296 1074 L-639058 1072 L-637879 1069 L-635015 1067 L-634493 1065 L-629637 1064 L-626700 1064 L-626657 1063 L-626348 1062 L-626097 1062 L-623502 1061 L-619246 1061 L-619228 1061 L-617991 1061 L-616114 1061 L-614161 1061 L-613213 1060 L-612942 1060 L-612632 1059 L-612534 1059 L-611703 1059 L-609673 1059 L-609382 1057 L-607236 1055 L-607080 1054 L-603424 1052 L-603173 1053 L-603074 1053 L-602557 1053 L-600406 1055 L-599477 1056 L-597951 1058 L-596712 1058 L-595165 1057 L-592203 1057 L-591082 1056 L-590772 1056 L-589561 1055 L-586555 1059 L-586535 1058 L-586188 1058 L-585974 1058 L-585848 1054 L-585607 1053 L-585569 1053 L-585549 1052 L-585530 1051 L-585471 1051 L-585412 1050 L-585394 1050 L-584951 1049 L-583712 1048 L-582166 1048 L-578778 1047 L-573052 1047 L-572850 1047 L-571215 1046 L-569493 1046 L-568061 1046 L-567828 1046 L-567113 1045 L-560981 1045 L-560613 1044 L-560459 1044 L-559880 1043 L-559588 1043 L-558620 1042 L-558311 1041 L-557712 1041 L-556105 1041 L-555370 1041 L-555061 1041 L-554292 1041 L-552256 1041 L-551831 1040 L-551018 1040 L-543590 1039 L-543067 1039 L-542893 1038 L-542158 1037 L-540590 1037 L-540185 1036 L-537960 1036 L-537012 1036 L-536587 1035 L-536257 1035 L-535213 1035 L-533105 1034 L-532852 1034 L-532234 1033 L-531421 1033 L-529313 1032 L-529264 1032 L-527336 1031 L-527011 1031 L-526876 1030 L-526372 1030 L-524960 1029 L-524457 1028 L-523935 1027 L-520375 1026 L-519640 1025 L-517215 1025 L-515926 1024 L-515519 1024 L-512367 1024 L-512212 1024 L-512191 1024 L-511825 1024 L-510567 1025 L-509852 1025 L-508962 1025 L-508555 1025 L-507626 1025 L-506518 1025 L-506214 1026 L-499965 1026 L-499018 1027 L-497392 1027 L-496890 1028 L-493215 1028 L-492382 1028 L-488429 1029 L-487017 1028 L-484528 1027 L-483851 1027 L-483813 1026 L-482942 1026 L-479731 1026 L-476868 1026 L-475900 1025 L-474778 1025 L-474759 1024 L-473134 1024 L-472670 1023 L-472578 1022 L-466209 1022 L-465260 1022 L-462803 1022 L-461931 1021 L-460695 1021 L-458694 1020 L-458296 1020 L-456860 1019 L-454834 1019 L-454620 1018 L-453440 1018 L-451932 1018 L-451912 1017 L-449899 1017 L-449030 1017 L-448159 1016 L-447574 1016 L-447037 1015 L-446379 1015 L-445141 1014 L-444581 1014 L-443400 1013 L-442162 1013 L-442123 1013 L-441737 1013 L-441195 1012 L-440421 1012 L-439299 1011 L-437210 1011 L-436876 1010 L-436591 1010 L-435662 1009 L-435179 1009 L-434443 1008 L-430812 1008 L-429685 1008 L-429530 1008 L-428504 1007 L-424789 1007 L-423572 1006 L-421753 1006 L-418968 1005 L-418406 1005 L-414518 1005 L-412042 1004 L-410707 1004 L-410203 1004 L-409720 1004 L-407031 1004 L-403259 1004 L-400802 1004 L-399622 1004 L-398983 1003 L-396623 1003 L-396546 1003 L-395499 1002 L-395405 1002 L-394902 1002 L-394457 1002 L-394399 1002 L-394185 1002 L-391226 1001 L-388518 1001 L-388363 1001 L-384843 1000 L-384320 1000 L-383352 999 L-383003 999 L-381960 998 L-381031 998 L-380605 997 L-379096 997 L-378129 997 L-378111 997 L-376215 975 L-376099 954 L-376051 932 L-376026 910 L-373022 910 L-370991 910 L-369231 909 L-368863 909 L-368418 908 L-368051 908 L-367637 907 L-365652 907 L-365439 907 L-365284 907 L-363679 907 L-362557 907 L-361609 906 L-360351 906 L-358707 905 L-357527 905 L-350938 905 L-350891 904 L-350485 904 L-349440 904 L-349305 903 L-347622 903 L-347602 903 L-346266 902 L-345029 902 L-344875 901 L-344501 901 L-344295 900 L-343985 900 L-343212 900 L-340890 899 L-340232 899 L-338105 899 L-336382 898 L-336189 898 L-333635 898 L-333359 897 L-333171 896 L-332338 896 L-331566 896 L-330868 896 L-325867 896 L-325491 895 L-321238 895 L-320751 924 L-320732 924 L-320653 923 L-320578 923 L-320558 893 L-319745 893 L-318991 892 L-317772 892 L-316340 892 L-316244 892 L-316070 892 L-315715 891 L-314406 891 L-312549 891 L-310846 890 L-310344 890 L-310078 889 L-309685 889 L-309551 889 L-308641 889 L-308265 888 L-307336 888 L-306997 888 L-306958 888 L-306920 888 L-305004 888 L-304831 887 L-303302 887 L-302974 887 L-302858 887 L-302451 886 L-302102 886 L-300459 885 L-299908 885 L-299665 885 L-299123 884 L-298292 884 L-297750 884 L-296216 883 L-296123 883 L-296087 882 L-295951 882 L-295563 882 L-294539 882 L-292662 881 L-292566 881 L-291966 890 L-291598 900 L-291114 910 L-291076 920 L-290302 921 L-290245 921 L-290070 920 L-289876 920 L-288271 919 L-288251 919 L-288096 919 L-287981 920 L-286801 920 L-286646 921 L-285979 921 L-283531 945 L-281016 969 L-278346 993 L-270647 1017 L-264979 1017 L-262765 1016 L-262742 1016 L-261768 1022 L-261748 1022 L-260884 1022 L-258144 1021 L-252345 1015 L-252192 1015 L-249406 1014 L-235798 1014 L-235052 1013 L-230641 1013 L-214295 1013 L-214063 1012 L-213526 1012 L-205066 1011 L-196361 1011 L-196148 1011 L-194176 1010 L-191390 1010 L-186902 1011 L-186747 1010 L-186578 1010 L-186438 1010 L-186147 1010 L-186109 1009 L-185838 1009 L-185666 1009 L-185256 1008 L-184135 1008 L-182955 1008 L-181678 1008 L-178814 1007 L-175894 1007 L-173902 1007 L-172354 1006 L-169317 1006 L-159992 1006 L-159468 1005 L-153744 1005 L-152237 1005 L-151423 1005 L-149739 1004 L-149018 1004 L-148850 1004 L-147804 1003 L-145737 1003 L-144375 1003 L-139932 1003 L-139835 1002 L-139796 1002 L-139777 1002 L-138945 1001 L-138867 1001 L-136294 1001 L-133045 1000 L-132890 1000 L-131942 1000 L-130201 999 L-129485 1001 L-125945 1002 L-119367 1004 L-117950 1006 L-117929 1006 L-116979 1006 L-113504 1006 L-112751 1005 L-112189 1005 L-111407 1004 L-103903 1004 L-102305 1004 L-100731 1003 L-97546 1003 L-93212 1003 L-84643 1003 L-75896 1003 L-72823 1002 L-69557 1002 L-69010 1001 L-61873 1001 L-56205 1001 L-42141 1001 L-36129 1001 L-31423 1001 L-27420 1001 L-22312 1000 L-12598 1000 L2971 999 L6054 999 L6356 868 L6376 706 L6395 522 L6414 317 L6434 223 L6453 144 L6472 72 L6500 0" />
</svg>
