<svg xmlns="http://www.w3.org/2000/svg" version="1.1" viewBox="0 0 6500 1000">
	<path fill="none" stroke="gold" stroke-width="125" stroke-linecap="round" stroke-linejoin="round" d="M0 1015  L-718854 1015 L-716250 1015 L-714582 1015 L-696253 1015 L-696082 1015 L-688925 1015 L-688891 1015 L-675461 1015 L-672539 1015 L-659198 1015 L-655029 1015 L-653869 1014 L-653250 1014 L-651238 1014 L-647466 1014 L-646866 1014 L-646537 1014 L-646324 1013 L-645782 1013 L-644544 1013 L-643366 1012 L-640501 1012 L-639979 1012 L-635123 1011 L-632186 1011 L-632143 1011 L-631835 1011 L-631583 1011 L-628988 1011 L-624733 1011 L-624715 1011 L-623478 1011 L-621600 1011 L-619647 1011 L-618699 1011 L-618428 1011 L-618118 1011 L-618020 1011 L-617190 1011 L-615159 1011 L-614869 1010 L-612722 1010 L-612567 1010 L-608910 1009 L-608659 1009 L-608561 1009 L-608044 1009 L-605892 1010 L-604964 1010 L-603438 1010 L-602198 1010 L-600652 1010 L-597690 1010 L-596568 1010 L-596259 1010 L-595048 1010 L-592041 1010 L-592021 1010 L-591674 1010 L-591461 1010 L-591335 1010 L-591093 1009 L-591055 1009 L-591035 1009 L-591016 1009 L-590957 1009 L-590899 1009 L-590881 1009 L-590438 1009 L-589198 1009 L-587652 1008 L-584265 1008 L-578538 1008 L-578337 1008 L-576701 1008 L-574979 1008 L-573547 1008 L-573315 1008 L-572599 1008 L-566467 1008 L-566099 1008 L-565945 1008 L-565367 1008 L-565074 1008 L-564107 1007 L-563797 1007 L-563198 1007 L-561592 1007 L-560857 1007 L-560547 1007 L-559779 1007 L-557743 1007 L-557317 1007 L-556505 1007 L-549076 1007 L-548553 1007 L-548380 1007 L-547644 1007 L-546077 1006 L-545671 1006 L-543446 1006 L-542498 1006 L-542073 1006 L-541743 1006 L-540699 1006 L-538591 1006 L-538339 1006 L-537720 1006 L-536907 1006 L-534799 1006 L-534751 1006 L-532823 1005 L-532497 1005 L-532362 1005 L-531859 1005 L-530446 1005 L-529943 1005 L-529421 1005 L-525862 1004 L-525127 1004 L-522702 1004 L-521412 1004 L-521005 1004 L-517853 1004 L-517698 1004 L-517678 1004 L-517311 1004 L-516053 1004 L-515338 1004 L-514448 1004 L-514041 1004 L-513113 1004 L-512004 1004 L-511701 1004 L-505452 1005 L-504505 1005 L-502878 1005 L-502377 1005 L-498701 1005 L-497869 1005 L-493915 1005 L-492504 1005 L-490014 1005 L-489338 1005 L-489299 1005 L-488428 1005 L-485217 1004 L-482354 1004 L-481386 1004 L-480265 1004 L-480246 1004 L-478621 1004 L-478156 1004 L-478064 1004 L-471695 1004 L-470747 1004 L-468290 1004 L-467417 1004 L-466181 1003 L-464180 1003 L-463782 1003 L-462346 1003 L-460320 1003 L-460107 1003 L-458927 1003 L-457418 1003 L-457398 1003 L-455386 1003 L-454516 1003 L-453645 1003 L-453061 1003 L-452523 1002 L-451866 1002 L-450628 1002 L-450067 1002 L-448886 1002 L-447648 1002 L-447610 1002 L-447223 1002 L-446681 1002 L-445907 1002 L-444785 1002 L-442696 1002 L-442363 1002 L-442077 1001 L-441148 1001 L-440665 1001 L-439930 1001 L-436298 1001 L-435171 1001 L-435016 1001 L-433990 1001 L-430275 1001 L-429058 1001 L-427240 1001 L-424454 1001 L-423892 1001 L-420005 1001 L-417528 1000 L-416193 1000 L-415690 1000 L-415207 1000 L-412517 1000 L-408746 1000 L-406288 1000 L-405109 1000 L-404469 1000 L-402110 1000 L-402032 1000 L-400985 1000 L-400891 1000 L-400389 1000 L-399943 1000 L-399885 1000 L-399672 1000 L-396712 1000 L-394005 1000 L-393850 1000 L-390329 1000 L-389806 1000 L-388839 1000 L-388490 999 L-387446 999 L-386517 999 L-386092 999 L-384583 999 L-383616 999 L-383597 999 L-381701 995 L-381585 991 L-381537 987 L-381513 983 L-378508 983 L-376478 983 L-374717 983 L-374350 983 L-373904 983 L-373537 983 L-373123 983 L-371138 983 L-370925 983 L-370770 983 L-369165 983 L-368043 983 L-367095 983 L-365838 982 L-364193 982 L-363014 982 L-356424 982 L-356377 982 L-355972 982 L-354927 982 L-354791 982 L-353109 982 L-353089 982 L-351752 982 L-350516 982 L-350362 982 L-349988 981 L-349781 981 L-349472 981 L-348698 981 L-346377 981 L-345719 981 L-343591 981 L-341869 981 L-341675 981 L-339122 981 L-338845 981 L-338657 981 L-337825 981 L-337052 981 L-336354 981 L-331354 981 L-330978 980 L-326725 980 L-326238 986 L-326218 986 L-326140 986 L-326064 986 L-326044 980 L-325232 980 L-324478 980 L-323259 980 L-321827 980 L-321731 980 L-321556 980 L-321202 980 L-319892 980 L-318035 980 L-316333 980 L-315830 979 L-315565 979 L-315172 979 L-315037 979 L-314128 979 L-313751 979 L-312823 979 L-312484 979 L-312444 979 L-312406 979 L-310491 979 L-310317 979 L-308788 979 L-308460 979 L-308344 979 L-307937 979 L-307589 979 L-305945 979 L-305394 979 L-305151 979 L-304610 979 L-303778 978 L-303237 978 L-301702 978 L-301610 978 L-301573 978 L-301437 978 L-301050 978 L-300025 978 L-298149 978 L-298052 978 L-297452 980 L-297085 981 L-296600 983 L-296562 985 L-295788 985 L-295731 985 L-295556 985 L-295363 985 L-293757 985 L-293738 985 L-293582 985 L-293467 985 L-292287 985 L-292133 985 L-291466 985 L-289017 990 L-286503 994 L-283833 998 L-276134 1003 L-270466 1003 L-268251 1003 L-268228 1003 L-267254 1004 L-267234 1004 L-266371 1004 L-263630 1004 L-257832 1002 L-257678 1002 L-254892 1002 L-241284 1002 L-240538 1002 L-236128 1002 L-219781 1002 L-219549 1002 L-219012 1002 L-210553 1002 L-201847 1002 L-201635 1002 L-199662 1002 L-196876 1002 L-192389 1002 L-192234 1002 L-192065 1002 L-191924 1002 L-191634 1001 L-191595 1001 L-191324 1001 L-191152 1001 L-190742 1001 L-189622 1001 L-188441 1001 L-187165 1001 L-184301 1001 L-181381 1001 L-179389 1001 L-177841 1001 L-174803 1001 L-165478 1001 L-164954 1001 L-159231 1001 L-157724 1001 L-156909 1001 L-155225 1000 L-154504 1000 L-154336 1000 L-153291 1000 L-151224 1000 L-149862 1000 L-145418 1000 L-145321 1000 L-145282 1000 L-145263 1000 L-144431 1000 L-144353 1000 L-141781 1000 L-138531 1000 L-138377 1000 L-137428 1000 L-135687 1000 L-134972 1000 L-131431 1000 L-124854 1000 L-123436 1001 L-123416 1001 L-122465 1001 L-118991 1001 L-118238 1001 L-117676 1001 L-116894 1000 L-109390 1000 L-107791 1000 L-106217 1000 L-103032 1000 L-98699 1000 L-90129 1000 L-81383 1000 L-78309 1000 L-75043 1000 L-74497 1000 L-67359 1000 L-61692 1000 L-47627 1000 L-41616 1000 L-36910 1000 L-32906 1000 L-27799 1000 L-18085 1000 L-2514 1000 L568 999 L870 975 L889 946 L908 912 L928 874 L948 857 L967 843 L986 829 L1013 816 L1034 804 L1062 790 L1097 775 L1111 763 L1124 752 L1142 743 L1161 736 L1181 729 L1199 723 L1219 716 L1238 709 L1260 702 L1276 695 L1295 688 L1316 681 L1336 675 L1354 668 L1373 660 L1392 653 L1413 645 L1431 638 L1450 631 L1471 625 L1496 618 L1511 612 L1528 606 L1547 600 L1567 594 L1586 587 L1605 580 L1625 574 L1645 568 L1663 562 L1682 556 L1703 551 L1723 546 L1740 542 L1759 538 L1779 534 L1798 530 L1818 526 L1837 523 L1857 520 L1876 517 L1895 514 L1914 511 L1941 508 L1962 504 L1990 500 L2024 495 L2038 491 L2052 488 L2070 485 L2089 482 L2109 480 L2127 477 L2147 473 L2167 470 L2187 467 L2205 465 L2224 462 L2244 459 L2264 456 L2282 452 L2301 448 L2321 444 L2341 439 L2360 435 L2378 431 L2400 426 L2424 421 L2439 415 L2456 410 L2476 406 L2495 401 L2514 396 L2533 390 L2553 385 L2574 380 L2592 375 L2611 370 L2631 366 L2651 361 L2669 357 L2688 353 L2708 349 L2727 346 L2746 342 L2765 339 L2785 335 L2804 331 L2824 328 L2843 324 L2871 321 L2891 318 L2919 314 L2956 310 L2971 306 L2984 303 L3001 299 L3018 297 L3038 295 L3056 293 L3075 291 L3095 289 L3116 287 L3133 284 L3152 282 L3173 279 L3192 277 L3211 274 L3230 271 L3250 268 L3269 265 L3288 262 L3307 259 L3328 256 L3352 252 L3367 249 L3384 246 L3404 243 L3423 240 L3443 237 L3462 233 L3482 230 L3502 227 L3520 223 L3539 220 L3559 217 L3580 215 L3597 212 L3617 209 L3636 207 L3655 204 L3675 201 L3694 199 L3714 196 L3733 194 L3752 191 L3771 189 L3799 186 L3820 184 L3848 181 L3884 177 L3898 173 L3911 170 L3929 167 L3947 165 L3966 163 L3985 160 L4005 158 L4024 155 L4046 152 L4064 149 L4081 145 L4101 142 L4122 138 L4140 134 L4159 130 L4179 126 L4199 122 L4217 119 L4236 116 L4257 114 L4282 112 L4296 110 L4314 108 L4333 106 L4353 104 L4372 101 L4391 99 L4411 97 L4431 96 L4449 94 L4468 92 L4488 90 L4509 87 L4526 85 L4545 83 L4565 81 L4584 80 L4604 79 L4622 78 L4642 76 L4662 75 L4681 73 L4700 72 L4727 70 L4748 69 L4776 68 L4811 66 L4824 64 L4838 63 L4857 62 L4875 61 L4895 60 L4913 59 L4933 58 L4953 57 L4974 56 L4991 55 L5009 54 L5030 52 L5050 51 L5068 50 L5087 49 L5107 48 L5127 47 L5145 46 L5164 45 L5185 44 L5210 43 L5225 42 L5242 41 L5261 40 L5281 39 L5300 38 L5319 37 L5339 36 L5360 34 L5377 33 L5396 32 L5417 31 L5437 31 L5455 30 L5474 29 L5494 28 L5512 27 L5532 26 L5551 25 L5571 25 L5590 24 L5610 23 L5628 24 L5657 25 L5677 27 L5705 28 L5742 27 L5757 26 L5770 25 L5788 25 L5804 24 L5824 23 L5842 23 L5862 22 L5881 22 L5903 21 L5919 21 L5938 20 L5959 19 L5979 19 L5997 18 L6016 18 L6035 17 L6056 16 L6074 16 L6093 15 L6114 15 L6139 14 L6153 13 L6171 13 L6190 12 L6209 12 L6229 11 L6248 10 L6268 10 L6288 9 L6306 8 L6325 7 L6345 6 L6366 5 L6383 5 L6402 4 L6422 3 L6441 3 L6461 2 L6480 1 L6500 0" />
</svg>
