<svg xmlns="http://www.w3.org/2000/svg" version="1.1" viewBox="0 0 6500 1000">
	<path fill="none" stroke="gold" stroke-width="125" stroke-linecap="round" stroke-linejoin="round" d="M0 2754  L-721811 2754 L-719206 2754 L-717538 2754 L-699209 2753 L-699039 2753 L-691881 2753 L-691848 2753 L-678417 2753 L-675495 2753 L-662154 2752 L-657985 2752 L-656825 2751 L-656206 2750 L-654194 2750 L-650422 2750 L-649822 2750 L-649494 2749 L-649281 2749 L-648739 2749 L-647501 2748 L-646322 2747 L-643458 2746 L-642935 2744 L-638080 2744 L-635143 2744 L-635100 2744 L-634791 2743 L-634539 2743 L-631944 2743 L-627689 2743 L-627671 2743 L-626434 2743 L-624557 2743 L-622603 2743 L-621655 2742 L-621385 2742 L-621075 2742 L-620977 2742 L-620146 2742 L-618115 2742 L-617825 2741 L-615679 2740 L-615523 2739 L-611867 2739 L-611616 2739 L-611517 2739 L-611000 2739 L-608849 2740 L-607920 2741 L-606394 2741 L-605155 2741 L-603608 2741 L-600646 2741 L-599524 2741 L-599215 2740 L-598004 2740 L-594997 2742 L-594978 2742 L-594630 2741 L-594417 2741 L-594291 2739 L-594049 2739 L-594012 2739 L-593992 2739 L-593973 2738 L-593914 2738 L-593855 2738 L-593837 2738 L-593394 2737 L-592155 2737 L-590609 2737 L-587221 2736 L-581495 2736 L-581293 2736 L-579657 2736 L-577935 2736 L-576503 2736 L-576271 2736 L-575556 2736 L-569424 2735 L-569056 2735 L-568901 2735 L-568323 2735 L-568030 2734 L-567063 2734 L-566754 2734 L-566154 2734 L-564548 2734 L-563813 2734 L-563503 2734 L-562735 2734 L-560699 2733 L-560274 2733 L-559461 2733 L-552032 2733 L-551509 2732 L-551336 2732 L-550601 2732 L-549033 2732 L-548628 2732 L-546403 2731 L-545455 2731 L-545030 2731 L-544699 2731 L-543656 2731 L-541547 2731 L-541295 2730 L-540676 2730 L-539864 2730 L-537756 2730 L-537707 2729 L-535779 2729 L-535453 2729 L-535318 2729 L-534815 2728 L-533402 2728 L-532899 2728 L-532378 2727 L-528818 2727 L-528083 2726 L-525658 2726 L-524369 2726 L-523962 2726 L-520809 2726 L-520654 2726 L-520634 2726 L-520268 2726 L-519009 2726 L-518294 2726 L-517404 2726 L-516997 2726 L-516069 2726 L-514960 2726 L-514657 2727 L-508408 2727 L-507461 2727 L-505835 2727 L-505333 2728 L-501657 2728 L-500825 2728 L-496872 2728 L-495460 2728 L-492971 2727 L-492294 2727 L-492256 2727 L-491385 2727 L-488173 2727 L-485310 2727 L-484342 2726 L-483221 2726 L-483202 2726 L-481577 2726 L-481113 2725 L-481021 2725 L-474652 2725 L-473703 2725 L-471246 2725 L-470374 2724 L-469138 2724 L-467136 2724 L-466739 2724 L-465303 2724 L-463276 2724 L-463063 2723 L-461883 2723 L-460375 2723 L-460355 2723 L-458342 2723 L-457473 2722 L-456602 2722 L-456017 2722 L-455480 2722 L-454822 2722 L-453584 2721 L-453023 2721 L-451842 2721 L-450605 2721 L-450566 2721 L-450179 2721 L-449638 2720 L-448864 2720 L-447742 2720 L-445652 2720 L-445319 2720 L-445033 2719 L-444105 2719 L-443622 2719 L-442886 2719 L-439255 2719 L-438127 2718 L-437973 2718 L-436947 2718 L-433232 2718 L-432015 2718 L-430196 2717 L-427410 2717 L-426849 2717 L-422961 2717 L-420484 2717 L-419150 2717 L-418646 2717 L-418163 2717 L-415474 2717 L-411702 2717 L-409245 2717 L-408065 2717 L-407426 2716 L-405066 2716 L-404989 2716 L-403941 2716 L-403848 2716 L-403345 2716 L-402899 2716 L-402842 2716 L-402628 2716 L-399669 2715 L-396961 2715 L-396806 2715 L-393285 2715 L-392762 2715 L-391795 2714 L-391446 2714 L-390402 2714 L-389474 2714 L-389048 2714 L-387539 2714 L-386572 2714 L-386553 2713 L-384657 2704 L-384541 2694 L-384493 2684 L-384469 2674 L-381465 2674 L-379434 2674 L-377673 2673 L-377306 2673 L-376861 2673 L-376494 2673 L-376080 2673 L-374095 2673 L-373882 2673 L-373727 2672 L-372121 2672 L-371000 2672 L-370051 2672 L-368794 2672 L-367150 2672 L-365970 2671 L-359380 2671 L-359334 2671 L-358928 2671 L-357883 2671 L-357748 2671 L-356065 2671 L-356045 2670 L-354708 2670 L-353472 2670 L-353318 2670 L-352944 2670 L-352738 2669 L-352428 2669 L-351654 2669 L-349333 2669 L-348675 2669 L-346547 2669 L-344825 2669 L-344631 2668 L-342078 2668 L-341802 2668 L-341614 2668 L-340781 2667 L-340009 2667 L-339311 2667 L-334310 2667 L-333934 2667 L-329681 2667 L-329194 2680 L-329175 2680 L-329096 2680 L-329021 2680 L-329001 2666 L-328188 2666 L-327434 2666 L-326215 2666 L-324783 2666 L-324687 2665 L-324513 2665 L-324158 2665 L-322849 2665 L-320992 2665 L-319289 2665 L-318786 2665 L-318521 2664 L-318128 2664 L-317994 2664 L-317084 2664 L-316708 2664 L-315779 2664 L-315440 2664 L-315400 2664 L-315363 2664 L-313447 2664 L-313273 2663 L-311745 2663 L-311416 2663 L-311300 2663 L-310893 2663 L-310545 2663 L-308901 2663 L-308351 2662 L-308107 2662 L-307566 2662 L-306735 2662 L-306193 2662 L-304659 2661 L-304566 2661 L-304529 2661 L-304393 2661 L-304006 2661 L-302981 2661 L-301105 2661 L-301009 2661 L-300408 2665 L-300041 2669 L-299557 2674 L-299519 2679 L-298745 2679 L-298687 2679 L-298513 2678 L-298319 2678 L-296714 2678 L-296694 2678 L-296539 2678 L-296423 2678 L-295244 2678 L-295089 2679 L-294422 2679 L-291974 2690 L-289459 2701 L-286789 2712 L-279090 2722 L-273422 2722 L-271208 2722 L-271184 2722 L-270211 2725 L-270191 2725 L-269327 2725 L-266587 2725 L-260788 2722 L-260635 2722 L-257849 2721 L-244241 2721 L-243495 2721 L-239084 2721 L-222738 2721 L-222506 2720 L-221969 2720 L-213509 2720 L-204803 2720 L-204591 2720 L-202619 2720 L-199832 2720 L-195345 2720 L-195190 2720 L-195021 2720 L-194881 2720 L-194590 2719 L-194551 2719 L-194280 2719 L-194109 2719 L-193699 2719 L-192578 2719 L-191398 2718 L-190121 2718 L-187257 2718 L-184337 2718 L-182345 2718 L-180797 2718 L-177759 2718 L-168435 2717 L-167911 2717 L-162187 2717 L-160680 2717 L-159865 2717 L-158182 2717 L-157461 2717 L-157292 2717 L-156247 2716 L-154180 2716 L-152818 2716 L-148375 2716 L-148277 2716 L-148239 2716 L-148220 2716 L-147387 2716 L-147310 2715 L-144737 2715 L-141488 2715 L-141333 2715 L-140385 2715 L-138644 2714 L-137928 2715 L-134387 2716 L-127810 2717 L-126393 2718 L-126372 2718 L-125422 2718 L-121947 2717 L-121194 2717 L-120632 2717 L-119850 2717 L-112346 2717 L-110748 2717 L-109174 2716 L-105988 2716 L-101655 2716 L-93086 2716 L-84339 2716 L-81265 2716 L-77999 2716 L-77453 2716 L-70316 2715 L-64648 2715 L-50584 2715 L-44572 2716 L-39866 2715 L-35863 2715 L-30755 2715 L-21041 2715 L-5471 2715 L-2388 2714 L-2086 2654 L-2066 2581 L-2047 2497 L-2027 2403 L-2008 2360 L-1989 2324 L-1970 2291 L-1942 2258 L-1921 2226 L-1894 2193 L-1858 2156 L-1845 2124 L-1832 2097 L-1813 2075 L-1794 2058 L-1775 2042 L-1756 2025 L-1737 2008 L-1717 1991 L-1696 1973 L-1679 1955 L-1660 1938 L-1640 1922 L-1620 1906 L-1602 1888 L-1583 1870 L-1563 1851 L-1543 1832 L-1524 1814 L-1506 1797 L-1484 1781 L-1459 1765 L-1445 1749 L-1428 1734 L-1408 1718 L-1389 1703 L-1370 1687 L-1351 1670 L-1331 1654 L-1310 1639 L-1292 1625 L-1273 1611 L-1253 1598 L-1232 1586 L-1215 1575 L-1196 1565 L-1176 1555 L-1157 1545 L-1138 1536 L-1119 1527 L-1099 1520 L-1079 1513 L-1060 1506 L-1041 1499 L-1014 1490 L-993 1480 L-965 1470 L-931 1459 L-917 1449 L-904 1441 L-885 1433 L-866 1427 L-846 1420 L-828 1412 L-808 1404 L-789 1396 L-768 1389 L-751 1383 L-732 1375 L-712 1368 L-692 1360 L-673 1350 L-654 1340 L-634 1330 L-615 1319 L-596 1309 L-577 1298 L-556 1286 L-532 1273 L-517 1260 L-500 1248 L-480 1236 L-461 1223 L-441 1211 L-422 1197 L-402 1185 L-382 1172 L-364 1160 L-345 1148 L-325 1137 L-304 1125 L-286 1115 L-267 1105 L-247 1095 L-229 1086 L-209 1077 L-190 1068 L-170 1060 L-151 1051 L-132 1042 L-113 1033 L-84 1024 L-64 1016 L-36 1008 L0 998 L15 988 L27 979 L44 971 L61 965 L81 959 L100 954 L119 949 L139 944 L160 939 L177 933 L196 927 L216 921 L236 915 L254 908 L273 901 L293 894 L313 886 L332 877 L350 870 L372 862 L396 854 L411 846 L428 839 L448 830 L467 823 L486 815 L505 806 L525 798 L546 789 L564 781 L583 774 L603 767 L623 760 L641 753 L660 746 L680 740 L699 733 L719 726 L737 720 L757 714 L777 708 L796 702 L815 695 L843 689 L863 683 L891 675 L927 666 L941 656 L955 648 L972 640 L990 635 L1010 630 L1028 624 L1048 618 L1068 611 L1089 603 L1108 595 L1125 587 L1145 579 L1165 569 L1183 560 L1202 550 L1222 540 L1242 530 L1260 521 L1279 514 L1300 508 L1325 503 L1340 499 L1358 494 L1376 489 L1396 483 L1415 478 L1434 473 L1454 468 L1475 464 L1492 460 L1512 456 L1532 450 L1553 443 L1570 437 L1589 432 L1609 428 L1628 424 L1647 422 L1666 418 L1686 415 L1706 411 L1725 408 L1743 404 L1771 401 L1792 398 L1820 394 L1854 390 L1868 386 L1881 383 L1900 380 L1919 377 L1938 374 L1957 372 L1977 369 L1996 367 L2017 364 L2034 362 L2053 359 L2074 356 L2094 353 L2112 350 L2130 347 L2150 344 L2171 342 L2189 339 L2208 337 L2229 334 L2254 332 L2268 330 L2286 327 L2305 325 L2324 323 L2344 320 L2363 317 L2383 314 L2404 311 L2421 309 L2440 306 L2460 304 L2481 301 L2498 299 L2517 297 L2537 294 L2556 292 L2576 290 L2595 288 L2615 287 L2634 285 L2653 283 L2672 286 L2701 289 L2720 292 L2748 294 L2786 292 L2801 290 L2814 288 L2831 286 L2847 285 L2867 284 L2886 282 L2905 281 L2925 279 L2946 278 L2963 277 L2982 275 L3002 274 L3022 272 L3040 271 L3059 269 L3079 267 L3099 266 L3117 264 L3136 263 L3158 262 L3182 261 L3197 259 L3214 257 L3234 256 L3253 254 L3272 253 L3291 251 L3311 249 L3332 247 L3350 245 L3369 243 L3389 241 L3410 239 L3427 237 L3446 235 L3466 233 L3485 232 L3504 229 L3523 227 L3543 225 L3563 224 L3582 222 L3601 221 L3628 219 L3649 217 L3677 215 L3712 213 L3725 211 L3739 210 L3757 208 L3776 207 L3796 205 L3814 203 L3834 202 L3853 200 L3875 199 L3892 197 L3910 195 L3931 193 L3951 191 L3969 189 L3988 187 L4008 184 L4028 181 L4046 179 L4065 177 L4086 175 L4111 172 L4126 170 L4143 167 L4162 165 L4182 163 L4201 161 L4220 158 L4240 156 L4261 154 L4278 151 L4297 149 L4318 147 L4338 145 L4355 144 L4374 142 L4394 141 L4413 139 L4433 138 L4452 136 L4472 135 L4491 134 L4510 133 L4529 132 L4557 131 L4577 129 L4605 128 L4641 125 L4655 123 L4668 121 L4686 119 L4704 117 L4724 116 L4743 114 L4762 113 L4782 111 L4803 110 L4820 108 L4839 106 L4859 105 L4879 103 L4898 101 L4916 99 L4936 97 L4957 95 L4975 93 L4993 92 L5015 90 L5040 89 L5054 88 L5071 86 L5091 84 L5110 83 L5130 81 L5149 78 L5168 76 L5190 73 L5207 71 L5226 69 L5246 67 L5267 65 L5284 64 L5303 62 L5323 61 L5342 60 L5362 59 L5380 58 L5400 56 L5420 55 L5439 54 L5458 53 L5485 52 L5506 51 L5534 50 L5568 49 L5582 48 L5595 47 L5614 46 L5633 45 L5653 44 L5671 43 L5691 42 L5710 41 L5731 41 L5748 40 L5767 39 L5787 38 L5807 37 L5826 36 L5845 35 L5865 34 L5885 33 L5903 33 L5922 32 L5943 31 L5968 30 L5982 30 L6000 28 L6019 28 L6038 27 L6058 26 L6077 25 L6097 24 L6117 22 L6135 20 L6154 18 L6174 16 L6195 15 L6213 14 L6232 12 L6252 11 L6270 10 L6290 9 L6309 7 L6329 6 L6348 5 L6368 4 L6386 4 L6415 3 L6463 2 L6500 1" />
</svg>
