<svg xmlns="http://www.w3.org/2000/svg" version="1.1" viewBox="0 0 6500 1000">
	<path fill="none" stroke="gold" stroke-width="125" stroke-linecap="round" stroke-linejoin="round" d="M0 52820  L-408575 52820 L-405971 52743 L-404303 52667 L-385974 52514 L-385803 52361 L-378646 52208 L-378613 52208 L-365182 52131 L-362260 52208 L-348919 51978 L-344750 51672 L-343590 51289 L-342971 50907 L-340959 50677 L-337187 50524 L-336587 50371 L-336258 50218 L-336045 50065 L-335504 49912 L-334266 49300 L-333087 48688 L-330222 48076 L-329700 47464 L-324845 47311 L-321907 47158 L-321864 47005 L-321556 46852 L-321304 46699 L-318709 46546 L-314454 46546 L-314436 46546 L-313199 46546 L-311321 46546 L-309368 46393 L-308420 46240 L-308149 46087 L-307839 46010 L-307741 45934 L-306911 45934 L-304880 46010 L-304590 45322 L-302443 45016 L-302288 44557 L-298631 44097 L-298380 44327 L-298282 44250 L-297765 44480 L-295614 44863 L-294685 45245 L-293159 45628 L-291919 45628 L-290373 45551 L-287411 45398 L-286289 45245 L-285980 45092 L-284769 45016 L-281762 45857 L-281742 45781 L-281395 45704 L-281182 45628 L-281056 44557 L-280814 44403 L-280776 44250 L-280757 44097 L-280737 43944 L-280678 43791 L-280620 43638 L-280602 43485 L-280159 43332 L-278919 43179 L-277374 43026 L-273986 42873 L-268260 42797 L-268058 42720 L-266422 42644 L-264700 42567 L-263268 42491 L-263036 42414 L-262320 42338 L-256188 42261 L-255821 42108 L-255666 41955 L-255088 41802 L-254795 41649 L-253828 41496 L-253518 41343 L-252919 41190 L-251313 41190 L-250578 41190 L-250268 41267 L-249500 41267 L-247464 41114 L-247038 40960 L-246226 40884 L-238797 40731 L-238274 40578 L-238101 40425 L-237366 40272 L-235798 40119 L-235392 40042 L-233167 39889 L-232219 39813 L-231794 39736 L-231464 39736 L-230420 39660 L-228312 39507 L-228060 39354 L-227441 39201 L-226628 39124 L-224520 38971 L-224472 38818 L-222544 38665 L-222218 38512 L-222083 38359 L-221580 38283 L-220167 38130 L-219664 37824 L-219142 37594 L-215583 37288 L-214848 36982 L-212423 36982 L-211134 36829 L-210727 36752 L-207574 36752 L-207419 36752 L-207399 36829 L-207032 36829 L-205774 36905 L-205059 36982 L-204169 36982 L-203762 36982 L-202834 36982 L-201725 36905 L-201422 37211 L-195173 37364 L-194226 37517 L-192600 37671 L-192098 37747 L-188422 37824 L-187590 37900 L-183637 37977 L-182225 37747 L-179735 37594 L-179059 37441 L-179020 37364 L-178149 37364 L-174938 37288 L-172075 37211 L-171107 37135 L-169986 36982 L-169967 36829 L-168342 36676 L-167878 36446 L-167786 36370 L-161416 36293 L-160468 36217 L-158011 36140 L-157139 35987 L-155902 35911 L-153901 35834 L-153504 35681 L-152067 35528 L-150041 35452 L-149828 35299 L-148648 35222 L-147139 35146 L-147119 35069 L-145107 34993 L-144238 34840 L-143367 34763 L-142782 34610 L-142245 34457 L-141587 34304 L-140349 34151 L-139788 34074 L-138607 33998 L-137370 33921 L-137331 33845 L-136944 33768 L-136402 33615 L-135629 33539 L-134506 33462 L-132417 33309 L-132084 33156 L-131798 33003 L-130870 32927 L-130386 32774 L-129651 32697 L-126020 32621 L-124892 32544 L-124737 32468 L-123711 32315 L-119997 32238 L-118779 32085 L-116961 31932 L-114175 31856 L-113614 31703 L-109726 31703 L-107249 31626 L-105914 31626 L-105411 31550 L-104928 31473 L-102238 31473 L-98467 31473 L-96010 31473 L-94830 31473 L-94191 31397 L-91831 31244 L-91754 31167 L-90706 31091 L-90613 30938 L-90110 30938 L-89664 30938 L-89607 30938 L-89393 30938 L-86433 30785 L-83726 30708 L-83571 30631 L-80050 30555 L-79527 30402 L-78560 30249 L-78211 30172 L-77167 30019 L-76239 29866 L-75813 29790 L-74304 29790 L-73337 29713 L-73318 29637 L-71422 24052 L-71306 18313 L-71258 12651 L-71234 6990 L-68230 6913 L-66199 6760 L-64438 6684 L-64071 6607 L-63625 6454 L-63259 6377 L-62845 6224 L-60860 6148 L-60646 6148 L-60492 6071 L-58886 6071 L-57764 5995 L-56816 5918 L-55559 5765 L-53914 5689 L-52735 5536 L-46145 5459 L-46099 5383 L-45693 5306 L-44648 5230 L-44512 5153 L-42830 5000 L-42810 4924 L-41473 4771 L-40237 4694 L-40083 4618 L-39709 4465 L-39503 4388 L-39193 4312 L-38419 4159 L-36098 4082 L-35440 4006 L-33312 3929 L-31590 3853 L-31396 3700 L-28843 3623 L-28567 3470 L-28378 3317 L-27546 3241 L-26773 3164 L-26075 3087 L-21075 3087 L-20699 2934 L-16446 2858 L-15959 10433 L-15940 10433 L-15861 10356 L-15785 10280 L-15766 2475 L-14953 2399 L-14199 2246 L-12980 2169 L-11548 2169 L-11452 2093 L-11277 2093 L-10923 1940 L-9614 1863 L-7756 1787 L-6054 1634 L-5551 1557 L-5286 1481 L-4893 1404 L-4758 1328 L-3849 1251 L-3472 1175 L-2544 1175 L-2205 1098 L-2165 1098 L-2127 1022 L-212 1022 L-38 945 L1490 945 L1818 869 L1934 792 L2341 639 L2689 563 L4333 410 L4884 333 L5127 257 L5668 180 L6500 27" />
</svg>
