<svg xmlns="http://www.w3.org/2000/svg" version="1.1" viewBox="0 0 6500 1000">
	<path fill="none" stroke="gold" stroke-width="125" stroke-linecap="round" stroke-linejoin="round" d="M0 2064  L-721137 2064 L-718533 2064 L-716865 2064 L-698535 2063 L-698365 2063 L-691207 2063 L-691174 2063 L-677743 2063 L-674821 2063 L-661481 2063 L-657312 2062 L-656151 2062 L-655532 2061 L-653520 2061 L-649749 2061 L-649149 2061 L-648820 2060 L-648607 2060 L-648065 2060 L-646827 2059 L-645648 2058 L-642784 2058 L-642262 2057 L-637406 2057 L-634469 2056 L-634426 2056 L-634118 2056 L-633866 2056 L-631271 2056 L-627015 2056 L-626997 2056 L-625761 2056 L-623883 2056 L-621930 2055 L-620982 2055 L-620711 2055 L-620401 2055 L-620303 2055 L-619473 2055 L-617442 2055 L-617151 2054 L-615005 2053 L-614850 2053 L-611193 2052 L-610942 2053 L-610844 2052 L-610326 2053 L-608175 2053 L-607246 2054 L-605720 2054 L-604481 2054 L-602934 2054 L-599973 2054 L-598851 2054 L-598542 2054 L-597330 2053 L-594324 2055 L-594304 2055 L-593957 2054 L-593744 2054 L-593617 2053 L-593376 2053 L-593338 2052 L-593318 2052 L-593299 2052 L-593240 2052 L-593181 2052 L-593163 2051 L-592720 2051 L-591481 2051 L-589935 2051 L-586547 2051 L-580821 2051 L-580620 2050 L-578984 2050 L-577262 2050 L-575830 2050 L-575597 2050 L-574882 2050 L-568750 2050 L-568382 2050 L-568228 2049 L-567649 2049 L-567357 2049 L-566389 2049 L-566080 2049 L-565481 2048 L-563875 2048 L-563139 2048 L-562830 2049 L-562061 2049 L-560025 2048 L-559600 2048 L-558787 2048 L-551359 2048 L-550836 2048 L-550662 2047 L-549927 2047 L-548360 2047 L-547954 2047 L-545729 2047 L-544781 2047 L-544356 2047 L-544026 2047 L-542982 2046 L-540874 2046 L-540622 2046 L-540003 2046 L-539190 2046 L-537082 2046 L-537034 2045 L-535105 2045 L-534780 2045 L-534645 2045 L-534141 2045 L-532729 2044 L-532226 2044 L-531704 2044 L-528144 2043 L-527409 2043 L-524984 2043 L-523695 2043 L-523288 2043 L-520136 2043 L-519981 2043 L-519961 2043 L-519594 2043 L-518336 2043 L-517621 2043 L-516731 2043 L-516324 2043 L-515395 2043 L-514287 2043 L-513983 2043 L-507735 2043 L-506787 2044 L-505161 2044 L-504659 2044 L-500984 2044 L-500151 2044 L-496198 2044 L-494786 2044 L-492297 2044 L-491621 2043 L-491582 2043 L-490711 2043 L-487500 2043 L-484637 2043 L-483669 2043 L-482547 2043 L-482528 2043 L-480903 2042 L-480439 2042 L-480347 2042 L-473978 2042 L-473029 2042 L-470572 2042 L-469700 2042 L-468464 2041 L-466463 2041 L-466065 2041 L-464629 2041 L-462603 2041 L-462390 2041 L-461209 2041 L-459701 2040 L-459681 2040 L-457669 2040 L-456799 2040 L-455928 2040 L-455343 2040 L-454806 2040 L-454149 2039 L-452910 2039 L-452350 2039 L-451169 2039 L-449931 2039 L-449893 2039 L-449506 2039 L-448964 2038 L-448190 2038 L-447068 2038 L-444979 2038 L-444645 2038 L-444360 2038 L-443431 2038 L-442948 2037 L-442213 2037 L-438581 2037 L-437454 2037 L-437299 2037 L-436273 2037 L-432558 2037 L-431341 2036 L-429522 2036 L-426737 2036 L-426175 2036 L-422287 2036 L-419811 2036 L-418476 2036 L-417972 2036 L-417489 2036 L-414800 2036 L-411028 2036 L-408571 2036 L-407391 2036 L-406752 2035 L-404393 2035 L-404315 2035 L-403268 2035 L-403174 2035 L-402671 2035 L-402226 2035 L-402168 2035 L-401955 2035 L-398995 2035 L-396287 2035 L-396133 2034 L-392612 2034 L-392089 2034 L-391122 2034 L-390772 2034 L-389729 2034 L-388800 2033 L-388375 2033 L-386866 2033 L-385899 2033 L-385880 2033 L-383984 2026 L-383868 2018 L-383820 2011 L-383795 2003 L-380791 2003 L-378760 2003 L-377000 2003 L-376633 2003 L-376187 2003 L-375820 2002 L-375406 2002 L-373421 2002 L-373208 2002 L-373053 2002 L-371448 2002 L-370326 2002 L-369378 2002 L-368120 2002 L-366476 2001 L-365296 2001 L-358707 2001 L-358660 2001 L-358254 2001 L-357209 2001 L-357074 2001 L-355391 2001 L-355371 2000 L-354035 2000 L-352798 2000 L-352644 2000 L-352270 2000 L-352064 2000 L-351755 2000 L-350981 1999 L-348659 1999 L-348002 1999 L-345874 1999 L-344151 1999 L-343958 1999 L-341404 1999 L-341128 1999 L-340940 1998 L-340107 1998 L-339335 1998 L-338637 1998 L-333636 1998 L-333260 1998 L-329008 1998 L-328520 2008 L-328501 2008 L-328422 2008 L-328347 2008 L-328327 1997 L-327514 1997 L-326761 1997 L-325541 1997 L-324110 1997 L-324013 1997 L-323839 1997 L-323484 1997 L-322175 1996 L-320318 1996 L-318616 1996 L-318113 1996 L-317847 1996 L-317454 1996 L-317320 1996 L-316410 1996 L-316034 1996 L-315105 1996 L-314766 1995 L-314727 1995 L-314689 1995 L-312773 1995 L-312600 1995 L-311071 1995 L-310743 1995 L-310627 1995 L-310220 1995 L-309871 1995 L-308228 1995 L-307677 1994 L-307434 1994 L-306892 1994 L-306061 1994 L-305519 1994 L-303985 1994 L-303893 1994 L-303856 1993 L-303720 1993 L-303333 1993 L-302308 1993 L-300431 1993 L-300335 1993 L-299735 1996 L-299368 2000 L-298883 2003 L-298845 2007 L-298071 2007 L-298014 2007 L-297839 2007 L-297646 2006 L-296040 2006 L-296020 2006 L-295865 2006 L-295750 2006 L-294570 2007 L-294415 2007 L-293748 2007 L-291300 2015 L-288785 2024 L-286116 2032 L-278416 2040 L-272749 2040 L-270534 2040 L-270511 2040 L-269537 2042 L-269517 2042 L-268653 2042 L-265913 2042 L-260115 2040 L-259961 2039 L-257175 2039 L-243567 2039 L-242821 2039 L-238410 2039 L-222064 2039 L-221832 2038 L-221295 2038 L-212835 2038 L-204130 2038 L-203917 2038 L-201945 2038 L-199159 2038 L-194671 2038 L-194516 2038 L-194347 2038 L-194207 2038 L-193916 2038 L-193878 2038 L-193607 2037 L-193435 2037 L-193025 2037 L-191904 2037 L-190724 2037 L-189447 2037 L-186583 2037 L-183663 2037 L-181671 2037 L-180124 2036 L-177086 2036 L-167761 2036 L-167237 2036 L-161513 2036 L-160006 2036 L-159192 2036 L-157508 2036 L-156787 2036 L-156619 2036 L-155574 2035 L-153506 2035 L-152144 2035 L-147701 2035 L-147604 2035 L-147565 2035 L-147546 2035 L-146714 2035 L-146636 2035 L-144063 2034 L-140814 2034 L-140659 2034 L-139711 2034 L-137970 2034 L-137255 2035 L-133714 2035 L-127136 2036 L-125719 2036 L-125698 2036 L-124748 2036 L-121274 2036 L-120520 2036 L-119959 2036 L-119177 2036 L-111672 2036 L-110074 2036 L-108500 2035 L-105315 2035 L-100982 2035 L-92412 2035 L-83666 2035 L-80592 2035 L-77326 2035 L-76779 2035 L-69642 2035 L-63974 2035 L-49910 2035 L-43899 2035 L-39192 2035 L-35189 2034 L-30082 2034 L-20368 2034 L-4797 2034 L-1714 2034 L-1412 1988 L-1392 1932 L-1374 1869 L-1354 1797 L-1334 1765 L-1315 1738 L-1296 1712 L-1269 1688 L-1248 1663 L-1220 1638 L-1185 1610 L-1171 1586 L-1158 1566 L-1139 1549 L-1121 1536 L-1101 1523 L-1083 1510 L-1063 1497 L-1043 1484 L-1022 1471 L-1005 1458 L-987 1445 L-966 1433 L-946 1420 L-928 1406 L-909 1393 L-889 1378 L-869 1364 L-851 1351 L-832 1338 L-811 1326 L-786 1313 L-771 1301 L-754 1290 L-734 1278 L-715 1266 L-696 1254 L-677 1241 L-657 1229 L-636 1218 L-619 1207 L-600 1196 L-579 1187 L-559 1177 L-541 1169 L-522 1161 L-502 1154 L-484 1146 L-464 1139 L-445 1133 L-425 1127 L-405 1122 L-386 1116 L-368 1111 L-340 1104 L-319 1097 L-292 1089 L-258 1081 L-243 1073 L-230 1067 L-212 1061 L-193 1057 L-173 1051 L-154 1045 L-135 1039 L-115 1033 L-94 1028 L-77 1023 L-58 1017 L-38 1012 L-18 1006 L0 998 L18 991 L38 983 L58 975 L77 967 L96 959 L117 949 L141 940 L156 930 L173 920 L193 911 L212 902 L232 893 L250 882 L271 873 L291 863 L309 854 L328 845 L348 836 L368 828 L386 820 L405 812 L425 804 L444 798 L464 791 L483 784 L502 778 L522 771 L541 764 L560 758 L589 751 L609 745 L636 739 L673 731 L689 724 L701 717 L718 710 L735 706 L755 702 L773 698 L793 694 L813 690 L833 686 L851 682 L869 677 L890 673 L910 668 L928 663 L947 657 L967 652 L987 646 L1005 639 L1024 634 L1045 628 L1070 622 L1084 616 L1102 610 L1122 604 L1140 598 L1160 592 L1179 585 L1199 579 L1219 573 L1238 567 L1256 561 L1277 555 L1297 550 L1315 545 L1334 540 L1354 535 L1372 530 L1392 525 L1411 520 L1431 515 L1450 511 L1470 506 L1489 501 L1517 496 L1537 492 L1565 486 L1601 479 L1615 472 L1628 465 L1646 459 L1664 456 L1684 452 L1702 447 L1722 442 L1742 437 L1763 431 L1781 425 L1798 419 L1819 413 L1839 406 L1857 398 L1876 391 L1896 383 L1916 376 L1934 369 L1953 364 L1974 359 L1999 355 L2014 352 L2031 348 L2050 344 L2070 340 L2089 336 L2108 332 L2128 329 L2149 326 L2166 323 L2185 319 L2206 315 L2226 310 L2243 305 L2262 301 L2283 298 L2301 296 L2321 293 L2340 291 L2360 289 L2379 286 L2398 283 L2417 280 L2445 278 L2466 275 L2493 273 L2528 269 L2542 266 L2555 264 L2574 262 L2592 260 L2612 258 L2631 256 L2650 254 L2670 252 L2691 250 L2708 248 L2727 246 L2747 244 L2767 241 L2785 239 L2804 237 L2824 235 L2844 233 L2863 231 L2881 229 L2903 227 L2928 225 L2942 224 L2959 222 L2979 220 L2998 218 L3017 216 L3036 214 L3056 212 L3077 210 L3095 208 L3114 206 L3134 204 L3155 202 L3172 200 L3191 199 L3211 197 L3230 195 L3250 194 L3268 192 L3288 191 L3308 190 L3327 189 L3346 191 L3374 193 L3394 195 L3422 197 L3459 195 L3475 193 L3487 192 L3505 191 L3521 190 L3541 189 L3559 188 L3579 186 L3599 185 L3620 184 L3637 183 L3655 182 L3676 181 L3696 180 L3714 179 L3733 178 L3753 176 L3773 175 L3791 174 L3810 173 L3831 172 L3856 171 L3871 170 L3888 169 L3907 168 L3927 166 L3946 165 L3965 164 L3985 163 L4006 161 L4023 159 L4042 158 L4063 156 L4083 155 L4101 153 L4120 152 L4140 151 L4158 149 L4178 148 L4197 146 L4217 145 L4236 143 L4256 142 L4274 141 L4302 140 L4323 138 L4350 137 L4385 135 L4399 134 L4412 133 L4431 131 L4450 130 L4470 129 L4488 128 L4507 127 L4527 125 L4548 124 L4565 123 L4584 122 L4604 120 L4624 119 L4643 117 L4661 115 L4681 113 L4702 111 L4720 109 L4738 108 L4760 106 L4785 104 L4800 103 L4817 101 L4836 99 L4856 97 L4875 95 L4894 93 L4914 92 L4934 90 L4952 88 L4971 87 L4991 85 L5012 84 L5029 83 L5048 81 L5068 80 L5087 79 L5107 78 L5125 77 L5145 76 L5165 75 L5184 74 L5203 74 L5231 73 L5251 72 L5279 71 L5314 69 L5328 67 L5341 65 L5360 63 L5378 62 L5398 61 L5416 60 L5436 59 L5456 58 L5477 57 L5494 56 L5512 54 L5533 53 L5553 51 L5571 50 L5590 48 L5610 47 L5630 46 L5648 44 L5667 43 L5689 42 L5713 41 L5728 40 L5745 39 L5765 37 L5784 36 L5803 35 L5822 33 L5842 31 L5863 29 L5880 27 L5900 26 L5920 24 L5941 23 L5958 22 L5977 21 L5997 20 L6016 19 L6035 18 L6054 17 L6074 16 L6094 15 L6113 15 L6131 14 L6159 13 L6180 12 L6207 11 L6242 10 L6256 10 L6269 9 L6288 8 L6306 7 L6326 7 L6345 6 L6364 5 L6384 5 L6405 4 L6422 4 L6441 3 L6461 2 L6481 1 L6500 1" />
</svg>
