<svg xmlns="http://www.w3.org/2000/svg" version="1.1" viewBox="0 0 6500 1000">
	<path fill="none" stroke="gold" stroke-width="125" stroke-linecap="round" stroke-linejoin="round" d="M0 2393  L-721446 2393 L-718842 2393 L-717174 2393 L-698845 2393 L-698674 2392 L-691517 2392 L-691484 2392 L-678053 2392 L-675131 2392 L-661790 2392 L-657621 2391 L-656461 2391 L-655842 2390 L-653830 2390 L-650058 2390 L-649458 2389 L-649129 2389 L-648916 2389 L-648375 2389 L-647137 2388 L-645958 2387 L-643093 2386 L-642571 2385 L-637715 2385 L-634778 2384 L-634735 2384 L-634427 2384 L-634175 2384 L-631580 2384 L-627325 2384 L-627307 2384 L-626070 2384 L-624192 2384 L-622239 2383 L-621291 2383 L-621020 2383 L-620710 2383 L-620612 2383 L-619782 2383 L-617751 2383 L-617461 2382 L-615314 2381 L-615159 2380 L-611502 2380 L-611251 2380 L-611153 2380 L-610636 2380 L-608485 2381 L-607556 2382 L-606030 2382 L-604790 2382 L-603244 2382 L-600282 2382 L-599160 2382 L-598851 2381 L-597640 2381 L-594633 2382 L-594613 2382 L-594266 2382 L-594053 2382 L-593927 2380 L-593685 2380 L-593647 2380 L-593627 2380 L-593608 2380 L-593549 2379 L-593491 2379 L-593473 2379 L-593030 2379 L-591790 2378 L-590244 2378 L-586857 2378 L-581130 2378 L-580929 2378 L-579293 2378 L-577571 2377 L-576139 2377 L-575907 2377 L-575191 2377 L-569059 2377 L-568691 2377 L-568537 2377 L-567959 2376 L-567666 2376 L-566699 2376 L-566389 2376 L-565790 2375 L-564184 2375 L-563449 2375 L-563139 2375 L-562371 2375 L-560335 2375 L-559909 2375 L-559097 2375 L-551668 2375 L-551145 2374 L-550972 2374 L-550237 2374 L-548669 2374 L-548263 2374 L-546038 2373 L-545090 2373 L-544665 2373 L-544335 2373 L-543291 2373 L-541183 2373 L-540931 2373 L-540312 2372 L-539499 2372 L-537391 2372 L-537343 2372 L-535415 2371 L-535089 2371 L-534954 2371 L-534451 2371 L-533038 2371 L-532535 2370 L-532013 2370 L-528454 2369 L-527719 2369 L-525294 2369 L-524004 2369 L-523598 2369 L-520445 2369 L-520290 2369 L-520270 2369 L-519903 2369 L-518645 2369 L-517930 2369 L-517040 2369 L-516633 2369 L-515705 2369 L-514596 2369 L-514293 2369 L-508044 2370 L-507097 2370 L-505470 2370 L-504969 2370 L-501293 2370 L-500461 2370 L-496508 2370 L-495096 2370 L-492606 2370 L-491930 2370 L-491891 2370 L-491020 2370 L-487809 2369 L-484946 2369 L-483978 2369 L-482857 2369 L-482838 2369 L-481213 2368 L-480748 2368 L-480657 2368 L-474287 2368 L-473339 2368 L-470882 2368 L-470009 2367 L-468773 2367 L-466772 2367 L-466375 2367 L-464938 2367 L-462912 2367 L-462699 2366 L-461519 2366 L-460010 2366 L-459990 2366 L-457978 2366 L-457108 2366 L-456238 2366 L-455653 2365 L-455116 2365 L-454458 2365 L-453220 2365 L-452659 2364 L-451478 2364 L-450240 2364 L-450202 2364 L-449815 2364 L-449273 2364 L-448500 2364 L-447377 2364 L-445288 2363 L-444955 2363 L-444669 2363 L-443740 2363 L-443257 2363 L-442522 2362 L-438891 2362 L-437763 2362 L-437608 2362 L-436582 2362 L-432868 2362 L-431650 2361 L-429832 2361 L-427046 2361 L-426485 2361 L-422597 2361 L-420120 2361 L-418785 2361 L-418282 2361 L-417799 2361 L-415109 2361 L-411338 2361 L-408881 2361 L-407701 2361 L-407062 2360 L-404702 2360 L-404625 2360 L-403577 2360 L-403483 2360 L-402981 2360 L-402535 2360 L-402478 2360 L-402264 2360 L-399304 2359 L-396597 2359 L-396442 2359 L-392921 2359 L-392398 2359 L-391431 2359 L-391082 2359 L-390038 2358 L-389110 2358 L-388684 2358 L-387175 2358 L-386208 2358 L-386189 2358 L-384293 2349 L-384177 2340 L-384129 2332 L-384105 2323 L-381101 2323 L-379070 2323 L-377309 2323 L-376942 2323 L-376496 2322 L-376129 2322 L-375716 2322 L-373731 2322 L-373517 2322 L-373362 2322 L-371757 2322 L-370635 2322 L-369687 2322 L-368430 2321 L-366785 2321 L-365606 2321 L-359016 2321 L-358970 2321 L-358564 2321 L-357519 2321 L-357383 2320 L-355701 2320 L-355681 2320 L-354344 2320 L-353108 2320 L-352954 2320 L-352580 2319 L-352373 2319 L-352064 2319 L-351290 2319 L-348969 2319 L-348311 2319 L-346183 2319 L-344461 2318 L-344267 2318 L-341714 2318 L-341437 2318 L-341249 2318 L-340417 2317 L-339644 2317 L-338946 2317 L-333946 2317 L-333570 2317 L-329317 2317 L-328830 2328 L-328811 2328 L-328732 2328 L-328656 2328 L-328636 2316 L-327824 2316 L-327070 2316 L-325851 2316 L-324419 2316 L-324323 2316 L-324148 2316 L-323794 2315 L-322484 2315 L-320627 2315 L-318925 2315 L-318422 2315 L-318157 2315 L-317764 2315 L-317629 2315 L-316720 2314 L-316343 2314 L-315415 2314 L-315076 2314 L-315036 2314 L-314998 2314 L-313083 2314 L-312909 2314 L-311380 2314 L-311052 2314 L-310936 2314 L-310529 2314 L-310181 2313 L-308537 2313 L-307986 2313 L-307743 2313 L-307202 2313 L-306370 2313 L-305829 2312 L-304294 2312 L-304202 2312 L-304165 2312 L-304029 2312 L-303642 2312 L-302617 2312 L-300741 2312 L-300644 2311 L-300044 2315 L-299677 2319 L-299192 2323 L-299154 2327 L-298380 2327 L-298323 2327 L-298148 2327 L-297955 2327 L-296350 2327 L-296330 2327 L-296174 2327 L-296059 2327 L-294879 2327 L-294725 2327 L-294058 2327 L-291610 2337 L-289095 2347 L-286425 2356 L-278726 2366 L-273058 2366 L-270843 2366 L-270820 2366 L-269846 2368 L-269826 2368 L-268963 2368 L-266222 2368 L-260424 2365 L-260270 2365 L-257485 2365 L-243876 2364 L-243130 2364 L-238720 2364 L-222373 2364 L-222141 2364 L-221604 2364 L-213145 2364 L-204439 2363 L-204227 2363 L-202254 2363 L-199468 2363 L-194981 2363 L-194826 2363 L-194657 2363 L-194516 2363 L-194226 2363 L-194187 2363 L-193916 2363 L-193744 2363 L-193334 2362 L-192214 2362 L-191034 2362 L-189757 2362 L-186893 2362 L-183973 2362 L-181981 2362 L-180433 2361 L-177395 2361 L-168071 2361 L-167547 2361 L-161823 2361 L-160316 2361 L-159501 2361 L-157818 2361 L-157097 2361 L-156928 2361 L-155883 2360 L-153816 2360 L-152454 2360 L-148010 2360 L-147913 2360 L-147874 2360 L-147856 2360 L-147023 2360 L-146945 2359 L-144373 2359 L-141124 2359 L-140969 2359 L-140020 2359 L-138279 2359 L-137564 2359 L-134023 2360 L-127446 2361 L-126029 2362 L-126008 2361 L-125057 2361 L-121583 2361 L-120830 2361 L-120268 2361 L-119486 2361 L-111982 2361 L-110383 2361 L-108809 2360 L-105624 2360 L-101291 2360 L-92721 2360 L-83975 2360 L-80901 2360 L-77635 2360 L-77089 2360 L-69951 2359 L-64284 2359 L-50219 2359 L-44208 2360 L-39502 2359 L-35498 2359 L-30391 2359 L-20677 2359 L-5106 2359 L-2024 2359 L-1721 2306 L-1702 2241 L-1683 2168 L-1663 2086 L-1644 2048 L-1624 2017 L-1606 1988 L-1578 1959 L-1557 1931 L-1529 1902 L-1494 1870 L-1480 1842 L-1467 1819 L-1449 1799 L-1430 1784 L-1410 1770 L-1392 1755 L-1372 1740 L-1353 1725 L-1331 1709 L-1315 1694 L-1296 1679 L-1275 1665 L-1255 1651 L-1237 1635 L-1218 1619 L-1199 1602 L-1178 1586 L-1160 1571 L-1141 1556 L-1120 1542 L-1095 1527 L-1081 1514 L-1063 1501 L-1044 1487 L-1024 1474 L-1005 1459 L-986 1445 L-966 1431 L-946 1418 L-928 1405 L-909 1393 L-888 1382 L-868 1371 L-851 1362 L-832 1353 L-812 1344 L-793 1335 L-773 1327 L-754 1320 L-734 1313 L-715 1307 L-696 1301 L-677 1295 L-650 1287 L-629 1279 L-601 1269 L-567 1259 L-553 1251 L-540 1244 L-521 1237 L-502 1232 L-482 1226 L-464 1219 L-444 1212 L-424 1205 L-404 1199 L-386 1193 L-367 1187 L-347 1180 L-327 1173 L-309 1165 L-290 1156 L-270 1147 L-250 1138 L-232 1128 L-213 1119 L-192 1108 L-167 1097 L-152 1085 L-135 1075 L-116 1064 L-96 1054 L-77 1043 L-58 1031 L-38 1020 L-18 1009 L0 998 L18 988 L39 978 L59 968 L77 958 L96 950 L116 941 L135 934 L154 926 L173 918 L193 910 L212 902 L232 895 L251 887 L279 879 L299 872 L327 865 L364 856 L379 848 L392 840 L409 833 L426 827 L446 822 L464 818 L483 813 L503 809 L524 805 L541 800 L560 795 L581 789 L600 784 L619 778 L637 772 L657 765 L677 758 L696 751 L715 744 L736 737 L760 730 L775 724 L792 717 L812 710 L831 703 L851 696 L870 688 L890 681 L910 674 L928 667 L947 660 L967 654 L988 648 L1005 642 L1024 636 L1044 630 L1063 625 L1083 619 L1102 613 L1122 608 L1141 602 L1160 597 L1179 591 L1207 586 L1228 580 L1255 574 L1292 565 L1306 557 L1319 550 L1336 543 L1355 539 L1374 535 L1393 529 L1413 523 L1432 517 L1454 511 L1472 504 L1489 497 L1509 489 L1530 481 L1548 473 L1567 464 L1586 455 L1607 447 L1625 439 L1644 433 L1665 428 L1690 423 L1704 419 L1722 415 L1741 411 L1761 406 L1780 401 L1799 397 L1818 393 L1839 389 L1857 386 L1876 382 L1896 376 L1917 371 L1934 365 L1953 361 L1973 357 L1992 354 L2011 352 L2030 349 L2050 346 L2070 343 L2089 340 L2108 337 L2135 334 L2156 331 L2184 328 L2219 324 L2232 321 L2246 318 L2264 315 L2283 313 L2303 311 L2321 308 L2341 306 L2361 304 L2382 302 L2399 300 L2417 297 L2438 294 L2458 292 L2476 289 L2495 287 L2515 284 L2535 282 L2553 280 L2572 278 L2593 276 L2618 273 L2633 271 L2650 269 L2669 267 L2689 265 L2708 263 L2727 260 L2747 258 L2768 255 L2785 253 L2804 251 L2825 249 L2845 247 L2863 245 L2882 242 L2902 241 L2920 239 L2940 237 L2959 235 L2979 234 L2998 232 L3017 231 L3036 233 L3065 236 L3085 238 L3113 240 L3150 238 L3165 236 L3178 235 L3195 234 L3212 232 L3232 231 L3250 230 L3270 228 L3289 227 L3311 226 L3327 225 L3346 224 L3366 222 L3387 221 L3405 220 L3423 218 L3443 217 L3463 215 L3482 214 L3501 213 L3522 212 L3547 211 L3561 210 L3578 208 L3598 207 L3617 205 L3637 204 L3656 203 L3676 201 L3696 199 L3714 197 L3733 195 L3753 194 L3774 192 L3791 190 L3810 189 L3830 187 L3849 186 L3869 184 L3888 182 L3907 180 L3927 179 L3946 177 L3965 176 L3992 175 L4013 173 L4041 171 L4076 169 L4090 168 L4103 166 L4122 165 L4140 164 L4160 162 L4178 161 L4198 160 L4218 158 L4239 157 L4256 155 L4274 154 L4295 152 L4315 150 L4333 149 L4352 146 L4372 144 L4392 142 L4410 140 L4429 138 L4450 136 L4475 134 L4490 132 L4507 129 L4526 128 L4546 126 L4565 123 L4584 121 L4604 119 L4625 117 L4642 115 L4662 114 L4682 112 L4703 110 L4720 109 L4739 107 L4759 106 L4778 105 L4797 103 L4816 102 L4836 101 L4856 100 L4875 99 L4894 98 L4921 97 L4942 96 L4970 95 L5005 93 L5019 91 L5032 89 L5051 87 L5069 85 L5089 84 L5107 83 L5127 82 L5146 80 L5167 79 L5184 78 L5203 76 L5224 74 L5244 73 L5262 71 L5281 69 L5300 68 L5321 66 L5339 65 L5358 63 L5379 62 L5404 61 L5419 59 L5436 58 L5455 57 L5475 55 L5494 53 L5513 52 L5533 49 L5554 47 L5571 45 L5590 43 L5611 41 L5631 40 L5648 38 L5667 37 L5687 37 L5706 36 L5726 35 L5745 33 L5765 32 L5784 31 L5803 30 L5822 29 L5849 28 L5870 28 L5898 26 L5932 26 L5946 25 L5960 24 L5978 23 L5997 22 L6017 21 L6035 20 L6055 20 L6075 19 L6095 18 L6113 18 L6132 17 L6152 16 L6172 15 L6190 14 L6209 13 L6229 13 L6249 12 L6267 11 L6286 11 L6307 10 L6332 10 L6347 9 L6364 8 L6383 7 L6403 6 L6422 5 L6441 5 L6461 4 L6482 2 L6500 1" />
</svg>
