<svg xmlns="http://www.w3.org/2000/svg" version="1.1" viewBox="0 0 6500 1000">
	<path fill="none" stroke="gold" stroke-width="125" stroke-linecap="round" stroke-linejoin="round" d="M0 3355  L-727578 3355 L-724974 3355 L-723306 3355 L-704977 3355 L-704806 3354 L-697649 3354 L-697616 3354 L-684185 3354 L-681263 3354 L-667922 3354 L-663753 3353 L-662593 3352 L-661974 3352 L-659962 3351 L-656190 3351 L-655590 3351 L-655261 3350 L-655048 3350 L-654507 3350 L-653269 3348 L-652090 3347 L-649225 3346 L-648703 3345 L-643847 3345 L-640910 3344 L-640867 3344 L-640559 3344 L-640307 3343 L-637712 3343 L-633457 3343 L-633439 3343 L-632202 3343 L-630324 3343 L-628371 3343 L-627423 3343 L-627152 3342 L-626842 3342 L-626744 3342 L-625914 3342 L-623883 3342 L-623593 3341 L-621446 3340 L-621291 3339 L-617634 3339 L-617383 3339 L-617285 3339 L-616768 3339 L-614617 3340 L-613688 3341 L-612162 3341 L-610922 3341 L-609376 3341 L-606414 3341 L-605292 3341 L-604983 3340 L-603772 3340 L-600765 3342 L-600745 3342 L-600398 3342 L-600185 3341 L-600059 3339 L-599817 3339 L-599779 3339 L-599759 3339 L-599740 3338 L-599681 3338 L-599623 3338 L-599605 3337 L-599162 3337 L-597922 3337 L-596376 3336 L-592989 3336 L-587262 3336 L-587061 3336 L-585425 3336 L-583703 3336 L-582271 3335 L-582039 3335 L-581323 3335 L-575191 3335 L-574823 3335 L-574669 3334 L-574091 3334 L-573798 3334 L-572831 3334 L-572521 3333 L-571922 3333 L-570316 3333 L-569581 3333 L-569271 3333 L-568503 3333 L-566467 3333 L-566041 3333 L-565229 3332 L-557800 3332 L-557277 3332 L-557104 3331 L-556369 3331 L-554801 3331 L-554395 3331 L-552170 3330 L-551222 3330 L-550797 3330 L-550467 3330 L-549423 3330 L-547315 3330 L-547063 3329 L-546444 3329 L-545631 3329 L-543523 3329 L-543475 3328 L-541547 3328 L-541221 3328 L-541086 3328 L-540583 3327 L-539170 3327 L-538667 3327 L-538145 3326 L-534586 3325 L-533851 3325 L-531426 3325 L-530136 3325 L-529730 3324 L-526577 3324 L-526422 3324 L-526402 3325 L-526035 3325 L-524777 3325 L-524062 3325 L-523172 3325 L-522765 3325 L-521837 3325 L-520728 3325 L-520425 3325 L-514176 3326 L-513229 3326 L-511602 3326 L-511101 3326 L-507425 3327 L-506593 3327 L-502640 3327 L-501228 3326 L-498738 3326 L-498062 3326 L-498023 3326 L-497152 3326 L-493941 3325 L-491078 3325 L-490110 3325 L-488989 3325 L-488970 3325 L-487345 3324 L-486880 3324 L-486789 3324 L-480419 3324 L-479471 3323 L-477014 3323 L-476141 3323 L-474905 3323 L-472904 3323 L-472507 3322 L-471070 3322 L-469044 3322 L-468831 3322 L-467651 3322 L-466142 3321 L-466122 3321 L-464110 3321 L-463240 3321 L-462370 3321 L-461785 3320 L-461248 3320 L-460590 3320 L-459352 3319 L-458791 3319 L-457610 3319 L-456372 3319 L-456334 3319 L-455947 3319 L-455405 3318 L-454632 3318 L-453509 3318 L-451420 3318 L-451087 3318 L-450801 3317 L-449872 3317 L-449389 3317 L-448654 3317 L-445023 3317 L-443895 3316 L-443740 3316 L-442714 3316 L-439000 3316 L-437782 3316 L-435964 3315 L-433178 3315 L-432617 3315 L-428729 3315 L-426252 3315 L-424917 3315 L-424414 3315 L-423931 3314 L-421241 3314 L-417470 3314 L-415013 3314 L-413833 3314 L-413194 3314 L-410834 3314 L-410757 3314 L-409709 3314 L-409615 3313 L-409113 3313 L-408667 3313 L-408610 3313 L-408396 3313 L-405436 3313 L-402729 3313 L-402574 3313 L-399053 3313 L-398530 3312 L-397563 3312 L-397214 3312 L-396170 3312 L-395242 3311 L-394816 3311 L-393307 3311 L-392340 3311 L-392321 3311 L-390425 3300 L-390309 3289 L-390261 3278 L-390237 3268 L-387233 3267 L-385202 3267 L-383441 3267 L-383074 3267 L-382628 3267 L-382261 3266 L-381848 3266 L-379863 3266 L-379649 3266 L-379494 3266 L-377889 3266 L-376767 3266 L-375819 3265 L-374562 3265 L-372917 3265 L-371738 3265 L-365148 3265 L-365102 3264 L-364696 3264 L-363651 3264 L-363515 3264 L-361833 3264 L-361813 3264 L-360476 3263 L-359240 3263 L-359086 3263 L-358712 3263 L-358505 3263 L-358196 3262 L-357422 3262 L-355101 3262 L-354443 3262 L-352315 3262 L-350593 3262 L-350399 3261 L-347846 3261 L-347569 3261 L-347381 3261 L-346549 3260 L-345776 3260 L-345078 3260 L-340078 3260 L-339702 3260 L-335449 3260 L-334962 3274 L-334943 3274 L-334864 3274 L-334788 3274 L-334768 3259 L-333956 3259 L-333202 3258 L-331983 3258 L-330551 3258 L-330455 3258 L-330280 3258 L-329926 3258 L-328617 3258 L-326759 3258 L-325057 3257 L-324554 3257 L-324289 3257 L-323896 3257 L-323761 3257 L-322852 3257 L-322475 3256 L-321547 3256 L-321208 3256 L-321168 3256 L-321130 3256 L-319215 3256 L-319041 3256 L-317512 3256 L-317184 3256 L-317068 3256 L-316661 3255 L-316313 3255 L-314669 3255 L-314118 3255 L-313875 3255 L-313334 3255 L-312502 3254 L-311961 3254 L-310426 3254 L-310334 3254 L-310297 3253 L-310161 3253 L-309774 3253 L-308749 3253 L-306873 3253 L-306776 3253 L-306176 3257 L-305809 3262 L-305324 3268 L-305286 3273 L-304512 3273 L-304455 3273 L-304280 3272 L-304087 3272 L-302482 3272 L-302462 3272 L-302306 3272 L-302191 3272 L-301011 3272 L-300857 3273 L-300190 3273 L-297742 3285 L-295227 3297 L-292557 3309 L-284858 3321 L-279190 3321 L-276975 3321 L-276952 3321 L-275978 3324 L-275958 3324 L-275095 3323 L-272354 3323 L-266556 3320 L-266402 3320 L-263617 3320 L-250008 3319 L-249262 3319 L-244852 3319 L-228505 3319 L-228273 3318 L-227736 3318 L-219277 3318 L-210571 3318 L-210359 3318 L-208386 3318 L-205600 3318 L-201113 3318 L-200958 3318 L-200789 3318 L-200648 3318 L-200358 3317 L-200319 3317 L-200048 3317 L-199877 3317 L-199466 3317 L-198346 3317 L-197166 3316 L-195889 3316 L-193025 3316 L-190105 3316 L-188113 3316 L-186565 3316 L-183527 3315 L-174203 3315 L-173679 3315 L-167955 3315 L-166448 3315 L-165633 3315 L-163950 3315 L-163229 3315 L-163060 3314 L-162015 3314 L-159948 3314 L-158586 3314 L-154142 3314 L-154045 3314 L-154006 3313 L-153988 3313 L-153155 3313 L-153077 3313 L-150505 3313 L-147256 3313 L-147101 3312 L-146152 3312 L-144411 3312 L-143696 3313 L-140155 3314 L-133578 3315 L-132161 3316 L-132140 3316 L-131189 3315 L-127715 3315 L-126962 3315 L-126400 3315 L-125618 3315 L-118114 3315 L-116515 3314 L-114941 3314 L-111756 3314 L-107423 3314 L-98853 3314 L-90107 3314 L-87033 3314 L-83767 3313 L-83221 3313 L-76083 3313 L-70416 3313 L-56351 3313 L-50340 3313 L-45634 3313 L-41630 3313 L-36523 3313 L-26809 3312 L-11238 3312 L-8156 3312 L-7853 3246 L-7834 3165 L-7815 3073 L-7795 2970 L-7776 2923 L-7756 2883 L-7738 2847 L-7710 2811 L-7689 2776 L-7661 2739 L-7626 2699 L-7612 2664 L-7599 2634 L-7581 2610 L-7562 2592 L-7542 2573 L-7524 2555 L-7504 2536 L-7485 2517 L-7464 2498 L-7447 2479 L-7428 2460 L-7407 2442 L-7387 2424 L-7369 2404 L-7350 2384 L-7331 2363 L-7310 2343 L-7292 2324 L-7273 2305 L-7252 2287 L-7227 2269 L-7213 2252 L-7195 2236 L-7176 2218 L-7156 2202 L-7137 2184 L-7118 2165 L-7098 2148 L-7078 2132 L-7060 2115 L-7041 2101 L-7020 2086 L-7000 2073 L-6983 2061 L-6964 2050 L-6944 2039 L-6925 2028 L-6905 2018 L-6886 2009 L-6866 2001 L-6847 1993 L-6828 1985 L-6809 1977 L-6782 1967 L-6761 1957 L-6733 1946 L-6699 1933 L-6685 1923 L-6672 1914 L-6653 1905 L-6634 1898 L-6614 1891 L-6596 1882 L-6576 1874 L-6556 1865 L-6536 1857 L-6518 1850 L-6499 1842 L-6479 1834 L-6459 1825 L-6441 1814 L-6422 1803 L-6402 1792 L-6382 1780 L-6364 1769 L-6345 1757 L-6324 1743 L-6299 1729 L-6285 1715 L-6267 1701 L-6248 1688 L-6228 1675 L-6209 1661 L-6190 1646 L-6170 1632 L-6150 1619 L-6131 1605 L-6113 1592 L-6092 1580 L-6072 1567 L-6054 1556 L-6035 1545 L-6015 1534 L-5996 1525 L-5977 1515 L-5958 1505 L-5938 1495 L-5919 1485 L-5899 1476 L-5880 1466 L-5852 1456 L-5832 1448 L-5804 1438 L-5767 1427 L-5752 1417 L-5739 1407 L-5722 1398 L-5705 1391 L-5685 1385 L-5667 1379 L-5648 1374 L-5628 1368 L-5607 1363 L-5590 1357 L-5571 1350 L-5550 1343 L-5531 1336 L-5512 1329 L-5494 1321 L-5474 1313 L-5454 1304 L-5435 1295 L-5416 1287 L-5395 1278 L-5371 1269 L-5356 1261 L-5339 1252 L-5319 1244 L-5300 1235 L-5280 1226 L-5261 1217 L-5241 1207 L-5221 1198 L-5203 1190 L-5184 1182 L-5164 1173 L-5143 1166 L-5126 1159 L-5107 1151 L-5087 1144 L-5068 1137 L-5048 1129 L-5029 1122 L-5009 1116 L-4990 1109 L-4971 1102 L-4952 1095 L-4924 1088 L-4903 1081 L-4876 1073 L-4839 1063 L-4825 1052 L-4812 1043 L-4795 1035 L-4777 1029 L-4757 1024 L-4738 1017 L-4718 1010 L-4699 1002 L-4677 994 L-4659 985 L-4642 977 L-4622 967 L-4601 957 L-4583 947 L-4564 935 L-4545 924 L-4524 914 L-4506 904 L-4487 896 L-4466 890 L-4441 884 L-4427 879 L-4409 874 L-4390 868 L-4370 863 L-4351 857 L-4332 851 L-4313 846 L-4292 841 L-4274 837 L-4255 832 L-4235 825 L-4214 818 L-4197 811 L-4178 806 L-4158 801 L-4139 798 L-4120 795 L-4101 791 L-4081 788 L-4061 783 L-4042 779 L-4023 776 L-3996 772 L-3975 768 L-3947 764 L-3912 759 L-3899 755 L-3885 752 L-3867 749 L-3848 746 L-3828 743 L-3810 740 L-3790 737 L-3770 735 L-3749 732 L-3732 729 L-3714 726 L-3693 723 L-3673 719 L-3655 716 L-3636 713 L-3616 710 L-3596 707 L-3578 704 L-3559 702 L-3538 699 L-3513 696 L-3498 694 L-3481 691 L-3462 689 L-3442 686 L-3423 683 L-3404 680 L-3384 676 L-3363 673 L-3346 671 L-3327 668 L-3306 665 L-3286 663 L-3268 660 L-3249 657 L-3229 655 L-3211 653 L-3191 650 L-3172 648 L-3152 647 L-3133 645 L-3114 643 L-3095 646 L-3066 649 L-3046 652 L-3018 655 L-2981 652 L-2966 650 L-2953 648 L-2936 646 L-2919 645 L-2899 643 L-2881 642 L-2861 640 L-2842 638 L-2820 637 L-2804 635 L-2785 634 L-2765 632 L-2744 631 L-2726 629 L-2708 627 L-2688 625 L-2668 624 L-2649 622 L-2630 620 L-2609 619 L-2584 618 L-2570 616 L-2553 614 L-2533 613 L-2514 611 L-2494 609 L-2475 607 L-2456 605 L-2435 603 L-2417 600 L-2398 598 L-2378 596 L-2357 594 L-2340 592 L-2321 590 L-2301 588 L-2282 586 L-2262 584 L-2244 582 L-2224 579 L-2204 577 L-2185 576 L-2166 574 L-2139 572 L-2118 570 L-2090 568 L-2055 566 L-2042 564 L-2028 562 L-2009 560 L-1991 559 L-1971 557 L-1953 555 L-1933 553 L-1913 552 L-1892 550 L-1875 548 L-1857 546 L-1836 544 L-1816 542 L-1798 540 L-1779 537 L-1759 534 L-1739 531 L-1721 528 L-1702 526 L-1681 524 L-1656 521 L-1641 518 L-1624 516 L-1605 513 L-1585 511 L-1566 508 L-1547 505 L-1527 503 L-1506 500 L-1489 498 L-1469 496 L-1449 493 L-1428 491 L-1411 490 L-1392 488 L-1372 486 L-1353 485 L-1334 483 L-1315 482 L-1295 480 L-1275 479 L-1256 478 L-1237 477 L-1210 475 L-1189 474 L-1161 472 L-1126 469 L-1112 467 L-1099 464 L-1080 462 L-1062 460 L-1042 459 L-1024 457 L-1004 456 L-985 454 L-964 452 L-947 451 L-928 449 L-907 447 L-887 445 L-869 442 L-850 440 L-831 438 L-810 436 L-792 434 L-773 433 L-752 431 L-727 429 L-712 428 L-695 426 L-676 424 L-656 422 L-637 420 L-618 418 L-598 415 L-577 412 L-560 410 L-541 407 L-520 405 L-500 403 L-483 402 L-464 400 L-444 399 L-425 398 L-405 397 L-386 395 L-366 394 L-347 392 L-328 391 L-309 390 L-282 389 L-261 388 L-233 386 L-199 385 L-185 384 L-171 383 L-153 382 L-134 381 L-114 380 L-96 379 L-76 378 L-56 377 L-36 376 L-18 375 L0 374 L20 373 L40 372 L58 371 L77 370 L97 369 L117 368 L135 368 L154 367 L175 366 L200 365 L215 364 L232 363 L251 362 L271 361 L290 360 L309 359 L329 358 L350 356 L367 354 L386 352 L407 350 L427 348 L445 347 L464 346 L484 344 L503 343 L522 341 L541 340 L561 339 L580 338 L600 337 L619 336 L647 335 L695 334 L732 333 L747 332 L759 331 L776 330 L794 329 L813 329 L832 328 L851 327 L871 326 L892 326 L909 325 L928 324 L948 324 L968 323 L987 322 L1005 321 L1026 320 L1045 319 L1064 318 L1083 317 L1104 316 L1128 314 L1143 312 L1160 311 L1180 309 L1199 308 L1219 306 L1238 305 L1258 304 L1278 302 L1296 301 L1315 299 L1335 298 L1356 297 L1373 296 L1392 295 L1412 294 L1431 293 L1451 292 L1470 291 L1490 290 L1509 289 L1529 288 L1547 287 L1575 286 L1596 284 L1624 283 L1660 281 L1675 278 L1688 276 L1705 274 L1722 273 L1743 272 L1761 271 L1781 270 L1800 270 L1822 269 L1838 268 L1857 266 L1877 265 L1898 263 L1916 262 L1935 259 L1954 257 L1975 255 L1993 253 L2012 252 L2033 250 L2058 249 L2073 247 L2091 246 L2109 245 L2129 244 L2148 242 L2167 240 L2187 239 L2208 237 L2225 236 L2244 234 L2264 233 L2285 232 L2302 231 L2321 229 L2341 228 L2360 227 L2379 226 L2398 225 L2418 224 L2438 223 L2457 222 L2476 221 L2504 997 L2524 996 L2552 995 L2588 993 L2602 214 L2615 212 L2633 211 L2651 210 L2671 210 L2689 209 L2709 208 L2729 207 L2750 205 L2767 204 L2785 202 L2806 200 L2826 198 L2844 196 L2863 194 L2883 192 L2904 191 L2921 189 L2940 188 L2962 187 L2986 185 L3002 183 L3031 181 L3071 179 L3094 176 L3123 174 L3140 172 L3153 170 L3173 168 L3193 167 L3214 166 L3231 165 L3250 164 L3270 163 L3289 162 L3308 162 L3327 161 L3347 160 L3367 159 L3386 158 L3404 157 L3432 156 L3453 155 L3481 154 L3516 153 L3529 151 L3561 150 L3580 149 L3600 149 L3618 148 L3638 147 L3657 146 L3678 146 L3695 145 L3714 143 L3735 140 L3755 137 L3773 133 L3792 129 L3811 126 L3832 124 L3850 122 L3869 120 L3890 119 L3915 118 L3930 116 L3947 115 L3966 113 L3986 112 L4005 110 L4024 109 L4044 107 L4065 106 L4082 104 L4101 103 L4121 102 L4142 100 L4159 100 L4178 99 L4198 98 L4217 97 L4237 95 L4256 94 L4275 93 L4295 92 L4314 91 L4333 90 L4361 90 L4381 89 L4451 86 L4479 84 L4494 82 L4508 79 L4528 78 L4546 77 L4566 76 L4586 74 L4607 73 L4624 72 L4642 71 L4663 70 L4683 70 L4701 68 L4720 67 L4740 66 L4761 64 L4778 63 L4797 62 L4819 61 L4844 60 L4859 59 L4876 58 L4895 56 L4915 55 L4933 53 L4953 52 L4972 51 L4994 50 L5010 49 L5030 48 L5050 47 L5071 46 L5088 45 L5146 44 L5165 43 L5184 42 L5204 41 L5224 40 L5243 39 L5261 39 L5289 38 L5310 37 L5338 37 L5374 36 L5389 35 L5401 34 L5419 34 L5437 33 L5457 33 L5475 32 L5495 32 L5514 32 L5536 31 L5552 31 L5571 30 L5592 30 L5612 29 L5630 28 L5649 28 L5669 27 L5689 26 L5707 25 L5726 24 L5747 24 L5772 23 L5787 22 L5804 22 L5823 21 L5843 20 L5862 19 L5881 18 L5901 17 L5922 16 L5939 15 L5958 14 L5979 14 L6000 13 L6016 13 L6035 12 L6056 12 L6075 11 L6094 11 L6113 10 L6133 10 L6153 10 L6171 9 L6190 9 L6218 8 L6238 8 L6266 7 L6301 6 L6315 6 L6329 5 L6347 5 L6365 4 L6385 4 L6403 3 L6443 3 L6463 2 L6481 2 L6500 1" />
</svg>
