<svg xmlns="http://www.w3.org/2000/svg" version="1.1" viewBox="0 0 6500 1000">
	<path fill="none" stroke="gold" stroke-width="125" stroke-linecap="round" stroke-linejoin="round" d="M0 1030  L-714464 1030 L-711860 1030 L-710192 1030 L-691862 1029 L-691692 1029 L-684534 1029 L-684501 1029 L-671070 1029 L-668148 1029 L-654807 1029 L-650638 1028 L-649478 1028 L-648859 1027 L-646847 1027 L-643076 1027 L-642475 1026 L-642147 1026 L-641934 1026 L-641392 1026 L-640154 1025 L-638975 1024 L-636111 1023 L-635588 1023 L-630733 1022 L-627796 1022 L-627753 1022 L-627444 1022 L-627193 1021 L-624598 1021 L-620342 1021 L-620324 1021 L-619087 1021 L-617210 1021 L-615256 1021 L-614309 1021 L-614038 1021 L-613728 1021 L-613630 1020 L-612799 1020 L-610769 1021 L-610478 1020 L-608332 1019 L-608176 1019 L-604520 1018 L-604269 1018 L-604170 1018 L-603653 1019 L-601502 1019 L-600573 1020 L-599047 1020 L-597808 1020 L-596261 1020 L-593299 1020 L-592178 1020 L-591868 1019 L-590657 1019 L-587650 1020 L-587631 1020 L-587283 1020 L-587070 1020 L-586944 1019 L-586703 1018 L-586665 1018 L-586645 1018 L-586626 1018 L-586567 1018 L-586508 1017 L-586490 1017 L-586047 1017 L-584808 1017 L-583262 1017 L-579874 1016 L-574148 1016 L-573946 1016 L-572311 1016 L-570589 1016 L-569157 1016 L-568924 1016 L-568209 1016 L-562077 1016 L-561709 1015 L-561555 1015 L-560976 1015 L-560684 1015 L-559716 1014 L-559407 1014 L-558808 1014 L-557201 1014 L-556466 1014 L-556156 1014 L-555388 1014 L-553352 1014 L-552927 1014 L-552114 1014 L-544686 1013 L-544163 1013 L-543989 1013 L-543254 1013 L-541686 1013 L-541281 1013 L-539056 1012 L-538108 1012 L-537683 1012 L-537352 1012 L-536309 1012 L-534201 1012 L-533948 1012 L-533330 1011 L-532517 1011 L-530409 1011 L-530360 1011 L-528432 1011 L-528106 1010 L-527971 1010 L-527468 1010 L-526056 1010 L-525553 1010 L-525031 1009 L-521471 1009 L-520736 1008 L-518311 1008 L-517022 1008 L-516615 1008 L-513462 1008 L-513308 1008 L-513287 1008 L-512921 1008 L-511663 1008 L-510948 1008 L-510058 1008 L-509651 1008 L-508722 1008 L-507614 1008 L-507310 1009 L-501061 1009 L-500114 1009 L-498488 1009 L-497986 1009 L-494310 1010 L-493478 1010 L-489525 1010 L-488113 1009 L-485624 1009 L-484947 1009 L-484909 1009 L-484038 1009 L-480827 1009 L-477964 1009 L-476996 1009 L-475874 1008 L-475855 1008 L-474230 1008 L-473766 1008 L-473674 1008 L-467305 1007 L-466356 1007 L-463899 1007 L-463027 1007 L-461791 1007 L-459790 1007 L-459392 1007 L-457956 1006 L-455930 1006 L-455716 1006 L-454536 1006 L-453028 1006 L-453008 1006 L-450995 1006 L-450126 1006 L-449255 1005 L-448670 1005 L-448133 1005 L-447475 1005 L-446237 1005 L-445677 1005 L-444496 1004 L-443258 1004 L-443219 1004 L-442832 1004 L-442291 1004 L-441517 1004 L-440395 1004 L-438306 1003 L-437972 1003 L-437687 1003 L-436758 1003 L-436275 1003 L-435539 1003 L-431908 1003 L-430781 1002 L-430626 1002 L-429600 1002 L-425885 1002 L-424668 1002 L-422849 1002 L-420064 1002 L-419502 1001 L-415614 1001 L-413138 1001 L-411803 1001 L-411299 1001 L-410816 1001 L-408127 1001 L-404355 1001 L-401898 1001 L-400718 1001 L-400079 1001 L-397719 1001 L-397642 1001 L-396595 1000 L-396501 1000 L-395998 1000 L-395553 1000 L-395495 1000 L-395281 1000 L-392322 1000 L-389614 1000 L-389459 1000 L-385939 1000 L-385416 1000 L-384448 999 L-384099 999 L-383056 999 L-382127 999 L-381701 999 L-380192 999 L-379225 999 L-379206 999 L-377310 991 L-377195 983 L-377147 976 L-377122 968 L-374118 968 L-372087 968 L-370327 968 L-369959 968 L-369514 967 L-369147 967 L-368733 967 L-366748 967 L-366535 967 L-366380 967 L-364775 967 L-363653 967 L-362705 967 L-361447 966 L-359803 966 L-358623 966 L-352034 966 L-351987 966 L-351581 966 L-350536 966 L-350401 966 L-348718 965 L-348698 965 L-347362 965 L-346125 965 L-345971 965 L-345597 965 L-345391 965 L-345081 964 L-344308 964 L-341986 964 L-341328 964 L-339201 964 L-337478 964 L-337285 964 L-334731 964 L-334455 963 L-334267 963 L-333434 963 L-332662 963 L-331964 963 L-326963 963 L-326587 963 L-322334 963 L-321847 973 L-321828 973 L-321749 973 L-321674 973 L-321654 962 L-320841 962 L-320087 962 L-318868 962 L-317436 962 L-317340 962 L-317166 962 L-316811 961 L-315502 961 L-313645 961 L-311942 961 L-311440 961 L-311174 961 L-310781 961 L-310647 960 L-309737 960 L-309361 960 L-308432 960 L-308093 960 L-308054 960 L-308016 960 L-306100 960 L-305927 960 L-304398 960 L-304070 960 L-303954 960 L-303546 960 L-303198 959 L-301555 959 L-301004 959 L-300761 959 L-300219 959 L-299388 959 L-298846 959 L-297312 958 L-297219 958 L-297183 958 L-297047 958 L-296659 958 L-295635 958 L-293758 958 L-293662 958 L-293062 961 L-292694 964 L-292210 968 L-292172 972 L-291398 972 L-291340 972 L-291166 971 L-290972 971 L-289367 971 L-289347 971 L-289192 971 L-289077 971 L-287897 971 L-287742 972 L-287075 972 L-284627 980 L-282112 989 L-279442 997 L-271743 1006 L-266075 1006 L-263861 1005 L-263838 1005 L-262864 1007 L-262844 1007 L-261980 1007 L-259240 1007 L-253441 1005 L-253288 1005 L-250502 1005 L-236894 1005 L-236148 1004 L-231737 1004 L-215391 1004 L-215159 1004 L-214622 1004 L-206162 1004 L-197457 1004 L-197244 1003 L-195272 1003 L-192486 1003 L-187998 1003 L-187843 1003 L-187674 1003 L-187534 1003 L-187243 1003 L-187204 1003 L-186934 1003 L-186762 1003 L-186352 1003 L-185231 1003 L-184051 1002 L-182774 1002 L-179910 1002 L-176990 1002 L-174998 1002 L-173450 1002 L-170412 1002 L-161088 1002 L-160564 1002 L-154840 1002 L-153333 1001 L-152519 1001 L-150835 1001 L-150114 1001 L-149945 1001 L-148900 1001 L-146833 1001 L-145471 1001 L-141028 1001 L-140931 1000 L-140892 1000 L-140873 1000 L-140040 1000 L-139963 1000 L-137390 1000 L-134141 1000 L-133986 1000 L-133038 1000 L-131297 999 L-130581 1000 L-127041 1000 L-120463 1001 L-119046 1002 L-119025 1002 L-118075 1002 L-114600 1002 L-113847 1001 L-113285 1001 L-112503 1001 L-104999 1001 L-103401 1001 L-101827 1001 L-98642 1001 L-94308 1001 L-85739 1001 L-76992 1001 L-73919 1000 L-70653 1000 L-70106 1000 L-62969 1000 L-57301 1000 L-43237 1000 L-37225 1000 L-32519 1000 L-28516 1000 L-23408 1000 L-13694 1000 L1875 999 L4958 999 L5260 953 L5280 896 L5299 831 L5318 759 L5338 726 L5357 698 L5376 672 L5404 647 L5424 623 L5452 597 L5488 568 L5501 544 L5514 523 L5533 506 L5551 493 L5571 480 L5589 467 L5609 454 L5629 441 L5650 427 L5667 413 L5685 400 L5706 388 L5726 375 L5744 361 L5763 347 L5783 332 L5803 318 L5821 304 L5840 291 L5862 279 L5886 266 L5901 254 L5918 243 L5938 230 L5957 219 L5976 206 L5995 193 L6015 181 L6036 169 L6054 158 L6072 148 L6093 138 L6114 128 L6131 120 L6150 112 L6170 104 L6189 97 L6208 90 L6227 83 L6247 77 L6267 72 L6286 66 L6304 61 L6332 54 L6353 47 L6381 39 L6415 30 L6429 23 L6442 16 L6461 10 L6480 5 L6500 0" />
</svg>
