<svg xmlns="http://www.w3.org/2000/svg" version="1.1" viewBox="0 0 6500 1000">
	<path fill="none" stroke="gold" stroke-width="125" stroke-linecap="round" stroke-linejoin="round" d="M0 3807  L-724367 3807 L-721763 3807 L-720095 3807 L-701766 3807 L-701596 3806 L-694438 3806 L-694405 3806 L-680974 3806 L-678052 3806 L-664711 3805 L-660542 3805 L-659382 3804 L-658763 3803 L-656751 3803 L-652979 3802 L-652379 3802 L-652050 3801 L-651837 3801 L-651296 3801 L-650058 3799 L-648879 3798 L-646014 3797 L-645492 3795 L-640637 3795 L-637699 3794 L-637656 3794 L-637348 3794 L-637096 3793 L-634501 3793 L-630246 3793 L-630228 3793 L-628991 3793 L-627113 3793 L-625160 3793 L-624212 3792 L-623941 3792 L-623631 3792 L-623533 3792 L-622703 3792 L-620672 3792 L-620382 3790 L-618235 3790 L-618080 3789 L-614424 3788 L-614172 3788 L-614074 3788 L-613557 3788 L-611406 3789 L-610477 3790 L-608951 3791 L-607711 3791 L-606165 3791 L-603203 3790 L-602081 3790 L-601772 3790 L-600561 3790 L-597554 3792 L-597534 3791 L-597187 3791 L-596974 3791 L-596848 3789 L-596606 3788 L-596568 3788 L-596549 3788 L-596529 3787 L-596470 3787 L-596412 3786 L-596394 3786 L-595951 3786 L-594711 3785 L-593166 3785 L-589778 3785 L-584052 3785 L-583850 3784 L-582214 3784 L-580492 3784 L-579060 3784 L-578828 3784 L-578112 3784 L-571980 3783 L-571613 3783 L-571458 3783 L-570880 3782 L-570587 3782 L-569620 3782 L-569310 3781 L-568711 3781 L-567105 3781 L-566370 3781 L-566060 3781 L-565292 3781 L-563256 3781 L-562830 3780 L-562018 3780 L-554589 3780 L-554066 3779 L-553893 3779 L-553158 3779 L-551590 3778 L-551184 3778 L-548959 3778 L-548011 3778 L-547586 3778 L-547256 3778 L-546212 3777 L-544104 3777 L-543852 3777 L-543233 3776 L-542420 3776 L-540312 3776 L-540264 3775 L-538336 3775 L-538010 3775 L-537875 3774 L-537372 3774 L-535959 3774 L-535456 3773 L-534934 3773 L-531375 3772 L-530640 3771 L-528215 3771 L-526926 3771 L-526519 3771 L-523366 3771 L-523211 3771 L-523191 3771 L-522824 3771 L-521566 3771 L-520851 3771 L-519961 3771 L-519554 3771 L-518626 3771 L-517517 3771 L-517214 3772 L-510965 3772 L-510018 3773 L-508392 3773 L-507890 3773 L-504214 3773 L-503382 3773 L-499429 3774 L-498017 3773 L-495527 3773 L-494851 3772 L-494812 3772 L-493941 3772 L-490730 3772 L-487867 3772 L-486899 3772 L-485778 3771 L-485759 3771 L-484134 3771 L-483670 3770 L-483578 3770 L-477208 3770 L-476260 3770 L-473803 3769 L-472931 3769 L-471694 3769 L-469693 3769 L-469296 3768 L-467859 3768 L-465833 3768 L-465620 3767 L-464440 3767 L-462931 3767 L-462911 3767 L-460899 3767 L-460030 3766 L-459159 3766 L-458574 3766 L-458037 3766 L-457379 3765 L-456141 3765 L-455580 3765 L-454399 3764 L-453162 3764 L-453123 3764 L-452736 3764 L-452194 3764 L-451421 3763 L-450298 3763 L-448209 3763 L-447876 3763 L-447590 3762 L-446662 3762 L-446178 3762 L-445443 3762 L-441812 3761 L-440684 3761 L-440529 3761 L-439503 3761 L-435789 3760 L-434571 3760 L-432753 3760 L-429967 3760 L-429406 3759 L-425518 3759 L-423041 3759 L-421706 3759 L-421203 3759 L-420720 3759 L-418030 3759 L-414259 3759 L-411802 3759 L-410622 3759 L-409983 3759 L-407623 3758 L-407546 3758 L-406498 3758 L-406405 3758 L-405902 3758 L-405456 3758 L-405399 3758 L-405185 3758 L-402225 3757 L-399518 3757 L-399363 3757 L-395842 3757 L-395319 3756 L-394352 3756 L-394003 3756 L-392959 3755 L-392031 3755 L-391605 3755 L-390096 3755 L-389129 3755 L-389110 3755 L-387214 3742 L-387098 3729 L-387050 3716 L-387026 3703 L-384022 3703 L-381991 3702 L-380230 3702 L-379863 3702 L-379417 3702 L-379051 3702 L-378637 3701 L-376652 3701 L-376438 3701 L-376284 3701 L-374678 3701 L-373556 3701 L-372608 3700 L-371351 3700 L-369706 3700 L-368527 3700 L-361937 3699 L-361891 3699 L-361485 3699 L-360440 3699 L-360304 3699 L-358622 3698 L-358602 3698 L-357265 3698 L-356029 3698 L-355875 3698 L-355501 3697 L-355295 3697 L-354985 3697 L-354211 3696 L-351890 3696 L-351232 3696 L-349104 3696 L-347382 3696 L-347188 3695 L-344635 3695 L-344359 3695 L-344170 3695 L-343338 3694 L-342565 3694 L-341867 3694 L-336867 3694 L-336491 3694 L-332238 3693 L-331751 3711 L-331732 3711 L-331653 3711 L-331577 3710 L-331558 3693 L-330745 3692 L-329991 3692 L-328772 3692 L-327340 3692 L-327244 3692 L-327069 3692 L-326715 3691 L-325406 3691 L-323548 3691 L-321846 3691 L-321343 3691 L-321078 3690 L-320685 3690 L-320550 3690 L-319641 3690 L-319264 3690 L-318336 3690 L-317997 3689 L-317957 3689 L-317919 3689 L-316004 3689 L-315830 3689 L-314301 3689 L-313973 3689 L-313857 3689 L-313450 3688 L-313102 3688 L-311458 3688 L-310907 3688 L-310664 3688 L-310123 3687 L-309292 3687 L-308750 3687 L-307215 3687 L-307123 3686 L-307086 3686 L-306950 3686 L-306563 3686 L-305538 3686 L-303662 3685 L-303565 3685 L-302965 3691 L-302598 3697 L-302113 3703 L-302075 3709 L-301302 3709 L-301244 3709 L-301070 3709 L-300876 3709 L-299271 3708 L-299251 3708 L-299096 3708 L-298980 3709 L-297801 3709 L-297646 3709 L-296979 3709 L-294531 3724 L-292016 3738 L-289346 3752 L-281647 3766 L-275979 3766 L-273765 3766 L-273741 3766 L-272767 3770 L-272747 3770 L-271884 3769 L-269143 3769 L-263345 3766 L-263191 3765 L-260406 3765 L-246797 3765 L-246051 3764 L-241641 3764 L-225294 3764 L-225062 3764 L-224525 3763 L-216066 3763 L-207360 3763 L-207148 3763 L-205175 3763 L-202389 3763 L-197902 3763 L-197747 3763 L-197578 3763 L-197437 3763 L-197147 3762 L-197108 3762 L-196837 3762 L-196666 3762 L-196255 3762 L-195135 3761 L-193955 3761 L-192678 3761 L-189814 3761 L-186894 3761 L-184902 3760 L-183354 3760 L-180316 3760 L-170992 3760 L-170468 3760 L-164744 3760 L-163237 3759 L-162422 3759 L-160739 3759 L-160018 3759 L-159849 3759 L-158804 3759 L-156737 3758 L-155375 3758 L-150931 3758 L-150834 3758 L-150796 3758 L-150777 3758 L-149944 3757 L-149866 3757 L-147294 3757 L-144045 3757 L-143890 3756 L-142941 3756 L-141200 3756 L-140485 3757 L-136944 3758 L-130367 3759 L-128950 3760 L-128929 3760 L-127978 3760 L-124504 3760 L-123751 3759 L-123189 3759 L-122407 3759 L-114903 3759 L-113304 3759 L-111730 3759 L-108545 3758 L-104212 3758 L-95642 3758 L-86896 3758 L-83822 3758 L-80556 3758 L-80010 3757 L-72872 3757 L-67205 3757 L-53140 3757 L-47129 3757 L-42423 3757 L-38419 3757 L-33312 3757 L-23598 3756 L-8027 3756 L-4945 3756 L-4642 3677 L-4623 3581 L-4604 3471 L-4584 3348 L-4565 3292 L-4545 3245 L-4527 3202 L-4499 3159 L-4478 3117 L-4450 3073 L-4415 3025 L-4401 2984 L-4388 2948 L-4370 2919 L-4351 2897 L-4331 2875 L-4313 2853 L-4294 2831 L-4274 2809 L-4253 2785 L-4236 2763 L-4217 2740 L-4197 2719 L-4177 2698 L-4158 2674 L-4139 2650 L-4120 2625 L-4099 2601 L-4081 2578 L-4062 2556 L-4041 2535 L-4016 2513 L-4002 2493 L-3984 2473 L-3965 2452 L-3945 2433 L-3926 2411 L-3907 2389 L-3887 2369 L-3867 2349 L-3849 2330 L-3830 2312 L-3809 2295 L-3789 2279 L-3772 2265 L-3753 2252 L-3733 2238 L-3714 2226 L-3694 2213 L-3675 2202 L-3656 2193 L-3636 2183 L-3617 2174 L-3598 2165 L-3571 2153 L-3550 2141 L-3522 2127 L-3488 2112 L-3474 2100 L-3461 2089 L-3442 2079 L-3423 2071 L-3403 2062 L-3385 2051 L-3365 2041 L-3345 2031 L-3325 2022 L-3307 2013 L-3288 2003 L-3268 1994 L-3248 1983 L-3230 1971 L-3211 1957 L-3191 1944 L-3171 1930 L-3153 1916 L-3134 1902 L-3113 1886 L-3088 1869 L-3074 1852 L-3056 1836 L-3037 1821 L-3017 1805 L-2998 1788 L-2979 1771 L-2959 1754 L-2939 1737 L-2920 1722 L-2902 1706 L-2881 1691 L-2861 1676 L-2843 1662 L-2824 1650 L-2804 1636 L-2785 1625 L-2766 1613 L-2747 1602 L-2727 1591 L-2708 1579 L-2688 1567 L-2669 1556 L-2641 1544 L-2621 1534 L-2593 1523 L-2556 1509 L-2541 1497 L-2528 1485 L-2511 1474 L-2494 1466 L-2474 1459 L-2456 1452 L-2437 1445 L-2417 1439 L-2396 1432 L-2379 1425 L-2360 1417 L-2340 1409 L-2320 1401 L-2301 1392 L-2283 1383 L-2263 1373 L-2243 1362 L-2224 1352 L-2205 1342 L-2184 1332 L-2160 1321 L-2145 1311 L-2128 1301 L-2108 1290 L-2089 1280 L-2069 1270 L-2050 1258 L-2030 1247 L-2010 1237 L-1992 1226 L-1973 1216 L-1953 1207 L-1933 1198 L-1915 1189 L-1896 1181 L-1876 1172 L-1857 1163 L-1837 1154 L-1818 1146 L-1798 1138 L-1779 1130 L-1760 1122 L-1741 1114 L-1713 1105 L-1693 1097 L-1665 1088 L-1628 1075 L-1614 1063 L-1601 1051 L-1584 1041 L-1566 1035 L-1546 1028 L-1527 1020 L-1507 1012 L-1488 1003 L-1467 993 L-1448 983 L-1431 972 L-1411 961 L-1390 949 L-1372 936 L-1354 923 L-1334 910 L-1313 897 L-1296 886 L-1277 876 L-1255 869 L-1230 862 L-1216 856 L-1198 850 L-1179 843 L-1160 836 L-1141 829 L-1122 822 L-1102 816 L-1081 811 L-1063 806 L-1044 800 L-1024 792 L-1003 783 L-986 775 L-967 768 L-947 763 L-928 759 L-909 755 L-890 751 L-870 747 L-850 742 L-831 737 L-812 733 L-785 728 L-764 724 L-736 719 L-701 713 L-688 709 L-674 704 L-656 701 L-637 697 L-617 694 L-599 690 L-579 687 L-559 684 L-538 680 L-521 677 L-503 673 L-482 669 L-462 665 L-444 661 L-425 658 L-405 654 L-385 651 L-367 648 L-348 645 L-327 641 L-302 638 L-287 635 L-270 632 L-251 629 L-231 626 L-212 622 L-193 618 L-173 614 L-152 611 L-135 607 L-116 604 L-95 601 L-75 598 L-57 595 L-38 592 L-18 589 L0 586 L19 583 L38 581 L58 579 L77 576 L96 574 L115 578 L144 582 L164 585 L192 588 L229 585 L244 583 L257 580 L274 578 L291 577 L310 575 L329 573 L349 571 L368 569 L390 567 L406 566 L425 564 L445 562 L466 560 L484 558 L502 556 L522 553 L542 551 L561 549 L580 548 L601 546 L626 545 L640 542 L657 540 L677 538 L696 536 L716 534 L735 532 L754 530 L775 527 L793 524 L812 521 L832 519 L853 516 L870 514 L889 511 L909 509 L928 507 L948 504 L966 501 L986 499 L1006 496 L1025 495 L1044 493 L1071 490 L1092 488 L1120 485 L1155 483 L1168 480 L1182 478 L1201 476 L1219 474 L1239 472 L1257 470 L1277 468 L1297 466 L1318 463 L1335 461 L1353 459 L1374 457 L1394 454 L1412 451 L1431 448 L1451 444 L1471 441 L1489 438 L1508 435 L1529 432 L1554 429 L1569 426 L1586 423 L1605 420 L1625 417 L1644 414 L1663 410 L1683 408 L1704 405 L1721 402 L1740 399 L1761 396 L1782 394 L1799 392 L1818 390 L1838 388 L1857 386 L1876 384 L1895 382 L1915 381 L1935 379 L1954 377 L1972 376 L2000 375 L2021 373 L2049 371 L2084 368 L2098 365 L2111 362 L2130 359 L2148 357 L2167 355 L2186 353 L2206 351 L2225 349 L2246 347 L2263 345 L2282 343 L2303 340 L2323 338 L2341 335 L2360 333 L2379 330 L2400 328 L2418 326 L2437 324 L2458 322 L2483 320 L2498 318 L2515 316 L2534 314 L2554 312 L2573 309 L2592 306 L2612 303 L2633 300 L2650 296 L2669 294 L2690 291 L2710 289 L2727 287 L2746 285 L2766 284 L2785 282 L2805 281 L2824 279 L2843 278 L2863 276 L2882 275 L2901 273 L2928 272 L2949 270 L2977 269 L3011 267 L3025 266 L3039 265 L3057 263 L3076 262 L3096 261 L3114 260 L3134 259 L3154 258 L3174 257 L3192 256 L3210 254 L3231 253 L3251 252 L3269 250 L3288 249 L3308 248 L3328 247 L3346 246 L3365 246 L3386 245 L3411 244 L3426 242 L3443 241 L3462 240 L3482 239 L3501 237 L3520 236 L3540 235 L3560 233 L3578 230 L3597 228 L3618 225 L3638 223 L3656 222 L3675 220 L3695 218 L3713 217 L3733 215 L3752 213 L3772 212 L3791 211 L3811 209 L3830 208 L3858 207 L3906 206 L3943 205 L3958 203 L3970 202 L3987 201 L4005 201 L4024 200 L4043 199 L4062 198 L4082 197 L4103 196 L4120 196 L4139 195 L4159 194 L4179 193 L4198 192 L4216 191 L4236 190 L4256 189 L4275 188 L4294 186 L4315 184 L4339 182 L4354 180 L4371 178 L4391 177 L4410 175 L4430 173 L4448 172 L4469 170 L4489 168 L4507 167 L4526 165 L4546 163 L4567 162 L4584 161 L4603 160 L4623 159 L4642 158 L4662 156 L4681 155 L4701 154 L4720 152 L4739 151 L4758 150 L4786 148 L4807 147 L4835 145 L4871 143 L4886 140 L4899 137 L4916 135 L4933 134 L4954 132 L4972 131 L4992 130 L5011 130 L5032 129 L5049 127 L5068 126 L5088 124 L5109 122 L5127 120 L5146 117 L5165 115 L5186 112 L5204 110 L5222 108 L5244 107 L5269 105 L5284 103 L5301 101 L5320 100 L5340 98 L5359 97 L5377 95 L5397 93 L5419 91 L5436 89 L5455 88 L5475 86 L5496 84 L5513 83 L5532 82 L5552 80 L5571 79 L5590 78 L5609 76 L5629 75 L5649 74 L5668 73 L5687 71 L5715 997 L5735 995 L5763 994 L5799 991 L5813 63 L5826 61 L5844 60 L5862 59 L5882 58 L5900 57 L5920 56 L5940 55 L5961 53 L5978 51 L5996 49 L6017 47 L6037 45 L6055 42 L6074 40 L6094 37 L6115 35 L6132 34 L6151 32 L6173 31 L6197 29 L6213 27 L6242 24 L6282 21 L6305 18 L6334 15 L6351 13 L6364 10 L6384 9 L6404 8 L6425 6 L6442 5 L6461 3 L6481 2 L6500 1" />
</svg>
