<svg xmlns="http://www.w3.org/2000/svg" version="1.1" viewBox="0 0 6500 1000">
	<path fill="none" stroke="gold" stroke-width="125" stroke-linecap="round" stroke-linejoin="round" d="M0 162273  L-381376 162273 L-378772 162024 L-377104 161776 L-358774 161278 L-358604 160781 L-351446 160283 L-351413 160283 L-337982 160034 L-335060 160283 L-321720 159537 L-317551 158542 L-316391 157298 L-315771 156054 L-313760 155308 L-309988 154810 L-309388 154313 L-309059 153815 L-308846 153318 L-308304 152820 L-307066 150830 L-305887 148840 L-303023 146850 L-302501 144860 L-297645 144363 L-294708 143865 L-294665 143368 L-294357 142870 L-294105 142373 L-291510 141875 L-287254 141875 L-287236 141875 L-286000 141875 L-284122 141875 L-282169 141378 L-281221 140880 L-280950 140383 L-280640 140134 L-280542 139885 L-279712 139885 L-277681 140134 L-277390 137895 L-275244 136900 L-275089 135407 L-271432 133915 L-271181 134661 L-271083 134412 L-270565 135159 L-268414 136402 L-267485 137646 L-265959 138890 L-264720 138890 L-263173 138641 L-260212 138144 L-259090 137646 L-258781 137149 L-257569 136900 L-254563 139636 L-254543 139388 L-254196 139139 L-253983 138890 L-253856 135407 L-253615 134910 L-253577 134412 L-253557 133915 L-253538 133417 L-253479 132920 L-253420 132422 L-253402 131925 L-252959 131427 L-251720 130930 L-250174 130432 L-246786 129935 L-241060 129686 L-240859 129437 L-239223 129189 L-237501 128940 L-236069 128691 L-235836 128442 L-235121 128194 L-228989 127945 L-228621 127447 L-228467 126950 L-227888 126452 L-227596 125955 L-226628 125457 L-226319 124960 L-225720 124462 L-224114 124462 L-223379 124462 L-223069 124711 L-222300 124711 L-220264 124213 L-219839 123716 L-219026 123467 L-211598 122970 L-211075 122472 L-210901 121975 L-210166 121477 L-208599 120980 L-208193 120731 L-205968 120233 L-205020 119985 L-204595 119736 L-204265 119736 L-203221 119487 L-201113 118990 L-200861 118492 L-200242 117995 L-199429 117746 L-197321 117248 L-197273 116751 L-195344 116253 L-195019 115756 L-194884 115258 L-194381 115009 L-192968 114512 L-192465 113517 L-191943 112771 L-188383 111776 L-187648 110781 L-185224 110781 L-183934 110283 L-183527 110034 L-180375 110034 L-180220 110034 L-180200 110283 L-179833 110283 L-178575 110532 L-177860 110781 L-176970 110781 L-176563 110781 L-175634 110781 L-174526 110532 L-174222 111527 L-167974 112024 L-167026 112522 L-165400 113019 L-164898 113268 L-161223 113517 L-160390 113766 L-156437 114014 L-155025 113268 L-152536 112771 L-151860 112273 L-151821 112024 L-150950 112024 L-147739 111776 L-144876 111527 L-143908 111278 L-142786 110781 L-142767 110283 L-141142 109786 L-140678 109039 L-140586 108791 L-134217 108542 L-133269 108293 L-130811 108044 L-129939 107547 L-128703 107298 L-126702 107049 L-126304 106552 L-124868 106054 L-122842 105805 L-122629 105308 L-121448 105059 L-119940 104810 L-119920 104562 L-117908 104313 L-117038 103815 L-116167 103567 L-115582 103069 L-115045 102572 L-114388 102074 L-113149 101577 L-112589 101328 L-111408 101079 L-110170 100830 L-110132 100582 L-109745 100333 L-109203 99835 L-108429 99587 L-107307 99338 L-105218 98840 L-104885 98343 L-104599 97845 L-103670 97597 L-103187 97099 L-102452 96850 L-98820 96601 L-97693 96353 L-97538 96104 L-96512 95606 L-92797 95358 L-91580 94860 L-89761 94363 L-86976 94114 L-86414 93616 L-82526 93616 L-80050 93368 L-78715 93368 L-78212 93119 L-77728 92870 L-75039 92870 L-71267 92870 L-68810 92870 L-67630 92870 L-66991 92621 L-64632 92124 L-64554 91875 L-63507 91626 L-63413 91129 L-62910 91129 L-62465 91129 L-62407 91129 L-62194 91129 L-59234 90631 L-56526 90383 L-56372 90134 L-52851 89885 L-52328 89388 L-51361 88890 L-51011 88641 L-49968 88144 L-49039 87646 L-48614 87398 L-47105 87398 L-46138 87149 L-46119 86900 L-44223 68741 L-44107 50084 L-44059 31676 L-44034 13268 L-41030 13019 L-39000 12522 L-37239 12273 L-36872 12024 L-36426 11527 L-36059 11278 L-35645 10781 L-33660 10532 L-33447 10532 L-33292 10283 L-31687 10283 L-30565 10034 L-29617 9786 L-28360 9288 L-26715 9039 L-25535 8542 L-18946 8293 L-18899 8044 L-18494 7796 L-17448 7547 L-17313 7298 L-15630 6800 L-15611 6552 L-14274 6054 L-13038 5805 L-12883 5557 L-12509 5059 L-12303 4810 L-11994 4562 L-11220 4064 L-8898 3815 L-8241 3567 L-6113 3318 L-4390 3069 L-4197 2572 L-1644 2323 L-1367 1825 L-1179 1328 L-346 1079 L425 830 L1123 582 L6124 582 L6500 84" />
</svg>
