<svg xmlns="http://www.w3.org/2000/svg" version="1.1" viewBox="0 0 6500 1000">
	<path fill="none" stroke="gold" stroke-width="125" stroke-linecap="round" stroke-linejoin="round" d="M0 3401  L-726922 3401 L-724318 3401 L-722650 3401 L-704320 3400 L-704150 3400 L-696992 3400 L-696959 3400 L-683528 3400 L-680607 3400 L-667266 3399 L-663097 3399 L-661937 3398 L-661317 3397 L-659306 3397 L-655534 3396 L-654934 3396 L-654605 3396 L-654392 3396 L-653850 3395 L-652612 3394 L-651433 3393 L-648569 3392 L-648047 3390 L-643191 3390 L-640254 3390 L-640211 3390 L-639903 3389 L-639651 3389 L-637056 3389 L-632800 3389 L-632782 3389 L-631546 3389 L-629668 3389 L-627715 3388 L-626767 3388 L-626496 3388 L-626186 3388 L-626088 3387 L-625258 3387 L-623227 3388 L-622936 3386 L-620790 3386 L-620635 3385 L-616978 3384 L-616727 3384 L-616629 3384 L-616112 3385 L-613960 3385 L-613032 3386 L-611505 3387 L-610266 3387 L-608720 3387 L-605758 3386 L-604636 3386 L-604327 3386 L-603115 3386 L-600109 3387 L-600089 3387 L-599742 3387 L-599529 3387 L-599402 3385 L-599161 3384 L-599123 3384 L-599103 3384 L-599084 3384 L-599025 3383 L-598966 3383 L-598948 3383 L-598505 3382 L-597266 3382 L-595720 3382 L-592332 3382 L-586606 3381 L-586405 3381 L-584769 3381 L-583047 3381 L-581615 3381 L-581382 3381 L-580667 3380 L-574535 3380 L-574167 3380 L-574013 3380 L-573434 3379 L-573142 3379 L-572175 3379 L-571865 3379 L-571266 3378 L-569660 3378 L-568925 3378 L-568615 3378 L-567846 3378 L-565810 3378 L-565385 3378 L-564572 3378 L-557144 3377 L-556621 3377 L-556447 3377 L-555712 3376 L-554145 3376 L-553739 3376 L-551514 3376 L-550566 3376 L-550141 3375 L-549811 3375 L-548767 3375 L-546659 3375 L-546407 3375 L-545788 3374 L-544975 3374 L-542867 3374 L-542819 3374 L-540890 3373 L-540565 3373 L-540430 3373 L-539927 3373 L-538514 3372 L-538011 3372 L-537489 3371 L-533930 3371 L-533194 3370 L-530770 3370 L-529480 3370 L-529073 3370 L-525921 3370 L-525766 3370 L-525746 3370 L-525379 3370 L-524121 3370 L-523406 3370 L-522516 3370 L-522109 3370 L-521180 3370 L-520072 3370 L-519769 3370 L-513520 3371 L-512572 3371 L-510946 3371 L-510444 3372 L-506769 3372 L-505936 3372 L-501983 3372 L-500571 3372 L-498082 3371 L-497406 3371 L-497367 3371 L-496496 3371 L-493285 3371 L-490422 3370 L-489454 3370 L-488332 3370 L-488313 3370 L-486688 3369 L-486224 3369 L-486132 3369 L-479763 3369 L-478815 3369 L-476358 3368 L-475485 3368 L-474249 3368 L-472248 3368 L-471850 3367 L-470414 3367 L-468388 3367 L-468175 3367 L-466995 3367 L-465486 3366 L-465466 3366 L-463454 3366 L-462584 3366 L-461713 3366 L-461129 3365 L-460591 3365 L-459934 3365 L-458695 3364 L-458135 3364 L-456954 3364 L-455716 3364 L-455678 3364 L-455291 3364 L-454749 3363 L-453975 3363 L-452853 3363 L-450764 3363 L-450431 3363 L-450145 3362 L-449216 3362 L-448733 3362 L-447998 3362 L-444366 3362 L-443239 3361 L-443084 3361 L-442058 3361 L-438343 3361 L-437126 3360 L-435307 3360 L-432522 3360 L-431960 3360 L-428072 3360 L-425596 3360 L-424261 3360 L-423758 3359 L-423274 3359 L-420585 3359 L-416813 3359 L-414356 3359 L-413176 3359 L-412537 3359 L-410178 3359 L-410100 3359 L-409053 3359 L-408959 3358 L-408456 3358 L-408011 3358 L-407953 3358 L-407740 3358 L-404780 3358 L-402072 3358 L-401918 3358 L-398397 3357 L-397874 3357 L-396907 3357 L-396558 3357 L-395514 3356 L-394585 3356 L-394160 3356 L-392651 3356 L-391684 3356 L-391665 3356 L-389769 3345 L-389653 3334 L-389605 3323 L-389580 3312 L-386576 3311 L-384546 3311 L-382785 3311 L-382418 3311 L-381972 3310 L-381605 3310 L-381191 3310 L-379206 3310 L-378993 3310 L-378838 3310 L-377233 3310 L-376111 3310 L-375163 3309 L-373906 3309 L-372261 3309 L-371081 3309 L-364492 3309 L-364445 3308 L-364040 3308 L-362994 3308 L-362859 3308 L-361176 3308 L-361157 3308 L-359820 3307 L-358584 3307 L-358429 3307 L-358055 3307 L-357849 3306 L-357540 3306 L-356766 3306 L-354444 3306 L-353787 3306 L-351659 3306 L-349936 3305 L-349743 3305 L-347190 3305 L-346913 3305 L-346725 3304 L-345893 3304 L-345120 3304 L-344422 3304 L-339421 3304 L-339046 3304 L-334793 3303 L-334306 3318 L-334286 3318 L-334207 3318 L-334132 3318 L-334112 3303 L-333299 3303 L-332546 3302 L-331326 3302 L-329895 3302 L-329798 3302 L-329624 3302 L-329270 3302 L-327960 3302 L-326103 3301 L-324401 3301 L-323898 3301 L-323632 3301 L-323239 3301 L-323105 3300 L-322195 3300 L-321819 3300 L-320890 3300 L-320551 3300 L-320512 3300 L-320474 3300 L-318559 3300 L-318385 3300 L-316856 3300 L-316528 3300 L-316412 3299 L-316005 3299 L-315657 3299 L-314013 3299 L-313462 3299 L-313219 3298 L-312678 3298 L-311846 3298 L-311305 3298 L-309770 3298 L-309678 3297 L-309641 3297 L-309505 3297 L-309118 3297 L-308093 3297 L-306216 3297 L-306120 3296 L-305520 3301 L-305153 3306 L-304668 3312 L-304630 3317 L-303856 3317 L-303799 3317 L-303624 3316 L-303431 3316 L-301825 3316 L-301805 3316 L-301650 3316 L-301535 3316 L-300355 3316 L-300200 3317 L-299533 3317 L-297085 3329 L-294570 3342 L-291901 3354 L-284201 3366 L-278534 3366 L-276319 3366 L-276296 3366 L-275322 3369 L-275302 3369 L-274438 3368 L-271698 3368 L-265900 3365 L-265746 3365 L-262960 3365 L-249352 3364 L-248606 3364 L-244195 3364 L-227849 3364 L-227617 3363 L-227080 3363 L-218621 3363 L-209915 3363 L-209703 3363 L-207730 3363 L-204944 3363 L-200456 3363 L-200302 3363 L-200132 3363 L-199992 3363 L-199701 3362 L-199663 3362 L-199392 3362 L-199220 3362 L-198810 3362 L-197690 3362 L-196509 3361 L-195232 3361 L-192369 3361 L-189448 3361 L-187456 3361 L-185909 3360 L-182871 3360 L-173546 3360 L-173022 3360 L-167299 3360 L-165791 3360 L-164977 3360 L-163293 3360 L-162572 3359 L-162404 3359 L-161359 3359 L-159291 3359 L-157929 3359 L-153486 3359 L-153389 3359 L-153350 3358 L-153331 3358 L-152499 3358 L-152421 3358 L-149849 3358 L-146599 3357 L-146444 3357 L-145496 3357 L-143755 3357 L-143040 3358 L-139499 3359 L-132922 3359 L-131504 3361 L-131483 3360 L-130533 3360 L-127059 3360 L-126305 3360 L-125744 3360 L-124962 3360 L-117458 3359 L-115859 3359 L-114285 3359 L-111100 3359 L-106767 3359 L-98197 3359 L-89451 3359 L-86377 3359 L-83111 3358 L-82564 3358 L-75427 3358 L-69759 3358 L-55695 3358 L-49684 3358 L-44977 3358 L-40974 3358 L-35867 3357 L-26153 3357 L-10582 3357 L-7499 3357 L-7197 3290 L-7177 3207 L-7159 3113 L-7139 3008 L-7119 2960 L-7100 2920 L-7081 2883 L-7054 2846 L-7033 2811 L-7005 2773 L-6970 2732 L-6956 2696 L-6943 2666 L-6925 2641 L-6906 2623 L-6886 2604 L-6868 2585 L-6848 2566 L-6828 2547 L-6807 2527 L-6790 2507 L-6772 2488 L-6751 2470 L-6731 2452 L-6713 2432 L-6694 2411 L-6674 2390 L-6654 2369 L-6636 2349 L-6617 2331 L-6596 2312 L-6571 2294 L-6556 2277 L-6539 2260 L-6520 2242 L-6500 2225 L-6481 2207 L-6462 2188 L-6442 2170 L-6421 2153 L-6404 2137 L-6385 2122 L-6364 2107 L-6344 2094 L-6326 2082 L-6308 2070 L-6287 2059 L-6269 2048 L-6249 2038 L-6230 2028 L-6210 2020 L-6191 2012 L-6171 2004 L-6153 1996 L-6125 1986 L-6104 1976 L-6077 1964 L-6043 1951 L-6028 1941 L-6015 1931 L-5997 1923 L-5978 1916 L-5958 1908 L-5939 1899 L-5920 1890 L-5900 1882 L-5879 1874 L-5862 1866 L-5843 1858 L-5823 1850 L-5803 1841 L-5784 1830 L-5766 1819 L-5746 1807 L-5726 1795 L-5707 1784 L-5688 1771 L-5667 1758 L-5643 1743 L-5628 1729 L-5611 1715 L-5591 1702 L-5572 1688 L-5552 1674 L-5534 1659 L-5514 1645 L-5493 1631 L-5475 1617 L-5456 1604 L-5436 1591 L-5416 1578 L-5398 1566 L-5379 1555 L-5359 1544 L-5340 1535 L-5320 1525 L-5302 1515 L-5282 1505 L-5262 1495 L-5243 1485 L-5224 1475 L-5195 1465 L-5176 1456 L-5148 1447 L-5111 1436 L-5096 1425 L-5083 1415 L-5066 1406 L-5049 1399 L-5029 1392 L-5011 1386 L-4991 1381 L-4971 1376 L-4951 1370 L-4933 1363 L-4915 1357 L-4894 1350 L-4875 1343 L-4856 1335 L-4837 1327 L-4817 1319 L-4798 1310 L-4779 1301 L-4760 1292 L-4739 1284 L-4715 1275 L-4700 1266 L-4683 1257 L-4663 1248 L-4644 1240 L-4624 1231 L-4605 1221 L-4585 1211 L-4565 1202 L-4546 1193 L-4528 1185 L-4508 1177 L-4487 1169 L-4469 1162 L-4450 1154 L-4430 1147 L-4412 1139 L-4392 1132 L-4373 1125 L-4353 1118 L-4334 1111 L-4314 1104 L-4295 1097 L-4267 1090 L-4247 1083 L-4219 1075 L-4183 1064 L-4169 1053 L-4156 1044 L-4138 1035 L-4120 1030 L-4100 1024 L-4082 1017 L-4062 1010 L-4042 1002 L-4021 994 L-4003 985 L-3986 976 L-3965 966 L-3945 956 L-3927 945 L-3908 934 L-3888 923 L-3868 912 L-3850 902 L-3831 894 L-3810 888 L-3785 882 L-3770 877 L-3753 871 L-3734 866 L-3714 860 L-3695 854 L-3676 848 L-3656 843 L-3635 838 L-3618 834 L-3599 829 L-3578 822 L-3558 815 L-3541 807 L-3522 802 L-3502 797 L-3483 794 L-3463 791 L-3444 787 L-3424 783 L-3405 779 L-3386 775 L-3367 771 L-3339 768 L-3319 764 L-3291 760 L-3256 755 L-3242 751 L-3229 747 L-3210 744 L-3192 741 L-3172 738 L-3153 735 L-3134 732 L-3114 729 L-3093 727 L-3076 724 L-3057 721 L-3037 717 L-3017 714 L-2999 710 L-2980 707 L-2960 704 L-2940 702 L-2922 699 L-2903 696 L-2881 693 L-2857 690 L-2842 688 L-2825 685 L-2805 683 L-2786 680 L-2767 677 L-2748 674 L-2728 670 L-2707 667 L-2689 664 L-2670 661 L-2650 659 L-2629 656 L-2612 654 L-2593 651 L-2573 648 L-2554 646 L-2535 643 L-2516 641 L-2496 640 L-2476 638 L-2457 636 L-2438 639 L-2410 642 L-2390 645 L-2362 648 L-2325 645 L-2309 643 L-2297 641 L-2279 639 L-2263 638 L-2243 636 L-2225 635 L-2205 633 L-2185 631 L-2164 630 L-2147 628 L-2129 627 L-2108 625 L-2088 623 L-2070 622 L-2051 620 L-2031 618 L-2011 616 L-1993 615 L-1974 613 L-1953 612 L-1928 610 L-1914 609 L-1896 607 L-1877 605 L-1857 603 L-1838 602 L-1819 600 L-1799 598 L-1778 595 L-1761 593 L-1742 590 L-1721 588 L-1701 586 L-1683 584 L-1665 582 L-1645 580 L-1626 578 L-1606 576 L-1587 573 L-1567 571 L-1548 569 L-1529 568 L-1510 566 L-1482 564 L-1462 562 L-1434 560 L-1399 557 L-1385 555 L-1372 554 L-1353 552 L-1335 550 L-1314 548 L-1296 547 L-1277 545 L-1257 543 L-1236 541 L-1219 539 L-1200 537 L-1180 535 L-1160 533 L-1141 531 L-1123 528 L-1103 525 L-1082 522 L-1064 519 L-1046 517 L-1024 515 L-999 512 L-985 509 L-967 506 L-948 504 L-929 501 L-910 499 L-891 496 L-870 493 L-850 491 L-832 488 L-813 486 L-793 484 L-772 482 L-755 480 L-736 478 L-716 476 L-697 475 L-677 473 L-659 472 L-639 470 L-619 469 L-600 468 L-581 466 L-554 465 L-533 463 L-505 462 L-470 459 L-456 457 L-443 454 L-424 452 L-406 450 L-386 448 L-368 447 L-348 445 L-328 444 L-307 442 L-290 440 L-272 438 L-251 436 L-231 434 L-213 432 L-194 429 L-174 427 L-154 425 L-136 423 L-117 422 L-96 420 L-71 418 L-56 417 L-39 415 L-20 413 L0 411 L18 409 L37 407 L57 404 L78 401 L95 398 L114 396 L135 394 L156 392 L173 390 L192 389 L212 387 L230 386 L250 385 L269 383 L289 382 L308 381 L328 380 L346 378 L374 377 L395 376 L422 375 L457 373 L471 372 L484 371 L503 370 L521 369 L541 368 L560 367 L579 366 L599 365 L620 364 L637 363 L656 362 L676 361 L696 360 L714 359 L733 358 L753 357 L773 356 L792 355 L811 355 L832 354 L856 353 L871 352 L888 351 L908 350 L927 349 L946 348 L965 347 L985 345 L1006 344 L1024 342 L1043 340 L1063 337 L1084 336 L1101 334 L1120 333 L1140 331 L1159 330 L1179 328 L1197 327 L1217 326 L1237 325 L1256 324 L1275 323 L1304 322 L1351 321 L1388 320 L1403 319 L1415 318 L1433 317 L1450 316 L1470 316 L1488 315 L1507 314 L1528 313 L1548 313 L1565 312 L1584 311 L1605 311 L1624 310 L1643 309 L1662 308 L1682 307 L1702 306 L1720 305 L1739 304 L1760 302 L1785 301 L1799 299 L1817 297 L1836 296 L1855 294 L1875 293 L1894 292 L1914 290 L1935 289 L1952 287 L1971 286 L1992 284 L2012 283 L2030 282 L2049 281 L2069 280 L2087 279 L2107 278 L2126 277 L2146 276 L2165 275 L2185 274 L2204 273 L2232 272 L2252 270 L2280 269 L2317 267 L2331 264 L2344 262 L2361 260 L2379 259 L2399 258 L2417 257 L2437 256 L2457 256 L2478 255 L2494 253 L2513 252 L2534 251 L2554 249 L2572 247 L2591 245 L2611 243 L2631 241 L2649 239 L2668 237 L2689 236 L2714 234 L2729 233 L2747 231 L2765 230 L2785 229 L2804 228 L2823 226 L2843 224 L2864 222 L2881 221 L2900 220 L2920 218 L2942 217 L2958 216 L2977 215 L2997 213 L3016 212 L3036 211 L3055 210 L3074 209 L3095 208 L3113 207 L3132 206 L3160 997 L3180 996 L3208 995 L3244 993 L3258 199 L3272 197 L3289 196 L3307 195 L3327 194 L3345 194 L3365 193 L3385 191 L3406 190 L3423 188 L3442 186 L3462 185 L3482 183 L3500 181 L3520 179 L3539 176 L3560 175 L3577 174 L3596 172 L3618 171 L3643 169 L3658 167 L3687 165 L3727 163 L3750 161 L3780 158 L3796 155 L3810 154 L3829 152 L3849 151 L3870 150 L3887 149 L3906 148 L3926 147 L3945 146 L3965 145 L3983 145 L4003 144 L4023 143 L4042 142 L4061 141 L4088 140 L4109 139 L4137 138 L4172 136 L4186 135 L4217 134 L4236 133 L4256 132 L4274 131 L4294 131 L4314 130 L4335 129 L4351 128 L4370 126 L4391 123 L4411 120 L4429 116 L4448 112 L4468 110 L4488 107 L4506 105 L4525 103 L4546 102 L4571 101 L4586 99 L4604 98 L4622 96 L4642 95 L4661 93 L4681 92 L4700 90 L4721 88 L4738 87 L4757 85 L4778 84 L4799 83 L4815 82 L4834 81 L4855 80 L4874 79 L4893 78 L4912 77 L4932 76 L4952 75 L4970 74 L4989 73 L5017 72 L5038 71 L5108 69 L5136 66 L5150 64 L5164 61 L5184 60 L5203 59 L5222 58 L5242 56 L5263 55 L5280 54 L5299 53 L5319 52 L5339 52 L5357 50 L5376 49 L5396 48 L5417 46 L5435 45 L5453 43 L5475 43 L5500 42 L5515 40 L5532 39 L5551 38 L5571 36 L5590 35 L5609 33 L5628 32 L5650 31 L5667 30 L5686 30 L5706 29 L5728 27 L5744 26 L5802 25 L5822 24 L5840 23 L5860 22 L5880 21 L5899 21 L5918 20 L5946 19 L5966 19 L5994 18 L6030 17 L6045 16 L6058 16 L6075 15 L6093 15 L6113 14 L6131 14 L6151 13 L6171 13 L6192 12 L6209 12 L6227 11 L6248 11 L6268 10 L6286 10 L6305 9 L6325 8 L6346 7 L6363 6 L6382 5 L6404 5 L6428 4 L6443 3 L6460 3 L6480 2 L6500 1" />
</svg>
