<svg xmlns="http://www.w3.org/2000/svg" version="1.1" viewBox="0 0 6500 1000">
	<path fill="none" stroke="gold" stroke-width="125" stroke-linecap="round" stroke-linejoin="round" d="M0 3473  L-726089 3473 L-723485 3473 L-721817 3473 L-703488 3473 L-703317 3472 L-696160 3472 L-696126 3472 L-682696 3472 L-679774 3472 L-666433 3472 L-662264 3471 L-661104 3470 L-660485 3469 L-658473 3469 L-654701 3469 L-654101 3468 L-653772 3468 L-653559 3468 L-653017 3467 L-651779 3466 L-650601 3465 L-647736 3464 L-647214 3463 L-642358 3462 L-639421 3462 L-639378 3462 L-639070 3461 L-638818 3461 L-636223 3461 L-631968 3461 L-631950 3461 L-630713 3461 L-628835 3461 L-626882 3460 L-625934 3460 L-625663 3460 L-625353 3460 L-625255 3459 L-624425 3459 L-622394 3460 L-622104 3458 L-619957 3458 L-619802 3457 L-616145 3456 L-615894 3456 L-615796 3456 L-615279 3457 L-613127 3457 L-612199 3458 L-610673 3459 L-609433 3459 L-607887 3459 L-604925 3458 L-603803 3458 L-603494 3458 L-602283 3458 L-599276 3459 L-599256 3459 L-598909 3459 L-598696 3459 L-598570 3457 L-598328 3456 L-598290 3456 L-598270 3456 L-598251 3455 L-598192 3455 L-598134 3455 L-598116 3455 L-597673 3454 L-596433 3454 L-594887 3454 L-591500 3453 L-585773 3453 L-585572 3453 L-583936 3453 L-582214 3453 L-580782 3453 L-580550 3452 L-579834 3452 L-573702 3452 L-573334 3452 L-573180 3451 L-572602 3451 L-572309 3451 L-571342 3451 L-571032 3450 L-570433 3450 L-568827 3450 L-568092 3450 L-567782 3450 L-567014 3450 L-564978 3450 L-564552 3449 L-563740 3449 L-556311 3449 L-555788 3449 L-555615 3448 L-554879 3448 L-553312 3448 L-552906 3448 L-550681 3447 L-549733 3447 L-549308 3447 L-548978 3447 L-547934 3447 L-545826 3447 L-545574 3446 L-544955 3446 L-544142 3446 L-542034 3445 L-541986 3445 L-540058 3445 L-539732 3445 L-539597 3444 L-539094 3444 L-537681 3444 L-537178 3443 L-536656 3443 L-533097 3442 L-532362 3441 L-529937 3441 L-528647 3441 L-528240 3441 L-525088 3441 L-524933 3441 L-524913 3441 L-524546 3441 L-523288 3441 L-522573 3441 L-521683 3441 L-521276 3441 L-520348 3441 L-519239 3441 L-518936 3442 L-512687 3442 L-511740 3443 L-510113 3443 L-509612 3443 L-505936 3443 L-505104 3443 L-501150 3443 L-499739 3443 L-497249 3443 L-496573 3442 L-496534 3442 L-495663 3442 L-492452 3442 L-489589 3442 L-488621 3442 L-487500 3441 L-487481 3441 L-485856 3441 L-485391 3440 L-485299 3440 L-478930 3440 L-477982 3440 L-475525 3440 L-474652 3439 L-473416 3439 L-471415 3439 L-471017 3439 L-469581 3439 L-467555 3438 L-467342 3438 L-466162 3438 L-464653 3438 L-464633 3438 L-462621 3437 L-461751 3437 L-460881 3437 L-460296 3437 L-459758 3436 L-459101 3436 L-457863 3436 L-457302 3436 L-456121 3435 L-454883 3435 L-454845 3435 L-454458 3435 L-453916 3435 L-453142 3435 L-452020 3434 L-449931 3434 L-449598 3434 L-449312 3433 L-448383 3433 L-447900 3433 L-447165 3433 L-443533 3433 L-442406 3433 L-442251 3432 L-441225 3432 L-437510 3432 L-436293 3432 L-434475 3431 L-431689 3431 L-431127 3431 L-427240 3431 L-424763 3431 L-423428 3431 L-422925 3431 L-422442 3430 L-419752 3430 L-415981 3430 L-413523 3430 L-412344 3430 L-411704 3430 L-409345 3430 L-409267 3430 L-408220 3430 L-408126 3429 L-407624 3429 L-407178 3429 L-407120 3429 L-406907 3429 L-403947 3429 L-401240 3429 L-401085 3429 L-397564 3429 L-397041 3428 L-396074 3428 L-395725 3428 L-394681 3427 L-393752 3427 L-393327 3427 L-391818 3427 L-390851 3427 L-390832 3427 L-388936 3415 L-388820 3404 L-388772 3393 L-388748 3381 L-385743 3381 L-383713 3381 L-381952 3381 L-381585 3380 L-381139 3380 L-380772 3380 L-380358 3380 L-378373 3380 L-378160 3380 L-378005 3379 L-376400 3379 L-375278 3379 L-374330 3379 L-373073 3379 L-371428 3379 L-370249 3378 L-363659 3378 L-363612 3378 L-363207 3378 L-362162 3378 L-362026 3378 L-360344 3377 L-360324 3377 L-358987 3377 L-357751 3377 L-357597 3376 L-357223 3376 L-357016 3376 L-356707 3376 L-355933 3376 L-353612 3375 L-352954 3375 L-350826 3375 L-349104 3375 L-348910 3375 L-346357 3374 L-346080 3374 L-345892 3374 L-345060 3374 L-344287 3374 L-343589 3373 L-338589 3373 L-338213 3373 L-333960 3373 L-333473 3388 L-333454 3388 L-333375 3388 L-333299 3388 L-333279 3372 L-332467 3372 L-331713 3372 L-330494 3372 L-329062 3372 L-328966 3371 L-328791 3371 L-328437 3371 L-327127 3371 L-325270 3371 L-323568 3370 L-323065 3370 L-322800 3370 L-322407 3370 L-322272 3370 L-321363 3370 L-320986 3370 L-320058 3370 L-319719 3369 L-319679 3369 L-319641 3369 L-317726 3369 L-317552 3369 L-316023 3369 L-315695 3369 L-315579 3369 L-315172 3368 L-314824 3368 L-313180 3368 L-312629 3368 L-312386 3368 L-311845 3368 L-311013 3367 L-310472 3367 L-308937 3367 L-308845 3367 L-308808 3366 L-308672 3366 L-308285 3366 L-307260 3366 L-305384 3366 L-305287 3366 L-304687 3371 L-304320 3376 L-303835 3381 L-303797 3386 L-303023 3387 L-302966 3387 L-302791 3386 L-302598 3386 L-300993 3386 L-300973 3386 L-300817 3386 L-300702 3386 L-299522 3386 L-299368 3387 L-298701 3387 L-296253 3399 L-293738 3412 L-291068 3425 L-283369 3437 L-277701 3437 L-275486 3437 L-275463 3437 L-274489 3440 L-274469 3440 L-273606 3440 L-270865 3440 L-265067 3436 L-264913 3436 L-262127 3436 L-248519 3436 L-247773 3435 L-243363 3435 L-227016 3435 L-226784 3435 L-226247 3435 L-217788 3434 L-209082 3434 L-208870 3434 L-206897 3434 L-204111 3434 L-199624 3434 L-199469 3434 L-199300 3434 L-199159 3434 L-198869 3433 L-198830 3433 L-198559 3433 L-198387 3433 L-197977 3433 L-196857 3433 L-195676 3433 L-194400 3432 L-191536 3432 L-188616 3432 L-186624 3432 L-185076 3432 L-182038 3431 L-172713 3431 L-172189 3431 L-166466 3431 L-164959 3431 L-164144 3431 L-162460 3431 L-161739 3431 L-161571 3430 L-160526 3430 L-158459 3430 L-157097 3430 L-152653 3430 L-152556 3430 L-152517 3429 L-152498 3429 L-151666 3429 L-151588 3429 L-149016 3429 L-145766 3429 L-145612 3428 L-144663 3428 L-142922 3428 L-142207 3429 L-138666 3430 L-132089 3431 L-130671 3432 L-130651 3432 L-129700 3431 L-126226 3431 L-125473 3431 L-124911 3431 L-124129 3431 L-116625 3431 L-115026 3430 L-113452 3430 L-110267 3430 L-105934 3430 L-97364 3430 L-88618 3430 L-85544 3430 L-82278 3429 L-81732 3429 L-74594 3429 L-68927 3429 L-54862 3429 L-48851 3429 L-44145 3429 L-40141 3429 L-35034 3429 L-25320 3428 L-9749 3428 L-6666 3428 L-6364 3359 L-6345 3273 L-6326 3177 L-6306 3069 L-6286 3019 L-6267 2978 L-6248 2940 L-6221 2902 L-6200 2865 L-6172 2826 L-6137 2784 L-6123 2748 L-6110 2716 L-6092 2691 L-6073 2672 L-6053 2652 L-6035 2633 L-6015 2613 L-5996 2593 L-5974 2573 L-5958 2553 L-5939 2533 L-5918 2515 L-5898 2495 L-5880 2475 L-5861 2454 L-5842 2432 L-5821 2411 L-5803 2390 L-5784 2371 L-5763 2352 L-5738 2333 L-5723 2315 L-5706 2298 L-5687 2280 L-5667 2262 L-5648 2243 L-5629 2224 L-5609 2206 L-5589 2188 L-5571 2171 L-5552 2156 L-5531 2141 L-5511 2127 L-5494 2115 L-5475 2103 L-5455 2091 L-5436 2080 L-5416 2069 L-5397 2059 L-5377 2051 L-5358 2043 L-5339 2034 L-5320 2026 L-5293 2016 L-5272 2005 L-5244 1993 L-5210 1980 L-5196 1969 L-5182 1959 L-5164 1951 L-5145 1943 L-5125 1935 L-5107 1926 L-5087 1917 L-5067 1908 L-5047 1900 L-5029 1892 L-5010 1884 L-4990 1876 L-4970 1866 L-4952 1855 L-4933 1843 L-4913 1832 L-4893 1819 L-4874 1807 L-4856 1795 L-4834 1781 L-4810 1766 L-4795 1751 L-4778 1737 L-4758 1723 L-4739 1709 L-4720 1694 L-4701 1679 L-4681 1664 L-4660 1650 L-4642 1636 L-4623 1622 L-4603 1609 L-4583 1596 L-4565 1583 L-4546 1572 L-4526 1561 L-4507 1551 L-4488 1540 L-4469 1530 L-4449 1520 L-4430 1510 L-4410 1500 L-4391 1490 L-4363 1479 L-4343 1470 L-4315 1460 L-4278 1449 L-4263 1438 L-4250 1427 L-4233 1418 L-4216 1411 L-4196 1404 L-4178 1398 L-4159 1392 L-4139 1387 L-4118 1381 L-4101 1374 L-4082 1368 L-4061 1360 L-4042 1353 L-4023 1345 L-4004 1337 L-3984 1328 L-3965 1319 L-3946 1310 L-3927 1301 L-3906 1292 L-3882 1283 L-3867 1274 L-3850 1265 L-3830 1256 L-3811 1247 L-3791 1238 L-3772 1228 L-3752 1218 L-3732 1208 L-3714 1199 L-3695 1191 L-3675 1182 L-3654 1174 L-3637 1167 L-3617 1159 L-3598 1151 L-3579 1144 L-3559 1136 L-3540 1129 L-3520 1121 L-3501 1114 L-3482 1107 L-3463 1100 L-3435 1093 L-3414 1086 L-3386 1077 L-3350 1066 L-3336 1055 L-3323 1045 L-3305 1036 L-3287 1031 L-3268 1025 L-3249 1018 L-3229 1010 L-3210 1002 L-3188 994 L-3170 985 L-3153 976 L-3133 965 L-3112 955 L-3094 944 L-3075 932 L-3055 920 L-3035 910 L-3017 899 L-2998 891 L-2977 884 L-2952 878 L-2938 873 L-2920 868 L-2901 862 L-2881 856 L-2862 849 L-2843 844 L-2823 838 L-2803 833 L-2785 829 L-2766 824 L-2746 817 L-2725 809 L-2708 802 L-2689 796 L-2669 791 L-2650 788 L-2631 784 L-2612 781 L-2592 777 L-2572 773 L-2553 768 L-2534 765 L-2507 761 L-2486 757 L-2458 753 L-2423 747 L-2410 743 L-2396 739 L-2378 736 L-2359 733 L-2339 730 L-2321 727 L-2301 724 L-2281 721 L-2260 718 L-2243 715 L-2225 712 L-2204 709 L-2184 705 L-2166 702 L-2147 698 L-2127 696 L-2107 693 L-2089 690 L-2070 687 L-2049 684 L-2024 681 L-2009 678 L-1992 676 L-1973 673 L-1953 670 L-1934 667 L-1915 664 L-1895 660 L-1874 657 L-1857 654 L-1838 651 L-1817 648 L-1797 646 L-1779 643 L-1760 640 L-1740 638 L-1722 635 L-1702 633 L-1683 631 L-1663 629 L-1644 627 L-1624 625 L-1606 628 L-1577 631 L-1557 635 L-1529 637 L-1492 635 L-1477 632 L-1464 630 L-1446 629 L-1430 627 L-1410 625 L-1392 624 L-1372 622 L-1353 620 L-1331 619 L-1315 617 L-1296 616 L-1275 614 L-1255 612 L-1237 610 L-1218 608 L-1199 607 L-1178 605 L-1160 603 L-1141 601 L-1120 600 L-1095 599 L-1081 597 L-1063 595 L-1044 593 L-1025 591 L-1005 590 L-986 588 L-966 586 L-946 583 L-928 580 L-909 578 L-889 576 L-868 574 L-851 572 L-832 569 L-812 567 L-793 565 L-773 563 L-754 561 L-735 558 L-715 556 L-696 555 L-677 553 L-649 551 L-629 549 L-601 547 L-566 544 L-552 542 L-539 540 L-520 538 L-502 536 L-482 535 L-463 533 L-444 531 L-424 529 L-403 527 L-386 525 L-367 524 L-347 521 L-327 519 L-309 516 L-290 514 L-270 511 L-250 508 L-232 505 L-213 503 L-191 500 L-166 497 L-152 494 L-135 491 L-115 489 L-96 486 L-77 483 L-58 481 L-38 478 L-17 475 L0 473 L19 471 L39 468 L60 466 L77 464 L96 462 L116 461 L135 459 L154 457 L173 456 L193 454 L213 453 L232 451 L251 450 L278 449 L299 447 L327 446 L362 443 L376 440 L389 438 L408 435 L426 433 L446 432 L464 430 L484 428 L503 427 L524 425 L541 423 L560 421 L581 419 L601 417 L619 414 L638 412 L658 410 L678 408 L696 406 L715 404 L736 403 L761 401 L776 399 L793 397 L812 395 L832 394 L851 391 L870 389 L890 386 L911 383 L928 380 L947 378 L968 375 L988 373 L1005 372 L1024 370 L1044 369 L1063 368 L1083 366 L1102 365 L1122 363 L1141 362 L1161 361 L1179 360 L1206 358 L1227 357 L1255 356 L1289 355 L1304 353 L1317 352 L1335 351 L1354 350 L1374 349 L1392 348 L1412 347 L1432 346 L1452 345 L1470 344 L1489 343 L1509 342 L1529 341 L1547 339 L1566 338 L1586 337 L1606 337 L1625 336 L1643 335 L1665 335 L1689 333 L1704 332 L1721 331 L1741 330 L1760 329 L1779 328 L1798 327 L1818 326 L1839 324 L1857 322 L1876 320 L1896 317 L1916 315 L1934 314 L1953 313 L1973 311 L1992 310 L2012 308 L2030 307 L2050 306 L2069 304 L2089 303 L2108 302 L2136 302 L2184 301 L2221 299 L2236 298 L2248 297 L2265 296 L2283 296 L2302 295 L2321 294 L2340 294 L2361 293 L2381 292 L2398 291 L2417 291 L2437 290 L2457 289 L2476 288 L2495 287 L2515 286 L2534 285 L2553 284 L2572 283 L2593 281 L2618 280 L2632 278 L2649 276 L2669 275 L2688 273 L2708 272 L2727 270 L2747 269 L2767 267 L2785 266 L2804 264 L2825 263 L2845 262 L2862 261 L2881 260 L2902 259 L2920 258 L2940 257 L2959 255 L2979 254 L2998 253 L3018 252 L3036 251 L3065 250 L3085 248 L3113 247 L3149 244 L3164 242 L3177 240 L3194 238 L3212 237 L3232 236 L3250 235 L3270 234 L3289 233 L3311 232 L3327 231 L3346 230 L3367 228 L3387 226 L3405 225 L3424 222 L3444 220 L3464 218 L3482 216 L3501 214 L3522 213 L3547 211 L3562 210 L3580 208 L3598 207 L3618 206 L3637 204 L3656 202 L3676 201 L3697 199 L3714 197 L3733 196 L3753 195 L3775 193 L3791 192 L3810 191 L3830 190 L3849 189 L3869 187 L3887 186 L3907 185 L3927 184 L3946 183 L3965 182 L3993 997 L4013 996 L4041 994 L4077 992 L4091 175 L4104 173 L4122 172 L4140 171 L4160 170 L4178 169 L4198 168 L4218 167 L4239 165 L4256 164 L4274 162 L4295 160 L4315 158 L4333 156 L4352 154 L4372 152 L4393 150 L4410 149 L4429 148 L4451 146 L4476 144 L4491 142 L4520 140 L4560 138 L4583 135 L4612 132 L4629 130 L4642 128 L4662 127 L4682 126 L4703 124 L4720 123 L4739 122 L4759 121 L4778 120 L4797 120 L4816 119 L4836 118 L4856 117 L4875 116 L4893 115 L4921 114 L4942 113 L4970 112 L5005 110 L5018 109 L5050 108 L5069 107 L5089 106 L5107 105 L5127 104 L5146 104 L5167 103 L5184 102 L5203 100 L5224 97 L5244 93 L5262 89 L5281 86 L5301 83 L5321 80 L5339 78 L5358 76 L5379 75 L5404 73 L5419 72 L5436 71 L5455 69 L5475 67 L5494 66 L5513 64 L5533 63 L5554 61 L5571 59 L5590 58 L5611 57 L5632 55 L5648 54 L5667 53 L5687 52 L5707 51 L5726 50 L5745 49 L5765 48 L5784 47 L5803 46 L5822 45 L5850 44 L5870 43 L5940 41 L5968 38 L5983 36 L5997 33 L6017 32 L6035 31 L6055 29 L6075 28 L6096 26 L6113 25 L6132 24 L6152 24 L6172 23 L6190 22 L6209 20 L6229 19 L6250 17 L6267 16 L6286 15 L6308 14 L6333 13 L6348 12 L6365 10 L6384 9 L6404 7 L6423 6 L6442 4 L6461 3 L6483 2 L6500 1" />
</svg>
