<svg xmlns="http://www.w3.org/2000/svg" version="1.1" viewBox="0 0 6500 1000">
	<path fill="none" stroke="gold" stroke-width="125" stroke-linecap="round" stroke-linejoin="round" d="M0 1967  L-720944 1967 L-718340 1967 L-716672 1966 L-698342 1966 L-698172 1966 L-691014 1966 L-690981 1966 L-677550 1966 L-674628 1966 L-661288 1966 L-657119 1965 L-655958 1965 L-655339 1964 L-653327 1964 L-649556 1964 L-648956 1964 L-648627 1963 L-648414 1963 L-647872 1963 L-646634 1962 L-645455 1961 L-642591 1961 L-642069 1960 L-637213 1960 L-634276 1960 L-634233 1959 L-633925 1959 L-633673 1959 L-631078 1959 L-626822 1959 L-626804 1959 L-625568 1959 L-623690 1959 L-621737 1959 L-620789 1958 L-620518 1958 L-620208 1958 L-620110 1958 L-619280 1958 L-617249 1958 L-616958 1957 L-614812 1957 L-614656 1956 L-611000 1956 L-610749 1956 L-610651 1956 L-610133 1956 L-607982 1957 L-607053 1957 L-605527 1958 L-604288 1958 L-602741 1957 L-599780 1957 L-598658 1957 L-598349 1957 L-597137 1957 L-594131 1958 L-594111 1958 L-593764 1958 L-593551 1958 L-593424 1956 L-593183 1956 L-593145 1956 L-593125 1956 L-593106 1955 L-593047 1955 L-592988 1955 L-592970 1955 L-592527 1955 L-591288 1954 L-589742 1954 L-586354 1954 L-580628 1954 L-580427 1954 L-578791 1954 L-577069 1954 L-575637 1954 L-575404 1954 L-574689 1953 L-568557 1953 L-568189 1953 L-568035 1953 L-567456 1953 L-567164 1953 L-566196 1952 L-565887 1952 L-565288 1952 L-563682 1952 L-562946 1952 L-562637 1952 L-561868 1952 L-559832 1952 L-559407 1952 L-558594 1952 L-551166 1951 L-550643 1951 L-550469 1951 L-549734 1951 L-548167 1951 L-547761 1951 L-545536 1950 L-544588 1950 L-544163 1950 L-543833 1950 L-542789 1950 L-540681 1950 L-540429 1950 L-539810 1949 L-538997 1949 L-536889 1949 L-536841 1949 L-534912 1949 L-534587 1949 L-534452 1948 L-533948 1948 L-532536 1948 L-532033 1948 L-531511 1947 L-527951 1947 L-527216 1947 L-524791 1947 L-523502 1946 L-523095 1946 L-519943 1946 L-519788 1946 L-519768 1946 L-519401 1946 L-518143 1947 L-517428 1947 L-516538 1947 L-516131 1947 L-515202 1947 L-514094 1947 L-513790 1947 L-507542 1947 L-506594 1947 L-504968 1948 L-504466 1948 L-500791 1948 L-499958 1948 L-496005 1948 L-494593 1948 L-492104 1947 L-491428 1947 L-491389 1947 L-490518 1947 L-487307 1947 L-484444 1947 L-483476 1947 L-482354 1947 L-482335 1946 L-480710 1946 L-480246 1946 L-480154 1946 L-473785 1946 L-472836 1946 L-470379 1946 L-469507 1945 L-468271 1945 L-466270 1945 L-465872 1945 L-464436 1945 L-462410 1945 L-462196 1945 L-461016 1944 L-459508 1944 L-459488 1944 L-457476 1944 L-456606 1944 L-455735 1944 L-455150 1944 L-454613 1943 L-453955 1943 L-452717 1943 L-452157 1943 L-450976 1943 L-449738 1943 L-449700 1943 L-449313 1943 L-448771 1942 L-447997 1942 L-446875 1942 L-444786 1942 L-444452 1942 L-444167 1942 L-443238 1942 L-442755 1941 L-442019 1941 L-438388 1941 L-437261 1941 L-437106 1941 L-436080 1941 L-432365 1941 L-431148 1940 L-429329 1940 L-426544 1940 L-425982 1940 L-422094 1940 L-419618 1940 L-418283 1940 L-417779 1940 L-417296 1940 L-414607 1940 L-410835 1940 L-408378 1940 L-407198 1940 L-406559 1940 L-404200 1939 L-404122 1939 L-403075 1939 L-402981 1939 L-402478 1939 L-402033 1939 L-401975 1939 L-401762 1939 L-398802 1939 L-396094 1939 L-395939 1939 L-392419 1939 L-391896 1938 L-390928 1938 L-390579 1938 L-389536 1938 L-388607 1938 L-388182 1938 L-386672 1938 L-385706 1937 L-385687 1937 L-383791 1930 L-383675 1923 L-383627 1916 L-383602 1909 L-380598 1909 L-378567 1908 L-376807 1908 L-376440 1908 L-375994 1908 L-375627 1908 L-375213 1908 L-373228 1908 L-373015 1908 L-372860 1908 L-371255 1908 L-370133 1907 L-369185 1907 L-367927 1907 L-366283 1907 L-365103 1907 L-358514 1907 L-358467 1907 L-358061 1907 L-357016 1907 L-356881 1906 L-355198 1906 L-355178 1906 L-353842 1906 L-352605 1906 L-352451 1906 L-352077 1906 L-351871 1905 L-351562 1905 L-350788 1905 L-348466 1905 L-347809 1905 L-345681 1905 L-343958 1905 L-343765 1905 L-341211 1904 L-340935 1904 L-340747 1904 L-339914 1904 L-339142 1904 L-338444 1904 L-333443 1904 L-333067 1904 L-328815 1904 L-328327 1913 L-328308 1913 L-328229 1913 L-328154 1913 L-328134 1903 L-327321 1903 L-326568 1903 L-325348 1903 L-323917 1903 L-323820 1903 L-323646 1903 L-323291 1902 L-321982 1902 L-320125 1902 L-318423 1902 L-317920 1902 L-317654 1902 L-317261 1902 L-317127 1902 L-316217 1901 L-315841 1901 L-314912 1901 L-314573 1901 L-314534 1901 L-314496 1901 L-312580 1901 L-312407 1901 L-310878 1901 L-310550 1901 L-310434 1901 L-310027 1901 L-309678 1901 L-308035 1900 L-307484 1900 L-307241 1900 L-306699 1900 L-305868 1900 L-305326 1900 L-303792 1900 L-303700 1900 L-303663 1899 L-303527 1899 L-303140 1899 L-302115 1899 L-300238 1899 L-300142 1899 L-299542 1902 L-299175 1905 L-298690 1909 L-298652 1912 L-297878 1912 L-297821 1912 L-297646 1912 L-297453 1912 L-295847 1912 L-295827 1912 L-295672 1912 L-295557 1912 L-294377 1912 L-294222 1912 L-293555 1912 L-291107 1920 L-288592 1928 L-285923 1936 L-278223 1944 L-272556 1944 L-270341 1944 L-270318 1944 L-269344 1946 L-269324 1946 L-268460 1946 L-265720 1945 L-259921 1943 L-259768 1943 L-256982 1943 L-243374 1943 L-242628 1943 L-238217 1943 L-221871 1943 L-221639 1942 L-221102 1942 L-212642 1942 L-203937 1942 L-203724 1942 L-201752 1942 L-198966 1942 L-194478 1942 L-194323 1942 L-194154 1942 L-194014 1942 L-193723 1942 L-193685 1942 L-193414 1941 L-193242 1941 L-192832 1941 L-191711 1941 L-190531 1941 L-189254 1941 L-186390 1941 L-183470 1941 L-181478 1941 L-179931 1940 L-176893 1940 L-167568 1940 L-167044 1940 L-161320 1940 L-159813 1940 L-158999 1940 L-157315 1940 L-156594 1940 L-156426 1940 L-155381 1940 L-153313 1939 L-151951 1939 L-147508 1939 L-147411 1939 L-147372 1939 L-147353 1939 L-146521 1939 L-146443 1939 L-143870 1939 L-140621 1939 L-140466 1938 L-139518 1938 L-137777 1938 L-137062 1939 L-133521 1939 L-126943 1940 L-125526 1941 L-125505 1940 L-124555 1940 L-121080 1940 L-120327 1940 L-119766 1940 L-118984 1940 L-111479 1940 L-109881 1940 L-108307 1940 L-105122 1939 L-100789 1939 L-92219 1939 L-83473 1939 L-80399 1939 L-77133 1939 L-76586 1939 L-69449 1939 L-63781 1939 L-49717 1939 L-43706 1939 L-38999 1939 L-34996 1939 L-29889 1939 L-20175 1938 L-4604 1938 L-1521 1938 L-1219 1895 L-1199 1841 L-1181 1780 L-1161 1712 L-1141 1681 L-1122 1655 L-1103 1631 L-1076 1607 L-1055 1584 L-1027 1560 L-992 1533 L-978 1510 L-965 1490 L-946 1474 L-928 1462 L-908 1450 L-890 1437 L-870 1425 L-850 1413 L-829 1400 L-812 1387 L-794 1375 L-773 1363 L-753 1351 L-735 1338 L-716 1325 L-696 1311 L-676 1298 L-658 1285 L-639 1273 L-618 1261 L-593 1249 L-578 1238 L-561 1227 L-541 1215 L-522 1204 L-503 1192 L-484 1180 L-464 1169 L-443 1158 L-426 1147 L-407 1137 L-386 1128 L-366 1119 L-348 1111 L-329 1104 L-309 1096 L-291 1089 L-271 1083 L-252 1076 L-232 1071 L-212 1066 L-193 1061 L-175 1056 L-147 1049 L-126 1042 L-99 1035 L-65 1027 L-50 1020 L-37 1014 L-19 1008 L0 1004 L19 999 L38 993 L57 987 L77 982 L98 976 L115 971 L134 966 L154 961 L174 955 L193 948 L211 941 L231 933 L251 925 L270 918 L289 910 L310 901 L334 892 L349 882 L366 873 L386 865 L405 856 L425 847 L443 837 L464 828 L484 819 L502 810 L521 801 L541 793 L562 785 L579 777 L598 770 L618 763 L637 756 L657 750 L676 743 L695 737 L715 731 L734 724 L753 718 L782 711 L802 706 L829 700 L866 692 L882 685 L894 679 L911 673 L928 668 L948 664 L966 660 L986 657 L1006 653 L1026 649 L1044 645 L1062 641 L1083 637 L1103 632 L1121 627 L1140 622 L1160 617 L1180 611 L1198 605 L1217 599 L1238 594 L1263 588 L1277 582 L1295 577 L1315 571 L1333 565 L1353 559 L1372 553 L1392 547 L1412 541 L1431 535 L1449 530 L1470 524 L1490 519 L1508 515 L1527 510 L1547 505 L1565 500 L1585 495 L1604 491 L1624 486 L1643 482 L1663 477 L1682 473 L1710 468 L1730 464 L1758 458 L1794 451 L1808 444 L1821 438 L1839 433 L1857 429 L1877 425 L1895 421 L1915 416 L1935 411 L1956 406 L1974 400 L1991 394 L2012 388 L2032 381 L2050 374 L2069 367 L2089 360 L2109 353 L2127 346 L2146 341 L2167 337 L2192 333 L2207 330 L2224 326 L2243 323 L2263 319 L2282 315 L2301 311 L2321 308 L2342 305 L2359 302 L2378 299 L2399 294 L2419 290 L2436 285 L2455 281 L2476 278 L2494 276 L2514 274 L2533 272 L2553 269 L2572 267 L2591 264 L2610 261 L2638 259 L2659 257 L2686 254 L2721 251 L2735 248 L2748 246 L2767 244 L2785 242 L2805 240 L2824 238 L2843 236 L2863 234 L2884 232 L2901 231 L2920 229 L2940 226 L2960 224 L2978 222 L2997 220 L3017 218 L3037 216 L3056 214 L3074 213 L3096 211 L3121 209 L3135 207 L3152 206 L3172 204 L3191 202 L3210 200 L3229 198 L3249 196 L3270 194 L3288 192 L3307 190 L3327 188 L3348 187 L3365 185 L3384 183 L3404 182 L3423 180 L3443 178 L3461 177 L3481 176 L3501 175 L3520 174 L3539 176 L3567 178 L3587 180 L3615 181 L3652 180 L3668 178 L3680 177 L3698 176 L3714 175 L3734 174 L3752 173 L3772 172 L3792 171 L3813 170 L3830 169 L3848 168 L3869 167 L3889 166 L3907 164 L3926 163 L3946 162 L3966 161 L3984 160 L4003 159 L4024 158 L4049 157 L4064 156 L4081 155 L4100 154 L4120 152 L4139 151 L4158 150 L4178 149 L4199 147 L4216 146 L4235 144 L4256 143 L4276 141 L4294 140 L4313 139 L4333 137 L4351 136 L4371 135 L4390 133 L4410 132 L4429 130 L4449 129 L4467 128 L4495 127 L4516 126 L4543 124 L4578 123 L4592 121 L4605 120 L4624 119 L4643 118 L4663 117 L4681 116 L4700 115 L4720 113 L4741 112 L4758 111 L4777 110 L4797 108 L4817 107 L4836 105 L4854 104 L4874 102 L4895 100 L4913 98 L4931 97 L4953 95 L4978 93 L4993 91 L5010 90 L5029 88 L5049 86 L5068 85 L5087 83 L5107 81 L5127 80 L5145 78 L5164 76 L5184 75 L5205 74 L5222 72 L5241 71 L5261 70 L5280 69 L5300 68 L5318 67 L5338 66 L5358 65 L5377 64 L5396 64 L5424 63 L5444 62 L5472 61 L5508 59 L5521 57 L5534 56 L5553 54 L5571 53 L5591 52 L5609 51 L5629 50 L5649 49 L5670 48 L5687 47 L5705 45 L5726 44 L5746 43 L5764 41 L5783 40 L5803 38 L5823 37 L5841 36 L5860 35 L5882 34 L5906 33 L5921 32 L5938 30 L5958 29 L5977 28 L5996 27 L6015 25 L6035 23 L6056 21 L6073 19 L6093 18 L6113 16 L6134 15 L6151 14 L6170 13 L6190 12 L6209 12 L6228 11 L6247 10 L6267 9 L6287 8 L6306 7 L6324 7 L6352 6 L6373 5 L6400 4 L6435 3 L6449 3 L6462 2 L6481 1 L6500 0" />
</svg>
