<svg xmlns="http://www.w3.org/2000/svg" version="1.1" viewBox="0 0 6500 1000">
	<path fill="none" stroke="gold" stroke-width="125" stroke-linecap="round" stroke-linejoin="round" d="M0 1840  L-720711 1840 L-718107 1840 L-716439 1840 L-698110 1840 L-697940 1840 L-690782 1840 L-690749 1840 L-677318 1839 L-674396 1840 L-661055 1839 L-656886 1839 L-655726 1838 L-655107 1838 L-653095 1838 L-649323 1838 L-648723 1837 L-648394 1837 L-648181 1837 L-647640 1837 L-646402 1836 L-645223 1835 L-642358 1835 L-641836 1834 L-636981 1834 L-634043 1834 L-634000 1833 L-633692 1833 L-633440 1833 L-630845 1833 L-626590 1833 L-626572 1833 L-625335 1833 L-623457 1833 L-621504 1833 L-620556 1832 L-620285 1832 L-619975 1832 L-619877 1832 L-619047 1832 L-617016 1832 L-616726 1831 L-614579 1831 L-614424 1830 L-610768 1830 L-610516 1830 L-610418 1830 L-609901 1830 L-607750 1831 L-606821 1831 L-605295 1832 L-604055 1832 L-602509 1832 L-599547 1831 L-598425 1831 L-598116 1831 L-596905 1831 L-593898 1832 L-593878 1832 L-593531 1832 L-593318 1832 L-593192 1830 L-592950 1830 L-592912 1830 L-592893 1830 L-592873 1830 L-592814 1830 L-592756 1829 L-592738 1829 L-592295 1829 L-591055 1829 L-589510 1829 L-586122 1828 L-580396 1828 L-580194 1828 L-578558 1828 L-576836 1828 L-575404 1828 L-575172 1828 L-574456 1828 L-568324 1828 L-567957 1828 L-567802 1827 L-567224 1827 L-566931 1827 L-565964 1827 L-565654 1827 L-565055 1826 L-563449 1826 L-562714 1826 L-562404 1827 L-561636 1827 L-559600 1826 L-559174 1826 L-558362 1826 L-550933 1826 L-550410 1826 L-550237 1826 L-549502 1825 L-547934 1825 L-547528 1825 L-545303 1825 L-544355 1825 L-543930 1825 L-543600 1825 L-542556 1825 L-540448 1824 L-540196 1824 L-539577 1824 L-538764 1824 L-536656 1824 L-536608 1824 L-534680 1823 L-534354 1823 L-534219 1823 L-533716 1823 L-532303 1823 L-531800 1822 L-531278 1822 L-527719 1822 L-526984 1821 L-524559 1821 L-523270 1821 L-522863 1821 L-519710 1821 L-519555 1821 L-519535 1821 L-519168 1821 L-517910 1821 L-517195 1821 L-516305 1821 L-515898 1821 L-514970 1821 L-513861 1821 L-513558 1822 L-507309 1822 L-506362 1822 L-504736 1822 L-504234 1822 L-500558 1822 L-499726 1823 L-495773 1823 L-494361 1822 L-491871 1822 L-491195 1822 L-491156 1822 L-490285 1822 L-487074 1822 L-484211 1822 L-483243 1822 L-482122 1821 L-482103 1821 L-480478 1821 L-480014 1821 L-479922 1821 L-473552 1821 L-472604 1821 L-470147 1820 L-469275 1820 L-468038 1820 L-466037 1820 L-465640 1820 L-464203 1820 L-462177 1820 L-461964 1819 L-460784 1819 L-459275 1819 L-459255 1819 L-457243 1819 L-456374 1819 L-455503 1819 L-454918 1819 L-454381 1818 L-453723 1818 L-452485 1818 L-451924 1818 L-450743 1818 L-449506 1818 L-449467 1818 L-449080 1818 L-448538 1817 L-447765 1817 L-446642 1817 L-444553 1817 L-444220 1817 L-443934 1817 L-443006 1817 L-442522 1816 L-441787 1816 L-438156 1816 L-437028 1816 L-436873 1816 L-435847 1816 L-432133 1816 L-430915 1816 L-429097 1815 L-426311 1815 L-425750 1815 L-421862 1815 L-419385 1815 L-418050 1815 L-417547 1815 L-417064 1815 L-414374 1815 L-410603 1815 L-408146 1815 L-406966 1815 L-406327 1815 L-403967 1815 L-403890 1815 L-402842 1814 L-402749 1814 L-402246 1814 L-401800 1814 L-401743 1814 L-401529 1814 L-398569 1814 L-395862 1814 L-395707 1814 L-392186 1814 L-391663 1814 L-390696 1813 L-390347 1813 L-389303 1813 L-388375 1813 L-387949 1813 L-386440 1813 L-385473 1813 L-385454 1813 L-383558 1806 L-383442 1799 L-383394 1793 L-383370 1786 L-380366 1786 L-378335 1786 L-376574 1785 L-376207 1785 L-375761 1785 L-375395 1785 L-374981 1785 L-372996 1785 L-372782 1785 L-372628 1785 L-371022 1785 L-369900 1785 L-368952 1785 L-367695 1784 L-366050 1784 L-364871 1784 L-358281 1784 L-358235 1784 L-357829 1784 L-356784 1784 L-356648 1784 L-354966 1783 L-354946 1783 L-353609 1783 L-352373 1783 L-352219 1783 L-351845 1783 L-351639 1783 L-351329 1783 L-350555 1782 L-348234 1782 L-347576 1782 L-345448 1782 L-343726 1782 L-343532 1782 L-340979 1782 L-340703 1782 L-340514 1781 L-339682 1781 L-338909 1781 L-338211 1781 L-333211 1781 L-332835 1781 L-328582 1781 L-328095 1790 L-328076 1790 L-327997 1790 L-327921 1790 L-327902 1780 L-327089 1780 L-326335 1780 L-325116 1780 L-323684 1780 L-323588 1780 L-323413 1780 L-323059 1780 L-321750 1780 L-319892 1780 L-318190 1779 L-317687 1779 L-317422 1779 L-317029 1779 L-316894 1779 L-315985 1779 L-315608 1779 L-314680 1779 L-314341 1779 L-314301 1779 L-314263 1779 L-312348 1779 L-312174 1779 L-310645 1779 L-310317 1779 L-310201 1778 L-309794 1778 L-309446 1778 L-307802 1778 L-307251 1778 L-307008 1778 L-306467 1778 L-305636 1778 L-305094 1777 L-303559 1777 L-303467 1777 L-303430 1777 L-303294 1777 L-302907 1777 L-301882 1777 L-300006 1777 L-299909 1777 L-299309 1780 L-298942 1783 L-298457 1786 L-298419 1789 L-297646 1789 L-297588 1789 L-297414 1789 L-297220 1789 L-295615 1789 L-295595 1788 L-295440 1789 L-295324 1789 L-294145 1789 L-293990 1789 L-293323 1789 L-290875 1797 L-288360 1804 L-285690 1812 L-277991 1819 L-272323 1819 L-270109 1819 L-270085 1819 L-269111 1821 L-269091 1821 L-268228 1820 L-265487 1820 L-259689 1818 L-259535 1818 L-256750 1818 L-243141 1818 L-242395 1818 L-237985 1818 L-221638 1818 L-221406 1817 L-220869 1817 L-212410 1817 L-203704 1817 L-203492 1817 L-201519 1817 L-198733 1817 L-194246 1817 L-194091 1817 L-193922 1817 L-193781 1817 L-193491 1817 L-193452 1817 L-193181 1817 L-193010 1816 L-192599 1816 L-191479 1816 L-190299 1816 L-189022 1816 L-186158 1816 L-183238 1816 L-181246 1816 L-179698 1816 L-176660 1816 L-167336 1815 L-166812 1815 L-161088 1815 L-159581 1815 L-158766 1815 L-157083 1815 L-156362 1815 L-156193 1815 L-155148 1815 L-153081 1815 L-151719 1815 L-147275 1815 L-147178 1814 L-147140 1814 L-147121 1814 L-146288 1814 L-146210 1814 L-143638 1814 L-140389 1814 L-140234 1814 L-139285 1814 L-137544 1813 L-136829 1814 L-133288 1814 L-126711 1815 L-125294 1816 L-125273 1816 L-124322 1816 L-120848 1815 L-120095 1815 L-119533 1815 L-118751 1815 L-111247 1815 L-109648 1815 L-108074 1815 L-104889 1815 L-100556 1815 L-91986 1815 L-83240 1815 L-80166 1814 L-76900 1814 L-76354 1814 L-69216 1814 L-63549 1814 L-49484 1814 L-43473 1814 L-38767 1814 L-34763 1814 L-29656 1814 L-19942 1814 L-4371 1814 L-1289 1813 L-986 1772 L-967 1722 L-948 1665 L-928 1601 L-909 1572 L-889 1547 L-871 1525 L-843 1502 L-822 1480 L-794 1458 L-759 1432 L-745 1411 L-732 1392 L-714 1377 L-695 1366 L-675 1354 L-657 1343 L-638 1331 L-618 1320 L-597 1307 L-580 1296 L-561 1284 L-541 1273 L-521 1262 L-502 1250 L-483 1237 L-464 1224 L-443 1212 L-425 1199 L-406 1188 L-385 1177 L-360 1166 L-346 1155 L-328 1145 L-309 1134 L-289 1124 L-270 1113 L-251 1101 L-231 1090 L-211 1080 L-193 1070 L-174 1061 L-153 1052 L-133 1044 L-116 1036 L-97 1029 L-77 1022 L-58 1016 L-38 1009 L-19 1004 L0 999 L19 994 L38 989 L57 984 L84 978 L105 972 L133 965 L167 957 L181 950 L194 945 L213 939 L232 935 L252 930 L270 925 L290 920 L310 914 L330 909 L348 905 L367 900 L387 895 L407 889 L425 883 L444 876 L464 869 L484 862 L502 855 L521 847 L542 839 L567 830 L581 821 L599 813 L618 805 L638 796 L657 788 L676 779 L696 770 L716 761 L735 753 L753 745 L774 737 L794 729 L812 722 L831 716 L851 709 L870 703 L889 697 L908 691 L928 685 L947 679 L967 673 L986 667 L1014 661 L1034 655 L1062 649 L1099 642 L1114 636 L1127 630 L1144 624 L1161 620 L1181 616 L1199 613 L1218 609 L1238 606 L1259 602 L1276 599 L1295 594 L1315 590 L1335 586 L1354 581 L1372 577 L1392 571 L1412 566 L1431 560 L1450 555 L1471 550 L1495 544 L1510 539 L1527 534 L1547 528 L1566 523 L1586 518 L1605 512 L1625 506 L1645 500 L1663 495 L1682 490 L1702 485 L1722 480 L1740 476 L1759 471 L1779 467 L1798 462 L1818 457 L1837 453 L1857 449 L1876 445 L1895 440 L1914 436 L1942 432 L1962 428 L1990 423 L2027 416 L2041 410 L2054 404 L2071 399 L2089 395 L2109 392 L2128 388 L2148 383 L2167 378 L2188 373 L2207 368 L2224 363 L2244 357 L2265 350 L2283 344 L2301 337 L2321 330 L2342 324 L2360 318 L2378 312 L2400 309 L2425 305 L2439 302 L2457 299 L2476 295 L2495 292 L2514 288 L2533 284 L2553 281 L2574 278 L2592 276 L2611 273 L2631 269 L2652 264 L2669 260 L2688 256 L2708 254 L2727 251 L2746 249 L2765 247 L2785 245 L2805 243 L2824 240 L2843 238 L2870 235 L2891 233 L2919 231 L2954 228 L2967 225 L2981 223 L2999 221 L3018 219 L3038 217 L3056 215 L3076 214 L3096 212 L3117 210 L3134 209 L3152 207 L3173 205 L3193 203 L3211 200 L3230 199 L3250 197 L3270 195 L3288 193 L3307 192 L3328 190 L3353 188 L3368 187 L3385 185 L3404 184 L3424 182 L3443 180 L3462 178 L3482 176 L3503 174 L3520 172 L3539 171 L3560 169 L3580 167 L3598 166 L3617 164 L3637 163 L3655 161 L3675 160 L3694 159 L3714 157 L3733 156 L3752 155 L3771 157 L3800 159 L3820 161 L3848 162 L3885 161 L3900 160 L3913 158 L3930 157 L3947 156 L3966 155 L3985 154 L4005 153 L4024 152 L4046 151 L4062 151 L4081 150 L4101 149 L4122 148 L4140 146 L4158 145 L4178 144 L4198 143 L4217 142 L4236 141 L4257 140 L4282 140 L4296 139 L4313 137 L4333 136 L4352 135 L4372 134 L4391 133 L4410 132 L4431 130 L4449 129 L4468 127 L4488 126 L4509 125 L4526 124 L4545 122 L4565 121 L4584 120 L4604 118 L4622 117 L4642 116 L4662 114 L4681 114 L4700 113 L4727 111 L4748 110 L4776 109 L4811 107 L4824 106 L4838 105 L4857 104 L4875 103 L4895 102 L4913 101 L4933 100 L4953 98 L4974 97 L4991 96 L5009 95 L5030 94 L5050 93 L5068 91 L5087 89 L5107 87 L5127 86 L5145 84 L5164 83 L5185 81 L5210 79 L5225 78 L5242 76 L5261 75 L5281 73 L5300 71 L5319 70 L5339 68 L5360 67 L5377 65 L5396 64 L5417 62 L5438 61 L5455 60 L5474 59 L5494 58 L5513 57 L5532 56 L5551 55 L5571 54 L5591 53 L5610 53 L5628 52 L5656 51 L5677 50 L5705 49 L5740 47 L5754 46 L5767 44 L5786 43 L5804 42 L5823 41 L5842 40 L5862 39 L5881 38 L5902 37 L5919 36 L5938 34 L5959 33 L5979 32 L5997 31 L6016 29 L6035 28 L6056 27 L6074 26 L6093 25 L6114 24 L6139 23 L6154 22 L6171 21 L6190 19 L6210 18 L6229 17 L6248 15 L6268 14 L6289 12 L6306 10 L6325 9 L6346 7 L6366 6 L6383 5 L6402 4 L6422 4 L6441 3 L6461 2 L6480 1 L6500 0" />
</svg>
