<svg xmlns="http://www.w3.org/2000/svg" version="1.1" viewBox="0 0 6500 1000">
	<path fill="none" stroke="gold" stroke-width="125" stroke-linecap="round" stroke-linejoin="round" d="M0 1063  L-713478 1063 L-710874 1063 L-709206 1062 L-690877 1062 L-690707 1062 L-683549 1061 L-683516 1061 L-670085 1061 L-667163 1061 L-653822 1061 L-649653 1060 L-648493 1059 L-647874 1057 L-645862 1057 L-642090 1056 L-641490 1056 L-641162 1056 L-640949 1055 L-640407 1055 L-639169 1053 L-637990 1051 L-635125 1049 L-634603 1048 L-629748 1047 L-626810 1047 L-626768 1046 L-626459 1046 L-626207 1046 L-623612 1045 L-619357 1045 L-619339 1045 L-618102 1045 L-616225 1045 L-614271 1045 L-613323 1044 L-613052 1044 L-612743 1044 L-612645 1043 L-611814 1043 L-609783 1044 L-609493 1042 L-607347 1041 L-607191 1040 L-603535 1038 L-603284 1039 L-603185 1039 L-602668 1039 L-600517 1040 L-599588 1042 L-598062 1043 L-596822 1043 L-595276 1042 L-592314 1042 L-591192 1042 L-590883 1041 L-589672 1041 L-586665 1043 L-586646 1043 L-586298 1043 L-586085 1043 L-585959 1040 L-585717 1039 L-585679 1039 L-585660 1038 L-585640 1038 L-585582 1037 L-585523 1037 L-585505 1037 L-585062 1036 L-583822 1036 L-582277 1035 L-578889 1035 L-573163 1035 L-572961 1034 L-571325 1034 L-569603 1034 L-568171 1034 L-567939 1034 L-567224 1033 L-561091 1033 L-560724 1033 L-560569 1032 L-559991 1032 L-559698 1031 L-558731 1031 L-558421 1031 L-557822 1030 L-556216 1030 L-555481 1030 L-555171 1030 L-554403 1030 L-552367 1030 L-551942 1029 L-551129 1029 L-543700 1029 L-543177 1028 L-543004 1028 L-542269 1027 L-540701 1027 L-540295 1027 L-538070 1026 L-537122 1026 L-536698 1026 L-536367 1026 L-535323 1026 L-533215 1025 L-532963 1025 L-532344 1024 L-531532 1024 L-529424 1024 L-529375 1023 L-527447 1023 L-527121 1023 L-526986 1022 L-526483 1022 L-525070 1021 L-524567 1021 L-524046 1020 L-520486 1019 L-519751 1018 L-517326 1018 L-516037 1018 L-515630 1018 L-512477 1018 L-512322 1018 L-512302 1018 L-511936 1018 L-510677 1018 L-509962 1018 L-509072 1018 L-508665 1018 L-507737 1018 L-506628 1018 L-506325 1019 L-500076 1019 L-499129 1020 L-497503 1020 L-497001 1020 L-493325 1021 L-492493 1021 L-488540 1021 L-487128 1020 L-484639 1020 L-483962 1020 L-483923 1019 L-483053 1019 L-479841 1019 L-476978 1019 L-476010 1019 L-474889 1018 L-474870 1018 L-473245 1017 L-472781 1017 L-472689 1016 L-466320 1016 L-465371 1016 L-462914 1016 L-462042 1015 L-460806 1015 L-458804 1015 L-458407 1015 L-456970 1014 L-454944 1014 L-454731 1013 L-453551 1013 L-452043 1013 L-452022 1013 L-450010 1013 L-449141 1012 L-448270 1012 L-447685 1012 L-447148 1011 L-446490 1011 L-445252 1010 L-444691 1010 L-443510 1010 L-442273 1010 L-442234 1009 L-441847 1009 L-441306 1009 L-440532 1008 L-439410 1008 L-437320 1008 L-436987 1007 L-436701 1007 L-435773 1007 L-435290 1006 L-434554 1006 L-430923 1006 L-429795 1006 L-429640 1005 L-428614 1005 L-424900 1005 L-423682 1004 L-421864 1004 L-419078 1004 L-418517 1003 L-414629 1003 L-412152 1003 L-410817 1003 L-410314 1003 L-409831 1003 L-407142 1003 L-403370 1003 L-400913 1003 L-399733 1003 L-399094 1002 L-396734 1002 L-396657 1002 L-395609 1002 L-395516 1001 L-395013 1001 L-394567 1001 L-394510 1001 L-394296 1001 L-391337 1001 L-388629 1001 L-388474 1000 L-384953 1000 L-384430 1000 L-383463 999 L-383114 999 L-382070 999 L-381142 998 L-380716 998 L-379207 998 L-378240 998 L-378221 997 L-376325 982 L-376209 966 L-376161 950 L-376137 934 L-373133 933 L-371102 933 L-369341 933 L-368974 933 L-368529 932 L-368162 932 L-367748 931 L-365763 931 L-365550 931 L-365395 931 L-363789 931 L-362668 931 L-361719 931 L-360462 930 L-358817 930 L-357638 930 L-351048 929 L-351002 929 L-350596 929 L-349551 929 L-349416 928 L-347733 928 L-347713 928 L-346376 927 L-345140 927 L-344986 927 L-344612 926 L-344406 926 L-344096 926 L-343322 926 L-341001 925 L-340343 925 L-338215 925 L-336493 925 L-336299 924 L-333746 924 L-333470 924 L-333282 923 L-332449 923 L-331677 923 L-330979 923 L-325978 923 L-325602 922 L-321349 922 L-320862 943 L-320843 943 L-320764 943 L-320688 943 L-320669 921 L-319856 921 L-319102 920 L-317883 920 L-316451 920 L-316355 920 L-316180 920 L-315826 919 L-314517 919 L-312659 919 L-310957 919 L-310454 918 L-310189 918 L-309796 918 L-309662 918 L-308752 917 L-308375 917 L-307447 917 L-307108 917 L-307068 917 L-307031 917 L-305115 917 L-304941 917 L-303413 917 L-303084 916 L-302968 916 L-302561 916 L-302213 915 L-300569 915 L-300018 915 L-299775 915 L-299234 914 L-298403 914 L-297861 914 L-296326 913 L-296234 913 L-296197 913 L-296061 913 L-295674 912 L-294649 912 L-292773 912 L-292677 912 L-292076 919 L-291709 926 L-291225 934 L-291187 941 L-290413 941 L-290355 941 L-290181 941 L-289987 941 L-288382 940 L-288362 940 L-288207 940 L-288091 941 L-286912 941 L-286757 941 L-286090 941 L-283642 959 L-281127 977 L-278457 995 L-270758 1012 L-265090 1012 L-262876 1012 L-262852 1012 L-261879 1016 L-261859 1016 L-260995 1016 L-258255 1016 L-252456 1011 L-252303 1011 L-249517 1010 L-235908 1010 L-235163 1010 L-230752 1009 L-214406 1009 L-214174 1009 L-213636 1008 L-205177 1008 L-196471 1008 L-196259 1008 L-194287 1008 L-191500 1008 L-187013 1008 L-186858 1008 L-186689 1008 L-186549 1007 L-186258 1007 L-186219 1007 L-185948 1007 L-185777 1006 L-185367 1006 L-184246 1006 L-183066 1006 L-181789 1005 L-178925 1005 L-176005 1005 L-174013 1005 L-172465 1004 L-169427 1004 L-160103 1004 L-159579 1004 L-153855 1004 L-152348 1004 L-151533 1004 L-149850 1003 L-149129 1003 L-148960 1003 L-147915 1002 L-145848 1002 L-144486 1002 L-140043 1002 L-139945 1002 L-139907 1001 L-139888 1001 L-139055 1001 L-138978 1001 L-136405 1000 L-133156 1000 L-133001 1000 L-132053 1000 L-130312 999 L-129596 1001 L-126055 1002 L-119478 1003 L-118061 1005 L-118040 1004 L-117090 1004 L-113615 1004 L-112862 1004 L-112300 1003 L-111518 1003 L-104014 1003 L-102416 1003 L-100842 1002 L-97656 1002 L-93323 1002 L-84754 1002 L-76007 1002 L-72933 1002 L-69667 1001 L-69121 1001 L-61984 1001 L-56316 1001 L-42251 1001 L-36240 1001 L-31534 1001 L-27531 1000 L-22423 1000 L-12709 1000 L2860 999 L5943 999 L6245 902 L6265 782 L6284 646 L6304 495 L6323 425 L6343 367 L6361 313 L6389 260 L6410 209 L6437 155 L6473 95 L6486 44 L6500 0" />
</svg>
