<svg xmlns="http://www.w3.org/2000/svg" version="1.1" viewBox="0 0 6500 1000">
	<path fill="none" stroke="gold" stroke-width="125" stroke-linecap="round" stroke-linejoin="round" d="M0 1022  L-715326 1022 L-712722 1022 L-711054 1022 L-692724 1022 L-692554 1022 L-685396 1022 L-685363 1022 L-671932 1021 L-669010 1022 L-655670 1021 L-651501 1021 L-650341 1021 L-649721 1020 L-647710 1020 L-643938 1020 L-643338 1020 L-643009 1020 L-642796 1019 L-642254 1019 L-641016 1019 L-639837 1018 L-636973 1017 L-636451 1017 L-631595 1017 L-628658 1016 L-628615 1016 L-628307 1016 L-628055 1016 L-625460 1016 L-621204 1016 L-621186 1016 L-619950 1016 L-618072 1016 L-616119 1016 L-615171 1016 L-614900 1015 L-614590 1015 L-614492 1015 L-613662 1015 L-611631 1015 L-611340 1015 L-609194 1014 L-609039 1014 L-605382 1013 L-605131 1014 L-605033 1014 L-604515 1014 L-602364 1014 L-601435 1015 L-599909 1015 L-598670 1015 L-597123 1015 L-594162 1015 L-593040 1015 L-592731 1014 L-591519 1014 L-588513 1015 L-588493 1015 L-588146 1015 L-587933 1015 L-587806 1014 L-587565 1014 L-587527 1014 L-587507 1013 L-587488 1013 L-587429 1013 L-587370 1013 L-587352 1013 L-586909 1013 L-585670 1012 L-584124 1012 L-580736 1012 L-575010 1012 L-574809 1012 L-573173 1012 L-571451 1012 L-570019 1012 L-569786 1012 L-569071 1012 L-562939 1012 L-562571 1011 L-562417 1011 L-561838 1011 L-561546 1011 L-560578 1011 L-560269 1011 L-559670 1010 L-558064 1010 L-557329 1010 L-557019 1011 L-556250 1011 L-554214 1010 L-553789 1010 L-552976 1010 L-545548 1010 L-545025 1010 L-544851 1010 L-544116 1010 L-542549 1009 L-542143 1009 L-539918 1009 L-538970 1009 L-538545 1009 L-538215 1009 L-537171 1009 L-535063 1009 L-534811 1009 L-534192 1008 L-533379 1008 L-531271 1008 L-531223 1008 L-529294 1008 L-528969 1008 L-528834 1008 L-528331 1008 L-526918 1007 L-526415 1007 L-525893 1007 L-522333 1006 L-521598 1006 L-519174 1006 L-517884 1006 L-517477 1006 L-514325 1006 L-514170 1006 L-514150 1006 L-513783 1006 L-512525 1006 L-511810 1006 L-510920 1006 L-510513 1006 L-509584 1006 L-508476 1006 L-508172 1006 L-501924 1007 L-500976 1007 L-499350 1007 L-498848 1007 L-495173 1007 L-494340 1007 L-490387 1007 L-488975 1007 L-486486 1007 L-485810 1007 L-485771 1007 L-484900 1007 L-481689 1006 L-478826 1006 L-477858 1006 L-476736 1006 L-476717 1006 L-475092 1006 L-474628 1006 L-474536 1006 L-468167 1005 L-467219 1005 L-464761 1005 L-463889 1005 L-462653 1005 L-460652 1005 L-460254 1005 L-458818 1005 L-456792 1005 L-456579 1004 L-455398 1004 L-453890 1004 L-453870 1004 L-451858 1004 L-450988 1004 L-450117 1004 L-449532 1004 L-448995 1004 L-448338 1003 L-447099 1003 L-446539 1003 L-445358 1003 L-444120 1003 L-444082 1003 L-443695 1003 L-443153 1003 L-442379 1003 L-441257 1003 L-439168 1002 L-438835 1002 L-438549 1002 L-437620 1002 L-437137 1002 L-436402 1002 L-432770 1002 L-431643 1002 L-431488 1002 L-430462 1001 L-426747 1001 L-425530 1001 L-423711 1001 L-420926 1001 L-420364 1001 L-416476 1001 L-414000 1001 L-412665 1001 L-412162 1001 L-411678 1001 L-408989 1001 L-405217 1001 L-402760 1001 L-401580 1001 L-400941 1001 L-398582 1000 L-398504 1000 L-397457 1000 L-397363 1000 L-396860 1000 L-396415 1000 L-396357 1000 L-396144 1000 L-393184 1000 L-390476 1000 L-390322 1000 L-386801 1000 L-386278 1000 L-385311 999 L-384961 999 L-383918 999 L-382989 999 L-382564 999 L-381055 999 L-380088 999 L-380069 999 L-378173 993 L-378057 987 L-378009 982 L-377984 976 L-374980 976 L-372950 976 L-371189 976 L-370822 976 L-370376 975 L-370009 975 L-369595 975 L-367610 975 L-367397 975 L-367242 975 L-365637 975 L-364515 975 L-363567 975 L-362310 975 L-360665 975 L-359485 974 L-352896 974 L-352849 974 L-352444 974 L-351398 974 L-351263 974 L-349580 974 L-349561 974 L-348224 974 L-346988 974 L-346833 974 L-346459 973 L-346253 973 L-345944 973 L-345170 973 L-342848 973 L-342191 973 L-340063 973 L-338340 973 L-338147 973 L-335594 973 L-335317 972 L-335129 972 L-334296 972 L-333524 972 L-332826 972 L-327825 972 L-327449 972 L-323197 972 L-322710 979 L-322690 979 L-322611 979 L-322536 979 L-322516 971 L-321703 971 L-320950 971 L-319730 971 L-318299 971 L-318202 971 L-318028 971 L-317673 971 L-316364 971 L-314507 971 L-312805 971 L-312302 970 L-312036 970 L-311643 970 L-311509 970 L-310599 970 L-310223 970 L-309294 970 L-308955 970 L-308916 970 L-308878 970 L-306962 970 L-306789 970 L-305260 970 L-304932 970 L-304816 970 L-304409 970 L-304061 969 L-302417 969 L-301866 969 L-301623 969 L-301081 969 L-300250 969 L-299708 969 L-298174 969 L-298082 969 L-298045 969 L-297909 968 L-297522 968 L-296497 968 L-294620 968 L-294524 968 L-293924 971 L-293557 973 L-293072 976 L-293034 979 L-292260 979 L-292203 979 L-292028 978 L-291835 978 L-290229 978 L-290209 978 L-290054 978 L-289939 978 L-288759 978 L-288604 979 L-287937 979 L-285489 985 L-282974 992 L-280305 998 L-272605 1004 L-266938 1004 L-264723 1004 L-264700 1004 L-263726 1005 L-263706 1005 L-262842 1005 L-260102 1005 L-254304 1004 L-254150 1003 L-251364 1003 L-237756 1003 L-237010 1003 L-232599 1003 L-216253 1003 L-216021 1003 L-215484 1003 L-207024 1003 L-198319 1003 L-198107 1002 L-196134 1002 L-193348 1002 L-188860 1002 L-188705 1002 L-188536 1002 L-188396 1002 L-188105 1002 L-188067 1002 L-187796 1002 L-187624 1002 L-187214 1002 L-186094 1002 L-184913 1002 L-183636 1002 L-180773 1002 L-177852 1001 L-175860 1001 L-174313 1001 L-171275 1001 L-161950 1001 L-161426 1001 L-155702 1001 L-154195 1001 L-153381 1001 L-151697 1001 L-150976 1001 L-150808 1001 L-149763 1001 L-147695 1000 L-146333 1000 L-141890 1000 L-141793 1000 L-141754 1000 L-141735 1000 L-140903 1000 L-140825 1000 L-138252 1000 L-135003 1000 L-134848 1000 L-133900 1000 L-132159 999 L-131444 1000 L-127903 1000 L-121325 1001 L-119908 1001 L-119887 1001 L-118937 1001 L-115463 1001 L-114709 1001 L-114148 1001 L-113366 1001 L-105861 1001 L-104263 1001 L-102689 1001 L-99504 1000 L-95171 1000 L-86601 1000 L-77855 1000 L-74781 1000 L-71515 1000 L-70968 1000 L-63831 1000 L-58163 1000 L-44099 1000 L-38088 1000 L-33381 1000 L-29378 1000 L-24271 1000 L-14557 1000 L1013 999 L4096 999 L4398 965 L4418 922 L4436 873 L4456 819 L4476 794 L4495 773 L4514 754 L4541 735 L4562 717 L4590 697 L4625 676 L4639 658 L4652 642 L4671 629 L4689 620 L4709 610 L4727 600 L4747 590 L4767 580 L4788 570 L4805 560 L4823 550 L4844 541 L4864 531 L4882 521 L4901 510 L4921 499 L4941 489 L4959 478 L4978 468 L4999 459 L5024 450 L5039 441 L5056 432 L5075 423 L5095 414 L5114 405 L5133 395 L5153 386 L5174 377 L5191 368 L5210 361 L5231 353 L5251 346 L5269 340 L5288 334 L5308 328 L5326 322 L5346 317 L5365 312 L5385 308 L5404 304 L5424 300 L5442 295 L5470 290 L5491 285 L5518 279 L5552 272 L5567 267 L5580 262 L5598 258 L5617 254 L5637 250 L5656 245 L5675 241 L5695 236 L5716 232 L5733 228 L5752 224 L5772 220 L5792 215 L5811 210 L5829 204 L5849 198 L5869 192 L5888 186 L5907 179 L5928 172 L5952 165 L5967 157 L5984 150 L6004 143 L6023 136 L6043 129 L6061 121 L6081 114 L6102 106 L6120 99 L6139 92 L6159 86 L6179 79 L6197 73 L6216 68 L6236 62 L6255 57 L6275 52 L6293 46 L6313 41 L6333 36 L6352 31 L6371 26 L6400 21 L6419 16 L6447 11 L6484 5 L6500 0" />
</svg>
