<svg xmlns="http://www.w3.org/2000/svg" version="1.1" viewBox="0 0 6500 1000">
	<path fill="none" stroke="gold" stroke-width="125" stroke-linecap="round" stroke-linejoin="round" d="M0 45549  L-323515 45549 L-320911 45395 L-319243 45240 L-300913 44932 L-300743 44623 L-293585 44314 L-293552 44314 L-280121 44160 L-277199 44314 L-263859 43851 L-259690 43234 L-258529 42462 L-257910 41691 L-255898 41228 L-252127 40919 L-251527 40611 L-251198 40302 L-250985 39993 L-250443 39685 L-249205 38450 L-248026 37216 L-245162 35981 L-244640 34746 L-239784 34438 L-236847 34129 L-236804 33820 L-236496 33512 L-236244 33203 L-233649 32895 L-229393 32895 L-229375 32895 L-228139 32895 L-226261 32895 L-224308 32586 L-223360 32277 L-223089 31969 L-222779 31814 L-222681 31660 L-221851 31660 L-219820 31814 L-219529 30425 L-217383 29808 L-217228 28882 L-213571 27956 L-213320 28419 L-213222 28265 L-212704 28728 L-210553 29500 L-209624 30271 L-208098 31043 L-206859 31043 L-205312 30888 L-202351 30580 L-201229 30271 L-200920 29962 L-199708 29808 L-196702 31506 L-196682 31351 L-196335 31197 L-196122 31043 L-195995 28882 L-195754 28574 L-195716 28265 L-195696 27956 L-195677 27648 L-195618 27339 L-195559 27030 L-195541 26722 L-195098 26413 L-193859 26104 L-192313 25796 L-188925 25487 L-183199 25333 L-182998 25179 L-181362 25024 L-179640 24870 L-178208 24716 L-177975 24561 L-177260 24407 L-171128 24253 L-170760 23944 L-170606 23635 L-170027 23327 L-169735 23018 L-168767 22709 L-168458 22401 L-167859 22092 L-166253 22092 L-165517 22092 L-165208 22246 L-164439 22246 L-162403 21938 L-161978 21629 L-161165 21475 L-153737 21166 L-153214 20858 L-153040 20549 L-152305 20240 L-150738 19932 L-150332 19777 L-148107 19469 L-147159 19314 L-146734 19160 L-146404 19160 L-145360 19006 L-143252 18697 L-143000 18388 L-142381 18080 L-141568 17925 L-139460 17617 L-139412 17308 L-137483 17000 L-137158 16691 L-137023 16382 L-136519 16228 L-135107 15919 L-134604 15302 L-134082 14839 L-130522 14222 L-129787 13604 L-127362 13604 L-126073 13296 L-125666 13141 L-122514 13141 L-122359 13141 L-122339 13296 L-121972 13296 L-120714 13450 L-119999 13604 L-119109 13604 L-118702 13604 L-117773 13604 L-116665 13450 L-116361 14067 L-110113 14376 L-109165 14685 L-107539 14993 L-107037 15148 L-103362 15302 L-102529 15456 L-98576 15611 L-97164 15148 L-94675 14839 L-93999 14530 L-93960 14376 L-93089 14376 L-89878 14222 L-87015 14067 L-86047 13913 L-84925 13604 L-84906 13296 L-83281 12987 L-82817 12524 L-82725 12370 L-76356 12216 L-75407 12061 L-72950 11907 L-72078 11598 L-70842 11444 L-68841 11290 L-68443 10981 L-67007 10672 L-64981 10518 L-64768 10209 L-63587 10055 L-62079 9901 L-62059 9746 L-60047 9592 L-59177 9283 L-58306 9129 L-57721 8820 L-57184 8512 L-56527 8203 L-55288 7895 L-54728 7740 L-53547 7586 L-52309 7432 L-52271 7277 L-51884 7123 L-51342 6814 L-50568 6660 L-49446 6506 L-47357 6197 L-47023 5888 L-46738 5580 L-45809 5425 L-45326 5117 L-44590 4962 L-40959 4808 L-39832 4654 L-39677 4500 L-38651 4191 L-34936 4037 L-33719 3728 L-31900 3419 L-29115 3265 L-28553 2956 L-24665 2956 L-22189 2802 L-20854 2802 L-20350 2648 L-19867 2493 L-17178 2493 L-13406 2493 L-10949 2493 L-9769 2493 L-9130 2339 L-6771 2030 L-6693 1876 L-5646 1722 L-5552 1413 L-5049 1413 L-4604 1413 L-4546 1413 L-4333 1413 L-1373 1104 L1334 950 L1488 796 L5009 641 L5532 333 L6500 24" />
</svg>
