<svg xmlns="http://www.w3.org/2000/svg" version="1.1" viewBox="0 0 6500 1000">
	<path fill="none" stroke="gold" stroke-width="125" stroke-linecap="round" stroke-linejoin="round" d="M0 11379  L-730596 11379 L-727992 11379 L-726324 11378 L-707995 11377 L-707825 11376 L-700667 11375 L-700634 11375 L-687203 11375 L-684281 11375 L-670940 11374 L-666771 11372 L-665611 11369 L-664992 11367 L-662980 11366 L-659208 11365 L-658608 11364 L-658280 11363 L-658066 11362 L-657525 11361 L-656287 11357 L-655108 11353 L-652243 11349 L-651721 11345 L-646866 11345 L-643928 11344 L-643886 11343 L-643577 11342 L-643325 11341 L-640730 11340 L-636475 11340 L-636457 11340 L-635220 11340 L-633343 11340 L-631389 11339 L-630441 11338 L-630170 11337 L-629861 11336 L-629762 11336 L-628932 11336 L-626901 11336 L-626611 11332 L-624464 11330 L-624309 11327 L-620653 11324 L-620402 11326 L-620303 11325 L-619786 11327 L-617635 11329 L-616706 11332 L-615180 11334 L-613940 11334 L-612394 11334 L-609432 11333 L-608310 11332 L-608001 11331 L-606790 11330 L-603783 11335 L-603764 11335 L-603416 11334 L-603203 11334 L-603077 11327 L-602835 11326 L-602797 11325 L-602778 11324 L-602758 11323 L-602699 11322 L-602641 11322 L-602623 11321 L-602180 11320 L-600940 11319 L-599395 11318 L-596007 11317 L-590281 11316 L-590079 11316 L-588443 11315 L-586721 11315 L-585289 11314 L-585057 11314 L-584342 11313 L-578209 11313 L-577842 11312 L-577687 11311 L-577109 11310 L-576816 11309 L-575849 11308 L-575539 11307 L-574940 11306 L-573334 11306 L-572599 11306 L-572289 11307 L-571521 11307 L-569485 11306 L-569059 11305 L-568247 11304 L-560818 11303 L-560295 11302 L-560122 11301 L-559387 11300 L-557819 11300 L-557413 11299 L-555188 11298 L-554240 11298 L-553815 11297 L-553485 11297 L-552441 11297 L-550333 11296 L-550081 11295 L-549462 11294 L-548649 11293 L-546542 11292 L-546493 11291 L-544565 11290 L-544239 11289 L-544104 11288 L-543601 11288 L-542188 11287 L-541685 11285 L-541164 11284 L-537604 11282 L-536869 11280 L-534444 11280 L-533155 11279 L-532748 11278 L-529595 11278 L-529440 11278 L-529420 11279 L-529054 11279 L-527795 11279 L-527080 11280 L-526190 11280 L-525783 11280 L-524855 11280 L-523746 11279 L-523443 11281 L-517194 11282 L-516247 11283 L-514621 11284 L-514119 11285 L-510443 11285 L-509611 11286 L-505658 11286 L-504246 11285 L-501757 11284 L-501080 11283 L-501041 11282 L-500171 11282 L-496959 11282 L-494096 11281 L-493128 11281 L-492007 11280 L-491988 11279 L-490363 11278 L-489899 11277 L-489807 11276 L-483437 11276 L-482489 11275 L-480032 11275 L-479160 11274 L-477924 11273 L-475922 11273 L-475525 11272 L-474088 11271 L-472062 11270 L-471849 11269 L-470669 11269 L-469161 11268 L-469140 11268 L-467128 11267 L-466259 11266 L-465388 11266 L-464803 11265 L-464266 11264 L-463608 11263 L-462370 11262 L-461809 11262 L-460628 11261 L-459391 11261 L-459352 11260 L-458965 11260 L-458424 11259 L-457650 11258 L-456528 11258 L-454438 11257 L-454105 11256 L-453819 11255 L-452891 11254 L-452407 11254 L-451672 11253 L-448041 11253 L-446913 11252 L-446758 11252 L-445732 11251 L-442018 11250 L-440800 11249 L-438982 11248 L-436196 11248 L-435635 11247 L-431747 11247 L-429270 11246 L-427935 11246 L-427432 11246 L-426949 11245 L-424260 11245 L-420488 11245 L-418031 11245 L-416851 11245 L-416212 11245 L-413852 11244 L-413775 11243 L-412727 11243 L-412634 11242 L-412131 11242 L-411685 11242 L-411628 11242 L-411414 11242 L-408454 11241 L-405747 11241 L-405592 11240 L-402071 11240 L-401548 11239 L-400581 11238 L-400232 11237 L-399188 11236 L-398260 11235 L-397834 11235 L-396325 11235 L-395358 11234 L-395339 11234 L-393443 11199 L-393327 11163 L-393279 11128 L-393255 11092 L-390251 11092 L-388220 11091 L-386459 11090 L-386092 11090 L-385647 11089 L-385280 11088 L-384866 11087 L-382881 11087 L-382668 11087 L-382513 11086 L-380907 11086 L-379786 11086 L-378837 11085 L-377580 11084 L-375935 11084 L-374756 11083 L-368166 11083 L-368120 11082 L-367714 11082 L-366669 11081 L-366533 11081 L-364851 11080 L-364831 11079 L-363494 11078 L-362258 11078 L-362104 11077 L-361730 11076 L-361524 11076 L-361214 11075 L-360440 11074 L-358119 11074 L-357461 11073 L-355333 11073 L-353611 11072 L-353417 11071 L-350864 11071 L-350588 11070 L-350399 11069 L-349567 11069 L-348795 11068 L-348096 11068 L-343096 11068 L-342720 11067 L-338467 11066 L-337980 11114 L-337961 11114 L-337882 11113 L-337806 11113 L-337787 11064 L-336974 11063 L-336220 11062 L-335001 11062 L-333569 11062 L-333473 11061 L-333298 11061 L-332944 11060 L-331635 11060 L-329777 11060 L-328075 11059 L-327572 11058 L-327307 11058 L-326914 11057 L-326780 11057 L-325870 11056 L-325493 11056 L-324565 11056 L-324226 11055 L-324186 11055 L-324149 11055 L-322233 11055 L-322059 11054 L-320531 11054 L-320202 11054 L-320086 11053 L-319679 11052 L-319331 11052 L-317687 11051 L-317136 11050 L-316893 11050 L-316352 11049 L-315521 11048 L-314979 11048 L-313444 11047 L-313352 11047 L-313315 11046 L-313179 11046 L-312792 11045 L-311767 11045 L-309891 11044 L-309795 11044 L-309194 11059 L-308827 11075 L-308343 11092 L-308305 11108 L-307531 11109 L-307473 11109 L-307299 11108 L-307105 11107 L-305500 11106 L-305480 11106 L-305325 11107 L-305209 11107 L-304030 11108 L-303875 11109 L-303208 11109 L-300760 11149 L-298245 11189 L-295575 11228 L-287876 11266 L-282208 11266 L-279994 11266 L-279970 11266 L-278996 11276 L-278977 11276 L-278113 11275 L-275373 11274 L-269574 11264 L-269421 11263 L-266635 11263 L-253026 11262 L-252281 11261 L-247870 11260 L-231524 11260 L-231291 11259 L-230754 11258 L-222295 11258 L-213589 11257 L-213377 11257 L-211404 11256 L-208618 11256 L-204131 11257 L-203976 11256 L-203807 11256 L-203667 11256 L-203376 11255 L-203337 11254 L-203066 11254 L-202895 11254 L-202485 11253 L-201364 11253 L-200184 11252 L-198907 11252 L-196043 11251 L-193123 11251 L-191131 11250 L-189583 11249 L-186545 11249 L-177221 11248 L-176697 11248 L-170973 11248 L-169466 11247 L-168651 11247 L-166968 11246 L-166247 11246 L-166078 11245 L-165033 11245 L-162966 11244 L-161604 11244 L-157160 11243 L-157063 11243 L-157025 11242 L-157006 11242 L-156173 11242 L-156095 11241 L-153523 11240 L-150274 11240 L-150119 11239 L-149171 11239 L-147429 11238 L-146714 11241 L-143173 11243 L-136596 11246 L-135179 11250 L-135158 11249 L-134207 11249 L-130733 11248 L-129980 11247 L-129418 11247 L-128636 11246 L-121132 11246 L-119534 11245 L-117960 11245 L-114774 11244 L-110441 11244 L-101872 11243 L-93125 11243 L-90051 11243 L-86785 11242 L-86239 11242 L-79102 11241 L-73434 11241 L-59369 11241 L-53358 11242 L-48652 11241 L-44649 11240 L-39541 11240 L-29827 11239 L-14256 11238 L-11174 11237 L-10872 11022 L-10852 10756 L-10833 10455 L-10813 10118 L-10794 9964 L-10774 9834 L-10756 9715 L-10728 9598 L-10707 9484 L-10679 9363 L-10644 9230 L-10631 9117 L-10617 9020 L-10599 8939 L-10580 8880 L-10560 8820 L-10542 8758 L-10523 8697 L-10503 8636 L-10482 8572 L-10465 8510 L-10446 8449 L-10426 8390 L-10406 8331 L-10387 8267 L-10369 8201 L-10349 8133 L-10329 8067 L-10310 8002 L-10291 7942 L-10270 7884 L-10245 7824 L-10231 7769 L-10214 7714 L-10194 7658 L-10175 7604 L-10155 7545 L-10137 7485 L-10117 7428 L-10096 7373 L-10078 7321 L-10059 7272 L-10039 7225 L-10018 7181 L-10001 7144 L-9982 7106 L-9962 7070 L-9943 7035 L-9923 7002 L-9905 6971 L-9885 6945 L-9865 6919 L-9846 6893 L-9827 6868 L-9800 6836 L-9779 6802 L-9751 6765 L-9717 6724 L-9703 6690 L-9690 6660 L-9671 6633 L-9652 6610 L-9632 6585 L-9614 6557 L-9594 6529 L-9574 6501 L-9554 6475 L-9536 6451 L-9518 6425 L-9497 6399 L-9478 6369 L-9459 6335 L-9440 6299 L-9420 6262 L-9401 6223 L-9382 6185 L-9363 6147 L-9342 6103 L-9317 6056 L-9303 6010 L-9286 5966 L-9266 5923 L-9247 5879 L-9227 5833 L-9208 5786 L-9188 5740 L-9168 5694 L-9150 5651 L-9131 5608 L-9110 5568 L-9090 5526 L-9072 5488 L-9053 5453 L-9033 5417 L-9015 5386 L-8995 5354 L-8976 5322 L-8956 5291 L-8937 5258 L-8917 5226 L-8899 5195 L-8870 5163 L-8850 5135 L-8822 5104 L-8785 5068 L-8770 5034 L-8758 5001 L-8740 4972 L-8723 4950 L-8704 4930 L-8685 4910 L-8666 4893 L-8646 4875 L-8625 4857 L-8608 4837 L-8589 4815 L-8569 4793 L-8549 4770 L-8531 4746 L-8512 4721 L-8492 4693 L-8472 4665 L-8453 4635 L-8434 4608 L-8413 4581 L-8389 4552 L-8374 4524 L-8357 4496 L-8337 4467 L-8318 4439 L-8298 4410 L-8279 4379 L-8259 4348 L-8239 4319 L-8221 4290 L-8202 4264 L-8182 4237 L-8162 4212 L-8144 4189 L-8125 4165 L-8105 4141 L-8086 4117 L-8066 4093 L-8047 4070 L-8028 4048 L-8008 4026 L-7989 4004 L-7970 3981 L-7942 3959 L-7922 3936 L-7894 3910 L-7858 3874 L-7843 3841 L-7830 3810 L-7813 3783 L-7795 3765 L-7775 3747 L-7756 3725 L-7737 3702 L-7717 3677 L-7696 3650 L-7677 3622 L-7660 3593 L-7640 3561 L-7620 3528 L-7602 3494 L-7583 3458 L-7563 3422 L-7542 3388 L-7525 3356 L-7506 3329 L-7484 3309 L-7459 3290 L-7445 3274 L-7427 3257 L-7408 3239 L-7389 3219 L-7370 3200 L-7351 3182 L-7331 3164 L-7310 3150 L-7293 3136 L-7273 3119 L-7253 3098 L-7232 3074 L-7215 3051 L-7196 3033 L-7176 3019 L-7157 3008 L-7138 2997 L-7119 2986 L-7099 2974 L-7079 2961 L-7060 2947 L-7041 2935 L-7014 2923 L-6993 2911 L-6965 2898 L-6930 2882 L-6917 2869 L-6904 2857 L-6885 2847 L-6866 2838 L-6846 2828 L-6828 2818 L-6808 2809 L-6789 2801 L-6768 2792 L-6750 2783 L-6732 2772 L-6711 2761 L-6691 2750 L-6673 2739 L-6654 2729 L-6634 2720 L-6614 2711 L-6596 2702 L-6577 2693 L-6556 2684 L-6531 2675 L-6516 2667 L-6499 2659 L-6480 2650 L-6461 2641 L-6441 2632 L-6422 2621 L-6402 2610 L-6381 2601 L-6364 2591 L-6345 2582 L-6324 2573 L-6304 2565 L-6286 2557 L-6268 2548 L-6248 2540 L-6229 2532 L-6209 2524 L-6190 2518 L-6170 2512 L-6151 2506 L-6132 2500 L-6113 2511 L-6084 2520 L-6064 2530 L-6036 2539 L-5999 2530 L-5984 2523 L-5971 2517 L-5954 2511 L-5938 2507 L-5918 2502 L-5899 2496 L-5880 2490 L-5860 2485 L-5839 2481 L-5822 2476 L-5803 2471 L-5783 2466 L-5763 2460 L-5745 2454 L-5726 2449 L-5706 2443 L-5686 2437 L-5668 2432 L-5649 2427 L-5627 2423 L-5602 2418 L-5588 2413 L-5571 2407 L-5551 2401 L-5532 2395 L-5513 2391 L-5493 2384 L-5474 2378 L-5453 2370 L-5435 2361 L-5416 2354 L-5396 2347 L-5375 2341 L-5358 2334 L-5339 2327 L-5319 2321 L-5300 2315 L-5280 2307 L-5262 2300 L-5242 2292 L-5222 2286 L-5203 2281 L-5184 2276 L-5157 2270 L-5136 2263 L-5108 2256 L-5073 2248 L-5060 2242 L-5046 2236 L-5027 2230 L-5009 2224 L-4989 2219 L-4971 2213 L-4951 2208 L-4931 2201 L-4910 2196 L-4893 2190 L-4875 2184 L-4854 2178 L-4834 2170 L-4816 2162 L-4797 2153 L-4777 2144 L-4757 2134 L-4739 2126 L-4720 2119 L-4699 2110 L-4674 2101 L-4659 2093 L-4642 2084 L-4623 2076 L-4603 2068 L-4584 2059 L-4565 2050 L-4545 2042 L-4524 2034 L-4507 2027 L-4488 2019 L-4467 2011 L-4446 2005 L-4429 1999 L-4410 1993 L-4390 1988 L-4372 1983 L-4352 1977 L-4333 1973 L-4313 1968 L-4293 1964 L-4274 1960 L-4256 1956 L-4228 1951 L-4207 1947 L-4180 1942 L-4144 1933 L-4130 1925 L-4117 1916 L-4099 1908 L-4080 1903 L-4061 1898 L-4042 1893 L-4023 1888 L-4003 1882 L-3982 1877 L-3965 1871 L-3946 1864 L-3926 1858 L-3906 1851 L-3887 1844 L-3869 1837 L-3849 1830 L-3828 1824 L-3810 1817 L-3791 1812 L-3770 1807 L-3745 1802 L-3730 1797 L-3713 1791 L-3694 1785 L-3674 1779 L-3655 1772 L-3636 1764 L-3616 1755 L-3595 1745 L-3578 1737 L-3559 1729 L-3539 1722 L-3518 1716 L-3501 1710 L-3482 1706 L-3462 1702 L-3443 1699 L-3423 1694 L-3405 1689 L-3385 1685 L-3365 1681 L-3346 1677 L-3327 1673 L-3300 1669 L-3279 1665 L-3251 1661 L-3217 1657 L-3203 1653 L-3189 1650 L-3171 1646 L-3152 1643 L-3132 1640 L-3114 1636 L-3094 1633 L-3074 1631 L-3054 1628 L-3037 1625 L-3018 1621 L-2997 1618 L-2977 1614 L-2959 1610 L-2940 1607 L-2920 1604 L-2900 1602 L-2882 1599 L-2863 1597 L-2842 1595 L-2817 1592 L-2803 1588 L-2785 1585 L-2766 1581 L-2746 1578 L-2727 1575 L-2708 1572 L-2688 1568 L-2668 1562 L-2650 1555 L-2631 1549 L-2610 1541 L-2590 1536 L-2572 1531 L-2553 1527 L-2533 1522 L-2515 1518 L-2495 1513 L-2476 1508 L-2456 1505 L-2437 1501 L-2417 1498 L-2399 1495 L-2370 1492 L-2322 1489 L-2285 1485 L-2271 1482 L-2258 1478 L-2241 1475 L-2223 1474 L-2204 1472 L-2185 1470 L-2166 1467 L-2146 1464 L-2125 1462 L-2108 1460 L-2089 1458 L-2069 1456 L-2049 1453 L-2030 1450 L-2012 1448 L-1992 1444 L-1972 1441 L-1953 1438 L-1934 1434 L-1913 1429 L-1889 1424 L-1874 1418 L-1857 1413 L-1837 1408 L-1818 1403 L-1798 1399 L-1780 1395 L-1760 1390 L-1739 1385 L-1721 1380 L-1702 1376 L-1682 1372 L-1662 1368 L-1644 1365 L-1625 1362 L-1605 1358 L-1586 1356 L-1566 1352 L-1547 1348 L-1528 1345 L-1508 1341 L-1489 1338 L-1470 1334 L-1442 1331 L-1422 1327 L-1394 1322 L-1357 1314 L-1342 1307 L-1330 1300 L-1312 1294 L-1295 1290 L-1274 1287 L-1256 1284 L-1237 1281 L-1217 1279 L-1196 1276 L-1179 1272 L-1160 1268 L-1140 1263 L-1119 1258 L-1102 1252 L-1082 1245 L-1063 1238 L-1042 1231 L-1024 1226 L-1006 1220 L-984 1216 L-959 1210 L-944 1206 L-927 1201 L-908 1197 L-888 1193 L-870 1189 L-851 1183 L-831 1177 L-809 1172 L-792 1167 L-773 1163 L-753 1159 L-732 1155 L-715 1151 L-696 1147 L-676 1143 L-657 1140 L-638 1136 L-619 1132 L-599 1129 L-579 1125 L-560 1123 L-541 1119 L-513 3660 L-493 3656 L-465 3652 L-429 3646 L-415 1096 L-402 1092 L-384 1087 L-366 1085 L-346 1083 L-328 1080 L-308 1077 L-289 1073 L-267 1068 L-251 1062 L-232 1057 L-211 1052 L-191 1046 L-173 1039 L-154 1032 L-134 1025 L-113 1020 L-96 1016 L-77 1012 L-56 1008 L-31 1002 L-16 996 L13 989 L53 981 L76 974 L105 965 L121 957 L135 952 L155 947 L175 944 L196 940 L212 936 L231 933 L252 929 L270 927 L290 925 L309 923 L329 920 L349 917 L367 913 L386 911 L414 907 L435 904 L462 900 L498 896 L511 892 L543 888 L561 885 L581 882 L600 880 L619 877 L639 875 L660 873 L677 870 L696 864 L716 854 L737 843 L754 831 L774 820 L793 810 L814 802 L832 795 L851 790 L872 786 L897 781 L912 777 L929 772 L948 766 L968 762 L987 758 L1006 753 L1026 748 L1047 742 L1064 737 L1083 732 L1103 729 L1124 725 L1141 722 L1160 719 L1180 716 L1199 713 L1219 708 L1238 705 L1257 701 L1277 698 L1296 695 L1315 692 L1343 689 L1363 686 L1433 679 L1461 671 L1476 663 L1490 656 L1510 651 L1528 648 L1547 643 L1568 638 L1588 635 L1606 631 L1624 628 L1645 626 L1665 624 L1683 620 L1702 616 L1722 611 L1742 606 L1760 602 L1779 598 L1800 595 L1825 592 L1840 588 L1858 585 L1876 580 L1896 575 L1915 570 L1935 566 L1954 562 L1975 559 L1992 556 L2012 553 L2032 550 L2053 546 L2070 543 L2128 539 L2147 536 L2166 533 L2186 530 L2206 527 L2225 525 L2243 523 L2271 521 L2292 519 L2319 517 L2356 514 L2370 511 L2383 509 L2401 507 L2419 505 L2439 503 L2457 502 L2477 500 L2496 500 L2517 498 L2534 497 L2553 495 L2574 493 L2594 491 L2612 489 L2631 486 L2651 483 L2671 481 L2689 478 L2708 476 L2729 473 L2754 471 L2768 469 L2786 467 L2805 465 L2825 462 L2844 460 L2863 456 L2883 452 L2904 449 L2921 445 L2940 443 L2960 441 L2981 440 L2998 438 L3017 436 L3037 434 L3056 432 L3076 432 L3095 430 L3114 429 L3135 428 L3153 426 L3172 425 L3199 423 L3220 421 L3248 420 L3283 417 L3297 415 L3311 413 L3329 412 L3347 410 L3367 408 L3385 406 L3425 405 L3445 403 L3462 402 L3481 400 L3502 397 L3521 394 L3540 391 L3559 388 L3579 386 L3599 384 L3617 382 L3636 380 L3657 378 L3682 376 L3696 375 L3713 373 L3733 371 L3752 369 L3772 366 L3791 364 L3811 362 L3831 360 L3849 358 L3868 356 L3889 353 L3909 352 L3927 350 L3946 348 L3966 346 L3984 345 L4004 343 L4023 341 L4043 340 L4062 338 L4082 337 L4100 335 L4129 333 L4177 331 L4214 329 L4230 328 L4242 326 L4259 325 L4275 323 L4295 322 L4314 321 L4333 320 L4353 318 L4374 318 L4391 318 L4410 317 L4430 317 L4450 316 L4469 315 L4487 313 L4507 312 L4527 311 L4546 309 L4565 307 L4586 306 L4610 304 L4625 301 L4642 298 L4662 295 L4681 292 L4701 288 L4719 283 L4739 279 L4760 274 L4778 271 L4797 267 L4817 264 L4838 261 L4855 257 L4874 253 L4894 249 L4913 246 L4933 243 L4952 240 L4971 237 L4991 233 L5010 229 L5029 225 L5057 220 L5077 217 L5105 215 L5142 212 L5157 209 L5170 207 L5187 204 L5204 202 L5225 199 L5243 197 L5263 195 L5282 193 L5304 190 L5320 187 L5338 184 L5359 181 L5380 178 L5397 175 L5417 172 L5436 169 L5457 167 L5474 164 L5493 161 L5515 158 L5540 154 L5555 150 L5572 147 L5591 143 L5611 139 L5629 136 L5649 132 L5668 128 L5690 124 L5706 119 L5726 115 L5746 112 L5768 108 L5784 106 L5803 104 L5823 102 L5842 100 L5861 97 L5880 94 L5900 91 L5919 89 L5939 86 L5958 83 L6006 80 L6033 77 L6067 73 L6081 69 L6094 66 L6113 63 L6133 61 L6152 57 L6171 55 L6190 52 L6210 49 L6231 47 L6248 44 L6267 43 L6288 40 L6308 37 L6326 35 L6345 31 L6364 28 L6385 25 L6403 21 L6422 18 L6443 15 L6468 12 L6482 9 L6500 5" />
</svg>
