<svg xmlns="http://www.w3.org/2000/svg" version="1.1" viewBox="0 0 6500 1000">
	<path fill="none" stroke="gold" stroke-width="125" stroke-linecap="round" stroke-linejoin="round" d="M0 1695  L-720460 1695 L-717856 1695 L-716187 1695 L-697858 1695 L-697688 1695 L-690530 1695 L-690497 1695 L-677066 1695 L-674144 1695 L-660803 1694 L-656634 1694 L-655474 1694 L-654855 1693 L-652843 1693 L-649071 1693 L-648471 1693 L-648143 1693 L-647930 1692 L-647388 1692 L-646150 1692 L-644971 1691 L-642107 1690 L-641584 1690 L-636729 1689 L-633792 1689 L-633749 1689 L-633440 1689 L-633188 1689 L-630593 1689 L-626338 1689 L-626320 1689 L-625083 1689 L-623206 1689 L-621252 1688 L-620304 1688 L-620034 1688 L-619724 1688 L-619626 1688 L-618795 1688 L-616764 1688 L-616474 1687 L-614328 1687 L-614172 1686 L-610516 1686 L-610265 1686 L-610166 1686 L-609649 1686 L-607498 1687 L-606569 1687 L-605043 1687 L-603804 1687 L-602257 1687 L-599295 1687 L-598173 1687 L-597864 1687 L-596653 1687 L-593646 1688 L-593627 1688 L-593279 1688 L-593066 1687 L-592940 1686 L-592698 1686 L-592661 1686 L-592641 1686 L-592622 1686 L-592563 1685 L-592504 1685 L-592486 1685 L-592043 1685 L-590804 1685 L-589258 1685 L-585870 1684 L-580144 1684 L-579942 1684 L-578306 1684 L-576584 1684 L-575152 1684 L-574920 1684 L-574205 1684 L-568073 1684 L-567705 1684 L-567550 1683 L-566972 1683 L-566679 1683 L-565712 1683 L-565403 1683 L-564803 1683 L-563197 1683 L-562462 1683 L-562152 1683 L-561384 1683 L-559348 1683 L-558923 1682 L-558110 1682 L-550681 1682 L-550158 1682 L-549985 1682 L-549250 1682 L-547682 1681 L-547277 1681 L-545052 1681 L-544104 1681 L-543679 1681 L-543348 1681 L-542305 1681 L-540196 1681 L-539944 1681 L-539325 1680 L-538513 1680 L-536405 1680 L-536356 1680 L-534428 1680 L-534102 1680 L-533967 1679 L-533464 1679 L-532051 1679 L-531548 1679 L-531027 1679 L-527467 1678 L-526732 1678 L-524307 1678 L-523018 1678 L-522611 1678 L-519458 1678 L-519303 1678 L-519283 1678 L-518917 1678 L-517658 1678 L-516943 1678 L-516053 1678 L-515646 1678 L-514718 1678 L-513609 1678 L-513306 1678 L-507057 1678 L-506110 1679 L-504484 1679 L-503982 1679 L-500306 1679 L-499474 1679 L-495521 1679 L-494109 1679 L-491620 1679 L-490943 1678 L-490905 1678 L-490034 1678 L-486822 1678 L-483959 1678 L-482991 1678 L-481870 1678 L-481851 1678 L-480226 1678 L-479762 1677 L-479670 1677 L-473301 1677 L-472352 1677 L-469895 1677 L-469023 1677 L-467787 1677 L-465785 1677 L-465388 1677 L-463952 1676 L-461925 1676 L-461712 1676 L-460532 1676 L-459024 1676 L-459004 1676 L-456991 1676 L-456122 1676 L-455251 1675 L-454666 1675 L-454129 1675 L-453471 1675 L-452233 1675 L-451672 1675 L-450491 1675 L-449254 1675 L-449215 1674 L-448828 1674 L-448287 1674 L-447513 1674 L-446391 1674 L-444301 1674 L-443968 1674 L-443682 1674 L-442754 1673 L-442271 1673 L-441535 1673 L-437904 1673 L-436776 1673 L-436622 1673 L-435596 1673 L-431881 1673 L-430664 1673 L-428845 1672 L-426059 1672 L-425498 1672 L-421610 1672 L-419133 1672 L-417799 1672 L-417295 1672 L-416812 1672 L-414123 1672 L-410351 1672 L-407894 1672 L-406714 1672 L-406075 1672 L-403715 1672 L-403638 1672 L-402590 1671 L-402497 1671 L-401994 1671 L-401548 1671 L-401491 1671 L-401277 1671 L-398318 1671 L-395610 1671 L-395455 1671 L-391934 1671 L-391411 1671 L-390444 1671 L-390095 1670 L-389051 1670 L-388123 1670 L-387697 1670 L-386188 1670 L-385221 1670 L-385202 1670 L-383306 1664 L-383190 1657 L-383142 1651 L-383118 1645 L-380114 1645 L-378083 1645 L-376322 1645 L-375955 1644 L-375510 1644 L-375143 1644 L-374729 1644 L-372744 1644 L-372531 1644 L-372376 1644 L-370770 1644 L-369649 1644 L-368700 1644 L-367443 1643 L-365799 1643 L-364619 1643 L-358029 1643 L-357983 1643 L-357577 1643 L-356532 1643 L-356397 1643 L-354714 1643 L-354694 1643 L-353357 1642 L-352121 1642 L-351967 1642 L-351593 1642 L-351387 1642 L-351077 1642 L-350303 1642 L-347982 1642 L-347324 1642 L-345196 1641 L-343474 1641 L-343280 1641 L-340727 1641 L-340451 1641 L-340263 1641 L-339430 1641 L-338658 1641 L-337960 1641 L-332959 1641 L-332583 1640 L-328330 1640 L-327843 1649 L-327824 1649 L-327745 1649 L-327670 1648 L-327650 1640 L-326837 1640 L-326083 1640 L-324864 1640 L-323432 1640 L-323336 1639 L-323162 1639 L-322807 1639 L-321498 1639 L-319641 1639 L-317938 1639 L-317435 1639 L-317170 1639 L-316777 1639 L-316643 1639 L-315733 1639 L-315357 1638 L-314428 1638 L-314089 1638 L-314049 1638 L-314012 1638 L-312096 1638 L-311922 1638 L-310394 1638 L-310065 1638 L-309949 1638 L-309542 1638 L-309194 1638 L-307550 1638 L-307000 1637 L-306756 1637 L-306215 1637 L-305384 1637 L-304842 1637 L-303308 1637 L-303215 1637 L-303178 1637 L-303042 1637 L-302655 1637 L-301630 1636 L-299754 1636 L-299658 1636 L-299057 1639 L-298690 1642 L-298206 1645 L-298168 1648 L-297394 1648 L-297336 1648 L-297162 1648 L-296968 1648 L-295363 1647 L-295343 1647 L-295188 1647 L-295072 1648 L-293893 1648 L-293738 1648 L-293071 1648 L-290623 1655 L-288108 1662 L-285438 1669 L-277739 1676 L-272071 1676 L-269857 1675 L-269833 1675 L-268860 1677 L-268840 1677 L-267976 1677 L-265236 1677 L-259437 1675 L-259284 1675 L-256498 1675 L-242890 1675 L-242144 1675 L-237733 1674 L-221387 1674 L-221155 1674 L-220618 1674 L-212158 1674 L-203452 1674 L-203240 1674 L-201268 1674 L-198481 1674 L-193994 1674 L-193839 1674 L-193670 1674 L-193530 1674 L-193239 1674 L-193200 1673 L-192929 1673 L-192758 1673 L-192348 1673 L-191227 1673 L-190047 1673 L-188770 1673 L-185906 1673 L-182986 1673 L-180994 1673 L-179446 1673 L-176408 1672 L-167084 1672 L-166560 1672 L-160836 1672 L-159329 1672 L-158514 1672 L-156831 1672 L-156110 1672 L-155941 1672 L-154896 1672 L-152829 1672 L-151467 1672 L-147024 1672 L-146926 1671 L-146888 1671 L-146869 1671 L-146036 1671 L-145959 1671 L-143386 1671 L-140137 1671 L-139982 1671 L-139034 1671 L-137293 1671 L-136577 1671 L-133036 1671 L-126459 1672 L-125042 1673 L-125021 1673 L-124071 1672 L-120596 1672 L-119843 1672 L-119281 1672 L-118499 1672 L-110995 1672 L-109397 1672 L-107823 1672 L-104637 1672 L-100304 1672 L-91735 1672 L-82988 1672 L-79914 1671 L-76648 1671 L-76102 1671 L-68965 1671 L-63297 1671 L-49233 1671 L-43221 1671 L-38515 1671 L-34512 1671 L-29404 1671 L-19690 1671 L-4120 1671 L-1037 1670 L-735 1632 L-715 1586 L-696 1532 L-676 1473 L-657 1446 L-638 1423 L-619 1402 L-591 1381 L-570 1361 L-543 1340 L-507 1317 L-494 1297 L-481 1280 L-462 1265 L-443 1255 L-424 1244 L-405 1233 L-386 1223 L-366 1212 L-345 1201 L-328 1190 L-309 1179 L-289 1169 L-269 1158 L-251 1147 L-232 1135 L-212 1123 L-192 1111 L-173 1100 L-155 1090 L-133 1079 L-108 1069 L-94 1059 L-77 1049 L-57 1039 L-38 1030 L-19 1019 L0 1009 L19 999 L40 989 L58 980 L77 971 L97 963 L118 955 L135 949 L154 942 L174 936 L193 930 L212 924 L231 918 L251 914 L271 909 L290 905 L309 900 L336 895 L357 889 L385 882 L419 875 L433 869 L446 864 L465 859 L484 855 L504 850 L522 845 L541 840 L561 835 L582 831 L599 827 L618 822 L638 817 L658 812 L677 806 L695 800 L716 793 L735 786 L754 780 L773 773 L794 765 L818 757 L833 749 L850 741 L870 733 L889 726 L909 718 L928 709 L948 701 L968 693 L986 686 L1005 678 L1025 671 L1046 664 L1064 657 L1083 651 L1103 644 L1121 639 L1141 633 L1160 628 L1180 622 L1199 616 L1218 611 L1237 605 L1266 600 L1286 595 L1314 589 L1351 583 L1366 577 L1378 571 L1395 566 L1412 562 L1432 558 L1451 555 L1470 552 L1490 549 L1511 546 L1528 542 L1547 538 L1567 534 L1587 530 L1605 526 L1624 522 L1644 517 L1664 512 L1683 507 L1701 502 L1723 497 L1747 492 L1762 487 L1779 482 L1799 477 L1818 472 L1837 467 L1856 461 L1876 456 L1897 451 L1915 446 L1934 441 L1954 436 L1974 432 L1992 428 L2011 424 L2031 419 L2050 415 L2070 411 L2088 407 L2108 403 L2128 399 L2147 395 L2166 391 L2194 387 L2214 383 L2242 379 L2278 372 L2292 367 L2306 361 L2323 356 L2341 353 L2361 350 L2379 346 L2399 342 L2419 338 L2440 333 L2459 328 L2476 323 L2496 317 L2516 311 L2534 305 L2553 299 L2573 293 L2593 287 L2611 281 L2630 276 L2651 273 L2676 269 L2691 267 L2709 263 L2727 260 L2747 257 L2766 254 L2785 250 L2805 247 L2826 245 L2843 242 L2863 239 L2883 236 L2904 231 L2921 227 L2940 224 L2960 222 L2979 220 L2998 218 L3017 216 L3037 214 L3057 211 L3076 209 L3094 207 L3122 205 L3143 203 L3171 200 L3205 197 L3219 195 L3232 193 L3251 191 L3270 190 L3289 188 L3308 186 L3328 185 L3347 183 L3368 181 L3385 180 L3404 178 L3425 176 L3445 174 L3463 172 L3481 170 L3501 169 L3522 167 L3540 166 L3559 164 L3580 162 L3605 161 L3619 159 L3637 158 L3656 157 L3675 155 L3695 153 L3714 151 L3734 149 L3755 148 L3772 146 L3791 145 L3811 143 L3832 142 L3849 140 L3868 139 L3888 137 L3907 136 L3927 134 L3946 133 L3966 132 L3985 131 L4004 130 L4023 132 L4052 134 L4071 135 L4099 137 L4137 135 L4152 134 L4165 133 L4182 132 L4198 131 L4218 130 L4237 129 L4256 128 L4276 127 L4297 127 L4314 126 L4333 125 L4353 124 L4373 123 L4391 122 L4410 121 L4430 120 L4450 119 L4468 118 L4487 117 L4509 116 L4533 116 L4548 115 L4565 114 L4585 113 L4604 112 L4623 111 L4642 110 L4662 109 L4683 107 L4701 106 L4720 104 L4740 103 L4761 102 L4778 101 L4797 100 L4817 98 L4836 97 L4855 96 L4874 95 L4894 93 L4914 92 L4933 91 L4952 91 L4979 89 L5000 88 L5028 87 L5063 86 L5076 85 L5090 84 L5108 82 L5127 82 L5147 81 L5165 80 L5185 79 L5204 77 L5226 76 L5243 75 L5261 74 L5282 73 L5302 72 L5320 71 L5339 69 L5359 67 L5379 66 L5397 64 L5416 63 L5437 61 L5462 60 L5477 58 L5494 57 L5513 55 L5533 54 L5552 52 L5571 51 L5591 49 L5612 48 L5629 47 L5648 45 L5669 44 L5689 43 L5706 42 L5725 41 L5745 40 L5764 39 L5784 38 L5803 37 L5823 36 L5842 36 L5861 35 L5880 34 L5908 33 L5928 33 L5956 32 L5992 30 L6006 29 L6019 27 L6037 26 L6055 25 L6075 24 L6094 23 L6113 22 L6133 21 L6154 20 L6171 19 L6190 18 L6210 17 L6230 16 L6249 14 L6267 13 L6287 12 L6308 11 L6326 10 L6344 9 L6366 8 L6391 7 L6405 6 L6422 5 L6442 4 L6461 3 L6481 2 L6500 0" />
</svg>
