<svg xmlns="http://www.w3.org/2000/svg" version="1.1" viewBox="0 0 6500 1000">
	<path fill="none" stroke="gold" stroke-width="125" stroke-linecap="round" stroke-linejoin="round" d="M0 3534  L-725703 3534 L-723099 3534 L-721430 3534 L-703101 3534 L-702931 3534 L-695773 3533 L-695740 3533 L-682309 3533 L-679387 3533 L-666046 3533 L-661877 3532 L-660717 3531 L-660098 3531 L-658086 3530 L-654314 3530 L-653714 3529 L-653386 3529 L-653173 3529 L-652631 3528 L-651393 3527 L-650214 3526 L-647350 3525 L-646827 3523 L-641972 3523 L-639035 3523 L-638992 3522 L-638683 3522 L-638431 3522 L-635836 3522 L-631581 3522 L-631563 3522 L-630326 3522 L-628449 3522 L-626495 3521 L-625547 3521 L-625277 3521 L-624967 3520 L-624869 3520 L-624038 3520 L-622007 3520 L-621717 3519 L-619571 3518 L-619415 3517 L-615759 3516 L-615508 3517 L-615409 3517 L-614892 3517 L-612741 3518 L-611812 3519 L-610286 3520 L-609047 3520 L-607500 3519 L-604538 3519 L-603416 3519 L-603107 3519 L-601896 3518 L-598889 3520 L-598870 3520 L-598522 3520 L-598309 3520 L-598183 3517 L-597941 3517 L-597904 3517 L-597884 3516 L-597865 3516 L-597806 3516 L-597747 3516 L-597729 3515 L-597286 3515 L-596047 3515 L-594501 3514 L-591113 3514 L-585387 3514 L-585185 3514 L-583549 3514 L-581827 3513 L-580395 3513 L-580163 3513 L-579448 3513 L-573316 3513 L-572948 3512 L-572793 3512 L-572215 3512 L-571922 3511 L-570955 3511 L-570646 3511 L-570047 3511 L-568440 3511 L-567705 3511 L-567395 3511 L-566627 3511 L-564591 3510 L-564166 3510 L-563353 3510 L-555924 3510 L-555401 3509 L-555228 3509 L-554493 3509 L-552925 3508 L-552520 3508 L-550295 3508 L-549347 3508 L-548922 3508 L-548591 3508 L-547548 3507 L-545439 3507 L-545187 3507 L-544568 3506 L-543756 3506 L-541648 3506 L-541599 3506 L-539671 3505 L-539345 3505 L-539210 3505 L-538707 3505 L-537294 3504 L-536791 3504 L-536270 3503 L-532710 3502 L-531975 3502 L-529550 3502 L-528261 3502 L-527854 3501 L-524701 3501 L-524547 3501 L-524526 3502 L-524160 3502 L-522901 3502 L-522186 3502 L-521296 3502 L-520889 3502 L-519961 3502 L-518852 3502 L-518549 3502 L-512300 3503 L-511353 3503 L-509727 3503 L-509225 3503 L-505549 3504 L-504717 3504 L-500764 3504 L-499352 3503 L-496863 3503 L-496186 3503 L-496148 3503 L-495277 3503 L-492066 3502 L-489202 3502 L-488234 3502 L-487113 3502 L-487094 3502 L-485469 3501 L-485005 3501 L-484913 3501 L-478544 3500 L-477595 3500 L-475138 3500 L-474266 3500 L-473030 3500 L-471028 3499 L-470631 3499 L-469195 3499 L-467168 3499 L-466955 3498 L-465775 3498 L-464267 3498 L-464247 3498 L-462234 3498 L-461365 3497 L-460494 3497 L-459909 3497 L-459372 3497 L-458714 3496 L-457476 3496 L-456915 3496 L-455734 3496 L-454497 3496 L-454458 3495 L-454071 3495 L-453530 3495 L-452756 3495 L-451634 3495 L-449544 3494 L-449211 3494 L-448925 3494 L-447997 3494 L-447514 3493 L-446778 3493 L-443147 3493 L-442019 3493 L-441865 3493 L-440839 3492 L-437124 3492 L-435907 3492 L-434088 3491 L-431302 3491 L-430741 3491 L-426853 3491 L-424376 3491 L-423042 3491 L-422538 3491 L-422055 3491 L-419366 3491 L-415594 3491 L-413137 3491 L-411957 3491 L-411318 3490 L-408958 3490 L-408881 3490 L-407833 3490 L-407740 3489 L-407237 3489 L-406791 3489 L-406734 3489 L-406520 3489 L-403561 3489 L-400853 3489 L-400698 3489 L-397177 3489 L-396654 3488 L-395687 3488 L-395338 3488 L-394295 3488 L-393366 3487 L-392940 3487 L-391431 3487 L-390464 3487 L-390445 3487 L-388549 3475 L-388433 3463 L-388385 3452 L-388361 3440 L-385357 3440 L-383326 3440 L-381565 3439 L-381198 3439 L-380753 3439 L-380386 3439 L-379972 3439 L-377987 3438 L-377774 3438 L-377619 3438 L-376014 3438 L-374892 3438 L-373943 3438 L-372686 3438 L-371042 3437 L-369862 3437 L-363272 3437 L-363226 3437 L-362820 3437 L-361775 3437 L-361640 3436 L-359957 3436 L-359937 3436 L-358600 3436 L-357364 3435 L-357210 3435 L-356836 3435 L-356630 3435 L-356320 3435 L-355546 3434 L-353225 3434 L-352567 3434 L-350439 3434 L-348717 3434 L-348523 3433 L-345970 3433 L-345694 3433 L-345506 3433 L-344673 3432 L-343901 3432 L-343203 3432 L-338202 3432 L-337826 3432 L-333573 3432 L-333086 3447 L-333067 3447 L-332988 3447 L-332913 3447 L-332893 3431 L-332080 3431 L-331326 3430 L-330107 3430 L-328675 3430 L-328579 3430 L-328405 3430 L-328050 3430 L-326741 3430 L-324884 3429 L-323181 3429 L-322678 3429 L-322413 3429 L-322020 3429 L-321886 3428 L-320976 3428 L-320600 3428 L-319671 3428 L-319332 3428 L-319292 3428 L-319255 3428 L-317339 3428 L-317166 3428 L-315637 3428 L-315309 3428 L-315192 3427 L-314785 3427 L-314437 3427 L-312793 3427 L-312243 3426 L-311999 3426 L-311458 3426 L-310627 3426 L-310085 3426 L-308551 3425 L-308458 3425 L-308421 3425 L-308285 3425 L-307898 3425 L-306873 3425 L-304997 3424 L-304901 3424 L-304300 3429 L-303933 3435 L-303449 3440 L-303411 3445 L-302637 3446 L-302579 3446 L-302405 3445 L-302211 3445 L-300606 3445 L-300586 3445 L-300431 3445 L-300315 3445 L-299136 3445 L-298981 3446 L-298314 3446 L-295866 3459 L-293351 3472 L-290681 3485 L-282982 3497 L-277314 3497 L-275100 3497 L-275076 3497 L-274103 3500 L-274083 3500 L-273219 3500 L-270479 3500 L-264680 3497 L-264527 3496 L-261741 3496 L-248133 3496 L-247387 3496 L-242976 3495 L-226630 3495 L-226398 3495 L-225861 3495 L-217401 3495 L-208695 3494 L-208483 3494 L-206511 3494 L-203724 3494 L-199237 3494 L-199082 3494 L-198913 3494 L-198773 3494 L-198482 3494 L-198443 3494 L-198172 3493 L-198001 3493 L-197591 3493 L-196470 3493 L-195290 3493 L-194013 3493 L-191149 3492 L-188229 3492 L-186237 3492 L-184689 3492 L-181651 3492 L-172327 3491 L-171803 3491 L-166079 3491 L-164572 3491 L-163757 3491 L-162074 3491 L-161353 3491 L-161184 3491 L-160139 3490 L-158072 3490 L-156710 3490 L-152267 3490 L-152169 3490 L-152131 3490 L-152112 3489 L-151279 3489 L-151202 3489 L-148629 3489 L-145380 3489 L-145225 3488 L-144277 3488 L-142536 3488 L-141820 3489 L-138279 3490 L-131702 3491 L-130285 3492 L-130264 3492 L-129314 3492 L-125839 3491 L-125086 3491 L-124524 3491 L-123742 3491 L-116238 3491 L-114640 3491 L-113066 3490 L-109880 3490 L-105547 3490 L-96978 3490 L-88231 3490 L-85157 3490 L-81891 3489 L-81345 3489 L-74208 3489 L-68540 3489 L-54476 3489 L-48464 3489 L-43758 3489 L-39755 3489 L-34647 3489 L-24933 3488 L-9363 3488 L-6280 3488 L-5978 3417 L-5958 3330 L-5939 3231 L-5919 3120 L-5900 3069 L-5881 3027 L-5862 2988 L-5834 2949 L-5813 2911 L-5786 2872 L-5750 2828 L-5737 2791 L-5724 2759 L-5705 2732 L-5687 2713 L-5667 2693 L-5648 2673 L-5629 2653 L-5609 2633 L-5588 2612 L-5571 2591 L-5552 2571 L-5532 2552 L-5512 2532 L-5494 2511 L-5475 2490 L-5455 2467 L-5435 2446 L-5416 2424 L-5398 2405 L-5376 2385 L-5352 2366 L-5337 2348 L-5320 2330 L-5300 2311 L-5281 2293 L-5262 2274 L-5243 2254 L-5223 2235 L-5202 2218 L-5184 2200 L-5165 2184 L-5145 2169 L-5124 2155 L-5107 2142 L-5088 2130 L-5068 2118 L-5049 2107 L-5030 2095 L-5011 2085 L-4991 2077 L-4971 2068 L-4952 2060 L-4933 2052 L-4906 2041 L-4885 2030 L-4857 2018 L-4823 2004 L-4809 1993 L-4796 1983 L-4777 1974 L-4758 1967 L-4738 1958 L-4720 1949 L-4701 1940 L-4681 1931 L-4660 1922 L-4643 1914 L-4624 1906 L-4604 1897 L-4584 1887 L-4565 1876 L-4547 1864 L-4526 1852 L-4507 1840 L-4488 1827 L-4469 1814 L-4448 1800 L-4424 1785 L-4409 1769 L-4392 1755 L-4372 1741 L-4353 1726 L-4333 1711 L-4314 1696 L-4294 1681 L-4274 1666 L-4256 1651 L-4237 1637 L-4217 1624 L-4196 1610 L-4179 1598 L-4159 1586 L-4139 1574 L-4121 1564 L-4101 1554 L-4082 1543 L-4062 1533 L-4043 1522 L-4024 1512 L-4005 1502 L-3976 1491 L-3956 1482 L-3928 1472 L-3891 1460 L-3876 1449 L-3864 1438 L-3847 1428 L-3830 1421 L-3810 1414 L-3791 1408 L-3772 1402 L-3752 1396 L-3731 1390 L-3714 1384 L-3695 1377 L-3675 1369 L-3655 1362 L-3637 1354 L-3618 1346 L-3598 1337 L-3578 1327 L-3559 1318 L-3541 1308 L-3519 1300 L-3495 1290 L-3480 1281 L-3463 1272 L-3443 1262 L-3424 1253 L-3405 1243 L-3386 1233 L-3366 1223 L-3345 1214 L-3327 1204 L-3308 1195 L-3288 1187 L-3268 1179 L-3250 1171 L-3231 1163 L-3211 1155 L-3192 1147 L-3172 1139 L-3154 1132 L-3134 1124 L-3114 1117 L-3095 1110 L-3076 1102 L-3048 1095 L-3028 1088 L-3000 1079 L-2964 1067 L-2950 1056 L-2936 1046 L-2919 1037 L-2901 1032 L-2881 1026 L-2863 1018 L-2843 1011 L-2823 1002 L-2802 994 L-2783 984 L-2766 975 L-2746 965 L-2726 954 L-2708 942 L-2689 931 L-2669 919 L-2649 907 L-2631 897 L-2612 888 L-2591 881 L-2566 875 L-2551 870 L-2533 864 L-2515 858 L-2495 852 L-2476 846 L-2457 840 L-2437 834 L-2416 829 L-2399 825 L-2379 819 L-2359 812 L-2338 804 L-2321 797 L-2302 791 L-2282 786 L-2263 782 L-2244 779 L-2225 775 L-2205 771 L-2185 767 L-2166 763 L-2148 759 L-2120 755 L-2099 751 L-2071 747 L-2037 741 L-2023 737 L-2010 733 L-1991 730 L-1972 727 L-1953 723 L-1934 720 L-1914 717 L-1895 714 L-1874 711 L-1857 708 L-1838 705 L-1817 702 L-1797 698 L-1779 694 L-1761 691 L-1741 688 L-1720 685 L-1702 682 L-1683 679 L-1662 676 L-1637 673 L-1623 670 L-1605 668 L-1586 665 L-1567 662 L-1547 659 L-1528 655 L-1508 652 L-1487 649 L-1470 645 L-1451 643 L-1431 640 L-1410 637 L-1393 634 L-1374 631 L-1354 629 L-1335 626 L-1315 624 L-1296 622 L-1276 620 L-1257 618 L-1238 616 L-1219 619 L-1190 622 L-1171 625 L-1143 628 L-1105 625 L-1090 623 L-1077 621 L-1060 619 L-1044 618 L-1024 616 L-1005 614 L-986 612 L-966 611 L-945 609 L-928 608 L-909 606 L-889 604 L-869 602 L-851 601 L-832 599 L-812 597 L-792 595 L-774 593 L-755 592 L-733 590 L-709 589 L-694 587 L-677 585 L-657 583 L-638 581 L-619 580 L-600 578 L-580 575 L-559 573 L-541 570 L-522 568 L-502 565 L-481 563 L-464 561 L-445 559 L-425 557 L-406 555 L-387 552 L-368 550 L-348 547 L-328 545 L-309 544 L-290 542 L-263 540 L-242 538 L-214 535 L-179 533 L-166 531 L-153 529 L-134 527 L-115 525 L-95 523 L-77 521 L-57 520 L-38 517 L-16 516 L0 514 L18 512 L39 510 L59 507 L77 505 L96 502 L116 498 L136 495 L154 493 L173 490 L194 488 L219 485 L234 482 L251 479 L270 476 L290 474 L309 471 L328 468 L348 465 L369 463 L386 460 L405 457 L426 455 L446 453 L463 451 L482 449 L502 447 L521 445 L541 444 L560 442 L580 441 L599 439 L618 438 L637 437 L665 435 L685 434 L713 432 L749 429 L763 426 L776 424 L794 421 L812 419 L832 418 L851 416 L870 414 L890 413 L911 411 L928 409 L947 407 L967 405 L987 402 L1005 400 L1024 398 L1044 395 L1065 393 L1083 391 L1101 389 L1123 388 L1148 386 L1162 384 L1179 383 L1199 380 L1218 379 L1238 376 L1256 374 L1276 371 L1298 368 L1315 365 L1334 362 L1354 360 L1375 358 L1392 356 L1411 355 L1431 353 L1450 352 L1470 351 L1488 349 L1508 348 L1528 346 L1547 345 L1566 344 L1593 342 L1614 341 L1642 340 L1676 339 L1690 337 L1703 336 L1722 335 L1741 334 L1760 333 L1779 332 L1798 331 L1818 330 L1839 329 L1856 328 L1875 327 L1895 326 L1915 324 L1934 323 L1953 322 L1973 321 L1993 320 L2011 320 L2030 319 L2051 318 L2076 317 L2090 316 L2108 315 L2127 314 L2146 313 L2166 311 L2185 311 L2205 309 L2225 307 L2243 305 L2262 303 L2282 300 L2303 299 L2321 297 L2340 296 L2360 294 L2378 293 L2398 291 L2417 290 L2437 288 L2456 287 L2476 286 L2494 285 L2523 284 L2571 283 L2607 282 L2622 281 L2635 280 L2652 279 L2669 278 L2689 278 L2708 277 L2727 276 L2747 275 L2768 274 L2785 274 L2804 273 L2824 272 L2844 271 L2862 271 L2881 270 L2901 268 L2921 268 L2940 266 L2958 265 L2980 264 L3004 262 L3019 260 L3036 258 L3056 257 L3075 255 L3095 254 L3113 252 L3133 251 L3154 249 L3172 248 L3191 246 L3211 245 L3231 243 L3249 243 L3268 241 L3288 240 L3307 239 L3327 238 L3345 237 L3365 236 L3385 235 L3404 234 L3423 232 L3451 231 L3471 230 L3499 228 L3536 226 L3551 223 L3563 221 L3581 219 L3598 218 L3618 217 L3637 216 L3656 215 L3676 214 L3697 213 L3714 212 L3732 211 L3753 209 L3774 207 L3791 205 L3811 203 L3830 201 L3851 199 L3868 197 L3887 195 L3909 193 L3934 192 L3949 190 L3966 189 L3985 187 L4005 186 L4023 185 L4042 183 L4062 181 L4084 179 L4100 177 L4120 176 L4140 175 L4161 173 L4178 172 L4197 171 L4217 170 L4236 169 L4255 167 L4274 166 L4294 165 L4314 164 L4333 163 L4352 162 L4379 997 L4400 996 L4428 994 L4464 992 L4478 154 L4491 153 L4509 151 L4527 150 L4546 150 L4565 149 L4584 148 L4604 146 L4626 145 L4642 143 L4661 141 L4682 140 L4702 137 L4720 135 L4739 133 L4759 131 L4780 129 L4797 128 L4816 126 L4837 125 L4862 123 L4877 121 L4907 119 L4947 116 L4970 114 L4999 111 L5015 109 L5029 107 L5048 105 L5069 104 L5090 103 L5106 102 L5125 100 L5145 99 L5164 98 L5184 98 L5203 97 L5223 96 L5243 95 L5261 94 L5280 93 L5308 92 L5328 91 L5356 90 L5391 88 L5405 87 L5437 86 L5455 85 L5475 84 L5494 83 L5513 82 L5533 81 L5554 81 L5571 80 L5589 78 L5610 75 L5631 71 L5648 67 L5667 63 L5687 60 L5707 57 L5725 55 L5744 53 L5766 52 L5791 51 L5806 49 L5823 48 L5842 46 L5862 44 L5880 43 L5900 41 L5919 40 L5941 38 L5958 36 L5977 34 L5997 33 L6018 32 L6035 31 L6054 30 L6074 29 L6093 28 L6112 27 L6132 26 L6151 24 L6171 23 L6190 22 L6209 21 L6236 20 L6257 19 L6327 17 L6355 14 L6370 12 L6384 9 L6404 8 L6422 7 L6441 5 L6461 4 L6482 2 L6500 1" />
</svg>
