<svg xmlns="http://www.w3.org/2000/svg" version="1.1" viewBox="0 0 6500 1000">
	<path fill="none" stroke="gold" stroke-width="125" stroke-linecap="round" stroke-linejoin="round" d="M0 20637  L-93655 20637 L-91051 20398 L-89383 20158 L-71053 19678 L-70883 19199 L-63725 18719 L-63692 18719 L-50261 18479 L-47339 18719 L-33998 18000 L-29829 17040 L-28669 15841 L-28050 14642 L-26038 13923 L-22267 13443 L-21666 12964 L-21338 12484 L-21125 12004 L-20583 11525 L-19345 9606 L-18166 7688 L-15302 5769 L-14779 3851 L-9924 3371 L-6987 2892 L-6944 2412 L-6635 1932 L-6384 1453 L-3789 973 L466 973 L484 973 L1721 973 L3598 973 L5552 494 L6500 14" />
</svg>
