<svg xmlns="http://www.w3.org/2000/svg" version="1.1" viewBox="0 0 6500 1000">
	<path fill="none" stroke="gold" stroke-width="125" stroke-linecap="round" stroke-linejoin="round" d="M0 3504  L-725897 3504 L-723293 3504 L-721625 3504 L-703296 3504 L-703125 3504 L-695968 3503 L-695935 3503 L-682504 3503 L-679582 3503 L-666241 3503 L-662072 3502 L-660912 3501 L-660293 3501 L-658281 3500 L-654509 3500 L-653909 3499 L-653580 3499 L-653367 3499 L-652826 3499 L-651588 3497 L-650409 3496 L-647544 3495 L-647022 3494 L-642167 3493 L-639229 3493 L-639186 3493 L-638878 3492 L-638626 3492 L-636031 3492 L-631776 3492 L-631758 3492 L-630521 3492 L-628643 3492 L-626690 3491 L-625742 3491 L-625471 3491 L-625161 3491 L-625063 3490 L-624233 3490 L-622202 3491 L-621912 3489 L-619765 3489 L-619610 3488 L-615953 3487 L-615702 3487 L-615604 3487 L-615087 3487 L-612936 3488 L-612007 3489 L-610481 3490 L-609241 3490 L-607695 3490 L-604733 3489 L-603611 3489 L-603302 3489 L-602091 3489 L-599084 3490 L-599064 3490 L-598717 3490 L-598504 3490 L-598378 3488 L-598136 3487 L-598098 3487 L-598079 3487 L-598059 3486 L-598000 3486 L-597942 3486 L-597924 3485 L-597481 3485 L-596241 3485 L-594695 3485 L-591308 3484 L-585582 3484 L-585380 3484 L-583744 3484 L-582022 3484 L-580590 3483 L-580358 3483 L-579642 3483 L-573510 3483 L-573143 3483 L-572988 3482 L-572410 3482 L-572117 3482 L-571150 3481 L-570840 3481 L-570241 3481 L-568635 3481 L-567900 3481 L-567590 3481 L-566822 3481 L-564786 3481 L-564360 3480 L-563548 3480 L-556119 3480 L-555596 3480 L-555423 3479 L-554688 3479 L-553120 3479 L-552714 3478 L-550489 3478 L-549541 3478 L-549116 3478 L-548786 3478 L-547742 3478 L-545634 3477 L-545382 3477 L-544763 3477 L-543950 3477 L-541842 3476 L-541794 3476 L-539866 3476 L-539540 3475 L-539405 3475 L-538902 3475 L-537489 3475 L-536986 3474 L-536464 3473 L-532905 3473 L-532170 3472 L-529745 3472 L-528456 3472 L-528049 3472 L-524896 3472 L-524741 3472 L-524721 3472 L-524354 3472 L-523096 3472 L-522381 3472 L-521491 3472 L-521084 3472 L-520156 3472 L-519047 3472 L-518744 3473 L-512495 3473 L-511548 3473 L-509922 3474 L-509420 3474 L-505744 3474 L-504912 3474 L-500959 3474 L-499547 3474 L-497057 3473 L-496381 3473 L-496342 3473 L-495471 3473 L-492260 3473 L-489397 3473 L-488429 3473 L-487308 3472 L-487289 3472 L-485664 3472 L-485200 3471 L-485108 3471 L-478738 3471 L-477790 3471 L-475333 3471 L-474460 3470 L-473224 3470 L-471223 3470 L-470826 3470 L-469389 3469 L-467363 3469 L-467150 3469 L-465970 3469 L-464461 3469 L-464441 3468 L-462429 3468 L-461560 3468 L-460689 3468 L-460104 3467 L-459567 3467 L-458909 3467 L-457671 3466 L-457110 3466 L-455929 3466 L-454692 3466 L-454653 3466 L-454266 3466 L-453724 3465 L-452951 3465 L-451828 3465 L-449739 3465 L-449406 3464 L-449120 3464 L-448192 3464 L-447708 3464 L-446973 3464 L-443342 3463 L-442214 3463 L-442059 3463 L-441033 3463 L-437319 3463 L-436101 3462 L-434283 3462 L-431497 3462 L-430936 3462 L-427048 3462 L-424571 3461 L-423236 3461 L-422733 3461 L-422250 3461 L-419560 3461 L-415789 3461 L-413332 3461 L-412152 3461 L-411513 3461 L-409153 3461 L-409076 3460 L-408028 3460 L-407935 3460 L-407432 3460 L-406986 3460 L-406929 3460 L-406715 3460 L-403755 3460 L-401048 3459 L-400893 3459 L-397372 3459 L-396849 3459 L-395882 3459 L-395533 3458 L-394489 3458 L-393561 3458 L-393135 3458 L-391626 3458 L-390659 3457 L-390640 3457 L-388744 3446 L-388628 3434 L-388580 3423 L-388556 3411 L-385552 3411 L-383521 3411 L-381760 3411 L-381393 3410 L-380947 3410 L-380581 3410 L-380167 3410 L-378182 3410 L-377968 3410 L-377813 3409 L-376208 3409 L-375086 3409 L-374138 3409 L-372881 3409 L-371236 3409 L-370057 3408 L-363467 3408 L-363421 3408 L-363015 3408 L-361970 3408 L-361834 3408 L-360152 3407 L-360132 3407 L-358795 3407 L-357559 3407 L-357405 3406 L-357031 3406 L-356825 3406 L-356515 3406 L-355741 3405 L-353420 3405 L-352762 3405 L-350634 3405 L-348912 3405 L-348718 3405 L-346165 3404 L-345889 3404 L-345700 3404 L-344868 3404 L-344095 3403 L-343397 3403 L-338397 3403 L-338021 3403 L-333768 3403 L-333281 3418 L-333262 3418 L-333183 3418 L-333107 3418 L-333088 3402 L-332275 3402 L-331521 3402 L-330302 3401 L-328870 3401 L-328774 3401 L-328599 3401 L-328245 3401 L-326936 3401 L-325078 3401 L-323376 3400 L-322873 3400 L-322608 3400 L-322215 3400 L-322080 3400 L-321171 3400 L-320794 3399 L-319866 3399 L-319527 3399 L-319487 3399 L-319449 3399 L-317534 3399 L-317360 3399 L-315831 3399 L-315503 3399 L-315387 3399 L-314980 3398 L-314632 3398 L-312988 3398 L-312437 3398 L-312194 3398 L-311653 3397 L-310821 3397 L-310280 3397 L-308745 3397 L-308653 3396 L-308616 3396 L-308480 3396 L-308093 3396 L-307068 3396 L-305192 3396 L-305095 3396 L-304495 3401 L-304128 3406 L-303643 3411 L-303605 3417 L-302832 3417 L-302774 3417 L-302600 3416 L-302406 3416 L-300801 3416 L-300781 3416 L-300625 3416 L-300510 3416 L-299331 3416 L-299176 3417 L-298509 3417 L-296061 3430 L-293546 3443 L-290876 3455 L-283177 3468 L-277509 3468 L-275295 3468 L-275271 3468 L-274297 3471 L-274277 3471 L-273414 3471 L-270673 3470 L-264875 3467 L-264721 3467 L-261936 3467 L-248327 3466 L-247581 3466 L-243171 3466 L-226824 3466 L-226592 3465 L-226055 3465 L-217596 3465 L-208890 3465 L-208678 3465 L-206705 3465 L-203919 3465 L-199432 3465 L-199277 3465 L-199108 3465 L-198967 3464 L-198677 3464 L-198638 3464 L-198367 3464 L-198196 3464 L-197785 3464 L-196665 3463 L-195485 3463 L-194208 3463 L-191344 3463 L-188424 3463 L-186432 3463 L-184884 3462 L-181846 3462 L-172522 3462 L-171998 3462 L-166274 3462 L-164767 3462 L-163952 3462 L-162269 3461 L-161548 3461 L-161379 3461 L-160334 3461 L-158267 3461 L-156905 3461 L-152461 3460 L-152364 3460 L-152326 3460 L-152307 3460 L-151474 3460 L-151396 3459 L-148824 3459 L-145575 3459 L-145420 3459 L-144471 3459 L-142730 3459 L-142015 3459 L-138474 3460 L-131897 3461 L-130480 3462 L-130459 3462 L-129508 3462 L-126034 3462 L-125281 3462 L-124719 3462 L-123937 3461 L-116433 3461 L-114834 3461 L-113260 3461 L-110075 3461 L-105742 3461 L-97172 3460 L-88426 3460 L-85352 3460 L-82086 3460 L-81540 3460 L-74402 3460 L-68735 3460 L-54670 3460 L-48659 3460 L-43953 3460 L-39949 3459 L-34842 3459 L-25128 3459 L-9557 3459 L-6475 3458 L-6172 3388 L-6153 3302 L-6134 3204 L-6114 3095 L-6095 3045 L-6075 3003 L-6057 2964 L-6029 2926 L-6008 2889 L-5980 2850 L-5945 2806 L-5931 2770 L-5918 2738 L-5900 2712 L-5881 2693 L-5861 2673 L-5843 2653 L-5824 2633 L-5804 2613 L-5783 2593 L-5766 2572 L-5747 2553 L-5727 2534 L-5707 2514 L-5688 2493 L-5669 2472 L-5650 2450 L-5629 2428 L-5611 2408 L-5592 2388 L-5571 2369 L-5546 2350 L-5532 2332 L-5514 2314 L-5495 2296 L-5475 2278 L-5456 2259 L-5437 2239 L-5417 2221 L-5397 2203 L-5379 2186 L-5360 2170 L-5339 2155 L-5319 2141 L-5302 2129 L-5283 2116 L-5263 2105 L-5244 2093 L-5224 2083 L-5205 2073 L-5185 2064 L-5166 2056 L-5147 2047 L-5128 2039 L-5101 2029 L-5080 2018 L-5052 2006 L-5018 1992 L-5004 1981 L-4991 1972 L-4972 1963 L-4953 1955 L-4933 1947 L-4915 1938 L-4895 1929 L-4875 1920 L-4855 1911 L-4837 1904 L-4818 1895 L-4798 1887 L-4778 1877 L-4760 1866 L-4741 1854 L-4721 1842 L-4701 1830 L-4683 1817 L-4664 1805 L-4643 1791 L-4618 1775 L-4604 1760 L-4586 1746 L-4567 1732 L-4547 1718 L-4528 1703 L-4509 1687 L-4489 1672 L-4469 1658 L-4450 1644 L-4432 1630 L-4411 1617 L-4391 1603 L-4373 1591 L-4354 1579 L-4334 1568 L-4315 1558 L-4296 1547 L-4277 1537 L-4257 1527 L-4238 1516 L-4218 1506 L-4199 1496 L-4171 1485 L-4151 1476 L-4123 1466 L-4086 1454 L-4071 1443 L-4058 1433 L-4041 1423 L-4024 1416 L-4004 1409 L-3986 1403 L-3967 1397 L-3947 1392 L-3926 1386 L-3909 1379 L-3890 1372 L-3870 1365 L-3850 1358 L-3831 1350 L-3813 1342 L-3793 1333 L-3773 1323 L-3754 1314 L-3735 1305 L-3714 1296 L-3690 1287 L-3675 1278 L-3658 1269 L-3638 1259 L-3619 1250 L-3599 1241 L-3580 1230 L-3560 1221 L-3540 1211 L-3522 1202 L-3503 1193 L-3483 1184 L-3463 1176 L-3445 1169 L-3426 1161 L-3406 1153 L-3387 1145 L-3367 1138 L-3348 1130 L-3328 1123 L-3309 1116 L-3290 1109 L-3271 1101 L-3243 1094 L-3223 1087 L-3195 1078 L-3158 1067 L-3144 1056 L-3131 1046 L-3114 1037 L-3096 1031 L-3076 1025 L-3057 1018 L-3037 1011 L-3018 1002 L-2997 994 L-2978 985 L-2961 975 L-2941 965 L-2920 954 L-2902 943 L-2884 931 L-2864 919 L-2843 908 L-2825 898 L-2807 889 L-2785 883 L-2760 877 L-2746 872 L-2728 866 L-2709 860 L-2690 854 L-2671 848 L-2652 842 L-2632 836 L-2611 831 L-2593 827 L-2574 821 L-2554 814 L-2533 807 L-2516 799 L-2497 793 L-2477 789 L-2458 785 L-2439 782 L-2420 778 L-2400 774 L-2380 770 L-2361 765 L-2342 762 L-2315 758 L-2294 754 L-2266 750 L-2231 744 L-2218 740 L-2204 736 L-2186 733 L-2167 730 L-2147 727 L-2129 723 L-2109 720 L-2089 718 L-2068 715 L-2051 712 L-2033 709 L-2012 705 L-1992 701 L-1974 698 L-1955 694 L-1935 692 L-1915 689 L-1897 686 L-1878 683 L-1857 680 L-1832 677 L-1817 674 L-1800 672 L-1781 669 L-1761 666 L-1742 663 L-1723 659 L-1703 656 L-1682 653 L-1665 650 L-1646 647 L-1625 644 L-1605 641 L-1587 639 L-1568 636 L-1548 633 L-1530 631 L-1510 628 L-1491 626 L-1471 624 L-1452 622 L-1433 620 L-1414 624 L-1385 627 L-1365 630 L-1337 633 L-1300 630 L-1285 628 L-1272 626 L-1255 624 L-1238 622 L-1218 621 L-1200 619 L-1180 617 L-1161 615 L-1139 614 L-1123 612 L-1104 611 L-1084 609 L-1063 607 L-1045 605 L-1027 603 L-1007 602 L-987 600 L-968 598 L-949 596 L-928 595 L-903 594 L-889 592 L-872 590 L-852 588 L-833 586 L-813 585 L-794 583 L-775 580 L-754 578 L-736 575 L-717 573 L-697 570 L-676 568 L-659 566 L-640 564 L-620 562 L-601 560 L-581 557 L-563 555 L-543 553 L-523 551 L-504 549 L-485 547 L-458 545 L-437 543 L-409 541 L-374 538 L-361 536 L-347 534 L-328 532 L-310 531 L-290 529 L-272 527 L-252 525 L-232 523 L-211 521 L-194 519 L-176 518 L-155 515 L-135 513 L-117 510 L-98 507 L-78 504 L-58 501 L-40 499 L-21 496 L0 494 L24 491 L39 488 L56 485 L75 482 L95 480 L114 477 L133 474 L153 472 L174 469 L191 466 L210 464 L231 461 L252 459 L269 457 L288 455 L308 454 L327 452 L346 450 L365 449 L385 447 L405 446 L424 445 L442 443 L470 442 L491 440 L519 439 L554 436 L568 433 L581 431 L600 428 L618 426 L638 425 L656 423 L676 421 L695 420 L716 418 L733 416 L752 414 L773 412 L793 409 L811 407 L830 405 L849 403 L870 400 L888 398 L907 397 L928 395 L953 393 L968 392 L985 390 L1004 388 L1024 386 L1043 384 L1062 381 L1082 378 L1103 375 L1120 372 L1139 370 L1160 367 L1180 365 L1197 364 L1216 362 L1236 361 L1255 360 L1275 358 L1294 357 L1314 355 L1333 354 L1352 353 L1371 352 L1398 350 L1419 349 L1447 348 L1481 346 L1495 345 L1509 344 L1527 343 L1546 342 L1566 341 L1584 340 L1604 339 L1624 338 L1644 337 L1662 336 L1680 335 L1701 333 L1721 332 L1739 331 L1758 330 L1778 329 L1798 328 L1816 328 L1835 327 L1856 326 L1881 325 L1896 324 L1913 323 L1932 322 L1952 321 L1971 320 L1990 319 L2010 317 L2030 315 L2048 313 L2067 311 L2088 309 L2108 307 L2126 305 L2145 304 L2165 303 L2183 301 L2203 300 L2222 298 L2242 297 L2261 296 L2281 295 L2300 294 L2328 293 L2376 292 L2413 291 L2428 289 L2440 288 L2457 287 L2475 287 L2494 286 L2513 286 L2532 285 L2552 284 L2573 283 L2590 282 L2609 282 L2629 281 L2649 280 L2668 279 L2686 278 L2706 277 L2726 276 L2745 275 L2764 274 L2785 272 L2809 270 L2824 269 L2841 267 L2861 265 L2880 264 L2900 262 L2918 261 L2939 260 L2959 258 L2977 256 L2996 255 L3016 254 L3037 252 L3054 251 L3073 250 L3093 249 L3112 248 L3132 247 L3151 246 L3171 245 L3190 244 L3209 243 L3228 241 L3256 240 L3277 239 L3305 237 L3341 235 L3356 232 L3369 230 L3386 228 L3403 227 L3424 226 L3442 225 L3462 224 L3481 223 L3503 223 L3519 221 L3538 220 L3558 218 L3579 217 L3597 215 L3616 212 L3635 210 L3656 208 L3674 206 L3692 204 L3714 203 L3739 201 L3754 200 L3771 198 L3790 197 L3810 196 L3829 194 L3847 192 L3867 190 L3889 189 L3906 187 L3925 186 L3945 185 L3966 183 L3983 182 L4002 181 L4022 179 L4041 178 L4060 177 L4079 176 L4099 175 L4119 174 L4138 173 L4157 171 L4185 997 L4205 996 L4233 994 L4269 992 L4283 164 L4296 163 L4314 161 L4332 160 L4352 160 L4370 159 L4390 158 L4410 157 L4431 155 L4448 153 L4466 151 L4487 150 L4507 148 L4525 146 L4544 143 L4564 141 L4585 139 L4602 138 L4621 137 L4643 135 L4667 134 L4683 131 L4712 129 L4752 127 L4775 124 L4804 122 L4821 119 L4834 117 L4854 116 L4874 115 L4895 113 L4912 112 L4931 111 L4951 110 L4970 109 L4989 108 L5008 108 L5028 107 L5048 106 L5067 105 L5085 104 L5113 103 L5134 102 L5162 101 L5197 99 L5210 98 L5242 96 L5261 95 L5280 95 L5299 94 L5319 93 L5338 92 L5359 92 L5376 91 L5395 89 L5416 86 L5436 82 L5454 78 L5473 74 L5492 71 L5513 69 L5531 66 L5550 65 L5571 63 L5596 62 L5611 60 L5628 59 L5647 57 L5667 56 L5686 54 L5705 53 L5725 51 L5746 49 L5763 47 L5782 46 L5802 45 L5823 43 L5840 42 L5859 42 L5879 40 L5898 40 L5918 38 L5937 37 L5956 36 L5976 35 L5995 34 L6014 33 L6042 32 L6062 31 L6132 29 L6160 26 L6175 24 L6189 21 L6209 20 L6227 18 L6247 17 L6267 15 L6288 14 L6305 13 L6323 12 L6344 12 L6364 11 L6382 10 L6401 8 L6421 7 L6442 5 L6459 3 L6478 2 L6500 1" />
</svg>
