<svg xmlns="http://www.w3.org/2000/svg" version="1.1" viewBox="0 0 6500 1000">
	<path fill="none" stroke="gold" stroke-width="125" stroke-linecap="round" stroke-linejoin="round" d="M0 1016  L-717635 1016 L-715031 1016 L-713363 1016 L-695034 1016 L-694864 1016 L-687706 1016 L-687673 1016 L-674242 1015 L-671320 1016 L-657979 1015 L-653810 1015 L-652650 1015 L-652031 1015 L-650019 1014 L-646247 1014 L-645647 1014 L-645318 1014 L-645105 1014 L-644564 1014 L-643326 1013 L-642147 1013 L-639282 1013 L-638760 1012 L-633905 1012 L-630967 1012 L-630924 1012 L-630616 1012 L-630364 1012 L-627769 1011 L-623514 1011 L-623496 1011 L-622259 1011 L-620382 1011 L-618428 1011 L-617480 1011 L-617209 1011 L-616900 1011 L-616801 1011 L-615971 1011 L-613940 1011 L-613650 1011 L-611503 1010 L-611348 1010 L-607692 1010 L-607441 1010 L-607342 1010 L-606825 1010 L-604674 1010 L-603745 1010 L-602219 1011 L-600979 1011 L-599433 1011 L-596471 1011 L-595349 1010 L-595040 1010 L-593829 1010 L-590822 1011 L-590803 1011 L-590455 1011 L-590242 1011 L-590116 1010 L-589874 1010 L-589836 1010 L-589817 1010 L-589797 1010 L-589738 1009 L-589680 1009 L-589662 1009 L-589219 1009 L-587979 1009 L-586434 1009 L-583046 1009 L-577320 1009 L-577118 1009 L-575482 1009 L-573760 1009 L-572328 1008 L-572096 1008 L-571381 1008 L-565248 1008 L-564881 1008 L-564726 1008 L-564148 1008 L-563855 1008 L-562888 1008 L-562578 1008 L-561979 1008 L-560373 1008 L-559638 1008 L-559328 1008 L-558560 1008 L-556524 1007 L-556098 1007 L-555286 1007 L-547857 1007 L-547334 1007 L-547161 1007 L-546426 1007 L-544858 1007 L-544452 1007 L-542227 1007 L-541279 1006 L-540854 1006 L-540524 1006 L-539480 1006 L-537372 1006 L-537120 1006 L-536501 1006 L-535688 1006 L-533581 1006 L-533532 1006 L-531604 1006 L-531278 1006 L-531143 1005 L-530640 1005 L-529227 1005 L-528724 1005 L-528203 1005 L-524643 1005 L-523908 1004 L-521483 1004 L-520194 1004 L-519787 1004 L-516634 1004 L-516479 1004 L-516459 1004 L-516093 1004 L-514834 1004 L-514119 1004 L-513229 1004 L-512822 1004 L-511894 1004 L-510785 1004 L-510482 1005 L-504233 1005 L-503286 1005 L-501660 1005 L-501158 1005 L-497482 1005 L-496650 1005 L-492697 1005 L-491285 1005 L-488796 1005 L-488119 1005 L-488080 1005 L-487210 1005 L-483998 1005 L-481135 1005 L-480167 1005 L-479046 1004 L-479027 1004 L-477402 1004 L-476938 1004 L-476846 1004 L-470476 1004 L-469528 1004 L-467071 1004 L-466199 1004 L-464963 1004 L-462961 1004 L-462564 1003 L-461127 1003 L-459101 1003 L-458888 1003 L-457708 1003 L-456200 1003 L-456179 1003 L-454167 1003 L-453298 1003 L-452427 1003 L-451842 1003 L-451305 1003 L-450647 1002 L-449409 1002 L-448848 1002 L-447667 1002 L-446430 1002 L-446391 1002 L-446004 1002 L-445463 1002 L-444689 1002 L-443567 1002 L-441477 1002 L-441144 1002 L-440858 1002 L-439930 1001 L-439446 1001 L-438711 1001 L-435080 1001 L-433952 1001 L-433797 1001 L-432771 1001 L-429057 1001 L-427839 1001 L-426021 1001 L-423235 1001 L-422674 1001 L-418786 1001 L-416309 1001 L-414974 1001 L-414471 1000 L-413988 1000 L-411299 1000 L-407527 1000 L-405070 1000 L-403890 1000 L-403251 1000 L-400891 1000 L-400814 1000 L-399766 1000 L-399673 1000 L-399170 1000 L-398724 1000 L-398667 1000 L-398453 1000 L-395493 1000 L-392786 1000 L-392631 1000 L-389110 1000 L-388587 1000 L-387620 1000 L-387271 999 L-386227 999 L-385299 999 L-384873 999 L-383364 999 L-382397 999 L-382378 999 L-380482 995 L-380366 991 L-380318 987 L-380294 983 L-377290 983 L-375259 982 L-373498 982 L-373131 982 L-372686 982 L-372319 982 L-371905 982 L-369920 982 L-369707 982 L-369552 982 L-367946 982 L-366825 982 L-365876 982 L-364619 982 L-362974 982 L-361795 982 L-355205 981 L-355159 981 L-354753 981 L-353708 981 L-353572 981 L-351890 981 L-351870 981 L-350533 981 L-349297 981 L-349143 981 L-348769 981 L-348563 981 L-348253 981 L-347479 981 L-345158 980 L-344500 980 L-342372 980 L-340650 980 L-340456 980 L-337903 980 L-337627 980 L-337438 980 L-336606 980 L-335834 980 L-335135 980 L-330135 980 L-329759 980 L-325506 980 L-325019 985 L-325000 985 L-324921 985 L-324845 985 L-324826 979 L-324013 979 L-323259 979 L-322040 979 L-320608 979 L-320512 979 L-320337 979 L-319983 979 L-318674 979 L-316816 979 L-315114 979 L-314611 979 L-314346 979 L-313953 979 L-313819 978 L-312909 978 L-312532 978 L-311604 978 L-311265 978 L-311225 978 L-311188 978 L-309272 978 L-309098 978 L-307570 978 L-307241 978 L-307125 978 L-306718 978 L-306370 978 L-304726 978 L-304175 978 L-303932 978 L-303391 978 L-302560 978 L-302018 977 L-300483 977 L-300391 977 L-300354 977 L-300218 977 L-299831 977 L-298806 977 L-296930 977 L-296834 977 L-296233 979 L-295866 981 L-295382 983 L-295343 984 L-294570 985 L-294512 985 L-294338 984 L-294144 984 L-292539 984 L-292519 984 L-292364 984 L-292248 984 L-291069 984 L-290914 985 L-290247 985 L-287799 989 L-285284 994 L-282614 998 L-274915 1003 L-269247 1003 L-267033 1003 L-267009 1003 L-266035 1004 L-266015 1004 L-265152 1004 L-262412 1004 L-256613 1003 L-256460 1002 L-253674 1002 L-240065 1002 L-239320 1002 L-234909 1002 L-218563 1002 L-218330 1002 L-217793 1002 L-209334 1002 L-200628 1002 L-200416 1002 L-198443 1002 L-195657 1002 L-191170 1002 L-191015 1002 L-190846 1002 L-190706 1002 L-190415 1002 L-190376 1001 L-190105 1001 L-189934 1001 L-189524 1001 L-188403 1001 L-187223 1001 L-185946 1001 L-183082 1001 L-180162 1001 L-178170 1001 L-176622 1001 L-173584 1001 L-164260 1001 L-163736 1001 L-158012 1001 L-156505 1001 L-155690 1001 L-154007 1001 L-153286 1000 L-153117 1000 L-152072 1000 L-150005 1000 L-148643 1000 L-144199 1000 L-144102 1000 L-144064 1000 L-144045 1000 L-143212 1000 L-143134 1000 L-140562 1000 L-137313 1000 L-137158 1000 L-136210 1000 L-134468 1000 L-133753 1000 L-130212 1000 L-123635 1000 L-122218 1001 L-122197 1001 L-121246 1001 L-117772 1001 L-117019 1001 L-116457 1001 L-115675 1001 L-108171 1000 L-106573 1000 L-104999 1000 L-101813 1000 L-97480 1000 L-88911 1000 L-80164 1000 L-77090 1000 L-73824 1000 L-73278 1000 L-66141 1000 L-60473 1000 L-46408 1000 L-40397 1000 L-35691 1000 L-31688 1000 L-26580 1000 L-16866 1000 L-1295 1000 L1786 999 L2089 974 L2108 944 L2127 908 L2147 869 L2166 851 L2186 836 L2204 823 L2232 809 L2253 796 L2281 782 L2316 766 L2329 753 L2343 742 L2361 732 L2380 725 L2400 718 L2418 711 L2437 704 L2457 697 L2478 690 L2495 682 L2514 675 L2534 668 L2554 662 L2573 654 L2591 646 L2611 639 L2631 631 L2650 623 L2669 616 L2690 610 L2715 603 L2729 596 L2746 590 L2766 583 L2786 577 L2805 570 L2823 563 L2844 557 L2864 550 L2882 544 L2901 538 L2921 533 L2942 528 L2959 523 L2978 519 L2998 515 L3017 511 L3037 507 L3055 503 L3075 500 L3095 497 L3114 494 L3133 491 L3160 488 L3181 484 L3209 479 L3243 475 L3257 471 L3270 467 L3289 464 L3308 461 L3328 459 L3346 455 L3366 452 L3386 449 L3406 446 L3424 443 L3442 440 L3463 437 L3482 433 L3501 429 L3520 425 L3540 421 L3559 417 L3578 412 L3597 408 L3618 403 L3643 397 L3657 392 L3674 387 L3694 382 L3713 376 L3733 371 L3752 366 L3772 360 L3792 355 L3810 350 L3829 345 L3850 340 L3870 335 L3888 331 L3907 327 L3927 323 L3945 319 L3965 315 L3984 312 L4004 308 L4023 304 L4043 301 L4061 297 L4090 293 L4110 290 L4138 286 L4175 282 L4190 278 L4202 274 L4220 271 L4237 268 L4256 266 L4275 264 L4294 262 L4314 260 L4335 258 L4352 255 L4371 253 L4391 250 L4411 248 L4430 245 L4448 242 L4468 239 L4488 235 L4507 232 L4526 229 L4547 226 L4571 222 L4586 219 L4603 216 L4623 212 L4642 209 L4662 206 L4681 202 L4701 199 L4721 195 L4739 192 L4758 189 L4778 186 L4798 183 L4816 180 L4835 177 L4855 174 L4874 172 L4894 169 L4913 166 L4932 164 L4952 161 L4971 158 L4990 156 L5018 153 L5038 151 L5066 147 L5102 143 L5117 140 L5130 136 L5147 133 L5165 131 L5185 129 L5204 126 L5223 123 L5243 120 L5264 117 L5283 114 L5300 111 L5320 107 L5340 103 L5358 99 L5377 95 L5397 91 L5418 87 L5435 83 L5454 80 L5476 78 L5501 75 L5515 74 L5533 72 L5552 69 L5571 67 L5590 65 L5609 63 L5629 61 L5650 59 L5667 58 L5687 56 L5707 53 L5728 50 L5745 48 L5764 46 L5784 44 L5803 43 L5822 41 L5841 40 L5861 39 L5881 37 L5900 36 L5919 34 L5946 33 L5967 31 L5995 30 L6030 28 L6043 26 L6057 25 L6075 24 L6094 23 L6114 22 L6132 21 L6152 20 L6171 19 L6192 17 L6210 16 L6228 15 L6249 14 L6269 13 L6287 11 L6306 10 L6326 9 L6346 8 L6364 7 L6383 6 L6404 5 L6429 4 L6444 3 L6461 2 L6480 1 L6500 0" />
</svg>
