<svg xmlns="http://www.w3.org/2000/svg" version="1.1" viewBox="0 0 6500 1000">
	<path fill="none" stroke="gold" stroke-width="125" stroke-linecap="round" stroke-linejoin="round" d="M0 62535  L-194676 62535 L-192072 62238 L-190404 61940 L-172074 61345 L-171904 60750 L-164746 60154 L-164713 60154 L-151282 59857 L-148360 60154 L-135019 59261 L-130850 58071 L-129690 56583 L-129071 55095 L-127059 54202 L-123288 53607 L-122688 53011 L-122359 52416 L-122146 51821 L-121604 51226 L-120366 48845 L-119187 46464 L-116323 44083 L-115801 41702 L-110945 41107 L-108008 40511 L-107965 39916 L-107657 39321 L-107405 38726 L-104810 38130 L-100554 38130 L-100536 38130 L-99300 38130 L-97422 38130 L-95469 37535 L-94521 36940 L-94250 36345 L-93940 36047 L-93842 35750 L-93012 35750 L-90981 36047 L-90690 33369 L-88544 32178 L-88388 30392 L-84732 28607 L-84481 29500 L-84382 29202 L-83865 30095 L-81714 31583 L-80785 33071 L-79259 34559 L-78020 34559 L-76473 34261 L-73512 33666 L-72390 33071 L-72080 32476 L-70869 32178 L-67863 35452 L-67843 35154 L-67496 34857 L-67282 34559 L-67156 30392 L-66915 29797 L-66877 29202 L-66857 28607 L-66838 28011 L-66779 27416 L-66720 26821 L-66702 26226 L-66259 25630 L-65020 25035 L-63474 24440 L-60086 23845 L-54360 23547 L-54158 23250 L-52523 22952 L-50801 22654 L-49369 22357 L-49136 22059 L-48421 21761 L-42289 21464 L-41921 20869 L-41767 20273 L-41188 19678 L-40896 19083 L-39928 18488 L-39619 17892 L-39020 17297 L-37413 17297 L-36678 17297 L-36369 17595 L-35600 17595 L-33564 17000 L-33139 16404 L-32326 16107 L-24898 15511 L-24375 14916 L-24201 14321 L-23466 13726 L-21898 13130 L-21493 12833 L-19268 12238 L-18320 11940 L-17895 11642 L-17565 11642 L-16521 11345 L-14413 10750 L-14160 10154 L-13542 9559 L-12729 9261 L-10621 8666 L-10573 8071 L-8644 7476 L-8319 6880 L-8184 6285 L-7680 5988 L-6268 5392 L-5765 4202 L-5243 3309 L-1683 2119 L-948 928 L1476 928 L2765 333 L3172 35 L6324 35 L6479 35 L6500 333" />
</svg>
