<svg xmlns="http://www.w3.org/2000/svg" version="1.1" viewBox="0 0 6500 1000">
	<path fill="none" stroke="gold" stroke-width="125" stroke-linecap="round" stroke-linejoin="round" d="M0 82124  L-567033 82124 L-564429 81835 L-562761 81546 L-544431 80968 L-544261 80390 L-537103 79812 L-537070 79812 L-523639 79523 L-520717 79812 L-507376 78945 L-503207 77789 L-502047 76343 L-501428 74898 L-499416 74031 L-495645 73453 L-495044 72875 L-494716 72297 L-494503 71719 L-493961 71141 L-492723 68829 L-491544 66517 L-488680 64205 L-488157 61893 L-483302 61315 L-480365 60736 L-480322 60158 L-480013 59580 L-479762 59002 L-477167 58424 L-472911 58424 L-472893 58424 L-471656 58424 L-469779 58424 L-467825 57846 L-466877 57268 L-466607 56690 L-466297 56401 L-466199 56112 L-465368 56112 L-463338 56401 L-463047 53800 L-460901 52644 L-460745 50910 L-457089 49176 L-456838 50043 L-456739 49754 L-456222 50621 L-454071 52066 L-453142 53511 L-451616 54956 L-450377 54956 L-448830 54667 L-445868 54089 L-444747 53511 L-444437 52933 L-443226 52644 L-440219 55823 L-440200 55534 L-439852 55245 L-439639 54956 L-439513 50910 L-439272 50332 L-439234 49754 L-439214 49176 L-439195 48598 L-439136 48020 L-439077 47442 L-439059 46864 L-438616 46286 L-437377 45708 L-435831 45130 L-432443 44552 L-426717 44263 L-426515 43973 L-424880 43684 L-423158 43395 L-421726 43106 L-421493 42817 L-420778 42528 L-414646 42239 L-414278 41661 L-414124 41083 L-413545 40505 L-413253 39927 L-412285 39349 L-411976 38771 L-411377 38193 L-409770 38193 L-409035 38193 L-408725 38482 L-407957 38482 L-405921 37904 L-405496 37326 L-404683 37037 L-397255 36459 L-396732 35881 L-396558 35303 L-395823 34725 L-394255 34147 L-393850 33858 L-391625 33280 L-390677 32991 L-390252 32702 L-389921 32702 L-388878 32413 L-386770 31835 L-386517 31257 L-385898 30679 L-385086 30390 L-382978 29812 L-382929 29234 L-381001 28656 L-380675 28078 L-380540 27500 L-380037 27210 L-378625 26632 L-378122 25476 L-377600 24609 L-374040 23453 L-373305 22297 L-370880 22297 L-369591 21719 L-369184 21430 L-366031 21430 L-365877 21430 L-365856 21719 L-365490 21719 L-364232 22008 L-363517 22297 L-362627 22297 L-362220 22297 L-361291 22297 L-360183 22008 L-359879 23164 L-353630 23742 L-352683 24320 L-351057 24898 L-350555 25187 L-346879 25476 L-346047 25765 L-342094 26054 L-340682 25187 L-338193 24609 L-337516 24031 L-337478 23742 L-336607 23742 L-333396 23453 L-330533 23164 L-329565 22875 L-328443 22297 L-328424 21719 L-326799 21141 L-326335 20274 L-326243 19985 L-319874 19696 L-318925 19407 L-316468 19118 L-315596 18540 L-314360 18251 L-312359 17962 L-311961 17384 L-310525 16806 L-308499 16517 L-308285 15939 L-307105 15650 L-305597 15361 L-305577 15072 L-303564 14783 L-302695 14205 L-301824 13916 L-301239 13338 L-300702 12760 L-300044 12182 L-298806 11604 L-298246 11315 L-297064 11026 L-295827 10736 L-295788 10447 L-295401 10158 L-294860 9580 L-294086 9291 L-292964 9002 L-290875 8424 L-290541 7846 L-290255 7268 L-289327 6979 L-288844 6401 L-288108 6112 L-284477 5823 L-283349 5534 L-283195 5245 L-282169 4667 L-278454 4378 L-277237 3800 L-275418 3222 L-272632 2933 L-272071 2355 L-268183 2355 L-265707 2066 L-264372 2066 L-263868 1777 L-263385 1488 L-260696 1488 L-256924 1488 L-254467 1488 L-253287 1488 L-252648 1199 L-250288 621 L-250211 332 L-249164 43 L-249070 -534 L-248567 -534 L-248122 -534 L-248064 -534 L-247850 -534 L-244891 -1112 L-242183 -1401 L-242028 -1690 L-238508 -1979 L-237985 -2557 L-237017 -3135 L-236668 -3424 L-235625 -4002 L-234696 -4580 L-234270 -4869 L-232761 -4869 L-231794 -5158 L-231775 -5447 L-229879 -26546 L-229763 -48222 L-229716 -69609 L-229691 -90997 L-226687 -91286 L-224656 -91864 L-222895 -92153 L-222528 -92442 L-222083 -93020 L-221716 -93309 L-221302 -93887 L-219317 -94176 L-219104 -94176 L-218949 -94465 L-217344 -94465 L-216222 -94754 L-215274 -95043 L-214016 -95621 L-212372 -95910 L-211192 -96488 L-204603 -96777 L-204556 -97066 L-204150 -97355 L-203105 -97644 L-202970 -97933 L-201287 -98511 L-201267 -98800 L-199930 -99378 L-198694 -99667 L-198540 -99956 L-198166 -100534 L-197960 -100823 L-197650 -101112 L-196877 -101690 L-194555 -101979 L-193897 -102268 L-191770 -102557 L-190047 -102846 L-189854 -103424 L-187300 -103713 L-187024 -104291 L-186836 -104869 L-186003 -105158 L-185231 -105447 L-184533 -105736 L-179532 -105736 L-179156 -106315 L-174903 -106604 L-174416 -77991 L-174397 -77991 L-174318 -78280 L-174243 -78569 L-174223 -108049 L-173410 -108338 L-172656 -108916 L-171437 -109205 L-170005 -109205 L-169909 -109494 L-169735 -109494 L-169380 -110072 L-168071 -110361 L-166214 -110650 L-164511 -111228 L-164009 -111517 L-163743 -111806 L-163350 -112095 L-163216 -112384 L-162306 -112673 L-161930 -112962 L-161001 -112962 L-160662 -113251 L-160622 -113251 L-160585 -113540 L-158669 -113540 L-158496 -113829 L-156967 -113829 L-156639 -114118 L-156523 -114407 L-156115 -114985 L-155767 -115274 L-154124 -115852 L-153573 -116141 L-153330 -116430 L-152788 -116719 L-151957 -117297 L-151415 -117586 L-149881 -118164 L-149788 -118453 L-149752 -118742 L-149616 -119031 L-149228 -119320 L-148204 -119609 L-146327 -119898 L-146231 -120187 L-145631 -110939 L-145263 -101112 L-144779 -90997 L-144741 -81170 L-143967 -80592 L-143909 -80881 L-143735 -81459 L-143541 -81748 L-141936 -82326 L-141916 -82615 L-141761 -82037 L-141646 -81748 L-140466 -81459 L-140311 -80592 L-139644 -80592 L-137196 -56893 L-134681 -32615 L-132011 -9205 L-124312 14205 L-118644 14205 L-116430 13916 L-116407 13916 L-115433 19696 L-115413 19696 L-114549 19118 L-111809 18829 L-106010 12760 L-105857 12182 L-103071 11893 L-89463 11315 L-88717 11026 L-84306 10447 L-67960 10158 L-67728 9580 L-67191 9291 L-58731 9002 L-50026 8713 L-49813 8424 L-47841 8135 L-45055 8135 L-40567 8424 L-40412 8135 L-40243 8135 L-40103 7846 L-39812 7268 L-39773 6979 L-39503 6690 L-39331 6401 L-38921 6112 L-37800 5823 L-36620 5534 L-35343 5245 L-32479 4956 L-29559 4667 L-27567 4378 L-26019 3800 L-22981 3511 L-13657 3222 L-13133 2933 L-7409 2933 L-5902 2644 L-5088 2644 L-3404 2066 L-2683 1777 L-2514 1488 L-1469 1199 L597 910 L1959 621 L6402 332 L6500 43" />
</svg>
