<svg xmlns="http://www.w3.org/2000/svg" version="1.1" viewBox="0 0 6500 1000">
	<path fill="none" stroke="gold" stroke-width="125" stroke-linecap="round" stroke-linejoin="round" d="M0 59192  L-219850 59192 L-217246 58891 L-215578 58591 L-197248 57990 L-197078 57390 L-189920 56789 L-189887 56789 L-176456 56489 L-173535 56789 L-160194 55888 L-156025 54687 L-154865 53186 L-154246 51684 L-152234 50783 L-148462 50183 L-147862 49582 L-147533 48981 L-147320 48381 L-146778 47780 L-145540 45378 L-144361 42975 L-141497 40573 L-140975 38171 L-136119 37570 L-133182 36969 L-133139 36369 L-132831 35768 L-132579 35168 L-129984 34567 L-125729 34567 L-125711 34567 L-124474 34567 L-122596 34567 L-120643 33966 L-119695 33366 L-119424 32765 L-119114 32465 L-119016 32165 L-118186 32165 L-116155 32465 L-115864 29762 L-113718 28561 L-113563 26759 L-109906 24957 L-109655 25858 L-109557 25558 L-109040 26459 L-106888 27960 L-105960 29462 L-104434 30963 L-103194 30963 L-101648 30663 L-98686 30063 L-97564 29462 L-97255 28861 L-96044 28561 L-93037 31864 L-93017 31564 L-92670 31264 L-92457 30963 L-92330 26759 L-92089 26159 L-92051 25558 L-92031 24957 L-92012 24357 L-91953 23756 L-91894 23156 L-91876 22555 L-91433 21954 L-90194 21354 L-88648 20753 L-85261 20153 L-79534 19852 L-79333 19552 L-77697 19252 L-75975 18951 L-74543 18651 L-74311 18351 L-73595 18051 L-67463 17750 L-67095 17150 L-66941 16549 L-66362 15948 L-66070 15348 L-65103 14747 L-64793 14147 L-64194 13546 L-62588 13546 L-61853 13546 L-61543 13846 L-60775 13846 L-58738 13246 L-58313 12645 L-57501 12345 L-50072 11744 L-49549 11144 L-49375 10543 L-48640 9942 L-47073 9342 L-46667 9042 L-44442 8441 L-43494 8141 L-43069 7840 L-42739 7840 L-41695 7540 L-39587 6939 L-39335 6339 L-38716 5738 L-37903 5438 L-35795 4837 L-35747 4237 L-33819 3636 L-33493 3036 L-33358 2435 L-32855 2135 L-31442 1534 L-30939 333 L-30417 -567 L-26858 -1768 L-26123 -2969 L-23698 -2969 L-22408 -3570 L-22001 -3870 L-18849 -3870 L-18694 -3870 L-18674 -3570 L-18307 -3570 L-17049 -3270 L-16334 -2969 L-15444 -2969 L-15037 -2969 L-14108 -2969 L-13000 -3270 L-12697 -2069 L-6448 -1468 L-5500 -867 L-3874 -267 L-3373 33 L302 333 L1135 633 L5088 933 L6500 33" />
</svg>
