<svg xmlns="http://www.w3.org/2000/svg" version="1.1" viewBox="0 0 6500 1000">
	<path fill="none" stroke="gold" stroke-width="125" stroke-linecap="round" stroke-linejoin="round" d="M0 1039  L-719551 1039 L-716947 1039 L-715279 1039 L-696949 1039 L-696779 1039 L-689621 1039 L-689588 1039 L-676157 1039 L-673236 1039 L-659895 1039 L-655726 1038 L-654566 1038 L-653946 1038 L-651935 1038 L-648163 1038 L-647563 1038 L-647234 1037 L-647021 1037 L-646479 1037 L-645241 1037 L-644062 1036 L-641198 1036 L-640676 1036 L-635820 1035 L-632883 1035 L-632840 1035 L-632532 1035 L-632280 1035 L-629685 1035 L-625429 1035 L-625412 1035 L-624175 1035 L-622297 1035 L-620344 1035 L-619396 1035 L-619125 1035 L-618815 1034 L-618717 1034 L-617887 1034 L-615856 1034 L-615565 1034 L-613419 1034 L-613264 1033 L-609607 1033 L-609356 1033 L-609258 1033 L-608741 1033 L-606589 1034 L-605661 1034 L-604134 1034 L-602895 1034 L-601349 1034 L-598387 1034 L-597265 1034 L-596956 1034 L-595744 1034 L-592738 1034 L-592718 1034 L-592371 1034 L-592158 1034 L-592031 1033 L-591790 1033 L-591752 1033 L-591732 1033 L-591713 1033 L-591654 1033 L-591595 1033 L-591577 1033 L-591134 1033 L-589895 1033 L-588349 1032 L-584961 1032 L-579235 1032 L-579034 1032 L-577398 1032 L-575676 1032 L-574244 1032 L-574011 1032 L-573296 1032 L-567164 1032 L-566796 1032 L-566642 1032 L-566063 1032 L-565771 1031 L-564804 1031 L-564494 1031 L-563895 1031 L-562289 1031 L-561554 1031 L-561244 1031 L-560475 1031 L-558439 1031 L-558014 1031 L-557201 1031 L-549773 1031 L-549250 1031 L-549076 1031 L-548341 1030 L-546774 1030 L-546368 1030 L-544143 1030 L-543195 1030 L-542770 1030 L-542440 1030 L-541396 1030 L-539288 1030 L-539036 1030 L-538417 1030 L-537604 1030 L-535496 1030 L-535448 1029 L-533519 1029 L-533194 1029 L-533059 1029 L-532556 1029 L-531143 1029 L-530640 1029 L-530118 1029 L-526559 1028 L-525823 1028 L-523399 1028 L-522109 1028 L-521702 1028 L-518550 1028 L-518395 1028 L-518375 1028 L-518008 1028 L-516750 1028 L-516035 1028 L-515145 1028 L-514738 1028 L-513809 1028 L-512701 1028 L-512398 1028 L-506149 1028 L-505201 1029 L-503575 1029 L-503073 1029 L-499398 1029 L-498565 1029 L-494612 1029 L-493200 1029 L-490711 1029 L-490035 1029 L-489996 1028 L-489125 1028 L-485914 1028 L-483051 1028 L-482083 1028 L-480961 1028 L-480942 1028 L-479317 1028 L-478853 1028 L-478761 1028 L-472392 1028 L-471444 1028 L-468987 1028 L-468114 1028 L-466878 1027 L-464877 1027 L-464479 1027 L-463043 1027 L-461017 1027 L-460804 1027 L-459624 1027 L-458115 1027 L-458095 1027 L-456083 1027 L-455213 1027 L-454342 1027 L-453758 1027 L-453220 1026 L-452563 1026 L-451324 1026 L-450764 1026 L-449583 1026 L-448345 1026 L-448307 1026 L-447920 1026 L-447378 1026 L-446604 1026 L-445482 1026 L-443393 1026 L-443060 1026 L-442774 1025 L-441845 1025 L-441362 1025 L-440627 1025 L-436995 1025 L-435868 1025 L-435713 1025 L-434687 1025 L-430972 1025 L-429755 1025 L-427936 1025 L-425151 1025 L-424589 1025 L-420701 1025 L-418225 1024 L-416890 1024 L-416387 1024 L-415903 1024 L-413214 1024 L-409442 1024 L-406985 1024 L-405805 1024 L-405166 1024 L-402807 1024 L-402729 1024 L-401682 1024 L-401588 1024 L-401085 1024 L-400640 1024 L-400582 1024 L-400369 1024 L-397409 1024 L-394701 1024 L-394547 1024 L-391026 1024 L-390503 1024 L-389536 1024 L-389187 1023 L-388143 1023 L-387214 1023 L-386789 1023 L-385280 1023 L-384313 1023 L-384294 1023 L-382398 1019 L-382282 1015 L-382234 1011 L-382209 1007 L-379205 1007 L-377175 1007 L-375414 1007 L-375047 1007 L-374601 1007 L-374234 1007 L-373820 1007 L-371835 1007 L-371622 1007 L-371467 1007 L-369862 1007 L-368740 1007 L-367792 1007 L-366535 1006 L-364890 1006 L-363710 1006 L-357121 1006 L-357074 1006 L-356669 1006 L-355623 1006 L-355488 1006 L-353805 1006 L-353786 1006 L-352449 1006 L-351213 1006 L-351058 1006 L-350684 1006 L-350478 1005 L-350169 1005 L-349395 1005 L-347073 1005 L-346416 1005 L-344288 1005 L-342565 1005 L-342372 1005 L-339819 1005 L-339542 1005 L-339354 1005 L-338522 1005 L-337749 1005 L-337051 1005 L-332050 1005 L-331675 1004 L-327422 1004 L-326935 1010 L-326915 1010 L-326836 1010 L-326761 1010 L-326741 1004 L-325928 1004 L-325175 1004 L-323956 1004 L-322524 1004 L-322427 1004 L-322253 1004 L-321899 1004 L-320589 1004 L-318732 1004 L-317030 1004 L-316527 1004 L-316261 1003 L-315868 1003 L-315734 1003 L-314824 1003 L-314448 1003 L-313519 1003 L-313180 1003 L-313141 1003 L-313103 1003 L-311188 1003 L-311014 1003 L-309485 1003 L-309157 1003 L-309041 1003 L-308634 1003 L-308286 1003 L-306642 1003 L-306091 1003 L-305848 1003 L-305307 1003 L-304475 1002 L-303934 1002 L-302399 1002 L-302307 1002 L-302270 1002 L-302134 1002 L-301747 1002 L-300722 1002 L-298845 1002 L-298749 1002 L-298149 1004 L-297782 1005 L-297297 1007 L-297259 1009 L-296485 1009 L-296428 1009 L-296253 1009 L-296060 1009 L-294454 1009 L-294434 1009 L-294279 1009 L-294164 1009 L-292984 1009 L-292829 1009 L-292162 1009 L-289714 1014 L-287199 1018 L-284530 1022 L-276830 1027 L-271163 1027 L-268948 1027 L-268925 1027 L-267951 1028 L-267931 1028 L-267067 1028 L-264327 1028 L-258529 1026 L-258375 1026 L-255589 1026 L-241981 1026 L-241235 1026 L-236824 1026 L-220478 1026 L-220246 1026 L-219709 1026 L-211250 1026 L-202544 1026 L-202332 1026 L-200359 1026 L-197573 1026 L-193085 1026 L-192931 1026 L-192762 1026 L-192621 1026 L-192330 1025 L-192292 1025 L-192021 1025 L-191849 1025 L-191439 1025 L-190319 1025 L-189138 1025 L-187861 1025 L-184998 1025 L-182077 1025 L-180085 1025 L-178538 1025 L-175500 1025 L-166175 1025 L-165651 1025 L-159928 1025 L-158420 1025 L-157606 1025 L-155922 1024 L-155201 1024 L-155033 1024 L-153988 1024 L-151920 1024 L-150558 1024 L-146115 1024 L-146018 1024 L-145979 1024 L-145960 1024 L-145128 1024 L-145050 1024 L-142478 1024 L-139228 1024 L-139073 1024 L-138125 1024 L-136384 1024 L-135669 1024 L-132128 1024 L-125551 1024 L-124133 1025 L-124113 1025 L-123162 1025 L-119688 1025 L-118934 1025 L-118373 1025 L-117591 1024 L-110087 1024 L-108488 1024 L-106914 1024 L-103729 1024 L-99396 1024 L-90826 1024 L-82080 1024 L-79006 1024 L-75740 1024 L-75193 1024 L-68056 1024 L-62388 1024 L-48324 1024 L-42313 1024 L-37606 1024 L-33603 1024 L-28496 1024 L-18782 1024 L-3211 1024 L-128 1023 L173 999 L193 970 L211 936 L231 899 L251 882 L270 867 L289 854 L316 841 L337 828 L365 815 L400 800 L414 787 L427 777 L445 768 L464 761 L484 754 L502 748 L522 741 L542 734 L563 727 L580 720 L598 713 L619 707 L639 700 L657 693 L676 686 L696 678 L716 671 L734 663 L753 657 L774 650 L799 644 L814 637 L831 631 L850 625 L870 619 L889 612 L908 606 L928 599 L948 593 L966 588 L985 582 L1006 577 L1026 572 L1043 568 L1062 564 L1083 560 L1101 556 L1121 552 L1140 549 L1160 546 L1179 543 L1199 540 L1217 537 L1245 534 L1266 530 L1293 526 L1327 521 L1342 517 L1355 514 L1373 511 L1392 508 L1412 506 L1431 502 L1450 499 L1470 496 L1491 493 L1508 491 L1527 488 L1547 485 L1567 482 L1586 478 L1604 474 L1624 470 L1644 465 L1663 461 L1682 457 L1703 452 L1727 447 L1742 442 L1759 437 L1779 432 L1798 427 L1818 422 L1836 417 L1856 412 L1877 407 L1895 402 L1914 397 L1934 392 L1954 388 L1972 384 L1991 380 L2011 376 L2030 372 L2050 369 L2068 365 L2088 362 L2108 358 L2127 354 L2146 351 L2175 347 L2194 344 L2222 341 L2259 337 L2274 333 L2287 329 L2304 326 L2321 324 L2341 321 L2359 319 L2379 317 L2399 315 L2419 313 L2436 311 L2455 309 L2476 306 L2495 304 L2514 301 L2533 298 L2553 295 L2572 292 L2591 289 L2610 286 L2631 283 L2655 279 L2670 276 L2687 273 L2707 270 L2726 267 L2746 264 L2765 260 L2785 257 L2805 253 L2824 250 L2842 247 L2862 244 L2883 242 L2901 239 L2920 236 L2940 234 L2958 231 L2978 228 L2997 226 L3017 223 L3036 221 L3056 218 L3074 216 L3103 213 L3123 211 L3151 208 L3187 204 L3201 200 L3214 197 L3232 194 L3250 192 L3270 190 L3288 187 L3308 185 L3328 182 L3349 179 L3367 176 L3384 173 L3405 169 L3425 165 L3443 162 L3462 158 L3482 154 L3502 150 L3520 146 L3539 143 L3560 141 L3585 139 L3600 137 L3617 135 L3636 133 L3656 131 L3675 129 L3694 127 L3714 125 L3735 123 L3752 122 L3771 120 L3792 118 L3812 115 L3829 112 L3848 110 L3868 109 L3887 107 L3907 106 L3926 105 L3946 104 L3965 102 L3984 101 L4003 99 L4031 98 L4051 97 L4079 95 L4114 93 L4128 92 L4141 91 L4160 90 L4178 89 L4198 87 L4217 86 L4236 85 L4256 84 L4277 83 L4294 82 L4313 81 L4333 80 L4353 79 L4371 78 L4390 76 L4410 75 L4430 74 L4448 73 L4467 72 L4489 71 L4513 70 L4528 69 L4545 69 L4565 68 L4584 67 L4603 66 L4622 64 L4642 63 L4663 62 L4681 61 L4700 60 L4720 59 L4740 58 L4758 57 L4777 56 L4797 55 L4816 55 L4835 54 L4854 53 L4874 52 L4894 52 L4913 51 L4932 52 L4960 53 L4980 54 L5008 55 L5045 54 L5061 54 L5073 53 L5091 52 L5107 52 L5127 51 L5145 51 L5165 50 L5185 49 L5206 49 L5223 48 L5241 48 L5262 47 L5282 47 L5300 46 L5319 45 L5339 45 L5359 44 L5377 43 L5396 43 L5417 42 L5442 42 L5456 41 L5474 41 L5493 40 L5513 39 L5532 39 L5551 38 L5571 37 L5592 36 L5609 36 L5628 35 L5649 34 L5669 33 L5687 32 L5705 32 L5725 31 L5744 30 L5764 29 L5783 29 L5803 28 L5822 27 L5841 27 L5860 26 L5888 25 L5908 25 L5936 24 L5971 23 L5985 22 L5998 22 L6017 21 L6035 20 L6055 20 L6074 19 L6093 18 L6113 18 L6134 17 L6151 16 L6170 16 L6190 15 L6210 14 L6229 13 L6247 12 L6267 11 L6288 10 L6306 9 L6324 8 L6346 8 L6371 7 L6385 6 L6403 5 L6422 4 L6441 3 L6460 2 L6479 1 L6500 0" />
</svg>
