<svg xmlns="http://www.w3.org/2000/svg" version="1.1" viewBox="0 0 6500 1000">
	<path fill="none" stroke="gold" stroke-width="125" stroke-linecap="round" stroke-linejoin="round" d="M0 11586  L-448723 11586 L-446119 11537 L-444451 11488 L-426122 11390 L-425952 11291 L-418794 11193 L-418761 11193 L-405330 11144 L-402408 11193 L-389067 11046 L-384898 10850 L-383738 10605 L-383119 10359 L-381107 10212 L-377335 10114 L-376735 10016 L-376406 9918 L-376193 9819 L-375652 9721 L-374414 9329 L-373235 8936 L-370370 8544 L-369848 8151 L-364993 8053 L-362055 7955 L-362012 7857 L-361704 7759 L-361452 7660 L-358857 7562 L-354602 7562 L-354584 7562 L-353347 7562 L-351470 7562 L-349516 7464 L-348568 7366 L-348297 7268 L-347987 7219 L-347889 7170 L-347059 7170 L-345028 7219 L-344738 6777 L-342591 6581 L-342436 6287 L-338780 5992 L-338529 6139 L-338430 6090 L-337913 6237 L-335762 6483 L-334833 6728 L-333307 6973 L-332067 6973 L-330521 6924 L-327559 6826 L-326437 6728 L-326128 6630 L-324917 6581 L-321910 7121 L-321890 7072 L-321543 7023 L-321330 6973 L-321204 6287 L-320962 6188 L-320924 6090 L-320905 5992 L-320885 5894 L-320826 5796 L-320768 5698 L-320750 5600 L-320307 5501 L-319067 5403 L-317522 5305 L-314134 5207 L-308408 5158 L-308206 5109 L-306570 5060 L-304848 5011 L-303416 4962 L-303184 4913 L-302469 4864 L-296336 4815 L-295969 4716 L-295814 4618 L-295236 4520 L-294943 4422 L-293976 4324 L-293666 4226 L-293067 4128 L-291461 4128 L-290726 4128 L-290416 4177 L-289648 4177 L-287612 4078 L-287186 3980 L-286374 3931 L-278945 3833 L-278422 3735 L-278249 3637 L-277514 3539 L-275946 3441 L-275540 3392 L-273315 3293 L-272367 3244 L-271942 3195 L-271612 3195 L-270568 3146 L-268460 3048 L-268208 2950 L-267589 2852 L-266776 2803 L-264668 2705 L-264620 2606 L-262692 2508 L-262366 2410 L-262231 2312 L-261728 2263 L-260315 2165 L-259812 1969 L-259290 1821 L-255731 1625 L-254996 1429 L-252571 1429 L-251282 1331 L-250875 1282 L-247722 1282 L-247567 1282 L-247547 1331 L-247180 1331 L-245922 1380 L-245207 1429 L-244317 1429 L-243910 1429 L-242982 1429 L-241873 1380 L-241570 1576 L-235321 1674 L-234374 1772 L-232748 1870 L-232246 1920 L-228570 1969 L-227738 2018 L-223785 2067 L-222373 1920 L-219883 1821 L-219207 1723 L-219168 1674 L-218297 1674 L-215086 1625 L-212223 1576 L-211255 1527 L-210134 1429 L-210115 1331 L-208490 1233 L-208026 1085 L-207934 1036 L-201564 987 L-200616 938 L-198159 889 L-197287 791 L-196051 742 L-194049 693 L-193652 595 L-192215 497 L-190189 447 L-189976 349 L-188796 300 L-187287 251 L-187267 202 L-185255 153 L-184386 55 L-183515 6 L-182930 -91 L-182393 -189 L-181735 -288 L-180497 -386 L-179936 -435 L-178755 -484 L-177518 -533 L-177479 -582 L-177092 -631 L-176550 -729 L-175777 -778 L-174654 -827 L-172565 -925 L-172232 -1024 L-171946 -1122 L-171018 -1171 L-170534 -1269 L-169799 -1318 L-166168 -1367 L-165040 -1416 L-164885 -1465 L-163859 -1563 L-160145 -1612 L-158927 -1710 L-157109 -1809 L-154323 -1858 L-153762 -1956 L-149874 -1956 L-147397 -2005 L-146062 -2005 L-145559 -2054 L-145076 -2103 L-142386 -2103 L-138615 -2103 L-136158 -2103 L-134978 -2103 L-134339 -2152 L-131979 -2250 L-131902 -2299 L-130854 -2348 L-130761 -2447 L-130258 -2447 L-129812 -2447 L-129755 -2447 L-129541 -2447 L-126581 -2545 L-123874 -2594 L-123719 -2643 L-120198 -2692 L-119675 -2790 L-118708 -2888 L-118359 -2937 L-117315 -3035 L-116387 -3133 L-115961 -3183 L-114452 -3183 L-113485 -3232 L-113466 -3281 L-111570 -6863 L-111454 -10543 L-111406 -14174 L-111382 -17805 L-108378 -17854 L-106347 -17952 L-104586 -18001 L-104219 -18050 L-103773 -18148 L-103407 -18197 L-102993 -18295 L-101008 -18344 L-100794 -18344 L-100640 -18394 L-99034 -18394 L-97913 -18443 L-96964 -18492 L-95707 -18590 L-94062 -18639 L-92883 -18737 L-86293 -18786 L-86247 -18835 L-85841 -18884 L-84796 -18933 L-84660 -18982 L-82978 -19080 L-82958 -19130 L-81621 -19228 L-80385 -19277 L-80231 -19326 L-79857 -19424 L-79651 -19473 L-79341 -19522 L-78567 -19620 L-76246 -19669 L-75588 -19718 L-73460 -19767 L-71738 -19816 L-71544 -19915 L-68991 -19964 L-68715 -20062 L-68526 -20160 L-67694 -20209 L-66921 -20258 L-66223 -20307 L-61223 -20307 L-60847 -20405 L-56594 -20454 L-56107 -15597 L-56088 -15597 L-56009 -15646 L-55933 -15695 L-55914 -20700 L-55101 -20749 L-54347 -20847 L-53128 -20896 L-51696 -20896 L-51600 -20945 L-51425 -20945 L-51071 -21043 L-49762 -21092 L-47904 -21141 L-46202 -21239 L-45699 -21289 L-45434 -21338 L-45041 -21387 L-44906 -21436 L-43997 -21485 L-43620 -21534 L-42692 -21534 L-42353 -21583 L-42313 -21583 L-42275 -21632 L-40360 -21632 L-40186 -21681 L-38658 -21681 L-38329 -21730 L-38213 -21779 L-37806 -21877 L-37458 -21926 L-35814 -22025 L-35263 -22074 L-35020 -22123 L-34479 -22172 L-33648 -22270 L-33106 -22319 L-31571 -22417 L-31479 -22466 L-31442 -22515 L-31306 -22564 L-30919 -22613 L-29894 -22662 L-28018 -22711 L-27921 -22761 L-27321 -21190 L-26954 -19522 L-26470 -17805 L-26431 -16136 L-25658 -16038 L-25600 -16087 L-25426 -16185 L-25232 -16235 L-23627 -16333 L-23607 -16382 L-23452 -16284 L-23336 -16235 L-22157 -16185 L-22002 -16038 L-21335 -16038 L-18887 -12015 L-16372 -7893 L-13702 -3919 L-6003 55 L-335 55 L1878 6 L1902 6 L2876 987 L2896 987 L3759 889 L6500 840" />
</svg>
