<svg xmlns="http://www.w3.org/2000/svg" version="1.1" viewBox="0 0 6500 1000">
	<path fill="none" stroke="gold" stroke-width="125" stroke-linecap="round" stroke-linejoin="round" d="M0 1017  L-716920 1017 L-714316 1017 L-712648 1017 L-694318 1016 L-694148 1016 L-686990 1016 L-686957 1016 L-673526 1016 L-670604 1016 L-657264 1016 L-653095 1016 L-651935 1016 L-651315 1015 L-649304 1015 L-645532 1015 L-644932 1015 L-644603 1015 L-644390 1015 L-643848 1015 L-642610 1014 L-641431 1014 L-638567 1013 L-638045 1013 L-633189 1013 L-630252 1012 L-630209 1012 L-629901 1012 L-629649 1012 L-627054 1012 L-622798 1012 L-622780 1012 L-621544 1012 L-619666 1012 L-617713 1012 L-616765 1012 L-616494 1012 L-616184 1012 L-616086 1011 L-615256 1011 L-613225 1012 L-612934 1011 L-610788 1011 L-610633 1010 L-606976 1010 L-606725 1010 L-606627 1010 L-606109 1010 L-603958 1011 L-603029 1011 L-601503 1011 L-600264 1011 L-598717 1011 L-595756 1011 L-594634 1011 L-594325 1011 L-593113 1011 L-590107 1011 L-590087 1011 L-589740 1011 L-589527 1011 L-589400 1010 L-589159 1010 L-589121 1010 L-589101 1010 L-589082 1010 L-589023 1010 L-588964 1010 L-588946 1010 L-588503 1010 L-587264 1009 L-585718 1009 L-582330 1009 L-576604 1009 L-576403 1009 L-574767 1009 L-573045 1009 L-571613 1009 L-571380 1009 L-570665 1009 L-564533 1009 L-564165 1009 L-564011 1008 L-563432 1008 L-563140 1008 L-562173 1008 L-561863 1008 L-561264 1008 L-559658 1008 L-558923 1008 L-558613 1008 L-557844 1008 L-555808 1008 L-555383 1008 L-554570 1008 L-547142 1008 L-546619 1007 L-546445 1007 L-545710 1007 L-544143 1007 L-543737 1007 L-541512 1007 L-540564 1007 L-540139 1007 L-539809 1007 L-538765 1007 L-536657 1007 L-536405 1006 L-535786 1006 L-534973 1006 L-532865 1006 L-532817 1006 L-530888 1006 L-530563 1006 L-530428 1006 L-529925 1006 L-528512 1006 L-528009 1005 L-527487 1005 L-523927 1005 L-523192 1005 L-520768 1005 L-519478 1005 L-519071 1004 L-515919 1004 L-515764 1004 L-515744 1005 L-515377 1005 L-514119 1005 L-513404 1005 L-512514 1005 L-512107 1005 L-511178 1005 L-510070 1005 L-509766 1005 L-503518 1005 L-502570 1005 L-500944 1005 L-500442 1005 L-496767 1005 L-495934 1005 L-491981 1005 L-490569 1005 L-488080 1005 L-487404 1005 L-487365 1005 L-486494 1005 L-483283 1005 L-480420 1005 L-479452 1005 L-478330 1005 L-478311 1005 L-476686 1004 L-476222 1004 L-476130 1004 L-469761 1004 L-468813 1004 L-466355 1004 L-465483 1004 L-464247 1004 L-462246 1004 L-461848 1004 L-460412 1004 L-458386 1004 L-458173 1003 L-456993 1003 L-455484 1003 L-455464 1003 L-453452 1003 L-452582 1003 L-451711 1003 L-451126 1003 L-450589 1003 L-449932 1003 L-448693 1003 L-448133 1002 L-446952 1002 L-445714 1002 L-445676 1002 L-445289 1002 L-444747 1002 L-443973 1002 L-442851 1002 L-440762 1002 L-440429 1002 L-440143 1002 L-439214 1002 L-438731 1001 L-437996 1001 L-434364 1001 L-433237 1001 L-433082 1001 L-432056 1001 L-428341 1001 L-427124 1001 L-425305 1001 L-422520 1001 L-421958 1001 L-418070 1001 L-415594 1001 L-414259 1001 L-413756 1001 L-413272 1000 L-410583 1000 L-406811 1000 L-404354 1000 L-403174 1000 L-402535 1000 L-400176 1000 L-400098 1000 L-399051 1000 L-398957 1000 L-398454 1000 L-398009 1000 L-397951 1000 L-397738 1000 L-394778 1000 L-392070 1000 L-391916 1000 L-388395 1000 L-387872 1000 L-386905 1000 L-386555 999 L-385512 999 L-384583 999 L-384158 999 L-382649 999 L-381682 999 L-381663 999 L-379767 995 L-379651 990 L-379603 986 L-379578 982 L-376574 982 L-374544 982 L-372783 982 L-372416 982 L-371970 981 L-371603 981 L-371189 981 L-369204 981 L-368991 981 L-368836 981 L-367231 981 L-366109 981 L-365161 981 L-363904 981 L-362259 981 L-361079 981 L-354490 981 L-354443 981 L-354038 981 L-352992 980 L-352857 980 L-351174 980 L-351155 980 L-349818 980 L-348582 980 L-348427 980 L-348053 980 L-347847 980 L-347538 980 L-346764 980 L-344442 980 L-343785 980 L-341657 979 L-339934 979 L-339741 979 L-337188 979 L-336911 979 L-336723 979 L-335891 979 L-335118 979 L-334420 979 L-329419 979 L-329044 979 L-324791 979 L-324304 984 L-324284 984 L-324205 984 L-324130 984 L-324110 978 L-323297 978 L-322544 978 L-321324 978 L-319893 978 L-319796 978 L-319622 978 L-319267 978 L-317958 978 L-316101 978 L-314399 978 L-313896 978 L-313630 978 L-313237 978 L-313103 978 L-312193 977 L-311817 977 L-310888 977 L-310549 977 L-310510 977 L-310472 977 L-308557 977 L-308383 977 L-306854 977 L-306526 977 L-306410 977 L-306003 977 L-305655 977 L-304011 977 L-303460 977 L-303217 977 L-302675 977 L-301844 977 L-301302 976 L-299768 976 L-299676 976 L-299639 976 L-299503 976 L-299116 976 L-298091 976 L-296214 976 L-296118 976 L-295518 978 L-295151 980 L-294666 982 L-294628 984 L-293854 984 L-293797 984 L-293622 984 L-293429 984 L-291823 984 L-291803 984 L-291648 984 L-291533 984 L-290353 984 L-290198 984 L-289531 984 L-287083 989 L-284568 994 L-281899 998 L-274199 1003 L-268532 1003 L-266317 1003 L-266294 1003 L-265320 1004 L-265300 1004 L-264436 1004 L-261696 1004 L-255898 1003 L-255744 1003 L-252958 1003 L-239350 1002 L-238604 1002 L-234193 1002 L-217847 1002 L-217615 1002 L-217078 1002 L-208618 1002 L-199913 1002 L-199701 1002 L-197728 1002 L-194942 1002 L-190454 1002 L-190300 1002 L-190130 1002 L-189990 1002 L-189699 1002 L-189661 1002 L-189390 1002 L-189218 1001 L-188808 1001 L-187688 1001 L-186507 1001 L-185230 1001 L-182367 1001 L-179446 1001 L-177454 1001 L-175907 1001 L-172869 1001 L-163544 1001 L-163020 1001 L-157296 1001 L-155789 1001 L-154975 1001 L-153291 1001 L-152570 1001 L-152402 1000 L-151357 1000 L-149289 1000 L-147927 1000 L-143484 1000 L-143387 1000 L-143348 1000 L-143329 1000 L-142497 1000 L-142419 1000 L-139847 1000 L-136597 1000 L-136442 1000 L-135494 1000 L-133753 1000 L-133038 1000 L-129497 1000 L-122920 1001 L-121502 1001 L-121481 1001 L-120531 1001 L-117057 1001 L-116303 1001 L-115742 1001 L-114960 1001 L-107455 1001 L-105857 1000 L-104283 1000 L-101098 1000 L-96765 1000 L-88195 1000 L-79449 1000 L-76375 1000 L-73109 1000 L-72562 1000 L-65425 1000 L-59757 1000 L-45693 1000 L-39682 1000 L-34975 1000 L-30972 1000 L-25865 1000 L-16151 1000 L-580 1000 L2502 999 L2804 973 L2824 941 L2842 904 L2862 863 L2882 845 L2901 829 L2920 814 L2947 800 L2968 786 L2996 772 L3031 755 L3045 742 L3058 730 L3077 720 L3095 713 L3115 705 L3133 698 L3153 691 L3173 683 L3194 675 L3211 668 L3229 660 L3250 653 L3270 646 L3288 638 L3307 630 L3327 622 L3347 614 L3365 606 L3384 599 L3405 592 L3430 584 L3445 578 L3462 571 L3481 564 L3501 558 L3520 550 L3539 543 L3559 536 L3580 530 L3597 523 L3616 517 L3637 512 L3657 506 L3675 502 L3694 497 L3714 493 L3732 488 L3752 484 L3771 481 L3791 477 L3810 474 L3830 471 L3848 468 L3876 464 L3897 460 L3924 456 L3958 451 L3973 446 L3986 443 L4004 440 L4023 437 L4043 434 L4062 430 L4081 427 L4101 423 L4122 420 L4139 417 L4158 414 L4178 411 L4198 407 L4217 403 L4235 399 L4255 394 L4275 390 L4294 385 L4313 380 L4334 375 L4358 369 L4373 364 L4390 358 L4410 353 L4429 348 L4449 342 L4467 336 L4487 331 L4508 325 L4526 320 L4545 315 L4565 310 L4585 305 L4603 300 L4622 296 L4642 292 L4661 288 L4681 284 L4699 280 L4719 276 L4739 272 L4758 269 L4777 265 L4806 261 L4825 257 L4853 254 L4890 249 L4905 245 L4918 241 L4935 238 L4952 235 L4972 232 L4990 230 L5010 228 L5030 226 L5050 224 L5068 221 L5086 218 L5107 216 L5127 213 L5145 210 L5164 207 L5184 204 L5203 200 L5222 197 L5241 193 L5262 190 L5287 186 L5301 183 L5318 180 L5338 176 L5357 173 L5377 169 L5396 165 L5416 162 L5436 158 L5455 155 L5473 151 L5494 148 L5514 145 L5532 142 L5551 139 L5571 136 L5589 134 L5609 131 L5628 128 L5648 125 L5667 122 L5687 120 L5706 117 L5734 114 L5754 112 L5782 108 L5818 104 L5832 100 L5845 96 L5863 93 L5881 91 L5901 89 L5919 86 L5939 83 L5959 80 L5980 77 L5998 73 L6015 70 L6036 66 L6056 62 L6074 58 L6093 53 L6113 49 L6133 45 L6151 41 L6170 38 L6191 35 L6216 33 L6231 31 L6248 29 L6267 27 L6287 24 L6306 22 L6325 20 L6345 18 L6366 16 L6383 14 L6402 12 L6423 10 L6443 7 L6460 4 L6479 2 L6500 0" />
</svg>
