<svg xmlns="http://www.w3.org/2000/svg" version="1.1" viewBox="0 0 6500 1000">
	<path fill="none" stroke="gold" stroke-width="125" stroke-linecap="round" stroke-linejoin="round" d="M0 5076  L-416991 5076 L-414387 5069 L-412719 5062 L-394389 5047 L-394219 5033 L-387061 5018 L-387028 5018 L-373597 5011 L-370675 5018 L-357334 4997 L-353165 4968 L-352005 4931 L-351386 4895 L-349374 4873 L-345603 4859 L-345003 4844 L-344674 4830 L-344461 4815 L-343919 4801 L-342681 4743 L-341502 4685 L-338638 4627 L-338116 4569 L-333260 4554 L-330323 4540 L-330280 4525 L-329971 4511 L-329720 4496 L-327125 4482 L-322869 4482 L-322851 4482 L-321614 4482 L-319737 4482 L-317784 4467 L-316836 4453 L-316565 4438 L-316255 4431 L-316157 4424 L-315326 4424 L-313296 4431 L-313005 4366 L-310859 4337 L-310703 4294 L-307047 4250 L-306796 4272 L-306697 4265 L-306180 4286 L-304029 4323 L-303100 4359 L-301574 4395 L-300335 4395 L-298788 4388 L-295826 4373 L-294705 4359 L-294395 4344 L-293184 4337 L-290178 4417 L-290158 4410 L-289811 4402 L-289597 4395 L-289471 4294 L-289230 4279 L-289192 4265 L-289172 4250 L-289153 4236 L-289094 4221 L-289035 4207 L-289017 4192 L-288574 4178 L-287335 4163 L-285789 4149 L-282401 4134 L-276675 4127 L-276473 4120 L-274838 4112 L-273116 4105 L-271684 4098 L-271451 4091 L-270736 4083 L-264604 4076 L-264236 4062 L-264082 4047 L-263503 4033 L-263211 4018 L-262243 4004 L-261934 3989 L-261335 3975 L-259728 3975 L-258993 3975 L-258684 3982 L-257915 3982 L-255879 3967 L-255454 3953 L-254641 3946 L-247213 3931 L-246690 3917 L-246516 3902 L-245781 3888 L-244213 3873 L-243808 3866 L-241583 3851 L-240635 3844 L-240210 3837 L-239880 3837 L-238836 3830 L-236728 3815 L-236475 3801 L-235857 3786 L-235044 3779 L-232936 3764 L-232888 3750 L-230959 3735 L-230634 3721 L-230499 3706 L-229995 3699 L-228583 3685 L-228080 3656 L-227558 3634 L-223998 3605 L-223263 3576 L-220838 3576 L-219549 3561 L-219142 3554 L-215990 3554 L-215835 3554 L-215814 3561 L-215448 3561 L-214190 3569 L-213475 3576 L-212585 3576 L-212178 3576 L-211249 3576 L-210141 3569 L-209837 3598 L-203589 3612 L-202641 3627 L-201015 3641 L-200513 3648 L-196838 3656 L-196005 3663 L-192052 3670 L-190640 3648 L-188151 3634 L-187474 3619 L-187436 3612 L-186565 3612 L-183354 3605 L-180491 3598 L-179523 3590 L-178401 3576 L-178382 3561 L-176757 3547 L-176293 3525 L-176201 3518 L-169832 3511 L-168883 3503 L-166426 3496 L-165554 3482 L-164318 3474 L-162317 3467 L-161919 3453 L-160483 3438 L-158457 3431 L-158243 3416 L-157063 3409 L-155555 3402 L-155535 3395 L-153522 3387 L-152653 3373 L-151782 3366 L-151197 3351 L-150660 3337 L-150002 3322 L-148764 3308 L-148204 3300 L-147023 3293 L-145785 3286 L-145746 3279 L-145360 3271 L-144818 3257 L-144044 3250 L-142922 3242 L-140833 3228 L-140499 3213 L-140214 3199 L-139285 3192 L-138802 3177 L-138066 3170 L-134435 3163 L-133308 3155 L-133153 3148 L-132127 3134 L-128412 3126 L-127195 3112 L-125376 3097 L-122591 3090 L-122029 3076 L-118141 3076 L-115665 3068 L-114330 3068 L-113826 3061 L-113343 3054 L-110654 3054 L-106882 3054 L-104425 3054 L-103245 3054 L-102606 3047 L-100247 3032 L-100169 3025 L-99122 3018 L-99028 3003 L-98525 3003 L-98080 3003 L-98022 3003 L-97808 3003 L-94849 2989 L-92141 2981 L-91986 2974 L-88466 2967 L-87943 2952 L-86975 2938 L-86626 2931 L-85583 2916 L-84654 2902 L-84228 2894 L-82719 2894 L-81752 2887 L-81734 2880 L-79838 2351 L-79722 1807 L-79674 1271 L-79649 734 L-76645 727 L-74614 713 L-72854 705 L-72486 698 L-72041 684 L-71674 676 L-71260 662 L-69275 655 L-69062 655 L-68907 647 L-67302 647 L-66180 640 L-65232 633 L-63974 618 L-62330 611 L-61150 597 L-54561 589 L-54514 582 L-54108 575 L-53063 568 L-52928 560 L-51245 546 L-51225 539 L-49889 524 L-48652 517 L-48498 510 L-48124 495 L-47918 488 L-47609 481 L-46835 466 L-44513 459 L-43855 452 L-41728 444 L-40005 437 L-39812 423 L-37258 415 L-36982 401 L-36794 386 L-35961 379 L-35189 372 L-34491 365 L-29490 365 L-29114 350 L-24861 343 L-24374 1060 L-24355 1060 L-24276 1053 L-24201 1046 L-24181 307 L-23368 299 L-22615 285 L-21395 278 L-19963 278 L-19867 270 L-19693 270 L-19338 256 L-18029 249 L-16172 241 L-14469 227 L-13967 220 L-13701 212 L-13308 205 L-13174 198 L-12264 191 L-11888 183 L-10959 183 L-10620 176 L-10581 176 L-10543 169 L-8627 169 L-8454 162 L-6925 162 L-6597 154 L-6481 147 L-6074 133 L-5725 125 L-4082 111 L-3531 104 L-3288 96 L-2746 89 L-1915 75 L-1373 67 L160 53 L252 46 L289 38 L425 31 L813 24 L1837 17 L3714 9 L3810 2 L4410 234 L4777 481 L5262 734 L5300 981 L6074 995 L6131 988 L6306 973 L6500 966" />
</svg>
