<svg xmlns="http://www.w3.org/2000/svg" version="1.1" viewBox="0 0 6500 1000">
	<path fill="none" stroke="gold" stroke-width="125" stroke-linecap="round" stroke-linejoin="round" d="M0 5151  L-415791 5151 L-413187 5143 L-411519 5136 L-393190 5121 L-393020 5107 L-385862 5092 L-385829 5092 L-372398 5085 L-369476 5092 L-356135 5070 L-351966 5040 L-350806 5004 L-350187 4967 L-348175 4945 L-344403 4930 L-343803 4915 L-343475 4901 L-343261 4886 L-342720 4871 L-341482 4812 L-340303 4754 L-337438 4695 L-336916 4636 L-332061 4621 L-329123 4606 L-329080 4592 L-328772 4577 L-328520 4562 L-325925 4548 L-321670 4548 L-321652 4548 L-320415 4548 L-318538 4548 L-316584 4533 L-315636 4518 L-315365 4503 L-315056 4496 L-314957 4489 L-314127 4489 L-312096 4496 L-311806 4430 L-309659 4401 L-309504 4356 L-305848 4312 L-305597 4334 L-305498 4327 L-304981 4349 L-302830 4386 L-301901 4423 L-300375 4459 L-299135 4459 L-297589 4452 L-294627 4437 L-293505 4423 L-293196 4408 L-291985 4401 L-288978 4481 L-288959 4474 L-288611 4467 L-288398 4459 L-288272 4356 L-288030 4342 L-287992 4327 L-287973 4312 L-287953 4298 L-287894 4283 L-287836 4268 L-287818 4253 L-287375 4239 L-286135 4224 L-284590 4209 L-281202 4195 L-275476 4187 L-275274 4180 L-273638 4172 L-271916 4165 L-270484 4158 L-270252 4150 L-269537 4143 L-263404 4136 L-263037 4121 L-262882 4106 L-262304 4092 L-262011 4077 L-261044 4062 L-260734 4047 L-260135 4033 L-258529 4033 L-257794 4033 L-257484 4040 L-256716 4040 L-254680 4025 L-254254 4011 L-253442 4003 L-246013 3989 L-245490 3974 L-245317 3959 L-244582 3944 L-243014 3930 L-242608 3922 L-240383 3908 L-239435 3900 L-239010 3893 L-238680 3893 L-237636 3886 L-235528 3871 L-235276 3856 L-234657 3842 L-233844 3834 L-231737 3819 L-231688 3805 L-229760 3790 L-229434 3775 L-229299 3761 L-228796 3753 L-227383 3739 L-226880 3709 L-226359 3687 L-222799 3658 L-222064 3628 L-219639 3628 L-218350 3614 L-217943 3606 L-214790 3606 L-214635 3606 L-214615 3614 L-214249 3614 L-212990 3621 L-212275 3628 L-211385 3628 L-210978 3628 L-210050 3628 L-208941 3621 L-208638 3650 L-202389 3665 L-201442 3680 L-199816 3694 L-199314 3702 L-195638 3709 L-194806 3716 L-190853 3724 L-189441 3702 L-186952 3687 L-186275 3672 L-186236 3665 L-185366 3665 L-182154 3658 L-179291 3650 L-178323 3643 L-177202 3628 L-177183 3614 L-175558 3599 L-175094 3577 L-175002 3569 L-168632 3562 L-167684 3555 L-165227 3547 L-164355 3533 L-163119 3525 L-161117 3518 L-160720 3503 L-159283 3488 L-157257 3481 L-157044 3466 L-155864 3459 L-154356 3452 L-154335 3444 L-152323 3437 L-151454 3422 L-150583 3415 L-149998 3400 L-149461 3385 L-148803 3371 L-147565 3356 L-147004 3349 L-145823 3341 L-144586 3334 L-144547 3327 L-144160 3319 L-143619 3305 L-142845 3297 L-141723 3290 L-139633 3275 L-139300 3260 L-139014 3246 L-138086 3238 L-137602 3224 L-136867 3216 L-133236 3209 L-132108 3202 L-131953 3194 L-130927 3180 L-127213 3172 L-125995 3157 L-124177 3143 L-121391 3135 L-120830 3121 L-116942 3121 L-114465 3113 L-113130 3113 L-112627 3106 L-112144 3099 L-109455 3099 L-105683 3099 L-103226 3099 L-102046 3099 L-101407 3091 L-99047 3077 L-98970 3069 L-97922 3062 L-97829 3047 L-97326 3047 L-96880 3047 L-96823 3047 L-96609 3047 L-93649 3032 L-90942 3025 L-90787 3018 L-87266 3010 L-86743 2996 L-85776 2981 L-85427 2974 L-84383 2959 L-83455 2944 L-83029 2937 L-81520 2937 L-80553 2929 L-80534 2922 L-78638 2385 L-78522 1834 L-78474 1289 L-78450 745 L-75446 738 L-73415 723 L-71654 716 L-71287 708 L-70842 694 L-70475 686 L-70061 671 L-68076 664 L-67863 664 L-67708 657 L-66102 657 L-64981 649 L-64032 642 L-62775 627 L-61130 620 L-59951 605 L-53361 598 L-53315 591 L-52909 583 L-51864 576 L-51728 568 L-50046 554 L-50026 546 L-48689 532 L-47453 524 L-47299 517 L-46925 502 L-46719 495 L-46409 488 L-45635 473 L-43314 466 L-42656 458 L-40528 451 L-38806 443 L-38612 429 L-36059 421 L-35783 407 L-35594 392 L-34762 385 L-33990 377 L-33291 370 L-28291 370 L-27915 355 L-23662 348 L-23175 1076 L-23156 1076 L-23077 1069 L-23001 1061 L-22982 311 L-22169 304 L-21415 289 L-20196 282 L-18764 282 L-18668 274 L-18493 274 L-18139 260 L-16830 252 L-14972 245 L-13270 230 L-12767 223 L-12502 215 L-12109 208 L-11975 201 L-11065 193 L-10688 186 L-9760 186 L-9421 179 L-9381 179 L-9344 171 L-7428 171 L-7254 164 L-5726 164 L-5397 157 L-5281 149 L-4874 135 L-4526 127 L-2882 112 L-2331 105 L-2088 98 L-1547 90 L-716 76 L-174 68 L1360 54 L1452 46 L1489 39 L1625 32 L2012 24 L3037 17 L4913 10 L5009 2 L5610 238 L5977 488 L6461 745 L6500 995" />
</svg>
