<svg xmlns="http://www.w3.org/2000/svg" version="1.1" viewBox="0 0 6500 1000">
	<path fill="none" stroke="gold" stroke-width="125" stroke-linecap="round" stroke-linejoin="round" d="M0 2525  L-721563 2525 L-718959 2525 L-717291 2524 L-698961 2524 L-698791 2524 L-691633 2524 L-691600 2524 L-678169 2524 L-675247 2524 L-661906 2523 L-657737 2523 L-656577 2522 L-655958 2522 L-653946 2521 L-650174 2521 L-649574 2521 L-649246 2521 L-649033 2520 L-648491 2520 L-647253 2519 L-646074 2518 L-643210 2517 L-642687 2516 L-637832 2516 L-634895 2516 L-634852 2515 L-634543 2515 L-634291 2515 L-631696 2515 L-627441 2515 L-627423 2515 L-626186 2515 L-624309 2515 L-622355 2514 L-621407 2514 L-621137 2514 L-620827 2514 L-620729 2514 L-619898 2514 L-617867 2514 L-617577 2513 L-615431 2512 L-615275 2511 L-611619 2511 L-611368 2511 L-611269 2511 L-610752 2511 L-608601 2512 L-607672 2513 L-606146 2513 L-604907 2513 L-603360 2513 L-600398 2513 L-599276 2513 L-598967 2512 L-597756 2512 L-594749 2514 L-594730 2513 L-594382 2513 L-594169 2513 L-594043 2511 L-593801 2511 L-593764 2511 L-593744 2511 L-593725 2510 L-593666 2510 L-593607 2510 L-593589 2510 L-593146 2509 L-591907 2509 L-590361 2509 L-586973 2509 L-581247 2509 L-581045 2508 L-579409 2508 L-577687 2508 L-576255 2508 L-576023 2508 L-575308 2508 L-569176 2508 L-568808 2508 L-568653 2507 L-568075 2507 L-567782 2507 L-566815 2507 L-566506 2506 L-565907 2506 L-564300 2506 L-563565 2506 L-563255 2506 L-562487 2506 L-560451 2506 L-560026 2506 L-559213 2506 L-551785 2505 L-551261 2505 L-551088 2505 L-550353 2505 L-548785 2504 L-548380 2504 L-546155 2504 L-545207 2504 L-544782 2504 L-544451 2504 L-543408 2504 L-541299 2503 L-541047 2503 L-540428 2503 L-539616 2503 L-537508 2502 L-537459 2502 L-535531 2502 L-535205 2502 L-535070 2502 L-534567 2501 L-533154 2501 L-532652 2501 L-532130 2500 L-528570 2500 L-527835 2499 L-525410 2499 L-524121 2499 L-523714 2499 L-520561 2499 L-520407 2499 L-520386 2499 L-520020 2499 L-518761 2499 L-518046 2499 L-517157 2499 L-516750 2499 L-515821 2499 L-514712 2499 L-514409 2500 L-508160 2500 L-507213 2500 L-505587 2500 L-505085 2501 L-501409 2501 L-500577 2501 L-496624 2501 L-495212 2501 L-492723 2500 L-492046 2500 L-492008 2500 L-491137 2500 L-487926 2500 L-485062 2500 L-484094 2500 L-482973 2499 L-482954 2499 L-481329 2499 L-480865 2498 L-480773 2498 L-474404 2498 L-473455 2498 L-470998 2498 L-470126 2498 L-468890 2498 L-466888 2497 L-466491 2497 L-465055 2497 L-463028 2497 L-462815 2497 L-461635 2496 L-460127 2496 L-460107 2496 L-458094 2496 L-457225 2496 L-456354 2496 L-455769 2495 L-455232 2495 L-454574 2495 L-453336 2495 L-452775 2495 L-451594 2495 L-450357 2494 L-450318 2494 L-449931 2494 L-449390 2494 L-448616 2494 L-447494 2494 L-445404 2493 L-445071 2493 L-444785 2493 L-443857 2493 L-443374 2493 L-442638 2492 L-439007 2492 L-437879 2492 L-437725 2492 L-436699 2492 L-432984 2492 L-431767 2491 L-429948 2491 L-427162 2491 L-426601 2491 L-422713 2491 L-420236 2491 L-418902 2491 L-418398 2491 L-417915 2490 L-415226 2490 L-411454 2490 L-408997 2490 L-407817 2490 L-407178 2490 L-404818 2490 L-404741 2490 L-403693 2490 L-403600 2490 L-403097 2490 L-402652 2490 L-402594 2490 L-402380 2490 L-399421 2489 L-396713 2489 L-396558 2489 L-393037 2489 L-392514 2489 L-391547 2489 L-391198 2488 L-390155 2488 L-389226 2488 L-388800 2488 L-387291 2488 L-386324 2488 L-386305 2488 L-384409 2479 L-384293 2469 L-384245 2460 L-384221 2451 L-381217 2451 L-379186 2451 L-377425 2451 L-377058 2451 L-376613 2450 L-376246 2450 L-375832 2450 L-373847 2450 L-373634 2450 L-373479 2450 L-371874 2450 L-370752 2450 L-369803 2449 L-368546 2449 L-366902 2449 L-365722 2449 L-359132 2449 L-359086 2449 L-358680 2449 L-357635 2448 L-357500 2448 L-355817 2448 L-355797 2448 L-354460 2448 L-353224 2448 L-353070 2447 L-352696 2447 L-352490 2447 L-352180 2447 L-351407 2447 L-349085 2447 L-348427 2446 L-346299 2446 L-344577 2446 L-344384 2446 L-341830 2446 L-341554 2446 L-341366 2445 L-340533 2445 L-339761 2445 L-339063 2445 L-334062 2445 L-333686 2445 L-329433 2445 L-328946 2457 L-328927 2457 L-328848 2457 L-328773 2456 L-328753 2444 L-327940 2444 L-327186 2444 L-325967 2443 L-324535 2443 L-324439 2443 L-324265 2443 L-323910 2443 L-322601 2443 L-320744 2443 L-319041 2443 L-318538 2443 L-318273 2442 L-317880 2442 L-317746 2442 L-316836 2442 L-316460 2442 L-315531 2442 L-315192 2442 L-315152 2442 L-315115 2442 L-313199 2442 L-313026 2442 L-311497 2442 L-311169 2441 L-311052 2441 L-310645 2441 L-310297 2441 L-308654 2441 L-308103 2441 L-307859 2440 L-307318 2440 L-306487 2440 L-305945 2440 L-304411 2440 L-304318 2440 L-304281 2439 L-304145 2439 L-303758 2439 L-302733 2439 L-300857 2439 L-300761 2439 L-300160 2443 L-299793 2447 L-299309 2451 L-299271 2455 L-298497 2456 L-298439 2456 L-298265 2455 L-298071 2455 L-296466 2455 L-296446 2455 L-296291 2455 L-296175 2455 L-294996 2455 L-294841 2456 L-294174 2456 L-291726 2466 L-289211 2476 L-286541 2486 L-278842 2496 L-273174 2496 L-270960 2496 L-270936 2496 L-269963 2498 L-269943 2498 L-269079 2498 L-266339 2498 L-260540 2495 L-260387 2495 L-257601 2495 L-243993 2495 L-243247 2495 L-238836 2494 L-222490 2494 L-222258 2494 L-221721 2494 L-213261 2494 L-204556 2494 L-204343 2493 L-202371 2493 L-199584 2493 L-195097 2493 L-194942 2493 L-194773 2493 L-194633 2493 L-194342 2493 L-194303 2493 L-194033 2493 L-193861 2493 L-193451 2492 L-192330 2492 L-191150 2492 L-189873 2492 L-187009 2492 L-184089 2492 L-182097 2492 L-180549 2491 L-177511 2491 L-168187 2491 L-167663 2491 L-161939 2491 L-160432 2491 L-159617 2491 L-157934 2491 L-157213 2491 L-157044 2490 L-155999 2490 L-153932 2490 L-152570 2490 L-148127 2490 L-148029 2490 L-147991 2490 L-147972 2490 L-147139 2489 L-147062 2489 L-144489 2489 L-141240 2489 L-141085 2489 L-140137 2489 L-138396 2489 L-137680 2489 L-134140 2490 L-127562 2491 L-126145 2492 L-126124 2491 L-125174 2491 L-121699 2491 L-120946 2491 L-120384 2491 L-119602 2491 L-112098 2491 L-110500 2490 L-108926 2490 L-105740 2490 L-101407 2490 L-92838 2490 L-84091 2490 L-81017 2490 L-77751 2490 L-77205 2489 L-70068 2489 L-64400 2489 L-50336 2489 L-44324 2489 L-39618 2489 L-35615 2489 L-30507 2489 L-20793 2489 L-5223 2489 L-2140 2488 L-1838 2433 L-1818 2365 L-1799 2288 L-1779 2202 L-1760 2162 L-1741 2129 L-1722 2099 L-1694 2069 L-1674 2039 L-1646 2008 L-1610 1974 L-1597 1945 L-1584 1921 L-1565 1900 L-1547 1885 L-1527 1869 L-1508 1854 L-1489 1838 L-1469 1822 L-1448 1806 L-1431 1790 L-1412 1774 L-1392 1759 L-1372 1744 L-1354 1728 L-1335 1711 L-1315 1693 L-1295 1677 L-1276 1660 L-1258 1645 L-1236 1630 L-1212 1614 L-1197 1600 L-1180 1586 L-1160 1572 L-1141 1558 L-1122 1543 L-1103 1527 L-1083 1513 L-1062 1499 L-1044 1486 L-1025 1473 L-1005 1461 L-984 1450 L-967 1440 L-948 1431 L-928 1421 L-909 1412 L-890 1404 L-871 1396 L-851 1389 L-831 1383 L-812 1376 L-793 1370 L-766 1361 L-745 1353 L-717 1343 L-683 1333 L-669 1324 L-656 1316 L-637 1309 L-618 1304 L-598 1297 L-580 1290 L-561 1283 L-541 1276 L-520 1269 L-503 1263 L-484 1256 L-464 1249 L-444 1242 L-425 1233 L-407 1224 L-386 1214 L-367 1205 L-348 1195 L-329 1185 L-308 1174 L-284 1162 L-269 1150 L-252 1139 L-232 1127 L-213 1116 L-193 1105 L-174 1092 L-154 1081 L-134 1069 L-116 1058 L-97 1047 L-77 1037 L-56 1026 L-39 1016 L-20 1007 L0 998 L18 990 L38 982 L57 974 L77 966 L96 957 L115 949 L134 941 L163 933 L183 926 L210 918 L248 909 L263 900 L275 892 L292 884 L309 878 L329 873 L348 868 L367 864 L387 859 L408 855 L425 849 L444 844 L464 838 L484 833 L502 826 L521 820 L541 813 L561 805 L580 798 L598 791 L620 784 L644 776 L659 769 L676 762 L696 755 L715 748 L734 740 L753 732 L773 724 L794 717 L812 709 L831 703 L851 696 L871 690 L889 684 L908 677 L928 671 L947 665 L967 659 L985 653 L1005 647 L1025 642 L1044 636 L1063 630 L1091 625 L1111 619 L1139 612 L1175 603 L1189 595 L1203 587 L1220 580 L1238 575 L1258 571 L1276 565 L1296 559 L1316 552 L1337 546 L1356 538 L1373 531 L1393 523 L1413 514 L1431 506 L1450 496 L1470 487 L1490 478 L1508 470 L1527 463 L1548 458 L1573 453 L1588 449 L1606 445 L1624 440 L1644 435 L1663 430 L1682 426 L1702 421 L1723 418 L1740 414 L1759 410 L1780 404 L1801 398 L1818 392 L1837 388 L1857 384 L1876 381 L1895 378 L1914 376 L1934 373 L1954 369 L1973 366 L1991 363 L2019 359 L2040 356 L2068 353 L2102 349 L2116 346 L2129 343 L2148 340 L2167 338 L2186 335 L2205 333 L2225 330 L2244 328 L2265 326 L2282 323 L2301 321 L2322 318 L2342 315 L2360 312 L2378 310 L2398 308 L2419 305 L2437 303 L2456 301 L2477 298 L2502 296 L2516 294 L2534 292 L2553 290 L2572 287 L2592 285 L2611 282 L2631 279 L2651 277 L2669 274 L2688 272 L2708 270 L2729 268 L2746 266 L2765 263 L2785 261 L2804 259 L2824 257 L2842 256 L2863 254 L2882 253 L2901 251 L2920 254 L2949 256 L2968 259 L2996 261 L3034 259 L3049 257 L3062 255 L3079 254 L3095 253 L3115 252 L3134 250 L3153 249 L3173 247 L3194 246 L3211 245 L3230 244 L3250 242 L3270 241 L3288 239 L3307 238 L3327 237 L3347 235 L3365 234 L3384 232 L3406 231 L3430 230 L3445 229 L3462 227 L3482 226 L3501 224 L3520 223 L3539 222 L3559 220 L3580 218 L3598 216 L3616 214 L3637 212 L3658 210 L3675 209 L3694 207 L3714 205 L3733 204 L3752 202 L3771 200 L3791 198 L3811 196 L3830 195 L3849 194 L3876 192 L3897 190 L3925 189 L3960 187 L3973 185 L3986 184 L4005 182 L4024 181 L4044 179 L4062 178 L4082 176 L4101 175 L4123 173 L4139 172 L4158 170 L4179 169 L4199 167 L4217 165 L4236 162 L4255 160 L4276 158 L4294 155 L4313 153 L4334 151 L4359 149 L4374 147 L4391 145 L4410 143 L4430 140 L4449 138 L4468 136 L4488 134 L4509 132 L4526 130 L4545 128 L4566 126 L4586 124 L4603 123 L4622 121 L4642 120 L4661 119 L4681 117 L4700 116 L4719 115 L4739 114 L4758 113 L4777 112 L4805 111 L4825 109 L4853 108 L4889 106 L4902 104 L4916 102 L4934 100 L4952 98 L4972 97 L4991 96 L5010 94 L5030 93 L5051 92 L5068 90 L5087 88 L5107 87 L5127 85 L5145 83 L5164 81 L5184 80 L5205 78 L5222 76 L5241 75 L5263 74 L5288 72 L5302 71 L5319 70 L5339 68 L5358 67 L5378 65 L5396 63 L5416 60 L5438 58 L5455 56 L5474 54 L5494 52 L5515 50 L5532 49 L5551 48 L5571 47 L5590 46 L5610 45 L5628 44 L5648 42 L5668 41 L5687 41 L5706 39 L5733 38 L5754 37 L5782 36 L5816 35 L5830 34 L5843 33 L5862 33 L5881 32 L5900 31 L5919 30 L5938 29 L5958 29 L5979 28 L5996 27 L6015 26 L6035 25 L6055 24 L6074 23 L6093 22 L6113 22 L6133 21 L6151 21 L6170 20 L6191 19 L6216 19 L6230 18 L6248 17 L6267 16 L6286 15 L6306 14 L6325 14 L6345 12 L6365 11 L6383 9 L6402 8 L6422 6 L6443 4 L6461 3 L6480 2 L6500 1" />
</svg>
