<svg xmlns="http://www.w3.org/2000/svg" version="1.1" viewBox="0 0 6500 1000">
	<path fill="none" stroke="gold" stroke-width="125" stroke-linecap="round" stroke-linejoin="round" d="M0 2624  L-721640 2624 L-719036 2624 L-717368 2624 L-699038 2623 L-698868 2623 L-691710 2623 L-691677 2623 L-678246 2623 L-675324 2623 L-661983 2623 L-657814 2622 L-656654 2621 L-656035 2621 L-654023 2620 L-650252 2620 L-649652 2620 L-649323 2620 L-649110 2619 L-648568 2619 L-647330 2618 L-646151 2617 L-643287 2616 L-642765 2615 L-637909 2615 L-634972 2615 L-634929 2614 L-634621 2614 L-634369 2614 L-631774 2614 L-627518 2614 L-627500 2614 L-626264 2614 L-624386 2614 L-622433 2613 L-621485 2613 L-621214 2613 L-620904 2613 L-620806 2613 L-619976 2613 L-617945 2613 L-617654 2611 L-615508 2611 L-615352 2610 L-611696 2609 L-611445 2610 L-611346 2610 L-610829 2610 L-608678 2611 L-607749 2611 L-606223 2612 L-604984 2612 L-603437 2612 L-600476 2612 L-599354 2611 L-599044 2611 L-597833 2611 L-594827 2612 L-594807 2612 L-594460 2612 L-594246 2612 L-594120 2610 L-593879 2610 L-593841 2610 L-593821 2609 L-593802 2609 L-593743 2609 L-593684 2609 L-593666 2608 L-593223 2608 L-591984 2608 L-590438 2608 L-587050 2607 L-581324 2607 L-581122 2607 L-579487 2607 L-577765 2607 L-576333 2607 L-576100 2607 L-575385 2607 L-569253 2606 L-568885 2606 L-568731 2606 L-568152 2606 L-567860 2605 L-566892 2605 L-566583 2605 L-565984 2605 L-564377 2605 L-563642 2605 L-563333 2605 L-562564 2605 L-560528 2604 L-560103 2604 L-559290 2604 L-551862 2604 L-551339 2604 L-551165 2603 L-550430 2603 L-548862 2603 L-548457 2603 L-546232 2602 L-545284 2602 L-544859 2602 L-544529 2602 L-543485 2602 L-541377 2602 L-541125 2602 L-540506 2601 L-539693 2601 L-537585 2601 L-537537 2601 L-535608 2600 L-535283 2600 L-535148 2600 L-534644 2600 L-533232 2600 L-532729 2599 L-532207 2599 L-528647 2598 L-527912 2598 L-525487 2598 L-524198 2597 L-523791 2597 L-520639 2597 L-520484 2597 L-520464 2597 L-520097 2597 L-518839 2597 L-518124 2598 L-517234 2598 L-516827 2598 L-515898 2598 L-514790 2597 L-514486 2598 L-508238 2598 L-507290 2599 L-505664 2599 L-505162 2599 L-501487 2599 L-500654 2599 L-496701 2599 L-495289 2599 L-492800 2599 L-492124 2598 L-492085 2598 L-491214 2598 L-488003 2598 L-485140 2598 L-484172 2598 L-483050 2598 L-483031 2597 L-481406 2597 L-480942 2597 L-480850 2597 L-474481 2596 L-473532 2596 L-471075 2596 L-470203 2596 L-468967 2596 L-466966 2596 L-466568 2595 L-465132 2595 L-463106 2595 L-462892 2595 L-461712 2595 L-460204 2595 L-460184 2594 L-458172 2594 L-457302 2594 L-456431 2594 L-455846 2594 L-455309 2593 L-454651 2593 L-453413 2593 L-452853 2593 L-451672 2593 L-450434 2593 L-450396 2592 L-450009 2592 L-449467 2592 L-448693 2592 L-447571 2592 L-445482 2592 L-445148 2591 L-444863 2591 L-443934 2591 L-443451 2591 L-442715 2590 L-439084 2590 L-437957 2590 L-437802 2590 L-436776 2590 L-433061 2590 L-431844 2589 L-430025 2589 L-427240 2589 L-426678 2589 L-422790 2589 L-420314 2589 L-418979 2589 L-418475 2589 L-417992 2588 L-415303 2588 L-411531 2588 L-409074 2588 L-407894 2588 L-407255 2588 L-404896 2588 L-404818 2588 L-403771 2588 L-403677 2588 L-403174 2588 L-402729 2588 L-402671 2588 L-402457 2588 L-399498 2587 L-396790 2587 L-396635 2587 L-393115 2587 L-392592 2587 L-391624 2586 L-391275 2586 L-390232 2586 L-389303 2586 L-388877 2586 L-387368 2586 L-386402 2586 L-386383 2585 L-384487 2576 L-384371 2567 L-384323 2557 L-384298 2548 L-381294 2548 L-379263 2547 L-377503 2547 L-377136 2547 L-376690 2547 L-376323 2547 L-375909 2546 L-373924 2546 L-373711 2546 L-373556 2546 L-371951 2546 L-370829 2546 L-369881 2546 L-368623 2546 L-366979 2546 L-365799 2545 L-359210 2545 L-359163 2545 L-358757 2545 L-357712 2545 L-357577 2545 L-355894 2544 L-355874 2544 L-354538 2544 L-353301 2544 L-353147 2544 L-352773 2544 L-352567 2543 L-352258 2543 L-351484 2543 L-349162 2543 L-348504 2543 L-346377 2543 L-344654 2543 L-344461 2542 L-341907 2542 L-341631 2542 L-341443 2542 L-340610 2541 L-339838 2541 L-339140 2541 L-334139 2541 L-333763 2541 L-329511 2541 L-329023 2553 L-329004 2553 L-328925 2553 L-328850 2553 L-328830 2540 L-328017 2540 L-327264 2540 L-326044 2540 L-324613 2540 L-324516 2540 L-324342 2540 L-323987 2539 L-322678 2539 L-320821 2539 L-319118 2539 L-318616 2539 L-318350 2539 L-317957 2538 L-317823 2538 L-316913 2538 L-316537 2538 L-315608 2538 L-315269 2538 L-315230 2538 L-315192 2538 L-313276 2538 L-313103 2538 L-311574 2538 L-311246 2538 L-311130 2537 L-310723 2537 L-310374 2537 L-308731 2537 L-308180 2537 L-307937 2537 L-307395 2536 L-306564 2536 L-306022 2536 L-304488 2536 L-304396 2536 L-304359 2536 L-304223 2535 L-303836 2535 L-302811 2535 L-300934 2535 L-300838 2535 L-300238 2539 L-299871 2543 L-299386 2548 L-299348 2552 L-298574 2552 L-298517 2552 L-298342 2552 L-298149 2552 L-296543 2552 L-296523 2551 L-296368 2552 L-296253 2552 L-295073 2552 L-294918 2552 L-294251 2552 L-291803 2563 L-289288 2573 L-286618 2584 L-278919 2594 L-273252 2594 L-271037 2594 L-271014 2594 L-270040 2596 L-270020 2596 L-269156 2596 L-266416 2596 L-260617 2593 L-260464 2593 L-257678 2593 L-244070 2593 L-243324 2593 L-238913 2592 L-222567 2592 L-222335 2592 L-221798 2592 L-213338 2592 L-204633 2592 L-204420 2592 L-202448 2591 L-199662 2591 L-195174 2592 L-195019 2591 L-194850 2591 L-194710 2591 L-194419 2591 L-194381 2591 L-194110 2591 L-193938 2591 L-193528 2590 L-192407 2590 L-191227 2590 L-189950 2590 L-187086 2590 L-184166 2590 L-182174 2590 L-180627 2589 L-177589 2589 L-168264 2589 L-167740 2589 L-162016 2589 L-160509 2589 L-159695 2589 L-158011 2589 L-157290 2589 L-157122 2588 L-156076 2588 L-154009 2588 L-152647 2588 L-148204 2588 L-148107 2588 L-148068 2588 L-148049 2588 L-147217 2587 L-147139 2587 L-144566 2587 L-141317 2587 L-141162 2587 L-140214 2587 L-138473 2586 L-137757 2587 L-134217 2588 L-127639 2589 L-126222 2590 L-126201 2589 L-125251 2589 L-121776 2589 L-121023 2589 L-120462 2589 L-119680 2589 L-112175 2589 L-110577 2588 L-109003 2588 L-105818 2588 L-101485 2588 L-92915 2588 L-84169 2588 L-81095 2588 L-77829 2588 L-77282 2587 L-70145 2587 L-64477 2587 L-50413 2587 L-44401 2587 L-39695 2587 L-35692 2587 L-30584 2587 L-20870 2587 L-5300 2587 L-2217 2586 L-1915 2529 L-1895 2459 L-1876 2378 L-1857 2289 L-1837 2248 L-1818 2214 L-1799 2182 L-1772 2151 L-1751 2120 L-1723 2088 L-1688 2053 L-1674 2023 L-1661 1997 L-1642 1976 L-1624 1960 L-1604 1944 L-1586 1928 L-1566 1912 L-1546 1895 L-1525 1878 L-1508 1862 L-1490 1846 L-1469 1830 L-1449 1814 L-1431 1797 L-1412 1780 L-1392 1762 L-1372 1744 L-1354 1727 L-1335 1711 L-1314 1695 L-1289 1680 L-1274 1665 L-1257 1650 L-1237 1635 L-1218 1621 L-1199 1605 L-1180 1589 L-1160 1574 L-1139 1560 L-1122 1546 L-1103 1533 L-1082 1521 L-1061 1509 L-1044 1499 L-1025 1489 L-1005 1479 L-986 1470 L-967 1461 L-948 1453 L-928 1446 L-908 1439 L-889 1432 L-871 1426 L-843 1417 L-822 1408 L-795 1398 L-761 1387 L-746 1378 L-733 1370 L-715 1363 L-696 1357 L-676 1350 L-657 1343 L-638 1335 L-618 1328 L-597 1321 L-580 1315 L-561 1308 L-541 1301 L-521 1293 L-502 1284 L-484 1274 L-464 1264 L-444 1254 L-425 1244 L-406 1234 L-385 1222 L-361 1210 L-346 1198 L-329 1186 L-309 1174 L-290 1163 L-270 1151 L-252 1138 L-231 1126 L-211 1114 L-193 1102 L-174 1091 L-154 1080 L-133 1069 L-116 1059 L-97 1050 L-77 1040 L-58 1032 L-38 1023 L-19 1015 L0 1007 L19 998 L38 989 L57 981 L86 973 L106 965 L133 957 L171 947 L186 938 L198 930 L215 922 L232 916 L252 911 L271 905 L290 901 L310 896 L330 891 L348 886 L366 880 L387 874 L407 868 L425 862 L444 855 L464 848 L484 840 L502 832 L521 825 L542 818 L567 810 L581 803 L599 795 L619 788 L638 780 L657 772 L676 764 L696 756 L716 748 L735 741 L753 734 L774 727 L794 720 L812 714 L831 707 L851 701 L869 695 L889 688 L908 682 L928 676 L947 670 L967 665 L986 659 L1014 653 L1034 647 L1062 640 L1098 630 L1112 621 L1125 613 L1143 606 L1161 601 L1181 597 L1199 591 L1219 584 L1239 578 L1260 571 L1278 563 L1295 556 L1316 547 L1336 538 L1354 529 L1373 520 L1393 510 L1413 501 L1431 493 L1450 485 L1471 480 L1496 475 L1511 471 L1528 466 L1547 461 L1567 456 L1586 451 L1605 446 L1625 442 L1646 438 L1663 434 L1682 430 L1703 424 L1723 418 L1740 412 L1759 407 L1780 403 L1798 400 L1818 397 L1837 394 L1857 391 L1876 388 L1895 384 L1914 381 L1942 377 L1963 374 L1990 371 L2025 367 L2039 363 L2052 360 L2071 357 L2089 355 L2109 352 L2128 350 L2147 347 L2167 345 L2188 343 L2205 340 L2224 338 L2244 335 L2264 332 L2282 329 L2301 326 L2321 324 L2341 321 L2360 319 L2378 316 L2400 314 L2425 312 L2439 309 L2456 307 L2476 305 L2495 303 L2514 300 L2533 297 L2553 294 L2574 292 L2592 289 L2611 287 L2631 285 L2652 282 L2669 280 L2688 278 L2708 276 L2727 274 L2747 272 L2765 270 L2785 268 L2805 267 L2824 265 L2843 268 L2872 270 L2891 273 L2919 275 L2956 273 L2972 271 L2984 270 L3002 268 L3018 267 L3038 266 L3056 264 L3076 263 L3096 261 L3117 260 L3134 259 L3152 257 L3173 256 L3193 255 L3211 253 L3230 252 L3250 250 L3270 248 L3288 247 L3307 246 L3328 245 L3353 243 L3368 242 L3385 240 L3404 239 L3424 237 L3443 236 L3462 234 L3482 233 L3503 231 L3520 228 L3539 226 L3560 225 L3580 223 L3598 221 L3617 219 L3637 218 L3655 216 L3675 214 L3694 212 L3714 210 L3733 208 L3753 207 L3771 206 L3799 204 L3820 202 L3848 200 L3882 198 L3896 197 L3909 195 L3928 193 L3947 192 L3967 191 L3985 189 L4004 187 L4024 186 L4045 184 L4062 183 L4081 181 L4101 179 L4121 178 L4140 175 L4158 173 L4178 170 L4199 168 L4217 166 L4236 164 L4257 162 L4282 159 L4297 157 L4314 155 L4333 153 L4353 150 L4372 148 L4391 146 L4411 144 L4431 141 L4449 139 L4468 137 L4489 135 L4509 134 L4526 132 L4545 130 L4565 129 L4584 128 L4604 126 L4622 125 L4642 124 L4662 123 L4681 122 L4700 121 L4728 119 L4748 118 L4776 117 L4812 114 L4825 112 L4838 110 L4857 108 L4875 107 L4895 105 L4913 104 L4933 102 L4953 101 L4974 100 L4991 98 L5009 96 L5030 95 L5050 93 L5068 91 L5087 89 L5107 87 L5127 85 L5145 84 L5164 82 L5186 81 L5210 80 L5225 78 L5242 77 L5262 75 L5281 74 L5300 72 L5319 70 L5339 67 L5360 65 L5377 62 L5397 60 L5417 58 L5438 57 L5455 55 L5474 54 L5494 53 L5513 52 L5532 51 L5551 50 L5571 49 L5591 48 L5610 47 L5628 45 L5656 44 L5677 43 L5704 42 L5739 41 L5753 40 L5766 39 L5785 38 L5804 37 L5823 37 L5842 36 L5861 35 L5881 34 L5902 34 L5919 33 L5938 32 L5958 31 L5978 30 L5997 29 L6015 28 L6035 27 L6055 27 L6074 26 L6093 25 L6114 25 L6138 24 L6153 23 L6170 22 L6190 21 L6209 20 L6229 19 L6247 19 L6267 17 L6288 16 L6306 14 L6325 12 L6345 10 L6366 9 L6383 8 L6402 7 L6422 5 L6441 4 L6461 3 L6480 2 L6500 1" />
</svg>
