<svg xmlns="http://www.w3.org/2000/svg" version="1.1" viewBox="0 0 6500 1000">
	<path fill="none" stroke="gold" stroke-width="125" stroke-linecap="round" stroke-linejoin="round" d="M0 3880  L-724080 3880 L-721476 3880 L-719808 3879 L-701479 3879 L-701309 3879 L-694151 3878 L-694118 3878 L-680687 3878 L-677765 3878 L-664424 3878 L-660255 3877 L-659095 3876 L-658476 3875 L-656464 3875 L-652692 3874 L-652092 3874 L-651763 3874 L-651550 3873 L-651009 3873 L-649771 3872 L-648592 3870 L-645727 3869 L-645205 3867 L-640350 3867 L-637412 3867 L-637369 3866 L-637061 3866 L-636809 3865 L-634214 3865 L-629959 3865 L-629941 3865 L-628704 3865 L-626826 3865 L-624873 3865 L-623925 3864 L-623654 3864 L-623344 3864 L-623246 3864 L-622416 3864 L-620385 3864 L-620095 3862 L-617948 3862 L-617793 3860 L-614137 3859 L-613885 3860 L-613787 3860 L-613270 3860 L-611119 3861 L-610190 3862 L-608664 3863 L-607424 3863 L-605878 3863 L-602916 3862 L-601794 3862 L-601485 3862 L-600274 3862 L-597267 3863 L-597247 3863 L-596900 3863 L-596687 3863 L-596561 3860 L-596319 3860 L-596281 3860 L-596262 3859 L-596242 3859 L-596183 3859 L-596125 3858 L-596107 3858 L-595664 3858 L-594424 3857 L-592879 3857 L-589491 3857 L-583765 3856 L-583563 3856 L-581927 3856 L-580205 3856 L-578773 3856 L-578541 3855 L-577825 3855 L-571693 3855 L-571326 3855 L-571171 3854 L-570593 3854 L-570300 3854 L-569333 3853 L-569023 3853 L-568424 3853 L-566818 3853 L-566083 3853 L-565773 3853 L-565005 3853 L-562969 3852 L-562543 3852 L-561731 3852 L-554302 3852 L-553779 3851 L-553606 3851 L-552871 3850 L-551303 3850 L-550897 3850 L-548672 3850 L-547724 3849 L-547299 3849 L-546969 3849 L-545925 3849 L-543817 3849 L-543565 3848 L-542946 3848 L-542133 3848 L-540025 3847 L-539977 3847 L-538049 3847 L-537723 3846 L-537588 3846 L-537085 3846 L-535672 3845 L-535169 3845 L-534647 3844 L-531088 3843 L-530353 3843 L-527928 3843 L-526639 3842 L-526232 3842 L-523079 3842 L-522924 3842 L-522904 3842 L-522537 3842 L-521279 3843 L-520564 3843 L-519674 3843 L-519267 3843 L-518339 3843 L-517230 3843 L-516927 3843 L-510678 3844 L-509731 3844 L-508105 3844 L-507603 3845 L-503927 3845 L-503095 3845 L-499142 3845 L-497730 3845 L-495240 3844 L-494564 3844 L-494525 3844 L-493654 3844 L-490443 3843 L-487580 3843 L-486612 3843 L-485491 3843 L-485472 3842 L-483847 3842 L-483383 3841 L-483291 3841 L-476921 3841 L-475973 3841 L-473516 3841 L-472644 3840 L-471407 3840 L-469406 3840 L-469009 3840 L-467572 3839 L-465546 3839 L-465333 3839 L-464153 3839 L-462644 3838 L-462624 3838 L-460612 3838 L-459743 3838 L-458872 3838 L-458287 3837 L-457750 3837 L-457092 3836 L-455854 3836 L-455293 3836 L-454112 3836 L-452875 3836 L-452836 3835 L-452449 3835 L-451907 3835 L-451134 3835 L-450011 3835 L-447922 3834 L-447589 3834 L-447303 3833 L-446375 3833 L-445891 3833 L-445156 3833 L-441525 3833 L-440397 3832 L-440242 3832 L-439216 3832 L-435502 3832 L-434284 3831 L-432466 3831 L-429680 3831 L-429119 3830 L-425231 3830 L-422754 3830 L-421419 3830 L-420916 3830 L-420433 3830 L-417743 3830 L-413972 3830 L-411515 3830 L-410335 3830 L-409696 3830 L-407336 3829 L-407259 3829 L-406211 3829 L-406118 3829 L-405615 3829 L-405169 3829 L-405112 3829 L-404898 3829 L-401938 3828 L-399231 3828 L-399076 3828 L-395555 3828 L-395032 3827 L-394065 3827 L-393716 3827 L-392672 3826 L-391744 3826 L-391318 3826 L-389809 3826 L-388842 3826 L-388823 3826 L-386927 3813 L-386811 3799 L-386763 3786 L-386739 3773 L-383735 3772 L-381704 3772 L-379943 3772 L-379576 3772 L-379130 3771 L-378764 3771 L-378350 3771 L-376365 3771 L-376151 3771 L-375997 3770 L-374391 3770 L-373270 3770 L-372321 3770 L-371064 3770 L-369419 3770 L-368240 3769 L-361650 3769 L-361604 3769 L-361198 3769 L-360153 3768 L-360017 3768 L-358335 3768 L-358315 3768 L-356978 3767 L-355742 3767 L-355588 3767 L-355214 3767 L-355008 3767 L-354698 3766 L-353924 3766 L-351603 3766 L-350945 3766 L-348817 3765 L-347095 3765 L-346901 3765 L-344348 3765 L-344072 3764 L-343883 3764 L-343051 3764 L-342278 3764 L-341580 3763 L-336580 3763 L-336204 3763 L-331951 3763 L-331464 3781 L-331445 3781 L-331366 3780 L-331290 3780 L-331271 3762 L-330458 3762 L-329704 3762 L-328485 3761 L-327053 3761 L-326957 3761 L-326782 3761 L-326428 3761 L-325119 3761 L-323261 3760 L-321559 3760 L-321056 3760 L-320791 3760 L-320398 3760 L-320263 3759 L-319354 3759 L-318977 3759 L-318049 3759 L-317710 3759 L-317670 3759 L-317632 3759 L-315717 3759 L-315543 3758 L-314014 3758 L-313686 3758 L-313570 3758 L-313163 3758 L-312815 3758 L-311171 3757 L-310620 3757 L-310377 3757 L-309836 3757 L-309005 3756 L-308463 3756 L-306928 3756 L-306836 3756 L-306799 3755 L-306663 3755 L-306276 3755 L-305251 3755 L-303375 3755 L-303278 3755 L-302678 3760 L-302311 3766 L-301826 3773 L-301788 3779 L-301015 3779 L-300957 3779 L-300783 3779 L-300589 3778 L-298984 3778 L-298964 3778 L-298809 3778 L-298693 3778 L-297514 3779 L-297359 3779 L-296692 3779 L-294244 3794 L-291729 3809 L-289059 3823 L-281360 3838 L-275692 3838 L-273478 3838 L-273454 3838 L-272480 3841 L-272460 3841 L-271597 3841 L-268856 3841 L-263058 3837 L-262904 3836 L-260119 3836 L-246510 3836 L-245764 3836 L-241354 3835 L-225008 3835 L-224775 3835 L-224238 3835 L-215779 3835 L-207073 3834 L-206861 3834 L-204888 3834 L-202102 3834 L-197615 3834 L-197460 3834 L-197291 3834 L-197150 3834 L-196860 3833 L-196821 3833 L-196550 3833 L-196379 3833 L-195968 3833 L-194848 3833 L-193668 3832 L-192391 3832 L-189527 3832 L-186607 3832 L-184615 3832 L-183067 3831 L-180029 3831 L-170705 3831 L-170181 3831 L-164457 3831 L-162950 3831 L-162135 3831 L-160452 3830 L-159731 3830 L-159562 3830 L-158517 3830 L-156450 3830 L-155088 3829 L-150644 3829 L-150547 3829 L-150509 3829 L-150490 3829 L-149657 3828 L-149579 3828 L-147007 3828 L-143758 3828 L-143603 3828 L-142654 3827 L-140913 3827 L-140198 3828 L-136657 3829 L-130080 3830 L-128663 3831 L-128642 3831 L-127691 3831 L-124217 3831 L-123464 3831 L-122902 3830 L-122120 3830 L-114616 3830 L-113017 3830 L-111444 3830 L-108258 3830 L-103925 3829 L-95355 3829 L-86609 3829 L-83535 3829 L-80269 3829 L-79723 3828 L-72585 3828 L-66918 3828 L-52853 3828 L-46842 3828 L-42136 3828 L-38132 3828 L-33025 3828 L-23311 3828 L-7740 3827 L-4658 3827 L-4355 3746 L-4336 3647 L-4317 3534 L-4297 3409 L-4278 3351 L-4258 3303 L-4240 3258 L-4212 3214 L-4191 3172 L-4163 3127 L-4128 3077 L-4114 3035 L-4101 2999 L-4083 2969 L-4064 2946 L-4044 2924 L-4026 2901 L-4007 2878 L-3987 2855 L-3966 2831 L-3949 2808 L-3930 2785 L-3910 2763 L-3890 2741 L-3871 2717 L-3852 2693 L-3833 2667 L-3812 2643 L-3794 2619 L-3775 2596 L-3754 2574 L-3729 2552 L-3715 2531 L-3697 2511 L-3678 2490 L-3658 2470 L-3639 2448 L-3620 2425 L-3600 2404 L-3580 2384 L-3562 2364 L-3543 2346 L-3523 2328 L-3502 2312 L-3485 2298 L-3466 2284 L-3446 2270 L-3427 2257 L-3407 2245 L-3388 2233 L-3369 2223 L-3349 2214 L-3330 2204 L-3311 2195 L-3284 2183 L-3263 2170 L-3235 2156 L-3201 2141 L-3187 2128 L-3174 2117 L-3155 2107 L-3136 2098 L-3116 2089 L-3098 2079 L-3078 2068 L-3058 2058 L-3038 2048 L-3020 2039 L-3001 2029 L-2981 2020 L-2961 2008 L-2943 1996 L-2924 1982 L-2904 1968 L-2884 1954 L-2866 1940 L-2847 1925 L-2826 1909 L-2801 1892 L-2787 1874 L-2769 1858 L-2750 1842 L-2730 1825 L-2711 1808 L-2692 1790 L-2672 1773 L-2652 1756 L-2633 1740 L-2615 1724 L-2594 1709 L-2574 1694 L-2556 1679 L-2537 1666 L-2517 1653 L-2499 1641 L-2479 1629 L-2460 1617 L-2440 1606 L-2421 1593 L-2401 1582 L-2382 1570 L-2354 1558 L-2334 1547 L-2306 1536 L-2269 1522 L-2254 1510 L-2241 1498 L-2224 1487 L-2207 1478 L-2187 1471 L-2169 1464 L-2150 1457 L-2130 1451 L-2109 1444 L-2092 1436 L-2073 1428 L-2053 1420 L-2033 1411 L-2014 1402 L-1996 1393 L-1976 1383 L-1956 1372 L-1937 1361 L-1918 1351 L-1897 1341 L-1873 1330 L-1858 1319 L-1841 1309 L-1821 1298 L-1802 1288 L-1782 1277 L-1763 1265 L-1743 1254 L-1723 1243 L-1705 1232 L-1686 1222 L-1666 1212 L-1646 1203 L-1628 1194 L-1609 1185 L-1589 1176 L-1570 1167 L-1550 1158 L-1531 1150 L-1511 1141 L-1492 1133 L-1473 1125 L-1454 1116 L-1426 1108 L-1406 1100 L-1378 1090 L-1341 1077 L-1327 1064 L-1314 1053 L-1297 1042 L-1279 1036 L-1259 1029 L-1240 1021 L-1220 1012 L-1201 1003 L-1180 993 L-1161 982 L-1144 972 L-1124 960 L-1103 947 L-1085 935 L-1067 921 L-1047 908 L-1026 895 L-1009 883 L-990 873 L-968 865 L-943 858 L-929 852 L-911 846 L-892 839 L-873 832 L-854 825 L-835 818 L-815 811 L-794 806 L-776 801 L-757 795 L-737 787 L-716 778 L-699 769 L-680 762 L-660 757 L-641 753 L-622 749 L-603 745 L-583 740 L-563 735 L-544 730 L-525 726 L-498 721 L-477 717 L-449 712 L-414 706 L-401 701 L-387 697 L-369 693 L-350 689 L-330 686 L-312 682 L-292 679 L-272 676 L-251 672 L-234 669 L-216 665 L-195 661 L-175 657 L-157 653 L-138 649 L-118 646 L-98 642 L-80 639 L-61 635 L-40 632 L-15 629 L0 626 L16 623 L35 619 L55 616 L74 612 L93 609 L113 604 L134 601 L151 597 L170 594 L191 591 L211 588 L229 585 L248 581 L268 578 L286 575 L306 572 L325 570 L345 568 L364 566 L383 563 L402 567 L431 571 L451 575 L479 578 L516 575 L531 572 L544 570 L561 568 L578 566 L597 564 L616 562 L636 560 L655 558 L676 556 L693 554 L712 553 L732 551 L753 548 L771 546 L789 544 L809 542 L829 540 L848 538 L866 536 L888 534 L913 533 L927 531 L944 529 L964 526 L983 524 L1003 522 L1022 520 L1041 518 L1062 515 L1080 512 L1099 509 L1119 506 L1140 504 L1157 501 L1176 499 L1196 496 L1215 494 L1235 491 L1253 488 L1273 486 L1293 483 L1312 481 L1331 480 L1358 477 L1379 475 L1407 472 L1442 469 L1455 467 L1469 465 L1488 462 L1506 460 L1526 458 L1544 456 L1564 454 L1584 452 L1605 450 L1622 447 L1640 445 L1661 443 L1681 440 L1699 437 L1718 434 L1738 430 L1758 427 L1776 424 L1795 421 L1816 418 L1841 414 L1856 411 L1873 408 L1892 405 L1912 402 L1931 399 L1950 395 L1970 392 L1991 389 L2008 386 L2027 384 L2048 381 L2069 378 L2086 376 L2105 374 L2125 372 L2144 370 L2163 368 L2182 366 L2202 365 L2222 363 L2241 361 L2259 360 L2287 358 L2308 357 L2336 355 L2371 351 L2385 348 L2398 345 L2417 342 L2435 340 L2454 339 L2473 336 L2493 335 L2512 333 L2533 330 L2550 328 L2569 326 L2590 324 L2610 321 L2628 318 L2647 316 L2666 313 L2687 311 L2705 308 L2724 306 L2745 305 L2770 302 L2785 301 L2802 298 L2821 296 L2841 294 L2860 291 L2879 288 L2899 285 L2920 281 L2937 278 L2956 275 L2977 273 L2997 270 L3014 268 L3033 267 L3053 265 L3072 264 L3092 262 L3111 261 L3130 259 L3150 257 L3169 256 L3188 254 L3215 253 L3236 252 L3264 250 L3298 249 L3312 247 L3326 246 L3344 244 L3363 243 L3383 242 L3401 241 L3421 240 L3441 239 L3461 238 L3479 236 L3497 235 L3518 234 L3538 232 L3556 231 L3575 230 L3595 229 L3615 228 L3633 227 L3652 226 L3673 225 L3698 224 L3713 223 L3730 221 L3749 220 L3769 219 L3788 218 L3807 217 L3827 215 L3847 213 L3865 210 L3884 208 L3905 205 L3925 203 L3943 201 L3962 200 L3982 198 L4000 196 L4020 195 L4039 193 L4059 192 L4078 190 L4098 189 L4116 188 L4145 187 L4193 186 L4230 184 L4245 183 L4257 182 L4274 181 L4292 180 L4311 179 L4330 179 L4349 178 L4369 176 L4390 176 L4407 175 L4426 174 L4446 173 L4466 172 L4485 171 L4503 170 L4523 169 L4543 168 L4562 167 L4581 165 L4602 163 L4626 161 L4641 159 L4658 157 L4678 155 L4697 154 L4717 152 L4735 150 L4756 149 L4776 147 L4794 145 L4813 143 L4833 142 L4854 140 L4871 139 L4890 138 L4910 137 L4929 136 L4949 135 L4968 133 L4988 132 L5007 130 L5026 129 L5045 128 L5073 127 L5094 125 L5122 123 L5158 120 L5173 118 L5186 115 L5203 113 L5220 111 L5241 110 L5259 109 L5279 108 L5298 107 L5319 106 L5336 105 L5355 103 L5375 101 L5396 99 L5414 97 L5433 94 L5452 92 L5473 89 L5491 87 L5509 85 L5531 84 L5556 82 L5571 80 L5588 78 L5607 77 L5627 75 L5646 74 L5664 71 L5684 69 L5706 67 L5723 65 L5742 64 L5762 62 L5783 61 L5800 59 L5819 58 L5839 57 L5858 55 L5877 54 L5896 52 L5916 51 L5936 50 L5955 49 L5974 47 L6002 997 L6022 995 L6050 994 L6086 991 L6100 39 L6113 37 L6131 36 L6149 35 L6169 34 L6187 33 L6207 32 L6227 30 L6248 28 L6265 26 L6283 24 L6304 22 L6324 20 L6342 18 L6361 15 L6381 12 L6402 11 L6419 9 L6438 8 L6459 6 L6484 4 L6500 1" />
</svg>
