<svg xmlns="http://www.w3.org/2000/svg" version="1.1" viewBox="0 0 6500 1000">
	<path fill="none" stroke="gold" stroke-width="125" stroke-linecap="round" stroke-linejoin="round" d="M0 5236  L-723343 5236 L-720739 5236 L-719071 5236 L-700741 5235 L-700571 5235 L-693413 5234 L-693380 5234 L-679949 5234 L-677028 5234 L-663687 5234 L-659518 5233 L-658358 5232 L-657738 5230 L-655727 5230 L-651955 5229 L-651355 5229 L-651026 5228 L-650813 5228 L-650271 5227 L-649033 5225 L-647854 5223 L-644990 5221 L-644468 5219 L-639612 5219 L-636675 5218 L-636632 5218 L-636324 5217 L-636072 5217 L-633477 5216 L-629221 5216 L-629203 5216 L-627967 5216 L-626089 5216 L-624136 5216 L-623188 5215 L-622917 5215 L-622607 5215 L-622509 5214 L-621679 5214 L-619648 5215 L-619357 5212 L-617211 5211 L-617056 5210 L-613399 5208 L-613148 5209 L-613050 5209 L-612533 5210 L-610381 5211 L-609452 5212 L-607926 5213 L-606687 5213 L-605141 5213 L-602179 5213 L-601057 5212 L-600748 5212 L-599536 5211 L-596530 5214 L-596510 5214 L-596163 5214 L-595950 5213 L-595823 5210 L-595582 5209 L-595544 5209 L-595524 5208 L-595505 5208 L-595446 5207 L-595387 5207 L-595369 5206 L-594926 5206 L-593687 5206 L-592141 5205 L-588753 5205 L-583027 5204 L-582826 5204 L-581190 5204 L-579468 5204 L-578036 5203 L-577803 5203 L-577088 5203 L-570956 5203 L-570588 5202 L-570434 5202 L-569855 5201 L-569563 5201 L-568596 5200 L-568286 5200 L-567687 5199 L-566081 5199 L-565346 5199 L-565036 5199 L-564267 5199 L-562231 5199 L-561806 5198 L-560993 5198 L-553565 5198 L-553042 5197 L-552868 5197 L-552133 5196 L-550566 5196 L-550160 5195 L-547935 5195 L-546987 5195 L-546562 5194 L-546232 5194 L-545188 5194 L-543080 5194 L-542828 5193 L-542209 5193 L-541396 5193 L-539288 5192 L-539240 5192 L-537311 5191 L-536986 5191 L-536851 5190 L-536348 5190 L-534935 5189 L-534432 5188 L-533910 5188 L-530351 5187 L-529615 5186 L-527191 5186 L-525901 5185 L-525494 5185 L-522342 5185 L-522187 5185 L-522167 5185 L-521800 5185 L-520542 5185 L-519827 5186 L-518937 5186 L-518530 5186 L-517601 5186 L-516493 5185 L-516190 5186 L-509941 5187 L-508993 5187 L-507367 5188 L-506865 5188 L-503190 5188 L-502357 5189 L-498404 5189 L-496992 5188 L-494503 5188 L-493827 5187 L-493788 5187 L-492917 5187 L-489706 5187 L-486843 5186 L-485875 5186 L-484753 5186 L-484734 5185 L-483109 5185 L-482645 5184 L-482553 5184 L-476184 5183 L-475236 5183 L-472779 5183 L-471906 5182 L-470670 5182 L-468669 5182 L-468271 5181 L-466835 5181 L-464809 5181 L-464596 5180 L-463416 5180 L-461907 5180 L-461887 5180 L-459875 5179 L-459005 5179 L-458134 5179 L-457550 5178 L-457012 5178 L-456355 5177 L-455116 5177 L-454556 5176 L-453375 5176 L-452137 5176 L-452099 5176 L-451712 5175 L-451170 5175 L-450396 5175 L-449274 5174 L-447185 5174 L-446852 5173 L-446566 5173 L-445637 5173 L-445154 5172 L-444419 5172 L-440787 5172 L-439660 5171 L-439505 5171 L-438479 5171 L-434764 5170 L-433547 5170 L-431728 5169 L-428943 5169 L-428381 5169 L-424493 5169 L-422017 5168 L-420682 5168 L-420179 5168 L-419695 5168 L-417006 5168 L-413234 5168 L-410777 5168 L-409597 5168 L-408958 5168 L-406599 5167 L-406521 5167 L-405474 5167 L-405380 5166 L-404877 5166 L-404432 5166 L-404374 5166 L-404161 5166 L-401201 5166 L-398493 5166 L-398339 5165 L-394818 5165 L-394295 5165 L-393328 5164 L-392978 5164 L-391935 5163 L-391006 5163 L-390581 5163 L-389072 5163 L-388105 5162 L-388086 5162 L-386190 5144 L-386074 5126 L-386026 5108 L-386001 5089 L-382997 5089 L-380967 5089 L-379206 5088 L-378839 5088 L-378393 5088 L-378026 5087 L-377612 5087 L-375627 5087 L-375414 5087 L-375259 5087 L-373654 5087 L-372532 5086 L-371584 5086 L-370327 5086 L-368682 5085 L-367502 5085 L-360913 5085 L-360866 5084 L-360461 5084 L-359415 5084 L-359280 5084 L-357597 5083 L-357578 5083 L-356241 5082 L-355005 5082 L-354850 5082 L-354476 5081 L-354270 5081 L-353961 5081 L-353187 5080 L-350865 5080 L-350208 5080 L-348080 5080 L-346357 5079 L-346164 5079 L-343611 5079 L-343334 5078 L-343146 5078 L-342314 5077 L-341541 5077 L-340843 5077 L-335842 5077 L-335467 5076 L-331214 5076 L-330727 5101 L-330707 5101 L-330628 5100 L-330553 5100 L-330533 5075 L-329720 5075 L-328967 5074 L-327747 5074 L-326316 5074 L-326219 5074 L-326045 5074 L-325691 5073 L-324381 5073 L-322524 5073 L-320822 5072 L-320319 5072 L-320053 5072 L-319660 5072 L-319526 5071 L-318616 5071 L-318240 5071 L-317311 5071 L-316972 5071 L-316933 5071 L-316895 5070 L-314980 5070 L-314806 5070 L-313277 5070 L-312949 5070 L-312833 5070 L-312426 5069 L-312078 5069 L-310434 5068 L-309883 5068 L-309640 5068 L-309098 5068 L-308267 5067 L-307725 5067 L-306191 5066 L-306099 5066 L-306062 5066 L-305926 5066 L-305539 5065 L-304514 5065 L-302637 5065 L-302541 5065 L-301941 5073 L-301574 5081 L-301089 5089 L-301051 5098 L-300277 5098 L-300220 5098 L-300045 5098 L-299852 5097 L-298246 5097 L-298226 5097 L-298071 5097 L-297956 5097 L-296776 5098 L-296621 5098 L-295954 5098 L-293506 5118 L-290991 5139 L-288322 5159 L-280622 5179 L-274955 5179 L-272740 5179 L-272717 5179 L-271743 5183 L-271723 5183 L-270859 5183 L-268119 5183 L-262321 5178 L-262167 5177 L-259381 5177 L-245773 5176 L-245027 5176 L-240616 5176 L-224270 5175 L-224038 5175 L-223501 5175 L-215041 5174 L-206336 5174 L-206124 5174 L-204151 5174 L-201365 5174 L-196877 5174 L-196723 5174 L-196553 5174 L-196413 5173 L-196122 5173 L-196084 5173 L-195813 5172 L-195641 5172 L-195231 5172 L-194111 5172 L-192930 5171 L-191653 5171 L-188790 5171 L-185869 5171 L-183877 5170 L-182330 5170 L-179292 5170 L-169967 5169 L-169443 5169 L-163719 5169 L-162212 5169 L-161398 5169 L-159714 5168 L-158993 5168 L-158825 5168 L-157780 5168 L-155712 5167 L-154350 5167 L-149907 5167 L-149810 5167 L-149771 5166 L-149752 5166 L-148920 5166 L-148842 5166 L-146270 5165 L-143020 5165 L-142865 5165 L-141917 5165 L-140176 5164 L-139461 5166 L-135920 5167 L-129343 5168 L-127925 5170 L-127904 5170 L-126954 5170 L-123480 5169 L-122726 5169 L-122165 5169 L-121383 5168 L-113879 5168 L-112280 5168 L-110706 5168 L-107521 5167 L-103188 5167 L-94618 5167 L-85872 5167 L-82798 5167 L-79532 5166 L-78985 5166 L-71848 5166 L-66180 5166 L-52116 5166 L-46105 5166 L-41398 5166 L-37395 5165 L-32288 5165 L-22574 5165 L-7003 5164 L-3920 5164 L-3618 5053 L-3598 4917 L-3580 4763 L-3560 4590 L-3540 4512 L-3521 4445 L-3502 4384 L-3475 4324 L-3454 4266 L-3426 4204 L-3391 4136 L-3377 4078 L-3364 4028 L-3345 3987 L-3327 3956 L-3307 3926 L-3289 3894 L-3269 3863 L-3249 3832 L-3228 3799 L-3211 3767 L-3193 3736 L-3172 3706 L-3152 3675 L-3134 3642 L-3115 3609 L-3095 3574 L-3075 3540 L-3057 3507 L-3038 3476 L-3017 3446 L-2992 3416 L-2977 3388 L-2960 3359 L-2941 3331 L-2921 3303 L-2902 3273 L-2883 3242 L-2863 3213 L-2842 3185 L-2825 3158 L-2806 3133 L-2785 3109 L-2765 3087 L-2747 3067 L-2729 3048 L-2708 3029 L-2690 3012 L-2670 2995 L-2651 2979 L-2631 2965 L-2612 2952 L-2592 2939 L-2574 2926 L-2546 2910 L-2525 2892 L-2498 2873 L-2464 2852 L-2449 2835 L-2436 2820 L-2418 2806 L-2399 2794 L-2379 2781 L-2360 2767 L-2341 2752 L-2321 2738 L-2300 2725 L-2283 2712 L-2264 2699 L-2244 2686 L-2224 2670 L-2205 2653 L-2187 2634 L-2167 2615 L-2147 2596 L-2128 2576 L-2109 2557 L-2088 2534 L-2064 2510 L-2049 2486 L-2032 2464 L-2012 2442 L-1993 2419 L-1973 2396 L-1955 2372 L-1935 2348 L-1914 2325 L-1896 2303 L-1877 2281 L-1857 2260 L-1837 2239 L-1819 2219 L-1800 2201 L-1780 2183 L-1761 2167 L-1741 2151 L-1723 2134 L-1703 2118 L-1683 2101 L-1664 2085 L-1645 2069 L-1616 2053 L-1597 2038 L-1569 2023 L-1532 2004 L-1517 1987 L-1504 1970 L-1487 1955 L-1470 1943 L-1450 1933 L-1432 1923 L-1412 1914 L-1392 1905 L-1372 1896 L-1354 1886 L-1336 1875 L-1315 1863 L-1296 1852 L-1277 1839 L-1258 1826 L-1238 1812 L-1219 1798 L-1200 1783 L-1181 1768 L-1160 1755 L-1136 1740 L-1121 1726 L-1104 1711 L-1084 1696 L-1065 1682 L-1045 1667 L-1026 1651 L-1006 1636 L-986 1621 L-967 1606 L-949 1592 L-929 1579 L-908 1566 L-890 1554 L-871 1542 L-851 1529 L-833 1517 L-813 1505 L-794 1493 L-774 1482 L-755 1470 L-735 1459 L-716 1447 L-688 1436 L-668 1424 L-640 1411 L-604 1393 L-590 1376 L-577 1360 L-559 1346 L-541 1337 L-521 1328 L-503 1316 L-483 1304 L-463 1292 L-442 1278 L-424 1263 L-407 1249 L-386 1232 L-366 1216 L-348 1198 L-329 1180 L-309 1161 L-289 1143 L-271 1127 L-252 1114 L-231 1103 L-206 1094 L-191 1085 L-174 1076 L-155 1067 L-135 1057 L-116 1048 L-97 1038 L-77 1029 L-56 1022 L-39 1015 L-20 1006 L0 995 L20 983 L37 971 L56 962 L76 955 L95 949 L115 943 L134 938 L154 932 L173 925 L192 918 L211 912 L239 905 L259 900 L287 893 L322 885 L336 878 L349 872 L368 866 L386 862 L406 857 L425 852 L444 847 L464 843 L485 838 L502 834 L521 828 L541 823 L561 817 L579 811 L598 806 L618 802 L638 797 L656 792 L675 788 L697 783 L721 779 L736 774 L753 770 L773 766 L792 761 L811 756 L830 751 L850 745 L871 740 L889 735 L908 731 L928 726 L949 722 L966 718 L985 713 L1005 709 L1024 705 L1043 701 L1062 698 L1082 695 L1102 692 L1121 689 L1140 694 L1168 699 L1188 704 L1216 709 L1253 704 L1269 701 L1281 697 L1299 695 L1315 693 L1335 690 L1353 687 L1373 684 L1393 681 L1414 679 L1431 677 L1449 674 L1470 671 L1490 668 L1508 666 L1527 663 L1547 660 L1567 657 L1585 654 L1604 652 L1625 649 L1650 647 L1664 644 L1682 641 L1701 638 L1721 635 L1740 633 L1759 630 L1779 626 L1800 622 L1817 618 L1836 614 L1857 611 L1877 607 L1895 604 L1913 600 L1933 597 L1952 594 L1972 590 L1991 586 L2011 582 L2030 579 L2050 577 L2068 574 L2096 571 L2116 567 L2144 564 L2179 560 L2193 557 L2206 554 L2225 550 L2243 548 L2264 545 L2282 542 L2301 539 L2321 536 L2342 533 L2359 530 L2378 527 L2398 524 L2418 520 L2437 516 L2455 511 L2475 506 L2496 502 L2514 497 L2532 494 L2554 489 L2579 485 L2593 481 L2611 476 L2630 472 L2649 468 L2668 463 L2687 458 L2708 455 L2728 450 L2746 446 L2765 443 L2785 439 L2806 435 L2823 432 L2842 429 L2862 427 L2881 424 L2901 421 L2919 419 L2939 416 L2959 414 L2978 412 L2997 410 L3024 408 L3045 405 L3073 403 L3108 398 L3122 394 L3135 390 L3154 386 L3172 383 L3192 381 L3210 378 L3230 375 L3250 373 L3271 370 L3288 367 L3306 363 L3327 360 L3347 357 L3365 353 L3384 350 L3404 346 L3424 342 L3442 339 L3461 337 L3482 334 L3507 331 L3522 329 L3539 326 L3558 323 L3578 320 L3597 316 L3616 312 L3636 307 L3657 302 L3674 298 L3693 294 L3714 290 L3735 287 L3752 285 L3771 282 L3791 280 L3810 278 L3829 276 L3848 274 L3868 272 L3887 269 L3907 268 L3925 265 L3953 263 L3974 261 L4001 259 L4036 257 L4050 255 L4063 253 L4082 252 L4100 250 L4120 248 L4139 246 L4158 245 L4178 244 L4199 242 L4216 241 L4235 239 L4255 237 L4275 235 L4293 233 L4312 232 L4332 230 L4352 229 L4371 228 L4390 227 L4411 225 L4435 224 L4450 222 L4467 220 L4487 218 L4506 217 L4526 215 L4544 214 L4564 211 L4585 208 L4603 205 L4622 202 L4642 198 L4663 195 L4680 193 L4699 191 L4719 188 L4738 186 L4758 183 L4776 181 L4796 179 L4816 177 L4835 176 L4854 174 L4883 173 L4930 171 L4967 169 L4982 167 L4994 166 L5012 164 L5029 163 L5049 163 L5067 161 L5087 160 L5107 158 L5127 157 L5144 156 L5163 155 L5184 154 L5203 153 L5222 151 L5241 150 L5261 148 L5281 147 L5299 145 L5318 143 L5339 140 L5364 138 L5378 135 L5396 132 L5415 130 L5434 127 L5454 125 L5473 123 L5493 120 L5514 118 L5531 115 L5550 113 L5571 111 L5591 109 L5609 108 L5628 106 L5648 104 L5666 103 L5686 101 L5705 99 L5725 97 L5744 95 L5764 94 L5783 92 L5811 90 L5831 88 L5859 85 L5896 82 L5910 78 L5923 74 L5940 71 L5958 69 L5978 67 L5996 66 L6016 65 L6036 63 L6057 62 L6073 60 L6092 58 L6113 55 L6133 53 L6151 50 L6170 46 L6190 42 L6210 39 L6228 36 L6247 34 L6268 31 L6293 28 L6308 26 L6326 24 L6344 22 L6364 20 L6383 17 L6402 14 L6422 11 L6443 9 L6460 6 L6479 4 L6500 2" />
</svg>
