<svg xmlns="http://www.w3.org/2000/svg" version="1.1" viewBox="0 0 6500 1000">
	<path fill="none" stroke="gold" stroke-width="125" stroke-linecap="round" stroke-linejoin="round" d="M0 3810  L-724348 3810 L-721744 3810 L-720076 3810 L-701747 3809 L-701577 3809 L-694419 3808 L-694386 3808 L-680955 3808 L-678033 3808 L-664692 3808 L-660523 3807 L-659363 3806 L-658744 3805 L-656732 3805 L-652960 3805 L-652360 3804 L-652032 3804 L-651818 3804 L-651277 3803 L-650039 3802 L-648860 3800 L-645995 3799 L-645473 3798 L-640618 3797 L-637680 3797 L-637638 3797 L-637329 3796 L-637077 3796 L-634482 3796 L-630227 3796 L-630209 3796 L-628972 3796 L-627095 3796 L-625141 3795 L-624193 3795 L-623922 3794 L-623613 3794 L-623514 3794 L-622684 3794 L-620653 3794 L-620363 3793 L-618216 3792 L-618061 3791 L-614405 3790 L-614154 3790 L-614055 3790 L-613538 3791 L-611387 3792 L-610458 3793 L-608932 3793 L-607692 3793 L-606146 3793 L-603184 3793 L-602062 3793 L-601753 3792 L-600542 3792 L-597535 3794 L-597516 3794 L-597168 3794 L-596955 3793 L-596829 3791 L-596587 3791 L-596549 3790 L-596530 3790 L-596510 3790 L-596451 3789 L-596393 3789 L-596375 3789 L-595932 3788 L-594692 3788 L-593147 3788 L-589759 3787 L-584033 3787 L-583831 3787 L-582195 3787 L-580473 3786 L-579041 3786 L-578809 3786 L-578094 3786 L-571961 3786 L-571594 3785 L-571439 3785 L-570861 3785 L-570568 3784 L-569601 3784 L-569291 3784 L-568692 3783 L-567086 3783 L-566351 3783 L-566041 3783 L-565273 3783 L-563237 3783 L-562811 3783 L-561999 3783 L-554570 3782 L-554047 3782 L-553874 3782 L-553139 3781 L-551571 3781 L-551165 3781 L-548940 3780 L-547992 3780 L-547567 3780 L-547237 3780 L-546193 3780 L-544085 3779 L-543833 3779 L-543214 3779 L-542401 3779 L-540294 3778 L-540245 3778 L-538317 3778 L-537991 3777 L-537856 3777 L-537353 3777 L-535940 3776 L-535437 3776 L-534916 3775 L-531356 3774 L-530621 3774 L-528196 3774 L-526907 3773 L-526500 3773 L-523347 3773 L-523192 3773 L-523172 3773 L-522806 3773 L-521547 3774 L-520832 3774 L-519942 3774 L-519535 3774 L-518607 3774 L-517498 3774 L-517195 3774 L-510946 3775 L-509999 3775 L-508373 3775 L-507871 3775 L-504195 3776 L-503363 3776 L-499410 3776 L-497998 3775 L-495509 3775 L-494832 3775 L-494793 3775 L-493923 3775 L-490711 3774 L-487848 3774 L-486880 3774 L-485759 3774 L-485740 3773 L-484115 3773 L-483651 3772 L-483559 3772 L-477189 3772 L-476241 3772 L-473784 3772 L-472912 3771 L-471676 3771 L-469674 3771 L-469277 3771 L-467840 3770 L-465814 3770 L-465601 3770 L-464421 3770 L-462913 3770 L-462892 3769 L-460880 3769 L-460011 3769 L-459140 3769 L-458555 3768 L-458018 3768 L-457360 3768 L-456122 3767 L-455561 3767 L-454380 3767 L-453143 3767 L-453104 3767 L-452717 3766 L-452176 3766 L-451402 3766 L-450280 3766 L-448190 3765 L-447857 3765 L-447571 3765 L-446643 3764 L-446159 3764 L-445424 3764 L-441793 3764 L-440665 3764 L-440510 3763 L-439484 3763 L-435770 3763 L-434552 3763 L-432734 3762 L-429948 3762 L-429387 3762 L-425499 3762 L-423022 3761 L-421687 3761 L-421184 3761 L-420701 3761 L-418012 3761 L-414240 3761 L-411783 3761 L-410603 3761 L-409964 3761 L-407604 3761 L-407527 3760 L-406479 3760 L-406386 3760 L-405883 3760 L-405437 3760 L-405380 3760 L-405166 3760 L-402206 3760 L-399499 3759 L-399344 3759 L-395823 3759 L-395300 3759 L-394333 3758 L-393984 3758 L-392940 3758 L-392012 3757 L-391586 3757 L-390077 3757 L-389110 3757 L-389091 3757 L-387195 3744 L-387079 3731 L-387031 3718 L-387007 3705 L-384003 3705 L-381972 3705 L-380211 3705 L-379844 3704 L-379399 3704 L-379032 3704 L-378618 3704 L-376633 3703 L-376420 3703 L-376265 3703 L-374659 3703 L-373538 3703 L-372589 3703 L-371332 3702 L-369687 3702 L-368508 3702 L-361918 3702 L-361872 3702 L-361466 3701 L-360421 3701 L-360285 3701 L-358603 3701 L-358583 3701 L-357246 3700 L-356010 3700 L-355856 3700 L-355482 3700 L-355276 3699 L-354966 3699 L-354192 3699 L-351871 3699 L-351213 3698 L-349085 3698 L-347363 3698 L-347169 3698 L-344616 3698 L-344340 3697 L-344152 3697 L-343319 3697 L-342547 3697 L-341849 3696 L-336848 3696 L-336472 3696 L-332219 3696 L-331732 3713 L-331713 3713 L-331634 3713 L-331558 3713 L-331539 3695 L-330726 3695 L-329972 3694 L-328753 3694 L-327321 3694 L-327225 3694 L-327050 3694 L-326696 3694 L-325387 3694 L-323529 3693 L-321827 3693 L-321324 3693 L-321059 3693 L-320666 3693 L-320532 3692 L-319622 3692 L-319245 3692 L-318317 3692 L-317978 3692 L-317938 3692 L-317901 3692 L-315985 3692 L-315811 3691 L-314283 3691 L-313954 3691 L-313838 3691 L-313431 3691 L-313083 3691 L-311439 3690 L-310888 3690 L-310645 3690 L-310104 3690 L-309273 3689 L-308731 3689 L-307196 3689 L-307104 3689 L-307067 3689 L-306931 3688 L-306544 3688 L-305519 3688 L-303643 3688 L-303547 3688 L-302946 3693 L-302579 3699 L-302095 3705 L-302057 3711 L-301283 3712 L-301225 3711 L-301051 3711 L-300857 3711 L-299252 3711 L-299232 3710 L-299077 3711 L-298961 3711 L-297782 3711 L-297627 3712 L-296960 3712 L-294512 3726 L-291997 3741 L-289327 3755 L-281628 3769 L-275960 3769 L-273746 3769 L-273722 3769 L-272748 3772 L-272729 3772 L-271865 3772 L-269125 3772 L-263326 3768 L-263173 3768 L-260387 3767 L-246778 3767 L-246033 3767 L-241622 3767 L-225276 3766 L-225043 3766 L-224506 3766 L-216047 3766 L-207341 3766 L-207129 3765 L-205156 3765 L-202370 3765 L-197883 3765 L-197728 3765 L-197559 3765 L-197419 3765 L-197128 3765 L-197089 3764 L-196818 3764 L-196647 3764 L-196237 3764 L-195116 3764 L-193936 3764 L-192659 3763 L-189795 3763 L-186875 3763 L-184883 3763 L-183335 3763 L-180297 3762 L-170973 3762 L-170449 3762 L-164725 3762 L-163218 3762 L-162403 3762 L-160720 3761 L-159999 3761 L-159830 3761 L-158785 3761 L-156718 3761 L-155356 3761 L-150912 3760 L-150815 3760 L-150777 3760 L-150758 3760 L-149925 3760 L-149847 3759 L-147275 3759 L-144026 3759 L-143871 3759 L-142923 3759 L-141181 3758 L-140466 3759 L-136925 3760 L-130348 3761 L-128931 3763 L-128910 3763 L-127959 3762 L-124485 3762 L-123732 3762 L-123170 3762 L-122388 3761 L-114884 3761 L-113286 3761 L-111712 3761 L-108526 3761 L-104193 3761 L-95624 3760 L-86877 3760 L-83803 3760 L-80537 3760 L-79991 3760 L-72854 3760 L-67186 3760 L-53121 3760 L-47110 3760 L-42404 3760 L-38401 3759 L-33293 3759 L-23579 3759 L-8008 3759 L-4926 3758 L-4624 3680 L-4604 3583 L-4585 3473 L-4565 3350 L-4546 3294 L-4526 3247 L-4508 3204 L-4480 3161 L-4459 3119 L-4431 3075 L-4396 3027 L-4383 2985 L-4369 2950 L-4351 2921 L-4332 2899 L-4312 2877 L-4294 2855 L-4275 2833 L-4255 2810 L-4234 2787 L-4217 2764 L-4198 2742 L-4178 2721 L-4158 2699 L-4139 2676 L-4121 2652 L-4101 2627 L-4081 2603 L-4062 2579 L-4043 2557 L-4022 2536 L-3997 2514 L-3983 2494 L-3966 2474 L-3946 2454 L-3927 2434 L-3907 2413 L-3889 2391 L-3869 2370 L-3848 2350 L-3830 2331 L-3811 2313 L-3791 2296 L-3770 2280 L-3753 2266 L-3734 2253 L-3714 2239 L-3695 2227 L-3675 2215 L-3657 2203 L-3637 2194 L-3617 2185 L-3598 2175 L-3579 2166 L-3552 2154 L-3531 2142 L-3503 2128 L-3469 2113 L-3455 2101 L-3442 2090 L-3423 2080 L-3404 2072 L-3384 2063 L-3366 2052 L-3346 2042 L-3326 2032 L-3306 2023 L-3288 2014 L-3270 2004 L-3249 1995 L-3230 1984 L-3211 1972 L-3192 1958 L-3172 1945 L-3153 1931 L-3134 1917 L-3115 1903 L-3094 1887 L-3069 1870 L-3055 1853 L-3038 1837 L-3018 1821 L-2999 1805 L-2979 1789 L-2960 1771 L-2940 1755 L-2920 1738 L-2902 1722 L-2883 1707 L-2862 1692 L-2842 1677 L-2824 1663 L-2805 1650 L-2785 1637 L-2767 1626 L-2747 1614 L-2728 1602 L-2708 1591 L-2689 1579 L-2669 1568 L-2651 1556 L-2622 1545 L-2602 1534 L-2574 1523 L-2537 1510 L-2522 1497 L-2510 1486 L-2492 1475 L-2475 1467 L-2456 1459 L-2437 1452 L-2418 1446 L-2398 1440 L-2377 1433 L-2360 1425 L-2341 1418 L-2321 1410 L-2301 1401 L-2283 1392 L-2264 1383 L-2244 1373 L-2224 1363 L-2205 1352 L-2186 1342 L-2165 1332 L-2141 1322 L-2126 1312 L-2109 1301 L-2089 1291 L-2070 1281 L-2050 1270 L-2032 1259 L-2012 1248 L-1991 1237 L-1973 1226 L-1954 1217 L-1934 1207 L-1914 1198 L-1896 1190 L-1877 1181 L-1857 1172 L-1838 1163 L-1818 1154 L-1799 1146 L-1780 1138 L-1760 1130 L-1741 1122 L-1722 1114 L-1694 1105 L-1674 1097 L-1646 1088 L-1610 1075 L-1595 1063 L-1582 1051 L-1565 1041 L-1547 1035 L-1527 1028 L-1508 1020 L-1489 1012 L-1469 1003 L-1448 993 L-1429 983 L-1412 972 L-1392 961 L-1372 949 L-1354 936 L-1335 923 L-1315 910 L-1294 897 L-1277 886 L-1258 876 L-1236 869 L-1211 862 L-1197 856 L-1179 850 L-1160 843 L-1141 836 L-1122 829 L-1103 822 L-1083 816 L-1062 811 L-1045 806 L-1025 800 L-1005 792 L-984 783 L-967 775 L-948 768 L-928 763 L-909 759 L-890 755 L-871 751 L-851 747 L-831 742 L-812 737 L-793 733 L-766 728 L-745 724 L-717 719 L-682 713 L-669 708 L-656 704 L-637 700 L-618 697 L-598 693 L-580 690 L-560 686 L-541 683 L-520 680 L-502 677 L-484 673 L-463 669 L-443 665 L-425 661 L-406 657 L-386 654 L-366 651 L-348 648 L-329 644 L-308 641 L-283 638 L-268 635 L-251 632 L-232 629 L-213 625 L-193 622 L-174 618 L-154 614 L-133 611 L-116 607 L-97 604 L-76 601 L-56 598 L-38 595 L-20 591 L0 589 L18 586 L38 583 L57 580 L77 578 L96 576 L115 574 L134 578 L163 581 L183 585 L211 588 L248 585 L263 582 L276 580 L293 578 L309 576 L329 575 L348 572 L367 570 L387 568 L408 567 L425 565 L444 563 L464 561 L484 559 L502 557 L521 555 L541 553 L561 551 L579 549 L598 547 L620 546 L645 544 L659 542 L676 540 L696 538 L715 536 L734 534 L754 532 L773 529 L794 526 L812 523 L831 521 L851 518 L872 516 L889 513 L908 511 L928 509 L947 506 L967 503 L985 501 L1005 498 L1025 496 L1044 494 L1063 492 L1090 490 L1111 487 L1139 485 L1174 482 L1187 480 L1201 478 L1220 475 L1238 473 L1258 472 L1276 469 L1296 467 L1316 465 L1337 463 L1354 461 L1372 459 L1393 456 L1413 454 L1431 451 L1450 447 L1470 444 L1490 441 L1508 438 L1527 435 L1548 432 L1573 429 L1588 426 L1605 422 L1624 419 L1644 416 L1663 413 L1682 410 L1702 407 L1723 404 L1740 401 L1759 399 L1780 396 L1801 393 L1818 391 L1837 389 L1857 387 L1875 385 L1895 383 L1914 382 L1934 380 L1954 378 L1973 377 L1991 376 L2019 374 L2040 372 L2067 370 L2103 367 L2117 364 L2130 361 L2148 358 L2167 356 L2186 355 L2205 352 L2224 351 L2244 349 L2265 347 L2282 345 L2301 342 L2321 340 L2341 337 L2360 335 L2378 332 L2398 330 L2419 327 L2437 325 L2456 323 L2477 321 L2502 319 L2517 318 L2534 315 L2553 313 L2573 311 L2592 308 L2611 306 L2631 302 L2652 299 L2669 296 L2688 293 L2708 290 L2729 288 L2746 286 L2765 285 L2785 283 L2804 282 L2824 280 L2842 278 L2862 277 L2882 275 L2901 274 L2920 273 L2947 271 L2968 270 L2996 268 L3030 267 L3044 265 L3058 264 L3076 263 L3095 262 L3115 260 L3133 259 L3153 258 L3173 257 L3193 256 L3210 255 L3229 254 L3250 252 L3270 251 L3288 250 L3307 248 L3327 247 L3347 247 L3365 246 L3384 245 L3405 244 L3430 243 L3444 242 L3462 240 L3481 239 L3501 238 L3520 237 L3539 236 L3559 234 L3579 232 L3597 230 L3616 227 L3637 225 L3657 222 L3675 221 L3694 219 L3714 218 L3732 216 L3752 214 L3771 212 L3791 211 L3810 210 L3830 209 L3848 208 L3877 207 L3925 205 L3962 204 L3976 203 L3989 201 L4006 200 L4024 200 L4043 199 L4062 199 L4081 197 L4101 196 L4122 196 L4139 195 L4158 194 L4178 193 L4198 192 L4217 191 L4235 190 L4255 189 L4275 188 L4294 187 L4313 185 L4334 184 L4358 182 L4373 180 L4390 178 L4410 176 L4429 174 L4449 172 L4467 171 L4487 169 L4508 168 L4526 166 L4545 164 L4565 163 L4585 161 L4603 160 L4622 159 L4642 158 L4661 157 L4681 156 L4700 154 L4719 153 L4739 152 L4758 150 L4777 149 L4805 148 L4825 146 L4853 144 L4890 142 L4905 139 L4917 137 L4935 134 L4952 133 L4973 132 L4991 131 L5010 130 L5030 129 L5051 128 L5068 126 L5087 125 L5107 123 L5128 121 L5145 119 L5165 116 L5184 114 L5205 112 L5223 109 L5241 108 L5263 106 L5288 104 L5303 102 L5320 101 L5339 99 L5359 98 L5377 96 L5396 94 L5416 92 L5438 90 L5455 88 L5474 87 L5494 85 L5515 84 L5532 82 L5551 81 L5571 79 L5590 78 L5609 77 L5628 75 L5648 74 L5668 73 L5687 72 L5706 71 L5734 997 L5754 995 L5782 994 L5818 991 L5832 62 L5845 61 L5863 59 L5881 58 L5901 57 L5919 56 L5939 55 L5958 54 L5980 52 L5996 50 L6015 48 L6036 46 L6056 44 L6074 41 L6093 39 L6113 36 L6134 35 L6151 33 L6170 32 L6191 30 L6216 28 L6231 26 L6261 23 L6301 20 L6324 18 L6353 14 L6369 12 L6383 10 L6403 8 L6423 7 L6444 5 L6460 4 L6479 3 L6500 1" />
</svg>
