<svg xmlns="http://www.w3.org/2000/svg" version="1.1" viewBox="0 0 6500 1000">
	<path fill="none" stroke="gold" stroke-width="125" stroke-linecap="round" stroke-linejoin="round" d="M0 3768  L-724640 3768 L-722036 3768 L-720368 3768 L-702038 3768 L-701868 3767 L-694710 3767 L-694677 3767 L-681246 3767 L-678324 3767 L-664983 3766 L-660814 3766 L-659654 3765 L-659035 3764 L-657023 3763 L-653252 3763 L-652652 3763 L-652323 3762 L-652110 3762 L-651568 3762 L-650330 3760 L-649151 3759 L-646287 3758 L-645765 3756 L-640909 3756 L-637972 3756 L-637929 3755 L-637621 3755 L-637369 3755 L-634774 3754 L-630518 3754 L-630500 3754 L-629264 3754 L-627386 3754 L-625433 3754 L-624485 3753 L-624214 3753 L-623904 3753 L-623806 3753 L-622976 3753 L-620945 3753 L-620654 3751 L-618508 3751 L-618352 3750 L-614696 3749 L-614445 3749 L-614346 3749 L-613829 3750 L-611678 3750 L-610749 3751 L-609223 3752 L-607984 3752 L-606437 3752 L-603476 3752 L-602354 3751 L-602045 3751 L-600833 3751 L-597827 3753 L-597807 3752 L-597460 3752 L-597246 3752 L-597120 3750 L-596879 3749 L-596841 3749 L-596821 3749 L-596802 3748 L-596743 3748 L-596684 3748 L-596666 3747 L-596223 3747 L-594984 3747 L-593438 3746 L-590050 3746 L-584324 3746 L-584123 3746 L-582487 3745 L-580765 3745 L-579333 3745 L-579100 3745 L-578385 3745 L-572253 3745 L-571885 3744 L-571731 3744 L-571152 3743 L-570860 3743 L-569892 3743 L-569583 3742 L-568984 3742 L-567378 3742 L-566642 3742 L-566333 3742 L-565564 3742 L-563528 3742 L-563103 3742 L-562290 3741 L-554862 3741 L-554339 3741 L-554165 3740 L-553430 3740 L-551862 3740 L-551457 3740 L-549232 3739 L-548284 3739 L-547859 3739 L-547529 3739 L-546485 3739 L-544377 3738 L-544125 3738 L-543506 3738 L-542693 3737 L-540585 3737 L-540537 3737 L-538608 3736 L-538283 3736 L-538148 3736 L-537644 3736 L-536232 3735 L-535729 3735 L-535207 3734 L-531647 3733 L-530912 3733 L-528487 3733 L-527198 3732 L-526791 3732 L-523639 3732 L-523484 3732 L-523464 3732 L-523097 3732 L-521839 3732 L-521124 3733 L-520234 3733 L-519827 3733 L-518898 3733 L-517790 3732 L-517486 3733 L-511238 3734 L-510290 3734 L-508664 3734 L-508162 3734 L-504487 3735 L-503654 3735 L-499701 3735 L-498289 3734 L-495800 3734 L-495124 3734 L-495085 3734 L-494214 3734 L-491003 3733 L-488140 3733 L-487172 3733 L-486050 3733 L-486031 3732 L-484406 3732 L-483942 3731 L-483850 3731 L-477481 3731 L-476532 3731 L-474075 3731 L-473203 3730 L-471967 3730 L-469966 3730 L-469568 3730 L-468132 3729 L-466106 3729 L-465892 3729 L-464712 3729 L-463204 3729 L-463184 3728 L-461172 3728 L-460302 3728 L-459431 3728 L-458846 3727 L-458309 3727 L-457651 3727 L-456413 3726 L-455853 3726 L-454672 3726 L-453434 3726 L-453396 3726 L-453009 3725 L-452467 3725 L-451693 3725 L-450571 3725 L-448482 3724 L-448148 3724 L-447863 3724 L-446934 3724 L-446451 3723 L-445715 3723 L-442084 3723 L-440957 3723 L-440802 3723 L-439776 3722 L-436061 3722 L-434844 3722 L-433025 3721 L-430240 3721 L-429678 3721 L-425790 3721 L-423314 3721 L-421979 3721 L-421475 3720 L-420992 3720 L-418303 3720 L-414531 3720 L-412074 3720 L-410894 3720 L-410255 3720 L-407896 3720 L-407818 3720 L-406771 3719 L-406677 3719 L-406174 3719 L-405729 3719 L-405671 3719 L-405457 3719 L-402498 3719 L-399790 3719 L-399635 3718 L-396115 3718 L-395592 3718 L-394624 3718 L-394275 3717 L-393232 3717 L-392303 3717 L-391878 3716 L-390368 3716 L-389402 3716 L-389383 3716 L-387487 3704 L-387371 3691 L-387323 3678 L-387298 3665 L-384294 3665 L-382263 3665 L-380503 3665 L-380136 3664 L-379690 3664 L-379323 3664 L-378909 3664 L-376924 3663 L-376711 3663 L-376556 3663 L-374951 3663 L-373829 3663 L-372881 3663 L-371623 3662 L-369979 3662 L-368799 3662 L-362210 3662 L-362163 3662 L-361757 3661 L-360712 3661 L-360577 3661 L-358894 3661 L-358874 3661 L-357538 3660 L-356301 3660 L-356147 3660 L-355773 3660 L-355567 3659 L-355258 3659 L-354484 3659 L-352162 3659 L-351504 3659 L-349377 3658 L-347654 3658 L-347461 3658 L-344907 3658 L-344631 3657 L-344443 3657 L-343610 3657 L-342838 3657 L-342140 3656 L-337139 3656 L-336763 3656 L-332511 3656 L-332023 3673 L-332004 3673 L-331925 3673 L-331850 3673 L-331830 3655 L-331017 3655 L-330264 3655 L-329044 3654 L-327613 3654 L-327516 3654 L-327342 3654 L-326987 3654 L-325678 3654 L-323821 3654 L-322118 3653 L-321616 3653 L-321350 3653 L-320957 3653 L-320823 3653 L-319913 3652 L-319537 3652 L-318608 3652 L-318269 3652 L-318230 3652 L-318192 3652 L-316276 3652 L-316103 3652 L-314574 3652 L-314246 3651 L-314130 3651 L-313723 3651 L-313374 3651 L-311731 3650 L-311180 3650 L-310937 3650 L-310395 3650 L-309564 3650 L-309022 3649 L-307488 3649 L-307396 3649 L-307359 3649 L-307223 3649 L-306836 3648 L-305811 3648 L-303934 3648 L-303838 3648 L-303238 3653 L-302871 3659 L-302386 3665 L-302348 3671 L-301574 3671 L-301517 3671 L-301342 3671 L-301149 3671 L-299543 3670 L-299523 3670 L-299368 3671 L-299253 3671 L-298073 3671 L-297918 3671 L-297251 3671 L-294803 3686 L-292288 3700 L-289618 3714 L-281919 3728 L-276252 3728 L-274037 3728 L-274014 3728 L-273040 3731 L-273020 3731 L-272156 3731 L-269416 3731 L-263617 3727 L-263464 3727 L-260678 3726 L-247070 3726 L-246324 3726 L-241913 3726 L-225567 3725 L-225335 3725 L-224798 3725 L-216338 3725 L-207633 3725 L-207420 3724 L-205448 3724 L-202662 3724 L-198174 3724 L-198019 3724 L-197850 3724 L-197710 3724 L-197419 3724 L-197381 3724 L-197110 3723 L-196938 3723 L-196528 3723 L-195407 3723 L-194227 3723 L-192950 3723 L-190086 3722 L-187166 3722 L-185174 3722 L-183627 3722 L-180589 3721 L-171264 3721 L-170740 3721 L-165016 3721 L-163509 3721 L-162695 3721 L-161011 3721 L-160290 3720 L-160122 3720 L-159076 3720 L-157009 3720 L-155647 3720 L-151204 3720 L-151107 3719 L-151068 3719 L-151049 3719 L-150217 3719 L-150139 3719 L-147566 3718 L-144317 3718 L-144162 3718 L-143214 3718 L-141473 3718 L-140757 3719 L-137217 3719 L-130639 3720 L-129222 3722 L-129201 3722 L-128251 3721 L-124776 3721 L-124023 3721 L-123462 3721 L-122680 3721 L-115175 3720 L-113577 3720 L-112003 3720 L-108818 3720 L-104485 3720 L-95915 3720 L-87169 3720 L-84095 3719 L-80829 3719 L-80282 3719 L-73145 3719 L-67477 3719 L-53413 3719 L-47402 3719 L-42695 3719 L-38692 3718 L-33584 3718 L-23870 3718 L-8300 3718 L-5217 3717 L-4915 3640 L-4895 3545 L-4876 3436 L-4857 3315 L-4837 3260 L-4818 3214 L-4799 3171 L-4772 3129 L-4751 3088 L-4723 3044 L-4688 2997 L-4674 2956 L-4661 2921 L-4642 2892 L-4624 2871 L-4604 2849 L-4586 2827 L-4566 2805 L-4546 2783 L-4525 2760 L-4508 2738 L-4490 2716 L-4469 2695 L-4449 2674 L-4431 2651 L-4412 2627 L-4392 2603 L-4372 2579 L-4354 2556 L-4335 2534 L-4314 2513 L-4289 2492 L-4274 2472 L-4257 2452 L-4237 2432 L-4218 2413 L-4199 2392 L-4180 2370 L-4160 2349 L-4139 2330 L-4122 2311 L-4103 2294 L-4082 2277 L-4062 2261 L-4044 2247 L-4025 2234 L-4005 2221 L-3986 2209 L-3967 2197 L-3948 2186 L-3928 2176 L-3908 2167 L-3889 2158 L-3871 2149 L-3843 2137 L-3822 2125 L-3795 2112 L-3761 2097 L-3746 2085 L-3733 2074 L-3715 2064 L-3696 2056 L-3676 2047 L-3657 2037 L-3638 2027 L-3618 2017 L-3597 2007 L-3580 1999 L-3561 1989 L-3541 1980 L-3521 1969 L-3502 1957 L-3484 1944 L-3464 1931 L-3444 1917 L-3425 1903 L-3406 1890 L-3385 1874 L-3361 1857 L-3346 1840 L-3329 1825 L-3309 1809 L-3290 1793 L-3270 1777 L-3252 1760 L-3231 1743 L-3211 1727 L-3193 1712 L-3174 1696 L-3154 1682 L-3133 1667 L-3116 1653 L-3097 1641 L-3077 1627 L-3058 1617 L-3038 1605 L-3019 1593 L-3000 1582 L-2980 1571 L-2961 1559 L-2942 1548 L-2913 1536 L-2893 1526 L-2866 1515 L-2828 1502 L-2813 1490 L-2801 1478 L-2784 1468 L-2767 1460 L-2747 1453 L-2728 1446 L-2709 1439 L-2689 1433 L-2669 1426 L-2651 1419 L-2633 1411 L-2612 1403 L-2592 1395 L-2574 1387 L-2555 1378 L-2535 1368 L-2515 1357 L-2497 1347 L-2478 1337 L-2457 1327 L-2432 1317 L-2418 1307 L-2400 1297 L-2380 1286 L-2361 1277 L-2342 1266 L-2323 1255 L-2303 1244 L-2283 1233 L-2264 1223 L-2246 1213 L-2225 1204 L-2205 1195 L-2187 1187 L-2168 1178 L-2148 1169 L-2130 1161 L-2110 1152 L-2091 1144 L-2071 1136 L-2052 1128 L-2032 1120 L-2013 1112 L-1985 1104 L-1965 1096 L-1937 1086 L-1901 1074 L-1887 1062 L-1874 1051 L-1856 1041 L-1838 1035 L-1818 1028 L-1800 1020 L-1780 1012 L-1760 1003 L-1739 993 L-1721 983 L-1704 973 L-1683 961 L-1663 949 L-1645 937 L-1626 924 L-1606 911 L-1586 899 L-1568 888 L-1549 878 L-1528 870 L-1503 864 L-1488 858 L-1471 852 L-1452 845 L-1432 838 L-1413 832 L-1394 825 L-1374 819 L-1353 814 L-1336 809 L-1317 803 L-1296 795 L-1276 786 L-1259 778 L-1240 772 L-1219 766 L-1201 762 L-1181 759 L-1162 755 L-1142 750 L-1123 746 L-1104 741 L-1085 736 L-1057 732 L-1036 728 L-1009 723 L-974 717 L-960 713 L-947 708 L-928 705 L-910 701 L-890 698 L-871 694 L-852 691 L-832 688 L-811 685 L-794 682 L-775 678 L-755 674 L-735 670 L-717 666 L-698 662 L-678 659 L-658 656 L-639 653 L-621 649 L-599 646 L-574 643 L-560 640 L-543 637 L-523 634 L-504 631 L-485 627 L-466 624 L-446 620 L-425 616 L-407 613 L-388 610 L-368 606 L-347 604 L-330 601 L-311 597 L-291 595 L-272 592 L-252 589 L-234 587 L-214 585 L-194 582 L-175 580 L-156 584 L-128 587 L-108 591 L-80 594 L-43 591 L-27 589 L-15 586 L2 584 L18 583 L38 581 L56 579 L76 577 L96 575 L117 573 L134 572 L152 570 L173 568 L193 566 L211 564 L230 562 L250 560 L270 558 L288 556 L307 554 L328 552 L353 551 L368 549 L385 547 L404 545 L424 543 L443 541 L462 539 L482 536 L503 533 L520 530 L539 528 L560 525 L580 523 L598 521 L617 518 L637 516 L655 514 L675 511 L694 508 L714 506 L733 503 L753 502 L771 500 L799 497 L820 495 L848 493 L882 490 L896 487 L909 485 L928 483 L947 481 L967 479 L985 477 L1004 475 L1024 473 L1045 471 L1062 469 L1081 467 L1101 464 L1121 462 L1140 459 L1158 456 L1178 452 L1199 449 L1217 446 L1235 443 L1257 440 L1282 437 L1297 434 L1314 431 L1333 428 L1353 425 L1372 422 L1391 419 L1411 416 L1431 413 L1449 410 L1468 407 L1489 405 L1509 402 L1526 400 L1545 398 L1565 396 L1584 394 L1604 393 L1622 391 L1642 389 L1662 388 L1681 386 L1700 385 L1728 383 L1748 381 L1776 380 L1812 377 L1825 374 L1838 371 L1857 368 L1875 366 L1895 364 L1913 362 L1933 360 L1953 358 L1974 356 L1991 354 L2009 352 L2030 350 L2050 347 L2068 345 L2087 342 L2107 340 L2127 337 L2145 335 L2164 333 L2186 331 L2210 329 L2225 328 L2242 326 L2262 323 L2281 321 L2300 319 L2319 316 L2339 313 L2360 309 L2377 306 L2397 303 L2417 301 L2438 299 L2455 297 L2474 295 L2494 294 L2513 292 L2532 291 L2551 289 L2571 288 L2591 286 L2610 285 L2628 283 L2656 282 L2677 281 L2704 279 L2739 278 L2753 276 L2766 275 L2785 274 L2804 272 L2823 271 L2842 270 L2861 269 L2881 268 L2902 267 L2919 266 L2938 265 L2958 263 L2978 262 L2997 261 L3015 260 L3035 259 L3055 258 L3074 257 L3093 256 L3114 255 L3138 254 L3153 253 L3170 251 L3190 250 L3209 249 L3229 248 L3247 247 L3267 245 L3288 243 L3306 241 L3325 239 L3345 236 L3366 234 L3383 232 L3402 231 L3422 229 L3441 228 L3461 226 L3480 224 L3499 223 L3519 222 L3538 220 L3557 219 L3586 218 L3633 217 L3670 216 L3685 214 L3698 213 L3715 212 L3732 212 L3752 211 L3770 210 L3790 209 L3810 208 L3830 207 L3848 207 L3866 206 L3887 205 L3906 204 L3925 203 L3944 202 L3964 201 L3984 200 L4002 199 L4021 197 L4042 196 L4067 194 L4082 192 L4099 190 L4119 188 L4138 186 L4157 185 L4176 183 L4196 182 L4217 180 L4235 178 L4253 176 L4274 175 L4294 174 L4312 173 L4331 171 L4351 170 L4370 169 L4389 168 L4408 167 L4428 165 L4447 164 L4467 163 L4486 162 L4514 160 L4534 159 L4562 157 L4599 154 L4613 152 L4626 149 L4644 147 L4661 146 L4681 144 L4699 143 L4719 143 L4739 142 L4760 141 L4777 139 L4795 138 L4816 136 L4836 134 L4854 132 L4873 130 L4893 127 L4914 125 L4931 123 L4950 121 L4971 119 L4996 117 L5011 115 L5029 114 L5047 112 L5068 111 L5086 109 L5105 107 L5125 105 L5146 103 L5163 102 L5183 100 L5203 99 L5224 97 L5240 96 L5260 94 L5279 93 L5298 92 L5318 90 L5337 89 L5357 88 L5377 87 L5396 86 L5414 84 L5442 997 L5463 995 L5490 994 L5526 992 L5540 76 L5554 74 L5571 73 L5589 72 L5609 71 L5628 70 L5647 69 L5667 68 L5688 66 L5705 64 L5724 62 L5744 60 L5765 58 L5783 56 L5802 53 L5821 51 L5842 49 L5860 47 L5878 46 L5900 44 L5925 42 L5940 40 L5969 38 L6009 35 L6032 32 L6062 29 L6078 26 L6092 24 L6111 23 L6131 21 L6152 20 L6169 19 L6188 17 L6208 16 L6227 15 L6247 15 L6265 14 L6285 13 L6305 12 L6324 11 L6343 9 L6370 8 L6391 7 L6419 6 L6454 4 L6468 3 L6500 1" />
</svg>
