<svg xmlns="http://www.w3.org/2000/svg" version="1.1" viewBox="0 0 6500 1000">
	<path fill="none" stroke="gold" stroke-width="125" stroke-linecap="round" stroke-linejoin="round" d="M0 91576  L-240658 91576 L-238054 91152 L-236386 90728 L-218057 89881 L-217887 89033 L-210729 88186 L-210696 88186 L-197265 87762 L-194343 88186 L-181002 86915 L-176833 85220 L-175673 83101 L-175054 80983 L-173042 79711 L-169270 78864 L-168670 78016 L-168342 77169 L-168129 76322 L-167587 75474 L-166349 72084 L-165170 68694 L-162305 65305 L-161783 61915 L-156928 61067 L-153990 60220 L-153948 59372 L-153639 58525 L-153387 57677 L-150792 56830 L-146537 56830 L-146519 56830 L-145282 56830 L-143405 56830 L-141451 55983 L-140503 55135 L-140232 54288 L-139923 53864 L-139824 53440 L-138994 53440 L-136963 53864 L-136673 50050 L-134526 48355 L-134371 45813 L-130715 43271 L-130464 44542 L-130365 44118 L-129848 45389 L-127697 47508 L-126768 49627 L-125242 51745 L-124002 51745 L-122456 51322 L-119494 50474 L-118372 49627 L-118063 48779 L-116852 48355 L-113845 53016 L-113826 52593 L-113478 52169 L-113265 51745 L-113139 45813 L-112897 44966 L-112859 44118 L-112840 43271 L-112820 42423 L-112761 41576 L-112703 40728 L-112685 39881 L-112242 39033 L-111002 38186 L-109457 37338 L-106069 36491 L-100343 36067 L-100141 35644 L-98505 35220 L-96783 34796 L-95351 34372 L-95119 33949 L-94404 33525 L-88271 33101 L-87904 32254 L-87749 31406 L-87171 30559 L-86878 29711 L-85911 28864 L-85601 28016 L-85002 27169 L-83396 27169 L-82661 27169 L-82351 27593 L-81583 27593 L-79547 26745 L-79121 25898 L-78309 25474 L-70880 24627 L-70357 23779 L-70184 22932 L-69449 22084 L-67881 21237 L-67475 20813 L-65250 19966 L-64302 19542 L-63877 19118 L-63547 19118 L-62503 18694 L-60395 17847 L-60143 17000 L-59524 16152 L-58711 15728 L-56604 14881 L-56555 14033 L-54627 13186 L-54301 12338 L-54166 11491 L-53663 11067 L-52250 10220 L-51747 8525 L-51226 7254 L-47666 5559 L-46931 3864 L-44506 3864 L-43217 3016 L-42810 2593 L-39657 2593 L-39502 2593 L-39482 3016 L-39116 3016 L-37857 3440 L-37142 3864 L-36252 3864 L-35845 3864 L-34917 3864 L-33808 3440 L-33505 5135 L-27256 5983 L-26309 6830 L-24683 7677 L-24181 8101 L-20505 8525 L-19673 8949 L-15720 9372 L-14308 8101 L-11819 7254 L-11142 6406 L-11103 5983 L-10233 5983 L-7021 5559 L-4158 5135 L-3190 4711 L-2069 3864 L-2050 3016 L-425 2169 L38 898 L130 474 L6500 50" />
</svg>
