<svg xmlns="http://www.w3.org/2000/svg" version="1.1" viewBox="0 0 6500 1000">
	<path fill="none" stroke="gold" stroke-width="125" stroke-linecap="round" stroke-linejoin="round" d="M0 67497  L-402037 67497 L-399433 67398 L-397764 67298 L-379435 67099 L-379265 66900 L-372107 66701 L-372074 66701 L-358643 66601 L-355721 66701 L-342380 66402 L-338211 66004 L-337051 65507 L-336432 65009 L-334420 64711 L-330648 64512 L-330048 64313 L-329720 64114 L-329507 63915 L-328965 63716 L-327727 62920 L-326548 62124 L-323684 61328 L-323161 60532 L-318306 60333 L-315369 60134 L-315326 59935 L-315017 59736 L-314765 59537 L-312170 59338 L-307915 59338 L-307897 59338 L-306660 59338 L-304783 59338 L-302829 59139 L-301881 58940 L-301611 58741 L-301301 58641 L-301203 58542 L-300372 58542 L-298341 58641 L-298051 57746 L-295905 57348 L-295749 56751 L-292093 56154 L-291842 56452 L-291743 56353 L-291226 56651 L-289075 57149 L-288146 57646 L-286620 58144 L-285381 58144 L-283834 58044 L-280872 57845 L-279750 57646 L-279441 57447 L-278230 57348 L-275223 58442 L-275204 58343 L-274856 58243 L-274643 58144 L-274517 56751 L-274275 56552 L-274238 56353 L-274218 56154 L-274199 55955 L-274140 55756 L-274081 55557 L-274063 55358 L-273620 55159 L-272381 54960 L-270835 54761 L-267447 54562 L-261721 54462 L-261519 54363 L-259883 54263 L-258161 54164 L-256729 54064 L-256497 53965 L-255782 53865 L-249650 53766 L-249282 53567 L-249127 53368 L-248549 53169 L-248256 52970 L-247289 52771 L-246980 52572 L-246380 52373 L-244774 52373 L-244039 52373 L-243729 52472 L-242961 52472 L-240925 52273 L-240500 52074 L-239687 51975 L-232258 51776 L-231735 51577 L-231562 51378 L-230827 51179 L-229259 50980 L-228854 50880 L-226629 50681 L-225681 50582 L-225256 50482 L-224925 50482 L-223882 50383 L-221773 50184 L-221521 49985 L-220902 49786 L-220090 49686 L-217982 49487 L-217933 49288 L-216005 49089 L-215679 48890 L-215544 48691 L-215041 48592 L-213628 48393 L-213125 47995 L-212604 47696 L-209044 47298 L-208309 46900 L-205884 46900 L-204595 46701 L-204188 46601 L-201035 46601 L-200880 46601 L-200860 46701 L-200494 46701 L-199235 46800 L-198520 46900 L-197630 46900 L-197223 46900 L-196295 46900 L-195186 46800 L-194883 47199 L-188634 47398 L-187687 47597 L-186061 47796 L-185559 47895 L-181883 47995 L-181051 48094 L-177098 48194 L-175686 47895 L-173197 47696 L-172520 47497 L-172482 47398 L-171611 47398 L-168399 47298 L-165536 47199 L-164568 47099 L-163447 46900 L-163428 46701 L-161803 46502 L-161339 46203 L-161247 46104 L-154878 46004 L-153929 45905 L-151472 45805 L-150600 45606 L-149364 45507 L-147362 45407 L-146965 45208 L-145529 45009 L-143502 44910 L-143289 44711 L-142109 44611 L-140601 44512 L-140581 44412 L-138568 44313 L-137699 44114 L-136828 44014 L-136243 43815 L-135706 43616 L-135048 43417 L-133810 43218 L-133249 43119 L-132068 43019 L-130831 42920 L-130792 42820 L-130405 42721 L-129864 42522 L-129090 42422 L-127968 42323 L-125878 42124 L-125545 41925 L-125259 41726 L-124331 41626 L-123848 41427 L-123112 41328 L-119481 41228 L-118353 41129 L-118199 41029 L-117173 40830 L-113458 40731 L-112241 40532 L-110422 40333 L-107636 40233 L-107075 40034 L-103187 40034 L-100710 39935 L-99376 39935 L-98872 39835 L-98389 39736 L-95700 39736 L-91928 39736 L-89471 39736 L-88291 39736 L-87652 39636 L-85292 39437 L-85215 39338 L-84167 39238 L-84074 39039 L-83571 39039 L-83125 39039 L-83068 39039 L-82854 39039 L-79895 38840 L-77187 38741 L-77032 38641 L-73511 38542 L-72988 38343 L-72021 38144 L-71672 38044 L-70629 37845 L-69700 37646 L-69274 37547 L-67765 37547 L-66798 37447 L-66779 37348 L-64883 30084 L-64767 22621 L-64719 15258 L-64695 7895 L-61691 7796 L-59660 7597 L-57899 7497 L-57532 7398 L-57087 7199 L-56720 7099 L-56306 6900 L-54321 6800 L-54108 6800 L-53953 6701 L-52347 6701 L-51226 6601 L-50277 6502 L-49020 6303 L-47376 6203 L-46196 6004 L-39606 5905 L-39560 5805 L-39154 5706 L-38109 5606 L-37974 5507 L-36291 5308 L-36271 5208 L-34934 5009 L-33698 4910 L-33544 4810 L-33170 4611 L-32964 4512 L-32654 4412 L-31880 4213 L-29559 4114 L-28901 4014 L-26773 3915 L-25051 3815 L-24857 3616 L-22304 3517 L-22028 3318 L-21840 3119 L-21007 3019 L-20235 2920 L-19537 2820 L-14536 2820 L-14160 2621 L-9907 2522 L-9420 12373 L-9401 12373 L-9322 12273 L-9247 12174 L-9227 2024 L-8414 1925 L-7660 1726 L-6441 1626 L-5009 1626 L-4913 1527 L-4739 1527 L-4384 1328 L-3075 1228 L-1218 1129 L484 930 L987 830 L1252 731 L1645 631 L1779 532 L2689 432 L3065 333 L3994 333 L4333 233 L4373 233 L4410 134 L6326 134 L6500 34" />
</svg>
