<svg xmlns="http://www.w3.org/2000/svg" version="1.1" viewBox="0 0 6500 1000">
	<path fill="none" stroke="gold" stroke-width="125" stroke-linecap="round" stroke-linejoin="round" d="M0 18368  L-263468 18368 L-260864 18294 L-259196 18219 L-240866 18070 L-240696 17920 L-233538 17771 L-233505 17771 L-220074 17697 L-217152 17771 L-203811 17547 L-199642 17249 L-198482 16876 L-197863 16502 L-195851 16279 L-192080 16129 L-191479 15980 L-191151 15831 L-190938 15682 L-190396 15532 L-189158 14935 L-187979 14338 L-185115 13741 L-184592 13144 L-179737 12995 L-176800 12846 L-176757 12697 L-176448 12547 L-176197 12398 L-173602 12249 L-169346 12249 L-169328 12249 L-168091 12249 L-166214 12249 L-164260 12100 L-163312 11950 L-163042 11801 L-162732 11726 L-162634 11652 L-161803 11652 L-159773 11726 L-159482 11055 L-157336 10756 L-157180 10308 L-153524 9861 L-153273 10085 L-153174 10010 L-152657 10234 L-150506 10607 L-149577 10980 L-148051 11353 L-146812 11353 L-145265 11279 L-142303 11129 L-141182 10980 L-140872 10831 L-139661 10756 L-136654 11577 L-136635 11502 L-136287 11428 L-136074 11353 L-135948 10308 L-135707 10159 L-135669 10010 L-135649 9861 L-135630 9711 L-135571 9562 L-135512 9413 L-135494 9264 L-135051 9114 L-133812 8965 L-132266 8816 L-128878 8667 L-123152 8592 L-122950 8517 L-121315 8443 L-119593 8368 L-118161 8294 L-117928 8219 L-117213 8144 L-111081 8070 L-110713 7920 L-110559 7771 L-109980 7622 L-109688 7473 L-108720 7323 L-108411 7174 L-107812 7025 L-106205 7025 L-105470 7025 L-105160 7100 L-104392 7100 L-102356 6950 L-101931 6801 L-101118 6726 L-93690 6577 L-93167 6428 L-92993 6279 L-92258 6129 L-90690 5980 L-90285 5905 L-88060 5756 L-87112 5682 L-86687 5607 L-86356 5607 L-85313 5532 L-83205 5383 L-82952 5234 L-82333 5085 L-81521 5010 L-79413 4861 L-79364 4711 L-77436 4562 L-77110 4413 L-76975 4264 L-76472 4189 L-75060 4040 L-74557 3741 L-74035 3517 L-70475 3219 L-69740 2920 L-67315 2920 L-66026 2771 L-65619 2697 L-62466 2697 L-62312 2697 L-62291 2771 L-61925 2771 L-60667 2846 L-59952 2920 L-59062 2920 L-58655 2920 L-57726 2920 L-56618 2846 L-56314 3144 L-50065 3294 L-49118 3443 L-47492 3592 L-46990 3667 L-43314 3741 L-42482 3816 L-38529 3891 L-37117 3667 L-34628 3517 L-33951 3368 L-33913 3294 L-33042 3294 L-29831 3219 L-26968 3144 L-26000 3070 L-24878 2920 L-24859 2771 L-23234 2622 L-22770 2398 L-22678 2323 L-16309 2249 L-15360 2174 L-12903 2100 L-12031 1950 L-10795 1876 L-8794 1801 L-8396 1652 L-6960 1502 L-4934 1428 L-4720 1279 L-3540 1204 L-2032 1129 L-2012 1055 L0 980 L869 831 L1740 756 L2325 607 L2862 458 L3520 308 L4758 159 L5318 85 L6500 10" />
</svg>
