<svg xmlns="http://www.w3.org/2000/svg" version="1.1" viewBox="0 0 6500 1000">
	<path fill="none" stroke="gold" stroke-width="125" stroke-linecap="round" stroke-linejoin="round" d="M0 2824  L-721855 2824 L-719251 2824 L-717583 2824 L-699253 2824 L-699083 2823 L-691925 2823 L-691892 2823 L-678461 2823 L-675540 2823 L-662199 2823 L-658030 2822 L-656870 2822 L-656251 2821 L-654239 2820 L-650467 2820 L-649867 2820 L-649538 2820 L-649325 2819 L-648783 2819 L-647545 2818 L-646366 2817 L-643502 2816 L-642980 2815 L-638124 2814 L-635187 2814 L-635144 2814 L-634836 2814 L-634584 2813 L-631989 2813 L-627733 2813 L-627716 2813 L-626479 2813 L-624601 2813 L-622648 2813 L-621700 2813 L-621429 2812 L-621119 2812 L-621021 2812 L-620191 2812 L-618160 2812 L-617869 2811 L-615723 2810 L-615568 2810 L-611911 2809 L-611660 2809 L-611562 2809 L-611045 2809 L-608893 2810 L-607965 2811 L-606439 2811 L-605199 2811 L-603653 2811 L-600691 2811 L-599569 2811 L-599260 2811 L-598048 2810 L-595042 2812 L-595022 2812 L-594675 2812 L-594462 2811 L-594335 2810 L-594094 2809 L-594056 2809 L-594036 2809 L-594017 2808 L-593958 2808 L-593899 2808 L-593881 2808 L-593438 2807 L-592199 2807 L-590653 2807 L-587266 2807 L-581539 2806 L-581338 2806 L-579702 2806 L-577980 2806 L-576548 2806 L-576315 2806 L-575600 2806 L-569468 2805 L-569100 2805 L-568946 2805 L-568367 2805 L-568075 2804 L-567108 2804 L-566798 2804 L-566199 2804 L-564593 2804 L-563858 2804 L-563548 2804 L-562780 2804 L-560743 2803 L-560318 2803 L-559506 2803 L-552077 2803 L-551554 2802 L-551380 2802 L-550645 2802 L-549078 2802 L-548672 2801 L-546447 2801 L-545499 2801 L-545074 2801 L-544744 2801 L-543700 2801 L-541592 2801 L-541340 2800 L-540721 2800 L-539908 2800 L-537800 2800 L-537752 2799 L-535824 2799 L-535498 2799 L-535363 2798 L-534860 2798 L-533447 2798 L-532944 2798 L-532422 2797 L-528863 2797 L-528128 2796 L-525703 2796 L-524413 2796 L-524006 2796 L-520854 2796 L-520699 2796 L-520679 2796 L-520312 2796 L-519054 2796 L-518339 2796 L-517449 2796 L-517042 2796 L-516113 2796 L-515005 2796 L-514702 2796 L-508453 2797 L-507505 2797 L-505879 2797 L-505377 2797 L-501702 2798 L-500869 2798 L-496916 2798 L-495504 2797 L-493015 2797 L-492339 2797 L-492300 2797 L-491429 2797 L-488218 2797 L-485355 2796 L-484387 2796 L-483265 2796 L-483246 2796 L-481621 2795 L-481157 2795 L-481065 2795 L-474696 2795 L-473748 2795 L-471291 2795 L-470418 2794 L-469182 2794 L-467181 2794 L-466783 2794 L-465347 2793 L-463321 2793 L-463108 2793 L-461928 2793 L-460419 2793 L-460399 2793 L-458387 2792 L-457517 2792 L-456646 2792 L-456062 2792 L-455524 2792 L-454867 2791 L-453628 2791 L-453068 2791 L-451887 2791 L-450649 2791 L-450611 2790 L-450224 2790 L-449682 2790 L-448908 2790 L-447786 2790 L-445697 2789 L-445364 2789 L-445078 2789 L-444149 2789 L-443666 2789 L-442931 2788 L-439299 2788 L-438172 2788 L-438017 2788 L-436991 2788 L-433276 2788 L-432059 2787 L-430241 2787 L-427455 2787 L-426893 2787 L-423005 2787 L-420529 2786 L-419194 2786 L-418691 2786 L-418207 2786 L-415518 2786 L-411747 2786 L-409289 2786 L-408110 2786 L-407470 2786 L-405111 2786 L-405033 2786 L-403986 2786 L-403892 2785 L-403389 2785 L-402944 2785 L-402886 2785 L-402673 2785 L-399713 2785 L-397005 2785 L-396851 2785 L-393330 2785 L-392807 2784 L-391840 2784 L-391491 2784 L-390447 2784 L-389518 2783 L-389093 2783 L-387584 2783 L-386617 2783 L-386598 2783 L-384702 2773 L-384586 2763 L-384538 2753 L-384514 2743 L-381509 2742 L-379479 2742 L-377718 2742 L-377351 2742 L-376905 2742 L-376538 2741 L-376124 2741 L-374139 2741 L-373926 2741 L-373771 2741 L-372166 2741 L-371044 2741 L-370096 2741 L-368839 2740 L-367194 2740 L-366014 2740 L-359425 2740 L-359378 2740 L-358973 2739 L-357927 2739 L-357792 2739 L-356110 2739 L-356090 2739 L-354753 2739 L-353517 2738 L-353362 2738 L-352988 2738 L-352782 2738 L-352473 2738 L-351699 2737 L-349377 2737 L-348720 2737 L-346592 2737 L-344869 2737 L-344676 2737 L-342123 2736 L-341846 2736 L-341658 2736 L-340826 2736 L-340053 2736 L-339355 2736 L-334355 2736 L-333979 2735 L-329726 2735 L-329239 2749 L-329219 2749 L-329140 2749 L-329065 2748 L-329045 2734 L-328232 2734 L-327479 2734 L-326260 2734 L-324828 2734 L-324731 2734 L-324557 2734 L-324203 2733 L-322893 2733 L-321036 2733 L-319334 2733 L-318831 2733 L-318566 2733 L-318172 2733 L-318038 2732 L-317128 2732 L-316752 2732 L-315824 2732 L-315484 2732 L-315445 2732 L-315407 2732 L-313492 2732 L-313318 2732 L-311789 2732 L-311461 2732 L-311345 2731 L-310938 2731 L-310590 2731 L-308946 2731 L-308395 2731 L-308152 2730 L-307611 2730 L-306779 2730 L-306238 2730 L-304703 2730 L-304611 2730 L-304574 2729 L-304438 2729 L-304051 2729 L-303026 2729 L-301149 2729 L-301053 2729 L-300453 2733 L-300086 2738 L-299601 2743 L-299563 2747 L-298789 2747 L-298732 2747 L-298557 2747 L-298364 2747 L-296758 2747 L-296738 2746 L-296583 2747 L-296468 2747 L-295288 2747 L-295133 2747 L-294467 2747 L-292018 2759 L-289504 2770 L-286834 2781 L-279134 2792 L-273467 2792 L-271252 2792 L-271229 2792 L-270255 2795 L-270235 2795 L-269371 2795 L-266631 2794 L-260833 2792 L-260679 2791 L-257893 2791 L-244285 2791 L-243539 2791 L-239128 2790 L-222782 2790 L-222550 2790 L-222013 2790 L-213554 2790 L-204848 2790 L-204636 2789 L-202663 2789 L-199877 2789 L-195389 2789 L-195235 2789 L-195066 2789 L-194925 2789 L-194634 2789 L-194596 2789 L-194325 2789 L-194153 2789 L-193743 2788 L-192623 2788 L-191442 2788 L-190166 2788 L-187302 2788 L-184381 2788 L-182389 2788 L-180842 2787 L-177804 2787 L-168479 2787 L-167955 2787 L-162232 2787 L-160725 2787 L-159910 2787 L-158226 2786 L-157505 2786 L-157337 2786 L-156292 2786 L-154224 2786 L-152862 2786 L-148419 2786 L-148322 2786 L-148283 2785 L-148264 2785 L-147432 2785 L-147354 2785 L-144782 2785 L-141532 2785 L-141377 2784 L-140429 2784 L-138688 2784 L-137973 2785 L-134432 2786 L-127855 2786 L-126437 2787 L-126417 2787 L-125466 2787 L-121992 2787 L-121238 2787 L-120677 2787 L-119895 2786 L-112391 2786 L-110792 2786 L-109218 2786 L-106033 2786 L-101700 2786 L-93130 2786 L-84384 2786 L-81310 2786 L-78044 2785 L-77497 2785 L-70360 2785 L-64692 2785 L-50628 2785 L-44617 2785 L-39910 2785 L-35907 2785 L-30800 2785 L-21086 2784 L-5515 2784 L-2432 2784 L-2130 2722 L-2110 2647 L-2092 2561 L-2072 2465 L-2052 2421 L-2033 2384 L-2014 2350 L-1987 2316 L-1966 2284 L-1938 2250 L-1903 2212 L-1889 2179 L-1876 2152 L-1858 2129 L-1839 2112 L-1819 2095 L-1801 2077 L-1781 2060 L-1761 2042 L-1740 2024 L-1723 2006 L-1705 1989 L-1684 1972 L-1664 1955 L-1646 1937 L-1627 1918 L-1607 1899 L-1587 1880 L-1569 1862 L-1550 1844 L-1529 1828 L-1504 1811 L-1489 1795 L-1472 1779 L-1453 1764 L-1433 1748 L-1414 1731 L-1395 1714 L-1375 1698 L-1355 1682 L-1337 1667 L-1318 1653 L-1297 1640 L-1277 1628 L-1260 1617 L-1241 1606 L-1221 1596 L-1202 1586 L-1182 1576 L-1163 1568 L-1143 1560 L-1124 1553 L-1104 1546 L-1086 1538 L-1058 1529 L-1037 1520 L-1010 1509 L-976 1497 L-961 1488 L-948 1479 L-930 1471 L-911 1465 L-891 1458 L-872 1450 L-853 1442 L-833 1434 L-812 1426 L-795 1419 L-776 1412 L-756 1404 L-736 1396 L-718 1386 L-699 1376 L-679 1365 L-659 1355 L-640 1344 L-622 1333 L-600 1320 L-576 1307 L-561 1294 L-544 1281 L-524 1269 L-505 1256 L-485 1243 L-467 1230 L-447 1217 L-426 1204 L-408 1191 L-389 1179 L-369 1168 L-349 1156 L-331 1145 L-312 1135 L-292 1125 L-273 1116 L-253 1107 L-235 1097 L-215 1089 L-195 1079 L-176 1070 L-157 1061 L-128 1052 L-109 1044 L-81 1035 L-44 1025 L-29 1015 L-16 1006 L0 998 L17 991 L37 986 L55 980 L74 975 L95 970 L115 965 L132 959 L151 953 L172 947 L191 940 L210 933 L229 926 L249 918 L268 910 L287 902 L306 894 L327 886 L351 878 L366 870 L383 862 L403 854 L422 846 L442 837 L461 829 L481 820 L501 812 L519 803 L538 796 L558 788 L579 781 L597 775 L616 768 L636 761 L654 754 L674 747 L693 741 L713 734 L732 728 L752 722 L770 715 L799 709 L819 702 L847 695 L883 685 L897 675 L910 667 L928 659 L946 654 L966 649 L984 642 L1004 636 L1023 629 L1045 621 L1063 613 L1080 605 L1101 596 L1121 586 L1139 577 L1158 566 L1178 556 L1198 546 L1216 537 L1235 529 L1256 524 L1281 518 L1296 514 L1313 509 L1332 504 L1352 498 L1371 493 L1390 487 L1410 482 L1431 478 L1448 474 L1467 470 L1487 464 L1508 457 L1525 450 L1544 445 L1564 441 L1583 438 L1603 435 L1622 432 L1641 428 L1661 424 L1680 421 L1699 417 L1727 414 L1747 410 L1775 407 L1810 402 L1824 398 L1837 395 L1856 392 L1874 389 L1894 387 L1913 384 L1932 381 L1952 379 L1973 376 L1990 374 L2009 371 L2029 368 L2049 364 L2067 361 L2086 358 L2106 356 L2126 353 L2144 351 L2163 348 L2185 345 L2209 343 L2224 341 L2241 338 L2261 336 L2280 333 L2299 331 L2318 328 L2338 324 L2359 322 L2377 319 L2395 317 L2416 314 L2436 312 L2454 309 L2473 307 L2493 304 L2512 302 L2531 300 L2550 298 L2570 297 L2589 295 L2609 293 L2627 296 L2656 299 L2676 302 L2704 304 L2741 302 L2756 300 L2769 298 L2787 296 L2803 295 L2823 294 L2841 292 L2861 290 L2881 289 L2902 288 L2919 286 L2937 285 L2958 283 L2978 282 L2996 280 L3015 278 L3035 277 L3055 275 L3073 274 L3092 272 L3113 271 L3138 270 L3152 268 L3170 267 L3189 265 L3209 263 L3228 262 L3247 260 L3267 258 L3288 256 L3305 254 L3324 252 L3345 249 L3365 248 L3382 246 L3401 244 L3421 242 L3440 240 L3460 238 L3479 236 L3499 234 L3518 232 L3537 231 L3556 229 L3584 227 L3604 225 L3632 224 L3667 221 L3681 219 L3694 218 L3713 216 L3731 214 L3751 213 L3770 211 L3789 210 L3809 208 L3830 206 L3847 205 L3866 203 L3886 201 L3906 199 L3924 197 L3943 194 L3963 191 L3983 189 L4002 186 L4020 184 L4042 182 L4067 179 L4081 177 L4098 174 L4118 172 L4137 170 L4156 167 L4175 165 L4195 163 L4216 160 L4234 158 L4253 156 L4273 154 L4294 152 L4311 150 L4330 148 L4350 147 L4369 146 L4388 144 L4407 143 L4427 141 L4447 140 L4466 139 L4485 138 L4512 137 L4533 135 L4561 134 L4596 131 L4610 129 L4623 127 L4642 124 L4660 123 L4680 121 L4698 120 L4718 118 L4738 117 L4759 115 L4776 114 L4794 112 L4815 110 L4835 108 L4853 106 L4872 104 L4892 102 L4912 100 L4930 98 L4949 97 L4970 96 L4995 94 L5010 93 L5027 91 L5046 89 L5066 87 L5085 85 L5104 83 L5124 81 L5145 78 L5162 75 L5181 73 L5202 71 L5222 69 L5240 68 L5259 67 L5279 66 L5297 65 L5317 63 L5336 62 L5356 61 L5375 59 L5395 59 L5413 57 L5441 56 L5462 55 L5489 54 L5523 53 L5538 52 L5551 51 L5569 50 L5588 49 L5608 48 L5627 47 L5646 46 L5666 45 L5687 44 L5704 44 L5723 43 L5743 41 L5763 40 L5781 39 L5800 38 L5820 38 L5840 37 L5859 36 L5878 36 L5899 35 L5923 34 L5938 33 L5955 32 L5975 31 L5994 30 L6013 29 L6032 28 L6052 27 L6073 26 L6091 24 L6110 22 L6130 20 L6151 18 L6168 17 L6187 16 L6207 14 L6226 13 L6246 12 L6264 10 L6284 9 L6303 8 L6323 7 L6342 7 L6370 6 L6418 5 L6455 4 L6470 3 L6482 2 L6500 1" />
</svg>
