<svg xmlns="http://www.w3.org/2000/svg" version="1.1" viewBox="0 0 6500 1000">
	<path fill="none" stroke="gold" stroke-width="125" stroke-linecap="round" stroke-linejoin="round" d="M0 1016  L-717230 1016 L-714626 1016 L-712958 1016 L-694628 1016 L-694458 1016 L-687300 1016 L-687267 1016 L-673836 1016 L-670914 1016 L-657573 1016 L-653404 1015 L-652244 1015 L-651625 1015 L-649613 1015 L-645842 1015 L-645241 1015 L-644913 1014 L-644700 1014 L-644158 1014 L-642920 1014 L-641741 1013 L-638877 1013 L-638354 1012 L-633499 1012 L-630562 1012 L-630519 1012 L-630210 1012 L-629959 1012 L-627364 1012 L-623108 1012 L-623090 1012 L-621853 1012 L-619976 1012 L-618022 1012 L-617074 1011 L-616804 1011 L-616494 1011 L-616396 1011 L-615565 1011 L-613535 1011 L-613244 1011 L-611098 1011 L-610942 1010 L-607286 1010 L-607035 1010 L-606936 1010 L-606419 1010 L-604268 1010 L-603339 1011 L-601813 1011 L-600574 1011 L-599027 1011 L-596065 1011 L-594944 1011 L-594634 1011 L-593423 1011 L-590416 1011 L-590397 1011 L-590049 1011 L-589836 1011 L-589710 1010 L-589469 1010 L-589431 1010 L-589411 1010 L-589392 1010 L-589333 1010 L-589274 1010 L-589256 1009 L-588813 1009 L-587574 1009 L-586028 1009 L-582640 1009 L-576914 1009 L-576712 1009 L-575077 1009 L-573355 1009 L-571923 1009 L-571690 1009 L-570975 1009 L-564843 1008 L-564475 1008 L-564321 1008 L-563742 1008 L-563450 1008 L-562482 1008 L-562173 1008 L-561574 1008 L-559967 1008 L-559232 1008 L-558922 1008 L-558154 1008 L-556118 1008 L-555693 1008 L-554880 1007 L-547452 1007 L-546929 1007 L-546755 1007 L-546020 1007 L-544452 1007 L-544047 1007 L-541822 1007 L-540874 1007 L-540449 1007 L-540118 1007 L-539075 1007 L-536967 1006 L-536714 1006 L-536096 1006 L-535283 1006 L-533175 1006 L-533126 1006 L-531198 1006 L-530872 1006 L-530737 1006 L-530234 1006 L-528822 1005 L-528319 1005 L-527797 1005 L-524237 1005 L-523502 1005 L-521077 1005 L-519788 1004 L-519381 1004 L-516228 1004 L-516074 1004 L-516053 1004 L-515687 1004 L-514429 1004 L-513714 1005 L-512824 1005 L-512417 1005 L-511488 1005 L-510380 1004 L-510076 1005 L-503827 1005 L-502880 1005 L-501254 1005 L-500752 1005 L-497076 1005 L-496244 1005 L-492291 1005 L-490879 1005 L-488390 1005 L-487713 1005 L-487675 1005 L-486804 1005 L-483593 1005 L-480730 1005 L-479762 1005 L-478640 1005 L-478621 1004 L-476996 1004 L-476532 1004 L-476440 1004 L-470071 1004 L-469122 1004 L-466665 1004 L-465793 1004 L-464557 1004 L-462556 1004 L-462158 1004 L-460722 1003 L-458696 1003 L-458482 1003 L-457302 1003 L-455794 1003 L-455774 1003 L-453761 1003 L-452892 1003 L-452021 1003 L-451436 1003 L-450899 1003 L-450241 1003 L-449003 1002 L-448443 1002 L-447262 1002 L-446024 1002 L-445985 1002 L-445598 1002 L-445057 1002 L-444283 1002 L-443161 1002 L-441072 1002 L-440738 1002 L-440453 1002 L-439524 1002 L-439041 1001 L-438305 1001 L-434674 1001 L-433547 1001 L-433392 1001 L-432366 1001 L-428651 1001 L-427434 1001 L-425615 1001 L-422830 1001 L-422268 1001 L-418380 1001 L-415904 1001 L-414569 1001 L-414065 1001 L-413582 1000 L-410893 1000 L-407121 1000 L-404664 1000 L-403484 1000 L-402845 1000 L-400485 1000 L-400408 1000 L-399361 1000 L-399267 1000 L-398764 1000 L-398319 1000 L-398261 1000 L-398047 1000 L-395088 1000 L-392380 1000 L-392225 1000 L-388705 1000 L-388182 1000 L-387214 1000 L-386865 999 L-385822 999 L-384893 999 L-384467 999 L-382958 999 L-381991 999 L-381972 999 L-380076 995 L-379961 991 L-379913 986 L-379888 982 L-376884 982 L-374853 982 L-373093 982 L-372725 982 L-372280 982 L-371913 982 L-371499 982 L-369514 982 L-369301 982 L-369146 982 L-367541 982 L-366419 981 L-365471 981 L-364213 981 L-362569 981 L-361389 981 L-354800 981 L-354753 981 L-354347 981 L-353302 981 L-353167 981 L-351484 981 L-351464 981 L-350128 981 L-348891 981 L-348737 980 L-348363 980 L-348157 980 L-347847 980 L-347074 980 L-344752 980 L-344094 980 L-341967 980 L-340244 980 L-340051 980 L-337497 980 L-337221 980 L-337033 979 L-336200 979 L-335428 979 L-334730 979 L-329729 979 L-329353 979 L-325100 979 L-324613 985 L-324594 985 L-324515 985 L-324440 985 L-324420 979 L-323607 979 L-322853 979 L-321634 979 L-320202 979 L-320106 979 L-319932 979 L-319577 978 L-318268 978 L-316411 978 L-314708 978 L-314206 978 L-313940 978 L-313547 978 L-313413 978 L-312503 978 L-312127 978 L-311198 978 L-310859 978 L-310820 978 L-310782 978 L-308866 978 L-308693 978 L-307164 978 L-306836 978 L-306720 978 L-306312 977 L-305964 977 L-304321 977 L-303770 977 L-303527 977 L-302985 977 L-302154 977 L-301612 977 L-300078 977 L-299985 977 L-299949 977 L-299813 977 L-299425 977 L-298401 977 L-296524 977 L-296428 976 L-295828 978 L-295460 980 L-294976 982 L-294938 984 L-294164 984 L-294106 984 L-293932 984 L-293738 984 L-292133 984 L-292113 984 L-291958 984 L-291843 984 L-290663 984 L-290508 984 L-289841 984 L-287393 989 L-284878 994 L-282208 998 L-274509 1003 L-268841 1003 L-266627 1003 L-266604 1003 L-265630 1004 L-265610 1004 L-264746 1004 L-262006 1004 L-256207 1003 L-256054 1003 L-253268 1003 L-239660 1002 L-238914 1002 L-234503 1002 L-218157 1002 L-217925 1002 L-217388 1002 L-208928 1002 L-200223 1002 L-200010 1002 L-198038 1002 L-195252 1002 L-190764 1002 L-190609 1002 L-190440 1002 L-190300 1002 L-190009 1002 L-189970 1002 L-189700 1001 L-189528 1001 L-189118 1001 L-187997 1001 L-186817 1001 L-185540 1001 L-182676 1001 L-179756 1001 L-177764 1001 L-176216 1001 L-173178 1001 L-163854 1001 L-163330 1001 L-157606 1001 L-156099 1001 L-155285 1001 L-153601 1001 L-152880 1001 L-152711 1000 L-151666 1000 L-149599 1000 L-148237 1000 L-143794 1000 L-143697 1000 L-143658 1000 L-143639 1000 L-142806 1000 L-142729 1000 L-140156 1000 L-136907 1000 L-136752 1000 L-135804 1000 L-134063 1000 L-133347 1000 L-129807 1000 L-123229 1001 L-121812 1001 L-121791 1001 L-120841 1001 L-117366 1001 L-116613 1001 L-116051 1001 L-115269 1001 L-107765 1001 L-106167 1000 L-104593 1000 L-101408 1000 L-97074 1000 L-88505 1000 L-79758 1000 L-76685 1000 L-73419 1000 L-72872 1000 L-65735 1000 L-60067 1000 L-46003 1000 L-39991 1000 L-35285 1000 L-31282 1000 L-26174 1000 L-16460 1000 L-890 1000 L2192 999 L2494 974 L2514 942 L2533 906 L2552 866 L2572 848 L2591 833 L2610 818 L2638 804 L2658 791 L2686 776 L2722 761 L2735 747 L2748 736 L2767 726 L2785 719 L2805 712 L2823 705 L2843 697 L2863 690 L2884 682 L2901 675 L2919 668 L2940 661 L2960 654 L2978 646 L2997 638 L3017 630 L3037 622 L3055 615 L3074 607 L3096 600 L3120 593 L3135 587 L3152 580 L3172 574 L3191 567 L3210 560 L3229 553 L3249 546 L3270 540 L3288 533 L3306 528 L3327 522 L3348 517 L3365 512 L3384 508 L3404 504 L3423 499 L3442 495 L3461 492 L3481 489 L3501 486 L3520 483 L3538 480 L3566 476 L3587 472 L3615 467 L3649 462 L3663 458 L3676 455 L3695 452 L3714 449 L3734 446 L3752 443 L3771 439 L3791 436 L3812 433 L3829 430 L3848 427 L3868 424 L3888 420 L3907 416 L3925 412 L3945 407 L3965 403 L3984 398 L4003 394 L4024 389 L4048 383 L4063 377 L4080 372 L4100 367 L4119 362 L4139 356 L4158 351 L4178 345 L4198 340 L4216 335 L4235 330 L4255 325 L4276 320 L4293 315 L4312 311 L4332 307 L4351 303 L4371 299 L4390 296 L4410 292 L4429 288 L4448 284 L4467 281 L4496 277 L4516 273 L4543 270 L4581 265 L4596 261 L4608 257 L4625 254 L4642 251 L4662 249 L4681 247 L4700 245 L4720 242 L4741 240 L4758 238 L4777 235 L4797 233 L4817 230 L4835 227 L4854 224 L4874 221 L4894 217 L4913 214 L4931 211 L4952 207 L4977 204 L4991 201 L5009 197 L5029 194 L5048 191 L5067 187 L5086 183 L5106 180 L5126 176 L5145 173 L5164 170 L5184 167 L5204 164 L5222 161 L5241 158 L5261 155 L5280 152 L5299 149 L5318 147 L5338 144 L5357 141 L5377 139 L5396 136 L5424 133 L5444 131 L5472 128 L5508 123 L5522 119 L5535 116 L5553 112 L5571 110 L5591 108 L5609 106 L5629 103 L5649 100 L5670 97 L5688 93 L5705 90 L5726 86 L5746 82 L5764 78 L5783 74 L5803 69 L5823 65 L5841 62 L5860 58 L5881 56 L5906 54 L5921 52 L5938 50 L5957 48 L5977 45 L5996 43 L6015 41 L6035 39 L6056 37 L6073 36 L6092 34 L6113 31 L6134 28 L6150 25 L6170 23 L6190 22 L6208 20 L6228 19 L6247 18 L6267 16 L6286 15 L6306 13 L6324 12 L6352 10 L6373 9 L6400 7 L6435 5 L6449 4 L6462 2 L6481 1 L6500 0" />
</svg>
