<svg xmlns="http://www.w3.org/2000/svg" version="1.1" viewBox="0 0 6500 1000">
	<path fill="none" stroke="gold" stroke-width="125" stroke-linecap="round" stroke-linejoin="round" d="M0 1015  L-719262 1015 L-716658 1015 L-714990 1015 L-696660 1015 L-696490 1015 L-689332 1015 L-689299 1015 L-675868 1015 L-672946 1015 L-659605 1015 L-655436 1014 L-654276 1014 L-653657 1014 L-651645 1014 L-647874 1014 L-647274 1013 L-646945 1013 L-646732 1013 L-646190 1013 L-644952 1013 L-643773 1012 L-640909 1012 L-640387 1011 L-635531 1011 L-632594 1011 L-632551 1011 L-632242 1011 L-631991 1011 L-629396 1011 L-625140 1011 L-625122 1011 L-623885 1011 L-622008 1011 L-620055 1011 L-619107 1011 L-618836 1010 L-618526 1010 L-618428 1010 L-617597 1010 L-615567 1010 L-615276 1010 L-613130 1010 L-612974 1009 L-609318 1009 L-609067 1009 L-608968 1009 L-608451 1009 L-606300 1010 L-605371 1010 L-603845 1010 L-602606 1010 L-601059 1010 L-598097 1010 L-596976 1010 L-596666 1010 L-595455 1010 L-592449 1010 L-592429 1010 L-592082 1010 L-591868 1010 L-591742 1009 L-591501 1009 L-591463 1009 L-591443 1009 L-591424 1009 L-591365 1009 L-591306 1009 L-591288 1009 L-590845 1009 L-589606 1008 L-588060 1008 L-584672 1008 L-578946 1008 L-578744 1008 L-577109 1008 L-575387 1008 L-573955 1008 L-573722 1008 L-573007 1008 L-566875 1008 L-566507 1008 L-566353 1008 L-565774 1008 L-565482 1007 L-564514 1007 L-564205 1007 L-563606 1007 L-561999 1007 L-561264 1007 L-560955 1007 L-560186 1007 L-558150 1007 L-557725 1007 L-556912 1007 L-549484 1007 L-548961 1007 L-548787 1007 L-548052 1006 L-546484 1006 L-546079 1006 L-543854 1006 L-542906 1006 L-542481 1006 L-542151 1006 L-541107 1006 L-538999 1006 L-538746 1006 L-538128 1006 L-537315 1006 L-535207 1006 L-535159 1005 L-533230 1005 L-532905 1005 L-532770 1005 L-532266 1005 L-530854 1005 L-530351 1005 L-529829 1005 L-526269 1004 L-525534 1004 L-523109 1004 L-521820 1004 L-521413 1004 L-518261 1004 L-518106 1004 L-518085 1004 L-517719 1004 L-516461 1004 L-515746 1004 L-514856 1004 L-514449 1004 L-513520 1004 L-512412 1004 L-512108 1004 L-505860 1004 L-504912 1005 L-503286 1005 L-502784 1005 L-499109 1005 L-498276 1005 L-494323 1005 L-492911 1005 L-490422 1005 L-489745 1004 L-489707 1004 L-488836 1004 L-485625 1004 L-482762 1004 L-481794 1004 L-480672 1004 L-480653 1004 L-479028 1004 L-478564 1004 L-478472 1004 L-472103 1004 L-471154 1004 L-468697 1004 L-467825 1003 L-466589 1003 L-464588 1003 L-464190 1003 L-462754 1003 L-460728 1003 L-460514 1003 L-459334 1003 L-457826 1003 L-457806 1003 L-455793 1003 L-454924 1003 L-454053 1003 L-453468 1003 L-452931 1002 L-452273 1002 L-451035 1002 L-450475 1002 L-449294 1002 L-448056 1002 L-448017 1002 L-447631 1002 L-447089 1002 L-446315 1002 L-445193 1002 L-443104 1002 L-442770 1002 L-442485 1001 L-441556 1001 L-441073 1001 L-440337 1001 L-436706 1001 L-435579 1001 L-435424 1001 L-434398 1001 L-430683 1001 L-429466 1001 L-427647 1001 L-424862 1001 L-424300 1001 L-420412 1001 L-417936 1000 L-416601 1000 L-416097 1000 L-415614 1000 L-412925 1000 L-409153 1000 L-406696 1000 L-405516 1000 L-404877 1000 L-402518 1000 L-402440 1000 L-401393 1000 L-401299 1000 L-400796 1000 L-400351 1000 L-400293 1000 L-400079 1000 L-397120 1000 L-394412 1000 L-394257 1000 L-390737 1000 L-390214 1000 L-389246 1000 L-388897 999 L-387854 999 L-386925 999 L-386499 999 L-384990 999 L-384023 999 L-384005 999 L-382109 995 L-381993 991 L-381945 987 L-381920 983 L-378916 983 L-376885 983 L-375125 983 L-374757 983 L-374312 983 L-373945 983 L-373531 983 L-371546 983 L-371333 983 L-371178 983 L-369573 983 L-368451 983 L-367503 983 L-366245 983 L-364601 983 L-363421 982 L-356832 982 L-356785 982 L-356379 982 L-355334 982 L-355199 982 L-353516 982 L-353496 982 L-352160 982 L-350923 982 L-350769 982 L-350395 982 L-350189 982 L-349880 982 L-349106 982 L-346784 981 L-346126 981 L-343999 981 L-342276 981 L-342083 981 L-339529 981 L-339253 981 L-339065 981 L-338232 981 L-337460 981 L-336762 981 L-331761 981 L-331385 981 L-327132 981 L-326645 986 L-326626 986 L-326547 986 L-326472 986 L-326452 980 L-325639 980 L-324886 980 L-323666 980 L-322234 980 L-322138 980 L-321964 980 L-321609 980 L-320300 980 L-318443 980 L-316740 980 L-316238 980 L-315972 980 L-315579 980 L-315445 980 L-314535 980 L-314159 979 L-313230 979 L-312891 979 L-312852 979 L-312814 979 L-310898 979 L-310725 979 L-309196 979 L-308868 979 L-308752 979 L-308345 979 L-307996 979 L-306353 979 L-305802 979 L-305559 979 L-305017 979 L-304186 979 L-303644 979 L-302110 979 L-302018 978 L-301981 978 L-301845 978 L-301457 978 L-300433 978 L-298556 978 L-298460 978 L-297860 980 L-297493 982 L-297008 983 L-296970 985 L-296196 985 L-296139 985 L-295964 985 L-295771 985 L-294165 985 L-294145 985 L-293990 985 L-293875 985 L-292695 985 L-292540 985 L-291873 985 L-289425 990 L-286910 994 L-284240 998 L-276541 1003 L-270874 1003 L-268659 1003 L-268636 1003 L-267662 1004 L-267642 1004 L-266778 1004 L-264038 1004 L-258239 1002 L-258086 1002 L-255300 1002 L-241692 1002 L-240946 1002 L-236535 1002 L-220189 1002 L-219957 1002 L-219420 1002 L-210960 1002 L-202255 1002 L-202042 1002 L-200070 1002 L-197284 1002 L-192796 1002 L-192641 1002 L-192472 1002 L-192332 1002 L-192041 1001 L-192003 1001 L-191732 1001 L-191560 1001 L-191150 1001 L-190029 1001 L-188849 1001 L-187572 1001 L-184708 1001 L-181788 1001 L-179796 1001 L-178248 1001 L-175211 1001 L-165886 1001 L-165362 1001 L-159638 1001 L-158131 1001 L-157317 1001 L-155633 1000 L-154912 1000 L-154744 1000 L-153698 1000 L-151631 1000 L-150269 1000 L-145826 1000 L-145729 1000 L-145690 1000 L-145671 1000 L-144839 1000 L-144761 1000 L-142188 1000 L-138939 1000 L-138784 1000 L-137836 1000 L-136095 1000 L-135379 1000 L-131839 1000 L-125261 1000 L-123844 1001 L-123823 1001 L-122873 1001 L-119398 1001 L-118645 1001 L-118083 1001 L-117301 1000 L-109797 1000 L-108199 1000 L-106625 1000 L-103440 1000 L-99107 1000 L-90537 1000 L-81791 1000 L-78717 1000 L-75451 1000 L-74904 1000 L-67767 1000 L-62099 1000 L-48035 1000 L-42023 1000 L-37317 1000 L-33314 1000 L-28206 1000 L-18492 1000 L-2922 1000 L160 999 L462 976 L482 946 L501 913 L520 876 L540 859 L559 845 L578 832 L605 819 L626 806 L654 793 L690 778 L703 766 L716 755 L735 746 L753 740 L773 733 L791 726 L811 720 L831 713 L852 706 L869 699 L887 692 L908 686 L928 679 L946 672 L965 665 L985 657 L1005 650 L1023 643 L1042 636 L1063 630 L1088 623 L1103 617 L1120 611 L1140 605 L1159 599 L1178 592 L1197 586 L1217 580 L1238 574 L1256 568 L1274 562 L1295 557 L1316 552 L1333 548 L1352 544 L1372 540 L1391 536 L1410 533 L1429 529 L1449 526 L1469 524 L1488 521 L1506 518 L1534 514 L1555 511 L1583 507 L1617 502 L1631 498 L1644 495 L1663 492 L1682 489 L1701 487 L1720 484 L1739 480 L1759 477 L1780 475 L1797 472 L1816 469 L1836 466 L1856 463 L1875 459 L1893 455 L1913 451 L1933 447 L1952 443 L1971 438 L1992 434 L2016 428 L2031 423 L2048 418 L2068 414 L2087 409 L2107 404 L2125 399 L2146 393 L2166 388 L2184 384 L2203 379 L2223 374 L2244 370 L2261 366 L2280 362 L2300 358 L2319 355 L2339 351 L2358 347 L2377 344 L2397 340 L2416 337 L2435 333 L2464 330 L2484 327 L2511 323 L2549 319 L2564 316 L2576 312 L2593 309 L2610 306 L2630 304 L2649 302 L2668 300 L2688 298 L2708 296 L2726 294 L2744 292 L2765 289 L2785 287 L2803 284 L2822 281 L2842 278 L2862 275 L2881 272 L2899 269 L2920 266 L2945 262 L2959 259 L2977 256 L2997 253 L3016 250 L3035 247 L3054 243 L3074 240 L3094 237 L3113 234 L3131 231 L3152 228 L3172 225 L3190 223 L3209 220 L3229 217 L3247 215 L3267 212 L3286 209 L3306 207 L3325 205 L3345 202 L3364 200 L3392 197 L3412 195 L3440 192 L3476 188 L3490 184 L3503 181 L3521 178 L3539 176 L3559 174 L3577 171 L3597 169 L3617 166 L3638 163 L3656 160 L3673 157 L3694 153 L3714 150 L3732 146 L3751 142 L3771 138 L3791 134 L3809 131 L3828 128 L3849 125 L3874 123 L3889 122 L3906 120 L3925 118 L3945 116 L3964 114 L3983 111 L4003 110 L4024 108 L4041 106 L4060 105 L4081 102 L4102 100 L4118 97 L4137 95 L4158 94 L4176 92 L4196 91 L4215 90 L4235 89 L4254 87 L4273 86 L4292 84 L4320 83 L4341 82 L4368 80 L4403 78 L4417 77 L4430 76 L4449 75 L4467 74 L4487 73 L4506 71 L4525 70 L4545 69 L4566 68 L4583 67 L4602 66 L4622 65 L4642 64 L4660 63 L4679 62 L4699 61 L4719 60 L4738 59 L4757 58 L4778 57 L4803 56 L4817 55 L4834 54 L4854 53 L4873 52 L4893 51 L4912 50 L4931 48 L4952 47 L4970 46 L4989 45 L5009 44 L5030 44 L5047 43 L5066 42 L5086 41 L5105 40 L5125 39 L5143 38 L5163 38 L5183 37 L5202 36 L5221 38 L5250 39 L5269 40 L5297 41 L5335 40 L5350 39 L5362 38 L5380 38 L5396 37 L5416 37 L5434 36 L5454 35 L5474 35 L5495 34 L5512 34 L5530 33 L5551 33 L5571 32 L5589 31 L5608 31 L5628 30 L5648 29 L5666 29 L5685 28 L5706 28 L5731 27 L5746 27 L5763 26 L5782 25 L5802 25 L5821 24 L5840 24 L5860 23 L5881 22 L5898 21 L5917 20 L5938 19 L5958 19 L5976 18 L5995 17 L6015 17 L6033 16 L6053 15 L6072 14 L6092 13 L6111 13 L6131 12 L6149 12 L6177 11 L6198 10 L6226 9 L6260 9 L6274 8 L6287 7 L6306 7 L6325 6 L6345 5 L6363 5 L6383 4 L6402 3 L6423 3 L6440 2 L6459 2 L6480 1 L6500 0" />
</svg>
