<svg xmlns="http://www.w3.org/2000/svg" version="1.1" viewBox="0 0 6500 1000">
	<path fill="none" stroke="gold" stroke-width="125" stroke-linecap="round" stroke-linejoin="round" d="M0 11586  L-445099 11586 L-442495 11537 L-440827 11488 L-422498 11390 L-422328 11291 L-415170 11193 L-415137 11193 L-401706 11144 L-398784 11193 L-385443 11046 L-381274 10850 L-380114 10605 L-379495 10359 L-377483 10212 L-373711 10114 L-373111 10016 L-372783 9918 L-372570 9819 L-372028 9721 L-370790 9329 L-369611 8936 L-366746 8544 L-366224 8151 L-361369 8053 L-358431 7955 L-358389 7857 L-358080 7759 L-357828 7660 L-355233 7562 L-350978 7562 L-350960 7562 L-349723 7562 L-347846 7562 L-345892 7464 L-344944 7366 L-344673 7268 L-344364 7219 L-344265 7170 L-343435 7170 L-341404 7219 L-341114 6777 L-338967 6581 L-338812 6287 L-335156 5992 L-334905 6139 L-334806 6090 L-334289 6237 L-332138 6483 L-331209 6728 L-329683 6973 L-328443 6973 L-326897 6924 L-323935 6826 L-322813 6728 L-322504 6630 L-321293 6581 L-318286 7121 L-318267 7072 L-317919 7023 L-317706 6973 L-317580 6287 L-317338 6188 L-317300 6090 L-317281 5992 L-317261 5894 L-317203 5796 L-317144 5698 L-317126 5600 L-316683 5501 L-315443 5403 L-313898 5305 L-310510 5207 L-304784 5158 L-304582 5109 L-302946 5060 L-301224 5011 L-299792 4962 L-299560 4913 L-298845 4864 L-292712 4815 L-292345 4716 L-292190 4618 L-291612 4520 L-291319 4422 L-290352 4324 L-290042 4226 L-289443 4128 L-287837 4128 L-287102 4128 L-286792 4177 L-286024 4177 L-283988 4078 L-283563 3980 L-282750 3931 L-275321 3833 L-274798 3735 L-274625 3637 L-273890 3539 L-272322 3441 L-271916 3392 L-269691 3293 L-268743 3244 L-268319 3195 L-267988 3195 L-266944 3146 L-264836 3048 L-264584 2950 L-263965 2852 L-263152 2803 L-261045 2705 L-260996 2606 L-259068 2508 L-258742 2410 L-258607 2312 L-258104 2263 L-256691 2165 L-256188 1969 L-255667 1821 L-252107 1625 L-251372 1429 L-248947 1429 L-247658 1331 L-247251 1282 L-244098 1282 L-243943 1282 L-243923 1331 L-243557 1331 L-242298 1380 L-241583 1429 L-240693 1429 L-240286 1429 L-239358 1429 L-238249 1380 L-237946 1576 L-231697 1674 L-230750 1772 L-229124 1870 L-228622 1920 L-224946 1969 L-224114 2018 L-220161 2067 L-218749 1920 L-216260 1821 L-215583 1723 L-215544 1674 L-214674 1674 L-211462 1625 L-208599 1576 L-207631 1527 L-206510 1429 L-206491 1331 L-204866 1233 L-204402 1085 L-204310 1036 L-197941 987 L-196992 938 L-194535 889 L-193663 791 L-192427 742 L-190425 693 L-190028 595 L-188591 497 L-186565 447 L-186352 349 L-185172 300 L-183664 251 L-183643 202 L-181631 153 L-180762 55 L-179891 6 L-179306 -91 L-178769 -189 L-178111 -288 L-176873 -386 L-176312 -435 L-175131 -484 L-173894 -533 L-173855 -582 L-173468 -631 L-172927 -729 L-172153 -778 L-171031 -827 L-168941 -925 L-168608 -1024 L-168322 -1122 L-167394 -1171 L-166910 -1269 L-166175 -1318 L-162544 -1367 L-161416 -1416 L-161261 -1465 L-160235 -1563 L-156521 -1612 L-155303 -1710 L-153485 -1809 L-150699 -1858 L-150138 -1956 L-146250 -1956 L-143773 -2005 L-142438 -2005 L-141935 -2054 L-141452 -2103 L-138763 -2103 L-134991 -2103 L-132534 -2103 L-131354 -2103 L-130715 -2152 L-128355 -2250 L-128278 -2299 L-127230 -2348 L-127137 -2447 L-126634 -2447 L-126188 -2447 L-126131 -2447 L-125917 -2447 L-122958 -2545 L-120250 -2594 L-120095 -2643 L-116574 -2692 L-116051 -2790 L-115084 -2888 L-114735 -2937 L-113691 -3035 L-112763 -3133 L-112337 -3183 L-110828 -3183 L-109861 -3232 L-109842 -3281 L-107946 -6863 L-107830 -10543 L-107782 -14174 L-107758 -17805 L-104754 -17854 L-102723 -17952 L-100962 -18001 L-100595 -18050 L-100150 -18148 L-99783 -18197 L-99369 -18295 L-97384 -18344 L-97171 -18344 L-97016 -18394 L-95410 -18394 L-94289 -18443 L-93340 -18492 L-92083 -18590 L-90438 -18639 L-89259 -18737 L-82669 -18786 L-82623 -18835 L-82217 -18884 L-81172 -18933 L-81037 -18982 L-79354 -19080 L-79334 -19130 L-77997 -19228 L-76761 -19277 L-76607 -19326 L-76233 -19424 L-76027 -19473 L-75717 -19522 L-74943 -19620 L-72622 -19669 L-71964 -19718 L-69836 -19767 L-68114 -19816 L-67920 -19915 L-65367 -19964 L-65091 -20062 L-64903 -20160 L-64070 -20209 L-63298 -20258 L-62600 -20307 L-57599 -20307 L-57223 -20405 L-52970 -20454 L-52483 -15597 L-52464 -15597 L-52385 -15646 L-52309 -15695 L-52290 -20700 L-51477 -20749 L-50723 -20847 L-49504 -20896 L-48072 -20896 L-47976 -20945 L-47801 -20945 L-47447 -21043 L-46138 -21092 L-44280 -21141 L-42578 -21239 L-42075 -21289 L-41810 -21338 L-41417 -21387 L-41283 -21436 L-40373 -21485 L-39996 -21534 L-39068 -21534 L-38729 -21583 L-38689 -21583 L-38652 -21632 L-36736 -21632 L-36562 -21681 L-35034 -21681 L-34705 -21730 L-34589 -21779 L-34182 -21877 L-33834 -21926 L-32190 -22025 L-31639 -22074 L-31396 -22123 L-30855 -22172 L-30024 -22270 L-29482 -22319 L-27947 -22417 L-27855 -22466 L-27818 -22515 L-27682 -22564 L-27295 -22613 L-26270 -22662 L-24394 -22711 L-24298 -22761 L-23697 -21190 L-23330 -19522 L-22846 -17805 L-22808 -16136 L-22034 -16038 L-21976 -16087 L-21802 -16185 L-21608 -16235 L-20003 -16333 L-19983 -16382 L-19828 -16284 L-19712 -16235 L-18533 -16185 L-18378 -16038 L-17711 -16038 L-15263 -12015 L-12748 -7893 L-10078 -3919 L-2379 55 L3288 55 L5502 6 L5526 6 L6500 987" />
</svg>
