<svg xmlns="http://www.w3.org/2000/svg" version="1.1" viewBox="0 0 6500 1000">
	<path fill="none" stroke="gold" stroke-width="125" stroke-linecap="round" stroke-linejoin="round" d="M0 25733  L-580923 25733 L-578319 25646 L-576651 25558 L-558321 25384 L-558151 25210 L-550993 25035 L-550960 25035 L-537529 24948 L-534607 25035 L-521266 24774 L-517097 24425 L-515937 23989 L-515318 23553 L-513306 23292 L-509534 23117 L-508934 22943 L-508606 22768 L-508393 22594 L-507851 22420 L-506613 21722 L-505434 21025 L-502570 20327 L-502047 19630 L-497192 19455 L-494255 19281 L-494212 19107 L-493903 18932 L-493651 18758 L-491056 18584 L-486801 18584 L-486783 18584 L-485546 18584 L-483669 18584 L-481715 18409 L-480767 18235 L-480497 18061 L-480187 17973 L-480089 17886 L-479258 17886 L-477227 17973 L-476937 17189 L-474791 16840 L-474635 16317 L-470979 15794 L-470728 16055 L-470629 15968 L-470112 16230 L-467961 16666 L-467032 17102 L-465506 17537 L-464267 17537 L-462720 17450 L-459758 17276 L-458636 17102 L-458327 16927 L-457116 16840 L-454109 17799 L-454090 17712 L-453742 17625 L-453529 17537 L-453403 16317 L-453161 16142 L-453124 15968 L-453104 15794 L-453085 15619 L-453026 15445 L-452967 15271 L-452949 15096 L-452506 14922 L-451267 14748 L-449721 14573 L-446333 14399 L-440607 14312 L-440405 14224 L-438769 14137 L-437047 14050 L-435615 13963 L-435383 13876 L-434668 13789 L-428536 13701 L-428168 13527 L-428013 13353 L-427435 13178 L-427142 13004 L-426175 12829 L-425866 12655 L-425267 12481 L-423660 12481 L-422925 12481 L-422615 12568 L-421847 12568 L-419811 12394 L-419386 12219 L-418573 12132 L-411144 11958 L-410621 11783 L-410448 11609 L-409713 11435 L-408145 11260 L-407740 11173 L-405515 10999 L-404567 10911 L-404142 10824 L-403811 10824 L-402768 10737 L-400659 10563 L-400407 10388 L-399788 10214 L-398976 10127 L-396868 9952 L-396819 9778 L-394891 9604 L-394565 9429 L-394430 9255 L-393927 9168 L-392514 8993 L-392012 8645 L-391490 8383 L-387930 8034 L-387195 7686 L-384770 7686 L-383481 7511 L-383074 7424 L-379921 7424 L-379767 7424 L-379746 7511 L-379380 7511 L-378121 7598 L-377406 7686 L-376516 7686 L-376110 7686 L-375181 7686 L-374072 7598 L-373769 7947 L-367520 8122 L-366573 8296 L-364947 8470 L-364445 8557 L-360769 8645 L-359937 8732 L-355984 8819 L-354572 8557 L-352083 8383 L-351406 8209 L-351368 8122 L-350497 8122 L-347286 8034 L-344422 7947 L-343454 7860 L-342333 7686 L-342314 7511 L-340689 7337 L-340225 7075 L-340133 6988 L-333764 6901 L-332815 6814 L-330358 6727 L-329486 6552 L-328250 6465 L-326248 6378 L-325851 6204 L-324415 6029 L-322388 5942 L-322175 5768 L-320995 5680 L-319487 5593 L-319467 5506 L-317454 5419 L-316585 5244 L-315714 5157 L-315129 4983 L-314592 4809 L-313934 4634 L-312696 4460 L-312135 4373 L-310954 4285 L-309717 4198 L-309678 4111 L-309291 4024 L-308750 3850 L-307976 3762 L-306854 3675 L-304764 3501 L-304431 3326 L-304145 3152 L-303217 3065 L-302734 2891 L-301998 2803 L-298367 2716 L-297239 2629 L-297085 2542 L-296059 2367 L-292344 2280 L-291127 2106 L-289308 1931 L-286522 1844 L-285961 1670 L-282073 1670 L-279596 1583 L-278262 1583 L-277758 1496 L-277275 1408 L-274586 1408 L-270814 1408 L-268357 1408 L-267177 1408 L-266538 1321 L-264178 1147 L-264101 1060 L-263053 972 L-262960 798 L-262457 798 L-262011 798 L-261954 798 L-261740 798 L-258781 624 L-256073 537 L-255918 449 L-252397 362 L-251874 188 L-250907 13 L-250558 -73 L-249515 -247 L-248586 -421 L-248160 -509 L-246651 -509 L-245684 -596 L-245665 -683 L-243769 -7047 L-243653 -13586 L-243605 -20038 L-243581 -26489 L-240577 -26577 L-238546 -26751 L-236785 -26838 L-236418 -26925 L-235973 -27100 L-235606 -27187 L-235192 -27361 L-233207 -27448 L-232994 -27448 L-232839 -27536 L-231234 -27536 L-230112 -27623 L-229163 -27710 L-227906 -27884 L-226262 -27972 L-225082 -28146 L-218492 -28233 L-218446 -28320 L-218040 -28408 L-216995 -28495 L-216860 -28582 L-215177 -28756 L-215157 -28843 L-213820 -29018 L-212584 -29105 L-212430 -29192 L-212056 -29367 L-211850 -29454 L-211540 -29541 L-210766 -29715 L-208445 -29802 L-207787 -29890 L-205659 -29977 L-203937 -30064 L-203743 -30238 L-201190 -30326 L-200914 -30500 L-200726 -30674 L-199893 -30761 L-199121 -30849 L-198423 -30936 L-193422 -30936 L-193046 -31110 L-188793 -31197 L-188306 -22566 L-188287 -22566 L-188208 -22653 L-188133 -22741 L-188113 -31633 L-187300 -31721 L-186546 -31895 L-185327 -31982 L-183895 -31982 L-183799 -32069 L-183625 -32069 L-183270 -32244 L-181961 -32331 L-180104 -32418 L-178401 -32592 L-177898 -32680 L-177633 -32767 L-177240 -32854 L-177106 -32941 L-176196 -33028 L-175820 -33115 L-174891 -33115 L-174552 -33203 L-174512 -33203 L-174475 -33290 L-172559 -33290 L-172386 -33377 L-170857 -33377 L-170529 -33464 L-170412 -33551 L-170005 -33726 L-169657 -33813 L-168014 -33987 L-167463 -34074 L-167219 -34162 L-166678 -34249 L-165847 -34423 L-165305 -34510 L-163771 -34685 L-163678 -34772 L-163641 -34859 L-163505 -34946 L-163118 -35034 L-162093 -35121 L-160217 -35208 L-160121 -35295 L-159520 -32505 L-159153 -29541 L-158669 -26489 L-158631 -23525 L-157857 -23351 L-157799 -23438 L-157625 -23612 L-157431 -23700 L-155826 -23874 L-155806 -23961 L-155651 -23787 L-155535 -23700 L-154356 -23612 L-154201 -23351 L-153534 -23351 L-151086 -16202 L-148571 -8878 L-145901 -1816 L-138202 5244 L-132534 5244 L-130320 5157 L-130296 5157 L-129323 6901 L-129303 6901 L-128439 6727 L-125699 6639 L-119900 4809 L-119747 4634 L-116961 4547 L-103353 4373 L-102607 4285 L-98196 4111 L-81850 4024 L-81618 3850 L-81081 3762 L-72621 3675 L-63916 3588 L-63703 3501 L-61731 3414 L-58944 3414 L-54457 3501 L-54302 3414 L-54133 3414 L-53993 3326 L-53702 3152 L-53663 3065 L-53393 2978 L-53221 2891 L-52811 2803 L-51690 2716 L-50510 2629 L-49233 2542 L-46369 2455 L-43449 2367 L-41457 2280 L-39909 2106 L-36871 2019 L-27547 1931 L-27023 1844 L-21299 1844 L-19792 1757 L-18977 1757 L-17294 1583 L-16573 1496 L-16404 1408 L-15359 1321 L-13292 1234 L-11930 1147 L-7487 1060 L-7389 972 L-7351 885 L-7332 798 L-6499 711 L-6422 537 L-3849 449 L-600 362 L-445 275 L502 188 L2243 13 L2959 537 L6500 972" />
</svg>
