<svg xmlns="http://www.w3.org/2000/svg" version="1.1" viewBox="0 0 6500 1000">
	<path fill="none" stroke="gold" stroke-width="125" stroke-linecap="round" stroke-linejoin="round" d="M0 1039  L-719608 1039 L-717004 1039 L-715336 1039 L-697007 1039 L-696836 1039 L-689679 1039 L-689646 1039 L-676215 1039 L-673293 1039 L-659952 1039 L-655783 1038 L-654623 1038 L-654004 1038 L-651992 1038 L-648220 1038 L-647620 1037 L-647291 1037 L-647078 1037 L-646537 1037 L-645299 1037 L-644120 1036 L-641255 1036 L-640733 1035 L-635878 1035 L-632940 1035 L-632897 1035 L-632589 1035 L-632337 1035 L-629742 1035 L-625487 1035 L-625469 1035 L-624232 1035 L-622354 1035 L-620401 1035 L-619453 1035 L-619182 1034 L-618872 1034 L-618774 1034 L-617944 1034 L-615913 1034 L-615623 1034 L-613476 1034 L-613321 1033 L-609664 1033 L-609413 1033 L-609315 1033 L-608798 1033 L-606647 1034 L-605718 1034 L-604192 1034 L-602952 1034 L-601406 1034 L-598444 1034 L-597322 1034 L-597013 1034 L-595802 1034 L-592795 1034 L-592775 1034 L-592428 1034 L-592215 1034 L-592089 1033 L-591847 1033 L-591809 1033 L-591790 1033 L-591770 1033 L-591711 1033 L-591653 1033 L-591635 1033 L-591192 1033 L-589952 1032 L-588406 1032 L-585019 1032 L-579293 1032 L-579091 1032 L-577455 1032 L-575733 1032 L-574301 1032 L-574069 1032 L-573353 1032 L-567221 1032 L-566854 1032 L-566699 1032 L-566121 1031 L-565828 1031 L-564861 1031 L-564551 1031 L-563952 1031 L-562346 1031 L-561611 1031 L-561301 1031 L-560533 1031 L-558497 1031 L-558071 1031 L-557259 1031 L-549830 1031 L-549307 1031 L-549134 1031 L-548399 1030 L-546831 1030 L-546425 1030 L-544200 1030 L-543252 1030 L-542827 1030 L-542497 1030 L-541453 1030 L-539345 1030 L-539093 1030 L-538474 1030 L-537661 1030 L-535553 1030 L-535505 1029 L-533577 1029 L-533251 1029 L-533116 1029 L-532613 1029 L-531200 1029 L-530697 1029 L-530175 1029 L-526616 1028 L-525881 1028 L-523456 1028 L-522167 1028 L-521760 1028 L-518607 1028 L-518452 1028 L-518432 1028 L-518065 1028 L-516807 1028 L-516092 1028 L-515202 1028 L-514795 1028 L-513867 1028 L-512758 1028 L-512455 1028 L-506206 1028 L-505259 1028 L-503632 1029 L-503131 1029 L-499455 1029 L-498623 1029 L-494670 1029 L-493258 1029 L-490768 1029 L-490092 1028 L-490053 1028 L-489182 1028 L-485971 1028 L-483108 1028 L-482140 1028 L-481019 1028 L-481000 1028 L-479375 1028 L-478911 1028 L-478819 1028 L-472449 1028 L-471501 1028 L-469044 1028 L-468171 1027 L-466935 1027 L-464934 1027 L-464537 1027 L-463100 1027 L-461074 1027 L-460861 1027 L-459681 1027 L-458172 1027 L-458152 1027 L-456140 1027 L-455271 1027 L-454400 1027 L-453815 1026 L-453278 1026 L-452620 1026 L-451382 1026 L-450821 1026 L-449640 1026 L-448403 1026 L-448364 1026 L-447977 1026 L-447435 1026 L-446662 1026 L-445539 1026 L-443450 1026 L-443117 1025 L-442831 1025 L-441903 1025 L-441419 1025 L-440684 1025 L-437053 1025 L-435925 1025 L-435770 1025 L-434744 1025 L-431030 1025 L-429812 1025 L-427994 1025 L-425208 1025 L-424647 1024 L-420759 1024 L-418282 1024 L-416947 1024 L-416444 1024 L-415961 1024 L-413271 1024 L-409500 1024 L-407043 1024 L-405863 1024 L-405224 1024 L-402864 1024 L-402787 1024 L-401739 1024 L-401646 1024 L-401143 1024 L-400697 1024 L-400640 1024 L-400426 1024 L-397466 1024 L-394759 1024 L-394604 1024 L-391083 1024 L-390560 1024 L-389593 1023 L-389244 1023 L-388200 1023 L-387272 1023 L-386846 1023 L-385337 1023 L-384370 1023 L-384351 1023 L-382455 1019 L-382339 1015 L-382291 1011 L-382267 1007 L-379263 1007 L-377232 1007 L-375471 1007 L-375104 1007 L-374658 1007 L-374291 1007 L-373878 1007 L-371893 1007 L-371679 1007 L-371524 1007 L-369919 1007 L-368797 1007 L-367849 1007 L-366592 1006 L-364947 1006 L-363768 1006 L-357178 1006 L-357132 1006 L-356726 1006 L-355681 1006 L-355545 1006 L-353863 1006 L-353843 1006 L-352506 1006 L-351270 1006 L-351116 1006 L-350742 1006 L-350536 1005 L-350226 1005 L-349452 1005 L-347131 1005 L-346473 1005 L-344345 1005 L-342623 1005 L-342429 1005 L-339876 1005 L-339600 1005 L-339411 1005 L-338579 1005 L-337806 1005 L-337108 1005 L-332108 1005 L-331732 1004 L-327479 1004 L-326992 1010 L-326973 1010 L-326894 1010 L-326818 1010 L-326799 1004 L-325986 1004 L-325232 1004 L-324013 1004 L-322581 1004 L-322485 1004 L-322310 1004 L-321956 1004 L-320647 1004 L-318789 1004 L-317087 1004 L-316584 1004 L-316319 1003 L-315926 1003 L-315791 1003 L-314882 1003 L-314505 1003 L-313577 1003 L-313238 1003 L-313198 1003 L-313160 1003 L-311245 1003 L-311071 1003 L-309542 1003 L-309214 1003 L-309098 1003 L-308691 1003 L-308343 1003 L-306699 1003 L-306148 1003 L-305905 1003 L-305364 1003 L-304532 1002 L-303991 1002 L-302456 1002 L-302364 1002 L-302327 1002 L-302191 1002 L-301804 1002 L-300779 1002 L-298903 1002 L-298806 1002 L-298206 1004 L-297839 1005 L-297354 1007 L-297316 1009 L-296543 1009 L-296485 1009 L-296311 1009 L-296117 1009 L-294512 1009 L-294492 1009 L-294336 1009 L-294221 1009 L-293042 1009 L-292887 1009 L-292220 1009 L-289772 1014 L-287257 1018 L-284587 1022 L-276888 1027 L-271220 1027 L-269005 1027 L-268982 1027 L-268008 1028 L-267988 1028 L-267125 1028 L-264384 1027 L-258586 1026 L-258432 1026 L-255647 1026 L-242038 1026 L-241292 1026 L-236882 1026 L-220535 1026 L-220303 1026 L-219766 1026 L-211307 1026 L-202601 1026 L-202389 1026 L-200416 1026 L-197630 1026 L-193143 1026 L-192988 1026 L-192819 1026 L-192678 1025 L-192388 1025 L-192349 1025 L-192078 1025 L-191907 1025 L-191496 1025 L-190376 1025 L-189196 1025 L-187919 1025 L-185055 1025 L-182135 1025 L-180143 1025 L-178595 1025 L-175557 1025 L-166233 1025 L-165709 1025 L-159985 1025 L-158478 1025 L-157663 1025 L-155980 1024 L-155259 1024 L-155090 1024 L-154045 1024 L-151978 1024 L-150616 1024 L-146172 1024 L-146075 1024 L-146037 1024 L-146018 1024 L-145185 1024 L-145107 1024 L-142535 1024 L-139286 1024 L-139131 1024 L-138182 1024 L-136441 1023 L-135726 1024 L-132185 1024 L-125608 1024 L-124191 1025 L-124170 1025 L-123219 1025 L-119745 1025 L-118992 1025 L-118430 1024 L-117648 1024 L-110144 1024 L-108545 1024 L-106971 1024 L-103786 1024 L-99453 1024 L-90883 1024 L-82137 1024 L-79063 1024 L-75797 1024 L-75251 1024 L-68113 1024 L-62446 1024 L-48381 1024 L-42370 1024 L-37664 1024 L-33660 1024 L-28553 1024 L-18839 1024 L-3268 1023 L-186 1023 L116 999 L135 970 L154 936 L174 899 L193 882 L213 868 L231 854 L259 841 L280 829 L308 815 L343 801 L357 788 L370 777 L388 768 L407 762 L427 755 L445 748 L465 741 L484 735 L505 728 L522 721 L541 714 L562 707 L581 701 L600 694 L619 686 L638 679 L659 671 L677 664 L696 658 L717 651 L742 644 L756 638 L774 632 L793 626 L813 620 L832 613 L851 607 L871 600 L891 594 L909 589 L928 583 L949 578 L969 573 L986 569 L1005 565 L1025 561 L1044 557 L1064 553 L1083 550 L1103 547 L1122 544 L1141 541 L1160 538 L1187 535 L1208 531 L1236 527 L1270 522 L1284 519 L1297 515 L1316 512 L1335 510 L1355 507 L1373 504 L1393 501 L1413 498 L1433 495 L1451 492 L1470 489 L1490 486 L1510 483 L1528 479 L1547 475 L1567 471 L1587 467 L1605 463 L1624 458 L1645 453 L1670 448 L1684 443 L1702 438 L1721 433 L1741 429 L1760 423 L1779 418 L1799 413 L1819 408 L1838 403 L1856 398 L1877 394 L1897 389 L1915 385 L1934 381 L1954 377 L1973 374 L1992 370 L2011 367 L2031 363 L2050 360 L2070 356 L2089 353 L2117 349 L2137 346 L2165 343 L2202 339 L2217 335 L2230 331 L2247 328 L2264 325 L2284 323 L2302 321 L2321 319 L2341 317 L2362 315 L2379 313 L2398 310 L2418 308 L2438 305 L2457 303 L2475 300 L2495 297 L2515 294 L2534 290 L2553 287 L2574 284 L2598 281 L2613 278 L2630 275 L2650 272 L2669 269 L2689 265 L2708 262 L2728 259 L2748 255 L2766 252 L2785 249 L2805 246 L2826 244 L2843 241 L2862 238 L2882 236 L2901 233 L2921 230 L2940 228 L2960 225 L2979 223 L2998 220 L3017 218 L3045 215 L3065 213 L3093 210 L3130 206 L3144 202 L3157 199 L3174 196 L3192 194 L3212 192 L3231 189 L3251 187 L3270 184 L3291 181 L3310 178 L3327 175 L3347 171 L3368 168 L3386 164 L3404 160 L3424 156 L3445 152 L3463 148 L3481 145 L3503 143 L3528 141 L3542 139 L3560 137 L3579 135 L3598 133 L3618 131 L3636 129 L3656 127 L3677 126 L3695 124 L3714 122 L3734 120 L3755 117 L3772 115 L3791 113 L3811 111 L3830 110 L3849 109 L3868 107 L3888 106 L3908 105 L3927 103 L3946 102 L3973 100 L3994 99 L4022 98 L4057 96 L4070 94 L4084 93 L4102 92 L4121 91 L4141 90 L4159 89 L4179 88 L4199 87 L4220 86 L4237 85 L4255 84 L4276 82 L4296 81 L4314 80 L4333 79 L4353 78 L4373 77 L4391 76 L4410 75 L4431 74 L4456 73 L4471 72 L4488 71 L4507 70 L4527 69 L4546 68 L4565 67 L4585 66 L4606 65 L4623 64 L4642 63 L4663 62 L4683 61 L4701 60 L4720 59 L4740 58 L4758 57 L4778 56 L4797 55 L4817 55 L4836 54 L4855 53 L4874 55 L4903 56 L4923 57 L4951 58 L4988 57 L5003 56 L5016 55 L5033 55 L5050 54 L5070 54 L5088 53 L5108 52 L5127 52 L5149 51 L5165 51 L5184 50 L5204 50 L5225 49 L5243 48 L5261 48 L5281 47 L5301 46 L5320 46 L5339 45 L5360 45 L5385 44 L5399 44 L5416 43 L5436 42 L5455 42 L5475 41 L5494 41 L5513 40 L5534 39 L5552 38 L5571 37 L5591 36 L5612 36 L5629 35 L5648 34 L5668 34 L5687 33 L5707 32 L5725 31 L5745 30 L5765 30 L5784 29 L5803 29 L5830 28 L5851 27 L5879 26 L5914 25 L5927 25 L5941 24 L5960 23 L5978 23 L5998 22 L6016 22 L6036 21 L6056 20 L6077 20 L6094 19 L6112 18 L6133 18 L6153 17 L6171 16 L6190 15 L6210 14 L6230 13 L6248 12 L6267 11 L6288 10 L6313 9 L6328 8 L6345 7 L6364 6 L6384 5 L6403 4 L6422 3 L6442 3 L6463 2 L6480 1 L6500 0" />
</svg>
