<svg xmlns="http://www.w3.org/2000/svg" version="1.1" viewBox="0 0 6500 1000">
	<path fill="none" stroke="gold" stroke-width="125" stroke-linecap="round" stroke-linejoin="round" d="M0 3724  L-724834 3724 L-722230 3724 L-720562 3724 L-702232 3724 L-702062 3723 L-694904 3723 L-694871 3723 L-681440 3723 L-678518 3723 L-665177 3722 L-661008 3722 L-659848 3721 L-659229 3720 L-657217 3719 L-653446 3719 L-652845 3719 L-652517 3718 L-652304 3718 L-651762 3718 L-650524 3716 L-649345 3715 L-646481 3714 L-645959 3712 L-641103 3712 L-638166 3712 L-638123 3711 L-637814 3711 L-637563 3711 L-634968 3710 L-630712 3710 L-630694 3710 L-629457 3710 L-627580 3710 L-625627 3710 L-624679 3710 L-624408 3709 L-624098 3709 L-624000 3709 L-623169 3709 L-621139 3709 L-620848 3708 L-618702 3707 L-618546 3706 L-614890 3705 L-614639 3705 L-614540 3705 L-614023 3706 L-611872 3707 L-610943 3707 L-609417 3708 L-608178 3708 L-606631 3708 L-603669 3708 L-602548 3707 L-602238 3707 L-601027 3707 L-598020 3709 L-598001 3709 L-597654 3708 L-597440 3708 L-597314 3706 L-597073 3706 L-597035 3705 L-597015 3705 L-596996 3705 L-596937 3704 L-596878 3704 L-596860 3704 L-596417 3703 L-595178 3703 L-593632 3703 L-590244 3702 L-584518 3702 L-584316 3702 L-582681 3702 L-580959 3702 L-579527 3701 L-579294 3701 L-578579 3701 L-572447 3701 L-572079 3700 L-571925 3700 L-571346 3700 L-571054 3699 L-570086 3699 L-569777 3699 L-569178 3698 L-567571 3698 L-566836 3698 L-566526 3699 L-565758 3699 L-563722 3698 L-563297 3698 L-562484 3698 L-555056 3697 L-554533 3697 L-554359 3697 L-553624 3696 L-552056 3696 L-551651 3696 L-549426 3696 L-548478 3695 L-548053 3695 L-547722 3695 L-546679 3695 L-544571 3695 L-544318 3694 L-543700 3694 L-542887 3694 L-540779 3694 L-540730 3693 L-538802 3693 L-538477 3693 L-538341 3692 L-537838 3692 L-536426 3692 L-535923 3691 L-535401 3691 L-531841 3690 L-531106 3689 L-528681 3689 L-527392 3689 L-526985 3689 L-523833 3689 L-523678 3689 L-523657 3689 L-523291 3689 L-522033 3689 L-521318 3689 L-520428 3689 L-520021 3689 L-519092 3689 L-517984 3689 L-517680 3690 L-511431 3690 L-510484 3690 L-508858 3691 L-508356 3691 L-504680 3691 L-503848 3691 L-499895 3691 L-498483 3691 L-495994 3691 L-495317 3690 L-495279 3690 L-494408 3690 L-491197 3690 L-488334 3690 L-487366 3689 L-486244 3689 L-486225 3689 L-484600 3688 L-484136 3688 L-484044 3688 L-477675 3688 L-476726 3687 L-474269 3687 L-473397 3687 L-472161 3687 L-470160 3687 L-469762 3686 L-468326 3686 L-466300 3686 L-466086 3685 L-464906 3685 L-463398 3685 L-463378 3685 L-461365 3685 L-460496 3684 L-459625 3684 L-459040 3684 L-458503 3684 L-457845 3683 L-456607 3683 L-456047 3683 L-454866 3683 L-453628 3682 L-453589 3682 L-453203 3682 L-452661 3682 L-451887 3682 L-450765 3681 L-448676 3681 L-448342 3681 L-448057 3680 L-447128 3680 L-446645 3680 L-445909 3680 L-442278 3680 L-441151 3679 L-440996 3679 L-439970 3679 L-436255 3679 L-435038 3678 L-433219 3678 L-430434 3678 L-429872 3677 L-425984 3677 L-423508 3677 L-422173 3677 L-421669 3677 L-421186 3677 L-418497 3677 L-414725 3677 L-412268 3677 L-411088 3677 L-410449 3677 L-408089 3676 L-408012 3676 L-406965 3676 L-406871 3676 L-406368 3676 L-405923 3676 L-405865 3676 L-405651 3676 L-402692 3675 L-399984 3675 L-399829 3675 L-396309 3675 L-395786 3675 L-394818 3674 L-394469 3674 L-393426 3674 L-392497 3673 L-392071 3673 L-390562 3673 L-389595 3673 L-389577 3673 L-387681 3661 L-387565 3648 L-387517 3635 L-387492 3623 L-384488 3623 L-382457 3622 L-380697 3622 L-380329 3622 L-379884 3622 L-379517 3621 L-379103 3621 L-377118 3621 L-376905 3621 L-376750 3621 L-375145 3621 L-374023 3621 L-373075 3620 L-371817 3620 L-370173 3620 L-368993 3620 L-362404 3619 L-362357 3619 L-361951 3619 L-360906 3619 L-360771 3619 L-359088 3618 L-359068 3618 L-357732 3618 L-356495 3618 L-356341 3618 L-355967 3617 L-355761 3617 L-355451 3617 L-354678 3617 L-352356 3616 L-351698 3616 L-349571 3616 L-347848 3616 L-347655 3616 L-345101 3615 L-344825 3615 L-344637 3615 L-343804 3615 L-343032 3614 L-342334 3614 L-337333 3614 L-336957 3614 L-332704 3614 L-332217 3630 L-332198 3630 L-332119 3630 L-332044 3630 L-332024 3613 L-331211 3613 L-330457 3612 L-329238 3612 L-327806 3612 L-327710 3612 L-327536 3612 L-327181 3612 L-325872 3611 L-324015 3611 L-322312 3611 L-321810 3611 L-321544 3611 L-321151 3610 L-321017 3610 L-320107 3610 L-319731 3610 L-318802 3610 L-318463 3610 L-318424 3610 L-318386 3610 L-316470 3610 L-316297 3609 L-314768 3609 L-314440 3609 L-314324 3609 L-313916 3609 L-313568 3609 L-311925 3608 L-311374 3608 L-311131 3608 L-310589 3608 L-309758 3607 L-309216 3607 L-307682 3607 L-307589 3607 L-307553 3607 L-307417 3606 L-307029 3606 L-306005 3606 L-304128 3606 L-304032 3606 L-303432 3611 L-303064 3617 L-302580 3623 L-302542 3629 L-301768 3629 L-301711 3629 L-301536 3628 L-301342 3628 L-299737 3628 L-299717 3628 L-299562 3628 L-299447 3628 L-298267 3628 L-298112 3629 L-297445 3629 L-294997 3643 L-292482 3657 L-289812 3671 L-282113 3684 L-276445 3684 L-274231 3684 L-274208 3684 L-273234 3688 L-273214 3688 L-272350 3687 L-269610 3687 L-263811 3684 L-263658 3683 L-260872 3683 L-247264 3683 L-246518 3683 L-242107 3682 L-225761 3682 L-225529 3682 L-224992 3682 L-216532 3681 L-207827 3681 L-207614 3681 L-205642 3681 L-202856 3681 L-198368 3681 L-198213 3681 L-198044 3681 L-197904 3681 L-197613 3680 L-197574 3680 L-197304 3680 L-197132 3680 L-196722 3680 L-195601 3680 L-194421 3679 L-193144 3679 L-190280 3679 L-187360 3679 L-185368 3679 L-183820 3678 L-180783 3678 L-171458 3678 L-170934 3678 L-165210 3678 L-163703 3678 L-162889 3678 L-161205 3677 L-160484 3677 L-160316 3677 L-159270 3677 L-157203 3677 L-155841 3676 L-151398 3676 L-151301 3676 L-151262 3676 L-151243 3676 L-150410 3676 L-150333 3675 L-147760 3675 L-144511 3675 L-144356 3675 L-143408 3675 L-141667 3674 L-140951 3675 L-137411 3676 L-130833 3677 L-129416 3678 L-129395 3678 L-128445 3678 L-124970 3678 L-124217 3678 L-123655 3677 L-122873 3677 L-115369 3677 L-113771 3677 L-112197 3677 L-109012 3677 L-104678 3676 L-96109 3676 L-87362 3676 L-84289 3676 L-81023 3676 L-80476 3676 L-73339 3675 L-67671 3675 L-53607 3675 L-47595 3676 L-42889 3675 L-38886 3675 L-33778 3675 L-24064 3675 L-8494 3674 L-5411 3674 L-5109 3598 L-5089 3504 L-5070 3398 L-5051 3279 L-5031 3224 L-5012 3178 L-4993 3136 L-4965 3095 L-4945 3054 L-4917 3012 L-4881 2965 L-4868 2925 L-4855 2891 L-4836 2862 L-4818 2841 L-4798 2820 L-4780 2798 L-4760 2777 L-4740 2755 L-4719 2732 L-4702 2710 L-4684 2689 L-4663 2668 L-4643 2647 L-4625 2625 L-4606 2601 L-4586 2577 L-4566 2554 L-4548 2531 L-4529 2510 L-4507 2489 L-4483 2468 L-4468 2449 L-4451 2429 L-4431 2409 L-4412 2390 L-4393 2369 L-4374 2348 L-4354 2328 L-4333 2309 L-4315 2290 L-4297 2273 L-4276 2257 L-4255 2241 L-4238 2228 L-4219 2214 L-4199 2202 L-4180 2189 L-4161 2178 L-4142 2167 L-4122 2157 L-4102 2148 L-4083 2139 L-4065 2130 L-4037 2119 L-4016 2107 L-3988 2094 L-3954 2079 L-3940 2067 L-3927 2057 L-3908 2047 L-3889 2039 L-3870 2030 L-3851 2020 L-3832 2010 L-3812 2000 L-3791 1991 L-3774 1983 L-3755 1974 L-3735 1964 L-3715 1954 L-3696 1942 L-3678 1929 L-3658 1916 L-3638 1902 L-3619 1889 L-3600 1875 L-3579 1860 L-3555 1843 L-3540 1827 L-3523 1811 L-3503 1796 L-3484 1781 L-3464 1765 L-3445 1748 L-3425 1732 L-3405 1716 L-3387 1700 L-3368 1685 L-3348 1671 L-3327 1656 L-3310 1643 L-3291 1630 L-3271 1617 L-3252 1607 L-3232 1595 L-3213 1584 L-3193 1573 L-3174 1561 L-3155 1550 L-3136 1539 L-3107 1528 L-3087 1518 L-3060 1507 L-3022 1494 L-3007 1482 L-2995 1471 L-2978 1460 L-2961 1452 L-2941 1445 L-2922 1439 L-2903 1432 L-2883 1426 L-2863 1420 L-2845 1412 L-2826 1405 L-2806 1397 L-2786 1389 L-2768 1380 L-2749 1372 L-2729 1362 L-2709 1352 L-2690 1341 L-2672 1332 L-2651 1322 L-2626 1312 L-2612 1302 L-2594 1292 L-2574 1282 L-2555 1272 L-2536 1262 L-2517 1251 L-2497 1240 L-2477 1230 L-2458 1219 L-2439 1210 L-2419 1201 L-2399 1192 L-2381 1184 L-2362 1175 L-2342 1167 L-2324 1158 L-2304 1150 L-2285 1142 L-2265 1134 L-2246 1126 L-2226 1118 L-2207 1110 L-2179 1102 L-2159 1094 L-2131 1085 L-2095 1072 L-2081 1061 L-2068 1050 L-2050 1040 L-2032 1034 L-2012 1028 L-1994 1020 L-1974 1011 L-1954 1003 L-1933 993 L-1915 983 L-1898 973 L-1877 962 L-1857 950 L-1839 938 L-1820 925 L-1800 912 L-1780 900 L-1762 889 L-1743 880 L-1722 873 L-1697 866 L-1682 860 L-1665 854 L-1646 848 L-1626 841 L-1607 834 L-1588 828 L-1568 822 L-1547 817 L-1530 812 L-1511 806 L-1490 798 L-1469 790 L-1453 782 L-1433 775 L-1413 770 L-1395 766 L-1375 763 L-1356 759 L-1336 754 L-1317 750 L-1298 745 L-1279 741 L-1251 736 L-1230 732 L-1203 728 L-1168 722 L-1154 717 L-1141 713 L-1122 709 L-1104 706 L-1084 703 L-1065 699 L-1046 696 L-1026 693 L-1005 690 L-988 687 L-969 683 L-948 679 L-929 675 L-910 671 L-892 668 L-872 665 L-852 661 L-833 658 L-814 655 L-793 652 L-768 649 L-754 646 L-737 643 L-717 640 L-698 637 L-678 633 L-659 630 L-640 626 L-619 622 L-601 619 L-582 616 L-562 613 L-541 610 L-524 607 L-505 604 L-485 601 L-466 598 L-446 595 L-428 593 L-408 591 L-388 589 L-369 587 L-350 591 L-321 594 L-302 597 L-274 601 L-236 597 L-221 595 L-209 593 L-191 591 L-175 589 L-155 588 L-137 585 L-117 583 L-97 582 L-76 580 L-59 578 L-41 577 L-20 575 L0 573 L17 571 L36 569 L56 567 L76 565 L94 563 L113 561 L134 560 L159 558 L174 556 L191 554 L211 552 L230 550 L249 548 L268 546 L288 544 L309 541 L326 538 L345 535 L366 533 L386 531 L404 528 L423 526 L443 524 L461 521 L481 519 L500 516 L520 513 L540 511 L559 509 L577 508 L605 505 L626 503 L654 501 L688 498 L702 496 L715 494 L734 491 L753 490 L773 488 L791 486 L811 484 L830 481 L851 479 L868 477 L887 475 L908 473 L928 470 L946 467 L965 464 L984 461 L1005 458 L1023 455 L1042 452 L1063 449 L1088 446 L1103 443 L1120 440 L1139 437 L1159 434 L1178 431 L1197 428 L1217 425 L1238 422 L1255 420 L1274 417 L1295 414 L1315 412 L1332 410 L1351 408 L1371 406 L1390 404 L1410 402 L1429 400 L1448 399 L1468 397 L1487 396 L1506 395 L1534 393 L1554 391 L1582 390 L1618 386 L1631 384 L1644 381 L1663 378 L1681 376 L1701 374 L1719 372 L1739 371 L1759 369 L1780 367 L1797 365 L1815 362 L1836 360 L1856 358 L1874 355 L1893 353 L1913 350 L1933 348 L1951 346 L1970 344 L1992 342 L2017 340 L2031 338 L2048 336 L2068 334 L2087 332 L2106 330 L2125 327 L2145 324 L2166 320 L2184 317 L2203 314 L2223 312 L2244 310 L2261 308 L2280 306 L2300 305 L2319 304 L2338 302 L2357 300 L2377 299 L2397 297 L2416 296 L2435 295 L2462 293 L2483 292 L2511 290 L2545 289 L2559 288 L2572 286 L2591 285 L2610 284 L2629 283 L2648 282 L2667 281 L2687 280 L2708 279 L2725 278 L2744 276 L2764 275 L2784 274 L2803 273 L2821 271 L2841 270 L2862 269 L2880 269 L2899 268 L2920 267 L2944 266 L2959 265 L2976 263 L2996 262 L3015 261 L3035 260 L3054 259 L3073 257 L3094 255 L3112 253 L3131 251 L3151 248 L3172 246 L3190 245 L3208 243 L3228 241 L3247 240 L3267 238 L3286 236 L3306 235 L3325 234 L3344 233 L3363 232 L3392 231 L3439 230 L3476 228 L3491 227 L3504 226 L3521 225 L3538 224 L3558 224 L3577 223 L3596 222 L3616 221 L3636 220 L3654 219 L3673 219 L3693 218 L3712 217 L3731 216 L3750 215 L3770 214 L3790 213 L3808 212 L3827 210 L3848 209 L3873 207 L3888 205 L3905 203 L3925 201 L3944 199 L3963 198 L3982 196 L4002 195 L4023 193 L4041 191 L4060 190 L4080 188 L4100 187 L4118 186 L4137 185 L4157 183 L4176 182 L4195 181 L4214 180 L4234 179 L4253 177 L4273 176 L4292 175 L4320 174 L4340 172 L4368 170 L4405 168 L4419 165 L4432 163 L4450 161 L4467 159 L4487 158 L4505 157 L4525 156 L4545 155 L4566 154 L4583 153 L4601 151 L4622 150 L4642 148 L4660 146 L4679 143 L4699 141 L4720 139 L4737 137 L4756 135 L4777 133 L4802 131 L4817 129 L4835 128 L4853 126 L4874 125 L4892 124 L4911 121 L4931 120 L4952 118 L4969 116 L4989 115 L5009 113 L5030 112 L5047 110 L5066 109 L5085 107 L5104 106 L5124 105 L5143 104 L5163 102 L5183 101 L5202 100 L5220 99 L5248 997 L5269 995 L5296 994 L5332 992 L5346 91 L5360 89 L5378 88 L5396 87 L5415 86 L5434 85 L5453 84 L5473 83 L5494 81 L5511 79 L5530 77 L5551 75 L5571 73 L5589 71 L5608 68 L5627 66 L5648 64 L5666 62 L5685 61 L5706 60 L5731 58 L5746 55 L5776 53 L5815 50 L5838 48 L5868 45 L5884 42 L5898 40 L5917 38 L5937 37 L5958 36 L5975 34 L5994 33 L6014 32 L6033 31 L6053 30 L6072 29 L6091 29 L6112 27 L6130 26 L6149 25 L6177 24 L6197 23 L6225 22 L6260 20 L6274 19 L6306 17 L6324 16 L6344 15 L6363 14 L6382 14 L6402 13 L6423 12 L6440 11 L6458 9 L6479 5 L6500 1" />
</svg>
