<svg xmlns="http://www.w3.org/2000/svg" version="1.1" viewBox="0 0 6500 1000">
	<path fill="none" stroke="gold" stroke-width="125" stroke-linecap="round" stroke-linejoin="round" d="M0 1021  L-715707 1021 L-713103 1020 L-711435 1020 L-693105 1020 L-692935 1020 L-685777 1020 L-685744 1020 L-672313 1020 L-669392 1020 L-656051 1020 L-651882 1019 L-650722 1019 L-650102 1019 L-648091 1019 L-644319 1018 L-643719 1018 L-643390 1018 L-643177 1018 L-642635 1018 L-641397 1017 L-640218 1017 L-637354 1016 L-636832 1016 L-631976 1015 L-629039 1015 L-628996 1015 L-628688 1015 L-628436 1015 L-625841 1015 L-621585 1015 L-621567 1015 L-620331 1015 L-618453 1015 L-616500 1015 L-615552 1014 L-615281 1014 L-614971 1014 L-614873 1014 L-614043 1014 L-612012 1014 L-611721 1014 L-609575 1013 L-609420 1013 L-605763 1012 L-605512 1013 L-605414 1013 L-604896 1013 L-602745 1013 L-601816 1013 L-600290 1014 L-599051 1014 L-597504 1014 L-594543 1014 L-593421 1013 L-593112 1013 L-591900 1013 L-588894 1014 L-588874 1014 L-588527 1014 L-588314 1014 L-588187 1013 L-587946 1013 L-587908 1013 L-587888 1012 L-587869 1012 L-587810 1012 L-587751 1012 L-587733 1012 L-587290 1012 L-586051 1012 L-584505 1011 L-581117 1011 L-575391 1011 L-575190 1011 L-573554 1011 L-571832 1011 L-570400 1011 L-570167 1011 L-569452 1011 L-563320 1011 L-562952 1011 L-562798 1010 L-562219 1010 L-561927 1010 L-560960 1010 L-560650 1010 L-560051 1010 L-558445 1010 L-557710 1010 L-557400 1010 L-556631 1010 L-554595 1010 L-554170 1009 L-553357 1009 L-545929 1009 L-545406 1009 L-545232 1009 L-544497 1009 L-542930 1009 L-542524 1009 L-540299 1008 L-539351 1008 L-538926 1008 L-538596 1008 L-537552 1008 L-535444 1008 L-535192 1008 L-534573 1008 L-533760 1008 L-531652 1008 L-531604 1007 L-529675 1007 L-529350 1007 L-529215 1007 L-528712 1007 L-527299 1007 L-526796 1006 L-526274 1006 L-522715 1006 L-521979 1006 L-519555 1006 L-518265 1006 L-517858 1005 L-514706 1005 L-514551 1005 L-514531 1006 L-514164 1006 L-512906 1006 L-512191 1006 L-511301 1006 L-510894 1006 L-509965 1006 L-508857 1006 L-508554 1006 L-502305 1006 L-501357 1006 L-499731 1006 L-499229 1006 L-495554 1006 L-494721 1007 L-490768 1007 L-489356 1006 L-486867 1006 L-486191 1006 L-486152 1006 L-485281 1006 L-482070 1006 L-479207 1006 L-478239 1006 L-477117 1006 L-477098 1006 L-475473 1005 L-475009 1005 L-474917 1005 L-468548 1005 L-467600 1005 L-465142 1005 L-464270 1005 L-463034 1005 L-461033 1005 L-460635 1004 L-459199 1004 L-457173 1004 L-456960 1004 L-455780 1004 L-454271 1004 L-454251 1004 L-452239 1004 L-451369 1004 L-450498 1004 L-449913 1003 L-449376 1003 L-448719 1003 L-447480 1003 L-446920 1003 L-445739 1003 L-444501 1003 L-444463 1003 L-444076 1003 L-443534 1003 L-442760 1002 L-441638 1002 L-439549 1002 L-439216 1002 L-438930 1002 L-438001 1002 L-437518 1002 L-436783 1002 L-433151 1002 L-432024 1002 L-431869 1001 L-430843 1001 L-427128 1001 L-425911 1001 L-424092 1001 L-421307 1001 L-420745 1001 L-416857 1001 L-414381 1001 L-413046 1001 L-412543 1001 L-412059 1001 L-409370 1001 L-405598 1001 L-403141 1001 L-401961 1001 L-401322 1000 L-398963 1000 L-398885 1000 L-397838 1000 L-397744 1000 L-397241 1000 L-396796 1000 L-396738 1000 L-396525 1000 L-393565 1000 L-390857 1000 L-390703 1000 L-387182 1000 L-386659 1000 L-385692 999 L-385342 999 L-384299 999 L-383370 999 L-382945 999 L-381436 999 L-380469 999 L-380450 999 L-378554 994 L-378438 988 L-378390 983 L-378365 978 L-375361 978 L-373331 977 L-371570 977 L-371203 977 L-370757 977 L-370390 977 L-369976 977 L-367991 977 L-367778 977 L-367623 977 L-366018 977 L-364896 977 L-363948 977 L-362691 976 L-361046 976 L-359866 976 L-353277 976 L-353230 976 L-352825 976 L-351779 976 L-351644 976 L-349961 976 L-349942 976 L-348605 976 L-347369 975 L-347214 975 L-346840 975 L-346634 975 L-346325 975 L-345551 975 L-343229 975 L-342572 975 L-340444 975 L-338721 975 L-338528 975 L-335975 974 L-335698 974 L-335510 974 L-334678 974 L-333905 974 L-333207 974 L-328206 974 L-327831 974 L-323578 974 L-323091 981 L-323071 981 L-322992 981 L-322917 981 L-322897 973 L-322084 973 L-321331 973 L-320111 973 L-318680 973 L-318583 973 L-318409 973 L-318055 973 L-316745 973 L-314888 973 L-313186 973 L-312683 973 L-312417 972 L-312024 972 L-311890 972 L-310980 972 L-310604 972 L-309675 972 L-309336 972 L-309297 972 L-309259 972 L-307344 972 L-307170 972 L-305641 972 L-305313 972 L-305197 972 L-304790 972 L-304442 972 L-302798 971 L-302247 971 L-302004 971 L-301462 971 L-300631 971 L-300089 971 L-298555 971 L-298463 971 L-298426 971 L-298290 971 L-297903 971 L-296878 971 L-295001 970 L-294905 970 L-294305 973 L-293938 975 L-293453 978 L-293415 980 L-292641 980 L-292584 980 L-292409 980 L-292216 980 L-290610 980 L-290590 980 L-290435 980 L-290320 980 L-289140 980 L-288985 980 L-288318 980 L-285870 986 L-283355 992 L-280686 998 L-272986 1004 L-267319 1004 L-265104 1004 L-265081 1004 L-264107 1005 L-264087 1005 L-263223 1005 L-260483 1005 L-254685 1003 L-254531 1003 L-251745 1003 L-238137 1003 L-237391 1003 L-232980 1003 L-216634 1003 L-216402 1003 L-215865 1002 L-207405 1002 L-198700 1002 L-198488 1002 L-196515 1002 L-193729 1002 L-189241 1002 L-189087 1002 L-188917 1002 L-188777 1002 L-188486 1002 L-188448 1002 L-188177 1002 L-188005 1002 L-187595 1002 L-186475 1002 L-185294 1002 L-184017 1001 L-181154 1001 L-178233 1001 L-176241 1001 L-174694 1001 L-171656 1001 L-162331 1001 L-161807 1001 L-156083 1001 L-154576 1001 L-153762 1001 L-152078 1001 L-151357 1001 L-151189 1001 L-150144 1000 L-148076 1000 L-146714 1000 L-142271 1000 L-142174 1000 L-142135 1000 L-142116 1000 L-141284 1000 L-141206 1000 L-138634 1000 L-135384 1000 L-135229 1000 L-134281 1000 L-132540 999 L-131825 1000 L-128284 1000 L-121707 1001 L-120289 1001 L-120268 1001 L-119318 1001 L-115844 1001 L-115090 1001 L-114529 1001 L-113747 1001 L-106242 1001 L-104644 1001 L-103070 1000 L-99885 1000 L-95552 1000 L-86982 1000 L-78236 1000 L-75162 1000 L-71896 1000 L-71349 1000 L-64212 1000 L-58544 1000 L-44480 1000 L-38469 1000 L-33762 1000 L-29759 1000 L-24652 1000 L-14938 1000 L632 999 L3715 999 L4017 967 L4037 927 L4055 882 L4075 832 L4095 809 L4114 790 L4133 772 L4160 754 L4181 737 L4209 719 L4244 699 L4258 682 L4271 668 L4290 656 L4308 647 L4328 638 L4346 629 L4366 620 L4386 611 L4407 601 L4424 592 L4442 583 L4463 574 L4483 565 L4501 555 L4520 546 L4540 535 L4560 525 L4578 516 L4597 507 L4618 498 L4643 489 L4658 481 L4675 473 L4694 464 L4714 456 L4733 447 L4752 438 L4772 430 L4793 422 L4810 414 L4829 407 L4850 400 L4870 393 L4888 387 L4906 382 L4927 376 L4945 371 L4965 366 L4984 362 L5004 358 L5023 354 L5043 350 L5061 346 L5089 341 L5110 336 L5137 331 L5171 325 L5186 320 L5199 315 L5217 311 L5236 308 L5256 304 L5275 300 L5294 296 L5314 291 L5335 287 L5352 284 L5371 280 L5391 276 L5411 272 L5430 267 L5448 261 L5468 256 L5488 250 L5507 244 L5526 238 L5547 232 L5571 225 L5586 218 L5603 211 L5623 205 L5642 198 L5662 192 L5680 184 L5700 178 L5721 171 L5739 164 L5758 158 L5778 152 L5798 146 L5816 140 L5835 135 L5855 129 L5874 125 L5894 120 L5912 115 L5932 111 L5952 106 L5971 101 L5990 96 L6019 91 L6038 87 L6066 83 L6103 77 L6118 72 L6131 67 L6148 63 L6165 60 L6185 57 L6203 54 L6223 51 L6243 48 L6263 46 L6281 43 L6299 39 L6320 36 L6339 33 L6358 29 L6377 25 L6397 21 L6416 17 L6435 13 L6454 8 L6475 4 L6500 0" />
</svg>
