<svg xmlns="http://www.w3.org/2000/svg" version="1.1" viewBox="0 0 6500 1000">
	<path fill="none" stroke="gold" stroke-width="125" stroke-linecap="round" stroke-linejoin="round" d="M0 1016  L-718390 1016 L-715786 1016 L-714118 1015 L-695789 1015 L-695618 1015 L-688461 1015 L-688427 1015 L-674996 1015 L-672075 1015 L-658734 1015 L-654565 1015 L-653405 1015 L-652786 1014 L-650774 1014 L-647002 1014 L-646402 1014 L-646073 1014 L-645860 1014 L-645318 1014 L-644080 1013 L-642901 1013 L-640037 1012 L-639515 1012 L-634659 1012 L-631722 1012 L-631679 1011 L-631371 1011 L-631119 1011 L-628524 1011 L-624269 1011 L-624251 1011 L-623014 1011 L-621136 1011 L-619183 1011 L-618235 1011 L-617964 1011 L-617654 1011 L-617556 1011 L-616726 1011 L-614695 1011 L-614404 1010 L-612258 1010 L-612103 1010 L-608446 1009 L-608195 1010 L-608097 1009 L-607580 1010 L-605428 1010 L-604500 1010 L-602974 1010 L-601734 1010 L-600188 1010 L-597226 1010 L-596104 1010 L-595795 1010 L-594584 1010 L-591577 1011 L-591557 1011 L-591210 1011 L-590997 1010 L-590870 1010 L-590629 1010 L-590591 1009 L-590571 1009 L-590552 1009 L-590493 1009 L-590435 1009 L-590416 1009 L-589973 1009 L-588734 1009 L-587188 1009 L-583801 1009 L-578074 1008 L-577873 1008 L-576237 1008 L-574515 1008 L-573083 1008 L-572851 1008 L-572135 1008 L-566003 1008 L-565635 1008 L-565481 1008 L-564903 1008 L-564610 1008 L-563643 1008 L-563333 1007 L-562734 1007 L-561128 1007 L-560393 1007 L-560083 1007 L-559315 1007 L-557278 1007 L-556853 1007 L-556041 1007 L-548612 1007 L-548089 1007 L-547915 1007 L-547180 1007 L-545613 1007 L-545207 1007 L-542982 1006 L-542034 1006 L-541609 1006 L-541279 1006 L-540235 1006 L-538127 1006 L-537875 1006 L-537256 1006 L-536443 1006 L-534335 1006 L-534287 1006 L-532359 1006 L-532033 1005 L-531898 1005 L-531395 1005 L-529982 1005 L-529479 1005 L-528957 1005 L-525398 1005 L-524663 1004 L-522238 1004 L-520948 1004 L-520541 1004 L-517389 1004 L-517234 1004 L-517214 1004 L-516847 1004 L-515589 1004 L-514874 1004 L-513984 1004 L-513577 1004 L-512649 1004 L-511540 1004 L-511237 1004 L-504988 1005 L-504040 1005 L-502414 1005 L-501913 1005 L-498237 1005 L-497404 1005 L-493451 1005 L-492040 1005 L-489550 1005 L-488874 1005 L-488835 1005 L-487964 1005 L-484753 1005 L-481890 1004 L-480922 1004 L-479800 1004 L-479781 1004 L-478156 1004 L-477692 1004 L-477600 1004 L-471231 1004 L-470283 1004 L-467826 1004 L-466953 1004 L-465717 1004 L-463716 1004 L-463318 1003 L-461882 1003 L-459856 1003 L-459643 1003 L-458463 1003 L-456954 1003 L-456934 1003 L-454922 1003 L-454052 1003 L-453181 1003 L-452597 1003 L-452059 1003 L-451402 1002 L-450164 1002 L-449603 1002 L-448422 1002 L-447184 1002 L-447146 1002 L-446759 1002 L-446217 1002 L-445443 1002 L-444321 1002 L-442232 1002 L-441899 1002 L-441613 1001 L-440684 1001 L-440201 1001 L-439466 1001 L-435834 1001 L-434707 1001 L-434552 1001 L-433526 1001 L-429811 1001 L-428594 1001 L-426776 1001 L-423990 1001 L-423428 1001 L-419541 1001 L-417064 1001 L-415729 1001 L-415226 1000 L-414743 1000 L-412053 1000 L-408282 1000 L-405824 1000 L-404645 1000 L-404005 1000 L-401646 1000 L-401568 1000 L-400521 1000 L-400427 1000 L-399924 1000 L-399479 1000 L-399421 1000 L-399208 1000 L-396248 1000 L-393541 1000 L-393386 1000 L-389865 1000 L-389342 1000 L-388375 1000 L-388026 999 L-386982 999 L-386053 999 L-385628 999 L-384119 999 L-383152 999 L-383133 999 L-381237 995 L-381121 991 L-381073 987 L-381049 983 L-378044 983 L-376014 983 L-374253 983 L-373886 983 L-373440 983 L-373073 983 L-372659 982 L-370674 982 L-370461 982 L-370306 982 L-368701 982 L-367579 982 L-366631 982 L-365374 982 L-363729 982 L-362549 982 L-355960 982 L-355913 982 L-355508 982 L-354463 982 L-354327 982 L-352645 982 L-352625 982 L-351288 981 L-350052 981 L-349897 981 L-349524 981 L-349317 981 L-349008 981 L-348234 981 L-345912 981 L-345255 981 L-343127 981 L-341404 981 L-341211 981 L-338658 981 L-338381 980 L-338193 980 L-337361 980 L-336588 980 L-335890 980 L-330890 980 L-330514 980 L-326261 980 L-325774 985 L-325754 985 L-325675 985 L-325600 985 L-325580 980 L-324768 980 L-324014 980 L-322795 980 L-321363 980 L-321266 980 L-321092 980 L-320738 979 L-319428 979 L-317571 979 L-315869 979 L-315366 979 L-315101 979 L-314707 979 L-314573 979 L-313663 979 L-313287 979 L-312359 979 L-312019 979 L-311980 979 L-311942 979 L-310027 979 L-309853 979 L-308324 979 L-307996 979 L-307880 979 L-307473 978 L-307125 978 L-305481 978 L-304930 978 L-304687 978 L-304146 978 L-303314 978 L-302773 978 L-301238 978 L-301146 978 L-301109 978 L-300973 978 L-300586 978 L-299561 978 L-297684 978 L-297588 977 L-296988 979 L-296621 981 L-296136 983 L-296098 985 L-295324 985 L-295267 985 L-295092 985 L-294899 985 L-293293 985 L-293273 985 L-293118 985 L-293003 985 L-291823 985 L-291669 985 L-291002 985 L-288553 989 L-286039 994 L-283369 998 L-275670 1003 L-270002 1003 L-267787 1003 L-267764 1003 L-266790 1004 L-266770 1004 L-265906 1004 L-263166 1004 L-257368 1003 L-257214 1002 L-254428 1002 L-240820 1002 L-240074 1002 L-235663 1002 L-219317 1002 L-219085 1002 L-218548 1002 L-210089 1002 L-201383 1002 L-201171 1002 L-199198 1002 L-196412 1002 L-191925 1002 L-191770 1002 L-191601 1002 L-191460 1002 L-191170 1001 L-191131 1001 L-190860 1001 L-190688 1001 L-190278 1001 L-189158 1001 L-187977 1001 L-186701 1001 L-183837 1001 L-180917 1001 L-178924 1001 L-177377 1001 L-174339 1001 L-165014 1001 L-164490 1001 L-158767 1001 L-157260 1001 L-156445 1001 L-154761 1001 L-154040 1000 L-153872 1000 L-152827 1000 L-150759 1000 L-149397 1000 L-144954 1000 L-144857 1000 L-144818 1000 L-144799 1000 L-143967 1000 L-143889 1000 L-141317 1000 L-138067 1000 L-137913 1000 L-136964 1000 L-135223 1000 L-134508 1000 L-130967 1000 L-124390 1000 L-122972 1001 L-122952 1001 L-122001 1001 L-118527 1001 L-117774 1001 L-117212 1001 L-116430 1001 L-108926 1000 L-107327 1000 L-105753 1000 L-102568 1000 L-98235 1000 L-89665 1000 L-80919 1000 L-77845 1000 L-74579 1000 L-74032 1000 L-66895 1000 L-61228 1000 L-47163 1000 L-41152 1000 L-36445 1000 L-32442 1000 L-27335 1000 L-17621 1000 L-2050 1000 L1032 999 L1334 975 L1353 945 L1372 911 L1392 872 L1412 855 L1431 840 L1450 827 L1477 813 L1498 800 L1526 786 L1561 771 L1575 759 L1588 747 L1606 738 L1625 732 L1645 725 L1663 718 L1683 711 L1703 704 L1724 697 L1741 689 L1759 683 L1780 676 L1800 669 L1818 662 L1837 654 L1857 647 L1877 639 L1895 632 L1914 625 L1935 618 L1960 612 L1975 605 L1992 599 L2011 593 L2031 587 L2050 580 L2069 573 L2089 567 L2109 560 L2127 554 L2146 549 L2167 544 L2187 539 L2204 534 L2223 530 L2243 526 L2262 522 L2282 518 L2301 515 L2321 512 L2340 509 L2360 506 L2378 503 L2406 499 L2426 495 L2454 491 L2488 487 L2502 483 L2516 479 L2534 476 L2553 474 L2573 471 L2592 468 L2611 464 L2631 461 L2652 458 L2669 456 L2688 453 L2708 450 L2728 446 L2746 442 L2765 438 L2785 434 L2805 430 L2824 425 L2842 421 L2864 416 L2888 411 L2903 405 L2920 400 L2940 395 L2959 391 L2979 385 L2997 380 L3017 375 L3038 370 L3056 365 L3075 360 L3095 355 L3115 350 L3133 346 L3152 342 L3172 338 L3191 335 L3211 331 L3229 327 L3249 324 L3269 320 L3288 316 L3307 313 L3336 309 L3355 306 L3383 302 L3420 298 L3435 294 L3448 291 L3465 287 L3482 285 L3502 283 L3520 280 L3539 278 L3559 276 L3580 274 L3597 272 L3616 270 L3637 267 L3656 265 L3675 262 L3694 259 L3714 256 L3733 253 L3752 249 L3771 246 L3792 243 L3816 240 L3831 237 L3848 233 L3868 230 L3887 227 L3907 224 L3926 220 L3946 217 L3966 213 L3984 210 L4003 207 L4023 204 L4044 201 L4062 198 L4081 196 L4101 193 L4119 190 L4139 188 L4158 185 L4178 182 L4197 180 L4217 177 L4235 175 L4264 172 L4284 170 L4312 167 L4348 163 L4362 159 L4375 155 L4393 152 L4411 150 L4431 148 L4449 146 L4469 143 L4488 140 L4510 137 L4528 134 L4545 131 L4566 127 L4586 123 L4604 120 L4623 115 L4643 111 L4663 107 L4681 104 L4700 101 L4721 98 L4746 96 L4760 94 L4778 93 L4797 90 L4817 88 L4836 86 L4855 84 L4875 82 L4896 80 L4913 79 L4932 77 L4952 74 L4973 72 L4990 69 L5009 67 L5029 65 L5048 64 L5068 63 L5087 62 L5106 60 L5126 59 L5145 57 L5164 56 L5191 55 L5212 53 L5240 52 L5275 50 L5289 48 L5302 47 L5321 46 L5339 45 L5359 44 L5377 43 L5397 42 L5417 41 L5438 40 L5455 39 L5473 37 L5494 36 L5514 35 L5532 34 L5551 33 L5571 32 L5591 30 L5609 29 L5628 28 L5650 27 L5674 26 L5689 25 L5706 25 L5726 24 L5745 23 L5764 21 L5783 20 L5803 19 L5824 18 L5842 17 L5860 16 L5881 15 L5901 14 L5919 13 L5938 12 L5958 11 L5977 10 L5996 9 L6015 9 L6035 8 L6054 7 L6074 7 L6092 8 L6121 9 L6141 10 L6169 11 L6206 10 L6221 9 L6234 8 L6252 8 L6268 7 L6288 7 L6306 6 L6326 5 L6345 5 L6367 4 L6383 4 L6402 3 L6423 3 L6443 2 L6461 1 L6480 1 L6500 0" />
</svg>
