<svg xmlns="http://www.w3.org/2000/svg" version="1.1" viewBox="0 0 6500 1000">
	<path fill="none" stroke="gold" stroke-width="125" stroke-linecap="round" stroke-linejoin="round" d="M0 3263  L-728894 3263 L-726290 3263 L-724622 3263 L-706292 3263 L-706122 3263 L-698964 3262 L-698931 3262 L-685500 3262 L-682578 3262 L-669238 3262 L-665069 3261 L-663908 3261 L-663289 3260 L-661277 3259 L-657506 3259 L-656906 3259 L-656577 3259 L-656364 3258 L-655822 3258 L-654584 3257 L-653405 3256 L-650541 3255 L-650019 3254 L-645163 3253 L-642226 3253 L-642183 3253 L-641875 3252 L-641623 3252 L-639028 3252 L-634772 3252 L-634754 3252 L-633518 3252 L-631640 3252 L-629687 3252 L-628739 3251 L-628468 3251 L-628158 3251 L-628060 3251 L-627230 3251 L-625199 3251 L-624908 3250 L-622762 3249 L-622607 3248 L-618950 3247 L-618699 3248 L-618601 3248 L-618083 3248 L-615932 3249 L-615003 3249 L-613477 3250 L-612238 3250 L-610691 3250 L-607730 3250 L-606608 3249 L-606299 3249 L-605087 3249 L-602081 3251 L-602061 3250 L-601714 3250 L-601501 3250 L-601374 3248 L-601133 3248 L-601095 3248 L-601075 3247 L-601056 3247 L-600997 3247 L-600938 3247 L-600920 3246 L-600477 3246 L-599238 3246 L-597692 3245 L-594304 3245 L-588578 3245 L-588377 3245 L-586741 3245 L-585019 3245 L-583587 3244 L-583354 3244 L-582639 3244 L-576507 3244 L-576139 3244 L-575985 3243 L-575406 3243 L-575114 3243 L-574146 3243 L-573837 3242 L-573238 3242 L-571632 3242 L-570896 3242 L-570587 3242 L-569818 3242 L-567782 3242 L-567357 3242 L-566544 3241 L-559116 3241 L-558593 3241 L-558419 3241 L-557684 3240 L-556117 3240 L-555711 3240 L-553486 3240 L-552538 3239 L-552113 3239 L-551783 3239 L-550739 3239 L-548631 3239 L-548379 3239 L-547760 3238 L-546947 3238 L-544839 3238 L-544791 3238 L-542862 3237 L-542537 3237 L-542402 3237 L-541898 3237 L-540486 3236 L-539983 3236 L-539461 3235 L-535901 3235 L-535166 3234 L-532741 3234 L-531452 3234 L-531045 3234 L-527893 3234 L-527738 3234 L-527718 3234 L-527351 3234 L-526093 3234 L-525378 3234 L-524488 3234 L-524081 3234 L-523152 3234 L-522044 3234 L-521740 3235 L-515492 3235 L-514544 3235 L-512918 3236 L-512416 3236 L-508741 3236 L-507908 3236 L-503955 3236 L-502543 3236 L-500054 3235 L-499378 3235 L-499339 3235 L-498468 3235 L-495257 3235 L-492394 3235 L-491426 3235 L-490304 3234 L-490285 3234 L-488660 3234 L-488196 3233 L-488104 3233 L-481735 3233 L-480786 3233 L-478329 3233 L-477457 3232 L-476221 3232 L-474220 3232 L-473822 3232 L-472386 3232 L-470360 3231 L-470147 3231 L-468966 3231 L-467458 3231 L-467438 3231 L-465426 3231 L-464556 3230 L-463685 3230 L-463100 3230 L-462563 3230 L-461906 3229 L-460667 3229 L-460107 3229 L-458926 3229 L-457688 3229 L-457650 3228 L-457263 3228 L-456721 3228 L-455947 3228 L-454825 3228 L-452736 3228 L-452402 3227 L-452117 3227 L-451188 3227 L-450705 3227 L-449970 3226 L-446338 3226 L-445211 3226 L-445056 3226 L-444030 3226 L-440315 3226 L-439098 3225 L-437279 3225 L-434494 3225 L-433932 3225 L-430044 3225 L-427568 3224 L-426233 3224 L-425729 3224 L-425246 3224 L-422557 3224 L-418785 3224 L-416328 3224 L-415148 3224 L-414509 3224 L-412150 3224 L-412072 3224 L-411025 3223 L-410931 3223 L-410428 3223 L-409983 3223 L-409925 3223 L-409712 3223 L-406752 3223 L-404044 3223 L-403890 3223 L-400369 3222 L-399846 3222 L-398879 3222 L-398529 3222 L-397486 3221 L-396557 3221 L-396132 3221 L-394623 3221 L-393656 3221 L-393637 3221 L-391741 3210 L-391625 3200 L-391577 3190 L-391552 3179 L-388548 3179 L-386517 3179 L-384757 3179 L-384390 3178 L-383944 3178 L-383577 3178 L-383163 3178 L-381178 3178 L-380965 3178 L-380810 3177 L-379205 3177 L-378083 3177 L-377135 3177 L-375877 3177 L-374233 3177 L-373053 3176 L-366464 3176 L-366417 3176 L-366011 3176 L-364966 3176 L-364831 3176 L-363148 3175 L-363128 3175 L-361792 3175 L-360555 3175 L-360401 3175 L-360027 3174 L-359821 3174 L-359512 3174 L-358738 3174 L-356416 3174 L-355759 3174 L-353631 3174 L-351908 3173 L-351715 3173 L-349161 3173 L-348885 3173 L-348697 3172 L-347864 3172 L-347092 3172 L-346394 3172 L-341393 3172 L-341017 3172 L-336765 3172 L-336277 3185 L-336258 3185 L-336179 3185 L-336104 3185 L-336084 3171 L-335271 3171 L-334518 3170 L-333298 3170 L-331867 3170 L-331770 3170 L-331596 3170 L-331241 3170 L-329932 3170 L-328075 3170 L-326373 3169 L-325870 3169 L-325604 3169 L-325211 3169 L-325077 3169 L-324167 3169 L-323791 3168 L-322862 3168 L-322523 3168 L-322484 3168 L-322446 3168 L-320530 3168 L-320357 3168 L-318828 3168 L-318500 3168 L-318384 3168 L-317977 3167 L-317628 3167 L-315985 3167 L-315434 3167 L-315191 3167 L-314649 3167 L-313818 3166 L-313276 3166 L-311742 3166 L-311650 3166 L-311613 3166 L-311477 3165 L-311090 3165 L-310065 3165 L-308188 3165 L-308092 3165 L-307492 3169 L-307125 3174 L-306640 3179 L-306602 3184 L-305828 3184 L-305771 3184 L-305596 3184 L-305403 3184 L-303797 3183 L-303777 3183 L-303622 3183 L-303507 3184 L-302327 3184 L-302172 3184 L-301505 3184 L-299057 3196 L-296542 3208 L-293873 3219 L-286173 3230 L-280506 3230 L-278291 3230 L-278268 3230 L-277294 3233 L-277274 3233 L-276410 3233 L-273670 3233 L-267872 3230 L-267718 3229 L-264932 3229 L-251324 3229 L-250578 3229 L-246167 3228 L-229821 3228 L-229589 3228 L-229052 3228 L-220592 3228 L-211887 3228 L-211674 3228 L-209702 3227 L-206916 3227 L-202428 3228 L-202273 3227 L-202104 3227 L-201964 3227 L-201673 3227 L-201635 3227 L-201364 3227 L-201192 3227 L-200782 3226 L-199661 3226 L-198481 3226 L-197204 3226 L-194340 3226 L-191420 3226 L-189428 3226 L-187881 3225 L-184843 3225 L-175518 3225 L-174994 3225 L-169270 3225 L-167763 3225 L-166949 3225 L-165265 3224 L-164544 3224 L-164376 3224 L-163331 3224 L-161263 3224 L-159901 3224 L-155458 3224 L-155361 3223 L-155322 3223 L-155303 3223 L-154471 3223 L-154393 3223 L-151820 3223 L-148571 3222 L-148416 3222 L-147468 3222 L-145727 3222 L-145012 3223 L-141471 3223 L-134893 3224 L-133476 3225 L-133455 3225 L-132505 3225 L-129031 3225 L-128277 3225 L-127716 3225 L-126934 3224 L-119429 3224 L-117831 3224 L-116257 3224 L-113072 3224 L-108739 3224 L-100169 3224 L-91423 3224 L-88349 3223 L-85083 3223 L-84536 3223 L-77399 3223 L-71731 3223 L-57667 3223 L-51656 3223 L-46949 3223 L-42946 3223 L-37839 3222 L-28125 3222 L-12554 3222 L-9471 3222 L-9169 3158 L-9149 3081 L-9131 2992 L-9111 2893 L-9091 2848 L-9072 2810 L-9053 2775 L-9026 2740 L-9005 2707 L-8977 2671 L-8942 2632 L-8928 2599 L-8915 2571 L-8896 2547 L-8878 2530 L-8858 2512 L-8840 2494 L-8820 2476 L-8800 2458 L-8779 2439 L-8762 2421 L-8744 2403 L-8723 2386 L-8703 2369 L-8685 2350 L-8666 2330 L-8646 2310 L-8626 2291 L-8608 2272 L-8589 2254 L-8568 2237 L-8543 2220 L-8528 2204 L-8511 2187 L-8491 2171 L-8472 2155 L-8453 2138 L-8434 2120 L-8414 2103 L-8393 2087 L-8376 2072 L-8357 2058 L-8336 2044 L-8316 2031 L-8298 2020 L-8279 2009 L-8259 1998 L-8241 1988 L-8221 1978 L-8202 1969 L-8182 1962 L-8162 1954 L-8143 1946 L-8125 1939 L-8097 1930 L-8076 1920 L-8049 1909 L-8015 1897 L-8000 1887 L-7987 1878 L-7969 1870 L-7950 1863 L-7930 1856 L-7911 1848 L-7892 1839 L-7872 1831 L-7851 1824 L-7834 1817 L-7815 1809 L-7795 1801 L-7775 1793 L-7756 1783 L-7738 1772 L-7718 1761 L-7698 1750 L-7679 1739 L-7660 1727 L-7639 1714 L-7615 1701 L-7600 1687 L-7583 1674 L-7563 1661 L-7544 1649 L-7524 1635 L-7506 1621 L-7485 1608 L-7465 1594 L-7447 1582 L-7428 1569 L-7408 1557 L-7388 1545 L-7370 1534 L-7351 1524 L-7331 1513 L-7312 1504 L-7292 1495 L-7273 1485 L-7254 1476 L-7234 1466 L-7215 1457 L-7196 1448 L-7167 1439 L-7147 1430 L-7120 1421 L-7083 1411 L-7067 1401 L-7055 1391 L-7038 1382 L-7021 1376 L-7001 1370 L-6983 1364 L-6963 1359 L-6943 1354 L-6923 1349 L-6905 1343 L-6887 1336 L-6866 1330 L-6846 1323 L-6828 1316 L-6809 1309 L-6789 1301 L-6769 1292 L-6751 1284 L-6732 1275 L-6711 1268 L-6686 1259 L-6672 1251 L-6654 1243 L-6634 1234 L-6616 1226 L-6596 1217 L-6577 1208 L-6557 1199 L-6537 1191 L-6518 1182 L-6500 1174 L-6479 1167 L-6459 1159 L-6441 1153 L-6422 1145 L-6402 1138 L-6384 1131 L-6364 1124 L-6345 1118 L-6325 1111 L-6306 1105 L-6286 1098 L-6267 1091 L-6239 1085 L-6219 1078 L-6191 1070 L-6155 1060 L-6141 1050 L-6128 1041 L-6110 1033 L-6092 1028 L-6072 1023 L-6054 1016 L-6034 1009 L-6014 1002 L-5993 994 L-5975 986 L-5958 978 L-5937 968 L-5917 959 L-5899 949 L-5880 938 L-5860 927 L-5840 917 L-5822 908 L-5803 900 L-5782 894 L-5757 889 L-5742 884 L-5725 879 L-5706 873 L-5686 868 L-5667 862 L-5648 857 L-5628 852 L-5607 847 L-5590 843 L-5571 838 L-5550 832 L-5530 825 L-5513 818 L-5494 813 L-5473 809 L-5455 806 L-5435 803 L-5416 799 L-5396 796 L-5377 792 L-5358 788 L-5339 784 L-5311 781 L-5290 777 L-5263 774 L-5228 769 L-5214 765 L-5201 762 L-5182 758 L-5164 756 L-5144 753 L-5125 750 L-5106 747 L-5086 745 L-5065 742 L-5048 740 L-5029 737 L-5009 733 L-4989 730 L-4971 727 L-4952 724 L-4932 721 L-4912 719 L-4893 716 L-4875 713 L-4853 711 L-4828 708 L-4814 706 L-4797 703 L-4777 701 L-4758 698 L-4739 695 L-4720 692 L-4700 689 L-4679 686 L-4661 683 L-4642 681 L-4622 678 L-4601 676 L-4584 673 L-4565 671 L-4545 668 L-4526 666 L-4506 664 L-4488 662 L-4468 660 L-4448 658 L-4429 657 L-4410 660 L-4382 663 L-4362 665 L-4334 668 L-4297 665 L-4281 664 L-4269 662 L-4251 660 L-4235 659 L-4215 657 L-4197 655 L-4177 654 L-4157 652 L-4136 651 L-4119 650 L-4101 648 L-4080 647 L-4060 645 L-4042 643 L-4023 642 L-4003 640 L-3983 638 L-3965 637 L-3946 635 L-3925 634 L-3900 633 L-3885 631 L-3868 629 L-3849 628 L-3829 626 L-3810 625 L-3791 623 L-3771 621 L-3750 618 L-3733 616 L-3714 614 L-3693 612 L-3673 610 L-3655 608 L-3636 606 L-3616 604 L-3598 602 L-3578 600 L-3559 598 L-3539 596 L-3520 594 L-3500 592 L-3482 591 L-3454 589 L-3433 587 L-3406 585 L-3371 583 L-3357 581 L-3344 579 L-3325 577 L-3306 576 L-3286 574 L-3268 573 L-3249 571 L-3229 569 L-3208 567 L-3191 566 L-3172 564 L-3152 562 L-3132 560 L-3113 557 L-3095 555 L-3075 552 L-3054 549 L-3036 547 L-3018 545 L-2996 542 L-2971 540 L-2956 537 L-2939 535 L-2920 532 L-2900 530 L-2881 527 L-2862 525 L-2842 522 L-2822 520 L-2804 518 L-2785 515 L-2765 513 L-2744 511 L-2727 510 L-2708 508 L-2688 506 L-2669 505 L-2649 503 L-2631 502 L-2611 501 L-2591 499 L-2572 498 L-2553 497 L-2525 496 L-2505 494 L-2477 493 L-2442 490 L-2428 488 L-2415 485 L-2396 483 L-2378 481 L-2358 480 L-2340 478 L-2320 477 L-2300 475 L-2279 474 L-2262 472 L-2244 470 L-2223 468 L-2203 466 L-2185 464 L-2166 462 L-2146 460 L-2126 458 L-2108 456 L-2089 455 L-2067 453 L-2043 452 L-2028 450 L-2011 448 L-1991 447 L-1972 445 L-1953 443 L-1934 441 L-1914 438 L-1893 435 L-1876 433 L-1856 430 L-1836 428 L-1815 426 L-1798 425 L-1779 424 L-1759 422 L-1740 421 L-1721 420 L-1702 419 L-1682 417 L-1662 416 L-1643 415 L-1625 414 L-1597 413 L-1576 412 L-1549 410 L-1514 409 L-1500 408 L-1487 407 L-1468 406 L-1450 405 L-1430 404 L-1411 403 L-1392 402 L-1372 402 L-1351 401 L-1334 400 L-1315 399 L-1295 398 L-1275 396 L-1256 395 L-1238 394 L-1218 394 L-1198 393 L-1179 392 L-1160 392 L-1139 391 L-1115 390 L-1100 389 L-1083 388 L-1063 387 L-1044 386 L-1024 385 L-1006 384 L-986 383 L-965 381 L-947 379 L-928 377 L-908 375 L-887 374 L-870 372 L-851 371 L-831 370 L-812 368 L-792 367 L-773 366 L-754 365 L-734 363 L-715 362 L-696 362 L-667 361 L-620 360 L-583 359 L-568 358 L-555 357 L-538 356 L-521 355 L-501 355 L-483 354 L-463 353 L-443 353 L-423 352 L-405 351 L-387 351 L-366 350 L-347 349 L-328 348 L-309 348 L-289 347 L-269 346 L-251 345 L-232 344 L-211 342 L-186 341 L-171 339 L-154 338 L-135 336 L-115 335 L-96 333 L-77 332 L-57 331 L-36 329 L-18 328 L0 327 L20 325 L40 324 L58 323 L77 322 L97 321 L116 321 L135 320 L154 319 L174 318 L193 316 L213 315 L232 314 L260 313 L280 312 L308 311 L345 309 L359 306 L372 304 L389 303 L407 302 L427 300 L445 300 L465 299 L485 298 L506 297 L523 296 L541 295 L562 294 L582 292 L600 290 L619 288 L639 286 L660 284 L677 283 L696 281 L717 280 L742 278 L757 277 L775 275 L793 274 L813 273 L832 272 L851 270 L871 268 L892 267 L909 265 L928 264 L949 263 L970 262 L986 261 L1005 259 L1025 258 L1044 257 L1064 256 L1083 255 L1103 254 L1123 253 L1141 252 L1160 251 L1188 997 L1208 996 L1236 995 L1272 993 L1286 245 L1300 243 L1317 242 L1335 241 L1355 240 L1374 240 L1393 239 L1413 238 L1434 236 L1451 235 L1470 233 L1490 231 L1511 230 L1529 228 L1548 226 L1567 224 L1588 222 L1606 221 L1624 220 L1646 219 L1671 217 L1686 215 L1715 213 L1755 211 L1778 209 L1808 206 L1824 204 L1838 202 L1857 201 L1877 200 L1898 199 L1915 198 L1934 196 L1954 195 L1973 195 L1993 194 L2011 194 L2031 193 L2051 192 L2070 191 L2089 190 L2116 189 L2137 188 L2165 187 L2200 186 L2214 185 L2245 183 L2264 182 L2284 182 L2302 181 L2322 180 L2342 180 L2363 179 L2380 178 L2398 176 L2419 174 L2439 170 L2457 167 L2476 163 L2496 160 L2516 158 L2534 156 L2553 155 L2575 153 L2599 152 L2614 151 L2632 149 L2650 148 L2670 146 L2689 145 L2709 144 L2728 142 L2749 141 L2766 139 L2786 138 L2806 137 L2827 135 L2844 135 L2863 134 L2883 133 L2902 132 L2921 131 L2940 130 L2960 129 L2980 128 L2998 127 L3017 126 L3045 125 L3066 124 L3136 122 L3164 120 L3178 117 L3192 115 L3212 114 L3231 113 L3250 112 L3270 110 L3291 109 L3308 108 L3327 107 L3347 107 L3367 106 L3386 105 L3405 104 L3424 102 L3445 101 L3463 99 L3482 98 L3503 97 L3528 96 L3543 95 L3560 94 L3579 93 L3599 91 L3618 90 L3637 89 L3657 88 L3678 87 L3695 86 L3714 85 L3734 84 L3756 83 L3772 82 L3830 81 L3850 80 L3868 79 L3888 78 L3908 77 L3927 77 L3946 76 L3974 76 L3994 75 L4022 74 L4059 74 L4073 73 L4086 72 L4103 71 L4121 71 L4141 70 L4159 70 L4179 70 L4199 69 L4220 69 L4237 68 L4255 68 L4276 68 L4296 67 L4314 66 L4333 65 L4353 65 L4374 64 L4391 63 L4410 62 L4432 62 L4457 61 L4471 60 L4488 60 L4508 59 L4528 58 L4546 58 L4565 57 L4585 55 L4606 54 L4623 53 L4643 53 L4663 52 L4684 52 L4701 51 L4720 51 L4740 50 L4759 50 L4778 49 L4797 49 L4817 49 L4837 48 L4856 48 L4874 47 L4902 47 L4923 46 L4951 46 L4986 45 L4999 45 L5013 44 L5031 44 L5049 43 L5069 42 L5088 42 L5127 41 L5148 41 L5165 41 L5184 40 L5204 39 L5224 38 L5243 37 L5261 37 L5281 36 L5301 35 L5320 35 L5339 34 L5360 34 L5384 33 L5399 33 L5416 32 L5436 32 L5455 31 L5475 30 L5493 30 L5513 29 L5534 28 L5552 28 L5571 27 L5591 26 L5612 26 L5629 25 L5648 25 L5668 24 L5687 24 L5707 23 L5725 23 L5745 23 L5765 22 L5784 22 L5803 21 L5832 21 L5879 20 L5917 19 L5932 19 L5945 18 L5962 18 L5978 18 L5998 17 L6016 17 L6036 17 L6056 16 L6077 16 L6094 16 L6113 16 L6133 16 L6152 15 L6171 15 L6190 15 L6210 14 L6229 14 L6248 14 L6267 13 L6288 12 L6313 12 L6327 11 L6345 10 L6364 9 L6384 8 L6403 7 L6422 6 L6442 5 L6463 3 L6481 2 L6500 1" />
</svg>
