<svg xmlns="http://www.w3.org/2000/svg" version="1.1" viewBox="0 0 6500 1000">
	<path fill="none" stroke="gold" stroke-width="125" stroke-linecap="round" stroke-linejoin="round" d="M0 68192  L-341428 68192 L-338824 68080 L-337156 67968 L-318827 67745 L-318657 67521 L-311499 67298 L-311466 67298 L-298035 67186 L-295113 67298 L-281772 66963 L-277603 66516 L-276443 65957 L-275824 65398 L-273812 65063 L-270040 64840 L-269440 64616 L-269111 64393 L-268898 64169 L-268357 63946 L-267119 63052 L-265940 62158 L-263075 61264 L-262553 60370 L-257698 60147 L-254760 59924 L-254717 59700 L-254409 59477 L-254157 59253 L-251562 59030 L-247307 59030 L-247289 59030 L-246052 59030 L-244175 59030 L-242221 58806 L-241273 58583 L-241002 58359 L-240693 58248 L-240594 58136 L-239764 58136 L-237733 58248 L-237443 57242 L-235296 56795 L-235141 56125 L-231485 55454 L-231234 55789 L-231135 55678 L-230618 56013 L-228467 56572 L-227538 57130 L-226012 57689 L-224772 57689 L-223226 57577 L-220264 57354 L-219142 57130 L-218833 56907 L-217622 56795 L-214615 58024 L-214596 57912 L-214248 57801 L-214035 57689 L-213909 56125 L-213667 55901 L-213629 55678 L-213610 55454 L-213590 55231 L-213531 55007 L-213473 54784 L-213455 54560 L-213012 54337 L-211772 54113 L-210227 53890 L-206839 53667 L-201113 53555 L-200911 53443 L-199275 53331 L-197553 53220 L-196121 53108 L-195889 52996 L-195174 52884 L-189041 52773 L-188674 52549 L-188519 52326 L-187941 52102 L-187648 51879 L-186681 51655 L-186371 51432 L-185772 51208 L-184166 51208 L-183431 51208 L-183121 51320 L-182353 51320 L-180317 51097 L-179891 50873 L-179079 50762 L-171650 50538 L-171127 50315 L-170954 50091 L-170219 49868 L-168651 49644 L-168245 49532 L-166020 49309 L-165072 49197 L-164647 49086 L-164317 49086 L-163273 48974 L-161165 48750 L-160913 48527 L-160294 48303 L-159481 48192 L-157374 47968 L-157325 47745 L-155397 47521 L-155071 47298 L-154936 47074 L-154433 46963 L-153020 46739 L-152517 46292 L-151996 45957 L-148436 45510 L-147701 45063 L-145276 45063 L-143987 44840 L-143580 44728 L-140427 44728 L-140272 44728 L-140252 44840 L-139885 44840 L-138627 44951 L-137912 45063 L-137022 45063 L-136615 45063 L-135687 45063 L-134578 44951 L-134275 45398 L-128026 45622 L-127079 45845 L-125453 46069 L-124951 46181 L-121275 46292 L-120443 46404 L-116490 46516 L-115078 46181 L-112589 45957 L-111912 45734 L-111873 45622 L-111003 45622 L-107791 45510 L-104928 45398 L-103960 45287 L-102839 45063 L-102820 44840 L-101195 44616 L-100731 44281 L-100639 44169 L-94269 44058 L-93321 43946 L-90864 43834 L-89992 43611 L-88756 43499 L-86754 43387 L-86357 43164 L-84920 42940 L-82894 42829 L-82681 42605 L-81501 42493 L-79993 42382 L-79972 42270 L-77960 42158 L-77091 41935 L-76220 41823 L-75635 41600 L-75098 41376 L-74440 41153 L-73202 40929 L-72641 40817 L-71460 40706 L-70223 40594 L-70184 40482 L-69797 40370 L-69255 40147 L-68482 40035 L-67360 39924 L-65270 39700 L-64937 39477 L-64651 39253 L-63723 39141 L-63239 38918 L-62504 38806 L-58873 38694 L-57745 38583 L-57590 38471 L-56564 38248 L-52850 38136 L-51632 37912 L-49814 37689 L-47028 37577 L-46467 37354 L-42579 37354 L-40102 37242 L-38767 37242 L-38264 37130 L-37781 37018 L-35092 37018 L-31320 37018 L-28863 37018 L-27683 37018 L-27044 36907 L-24684 36683 L-24607 36572 L-23559 36460 L-23466 36236 L-22963 36236 L-22517 36236 L-22460 36236 L-22246 36236 L-19286 36013 L-16579 35901 L-16424 35789 L-12903 35678 L-12380 35454 L-11413 35231 L-11064 35119 L-10020 34896 L-9092 34672 L-8666 34560 L-7157 34560 L-6190 34449 L-6171 34337 L-4275 26181 L-4159 17801 L-4111 9532 L-4087 1264 L-1083 1153 L947 929 L2708 817 L3075 706 L3521 482 L3887 370 L4301 147 L6286 35 L6500 35" />
</svg>
