<svg xmlns="http://www.w3.org/2000/svg" version="1.1" viewBox="0 0 6500 1000">
	<path fill="none" stroke="gold" stroke-width="125" stroke-linecap="round" stroke-linejoin="round" d="M0 1015  L-718912 1015 L-716308 1015 L-714640 1015 L-696310 1015 L-696140 1015 L-688982 1015 L-688949 1015 L-675518 1015 L-672596 1015 L-659255 1015 L-655086 1014 L-653926 1014 L-653307 1014 L-651295 1014 L-647523 1014 L-646923 1014 L-646595 1013 L-646382 1013 L-645840 1013 L-644602 1013 L-643423 1012 L-640559 1012 L-640036 1012 L-635181 1011 L-632244 1011 L-632201 1011 L-631892 1011 L-631640 1011 L-629046 1011 L-624790 1011 L-624772 1011 L-623535 1011 L-621658 1011 L-619704 1011 L-618756 1011 L-618486 1011 L-618176 1011 L-618078 1010 L-617247 1010 L-615216 1011 L-614926 1010 L-612780 1010 L-612624 1010 L-608968 1009 L-608717 1009 L-608618 1009 L-608101 1009 L-605950 1010 L-605021 1010 L-603495 1010 L-602256 1010 L-600709 1010 L-597747 1010 L-596626 1010 L-596316 1010 L-595105 1010 L-592098 1010 L-592079 1010 L-591731 1010 L-591518 1010 L-591392 1010 L-591151 1009 L-591113 1009 L-591093 1009 L-591074 1009 L-591015 1009 L-590956 1009 L-590938 1009 L-590495 1009 L-589256 1009 L-587710 1008 L-584322 1008 L-578596 1008 L-578394 1008 L-576758 1008 L-575037 1008 L-573604 1008 L-573372 1008 L-572657 1008 L-566525 1008 L-566157 1008 L-566002 1008 L-565424 1008 L-565132 1007 L-564164 1007 L-563855 1007 L-563256 1007 L-561649 1007 L-560914 1007 L-560604 1007 L-559836 1007 L-557800 1007 L-557375 1007 L-556562 1007 L-549134 1007 L-548611 1007 L-548437 1007 L-547702 1007 L-546134 1006 L-545729 1006 L-543504 1006 L-542556 1006 L-542131 1006 L-541800 1006 L-540757 1006 L-538649 1006 L-538396 1006 L-537777 1006 L-536965 1006 L-534857 1006 L-534808 1006 L-532880 1005 L-532554 1005 L-532419 1005 L-531916 1005 L-530504 1005 L-530001 1005 L-529479 1005 L-525919 1004 L-525184 1004 L-522759 1004 L-521470 1004 L-521063 1004 L-517910 1004 L-517756 1004 L-517735 1004 L-517369 1004 L-516111 1004 L-515396 1004 L-514506 1004 L-514099 1004 L-513170 1004 L-512061 1004 L-511758 1004 L-505509 1005 L-504562 1005 L-502936 1005 L-502434 1005 L-498758 1005 L-497926 1005 L-493973 1005 L-492561 1005 L-490072 1005 L-489395 1005 L-489357 1005 L-488486 1005 L-485275 1004 L-482411 1004 L-481444 1004 L-480322 1004 L-480303 1004 L-478678 1004 L-478214 1004 L-478122 1004 L-471753 1004 L-470804 1004 L-468347 1004 L-467475 1004 L-466239 1003 L-464237 1003 L-463840 1003 L-462404 1003 L-460378 1003 L-460164 1003 L-458984 1003 L-457476 1003 L-457456 1003 L-455443 1003 L-454574 1003 L-453703 1003 L-453118 1003 L-452581 1002 L-451923 1002 L-450685 1002 L-450125 1002 L-448943 1002 L-447706 1002 L-447667 1002 L-447280 1002 L-446739 1002 L-445965 1002 L-444843 1002 L-442754 1002 L-442420 1002 L-442134 1001 L-441206 1001 L-440723 1001 L-439987 1001 L-436356 1001 L-435228 1001 L-435074 1001 L-434048 1001 L-430333 1001 L-429116 1001 L-427297 1001 L-424511 1001 L-423950 1001 L-420062 1001 L-417586 1000 L-416251 1000 L-415747 1000 L-415264 1000 L-412575 1000 L-408803 1000 L-406346 1000 L-405166 1000 L-404527 1000 L-402167 1000 L-402090 1000 L-401042 1000 L-400949 1000 L-400446 1000 L-400001 1000 L-399943 1000 L-399729 1000 L-396770 1000 L-394062 1000 L-393907 1000 L-390386 1000 L-389864 1000 L-388896 1000 L-388547 999 L-387504 999 L-386575 999 L-386149 999 L-384640 999 L-383673 999 L-383654 999 L-381758 995 L-381642 991 L-381594 987 L-381570 983 L-378566 983 L-376535 983 L-374774 983 L-374407 983 L-373962 983 L-373595 983 L-373181 983 L-371196 983 L-370983 983 L-370828 983 L-369223 983 L-368101 983 L-367153 983 L-365895 982 L-364251 982 L-363071 982 L-356482 982 L-356435 982 L-356029 982 L-354984 982 L-354849 982 L-353166 982 L-353146 982 L-351809 982 L-350573 982 L-350419 982 L-350045 982 L-349839 981 L-349529 981 L-348756 981 L-346434 981 L-345776 981 L-343648 981 L-341926 981 L-341733 981 L-339179 981 L-338903 981 L-338715 981 L-337882 981 L-337110 981 L-336412 981 L-331411 981 L-331035 980 L-326782 980 L-326295 986 L-326276 986 L-326197 986 L-326122 986 L-326102 980 L-325289 980 L-324535 980 L-323316 980 L-321884 980 L-321788 980 L-321614 980 L-321259 980 L-319950 980 L-318093 980 L-316390 980 L-315887 980 L-315622 979 L-315229 979 L-315095 979 L-314185 979 L-313809 979 L-312880 979 L-312541 979 L-312501 979 L-312464 979 L-310548 979 L-310375 979 L-308846 979 L-308518 979 L-308402 979 L-307994 979 L-307646 979 L-306003 979 L-305452 979 L-305209 979 L-304667 979 L-303836 978 L-303294 978 L-301760 978 L-301667 978 L-301630 978 L-301495 978 L-301107 978 L-300083 978 L-298206 978 L-298110 978 L-297509 980 L-297142 981 L-296658 983 L-296620 985 L-295846 985 L-295788 985 L-295614 985 L-295420 985 L-293815 985 L-293795 985 L-293640 985 L-293524 985 L-292345 985 L-292190 985 L-291523 985 L-289075 990 L-286560 994 L-283890 998 L-276191 1003 L-270523 1003 L-268309 1003 L-268285 1003 L-267312 1004 L-267292 1004 L-266428 1004 L-263688 1004 L-257889 1002 L-257736 1002 L-254950 1002 L-241342 1002 L-240596 1002 L-236185 1002 L-219839 1002 L-219607 1002 L-219070 1002 L-210610 1002 L-201905 1002 L-201692 1002 L-199720 1002 L-196934 1002 L-192446 1002 L-192291 1002 L-192122 1002 L-191982 1002 L-191691 1001 L-191652 1001 L-191382 1001 L-191210 1001 L-190800 1001 L-189679 1001 L-188499 1001 L-187222 1001 L-184358 1001 L-181438 1001 L-179446 1001 L-177898 1001 L-174860 1001 L-165536 1001 L-165012 1001 L-159288 1001 L-157781 1001 L-156966 1001 L-155283 1000 L-154562 1000 L-154393 1000 L-153348 1000 L-151281 1000 L-149919 1000 L-145476 1000 L-145378 1000 L-145340 1000 L-145321 1000 L-144488 1000 L-144411 1000 L-141838 1000 L-138589 1000 L-138434 1000 L-137486 1000 L-135745 1000 L-135029 1000 L-131489 1000 L-124911 1000 L-123494 1001 L-123473 1001 L-122523 1001 L-119048 1001 L-118295 1001 L-117733 1001 L-116951 1000 L-109447 1000 L-107849 1000 L-106275 1000 L-103089 1000 L-98756 1000 L-90187 1000 L-81440 1000 L-78366 1000 L-75100 1000 L-74554 1000 L-67417 1000 L-61749 1000 L-47685 1000 L-41673 1000 L-36967 1000 L-32964 1000 L-27856 1000 L-18142 1000 L-2572 1000 L510 999 L812 975 L832 946 L851 912 L870 875 L890 857 L909 843 L928 830 L956 817 L976 804 L1004 790 L1040 776 L1053 763 L1066 752 L1085 743 L1103 737 L1123 730 L1142 723 L1161 716 L1181 709 L1202 702 L1219 695 L1237 688 L1258 682 L1278 675 L1296 668 L1315 661 L1335 653 L1355 646 L1374 639 L1392 632 L1414 625 L1438 619 L1453 613 L1470 607 L1490 600 L1509 594 L1528 588 L1547 581 L1567 575 L1588 569 L1606 563 L1625 557 L1645 552 L1666 547 L1683 543 L1702 539 L1722 535 L1741 531 L1760 527 L1779 524 L1799 521 L1819 518 L1838 515 L1857 512 L1884 509 L1905 505 L1933 501 L1967 496 L1981 492 L1994 489 L2013 486 L2032 483 L2052 481 L2070 477 L2089 474 L2109 471 L2130 468 L2147 466 L2166 463 L2186 460 L2206 457 L2225 453 L2243 449 L2263 445 L2283 440 L2302 436 L2321 432 L2342 427 L2366 422 L2381 416 L2398 412 L2418 407 L2437 402 L2457 397 L2476 391 L2496 386 L2516 381 L2534 376 L2553 372 L2573 367 L2594 363 L2611 358 L2630 354 L2650 350 L2669 347 L2689 343 L2708 340 L2728 336 L2747 333 L2766 329 L2785 326 L2814 322 L2834 319 L2861 315 L2899 311 L2914 308 L2926 304 L2943 301 L2960 298 L2980 296 L2999 294 L3018 292 L3038 290 L3059 288 L3076 286 L3095 283 L3115 281 L3135 278 L3153 276 L3172 273 L3192 270 L3212 266 L3231 263 L3249 260 L3271 257 L3295 254 L3309 251 L3327 248 L3347 244 L3366 241 L3385 238 L3404 235 L3424 231 L3445 228 L3463 225 L3482 222 L3502 219 L3522 216 L3540 213 L3559 211 L3579 208 L3598 205 L3617 203 L3636 200 L3656 198 L3675 195 L3695 193 L3714 190 L3742 188 L3762 185 L3790 182 L3826 178 L3840 175 L3853 171 L3871 168 L3889 166 L3909 164 L3927 162 L3947 159 L3967 156 L3988 153 L4006 150 L4023 147 L4044 143 L4064 140 L4082 136 L4101 132 L4121 128 L4141 124 L4159 120 L4178 117 L4199 115 L4224 113 L4239 111 L4256 109 L4275 107 L4295 105 L4314 103 L4333 101 L4353 99 L4374 98 L4391 96 L4410 94 L4431 92 L4452 89 L4469 87 L4488 84 L4508 83 L4526 82 L4546 80 L4565 79 L4585 78 L4604 76 L4624 75 L4642 74 L4670 72 L4691 71 L4718 69 L4753 68 L4767 66 L4780 65 L4799 64 L4818 63 L4837 62 L4856 60 L4875 59 L4895 59 L4916 58 L4933 57 L4952 55 L4973 54 L4993 53 L5011 52 L5029 51 L5049 50 L5070 49 L5088 48 L5107 47 L5128 46 L5153 45 L5167 44 L5184 43 L5204 42 L5223 41 L5243 40 L5262 39 L5281 37 L5302 36 L5320 35 L5339 34 L5359 33 L5380 32 L5397 31 L5416 30 L5436 29 L5455 29 L5475 28 L5493 27 L5514 26 L5533 26 L5552 25 L5571 26 L5600 27 L5619 28 L5647 29 L5685 28 L5700 28 L5713 27 L5730 26 L5746 26 L5766 25 L5784 25 L5804 24 L5824 23 L5845 23 L5862 22 L5880 22 L5901 21 L5921 21 L5939 20 L5958 19 L5978 19 L5998 18 L6016 17 L6035 17 L6056 16 L6081 16 L6096 15 L6113 15 L6133 14 L6152 13 L6171 13 L6190 12 L6210 11 L6231 10 L6248 10 L6267 9 L6288 8 L6309 7 L6326 7 L6345 6 L6365 5 L6384 4 L6403 3 L6422 3 L6442 2 L6462 1 L6481 1 L6500 0" />
</svg>
