<svg xmlns="http://www.w3.org/2000/svg" version="1.1" viewBox="0 0 6500 1000">
	<path fill="none" stroke="gold" stroke-width="125" stroke-linecap="round" stroke-linejoin="round" d="M0 1232  L-719840 1232 L-717236 1232 L-715568 1232 L-697239 1232 L-697068 1232 L-689911 1232 L-689878 1232 L-676447 1232 L-673525 1232 L-660184 1232 L-656015 1231 L-654855 1231 L-654236 1231 L-652224 1230 L-648452 1230 L-647852 1230 L-647523 1230 L-647310 1230 L-646769 1230 L-645531 1229 L-644352 1229 L-641487 1228 L-640965 1228 L-636110 1228 L-633172 1228 L-633129 1227 L-632821 1227 L-632569 1227 L-629974 1227 L-625719 1227 L-625701 1227 L-624464 1227 L-622586 1227 L-620633 1227 L-619685 1227 L-619414 1227 L-619104 1227 L-619006 1227 L-618176 1227 L-616145 1227 L-615855 1226 L-613708 1226 L-613553 1225 L-609896 1225 L-609645 1225 L-609547 1225 L-609030 1225 L-606879 1226 L-605950 1226 L-604424 1226 L-603184 1226 L-601638 1226 L-598676 1226 L-597554 1226 L-597245 1226 L-596034 1226 L-593027 1227 L-593007 1226 L-592660 1226 L-592447 1226 L-592321 1225 L-592079 1225 L-592041 1225 L-592022 1225 L-592002 1225 L-591943 1225 L-591885 1225 L-591867 1225 L-591424 1224 L-590184 1224 L-588638 1224 L-585251 1224 L-579524 1224 L-579323 1224 L-577687 1224 L-575965 1224 L-574533 1224 L-574301 1224 L-573585 1224 L-567453 1224 L-567085 1223 L-566931 1223 L-566353 1223 L-566060 1223 L-565093 1223 L-564783 1223 L-564184 1223 L-562578 1223 L-561843 1223 L-561533 1223 L-560765 1223 L-558729 1223 L-558303 1222 L-557491 1222 L-550062 1222 L-549539 1222 L-549366 1222 L-548631 1222 L-547063 1222 L-546657 1222 L-544432 1222 L-543484 1222 L-543059 1221 L-542729 1221 L-541685 1221 L-539577 1221 L-539325 1221 L-538706 1221 L-537893 1221 L-535785 1221 L-535737 1221 L-533809 1221 L-533483 1220 L-533348 1220 L-532845 1220 L-531432 1220 L-530929 1220 L-530407 1220 L-526848 1219 L-526113 1219 L-523688 1219 L-522399 1219 L-521992 1219 L-518839 1219 L-518684 1219 L-518664 1219 L-518297 1219 L-517039 1219 L-516324 1219 L-515434 1219 L-515027 1219 L-514099 1219 L-512990 1219 L-512687 1219 L-506438 1220 L-505491 1220 L-503864 1220 L-503363 1220 L-499687 1220 L-498855 1220 L-494902 1220 L-493490 1220 L-491000 1220 L-490324 1220 L-490285 1220 L-489414 1220 L-486203 1219 L-483340 1219 L-482372 1219 L-481251 1219 L-481232 1219 L-479607 1219 L-479143 1219 L-479051 1219 L-472681 1219 L-471733 1219 L-469276 1219 L-468403 1218 L-467167 1218 L-465166 1218 L-464769 1218 L-463332 1218 L-461306 1218 L-461093 1218 L-459913 1218 L-458404 1218 L-458384 1218 L-456372 1218 L-455503 1217 L-454632 1217 L-454047 1217 L-453510 1217 L-452852 1217 L-451614 1217 L-451053 1217 L-449872 1217 L-448635 1217 L-448596 1217 L-448209 1217 L-447667 1216 L-446894 1216 L-445771 1216 L-443682 1216 L-443349 1216 L-443063 1216 L-442135 1216 L-441651 1216 L-440916 1216 L-437285 1216 L-436157 1216 L-436002 1216 L-434976 1215 L-431262 1215 L-430044 1215 L-428226 1215 L-425440 1215 L-424879 1215 L-420991 1215 L-418514 1215 L-417179 1215 L-416676 1215 L-416193 1215 L-413503 1215 L-409732 1215 L-407275 1215 L-406095 1215 L-405456 1215 L-403096 1215 L-403019 1214 L-401971 1214 L-401878 1214 L-401375 1214 L-400929 1214 L-400872 1214 L-400658 1214 L-397698 1214 L-394991 1214 L-394836 1214 L-391315 1214 L-390792 1214 L-389825 1214 L-389476 1214 L-388432 1214 L-387504 1213 L-387078 1213 L-385569 1213 L-384602 1213 L-384583 1213 L-382687 1209 L-382571 1204 L-382523 1199 L-382499 1195 L-379495 1195 L-377464 1194 L-375703 1194 L-375336 1194 L-374890 1194 L-374523 1194 L-374110 1194 L-372125 1194 L-371911 1194 L-371756 1194 L-370151 1194 L-369029 1194 L-368081 1194 L-366824 1194 L-365179 1194 L-364000 1193 L-357410 1193 L-357364 1193 L-356958 1193 L-355913 1193 L-355777 1193 L-354095 1193 L-354075 1193 L-352738 1193 L-351502 1193 L-351348 1193 L-350974 1193 L-350767 1193 L-350458 1192 L-349684 1192 L-347363 1192 L-346705 1192 L-344577 1192 L-342855 1192 L-342661 1192 L-340108 1192 L-339831 1192 L-339643 1192 L-338811 1192 L-338038 1192 L-337340 1191 L-332340 1191 L-331964 1191 L-327711 1191 L-327224 1198 L-327205 1198 L-327126 1197 L-327050 1197 L-327031 1191 L-326218 1191 L-325464 1191 L-324245 1191 L-322813 1191 L-322717 1191 L-322542 1191 L-322188 1191 L-320879 1190 L-319021 1190 L-317319 1190 L-316816 1190 L-316551 1190 L-316158 1190 L-316023 1190 L-315114 1190 L-314737 1190 L-313809 1190 L-313470 1190 L-313430 1190 L-313392 1190 L-311477 1190 L-311303 1190 L-309774 1190 L-309446 1190 L-309330 1190 L-308923 1189 L-308575 1189 L-306931 1189 L-306380 1189 L-306137 1189 L-305596 1189 L-304764 1189 L-304223 1189 L-302688 1189 L-302596 1189 L-302559 1189 L-302423 1189 L-302036 1189 L-301011 1188 L-299135 1188 L-299038 1188 L-298438 1190 L-298071 1192 L-297586 1195 L-297548 1197 L-296775 1197 L-296717 1197 L-296542 1197 L-296349 1197 L-294744 1197 L-294724 1197 L-294568 1197 L-294453 1197 L-293273 1197 L-293119 1197 L-292452 1197 L-290004 1202 L-287489 1207 L-284819 1212 L-277120 1217 L-271452 1217 L-269237 1217 L-269214 1217 L-268240 1219 L-268220 1219 L-267357 1219 L-264616 1218 L-258818 1217 L-258664 1217 L-255879 1217 L-242270 1217 L-241524 1217 L-237114 1217 L-220767 1217 L-220535 1216 L-219998 1216 L-211539 1216 L-202833 1216 L-202621 1216 L-200648 1216 L-197862 1216 L-193375 1216 L-193220 1216 L-193051 1216 L-192910 1216 L-192620 1216 L-192581 1216 L-192310 1216 L-192139 1216 L-191728 1216 L-190608 1216 L-189428 1216 L-188151 1216 L-185287 1215 L-182367 1215 L-180375 1215 L-178827 1215 L-175789 1215 L-166465 1215 L-165941 1215 L-160217 1215 L-158710 1215 L-157895 1215 L-156212 1215 L-155491 1215 L-155322 1215 L-154277 1215 L-152210 1215 L-150848 1215 L-146404 1214 L-146307 1214 L-146269 1214 L-146250 1214 L-145417 1214 L-145339 1214 L-142767 1214 L-139518 1214 L-139363 1214 L-138414 1214 L-136673 1214 L-135958 1214 L-132417 1214 L-125840 1215 L-124423 1215 L-124402 1215 L-123451 1215 L-119977 1215 L-119224 1215 L-118662 1215 L-117880 1215 L-110376 1215 L-108777 1215 L-107203 1215 L-104018 1215 L-99685 1215 L-91115 1214 L-82369 1214 L-79295 1214 L-76029 1214 L-75483 1214 L-68345 1214 L-62678 1214 L-48613 1214 L-42602 1214 L-37896 1214 L-33892 1214 L-28785 1214 L-19071 1214 L-3500 1214 L-418 1214 L-115 1185 L-96 1151 L-77 1111 L-57 1067 L-38 1047 L-18 1030 L0 1015 L27 999 L48 984 L76 969 L111 951 L125 936 L138 924 L156 913 L175 905 L195 898 L213 890 L233 882 L252 874 L273 865 L290 857 L309 849 L330 841 L349 834 L368 825 L387 817 L406 808 L427 799 L445 791 L464 783 L485 775 L510 767 L524 760 L542 753 L561 746 L581 739 L600 731 L619 723 L639 716 L659 708 L677 702 L696 695 L717 689 L737 683 L754 678 L773 674 L793 669 L812 664 L832 660 L851 656 L871 652 L890 649 L909 646 L928 642 L955 638 L976 634 L1004 629 L1038 624 L1052 619 L1065 615 L1084 612 L1103 609 L1123 605 L1141 602 L1161 598 L1181 594 L1201 591 L1219 588 L1238 584 L1258 581 L1278 577 L1296 573 L1315 568 L1335 563 L1355 558 L1373 553 L1392 548 L1413 542 L1438 536 L1452 530 L1470 524 L1489 519 L1509 513 L1528 507 L1547 501 L1567 495 L1587 489 L1606 483 L1624 478 L1645 472 L1665 467 L1683 462 L1702 457 L1722 453 L1741 449 L1760 444 L1779 440 L1799 436 L1818 432 L1838 428 L1857 424 L1885 419 L1905 416 L1933 412 L1970 407 L1985 403 L1998 398 L2015 394 L2032 392 L2052 389 L2070 386 L2089 384 L2109 382 L2130 379 L2147 377 L2166 374 L2187 371 L2206 368 L2225 365 L2243 362 L2263 358 L2283 354 L2302 350 L2321 347 L2342 343 L2366 339 L2381 336 L2398 332 L2418 328 L2437 325 L2457 321 L2476 317 L2496 313 L2516 309 L2534 305 L2553 302 L2573 298 L2594 295 L2611 292 L2630 289 L2650 286 L2669 283 L2689 279 L2708 277 L2728 274 L2747 271 L2766 268 L2785 265 L2813 262 L2834 259 L2861 256 L2898 251 L2912 247 L2925 243 L2942 239 L2960 237 L2980 234 L2999 231 L3019 228 L3038 225 L3059 222 L3078 218 L3095 214 L3115 210 L3136 206 L3154 201 L3173 196 L3192 192 L3213 187 L3231 183 L3249 180 L3271 177 L3296 175 L3310 172 L3328 170 L3347 168 L3366 165 L3386 163 L3404 160 L3424 158 L3445 156 L3463 154 L3482 152 L3502 149 L3523 146 L3540 143 L3559 141 L3579 139 L3598 138 L3617 136 L3636 135 L3656 133 L3676 131 L3695 130 L3714 128 L3741 127 L3762 125 L3790 123 L3825 121 L3838 119 L3852 118 L3870 117 L3889 115 L3909 114 L3927 113 L3947 112 L3967 111 L3988 109 L4005 108 L4023 107 L4044 105 L4064 104 L4082 102 L4101 101 L4121 100 L4141 99 L4159 98 L4178 96 L4199 95 L4224 94 L4239 93 L4256 92 L4275 91 L4295 90 L4314 88 L4333 87 L4353 86 L4374 84 L4391 83 L4410 82 L4431 81 L4451 80 L4469 79 L4488 77 L4508 76 L4526 75 L4546 74 L4565 74 L4585 73 L4604 72 L4623 71 L4642 73 L4671 74 L4691 75 L4719 76 L4756 75 L4771 74 L4784 73 L4801 73 L4818 72 L4838 71 L4856 71 L4876 70 L4895 69 L4917 69 L4933 68 L4952 67 L4972 67 L4993 66 L5011 65 L5029 65 L5049 64 L5069 63 L5088 62 L5107 62 L5128 61 L5153 61 L5167 60 L5184 59 L5204 58 L5223 58 L5243 57 L5262 56 L5281 55 L5302 54 L5320 53 L5339 52 L5359 51 L5380 50 L5397 50 L5416 49 L5436 48 L5455 47 L5475 46 L5493 45 L5513 44 L5533 43 L5552 43 L5571 42 L5598 41 L5619 40 L5647 39 L5682 38 L5695 37 L5709 37 L5728 36 L5746 35 L5766 35 L5784 34 L5804 33 L5824 32 L5845 31 L5862 31 L5880 30 L5901 29 L5921 28 L5939 27 L5958 26 L5978 25 L5998 23 L6016 22 L6035 21 L6056 20 L6081 19 L6096 18 L6113 17 L6132 16 L6152 15 L6171 14 L6190 12 L6210 11 L6231 10 L6248 9 L6268 8 L6288 7 L6309 6 L6326 6 L6345 5 L6365 4 L6384 4 L6403 3 L6422 2 L6442 2 L6462 1 L6481 1 L6500 0" />
</svg>
