<svg xmlns="http://www.w3.org/2000/svg" version="1.1" viewBox="0 0 6500 1000">
	<path fill="none" stroke="gold" stroke-width="125" stroke-linecap="round" stroke-linejoin="round" d="M0 1484  L-720190 1484 L-717586 1483 L-715918 1483 L-697589 1483 L-697419 1483 L-690261 1483 L-690228 1483 L-676797 1483 L-673875 1483 L-660534 1483 L-656365 1482 L-655205 1482 L-654586 1482 L-652574 1481 L-648802 1481 L-648202 1481 L-647873 1481 L-647660 1481 L-647119 1481 L-645881 1480 L-644702 1479 L-641837 1479 L-641315 1478 L-636460 1478 L-633522 1478 L-633479 1478 L-633171 1478 L-632919 1478 L-630324 1477 L-626069 1477 L-626051 1477 L-624814 1477 L-622937 1477 L-620983 1477 L-620035 1477 L-619764 1477 L-619454 1477 L-619356 1477 L-618526 1477 L-616495 1477 L-616205 1476 L-614058 1476 L-613903 1475 L-610247 1475 L-609996 1475 L-609897 1475 L-609380 1475 L-607229 1476 L-606300 1476 L-604774 1477 L-603534 1477 L-601988 1476 L-599026 1476 L-597904 1476 L-597595 1476 L-596384 1476 L-593377 1477 L-593357 1477 L-593010 1477 L-592797 1477 L-592671 1475 L-592429 1475 L-592391 1475 L-592372 1475 L-592352 1475 L-592293 1475 L-592235 1475 L-592217 1474 L-591774 1474 L-590534 1474 L-588989 1474 L-585601 1474 L-579875 1474 L-579673 1474 L-578037 1474 L-576315 1474 L-574883 1473 L-574651 1473 L-573936 1473 L-567803 1473 L-567436 1473 L-567281 1473 L-566703 1473 L-566410 1473 L-565443 1472 L-565133 1472 L-564534 1472 L-562928 1472 L-562193 1472 L-561883 1472 L-561115 1472 L-559079 1472 L-558653 1472 L-557841 1472 L-550412 1472 L-549889 1472 L-549716 1471 L-548981 1471 L-547413 1471 L-547007 1471 L-544782 1471 L-543834 1471 L-543409 1471 L-543079 1471 L-542035 1471 L-539927 1471 L-539675 1470 L-539056 1470 L-538243 1470 L-536135 1470 L-536087 1470 L-534159 1470 L-533833 1470 L-533698 1469 L-533195 1469 L-531782 1469 L-531279 1469 L-530757 1469 L-527198 1468 L-526463 1468 L-524038 1468 L-522749 1468 L-522342 1468 L-519189 1468 L-519034 1468 L-519014 1468 L-518647 1468 L-517389 1468 L-516674 1468 L-515784 1468 L-515377 1468 L-514449 1468 L-513340 1468 L-513037 1468 L-506788 1468 L-505841 1469 L-504215 1469 L-503713 1469 L-500037 1469 L-499205 1469 L-495252 1469 L-493840 1469 L-491350 1469 L-490674 1469 L-490635 1468 L-489764 1468 L-486553 1468 L-483690 1468 L-482722 1468 L-481601 1468 L-481582 1468 L-479957 1468 L-479493 1468 L-479401 1467 L-473031 1467 L-472083 1467 L-469626 1467 L-468754 1467 L-467518 1467 L-465516 1467 L-465119 1467 L-463682 1467 L-461656 1467 L-461443 1466 L-460263 1466 L-458754 1466 L-458734 1466 L-456722 1466 L-455853 1466 L-454982 1466 L-454397 1466 L-453860 1466 L-453202 1465 L-451964 1465 L-451403 1465 L-450222 1465 L-448985 1465 L-448946 1465 L-448559 1465 L-448017 1465 L-447244 1465 L-446121 1465 L-444032 1465 L-443699 1464 L-443413 1464 L-442485 1464 L-442001 1464 L-441266 1464 L-437635 1464 L-436507 1464 L-436352 1464 L-435326 1464 L-431612 1463 L-430394 1463 L-428576 1463 L-425790 1463 L-425229 1463 L-421341 1463 L-418864 1463 L-417529 1463 L-417026 1463 L-416543 1463 L-413853 1463 L-410082 1463 L-407625 1463 L-406445 1463 L-405806 1463 L-403446 1462 L-403369 1462 L-402321 1462 L-402228 1462 L-401725 1462 L-401279 1462 L-401222 1462 L-401008 1462 L-398048 1462 L-395341 1462 L-395186 1462 L-391665 1462 L-391142 1462 L-390175 1462 L-389826 1461 L-388782 1461 L-387854 1461 L-387428 1461 L-385919 1461 L-384952 1461 L-384933 1461 L-383037 1455 L-382921 1450 L-382873 1444 L-382849 1439 L-379845 1439 L-377814 1439 L-376053 1439 L-375686 1438 L-375240 1438 L-374874 1438 L-374460 1438 L-372475 1438 L-372261 1438 L-372107 1438 L-370501 1438 L-369380 1438 L-368431 1438 L-367174 1438 L-365529 1438 L-364350 1437 L-357760 1437 L-357714 1437 L-357308 1437 L-356263 1437 L-356127 1437 L-354445 1437 L-354425 1437 L-353088 1437 L-351852 1437 L-351698 1437 L-351324 1436 L-351118 1436 L-350808 1436 L-350034 1436 L-347713 1436 L-347055 1436 L-344927 1436 L-343205 1436 L-343011 1436 L-340458 1436 L-340182 1435 L-339993 1435 L-339161 1435 L-338388 1435 L-337690 1435 L-332690 1435 L-332314 1435 L-328061 1435 L-327574 1442 L-327555 1442 L-327476 1442 L-327400 1442 L-327381 1434 L-326568 1434 L-325814 1434 L-324595 1434 L-323163 1434 L-323067 1434 L-322892 1434 L-322538 1434 L-321229 1434 L-319371 1434 L-317669 1434 L-317166 1434 L-316901 1433 L-316508 1433 L-316373 1433 L-315464 1433 L-315087 1433 L-314159 1433 L-313820 1433 L-313780 1433 L-313742 1433 L-311827 1433 L-311653 1433 L-310124 1433 L-309796 1433 L-309680 1433 L-309273 1433 L-308925 1433 L-307281 1432 L-306730 1432 L-306487 1432 L-305946 1432 L-305115 1432 L-304573 1432 L-303038 1432 L-302946 1432 L-302909 1432 L-302773 1432 L-302386 1432 L-301361 1431 L-299485 1431 L-299388 1431 L-298788 1434 L-298421 1436 L-297937 1439 L-297898 1441 L-297125 1442 L-297067 1441 L-296893 1441 L-296699 1441 L-295094 1441 L-295074 1441 L-294919 1441 L-294803 1441 L-293624 1441 L-293469 1442 L-292802 1442 L-290354 1448 L-287839 1454 L-285169 1460 L-277470 1466 L-271802 1466 L-269588 1466 L-269564 1466 L-268590 1467 L-268570 1467 L-267707 1467 L-264966 1467 L-259168 1466 L-259015 1465 L-256229 1465 L-242620 1465 L-241874 1465 L-237464 1465 L-221118 1465 L-220885 1465 L-220348 1465 L-211889 1465 L-203183 1465 L-202971 1465 L-200998 1464 L-198212 1464 L-193725 1465 L-193570 1464 L-193401 1464 L-193260 1464 L-192970 1464 L-192931 1464 L-192660 1464 L-192489 1464 L-192079 1464 L-190958 1464 L-189778 1464 L-188501 1464 L-185637 1464 L-182717 1464 L-180725 1463 L-179177 1463 L-176139 1463 L-166815 1463 L-166291 1463 L-160567 1463 L-159060 1463 L-158245 1463 L-156562 1463 L-155841 1463 L-155672 1463 L-154627 1463 L-152560 1463 L-151198 1462 L-146754 1462 L-146657 1462 L-146619 1462 L-146600 1462 L-145767 1462 L-145689 1462 L-143117 1462 L-139868 1462 L-139713 1462 L-138764 1462 L-137023 1462 L-136308 1462 L-132767 1462 L-126190 1463 L-124773 1463 L-124752 1463 L-123801 1463 L-120327 1463 L-119574 1463 L-119012 1463 L-118230 1463 L-110726 1463 L-109128 1463 L-107554 1463 L-104368 1463 L-100035 1462 L-91465 1462 L-82719 1462 L-79645 1462 L-76379 1462 L-75833 1462 L-68695 1462 L-63028 1462 L-48963 1462 L-42952 1462 L-38246 1462 L-34242 1462 L-29135 1462 L-19421 1462 L-3850 1462 L-768 1461 L-465 1428 L-446 1387 L-427 1340 L-407 1287 L-388 1263 L-368 1243 L-350 1225 L-322 1206 L-301 1188 L-273 1170 L-238 1149 L-224 1131 L-211 1116 L-193 1104 L-174 1094 L-154 1085 L-136 1076 L-117 1066 L-97 1057 L-76 1047 L-59 1037 L-40 1027 L-20 1018 L0 1009 L18 999 L37 989 L56 978 L77 968 L95 958 L114 948 L135 939 L160 930 L174 922 L192 913 L211 904 L231 896 L250 887 L269 877 L289 868 L309 860 L327 852 L346 844 L366 837 L387 830 L404 824 L423 818 L443 813 L462 807 L482 802 L501 797 L520 793 L540 789 L559 785 L578 781 L605 776 L626 771 L654 765 L688 759 L702 754 L715 749 L734 745 L753 741 L773 737 L791 733 L811 728 L831 724 L851 720 L869 716 L887 712 L908 708 L928 704 L946 698 L965 693 L985 687 L1005 681 L1023 675 L1042 669 L1063 662 L1088 655 L1102 648 L1120 641 L1139 634 L1159 627 L1178 620 L1197 613 L1217 606 L1237 599 L1256 592 L1274 585 L1295 579 L1315 572 L1333 566 L1352 561 L1372 555 L1390 551 L1410 546 L1429 541 L1449 536 L1468 531 L1488 526 L1506 521 L1535 516 L1555 511 L1583 507 L1620 501 L1635 496 L1648 491 L1665 486 L1682 483 L1702 479 L1720 476 L1739 474 L1759 471 L1780 468 L1797 465 L1816 462 L1836 458 L1856 455 L1875 451 L1893 447 L1913 443 L1933 438 L1952 434 L1971 429 L1992 425 L2016 421 L2031 416 L2048 412 L2068 407 L2087 403 L2107 399 L2126 394 L2146 389 L2166 384 L2184 380 L2203 376 L2223 372 L2243 368 L2261 364 L2280 360 L2300 357 L2319 353 L2339 349 L2358 346 L2378 342 L2397 339 L2416 335 L2435 332 L2463 328 L2483 325 L2511 321 L2548 315 L2562 310 L2575 305 L2592 301 L2610 298 L2630 295 L2649 292 L2669 288 L2688 284 L2709 280 L2728 276 L2745 271 L2765 266 L2786 261 L2804 256 L2822 250 L2842 245 L2863 239 L2880 234 L2899 230 L2921 227 L2946 224 L2960 222 L2978 219 L2997 216 L3016 213 L3035 210 L3054 207 L3074 205 L3095 202 L3113 200 L3132 198 L3152 194 L3173 191 L3190 187 L3209 184 L3229 182 L3248 180 L3267 179 L3286 177 L3306 175 L3326 173 L3345 171 L3364 169 L3391 167 L3412 165 L3440 163 L3475 161 L3488 159 L3502 157 L3520 155 L3539 154 L3559 152 L3577 151 L3597 149 L3617 148 L3638 147 L3655 145 L3673 144 L3694 142 L3714 140 L3732 138 L3751 137 L3771 136 L3791 134 L3809 133 L3828 131 L3849 130 L3874 129 L3889 127 L3906 126 L3925 125 L3945 123 L3964 122 L3983 120 L4003 118 L4024 117 L4041 115 L4060 114 L4081 113 L4101 111 L4119 110 L4137 109 L4158 107 L4176 106 L4196 105 L4215 104 L4235 103 L4254 102 L4273 101 L4292 103 L4321 104 L4341 106 L4369 107 L4406 106 L4421 105 L4434 104 L4451 103 L4468 102 L4487 102 L4506 101 L4525 100 L4545 99 L4566 98 L4583 97 L4602 97 L4622 96 L4643 95 L4661 94 L4679 93 L4699 92 L4719 91 L4738 91 L4756 90 L4778 89 L4803 89 L4817 88 L4834 87 L4854 86 L4873 85 L4893 84 L4912 83 L4931 82 L4952 81 L4970 80 L4989 79 L5009 77 L5030 76 L5047 75 L5066 74 L5086 73 L5105 72 L5125 71 L5143 70 L5163 69 L5183 68 L5202 67 L5221 66 L5248 65 L5269 64 L5297 63 L5332 62 L5345 61 L5359 60 L5378 59 L5396 58 L5416 58 L5434 57 L5454 56 L5474 55 L5495 54 L5512 53 L5530 52 L5551 51 L5571 50 L5589 49 L5608 47 L5628 46 L5648 44 L5666 43 L5685 42 L5706 41 L5731 39 L5746 38 L5763 36 L5782 35 L5802 34 L5821 33 L5840 31 L5860 30 L5881 29 L5898 28 L5917 26 L5938 25 L5959 24 L5976 23 L5995 22 L6015 21 L6034 21 L6053 20 L6072 19 L6092 18 L6112 18 L6131 17 L6149 17 L6177 16 L6198 15 L6225 14 L6261 13 L6275 12 L6288 10 L6306 9 L6325 8 L6344 8 L6363 7 L6383 6 L6402 5 L6423 4 L6440 3 L6459 2 L6480 1 L6500 0" />
</svg>
