<svg xmlns="http://www.w3.org/2000/svg" version="1.1" viewBox="0 0 6500 1000">
	<path fill="none" stroke="gold" stroke-width="125" stroke-linecap="round" stroke-linejoin="round" d="M0 1015  L-718777 1015 L-716173 1015 L-714505 1015 L-696175 1015 L-696005 1015 L-688847 1015 L-688814 1015 L-675383 1015 L-672461 1015 L-659121 1015 L-654952 1015 L-653791 1014 L-653172 1014 L-651160 1014 L-647389 1014 L-646789 1014 L-646460 1014 L-646247 1013 L-645705 1013 L-644467 1013 L-643288 1012 L-640424 1012 L-639902 1012 L-635046 1012 L-632109 1011 L-632066 1011 L-631758 1011 L-631506 1011 L-628911 1011 L-624655 1011 L-624637 1011 L-623401 1011 L-621523 1011 L-619570 1011 L-618622 1011 L-618351 1011 L-618041 1011 L-617943 1011 L-617113 1011 L-615082 1011 L-614791 1010 L-612645 1010 L-612490 1010 L-608833 1009 L-608582 1009 L-608484 1009 L-607966 1010 L-605815 1010 L-604886 1010 L-603360 1010 L-602121 1010 L-600574 1010 L-597613 1010 L-596491 1010 L-596182 1010 L-594970 1010 L-591964 1010 L-591944 1010 L-591597 1010 L-591384 1010 L-591257 1010 L-591016 1009 L-590978 1009 L-590958 1009 L-590939 1009 L-590880 1009 L-590821 1009 L-590803 1009 L-590360 1009 L-589121 1009 L-587575 1009 L-584187 1008 L-578461 1008 L-578260 1008 L-576624 1008 L-574902 1008 L-573470 1008 L-573237 1008 L-572522 1008 L-566390 1008 L-566022 1008 L-565868 1008 L-565289 1008 L-564997 1008 L-564029 1007 L-563720 1007 L-563121 1007 L-561515 1007 L-560779 1007 L-560470 1007 L-559701 1007 L-557665 1007 L-557240 1007 L-556427 1007 L-548999 1007 L-548476 1007 L-548302 1007 L-547567 1007 L-546000 1006 L-545594 1006 L-543369 1006 L-542421 1006 L-541996 1006 L-541666 1006 L-540622 1006 L-538514 1006 L-538262 1006 L-537643 1006 L-536830 1006 L-534722 1006 L-534674 1006 L-532745 1005 L-532420 1005 L-532285 1005 L-531781 1005 L-530369 1005 L-529866 1005 L-529344 1005 L-525784 1004 L-525049 1004 L-522625 1004 L-521335 1004 L-520928 1004 L-517776 1004 L-517621 1004 L-517601 1004 L-517234 1004 L-515976 1004 L-515261 1004 L-514371 1004 L-513964 1004 L-513035 1004 L-511927 1004 L-511623 1004 L-505375 1005 L-504427 1005 L-502801 1005 L-502299 1005 L-498624 1005 L-497791 1005 L-493838 1005 L-492426 1005 L-489937 1005 L-489261 1005 L-489222 1005 L-488351 1005 L-485140 1004 L-482277 1004 L-481309 1004 L-480187 1004 L-480168 1004 L-478543 1004 L-478079 1004 L-477987 1004 L-471618 1004 L-470669 1004 L-468212 1004 L-467340 1004 L-466104 1004 L-464103 1003 L-463705 1003 L-462269 1003 L-460243 1003 L-460030 1003 L-458849 1003 L-457341 1003 L-457321 1003 L-455309 1003 L-454439 1003 L-453568 1003 L-452983 1003 L-452446 1002 L-451789 1002 L-450550 1002 L-449990 1002 L-448809 1002 L-447571 1002 L-447533 1002 L-447146 1002 L-446604 1002 L-445830 1002 L-444708 1002 L-442619 1002 L-442285 1002 L-442000 1001 L-441071 1001 L-440588 1001 L-439853 1001 L-436221 1001 L-435094 1001 L-434939 1001 L-433913 1001 L-430198 1001 L-428981 1001 L-427162 1001 L-424377 1001 L-423815 1001 L-419927 1001 L-417451 1001 L-416116 1001 L-415612 1000 L-415129 1000 L-412440 1000 L-408668 1000 L-406211 1000 L-405031 1000 L-404392 1000 L-402033 1000 L-401955 1000 L-400908 1000 L-400814 1000 L-400311 1000 L-399866 1000 L-399808 1000 L-399595 1000 L-396635 1000 L-393927 1000 L-393773 1000 L-390252 1000 L-389729 1000 L-388762 1000 L-388412 999 L-387369 999 L-386440 999 L-386015 999 L-384506 999 L-383539 999 L-383520 999 L-381624 995 L-381508 991 L-381460 987 L-381435 983 L-378431 983 L-376401 983 L-374640 983 L-374273 983 L-373827 983 L-373460 983 L-373046 983 L-371061 983 L-370848 983 L-370693 983 L-369088 983 L-367966 983 L-367018 982 L-365761 982 L-364116 982 L-362936 982 L-356347 982 L-356300 982 L-355895 982 L-354849 982 L-354714 982 L-353031 982 L-353012 982 L-351675 982 L-350439 982 L-350284 982 L-349910 981 L-349704 981 L-349395 981 L-348621 981 L-346299 981 L-345642 981 L-343514 981 L-341791 981 L-341598 981 L-339044 981 L-338768 981 L-338580 981 L-337747 981 L-336975 981 L-336277 980 L-331276 980 L-330900 980 L-326648 980 L-326161 986 L-326141 986 L-326062 986 L-325987 986 L-325967 980 L-325154 980 L-324401 980 L-323181 980 L-321750 980 L-321653 980 L-321479 980 L-321124 980 L-319815 980 L-317958 980 L-316256 979 L-315753 979 L-315487 979 L-315094 979 L-314960 979 L-314050 979 L-313674 979 L-312745 979 L-312406 979 L-312367 979 L-312329 979 L-310413 979 L-310240 979 L-308711 979 L-308383 979 L-308267 979 L-307860 979 L-307511 979 L-305868 979 L-305317 979 L-305074 978 L-304532 978 L-303701 978 L-303159 978 L-301625 978 L-301533 978 L-301496 978 L-301360 978 L-300973 978 L-299948 978 L-298071 978 L-297975 978 L-297375 980 L-297008 981 L-296523 983 L-296485 985 L-295711 985 L-295654 985 L-295479 985 L-295286 985 L-293680 985 L-293660 985 L-293505 985 L-293390 985 L-292210 985 L-292055 985 L-291388 985 L-288940 990 L-286425 994 L-283756 998 L-276056 1003 L-270389 1003 L-268174 1003 L-268151 1003 L-267177 1004 L-267157 1004 L-266293 1004 L-263553 1004 L-257755 1002 L-257601 1002 L-254815 1002 L-241207 1002 L-240461 1002 L-236050 1002 L-219704 1002 L-219472 1002 L-218935 1002 L-210475 1002 L-201770 1002 L-201557 1002 L-199585 1002 L-196799 1002 L-192311 1002 L-192156 1002 L-191987 1002 L-191847 1002 L-191556 1001 L-191518 1001 L-191247 1001 L-191075 1001 L-190665 1001 L-189544 1001 L-188364 1001 L-187087 1001 L-184224 1001 L-181303 1001 L-179311 1001 L-177764 1001 L-174726 1001 L-165401 1001 L-164877 1001 L-159153 1001 L-157646 1001 L-156832 1001 L-155148 1001 L-154427 1000 L-154259 1000 L-153214 1000 L-151146 1000 L-149784 1000 L-145341 1000 L-145244 1000 L-145205 1000 L-145186 1000 L-144354 1000 L-144276 1000 L-141703 1000 L-138454 1000 L-138299 1000 L-137351 1000 L-135610 1000 L-134895 1000 L-131354 1000 L-124776 1000 L-123359 1001 L-123338 1001 L-122388 1001 L-118914 1001 L-118160 1001 L-117599 1001 L-116817 1001 L-109312 1000 L-107714 1000 L-106140 1000 L-102955 1000 L-98622 1000 L-90052 1000 L-81306 1000 L-78232 1000 L-74966 1000 L-74419 1000 L-67282 1000 L-61614 1000 L-47550 1000 L-41539 1000 L-36832 1000 L-32829 1000 L-27722 1000 L-18008 1000 L-2437 1000 L645 999 L947 975 L967 946 L985 912 L1005 874 L1025 857 L1044 842 L1063 829 L1090 816 L1111 803 L1139 789 L1174 774 L1188 762 L1201 751 L1220 742 L1238 735 L1258 728 L1276 722 L1296 715 L1316 708 L1337 701 L1354 694 L1372 687 L1393 680 L1413 674 L1431 667 L1450 659 L1470 651 L1490 644 L1508 637 L1527 630 L1548 624 L1573 617 L1588 611 L1605 605 L1625 598 L1644 592 L1663 586 L1682 579 L1702 572 L1723 566 L1740 560 L1759 555 L1780 550 L1800 545 L1818 541 L1837 536 L1857 532 L1875 528 L1895 525 L1914 521 L1934 518 L1953 515 L1973 513 L1991 510 L2019 506 L2040 502 L2067 498 L2101 494 L2116 490 L2129 486 L2147 483 L2166 481 L2186 478 L2205 475 L2224 472 L2244 469 L2265 466 L2282 463 L2301 460 L2321 457 L2341 454 L2360 450 L2378 446 L2398 442 L2418 437 L2437 433 L2456 429 L2477 424 L2501 419 L2516 414 L2533 409 L2553 404 L2572 399 L2592 394 L2610 388 L2631 383 L2651 378 L2669 373 L2688 368 L2708 364 L2728 359 L2746 355 L2765 351 L2785 347 L2804 344 L2824 340 L2842 336 L2862 333 L2882 329 L2901 326 L2920 322 L2949 319 L2968 315 L2996 312 L3033 308 L3049 304 L3061 300 L3078 297 L3095 295 L3115 292 L3133 290 L3153 288 L3173 286 L3193 284 L3211 282 L3229 280 L3250 277 L3270 275 L3288 272 L3307 269 L3327 266 L3346 263 L3365 259 L3384 256 L3405 253 L3430 250 L3444 247 L3461 244 L3482 241 L3500 238 L3520 234 L3539 231 L3559 227 L3579 224 L3598 221 L3616 218 L3637 215 L3657 212 L3675 209 L3694 207 L3714 204 L3732 201 L3752 199 L3771 196 L3791 194 L3810 191 L3830 189 L3849 186 L3877 184 L3897 181 L3925 178 L3961 174 L3975 170 L3988 167 L4006 164 L4024 162 L4044 160 L4062 157 L4082 155 L4102 152 L4123 149 L4141 146 L4158 143 L4179 139 L4199 135 L4217 132 L4236 127 L4256 123 L4276 120 L4294 116 L4313 113 L4334 111 L4359 109 L4374 107 L4391 105 L4410 103 L4430 101 L4449 99 L4468 96 L4488 95 L4509 93 L4526 91 L4545 90 L4566 87 L4586 84 L4603 82 L4622 80 L4643 78 L4661 77 L4681 76 L4700 75 L4720 73 L4739 72 L4758 70 L4777 69 L4805 68 L4825 66 L4853 65 L4888 63 L4902 61 L4915 60 L4934 59 L4952 58 L4972 57 L4991 56 L5010 55 L5030 54 L5051 53 L5068 52 L5087 51 L5107 49 L5127 48 L5145 47 L5164 46 L5184 45 L5204 44 L5223 43 L5241 42 L5263 41 L5288 40 L5302 39 L5319 38 L5339 37 L5358 36 L5377 35 L5396 34 L5416 32 L5437 31 L5455 30 L5474 29 L5494 28 L5515 27 L5532 26 L5551 25 L5571 25 L5590 24 L5610 23 L5628 22 L5648 21 L5668 21 L5687 20 L5706 21 L5734 22 L5754 23 L5782 24 L5819 23 L5835 23 L5847 22 L5865 21 L5881 21 L5901 20 L5919 20 L5939 19 L5959 18 L5980 18 L5997 17 L6015 17 L6036 16 L6056 16 L6074 15 L6093 14 L6113 14 L6133 13 L6151 12 L6170 12 L6191 11 L6216 11 L6230 10 L6248 10 L6267 9 L6287 8 L6306 8 L6325 7 L6345 6 L6366 5 L6383 5 L6402 4 L6423 3 L6443 2 L6461 2 L6480 1 L6500 0" />
</svg>
