<svg xmlns="http://www.w3.org/2000/svg" version="1.1" viewBox="0 0 6500 1000">
	<path fill="none" stroke="gold" stroke-width="125" stroke-linecap="round" stroke-linejoin="round" d="M0 2543  L-721581 2543 L-718977 2542 L-717309 2542 L-698980 2542 L-698809 2542 L-691652 2542 L-691619 2542 L-678188 2542 L-675266 2542 L-661925 2541 L-657756 2541 L-656596 2540 L-655977 2540 L-653965 2539 L-650193 2539 L-649593 2539 L-649264 2538 L-649051 2538 L-648510 2538 L-647272 2537 L-646093 2536 L-643228 2535 L-642706 2534 L-637850 2534 L-634913 2533 L-634870 2533 L-634562 2533 L-634310 2533 L-631715 2532 L-627460 2532 L-627442 2532 L-626205 2532 L-624327 2532 L-622374 2532 L-621426 2532 L-621155 2532 L-620845 2532 L-620747 2532 L-619917 2532 L-617886 2532 L-617596 2531 L-615449 2530 L-615294 2529 L-611637 2529 L-611386 2529 L-611288 2529 L-610771 2529 L-608620 2530 L-607691 2530 L-606165 2531 L-604925 2531 L-603379 2531 L-600417 2531 L-599295 2530 L-598986 2530 L-597775 2530 L-594768 2531 L-594748 2531 L-594401 2531 L-594188 2531 L-594062 2529 L-593820 2529 L-593782 2529 L-593763 2529 L-593743 2528 L-593684 2528 L-593626 2528 L-593608 2528 L-593165 2527 L-591925 2527 L-590379 2527 L-586992 2527 L-581265 2526 L-581064 2526 L-579428 2526 L-577706 2526 L-576274 2526 L-576042 2526 L-575326 2526 L-569194 2526 L-568826 2525 L-568672 2525 L-568094 2525 L-567801 2525 L-566834 2524 L-566524 2524 L-565925 2524 L-564319 2524 L-563584 2524 L-563274 2524 L-562506 2524 L-560470 2524 L-560044 2523 L-559232 2523 L-551803 2523 L-551280 2523 L-551107 2523 L-550372 2522 L-548804 2522 L-548398 2522 L-546173 2522 L-545225 2522 L-544800 2522 L-544470 2522 L-543426 2521 L-541318 2521 L-541066 2521 L-540447 2521 L-539634 2521 L-537526 2520 L-537478 2520 L-535550 2520 L-535224 2520 L-535089 2519 L-534586 2519 L-533173 2519 L-532670 2518 L-532148 2518 L-528589 2518 L-527854 2517 L-525429 2517 L-524139 2517 L-523733 2517 L-520580 2517 L-520425 2517 L-520405 2517 L-520038 2517 L-518780 2517 L-518065 2517 L-517175 2517 L-516768 2517 L-515840 2517 L-514731 2517 L-514428 2517 L-508179 2518 L-507232 2518 L-505605 2518 L-505104 2518 L-501428 2518 L-500596 2519 L-496643 2519 L-495231 2518 L-492741 2518 L-492065 2518 L-492026 2518 L-491155 2518 L-487944 2518 L-485081 2517 L-484113 2517 L-482992 2517 L-482973 2517 L-481348 2517 L-480884 2516 L-480792 2516 L-474422 2516 L-473474 2516 L-471017 2516 L-470144 2515 L-468908 2515 L-466907 2515 L-466510 2515 L-465073 2515 L-463047 2515 L-462834 2514 L-461654 2514 L-460145 2514 L-460125 2514 L-458113 2514 L-457244 2514 L-456373 2513 L-455788 2513 L-455251 2513 L-454593 2513 L-453355 2512 L-452794 2512 L-451613 2512 L-450376 2512 L-450337 2512 L-449950 2512 L-449408 2512 L-448635 2511 L-447512 2511 L-445423 2511 L-445090 2511 L-444804 2511 L-443876 2511 L-443392 2510 L-442657 2510 L-439026 2510 L-437898 2510 L-437743 2510 L-436717 2510 L-433003 2509 L-431785 2509 L-429967 2509 L-427181 2509 L-426620 2509 L-422732 2509 L-420255 2508 L-418920 2508 L-418417 2508 L-417934 2508 L-415244 2508 L-411473 2508 L-409016 2508 L-407836 2508 L-407197 2508 L-404837 2508 L-404760 2508 L-403712 2508 L-403619 2507 L-403116 2507 L-402670 2507 L-402613 2507 L-402399 2507 L-399439 2507 L-396732 2507 L-396577 2507 L-393056 2507 L-392533 2506 L-391566 2506 L-391217 2506 L-390173 2506 L-389245 2506 L-388819 2505 L-387310 2505 L-386343 2505 L-386324 2505 L-384428 2496 L-384312 2487 L-384264 2478 L-384240 2469 L-381236 2469 L-379205 2468 L-377444 2468 L-377077 2468 L-376631 2468 L-376264 2468 L-375851 2467 L-373866 2467 L-373652 2467 L-373497 2467 L-371892 2467 L-370770 2467 L-369822 2467 L-368565 2467 L-366920 2467 L-365741 2466 L-359151 2466 L-359105 2466 L-358699 2466 L-357654 2466 L-357518 2466 L-355836 2465 L-355816 2465 L-354479 2465 L-353243 2465 L-353089 2465 L-352715 2465 L-352508 2464 L-352199 2464 L-351425 2464 L-349104 2464 L-348446 2464 L-346318 2464 L-344596 2464 L-344402 2463 L-341849 2463 L-341572 2463 L-341384 2463 L-340552 2463 L-339779 2462 L-339081 2462 L-334081 2462 L-333705 2462 L-329452 2462 L-328965 2474 L-328946 2474 L-328867 2474 L-328791 2474 L-328771 2461 L-327959 2461 L-327205 2461 L-325986 2461 L-324554 2461 L-324458 2461 L-324283 2461 L-323929 2461 L-322620 2460 L-320762 2460 L-319060 2460 L-318557 2460 L-318292 2460 L-317899 2460 L-317764 2460 L-316855 2459 L-316478 2459 L-315550 2459 L-315211 2459 L-315171 2459 L-315133 2459 L-313218 2459 L-313044 2459 L-311515 2459 L-311187 2459 L-311071 2459 L-310664 2458 L-310316 2458 L-308672 2458 L-308121 2458 L-307878 2458 L-307337 2458 L-306505 2457 L-305964 2457 L-304429 2457 L-304337 2457 L-304300 2457 L-304164 2457 L-303777 2457 L-302752 2456 L-300876 2456 L-300779 2456 L-300179 2460 L-299812 2464 L-299327 2469 L-299289 2473 L-298516 2473 L-298458 2473 L-298283 2473 L-298090 2473 L-296485 2472 L-296465 2472 L-296309 2472 L-296194 2473 L-295014 2473 L-294860 2473 L-294193 2473 L-291745 2483 L-289230 2494 L-286560 2504 L-278861 2514 L-273193 2514 L-270978 2513 L-270955 2513 L-269981 2516 L-269961 2516 L-269098 2516 L-266357 2516 L-260559 2513 L-260405 2513 L-257620 2513 L-244011 2512 L-243265 2512 L-238855 2512 L-222508 2512 L-222276 2512 L-221739 2511 L-213280 2511 L-204574 2511 L-204362 2511 L-202389 2511 L-199603 2511 L-195116 2511 L-194961 2511 L-194792 2511 L-194651 2511 L-194361 2511 L-194322 2511 L-194051 2510 L-193880 2510 L-193469 2510 L-192349 2510 L-191169 2510 L-189892 2510 L-187028 2510 L-184108 2510 L-182116 2509 L-180568 2509 L-177530 2509 L-168206 2509 L-167682 2509 L-161958 2509 L-160451 2509 L-159636 2509 L-157953 2508 L-157232 2508 L-157063 2508 L-156018 2508 L-153951 2508 L-152589 2508 L-148145 2508 L-148048 2508 L-148010 2507 L-147991 2507 L-147158 2507 L-147080 2507 L-144508 2507 L-141259 2507 L-141104 2507 L-140155 2506 L-138414 2506 L-137699 2507 L-134158 2508 L-127581 2508 L-126164 2509 L-126143 2509 L-125192 2509 L-121718 2509 L-120965 2509 L-120403 2509 L-119621 2508 L-112117 2508 L-110518 2508 L-108944 2508 L-105759 2508 L-101426 2508 L-92856 2508 L-84110 2508 L-81036 2508 L-77770 2507 L-77224 2507 L-70086 2507 L-64419 2507 L-50354 2507 L-44343 2507 L-39637 2507 L-35633 2507 L-30526 2507 L-20812 2507 L-5241 2506 L-2159 2506 L-1856 2451 L-1837 2382 L-1818 2304 L-1798 2218 L-1779 2178 L-1759 2144 L-1741 2114 L-1713 2083 L-1692 2054 L-1664 2023 L-1629 1989 L-1615 1960 L-1602 1935 L-1584 1914 L-1565 1898 L-1545 1883 L-1527 1867 L-1507 1851 L-1488 1836 L-1467 1819 L-1450 1803 L-1431 1787 L-1410 1772 L-1391 1757 L-1372 1740 L-1353 1723 L-1334 1706 L-1313 1689 L-1295 1672 L-1276 1657 L-1255 1642 L-1230 1626 L-1216 1612 L-1198 1598 L-1179 1583 L-1159 1570 L-1140 1554 L-1121 1539 L-1101 1524 L-1081 1510 L-1063 1497 L-1044 1484 L-1023 1472 L-1003 1461 L-986 1451 L-967 1441 L-947 1432 L-928 1423 L-908 1414 L-889 1406 L-869 1400 L-850 1393 L-831 1386 L-812 1380 L-785 1372 L-764 1363 L-736 1353 L-702 1343 L-688 1334 L-675 1326 L-656 1319 L-637 1313 L-617 1307 L-599 1300 L-579 1292 L-559 1285 L-539 1278 L-521 1272 L-502 1266 L-482 1259 L-462 1251 L-444 1242 L-425 1233 L-405 1224 L-385 1214 L-367 1204 L-348 1194 L-327 1183 L-302 1171 L-288 1159 L-270 1147 L-251 1136 L-231 1125 L-212 1113 L-193 1101 L-173 1089 L-153 1077 L-134 1066 L-116 1055 L-95 1045 L-75 1034 L-57 1024 L-38 1015 L-18 1006 L0 998 L19 990 L38 981 L58 973 L77 965 L97 957 L116 949 L144 940 L164 933 L192 925 L229 916 L244 907 L257 899 L274 891 L291 885 L311 880 L329 875 L348 871 L368 866 L389 861 L406 856 L425 851 L446 845 L465 839 L484 833 L502 826 L522 819 L542 812 L561 804 L580 797 L601 790 L625 783 L640 776 L657 768 L677 761 L696 754 L716 746 L735 738 L755 730 L775 723 L793 715 L812 709 L832 702 L853 695 L870 689 L889 683 L909 677 L928 671 L948 664 L967 659 L987 653 L1006 647 L1025 641 L1044 636 L1072 630 L1093 624 L1120 617 L1157 608 L1171 600 L1184 592 L1201 585 L1219 580 L1239 575 L1258 570 L1278 564 L1297 557 L1318 550 L1337 543 L1354 536 L1374 528 L1395 519 L1413 510 L1432 501 L1451 491 L1472 483 L1490 475 L1508 468 L1530 462 L1555 458 L1569 453 L1587 449 L1606 444 L1625 439 L1645 434 L1663 430 L1683 425 L1704 421 L1722 418 L1741 414 L1761 408 L1782 402 L1799 396 L1818 391 L1838 388 L1857 385 L1876 382 L1895 379 L1915 376 L1935 373 L1954 369 L1973 366 L2000 363 L2021 360 L2049 357 L2084 352 L2097 349 L2111 346 L2129 343 L2148 341 L2168 338 L2186 336 L2206 334 L2226 331 L2247 329 L2264 327 L2282 324 L2303 321 L2323 318 L2341 316 L2360 313 L2380 311 L2400 308 L2418 306 L2437 304 L2458 301 L2483 299 L2498 297 L2515 295 L2534 293 L2554 290 L2573 288 L2592 285 L2612 282 L2633 280 L2650 277 L2669 275 L2690 273 L2710 271 L2728 269 L2747 266 L2767 264 L2785 262 L2805 260 L2824 259 L2844 257 L2863 256 L2882 254 L2901 257 L2930 259 L2950 262 L2978 264 L3015 262 L3030 260 L3043 258 L3060 257 L3077 256 L3097 254 L3115 253 L3135 251 L3154 250 L3176 249 L3192 248 L3211 246 L3231 245 L3252 244 L3270 242 L3288 241 L3308 239 L3328 238 L3347 236 L3366 235 L3387 234 L3412 233 L3426 231 L3443 230 L3463 228 L3482 227 L3502 226 L3521 224 L3540 222 L3561 220 L3579 218 L3598 216 L3618 215 L3639 213 L3656 211 L3675 209 L3695 208 L3714 206 L3734 204 L3752 202 L3772 200 L3792 199 L3811 197 L3830 196 L3857 195 L3878 193 L3906 191 L3941 189 L3954 187 L3968 186 L3987 184 L4005 183 L4025 182 L4043 180 L4063 179 L4083 177 L4104 175 L4121 174 L4139 173 L4160 171 L4180 169 L4198 167 L4217 164 L4237 162 L4257 160 L4275 157 L4294 156 L4315 154 L4340 151 L4355 149 L4372 147 L4391 145 L4411 143 L4430 140 L4449 138 L4469 136 L4490 134 L4507 132 L4527 130 L4547 128 L4568 126 L4585 125 L4604 123 L4624 122 L4643 121 L4662 119 L4681 118 L4701 117 L4721 116 L4740 115 L4759 114 L4786 113 L4807 111 L4835 110 L4870 108 L4884 106 L4897 104 L4916 101 L4934 100 L4954 99 L4972 97 L4992 96 L5011 95 L5032 93 L5049 92 L5068 90 L5089 88 L5109 87 L5127 85 L5146 83 L5165 81 L5186 80 L5204 78 L5223 77 L5244 75 L5269 74 L5284 73 L5301 71 L5320 70 L5340 68 L5359 66 L5378 64 L5398 62 L5419 59 L5436 57 L5455 55 L5476 53 L5496 52 L5513 50 L5532 49 L5552 48 L5571 47 L5591 46 L5610 45 L5630 44 L5649 43 L5668 42 L5687 41 L5714 40 L5735 39 L5763 38 L5797 37 L5811 36 L5825 35 L5843 34 L5862 33 L5882 32 L5900 31 L5920 31 L5940 30 L5960 29 L5978 28 L5996 27 L6017 26 L6037 25 L6055 25 L6074 24 L6094 23 L6114 22 L6132 22 L6151 21 L6172 21 L6197 20 L6212 19 L6229 18 L6248 17 L6268 16 L6287 15 L6306 15 L6326 14 L6347 12 L6364 10 L6383 9 L6404 7 L6424 5 L6442 4 L6461 3 L6481 2 L6500 1" />
</svg>
