<svg xmlns="http://www.w3.org/2000/svg" version="1.1" viewBox="0 0 6500 1000">
	<path fill="none" stroke="gold" stroke-width="125" stroke-linecap="round" stroke-linejoin="round" d="M0 105842  L-512691 105842 L-510087 105429 L-508419 105016 L-490090 104190 L-489920 103363 L-482762 102537 L-482729 102537 L-469298 102123 L-466376 102537 L-453035 101297 L-448866 99644 L-447706 97578 L-447087 95512 L-445075 94272 L-441303 93446 L-440703 92619 L-440375 91793 L-440161 90966 L-439620 90140 L-438382 86834 L-437203 83528 L-434338 80223 L-433816 76917 L-428961 76090 L-426023 75264 L-425981 74438 L-425672 73611 L-425420 72785 L-422825 71958 L-418570 71958 L-418552 71958 L-417315 71958 L-415438 71958 L-413484 71132 L-412536 70305 L-412265 69479 L-411956 69066 L-411857 68652 L-411027 68652 L-408996 69066 L-408706 65347 L-406559 63694 L-406404 61214 L-402748 58735 L-402497 59975 L-402398 59561 L-401881 60801 L-399730 62867 L-398801 64933 L-397275 67000 L-396035 67000 L-394489 66586 L-391527 65760 L-390405 64933 L-390096 64107 L-388885 63694 L-385878 68239 L-385859 67826 L-385511 67413 L-385298 67000 L-385172 61214 L-384930 60388 L-384892 59561 L-384873 58735 L-384853 57909 L-384794 57082 L-384736 56256 L-384718 55429 L-384275 54603 L-383035 53776 L-381490 52950 L-378102 52123 L-372376 51710 L-372174 51297 L-370538 50884 L-368816 50471 L-367384 50057 L-367152 49644 L-366437 49231 L-360304 48818 L-359937 47991 L-359782 47165 L-359204 46338 L-358911 45512 L-357944 44685 L-357634 43859 L-357035 43033 L-355429 43033 L-354694 43033 L-354384 43446 L-353616 43446 L-351580 42619 L-351154 41793 L-350342 41380 L-342913 40553 L-342390 39727 L-342217 38900 L-341482 38074 L-339914 37247 L-339508 36834 L-337283 36008 L-336335 35595 L-335910 35181 L-335580 35181 L-334536 34768 L-332428 33942 L-332176 33115 L-331557 32289 L-330744 31876 L-328637 31049 L-328588 30223 L-326660 29396 L-326334 28570 L-326199 27743 L-325696 27330 L-324283 26504 L-323780 24851 L-323259 23611 L-319699 21958 L-318964 20305 L-316539 20305 L-315250 19479 L-314843 19066 L-311690 19066 L-311535 19066 L-311515 19479 L-311149 19479 L-309890 19892 L-309175 20305 L-308285 20305 L-307878 20305 L-306950 20305 L-305841 19892 L-305538 21545 L-299289 22371 L-298342 23198 L-296716 24024 L-296214 24438 L-292538 24851 L-291706 25264 L-287753 25677 L-286341 24438 L-283852 23611 L-283175 22785 L-283136 22371 L-282266 22371 L-279054 21958 L-276191 21545 L-275223 21132 L-274102 20305 L-274083 19479 L-272458 18652 L-271994 17413 L-271902 17000 L-265532 16586 L-264584 16173 L-262127 15760 L-261255 14933 L-260019 14520 L-258017 14107 L-257620 13280 L-256183 12454 L-254157 12041 L-253944 11214 L-252764 10801 L-251256 10388 L-251235 9975 L-249223 9561 L-248354 8735 L-247483 8322 L-246898 7495 L-246361 6669 L-245703 5842 L-244465 5016 L-243904 4603 L-242723 4190 L-241486 3776 L-241447 3363 L-241060 2950 L-240519 2123 L-239745 1710 L-238623 1297 L-236533 471 L-236200 -355 L-235914 -1181 L-234986 -1595 L-234502 -2421 L-233767 -2834 L-230136 -3247 L-229008 -3661 L-228853 -4074 L-227827 -4900 L-224113 -5314 L-222895 -6140 L-221077 -6966 L-218291 -7380 L-217730 -8206 L-213842 -8206 L-211365 -8619 L-210030 -8619 L-209527 -9033 L-209044 -9446 L-206355 -9446 L-202583 -9446 L-200126 -9446 L-198946 -9446 L-198307 -9859 L-195947 -10685 L-195870 -11099 L-194822 -11512 L-194729 -12338 L-194226 -12338 L-193780 -12338 L-193723 -12338 L-193509 -12338 L-190549 -13165 L-187842 -13578 L-187687 -13991 L-184166 -14404 L-183643 -15231 L-182676 -16057 L-182327 -16471 L-181283 -17297 L-180355 -18123 L-179929 -18537 L-178420 -18537 L-177453 -18950 L-177434 -19363 L-175538 -49528 L-175422 -80520 L-175374 -111099 L-175350 -141677 L-172346 -142090 L-170315 -142917 L-168554 -143330 L-168187 -143743 L-167742 -144570 L-167375 -144983 L-166961 -145809 L-164976 -146223 L-164763 -146223 L-164608 -146636 L-163002 -146636 L-161881 -147049 L-160932 -147462 L-159675 -148289 L-158030 -148702 L-156851 -149528 L-150261 -149942 L-150215 -150355 L-149809 -150768 L-148764 -151181 L-148628 -151595 L-146946 -152421 L-146926 -152834 L-145589 -153661 L-144353 -154074 L-144199 -154487 L-143825 -155314 L-143619 -155727 L-143309 -156140 L-142535 -156966 L-140214 -157380 L-139556 -157793 L-137428 -158206 L-135706 -158619 L-135512 -159446 L-132959 -159859 L-132683 -160685 L-132495 -161512 L-131662 -161925 L-130890 -162338 L-130192 -162752 L-125191 -162752 L-124815 -163578 L-120562 -163991 L-120075 -123082 L-120056 -123082 L-119977 -123495 L-119901 -123909 L-119882 -166057 L-119069 -166471 L-118315 -167297 L-117096 -167710 L-115664 -167710 L-115568 -168123 L-115393 -168123 L-115039 -168950 L-113730 -169363 L-111872 -169776 L-110170 -170603 L-109667 -171016 L-109402 -171429 L-109009 -171842 L-108875 -172256 L-107965 -172669 L-107588 -173082 L-106660 -173082 L-106321 -173495 L-106281 -173495 L-106244 -173909 L-104328 -173909 L-104154 -174322 L-102626 -174322 L-102297 -174735 L-102181 -175148 L-101774 -175975 L-101426 -176388 L-99782 -177214 L-99231 -177628 L-98988 -178041 L-98447 -178454 L-97616 -179280 L-97074 -179694 L-95539 -180520 L-95447 -180933 L-95410 -181347 L-95274 -181760 L-94887 -182173 L-93862 -182586 L-91986 -183000 L-91890 -183413 L-91289 -170190 L-90922 -156140 L-90438 -141677 L-90400 -127628 L-89626 -126801 L-89568 -127214 L-89394 -128041 L-89200 -128454 L-87595 -129280 L-87575 -129694 L-87420 -128867 L-87304 -128454 L-86125 -128041 L-85970 -126801 L-85303 -126801 L-82855 -92917 L-80340 -58206 L-77670 -24735 L-69971 8735 L-64303 8735 L-62089 8322 L-62065 8322 L-61091 16586 L-61072 16586 L-60208 15760 L-57468 15347 L-51669 6669 L-51516 5842 L-48730 5429 L-35121 4603 L-34376 4190 L-29965 3363 L-13619 2950 L-13386 2123 L-12849 1710 L-4390 1297 L4315 884 L4527 471 L6500 57" />
</svg>
