<svg xmlns="http://www.w3.org/2000/svg" version="1.1" viewBox="0 0 6500 1000">
	<path fill="none" stroke="gold" stroke-width="125" stroke-linecap="round" stroke-linejoin="round" d="M0 18578  L-265131 18578 L-262527 18504 L-260859 18429 L-242529 18280 L-242359 18131 L-235201 17982 L-235168 17982 L-221737 17907 L-218815 17982 L-205474 17758 L-201305 17460 L-200145 17087 L-199526 16714 L-197514 16490 L-193743 16341 L-193142 16192 L-192814 16043 L-192601 15894 L-192059 15744 L-190821 15148 L-189642 14551 L-186778 13955 L-186255 13358 L-181400 13209 L-178463 13060 L-178420 12911 L-178111 12762 L-177860 12612 L-175265 12463 L-171009 12463 L-170991 12463 L-169754 12463 L-167877 12463 L-165923 12314 L-164976 12165 L-164705 12016 L-164395 11941 L-164297 11867 L-163466 11867 L-161436 11941 L-161145 11270 L-158999 10972 L-158843 10524 L-155187 10077 L-154936 10301 L-154837 10226 L-154320 10450 L-152169 10823 L-151240 11196 L-149714 11568 L-148475 11568 L-146928 11494 L-143966 11345 L-142845 11196 L-142535 11046 L-141324 10972 L-138317 11792 L-138298 11718 L-137951 11643 L-137737 11568 L-137611 10524 L-137370 10375 L-137332 10226 L-137312 10077 L-137293 9928 L-137234 9779 L-137175 9630 L-137157 9480 L-136714 9331 L-135475 9182 L-133929 9033 L-130541 8884 L-124815 8809 L-124613 8735 L-122978 8660 L-121256 8586 L-119824 8511 L-119591 8436 L-118876 8362 L-112744 8287 L-112376 8138 L-112222 7989 L-111643 7840 L-111351 7691 L-110383 7542 L-110074 7392 L-109475 7243 L-107868 7243 L-107133 7243 L-106823 7318 L-106055 7318 L-104019 7169 L-103594 7020 L-102781 6945 L-95353 6796 L-94830 6647 L-94656 6498 L-93921 6348 L-92353 6199 L-91948 6125 L-89723 5976 L-88775 5901 L-88350 5826 L-88019 5826 L-86976 5752 L-84868 5603 L-84615 5454 L-83997 5304 L-83184 5230 L-81076 5081 L-81027 4932 L-79099 4782 L-78774 4633 L-78638 4484 L-78135 4410 L-76723 4260 L-76220 3962 L-75698 3739 L-72138 3440 L-71403 3142 L-68978 3142 L-67689 2993 L-67282 2918 L-64129 2918 L-63975 2918 L-63954 2993 L-63588 2993 L-62330 3067 L-61615 3142 L-60725 3142 L-60318 3142 L-59389 3142 L-58281 3067 L-57977 3366 L-51728 3515 L-50781 3664 L-49155 3813 L-48653 3888 L-44977 3962 L-44145 4037 L-40192 4111 L-38780 3888 L-36291 3739 L-35614 3589 L-35576 3515 L-34705 3515 L-31494 3440 L-28631 3366 L-27663 3291 L-26541 3142 L-26522 2993 L-24897 2844 L-24433 2620 L-24341 2545 L-17972 2471 L-17023 2396 L-14566 2322 L-13694 2173 L-12458 2098 L-10457 2023 L-10059 1874 L-8623 1725 L-6597 1651 L-6383 1501 L-5203 1427 L-3695 1352 L-3675 1278 L-1662 1203 L-793 1054 L77 979 L662 830 L1199 681 L1857 532 L3095 383 L3655 308 L4836 234 L6074 159 L6113 85 L6500 10" />
</svg>
