<svg xmlns="http://www.w3.org/2000/svg" version="1.1" viewBox="0 0 6500 1000">
	<path fill="none" stroke="gold" stroke-width="125" stroke-linecap="round" stroke-linejoin="round" d="M0 2603  L-721620 2603 L-719016 2602 L-717348 2602 L-699018 2602 L-698848 2602 L-691690 2602 L-691657 2602 L-678226 2601 L-675304 2602 L-661964 2601 L-657795 2601 L-656635 2600 L-656015 2599 L-654004 2599 L-650232 2599 L-649632 2599 L-649303 2598 L-649090 2598 L-648548 2598 L-647310 2597 L-646131 2596 L-643267 2595 L-642745 2594 L-637889 2593 L-634952 2593 L-634909 2593 L-634601 2593 L-634349 2592 L-631754 2592 L-627498 2592 L-627480 2592 L-626244 2592 L-624366 2592 L-622413 2592 L-621465 2592 L-621194 2591 L-620884 2591 L-620786 2591 L-619956 2591 L-617925 2591 L-617634 2590 L-615488 2590 L-615333 2589 L-611676 2588 L-611425 2589 L-611327 2588 L-610809 2589 L-608658 2589 L-607729 2590 L-606203 2591 L-604964 2591 L-603417 2591 L-600456 2590 L-599334 2590 L-599025 2590 L-597813 2590 L-594807 2591 L-594787 2591 L-594440 2591 L-594227 2591 L-594100 2589 L-593859 2589 L-593821 2588 L-593801 2588 L-593782 2588 L-593723 2588 L-593664 2587 L-593646 2587 L-593203 2587 L-591964 2587 L-590418 2586 L-587030 2586 L-581304 2586 L-581103 2586 L-579467 2586 L-577745 2586 L-576313 2586 L-576080 2585 L-575365 2585 L-569233 2585 L-568865 2585 L-568711 2585 L-568132 2584 L-567840 2584 L-566872 2584 L-566563 2584 L-565964 2583 L-564358 2583 L-563623 2583 L-563313 2583 L-562544 2583 L-560508 2583 L-560083 2583 L-559270 2583 L-551842 2583 L-551319 2582 L-551145 2582 L-550410 2582 L-548843 2582 L-548437 2581 L-546212 2581 L-545264 2581 L-544839 2581 L-544509 2581 L-543465 2581 L-541357 2581 L-541105 2580 L-540486 2580 L-539673 2580 L-537565 2580 L-537517 2579 L-535588 2579 L-535263 2579 L-535128 2579 L-534625 2579 L-533212 2578 L-532709 2578 L-532187 2577 L-528627 2577 L-527892 2576 L-525468 2576 L-524178 2576 L-523771 2576 L-520619 2576 L-520464 2576 L-520444 2576 L-520077 2576 L-518819 2576 L-518104 2576 L-517214 2576 L-516807 2576 L-515878 2576 L-514770 2576 L-514466 2577 L-508218 2577 L-507270 2577 L-505644 2578 L-505142 2578 L-501467 2578 L-500634 2578 L-496681 2578 L-495269 2578 L-492780 2577 L-492104 2577 L-492065 2577 L-491194 2577 L-487983 2577 L-485120 2577 L-484152 2577 L-483030 2576 L-483011 2576 L-481386 2576 L-480922 2576 L-480830 2575 L-474461 2575 L-473513 2575 L-471055 2575 L-470183 2575 L-468947 2575 L-466946 2575 L-466548 2574 L-465112 2574 L-463086 2574 L-462873 2574 L-461692 2574 L-460184 2573 L-460164 2573 L-458152 2573 L-457282 2573 L-456411 2573 L-455826 2573 L-455289 2572 L-454632 2572 L-453393 2572 L-452833 2572 L-451652 2571 L-450414 2571 L-450376 2571 L-449989 2571 L-449447 2571 L-448673 2571 L-447551 2571 L-445462 2570 L-445128 2570 L-444843 2570 L-443914 2570 L-443431 2569 L-442696 2569 L-439064 2569 L-437937 2569 L-437782 2569 L-436756 2569 L-433041 2569 L-431824 2568 L-430005 2568 L-427220 2568 L-426658 2568 L-422770 2568 L-420294 2568 L-418959 2568 L-418455 2567 L-417972 2567 L-415283 2567 L-411511 2567 L-409054 2567 L-407874 2567 L-407235 2567 L-404876 2567 L-404798 2567 L-403751 2567 L-403657 2566 L-403154 2566 L-402709 2566 L-402651 2566 L-402438 2566 L-399478 2566 L-396770 2566 L-396616 2566 L-393095 2566 L-392572 2566 L-391605 2565 L-391255 2565 L-390212 2565 L-389283 2565 L-388858 2565 L-387349 2565 L-386382 2564 L-386363 2564 L-384467 2555 L-384351 2546 L-384303 2536 L-384278 2527 L-381274 2527 L-379244 2527 L-377483 2526 L-377116 2526 L-376670 2526 L-376303 2526 L-375889 2526 L-373904 2526 L-373691 2526 L-373536 2525 L-371931 2525 L-370809 2525 L-369861 2525 L-368604 2525 L-366959 2525 L-365779 2525 L-359190 2524 L-359143 2524 L-358738 2524 L-357692 2524 L-357557 2524 L-355874 2524 L-355855 2524 L-354518 2523 L-353282 2523 L-353127 2523 L-352753 2523 L-352547 2523 L-352238 2523 L-351464 2522 L-349142 2522 L-348485 2522 L-346357 2522 L-344634 2522 L-344441 2521 L-341887 2521 L-341611 2521 L-341423 2521 L-340590 2521 L-339818 2521 L-339120 2520 L-334119 2520 L-333743 2520 L-329491 2520 L-329004 2533 L-328984 2533 L-328905 2532 L-328830 2532 L-328810 2519 L-327997 2519 L-327244 2519 L-326024 2519 L-324593 2519 L-324496 2519 L-324322 2519 L-323967 2519 L-322658 2518 L-320801 2518 L-319099 2518 L-318596 2518 L-318330 2518 L-317937 2518 L-317803 2518 L-316893 2517 L-316517 2517 L-315588 2517 L-315249 2517 L-315210 2517 L-315172 2517 L-313256 2517 L-313083 2517 L-311554 2517 L-311226 2517 L-311110 2517 L-310703 2516 L-310354 2516 L-308711 2516 L-308160 2516 L-307917 2516 L-307375 2516 L-306544 2515 L-306002 2515 L-304468 2515 L-304376 2515 L-304339 2515 L-304203 2515 L-303816 2515 L-302791 2514 L-300914 2514 L-300818 2514 L-300218 2518 L-299851 2523 L-299366 2527 L-299328 2531 L-298554 2531 L-298497 2531 L-298322 2531 L-298129 2531 L-296523 2531 L-296503 2531 L-296348 2531 L-296233 2531 L-295053 2531 L-294898 2531 L-294231 2531 L-291783 2542 L-289268 2552 L-286599 2563 L-278899 2573 L-273232 2573 L-271017 2573 L-270994 2573 L-270020 2575 L-270000 2575 L-269136 2575 L-266396 2575 L-260598 2572 L-260444 2572 L-257658 2572 L-244050 2572 L-243304 2571 L-238893 2571 L-222547 2571 L-222315 2571 L-221778 2571 L-213318 2571 L-204613 2570 L-204401 2570 L-202428 2570 L-199642 2570 L-195154 2570 L-194999 2570 L-194830 2570 L-194690 2570 L-194399 2570 L-194361 2570 L-194090 2570 L-193918 2569 L-193508 2569 L-192388 2569 L-191207 2569 L-189930 2569 L-187067 2569 L-184146 2569 L-182154 2569 L-180607 2568 L-177569 2568 L-168244 2568 L-167720 2568 L-161996 2568 L-160489 2568 L-159675 2568 L-157991 2568 L-157270 2567 L-157102 2567 L-156057 2567 L-153989 2567 L-152627 2567 L-148184 2567 L-148087 2567 L-148048 2567 L-148029 2566 L-147197 2566 L-147119 2566 L-144546 2566 L-141297 2566 L-141142 2566 L-140194 2566 L-138453 2565 L-137738 2566 L-134197 2567 L-127619 2567 L-126202 2568 L-126181 2568 L-125231 2568 L-121757 2568 L-121003 2568 L-120442 2568 L-119660 2568 L-112155 2567 L-110557 2567 L-108983 2567 L-105798 2567 L-101465 2567 L-92895 2567 L-84149 2567 L-81075 2567 L-77809 2566 L-77262 2566 L-70125 2566 L-64457 2566 L-50393 2566 L-44382 2566 L-39675 2566 L-35672 2566 L-30565 2566 L-20851 2566 L-5280 2565 L-2197 2565 L-1895 2508 L-1875 2438 L-1857 2359 L-1837 2270 L-1817 2230 L-1798 2195 L-1779 2164 L-1752 2133 L-1731 2103 L-1703 2071 L-1668 2036 L-1654 2006 L-1641 1981 L-1622 1960 L-1604 1944 L-1584 1928 L-1566 1912 L-1546 1896 L-1526 1880 L-1505 1863 L-1488 1846 L-1470 1830 L-1449 1815 L-1429 1799 L-1411 1782 L-1392 1765 L-1372 1747 L-1352 1729 L-1334 1713 L-1315 1697 L-1294 1681 L-1269 1666 L-1254 1651 L-1237 1637 L-1218 1622 L-1198 1607 L-1179 1592 L-1160 1576 L-1140 1561 L-1119 1547 L-1102 1533 L-1083 1520 L-1062 1508 L-1042 1496 L-1024 1486 L-1005 1476 L-985 1467 L-967 1458 L-947 1449 L-928 1441 L-908 1434 L-889 1427 L-869 1420 L-851 1414 L-823 1405 L-802 1396 L-775 1386 L-741 1376 L-726 1367 L-713 1359 L-695 1352 L-676 1345 L-656 1339 L-637 1331 L-618 1324 L-598 1317 L-577 1310 L-560 1304 L-541 1297 L-521 1290 L-501 1282 L-482 1273 L-464 1263 L-444 1254 L-424 1244 L-405 1234 L-386 1223 L-365 1212 L-341 1200 L-326 1187 L-309 1176 L-289 1164 L-270 1153 L-250 1141 L-232 1128 L-212 1116 L-191 1104 L-173 1093 L-154 1081 L-134 1071 L-114 1060 L-96 1050 L-77 1041 L-57 1031 L-38 1023 L-18 1014 L0 1006 L19 998 L39 989 L58 981 L77 973 L106 964 L125 957 L153 949 L190 939 L206 930 L218 922 L235 914 L252 908 L272 903 L290 898 L310 893 L330 888 L350 883 L368 878 L386 872 L407 867 L427 861 L445 854 L464 848 L484 840 L503 833 L522 825 L541 818 L562 811 L587 803 L601 796 L618 788 L638 781 L657 773 L677 766 L696 757 L716 749 L736 742 L755 734 L773 727 L794 720 L814 714 L832 707 L851 701 L871 695 L889 688 L909 682 L928 676 L948 670 L967 664 L987 659 L1006 653 L1034 647 L1054 641 L1082 634 L1118 624 L1132 616 L1145 607 L1163 600 L1181 596 L1201 591 L1219 585 L1239 579 L1259 572 L1280 565 L1298 558 L1315 550 L1336 542 L1356 533 L1374 524 L1393 515 L1413 505 L1433 496 L1451 488 L1470 481 L1491 475 L1516 470 L1531 466 L1548 462 L1567 457 L1587 452 L1606 447 L1625 442 L1645 437 L1666 434 L1683 430 L1702 425 L1723 420 L1743 414 L1760 407 L1779 403 L1800 399 L1818 396 L1838 393 L1857 390 L1877 387 L1896 384 L1915 380 L1934 377 L1962 374 L1982 371 L2010 367 L2045 363 L2059 359 L2072 356 L2091 354 L2109 351 L2129 349 L2148 346 L2167 344 L2187 341 L2208 339 L2225 337 L2244 334 L2264 331 L2284 328 L2302 325 L2321 323 L2341 320 L2361 318 L2380 315 L2398 313 L2420 311 L2445 308 L2459 306 L2476 304 L2496 302 L2515 299 L2534 297 L2553 294 L2573 291 L2594 289 L2612 286 L2631 284 L2651 281 L2672 279 L2689 277 L2708 275 L2728 273 L2747 271 L2767 269 L2785 267 L2805 265 L2825 264 L2844 262 L2863 265 L2891 267 L2911 270 L2939 272 L2976 270 L2992 268 L3004 267 L3022 265 L3038 264 L3058 263 L3076 261 L3096 260 L3116 258 L3137 257 L3154 256 L3172 255 L3193 253 L3213 252 L3231 250 L3250 249 L3270 247 L3290 246 L3308 244 L3327 243 L3348 242 L3373 241 L3387 239 L3405 238 L3424 236 L3444 235 L3463 233 L3482 232 L3502 230 L3523 228 L3540 226 L3559 224 L3580 222 L3600 220 L3618 218 L3637 217 L3656 215 L3675 213 L3695 211 L3714 209 L3734 207 L3753 206 L3773 204 L3791 203 L3819 201 L3840 200 L3867 198 L3902 196 L3916 194 L3929 193 L3948 191 L3967 190 L3987 188 L4005 187 L4024 185 L4044 184 L4065 182 L4082 180 L4101 179 L4121 177 L4141 175 L4160 173 L4178 171 L4198 168 L4219 166 L4237 164 L4255 162 L4277 160 L4302 157 L4316 155 L4334 153 L4353 150 L4373 148 L4392 146 L4411 144 L4431 142 L4451 139 L4469 137 L4488 135 L4508 133 L4529 132 L4546 130 L4565 128 L4585 127 L4604 126 L4624 124 L4642 123 L4662 122 L4682 121 L4701 120 L4720 119 L4747 118 L4768 116 L4796 115 L4831 113 L4845 111 L4858 108 L4877 106 L4895 105 L4915 104 L4933 102 L4953 101 L4973 99 L4994 98 L5011 96 L5029 95 L5050 93 L5070 91 L5088 89 L5107 88 L5127 86 L5147 84 L5165 82 L5184 81 L5205 80 L5230 78 L5245 77 L5262 75 L5281 74 L5301 72 L5320 70 L5339 68 L5359 66 L5380 63 L5397 61 L5416 59 L5437 57 L5458 55 L5475 54 L5494 53 L5514 52 L5533 51 L5552 50 L5571 49 L5591 47 L5611 46 L5630 45 L5648 44 L5676 43 L5697 42 L5724 41 L5759 40 L5773 39 L5786 38 L5805 37 L5823 36 L5843 35 L5862 35 L5881 34 L5901 33 L5922 32 L5939 31 L5958 31 L5978 30 L5998 29 L6016 28 L6035 27 L6055 26 L6075 25 L6094 25 L6113 24 L6134 24 L6158 23 L6173 22 L6190 21 L6210 20 L6229 19 L6249 18 L6267 18 L6287 16 L6308 15 L6326 13 L6345 11 L6365 10 L6386 8 L6403 7 L6422 6 L6442 4 L6461 3 L6481 2 L6500 1" />
</svg>
