<svg xmlns="http://www.w3.org/2000/svg" version="1.1" viewBox="0 0 6500 1000">
	<path fill="none" stroke="gold" stroke-width="125" stroke-linecap="round" stroke-linejoin="round" d="M0 70214  L-163801 70214 L-161197 69776 L-159529 69337 L-141199 68460 L-141029 67583 L-133871 66706 L-133838 66706 L-120407 66267 L-117485 66706 L-104144 65390 L-99975 63635 L-98815 61442 L-98196 59250 L-96184 57934 L-92412 57057 L-91812 56179 L-91484 55302 L-91271 54425 L-90729 53548 L-89491 50039 L-88312 46530 L-85448 43021 L-84925 39513 L-80070 38635 L-77133 37758 L-77090 36881 L-76781 36004 L-76529 35127 L-73934 34250 L-69679 34250 L-69661 34250 L-68424 34250 L-66547 34250 L-64593 33372 L-63645 32495 L-63375 31618 L-63065 31179 L-62967 30741 L-62136 30741 L-60105 31179 L-59815 27232 L-57669 25478 L-57513 22846 L-53857 20214 L-53606 21530 L-53507 21092 L-52990 22407 L-50839 24600 L-49910 26793 L-48384 28986 L-47145 28986 L-45598 28548 L-42636 27671 L-41514 26793 L-41205 25916 L-39994 25478 L-36987 30302 L-36968 29864 L-36620 29425 L-36407 28986 L-36281 22846 L-36039 21969 L-36002 21092 L-35982 20214 L-35963 19337 L-35904 18460 L-35845 17583 L-35827 16706 L-35384 15828 L-34145 14951 L-32599 14074 L-29211 13197 L-23485 12758 L-23283 12320 L-21647 11881 L-19926 11442 L-18493 11004 L-18261 10565 L-17546 10127 L-11414 9688 L-11046 8811 L-10891 7934 L-10313 7057 L-10020 6179 L-9053 5302 L-8744 4425 L-8145 3548 L-6538 3548 L-5803 3548 L-5493 3986 L-4725 3986 L-2689 3109 L-2264 2232 L-1451 1793 L5976 916 L6500 39" />
</svg>
