<svg xmlns="http://www.w3.org/2000/svg" version="1.1" viewBox="0 0 6500 1000">
	<path fill="none" stroke="gold" stroke-width="125" stroke-linecap="round" stroke-linejoin="round" d="M0 57316  L-361838 57316 L-359234 57224 L-357566 57133 L-339236 56951 L-339066 56769 L-331908 56587 L-331875 56587 L-318444 56496 L-315522 56587 L-302182 56314 L-298013 55949 L-296852 55494 L-296233 55039 L-294221 54765 L-290450 54583 L-289850 54401 L-289521 54219 L-289308 54037 L-288766 53855 L-287528 53126 L-286349 52397 L-283485 51669 L-282963 50940 L-278107 50758 L-275170 50576 L-275127 50394 L-274819 50212 L-274567 50030 L-271972 49847 L-267716 49847 L-267698 49847 L-266462 49847 L-264584 49847 L-262631 49665 L-261683 49483 L-261412 49301 L-261102 49210 L-261004 49119 L-260174 49119 L-258143 49210 L-257852 48390 L-255706 48026 L-255551 47479 L-251894 46933 L-251643 47206 L-251545 47115 L-251027 47388 L-248876 47844 L-247947 48299 L-246421 48755 L-245182 48755 L-243635 48663 L-240674 48481 L-239552 48299 L-239243 48117 L-238031 48026 L-235025 49028 L-235005 48937 L-234658 48846 L-234445 48755 L-234318 47479 L-234077 47297 L-234039 47115 L-234019 46933 L-234000 46751 L-233941 46569 L-233882 46387 L-233864 46204 L-233421 46022 L-232182 45840 L-230636 45658 L-227248 45476 L-221522 45385 L-221321 45294 L-219685 45203 L-217963 45112 L-216531 45020 L-216298 44929 L-215583 44838 L-209451 44747 L-209083 44565 L-208929 44383 L-208350 44201 L-208058 44019 L-207090 43836 L-206781 43654 L-206182 43472 L-204576 43472 L-203840 43472 L-203531 43563 L-202762 43563 L-200726 43381 L-200301 43199 L-199488 43108 L-192060 42926 L-191537 42744 L-191363 42561 L-190628 42379 L-189061 42197 L-188655 42106 L-186430 41924 L-185482 41833 L-185057 41742 L-184727 41742 L-183683 41651 L-181575 41469 L-181323 41286 L-180704 41104 L-179891 41013 L-177783 40831 L-177735 40649 L-175806 40467 L-175481 40285 L-175346 40102 L-174842 40011 L-173430 39829 L-172927 39465 L-172405 39192 L-168845 38827 L-168110 38463 L-165685 38463 L-164396 38281 L-163989 38190 L-160837 38190 L-160682 38190 L-160662 38281 L-160295 38281 L-159037 38372 L-158322 38463 L-157432 38463 L-157025 38463 L-156096 38463 L-154988 38372 L-154684 38736 L-148436 38918 L-147488 39101 L-145862 39283 L-145360 39374 L-141685 39465 L-140852 39556 L-136899 39647 L-135487 39374 L-132998 39192 L-132322 39010 L-132283 38918 L-131412 38918 L-128201 38827 L-125338 38736 L-124370 38645 L-123248 38463 L-123229 38281 L-121604 38099 L-121140 37826 L-121048 37734 L-114679 37643 L-113730 37552 L-111273 37461 L-110401 37279 L-109165 37188 L-107164 37097 L-106766 36915 L-105330 36733 L-103304 36642 L-103091 36459 L-101910 36368 L-100402 36277 L-100382 36186 L-98370 36095 L-97500 35913 L-96629 35822 L-96044 35640 L-95507 35458 L-94850 35275 L-93611 35093 L-93051 35002 L-91870 34911 L-90632 34820 L-90594 34729 L-90207 34638 L-89665 34456 L-88891 34365 L-87769 34274 L-85680 34091 L-85346 33909 L-85061 33727 L-84132 33636 L-83649 33454 L-82914 33363 L-79282 33272 L-78155 33181 L-78000 33090 L-76974 32908 L-73259 32816 L-72042 32634 L-70223 32452 L-67438 32361 L-66876 32179 L-62988 32179 L-60512 32088 L-59177 32088 L-58673 31997 L-58190 31906 L-55501 31906 L-51729 31906 L-49272 31906 L-48092 31906 L-47453 31815 L-45094 31632 L-45016 31541 L-43969 31450 L-43875 31268 L-43372 31268 L-42927 31268 L-42869 31268 L-42656 31268 L-39696 31086 L-36988 30995 L-36834 30904 L-33313 30813 L-32790 30631 L-31823 30448 L-31473 30357 L-30430 30175 L-29501 29993 L-29076 29902 L-27567 29902 L-26600 29811 L-26581 29720 L-24685 23071 L-24569 16241 L-24521 9501 L-24496 2762 L-21492 2671 L-19461 2489 L-17701 2397 L-17334 2306 L-16888 2124 L-16521 2033 L-16107 1851 L-14122 1760 L-13909 1760 L-13754 1669 L-12149 1669 L-11027 1578 L-10079 1487 L-8821 1305 L-7177 1214 L-5997 1031 L591 940 L638 849 L1044 758 L2089 667 L2224 576 L3907 394 L3927 303 L5263 121 L6500 30" />
</svg>
