<svg xmlns="http://www.w3.org/2000/svg" version="1.1" viewBox="0 0 6500 1000">
	<path fill="none" stroke="gold" stroke-width="125" stroke-linecap="round" stroke-linejoin="round" d="M0 3976  L-723749 3976 L-721145 3976 L-719477 3976 L-701148 3975 L-700978 3975 L-693820 3975 L-693787 3975 L-680356 3975 L-677434 3975 L-664093 3974 L-659924 3973 L-658764 3973 L-658145 3972 L-656133 3971 L-652361 3971 L-651761 3970 L-651433 3970 L-651220 3970 L-650678 3969 L-649440 3968 L-648261 3966 L-645396 3965 L-644874 3963 L-640019 3963 L-637081 3963 L-637039 3962 L-636730 3962 L-636478 3961 L-633883 3961 L-629628 3961 L-629610 3961 L-628373 3961 L-626496 3961 L-624542 3961 L-623594 3960 L-623323 3960 L-623014 3960 L-622916 3960 L-622085 3960 L-620054 3960 L-619764 3958 L-617618 3957 L-617462 3956 L-613806 3955 L-613555 3956 L-613456 3956 L-612939 3956 L-610788 3957 L-609859 3958 L-608333 3959 L-607093 3959 L-605547 3959 L-602585 3958 L-601463 3958 L-601154 3958 L-599943 3957 L-596936 3959 L-596917 3959 L-596569 3959 L-596356 3959 L-596230 3956 L-595988 3956 L-595950 3956 L-595931 3955 L-595911 3955 L-595853 3954 L-595794 3954 L-595776 3954 L-595333 3953 L-594093 3953 L-592548 3953 L-589160 3952 L-583434 3952 L-583232 3952 L-581596 3952 L-579874 3951 L-578442 3951 L-578210 3951 L-577495 3951 L-571362 3951 L-570995 3950 L-570840 3950 L-570262 3950 L-569969 3949 L-569002 3949 L-568692 3948 L-568093 3948 L-566487 3948 L-565752 3948 L-565442 3948 L-564674 3948 L-562638 3948 L-562213 3948 L-561400 3947 L-553971 3947 L-553448 3947 L-553275 3946 L-552540 3946 L-550972 3946 L-550566 3945 L-548341 3945 L-547393 3945 L-546969 3945 L-546638 3945 L-545594 3944 L-543486 3944 L-543234 3944 L-542615 3943 L-541803 3943 L-539695 3943 L-539646 3942 L-537718 3942 L-537392 3942 L-537257 3941 L-536754 3941 L-535341 3941 L-534838 3940 L-534317 3939 L-530757 3939 L-530022 3938 L-527597 3938 L-526308 3938 L-525901 3937 L-522748 3937 L-522593 3937 L-522573 3938 L-522207 3938 L-520948 3938 L-520233 3938 L-519343 3938 L-518936 3938 L-518008 3938 L-516899 3938 L-516596 3939 L-510347 3939 L-509400 3939 L-507774 3940 L-507272 3940 L-503596 3940 L-502764 3940 L-498811 3940 L-497399 3940 L-494910 3939 L-494233 3939 L-494194 3939 L-493324 3939 L-490112 3939 L-487249 3939 L-486281 3938 L-485160 3938 L-485141 3938 L-483516 3937 L-483052 3937 L-482960 3936 L-476591 3936 L-475642 3936 L-473185 3936 L-472313 3936 L-471077 3935 L-469075 3935 L-468678 3935 L-467241 3934 L-465215 3934 L-465002 3934 L-463822 3934 L-462314 3934 L-462293 3933 L-460281 3933 L-459412 3933 L-458541 3933 L-457956 3932 L-457419 3932 L-456761 3931 L-455523 3931 L-454962 3931 L-453781 3931 L-452544 3931 L-452505 3930 L-452118 3930 L-451577 3930 L-450803 3930 L-449681 3929 L-447591 3929 L-447258 3929 L-446972 3928 L-446044 3928 L-445561 3928 L-444825 3928 L-441194 3927 L-440066 3927 L-439911 3927 L-438885 3927 L-435171 3926 L-433953 3926 L-432135 3926 L-429349 3926 L-428788 3925 L-424900 3925 L-422423 3925 L-421088 3925 L-420585 3925 L-420102 3925 L-417413 3925 L-413641 3925 L-411184 3925 L-410004 3925 L-409365 3924 L-407005 3924 L-406928 3924 L-405880 3924 L-405787 3923 L-405284 3923 L-404838 3923 L-404781 3923 L-404567 3923 L-401608 3923 L-398900 3923 L-398745 3923 L-395224 3922 L-394701 3922 L-393734 3922 L-393385 3921 L-392341 3921 L-391413 3921 L-390987 3921 L-389478 3921 L-388511 3920 L-388492 3920 L-386596 3907 L-386480 3893 L-386432 3879 L-386408 3865 L-383404 3865 L-381373 3865 L-379612 3865 L-379245 3865 L-378800 3864 L-378433 3864 L-378019 3864 L-376034 3863 L-375821 3863 L-375666 3863 L-374060 3863 L-372939 3863 L-371990 3863 L-370733 3863 L-369088 3862 L-367909 3862 L-361319 3862 L-361273 3862 L-360867 3861 L-359822 3861 L-359687 3861 L-358004 3861 L-357984 3860 L-356647 3860 L-355411 3860 L-355257 3860 L-354883 3859 L-354677 3859 L-354367 3859 L-353593 3859 L-351272 3858 L-350614 3858 L-348486 3858 L-346764 3858 L-346570 3858 L-344017 3857 L-343741 3857 L-343553 3857 L-342720 3856 L-341948 3856 L-341250 3856 L-336249 3856 L-335873 3856 L-331620 3855 L-331133 3874 L-331114 3874 L-331035 3874 L-330959 3873 L-330940 3855 L-330127 3854 L-329373 3854 L-328154 3854 L-326722 3854 L-326626 3854 L-326451 3854 L-326097 3853 L-324788 3853 L-322930 3853 L-321228 3853 L-320725 3852 L-320460 3852 L-320067 3852 L-319933 3852 L-319023 3852 L-318646 3851 L-317718 3851 L-317379 3851 L-317339 3851 L-317302 3851 L-315386 3851 L-315212 3851 L-313684 3851 L-313355 3851 L-313239 3850 L-312832 3850 L-312484 3850 L-310840 3850 L-310289 3849 L-310046 3849 L-309505 3849 L-308674 3849 L-308132 3848 L-306597 3848 L-306505 3848 L-306468 3848 L-306332 3848 L-305945 3847 L-304920 3847 L-303044 3847 L-302948 3847 L-302347 3853 L-301980 3859 L-301496 3865 L-301458 3872 L-300684 3872 L-300626 3872 L-300452 3872 L-300258 3871 L-298653 3871 L-298633 3871 L-298478 3871 L-298362 3871 L-297183 3872 L-297028 3872 L-296361 3872 L-293913 3887 L-291398 3903 L-288728 3918 L-281029 3933 L-275361 3933 L-273147 3933 L-273123 3933 L-272150 3936 L-272130 3936 L-271266 3936 L-268526 3936 L-262727 3932 L-262574 3931 L-259788 3931 L-246179 3931 L-245434 3931 L-241023 3930 L-224677 3930 L-224445 3930 L-223907 3930 L-215448 3929 L-206742 3929 L-206530 3929 L-204558 3929 L-201771 3929 L-197284 3929 L-197129 3929 L-196960 3929 L-196820 3929 L-196529 3928 L-196490 3928 L-196219 3928 L-196048 3928 L-195638 3928 L-194517 3927 L-193337 3927 L-192060 3927 L-189196 3927 L-186276 3927 L-184284 3926 L-182736 3926 L-179698 3926 L-170374 3926 L-169850 3926 L-164126 3926 L-162619 3925 L-161804 3925 L-160121 3925 L-159400 3925 L-159231 3925 L-158186 3924 L-156119 3924 L-154757 3924 L-150314 3924 L-150216 3924 L-150178 3924 L-150159 3923 L-149326 3923 L-149249 3923 L-146676 3923 L-143427 3922 L-143272 3922 L-142324 3922 L-140583 3922 L-139867 3923 L-136326 3924 L-129749 3925 L-128332 3926 L-128311 3926 L-127361 3926 L-123886 3926 L-123133 3925 L-122571 3925 L-121789 3925 L-114285 3925 L-112687 3925 L-111113 3924 L-107927 3924 L-103594 3924 L-95025 3924 L-86278 3924 L-83204 3924 L-79938 3923 L-79392 3923 L-72255 3923 L-66587 3923 L-52522 3923 L-46511 3923 L-41805 3923 L-37802 3923 L-32694 3922 L-22980 3922 L-7410 3922 L-4327 3921 L-4025 3838 L-4005 3736 L-3986 3619 L-3966 3489 L-3947 3430 L-3927 3380 L-3909 3334 L-3881 3289 L-3860 3245 L-3833 3198 L-3797 3147 L-3784 3103 L-3770 3066 L-3752 3034 L-3733 3012 L-3713 2988 L-3695 2965 L-3676 2941 L-3656 2917 L-3635 2893 L-3618 2869 L-3599 2845 L-3579 2823 L-3559 2800 L-3540 2775 L-3522 2750 L-3502 2723 L-3482 2698 L-3463 2673 L-3444 2649 L-3423 2627 L-3398 2604 L-3384 2583 L-3367 2561 L-3347 2540 L-3328 2519 L-3309 2496 L-3290 2473 L-3270 2451 L-3249 2430 L-3231 2410 L-3212 2391 L-3192 2373 L-3171 2356 L-3154 2341 L-3135 2327 L-3115 2313 L-3096 2299 L-3076 2286 L-3058 2275 L-3038 2264 L-3018 2255 L-2999 2245 L-2980 2235 L-2953 2222 L-2932 2210 L-2904 2195 L-2870 2179 L-2856 2166 L-2843 2155 L-2824 2144 L-2805 2135 L-2785 2126 L-2767 2115 L-2747 2104 L-2727 2093 L-2707 2083 L-2689 2074 L-2671 2064 L-2650 2054 L-2631 2042 L-2612 2029 L-2593 2015 L-2573 2001 L-2554 1986 L-2535 1971 L-2516 1956 L-2495 1940 L-2471 1921 L-2456 1904 L-2439 1887 L-2419 1870 L-2400 1853 L-2380 1835 L-2361 1817 L-2341 1799 L-2321 1782 L-2303 1765 L-2284 1748 L-2264 1733 L-2243 1717 L-2225 1702 L-2206 1689 L-2186 1675 L-2168 1663 L-2148 1650 L-2129 1638 L-2109 1626 L-2090 1613 L-2070 1601 L-2052 1589 L-2023 1577 L-2003 1566 L-1975 1554 L-1938 1540 L-1923 1527 L-1911 1514 L-1893 1503 L-1876 1494 L-1857 1487 L-1838 1479 L-1819 1472 L-1799 1466 L-1778 1458 L-1761 1451 L-1742 1442 L-1722 1434 L-1702 1425 L-1684 1416 L-1665 1406 L-1645 1395 L-1625 1384 L-1606 1373 L-1587 1362 L-1566 1352 L-1542 1341 L-1527 1330 L-1510 1319 L-1490 1308 L-1471 1297 L-1451 1286 L-1433 1274 L-1413 1262 L-1392 1251 L-1374 1240 L-1355 1230 L-1335 1219 L-1315 1210 L-1297 1201 L-1278 1191 L-1258 1182 L-1239 1173 L-1219 1163 L-1200 1155 L-1181 1146 L-1161 1138 L-1142 1129 L-1123 1120 L-1095 1112 L-1075 1103 L-1047 1093 L-1011 1079 L-996 1066 L-983 1054 L-966 1044 L-948 1037 L-928 1030 L-909 1021 L-890 1013 L-870 1003 L-849 993 L-830 982 L-813 971 L-793 958 L-773 946 L-755 933 L-736 918 L-716 904 L-695 891 L-678 879 L-659 869 L-637 861 L-612 854 L-598 847 L-580 841 L-561 834 L-542 826 L-523 819 L-504 812 L-484 805 L-463 800 L-446 794 L-426 788 L-406 780 L-385 770 L-368 761 L-349 754 L-329 749 L-310 745 L-291 741 L-272 736 L-252 732 L-232 727 L-213 721 L-195 717 L-167 712 L-146 707 L-118 703 L-83 696 L-70 691 L-57 687 L-38 683 L-19 679 L0 675 L18 671 L38 668 L57 665 L78 661 L95 658 L114 654 L135 650 L155 645 L173 641 L192 637 L212 634 L232 630 L250 627 L269 623 L290 620 L315 616 L329 613 L347 610 L366 607 L385 603 L405 600 L424 595 L444 591 L465 587 L482 584 L501 580 L521 577 L542 574 L559 571 L578 567 L598 564 L617 561 L637 558 L656 556 L676 553 L695 551 L714 549 L733 553 L762 556 L782 560 L810 564 L847 560 L862 558 L875 555 L892 553 L908 551 L928 549 L947 547 L966 545 L986 543 L1007 541 L1024 539 L1043 538 L1063 536 L1083 533 L1101 531 L1120 529 L1140 527 L1160 524 L1178 522 L1197 521 L1219 519 L1243 517 L1258 515 L1275 513 L1295 511 L1314 508 L1333 506 L1352 504 L1372 501 L1393 498 L1411 495 L1430 492 L1450 490 L1471 487 L1488 485 L1507 482 L1527 479 L1546 477 L1566 474 L1584 471 L1604 468 L1624 466 L1643 464 L1662 462 L1689 460 L1710 457 L1738 455 L1773 452 L1786 449 L1800 447 L1819 444 L1837 442 L1857 440 L1875 438 L1895 436 L1915 433 L1936 431 L1953 429 L1971 427 L1992 424 L2012 421 L2030 418 L2049 415 L2069 411 L2089 408 L2107 404 L2126 401 L2147 398 L2172 395 L2187 392 L2204 388 L2223 385 L2243 382 L2262 379 L2281 375 L2301 372 L2322 369 L2339 366 L2358 363 L2379 360 L2400 357 L2417 355 L2436 353 L2456 351 L2474 349 L2494 347 L2513 345 L2533 343 L2553 342 L2572 340 L2590 339 L2618 337 L2639 335 L2666 333 L2702 330 L2716 327 L2729 323 L2747 320 L2765 318 L2785 316 L2804 314 L2823 312 L2843 310 L2864 308 L2881 306 L2900 303 L2920 301 L2940 298 L2959 296 L2977 293 L2997 290 L3018 288 L3036 285 L3055 283 L3076 281 L3101 279 L3115 277 L3133 275 L3152 273 L3172 270 L3191 268 L3210 265 L3230 261 L3251 257 L3268 254 L3287 251 L3307 248 L3328 246 L3345 244 L3364 242 L3384 241 L3403 239 L3423 238 L3441 236 L3461 234 L3481 232 L3500 231 L3519 229 L3546 228 L3567 227 L3595 225 L3629 223 L3643 222 L3656 220 L3675 219 L3694 218 L3714 217 L3732 215 L3752 214 L3771 213 L3792 212 L3809 211 L3828 210 L3849 208 L3869 207 L3887 205 L3906 204 L3926 203 L3946 202 L3964 201 L3983 200 L4004 199 L4029 198 L4043 197 L4061 195 L4080 194 L4100 193 L4119 192 L4138 190 L4158 189 L4178 187 L4196 184 L4215 181 L4236 179 L4256 176 L4274 175 L4293 173 L4313 171 L4331 170 L4351 168 L4370 166 L4390 165 L4409 163 L4429 162 L4447 161 L4476 160 L4524 158 L4561 157 L4575 156 L4588 154 L4605 153 L4623 153 L4642 152 L4661 151 L4680 150 L4700 149 L4721 148 L4738 147 L4757 146 L4777 146 L4797 145 L4815 144 L4834 142 L4854 141 L4874 140 L4893 139 L4912 137 L4933 135 L4957 133 L4972 131 L4989 129 L5009 127 L5028 125 L5048 124 L5066 122 L5086 120 L5107 118 L5125 117 L5144 115 L5164 113 L5184 112 L5202 111 L5221 109 L5241 108 L5260 107 L5280 106 L5298 104 L5318 103 L5338 101 L5357 100 L5376 99 L5404 97 L5424 96 L5452 94 L5489 91 L5504 88 L5516 85 L5534 83 L5551 82 L5571 80 L5590 79 L5609 78 L5629 77 L5650 76 L5667 75 L5685 73 L5706 71 L5727 69 L5744 67 L5764 64 L5783 61 L5804 59 L5821 57 L5840 55 L5862 53 L5887 51 L5902 49 L5919 47 L5938 46 L5958 44 L5976 43 L5995 40 L6015 38 L6037 36 L6054 34 L6073 33 L6093 31 L6114 29 L6131 28 L6150 26 L6170 25 L6189 24 L6208 22 L6227 21 L6247 19 L6267 18 L6286 17 L6305 16 L6333 997 L6353 995 L6381 993 L6417 991 L6431 7 L6444 5 L6462 3 L6480 2 L6500 1" />
</svg>
