<svg xmlns="http://www.w3.org/2000/svg" version="1.1" viewBox="0 0 6500 1000">
	<path fill="none" stroke="gold" stroke-width="125" stroke-linecap="round" stroke-linejoin="round" d="M0 3233  L-729154 3233 L-726550 3232 L-724882 3232 L-706553 3232 L-706383 3232 L-699225 3231 L-699192 3231 L-685761 3231 L-682839 3231 L-669498 3231 L-665329 3231 L-664169 3230 L-663550 3229 L-661538 3229 L-657766 3228 L-657166 3228 L-656837 3228 L-656624 3228 L-656083 3227 L-654845 3226 L-653666 3225 L-650801 3224 L-650279 3223 L-645424 3223 L-642486 3222 L-642443 3222 L-642135 3222 L-641883 3221 L-639288 3221 L-635033 3221 L-635015 3221 L-633778 3221 L-631901 3221 L-629947 3221 L-628999 3221 L-628728 3220 L-628418 3220 L-628320 3220 L-627490 3220 L-625459 3220 L-625169 3219 L-623022 3218 L-622867 3218 L-619211 3217 L-618960 3217 L-618861 3217 L-618344 3217 L-616193 3218 L-615264 3219 L-613738 3220 L-612498 3220 L-610952 3219 L-607990 3219 L-606868 3219 L-606559 3219 L-605348 3218 L-602341 3220 L-602321 3220 L-601974 3220 L-601761 3220 L-601635 3218 L-601393 3217 L-601355 3217 L-601336 3217 L-601316 3216 L-601257 3216 L-601199 3216 L-601181 3216 L-600738 3215 L-599498 3215 L-597953 3215 L-594565 3215 L-588839 3214 L-588637 3214 L-587001 3214 L-585279 3214 L-583847 3214 L-583615 3214 L-582900 3214 L-576767 3213 L-576400 3213 L-576245 3213 L-575667 3213 L-575374 3212 L-574407 3212 L-574097 3212 L-573498 3211 L-571892 3211 L-571157 3211 L-570847 3212 L-570079 3212 L-568043 3211 L-567617 3211 L-566805 3211 L-559376 3211 L-558853 3210 L-558680 3210 L-557945 3210 L-556377 3210 L-555971 3209 L-553746 3209 L-552798 3209 L-552373 3209 L-552043 3209 L-550999 3209 L-548891 3208 L-548639 3208 L-548020 3208 L-547207 3208 L-545099 3207 L-545051 3207 L-543123 3207 L-542797 3207 L-542662 3206 L-542159 3206 L-540746 3206 L-540243 3205 L-539721 3205 L-536162 3204 L-535427 3204 L-533002 3204 L-531713 3204 L-531306 3203 L-528153 3203 L-527998 3203 L-527978 3204 L-527611 3204 L-526353 3204 L-525638 3204 L-524748 3204 L-524341 3204 L-523413 3204 L-522304 3204 L-522001 3204 L-515752 3205 L-514805 3205 L-513179 3205 L-512677 3205 L-509001 3205 L-508169 3206 L-504216 3206 L-502804 3205 L-500314 3205 L-499638 3205 L-499599 3205 L-498728 3205 L-495517 3204 L-492654 3204 L-491686 3204 L-490565 3204 L-490546 3204 L-488921 3203 L-488457 3203 L-488365 3203 L-481995 3203 L-481047 3202 L-478590 3202 L-477718 3202 L-476482 3202 L-474480 3202 L-474083 3202 L-472646 3201 L-470620 3201 L-470407 3201 L-469227 3201 L-467718 3201 L-467698 3200 L-465686 3200 L-464817 3200 L-463946 3200 L-463361 3200 L-462824 3199 L-462166 3199 L-460928 3199 L-460367 3199 L-459186 3198 L-457949 3198 L-457910 3198 L-457523 3198 L-456981 3198 L-456208 3198 L-455085 3197 L-452996 3197 L-452663 3197 L-452377 3197 L-451449 3197 L-450965 3196 L-450230 3196 L-446599 3196 L-445471 3196 L-445316 3196 L-444290 3195 L-440576 3195 L-439358 3195 L-437540 3195 L-434754 3195 L-434193 3194 L-430305 3194 L-427828 3194 L-426493 3194 L-425990 3194 L-425507 3194 L-422817 3194 L-419046 3194 L-416589 3194 L-415409 3194 L-414770 3194 L-412410 3193 L-412333 3193 L-411285 3193 L-411192 3193 L-410689 3193 L-410243 3193 L-410186 3193 L-409972 3193 L-407012 3193 L-404305 3192 L-404150 3192 L-400629 3192 L-400106 3192 L-399139 3192 L-398790 3192 L-397746 3191 L-396818 3191 L-396392 3191 L-394883 3191 L-393916 3191 L-393897 3191 L-392001 3180 L-391885 3170 L-391837 3160 L-391813 3149 L-388809 3149 L-386778 3149 L-385017 3149 L-384650 3149 L-384204 3149 L-383838 3148 L-383424 3148 L-381439 3148 L-381225 3148 L-381071 3148 L-379465 3148 L-378344 3148 L-377395 3148 L-376138 3147 L-374493 3147 L-373314 3147 L-366724 3147 L-366678 3147 L-366272 3146 L-365227 3146 L-365091 3146 L-363409 3146 L-363389 3146 L-362052 3145 L-360816 3145 L-360662 3145 L-360288 3145 L-360082 3145 L-359772 3145 L-358998 3144 L-356677 3144 L-356019 3144 L-353891 3144 L-352169 3144 L-351975 3144 L-349422 3143 L-349146 3143 L-348957 3143 L-348125 3143 L-347352 3143 L-346654 3142 L-341654 3142 L-341278 3142 L-337025 3142 L-336538 3156 L-336519 3156 L-336440 3156 L-336364 3155 L-336345 3141 L-335532 3141 L-334778 3141 L-333559 3141 L-332127 3141 L-332031 3141 L-331856 3141 L-331502 3140 L-330193 3140 L-328335 3140 L-326633 3140 L-326130 3140 L-325865 3140 L-325472 3139 L-325337 3139 L-324428 3139 L-324051 3139 L-323123 3139 L-322784 3139 L-322744 3139 L-322706 3139 L-320791 3139 L-320617 3139 L-319089 3139 L-318760 3138 L-318644 3138 L-318237 3138 L-317889 3138 L-316245 3138 L-315694 3137 L-315451 3137 L-314910 3137 L-314079 3137 L-313537 3137 L-312002 3136 L-311910 3136 L-311873 3136 L-311737 3136 L-311350 3136 L-310325 3136 L-308449 3136 L-308352 3135 L-307752 3140 L-307385 3145 L-306901 3149 L-306862 3154 L-306089 3154 L-306031 3154 L-305857 3154 L-305663 3154 L-304058 3154 L-304038 3154 L-303883 3154 L-303767 3154 L-302588 3154 L-302433 3154 L-301766 3154 L-299318 3166 L-296803 3178 L-294133 3189 L-286434 3200 L-280766 3200 L-278552 3200 L-278528 3200 L-277554 3203 L-277534 3203 L-276671 3202 L-273931 3202 L-268132 3199 L-267979 3199 L-265193 3199 L-251584 3199 L-250838 3198 L-246428 3198 L-230082 3198 L-229849 3198 L-229312 3198 L-220853 3197 L-212147 3197 L-211935 3197 L-209962 3197 L-207176 3197 L-202689 3197 L-202534 3197 L-202365 3197 L-202224 3197 L-201934 3197 L-201895 3197 L-201624 3196 L-201453 3196 L-201043 3196 L-199922 3196 L-198742 3196 L-197465 3196 L-194601 3196 L-191681 3195 L-189689 3195 L-188141 3195 L-185103 3195 L-175779 3195 L-175255 3195 L-169531 3195 L-168024 3194 L-167209 3194 L-165526 3194 L-164805 3194 L-164636 3194 L-163591 3194 L-161524 3194 L-160162 3193 L-155718 3193 L-155621 3193 L-155583 3193 L-155564 3193 L-154731 3193 L-154653 3192 L-152081 3192 L-148832 3192 L-148677 3192 L-147728 3192 L-145987 3192 L-145272 3192 L-141731 3193 L-135154 3194 L-133737 3195 L-133716 3195 L-132765 3195 L-129291 3195 L-128538 3194 L-127976 3194 L-127194 3194 L-119690 3194 L-118092 3194 L-116518 3194 L-113332 3194 L-108999 3193 L-100429 3193 L-91683 3193 L-88609 3193 L-85343 3193 L-84797 3193 L-77659 3193 L-71992 3193 L-57927 3193 L-51916 3193 L-47210 3193 L-43206 3192 L-38099 3192 L-28385 3192 L-12814 3192 L-9732 3192 L-9429 3129 L-9410 3052 L-9391 2965 L-9371 2867 L-9352 2823 L-9332 2785 L-9314 2751 L-9286 2717 L-9265 2684 L-9237 2649 L-9202 2610 L-9188 2578 L-9175 2549 L-9157 2526 L-9138 2509 L-9118 2491 L-9100 2474 L-9081 2456 L-9061 2438 L-9040 2420 L-9023 2402 L-9004 2384 L-8984 2367 L-8964 2350 L-8945 2331 L-8926 2312 L-8907 2292 L-8887 2273 L-8868 2255 L-8849 2237 L-8828 2220 L-8803 2203 L-8789 2187 L-8771 2171 L-8752 2155 L-8732 2139 L-8713 2122 L-8694 2105 L-8674 2088 L-8654 2073 L-8636 2057 L-8617 2043 L-8597 2030 L-8576 2017 L-8559 2006 L-8540 1995 L-8520 1985 L-8501 1975 L-8481 1965 L-8462 1956 L-8443 1948 L-8423 1941 L-8404 1934 L-8385 1926 L-8358 1917 L-8337 1907 L-8309 1896 L-8275 1885 L-8261 1875 L-8248 1866 L-8229 1858 L-8210 1851 L-8190 1844 L-8172 1836 L-8152 1828 L-8132 1820 L-8112 1812 L-8094 1805 L-8076 1798 L-8055 1790 L-8036 1782 L-8017 1772 L-7998 1761 L-7978 1751 L-7958 1740 L-7940 1729 L-7921 1717 L-7900 1705 L-7875 1691 L-7861 1678 L-7843 1665 L-7824 1652 L-7804 1640 L-7785 1627 L-7766 1613 L-7746 1599 L-7726 1586 L-7707 1574 L-7689 1561 L-7668 1550 L-7648 1538 L-7630 1527 L-7611 1516 L-7591 1506 L-7573 1497 L-7553 1488 L-7534 1478 L-7514 1470 L-7495 1460 L-7475 1451 L-7457 1442 L-7428 1433 L-7408 1424 L-7380 1415 L-7343 1405 L-7328 1395 L-7315 1386 L-7298 1377 L-7281 1371 L-7262 1365 L-7243 1359 L-7224 1354 L-7204 1349 L-7183 1344 L-7166 1338 L-7147 1332 L-7127 1325 L-7107 1319 L-7088 1312 L-7070 1304 L-7050 1296 L-7030 1288 L-7011 1280 L-6992 1272 L-6971 1264 L-6947 1255 L-6932 1248 L-6915 1239 L-6895 1231 L-6876 1223 L-6856 1214 L-6837 1205 L-6817 1197 L-6797 1188 L-6779 1180 L-6760 1172 L-6740 1164 L-6720 1157 L-6702 1151 L-6683 1143 L-6663 1137 L-6644 1130 L-6624 1123 L-6605 1116 L-6585 1109 L-6566 1103 L-6547 1097 L-6528 1090 L-6500 1084 L-6480 1077 L-6452 1070 L-6415 1059 L-6401 1050 L-6388 1041 L-6371 1033 L-6353 1028 L-6333 1023 L-6314 1016 L-6294 1009 L-6275 1002 L-6254 994 L-6235 986 L-6218 978 L-6198 969 L-6177 959 L-6159 949 L-6141 939 L-6121 928 L-6100 918 L-6083 909 L-6064 901 L-6042 895 L-6017 890 L-6003 885 L-5985 880 L-5966 875 L-5947 870 L-5928 864 L-5909 859 L-5889 854 L-5868 850 L-5850 846 L-5831 841 L-5811 835 L-5790 828 L-5773 821 L-5754 816 L-5734 812 L-5715 808 L-5696 805 L-5677 802 L-5657 799 L-5637 795 L-5618 791 L-5599 787 L-5572 784 L-5551 780 L-5523 777 L-5488 772 L-5475 768 L-5461 765 L-5443 762 L-5424 759 L-5404 756 L-5386 753 L-5366 751 L-5346 748 L-5325 746 L-5308 743 L-5290 740 L-5269 737 L-5249 734 L-5231 731 L-5212 728 L-5192 725 L-5172 722 L-5154 720 L-5135 717 L-5114 715 L-5089 712 L-5074 710 L-5057 707 L-5038 705 L-5018 702 L-4999 699 L-4980 696 L-4960 693 L-4939 690 L-4922 688 L-4903 685 L-4882 683 L-4862 680 L-4844 678 L-4826 675 L-4805 673 L-4787 671 L-4767 668 L-4748 667 L-4728 665 L-4709 663 L-4690 661 L-4671 664 L-4642 667 L-4622 670 L-4594 673 L-4557 670 L-4542 668 L-4529 666 L-4512 665 L-4495 663 L-4476 662 L-4457 660 L-4438 659 L-4418 657 L-4397 656 L-4380 654 L-4361 653 L-4341 651 L-4320 650 L-4302 648 L-4284 646 L-4264 645 L-4244 643 L-4225 642 L-4207 640 L-4185 639 L-4160 638 L-4146 636 L-4129 634 L-4109 633 L-4090 631 L-4070 630 L-4051 628 L-4032 626 L-4011 624 L-3993 621 L-3974 619 L-3954 617 L-3933 615 L-3916 613 L-3897 611 L-3877 609 L-3858 608 L-3838 605 L-3820 603 L-3800 601 L-3780 599 L-3761 598 L-3742 596 L-3715 595 L-3694 593 L-3666 591 L-3631 588 L-3618 587 L-3604 585 L-3585 583 L-3567 582 L-3547 580 L-3529 578 L-3509 577 L-3489 575 L-3468 573 L-3451 572 L-3433 570 L-3412 568 L-3392 566 L-3374 563 L-3355 561 L-3335 558 L-3315 555 L-3297 553 L-3278 551 L-3257 549 L-3232 546 L-3217 544 L-3200 541 L-3181 539 L-3161 536 L-3142 534 L-3123 531 L-3103 529 L-3082 526 L-3065 524 L-3046 522 L-3025 520 L-3004 518 L-2987 516 L-2968 514 L-2948 513 L-2929 511 L-2910 510 L-2891 509 L-2871 507 L-2851 506 L-2832 505 L-2814 504 L-2786 502 L-2765 501 L-2738 500 L-2702 497 L-2688 495 L-2675 492 L-2657 490 L-2638 488 L-2619 487 L-2600 485 L-2580 484 L-2561 482 L-2540 481 L-2523 479 L-2504 477 L-2483 475 L-2464 473 L-2445 471 L-2426 469 L-2407 467 L-2386 465 L-2368 464 L-2349 462 L-2328 461 L-2303 459 L-2288 458 L-2271 456 L-2252 454 L-2232 453 L-2213 450 L-2194 448 L-2174 446 L-2153 443 L-2136 440 L-2117 438 L-2096 436 L-2076 434 L-2059 433 L-2040 431 L-2020 430 L-2001 429 L-1981 428 L-1963 427 L-1943 425 L-1923 424 L-1904 423 L-1885 422 L-1858 421 L-1837 420 L-1809 418 L-1775 417 L-1761 416 L-1747 415 L-1729 414 L-1710 413 L-1690 412 L-1672 411 L-1652 410 L-1632 410 L-1612 409 L-1594 408 L-1576 407 L-1555 406 L-1535 405 L-1517 404 L-1498 403 L-1478 402 L-1458 401 L-1440 400 L-1421 400 L-1400 399 L-1375 398 L-1361 397 L-1343 396 L-1324 395 L-1304 394 L-1285 393 L-1266 393 L-1246 391 L-1226 390 L-1208 388 L-1189 386 L-1168 384 L-1148 382 L-1130 381 L-1111 380 L-1091 378 L-1073 377 L-1053 376 L-1034 374 L-1014 373 L-995 372 L-975 371 L-957 370 L-928 369 L-880 369 L-843 367 L-828 366 L-816 365 L-799 365 L-781 364 L-762 364 L-743 363 L-724 362 L-704 361 L-683 361 L-666 360 L-647 360 L-627 359 L-607 358 L-588 357 L-570 357 L-550 356 L-530 355 L-511 354 L-492 352 L-471 351 L-447 350 L-432 348 L-415 347 L-395 345 L-376 344 L-356 342 L-338 341 L-317 340 L-297 338 L-279 337 L-260 336 L-240 335 L-220 333 L-202 333 L-183 332 L-163 331 L-144 330 L-124 329 L-105 328 L-85 327 L-66 326 L-47 325 L-28 324 L0 323 L20 322 L48 320 L84 318 L99 316 L111 314 L129 312 L146 311 L167 310 L185 309 L205 308 L224 308 L245 307 L262 306 L281 304 L301 303 L322 302 L340 300 L359 298 L378 296 L399 294 L417 292 L435 291 L457 289 L482 288 L497 286 L514 285 L533 284 L553 283 L572 282 L590 280 L610 278 L632 277 L649 275 L668 274 L688 273 L709 272 L726 271 L745 270 L765 268 L784 267 L803 266 L822 265 L842 264 L862 263 L881 262 L900 261 L928 997 L948 996 L976 995 L1012 993 L1026 255 L1039 253 L1057 252 L1075 252 L1095 251 L1113 250 L1133 249 L1153 248 L1174 247 L1191 245 L1209 243 L1230 242 L1250 240 L1268 238 L1287 236 L1307 234 L1328 233 L1345 232 L1364 230 L1385 229 L1410 228 L1425 226 L1455 224 L1495 221 L1518 219 L1547 217 L1564 215 L1577 213 L1597 212 L1617 211 L1638 210 L1654 209 L1673 207 L1694 206 L1712 206 L1732 205 L1751 204 L1771 204 L1791 203 L1809 202 L1828 201 L1856 200 L1877 199 L1905 198 L1940 197 L1953 196 L1985 194 L2004 194 L2023 193 L2042 192 L2061 191 L2081 191 L2102 190 L2119 189 L2138 187 L2158 185 L2179 181 L2196 178 L2216 175 L2235 172 L2256 170 L2274 168 L2293 166 L2314 165 L2339 164 L2354 162 L2371 161 L2390 159 L2410 158 L2429 157 L2448 155 L2468 154 L2489 152 L2506 151 L2525 149 L2545 148 L2566 147 L2583 146 L2602 146 L2622 145 L2641 144 L2661 142 L2680 142 L2699 140 L2719 139 L2738 139 L2757 138 L2785 137 L2805 136 L2875 134 L2903 132 L2918 129 L2932 127 L2952 126 L2970 125 L2989 124 L3010 122 L3031 121 L3048 120 L3066 119 L3087 119 L3107 118 L3125 117 L3144 116 L3164 114 L3185 113 L3202 112 L3221 110 L3242 110 L3267 109 L3282 108 L3300 107 L3318 105 L3338 104 L3357 103 L3377 101 L3396 100 L3417 99 L3434 98 L3454 98 L3474 97 L3495 96 L3512 95 L3570 94 L3589 93 L3608 92 L3628 91 L3648 90 L3667 89 L3685 89 L3713 88 L3734 88 L3762 87 L3798 86 L3813 85 L3825 85 L3843 84 L3861 84 L3881 83 L3899 83 L3919 82 L3938 82 L3960 82 L3976 81 L3995 81 L4016 80 L4036 80 L4054 79 L4073 78 L4093 77 L4113 77 L4131 76 L4150 75 L4171 74 L4196 74 L4211 73 L4228 73 L4247 72 L4267 71 L4286 70 L4305 70 L4325 68 L4346 67 L4363 66 L4382 65 L4403 65 L4423 65 L4440 64 L4459 64 L4479 63 L4498 63 L4518 62 L4537 62 L4556 61 L4577 61 L4595 61 L4614 60 L4642 60 L4662 59 L4690 59 L4725 58 L4739 58 L4753 57 L4771 57 L4789 56 L4809 55 L4827 55 L4867 55 L4887 54 L4905 54 L4923 53 L4944 52 L4963 51 L4982 51 L5001 50 L5021 49 L5041 49 L5059 48 L5078 47 L5099 47 L5124 46 L5138 46 L5156 45 L5175 45 L5194 44 L5214 43 L5233 43 L5253 42 L5273 42 L5291 41 L5310 40 L5331 40 L5351 39 L5369 39 L5388 38 L5408 37 L5426 37 L5446 37 L5465 36 L5485 36 L5504 35 L5524 35 L5543 34 L5571 34 L5619 33 L5656 33 L5672 32 L5684 32 L5701 31 L5718 31 L5737 31 L5756 30 L5775 30 L5795 30 L5816 29 L5833 29 L5852 29 L5872 29 L5892 29 L5911 28 L5929 28 L5949 28 L5969 27 L5988 27 L6007 26 L6028 26 L6052 25 L6067 24 L6084 24 L6104 23 L6123 22 L6143 21 L6161 19 L6182 18 L6202 17 L6220 16 L6239 15 L6259 14 L6280 13 L6297 12 L6316 11 L6336 9 L6355 8 L6375 8 L6394 7 L6414 6 L6433 5 L6452 4 L6471 2 L6500 1" />
</svg>
