<svg xmlns="http://www.w3.org/2000/svg" version="1.1" viewBox="0 0 6500 1000">
	<path fill="none" stroke="gold" stroke-width="125" stroke-linecap="round" stroke-linejoin="round" d="M0 103241  L-346516 103241 L-343912 103073 L-342244 102906 L-323914 102570 L-323744 102234 L-316586 101899 L-316553 101899 L-303122 101731 L-300200 101899 L-286860 101395 L-282691 100724 L-281530 99885 L-280911 99046 L-278899 98543 L-275128 98208 L-274528 97872 L-274199 97536 L-273986 97201 L-273444 96865 L-272206 95523 L-271027 94181 L-268163 92838 L-267641 91496 L-262785 91161 L-259848 90825 L-259805 90489 L-259497 90154 L-259245 89818 L-256650 89483 L-252394 89483 L-252376 89483 L-251140 89483 L-249262 89483 L-247309 89147 L-246361 88812 L-246090 88476 L-245780 88308 L-245682 88140 L-244852 88140 L-242821 88308 L-242530 86798 L-240384 86127 L-240229 85120 L-236572 84114 L-236321 84617 L-236223 84449 L-235705 84953 L-233554 85791 L-232625 86630 L-231099 87469 L-229860 87469 L-228313 87302 L-225352 86966 L-224230 86630 L-223921 86295 L-222709 86127 L-219703 87973 L-219683 87805 L-219336 87637 L-219123 87469 L-218996 85120 L-218755 84785 L-218717 84449 L-218697 84114 L-218678 83778 L-218619 83442 L-218560 83107 L-218542 82771 L-218099 82436 L-216860 82100 L-215314 81765 L-211926 81429 L-206200 81261 L-205999 81093 L-204363 80926 L-202641 80758 L-201209 80590 L-200976 80422 L-200261 80255 L-194129 80087 L-193761 79751 L-193607 79416 L-193028 79080 L-192736 78744 L-191768 78409 L-191459 78073 L-190860 77738 L-189254 77738 L-188518 77738 L-188209 77906 L-187440 77906 L-185404 77570 L-184979 77234 L-184166 77067 L-176738 76731 L-176215 76395 L-176041 76060 L-175306 75724 L-173739 75389 L-173333 75221 L-171108 74885 L-170160 74718 L-169735 74550 L-169405 74550 L-168361 74382 L-166253 74046 L-166001 73711 L-165382 73375 L-164569 73208 L-162461 72872 L-162413 72536 L-160484 72201 L-160159 71865 L-160024 71530 L-159520 71362 L-158108 71026 L-157605 70355 L-157083 69852 L-153523 69181 L-152788 68510 L-150363 68510 L-149074 68174 L-148667 68006 L-145515 68006 L-145360 68006 L-145340 68174 L-144973 68174 L-143715 68342 L-143000 68510 L-142110 68510 L-141703 68510 L-140774 68510 L-139666 68342 L-139362 69013 L-133114 69348 L-132166 69684 L-130540 70020 L-130038 70187 L-126363 70355 L-125530 70523 L-121577 70691 L-120165 70187 L-117676 69852 L-117000 69516 L-116961 69348 L-116090 69348 L-112879 69181 L-110016 69013 L-109048 68845 L-107926 68510 L-107907 68174 L-106282 67838 L-105818 67335 L-105726 67167 L-99357 67000 L-98408 66832 L-95951 66664 L-95079 66328 L-93843 66161 L-91842 65993 L-91444 65657 L-90008 65322 L-87982 65154 L-87769 64818 L-86588 64651 L-85080 64483 L-85060 64315 L-83048 64147 L-82178 63812 L-81307 63644 L-80722 63308 L-80185 62973 L-79528 62637 L-78289 62302 L-77729 62134 L-76548 61966 L-75310 61798 L-75272 61630 L-74885 61463 L-74343 61127 L-73569 60959 L-72447 60791 L-70358 60456 L-70024 60120 L-69739 59785 L-68810 59617 L-68327 59281 L-67592 59114 L-63960 58946 L-62833 58778 L-62678 58610 L-61652 58275 L-57937 58107 L-56720 57771 L-54901 57436 L-52116 57268 L-51554 56932 L-47666 56932 L-45190 56765 L-43855 56765 L-43351 56597 L-42868 56429 L-40179 56429 L-36407 56429 L-33950 56429 L-32770 56429 L-32131 56261 L-29772 55926 L-29694 55758 L-28647 55590 L-28553 55255 L-28050 55255 L-27605 55255 L-27547 55255 L-27334 55255 L-24374 54919 L-21666 54751 L-21512 54583 L-17991 54416 L-17468 54080 L-16501 53744 L-16151 53577 L-15108 53241 L-14179 52906 L-13754 52738 L-12245 52738 L-11278 52570 L-11259 52402 L-9363 40154 L-9247 27570 L-9199 15154 L-9174 2738 L-6170 2570 L-4139 2234 L-2379 2067 L-2012 1899 L-1566 1563 L-1199 1395 L-785 1060 L1199 892 L1412 892 L1567 724 L3172 724 L4294 557 L5242 389 L6500 53" />
</svg>
