<svg xmlns="http://www.w3.org/2000/svg" version="1.1" viewBox="0 0 6500 1000">
	<path fill="none" stroke="gold" stroke-width="125" stroke-linecap="round" stroke-linejoin="round" d="M0 2858  L-721872 2858 L-719268 2858 L-717600 2858 L-699271 2857 L-699101 2857 L-691943 2857 L-691910 2857 L-678479 2857 L-675557 2857 L-662216 2856 L-658047 2856 L-656887 2855 L-656268 2854 L-654256 2854 L-650484 2854 L-649884 2853 L-649556 2853 L-649343 2853 L-648801 2853 L-647563 2852 L-646384 2850 L-643520 2849 L-642997 2848 L-638142 2848 L-635205 2848 L-635162 2847 L-634853 2847 L-634601 2847 L-632006 2847 L-627751 2847 L-627733 2847 L-626496 2847 L-624619 2847 L-622665 2846 L-621717 2846 L-621446 2846 L-621137 2846 L-621039 2845 L-620208 2845 L-618177 2846 L-617887 2844 L-615741 2844 L-615585 2843 L-611929 2842 L-611678 2843 L-611579 2842 L-611062 2843 L-608911 2843 L-607982 2844 L-606456 2845 L-605216 2845 L-603670 2845 L-600708 2844 L-599586 2844 L-599277 2844 L-598066 2844 L-595059 2845 L-595040 2845 L-594692 2845 L-594479 2845 L-594353 2843 L-594111 2843 L-594073 2842 L-594054 2842 L-594035 2842 L-593976 2842 L-593917 2841 L-593899 2841 L-593456 2841 L-592217 2840 L-590671 2840 L-587283 2840 L-581557 2840 L-581355 2840 L-579719 2839 L-577997 2839 L-576565 2839 L-576333 2839 L-575618 2839 L-569486 2839 L-569118 2839 L-568963 2838 L-568385 2838 L-568092 2838 L-567125 2837 L-566815 2837 L-566216 2837 L-564610 2837 L-563875 2837 L-563565 2837 L-562797 2837 L-560761 2837 L-560336 2836 L-559523 2836 L-552094 2836 L-551571 2836 L-551398 2835 L-550663 2835 L-549095 2835 L-548689 2835 L-546464 2835 L-545517 2834 L-545092 2834 L-544761 2834 L-543717 2834 L-541609 2834 L-541357 2834 L-540738 2833 L-539926 2833 L-537818 2833 L-537769 2833 L-535841 2832 L-535515 2832 L-535380 2832 L-534877 2832 L-533464 2831 L-532961 2831 L-532440 2830 L-528880 2830 L-528145 2829 L-525720 2829 L-524431 2829 L-524024 2829 L-520871 2829 L-520716 2829 L-520696 2829 L-520330 2829 L-519071 2829 L-518356 2829 L-517466 2829 L-517059 2829 L-516131 2829 L-515022 2829 L-514719 2830 L-508470 2830 L-507523 2830 L-505897 2831 L-505395 2831 L-501719 2831 L-500887 2831 L-496934 2831 L-495522 2831 L-493033 2830 L-492356 2830 L-492317 2830 L-491447 2830 L-488235 2830 L-485372 2830 L-484404 2830 L-483283 2829 L-483264 2829 L-481639 2829 L-481175 2828 L-481083 2828 L-474714 2828 L-473765 2828 L-471308 2828 L-470436 2827 L-469200 2827 L-467198 2827 L-466801 2827 L-465365 2827 L-463338 2826 L-463125 2826 L-461945 2826 L-460437 2826 L-460416 2826 L-458404 2826 L-457535 2825 L-456664 2825 L-456079 2825 L-455542 2825 L-454884 2824 L-453646 2824 L-453085 2824 L-451904 2824 L-450667 2824 L-450628 2824 L-450241 2823 L-449700 2823 L-448926 2823 L-447804 2823 L-445714 2823 L-445381 2822 L-445095 2822 L-444167 2822 L-443684 2822 L-442948 2822 L-439317 2821 L-438189 2821 L-438035 2821 L-437009 2821 L-433294 2821 L-432076 2820 L-430258 2820 L-427472 2820 L-426911 2820 L-423023 2820 L-420546 2820 L-419211 2820 L-418708 2819 L-418225 2819 L-415536 2819 L-411764 2819 L-409307 2819 L-408127 2819 L-407488 2819 L-405128 2819 L-405051 2819 L-404003 2819 L-403910 2818 L-403407 2818 L-402961 2818 L-402904 2818 L-402690 2818 L-399731 2818 L-397023 2818 L-396868 2818 L-393347 2818 L-392824 2817 L-391857 2817 L-391508 2817 L-390464 2817 L-389536 2816 L-389110 2816 L-387601 2816 L-386634 2816 L-386615 2816 L-384719 2806 L-384603 2796 L-384555 2785 L-384531 2775 L-381527 2775 L-379496 2775 L-377735 2775 L-377368 2774 L-376923 2774 L-376556 2774 L-376142 2774 L-374157 2774 L-373944 2774 L-373789 2773 L-372183 2773 L-371062 2773 L-370113 2773 L-368856 2773 L-367211 2773 L-366032 2772 L-359442 2772 L-359396 2772 L-358990 2772 L-357945 2772 L-357810 2772 L-356127 2772 L-356107 2771 L-354770 2771 L-353534 2771 L-353380 2771 L-353006 2771 L-352800 2770 L-352490 2770 L-351716 2770 L-349395 2770 L-348737 2770 L-346609 2770 L-344887 2769 L-344693 2769 L-342140 2769 L-341864 2769 L-341676 2768 L-340843 2768 L-340071 2768 L-339373 2768 L-334372 2768 L-333996 2768 L-329743 2768 L-329256 2781 L-329237 2781 L-329158 2781 L-329083 2781 L-329063 2767 L-328250 2767 L-327496 2767 L-326277 2766 L-324845 2766 L-324749 2766 L-324574 2766 L-324220 2766 L-322911 2766 L-321054 2766 L-319351 2765 L-318848 2765 L-318583 2765 L-318190 2765 L-318056 2765 L-317146 2765 L-316770 2765 L-315841 2765 L-315502 2764 L-315462 2764 L-315425 2764 L-313509 2764 L-313335 2764 L-311807 2764 L-311478 2764 L-311362 2764 L-310955 2764 L-310607 2763 L-308963 2763 L-308413 2763 L-308169 2763 L-307628 2763 L-306797 2763 L-306255 2762 L-304720 2762 L-304628 2762 L-304591 2762 L-304455 2762 L-304068 2762 L-303043 2761 L-301167 2761 L-301071 2761 L-300470 2766 L-300103 2770 L-299619 2775 L-299581 2780 L-298807 2780 L-298749 2780 L-298575 2780 L-298381 2780 L-296776 2779 L-296756 2779 L-296601 2779 L-296485 2780 L-295306 2780 L-295151 2780 L-294484 2780 L-292036 2791 L-289521 2803 L-286851 2814 L-279152 2825 L-273484 2825 L-271270 2825 L-271246 2825 L-270273 2828 L-270253 2828 L-269389 2828 L-266649 2828 L-260850 2825 L-260697 2824 L-257911 2824 L-244303 2824 L-243557 2824 L-239146 2824 L-222800 2823 L-222568 2823 L-222030 2823 L-213571 2823 L-204865 2823 L-204653 2823 L-202681 2822 L-199894 2822 L-195407 2823 L-195252 2822 L-195083 2822 L-194943 2822 L-194652 2822 L-194613 2822 L-194342 2822 L-194171 2822 L-193761 2822 L-192640 2821 L-191460 2821 L-190183 2821 L-187319 2821 L-184399 2821 L-182407 2821 L-180859 2820 L-177821 2820 L-168497 2820 L-167973 2820 L-162249 2820 L-160742 2820 L-159927 2820 L-158244 2820 L-157523 2819 L-157354 2819 L-156309 2819 L-154242 2819 L-152880 2819 L-148437 2819 L-148339 2819 L-148301 2818 L-148282 2818 L-147449 2818 L-147372 2818 L-144799 2818 L-141550 2818 L-141395 2818 L-140447 2817 L-138706 2817 L-137990 2818 L-134449 2819 L-127872 2819 L-126455 2821 L-126434 2820 L-125484 2820 L-122009 2820 L-121256 2820 L-120694 2820 L-119912 2820 L-112408 2819 L-110810 2819 L-109236 2819 L-106050 2819 L-101717 2819 L-93148 2819 L-84401 2819 L-81327 2819 L-78061 2818 L-77515 2818 L-70378 2818 L-64710 2818 L-50646 2818 L-44634 2818 L-39928 2818 L-35925 2818 L-30817 2818 L-21103 2818 L-5533 2817 L-2450 2817 L-2148 2755 L-2128 2678 L-2109 2591 L-2089 2494 L-2070 2450 L-2050 2412 L-2032 2378 L-2004 2344 L-1983 2311 L-1956 2276 L-1920 2238 L-1907 2205 L-1894 2177 L-1875 2154 L-1856 2137 L-1836 2120 L-1818 2102 L-1799 2084 L-1779 2067 L-1758 2048 L-1741 2030 L-1722 2013 L-1702 1996 L-1682 1979 L-1663 1960 L-1645 1941 L-1625 1922 L-1605 1902 L-1586 1884 L-1567 1867 L-1546 1850 L-1521 1833 L-1507 1817 L-1490 1801 L-1470 1785 L-1451 1769 L-1432 1752 L-1413 1735 L-1393 1718 L-1372 1703 L-1354 1687 L-1335 1673 L-1315 1660 L-1294 1647 L-1277 1636 L-1258 1625 L-1238 1615 L-1219 1605 L-1199 1595 L-1181 1586 L-1161 1579 L-1141 1572 L-1122 1564 L-1103 1557 L-1076 1548 L-1055 1538 L-1027 1527 L-993 1515 L-979 1505 L-966 1497 L-947 1489 L-928 1482 L-908 1475 L-890 1467 L-870 1459 L-850 1451 L-830 1443 L-813 1436 L-794 1429 L-773 1421 L-754 1413 L-735 1403 L-716 1393 L-696 1382 L-677 1371 L-658 1360 L-639 1349 L-618 1336 L-594 1323 L-579 1309 L-562 1296 L-542 1284 L-523 1271 L-503 1258 L-484 1245 L-464 1231 L-444 1218 L-426 1206 L-407 1193 L-387 1182 L-366 1170 L-348 1159 L-329 1149 L-309 1138 L-291 1129 L-271 1120 L-252 1111 L-232 1102 L-213 1092 L-193 1083 L-175 1074 L-146 1065 L-126 1057 L-98 1048 L-61 1038 L-46 1028 L-34 1018 L-17 1010 L0 1003 L19 998 L38 992 L57 987 L77 982 L98 977 L115 971 L134 965 L154 958 L174 952 L192 945 L211 937 L231 930 L251 921 L270 913 L289 905 L310 897 L334 889 L349 881 L366 873 L386 864 L405 856 L425 848 L443 839 L463 830 L484 822 L502 813 L521 806 L541 798 L561 791 L579 784 L598 777 L618 770 L637 763 L657 756 L676 750 L695 743 L715 737 L734 731 L753 724 L781 718 L801 711 L829 703 L865 693 L880 684 L893 675 L910 667 L928 662 L948 657 L967 650 L986 644 L1006 636 L1027 629 L1046 620 L1063 612 L1083 603 L1103 594 L1121 584 L1140 573 L1160 563 L1181 553 L1198 544 L1217 536 L1239 530 L1263 525 L1278 520 L1296 515 L1315 510 L1334 504 L1353 499 L1372 493 L1392 489 L1413 484 L1430 480 L1450 476 L1470 469 L1491 463 L1508 456 L1527 451 L1547 447 L1566 443 L1585 440 L1604 437 L1624 434 L1644 430 L1663 426 L1681 422 L1709 419 L1730 416 L1758 412 L1792 407 L1806 403 L1819 400 L1838 397 L1857 394 L1877 392 L1895 389 L1915 386 L1934 384 L1955 381 L1972 378 L1991 375 L2012 372 L2032 369 L2050 366 L2068 363 L2088 360 L2109 358 L2127 355 L2146 353 L2167 350 L2192 347 L2206 345 L2224 343 L2243 340 L2262 338 L2282 335 L2301 332 L2321 329 L2342 326 L2359 323 L2378 321 L2398 318 L2419 316 L2436 313 L2455 311 L2475 308 L2494 306 L2514 304 L2533 302 L2553 300 L2572 299 L2591 297 L2610 300 L2639 303 L2659 306 L2687 308 L2724 306 L2739 304 L2752 302 L2769 300 L2785 299 L2805 297 L2824 296 L2843 294 L2863 293 L2884 291 L2901 290 L2920 289 L2940 287 L2960 285 L2978 284 L2997 282 L3017 280 L3037 279 L3055 277 L3074 276 L3096 275 L3120 273 L3135 272 L3152 270 L3172 268 L3191 267 L3210 265 L3229 264 L3249 262 L3270 259 L3288 257 L3307 255 L3327 253 L3348 251 L3365 249 L3384 247 L3404 245 L3423 243 L3442 241 L3461 239 L3481 237 L3501 235 L3520 234 L3539 232 L3566 230 L3587 228 L3615 227 L3650 224 L3663 222 L3677 221 L3696 219 L3714 217 L3734 216 L3752 214 L3772 213 L3792 211 L3813 209 L3830 207 L3848 206 L3869 204 L3889 202 L3907 199 L3926 197 L3946 194 L3966 191 L3984 189 L4003 187 L4024 185 L4049 182 L4064 180 L4081 177 L4100 175 L4120 172 L4139 170 L4158 167 L4178 165 L4199 163 L4216 160 L4235 158 L4256 156 L4277 154 L4294 152 L4312 151 L4332 149 L4351 148 L4371 146 L4390 145 L4410 144 L4430 142 L4448 141 L4467 140 L4495 139 L4516 137 L4543 136 L4579 133 L4593 131 L4606 129 L4624 126 L4642 125 L4662 123 L4681 122 L4700 120 L4720 119 L4741 117 L4758 115 L4777 114 L4797 112 L4817 110 L4836 108 L4854 106 L4874 104 L4895 102 L4913 100 L4931 98 L4953 97 L4978 95 L4992 94 L5010 92 L5029 91 L5049 89 L5068 87 L5087 85 L5107 82 L5128 79 L5145 77 L5164 75 L5184 72 L5205 71 L5222 69 L5241 68 L5261 67 L5280 66 L5300 64 L5318 63 L5338 62 L5358 61 L5377 60 L5396 58 L5423 57 L5444 56 L5472 55 L5506 54 L5520 53 L5533 52 L5552 51 L5571 50 L5591 49 L5609 48 L5629 47 L5648 46 L5669 45 L5686 44 L5705 43 L5726 42 L5746 41 L5764 40 L5783 39 L5803 39 L5823 38 L5841 37 L5860 37 L5881 36 L5906 35 L5920 34 L5938 33 L5957 32 L5976 31 L5996 30 L6015 29 L6035 28 L6055 26 L6073 24 L6092 22 L6113 20 L6133 19 L6151 18 L6170 16 L6190 15 L6208 14 L6228 12 L6247 11 L6267 10 L6286 9 L6306 8 L6324 7 L6353 6 L6401 5 L6438 4 L6452 3 L6465 2 L6482 1 L6500 1" />
</svg>
