<svg xmlns="http://www.w3.org/2000/svg" version="1.1" viewBox="0 0 6500 1000">
	<path fill="none" stroke="gold" stroke-width="125" stroke-linecap="round" stroke-linejoin="round" d="M0 3755  L-724736 3755 L-722132 3755 L-720464 3755 L-702134 3755 L-701964 3754 L-694806 3754 L-694773 3754 L-681342 3754 L-678421 3754 L-665080 3754 L-660911 3753 L-659751 3752 L-659132 3751 L-657120 3751 L-653348 3750 L-652748 3750 L-652419 3750 L-652206 3749 L-651664 3749 L-650426 3748 L-649247 3746 L-646383 3745 L-645861 3743 L-641005 3743 L-638068 3743 L-638025 3742 L-637717 3742 L-637465 3742 L-634870 3741 L-630614 3741 L-630597 3741 L-629360 3741 L-627482 3741 L-625529 3741 L-624581 3741 L-624310 3740 L-624000 3740 L-623902 3740 L-623072 3740 L-621041 3740 L-620750 3739 L-618604 3738 L-618449 3737 L-614792 3736 L-614541 3736 L-614443 3736 L-613926 3737 L-611774 3738 L-610846 3739 L-609320 3739 L-608080 3739 L-606534 3739 L-603572 3739 L-602450 3739 L-602141 3738 L-600929 3738 L-597923 3740 L-597903 3740 L-597556 3740 L-597343 3739 L-597216 3737 L-596975 3737 L-596937 3736 L-596917 3736 L-596898 3736 L-596839 3735 L-596780 3735 L-596762 3735 L-596319 3734 L-595080 3734 L-593534 3734 L-590147 3733 L-584420 3733 L-584219 3733 L-582583 3733 L-580861 3733 L-579429 3732 L-579196 3732 L-578481 3732 L-572349 3732 L-571981 3731 L-571827 3731 L-571248 3731 L-570956 3730 L-569989 3730 L-569679 3730 L-569080 3729 L-567474 3729 L-566739 3729 L-566429 3730 L-565661 3730 L-563624 3729 L-563199 3729 L-562387 3729 L-554958 3728 L-554435 3728 L-554261 3728 L-553526 3727 L-551959 3727 L-551553 3727 L-549328 3727 L-548380 3726 L-547955 3726 L-547625 3726 L-546581 3726 L-544473 3726 L-544221 3725 L-543602 3725 L-542789 3725 L-540681 3724 L-540633 3724 L-538705 3724 L-538379 3723 L-538244 3723 L-537741 3723 L-536328 3723 L-535825 3722 L-535303 3721 L-531744 3721 L-531009 3720 L-528584 3720 L-527294 3720 L-526887 3720 L-523735 3720 L-523580 3720 L-523560 3720 L-523193 3720 L-521935 3720 L-521220 3720 L-520330 3720 L-519923 3720 L-518994 3720 L-517886 3720 L-517583 3721 L-511334 3721 L-510386 3721 L-508760 3722 L-508258 3722 L-504583 3722 L-503750 3722 L-499797 3722 L-498385 3722 L-495896 3721 L-495220 3721 L-495181 3721 L-494310 3721 L-491099 3721 L-488236 3721 L-487268 3720 L-486146 3720 L-486127 3720 L-484502 3719 L-484038 3719 L-483946 3719 L-477577 3718 L-476629 3718 L-474172 3718 L-473299 3718 L-472063 3718 L-470062 3717 L-469664 3717 L-468228 3717 L-466202 3717 L-465989 3716 L-464809 3716 L-463300 3716 L-463280 3716 L-461268 3716 L-460398 3715 L-459527 3715 L-458943 3715 L-458405 3714 L-457748 3714 L-456509 3714 L-455949 3714 L-454768 3713 L-453530 3713 L-453492 3713 L-453105 3713 L-452563 3712 L-451789 3712 L-450667 3712 L-448578 3712 L-448245 3711 L-447959 3711 L-447030 3711 L-446547 3711 L-445812 3710 L-442180 3710 L-441053 3710 L-440898 3710 L-439872 3710 L-436157 3709 L-434940 3709 L-433122 3709 L-430336 3709 L-429774 3708 L-425886 3708 L-423410 3708 L-422075 3708 L-421572 3708 L-421088 3708 L-418399 3708 L-414628 3708 L-412170 3708 L-410991 3708 L-410351 3708 L-407992 3707 L-407914 3707 L-406867 3707 L-406773 3706 L-406270 3706 L-405825 3706 L-405767 3706 L-405554 3706 L-402594 3706 L-399886 3706 L-399732 3706 L-396211 3706 L-395688 3705 L-394721 3705 L-394372 3705 L-393328 3704 L-392399 3704 L-391974 3704 L-390465 3704 L-389498 3704 L-389479 3704 L-387583 3691 L-387467 3678 L-387419 3666 L-387395 3653 L-384390 3653 L-382360 3652 L-380599 3652 L-380232 3652 L-379786 3652 L-379419 3652 L-379005 3651 L-377020 3651 L-376807 3651 L-376652 3651 L-375047 3651 L-373925 3651 L-372977 3651 L-371720 3650 L-370075 3650 L-368895 3650 L-362306 3649 L-362259 3649 L-361854 3649 L-360808 3649 L-360673 3649 L-358991 3648 L-358971 3648 L-357634 3648 L-356398 3648 L-356243 3648 L-355869 3647 L-355663 3647 L-355354 3647 L-354580 3647 L-352258 3646 L-351601 3646 L-349473 3646 L-347750 3646 L-347557 3646 L-345004 3645 L-344727 3645 L-344539 3645 L-343707 3645 L-342934 3644 L-342236 3644 L-337236 3644 L-336860 3644 L-332607 3644 L-332120 3661 L-332100 3661 L-332021 3660 L-331946 3660 L-331926 3643 L-331113 3643 L-330360 3642 L-329141 3642 L-327709 3642 L-327612 3642 L-327438 3642 L-327084 3642 L-325774 3641 L-323917 3641 L-322215 3641 L-321712 3641 L-321447 3641 L-321053 3640 L-320919 3640 L-320009 3640 L-319633 3640 L-318705 3640 L-318365 3640 L-318326 3640 L-318288 3640 L-316373 3640 L-316199 3639 L-314670 3639 L-314342 3639 L-314226 3639 L-313819 3639 L-313471 3639 L-311827 3638 L-311276 3638 L-311033 3638 L-310492 3638 L-309660 3637 L-309119 3637 L-307584 3637 L-307492 3637 L-307455 3636 L-307319 3636 L-306932 3636 L-305907 3636 L-304030 3636 L-303934 3636 L-303334 3641 L-302967 3647 L-302482 3653 L-302444 3659 L-301670 3659 L-301613 3659 L-301438 3659 L-301245 3658 L-299639 3658 L-299619 3658 L-299464 3658 L-299349 3658 L-298169 3659 L-298014 3659 L-297348 3659 L-294899 3673 L-292385 3687 L-289715 3701 L-282015 3715 L-276348 3715 L-274133 3715 L-274110 3715 L-273136 3718 L-273116 3718 L-272252 3718 L-269512 3718 L-263714 3714 L-263560 3714 L-260774 3714 L-247166 3714 L-246420 3713 L-242009 3713 L-225663 3713 L-225431 3712 L-224894 3712 L-216435 3712 L-207729 3712 L-207517 3712 L-205544 3712 L-202758 3712 L-198270 3712 L-198116 3712 L-197947 3712 L-197806 3711 L-197515 3711 L-197477 3711 L-197206 3711 L-197034 3711 L-196624 3710 L-195504 3710 L-194323 3710 L-193047 3710 L-190183 3710 L-187262 3710 L-185270 3709 L-183723 3709 L-180685 3709 L-171360 3709 L-170836 3709 L-165113 3709 L-163606 3708 L-162791 3708 L-161107 3708 L-160386 3708 L-160218 3708 L-159173 3708 L-157105 3707 L-155743 3707 L-151300 3707 L-151203 3707 L-151164 3707 L-151145 3706 L-150313 3706 L-150235 3706 L-147663 3706 L-144413 3706 L-144258 3705 L-143310 3705 L-141569 3705 L-140854 3706 L-137313 3707 L-130736 3708 L-129318 3709 L-129298 3709 L-128347 3709 L-124873 3709 L-124119 3708 L-123558 3708 L-122776 3708 L-115272 3708 L-113673 3708 L-112099 3708 L-108914 3707 L-104581 3707 L-96011 3707 L-87265 3707 L-84191 3707 L-80925 3706 L-80378 3706 L-73241 3706 L-67573 3706 L-53509 3706 L-47498 3706 L-42791 3706 L-38788 3706 L-33681 3706 L-23967 3705 L-8396 3705 L-5313 3705 L-5011 3628 L-4991 3533 L-4973 3425 L-4953 3305 L-4933 3250 L-4914 3203 L-4895 3161 L-4868 3119 L-4847 3078 L-4819 3035 L-4784 2987 L-4770 2947 L-4757 2912 L-4739 2884 L-4720 2862 L-4700 2841 L-4682 2819 L-4662 2797 L-4642 2775 L-4621 2752 L-4604 2730 L-4586 2708 L-4565 2687 L-4545 2666 L-4527 2643 L-4508 2620 L-4488 2595 L-4468 2572 L-4450 2549 L-4431 2527 L-4410 2506 L-4385 2485 L-4370 2465 L-4353 2446 L-4334 2426 L-4314 2406 L-4295 2385 L-4276 2364 L-4256 2343 L-4236 2324 L-4218 2305 L-4199 2288 L-4178 2271 L-4158 2255 L-4141 2242 L-4122 2228 L-4102 2215 L-4083 2203 L-4063 2191 L-4044 2180 L-4024 2171 L-4005 2162 L-3985 2152 L-3967 2143 L-3939 2132 L-3918 2120 L-3891 2106 L-3857 2092 L-3842 2080 L-3829 2069 L-3811 2059 L-3792 2051 L-3772 2042 L-3753 2032 L-3734 2022 L-3714 2012 L-3693 2003 L-3676 1994 L-3657 1985 L-3637 1975 L-3617 1965 L-3599 1953 L-3580 1940 L-3560 1927 L-3540 1913 L-3521 1899 L-3503 1885 L-3481 1870 L-3457 1853 L-3442 1836 L-3425 1821 L-3405 1805 L-3386 1790 L-3366 1773 L-3348 1756 L-3328 1740 L-3307 1724 L-3289 1708 L-3270 1693 L-3250 1678 L-3230 1664 L-3212 1650 L-3193 1638 L-3173 1625 L-3154 1614 L-3134 1602 L-3116 1591 L-3096 1580 L-3076 1568 L-3057 1557 L-3038 1545 L-3009 1534 L-2990 1524 L-2962 1513 L-2925 1500 L-2910 1488 L-2897 1476 L-2880 1465 L-2863 1458 L-2843 1450 L-2825 1444 L-2806 1437 L-2785 1431 L-2765 1424 L-2748 1417 L-2729 1410 L-2708 1402 L-2689 1394 L-2670 1385 L-2651 1376 L-2631 1366 L-2612 1356 L-2593 1345 L-2574 1335 L-2553 1326 L-2529 1315 L-2514 1306 L-2497 1295 L-2477 1285 L-2458 1275 L-2438 1265 L-2419 1254 L-2399 1243 L-2379 1232 L-2361 1222 L-2342 1212 L-2322 1203 L-2301 1194 L-2283 1186 L-2264 1177 L-2244 1169 L-2226 1160 L-2206 1151 L-2187 1143 L-2167 1135 L-2148 1127 L-2128 1119 L-2110 1111 L-2081 1103 L-2061 1095 L-2033 1086 L-1997 1073 L-1983 1061 L-1970 1050 L-1952 1041 L-1934 1034 L-1914 1028 L-1896 1020 L-1876 1012 L-1857 1003 L-1835 993 L-1817 983 L-1800 973 L-1779 961 L-1759 950 L-1741 938 L-1722 924 L-1702 911 L-1682 899 L-1664 888 L-1645 878 L-1624 871 L-1599 865 L-1584 859 L-1567 853 L-1548 846 L-1528 839 L-1509 832 L-1490 826 L-1470 820 L-1449 814 L-1432 809 L-1413 803 L-1393 796 L-1372 787 L-1355 779 L-1336 773 L-1316 767 L-1297 764 L-1277 760 L-1258 756 L-1239 752 L-1219 747 L-1200 742 L-1181 738 L-1153 733 L-1133 729 L-1105 725 L-1070 719 L-1056 714 L-1043 710 L-1024 706 L-1006 703 L-986 699 L-967 696 L-948 693 L-928 690 L-907 686 L-890 683 L-871 680 L-851 676 L-831 672 L-813 668 L-794 664 L-774 661 L-754 658 L-736 654 L-717 651 L-695 648 L-671 645 L-656 642 L-639 639 L-619 636 L-600 633 L-581 629 L-562 625 L-542 621 L-521 618 L-503 615 L-485 612 L-464 608 L-444 605 L-426 602 L-407 599 L-387 596 L-368 594 L-349 591 L-330 589 L-310 587 L-291 584 L-271 582 L-253 586 L-224 589 L-204 593 L-176 596 L-139 593 L-124 590 L-111 588 L-93 586 L-77 585 L-57 583 L-39 581 L-19 579 L0 577 L21 575 L38 574 L56 572 L77 570 L97 568 L115 566 L134 564 L154 562 L174 560 L192 558 L211 556 L232 555 L257 553 L271 551 L289 549 L308 547 L328 545 L347 543 L366 541 L386 538 L407 536 L424 533 L443 530 L464 527 L484 525 L501 523 L520 520 L540 518 L559 516 L579 513 L598 511 L618 508 L637 506 L656 504 L675 502 L703 500 L723 497 L751 495 L786 492 L800 490 L813 488 L832 486 L850 484 L870 482 L889 480 L908 478 L928 475 L949 473 L966 471 L985 469 L1005 467 L1025 464 L1043 461 L1062 458 L1082 455 L1102 451 L1121 448 L1139 446 L1161 443 L1186 440 L1200 437 L1217 433 L1237 431 L1256 428 L1275 425 L1294 421 L1314 419 L1335 416 L1353 413 L1372 410 L1392 407 L1413 405 L1430 403 L1449 401 L1469 399 L1488 397 L1507 395 L1526 394 L1546 392 L1566 391 L1585 389 L1604 388 L1631 386 L1652 384 L1680 383 L1715 379 L1729 376 L1742 374 L1761 371 L1779 369 L1799 367 L1817 365 L1837 363 L1857 361 L1878 359 L1895 357 L1913 355 L1934 353 L1954 350 L1972 348 L1991 345 L2011 343 L2031 340 L2049 338 L2068 336 L2089 335 L2114 332 L2129 331 L2146 329 L2165 326 L2185 324 L2204 322 L2223 319 L2243 316 L2264 312 L2281 309 L2300 307 L2321 304 L2341 302 L2359 300 L2378 298 L2398 297 L2416 296 L2436 294 L2455 292 L2475 291 L2494 289 L2514 288 L2532 287 L2560 285 L2581 284 L2608 282 L2642 281 L2657 280 L2670 278 L2688 277 L2707 276 L2727 275 L2746 273 L2765 272 L2785 272 L2806 271 L2823 269 L2842 268 L2862 267 L2882 265 L2900 264 L2919 263 L2939 262 L2959 261 L2978 260 L2997 260 L3018 259 L3042 257 L3057 256 L3074 255 L3094 254 L3113 253 L3132 252 L3151 250 L3171 249 L3192 247 L3210 244 L3229 242 L3249 240 L3270 237 L3287 236 L3306 234 L3326 233 L3345 231 L3365 229 L3383 228 L3403 227 L3422 225 L3442 224 L3461 223 L3489 222 L3537 221 L3574 219 L3589 218 L3601 217 L3618 216 L3636 215 L3656 215 L3674 214 L3693 213 L3714 212 L3734 211 L3751 210 L3770 210 L3791 209 L3810 208 L3829 207 L3848 206 L3868 205 L3887 204 L3906 203 L3925 201 L3946 199 L3971 197 L3985 196 L4002 194 L4022 192 L4041 190 L4061 189 L4080 187 L4100 185 L4121 184 L4138 182 L4157 180 L4178 179 L4198 178 L4216 177 L4235 175 L4255 174 L4273 173 L4293 172 L4312 171 L4332 169 L4351 168 L4371 167 L4389 165 L4418 164 L4438 163 L4466 161 L4502 158 L4517 156 L4530 153 L4547 151 L4565 150 L4585 148 L4603 147 L4623 147 L4642 146 L4664 145 L4680 143 L4699 142 L4720 140 L4740 138 L4758 136 L4777 134 L4797 131 L4817 129 L4835 127 L4854 125 L4875 123 L4900 121 L4915 120 L4933 118 L4951 116 L4971 115 L4990 114 L5009 111 L5029 109 L5050 108 L5067 106 L5086 104 L5106 103 L5128 101 L5144 100 L5163 99 L5183 97 L5202 96 L5222 95 L5241 93 L5260 92 L5280 91 L5299 90 L5318 89 L5346 997 L5366 995 L5394 994 L5430 992 L5444 80 L5458 79 L5475 77 L5493 76 L5513 76 L5531 75 L5551 74 L5571 72 L5592 70 L5609 68 L5627 66 L5648 65 L5668 62 L5686 60 L5705 57 L5725 55 L5746 53 L5763 52 L5782 50 L5804 49 L5829 47 L5844 45 L5873 42 L5913 39 L5936 37 L5965 34 L5982 31 L5996 29 L6015 27 L6035 26 L6056 25 L6073 23 L6092 22 L6112 21 L6131 20 L6150 19 L6169 18 L6189 17 L6209 16 L6228 15 L6247 14 L6274 13 L6295 12 L6323 10 L6358 9 L6372 7 L6403 6 L6422 5 L6442 4 L6460 3 L6480 2 L6500 1" />
</svg>
