<svg xmlns="http://www.w3.org/2000/svg" version="1.1" viewBox="0 0 6500 1000">
	<path fill="none" stroke="gold" stroke-width="125" stroke-linecap="round" stroke-linejoin="round" d="M0 3444  L-726389 3444 L-723785 3444 L-722116 3444 L-703787 3443 L-703617 3443 L-696459 3443 L-696426 3443 L-682995 3443 L-680073 3443 L-666732 3442 L-662563 3442 L-661403 3441 L-660784 3440 L-658772 3440 L-655000 3439 L-654400 3439 L-654072 3439 L-653859 3438 L-653317 3438 L-652079 3437 L-650900 3436 L-648036 3435 L-647513 3433 L-642658 3433 L-639721 3433 L-639678 3432 L-639369 3432 L-639117 3432 L-636522 3431 L-632267 3431 L-632249 3431 L-631012 3431 L-629135 3431 L-627181 3431 L-626233 3431 L-625963 3431 L-625653 3430 L-625555 3430 L-624724 3430 L-622693 3430 L-622403 3429 L-620257 3428 L-620101 3428 L-616445 3427 L-616194 3427 L-616095 3427 L-615578 3427 L-613427 3428 L-612498 3429 L-610972 3430 L-609733 3430 L-608186 3430 L-605224 3429 L-604102 3429 L-603793 3429 L-602582 3428 L-599575 3430 L-599556 3430 L-599208 3430 L-598995 3430 L-598869 3428 L-598627 3427 L-598590 3427 L-598570 3427 L-598551 3426 L-598492 3426 L-598433 3426 L-598415 3425 L-597972 3425 L-596733 3425 L-595187 3425 L-591799 3424 L-586073 3424 L-585871 3424 L-584235 3424 L-582513 3424 L-581081 3423 L-580849 3423 L-580134 3423 L-574002 3423 L-573634 3423 L-573479 3422 L-572901 3422 L-572608 3422 L-571641 3421 L-571332 3421 L-570733 3421 L-569126 3421 L-568391 3421 L-568081 3421 L-567313 3421 L-565277 3421 L-564852 3420 L-564039 3420 L-556610 3420 L-556087 3420 L-555914 3419 L-555179 3419 L-553611 3419 L-553206 3419 L-550981 3418 L-550033 3418 L-549608 3418 L-549277 3418 L-548234 3418 L-546125 3418 L-545873 3417 L-545254 3417 L-544442 3417 L-542334 3416 L-542285 3416 L-540357 3416 L-540031 3416 L-539896 3415 L-539393 3415 L-537980 3415 L-537477 3414 L-536956 3414 L-533396 3413 L-532661 3413 L-530236 3413 L-528947 3412 L-528540 3412 L-525387 3412 L-525233 3412 L-525212 3412 L-524846 3412 L-523587 3412 L-522872 3413 L-521982 3413 L-521576 3413 L-520647 3413 L-519538 3412 L-519235 3413 L-512986 3413 L-512039 3414 L-510413 3414 L-509911 3414 L-506235 3414 L-505403 3414 L-501450 3414 L-500038 3414 L-497549 3414 L-496872 3413 L-496834 3413 L-495963 3413 L-492752 3413 L-489888 3413 L-488920 3413 L-487799 3413 L-487780 3412 L-486155 3412 L-485691 3411 L-485599 3411 L-479230 3411 L-478281 3411 L-475824 3411 L-474952 3411 L-473716 3410 L-471714 3410 L-471317 3410 L-469881 3410 L-467854 3409 L-467641 3409 L-466461 3409 L-464953 3409 L-464933 3409 L-462920 3409 L-462051 3408 L-461180 3408 L-460595 3408 L-460058 3408 L-459400 3407 L-458162 3407 L-457601 3407 L-456420 3407 L-455183 3406 L-455144 3406 L-454757 3406 L-454216 3406 L-453442 3406 L-452320 3406 L-450230 3405 L-449897 3405 L-449611 3405 L-448683 3404 L-448200 3404 L-447464 3404 L-443833 3404 L-442705 3404 L-442551 3404 L-441525 3403 L-437810 3403 L-436593 3403 L-434774 3402 L-431988 3402 L-431427 3402 L-427539 3402 L-425062 3402 L-423728 3402 L-423224 3402 L-422741 3402 L-420052 3402 L-416280 3402 L-413823 3402 L-412643 3402 L-412004 3401 L-409644 3401 L-409567 3401 L-408519 3401 L-408426 3401 L-407923 3401 L-407477 3401 L-407420 3401 L-407206 3401 L-404247 3400 L-401539 3400 L-401384 3400 L-397863 3400 L-397340 3399 L-396373 3399 L-396024 3399 L-394981 3399 L-394052 3398 L-393626 3398 L-392117 3398 L-391150 3398 L-391131 3398 L-389235 3387 L-389119 3375 L-389071 3364 L-389047 3353 L-386043 3353 L-384012 3353 L-382251 3352 L-381884 3352 L-381439 3352 L-381072 3352 L-380658 3351 L-378673 3351 L-378460 3351 L-378305 3351 L-376700 3351 L-375578 3351 L-374629 3351 L-373372 3351 L-371728 3350 L-370548 3350 L-363958 3350 L-363912 3350 L-363506 3350 L-362461 3349 L-362326 3349 L-360643 3349 L-360623 3349 L-359286 3349 L-358050 3348 L-357896 3348 L-357522 3348 L-357316 3348 L-357006 3348 L-356232 3347 L-353911 3347 L-353253 3347 L-351125 3347 L-349403 3347 L-349209 3346 L-346656 3346 L-346380 3346 L-346192 3346 L-345359 3346 L-344587 3345 L-343889 3345 L-338888 3345 L-338512 3345 L-334259 3345 L-333772 3360 L-333753 3360 L-333674 3360 L-333599 3360 L-333579 3344 L-332766 3344 L-332012 3344 L-330793 3343 L-329361 3343 L-329265 3343 L-329091 3343 L-328736 3343 L-327427 3343 L-325570 3343 L-323867 3342 L-323364 3342 L-323099 3342 L-322706 3342 L-322572 3342 L-321662 3342 L-321286 3341 L-320357 3341 L-320018 3341 L-319978 3341 L-319941 3341 L-318025 3341 L-317852 3341 L-316323 3341 L-315995 3341 L-315878 3341 L-315471 3340 L-315123 3340 L-313479 3340 L-312929 3340 L-312685 3340 L-312144 3339 L-311313 3339 L-310771 3339 L-309237 3339 L-309144 3339 L-309107 3338 L-308971 3338 L-308584 3338 L-307559 3338 L-305683 3338 L-305587 3338 L-304986 3343 L-304619 3348 L-304135 3353 L-304097 3358 L-303323 3358 L-303265 3358 L-303091 3358 L-302897 3358 L-301292 3358 L-301272 3357 L-301117 3358 L-301001 3358 L-299822 3358 L-299667 3358 L-299000 3358 L-296552 3371 L-294037 3384 L-291367 3396 L-283668 3408 L-278000 3408 L-275786 3408 L-275762 3408 L-274789 3411 L-274769 3411 L-273905 3411 L-271165 3411 L-265366 3408 L-265213 3407 L-262427 3407 L-248819 3407 L-248073 3407 L-243662 3406 L-227316 3406 L-227084 3406 L-226547 3406 L-218087 3406 L-209382 3405 L-209169 3405 L-207197 3405 L-204410 3405 L-199923 3405 L-199768 3405 L-199599 3405 L-199459 3405 L-199168 3405 L-199129 3404 L-198858 3404 L-198687 3404 L-198277 3404 L-197156 3404 L-195976 3404 L-194699 3404 L-191835 3403 L-188915 3403 L-186923 3403 L-185375 3403 L-182337 3403 L-173013 3402 L-172489 3402 L-166765 3402 L-165258 3402 L-164443 3402 L-162760 3402 L-162039 3402 L-161870 3402 L-160825 3401 L-158758 3401 L-157396 3401 L-152953 3401 L-152855 3401 L-152817 3401 L-152798 3401 L-151965 3400 L-151888 3400 L-149315 3400 L-146066 3400 L-145911 3400 L-144963 3399 L-143222 3399 L-142506 3400 L-138965 3401 L-132388 3402 L-130971 3403 L-130950 3403 L-130000 3403 L-126525 3402 L-125772 3402 L-125210 3402 L-124428 3402 L-116924 3402 L-115326 3402 L-113752 3401 L-110566 3401 L-106233 3401 L-97664 3401 L-88917 3401 L-85843 3401 L-82577 3401 L-82031 3400 L-74894 3400 L-69226 3400 L-55162 3400 L-49150 3400 L-44444 3400 L-40441 3400 L-35333 3400 L-25619 3400 L-10049 3399 L-6966 3399 L-6664 3331 L-6644 3247 L-6625 3151 L-6605 3044 L-6586 2995 L-6567 2954 L-6548 2917 L-6520 2879 L-6500 2843 L-6472 2805 L-6436 2763 L-6423 2727 L-6410 2696 L-6391 2671 L-6373 2652 L-6353 2633 L-6334 2613 L-6315 2594 L-6295 2574 L-6274 2554 L-6257 2534 L-6238 2515 L-6218 2497 L-6198 2478 L-6180 2457 L-6161 2437 L-6141 2415 L-6121 2394 L-6102 2374 L-6084 2354 L-6062 2336 L-6038 2317 L-6023 2300 L-6006 2282 L-5986 2264 L-5967 2247 L-5948 2229 L-5929 2209 L-5909 2191 L-5888 2174 L-5870 2157 L-5851 2142 L-5831 2127 L-5810 2113 L-5793 2101 L-5774 2089 L-5754 2078 L-5735 2067 L-5716 2056 L-5697 2047 L-5677 2038 L-5657 2030 L-5638 2022 L-5619 2014 L-5592 2004 L-5571 1993 L-5543 1981 L-5509 1968 L-5495 1957 L-5482 1948 L-5463 1939 L-5444 1932 L-5424 1924 L-5406 1915 L-5387 1906 L-5367 1898 L-5346 1889 L-5329 1882 L-5310 1874 L-5290 1865 L-5270 1856 L-5251 1845 L-5233 1833 L-5212 1822 L-5193 1810 L-5174 1798 L-5155 1785 L-5134 1771 L-5110 1757 L-5095 1742 L-5078 1728 L-5058 1714 L-5039 1700 L-5019 1686 L-5000 1671 L-4980 1656 L-4960 1642 L-4942 1628 L-4923 1614 L-4903 1602 L-4882 1589 L-4865 1577 L-4845 1565 L-4825 1554 L-4807 1544 L-4787 1534 L-4768 1524 L-4748 1514 L-4729 1504 L-4710 1494 L-4691 1484 L-4662 1474 L-4642 1464 L-4614 1455 L-4577 1443 L-4562 1433 L-4550 1422 L-4533 1413 L-4516 1406 L-4496 1399 L-4477 1393 L-4458 1388 L-4438 1382 L-4417 1376 L-4400 1370 L-4381 1363 L-4361 1356 L-4341 1349 L-4323 1341 L-4304 1333 L-4284 1325 L-4264 1315 L-4245 1306 L-4227 1297 L-4205 1289 L-4181 1280 L-4166 1271 L-4149 1262 L-4129 1253 L-4110 1244 L-4091 1235 L-4072 1225 L-4052 1215 L-4031 1206 L-4013 1197 L-3994 1188 L-3974 1180 L-3954 1172 L-3936 1165 L-3917 1157 L-3897 1150 L-3878 1142 L-3858 1134 L-3840 1127 L-3820 1120 L-3800 1113 L-3781 1106 L-3762 1099 L-3734 1092 L-3714 1085 L-3686 1076 L-3650 1065 L-3636 1054 L-3622 1045 L-3605 1036 L-3587 1030 L-3567 1025 L-3549 1018 L-3529 1010 L-3509 1002 L-3488 994 L-3469 985 L-3452 976 L-3432 966 L-3412 955 L-3394 945 L-3375 933 L-3355 921 L-3335 911 L-3317 901 L-3298 892 L-3277 886 L-3252 880 L-3237 875 L-3219 869 L-3201 863 L-3181 857 L-3162 851 L-3143 845 L-3123 840 L-3102 835 L-3085 831 L-3065 826 L-3045 819 L-3024 811 L-3007 804 L-2988 798 L-2968 794 L-2949 790 L-2930 787 L-2911 783 L-2891 780 L-2871 775 L-2852 771 L-2834 767 L-2806 763 L-2785 760 L-2757 756 L-2723 750 L-2709 746 L-2696 743 L-2677 739 L-2658 736 L-2639 733 L-2620 730 L-2600 727 L-2581 725 L-2560 722 L-2543 719 L-2524 716 L-2503 712 L-2483 709 L-2465 705 L-2447 702 L-2427 699 L-2406 696 L-2388 693 L-2369 690 L-2348 688 L-2323 685 L-2309 682 L-2291 680 L-2272 677 L-2253 674 L-2233 671 L-2214 668 L-2194 664 L-2173 661 L-2156 658 L-2137 655 L-2117 653 L-2096 650 L-2079 647 L-2060 644 L-2040 642 L-2021 639 L-2001 637 L-1982 635 L-1962 633 L-1943 631 L-1924 629 L-1905 633 L-1876 636 L-1857 639 L-1829 642 L-1791 639 L-1776 637 L-1763 635 L-1746 633 L-1730 632 L-1710 630 L-1691 628 L-1672 626 L-1652 625 L-1631 623 L-1614 622 L-1595 620 L-1575 618 L-1555 617 L-1537 615 L-1518 613 L-1498 611 L-1478 609 L-1460 608 L-1441 606 L-1419 605 L-1395 603 L-1380 602 L-1363 600 L-1343 598 L-1324 596 L-1305 595 L-1286 593 L-1266 591 L-1245 588 L-1227 585 L-1209 583 L-1188 581 L-1167 579 L-1150 577 L-1131 574 L-1111 572 L-1092 571 L-1073 568 L-1054 566 L-1034 563 L-1014 561 L-995 560 L-976 558 L-949 556 L-928 554 L-900 552 L-865 550 L-852 547 L-839 546 L-820 544 L-801 542 L-781 540 L-763 538 L-743 537 L-724 535 L-702 533 L-685 531 L-667 529 L-646 527 L-626 525 L-608 522 L-589 519 L-569 516 L-549 513 L-531 511 L-512 508 L-491 506 L-466 503 L-451 500 L-434 497 L-415 495 L-395 492 L-376 490 L-357 487 L-337 484 L-316 482 L-299 479 L-280 477 L-259 474 L-239 472 L-222 470 L-203 468 L-183 467 L-164 465 L-144 464 L-125 462 L-106 461 L-86 459 L-67 458 L-48 457 L-20 455 L0 454 L27 452 L63 449 L77 447 L90 444 L108 442 L126 440 L146 439 L165 437 L184 435 L204 434 L225 432 L242 430 L261 428 L281 426 L301 424 L319 421 L338 419 L358 417 L379 415 L396 413 L415 411 L437 410 L462 408 L476 406 L493 405 L513 403 L532 401 L552 398 L570 396 L590 393 L612 390 L629 387 L648 385 L668 383 L689 381 L706 379 L725 378 L745 376 L764 375 L784 374 L802 372 L822 371 L842 370 L861 369 L880 367 L907 366 L928 365 L956 363 L990 362 L1004 361 L1017 360 L1036 359 L1055 358 L1074 357 L1093 355 L1112 355 L1132 354 L1153 353 L1170 352 L1189 351 L1209 350 L1229 348 L1248 347 L1267 346 L1287 345 L1307 345 L1325 344 L1344 343 L1365 342 L1390 341 L1404 340 L1422 339 L1441 338 L1460 337 L1480 336 L1499 335 L1519 334 L1539 332 L1557 330 L1576 328 L1596 325 L1617 324 L1635 322 L1654 321 L1674 319 L1692 318 L1712 316 L1731 315 L1751 314 L1770 313 L1790 312 L1808 311 L1837 310 L1885 309 L1921 308 L1936 306 L1949 305 L1966 304 L1983 304 L2003 304 L2022 303 L2041 302 L2061 301 L2082 300 L2099 300 L2118 299 L2138 298 L2158 297 L2176 297 L2195 296 L2215 295 L2235 294 L2254 293 L2272 291 L2294 290 L2318 288 L2333 286 L2350 285 L2370 283 L2389 282 L2409 280 L2427 279 L2447 277 L2468 276 L2486 274 L2505 273 L2525 272 L2545 270 L2563 270 L2582 268 L2602 267 L2621 267 L2641 265 L2659 264 L2679 263 L2699 262 L2718 261 L2737 260 L2765 259 L2785 257 L2813 256 L2850 253 L2865 251 L2877 249 L2895 247 L2912 246 L2932 245 L2950 244 L2970 243 L2990 242 L3011 241 L3028 240 L3046 239 L3067 237 L3088 236 L3105 234 L3124 231 L3144 229 L3165 227 L3182 225 L3201 224 L3223 222 L3248 220 L3263 219 L3280 218 L3299 216 L3319 215 L3337 214 L3356 212 L3376 210 L3398 208 L3414 207 L3434 206 L3454 204 L3475 203 L3492 202 L3511 200 L3531 199 L3550 198 L3569 197 L3588 196 L3608 195 L3628 193 L3647 193 L3666 191 L3693 997 L3714 996 L3742 994 L3778 992 L3792 184 L3805 183 L3823 181 L3841 181 L3860 180 L3879 179 L3898 178 L3918 177 L3940 175 L3956 174 L3975 172 L3996 170 L4016 168 L4034 166 L4053 164 L4073 162 L4094 160 L4111 159 L4130 158 L4151 156 L4176 154 L4191 152 L4221 150 L4261 148 L4284 145 L4313 143 L4329 140 L4343 138 L4362 137 L4383 136 L4404 135 L4420 134 L4439 132 L4459 131 L4478 131 L4498 130 L4517 129 L4537 128 L4557 127 L4575 126 L4594 125 L4622 124 L4642 123 L4670 122 L4705 121 L4719 120 L4751 118 L4769 117 L4789 116 L4808 116 L4827 115 L4847 114 L4868 113 L4885 113 L4903 111 L4924 108 L4945 104 L4962 100 L4981 97 L5001 94 L5021 91 L5039 89 L5058 87 L5080 86 L5105 84 L5120 83 L5137 82 L5156 80 L5176 78 L5194 77 L5214 75 L5233 74 L5255 72 L5272 70 L5291 69 L5311 68 L5332 67 L5349 66 L5368 65 L5388 64 L5407 63 L5426 61 L5446 60 L5465 59 L5485 58 L5504 57 L5523 56 L5550 55 L5571 54 L5641 52 L5669 50 L5684 47 L5698 45 L5718 43 L5736 42 L5755 41 L5775 39 L5796 38 L5813 37 L5832 36 L5853 35 L5873 35 L5891 33 L5910 32 L5930 31 L5950 29 L5968 27 L5987 26 L6008 25 L6033 24 L6048 23 L6066 22 L6084 21 L6104 19 L6123 18 L6142 16 L6162 15 L6183 14 L6200 13 L6219 12 L6240 11 L6261 10 L6278 9 L6336 8 L6355 7 L6374 6 L6394 5 L6414 4 L6433 3 L6451 3 L6479 2 L6500 1" />
</svg>
