<svg xmlns="http://www.w3.org/2000/svg" version="1.1" viewBox="0 0 6500 1000">
	<path fill="none" stroke="gold" stroke-width="125" stroke-linecap="round" stroke-linejoin="round" d="M0 1015  L-718680 1015 L-716076 1015 L-714407 1015 L-696078 1015 L-695908 1015 L-688750 1015 L-688717 1015 L-675286 1015 L-672364 1015 L-659023 1015 L-654854 1015 L-653694 1014 L-653075 1014 L-651063 1014 L-647291 1014 L-646691 1014 L-646363 1014 L-646150 1013 L-645608 1013 L-644370 1013 L-643191 1013 L-640327 1012 L-639804 1012 L-634949 1012 L-632012 1011 L-631969 1011 L-631660 1011 L-631408 1011 L-628813 1011 L-624558 1011 L-624540 1011 L-623303 1011 L-621426 1011 L-619472 1011 L-618524 1011 L-618254 1011 L-617944 1011 L-617846 1011 L-617015 1011 L-614984 1011 L-614694 1010 L-612548 1010 L-612392 1010 L-608736 1009 L-608485 1009 L-608386 1009 L-607869 1010 L-605718 1010 L-604789 1010 L-603263 1010 L-602024 1010 L-600477 1010 L-597515 1010 L-596393 1010 L-596084 1010 L-594873 1010 L-591866 1011 L-591847 1010 L-591499 1010 L-591286 1010 L-591160 1010 L-590918 1010 L-590881 1009 L-590861 1009 L-590842 1009 L-590783 1009 L-590724 1009 L-590706 1009 L-590263 1009 L-589024 1009 L-587478 1009 L-584090 1008 L-578364 1008 L-578162 1008 L-576526 1008 L-574804 1008 L-573372 1008 L-573140 1008 L-572425 1008 L-566293 1008 L-565925 1008 L-565770 1008 L-565192 1008 L-564899 1008 L-563932 1007 L-563623 1007 L-563024 1007 L-561417 1007 L-560682 1007 L-560372 1007 L-559604 1007 L-557568 1007 L-557143 1007 L-556330 1007 L-548901 1007 L-548378 1007 L-548205 1007 L-547470 1007 L-545902 1006 L-545497 1006 L-543272 1006 L-542324 1006 L-541899 1006 L-541568 1006 L-540525 1006 L-538416 1006 L-538164 1006 L-537545 1006 L-536733 1006 L-534625 1006 L-534576 1006 L-532648 1005 L-532322 1005 L-532187 1005 L-531684 1005 L-530271 1005 L-529768 1005 L-529247 1005 L-525687 1004 L-524952 1004 L-522527 1004 L-521238 1004 L-520831 1004 L-517678 1004 L-517524 1004 L-517503 1004 L-517137 1004 L-515878 1004 L-515163 1004 L-514273 1004 L-513867 1004 L-512938 1004 L-511829 1004 L-511526 1004 L-505277 1005 L-504330 1005 L-502704 1005 L-502202 1005 L-498526 1005 L-497694 1005 L-493741 1005 L-492329 1005 L-489840 1005 L-489163 1005 L-489125 1005 L-488254 1005 L-485043 1004 L-482179 1004 L-481211 1004 L-480090 1004 L-480071 1004 L-478446 1004 L-477982 1004 L-477890 1004 L-471521 1004 L-470572 1004 L-468115 1004 L-467243 1004 L-466007 1004 L-464005 1003 L-463608 1003 L-462172 1003 L-460145 1003 L-459932 1003 L-458752 1003 L-457244 1003 L-457224 1003 L-455211 1003 L-454342 1003 L-453471 1003 L-452886 1003 L-452349 1003 L-451691 1002 L-450453 1002 L-449892 1002 L-448711 1002 L-447474 1002 L-447435 1002 L-447048 1002 L-446507 1002 L-445733 1002 L-444611 1002 L-442521 1002 L-442188 1002 L-441902 1001 L-440974 1001 L-440491 1001 L-439755 1001 L-436124 1001 L-434996 1001 L-434842 1001 L-433816 1001 L-430101 1001 L-428884 1001 L-427065 1001 L-424279 1001 L-423718 1001 L-419830 1001 L-417353 1001 L-416019 1001 L-415515 1000 L-415032 1000 L-412343 1000 L-408571 1000 L-406114 1000 L-404934 1000 L-404295 1000 L-401935 1000 L-401858 1000 L-400810 1000 L-400717 1000 L-400214 1000 L-399768 1000 L-399711 1000 L-399497 1000 L-396538 1000 L-393830 1000 L-393675 1000 L-390154 1000 L-389631 1000 L-388664 1000 L-388315 999 L-387272 999 L-386343 999 L-385917 999 L-384408 999 L-383441 999 L-383422 999 L-381526 995 L-381410 991 L-381362 987 L-381338 983 L-378334 983 L-376303 983 L-374542 983 L-374175 983 L-373730 983 L-373363 983 L-372949 983 L-370964 983 L-370751 983 L-370596 983 L-368991 983 L-367869 982 L-366920 982 L-365663 982 L-364019 982 L-362839 982 L-356249 982 L-356203 982 L-355797 982 L-354752 982 L-354617 982 L-352934 982 L-352914 982 L-351577 982 L-350341 982 L-350187 981 L-349813 981 L-349607 981 L-349297 981 L-348523 981 L-346202 981 L-345544 981 L-343416 981 L-341694 981 L-341500 981 L-338947 981 L-338671 981 L-338483 981 L-337650 981 L-336878 980 L-336180 980 L-331179 980 L-330803 980 L-326550 980 L-326063 986 L-326044 986 L-325965 986 L-325890 985 L-325870 980 L-325057 980 L-324303 980 L-323084 980 L-321652 980 L-321556 980 L-321382 980 L-321027 980 L-319718 980 L-317861 979 L-316158 979 L-315655 979 L-315390 979 L-314997 979 L-314863 979 L-313953 979 L-313577 979 L-312648 979 L-312309 979 L-312269 979 L-312232 979 L-310316 979 L-310143 979 L-308614 979 L-308286 979 L-308169 979 L-307762 979 L-307414 979 L-305770 979 L-305220 978 L-304976 978 L-304435 978 L-303604 978 L-303062 978 L-301528 978 L-301435 978 L-301398 978 L-301262 978 L-300875 978 L-299850 978 L-297974 978 L-297878 978 L-297277 979 L-296910 981 L-296426 983 L-296388 985 L-295614 985 L-295556 985 L-295382 985 L-295188 985 L-293583 985 L-293563 985 L-293408 985 L-293292 985 L-292113 985 L-291958 985 L-291291 985 L-288843 990 L-286328 994 L-283658 998 L-275959 1003 L-270291 1003 L-268077 1003 L-268053 1003 L-267080 1004 L-267060 1004 L-266196 1004 L-263456 1004 L-257657 1003 L-257504 1002 L-254718 1002 L-241110 1002 L-240364 1002 L-235953 1002 L-219607 1002 L-219375 1002 L-218838 1002 L-210378 1002 L-201673 1002 L-201460 1002 L-199488 1002 L-196701 1002 L-192214 1002 L-192059 1002 L-191890 1002 L-191750 1002 L-191459 1001 L-191420 1001 L-191149 1001 L-190978 1001 L-190568 1001 L-189447 1001 L-188267 1001 L-186990 1001 L-184126 1001 L-181206 1001 L-179214 1001 L-177666 1001 L-174628 1001 L-165304 1001 L-164780 1001 L-159056 1001 L-157549 1001 L-156734 1001 L-155051 1001 L-154330 1000 L-154161 1000 L-153116 1000 L-151049 1000 L-149687 1000 L-145244 1000 L-145146 1000 L-145108 1000 L-145089 1000 L-144256 1000 L-144179 1000 L-141606 1000 L-138357 1000 L-138202 1000 L-137254 1000 L-135513 1000 L-134797 1000 L-131256 1000 L-124679 1000 L-123262 1001 L-123241 1001 L-122291 1001 L-118816 1001 L-118063 1001 L-117501 1001 L-116719 1001 L-109215 1000 L-107617 1000 L-106043 1000 L-102857 1000 L-98524 1000 L-89955 1000 L-81208 1000 L-78134 1000 L-74868 1000 L-74322 1000 L-67185 1000 L-61517 1000 L-47453 1000 L-41441 1000 L-36735 1000 L-32732 1000 L-27624 1000 L-17910 1000 L-2340 1000 L742 999 L1044 975 L1064 945 L1083 911 L1103 874 L1122 856 L1141 842 L1160 828 L1188 815 L1209 802 L1236 789 L1272 774 L1285 761 L1298 750 L1317 741 L1335 734 L1355 727 L1374 721 L1393 714 L1413 707 L1434 700 L1451 693 L1470 686 L1490 679 L1510 672 L1528 665 L1547 658 L1567 650 L1587 643 L1606 636 L1624 629 L1646 622 L1670 615 L1685 609 L1702 603 L1722 597 L1741 591 L1760 584 L1779 577 L1799 571 L1820 565 L1838 559 L1857 553 L1877 548 L1898 543 L1915 539 L1934 535 L1954 531 L1973 527 L1992 523 L2011 519 L2031 517 L2051 514 L2070 511 L2089 508 L2116 504 L2137 500 L2165 496 L2199 492 L2213 488 L2226 484 L2245 481 L2264 479 L2284 476 L2302 473 L2321 470 L2341 467 L2362 464 L2379 461 L2398 458 L2418 455 L2438 452 L2457 448 L2475 444 L2496 440 L2515 435 L2534 431 L2553 427 L2574 422 L2598 417 L2613 411 L2630 406 L2650 401 L2669 397 L2689 391 L2708 386 L2728 381 L2748 376 L2766 371 L2785 366 L2805 362 L2826 357 L2843 353 L2863 349 L2883 345 L2901 341 L2921 338 L2940 334 L2960 330 L2979 327 L2998 323 L3017 320 L3046 316 L3066 313 L3094 309 L3131 305 L3146 302 L3158 298 L3175 295 L3192 292 L3212 290 L3231 288 L3250 286 L3270 284 L3291 282 L3308 279 L3327 277 L3347 274 L3367 272 L3385 269 L3404 266 L3424 263 L3444 260 L3463 257 L3481 254 L3503 251 L3527 247 L3542 244 L3559 241 L3579 238 L3598 235 L3617 231 L3636 228 L3656 224 L3677 221 L3695 218 L3714 215 L3734 212 L3754 209 L3772 206 L3791 204 L3811 201 L3830 198 L3850 196 L3868 193 L3888 191 L3908 188 L3927 186 L3946 183 L3974 181 L3994 178 L4022 175 L4058 171 L4072 167 L4086 164 L4103 161 L4121 159 L4141 157 L4159 154 L4179 152 L4199 149 L4220 146 L4239 143 L4256 139 L4276 136 L4296 132 L4314 128 L4333 124 L4353 120 L4373 116 L4391 113 L4410 110 L4431 107 L4456 105 L4471 103 L4489 102 L4507 100 L4527 97 L4546 95 L4565 93 L4585 91 L4606 90 L4623 88 L4643 86 L4663 84 L4684 81 L4701 78 L4720 76 L4740 75 L4759 74 L4778 72 L4797 71 L4817 70 L4837 68 L4856 67 L4874 65 L4902 64 L4923 63 L4951 61 L4985 59 L4999 58 L5012 57 L5031 55 L5050 54 L5069 53 L5088 52 L5108 51 L5127 50 L5148 49 L5165 48 L5184 47 L5205 46 L5225 45 L5243 43 L5261 42 L5281 41 L5302 40 L5320 39 L5339 38 L5360 37 L5385 36 L5399 35 L5417 34 L5436 33 L5455 32 L5475 31 L5494 30 L5514 29 L5535 28 L5552 27 L5571 26 L5591 25 L5612 24 L5629 23 L5648 22 L5668 21 L5687 20 L5707 19 L5726 18 L5746 18 L5765 17 L5784 16 L5803 18 L5832 19 L5851 20 L5879 21 L5917 20 L5932 19 L5945 18 L5962 18 L5978 17 L5998 17 L6017 16 L6036 15 L6056 15 L6077 14 L6094 14 L6113 13 L6133 13 L6153 12 L6171 11 L6190 11 L6210 10 L6230 9 L6248 9 L6267 8 L6289 8 L6313 7 L6328 7 L6345 6 L6365 5 L6384 5 L6403 4 L6422 3 L6442 3 L6463 2 L6481 1 L6500 0" />
</svg>
