<svg xmlns="http://www.w3.org/2000/svg" version="1.1" viewBox="0 0 6500 1000">
	<path fill="none" stroke="gold" stroke-width="125" stroke-linecap="round" stroke-linejoin="round" d="M0 49421  L-410781 49421 L-408177 49350 L-406509 49279 L-388179 49137 L-388009 48995 L-380851 48852 L-380818 48852 L-367387 48781 L-364465 48852 L-351124 48639 L-346955 48355 L-345795 48000 L-345176 47644 L-343164 47431 L-339393 47289 L-338792 47147 L-338464 47004 L-338251 46862 L-337709 46720 L-336471 46152 L-335292 45583 L-332428 45014 L-331905 44446 L-327050 44304 L-324113 44162 L-324070 44019 L-323761 43877 L-323509 43735 L-320915 43593 L-316659 43593 L-316641 43593 L-315404 43593 L-313527 43593 L-311573 43451 L-310625 43309 L-310355 43167 L-310045 43095 L-309947 43024 L-309116 43024 L-307086 43095 L-306795 42456 L-304649 42171 L-304493 41745 L-300837 41319 L-300586 41532 L-300487 41461 L-299970 41674 L-297819 42029 L-296890 42385 L-295364 42740 L-294125 42740 L-292578 42669 L-289616 42527 L-288495 42385 L-288185 42243 L-286974 42171 L-283967 42953 L-283948 42882 L-283600 42811 L-283387 42740 L-283261 41745 L-283020 41603 L-282982 41461 L-282962 41319 L-282943 41176 L-282884 41034 L-282825 40892 L-282807 40750 L-282364 40608 L-281125 40466 L-279579 40324 L-276191 40181 L-270465 40110 L-270263 40039 L-268628 39968 L-266906 39897 L-265473 39826 L-265241 39755 L-264526 39684 L-258394 39613 L-258026 39471 L-257872 39329 L-257293 39186 L-257001 39044 L-256033 38902 L-255724 38760 L-255125 38618 L-253518 38618 L-252783 38618 L-252473 38689 L-251705 38689 L-249669 38547 L-249244 38405 L-248431 38334 L-241003 38191 L-240480 38049 L-240306 37907 L-239571 37765 L-238003 37623 L-237598 37552 L-235373 37410 L-234425 37339 L-234000 37267 L-233669 37267 L-232626 37196 L-230518 37054 L-230265 36912 L-229646 36770 L-228834 36699 L-226726 36557 L-226677 36415 L-224749 36272 L-224423 36130 L-224288 35988 L-223785 35917 L-222373 35775 L-221870 35491 L-221348 35277 L-217788 34993 L-217053 34709 L-214628 34709 L-213339 34567 L-212932 34496 L-209779 34496 L-209625 34496 L-209604 34567 L-209238 34567 L-207980 34638 L-207265 34709 L-206375 34709 L-205968 34709 L-205039 34709 L-203930 34638 L-203627 34922 L-197378 35064 L-196431 35206 L-194805 35348 L-194303 35420 L-190627 35491 L-189795 35562 L-185842 35633 L-184430 35420 L-181941 35277 L-181264 35135 L-181226 35064 L-180355 35064 L-177144 34993 L-174281 34922 L-173313 34851 L-172191 34709 L-172172 34567 L-170547 34425 L-170083 34211 L-169991 34140 L-163622 34069 L-162673 33998 L-160216 33927 L-159344 33785 L-158108 33714 L-156107 33643 L-155709 33501 L-154273 33358 L-152247 33287 L-152033 33145 L-150853 33074 L-149345 33003 L-149325 32932 L-147312 32861 L-146443 32719 L-145572 32648 L-144987 32506 L-144450 32363 L-143792 32221 L-142554 32079 L-141994 32008 L-140812 31937 L-139575 31866 L-139536 31795 L-139149 31724 L-138608 31582 L-137834 31511 L-136712 31439 L-134623 31297 L-134289 31155 L-134003 31013 L-133075 30942 L-132592 30800 L-131856 30729 L-128225 30658 L-127097 30587 L-126943 30515 L-125917 30373 L-122202 30302 L-120985 30160 L-119166 30018 L-116380 29947 L-115819 29805 L-111931 29805 L-109455 29734 L-108120 29734 L-107616 29663 L-107133 29592 L-104444 29592 L-100672 29592 L-98215 29592 L-97035 29592 L-96396 29520 L-94036 29378 L-93959 29307 L-92912 29236 L-92818 29094 L-92315 29094 L-91870 29094 L-91812 29094 L-91598 29094 L-88639 28952 L-85931 28881 L-85776 28810 L-82256 28739 L-81733 28597 L-80765 28454 L-80416 28383 L-79373 28241 L-78444 28099 L-78018 28028 L-76509 28028 L-75542 27957 L-75523 27886 L-73627 22697 L-73511 17367 L-73464 12108 L-73439 6848 L-70435 6777 L-68404 6635 L-66643 6564 L-66276 6493 L-65831 6351 L-65464 6280 L-65050 6137 L-63065 6066 L-62852 6066 L-62697 5995 L-61092 5995 L-59970 5924 L-59022 5853 L-57764 5711 L-56120 5640 L-54940 5498 L-48351 5427 L-48304 5356 L-47898 5285 L-46853 5213 L-46718 5142 L-45035 5000 L-45015 4929 L-43678 4787 L-42442 4716 L-42288 4645 L-41914 4503 L-41708 4432 L-41398 4361 L-40625 4218 L-38303 4147 L-37645 4076 L-35517 4005 L-33795 3934 L-33602 3792 L-31048 3721 L-30772 3579 L-30584 3437 L-29751 3366 L-28979 3294 L-28281 3223 L-23280 3223 L-22904 3081 L-18651 3010 L-18164 10046 L-18145 10046 L-18066 9975 L-17991 9904 L-17971 2655 L-17158 2584 L-16404 2442 L-15185 2371 L-13753 2371 L-13657 2299 L-13483 2299 L-13128 2157 L-11819 2086 L-9962 2015 L-8259 1873 L-7757 1802 L-7491 1731 L-7098 1660 L-6964 1589 L-6054 1518 L-5678 1447 L-4749 1447 L-4410 1375 L-4370 1375 L-4333 1304 L-2417 1304 L-2244 1233 L-715 1233 L-387 1162 L-271 1091 L136 949 L484 878 L2127 736 L2678 665 L2921 594 L3463 523 L4294 380 L4836 309 L6370 167 L6463 96 L6500 25" />
</svg>
