<svg xmlns="http://www.w3.org/2000/svg" version="1.1" viewBox="0 0 6500 1000">
	<path fill="none" stroke="gold" stroke-width="125" stroke-linecap="round" stroke-linejoin="round" d="M0 1016  L-717732 1016 L-715128 1016 L-713460 1016 L-695131 1016 L-694960 1016 L-687803 1015 L-687769 1015 L-674338 1015 L-671417 1015 L-658076 1015 L-653907 1015 L-652747 1015 L-652128 1014 L-650116 1014 L-646344 1014 L-645744 1014 L-645415 1014 L-645202 1014 L-644660 1014 L-643422 1013 L-642243 1013 L-639379 1012 L-638857 1012 L-634001 1012 L-631064 1012 L-631021 1012 L-630713 1012 L-630461 1011 L-627866 1011 L-623611 1011 L-623593 1011 L-622356 1011 L-620478 1011 L-618525 1011 L-617577 1011 L-617306 1011 L-616996 1011 L-616898 1011 L-616068 1011 L-614037 1011 L-613747 1010 L-611600 1010 L-611445 1010 L-607788 1010 L-607537 1010 L-607439 1010 L-606922 1010 L-604770 1010 L-603842 1010 L-602316 1011 L-601076 1011 L-599530 1011 L-596568 1011 L-595446 1010 L-595137 1010 L-593926 1010 L-590919 1011 L-590899 1011 L-590552 1011 L-590339 1011 L-590213 1010 L-589971 1010 L-589933 1010 L-589913 1010 L-589894 1009 L-589835 1009 L-589777 1009 L-589759 1009 L-589315 1009 L-588076 1009 L-586530 1009 L-583143 1009 L-577416 1009 L-577215 1009 L-575579 1009 L-573857 1008 L-572425 1008 L-572193 1008 L-571477 1008 L-565345 1008 L-564977 1008 L-564823 1008 L-564245 1008 L-563952 1008 L-562985 1008 L-562675 1008 L-562076 1007 L-560470 1007 L-559735 1007 L-559425 1008 L-558657 1008 L-556620 1007 L-556195 1007 L-555383 1007 L-547954 1007 L-547431 1007 L-547257 1007 L-546522 1007 L-544955 1007 L-544549 1007 L-542324 1007 L-541376 1006 L-540951 1006 L-540621 1006 L-539577 1006 L-537469 1006 L-537217 1006 L-536598 1006 L-535785 1006 L-533677 1006 L-533629 1006 L-531701 1006 L-531375 1006 L-531240 1005 L-530737 1005 L-529324 1005 L-528821 1005 L-528299 1005 L-524740 1005 L-524005 1004 L-521580 1004 L-520290 1004 L-519883 1004 L-516731 1004 L-516576 1004 L-516556 1004 L-516189 1004 L-514931 1004 L-514216 1004 L-513326 1004 L-512919 1004 L-511991 1004 L-510882 1004 L-510579 1005 L-504330 1005 L-503383 1005 L-501756 1005 L-501255 1005 L-497579 1005 L-496746 1005 L-492793 1005 L-491382 1005 L-488892 1005 L-488216 1005 L-488177 1005 L-487306 1005 L-484095 1005 L-481232 1005 L-480264 1005 L-479142 1004 L-479123 1004 L-477498 1004 L-477034 1004 L-476942 1004 L-470573 1004 L-469625 1004 L-467168 1004 L-466295 1004 L-465059 1004 L-463058 1004 L-462660 1003 L-461224 1003 L-459198 1003 L-458985 1003 L-457805 1003 L-456296 1003 L-456276 1003 L-454264 1003 L-453394 1003 L-452523 1003 L-451939 1003 L-451401 1003 L-450744 1002 L-449506 1002 L-448945 1002 L-447764 1002 L-446526 1002 L-446488 1002 L-446101 1002 L-445559 1002 L-444785 1002 L-443663 1002 L-441574 1002 L-441241 1002 L-440955 1002 L-440026 1001 L-439543 1001 L-438808 1001 L-435176 1001 L-434049 1001 L-433894 1001 L-432868 1001 L-429153 1001 L-427936 1001 L-426118 1001 L-423332 1001 L-422770 1001 L-418883 1001 L-416406 1001 L-415071 1001 L-414568 1000 L-414085 1000 L-411395 1000 L-407624 1000 L-405166 1000 L-403987 1000 L-403347 1000 L-400988 1000 L-400910 1000 L-399863 1000 L-399769 1000 L-399267 1000 L-398821 1000 L-398763 1000 L-398550 1000 L-395590 1000 L-392883 1000 L-392728 1000 L-389207 1000 L-388684 1000 L-387717 1000 L-387368 999 L-386324 999 L-385395 999 L-384970 999 L-383461 999 L-382494 999 L-382475 999 L-380579 995 L-380463 991 L-380415 987 L-380391 983 L-377386 983 L-375356 983 L-373595 982 L-373228 982 L-372782 982 L-372415 982 L-372001 982 L-370016 982 L-369803 982 L-369648 982 L-368043 982 L-366921 982 L-365973 982 L-364716 982 L-363071 982 L-361891 982 L-355302 982 L-355255 982 L-354850 981 L-353805 981 L-353669 981 L-351987 981 L-351967 981 L-350630 981 L-349394 981 L-349239 981 L-348866 981 L-348659 981 L-348350 981 L-347576 981 L-345254 981 L-344597 981 L-342469 980 L-340746 980 L-340553 980 L-338000 980 L-337723 980 L-337535 980 L-336703 980 L-335930 980 L-335232 980 L-330232 980 L-329856 980 L-325603 980 L-325116 985 L-325096 985 L-325017 985 L-324942 985 L-324922 979 L-324110 979 L-323356 979 L-322137 979 L-320705 979 L-320609 979 L-320434 979 L-320080 979 L-318770 979 L-316913 979 L-315211 979 L-314708 979 L-314443 979 L-314049 979 L-313915 979 L-313005 979 L-312629 978 L-311701 978 L-311361 978 L-311322 978 L-311284 978 L-309369 978 L-309195 978 L-307666 978 L-307338 978 L-307222 978 L-306815 978 L-306467 978 L-304823 978 L-304272 978 L-304029 978 L-303488 978 L-302656 978 L-302115 978 L-300580 977 L-300488 977 L-300451 977 L-300315 977 L-299928 977 L-298903 977 L-297027 977 L-296930 977 L-296330 979 L-295963 981 L-295478 983 L-295440 985 L-294666 985 L-294609 985 L-294434 985 L-294241 984 L-292635 984 L-292616 984 L-292460 984 L-292345 984 L-291165 985 L-291011 985 L-290344 985 L-287895 989 L-285381 994 L-282711 998 L-275012 1003 L-269344 1003 L-267129 1003 L-267106 1003 L-266132 1004 L-266112 1004 L-265248 1004 L-262508 1004 L-256710 1003 L-256556 1002 L-253770 1002 L-240162 1002 L-239416 1002 L-235006 1002 L-218659 1002 L-218427 1002 L-217890 1002 L-209431 1002 L-200725 1002 L-200513 1002 L-198540 1002 L-195754 1002 L-191267 1002 L-191112 1002 L-190943 1002 L-190802 1002 L-190512 1002 L-190473 1001 L-190202 1001 L-190030 1001 L-189620 1001 L-188500 1001 L-187319 1001 L-186043 1001 L-183179 1001 L-180259 1001 L-178267 1001 L-176719 1001 L-173681 1001 L-164356 1001 L-163832 1001 L-158109 1001 L-156602 1001 L-155787 1001 L-154103 1001 L-153382 1000 L-153214 1000 L-152169 1000 L-150101 1000 L-148739 1000 L-144296 1000 L-144199 1000 L-144160 1000 L-144141 1000 L-143309 1000 L-143231 1000 L-140659 1000 L-137409 1000 L-137255 1000 L-136306 1000 L-134565 1000 L-133850 1000 L-130309 1000 L-123732 1000 L-122314 1001 L-122294 1001 L-121343 1001 L-117869 1001 L-117116 1001 L-116554 1001 L-115772 1001 L-108268 1000 L-106669 1000 L-105095 1000 L-101910 1000 L-97577 1000 L-89007 1000 L-80261 1000 L-77187 1000 L-73921 1000 L-73374 1000 L-66237 1000 L-60570 1000 L-46505 1000 L-40494 1000 L-35787 1000 L-31784 1000 L-26677 1000 L-16963 1000 L-1392 1000 L1690 999 L1992 975 L2011 944 L2030 909 L2050 870 L2070 852 L2089 837 L2108 824 L2135 810 L2156 797 L2184 783 L2219 767 L2233 754 L2246 743 L2264 734 L2283 727 L2303 720 L2321 713 L2341 706 L2361 699 L2382 691 L2398 684 L2417 677 L2438 670 L2458 664 L2476 656 L2495 649 L2515 641 L2535 633 L2553 626 L2572 619 L2593 612 L2618 605 L2633 599 L2650 592 L2669 586 L2689 579 L2708 573 L2727 566 L2747 559 L2767 553 L2785 547 L2804 541 L2825 536 L2845 531 L2862 526 L2881 522 L2901 518 L2920 514 L2940 510 L2959 506 L2979 503 L2998 500 L3018 497 L3036 494 L3064 491 L3084 487 L3112 483 L3146 478 L3160 474 L3174 470 L3192 467 L3211 465 L3231 462 L3250 458 L3269 455 L3289 452 L3310 449 L3327 446 L3346 443 L3366 440 L3386 437 L3404 433 L3423 429 L3443 424 L3463 420 L3482 416 L3500 411 L3522 406 L3546 401 L3561 395 L3578 390 L3598 385 L3617 380 L3636 375 L3655 369 L3675 364 L3696 359 L3714 354 L3733 349 L3753 344 L3773 339 L3791 335 L3810 331 L3830 327 L3849 323 L3869 319 L3887 316 L3907 312 L3926 308 L3946 305 L3965 301 L3994 297 L4013 294 L4041 291 L4078 286 L4093 282 L4106 279 L4123 275 L4140 273 L4160 270 L4178 268 L4197 266 L4217 264 L4238 262 L4255 260 L4274 257 L4295 255 L4314 252 L4333 249 L4352 246 L4372 243 L4391 240 L4410 236 L4429 233 L4450 230 L4474 227 L4489 223 L4506 220 L4526 217 L4545 214 L4565 210 L4584 207 L4604 203 L4624 200 L4642 196 L4661 193 L4681 190 L4702 187 L4720 185 L4739 182 L4759 179 L4777 176 L4797 174 L4816 171 L4836 168 L4855 166 L4874 163 L4893 161 L4922 158 L4942 155 L4970 152 L5006 148 L5020 145 L5033 141 L5051 138 L5069 136 L5089 134 L5107 131 L5127 128 L5146 126 L5168 122 L5186 119 L5203 116 L5224 112 L5244 108 L5262 104 L5281 100 L5301 96 L5321 92 L5339 88 L5358 85 L5379 83 L5404 81 L5418 79 L5436 77 L5455 75 L5475 73 L5494 70 L5513 68 L5533 66 L5554 65 L5571 63 L5590 61 L5610 59 L5631 56 L5648 53 L5667 51 L5687 49 L5706 48 L5726 47 L5745 46 L5764 44 L5784 43 L5803 41 L5822 40 L5849 38 L5870 37 L5898 36 L5933 34 L5947 32 L5960 31 L5979 30 L5997 29 L6017 27 L6035 26 L6055 25 L6075 24 L6096 23 L6113 22 L6131 21 L6152 20 L6172 18 L6190 17 L6209 16 L6229 15 L6249 14 L6267 13 L6286 12 L6307 11 L6332 10 L6347 9 L6364 8 L6384 7 L6403 6 L6422 5 L6441 3 L6461 2 L6482 1 L6500 0" />
</svg>
