<svg xmlns="http://www.w3.org/2000/svg" version="1.1" viewBox="0 0 6500 1000">
	<path fill="none" stroke="gold" stroke-width="125" stroke-linecap="round" stroke-linejoin="round" d="M0 2307  L-330817 2307 L-328213 2303 L-326545 2299 L-308215 2290 L-308045 2281 L-300887 2272 L-300854 2272 L-287423 2268 L-284501 2272 L-271160 2259 L-266991 2241 L-265831 2219 L-265212 2197 L-263200 2184 L-259429 2176 L-258828 2167 L-258500 2158 L-258287 2149 L-257745 2140 L-256507 2105 L-255328 2070 L-252464 2035 L-251941 2000 L-247086 1991 L-244149 1982 L-244106 1973 L-243797 1965 L-243545 1956 L-240951 1947 L-236695 1947 L-236677 1947 L-235440 1947 L-233563 1947 L-231609 1938 L-230661 1929 L-230391 1921 L-230081 1916 L-229983 1912 L-229152 1912 L-227122 1916 L-226831 1877 L-224685 1859 L-224529 1833 L-220873 1806 L-220622 1820 L-220523 1815 L-220006 1828 L-217855 1850 L-216926 1872 L-215400 1894 L-214161 1894 L-212614 1890 L-209652 1881 L-208531 1872 L-208221 1864 L-207010 1859 L-204003 1908 L-203984 1903 L-203636 1899 L-203423 1894 L-203297 1833 L-203056 1824 L-203018 1815 L-202998 1806 L-202979 1798 L-202920 1789 L-202861 1780 L-202843 1771 L-202400 1763 L-201161 1754 L-199615 1745 L-196227 1736 L-190501 1732 L-190299 1727 L-188664 1723 L-186942 1719 L-185509 1714 L-185277 1710 L-184562 1705 L-178430 1701 L-178062 1692 L-177907 1683 L-177329 1675 L-177037 1666 L-176069 1657 L-175760 1648 L-175161 1639 L-173554 1639 L-172819 1639 L-172509 1644 L-171741 1644 L-169705 1635 L-169280 1626 L-168467 1622 L-161039 1613 L-160516 1604 L-160342 1596 L-159607 1587 L-158039 1578 L-157634 1574 L-155409 1565 L-154461 1560 L-154036 1556 L-153705 1556 L-152662 1552 L-150554 1543 L-150301 1534 L-149682 1525 L-148870 1521 L-146762 1512 L-146713 1503 L-144785 1495 L-144459 1486 L-144324 1477 L-143821 1473 L-142409 1464 L-141906 1446 L-141384 1433 L-137824 1415 L-137089 1398 L-134664 1398 L-133375 1389 L-132968 1385 L-129815 1385 L-129661 1385 L-129640 1389 L-129274 1389 L-128016 1393 L-127301 1398 L-126411 1398 L-126004 1398 L-125075 1398 L-123966 1393 L-123663 1411 L-117414 1420 L-116467 1429 L-114841 1437 L-114339 1442 L-110663 1446 L-109831 1451 L-105878 1455 L-104466 1442 L-101977 1433 L-101300 1424 L-101262 1420 L-100391 1420 L-97180 1415 L-94316 1411 L-93349 1407 L-92227 1398 L-92208 1389 L-90583 1380 L-90119 1367 L-90027 1363 L-83658 1358 L-82709 1354 L-80252 1350 L-79380 1341 L-78144 1336 L-76143 1332 L-75745 1323 L-74309 1314 L-72283 1310 L-72069 1301 L-70889 1297 L-69381 1292 L-69361 1288 L-67348 1284 L-66479 1275 L-65608 1270 L-65023 1262 L-64486 1253 L-63828 1244 L-62590 1235 L-62030 1231 L-60848 1227 L-59611 1222 L-59572 1218 L-59185 1213 L-58644 1205 L-57870 1200 L-56748 1196 L-54659 1187 L-54325 1178 L-54039 1169 L-53111 1165 L-52628 1156 L-51892 1152 L-48261 1147 L-47133 1143 L-46979 1139 L-45953 1130 L-42238 1125 L-41021 1117 L-39202 1108 L-36416 1103 L-35855 1095 L-31967 1095 L-29491 1090 L-28156 1090 L-27652 1086 L-27169 1082 L-24480 1082 L-20708 1082 L-18251 1082 L-17071 1082 L-16432 1077 L-14072 1068 L-13995 1064 L-12948 1060 L-12854 1051 L-12351 1051 L-11906 1051 L-11848 1051 L-11634 1051 L-8675 1042 L-5967 1038 L-5812 1033 L-2291 1029 L-1769 1020 L-801 1011 L-452 1007 L590 998 L1519 989 L1945 985 L3454 985 L4421 980 L4440 976 L6336 655 L6452 326 L6500 1" />
</svg>
