<svg xmlns="http://www.w3.org/2000/svg" version="1.1" viewBox="0 0 6500 1000">
	<path fill="none" stroke="gold" stroke-width="125" stroke-linecap="round" stroke-linejoin="round" d="M0 62535  L-194501 62535 L-191897 62238 L-190229 61940 L-171899 61345 L-171729 60750 L-164571 60154 L-164538 60154 L-151107 59857 L-148185 60154 L-134844 59261 L-130675 58071 L-129515 56583 L-128896 55095 L-126884 54202 L-123113 53607 L-122512 53011 L-122184 52416 L-121971 51821 L-121429 51226 L-120191 48845 L-119012 46464 L-116148 44083 L-115626 41702 L-110770 41107 L-107833 40511 L-107790 39916 L-107481 39321 L-107230 38726 L-104635 38130 L-100379 38130 L-100361 38130 L-99124 38130 L-97247 38130 L-95294 37535 L-94346 36940 L-94075 36345 L-93765 36047 L-93667 35750 L-92836 35750 L-90806 36047 L-90515 33369 L-88369 32178 L-88213 30392 L-84557 28607 L-84306 29500 L-84207 29202 L-83690 30095 L-81539 31583 L-80610 33071 L-79084 34559 L-77845 34559 L-76298 34261 L-73336 33666 L-72215 33071 L-71905 32476 L-70694 32178 L-67687 35452 L-67668 35154 L-67321 34857 L-67107 34559 L-66981 30392 L-66740 29797 L-66702 29202 L-66682 28607 L-66663 28011 L-66604 27416 L-66545 26821 L-66527 26226 L-66084 25630 L-64845 25035 L-63299 24440 L-59911 23845 L-54185 23547 L-53983 23250 L-52348 22952 L-50626 22654 L-49194 22357 L-48961 22059 L-48246 21761 L-42114 21464 L-41746 20869 L-41592 20273 L-41013 19678 L-40721 19083 L-39753 18488 L-39444 17892 L-38845 17297 L-37238 17297 L-36503 17297 L-36193 17595 L-35425 17595 L-33389 17000 L-32964 16404 L-32151 16107 L-24723 15511 L-24200 14916 L-24026 14321 L-23291 13726 L-21723 13130 L-21318 12833 L-19093 12238 L-18145 11940 L-17720 11642 L-17389 11642 L-16346 11345 L-14238 10750 L-13985 10154 L-13367 9559 L-12554 9261 L-10446 8666 L-10397 8071 L-8469 7476 L-8144 6880 L-8008 6285 L-7505 5988 L-6093 5392 L-5590 4202 L-5068 3309 L-1508 2119 L-773 928 L1651 928 L2940 333 L3347 35 L6500 35" />
</svg>
