<svg xmlns="http://www.w3.org/2000/svg" version="1.1" viewBox="0 0 6500 1000">
	<path fill="none" stroke="gold" stroke-width="125" stroke-linecap="round" stroke-linejoin="round" d="M0 3873  L-724110 3873 L-721506 3872 L-719838 3872 L-701508 3872 L-701338 3872 L-694180 3871 L-694147 3871 L-680716 3871 L-677794 3871 L-664453 3871 L-660284 3870 L-659124 3869 L-658505 3868 L-656493 3868 L-652722 3867 L-652122 3867 L-651793 3867 L-651580 3866 L-651038 3866 L-649800 3864 L-648621 3863 L-645757 3862 L-645235 3860 L-640379 3860 L-637442 3859 L-637399 3859 L-637090 3859 L-636839 3858 L-634244 3858 L-629988 3858 L-629970 3858 L-628733 3858 L-626856 3858 L-624903 3858 L-623955 3857 L-623684 3857 L-623374 3857 L-623276 3857 L-622445 3857 L-620415 3857 L-620124 3855 L-617978 3854 L-617822 3853 L-614166 3852 L-613915 3853 L-613816 3853 L-613299 3853 L-611148 3854 L-610219 3855 L-608693 3856 L-607454 3856 L-605907 3856 L-602945 3855 L-601824 3855 L-601514 3855 L-600303 3854 L-597297 3856 L-597277 3856 L-596930 3856 L-596716 3856 L-596590 3853 L-596349 3853 L-596311 3853 L-596291 3852 L-596272 3852 L-596213 3852 L-596154 3851 L-596136 3851 L-595693 3850 L-594454 3850 L-592908 3850 L-589520 3849 L-583794 3849 L-583592 3849 L-581957 3849 L-580235 3849 L-578803 3848 L-578570 3848 L-577855 3848 L-571723 3848 L-571355 3848 L-571201 3847 L-570622 3847 L-570330 3847 L-569362 3846 L-569053 3846 L-568454 3845 L-566847 3845 L-566112 3845 L-565803 3846 L-565034 3846 L-562998 3845 L-562573 3845 L-561760 3845 L-554332 3844 L-553809 3844 L-553635 3844 L-552900 3843 L-551332 3843 L-550927 3843 L-548702 3842 L-547754 3842 L-547329 3842 L-546999 3842 L-545955 3842 L-543847 3842 L-543594 3841 L-542976 3841 L-542163 3841 L-540055 3840 L-540007 3840 L-538078 3840 L-537753 3839 L-537618 3839 L-537114 3839 L-535702 3838 L-535199 3838 L-534677 3837 L-531117 3836 L-530382 3836 L-527957 3836 L-526668 3835 L-526261 3835 L-523109 3835 L-522954 3835 L-522933 3835 L-522567 3835 L-521309 3835 L-520594 3836 L-519704 3836 L-519297 3836 L-518368 3836 L-517260 3835 L-516956 3836 L-510708 3837 L-509760 3837 L-508134 3837 L-507632 3837 L-503957 3838 L-503124 3838 L-499171 3838 L-497759 3837 L-495270 3837 L-494593 3837 L-494555 3837 L-493684 3837 L-490473 3836 L-487610 3836 L-486642 3836 L-485520 3836 L-485501 3835 L-483876 3835 L-483412 3834 L-483320 3834 L-476951 3834 L-476002 3834 L-473545 3834 L-472673 3833 L-471437 3833 L-469436 3833 L-469038 3833 L-467602 3832 L-465576 3832 L-465362 3832 L-464182 3832 L-462674 3831 L-462654 3831 L-460641 3831 L-459772 3831 L-458901 3830 L-458316 3830 L-457779 3830 L-457121 3829 L-455883 3829 L-455323 3829 L-454142 3829 L-452904 3828 L-452865 3828 L-452479 3828 L-451937 3828 L-451163 3828 L-450041 3827 L-447952 3827 L-447618 3827 L-447333 3826 L-446404 3826 L-445921 3826 L-445185 3826 L-441554 3825 L-440427 3825 L-440272 3825 L-439246 3825 L-435531 3825 L-434314 3824 L-432495 3824 L-429710 3824 L-429148 3823 L-425260 3823 L-422784 3823 L-421449 3823 L-420945 3823 L-420462 3823 L-417773 3823 L-414001 3823 L-411544 3823 L-410364 3823 L-409725 3823 L-407366 3822 L-407288 3822 L-406241 3822 L-406147 3822 L-405644 3822 L-405199 3822 L-405141 3822 L-404927 3822 L-401968 3821 L-399260 3821 L-399105 3821 L-395585 3821 L-395062 3820 L-394094 3820 L-393745 3820 L-392702 3819 L-391773 3819 L-391347 3819 L-389838 3819 L-388871 3819 L-388853 3819 L-386957 3805 L-386841 3792 L-386793 3779 L-386768 3766 L-383764 3765 L-381733 3765 L-379973 3765 L-379605 3765 L-379160 3764 L-378793 3764 L-378379 3764 L-376394 3764 L-376181 3764 L-376026 3764 L-374421 3764 L-373299 3763 L-372351 3763 L-371093 3763 L-369449 3763 L-368269 3762 L-361680 3762 L-361633 3762 L-361227 3762 L-360182 3762 L-360047 3761 L-358364 3761 L-358344 3761 L-357008 3760 L-355771 3760 L-355617 3760 L-355243 3760 L-355037 3760 L-354728 3759 L-353954 3759 L-351632 3759 L-350974 3759 L-348847 3759 L-347124 3758 L-346931 3758 L-344377 3758 L-344101 3757 L-343913 3757 L-343080 3757 L-342308 3757 L-341610 3757 L-336609 3757 L-336233 3756 L-331980 3756 L-331493 3774 L-331474 3774 L-331395 3774 L-331320 3773 L-331300 3755 L-330487 3755 L-329734 3755 L-328514 3754 L-327082 3754 L-326986 3754 L-326812 3754 L-326457 3754 L-325148 3754 L-323291 3754 L-321588 3753 L-321086 3753 L-320820 3753 L-320427 3753 L-320293 3752 L-319383 3752 L-319007 3752 L-318078 3752 L-317739 3752 L-317700 3752 L-317662 3752 L-315746 3752 L-315573 3752 L-314044 3752 L-313716 3751 L-313600 3751 L-313193 3751 L-312844 3751 L-311201 3750 L-310650 3750 L-310407 3750 L-309865 3750 L-309034 3749 L-308492 3749 L-306958 3749 L-306866 3749 L-306829 3749 L-306693 3748 L-306305 3748 L-305281 3748 L-303404 3748 L-303308 3748 L-302708 3753 L-302341 3759 L-301856 3766 L-301818 3772 L-301044 3772 L-300987 3772 L-300812 3772 L-300619 3771 L-299013 3771 L-298993 3771 L-298838 3771 L-298723 3771 L-297543 3772 L-297388 3772 L-296721 3772 L-294273 3787 L-291758 3802 L-289088 3816 L-281389 3831 L-275722 3831 L-273507 3830 L-273484 3830 L-272510 3834 L-272490 3834 L-271626 3834 L-268886 3833 L-263087 3830 L-262934 3829 L-260148 3829 L-246540 3829 L-245794 3829 L-241383 3828 L-225037 3828 L-224805 3828 L-224268 3828 L-215808 3827 L-207103 3827 L-206890 3827 L-204918 3827 L-202132 3827 L-197644 3827 L-197489 3827 L-197320 3827 L-197180 3827 L-196889 3826 L-196851 3826 L-196580 3826 L-196408 3826 L-195998 3826 L-194877 3825 L-193697 3825 L-192420 3825 L-189556 3825 L-186636 3825 L-184644 3825 L-183096 3824 L-180059 3824 L-170734 3824 L-170210 3824 L-164486 3824 L-162979 3823 L-162165 3823 L-160481 3823 L-159760 3823 L-159592 3823 L-158546 3823 L-156479 3822 L-155117 3822 L-150674 3822 L-150577 3822 L-150538 3822 L-150519 3822 L-149687 3821 L-149609 3821 L-147036 3821 L-143787 3821 L-143632 3820 L-142684 3820 L-140943 3820 L-140227 3821 L-136687 3822 L-130109 3823 L-128692 3824 L-128671 3824 L-127721 3824 L-124246 3824 L-123493 3823 L-122932 3823 L-122149 3823 L-114645 3823 L-113047 3823 L-111473 3823 L-108288 3822 L-103955 3822 L-95385 3822 L-86639 3822 L-83565 3822 L-80299 3822 L-79752 3821 L-72615 3821 L-66947 3821 L-52883 3821 L-46871 3821 L-42165 3821 L-38162 3821 L-33054 3821 L-23340 3820 L-7770 3820 L-4687 3820 L-4385 3739 L-4365 3641 L-4346 3528 L-4327 3403 L-4307 3345 L-4288 3297 L-4269 3253 L-4242 3209 L-4221 3166 L-4193 3121 L-4158 3072 L-4144 3030 L-4131 2994 L-4112 2964 L-4094 2941 L-4074 2919 L-4056 2896 L-4036 2873 L-4016 2851 L-3995 2827 L-3978 2804 L-3960 2781 L-3939 2759 L-3919 2737 L-3901 2713 L-3882 2689 L-3862 2663 L-3842 2638 L-3824 2615 L-3805 2592 L-3784 2570 L-3759 2548 L-3744 2528 L-3727 2507 L-3707 2486 L-3688 2466 L-3669 2444 L-3650 2422 L-3630 2400 L-3609 2380 L-3591 2361 L-3573 2342 L-3552 2325 L-3531 2309 L-3514 2294 L-3495 2281 L-3475 2267 L-3456 2254 L-3437 2242 L-3418 2230 L-3398 2220 L-3378 2211 L-3359 2201 L-3341 2192 L-3313 2180 L-3292 2167 L-3264 2153 L-3230 2138 L-3216 2125 L-3203 2114 L-3185 2104 L-3165 2096 L-3146 2086 L-3127 2076 L-3108 2066 L-3088 2055 L-3067 2045 L-3050 2036 L-3031 2027 L-3011 2017 L-2991 2006 L-2972 1993 L-2954 1980 L-2934 1966 L-2914 1952 L-2895 1938 L-2876 1923 L-2855 1907 L-2831 1889 L-2816 1872 L-2799 1856 L-2779 1840 L-2760 1823 L-2740 1806 L-2722 1789 L-2701 1771 L-2681 1755 L-2663 1738 L-2644 1722 L-2624 1707 L-2603 1692 L-2586 1678 L-2567 1665 L-2547 1651 L-2528 1640 L-2508 1628 L-2489 1616 L-2470 1604 L-2450 1592 L-2431 1580 L-2412 1569 L-2383 1557 L-2363 1546 L-2336 1535 L-2298 1521 L-2283 1508 L-2271 1496 L-2254 1485 L-2237 1477 L-2217 1470 L-2198 1462 L-2179 1456 L-2159 1449 L-2139 1442 L-2121 1435 L-2103 1427 L-2082 1419 L-2062 1410 L-2044 1401 L-2025 1392 L-2005 1382 L-1985 1371 L-1966 1360 L-1948 1350 L-1927 1340 L-1902 1329 L-1888 1319 L-1870 1308 L-1850 1297 L-1831 1287 L-1812 1276 L-1793 1264 L-1773 1253 L-1753 1242 L-1734 1231 L-1716 1221 L-1695 1212 L-1675 1202 L-1657 1194 L-1638 1185 L-1618 1176 L-1600 1167 L-1580 1158 L-1561 1149 L-1541 1141 L-1522 1133 L-1502 1125 L-1483 1116 L-1455 1108 L-1435 1099 L-1407 1090 L-1371 1076 L-1357 1064 L-1344 1052 L-1326 1042 L-1308 1036 L-1288 1029 L-1270 1021 L-1250 1012 L-1230 1003 L-1209 993 L-1191 982 L-1174 972 L-1153 960 L-1133 948 L-1115 935 L-1096 921 L-1076 908 L-1056 895 L-1038 883 L-1019 873 L-998 866 L-973 859 L-958 853 L-941 846 L-922 840 L-902 832 L-883 825 L-864 818 L-844 812 L-823 807 L-806 801 L-787 795 L-766 787 L-745 778 L-729 770 L-710 763 L-689 758 L-671 754 L-651 750 L-632 746 L-612 741 L-593 736 L-574 731 L-555 727 L-527 722 L-506 718 L-479 713 L-444 707 L-430 702 L-417 697 L-398 694 L-380 690 L-360 687 L-341 683 L-322 679 L-302 676 L-281 673 L-264 670 L-245 666 L-225 662 L-205 658 L-187 653 L-168 650 L-148 646 L-128 643 L-109 640 L-90 636 L-69 633 L-44 630 L-30 626 L-13 624 L6 620 L25 617 L45 613 L64 610 L83 605 L104 602 L122 598 L141 595 L161 592 L182 589 L199 586 L218 582 L238 579 L257 576 L277 573 L295 571 L315 569 L335 567 L354 565 L373 568 L402 572 L421 576 L449 579 L487 576 L502 573 L514 571 L532 569 L548 567 L568 565 L586 563 L606 561 L626 559 L647 557 L664 555 L682 554 L703 552 L723 550 L741 547 L760 545 L780 543 L800 541 L818 539 L837 537 L858 536 L883 534 L898 532 L915 530 L934 528 L954 525 L973 524 L992 521 L1012 519 L1033 516 L1050 513 L1069 510 L1090 507 L1110 505 L1128 503 L1147 500 L1167 498 L1185 495 L1205 492 L1224 490 L1244 487 L1263 485 L1283 483 L1301 481 L1329 479 L1350 476 L1378 474 L1412 471 L1426 468 L1439 466 L1458 464 L1477 462 L1497 460 L1515 458 L1535 455 L1554 453 L1575 451 L1592 449 L1611 447 L1632 444 L1651 442 L1670 439 L1688 435 L1708 432 L1729 428 L1747 425 L1766 422 L1787 419 L1812 416 L1827 413 L1844 409 L1863 406 L1883 403 L1902 400 L1921 397 L1941 394 L1962 391 L1979 388 L1998 385 L2019 382 L2039 380 L2056 378 L2075 375 L2095 374 L2114 372 L2134 370 L2153 368 L2172 366 L2192 365 L2211 363 L2230 362 L2258 360 L2278 358 L2306 356 L2342 353 L2355 350 L2368 347 L2387 344 L2405 342 L2425 340 L2443 338 L2463 336 L2483 334 L2504 332 L2521 330 L2539 328 L2560 325 L2580 323 L2598 320 L2617 318 L2637 315 L2657 312 L2675 310 L2694 308 L2716 306 L2740 304 L2755 302 L2772 300 L2792 298 L2811 296 L2830 293 L2849 290 L2869 287 L2890 283 L2907 280 L2927 277 L2947 275 L2968 272 L2985 270 L3004 269 L3024 267 L3043 266 L3062 264 L3081 262 L3101 261 L3121 259 L3140 258 L3158 256 L3186 255 L3207 253 L3234 252 L3269 250 L3283 249 L3296 248 L3315 246 L3334 245 L3353 244 L3372 243 L3391 241 L3411 241 L3432 240 L3449 238 L3468 237 L3488 236 L3508 234 L3527 233 L3545 232 L3565 231 L3585 230 L3604 229 L3623 228 L3644 227 L3668 226 L3683 225 L3700 223 L3720 222 L3739 221 L3759 220 L3778 219 L3797 217 L3818 215 L3836 212 L3855 210 L3875 207 L3896 205 L3913 203 L3932 202 L3952 200 L3971 198 L3991 197 L4010 195 L4030 194 L4049 192 L4068 191 L4087 190 L4116 189 L4163 188 L4200 186 L4215 185 L4228 184 L4245 183 L4262 182 L4282 182 L4301 181 L4320 180 L4340 178 L4360 178 L4378 177 L4397 176 L4417 175 L4436 174 L4455 173 L4474 172 L4494 171 L4514 170 L4532 169 L4551 167 L4572 165 L4597 163 L4612 161 L4629 159 L4649 158 L4668 156 L4687 154 L4706 153 L4726 151 L4747 149 L4765 147 L4784 145 L4804 144 L4824 143 L4842 142 L4861 140 L4881 139 L4900 138 L4919 137 L4938 135 L4958 134 L4977 133 L4997 131 L5016 130 L5044 129 L5064 127 L5092 125 L5129 123 L5143 120 L5156 117 L5174 115 L5191 114 L5211 112 L5229 111 L5249 110 L5269 109 L5290 108 L5307 107 L5325 105 L5346 104 L5366 102 L5384 99 L5403 97 L5423 94 L5444 92 L5461 90 L5480 88 L5501 86 L5526 84 L5541 82 L5559 81 L5577 79 L5598 77 L5616 76 L5635 74 L5655 72 L5676 70 L5693 68 L5713 66 L5733 65 L5754 63 L5771 62 L5790 60 L5809 59 L5828 58 L5848 56 L5867 55 L5887 54 L5907 52 L5926 51 L5944 50 L5972 997 L5993 995 L6020 994 L6056 991 L6070 41 L6084 40 L6102 38 L6119 37 L6139 36 L6158 35 L6177 34 L6197 33 L6218 31 L6235 29 L6254 27 L6275 25 L6295 22 L6313 20 L6332 17 L6351 15 L6372 13 L6390 11 L6409 10 L6430 8 L6455 6 L6470 4 L6500 1" />
</svg>
