<svg xmlns="http://www.w3.org/2000/svg" version="1.1" viewBox="0 0 6500 1000">
	<path fill="none" stroke="gold" stroke-width="125" stroke-linecap="round" stroke-linejoin="round" d="M0 4528  L-103694 4528 L-101090 4488 L-99422 4448 L-81093 4369 L-80923 4290 L-73765 4210 L-73732 4210 L-60301 4171 L-57379 4210 L-44038 4091 L-39869 3932 L-38709 3734 L-38090 3535 L-36078 3416 L-32306 3337 L-31706 3258 L-31377 3178 L-31164 3099 L-30623 3019 L-29385 2702 L-28206 2384 L-25341 2067 L-24819 1749 L-19964 1670 L-17026 1590 L-16983 1511 L-16675 1431 L-16423 1352 L-13828 1273 L-9573 1273 L-9555 1273 L-8318 1273 L-6440 1273 L-4487 1193 L-3539 1114 L-3268 1034 L-2958 995 L-2860 955 L-2030 955 L0 995 L290 637 L2437 479 L2592 240 L6248 2 L6500 121" />
</svg>
