<svg xmlns="http://www.w3.org/2000/svg" version="1.1" viewBox="0 0 6500 1000">
	<path fill="none" stroke="gold" stroke-width="125" stroke-linecap="round" stroke-linejoin="round" d="M0 26128  L-164709 26128 L-162105 25969 L-160437 25810 L-142108 25492 L-141937 25173 L-134780 24855 L-134746 24855 L-121316 24695 L-118394 24855 L-105053 24377 L-100884 23740 L-99724 22944 L-99105 22148 L-97093 21670 L-93321 21351 L-92721 21033 L-92392 20714 L-92179 20396 L-91637 20078 L-90399 18804 L-89221 17530 L-86356 16256 L-85834 14982 L-80978 14664 L-78041 14345 L-77998 14027 L-77690 13708 L-77438 13390 L-74843 13071 L-70588 13071 L-70570 13071 L-69333 13071 L-67455 13071 L-65502 12753 L-64554 12434 L-64283 12116 L-63973 11957 L-63875 11797 L-63045 11797 L-61014 11957 L-60724 10523 L-58577 9886 L-58422 8931 L-54765 7976 L-54514 8453 L-54416 8294 L-53899 8772 L-51748 9568 L-50819 10364 L-49293 11160 L-48053 11160 L-46507 11001 L-43545 10683 L-42423 10364 L-42114 10046 L-40903 9886 L-37896 11638 L-37876 11479 L-37529 11320 L-37316 11160 L-37190 8931 L-36948 8613 L-36910 8294 L-36890 7976 L-36871 7657 L-36812 7339 L-36754 7020 L-36736 6702 L-36293 6383 L-35053 6065 L-33507 5746 L-30120 5428 L-24393 5269 L-24192 5109 L-22556 4950 L-20834 4791 L-19402 4632 L-19170 4472 L-18454 4313 L-12322 4154 L-11954 3835 L-11800 3517 L-11222 3199 L-10929 2880 L-9962 2562 L-9652 2243 L-9053 1925 L-7447 1925 L-6712 1925 L-6402 2084 L-5634 2084 L-3598 1765 L-3172 1447 L-2360 1288 L5068 969 L5591 651 L5764 332 L6500 14" />
</svg>
