<svg xmlns="http://www.w3.org/2000/svg" version="1.1" viewBox="0 0 6500 1000">
	<path fill="none" stroke="gold" stroke-width="125" stroke-linecap="round" stroke-linejoin="round" d="M0 1020  L-715914 1020 L-713310 1020 L-711642 1019 L-693312 1019 L-693142 1019 L-685984 1019 L-685951 1019 L-672520 1019 L-669599 1019 L-656258 1019 L-652089 1019 L-650929 1018 L-650309 1018 L-648298 1018 L-644526 1018 L-643926 1017 L-643597 1017 L-643384 1017 L-642842 1017 L-641604 1016 L-640425 1016 L-637561 1015 L-637039 1015 L-632183 1015 L-629246 1015 L-629203 1014 L-628895 1014 L-628643 1014 L-626048 1014 L-621792 1014 L-621774 1014 L-620538 1014 L-618660 1014 L-616707 1014 L-615759 1014 L-615488 1014 L-615178 1013 L-615080 1013 L-614250 1013 L-612219 1013 L-611928 1013 L-609782 1013 L-609627 1012 L-605970 1012 L-605719 1012 L-605621 1012 L-605104 1012 L-602952 1012 L-602023 1013 L-600497 1013 L-599258 1013 L-597712 1013 L-594750 1013 L-593628 1013 L-593319 1013 L-592107 1013 L-589101 1013 L-589081 1013 L-588734 1013 L-588521 1013 L-588394 1012 L-588153 1012 L-588115 1012 L-588095 1012 L-588076 1012 L-588017 1012 L-587958 1011 L-587940 1011 L-587497 1011 L-586258 1011 L-584712 1011 L-581324 1011 L-575598 1011 L-575397 1011 L-573761 1010 L-572039 1010 L-570607 1010 L-570374 1010 L-569659 1010 L-563527 1010 L-563159 1010 L-563005 1010 L-562426 1010 L-562134 1010 L-561167 1009 L-560857 1009 L-560258 1009 L-558652 1009 L-557917 1009 L-557607 1009 L-556838 1009 L-554802 1009 L-554377 1009 L-553564 1009 L-546136 1009 L-545613 1009 L-545439 1009 L-544704 1008 L-543137 1008 L-542731 1008 L-540506 1008 L-539558 1008 L-539133 1008 L-538803 1008 L-537759 1008 L-535651 1008 L-535399 1008 L-534780 1007 L-533967 1007 L-531859 1007 L-531811 1007 L-529882 1007 L-529557 1007 L-529422 1007 L-528919 1007 L-527506 1006 L-527003 1006 L-526481 1006 L-522922 1006 L-522186 1005 L-519762 1005 L-518472 1005 L-518065 1005 L-514913 1005 L-514758 1005 L-514738 1005 L-514371 1005 L-513113 1005 L-512398 1005 L-511508 1005 L-511101 1005 L-510172 1005 L-509064 1005 L-508761 1006 L-502512 1006 L-501564 1006 L-499938 1006 L-499436 1006 L-495761 1006 L-494928 1006 L-490975 1006 L-489563 1006 L-487074 1006 L-486398 1006 L-486359 1006 L-485488 1006 L-482277 1006 L-479414 1006 L-478446 1006 L-477324 1005 L-477305 1005 L-475680 1005 L-475216 1005 L-475124 1005 L-468755 1005 L-467807 1005 L-465350 1005 L-464477 1005 L-463241 1004 L-461240 1004 L-460842 1004 L-459406 1004 L-457380 1004 L-457167 1004 L-455987 1004 L-454478 1004 L-454458 1004 L-452446 1004 L-451576 1004 L-450705 1003 L-450121 1003 L-449583 1003 L-448926 1003 L-447687 1003 L-447127 1003 L-445946 1003 L-444708 1003 L-444670 1003 L-444283 1003 L-443741 1002 L-442967 1002 L-441845 1002 L-439756 1002 L-439423 1002 L-439137 1002 L-438208 1002 L-437725 1002 L-436990 1002 L-433358 1002 L-432231 1001 L-432076 1001 L-431050 1001 L-427335 1001 L-426118 1001 L-424299 1001 L-421514 1001 L-420952 1001 L-417064 1001 L-414588 1001 L-413253 1001 L-412750 1001 L-412266 1001 L-409577 1001 L-405805 1001 L-403348 1001 L-402168 1001 L-401529 1000 L-399170 1000 L-399092 1000 L-398045 1000 L-397951 1000 L-397448 1000 L-397003 1000 L-396945 1000 L-396732 1000 L-393772 1000 L-391064 1000 L-390910 1000 L-387389 1000 L-386866 1000 L-385899 999 L-385549 999 L-384506 999 L-383577 999 L-383152 999 L-381643 999 L-380676 999 L-380657 999 L-378761 994 L-378645 989 L-378597 984 L-378572 979 L-375568 979 L-373538 978 L-371777 978 L-371410 978 L-370964 978 L-370597 978 L-370183 978 L-368198 978 L-367985 978 L-367830 978 L-366225 978 L-365103 978 L-364155 978 L-362898 978 L-361253 977 L-360073 977 L-353484 977 L-353437 977 L-353032 977 L-351986 977 L-351851 977 L-350168 977 L-350149 977 L-348812 977 L-347576 977 L-347421 977 L-347047 976 L-346841 976 L-346532 976 L-345758 976 L-343436 976 L-342779 976 L-340651 976 L-338928 976 L-338735 976 L-336182 976 L-335905 975 L-335717 975 L-334885 975 L-334112 975 L-333414 975 L-328413 975 L-328038 975 L-323785 975 L-323298 982 L-323278 982 L-323199 982 L-323124 982 L-323104 975 L-322291 975 L-321538 974 L-320318 974 L-318887 974 L-318790 974 L-318616 974 L-318262 974 L-316952 974 L-315095 974 L-313393 974 L-312890 974 L-312624 974 L-312231 974 L-312097 974 L-311187 973 L-310811 973 L-309882 973 L-309543 973 L-309504 973 L-309466 973 L-307551 973 L-307377 973 L-305848 973 L-305520 973 L-305404 973 L-304997 973 L-304649 973 L-303005 973 L-302454 973 L-302211 973 L-301669 973 L-300838 972 L-300296 972 L-298762 972 L-298670 972 L-298633 972 L-298497 972 L-298110 972 L-297085 972 L-295208 972 L-295112 972 L-294512 974 L-294145 976 L-293660 979 L-293622 981 L-292848 981 L-292791 981 L-292616 981 L-292423 981 L-290817 981 L-290797 981 L-290642 981 L-290527 981 L-289347 981 L-289192 981 L-288525 981 L-286077 987 L-283562 992 L-280893 998 L-273193 1004 L-267526 1004 L-265311 1003 L-265288 1003 L-264314 1005 L-264294 1005 L-263430 1005 L-260690 1005 L-254892 1003 L-254738 1003 L-251952 1003 L-238344 1003 L-237598 1003 L-233187 1003 L-216841 1003 L-216609 1002 L-216072 1002 L-207612 1002 L-198907 1002 L-198695 1002 L-196722 1002 L-193936 1002 L-189448 1002 L-189294 1002 L-189124 1002 L-188984 1002 L-188693 1002 L-188655 1002 L-188384 1002 L-188212 1002 L-187802 1002 L-186682 1002 L-185501 1001 L-184224 1001 L-181361 1001 L-178440 1001 L-176448 1001 L-174901 1001 L-171863 1001 L-162538 1001 L-162014 1001 L-156290 1001 L-154783 1001 L-153969 1001 L-152285 1001 L-151564 1001 L-151396 1001 L-150351 1000 L-148283 1000 L-146921 1000 L-142478 1000 L-142381 1000 L-142342 1000 L-142323 1000 L-141491 1000 L-141413 1000 L-138841 1000 L-135591 1000 L-135436 1000 L-134488 1000 L-132747 999 L-132032 1000 L-128491 1000 L-121914 1001 L-120496 1001 L-120475 1001 L-119525 1001 L-116051 1001 L-115297 1001 L-114736 1001 L-113954 1001 L-106449 1001 L-104851 1001 L-103277 1000 L-100092 1000 L-95759 1000 L-87189 1000 L-78443 1000 L-75369 1000 L-72103 1000 L-71556 1000 L-64419 1000 L-58751 1000 L-44687 1000 L-38676 1000 L-33969 1000 L-29966 1000 L-24859 1000 L-15145 1000 L425 999 L3508 999 L3810 969 L3830 931 L3848 888 L3868 840 L3888 818 L3907 799 L3926 782 L3953 765 L3974 749 L4002 732 L4037 713 L4051 697 L4064 683 L4083 671 L4101 663 L4121 654 L4139 645 L4159 637 L4179 628 L4200 619 L4217 610 L4235 601 L4256 593 L4276 584 L4294 575 L4313 566 L4333 556 L4353 547 L4371 538 L4390 529 L4411 521 L4436 512 L4451 504 L4468 496 L4487 488 L4507 481 L4526 472 L4545 464 L4565 455 L4586 448 L4603 440 L4622 433 L4643 427 L4663 420 L4681 415 L4699 410 L4720 404 L4738 399 L4758 395 L4777 390 L4797 387 L4816 383 L4836 379 L4854 376 L4882 371 L4903 366 L4930 361 L4964 355 L4979 350 L4992 346 L5010 342 L5029 339 L5049 335 L5068 331 L5087 327 L5107 323 L5128 319 L5145 316 L5164 312 L5184 309 L5204 304 L5223 299 L5241 294 L5261 289 L5281 284 L5300 278 L5319 273 L5340 266 L5364 260 L5379 253 L5396 247 L5416 241 L5435 234 L5455 228 L5473 221 L5493 214 L5514 208 L5532 202 L5551 196 L5571 190 L5591 184 L5609 179 L5628 174 L5648 168 L5667 164 L5687 159 L5705 155 L5725 150 L5745 146 L5764 141 L5783 137 L5812 132 L5831 128 L5859 124 L5896 119 L5911 114 L5924 109 L5941 105 L5958 102 L5978 99 L5996 96 L6016 94 L6036 91 L6056 88 L6074 86 L6092 82 L6113 79 L6132 76 L6151 73 L6170 69 L6190 65 L6209 61 L6228 57 L6247 53 L6268 49 L6292 45 L6307 41 L6324 37 L6344 33 L6363 29 L6383 25 L6402 20 L6422 16 L6442 12 L6461 8 L6479 4 L6500 0" />
</svg>
