<svg xmlns="http://www.w3.org/2000/svg" version="1.1" viewBox="0 0 6500 1000">
	<path fill="none" stroke="gold" stroke-width="125" stroke-linecap="round" stroke-linejoin="round" d="M0 6286  L-121019 6286 L-118415 6228 L-116747 6170 L-98418 6054 L-98247 5937 L-91090 5821 L-91056 5821 L-77625 5763 L-74704 5821 L-61363 5646 L-57194 5414 L-56034 5123 L-55415 4832 L-53403 4657 L-49631 4541 L-49031 4425 L-48702 4308 L-48489 4192 L-47947 4076 L-46709 3610 L-45530 3145 L-42666 2680 L-42144 2214 L-37288 2098 L-34351 1981 L-34308 1865 L-34000 1749 L-33748 1632 L-31153 1516 L-26898 1516 L-26880 1516 L-25643 1516 L-23765 1516 L-21812 1400 L-20864 1283 L-20593 1167 L-20283 1109 L-20185 1051 L-19355 1051 L-17324 1109 L-17034 585 L-14887 353 L-14732 4 L-11075 -344 L-10824 -170 L-10726 -228 L-10209 -54 L-8057 236 L-7129 527 L-5603 818 L-4363 818 L-2817 760 L144 643 L1266 527 L1575 411 L2786 353 L5793 993 L5813 934 L6160 876 L6373 818 L6500 4" />
</svg>
