<svg xmlns="http://www.w3.org/2000/svg" version="1.1" viewBox="0 0 6500 1000">
	<path fill="none" stroke="gold" stroke-width="125" stroke-linecap="round" stroke-linejoin="round" d="M0 3447  L-726340 3447 L-723736 3447 L-722068 3447 L-703739 3447 L-703568 3446 L-696411 3446 L-696377 3446 L-682947 3446 L-680025 3446 L-666684 3446 L-662515 3445 L-661355 3444 L-660736 3443 L-658724 3443 L-654952 3443 L-654352 3442 L-654023 3442 L-653810 3442 L-653269 3442 L-652031 3440 L-650852 3439 L-647987 3438 L-647465 3437 L-642609 3436 L-639672 3436 L-639629 3436 L-639321 3435 L-639069 3435 L-636474 3435 L-632219 3435 L-632201 3435 L-630964 3435 L-629086 3435 L-627133 3435 L-626185 3434 L-625914 3434 L-625604 3434 L-625506 3434 L-624676 3434 L-622645 3434 L-622355 3432 L-620208 3432 L-620053 3431 L-616396 3430 L-616145 3430 L-616047 3430 L-615530 3431 L-613379 3431 L-612450 3432 L-610924 3433 L-609684 3433 L-608138 3433 L-605176 3433 L-604054 3432 L-603745 3432 L-602534 3432 L-599527 3433 L-599507 3433 L-599160 3433 L-598947 3433 L-598821 3431 L-598579 3431 L-598541 3430 L-598521 3430 L-598502 3430 L-598443 3429 L-598385 3429 L-598367 3429 L-597924 3428 L-596684 3428 L-595138 3428 L-591751 3428 L-586024 3427 L-585823 3427 L-584187 3427 L-582465 3427 L-581033 3427 L-580801 3427 L-580085 3426 L-573953 3426 L-573585 3426 L-573431 3426 L-572853 3425 L-572560 3425 L-571593 3425 L-571283 3424 L-570684 3424 L-569078 3424 L-568343 3424 L-568033 3424 L-567265 3424 L-565229 3424 L-564803 3424 L-563991 3424 L-556562 3423 L-556039 3423 L-555866 3423 L-555131 3422 L-553563 3422 L-553157 3422 L-550932 3422 L-549984 3421 L-549559 3421 L-549229 3421 L-548185 3421 L-546077 3421 L-545825 3421 L-545206 3420 L-544393 3420 L-542285 3420 L-542237 3419 L-540309 3419 L-539983 3419 L-539848 3419 L-539345 3418 L-537932 3418 L-537429 3417 L-536907 3417 L-533348 3416 L-532613 3416 L-530188 3416 L-528898 3416 L-528492 3415 L-525339 3415 L-525184 3415 L-525164 3416 L-524797 3416 L-523539 3416 L-522824 3416 L-521934 3416 L-521527 3416 L-520599 3416 L-519490 3416 L-519187 3416 L-512938 3417 L-511991 3417 L-510364 3417 L-509863 3417 L-506187 3417 L-505355 3418 L-501402 3418 L-499990 3417 L-497500 3417 L-496824 3417 L-496785 3417 L-495914 3417 L-492703 3416 L-489840 3416 L-488872 3416 L-487751 3416 L-487732 3416 L-486107 3415 L-485642 3415 L-485551 3415 L-479181 3414 L-478233 3414 L-475776 3414 L-474903 3414 L-473667 3414 L-471666 3414 L-471269 3413 L-469832 3413 L-467806 3413 L-467593 3412 L-466413 3412 L-464904 3412 L-464884 3412 L-462872 3412 L-462002 3412 L-461132 3411 L-460547 3411 L-460010 3411 L-459352 3410 L-458114 3410 L-457553 3410 L-456372 3410 L-455134 3410 L-455096 3410 L-454709 3409 L-454167 3409 L-453394 3409 L-452271 3409 L-450182 3409 L-449849 3408 L-449563 3408 L-448634 3408 L-448151 3407 L-447416 3407 L-443785 3407 L-442657 3407 L-442502 3407 L-441476 3407 L-437762 3406 L-436544 3406 L-434726 3406 L-431940 3406 L-431378 3405 L-427491 3405 L-425014 3405 L-423679 3405 L-423176 3405 L-422693 3405 L-420003 3405 L-416232 3405 L-413775 3405 L-412595 3405 L-411956 3405 L-409596 3404 L-409518 3404 L-408471 3404 L-408377 3404 L-407875 3404 L-407429 3404 L-407372 3404 L-407158 3404 L-404198 3404 L-401491 3403 L-401336 3403 L-397815 3403 L-397292 3403 L-396325 3402 L-395976 3402 L-394932 3402 L-394004 3402 L-393578 3402 L-392069 3402 L-391102 3401 L-391083 3401 L-389187 3390 L-389071 3379 L-389023 3367 L-388999 3356 L-385995 3356 L-383964 3356 L-382203 3356 L-381836 3355 L-381390 3355 L-381023 3355 L-380610 3355 L-378625 3355 L-378411 3355 L-378256 3354 L-376651 3354 L-375529 3354 L-374581 3354 L-373324 3354 L-371679 3354 L-370500 3353 L-363910 3353 L-363864 3353 L-363458 3353 L-362413 3353 L-362277 3353 L-360595 3352 L-360575 3352 L-359238 3352 L-358002 3352 L-357848 3351 L-357474 3351 L-357267 3351 L-356958 3351 L-356184 3351 L-353863 3350 L-353205 3350 L-351077 3350 L-349355 3350 L-349161 3350 L-346608 3350 L-346331 3349 L-346143 3349 L-345311 3349 L-344538 3349 L-343840 3348 L-338840 3348 L-338464 3348 L-334211 3348 L-333724 3363 L-333705 3363 L-333626 3363 L-333550 3363 L-333530 3347 L-332718 3347 L-331964 3347 L-330745 3347 L-329313 3347 L-329217 3346 L-329042 3346 L-328688 3346 L-327378 3346 L-325521 3346 L-323819 3346 L-323316 3345 L-323051 3345 L-322658 3345 L-322523 3345 L-321614 3345 L-321237 3345 L-320309 3345 L-319970 3345 L-319930 3345 L-319892 3344 L-317977 3344 L-317803 3344 L-316274 3344 L-315946 3344 L-315830 3344 L-315423 3344 L-315075 3343 L-313431 3343 L-312880 3343 L-312637 3343 L-312096 3343 L-311264 3342 L-310723 3342 L-309188 3342 L-309096 3342 L-309059 3342 L-308923 3341 L-308536 3341 L-307511 3341 L-305635 3341 L-305538 3341 L-304938 3346 L-304571 3351 L-304086 3356 L-304048 3361 L-303274 3362 L-303217 3362 L-303042 3361 L-302849 3361 L-301244 3361 L-301224 3361 L-301068 3361 L-300953 3361 L-299773 3361 L-299619 3362 L-298952 3362 L-296504 3374 L-293989 3387 L-291319 3399 L-283620 3412 L-277952 3412 L-275737 3411 L-275714 3411 L-274740 3414 L-274720 3414 L-273857 3414 L-271116 3414 L-265318 3411 L-265164 3410 L-262379 3410 L-248770 3410 L-248024 3410 L-243614 3410 L-227267 3409 L-227035 3409 L-226498 3409 L-218039 3409 L-209333 3409 L-209121 3409 L-207148 3408 L-204362 3408 L-199875 3409 L-199720 3408 L-199551 3408 L-199410 3408 L-199120 3408 L-199081 3408 L-198810 3408 L-198638 3407 L-198228 3407 L-197108 3407 L-195928 3407 L-194651 3407 L-191787 3407 L-188867 3407 L-186875 3406 L-185327 3406 L-182289 3406 L-172965 3406 L-172441 3406 L-166717 3406 L-165210 3405 L-164395 3405 L-162712 3405 L-161991 3405 L-161822 3405 L-160777 3405 L-158710 3405 L-157348 3404 L-152904 3404 L-152807 3404 L-152768 3404 L-152750 3404 L-151917 3404 L-151839 3403 L-149267 3403 L-146018 3403 L-145863 3403 L-144914 3403 L-143173 3402 L-142458 3403 L-138917 3404 L-132340 3405 L-130923 3406 L-130902 3406 L-129951 3406 L-126477 3406 L-125724 3405 L-125162 3405 L-124380 3405 L-116876 3405 L-115277 3405 L-113703 3405 L-110518 3405 L-106185 3404 L-97615 3404 L-88869 3404 L-85795 3404 L-82529 3404 L-81983 3404 L-74845 3404 L-69178 3404 L-55113 3404 L-49102 3404 L-44396 3404 L-40392 3403 L-35285 3403 L-25571 3403 L-10000 3403 L-6917 3402 L-6615 3334 L-6596 3250 L-6577 3154 L-6557 3047 L-6538 2998 L-6518 2957 L-6500 2919 L-6472 2882 L-6451 2846 L-6423 2807 L-6388 2765 L-6374 2729 L-6361 2698 L-6343 2673 L-6324 2654 L-6304 2635 L-6286 2615 L-6266 2596 L-6247 2577 L-6225 2556 L-6209 2536 L-6190 2517 L-6169 2499 L-6149 2480 L-6131 2459 L-6112 2439 L-6093 2417 L-6072 2396 L-6054 2375 L-6035 2356 L-6014 2338 L-5989 2319 L-5975 2301 L-5957 2284 L-5938 2266 L-5918 2249 L-5899 2230 L-5880 2211 L-5860 2193 L-5840 2176 L-5822 2159 L-5803 2144 L-5782 2129 L-5762 2115 L-5745 2103 L-5726 2091 L-5706 2079 L-5687 2068 L-5667 2058 L-5648 2048 L-5628 2040 L-5609 2032 L-5590 2023 L-5571 2015 L-5544 2005 L-5523 1995 L-5495 1983 L-5461 1970 L-5447 1959 L-5434 1949 L-5415 1941 L-5396 1933 L-5376 1926 L-5358 1917 L-5338 1908 L-5318 1899 L-5298 1891 L-5280 1883 L-5261 1875 L-5241 1866 L-5221 1857 L-5203 1846 L-5184 1835 L-5164 1823 L-5144 1811 L-5126 1799 L-5107 1786 L-5086 1773 L-5061 1758 L-5046 1743 L-5029 1729 L-5009 1715 L-4990 1701 L-4971 1687 L-4952 1672 L-4932 1657 L-4912 1643 L-4893 1629 L-4875 1615 L-4854 1603 L-4834 1589 L-4816 1577 L-4797 1566 L-4777 1555 L-4758 1545 L-4739 1535 L-4720 1525 L-4700 1515 L-4681 1504 L-4661 1494 L-4642 1484 L-4614 1474 L-4594 1465 L-4566 1455 L-4529 1444 L-4514 1433 L-4501 1423 L-4484 1413 L-4467 1406 L-4447 1400 L-4429 1394 L-4410 1388 L-4390 1383 L-4369 1377 L-4352 1370 L-4333 1364 L-4312 1357 L-4293 1350 L-4274 1342 L-4256 1334 L-4236 1325 L-4216 1316 L-4197 1307 L-4178 1298 L-4157 1289 L-4133 1280 L-4118 1271 L-4101 1262 L-4081 1253 L-4062 1244 L-4042 1235 L-4023 1225 L-4003 1216 L-3983 1206 L-3965 1197 L-3946 1189 L-3926 1180 L-3905 1172 L-3888 1165 L-3869 1157 L-3849 1150 L-3830 1142 L-3810 1134 L-3791 1127 L-3771 1120 L-3752 1113 L-3733 1106 L-3714 1099 L-3686 1092 L-3665 1085 L-3638 1076 L-3601 1065 L-3587 1055 L-3574 1045 L-3557 1036 L-3538 1030 L-3519 1025 L-3500 1018 L-3480 1010 L-3461 1002 L-3439 994 L-3421 985 L-3404 976 L-3384 966 L-3363 955 L-3345 944 L-3326 933 L-3307 921 L-3286 911 L-3268 900 L-3249 892 L-3228 885 L-3203 880 L-3189 874 L-3171 869 L-3152 863 L-3132 857 L-3113 851 L-3094 845 L-3075 840 L-3054 835 L-3036 831 L-3017 825 L-2997 819 L-2976 811 L-2959 804 L-2940 798 L-2920 793 L-2901 790 L-2882 787 L-2863 783 L-2843 779 L-2823 775 L-2804 771 L-2785 767 L-2758 763 L-2737 759 L-2709 755 L-2674 750 L-2661 746 L-2647 742 L-2629 739 L-2610 736 L-2590 733 L-2572 730 L-2552 727 L-2532 724 L-2511 721 L-2494 718 L-2476 715 L-2455 712 L-2435 708 L-2417 705 L-2398 701 L-2378 699 L-2358 696 L-2340 693 L-2321 690 L-2300 687 L-2275 684 L-2260 682 L-2243 679 L-2224 677 L-2204 674 L-2185 671 L-2166 667 L-2146 664 L-2125 661 L-2108 658 L-2089 655 L-2068 652 L-2048 649 L-2030 647 L-2011 644 L-1991 642 L-1973 639 L-1953 637 L-1934 635 L-1914 633 L-1895 631 L-1876 629 L-1857 632 L-1828 635 L-1808 638 L-1780 641 L-1743 638 L-1728 636 L-1715 634 L-1698 632 L-1681 631 L-1661 629 L-1643 628 L-1623 626 L-1604 624 L-1582 623 L-1566 621 L-1547 620 L-1527 618 L-1506 616 L-1488 614 L-1470 612 L-1450 611 L-1430 609 L-1411 607 L-1392 606 L-1371 604 L-1346 603 L-1332 601 L-1315 599 L-1295 597 L-1276 596 L-1256 594 L-1237 592 L-1217 590 L-1197 587 L-1179 585 L-1160 583 L-1140 580 L-1119 578 L-1102 576 L-1083 574 L-1063 572 L-1044 570 L-1024 567 L-1005 565 L-986 563 L-966 561 L-947 559 L-928 558 L-900 556 L-880 553 L-852 551 L-817 549 L-803 547 L-790 545 L-771 543 L-753 541 L-733 540 L-715 538 L-695 536 L-675 534 L-654 532 L-637 530 L-619 529 L-598 526 L-578 524 L-560 522 L-541 519 L-521 516 L-501 513 L-483 510 L-464 508 L-443 505 L-418 502 L-403 500 L-386 497 L-367 494 L-347 492 L-328 489 L-309 486 L-289 484 L-268 481 L-251 479 L-231 476 L-211 474 L-190 472 L-173 470 L-154 468 L-134 466 L-115 465 L-96 463 L-77 461 L-57 460 L-37 459 L-18 457 L0 456 L27 455 L48 453 L76 452 L111 449 L125 446 L138 444 L157 441 L175 439 L195 438 L213 436 L233 434 L252 433 L273 431 L290 429 L309 427 L330 425 L350 423 L368 421 L387 418 L406 416 L427 414 L445 412 L464 410 L485 409 L510 407 L525 406 L542 404 L561 402 L581 400 L600 398 L619 395 L639 392 L660 389 L677 387 L696 384 L717 382 L737 380 L754 378 L773 377 L793 376 L812 374 L832 373 L851 371 L871 370 L890 369 L909 368 L928 366 L955 365 L976 364 L1004 363 L1038 361 L1053 360 L1066 359 L1084 358 L1103 357 L1123 356 L1141 355 L1161 354 L1181 353 L1201 352 L1219 351 L1238 350 L1258 349 L1278 347 L1296 346 L1315 345 L1335 344 L1355 344 L1373 343 L1392 342 L1413 342 L1438 340 L1453 339 L1470 338 L1489 337 L1509 336 L1528 335 L1547 334 L1567 333 L1588 331 L1606 329 L1624 327 L1645 324 L1665 323 L1683 321 L1702 320 L1722 318 L1741 317 L1760 316 L1779 314 L1799 313 L1818 312 L1838 311 L1857 310 L1885 309 L1933 308 L1970 307 L1985 305 L1997 304 L2014 304 L2032 303 L2051 303 L2070 302 L2089 301 L2109 300 L2130 299 L2147 299 L2166 298 L2186 297 L2206 297 L2225 296 L2243 295 L2264 294 L2283 293 L2302 292 L2321 290 L2342 289 L2366 287 L2381 285 L2398 284 L2418 282 L2437 281 L2457 279 L2476 278 L2496 276 L2516 275 L2534 273 L2553 272 L2573 271 L2594 269 L2611 269 L2630 267 L2650 266 L2669 265 L2689 264 L2708 263 L2728 262 L2747 261 L2767 260 L2785 259 L2814 258 L2834 256 L2862 255 L2898 252 L2913 250 L2926 248 L2943 246 L2961 245 L2981 244 L2999 243 L3019 242 L3038 241 L3060 240 L3076 239 L3095 238 L3115 236 L3136 234 L3154 233 L3173 230 L3192 228 L3213 226 L3231 224 L3250 223 L3271 221 L3296 219 L3311 218 L3329 217 L3347 215 L3367 214 L3386 213 L3405 211 L3425 209 L3446 207 L3463 206 L3482 205 L3502 203 L3523 202 L3540 201 L3559 199 L3579 198 L3598 197 L3617 196 L3636 195 L3656 194 L3676 192 L3695 192 L3714 190 L3742 997 L3762 996 L3790 994 L3826 992 L3840 183 L3853 182 L3871 180 L3889 180 L3909 179 L3927 178 L3947 177 L3967 176 L3988 174 L4005 172 L4023 171 L4044 169 L4064 167 L4082 165 L4101 163 L4121 161 L4142 159 L4159 158 L4178 156 L4200 155 L4224 153 L4240 151 L4269 149 L4309 147 L4332 144 L4361 142 L4378 139 L4391 137 L4411 136 L4431 135 L4452 134 L4469 132 L4488 131 L4508 130 L4527 129 L4546 129 L4565 128 L4585 127 L4605 126 L4624 125 L4642 124 L4670 123 L4691 122 L4719 121 L4754 120 L4767 118 L4799 117 L4818 116 L4838 115 L4856 115 L4876 114 L4895 113 L4916 112 L4933 111 L4952 109 L4973 106 L4993 103 L5011 99 L5030 95 L5050 92 L5070 90 L5088 88 L5107 86 L5128 85 L5153 83 L5168 82 L5185 80 L5204 78 L5224 77 L5243 76 L5262 74 L5282 73 L5303 71 L5320 69 L5339 68 L5359 66 L5380 65 L5397 64 L5416 63 L5436 62 L5456 61 L5475 60 L5494 59 L5513 58 L5533 57 L5552 56 L5571 55 L5599 54 L5619 53 L5689 51 L5717 48 L5732 46 L5746 43 L5766 42 L5784 41 L5804 39 L5824 38 L5845 37 L5862 36 L5880 35 L5901 34 L5921 33 L5939 32 L5958 31 L5978 29 L5999 28 L6016 26 L6035 25 L6057 24 L6082 23 L6097 22 L6114 21 L6133 19 L6153 18 L6171 16 L6191 15 L6210 14 L6232 13 L6248 12 L6268 11 L6288 10 L6309 9 L6326 8 L6384 6 L6403 5 L6422 4 L6442 4 L6462 3 L6481 2 L6500 1" />
</svg>
