<svg xmlns="http://www.w3.org/2000/svg" version="1.1" viewBox="0 0 6500 1000">
	<path fill="none" stroke="gold" stroke-width="125" stroke-linecap="round" stroke-linejoin="round" d="M0 62535  L-197906 62535 L-195302 62238 L-193634 61940 L-175304 61345 L-175134 60750 L-167976 60154 L-167943 60154 L-154512 59857 L-151590 60154 L-138249 59261 L-134080 58071 L-132920 56583 L-132301 55095 L-130289 54202 L-126517 53607 L-125917 53011 L-125589 52416 L-125376 51821 L-124834 51226 L-123596 48845 L-122417 46464 L-119553 44083 L-119030 41702 L-114175 41107 L-111238 40511 L-111195 39916 L-110886 39321 L-110634 38726 L-108039 38130 L-103784 38130 L-103766 38130 L-102529 38130 L-100652 38130 L-98698 37535 L-97750 36940 L-97480 36345 L-97170 36047 L-97072 35750 L-96241 35750 L-94210 36047 L-93920 33369 L-91774 32178 L-91618 30392 L-87962 28607 L-87711 29500 L-87612 29202 L-87095 30095 L-84944 31583 L-84015 33071 L-82489 34559 L-81250 34559 L-79703 34261 L-76741 33666 L-75619 33071 L-75310 32476 L-74099 32178 L-71092 35452 L-71073 35154 L-70725 34857 L-70512 34559 L-70386 30392 L-70144 29797 L-70107 29202 L-70087 28607 L-70068 28011 L-70009 27416 L-69950 26821 L-69932 26226 L-69489 25630 L-68250 25035 L-66704 24440 L-63316 23845 L-57590 23547 L-57388 23250 L-55752 22952 L-54030 22654 L-52598 22357 L-52366 22059 L-51651 21761 L-45519 21464 L-45151 20869 L-44996 20273 L-44418 19678 L-44125 19083 L-43158 18488 L-42849 17892 L-42250 17297 L-40643 17297 L-39908 17297 L-39598 17595 L-38830 17595 L-36794 17000 L-36369 16404 L-35556 16107 L-28127 15511 L-27604 14916 L-27431 14321 L-26696 13726 L-25128 13130 L-24723 12833 L-22498 12238 L-21550 11940 L-21125 11642 L-20794 11642 L-19751 11345 L-17642 10750 L-17390 10154 L-16771 9559 L-15959 9261 L-13851 8666 L-13802 8071 L-11874 7476 L-11548 6880 L-11413 6285 L-10910 5988 L-9497 5392 L-8995 4202 L-8473 3309 L-4913 2119 L-4178 928 L-1753 928 L-464 333 L-57 35 L3095 35 L3249 35 L3270 333 L3636 333 L4895 630 L5610 928 L6500 928" />
</svg>
