<svg xmlns="http://www.w3.org/2000/svg" version="1.1" viewBox="0 0 6500 1000">
	<path fill="none" stroke="gold" stroke-width="125" stroke-linecap="round" stroke-linejoin="round" d="M0 11253  L-730519 11253 L-727915 11253 L-726247 11252 L-707917 11251 L-707747 11250 L-700589 11249 L-700556 11249 L-687125 11249 L-684203 11249 L-670862 11248 L-666693 11246 L-665533 11244 L-664914 11241 L-662902 11240 L-659131 11239 L-658531 11238 L-658202 11237 L-657989 11236 L-657447 11235 L-656209 11231 L-655030 11228 L-652166 11224 L-651644 11220 L-646788 11219 L-643851 11218 L-643808 11217 L-643500 11216 L-643248 11215 L-640653 11214 L-636397 11214 L-636379 11214 L-635142 11214 L-633265 11214 L-631312 11213 L-630364 11212 L-630093 11211 L-629783 11211 L-629685 11211 L-628854 11211 L-626824 11211 L-626533 11207 L-624387 11205 L-624231 11202 L-620575 11199 L-620324 11201 L-620225 11200 L-619708 11202 L-617557 11204 L-616628 11206 L-615102 11209 L-613863 11209 L-612316 11208 L-609355 11207 L-608233 11206 L-607923 11205 L-606712 11205 L-603706 11210 L-603686 11210 L-603339 11209 L-603125 11209 L-602999 11202 L-602758 11201 L-602720 11200 L-602700 11199 L-602681 11198 L-602622 11197 L-602563 11196 L-602545 11195 L-602102 11194 L-600863 11193 L-599317 11192 L-595929 11192 L-590203 11191 L-590001 11191 L-588366 11190 L-586644 11190 L-585212 11189 L-584979 11189 L-584264 11188 L-578132 11188 L-577764 11187 L-577610 11186 L-577031 11185 L-576739 11184 L-575771 11183 L-575462 11182 L-574863 11181 L-573256 11181 L-572521 11181 L-572212 11182 L-571443 11182 L-569407 11181 L-568982 11180 L-568169 11179 L-560741 11178 L-560218 11177 L-560044 11176 L-559309 11175 L-557741 11174 L-557336 11174 L-555111 11173 L-554163 11173 L-553738 11172 L-553408 11172 L-552364 11172 L-550256 11171 L-550003 11170 L-549385 11169 L-548572 11168 L-546464 11167 L-546416 11166 L-544487 11165 L-544162 11165 L-544027 11164 L-543523 11163 L-542111 11162 L-541608 11160 L-541086 11159 L-537526 11157 L-536791 11155 L-534366 11155 L-533077 11154 L-532670 11154 L-529518 11154 L-529363 11154 L-529342 11154 L-528976 11154 L-527718 11155 L-527003 11155 L-526113 11155 L-525706 11155 L-524777 11155 L-523669 11155 L-523365 11156 L-517117 11157 L-516169 11158 L-514543 11159 L-514041 11160 L-510366 11160 L-509533 11161 L-505580 11161 L-504168 11160 L-501679 11159 L-501003 11158 L-500964 11157 L-500093 11157 L-496882 11157 L-494019 11156 L-493051 11156 L-491929 11155 L-491910 11154 L-490285 11153 L-489821 11152 L-489729 11151 L-483360 11151 L-482411 11150 L-479954 11150 L-479082 11149 L-477846 11148 L-475845 11148 L-475447 11147 L-474011 11146 L-471985 11146 L-471771 11145 L-470591 11144 L-469083 11144 L-469063 11143 L-467051 11143 L-466181 11142 L-465310 11141 L-464725 11140 L-464188 11139 L-463530 11138 L-462292 11137 L-461732 11137 L-460551 11137 L-459313 11136 L-459275 11136 L-458888 11135 L-458346 11134 L-457572 11134 L-456450 11133 L-454361 11132 L-454027 11131 L-453742 11130 L-452813 11130 L-452330 11129 L-451594 11128 L-447963 11128 L-446836 11128 L-446681 11127 L-445655 11126 L-441940 11126 L-440723 11125 L-438904 11124 L-436119 11123 L-435557 11122 L-431669 11122 L-429193 11122 L-427858 11122 L-427354 11121 L-426871 11121 L-424182 11121 L-420410 11121 L-417953 11121 L-416773 11121 L-416134 11120 L-413775 11119 L-413697 11119 L-412650 11119 L-412556 11118 L-412053 11118 L-411608 11118 L-411550 11118 L-411336 11118 L-408377 11117 L-405669 11116 L-405514 11116 L-401994 11115 L-401471 11114 L-400503 11113 L-400154 11113 L-399111 11112 L-398182 11111 L-397756 11110 L-396247 11110 L-395281 11110 L-395262 11109 L-393366 11075 L-393250 11039 L-393202 11004 L-393177 10969 L-390173 10969 L-388142 10968 L-386382 10967 L-386014 10967 L-385569 10966 L-385202 10965 L-384788 10964 L-382803 10964 L-382590 10964 L-382435 10963 L-380830 10963 L-379708 10963 L-378760 10962 L-377502 10962 L-375858 10961 L-374678 10960 L-368089 10960 L-368042 10959 L-367636 10959 L-366591 10958 L-366456 10958 L-364773 10957 L-364753 10956 L-363417 10955 L-362180 10955 L-362026 10954 L-361652 10953 L-361446 10953 L-361137 10953 L-360363 10952 L-358041 10951 L-357383 10951 L-355256 10950 L-353533 10950 L-353340 10949 L-350786 10948 L-350510 10947 L-350322 10946 L-349489 10946 L-348717 10945 L-348019 10945 L-343018 10945 L-342642 10944 L-338390 10944 L-337902 10990 L-337883 10990 L-337804 10990 L-337729 10990 L-337709 10941 L-336896 10941 L-336143 10940 L-334923 10939 L-333491 10939 L-333395 10939 L-333221 10939 L-332866 10938 L-331557 10937 L-329700 10937 L-327997 10936 L-327495 10935 L-327229 10935 L-326836 10934 L-326702 10934 L-325792 10934 L-325416 10933 L-324487 10933 L-324148 10933 L-324109 10933 L-324071 10932 L-322155 10932 L-321982 10932 L-320453 10932 L-320125 10931 L-320009 10931 L-319602 10930 L-319253 10929 L-317610 10928 L-317059 10928 L-316816 10927 L-316274 10927 L-315443 10926 L-314901 10925 L-313367 10925 L-313275 10924 L-313238 10924 L-313102 10923 L-312714 10923 L-311690 10922 L-309813 10922 L-309717 10921 L-309117 10936 L-308750 10953 L-308265 10969 L-308227 10985 L-307453 10986 L-307396 10986 L-307221 10985 L-307028 10984 L-305422 10983 L-305402 10983 L-305247 10984 L-305132 10984 L-303952 10985 L-303797 10986 L-303130 10986 L-300682 11025 L-298167 11065 L-295497 11103 L-287798 11142 L-282131 11142 L-279916 11141 L-279893 11141 L-278919 11151 L-278899 11151 L-278035 11150 L-275295 11149 L-269496 11139 L-269343 11138 L-266557 11138 L-252949 11137 L-252203 11137 L-247792 11136 L-231446 11135 L-231214 11134 L-230677 11134 L-222217 11133 L-213512 11133 L-213299 11132 L-211327 11132 L-208541 11132 L-204053 11132 L-203898 11132 L-203729 11132 L-203589 11131 L-203298 11130 L-203260 11130 L-202989 11129 L-202817 11129 L-202407 11128 L-201286 11128 L-200106 11128 L-198829 11127 L-195965 11127 L-193045 11126 L-191053 11126 L-189505 11125 L-186468 11124 L-177143 11124 L-176619 11123 L-170895 11123 L-169388 11123 L-168574 11123 L-166890 11122 L-166169 11121 L-166001 11121 L-164955 11120 L-162888 11120 L-161526 11119 L-157083 11119 L-156986 11119 L-156947 11118 L-156928 11118 L-156096 11117 L-156018 11116 L-153445 11116 L-150196 11115 L-150041 11115 L-149093 11114 L-147352 11113 L-146636 11116 L-143096 11119 L-136518 11121 L-135101 11125 L-135080 11125 L-134130 11124 L-130655 11124 L-129902 11123 L-129341 11122 L-128558 11122 L-121054 11121 L-119456 11121 L-117882 11120 L-114697 11120 L-110364 11119 L-101794 11119 L-93048 11119 L-89974 11119 L-86708 11118 L-86161 11117 L-79024 11117 L-73356 11117 L-59292 11117 L-53280 11117 L-48574 11117 L-44571 11116 L-39463 11115 L-29749 11115 L-14179 11114 L-11096 11113 L-10794 10899 L-10774 10637 L-10755 10338 L-10736 10004 L-10716 9852 L-10697 9724 L-10678 9606 L-10651 9489 L-10630 9377 L-10602 9257 L-10567 9125 L-10553 9014 L-10540 8917 L-10521 8838 L-10503 8779 L-10483 8719 L-10465 8659 L-10445 8598 L-10425 8538 L-10404 8474 L-10387 8412 L-10369 8352 L-10348 8294 L-10328 8235 L-10310 8172 L-10291 8107 L-10271 8039 L-10251 7974 L-10233 7910 L-10214 7850 L-10193 7793 L-10168 7734 L-10153 7679 L-10136 7625 L-10116 7569 L-10097 7516 L-10078 7457 L-10059 7397 L-10039 7341 L-10018 7287 L-10000 7235 L-9982 7187 L-9961 7141 L-9940 7097 L-9923 7060 L-9904 7023 L-9884 6987 L-9865 6953 L-9846 6919 L-9827 6889 L-9807 6863 L-9787 6838 L-9768 6812 L-9750 6787 L-9722 6755 L-9701 6722 L-9674 6685 L-9640 6644 L-9625 6611 L-9612 6581 L-9594 6554 L-9575 6531 L-9555 6507 L-9536 6479 L-9517 6451 L-9497 6423 L-9476 6398 L-9459 6374 L-9440 6348 L-9420 6322 L-9400 6293 L-9381 6259 L-9363 6223 L-9343 6187 L-9323 6149 L-9304 6111 L-9285 6073 L-9264 6030 L-9240 5983 L-9225 5937 L-9208 5894 L-9188 5851 L-9169 5808 L-9149 5763 L-9131 5715 L-9110 5670 L-9090 5625 L-9072 5582 L-9053 5539 L-9033 5499 L-9012 5459 L-8995 5421 L-8976 5386 L-8956 5350 L-8937 5320 L-8917 5288 L-8898 5256 L-8879 5226 L-8859 5193 L-8840 5162 L-8821 5131 L-8792 5099 L-8772 5071 L-8745 5041 L-8707 5005 L-8692 4971 L-8680 4939 L-8663 4909 L-8646 4888 L-8626 4868 L-8607 4849 L-8588 4831 L-8568 4814 L-8548 4796 L-8530 4776 L-8512 4754 L-8491 4733 L-8471 4710 L-8453 4686 L-8434 4661 L-8414 4634 L-8394 4605 L-8376 4577 L-8357 4549 L-8336 4522 L-8311 4494 L-8297 4467 L-8279 4439 L-8259 4410 L-8240 4383 L-8221 4353 L-8202 4322 L-8182 4292 L-8162 4264 L-8143 4235 L-8125 4209 L-8104 4182 L-8084 4158 L-8066 4135 L-8047 4111 L-8027 4087 L-8009 4063 L-7989 4039 L-7970 4017 L-7950 3995 L-7931 3973 L-7911 3951 L-7892 3929 L-7864 3906 L-7844 3884 L-7816 3858 L-7780 3823 L-7766 3790 L-7753 3759 L-7735 3732 L-7717 3715 L-7697 3697 L-7679 3675 L-7659 3652 L-7639 3628 L-7618 3601 L-7600 3573 L-7583 3545 L-7562 3513 L-7542 3481 L-7524 3447 L-7505 3411 L-7485 3375 L-7465 3341 L-7447 3310 L-7428 3283 L-7407 3263 L-7382 3245 L-7367 3229 L-7350 3212 L-7331 3194 L-7311 3175 L-7292 3156 L-7273 3137 L-7253 3120 L-7232 3106 L-7215 3092 L-7196 3076 L-7175 3055 L-7154 3031 L-7138 3008 L-7119 2990 L-7098 2976 L-7080 2965 L-7060 2955 L-7041 2944 L-7021 2932 L-7002 2919 L-6983 2905 L-6964 2893 L-6936 2881 L-6915 2870 L-6888 2857 L-6853 2841 L-6839 2827 L-6826 2816 L-6807 2806 L-6789 2797 L-6769 2787 L-6750 2777 L-6731 2768 L-6711 2760 L-6690 2751 L-6673 2742 L-6654 2732 L-6634 2721 L-6614 2710 L-6596 2699 L-6577 2689 L-6557 2680 L-6537 2671 L-6518 2662 L-6500 2653 L-6478 2644 L-6453 2636 L-6439 2627 L-6422 2620 L-6402 2611 L-6383 2602 L-6363 2593 L-6344 2582 L-6325 2571 L-6304 2562 L-6286 2552 L-6267 2544 L-6247 2535 L-6226 2527 L-6209 2519 L-6190 2510 L-6170 2502 L-6151 2494 L-6131 2486 L-6113 2480 L-6093 2475 L-6073 2468 L-6054 2463 L-6035 2473 L-6006 2482 L-5987 2492 L-5959 2501 L-5921 2492 L-5906 2486 L-5894 2479 L-5876 2474 L-5860 2469 L-5840 2464 L-5822 2458 L-5802 2453 L-5782 2448 L-5761 2443 L-5744 2439 L-5726 2434 L-5705 2429 L-5685 2423 L-5667 2417 L-5648 2412 L-5628 2406 L-5608 2400 L-5590 2395 L-5571 2390 L-5550 2386 L-5525 2382 L-5510 2376 L-5493 2370 L-5474 2365 L-5454 2359 L-5435 2354 L-5416 2348 L-5396 2341 L-5375 2333 L-5358 2325 L-5339 2318 L-5318 2311 L-5298 2305 L-5280 2298 L-5261 2291 L-5241 2285 L-5223 2279 L-5203 2271 L-5184 2264 L-5164 2256 L-5145 2250 L-5125 2246 L-5107 2240 L-5079 2234 L-5058 2228 L-5030 2221 L-4996 2213 L-4982 2207 L-4969 2201 L-4950 2195 L-4931 2190 L-4911 2184 L-4893 2179 L-4874 2173 L-4854 2167 L-4833 2161 L-4816 2155 L-4797 2150 L-4776 2143 L-4757 2136 L-4738 2128 L-4720 2119 L-4700 2109 L-4679 2100 L-4661 2092 L-4642 2085 L-4621 2077 L-4596 2068 L-4581 2060 L-4564 2051 L-4545 2043 L-4525 2034 L-4506 2026 L-4487 2017 L-4467 2009 L-4446 2001 L-4429 1994 L-4410 1986 L-4389 1979 L-4369 1972 L-4352 1966 L-4333 1960 L-4313 1955 L-4294 1950 L-4274 1945 L-4255 1940 L-4236 1936 L-4216 1932 L-4197 1927 L-4178 1924 L-4150 1919 L-4130 1915 L-4102 1910 L-4066 1901 L-4053 1893 L-4040 1885 L-4021 1877 L-4003 1871 L-3983 1867 L-3965 1861 L-3945 1856 L-3925 1851 L-3904 1845 L-3887 1840 L-3869 1833 L-3848 1827 L-3828 1820 L-3810 1813 L-3791 1806 L-3771 1799 L-3751 1793 L-3733 1786 L-3714 1781 L-3692 1776 L-3668 1771 L-3653 1766 L-3636 1760 L-3616 1754 L-3597 1749 L-3578 1741 L-3559 1734 L-3539 1725 L-3518 1715 L-3501 1707 L-3481 1699 L-3461 1692 L-3440 1686 L-3423 1681 L-3404 1676 L-3384 1673 L-3365 1669 L-3346 1665 L-3327 1660 L-3307 1656 L-3287 1651 L-3268 1648 L-3250 1644 L-3222 1639 L-3201 1636 L-3174 1632 L-3139 1628 L-3125 1624 L-3112 1620 L-3093 1617 L-3074 1614 L-3055 1611 L-3036 1607 L-3017 1604 L-2997 1602 L-2976 1599 L-2959 1596 L-2940 1592 L-2920 1589 L-2900 1585 L-2881 1582 L-2863 1578 L-2843 1575 L-2823 1573 L-2804 1571 L-2785 1569 L-2764 1566 L-2740 1563 L-2725 1560 L-2708 1556 L-2688 1553 L-2669 1550 L-2649 1546 L-2630 1544 L-2611 1539 L-2590 1534 L-2572 1527 L-2553 1520 L-2533 1513 L-2512 1508 L-2495 1503 L-2476 1499 L-2456 1494 L-2437 1490 L-2417 1485 L-2398 1481 L-2378 1477 L-2359 1473 L-2340 1470 L-2321 1467 L-2292 1464 L-2245 1462 L-2208 1458 L-2193 1454 L-2180 1451 L-2163 1448 L-2146 1446 L-2126 1445 L-2107 1443 L-2088 1440 L-2068 1437 L-2048 1435 L-2030 1433 L-2012 1431 L-1991 1429 L-1972 1426 L-1953 1423 L-1934 1420 L-1914 1417 L-1894 1414 L-1876 1411 L-1857 1407 L-1836 1402 L-1811 1397 L-1796 1391 L-1779 1386 L-1759 1381 L-1740 1377 L-1721 1372 L-1702 1368 L-1682 1363 L-1661 1359 L-1643 1354 L-1624 1349 L-1604 1345 L-1584 1342 L-1566 1339 L-1547 1335 L-1527 1332 L-1508 1329 L-1489 1326 L-1470 1322 L-1450 1319 L-1431 1315 L-1411 1312 L-1392 1308 L-1364 1305 L-1344 1301 L-1316 1296 L-1279 1288 L-1265 1281 L-1252 1274 L-1234 1269 L-1217 1265 L-1197 1261 L-1179 1258 L-1159 1256 L-1139 1253 L-1118 1251 L-1101 1247 L-1083 1242 L-1062 1238 L-1042 1233 L-1024 1227 L-1005 1220 L-985 1213 L-964 1206 L-947 1201 L-928 1196 L-907 1191 L-882 1186 L-867 1181 L-849 1177 L-831 1172 L-810 1168 L-792 1164 L-773 1158 L-753 1153 L-732 1148 L-715 1143 L-695 1139 L-675 1135 L-654 1131 L-637 1127 L-618 1123 L-599 1119 L-580 1116 L-560 1112 L-541 1108 L-521 1105 L-501 1101 L-482 1099 L-464 1095 L-436 3611 L-415 3607 L-388 3603 L-352 3597 L-338 1073 L-324 1068 L-306 1064 L-289 1061 L-269 1059 L-250 1057 L-231 1054 L-211 1049 L-190 1044 L-173 1039 L-154 1034 L-133 1029 L-113 1022 L-95 1016 L-76 1009 L-57 1002 L-36 997 L-18 993 L0 989 L21 985 L46 979 L61 973 L90 966 L130 958 L153 951 L183 943 L199 935 L213 929 L232 925 L252 921 L273 918 L290 914 L309 910 L329 907 L348 905 L368 903 L386 901 L406 898 L426 895 L445 892 L464 889 L492 885 L512 882 L540 879 L575 874 L589 870 L621 866 L639 863 L659 861 L677 858 L697 856 L717 854 L738 851 L755 848 L773 842 L794 833 L814 822 L832 809 L851 799 L871 789 L891 781 L909 774 L928 769 L950 765 L975 761 L989 756 L1007 752 L1025 746 L1045 742 L1064 737 L1084 733 L1103 727 L1124 722 L1141 717 L1161 712 L1181 708 L1202 705 L1219 702 L1238 699 L1258 696 L1277 693 L1296 689 L1315 685 L1335 681 L1355 678 L1374 675 L1392 672 L1420 670 L1441 666 L1511 660 L1539 652 L1553 644 L1567 636 L1588 632 L1606 628 L1625 624 L1645 619 L1666 616 L1683 612 L1702 609 L1723 607 L1743 605 L1761 601 L1780 597 L1800 592 L1820 588 L1838 583 L1857 579 L1878 576 L1903 573 L1918 570 L1935 566 L1954 561 L1974 556 L1993 552 L2012 547 L2032 544 L2053 541 L2070 538 L2089 535 L2109 532 L2131 528 L2147 525 L2205 521 L2225 518 L2243 515 L2263 512 L2284 509 L2302 507 L2321 505 L2349 503 L2369 501 L2397 499 L2434 496 L2448 493 L2461 491 L2478 489 L2496 487 L2516 486 L2534 484 L2554 483 L2574 482 L2595 480 L2612 479 L2630 477 L2651 476 L2671 474 L2689 471 L2708 468 L2728 466 L2749 463 L2766 460 L2785 458 L2807 456 L2832 453 L2846 452 L2863 450 L2883 448 L2903 445 L2921 442 L2941 439 L2960 435 L2982 431 L2998 428 L3018 425 L3038 424 L3059 422 L3076 421 L3095 419 L3115 417 L3134 415 L3153 414 L3172 413 L3192 412 L3212 411 L3231 409 L3250 408 L3277 406 L3298 404 L3326 403 L3361 400 L3375 398 L3388 396 L3406 395 L3424 393 L3444 391 L3463 389 L3502 388 L3523 386 L3540 385 L3559 383 L3579 380 L3599 377 L3618 374 L3636 371 L3656 369 L3676 367 L3695 365 L3714 363 L3735 361 L3759 360 L3774 358 L3791 357 L3811 355 L3830 352 L3850 350 L3868 348 L3888 346 L3909 344 L3927 341 L3946 339 L3966 337 L3987 335 L4004 333 L4023 331 L4043 330 L4062 329 L4082 327 L4101 325 L4120 324 L4140 322 L4159 321 L4178 319 L4207 317 L4254 315 L4292 313 L4307 312 L4320 310 L4337 309 L4353 307 L4373 306 L4391 305 L4411 304 L4431 302 L4452 302 L4469 302 L4488 301 L4508 301 L4527 300 L4546 299 L4565 297 L4585 296 L4605 295 L4623 293 L4642 292 L4663 290 L4688 288 L4702 285 L4720 283 L4740 280 L4759 276 L4778 272 L4797 267 L4817 263 L4838 259 L4856 256 L4875 252 L4895 248 L4915 245 L4933 241 L4952 238 L4972 234 L4991 230 L5010 228 L5029 225 L5049 222 L5068 218 L5088 214 L5107 210 L5135 205 L5155 202 L5183 200 L5220 197 L5235 194 L5248 192 L5265 189 L5282 187 L5302 184 L5320 183 L5340 181 L5360 178 L5381 175 L5398 173 L5416 170 L5437 166 L5458 163 L5475 160 L5495 157 L5514 155 L5535 153 L5552 149 L5571 146 L5593 143 L5617 140 L5633 136 L5650 132 L5669 128 L5689 125 L5707 122 L5727 118 L5746 114 L5768 110 L5784 105 L5804 101 L5824 98 L5845 94 L5862 92 L5881 90 L5900 88 L5919 86 L5939 83 L5958 81 L5978 78 L5997 75 L6016 72 L6035 70 L6083 66 L6111 63 L6144 59 L6159 56 L6171 53 L6190 49 L6210 47 L6230 44 L6249 41 L6268 38 L6288 36 L6309 34 L6326 31 L6345 29 L6365 27 L6385 24 L6403 22 L6422 18 L6442 15 L6462 12 L6481 8 L6500 5" />
</svg>
