<svg xmlns="http://www.w3.org/2000/svg" version="1.1" viewBox="0 0 6500 1000">
	<path fill="none" stroke="gold" stroke-width="125" stroke-linecap="round" stroke-linejoin="round" d="M0 11736  L-731139 11736 L-728535 11735 L-726866 11735 L-708537 11734 L-708367 11733 L-701209 11732 L-701176 11732 L-687745 11731 L-684823 11732 L-671482 11730 L-667313 11728 L-666153 11726 L-665534 11723 L-663522 11722 L-659750 11721 L-659150 11720 L-658822 11719 L-658609 11718 L-658067 11717 L-656829 11713 L-655650 11709 L-652786 11705 L-652263 11701 L-647408 11700 L-644471 11699 L-644428 11698 L-644119 11697 L-643867 11696 L-641272 11695 L-637017 11695 L-636999 11695 L-635762 11695 L-633885 11695 L-631931 11694 L-630983 11693 L-630713 11692 L-630403 11692 L-630305 11691 L-629474 11691 L-627443 11692 L-627153 11687 L-625007 11686 L-624851 11683 L-621195 11680 L-620944 11681 L-620845 11681 L-620328 11682 L-618177 11685 L-617248 11687 L-615722 11689 L-614483 11689 L-612936 11689 L-609974 11688 L-608852 11687 L-608543 11686 L-607332 11686 L-604325 11691 L-604306 11690 L-603958 11690 L-603745 11689 L-603619 11683 L-603377 11682 L-603340 11681 L-603320 11680 L-603301 11679 L-603242 11678 L-603183 11677 L-603165 11676 L-602722 11675 L-601483 11674 L-599937 11673 L-596549 11672 L-590823 11671 L-590621 11671 L-588985 11670 L-587263 11670 L-585831 11669 L-585599 11669 L-584884 11668 L-578752 11668 L-578384 11667 L-578229 11666 L-577651 11665 L-577358 11664 L-576391 11663 L-576082 11662 L-575483 11661 L-573876 11661 L-573141 11661 L-572831 11661 L-572063 11661 L-570027 11661 L-569602 11660 L-568789 11659 L-561360 11658 L-560837 11657 L-560664 11656 L-559929 11655 L-558361 11654 L-557956 11654 L-555731 11653 L-554783 11652 L-554358 11652 L-554027 11652 L-552984 11651 L-550875 11650 L-550623 11649 L-550004 11648 L-549192 11648 L-547084 11647 L-547035 11646 L-545107 11645 L-544781 11644 L-544646 11643 L-544143 11642 L-542730 11641 L-542227 11639 L-541706 11638 L-538146 11636 L-537411 11634 L-534986 11634 L-533697 11633 L-533290 11633 L-530137 11633 L-529983 11633 L-529962 11633 L-529596 11633 L-528337 11634 L-527622 11634 L-526732 11634 L-526326 11634 L-525397 11634 L-524288 11634 L-523985 11635 L-517736 11636 L-516789 11637 L-515163 11638 L-514661 11639 L-510985 11639 L-510153 11640 L-506200 11640 L-504788 11639 L-502299 11638 L-501622 11637 L-501584 11636 L-500713 11636 L-497502 11636 L-494638 11635 L-493670 11635 L-492549 11634 L-492530 11633 L-490905 11632 L-490441 11631 L-490349 11630 L-483980 11630 L-483031 11629 L-480574 11629 L-479702 11628 L-478466 11627 L-476464 11627 L-476067 11626 L-474631 11625 L-472604 11624 L-472391 11623 L-471211 11623 L-469703 11622 L-469683 11622 L-467670 11621 L-466801 11620 L-465930 11620 L-465345 11619 L-464808 11618 L-464150 11617 L-462912 11616 L-462351 11615 L-461170 11615 L-459933 11614 L-459894 11614 L-459507 11613 L-458966 11612 L-458192 11612 L-457070 11611 L-454980 11610 L-454647 11609 L-454361 11608 L-453433 11608 L-452950 11607 L-452214 11607 L-448583 11606 L-447455 11606 L-447301 11605 L-446275 11604 L-442560 11604 L-441343 11603 L-439524 11602 L-436738 11601 L-436177 11600 L-432289 11600 L-429812 11600 L-428478 11600 L-427974 11599 L-427491 11599 L-424802 11599 L-421030 11599 L-418573 11599 L-417393 11599 L-416754 11598 L-414394 11597 L-414317 11597 L-413269 11596 L-413176 11595 L-412673 11595 L-412227 11595 L-412170 11595 L-411956 11595 L-408997 11594 L-406289 11594 L-406134 11593 L-402613 11593 L-402090 11592 L-401123 11591 L-400774 11590 L-399731 11589 L-398802 11588 L-398376 11588 L-396867 11588 L-395900 11587 L-395881 11587 L-393985 11551 L-393869 11514 L-393821 11478 L-393797 11442 L-390793 11441 L-388762 11440 L-387001 11440 L-386634 11439 L-386189 11438 L-385822 11438 L-385408 11437 L-383423 11436 L-383210 11436 L-383055 11436 L-381450 11436 L-380328 11435 L-379379 11435 L-378122 11434 L-376478 11433 L-375298 11432 L-368708 11432 L-368662 11431 L-368256 11431 L-367211 11430 L-367076 11430 L-365393 11429 L-365373 11428 L-364036 11427 L-362800 11427 L-362646 11426 L-362272 11425 L-362066 11425 L-361756 11424 L-360982 11424 L-358661 11423 L-358003 11423 L-355875 11422 L-354153 11422 L-353959 11421 L-351406 11420 L-351130 11419 L-350942 11418 L-350109 11418 L-349337 11417 L-348639 11417 L-343638 11417 L-343262 11416 L-339009 11415 L-338522 11464 L-338503 11464 L-338424 11463 L-338349 11463 L-338329 11413 L-337516 11412 L-336762 11411 L-335543 11411 L-334111 11411 L-334015 11410 L-333841 11410 L-333486 11409 L-332177 11409 L-330320 11408 L-328617 11407 L-328114 11407 L-327849 11406 L-327456 11406 L-327322 11405 L-326412 11405 L-326036 11404 L-325107 11404 L-324768 11404 L-324728 11404 L-324691 11403 L-322775 11403 L-322602 11403 L-321073 11403 L-320745 11402 L-320628 11402 L-320221 11401 L-319873 11400 L-318229 11399 L-317679 11399 L-317435 11398 L-316894 11398 L-316063 11397 L-315521 11397 L-313987 11396 L-313894 11395 L-313857 11395 L-313721 11394 L-313334 11394 L-312309 11393 L-310433 11393 L-310337 11392 L-309736 11408 L-309369 11424 L-308885 11442 L-308847 11458 L-308073 11459 L-308015 11459 L-307841 11458 L-307647 11457 L-306042 11456 L-306022 11456 L-305867 11457 L-305751 11457 L-304572 11458 L-304417 11459 L-303750 11459 L-301302 11500 L-298787 11541 L-296117 11581 L-288418 11620 L-282750 11620 L-280536 11620 L-280512 11620 L-279539 11630 L-279519 11630 L-278655 11629 L-275915 11628 L-270116 11618 L-269963 11617 L-267177 11616 L-253569 11615 L-252823 11615 L-248412 11614 L-232066 11613 L-231834 11612 L-231297 11612 L-222837 11611 L-214131 11611 L-213919 11610 L-211947 11610 L-209160 11610 L-204673 11610 L-204518 11610 L-204349 11610 L-204209 11609 L-203918 11608 L-203879 11608 L-203608 11608 L-203437 11607 L-203027 11607 L-201906 11606 L-200726 11606 L-199449 11605 L-196585 11605 L-193665 11604 L-191673 11604 L-190125 11603 L-187087 11602 L-177763 11602 L-177239 11601 L-171515 11601 L-170008 11601 L-169193 11601 L-167510 11600 L-166789 11599 L-166620 11599 L-165575 11598 L-163508 11598 L-162146 11597 L-157703 11597 L-157605 11596 L-157567 11596 L-157548 11595 L-156715 11595 L-156638 11594 L-154065 11593 L-150816 11593 L-150661 11592 L-149713 11592 L-147972 11591 L-147256 11594 L-143715 11596 L-137138 11599 L-135721 11603 L-135700 11603 L-134750 11602 L-131275 11602 L-130522 11601 L-129960 11600 L-129178 11600 L-121674 11599 L-120076 11599 L-118502 11598 L-115316 11598 L-110983 11597 L-102414 11597 L-93667 11597 L-90593 11596 L-87327 11595 L-86781 11595 L-79644 11594 L-73976 11594 L-59912 11594 L-53900 11595 L-49194 11594 L-45191 11593 L-40083 11593 L-30369 11592 L-14799 11591 L-11716 11590 L-11414 11370 L-11394 11098 L-11375 10789 L-11355 10444 L-11336 10286 L-11317 10153 L-11298 10031 L-11270 9911 L-11249 9794 L-11222 9670 L-11186 9534 L-11173 9418 L-11160 9319 L-11141 9236 L-11123 9176 L-11103 9114 L-11084 9051 L-11065 8989 L-11045 8926 L-11024 8860 L-11007 8796 L-10988 8734 L-10968 8674 L-10948 8613 L-10930 8548 L-10911 8480 L-10891 8410 L-10871 8342 L-10852 8277 L-10834 8215 L-10812 8155 L-10788 8094 L-10773 8038 L-10756 7981 L-10736 7924 L-10717 7868 L-10698 7808 L-10679 7746 L-10659 7688 L-10638 7632 L-10620 7578 L-10601 7528 L-10581 7481 L-10560 7436 L-10543 7397 L-10524 7359 L-10504 7321 L-10485 7286 L-10466 7252 L-10447 7220 L-10427 7193 L-10407 7167 L-10388 7141 L-10369 7115 L-10342 7082 L-10321 7047 L-10293 7009 L-10259 6967 L-10245 6932 L-10232 6902 L-10213 6874 L-10194 6850 L-10174 6825 L-10156 6796 L-10137 6767 L-10117 6738 L-10096 6712 L-10079 6687 L-10060 6661 L-10040 6634 L-10020 6603 L-10001 6569 L-9983 6531 L-9962 6493 L-9943 6454 L-9924 6415 L-9905 6376 L-9884 6331 L-9860 6283 L-9845 6235 L-9828 6190 L-9808 6146 L-9789 6101 L-9769 6055 L-9750 6006 L-9730 5959 L-9710 5912 L-9692 5868 L-9673 5824 L-9653 5782 L-9632 5740 L-9615 5701 L-9595 5665 L-9575 5628 L-9557 5597 L-9537 5564 L-9518 5531 L-9498 5499 L-9479 5465 L-9460 5433 L-9441 5401 L-9412 5368 L-9392 5339 L-9364 5308 L-9327 5271 L-9312 5236 L-9300 5202 L-9283 5172 L-9266 5149 L-9246 5129 L-9227 5109 L-9208 5091 L-9188 5073 L-9167 5054 L-9150 5034 L-9131 5012 L-9111 4989 L-9091 4966 L-9073 4941 L-9054 4915 L-9034 4887 L-9014 4857 L-8995 4827 L-8977 4799 L-8955 4772 L-8931 4742 L-8916 4714 L-8899 4685 L-8879 4655 L-8860 4627 L-8841 4596 L-8822 4564 L-8802 4534 L-8781 4504 L-8763 4474 L-8744 4447 L-8724 4420 L-8704 4394 L-8686 4371 L-8667 4346 L-8647 4321 L-8628 4297 L-8608 4272 L-8590 4248 L-8570 4225 L-8550 4203 L-8531 4180 L-8512 4157 L-8484 4134 L-8464 4111 L-8436 4084 L-8400 4048 L-8386 4014 L-8372 3982 L-8355 3954 L-8337 3936 L-8317 3918 L-8299 3895 L-8279 3871 L-8259 3846 L-8238 3818 L-8219 3789 L-8202 3760 L-8182 3727 L-8162 3693 L-8144 3659 L-8125 3621 L-8105 3584 L-8085 3549 L-8067 3517 L-8048 3489 L-8027 3468 L-8002 3450 L-7987 3433 L-7969 3415 L-7951 3397 L-7931 3377 L-7912 3357 L-7893 3338 L-7873 3321 L-7852 3306 L-7835 3292 L-7815 3274 L-7795 3253 L-7774 3228 L-7757 3205 L-7738 3186 L-7718 3171 L-7699 3160 L-7680 3149 L-7661 3138 L-7641 3126 L-7621 3112 L-7602 3098 L-7584 3086 L-7556 3073 L-7535 3061 L-7507 3048 L-7473 3032 L-7459 3018 L-7446 3006 L-7427 2995 L-7408 2986 L-7389 2976 L-7370 2966 L-7350 2956 L-7331 2948 L-7310 2939 L-7293 2929 L-7274 2919 L-7253 2908 L-7233 2897 L-7215 2885 L-7197 2875 L-7177 2866 L-7156 2856 L-7138 2847 L-7119 2838 L-7098 2828 L-7073 2820 L-7059 2811 L-7041 2803 L-7022 2794 L-7003 2785 L-6983 2775 L-6964 2764 L-6944 2753 L-6923 2743 L-6906 2733 L-6887 2724 L-6867 2715 L-6846 2707 L-6829 2698 L-6810 2689 L-6790 2681 L-6771 2673 L-6751 2665 L-6732 2659 L-6712 2653 L-6693 2646 L-6674 2640 L-6655 2651 L-6626 2661 L-6607 2671 L-6579 2680 L-6541 2671 L-6526 2664 L-6513 2657 L-6496 2652 L-6480 2647 L-6460 2642 L-6441 2636 L-6422 2630 L-6402 2625 L-6381 2620 L-6364 2615 L-6345 2611 L-6325 2605 L-6305 2599 L-6287 2593 L-6268 2587 L-6248 2582 L-6228 2576 L-6210 2570 L-6191 2565 L-6169 2561 L-6145 2557 L-6130 2551 L-6113 2545 L-6093 2539 L-6074 2533 L-6055 2528 L-6036 2522 L-6016 2515 L-5995 2506 L-5977 2498 L-5958 2491 L-5938 2483 L-5917 2477 L-5900 2470 L-5881 2463 L-5861 2456 L-5842 2450 L-5823 2442 L-5804 2435 L-5784 2427 L-5764 2421 L-5745 2416 L-5726 2410 L-5699 2404 L-5678 2397 L-5650 2390 L-5615 2382 L-5602 2375 L-5589 2370 L-5570 2363 L-5551 2358 L-5531 2352 L-5513 2347 L-5493 2341 L-5474 2334 L-5452 2328 L-5435 2322 L-5417 2317 L-5396 2310 L-5376 2302 L-5358 2294 L-5339 2285 L-5319 2275 L-5299 2266 L-5281 2257 L-5262 2249 L-5241 2241 L-5216 2232 L-5201 2223 L-5184 2214 L-5165 2206 L-5145 2197 L-5126 2189 L-5107 2179 L-5087 2171 L-5066 2163 L-5049 2155 L-5030 2147 L-5009 2139 L-4989 2133 L-4972 2127 L-4953 2120 L-4933 2115 L-4914 2110 L-4894 2105 L-4875 2100 L-4855 2095 L-4836 2091 L-4817 2086 L-4798 2083 L-4770 2078 L-4750 2073 L-4722 2068 L-4686 2059 L-4672 2051 L-4659 2042 L-4641 2034 L-4623 2029 L-4603 2024 L-4584 2018 L-4565 2013 L-4545 2007 L-4524 2002 L-4507 1996 L-4488 1989 L-4468 1982 L-4448 1976 L-4430 1968 L-4411 1961 L-4391 1954 L-4370 1947 L-4353 1941 L-4334 1935 L-4312 1930 L-4287 1925 L-4273 1920 L-4256 1914 L-4236 1907 L-4217 1901 L-4197 1894 L-4179 1886 L-4159 1877 L-4137 1867 L-4120 1858 L-4101 1850 L-4081 1843 L-4060 1837 L-4043 1831 L-4024 1827 L-4004 1823 L-3985 1819 L-3965 1815 L-3947 1810 L-3927 1805 L-3907 1801 L-3888 1797 L-3869 1793 L-3842 1789 L-3821 1785 L-3793 1781 L-3759 1777 L-3745 1773 L-3732 1769 L-3713 1766 L-3694 1762 L-3675 1759 L-3656 1755 L-3637 1752 L-3617 1750 L-3596 1747 L-3579 1743 L-3560 1740 L-3540 1736 L-3520 1732 L-3501 1729 L-3482 1725 L-3462 1722 L-3442 1720 L-3424 1717 L-3405 1715 L-3384 1713 L-3359 1710 L-3345 1706 L-3327 1702 L-3308 1699 L-3289 1696 L-3269 1692 L-3250 1689 L-3230 1685 L-3210 1679 L-3192 1672 L-3173 1665 L-3153 1658 L-3132 1652 L-3114 1648 L-3095 1643 L-3075 1638 L-3057 1634 L-3037 1629 L-3018 1624 L-2998 1621 L-2979 1617 L-2959 1613 L-2941 1610 L-2912 1608 L-2864 1605 L-2828 1601 L-2813 1597 L-2800 1593 L-2783 1590 L-2766 1589 L-2746 1587 L-2727 1585 L-2708 1582 L-2688 1579 L-2667 1577 L-2650 1575 L-2631 1573 L-2611 1571 L-2591 1568 L-2573 1565 L-2554 1562 L-2534 1558 L-2514 1555 L-2495 1552 L-2477 1548 L-2455 1543 L-2431 1537 L-2416 1532 L-2399 1527 L-2379 1522 L-2360 1517 L-2340 1512 L-2322 1508 L-2302 1503 L-2281 1498 L-2263 1493 L-2244 1488 L-2224 1484 L-2204 1480 L-2186 1477 L-2167 1474 L-2147 1471 L-2128 1468 L-2108 1464 L-2090 1460 L-2070 1457 L-2050 1453 L-2031 1450 L-2012 1446 L-1984 1442 L-1964 1438 L-1936 1433 L-1899 1425 L-1884 1418 L-1872 1411 L-1854 1405 L-1837 1401 L-1817 1397 L-1798 1394 L-1779 1392 L-1759 1389 L-1738 1386 L-1721 1382 L-1703 1378 L-1682 1373 L-1661 1368 L-1644 1362 L-1625 1354 L-1605 1347 L-1584 1341 L-1567 1335 L-1548 1329 L-1526 1324 L-1501 1319 L-1486 1314 L-1469 1310 L-1450 1305 L-1430 1301 L-1412 1297 L-1393 1291 L-1373 1285 L-1351 1280 L-1335 1275 L-1315 1271 L-1295 1266 L-1274 1262 L-1257 1258 L-1238 1254 L-1218 1250 L-1199 1247 L-1180 1243 L-1161 1239 L-1141 1236 L-1121 1232 L-1102 1229 L-1083 1225 L-1056 3828 L-1035 3825 L-1007 3820 L-971 3814 L-957 1202 L-944 1197 L-926 1193 L-908 1190 L-889 1188 L-870 1186 L-851 1183 L-831 1178 L-809 1173 L-793 1167 L-774 1162 L-753 1157 L-733 1150 L-715 1143 L-696 1136 L-676 1129 L-655 1124 L-638 1120 L-619 1116 L-598 1111 L-573 1106 L-558 1099 L-528 1092 L-488 1084 L-465 1077 L-436 1068 L-420 1060 L-406 1054 L-387 1049 L-366 1046 L-345 1042 L-329 1038 L-310 1034 L-290 1031 L-271 1028 L-251 1027 L-232 1024 L-212 1022 L-192 1018 L-174 1015 L-155 1012 L-127 1008 L-107 1005 L-79 1001 L-44 997 L-30 993 L1 989 L19 985 L39 983 L58 980 L77 978 L97 975 L118 973 L135 970 L153 964 L174 954 L195 943 L212 930 L231 919 L251 909 L271 901 L289 894 L308 888 L330 884 L355 879 L370 875 L387 870 L406 864 L426 860 L444 855 L464 850 L483 845 L505 840 L522 834 L541 829 L561 825 L582 821 L599 818 L618 816 L638 812 L657 809 L676 805 L696 801 L715 797 L735 794 L754 791 L773 788 L800 785 L821 782 L891 775 L919 766 L934 759 L948 751 L968 746 L986 742 L1005 738 L1025 733 L1046 729 L1063 726 L1082 723 L1103 721 L1123 718 L1141 714 L1160 710 L1180 705 L1200 700 L1218 695 L1237 691 L1258 688 L1283 685 L1298 682 L1316 678 L1334 673 L1354 668 L1373 663 L1392 658 L1412 655 L1433 652 L1450 649 L1469 646 L1490 642 L1511 639 L1528 635 L1586 632 L1605 628 L1624 625 L1644 622 L1664 619 L1683 617 L1701 615 L1729 612 L1750 610 L1777 608 L1814 606 L1828 603 L1841 600 L1859 598 L1876 597 L1896 595 L1915 593 L1934 592 L1954 591 L1975 589 L1992 588 L2011 586 L2031 584 L2052 582 L2070 580 L2089 577 L2108 574 L2129 572 L2147 569 L2166 566 L2187 564 L2212 561 L2226 560 L2243 557 L2263 555 L2283 553 L2302 550 L2321 547 L2340 542 L2362 539 L2379 535 L2398 532 L2418 531 L2439 529 L2456 527 L2475 526 L2495 524 L2514 522 L2534 521 L2552 520 L2572 518 L2592 517 L2611 516 L2630 514 L2657 513 L2678 511 L2706 509 L2741 506 L2755 504 L2769 502 L2787 501 L2805 499 L2825 497 L2843 495 L2882 494 L2903 492 L2920 491 L2939 489 L2959 486 L2979 483 L2998 479 L3017 476 L3037 474 L3056 473 L3075 470 L3094 468 L3115 466 L3140 465 L3154 463 L3171 461 L3191 459 L3210 457 L3230 454 L3249 452 L3269 450 L3289 448 L3307 446 L3326 444 L3347 441 L3367 439 L3384 437 L3403 435 L3424 433 L3442 432 L3462 431 L3481 429 L3501 427 L3520 425 L3539 424 L3558 422 L3587 421 L3635 419 L3672 417 L3688 415 L3700 413 L3717 412 L3733 410 L3753 409 L3772 408 L3791 407 L3811 405 L3832 405 L3849 404 L3868 404 L3888 403 L3908 402 L3926 401 L3945 400 L3965 399 L3985 397 L4004 396 L4022 394 L4044 392 L4068 390 L4083 387 L4100 385 L4120 382 L4139 378 L4158 374 L4177 369 L4197 365 L4218 360 L4236 357 L4255 353 L4275 349 L4295 346 L4313 342 L4332 338 L4352 334 L4371 331 L4391 328 L4409 325 L4429 322 L4449 318 L4468 314 L4487 309 L4515 305 L4535 302 L4563 299 L4600 296 L4615 293 L4628 291 L4645 288 L4662 286 L4683 283 L4700 281 L4720 279 L4740 277 L4761 274 L4778 271 L4796 268 L4817 264 L4838 261 L4855 258 L4875 255 L4894 253 L4915 250 L4932 247 L4951 244 L4973 240 L4998 237 L5013 233 L5030 229 L5049 225 L5069 222 L5087 218 L5107 214 L5126 210 L5148 206 L5164 201 L5184 197 L5204 193 L5226 190 L5242 187 L5261 185 L5281 183 L5300 182 L5319 179 L5338 176 L5358 173 L5377 170 L5397 167 L5415 164 L5464 161 L5491 158 L5524 154 L5539 150 L5552 147 L5571 143 L5591 141 L5610 138 L5629 135 L5648 132 L5668 130 L5689 127 L5706 125 L5725 123 L5746 120 L5765 117 L5784 115 L5802 111 L5822 107 L5843 104 L5861 101 L5880 98 L5901 95 L5926 92 L5940 88 L5957 84 L5977 80 L5997 76 L6016 71 L6035 67 L6055 64 L6076 60 L6093 57 L6113 54 L6132 51 L6153 49 L6170 46 L6189 44 L6209 42 L6228 39 L6248 38 L6267 35 L6287 32 L6306 30 L6325 27 L6344 25 L6371 21 L6392 19 L6420 16 L6454 13 L6468 10 L6480 8 L6500 5" />
</svg>
