<svg xmlns="http://www.w3.org/2000/svg" version="1.1" viewBox="0 0 6500 1000">
	<path fill="none" stroke="gold" stroke-width="125" stroke-linecap="round" stroke-linejoin="round" d="M0 1020  L-715739 1020 L-713135 1020 L-711467 1020 L-693137 1020 L-692967 1020 L-685809 1020 L-685776 1020 L-672345 1020 L-669423 1020 L-656083 1020 L-651914 1019 L-650753 1019 L-650134 1019 L-648122 1018 L-644351 1018 L-643751 1018 L-643422 1018 L-643209 1018 L-642667 1018 L-641429 1017 L-640250 1017 L-637386 1016 L-636864 1015 L-632008 1015 L-629071 1015 L-629028 1015 L-628720 1015 L-628468 1015 L-625873 1015 L-621617 1015 L-621599 1015 L-620363 1015 L-618485 1015 L-616532 1014 L-615584 1014 L-615313 1014 L-615003 1014 L-614905 1014 L-614075 1014 L-612044 1014 L-611753 1013 L-609607 1013 L-609452 1013 L-605795 1012 L-605544 1012 L-605446 1012 L-604928 1013 L-602777 1013 L-601848 1013 L-600322 1014 L-599083 1014 L-597536 1014 L-594575 1013 L-593453 1013 L-593144 1013 L-591932 1013 L-588926 1014 L-588906 1014 L-588559 1014 L-588346 1014 L-588219 1013 L-587978 1013 L-587940 1012 L-587920 1012 L-587901 1012 L-587842 1012 L-587783 1012 L-587765 1012 L-587322 1012 L-586083 1011 L-584537 1011 L-581149 1011 L-575423 1011 L-575222 1011 L-573586 1011 L-571864 1011 L-570432 1011 L-570199 1011 L-569484 1011 L-563352 1011 L-562984 1010 L-562830 1010 L-562251 1010 L-561959 1010 L-560991 1010 L-560682 1010 L-560083 1010 L-558477 1010 L-557741 1010 L-557432 1010 L-556663 1010 L-554627 1009 L-554202 1009 L-553389 1009 L-545961 1009 L-545438 1009 L-545264 1009 L-544529 1009 L-542962 1009 L-542556 1008 L-540331 1008 L-539383 1008 L-538958 1008 L-538628 1008 L-537584 1008 L-535476 1008 L-535224 1008 L-534605 1008 L-533792 1008 L-531684 1008 L-531636 1007 L-529707 1007 L-529382 1007 L-529247 1007 L-528743 1007 L-527331 1007 L-526828 1006 L-526306 1006 L-522746 1006 L-522011 1006 L-519586 1006 L-518297 1006 L-517890 1005 L-514738 1005 L-514583 1005 L-514563 1006 L-514196 1006 L-512938 1006 L-512223 1006 L-511333 1006 L-510926 1006 L-509997 1006 L-508889 1006 L-508585 1006 L-502337 1006 L-501389 1006 L-499763 1006 L-499261 1006 L-495586 1006 L-494753 1007 L-490800 1007 L-489388 1006 L-486899 1006 L-486223 1006 L-486184 1006 L-485313 1006 L-482102 1006 L-479239 1006 L-478271 1006 L-477149 1006 L-477130 1006 L-475505 1005 L-475041 1005 L-474949 1005 L-468580 1005 L-467631 1005 L-465174 1005 L-464302 1005 L-463066 1005 L-461065 1005 L-460667 1004 L-459231 1004 L-457205 1004 L-456992 1004 L-455811 1004 L-454303 1004 L-454283 1004 L-452271 1004 L-451401 1004 L-450530 1004 L-449945 1003 L-449408 1003 L-448751 1003 L-447512 1003 L-446952 1003 L-445771 1003 L-444533 1003 L-444495 1003 L-444108 1003 L-443566 1003 L-442792 1002 L-441670 1002 L-439581 1002 L-439247 1002 L-438962 1002 L-438033 1002 L-437550 1002 L-436815 1002 L-433183 1002 L-432056 1002 L-431901 1001 L-430875 1001 L-427160 1001 L-425943 1001 L-424124 1001 L-421339 1001 L-420777 1001 L-416889 1001 L-414413 1001 L-413078 1001 L-412574 1001 L-412091 1001 L-409402 1001 L-405630 1001 L-403173 1001 L-401993 1001 L-401354 1000 L-398995 1000 L-398917 1000 L-397870 1000 L-397776 1000 L-397273 1000 L-396828 1000 L-396770 1000 L-396557 1000 L-393597 1000 L-390889 1000 L-390735 1000 L-387214 1000 L-386691 1000 L-385724 999 L-385374 999 L-384331 999 L-383402 999 L-382977 999 L-381468 999 L-380501 999 L-380482 999 L-378586 994 L-378470 988 L-378422 983 L-378397 978 L-375393 978 L-373362 978 L-371602 978 L-371235 977 L-370789 977 L-370422 977 L-370008 977 L-368023 977 L-367810 977 L-367655 977 L-366050 977 L-364928 977 L-363980 977 L-362722 977 L-361078 977 L-359898 976 L-353309 976 L-353262 976 L-352856 976 L-351811 976 L-351676 976 L-349993 976 L-349973 976 L-348637 976 L-347401 976 L-347246 976 L-346872 975 L-346666 975 L-346357 975 L-345583 975 L-343261 975 L-342604 975 L-340476 975 L-338753 975 L-338560 975 L-336006 975 L-335730 975 L-335542 974 L-334709 974 L-333937 974 L-333239 974 L-328238 974 L-327862 974 L-323610 974 L-323122 981 L-323103 981 L-323024 981 L-322949 981 L-322929 974 L-322116 974 L-321363 973 L-320143 973 L-318712 973 L-318615 973 L-318441 973 L-318086 973 L-316777 973 L-314920 973 L-313218 973 L-312715 973 L-312449 973 L-312056 973 L-311922 973 L-311012 972 L-310636 972 L-309707 972 L-309368 972 L-309329 972 L-309291 972 L-307375 972 L-307202 972 L-305673 972 L-305345 972 L-305229 972 L-304822 972 L-304473 972 L-302830 972 L-302279 972 L-302036 972 L-301494 971 L-300663 971 L-300121 971 L-298587 971 L-298495 971 L-298458 971 L-298322 971 L-297935 971 L-296910 971 L-295033 971 L-294937 971 L-294337 973 L-293970 975 L-293485 978 L-293447 980 L-292673 980 L-292616 980 L-292441 980 L-292248 980 L-290642 980 L-290622 980 L-290467 980 L-290352 980 L-289172 980 L-289017 980 L-288350 980 L-285902 986 L-283387 992 L-280718 998 L-273018 1004 L-267351 1004 L-265136 1004 L-265113 1004 L-264139 1005 L-264119 1005 L-263255 1005 L-260515 1005 L-254717 1003 L-254563 1003 L-251777 1003 L-238169 1003 L-237423 1003 L-233012 1003 L-216666 1003 L-216434 1003 L-215897 1002 L-207437 1002 L-198732 1002 L-198519 1002 L-196547 1002 L-193761 1002 L-189273 1002 L-189118 1002 L-188949 1002 L-188809 1002 L-188518 1002 L-188480 1002 L-188209 1002 L-188037 1002 L-187627 1002 L-186506 1002 L-185326 1002 L-184049 1001 L-181185 1001 L-178265 1001 L-176273 1001 L-174726 1001 L-171688 1001 L-162363 1001 L-161839 1001 L-156115 1001 L-154608 1001 L-153794 1001 L-152110 1001 L-151389 1001 L-151221 1001 L-150176 1000 L-148108 1000 L-146746 1000 L-142303 1000 L-142206 1000 L-142167 1000 L-142148 1000 L-141316 1000 L-141238 1000 L-138665 1000 L-135416 1000 L-135261 1000 L-134313 1000 L-132572 999 L-131857 1000 L-128316 1000 L-121738 1001 L-120321 1001 L-120300 1001 L-119350 1001 L-115876 1001 L-115122 1001 L-114561 1001 L-113779 1001 L-106274 1001 L-104676 1001 L-103102 1000 L-99917 1000 L-95584 1000 L-87014 1000 L-78268 1000 L-75194 1000 L-71928 1000 L-71381 1000 L-64244 1000 L-58576 1000 L-44512 1000 L-38501 1000 L-33794 1000 L-29791 1000 L-24684 1000 L-14970 1000 L600 999 L3683 999 L3985 967 L4005 928 L4023 883 L4043 833 L4063 811 L4082 791 L4101 774 L4128 756 L4149 739 L4177 721 L4212 702 L4226 685 L4239 671 L4258 659 L4276 650 L4296 641 L4314 632 L4334 623 L4354 614 L4375 604 L4392 595 L4410 586 L4431 577 L4451 569 L4469 559 L4488 549 L4508 539 L4528 529 L4546 520 L4565 511 L4586 502 L4611 493 L4626 485 L4643 477 L4663 469 L4682 461 L4701 452 L4720 443 L4740 435 L4761 427 L4778 419 L4797 412 L4818 405 L4838 398 L4856 392 L4875 387 L4895 382 L4913 376 L4933 371 L4952 367 L4972 363 L4992 359 L5011 355 L5029 352 L5057 347 L5078 342 L5105 336 L5139 330 L5154 325 L5167 321 L5185 317 L5204 313 L5224 310 L5243 305 L5262 301 L5282 297 L5303 293 L5320 290 L5339 286 L5359 282 L5379 278 L5398 273 L5416 267 L5436 262 L5456 256 L5475 250 L5494 245 L5515 238 L5539 231 L5554 224 L5571 218 L5591 211 L5610 205 L5630 198 L5648 191 L5669 184 L5689 178 L5707 171 L5726 165 L5746 159 L5766 153 L5784 147 L5803 142 L5823 136 L5842 132 L5862 127 L5881 122 L5900 118 L5920 113 L5939 108 L5958 104 L5987 99 L6007 95 L6034 90 L6071 85 L6087 80 L6099 75 L6116 71 L6133 67 L6153 64 L6171 61 L6191 59 L6211 56 L6231 53 L6249 50 L6267 47 L6288 44 L6308 41 L6326 37 L6345 33 L6365 29 L6385 25 L6403 21 L6422 17 L6443 13 L6468 8 L6482 4 L6500 0" />
</svg>
