<svg xmlns="http://www.w3.org/2000/svg" version="1.1" viewBox="0 0 6500 1000">
	<path fill="none" stroke="gold" stroke-width="125" stroke-linecap="round" stroke-linejoin="round" d="M0 3652  L-725045 3652 L-722441 3652 L-720773 3652 L-702443 3652 L-702273 3651 L-695115 3651 L-695082 3651 L-681651 3651 L-678729 3651 L-665388 3650 L-661219 3650 L-660059 3649 L-659440 3648 L-657428 3648 L-653657 3647 L-653056 3647 L-652728 3647 L-652515 3646 L-651973 3646 L-650735 3645 L-649556 3643 L-646692 3642 L-646169 3641 L-641314 3640 L-638377 3640 L-638334 3640 L-638025 3639 L-637774 3639 L-635179 3639 L-630923 3639 L-630905 3639 L-629668 3639 L-627791 3639 L-625837 3638 L-624889 3638 L-624619 3638 L-624309 3638 L-624211 3637 L-623380 3637 L-621350 3638 L-621059 3636 L-618913 3636 L-618757 3635 L-615101 3634 L-614850 3634 L-614751 3634 L-614234 3634 L-612083 3635 L-611154 3636 L-609628 3637 L-608389 3637 L-606842 3637 L-603880 3636 L-602759 3636 L-602449 3636 L-601238 3636 L-598231 3637 L-598212 3637 L-597864 3637 L-597651 3637 L-597525 3635 L-597284 3634 L-597246 3634 L-597226 3634 L-597207 3633 L-597148 3633 L-597089 3633 L-597071 3632 L-596628 3632 L-595389 3632 L-593843 3631 L-590455 3631 L-584729 3631 L-584527 3631 L-582892 3630 L-581170 3630 L-579737 3630 L-579505 3630 L-578790 3630 L-572658 3630 L-572290 3629 L-572136 3629 L-571557 3629 L-571265 3628 L-570297 3628 L-569988 3628 L-569389 3627 L-567782 3627 L-567047 3627 L-566737 3627 L-565969 3627 L-563933 3627 L-563508 3627 L-562695 3627 L-555267 3626 L-554744 3626 L-554570 3626 L-553835 3625 L-552267 3625 L-551862 3625 L-549637 3624 L-548689 3624 L-548264 3624 L-547933 3624 L-546890 3624 L-544782 3624 L-544529 3623 L-543910 3623 L-543098 3623 L-540990 3622 L-540941 3622 L-539013 3622 L-538687 3621 L-538552 3621 L-538049 3621 L-536637 3621 L-536134 3620 L-535612 3620 L-532052 3619 L-531317 3618 L-528892 3618 L-527603 3618 L-527196 3618 L-524043 3618 L-523889 3618 L-523868 3618 L-523502 3618 L-522244 3618 L-521529 3618 L-520639 3618 L-520232 3618 L-519303 3618 L-518194 3618 L-517891 3619 L-511642 3619 L-510695 3619 L-509069 3620 L-508567 3620 L-504891 3620 L-504059 3620 L-500106 3620 L-498694 3620 L-496205 3620 L-495528 3619 L-495490 3619 L-494619 3619 L-491408 3619 L-488545 3619 L-487577 3619 L-486455 3618 L-486436 3618 L-484811 3618 L-484347 3617 L-484255 3617 L-477886 3617 L-476937 3617 L-474480 3616 L-473608 3616 L-472372 3616 L-470371 3616 L-469973 3615 L-468537 3615 L-466511 3615 L-466297 3615 L-465117 3614 L-463609 3614 L-463589 3614 L-461576 3614 L-460707 3614 L-459836 3613 L-459251 3613 L-458714 3613 L-458056 3612 L-456818 3612 L-456258 3612 L-455076 3612 L-453839 3612 L-453800 3611 L-453413 3611 L-452872 3611 L-452098 3611 L-450976 3611 L-448887 3610 L-448553 3610 L-448267 3610 L-447339 3609 L-446856 3609 L-446120 3609 L-442489 3609 L-441361 3609 L-441207 3608 L-440181 3608 L-436466 3608 L-435249 3608 L-433430 3607 L-430644 3607 L-430083 3607 L-426195 3607 L-423719 3607 L-422384 3607 L-421880 3606 L-421397 3606 L-418708 3606 L-414936 3606 L-412479 3606 L-411299 3606 L-410660 3606 L-408300 3606 L-408223 3606 L-407176 3606 L-407082 3605 L-406579 3605 L-406134 3605 L-406076 3605 L-405862 3605 L-402903 3605 L-400195 3605 L-400040 3605 L-396520 3604 L-395997 3604 L-395029 3604 L-394680 3604 L-393637 3603 L-392708 3603 L-392282 3603 L-390773 3603 L-389806 3603 L-389787 3602 L-387891 3590 L-387775 3578 L-387728 3566 L-387703 3554 L-384699 3553 L-382668 3553 L-380907 3553 L-380540 3553 L-380095 3552 L-379728 3552 L-379314 3552 L-377329 3552 L-377116 3552 L-376961 3552 L-375356 3552 L-374234 3551 L-373286 3551 L-372028 3551 L-370384 3551 L-369204 3550 L-362615 3550 L-362568 3550 L-362162 3550 L-361117 3550 L-360982 3550 L-359299 3549 L-359279 3549 L-357942 3549 L-356706 3549 L-356552 3548 L-356178 3548 L-355972 3548 L-355662 3548 L-354889 3548 L-352567 3547 L-351909 3547 L-349781 3547 L-348059 3547 L-347866 3547 L-345312 3546 L-345036 3546 L-344848 3546 L-344015 3546 L-343243 3545 L-342545 3545 L-337544 3545 L-337168 3545 L-332915 3545 L-332428 3561 L-332409 3561 L-332330 3561 L-332255 3561 L-332235 3544 L-331422 3544 L-330668 3543 L-329449 3543 L-328017 3543 L-327921 3543 L-327747 3543 L-327392 3543 L-326083 3543 L-324226 3542 L-322523 3542 L-322021 3542 L-321755 3542 L-321362 3542 L-321228 3541 L-320318 3541 L-319942 3541 L-319013 3541 L-318674 3541 L-318634 3541 L-318597 3541 L-316681 3541 L-316508 3541 L-314979 3541 L-314651 3540 L-314535 3540 L-314127 3540 L-313779 3540 L-312136 3539 L-311585 3539 L-311342 3539 L-310800 3539 L-309969 3539 L-309427 3538 L-307893 3538 L-307800 3538 L-307764 3538 L-307628 3538 L-307240 3537 L-306216 3537 L-304339 3537 L-304243 3537 L-303643 3542 L-303275 3548 L-302791 3554 L-302753 3559 L-301979 3560 L-301921 3559 L-301747 3559 L-301553 3559 L-299948 3559 L-299928 3558 L-299773 3559 L-299658 3559 L-298478 3559 L-298323 3560 L-297656 3560 L-295208 3573 L-292693 3587 L-290023 3600 L-282324 3614 L-276656 3614 L-274442 3613 L-274419 3613 L-273445 3617 L-273425 3617 L-272561 3616 L-269821 3616 L-264022 3613 L-263869 3612 L-261083 3612 L-247475 3612 L-246729 3612 L-242318 3611 L-225972 3611 L-225740 3611 L-225203 3611 L-216743 3611 L-208038 3610 L-207825 3610 L-205853 3610 L-203067 3610 L-198579 3610 L-198424 3610 L-198255 3610 L-198115 3610 L-197824 3610 L-197785 3609 L-197515 3609 L-197343 3609 L-196933 3609 L-195812 3609 L-194632 3609 L-193355 3608 L-190491 3608 L-187571 3608 L-185579 3608 L-184031 3608 L-180993 3607 L-171669 3607 L-171145 3607 L-165421 3607 L-163914 3607 L-163100 3607 L-161416 3607 L-160695 3606 L-160526 3606 L-159481 3606 L-157414 3606 L-156052 3606 L-151609 3606 L-151511 3606 L-151473 3605 L-151454 3605 L-150621 3605 L-150544 3605 L-147971 3605 L-144722 3604 L-144567 3604 L-143619 3604 L-141878 3604 L-141162 3605 L-137622 3606 L-131044 3606 L-129627 3608 L-129606 3608 L-128656 3607 L-125181 3607 L-124428 3607 L-123866 3607 L-123084 3607 L-115580 3606 L-113982 3606 L-112408 3606 L-109222 3606 L-104889 3606 L-96320 3606 L-87573 3606 L-84500 3606 L-81233 3605 L-80687 3605 L-73550 3605 L-67882 3605 L-53818 3605 L-47806 3605 L-43100 3605 L-39097 3605 L-33989 3604 L-24275 3604 L-8705 3604 L-5622 3604 L-5320 3529 L-5300 3438 L-5281 3334 L-5262 3218 L-5242 3166 L-5223 3121 L-5204 3080 L-5176 3039 L-5156 3000 L-5128 2959 L-5092 2913 L-5079 2874 L-5066 2841 L-5047 2813 L-5029 2793 L-5009 2772 L-4991 2751 L-4971 2730 L-4951 2709 L-4930 2687 L-4913 2665 L-4895 2644 L-4874 2624 L-4854 2604 L-4836 2582 L-4817 2559 L-4797 2536 L-4777 2513 L-4759 2491 L-4740 2470 L-4718 2450 L-4694 2429 L-4679 2410 L-4662 2391 L-4642 2372 L-4623 2354 L-4604 2333 L-4585 2313 L-4565 2293 L-4544 2274 L-4526 2256 L-4507 2239 L-4487 2223 L-4466 2208 L-4449 2195 L-4430 2182 L-4410 2170 L-4391 2158 L-4372 2146 L-4353 2136 L-4333 2127 L-4313 2118 L-4294 2109 L-4275 2100 L-4248 2089 L-4227 2078 L-4199 2065 L-4165 2051 L-4151 2039 L-4138 2029 L-4119 2020 L-4100 2012 L-4080 2003 L-4062 1993 L-4043 1984 L-4023 1974 L-4002 1965 L-3985 1957 L-3966 1948 L-3946 1939 L-3926 1929 L-3907 1917 L-3889 1905 L-3869 1892 L-3849 1879 L-3830 1866 L-3811 1852 L-3790 1837 L-3766 1821 L-3751 1805 L-3734 1790 L-3714 1775 L-3695 1760 L-3675 1745 L-3656 1728 L-3636 1712 L-3616 1697 L-3598 1682 L-3579 1667 L-3559 1653 L-3538 1639 L-3521 1626 L-3502 1614 L-3482 1601 L-3463 1591 L-3443 1580 L-3424 1569 L-3404 1558 L-3385 1547 L-3366 1536 L-3347 1525 L-3318 1514 L-3298 1504 L-3271 1494 L-3233 1481 L-3218 1469 L-3206 1458 L-3189 1448 L-3172 1440 L-3152 1434 L-3133 1427 L-3114 1421 L-3094 1415 L-3073 1408 L-3056 1402 L-3037 1394 L-3017 1387 L-2997 1379 L-2979 1370 L-2960 1362 L-2940 1352 L-2920 1342 L-2901 1332 L-2883 1323 L-2862 1314 L-2837 1304 L-2823 1294 L-2805 1284 L-2785 1274 L-2766 1265 L-2747 1255 L-2728 1244 L-2708 1234 L-2687 1224 L-2669 1214 L-2650 1204 L-2630 1195 L-2610 1187 L-2592 1179 L-2573 1171 L-2553 1162 L-2534 1154 L-2515 1146 L-2496 1138 L-2476 1130 L-2457 1123 L-2437 1115 L-2418 1107 L-2390 1100 L-2370 1092 L-2342 1083 L-2306 1071 L-2292 1059 L-2279 1048 L-2261 1039 L-2243 1033 L-2223 1027 L-2205 1019 L-2185 1011 L-2165 1003 L-2144 993 L-2126 984 L-2109 974 L-2088 963 L-2068 952 L-2050 940 L-2031 927 L-2011 915 L-1991 903 L-1973 892 L-1954 883 L-1933 876 L-1908 870 L-1893 864 L-1876 858 L-1857 852 L-1837 845 L-1818 839 L-1799 832 L-1779 826 L-1758 821 L-1741 817 L-1722 811 L-1701 804 L-1680 795 L-1663 787 L-1644 781 L-1624 776 L-1606 772 L-1586 769 L-1567 765 L-1547 761 L-1528 756 L-1508 752 L-1490 748 L-1462 743 L-1441 739 L-1414 735 L-1379 729 L-1365 725 L-1352 721 L-1333 717 L-1314 714 L-1295 711 L-1276 707 L-1257 704 L-1237 701 L-1216 698 L-1199 695 L-1180 691 L-1159 688 L-1139 684 L-1121 680 L-1103 676 L-1083 674 L-1062 670 L-1044 667 L-1025 664 L-1004 661 L-979 658 L-965 655 L-948 652 L-928 649 L-909 646 L-889 643 L-870 639 L-851 636 L-830 632 L-812 629 L-793 626 L-773 623 L-752 620 L-735 617 L-716 614 L-696 612 L-677 609 L-657 606 L-639 604 L-619 602 L-599 600 L-580 598 L-561 602 L-532 605 L-513 608 L-485 611 L-447 608 L-432 606 L-419 603 L-402 602 L-386 600 L-366 598 L-348 596 L-328 594 L-308 593 L-287 591 L-270 589 L-252 588 L-231 586 L-211 584 L-193 582 L-174 580 L-154 578 L-134 576 L-116 574 L-97 573 L-76 571 L-51 570 L-36 568 L-19 566 L0 564 L19 562 L38 560 L57 558 L77 556 L98 553 L115 550 L134 548 L155 545 L175 543 L193 541 L212 538 L232 536 L251 534 L270 531 L289 529 L309 526 L329 524 L348 522 L366 521 L394 518 L415 516 L443 514 L477 511 L491 509 L504 507 L523 505 L542 503 L562 501 L580 499 L600 497 L619 495 L640 493 L657 491 L676 489 L697 487 L717 484 L735 482 L754 478 L773 475 L794 472 L812 469 L831 467 L852 464 L877 461 L892 458 L909 455 L928 452 L948 449 L967 446 L986 443 L1006 440 L1027 438 L1044 435 L1063 432 L1084 430 L1104 427 L1121 425 L1140 423 L1160 422 L1179 420 L1199 418 L1218 416 L1237 415 L1257 413 L1276 412 L1295 411 L1323 409 L1343 407 L1371 406 L1407 403 L1420 400 L1433 397 L1452 394 L1470 392 L1490 391 L1509 389 L1528 387 L1548 385 L1569 383 L1586 381 L1605 379 L1625 377 L1645 375 L1663 372 L1682 370 L1702 367 L1722 365 L1740 363 L1759 361 L1781 359 L1806 357 L1820 356 L1837 354 L1857 352 L1876 350 L1895 347 L1914 345 L1934 341 L1955 338 L1973 335 L1992 333 L2012 330 L2033 328 L2050 326 L2069 325 L2089 323 L2108 322 L2127 321 L2146 319 L2166 317 L2186 316 L2205 315 L2224 313 L2251 312 L2272 311 L2300 309 L2334 308 L2348 307 L2361 305 L2380 304 L2399 303 L2418 302 L2437 301 L2456 300 L2476 299 L2497 298 L2514 297 L2533 295 L2553 294 L2573 293 L2592 292 L2610 291 L2630 290 L2651 289 L2669 288 L2688 287 L2709 286 L2734 285 L2748 284 L2765 283 L2785 282 L2804 281 L2824 279 L2843 279 L2863 277 L2883 275 L2901 273 L2920 270 L2940 268 L2961 266 L2979 265 L2998 263 L3017 261 L3036 260 L3056 258 L3075 257 L3095 255 L3114 254 L3133 253 L3152 252 L3181 251 L3228 250 L3265 249 L3280 247 L3293 246 L3310 245 L3327 245 L3347 244 L3366 243 L3385 242 L3405 241 L3425 241 L3443 240 L3462 239 L3482 239 L3502 238 L3520 237 L3539 236 L3559 235 L3579 234 L3597 232 L3616 231 L3638 229 L3662 227 L3677 226 L3694 224 L3714 222 L3733 221 L3752 219 L3771 218 L3791 216 L3812 214 L3830 213 L3849 211 L3869 210 L3889 208 L3907 207 L3926 206 L3946 205 L3965 204 L3984 203 L4003 202 L4023 200 L4043 199 L4062 198 L4081 197 L4109 195 L4129 194 L4157 192 L4194 190 L4208 187 L4221 185 L4239 183 L4256 182 L4276 180 L4294 179 L4314 178 L4334 178 L4355 177 L4372 175 L4390 174 L4411 172 L4431 170 L4449 168 L4468 166 L4488 163 L4509 161 L4526 159 L4545 158 L4566 156 L4591 154 L4606 152 L4624 151 L4642 149 L4663 148 L4681 147 L4700 145 L4720 143 L4742 141 L4758 139 L4778 138 L4798 136 L4819 135 L4836 134 L4855 132 L4874 131 L4894 130 L4913 129 L4932 127 L4952 126 L4972 125 L4991 124 L5009 123 L5037 997 L5058 996 L5085 994 L5121 992 L5135 115 L5149 113 L5167 112 L5185 111 L5204 110 L5223 109 L5242 108 L5262 107 L5283 105 L5300 103 L5319 101 L5340 100 L5360 97 L5378 95 L5397 93 L5416 90 L5437 89 L5455 87 L5474 86 L5495 84 L5520 82 L5535 80 L5565 78 L5604 75 L5627 73 L5657 70 L5673 67 L5687 65 L5706 63 L5727 62 L5747 61 L5764 60 L5783 59 L5803 57 L5822 57 L5842 56 L5861 55 L5880 54 L5901 53 L5919 52 L5938 51 L5966 50 L5986 49 L6014 47 L6049 46 L6063 45 L6095 43 L6113 42 L6133 41 L6152 40 L6171 40 L6191 39 L6212 38 L6229 37 L6247 35 L6268 32 L6289 28 L6306 23 L6325 20 L6345 16 L6365 14 L6383 11 L6402 9 L6424 8 L6449 6 L6464 5 L6481 3 L6500 1" />
</svg>
