<svg xmlns="http://www.w3.org/2000/svg" version="1.1" viewBox="0 0 6500 1000">
	<path fill="none" stroke="gold" stroke-width="125" stroke-linecap="round" stroke-linejoin="round" d="M0 62535  L-200350 62535 L-197746 62238 L-196078 61940 L-177748 61345 L-177578 60750 L-170420 60154 L-170387 60154 L-156956 59857 L-154034 60154 L-140693 59261 L-136524 58071 L-135364 56583 L-134745 55095 L-132733 54202 L-128962 53607 L-128361 53011 L-128033 52416 L-127820 51821 L-127278 51226 L-126040 48845 L-124861 46464 L-121997 44083 L-121474 41702 L-116619 41107 L-113682 40511 L-113639 39916 L-113330 39321 L-113079 38726 L-110484 38130 L-106228 38130 L-106210 38130 L-104973 38130 L-103096 38130 L-101142 37535 L-100194 36940 L-99924 36345 L-99614 36047 L-99516 35750 L-98685 35750 L-96655 36047 L-96364 33369 L-94218 32178 L-94062 30392 L-90406 28607 L-90155 29500 L-90056 29202 L-89539 30095 L-87388 31583 L-86459 33071 L-84933 34559 L-83694 34559 L-82147 34261 L-79185 33666 L-78064 33071 L-77754 32476 L-76543 32178 L-73536 35452 L-73517 35154 L-73169 34857 L-72956 34559 L-72830 30392 L-72589 29797 L-72551 29202 L-72531 28607 L-72512 28011 L-72453 27416 L-72394 26821 L-72376 26226 L-71933 25630 L-70694 25035 L-69148 24440 L-65760 23845 L-60034 23547 L-59832 23250 L-58197 22952 L-56475 22654 L-55043 22357 L-54810 22059 L-54095 21761 L-47963 21464 L-47595 20869 L-47441 20273 L-46862 19678 L-46570 19083 L-45602 18488 L-45293 17892 L-44694 17297 L-43087 17297 L-42352 17297 L-42042 17595 L-41274 17595 L-39238 17000 L-38813 16404 L-38000 16107 L-30572 15511 L-30049 14916 L-29875 14321 L-29140 13726 L-27572 13130 L-27167 12833 L-24942 12238 L-23994 11940 L-23569 11642 L-23238 11642 L-22195 11345 L-20087 10750 L-19834 10154 L-19215 9559 L-18403 9261 L-16295 8666 L-16246 8071 L-14318 7476 L-13992 6880 L-13857 6285 L-13354 5988 L-11942 5392 L-11439 4202 L-10917 3309 L-7357 2119 L-6622 928 L-4197 928 L-2908 333 L-2501 35 L651 35 L805 35 L826 333 L1192 333 L2450 630 L3165 928 L4055 928 L4462 928 L5391 928 L6500 630" />
</svg>
