<svg xmlns="http://www.w3.org/2000/svg" version="1.1" viewBox="0 0 6500 1000">
	<path fill="none" stroke="gold" stroke-width="125" stroke-linecap="round" stroke-linejoin="round" d="M0 1016  L-717715 1016 L-715111 1016 L-713443 1016 L-695113 1016 L-694943 1016 L-687785 1015 L-687752 1015 L-674321 1015 L-671399 1015 L-658058 1015 L-653889 1015 L-652729 1015 L-652110 1015 L-650098 1014 L-646326 1014 L-645726 1014 L-645398 1014 L-645185 1014 L-644643 1014 L-643405 1013 L-642226 1013 L-639362 1012 L-638839 1012 L-633984 1012 L-631047 1012 L-631004 1012 L-630695 1012 L-630443 1011 L-627848 1011 L-623593 1011 L-623575 1011 L-622338 1011 L-620461 1011 L-618507 1011 L-617559 1011 L-617289 1011 L-616979 1011 L-616881 1011 L-616050 1011 L-614019 1011 L-613729 1010 L-611583 1010 L-611427 1010 L-607771 1010 L-607520 1010 L-607421 1010 L-606904 1010 L-604753 1010 L-603824 1010 L-602298 1011 L-601059 1011 L-599512 1011 L-596550 1011 L-595428 1010 L-595119 1010 L-593908 1010 L-590901 1011 L-590882 1011 L-590534 1011 L-590321 1011 L-590195 1010 L-589953 1010 L-589916 1010 L-589896 1010 L-589877 1009 L-589818 1009 L-589759 1009 L-589741 1009 L-589298 1009 L-588059 1009 L-586513 1009 L-583125 1009 L-577399 1009 L-577197 1009 L-575561 1009 L-573839 1008 L-572407 1008 L-572175 1008 L-571460 1008 L-565328 1008 L-564960 1008 L-564805 1008 L-564227 1008 L-563934 1008 L-562967 1008 L-562658 1008 L-562059 1007 L-560452 1007 L-559717 1007 L-559407 1008 L-558639 1008 L-556603 1007 L-556178 1007 L-555365 1007 L-547936 1007 L-547413 1007 L-547240 1007 L-546505 1007 L-544937 1007 L-544532 1007 L-542307 1007 L-541359 1006 L-540934 1006 L-540603 1006 L-539560 1006 L-537451 1006 L-537199 1006 L-536580 1006 L-535768 1006 L-533660 1006 L-533611 1006 L-531683 1006 L-531357 1006 L-531222 1005 L-530719 1005 L-529306 1005 L-528804 1005 L-528282 1005 L-524722 1005 L-523987 1004 L-521562 1004 L-520273 1004 L-519866 1004 L-516713 1004 L-516559 1004 L-516538 1004 L-516172 1004 L-514913 1004 L-514198 1004 L-513308 1004 L-512902 1004 L-511973 1004 L-510864 1004 L-510561 1005 L-504312 1005 L-503365 1005 L-501739 1005 L-501237 1005 L-497561 1005 L-496729 1005 L-492776 1005 L-491364 1005 L-488875 1005 L-488198 1005 L-488160 1005 L-487289 1005 L-484078 1005 L-481214 1005 L-480246 1005 L-479125 1004 L-479106 1004 L-477481 1004 L-477017 1004 L-476925 1004 L-470556 1004 L-469607 1004 L-467150 1004 L-466278 1004 L-465042 1004 L-463040 1004 L-462643 1003 L-461207 1003 L-459180 1003 L-458967 1003 L-457787 1003 L-456279 1003 L-456259 1003 L-454246 1003 L-453377 1003 L-452506 1003 L-451921 1003 L-451384 1003 L-450726 1002 L-449488 1002 L-448927 1002 L-447746 1002 L-446509 1002 L-446470 1002 L-446083 1002 L-445542 1002 L-444768 1002 L-443646 1002 L-441556 1002 L-441223 1002 L-440937 1002 L-440009 1001 L-439526 1001 L-438790 1001 L-435159 1001 L-434031 1001 L-433877 1001 L-432851 1001 L-429136 1001 L-427919 1001 L-426100 1001 L-423314 1001 L-422753 1001 L-418865 1001 L-416388 1001 L-415054 1001 L-414550 1000 L-414067 1000 L-411378 1000 L-407606 1000 L-405149 1000 L-403969 1000 L-403330 1000 L-400970 1000 L-400893 1000 L-399845 1000 L-399752 1000 L-399249 1000 L-398803 1000 L-398746 1000 L-398532 1000 L-395573 1000 L-392865 1000 L-392710 1000 L-389189 1000 L-388666 1000 L-387699 1000 L-387350 999 L-386307 999 L-385378 999 L-384952 999 L-383443 999 L-382476 999 L-382457 999 L-380561 995 L-380445 991 L-380397 987 L-380373 983 L-377369 983 L-375338 983 L-373577 982 L-373210 982 L-372765 982 L-372398 982 L-371984 982 L-369999 982 L-369786 982 L-369631 982 L-368026 982 L-366904 982 L-365955 982 L-364698 982 L-363054 982 L-361874 982 L-355284 982 L-355238 982 L-354832 981 L-353787 981 L-353652 981 L-351969 981 L-351949 981 L-350612 981 L-349376 981 L-349222 981 L-348848 981 L-348642 981 L-348332 981 L-347558 981 L-345237 981 L-344579 981 L-342451 980 L-340729 980 L-340535 980 L-337982 980 L-337706 980 L-337518 980 L-336685 980 L-335913 980 L-335215 980 L-330214 980 L-329838 980 L-325585 980 L-325098 985 L-325079 985 L-325000 985 L-324925 985 L-324905 979 L-324092 979 L-323338 979 L-322119 979 L-320687 979 L-320591 979 L-320417 979 L-320062 979 L-318753 979 L-316896 979 L-315193 979 L-314690 979 L-314425 979 L-314032 979 L-313898 979 L-312988 979 L-312612 978 L-311683 978 L-311344 978 L-311304 978 L-311267 978 L-309351 978 L-309178 978 L-307649 978 L-307321 978 L-307204 978 L-306797 978 L-306449 978 L-304806 978 L-304255 978 L-304011 978 L-303470 978 L-302639 978 L-302097 978 L-300563 977 L-300470 977 L-300433 977 L-300297 977 L-299910 977 L-298885 977 L-297009 977 L-296913 977 L-296312 979 L-295945 981 L-295461 983 L-295423 985 L-294649 985 L-294591 985 L-294417 985 L-294223 984 L-292618 984 L-292598 984 L-292443 984 L-292327 984 L-291148 985 L-290993 985 L-290326 985 L-287878 989 L-285363 994 L-282693 998 L-274994 1003 L-269326 1003 L-267112 1003 L-267088 1003 L-266115 1004 L-266095 1004 L-265231 1004 L-262491 1004 L-256692 1003 L-256539 1002 L-253753 1002 L-240145 1002 L-239399 1002 L-234988 1002 L-218642 1002 L-218410 1002 L-217873 1002 L-209413 1002 L-200708 1002 L-200495 1002 L-198523 1002 L-195736 1002 L-191249 1002 L-191094 1002 L-190925 1002 L-190785 1002 L-190494 1002 L-190455 1001 L-190185 1001 L-190013 1001 L-189603 1001 L-188482 1001 L-187302 1001 L-186025 1001 L-183161 1001 L-180241 1001 L-178249 1001 L-176701 1001 L-173663 1001 L-164339 1001 L-163815 1001 L-158091 1001 L-156584 1001 L-155769 1001 L-154086 1001 L-153365 1000 L-153196 1000 L-152151 1000 L-150084 1000 L-148722 1000 L-144279 1000 L-144181 1000 L-144143 1000 L-144124 1000 L-143291 1000 L-143214 1000 L-140641 1000 L-137392 1000 L-137237 1000 L-136289 1000 L-134548 1000 L-133832 1000 L-130292 1000 L-123714 1000 L-122297 1001 L-122276 1001 L-121326 1001 L-117851 1001 L-117098 1001 L-116536 1001 L-115754 1001 L-108250 1000 L-106652 1000 L-105078 1000 L-101892 1000 L-97559 1000 L-88990 1000 L-80243 1000 L-77169 1000 L-73903 1000 L-73357 1000 L-66220 1000 L-60552 1000 L-46488 1000 L-40476 1000 L-35770 1000 L-31767 1000 L-26659 1000 L-16945 1000 L-1375 1000 L1707 999 L2009 975 L2029 944 L2048 909 L2068 870 L2087 852 L2106 837 L2125 823 L2153 810 L2173 797 L2201 783 L2237 767 L2250 754 L2263 743 L2282 734 L2300 727 L2320 720 L2339 713 L2358 706 L2378 698 L2399 691 L2416 684 L2435 677 L2455 670 L2475 663 L2493 656 L2512 648 L2532 640 L2552 633 L2571 625 L2589 618 L2611 611 L2635 605 L2650 598 L2667 592 L2687 585 L2706 579 L2725 572 L2744 565 L2764 559 L2785 552 L2803 546 L2822 541 L2842 535 L2863 530 L2880 526 L2899 521 L2919 517 L2938 513 L2957 509 L2976 506 L2996 503 L3016 500 L3035 497 L3054 494 L3081 490 L3102 486 L3130 482 L3164 477 L3178 473 L3191 470 L3210 467 L3229 464 L3249 461 L3267 458 L3286 455 L3306 451 L3327 448 L3344 446 L3363 443 L3383 440 L3403 436 L3422 432 L3440 428 L3461 424 L3480 419 L3499 415 L3518 410 L3539 405 L3563 400 L3578 395 L3595 389 L3615 384 L3634 379 L3654 374 L3673 369 L3693 363 L3713 358 L3731 353 L3750 348 L3770 343 L3791 339 L3808 334 L3827 330 L3848 326 L3866 322 L3886 319 L3905 315 L3925 311 L3944 308 L3963 304 L3982 300 L4011 297 L4031 293 L4058 290 L4096 286 L4111 282 L4123 278 L4140 274 L4157 272 L4177 270 L4196 267 L4215 265 L4235 263 L4256 261 L4273 259 L4292 256 L4312 254 L4332 251 L4350 248 L4369 245 L4389 242 L4409 239 L4428 235 L4446 232 L4468 229 L4492 226 L4507 223 L4524 219 L4544 216 L4563 213 L4582 209 L4601 206 L4621 202 L4642 199 L4660 196 L4679 192 L4699 189 L4719 187 L4737 184 L4756 181 L4776 178 L4795 176 L4815 173 L4833 170 L4853 167 L4873 165 L4892 162 L4911 160 L4939 157 L4959 155 L4987 152 L5023 147 L5037 144 L5051 140 L5068 137 L5086 135 L5106 133 L5124 130 L5144 127 L5164 125 L5185 121 L5204 118 L5221 115 L5241 111 L5261 107 L5279 103 L5298 99 L5318 95 L5338 91 L5356 87 L5375 84 L5396 82 L5421 80 L5436 78 L5454 76 L5472 74 L5492 72 L5511 69 L5530 67 L5550 65 L5571 64 L5588 62 L5608 60 L5628 58 L5649 55 L5666 52 L5685 50 L5705 48 L5724 47 L5743 46 L5762 45 L5782 43 L5802 42 L5821 40 L5839 39 L5867 37 L5888 36 L5916 34 L5950 33 L5964 31 L5977 30 L5996 29 L6015 27 L6034 26 L6053 25 L6073 24 L6092 23 L6113 22 L6130 21 L6149 20 L6170 19 L6190 17 L6208 16 L6226 15 L6246 14 L6267 13 L6285 12 L6304 11 L6325 10 L6350 9 L6364 8 L6382 7 L6401 6 L6420 5 L6440 4 L6459 2 L6479 1 L6500 0" />
</svg>
