<svg xmlns="http://www.w3.org/2000/svg" version="1.1" viewBox="0 0 6500 1000">
	<path fill="none" stroke="gold" stroke-width="125" stroke-linecap="round" stroke-linejoin="round" d="M0 1024  L-715043 1024 L-712439 1024 L-710771 1024 L-692441 1023 L-692271 1023 L-685113 1023 L-685080 1023 L-671649 1023 L-668727 1023 L-655386 1023 L-651217 1023 L-650057 1022 L-649438 1022 L-647426 1021 L-643654 1021 L-643054 1021 L-642726 1021 L-642513 1021 L-641971 1021 L-640733 1020 L-639554 1019 L-636690 1019 L-636167 1018 L-631312 1018 L-628375 1018 L-628332 1018 L-628023 1017 L-627771 1017 L-625176 1017 L-620921 1017 L-620903 1017 L-619666 1017 L-617789 1017 L-615835 1017 L-614887 1017 L-614617 1017 L-614307 1016 L-614209 1016 L-613378 1016 L-611347 1016 L-611057 1016 L-608911 1015 L-608755 1015 L-605099 1014 L-604848 1015 L-604749 1015 L-604232 1015 L-602081 1015 L-601152 1016 L-599626 1016 L-598387 1016 L-596840 1016 L-593878 1016 L-592756 1016 L-592447 1015 L-591236 1015 L-588229 1016 L-588210 1016 L-587862 1016 L-587649 1016 L-587523 1015 L-587281 1015 L-587244 1015 L-587224 1014 L-587205 1014 L-587146 1014 L-587087 1014 L-587069 1014 L-586626 1014 L-585387 1013 L-583841 1013 L-580453 1013 L-574727 1013 L-574525 1013 L-572889 1013 L-571167 1013 L-569735 1013 L-569503 1013 L-568788 1012 L-562656 1012 L-562288 1012 L-562133 1012 L-561555 1012 L-561262 1012 L-560295 1012 L-559986 1011 L-559387 1011 L-557780 1011 L-557045 1011 L-556735 1011 L-555967 1011 L-553931 1011 L-553506 1011 L-552693 1011 L-545264 1011 L-544741 1011 L-544568 1010 L-543833 1010 L-542265 1010 L-541860 1010 L-539635 1010 L-538687 1010 L-538262 1010 L-537931 1010 L-536888 1010 L-534779 1009 L-534527 1009 L-533908 1009 L-533096 1009 L-530988 1009 L-530939 1009 L-529011 1008 L-528685 1008 L-528550 1008 L-528047 1008 L-526634 1008 L-526131 1008 L-525610 1007 L-522050 1007 L-521315 1007 L-518890 1007 L-517601 1007 L-517194 1006 L-514041 1006 L-513887 1006 L-513866 1007 L-513500 1007 L-512241 1007 L-511526 1007 L-510636 1007 L-510230 1007 L-509301 1007 L-508192 1007 L-507889 1007 L-501640 1007 L-500693 1007 L-499067 1007 L-498565 1008 L-494889 1008 L-494057 1008 L-490104 1008 L-488692 1008 L-486203 1007 L-485526 1007 L-485488 1007 L-484617 1007 L-481406 1007 L-478542 1007 L-477574 1007 L-476453 1007 L-476434 1007 L-474809 1006 L-474345 1006 L-474253 1006 L-467884 1006 L-466935 1006 L-464478 1006 L-463606 1006 L-462370 1006 L-460368 1005 L-459971 1005 L-458535 1005 L-456508 1005 L-456295 1005 L-455115 1005 L-453607 1005 L-453587 1005 L-451574 1005 L-450705 1004 L-449834 1004 L-449249 1004 L-448712 1004 L-448054 1004 L-446816 1004 L-446255 1004 L-445074 1003 L-443837 1003 L-443798 1003 L-443411 1003 L-442870 1003 L-442096 1003 L-440974 1003 L-438884 1003 L-438551 1003 L-438265 1002 L-437337 1002 L-436854 1002 L-436118 1002 L-432487 1002 L-431359 1002 L-431205 1002 L-430179 1002 L-426464 1002 L-425247 1001 L-423428 1001 L-420642 1001 L-420081 1001 L-416193 1001 L-413716 1001 L-412382 1001 L-411878 1001 L-411395 1001 L-408706 1001 L-404934 1001 L-402477 1001 L-401297 1001 L-400658 1001 L-398298 1000 L-398221 1000 L-397173 1000 L-397080 1000 L-396577 1000 L-396131 1000 L-396074 1000 L-395860 1000 L-392901 1000 L-390193 1000 L-390038 1000 L-386517 1000 L-385994 1000 L-385027 999 L-384678 999 L-383635 999 L-382706 999 L-382280 999 L-380771 999 L-379804 999 L-379785 999 L-377889 993 L-377773 986 L-377725 980 L-377701 974 L-374697 974 L-372666 974 L-370905 974 L-370538 974 L-370093 974 L-369726 974 L-369312 973 L-367327 973 L-367114 973 L-366959 973 L-365354 973 L-364232 973 L-363283 973 L-362026 973 L-360382 973 L-359202 973 L-352612 973 L-352566 972 L-352160 972 L-351115 972 L-350980 972 L-349297 972 L-349277 972 L-347940 972 L-346704 972 L-346550 972 L-346176 972 L-345970 971 L-345660 971 L-344886 971 L-342565 971 L-341907 971 L-339779 971 L-338057 971 L-337863 971 L-335310 971 L-335034 970 L-334846 970 L-334013 970 L-333241 970 L-332543 970 L-327542 970 L-327166 970 L-322913 970 L-322426 978 L-322407 978 L-322328 978 L-322253 978 L-322233 969 L-321420 969 L-320666 969 L-319447 969 L-318015 969 L-317919 969 L-317745 969 L-317390 969 L-316081 969 L-314224 969 L-312521 968 L-312018 968 L-311753 968 L-311360 968 L-311226 968 L-310316 968 L-309940 968 L-309011 968 L-308672 968 L-308632 968 L-308595 968 L-306679 968 L-306506 968 L-304977 968 L-304649 968 L-304532 968 L-304125 967 L-303777 967 L-302134 967 L-301583 967 L-301339 967 L-300798 967 L-299967 967 L-299425 967 L-297891 966 L-297798 966 L-297761 966 L-297625 966 L-297238 966 L-296213 966 L-294337 966 L-294241 966 L-293640 969 L-293273 971 L-292789 974 L-292751 977 L-291977 977 L-291919 977 L-291745 977 L-291551 977 L-289946 977 L-289926 977 L-289771 977 L-289655 977 L-288476 977 L-288321 977 L-287654 977 L-285206 984 L-282691 991 L-280021 998 L-272322 1004 L-266654 1004 L-264440 1004 L-264416 1004 L-263443 1006 L-263423 1006 L-262559 1006 L-259819 1006 L-254020 1004 L-253867 1004 L-251081 1004 L-237473 1004 L-236727 1003 L-232316 1003 L-215970 1003 L-215738 1003 L-215201 1003 L-206741 1003 L-198036 1003 L-197823 1003 L-195851 1003 L-193064 1003 L-188577 1003 L-188422 1003 L-188253 1003 L-188113 1003 L-187822 1002 L-187783 1002 L-187513 1002 L-187341 1002 L-186931 1002 L-185810 1002 L-184630 1002 L-183353 1002 L-180489 1002 L-177569 1002 L-175577 1002 L-174029 1001 L-170991 1001 L-161667 1001 L-161143 1001 L-155419 1001 L-153912 1001 L-153097 1001 L-151414 1001 L-150693 1001 L-150524 1001 L-149479 1001 L-147412 1001 L-146050 1000 L-141607 1000 L-141509 1000 L-141471 1000 L-141452 1000 L-140619 1000 L-140542 1000 L-137969 1000 L-134720 1000 L-134565 1000 L-133617 1000 L-131876 999 L-131160 1000 L-127619 1000 L-121042 1001 L-119625 1001 L-119604 1001 L-118654 1001 L-115179 1001 L-114426 1001 L-113864 1001 L-113082 1001 L-105578 1001 L-103980 1001 L-102406 1001 L-99220 1001 L-94887 1000 L-86318 1000 L-77571 1000 L-74497 1000 L-71231 1000 L-70685 1000 L-63548 1000 L-57880 1000 L-43816 1000 L-37804 1000 L-33098 1000 L-29095 1000 L-23987 1000 L-14273 1000 L1296 999 L4379 999 L4681 962 L4701 916 L4720 864 L4740 806 L4759 779 L4778 757 L4797 736 L4825 716 L4845 696 L4873 675 L4909 652 L4922 633 L4935 616 L4954 602 L4972 592 L4992 582 L5011 571 L5030 561 L5050 550 L5071 539 L5088 528 L5107 518 L5127 507 L5147 497 L5165 486 L5184 475 L5204 463 L5224 452 L5243 440 L5261 430 L5283 420 L5307 410 L5322 400 L5339 391 L5359 381 L5378 372 L5397 361 L5416 351 L5436 341 L5457 332 L5475 323 L5494 314 L5514 306 L5535 299 L5552 292 L5571 286 L5591 279 L5610 273 L5629 268 L5648 262 L5668 258 L5688 253 L5707 249 L5726 244 L5753 239 L5774 233 L5802 227 L5836 220 L5850 214 L5863 209 L5882 204 L5901 200 L5921 196 L5939 191 L5958 186 L5978 181 L5999 177 L6016 172 L6035 168 L6055 163 L6075 158 L6094 152 L6112 146 L6133 140 L6152 133 L6171 127 L6190 120 L6211 112 L6235 104 L6250 96 L6267 89 L6287 81 L6306 74 L6326 66 L6345 57 L6365 50 L6385 42 L6403 34 L6422 27 L6442 20 L6463 13 L6480 6 L6500 0" />
</svg>
