<svg xmlns="http://www.w3.org/2000/svg" version="1.1" viewBox="0 0 6500 1000">
	<path fill="none" stroke="gold" stroke-width="125" stroke-linecap="round" stroke-linejoin="round" d="M0 4285  L-722900 4285 L-720296 4285 L-718628 4285 L-700299 4284 L-700128 4284 L-692971 4284 L-692938 4284 L-679507 4283 L-676585 4284 L-663244 4283 L-659075 4282 L-657915 4281 L-657296 4280 L-655284 4279 L-651512 4279 L-650912 4279 L-650583 4278 L-650370 4278 L-649829 4277 L-648591 4276 L-647412 4274 L-644547 4273 L-644025 4271 L-639170 4271 L-636232 4270 L-636189 4270 L-635881 4269 L-635629 4269 L-633034 4268 L-628779 4268 L-628761 4268 L-627524 4268 L-625646 4268 L-623693 4268 L-622745 4268 L-622474 4267 L-622164 4267 L-622066 4267 L-621236 4267 L-619205 4267 L-618915 4265 L-616768 4264 L-616613 4263 L-612956 4262 L-612705 4263 L-612607 4262 L-612090 4263 L-609939 4264 L-609010 4265 L-607484 4266 L-606244 4266 L-604698 4266 L-601736 4265 L-600614 4265 L-600305 4265 L-599094 4264 L-596087 4267 L-596067 4266 L-595720 4266 L-595507 4266 L-595381 4263 L-595139 4263 L-595101 4262 L-595082 4262 L-595062 4262 L-595003 4261 L-594945 4261 L-594927 4260 L-594484 4260 L-593244 4260 L-591698 4259 L-588311 4259 L-582585 4259 L-582383 4258 L-580747 4258 L-579025 4258 L-577593 4258 L-577361 4258 L-576645 4257 L-570513 4257 L-570146 4257 L-569991 4256 L-569413 4256 L-569120 4255 L-568153 4255 L-567843 4255 L-567244 4254 L-565638 4254 L-564903 4254 L-564593 4254 L-563825 4254 L-561789 4254 L-561363 4254 L-560551 4253 L-553122 4253 L-552599 4253 L-552426 4252 L-551691 4252 L-550123 4251 L-549717 4251 L-547492 4251 L-546544 4251 L-546119 4250 L-545789 4250 L-544745 4250 L-542637 4250 L-542385 4249 L-541766 4249 L-540953 4249 L-538845 4248 L-538797 4248 L-536869 4248 L-536543 4247 L-536408 4247 L-535905 4247 L-534492 4246 L-533989 4245 L-533467 4245 L-529908 4244 L-529173 4243 L-526748 4243 L-525459 4243 L-525052 4242 L-521899 4242 L-521744 4242 L-521724 4243 L-521357 4243 L-520099 4243 L-519384 4243 L-518494 4243 L-518087 4243 L-517159 4243 L-516050 4243 L-515747 4244 L-509498 4244 L-508551 4245 L-506925 4245 L-506423 4245 L-502747 4245 L-501915 4246 L-497962 4246 L-496550 4245 L-494060 4245 L-493384 4244 L-493345 4244 L-492474 4244 L-489263 4244 L-486400 4244 L-485432 4244 L-484311 4243 L-484292 4243 L-482667 4242 L-482203 4242 L-482111 4241 L-475741 4241 L-474793 4241 L-472336 4241 L-471464 4240 L-470227 4240 L-468226 4240 L-467829 4240 L-466392 4239 L-464366 4239 L-464153 4239 L-462973 4238 L-461464 4238 L-461444 4238 L-459432 4238 L-458563 4237 L-457692 4237 L-457107 4237 L-456570 4236 L-455912 4236 L-454674 4236 L-454113 4235 L-452932 4235 L-451695 4235 L-451656 4235 L-451269 4235 L-450727 4234 L-449954 4234 L-448831 4234 L-446742 4233 L-446409 4233 L-446123 4233 L-445195 4232 L-444711 4232 L-443976 4232 L-440345 4232 L-439217 4231 L-439062 4231 L-438036 4231 L-434322 4231 L-433104 4230 L-431286 4230 L-428500 4229 L-427939 4229 L-424051 4229 L-421574 4229 L-420239 4229 L-419736 4229 L-419253 4228 L-416563 4228 L-412792 4228 L-410335 4228 L-409155 4228 L-408516 4228 L-406156 4228 L-406079 4228 L-405031 4227 L-404938 4227 L-404435 4227 L-403989 4227 L-403932 4227 L-403718 4227 L-400758 4227 L-398051 4226 L-397896 4226 L-394375 4226 L-393852 4226 L-392885 4225 L-392536 4225 L-391492 4225 L-390564 4224 L-390138 4224 L-388629 4224 L-387662 4224 L-387643 4224 L-385747 4209 L-385631 4194 L-385583 4179 L-385559 4163 L-382555 4163 L-380524 4163 L-378763 4163 L-378396 4162 L-377950 4162 L-377584 4162 L-377170 4161 L-375185 4161 L-374971 4161 L-374816 4161 L-373211 4161 L-372089 4161 L-371141 4161 L-369884 4160 L-368239 4160 L-367060 4160 L-360470 4159 L-360424 4159 L-360018 4159 L-358973 4159 L-358837 4159 L-357155 4158 L-357135 4158 L-355798 4158 L-354562 4157 L-354408 4157 L-354034 4157 L-353828 4157 L-353518 4156 L-352744 4156 L-350423 4156 L-349765 4156 L-347637 4155 L-345915 4155 L-345721 4155 L-343168 4155 L-342892 4154 L-342703 4154 L-341871 4154 L-341098 4153 L-340400 4153 L-335400 4153 L-335024 4153 L-330771 4153 L-330284 4173 L-330265 4173 L-330186 4172 L-330110 4172 L-330091 4152 L-329278 4151 L-328524 4151 L-327305 4151 L-325873 4151 L-325777 4150 L-325602 4150 L-325248 4150 L-323939 4150 L-322081 4150 L-320379 4149 L-319876 4149 L-319611 4149 L-319218 4149 L-319083 4148 L-318174 4148 L-317797 4148 L-316869 4148 L-316530 4148 L-316490 4148 L-316452 4148 L-314537 4148 L-314363 4147 L-312834 4147 L-312506 4147 L-312390 4147 L-311983 4147 L-311635 4146 L-309991 4146 L-309440 4146 L-309197 4146 L-308656 4145 L-307824 4145 L-307283 4145 L-305748 4144 L-305656 4144 L-305619 4144 L-305483 4144 L-305096 4144 L-304071 4143 L-302195 4143 L-302098 4143 L-301498 4149 L-301131 4156 L-300646 4163 L-300608 4170 L-299835 4171 L-299777 4171 L-299603 4170 L-299409 4170 L-297804 4170 L-297784 4169 L-297629 4170 L-297513 4170 L-296334 4170 L-296179 4171 L-295512 4171 L-293064 4187 L-290549 4205 L-287879 4221 L-280180 4237 L-274512 4237 L-272298 4237 L-272274 4237 L-271300 4241 L-271280 4241 L-270417 4241 L-267676 4241 L-261878 4236 L-261724 4236 L-258939 4236 L-245330 4235 L-244584 4235 L-240174 4235 L-223827 4235 L-223595 4234 L-223058 4234 L-214599 4234 L-205893 4234 L-205681 4233 L-203708 4233 L-200922 4233 L-196435 4233 L-196280 4233 L-196111 4233 L-195970 4233 L-195680 4233 L-195641 4232 L-195370 4232 L-195199 4232 L-194788 4232 L-193668 4232 L-192488 4231 L-191211 4231 L-188347 4231 L-185427 4231 L-183435 4231 L-181887 4230 L-178849 4230 L-169525 4230 L-169001 4229 L-163277 4229 L-161770 4229 L-160955 4229 L-159272 4229 L-158551 4229 L-158382 4228 L-157337 4228 L-155270 4228 L-153908 4228 L-149464 4228 L-149367 4227 L-149329 4227 L-149310 4227 L-148477 4227 L-148399 4226 L-145827 4226 L-142578 4226 L-142423 4226 L-141474 4226 L-139733 4225 L-139018 4226 L-135477 4227 L-128900 4229 L-127483 4230 L-127462 4230 L-126511 4230 L-123037 4230 L-122284 4229 L-121722 4229 L-120940 4229 L-113436 4229 L-111837 4228 L-110263 4228 L-107078 4228 L-102745 4228 L-94175 4228 L-85429 4228 L-82355 4227 L-79089 4227 L-78543 4227 L-71405 4227 L-65738 4227 L-51673 4227 L-45662 4227 L-40956 4227 L-36952 4226 L-31845 4226 L-22131 4226 L-6560 4225 L-3478 4225 L-3175 4134 L-3156 4021 L-3137 3893 L-3117 3750 L-3098 3685 L-3078 3630 L-3060 3580 L-3032 3530 L-3011 3481 L-2983 3430 L-2948 3374 L-2934 3326 L-2921 3285 L-2903 3251 L-2884 3226 L-2864 3200 L-2846 3174 L-2827 3148 L-2807 3122 L-2786 3095 L-2769 3069 L-2750 3043 L-2730 3018 L-2710 2993 L-2691 2966 L-2672 2938 L-2653 2909 L-2632 2881 L-2614 2854 L-2595 2828 L-2574 2803 L-2549 2778 L-2535 2755 L-2517 2731 L-2498 2707 L-2478 2685 L-2459 2660 L-2440 2634 L-2420 2610 L-2400 2587 L-2382 2565 L-2363 2544 L-2342 2524 L-2322 2505 L-2305 2489 L-2286 2474 L-2266 2458 L-2247 2443 L-2227 2429 L-2208 2416 L-2188 2405 L-2169 2394 L-2150 2383 L-2131 2373 L-2104 2359 L-2083 2345 L-2055 2329 L-2021 2311 L-2007 2297 L-1994 2284 L-1975 2273 L-1956 2263 L-1936 2253 L-1918 2241 L-1898 2229 L-1878 2217 L-1858 2206 L-1840 2196 L-1821 2185 L-1801 2174 L-1781 2161 L-1763 2147 L-1744 2131 L-1724 2115 L-1704 2099 L-1686 2083 L-1667 2067 L-1646 2048 L-1621 2028 L-1607 2009 L-1589 1990 L-1570 1972 L-1550 1953 L-1531 1934 L-1512 1914 L-1492 1894 L-1472 1875 L-1453 1857 L-1435 1838 L-1414 1821 L-1394 1804 L-1376 1787 L-1357 1773 L-1337 1757 L-1318 1744 L-1299 1731 L-1280 1717 L-1260 1704 L-1241 1690 L-1221 1677 L-1202 1663 L-1174 1650 L-1154 1638 L-1126 1625 L-1089 1609 L-1074 1595 L-1061 1581 L-1044 1569 L-1027 1559 L-1007 1551 L-989 1543 L-970 1535 L-950 1528 L-929 1520 L-912 1511 L-893 1502 L-873 1493 L-853 1483 L-834 1473 L-816 1462 L-796 1451 L-776 1438 L-757 1426 L-738 1414 L-717 1403 L-693 1390 L-678 1379 L-661 1367 L-641 1354 L-622 1343 L-602 1330 L-583 1317 L-563 1304 L-543 1292 L-525 1280 L-506 1268 L-486 1257 L-466 1247 L-448 1237 L-429 1227 L-409 1216 L-390 1206 L-370 1196 L-351 1186 L-331 1177 L-312 1167 L-293 1158 L-274 1149 L-246 1139 L-226 1129 L-198 1118 L-161 1103 L-147 1089 L-134 1076 L-117 1064 L-99 1057 L-79 1049 L-60 1040 L-40 1030 L-21 1020 L0 1008 L18 996 L35 984 L55 971 L76 957 L94 942 L112 927 L132 911 L153 897 L171 883 L189 872 L211 863 L236 856 L250 849 L268 841 L287 834 L306 826 L325 817 L344 810 L364 802 L385 796 L403 790 L422 783 L442 774 L463 764 L480 754 L499 747 L519 741 L538 736 L557 731 L576 727 L596 722 L616 716 L635 710 L654 705 L681 700 L702 695 L730 690 L765 683 L778 677 L792 672 L810 668 L829 664 L849 660 L867 655 L887 652 L907 648 L928 644 L945 640 L963 636 L984 631 L1004 627 L1022 622 L1041 618 L1061 614 L1081 610 L1099 606 L1118 602 L1139 599 L1164 595 L1179 591 L1196 588 L1215 584 L1235 580 L1254 576 L1273 572 L1293 567 L1314 563 L1331 559 L1350 555 L1371 552 L1391 548 L1409 545 L1428 541 L1448 538 L1466 534 L1486 531 L1505 528 L1525 526 L1544 523 L1563 521 L1582 525 L1611 529 L1631 533 L1659 537 L1696 533 L1711 531 L1724 528 L1741 525 L1758 524 L1777 521 L1796 519 L1816 516 L1835 514 L1857 512 L1873 510 L1892 508 L1912 506 L1933 504 L1951 501 L1969 499 L1989 496 L2009 494 L2028 492 L2047 490 L2068 488 L2093 486 L2107 484 L2124 481 L2144 479 L2163 476 L2183 474 L2202 472 L2221 469 L2242 465 L2260 462 L2279 459 L2299 456 L2320 453 L2337 450 L2356 447 L2376 445 L2395 442 L2415 439 L2433 436 L2453 432 L2473 430 L2492 428 L2511 426 L2538 423 L2559 420 L2587 417 L2622 414 L2635 411 L2649 409 L2668 406 L2686 404 L2706 402 L2724 399 L2744 397 L2764 394 L2785 392 L2802 389 L2820 387 L2841 384 L2861 381 L2879 377 L2898 374 L2918 369 L2938 366 L2956 362 L2975 359 L2996 355 L3021 352 L3036 348 L3053 344 L3072 341 L3092 337 L3111 334 L3130 330 L3150 327 L3171 323 L3188 320 L3207 317 L3228 313 L3249 311 L3266 308 L3285 305 L3305 303 L3324 301 L3343 299 L3362 297 L3382 295 L3402 293 L3421 291 L3439 290 L3467 288 L3488 286 L3516 284 L3551 280 L3565 277 L3578 273 L3597 270 L3615 267 L3635 265 L3653 263 L3673 261 L3692 259 L3713 256 L3730 254 L3749 251 L3770 248 L3790 246 L3808 243 L3827 240 L3846 237 L3867 234 L3885 231 L3904 229 L3925 227 L3950 224 L3965 222 L3982 220 L4001 217 L4021 215 L4040 212 L4059 209 L4079 205 L4100 201 L4117 197 L4136 194 L4157 191 L4177 188 L4194 186 L4213 184 L4233 182 L4252 181 L4272 179 L4291 177 L4311 175 L4330 173 L4349 172 L4368 170 L4395 168 L4416 167 L4444 165 L4478 163 L4492 162 L4506 160 L4524 159 L4543 157 L4563 156 L4581 154 L4601 153 L4621 152 L4641 151 L4659 149 L4677 148 L4698 146 L4718 145 L4736 143 L4755 142 L4775 141 L4795 140 L4813 139 L4832 138 L4853 137 L4878 135 L4893 134 L4910 132 L4929 131 L4949 130 L4968 128 L4987 127 L5007 125 L5027 123 L5045 120 L5064 117 L5085 114 L5105 112 L5123 110 L5142 108 L5162 106 L5180 104 L5200 102 L5219 100 L5239 99 L5258 97 L5278 96 L5297 94 L5325 93 L5373 92 L5410 90 L5425 89 L5437 87 L5454 86 L5472 86 L5491 85 L5510 84 L5529 83 L5549 81 L5570 80 L5587 80 L5606 79 L5626 78 L5646 77 L5665 76 L5683 74 L5703 73 L5723 72 L5742 70 L5761 68 L5782 67 L5806 64 L5821 62 L5838 60 L5858 58 L5877 56 L5897 54 L5915 52 L5936 50 L5956 48 L5974 46 L5993 44 L6013 42 L6034 41 L6051 39 L6070 38 L6090 37 L6109 35 L6129 34 L6148 32 L6168 31 L6187 29 L6206 28 L6225 26 L6253 25 L6274 23 L6302 21 L6338 18 L6353 15 L6366 12 L6383 9 L6400 8 L6421 6 L6439 5 L6459 4 L6478 3 L6500 2" />
</svg>
