<svg xmlns="http://www.w3.org/2000/svg" version="1.1" viewBox="0 0 6500 1000">
	<path fill="none" stroke="gold" stroke-width="125" stroke-linecap="round" stroke-linejoin="round" d="M0 2622  L-721659 2622 L-719055 2622 L-717387 2622 L-699057 2622 L-698887 2622 L-691729 2621 L-691696 2621 L-678265 2621 L-675344 2621 L-662003 2621 L-657834 2620 L-656674 2620 L-656055 2619 L-654043 2619 L-650271 2618 L-649671 2618 L-649342 2618 L-649129 2618 L-648587 2617 L-647349 2616 L-646170 2615 L-643306 2614 L-642784 2613 L-637928 2613 L-634991 2613 L-634948 2613 L-634640 2612 L-634388 2612 L-631793 2612 L-627537 2612 L-627520 2612 L-626283 2612 L-624405 2612 L-622452 2612 L-621504 2611 L-621233 2611 L-620923 2611 L-620825 2611 L-619995 2611 L-617964 2611 L-617673 2610 L-615527 2609 L-615372 2609 L-611715 2608 L-611464 2608 L-611366 2608 L-610849 2608 L-608697 2609 L-607769 2610 L-606243 2610 L-605003 2610 L-603457 2610 L-600495 2610 L-599373 2610 L-599064 2609 L-597852 2609 L-594846 2611 L-594826 2611 L-594479 2610 L-594266 2610 L-594139 2609 L-593898 2608 L-593860 2608 L-593840 2608 L-593821 2608 L-593762 2607 L-593703 2607 L-593685 2607 L-593242 2607 L-592003 2606 L-590457 2606 L-587069 2606 L-581343 2606 L-581142 2606 L-579506 2605 L-577784 2605 L-576352 2605 L-576119 2605 L-575404 2605 L-569272 2605 L-568904 2605 L-568750 2604 L-568171 2604 L-567879 2604 L-566912 2603 L-566602 2603 L-566003 2603 L-564397 2603 L-563662 2603 L-563352 2603 L-562584 2603 L-560547 2603 L-560122 2603 L-559309 2602 L-551881 2602 L-551358 2602 L-551184 2602 L-550449 2601 L-548882 2601 L-548476 2601 L-546251 2601 L-545303 2601 L-544878 2601 L-544548 2601 L-543504 2600 L-541396 2600 L-541144 2600 L-540525 2600 L-539712 2600 L-537604 2599 L-537556 2599 L-535627 2599 L-535302 2599 L-535167 2598 L-534664 2598 L-533251 2598 L-532748 2597 L-532226 2597 L-528667 2596 L-527931 2596 L-525507 2596 L-524217 2596 L-523810 2596 L-520658 2596 L-520503 2596 L-520483 2596 L-520116 2596 L-518858 2596 L-518143 2596 L-517253 2596 L-516846 2596 L-515917 2596 L-514809 2596 L-514506 2596 L-508257 2597 L-507309 2597 L-505683 2597 L-505181 2597 L-501506 2597 L-500673 2598 L-496720 2598 L-495308 2597 L-492819 2597 L-492143 2597 L-492104 2597 L-491233 2597 L-488022 2596 L-485159 2596 L-484191 2596 L-483069 2596 L-483050 2596 L-481425 2595 L-480961 2595 L-480869 2595 L-474500 2595 L-473552 2595 L-471095 2595 L-470222 2594 L-468986 2594 L-466985 2594 L-466587 2594 L-465151 2594 L-463125 2593 L-462912 2593 L-461732 2593 L-460223 2593 L-460203 2593 L-458191 2593 L-457321 2592 L-456450 2592 L-455866 2592 L-455328 2592 L-454671 2592 L-453432 2591 L-452872 2591 L-451691 2591 L-450453 2591 L-450415 2591 L-450028 2591 L-449486 2590 L-448712 2590 L-447590 2590 L-445501 2590 L-445168 2590 L-444882 2589 L-443953 2589 L-443470 2589 L-442735 2589 L-439103 2589 L-437976 2589 L-437821 2588 L-436795 2588 L-433080 2588 L-431863 2588 L-430044 2588 L-427259 2587 L-426697 2587 L-422809 2587 L-420333 2587 L-418998 2587 L-418495 2587 L-418011 2587 L-415322 2587 L-411551 2587 L-409093 2587 L-407913 2587 L-407274 2587 L-404915 2586 L-404837 2586 L-403790 2586 L-403696 2586 L-403193 2586 L-402748 2586 L-402690 2586 L-402477 2586 L-399517 2586 L-396809 2586 L-396655 2585 L-393134 2585 L-392611 2585 L-391644 2585 L-391295 2585 L-390251 2584 L-389322 2584 L-388897 2584 L-387388 2584 L-386421 2584 L-386402 2584 L-384506 2575 L-384390 2565 L-384342 2556 L-384318 2546 L-381313 2546 L-379283 2546 L-377522 2546 L-377155 2546 L-376709 2545 L-376342 2545 L-375928 2545 L-373943 2545 L-373730 2545 L-373575 2545 L-371970 2545 L-370848 2545 L-369900 2544 L-368643 2544 L-366998 2544 L-365818 2544 L-359229 2544 L-359182 2543 L-358777 2543 L-357731 2543 L-357596 2543 L-355914 2543 L-355894 2543 L-354557 2542 L-353321 2542 L-353166 2542 L-352792 2542 L-352586 2542 L-352277 2542 L-351503 2541 L-349181 2541 L-348524 2541 L-346396 2541 L-344673 2541 L-344480 2541 L-341927 2541 L-341650 2540 L-341462 2540 L-340630 2540 L-339857 2540 L-339159 2540 L-334159 2540 L-333783 2539 L-329530 2539 L-329043 2552 L-329023 2552 L-328944 2552 L-328869 2552 L-328849 2539 L-328036 2539 L-327283 2538 L-326064 2538 L-324632 2538 L-324535 2538 L-324361 2538 L-324007 2538 L-322697 2538 L-320840 2538 L-319138 2537 L-318635 2537 L-318369 2537 L-317976 2537 L-317842 2537 L-316932 2537 L-316556 2536 L-315627 2536 L-315288 2536 L-315249 2536 L-315211 2536 L-313296 2536 L-313122 2536 L-311593 2536 L-311265 2536 L-311149 2536 L-310742 2536 L-310394 2535 L-308750 2535 L-308199 2535 L-307956 2535 L-307415 2535 L-306583 2535 L-306042 2534 L-304507 2534 L-304415 2534 L-304378 2534 L-304242 2534 L-303855 2534 L-302830 2534 L-300953 2533 L-300857 2533 L-300257 2537 L-299890 2542 L-299405 2546 L-299367 2550 L-298593 2551 L-298536 2551 L-298361 2550 L-298168 2550 L-296562 2550 L-296542 2550 L-296387 2550 L-296272 2550 L-295092 2550 L-294937 2551 L-294271 2551 L-291822 2561 L-289307 2572 L-286638 2582 L-278938 2592 L-273271 2592 L-271056 2592 L-271033 2592 L-270059 2595 L-270039 2595 L-269175 2595 L-266435 2594 L-260637 2592 L-260483 2592 L-257697 2591 L-244089 2591 L-243343 2591 L-238932 2591 L-222586 2591 L-222354 2590 L-221817 2590 L-213358 2590 L-204652 2590 L-204440 2590 L-202467 2590 L-199681 2590 L-195193 2590 L-195039 2590 L-194870 2590 L-194729 2590 L-194438 2589 L-194400 2589 L-194129 2589 L-193957 2589 L-193547 2589 L-192427 2589 L-191246 2589 L-189970 2588 L-187106 2588 L-184185 2588 L-182193 2588 L-180646 2588 L-177608 2588 L-168283 2588 L-167759 2587 L-162036 2587 L-160528 2587 L-159714 2587 L-158030 2587 L-157309 2587 L-157141 2587 L-156096 2587 L-154028 2587 L-152666 2586 L-148223 2586 L-148126 2586 L-148087 2586 L-148068 2586 L-147236 2586 L-147158 2586 L-144586 2585 L-141336 2585 L-141181 2585 L-140233 2585 L-138492 2585 L-137777 2586 L-134236 2586 L-127659 2587 L-126241 2588 L-126221 2588 L-125270 2588 L-121796 2588 L-121042 2587 L-120481 2587 L-119699 2587 L-112195 2587 L-110596 2587 L-109022 2587 L-105837 2587 L-101504 2586 L-92934 2586 L-84188 2586 L-81114 2586 L-77848 2586 L-77301 2586 L-70164 2586 L-64496 2586 L-50432 2586 L-44421 2586 L-39714 2586 L-35711 2585 L-30604 2585 L-20890 2585 L-5319 2585 L-2236 2585 L-1934 2527 L-1914 2457 L-1896 2377 L-1876 2288 L-1856 2247 L-1837 2212 L-1818 2181 L-1791 2150 L-1770 2119 L-1742 2087 L-1707 2052 L-1693 2022 L-1680 1996 L-1662 1975 L-1643 1959 L-1623 1943 L-1605 1927 L-1585 1911 L-1565 1894 L-1544 1877 L-1527 1861 L-1509 1845 L-1488 1829 L-1468 1813 L-1450 1796 L-1431 1779 L-1411 1761 L-1391 1743 L-1373 1726 L-1354 1710 L-1333 1695 L-1308 1679 L-1293 1664 L-1276 1650 L-1257 1635 L-1237 1620 L-1218 1605 L-1199 1589 L-1179 1574 L-1159 1559 L-1141 1545 L-1122 1532 L-1101 1520 L-1081 1508 L-1064 1498 L-1045 1488 L-1025 1479 L-1006 1470 L-986 1461 L-967 1452 L-947 1445 L-928 1439 L-908 1432 L-890 1425 L-862 1417 L-841 1408 L-814 1398 L-780 1387 L-765 1378 L-752 1370 L-734 1363 L-715 1357 L-695 1350 L-676 1343 L-657 1335 L-637 1328 L-616 1321 L-599 1314 L-580 1308 L-560 1301 L-540 1293 L-522 1284 L-503 1274 L-483 1264 L-463 1254 L-444 1244 L-425 1234 L-404 1222 L-380 1210 L-365 1197 L-348 1186 L-328 1174 L-309 1163 L-289 1151 L-271 1138 L-251 1126 L-230 1114 L-212 1102 L-193 1091 L-173 1080 L-153 1069 L-135 1059 L-116 1050 L-96 1040 L-77 1032 L-57 1023 L-39 1015 L-19 1007 L0 998 L19 989 L38 981 L67 973 L86 965 L114 957 L151 947 L166 938 L179 930 L196 922 L213 916 L233 911 L251 906 L271 901 L291 896 L311 891 L328 886 L347 880 L368 874 L387 868 L406 862 L425 855 L445 848 L464 840 L483 833 L502 825 L523 818 L547 810 L562 803 L579 796 L599 788 L618 781 L638 773 L657 764 L677 756 L697 749 L716 741 L734 734 L754 727 L775 720 L793 714 L812 708 L832 701 L850 695 L870 689 L889 683 L909 677 L928 671 L948 665 L966 659 L995 653 L1015 647 L1043 640 L1079 631 L1093 622 L1106 614 L1124 606 L1142 602 L1162 597 L1180 591 L1200 585 L1219 578 L1241 571 L1259 564 L1276 556 L1297 548 L1317 539 L1335 530 L1354 520 L1374 510 L1394 501 L1412 493 L1431 486 L1452 480 L1477 476 L1492 471 L1509 467 L1528 462 L1548 457 L1567 452 L1586 447 L1606 442 L1627 438 L1644 435 L1663 430 L1684 425 L1704 418 L1721 412 L1740 407 L1760 404 L1779 401 L1799 398 L1818 395 L1838 392 L1857 388 L1876 385 L1895 381 L1923 378 L1943 375 L1971 372 L2006 367 L2020 364 L2033 361 L2052 358 L2070 355 L2090 353 L2109 350 L2128 348 L2148 346 L2169 343 L2186 341 L2205 338 L2225 335 L2245 332 L2263 329 L2282 327 L2302 324 L2322 322 L2340 320 L2359 317 L2381 315 L2405 312 L2420 310 L2437 308 L2457 306 L2476 303 L2495 301 L2514 298 L2534 295 L2555 293 L2573 290 L2592 288 L2612 285 L2632 283 L2650 281 L2669 279 L2689 277 L2708 274 L2727 272 L2746 271 L2766 269 L2786 268 L2805 266 L2823 269 L2852 271 L2872 274 L2900 276 L2937 274 L2952 272 L2965 270 L2983 269 L2999 268 L3019 266 L3037 265 L3057 263 L3077 262 L3098 261 L3115 260 L3133 258 L3154 257 L3174 255 L3192 254 L3211 252 L3231 251 L3251 249 L3269 248 L3288 247 L3309 245 L3334 244 L3348 243 L3366 241 L3385 240 L3405 238 L3424 237 L3443 235 L3463 233 L3484 231 L3501 229 L3520 227 L3541 225 L3561 224 L3579 222 L3597 220 L3617 218 L3636 217 L3656 215 L3675 213 L3695 211 L3714 209 L3733 208 L3752 206 L3780 205 L3800 203 L3828 201 L3863 199 L3877 197 L3890 196 L3909 194 L3927 193 L3947 191 L3966 190 L3985 188 L4005 187 L4026 185 L4043 184 L4062 182 L4082 180 L4102 178 L4121 176 L4139 174 L4159 171 L4179 169 L4198 167 L4216 165 L4238 163 L4263 160 L4277 158 L4295 156 L4314 153 L4333 151 L4352 149 L4371 146 L4391 144 L4412 142 L4430 140 L4449 138 L4469 136 L4490 134 L4507 133 L4526 131 L4546 130 L4565 129 L4584 127 L4603 126 L4623 125 L4643 124 L4662 122 L4681 122 L4708 120 L4729 119 L4757 118 L4792 115 L4806 113 L4819 111 L4838 109 L4856 107 L4876 106 L4894 105 L4914 103 L4934 102 L4955 100 L4972 99 L4990 97 L5011 96 L5031 94 L5049 92 L5068 90 L5088 88 L5108 86 L5126 85 L5145 83 L5166 82 L5191 81 L5206 79 L5223 78 L5242 76 L5262 75 L5281 73 L5300 71 L5320 68 L5341 66 L5358 63 L5377 61 L5398 59 L5418 58 L5436 56 L5455 55 L5475 54 L5493 53 L5513 52 L5532 51 L5552 50 L5571 48 L5591 48 L5609 46 L5637 45 L5658 44 L5685 43 L5720 42 L5734 41 L5747 40 L5766 39 L5784 38 L5804 38 L5823 37 L5842 36 L5862 35 L5883 35 L5900 34 L5919 33 L5939 32 L5959 31 L5977 30 L5996 29 L6016 28 L6036 28 L6055 27 L6074 26 L6095 26 L6119 25 L6134 24 L6151 23 L6171 22 L6190 21 L6209 20 L6228 20 L6248 18 L6269 17 L6287 15 L6306 13 L6326 11 L6347 10 L6364 9 L6383 8 L6403 6 L6422 5 L6442 4 L6460 3 L6480 2 L6500 1" />
</svg>
