<svg xmlns="http://www.w3.org/2000/svg" version="1.1" viewBox="0 0 6500 1000">
	<path fill="none" stroke="gold" stroke-width="125" stroke-linecap="round" stroke-linejoin="round" d="M0 1022  L-715471 1022 L-712867 1021 L-711199 1021 L-692869 1021 L-692699 1021 L-685541 1021 L-685508 1021 L-672077 1021 L-669155 1021 L-655814 1021 L-651645 1020 L-650485 1020 L-649866 1020 L-647854 1019 L-644083 1019 L-643482 1019 L-643154 1019 L-642941 1019 L-642399 1019 L-641161 1018 L-639982 1017 L-637118 1017 L-636595 1016 L-631740 1016 L-628803 1016 L-628760 1016 L-628451 1016 L-628200 1016 L-625605 1015 L-621349 1015 L-621331 1015 L-620094 1015 L-618217 1015 L-616264 1015 L-615316 1015 L-615045 1015 L-614735 1015 L-614637 1015 L-613806 1015 L-611776 1015 L-611485 1014 L-609339 1014 L-609183 1013 L-605527 1013 L-605276 1013 L-605177 1013 L-604660 1013 L-602509 1014 L-601580 1014 L-600054 1014 L-598815 1014 L-597268 1014 L-594306 1014 L-593185 1014 L-592875 1014 L-591664 1014 L-588657 1015 L-588638 1015 L-588291 1015 L-588077 1014 L-587951 1013 L-587710 1013 L-587672 1013 L-587652 1013 L-587633 1013 L-587574 1013 L-587515 1013 L-587497 1012 L-587054 1012 L-585815 1012 L-584269 1012 L-580881 1012 L-575155 1012 L-574953 1012 L-573318 1012 L-571596 1011 L-570164 1011 L-569931 1011 L-569216 1011 L-563084 1011 L-562716 1011 L-562562 1011 L-561983 1011 L-561691 1011 L-560723 1010 L-560414 1010 L-559815 1010 L-558208 1010 L-557473 1010 L-557163 1010 L-556395 1010 L-554359 1010 L-553934 1010 L-553121 1010 L-545693 1010 L-545170 1010 L-544996 1009 L-544261 1009 L-542693 1009 L-542288 1009 L-540063 1009 L-539115 1009 L-538690 1009 L-538359 1009 L-537316 1009 L-535208 1008 L-534955 1008 L-534337 1008 L-533524 1008 L-531416 1008 L-531367 1008 L-529439 1008 L-529114 1008 L-528978 1007 L-528475 1007 L-527063 1007 L-526560 1007 L-526038 1007 L-522478 1006 L-521743 1006 L-519318 1006 L-518029 1006 L-517622 1006 L-514469 1006 L-514315 1006 L-514294 1006 L-513928 1006 L-512670 1006 L-511955 1006 L-511065 1006 L-510658 1006 L-509729 1006 L-508621 1006 L-508317 1006 L-502068 1006 L-501121 1007 L-499495 1007 L-498993 1007 L-495317 1007 L-494485 1007 L-490532 1007 L-489120 1007 L-486631 1007 L-485954 1006 L-485916 1006 L-485045 1006 L-481834 1006 L-478971 1006 L-478003 1006 L-476881 1006 L-476862 1006 L-475237 1006 L-474773 1005 L-474681 1005 L-468312 1005 L-467363 1005 L-464906 1005 L-464034 1005 L-462798 1005 L-460797 1005 L-460399 1005 L-458963 1005 L-456937 1005 L-456723 1004 L-455543 1004 L-454035 1004 L-454015 1004 L-452002 1004 L-451133 1004 L-450262 1004 L-449677 1004 L-449140 1004 L-448482 1003 L-447244 1003 L-446684 1003 L-445503 1003 L-444265 1003 L-444226 1003 L-443840 1003 L-443298 1003 L-442524 1003 L-441402 1003 L-439313 1002 L-438979 1002 L-438694 1002 L-437765 1002 L-437282 1002 L-436546 1002 L-432915 1002 L-431788 1002 L-431633 1002 L-430607 1001 L-426892 1001 L-425675 1001 L-423856 1001 L-421071 1001 L-420509 1001 L-416621 1001 L-414145 1001 L-412810 1001 L-412306 1001 L-411823 1001 L-409134 1001 L-405362 1001 L-402905 1001 L-401725 1001 L-401086 1001 L-398726 1000 L-398649 1000 L-397602 1000 L-397508 1000 L-397005 1000 L-396560 1000 L-396502 1000 L-396288 1000 L-393329 1000 L-390621 1000 L-390466 1000 L-386946 1000 L-386423 1000 L-385455 999 L-385106 999 L-384063 999 L-383134 999 L-382708 999 L-381199 999 L-380232 999 L-380213 999 L-378318 993 L-378202 988 L-378154 982 L-378129 977 L-375125 977 L-373094 976 L-371334 976 L-370966 976 L-370521 976 L-370154 976 L-369740 976 L-367755 976 L-367542 976 L-367387 976 L-365782 976 L-364660 976 L-363712 976 L-362454 975 L-360810 975 L-359630 975 L-353041 975 L-352994 975 L-352588 975 L-351543 975 L-351408 975 L-349725 975 L-349705 975 L-348369 974 L-347132 974 L-346978 974 L-346604 974 L-346398 974 L-346088 974 L-345315 974 L-342993 974 L-342335 974 L-340208 974 L-338485 974 L-338292 973 L-335738 973 L-335462 973 L-335274 973 L-334441 973 L-333669 973 L-332971 973 L-327970 973 L-327594 973 L-323341 973 L-322854 980 L-322835 980 L-322756 980 L-322681 980 L-322661 972 L-321848 972 L-321094 972 L-319875 972 L-318443 972 L-318347 972 L-318173 972 L-317818 972 L-316509 972 L-314652 971 L-312949 971 L-312447 971 L-312181 971 L-311788 971 L-311654 971 L-310744 971 L-310368 971 L-309439 971 L-309100 971 L-309061 971 L-309023 971 L-307107 971 L-306934 971 L-305405 971 L-305077 971 L-304961 971 L-304553 970 L-304205 970 L-302562 970 L-302011 970 L-301768 970 L-301226 970 L-300395 970 L-299853 970 L-298319 970 L-298226 969 L-298190 969 L-298054 969 L-297666 969 L-296642 969 L-294765 969 L-294669 969 L-294069 971 L-293701 974 L-293217 977 L-293179 979 L-292405 979 L-292348 979 L-292173 979 L-291979 979 L-290374 979 L-290354 979 L-290199 979 L-290084 979 L-288904 979 L-288749 979 L-288082 979 L-285634 985 L-283119 992 L-280449 998 L-272750 1004 L-267082 1004 L-264868 1004 L-264845 1004 L-263871 1005 L-263851 1005 L-262987 1005 L-260247 1005 L-254448 1004 L-254295 1003 L-251509 1003 L-237901 1003 L-237155 1003 L-232744 1003 L-216398 1003 L-216166 1003 L-215629 1003 L-207169 1003 L-198464 1002 L-198251 1002 L-196279 1002 L-193493 1002 L-189005 1002 L-188850 1002 L-188681 1002 L-188541 1002 L-188250 1002 L-188211 1002 L-187941 1002 L-187769 1002 L-187359 1002 L-186238 1002 L-185058 1002 L-183781 1002 L-180917 1002 L-177997 1001 L-176005 1001 L-174457 1001 L-171419 1001 L-162095 1001 L-161571 1001 L-155847 1001 L-154340 1001 L-153526 1001 L-151842 1001 L-151121 1001 L-150952 1001 L-149907 1001 L-147840 1000 L-146478 1000 L-142035 1000 L-141938 1000 L-141899 1000 L-141880 1000 L-141047 1000 L-140970 1000 L-138397 1000 L-135148 1000 L-134993 1000 L-134045 1000 L-132304 999 L-131588 1000 L-128048 1000 L-121470 1001 L-120053 1001 L-120032 1001 L-119082 1001 L-115607 1001 L-114854 1001 L-114292 1001 L-113510 1001 L-106006 1001 L-104408 1001 L-102834 1001 L-99649 1000 L-95315 1000 L-86746 1000 L-77999 1000 L-74926 1000 L-71660 1000 L-71113 1000 L-63976 1000 L-58308 1000 L-44244 1000 L-38232 1000 L-33526 1000 L-29523 1000 L-24415 1000 L-14701 1000 L868 999 L3951 999 L4253 966 L4273 924 L4292 877 L4311 824 L4331 800 L4350 780 L4369 761 L4397 743 L4417 725 L4445 706 L4481 685 L4494 667 L4507 652 L4526 639 L4544 630 L4564 621 L4582 611 L4602 602 L4622 592 L4643 582 L4660 572 L4678 563 L4699 553 L4719 544 L4737 534 L4756 524 L4776 513 L4796 503 L4814 493 L4833 483 L4855 474 L4879 465 L4894 456 L4911 448 L4931 439 L4950 430 L4969 421 L4988 412 L5008 403 L5029 394 L5047 386 L5065 378 L5086 371 L5107 364 L5124 358 L5143 352 L5163 347 L5182 341 L5201 336 L5220 331 L5240 327 L5260 323 L5279 319 L5297 315 L5325 310 L5346 305 L5374 299 L5408 292 L5422 287 L5435 282 L5454 278 L5473 275 L5492 271 L5511 266 L5530 262 L5550 257 L5571 253 L5588 250 L5607 246 L5627 242 L5647 237 L5666 232 L5684 226 L5704 220 L5724 214 L5743 208 L5762 202 L5783 195 L5807 188 L5822 181 L5839 174 L5859 167 L5878 160 L5898 153 L5917 145 L5937 138 L5957 131 L5975 124 L5994 118 L6014 111 L6035 105 L6052 99 L6071 93 L6091 88 L6110 83 L6130 78 L6149 73 L6169 68 L6188 63 L6207 58 L6226 53 L6255 48 L6275 44 L6302 39 L6340 33 L6355 28 L6367 23 L6384 18 L6401 15 L6421 11 L6440 8 L6459 6 L6479 3 L6500 0" />
</svg>
