<svg xmlns="http://www.w3.org/2000/svg" version="1.1" viewBox="0 0 6500 1000">
	<path fill="none" stroke="gold" stroke-width="125" stroke-linecap="round" stroke-linejoin="round" d="M0 1035  L-714037 1035 L-711433 1035 L-709765 1035 L-691435 1034 L-691265 1034 L-684107 1034 L-684074 1034 L-670643 1034 L-667721 1034 L-654380 1034 L-650211 1033 L-649051 1033 L-648432 1032 L-646420 1032 L-642649 1031 L-642048 1031 L-641720 1031 L-641507 1031 L-640965 1030 L-639727 1029 L-638548 1028 L-635684 1027 L-635161 1026 L-630306 1026 L-627369 1026 L-627326 1026 L-627017 1026 L-626766 1025 L-624171 1025 L-619915 1025 L-619897 1025 L-618660 1025 L-616783 1025 L-614829 1025 L-613881 1025 L-613611 1024 L-613301 1024 L-613203 1024 L-612372 1024 L-610342 1024 L-610051 1023 L-607905 1023 L-607749 1022 L-604093 1021 L-603842 1022 L-603743 1021 L-603226 1022 L-601075 1022 L-600146 1023 L-598620 1024 L-597381 1024 L-595834 1023 L-592872 1023 L-591751 1023 L-591441 1023 L-590230 1023 L-587223 1024 L-587204 1024 L-586856 1024 L-586643 1024 L-586517 1022 L-586276 1022 L-586238 1021 L-586218 1021 L-586199 1021 L-586140 1021 L-586081 1020 L-586063 1020 L-585620 1020 L-584381 1020 L-582835 1019 L-579447 1019 L-573721 1019 L-573519 1019 L-571884 1019 L-570162 1019 L-568730 1019 L-568497 1019 L-567782 1018 L-561650 1018 L-561282 1018 L-561128 1018 L-560549 1018 L-560257 1017 L-559289 1017 L-558980 1017 L-558381 1017 L-556774 1017 L-556039 1017 L-555729 1017 L-554961 1017 L-552925 1016 L-552500 1016 L-551687 1016 L-544259 1016 L-543736 1016 L-543562 1015 L-542827 1015 L-541259 1015 L-540854 1015 L-538629 1015 L-537681 1014 L-537256 1014 L-536925 1014 L-535882 1014 L-533774 1014 L-533521 1014 L-532903 1013 L-532090 1013 L-529982 1013 L-529933 1013 L-528005 1013 L-527679 1012 L-527544 1012 L-527041 1012 L-525629 1012 L-525126 1011 L-524604 1011 L-521044 1010 L-520309 1010 L-517884 1010 L-516595 1010 L-516188 1010 L-513035 1010 L-512881 1010 L-512860 1010 L-512494 1010 L-511236 1010 L-510521 1010 L-509631 1010 L-509224 1010 L-508295 1010 L-507187 1010 L-506883 1010 L-500634 1011 L-499687 1011 L-498061 1011 L-497559 1011 L-493883 1011 L-493051 1011 L-489098 1012 L-487686 1011 L-485197 1011 L-484520 1011 L-484482 1011 L-483611 1011 L-480400 1010 L-477537 1010 L-476569 1010 L-475447 1010 L-475428 1010 L-473803 1009 L-473339 1009 L-473247 1009 L-466878 1009 L-465929 1009 L-463472 1009 L-462600 1008 L-461364 1008 L-459363 1008 L-458965 1008 L-457529 1008 L-455503 1008 L-455289 1007 L-454109 1007 L-452601 1007 L-452581 1007 L-450568 1007 L-449699 1007 L-448828 1006 L-448243 1006 L-447706 1006 L-447048 1006 L-445810 1005 L-445250 1005 L-444069 1005 L-442831 1005 L-442792 1005 L-442405 1005 L-441864 1005 L-441090 1005 L-439968 1004 L-437879 1004 L-437545 1004 L-437260 1004 L-436331 1004 L-435848 1003 L-435112 1003 L-431481 1003 L-430354 1003 L-430199 1003 L-429173 1003 L-425458 1002 L-424241 1002 L-422422 1002 L-419637 1002 L-419075 1002 L-415187 1002 L-412711 1002 L-411376 1002 L-410872 1001 L-410389 1001 L-407700 1001 L-403928 1001 L-401471 1001 L-400291 1001 L-399652 1001 L-397292 1001 L-397215 1001 L-396168 1001 L-396074 1000 L-395571 1000 L-395126 1000 L-395068 1000 L-394854 1000 L-391895 1000 L-389187 1000 L-389032 1000 L-385512 1000 L-384989 1000 L-384021 999 L-383672 999 L-382629 999 L-381700 999 L-381274 999 L-379765 999 L-378798 998 L-378779 998 L-376883 990 L-376768 981 L-376720 972 L-376695 963 L-373691 963 L-371660 962 L-369900 962 L-369532 962 L-369087 962 L-368720 962 L-368306 961 L-366321 961 L-366108 961 L-365953 961 L-364348 961 L-363226 961 L-362278 961 L-361020 961 L-359376 961 L-358196 960 L-351607 960 L-351560 960 L-351154 960 L-350109 960 L-349974 960 L-348291 960 L-348271 959 L-346934 959 L-345698 959 L-345544 959 L-345170 959 L-344964 959 L-344654 958 L-343881 958 L-341559 958 L-340901 958 L-338774 958 L-337051 958 L-336858 957 L-334304 957 L-334028 957 L-333840 957 L-333007 957 L-332235 957 L-331537 956 L-326536 956 L-326160 956 L-321907 956 L-321420 968 L-321401 968 L-321322 968 L-321247 968 L-321227 956 L-320414 955 L-319660 955 L-318441 955 L-317009 955 L-316913 955 L-316739 955 L-316384 955 L-315075 955 L-313218 954 L-311515 954 L-311013 954 L-310747 954 L-310354 954 L-310220 954 L-309310 954 L-308934 953 L-308005 953 L-307666 953 L-307626 953 L-307589 953 L-305673 953 L-305500 953 L-303971 953 L-303643 953 L-303527 953 L-303119 953 L-302771 953 L-301128 952 L-300577 952 L-300334 952 L-299792 952 L-298961 952 L-298419 952 L-296885 951 L-296792 951 L-296756 951 L-296620 951 L-296232 951 L-295208 951 L-293331 951 L-293235 950 L-292635 954 L-292267 958 L-291783 963 L-291745 967 L-290971 967 L-290913 967 L-290739 967 L-290545 967 L-288940 966 L-288920 966 L-288765 966 L-288650 967 L-287470 967 L-287315 967 L-286648 967 L-284200 977 L-281685 987 L-279015 997 L-271316 1007 L-265648 1007 L-263434 1006 L-263411 1006 L-262437 1009 L-262417 1009 L-261553 1009 L-258813 1009 L-253014 1006 L-252861 1006 L-250075 1006 L-236467 1005 L-235721 1005 L-231310 1005 L-214964 1005 L-214732 1005 L-214195 1005 L-205735 1004 L-197030 1004 L-196817 1004 L-194845 1004 L-192059 1004 L-187571 1004 L-187416 1004 L-187247 1004 L-187107 1004 L-186816 1004 L-186777 1004 L-186507 1003 L-186335 1003 L-185925 1003 L-184804 1003 L-183624 1003 L-182347 1003 L-179483 1003 L-176563 1003 L-174571 1002 L-173023 1002 L-169985 1002 L-160661 1002 L-160137 1002 L-154413 1002 L-152906 1002 L-152092 1002 L-150408 1002 L-149687 1001 L-149518 1001 L-148473 1001 L-146406 1001 L-145044 1001 L-140601 1001 L-140504 1001 L-140465 1001 L-140446 1000 L-139613 1000 L-139536 1000 L-136963 1000 L-133714 1000 L-133559 1000 L-132611 1000 L-130870 999 L-130154 1000 L-126614 1001 L-120036 1001 L-118619 1002 L-118598 1002 L-117648 1002 L-114173 1002 L-113420 1002 L-112858 1002 L-112076 1002 L-104572 1001 L-102974 1001 L-101400 1001 L-98215 1001 L-93881 1001 L-85312 1001 L-76565 1001 L-73492 1001 L-70226 1000 L-69679 1000 L-62542 1000 L-56874 1000 L-42810 1000 L-36798 1000 L-32092 1000 L-28089 1000 L-22981 1000 L-13267 1000 L2302 999 L5385 999 L5687 945 L5707 878 L5726 802 L5745 717 L5765 678 L5784 646 L5803 616 L5831 586 L5851 557 L5879 527 L5915 493 L5928 465 L5941 440 L5960 420 L5978 405 L5998 390 L6016 375 L6036 359 L6056 344 L6077 328 L6094 312 L6112 297 L6133 282 L6153 267 L6171 251 L6190 234 L6210 217 L6230 200 L6248 184 L6267 169 L6289 154 L6313 139 L6328 125 L6345 111 L6365 97 L6384 84 L6403 69 L6422 54 L6442 39 L6463 26 L6481 12 L6500 0" />
</svg>
