<svg xmlns="http://www.w3.org/2000/svg" version="1.1" viewBox="0 0 6500 1000">
	<path fill="none" stroke="gold" stroke-width="125" stroke-linecap="round" stroke-linejoin="round" d="M0 1016  L-717179 1016 L-714575 1016 L-712907 1016 L-694578 1016 L-694407 1016 L-687250 1016 L-687216 1016 L-673786 1016 L-670864 1016 L-657523 1016 L-653354 1016 L-652194 1015 L-651575 1015 L-649563 1015 L-645791 1015 L-645191 1015 L-644862 1014 L-644649 1014 L-644107 1014 L-642869 1014 L-641691 1013 L-638826 1013 L-638304 1012 L-633448 1012 L-630511 1012 L-630468 1012 L-630160 1012 L-629908 1012 L-627313 1012 L-623058 1012 L-623040 1012 L-621803 1012 L-619925 1012 L-617972 1012 L-617024 1011 L-616753 1011 L-616443 1011 L-616345 1011 L-615515 1011 L-613484 1011 L-613194 1011 L-611047 1011 L-610892 1010 L-607235 1010 L-606984 1010 L-606886 1010 L-606369 1010 L-604217 1010 L-603289 1011 L-601763 1011 L-600523 1011 L-598977 1011 L-596015 1011 L-594893 1011 L-594584 1011 L-593373 1011 L-590366 1011 L-590346 1011 L-589999 1011 L-589786 1011 L-589660 1010 L-589418 1010 L-589380 1010 L-589360 1010 L-589341 1010 L-589282 1010 L-589224 1010 L-589206 1009 L-588762 1009 L-587523 1009 L-585977 1009 L-582590 1009 L-576863 1009 L-576662 1009 L-575026 1009 L-573304 1009 L-571872 1009 L-571640 1009 L-570924 1009 L-564792 1009 L-564424 1008 L-564270 1008 L-563692 1008 L-563399 1008 L-562432 1008 L-562122 1008 L-561523 1008 L-559917 1008 L-559182 1008 L-558872 1008 L-558104 1008 L-556068 1008 L-555642 1008 L-554830 1007 L-547401 1007 L-546878 1007 L-546705 1007 L-545969 1007 L-544402 1007 L-543996 1007 L-541771 1007 L-540823 1007 L-540398 1007 L-540068 1007 L-539024 1007 L-536916 1006 L-536664 1006 L-536045 1006 L-535232 1006 L-533124 1006 L-533076 1006 L-531148 1006 L-530822 1006 L-530687 1006 L-530184 1006 L-528771 1005 L-528268 1005 L-527746 1005 L-524187 1005 L-523452 1005 L-521027 1005 L-519737 1004 L-519330 1004 L-516178 1004 L-516023 1004 L-516003 1004 L-515636 1004 L-514378 1005 L-513663 1005 L-512773 1005 L-512366 1005 L-511438 1005 L-510329 1005 L-510026 1005 L-503777 1005 L-502830 1005 L-501203 1005 L-500702 1005 L-497026 1005 L-496193 1005 L-492240 1005 L-490829 1005 L-488339 1005 L-487663 1005 L-487624 1005 L-486753 1005 L-483542 1005 L-480679 1005 L-479711 1005 L-478589 1005 L-478571 1004 L-476946 1004 L-476481 1004 L-476389 1004 L-470020 1004 L-469072 1004 L-466615 1004 L-465742 1004 L-464506 1004 L-462505 1004 L-462107 1004 L-460671 1003 L-458645 1003 L-458432 1003 L-457252 1003 L-455743 1003 L-455723 1003 L-453711 1003 L-452841 1003 L-451970 1003 L-451386 1003 L-450848 1003 L-450191 1003 L-448953 1002 L-448392 1002 L-447211 1002 L-445973 1002 L-445935 1002 L-445548 1002 L-445006 1002 L-444232 1002 L-443110 1002 L-441021 1002 L-440688 1002 L-440402 1002 L-439473 1002 L-438990 1001 L-438255 1001 L-434623 1001 L-433496 1001 L-433341 1001 L-432315 1001 L-428600 1001 L-427383 1001 L-425565 1001 L-422779 1001 L-422217 1001 L-418330 1001 L-415853 1001 L-414518 1001 L-414015 1001 L-413532 1000 L-410842 1000 L-407071 1000 L-404613 1000 L-403434 1000 L-402794 1000 L-400435 1000 L-400357 1000 L-399310 1000 L-399216 1000 L-398714 1000 L-398268 1000 L-398210 1000 L-397997 1000 L-395037 1000 L-392330 1000 L-392175 1000 L-388654 1000 L-388131 1000 L-387164 1000 L-386815 999 L-385771 999 L-384842 999 L-384417 999 L-382908 999 L-381941 999 L-381922 999 L-380026 995 L-379910 991 L-379862 986 L-379838 982 L-376833 982 L-374803 982 L-373042 982 L-372675 982 L-372229 982 L-371862 982 L-371448 982 L-369463 982 L-369250 982 L-369095 981 L-367490 981 L-366368 981 L-365420 981 L-364163 981 L-362518 981 L-361338 981 L-354749 981 L-354702 981 L-354297 981 L-353252 981 L-353116 981 L-351434 981 L-351414 981 L-350077 980 L-348841 980 L-348687 980 L-348313 980 L-348106 980 L-347797 980 L-347023 980 L-344702 980 L-344044 980 L-341916 980 L-340193 980 L-340000 980 L-337447 980 L-337170 980 L-336982 979 L-336150 979 L-335377 979 L-334679 979 L-329679 979 L-329303 979 L-325050 979 L-324563 985 L-324543 985 L-324465 985 L-324389 985 L-324369 979 L-323557 979 L-322803 979 L-321584 979 L-320152 979 L-320056 978 L-319881 978 L-319527 978 L-318217 978 L-316360 978 L-314658 978 L-314155 978 L-313890 978 L-313496 978 L-313362 978 L-312452 978 L-312076 978 L-311148 978 L-310809 978 L-310769 978 L-310731 978 L-308816 978 L-308642 978 L-307113 978 L-306785 978 L-306669 978 L-306262 977 L-305914 977 L-304270 977 L-303719 977 L-303476 977 L-302935 977 L-302103 977 L-301562 977 L-300027 977 L-299935 977 L-299898 977 L-299762 977 L-299375 977 L-298350 976 L-296474 976 L-296377 976 L-295777 978 L-295410 980 L-294925 982 L-294887 984 L-294113 984 L-294056 984 L-293881 984 L-293688 984 L-292082 984 L-292063 984 L-291907 984 L-291792 984 L-290612 984 L-290458 984 L-289791 984 L-287342 989 L-284828 994 L-282158 998 L-274459 1003 L-268791 1003 L-266576 1003 L-266553 1003 L-265579 1004 L-265559 1004 L-264696 1004 L-261955 1004 L-256157 1003 L-256003 1003 L-253217 1003 L-239609 1002 L-238863 1002 L-234453 1002 L-218106 1002 L-217874 1002 L-217337 1002 L-208878 1002 L-200172 1002 L-199960 1002 L-197987 1002 L-195201 1002 L-190714 1002 L-190559 1002 L-190390 1002 L-190249 1002 L-189959 1002 L-189920 1002 L-189649 1001 L-189477 1001 L-189067 1001 L-187947 1001 L-186766 1001 L-185490 1001 L-182626 1001 L-179706 1001 L-177714 1001 L-176166 1001 L-173128 1001 L-163803 1001 L-163279 1001 L-157556 1001 L-156049 1001 L-155234 1001 L-153550 1001 L-152829 1001 L-152661 1000 L-151616 1000 L-149549 1000 L-148186 1000 L-143743 1000 L-143646 1000 L-143607 1000 L-143588 1000 L-142756 1000 L-142678 1000 L-140106 1000 L-136856 1000 L-136702 1000 L-135753 1000 L-134012 1000 L-133297 1000 L-129756 1000 L-123179 1001 L-121761 1001 L-121741 1001 L-120790 1001 L-117316 1001 L-116563 1001 L-116001 1001 L-115219 1001 L-107715 1001 L-106116 1000 L-104542 1000 L-101357 1000 L-97024 1000 L-88454 1000 L-79708 1000 L-76634 1000 L-73368 1000 L-72821 1000 L-65684 1000 L-60017 1000 L-45952 1000 L-39941 1000 L-35235 1000 L-31231 1000 L-26124 1000 L-16410 1000 L-839 1000 L2243 999 L2545 974 L2564 942 L2583 906 L2603 866 L2623 847 L2642 832 L2661 818 L2688 804 L2709 790 L2737 776 L2772 760 L2786 746 L2799 735 L2817 725 L2836 718 L2856 711 L2874 703 L2894 696 L2913 689 L2935 681 L2951 674 L2970 666 L2991 659 L3011 652 L3029 645 L3048 637 L3067 629 L3088 621 L3106 613 L3125 606 L3146 599 L3171 592 L3186 585 L3203 579 L3222 572 L3242 566 L3261 559 L3280 551 L3300 544 L3320 538 L3338 532 L3357 526 L3378 520 L3398 515 L3415 511 L3434 506 L3454 502 L3473 498 L3493 494 L3512 490 L3532 487 L3551 484 L3570 481 L3589 478 L3616 474 L3637 470 L3665 465 L3699 460 L3713 456 L3727 453 L3745 450 L3764 447 L3784 444 L3803 440 L3822 437 L3842 434 L3862 431 L3880 428 L3899 425 L3919 422 L3939 418 L3957 414 L3976 410 L3996 405 L4016 401 L4035 396 L4053 392 L4075 386 L4099 381 L4114 375 L4131 370 L4151 365 L4170 360 L4189 354 L4208 348 L4228 343 L4249 337 L4267 332 L4286 327 L4306 322 L4326 317 L4344 313 L4363 309 L4383 304 L4402 301 L4421 297 L4440 293 L4460 289 L4479 285 L4499 282 L4518 278 L4547 274 L4566 271 L4594 267 L4631 263 L4646 259 L4659 255 L4676 251 L4693 249 L4713 246 L4731 244 L4750 242 L4770 240 L4791 237 L4808 235 L4827 232 L4848 230 L4867 227 L4886 224 L4905 221 L4925 218 L4944 214 L4963 211 L4982 208 L5003 204 L5027 201 L5042 198 L5059 194 L5079 191 L5098 188 L5118 184 L5137 180 L5157 177 L5177 173 L5195 170 L5214 167 L5234 163 L5255 160 L5273 158 L5292 155 L5311 152 L5330 149 L5350 146 L5369 143 L5389 141 L5408 138 L5427 136 L5446 133 L5474 130 L5495 127 L5523 124 L5559 120 L5573 116 L5586 112 L5604 109 L5622 107 L5641 105 L5660 102 L5680 99 L5699 97 L5721 93 L5739 90 L5756 87 L5777 83 L5797 79 L5815 75 L5834 70 L5854 66 L5874 62 L5892 58 L5911 55 L5932 53 L5957 50 L5971 48 L5989 46 L6008 44 L6028 42 L6047 40 L6066 37 L6086 35 L6107 34 L6124 32 L6143 30 L6163 27 L6184 25 L6201 22 L6220 20 L6240 18 L6259 17 L6279 15 L6297 14 L6317 13 L6337 11 L6356 9 L6375 8 L6402 6 L6423 5 L6451 4 L6486 2 L6500 0" />
</svg>
