<svg xmlns="http://www.w3.org/2000/svg" version="1.1" viewBox="0 0 6500 1000">
	<path fill="none" stroke="gold" stroke-width="125" stroke-linecap="round" stroke-linejoin="round" d="M0 3440  L-726453 3440 L-723849 3440 L-722181 3440 L-703851 3440 L-703681 3439 L-696523 3439 L-696490 3439 L-683059 3439 L-680137 3439 L-666797 3439 L-662628 3438 L-661468 3437 L-660848 3436 L-658837 3436 L-655065 3436 L-654465 3435 L-654136 3435 L-653923 3435 L-653381 3434 L-652143 3433 L-650964 3432 L-648100 3431 L-647578 3430 L-642722 3429 L-639785 3429 L-639742 3429 L-639434 3428 L-639182 3428 L-636587 3428 L-632331 3428 L-632313 3428 L-631077 3428 L-629199 3428 L-627246 3428 L-626298 3427 L-626027 3427 L-625717 3427 L-625619 3427 L-624789 3427 L-622758 3427 L-622467 3425 L-620321 3425 L-620166 3424 L-616509 3423 L-616258 3423 L-616160 3423 L-615642 3424 L-613491 3424 L-612562 3425 L-611036 3426 L-609797 3426 L-608250 3426 L-605289 3426 L-604167 3425 L-603858 3425 L-602646 3425 L-599640 3426 L-599620 3426 L-599273 3426 L-599060 3426 L-598933 3424 L-598692 3424 L-598654 3423 L-598634 3423 L-598615 3423 L-598556 3422 L-598497 3422 L-598479 3422 L-598036 3421 L-596797 3421 L-595251 3421 L-591863 3421 L-586137 3420 L-585936 3420 L-584300 3420 L-582578 3420 L-581146 3420 L-580913 3420 L-580198 3419 L-574066 3419 L-573698 3419 L-573544 3419 L-572965 3418 L-572673 3418 L-571706 3418 L-571396 3417 L-570797 3417 L-569191 3417 L-568456 3417 L-568146 3417 L-567377 3417 L-565341 3417 L-564916 3417 L-564103 3417 L-556675 3416 L-556152 3416 L-555978 3416 L-555243 3415 L-553676 3415 L-553270 3415 L-551045 3415 L-550097 3414 L-549672 3414 L-549342 3414 L-548298 3414 L-546190 3414 L-545938 3414 L-545319 3413 L-544506 3413 L-542398 3413 L-542350 3412 L-540421 3412 L-540096 3412 L-539961 3412 L-539458 3411 L-538045 3411 L-537542 3411 L-537020 3410 L-533460 3409 L-532725 3409 L-530301 3409 L-529011 3409 L-528604 3408 L-525452 3408 L-525297 3408 L-525277 3409 L-524910 3409 L-523652 3409 L-522937 3409 L-522047 3409 L-521640 3409 L-520711 3409 L-519603 3409 L-519299 3409 L-513051 3410 L-512103 3410 L-510477 3410 L-509975 3410 L-506300 3411 L-505467 3411 L-501514 3411 L-500102 3410 L-497613 3410 L-496937 3410 L-496898 3410 L-496027 3410 L-492816 3409 L-489953 3409 L-488985 3409 L-487863 3409 L-487844 3409 L-486219 3408 L-485755 3408 L-485663 3408 L-479294 3407 L-478346 3407 L-475888 3407 L-475016 3407 L-473780 3407 L-471779 3407 L-471381 3406 L-469945 3406 L-467919 3406 L-467706 3406 L-466526 3405 L-465017 3405 L-464997 3405 L-462985 3405 L-462115 3405 L-461244 3404 L-460659 3404 L-460122 3404 L-459465 3404 L-458226 3403 L-457666 3403 L-456485 3403 L-455247 3403 L-455209 3403 L-454822 3402 L-454280 3402 L-453506 3402 L-452384 3402 L-450295 3402 L-449962 3401 L-449676 3401 L-448747 3401 L-448264 3401 L-447529 3400 L-443897 3400 L-442770 3400 L-442615 3400 L-441589 3400 L-437874 3399 L-436657 3399 L-434838 3399 L-432053 3399 L-431491 3398 L-427603 3398 L-425127 3398 L-423792 3398 L-423289 3398 L-422805 3398 L-420116 3398 L-416344 3398 L-413887 3398 L-412707 3398 L-412068 3398 L-409709 3397 L-409631 3397 L-408584 3397 L-408490 3397 L-407987 3397 L-407542 3397 L-407484 3397 L-407271 3397 L-404311 3397 L-401603 3396 L-401449 3396 L-397928 3396 L-397405 3396 L-396438 3396 L-396088 3395 L-395045 3395 L-394116 3395 L-393691 3395 L-392182 3395 L-391215 3394 L-391196 3394 L-389300 3383 L-389184 3372 L-389136 3361 L-389111 3349 L-386107 3349 L-384077 3349 L-382316 3349 L-381949 3349 L-381503 3348 L-381136 3348 L-380722 3348 L-378737 3348 L-378524 3348 L-378369 3348 L-376764 3348 L-375642 3347 L-374694 3347 L-373437 3347 L-371792 3347 L-370612 3347 L-364023 3346 L-363976 3346 L-363571 3346 L-362525 3346 L-362390 3346 L-360707 3345 L-360688 3345 L-359351 3345 L-358115 3345 L-357960 3345 L-357586 3344 L-357380 3344 L-357071 3344 L-356297 3344 L-353975 3344 L-353318 3344 L-351190 3343 L-349467 3343 L-349274 3343 L-346721 3343 L-346444 3342 L-346256 3342 L-345424 3342 L-344651 3342 L-343953 3342 L-338952 3342 L-338577 3341 L-334324 3341 L-333837 3356 L-333817 3356 L-333738 3356 L-333663 3356 L-333643 3340 L-332830 3340 L-332077 3340 L-330857 3340 L-329426 3340 L-329329 3340 L-329155 3340 L-328800 3339 L-327491 3339 L-325634 3339 L-323932 3339 L-323429 3339 L-323163 3339 L-322770 3338 L-322636 3338 L-321726 3338 L-321350 3338 L-320421 3338 L-320082 3338 L-320043 3338 L-320005 3338 L-318090 3338 L-317916 3337 L-316387 3337 L-316059 3337 L-315943 3337 L-315536 3337 L-315188 3337 L-313544 3336 L-312993 3336 L-312750 3336 L-312208 3336 L-311377 3336 L-310835 3335 L-309301 3335 L-309209 3335 L-309172 3335 L-309036 3335 L-308649 3335 L-307624 3334 L-305747 3334 L-305651 3334 L-305051 3339 L-304684 3344 L-304199 3349 L-304161 3355 L-303387 3355 L-303330 3355 L-303155 3354 L-302962 3354 L-301356 3354 L-301336 3354 L-301181 3354 L-301066 3354 L-299886 3354 L-299731 3355 L-299064 3355 L-296616 3367 L-294101 3380 L-291432 3392 L-283732 3405 L-278065 3405 L-275850 3404 L-275827 3404 L-274853 3407 L-274833 3407 L-273969 3407 L-271229 3407 L-265431 3404 L-265277 3404 L-262491 3403 L-248883 3403 L-248137 3403 L-243726 3403 L-227380 3402 L-227148 3402 L-226611 3402 L-218151 3402 L-209446 3402 L-209234 3402 L-207261 3401 L-204475 3401 L-199987 3402 L-199833 3401 L-199663 3401 L-199523 3401 L-199232 3401 L-199194 3401 L-198923 3401 L-198751 3401 L-198341 3400 L-197221 3400 L-196040 3400 L-194763 3400 L-191900 3400 L-188979 3400 L-186987 3399 L-185440 3399 L-182402 3399 L-173077 3399 L-172553 3399 L-166829 3399 L-165322 3399 L-164508 3399 L-162824 3398 L-162103 3398 L-161935 3398 L-160890 3398 L-158822 3398 L-157460 3397 L-153017 3397 L-152920 3397 L-152881 3397 L-152862 3397 L-152030 3397 L-151952 3396 L-149380 3396 L-146130 3396 L-145975 3396 L-145027 3396 L-143286 3396 L-142571 3396 L-139030 3397 L-132453 3398 L-131035 3399 L-131014 3399 L-130064 3399 L-126590 3399 L-125836 3399 L-125275 3398 L-124493 3398 L-116988 3398 L-115390 3398 L-113816 3398 L-110631 3398 L-106298 3397 L-97728 3397 L-88982 3397 L-85908 3397 L-82642 3397 L-82095 3397 L-74958 3397 L-69290 3397 L-55226 3397 L-49215 3397 L-44508 3397 L-40505 3396 L-35398 3396 L-25684 3396 L-10113 3396 L-7030 3395 L-6728 3327 L-6708 3243 L-6690 3148 L-6670 3041 L-6650 2992 L-6631 2951 L-6612 2914 L-6585 2876 L-6564 2840 L-6536 2802 L-6501 2760 L-6487 2724 L-6474 2694 L-6455 2668 L-6437 2649 L-6417 2630 L-6399 2611 L-6379 2591 L-6359 2572 L-6338 2552 L-6321 2532 L-6303 2513 L-6282 2494 L-6262 2475 L-6244 2455 L-6225 2434 L-6205 2413 L-6185 2392 L-6167 2371 L-6148 2352 L-6127 2334 L-6102 2315 L-6087 2298 L-6070 2280 L-6051 2262 L-6031 2245 L-6012 2227 L-5993 2208 L-5973 2190 L-5952 2172 L-5935 2156 L-5916 2140 L-5895 2126 L-5875 2112 L-5857 2100 L-5838 2088 L-5818 2076 L-5800 2065 L-5780 2055 L-5761 2045 L-5741 2037 L-5722 2029 L-5702 2020 L-5684 2012 L-5656 2002 L-5635 1992 L-5608 1980 L-5574 1967 L-5559 1956 L-5546 1947 L-5528 1938 L-5509 1931 L-5489 1923 L-5470 1914 L-5451 1905 L-5431 1896 L-5410 1888 L-5393 1880 L-5374 1872 L-5354 1864 L-5334 1854 L-5315 1844 L-5297 1832 L-5277 1820 L-5257 1808 L-5238 1796 L-5219 1784 L-5198 1770 L-5174 1755 L-5159 1741 L-5142 1727 L-5122 1713 L-5103 1699 L-5083 1685 L-5065 1670 L-5045 1655 L-5024 1641 L-5006 1627 L-4987 1614 L-4967 1601 L-4947 1588 L-4929 1576 L-4910 1565 L-4890 1553 L-4871 1543 L-4851 1533 L-4833 1523 L-4813 1513 L-4793 1503 L-4774 1493 L-4755 1483 L-4726 1473 L-4707 1464 L-4679 1454 L-4642 1443 L-4627 1432 L-4614 1422 L-4597 1412 L-4580 1405 L-4560 1399 L-4542 1393 L-4522 1387 L-4502 1382 L-4482 1376 L-4464 1369 L-4446 1363 L-4425 1356 L-4405 1349 L-4387 1341 L-4368 1333 L-4348 1324 L-4329 1315 L-4310 1306 L-4291 1297 L-4270 1288 L-4245 1279 L-4231 1271 L-4214 1262 L-4194 1252 L-4175 1244 L-4155 1234 L-4136 1224 L-4116 1215 L-4096 1206 L-4077 1196 L-4059 1188 L-4038 1180 L-4018 1172 L-4000 1165 L-3981 1157 L-3961 1149 L-3943 1142 L-3923 1134 L-3904 1127 L-3884 1120 L-3865 1113 L-3845 1106 L-3826 1099 L-3798 1092 L-3778 1084 L-3750 1076 L-3714 1065 L-3700 1054 L-3687 1045 L-3669 1036 L-3651 1030 L-3631 1025 L-3613 1018 L-3593 1010 L-3573 1002 L-3552 994 L-3534 985 L-3517 976 L-3496 966 L-3476 955 L-3458 945 L-3439 933 L-3419 922 L-3399 911 L-3381 901 L-3362 892 L-3341 886 L-3316 880 L-3301 875 L-3284 869 L-3265 864 L-3245 858 L-3226 851 L-3207 846 L-3187 840 L-3166 836 L-3149 831 L-3130 826 L-3109 819 L-3089 812 L-3072 804 L-3053 799 L-3033 794 L-3014 791 L-2994 787 L-2975 784 L-2955 780 L-2936 776 L-2917 771 L-2898 768 L-2870 764 L-2850 760 L-2822 756 L-2787 751 L-2773 747 L-2760 743 L-2741 740 L-2723 737 L-2703 734 L-2684 731 L-2665 728 L-2645 725 L-2624 722 L-2607 719 L-2588 716 L-2568 713 L-2548 709 L-2530 705 L-2511 702 L-2491 700 L-2471 697 L-2452 694 L-2434 691 L-2412 688 L-2387 685 L-2373 683 L-2356 680 L-2336 677 L-2317 675 L-2298 672 L-2279 668 L-2259 665 L-2238 662 L-2220 659 L-2201 656 L-2181 653 L-2160 650 L-2143 648 L-2124 645 L-2104 643 L-2085 640 L-2065 638 L-2047 636 L-2027 634 L-2007 632 L-1988 630 L-1969 633 L-1941 636 L-1921 639 L-1893 642 L-1856 639 L-1840 637 L-1828 635 L-1810 633 L-1794 632 L-1774 630 L-1756 629 L-1736 627 L-1716 625 L-1695 624 L-1678 622 L-1660 621 L-1639 619 L-1619 617 L-1601 615 L-1582 614 L-1562 612 L-1542 610 L-1524 608 L-1505 607 L-1484 605 L-1459 604 L-1445 602 L-1427 600 L-1408 599 L-1388 597 L-1369 595 L-1350 593 L-1330 591 L-1309 589 L-1292 586 L-1273 584 L-1252 581 L-1232 579 L-1214 577 L-1195 575 L-1176 573 L-1157 571 L-1137 569 L-1118 566 L-1098 564 L-1079 562 L-1059 561 L-1041 559 L-1013 557 L-993 555 L-965 553 L-930 550 L-916 548 L-903 546 L-884 544 L-866 543 L-845 541 L-827 539 L-808 537 L-788 535 L-767 534 L-750 532 L-731 530 L-711 528 L-691 526 L-672 523 L-654 520 L-634 517 L-613 514 L-595 511 L-577 509 L-555 507 L-530 504 L-516 501 L-498 498 L-479 496 L-460 493 L-441 490 L-421 487 L-401 485 L-381 482 L-363 480 L-344 478 L-324 475 L-303 473 L-286 471 L-267 469 L-247 468 L-228 466 L-208 464 L-190 463 L-170 462 L-150 460 L-131 459 L-112 458 L-85 456 L-64 455 L-36 453 L-1 450 L12 448 L25 445 L44 443 L62 441 L82 439 L100 438 L120 436 L140 434 L161 433 L178 431 L196 429 L217 427 L237 425 L255 422 L274 420 L294 418 L314 416 L332 414 L351 412 L372 411 L397 409 L412 407 L429 405 L448 403 L468 402 L487 399 L506 397 L526 394 L547 391 L564 388 L583 386 L604 384 L625 382 L642 380 L661 379 L681 377 L700 376 L719 375 L738 373 L758 372 L777 371 L797 370 L815 368 L843 367 L864 366 L891 364 L926 363 L940 362 L953 361 L972 360 L990 359 L1010 358 L1029 356 L1048 356 L1068 355 L1089 354 L1106 353 L1125 352 L1145 351 L1165 349 L1183 348 L1202 347 L1222 346 L1242 346 L1261 345 L1280 344 L1301 343 L1325 342 L1340 341 L1357 340 L1377 339 L1396 338 L1416 337 L1434 336 L1454 335 L1475 333 L1493 331 L1512 329 L1532 326 L1553 325 L1570 323 L1589 322 L1609 320 L1628 319 L1648 317 L1666 316 L1686 315 L1706 314 L1725 313 L1744 312 L1773 311 L1820 310 L1857 309 L1872 307 L1885 306 L1902 306 L1919 305 L1939 305 L1957 304 L1977 303 L1997 302 L2017 301 L2035 301 L2053 300 L2074 299 L2093 299 L2112 298 L2131 297 L2151 296 L2171 295 L2189 294 L2208 292 L2229 291 L2254 289 L2268 287 L2286 286 L2305 284 L2324 283 L2344 281 L2363 280 L2383 279 L2404 277 L2421 275 L2440 274 L2461 273 L2481 272 L2499 271 L2518 270 L2538 269 L2556 268 L2576 267 L2595 265 L2615 264 L2634 263 L2654 262 L2673 261 L2701 260 L2721 259 L2749 257 L2786 255 L2800 252 L2813 250 L2830 248 L2848 247 L2868 246 L2886 245 L2906 244 L2926 243 L2947 242 L2964 241 L2982 240 L3003 238 L3023 237 L3041 235 L3060 233 L3080 230 L3100 228 L3118 227 L3137 225 L3158 223 L3183 222 L3198 220 L3216 219 L3234 217 L3254 216 L3273 215 L3292 213 L3312 211 L3333 210 L3350 208 L3369 207 L3390 205 L3411 204 L3427 203 L3446 202 L3466 200 L3485 199 L3505 198 L3524 197 L3543 196 L3564 195 L3582 194 L3601 193 L3629 997 L3649 996 L3677 994 L3713 993 L3727 186 L3741 184 L3758 183 L3776 182 L3796 181 L3814 180 L3834 180 L3854 178 L3875 176 L3892 175 L3911 173 L3931 171 L3951 170 L3969 167 L3989 165 L4008 163 L4029 161 L4046 160 L4065 159 L4087 158 L4112 156 L4127 154 L4156 152 L4196 149 L4219 147 L4249 144 L4265 142 L4279 140 L4298 138 L4318 137 L4339 136 L4356 135 L4375 134 L4395 133 L4414 132 L4434 131 L4452 131 L4472 130 L4492 129 L4511 128 L4530 127 L4557 126 L4578 125 L4606 124 L4641 122 L4655 121 L4686 120 L4705 119 L4725 118 L4743 117 L4763 116 L4783 116 L4804 115 L4820 114 L4839 112 L4860 109 L4880 105 L4898 101 L4917 98 L4937 95 L4957 92 L4975 90 L4994 89 L5015 87 L5040 86 L5055 84 L5073 83 L5091 81 L5111 80 L5130 78 L5150 77 L5169 75 L5190 74 L5207 72 L5226 70 L5247 69 L5268 68 L5284 67 L5304 66 L5324 65 L5343 64 L5362 63 L5381 62 L5401 61 L5421 59 L5439 59 L5458 58 L5486 57 L5507 56 L5577 54 L5605 51 L5619 49 L5633 46 L5653 45 L5672 44 L5691 42 L5711 41 L5732 39 L5749 38 L5768 37 L5788 37 L5808 36 L5827 35 L5846 34 L5865 32 L5886 30 L5904 29 L5922 28 L5944 27 L5969 26 L5984 25 L6001 24 L6020 22 L6040 20 L6059 19 L6078 18 L6098 17 L6119 16 L6136 15 L6155 14 L6175 13 L6197 12 L6213 10 L6271 9 L6291 8 L6309 7 L6329 6 L6349 5 L6368 5 L6387 4 L6415 3 L6435 3 L6463 2 L6500 1" />
</svg>
