<svg xmlns="http://www.w3.org/2000/svg" version="1.1" viewBox="0 0 6500 1000">
	<path fill="none" stroke="gold" stroke-width="125" stroke-linecap="round" stroke-linejoin="round" d="M0 1405  L-720093 1405 L-717489 1405 L-715821 1405 L-697492 1404 L-697321 1404 L-690164 1404 L-690130 1404 L-676699 1404 L-673778 1404 L-660437 1404 L-656268 1404 L-655108 1403 L-654489 1403 L-652477 1403 L-648705 1403 L-648105 1403 L-647776 1402 L-647563 1402 L-647021 1402 L-645783 1402 L-644604 1401 L-641740 1400 L-641218 1400 L-636362 1400 L-633425 1400 L-633382 1399 L-633074 1399 L-632822 1399 L-630227 1399 L-625972 1399 L-625954 1399 L-624717 1399 L-622839 1399 L-620886 1399 L-619938 1399 L-619667 1399 L-619357 1398 L-619259 1398 L-618429 1398 L-616398 1398 L-616108 1398 L-613961 1398 L-613806 1397 L-610149 1397 L-609898 1397 L-609800 1397 L-609283 1397 L-607131 1397 L-606203 1398 L-604677 1398 L-603437 1398 L-601891 1398 L-598929 1398 L-597807 1398 L-597498 1398 L-596287 1398 L-593280 1398 L-593260 1398 L-592913 1398 L-592700 1398 L-592574 1397 L-592332 1397 L-592294 1397 L-592274 1397 L-592255 1397 L-592196 1396 L-592138 1396 L-592120 1396 L-591676 1396 L-590437 1396 L-588891 1396 L-585504 1396 L-579777 1395 L-579576 1395 L-577940 1395 L-576218 1395 L-574786 1395 L-574554 1395 L-573838 1395 L-567706 1395 L-567338 1395 L-567184 1395 L-566606 1395 L-566313 1394 L-565346 1394 L-565036 1394 L-564437 1394 L-562831 1394 L-562096 1394 L-561786 1394 L-561018 1394 L-558981 1394 L-558556 1394 L-557744 1394 L-550315 1394 L-549792 1393 L-549618 1393 L-548883 1393 L-547316 1393 L-546910 1393 L-544685 1393 L-543737 1393 L-543312 1393 L-542982 1393 L-541938 1393 L-539830 1392 L-539578 1392 L-538959 1392 L-538146 1392 L-536038 1392 L-535990 1392 L-534062 1392 L-533736 1392 L-533601 1391 L-533098 1391 L-531685 1391 L-531182 1391 L-530660 1391 L-527101 1390 L-526366 1390 L-523941 1390 L-522651 1390 L-522244 1390 L-519092 1390 L-518937 1390 L-518917 1390 L-518550 1390 L-517292 1390 L-516577 1390 L-515687 1390 L-515280 1390 L-514352 1390 L-513243 1390 L-512940 1390 L-506691 1390 L-505744 1391 L-504117 1391 L-503616 1391 L-499940 1391 L-499107 1391 L-495154 1391 L-493743 1391 L-491253 1391 L-490577 1391 L-490538 1390 L-489667 1390 L-486456 1390 L-483593 1390 L-482625 1390 L-481503 1390 L-481484 1390 L-479859 1390 L-479395 1390 L-479303 1390 L-472934 1389 L-471986 1389 L-469529 1389 L-468656 1389 L-467420 1389 L-465419 1389 L-465021 1389 L-463585 1389 L-461559 1389 L-461346 1389 L-460166 1388 L-458657 1388 L-458637 1388 L-456625 1388 L-455755 1388 L-454884 1388 L-454300 1388 L-453762 1388 L-453105 1388 L-451867 1387 L-451306 1387 L-450125 1387 L-448887 1387 L-448849 1387 L-448462 1387 L-447920 1387 L-447146 1387 L-446024 1387 L-443935 1387 L-443602 1387 L-443316 1386 L-442387 1386 L-441904 1386 L-441169 1386 L-437537 1386 L-436410 1386 L-436255 1386 L-435229 1386 L-431514 1386 L-430297 1386 L-428479 1385 L-425693 1385 L-425131 1385 L-421244 1385 L-418767 1385 L-417432 1385 L-416929 1385 L-416446 1385 L-413756 1385 L-409985 1385 L-407527 1385 L-406348 1385 L-405708 1385 L-403349 1385 L-403271 1385 L-402224 1385 L-402130 1385 L-401628 1385 L-401182 1385 L-401124 1385 L-400911 1385 L-397951 1384 L-395244 1384 L-395089 1384 L-391568 1384 L-391045 1384 L-390078 1384 L-389729 1384 L-388685 1384 L-387756 1384 L-387331 1383 L-385822 1383 L-384855 1383 L-384836 1383 L-382940 1378 L-382824 1373 L-382776 1368 L-382752 1362 L-379747 1362 L-377717 1362 L-375956 1362 L-375589 1362 L-375143 1362 L-374776 1362 L-374362 1362 L-372377 1362 L-372164 1362 L-372009 1361 L-370404 1361 L-369282 1361 L-368334 1361 L-367077 1361 L-365432 1361 L-364252 1361 L-357663 1361 L-357616 1361 L-357211 1361 L-356166 1361 L-356030 1361 L-354348 1360 L-354328 1360 L-352991 1360 L-351755 1360 L-351600 1360 L-351227 1360 L-351020 1360 L-350711 1360 L-349937 1360 L-347615 1360 L-346958 1360 L-344830 1359 L-343107 1359 L-342914 1359 L-340361 1359 L-340084 1359 L-339896 1359 L-339064 1359 L-338291 1359 L-337593 1359 L-332593 1359 L-332217 1359 L-327964 1359 L-327477 1366 L-327457 1366 L-327378 1365 L-327303 1365 L-327283 1358 L-326471 1358 L-325717 1358 L-324498 1358 L-323066 1358 L-322970 1358 L-322795 1358 L-322441 1358 L-321131 1358 L-319274 1358 L-317572 1357 L-317069 1357 L-316804 1357 L-316410 1357 L-316276 1357 L-315366 1357 L-314990 1357 L-314062 1357 L-313722 1357 L-313683 1357 L-313645 1357 L-311730 1357 L-311556 1357 L-310027 1357 L-309699 1357 L-309583 1357 L-309176 1356 L-308828 1356 L-307184 1356 L-306633 1356 L-306390 1356 L-305849 1356 L-305017 1356 L-304476 1356 L-302941 1356 L-302849 1356 L-302812 1356 L-302676 1355 L-302289 1355 L-301264 1355 L-299388 1355 L-299291 1355 L-298691 1357 L-298324 1360 L-297839 1362 L-297801 1365 L-297027 1365 L-296970 1365 L-296795 1365 L-296602 1365 L-294996 1364 L-294977 1364 L-294821 1365 L-294706 1365 L-293526 1365 L-293372 1365 L-292705 1365 L-290256 1371 L-287742 1377 L-285072 1382 L-277373 1388 L-271705 1388 L-269490 1388 L-269467 1388 L-268493 1389 L-268473 1389 L-267609 1389 L-264869 1389 L-259071 1388 L-258917 1388 L-256131 1388 L-242523 1387 L-241777 1387 L-237367 1387 L-221020 1387 L-220788 1387 L-220251 1387 L-211792 1387 L-203086 1387 L-202874 1387 L-200901 1387 L-198115 1387 L-193628 1387 L-193473 1387 L-193304 1387 L-193163 1387 L-192873 1386 L-192834 1386 L-192563 1386 L-192391 1386 L-191981 1386 L-190861 1386 L-189680 1386 L-188404 1386 L-185540 1386 L-182620 1386 L-180628 1386 L-179080 1386 L-176042 1385 L-166717 1385 L-166193 1385 L-160470 1385 L-158963 1385 L-158148 1385 L-156464 1385 L-155743 1385 L-155575 1385 L-154530 1385 L-152462 1385 L-151100 1385 L-146657 1385 L-146560 1385 L-146521 1385 L-146502 1385 L-145670 1384 L-145592 1384 L-143020 1384 L-139770 1384 L-139616 1384 L-138667 1384 L-136926 1384 L-136211 1384 L-132670 1385 L-126093 1385 L-124675 1386 L-124655 1386 L-123704 1385 L-120230 1385 L-119477 1385 L-118915 1385 L-118133 1385 L-110629 1385 L-109030 1385 L-107456 1385 L-104271 1385 L-99938 1385 L-91368 1385 L-82622 1385 L-79548 1385 L-76282 1385 L-75735 1384 L-68598 1384 L-62931 1384 L-48866 1384 L-42855 1384 L-38148 1384 L-34145 1384 L-29038 1384 L-19324 1384 L-3753 1384 L-670 1384 L-368 1352 L-349 1313 L-330 1268 L-310 1218 L-290 1195 L-271 1176 L-252 1159 L-225 1141 L-204 1124 L-176 1107 L-141 1087 L-127 1070 L-114 1056 L-96 1044 L-77 1035 L-57 1026 L-39 1017 L-19 1008 L0 999 L21 990 L37 980 L56 971 L77 963 L97 954 L115 944 L134 935 L154 925 L174 915 L192 905 L211 896 L232 888 L257 879 L272 871 L289 863 L308 854 L328 846 L347 838 L366 829 L386 820 L406 812 L424 805 L443 797 L464 790 L484 784 L501 778 L520 773 L540 767 L559 762 L579 757 L598 753 L618 749 L637 745 L657 741 L675 738 L703 733 L723 728 L751 722 L785 716 L799 711 L813 707 L831 703 L850 699 L870 696 L889 692 L908 687 L928 683 L949 679 L966 676 L985 672 L1005 668 L1025 664 L1043 659 L1062 653 L1082 648 L1102 642 L1121 637 L1139 631 L1161 624 L1185 618 L1200 611 L1217 604 L1237 598 L1256 591 L1275 585 L1294 577 L1314 571 L1335 564 L1353 558 L1372 551 L1392 545 L1412 539 L1430 533 L1449 528 L1469 523 L1488 518 L1508 514 L1526 509 L1546 504 L1565 499 L1585 495 L1604 490 L1633 485 L1652 481 L1680 477 L1717 471 L1732 466 L1745 461 L1762 457 L1779 454 L1799 451 L1817 448 L1836 445 L1856 443 L1877 440 L1894 437 L1913 434 L1934 431 L1953 427 L1972 424 L1991 420 L2011 416 L2030 412 L2049 407 L2068 403 L2089 399 L2113 395 L2128 391 L2145 387 L2165 382 L2184 378 L2204 374 L2223 369 L2243 365 L2263 361 L2281 356 L2300 352 L2320 348 L2341 345 L2359 341 L2378 338 L2398 334 L2416 331 L2436 327 L2455 324 L2475 320 L2494 317 L2513 314 L2532 311 L2561 307 L2581 304 L2609 300 L2645 295 L2659 290 L2672 285 L2690 281 L2708 279 L2728 276 L2746 273 L2766 269 L2785 266 L2807 262 L2825 257 L2842 253 L2863 249 L2883 244 L2901 239 L2920 233 L2940 228 L2960 223 L2978 218 L2997 214 L3018 211 L3043 208 L3057 206 L3075 203 L3094 201 L3114 198 L3133 195 L3152 192 L3172 190 L3193 188 L3210 186 L3229 183 L3249 180 L3270 176 L3287 173 L3306 170 L3326 168 L3345 167 L3365 165 L3384 163 L3403 162 L3423 160 L3442 158 L3461 156 L3488 154 L3509 152 L3537 150 L3572 148 L3586 146 L3599 144 L3618 143 L3636 141 L3656 140 L3674 139 L3694 137 L3714 136 L3735 135 L3752 133 L3770 132 L3791 130 L3811 129 L3829 127 L3848 125 L3868 124 L3888 123 L3906 121 L3925 120 L3946 119 L3971 117 L3986 116 L4003 115 L4023 114 L4042 112 L4061 111 L4080 109 L4100 108 L4121 106 L4138 105 L4157 104 L4178 102 L4198 101 L4216 100 L4235 99 L4255 97 L4273 96 L4293 95 L4312 94 L4332 93 L4351 92 L4371 92 L4389 93 L4418 95 L4438 96 L4466 97 L4503 96 L4518 95 L4531 94 L4549 93 L4565 93 L4585 92 L4603 91 L4623 90 L4642 89 L4664 89 L4680 88 L4699 87 L4720 86 L4740 86 L4758 85 L4777 84 L4796 83 L4817 82 L4835 81 L4854 81 L4875 80 L4900 79 L4914 79 L4932 78 L4951 77 L4971 76 L4990 75 L5009 74 L5029 73 L5049 72 L5067 71 L5086 70 L5106 69 L5127 68 L5144 67 L5163 66 L5183 65 L5202 64 L5222 63 L5241 62 L5261 61 L5280 60 L5299 59 L5318 58 L5346 57 L5366 56 L5394 55 L5429 54 L5443 53 L5456 52 L5475 52 L5493 51 L5513 50 L5532 49 L5551 48 L5571 47 L5592 47 L5609 46 L5628 45 L5648 44 L5668 43 L5686 42 L5705 40 L5725 39 L5745 37 L5764 36 L5782 35 L5804 34 L5829 33 L5843 31 L5860 30 L5880 29 L5899 28 L5918 26 L5937 25 L5957 24 L5978 23 L5996 22 L6015 20 L6035 19 L6056 18 L6073 17 L6092 16 L6112 16 L6131 15 L6150 14 L6169 14 L6189 13 L6209 12 L6228 12 L6247 11 L6274 10 L6295 10 L6323 9 L6358 8 L6372 6 L6385 5 L6404 4 L6422 3 L6442 3 L6460 2 L6480 1 L6500 0" />
</svg>
