<svg xmlns="http://www.w3.org/2000/svg" version="1.1" viewBox="0 0 6500 1000">
	<path fill="none" stroke="gold" stroke-width="125" stroke-linecap="round" stroke-linejoin="round" d="M0 4930  L-723152 4930 L-720548 4930 L-718880 4930 L-700550 4929 L-700380 4929 L-693222 4928 L-693189 4928 L-679758 4928 L-676836 4928 L-663495 4927 L-659326 4927 L-658166 4925 L-657547 4924 L-655535 4924 L-651763 4923 L-651163 4923 L-650835 4922 L-650622 4922 L-650080 4921 L-648842 4919 L-647663 4917 L-644799 4916 L-644276 4914 L-639421 4913 L-636484 4913 L-636441 4912 L-636132 4912 L-635880 4911 L-633286 4911 L-629030 4911 L-629012 4911 L-627775 4911 L-625898 4911 L-623944 4911 L-622996 4910 L-622726 4910 L-622416 4909 L-622318 4909 L-621487 4909 L-619456 4909 L-619166 4907 L-617020 4906 L-616864 4905 L-613208 4904 L-612957 4904 L-612858 4904 L-612341 4905 L-610190 4906 L-609261 4907 L-607735 4908 L-606496 4908 L-604949 4908 L-601987 4908 L-600866 4907 L-600556 4907 L-599345 4906 L-596338 4909 L-596319 4909 L-595971 4908 L-595758 4908 L-595632 4905 L-595391 4904 L-595353 4904 L-595333 4904 L-595314 4903 L-595255 4903 L-595196 4902 L-595178 4902 L-594735 4901 L-593496 4901 L-591950 4900 L-588562 4900 L-582836 4900 L-582634 4899 L-580998 4899 L-579277 4899 L-577844 4899 L-577612 4898 L-576897 4898 L-570765 4898 L-570397 4898 L-570242 4897 L-569664 4897 L-569372 4896 L-568404 4896 L-568095 4895 L-567496 4895 L-565889 4895 L-565154 4895 L-564844 4895 L-564076 4895 L-562040 4895 L-561615 4894 L-560802 4894 L-553374 4893 L-552851 4893 L-552677 4892 L-551942 4892 L-550374 4891 L-549969 4891 L-547744 4891 L-546796 4891 L-546371 4890 L-546040 4890 L-544997 4890 L-542889 4890 L-542636 4889 L-542017 4889 L-541205 4888 L-539097 4888 L-539048 4888 L-537120 4887 L-536794 4887 L-536659 4886 L-536156 4886 L-534744 4885 L-534241 4885 L-533719 4884 L-530159 4883 L-529424 4882 L-526999 4882 L-525710 4882 L-525303 4881 L-522150 4881 L-521996 4881 L-521975 4882 L-521609 4882 L-520351 4882 L-519636 4882 L-518746 4882 L-518339 4882 L-517410 4882 L-516301 4882 L-515998 4883 L-509749 4883 L-508802 4884 L-507176 4884 L-506674 4884 L-502998 4885 L-502166 4885 L-498213 4885 L-496801 4884 L-494312 4884 L-493635 4883 L-493597 4883 L-492726 4883 L-489515 4883 L-486651 4883 L-485684 4882 L-484562 4882 L-484543 4882 L-482918 4881 L-482454 4880 L-482362 4880 L-475993 4880 L-475044 4880 L-472587 4879 L-471715 4879 L-470479 4879 L-468477 4878 L-468080 4878 L-466644 4878 L-464618 4877 L-464404 4877 L-463224 4877 L-461716 4876 L-461696 4876 L-459683 4876 L-458814 4875 L-457943 4875 L-457358 4875 L-456821 4874 L-456163 4874 L-454925 4873 L-454365 4873 L-453183 4873 L-451946 4873 L-451907 4872 L-451520 4872 L-450979 4872 L-450205 4872 L-449083 4871 L-446994 4871 L-446660 4870 L-446374 4870 L-445446 4870 L-444963 4869 L-444227 4869 L-440596 4869 L-439468 4869 L-439314 4868 L-438288 4868 L-434573 4868 L-433356 4867 L-431537 4867 L-428751 4866 L-428190 4866 L-424302 4866 L-421826 4866 L-420491 4866 L-419987 4866 L-419504 4865 L-416815 4865 L-413043 4865 L-410586 4865 L-409406 4865 L-408767 4865 L-406407 4865 L-406330 4864 L-405282 4864 L-405189 4864 L-404686 4864 L-404241 4864 L-404183 4864 L-403969 4864 L-401010 4863 L-398302 4863 L-398147 4863 L-394626 4862 L-394104 4862 L-393136 4862 L-392787 4861 L-391744 4861 L-390815 4860 L-390389 4860 L-388880 4860 L-387913 4860 L-387894 4860 L-385998 4843 L-385882 4825 L-385834 4808 L-385810 4791 L-382806 4791 L-380775 4790 L-379014 4790 L-378647 4790 L-378202 4789 L-377835 4789 L-377421 4789 L-375436 4788 L-375223 4788 L-375068 4788 L-373463 4788 L-372341 4788 L-371393 4788 L-370135 4787 L-368491 4787 L-367311 4787 L-360722 4786 L-360675 4786 L-360269 4786 L-359224 4786 L-359089 4785 L-357406 4785 L-357386 4785 L-356049 4784 L-354813 4784 L-354659 4784 L-354285 4783 L-354079 4783 L-353769 4783 L-352996 4782 L-350674 4782 L-350016 4782 L-347888 4782 L-346166 4782 L-345973 4781 L-343419 4781 L-343143 4780 L-342955 4780 L-342122 4780 L-341350 4779 L-340652 4779 L-335651 4779 L-335275 4779 L-331022 4778 L-330535 4801 L-330516 4801 L-330437 4801 L-330362 4801 L-330342 4777 L-329529 4777 L-328775 4777 L-327556 4776 L-326124 4776 L-326028 4776 L-325854 4776 L-325499 4776 L-324190 4775 L-322333 4775 L-320630 4775 L-320127 4775 L-319862 4774 L-319469 4774 L-319335 4774 L-318425 4774 L-318049 4773 L-317120 4773 L-316781 4773 L-316741 4773 L-316704 4773 L-314788 4773 L-314615 4773 L-313086 4773 L-312758 4772 L-312642 4772 L-312234 4772 L-311886 4772 L-310243 4771 L-309692 4771 L-309449 4771 L-308907 4770 L-308076 4770 L-307534 4770 L-306000 4769 L-305907 4769 L-305870 4769 L-305735 4769 L-305347 4768 L-304323 4768 L-302446 4768 L-302350 4768 L-301749 4775 L-301382 4783 L-300898 4791 L-300860 4799 L-300086 4799 L-300028 4799 L-299854 4799 L-299660 4798 L-298055 4798 L-298035 4798 L-297880 4798 L-297764 4798 L-296585 4799 L-296430 4799 L-295763 4799 L-293315 4818 L-290800 4838 L-288130 4857 L-280431 4875 L-274763 4875 L-272549 4875 L-272525 4875 L-271552 4880 L-271532 4880 L-270668 4879 L-267928 4879 L-262129 4874 L-261976 4874 L-259190 4874 L-245582 4873 L-244836 4873 L-240425 4872 L-224079 4872 L-223847 4872 L-223310 4872 L-214850 4871 L-206145 4871 L-205932 4871 L-203960 4871 L-201174 4871 L-196686 4871 L-196531 4871 L-196362 4871 L-196222 4870 L-195931 4870 L-195892 4870 L-195622 4869 L-195450 4869 L-195040 4869 L-193919 4869 L-192739 4869 L-191462 4868 L-188598 4868 L-185678 4868 L-183686 4868 L-182138 4867 L-179100 4867 L-169776 4867 L-169252 4866 L-163528 4866 L-162021 4866 L-161206 4866 L-159523 4866 L-158802 4866 L-158633 4865 L-157588 4865 L-155521 4865 L-154159 4865 L-149716 4864 L-149618 4864 L-149580 4864 L-149561 4864 L-148728 4863 L-148651 4863 L-146078 4863 L-142829 4862 L-142674 4862 L-141726 4862 L-139985 4862 L-139269 4863 L-135729 4864 L-129151 4866 L-127734 4867 L-127713 4867 L-126763 4867 L-123288 4867 L-122535 4866 L-121973 4866 L-121191 4866 L-113687 4866 L-112089 4865 L-110515 4865 L-107329 4865 L-102996 4865 L-94427 4864 L-85680 4864 L-82606 4864 L-79340 4864 L-78794 4863 L-71657 4863 L-65989 4863 L-51925 4863 L-45913 4863 L-41207 4863 L-37204 4863 L-32096 4862 L-22382 4862 L-6812 4862 L-3729 4861 L-3427 4757 L-3407 4628 L-3388 4482 L-3369 4319 L-3349 4245 L-3330 4182 L-3311 4124 L-3283 4067 L-3263 4012 L-3235 3953 L-3199 3889 L-3186 3834 L-3173 3787 L-3154 3748 L-3136 3719 L-3116 3690 L-3097 3661 L-3078 3631 L-3058 3601 L-3037 3570 L-3020 3540 L-3002 3511 L-2981 3482 L-2961 3454 L-2943 3422 L-2924 3391 L-2904 3357 L-2884 3325 L-2865 3294 L-2847 3265 L-2825 3237 L-2801 3208 L-2786 3181 L-2769 3155 L-2749 3128 L-2730 3101 L-2711 3073 L-2692 3044 L-2672 3016 L-2651 2990 L-2633 2964 L-2614 2941 L-2594 2918 L-2573 2897 L-2556 2878 L-2537 2860 L-2517 2843 L-2498 2826 L-2479 2810 L-2460 2795 L-2440 2782 L-2420 2770 L-2401 2757 L-2382 2745 L-2355 2729 L-2334 2713 L-2306 2695 L-2272 2675 L-2258 2659 L-2245 2644 L-2226 2631 L-2207 2620 L-2187 2608 L-2169 2594 L-2150 2581 L-2130 2567 L-2109 2554 L-2092 2543 L-2073 2530 L-2053 2518 L-2033 2503 L-2014 2487 L-1996 2469 L-1976 2451 L-1956 2433 L-1937 2414 L-1918 2395 L-1897 2374 L-1873 2352 L-1858 2329 L-1841 2308 L-1821 2287 L-1802 2266 L-1782 2244 L-1763 2220 L-1743 2198 L-1723 2176 L-1705 2155 L-1686 2134 L-1666 2115 L-1645 2095 L-1628 2076 L-1609 2059 L-1589 2042 L-1570 2027 L-1550 2011 L-1531 1996 L-1511 1981 L-1492 1965 L-1473 1950 L-1454 1935 L-1425 1919 L-1405 1905 L-1378 1891 L-1340 1873 L-1325 1856 L-1313 1841 L-1296 1826 L-1279 1816 L-1259 1806 L-1240 1797 L-1221 1788 L-1201 1780 L-1180 1771 L-1163 1761 L-1144 1750 L-1124 1740 L-1104 1729 L-1086 1717 L-1067 1705 L-1047 1691 L-1027 1678 L-1008 1663 L-990 1650 L-969 1637 L-944 1623 L-930 1610 L-912 1596 L-892 1582 L-873 1568 L-854 1554 L-835 1539 L-815 1524 L-794 1510 L-776 1496 L-757 1483 L-737 1471 L-717 1458 L-699 1447 L-680 1436 L-660 1424 L-641 1412 L-622 1400 L-603 1390 L-583 1379 L-564 1368 L-544 1357 L-525 1346 L-497 1335 L-477 1325 L-449 1312 L-413 1295 L-399 1279 L-386 1264 L-368 1250 L-350 1242 L-330 1233 L-312 1222 L-292 1211 L-272 1199 L-251 1186 L-233 1172 L-216 1158 L-195 1143 L-175 1127 L-157 1111 L-138 1093 L-118 1075 L-98 1059 L-80 1044 L-61 1031 L-40 1021 L-15 1012 L0 1004 L16 996 L35 987 L55 977 L74 968 L93 959 L113 951 L134 944 L151 937 L170 929 L191 919 L212 907 L229 896 L248 887 L268 880 L286 875 L306 870 L325 864 L345 859 L364 852 L384 846 L402 840 L430 834 L451 828 L478 822 L513 814 L527 808 L540 802 L559 797 L578 793 L597 788 L616 783 L635 779 L655 775 L676 770 L693 766 L712 761 L733 756 L753 750 L771 745 L789 740 L809 736 L830 731 L848 727 L867 722 L888 718 L913 714 L927 710 L944 706 L964 702 L983 697 L1003 693 L1022 688 L1041 682 L1062 678 L1080 673 L1099 669 L1119 664 L1140 660 L1157 657 L1176 652 L1196 648 L1215 644 L1235 641 L1253 638 L1274 635 L1293 632 L1312 629 L1331 634 L1360 639 L1379 644 L1407 648 L1445 644 L1460 640 L1473 637 L1490 635 L1506 632 L1526 630 L1544 627 L1564 624 L1584 622 L1605 620 L1622 617 L1640 615 L1661 612 L1681 610 L1699 607 L1718 604 L1738 601 L1758 599 L1776 596 L1795 594 L1816 592 L1841 589 L1856 587 L1873 584 L1893 581 L1912 578 L1931 576 L1950 573 L1970 570 L1991 566 L2008 562 L2027 558 L2048 555 L2069 552 L2086 549 L2105 545 L2125 542 L2144 539 L2163 535 L2182 532 L2202 528 L2222 525 L2241 523 L2259 520 L2287 517 L2308 514 L2336 511 L2371 507 L2384 504 L2397 501 L2416 498 L2435 496 L2455 493 L2473 490 L2493 487 L2512 484 L2533 482 L2550 479 L2569 476 L2590 473 L2610 469 L2628 465 L2647 461 L2666 456 L2687 452 L2705 448 L2724 444 L2745 440 L2770 436 L2785 432 L2802 428 L2821 424 L2841 420 L2860 415 L2879 411 L2899 407 L2920 403 L2937 400 L2956 396 L2977 392 L2997 389 L3014 386 L3033 383 L3053 381 L3072 378 L3092 376 L3111 373 L3130 371 L3150 369 L3169 367 L3188 366 L3216 363 L3236 361 L3264 359 L3300 354 L3313 350 L3327 346 L3345 342 L3363 340 L3383 337 L3402 335 L3421 332 L3441 330 L3462 327 L3479 324 L3498 321 L3518 318 L3538 315 L3556 311 L3575 308 L3595 305 L3616 301 L3633 298 L3652 296 L3674 293 L3699 291 L3713 288 L3730 286 L3750 283 L3769 280 L3788 276 L3807 273 L3827 268 L3849 263 L3866 259 L3885 256 L3905 252 L3926 249 L3943 247 L3962 244 L3982 243 L4001 241 L4020 239 L4039 236 L4059 234 L4079 232 L4098 231 L4117 228 L4144 226 L4165 225 L4193 223 L4227 221 L4241 219 L4254 217 L4273 215 L4292 214 L4311 212 L4330 211 L4349 209 L4369 208 L4390 207 L4407 205 L4426 203 L4446 202 L4466 200 L4485 198 L4503 196 L4524 195 L4544 194 L4562 193 L4581 192 L4602 191 L4627 189 L4641 187 L4659 186 L4678 184 L4697 182 L4717 181 L4736 179 L4756 177 L4776 175 L4794 171 L4813 168 L4833 165 L4854 162 L4872 160 L4891 158 L4910 155 L4929 153 L4949 151 L4968 149 L4988 147 L5007 145 L5026 144 L5045 142 L5074 141 L5122 139 L5158 137 L5173 136 L5186 134 L5203 133 L5220 132 L5240 131 L5259 130 L5278 129 L5298 127 L5318 126 L5336 125 L5355 124 L5375 123 L5395 122 L5413 121 L5432 119 L5452 118 L5472 116 L5490 115 L5509 112 L5531 110 L5555 108 L5570 105 L5587 102 L5607 100 L5626 98 L5645 95 L5664 94 L5684 91 L5705 89 L5723 87 L5742 84 L5762 82 L5782 81 L5800 79 L5819 78 L5839 76 L5858 75 L5878 73 L5896 71 L5916 69 L5936 68 L5955 66 L5974 64 L6002 63 L6022 61 L6050 58 L6087 55 L6101 51 L6114 48 L6132 45 L6149 43 L6169 41 L6187 40 L6207 39 L6227 37 L6248 36 L6265 34 L6283 32 L6304 30 L6324 27 L6342 24 L6361 21 L6381 18 L6402 14 L6419 12 L6438 9 L6459 7 L6484 4 L6500 2" />
</svg>
