<svg xmlns="http://www.w3.org/2000/svg" version="1.1" viewBox="0 0 6500 1000">
	<path fill="none" stroke="gold" stroke-width="125" stroke-linecap="round" stroke-linejoin="round" d="M0 1034  L-714078 1034 L-711474 1034 L-709806 1034 L-691476 1034 L-691306 1033 L-684148 1033 L-684115 1033 L-670684 1033 L-667762 1033 L-654421 1033 L-650252 1032 L-649092 1032 L-648473 1031 L-646461 1031 L-642690 1031 L-642090 1030 L-641761 1030 L-641548 1030 L-641006 1030 L-639768 1029 L-638589 1028 L-635725 1027 L-635203 1026 L-630347 1026 L-627410 1025 L-627367 1025 L-627059 1025 L-626807 1025 L-624212 1024 L-619956 1024 L-619938 1024 L-618702 1024 L-616824 1024 L-614871 1024 L-613923 1024 L-613652 1024 L-613342 1024 L-613244 1024 L-612414 1024 L-610383 1024 L-610092 1023 L-607946 1022 L-607790 1021 L-604134 1021 L-603883 1021 L-603784 1021 L-603267 1021 L-601116 1022 L-600187 1022 L-598661 1023 L-597422 1023 L-595875 1023 L-592914 1023 L-591792 1022 L-591482 1022 L-590271 1022 L-587265 1023 L-587245 1023 L-586898 1023 L-586684 1023 L-586558 1021 L-586317 1021 L-586279 1021 L-586259 1021 L-586240 1020 L-586181 1020 L-586122 1020 L-586104 1020 L-585661 1020 L-584422 1019 L-582876 1019 L-579488 1019 L-573762 1019 L-573560 1019 L-571925 1018 L-570203 1018 L-568771 1018 L-568538 1018 L-567823 1018 L-561691 1018 L-561323 1018 L-561169 1017 L-560590 1017 L-560298 1017 L-559330 1017 L-559021 1016 L-558422 1016 L-556815 1016 L-556080 1016 L-555771 1016 L-555002 1016 L-552966 1016 L-552541 1016 L-551728 1016 L-544300 1016 L-543777 1015 L-543603 1015 L-542868 1015 L-541300 1015 L-540895 1014 L-538670 1014 L-537722 1014 L-537297 1014 L-536967 1014 L-535923 1014 L-533815 1014 L-533563 1013 L-532944 1013 L-532131 1013 L-530023 1013 L-529975 1013 L-528046 1012 L-527721 1012 L-527586 1012 L-527082 1012 L-525670 1011 L-525167 1011 L-524645 1011 L-521085 1010 L-520350 1010 L-517925 1010 L-516636 1009 L-516229 1009 L-513077 1009 L-512922 1009 L-512902 1009 L-512535 1009 L-511277 1010 L-510562 1010 L-509672 1010 L-509265 1010 L-508336 1010 L-507228 1010 L-506924 1010 L-500676 1010 L-499728 1011 L-498102 1011 L-497600 1011 L-493925 1011 L-493092 1011 L-489139 1011 L-487727 1011 L-485238 1011 L-484562 1010 L-484523 1010 L-483652 1010 L-480441 1010 L-477578 1010 L-476610 1010 L-475488 1010 L-475469 1009 L-473844 1009 L-473380 1009 L-473288 1009 L-466919 1009 L-465970 1009 L-463513 1008 L-462641 1008 L-461405 1008 L-459404 1008 L-459006 1008 L-457570 1007 L-455544 1007 L-455330 1007 L-454150 1007 L-452642 1007 L-452622 1007 L-450610 1007 L-449740 1006 L-448869 1006 L-448284 1006 L-447747 1006 L-447089 1006 L-445851 1005 L-445291 1005 L-444110 1005 L-442872 1005 L-442834 1005 L-442447 1005 L-441905 1005 L-441131 1004 L-440009 1004 L-437920 1004 L-437586 1004 L-437301 1004 L-436372 1003 L-435889 1003 L-435153 1003 L-431522 1003 L-430395 1003 L-430240 1003 L-429214 1003 L-425499 1002 L-424282 1002 L-422463 1002 L-419678 1002 L-419116 1002 L-415228 1002 L-412752 1001 L-411417 1001 L-410913 1001 L-410430 1001 L-407741 1001 L-403969 1001 L-401512 1001 L-400332 1001 L-399693 1001 L-397334 1001 L-397256 1001 L-396209 1001 L-396115 1000 L-395612 1000 L-395167 1000 L-395109 1000 L-394895 1000 L-391936 1000 L-389228 1000 L-389073 1000 L-385553 1000 L-385030 1000 L-384062 999 L-383713 999 L-382670 999 L-381741 999 L-381315 999 L-379806 999 L-378840 999 L-378821 998 L-376925 990 L-376809 981 L-376761 972 L-376736 963 L-373732 963 L-371701 963 L-369941 963 L-369574 963 L-369128 963 L-368761 963 L-368347 962 L-366362 962 L-366149 962 L-365994 962 L-364389 962 L-363267 962 L-362319 962 L-361061 962 L-359417 961 L-358237 961 L-351648 961 L-351601 961 L-351195 961 L-350150 961 L-350015 961 L-348332 960 L-348312 960 L-346976 960 L-345739 960 L-345585 960 L-345211 960 L-345005 959 L-344696 959 L-343922 959 L-341600 959 L-340942 959 L-338815 959 L-337092 959 L-336899 958 L-334345 958 L-334069 958 L-333881 958 L-333048 958 L-332276 958 L-331578 957 L-326577 957 L-326201 957 L-321949 957 L-321461 969 L-321442 969 L-321363 969 L-321288 969 L-321268 957 L-320455 956 L-319702 956 L-318482 956 L-317051 956 L-316954 956 L-316780 956 L-316425 956 L-315116 956 L-313259 955 L-311556 955 L-311054 955 L-310788 955 L-310395 955 L-310261 955 L-309351 955 L-308975 954 L-308046 954 L-307707 954 L-307668 954 L-307630 954 L-305714 954 L-305541 954 L-304012 954 L-303684 954 L-303568 954 L-303161 954 L-302812 954 L-301169 953 L-300618 953 L-300375 953 L-299833 953 L-299002 953 L-298460 953 L-296926 952 L-296834 952 L-296797 952 L-296661 952 L-296274 952 L-295249 952 L-293372 952 L-293276 952 L-292676 955 L-292309 959 L-291824 963 L-291786 967 L-291012 968 L-290955 968 L-290780 967 L-290587 967 L-288981 967 L-288961 967 L-288806 967 L-288691 967 L-287511 967 L-287356 968 L-286689 968 L-284241 977 L-281726 987 L-279056 997 L-271357 1006 L-265690 1006 L-263475 1006 L-263452 1006 L-262478 1009 L-262458 1009 L-261594 1008 L-258854 1008 L-253055 1006 L-252902 1006 L-250116 1005 L-236508 1005 L-235762 1005 L-231351 1005 L-215005 1005 L-214773 1005 L-214236 1004 L-205776 1004 L-197071 1004 L-196858 1004 L-194886 1004 L-192100 1004 L-187612 1004 L-187457 1004 L-187288 1004 L-187148 1004 L-186857 1004 L-186819 1003 L-186548 1003 L-186376 1003 L-185966 1003 L-184845 1003 L-183665 1003 L-182388 1003 L-179524 1003 L-176604 1003 L-174612 1002 L-173065 1002 L-170027 1002 L-160702 1002 L-160178 1002 L-154454 1002 L-152947 1002 L-152133 1002 L-150449 1001 L-149728 1001 L-149560 1001 L-148514 1001 L-146447 1001 L-145085 1001 L-140642 1001 L-140545 1001 L-140506 1001 L-140487 1000 L-139655 1000 L-139577 1000 L-137004 1000 L-133755 1000 L-133600 1000 L-132652 1000 L-130911 999 L-130195 1000 L-126655 1001 L-120077 1001 L-118660 1002 L-118639 1002 L-117689 1002 L-114214 1002 L-113461 1002 L-112900 1002 L-112118 1001 L-104613 1001 L-103015 1001 L-101441 1001 L-98256 1001 L-93923 1001 L-85353 1001 L-76607 1001 L-73533 1001 L-70267 1000 L-69720 1000 L-62583 1000 L-56915 1000 L-42851 1000 L-36839 1000 L-32133 1000 L-28130 1000 L-23022 1000 L-13308 1000 L2261 999 L5344 999 L5646 946 L5666 881 L5685 806 L5704 723 L5724 686 L5743 654 L5762 624 L5789 595 L5810 567 L5838 537 L5873 505 L5887 477 L5900 453 L5919 433 L5937 418 L5957 404 L5975 389 L5995 374 L6015 358 L6036 343 L6053 327 L6071 312 L6092 298 L6112 283 L6130 267 L6149 251 L6169 234 L6189 218 L6207 202 L6226 187 L6247 173 L6272 158 L6287 145 L6304 131 L6324 117 L6343 104 L6362 90 L6381 75 L6401 61 L6422 47 L6439 34 L6458 22 L6479 11 L6500 0" />
</svg>
