<svg xmlns="http://www.w3.org/2000/svg" version="1.1" viewBox="0 0 6500 1000">
	<path fill="none" stroke="gold" stroke-width="125" stroke-linecap="round" stroke-linejoin="round" d="M0 3358  L-727542 3358 L-724938 3357 L-723270 3357 L-704941 3357 L-704770 3357 L-697613 3356 L-697579 3356 L-684148 3356 L-681227 3356 L-667886 3356 L-663717 3355 L-662557 3355 L-661938 3354 L-659926 3354 L-656154 3353 L-655554 3353 L-655225 3353 L-655012 3352 L-654470 3352 L-653232 3351 L-652053 3350 L-649189 3349 L-648667 3347 L-643811 3347 L-640874 3347 L-640831 3346 L-640523 3346 L-640271 3346 L-637676 3346 L-633421 3346 L-633403 3346 L-632166 3346 L-630288 3346 L-628335 3345 L-627387 3345 L-627116 3345 L-626806 3345 L-626708 3344 L-625878 3344 L-623847 3345 L-623557 3343 L-621410 3343 L-621255 3342 L-617598 3341 L-617347 3341 L-617249 3341 L-616732 3342 L-614580 3342 L-613652 3343 L-612126 3344 L-610886 3344 L-609340 3344 L-606378 3343 L-605256 3343 L-604947 3343 L-603736 3343 L-600729 3344 L-600709 3344 L-600362 3344 L-600149 3344 L-600023 3342 L-599781 3341 L-599743 3341 L-599723 3341 L-599704 3341 L-599645 3340 L-599587 3340 L-599569 3340 L-599125 3339 L-597886 3339 L-596340 3339 L-592953 3339 L-587226 3338 L-587025 3338 L-585389 3338 L-583667 3338 L-582235 3338 L-582003 3338 L-581287 3338 L-575155 3337 L-574787 3337 L-574633 3337 L-574055 3337 L-573762 3336 L-572795 3336 L-572485 3336 L-571886 3335 L-570280 3335 L-569545 3335 L-569235 3335 L-568467 3335 L-566431 3335 L-566005 3335 L-565193 3335 L-557764 3334 L-557241 3334 L-557067 3334 L-556332 3334 L-554765 3333 L-554359 3333 L-552134 3333 L-551186 3333 L-550761 3333 L-550431 3333 L-549387 3332 L-547279 3332 L-547027 3332 L-546408 3332 L-545595 3331 L-543487 3331 L-543439 3331 L-541511 3331 L-541185 3330 L-541050 3330 L-540547 3330 L-539134 3329 L-538631 3329 L-538109 3328 L-534550 3328 L-533815 3327 L-531390 3327 L-530100 3327 L-529693 3327 L-526541 3327 L-526386 3327 L-526366 3327 L-525999 3327 L-524741 3327 L-524026 3327 L-523136 3327 L-522729 3327 L-521801 3327 L-520692 3327 L-520389 3328 L-514140 3328 L-513193 3328 L-511566 3329 L-511065 3329 L-507389 3329 L-506556 3329 L-502603 3329 L-501192 3329 L-498702 3328 L-498026 3328 L-497987 3328 L-497116 3328 L-493905 3328 L-491042 3328 L-490074 3328 L-488952 3327 L-488934 3327 L-487308 3327 L-486844 3326 L-486752 3326 L-480383 3326 L-479435 3326 L-476978 3326 L-476105 3325 L-474869 3325 L-472868 3325 L-472470 3325 L-471034 3324 L-469008 3324 L-468795 3324 L-467615 3324 L-466106 3324 L-466086 3324 L-464074 3323 L-463204 3323 L-462333 3323 L-461749 3323 L-461211 3322 L-460554 3322 L-459316 3322 L-458755 3322 L-457574 3322 L-456336 3321 L-456298 3321 L-455911 3321 L-455369 3321 L-454595 3321 L-453473 3321 L-451384 3320 L-451051 3320 L-450765 3320 L-449836 3320 L-449353 3319 L-448618 3319 L-444986 3319 L-443859 3319 L-443704 3319 L-442678 3318 L-438963 3318 L-437746 3318 L-435928 3318 L-433142 3317 L-432580 3317 L-428693 3317 L-426216 3317 L-424881 3317 L-424378 3317 L-423895 3317 L-421205 3317 L-417434 3317 L-414976 3317 L-413797 3317 L-413157 3317 L-410798 3316 L-410720 3316 L-409673 3316 L-409579 3316 L-409077 3316 L-408631 3316 L-408573 3316 L-408360 3316 L-405400 3315 L-402693 3315 L-402538 3315 L-399017 3315 L-398494 3315 L-397527 3314 L-397178 3314 L-396134 3314 L-395205 3314 L-394780 3314 L-393271 3314 L-392304 3313 L-392285 3313 L-390389 3303 L-390273 3292 L-390225 3281 L-390201 3270 L-387196 3270 L-385166 3269 L-383405 3269 L-383038 3269 L-382592 3269 L-382225 3269 L-381811 3268 L-379826 3268 L-379613 3268 L-379458 3268 L-377853 3268 L-376731 3268 L-375783 3268 L-374526 3268 L-372881 3267 L-371701 3267 L-365112 3267 L-365065 3267 L-364660 3267 L-363615 3266 L-363479 3266 L-361797 3266 L-361777 3266 L-360440 3266 L-359204 3265 L-359049 3265 L-358676 3265 L-358469 3265 L-358160 3265 L-357386 3264 L-355065 3264 L-354407 3264 L-352279 3264 L-350556 3264 L-350363 3264 L-347810 3263 L-347533 3263 L-347345 3263 L-346513 3263 L-345740 3263 L-345042 3262 L-340042 3262 L-339666 3262 L-335413 3262 L-334926 3276 L-334906 3276 L-334827 3276 L-334752 3276 L-334732 3261 L-333920 3261 L-333166 3261 L-331947 3261 L-330515 3261 L-330419 3260 L-330244 3260 L-329890 3260 L-328580 3260 L-326723 3260 L-325021 3260 L-324518 3259 L-324253 3259 L-323859 3259 L-323725 3259 L-322815 3259 L-322439 3259 L-321511 3259 L-321171 3259 L-321132 3259 L-321094 3258 L-319179 3258 L-319005 3258 L-317476 3258 L-317148 3258 L-317032 3258 L-316625 3258 L-316277 3258 L-314633 3257 L-314082 3257 L-313839 3257 L-313298 3257 L-312466 3257 L-311925 3256 L-310390 3256 L-310298 3256 L-310261 3256 L-310125 3256 L-309738 3256 L-308713 3255 L-306837 3255 L-306740 3255 L-306140 3260 L-305773 3265 L-305288 3270 L-305250 3275 L-304476 3275 L-304419 3275 L-304244 3275 L-304051 3275 L-302445 3274 L-302426 3274 L-302270 3274 L-302155 3275 L-300975 3275 L-300821 3275 L-300154 3275 L-297705 3287 L-295191 3299 L-292521 3311 L-284822 3323 L-279154 3323 L-276939 3323 L-276916 3323 L-275942 3326 L-275922 3326 L-275059 3326 L-272318 3326 L-266520 3322 L-266366 3322 L-263580 3322 L-249972 3322 L-249226 3322 L-244816 3321 L-228469 3321 L-228237 3321 L-227700 3321 L-219241 3321 L-210535 3320 L-210323 3320 L-208350 3320 L-205564 3320 L-201077 3320 L-200922 3320 L-200753 3320 L-200612 3320 L-200322 3320 L-200283 3320 L-200012 3319 L-199840 3319 L-199430 3319 L-198310 3319 L-197129 3319 L-195853 3319 L-192989 3318 L-190069 3318 L-188077 3318 L-186529 3318 L-183491 3318 L-174166 3318 L-173642 3317 L-167919 3317 L-166412 3317 L-165597 3317 L-163913 3317 L-163192 3317 L-163024 3317 L-161979 3317 L-159911 3316 L-158549 3316 L-154106 3316 L-154009 3316 L-153970 3316 L-153951 3316 L-153119 3316 L-153041 3315 L-150469 3315 L-147219 3315 L-147065 3315 L-146116 3315 L-144375 3314 L-143660 3315 L-140119 3316 L-133542 3317 L-132124 3318 L-132104 3318 L-131153 3318 L-127679 3318 L-126926 3317 L-126364 3317 L-125582 3317 L-118078 3317 L-116479 3317 L-114905 3317 L-111720 3316 L-107387 3316 L-98817 3316 L-90071 3316 L-86997 3316 L-83731 3316 L-83184 3316 L-76047 3315 L-70380 3315 L-56315 3315 L-50304 3316 L-45597 3315 L-41594 3315 L-36487 3315 L-26773 3315 L-11202 3315 L-8119 3314 L-7817 3248 L-7798 3167 L-7779 3075 L-7759 2972 L-7739 2925 L-7720 2885 L-7701 2849 L-7674 2813 L-7653 2778 L-7625 2741 L-7590 2700 L-7576 2666 L-7563 2636 L-7545 2612 L-7526 2593 L-7506 2575 L-7488 2556 L-7468 2538 L-7449 2519 L-7427 2499 L-7411 2480 L-7392 2462 L-7371 2444 L-7351 2426 L-7333 2406 L-7314 2386 L-7294 2365 L-7274 2345 L-7256 2325 L-7237 2307 L-7216 2289 L-7191 2271 L-7176 2254 L-7159 2237 L-7140 2220 L-7120 2203 L-7101 2185 L-7082 2167 L-7062 2149 L-7042 2133 L-7024 2117 L-7005 2102 L-6984 2087 L-6964 2074 L-6947 2062 L-6928 2051 L-6908 2040 L-6889 2029 L-6869 2019 L-6850 2010 L-6830 2002 L-6811 1994 L-6791 1986 L-6773 1978 L-6746 1968 L-6725 1958 L-6697 1947 L-6663 1934 L-6649 1924 L-6635 1915 L-6617 1906 L-6598 1899 L-6578 1892 L-6559 1883 L-6540 1874 L-6520 1866 L-6499 1858 L-6482 1851 L-6463 1843 L-6443 1835 L-6423 1826 L-6405 1815 L-6386 1804 L-6366 1793 L-6346 1781 L-6327 1769 L-6309 1758 L-6287 1744 L-6263 1730 L-6248 1716 L-6231 1702 L-6211 1689 L-6192 1676 L-6173 1662 L-6154 1647 L-6134 1633 L-6113 1619 L-6095 1606 L-6076 1593 L-6056 1580 L-6036 1568 L-6018 1556 L-5999 1545 L-5979 1534 L-5960 1525 L-5940 1515 L-5922 1505 L-5902 1496 L-5883 1486 L-5863 1476 L-5844 1467 L-5815 1457 L-5796 1448 L-5768 1439 L-5731 1428 L-5716 1417 L-5703 1407 L-5686 1398 L-5669 1391 L-5649 1385 L-5631 1379 L-5612 1374 L-5592 1369 L-5571 1363 L-5554 1357 L-5535 1350 L-5514 1344 L-5495 1337 L-5476 1329 L-5457 1321 L-5437 1313 L-5418 1304 L-5399 1295 L-5380 1287 L-5359 1279 L-5335 1270 L-5320 1261 L-5303 1253 L-5283 1244 L-5264 1235 L-5244 1226 L-5225 1217 L-5205 1208 L-5185 1199 L-5167 1190 L-5148 1182 L-5128 1174 L-5107 1166 L-5089 1159 L-5070 1152 L-5051 1144 L-5032 1137 L-5012 1129 L-4993 1123 L-4973 1116 L-4954 1109 L-4935 1102 L-4916 1095 L-4887 1088 L-4867 1082 L-4839 1073 L-4803 1063 L-4789 1053 L-4776 1043 L-4758 1035 L-4740 1029 L-4720 1024 L-4702 1017 L-4682 1010 L-4663 1002 L-4641 994 L-4623 985 L-4606 977 L-4585 967 L-4565 957 L-4547 946 L-4528 935 L-4508 924 L-4488 914 L-4470 904 L-4451 896 L-4430 890 L-4405 884 L-4391 879 L-4373 874 L-4354 868 L-4334 862 L-4315 857 L-4296 851 L-4276 846 L-4255 841 L-4238 837 L-4219 832 L-4199 825 L-4178 818 L-4161 811 L-4142 805 L-4122 801 L-4103 798 L-4083 794 L-4065 791 L-4045 787 L-4025 783 L-4006 779 L-3987 776 L-3960 772 L-3939 768 L-3911 764 L-3876 759 L-3862 755 L-3849 752 L-3830 748 L-3812 746 L-3792 743 L-3774 740 L-3754 737 L-3734 734 L-3713 732 L-3696 729 L-3678 726 L-3657 722 L-3637 719 L-3619 715 L-3600 712 L-3580 710 L-3560 707 L-3542 704 L-3523 701 L-3502 699 L-3477 696 L-3462 693 L-3445 691 L-3425 688 L-3406 686 L-3387 683 L-3368 679 L-3348 676 L-3327 673 L-3310 670 L-3291 668 L-3270 665 L-3250 662 L-3232 660 L-3213 657 L-3193 655 L-3175 652 L-3155 650 L-3136 648 L-3116 646 L-3097 644 L-3077 642 L-3059 646 L-3030 649 L-3010 652 L-2982 654 L-2945 652 L-2930 650 L-2917 647 L-2899 646 L-2883 645 L-2863 643 L-2845 641 L-2825 639 L-2806 638 L-2784 636 L-2768 635 L-2749 634 L-2728 632 L-2708 630 L-2690 628 L-2671 627 L-2652 625 L-2631 623 L-2613 622 L-2594 620 L-2573 619 L-2548 617 L-2534 616 L-2516 614 L-2497 612 L-2478 610 L-2458 609 L-2439 607 L-2419 605 L-2399 603 L-2381 600 L-2362 598 L-2342 596 L-2321 594 L-2304 592 L-2285 589 L-2265 588 L-2246 586 L-2226 583 L-2207 581 L-2187 579 L-2168 577 L-2149 575 L-2130 574 L-2102 572 L-2082 570 L-2054 568 L-2019 565 L-2005 563 L-1992 562 L-1973 560 L-1955 558 L-1935 557 L-1916 555 L-1897 553 L-1877 551 L-1856 549 L-1839 548 L-1820 546 L-1800 544 L-1780 542 L-1762 539 L-1743 536 L-1723 533 L-1703 531 L-1684 528 L-1666 526 L-1644 523 L-1619 520 L-1605 518 L-1588 515 L-1568 513 L-1549 510 L-1530 508 L-1511 505 L-1491 502 L-1470 500 L-1452 498 L-1433 495 L-1413 493 L-1392 491 L-1375 489 L-1356 487 L-1336 486 L-1317 484 L-1298 483 L-1279 481 L-1259 480 L-1239 478 L-1220 477 L-1201 476 L-1174 475 L-1153 473 L-1125 472 L-1090 469 L-1076 466 L-1063 464 L-1044 461 L-1026 460 L-1006 458 L-988 457 L-968 455 L-949 454 L-927 452 L-911 450 L-892 448 L-871 446 L-851 444 L-833 442 L-814 440 L-794 438 L-774 436 L-756 434 L-737 432 L-716 431 L-691 429 L-676 427 L-659 426 L-640 424 L-620 422 L-601 420 L-582 417 L-562 415 L-541 412 L-524 409 L-505 407 L-484 404 L-464 403 L-447 401 L-428 400 L-407 398 L-389 397 L-369 396 L-350 394 L-330 393 L-311 392 L-291 391 L-273 390 L-245 388 L-225 387 L-197 386 L-163 385 L-148 384 L-135 382 L-117 381 L-98 380 L-78 379 L-60 378 L-40 377 L-20 377 L0 376 L17 375 L36 374 L56 373 L76 371 L94 370 L113 369 L133 368 L153 368 L172 367 L190 366 L212 366 L236 365 L251 364 L268 362 L288 361 L307 361 L326 359 L345 359 L365 357 L386 356 L404 353 L423 351 L443 349 L463 347 L481 346 L500 345 L520 343 L539 342 L559 341 L577 339 L597 338 L616 337 L636 336 L655 335 L683 334 L731 333 L768 332 L783 331 L795 330 L812 329 L830 329 L850 328 L868 327 L887 327 L908 326 L928 325 L945 324 L964 324 L985 323 L1004 322 L1023 321 L1042 321 L1062 319 L1081 319 L1100 318 L1119 316 L1140 315 L1165 313 L1179 312 L1196 310 L1216 309 L1235 307 L1255 306 L1274 304 L1294 303 L1314 301 L1332 300 L1351 299 L1372 297 L1392 296 L1410 295 L1428 294 L1449 293 L1467 292 L1487 291 L1506 290 L1526 289 L1545 288 L1565 287 L1583 286 L1612 285 L1632 284 L1660 282 L1696 280 L1711 277 L1724 275 L1741 274 L1759 272 L1779 271 L1797 270 L1817 270 L1836 269 L1858 268 L1874 267 L1893 266 L1914 264 L1934 263 L1952 261 L1971 259 L1991 256 L2011 254 L2029 253 L2048 251 L2069 250 L2094 248 L2109 247 L2127 245 L2145 244 L2165 243 L2184 241 L2203 240 L2223 238 L2244 236 L2261 235 L2280 234 L2300 232 L2322 231 L2338 230 L2357 229 L2377 228 L2396 226 L2416 225 L2435 224 L2454 223 L2474 222 L2493 221 L2512 220 L2540 997 L2560 996 L2588 995 L2624 993 L2638 213 L2651 212 L2669 210 L2687 210 L2707 209 L2725 208 L2745 207 L2765 206 L2786 204 L2803 203 L2821 201 L2842 200 L2862 198 L2880 196 L2899 193 L2919 191 L2940 190 L2957 189 L2976 187 L2998 186 L3023 184 L3038 182 L3067 180 L3107 178 L3130 176 L3159 173 L3176 171 L3190 169 L3209 167 L3229 166 L3250 165 L3267 164 L3286 163 L3306 162 L3325 161 L3344 161 L3363 160 L3383 159 L3403 158 L3422 157 L3440 156 L3468 155 L3489 154 L3517 153 L3552 152 L3565 151 L3597 149 L3616 148 L3636 148 L3654 147 L3674 146 L3693 145 L3714 145 L3731 144 L3750 142 L3771 139 L3791 136 L3809 132 L3828 128 L3848 126 L3868 123 L3886 121 L3905 119 L3926 118 L3951 117 L3966 115 L3983 114 L4002 112 L4022 111 L4041 110 L4060 108 L4080 107 L4101 105 L4118 103 L4137 102 L4158 101 L4179 99 L4195 99 L4214 98 L4235 97 L4254 96 L4273 94 L4292 93 L4312 92 L4332 91 L4350 90 L4369 90 L4397 89 L4417 88 L4487 86 L4515 83 L4530 81 L4544 78 L4564 77 L4583 76 L4602 75 L4622 73 L4643 72 L4660 71 L4679 70 L4699 69 L4719 69 L4737 68 L4756 66 L4776 65 L4797 63 L4814 62 L4833 61 L4855 60 L4880 59 L4895 58 L4912 57 L4931 55 L4951 54 L4970 52 L4989 51 L5008 50 L5030 49 L5047 48 L5066 47 L5086 46 L5107 45 L5124 44 L5182 43 L5202 42 L5220 41 L5240 40 L5260 39 L5279 38 L5298 38 L5325 37 L5346 36 L5374 36 L5410 35 L5425 34 L5438 33 L5455 33 L5473 32 L5493 32 L5511 31 L5531 31 L5551 31 L5572 30 L5589 30 L5607 29 L5628 29 L5648 28 L5666 27 L5685 27 L5705 26 L5725 25 L5743 24 L5762 23 L5783 23 L5808 22 L5823 21 L5840 21 L5859 20 L5879 19 L5898 18 L5917 17 L5937 16 L5958 15 L5975 14 L5994 13 L6015 13 L6036 12 L6052 12 L6071 11 L6092 11 L6111 10 L6130 10 L6149 9 L6169 9 L6189 9 L6207 8 L6226 8 L6254 7 L6275 7 L6302 6 L6338 5 L6351 5 L6365 4 L6383 4 L6401 3 L6421 3 L6440 2 L6479 2 L6500 1" />
</svg>
