<svg xmlns="http://www.w3.org/2000/svg" version="1.1" viewBox="0 0 6500 1000">
	<path fill="none" stroke="gold" stroke-width="125" stroke-linecap="round" stroke-linejoin="round" d="M0 3758  L-724716 3758 L-722112 3758 L-720444 3757 L-702115 3757 L-701945 3757 L-694787 3756 L-694754 3756 L-681323 3756 L-678401 3756 L-665060 3756 L-660891 3755 L-659731 3754 L-659112 3754 L-657100 3753 L-653328 3753 L-652728 3752 L-652399 3752 L-652186 3752 L-651645 3751 L-650407 3750 L-649228 3749 L-646363 3747 L-645841 3746 L-640986 3745 L-638048 3745 L-638005 3745 L-637697 3744 L-637445 3744 L-634850 3744 L-630595 3744 L-630577 3744 L-629340 3744 L-627462 3744 L-625509 3743 L-624561 3743 L-624290 3743 L-623980 3743 L-623882 3742 L-623052 3742 L-621021 3743 L-620731 3741 L-618584 3740 L-618429 3739 L-614773 3738 L-614521 3739 L-614423 3739 L-613906 3739 L-611755 3740 L-610826 3741 L-609300 3742 L-608060 3742 L-606514 3742 L-603552 3741 L-602430 3741 L-602121 3741 L-600910 3740 L-597903 3742 L-597883 3742 L-597536 3742 L-597323 3742 L-597197 3739 L-596955 3739 L-596917 3739 L-596898 3738 L-596878 3738 L-596819 3738 L-596761 3737 L-596743 3737 L-596300 3737 L-595060 3736 L-593515 3736 L-590127 3736 L-584401 3735 L-584199 3735 L-582563 3735 L-580841 3735 L-579409 3735 L-579177 3735 L-578461 3734 L-572329 3734 L-571962 3734 L-571807 3733 L-571229 3733 L-570936 3733 L-569969 3732 L-569659 3732 L-569060 3732 L-567454 3732 L-566719 3732 L-566409 3732 L-565641 3732 L-563605 3732 L-563179 3731 L-562367 3731 L-554938 3731 L-554415 3730 L-554242 3730 L-553507 3730 L-551939 3729 L-551533 3729 L-549308 3729 L-548360 3729 L-547935 3729 L-547605 3729 L-546561 3728 L-544453 3728 L-544201 3728 L-543582 3727 L-542769 3727 L-540661 3727 L-540613 3726 L-538685 3726 L-538359 3726 L-538224 3725 L-537721 3725 L-536308 3725 L-535805 3724 L-535283 3724 L-531724 3723 L-530989 3722 L-528564 3722 L-527275 3722 L-526868 3722 L-523715 3722 L-523560 3722 L-523540 3722 L-523173 3722 L-521915 3722 L-521200 3722 L-520310 3722 L-519903 3722 L-518975 3722 L-517866 3722 L-517563 3723 L-511314 3723 L-510367 3724 L-508741 3724 L-508239 3724 L-504563 3724 L-503731 3724 L-499778 3725 L-498366 3724 L-495876 3724 L-495200 3723 L-495161 3723 L-494290 3723 L-491079 3723 L-488216 3723 L-487248 3723 L-486127 3722 L-486108 3722 L-484483 3722 L-484019 3721 L-483927 3721 L-477557 3721 L-476609 3721 L-474152 3720 L-473280 3720 L-472043 3720 L-470042 3720 L-469645 3719 L-468208 3719 L-466182 3719 L-465969 3719 L-464789 3718 L-463280 3718 L-463260 3718 L-461248 3718 L-460379 3718 L-459508 3717 L-458923 3717 L-458386 3717 L-457728 3716 L-456490 3716 L-455929 3716 L-454748 3716 L-453511 3715 L-453472 3715 L-453085 3715 L-452543 3715 L-451770 3715 L-450647 3714 L-448558 3714 L-448225 3714 L-447939 3713 L-447011 3713 L-446527 3713 L-445792 3713 L-442161 3713 L-441033 3712 L-440878 3712 L-439852 3712 L-436138 3712 L-434920 3711 L-433102 3711 L-430316 3711 L-429755 3711 L-425867 3711 L-423390 3710 L-422055 3710 L-421552 3710 L-421069 3710 L-418379 3710 L-414608 3710 L-412151 3710 L-410971 3710 L-410332 3710 L-407972 3710 L-407895 3709 L-406847 3709 L-406754 3709 L-406251 3709 L-405805 3709 L-405748 3709 L-405534 3709 L-402574 3708 L-399867 3708 L-399712 3708 L-396191 3708 L-395668 3708 L-394701 3707 L-394352 3707 L-393308 3707 L-392380 3706 L-391954 3706 L-390445 3706 L-389478 3706 L-389459 3706 L-387563 3693 L-387447 3681 L-387399 3668 L-387375 3655 L-384371 3655 L-382340 3655 L-380579 3654 L-380212 3654 L-379766 3654 L-379400 3654 L-378986 3653 L-377001 3653 L-376787 3653 L-376633 3653 L-375027 3653 L-373906 3653 L-372957 3653 L-371700 3652 L-370055 3652 L-368876 3652 L-362286 3652 L-362240 3652 L-361834 3651 L-360789 3651 L-360653 3651 L-358971 3651 L-358951 3651 L-357614 3650 L-356378 3650 L-356224 3650 L-355850 3650 L-355644 3649 L-355334 3649 L-354560 3649 L-352239 3649 L-351581 3649 L-349453 3648 L-347731 3648 L-347537 3648 L-344984 3648 L-344708 3647 L-344519 3647 L-343687 3647 L-342914 3647 L-342216 3646 L-337216 3646 L-336840 3646 L-332587 3646 L-332100 3663 L-332081 3663 L-332002 3663 L-331926 3663 L-331907 3645 L-331094 3645 L-330340 3645 L-329121 3644 L-327689 3644 L-327593 3644 L-327418 3644 L-327064 3644 L-325755 3644 L-323897 3644 L-322195 3643 L-321692 3643 L-321427 3643 L-321034 3643 L-320899 3643 L-319990 3642 L-319613 3642 L-318685 3642 L-318346 3642 L-318306 3642 L-318268 3642 L-316353 3642 L-316179 3642 L-314650 3642 L-314322 3641 L-314206 3641 L-313799 3641 L-313451 3641 L-311807 3640 L-311256 3640 L-311013 3640 L-310472 3640 L-309641 3640 L-309099 3639 L-307564 3639 L-307472 3639 L-307435 3639 L-307299 3639 L-306912 3638 L-305887 3638 L-304011 3638 L-303914 3638 L-303314 3643 L-302947 3649 L-302462 3655 L-302424 3661 L-301651 3661 L-301593 3661 L-301419 3661 L-301225 3661 L-299620 3660 L-299600 3660 L-299445 3660 L-299329 3661 L-298150 3661 L-297995 3661 L-297328 3661 L-294880 3675 L-292365 3690 L-289695 3704 L-281996 3718 L-276328 3718 L-274114 3717 L-274090 3717 L-273116 3721 L-273096 3721 L-272233 3720 L-269492 3720 L-263694 3717 L-263540 3716 L-260755 3716 L-247146 3716 L-246400 3716 L-241990 3715 L-225644 3715 L-225411 3715 L-224874 3715 L-216415 3714 L-207709 3714 L-207497 3714 L-205524 3714 L-202738 3714 L-198251 3714 L-198096 3714 L-197927 3714 L-197786 3714 L-197496 3713 L-197457 3713 L-197186 3713 L-197015 3713 L-196604 3713 L-195484 3713 L-194304 3712 L-193027 3712 L-190163 3712 L-187243 3712 L-185251 3712 L-183703 3711 L-180665 3711 L-171341 3711 L-170817 3711 L-165093 3711 L-163586 3711 L-162771 3711 L-161088 3710 L-160367 3710 L-160198 3710 L-159153 3710 L-157086 3710 L-155724 3710 L-151280 3709 L-151183 3709 L-151145 3709 L-151126 3709 L-150293 3709 L-150215 3708 L-147643 3708 L-144394 3708 L-144239 3708 L-143290 3708 L-141549 3707 L-140834 3708 L-137293 3709 L-130716 3710 L-129299 3712 L-129278 3711 L-128327 3711 L-124853 3711 L-124100 3711 L-123538 3711 L-122756 3710 L-115252 3710 L-113654 3710 L-112080 3710 L-108894 3710 L-104561 3710 L-95991 3709 L-87245 3709 L-84171 3709 L-80905 3709 L-80359 3709 L-73221 3708 L-67554 3708 L-53489 3708 L-47478 3709 L-42772 3708 L-38768 3708 L-33661 3708 L-23947 3708 L-8376 3707 L-5294 3707 L-4991 3630 L-4972 3535 L-4953 3427 L-4933 3307 L-4914 3252 L-4894 3205 L-4876 3163 L-4848 3121 L-4827 3080 L-4799 3037 L-4764 2989 L-4750 2949 L-4737 2914 L-4719 2885 L-4700 2864 L-4680 2842 L-4662 2820 L-4643 2799 L-4623 2777 L-4602 2754 L-4585 2731 L-4566 2710 L-4546 2689 L-4526 2668 L-4507 2645 L-4488 2621 L-4469 2597 L-4448 2573 L-4430 2550 L-4411 2528 L-4390 2508 L-4365 2486 L-4351 2467 L-4333 2447 L-4314 2427 L-4294 2407 L-4275 2386 L-4256 2365 L-4236 2344 L-4216 2325 L-4198 2306 L-4179 2289 L-4159 2272 L-4138 2256 L-4121 2243 L-4102 2229 L-4082 2216 L-4063 2204 L-4043 2192 L-4024 2181 L-4005 2172 L-3985 2163 L-3966 2153 L-3947 2144 L-3920 2133 L-3899 2121 L-3871 2107 L-3837 2093 L-3823 2081 L-3810 2070 L-3791 2060 L-3772 2052 L-3752 2043 L-3734 2033 L-3714 2023 L-3694 2013 L-3674 2004 L-3656 1995 L-3638 1986 L-3617 1976 L-3597 1966 L-3579 1954 L-3560 1941 L-3540 1927 L-3520 1914 L-3502 1900 L-3483 1886 L-3462 1871 L-3437 1854 L-3423 1837 L-3405 1821 L-3386 1806 L-3366 1790 L-3347 1774 L-3328 1757 L-3308 1741 L-3288 1724 L-3269 1709 L-3251 1693 L-3230 1679 L-3210 1664 L-3192 1651 L-3173 1638 L-3153 1625 L-3135 1614 L-3115 1603 L-3096 1591 L-3076 1580 L-3057 1568 L-3037 1557 L-3018 1546 L-2990 1534 L-2970 1524 L-2942 1513 L-2905 1500 L-2890 1488 L-2877 1477 L-2860 1466 L-2843 1458 L-2823 1451 L-2805 1444 L-2786 1438 L-2766 1431 L-2745 1425 L-2728 1418 L-2709 1410 L-2689 1402 L-2669 1394 L-2650 1385 L-2632 1376 L-2612 1366 L-2592 1356 L-2573 1346 L-2554 1336 L-2533 1326 L-2509 1316 L-2494 1306 L-2477 1296 L-2457 1285 L-2438 1276 L-2418 1265 L-2399 1254 L-2379 1243 L-2359 1233 L-2341 1222 L-2322 1213 L-2302 1203 L-2282 1194 L-2264 1186 L-2245 1177 L-2225 1169 L-2206 1160 L-2186 1151 L-2167 1143 L-2147 1135 L-2128 1127 L-2109 1120 L-2090 1112 L-2062 1103 L-2042 1095 L-2014 1086 L-1977 1073 L-1963 1062 L-1950 1050 L-1933 1041 L-1915 1034 L-1895 1028 L-1876 1020 L-1856 1012 L-1837 1003 L-1816 993 L-1797 983 L-1780 973 L-1760 961 L-1739 950 L-1721 937 L-1703 924 L-1683 911 L-1662 899 L-1645 888 L-1626 878 L-1604 871 L-1579 864 L-1565 859 L-1547 852 L-1528 846 L-1509 839 L-1490 832 L-1471 826 L-1451 819 L-1430 814 L-1412 809 L-1393 803 L-1373 796 L-1352 787 L-1335 779 L-1316 772 L-1296 767 L-1277 763 L-1258 760 L-1239 756 L-1219 751 L-1199 747 L-1180 742 L-1161 737 L-1134 733 L-1113 729 L-1085 724 L-1050 718 L-1037 714 L-1023 710 L-1005 706 L-986 703 L-966 699 L-948 696 L-928 692 L-908 689 L-887 686 L-870 683 L-852 679 L-831 675 L-811 671 L-793 667 L-774 664 L-754 661 L-734 657 L-716 654 L-697 651 L-676 648 L-651 644 L-636 641 L-619 639 L-600 636 L-580 632 L-561 629 L-542 625 L-522 621 L-501 618 L-484 614 L-465 611 L-444 608 L-424 605 L-406 602 L-387 599 L-367 596 L-349 593 L-329 590 L-310 588 L-290 586 L-271 584 L-252 582 L-233 586 L-204 589 L-184 593 L-156 596 L-119 593 L-104 590 L-91 588 L-74 586 L-57 584 L-38 582 L-19 580 L0 578 L19 576 L40 575 L57 573 L76 571 L96 570 L117 568 L135 565 L153 563 L173 561 L193 559 L212 557 L230 556 L252 554 L277 553 L291 551 L308 548 L328 546 L347 544 L367 543 L386 540 L405 538 L426 535 L444 532 L463 530 L483 527 L504 525 L521 522 L540 520 L560 518 L579 515 L599 513 L617 510 L637 507 L657 505 L676 503 L695 502 L722 499 L743 497 L771 495 L806 492 L819 489 L833 487 L852 485 L870 483 L890 481 L908 479 L928 477 L948 475 L969 473 L986 471 L1004 469 L1025 466 L1045 464 L1063 461 L1082 458 L1102 454 L1122 451 L1140 448 L1159 445 L1180 442 L1205 439 L1220 436 L1237 433 L1256 430 L1276 427 L1295 424 L1314 421 L1334 418 L1355 415 L1372 412 L1391 410 L1412 407 L1433 405 L1450 403 L1469 400 L1489 399 L1508 397 L1527 395 L1546 393 L1566 392 L1586 390 L1605 388 L1623 387 L1651 386 L1672 384 L1700 382 L1735 379 L1749 376 L1762 373 L1780 370 L1799 368 L1818 367 L1837 364 L1857 363 L1876 361 L1897 359 L1914 357 L1933 354 L1954 352 L1974 350 L1992 347 L2011 345 L2030 342 L2051 340 L2069 338 L2088 336 L2109 334 L2134 332 L2149 330 L2166 328 L2185 326 L2205 324 L2224 321 L2243 319 L2263 315 L2284 312 L2301 309 L2320 306 L2341 303 L2361 301 L2378 299 L2397 298 L2417 296 L2436 295 L2456 294 L2475 292 L2494 290 L2514 289 L2533 288 L2552 286 L2579 284 L2600 283 L2628 282 L2662 280 L2676 279 L2690 278 L2708 276 L2727 275 L2747 274 L2765 273 L2785 272 L2805 271 L2825 270 L2843 269 L2861 267 L2882 266 L2902 265 L2920 264 L2939 262 L2959 261 L2979 260 L2997 260 L3016 259 L3037 258 L3062 257 L3076 256 L3094 254 L3113 253 L3133 252 L3152 251 L3171 250 L3191 248 L3211 246 L3229 244 L3248 241 L3269 239 L3289 237 L3307 235 L3326 234 L3346 232 L3364 230 L3384 229 L3403 227 L3423 226 L3442 224 L3462 223 L3480 222 L3509 221 L3557 220 L3594 219 L3609 217 L3621 216 L3638 215 L3656 215 L3675 214 L3694 213 L3713 212 L3733 211 L3754 210 L3771 210 L3790 209 L3810 208 L3830 207 L3849 206 L3867 205 L3887 204 L3907 203 L3926 202 L3945 200 L3966 199 L3990 197 L4005 195 L4022 193 L4042 191 L4061 190 L4081 188 L4099 186 L4120 185 L4140 183 L4158 181 L4177 180 L4197 178 L4218 177 L4235 176 L4254 175 L4274 173 L4293 172 L4313 171 L4332 170 L4352 169 L4371 167 L4390 166 L4409 165 L4437 163 L4458 162 L4486 160 L4522 158 L4537 155 L4550 153 L4567 150 L4584 149 L4605 148 L4623 147 L4643 146 L4662 145 L4683 144 L4700 143 L4719 141 L4739 139 L4760 137 L4778 135 L4797 133 L4816 130 L4837 128 L4855 126 L4873 124 L4895 122 L4920 120 L4935 119 L4952 117 L4971 116 L4991 114 L5010 113 L5028 111 L5048 109 L5070 107 L5087 105 L5106 104 L5126 102 L5147 101 L5164 99 L5183 98 L5203 96 L5222 95 L5241 94 L5260 93 L5280 91 L5300 90 L5319 89 L5338 88 L5366 997 L5386 995 L5414 994 L5450 992 L5464 80 L5477 78 L5495 76 L5513 76 L5533 75 L5551 74 L5571 73 L5591 71 L5612 69 L5629 68 L5647 66 L5668 64 L5688 62 L5706 59 L5725 57 L5745 54 L5766 52 L5783 51 L5802 50 L5823 48 L5848 46 L5863 44 L5893 41 L5933 38 L5956 36 L5985 33 L6002 30 L6015 28 L6035 26 L6055 25 L6076 24 L6093 22 L6111 21 L6132 20 L6150 19 L6170 18 L6189 17 L6209 17 L6229 15 L6247 14 L6266 13 L6294 12 L6315 11 L6343 10 L6378 8 L6391 7 L6423 5 L6442 4 L6461 3 L6480 2 L6500 1" />
</svg>
