<svg xmlns="http://www.w3.org/2000/svg" version="1.1" viewBox="0 0 6500 1000">
	<path fill="none" stroke="gold" stroke-width="125" stroke-linecap="round" stroke-linejoin="round" d="M0 3466  L-726150 3466 L-723546 3466 L-721878 3465 L-703548 3465 L-703378 3465 L-696220 3464 L-696187 3464 L-682756 3464 L-679835 3464 L-666494 3464 L-662325 3463 L-661165 3463 L-660546 3462 L-658534 3461 L-654762 3461 L-654162 3461 L-653833 3460 L-653620 3460 L-653078 3460 L-651840 3459 L-650661 3457 L-647797 3456 L-647275 3455 L-642419 3455 L-639482 3454 L-639439 3454 L-639131 3454 L-638879 3453 L-636284 3453 L-632028 3453 L-632011 3453 L-630774 3453 L-628896 3453 L-626943 3453 L-625995 3453 L-625724 3452 L-625414 3452 L-625316 3452 L-624486 3452 L-622455 3452 L-622164 3451 L-620018 3450 L-619863 3449 L-616206 3448 L-615955 3449 L-615857 3449 L-615340 3449 L-613188 3450 L-612260 3451 L-610734 3451 L-609494 3451 L-607948 3451 L-604986 3451 L-603864 3451 L-603555 3450 L-602343 3450 L-599337 3452 L-599317 3452 L-598970 3451 L-598757 3451 L-598630 3449 L-598389 3449 L-598351 3449 L-598331 3448 L-598312 3448 L-598253 3448 L-598194 3447 L-598176 3447 L-597733 3447 L-596494 3446 L-594948 3446 L-591560 3446 L-585834 3446 L-585633 3445 L-583997 3445 L-582275 3445 L-580843 3445 L-580610 3445 L-579895 3445 L-573763 3445 L-573395 3444 L-573241 3444 L-572662 3444 L-572370 3443 L-571403 3443 L-571093 3443 L-570494 3442 L-568888 3442 L-568153 3442 L-567843 3443 L-567075 3443 L-565038 3442 L-564613 3442 L-563800 3442 L-556372 3441 L-555849 3441 L-555675 3441 L-554940 3441 L-553373 3440 L-552967 3440 L-550742 3440 L-549794 3440 L-549369 3439 L-549039 3439 L-547995 3439 L-545887 3439 L-545635 3439 L-545016 3438 L-544203 3438 L-542095 3438 L-542047 3438 L-540118 3437 L-539793 3437 L-539658 3437 L-539155 3437 L-537742 3436 L-537239 3436 L-536717 3435 L-533158 3435 L-532422 3434 L-529998 3434 L-528708 3434 L-528301 3434 L-525149 3434 L-524994 3434 L-524974 3434 L-524607 3434 L-523349 3434 L-522634 3434 L-521744 3434 L-521337 3434 L-520408 3434 L-519300 3434 L-518997 3434 L-512748 3435 L-511800 3435 L-510174 3435 L-509672 3435 L-505997 3436 L-505164 3436 L-501211 3436 L-499799 3435 L-497310 3435 L-496634 3435 L-496595 3435 L-495724 3435 L-492513 3435 L-489650 3434 L-488682 3434 L-487560 3434 L-487541 3434 L-485916 3433 L-485452 3433 L-485360 3433 L-478991 3433 L-478043 3432 L-475586 3432 L-474713 3432 L-473477 3432 L-471476 3432 L-471078 3431 L-469642 3431 L-467616 3431 L-467403 3431 L-466223 3430 L-464714 3430 L-464694 3430 L-462682 3430 L-461812 3430 L-460941 3430 L-460357 3429 L-459819 3429 L-459162 3429 L-457923 3428 L-457363 3428 L-456182 3428 L-454944 3428 L-454906 3428 L-454519 3428 L-453977 3427 L-453203 3427 L-452081 3427 L-449992 3427 L-449659 3426 L-449373 3426 L-448444 3426 L-447961 3426 L-447226 3425 L-443594 3425 L-442467 3425 L-442312 3425 L-441286 3425 L-437571 3424 L-436354 3424 L-434536 3424 L-431750 3424 L-431188 3423 L-427300 3423 L-424824 3423 L-423489 3423 L-422986 3423 L-422502 3423 L-419813 3423 L-416042 3423 L-413584 3423 L-412404 3423 L-411765 3423 L-409406 3422 L-409328 3422 L-408281 3422 L-408187 3422 L-407684 3422 L-407239 3422 L-407181 3422 L-406968 3422 L-404008 3422 L-401300 3421 L-401146 3421 L-397625 3421 L-397102 3421 L-396135 3420 L-395786 3420 L-394742 3420 L-393813 3420 L-393388 3420 L-391879 3420 L-390912 3419 L-390893 3419 L-388997 3408 L-388881 3397 L-388833 3385 L-388809 3374 L-385804 3374 L-383774 3373 L-382013 3373 L-381646 3373 L-381200 3373 L-380833 3373 L-380419 3372 L-378434 3372 L-378221 3372 L-378066 3372 L-376461 3372 L-375339 3372 L-374391 3372 L-373134 3371 L-371489 3371 L-370309 3371 L-363720 3371 L-363673 3371 L-363268 3371 L-362222 3370 L-362087 3370 L-360405 3370 L-360385 3370 L-359048 3369 L-357812 3369 L-357657 3369 L-357283 3369 L-357077 3369 L-356768 3369 L-355994 3368 L-353672 3368 L-353015 3368 L-350887 3368 L-349164 3368 L-348971 3367 L-346418 3367 L-346141 3367 L-345953 3367 L-345121 3366 L-344348 3366 L-343650 3366 L-338650 3366 L-338274 3366 L-334021 3366 L-333534 3381 L-333514 3381 L-333435 3381 L-333360 3380 L-333340 3365 L-332527 3365 L-331774 3364 L-330555 3364 L-329123 3364 L-329026 3364 L-328852 3364 L-328498 3364 L-327188 3364 L-325331 3363 L-323629 3363 L-323126 3363 L-322860 3363 L-322467 3363 L-322333 3363 L-321423 3362 L-321047 3362 L-320118 3362 L-319779 3362 L-319740 3362 L-319702 3362 L-317787 3362 L-317613 3362 L-316084 3362 L-315756 3362 L-315640 3361 L-315233 3361 L-314885 3361 L-313241 3361 L-312690 3361 L-312447 3360 L-311906 3360 L-311074 3360 L-310533 3360 L-308998 3360 L-308906 3359 L-308869 3359 L-308733 3359 L-308346 3359 L-307321 3359 L-305444 3359 L-305348 3358 L-304748 3363 L-304381 3369 L-303896 3374 L-303858 3379 L-303084 3379 L-303027 3379 L-302852 3379 L-302659 3379 L-301053 3379 L-301033 3378 L-300878 3379 L-300763 3379 L-299583 3379 L-299428 3379 L-298762 3379 L-296313 3392 L-293798 3405 L-291129 3417 L-283429 3430 L-277762 3430 L-275547 3430 L-275524 3430 L-274550 3433 L-274530 3433 L-273666 3432 L-270926 3432 L-265128 3429 L-264974 3429 L-262188 3428 L-248580 3428 L-247834 3428 L-243423 3428 L-227077 3428 L-226845 3427 L-226308 3427 L-217849 3427 L-209143 3427 L-208931 3427 L-206958 3426 L-204172 3426 L-199684 3427 L-199530 3426 L-199361 3426 L-199220 3426 L-198929 3426 L-198891 3426 L-198620 3426 L-198448 3426 L-198038 3425 L-196918 3425 L-195737 3425 L-194461 3425 L-191597 3425 L-188676 3425 L-186684 3424 L-185137 3424 L-182099 3424 L-172774 3424 L-172250 3424 L-166527 3424 L-165019 3424 L-164205 3424 L-162521 3423 L-161800 3423 L-161632 3423 L-160587 3423 L-158519 3423 L-157157 3422 L-152714 3422 L-152617 3422 L-152578 3422 L-152559 3422 L-151727 3422 L-151649 3421 L-149077 3421 L-145827 3421 L-145672 3421 L-144724 3421 L-142983 3420 L-142268 3421 L-138727 3422 L-132150 3423 L-130732 3424 L-130712 3424 L-129761 3424 L-126287 3424 L-125533 3424 L-124972 3423 L-124190 3423 L-116686 3423 L-115087 3423 L-113513 3423 L-110328 3423 L-105995 3422 L-97425 3422 L-88679 3422 L-85605 3422 L-82339 3422 L-81792 3422 L-74655 3422 L-68987 3422 L-54923 3422 L-48912 3422 L-44205 3422 L-40202 3421 L-35095 3421 L-25381 3421 L-9810 3421 L-6727 3420 L-6425 3351 L-6405 3267 L-6387 3170 L-6367 3062 L-6347 3013 L-6328 2972 L-6309 2934 L-6282 2896 L-6261 2859 L-6233 2821 L-6198 2778 L-6184 2742 L-6171 2711 L-6153 2685 L-6134 2666 L-6114 2647 L-6096 2628 L-6076 2608 L-6056 2588 L-6035 2568 L-6018 2548 L-6000 2529 L-5979 2510 L-5959 2491 L-5941 2470 L-5922 2449 L-5902 2427 L-5882 2406 L-5864 2386 L-5845 2366 L-5824 2348 L-5799 2329 L-5784 2311 L-5767 2294 L-5748 2276 L-5728 2258 L-5709 2239 L-5690 2220 L-5670 2202 L-5650 2185 L-5632 2168 L-5613 2152 L-5592 2137 L-5572 2123 L-5555 2111 L-5536 2099 L-5516 2087 L-5497 2076 L-5477 2066 L-5458 2056 L-5438 2048 L-5419 2039 L-5399 2031 L-5381 2023 L-5353 2013 L-5332 2002 L-5305 1990 L-5271 1977 L-5256 1966 L-5243 1957 L-5225 1948 L-5206 1940 L-5186 1932 L-5167 1923 L-5148 1915 L-5128 1905 L-5107 1897 L-5090 1890 L-5071 1881 L-5051 1873 L-5031 1863 L-5013 1852 L-4994 1841 L-4974 1829 L-4954 1817 L-4935 1805 L-4916 1792 L-4895 1778 L-4871 1763 L-4856 1748 L-4839 1734 L-4819 1721 L-4800 1707 L-4780 1692 L-4762 1677 L-4742 1662 L-4721 1648 L-4703 1634 L-4684 1620 L-4664 1607 L-4644 1594 L-4626 1582 L-4607 1570 L-4587 1559 L-4568 1549 L-4548 1539 L-4530 1528 L-4510 1519 L-4490 1508 L-4471 1498 L-4452 1488 L-4423 1478 L-4404 1469 L-4376 1459 L-4339 1447 L-4324 1436 L-4311 1426 L-4294 1416 L-4277 1409 L-4257 1403 L-4239 1397 L-4219 1391 L-4199 1386 L-4179 1380 L-4162 1373 L-4143 1366 L-4122 1359 L-4103 1352 L-4084 1344 L-4065 1336 L-4045 1327 L-4026 1318 L-4007 1309 L-3988 1300 L-3967 1291 L-3943 1282 L-3928 1273 L-3911 1264 L-3891 1255 L-3872 1246 L-3852 1237 L-3833 1227 L-3813 1217 L-3793 1208 L-3774 1198 L-3756 1190 L-3736 1182 L-3715 1174 L-3697 1166 L-3678 1158 L-3658 1151 L-3640 1143 L-3620 1135 L-3601 1128 L-3581 1121 L-3562 1114 L-3542 1107 L-3524 1100 L-3495 1092 L-3475 1085 L-3447 1077 L-3411 1066 L-3397 1055 L-3384 1045 L-3366 1036 L-3348 1031 L-3328 1025 L-3310 1018 L-3290 1010 L-3271 1002 L-3249 994 L-3231 985 L-3214 976 L-3193 965 L-3173 955 L-3155 944 L-3136 932 L-3116 921 L-3096 910 L-3078 900 L-3059 891 L-3038 885 L-3013 879 L-2998 874 L-2981 868 L-2962 862 L-2942 856 L-2923 850 L-2904 844 L-2884 838 L-2863 834 L-2846 829 L-2827 824 L-2806 817 L-2786 810 L-2769 802 L-2750 796 L-2730 792 L-2711 788 L-2691 785 L-2672 781 L-2652 778 L-2633 773 L-2614 769 L-2595 765 L-2567 761 L-2547 758 L-2519 753 L-2484 748 L-2470 744 L-2457 740 L-2438 737 L-2420 734 L-2400 731 L-2381 728 L-2362 725 L-2342 722 L-2321 719 L-2304 716 L-2285 713 L-2265 710 L-2245 706 L-2227 702 L-2208 699 L-2188 696 L-2168 694 L-2150 691 L-2131 688 L-2109 685 L-2085 682 L-2070 679 L-2053 677 L-2033 674 L-2014 671 L-1995 668 L-1976 665 L-1956 661 L-1935 658 L-1917 655 L-1899 652 L-1878 649 L-1858 647 L-1840 644 L-1821 641 L-1801 639 L-1782 636 L-1763 634 L-1744 632 L-1724 630 L-1704 628 L-1685 626 L-1667 630 L-1638 632 L-1618 636 L-1590 638 L-1553 636 L-1538 633 L-1525 631 L-1507 630 L-1491 628 L-1471 627 L-1453 625 L-1433 623 L-1413 621 L-1392 620 L-1375 618 L-1357 617 L-1336 615 L-1316 613 L-1298 611 L-1279 610 L-1259 608 L-1239 606 L-1221 604 L-1202 603 L-1181 601 L-1156 600 L-1142 598 L-1124 596 L-1105 594 L-1085 593 L-1066 591 L-1047 589 L-1027 587 L-1006 584 L-989 582 L-970 579 L-949 577 L-929 575 L-911 573 L-893 571 L-873 569 L-854 567 L-834 564 L-815 562 L-795 559 L-776 557 L-757 556 L-738 554 L-710 552 L-690 550 L-662 548 L-627 546 L-613 543 L-600 542 L-581 540 L-563 538 L-543 536 L-524 534 L-505 533 L-485 531 L-464 529 L-447 527 L-428 525 L-408 523 L-388 521 L-369 518 L-351 515 L-331 512 L-311 509 L-292 506 L-274 504 L-252 501 L-227 499 L-213 496 L-195 493 L-176 490 L-157 488 L-138 485 L-119 482 L-99 480 L-78 477 L-60 475 L-41 472 L-21 470 L0 468 L16 466 L35 464 L55 462 L74 461 L93 459 L112 457 L132 456 L152 455 L171 453 L190 452 L217 451 L238 449 L266 448 L301 445 L315 442 L328 439 L347 437 L365 435 L385 434 L403 432 L423 430 L443 429 L464 427 L481 425 L499 423 L520 421 L540 419 L558 416 L577 414 L597 412 L617 410 L635 408 L654 406 L675 404 L700 403 L715 401 L732 399 L751 397 L771 395 L790 393 L809 391 L829 388 L850 385 L867 382 L886 379 L907 377 L927 375 L945 374 L964 372 L984 371 L1002 370 L1022 368 L1041 367 L1061 365 L1080 364 L1100 363 L1118 362 L1146 360 L1167 359 L1194 358 L1229 357 L1243 355 L1256 354 L1275 353 L1293 352 L1313 351 L1332 350 L1351 349 L1371 348 L1392 347 L1409 346 L1428 345 L1448 344 L1468 343 L1486 341 L1505 340 L1525 339 L1545 339 L1564 338 L1583 337 L1604 337 L1628 336 L1643 334 L1660 333 L1680 332 L1699 331 L1718 330 L1737 329 L1757 328 L1778 326 L1796 324 L1815 322 L1835 319 L1856 318 L1873 316 L1892 315 L1912 313 L1931 312 L1951 310 L1969 309 L1989 308 L2008 307 L2028 305 L2047 305 L2075 304 L2123 303 L2160 302 L2175 300 L2187 299 L2205 298 L2222 298 L2242 297 L2260 297 L2279 296 L2300 295 L2320 294 L2337 293 L2356 293 L2377 292 L2396 291 L2415 290 L2434 289 L2454 288 L2474 287 L2492 286 L2511 285 L2532 284 L2557 282 L2571 280 L2588 278 L2608 277 L2627 275 L2647 274 L2666 273 L2686 271 L2707 269 L2724 268 L2743 266 L2764 265 L2784 264 L2802 263 L2821 262 L2841 261 L2859 260 L2879 259 L2898 258 L2918 257 L2937 255 L2957 254 L2975 253 L3004 252 L3024 251 L3052 249 L3088 247 L3103 244 L3116 242 L3133 240 L3151 239 L3171 238 L3189 237 L3209 236 L3229 235 L3250 235 L3266 233 L3285 232 L3306 230 L3326 229 L3344 227 L3363 225 L3383 222 L3403 220 L3421 218 L3440 217 L3461 215 L3486 214 L3501 212 L3519 211 L3537 209 L3557 208 L3576 207 L3595 205 L3615 203 L3636 201 L3653 200 L3672 199 L3692 197 L3714 196 L3730 195 L3749 193 L3769 192 L3788 191 L3808 190 L3827 189 L3846 188 L3866 186 L3885 186 L3904 184 L3932 997 L3952 996 L3980 994 L4016 992 L4030 177 L4044 176 L4061 174 L4079 173 L4099 173 L4117 172 L4137 171 L4157 170 L4178 168 L4195 166 L4214 165 L4234 163 L4254 161 L4272 159 L4292 156 L4311 154 L4332 153 L4349 151 L4368 150 L4390 149 L4415 147 L4430 145 L4459 143 L4499 140 L4522 138 L4552 135 L4568 133 L4582 131 L4601 129 L4621 128 L4642 127 L4659 126 L4678 125 L4698 124 L4717 123 L4736 122 L4755 121 L4775 121 L4795 120 L4814 119 L4833 118 L4860 117 L4881 116 L4909 114 L4944 113 L4958 112 L4989 110 L5008 109 L5028 109 L5046 108 L5066 107 L5086 106 L5107 106 L5123 105 L5142 103 L5163 100 L5183 96 L5201 92 L5220 89 L5240 85 L5260 83 L5278 81 L5297 79 L5318 78 L5343 76 L5358 75 L5376 73 L5394 72 L5414 70 L5433 69 L5452 67 L5472 66 L5493 64 L5510 62 L5529 61 L5550 59 L5571 58 L5587 57 L5606 56 L5627 55 L5646 54 L5665 53 L5684 52 L5704 51 L5724 50 L5742 49 L5761 48 L5789 47 L5810 46 L5880 44 L5908 41 L5922 39 L5936 36 L5956 35 L5975 34 L5994 32 L6014 31 L6035 29 L6052 28 L6071 27 L6091 27 L6111 26 L6129 25 L6148 23 L6168 22 L6189 20 L6206 19 L6225 18 L6247 17 L6272 16 L6287 15 L6304 13 L6323 12 L6343 10 L6362 9 L6381 7 L6400 6 L6422 5 L6439 4 L6458 3 L6478 2 L6500 1" />
</svg>
