<svg xmlns="http://www.w3.org/2000/svg" version="1.1" viewBox="0 0 6500 1000">
	<path fill="none" stroke="gold" stroke-width="125" stroke-linecap="round" stroke-linejoin="round" d="M0 1092  L-713340 1092 L-710736 1092 L-709068 1091 L-690739 1091 L-690568 1090 L-683411 1089 L-683377 1089 L-669947 1089 L-667025 1089 L-653684 1088 L-649515 1087 L-648355 1086 L-647736 1084 L-645724 1083 L-641952 1082 L-641352 1082 L-641023 1081 L-640810 1081 L-640268 1080 L-639030 1077 L-637852 1075 L-634987 1072 L-634465 1070 L-629609 1069 L-626672 1069 L-626629 1068 L-626321 1067 L-626069 1067 L-623474 1066 L-619219 1066 L-619201 1066 L-617964 1066 L-616086 1066 L-614133 1065 L-613185 1065 L-612914 1064 L-612604 1064 L-612506 1064 L-611676 1064 L-609645 1064 L-609355 1061 L-607208 1060 L-607053 1058 L-603396 1056 L-603145 1057 L-603047 1057 L-602530 1058 L-600378 1059 L-599450 1061 L-597924 1062 L-596684 1062 L-595138 1062 L-592176 1061 L-591054 1061 L-590745 1060 L-589534 1060 L-586527 1063 L-586507 1063 L-586160 1063 L-585947 1062 L-585821 1058 L-585579 1057 L-585541 1057 L-585521 1056 L-585502 1055 L-585443 1055 L-585385 1054 L-585367 1053 L-584924 1053 L-583684 1052 L-582138 1052 L-578751 1051 L-573024 1051 L-572823 1050 L-571187 1050 L-569465 1050 L-568033 1049 L-567801 1049 L-567085 1049 L-560953 1048 L-560585 1048 L-560431 1047 L-559853 1047 L-559560 1046 L-558593 1045 L-558283 1045 L-557684 1044 L-556078 1044 L-555343 1044 L-555033 1044 L-554265 1044 L-552229 1044 L-551803 1043 L-550991 1043 L-543562 1042 L-543039 1042 L-542866 1041 L-542130 1040 L-540563 1040 L-540157 1039 L-537932 1039 L-536984 1038 L-536559 1038 L-536229 1038 L-535185 1038 L-533077 1037 L-532825 1036 L-532206 1036 L-531393 1036 L-529285 1035 L-529237 1034 L-527309 1034 L-526983 1033 L-526848 1032 L-526345 1032 L-524932 1031 L-524429 1030 L-523907 1029 L-520348 1028 L-519613 1027 L-517188 1027 L-515898 1026 L-515491 1026 L-512339 1026 L-512184 1026 L-512164 1026 L-511797 1026 L-510539 1026 L-509824 1027 L-508934 1027 L-508527 1027 L-507599 1027 L-506490 1026 L-506187 1028 L-499938 1028 L-498991 1029 L-497364 1030 L-496863 1030 L-493187 1030 L-492355 1031 L-488401 1031 L-486990 1030 L-484500 1029 L-483824 1029 L-483785 1028 L-482914 1028 L-479703 1028 L-476840 1028 L-475872 1027 L-474751 1027 L-474732 1026 L-473107 1025 L-472642 1025 L-472551 1024 L-466181 1024 L-465233 1024 L-462776 1023 L-461903 1023 L-460667 1022 L-458666 1022 L-458268 1021 L-456832 1021 L-454806 1020 L-454593 1020 L-453413 1020 L-451904 1019 L-451884 1019 L-449872 1019 L-449002 1018 L-448132 1018 L-447547 1017 L-447010 1016 L-446352 1016 L-445114 1015 L-444553 1015 L-443372 1014 L-442134 1014 L-442096 1014 L-441709 1014 L-441167 1013 L-440394 1013 L-439271 1012 L-437182 1012 L-436849 1011 L-436563 1010 L-435634 1010 L-435151 1009 L-434416 1009 L-430784 1009 L-429657 1009 L-429502 1008 L-428476 1008 L-424762 1007 L-423544 1007 L-421726 1006 L-418940 1006 L-418378 1005 L-414491 1005 L-412014 1005 L-410679 1005 L-410176 1004 L-409693 1004 L-407003 1004 L-403232 1004 L-400774 1004 L-399595 1004 L-398955 1004 L-396596 1003 L-396518 1003 L-395471 1003 L-395377 1002 L-394875 1002 L-394429 1002 L-394371 1002 L-394158 1002 L-391198 1001 L-388491 1001 L-388336 1001 L-384815 1000 L-384292 1000 L-383325 999 L-382976 999 L-381932 998 L-381003 998 L-380578 997 L-379069 997 L-378102 997 L-378083 997 L-376187 974 L-376071 950 L-376023 927 L-375999 904 L-372994 903 L-370964 903 L-369203 902 L-368836 902 L-368390 901 L-368023 901 L-367609 900 L-365624 900 L-365411 900 L-365256 900 L-363651 900 L-362529 899 L-361581 899 L-360324 898 L-358679 898 L-357500 898 L-350910 897 L-350863 897 L-350458 897 L-349413 896 L-349277 896 L-347595 895 L-347575 895 L-346238 894 L-345002 894 L-344848 894 L-344474 893 L-344267 893 L-343958 893 L-343184 892 L-340863 892 L-340205 891 L-338077 891 L-336355 891 L-336161 890 L-333608 890 L-333331 889 L-333143 888 L-332311 888 L-331538 888 L-330840 887 L-325840 887 L-325464 887 L-321211 887 L-320724 918 L-320705 918 L-320626 917 L-320550 917 L-320530 885 L-319718 885 L-318964 884 L-317745 884 L-316313 884 L-316217 883 L-316042 883 L-315688 883 L-314378 882 L-312521 882 L-310819 882 L-310316 881 L-310051 881 L-309658 881 L-309523 880 L-308614 880 L-308237 880 L-307309 880 L-306970 879 L-306930 879 L-306892 879 L-304977 879 L-304803 879 L-303274 879 L-302946 878 L-302830 878 L-302423 877 L-302075 877 L-300431 876 L-299880 876 L-299637 876 L-299096 876 L-298264 875 L-297723 875 L-296188 874 L-296096 874 L-296059 873 L-295923 873 L-295536 873 L-294511 872 L-292635 872 L-292538 872 L-291938 882 L-291571 893 L-291086 904 L-291048 914 L-290274 915 L-290217 915 L-290042 914 L-289849 914 L-288244 913 L-288224 913 L-288068 913 L-287953 914 L-286773 914 L-286619 915 L-285952 915 L-283504 941 L-280989 967 L-278319 992 L-270620 1018 L-264952 1018 L-262737 1018 L-262714 1018 L-261740 1024 L-261720 1024 L-260857 1023 L-258116 1023 L-252318 1016 L-252164 1016 L-249378 1015 L-235770 1015 L-235024 1014 L-230614 1014 L-214267 1014 L-214035 1013 L-213498 1013 L-205039 1012 L-196333 1012 L-196121 1012 L-194148 1011 L-191362 1011 L-186875 1012 L-186720 1011 L-186551 1011 L-186410 1011 L-186120 1010 L-186081 1010 L-185810 1010 L-185638 1009 L-185228 1009 L-184108 1009 L-182927 1009 L-181651 1008 L-178787 1008 L-175867 1008 L-173875 1007 L-172327 1007 L-169289 1006 L-159965 1006 L-159441 1006 L-153717 1006 L-152210 1005 L-151395 1005 L-149712 1005 L-148991 1004 L-148822 1004 L-147777 1004 L-145710 1003 L-144348 1003 L-139904 1003 L-139807 1003 L-139768 1002 L-139749 1002 L-138917 1002 L-138839 1001 L-136267 1001 L-133017 1000 L-132863 1000 L-131914 1000 L-130173 999 L-129458 1001 L-125917 1003 L-119340 1004 L-117922 1007 L-117902 1007 L-116951 1006 L-113477 1006 L-112724 1005 L-112162 1005 L-111380 1005 L-103876 1004 L-102277 1004 L-100703 1004 L-97518 1003 L-93185 1003 L-84615 1003 L-75869 1003 L-72795 1003 L-69529 1002 L-68983 1002 L-61845 1001 L-56178 1001 L-42113 1001 L-36102 1002 L-31396 1001 L-27392 1001 L-22285 1000 L-12571 1000 L2999 999 L6082 999 L6384 857 L6403 683 L6422 485 L6442 264 L6462 163 L6481 78 L6500 0" />
</svg>
