<svg xmlns="http://www.w3.org/2000/svg" version="1.1" viewBox="0 0 6500 1000">
	<path fill="none" stroke="gold" stroke-width="125" stroke-linecap="round" stroke-linejoin="round" d="M0 605095  L-510507 605095 L-507903 602714 L-506234 600333 L-487905 595571 L-487735 590809 L-480577 586047 L-480544 586047 L-467113 583666 L-464191 586047 L-450850 578904 L-446681 569380 L-445521 557476 L-444902 545571 L-442890 538428 L-439118 533666 L-438518 528904 L-438190 524142 L-437977 519380 L-437435 514619 L-436197 495571 L-435018 476523 L-432154 457476 L-431631 438428 L-426776 433666 L-423839 428904 L-423796 424142 L-423487 419380 L-423235 414619 L-420640 409857 L-416385 409857 L-416367 409857 L-415130 409857 L-413253 409857 L-411299 405095 L-410351 400333 L-410081 395571 L-409771 393190 L-409673 390809 L-408842 390809 L-406811 393190 L-406521 371761 L-404375 362238 L-404219 347952 L-400563 333666 L-400312 340809 L-400213 338428 L-399696 345571 L-397545 357476 L-396616 369380 L-395090 381285 L-393851 381285 L-392304 378904 L-389342 374142 L-388220 369380 L-387911 364619 L-386700 362238 L-383693 388428 L-383674 386047 L-383326 383666 L-383113 381285 L-382987 347952 L-382745 343190 L-382708 338428 L-382688 333666 L-382669 328904 L-382610 324142 L-382551 319380 L-382533 314619 L-382090 309857 L-380851 305095 L-379305 300333 L-375917 295571 L-370191 293190 L-369989 290809 L-368353 288428 L-366631 286047 L-365199 283666 L-364967 281285 L-364252 278904 L-358120 276523 L-357752 271761 L-357597 267000 L-357019 262238 L-356726 257476 L-355759 252714 L-355450 247952 L-354851 243190 L-353244 243190 L-352509 243190 L-352199 245571 L-351431 245571 L-349395 240809 L-348970 236047 L-348157 233666 L-340728 228904 L-340205 224142 L-340032 219380 L-339297 214619 L-337729 209857 L-337324 207476 L-335099 202714 L-334151 200333 L-333726 197952 L-333395 197952 L-332352 195571 L-330243 190809 L-329991 186047 L-329372 181285 L-328560 178904 L-326452 174142 L-326403 169380 L-324475 164619 L-324149 159857 L-324014 155095 L-323511 152714 L-322098 147952 L-321595 138428 L-321074 131285 L-317514 121761 L-316779 112238 L-314354 112238 L-313065 107476 L-312658 105095 L-309505 105095 L-309351 105095 L-309330 107476 L-308964 107476 L-307705 109857 L-306990 112238 L-306100 112238 L-305694 112238 L-304765 112238 L-303656 109857 L-303353 119380 L-297104 124142 L-296157 128904 L-294531 133666 L-294029 136047 L-290353 138428 L-289521 140809 L-285568 143190 L-284156 136047 L-281667 131285 L-280990 126523 L-280952 124142 L-280081 124142 L-276870 121761 L-274006 119380 L-273038 117000 L-271917 112238 L-271898 107476 L-270273 102714 L-269809 95571 L-269717 93190 L-263348 90809 L-262399 88428 L-259942 86047 L-259070 81285 L-257834 78904 L-255832 76523 L-255435 71761 L-253999 67000 L-251972 64619 L-251759 59857 L-250579 57476 L-249071 55095 L-249051 52714 L-247038 50333 L-246169 45571 L-245298 43190 L-244713 38428 L-244176 33666 L-243518 28904 L-242280 24142 L-241719 21761 L-240538 19380 L-239301 17000 L-239262 14619 L-238875 12238 L-238334 7476 L-237560 5095 L-236438 2714 L-234348 -2047 L-234015 -6809 L-233729 -11571 L-232801 -13952 L-232318 -18714 L-231582 -21095 L-227951 -23476 L-226823 -25857 L-226669 -28238 L-225643 -33000 L-221928 -35380 L-220711 -40142 L-218892 -44904 L-216106 -47285 L-215545 -52047 L-211657 -52047 L-209180 -54428 L-207846 -54428 L-207342 -56809 L-206859 -59190 L-204170 -59190 L-200398 -59190 L-197941 -59190 L-196761 -59190 L-196122 -61571 L-193762 -66333 L-193685 -68714 L-192637 -71095 L-192544 -75857 L-192041 -75857 L-191595 -75857 L-191538 -75857 L-191324 -75857 L-188365 -80619 L-185657 -83000 L-185502 -85380 L-181981 -87761 L-181458 -92523 L-180491 -97285 L-180142 -99666 L-179099 -104428 L-178170 -109190 L-177744 -111571 L-176235 -111571 L-175268 -113952 L-175249 -116333 L-173353 -290142 L-173237 -468714 L-173189 -644904 L-173165 -821095 L-170161 -823476 L-168130 -828238 L-166369 -830619 L-166002 -833000 L-165557 -837761 L-165190 -840142 L-164776 -844904 L-162791 -847285 L-162578 -847285 L-162423 -849666 L-160818 -849666 L-159696 -852047 L-158747 -854428 L-157490 -859190 L-155846 -861571 L-154666 -866333 L-148076 -868714 L-148030 -871095 L-147624 -873476 L-146579 -875857 L-146444 -878238 L-144761 -883000 L-144741 -885380 L-143404 -890142 L-142168 -892523 L-142014 -894904 L-141640 -899666 L-141434 -902047 L-141124 -904428 L-140350 -909190 L-138029 -911571 L-137371 -913952 L-135243 -916333 L-133521 -918714 L-133327 -923476 L-130774 -925857 L-130498 -930619 L-130310 -935380 L-129477 -937761 L-128705 -940142 L-128007 -942523 L-123006 -942523 L-122630 -947285 L-118377 -949666 L-117890 -713952 L-117871 -713952 L-117792 -716333 L-117717 -718714 L-117697 -961571 L-116884 -963952 L-116130 -968714 L-114911 -971095 L-113479 -971095 L-113383 -973476 L-113209 -973476 L-112854 -978238 L-111545 -980619 L-109688 -983000 L-107985 -987761 L-107482 -990142 L-107217 -992523 L-106824 -994904 L-106690 -997285 L-105780 -999666 L-105404 -1002047 L-104475 -1002047 L-104136 -1004428 L-104096 -1004428 L-104059 -1006809 L-102143 -1006809 L-101970 -1009190 L-100441 -1009190 L-100113 -1011571 L-99996 -1013952 L-99589 -1018714 L-99241 -1021095 L-97597 -1025857 L-97047 -1028238 L-96803 -1030619 L-96262 -1033000 L-95431 -1037761 L-94889 -1040142 L-93355 -1044904 L-93262 -1047285 L-93225 -1049666 L-93089 -1052047 L-92702 -1054428 L-91677 -1056809 L-89801 -1059190 L-89705 -1061571 L-89104 -985380 L-88737 -904428 L-88253 -821095 L-88215 -740142 L-87441 -735380 L-87383 -737761 L-87209 -742523 L-87015 -744904 L-85410 -749666 L-85390 -752047 L-85235 -747285 L-85119 -744904 L-83940 -742523 L-83785 -735380 L-83118 -735380 L-80670 -540142 L-78155 -340142 L-75485 -147285 L-67786 45571 L-62118 45571 L-59904 43190 L-59880 43190 L-58907 90809 L-58887 90809 L-58023 86047 L-55283 83666 L-49484 33666 L-49331 28904 L-46545 26523 L-32937 21761 L-32191 19380 L-27780 14619 L-11434 12238 L-11202 7476 L-10665 5095 L-2205 2714 L6500 333" />
</svg>
