<svg xmlns="http://www.w3.org/2000/svg" version="1.1" viewBox="0 0 6500 1000">
	<path fill="none" stroke="gold" stroke-width="125" stroke-linecap="round" stroke-linejoin="round" d="M0 5076  L-418616 5076 L-416012 5069 L-414344 5062 L-396015 5047 L-395844 5033 L-388687 5018 L-388653 5018 L-375222 5011 L-372301 5018 L-358960 4997 L-354791 4968 L-353631 4931 L-353012 4895 L-351000 4873 L-347228 4859 L-346628 4844 L-346299 4830 L-346086 4815 L-345544 4801 L-344306 4743 L-343127 4685 L-340263 4627 L-339741 4569 L-334885 4554 L-331948 4540 L-331905 4525 L-331597 4511 L-331345 4496 L-328750 4482 L-324495 4482 L-324477 4482 L-323240 4482 L-321362 4482 L-319409 4467 L-318461 4453 L-318190 4438 L-317880 4431 L-317782 4424 L-316952 4424 L-314921 4431 L-314630 4366 L-312484 4337 L-312329 4294 L-308672 4250 L-308421 4272 L-308323 4265 L-307806 4286 L-305654 4323 L-304726 4359 L-303200 4395 L-301960 4395 L-300414 4388 L-297452 4373 L-296330 4359 L-296021 4344 L-294810 4337 L-291803 4417 L-291783 4410 L-291436 4402 L-291223 4395 L-291096 4294 L-290855 4279 L-290817 4265 L-290797 4250 L-290778 4236 L-290719 4221 L-290661 4207 L-290642 4192 L-290199 4178 L-288960 4163 L-287414 4149 L-284027 4134 L-278300 4127 L-278099 4120 L-276463 4112 L-274741 4105 L-273309 4098 L-273077 4091 L-272361 4083 L-266229 4076 L-265861 4062 L-265707 4047 L-265129 4033 L-264836 4018 L-263869 4004 L-263559 3989 L-262960 3975 L-261354 3975 L-260619 3975 L-260309 3982 L-259541 3982 L-257504 3967 L-257079 3953 L-256267 3946 L-248838 3931 L-248315 3917 L-248141 3902 L-247406 3888 L-245839 3873 L-245433 3866 L-243208 3851 L-242260 3844 L-241835 3837 L-241505 3837 L-240461 3830 L-238353 3815 L-238101 3801 L-237482 3786 L-236669 3779 L-234561 3764 L-234513 3750 L-232585 3735 L-232259 3721 L-232124 3706 L-231621 3699 L-230208 3685 L-229705 3656 L-229183 3634 L-225624 3605 L-224889 3576 L-222464 3576 L-221174 3561 L-220767 3554 L-217615 3554 L-217460 3554 L-217440 3561 L-217073 3561 L-215815 3569 L-215100 3576 L-214210 3576 L-213803 3576 L-212875 3576 L-211766 3569 L-211463 3598 L-205214 3612 L-204267 3627 L-202640 3641 L-202139 3648 L-198463 3656 L-197630 3663 L-193677 3670 L-192266 3648 L-189776 3634 L-189100 3619 L-189061 3612 L-188190 3612 L-184979 3605 L-182116 3598 L-181148 3590 L-180026 3576 L-180007 3561 L-178382 3547 L-177918 3525 L-177826 3518 L-171457 3511 L-170509 3503 L-168052 3496 L-167179 3482 L-165943 3474 L-163942 3467 L-163544 3453 L-162108 3438 L-160082 3431 L-159869 3416 L-158689 3409 L-157180 3402 L-157160 3395 L-155148 3387 L-154278 3373 L-153407 3366 L-152823 3351 L-152285 3337 L-151628 3322 L-150390 3308 L-149829 3300 L-148648 3293 L-147410 3286 L-147372 3279 L-146985 3271 L-146443 3257 L-145669 3250 L-144547 3242 L-142458 3228 L-142125 3213 L-141839 3199 L-140910 3192 L-140427 3177 L-139692 3170 L-136060 3163 L-134933 3155 L-134778 3148 L-133752 3134 L-130037 3126 L-128820 3112 L-127002 3097 L-124216 3090 L-123654 3076 L-119767 3076 L-117290 3068 L-115955 3068 L-115452 3061 L-114969 3054 L-112279 3054 L-108508 3054 L-106050 3054 L-104871 3054 L-104231 3047 L-101872 3032 L-101794 3025 L-100747 3018 L-100653 3003 L-100151 3003 L-99705 3003 L-99647 3003 L-99434 3003 L-96474 2989 L-93767 2981 L-93612 2974 L-90091 2967 L-89568 2952 L-88601 2938 L-88252 2931 L-87208 2916 L-86279 2902 L-85854 2894 L-84345 2894 L-83378 2887 L-83359 2880 L-81463 2351 L-81347 1807 L-81299 1271 L-81275 734 L-78270 727 L-76240 713 L-74479 705 L-74112 698 L-73666 684 L-73299 676 L-72885 662 L-70900 655 L-70687 655 L-70532 647 L-68927 647 L-67805 640 L-66857 633 L-65600 618 L-63955 611 L-62775 597 L-56186 589 L-56139 582 L-55734 575 L-54689 568 L-54553 560 L-52871 546 L-52851 539 L-51514 524 L-50278 517 L-50123 510 L-49750 495 L-49543 488 L-49234 481 L-48460 466 L-46138 459 L-45481 452 L-43353 444 L-41630 437 L-41437 423 L-38884 415 L-38607 401 L-38419 386 L-37587 379 L-36814 372 L-36116 365 L-31116 365 L-30740 350 L-26487 343 L-26000 1060 L-25980 1060 L-25901 1053 L-25826 1046 L-25806 307 L-24994 299 L-24240 285 L-23021 278 L-21589 278 L-21493 270 L-21318 270 L-20964 256 L-19654 249 L-17797 241 L-16095 227 L-15592 220 L-15327 212 L-14933 205 L-14799 198 L-13889 191 L-13513 183 L-12585 183 L-12245 176 L-12206 176 L-12168 169 L-10253 169 L-10079 162 L-8550 162 L-8222 154 L-8106 147 L-7699 133 L-7351 125 L-5707 111 L-5156 104 L-4913 96 L-4372 89 L-3540 75 L-2999 67 L-1464 53 L-1372 46 L-1335 38 L-1199 31 L-812 24 L212 17 L2089 9 L2185 2 L2785 234 L3152 481 L3637 734 L3675 981 L4449 995 L4506 988 L4681 973 L4874 966 L6480 952 L6500 944" />
</svg>
