<svg xmlns="http://www.w3.org/2000/svg" version="1.1" viewBox="0 0 6500 1000">
	<path fill="none" stroke="gold" stroke-width="125" stroke-linecap="round" stroke-linejoin="round" d="M0 3302  L-728356 3302 L-725752 3302 L-724084 3302 L-705754 3302 L-705584 3301 L-698426 3301 L-698393 3301 L-684962 3301 L-682040 3301 L-668700 3301 L-664531 3300 L-663371 3299 L-662751 3299 L-660740 3298 L-656968 3298 L-656368 3298 L-656039 3297 L-655826 3297 L-655284 3297 L-654046 3296 L-652867 3295 L-650003 3293 L-649481 3292 L-644625 3292 L-641688 3292 L-641645 3291 L-641337 3291 L-641085 3291 L-638490 3291 L-634234 3291 L-634216 3291 L-632980 3291 L-631102 3291 L-629149 3290 L-628201 3290 L-627930 3290 L-627620 3290 L-627522 3289 L-626692 3289 L-624661 3290 L-624370 3288 L-622224 3288 L-622069 3287 L-618412 3286 L-618161 3286 L-618063 3286 L-617545 3287 L-615394 3287 L-614465 3288 L-612939 3289 L-611700 3289 L-610153 3289 L-607192 3288 L-606070 3288 L-605761 3288 L-604549 3288 L-601543 3289 L-601523 3289 L-601176 3289 L-600963 3289 L-600836 3287 L-600595 3287 L-600557 3286 L-600537 3286 L-600518 3286 L-600459 3285 L-600400 3285 L-600382 3285 L-599939 3285 L-598700 3284 L-597154 3284 L-593766 3284 L-588040 3284 L-587839 3283 L-586203 3283 L-584481 3283 L-583049 3283 L-582816 3283 L-582101 3283 L-575969 3283 L-575601 3282 L-575447 3282 L-574868 3282 L-574576 3281 L-573609 3281 L-573299 3281 L-572700 3281 L-571094 3281 L-570359 3281 L-570049 3281 L-569280 3281 L-567244 3280 L-566819 3280 L-566006 3280 L-558578 3280 L-558055 3279 L-557881 3279 L-557146 3279 L-555579 3279 L-555173 3278 L-552948 3278 L-552000 3278 L-551575 3278 L-551245 3278 L-550201 3278 L-548093 3277 L-547841 3277 L-547222 3277 L-546409 3277 L-544301 3276 L-544253 3276 L-542324 3276 L-541999 3276 L-541864 3275 L-541361 3275 L-539948 3275 L-539445 3274 L-538923 3274 L-535363 3273 L-534628 3273 L-532204 3273 L-530914 3272 L-530507 3272 L-527355 3272 L-527200 3272 L-527180 3272 L-526813 3272 L-525555 3273 L-524840 3273 L-523950 3273 L-523543 3273 L-522614 3273 L-521506 3273 L-521202 3273 L-514954 3273 L-514006 3274 L-512380 3274 L-511878 3274 L-508203 3274 L-507370 3274 L-503417 3275 L-502005 3274 L-499516 3274 L-498840 3274 L-498801 3273 L-497930 3273 L-494719 3273 L-491856 3273 L-490888 3273 L-489766 3273 L-489747 3272 L-488122 3272 L-487658 3272 L-487566 3272 L-481197 3271 L-480249 3271 L-477791 3271 L-476919 3271 L-475683 3271 L-473682 3271 L-473284 3270 L-471848 3270 L-469822 3270 L-469609 3269 L-468429 3269 L-466920 3269 L-466900 3269 L-464888 3269 L-464018 3269 L-463147 3268 L-462562 3268 L-462025 3268 L-461368 3268 L-460129 3267 L-459569 3267 L-458388 3267 L-457150 3267 L-457112 3267 L-456725 3267 L-456183 3266 L-455409 3266 L-454287 3266 L-452198 3266 L-451865 3265 L-451579 3265 L-450650 3265 L-450167 3265 L-449432 3265 L-445800 3264 L-444673 3264 L-444518 3264 L-443492 3264 L-439777 3264 L-438560 3263 L-436741 3263 L-433956 3263 L-433394 3263 L-429506 3263 L-427030 3263 L-425695 3263 L-425192 3262 L-424708 3262 L-422019 3262 L-418247 3262 L-415790 3262 L-414610 3262 L-413971 3262 L-411612 3262 L-411534 3262 L-410487 3262 L-410393 3261 L-409890 3261 L-409445 3261 L-409387 3261 L-409174 3261 L-406214 3261 L-403506 3261 L-403352 3261 L-399831 3261 L-399308 3260 L-398341 3260 L-397991 3260 L-396948 3260 L-396019 3259 L-395594 3259 L-394085 3259 L-393118 3259 L-393099 3259 L-391203 3248 L-391087 3238 L-391039 3227 L-391014 3217 L-388010 3216 L-385980 3216 L-384219 3216 L-383852 3216 L-383406 3216 L-383039 3215 L-382625 3215 L-380640 3215 L-380427 3215 L-380272 3215 L-378667 3215 L-377545 3215 L-376597 3215 L-375340 3214 L-373695 3214 L-372515 3214 L-365926 3214 L-365879 3214 L-365474 3213 L-364428 3213 L-364293 3213 L-362610 3213 L-362591 3213 L-361254 3212 L-360018 3212 L-359863 3212 L-359489 3212 L-359283 3212 L-358974 3212 L-358200 3211 L-355878 3211 L-355221 3211 L-353093 3211 L-351370 3211 L-351177 3210 L-348624 3210 L-348347 3210 L-348159 3210 L-347327 3210 L-346554 3209 L-345856 3209 L-340855 3209 L-340480 3209 L-336227 3209 L-335740 3223 L-335720 3223 L-335641 3223 L-335566 3223 L-335546 3208 L-334733 3208 L-333980 3208 L-332760 3208 L-331329 3208 L-331232 3207 L-331058 3207 L-330703 3207 L-329394 3207 L-327537 3207 L-325835 3207 L-325332 3206 L-325066 3206 L-324673 3206 L-324539 3206 L-323629 3206 L-323253 3206 L-322324 3206 L-321985 3206 L-321946 3206 L-321908 3205 L-319993 3205 L-319819 3205 L-318290 3205 L-317962 3205 L-317846 3205 L-317439 3205 L-317091 3205 L-315447 3204 L-314896 3204 L-314653 3204 L-314111 3204 L-313280 3204 L-312738 3203 L-311204 3203 L-311112 3203 L-311075 3203 L-310939 3203 L-310552 3203 L-309527 3202 L-307650 3202 L-307554 3202 L-306954 3207 L-306587 3212 L-306102 3217 L-306064 3221 L-305290 3222 L-305233 3222 L-305058 3221 L-304865 3221 L-303259 3221 L-303239 3221 L-303084 3221 L-302969 3221 L-301789 3221 L-301634 3222 L-300967 3222 L-298519 3233 L-296004 3245 L-293335 3257 L-285635 3269 L-279968 3269 L-277753 3268 L-277730 3268 L-276756 3271 L-276736 3271 L-275872 3271 L-273132 3271 L-267334 3268 L-267180 3268 L-264394 3267 L-250786 3267 L-250040 3267 L-245629 3267 L-229283 3267 L-229051 3266 L-228514 3266 L-220054 3266 L-211349 3266 L-211137 3266 L-209164 3266 L-206378 3266 L-201890 3266 L-201736 3266 L-201566 3266 L-201426 3265 L-201135 3265 L-201097 3265 L-200826 3265 L-200654 3265 L-200244 3265 L-199124 3264 L-197943 3264 L-196666 3264 L-193803 3264 L-190882 3264 L-188890 3264 L-187343 3263 L-184305 3263 L-174980 3263 L-174456 3263 L-168732 3263 L-167225 3263 L-166411 3263 L-164727 3263 L-164006 3262 L-163838 3262 L-162793 3262 L-160725 3262 L-159363 3262 L-154920 3262 L-154823 3262 L-154784 3261 L-154765 3261 L-153933 3261 L-153855 3261 L-151283 3261 L-148033 3261 L-147878 3260 L-146930 3260 L-145189 3260 L-144474 3261 L-140933 3262 L-134356 3262 L-132938 3264 L-132917 3263 L-131967 3263 L-128493 3263 L-127739 3263 L-127178 3263 L-126396 3263 L-118891 3262 L-117293 3262 L-115719 3262 L-112534 3262 L-108201 3262 L-99631 3262 L-90885 3262 L-87811 3262 L-84545 3261 L-83998 3261 L-76861 3261 L-71193 3261 L-57129 3261 L-51118 3261 L-46411 3261 L-42408 3261 L-37301 3261 L-27587 3260 L-12016 3260 L-8933 3260 L-8631 3196 L-8611 3116 L-8593 3026 L-8573 2926 L-8553 2880 L-8534 2841 L-8515 2805 L-8488 2770 L-8467 2736 L-8439 2700 L-8404 2660 L-8390 2627 L-8377 2598 L-8358 2574 L-8340 2556 L-8320 2538 L-8302 2520 L-8282 2501 L-8262 2483 L-8241 2464 L-8224 2445 L-8206 2427 L-8185 2410 L-8165 2392 L-8147 2373 L-8128 2353 L-8108 2333 L-8088 2313 L-8070 2294 L-8051 2276 L-8030 2258 L-8005 2241 L-7990 2224 L-7973 2208 L-7954 2191 L-7934 2175 L-7915 2157 L-7896 2139 L-7876 2122 L-7855 2106 L-7838 2090 L-7819 2076 L-7798 2062 L-7778 2049 L-7760 2037 L-7741 2026 L-7721 2015 L-7703 2005 L-7683 1995 L-7664 1986 L-7644 1978 L-7625 1970 L-7605 1963 L-7587 1955 L-7559 1946 L-7538 1936 L-7511 1924 L-7477 1912 L-7462 1902 L-7449 1893 L-7431 1885 L-7412 1878 L-7392 1871 L-7373 1862 L-7354 1854 L-7334 1845 L-7313 1838 L-7296 1831 L-7277 1823 L-7257 1815 L-7237 1806 L-7218 1796 L-7200 1785 L-7180 1774 L-7160 1763 L-7141 1751 L-7122 1740 L-7101 1727 L-7077 1713 L-7062 1699 L-7045 1686 L-7025 1673 L-7006 1660 L-6986 1646 L-6968 1632 L-6948 1618 L-6927 1605 L-6909 1592 L-6890 1579 L-6870 1567 L-6850 1555 L-6832 1543 L-6813 1533 L-6793 1522 L-6774 1513 L-6754 1503 L-6736 1493 L-6716 1484 L-6696 1474 L-6677 1465 L-6658 1456 L-6629 1446 L-6610 1437 L-6582 1428 L-6545 1418 L-6530 1407 L-6517 1398 L-6500 1389 L-6483 1382 L-6463 1376 L-6445 1371 L-6425 1365 L-6405 1360 L-6385 1355 L-6367 1349 L-6349 1342 L-6328 1335 L-6308 1329 L-6290 1321 L-6271 1314 L-6251 1306 L-6232 1297 L-6213 1288 L-6194 1280 L-6173 1272 L-6148 1263 L-6134 1255 L-6117 1247 L-6097 1238 L-6078 1230 L-6058 1221 L-6039 1212 L-6019 1203 L-5999 1194 L-5980 1185 L-5962 1177 L-5941 1170 L-5921 1162 L-5903 1155 L-5884 1148 L-5864 1141 L-5846 1134 L-5826 1126 L-5807 1120 L-5787 1113 L-5768 1106 L-5748 1100 L-5729 1093 L-5701 1086 L-5681 1080 L-5653 1072 L-5617 1061 L-5603 1051 L-5590 1042 L-5572 1034 L-5554 1029 L-5534 1023 L-5516 1017 L-5496 1010 L-5476 1002 L-5455 994 L-5437 986 L-5420 977 L-5399 968 L-5379 958 L-5361 948 L-5342 937 L-5322 926 L-5302 916 L-5284 906 L-5265 898 L-5244 892 L-5219 887 L-5204 882 L-5187 877 L-5168 871 L-5148 866 L-5129 860 L-5110 854 L-5090 849 L-5069 845 L-5052 841 L-5033 836 L-5012 829 L-4992 822 L-4975 815 L-4956 810 L-4936 806 L-4917 802 L-4897 799 L-4878 796 L-4858 792 L-4839 788 L-4820 784 L-4801 781 L-4773 777 L-4753 774 L-4725 770 L-4690 765 L-4676 761 L-4663 757 L-4644 754 L-4626 752 L-4606 749 L-4587 746 L-4568 743 L-4548 741 L-4527 738 L-4510 735 L-4491 732 L-4471 729 L-4451 726 L-4433 722 L-4414 719 L-4394 717 L-4374 714 L-4355 711 L-4337 708 L-4315 706 L-4290 703 L-4276 701 L-4259 698 L-4239 696 L-4220 693 L-4201 690 L-4182 687 L-4162 684 L-4141 681 L-4123 678 L-4104 675 L-4084 673 L-4063 670 L-4046 668 L-4027 665 L-4007 663 L-3988 660 L-3968 658 L-3950 656 L-3930 654 L-3910 653 L-3891 651 L-3872 654 L-3844 657 L-3824 660 L-3796 662 L-3759 660 L-3743 658 L-3731 656 L-3713 654 L-3697 653 L-3677 651 L-3659 650 L-3639 648 L-3619 646 L-3598 645 L-3581 644 L-3563 642 L-3542 641 L-3522 639 L-3504 637 L-3485 635 L-3465 634 L-3445 632 L-3427 630 L-3408 629 L-3387 628 L-3362 626 L-3348 625 L-3330 623 L-3311 621 L-3291 620 L-3272 618 L-3253 616 L-3233 614 L-3212 612 L-3195 609 L-3176 607 L-3155 605 L-3135 603 L-3117 601 L-3098 599 L-3079 597 L-3060 595 L-3040 593 L-3021 591 L-3001 589 L-2982 587 L-2962 585 L-2944 584 L-2916 582 L-2896 580 L-2868 578 L-2833 576 L-2819 574 L-2806 572 L-2787 570 L-2769 568 L-2748 567 L-2730 565 L-2711 563 L-2691 562 L-2670 560 L-2653 558 L-2634 556 L-2614 554 L-2594 552 L-2575 550 L-2557 547 L-2537 544 L-2516 542 L-2498 539 L-2480 537 L-2458 534 L-2433 532 L-2419 529 L-2401 527 L-2382 524 L-2363 522 L-2344 519 L-2324 516 L-2304 514 L-2284 512 L-2266 509 L-2247 507 L-2227 505 L-2206 503 L-2189 501 L-2170 499 L-2150 498 L-2131 496 L-2111 495 L-2093 493 L-2073 492 L-2053 491 L-2034 489 L-2015 488 L-1988 487 L-1967 486 L-1939 484 L-1904 481 L-1890 479 L-1877 476 L-1858 474 L-1840 472 L-1820 471 L-1802 469 L-1782 468 L-1762 466 L-1741 465 L-1724 463 L-1706 461 L-1685 459 L-1665 457 L-1647 455 L-1628 453 L-1608 451 L-1588 449 L-1570 447 L-1551 445 L-1530 444 L-1505 442 L-1490 441 L-1473 439 L-1454 437 L-1434 435 L-1415 433 L-1396 431 L-1376 428 L-1355 425 L-1338 423 L-1319 421 L-1298 418 L-1277 417 L-1260 415 L-1241 414 L-1221 413 L-1202 411 L-1183 410 L-1164 409 L-1144 407 L-1125 406 L-1105 405 L-1087 404 L-1059 403 L-1038 402 L-1011 400 L-976 399 L-962 398 L-949 397 L-930 396 L-912 395 L-892 394 L-873 393 L-854 392 L-834 391 L-813 390 L-796 389 L-777 388 L-757 387 L-737 386 L-719 385 L-700 384 L-680 383 L-660 383 L-641 382 L-622 381 L-601 381 L-577 380 L-562 379 L-545 377 L-525 376 L-506 376 L-486 375 L-468 374 L-448 372 L-427 371 L-409 369 L-390 367 L-370 364 L-349 363 L-332 361 L-313 360 L-293 359 L-274 357 L-254 356 L-236 355 L-216 354 L-196 352 L-177 351 L-158 351 L-129 350 L-82 349 L-45 348 L-30 347 L-18 346 L0 345 L16 344 L36 344 L54 343 L74 342 L94 341 L114 341 L132 340 L150 340 L171 339 L190 338 L209 337 L228 336 L248 335 L268 335 L286 334 L305 332 L326 331 L351 329 L365 328 L383 326 L402 325 L421 323 L441 322 L460 321 L480 319 L501 318 L518 316 L537 315 L558 314 L578 313 L596 312 L615 311 L635 310 L653 309 L673 308 L692 307 L712 306 L731 305 L751 304 L770 303 L798 302 L818 300 L846 299 L883 297 L897 294 L910 292 L927 291 L945 290 L965 288 L983 288 L1003 287 L1023 286 L1044 285 L1061 284 L1079 283 L1100 281 L1120 280 L1138 278 L1157 276 L1177 274 L1197 272 L1215 270 L1234 269 L1255 267 L1280 266 L1295 264 L1313 263 L1331 262 L1351 260 L1370 259 L1389 257 L1409 256 L1430 254 L1447 253 L1466 252 L1487 250 L1508 249 L1524 248 L1543 247 L1563 246 L1582 245 L1602 243 L1621 242 L1640 241 L1661 240 L1679 239 L1698 238 L1726 997 L1746 996 L1774 995 L1810 993 L1824 232 L1838 230 L1855 229 L1873 228 L1893 227 L1911 227 L1931 226 L1951 225 L1972 223 L1989 221 L2008 220 L2028 218 L2048 216 L2066 214 L2086 212 L2105 210 L2126 209 L2143 208 L2162 206 L2184 205 L2209 203 L2224 202 L2253 200 L2293 197 L2316 195 L2346 192 L2362 190 L2376 188 L2395 187 L2415 186 L2436 185 L2453 184 L2472 183 L2492 182 L2511 181 L2531 180 L2549 180 L2569 179 L2589 178 L2608 177 L2627 176 L2654 175 L2675 174 L2703 173 L2738 172 L2752 171 L2783 169 L2802 168 L2822 168 L2840 167 L2860 166 L2880 166 L2901 165 L2917 164 L2936 162 L2957 159 L2977 156 L2995 152 L3014 149 L3034 146 L3054 144 L3072 142 L3091 140 L3112 139 L3137 137 L3152 136 L3170 135 L3188 133 L3208 132 L3227 130 L3247 129 L3266 127 L3287 126 L3304 124 L3323 123 L3344 122 L3365 121 L3381 120 L3401 119 L3421 118 L3440 117 L3459 116 L3478 115 L3498 114 L3518 113 L3536 112 L3555 111 L3583 110 L3604 109 L3674 107 L3702 105 L3716 102 L3730 100 L3750 99 L3769 98 L3788 96 L3808 95 L3829 94 L3846 93 L3865 92 L3885 91 L3905 91 L3924 89 L3943 88 L3962 87 L3983 85 L4001 84 L4019 83 L4041 82 L4066 81 L4081 80 L4098 79 L4117 77 L4137 76 L4156 75 L4175 73 L4195 72 L4216 71 L4233 70 L4252 69 L4272 68 L4294 67 L4310 66 L4368 65 L4388 64 L4406 63 L4426 63 L4446 62 L4465 61 L4484 60 L4512 60 L4532 59 L4560 59 L4596 58 L4611 57 L4624 56 L4641 56 L4659 55 L4679 55 L4697 54 L4717 54 L4737 53 L4758 53 L4775 53 L4793 52 L4814 52 L4834 51 L4852 50 L4871 49 L4891 49 L4912 48 L4929 47 L4948 46 L4970 45 L4994 45 L5009 44 L5026 44 L5046 43 L5066 42 L5084 41 L5103 40 L5123 39 L5144 38 L5161 37 L5181 36 L5201 36 L5222 35 L5239 35 L5258 34 L5278 34 L5297 33 L5316 33 L5335 33 L5355 32 L5375 32 L5394 31 L5412 31 L5440 31 L5461 30 L5488 29 L5524 29 L5537 28 L5551 28 L5569 27 L5587 27 L5607 26 L5626 25 L5665 25 L5686 25 L5703 24 L5722 24 L5742 23 L5762 22 L5780 21 L5799 20 L5819 19 L5839 19 L5858 18 L5877 18 L5898 17 L5922 17 L5937 16 L5954 16 L5974 15 L5993 14 L6013 14 L6031 13 L6051 12 L6072 12 L6090 11 L6109 10 L6129 10 L6150 9 L6167 9 L6186 8 L6206 7 L6225 7 L6245 7 L6263 6 L6283 6 L6303 5 L6322 5 L6341 4 L6370 4 L6417 3 L6455 3 L6470 2 L6483 2 L6500 1" />
</svg>
