<svg xmlns="http://www.w3.org/2000/svg" version="1.1" viewBox="0 0 6500 1000">
	<path fill="none" stroke="gold" stroke-width="125" stroke-linecap="round" stroke-linejoin="round" d="M0 11496  L-730715 11496 L-728111 11495 L-726443 11495 L-708113 11494 L-707943 11493 L-700785 11492 L-700752 11492 L-687321 11491 L-684399 11492 L-671058 11490 L-666889 11488 L-665729 11486 L-665110 11483 L-663098 11482 L-659326 11481 L-658726 11480 L-658398 11479 L-658185 11478 L-657643 11477 L-656405 11473 L-655226 11469 L-652362 11466 L-651839 11462 L-646984 11461 L-644047 11460 L-644004 11459 L-643695 11458 L-643443 11457 L-640849 11456 L-636593 11456 L-636575 11456 L-635338 11456 L-633461 11456 L-631507 11455 L-630559 11454 L-630289 11453 L-629979 11453 L-629881 11452 L-629050 11452 L-627019 11453 L-626729 11448 L-624583 11446 L-624427 11443 L-620771 11441 L-620520 11442 L-620421 11441 L-619904 11443 L-617753 11445 L-616824 11448 L-615298 11450 L-614059 11450 L-612512 11450 L-609550 11449 L-608429 11448 L-608119 11447 L-606908 11446 L-603901 11452 L-603882 11451 L-603534 11451 L-603321 11450 L-603195 11443 L-602954 11442 L-602916 11441 L-602896 11441 L-602877 11440 L-602818 11439 L-602759 11438 L-602741 11437 L-602298 11436 L-601059 11435 L-599513 11434 L-596125 11433 L-590399 11432 L-590197 11432 L-588561 11431 L-586840 11431 L-585407 11430 L-585175 11430 L-584460 11429 L-578328 11429 L-577960 11428 L-577805 11427 L-577227 11426 L-576935 11425 L-575967 11424 L-575658 11423 L-575059 11422 L-573452 11422 L-572717 11422 L-572407 11423 L-571639 11423 L-569603 11422 L-569178 11421 L-568365 11420 L-560937 11419 L-560414 11418 L-560240 11417 L-559505 11416 L-557937 11415 L-557532 11415 L-555307 11414 L-554359 11413 L-553934 11413 L-553603 11413 L-552560 11413 L-550452 11412 L-550199 11411 L-549580 11410 L-548768 11409 L-546660 11408 L-546611 11407 L-544683 11406 L-544357 11405 L-544222 11404 L-543719 11404 L-542307 11403 L-541804 11401 L-541282 11399 L-537722 11398 L-536987 11396 L-534562 11396 L-533273 11395 L-532866 11394 L-529713 11394 L-529559 11394 L-529538 11395 L-529172 11395 L-527914 11395 L-527199 11396 L-526309 11396 L-525902 11396 L-524973 11396 L-523864 11395 L-523561 11397 L-517312 11398 L-516365 11399 L-514739 11400 L-514237 11400 L-510561 11401 L-509729 11401 L-505776 11402 L-504364 11400 L-501875 11399 L-501198 11399 L-501160 11398 L-500289 11398 L-497078 11398 L-494214 11397 L-493247 11397 L-492125 11396 L-492106 11395 L-490481 11394 L-490017 11392 L-489925 11392 L-483556 11391 L-482607 11391 L-480150 11390 L-479278 11389 L-478042 11389 L-476040 11388 L-475643 11387 L-474207 11386 L-472181 11386 L-471967 11385 L-470787 11384 L-469279 11384 L-469259 11384 L-467246 11383 L-466377 11382 L-465506 11382 L-464921 11381 L-464384 11380 L-463726 11379 L-462488 11378 L-461928 11377 L-460746 11377 L-459509 11376 L-459470 11376 L-459083 11375 L-458542 11374 L-457768 11374 L-456646 11373 L-454557 11372 L-454223 11371 L-453937 11370 L-453009 11370 L-452526 11369 L-451790 11369 L-448159 11368 L-447031 11368 L-446877 11367 L-445851 11366 L-442136 11366 L-440919 11365 L-439100 11364 L-436314 11363 L-435753 11362 L-431865 11362 L-429389 11362 L-428054 11362 L-427550 11361 L-427067 11361 L-424378 11361 L-420606 11361 L-418149 11361 L-416969 11361 L-416330 11360 L-413970 11359 L-413893 11359 L-412845 11358 L-412752 11357 L-412249 11357 L-411804 11357 L-411746 11357 L-411532 11357 L-408573 11356 L-405865 11356 L-405710 11356 L-402189 11355 L-401667 11354 L-400699 11353 L-400350 11353 L-399307 11352 L-398378 11351 L-397952 11350 L-396443 11350 L-395476 11350 L-395457 11349 L-393561 11314 L-393445 11278 L-393397 11242 L-393373 11206 L-390369 11206 L-388338 11205 L-386577 11204 L-386210 11204 L-385765 11203 L-385398 11202 L-384984 11201 L-382999 11201 L-382786 11201 L-382631 11200 L-381026 11200 L-379904 11200 L-378956 11200 L-377698 11199 L-376054 11198 L-374874 11197 L-368285 11197 L-368238 11196 L-367832 11196 L-366787 11195 L-366652 11195 L-364969 11194 L-364949 11193 L-363612 11192 L-362376 11192 L-362222 11191 L-361848 11190 L-361642 11190 L-361332 11189 L-360559 11188 L-358237 11188 L-357579 11187 L-355451 11187 L-353729 11186 L-353536 11186 L-350982 11185 L-350706 11184 L-350518 11183 L-349685 11183 L-348913 11182 L-348215 11182 L-343214 11182 L-342838 11181 L-338585 11180 L-338098 11228 L-338079 11228 L-338000 11228 L-337925 11227 L-337905 11178 L-337092 11177 L-336338 11176 L-335119 11176 L-333687 11176 L-333591 11175 L-333417 11175 L-333062 11174 L-331753 11174 L-329896 11173 L-328193 11172 L-327690 11172 L-327425 11172 L-327032 11171 L-326898 11171 L-325988 11170 L-325612 11170 L-324683 11170 L-324344 11169 L-324304 11169 L-324267 11169 L-322351 11169 L-322178 11168 L-320649 11168 L-320321 11168 L-320205 11167 L-319797 11166 L-319449 11166 L-317806 11165 L-317255 11164 L-317012 11164 L-316470 11163 L-315639 11162 L-315097 11162 L-313563 11161 L-313470 11160 L-313433 11160 L-313298 11159 L-312910 11159 L-311886 11158 L-310009 11158 L-309913 11158 L-309312 11173 L-308945 11189 L-308461 11206 L-308423 11223 L-307649 11224 L-307591 11223 L-307417 11222 L-307223 11222 L-305618 11221 L-305598 11220 L-305443 11221 L-305327 11222 L-304148 11222 L-303993 11224 L-303326 11224 L-300878 11263 L-298363 11304 L-295693 11343 L-287994 11382 L-282326 11382 L-280112 11382 L-280088 11382 L-279115 11391 L-279095 11391 L-278231 11390 L-275491 11390 L-269692 11380 L-269539 11379 L-266753 11378 L-253145 11377 L-252399 11377 L-247988 11376 L-231642 11375 L-231410 11374 L-230873 11374 L-222413 11373 L-213708 11373 L-213495 11372 L-211523 11372 L-208737 11372 L-204249 11372 L-204094 11372 L-203925 11372 L-203785 11371 L-203494 11370 L-203455 11370 L-203185 11370 L-203013 11369 L-202603 11369 L-201482 11368 L-200302 11368 L-199025 11367 L-196161 11367 L-193241 11366 L-191249 11366 L-189701 11365 L-186663 11364 L-177339 11364 L-176815 11363 L-171091 11363 L-169584 11363 L-168769 11363 L-167086 11362 L-166365 11361 L-166196 11361 L-165151 11360 L-163084 11360 L-161722 11359 L-157279 11359 L-157181 11358 L-157143 11358 L-157124 11357 L-156291 11357 L-156214 11356 L-153641 11356 L-150392 11355 L-150237 11355 L-149289 11354 L-147548 11353 L-146832 11356 L-143292 11358 L-136714 11361 L-135297 11365 L-135276 11365 L-134326 11364 L-130851 11364 L-130098 11363 L-129536 11362 L-128754 11362 L-121250 11361 L-119652 11361 L-118078 11360 L-114892 11360 L-110559 11359 L-101990 11359 L-93243 11359 L-90169 11358 L-86903 11357 L-86357 11357 L-79220 11356 L-73552 11356 L-59488 11356 L-53476 11357 L-48770 11356 L-44767 11356 L-39659 11355 L-29945 11355 L-14375 11354 L-11292 11353 L-10990 11135 L-10970 10868 L-10951 10564 L-10932 10224 L-10912 10069 L-10893 9938 L-10874 9818 L-10846 9700 L-10826 9585 L-10798 9463 L-10762 9329 L-10749 9215 L-10736 9117 L-10717 9036 L-10699 8976 L-10679 8915 L-10660 8853 L-10641 8792 L-10621 8730 L-10600 8666 L-10583 8603 L-10565 8541 L-10544 8483 L-10524 8423 L-10506 8358 L-10487 8292 L-10467 8223 L-10447 8156 L-10428 8091 L-10410 8031 L-10388 7972 L-10364 7912 L-10349 7856 L-10332 7801 L-10312 7744 L-10293 7690 L-10274 7630 L-10255 7569 L-10235 7512 L-10214 7457 L-10196 7404 L-10177 7355 L-10157 7308 L-10136 7264 L-10119 7226 L-10100 7188 L-10080 7151 L-10061 7116 L-10042 7083 L-10023 7052 L-10003 7025 L-9983 7000 L-9964 6973 L-9945 6948 L-9918 6915 L-9897 6882 L-9869 6844 L-9835 6802 L-9821 6768 L-9808 6738 L-9789 6711 L-9770 6688 L-9750 6662 L-9732 6634 L-9713 6606 L-9693 6577 L-9672 6551 L-9655 6527 L-9636 6501 L-9616 6475 L-9596 6445 L-9577 6410 L-9559 6374 L-9539 6336 L-9519 6298 L-9500 6260 L-9481 6221 L-9460 6177 L-9436 6129 L-9421 6082 L-9404 6038 L-9384 5995 L-9365 5951 L-9345 5905 L-9326 5856 L-9306 5810 L-9286 5765 L-9268 5721 L-9249 5677 L-9229 5637 L-9208 5595 L-9191 5557 L-9172 5521 L-9152 5485 L-9133 5454 L-9113 5421 L-9094 5389 L-9074 5358 L-9055 5325 L-9036 5293 L-9017 5261 L-8988 5229 L-8968 5200 L-8941 5170 L-8903 5133 L-8888 5099 L-8876 5066 L-8859 5036 L-8842 5014 L-8822 4993 L-8803 4974 L-8784 4956 L-8764 4939 L-8743 4920 L-8726 4900 L-8707 4878 L-8687 4856 L-8667 4833 L-8649 4808 L-8630 4783 L-8610 4755 L-8590 4726 L-8571 4697 L-8553 4669 L-8532 4642 L-8507 4612 L-8493 4585 L-8475 4556 L-8455 4527 L-8436 4499 L-8417 4469 L-8398 4438 L-8378 4408 L-8357 4378 L-8339 4349 L-8320 4322 L-8300 4296 L-8280 4270 L-8262 4247 L-8243 4223 L-8223 4199 L-8204 4174 L-8185 4150 L-8166 4127 L-8146 4104 L-8127 4082 L-8107 4060 L-8088 4037 L-8060 4015 L-8040 3992 L-8012 3965 L-7976 3930 L-7962 3896 L-7949 3865 L-7931 3837 L-7913 3820 L-7893 3802 L-7875 3779 L-7855 3756 L-7835 3731 L-7814 3704 L-7796 3675 L-7779 3646 L-7758 3614 L-7738 3581 L-7720 3547 L-7701 3510 L-7681 3473 L-7661 3439 L-7643 3407 L-7624 3380 L-7603 3359 L-7578 3341 L-7563 3324 L-7546 3307 L-7527 3289 L-7507 3269 L-7488 3250 L-7469 3231 L-7449 3214 L-7428 3199 L-7411 3185 L-7392 3168 L-7371 3147 L-7350 3123 L-7333 3100 L-7314 3082 L-7294 3067 L-7276 3056 L-7256 3045 L-7237 3034 L-7217 3022 L-7198 3009 L-7178 2995 L-7160 2983 L-7132 2970 L-7111 2959 L-7084 2946 L-7049 2929 L-7035 2916 L-7022 2904 L-7003 2894 L-6984 2884 L-6965 2875 L-6946 2865 L-6927 2855 L-6907 2847 L-6886 2838 L-6869 2829 L-6850 2819 L-6829 2808 L-6809 2797 L-6791 2785 L-6773 2775 L-6753 2766 L-6732 2757 L-6714 2748 L-6695 2739 L-6674 2729 L-6649 2721 L-6635 2712 L-6618 2704 L-6598 2696 L-6579 2686 L-6559 2677 L-6540 2666 L-6521 2655 L-6500 2645 L-6482 2636 L-6463 2627 L-6443 2618 L-6422 2610 L-6405 2601 L-6386 2592 L-6366 2585 L-6347 2576 L-6327 2569 L-6309 2562 L-6288 2557 L-6269 2550 L-6250 2544 L-6231 2555 L-6202 2564 L-6183 2574 L-6155 2583 L-6117 2574 L-6102 2568 L-6089 2561 L-6072 2556 L-6056 2551 L-6036 2546 L-6018 2540 L-5998 2534 L-5978 2529 L-5957 2525 L-5940 2520 L-5922 2515 L-5901 2510 L-5881 2504 L-5863 2498 L-5844 2492 L-5824 2487 L-5804 2481 L-5786 2475 L-5767 2471 L-5746 2466 L-5721 2462 L-5706 2456 L-5689 2450 L-5669 2445 L-5650 2439 L-5631 2434 L-5612 2428 L-5592 2421 L-5571 2413 L-5554 2404 L-5535 2397 L-5514 2390 L-5493 2384 L-5476 2377 L-5457 2370 L-5437 2363 L-5418 2357 L-5399 2349 L-5380 2342 L-5360 2334 L-5340 2328 L-5321 2323 L-5303 2318 L-5275 2312 L-5254 2305 L-5226 2298 L-5191 2290 L-5178 2284 L-5165 2278 L-5146 2272 L-5127 2266 L-5107 2261 L-5089 2255 L-5069 2249 L-5050 2243 L-5029 2237 L-5012 2232 L-4993 2226 L-4972 2219 L-4952 2212 L-4934 2204 L-4915 2194 L-4896 2185 L-4875 2176 L-4857 2167 L-4838 2160 L-4817 2151 L-4792 2142 L-4777 2134 L-4760 2125 L-4741 2117 L-4721 2108 L-4702 2100 L-4683 2091 L-4663 2083 L-4642 2075 L-4625 2067 L-4606 2059 L-4585 2051 L-4565 2045 L-4548 2039 L-4529 2033 L-4509 2028 L-4490 2022 L-4470 2017 L-4451 2012 L-4432 2008 L-4412 2004 L-4393 1999 L-4374 1996 L-4346 1991 L-4326 1986 L-4298 1981 L-4262 1972 L-4249 1964 L-4235 1956 L-4217 1948 L-4199 1942 L-4179 1937 L-4160 1932 L-4141 1927 L-4121 1922 L-4100 1916 L-4083 1910 L-4064 1903 L-4044 1897 L-4024 1890 L-4006 1883 L-3987 1876 L-3967 1869 L-3946 1862 L-3929 1856 L-3910 1851 L-3888 1846 L-3863 1840 L-3849 1835 L-3832 1829 L-3812 1823 L-3793 1817 L-3774 1810 L-3755 1802 L-3735 1793 L-3713 1783 L-3696 1775 L-3677 1767 L-3657 1760 L-3636 1753 L-3619 1748 L-3600 1744 L-3580 1740 L-3561 1736 L-3542 1732 L-3523 1727 L-3503 1723 L-3483 1718 L-3464 1715 L-3445 1710 L-3418 1706 L-3397 1703 L-3369 1698 L-3335 1695 L-3321 1691 L-3308 1687 L-3289 1683 L-3270 1680 L-3251 1677 L-3232 1673 L-3213 1670 L-3193 1668 L-3172 1665 L-3155 1662 L-3136 1658 L-3116 1654 L-3096 1651 L-3077 1647 L-3059 1644 L-3038 1641 L-3018 1639 L-3000 1636 L-2981 1634 L-2960 1632 L-2935 1628 L-2921 1625 L-2903 1621 L-2884 1618 L-2865 1615 L-2845 1611 L-2826 1609 L-2806 1604 L-2786 1598 L-2768 1592 L-2749 1585 L-2729 1578 L-2708 1572 L-2690 1568 L-2671 1563 L-2652 1558 L-2633 1554 L-2613 1549 L-2594 1544 L-2574 1541 L-2555 1537 L-2536 1534 L-2517 1531 L-2488 1528 L-2440 1525 L-2404 1521 L-2389 1517 L-2376 1514 L-2359 1511 L-2342 1510 L-2322 1508 L-2303 1506 L-2284 1503 L-2264 1500 L-2244 1498 L-2226 1496 L-2207 1494 L-2187 1492 L-2167 1489 L-2149 1486 L-2130 1483 L-2110 1480 L-2090 1477 L-2072 1473 L-2053 1469 L-2031 1465 L-2007 1459 L-1992 1454 L-1975 1448 L-1955 1443 L-1936 1439 L-1917 1434 L-1898 1430 L-1878 1425 L-1857 1420 L-1839 1415 L-1820 1411 L-1800 1407 L-1780 1403 L-1762 1400 L-1743 1397 L-1723 1393 L-1704 1390 L-1684 1387 L-1666 1383 L-1646 1380 L-1626 1376 L-1607 1372 L-1588 1369 L-1560 1365 L-1540 1361 L-1512 1356 L-1475 1349 L-1461 1341 L-1448 1334 L-1430 1328 L-1413 1325 L-1393 1321 L-1375 1318 L-1355 1315 L-1335 1313 L-1314 1310 L-1297 1306 L-1279 1302 L-1258 1297 L-1238 1292 L-1220 1286 L-1201 1279 L-1181 1271 L-1160 1265 L-1143 1259 L-1124 1254 L-1103 1249 L-1078 1244 L-1062 1239 L-1045 1235 L-1027 1230 L-1006 1227 L-988 1222 L-969 1216 L-949 1211 L-927 1205 L-911 1200 L-891 1197 L-871 1192 L-850 1188 L-833 1184 L-814 1180 L-795 1176 L-775 1173 L-756 1169 L-737 1165 L-717 1162 L-697 1158 L-678 1156 L-660 1152 L-632 3714 L-611 3710 L-583 3705 L-548 3699 L-534 1129 L-520 1124 L-502 1120 L-484 1117 L-465 1115 L-446 1113 L-427 1110 L-407 1105 L-385 1100 L-369 1095 L-350 1089 L-329 1084 L-309 1078 L-291 1071 L-272 1064 L-253 1057 L-232 1052 L-214 1048 L-195 1044 L-174 1040 L-149 1034 L-134 1028 L-104 1021 L-65 1013 L-42 1005 L-12 997 L3 989 L17 983 L36 978 L57 975 L77 972 L94 968 L113 964 L133 960 L152 958 L172 956 L191 954 L210 951 L231 948 L249 945 L268 942 L296 938 L316 935 L344 932 L379 927 L393 923 L425 919 L443 916 L463 913 L482 911 L501 908 L521 906 L542 903 L559 901 L577 894 L598 885 L619 874 L636 861 L655 850 L675 840 L695 833 L713 825 L732 820 L754 816 L779 811 L794 807 L811 802 L830 796 L850 792 L868 788 L888 783 L907 777 L929 772 L945 766 L965 762 L985 758 L1006 754 L1023 751 L1042 748 L1062 745 L1081 742 L1100 738 L1119 734 L1139 731 L1159 727 L1178 724 L1196 721 L1224 719 L1245 715 L1315 708 L1343 700 L1357 692 L1372 685 L1392 680 L1410 677 L1429 672 L1449 667 L1470 663 L1487 660 L1506 657 L1527 655 L1547 653 L1565 649 L1584 645 L1604 640 L1624 635 L1642 630 L1661 626 L1682 623 L1707 621 L1722 617 L1740 613 L1758 608 L1778 603 L1797 599 L1816 594 L1836 591 L1857 588 L1874 584 L1893 581 L1914 578 L1935 575 L1951 571 L2010 567 L2029 564 L2048 561 L2068 558 L2088 555 L2107 553 L2125 551 L2153 549 L2173 547 L2201 545 L2238 542 L2252 539 L2265 536 L2283 535 L2300 533 L2320 531 L2339 530 L2358 528 L2378 527 L2399 526 L2416 524 L2435 523 L2455 521 L2475 519 L2494 517 L2512 514 L2532 511 L2553 508 L2571 506 L2589 503 L2611 501 L2636 498 L2650 497 L2667 494 L2687 493 L2707 490 L2725 487 L2745 484 L2764 479 L2786 476 L2803 472 L2822 470 L2842 468 L2863 467 L2880 465 L2899 463 L2919 461 L2938 460 L2957 459 L2976 457 L2996 456 L3016 455 L3035 453 L3054 452 L3081 451 L3102 449 L3130 447 L3165 444 L3179 442 L3192 440 L3210 439 L3229 437 L3249 435 L3267 433 L3306 432 L3327 430 L3344 429 L3363 427 L3383 424 L3403 421 L3422 418 L3440 415 L3460 413 L3480 411 L3499 408 L3518 407 L3539 405 L3563 403 L3578 401 L3595 400 L3615 398 L3634 395 L3654 393 L3673 391 L3693 389 L3713 387 L3731 384 L3750 382 L3771 380 L3791 378 L3808 376 L3827 374 L3848 372 L3866 371 L3886 370 L3905 368 L3925 366 L3944 365 L3963 363 L3982 362 L4011 360 L4059 358 L4096 356 L4111 354 L4124 352 L4141 351 L4157 350 L4177 349 L4196 347 L4215 346 L4235 345 L4256 344 L4273 344 L4292 343 L4312 343 L4332 342 L4350 341 L4369 339 L4389 338 L4409 337 L4427 336 L4446 334 L4468 332 L4492 330 L4507 327 L4524 324 L4544 322 L4563 318 L4582 314 L4601 309 L4621 305 L4642 300 L4660 297 L4679 293 L4699 290 L4719 286 L4737 282 L4756 279 L4776 275 L4795 271 L4814 268 L4833 266 L4853 263 L4873 259 L4892 254 L4911 250 L4939 246 L4959 243 L4987 240 L5024 237 L5039 235 L5052 232 L5069 229 L5086 227 L5106 225 L5124 223 L5144 221 L5164 218 L5185 215 L5202 212 L5220 210 L5241 206 L5262 203 L5279 200 L5299 197 L5318 195 L5339 192 L5356 189 L5375 186 L5397 182 L5421 179 L5437 175 L5454 171 L5473 168 L5493 164 L5511 161 L5531 157 L5550 153 L5572 149 L5588 144 L5608 140 L5628 136 L5649 133 L5666 130 L5685 128 L5705 126 L5724 125 L5743 122 L5762 119 L5782 116 L5801 113 L5820 111 L5839 108 L5888 104 L5915 101 L5948 97 L5963 94 L5975 90 L5994 87 L6014 85 L6034 82 L6053 79 L6072 76 L6092 73 L6113 71 L6130 69 L6149 67 L6170 64 L6189 61 L6208 59 L6226 55 L6246 52 L6267 49 L6285 45 L6304 42 L6325 39 L6350 36 L6364 33 L6381 29 L6401 25 L6421 20 L6440 16 L6459 12 L6479 9 L6500 5" />
</svg>
