<svg xmlns="http://www.w3.org/2000/svg" version="1.1" viewBox="0 0 6500 1000">
	<path fill="none" stroke="gold" stroke-width="125" stroke-linecap="round" stroke-linejoin="round" d="M0 3763  L-724678 3763 L-722074 3762 L-720406 3762 L-702077 3762 L-701906 3762 L-694749 3761 L-694716 3761 L-681285 3761 L-678363 3761 L-665022 3761 L-660853 3760 L-659693 3759 L-659074 3758 L-657062 3758 L-653290 3757 L-652690 3757 L-652361 3757 L-652148 3756 L-651607 3756 L-650369 3755 L-649190 3753 L-646325 3752 L-645803 3751 L-640947 3750 L-638010 3750 L-637967 3750 L-637659 3749 L-637407 3749 L-634812 3748 L-630557 3748 L-630539 3748 L-629302 3748 L-627424 3748 L-625471 3748 L-624523 3748 L-624252 3747 L-623942 3747 L-623844 3747 L-623014 3747 L-620983 3747 L-620693 3746 L-618546 3745 L-618391 3744 L-614734 3743 L-614483 3744 L-614385 3743 L-613868 3744 L-611717 3745 L-610788 3746 L-609262 3746 L-608022 3746 L-606476 3746 L-603514 3746 L-602392 3746 L-602083 3745 L-600872 3745 L-597865 3747 L-597845 3747 L-597498 3747 L-597285 3746 L-597159 3744 L-596917 3744 L-596879 3743 L-596860 3743 L-596840 3743 L-596781 3742 L-596723 3742 L-596705 3742 L-596262 3741 L-595022 3741 L-593476 3741 L-590089 3740 L-584362 3740 L-584161 3740 L-582525 3740 L-580803 3740 L-579371 3739 L-579139 3739 L-578423 3739 L-572291 3739 L-571923 3739 L-571769 3738 L-571191 3738 L-570898 3737 L-569931 3737 L-569621 3737 L-569022 3736 L-567416 3736 L-566681 3736 L-566371 3737 L-565603 3737 L-563567 3736 L-563141 3736 L-562329 3736 L-554900 3735 L-554377 3735 L-554204 3735 L-553469 3734 L-551901 3734 L-551495 3734 L-549270 3734 L-548322 3733 L-547897 3733 L-547567 3733 L-546523 3733 L-544415 3733 L-544163 3732 L-543544 3732 L-542731 3732 L-540623 3731 L-540575 3731 L-538647 3731 L-538321 3730 L-538186 3730 L-537683 3730 L-536270 3730 L-535767 3729 L-535245 3728 L-531686 3728 L-530951 3727 L-528526 3727 L-527236 3727 L-526830 3727 L-523677 3727 L-523522 3727 L-523502 3727 L-523135 3727 L-521877 3727 L-521162 3727 L-520272 3727 L-519865 3727 L-518937 3727 L-517828 3727 L-517525 3728 L-511276 3728 L-510329 3728 L-508702 3729 L-508201 3729 L-504525 3729 L-503693 3729 L-499740 3729 L-498328 3729 L-495838 3728 L-495162 3728 L-495123 3728 L-494252 3728 L-491041 3728 L-488178 3728 L-487210 3727 L-486089 3727 L-486070 3727 L-484445 3726 L-483981 3726 L-483889 3726 L-477519 3725 L-476571 3725 L-474114 3725 L-473241 3725 L-472005 3725 L-470004 3724 L-469607 3724 L-468170 3724 L-466144 3724 L-465931 3723 L-464751 3723 L-463242 3723 L-463222 3723 L-461210 3723 L-460341 3722 L-459470 3722 L-458885 3722 L-458348 3721 L-457690 3721 L-456452 3721 L-455891 3721 L-454710 3720 L-453473 3720 L-453434 3720 L-453047 3720 L-452505 3719 L-451732 3719 L-450609 3719 L-448520 3719 L-448187 3718 L-447901 3718 L-446973 3718 L-446489 3718 L-445754 3717 L-442123 3717 L-440995 3717 L-440840 3717 L-439814 3717 L-436100 3716 L-434882 3716 L-433064 3716 L-430278 3716 L-429717 3715 L-425829 3715 L-423352 3715 L-422017 3715 L-421514 3715 L-421031 3715 L-418341 3715 L-414570 3715 L-412113 3715 L-410933 3715 L-410294 3714 L-407934 3714 L-407857 3714 L-406809 3714 L-406716 3713 L-406213 3713 L-405767 3713 L-405710 3713 L-405496 3713 L-402536 3713 L-399829 3713 L-399674 3713 L-396153 3713 L-395630 3712 L-394663 3712 L-394314 3712 L-393270 3711 L-392342 3711 L-391916 3711 L-390407 3711 L-389440 3711 L-389421 3711 L-387525 3698 L-387409 3685 L-387361 3672 L-387337 3660 L-384333 3660 L-382302 3659 L-380541 3659 L-380174 3659 L-379728 3659 L-379361 3658 L-378948 3658 L-376963 3658 L-376749 3658 L-376594 3658 L-374989 3658 L-373867 3658 L-372919 3657 L-371662 3657 L-370017 3657 L-368838 3656 L-362248 3656 L-362202 3656 L-361796 3656 L-360751 3656 L-360615 3656 L-358933 3655 L-358913 3655 L-357576 3655 L-356340 3655 L-356186 3654 L-355812 3654 L-355605 3654 L-355296 3654 L-354522 3653 L-352201 3653 L-351543 3653 L-349415 3653 L-347693 3653 L-347499 3652 L-344946 3652 L-344669 3652 L-344481 3652 L-343649 3651 L-342876 3651 L-342178 3651 L-337178 3651 L-336802 3651 L-332549 3650 L-332062 3667 L-332043 3667 L-331964 3667 L-331888 3667 L-331868 3650 L-331056 3649 L-330302 3649 L-329083 3649 L-327651 3649 L-327555 3649 L-327380 3649 L-327026 3648 L-325717 3648 L-323859 3648 L-322157 3648 L-321654 3648 L-321389 3647 L-320996 3647 L-320861 3647 L-319952 3647 L-319575 3647 L-318647 3647 L-318308 3647 L-318268 3647 L-318230 3646 L-316315 3646 L-316141 3646 L-314612 3646 L-314284 3646 L-314168 3646 L-313761 3645 L-313413 3645 L-311769 3645 L-311218 3645 L-310975 3645 L-310434 3644 L-309602 3644 L-309061 3644 L-307526 3644 L-307434 3643 L-307397 3643 L-307261 3643 L-306874 3643 L-305849 3643 L-303973 3643 L-303876 3642 L-303276 3648 L-302909 3654 L-302424 3660 L-302386 3666 L-301613 3666 L-301555 3666 L-301380 3665 L-301187 3665 L-299582 3665 L-299562 3665 L-299406 3665 L-299291 3665 L-298111 3665 L-297957 3666 L-297290 3666 L-294842 3680 L-292327 3694 L-289657 3708 L-281958 3722 L-276290 3722 L-274075 3722 L-274052 3722 L-273078 3725 L-273058 3725 L-272195 3725 L-269454 3725 L-263656 3721 L-263502 3721 L-260717 3721 L-247108 3721 L-246362 3720 L-241952 3720 L-225605 3720 L-225373 3719 L-224836 3719 L-216377 3719 L-207671 3719 L-207459 3719 L-205486 3719 L-202700 3719 L-198213 3719 L-198058 3719 L-197889 3719 L-197748 3718 L-197458 3718 L-197419 3718 L-197148 3718 L-196977 3718 L-196566 3717 L-195446 3717 L-194266 3717 L-192989 3717 L-190125 3717 L-187205 3717 L-185213 3716 L-183665 3716 L-180627 3716 L-171303 3716 L-170779 3716 L-165055 3716 L-163548 3715 L-162733 3715 L-161050 3715 L-160329 3715 L-160160 3715 L-159115 3714 L-157048 3714 L-155686 3714 L-151242 3714 L-151145 3714 L-151107 3714 L-151088 3713 L-150255 3713 L-150177 3713 L-147605 3713 L-144356 3713 L-144201 3712 L-143252 3712 L-141511 3712 L-140796 3713 L-137255 3714 L-130678 3715 L-129261 3716 L-129240 3716 L-128289 3716 L-124815 3716 L-124062 3715 L-123500 3715 L-122718 3715 L-115214 3715 L-113615 3715 L-112041 3714 L-108856 3714 L-104523 3714 L-95953 3714 L-87207 3714 L-84133 3714 L-80867 3713 L-80321 3713 L-73183 3713 L-67516 3713 L-53451 3713 L-47440 3713 L-42734 3713 L-38730 3713 L-33623 3713 L-23909 3712 L-8338 3712 L-5256 3712 L-4953 3635 L-4934 3539 L-4915 3431 L-4895 3311 L-4876 3256 L-4856 3209 L-4838 3166 L-4810 3124 L-4789 3083 L-4761 3040 L-4726 2992 L-4712 2952 L-4699 2917 L-4681 2888 L-4662 2867 L-4642 2845 L-4624 2824 L-4604 2802 L-4585 2780 L-4564 2757 L-4547 2734 L-4528 2713 L-4507 2692 L-4488 2670 L-4469 2647 L-4450 2624 L-4431 2599 L-4410 2576 L-4392 2553 L-4373 2531 L-4352 2510 L-4327 2489 L-4313 2469 L-4295 2449 L-4276 2429 L-4256 2410 L-4237 2389 L-4218 2367 L-4198 2347 L-4178 2327 L-4160 2308 L-4141 2291 L-4120 2274 L-4100 2258 L-4083 2245 L-4064 2232 L-4044 2218 L-4025 2206 L-4005 2194 L-3986 2183 L-3966 2174 L-3947 2165 L-3928 2155 L-3909 2146 L-3882 2135 L-3861 2123 L-3833 2109 L-3799 2095 L-3785 2082 L-3772 2072 L-3753 2062 L-3734 2054 L-3714 2045 L-3696 2035 L-3676 2025 L-3656 2015 L-3636 2005 L-3618 1997 L-3599 1987 L-3579 1978 L-3559 1967 L-3541 1955 L-3522 1942 L-3502 1929 L-3482 1915 L-3464 1902 L-3445 1888 L-3424 1872 L-3399 1855 L-3385 1839 L-3367 1823 L-3348 1807 L-3328 1792 L-3309 1775 L-3290 1758 L-3270 1742 L-3250 1726 L-3231 1710 L-3213 1695 L-3192 1680 L-3172 1665 L-3154 1652 L-3135 1639 L-3115 1626 L-3096 1615 L-3077 1604 L-3058 1592 L-3038 1581 L-3019 1569 L-2999 1558 L-2980 1547 L-2952 1535 L-2932 1525 L-2904 1514 L-2867 1501 L-2852 1489 L-2839 1477 L-2822 1467 L-2805 1459 L-2785 1452 L-2767 1445 L-2748 1438 L-2728 1432 L-2707 1425 L-2690 1418 L-2671 1411 L-2650 1403 L-2631 1395 L-2612 1386 L-2594 1377 L-2574 1367 L-2554 1357 L-2535 1346 L-2516 1336 L-2495 1327 L-2471 1316 L-2456 1306 L-2439 1296 L-2419 1286 L-2400 1276 L-2380 1265 L-2361 1254 L-2341 1243 L-2321 1233 L-2303 1222 L-2284 1213 L-2264 1204 L-2243 1195 L-2226 1186 L-2207 1178 L-2187 1169 L-2168 1160 L-2148 1152 L-2129 1144 L-2109 1136 L-2090 1128 L-2071 1120 L-2052 1112 L-2024 1104 L-2003 1096 L-1976 1086 L-1939 1073 L-1925 1062 L-1912 1050 L-1895 1041 L-1877 1034 L-1857 1028 L-1838 1020 L-1818 1012 L-1799 1003 L-1778 993 L-1759 983 L-1742 973 L-1722 961 L-1701 950 L-1683 937 L-1664 924 L-1645 911 L-1624 899 L-1606 888 L-1588 878 L-1566 871 L-1541 864 L-1527 858 L-1509 852 L-1490 846 L-1471 839 L-1451 832 L-1433 825 L-1413 819 L-1392 814 L-1374 809 L-1355 803 L-1335 795 L-1314 787 L-1297 779 L-1278 772 L-1258 767 L-1239 763 L-1220 759 L-1201 755 L-1181 751 L-1161 746 L-1142 741 L-1123 737 L-1096 733 L-1075 728 L-1047 724 L-1012 718 L-999 713 L-985 709 L-967 705 L-948 702 L-928 699 L-910 695 L-890 692 L-870 689 L-849 686 L-832 682 L-814 679 L-793 675 L-773 671 L-755 667 L-736 663 L-716 660 L-696 657 L-678 653 L-659 650 L-638 647 L-613 644 L-598 641 L-581 638 L-562 635 L-542 632 L-523 628 L-504 624 L-484 620 L-463 617 L-446 614 L-427 611 L-406 607 L-386 604 L-368 601 L-349 598 L-329 595 L-311 593 L-291 590 L-272 588 L-252 585 L-233 583 L-214 581 L-195 585 L-166 588 L-146 592 L-118 595 L-81 592 L-66 589 L-53 587 L-36 585 L-19 584 L0 582 L18 580 L38 578 L57 576 L79 574 L95 572 L114 571 L134 569 L155 567 L173 565 L191 563 L211 561 L231 559 L250 557 L269 555 L290 553 L315 552 L329 550 L346 548 L366 546 L385 544 L405 542 L424 540 L443 537 L464 534 L482 531 L501 529 L521 526 L542 524 L559 522 L578 519 L598 517 L617 515 L637 512 L655 509 L675 507 L695 504 L714 503 L733 501 L760 498 L781 496 L809 494 L844 491 L857 489 L871 486 L890 484 L908 482 L928 480 L946 478 L966 476 L986 474 L1007 472 L1024 470 L1042 468 L1063 466 L1083 463 L1101 460 L1120 457 L1140 453 L1160 450 L1178 447 L1197 444 L1218 441 L1243 438 L1258 435 L1275 432 L1294 429 L1314 426 L1333 423 L1352 420 L1372 417 L1393 414 L1410 411 L1430 409 L1450 406 L1471 404 L1488 401 L1507 399 L1527 398 L1546 396 L1565 394 L1584 392 L1604 390 L1624 389 L1643 387 L1662 386 L1689 384 L1710 383 L1738 381 L1773 378 L1787 375 L1800 372 L1819 369 L1837 367 L1857 365 L1875 363 L1895 362 L1914 360 L1935 358 L1952 356 L1971 353 L1992 351 L2012 349 L2030 346 L2049 344 L2068 341 L2089 339 L2107 336 L2126 335 L2147 333 L2172 331 L2187 329 L2204 327 L2223 325 L2243 323 L2262 320 L2281 317 L2301 314 L2322 311 L2339 308 L2358 305 L2379 302 L2399 300 L2416 298 L2435 297 L2455 295 L2474 294 L2494 292 L2513 291 L2533 289 L2552 288 L2571 286 L2590 285 L2617 283 L2638 282 L2666 280 L2700 279 L2714 278 L2728 276 L2746 275 L2765 274 L2785 273 L2803 272 L2823 271 L2843 270 L2863 269 L2881 267 L2899 266 L2920 265 L2940 263 L2958 262 L2977 261 L2997 260 L3017 259 L3035 258 L3054 258 L3075 257 L3100 256 L3115 254 L3132 253 L3151 252 L3171 251 L3190 250 L3209 249 L3229 247 L3250 245 L3267 243 L3286 240 L3307 238 L3327 236 L3345 234 L3364 232 L3384 231 L3402 229 L3422 227 L3441 226 L3461 225 L3480 223 L3500 222 L3519 221 L3547 220 L3595 219 L3632 217 L3647 216 L3659 215 L3676 214 L3694 213 L3713 213 L3732 212 L3751 211 L3771 210 L3792 209 L3809 208 L3828 208 L3848 207 L3868 206 L3887 205 L3905 204 L3926 203 L3945 202 L3964 200 L3983 199 L4004 197 L4028 195 L4043 193 L4060 192 L4080 190 L4099 188 L4119 186 L4138 185 L4158 183 L4178 182 L4196 180 L4215 178 L4235 177 L4256 175 L4273 174 L4292 173 L4312 172 L4331 171 L4351 170 L4370 168 L4390 167 L4409 166 L4428 165 L4447 163 L4475 162 L4496 161 L4524 159 L4560 156 L4575 153 L4588 151 L4605 149 L4622 148 L4643 146 L4661 145 L4681 144 L4700 144 L4722 142 L4738 141 L4757 140 L4777 138 L4798 136 L4816 134 L4835 131 L4854 129 L4875 127 L4893 124 L4912 123 L4933 121 L4958 119 L4973 117 L4991 116 L5009 114 L5029 113 L5048 111 L5066 109 L5087 107 L5108 105 L5125 104 L5144 102 L5164 101 L5185 99 L5202 98 L5221 96 L5241 95 L5260 94 L5279 92 L5298 91 L5318 90 L5338 88 L5357 88 L5376 86 L5404 997 L5424 995 L5452 994 L5488 992 L5502 78 L5515 76 L5533 75 L5551 74 L5571 73 L5589 72 L5609 71 L5629 70 L5650 68 L5667 66 L5685 64 L5706 62 L5726 60 L5744 58 L5763 55 L5783 53 L5804 51 L5821 49 L5840 48 L5862 46 L5886 44 L5902 42 L5931 40 L5971 37 L5994 34 L6023 31 L6040 28 L6053 26 L6073 25 L6093 23 L6114 22 L6131 21 L6150 19 L6170 18 L6189 17 L6208 17 L6227 16 L6247 15 L6267 14 L6286 13 L6304 12 L6332 10 L6353 9 L6381 8 L6416 6 L6429 5 L6461 3 L6480 2 L6500 1" />
</svg>
