<svg xmlns="http://www.w3.org/2000/svg" version="1.1" viewBox="0 0 6500 1000">
	<path fill="none" stroke="gold" stroke-width="125" stroke-linecap="round" stroke-linejoin="round" d="M0 31318  L-254935 31318 L-252331 31182 L-250663 31047 L-232334 30776 L-232164 30505 L-225006 30234 L-224973 30234 L-211542 30098 L-208620 30234 L-195279 29827 L-191110 29285 L-189950 28608 L-189331 27930 L-187319 27524 L-183547 27253 L-182947 26982 L-182618 26711 L-182405 26440 L-181864 26169 L-180626 25085 L-179447 24001 L-176582 22917 L-176060 21833 L-171205 21562 L-168267 21291 L-168224 21020 L-167916 20749 L-167664 20478 L-165069 20207 L-160814 20207 L-160796 20207 L-159559 20207 L-157682 20207 L-155728 19936 L-154780 19665 L-154509 19394 L-154199 19258 L-154101 19123 L-153271 19123 L-151240 19258 L-150950 18039 L-148803 17497 L-148648 16684 L-144992 15871 L-144741 16277 L-144642 16142 L-144125 16548 L-141974 17226 L-141045 17903 L-139519 18581 L-138279 18581 L-136733 18445 L-133771 18174 L-132649 17903 L-132340 17632 L-131129 17497 L-128122 18987 L-128103 18852 L-127755 18716 L-127542 18581 L-127416 16684 L-127174 16413 L-127136 16142 L-127117 15871 L-127097 15600 L-127038 15329 L-126980 15058 L-126962 14787 L-126519 14516 L-125279 14245 L-123734 13974 L-120346 13703 L-114620 13567 L-114418 13432 L-112782 13296 L-111060 13161 L-109628 13025 L-109396 12890 L-108681 12754 L-102548 12619 L-102181 12348 L-102026 12077 L-101448 11806 L-101155 11535 L-100188 11264 L-99878 10993 L-99279 10722 L-97673 10722 L-96938 10722 L-96628 10857 L-95860 10857 L-93824 10586 L-93398 10315 L-92586 10180 L-85157 9909 L-84634 9638 L-84461 9367 L-83726 9096 L-82158 8825 L-81752 8689 L-79527 8418 L-78579 8283 L-78154 8147 L-77824 8147 L-76780 8012 L-74672 7741 L-74420 7470 L-73801 7199 L-72988 7063 L-70881 6792 L-70832 6521 L-68904 6250 L-68578 5979 L-68443 5708 L-67940 5573 L-66527 5302 L-66024 4760 L-65503 4353 L-61943 3811 L-61208 3269 L-58783 3269 L-57494 2998 L-57087 2863 L-53934 2863 L-53779 2863 L-53759 2998 L-53392 2998 L-52134 3134 L-51419 3269 L-50529 3269 L-50122 3269 L-49194 3269 L-48085 3134 L-47782 3676 L-41533 3947 L-40586 4218 L-38960 4489 L-38458 4624 L-34782 4760 L-33950 4895 L-29997 5031 L-28585 4624 L-26096 4353 L-25419 4082 L-25380 3947 L-24509 3947 L-21298 3811 L-18435 3676 L-17467 3540 L-16346 3269 L-16327 2998 L-14702 2727 L-14238 2321 L-14146 2185 L-7776 2050 L-6828 1914 L-4371 1779 L-3499 1508 L-2263 1372 L-261 1237 L135 966 L1572 695 L3598 559 L3811 288 L4991 153 L6500 17" />
</svg>
