<svg xmlns="http://www.w3.org/2000/svg" version="1.1" viewBox="0 0 6500 1000">
	<path fill="none" stroke="gold" stroke-width="125" stroke-linecap="round" stroke-linejoin="round" d="M0 10665  L-149156 10665 L-146552 10595 L-144883 10525 L-126554 10384 L-126384 10244 L-119226 10104 L-119193 10104 L-105762 10034 L-102840 10104 L-89499 9894 L-85330 9613 L-84170 9262 L-83551 8912 L-81539 8701 L-77767 8561 L-77167 8421 L-76839 8281 L-76626 8140 L-76084 8000 L-74846 7439 L-73667 6878 L-70803 6317 L-70280 5756 L-65425 5616 L-62488 5476 L-62445 5335 L-62136 5195 L-61884 5055 L-59289 4915 L-55034 4915 L-55016 4915 L-53779 4915 L-51902 4915 L-49948 4774 L-49000 4634 L-48730 4494 L-48420 4424 L-48322 4354 L-47491 4354 L-45460 4424 L-45170 3793 L-43024 3512 L-42868 3091 L-39212 2671 L-38961 2881 L-38862 2811 L-38345 3021 L-36194 3372 L-35265 3723 L-33739 4073 L-32500 4073 L-30953 4003 L-27991 3863 L-26869 3723 L-26560 3582 L-25349 3512 L-22342 4284 L-22323 4213 L-21975 4143 L-21762 4073 L-21636 3091 L-21394 2951 L-21357 2811 L-21337 2671 L-21318 2530 L-21259 2390 L-21200 2250 L-21182 2110 L-20739 1969 L-19500 1829 L-17954 1689 L-14566 1549 L-8840 1478 L-8638 1408 L-7002 1338 L-5280 1268 L-3848 1198 L-3616 1128 L-2901 1058 L3230 988 L3598 847 L3753 707 L4331 567 L4624 427 L5591 286 L5900 146 L6500 6" />
</svg>
