<svg xmlns="http://www.w3.org/2000/svg" version="1.1" viewBox="0 0 6500 1000">
	<path fill="none" stroke="gold" stroke-width="125" stroke-linecap="round" stroke-linejoin="round" d="M0 5076  L-418887 5076 L-416283 5069 L-414615 5062 L-396285 5047 L-396115 5033 L-388957 5018 L-388924 5018 L-375493 5011 L-372571 5018 L-359230 4997 L-355061 4968 L-353901 4931 L-353282 4895 L-351270 4873 L-347499 4859 L-346898 4844 L-346570 4830 L-346357 4815 L-345815 4801 L-344577 4743 L-343398 4685 L-340534 4627 L-340011 4569 L-335156 4554 L-332219 4540 L-332176 4525 L-331867 4511 L-331615 4496 L-329021 4482 L-324765 4482 L-324747 4482 L-323510 4482 L-321633 4482 L-319679 4467 L-318731 4453 L-318461 4438 L-318151 4431 L-318053 4424 L-317222 4424 L-315192 4431 L-314901 4366 L-312755 4337 L-312599 4294 L-308943 4250 L-308692 4272 L-308593 4265 L-308076 4286 L-305925 4323 L-304996 4359 L-303470 4395 L-302231 4395 L-300684 4388 L-297722 4373 L-296601 4359 L-296291 4344 L-295080 4337 L-292073 4417 L-292054 4410 L-291706 4402 L-291493 4395 L-291367 4294 L-291126 4279 L-291088 4265 L-291068 4250 L-291049 4236 L-290990 4221 L-290931 4207 L-290913 4192 L-290470 4178 L-289231 4163 L-287685 4149 L-284297 4134 L-278571 4127 L-278369 4120 L-276734 4112 L-275012 4105 L-273579 4098 L-273347 4091 L-272632 4083 L-266500 4076 L-266132 4062 L-265978 4047 L-265399 4033 L-265107 4018 L-264139 4004 L-263830 3989 L-263231 3975 L-261624 3975 L-260889 3975 L-260579 3982 L-259811 3982 L-257775 3967 L-257350 3953 L-256537 3946 L-249109 3931 L-248586 3917 L-248412 3902 L-247677 3888 L-246109 3873 L-245704 3866 L-243479 3851 L-242531 3844 L-242106 3837 L-241775 3837 L-240732 3830 L-238624 3815 L-238371 3801 L-237752 3786 L-236940 3779 L-234832 3764 L-234783 3750 L-232855 3735 L-232529 3721 L-232394 3706 L-231891 3699 L-230479 3685 L-229976 3656 L-229454 3634 L-225894 3605 L-225159 3576 L-222734 3576 L-221445 3561 L-221038 3554 L-217885 3554 L-217731 3554 L-217710 3561 L-217344 3561 L-216086 3569 L-215371 3576 L-214481 3576 L-214074 3576 L-213145 3576 L-212036 3569 L-211733 3598 L-205484 3612 L-204537 3627 L-202911 3641 L-202409 3648 L-198733 3656 L-197901 3663 L-193948 3670 L-192536 3648 L-190047 3634 L-189370 3619 L-189332 3612 L-188461 3612 L-185250 3605 L-182387 3598 L-181419 3590 L-180297 3576 L-180278 3561 L-178653 3547 L-178189 3525 L-178097 3518 L-171728 3511 L-170779 3503 L-168322 3496 L-167450 3482 L-166214 3474 L-164213 3467 L-163815 3453 L-162379 3438 L-160353 3431 L-160139 3416 L-158959 3409 L-157451 3402 L-157431 3395 L-155418 3387 L-154549 3373 L-153678 3366 L-153093 3351 L-152556 3337 L-151898 3322 L-150660 3308 L-150100 3300 L-148918 3293 L-147681 3286 L-147642 3279 L-147255 3271 L-146714 3257 L-145940 3250 L-144818 3242 L-142729 3228 L-142395 3213 L-142109 3199 L-141181 3192 L-140698 3177 L-139962 3170 L-136331 3163 L-135203 3155 L-135049 3148 L-134023 3134 L-130308 3126 L-129091 3112 L-127272 3097 L-124486 3090 L-123925 3076 L-120037 3076 L-117561 3068 L-116226 3068 L-115722 3061 L-115239 3054 L-112550 3054 L-108778 3054 L-106321 3054 L-105141 3054 L-104502 3047 L-102142 3032 L-102065 3025 L-101018 3018 L-100924 3003 L-100421 3003 L-99976 3003 L-99918 3003 L-99704 3003 L-96745 2989 L-94037 2981 L-93882 2974 L-90361 2967 L-89839 2952 L-88871 2938 L-88522 2931 L-87479 2916 L-86550 2902 L-86124 2894 L-84615 2894 L-83648 2887 L-83629 2880 L-81733 2351 L-81617 1807 L-81570 1271 L-81545 734 L-78541 727 L-76510 713 L-74749 705 L-74382 698 L-73937 684 L-73570 676 L-73156 662 L-71171 655 L-70958 655 L-70803 647 L-69198 647 L-68076 640 L-67128 633 L-65870 618 L-64226 611 L-63046 597 L-56457 589 L-56410 582 L-56004 575 L-54959 568 L-54824 560 L-53141 546 L-53121 539 L-51784 524 L-50548 517 L-50394 510 L-50020 495 L-49814 488 L-49504 481 L-48731 466 L-46409 459 L-45751 452 L-43623 444 L-41901 437 L-41708 423 L-39154 415 L-38878 401 L-38690 386 L-37857 379 L-37085 372 L-36387 365 L-31386 365 L-31010 350 L-26757 343 L-26270 1060 L-26251 1060 L-26172 1053 L-26097 1046 L-26077 307 L-25264 299 L-24510 285 L-23291 278 L-21859 278 L-21763 270 L-21589 270 L-21234 256 L-19925 249 L-18068 241 L-16365 227 L-15862 220 L-15597 212 L-15204 205 L-15070 198 L-14160 191 L-13784 183 L-12855 183 L-12516 176 L-12476 176 L-12439 169 L-10523 169 L-10350 162 L-8821 162 L-8493 154 L-8377 147 L-7969 133 L-7621 125 L-5978 111 L-5427 104 L-5184 96 L-4642 89 L-3811 75 L-3269 67 L-1735 53 L-1642 46 L-1605 38 L-1470 31 L-1082 24 L-58 17 L1818 9 L1914 2 L2514 234 L2882 481 L3366 734 L3404 981 L4178 995 L4236 988 L4410 973 L4604 966 L6209 952 L6229 944 L6384 959 L6500 966" />
</svg>
