<svg xmlns="http://www.w3.org/2000/svg" version="1.1" viewBox="0 0 6500 1000">
	<path fill="none" stroke="gold" stroke-width="125" stroke-linecap="round" stroke-linejoin="round" d="M0 3314  L-728120 3314 L-725516 3314 L-723848 3314 L-705518 3313 L-705348 3313 L-698190 3313 L-698157 3313 L-684726 3313 L-681804 3313 L-668464 3312 L-664295 3312 L-663134 3311 L-662515 3310 L-660503 3310 L-656732 3310 L-656132 3309 L-655803 3309 L-655590 3309 L-655048 3308 L-653810 3307 L-652631 3306 L-649767 3305 L-649245 3304 L-644389 3303 L-641452 3303 L-641409 3303 L-641101 3303 L-640849 3302 L-638254 3302 L-633998 3302 L-633980 3302 L-632744 3302 L-630866 3302 L-628913 3302 L-627965 3301 L-627694 3301 L-627384 3301 L-627286 3301 L-626456 3301 L-624425 3301 L-624134 3300 L-621988 3299 L-621833 3298 L-618176 3297 L-617925 3298 L-617827 3298 L-617309 3298 L-615158 3299 L-614229 3300 L-612703 3300 L-611464 3300 L-609917 3300 L-606956 3300 L-605834 3300 L-605525 3299 L-604313 3299 L-601307 3301 L-601287 3301 L-600940 3300 L-600727 3300 L-600600 3298 L-600359 3298 L-600321 3298 L-600301 3297 L-600282 3297 L-600223 3297 L-600164 3297 L-600146 3296 L-599703 3296 L-598464 3296 L-596918 3295 L-593530 3295 L-587804 3295 L-587603 3295 L-585967 3295 L-584245 3295 L-582813 3294 L-582580 3294 L-581865 3294 L-575733 3294 L-575365 3294 L-575211 3293 L-574632 3293 L-574340 3293 L-573372 3293 L-573063 3292 L-572464 3292 L-570858 3292 L-570122 3292 L-569813 3292 L-569044 3292 L-567008 3292 L-566583 3292 L-565770 3291 L-558342 3291 L-557819 3291 L-557645 3291 L-556910 3290 L-555343 3290 L-554937 3290 L-552712 3290 L-551764 3289 L-551339 3289 L-551009 3289 L-549965 3289 L-547857 3289 L-547605 3289 L-546986 3288 L-546173 3288 L-544065 3288 L-544017 3288 L-542088 3287 L-541763 3287 L-541628 3287 L-541124 3287 L-539712 3286 L-539209 3286 L-538687 3285 L-535127 3285 L-534392 3284 L-531967 3284 L-530678 3284 L-530271 3284 L-527119 3284 L-526964 3284 L-526944 3284 L-526577 3284 L-525319 3284 L-524604 3284 L-523714 3284 L-523307 3284 L-522378 3284 L-521270 3284 L-520966 3285 L-514718 3285 L-513770 3285 L-512144 3285 L-511642 3286 L-507967 3286 L-507134 3286 L-503181 3286 L-501769 3286 L-499280 3285 L-498604 3285 L-498565 3285 L-497694 3285 L-494483 3285 L-491620 3285 L-490652 3284 L-489530 3284 L-489511 3284 L-487886 3284 L-487422 3283 L-487330 3283 L-480961 3283 L-480012 3283 L-477555 3283 L-476683 3282 L-475447 3282 L-473446 3282 L-473048 3282 L-471612 3281 L-469586 3281 L-469373 3281 L-468192 3281 L-466684 3281 L-466664 3280 L-464652 3280 L-463782 3280 L-462911 3280 L-462326 3280 L-461789 3279 L-461131 3279 L-459893 3279 L-459333 3279 L-458152 3278 L-456914 3278 L-456876 3278 L-456489 3278 L-455947 3278 L-455173 3278 L-454051 3277 L-451962 3277 L-451628 3277 L-451343 3277 L-450414 3276 L-449931 3276 L-449195 3276 L-445564 3276 L-444437 3276 L-444282 3276 L-443256 3275 L-439541 3275 L-438324 3275 L-436505 3275 L-433720 3274 L-433158 3274 L-429270 3274 L-426794 3274 L-425459 3274 L-424955 3274 L-424472 3274 L-421783 3274 L-418011 3274 L-415554 3274 L-414374 3274 L-413735 3274 L-411376 3273 L-411298 3273 L-410251 3273 L-410157 3273 L-409654 3273 L-409209 3273 L-409151 3273 L-408938 3273 L-405978 3272 L-403270 3272 L-403116 3272 L-399595 3272 L-399072 3272 L-398104 3271 L-397755 3271 L-396712 3271 L-395783 3271 L-395358 3271 L-393849 3271 L-392882 3270 L-392863 3270 L-390967 3260 L-390851 3249 L-390803 3238 L-390778 3228 L-387774 3228 L-385743 3227 L-383983 3227 L-383616 3227 L-383170 3227 L-382803 3227 L-382389 3226 L-380404 3226 L-380191 3226 L-380036 3226 L-378431 3226 L-377309 3226 L-376361 3226 L-375103 3225 L-373459 3225 L-372279 3225 L-365690 3225 L-365643 3225 L-365237 3225 L-364192 3224 L-364057 3224 L-362374 3224 L-362354 3224 L-361018 3224 L-359781 3223 L-359627 3223 L-359253 3223 L-359047 3223 L-358738 3223 L-357964 3222 L-355642 3222 L-354985 3222 L-352857 3222 L-351134 3222 L-350941 3222 L-348387 3221 L-348111 3221 L-347923 3221 L-347090 3221 L-346318 3221 L-345620 3220 L-340619 3220 L-340243 3220 L-335991 3220 L-335503 3234 L-335484 3234 L-335405 3234 L-335330 3234 L-335310 3219 L-334497 3219 L-333744 3219 L-332524 3219 L-331093 3219 L-330996 3219 L-330822 3219 L-330467 3218 L-329158 3218 L-327301 3218 L-325599 3218 L-325096 3218 L-324830 3217 L-324437 3217 L-324303 3217 L-323393 3217 L-323017 3217 L-322088 3217 L-321749 3217 L-321710 3217 L-321672 3217 L-319756 3217 L-319583 3216 L-318054 3216 L-317726 3216 L-317610 3216 L-317203 3216 L-316854 3216 L-315211 3215 L-314660 3215 L-314417 3215 L-313875 3215 L-313044 3215 L-312502 3215 L-310968 3214 L-310876 3214 L-310839 3214 L-310703 3214 L-310316 3214 L-309291 3214 L-307414 3213 L-307318 3213 L-306718 3218 L-306351 3223 L-305866 3228 L-305828 3233 L-305054 3233 L-304997 3233 L-304822 3232 L-304629 3232 L-303023 3232 L-303003 3232 L-302848 3232 L-302733 3232 L-301553 3232 L-301398 3233 L-300731 3233 L-298283 3245 L-295768 3257 L-293099 3268 L-285399 3280 L-279732 3280 L-277517 3280 L-277494 3280 L-276520 3283 L-276500 3283 L-275636 3283 L-272896 3282 L-267098 3279 L-266944 3279 L-264158 3279 L-250550 3279 L-249804 3278 L-245393 3278 L-229047 3278 L-228815 3278 L-228278 3278 L-219818 3277 L-211113 3277 L-210900 3277 L-208928 3277 L-206142 3277 L-201654 3277 L-201499 3277 L-201330 3277 L-201190 3277 L-200899 3277 L-200861 3276 L-200590 3276 L-200418 3276 L-200008 3276 L-198887 3276 L-197707 3276 L-196430 3276 L-193566 3275 L-190646 3275 L-188654 3275 L-187107 3275 L-184069 3275 L-174744 3275 L-174220 3274 L-168496 3274 L-166989 3274 L-166175 3274 L-164491 3274 L-163770 3274 L-163602 3274 L-162557 3274 L-160489 3273 L-159127 3273 L-154684 3273 L-154587 3273 L-154548 3273 L-154529 3273 L-153697 3273 L-153619 3272 L-151046 3272 L-147797 3272 L-147642 3272 L-146694 3272 L-144953 3271 L-144238 3272 L-140697 3273 L-134119 3274 L-132702 3275 L-132681 3275 L-131731 3275 L-128257 3275 L-127503 3274 L-126942 3274 L-126160 3274 L-118655 3274 L-117057 3274 L-115483 3274 L-112298 3273 L-107965 3273 L-99395 3273 L-90649 3273 L-87575 3273 L-84309 3273 L-83762 3273 L-76625 3272 L-70957 3272 L-56893 3272 L-50882 3273 L-46175 3272 L-42172 3272 L-37065 3272 L-27351 3272 L-11780 3272 L-8697 3271 L-8395 3207 L-8375 3127 L-8357 3036 L-8337 2935 L-8317 2889 L-8298 2850 L-8279 2815 L-8252 2779 L-8231 2745 L-8203 2709 L-8168 2669 L-8154 2635 L-8141 2606 L-8122 2582 L-8104 2564 L-8084 2546 L-8066 2527 L-8046 2509 L-8026 2491 L-8005 2471 L-7988 2453 L-7970 2434 L-7949 2417 L-7929 2399 L-7911 2380 L-7892 2360 L-7872 2340 L-7852 2320 L-7834 2300 L-7815 2282 L-7794 2265 L-7769 2247 L-7754 2230 L-7737 2214 L-7717 2197 L-7698 2181 L-7679 2163 L-7660 2145 L-7640 2128 L-7619 2112 L-7602 2096 L-7583 2081 L-7562 2067 L-7542 2054 L-7524 2043 L-7505 2031 L-7485 2021 L-7467 2010 L-7447 2000 L-7428 1991 L-7408 1983 L-7388 1975 L-7369 1968 L-7351 1960 L-7323 1950 L-7302 1940 L-7275 1929 L-7241 1917 L-7226 1907 L-7213 1898 L-7195 1889 L-7176 1883 L-7156 1875 L-7137 1867 L-7118 1858 L-7098 1850 L-7077 1842 L-7060 1835 L-7041 1827 L-7021 1819 L-7001 1810 L-6982 1800 L-6964 1789 L-6944 1778 L-6924 1766 L-6905 1755 L-6886 1743 L-6865 1730 L-6841 1716 L-6826 1702 L-6809 1689 L-6789 1676 L-6770 1663 L-6750 1649 L-6732 1635 L-6711 1621 L-6691 1608 L-6673 1595 L-6654 1582 L-6634 1570 L-6614 1557 L-6596 1546 L-6577 1535 L-6557 1524 L-6538 1515 L-6518 1506 L-6499 1496 L-6480 1487 L-6460 1477 L-6441 1467 L-6422 1458 L-6393 1448 L-6373 1440 L-6346 1431 L-6309 1420 L-6293 1410 L-6281 1400 L-6264 1391 L-6247 1384 L-6227 1378 L-6209 1372 L-6189 1367 L-6169 1362 L-6149 1356 L-6131 1350 L-6113 1344 L-6092 1337 L-6072 1330 L-6054 1323 L-6035 1315 L-6015 1307 L-5995 1299 L-5977 1290 L-5958 1282 L-5937 1274 L-5912 1265 L-5898 1257 L-5880 1248 L-5860 1239 L-5842 1231 L-5822 1222 L-5803 1213 L-5783 1204 L-5763 1195 L-5744 1186 L-5726 1178 L-5705 1170 L-5685 1163 L-5667 1156 L-5648 1149 L-5628 1142 L-5610 1134 L-5590 1127 L-5571 1120 L-5551 1113 L-5532 1107 L-5512 1100 L-5493 1094 L-5465 1087 L-5445 1080 L-5417 1072 L-5381 1061 L-5367 1052 L-5354 1042 L-5336 1034 L-5318 1029 L-5298 1023 L-5280 1017 L-5260 1010 L-5240 1002 L-5219 994 L-5201 986 L-5184 977 L-5163 968 L-5143 958 L-5125 947 L-5106 937 L-5086 926 L-5066 915 L-5048 906 L-5029 898 L-5008 892 L-4983 886 L-4968 881 L-4951 876 L-4932 871 L-4912 865 L-4893 859 L-4874 854 L-4854 848 L-4833 844 L-4816 840 L-4797 835 L-4776 829 L-4756 821 L-4739 814 L-4720 809 L-4699 805 L-4681 801 L-4661 798 L-4642 795 L-4622 791 L-4603 787 L-4584 783 L-4565 780 L-4537 776 L-4516 772 L-4489 769 L-4454 764 L-4440 760 L-4427 756 L-4408 753 L-4390 750 L-4370 747 L-4351 744 L-4332 742 L-4312 739 L-4291 737 L-4274 734 L-4255 731 L-4235 727 L-4215 724 L-4197 721 L-4178 718 L-4158 715 L-4138 712 L-4119 710 L-4101 707 L-4079 704 L-4054 702 L-4040 699 L-4023 697 L-4003 694 L-3984 691 L-3965 689 L-3946 685 L-3926 682 L-3905 679 L-3887 676 L-3868 674 L-3848 671 L-3827 669 L-3810 666 L-3791 663 L-3771 661 L-3752 659 L-3732 656 L-3714 654 L-3694 653 L-3674 651 L-3655 649 L-3636 652 L-3608 655 L-3588 658 L-3560 661 L-3523 658 L-3507 656 L-3495 654 L-3477 652 L-3461 651 L-3441 650 L-3423 648 L-3403 646 L-3383 645 L-3362 643 L-3345 642 L-3327 640 L-3306 639 L-3286 637 L-3268 635 L-3249 634 L-3229 632 L-3209 630 L-3191 629 L-3172 627 L-3151 626 L-3126 625 L-3111 623 L-3094 621 L-3075 619 L-3055 618 L-3036 616 L-3017 614 L-2997 612 L-2976 610 L-2959 607 L-2940 605 L-2919 603 L-2899 601 L-2881 599 L-2862 597 L-2842 595 L-2824 593 L-2804 591 L-2785 589 L-2765 587 L-2746 585 L-2726 583 L-2708 582 L-2680 580 L-2659 578 L-2632 576 L-2597 573 L-2583 571 L-2570 570 L-2551 568 L-2532 566 L-2512 565 L-2494 563 L-2475 561 L-2455 559 L-2434 558 L-2417 556 L-2398 554 L-2378 552 L-2358 550 L-2339 548 L-2321 545 L-2301 542 L-2280 539 L-2262 537 L-2244 535 L-2222 532 L-2197 529 L-2182 527 L-2165 524 L-2146 522 L-2126 519 L-2107 517 L-2088 514 L-2068 512 L-2048 509 L-2030 507 L-2011 505 L-1991 502 L-1970 500 L-1953 499 L-1934 497 L-1914 495 L-1895 494 L-1875 492 L-1857 491 L-1837 489 L-1817 488 L-1798 487 L-1779 486 L-1751 484 L-1731 483 L-1703 481 L-1668 479 L-1654 476 L-1641 474 L-1622 471 L-1604 470 L-1584 468 L-1566 467 L-1546 465 L-1526 464 L-1505 462 L-1488 460 L-1470 458 L-1449 456 L-1429 454 L-1411 452 L-1392 450 L-1372 448 L-1352 446 L-1334 444 L-1315 443 L-1293 441 L-1269 439 L-1254 438 L-1237 436 L-1217 434 L-1198 433 L-1179 430 L-1160 428 L-1140 425 L-1119 423 L-1102 420 L-1082 418 L-1062 415 L-1041 414 L-1024 412 L-1005 411 L-985 410 L-966 408 L-947 407 L-928 406 L-908 404 L-888 403 L-869 402 L-851 401 L-823 400 L-802 399 L-775 397 L-740 396 L-726 395 L-713 394 L-694 393 L-676 392 L-656 391 L-637 390 L-618 389 L-598 388 L-577 387 L-560 386 L-541 385 L-521 384 L-501 383 L-482 382 L-464 381 L-444 380 L-424 379 L-405 379 L-386 378 L-365 377 L-341 376 L-326 375 L-309 374 L-289 373 L-270 372 L-250 371 L-232 370 L-212 369 L-191 367 L-173 365 L-154 363 L-134 361 L-113 360 L-96 358 L-77 357 L-57 356 L-38 354 L-18 353 L0 351 L19 350 L39 349 L58 348 L77 347 L106 346 L153 346 L190 344 L205 343 L218 342 L235 341 L252 341 L272 341 L290 340 L310 339 L330 338 L350 337 L368 337 L386 336 L407 336 L426 335 L445 334 L464 333 L484 332 L504 331 L522 330 L541 329 L562 328 L587 326 L602 324 L619 323 L638 321 L658 320 L677 318 L696 317 L716 316 L737 314 L755 313 L773 312 L794 310 L814 309 L832 308 L851 307 L871 306 L890 306 L909 305 L928 303 L948 302 L967 301 L987 300 L1006 299 L1034 298 L1054 297 L1082 295 L1119 293 L1133 291 L1146 289 L1163 287 L1181 286 L1201 285 L1219 284 L1239 283 L1259 283 L1280 282 L1297 280 L1315 279 L1336 278 L1356 276 L1374 274 L1393 272 L1413 270 L1434 268 L1451 267 L1470 265 L1491 264 L1516 262 L1531 261 L1549 259 L1567 258 L1587 257 L1606 255 L1625 254 L1645 252 L1666 250 L1683 249 L1702 248 L1723 247 L1744 245 L1760 244 L1779 243 L1799 242 L1818 241 L1838 240 L1857 239 L1877 238 L1897 236 L1915 236 L1934 234 L1962 997 L1982 996 L2010 995 L2046 993 L2060 228 L2074 226 L2091 225 L2109 224 L2129 224 L2148 223 L2167 222 L2187 221 L2208 219 L2225 218 L2244 216 L2264 214 L2285 212 L2303 210 L2322 208 L2341 206 L2362 205 L2380 204 L2398 202 L2420 201 L2445 199 L2460 198 L2489 196 L2529 193 L2552 191 L2582 188 L2598 186 L2612 184 L2631 183 L2651 182 L2672 181 L2689 180 L2708 179 L2728 178 L2747 177 L2767 176 L2785 176 L2805 175 L2825 174 L2844 173 L2863 172 L2890 171 L2911 170 L2939 169 L2974 168 L2988 166 L3019 165 L3038 164 L3058 163 L3076 163 L3096 162 L3116 161 L3137 161 L3154 160 L3172 158 L3193 155 L3213 152 L3231 148 L3250 145 L3270 142 L3290 139 L3308 137 L3327 136 L3349 135 L3373 133 L3388 132 L3406 130 L3424 129 L3444 127 L3463 126 L3483 125 L3502 123 L3523 121 L3540 120 L3560 118 L3580 117 L3601 116 L3618 115 L3637 114 L3657 113 L3676 113 L3695 111 L3714 110 L3734 109 L3754 108 L3772 107 L3791 106 L3819 106 L3840 105 L3910 103 L3938 100 L3952 98 L3966 95 L3986 94 L4005 93 L4024 92 L4044 90 L4065 89 L4082 88 L4101 87 L4121 87 L4141 86 L4160 85 L4179 84 L4198 82 L4219 81 L4237 79 L4256 78 L4277 77 L4302 76 L4317 75 L4334 74 L4353 73 L4373 71 L4392 70 L4411 68 L4431 67 L4452 67 L4469 66 L4488 65 L4508 64 L4530 63 L4546 62 L4604 61 L4624 60 L4642 59 L4662 58 L4682 57 L4701 56 L4720 56 L4748 55 L4768 54 L4796 54 L4833 53 L4847 52 L4860 51 L4877 51 L4895 50 L4915 50 L4933 49 L4953 49 L4973 49 L4994 48 L5011 48 L5029 47 L5050 47 L5070 46 L5088 45 L5107 45 L5127 44 L5148 43 L5165 42 L5184 41 L5206 41 L5231 40 L5245 40 L5262 39 L5282 38 L5302 37 L5320 37 L5339 36 L5359 34 L5380 33 L5397 32 L5417 31 L5437 31 L5458 31 L5475 30 L5494 29 L5514 29 L5533 28 L5552 28 L5571 28 L5591 27 L5611 27 L5630 27 L5648 26 L5676 26 L5697 25 L5725 25 L5760 24 L5773 23 L5787 23 L5805 22 L5823 22 L5843 21 L5862 21 L5901 20 L5922 20 L5939 19 L5958 19 L5978 18 L5998 17 L6017 16 L6035 15 L6055 15 L6075 14 L6094 13 L6113 13 L6134 12 L6158 12 L6173 11 L6190 11 L6210 10 L6229 9 L6249 9 L6267 8 L6287 7 L6308 7 L6326 6 L6345 5 L6365 5 L6386 4 L6403 4 L6422 3 L6442 2 L6461 2 L6481 2 L6500 1" />
</svg>
