<svg xmlns="http://www.w3.org/2000/svg" version="1.1" viewBox="0 0 6500 1000">
	<path fill="none" stroke="gold" stroke-width="125" stroke-linecap="round" stroke-linejoin="round" d="M0 64769  L-374529 64769 L-371925 64669 L-370257 64569 L-351927 64369 L-351757 64169 L-344599 63970 L-344566 63970 L-331135 63870 L-328213 63970 L-314873 63670 L-310704 63270 L-309544 62771 L-308924 62271 L-306913 61972 L-303141 61772 L-302541 61572 L-302212 61372 L-301999 61172 L-301457 60973 L-300219 60173 L-299040 59374 L-296176 58575 L-295654 57776 L-290798 57576 L-287861 57376 L-287818 57176 L-287510 56977 L-287258 56777 L-284663 56577 L-280407 56577 L-280389 56577 L-279153 56577 L-277275 56577 L-275322 56377 L-274374 56177 L-274103 55978 L-273793 55878 L-273695 55778 L-272865 55778 L-270834 55878 L-270543 54979 L-268397 54579 L-268242 53980 L-264585 53380 L-264334 53680 L-264236 53580 L-263718 53880 L-261567 54379 L-260638 54879 L-259112 55378 L-257873 55378 L-256326 55278 L-253365 55078 L-252243 54879 L-251934 54679 L-250722 54579 L-247716 55678 L-247696 55578 L-247349 55478 L-247136 55378 L-247009 53980 L-246768 53780 L-246730 53580 L-246710 53380 L-246691 53180 L-246632 52981 L-246573 52781 L-246555 52581 L-246112 52381 L-244873 52181 L-243327 51982 L-239939 51782 L-234213 51682 L-234012 51582 L-232376 51482 L-230654 51382 L-229222 51282 L-228989 51182 L-228274 51082 L-222142 50983 L-221774 50783 L-221620 50583 L-221041 50383 L-220749 50183 L-219781 49984 L-219472 49784 L-218873 49584 L-217267 49584 L-216532 49584 L-216222 49684 L-215453 49684 L-213417 49484 L-212992 49284 L-212179 49184 L-204751 48985 L-204228 48785 L-204054 48585 L-203319 48385 L-201752 48185 L-201346 48085 L-199121 47886 L-198173 47786 L-197748 47686 L-197418 47686 L-196374 47586 L-194266 47386 L-194014 47186 L-193395 46987 L-192582 46887 L-190474 46687 L-190426 46487 L-188497 46287 L-188172 46087 L-188037 45888 L-187534 45788 L-186121 45588 L-185618 45188 L-185096 44889 L-181536 44489 L-180801 44089 L-178377 44089 L-177087 43890 L-176680 43790 L-173528 43790 L-173373 43790 L-173353 43890 L-172986 43890 L-171728 43990 L-171013 44089 L-170123 44089 L-169716 44089 L-168787 44089 L-167679 43990 L-167375 44389 L-161127 44589 L-160179 44789 L-158553 44989 L-158051 45088 L-154376 45188 L-153543 45288 L-149590 45388 L-148178 45088 L-145689 44889 L-145013 44689 L-144974 44589 L-144103 44589 L-140892 44489 L-138029 44389 L-137061 44289 L-135939 44089 L-135920 43890 L-134295 43690 L-133831 43390 L-133739 43290 L-127370 43190 L-126422 43090 L-123964 42991 L-123092 42791 L-121856 42691 L-119855 42591 L-119457 42391 L-118021 42191 L-115995 42091 L-115782 41892 L-114601 41792 L-113093 41692 L-113073 41592 L-111061 41492 L-110191 41292 L-109320 41192 L-108735 40993 L-108198 40793 L-107541 40593 L-106302 40393 L-105742 40293 L-104561 40193 L-103323 40093 L-103285 39994 L-102898 39894 L-102356 39694 L-101582 39594 L-100460 39494 L-98371 39294 L-98038 39094 L-97752 38895 L-96823 38795 L-96340 38595 L-95605 38495 L-91973 38395 L-90846 38295 L-90691 38195 L-89665 37996 L-85950 37896 L-84733 37696 L-82914 37496 L-80129 37396 L-79567 37196 L-75679 37196 L-73203 37096 L-71868 37096 L-71365 36997 L-70881 36897 L-68192 36897 L-64420 36897 L-61963 36897 L-60783 36897 L-60144 36797 L-57785 36597 L-57707 36497 L-56660 36397 L-56566 36197 L-56063 36197 L-55618 36197 L-55560 36197 L-55347 36197 L-52387 35998 L-49679 35898 L-49525 35798 L-46004 35698 L-45481 35498 L-44514 35298 L-44164 35198 L-43121 34999 L-42192 34799 L-41767 34699 L-40258 34699 L-39291 34599 L-39272 34499 L-37376 27206 L-37260 19714 L-37212 12321 L-37187 4929 L-34183 4829 L-32153 4629 L-30392 4529 L-30025 4429 L-29579 4229 L-29212 4129 L-28798 3930 L-26813 3830 L-26600 3830 L-26445 3730 L-24840 3730 L-23718 3630 L-22770 3530 L-21513 3330 L-19868 3230 L-18688 3030 L-12099 2931 L-12052 2831 L-11647 2731 L-10601 2631 L-10466 2531 L-8783 2331 L-8764 2231 L-7427 2031 L-6191 1932 L-6036 1832 L-5662 1632 L-5456 1532 L-5147 1432 L-4373 1232 L-2051 1132 L-1394 1032 L733 933 L2456 833 L2649 633 L5202 533 L5479 333 L5667 133 L6500 33" />
</svg>
