<svg xmlns="http://www.w3.org/2000/svg" version="1.1" viewBox="0 0 6500 1000">
	<path fill="none" stroke="gold" stroke-width="125" stroke-linecap="round" stroke-linejoin="round" d="M0 5076  L-420221 5076 L-417617 5069 L-415949 5062 L-397620 5047 L-397449 5033 L-390292 5018 L-390258 5018 L-376827 5011 L-373906 5018 L-360565 4997 L-356396 4968 L-355236 4931 L-354617 4895 L-352605 4873 L-348833 4859 L-348233 4844 L-347904 4830 L-347691 4815 L-347149 4801 L-345911 4743 L-344732 4685 L-341868 4627 L-341346 4569 L-336490 4554 L-333553 4540 L-333510 4525 L-333202 4511 L-332950 4496 L-330355 4482 L-326100 4482 L-326082 4482 L-324845 4482 L-322967 4482 L-321014 4467 L-320066 4453 L-319795 4438 L-319485 4431 L-319387 4424 L-318557 4424 L-316526 4431 L-316235 4366 L-314089 4337 L-313934 4294 L-310277 4250 L-310026 4272 L-309928 4265 L-309411 4286 L-307259 4323 L-306331 4359 L-304805 4395 L-303565 4395 L-302019 4388 L-299057 4373 L-297935 4359 L-297626 4344 L-296415 4337 L-293408 4417 L-293388 4410 L-293041 4402 L-292828 4395 L-292701 4294 L-292460 4279 L-292422 4265 L-292402 4250 L-292383 4236 L-292324 4221 L-292266 4207 L-292247 4192 L-291804 4178 L-290565 4163 L-289019 4149 L-285632 4134 L-279905 4127 L-279704 4120 L-278068 4112 L-276346 4105 L-274914 4098 L-274682 4091 L-273966 4083 L-267834 4076 L-267466 4062 L-267312 4047 L-266734 4033 L-266441 4018 L-265474 4004 L-265164 3989 L-264565 3975 L-262959 3975 L-262224 3975 L-261914 3982 L-261146 3982 L-259109 3967 L-258684 3953 L-257872 3946 L-250443 3931 L-249920 3917 L-249746 3902 L-249011 3888 L-247444 3873 L-247038 3866 L-244813 3851 L-243865 3844 L-243440 3837 L-243110 3837 L-242066 3830 L-239958 3815 L-239706 3801 L-239087 3786 L-238274 3779 L-236166 3764 L-236118 3750 L-234190 3735 L-233864 3721 L-233729 3706 L-233226 3699 L-231813 3685 L-231310 3656 L-230788 3634 L-227229 3605 L-226494 3576 L-224069 3576 L-222779 3561 L-222372 3554 L-219220 3554 L-219065 3554 L-219045 3561 L-218678 3561 L-217420 3569 L-216705 3576 L-215815 3576 L-215408 3576 L-214479 3576 L-213371 3569 L-213068 3598 L-206819 3612 L-205871 3627 L-204245 3641 L-203744 3648 L-200068 3656 L-199235 3663 L-195282 3670 L-193871 3648 L-191381 3634 L-190705 3619 L-190666 3612 L-189795 3612 L-186584 3605 L-183721 3598 L-182753 3590 L-181631 3576 L-181612 3561 L-179987 3547 L-179523 3525 L-179431 3518 L-173062 3511 L-172114 3503 L-169657 3496 L-168784 3482 L-167548 3474 L-165547 3467 L-165149 3453 L-163713 3438 L-161687 3431 L-161474 3416 L-160294 3409 L-158785 3402 L-158765 3395 L-156753 3387 L-155883 3373 L-155012 3366 L-154428 3351 L-153890 3337 L-153233 3322 L-151995 3308 L-151434 3300 L-150253 3293 L-149015 3286 L-148977 3279 L-148590 3271 L-148048 3257 L-147274 3250 L-146152 3242 L-144063 3228 L-143730 3213 L-143444 3199 L-142515 3192 L-142032 3177 L-141297 3170 L-137665 3163 L-136538 3155 L-136383 3148 L-135357 3134 L-131642 3126 L-130425 3112 L-128607 3097 L-125821 3090 L-125259 3076 L-121372 3076 L-118895 3068 L-117560 3068 L-117057 3061 L-116574 3054 L-113884 3054 L-110113 3054 L-107655 3054 L-106476 3054 L-105836 3047 L-103477 3032 L-103399 3025 L-102352 3018 L-102258 3003 L-101755 3003 L-101310 3003 L-101252 3003 L-101039 3003 L-98079 2989 L-95372 2981 L-95217 2974 L-91696 2967 L-91173 2952 L-90206 2938 L-89857 2931 L-88813 2916 L-87884 2902 L-87459 2894 L-85950 2894 L-84983 2887 L-84964 2880 L-83068 2351 L-82952 1807 L-82904 1271 L-82880 734 L-79875 727 L-77845 713 L-76084 705 L-75717 698 L-75271 684 L-74904 676 L-74490 662 L-72505 655 L-72292 655 L-72137 647 L-70532 647 L-69410 640 L-68462 633 L-67205 618 L-65560 611 L-64380 597 L-57791 589 L-57744 582 L-57339 575 L-56294 568 L-56158 560 L-54476 546 L-54456 539 L-53119 524 L-51883 517 L-51728 510 L-51355 495 L-51148 488 L-50839 481 L-50065 466 L-47743 459 L-47086 452 L-44958 444 L-43235 437 L-43042 423 L-40489 415 L-40212 401 L-40024 386 L-39192 379 L-38419 372 L-37721 365 L-32721 365 L-32345 350 L-28092 343 L-27605 1060 L-27585 1060 L-27506 1053 L-27431 1046 L-27411 307 L-26599 299 L-25845 285 L-24626 278 L-23194 278 L-23097 270 L-22923 270 L-22569 256 L-21259 249 L-19402 241 L-17700 227 L-17197 220 L-16932 212 L-16538 205 L-16404 198 L-15494 191 L-15118 183 L-14190 183 L-13850 176 L-13811 176 L-13773 169 L-11858 169 L-11684 162 L-10155 162 L-9827 154 L-9711 147 L-9304 133 L-8956 125 L-7312 111 L-6761 104 L-6518 96 L-5977 89 L-5145 75 L-4604 67 L-3069 53 L-2977 46 L-2940 38 L-2804 31 L-2417 24 L-1392 17 L484 9 L580 2 L1180 234 L1547 481 L2032 734 L2070 981 L2844 995 L2901 988 L3076 973 L3269 966 L4875 952 L4895 944 L5050 959 L5165 966 L6345 973 L6500 995" />
</svg>
