<svg xmlns="http://www.w3.org/2000/svg" version="1.1" viewBox="0 0 6500 1000">
	<path fill="none" stroke="gold" stroke-width="125" stroke-linecap="round" stroke-linejoin="round" d="M0 41327  L-277337 41327 L-274733 41172 L-273065 41017 L-254736 40706 L-254566 40395 L-247408 40085 L-247375 40085 L-233944 39930 L-231022 40085 L-217681 39619 L-213512 38998 L-212352 38222 L-211733 37445 L-209721 36979 L-205949 36669 L-205349 36358 L-205021 36048 L-204808 35737 L-204266 35427 L-203028 34184 L-201849 32942 L-198984 31700 L-198462 30458 L-193607 30147 L-190669 29836 L-190627 29526 L-190318 29215 L-190066 28905 L-187471 28594 L-183216 28594 L-183198 28594 L-181961 28594 L-180084 28594 L-178130 28284 L-177182 27973 L-176911 27663 L-176602 27507 L-176504 27352 L-175673 27352 L-173642 27507 L-173352 26110 L-171206 25489 L-171050 24557 L-167394 23625 L-167143 24091 L-167044 23936 L-166527 24402 L-164376 25178 L-163447 25954 L-161921 26731 L-160681 26731 L-159135 26576 L-156173 26265 L-155051 25954 L-154742 25644 L-153531 25489 L-150524 27197 L-150505 27041 L-150157 26886 L-149944 26731 L-149818 24557 L-149576 24246 L-149538 23936 L-149519 23625 L-149499 23315 L-149441 23004 L-149382 22694 L-149364 22383 L-148921 22072 L-147681 21762 L-146136 21451 L-142748 21141 L-137022 20986 L-136820 20830 L-135184 20675 L-133462 20520 L-132030 20364 L-131798 20209 L-131083 20054 L-124950 19899 L-124583 19588 L-124428 19277 L-123850 18967 L-123557 18656 L-122590 18346 L-122280 18035 L-121681 17725 L-120075 17725 L-119340 17725 L-119030 17880 L-118262 17880 L-116226 17569 L-115801 17259 L-114988 17104 L-107559 16793 L-107036 16482 L-106863 16172 L-106128 15861 L-104560 15551 L-104154 15395 L-101929 15085 L-100982 14930 L-100557 14774 L-100226 14774 L-99182 14619 L-97074 14309 L-96822 13998 L-96203 13687 L-95391 13532 L-93283 13222 L-93234 12911 L-91306 12600 L-90980 12290 L-90845 11979 L-90342 11824 L-88929 11513 L-88426 10892 L-87905 10427 L-84345 9805 L-83610 9184 L-81185 9184 L-79896 8874 L-79489 8718 L-76336 8718 L-76181 8718 L-76161 8874 L-75795 8874 L-74536 9029 L-73821 9184 L-72931 9184 L-72524 9184 L-71596 9184 L-70487 9029 L-70184 9650 L-63935 9961 L-62988 10271 L-61362 10582 L-60860 10737 L-57184 10892 L-56352 11048 L-52399 11203 L-50987 10737 L-48498 10427 L-47821 10116 L-47782 9961 L-46912 9961 L-43700 9805 L-40837 9650 L-39869 9495 L-38748 9184 L-38729 8874 L-37104 8563 L-36640 8097 L-36548 7942 L-30179 7787 L-29230 7631 L-26773 7476 L-25901 7166 L-24665 7010 L-22663 6855 L-22266 6545 L-20829 6234 L-18803 6079 L-18590 5768 L-17410 5613 L-15902 5458 L-15881 5302 L-13869 5147 L-13000 4836 L-12129 4681 L-11544 4371 L-11007 4060 L-10349 3750 L-9111 3439 L-8550 3284 L-7369 3128 L-6132 2973 L-6093 2818 L-5706 2663 L-5165 2352 L-4391 2197 L-3269 2041 L-1179 1731 L-846 1420 L-560 1110 L367 954 L850 644 L1586 489 L5217 333 L6345 178 L6500 23" />
</svg>
