<svg xmlns="http://www.w3.org/2000/svg" version="1.1" viewBox="0 0 6500 1000">
	<path fill="none" stroke="gold" stroke-width="125" stroke-linecap="round" stroke-linejoin="round" d="M0 21184  L-414902 21184 L-412298 21154 L-410630 21124 L-392300 21063 L-392130 21003 L-384972 20942 L-384939 20942 L-371508 20912 L-368586 20942 L-355245 20851 L-351076 20730 L-349916 20579 L-349297 20428 L-347285 20337 L-343514 20277 L-342913 20216 L-342585 20156 L-342372 20095 L-341830 20035 L-340592 19793 L-339413 19551 L-336549 19309 L-336026 19067 L-331171 19006 L-328234 18946 L-328191 18885 L-327882 18825 L-327630 18764 L-325036 18704 L-320780 18704 L-320762 18704 L-319525 18704 L-317648 18704 L-315694 18643 L-314746 18583 L-314476 18522 L-314166 18492 L-314068 18462 L-313237 18462 L-311207 18492 L-310916 18220 L-308770 18099 L-308614 17917 L-304958 17736 L-304707 17826 L-304608 17796 L-304091 17887 L-301940 18038 L-301011 18189 L-299485 18341 L-298246 18341 L-296699 18310 L-293737 18250 L-292616 18189 L-292306 18129 L-291095 18099 L-288088 18431 L-288069 18401 L-287721 18371 L-287508 18341 L-287382 17917 L-287141 17857 L-287103 17796 L-287083 17736 L-287064 17675 L-287005 17615 L-286946 17554 L-286928 17494 L-286485 17433 L-285246 17373 L-283700 17312 L-280312 17252 L-274586 17222 L-274384 17191 L-272749 17161 L-271027 17131 L-269594 17101 L-269362 17070 L-268647 17040 L-262515 17010 L-262147 16949 L-261993 16889 L-261414 16828 L-261122 16768 L-260154 16707 L-259845 16647 L-259246 16586 L-257639 16586 L-256904 16586 L-256594 16617 L-255826 16617 L-253790 16556 L-253365 16496 L-252552 16465 L-245124 16405 L-244601 16344 L-244427 16284 L-243692 16223 L-242124 16163 L-241719 16133 L-239494 16072 L-238546 16042 L-238121 16012 L-237790 16012 L-236747 15981 L-234639 15921 L-234386 15860 L-233767 15800 L-232955 15770 L-230847 15709 L-230798 15649 L-228870 15588 L-228544 15528 L-228409 15467 L-227906 15437 L-226494 15376 L-225991 15255 L-225469 15165 L-221909 15044 L-221174 14923 L-218749 14923 L-217460 14862 L-217053 14832 L-213900 14832 L-213746 14832 L-213725 14862 L-213359 14862 L-212101 14892 L-211386 14923 L-210496 14923 L-210089 14923 L-209160 14923 L-208051 14892 L-207748 15013 L-201499 15074 L-200552 15134 L-198926 15195 L-198424 15225 L-194748 15255 L-193916 15286 L-189963 15316 L-188551 15225 L-186062 15165 L-185385 15104 L-185347 15074 L-184476 15074 L-181265 15044 L-178402 15013 L-177434 14983 L-176312 14923 L-176293 14862 L-174668 14802 L-174204 14711 L-174112 14681 L-167743 14650 L-166794 14620 L-164337 14590 L-163465 14529 L-162229 14499 L-160228 14469 L-159830 14408 L-158394 14348 L-156368 14318 L-156154 14257 L-154974 14227 L-153466 14197 L-153446 14166 L-151433 14136 L-150564 14076 L-149693 14045 L-149108 13985 L-148571 13924 L-147913 13864 L-146675 13803 L-146115 13773 L-144933 13743 L-143696 13713 L-143657 13683 L-143270 13652 L-142729 13592 L-141955 13562 L-140833 13531 L-138744 13471 L-138410 13410 L-138124 13350 L-137196 13320 L-136713 13259 L-135977 13229 L-132346 13199 L-131218 13168 L-131064 13138 L-130038 13078 L-126323 13047 L-125106 12987 L-123287 12926 L-120501 12896 L-119940 12836 L-116052 12836 L-113576 12805 L-112241 12805 L-111737 12775 L-111254 12745 L-108565 12745 L-104793 12745 L-102336 12745 L-101156 12745 L-100517 12715 L-98157 12654 L-98080 12624 L-97033 12594 L-96939 12533 L-96436 12533 L-95991 12533 L-95933 12533 L-95719 12533 L-92760 12473 L-90052 12442 L-89897 12412 L-86376 12382 L-85854 12321 L-84886 12261 L-84537 12231 L-83494 12170 L-82565 12110 L-82139 12079 L-80630 12079 L-79663 12049 L-79644 12019 L-77748 9811 L-77632 7542 L-77585 5304 L-77560 3065 L-74556 3035 L-72525 2975 L-70764 2944 L-70397 2914 L-69952 2854 L-69585 2823 L-69171 2763 L-67186 2733 L-66973 2733 L-66818 2702 L-65213 2702 L-64091 2672 L-63143 2642 L-61885 2581 L-60241 2551 L-59061 2491 L-52472 2460 L-52425 2430 L-52019 2400 L-50974 2370 L-50839 2339 L-49156 2279 L-49136 2249 L-47799 2188 L-46563 2158 L-46409 2128 L-46035 2067 L-45829 2037 L-45519 2007 L-44746 1946 L-42424 1916 L-41766 1886 L-39638 1856 L-37916 1825 L-37723 1765 L-35169 1735 L-34893 1674 L-34705 1614 L-33872 1583 L-33100 1553 L-32402 1523 L-27401 1523 L-27025 1462 L-22772 1432 L-22285 4427 L-22266 4427 L-22187 4396 L-22112 4366 L-22092 1281 L-21279 1251 L-20525 1190 L-19306 1160 L-17874 1160 L-17778 1130 L-17604 1130 L-17249 1069 L-15940 1039 L-14083 1009 L-12380 948 L-11877 918 L-11612 888 L-11219 857 L-11085 827 L-10175 797 L-9799 767 L-8870 767 L-8531 736 L-8491 736 L-8454 706 L-6538 706 L-6365 676 L-4836 676 L-4508 646 L-4392 615 L-3984 555 L-3636 525 L-1993 464 L-1442 434 L-1199 404 L-657 373 L173 313 L715 283 L2249 222 L2342 192 L2379 162 L2514 131 L2902 101 L3926 71 L5803 41 L5899 10 L6500 978" />
</svg>
