<svg xmlns="http://www.w3.org/2000/svg" version="1.1" viewBox="0 0 6500 1000">
	<path fill="none" stroke="gold" stroke-width="125" stroke-linecap="round" stroke-linejoin="round" d="M0 81257  L-609322 81257 L-606718 80968 L-605050 80679 L-586720 80101 L-586550 79523 L-579392 78945 L-579359 78945 L-565928 78656 L-563006 78945 L-549665 78078 L-545496 76921 L-544336 75476 L-543717 74031 L-541705 73164 L-537934 72586 L-537333 72008 L-537005 71430 L-536792 70852 L-536250 70274 L-535012 67962 L-533833 65650 L-530969 63338 L-530446 61026 L-525591 60447 L-522654 59869 L-522611 59291 L-522302 58713 L-522051 58135 L-519456 57557 L-515200 57557 L-515182 57557 L-513945 57557 L-512068 57557 L-510114 56979 L-509166 56401 L-508896 55823 L-508586 55534 L-508488 55245 L-507657 55245 L-505627 55534 L-505336 52933 L-503190 51777 L-503034 50043 L-499378 48309 L-499127 49176 L-499028 48887 L-498511 49754 L-496360 51199 L-495431 52644 L-493905 54089 L-492666 54089 L-491119 53800 L-488157 53222 L-487036 52644 L-486726 52066 L-485515 51777 L-482508 54956 L-482489 54667 L-482141 54378 L-481928 54089 L-481802 50043 L-481561 49465 L-481523 48887 L-481503 48309 L-481484 47731 L-481425 47153 L-481366 46575 L-481348 45997 L-480905 45419 L-479666 44841 L-478120 44263 L-474732 43684 L-469006 43395 L-468804 43106 L-467169 42817 L-465447 42528 L-464014 42239 L-463782 41950 L-463067 41661 L-456935 41372 L-456567 40794 L-456413 40216 L-455834 39638 L-455542 39060 L-454574 38482 L-454265 37904 L-453666 37326 L-452059 37326 L-451324 37326 L-451014 37615 L-450246 37615 L-448210 37037 L-447785 36459 L-446972 36170 L-439544 35592 L-439021 35014 L-438847 34436 L-438112 33858 L-436544 33280 L-436139 32991 L-433914 32413 L-432966 32124 L-432541 31835 L-432210 31835 L-431167 31546 L-429059 30968 L-428806 30390 L-428187 29812 L-427375 29523 L-425267 28945 L-425218 28367 L-423290 27789 L-422964 27210 L-422829 26632 L-422326 26343 L-420914 25765 L-420411 24609 L-419889 23742 L-416329 22586 L-415594 21430 L-413169 21430 L-411880 20852 L-411473 20563 L-408320 20563 L-408166 20563 L-408145 20852 L-407779 20852 L-406521 21141 L-405806 21430 L-404916 21430 L-404509 21430 L-403580 21430 L-402471 21141 L-402168 22297 L-395919 22875 L-394972 23453 L-393346 24031 L-392844 24320 L-389168 24609 L-388336 24898 L-384383 25187 L-382971 24320 L-380482 23742 L-379805 23164 L-379767 22875 L-378896 22875 L-375685 22586 L-372822 22297 L-371854 22008 L-370732 21430 L-370713 20852 L-369088 20274 L-368624 19407 L-368532 19118 L-362163 18829 L-361214 18540 L-358757 18251 L-357885 17673 L-356649 17384 L-354648 17095 L-354250 16517 L-352814 15939 L-350788 15650 L-350574 15072 L-349394 14783 L-347886 14494 L-347866 14205 L-345853 13916 L-344984 13338 L-344113 13049 L-343528 12471 L-342991 11893 L-342333 11315 L-341095 10736 L-340535 10447 L-339353 10158 L-338116 9869 L-338077 9580 L-337690 9291 L-337149 8713 L-336375 8424 L-335253 8135 L-333164 7557 L-332830 6979 L-332544 6401 L-331616 6112 L-331133 5534 L-330397 5245 L-326766 4956 L-325638 4667 L-325484 4378 L-324458 3800 L-320743 3511 L-319526 2933 L-317707 2355 L-314921 2066 L-314360 1488 L-310472 1488 L-307996 1199 L-306661 1199 L-306157 910 L-305674 621 L-302985 621 L-299213 621 L-296756 621 L-295576 621 L-294937 332 L-292577 -245 L-292500 -534 L-291453 -823 L-291359 -1401 L-290856 -1401 L-290411 -1401 L-290353 -1401 L-290139 -1401 L-287180 -1979 L-284472 -2268 L-284317 -2557 L-280797 -2846 L-280274 -3424 L-279306 -4002 L-278957 -4291 L-277914 -4869 L-276985 -5447 L-276559 -5736 L-275050 -5736 L-274083 -6026 L-274064 -6315 L-272168 -27413 L-272052 -49089 L-272005 -70476 L-271980 -91864 L-268976 -92153 L-266945 -92731 L-265184 -93020 L-264817 -93309 L-264372 -93887 L-264005 -94176 L-263591 -94754 L-261606 -95043 L-261393 -95043 L-261238 -95332 L-259633 -95332 L-258511 -95621 L-257563 -95910 L-256305 -96488 L-254661 -96777 L-253481 -97355 L-246892 -97644 L-246845 -97933 L-246439 -98222 L-245394 -98511 L-245259 -98800 L-243576 -99378 L-243556 -99667 L-242219 -100245 L-240983 -100534 L-240829 -100823 L-240455 -101401 L-240249 -101690 L-239939 -101979 L-239166 -102557 L-236844 -102846 L-236186 -103135 L-234058 -103424 L-232336 -103713 L-232143 -104291 L-229589 -104580 L-229313 -105158 L-229125 -105736 L-228292 -106026 L-227520 -106315 L-226822 -106604 L-221821 -106604 L-221445 -107182 L-217192 -107471 L-216705 -78858 L-216686 -78858 L-216607 -79147 L-216532 -79436 L-216512 -108916 L-215699 -109205 L-214945 -109783 L-213726 -110072 L-212294 -110072 L-212198 -110361 L-212024 -110361 L-211669 -110939 L-210360 -111228 L-208503 -111517 L-206800 -112095 L-206298 -112384 L-206032 -112673 L-205639 -112962 L-205505 -113251 L-204595 -113540 L-204219 -113829 L-203290 -113829 L-202951 -114118 L-202911 -114118 L-202874 -114407 L-200958 -114407 L-200785 -114696 L-199256 -114696 L-198928 -114985 L-198812 -115274 L-198404 -115852 L-198056 -116141 L-196413 -116719 L-195862 -117008 L-195619 -117297 L-195077 -117586 L-194246 -118164 L-193704 -118453 L-192170 -119031 L-192077 -119320 L-192041 -119609 L-191905 -119898 L-191517 -120187 L-190493 -120476 L-188616 -120765 L-188520 -121054 L-187920 -111806 L-187552 -101979 L-187068 -91864 L-187030 -82037 L-186256 -81459 L-186198 -81748 L-186024 -82326 L-185830 -82615 L-184225 -83193 L-184205 -83482 L-184050 -82904 L-183935 -82615 L-182755 -82326 L-182600 -81459 L-181933 -81459 L-179485 -57760 L-176970 -33482 L-174300 -10072 L-166601 13338 L-160933 13338 L-158719 13049 L-158696 13049 L-157722 18829 L-157702 18829 L-156838 18251 L-154098 17962 L-148299 11893 L-148146 11315 L-145360 11026 L-131752 10447 L-131006 10158 L-126595 9580 L-110249 9291 L-110017 8713 L-109480 8424 L-101020 8135 L-92315 7846 L-92102 7557 L-90130 7268 L-87344 7268 L-82856 7557 L-82701 7268 L-82532 7268 L-82392 6979 L-82101 6401 L-82062 6112 L-81792 5823 L-81620 5534 L-81210 5245 L-80089 4956 L-78909 4667 L-77632 4378 L-74768 4089 L-71848 3800 L-69856 3511 L-68308 2933 L-65270 2644 L-55946 2355 L-55422 2066 L-49698 2066 L-48191 1777 L-47377 1777 L-45693 1199 L-44972 910 L-44803 621 L-43758 332 L-41691 43 L-40329 -245 L-35886 -534 L-35788 -823 L-35750 -1112 L-35731 -1401 L-34898 -1690 L-34821 -2268 L-32248 -2557 L-28999 -2846 L-28844 -3135 L-27896 -3424 L-26155 -4002 L-25439 -2268 L-21899 -823 L-15321 910 L-13904 3222 L-13883 2933 L-12933 2644 L-9458 2355 L-8705 1777 L-8143 1488 L-7361 1199 L142 910 L1740 621 L3314 332 L6500 43" />
</svg>
