<svg xmlns="http://www.w3.org/2000/svg" version="1.1" viewBox="0 0 6500 1000">
	<path fill="none" stroke="gold" stroke-width="125" stroke-linecap="round" stroke-linejoin="round" d="M0 26901  L-267568 26901 L-264964 26794 L-263296 26688 L-244967 26476 L-244797 26263 L-237639 26051 L-237606 26051 L-224175 25944 L-221253 26051 L-207912 25732 L-203743 25307 L-202583 24775 L-201964 24244 L-199952 23925 L-196180 23713 L-195580 23500 L-195251 23287 L-195038 23075 L-194497 22862 L-193259 22012 L-192080 21162 L-189215 20312 L-188693 19462 L-183838 19249 L-180900 19037 L-180857 18824 L-180549 18612 L-180297 18399 L-177702 18187 L-173447 18187 L-173429 18187 L-172192 18187 L-170315 18187 L-168361 17974 L-167413 17761 L-167142 17549 L-166832 17443 L-166734 17336 L-165904 17336 L-163873 17443 L-163583 16486 L-161436 16061 L-161281 15424 L-157625 14786 L-157374 15105 L-157275 14998 L-156758 15317 L-154607 15849 L-153678 16380 L-152152 16911 L-150912 16911 L-149366 16805 L-146404 16592 L-145282 16380 L-144973 16167 L-143762 16061 L-140755 17230 L-140736 17124 L-140388 17018 L-140175 16911 L-140049 15424 L-139807 15211 L-139769 14998 L-139750 14786 L-139730 14573 L-139671 14361 L-139613 14148 L-139595 13936 L-139152 13723 L-137912 13511 L-136367 13298 L-132979 13086 L-127253 12979 L-127051 12873 L-125415 12767 L-123693 12660 L-122261 12554 L-122029 12448 L-121314 12342 L-115181 12235 L-114814 12023 L-114659 11810 L-114081 11598 L-113788 11385 L-112821 11173 L-112511 10960 L-111912 10748 L-110306 10748 L-109571 10748 L-109261 10854 L-108493 10854 L-106457 10641 L-106031 10429 L-105219 10323 L-97790 10110 L-97267 9897 L-97094 9685 L-96359 9472 L-94791 9260 L-94385 9154 L-92160 8941 L-91212 8835 L-90787 8729 L-90457 8729 L-89413 8622 L-87305 8410 L-87053 8197 L-86434 7985 L-85621 7878 L-83514 7666 L-83465 7453 L-81537 7241 L-81211 7028 L-81076 6816 L-80573 6709 L-79160 6497 L-78657 6072 L-78136 5753 L-74576 5328 L-73841 4903 L-71416 4903 L-70127 4690 L-69720 4584 L-66567 4584 L-66412 4584 L-66392 4690 L-66025 4690 L-64767 4797 L-64052 4903 L-63162 4903 L-62755 4903 L-61827 4903 L-60718 4797 L-60415 5222 L-54166 5434 L-53219 5647 L-51593 5859 L-51091 5965 L-47415 6072 L-46583 6178 L-42630 6284 L-41218 5965 L-38729 5753 L-38052 5540 L-38013 5434 L-37142 5434 L-33931 5328 L-31068 5222 L-30100 5115 L-28979 4903 L-28960 4690 L-27335 4478 L-26871 4159 L-26779 4053 L-20409 3946 L-19461 3840 L-17004 3734 L-16132 3521 L-14896 3415 L-12894 3309 L-12497 3096 L-11060 2884 L-9034 2777 L-8821 2565 L-7641 2459 L-6132 2352 L-6112 2246 L-4100 2140 L-3231 1927 L-2360 1821 L-1775 1608 L-1238 1396 L-580 1183 L657 971 L1218 865 L2399 758 L3636 652 L3675 546 L4062 439 L4604 227 L5377 121 L6500 14" />
</svg>
