<svg xmlns="http://www.w3.org/2000/svg" version="1.1" viewBox="0 0 6500 1000">
	<path fill="none" stroke="gold" stroke-width="125" stroke-linecap="round" stroke-linejoin="round" d="M0 4238  L-722879 4238 L-720275 4238 L-718607 4238 L-700277 4238 L-700107 4237 L-692949 4237 L-692916 4237 L-679485 4237 L-676564 4237 L-663223 4236 L-659054 4235 L-657894 4234 L-657275 4233 L-655263 4233 L-651491 4232 L-650891 4232 L-650562 4232 L-650349 4231 L-649807 4231 L-648569 4229 L-647390 4227 L-644526 4226 L-644004 4224 L-639148 4224 L-636211 4223 L-636168 4223 L-635860 4223 L-635608 4222 L-633013 4222 L-628757 4222 L-628740 4222 L-627503 4222 L-625625 4222 L-623672 4221 L-622724 4221 L-622453 4221 L-622143 4220 L-622045 4220 L-621215 4220 L-619184 4220 L-618893 4219 L-616747 4218 L-616592 4217 L-612935 4215 L-612684 4216 L-612586 4216 L-612069 4216 L-609917 4217 L-608989 4218 L-607463 4219 L-606223 4219 L-604677 4219 L-601715 4219 L-600593 4218 L-600284 4218 L-599072 4218 L-596066 4220 L-596046 4220 L-595699 4220 L-595486 4219 L-595359 4217 L-595118 4216 L-595080 4216 L-595060 4215 L-595041 4215 L-594982 4215 L-594923 4214 L-594905 4214 L-594462 4213 L-593223 4213 L-591677 4213 L-588290 4212 L-582563 4212 L-582362 4212 L-580726 4212 L-579004 4211 L-577572 4211 L-577339 4211 L-576624 4211 L-570492 4211 L-570124 4210 L-569970 4210 L-569391 4209 L-569099 4209 L-568132 4209 L-567822 4208 L-567223 4208 L-565617 4208 L-564882 4208 L-564572 4208 L-563804 4208 L-561767 4208 L-561342 4207 L-560530 4207 L-553101 4207 L-552578 4206 L-552404 4206 L-551669 4205 L-550102 4205 L-549696 4205 L-547471 4204 L-546523 4204 L-546098 4204 L-545768 4204 L-544724 4204 L-542616 4203 L-542364 4203 L-541745 4203 L-540932 4202 L-538824 4202 L-538776 4202 L-536848 4201 L-536522 4201 L-536387 4200 L-535884 4200 L-534471 4200 L-533968 4199 L-533446 4198 L-529887 4198 L-529152 4197 L-526727 4197 L-525437 4196 L-525030 4196 L-521878 4196 L-521723 4196 L-521703 4196 L-521336 4196 L-520078 4197 L-519363 4197 L-518473 4197 L-518066 4197 L-517137 4197 L-516029 4197 L-515726 4197 L-509477 4198 L-508529 4198 L-506903 4199 L-506401 4199 L-502726 4199 L-501893 4199 L-497940 4199 L-496528 4199 L-494039 4198 L-493363 4198 L-493324 4198 L-492453 4198 L-489242 4198 L-486379 4197 L-485411 4197 L-484289 4197 L-484270 4196 L-482645 4196 L-482181 4195 L-482089 4195 L-475720 4195 L-474772 4195 L-472315 4195 L-471442 4194 L-470206 4194 L-468205 4194 L-467807 4193 L-466371 4193 L-464345 4193 L-464132 4192 L-462952 4192 L-461443 4192 L-461423 4192 L-459411 4192 L-458541 4191 L-457670 4191 L-457086 4191 L-456548 4190 L-455891 4190 L-454652 4189 L-454092 4189 L-452911 4189 L-451673 4189 L-451635 4189 L-451248 4188 L-450706 4188 L-449932 4188 L-448810 4188 L-446721 4187 L-446388 4187 L-446102 4186 L-445173 4186 L-444690 4186 L-443955 4185 L-440323 4185 L-439196 4185 L-439041 4185 L-438015 4184 L-434300 4184 L-433083 4184 L-431265 4183 L-428479 4183 L-427917 4183 L-424029 4183 L-421553 4183 L-420218 4183 L-419715 4182 L-419231 4182 L-416542 4182 L-412771 4182 L-410313 4182 L-409134 4182 L-408494 4182 L-406135 4182 L-406057 4181 L-405010 4181 L-404916 4181 L-404413 4181 L-403968 4181 L-403910 4181 L-403697 4181 L-400737 4180 L-398029 4180 L-397875 4180 L-394354 4180 L-393831 4179 L-392864 4179 L-392515 4179 L-391471 4178 L-390542 4178 L-390117 4178 L-388608 4178 L-387641 4178 L-387622 4177 L-385726 4163 L-385610 4148 L-385562 4133 L-385538 4118 L-382533 4118 L-380503 4117 L-378742 4117 L-378375 4117 L-377929 4117 L-377562 4116 L-377148 4116 L-375163 4116 L-374950 4116 L-374795 4116 L-373190 4116 L-372068 4115 L-371120 4115 L-369863 4115 L-368218 4115 L-367038 4114 L-360449 4114 L-360402 4114 L-359997 4114 L-358951 4113 L-358816 4113 L-357134 4113 L-357114 4113 L-355777 4112 L-354541 4112 L-354386 4112 L-354012 4111 L-353806 4111 L-353497 4111 L-352723 4111 L-350401 4110 L-349744 4110 L-347616 4110 L-345893 4110 L-345700 4109 L-343147 4109 L-342870 4109 L-342682 4108 L-341850 4108 L-341077 4108 L-340379 4108 L-335379 4108 L-335003 4107 L-330750 4107 L-330263 4127 L-330243 4127 L-330164 4127 L-330089 4127 L-330069 4106 L-329256 4106 L-328503 4106 L-327284 4105 L-325852 4105 L-325755 4105 L-325581 4105 L-325227 4105 L-323917 4105 L-322060 4104 L-320358 4104 L-319855 4104 L-319590 4104 L-319196 4103 L-319062 4103 L-318152 4103 L-317776 4103 L-316848 4103 L-316508 4103 L-316469 4103 L-316431 4102 L-314516 4102 L-314342 4102 L-312813 4102 L-312485 4102 L-312369 4102 L-311962 4101 L-311614 4101 L-309970 4101 L-309419 4100 L-309176 4100 L-308635 4100 L-307803 4100 L-307262 4099 L-305727 4099 L-305635 4099 L-305598 4099 L-305462 4098 L-305075 4098 L-304050 4098 L-302173 4098 L-302077 4098 L-301477 4104 L-301110 4111 L-300625 4118 L-300587 4125 L-299813 4125 L-299756 4125 L-299581 4125 L-299388 4124 L-297782 4124 L-297762 4124 L-297607 4124 L-297492 4124 L-296312 4125 L-296157 4125 L-295491 4125 L-293042 4142 L-290528 4159 L-287858 4175 L-280158 4191 L-274491 4191 L-272276 4191 L-272253 4191 L-271279 4195 L-271259 4195 L-270395 4195 L-267655 4194 L-261857 4190 L-261703 4190 L-258917 4190 L-245309 4189 L-244563 4189 L-240152 4189 L-223806 4188 L-223574 4188 L-223037 4188 L-214578 4188 L-205872 4187 L-205660 4187 L-203687 4187 L-200901 4187 L-196413 4187 L-196259 4187 L-196090 4187 L-195949 4187 L-195658 4186 L-195620 4186 L-195349 4186 L-195177 4186 L-194767 4185 L-193647 4185 L-192466 4185 L-191190 4185 L-188326 4185 L-185405 4184 L-183413 4184 L-181866 4184 L-178828 4184 L-169503 4183 L-168979 4183 L-163256 4183 L-161749 4183 L-160934 4183 L-159250 4183 L-158529 4182 L-158361 4182 L-157316 4182 L-155248 4182 L-153886 4182 L-149443 4181 L-149346 4181 L-149307 4181 L-149288 4181 L-148456 4181 L-148378 4180 L-145806 4180 L-142556 4180 L-142401 4180 L-141453 4179 L-139712 4179 L-138997 4180 L-135456 4181 L-128879 4182 L-127461 4184 L-127441 4184 L-126490 4184 L-123016 4183 L-122262 4183 L-121701 4183 L-120919 4183 L-113415 4182 L-111816 4182 L-110242 4182 L-107057 4182 L-102724 4182 L-94154 4181 L-85408 4181 L-82334 4181 L-79068 4181 L-78521 4181 L-71384 4180 L-65716 4180 L-51652 4180 L-45641 4181 L-40934 4180 L-36931 4180 L-31824 4180 L-22110 4180 L-6539 4179 L-3456 4179 L-3154 4088 L-3134 3977 L-3116 3851 L-3096 3709 L-3076 3645 L-3057 3590 L-3038 3540 L-3011 3491 L-2990 3443 L-2962 3393 L-2927 3337 L-2913 3290 L-2900 3249 L-2882 3215 L-2863 3190 L-2843 3165 L-2825 3139 L-2805 3114 L-2785 3088 L-2764 3061 L-2747 3035 L-2729 3009 L-2708 2985 L-2688 2960 L-2670 2933 L-2651 2905 L-2631 2877 L-2611 2849 L-2593 2822 L-2574 2797 L-2553 2772 L-2528 2747 L-2513 2724 L-2496 2701 L-2477 2677 L-2457 2655 L-2438 2630 L-2419 2605 L-2399 2581 L-2379 2558 L-2361 2536 L-2342 2516 L-2321 2496 L-2301 2478 L-2284 2462 L-2265 2446 L-2245 2431 L-2226 2416 L-2206 2402 L-2187 2389 L-2167 2378 L-2148 2368 L-2128 2357 L-2110 2346 L-2082 2333 L-2061 2319 L-2034 2303 L-2000 2286 L-1985 2271 L-1972 2259 L-1954 2247 L-1935 2238 L-1915 2227 L-1896 2216 L-1877 2204 L-1857 2192 L-1836 2181 L-1819 2171 L-1800 2160 L-1780 2149 L-1760 2137 L-1742 2122 L-1723 2107 L-1703 2092 L-1683 2076 L-1664 2060 L-1646 2044 L-1624 2025 L-1600 2006 L-1585 1986 L-1568 1968 L-1548 1949 L-1529 1931 L-1509 1912 L-1491 1892 L-1471 1873 L-1450 1854 L-1432 1836 L-1413 1817 L-1393 1801 L-1373 1783 L-1355 1767 L-1336 1753 L-1316 1737 L-1297 1725 L-1277 1711 L-1259 1698 L-1239 1685 L-1219 1671 L-1200 1658 L-1181 1644 L-1152 1631 L-1133 1619 L-1105 1606 L-1068 1591 L-1053 1577 L-1040 1563 L-1023 1551 L-1006 1541 L-986 1533 L-968 1525 L-949 1517 L-928 1510 L-908 1502 L-891 1494 L-872 1485 L-851 1476 L-832 1466 L-813 1456 L-794 1445 L-774 1434 L-755 1422 L-736 1410 L-717 1398 L-696 1387 L-672 1374 L-657 1363 L-640 1351 L-620 1339 L-601 1327 L-581 1315 L-562 1302 L-542 1289 L-522 1277 L-504 1265 L-485 1254 L-465 1243 L-444 1232 L-426 1223 L-407 1212 L-387 1202 L-369 1192 L-349 1182 L-330 1172 L-310 1163 L-291 1154 L-271 1145 L-253 1135 L-224 1126 L-204 1116 L-176 1105 L-140 1090 L-126 1076 L-113 1063 L-95 1052 L-77 1045 L-57 1037 L-39 1028 L-19 1018 L0 1008 L21 996 L39 984 L56 972 L77 959 L97 945 L115 931 L134 916 L154 900 L174 886 L192 873 L211 862 L232 853 L257 845 L272 839 L289 831 L308 824 L328 816 L347 808 L366 800 L386 793 L407 786 L424 781 L443 774 L463 765 L484 755 L501 745 L520 737 L540 731 L559 727 L579 722 L598 718 L617 713 L637 707 L656 701 L675 696 L703 691 L723 686 L751 681 L786 674 L800 669 L813 664 L832 659 L850 655 L870 651 L889 647 L908 643 L928 640 L949 636 L966 632 L985 628 L1005 624 L1025 619 L1043 614 L1062 610 L1082 606 L1102 602 L1120 599 L1139 595 L1161 591 L1185 587 L1200 584 L1217 581 L1237 577 L1256 573 L1275 569 L1294 565 L1314 560 L1335 556 L1353 552 L1371 548 L1392 545 L1412 541 L1430 538 L1449 534 L1469 531 L1488 527 L1507 524 L1526 521 L1546 519 L1565 516 L1585 514 L1603 518 L1632 522 L1652 526 L1680 530 L1717 526 L1732 524 L1745 521 L1763 519 L1779 517 L1799 515 L1817 512 L1837 510 L1857 508 L1878 506 L1895 504 L1913 502 L1934 500 L1954 497 L1972 495 L1991 492 L2011 490 L2031 487 L2049 485 L2068 483 L2089 481 L2114 480 L2128 477 L2146 475 L2165 472 L2185 470 L2204 468 L2223 465 L2243 463 L2264 459 L2281 456 L2300 453 L2321 450 L2341 447 L2359 444 L2377 441 L2397 439 L2416 436 L2436 433 L2455 430 L2475 427 L2494 424 L2513 422 L2532 420 L2560 417 L2580 414 L2608 412 L2643 408 L2657 406 L2670 403 L2689 400 L2707 398 L2727 396 L2746 394 L2765 391 L2785 389 L2806 386 L2823 384 L2842 381 L2862 379 L2882 376 L2901 372 L2919 368 L2939 364 L2959 360 L2978 357 L2996 354 L3018 350 L3043 347 L3057 343 L3074 339 L3094 336 L3113 333 L3132 329 L3151 325 L3171 322 L3192 318 L3210 315 L3229 312 L3249 309 L3270 306 L3287 304 L3306 301 L3326 299 L3345 297 L3364 295 L3383 293 L3403 291 L3423 289 L3442 287 L3461 286 L3488 284 L3509 282 L3537 280 L3572 276 L3586 272 L3599 269 L3618 266 L3636 263 L3656 261 L3674 259 L3694 257 L3714 255 L3735 252 L3752 250 L3770 247 L3791 245 L3811 242 L3829 239 L3848 236 L3868 233 L3888 230 L3906 227 L3925 225 L3946 223 L3971 221 L3986 219 L4003 216 L4022 214 L4042 211 L4061 208 L4080 205 L4100 201 L4121 197 L4138 194 L4157 191 L4178 187 L4198 185 L4216 183 L4235 181 L4255 179 L4273 178 L4293 176 L4312 174 L4332 172 L4351 170 L4371 169 L4389 167 L4417 165 L4438 164 L4465 162 L4499 160 L4514 159 L4527 157 L4545 156 L4564 154 L4584 153 L4603 152 L4622 150 L4642 149 L4663 148 L4680 147 L4699 145 L4719 144 L4739 142 L4757 141 L4776 139 L4796 138 L4816 137 L4835 136 L4854 135 L4875 134 L4899 133 L4914 131 L4931 130 L4951 128 L4970 127 L4989 126 L5008 125 L5028 123 L5049 120 L5067 118 L5086 115 L5106 112 L5127 109 L5144 108 L5163 106 L5183 104 L5202 102 L5222 100 L5240 98 L5260 96 L5279 95 L5299 93 L5318 92 L5346 91 L5394 90 L5431 88 L5446 87 L5458 85 L5476 84 L5493 83 L5513 83 L5531 82 L5550 81 L5571 79 L5591 78 L5608 78 L5627 77 L5648 76 L5667 75 L5686 74 L5705 72 L5725 71 L5744 70 L5763 68 L5782 67 L5803 65 L5828 62 L5842 60 L5859 58 L5879 56 L5898 54 L5918 52 L5937 50 L5957 48 L5978 46 L5995 44 L6014 42 L6035 41 L6055 39 L6073 38 L6092 36 L6112 35 L6130 34 L6150 32 L6169 31 L6189 29 L6208 28 L6228 26 L6246 25 L6275 23 L6295 22 L6323 20 L6359 16 L6374 13 L6387 10 L6404 8 L6422 6 L6442 5 L6460 4 L6480 3 L6500 2" />
</svg>
