<svg xmlns="http://www.w3.org/2000/svg" version="1.1" viewBox="0 0 6500 1000">
	<path fill="none" stroke="gold" stroke-width="125" stroke-linecap="round" stroke-linejoin="round" d="M0 3393  L-726979 3393 L-724375 3393 L-722707 3393 L-704378 3393 L-704208 3392 L-697050 3392 L-697017 3392 L-683586 3392 L-680664 3392 L-667323 3392 L-663154 3391 L-661994 3390 L-661375 3390 L-659363 3389 L-655591 3389 L-654991 3389 L-654663 3388 L-654450 3388 L-653908 3388 L-652670 3387 L-651491 3385 L-648627 3384 L-648104 3383 L-643249 3383 L-640312 3382 L-640269 3382 L-639960 3382 L-639708 3381 L-637113 3381 L-632858 3381 L-632840 3381 L-631603 3381 L-629726 3381 L-627772 3381 L-626824 3381 L-626554 3380 L-626244 3380 L-626146 3380 L-625315 3380 L-623284 3380 L-622994 3379 L-620848 3378 L-620692 3377 L-617036 3376 L-616785 3377 L-616686 3377 L-616169 3377 L-614018 3378 L-613089 3379 L-611563 3379 L-610324 3379 L-608777 3379 L-605815 3379 L-604693 3379 L-604384 3378 L-603173 3378 L-600166 3380 L-600147 3380 L-599799 3380 L-599586 3379 L-599460 3377 L-599218 3377 L-599180 3377 L-599161 3376 L-599142 3376 L-599083 3376 L-599024 3376 L-599006 3375 L-598563 3375 L-597324 3375 L-595778 3374 L-592390 3374 L-586664 3374 L-586462 3374 L-584826 3374 L-583104 3373 L-581672 3373 L-581440 3373 L-580725 3373 L-574593 3373 L-574225 3373 L-574070 3372 L-573492 3372 L-573199 3372 L-572232 3371 L-571922 3371 L-571323 3371 L-569717 3371 L-568982 3371 L-568672 3371 L-567904 3371 L-565868 3371 L-565443 3370 L-564630 3370 L-557201 3370 L-556678 3370 L-556505 3369 L-555770 3369 L-554202 3369 L-553797 3369 L-551571 3368 L-550624 3368 L-550199 3368 L-549868 3368 L-548824 3368 L-546716 3368 L-546464 3367 L-545845 3367 L-545033 3367 L-542925 3366 L-542876 3366 L-540948 3366 L-540622 3366 L-540487 3365 L-539984 3365 L-538571 3365 L-538068 3364 L-537547 3364 L-533987 3363 L-533252 3363 L-530827 3363 L-529538 3362 L-529131 3362 L-525978 3362 L-525823 3362 L-525803 3362 L-525437 3362 L-524178 3362 L-523463 3363 L-522573 3363 L-522166 3363 L-521238 3363 L-520129 3362 L-519826 3363 L-513577 3363 L-512630 3364 L-511004 3364 L-510502 3364 L-506826 3364 L-505994 3364 L-502041 3365 L-500629 3364 L-498140 3364 L-497463 3364 L-497424 3363 L-496554 3363 L-493342 3363 L-490479 3363 L-489511 3363 L-488390 3363 L-488371 3362 L-486746 3362 L-486282 3362 L-486190 3361 L-479821 3361 L-478872 3361 L-476415 3361 L-475543 3361 L-474307 3361 L-472305 3360 L-471908 3360 L-470472 3360 L-468445 3360 L-468232 3359 L-467052 3359 L-465544 3359 L-465523 3359 L-463511 3359 L-462642 3358 L-461771 3358 L-461186 3358 L-460649 3358 L-459991 3357 L-458753 3357 L-458192 3357 L-457011 3357 L-455774 3357 L-455735 3357 L-455348 3356 L-454807 3356 L-454033 3356 L-452911 3356 L-450821 3355 L-450488 3355 L-450202 3355 L-449274 3355 L-448791 3354 L-448055 3354 L-444424 3354 L-443296 3354 L-443142 3354 L-442116 3354 L-438401 3353 L-437183 3353 L-435365 3353 L-432579 3353 L-432018 3352 L-428130 3352 L-425653 3352 L-424318 3352 L-423815 3352 L-423332 3352 L-420643 3352 L-416871 3352 L-414414 3352 L-413234 3352 L-412595 3352 L-410235 3351 L-410158 3351 L-409110 3351 L-409017 3351 L-408514 3351 L-408068 3351 L-408011 3351 L-407797 3351 L-404838 3351 L-402130 3350 L-401975 3350 L-398454 3350 L-397931 3350 L-396964 3350 L-396615 3349 L-395571 3349 L-394643 3349 L-394217 3349 L-392708 3349 L-391741 3348 L-391722 3348 L-389826 3337 L-389710 3326 L-389662 3315 L-389638 3304 L-386634 3304 L-384603 3304 L-382842 3304 L-382475 3304 L-382030 3303 L-381663 3303 L-381249 3303 L-379264 3303 L-379051 3303 L-378896 3303 L-377290 3303 L-376169 3302 L-375220 3302 L-373963 3302 L-372319 3302 L-371139 3301 L-364549 3301 L-364503 3301 L-364097 3301 L-363052 3301 L-362917 3301 L-361234 3300 L-361214 3300 L-359877 3300 L-358641 3300 L-358487 3300 L-358113 3299 L-357907 3299 L-357597 3299 L-356823 3299 L-354502 3299 L-353844 3299 L-351716 3298 L-349994 3298 L-349800 3298 L-347247 3298 L-346971 3297 L-346783 3297 L-345950 3297 L-345178 3297 L-344480 3297 L-339479 3297 L-339103 3296 L-334850 3296 L-334363 3311 L-334344 3311 L-334265 3311 L-334190 3311 L-334170 3296 L-333357 3295 L-332603 3295 L-331384 3295 L-329952 3295 L-329856 3295 L-329681 3295 L-329327 3294 L-328018 3294 L-326161 3294 L-324458 3294 L-323955 3294 L-323690 3294 L-323297 3293 L-323163 3293 L-322253 3293 L-321877 3293 L-320948 3293 L-320609 3293 L-320569 3293 L-320532 3293 L-318616 3293 L-318442 3293 L-316914 3293 L-316585 3292 L-316469 3292 L-316062 3292 L-315714 3292 L-314070 3292 L-313520 3291 L-313276 3291 L-312735 3291 L-311904 3291 L-311362 3291 L-309828 3290 L-309735 3290 L-309698 3290 L-309562 3290 L-309175 3290 L-308150 3290 L-306274 3289 L-306178 3289 L-305577 3294 L-305210 3299 L-304726 3304 L-304688 3309 L-303914 3310 L-303856 3310 L-303682 3309 L-303488 3309 L-301883 3309 L-301863 3309 L-301708 3309 L-301592 3309 L-300413 3309 L-300258 3310 L-299591 3310 L-297143 3322 L-294628 3334 L-291958 3346 L-284259 3358 L-278591 3358 L-276377 3358 L-276353 3358 L-275380 3361 L-275360 3361 L-274496 3361 L-271756 3361 L-265957 3358 L-265804 3357 L-263018 3357 L-249410 3357 L-248664 3357 L-244253 3357 L-227907 3356 L-227675 3356 L-227137 3356 L-218678 3356 L-209972 3356 L-209760 3355 L-207788 3355 L-205001 3355 L-200514 3355 L-200359 3355 L-200190 3355 L-200050 3355 L-199759 3355 L-199720 3355 L-199449 3355 L-199278 3354 L-198868 3354 L-197747 3354 L-196567 3354 L-195290 3354 L-192426 3354 L-189506 3354 L-187514 3353 L-185966 3353 L-182928 3353 L-173604 3353 L-173080 3353 L-167356 3353 L-165849 3352 L-165034 3352 L-163351 3352 L-162630 3352 L-162461 3352 L-161416 3352 L-159349 3352 L-157987 3351 L-153544 3351 L-153446 3351 L-153408 3351 L-153389 3351 L-152556 3351 L-152479 3350 L-149906 3350 L-146657 3350 L-146502 3350 L-145554 3350 L-143813 3350 L-143097 3350 L-139556 3351 L-132979 3352 L-131562 3353 L-131541 3353 L-130591 3353 L-127116 3353 L-126363 3352 L-125801 3352 L-125019 3352 L-117515 3352 L-115917 3352 L-114343 3352 L-111157 3352 L-106824 3351 L-98255 3351 L-89508 3351 L-86434 3351 L-83168 3351 L-82622 3351 L-75485 3351 L-69817 3351 L-55753 3351 L-49741 3351 L-45035 3351 L-41032 3350 L-35924 3350 L-26210 3350 L-10640 3350 L-7557 3349 L-7255 3282 L-7235 3200 L-7216 3106 L-7196 3002 L-7177 2954 L-7158 2914 L-7139 2877 L-7111 2840 L-7090 2805 L-7063 2767 L-7027 2726 L-7014 2691 L-7001 2661 L-6982 2636 L-6963 2618 L-6943 2599 L-6925 2580 L-6906 2561 L-6886 2542 L-6865 2522 L-6848 2503 L-6829 2484 L-6809 2466 L-6789 2447 L-6770 2427 L-6752 2407 L-6732 2386 L-6712 2365 L-6693 2345 L-6674 2326 L-6653 2308 L-6628 2290 L-6614 2273 L-6597 2256 L-6577 2238 L-6558 2221 L-6539 2203 L-6520 2184 L-6500 2167 L-6479 2150 L-6461 2134 L-6442 2118 L-6422 2104 L-6401 2090 L-6384 2079 L-6365 2067 L-6345 2056 L-6326 2045 L-6306 2034 L-6288 2025 L-6268 2017 L-6248 2009 L-6229 2001 L-6210 1993 L-6183 1983 L-6162 1973 L-6134 1961 L-6100 1948 L-6086 1938 L-6073 1928 L-6054 1920 L-6035 1913 L-6015 1905 L-5997 1896 L-5977 1888 L-5958 1879 L-5937 1871 L-5920 1863 L-5901 1855 L-5880 1847 L-5861 1838 L-5842 1827 L-5823 1816 L-5803 1805 L-5784 1793 L-5765 1781 L-5746 1769 L-5725 1756 L-5701 1741 L-5686 1727 L-5669 1713 L-5649 1699 L-5630 1686 L-5610 1672 L-5591 1657 L-5571 1643 L-5551 1629 L-5533 1615 L-5514 1602 L-5494 1589 L-5473 1576 L-5455 1565 L-5436 1554 L-5416 1542 L-5398 1533 L-5378 1523 L-5359 1513 L-5339 1503 L-5320 1493 L-5301 1483 L-5282 1474 L-5253 1464 L-5233 1455 L-5205 1445 L-5168 1434 L-5153 1424 L-5141 1413 L-5124 1404 L-5107 1397 L-5087 1391 L-5068 1385 L-5049 1380 L-5029 1374 L-5008 1369 L-4991 1362 L-4972 1356 L-4952 1349 L-4932 1342 L-4914 1334 L-4895 1326 L-4875 1318 L-4855 1309 L-4836 1300 L-4818 1291 L-4796 1283 L-4772 1274 L-4757 1265 L-4740 1257 L-4720 1248 L-4701 1239 L-4681 1230 L-4663 1220 L-4643 1211 L-4622 1202 L-4604 1193 L-4585 1184 L-4565 1176 L-4545 1169 L-4527 1161 L-4508 1154 L-4488 1146 L-4469 1139 L-4449 1131 L-4430 1124 L-4411 1117 L-4391 1111 L-4372 1104 L-4353 1097 L-4325 1090 L-4305 1083 L-4277 1075 L-4241 1064 L-4226 1053 L-4213 1044 L-4196 1035 L-4178 1030 L-4158 1024 L-4139 1017 L-4120 1010 L-4100 1002 L-4079 994 L-4060 985 L-4043 976 L-4023 966 L-4003 956 L-3985 946 L-3966 934 L-3946 923 L-3925 912 L-3908 903 L-3889 894 L-3867 888 L-3843 882 L-3828 877 L-3810 872 L-3791 866 L-3772 860 L-3753 854 L-3734 849 L-3714 843 L-3693 839 L-3676 834 L-3656 829 L-3636 823 L-3615 815 L-3598 808 L-3579 802 L-3559 798 L-3540 795 L-3521 791 L-3502 788 L-3482 784 L-3462 780 L-3443 776 L-3425 772 L-3397 768 L-3376 765 L-3348 761 L-3314 756 L-3300 751 L-3287 748 L-3268 745 L-3249 742 L-3229 739 L-3211 736 L-3191 733 L-3172 730 L-3151 727 L-3134 725 L-3115 722 L-3094 718 L-3074 715 L-3056 711 L-3038 708 L-3018 705 L-2997 703 L-2979 700 L-2960 697 L-2939 694 L-2914 691 L-2900 689 L-2882 686 L-2863 684 L-2844 681 L-2824 678 L-2805 675 L-2785 671 L-2764 668 L-2747 665 L-2728 663 L-2708 660 L-2687 657 L-2670 655 L-2651 652 L-2631 649 L-2612 647 L-2592 645 L-2573 643 L-2553 641 L-2534 639 L-2515 637 L-2496 640 L-2467 643 L-2447 646 L-2419 649 L-2382 646 L-2367 644 L-2354 642 L-2337 640 L-2321 639 L-2301 638 L-2282 636 L-2263 634 L-2243 632 L-2222 631 L-2205 629 L-2186 628 L-2166 626 L-2146 625 L-2128 623 L-2109 621 L-2089 619 L-2069 617 L-2051 616 L-2032 614 L-2010 613 L-1986 612 L-1971 610 L-1954 608 L-1934 606 L-1915 605 L-1896 603 L-1877 601 L-1857 599 L-1836 596 L-1818 594 L-1799 592 L-1779 589 L-1758 588 L-1741 585 L-1722 583 L-1702 581 L-1683 579 L-1664 577 L-1645 575 L-1625 572 L-1605 570 L-1586 569 L-1567 567 L-1540 565 L-1519 563 L-1491 561 L-1456 559 L-1443 557 L-1429 555 L-1410 553 L-1392 551 L-1372 550 L-1354 548 L-1334 546 L-1314 544 L-1293 542 L-1276 541 L-1258 539 L-1237 537 L-1217 535 L-1199 532 L-1180 529 L-1160 526 L-1140 523 L-1122 521 L-1103 519 L-1082 516 L-1057 513 L-1042 511 L-1025 508 L-1006 505 L-986 503 L-967 500 L-948 497 L-928 495 L-907 492 L-890 490 L-871 488 L-850 485 L-829 483 L-812 481 L-794 479 L-774 478 L-755 476 L-735 475 L-716 473 L-696 472 L-676 471 L-658 469 L-639 468 L-611 467 L-590 465 L-563 464 L-527 461 L-513 458 L-500 456 L-482 453 L-464 452 L-444 450 L-425 448 L-406 447 L-386 445 L-365 443 L-348 442 L-329 440 L-309 438 L-289 436 L-270 433 L-252 431 L-232 429 L-211 427 L-193 425 L-175 423 L-153 422 L-128 420 L-114 419 L-96 417 L-77 415 L-57 413 L-38 411 L-19 409 L0 406 L21 403 L38 400 L57 398 L77 395 L98 393 L115 392 L134 391 L154 389 L173 388 L193 387 L211 385 L231 384 L251 383 L270 382 L289 380 L316 379 L337 378 L365 377 L399 375 L413 374 L426 373 L445 372 L464 371 L484 370 L502 369 L522 368 L541 367 L562 366 L579 365 L598 364 L619 363 L639 362 L657 361 L676 360 L696 359 L716 358 L734 357 L753 357 L774 356 L799 355 L813 354 L831 353 L850 352 L869 351 L889 350 L908 349 L928 348 L948 346 L966 344 L985 342 L1005 339 L1026 338 L1044 336 L1063 335 L1083 333 L1101 332 L1121 331 L1140 329 L1160 328 L1179 327 L1199 326 L1217 325 L1246 324 L1294 323 L1331 322 L1345 321 L1358 320 L1375 319 L1392 318 L1412 318 L1431 317 L1450 316 L1470 315 L1491 315 L1508 314 L1527 313 L1547 313 L1567 312 L1585 311 L1604 310 L1624 309 L1644 308 L1663 307 L1681 306 L1703 305 L1727 303 L1742 301 L1759 300 L1779 298 L1798 297 L1818 295 L1836 294 L1856 292 L1877 291 L1895 289 L1914 288 L1934 287 L1954 286 L1972 285 L1991 284 L2011 283 L2030 282 L2050 281 L2068 279 L2088 278 L2108 277 L2127 276 L2146 275 L2174 274 L2194 273 L2222 271 L2259 269 L2274 266 L2286 264 L2304 263 L2321 261 L2341 260 L2360 259 L2379 259 L2399 258 L2420 257 L2437 256 L2455 254 L2476 253 L2497 251 L2514 250 L2534 247 L2553 245 L2574 243 L2591 241 L2610 240 L2632 238 L2657 237 L2672 235 L2689 234 L2708 232 L2728 231 L2746 230 L2765 228 L2785 226 L2807 225 L2823 223 L2843 222 L2863 221 L2884 219 L2901 218 L2920 217 L2940 216 L2959 215 L2978 214 L2997 212 L3017 211 L3037 210 L3056 209 L3075 208 L3103 997 L3123 996 L3151 995 L3187 993 L3201 201 L3214 200 L3232 198 L3250 198 L3269 197 L3288 196 L3307 195 L3327 194 L3349 192 L3365 191 L3384 189 L3405 187 L3425 185 L3443 183 L3462 181 L3482 179 L3503 178 L3520 176 L3539 175 L3560 174 L3585 172 L3600 170 L3630 168 L3670 165 L3693 163 L3722 160 L3738 158 L3752 156 L3771 155 L3792 154 L3813 153 L3829 152 L3848 150 L3868 149 L3887 149 L3907 148 L3926 147 L3946 146 L3966 145 L3984 144 L4003 144 L4031 142 L4051 141 L4079 140 L4114 139 L4128 138 L4160 137 L4178 135 L4198 135 L4217 134 L4236 133 L4256 133 L4277 132 L4294 131 L4312 129 L4333 126 L4354 123 L4371 119 L4390 115 L4410 112 L4430 110 L4448 108 L4467 106 L4489 105 L4514 103 L4529 102 L4546 101 L4565 99 L4585 97 L4603 96 L4623 95 L4642 93 L4664 91 L4681 90 L4700 88 L4720 87 L4741 86 L4758 85 L4777 84 L4797 83 L4816 82 L4836 81 L4855 80 L4874 79 L4894 77 L4913 77 L4932 76 L4959 75 L4980 74 L5050 72 L5078 69 L5093 67 L5107 64 L5127 63 L5145 62 L5164 61 L5184 59 L5205 58 L5223 57 L5241 56 L5262 55 L5282 55 L5300 53 L5319 52 L5339 51 L5359 49 L5377 48 L5396 46 L5417 46 L5442 45 L5457 43 L5475 42 L5493 41 L5513 39 L5532 38 L5551 36 L5571 35 L5592 35 L5609 33 L5629 33 L5649 32 L5670 30 L5687 29 L5745 28 L5764 27 L5783 26 L5803 25 L5823 25 L5842 24 L5860 23 L5888 22 L5909 22 L5936 21 L5973 20 L5987 19 L6000 19 L6018 18 L6036 18 L6055 17 L6074 17 L6094 16 L6113 16 L6134 15 L6151 15 L6170 15 L6190 14 L6211 13 L6229 13 L6248 12 L6267 11 L6288 10 L6306 9 L6325 8 L6346 8 L6371 7 L6385 7 L6403 6 L6422 5 L6442 4 L6461 4 L6480 3 L6500 1" />
</svg>
