<svg xmlns="http://www.w3.org/2000/svg" version="1.1" viewBox="0 0 6500 1000">
	<path fill="none" stroke="gold" stroke-width="125" stroke-linecap="round" stroke-linejoin="round" d="M0 11443  L-730694 11443 L-728090 11442 L-726422 11442 L-708092 11441 L-707922 11440 L-700764 11439 L-700731 11439 L-687300 11438 L-684378 11439 L-671037 11437 L-666868 11435 L-665708 11433 L-665089 11431 L-663077 11429 L-659306 11428 L-658705 11427 L-658377 11426 L-658164 11425 L-657622 11424 L-656384 11420 L-655205 11417 L-652341 11413 L-651818 11409 L-646963 11408 L-644026 11407 L-643983 11406 L-643674 11405 L-643423 11404 L-640828 11403 L-636572 11403 L-636554 11403 L-635317 11403 L-633440 11403 L-631486 11402 L-630538 11401 L-630268 11400 L-629958 11400 L-629860 11399 L-629029 11399 L-626999 11400 L-626708 11395 L-624562 11394 L-624406 11391 L-620750 11388 L-620499 11389 L-620400 11389 L-619883 11390 L-617732 11393 L-616803 11395 L-615277 11397 L-614038 11397 L-612491 11397 L-609529 11396 L-608408 11395 L-608098 11394 L-606887 11394 L-603880 11399 L-603861 11398 L-603513 11398 L-603300 11397 L-603174 11391 L-602933 11390 L-602895 11389 L-602875 11388 L-602856 11387 L-602797 11386 L-602738 11385 L-602720 11384 L-602277 11383 L-601038 11382 L-599492 11381 L-596104 11380 L-590378 11380 L-590176 11379 L-588541 11379 L-586819 11378 L-585387 11378 L-585154 11377 L-584439 11377 L-578307 11376 L-577939 11375 L-577785 11374 L-577206 11373 L-576914 11372 L-575946 11371 L-575637 11370 L-575038 11369 L-573431 11369 L-572696 11369 L-572386 11370 L-571618 11370 L-569582 11369 L-569157 11368 L-568344 11368 L-560916 11367 L-560393 11366 L-560219 11365 L-559484 11364 L-557916 11363 L-557511 11362 L-555286 11361 L-554338 11361 L-553913 11360 L-553582 11360 L-552539 11360 L-550431 11359 L-550178 11358 L-549560 11357 L-548747 11356 L-546639 11356 L-546590 11355 L-544662 11354 L-544336 11353 L-544201 11352 L-543698 11351 L-542286 11350 L-541783 11348 L-541261 11347 L-537701 11345 L-536966 11343 L-534541 11343 L-533252 11342 L-532845 11342 L-529692 11342 L-529538 11342 L-529517 11342 L-529151 11342 L-527893 11343 L-527178 11343 L-526288 11343 L-525881 11343 L-524952 11343 L-523844 11343 L-523540 11344 L-517291 11345 L-516344 11346 L-514718 11347 L-514216 11348 L-510540 11348 L-509708 11349 L-505755 11349 L-504343 11348 L-501854 11347 L-501177 11346 L-501139 11345 L-500268 11345 L-497057 11345 L-494194 11344 L-493226 11344 L-492104 11343 L-492085 11342 L-490460 11341 L-489996 11340 L-489904 11339 L-483535 11339 L-482586 11338 L-480129 11338 L-479257 11337 L-478021 11336 L-476020 11336 L-475622 11335 L-474186 11334 L-472160 11333 L-471946 11332 L-470766 11332 L-469258 11331 L-469238 11331 L-467225 11331 L-466356 11330 L-465485 11329 L-464900 11328 L-464363 11327 L-463705 11326 L-462467 11325 L-461907 11325 L-460726 11324 L-459488 11324 L-459449 11323 L-459062 11323 L-458521 11322 L-457747 11321 L-456625 11321 L-454536 11320 L-454202 11319 L-453917 11318 L-452988 11318 L-452505 11317 L-451769 11316 L-448138 11316 L-447011 11315 L-446856 11315 L-445830 11314 L-442115 11313 L-440898 11312 L-439079 11311 L-436294 11311 L-435732 11310 L-431844 11310 L-429368 11309 L-428033 11309 L-427529 11309 L-427046 11308 L-424357 11308 L-420585 11308 L-418128 11308 L-416948 11308 L-416309 11308 L-413949 11307 L-413872 11306 L-412825 11306 L-412731 11305 L-412228 11305 L-411783 11305 L-411725 11305 L-411511 11305 L-408552 11304 L-405844 11304 L-405689 11303 L-402169 11303 L-401646 11302 L-400678 11301 L-400329 11300 L-399286 11299 L-398357 11298 L-397931 11298 L-396422 11298 L-395455 11297 L-395436 11297 L-393540 11262 L-393425 11226 L-393377 11190 L-393352 11155 L-390348 11154 L-388317 11153 L-386557 11153 L-386189 11152 L-385744 11151 L-385377 11151 L-384963 11150 L-382978 11149 L-382765 11149 L-382610 11149 L-381005 11149 L-379883 11148 L-378935 11148 L-377677 11147 L-376033 11146 L-374853 11145 L-368264 11145 L-368217 11144 L-367811 11144 L-366766 11143 L-366631 11143 L-364948 11142 L-364928 11142 L-363591 11141 L-362355 11140 L-362201 11140 L-361827 11139 L-361621 11138 L-361311 11138 L-360538 11137 L-358216 11136 L-357558 11136 L-355431 11135 L-353708 11135 L-353515 11134 L-350961 11133 L-350685 11132 L-350497 11131 L-349664 11131 L-348892 11130 L-348194 11130 L-343193 11130 L-342817 11129 L-338564 11129 L-338077 11176 L-338058 11176 L-337979 11176 L-337904 11175 L-337884 11126 L-337071 11126 L-336317 11125 L-335098 11124 L-333666 11124 L-333570 11124 L-333396 11124 L-333041 11123 L-331732 11122 L-329875 11122 L-328172 11121 L-327670 11120 L-327404 11120 L-327011 11119 L-326877 11119 L-325967 11118 L-325591 11118 L-324662 11118 L-324323 11118 L-324284 11118 L-324246 11117 L-322330 11117 L-322157 11117 L-320628 11117 L-320300 11116 L-320184 11116 L-319776 11115 L-319428 11114 L-317785 11113 L-317234 11113 L-316991 11112 L-316449 11112 L-315618 11111 L-315076 11110 L-313542 11109 L-313449 11109 L-313413 11108 L-313277 11108 L-312889 11107 L-311865 11107 L-309988 11106 L-309892 11106 L-309292 11121 L-308924 11138 L-308440 11155 L-308402 11171 L-307628 11172 L-307570 11171 L-307396 11170 L-307202 11170 L-305597 11169 L-305577 11168 L-305422 11169 L-305307 11170 L-304127 11170 L-303972 11172 L-303305 11172 L-300857 11211 L-298342 11252 L-295672 11291 L-287973 11330 L-282305 11330 L-280091 11329 L-280068 11329 L-279094 11339 L-279074 11339 L-278210 11338 L-275470 11337 L-269671 11327 L-269518 11326 L-266732 11326 L-253124 11325 L-252378 11324 L-247967 11323 L-231621 11323 L-231389 11322 L-230852 11321 L-222392 11321 L-213687 11320 L-213474 11320 L-211502 11319 L-208716 11319 L-204228 11320 L-204073 11319 L-203904 11319 L-203764 11319 L-203473 11318 L-203434 11318 L-203164 11317 L-202992 11317 L-202582 11316 L-201461 11316 L-200281 11315 L-199004 11315 L-196140 11314 L-193220 11314 L-191228 11313 L-189680 11312 L-186642 11312 L-177318 11311 L-176794 11311 L-171070 11311 L-169563 11310 L-168749 11310 L-167065 11309 L-166344 11309 L-166175 11308 L-165130 11308 L-163063 11307 L-161701 11307 L-157258 11306 L-157161 11306 L-157122 11306 L-157103 11305 L-156270 11305 L-156193 11304 L-153620 11303 L-150371 11303 L-150216 11302 L-149268 11302 L-147527 11301 L-146811 11304 L-143271 11306 L-136693 11309 L-135276 11313 L-135255 11312 L-134305 11312 L-130830 11311 L-130077 11310 L-129515 11310 L-128733 11309 L-121229 11309 L-119631 11308 L-118057 11308 L-114872 11307 L-110538 11307 L-101969 11306 L-93222 11306 L-90149 11306 L-86883 11305 L-86336 11305 L-79199 11304 L-73531 11304 L-59467 11304 L-53455 11305 L-48749 11304 L-44746 11303 L-39638 11303 L-29924 11302 L-14354 11301 L-11271 11300 L-10969 11084 L-10949 10817 L-10930 10515 L-10911 10177 L-10891 10022 L-10872 9892 L-10853 9773 L-10825 9654 L-10805 9540 L-10777 9419 L-10741 9285 L-10728 9172 L-10715 9074 L-10696 8994 L-10678 8934 L-10658 8873 L-10640 8812 L-10620 8751 L-10600 8689 L-10579 8625 L-10562 8562 L-10544 8501 L-10523 8443 L-10503 8383 L-10485 8319 L-10466 8253 L-10446 8184 L-10426 8118 L-10408 8053 L-10389 7993 L-10367 7934 L-10343 7874 L-10328 7819 L-10311 7764 L-10291 7707 L-10272 7653 L-10253 7594 L-10234 7533 L-10214 7476 L-10193 7422 L-10175 7369 L-10157 7320 L-10136 7273 L-10115 7229 L-10098 7191 L-10079 7153 L-10059 7117 L-10040 7082 L-10021 7049 L-10002 7018 L-9982 6991 L-9962 6966 L-9943 6940 L-9924 6914 L-9897 6882 L-9876 6849 L-9848 6811 L-9814 6770 L-9800 6736 L-9787 6706 L-9768 6678 L-9749 6655 L-9729 6630 L-9711 6602 L-9692 6574 L-9672 6546 L-9651 6520 L-9634 6496 L-9615 6470 L-9595 6443 L-9575 6413 L-9556 6379 L-9538 6343 L-9518 6306 L-9498 6267 L-9479 6229 L-9460 6190 L-9439 6147 L-9415 6099 L-9400 6053 L-9383 6009 L-9363 5965 L-9344 5922 L-9324 5876 L-9305 5828 L-9285 5782 L-9265 5736 L-9247 5693 L-9228 5649 L-9208 5609 L-9187 5568 L-9170 5529 L-9151 5494 L-9131 5458 L-9112 5427 L-9092 5395 L-9073 5362 L-9053 5332 L-9034 5298 L-9015 5267 L-8996 5235 L-8967 5203 L-8947 5174 L-8920 5144 L-8882 5107 L-8867 5073 L-8855 5041 L-8838 5011 L-8821 4989 L-8801 4968 L-8782 4949 L-8763 4931 L-8743 4914 L-8722 4895 L-8705 4875 L-8686 4854 L-8666 4831 L-8646 4809 L-8628 4784 L-8609 4759 L-8589 4731 L-8569 4703 L-8550 4673 L-8532 4645 L-8511 4618 L-8486 4589 L-8472 4562 L-8454 4533 L-8434 4504 L-8415 4477 L-8396 4447 L-8377 4416 L-8357 4385 L-8337 4356 L-8318 4327 L-8299 4300 L-8279 4274 L-8259 4249 L-8241 4226 L-8222 4201 L-8202 4177 L-8183 4153 L-8164 4128 L-8145 4106 L-8125 4083 L-8106 4061 L-8086 4039 L-8067 4016 L-8039 3994 L-8019 3971 L-7991 3945 L-7955 3909 L-7941 3876 L-7928 3845 L-7910 3817 L-7892 3800 L-7872 3782 L-7854 3759 L-7834 3736 L-7814 3711 L-7793 3684 L-7775 3656 L-7758 3627 L-7737 3595 L-7717 3562 L-7699 3528 L-7680 3491 L-7660 3455 L-7640 3421 L-7622 3389 L-7603 3362 L-7582 3341 L-7557 3323 L-7542 3307 L-7525 3289 L-7506 3271 L-7486 3252 L-7467 3233 L-7448 3214 L-7428 3197 L-7407 3182 L-7390 3168 L-7371 3151 L-7350 3130 L-7329 3106 L-7313 3083 L-7293 3065 L-7273 3050 L-7255 3039 L-7235 3029 L-7216 3018 L-7196 3006 L-7177 2992 L-7157 2979 L-7139 2967 L-7111 2954 L-7090 2943 L-7063 2930 L-7028 2913 L-7014 2900 L-7001 2888 L-6982 2878 L-6963 2869 L-6944 2859 L-6925 2849 L-6906 2840 L-6886 2832 L-6865 2822 L-6848 2813 L-6829 2803 L-6808 2792 L-6789 2781 L-6770 2770 L-6752 2759 L-6732 2751 L-6711 2742 L-6693 2733 L-6674 2723 L-6653 2714 L-6628 2706 L-6614 2697 L-6597 2689 L-6577 2681 L-6558 2672 L-6538 2662 L-6519 2651 L-6500 2640 L-6479 2631 L-6461 2621 L-6442 2612 L-6422 2603 L-6401 2595 L-6384 2587 L-6365 2578 L-6345 2570 L-6326 2562 L-6306 2554 L-6288 2548 L-6268 2542 L-6248 2536 L-6229 2530 L-6210 2541 L-6181 2550 L-6162 2560 L-6134 2569 L-6096 2560 L-6081 2553 L-6068 2546 L-6051 2541 L-6035 2537 L-6015 2532 L-5997 2526 L-5977 2520 L-5957 2515 L-5936 2510 L-5919 2506 L-5901 2501 L-5880 2496 L-5860 2490 L-5842 2484 L-5823 2478 L-5803 2472 L-5783 2467 L-5765 2461 L-5746 2457 L-5725 2452 L-5700 2448 L-5685 2442 L-5668 2436 L-5648 2431 L-5629 2425 L-5610 2420 L-5591 2414 L-5571 2407 L-5550 2399 L-5533 2391 L-5514 2383 L-5493 2376 L-5473 2370 L-5455 2363 L-5436 2356 L-5416 2350 L-5397 2344 L-5378 2336 L-5359 2329 L-5339 2321 L-5319 2315 L-5300 2310 L-5282 2305 L-5254 2298 L-5233 2292 L-5205 2285 L-5171 2277 L-5157 2270 L-5144 2265 L-5125 2258 L-5106 2253 L-5086 2248 L-5068 2242 L-5048 2236 L-5029 2230 L-5008 2224 L-4991 2219 L-4972 2213 L-4951 2206 L-4931 2199 L-4913 2191 L-4894 2182 L-4875 2172 L-4854 2163 L-4836 2154 L-4817 2147 L-4796 2139 L-4771 2130 L-4756 2121 L-4739 2112 L-4720 2104 L-4700 2096 L-4681 2087 L-4662 2078 L-4642 2070 L-4621 2062 L-4604 2055 L-4585 2047 L-4564 2039 L-4544 2032 L-4527 2027 L-4508 2020 L-4488 2016 L-4469 2010 L-4449 2005 L-4430 2000 L-4411 1996 L-4391 1992 L-4372 1987 L-4353 1984 L-4325 1979 L-4305 1974 L-4277 1969 L-4241 1960 L-4228 1952 L-4215 1944 L-4196 1936 L-4178 1931 L-4158 1926 L-4140 1920 L-4120 1915 L-4100 1910 L-4079 1904 L-4062 1898 L-4044 1892 L-4023 1885 L-4003 1879 L-3985 1871 L-3966 1865 L-3946 1857 L-3926 1851 L-3908 1844 L-3889 1839 L-3867 1834 L-3842 1829 L-3828 1824 L-3811 1818 L-3791 1812 L-3772 1806 L-3753 1799 L-3734 1791 L-3714 1782 L-3693 1772 L-3675 1764 L-3656 1756 L-3636 1749 L-3615 1743 L-3598 1737 L-3579 1733 L-3559 1729 L-3540 1725 L-3521 1721 L-3502 1716 L-3482 1712 L-3462 1707 L-3443 1704 L-3424 1700 L-3397 1695 L-3376 1692 L-3348 1688 L-3314 1684 L-3300 1680 L-3287 1676 L-3268 1673 L-3249 1669 L-3230 1666 L-3211 1663 L-3192 1660 L-3172 1657 L-3151 1655 L-3134 1651 L-3115 1648 L-3095 1644 L-3075 1640 L-3056 1637 L-3038 1633 L-3018 1630 L-2997 1628 L-2979 1626 L-2960 1624 L-2939 1621 L-2914 1618 L-2900 1615 L-2883 1611 L-2863 1607 L-2844 1605 L-2824 1601 L-2805 1598 L-2785 1594 L-2765 1588 L-2747 1581 L-2728 1575 L-2708 1567 L-2687 1562 L-2669 1557 L-2650 1553 L-2631 1548 L-2612 1544 L-2592 1539 L-2573 1534 L-2553 1531 L-2534 1527 L-2515 1524 L-2496 1521 L-2467 1518 L-2420 1515 L-2383 1511 L-2368 1507 L-2355 1504 L-2338 1501 L-2321 1500 L-2301 1498 L-2282 1496 L-2263 1493 L-2243 1490 L-2223 1488 L-2205 1486 L-2186 1484 L-2166 1482 L-2146 1479 L-2128 1476 L-2109 1473 L-2089 1470 L-2069 1467 L-2051 1464 L-2032 1459 L-2010 1455 L-1986 1449 L-1971 1444 L-1954 1439 L-1934 1434 L-1915 1429 L-1896 1424 L-1877 1420 L-1857 1416 L-1836 1411 L-1818 1406 L-1799 1401 L-1779 1397 L-1759 1393 L-1741 1391 L-1722 1387 L-1702 1384 L-1683 1381 L-1664 1378 L-1645 1374 L-1625 1370 L-1605 1366 L-1586 1363 L-1567 1359 L-1539 1356 L-1519 1352 L-1491 1347 L-1454 1340 L-1440 1332 L-1427 1325 L-1409 1319 L-1392 1316 L-1372 1312 L-1354 1309 L-1334 1306 L-1314 1304 L-1293 1301 L-1276 1297 L-1258 1293 L-1237 1288 L-1217 1283 L-1199 1277 L-1180 1270 L-1160 1263 L-1139 1256 L-1122 1251 L-1103 1245 L-1082 1241 L-1057 1235 L-1042 1230 L-1024 1226 L-1006 1222 L-985 1218 L-967 1214 L-948 1207 L-928 1202 L-906 1197 L-890 1192 L-870 1188 L-850 1184 L-829 1179 L-812 1176 L-793 1172 L-774 1168 L-755 1165 L-735 1161 L-716 1157 L-696 1153 L-676 1150 L-657 1147 L-639 1143 L-611 3694 L-590 3690 L-563 3686 L-527 3680 L-513 1121 L-499 1116 L-481 1112 L-463 1109 L-444 1107 L-425 1104 L-406 1102 L-386 1097 L-365 1092 L-348 1087 L-329 1081 L-308 1076 L-288 1070 L-270 1063 L-251 1056 L-232 1049 L-211 1044 L-193 1040 L-174 1036 L-153 1032 L-128 1026 L-113 1020 L-83 1013 L-44 1005 L-21 998 L8 989 L24 981 L38 976 L57 971 L78 967 L98 964 L115 960 L134 956 L154 953 L173 951 L193 949 L212 946 L231 944 L252 940 L270 937 L289 934 L317 931 L337 927 L365 924 L400 920 L414 915 L446 912 L464 908 L484 906 L503 903 L522 901 L542 899 L563 896 L580 893 L598 887 L619 878 L640 866 L657 854 L676 843 L696 833 L716 826 L734 818 L753 813 L775 809 L800 804 L814 800 L832 795 L850 789 L871 785 L889 781 L909 776 L928 771 L950 765 L966 760 L986 755 L1006 751 L1027 748 L1044 745 L1063 742 L1083 739 L1102 736 L1121 731 L1140 728 L1160 724 L1180 721 L1199 718 L1217 715 L1245 712 L1266 709 L1336 702 L1364 694 L1378 686 L1393 678 L1413 674 L1431 670 L1450 666 L1470 661 L1491 657 L1508 654 L1527 651 L1548 649 L1568 647 L1586 643 L1605 638 L1625 634 L1645 629 L1663 624 L1682 620 L1703 617 L1728 614 L1743 611 L1760 607 L1779 602 L1799 597 L1818 593 L1837 588 L1857 585 L1878 582 L1895 578 L1914 576 L1935 572 L1956 569 L1972 565 L2030 562 L2050 558 L2069 555 L2088 552 L2109 550 L2127 547 L2146 545 L2174 543 L2194 541 L2222 539 L2259 536 L2273 533 L2286 531 L2304 529 L2321 527 L2341 525 L2360 524 L2379 523 L2399 522 L2420 520 L2437 519 L2455 517 L2476 515 L2496 513 L2515 511 L2533 508 L2553 505 L2574 503 L2591 500 L2610 498 L2632 495 L2657 493 L2671 491 L2688 489 L2708 487 L2728 484 L2746 482 L2766 478 L2785 474 L2807 471 L2823 467 L2843 464 L2863 463 L2884 462 L2901 460 L2920 458 L2940 456 L2959 454 L2978 453 L2997 452 L3017 450 L3037 450 L3056 448 L3075 447 L3102 445 L3123 443 L3151 441 L3186 439 L3200 437 L3213 435 L3231 434 L3250 432 L3270 430 L3288 428 L3327 426 L3348 425 L3365 424 L3384 422 L3404 419 L3424 416 L3443 413 L3461 410 L3481 408 L3501 406 L3520 403 L3539 401 L3560 400 L3584 398 L3599 396 L3616 395 L3636 393 L3655 390 L3675 388 L3694 386 L3714 384 L3734 382 L3752 379 L3771 377 L3792 375 L3812 373 L3829 371 L3848 369 L3868 367 L3887 366 L3907 365 L3926 363 L3945 362 L3965 360 L3984 358 L4003 357 L4032 355 L4080 353 L4117 351 L4132 349 L4145 348 L4162 346 L4178 345 L4198 344 L4217 342 L4236 341 L4256 340 L4277 339 L4294 339 L4313 338 L4333 338 L4353 337 L4371 336 L4390 335 L4410 334 L4430 332 L4448 331 L4467 329 L4488 327 L4513 325 L4528 322 L4545 320 L4565 317 L4584 313 L4603 309 L4622 304 L4642 300 L4663 296 L4681 292 L4700 288 L4720 285 L4740 282 L4758 278 L4777 274 L4797 270 L4816 267 L4835 264 L4854 262 L4874 258 L4894 254 L4913 250 L4932 246 L4960 241 L4980 238 L5008 236 L5045 233 L5060 230 L5073 228 L5090 224 L5107 223 L5127 220 L5145 218 L5165 216 L5185 214 L5206 211 L5223 208 L5241 205 L5262 202 L5283 199 L5300 196 L5320 193 L5339 190 L5360 188 L5377 185 L5396 182 L5418 178 L5442 175 L5458 171 L5475 167 L5494 163 L5514 160 L5532 157 L5552 153 L5571 149 L5593 145 L5609 140 L5629 136 L5649 132 L5670 129 L5687 126 L5706 124 L5726 123 L5744 121 L5764 118 L5783 115 L5803 112 L5822 109 L5841 107 L5860 104 L5909 100 L5936 98 L5969 93 L5984 90 L5996 86 L6015 83 L6035 81 L6055 78 L6074 75 L6093 72 L6113 70 L6134 67 L6151 65 L6170 63 L6190 61 L6210 58 L6229 55 L6247 51 L6267 48 L6287 45 L6306 42 L6325 38 L6346 36 L6371 33 L6385 29 L6402 25 L6422 21 L6442 17 L6461 12 L6480 9 L6500 5" />
</svg>
