<svg xmlns="http://www.w3.org/2000/svg" version="1.1" viewBox="0 0 6500 1000">
	<path fill="none" stroke="gold" stroke-width="125" stroke-linecap="round" stroke-linejoin="round" d="M0 3288  L-728707 3288 L-726103 3288 L-724435 3288 L-706106 3287 L-705935 3287 L-698778 3287 L-698744 3287 L-685313 3287 L-682392 3287 L-669051 3286 L-664882 3286 L-663722 3285 L-663103 3284 L-661091 3284 L-657319 3284 L-656719 3283 L-656390 3283 L-656177 3283 L-655635 3282 L-654397 3281 L-653218 3280 L-650354 3279 L-649832 3278 L-644976 3278 L-642039 3277 L-641996 3277 L-641688 3277 L-641436 3276 L-638841 3276 L-634586 3276 L-634568 3276 L-633331 3276 L-631453 3276 L-629500 3276 L-628552 3276 L-628281 3275 L-627971 3275 L-627873 3275 L-627043 3275 L-625012 3275 L-624722 3274 L-622575 3273 L-622420 3272 L-618763 3272 L-618512 3272 L-618414 3272 L-617897 3272 L-615745 3273 L-614817 3274 L-613291 3274 L-612051 3274 L-610505 3274 L-607543 3274 L-606421 3274 L-606112 3273 L-604901 3273 L-601894 3275 L-601874 3275 L-601527 3275 L-601314 3274 L-601188 3272 L-600946 3272 L-600908 3272 L-600888 3272 L-600869 3271 L-600810 3271 L-600752 3271 L-600734 3271 L-600290 3270 L-599051 3270 L-597505 3270 L-594118 3269 L-588391 3269 L-588190 3269 L-586554 3269 L-584832 3269 L-583400 3269 L-583168 3269 L-582452 3268 L-576320 3268 L-575952 3268 L-575798 3268 L-575220 3267 L-574927 3267 L-573960 3267 L-573650 3267 L-573051 3266 L-571445 3266 L-570710 3266 L-570400 3266 L-569632 3266 L-567596 3266 L-567170 3266 L-566358 3266 L-558929 3265 L-558406 3265 L-558232 3265 L-557497 3265 L-555930 3264 L-555524 3264 L-553299 3264 L-552351 3264 L-551926 3264 L-551596 3264 L-550552 3263 L-548444 3263 L-548192 3263 L-547573 3263 L-546760 3262 L-544652 3262 L-544604 3262 L-542676 3262 L-542350 3261 L-542215 3261 L-541712 3261 L-540299 3261 L-539796 3260 L-539274 3260 L-535715 3259 L-534980 3258 L-532555 3258 L-531265 3258 L-530858 3258 L-527706 3258 L-527551 3258 L-527531 3258 L-527164 3258 L-525906 3258 L-525191 3258 L-524301 3258 L-523894 3258 L-522966 3258 L-521857 3258 L-521554 3259 L-515305 3259 L-514358 3259 L-512731 3260 L-512230 3260 L-508554 3260 L-507721 3260 L-503768 3260 L-502357 3260 L-499867 3260 L-499191 3259 L-499152 3259 L-498281 3259 L-495070 3259 L-492207 3259 L-491239 3259 L-490117 3258 L-490099 3258 L-488474 3258 L-488009 3257 L-487917 3257 L-481548 3257 L-480600 3257 L-478143 3257 L-477270 3257 L-476034 3256 L-474033 3256 L-473635 3256 L-472199 3256 L-470173 3256 L-469960 3255 L-468780 3255 L-467271 3255 L-467251 3255 L-465239 3255 L-464369 3254 L-463498 3254 L-462914 3254 L-462376 3254 L-461719 3253 L-460481 3253 L-459920 3253 L-458739 3253 L-457501 3253 L-457463 3253 L-457076 3252 L-456534 3252 L-455760 3252 L-454638 3252 L-452549 3252 L-452216 3251 L-451930 3251 L-451001 3251 L-450518 3251 L-449783 3250 L-446151 3250 L-445024 3250 L-444869 3250 L-443843 3250 L-440128 3250 L-438911 3249 L-437093 3249 L-434307 3249 L-433745 3249 L-429858 3249 L-427381 3248 L-426046 3248 L-425543 3248 L-425060 3248 L-422370 3248 L-418599 3248 L-416141 3248 L-414962 3248 L-414322 3248 L-411963 3248 L-411885 3248 L-410838 3247 L-410744 3247 L-410242 3247 L-409796 3247 L-409738 3247 L-409525 3247 L-406565 3247 L-403858 3247 L-403703 3247 L-400182 3246 L-399659 3246 L-398692 3246 L-398343 3246 L-397299 3245 L-396370 3245 L-395945 3245 L-394436 3245 L-393469 3245 L-393450 3245 L-391554 3234 L-391438 3224 L-391390 3213 L-391366 3203 L-388361 3203 L-386331 3202 L-384570 3202 L-384203 3202 L-383757 3202 L-383390 3202 L-382976 3201 L-380991 3201 L-380778 3201 L-380623 3201 L-379018 3201 L-377896 3201 L-376948 3201 L-375691 3200 L-374046 3200 L-372866 3200 L-366277 3200 L-366230 3200 L-365825 3200 L-364780 3199 L-364644 3199 L-362962 3199 L-362942 3199 L-361605 3199 L-360369 3198 L-360214 3198 L-359841 3198 L-359634 3198 L-359325 3198 L-358551 3197 L-356230 3197 L-355572 3197 L-353444 3197 L-351721 3197 L-351528 3197 L-348975 3196 L-348698 3196 L-348510 3196 L-347678 3196 L-346905 3196 L-346207 3195 L-341207 3195 L-340831 3195 L-336578 3195 L-336091 3209 L-336071 3209 L-335993 3209 L-335917 3209 L-335897 3194 L-335085 3194 L-334331 3194 L-333112 3194 L-331680 3194 L-331584 3194 L-331409 3194 L-331055 3193 L-329745 3193 L-327888 3193 L-326186 3193 L-325683 3193 L-325418 3192 L-325024 3192 L-324890 3192 L-323980 3192 L-323604 3192 L-322676 3192 L-322336 3192 L-322297 3192 L-322259 3192 L-320344 3192 L-320170 3191 L-318641 3191 L-318313 3191 L-318197 3191 L-317790 3191 L-317442 3191 L-315798 3190 L-315247 3190 L-315004 3190 L-314463 3190 L-313631 3190 L-313090 3190 L-311555 3189 L-311463 3189 L-311426 3189 L-311290 3189 L-310903 3189 L-309878 3189 L-308002 3188 L-307905 3188 L-307305 3193 L-306938 3198 L-306453 3203 L-306415 3208 L-305641 3208 L-305584 3208 L-305409 3207 L-305216 3207 L-303610 3207 L-303591 3207 L-303435 3207 L-303320 3207 L-302140 3207 L-301986 3208 L-301319 3208 L-298870 3219 L-296356 3231 L-293686 3243 L-285987 3254 L-280319 3254 L-278104 3254 L-278081 3254 L-277107 3257 L-277087 3257 L-276224 3257 L-273483 3257 L-267685 3254 L-267531 3253 L-264745 3253 L-251137 3253 L-250391 3253 L-245981 3253 L-229634 3252 L-229402 3252 L-228865 3252 L-220406 3252 L-211700 3252 L-211488 3252 L-209515 3251 L-206729 3251 L-202242 3252 L-202087 3251 L-201918 3251 L-201777 3251 L-201487 3251 L-201448 3251 L-201177 3251 L-201005 3251 L-200595 3250 L-199475 3250 L-198294 3250 L-197018 3250 L-194154 3250 L-191234 3250 L-189242 3250 L-187694 3249 L-184656 3249 L-175331 3249 L-174807 3249 L-169084 3249 L-167577 3249 L-166762 3249 L-165078 3248 L-164357 3248 L-164189 3248 L-163144 3248 L-161076 3248 L-159714 3248 L-155271 3248 L-155174 3247 L-155135 3247 L-155116 3247 L-154284 3247 L-154206 3247 L-151634 3247 L-148384 3246 L-148230 3246 L-147281 3246 L-145540 3246 L-144825 3247 L-141284 3247 L-134707 3248 L-133289 3249 L-133269 3249 L-132318 3249 L-128844 3249 L-128091 3249 L-127529 3249 L-126747 3248 L-119243 3248 L-117644 3248 L-116070 3248 L-112885 3248 L-108552 3248 L-99982 3248 L-91236 3248 L-88162 3247 L-84896 3247 L-84349 3247 L-77212 3247 L-71545 3247 L-57480 3247 L-51469 3247 L-46763 3247 L-42759 3247 L-37652 3246 L-27938 3246 L-12367 3246 L-9284 3246 L-8982 3182 L-8963 3103 L-8944 3013 L-8924 2914 L-8904 2868 L-8885 2829 L-8866 2794 L-8839 2759 L-8818 2725 L-8790 2690 L-8755 2650 L-8741 2617 L-8728 2588 L-8710 2564 L-8691 2546 L-8671 2528 L-8653 2510 L-8633 2492 L-8614 2474 L-8592 2455 L-8576 2436 L-8557 2418 L-8536 2401 L-8516 2383 L-8498 2364 L-8479 2345 L-8460 2324 L-8439 2305 L-8421 2286 L-8402 2268 L-8381 2251 L-8356 2233 L-8341 2217 L-8324 2200 L-8305 2184 L-8285 2168 L-8266 2150 L-8247 2132 L-8227 2115 L-8207 2099 L-8189 2084 L-8170 2069 L-8149 2055 L-8129 2042 L-8112 2031 L-8093 2020 L-8073 2009 L-8054 1999 L-8034 1989 L-8015 1980 L-7995 1972 L-7976 1964 L-7956 1957 L-7938 1949 L-7911 1940 L-7890 1930 L-7862 1919 L-7828 1906 L-7814 1896 L-7800 1888 L-7782 1879 L-7763 1873 L-7743 1865 L-7724 1857 L-7705 1849 L-7685 1840 L-7665 1832 L-7647 1825 L-7628 1818 L-7608 1810 L-7588 1801 L-7570 1791 L-7551 1780 L-7531 1769 L-7511 1758 L-7492 1747 L-7474 1735 L-7452 1722 L-7428 1708 L-7413 1694 L-7396 1681 L-7376 1669 L-7357 1656 L-7338 1642 L-7319 1628 L-7299 1614 L-7278 1601 L-7260 1588 L-7241 1575 L-7221 1563 L-7201 1551 L-7183 1540 L-7164 1529 L-7144 1518 L-7125 1510 L-7106 1500 L-7087 1490 L-7067 1481 L-7048 1471 L-7028 1462 L-7009 1453 L-6980 1443 L-6961 1435 L-6933 1426 L-6896 1415 L-6881 1405 L-6868 1395 L-6851 1386 L-6834 1380 L-6814 1374 L-6796 1368 L-6777 1363 L-6757 1358 L-6736 1352 L-6719 1346 L-6700 1340 L-6679 1333 L-6660 1327 L-6641 1319 L-6622 1312 L-6602 1304 L-6583 1295 L-6564 1287 L-6545 1278 L-6524 1270 L-6500 1262 L-6485 1254 L-6468 1245 L-6448 1237 L-6429 1228 L-6409 1220 L-6390 1210 L-6370 1201 L-6350 1193 L-6332 1184 L-6313 1176 L-6293 1168 L-6272 1161 L-6254 1154 L-6235 1147 L-6216 1140 L-6197 1133 L-6177 1126 L-6158 1119 L-6138 1112 L-6119 1106 L-6100 1099 L-6081 1092 L-6053 1086 L-6032 1079 L-6004 1071 L-5968 1061 L-5954 1051 L-5941 1042 L-5923 1034 L-5905 1028 L-5886 1023 L-5867 1016 L-5847 1010 L-5828 1002 L-5806 994 L-5788 986 L-5771 977 L-5750 968 L-5730 958 L-5712 948 L-5693 937 L-5673 926 L-5653 916 L-5635 907 L-5616 899 L-5595 893 L-5570 887 L-5556 883 L-5538 878 L-5519 872 L-5499 866 L-5480 861 L-5461 855 L-5441 850 L-5420 846 L-5403 842 L-5384 837 L-5364 830 L-5343 823 L-5326 817 L-5307 811 L-5287 807 L-5268 804 L-5248 800 L-5230 797 L-5210 794 L-5190 790 L-5171 786 L-5152 782 L-5125 778 L-5104 775 L-5076 771 L-5041 766 L-5027 762 L-5014 759 L-4995 756 L-4977 753 L-4957 750 L-4939 747 L-4919 745 L-4899 742 L-4878 739 L-4861 737 L-4843 734 L-4822 731 L-4802 727 L-4784 724 L-4765 721 L-4745 718 L-4725 716 L-4707 713 L-4688 710 L-4667 707 L-4642 705 L-4627 702 L-4610 700 L-4590 698 L-4571 695 L-4552 692 L-4533 689 L-4513 686 L-4492 683 L-4475 680 L-4456 677 L-4435 675 L-4415 672 L-4397 670 L-4378 667 L-4358 665 L-4340 662 L-4320 660 L-4301 658 L-4281 657 L-4262 655 L-4242 653 L-4224 656 L-4195 659 L-4175 662 L-4147 664 L-4110 662 L-4095 660 L-4082 658 L-4064 656 L-4048 655 L-4028 653 L-4010 652 L-3990 650 L-3971 649 L-3949 647 L-3933 646 L-3914 644 L-3893 643 L-3873 641 L-3855 639 L-3836 638 L-3817 636 L-3796 634 L-3778 633 L-3759 631 L-3738 630 L-3713 629 L-3699 627 L-3681 625 L-3662 624 L-3643 622 L-3623 621 L-3604 619 L-3584 617 L-3564 614 L-3546 612 L-3527 610 L-3507 608 L-3486 606 L-3469 604 L-3450 602 L-3430 600 L-3411 598 L-3391 596 L-3372 593 L-3352 591 L-3333 589 L-3314 588 L-3295 586 L-3267 585 L-3247 583 L-3219 581 L-3184 578 L-3170 576 L-3157 575 L-3138 573 L-3120 571 L-3100 570 L-3081 568 L-3062 566 L-3042 564 L-3021 563 L-3004 561 L-2985 559 L-2965 557 L-2945 555 L-2927 553 L-2908 550 L-2888 547 L-2868 544 L-2850 542 L-2831 540 L-2809 537 L-2784 535 L-2770 532 L-2753 530 L-2733 527 L-2714 525 L-2695 522 L-2676 519 L-2656 517 L-2635 515 L-2617 512 L-2598 510 L-2578 508 L-2557 506 L-2540 504 L-2521 502 L-2501 501 L-2482 499 L-2463 498 L-2444 496 L-2424 495 L-2404 494 L-2385 493 L-2366 492 L-2339 490 L-2318 489 L-2290 487 L-2255 485 L-2241 482 L-2228 480 L-2209 477 L-2191 476 L-2171 474 L-2153 473 L-2133 471 L-2114 470 L-2092 468 L-2076 466 L-2057 464 L-2036 462 L-2016 460 L-1998 458 L-1979 456 L-1959 454 L-1939 452 L-1921 450 L-1902 449 L-1881 447 L-1856 446 L-1841 444 L-1824 443 L-1805 441 L-1785 439 L-1766 437 L-1747 435 L-1727 432 L-1706 429 L-1689 426 L-1670 424 L-1649 422 L-1629 420 L-1612 419 L-1593 417 L-1572 416 L-1554 415 L-1534 414 L-1515 412 L-1495 411 L-1476 410 L-1456 409 L-1438 408 L-1410 406 L-1390 405 L-1362 404 L-1328 403 L-1313 402 L-1300 401 L-1282 400 L-1263 399 L-1243 398 L-1225 397 L-1205 396 L-1185 395 L-1164 394 L-1147 393 L-1128 392 L-1108 391 L-1088 390 L-1070 389 L-1051 388 L-1031 387 L-1011 386 L-992 386 L-974 385 L-952 384 L-928 383 L-913 382 L-896 381 L-876 380 L-857 379 L-838 378 L-819 378 L-799 376 L-778 375 L-760 373 L-741 371 L-721 368 L-701 367 L-683 365 L-664 364 L-644 363 L-625 362 L-605 360 L-587 359 L-567 358 L-548 357 L-528 356 L-509 355 L-481 354 L-433 353 L-396 352 L-381 351 L-369 350 L-352 349 L-334 348 L-314 348 L-296 347 L-277 346 L-256 346 L-236 345 L-219 344 L-200 344 L-179 343 L-160 342 L-141 341 L-122 341 L-102 340 L-83 339 L-64 338 L-45 336 L-24 335 L0 333 L14 332 L31 330 L51 329 L70 328 L90 326 L109 325 L129 324 L149 322 L167 321 L186 319 L207 318 L227 317 L245 316 L263 315 L284 314 L302 313 L322 312 L341 311 L361 310 L380 309 L400 308 L418 307 L447 306 L467 305 L495 303 L531 301 L546 299 L559 297 L576 295 L594 294 L614 293 L632 292 L652 291 L671 291 L693 290 L709 289 L728 287 L749 286 L769 284 L787 283 L806 280 L826 278 L846 276 L864 275 L883 273 L904 272 L929 270 L944 269 L962 268 L980 266 L1000 265 L1019 264 L1038 262 L1058 260 L1079 259 L1096 257 L1115 256 L1135 255 L1157 254 L1173 253 L1192 251 L1212 250 L1231 249 L1251 248 L1270 247 L1289 246 L1309 245 L1328 244 L1347 243 L1375 997 L1395 996 L1423 995 L1459 993 L1473 236 L1486 235 L1504 234 L1522 233 L1542 232 L1560 232 L1580 231 L1600 229 L1621 228 L1638 226 L1656 225 L1677 223 L1697 221 L1715 219 L1734 217 L1754 215 L1775 214 L1792 213 L1811 211 L1833 210 L1858 208 L1873 207 L1902 205 L1942 202 L1965 200 L1994 197 L2011 195 L2025 193 L2044 192 L2064 191 L2085 190 L2102 189 L2121 188 L2141 187 L2160 186 L2179 186 L2198 185 L2218 184 L2238 183 L2257 182 L2275 181 L2303 180 L2324 179 L2352 178 L2387 177 L2400 176 L2432 175 L2451 174 L2471 173 L2489 172 L2509 171 L2528 171 L2549 170 L2566 169 L2585 167 L2606 165 L2626 161 L2644 158 L2663 154 L2683 151 L2703 149 L2721 147 L2740 145 L2761 144 L2786 143 L2801 142 L2818 140 L2837 138 L2857 137 L2876 136 L2895 134 L2915 133 L2936 131 L2953 130 L2972 128 L2993 127 L3014 126 L3030 125 L3049 124 L3070 123 L3089 123 L3108 121 L3127 120 L3147 119 L3166 118 L3185 117 L3204 116 L3232 116 L3252 115 L3322 113 L3350 110 L3365 108 L3379 106 L3399 104 L3418 103 L3437 102 L3457 101 L3478 99 L3495 98 L3514 98 L3534 97 L3554 96 L3572 95 L3591 94 L3611 92 L3632 91 L3649 90 L3668 88 L3690 88 L3715 87 L3730 86 L3747 85 L3766 83 L3786 82 L3805 80 L3824 79 L3843 78 L3865 77 L3882 76 L3901 75 L3921 74 L3942 73 L3959 72 L4017 71 L4037 70 L4055 69 L4075 68 L4095 68 L4114 67 L4133 66 L4160 66 L4181 65 L4209 64 L4245 64 L4260 63 L4273 62 L4290 61 L4308 61 L4328 60 L4346 60 L4366 60 L4386 59 L4407 59 L4423 58 L4442 58 L4463 57 L4483 57 L4501 56 L4520 55 L4540 54 L4560 54 L4578 53 L4597 52 L4618 51 L4643 51 L4658 50 L4675 50 L4694 49 L4714 48 L4733 47 L4752 46 L4772 45 L4793 44 L4810 43 L4829 42 L4850 42 L4871 42 L4887 41 L4906 40 L4927 40 L4946 39 L4965 39 L4984 39 L5004 38 L5024 38 L5042 38 L5061 37 L5089 37 L5110 36 L5137 36 L5173 35 L5186 34 L5200 34 L5218 33 L5236 33 L5256 32 L5275 32 L5314 31 L5334 31 L5352 30 L5371 30 L5391 29 L5411 28 L5429 27 L5448 26 L5468 26 L5488 25 L5507 24 L5526 24 L5546 23 L5571 23 L5586 22 L5603 22 L5623 21 L5642 20 L5661 20 L5680 19 L5700 18 L5721 18 L5739 17 L5757 17 L5778 16 L5798 15 L5816 15 L5835 14 L5855 14 L5874 13 L5894 13 L5912 12 L5932 12 L5952 11 L5971 11 L5990 11 L6019 10 L6066 9 L6104 9 L6119 8 L6131 8 L6148 7 L6165 7 L6185 7 L6203 6 L6222 6 L6242 6 L6263 5 L6280 5 L6299 5 L6320 5 L6339 5 L6358 4 L6377 4 L6397 4 L6416 3 L6435 3 L6454 2 L6475 2 L6500 1" />
</svg>
