<svg xmlns="http://www.w3.org/2000/svg" version="1.1" viewBox="0 0 6500 1000">
	<path fill="none" stroke="gold" stroke-width="125" stroke-linecap="round" stroke-linejoin="round" d="M0 1251  L-719868 1251 L-717264 1251 L-715596 1251 L-697266 1250 L-697096 1250 L-689938 1250 L-689905 1250 L-676474 1250 L-673552 1250 L-660212 1250 L-656043 1250 L-654882 1249 L-654263 1249 L-652251 1249 L-648480 1249 L-647880 1249 L-647551 1249 L-647338 1248 L-646796 1248 L-645558 1248 L-644379 1247 L-641515 1247 L-640993 1246 L-636137 1246 L-633200 1246 L-633157 1246 L-632849 1246 L-632597 1246 L-630002 1245 L-625746 1245 L-625728 1245 L-624492 1245 L-622614 1245 L-620661 1245 L-619713 1245 L-619442 1245 L-619132 1245 L-619034 1245 L-618204 1245 L-616173 1245 L-615882 1244 L-613736 1244 L-613581 1244 L-609924 1243 L-609673 1244 L-609575 1244 L-609057 1244 L-606906 1244 L-605977 1244 L-604451 1245 L-603212 1245 L-601665 1245 L-598704 1245 L-597582 1244 L-597273 1244 L-596061 1244 L-593055 1245 L-593035 1245 L-592688 1245 L-592475 1245 L-592348 1244 L-592107 1244 L-592069 1244 L-592049 1243 L-592030 1243 L-591971 1243 L-591912 1243 L-591894 1243 L-591451 1243 L-590212 1243 L-588666 1243 L-585278 1242 L-579552 1242 L-579351 1242 L-577715 1242 L-575993 1242 L-574561 1242 L-574328 1242 L-573613 1242 L-567481 1242 L-567113 1242 L-566959 1242 L-566380 1242 L-566088 1241 L-565120 1241 L-564811 1241 L-564212 1241 L-562606 1241 L-561870 1241 L-561561 1241 L-560792 1241 L-558756 1241 L-558331 1241 L-557518 1241 L-550090 1241 L-549567 1241 L-549393 1240 L-548658 1240 L-547091 1240 L-546685 1240 L-544460 1240 L-543512 1240 L-543087 1240 L-542757 1240 L-541713 1240 L-539605 1240 L-539353 1239 L-538734 1239 L-537921 1239 L-535813 1239 L-535765 1239 L-533836 1239 L-533511 1239 L-533376 1239 L-532872 1239 L-531460 1238 L-530957 1238 L-530435 1238 L-526875 1238 L-526140 1238 L-523716 1238 L-522426 1237 L-522019 1237 L-518867 1237 L-518712 1237 L-518692 1237 L-518325 1237 L-517067 1237 L-516352 1238 L-515462 1238 L-515055 1238 L-514126 1238 L-513018 1237 L-512714 1238 L-506466 1238 L-505518 1238 L-503892 1238 L-503390 1238 L-499715 1238 L-498882 1238 L-494929 1238 L-493517 1238 L-491028 1238 L-490352 1238 L-490313 1238 L-489442 1238 L-486231 1238 L-483368 1238 L-482400 1238 L-481278 1238 L-481259 1237 L-479634 1237 L-479170 1237 L-479078 1237 L-472709 1237 L-471760 1237 L-469303 1237 L-468431 1237 L-467195 1237 L-465194 1237 L-464796 1236 L-463360 1236 L-461334 1236 L-461121 1236 L-459940 1236 L-458432 1236 L-458412 1236 L-456400 1236 L-455530 1236 L-454659 1236 L-454074 1236 L-453537 1235 L-452880 1235 L-451641 1235 L-451081 1235 L-449900 1235 L-448662 1235 L-448624 1235 L-448237 1235 L-447695 1235 L-446921 1235 L-445799 1235 L-443710 1234 L-443376 1234 L-443091 1234 L-442162 1234 L-441679 1234 L-440944 1234 L-437312 1234 L-436185 1234 L-436030 1234 L-435004 1234 L-431289 1234 L-430072 1233 L-428253 1233 L-425468 1233 L-424906 1233 L-421018 1233 L-418542 1233 L-417207 1233 L-416703 1233 L-416220 1233 L-413531 1233 L-409759 1233 L-407302 1233 L-406122 1233 L-405483 1233 L-403124 1233 L-403046 1233 L-401999 1233 L-401905 1233 L-401402 1233 L-400957 1233 L-400899 1233 L-400686 1233 L-397726 1232 L-395018 1232 L-394864 1232 L-391343 1232 L-390820 1232 L-389853 1232 L-389503 1232 L-388460 1232 L-387531 1232 L-387106 1232 L-385597 1232 L-384630 1231 L-384611 1231 L-382715 1227 L-382599 1222 L-382551 1217 L-382526 1213 L-379522 1213 L-377492 1212 L-375731 1212 L-375364 1212 L-374918 1212 L-374551 1212 L-374137 1212 L-372152 1212 L-371939 1212 L-371784 1212 L-370179 1212 L-369057 1212 L-368109 1212 L-366852 1212 L-365207 1212 L-364027 1211 L-357438 1211 L-357391 1211 L-356986 1211 L-355940 1211 L-355805 1211 L-354122 1211 L-354102 1211 L-352766 1211 L-351530 1211 L-351375 1211 L-351001 1211 L-350795 1210 L-350486 1210 L-349712 1210 L-347390 1210 L-346733 1210 L-344605 1210 L-342882 1210 L-342689 1210 L-340135 1210 L-339859 1210 L-339671 1210 L-338838 1210 L-338066 1209 L-337368 1209 L-332367 1209 L-331991 1209 L-327739 1209 L-327252 1215 L-327232 1215 L-327153 1215 L-327078 1215 L-327058 1209 L-326245 1209 L-325492 1209 L-324272 1209 L-322841 1209 L-322744 1209 L-322570 1209 L-322215 1208 L-320906 1208 L-319049 1208 L-317347 1208 L-316844 1208 L-316578 1208 L-316185 1208 L-316051 1208 L-315141 1208 L-314765 1208 L-313836 1208 L-313497 1208 L-313458 1208 L-313420 1208 L-311504 1208 L-311331 1208 L-309802 1208 L-309474 1208 L-309358 1207 L-308951 1207 L-308602 1207 L-306959 1207 L-306408 1207 L-306165 1207 L-305623 1207 L-304792 1207 L-304250 1207 L-302716 1207 L-302624 1207 L-302587 1207 L-302451 1206 L-302064 1206 L-301039 1206 L-299162 1206 L-299066 1206 L-298466 1208 L-298099 1210 L-297614 1213 L-297576 1215 L-296802 1215 L-296745 1215 L-296570 1215 L-296377 1215 L-294771 1215 L-294751 1214 L-294596 1215 L-294481 1215 L-293301 1215 L-293146 1215 L-292479 1215 L-290031 1220 L-287516 1225 L-284847 1231 L-277147 1236 L-271480 1236 L-269265 1236 L-269242 1236 L-268268 1237 L-268248 1237 L-267384 1237 L-264644 1237 L-258846 1235 L-258692 1235 L-255906 1235 L-242298 1235 L-241552 1235 L-237141 1235 L-220795 1235 L-220563 1235 L-220026 1235 L-211566 1235 L-202861 1235 L-202648 1234 L-200676 1234 L-197890 1234 L-193402 1234 L-193247 1234 L-193078 1234 L-192938 1234 L-192647 1234 L-192609 1234 L-192338 1234 L-192166 1234 L-191756 1234 L-190635 1234 L-189455 1234 L-188178 1234 L-185315 1234 L-182394 1234 L-180402 1234 L-178855 1233 L-175817 1233 L-166492 1233 L-165968 1233 L-160244 1233 L-158737 1233 L-157923 1233 L-156239 1233 L-155518 1233 L-155350 1233 L-154305 1233 L-152237 1233 L-150875 1233 L-146432 1233 L-146335 1233 L-146296 1233 L-146277 1233 L-145445 1232 L-145367 1232 L-142794 1232 L-139545 1232 L-139390 1232 L-138442 1232 L-136701 1232 L-135986 1232 L-132445 1233 L-125867 1233 L-124450 1234 L-124429 1233 L-123479 1233 L-120005 1233 L-119251 1233 L-118690 1233 L-117908 1233 L-110403 1233 L-108805 1233 L-107231 1233 L-104046 1233 L-99713 1233 L-91143 1233 L-82397 1233 L-79323 1233 L-76057 1233 L-75510 1232 L-68373 1232 L-62705 1232 L-48641 1232 L-42630 1232 L-37923 1232 L-33920 1232 L-28813 1232 L-19099 1232 L-3528 1232 L-445 1232 L-143 1203 L-123 1168 L-105 1128 L-85 1083 L-65 1063 L-46 1046 L-27 1030 L0 1014 L20 999 L48 983 L83 966 L97 951 L110 938 L129 927 L147 919 L167 911 L185 903 L205 895 L225 887 L246 878 L263 870 L281 862 L302 854 L322 846 L340 838 L359 829 L379 820 L399 811 L417 803 L436 795 L457 787 L482 779 L497 772 L514 765 L534 757 L553 750 L572 742 L591 734 L611 727 L632 719 L649 712 L668 706 L689 700 L709 694 L727 689 L746 684 L766 679 L784 674 L804 670 L823 666 L843 662 L862 659 L882 656 L900 652 L928 648 L949 644 L976 639 L1010 633 L1025 629 L1038 625 L1056 621 L1075 618 L1095 615 L1114 611 L1133 607 L1153 604 L1174 600 L1191 597 L1210 594 L1230 590 L1250 586 L1269 582 L1287 577 L1307 572 L1327 567 L1346 562 L1365 557 L1386 551 L1410 545 L1425 538 L1442 533 L1462 527 L1481 521 L1501 515 L1519 509 L1540 503 L1560 497 L1578 491 L1597 485 L1617 480 L1637 474 L1655 469 L1674 465 L1694 460 L1713 456 L1733 451 L1751 447 L1771 443 L1791 439 L1810 435 L1829 430 L1858 426 L1877 422 L1905 418 L1942 414 L1958 409 L1970 405 L1987 401 L2004 398 L2024 395 L2042 393 L2062 390 L2082 388 L2102 386 L2120 383 L2138 380 L2159 377 L2179 374 L2197 371 L2216 367 L2236 364 L2255 360 L2274 356 L2293 352 L2314 349 L2339 345 L2353 341 L2370 338 L2391 334 L2409 330 L2429 326 L2448 322 L2468 318 L2488 314 L2507 310 L2525 307 L2546 303 L2566 300 L2584 297 L2603 294 L2623 291 L2641 287 L2661 284 L2680 281 L2700 278 L2719 275 L2739 272 L2758 269 L2786 266 L2806 263 L2834 260 L2870 255 L2884 251 L2897 247 L2915 243 L2933 241 L2953 238 L2971 235 L2991 232 L3011 229 L3032 225 L3050 222 L3067 218 L3088 214 L3108 209 L3126 205 L3145 200 L3165 195 L3185 191 L3203 186 L3222 183 L3243 180 L3268 178 L3283 176 L3300 173 L3319 171 L3339 168 L3358 166 L3377 163 L3397 161 L3418 159 L3435 157 L3454 155 L3475 152 L3495 149 L3512 146 L3531 144 L3552 142 L3570 140 L3590 139 L3609 137 L3629 136 L3648 134 L3667 132 L3686 131 L3714 129 L3734 127 L3762 126 L3797 124 L3811 122 L3824 120 L3843 119 L3861 118 L3881 116 L3900 115 L3919 114 L3939 113 L3960 112 L3977 110 L3996 109 L4016 108 L4036 106 L4054 105 L4073 103 L4093 102 L4113 101 L4132 100 L4150 98 L4172 97 L4197 96 L4211 95 L4228 94 L4248 93 L4267 92 L4286 90 L4305 89 L4325 87 L4346 86 L4364 85 L4383 84 L4403 83 L4424 82 L4441 80 L4460 79 L4480 78 L4499 77 L4519 76 L4537 75 L4557 75 L4577 74 L4596 73 L4615 74 L4643 76 L4663 77 L4691 78 L4728 77 L4744 76 L4756 75 L4774 74 L4790 74 L4810 73 L4828 72 L4848 72 L4868 71 L4889 70 L4906 70 L4924 69 L4945 68 L4965 68 L4983 67 L5002 66 L5022 65 L5042 65 L5060 64 L5079 63 L5100 63 L5125 62 L5139 61 L5157 61 L5176 60 L5196 59 L5215 58 L5234 58 L5254 57 L5275 56 L5292 55 L5311 54 L5332 53 L5352 52 L5370 51 L5389 50 L5409 49 L5427 48 L5447 47 L5466 46 L5486 45 L5505 44 L5525 44 L5543 43 L5571 42 L5592 41 L5619 41 L5654 40 L5668 39 L5681 38 L5700 37 L5719 36 L5739 36 L5757 35 L5776 34 L5796 33 L5817 33 L5834 32 L5853 31 L5873 30 L5893 29 L5912 28 L5930 27 L5950 26 L5971 24 L5989 23 L6007 22 L6029 21 L6054 20 L6069 19 L6086 18 L6105 17 L6125 16 L6144 14 L6163 13 L6183 12 L6203 11 L6221 10 L6240 9 L6260 8 L6281 7 L6298 6 L6317 6 L6337 5 L6356 4 L6376 4 L6394 3 L6414 2 L6434 2 L6453 1 L6472 1 L6500 0" />
</svg>
