<svg xmlns="http://www.w3.org/2000/svg" version="1.1" viewBox="0 0 6500 1000">
	<path fill="none" stroke="gold" stroke-width="125" stroke-linecap="round" stroke-linejoin="round" d="M0 21659  L-264705 21659 L-262101 21572 L-260433 21484 L-242104 21309 L-241933 21134 L-234776 20958 L-234743 20958 L-221312 20871 L-218390 20958 L-205049 20695 L-200880 20345 L-199720 19907 L-199101 19468 L-197089 19205 L-193317 19030 L-192717 18855 L-192388 18680 L-192175 18504 L-191634 18329 L-190396 17628 L-189217 16927 L-186352 16226 L-185830 15524 L-180974 15349 L-178037 15174 L-177994 14999 L-177686 14823 L-177434 14648 L-174839 14473 L-170584 14473 L-170566 14473 L-169329 14473 L-167451 14473 L-165498 14297 L-164550 14122 L-164279 13947 L-163969 13859 L-163871 13772 L-163041 13772 L-161010 13859 L-160720 13070 L-158573 12720 L-158418 12194 L-154761 11668 L-154510 11931 L-154412 11843 L-153895 12106 L-151744 12545 L-150815 12983 L-149289 13421 L-148049 13421 L-146503 13333 L-143541 13158 L-142419 12983 L-142110 12808 L-140899 12720 L-137892 13684 L-137872 13596 L-137525 13509 L-137312 13421 L-137186 12194 L-136944 12019 L-136906 11843 L-136887 11668 L-136867 11493 L-136808 11318 L-136750 11142 L-136732 10967 L-136289 10792 L-135049 10617 L-133503 10441 L-130116 10266 L-124389 10178 L-124188 10091 L-122552 10003 L-120830 9915 L-119398 9828 L-119166 9740 L-118450 9652 L-112318 9565 L-111950 9390 L-111796 9214 L-111218 9039 L-110925 8864 L-109958 8688 L-109648 8513 L-109049 8338 L-107443 8338 L-106708 8338 L-106398 8425 L-105630 8425 L-103594 8250 L-103168 8075 L-102356 7987 L-94927 7812 L-94404 7637 L-94231 7461 L-93496 7286 L-91928 7111 L-91522 7023 L-89297 6848 L-88349 6760 L-87924 6673 L-87594 6673 L-86550 6585 L-84442 6410 L-84190 6234 L-83571 6059 L-82758 5971 L-80650 5796 L-80602 5621 L-78674 5446 L-78348 5270 L-78213 5095 L-77710 5007 L-76297 4832 L-75794 4482 L-75272 4219 L-71713 3868 L-70978 3517 L-68553 3517 L-67263 3342 L-66857 3255 L-63704 3255 L-63549 3255 L-63529 3342 L-63162 3342 L-61904 3430 L-61189 3517 L-60299 3517 L-59892 3517 L-58964 3517 L-57855 3430 L-57552 3780 L-51303 3956 L-50356 4131 L-48729 4306 L-48228 4394 L-44552 4482 L-43720 4569 L-39767 4657 L-38355 4394 L-35865 4219 L-35189 4043 L-35150 3956 L-34279 3956 L-31068 3868 L-28205 3780 L-27237 3693 L-26116 3517 L-26097 3342 L-24472 3167 L-24007 2904 L-23916 2816 L-17546 2729 L-16598 2641 L-14141 2553 L-13268 2378 L-12032 2290 L-10031 2203 L-9634 2028 L-8197 1852 L-6171 1765 L-5958 1589 L-4778 1502 L-3269 1414 L-3249 1326 L-1237 1239 L-368 1063 L502 976 L1087 801 L1624 625 L2282 450 L3520 275 L4081 187 L5262 99 L6500 12" />
</svg>
