<svg xmlns="http://www.w3.org/2000/svg" version="1.1" viewBox="0 0 6500 1000">
	<path fill="none" stroke="gold" stroke-width="125" stroke-linecap="round" stroke-linejoin="round" d="M0 3366  L-727394 3366 L-724790 3366 L-723122 3366 L-704792 3366 L-704622 3365 L-697464 3365 L-697431 3365 L-684000 3365 L-681078 3365 L-667737 3365 L-663568 3364 L-662408 3363 L-661789 3363 L-659777 3362 L-656006 3362 L-655406 3362 L-655077 3361 L-654864 3361 L-654322 3361 L-653084 3360 L-651905 3358 L-649041 3357 L-648519 3356 L-643663 3356 L-640726 3355 L-640683 3355 L-640375 3355 L-640123 3355 L-637528 3354 L-633272 3354 L-633254 3354 L-632017 3354 L-630140 3354 L-628187 3354 L-627239 3354 L-626968 3353 L-626658 3353 L-626560 3353 L-625729 3353 L-623699 3353 L-623408 3352 L-621262 3351 L-621106 3350 L-617450 3350 L-617199 3350 L-617100 3350 L-616583 3350 L-614432 3351 L-613503 3352 L-611977 3352 L-610738 3352 L-609191 3352 L-606230 3352 L-605108 3352 L-604798 3351 L-603587 3351 L-600581 3353 L-600561 3353 L-600214 3353 L-600000 3352 L-599874 3350 L-599633 3350 L-599595 3350 L-599575 3350 L-599556 3349 L-599497 3349 L-599438 3349 L-599420 3348 L-598977 3348 L-597738 3348 L-596192 3347 L-592804 3347 L-587078 3347 L-586876 3347 L-585241 3347 L-583519 3347 L-582087 3346 L-581854 3346 L-581139 3346 L-575007 3346 L-574639 3346 L-574485 3345 L-573906 3345 L-573614 3345 L-572646 3345 L-572337 3344 L-571738 3344 L-570131 3344 L-569396 3344 L-569087 3344 L-568318 3344 L-566282 3344 L-565857 3343 L-565044 3343 L-557616 3343 L-557093 3343 L-556919 3342 L-556184 3342 L-554616 3342 L-554211 3342 L-551986 3341 L-551038 3341 L-550613 3341 L-550283 3341 L-549239 3341 L-547131 3341 L-546878 3340 L-546260 3340 L-545447 3340 L-543339 3340 L-543291 3339 L-541362 3339 L-541037 3339 L-540902 3338 L-540398 3338 L-538986 3338 L-538483 3337 L-537961 3337 L-534401 3336 L-533666 3336 L-531241 3336 L-529952 3336 L-529545 3335 L-526393 3335 L-526238 3335 L-526217 3336 L-525851 3336 L-524593 3336 L-523878 3336 L-522988 3336 L-522581 3336 L-521652 3336 L-520544 3336 L-520240 3336 L-513992 3337 L-513044 3337 L-511418 3337 L-510916 3337 L-507241 3337 L-506408 3338 L-502455 3338 L-501043 3337 L-498554 3337 L-497878 3337 L-497839 3337 L-496968 3337 L-493757 3336 L-490894 3336 L-489926 3336 L-488804 3336 L-488785 3336 L-487160 3335 L-486696 3335 L-486604 3335 L-480235 3335 L-479286 3334 L-476829 3334 L-475957 3334 L-474721 3334 L-472720 3334 L-472322 3333 L-470886 3333 L-468860 3333 L-468646 3333 L-467466 3332 L-465958 3332 L-465938 3332 L-463926 3332 L-463056 3332 L-462185 3332 L-461600 3331 L-461063 3331 L-460405 3331 L-459167 3330 L-458607 3330 L-457426 3330 L-456188 3330 L-456150 3330 L-455763 3330 L-455221 3329 L-454447 3329 L-453325 3329 L-451236 3329 L-450902 3328 L-450617 3328 L-449688 3328 L-449205 3328 L-448469 3328 L-444838 3327 L-443711 3327 L-443556 3327 L-442530 3327 L-438815 3327 L-437598 3326 L-435779 3326 L-432994 3326 L-432432 3326 L-428544 3326 L-426068 3326 L-424733 3326 L-424229 3325 L-423746 3325 L-421057 3325 L-417285 3325 L-414828 3325 L-413648 3325 L-413009 3325 L-410650 3325 L-410572 3325 L-409525 3325 L-409431 3324 L-408928 3324 L-408483 3324 L-408425 3324 L-408211 3324 L-405252 3324 L-402544 3324 L-402389 3324 L-398869 3323 L-398346 3323 L-397378 3323 L-397029 3323 L-395986 3322 L-395057 3322 L-394631 3322 L-393122 3322 L-392156 3322 L-392137 3322 L-390241 3311 L-390125 3300 L-390077 3289 L-390052 3278 L-387048 3278 L-385017 3278 L-383257 3278 L-382890 3277 L-382444 3277 L-382077 3277 L-381663 3277 L-379678 3277 L-379465 3277 L-379310 3276 L-377705 3276 L-376583 3276 L-375635 3276 L-374377 3276 L-372733 3276 L-371553 3275 L-364964 3275 L-364917 3275 L-364511 3275 L-363466 3275 L-363331 3275 L-361648 3274 L-361628 3274 L-360292 3274 L-359055 3274 L-358901 3274 L-358527 3273 L-358321 3273 L-358012 3273 L-357238 3273 L-354916 3273 L-354258 3272 L-352131 3272 L-350408 3272 L-350215 3272 L-347661 3272 L-347385 3271 L-347197 3271 L-346364 3271 L-345592 3271 L-344894 3271 L-339893 3271 L-339517 3270 L-335265 3270 L-334777 3285 L-334758 3285 L-334679 3285 L-334604 3285 L-334584 3270 L-333771 3269 L-333018 3269 L-331798 3269 L-330366 3269 L-330270 3269 L-330096 3269 L-329741 3269 L-328432 3268 L-326575 3268 L-324872 3268 L-324370 3268 L-324104 3268 L-323711 3267 L-323577 3267 L-322667 3267 L-322291 3267 L-321362 3267 L-321023 3267 L-320984 3267 L-320946 3267 L-319030 3267 L-318857 3267 L-317328 3267 L-317000 3266 L-316884 3266 L-316477 3266 L-316128 3266 L-314485 3266 L-313934 3265 L-313691 3265 L-313149 3265 L-312318 3265 L-311776 3265 L-310242 3264 L-310150 3264 L-310113 3264 L-309977 3264 L-309589 3264 L-308565 3264 L-306688 3264 L-306592 3263 L-305992 3268 L-305625 3273 L-305140 3278 L-305102 3283 L-304328 3284 L-304271 3283 L-304096 3283 L-303903 3283 L-302297 3283 L-302277 3282 L-302122 3283 L-302007 3283 L-300827 3283 L-300672 3284 L-300005 3284 L-297557 3296 L-295042 3308 L-292372 3320 L-284673 3332 L-279006 3332 L-276791 3332 L-276768 3332 L-275794 3335 L-275774 3335 L-274910 3334 L-272170 3334 L-266371 3331 L-266218 3331 L-263432 3331 L-249824 3330 L-249078 3330 L-244667 3330 L-228321 3330 L-228089 3329 L-227552 3329 L-219092 3329 L-210387 3329 L-210174 3329 L-208202 3329 L-205416 3329 L-200928 3329 L-200773 3329 L-200604 3329 L-200464 3328 L-200173 3328 L-200135 3328 L-199864 3328 L-199692 3328 L-199282 3328 L-198161 3327 L-196981 3327 L-195704 3327 L-192840 3327 L-189920 3327 L-187928 3327 L-186380 3326 L-183343 3326 L-174018 3326 L-173494 3326 L-167770 3326 L-166263 3326 L-165449 3326 L-163765 3326 L-163044 3325 L-162876 3325 L-161830 3325 L-159763 3325 L-158401 3325 L-153958 3325 L-153861 3325 L-153822 3324 L-153803 3324 L-152971 3324 L-152893 3324 L-150320 3324 L-147071 3323 L-146916 3323 L-145968 3323 L-144227 3323 L-143511 3324 L-139971 3325 L-133393 3325 L-131976 3327 L-131955 3326 L-131005 3326 L-127530 3326 L-126777 3326 L-126216 3326 L-125433 3326 L-117929 3325 L-116331 3325 L-114757 3325 L-111572 3325 L-107239 3325 L-98669 3325 L-89923 3325 L-86849 3325 L-83583 3324 L-83036 3324 L-75899 3324 L-70231 3324 L-56167 3324 L-50155 3324 L-45449 3324 L-41446 3324 L-36338 3323 L-26624 3323 L-11054 3323 L-7971 3323 L-7669 3257 L-7649 3175 L-7630 3083 L-7611 2979 L-7591 2932 L-7572 2892 L-7553 2856 L-7526 2819 L-7505 2785 L-7477 2747 L-7442 2707 L-7428 2672 L-7415 2642 L-7396 2617 L-7378 2599 L-7358 2581 L-7340 2562 L-7320 2543 L-7300 2524 L-7279 2505 L-7262 2486 L-7244 2467 L-7223 2449 L-7203 2431 L-7185 2411 L-7166 2391 L-7146 2370 L-7126 2350 L-7108 2330 L-7089 2311 L-7068 2293 L-7043 2275 L-7028 2258 L-7011 2241 L-6991 2224 L-6972 2208 L-6953 2189 L-6934 2171 L-6914 2153 L-6893 2137 L-6875 2121 L-6857 2106 L-6836 2091 L-6815 2078 L-6798 2066 L-6779 2055 L-6759 2044 L-6740 2033 L-6721 2023 L-6702 2013 L-6682 2005 L-6662 1997 L-6643 1990 L-6625 1982 L-6597 1972 L-6576 1962 L-6549 1950 L-6515 1937 L-6500 1927 L-6487 1918 L-6469 1910 L-6450 1903 L-6430 1895 L-6411 1886 L-6392 1878 L-6372 1869 L-6351 1861 L-6334 1854 L-6315 1846 L-6295 1838 L-6275 1829 L-6256 1818 L-6238 1807 L-6218 1796 L-6198 1784 L-6179 1772 L-6160 1760 L-6139 1747 L-6115 1733 L-6100 1718 L-6083 1705 L-6063 1692 L-6044 1678 L-6024 1664 L-6006 1649 L-5985 1635 L-5965 1622 L-5947 1608 L-5928 1595 L-5908 1583 L-5887 1570 L-5870 1558 L-5851 1547 L-5831 1536 L-5812 1527 L-5792 1517 L-5773 1507 L-5754 1498 L-5734 1488 L-5715 1478 L-5696 1468 L-5667 1458 L-5647 1450 L-5620 1440 L-5582 1429 L-5567 1419 L-5555 1409 L-5538 1400 L-5521 1393 L-5501 1387 L-5482 1381 L-5463 1375 L-5443 1370 L-5423 1364 L-5405 1358 L-5387 1352 L-5366 1345 L-5346 1338 L-5328 1330 L-5309 1323 L-5289 1314 L-5269 1305 L-5251 1296 L-5232 1288 L-5211 1280 L-5186 1271 L-5172 1262 L-5154 1254 L-5134 1245 L-5115 1236 L-5096 1227 L-5077 1218 L-5057 1208 L-5037 1199 L-5018 1190 L-5000 1182 L-4979 1174 L-4959 1167 L-4941 1160 L-4922 1152 L-4902 1145 L-4884 1137 L-4864 1130 L-4845 1123 L-4825 1116 L-4806 1109 L-4786 1103 L-4767 1096 L-4739 1089 L-4719 1082 L-4691 1074 L-4655 1063 L-4641 1053 L-4628 1043 L-4610 1035 L-4592 1029 L-4572 1024 L-4554 1017 L-4534 1010 L-4514 1002 L-4493 994 L-4475 985 L-4458 977 L-4437 967 L-4417 957 L-4399 946 L-4380 935 L-4360 924 L-4340 913 L-4322 904 L-4303 896 L-4282 889 L-4257 884 L-4242 879 L-4225 873 L-4206 868 L-4186 862 L-4167 856 L-4148 850 L-4128 845 L-4107 841 L-4090 836 L-4071 831 L-4050 825 L-4030 817 L-4013 810 L-3994 805 L-3973 800 L-3955 797 L-3935 794 L-3916 790 L-3896 787 L-3877 782 L-3858 778 L-3839 775 L-3811 771 L-3790 767 L-3763 763 L-3728 758 L-3714 754 L-3701 751 L-3682 747 L-3664 745 L-3644 742 L-3625 739 L-3606 736 L-3586 733 L-3565 731 L-3548 728 L-3529 725 L-3509 721 L-3489 718 L-3471 714 L-3452 711 L-3432 709 L-3412 706 L-3393 703 L-3375 700 L-3353 697 L-3328 695 L-3314 692 L-3297 690 L-3277 687 L-3258 684 L-3238 681 L-3219 678 L-3200 675 L-3179 672 L-3161 669 L-3142 666 L-3122 664 L-3101 661 L-3084 659 L-3065 656 L-3045 653 L-3026 651 L-3006 649 L-2988 647 L-2968 645 L-2948 643 L-2929 641 L-2910 644 L-2881 647 L-2862 650 L-2834 653 L-2796 650 L-2781 648 L-2769 646 L-2751 645 L-2735 643 L-2715 642 L-2697 640 L-2677 638 L-2657 636 L-2636 635 L-2619 634 L-2601 632 L-2580 631 L-2560 629 L-2542 627 L-2523 625 L-2503 624 L-2483 622 L-2465 620 L-2446 619 L-2425 617 L-2400 616 L-2385 614 L-2368 613 L-2349 611 L-2329 609 L-2310 608 L-2291 606 L-2271 604 L-2250 601 L-2233 599 L-2214 596 L-2193 594 L-2173 592 L-2155 590 L-2136 588 L-2116 586 L-2098 584 L-2078 582 L-2059 580 L-2039 577 L-2020 575 L-2000 574 L-1982 572 L-1954 570 L-1933 568 L-1905 566 L-1871 564 L-1857 562 L-1844 560 L-1825 558 L-1806 556 L-1786 555 L-1768 553 L-1749 551 L-1729 549 L-1708 548 L-1691 546 L-1672 544 L-1651 542 L-1632 540 L-1613 537 L-1595 535 L-1575 532 L-1554 529 L-1536 526 L-1517 524 L-1496 522 L-1471 519 L-1456 516 L-1439 513 L-1420 511 L-1400 508 L-1381 506 L-1362 503 L-1342 501 L-1321 498 L-1304 496 L-1285 493 L-1264 491 L-1244 489 L-1227 487 L-1208 485 L-1188 484 L-1169 482 L-1149 481 L-1130 479 L-1111 478 L-1091 477 L-1072 475 L-1053 474 L-1025 473 L-1005 471 L-977 470 L-941 467 L-928 464 L-915 462 L-896 459 L-878 458 L-858 456 L-840 455 L-820 453 L-800 452 L-779 450 L-762 448 L-744 446 L-723 444 L-703 442 L-685 440 L-666 438 L-646 435 L-626 433 L-608 432 L-589 430 L-567 428 L-543 427 L-528 425 L-511 423 L-491 422 L-472 420 L-453 418 L-434 415 L-414 412 L-393 409 L-376 407 L-356 404 L-336 402 L-315 400 L-298 399 L-279 397 L-259 396 L-240 395 L-221 394 L-202 392 L-182 391 L-162 390 L-143 389 L-125 387 L-97 386 L-76 385 L-49 384 L-14 382 L0 381 L12 380 L31 379 L50 378 L69 377 L88 376 L107 375 L127 374 L148 373 L165 372 L184 371 L204 370 L224 369 L243 368 L261 367 L281 366 L301 365 L320 365 L339 364 L360 363 L384 362 L399 361 L416 360 L436 359 L455 358 L475 357 L494 356 L513 355 L534 353 L552 351 L571 349 L591 347 L612 345 L629 344 L648 342 L668 341 L687 340 L707 338 L726 337 L746 336 L765 334 L784 333 L803 333 L832 332 L879 331 L916 330 L931 328 L944 327 L961 327 L978 326 L998 326 L1017 325 L1036 324 L1056 323 L1076 322 L1094 322 L1112 321 L1133 321 L1152 320 L1171 319 L1190 318 L1210 317 L1230 316 L1248 315 L1267 314 L1288 312 L1313 311 L1328 309 L1345 307 L1365 306 L1384 304 L1403 303 L1422 302 L1442 300 L1463 299 L1481 297 L1500 296 L1520 295 L1540 294 L1558 293 L1577 292 L1597 291 L1616 290 L1635 289 L1654 288 L1674 287 L1693 285 L1713 284 L1732 283 L1760 282 L1780 281 L1808 279 L1845 277 L1859 275 L1872 273 L1890 271 L1907 270 L1927 269 L1945 268 L1965 267 L1985 266 L2006 265 L2023 264 L2041 263 L2062 261 L2082 260 L2100 258 L2119 256 L2139 254 L2160 252 L2177 250 L2196 248 L2217 247 L2242 245 L2257 244 L2275 242 L2293 241 L2314 240 L2332 239 L2351 237 L2371 235 L2392 233 L2409 232 L2429 231 L2449 230 L2470 228 L2487 227 L2506 226 L2525 225 L2544 224 L2564 222 L2583 221 L2603 220 L2623 219 L2642 218 L2660 217 L2688 997 L2709 996 L2736 995 L2772 993 L2786 210 L2800 209 L2818 207 L2835 207 L2855 206 L2874 205 L2893 204 L2913 203 L2934 201 L2951 200 L2970 198 L2991 197 L3011 195 L3029 193 L3048 190 L3067 188 L3088 187 L3106 186 L3124 184 L3146 183 L3171 181 L3186 179 L3215 177 L3255 175 L3278 173 L3308 170 L3324 168 L3338 166 L3357 164 L3377 163 L3398 162 L3415 161 L3434 160 L3454 159 L3473 158 L3493 158 L3511 157 L3531 156 L3551 155 L3570 154 L3589 153 L3617 152 L3637 151 L3665 150 L3700 149 L3714 147 L3746 146 L3764 145 L3784 145 L3802 144 L3822 143 L3842 142 L3863 142 L3880 141 L3898 139 L3919 136 L3939 132 L3957 129 L3976 125 L3996 122 L4016 120 L4034 118 L4053 116 L4075 115 L4100 114 L4114 112 L4132 111 L4150 109 L4170 108 L4189 106 L4209 105 L4228 103 L4249 102 L4266 100 L4286 98 L4306 97 L4327 96 L4344 95 L4363 94 L4383 93 L4402 92 L4421 91 L4440 90 L4460 89 L4480 88 L4499 87 L4517 86 L4545 85 L4566 84 L4636 82 L4664 80 L4678 77 L4692 75 L4713 74 L4731 72 L4750 71 L4770 70 L4791 69 L4808 67 L4827 67 L4848 66 L4868 65 L4886 64 L4905 63 L4925 61 L4945 60 L4963 58 L4982 57 L5003 56 L5028 55 L5043 54 L5060 53 L5079 52 L5099 50 L5118 49 L5137 47 L5157 46 L5178 45 L5195 44 L5214 44 L5234 42 L5256 41 L5272 40 L5330 39 L5350 38 L5368 37 L5388 36 L5409 36 L5427 35 L5446 34 L5474 34 L5494 33 L5522 32 L5559 31 L5573 31 L5586 30 L5603 29 L5621 29 L5641 28 L5659 28 L5679 27 L5699 27 L5720 27 L5737 26 L5755 26 L5776 25 L5796 25 L5814 24 L5833 23 L5853 22 L5874 21 L5891 20 L5910 20 L5932 19 L5957 18 L5971 18 L5988 17 L6008 16 L6028 16 L6046 15 L6066 14 L6085 13 L6107 11 L6123 10 L6143 10 L6163 9 L6184 9 L6201 8 L6220 8 L6240 7 L6259 6 L6278 6 L6297 6 L6317 5 L6337 5 L6356 5 L6374 4 L6402 4 L6423 3 L6451 3 L6486 2 L6500 1" />
</svg>
