<svg xmlns="http://www.w3.org/2000/svg" version="1.1" viewBox="0 0 6500 1000">
	<path fill="none" stroke="gold" stroke-width="125" stroke-linecap="round" stroke-linejoin="round" d="M0 1027  L-714733 1027 L-712129 1027 L-710461 1027 L-692131 1027 L-691961 1027 L-684803 1026 L-684770 1026 L-671339 1026 L-668418 1026 L-655077 1026 L-650908 1026 L-649748 1025 L-649129 1025 L-647117 1024 L-643345 1024 L-642745 1024 L-642416 1024 L-642203 1024 L-641661 1024 L-640423 1023 L-639244 1022 L-636380 1021 L-635858 1021 L-631002 1020 L-628065 1020 L-628022 1020 L-627714 1020 L-627462 1020 L-624867 1019 L-620611 1019 L-620594 1019 L-619357 1019 L-617479 1019 L-615526 1019 L-614578 1019 L-614307 1019 L-613997 1019 L-613899 1019 L-613069 1019 L-611038 1019 L-610747 1018 L-608601 1018 L-608446 1017 L-604789 1016 L-604538 1017 L-604440 1017 L-603923 1017 L-601771 1017 L-600843 1018 L-599317 1018 L-598077 1018 L-596531 1018 L-593569 1018 L-592447 1018 L-592138 1018 L-590926 1018 L-587920 1019 L-587900 1018 L-587553 1018 L-587340 1018 L-587213 1017 L-586972 1017 L-586934 1017 L-586914 1016 L-586895 1016 L-586836 1016 L-586777 1016 L-586759 1016 L-586316 1015 L-585077 1015 L-583531 1015 L-580144 1015 L-574417 1015 L-574216 1015 L-572580 1015 L-570858 1015 L-569426 1014 L-569193 1014 L-568478 1014 L-562346 1014 L-561978 1014 L-561824 1014 L-561245 1014 L-560953 1013 L-559986 1013 L-559676 1013 L-559077 1013 L-557471 1013 L-556736 1013 L-556426 1013 L-555658 1013 L-553621 1013 L-553196 1013 L-552384 1012 L-544955 1012 L-544432 1012 L-544258 1012 L-543523 1012 L-541956 1012 L-541550 1011 L-539325 1011 L-538377 1011 L-537952 1011 L-537622 1011 L-536578 1011 L-534470 1011 L-534218 1011 L-533599 1010 L-532786 1010 L-530678 1010 L-530630 1010 L-528702 1010 L-528376 1010 L-528241 1009 L-527738 1009 L-526325 1009 L-525822 1009 L-525300 1008 L-521741 1008 L-521005 1008 L-518581 1008 L-517291 1007 L-516884 1007 L-513732 1007 L-513577 1007 L-513557 1007 L-513190 1007 L-511932 1008 L-511217 1008 L-510327 1008 L-509920 1008 L-508991 1008 L-507883 1008 L-507580 1008 L-501331 1008 L-500383 1008 L-498757 1008 L-498255 1009 L-494580 1009 L-493747 1009 L-489794 1009 L-488382 1009 L-485893 1008 L-485217 1008 L-485178 1008 L-484307 1008 L-481096 1008 L-478233 1008 L-477265 1008 L-476143 1008 L-476124 1007 L-474499 1007 L-474035 1007 L-473943 1007 L-467574 1007 L-466626 1007 L-464169 1007 L-463296 1006 L-462060 1006 L-460059 1006 L-459661 1006 L-458225 1006 L-456199 1006 L-455986 1006 L-454806 1005 L-453297 1005 L-453277 1005 L-451265 1005 L-450395 1005 L-449524 1005 L-448940 1005 L-448402 1005 L-447745 1004 L-446506 1004 L-445946 1004 L-444765 1004 L-443527 1004 L-443489 1004 L-443102 1004 L-442560 1004 L-441786 1003 L-440664 1003 L-438575 1003 L-438242 1003 L-437956 1003 L-437027 1003 L-436544 1002 L-435809 1002 L-432177 1002 L-431050 1002 L-430895 1002 L-429869 1002 L-426154 1002 L-424937 1002 L-423119 1001 L-420333 1001 L-419771 1001 L-415883 1001 L-413407 1001 L-412072 1001 L-411569 1001 L-411085 1001 L-408396 1001 L-404625 1001 L-402167 1001 L-400988 1001 L-400348 1001 L-397989 1001 L-397911 1001 L-396864 1000 L-396770 1000 L-396267 1000 L-395822 1000 L-395764 1000 L-395551 1000 L-392591 1000 L-389883 1000 L-389729 1000 L-386208 1000 L-385685 1000 L-384718 999 L-384369 999 L-383325 999 L-382396 999 L-381971 999 L-380462 999 L-379495 999 L-379476 999 L-377580 992 L-377464 985 L-377416 978 L-377392 971 L-374387 971 L-372357 971 L-370596 970 L-370229 970 L-369783 970 L-369416 970 L-369002 970 L-367017 970 L-366804 970 L-366649 970 L-365044 970 L-363922 970 L-362974 969 L-361717 969 L-360072 969 L-358892 969 L-352303 969 L-352256 969 L-351851 969 L-350805 969 L-350670 969 L-348988 968 L-348968 968 L-347631 968 L-346395 968 L-346240 968 L-345866 968 L-345660 968 L-345351 967 L-344577 967 L-342255 967 L-341598 967 L-339470 967 L-337747 967 L-337554 967 L-335001 967 L-334724 966 L-334536 966 L-333704 966 L-332931 966 L-332233 966 L-327233 966 L-326857 966 L-322604 966 L-322117 975 L-322097 975 L-322018 975 L-321943 975 L-321923 965 L-321110 965 L-320357 965 L-319138 965 L-317706 965 L-317609 965 L-317435 965 L-317081 965 L-315771 964 L-313914 964 L-312212 964 L-311709 964 L-311444 964 L-311050 964 L-310916 964 L-310006 964 L-309630 964 L-308701 964 L-308362 964 L-308323 964 L-308285 963 L-306370 963 L-306196 963 L-304667 963 L-304339 963 L-304223 963 L-303816 963 L-303468 963 L-301824 963 L-301273 963 L-301030 963 L-300489 962 L-299657 962 L-299116 962 L-297581 962 L-297489 962 L-297452 962 L-297316 962 L-296929 962 L-295904 961 L-294027 961 L-293931 961 L-293331 964 L-292964 967 L-292479 971 L-292441 974 L-291667 974 L-291610 974 L-291435 974 L-291242 974 L-289636 974 L-289616 974 L-289461 974 L-289346 974 L-288166 974 L-288011 974 L-287345 974 L-284896 982 L-282381 990 L-279712 997 L-272012 1005 L-266345 1005 L-264130 1005 L-264107 1005 L-263133 1007 L-263113 1007 L-262249 1007 L-259509 1007 L-253711 1005 L-253557 1004 L-250771 1004 L-237163 1004 L-236417 1004 L-232006 1004 L-215660 1004 L-215428 1004 L-214891 1003 L-206432 1003 L-197726 1003 L-197514 1003 L-195541 1003 L-192755 1003 L-188267 1003 L-188113 1003 L-187944 1003 L-187803 1003 L-187512 1003 L-187474 1003 L-187203 1003 L-187031 1002 L-186621 1002 L-185501 1002 L-184320 1002 L-183044 1002 L-180180 1002 L-177259 1002 L-175267 1002 L-173720 1002 L-170682 1002 L-161357 1001 L-160833 1001 L-155110 1001 L-153603 1001 L-152788 1001 L-151104 1001 L-150383 1001 L-150215 1001 L-149170 1001 L-147102 1001 L-145740 1001 L-141297 1001 L-141200 1000 L-141161 1000 L-141142 1000 L-140310 1000 L-140232 1000 L-137660 1000 L-134410 1000 L-134255 1000 L-133307 1000 L-131566 999 L-130851 1000 L-127310 1000 L-120733 1001 L-119315 1002 L-119295 1002 L-118344 1002 L-114870 1001 L-114116 1001 L-113555 1001 L-112773 1001 L-105269 1001 L-103670 1001 L-102096 1001 L-98911 1001 L-94578 1001 L-86008 1001 L-77262 1001 L-74188 1000 L-70922 1000 L-70375 1000 L-63238 1000 L-57570 1000 L-43506 1000 L-37495 1000 L-32788 1000 L-28785 1000 L-23678 1000 L-13964 1000 L1606 999 L4689 999 L4991 957 L5011 905 L5029 846 L5049 780 L5069 749 L5088 724 L5107 701 L5134 677 L5155 655 L5183 631 L5218 605 L5232 583 L5245 564 L5263 548 L5282 537 L5302 525 L5320 513 L5340 501 L5360 489 L5381 476 L5398 464 L5416 452 L5437 440 L5457 429 L5475 416 L5494 403 L5514 390 L5534 377 L5552 364 L5571 352 L5592 341 L5617 329 L5632 318 L5649 308 L5668 297 L5688 286 L5707 274 L5726 263 L5746 251 L5766 241 L5784 230 L5803 221 L5824 212 L5844 203 L5861 196 L5880 188 L5900 181 L5919 174 L5939 168 L5958 162 L5978 157 L5997 152 L6017 147 L6035 142 L6063 135 L6084 129 L6111 121 L6145 113 L6160 107 L6173 101 L6191 95 L6210 91 L6230 86 L6249 81 L6268 75 L6288 70 L6309 64 L6326 60 L6345 55 L6365 49 L6385 44 L6403 37 L6422 30 L6442 23 L6462 15 L6481 8 L6500 0" />
</svg>
