<svg xmlns="http://www.w3.org/2000/svg" version="1.1" viewBox="0 0 6500 1000">
	<path fill="none" stroke="gold" stroke-width="125" stroke-linecap="round" stroke-linejoin="round" d="M0 25969  L-139039 25969 L-136435 25778 L-134767 25587 L-116437 25206 L-116267 24824 L-109109 24442 L-109076 24442 L-95645 24251 L-92724 24442 L-79383 23870 L-75214 23106 L-74054 22152 L-73435 21198 L-71423 20625 L-67651 20244 L-67051 19862 L-66722 19480 L-66509 19099 L-65967 18717 L-64729 17190 L-63550 15664 L-60686 14137 L-60164 12610 L-55308 12229 L-52371 11847 L-52328 11465 L-52020 11083 L-51768 10702 L-49173 10320 L-44917 10320 L-44900 10320 L-43663 10320 L-41785 10320 L-39832 9938 L-38884 9557 L-38613 9175 L-38303 8984 L-38205 8793 L-37375 8793 L-35344 8984 L-35053 7267 L-32907 6503 L-32752 5358 L-29095 4213 L-28844 4786 L-28746 4595 L-28229 5167 L-26077 6122 L-25149 7076 L-23623 8030 L-22383 8030 L-20837 7839 L-17875 7458 L-16753 7076 L-16444 6694 L-15232 6503 L-12226 8603 L-12206 8412 L-11859 8221 L-11646 8030 L-11519 5358 L-11278 4977 L-11240 4595 L-11220 4213 L-11201 3832 L-11142 3450 L-11083 3068 L-11065 2687 L-10622 2305 L-9383 1923 L-7837 1541 L-4450 1160 L1276 969 L1477 778 L3113 587 L4835 396 L6267 206 L6500 15" />
</svg>
