<svg xmlns="http://www.w3.org/2000/svg" version="1.1" viewBox="0 0 6500 1000">
	<path fill="none" stroke="gold" stroke-width="125" stroke-linecap="round" stroke-linejoin="round" d="M0 1017  L-716881 1017 L-714277 1017 L-712609 1017 L-694279 1017 L-694109 1016 L-686951 1016 L-686918 1016 L-673487 1016 L-670565 1016 L-657224 1016 L-653055 1016 L-651895 1016 L-651276 1015 L-649264 1015 L-645493 1015 L-644892 1015 L-644564 1015 L-644351 1015 L-643809 1015 L-642571 1014 L-641392 1014 L-638528 1013 L-638005 1013 L-633150 1013 L-630213 1012 L-630170 1012 L-629861 1012 L-629610 1012 L-627015 1012 L-622759 1012 L-622741 1012 L-621504 1012 L-619627 1012 L-617673 1012 L-616725 1012 L-616455 1012 L-616145 1012 L-616047 1012 L-615216 1012 L-613186 1012 L-612895 1011 L-610749 1011 L-610593 1010 L-606937 1010 L-606686 1010 L-606587 1010 L-606070 1010 L-603919 1011 L-602990 1011 L-601464 1011 L-600225 1011 L-598678 1011 L-595716 1011 L-594595 1011 L-594285 1011 L-593074 1011 L-590067 1011 L-590048 1011 L-589700 1011 L-589487 1011 L-589361 1010 L-589120 1010 L-589082 1010 L-589062 1010 L-589043 1010 L-588984 1010 L-588925 1010 L-588907 1010 L-588464 1010 L-587225 1009 L-585679 1009 L-582291 1009 L-576565 1009 L-576363 1009 L-574728 1009 L-573006 1009 L-571574 1009 L-571341 1009 L-570626 1009 L-564494 1009 L-564126 1009 L-563972 1008 L-563393 1008 L-563101 1008 L-562133 1008 L-561824 1008 L-561225 1008 L-559618 1008 L-558883 1008 L-558573 1008 L-557805 1008 L-555769 1008 L-555344 1008 L-554531 1008 L-547103 1008 L-546580 1007 L-546406 1007 L-545671 1007 L-544103 1007 L-543698 1007 L-541473 1007 L-540525 1007 L-540100 1007 L-539769 1007 L-538726 1007 L-536618 1007 L-536365 1006 L-535746 1006 L-534934 1006 L-532826 1006 L-532777 1006 L-530849 1006 L-530523 1006 L-530388 1006 L-529885 1006 L-528473 1006 L-527970 1005 L-527448 1005 L-523888 1005 L-523153 1005 L-520728 1005 L-519439 1005 L-519032 1005 L-515879 1005 L-515725 1005 L-515704 1005 L-515338 1005 L-514080 1005 L-513365 1005 L-512475 1005 L-512068 1005 L-511139 1005 L-510031 1005 L-509727 1005 L-503478 1005 L-502531 1005 L-500905 1005 L-500403 1005 L-496727 1005 L-495895 1005 L-491942 1005 L-490530 1005 L-488041 1005 L-487364 1005 L-487326 1005 L-486455 1005 L-483244 1005 L-480381 1005 L-479413 1005 L-478291 1005 L-478272 1005 L-476647 1004 L-476183 1004 L-476091 1004 L-469722 1004 L-468773 1004 L-466316 1004 L-465444 1004 L-464208 1004 L-462207 1004 L-461809 1004 L-460373 1004 L-458347 1004 L-458133 1003 L-456953 1003 L-455445 1003 L-455425 1003 L-453412 1003 L-452543 1003 L-451672 1003 L-451087 1003 L-450550 1003 L-449892 1003 L-448654 1003 L-448094 1002 L-446912 1002 L-445675 1002 L-445636 1002 L-445249 1002 L-444708 1002 L-443934 1002 L-442812 1002 L-440723 1002 L-440389 1002 L-440103 1002 L-439175 1002 L-438692 1001 L-437956 1001 L-434325 1001 L-433197 1001 L-433043 1001 L-432017 1001 L-428302 1001 L-427085 1001 L-425266 1001 L-422480 1001 L-421919 1001 L-418031 1001 L-415555 1001 L-414220 1001 L-413716 1001 L-413233 1000 L-410544 1000 L-406772 1000 L-404315 1000 L-403135 1000 L-402496 1000 L-400136 1000 L-400059 1000 L-399012 1000 L-398918 1000 L-398415 1000 L-397970 1000 L-397912 1000 L-397698 1000 L-394739 1000 L-392031 1000 L-391876 1000 L-388356 1000 L-387833 1000 L-386865 1000 L-386516 999 L-385473 999 L-384544 999 L-384118 999 L-382609 999 L-381642 999 L-381623 999 L-379727 995 L-379611 990 L-379564 986 L-379539 982 L-376535 982 L-374504 982 L-372743 982 L-372376 981 L-371931 981 L-371564 981 L-371150 981 L-369165 981 L-368952 981 L-368797 981 L-367192 981 L-366070 981 L-365122 981 L-363864 981 L-362220 981 L-361040 981 L-354451 981 L-354404 981 L-353998 980 L-352953 980 L-352818 980 L-351135 980 L-351115 980 L-349778 980 L-348542 980 L-348388 980 L-348014 980 L-347808 980 L-347498 980 L-346725 980 L-344403 980 L-343745 979 L-341618 979 L-339895 979 L-339702 979 L-337148 979 L-336872 979 L-336684 979 L-335851 979 L-335079 979 L-334381 979 L-329380 979 L-329004 979 L-324751 979 L-324264 984 L-324245 984 L-324166 984 L-324091 984 L-324071 978 L-323258 978 L-322504 978 L-321285 978 L-319853 978 L-319757 978 L-319583 978 L-319228 978 L-317919 978 L-316062 978 L-314359 978 L-313857 978 L-313591 978 L-313198 977 L-313064 977 L-312154 977 L-311778 977 L-310849 977 L-310510 977 L-310470 977 L-310433 977 L-308517 977 L-308344 977 L-306815 977 L-306487 977 L-306371 977 L-305963 977 L-305615 977 L-303972 977 L-303421 977 L-303178 977 L-302636 977 L-301805 976 L-301263 976 L-299729 976 L-299636 976 L-299600 976 L-299464 976 L-299076 976 L-298052 976 L-296175 976 L-296079 976 L-295479 978 L-295111 980 L-294627 982 L-294589 984 L-293815 984 L-293757 984 L-293583 984 L-293389 984 L-291784 984 L-291764 983 L-291609 984 L-291494 984 L-290314 984 L-290159 984 L-289492 984 L-287044 989 L-284529 994 L-281859 998 L-274160 1003 L-268492 1003 L-266278 1003 L-266255 1003 L-265281 1004 L-265261 1004 L-264397 1004 L-261657 1004 L-255858 1003 L-255705 1003 L-252919 1003 L-239311 1002 L-238565 1002 L-234154 1002 L-217808 1002 L-217576 1002 L-217039 1002 L-208579 1002 L-199874 1002 L-199661 1002 L-197689 1002 L-194903 1002 L-190415 1002 L-190260 1002 L-190091 1002 L-189951 1002 L-189660 1002 L-189621 1002 L-189351 1002 L-189179 1001 L-188769 1001 L-187648 1001 L-186468 1001 L-185191 1001 L-182327 1001 L-179407 1001 L-177415 1001 L-175867 1001 L-172829 1001 L-163505 1001 L-162981 1001 L-157257 1001 L-155750 1001 L-154936 1001 L-153252 1001 L-152531 1001 L-152362 1000 L-151317 1000 L-149250 1000 L-147888 1000 L-143445 1000 L-143347 1000 L-143309 1000 L-143290 1000 L-142457 1000 L-142380 1000 L-139807 1000 L-136558 1000 L-136403 1000 L-135455 1000 L-133714 1000 L-132998 1000 L-129458 1000 L-122880 1001 L-121463 1001 L-121442 1001 L-120492 1001 L-117017 1001 L-116264 1001 L-115702 1001 L-114920 1001 L-107416 1001 L-105818 1000 L-104244 1000 L-101059 1000 L-96725 1000 L-88156 1000 L-79409 1000 L-76336 1000 L-73070 1000 L-72523 1000 L-65386 1000 L-59718 1000 L-45654 1000 L-39642 1000 L-34936 1000 L-30933 1000 L-25825 1000 L-16111 1000 L-541 1000 L2541 999 L2843 973 L2863 941 L2882 904 L2901 863 L2921 844 L2940 828 L2959 814 L2987 799 L3007 785 L3035 771 L3071 754 L3084 741 L3097 729 L3116 719 L3134 712 L3154 704 L3172 697 L3192 689 L3212 682 L3233 674 L3250 666 L3268 659 L3289 652 L3309 645 L3327 637 L3346 629 L3366 620 L3386 612 L3404 605 L3423 597 L3445 590 L3469 583 L3484 576 L3501 569 L3521 562 L3540 556 L3559 549 L3578 541 L3598 534 L3619 528 L3637 521 L3656 515 L3676 510 L3697 504 L3714 500 L3733 495 L3753 491 L3772 486 L3791 482 L3810 479 L3830 475 L3850 472 L3869 469 L3888 466 L3915 462 L3936 458 L3964 453 L3998 448 L4012 444 L4025 441 L4044 437 L4063 435 L4083 431 L4101 428 L4120 425 L4140 421 L4161 418 L4178 415 L4197 412 L4217 409 L4237 405 L4256 401 L4274 396 L4294 392 L4314 387 L4333 383 L4352 378 L4373 373 L4397 367 L4412 361 L4429 356 L4449 351 L4468 345 L4488 340 L4507 334 L4527 328 L4547 323 L4565 317 L4584 312 L4604 307 L4625 302 L4642 298 L4661 293 L4681 289 L4700 285 L4720 281 L4739 277 L4759 273 L4778 269 L4797 266 L4816 262 L4845 258 L4865 254 L4892 251 L4930 246 L4945 242 L4957 238 L4974 234 L4991 232 L5011 229 L5030 227 L5049 225 L5069 223 L5090 220 L5107 218 L5126 215 L5146 213 L5166 210 L5184 207 L5203 204 L5223 201 L5243 197 L5262 193 L5280 190 L5301 187 L5326 183 L5340 180 L5358 176 L5378 173 L5397 170 L5416 166 L5435 162 L5455 158 L5476 155 L5494 151 L5513 148 L5533 145 L5553 142 L5571 139 L5590 136 L5610 133 L5629 130 L5648 127 L5667 124 L5687 122 L5706 119 L5726 116 L5745 114 L5773 111 L5793 108 L5821 105 L5857 100 L5871 96 L5884 93 L5902 89 L5920 87 L5940 85 L5958 82 L5978 79 L5998 76 L6019 73 L6037 70 L6054 66 L6075 62 L6095 58 L6113 54 L6132 50 L6152 45 L6172 41 L6190 37 L6209 34 L6230 31 L6255 29 L6270 27 L6287 25 L6306 23 L6326 21 L6345 18 L6364 16 L6384 14 L6405 12 L6422 10 L6441 8 L6462 6 L6483 3 L6500 0" />
</svg>
