<svg xmlns="http://www.w3.org/2000/svg" version="1.1" viewBox="0 0 6500 1000">
	<path fill="none" stroke="gold" stroke-width="125" stroke-linecap="round" stroke-linejoin="round" d="M0 1022  L-715311 1022 L-712707 1022 L-711039 1022 L-692709 1022 L-692539 1022 L-685381 1022 L-685348 1022 L-671917 1022 L-668995 1022 L-655655 1021 L-651486 1021 L-650325 1021 L-649706 1020 L-647694 1020 L-643923 1020 L-643323 1020 L-642994 1020 L-642781 1019 L-642239 1019 L-641001 1019 L-639822 1018 L-636958 1017 L-636436 1017 L-631580 1017 L-628643 1017 L-628600 1016 L-628292 1016 L-628040 1016 L-625445 1016 L-621189 1016 L-621171 1016 L-619935 1016 L-618057 1016 L-616104 1016 L-615156 1016 L-614885 1015 L-614575 1015 L-614477 1015 L-613647 1015 L-611616 1015 L-611325 1015 L-609179 1014 L-609023 1014 L-605367 1013 L-605116 1014 L-605018 1014 L-604500 1014 L-602349 1014 L-601420 1015 L-599894 1015 L-598655 1015 L-597108 1015 L-594147 1015 L-593025 1015 L-592716 1014 L-591504 1014 L-588498 1015 L-588478 1015 L-588131 1015 L-587918 1015 L-587791 1014 L-587550 1014 L-587512 1014 L-587492 1013 L-587473 1013 L-587414 1013 L-587355 1013 L-587337 1013 L-586894 1013 L-585655 1013 L-584109 1012 L-580721 1012 L-574995 1012 L-574794 1012 L-573158 1012 L-571436 1012 L-570004 1012 L-569771 1012 L-569056 1012 L-562924 1012 L-562556 1011 L-562402 1011 L-561823 1011 L-561531 1011 L-560563 1011 L-560254 1011 L-559655 1010 L-558049 1010 L-557313 1010 L-557004 1011 L-556235 1011 L-554199 1010 L-553774 1010 L-552961 1010 L-545533 1010 L-545010 1010 L-544836 1010 L-544101 1010 L-542534 1009 L-542128 1009 L-539903 1009 L-538955 1009 L-538530 1009 L-538200 1009 L-537156 1009 L-535048 1009 L-534796 1009 L-534177 1008 L-533364 1008 L-531256 1008 L-531208 1008 L-529279 1008 L-528954 1008 L-528819 1008 L-528315 1008 L-526903 1007 L-526400 1007 L-525878 1007 L-522318 1007 L-521583 1006 L-519158 1006 L-517869 1006 L-517462 1006 L-514310 1006 L-514155 1006 L-514135 1006 L-513768 1006 L-512510 1006 L-511795 1006 L-510905 1006 L-510498 1006 L-509569 1006 L-508461 1006 L-508157 1006 L-501909 1007 L-500961 1007 L-499335 1007 L-498833 1007 L-495158 1007 L-494325 1007 L-490372 1007 L-488960 1007 L-486471 1007 L-485795 1007 L-485756 1007 L-484885 1007 L-481674 1007 L-478811 1006 L-477843 1006 L-476721 1006 L-476702 1006 L-475077 1006 L-474613 1006 L-474521 1006 L-468152 1006 L-467203 1005 L-464746 1005 L-463874 1005 L-462638 1005 L-460637 1005 L-460239 1005 L-458803 1005 L-456777 1005 L-456563 1005 L-455383 1004 L-453875 1004 L-453855 1004 L-451843 1004 L-450973 1004 L-450102 1004 L-449517 1004 L-448980 1004 L-448322 1004 L-447084 1003 L-446524 1003 L-445343 1003 L-444105 1003 L-444067 1003 L-443680 1003 L-443138 1003 L-442364 1003 L-441242 1003 L-439153 1003 L-438819 1002 L-438534 1002 L-437605 1002 L-437122 1002 L-436386 1002 L-432755 1002 L-431628 1002 L-431473 1002 L-430447 1001 L-426732 1001 L-425515 1001 L-423696 1001 L-420911 1001 L-420349 1001 L-416461 1001 L-413985 1001 L-412650 1001 L-412146 1001 L-411663 1001 L-408974 1001 L-405202 1001 L-402745 1001 L-401565 1001 L-400926 1001 L-398567 1000 L-398489 1000 L-397442 1000 L-397348 1000 L-396845 1000 L-396400 1000 L-396342 1000 L-396129 1000 L-393169 1000 L-390461 1000 L-390306 1000 L-386786 1000 L-386263 1000 L-385295 999 L-384946 999 L-383903 999 L-382974 999 L-382549 999 L-381039 999 L-380073 999 L-380054 999 L-378158 993 L-378042 987 L-377994 982 L-377969 976 L-374965 976 L-372934 976 L-371174 975 L-370807 975 L-370361 975 L-369994 975 L-369580 975 L-367595 975 L-367382 975 L-367227 975 L-365622 975 L-364500 975 L-363552 975 L-362294 975 L-360650 974 L-359470 974 L-352881 974 L-352834 974 L-352428 974 L-351383 974 L-351248 974 L-349565 974 L-349545 974 L-348209 974 L-346972 973 L-346818 973 L-346444 973 L-346238 973 L-345929 973 L-345155 973 L-342833 973 L-342176 973 L-340048 973 L-338325 973 L-338132 972 L-335578 972 L-335302 972 L-335114 972 L-334281 972 L-333509 972 L-332811 972 L-327810 972 L-327434 972 L-323182 972 L-322694 979 L-322675 979 L-322596 979 L-322521 979 L-322501 971 L-321688 971 L-320935 971 L-319715 971 L-318284 971 L-318187 971 L-318013 971 L-317658 971 L-316349 971 L-314492 971 L-312790 970 L-312287 970 L-312021 970 L-311628 970 L-311494 970 L-310584 970 L-310208 970 L-309279 970 L-308940 970 L-308901 970 L-308863 970 L-306947 970 L-306774 970 L-305245 970 L-304917 970 L-304801 970 L-304394 969 L-304045 969 L-302402 969 L-301851 969 L-301608 969 L-301066 969 L-300235 969 L-299693 969 L-298159 969 L-298067 968 L-298030 968 L-297894 968 L-297507 968 L-296482 968 L-294605 968 L-294509 968 L-293909 970 L-293542 973 L-293057 976 L-293019 978 L-292245 979 L-292188 979 L-292013 978 L-291820 978 L-290214 978 L-290194 978 L-290039 978 L-289924 978 L-288744 978 L-288589 979 L-287922 979 L-285474 985 L-282959 991 L-280290 998 L-272590 1004 L-266923 1004 L-264708 1004 L-264685 1004 L-263711 1006 L-263691 1006 L-262827 1005 L-260087 1005 L-254288 1004 L-254135 1004 L-251349 1003 L-237741 1003 L-236995 1003 L-232584 1003 L-216238 1003 L-216006 1003 L-215469 1003 L-207009 1003 L-198304 1003 L-198091 1003 L-196119 1002 L-193333 1002 L-188845 1003 L-188690 1002 L-188521 1002 L-188381 1002 L-188090 1002 L-188052 1002 L-187781 1002 L-187609 1002 L-187199 1002 L-186078 1002 L-184898 1002 L-183621 1002 L-180757 1002 L-177837 1001 L-175845 1001 L-174298 1001 L-171260 1001 L-161935 1001 L-161411 1001 L-155687 1001 L-154180 1001 L-153366 1001 L-151682 1001 L-150961 1001 L-150793 1001 L-149748 1001 L-147680 1000 L-146318 1000 L-141875 1000 L-141778 1000 L-141739 1000 L-141720 1000 L-140888 1000 L-140810 1000 L-138237 1000 L-134988 1000 L-134833 1000 L-133885 1000 L-132144 999 L-131429 1000 L-127888 1000 L-121310 1001 L-119893 1001 L-119872 1001 L-118922 1001 L-115447 1001 L-114694 1001 L-114133 1001 L-113351 1001 L-105846 1001 L-104248 1001 L-102674 1001 L-99489 1000 L-95156 1000 L-86586 1000 L-77840 1000 L-74766 1000 L-71500 1000 L-70953 1000 L-63816 1000 L-58148 1000 L-44084 1000 L-38073 1000 L-33366 1000 L-29363 1000 L-24256 1000 L-14542 1000 L1028 999 L4111 999 L4413 964 L4433 921 L4451 873 L4471 818 L4491 793 L4510 772 L4529 753 L4556 734 L4577 715 L4605 696 L4640 674 L4654 656 L4667 640 L4686 627 L4704 617 L4724 608 L4742 598 L4762 588 L4782 578 L4803 568 L4820 558 L4838 548 L4859 538 L4879 529 L4897 518 L4916 508 L4936 496 L4956 486 L4974 475 L4993 466 L5014 456 L5039 446 L5054 438 L5071 429 L5091 420 L5110 411 L5129 401 L5148 391 L5168 382 L5189 373 L5206 365 L5225 357 L5246 349 L5266 342 L5284 336 L5303 330 L5323 324 L5341 319 L5361 313 L5380 308 L5400 304 L5420 300 L5439 296 L5457 292 L5485 286 L5506 281 L5533 275 L5567 268 L5582 263 L5595 258 L5613 254 L5632 250 L5652 246 L5671 241 L5690 237 L5710 232 L5731 228 L5748 224 L5767 220 L5787 216 L5807 211 L5826 205 L5844 199 L5864 193 L5884 187 L5903 181 L5922 175 L5943 168 L5967 160 L5982 153 L5999 145 L6019 138 L6038 131 L6058 124 L6076 116 L6097 109 L6117 102 L6135 94 L6154 87 L6174 81 L6195 74 L6212 68 L6231 62 L6251 56 L6270 52 L6290 46 L6309 41 L6328 36 L6348 31 L6367 26 L6386 21 L6415 15 L6435 11 L6462 6 L6500 0" />
</svg>
