<svg xmlns="http://www.w3.org/2000/svg" version="1.1" viewBox="0 0 6500 1000">
	<path fill="none" stroke="gold" stroke-width="125" stroke-linecap="round" stroke-linejoin="round" d="M0 105842  L-515478 105842 L-512874 105429 L-511206 105016 L-492876 104190 L-492706 103363 L-485548 102537 L-485515 102537 L-472084 102123 L-469162 102537 L-455821 101297 L-451652 99644 L-450492 97578 L-449873 95512 L-447861 94272 L-444089 93446 L-443489 92619 L-443161 91793 L-442948 90966 L-442406 90140 L-441168 86834 L-439989 83528 L-437125 80223 L-436602 76917 L-431747 76090 L-428810 75264 L-428767 74438 L-428458 73611 L-428206 72785 L-425612 71958 L-421356 71958 L-421338 71958 L-420101 71958 L-418224 71958 L-416270 71132 L-415322 70305 L-415052 69479 L-414742 69066 L-414644 68652 L-413813 68652 L-411782 69066 L-411492 65347 L-409346 63694 L-409190 61214 L-405534 58735 L-405283 59975 L-405184 59561 L-404667 60801 L-402516 62867 L-401587 64933 L-400061 67000 L-398822 67000 L-397275 66586 L-394313 65760 L-393191 64933 L-392882 64107 L-391671 63694 L-388664 68239 L-388645 67826 L-388297 67413 L-388084 67000 L-387958 61214 L-387716 60388 L-387679 59561 L-387659 58735 L-387640 57909 L-387581 57082 L-387522 56256 L-387504 55429 L-387061 54603 L-385822 53776 L-384276 52950 L-380888 52123 L-375162 51710 L-374960 51297 L-373324 50884 L-371603 50471 L-370170 50057 L-369938 49644 L-369223 49231 L-363091 48818 L-362723 47991 L-362568 47165 L-361990 46338 L-361698 45512 L-360730 44685 L-360421 43859 L-359822 43033 L-358215 43033 L-357480 43033 L-357170 43446 L-356402 43446 L-354366 42619 L-353941 41793 L-353128 41380 L-345700 40553 L-345177 39727 L-345003 38900 L-344268 38074 L-342700 37247 L-342295 36834 L-340070 36008 L-339122 35595 L-338697 35181 L-338366 35181 L-337323 34768 L-335214 33942 L-334962 33115 L-334343 32289 L-333531 31876 L-331423 31049 L-331374 30223 L-329446 29396 L-329120 28570 L-328985 27743 L-328482 27330 L-327070 26504 L-326567 24851 L-326045 23611 L-322485 21958 L-321750 20305 L-319325 20305 L-318036 19479 L-317629 19066 L-314476 19066 L-314322 19066 L-314301 19479 L-313935 19479 L-312676 19892 L-311962 20305 L-311072 20305 L-310665 20305 L-309736 20305 L-308627 19892 L-308324 21545 L-302075 22371 L-301128 23198 L-299502 24024 L-299000 24438 L-295324 24851 L-294492 25264 L-290539 25677 L-289127 24438 L-286638 23611 L-285961 22785 L-285923 22371 L-285052 22371 L-281841 21958 L-278977 21545 L-278009 21132 L-276888 20305 L-276869 19479 L-275244 18652 L-274780 17413 L-274688 17000 L-268319 16586 L-267370 16173 L-264913 15760 L-264041 14933 L-262805 14520 L-260803 14107 L-260406 13280 L-258970 12454 L-256943 12041 L-256730 11214 L-255550 10801 L-254042 10388 L-254022 9975 L-252009 9561 L-251140 8735 L-250269 8322 L-249684 7495 L-249147 6669 L-248489 5842 L-247251 5016 L-246691 4603 L-245509 4190 L-244272 3776 L-244233 3363 L-243846 2950 L-243305 2123 L-242531 1710 L-241409 1297 L-239320 471 L-238986 -355 L-238700 -1181 L-237772 -1595 L-237289 -2421 L-236553 -2834 L-232922 -3247 L-231794 -3661 L-231640 -4074 L-230614 -4900 L-226899 -5314 L-225682 -6140 L-223863 -6966 L-221077 -7380 L-220516 -8206 L-216628 -8206 L-214152 -8619 L-212817 -8619 L-212313 -9033 L-211830 -9446 L-209141 -9446 L-205369 -9446 L-202912 -9446 L-201732 -9446 L-201093 -9859 L-198733 -10685 L-198656 -11099 L-197608 -11512 L-197515 -12338 L-197012 -12338 L-196567 -12338 L-196509 -12338 L-196295 -12338 L-193336 -13165 L-190628 -13578 L-190473 -13991 L-186952 -14404 L-186430 -15231 L-185462 -16057 L-185113 -16471 L-184070 -17297 L-183141 -18123 L-182715 -18537 L-181206 -18537 L-180239 -18950 L-180220 -19363 L-178324 -49528 L-178208 -80520 L-178160 -111099 L-178136 -141677 L-175132 -142090 L-173101 -142917 L-171340 -143330 L-170973 -143743 L-170528 -144570 L-170161 -144983 L-169747 -145809 L-167762 -146223 L-167549 -146223 L-167394 -146636 L-165789 -146636 L-164667 -147049 L-163718 -147462 L-162461 -148289 L-160817 -148702 L-159637 -149528 L-153048 -149942 L-153001 -150355 L-152595 -150768 L-151550 -151181 L-151415 -151595 L-149732 -152421 L-149712 -152834 L-148375 -153661 L-147139 -154074 L-146985 -154487 L-146611 -155314 L-146405 -155727 L-146095 -156140 L-145322 -156966 L-143000 -157380 L-142342 -157793 L-140214 -158206 L-138492 -158619 L-138299 -159446 L-135745 -159859 L-135469 -160685 L-135281 -161512 L-134448 -161925 L-133676 -162338 L-132978 -162752 L-127977 -162752 L-127601 -163578 L-123348 -163991 L-122861 -123082 L-122842 -123082 L-122763 -123495 L-122688 -123909 L-122668 -166057 L-121855 -166471 L-121101 -167297 L-119882 -167710 L-118450 -167710 L-118354 -168123 L-118180 -168123 L-117825 -168950 L-116516 -169363 L-114659 -169776 L-112956 -170603 L-112453 -171016 L-112188 -171429 L-111795 -171842 L-111661 -172256 L-110751 -172669 L-110375 -173082 L-109446 -173082 L-109107 -173495 L-109067 -173495 L-109030 -173909 L-107114 -173909 L-106941 -174322 L-105412 -174322 L-105084 -174735 L-104968 -175148 L-104560 -175975 L-104212 -176388 L-102569 -177214 L-102018 -177628 L-101774 -178041 L-101233 -178454 L-100402 -179280 L-99860 -179694 L-98326 -180520 L-98233 -180933 L-98196 -181347 L-98061 -181760 L-97673 -182173 L-96648 -182586 L-94772 -183000 L-94676 -183413 L-94075 -170190 L-93708 -156140 L-93224 -141677 L-93186 -127628 L-92412 -126801 L-92354 -127214 L-92180 -128041 L-91986 -128454 L-90381 -129280 L-90361 -129694 L-90206 -128867 L-90090 -128454 L-88911 -128041 L-88756 -126801 L-88089 -126801 L-85641 -92917 L-83126 -58206 L-80456 -24735 L-72757 8735 L-67089 8735 L-64875 8322 L-64851 8322 L-63878 16586 L-63858 16586 L-62994 15760 L-60254 15347 L-54455 6669 L-54302 5842 L-51516 5429 L-37908 4603 L-37162 4190 L-32751 3363 L-16405 2950 L-16173 2123 L-15636 1710 L-7176 1297 L1528 884 L1741 471 L3713 57 L6500 57" />
</svg>
