<svg xmlns="http://www.w3.org/2000/svg" version="1.1" viewBox="0 0 6500 1000">
	<path fill="none" stroke="gold" stroke-width="125" stroke-linecap="round" stroke-linejoin="round" d="M0 3371  L-727317 3371 L-724713 3371 L-723045 3371 L-704716 3370 L-704545 3370 L-697388 3370 L-697354 3370 L-683924 3369 L-681002 3370 L-667661 3369 L-663492 3369 L-662332 3368 L-661713 3367 L-659701 3367 L-655929 3366 L-655329 3366 L-655000 3366 L-654787 3366 L-654245 3365 L-653007 3364 L-651829 3363 L-648964 3362 L-648442 3360 L-643586 3360 L-640649 3360 L-640606 3360 L-640298 3359 L-640046 3359 L-637451 3359 L-633196 3359 L-633178 3359 L-631941 3359 L-630063 3359 L-628110 3358 L-627162 3358 L-626891 3358 L-626581 3358 L-626483 3358 L-625653 3358 L-623622 3358 L-623332 3356 L-621185 3356 L-621030 3355 L-617373 3354 L-617122 3354 L-617024 3354 L-616507 3355 L-614355 3355 L-613427 3356 L-611901 3357 L-610661 3357 L-609115 3357 L-606153 3357 L-605031 3356 L-604722 3356 L-603511 3356 L-600504 3357 L-600484 3357 L-600137 3357 L-599924 3357 L-599798 3355 L-599556 3355 L-599518 3354 L-599498 3354 L-599479 3354 L-599420 3353 L-599362 3353 L-599344 3353 L-598901 3353 L-597661 3352 L-596115 3352 L-592728 3352 L-587001 3352 L-586800 3351 L-585164 3351 L-583442 3351 L-582010 3351 L-581778 3351 L-581062 3351 L-574930 3350 L-574562 3350 L-574408 3350 L-573830 3350 L-573537 3349 L-572570 3349 L-572260 3349 L-571661 3348 L-570055 3348 L-569320 3348 L-569010 3349 L-568242 3349 L-566206 3348 L-565780 3348 L-564968 3348 L-557539 3348 L-557016 3347 L-556843 3347 L-556107 3347 L-554540 3346 L-554134 3346 L-551909 3346 L-550961 3346 L-550536 3346 L-550206 3346 L-549162 3345 L-547054 3345 L-546802 3345 L-546183 3345 L-545370 3344 L-543262 3344 L-543214 3344 L-541286 3344 L-540960 3343 L-540825 3343 L-540322 3343 L-538909 3343 L-538406 3342 L-537884 3341 L-534325 3341 L-533590 3340 L-531165 3340 L-529875 3340 L-529468 3340 L-526316 3340 L-526161 3340 L-526141 3340 L-525774 3340 L-524516 3340 L-523801 3340 L-522911 3340 L-522504 3340 L-521576 3340 L-520467 3340 L-520164 3341 L-513915 3341 L-512968 3341 L-511341 3342 L-510840 3342 L-507164 3342 L-506332 3342 L-502378 3342 L-500967 3342 L-498477 3341 L-497801 3341 L-497762 3341 L-496891 3341 L-493680 3341 L-490817 3341 L-489849 3341 L-488728 3340 L-488709 3340 L-487084 3340 L-486619 3339 L-486527 3339 L-480158 3339 L-479210 3339 L-476753 3339 L-475880 3338 L-474644 3338 L-472643 3338 L-472245 3338 L-470809 3338 L-468783 3337 L-468570 3337 L-467390 3337 L-465881 3337 L-465861 3337 L-463849 3336 L-462979 3336 L-462108 3336 L-461524 3336 L-460986 3335 L-460329 3335 L-459091 3335 L-458530 3335 L-457349 3335 L-456111 3334 L-456073 3334 L-455686 3334 L-455144 3334 L-454370 3334 L-453248 3334 L-451159 3333 L-450826 3333 L-450540 3333 L-449611 3333 L-449128 3332 L-448393 3332 L-444761 3332 L-443634 3332 L-443479 3332 L-442453 3331 L-438738 3331 L-437521 3331 L-435703 3331 L-432917 3330 L-432355 3330 L-428468 3330 L-425991 3330 L-424656 3330 L-424153 3330 L-423670 3330 L-420980 3330 L-417209 3330 L-414751 3330 L-413572 3330 L-412932 3330 L-410573 3329 L-410495 3329 L-409448 3329 L-409354 3329 L-408852 3329 L-408406 3329 L-408348 3329 L-408135 3329 L-405175 3328 L-402468 3328 L-402313 3328 L-398792 3328 L-398269 3328 L-397302 3327 L-396953 3327 L-395909 3327 L-394980 3327 L-394555 3326 L-393046 3326 L-392079 3326 L-392060 3326 L-390164 3315 L-390048 3304 L-390000 3293 L-389976 3283 L-386971 3282 L-384941 3282 L-383180 3282 L-382813 3282 L-382367 3282 L-382000 3281 L-381586 3281 L-379601 3281 L-379388 3281 L-379233 3281 L-377628 3281 L-376506 3281 L-375558 3281 L-374301 3280 L-372656 3280 L-371477 3280 L-364887 3280 L-364840 3279 L-364435 3279 L-363390 3279 L-363254 3279 L-361572 3279 L-361552 3279 L-360215 3278 L-358979 3278 L-358825 3278 L-358451 3278 L-358244 3278 L-357935 3277 L-357161 3277 L-354840 3277 L-354182 3277 L-352054 3277 L-350332 3277 L-350138 3276 L-347585 3276 L-347308 3276 L-347120 3276 L-346288 3275 L-345515 3275 L-344817 3275 L-339817 3275 L-339441 3275 L-335188 3275 L-334701 3289 L-334682 3289 L-334603 3289 L-334527 3289 L-334507 3274 L-333695 3274 L-332941 3273 L-331722 3273 L-330290 3273 L-330194 3273 L-330019 3273 L-329665 3273 L-328355 3273 L-326498 3273 L-324796 3272 L-324293 3272 L-324028 3272 L-323635 3272 L-323500 3272 L-322591 3272 L-322214 3271 L-321286 3271 L-320947 3271 L-320907 3271 L-320869 3271 L-318954 3271 L-318780 3271 L-317251 3271 L-316923 3271 L-316807 3271 L-316400 3270 L-316052 3270 L-314408 3270 L-313857 3270 L-313614 3270 L-313073 3269 L-312241 3269 L-311700 3269 L-310165 3269 L-310073 3269 L-310036 3268 L-309900 3268 L-309513 3268 L-308488 3268 L-306612 3268 L-306515 3268 L-305915 3272 L-305548 3277 L-305063 3283 L-305025 3288 L-304251 3288 L-304194 3288 L-304019 3287 L-303826 3287 L-302221 3287 L-302201 3287 L-302045 3287 L-301930 3287 L-300750 3287 L-300596 3288 L-299929 3288 L-297481 3300 L-294966 3312 L-292296 3324 L-284597 3336 L-278929 3336 L-276714 3336 L-276691 3336 L-275717 3339 L-275697 3339 L-274834 3339 L-272093 3339 L-266295 3335 L-266141 3335 L-263355 3335 L-249747 3335 L-249001 3335 L-244591 3334 L-228244 3334 L-228012 3334 L-227475 3334 L-219016 3334 L-210310 3333 L-210098 3333 L-208125 3333 L-205339 3333 L-200852 3333 L-200697 3333 L-200528 3333 L-200387 3333 L-200097 3333 L-200058 3333 L-199787 3332 L-199615 3332 L-199205 3332 L-198085 3332 L-196904 3332 L-195628 3332 L-192764 3331 L-189844 3331 L-187852 3331 L-186304 3331 L-183266 3331 L-173941 3331 L-173417 3330 L-167694 3330 L-166187 3330 L-165372 3330 L-163688 3330 L-162967 3330 L-162799 3330 L-161754 3330 L-159687 3329 L-158325 3329 L-153881 3329 L-153784 3329 L-153745 3329 L-153726 3329 L-152894 3329 L-152816 3328 L-150244 3328 L-146994 3328 L-146840 3328 L-145891 3328 L-144150 3327 L-143435 3328 L-139894 3329 L-133317 3330 L-131899 3331 L-131879 3331 L-130928 3331 L-127454 3331 L-126701 3330 L-126139 3330 L-125357 3330 L-117853 3330 L-116254 3330 L-114680 3330 L-111495 3329 L-107162 3329 L-98592 3329 L-89846 3329 L-86772 3329 L-83506 3329 L-82960 3329 L-75822 3328 L-70155 3328 L-56090 3328 L-50079 3329 L-45373 3328 L-41369 3328 L-36262 3328 L-26548 3328 L-10977 3328 L-7894 3327 L-7592 3261 L-7573 3179 L-7554 3087 L-7534 2983 L-7514 2936 L-7495 2896 L-7476 2859 L-7449 2823 L-7428 2788 L-7400 2751 L-7365 2710 L-7351 2675 L-7338 2645 L-7320 2621 L-7301 2602 L-7281 2584 L-7263 2565 L-7243 2546 L-7224 2527 L-7202 2508 L-7186 2488 L-7167 2470 L-7146 2452 L-7126 2434 L-7108 2414 L-7089 2394 L-7070 2373 L-7049 2352 L-7031 2332 L-7012 2314 L-6991 2296 L-6966 2278 L-6951 2261 L-6934 2244 L-6915 2227 L-6895 2210 L-6876 2192 L-6857 2173 L-6837 2156 L-6817 2139 L-6799 2123 L-6780 2108 L-6759 2094 L-6739 2080 L-6722 2068 L-6703 2057 L-6683 2046 L-6664 2035 L-6644 2025 L-6625 2015 L-6605 2007 L-6586 1999 L-6567 1991 L-6548 1984 L-6521 1974 L-6500 1963 L-6472 1952 L-6438 1939 L-6424 1929 L-6410 1920 L-6392 1911 L-6373 1904 L-6353 1897 L-6335 1888 L-6315 1879 L-6295 1871 L-6275 1863 L-6257 1855 L-6238 1847 L-6218 1839 L-6198 1830 L-6180 1820 L-6161 1808 L-6141 1797 L-6121 1785 L-6102 1774 L-6084 1762 L-6062 1748 L-6038 1734 L-6023 1720 L-6006 1706 L-5986 1693 L-5967 1679 L-5948 1665 L-5929 1651 L-5909 1637 L-5888 1623 L-5870 1609 L-5851 1596 L-5831 1584 L-5811 1571 L-5793 1559 L-5774 1548 L-5754 1537 L-5735 1528 L-5716 1518 L-5697 1508 L-5677 1499 L-5658 1489 L-5638 1479 L-5619 1469 L-5591 1459 L-5571 1451 L-5543 1441 L-5506 1430 L-5491 1420 L-5478 1410 L-5461 1400 L-5444 1394 L-5424 1387 L-5406 1382 L-5387 1376 L-5367 1371 L-5346 1365 L-5329 1359 L-5310 1352 L-5289 1346 L-5270 1339 L-5251 1331 L-5232 1323 L-5212 1315 L-5193 1306 L-5174 1297 L-5155 1288 L-5134 1280 L-5110 1271 L-5095 1263 L-5078 1254 L-5058 1245 L-5039 1237 L-5019 1228 L-5000 1218 L-4980 1209 L-4960 1200 L-4942 1191 L-4923 1183 L-4903 1175 L-4882 1167 L-4865 1160 L-4845 1152 L-4826 1145 L-4807 1138 L-4787 1130 L-4768 1123 L-4748 1116 L-4729 1110 L-4710 1103 L-4691 1096 L-4663 1089 L-4642 1082 L-4614 1074 L-4578 1063 L-4564 1053 L-4551 1043 L-4533 1035 L-4515 1030 L-4496 1024 L-4477 1017 L-4457 1010 L-4438 1002 L-4416 994 L-4398 985 L-4381 976 L-4361 967 L-4340 957 L-4322 946 L-4303 935 L-4283 924 L-4263 913 L-4245 904 L-4226 895 L-4205 889 L-4180 883 L-4166 878 L-4148 873 L-4129 867 L-4109 862 L-4090 856 L-4071 850 L-4051 845 L-4031 840 L-4013 836 L-3994 831 L-3974 824 L-3953 817 L-3936 810 L-3917 804 L-3897 800 L-3878 796 L-3858 793 L-3840 790 L-3820 786 L-3800 782 L-3781 778 L-3762 774 L-3735 770 L-3714 767 L-3686 763 L-3651 758 L-3638 754 L-3624 750 L-3605 747 L-3587 744 L-3567 741 L-3549 738 L-3529 735 L-3509 733 L-3488 730 L-3471 727 L-3453 724 L-3432 721 L-3412 717 L-3394 714 L-3375 711 L-3355 708 L-3335 705 L-3317 703 L-3298 700 L-3277 697 L-3252 694 L-3237 692 L-3220 689 L-3201 687 L-3181 684 L-3162 681 L-3143 678 L-3123 674 L-3102 671 L-3085 668 L-3066 666 L-3045 663 L-3025 660 L-3007 658 L-2988 655 L-2968 653 L-2950 650 L-2930 648 L-2911 646 L-2891 644 L-2872 642 L-2852 640 L-2834 644 L-2805 647 L-2785 650 L-2757 652 L-2720 650 L-2705 648 L-2692 646 L-2674 644 L-2658 643 L-2638 641 L-2620 639 L-2600 637 L-2581 636 L-2559 634 L-2543 633 L-2524 632 L-2503 630 L-2483 628 L-2465 626 L-2446 625 L-2427 623 L-2406 621 L-2388 619 L-2369 618 L-2348 617 L-2323 615 L-2309 614 L-2291 612 L-2272 610 L-2253 608 L-2233 607 L-2214 605 L-2194 603 L-2174 600 L-2156 598 L-2137 596 L-2117 593 L-2096 591 L-2079 589 L-2060 587 L-2040 585 L-2021 583 L-2001 581 L-1982 579 L-1963 576 L-1943 575 L-1924 573 L-1905 571 L-1877 569 L-1857 567 L-1829 565 L-1794 563 L-1780 561 L-1767 559 L-1748 557 L-1730 556 L-1710 554 L-1691 552 L-1672 550 L-1652 549 L-1631 547 L-1614 545 L-1595 543 L-1575 541 L-1555 539 L-1537 536 L-1518 534 L-1498 531 L-1478 528 L-1460 525 L-1441 523 L-1419 521 L-1394 518 L-1380 515 L-1363 512 L-1343 510 L-1324 507 L-1305 505 L-1286 502 L-1266 500 L-1245 497 L-1228 495 L-1208 492 L-1188 490 L-1167 488 L-1150 486 L-1131 484 L-1111 483 L-1092 481 L-1073 480 L-1054 478 L-1034 477 L-1014 476 L-995 474 L-976 473 L-949 472 L-928 470 L-900 469 L-865 466 L-851 463 L-838 461 L-819 458 L-801 457 L-781 455 L-763 454 L-743 452 L-724 450 L-703 449 L-686 447 L-667 445 L-646 443 L-626 441 L-608 439 L-589 437 L-569 434 L-549 432 L-531 430 L-512 429 L-491 427 L-466 426 L-451 424 L-434 422 L-415 420 L-395 419 L-376 416 L-357 414 L-337 411 L-316 408 L-299 406 L-280 403 L-259 401 L-239 399 L-222 398 L-203 396 L-183 395 L-164 394 L-144 393 L-125 391 L-105 390 L-86 388 L-66 387 L-48 386 L-21 385 L0 384 L27 382 L61 381 L76 380 L89 379 L107 378 L126 377 L146 376 L164 375 L184 374 L204 373 L224 372 L242 371 L261 370 L281 369 L301 368 L319 367 L338 366 L358 365 L378 364 L397 363 L415 363 L437 362 L461 361 L476 360 L493 359 L513 358 L532 357 L551 356 L570 355 L590 354 L611 352 L629 350 L648 348 L668 346 L688 344 L706 342 L725 341 L745 340 L764 338 L784 337 L802 335 L822 334 L841 333 L861 332 L880 331 L908 330 L956 330 L993 328 L1008 327 L1020 326 L1037 325 L1055 325 L1074 324 L1093 324 L1112 323 L1133 322 L1153 321 L1170 321 L1189 320 L1209 319 L1229 318 L1248 318 L1267 317 L1287 316 L1306 315 L1325 314 L1344 312 L1365 311 L1390 309 L1404 308 L1421 306 L1441 305 L1460 303 L1480 302 L1499 301 L1519 299 L1539 298 L1557 296 L1576 295 L1597 293 L1617 292 L1635 291 L1653 290 L1674 289 L1692 288 L1712 287 L1731 286 L1751 285 L1770 284 L1790 283 L1808 282 L1837 281 L1857 280 L1885 278 L1921 276 L1936 273 L1949 271 L1966 270 L1984 268 L2004 267 L2022 266 L2042 266 L2061 265 L2083 264 L2099 263 L2118 261 L2139 260 L2159 258 L2177 257 L2196 254 L2216 252 L2236 250 L2254 249 L2273 247 L2294 245 L2319 244 L2334 242 L2352 241 L2370 240 L2390 238 L2409 237 L2428 235 L2448 234 L2469 232 L2486 231 L2505 229 L2525 228 L2547 227 L2563 226 L2582 224 L2602 223 L2621 222 L2641 221 L2659 220 L2679 219 L2699 218 L2718 217 L2737 216 L2765 997 L2785 996 L2813 995 L2849 993 L2863 209 L2876 207 L2894 206 L2912 205 L2932 204 L2950 204 L2970 203 L2990 202 L3011 200 L3028 198 L3046 197 L3067 195 L3087 193 L3105 191 L3124 189 L3144 187 L3165 185 L3182 184 L3201 183 L3223 181 L3248 180 L3263 178 L3292 176 L3332 173 L3355 171 L3384 168 L3401 166 L3414 164 L3434 163 L3454 162 L3475 161 L3492 160 L3511 158 L3531 157 L3550 157 L3569 156 L3588 155 L3608 155 L3628 154 L3647 152 L3665 152 L3693 151 L3714 150 L3742 148 L3777 147 L3790 146 L3822 145 L3841 144 L3861 143 L3879 142 L3899 141 L3918 141 L3939 140 L3956 139 L3975 137 L3996 134 L4016 131 L4034 127 L4053 124 L4073 121 L4093 118 L4111 116 L4130 114 L4151 113 L4176 112 L4191 110 L4208 109 L4227 107 L4247 106 L4266 105 L4285 103 L4305 102 L4326 100 L4343 98 L4362 97 L4383 96 L4404 94 L4420 94 L4439 93 L4459 92 L4479 91 L4498 89 L4517 88 L4537 87 L4556 86 L4575 85 L4594 84 L4622 84 L4642 82 L4712 80 L4740 78 L4755 76 L4769 73 L4789 72 L4807 71 L4827 69 L4847 68 L4868 67 L4885 66 L4904 65 L4924 64 L4944 63 L4962 62 L4981 61 L5001 60 L5022 58 L5039 57 L5058 55 L5080 55 L5105 54 L5120 52 L5137 51 L5156 50 L5176 48 L5195 47 L5214 46 L5233 44 L5255 44 L5272 43 L5291 42 L5311 41 L5332 40 L5349 39 L5407 37 L5427 36 L5445 36 L5465 35 L5485 34 L5504 33 L5523 32 L5550 32 L5571 31 L5599 31 L5635 30 L5650 29 L5662 28 L5680 27 L5698 27 L5718 26 L5736 26 L5756 25 L5776 25 L5797 25 L5813 24 L5832 24 L5853 23 L5873 23 L5891 22 L5910 21 L5930 20 L5950 19 L5968 19 L5987 18 L6008 17 L6033 16 L6048 16 L6065 15 L6084 15 L6104 14 L6123 13 L6142 12 L6162 11 L6183 10 L6200 8 L6219 8 L6240 7 L6261 7 L6277 6 L6296 6 L6317 5 L6336 5 L6355 4 L6374 4 L6394 3 L6414 3 L6432 3 L6451 2 L6479 2 L6500 1" />
</svg>
