<svg xmlns="http://www.w3.org/2000/svg" version="1.1" viewBox="0 0 6500 1000">
	<path fill="none" stroke="gold" stroke-width="125" stroke-linecap="round" stroke-linejoin="round" d="M0 3442  L-726416 3442 L-723812 3442 L-722144 3442 L-703815 3442 L-703645 3442 L-696487 3441 L-696454 3441 L-683023 3441 L-680101 3441 L-666760 3441 L-662591 3440 L-661431 3439 L-660812 3439 L-658800 3438 L-655028 3438 L-654428 3438 L-654099 3437 L-653886 3437 L-653345 3437 L-652107 3435 L-650928 3434 L-648063 3433 L-647541 3432 L-642686 3432 L-639748 3431 L-639705 3431 L-639397 3431 L-639145 3430 L-636550 3430 L-632295 3430 L-632277 3430 L-631040 3430 L-629163 3430 L-627209 3430 L-626261 3429 L-625990 3429 L-625681 3429 L-625582 3429 L-624752 3429 L-622721 3429 L-622431 3428 L-620284 3427 L-620129 3426 L-616473 3425 L-616222 3426 L-616123 3425 L-615606 3426 L-613455 3427 L-612526 3427 L-611000 3428 L-609760 3428 L-608214 3428 L-605252 3428 L-604130 3427 L-603821 3427 L-602610 3427 L-599603 3429 L-599584 3428 L-599236 3428 L-599023 3428 L-598897 3426 L-598655 3426 L-598617 3425 L-598598 3425 L-598578 3425 L-598519 3425 L-598461 3424 L-598443 3424 L-598000 3424 L-596760 3423 L-595215 3423 L-591827 3423 L-586101 3423 L-585899 3422 L-584263 3422 L-582541 3422 L-581109 3422 L-580877 3422 L-580162 3422 L-574029 3422 L-573662 3421 L-573507 3421 L-572929 3421 L-572636 3420 L-571669 3420 L-571359 3420 L-570760 3419 L-569154 3419 L-568419 3419 L-568109 3420 L-567341 3420 L-565305 3419 L-564879 3419 L-564067 3419 L-556638 3418 L-556115 3418 L-555942 3418 L-555207 3418 L-553639 3417 L-553233 3417 L-551008 3417 L-550060 3417 L-549635 3417 L-549305 3417 L-548261 3416 L-546153 3416 L-545901 3416 L-545282 3415 L-544469 3415 L-542362 3415 L-542313 3415 L-540385 3414 L-540059 3414 L-539924 3414 L-539421 3414 L-538008 3413 L-537505 3413 L-536984 3412 L-533424 3412 L-532689 3411 L-530264 3411 L-528975 3411 L-528568 3411 L-525415 3411 L-525260 3411 L-525240 3411 L-524874 3411 L-523615 3411 L-522900 3411 L-522010 3411 L-521603 3411 L-520675 3411 L-519566 3411 L-519263 3412 L-513014 3412 L-512067 3412 L-510441 3412 L-509939 3413 L-506263 3413 L-505431 3413 L-501478 3413 L-500066 3413 L-497577 3412 L-496900 3412 L-496861 3412 L-495991 3412 L-492779 3412 L-489916 3412 L-488948 3411 L-487827 3411 L-487808 3411 L-486183 3410 L-485719 3410 L-485627 3410 L-479257 3410 L-478309 3410 L-475852 3409 L-474980 3409 L-473744 3409 L-471742 3409 L-471345 3408 L-469908 3408 L-467882 3408 L-467669 3408 L-466489 3408 L-464981 3407 L-464960 3407 L-462948 3407 L-462079 3407 L-461208 3407 L-460623 3406 L-460086 3406 L-459428 3406 L-458190 3405 L-457629 3405 L-456448 3405 L-455211 3405 L-455172 3405 L-454785 3405 L-454244 3404 L-453470 3404 L-452348 3404 L-450258 3404 L-449925 3403 L-449639 3403 L-448711 3403 L-448227 3403 L-447492 3403 L-443861 3402 L-442733 3402 L-442578 3402 L-441552 3402 L-437838 3402 L-436620 3401 L-434802 3401 L-432016 3401 L-431455 3401 L-427567 3401 L-425090 3400 L-423755 3400 L-423252 3400 L-422769 3400 L-420080 3400 L-416308 3400 L-413851 3400 L-412671 3400 L-412032 3400 L-409672 3400 L-409595 3400 L-408547 3399 L-408454 3399 L-407951 3399 L-407505 3399 L-407448 3399 L-407234 3399 L-404274 3399 L-401567 3399 L-401412 3398 L-397891 3398 L-397368 3398 L-396401 3398 L-396052 3398 L-395008 3397 L-394080 3397 L-393654 3397 L-392145 3397 L-391178 3397 L-391159 3396 L-389263 3385 L-389147 3374 L-389099 3363 L-389075 3352 L-386071 3351 L-384040 3351 L-382279 3351 L-381912 3351 L-381467 3350 L-381100 3350 L-380686 3350 L-378701 3350 L-378488 3350 L-378333 3350 L-376727 3350 L-375606 3350 L-374657 3349 L-373400 3349 L-371755 3349 L-370576 3349 L-363986 3349 L-363940 3348 L-363534 3348 L-362489 3348 L-362353 3348 L-360671 3348 L-360651 3347 L-359314 3347 L-358078 3347 L-357924 3347 L-357550 3347 L-357344 3346 L-357034 3346 L-356260 3346 L-353939 3346 L-353281 3346 L-351153 3345 L-349431 3345 L-349237 3345 L-346684 3345 L-346408 3345 L-346219 3344 L-345387 3344 L-344615 3344 L-343916 3344 L-338916 3344 L-338540 3344 L-334287 3343 L-333800 3358 L-333781 3358 L-333702 3358 L-333626 3358 L-333607 3343 L-332794 3342 L-332040 3342 L-330821 3342 L-329389 3342 L-329293 3342 L-329118 3342 L-328764 3342 L-327455 3341 L-325597 3341 L-323895 3341 L-323392 3341 L-323127 3341 L-322734 3340 L-322600 3340 L-321690 3340 L-321313 3340 L-320385 3340 L-320046 3340 L-320006 3340 L-319969 3340 L-318053 3340 L-317879 3340 L-316351 3340 L-316022 3339 L-315906 3339 L-315499 3339 L-315151 3339 L-313507 3339 L-312956 3338 L-312713 3338 L-312172 3338 L-311341 3338 L-310799 3338 L-309264 3337 L-309172 3337 L-309135 3337 L-308999 3337 L-308612 3337 L-307587 3337 L-305711 3336 L-305615 3336 L-305014 3341 L-304647 3346 L-304163 3352 L-304124 3357 L-303351 3357 L-303293 3357 L-303119 3357 L-302925 3356 L-301320 3356 L-301300 3356 L-301145 3356 L-301029 3356 L-299850 3357 L-299695 3357 L-299028 3357 L-296580 3369 L-294065 3382 L-291395 3395 L-283696 3407 L-278028 3407 L-275814 3407 L-275790 3407 L-274816 3410 L-274796 3410 L-273933 3409 L-271193 3409 L-265394 3406 L-265241 3406 L-262455 3406 L-248846 3405 L-248101 3405 L-243690 3405 L-227344 3405 L-227111 3404 L-226574 3404 L-218115 3404 L-209409 3404 L-209197 3404 L-207224 3404 L-204438 3404 L-199951 3404 L-199796 3404 L-199627 3404 L-199487 3403 L-199196 3403 L-199157 3403 L-198886 3403 L-198715 3403 L-198305 3403 L-197184 3402 L-196004 3402 L-194727 3402 L-191863 3402 L-188943 3402 L-186951 3402 L-185403 3401 L-182365 3401 L-173041 3401 L-172517 3401 L-166793 3401 L-165286 3401 L-164471 3401 L-162788 3400 L-162067 3400 L-161898 3400 L-160853 3400 L-158786 3400 L-157424 3400 L-152980 3400 L-152883 3399 L-152845 3399 L-152826 3399 L-151993 3399 L-151915 3399 L-149343 3398 L-146094 3398 L-145939 3398 L-144991 3398 L-143249 3398 L-142534 3399 L-138993 3399 L-132416 3400 L-130999 3401 L-130978 3401 L-130027 3401 L-126553 3401 L-125800 3401 L-125238 3401 L-124456 3400 L-116952 3400 L-115354 3400 L-113780 3400 L-110594 3400 L-106261 3400 L-97692 3400 L-88945 3400 L-85871 3399 L-82605 3399 L-82059 3399 L-74922 3399 L-69254 3399 L-55189 3399 L-49178 3399 L-44472 3399 L-40469 3398 L-35361 3398 L-25647 3398 L-10076 3398 L-6994 3398 L-6692 3329 L-6672 3245 L-6653 3150 L-6633 3043 L-6614 2994 L-6594 2953 L-6576 2915 L-6548 2878 L-6527 2842 L-6499 2804 L-6464 2762 L-6451 2726 L-6437 2695 L-6419 2670 L-6400 2651 L-6380 2632 L-6362 2612 L-6343 2593 L-6323 2574 L-6302 2553 L-6285 2533 L-6266 2514 L-6246 2496 L-6226 2477 L-6207 2456 L-6189 2436 L-6169 2414 L-6149 2393 L-6130 2373 L-6111 2354 L-6090 2335 L-6065 2316 L-6051 2299 L-6034 2281 L-6014 2264 L-5995 2246 L-5975 2228 L-5957 2209 L-5936 2191 L-5916 2173 L-5898 2157 L-5879 2141 L-5859 2127 L-5838 2113 L-5821 2101 L-5802 2089 L-5782 2077 L-5763 2066 L-5743 2056 L-5725 2046 L-5705 2038 L-5685 2030 L-5666 2021 L-5647 2013 L-5620 2003 L-5599 1993 L-5571 1981 L-5537 1968 L-5523 1957 L-5510 1948 L-5491 1939 L-5472 1932 L-5452 1924 L-5434 1915 L-5414 1906 L-5394 1897 L-5374 1889 L-5356 1881 L-5338 1873 L-5317 1865 L-5298 1855 L-5279 1844 L-5260 1833 L-5240 1821 L-5221 1809 L-5202 1797 L-5183 1785 L-5162 1771 L-5137 1756 L-5123 1741 L-5106 1727 L-5086 1714 L-5067 1700 L-5047 1686 L-5028 1670 L-5008 1656 L-4988 1642 L-4970 1628 L-4951 1614 L-4930 1601 L-4910 1588 L-4892 1576 L-4873 1565 L-4853 1554 L-4835 1544 L-4815 1534 L-4796 1523 L-4776 1514 L-4757 1503 L-4737 1493 L-4719 1483 L-4690 1473 L-4670 1464 L-4642 1455 L-4605 1443 L-4590 1432 L-4578 1422 L-4560 1413 L-4543 1406 L-4524 1399 L-4505 1393 L-4486 1388 L-4466 1382 L-4445 1376 L-4428 1370 L-4409 1363 L-4389 1356 L-4369 1349 L-4350 1341 L-4332 1333 L-4312 1324 L-4292 1315 L-4273 1306 L-4254 1297 L-4233 1289 L-4209 1279 L-4194 1271 L-4177 1262 L-4157 1253 L-4138 1244 L-4118 1235 L-4099 1225 L-4079 1215 L-4059 1206 L-4041 1197 L-4022 1188 L-4002 1180 L-3982 1172 L-3964 1165 L-3945 1157 L-3925 1149 L-3906 1142 L-3886 1134 L-3867 1127 L-3848 1120 L-3828 1113 L-3809 1106 L-3790 1099 L-3762 1092 L-3742 1084 L-3714 1076 L-3678 1065 L-3663 1054 L-3650 1045 L-3633 1036 L-3615 1030 L-3595 1025 L-3576 1018 L-3557 1010 L-3537 1002 L-3516 994 L-3497 985 L-3480 976 L-3460 966 L-3440 955 L-3422 945 L-3403 933 L-3383 921 L-3362 911 L-3345 901 L-3326 892 L-3304 886 L-3279 880 L-3265 875 L-3247 869 L-3228 864 L-3209 857 L-3190 851 L-3171 845 L-3151 840 L-3130 835 L-3113 831 L-3093 826 L-3073 819 L-3052 811 L-3035 804 L-3016 798 L-2996 794 L-2977 790 L-2958 787 L-2939 784 L-2919 780 L-2899 775 L-2880 771 L-2861 767 L-2834 763 L-2813 760 L-2785 756 L-2750 751 L-2737 746 L-2723 743 L-2705 739 L-2686 736 L-2666 733 L-2648 730 L-2628 727 L-2609 725 L-2588 722 L-2570 719 L-2552 716 L-2531 712 L-2511 709 L-2493 705 L-2474 702 L-2454 699 L-2434 696 L-2416 694 L-2397 691 L-2376 688 L-2351 685 L-2336 682 L-2319 680 L-2300 677 L-2281 674 L-2261 671 L-2242 668 L-2222 664 L-2201 661 L-2184 658 L-2165 656 L-2144 653 L-2124 650 L-2106 648 L-2088 645 L-2068 642 L-2049 640 L-2029 637 L-2010 635 L-1990 633 L-1971 631 L-1952 630 L-1933 633 L-1904 636 L-1884 639 L-1856 642 L-1819 639 L-1804 637 L-1791 635 L-1774 633 L-1758 632 L-1738 630 L-1719 628 L-1700 626 L-1680 625 L-1659 623 L-1642 622 L-1623 620 L-1603 619 L-1583 617 L-1565 615 L-1546 613 L-1526 611 L-1506 610 L-1488 608 L-1469 606 L-1447 605 L-1422 604 L-1408 602 L-1391 600 L-1371 598 L-1352 596 L-1333 595 L-1313 593 L-1294 591 L-1273 588 L-1255 586 L-1236 583 L-1216 581 L-1195 579 L-1178 577 L-1159 575 L-1139 573 L-1120 571 L-1100 568 L-1082 566 L-1062 564 L-1042 562 L-1023 560 L-1004 558 L-977 557 L-956 554 L-928 552 L-893 550 L-880 548 L-866 546 L-847 544 L-829 542 L-809 541 L-791 539 L-771 537 L-751 535 L-730 533 L-713 531 L-695 529 L-674 527 L-654 525 L-636 523 L-617 520 L-597 517 L-577 514 L-559 511 L-540 509 L-519 506 L-494 503 L-479 501 L-462 498 L-443 495 L-423 493 L-404 490 L-385 487 L-365 485 L-344 482 L-327 480 L-308 477 L-287 475 L-266 473 L-249 471 L-230 469 L-210 467 L-191 466 L-172 464 L-153 462 L-133 461 L-113 460 L-94 458 L-76 457 L-48 456 L-27 454 L0 453 L35 450 L49 447 L62 445 L80 442 L99 440 L118 439 L137 437 L156 436 L176 434 L197 432 L214 430 L233 428 L253 426 L273 424 L292 422 L310 420 L330 417 L351 415 L369 413 L388 412 L409 410 L434 408 L449 407 L466 405 L485 403 L505 401 L524 399 L543 396 L563 394 L584 390 L601 388 L620 385 L641 383 L661 381 L678 379 L697 378 L717 377 L736 376 L756 374 L774 373 L794 371 L814 370 L833 369 L852 368 L879 366 L900 365 L928 364 L962 363 L976 361 L990 360 L1008 359 L1027 358 L1047 357 L1065 356 L1085 355 L1105 354 L1125 353 L1142 352 L1161 351 L1182 350 L1202 349 L1220 348 L1239 347 L1259 346 L1279 345 L1297 344 L1316 344 L1337 343 L1362 342 L1376 341 L1394 339 L1413 338 L1433 338 L1452 336 L1471 336 L1491 334 L1511 332 L1529 330 L1548 328 L1569 326 L1589 324 L1607 323 L1626 321 L1646 320 L1664 318 L1684 317 L1703 315 L1723 314 L1742 313 L1762 312 L1780 311 L1809 310 L1857 309 L1894 308 L1908 307 L1921 306 L1938 305 L1956 304 L1975 304 L1994 303 L2013 302 L2033 301 L2054 301 L2071 300 L2090 299 L2110 299 L2130 298 L2149 297 L2167 296 L2187 295 L2207 294 L2226 293 L2245 292 L2266 290 L2290 288 L2305 287 L2322 285 L2342 284 L2361 282 L2381 281 L2399 279 L2419 278 L2440 276 L2458 275 L2477 273 L2497 272 L2517 271 L2535 270 L2554 269 L2574 268 L2593 267 L2613 266 L2632 265 L2651 264 L2671 262 L2690 261 L2709 260 L2737 259 L2757 258 L2785 256 L2822 254 L2837 251 L2849 249 L2867 248 L2884 246 L2905 245 L2923 244 L2942 243 L2962 243 L2983 242 L3000 241 L3019 239 L3039 238 L3060 236 L3077 234 L3097 232 L3116 230 L3137 228 L3155 226 L3173 224 L3195 223 L3220 221 L3235 219 L3252 218 L3271 217 L3291 216 L3309 214 L3328 212 L3348 210 L3370 209 L3387 207 L3406 206 L3426 205 L3447 203 L3464 202 L3483 201 L3503 200 L3522 199 L3541 197 L3560 196 L3580 195 L3600 194 L3619 193 L3638 192 L3666 997 L3686 996 L3714 994 L3750 992 L3764 185 L3777 183 L3795 182 L3813 181 L3833 180 L3851 180 L3871 179 L3890 177 L3912 176 L3928 174 L3947 172 L3968 171 L3988 169 L4006 167 L4025 164 L4045 162 L4066 161 L4083 159 L4102 158 L4123 157 L4148 155 L4163 153 L4193 151 L4233 148 L4256 146 L4285 143 L4301 141 L4315 139 L4335 138 L4355 136 L4376 135 L4392 134 L4411 133 L4432 132 L4450 131 L4470 131 L4489 130 L4509 129 L4529 128 L4547 127 L4566 126 L4594 125 L4615 124 L4642 123 L4678 121 L4691 120 L4723 119 L4741 118 L4761 117 L4780 116 L4799 115 L4819 115 L4840 114 L4857 113 L4876 111 L4896 108 L4917 105 L4934 101 L4954 97 L4973 94 L4994 92 L5012 89 L5031 88 L5052 87 L5077 85 L5092 84 L5109 82 L5128 80 L5148 79 L5167 78 L5186 76 L5206 74 L5227 73 L5244 71 L5263 69 L5283 68 L5304 67 L5321 66 L5340 65 L5360 64 L5379 63 L5399 62 L5418 61 L5437 60 L5457 59 L5476 58 L5495 57 L5523 56 L5543 55 L5613 53 L5641 50 L5656 48 L5670 45 L5690 44 L5708 43 L5727 41 L5748 40 L5768 39 L5786 37 L5804 37 L5825 36 L5845 35 L5863 34 L5882 33 L5902 31 L5922 30 L5940 28 L5959 27 L5980 26 L6005 25 L6020 24 L6038 23 L6056 21 L6076 20 L6095 18 L6115 17 L6134 16 L6155 15 L6172 14 L6192 13 L6212 12 L6233 11 L6250 10 L6308 8 L6327 7 L6346 6 L6366 5 L6386 5 L6405 4 L6423 3 L6451 2 L6472 2 L6500 1" />
</svg>
