<svg xmlns="http://www.w3.org/2000/svg" version="1.1" viewBox="0 0 6500 1000">
	<path fill="none" stroke="gold" stroke-width="125" stroke-linecap="round" stroke-linejoin="round" d="M0 49137  L-409117 49137 L-406513 49066 L-404845 48995 L-386515 48852 L-386345 48710 L-379187 48568 L-379154 48568 L-365723 48497 L-362802 48568 L-349461 48355 L-345292 48071 L-344132 47715 L-343512 47360 L-341501 47147 L-337729 47004 L-337129 46862 L-336800 46720 L-336587 46578 L-336045 46436 L-334807 45867 L-333628 45299 L-330764 44730 L-330242 44162 L-325386 44019 L-322449 43877 L-322406 43735 L-322098 43593 L-321846 43451 L-319251 43309 L-314995 43309 L-314977 43309 L-313741 43309 L-311863 43309 L-309910 43167 L-308962 43024 L-308691 42882 L-308381 42811 L-308283 42740 L-307453 42740 L-305422 42811 L-305131 42171 L-302985 41887 L-302830 41461 L-299173 41034 L-298922 41248 L-298824 41176 L-298307 41390 L-296155 41745 L-295227 42100 L-293700 42456 L-292461 42456 L-290915 42385 L-287953 42243 L-286831 42100 L-286522 41958 L-285310 41887 L-282304 42669 L-282284 42598 L-281937 42527 L-281724 42456 L-281597 41461 L-281356 41319 L-281318 41176 L-281298 41034 L-281279 40892 L-281220 40750 L-281161 40608 L-281143 40466 L-280700 40324 L-279461 40181 L-277915 40039 L-274527 39897 L-268801 39826 L-268600 39755 L-266964 39684 L-265242 39613 L-263810 39542 L-263577 39471 L-262862 39400 L-256730 39329 L-256362 39186 L-256208 39044 L-255629 38902 L-255337 38760 L-254370 38618 L-254060 38476 L-253461 38334 L-251855 38334 L-251120 38334 L-250810 38405 L-250041 38405 L-248005 38262 L-247580 38120 L-246767 38049 L-239339 37907 L-238816 37765 L-238642 37623 L-237907 37481 L-236340 37339 L-235934 37267 L-233709 37125 L-232761 37054 L-232336 36983 L-232006 36983 L-230962 36912 L-228854 36770 L-228602 36628 L-227983 36486 L-227170 36415 L-225062 36272 L-225014 36130 L-223085 35988 L-222760 35846 L-222625 35704 L-222122 35633 L-220709 35491 L-220206 35206 L-219684 34993 L-216125 34709 L-215389 34425 L-212965 34425 L-211675 34282 L-211268 34211 L-208116 34211 L-207961 34211 L-207941 34282 L-207574 34282 L-206316 34353 L-205601 34425 L-204711 34425 L-204304 34425 L-203375 34425 L-202267 34353 L-201964 34638 L-195715 34780 L-194767 34922 L-193141 35064 L-192639 35135 L-188964 35206 L-188131 35277 L-184178 35348 L-182766 35135 L-180277 34993 L-179601 34851 L-179562 34780 L-178691 34780 L-175480 34709 L-172617 34638 L-171649 34567 L-170527 34425 L-170508 34282 L-168883 34140 L-168419 33927 L-168327 33856 L-161958 33785 L-161010 33714 L-158553 33643 L-157680 33501 L-156444 33429 L-154443 33358 L-154045 33216 L-152609 33074 L-150583 33003 L-150370 32861 L-149190 32790 L-147681 32719 L-147661 32648 L-145649 32577 L-144779 32434 L-143908 32363 L-143324 32221 L-142786 32079 L-142129 31937 L-140890 31795 L-140330 31724 L-139149 31653 L-137911 31582 L-137873 31511 L-137486 31439 L-136944 31297 L-136170 31226 L-135048 31155 L-132959 31013 L-132626 30871 L-132340 30729 L-131411 30658 L-130928 30515 L-130193 30444 L-126561 30373 L-125434 30302 L-125279 30231 L-124253 30089 L-120538 30018 L-119321 29876 L-117502 29734 L-114717 29663 L-114155 29520 L-110267 29520 L-107791 29449 L-106456 29449 L-105953 29378 L-105469 29307 L-102780 29307 L-99008 29307 L-96551 29307 L-95371 29307 L-94732 29236 L-92373 29094 L-92295 29023 L-91248 28952 L-91154 28810 L-90651 28810 L-90206 28810 L-90148 28810 L-89935 28810 L-86975 28668 L-84267 28597 L-84113 28525 L-80592 28454 L-80069 28312 L-79102 28170 L-78753 28099 L-77709 27957 L-76780 27815 L-76355 27744 L-74846 27744 L-73879 27673 L-73860 27601 L-71964 22413 L-71848 17083 L-71800 11823 L-71775 6564 L-68771 6493 L-66741 6351 L-64980 6280 L-64613 6208 L-64167 6066 L-63800 5995 L-63386 5853 L-61401 5782 L-61188 5782 L-61033 5711 L-59428 5711 L-58306 5640 L-57358 5569 L-56101 5427 L-54456 5356 L-53276 5213 L-46687 5142 L-46640 5071 L-46235 5000 L-45189 4929 L-45054 4858 L-43371 4716 L-43352 4645 L-42015 4503 L-40779 4432 L-40624 4361 L-40250 4218 L-40044 4147 L-39735 4076 L-38961 3934 L-36639 3863 L-35982 3792 L-33854 3721 L-32131 3650 L-31938 3508 L-29385 3437 L-29108 3294 L-28920 3152 L-28088 3081 L-27315 3010 L-26617 2939 L-21616 2939 L-21241 2797 L-16988 2726 L-16501 9762 L-16481 9762 L-16402 9691 L-16327 9620 L-16307 2371 L-15494 2299 L-14741 2157 L-13521 2086 L-12090 2086 L-11993 2015 L-11819 2015 L-11465 1873 L-10155 1802 L-8298 1731 L-6596 1589 L-6093 1518 L-5827 1447 L-5434 1375 L-5300 1304 L-4390 1233 L-4014 1162 L-3085 1162 L-2746 1091 L-2707 1091 L-2669 1020 L-754 1020 L-580 949 L948 949 L1276 878 L1392 807 L1799 665 L2147 594 L3791 452 L4342 380 L4585 309 L5126 238 L5958 96 L6500 25" />
</svg>
