<svg xmlns="http://www.w3.org/2000/svg" version="1.1" viewBox="0 0 6500 1000">
	<path fill="none" stroke="gold" stroke-width="125" stroke-linecap="round" stroke-linejoin="round" d="M0 1017  L-716939 1017 L-714335 1017 L-712667 1017 L-694337 1016 L-694167 1016 L-687009 1016 L-686976 1016 L-673545 1016 L-670623 1016 L-657282 1016 L-653113 1016 L-651953 1016 L-651334 1015 L-649322 1015 L-645550 1015 L-644950 1015 L-644622 1015 L-644409 1015 L-643867 1014 L-642629 1014 L-641450 1014 L-638586 1013 L-638063 1013 L-633208 1013 L-630271 1012 L-630228 1012 L-629919 1012 L-629667 1012 L-627073 1012 L-622817 1012 L-622799 1012 L-621562 1012 L-619685 1012 L-617731 1012 L-616783 1012 L-616513 1012 L-616203 1012 L-616105 1011 L-615274 1011 L-613243 1012 L-612953 1011 L-610807 1011 L-610651 1010 L-606995 1010 L-606744 1010 L-606645 1010 L-606128 1010 L-603977 1011 L-603048 1011 L-601522 1011 L-600283 1011 L-598736 1011 L-595774 1011 L-594653 1011 L-594343 1011 L-593132 1011 L-590125 1011 L-590106 1011 L-589758 1011 L-589545 1011 L-589419 1010 L-589178 1010 L-589140 1010 L-589120 1010 L-589101 1010 L-589042 1010 L-588983 1010 L-588965 1010 L-588522 1009 L-587283 1009 L-585737 1009 L-582349 1009 L-576623 1009 L-576421 1009 L-574785 1009 L-573064 1009 L-571631 1009 L-571399 1009 L-570684 1009 L-564552 1009 L-564184 1009 L-564029 1008 L-563451 1008 L-563159 1008 L-562191 1008 L-561882 1008 L-561283 1008 L-559676 1008 L-558941 1008 L-558631 1008 L-557863 1008 L-555827 1008 L-555402 1008 L-554589 1008 L-547161 1008 L-546638 1007 L-546464 1007 L-545729 1007 L-544161 1007 L-543756 1007 L-541531 1007 L-540583 1007 L-540158 1007 L-539827 1007 L-538784 1007 L-536675 1007 L-536423 1006 L-535804 1006 L-534992 1006 L-532884 1006 L-532835 1006 L-530907 1006 L-530581 1006 L-530446 1006 L-529943 1006 L-528531 1006 L-528028 1005 L-527506 1005 L-523946 1005 L-523211 1005 L-520786 1005 L-519497 1005 L-519090 1004 L-515937 1004 L-515783 1004 L-515762 1005 L-515396 1005 L-514137 1005 L-513423 1005 L-512533 1005 L-512126 1005 L-511197 1005 L-510088 1005 L-509785 1005 L-503536 1005 L-502589 1005 L-500963 1005 L-500461 1005 L-496785 1005 L-495953 1005 L-492000 1005 L-490588 1005 L-488099 1005 L-487422 1005 L-487384 1005 L-486513 1005 L-483302 1005 L-480438 1005 L-479471 1005 L-478349 1005 L-478330 1005 L-476705 1004 L-476241 1004 L-476149 1004 L-469780 1004 L-468831 1004 L-466374 1004 L-465502 1004 L-464266 1004 L-462264 1004 L-461867 1004 L-460431 1004 L-458404 1003 L-458191 1003 L-457011 1003 L-455503 1003 L-455483 1003 L-453470 1003 L-452601 1003 L-451730 1003 L-451145 1003 L-450608 1003 L-449950 1003 L-448712 1003 L-448152 1002 L-446970 1002 L-445733 1002 L-445694 1002 L-445307 1002 L-444766 1002 L-443992 1002 L-442870 1002 L-440781 1002 L-440447 1002 L-440161 1002 L-439233 1002 L-438750 1001 L-438014 1001 L-434383 1001 L-433255 1001 L-433101 1001 L-432075 1001 L-428360 1001 L-427143 1001 L-425324 1001 L-422538 1001 L-421977 1001 L-418089 1001 L-415613 1001 L-414278 1001 L-413774 1001 L-413291 1000 L-410602 1000 L-406830 1000 L-404373 1000 L-403193 1000 L-402554 1000 L-400194 1000 L-400117 1000 L-399069 1000 L-398976 1000 L-398473 1000 L-398028 1000 L-397970 1000 L-397756 1000 L-394797 1000 L-392089 1000 L-391934 1000 L-388413 1000 L-387891 1000 L-386923 1000 L-386574 999 L-385531 999 L-384602 999 L-384176 999 L-382667 999 L-381700 999 L-381681 999 L-379785 995 L-379669 990 L-379621 986 L-379597 982 L-376593 982 L-374562 982 L-372801 982 L-372434 982 L-371989 981 L-371622 981 L-371208 981 L-369223 981 L-369010 981 L-368855 981 L-367250 981 L-366128 981 L-365179 981 L-363922 981 L-362278 981 L-361098 981 L-354509 981 L-354462 981 L-354056 981 L-353011 981 L-352876 980 L-351193 980 L-351173 980 L-349836 980 L-348600 980 L-348446 980 L-348072 980 L-347866 980 L-347556 980 L-346783 980 L-344461 980 L-343803 980 L-341675 980 L-339953 979 L-339760 979 L-337206 979 L-336930 979 L-336742 979 L-335909 979 L-335137 979 L-334439 979 L-329438 979 L-329062 979 L-324809 979 L-324322 984 L-324303 984 L-324224 984 L-324149 984 L-324129 978 L-323316 978 L-322562 978 L-321343 978 L-319911 978 L-319815 978 L-319641 978 L-319286 978 L-317977 978 L-316120 978 L-314417 978 L-313914 978 L-313649 978 L-313256 978 L-313122 978 L-312212 977 L-311836 977 L-310907 977 L-310568 977 L-310528 977 L-310491 977 L-308575 977 L-308402 977 L-306873 977 L-306545 977 L-306429 977 L-306021 977 L-305673 977 L-304030 977 L-303479 977 L-303235 977 L-302694 977 L-301863 977 L-301321 977 L-299787 976 L-299694 976 L-299657 976 L-299522 976 L-299134 976 L-298110 976 L-296233 976 L-296137 976 L-295536 978 L-295169 980 L-294685 982 L-294647 984 L-293873 984 L-293815 984 L-293641 984 L-293447 984 L-291842 984 L-291822 984 L-291667 984 L-291551 984 L-290372 984 L-290217 984 L-289550 984 L-287102 989 L-284587 994 L-281917 998 L-274218 1003 L-268550 1003 L-266336 1003 L-266312 1003 L-265339 1004 L-265319 1004 L-264455 1004 L-261715 1004 L-255916 1003 L-255763 1003 L-252977 1003 L-239369 1002 L-238623 1002 L-234212 1002 L-217866 1002 L-217634 1002 L-217097 1002 L-208637 1002 L-199932 1002 L-199719 1002 L-197747 1002 L-194961 1002 L-190473 1002 L-190318 1002 L-190149 1002 L-190009 1002 L-189718 1002 L-189679 1002 L-189409 1002 L-189237 1001 L-188827 1001 L-187706 1001 L-186526 1001 L-185249 1001 L-182385 1001 L-179465 1001 L-177473 1001 L-175925 1001 L-172887 1001 L-163563 1001 L-163039 1001 L-157315 1001 L-155808 1001 L-154993 1001 L-153310 1001 L-152589 1001 L-152420 1000 L-151375 1000 L-149308 1000 L-147946 1000 L-143503 1000 L-143405 1000 L-143367 1000 L-143348 1000 L-142515 1000 L-142438 1000 L-139865 1000 L-136616 1000 L-136461 1000 L-135513 1000 L-133772 1000 L-133056 1000 L-129516 1000 L-122938 1001 L-121521 1001 L-121500 1001 L-120550 1001 L-117075 1001 L-116322 1001 L-115760 1001 L-114978 1001 L-107474 1001 L-105876 1000 L-104302 1000 L-101116 1000 L-96783 1000 L-88214 1000 L-79467 1000 L-76393 1000 L-73127 1000 L-72581 1000 L-65444 1000 L-59776 1000 L-45712 1000 L-39700 1000 L-34994 1000 L-30991 1000 L-25883 1000 L-16169 1000 L-599 1000 L2483 999 L2785 973 L2805 941 L2824 904 L2843 864 L2863 845 L2882 829 L2901 815 L2929 800 L2949 786 L2977 772 L3013 756 L3026 742 L3039 730 L3058 720 L3076 713 L3096 706 L3115 698 L3134 691 L3154 684 L3175 676 L3192 668 L3211 661 L3231 654 L3251 647 L3269 639 L3288 631 L3308 622 L3328 614 L3347 607 L3365 599 L3387 592 L3411 585 L3426 578 L3443 572 L3463 565 L3482 558 L3501 551 L3520 544 L3540 537 L3561 530 L3579 524 L3598 518 L3618 512 L3639 507 L3656 502 L3675 498 L3695 493 L3714 489 L3733 485 L3752 481 L3772 478 L3792 475 L3811 472 L3830 469 L3857 465 L3878 461 L3906 456 L3940 451 L3954 447 L3967 444 L3986 440 L4005 437 L4025 434 L4043 431 L4062 428 L4082 424 L4103 421 L4120 418 L4139 415 L4159 412 L4179 408 L4198 404 L4216 400 L4237 395 L4256 391 L4275 386 L4294 381 L4315 376 L4339 370 L4354 365 L4371 359 L4391 354 L4410 349 L4430 343 L4449 337 L4469 332 L4489 326 L4507 321 L4526 316 L4546 311 L4567 306 L4584 301 L4603 297 L4623 293 L4642 289 L4662 285 L4681 281 L4701 277 L4720 273 L4739 269 L4758 266 L4787 262 L4807 258 L4834 255 L4872 250 L4887 246 L4899 242 L4916 239 L4933 236 L4953 233 L4972 231 L4991 229 L5011 227 L5032 225 L5049 222 L5068 220 L5088 217 L5108 214 L5126 211 L5145 208 L5165 205 L5185 201 L5204 198 L5222 194 L5244 191 L5268 188 L5283 184 L5300 181 L5320 177 L5339 174 L5358 170 L5377 167 L5397 163 L5418 159 L5436 156 L5455 153 L5475 149 L5495 146 L5513 144 L5532 141 L5552 138 L5571 135 L5590 132 L5609 129 L5629 126 L5649 124 L5668 121 L5687 118 L5715 115 L5735 113 L5763 110 L5799 105 L5813 101 L5827 97 L5844 94 L5862 92 L5882 90 L5900 87 L5920 84 L5940 81 L5961 78 L5979 75 L5996 71 L6017 67 L6037 63 L6055 59 L6074 55 L6094 50 L6114 46 L6132 42 L6151 39 L6172 37 L6197 34 L6212 32 L6229 30 L6248 28 L6268 26 L6287 23 L6306 21 L6326 19 L6347 17 L6364 16 L6383 14 L6404 11 L6425 8 L6442 5 L6461 3 L6481 1 L6500 0" />
</svg>
