<svg xmlns="http://www.w3.org/2000/svg" version="1.1" viewBox="0 0 6500 1000">
	<path fill="none" stroke="gold" stroke-width="125" stroke-linecap="round" stroke-linejoin="round" d="M0 45374  L-362882 45374 L-360278 45302 L-358610 45231 L-340280 45087 L-340110 44944 L-332952 44801 L-332919 44801 L-319488 44730 L-316566 44801 L-303225 44587 L-299056 44301 L-297896 43943 L-297277 43585 L-295265 43371 L-291494 43228 L-290894 43085 L-290565 42942 L-290352 42798 L-289810 42655 L-288572 42083 L-287393 41511 L-284529 40939 L-284007 40366 L-279151 40223 L-276214 40080 L-276171 39937 L-275862 39794 L-275611 39651 L-273016 39508 L-268760 39508 L-268742 39508 L-267505 39508 L-265628 39508 L-263675 39365 L-262727 39222 L-262456 39079 L-262146 39007 L-262048 38936 L-261217 38936 L-259187 39007 L-258896 38364 L-256750 38077 L-256594 37648 L-252938 37219 L-252687 37434 L-252588 37362 L-252071 37577 L-249920 37934 L-248991 38292 L-247465 38650 L-246226 38650 L-244679 38578 L-241717 38435 L-240596 38292 L-240286 38149 L-239075 38077 L-236069 38864 L-236049 38793 L-235702 38721 L-235488 38650 L-235362 37648 L-235121 37505 L-235083 37362 L-235063 37219 L-235044 37076 L-234985 36933 L-234926 36790 L-234908 36647 L-234465 36504 L-233226 36361 L-231680 36218 L-228292 36075 L-222566 36003 L-222364 35932 L-220729 35860 L-219007 35788 L-217575 35717 L-217342 35645 L-216627 35574 L-210495 35502 L-210127 35359 L-209973 35216 L-209394 35073 L-209102 34930 L-208134 34787 L-207825 34644 L-207226 34501 L-205619 34501 L-204884 34501 L-204575 34572 L-203806 34572 L-201770 34429 L-201345 34286 L-200532 34215 L-193104 34072 L-192581 33929 L-192407 33786 L-191672 33643 L-190104 33500 L-189699 33428 L-187474 33285 L-186526 33213 L-186101 33142 L-185771 33142 L-184727 33070 L-182619 32927 L-182366 32784 L-181748 32641 L-180935 32570 L-178827 32427 L-178778 32283 L-176850 32140 L-176525 31997 L-176390 31854 L-175886 31783 L-174474 31640 L-173971 31354 L-173449 31139 L-169889 30853 L-169154 30567 L-166729 30567 L-165440 30424 L-165033 30352 L-161881 30352 L-161726 30352 L-161705 30424 L-161339 30424 L-160081 30495 L-159366 30567 L-158476 30567 L-158069 30567 L-157140 30567 L-156032 30495 L-155728 30781 L-149479 30924 L-148532 31067 L-146906 31211 L-146404 31282 L-142729 31354 L-141896 31425 L-137943 31497 L-136531 31282 L-134042 31139 L-133365 30996 L-133327 30924 L-132456 30924 L-129245 30853 L-126382 30781 L-125414 30710 L-124292 30567 L-124273 30424 L-122648 30281 L-122184 30066 L-122092 29994 L-115723 29923 L-114774 29851 L-112317 29780 L-111445 29637 L-110209 29565 L-108208 29494 L-107810 29351 L-106374 29208 L-104348 29136 L-104134 28993 L-102954 28922 L-101446 28850 L-101426 28778 L-99413 28707 L-98544 28564 L-97673 28492 L-97088 28349 L-96551 28206 L-95893 28063 L-94655 27920 L-94095 27849 L-92914 27777 L-91676 27706 L-91637 27634 L-91251 27562 L-90709 27419 L-89935 27348 L-88813 27276 L-86724 27133 L-86390 26990 L-86105 26847 L-85176 26776 L-84693 26633 L-83957 26561 L-80326 26489 L-79199 26418 L-79044 26346 L-78018 26203 L-74303 26132 L-73086 25989 L-71267 25846 L-68482 25774 L-67920 25631 L-64032 25631 L-61556 25560 L-60221 25560 L-59717 25488 L-59234 25417 L-56545 25417 L-52773 25417 L-50316 25417 L-49136 25417 L-48497 25345 L-46138 25202 L-46060 25130 L-45013 25059 L-44919 24916 L-44416 24916 L-43971 24916 L-43913 24916 L-43699 24916 L-40740 24773 L-38032 24701 L-37877 24630 L-34357 24558 L-33834 24415 L-32866 24272 L-32517 24201 L-31474 24057 L-30545 23914 L-30119 23843 L-28610 23843 L-27643 23771 L-27625 23700 L-25729 18478 L-25613 13113 L-25565 7820 L-25540 2527 L-22536 2455 L-20505 2312 L-18745 2241 L-18377 2169 L-17932 2026 L-17565 1954 L-17151 1811 L-15166 1740 L-14953 1740 L-14798 1668 L-13193 1668 L-12071 1597 L-11123 1525 L-9865 1382 L-8221 1311 L-7041 1168 L-452 1096 L-405 1025 L0 953 L1045 881 L1180 810 L2863 667 L2883 595 L4219 452 L5456 381 L5610 309 L5984 166 L6190 95 L6500 23" />
</svg>
