<svg xmlns="http://www.w3.org/2000/svg" version="1.1" viewBox="0 0 6500 1000">
	<path fill="none" stroke="gold" stroke-width="125" stroke-linecap="round" stroke-linejoin="round" d="M0 11586  L-445119 11586 L-442515 11537 L-440847 11488 L-422518 11390 L-422348 11291 L-415190 11193 L-415157 11193 L-401726 11144 L-398804 11193 L-385463 11046 L-381294 10850 L-380134 10605 L-379515 10359 L-377503 10212 L-373731 10114 L-373131 10016 L-372803 9918 L-372589 9819 L-372048 9721 L-370810 9329 L-369631 8936 L-366766 8544 L-366244 8151 L-361389 8053 L-358451 7955 L-358409 7857 L-358100 7759 L-357848 7660 L-355253 7562 L-350998 7562 L-350980 7562 L-349743 7562 L-347866 7562 L-345912 7464 L-344964 7366 L-344693 7268 L-344384 7219 L-344285 7170 L-343455 7170 L-341424 7219 L-341134 6777 L-338987 6581 L-338832 6287 L-335176 5992 L-334925 6139 L-334826 6090 L-334309 6237 L-332158 6483 L-331229 6728 L-329703 6973 L-328463 6973 L-326917 6924 L-323955 6826 L-322833 6728 L-322524 6630 L-321313 6581 L-318306 7121 L-318287 7072 L-317939 7023 L-317726 6973 L-317600 6287 L-317358 6188 L-317320 6090 L-317301 5992 L-317281 5894 L-317222 5796 L-317164 5698 L-317146 5600 L-316703 5501 L-315463 5403 L-313918 5305 L-310530 5207 L-304804 5158 L-304602 5109 L-302966 5060 L-301244 5011 L-299812 4962 L-299580 4913 L-298865 4864 L-292732 4815 L-292365 4716 L-292210 4618 L-291632 4520 L-291339 4422 L-290372 4324 L-290062 4226 L-289463 4128 L-287857 4128 L-287122 4128 L-286812 4177 L-286044 4177 L-284008 4078 L-283582 3980 L-282770 3931 L-275341 3833 L-274818 3735 L-274645 3637 L-273910 3539 L-272342 3441 L-271936 3392 L-269711 3293 L-268763 3244 L-268338 3195 L-268008 3195 L-266964 3146 L-264856 3048 L-264604 2950 L-263985 2852 L-263172 2803 L-261065 2705 L-261016 2606 L-259088 2508 L-258762 2410 L-258627 2312 L-258124 2263 L-256711 2165 L-256208 1969 L-255687 1821 L-252127 1625 L-251392 1429 L-248967 1429 L-247678 1331 L-247271 1282 L-244118 1282 L-243963 1282 L-243943 1331 L-243577 1331 L-242318 1380 L-241603 1429 L-240713 1429 L-240306 1429 L-239378 1429 L-238269 1380 L-237966 1576 L-231717 1674 L-230770 1772 L-229144 1870 L-228642 1920 L-224966 1969 L-224134 2018 L-220181 2067 L-218769 1920 L-216280 1821 L-215603 1723 L-215564 1674 L-214694 1674 L-211482 1625 L-208619 1576 L-207651 1527 L-206530 1429 L-206511 1331 L-204886 1233 L-204422 1085 L-204330 1036 L-197960 987 L-197012 938 L-194555 889 L-193683 791 L-192447 742 L-190445 693 L-190048 595 L-188611 497 L-186585 447 L-186372 349 L-185192 300 L-183684 251 L-183663 202 L-181651 153 L-180782 55 L-179911 6 L-179326 -91 L-178789 -189 L-178131 -288 L-176893 -386 L-176332 -435 L-175151 -484 L-173914 -533 L-173875 -582 L-173488 -631 L-172947 -729 L-172173 -778 L-171051 -827 L-168961 -925 L-168628 -1024 L-168342 -1122 L-167414 -1171 L-166930 -1269 L-166195 -1318 L-162564 -1367 L-161436 -1416 L-161281 -1465 L-160255 -1563 L-156541 -1612 L-155323 -1710 L-153505 -1809 L-150719 -1858 L-150158 -1956 L-146270 -1956 L-143793 -2005 L-142458 -2005 L-141955 -2054 L-141472 -2103 L-138783 -2103 L-135011 -2103 L-132554 -2103 L-131374 -2103 L-130735 -2152 L-128375 -2250 L-128298 -2299 L-127250 -2348 L-127157 -2447 L-126654 -2447 L-126208 -2447 L-126151 -2447 L-125937 -2447 L-122977 -2545 L-120270 -2594 L-120115 -2643 L-116594 -2692 L-116071 -2790 L-115104 -2888 L-114755 -2937 L-113711 -3035 L-112783 -3133 L-112357 -3183 L-110848 -3183 L-109881 -3232 L-109862 -3281 L-107966 -6863 L-107850 -10543 L-107802 -14174 L-107778 -17805 L-104774 -17854 L-102743 -17952 L-100982 -18001 L-100615 -18050 L-100170 -18148 L-99803 -18197 L-99389 -18295 L-97404 -18344 L-97191 -18344 L-97036 -18394 L-95430 -18394 L-94309 -18443 L-93360 -18492 L-92103 -18590 L-90458 -18639 L-89279 -18737 L-82689 -18786 L-82643 -18835 L-82237 -18884 L-81192 -18933 L-81056 -18982 L-79374 -19080 L-79354 -19130 L-78017 -19228 L-76781 -19277 L-76627 -19326 L-76253 -19424 L-76047 -19473 L-75737 -19522 L-74963 -19620 L-72642 -19669 L-71984 -19718 L-69856 -19767 L-68134 -19816 L-67940 -19915 L-65387 -19964 L-65111 -20062 L-64922 -20160 L-64090 -20209 L-63318 -20258 L-62619 -20307 L-57619 -20307 L-57243 -20405 L-52990 -20454 L-52503 -15597 L-52484 -15597 L-52405 -15646 L-52329 -15695 L-52310 -20700 L-51497 -20749 L-50743 -20847 L-49524 -20896 L-48092 -20896 L-47996 -20945 L-47821 -20945 L-47467 -21043 L-46158 -21092 L-44300 -21141 L-42598 -21239 L-42095 -21289 L-41830 -21338 L-41437 -21387 L-41303 -21436 L-40393 -21485 L-40016 -21534 L-39088 -21534 L-38749 -21583 L-38709 -21583 L-38672 -21632 L-36756 -21632 L-36582 -21681 L-35054 -21681 L-34725 -21730 L-34609 -21779 L-34202 -21877 L-33854 -21926 L-32210 -22025 L-31659 -22074 L-31416 -22123 L-30875 -22172 L-30044 -22270 L-29502 -22319 L-27967 -22417 L-27875 -22466 L-27838 -22515 L-27702 -22564 L-27315 -22613 L-26290 -22662 L-24414 -22711 L-24318 -22761 L-23717 -21190 L-23350 -19522 L-22866 -17805 L-22828 -16136 L-22054 -16038 L-21996 -16087 L-21822 -16185 L-21628 -16235 L-20023 -16333 L-20003 -16382 L-19848 -16284 L-19732 -16235 L-18553 -16185 L-18398 -16038 L-17731 -16038 L-15283 -12015 L-12768 -7893 L-10098 -3919 L-2399 55 L3268 55 L5482 6 L5506 6 L6480 987 L6500 987" />
</svg>
