<svg xmlns="http://www.w3.org/2000/svg" version="1.1" viewBox="0 0 6500 1000">
	<path fill="none" stroke="gold" stroke-width="125" stroke-linecap="round" stroke-linejoin="round" d="M0 4918  L-121318 4918 L-118714 4875 L-117046 4832 L-98717 4746 L-98546 4660 L-91389 4573 L-91356 4573 L-77925 4530 L-75003 4573 L-61662 4444 L-57493 4272 L-56333 4056 L-55714 3840 L-53702 3711 L-49930 3625 L-49330 3539 L-49001 3452 L-48788 3366 L-48247 3280 L-47009 2935 L-45830 2590 L-42965 2245 L-42443 1900 L-37587 1814 L-34650 1727 L-34607 1641 L-34299 1555 L-34047 1469 L-31452 1382 L-27197 1382 L-27179 1382 L-25942 1382 L-24064 1382 L-22111 1296 L-21163 1210 L-20892 1124 L-20582 1081 L-20484 1037 L-19654 1037 L-17623 1081 L-17333 692 L-15186 520 L-15031 261 L-11374 3 L-11123 132 L-11025 89 L-10508 218 L-8357 434 L-7428 649 L-5902 865 L-4662 865 L-3116 822 L-154 736 L967 649 L1276 563 L2487 520 L5494 994 L5514 951 L5861 908 L6074 865 L6200 261 L6442 175 L6480 89 L6500 3" />
</svg>
