<svg xmlns="http://www.w3.org/2000/svg" version="1.1" viewBox="0 0 6500 1000">
	<path fill="none" stroke="gold" stroke-width="125" stroke-linecap="round" stroke-linejoin="round" d="M0 3149  L-730103 3149 L-727499 3149 L-725831 3148 L-707501 3148 L-707331 3148 L-700173 3148 L-700140 3148 L-686709 3147 L-683787 3148 L-670446 3147 L-666277 3147 L-665117 3146 L-664498 3145 L-662486 3145 L-658715 3145 L-658114 3144 L-657786 3144 L-657573 3144 L-657031 3144 L-655793 3143 L-654614 3141 L-651750 3140 L-651228 3139 L-646372 3139 L-643435 3139 L-643392 3139 L-643083 3138 L-642832 3138 L-640237 3138 L-635981 3138 L-635963 3138 L-634726 3138 L-632849 3138 L-630896 3137 L-629948 3137 L-629677 3137 L-629367 3137 L-629269 3137 L-628438 3137 L-626408 3137 L-626117 3136 L-623971 3135 L-623815 3134 L-620159 3133 L-619908 3134 L-619809 3134 L-619292 3134 L-617141 3135 L-616212 3135 L-614686 3136 L-613447 3136 L-611900 3136 L-608938 3136 L-607817 3135 L-607507 3135 L-606296 3135 L-603289 3137 L-603270 3136 L-602923 3136 L-602709 3136 L-602583 3134 L-602342 3134 L-602304 3134 L-602284 3133 L-602265 3133 L-602206 3133 L-602147 3133 L-602129 3132 L-601686 3132 L-600447 3132 L-598901 3132 L-595513 3131 L-589787 3131 L-589585 3131 L-587950 3131 L-586228 3131 L-584796 3131 L-584563 3131 L-583848 3130 L-577716 3130 L-577348 3130 L-577194 3130 L-576615 3129 L-576323 3129 L-575355 3129 L-575046 3129 L-574447 3128 L-572840 3128 L-572105 3128 L-571795 3129 L-571027 3129 L-568991 3128 L-568566 3128 L-567753 3128 L-560325 3128 L-559802 3127 L-559628 3127 L-558893 3127 L-557325 3127 L-556920 3126 L-554695 3126 L-553747 3126 L-553322 3126 L-552991 3126 L-551948 3126 L-549840 3125 L-549587 3125 L-548969 3125 L-548156 3125 L-546048 3125 L-545999 3124 L-544071 3124 L-543746 3124 L-543610 3123 L-543107 3123 L-541695 3123 L-541192 3123 L-540670 3122 L-537110 3122 L-536375 3121 L-533950 3121 L-532661 3121 L-532254 3121 L-529101 3121 L-528947 3121 L-528926 3121 L-528560 3121 L-527302 3121 L-526587 3121 L-525697 3121 L-525290 3121 L-524361 3121 L-523253 3121 L-522949 3121 L-516700 3122 L-515753 3122 L-514127 3122 L-513625 3122 L-509949 3123 L-509117 3123 L-505164 3123 L-503752 3122 L-501263 3122 L-500586 3122 L-500548 3122 L-499677 3122 L-496466 3122 L-493603 3121 L-492635 3121 L-491513 3121 L-491494 3121 L-489869 3121 L-489405 3120 L-489313 3120 L-482944 3120 L-481995 3120 L-479538 3120 L-478666 3119 L-477430 3119 L-475429 3119 L-475031 3119 L-473595 3119 L-471569 3118 L-471355 3118 L-470175 3118 L-468667 3118 L-468647 3118 L-466634 3118 L-465765 3117 L-464894 3117 L-464309 3117 L-463772 3117 L-463114 3116 L-461876 3116 L-461316 3116 L-460135 3116 L-458897 3116 L-458858 3116 L-458472 3115 L-457930 3115 L-457156 3115 L-456034 3115 L-453945 3115 L-453611 3114 L-453326 3114 L-452397 3114 L-451914 3114 L-451178 3114 L-447547 3113 L-446420 3113 L-446265 3113 L-445239 3113 L-441524 3113 L-440307 3113 L-438488 3112 L-435703 3112 L-435141 3112 L-431253 3112 L-428777 3112 L-427442 3112 L-426938 3112 L-426455 3111 L-423766 3111 L-419994 3111 L-417537 3111 L-416357 3111 L-415718 3111 L-413358 3111 L-413281 3111 L-412234 3111 L-412140 3111 L-411637 3111 L-411192 3111 L-411134 3111 L-410920 3111 L-407961 3110 L-405253 3110 L-405098 3110 L-401578 3110 L-401055 3110 L-400087 3109 L-399738 3109 L-398695 3109 L-397766 3109 L-397340 3109 L-395831 3109 L-394864 3108 L-394846 3108 L-392950 3099 L-392834 3088 L-392786 3079 L-392761 3069 L-389757 3069 L-387726 3068 L-385966 3068 L-385598 3068 L-385153 3068 L-384786 3068 L-384372 3067 L-382387 3067 L-382174 3067 L-382019 3067 L-380414 3067 L-379292 3067 L-378344 3067 L-377086 3067 L-375442 3066 L-374262 3066 L-367673 3066 L-367626 3066 L-367220 3066 L-366175 3066 L-366040 3066 L-364357 3065 L-364337 3065 L-363001 3065 L-361764 3065 L-361610 3065 L-361236 3064 L-361030 3064 L-360720 3064 L-359947 3064 L-357625 3064 L-356967 3064 L-354840 3063 L-353117 3063 L-352924 3063 L-350370 3063 L-350094 3063 L-349906 3062 L-349073 3062 L-348301 3062 L-347603 3062 L-342602 3062 L-342226 3062 L-337973 3062 L-337486 3075 L-337467 3075 L-337388 3075 L-337313 3074 L-337293 3061 L-336480 3061 L-335726 3060 L-334507 3060 L-333075 3060 L-332979 3060 L-332805 3060 L-332450 3060 L-331141 3060 L-329284 3060 L-327581 3059 L-327079 3059 L-326813 3059 L-326420 3059 L-326286 3059 L-325376 3059 L-325000 3059 L-324071 3059 L-323732 3058 L-323693 3058 L-323655 3058 L-321739 3058 L-321566 3058 L-320037 3058 L-319709 3058 L-319593 3058 L-319185 3058 L-318837 3058 L-317194 3057 L-316643 3057 L-316400 3057 L-315858 3057 L-315027 3057 L-314485 3056 L-312951 3056 L-312858 3056 L-312822 3056 L-312686 3056 L-312298 3056 L-311274 3056 L-309397 3055 L-309301 3055 L-308701 3060 L-308333 3064 L-307849 3069 L-307811 3073 L-307037 3074 L-306980 3073 L-306805 3073 L-306611 3073 L-305006 3073 L-304986 3073 L-304831 3073 L-304716 3073 L-303536 3073 L-303381 3074 L-302714 3074 L-300266 3084 L-297751 3096 L-295081 3107 L-287382 3117 L-281714 3117 L-279500 3117 L-279477 3117 L-278503 3120 L-278483 3120 L-277619 3120 L-274879 3119 L-269080 3117 L-268927 3116 L-266141 3116 L-252533 3116 L-251787 3116 L-247376 3116 L-231030 3115 L-230798 3115 L-230261 3115 L-221801 3115 L-213096 3115 L-212883 3115 L-210911 3115 L-208125 3115 L-203637 3115 L-203482 3115 L-203313 3115 L-203173 3114 L-202882 3114 L-202843 3114 L-202573 3114 L-202401 3114 L-201991 3114 L-200870 3113 L-199690 3113 L-198413 3113 L-195549 3113 L-192629 3113 L-190637 3113 L-189089 3113 L-186051 3112 L-176727 3112 L-176203 3112 L-170479 3112 L-168972 3112 L-168158 3112 L-166474 3112 L-165753 3112 L-165585 3111 L-164539 3111 L-162472 3111 L-161110 3111 L-156667 3111 L-156570 3111 L-156531 3111 L-156512 3111 L-155679 3110 L-155602 3110 L-153029 3110 L-149780 3110 L-149625 3110 L-148677 3110 L-146936 3109 L-146220 3110 L-142680 3111 L-136102 3112 L-134685 3113 L-134664 3113 L-133714 3112 L-130239 3112 L-129486 3112 L-128924 3112 L-128142 3112 L-120638 3112 L-119040 3111 L-117466 3111 L-114281 3111 L-109947 3111 L-101378 3111 L-92631 3111 L-89558 3111 L-86292 3111 L-85745 3110 L-78608 3110 L-72940 3110 L-58876 3110 L-52864 3110 L-48158 3110 L-44155 3110 L-39047 3110 L-29333 3110 L-13763 3109 L-10680 3109 L-10378 3049 L-10358 2975 L-10339 2891 L-10320 2797 L-10300 2754 L-10281 2718 L-10262 2685 L-10234 2652 L-10214 2621 L-10186 2587 L-10150 2550 L-10137 2519 L-10124 2491 L-10105 2469 L-10087 2453 L-10067 2436 L-10049 2419 L-10029 2402 L-10009 2385 L-9988 2367 L-9971 2349 L-9953 2332 L-9932 2316 L-9912 2300 L-9894 2282 L-9875 2263 L-9855 2244 L-9835 2226 L-9817 2208 L-9798 2191 L-9776 2175 L-9752 2158 L-9737 2143 L-9720 2128 L-9700 2112 L-9681 2097 L-9662 2081 L-9643 2064 L-9623 2048 L-9602 2033 L-9584 2018 L-9566 2005 L-9545 1992 L-9524 1979 L-9507 1969 L-9488 1958 L-9468 1948 L-9449 1939 L-9430 1929 L-9411 1921 L-9391 1913 L-9371 1906 L-9352 1899 L-9334 1892 L-9306 1883 L-9285 1874 L-9257 1863 L-9223 1852 L-9209 1842 L-9196 1834 L-9177 1827 L-9158 1820 L-9139 1813 L-9120 1805 L-9101 1798 L-9081 1790 L-9060 1783 L-9043 1776 L-9024 1769 L-9004 1761 L-8984 1753 L-8965 1744 L-8947 1733 L-8927 1723 L-8907 1712 L-8888 1702 L-8869 1691 L-8848 1679 L-8824 1666 L-8809 1653 L-8792 1641 L-8772 1629 L-8753 1617 L-8733 1604 L-8714 1590 L-8694 1578 L-8674 1565 L-8656 1553 L-8637 1541 L-8617 1530 L-8596 1518 L-8579 1508 L-8560 1498 L-8540 1488 L-8521 1479 L-8501 1470 L-8482 1461 L-8462 1453 L-8443 1444 L-8424 1435 L-8405 1426 L-8376 1417 L-8356 1409 L-8329 1401 L-8291 1391 L-8276 1381 L-8264 1372 L-8247 1364 L-8230 1358 L-8210 1352 L-8191 1347 L-8172 1342 L-8152 1337 L-8132 1332 L-8114 1326 L-8095 1320 L-8075 1314 L-8055 1308 L-8037 1301 L-8018 1294 L-7998 1286 L-7978 1278 L-7959 1270 L-7941 1262 L-7920 1255 L-7895 1247 L-7881 1239 L-7863 1231 L-7843 1223 L-7824 1216 L-7805 1207 L-7786 1199 L-7766 1190 L-7746 1182 L-7727 1174 L-7708 1167 L-7688 1159 L-7668 1152 L-7650 1146 L-7631 1139 L-7611 1132 L-7593 1126 L-7573 1119 L-7554 1113 L-7534 1106 L-7515 1100 L-7495 1094 L-7476 1088 L-7448 1082 L-7428 1075 L-7400 1068 L-7364 1058 L-7350 1049 L-7337 1040 L-7319 1033 L-7301 1028 L-7281 1023 L-7263 1016 L-7243 1010 L-7223 1003 L-7202 996 L-7184 988 L-7167 980 L-7146 971 L-7126 962 L-7108 952 L-7089 942 L-7069 932 L-7049 922 L-7031 914 L-7012 906 L-6991 900 L-6966 895 L-6951 891 L-6934 886 L-6915 881 L-6895 876 L-6876 870 L-6857 865 L-6837 860 L-6816 856 L-6799 852 L-6780 848 L-6759 842 L-6738 835 L-6722 829 L-6702 824 L-6682 820 L-6664 817 L-6644 814 L-6625 811 L-6605 807 L-6586 804 L-6567 800 L-6548 797 L-6520 793 L-6499 790 L-6472 786 L-6437 782 L-6423 778 L-6410 775 L-6391 772 L-6373 769 L-6353 767 L-6334 764 L-6315 761 L-6295 759 L-6274 756 L-6257 754 L-6238 751 L-6217 748 L-6198 745 L-6179 742 L-6161 739 L-6141 737 L-6121 734 L-6102 732 L-6083 729 L-6062 726 L-6037 724 L-6023 722 L-6006 720 L-5986 717 L-5967 715 L-5947 712 L-5928 709 L-5909 706 L-5888 703 L-5870 701 L-5851 698 L-5831 696 L-5810 693 L-5793 691 L-5774 689 L-5754 686 L-5735 684 L-5715 682 L-5697 680 L-5677 679 L-5657 677 L-5638 675 L-5619 678 L-5590 681 L-5571 684 L-5543 686 L-5505 684 L-5490 682 L-5478 680 L-5460 678 L-5444 677 L-5424 676 L-5406 674 L-5386 673 L-5366 671 L-5345 670 L-5328 669 L-5310 667 L-5289 666 L-5269 664 L-5251 663 L-5232 661 L-5212 659 L-5192 658 L-5174 656 L-5155 655 L-5134 654 L-5109 653 L-5094 651 L-5077 649 L-5057 648 L-5038 646 L-5019 645 L-5000 643 L-4980 641 L-4959 639 L-4942 637 L-4923 635 L-4902 633 L-4882 631 L-4864 629 L-4845 627 L-4825 625 L-4807 624 L-4787 621 L-4768 619 L-4748 617 L-4728 616 L-4709 614 L-4691 613 L-4663 611 L-4642 609 L-4614 607 L-4580 605 L-4566 603 L-4553 602 L-4534 600 L-4515 598 L-4495 597 L-4477 595 L-4457 594 L-4438 592 L-4417 590 L-4400 589 L-4381 587 L-4360 585 L-4340 583 L-4322 581 L-4303 579 L-4284 576 L-4263 573 L-4245 571 L-4226 569 L-4205 567 L-4180 564 L-4165 562 L-4148 559 L-4129 557 L-4109 555 L-4090 552 L-4071 550 L-4051 548 L-4030 546 L-4013 543 L-3994 541 L-3973 539 L-3953 537 L-3936 536 L-3917 534 L-3897 533 L-3878 531 L-3858 530 L-3839 528 L-3820 527 L-3800 526 L-3781 525 L-3762 524 L-3734 522 L-3714 521 L-3686 520 L-3650 517 L-3637 515 L-3624 513 L-3605 510 L-3587 509 L-3567 508 L-3549 506 L-3529 505 L-3509 503 L-3488 502 L-3471 500 L-3453 498 L-3432 496 L-3412 495 L-3394 493 L-3375 491 L-3355 489 L-3335 487 L-3317 485 L-3298 484 L-3276 482 L-3251 481 L-3237 479 L-3220 478 L-3200 476 L-3181 474 L-3162 472 L-3143 470 L-3123 468 L-3102 465 L-3084 463 L-3065 461 L-3045 459 L-3024 457 L-3007 455 L-2988 454 L-2968 453 L-2949 452 L-2930 451 L-2911 449 L-2891 448 L-2871 447 L-2852 446 L-2833 445 L-2806 444 L-2785 443 L-2757 442 L-2723 440 L-2709 439 L-2696 438 L-2677 437 L-2658 436 L-2639 436 L-2620 435 L-2601 434 L-2581 433 L-2560 432 L-2543 431 L-2524 430 L-2504 429 L-2484 428 L-2465 427 L-2447 426 L-2427 426 L-2406 425 L-2388 424 L-2369 424 L-2348 423 L-2324 422 L-2309 421 L-2292 420 L-2272 419 L-2253 418 L-2233 418 L-2214 417 L-2195 416 L-2174 414 L-2156 412 L-2137 410 L-2117 408 L-2096 407 L-2078 405 L-2059 404 L-2040 403 L-2021 402 L-2001 400 L-1982 399 L-1962 398 L-1943 397 L-1924 396 L-1905 395 L-1876 394 L-1829 394 L-1792 393 L-1777 392 L-1764 391 L-1747 390 L-1730 389 L-1710 389 L-1691 388 L-1672 388 L-1652 387 L-1632 386 L-1614 386 L-1595 385 L-1575 384 L-1556 384 L-1537 383 L-1518 382 L-1498 381 L-1478 380 L-1460 379 L-1441 378 L-1420 377 L-1395 375 L-1380 374 L-1363 372 L-1343 371 L-1324 370 L-1305 368 L-1286 367 L-1266 366 L-1245 365 L-1227 363 L-1208 362 L-1188 361 L-1168 360 L-1150 359 L-1131 358 L-1111 357 L-1092 356 L-1073 355 L-1054 354 L-1034 353 L-1015 352 L-995 351 L-976 350 L-948 349 L-928 348 L-900 347 L-863 345 L-849 343 L-836 341 L-818 339 L-801 338 L-781 337 L-763 336 L-743 336 L-723 335 L-702 334 L-685 333 L-667 332 L-646 331 L-626 329 L-608 328 L-589 326 L-569 324 L-548 322 L-531 320 L-512 319 L-491 317 L-466 316 L-451 315 L-433 313 L-415 312 L-394 311 L-376 310 L-357 308 L-337 307 L-316 305 L-299 304 L-279 303 L-259 302 L-238 301 L-221 299 L-202 298 L-183 297 L-164 296 L-144 295 L-125 294 L-105 293 L-85 292 L-66 292 L-48 291 L-20 998 L0 997 L27 996 L63 994 L77 284 L91 283 L109 282 L127 281 L146 280 L165 280 L184 279 L204 278 L225 276 L242 275 L261 273 L282 272 L302 270 L320 268 L339 266 L358 264 L379 263 L397 262 L416 261 L437 260 L462 258 L477 256 L507 254 L546 252 L569 250 L599 248 L615 246 L629 244 L648 243 L668 242 L689 241 L706 240 L725 239 L745 238 L764 237 L784 236 L803 236 L822 235 L843 234 L861 233 L880 232 L908 232 L928 231 L956 230 L991 228 L1005 227 L1037 226 L1055 225 L1075 225 L1094 224 L1113 223 L1133 223 L1154 222 L1171 221 L1189 219 L1210 217 L1231 214 L1248 210 L1267 207 L1287 204 L1307 202 L1325 200 L1344 199 L1366 198 L1391 196 L1405 195 L1423 194 L1441 192 L1462 191 L1480 190 L1500 189 L1519 187 L1541 186 L1557 184 L1577 183 L1597 182 L1618 181 L1635 180 L1654 179 L1674 178 L1693 177 L1712 176 L1731 175 L1751 174 L1771 173 L1790 172 L1808 172 L1836 171 L1857 170 L1927 168 L1955 166 L1969 164 L1984 161 L2004 160 L2022 159 L2041 158 L2061 157 L2082 156 L2099 155 L2118 154 L2139 153 L2159 153 L2177 152 L2196 150 L2216 149 L2236 148 L2254 146 L2273 145 L2294 145 L2319 144 L2334 143 L2351 142 L2370 140 L2390 139 L2409 138 L2428 136 L2448 135 L2469 135 L2486 134 L2505 133 L2526 132 L2547 131 L2563 130 L2621 129 L2641 128 L2660 127 L2679 127 L2700 126 L2718 125 L2737 125 L2765 124 L2785 123 L2813 123 L2850 122 L2864 121 L2877 121 L2895 120 L2912 120 L2932 119 L2951 119 L2970 118 L2990 118 L3011 118 L3028 117 L3046 117 L3067 116 L3087 116 L3106 115 L3124 114 L3144 113 L3165 113 L3182 112 L3201 111 L3223 111 L3248 110 L3262 110 L3279 109 L3299 108 L3319 108 L3337 107 L3357 106 L3376 105 L3398 104 L3414 103 L3434 102 L3454 102 L3475 101 L3492 101 L3511 100 L3531 100 L3550 99 L3569 99 L3588 99 L3608 98 L3628 98 L3647 98 L3666 97 L3693 97 L3714 96 L3742 96 L3777 95 L3791 94 L3804 94 L3822 94 L3841 93 L3861 92 L3879 92 L3918 92 L3939 91 L3956 91 L3975 90 L3995 89 L4015 89 L4034 88 L4052 87 L4072 86 L4092 86 L4111 85 L4130 85 L4151 84 L4175 84 L4190 83 L4207 83 L4227 82 L4246 82 L4266 81 L4284 80 L4305 80 L4325 79 L4343 78 L4362 78 L4383 77 L4403 77 L4420 76 L4439 76 L4459 75 L4478 75 L4498 74 L4517 74 L4536 74 L4556 73 L4575 73 L4594 72 L4623 72 L4671 71 L4708 71 L4723 70 L4736 70 L4753 69 L4769 69 L4789 69 L4808 68 L4827 68 L4847 68 L4868 67 L4885 67 L4904 67 L4924 67 L4943 67 L4962 66 L4981 66 L5001 66 L5021 65 L5039 65 L5058 64 L5079 64 L5104 63 L5119 63 L5136 62 L5156 61 L5175 60 L5194 59 L5213 58 L5233 56 L5254 55 L5272 54 L5291 53 L5311 52 L5331 51 L5349 50 L5368 49 L5388 48 L5407 47 L5426 46 L5445 46 L5465 45 L5484 44 L5504 43 L5523 41 L5551 40 L5571 39 L5599 39 L5636 38 L5651 37 L5664 36 L5681 36 L5698 35 L5718 34 L5736 34 L5756 33 L5776 33 L5797 32 L5814 31 L5832 30 L5853 29 L5874 28 L5891 27 L5911 27 L5930 26 L5951 25 L5968 24 L5987 24 L6009 23 L6033 22 L6049 21 L6066 20 L6085 19 L6105 18 L6123 17 L6143 16 L6162 15 L6184 13 L6200 12 L6220 11 L6240 10 L6261 9 L6278 8 L6297 8 L6316 7 L6335 7 L6355 6 L6374 5 L6394 4 L6413 3 L6432 3 L6451 2 L6500 1" />
</svg>
