<svg xmlns="http://www.w3.org/2000/svg" version="1.1" viewBox="0 0 6500 1000">
	<path fill="none" stroke="gold" stroke-width="125" stroke-linecap="round" stroke-linejoin="round" d="M0 1074  L-713416 1074 L-710812 1074 L-709144 1074 L-690815 1073 L-690645 1073 L-683487 1072 L-683454 1072 L-670023 1072 L-667101 1072 L-653760 1072 L-649591 1071 L-648431 1069 L-647812 1068 L-645800 1067 L-642028 1067 L-641428 1066 L-641100 1066 L-640887 1065 L-640345 1065 L-639107 1063 L-637928 1061 L-635063 1059 L-634541 1057 L-629686 1056 L-626748 1056 L-626706 1055 L-626397 1055 L-626145 1054 L-623550 1054 L-619295 1054 L-619277 1054 L-618040 1054 L-616163 1054 L-614209 1053 L-613261 1053 L-612990 1052 L-612681 1052 L-612583 1051 L-611752 1051 L-609721 1052 L-609431 1049 L-607285 1048 L-607129 1047 L-603473 1045 L-603222 1046 L-603123 1046 L-602606 1047 L-600455 1048 L-599526 1049 L-598000 1050 L-596760 1050 L-595214 1050 L-592252 1050 L-591130 1049 L-590821 1049 L-589610 1048 L-586603 1051 L-586584 1051 L-586236 1051 L-586023 1050 L-585897 1047 L-585655 1046 L-585617 1046 L-585598 1045 L-585578 1045 L-585520 1044 L-585461 1044 L-585443 1043 L-585000 1043 L-583760 1042 L-582215 1042 L-578827 1041 L-573101 1041 L-572899 1041 L-571263 1041 L-569541 1040 L-568109 1040 L-567877 1040 L-567162 1039 L-561029 1039 L-560662 1039 L-560507 1038 L-559929 1038 L-559636 1037 L-558669 1037 L-558359 1036 L-557760 1036 L-556154 1036 L-555419 1036 L-555109 1036 L-554341 1036 L-552305 1035 L-551880 1035 L-551067 1035 L-543638 1034 L-543115 1034 L-542942 1033 L-542207 1033 L-540639 1032 L-540233 1032 L-538008 1031 L-537060 1031 L-536636 1031 L-536305 1031 L-535261 1031 L-533153 1030 L-532901 1030 L-532282 1029 L-531470 1029 L-529362 1028 L-529313 1028 L-527385 1027 L-527059 1027 L-526924 1026 L-526421 1026 L-525008 1025 L-524505 1024 L-523984 1024 L-520424 1023 L-519689 1022 L-517264 1022 L-515975 1021 L-515568 1021 L-512415 1021 L-512260 1021 L-512240 1021 L-511874 1021 L-510615 1021 L-509900 1022 L-509010 1022 L-508603 1022 L-507675 1022 L-506566 1021 L-506263 1022 L-500014 1023 L-499067 1023 L-497441 1024 L-496939 1024 L-493263 1024 L-492431 1025 L-488478 1025 L-487066 1024 L-484577 1024 L-483900 1023 L-483861 1023 L-482991 1023 L-479779 1023 L-476916 1022 L-475948 1022 L-474827 1022 L-474808 1021 L-473183 1021 L-472719 1020 L-472627 1020 L-466258 1019 L-465309 1019 L-462852 1019 L-461980 1018 L-460744 1018 L-458742 1018 L-458345 1017 L-456908 1017 L-454882 1017 L-454669 1016 L-453489 1016 L-451981 1016 L-451960 1015 L-449948 1015 L-449079 1014 L-448208 1014 L-447623 1014 L-447086 1013 L-446428 1013 L-445190 1012 L-444629 1012 L-443448 1012 L-442211 1011 L-442172 1011 L-441785 1011 L-441244 1010 L-440470 1010 L-439348 1010 L-437258 1009 L-436925 1009 L-436639 1008 L-435711 1008 L-435228 1008 L-434492 1007 L-430861 1007 L-429733 1007 L-429578 1007 L-428552 1006 L-424838 1006 L-423620 1005 L-421802 1005 L-419016 1005 L-418455 1004 L-414567 1004 L-412090 1004 L-410755 1004 L-410252 1004 L-409769 1003 L-407080 1003 L-403308 1003 L-400851 1003 L-399671 1003 L-399032 1003 L-396672 1002 L-396595 1002 L-395547 1002 L-395454 1001 L-394951 1001 L-394505 1001 L-394448 1001 L-394234 1001 L-391275 1001 L-388567 1001 L-388412 1000 L-384891 1000 L-384368 1000 L-383401 999 L-383052 999 L-382008 998 L-381080 998 L-380654 998 L-379145 998 L-378178 997 L-378159 997 L-376263 978 L-376147 959 L-376099 940 L-376075 922 L-373071 921 L-371040 921 L-369279 921 L-368912 920 L-368467 920 L-368100 920 L-367686 919 L-365701 919 L-365488 919 L-365333 918 L-363727 918 L-362606 918 L-361657 918 L-360400 917 L-358755 917 L-357576 917 L-350986 916 L-350940 916 L-350534 916 L-349489 916 L-349354 915 L-347671 915 L-347651 915 L-346314 914 L-345078 914 L-344924 914 L-344550 913 L-344344 913 L-344034 913 L-343260 912 L-340939 912 L-340281 912 L-338153 911 L-336431 911 L-336237 911 L-333684 910 L-333408 910 L-333220 909 L-332387 909 L-331615 909 L-330917 909 L-325916 909 L-325540 908 L-321287 908 L-320800 933 L-320781 933 L-320702 933 L-320626 933 L-320607 907 L-319794 906 L-319040 906 L-317821 905 L-316389 905 L-316293 905 L-316118 905 L-315764 905 L-314455 904 L-312597 904 L-310895 904 L-310392 903 L-310127 903 L-309734 903 L-309600 903 L-308690 902 L-308313 902 L-307385 902 L-307046 902 L-307006 902 L-306969 902 L-305053 902 L-304879 901 L-303351 901 L-303022 901 L-302906 901 L-302499 900 L-302151 900 L-300507 900 L-299956 899 L-299713 899 L-299172 899 L-298341 898 L-297799 898 L-296264 898 L-296172 897 L-296135 897 L-295999 897 L-295612 897 L-294587 896 L-292711 896 L-292615 896 L-292014 904 L-291647 913 L-291163 922 L-291125 930 L-290351 931 L-290293 930 L-290119 930 L-289925 930 L-288320 929 L-288300 929 L-288145 929 L-288029 930 L-286850 930 L-286695 931 L-286028 931 L-283580 952 L-281065 973 L-278395 994 L-270696 1014 L-265028 1014 L-262814 1014 L-262790 1014 L-261817 1019 L-261797 1019 L-260933 1019 L-258193 1019 L-252394 1013 L-252241 1013 L-249455 1012 L-235846 1012 L-235101 1012 L-230690 1011 L-214344 1011 L-214112 1010 L-213574 1010 L-205115 1010 L-196409 1010 L-196197 1009 L-194225 1009 L-191438 1009 L-186951 1009 L-186796 1009 L-186627 1009 L-186487 1009 L-186196 1008 L-186157 1008 L-185886 1008 L-185715 1008 L-185305 1007 L-184184 1007 L-183004 1007 L-181727 1007 L-178863 1006 L-175943 1006 L-173951 1006 L-172403 1005 L-169365 1005 L-160041 1005 L-159517 1005 L-153793 1005 L-152286 1004 L-151471 1004 L-149788 1004 L-149067 1004 L-148898 1003 L-147853 1003 L-145786 1003 L-144424 1002 L-139981 1002 L-139883 1002 L-139845 1002 L-139826 1001 L-138993 1001 L-138916 1001 L-136343 1000 L-133094 1000 L-132939 1000 L-131991 1000 L-130250 999 L-129534 1001 L-125993 1002 L-119416 1004 L-117999 1006 L-117978 1005 L-117028 1005 L-113553 1005 L-112800 1004 L-112238 1004 L-111456 1004 L-103952 1004 L-102354 1003 L-100780 1003 L-97594 1003 L-93261 1002 L-84692 1002 L-75945 1002 L-72871 1002 L-69605 1001 L-69059 1001 L-61922 1001 L-56254 1001 L-42189 1001 L-36178 1001 L-31472 1001 L-27469 1000 L-22361 1000 L-12647 1000 L2923 999 L6005 999 L6307 884 L6327 743 L6346 582 L6366 402 L6385 320 L6405 251 L6423 188 L6451 125 L6472 64 L6500 0" />
</svg>
