<svg xmlns="http://www.w3.org/2000/svg" version="1.1" viewBox="0 0 6500 1000">
	<path fill="none" stroke="gold" stroke-width="125" stroke-linecap="round" stroke-linejoin="round" d="M0 28736  L-326262 28736 L-323658 28641 L-321990 28545 L-303660 28354 L-303490 28164 L-296332 27973 L-296299 27973 L-282868 27877 L-279946 27973 L-266605 27687 L-262436 27305 L-261276 26828 L-260657 26351 L-258645 26064 L-254874 25874 L-254274 25683 L-253945 25492 L-253732 25301 L-253190 25110 L-251952 24347 L-250773 23583 L-247909 22820 L-247387 22057 L-242531 21866 L-239594 21675 L-239551 21484 L-239243 21293 L-238991 21103 L-236396 20912 L-232140 20912 L-232122 20912 L-230886 20912 L-229008 20912 L-227055 20721 L-226107 20530 L-225836 20339 L-225526 20244 L-225428 20148 L-224598 20148 L-222567 20244 L-222276 19385 L-220130 19003 L-219974 18431 L-216318 17858 L-216067 18145 L-215968 18049 L-215451 18335 L-213300 18812 L-212371 19290 L-210845 19767 L-209606 19767 L-208059 19671 L-205098 19480 L-203976 19290 L-203666 19099 L-202455 19003 L-199449 20053 L-199429 19958 L-199082 19862 L-198868 19767 L-198742 18431 L-198501 18240 L-198463 18049 L-198443 17858 L-198424 17667 L-198365 17477 L-198306 17286 L-198288 17095 L-197845 16904 L-196606 16713 L-195060 16522 L-191672 16332 L-185946 16236 L-185745 16141 L-184109 16045 L-182387 15950 L-180955 15854 L-180722 15759 L-180007 15664 L-173875 15568 L-173507 15377 L-173353 15187 L-172774 14996 L-172482 14805 L-171514 14614 L-171205 14423 L-170606 14232 L-169000 14232 L-168264 14232 L-167955 14328 L-167186 14328 L-165150 14137 L-164725 13946 L-163912 13851 L-156484 13660 L-155961 13469 L-155787 13278 L-155052 13087 L-153484 12896 L-153079 12801 L-150854 12610 L-149906 12515 L-149481 12419 L-149151 12419 L-148107 12324 L-145999 12133 L-145747 11942 L-145128 11751 L-144315 11656 L-142207 11465 L-142159 11274 L-140230 11083 L-139905 10893 L-139770 10702 L-139266 10606 L-137854 10416 L-137351 10034 L-136829 9748 L-133269 9366 L-132534 8984 L-130109 8984 L-128820 8793 L-128413 8698 L-125261 8698 L-125106 8698 L-125086 8793 L-124719 8793 L-123461 8889 L-122746 8984 L-121856 8984 L-121449 8984 L-120520 8984 L-119412 8889 L-119108 9270 L-112860 9461 L-111912 9652 L-110286 9843 L-109784 9938 L-106109 10034 L-105276 10129 L-101323 10225 L-99911 9938 L-97422 9748 L-96746 9557 L-96707 9461 L-95836 9461 L-92625 9366 L-89762 9270 L-88794 9175 L-87672 8984 L-87653 8793 L-86028 8603 L-85564 8316 L-85472 8221 L-79103 8125 L-78154 8030 L-75697 7935 L-74825 7744 L-73589 7648 L-71588 7553 L-71190 7362 L-69754 7171 L-67728 7076 L-67514 6885 L-66334 6790 L-64826 6694 L-64806 6599 L-62794 6503 L-61924 6312 L-61053 6217 L-60468 6026 L-59931 5835 L-59273 5645 L-58035 5454 L-57475 5358 L-56294 5263 L-55056 5167 L-55018 5072 L-54631 4977 L-54089 4786 L-53315 4690 L-52193 4595 L-50104 4404 L-49770 4213 L-49485 4022 L-48556 3927 L-48073 3736 L-47337 3641 L-43706 3545 L-42579 3450 L-42424 3354 L-41398 3164 L-37683 3068 L-36466 2877 L-34647 2687 L-31862 2591 L-31300 2400 L-27412 2400 L-24936 2305 L-23601 2305 L-23097 2209 L-22614 2114 L-19925 2114 L-16153 2114 L-13696 2114 L-12516 2114 L-11877 2019 L-9518 1828 L-9440 1732 L-8393 1637 L-8299 1446 L-7796 1446 L-7351 1446 L-7293 1446 L-7079 1446 L-4120 1255 L-1412 1160 L-1257 1064 L2262 969 L2785 778 L3753 587 L4102 492 L5145 301 L6074 110 L6500 15" />
</svg>
