<svg xmlns="http://www.w3.org/2000/svg" version="1.1" viewBox="0 0 6500 1000">
	<path fill="none" stroke="gold" stroke-width="125" stroke-linecap="round" stroke-linejoin="round" d="M0 1015  L-719036 1015 L-716432 1015 L-714764 1015 L-696435 1015 L-696264 1015 L-689107 1015 L-689074 1015 L-675643 1015 L-672721 1015 L-659380 1015 L-655211 1014 L-654051 1014 L-653432 1014 L-651420 1014 L-647648 1014 L-647048 1014 L-646719 1013 L-646506 1013 L-645965 1013 L-644727 1013 L-643548 1012 L-640683 1012 L-640161 1012 L-635305 1011 L-632368 1011 L-632325 1011 L-632017 1011 L-631765 1011 L-629170 1011 L-624915 1011 L-624897 1011 L-623660 1011 L-621782 1011 L-619829 1011 L-618881 1011 L-618610 1011 L-618300 1010 L-618202 1010 L-617372 1010 L-615341 1010 L-615051 1010 L-612904 1010 L-612749 1009 L-609092 1009 L-608841 1009 L-608743 1009 L-608226 1009 L-606075 1010 L-605146 1010 L-603620 1010 L-602380 1010 L-600834 1010 L-597872 1010 L-596750 1010 L-596441 1010 L-595230 1010 L-592223 1010 L-592203 1010 L-591856 1010 L-591643 1010 L-591517 1009 L-591275 1009 L-591237 1009 L-591217 1009 L-591198 1009 L-591139 1009 L-591081 1009 L-591063 1009 L-590620 1009 L-589380 1009 L-587834 1008 L-584447 1008 L-578720 1008 L-578519 1008 L-576883 1008 L-575161 1008 L-573729 1008 L-573497 1008 L-572781 1008 L-566649 1008 L-566281 1008 L-566127 1008 L-565549 1008 L-565256 1007 L-564289 1007 L-563979 1007 L-563380 1007 L-561774 1007 L-561039 1007 L-560729 1007 L-559961 1007 L-557925 1007 L-557499 1007 L-556687 1007 L-549258 1007 L-548735 1007 L-548562 1007 L-547827 1007 L-546259 1006 L-545853 1006 L-543628 1006 L-542680 1006 L-542255 1006 L-541925 1006 L-540881 1006 L-538773 1006 L-538521 1006 L-537902 1006 L-537089 1006 L-534981 1006 L-534933 1005 L-533005 1005 L-532679 1005 L-532544 1005 L-532041 1005 L-530628 1005 L-530125 1005 L-529603 1005 L-526044 1004 L-525309 1004 L-522884 1004 L-521594 1004 L-521188 1004 L-518035 1004 L-517880 1004 L-517860 1004 L-517493 1004 L-516235 1004 L-515520 1004 L-514630 1004 L-514223 1004 L-513295 1004 L-512186 1004 L-511883 1004 L-505634 1004 L-504687 1005 L-503060 1005 L-502559 1005 L-498883 1005 L-498051 1005 L-494098 1005 L-492686 1005 L-490196 1005 L-489520 1005 L-489481 1004 L-488610 1004 L-485399 1004 L-482536 1004 L-481568 1004 L-480447 1004 L-480428 1004 L-478803 1004 L-478338 1004 L-478247 1004 L-471877 1004 L-470929 1004 L-468472 1004 L-467599 1004 L-466363 1003 L-464362 1003 L-463965 1003 L-462528 1003 L-460502 1003 L-460289 1003 L-459109 1003 L-457600 1003 L-457580 1003 L-455568 1003 L-454698 1003 L-453828 1003 L-453243 1003 L-452706 1002 L-452048 1002 L-450810 1002 L-450249 1002 L-449068 1002 L-447830 1002 L-447792 1002 L-447405 1002 L-446863 1002 L-446090 1002 L-444967 1002 L-442878 1002 L-442545 1002 L-442259 1001 L-441330 1001 L-440847 1001 L-440112 1001 L-436481 1001 L-435353 1001 L-435198 1001 L-434172 1001 L-430458 1001 L-429240 1001 L-427422 1001 L-424636 1001 L-424075 1001 L-420187 1001 L-417710 1000 L-416375 1000 L-415872 1000 L-415389 1000 L-412699 1000 L-408928 1000 L-406471 1000 L-405291 1000 L-404652 1000 L-402292 1000 L-402215 1000 L-401167 1000 L-401073 1000 L-400571 1000 L-400125 1000 L-400068 1000 L-399854 1000 L-396894 1000 L-394187 1000 L-394032 1000 L-390511 1000 L-389988 1000 L-389021 1000 L-388672 999 L-387628 999 L-386700 999 L-386274 999 L-384765 999 L-383798 999 L-383779 999 L-381883 995 L-381767 991 L-381719 987 L-381695 983 L-378691 983 L-376660 983 L-374899 983 L-374532 983 L-374086 983 L-373719 983 L-373306 983 L-371321 983 L-371107 983 L-370952 983 L-369347 983 L-368225 983 L-367277 983 L-366020 983 L-364375 982 L-363196 982 L-356606 982 L-356560 982 L-356154 982 L-355109 982 L-354973 982 L-353291 982 L-353271 982 L-351934 982 L-350698 982 L-350544 982 L-350170 982 L-349963 982 L-349654 981 L-348880 981 L-346559 981 L-345901 981 L-343773 981 L-342051 981 L-341857 981 L-339304 981 L-339027 981 L-338839 981 L-338007 981 L-337234 981 L-336536 981 L-331536 981 L-331160 981 L-326907 980 L-326420 986 L-326401 986 L-326322 986 L-326246 986 L-326226 980 L-325414 980 L-324660 980 L-323441 980 L-322009 980 L-321913 980 L-321738 980 L-321384 980 L-320074 980 L-318217 980 L-316515 980 L-316012 980 L-315747 980 L-315354 979 L-315219 979 L-314310 979 L-313933 979 L-313005 979 L-312666 979 L-312626 979 L-312588 979 L-310673 979 L-310499 979 L-308970 979 L-308642 979 L-308526 979 L-308119 979 L-307771 979 L-306127 979 L-305576 979 L-305333 979 L-304792 979 L-303960 979 L-303419 978 L-301884 978 L-301792 978 L-301755 978 L-301619 978 L-301232 978 L-300207 978 L-298331 978 L-298234 978 L-297634 980 L-297267 981 L-296782 983 L-296744 985 L-295970 985 L-295913 985 L-295738 985 L-295545 985 L-293940 985 L-293920 985 L-293764 985 L-293649 985 L-292469 985 L-292315 985 L-291648 985 L-289200 990 L-286685 994 L-284015 998 L-276316 1003 L-270648 1003 L-268433 1003 L-268410 1003 L-267436 1004 L-267416 1004 L-266553 1004 L-263812 1004 L-258014 1002 L-257860 1002 L-255075 1002 L-241466 1002 L-240720 1002 L-236310 1002 L-219963 1002 L-219731 1002 L-219194 1002 L-210735 1002 L-202029 1002 L-201817 1002 L-199844 1002 L-197058 1002 L-192571 1002 L-192416 1002 L-192247 1002 L-192106 1002 L-191816 1001 L-191777 1001 L-191506 1001 L-191335 1001 L-190924 1001 L-189804 1001 L-188624 1001 L-187347 1001 L-184483 1001 L-181563 1001 L-179571 1001 L-178023 1001 L-174985 1001 L-165661 1001 L-165137 1001 L-159413 1001 L-157906 1001 L-157091 1001 L-155408 1000 L-154687 1000 L-154518 1000 L-153473 1000 L-151406 1000 L-150044 1000 L-145600 1000 L-145503 1000 L-145464 1000 L-145446 1000 L-144613 1000 L-144535 1000 L-141963 1000 L-138714 1000 L-138559 1000 L-137610 1000 L-135869 1000 L-135154 1000 L-131613 1000 L-125036 1000 L-123619 1001 L-123598 1001 L-122647 1001 L-119173 1001 L-118420 1001 L-117858 1001 L-117076 1000 L-109572 1000 L-107973 1000 L-106399 1000 L-103214 1000 L-98881 1000 L-90311 1000 L-81565 1000 L-78491 1000 L-75225 1000 L-74679 1000 L-67541 1000 L-61874 1000 L-47809 1000 L-41798 1000 L-37092 1000 L-33088 1000 L-27981 1000 L-18267 1000 L-2696 1000 L385 999 L688 976 L707 946 L726 913 L746 875 L765 858 L785 844 L803 830 L831 817 L852 805 L880 791 L915 776 L929 764 L942 753 L960 744 L979 738 L999 731 L1017 724 L1037 717 L1056 710 L1078 703 L1094 696 L1113 690 L1134 683 L1154 677 L1172 669 L1191 662 L1210 655 L1231 647 L1249 640 L1268 633 L1289 627 L1314 620 L1328 614 L1346 608 L1365 602 L1385 596 L1404 589 L1423 583 L1443 576 L1463 570 L1481 564 L1500 559 L1521 554 L1541 549 L1558 545 L1577 540 L1597 536 L1616 533 L1636 529 L1655 525 L1675 523 L1694 520 L1713 517 L1732 514 L1759 510 L1780 507 L1808 503 L1842 498 L1856 494 L1869 491 L1888 488 L1907 485 L1927 483 L1945 479 L1965 476 L1985 473 L2005 470 L2023 468 L2042 465 L2062 462 L2082 459 L2100 455 L2119 451 L2139 447 L2159 442 L2177 438 L2196 434 L2217 429 L2242 424 L2256 419 L2274 414 L2293 409 L2313 404 L2332 399 L2351 394 L2371 389 L2391 384 L2410 379 L2428 374 L2449 370 L2469 365 L2487 361 L2506 357 L2526 353 L2545 349 L2564 346 L2583 342 L2603 339 L2622 335 L2642 332 L2661 328 L2689 325 L2709 321 L2737 318 L2774 314 L2789 310 L2802 307 L2819 303 L2836 301 L2856 299 L2874 297 L2893 295 L2913 293 L2934 291 L2951 288 L2970 286 L2991 283 L3010 281 L3029 278 L3047 275 L3067 272 L3087 269 L3106 266 L3125 263 L3146 260 L3170 257 L3185 254 L3202 250 L3222 247 L3241 244 L3261 241 L3280 237 L3300 234 L3320 231 L3338 228 L3357 225 L3377 222 L3398 219 L3415 216 L3434 214 L3454 211 L3473 208 L3493 206 L3512 203 L3532 201 L3551 198 L3570 196 L3589 193 L3617 191 L3638 188 L3665 185 L3702 181 L3716 178 L3729 174 L3746 171 L3765 169 L3784 167 L3803 165 L3823 162 L3842 159 L3864 156 L3882 153 L3899 150 L3919 147 L3940 143 L3958 139 L3977 135 L3996 131 L4017 127 L4035 124 L4054 121 L4075 119 L4100 117 L4114 115 L4132 113 L4151 111 L4171 109 L4190 107 L4209 104 L4228 103 L4249 101 L4267 99 L4286 98 L4306 95 L4327 93 L4344 90 L4363 88 L4383 86 L4402 85 L4421 84 L4440 83 L4460 81 L4480 80 L4499 78 L4518 77 L4545 76 L4566 74 L4594 73 L4629 71 L4642 70 L4656 68 L4674 67 L4693 66 L4713 65 L4731 64 L4751 63 L4771 62 L4792 61 L4809 60 L4827 59 L4848 58 L4868 57 L4886 55 L4905 54 L4925 53 L4945 52 L4963 51 L4982 50 L5003 49 L5028 48 L5043 47 L5060 46 L5079 45 L5099 44 L5118 43 L5137 42 L5157 41 L5178 40 L5195 39 L5214 38 L5235 37 L5255 36 L5273 35 L5292 34 L5312 33 L5330 32 L5350 31 L5369 31 L5389 30 L5408 29 L5427 29 L5446 30 L5475 31 L5495 32 L5523 33 L5560 32 L5575 31 L5588 31 L5605 30 L5622 29 L5642 29 L5660 28 L5680 28 L5699 27 L5721 27 L5737 26 L5756 26 L5776 25 L5797 24 L5815 24 L5833 23 L5853 22 L5873 22 L5892 21 L5911 21 L5932 20 L5957 20 L5971 19 L5988 18 L6008 18 L6027 17 L6047 17 L6066 16 L6086 15 L6106 14 L6124 13 L6143 13 L6163 12 L6184 11 L6201 10 L6220 9 L6240 9 L6259 8 L6279 7 L6298 6 L6317 6 L6337 5 L6356 4 L6375 4 L6402 3 L6423 2 L6451 2 L6486 1 L6500 0" />
</svg>
