<svg xmlns="http://www.w3.org/2000/svg" version="1.1" viewBox="0 0 6500 1000">
	<path fill="none" stroke="gold" stroke-width="125" stroke-linecap="round" stroke-linejoin="round" d="M0 61439  L-341583 61439 L-338979 61338 L-337311 61238 L-318982 61037 L-318811 60836 L-311654 60635 L-311621 60635 L-298190 60534 L-295268 60635 L-281927 60333 L-277758 59931 L-276598 59429 L-275979 58926 L-273967 58625 L-270195 58424 L-269595 58223 L-269266 58022 L-269053 57821 L-268512 57620 L-267274 56816 L-266095 56012 L-263230 55208 L-262708 54404 L-257853 54203 L-254915 54002 L-254872 53801 L-254564 53600 L-254312 53398 L-251717 53197 L-247462 53197 L-247444 53197 L-246207 53197 L-244329 53197 L-242376 52996 L-241428 52795 L-241157 52594 L-240847 52494 L-240749 52393 L-239919 52393 L-237888 52494 L-237598 51589 L-235451 51187 L-235296 50584 L-231639 49981 L-231388 50283 L-231290 50182 L-230773 50484 L-228622 50986 L-227693 51489 L-226167 51991 L-224927 51991 L-223381 51891 L-220419 51690 L-219297 51489 L-218988 51288 L-217777 51187 L-214770 52293 L-214750 52192 L-214403 52092 L-214190 51991 L-214064 50584 L-213822 50383 L-213784 50182 L-213765 49981 L-213745 49780 L-213686 49579 L-213628 49378 L-213610 49177 L-213167 48976 L-211927 48775 L-210382 48574 L-206994 48373 L-201268 48273 L-201066 48172 L-199430 48072 L-197708 47971 L-196276 47871 L-196044 47770 L-195328 47670 L-189196 47569 L-188829 47368 L-188674 47167 L-188096 46966 L-187803 46765 L-186836 46564 L-186526 46363 L-185927 46162 L-184321 46162 L-183586 46162 L-183276 46263 L-182508 46263 L-180472 46062 L-180046 45861 L-179234 45760 L-171805 45559 L-171282 45358 L-171109 45157 L-170374 44956 L-168806 44755 L-168400 44655 L-166175 44454 L-165227 44353 L-164802 44253 L-164472 44253 L-163428 44152 L-161320 43951 L-161068 43750 L-160449 43549 L-159636 43449 L-157528 43248 L-157480 43047 L-155552 42846 L-155226 42645 L-155091 42444 L-154588 42343 L-153175 42142 L-152672 41740 L-152150 41439 L-148591 41037 L-147856 40635 L-145431 40635 L-144142 40434 L-143735 40333 L-140582 40333 L-140427 40333 L-140407 40434 L-140040 40434 L-138782 40534 L-138067 40635 L-137177 40635 L-136770 40635 L-135842 40635 L-134733 40534 L-134430 40936 L-128181 41137 L-127234 41338 L-125608 41539 L-125106 41640 L-121430 41740 L-120598 41841 L-116645 41941 L-115233 41640 L-112743 41439 L-112067 41238 L-112028 41137 L-111157 41137 L-107946 41037 L-105083 40936 L-104115 40836 L-102994 40635 L-102975 40434 L-101350 40233 L-100886 39931 L-100794 39831 L-94424 39730 L-93476 39630 L-91019 39529 L-90147 39328 L-88910 39228 L-86909 39127 L-86512 38926 L-85075 38725 L-83049 38625 L-82836 38424 L-81656 38323 L-80147 38223 L-80127 38122 L-78115 38022 L-77246 37821 L-76375 37720 L-75790 37519 L-75253 37318 L-74595 37117 L-73357 36916 L-72796 36816 L-71615 36715 L-70378 36615 L-70339 36514 L-69952 36414 L-69410 36213 L-68637 36112 L-67514 36012 L-65425 35811 L-65092 35610 L-64806 35409 L-63878 35308 L-63394 35107 L-62659 35007 L-59028 34906 L-57900 34806 L-57745 34705 L-56719 34504 L-53005 34404 L-51787 34203 L-49969 34002 L-47183 33901 L-46622 33700 L-42734 33700 L-40257 33600 L-38922 33600 L-38419 33499 L-37936 33398 L-35246 33398 L-31475 33398 L-29018 33398 L-27838 33398 L-27199 33298 L-24839 33097 L-24762 32996 L-23714 32896 L-23621 32695 L-23118 32695 L-22672 32695 L-22615 32695 L-22401 32695 L-19441 32494 L-16734 32393 L-16579 32293 L-13058 32192 L-12535 31991 L-11568 31790 L-11219 31690 L-10175 31489 L-9247 31288 L-8821 31187 L-7312 31187 L-6345 31087 L-6326 30986 L-4430 23650 L-4314 16112 L-4266 8675 L-4242 1238 L-1238 1137 L792 936 L2553 836 L2920 735 L3366 534 L3732 434 L4146 233 L6131 132 L6345 132 L6500 32" />
</svg>
