<svg xmlns="http://www.w3.org/2000/svg" version="1.1" viewBox="0 0 6500 1000">
	<path fill="none" stroke="gold" stroke-width="125" stroke-linecap="round" stroke-linejoin="round" d="M0 112289  L-403894 112289 L-401290 112123 L-399621 111958 L-381292 111628 L-381122 111297 L-373964 110966 L-373931 110966 L-360500 110801 L-357578 110966 L-344237 110471 L-340068 109809 L-338908 108983 L-338289 108157 L-336277 107661 L-332505 107330 L-331905 107000 L-331577 106669 L-331364 106338 L-330822 106008 L-329584 104685 L-328405 103363 L-325541 102041 L-325018 100719 L-320163 100388 L-317226 100057 L-317183 99727 L-316874 99396 L-316622 99066 L-314027 98735 L-309772 98735 L-309754 98735 L-308517 98735 L-306640 98735 L-304686 98404 L-303738 98074 L-303468 97743 L-303158 97578 L-303060 97413 L-302229 97413 L-300198 97578 L-299908 96090 L-297762 95429 L-297606 94438 L-293950 93446 L-293699 93942 L-293600 93776 L-293083 94272 L-290932 95099 L-290003 95925 L-288477 96752 L-287238 96752 L-285691 96586 L-282729 96256 L-281607 95925 L-281298 95595 L-280087 95429 L-277080 97247 L-277061 97082 L-276713 96917 L-276500 96752 L-276374 94438 L-276132 94107 L-276095 93776 L-276075 93446 L-276056 93115 L-275997 92785 L-275938 92454 L-275920 92123 L-275477 91793 L-274238 91462 L-272692 91132 L-269304 90801 L-263578 90636 L-263376 90471 L-261740 90305 L-260018 90140 L-258586 89975 L-258354 89809 L-257639 89644 L-251507 89479 L-251139 89148 L-250984 88818 L-250406 88487 L-250113 88157 L-249146 87826 L-248837 87495 L-248237 87165 L-246631 87165 L-245896 87165 L-245586 87330 L-244818 87330 L-242782 87000 L-242357 86669 L-241544 86504 L-234115 86173 L-233592 85842 L-233419 85512 L-232684 85181 L-231116 84851 L-230711 84685 L-228486 84355 L-227538 84190 L-227113 84024 L-226782 84024 L-225739 83859 L-223630 83528 L-223378 83198 L-222759 82867 L-221947 82702 L-219839 82371 L-219790 82041 L-217862 81710 L-217536 81380 L-217401 81049 L-216898 80884 L-215485 80553 L-214982 79892 L-214461 79396 L-210901 78735 L-210166 78074 L-207741 78074 L-206452 77743 L-206045 77578 L-202892 77578 L-202737 77578 L-202717 77743 L-202351 77743 L-201092 77909 L-200377 78074 L-199487 78074 L-199080 78074 L-198152 78074 L-197043 77909 L-196740 78570 L-190491 78900 L-189544 79231 L-187918 79561 L-187416 79727 L-183740 79892 L-182908 80057 L-178955 80223 L-177543 79727 L-175054 79396 L-174377 79066 L-174339 78900 L-173468 78900 L-170256 78735 L-167393 78570 L-166425 78404 L-165304 78074 L-165285 77743 L-163660 77413 L-163196 76917 L-163104 76752 L-156735 76586 L-155786 76421 L-153329 76256 L-152457 75925 L-151221 75760 L-149219 75595 L-148822 75264 L-147386 74933 L-145359 74768 L-145146 74438 L-143966 74272 L-142458 74107 L-142438 73942 L-140425 73776 L-139556 73446 L-138685 73280 L-138100 72950 L-137563 72619 L-136905 72289 L-135667 71958 L-135106 71793 L-133925 71628 L-132688 71462 L-132649 71297 L-132262 71132 L-131721 70801 L-130947 70636 L-129825 70471 L-127735 70140 L-127402 69809 L-127116 69479 L-126188 69314 L-125705 68983 L-124969 68818 L-121338 68652 L-120210 68487 L-120056 68322 L-119030 67991 L-115315 67826 L-114098 67495 L-112279 67165 L-109493 67000 L-108932 66669 L-105044 66669 L-102567 66504 L-101233 66504 L-100729 66338 L-100246 66173 L-97557 66173 L-93785 66173 L-91328 66173 L-90148 66173 L-89509 66008 L-87149 65677 L-87072 65512 L-86024 65347 L-85931 65016 L-85428 65016 L-84982 65016 L-84925 65016 L-84711 65016 L-81752 64685 L-79044 64520 L-78889 64355 L-75368 64190 L-74845 63859 L-73878 63528 L-73529 63363 L-72486 63033 L-71557 62702 L-71131 62537 L-69622 62537 L-68655 62371 L-68636 62206 L-66740 50140 L-66624 37743 L-66576 25512 L-66552 13280 L-63548 13115 L-61517 12785 L-59756 12619 L-59389 12454 L-58944 12123 L-58577 11958 L-58163 11628 L-56178 11462 L-55965 11462 L-55810 11297 L-54205 11297 L-53083 11132 L-52134 10966 L-50877 10636 L-49233 10471 L-48053 10140 L-41463 9975 L-41417 9809 L-41011 9644 L-39966 9479 L-39831 9314 L-38148 8983 L-38128 8818 L-36791 8487 L-35555 8322 L-35401 8157 L-35027 7826 L-34821 7661 L-34511 7495 L-33737 7165 L-31416 7000 L-30758 6834 L-28630 6669 L-26908 6504 L-26714 6173 L-24161 6008 L-23885 5677 L-23697 5347 L-22864 5181 L-22092 5016 L-21394 4851 L-16393 4851 L-16017 4520 L-11764 4355 L-11277 20719 L-11258 20719 L-11179 20553 L-11104 20388 L-11084 3528 L-10271 3363 L-9517 3033 L-8298 2867 L-6866 2867 L-6770 2702 L-6596 2702 L-6241 2371 L-4932 2206 L-3075 2041 L-1372 1710 L-869 1545 L-604 1380 L-211 1214 L-77 1049 L832 884 L1208 719 L2137 719 L2476 553 L2516 553 L2553 388 L4469 388 L4642 223 L6171 223 L6500 57" />
</svg>
