<svg xmlns="http://www.w3.org/2000/svg" version="1.1" viewBox="0 0 6500 1000">
	<path fill="none" stroke="gold" stroke-width="125" stroke-linecap="round" stroke-linejoin="round" d="M0 1052  L-713614 1052 L-711010 1052 L-709342 1052 L-691013 1052 L-690842 1051 L-683685 1051 L-683652 1051 L-670221 1051 L-667299 1051 L-653958 1050 L-649789 1050 L-648629 1049 L-648010 1048 L-645998 1047 L-642226 1047 L-641626 1046 L-641297 1046 L-641084 1046 L-640543 1045 L-639305 1044 L-638126 1043 L-635261 1041 L-634739 1040 L-629883 1039 L-626946 1039 L-626903 1039 L-626595 1038 L-626343 1038 L-623748 1038 L-619493 1038 L-619475 1038 L-618238 1038 L-616360 1038 L-614407 1037 L-613459 1037 L-613188 1036 L-612878 1036 L-612780 1036 L-611950 1036 L-609919 1036 L-609629 1035 L-607482 1034 L-607327 1033 L-603670 1032 L-603419 1032 L-603321 1032 L-602804 1033 L-600653 1034 L-599724 1034 L-598198 1035 L-596958 1035 L-595412 1035 L-592450 1035 L-591328 1034 L-591019 1034 L-589808 1034 L-586801 1036 L-586781 1036 L-586434 1036 L-586221 1035 L-586095 1033 L-585853 1032 L-585815 1032 L-585795 1032 L-585776 1031 L-585717 1031 L-585659 1031 L-585641 1030 L-585198 1030 L-583958 1030 L-582412 1029 L-579025 1029 L-573298 1029 L-573097 1029 L-571461 1028 L-569739 1028 L-568307 1028 L-568075 1028 L-567359 1028 L-561227 1027 L-560859 1027 L-560705 1027 L-560127 1026 L-559834 1026 L-558867 1026 L-558557 1025 L-557958 1025 L-556352 1025 L-555617 1025 L-555307 1025 L-554539 1025 L-552503 1025 L-552077 1024 L-551265 1024 L-543836 1024 L-543313 1024 L-543140 1023 L-542405 1023 L-540837 1022 L-540431 1022 L-538206 1022 L-537258 1022 L-536833 1022 L-536503 1022 L-535459 1021 L-533351 1021 L-533099 1021 L-532480 1020 L-531667 1020 L-529559 1020 L-529511 1019 L-527583 1019 L-527257 1019 L-527122 1018 L-526619 1018 L-525206 1018 L-524703 1017 L-524181 1017 L-520622 1016 L-519887 1015 L-517462 1015 L-516172 1015 L-515766 1015 L-512613 1015 L-512458 1015 L-512438 1015 L-512071 1015 L-510813 1015 L-510098 1015 L-509208 1015 L-508801 1015 L-507873 1015 L-506764 1015 L-506461 1016 L-500212 1016 L-499265 1016 L-497638 1017 L-497137 1017 L-493461 1017 L-492629 1017 L-488676 1017 L-487264 1017 L-484774 1017 L-484098 1016 L-484059 1016 L-483188 1016 L-479977 1016 L-477114 1016 L-476146 1015 L-475025 1015 L-475006 1015 L-473381 1014 L-472916 1014 L-472825 1014 L-466455 1013 L-465507 1013 L-463050 1013 L-462177 1013 L-460941 1013 L-458940 1012 L-458543 1012 L-457106 1012 L-455080 1011 L-454867 1011 L-453687 1011 L-452178 1011 L-452158 1011 L-450146 1010 L-449276 1010 L-448406 1010 L-447821 1009 L-447284 1009 L-446626 1009 L-445388 1008 L-444827 1008 L-443646 1008 L-442408 1008 L-442370 1008 L-441983 1008 L-441441 1007 L-440668 1007 L-439545 1007 L-437456 1006 L-437123 1006 L-436837 1006 L-435908 1006 L-435425 1005 L-434690 1005 L-431059 1005 L-429931 1005 L-429776 1004 L-428750 1004 L-425036 1004 L-423818 1004 L-422000 1003 L-419214 1003 L-418653 1003 L-414765 1003 L-412288 1002 L-410953 1002 L-410450 1002 L-409967 1002 L-407277 1002 L-403506 1002 L-401049 1002 L-399869 1002 L-399230 1002 L-396870 1002 L-396793 1001 L-395745 1001 L-395651 1001 L-395149 1001 L-394703 1001 L-394646 1001 L-394432 1001 L-391472 1001 L-388765 1000 L-388610 1000 L-385089 1000 L-384566 1000 L-383599 999 L-383250 999 L-382206 999 L-381278 998 L-380852 998 L-379343 998 L-378376 998 L-378357 998 L-376461 985 L-376345 971 L-376297 958 L-376273 945 L-373269 944 L-371238 944 L-369477 944 L-369110 944 L-368664 943 L-368297 943 L-367884 943 L-365899 943 L-365685 943 L-365530 943 L-363925 943 L-362803 942 L-361855 942 L-360598 942 L-358953 942 L-357774 941 L-351184 941 L-351138 941 L-350732 941 L-349687 941 L-349551 940 L-347869 940 L-347849 940 L-346512 939 L-345276 939 L-345122 939 L-344748 939 L-344541 939 L-344232 938 L-343458 938 L-341137 938 L-340479 938 L-338351 937 L-336629 937 L-336435 937 L-333882 937 L-333605 936 L-333417 936 L-332585 936 L-331812 936 L-331114 936 L-326114 936 L-325738 935 L-321485 935 L-320998 953 L-320979 953 L-320900 953 L-320824 952 L-320804 934 L-319992 934 L-319238 934 L-318019 933 L-316587 933 L-316491 933 L-316316 933 L-315962 933 L-314652 933 L-312795 932 L-311093 932 L-310590 932 L-310325 932 L-309932 932 L-309797 931 L-308888 931 L-308511 931 L-307583 931 L-307244 931 L-307204 931 L-307166 931 L-305251 931 L-305077 930 L-303548 930 L-303220 930 L-303104 930 L-302697 930 L-302349 930 L-300705 929 L-300154 929 L-299911 929 L-299370 929 L-298538 928 L-297997 928 L-296462 928 L-296370 928 L-296333 927 L-296197 927 L-295810 927 L-294785 927 L-292909 927 L-292812 927 L-292212 932 L-291845 938 L-291360 945 L-291322 951 L-290548 951 L-290491 951 L-290316 951 L-290123 950 L-288518 950 L-288498 950 L-288342 950 L-288227 950 L-287047 951 L-286893 951 L-286226 951 L-283778 966 L-281263 981 L-278593 995 L-270894 1010 L-265226 1010 L-263011 1010 L-262988 1010 L-262014 1013 L-261994 1013 L-261131 1013 L-258390 1013 L-252592 1009 L-252438 1009 L-249653 1009 L-236044 1008 L-235298 1008 L-230888 1008 L-214541 1008 L-214309 1007 L-213772 1007 L-205313 1007 L-196607 1007 L-196395 1006 L-194422 1006 L-191636 1006 L-187149 1006 L-186994 1006 L-186825 1006 L-186684 1006 L-186394 1006 L-186355 1006 L-186084 1005 L-185913 1005 L-185502 1005 L-184382 1005 L-183202 1005 L-181925 1004 L-179061 1004 L-176141 1004 L-174149 1004 L-172601 1004 L-169563 1003 L-160239 1003 L-159715 1003 L-153991 1003 L-152484 1003 L-151669 1003 L-149986 1002 L-149265 1002 L-149096 1002 L-148051 1002 L-145984 1002 L-144622 1002 L-140178 1001 L-140081 1001 L-140042 1001 L-140024 1001 L-139191 1001 L-139113 1000 L-136541 1000 L-133292 1000 L-133137 1000 L-132188 1000 L-130447 999 L-129732 1000 L-126191 1001 L-119614 1002 L-118197 1004 L-118176 1004 L-117225 1003 L-113751 1003 L-112998 1003 L-112436 1003 L-111654 1002 L-104150 1002 L-102551 1002 L-100977 1002 L-97792 1002 L-93459 1002 L-84889 1001 L-76143 1001 L-73069 1001 L-69803 1001 L-69257 1001 L-62119 1001 L-56452 1001 L-42387 1001 L-36376 1001 L-31670 1001 L-27666 1000 L-22559 1000 L-12845 1000 L2725 999 L5807 999 L6110 918 L6129 819 L6148 706 L6168 579 L6187 522 L6207 473 L6225 429 L6253 384 L6274 342 L6302 296 L6337 247 L6351 204 L6364 168 L6382 138 L6401 115 L6421 93 L6439 70 L6459 47 L6478 24 L6500 0" />
</svg>
