<svg xmlns="http://www.w3.org/2000/svg" version="1.1" viewBox="0 0 6500 1000">
	<path fill="none" stroke="gold" stroke-width="125" stroke-linecap="round" stroke-linejoin="round" d="M0 3460  L-726225 3460 L-723621 3460 L-721953 3460 L-703623 3459 L-703453 3459 L-696295 3459 L-696262 3459 L-682831 3459 L-679909 3459 L-666568 3458 L-662399 3458 L-661239 3457 L-660620 3456 L-658608 3456 L-654836 3455 L-654236 3455 L-653908 3455 L-653695 3455 L-653153 3454 L-651915 3453 L-650736 3452 L-647872 3451 L-647349 3449 L-642494 3449 L-639557 3449 L-639514 3448 L-639205 3448 L-638953 3448 L-636359 3447 L-632103 3447 L-632085 3447 L-630848 3447 L-628971 3447 L-627017 3447 L-626069 3447 L-625799 3447 L-625489 3446 L-625391 3446 L-624560 3446 L-622529 3446 L-622239 3445 L-620093 3444 L-619937 3444 L-616281 3443 L-616030 3443 L-615931 3443 L-615414 3443 L-613263 3444 L-612334 3445 L-610808 3446 L-609569 3446 L-608022 3445 L-605060 3445 L-603939 3445 L-603629 3445 L-602418 3444 L-599411 3446 L-599392 3446 L-599044 3446 L-598831 3446 L-598705 3444 L-598464 3443 L-598426 3443 L-598406 3443 L-598387 3442 L-598328 3442 L-598269 3442 L-598251 3441 L-597808 3441 L-596569 3441 L-595023 3440 L-591635 3440 L-585909 3440 L-585707 3440 L-584071 3440 L-582350 3440 L-580917 3439 L-580685 3439 L-579970 3439 L-573838 3439 L-573470 3439 L-573315 3438 L-572737 3438 L-572445 3438 L-571477 3437 L-571168 3437 L-570569 3437 L-568962 3437 L-568227 3437 L-567917 3437 L-567149 3437 L-565113 3437 L-564688 3436 L-563875 3436 L-556447 3436 L-555924 3436 L-555750 3435 L-555015 3435 L-553447 3435 L-553042 3434 L-550817 3434 L-549869 3434 L-549444 3434 L-549113 3434 L-548070 3434 L-545962 3433 L-545709 3433 L-545090 3433 L-544278 3433 L-542170 3432 L-542121 3432 L-540193 3432 L-539867 3431 L-539732 3431 L-539229 3431 L-537817 3431 L-537314 3430 L-536792 3430 L-533232 3429 L-532497 3428 L-530072 3428 L-528783 3428 L-528376 3428 L-525223 3428 L-525069 3428 L-525048 3428 L-524682 3428 L-523424 3428 L-522709 3428 L-521819 3428 L-521412 3428 L-520483 3428 L-519374 3428 L-519071 3429 L-512822 3429 L-511875 3429 L-510249 3430 L-509747 3430 L-506071 3430 L-505239 3430 L-501286 3430 L-499874 3430 L-497385 3430 L-496708 3429 L-496670 3429 L-495799 3429 L-492588 3429 L-489724 3429 L-488757 3429 L-487635 3428 L-487616 3428 L-485991 3428 L-485527 3427 L-485435 3427 L-479066 3427 L-478117 3427 L-475660 3427 L-474788 3426 L-473552 3426 L-471551 3426 L-471153 3426 L-469717 3425 L-467691 3425 L-467477 3425 L-466297 3425 L-464789 3425 L-464769 3425 L-462756 3424 L-461887 3424 L-461016 3424 L-460431 3424 L-459894 3423 L-459236 3423 L-457998 3423 L-457438 3423 L-456256 3422 L-455019 3422 L-454980 3422 L-454593 3422 L-454052 3422 L-453278 3421 L-452156 3421 L-450067 3421 L-449733 3421 L-449447 3420 L-448519 3420 L-448036 3420 L-447300 3420 L-443669 3420 L-442541 3420 L-442387 3419 L-441361 3419 L-437646 3419 L-436429 3419 L-434610 3418 L-431824 3418 L-431263 3418 L-427375 3418 L-424899 3418 L-423564 3418 L-423060 3418 L-422577 3417 L-419888 3417 L-416116 3417 L-413659 3417 L-412479 3417 L-411840 3417 L-409480 3417 L-409403 3417 L-408355 3417 L-408262 3416 L-407759 3416 L-407314 3416 L-407256 3416 L-407042 3416 L-404083 3416 L-401375 3416 L-401220 3416 L-397699 3416 L-397177 3415 L-396209 3415 L-395860 3415 L-394817 3414 L-393888 3414 L-393462 3414 L-391953 3414 L-390986 3414 L-390967 3414 L-389071 3403 L-388955 3391 L-388907 3380 L-388883 3368 L-385879 3368 L-383848 3368 L-382087 3368 L-381720 3368 L-381275 3367 L-380908 3367 L-380494 3367 L-378509 3367 L-378296 3367 L-378141 3367 L-376536 3367 L-375414 3366 L-374466 3366 L-373208 3366 L-371564 3366 L-370384 3366 L-363795 3365 L-363748 3365 L-363342 3365 L-362297 3365 L-362162 3365 L-360479 3364 L-360459 3364 L-359122 3364 L-357886 3364 L-357732 3364 L-357358 3363 L-357152 3363 L-356842 3363 L-356069 3363 L-353747 3363 L-353089 3363 L-350961 3362 L-349239 3362 L-349046 3362 L-346492 3362 L-346216 3361 L-346028 3361 L-345195 3361 L-344423 3361 L-343725 3361 L-338724 3361 L-338348 3360 L-334095 3360 L-333608 3375 L-333589 3375 L-333510 3375 L-333435 3375 L-333415 3359 L-332602 3359 L-331848 3359 L-330629 3359 L-329197 3359 L-329101 3359 L-328927 3359 L-328572 3358 L-327263 3358 L-325406 3358 L-323703 3358 L-323200 3358 L-322935 3357 L-322542 3357 L-322408 3357 L-321498 3357 L-321122 3357 L-320193 3357 L-319854 3357 L-319814 3357 L-319777 3357 L-317861 3357 L-317688 3356 L-316159 3356 L-315831 3356 L-315715 3356 L-315307 3356 L-314959 3356 L-313316 3355 L-312765 3355 L-312522 3355 L-311980 3355 L-311149 3355 L-310607 3354 L-309073 3354 L-308980 3354 L-308943 3354 L-308808 3354 L-308420 3353 L-307396 3353 L-305519 3353 L-305423 3353 L-304822 3358 L-304455 3363 L-303971 3368 L-303933 3374 L-303159 3374 L-303101 3374 L-302927 3374 L-302733 3373 L-301128 3373 L-301108 3373 L-300953 3373 L-300837 3373 L-299658 3374 L-299503 3374 L-298836 3374 L-296388 3386 L-293873 3399 L-291203 3412 L-283504 3424 L-277836 3424 L-275622 3424 L-275598 3424 L-274625 3427 L-274605 3427 L-273741 3427 L-271001 3427 L-265202 3423 L-265049 3423 L-262263 3423 L-248655 3423 L-247909 3422 L-243498 3422 L-227152 3422 L-226920 3422 L-226383 3421 L-217923 3421 L-209218 3421 L-209005 3421 L-207033 3421 L-204247 3421 L-199759 3421 L-199604 3421 L-199435 3421 L-199295 3421 L-199004 3420 L-198965 3420 L-198695 3420 L-198523 3420 L-198113 3420 L-196992 3420 L-195812 3420 L-194535 3419 L-191671 3419 L-188751 3419 L-186759 3419 L-185211 3419 L-182173 3418 L-172849 3418 L-172325 3418 L-166601 3418 L-165094 3418 L-164279 3418 L-162596 3418 L-161875 3418 L-161706 3417 L-160661 3417 L-158594 3417 L-157232 3417 L-152789 3417 L-152691 3417 L-152653 3416 L-152634 3416 L-151801 3416 L-151724 3416 L-149151 3416 L-145902 3416 L-145747 3415 L-144799 3415 L-143058 3415 L-142342 3416 L-138802 3417 L-132224 3418 L-130807 3419 L-130786 3419 L-129836 3418 L-126361 3418 L-125608 3418 L-125046 3418 L-124264 3418 L-116760 3418 L-115162 3417 L-113588 3417 L-110402 3417 L-106069 3417 L-97500 3417 L-88753 3417 L-85679 3417 L-82413 3416 L-81867 3416 L-74730 3416 L-69062 3416 L-54998 3416 L-48986 3416 L-44280 3416 L-40277 3416 L-35169 3416 L-25455 3415 L-9885 3415 L-6802 3415 L-6500 3346 L-6480 3261 L-6461 3165 L-6442 3058 L-6422 3009 L-6403 2967 L-6384 2929 L-6356 2892 L-6336 2855 L-6308 2817 L-6272 2774 L-6259 2738 L-6246 2707 L-6227 2682 L-6209 2663 L-6189 2643 L-6170 2624 L-6151 2604 L-6131 2585 L-6110 2564 L-6093 2544 L-6075 2525 L-6054 2506 L-6034 2487 L-6016 2467 L-5997 2446 L-5977 2424 L-5957 2403 L-5938 2383 L-5920 2363 L-5898 2345 L-5874 2326 L-5859 2308 L-5842 2291 L-5822 2273 L-5803 2255 L-5784 2237 L-5765 2217 L-5745 2199 L-5724 2182 L-5706 2165 L-5687 2150 L-5667 2135 L-5646 2121 L-5629 2109 L-5610 2097 L-5590 2085 L-5571 2074 L-5552 2063 L-5533 2054 L-5513 2045 L-5493 2037 L-5474 2029 L-5455 2021 L-5428 2010 L-5407 2000 L-5379 1988 L-5345 1975 L-5331 1964 L-5318 1954 L-5299 1946 L-5280 1938 L-5260 1930 L-5242 1921 L-5223 1912 L-5203 1903 L-5182 1895 L-5165 1888 L-5146 1879 L-5126 1871 L-5106 1861 L-5087 1851 L-5069 1839 L-5049 1827 L-5029 1815 L-5010 1803 L-4991 1790 L-4970 1777 L-4946 1762 L-4931 1747 L-4914 1733 L-4894 1719 L-4875 1705 L-4855 1691 L-4836 1675 L-4816 1661 L-4796 1646 L-4778 1632 L-4759 1619 L-4739 1606 L-4718 1593 L-4701 1580 L-4682 1569 L-4662 1558 L-4643 1548 L-4623 1538 L-4604 1527 L-4584 1517 L-4565 1507 L-4546 1497 L-4527 1487 L-4498 1477 L-4478 1467 L-4451 1458 L-4413 1446 L-4398 1435 L-4386 1425 L-4369 1416 L-4352 1408 L-4332 1402 L-4313 1396 L-4294 1390 L-4274 1385 L-4253 1379 L-4236 1372 L-4217 1366 L-4197 1359 L-4177 1351 L-4159 1344 L-4140 1335 L-4120 1327 L-4100 1318 L-4081 1308 L-4063 1299 L-4042 1291 L-4017 1281 L-4003 1273 L-3985 1264 L-3965 1254 L-3946 1246 L-3927 1236 L-3908 1226 L-3888 1217 L-3867 1207 L-3849 1198 L-3830 1190 L-3810 1181 L-3790 1173 L-3772 1166 L-3753 1158 L-3733 1150 L-3714 1143 L-3695 1135 L-3676 1128 L-3656 1121 L-3637 1114 L-3617 1107 L-3598 1099 L-3570 1092 L-3550 1085 L-3522 1077 L-3486 1065 L-3472 1055 L-3459 1045 L-3441 1036 L-3423 1031 L-3403 1025 L-3385 1018 L-3365 1010 L-3345 1002 L-3324 994 L-3306 985 L-3289 976 L-3268 966 L-3248 955 L-3230 944 L-3211 933 L-3191 921 L-3171 910 L-3153 900 L-3134 891 L-3113 885 L-3088 879 L-3073 874 L-3056 868 L-3037 863 L-3017 856 L-2998 850 L-2979 844 L-2959 839 L-2938 834 L-2921 830 L-2902 824 L-2881 818 L-2860 810 L-2843 803 L-2824 797 L-2804 792 L-2786 789 L-2766 785 L-2747 782 L-2727 778 L-2708 774 L-2688 770 L-2670 766 L-2642 762 L-2621 758 L-2594 754 L-2559 749 L-2545 745 L-2532 741 L-2513 737 L-2494 735 L-2475 732 L-2456 728 L-2437 725 L-2417 723 L-2396 720 L-2379 717 L-2360 714 L-2339 710 L-2319 707 L-2301 703 L-2283 700 L-2263 697 L-2242 694 L-2224 691 L-2205 688 L-2184 686 L-2159 683 L-2145 680 L-2128 678 L-2108 675 L-2089 672 L-2069 669 L-2050 666 L-2031 662 L-2010 659 L-1992 656 L-1973 653 L-1953 650 L-1932 648 L-1915 645 L-1896 642 L-1876 640 L-1857 637 L-1837 635 L-1819 633 L-1798 631 L-1779 629 L-1760 627 L-1741 630 L-1712 633 L-1693 636 L-1665 639 L-1627 636 L-1612 634 L-1599 632 L-1582 631 L-1566 629 L-1546 627 L-1528 626 L-1508 624 L-1488 622 L-1467 621 L-1450 619 L-1432 618 L-1411 616 L-1391 614 L-1373 612 L-1354 610 L-1334 609 L-1314 607 L-1296 605 L-1277 604 L-1256 602 L-1231 601 L-1216 599 L-1199 597 L-1179 595 L-1160 594 L-1141 592 L-1122 590 L-1102 588 L-1081 585 L-1064 583 L-1045 580 L-1024 578 L-1003 576 L-986 574 L-967 572 L-947 570 L-928 568 L-909 565 L-890 563 L-870 561 L-850 559 L-831 557 L-813 555 L-785 553 L-764 551 L-736 549 L-701 547 L-688 544 L-675 543 L-656 541 L-637 539 L-617 537 L-599 535 L-579 534 L-560 532 L-539 530 L-522 528 L-503 526 L-482 524 L-462 522 L-444 519 L-425 516 L-406 513 L-385 510 L-367 507 L-348 505 L-327 503 L-302 500 L-287 497 L-270 494 L-251 492 L-231 489 L-212 486 L-193 483 L-173 481 L-152 478 L-135 476 L-116 473 L-95 471 L-75 469 L-58 467 L-39 465 L-19 463 L0 462 L19 460 L38 459 L57 457 L77 456 L96 454 L115 453 L143 452 L163 450 L191 449 L227 446 L240 443 L254 441 L272 438 L290 436 L310 435 L329 433 L348 431 L368 430 L389 428 L406 426 L425 424 L445 422 L465 420 L483 418 L502 415 L522 413 L543 411 L560 409 L579 407 L601 406 L626 404 L640 402 L657 401 L677 399 L696 397 L715 395 L734 392 L754 389 L776 386 L793 383 L812 381 L832 379 L853 377 L870 375 L889 374 L909 372 L928 371 L947 370 L966 368 L986 367 L1006 365 L1025 364 L1044 363 L1071 362 L1092 361 L1120 359 L1154 358 L1168 357 L1181 356 L1200 354 L1219 353 L1238 352 L1257 351 L1276 350 L1296 350 L1317 349 L1334 348 L1353 347 L1373 345 L1393 344 L1412 343 L1430 342 L1451 341 L1471 340 L1489 339 L1508 339 L1529 338 L1554 337 L1568 336 L1586 335 L1605 334 L1624 333 L1644 332 L1663 331 L1683 329 L1703 328 L1721 325 L1740 323 L1760 321 L1781 319 L1799 318 L1818 316 L1837 315 L1856 313 L1876 312 L1895 310 L1915 309 L1934 308 L1953 307 L1972 306 L2001 305 L2049 304 L2085 303 L2100 302 L2113 301 L2130 300 L2147 299 L2167 299 L2186 298 L2205 297 L2225 296 L2245 296 L2263 295 L2282 294 L2302 294 L2322 293 L2340 292 L2359 291 L2379 290 L2399 289 L2417 288 L2436 287 L2458 285 L2482 283 L2497 282 L2514 280 L2534 278 L2553 277 L2572 275 L2591 274 L2611 273 L2632 271 L2650 270 L2669 268 L2689 267 L2709 266 L2727 265 L2746 264 L2766 263 L2785 262 L2805 261 L2823 259 L2843 258 L2863 257 L2882 256 L2901 255 L2929 254 L2949 253 L2977 251 L3014 249 L3028 246 L3041 244 L3059 242 L3076 241 L3096 240 L3114 239 L3134 238 L3154 237 L3175 236 L3192 235 L3210 234 L3231 232 L3251 231 L3269 229 L3288 226 L3308 224 L3329 222 L3346 220 L3365 219 L3386 217 L3411 215 L3426 214 L3444 212 L3462 211 L3483 210 L3501 208 L3520 207 L3540 205 L3562 203 L3578 202 L3598 200 L3618 199 L3639 198 L3656 196 L3675 195 L3694 194 L3714 193 L3733 192 L3752 190 L3772 189 L3792 188 L3811 187 L3829 186 L3857 997 L3878 996 L3906 994 L3941 992 L3955 179 L3969 177 L3987 176 L4005 175 L4024 175 L4043 174 L4062 173 L4082 172 L4104 170 L4120 168 L4139 166 L4160 165 L4180 163 L4198 161 L4217 158 L4236 156 L4257 155 L4275 153 L4294 152 L4315 151 L4340 149 L4355 147 L4385 145 L4424 142 L4447 140 L4477 137 L4493 135 L4507 133 L4526 131 L4547 130 L4567 129 L4584 128 L4603 127 L4623 126 L4642 125 L4662 124 L4681 124 L4700 123 L4721 122 L4739 121 L4758 120 L4786 119 L4806 118 L4834 116 L4869 115 L4883 114 L4915 113 L4933 111 L4953 111 L4972 110 L4991 109 L5011 108 L5032 108 L5049 107 L5067 105 L5088 102 L5109 98 L5126 94 L5145 91 L5165 88 L5185 85 L5203 83 L5222 81 L5244 80 L5269 78 L5284 77 L5301 76 L5320 74 L5340 72 L5358 71 L5378 69 L5397 68 L5419 66 L5435 64 L5455 63 L5475 62 L5496 60 L5513 59 L5532 59 L5552 57 L5571 57 L5590 55 L5609 54 L5629 53 L5649 52 L5668 51 L5686 50 L5714 49 L5735 48 L5805 46 L5833 43 L5847 41 L5862 38 L5882 37 L5900 36 L5919 34 L5939 33 L5960 32 L5977 31 L5996 30 L6017 29 L6037 28 L6055 27 L6074 26 L6094 24 L6114 23 L6132 21 L6151 20 L6172 19 L6197 18 L6212 17 L6230 16 L6248 14 L6268 13 L6287 11 L6306 10 L6326 9 L6347 8 L6364 7 L6383 6 L6404 5 L6425 4 L6441 2 L6500 1" />
</svg>
