<svg xmlns="http://www.w3.org/2000/svg" version="1.1" viewBox="0 0 6500 1000">
	<path fill="none" stroke="gold" stroke-width="125" stroke-linecap="round" stroke-linejoin="round" d="M0 27461  L-253427 27461 L-250823 27342 L-249155 27223 L-230825 26984 L-230655 26745 L-223497 26507 L-223464 26507 L-210033 26387 L-207111 26507 L-193771 26149 L-189602 25671 L-188442 25075 L-187822 24478 L-185811 24120 L-182039 23881 L-181439 23643 L-181110 23404 L-180897 23165 L-180355 22927 L-179117 21972 L-177938 21017 L-175074 20063 L-174552 19108 L-169696 18869 L-166759 18631 L-166716 18392 L-166408 18153 L-166156 17915 L-163561 17676 L-159305 17676 L-159287 17676 L-158051 17676 L-156173 17676 L-154220 17437 L-153272 17199 L-153001 16960 L-152691 16841 L-152593 16721 L-151763 16721 L-149732 16841 L-149441 15767 L-147295 15289 L-147140 14573 L-143483 13857 L-143232 14215 L-143134 14096 L-142616 14454 L-140465 15051 L-139536 15647 L-138010 16244 L-136771 16244 L-135224 16125 L-132263 15886 L-131141 15647 L-130832 15409 L-129620 15289 L-126614 16602 L-126594 16483 L-126247 16363 L-126034 16244 L-125907 14573 L-125666 14335 L-125628 14096 L-125608 13857 L-125589 13619 L-125530 13380 L-125471 13142 L-125453 12903 L-125010 12664 L-123771 12426 L-122225 12187 L-118837 11948 L-113111 11829 L-112910 11710 L-111274 11590 L-109552 11471 L-108120 11352 L-107887 11232 L-107172 11113 L-101040 10994 L-100672 10755 L-100518 10516 L-99939 10278 L-99647 10039 L-98679 9800 L-98370 9562 L-97771 9323 L-96165 9323 L-95430 9323 L-95120 9442 L-94351 9442 L-92315 9204 L-91890 8965 L-91077 8846 L-83649 8607 L-83126 8368 L-82952 8130 L-82217 7891 L-80650 7652 L-80244 7533 L-78019 7294 L-77071 7175 L-76646 7056 L-76316 7056 L-75272 6936 L-73164 6698 L-72912 6459 L-72293 6220 L-71480 6101 L-69372 5862 L-69324 5624 L-67395 5385 L-67070 5146 L-66935 4908 L-66432 4788 L-65019 4550 L-64516 4072 L-63994 3714 L-60434 3237 L-59699 2760 L-57275 2760 L-55985 2521 L-55578 2402 L-52426 2402 L-52271 2402 L-52251 2521 L-51884 2521 L-50626 2640 L-49911 2760 L-49021 2760 L-48614 2760 L-47685 2760 L-46577 2640 L-46273 3118 L-40025 3356 L-39077 3595 L-37451 3834 L-36949 3953 L-33274 4072 L-32441 4192 L-28488 4311 L-27076 3953 L-24587 3714 L-23911 3476 L-23872 3356 L-23001 3356 L-19790 3237 L-16927 3118 L-15959 2998 L-14837 2760 L-14818 2521 L-13193 2282 L-12729 1924 L-12637 1805 L-6268 1686 L-5320 1566 L-2862 1447 L-1990 1208 L-754 1089 L1246 970 L1644 731 L3080 492 L5106 373 L5319 134 L6500 15" />
</svg>
