<svg xmlns="http://www.w3.org/2000/svg" version="1.1" viewBox="0 0 6500 1000">
	<path fill="none" stroke="gold" stroke-width="125" stroke-linecap="round" stroke-linejoin="round" d="M0 11419  L-730655 11419 L-728051 11419 L-726383 11418 L-708053 11417 L-707883 11416 L-700725 11415 L-700692 11415 L-687261 11415 L-684339 11415 L-670999 11414 L-666830 11412 L-665670 11409 L-665050 11407 L-663039 11406 L-659267 11405 L-658667 11404 L-658338 11403 L-658125 11402 L-657583 11401 L-656345 11397 L-655166 11393 L-652302 11389 L-651780 11385 L-646924 11384 L-643987 11384 L-643944 11383 L-643636 11382 L-643384 11381 L-640789 11380 L-636533 11380 L-636515 11380 L-635279 11380 L-633401 11380 L-631448 11379 L-630500 11378 L-630229 11377 L-629919 11376 L-629821 11376 L-628991 11376 L-626960 11376 L-626669 11372 L-624523 11370 L-624368 11367 L-620711 11364 L-620460 11366 L-620362 11365 L-619844 11367 L-617693 11369 L-616764 11372 L-615238 11374 L-613999 11374 L-612452 11373 L-609491 11372 L-608369 11372 L-608060 11371 L-606848 11370 L-603842 11375 L-603822 11375 L-603475 11374 L-603262 11374 L-603135 11367 L-602894 11366 L-602856 11365 L-602836 11364 L-602817 11363 L-602758 11362 L-602699 11361 L-602681 11360 L-602238 11359 L-600999 11359 L-599453 11358 L-596065 11357 L-590339 11356 L-590138 11356 L-588502 11355 L-586780 11355 L-585348 11354 L-585115 11354 L-584400 11353 L-578268 11353 L-577900 11352 L-577746 11351 L-577167 11350 L-576875 11349 L-575907 11348 L-575598 11347 L-574999 11346 L-573393 11346 L-572658 11346 L-572348 11347 L-571579 11347 L-569543 11346 L-569118 11345 L-568305 11344 L-560877 11343 L-560354 11342 L-560180 11341 L-559445 11340 L-557878 11339 L-557472 11339 L-555247 11338 L-554299 11337 L-553874 11337 L-553544 11337 L-552500 11336 L-550392 11335 L-550140 11335 L-549521 11334 L-548708 11333 L-546600 11332 L-546552 11331 L-544623 11330 L-544298 11329 L-544163 11328 L-543660 11328 L-542247 11327 L-541744 11325 L-541222 11323 L-537662 11322 L-536927 11320 L-534503 11320 L-533213 11319 L-532806 11318 L-529654 11318 L-529499 11318 L-529479 11319 L-529112 11319 L-527854 11319 L-527139 11320 L-526249 11320 L-525842 11320 L-524913 11320 L-523805 11319 L-523501 11321 L-517253 11322 L-516305 11323 L-514679 11324 L-514177 11324 L-510502 11325 L-509669 11325 L-505716 11326 L-504304 11324 L-501815 11323 L-501139 11323 L-501100 11322 L-500229 11322 L-497018 11322 L-494155 11321 L-493187 11321 L-492065 11320 L-492046 11319 L-490421 11318 L-489957 11316 L-489865 11316 L-483496 11315 L-482548 11315 L-480090 11314 L-479218 11313 L-477982 11313 L-475981 11312 L-475583 11311 L-474147 11311 L-472121 11310 L-471908 11309 L-470727 11309 L-469219 11308 L-469199 11308 L-467187 11307 L-466317 11306 L-465446 11306 L-464861 11305 L-464324 11304 L-463667 11303 L-462428 11302 L-461868 11301 L-460687 11301 L-459449 11300 L-459411 11300 L-459024 11299 L-458482 11299 L-457708 11298 L-456586 11298 L-454497 11297 L-454163 11296 L-453878 11295 L-452949 11294 L-452466 11293 L-451731 11293 L-448099 11292 L-446972 11292 L-446817 11291 L-445791 11290 L-442076 11290 L-440859 11289 L-439040 11288 L-436255 11287 L-435693 11287 L-431805 11287 L-429329 11286 L-427994 11286 L-427490 11286 L-427007 11285 L-424318 11285 L-420546 11285 L-418089 11285 L-416909 11285 L-416270 11285 L-413911 11284 L-413833 11283 L-412786 11283 L-412692 11282 L-412189 11282 L-411744 11282 L-411686 11282 L-411473 11282 L-408513 11281 L-405805 11280 L-405651 11280 L-402130 11279 L-401607 11278 L-400640 11277 L-400290 11277 L-399247 11276 L-398318 11275 L-397893 11275 L-396384 11275 L-395417 11274 L-395398 11274 L-393502 11238 L-393386 11202 L-393338 11167 L-393313 11131 L-390309 11131 L-388279 11130 L-386518 11130 L-386151 11129 L-385705 11128 L-385338 11128 L-384924 11127 L-382939 11126 L-382726 11126 L-382571 11126 L-380966 11126 L-379844 11125 L-378896 11125 L-377639 11124 L-375994 11123 L-374814 11122 L-368225 11122 L-368178 11121 L-367773 11121 L-366727 11120 L-366592 11120 L-364909 11119 L-364890 11118 L-363553 11117 L-362317 11117 L-362162 11117 L-361788 11116 L-361582 11115 L-361273 11115 L-360499 11114 L-358177 11113 L-357520 11113 L-355392 11112 L-353669 11112 L-353476 11111 L-350922 11110 L-350646 11109 L-350458 11108 L-349625 11108 L-348853 11107 L-348155 11107 L-343154 11107 L-342778 11106 L-338526 11105 L-338039 11153 L-338019 11153 L-337940 11153 L-337865 11152 L-337845 11103 L-337032 11103 L-336279 11102 L-335059 11101 L-333628 11101 L-333531 11101 L-333357 11101 L-333002 11100 L-331693 11099 L-329836 11099 L-328134 11098 L-327631 11097 L-327365 11097 L-326972 11096 L-326838 11096 L-325928 11095 L-325552 11095 L-324623 11095 L-324284 11094 L-324245 11094 L-324207 11094 L-322291 11094 L-322118 11093 L-320589 11093 L-320261 11093 L-320145 11093 L-319738 11092 L-319389 11091 L-317746 11090 L-317195 11090 L-316952 11089 L-316410 11089 L-315579 11088 L-315037 11087 L-313503 11086 L-313411 11086 L-313374 11085 L-313238 11085 L-312851 11084 L-311826 11084 L-309949 11083 L-309853 11083 L-309253 11098 L-308886 11115 L-308401 11131 L-308363 11148 L-307589 11149 L-307532 11148 L-307357 11147 L-307164 11147 L-305558 11146 L-305538 11145 L-305383 11146 L-305268 11147 L-304088 11147 L-303933 11149 L-303266 11149 L-300818 11188 L-298303 11228 L-295634 11267 L-287934 11306 L-282267 11306 L-280052 11306 L-280029 11306 L-279055 11315 L-279035 11315 L-278171 11314 L-275431 11314 L-269633 11304 L-269479 11303 L-266693 11302 L-253085 11301 L-252339 11301 L-247928 11300 L-231582 11299 L-231350 11299 L-230813 11298 L-222353 11298 L-213648 11297 L-213436 11297 L-211463 11296 L-208677 11296 L-204189 11297 L-204034 11296 L-203865 11296 L-203725 11296 L-203434 11295 L-203396 11294 L-203125 11294 L-202953 11293 L-202543 11293 L-201423 11292 L-200242 11292 L-198965 11291 L-196102 11291 L-193181 11290 L-191189 11290 L-189642 11289 L-186604 11288 L-177279 11288 L-176755 11287 L-171031 11287 L-169524 11287 L-168710 11287 L-167026 11286 L-166305 11286 L-166137 11285 L-165092 11285 L-163024 11284 L-161662 11284 L-157219 11283 L-157122 11283 L-157083 11282 L-157064 11282 L-156232 11281 L-156154 11280 L-153581 11280 L-150332 11279 L-150177 11279 L-149229 11278 L-147488 11277 L-146773 11280 L-143232 11283 L-136654 11286 L-135237 11289 L-135216 11289 L-134266 11288 L-130792 11288 L-130038 11287 L-129477 11287 L-128695 11286 L-121190 11286 L-119592 11285 L-118018 11285 L-114833 11284 L-110500 11284 L-101930 11283 L-93184 11283 L-90110 11283 L-86844 11282 L-86297 11281 L-79160 11281 L-73492 11281 L-59428 11281 L-53417 11281 L-48710 11281 L-44707 11280 L-39600 11279 L-29886 11279 L-14315 11278 L-11232 11277 L-10930 11061 L-10910 10795 L-10892 10492 L-10872 10155 L-10852 10001 L-10833 9871 L-10814 9751 L-10787 9633 L-10766 9519 L-10738 9398 L-10703 9265 L-10689 9152 L-10676 9054 L-10657 8974 L-10639 8914 L-10619 8854 L-10601 8792 L-10581 8731 L-10561 8670 L-10540 8605 L-10523 8543 L-10505 8482 L-10484 8423 L-10464 8364 L-10446 8299 L-10427 8234 L-10407 8165 L-10387 8099 L-10369 8034 L-10350 7974 L-10329 7915 L-10304 7856 L-10289 7801 L-10272 7745 L-10253 7689 L-10233 7635 L-10214 7576 L-10195 7515 L-10175 7458 L-10154 7404 L-10137 7351 L-10118 7302 L-10097 7256 L-10077 7211 L-10059 7173 L-10040 7136 L-10020 7100 L-10002 7065 L-9982 7031 L-9963 7001 L-9943 6974 L-9924 6949 L-9904 6923 L-9886 6897 L-9858 6865 L-9837 6832 L-9810 6794 L-9776 6753 L-9761 6719 L-9748 6689 L-9730 6662 L-9711 6639 L-9691 6614 L-9672 6585 L-9653 6557 L-9633 6529 L-9612 6503 L-9595 6479 L-9576 6453 L-9556 6427 L-9536 6397 L-9517 6363 L-9499 6326 L-9479 6290 L-9459 6251 L-9440 6213 L-9421 6174 L-9400 6131 L-9376 6084 L-9361 6037 L-9344 5993 L-9324 5950 L-9305 5906 L-9285 5860 L-9267 5812 L-9247 5766 L-9226 5721 L-9208 5677 L-9189 5634 L-9169 5594 L-9149 5552 L-9131 5514 L-9112 5479 L-9092 5443 L-9073 5412 L-9053 5380 L-9035 5347 L-9015 5317 L-8995 5284 L-8976 5252 L-8957 5221 L-8928 5189 L-8909 5160 L-8881 5129 L-8844 5093 L-8828 5059 L-8816 5026 L-8799 4996 L-8782 4974 L-8762 4954 L-8744 4935 L-8724 4917 L-8704 4900 L-8684 4881 L-8666 4861 L-8648 4839 L-8627 4817 L-8607 4795 L-8589 4770 L-8570 4745 L-8550 4717 L-8531 4689 L-8512 4659 L-8493 4632 L-8472 4605 L-8447 4575 L-8433 4548 L-8416 4520 L-8396 4490 L-8377 4463 L-8357 4433 L-8338 4402 L-8318 4372 L-8298 4342 L-8279 4313 L-8261 4287 L-8240 4260 L-8220 4235 L-8202 4212 L-8183 4188 L-8163 4164 L-8145 4140 L-8125 4115 L-8106 4093 L-8086 4070 L-8067 4048 L-8047 4026 L-8028 4003 L-8000 3981 L-7980 3958 L-7952 3932 L-7916 3896 L-7902 3863 L-7889 3832 L-7871 3805 L-7853 3787 L-7833 3769 L-7815 3747 L-7795 3724 L-7775 3699 L-7754 3672 L-7736 3643 L-7719 3615 L-7698 3583 L-7678 3550 L-7660 3516 L-7641 3479 L-7621 3443 L-7601 3409 L-7583 3377 L-7564 3350 L-7543 3329 L-7518 3311 L-7503 3295 L-7486 3277 L-7467 3259 L-7447 3240 L-7428 3221 L-7409 3202 L-7389 3185 L-7368 3170 L-7351 3156 L-7332 3140 L-7311 3119 L-7291 3095 L-7274 3071 L-7255 3053 L-7234 3039 L-7216 3028 L-7196 3017 L-7177 3006 L-7157 2994 L-7138 2981 L-7119 2967 L-7100 2955 L-7072 2943 L-7052 2931 L-7024 2918 L-6989 2902 L-6975 2889 L-6962 2877 L-6943 2866 L-6925 2857 L-6905 2848 L-6886 2838 L-6867 2829 L-6847 2820 L-6826 2811 L-6809 2802 L-6790 2792 L-6770 2781 L-6750 2770 L-6732 2758 L-6713 2748 L-6693 2740 L-6673 2731 L-6654 2721 L-6636 2712 L-6614 2703 L-6589 2695 L-6575 2686 L-6558 2678 L-6538 2670 L-6519 2660 L-6500 2651 L-6481 2640 L-6461 2629 L-6440 2620 L-6422 2610 L-6403 2601 L-6383 2592 L-6362 2584 L-6345 2576 L-6326 2567 L-6306 2559 L-6287 2551 L-6267 2543 L-6249 2537 L-6229 2531 L-6209 2525 L-6190 2519 L-6171 2530 L-6143 2539 L-6123 2549 L-6095 2558 L-6058 2549 L-6042 2542 L-6030 2536 L-6012 2530 L-5996 2526 L-5976 2521 L-5958 2515 L-5938 2509 L-5918 2504 L-5897 2500 L-5880 2495 L-5862 2490 L-5841 2485 L-5821 2479 L-5803 2473 L-5784 2467 L-5764 2462 L-5744 2456 L-5726 2451 L-5707 2446 L-5686 2442 L-5661 2437 L-5647 2431 L-5629 2426 L-5610 2420 L-5590 2414 L-5571 2409 L-5552 2403 L-5532 2396 L-5511 2388 L-5494 2380 L-5475 2373 L-5454 2366 L-5434 2359 L-5416 2353 L-5397 2346 L-5378 2339 L-5359 2333 L-5339 2325 L-5320 2318 L-5300 2310 L-5281 2304 L-5261 2299 L-5243 2294 L-5215 2288 L-5194 2281 L-5167 2274 L-5132 2267 L-5118 2260 L-5105 2254 L-5086 2248 L-5067 2243 L-5047 2237 L-5029 2232 L-5010 2226 L-4990 2220 L-4969 2214 L-4952 2208 L-4933 2202 L-4913 2196 L-4893 2188 L-4874 2180 L-4856 2171 L-4836 2162 L-4815 2152 L-4797 2144 L-4779 2137 L-4757 2128 L-4732 2119 L-4718 2111 L-4700 2102 L-4681 2094 L-4661 2086 L-4642 2077 L-4623 2068 L-4603 2060 L-4583 2052 L-4565 2044 L-4546 2037 L-4526 2029 L-4505 2022 L-4488 2017 L-4469 2010 L-4449 2006 L-4430 2000 L-4410 1995 L-4392 1990 L-4372 1986 L-4352 1982 L-4333 1977 L-4314 1974 L-4287 1969 L-4266 1964 L-4238 1959 L-4203 1950 L-4189 1942 L-4176 1934 L-4157 1926 L-4139 1921 L-4119 1916 L-4101 1910 L-4081 1905 L-4061 1900 L-4040 1894 L-4023 1888 L-4005 1882 L-3984 1875 L-3964 1869 L-3946 1862 L-3927 1855 L-3907 1848 L-3887 1841 L-3869 1835 L-3850 1829 L-3829 1825 L-3804 1819 L-3789 1814 L-3772 1808 L-3753 1802 L-3733 1796 L-3714 1789 L-3695 1781 L-3675 1772 L-3654 1763 L-3637 1754 L-3618 1746 L-3597 1739 L-3576 1733 L-3559 1728 L-3540 1723 L-3520 1719 L-3501 1716 L-3482 1711 L-3463 1706 L-3443 1702 L-3423 1698 L-3404 1694 L-3386 1690 L-3358 1686 L-3337 1682 L-3310 1678 L-3275 1674 L-3261 1670 L-3248 1667 L-3229 1663 L-3211 1660 L-3191 1656 L-3172 1653 L-3153 1650 L-3133 1648 L-3112 1645 L-3095 1642 L-3076 1638 L-3056 1634 L-3036 1631 L-3018 1627 L-2999 1624 L-2979 1621 L-2959 1619 L-2940 1616 L-2921 1614 L-2900 1612 L-2876 1608 L-2861 1605 L-2844 1601 L-2824 1598 L-2805 1595 L-2785 1592 L-2767 1589 L-2747 1584 L-2726 1579 L-2708 1572 L-2689 1565 L-2669 1558 L-2648 1552 L-2631 1548 L-2612 1544 L-2592 1539 L-2573 1535 L-2553 1530 L-2535 1525 L-2515 1522 L-2495 1518 L-2476 1514 L-2457 1511 L-2428 1509 L-2381 1506 L-2344 1502 L-2329 1498 L-2316 1495 L-2299 1492 L-2282 1490 L-2262 1489 L-2244 1486 L-2224 1484 L-2204 1481 L-2184 1478 L-2166 1476 L-2148 1474 L-2127 1473 L-2108 1470 L-2089 1467 L-2070 1464 L-2050 1461 L-2030 1458 L-2012 1454 L-1993 1450 L-1972 1446 L-1947 1440 L-1933 1435 L-1915 1429 L-1896 1425 L-1877 1420 L-1857 1415 L-1838 1411 L-1818 1406 L-1797 1402 L-1779 1397 L-1761 1392 L-1740 1388 L-1720 1384 L-1702 1381 L-1683 1378 L-1663 1375 L-1644 1372 L-1625 1368 L-1606 1365 L-1586 1361 L-1567 1357 L-1547 1354 L-1528 1350 L-1500 1347 L-1480 1343 L-1452 1338 L-1415 1330 L-1401 1323 L-1388 1316 L-1371 1310 L-1353 1306 L-1333 1303 L-1315 1300 L-1295 1297 L-1275 1295 L-1254 1292 L-1237 1288 L-1219 1284 L-1198 1279 L-1178 1274 L-1160 1268 L-1141 1261 L-1121 1254 L-1101 1247 L-1083 1242 L-1064 1236 L-1043 1232 L-1018 1226 L-1003 1221 L-985 1217 L-967 1213 L-947 1209 L-928 1205 L-909 1198 L-889 1193 L-868 1188 L-851 1183 L-832 1179 L-811 1175 L-790 1171 L-774 1167 L-755 1163 L-735 1159 L-716 1156 L-696 1152 L-677 1148 L-657 1145 L-637 1141 L-619 1138 L-600 1135 L-572 3682 L-552 3678 L-524 3674 L-488 3667 L-474 1112 L-460 1107 L-443 1103 L-425 1100 L-405 1098 L-386 1096 L-367 1093 L-347 1088 L-326 1083 L-309 1078 L-290 1073 L-270 1067 L-249 1061 L-232 1054 L-212 1047 L-193 1040 L-172 1036 L-155 1031 L-136 1027 L-114 1023 L-89 1017 L-74 1011 L-45 1004 L-5 996 L17 989 L47 980 L63 973 L77 967 L96 962 L116 959 L137 955 L154 952 L173 948 L193 944 L212 942 L232 940 L250 938 L270 935 L290 932 L309 929 L328 926 L355 922 L376 919 L404 916 L439 911 L453 907 L484 903 L503 900 L523 897 L541 895 L561 893 L581 890 L602 888 L619 885 L637 879 L658 869 L678 858 L696 845 L715 834 L735 825 L755 817 L773 810 L792 805 L814 801 L838 796 L853 792 L871 787 L889 781 L909 777 L928 773 L948 768 L967 762 L988 757 L1005 751 L1024 747 L1045 743 L1066 739 L1082 736 L1102 734 L1122 730 L1141 727 L1160 723 L1179 720 L1199 716 L1219 712 L1237 710 L1256 707 L1284 704 L1305 700 L1375 694 L1403 686 L1417 678 L1431 670 L1451 666 L1470 662 L1489 658 L1509 653 L1530 649 L1547 646 L1566 643 L1586 641 L1606 639 L1625 635 L1644 630 L1663 626 L1684 621 L1702 616 L1721 612 L1742 609 L1767 606 L1782 603 L1799 599 L1818 594 L1838 589 L1857 585 L1876 580 L1896 577 L1917 574 L1934 570 L1953 567 L1973 564 L1995 561 L2011 557 L2069 554 L2089 550 L2107 547 L2127 544 L2147 542 L2166 539 L2185 537 L2213 535 L2233 533 L2261 531 L2298 528 L2312 525 L2325 523 L2342 521 L2360 519 L2380 518 L2398 516 L2418 515 L2438 514 L2459 512 L2476 511 L2494 509 L2515 507 L2535 506 L2553 503 L2572 500 L2592 497 L2613 495 L2630 492 L2649 490 L2671 487 L2696 485 L2710 483 L2727 481 L2747 479 L2767 476 L2785 474 L2804 470 L2824 466 L2845 463 L2862 459 L2882 457 L2902 455 L2923 454 L2940 452 L2959 450 L2979 448 L2998 446 L3017 446 L3036 444 L3056 443 L3076 442 L3095 440 L3113 439 L3141 437 L3162 435 L3190 434 L3225 431 L3238 429 L3252 427 L3270 426 L3288 424 L3308 422 L3327 420 L3366 419 L3387 417 L3404 416 L3423 414 L3443 411 L3463 408 L3482 405 L3500 402 L3520 400 L3540 398 L3559 396 L3578 394 L3599 392 L3623 390 L3638 388 L3655 387 L3675 385 L3694 383 L3714 380 L3732 378 L3752 376 L3773 374 L3791 372 L3810 370 L3830 367 L3851 365 L3868 363 L3887 361 L3907 360 L3926 359 L3946 357 L3964 355 L3984 354 L4004 352 L4023 350 L4042 349 L4071 347 L4118 345 L4156 343 L4171 341 L4184 340 L4201 338 L4217 337 L4237 336 L4255 335 L4275 334 L4295 332 L4315 332 L4333 331 L4352 331 L4372 330 L4391 329 L4410 328 L4429 327 L4449 326 L4468 325 L4487 323 L4506 321 L4527 319 L4552 317 L4566 314 L4584 312 L4603 309 L4622 305 L4642 301 L4661 297 L4681 292 L4701 288 L4720 285 L4738 281 L4759 277 L4779 274 L4797 270 L4816 266 L4836 263 L4854 259 L4874 256 L4893 254 L4913 251 L4932 247 L4952 242 L4971 238 L4999 234 L5019 231 L5047 228 L5084 225 L5099 223 L5111 220 L5129 217 L5146 215 L5166 213 L5184 211 L5204 209 L5224 206 L5245 204 L5262 201 L5280 198 L5301 194 L5322 191 L5339 188 L5359 185 L5378 183 L5399 180 L5416 177 L5435 174 L5456 171 L5481 168 L5496 164 L5514 160 L5532 156 L5553 153 L5571 149 L5591 145 L5610 142 L5632 137 L5648 132 L5668 128 L5688 125 L5709 121 L5726 119 L5744 117 L5764 115 L5783 113 L5803 110 L5822 107 L5842 105 L5861 102 L5880 99 L5899 96 L5947 93 L5975 90 L6008 86 L6023 83 L6035 79 L6054 76 L6074 74 L6094 71 L6113 68 L6132 65 L6152 62 L6173 60 L6190 58 L6209 56 L6229 53 L6249 50 L6267 48 L6286 44 L6306 41 L6326 38 L6345 35 L6363 31 L6385 28 L6409 25 L6424 22 L6441 18 L6461 14 L6480 10 L6500 5" />
</svg>
