<svg xmlns="http://www.w3.org/2000/svg" version="1.1" viewBox="0 0 6500 1000">
	<path fill="none" stroke="gold" stroke-width="125" stroke-linecap="round" stroke-linejoin="round" d="M0 2348  L-721388 2348 L-718784 2348 L-717116 2348 L-698786 2347 L-698616 2347 L-691458 2347 L-691425 2347 L-677994 2347 L-675072 2347 L-661731 2347 L-657562 2346 L-656402 2346 L-655783 2345 L-653771 2345 L-650000 2345 L-649400 2344 L-649071 2344 L-648858 2344 L-648316 2344 L-647078 2343 L-645899 2342 L-643035 2341 L-642513 2340 L-637657 2340 L-634720 2339 L-634677 2339 L-634369 2339 L-634117 2339 L-631522 2339 L-627266 2339 L-627248 2339 L-626012 2339 L-624134 2339 L-622181 2338 L-621233 2338 L-620962 2338 L-620652 2338 L-620554 2338 L-619724 2338 L-617693 2338 L-617402 2337 L-615256 2336 L-615100 2336 L-611444 2335 L-611193 2335 L-611094 2335 L-610577 2335 L-608426 2336 L-607497 2337 L-605971 2337 L-604732 2337 L-603185 2337 L-600224 2337 L-599102 2337 L-598792 2336 L-597581 2336 L-594575 2338 L-594555 2337 L-594208 2337 L-593994 2337 L-593868 2336 L-593627 2335 L-593589 2335 L-593569 2335 L-593550 2335 L-593491 2334 L-593432 2334 L-593414 2334 L-592971 2334 L-591732 2333 L-590186 2333 L-586798 2333 L-581072 2333 L-580870 2333 L-579235 2333 L-577513 2333 L-576081 2332 L-575848 2332 L-575133 2332 L-569001 2332 L-568633 2332 L-568479 2332 L-567900 2331 L-567608 2331 L-566640 2331 L-566331 2331 L-565732 2331 L-564125 2331 L-563390 2331 L-563081 2331 L-562312 2331 L-560276 2330 L-559851 2330 L-559038 2330 L-551610 2330 L-551087 2330 L-550913 2329 L-550178 2329 L-548610 2329 L-548205 2329 L-545980 2329 L-545032 2328 L-544607 2328 L-544277 2328 L-543233 2328 L-541125 2328 L-540872 2328 L-540254 2328 L-539441 2327 L-537333 2327 L-537285 2327 L-535356 2327 L-535031 2327 L-534896 2326 L-534392 2326 L-532980 2326 L-532477 2325 L-531955 2325 L-528395 2325 L-527660 2324 L-525235 2324 L-523946 2324 L-523539 2324 L-520387 2324 L-520232 2324 L-520212 2324 L-519845 2324 L-518587 2324 L-517872 2324 L-516982 2324 L-516575 2324 L-515646 2324 L-514538 2324 L-514234 2325 L-507986 2325 L-507038 2325 L-505412 2325 L-504910 2325 L-501235 2325 L-500402 2326 L-496449 2326 L-495037 2325 L-492548 2325 L-491872 2325 L-491833 2325 L-490962 2325 L-487751 2325 L-484888 2325 L-483920 2324 L-482798 2324 L-482779 2324 L-481154 2324 L-480690 2323 L-480598 2323 L-474229 2323 L-473280 2323 L-470823 2323 L-469951 2323 L-468715 2323 L-466714 2322 L-466316 2322 L-464880 2322 L-462854 2322 L-462640 2322 L-461460 2322 L-459952 2321 L-459932 2321 L-457920 2321 L-457050 2321 L-456179 2321 L-455594 2321 L-455057 2320 L-454399 2320 L-453161 2320 L-452601 2320 L-451420 2320 L-450182 2320 L-450144 2320 L-449757 2319 L-449215 2319 L-448441 2319 L-447319 2319 L-445230 2319 L-444896 2318 L-444611 2318 L-443682 2318 L-443199 2318 L-442463 2318 L-438832 2318 L-437705 2318 L-437550 2317 L-436524 2317 L-432809 2317 L-431592 2317 L-429773 2317 L-426988 2317 L-426426 2316 L-422538 2316 L-420062 2316 L-418727 2316 L-418223 2316 L-417740 2316 L-415051 2316 L-411279 2316 L-408822 2316 L-407642 2316 L-407003 2316 L-404644 2316 L-404566 2315 L-403519 2315 L-403425 2315 L-402922 2315 L-402477 2315 L-402419 2315 L-402205 2315 L-399246 2315 L-396538 2315 L-396383 2315 L-392863 2315 L-392340 2314 L-391372 2314 L-391023 2314 L-389980 2314 L-389051 2314 L-388625 2313 L-387116 2313 L-386150 2313 L-386131 2313 L-384235 2305 L-384119 2296 L-384071 2288 L-384046 2279 L-381042 2279 L-379011 2279 L-377251 2279 L-376884 2279 L-376438 2278 L-376071 2278 L-375657 2278 L-373672 2278 L-373459 2278 L-373304 2278 L-371699 2278 L-370577 2278 L-369629 2278 L-368371 2277 L-366727 2277 L-365547 2277 L-358958 2277 L-358911 2277 L-358505 2277 L-357460 2277 L-357325 2277 L-355642 2276 L-355622 2276 L-354286 2276 L-353049 2276 L-352895 2276 L-352521 2275 L-352315 2275 L-352006 2275 L-351232 2275 L-348910 2275 L-348252 2275 L-346125 2275 L-344402 2275 L-344209 2274 L-341655 2274 L-341379 2274 L-341191 2274 L-340358 2274 L-339586 2274 L-338888 2273 L-333887 2273 L-333511 2273 L-329259 2273 L-328771 2284 L-328752 2284 L-328673 2284 L-328598 2284 L-328578 2273 L-327765 2272 L-327012 2272 L-325792 2272 L-324361 2272 L-324264 2272 L-324090 2272 L-323735 2272 L-322426 2272 L-320569 2271 L-318866 2271 L-318364 2271 L-318098 2271 L-317705 2271 L-317571 2271 L-316661 2271 L-316285 2271 L-315356 2271 L-315017 2270 L-314978 2270 L-314940 2270 L-313024 2270 L-312851 2270 L-311322 2270 L-310994 2270 L-310878 2270 L-310471 2270 L-310122 2270 L-308479 2269 L-307928 2269 L-307685 2269 L-307143 2269 L-306312 2269 L-305770 2269 L-304236 2268 L-304144 2268 L-304107 2268 L-303971 2268 L-303584 2268 L-302559 2268 L-300682 2268 L-300586 2268 L-299986 2271 L-299619 2275 L-299134 2279 L-299096 2283 L-298322 2283 L-298265 2283 L-298090 2283 L-297897 2283 L-296291 2283 L-296271 2283 L-296116 2283 L-296001 2283 L-294821 2283 L-294666 2283 L-293999 2283 L-291551 2293 L-289036 2302 L-286366 2312 L-278667 2321 L-273000 2321 L-270785 2321 L-270762 2321 L-269788 2323 L-269768 2323 L-268904 2323 L-266164 2323 L-260365 2320 L-260212 2320 L-257426 2320 L-243818 2320 L-243072 2320 L-238661 2320 L-222315 2319 L-222083 2319 L-221546 2319 L-213086 2319 L-204381 2319 L-204168 2319 L-202196 2319 L-199410 2319 L-194922 2319 L-194767 2319 L-194598 2319 L-194458 2318 L-194167 2318 L-194129 2318 L-193858 2318 L-193686 2318 L-193276 2318 L-192155 2318 L-190975 2318 L-189698 2317 L-186834 2317 L-183914 2317 L-181922 2317 L-180375 2317 L-177337 2317 L-168012 2317 L-167488 2317 L-161764 2317 L-160257 2316 L-159443 2316 L-157759 2316 L-157038 2316 L-156870 2316 L-155824 2316 L-153757 2316 L-152395 2316 L-147952 2315 L-147855 2315 L-147816 2315 L-147797 2315 L-146965 2315 L-146887 2315 L-144314 2315 L-141065 2315 L-140910 2314 L-139962 2314 L-138221 2314 L-137505 2315 L-133965 2315 L-127387 2316 L-125970 2317 L-125949 2317 L-124999 2317 L-121524 2317 L-120771 2316 L-120210 2316 L-119427 2316 L-111923 2316 L-110325 2316 L-108751 2316 L-105566 2316 L-101233 2316 L-92663 2315 L-83917 2315 L-80843 2315 L-77577 2315 L-77030 2315 L-69893 2315 L-64225 2315 L-50161 2315 L-44149 2315 L-39443 2315 L-35440 2315 L-30332 2315 L-20618 2314 L-5048 2314 L-1965 2314 L-1663 2262 L-1643 2199 L-1624 2127 L-1605 2046 L-1585 2009 L-1566 1978 L-1547 1950 L-1520 1922 L-1499 1894 L-1471 1865 L-1436 1834 L-1422 1807 L-1409 1783 L-1390 1764 L-1372 1750 L-1352 1735 L-1334 1721 L-1314 1706 L-1294 1691 L-1273 1676 L-1256 1661 L-1238 1647 L-1217 1633 L-1197 1618 L-1179 1603 L-1160 1587 L-1140 1571 L-1120 1555 L-1102 1540 L-1083 1525 L-1062 1511 L-1037 1497 L-1022 1484 L-1005 1471 L-985 1457 L-966 1444 L-947 1430 L-928 1416 L-908 1402 L-887 1389 L-869 1377 L-851 1365 L-830 1354 L-809 1343 L-792 1334 L-773 1325 L-753 1317 L-734 1308 L-715 1300 L-696 1293 L-676 1287 L-656 1281 L-637 1274 L-619 1268 L-591 1261 L-570 1253 L-543 1244 L-509 1234 L-494 1226 L-481 1219 L-463 1212 L-444 1206 L-424 1201 L-405 1194 L-386 1187 L-366 1180 L-345 1174 L-328 1168 L-309 1162 L-289 1156 L-269 1149 L-250 1141 L-232 1132 L-212 1123 L-192 1114 L-173 1105 L-154 1096 L-133 1085 L-109 1074 L-94 1063 L-77 1052 L-57 1042 L-38 1032 L-18 1021 L0 1009 L20 998 L40 987 L58 977 L77 967 L97 957 L118 947 L135 938 L154 930 L174 921 L193 914 L213 906 L232 898 L251 891 L271 883 L290 875 L309 868 L338 860 L358 853 L385 846 L423 837 L438 829 L450 821 L467 814 L484 809 L504 804 L523 800 L542 795 L562 791 L582 787 L600 782 L618 777 L639 772 L659 766 L677 760 L696 754 L716 748 L736 741 L754 734 L773 727 L794 721 L819 714 L833 707 L851 701 L871 694 L890 687 L909 680 L928 672 L948 665 L968 658 L987 651 L1005 645 L1026 639 L1046 633 L1064 627 L1083 621 L1103 616 L1121 610 L1141 604 L1160 599 L1180 593 L1199 588 L1219 583 L1238 577 L1266 572 L1286 566 L1314 560 L1350 552 L1364 544 L1377 536 L1395 530 L1413 526 L1433 521 L1451 516 L1471 510 L1491 504 L1512 498 L1530 491 L1547 484 L1568 477 L1588 469 L1606 461 L1625 452 L1645 443 L1665 435 L1683 428 L1702 421 L1723 416 L1748 412 L1763 408 L1780 404 L1799 400 L1819 395 L1838 390 L1857 386 L1877 382 L1898 378 L1915 375 L1934 371 L1955 366 L1975 360 L1992 355 L2011 350 L2032 347 L2050 344 L2070 342 L2089 339 L2109 336 L2128 333 L2147 330 L2166 327 L2194 324 L2215 321 L2242 318 L2277 314 L2291 311 L2304 308 L2323 306 L2341 304 L2361 301 L2380 299 L2399 297 L2419 295 L2440 293 L2457 290 L2476 288 L2496 285 L2516 283 L2534 280 L2553 278 L2573 275 L2593 273 L2612 271 L2630 269 L2652 267 L2677 265 L2691 263 L2708 261 L2728 259 L2747 257 L2767 254 L2785 252 L2805 249 L2826 247 L2844 245 L2863 242 L2883 240 L2904 238 L2921 236 L2940 234 L2960 232 L2979 230 L2999 229 L3017 227 L3037 226 L3057 224 L3076 223 L3095 225 L3124 228 L3143 230 L3171 232 L3208 230 L3224 228 L3236 227 L3254 226 L3270 224 L3290 223 L3308 222 L3328 220 L3348 219 L3369 218 L3386 217 L3404 216 L3425 215 L3445 213 L3463 212 L3482 210 L3502 209 L3522 208 L3540 206 L3559 205 L3580 204 L3605 203 L3620 202 L3637 201 L3656 199 L3676 198 L3695 197 L3714 195 L3734 194 L3755 192 L3772 190 L3791 188 L3812 186 L3832 185 L3850 183 L3869 181 L3889 180 L3907 178 L3927 177 L3946 175 L3966 173 L3985 172 L4005 170 L4023 169 L4051 168 L4072 166 L4100 164 L4134 163 L4148 161 L4161 160 L4180 158 L4199 157 L4219 156 L4237 154 L4256 153 L4276 151 L4297 150 L4314 149 L4333 147 L4354 146 L4373 144 L4392 142 L4410 140 L4430 137 L4451 135 L4469 133 L4488 131 L4509 130 L4534 127 L4549 125 L4566 123 L4585 121 L4605 119 L4624 117 L4643 115 L4663 113 L4683 111 L4701 109 L4720 108 L4741 106 L4761 104 L4778 103 L4797 101 L4817 100 L4836 99 L4856 98 L4875 97 L4894 95 L4914 94 L4933 93 L4952 93 L4980 91 L5000 90 L5028 89 L5064 87 L5077 85 L5090 83 L5109 81 L5127 80 L5147 79 L5165 77 L5185 76 L5205 75 L5226 74 L5243 72 L5261 71 L5282 69 L5302 68 L5320 66 L5339 64 L5359 62 L5379 61 L5397 59 L5416 58 L5438 57 L5462 56 L5477 54 L5494 53 L5514 52 L5533 50 L5552 48 L5571 47 L5591 44 L5612 42 L5629 40 L5649 38 L5669 37 L5690 35 L5707 34 L5726 33 L5746 32 L5765 31 L5784 30 L5803 29 L5823 28 L5843 27 L5862 26 L5880 25 L5908 24 L5929 23 L5956 22 L5991 21 L6005 20 L6018 19 L6037 18 L6056 18 L6075 17 L6094 16 L6113 15 L6133 15 L6154 14 L6171 13 L6190 12 L6210 12 L6230 11 L6249 10 L6267 9 L6287 8 L6307 8 L6326 7 L6345 7 L6366 6 L6390 5 L6405 5 L6422 4 L6442 3 L6461 2 L6481 1 L6500 1" />
</svg>
