<svg xmlns="http://www.w3.org/2000/svg" version="1.1" viewBox="0 0 6500 1000">
	<path fill="none" stroke="gold" stroke-width="125" stroke-linecap="round" stroke-linejoin="round" d="M0 3166  L-729823 3166 L-727219 3166 L-725551 3166 L-707221 3166 L-707051 3166 L-699893 3165 L-699860 3165 L-686429 3165 L-683508 3165 L-670167 3165 L-665998 3164 L-664838 3164 L-664219 3163 L-662207 3163 L-658435 3162 L-657835 3162 L-657506 3162 L-657293 3162 L-656751 3161 L-655513 3160 L-654334 3159 L-651470 3158 L-650948 3157 L-646092 3157 L-643155 3156 L-643112 3156 L-642804 3156 L-642552 3156 L-639957 3155 L-635701 3155 L-635684 3155 L-634447 3155 L-632569 3155 L-630616 3155 L-629668 3155 L-629397 3155 L-629087 3154 L-628989 3154 L-628159 3154 L-626128 3154 L-625837 3153 L-623691 3153 L-623536 3152 L-619879 3151 L-619628 3151 L-619530 3151 L-619013 3152 L-616861 3152 L-615933 3153 L-614407 3154 L-613167 3154 L-611621 3154 L-608659 3153 L-607537 3153 L-607228 3153 L-606016 3153 L-603010 3154 L-602990 3154 L-602643 3154 L-602430 3154 L-602303 3152 L-602062 3152 L-602024 3151 L-602004 3151 L-601985 3151 L-601926 3151 L-601867 3150 L-601849 3150 L-601406 3150 L-600167 3149 L-598621 3149 L-595234 3149 L-589507 3149 L-589306 3149 L-587670 3149 L-585948 3148 L-584516 3148 L-584283 3148 L-583568 3148 L-577436 3148 L-577068 3148 L-576914 3147 L-576335 3147 L-576043 3147 L-575076 3146 L-574766 3146 L-574167 3146 L-572561 3146 L-571826 3146 L-571516 3146 L-570748 3146 L-568711 3146 L-568286 3146 L-567474 3145 L-560045 3145 L-559522 3145 L-559348 3145 L-558613 3144 L-557046 3144 L-556640 3144 L-554415 3144 L-553467 3144 L-553042 3143 L-552712 3143 L-551668 3143 L-549560 3143 L-549308 3143 L-548689 3142 L-547876 3142 L-545768 3142 L-545720 3142 L-543792 3142 L-543466 3141 L-543331 3141 L-542828 3141 L-541415 3141 L-540912 3140 L-540390 3140 L-536831 3139 L-536096 3139 L-533671 3139 L-532381 3138 L-531974 3138 L-528822 3138 L-528667 3138 L-528647 3138 L-528280 3138 L-527022 3138 L-526307 3139 L-525417 3139 L-525010 3139 L-524081 3139 L-522973 3138 L-522670 3139 L-516421 3139 L-515473 3139 L-513847 3140 L-513345 3140 L-509670 3140 L-508837 3140 L-504884 3140 L-503472 3140 L-500983 3140 L-500307 3139 L-500268 3139 L-499397 3139 L-496186 3139 L-493323 3139 L-492355 3139 L-491233 3139 L-491214 3138 L-489589 3138 L-489125 3138 L-489033 3137 L-482664 3137 L-481716 3137 L-479259 3137 L-478386 3137 L-477150 3137 L-475149 3137 L-474751 3136 L-473315 3136 L-471289 3136 L-471076 3136 L-469896 3135 L-468387 3135 L-468367 3135 L-466355 3135 L-465485 3135 L-464614 3135 L-464030 3134 L-463492 3134 L-462835 3134 L-461596 3134 L-461036 3133 L-459855 3133 L-458617 3133 L-458579 3133 L-458192 3133 L-457650 3133 L-456876 3132 L-455754 3132 L-453665 3132 L-453332 3132 L-453046 3132 L-452117 3131 L-451634 3131 L-450899 3131 L-447267 3131 L-446140 3131 L-445985 3131 L-444959 3130 L-441244 3130 L-440027 3130 L-438209 3130 L-435423 3130 L-434861 3129 L-430973 3129 L-428497 3129 L-427162 3129 L-426659 3129 L-426175 3129 L-423486 3129 L-419715 3129 L-417257 3129 L-416078 3129 L-415438 3129 L-413079 3128 L-413001 3128 L-411954 3128 L-411860 3128 L-411357 3128 L-410912 3128 L-410854 3128 L-410641 3128 L-407681 3128 L-404973 3128 L-404819 3127 L-401298 3127 L-400775 3127 L-399808 3127 L-399459 3127 L-398415 3126 L-397486 3126 L-397061 3126 L-395552 3126 L-394585 3126 L-394566 3126 L-392670 3116 L-392554 3106 L-392506 3096 L-392482 3086 L-389477 3086 L-387447 3085 L-385686 3085 L-385319 3085 L-384873 3085 L-384506 3085 L-384092 3084 L-382107 3084 L-381894 3084 L-381739 3084 L-380134 3084 L-379012 3084 L-378064 3084 L-376807 3084 L-375162 3084 L-373982 3083 L-367393 3083 L-367346 3083 L-366941 3083 L-365895 3083 L-365760 3083 L-364078 3082 L-364058 3082 L-362721 3082 L-361485 3082 L-361330 3082 L-360956 3081 L-360750 3081 L-360441 3081 L-359667 3081 L-357345 3081 L-356688 3081 L-354560 3080 L-352837 3080 L-352644 3080 L-350091 3080 L-349814 3080 L-349626 3079 L-348794 3079 L-348021 3079 L-347323 3079 L-342323 3079 L-341947 3079 L-337694 3079 L-337207 3092 L-337187 3092 L-337108 3092 L-337033 3092 L-337013 3078 L-336201 3078 L-335447 3077 L-334228 3077 L-332796 3077 L-332699 3077 L-332525 3077 L-332171 3077 L-330861 3077 L-329004 3077 L-327302 3076 L-326799 3076 L-326534 3076 L-326140 3076 L-326006 3076 L-325096 3076 L-324720 3076 L-323792 3076 L-323452 3075 L-323413 3075 L-323375 3075 L-321460 3075 L-321286 3075 L-319757 3075 L-319429 3075 L-319313 3075 L-318906 3075 L-318558 3074 L-316914 3074 L-316363 3074 L-316120 3074 L-315579 3074 L-314747 3074 L-314206 3073 L-312671 3073 L-312579 3073 L-312542 3073 L-312406 3073 L-312019 3073 L-310994 3072 L-309117 3072 L-309021 3072 L-308421 3077 L-308054 3081 L-307569 3086 L-307531 3090 L-306757 3091 L-306700 3091 L-306525 3090 L-306332 3090 L-304726 3090 L-304706 3090 L-304551 3090 L-304436 3090 L-303256 3090 L-303101 3091 L-302435 3091 L-299986 3102 L-297472 3113 L-294802 3124 L-287102 3135 L-281435 3135 L-279220 3135 L-279197 3135 L-278223 3137 L-278203 3137 L-277339 3137 L-274599 3137 L-268801 3134 L-268647 3134 L-265861 3134 L-252253 3133 L-251507 3133 L-247096 3133 L-230750 3133 L-230518 3133 L-229981 3132 L-221522 3132 L-212816 3132 L-212604 3132 L-210631 3132 L-207845 3132 L-203357 3132 L-203203 3132 L-203034 3132 L-202893 3132 L-202603 3132 L-202564 3131 L-202293 3131 L-202121 3131 L-201711 3131 L-200591 3131 L-199410 3131 L-198134 3131 L-195270 3130 L-192349 3130 L-190357 3130 L-188810 3130 L-185772 3130 L-176447 3130 L-175923 3130 L-170200 3130 L-168693 3129 L-167878 3129 L-166194 3129 L-165473 3129 L-165305 3129 L-164260 3129 L-162192 3129 L-160830 3128 L-156387 3128 L-156290 3128 L-156251 3128 L-156232 3128 L-155400 3128 L-155322 3128 L-152750 3127 L-149500 3127 L-149346 3127 L-148397 3127 L-146656 3127 L-145941 3128 L-142400 3128 L-135823 3129 L-134405 3130 L-134385 3130 L-133434 3130 L-129960 3130 L-129206 3129 L-128645 3129 L-127863 3129 L-120359 3129 L-118760 3129 L-117186 3129 L-114001 3129 L-109668 3128 L-101098 3128 L-92352 3128 L-89278 3128 L-86012 3128 L-85465 3128 L-78328 3128 L-72660 3128 L-58596 3128 L-52585 3128 L-47878 3128 L-43875 3127 L-38768 3127 L-29054 3127 L-13483 3127 L-10400 3127 L-10098 3066 L-10078 2991 L-10060 2907 L-10040 2812 L-10020 2769 L-10001 2732 L-9982 2699 L-9955 2666 L-9934 2634 L-9906 2600 L-9871 2562 L-9857 2531 L-9844 2503 L-9826 2481 L-9807 2464 L-9787 2447 L-9769 2430 L-9749 2413 L-9729 2396 L-9708 2378 L-9691 2360 L-9673 2343 L-9652 2327 L-9632 2310 L-9614 2292 L-9595 2273 L-9575 2254 L-9555 2236 L-9537 2218 L-9518 2201 L-9497 2184 L-9472 2167 L-9457 2152 L-9440 2137 L-9421 2121 L-9401 2106 L-9382 2089 L-9363 2072 L-9343 2056 L-9323 2041 L-9305 2026 L-9286 2012 L-9265 1999 L-9245 1987 L-9228 1976 L-9209 1966 L-9189 1955 L-9170 1946 L-9150 1936 L-9131 1928 L-9111 1920 L-9092 1913 L-9072 1906 L-9054 1899 L-9026 1890 L-9005 1880 L-8978 1870 L-8944 1858 L-8929 1849 L-8916 1840 L-8898 1833 L-8879 1826 L-8859 1819 L-8840 1811 L-8821 1804 L-8801 1796 L-8780 1788 L-8763 1782 L-8744 1774 L-8724 1767 L-8704 1759 L-8686 1749 L-8667 1739 L-8647 1728 L-8627 1718 L-8608 1707 L-8590 1696 L-8568 1684 L-8544 1671 L-8529 1658 L-8512 1645 L-8492 1633 L-8473 1621 L-8453 1608 L-8435 1595 L-8415 1582 L-8394 1569 L-8376 1557 L-8357 1545 L-8337 1533 L-8317 1522 L-8299 1511 L-8280 1501 L-8260 1491 L-8241 1482 L-8221 1473 L-8203 1464 L-8183 1456 L-8163 1446 L-8144 1437 L-8125 1429 L-8096 1420 L-8077 1412 L-8049 1403 L-8012 1393 L-7997 1383 L-7984 1374 L-7967 1366 L-7950 1360 L-7930 1354 L-7912 1349 L-7893 1344 L-7872 1339 L-7852 1334 L-7835 1328 L-7816 1322 L-7795 1316 L-7776 1309 L-7757 1302 L-7738 1295 L-7718 1288 L-7699 1280 L-7680 1271 L-7661 1264 L-7640 1256 L-7616 1248 L-7601 1240 L-7584 1232 L-7564 1224 L-7545 1216 L-7525 1208 L-7506 1199 L-7486 1191 L-7466 1183 L-7448 1174 L-7429 1167 L-7409 1160 L-7388 1153 L-7370 1146 L-7351 1139 L-7331 1132 L-7313 1126 L-7293 1119 L-7274 1113 L-7254 1106 L-7235 1100 L-7215 1094 L-7197 1088 L-7168 1081 L-7148 1075 L-7120 1067 L-7084 1057 L-7070 1048 L-7057 1039 L-7039 1032 L-7021 1027 L-7001 1022 L-6983 1015 L-6963 1009 L-6944 1002 L-6922 995 L-6904 987 L-6887 978 L-6866 970 L-6846 960 L-6828 951 L-6809 941 L-6789 930 L-6769 921 L-6751 912 L-6732 904 L-6711 899 L-6686 893 L-6671 889 L-6654 884 L-6635 879 L-6615 873 L-6596 868 L-6577 863 L-6557 858 L-6536 854 L-6519 850 L-6500 845 L-6480 839 L-6459 833 L-6442 826 L-6423 821 L-6403 817 L-6384 814 L-6364 811 L-6345 808 L-6326 805 L-6306 801 L-6287 797 L-6268 794 L-6240 790 L-6220 787 L-6192 783 L-6157 779 L-6143 775 L-6130 772 L-6111 769 L-6093 766 L-6073 764 L-6054 761 L-6035 758 L-6015 756 L-5994 753 L-5977 751 L-5958 748 L-5938 745 L-5918 742 L-5900 738 L-5881 736 L-5861 733 L-5841 731 L-5823 728 L-5804 726 L-5782 723 L-5758 721 L-5743 718 L-5726 716 L-5706 714 L-5687 711 L-5668 708 L-5649 705 L-5629 702 L-5608 700 L-5590 697 L-5572 694 L-5551 692 L-5531 690 L-5513 687 L-5494 685 L-5474 683 L-5455 680 L-5436 678 L-5417 676 L-5397 675 L-5378 673 L-5358 671 L-5340 674 L-5311 677 L-5291 680 L-5263 682 L-5226 680 L-5211 678 L-5198 676 L-5180 675 L-5164 673 L-5144 672 L-5126 670 L-5106 669 L-5087 667 L-5065 666 L-5048 665 L-5030 663 L-5009 662 L-4989 660 L-4971 659 L-4952 657 L-4932 655 L-4912 654 L-4894 652 L-4875 651 L-4854 650 L-4829 648 L-4815 647 L-4797 645 L-4778 644 L-4758 642 L-4739 641 L-4720 639 L-4700 637 L-4679 635 L-4662 632 L-4643 630 L-4622 628 L-4602 627 L-4585 625 L-4566 623 L-4546 621 L-4527 619 L-4507 617 L-4488 615 L-4468 613 L-4449 611 L-4430 610 L-4411 608 L-4383 607 L-4363 605 L-4335 603 L-4300 601 L-4286 599 L-4273 597 L-4254 595 L-4236 594 L-4216 592 L-4197 591 L-4178 589 L-4158 587 L-4137 586 L-4120 584 L-4101 583 L-4081 581 L-4061 579 L-4043 576 L-4024 574 L-4004 571 L-3984 569 L-3965 566 L-3947 564 L-3925 562 L-3900 559 L-3886 557 L-3869 554 L-3849 552 L-3830 550 L-3811 547 L-3792 545 L-3772 543 L-3751 540 L-3733 538 L-3714 536 L-3694 534 L-3673 532 L-3656 531 L-3637 529 L-3617 527 L-3598 526 L-3579 524 L-3560 523 L-3540 522 L-3520 521 L-3501 519 L-3482 519 L-3455 517 L-3434 516 L-3406 514 L-3371 512 L-3357 510 L-3344 507 L-3325 505 L-3307 504 L-3287 502 L-3269 501 L-3249 499 L-3229 498 L-3208 496 L-3191 495 L-3173 493 L-3152 491 L-3132 489 L-3114 487 L-3095 485 L-3075 483 L-3055 481 L-3037 479 L-3018 478 L-2997 477 L-2972 475 L-2957 474 L-2940 472 L-2921 470 L-2901 469 L-2882 467 L-2863 465 L-2843 462 L-2822 459 L-2805 457 L-2786 455 L-2765 453 L-2745 451 L-2728 449 L-2708 448 L-2688 447 L-2670 446 L-2650 445 L-2631 444 L-2611 442 L-2592 441 L-2572 440 L-2554 439 L-2526 438 L-2505 437 L-2478 436 L-2444 435 L-2429 433 L-2416 432 L-2398 431 L-2379 430 L-2359 430 L-2340 429 L-2321 428 L-2301 427 L-2280 426 L-2263 425 L-2244 424 L-2224 423 L-2204 422 L-2186 421 L-2167 420 L-2147 420 L-2127 419 L-2108 418 L-2089 418 L-2068 417 L-2044 416 L-2029 415 L-2012 414 L-1992 413 L-1973 412 L-1954 411 L-1935 411 L-1915 409 L-1894 408 L-1876 406 L-1857 404 L-1837 402 L-1816 400 L-1799 399 L-1780 398 L-1760 397 L-1741 395 L-1721 394 L-1703 393 L-1683 392 L-1664 391 L-1644 390 L-1625 389 L-1597 388 L-1549 387 L-1512 386 L-1497 385 L-1485 384 L-1468 383 L-1450 383 L-1430 383 L-1412 382 L-1393 381 L-1372 380 L-1352 380 L-1335 379 L-1316 379 L-1295 378 L-1276 377 L-1257 376 L-1238 376 L-1218 375 L-1199 374 L-1180 373 L-1161 372 L-1140 370 L-1115 369 L-1101 367 L-1084 366 L-1064 365 L-1045 363 L-1025 362 L-1006 361 L-986 359 L-965 358 L-948 357 L-929 355 L-908 354 L-888 353 L-870 352 L-851 351 L-831 351 L-813 350 L-793 349 L-774 348 L-754 347 L-735 346 L-715 345 L-697 344 L-668 343 L-648 342 L-620 340 L-584 338 L-569 336 L-556 334 L-539 332 L-521 331 L-501 330 L-483 330 L-463 329 L-444 328 L-422 327 L-406 326 L-387 325 L-366 324 L-346 322 L-328 321 L-309 319 L-289 317 L-269 315 L-251 313 L-232 312 L-211 310 L-186 309 L-171 308 L-153 306 L-135 305 L-115 304 L-96 303 L-77 301 L-57 300 L-36 298 L-19 297 L0 296 L19 295 L41 293 L57 292 L76 291 L96 290 L115 289 L135 288 L154 287 L173 286 L193 285 L212 284 L231 283 L259 997 L279 996 L307 995 L343 993 L357 277 L371 276 L388 274 L406 274 L426 273 L444 272 L464 272 L484 270 L505 269 L522 267 L540 266 L561 264 L581 263 L599 261 L618 259 L638 257 L659 255 L676 254 L695 253 L717 252 L742 250 L757 249 L786 247 L826 244 L849 242 L878 240 L895 238 L909 236 L928 235 L948 234 L969 233 L986 232 L1005 231 L1025 230 L1044 229 L1063 229 L1082 228 L1102 227 L1122 226 L1141 225 L1160 225 L1187 224 L1208 223 L1236 222 L1271 221 L1285 219 L1316 218 L1335 217 L1355 217 L1373 216 L1393 215 L1412 215 L1434 214 L1450 213 L1469 211 L1490 209 L1510 206 L1528 202 L1547 199 L1567 196 L1587 194 L1605 192 L1624 191 L1645 190 L1670 188 L1685 187 L1703 186 L1721 184 L1741 183 L1760 182 L1779 180 L1799 179 L1820 177 L1837 176 L1856 174 L1877 174 L1898 172 L1914 172 L1933 171 L1954 170 L1973 169 L1992 168 L2011 167 L2031 166 L2051 165 L2069 164 L2088 163 L2116 162 L2136 162 L2207 160 L2235 157 L2249 155 L2263 153 L2283 152 L2302 151 L2321 150 L2341 148 L2362 147 L2379 146 L2398 145 L2418 145 L2438 144 L2456 143 L2475 142 L2495 141 L2516 139 L2533 138 L2552 137 L2574 136 L2599 135 L2614 134 L2631 133 L2650 132 L2670 130 L2689 129 L2708 128 L2727 127 L2749 126 L2766 125 L2785 124 L2805 123 L2826 122 L2843 121 L2901 120 L2921 119 L2939 119 L2959 118 L2979 117 L2998 116 L3017 116 L3045 115 L3065 115 L3093 114 L3129 113 L3144 112 L3157 112 L3174 111 L3192 111 L3212 110 L3230 110 L3250 109 L3270 109 L3291 109 L3308 108 L3326 108 L3347 107 L3367 107 L3385 106 L3404 105 L3424 105 L3445 104 L3462 103 L3481 102 L3503 102 L3527 101 L3542 101 L3559 100 L3579 99 L3598 99 L3617 98 L3636 97 L3656 96 L3677 95 L3694 94 L3714 93 L3734 93 L3755 92 L3771 92 L3790 91 L3811 91 L3830 90 L3849 90 L3868 90 L3888 89 L3908 89 L3927 89 L3945 88 L3973 88 L3994 87 L4021 87 L4057 86 L4070 85 L4084 85 L4102 85 L4120 84 L4140 83 L4159 83 L4198 83 L4219 82 L4236 82 L4255 81 L4275 80 L4295 80 L4313 79 L4332 78 L4352 77 L4372 77 L4391 76 L4410 76 L4430 75 L4455 75 L4470 74 L4487 74 L4507 73 L4526 72 L4546 72 L4564 71 L4584 71 L4605 70 L4623 69 L4642 69 L4662 68 L4682 68 L4700 67 L4719 67 L4739 66 L4758 66 L4778 65 L4796 65 L4816 64 L4836 64 L4855 63 L4874 63 L4903 62 L4950 62 L4988 61 L5003 61 L5015 60 L5032 60 L5049 60 L5069 59 L5087 59 L5106 59 L5127 58 L5147 58 L5165 58 L5183 58 L5204 58 L5223 57 L5242 57 L5261 57 L5281 57 L5300 56 L5319 56 L5338 55 L5359 55 L5384 54 L5398 53 L5415 53 L5435 52 L5454 51 L5474 50 L5493 48 L5513 47 L5533 46 L5551 45 L5570 44 L5591 43 L5611 42 L5629 41 L5648 40 L5668 39 L5686 38 L5706 37 L5725 36 L5745 35 L5764 34 L5784 33 L5802 32 L5831 31 L5851 30 L5879 29 L5916 28 L5931 28 L5943 27 L5961 26 L5978 25 L5998 25 L6016 24 L6036 24 L6056 23 L6077 22 L6093 21 L6112 21 L6133 20 L6154 19 L6171 18 L6190 17 L6210 16 L6231 16 L6248 15 L6267 14 L6288 13 L6313 12 L6328 11 L6346 10 L6364 9 L6385 8 L6403 7 L6423 6 L6442 5 L6463 4 L6480 2 L6500 1" />
</svg>
