<svg xmlns="http://www.w3.org/2000/svg" version="1.1" viewBox="0 0 6500 1000">
	<path fill="none" stroke="gold" stroke-width="125" stroke-linecap="round" stroke-linejoin="round" d="M0 4442  L-722956 4442 L-720352 4442 L-718684 4442 L-700355 4441 L-700184 4441 L-693027 4440 L-692993 4440 L-679563 4440 L-676641 4440 L-663300 4440 L-659131 4439 L-657971 4438 L-657352 4437 L-655340 4436 L-651568 4436 L-650968 4435 L-650639 4435 L-650426 4434 L-649885 4434 L-648647 4432 L-647468 4431 L-644603 4429 L-644081 4427 L-639225 4427 L-636288 4426 L-636245 4426 L-635937 4426 L-635685 4425 L-633090 4425 L-628835 4425 L-628817 4425 L-627580 4425 L-625702 4425 L-623749 4424 L-622801 4424 L-622530 4424 L-622220 4423 L-622122 4423 L-621292 4423 L-619261 4423 L-618971 4421 L-616824 4421 L-616669 4419 L-613012 4418 L-612761 4419 L-612663 4418 L-612146 4419 L-609995 4420 L-609066 4421 L-607540 4422 L-606300 4422 L-604754 4422 L-601792 4422 L-600670 4421 L-600361 4421 L-599150 4421 L-596143 4423 L-596123 4423 L-595776 4422 L-595563 4422 L-595437 4419 L-595195 4419 L-595157 4418 L-595137 4418 L-595118 4418 L-595059 4417 L-595001 4417 L-594983 4416 L-594540 4416 L-593300 4416 L-591754 4415 L-588367 4415 L-582640 4414 L-582439 4414 L-580803 4414 L-579081 4414 L-577649 4414 L-577417 4413 L-576701 4413 L-570569 4413 L-570201 4413 L-570047 4412 L-569469 4412 L-569176 4411 L-568209 4411 L-567899 4410 L-567300 4410 L-565694 4410 L-564959 4410 L-564649 4410 L-563881 4410 L-561845 4410 L-561419 4409 L-560607 4409 L-553178 4409 L-552655 4408 L-552482 4408 L-551747 4408 L-550179 4407 L-549773 4407 L-547548 4406 L-546600 4406 L-546175 4406 L-545845 4406 L-544801 4406 L-542693 4405 L-542441 4405 L-541822 4405 L-541009 4404 L-538901 4404 L-538853 4404 L-536925 4403 L-536599 4403 L-536464 4402 L-535961 4402 L-534548 4402 L-534045 4401 L-533523 4400 L-529964 4399 L-529229 4398 L-526804 4398 L-525514 4398 L-525107 4398 L-521955 4398 L-521800 4398 L-521780 4398 L-521413 4398 L-520155 4398 L-519440 4398 L-518550 4398 L-518143 4398 L-517215 4398 L-516106 4398 L-515803 4399 L-509554 4400 L-508607 4400 L-506980 4400 L-506479 4401 L-502803 4401 L-501971 4401 L-498017 4401 L-496606 4401 L-494116 4400 L-493440 4400 L-493401 4400 L-492530 4400 L-489319 4399 L-486456 4399 L-485488 4399 L-484367 4398 L-484348 4398 L-482723 4398 L-482258 4397 L-482167 4397 L-475797 4397 L-474849 4396 L-472392 4396 L-471519 4396 L-470283 4396 L-468282 4395 L-467884 4395 L-466448 4394 L-464422 4394 L-464209 4394 L-463029 4394 L-461520 4393 L-461500 4393 L-459488 4393 L-458618 4393 L-457748 4392 L-457163 4392 L-456626 4392 L-455968 4391 L-454730 4391 L-454169 4391 L-452988 4390 L-451750 4390 L-451712 4390 L-451325 4390 L-450783 4389 L-450010 4389 L-448887 4389 L-446798 4388 L-446465 4388 L-446179 4388 L-445250 4387 L-444767 4387 L-444032 4387 L-440401 4387 L-439273 4386 L-439118 4386 L-438092 4386 L-434378 4385 L-433160 4385 L-431342 4385 L-428556 4384 L-427994 4384 L-424107 4384 L-421630 4384 L-420295 4384 L-419792 4384 L-419309 4383 L-416619 4383 L-412848 4383 L-410390 4383 L-409211 4383 L-408571 4383 L-406212 4383 L-406134 4383 L-405087 4382 L-404993 4382 L-404491 4382 L-404045 4382 L-403988 4382 L-403774 4382 L-400814 4381 L-398107 4381 L-397952 4381 L-394431 4381 L-393908 4380 L-392941 4380 L-392592 4380 L-391548 4379 L-390620 4379 L-390194 4379 L-388685 4379 L-387718 4379 L-387699 4378 L-385803 4363 L-385687 4347 L-385639 4332 L-385615 4316 L-382611 4316 L-380580 4315 L-378819 4315 L-378452 4315 L-378006 4315 L-377639 4314 L-377225 4314 L-375240 4314 L-375027 4314 L-374872 4314 L-373267 4314 L-372145 4313 L-371197 4313 L-369940 4313 L-368295 4312 L-367116 4312 L-360526 4312 L-360480 4312 L-360074 4311 L-359029 4311 L-358893 4311 L-357211 4311 L-357191 4310 L-355854 4310 L-354618 4310 L-354464 4310 L-354090 4309 L-353883 4309 L-353574 4309 L-352800 4308 L-350479 4308 L-349821 4308 L-347693 4308 L-345971 4307 L-345777 4307 L-343224 4307 L-342947 4306 L-342759 4306 L-341927 4306 L-341154 4306 L-340456 4305 L-335456 4305 L-335080 4305 L-330827 4305 L-330340 4326 L-330321 4326 L-330242 4325 L-330166 4325 L-330146 4304 L-329334 4303 L-328580 4303 L-327361 4303 L-325929 4303 L-325833 4303 L-325658 4303 L-325304 4302 L-323994 4302 L-322137 4302 L-320435 4301 L-319932 4301 L-319667 4301 L-319274 4301 L-319139 4301 L-318230 4300 L-317853 4300 L-316925 4300 L-316586 4300 L-316546 4300 L-316508 4300 L-314593 4300 L-314419 4299 L-312890 4299 L-312562 4299 L-312446 4299 L-312039 4299 L-311691 4298 L-310047 4298 L-309496 4298 L-309253 4298 L-308712 4297 L-307880 4297 L-307339 4297 L-305804 4296 L-305712 4296 L-305675 4296 L-305539 4296 L-305152 4295 L-304127 4295 L-302251 4295 L-302154 4295 L-301554 4302 L-301187 4309 L-300702 4316 L-300664 4323 L-299890 4324 L-299833 4323 L-299658 4323 L-299465 4323 L-297860 4322 L-297840 4322 L-297684 4323 L-297569 4323 L-296389 4323 L-296235 4324 L-295568 4324 L-293120 4341 L-290605 4359 L-287935 4376 L-280236 4393 L-274568 4393 L-272353 4392 L-272330 4392 L-271356 4397 L-271336 4397 L-270473 4396 L-267732 4396 L-261934 4392 L-261780 4391 L-258995 4391 L-245386 4391 L-244640 4390 L-240230 4390 L-223883 4390 L-223651 4389 L-223114 4389 L-214655 4389 L-205949 4389 L-205737 4388 L-203764 4388 L-200978 4388 L-196491 4388 L-196336 4388 L-196167 4388 L-196026 4388 L-195736 4388 L-195697 4387 L-195426 4387 L-195254 4387 L-194844 4387 L-193724 4387 L-192544 4386 L-191267 4386 L-188403 4386 L-185483 4386 L-183491 4385 L-181943 4385 L-178905 4385 L-169581 4385 L-169057 4384 L-163333 4384 L-161826 4384 L-161011 4384 L-159328 4384 L-158607 4384 L-158438 4383 L-157393 4383 L-155326 4383 L-153964 4383 L-149520 4383 L-149423 4382 L-149384 4382 L-149365 4382 L-148533 4382 L-148455 4381 L-145883 4381 L-142633 4381 L-142479 4381 L-141530 4380 L-139789 4380 L-139074 4381 L-135533 4382 L-128956 4384 L-127538 4385 L-127518 4385 L-126567 4385 L-123093 4385 L-122340 4384 L-121778 4384 L-120996 4384 L-113492 4384 L-111893 4383 L-110319 4383 L-107134 4383 L-102801 4383 L-94231 4383 L-85485 4383 L-82411 4382 L-79145 4382 L-78599 4382 L-71461 4381 L-65794 4381 L-51729 4381 L-45718 4382 L-41012 4381 L-37008 4381 L-31901 4381 L-22187 4381 L-6616 4380 L-3533 4380 L-3231 4285 L-3212 4169 L-3193 4036 L-3173 3888 L-3153 3821 L-3134 3764 L-3116 3712 L-3088 3660 L-3067 3610 L-3039 3557 L-3004 3499 L-2990 3449 L-2977 3406 L-2959 3371 L-2940 3345 L-2920 3319 L-2902 3292 L-2882 3265 L-2863 3238 L-2841 3210 L-2825 3183 L-2806 3156 L-2785 3130 L-2765 3104 L-2747 3076 L-2728 3047 L-2709 3017 L-2688 2988 L-2670 2960 L-2651 2933 L-2630 2908 L-2605 2882 L-2591 2857 L-2573 2833 L-2554 2809 L-2534 2785 L-2515 2759 L-2496 2733 L-2476 2708 L-2456 2684 L-2438 2661 L-2419 2639 L-2398 2619 L-2378 2599 L-2361 2583 L-2342 2566 L-2322 2551 L-2303 2535 L-2283 2521 L-2264 2507 L-2244 2496 L-2225 2484 L-2206 2473 L-2187 2462 L-2160 2448 L-2139 2433 L-2111 2417 L-2077 2399 L-2063 2384 L-2050 2371 L-2031 2359 L-2012 2349 L-1992 2338 L-1974 2325 L-1954 2313 L-1934 2301 L-1914 2289 L-1896 2279 L-1877 2267 L-1857 2256 L-1837 2243 L-1819 2228 L-1800 2212 L-1780 2196 L-1760 2179 L-1741 2162 L-1723 2145 L-1702 2126 L-1677 2106 L-1662 2085 L-1645 2066 L-1625 2047 L-1606 2028 L-1587 2008 L-1568 1987 L-1548 1967 L-1528 1947 L-1509 1928 L-1491 1909 L-1470 1891 L-1450 1873 L-1432 1856 L-1413 1841 L-1393 1825 L-1374 1812 L-1355 1797 L-1336 1783 L-1316 1770 L-1297 1755 L-1277 1741 L-1258 1728 L-1230 1714 L-1210 1701 L-1182 1688 L-1145 1672 L-1130 1657 L-1117 1643 L-1100 1630 L-1083 1620 L-1063 1611 L-1045 1603 L-1026 1595 L-1006 1587 L-985 1579 L-968 1570 L-949 1561 L-928 1551 L-909 1541 L-890 1531 L-871 1519 L-852 1507 L-832 1495 L-813 1482 L-794 1470 L-773 1458 L-749 1445 L-734 1433 L-717 1421 L-697 1408 L-678 1396 L-658 1383 L-639 1369 L-619 1356 L-599 1343 L-581 1330 L-562 1319 L-542 1307 L-521 1296 L-504 1286 L-485 1275 L-465 1265 L-446 1254 L-426 1244 L-407 1234 L-387 1224 L-368 1214 L-349 1205 L-330 1195 L-302 1185 L-281 1175 L-253 1163 L-217 1148 L-203 1133 L-190 1120 L-172 1108 L-154 1100 L-135 1092 L-116 1082 L-96 1072 L-77 1061 L-55 1049 L-37 1037 L-20 1024 L0 1011 L20 996 L38 981 L57 965 L76 949 L97 934 L115 920 L134 909 L155 900 L180 892 L194 884 L212 877 L231 869 L251 860 L270 852 L289 844 L308 836 L329 830 L347 824 L366 816 L386 807 L407 797 L424 787 L443 779 L463 772 L482 767 L501 763 L520 758 L540 753 L560 747 L579 741 L598 736 L625 730 L646 725 L674 720 L709 712 L722 707 L736 701 L754 697 L773 693 L793 689 L811 684 L831 680 L851 677 L872 673 L889 669 L907 664 L928 659 L948 655 L966 650 L985 645 L1005 641 L1025 637 L1043 633 L1062 629 L1083 625 L1108 622 L1123 618 L1140 614 L1159 611 L1179 607 L1198 602 L1217 598 L1237 593 L1258 589 L1275 585 L1294 581 L1315 577 L1335 573 L1353 570 L1372 566 L1392 562 L1410 559 L1430 555 L1449 553 L1469 550 L1488 547 L1508 545 L1526 549 L1555 553 L1575 558 L1603 562 L1640 558 L1655 555 L1668 552 L1685 550 L1702 548 L1722 545 L1740 543 L1760 540 L1779 538 L1801 536 L1817 534 L1836 532 L1857 530 L1877 527 L1895 525 L1914 522 L1933 520 L1954 517 L1972 515 L1991 513 L2012 511 L2037 509 L2051 506 L2068 504 L2088 501 L2107 499 L2127 497 L2146 494 L2166 491 L2186 487 L2204 484 L2223 481 L2243 478 L2264 475 L2281 472 L2300 469 L2320 466 L2339 463 L2359 460 L2378 457 L2397 453 L2417 451 L2436 449 L2455 446 L2483 443 L2503 441 L2531 438 L2566 434 L2580 431 L2593 429 L2612 426 L2630 424 L2650 421 L2669 419 L2688 416 L2708 414 L2729 411 L2746 409 L2764 406 L2785 403 L2805 400 L2823 396 L2842 392 L2862 388 L2882 384 L2900 380 L2919 377 L2941 374 L2966 370 L2980 366 L2997 362 L3017 359 L3036 355 L3055 351 L3074 347 L3094 344 L3115 340 L3132 337 L3152 334 L3172 330 L3193 327 L3210 325 L3229 322 L3249 320 L3268 318 L3287 315 L3306 313 L3326 311 L3346 309 L3365 307 L3384 306 L3411 304 L3432 302 L3460 300 L3495 296 L3509 292 L3522 289 L3541 285 L3559 283 L3579 281 L3597 278 L3617 276 L3636 274 L3657 271 L3674 269 L3693 266 L3714 263 L3734 260 L3752 257 L3771 254 L3790 251 L3811 248 L3829 245 L3848 243 L3869 241 L3894 238 L3909 236 L3926 233 L3945 231 L3965 228 L3984 225 L4003 222 L4023 218 L4044 213 L4061 210 L4080 206 L4101 203 L4121 200 L4138 198 L4157 196 L4177 195 L4196 193 L4216 191 L4235 189 L4255 187 L4274 185 L4293 184 L4312 182 L4339 180 L4360 178 L4388 176 L4422 175 L4437 173 L4450 171 L4468 170 L4487 168 L4507 167 L4525 166 L4545 164 L4565 163 L4585 162 L4603 160 L4622 159 L4642 157 L4662 156 L4680 154 L4699 153 L4719 151 L4739 150 L4757 149 L4776 148 L4797 147 L4822 146 L4837 144 L4854 143 L4874 141 L4893 140 L4912 139 L4931 137 L4951 135 L4972 133 L4990 130 L5008 127 L5029 124 L5049 121 L5067 119 L5086 118 L5106 115 L5125 114 L5144 111 L5163 109 L5183 108 L5202 106 L5222 105 L5241 103 L5269 102 L5317 101 L5354 99 L5369 98 L5381 96 L5398 95 L5416 94 L5435 94 L5454 93 L5473 91 L5493 90 L5514 89 L5531 88 L5550 87 L5570 86 L5590 85 L5609 84 L5627 83 L5648 81 L5667 80 L5686 78 L5705 77 L5726 75 L5750 72 L5765 70 L5782 68 L5802 65 L5821 63 L5841 61 L5860 60 L5880 57 L5900 55 L5918 53 L5937 51 L5957 49 L5978 48 L5995 47 L6014 45 L6034 44 L6053 42 L6073 41 L6092 39 L6112 38 L6131 36 L6151 35 L6169 33 L6198 31 L6218 30 L6246 27 L6282 24 L6297 21 L6310 18 L6327 15 L6345 14 L6365 12 L6383 11 L6403 10 L6422 9 L6444 7 L6460 6 L6479 4 L6500 2" />
</svg>
