<svg xmlns="http://www.w3.org/2000/svg" version="1.1" viewBox="0 0 6500 1000">
	<path fill="none" stroke="gold" stroke-width="125" stroke-linecap="round" stroke-linejoin="round" d="M0 3712  L-724851 3712 L-722247 3712 L-720579 3712 L-702250 3712 L-702080 3711 L-694922 3711 L-694889 3711 L-681458 3711 L-678536 3711 L-665195 3710 L-661026 3710 L-659866 3709 L-659247 3708 L-657235 3708 L-653463 3707 L-652863 3707 L-652534 3707 L-652321 3706 L-651780 3706 L-650542 3704 L-649363 3703 L-646498 3702 L-645976 3700 L-641121 3700 L-638183 3700 L-638140 3699 L-637832 3699 L-637580 3699 L-634985 3698 L-630730 3698 L-630712 3698 L-629475 3698 L-627598 3698 L-625644 3698 L-624696 3698 L-624425 3697 L-624115 3697 L-624017 3697 L-623187 3697 L-621156 3697 L-620866 3696 L-618719 3695 L-618564 3694 L-614908 3693 L-614657 3694 L-614558 3693 L-614041 3694 L-611890 3695 L-610961 3696 L-609435 3696 L-608195 3696 L-606649 3696 L-603687 3696 L-602565 3696 L-602256 3695 L-601045 3695 L-598038 3697 L-598018 3697 L-597671 3697 L-597458 3696 L-597332 3694 L-597090 3694 L-597052 3693 L-597033 3693 L-597013 3693 L-596954 3692 L-596896 3692 L-596878 3692 L-596435 3691 L-595195 3691 L-593650 3691 L-590262 3690 L-584536 3690 L-584334 3690 L-582698 3690 L-580976 3690 L-579544 3689 L-579312 3689 L-578597 3689 L-572464 3689 L-572097 3689 L-571942 3688 L-571364 3688 L-571071 3688 L-570104 3687 L-569794 3687 L-569195 3687 L-567589 3687 L-566854 3687 L-566544 3687 L-565776 3687 L-563740 3686 L-563314 3686 L-562502 3686 L-555073 3686 L-554550 3685 L-554377 3685 L-553642 3685 L-552074 3684 L-551668 3684 L-549443 3684 L-548495 3684 L-548070 3683 L-547740 3683 L-546696 3683 L-544588 3683 L-544336 3683 L-543717 3682 L-542904 3682 L-540796 3682 L-540748 3681 L-538820 3681 L-538494 3681 L-538359 3680 L-537856 3680 L-536443 3680 L-535940 3679 L-535418 3679 L-531859 3678 L-531124 3677 L-528699 3677 L-527410 3677 L-527003 3677 L-523850 3677 L-523695 3677 L-523675 3677 L-523308 3677 L-522050 3677 L-521335 3677 L-520445 3677 L-520038 3677 L-519110 3677 L-518001 3677 L-517698 3678 L-511449 3678 L-510502 3679 L-508876 3679 L-508374 3679 L-504698 3679 L-503866 3679 L-499913 3680 L-498501 3679 L-496011 3679 L-495335 3678 L-495296 3678 L-494425 3678 L-491214 3678 L-488351 3678 L-487383 3678 L-486262 3677 L-486243 3677 L-484618 3677 L-484154 3676 L-484062 3676 L-477692 3676 L-476744 3676 L-474287 3676 L-473415 3675 L-472179 3675 L-470177 3675 L-469780 3674 L-468343 3674 L-466317 3674 L-466104 3674 L-464924 3673 L-463415 3673 L-463395 3673 L-461383 3673 L-460514 3673 L-459643 3672 L-459058 3672 L-458521 3672 L-457863 3671 L-456625 3671 L-456064 3671 L-454883 3671 L-453646 3671 L-453607 3670 L-453220 3670 L-452678 3670 L-451905 3670 L-450782 3670 L-448693 3669 L-448360 3669 L-448074 3669 L-447146 3668 L-446662 3668 L-445927 3668 L-442296 3668 L-441168 3668 L-441013 3667 L-439987 3667 L-436273 3667 L-435055 3667 L-433237 3666 L-430451 3666 L-429890 3666 L-426002 3666 L-423525 3666 L-422190 3666 L-421687 3665 L-421204 3665 L-418514 3665 L-414743 3665 L-412286 3665 L-411106 3665 L-410467 3665 L-408107 3665 L-408030 3665 L-406982 3664 L-406889 3664 L-406386 3664 L-405940 3664 L-405883 3664 L-405669 3664 L-402709 3664 L-400002 3664 L-399847 3663 L-396326 3663 L-395803 3663 L-394836 3663 L-394487 3662 L-393443 3662 L-392515 3662 L-392089 3662 L-390580 3662 L-389613 3661 L-389594 3661 L-387698 3649 L-387582 3636 L-387534 3624 L-387510 3611 L-384506 3611 L-382475 3611 L-380714 3611 L-380347 3610 L-379901 3610 L-379535 3610 L-379121 3610 L-377136 3609 L-376922 3609 L-376768 3609 L-375162 3609 L-374041 3609 L-373092 3609 L-371835 3609 L-370190 3608 L-369011 3608 L-362421 3608 L-362375 3608 L-361969 3608 L-360924 3607 L-360788 3607 L-359106 3607 L-359086 3607 L-357749 3606 L-356513 3606 L-356359 3606 L-355985 3606 L-355779 3606 L-355469 3605 L-354695 3605 L-352374 3605 L-351716 3605 L-349588 3605 L-347866 3604 L-347672 3604 L-345119 3604 L-344843 3604 L-344654 3603 L-343822 3603 L-343049 3603 L-342351 3603 L-337351 3603 L-336975 3602 L-332722 3602 L-332235 3619 L-332216 3619 L-332137 3619 L-332061 3619 L-332042 3601 L-331229 3601 L-330475 3601 L-329256 3601 L-327824 3601 L-327728 3601 L-327553 3601 L-327199 3600 L-325890 3600 L-324032 3600 L-322330 3600 L-321827 3599 L-321562 3599 L-321169 3599 L-321034 3599 L-320125 3599 L-319748 3598 L-318820 3598 L-318481 3598 L-318441 3598 L-318403 3598 L-316488 3598 L-316314 3598 L-314786 3598 L-314457 3598 L-314341 3598 L-313934 3597 L-313586 3597 L-311942 3597 L-311391 3597 L-311148 3596 L-310607 3596 L-309776 3596 L-309234 3596 L-307699 3595 L-307607 3595 L-307570 3595 L-307434 3595 L-307047 3595 L-306022 3595 L-304146 3594 L-304049 3594 L-303449 3600 L-303082 3605 L-302598 3611 L-302559 3617 L-301786 3617 L-301728 3617 L-301554 3617 L-301360 3617 L-299755 3616 L-299735 3616 L-299580 3617 L-299464 3617 L-298285 3617 L-298130 3617 L-297463 3617 L-295015 3631 L-292500 3645 L-289830 3659 L-282131 3673 L-276463 3673 L-274249 3672 L-274225 3672 L-273251 3676 L-273231 3676 L-272368 3676 L-269627 3675 L-263829 3672 L-263676 3671 L-260890 3671 L-247281 3671 L-246535 3671 L-242125 3670 L-225779 3670 L-225546 3670 L-225009 3670 L-216550 3670 L-207844 3669 L-207632 3669 L-205659 3669 L-202873 3669 L-198386 3669 L-198231 3669 L-198062 3669 L-197921 3669 L-197631 3669 L-197592 3668 L-197321 3668 L-197150 3668 L-196740 3668 L-195619 3668 L-194439 3668 L-193162 3667 L-190298 3667 L-187378 3667 L-185386 3667 L-183838 3667 L-180800 3666 L-171476 3666 L-170952 3666 L-165228 3666 L-163721 3666 L-162906 3666 L-161223 3666 L-160502 3665 L-160333 3665 L-159288 3665 L-157221 3665 L-155859 3665 L-151415 3665 L-151318 3664 L-151280 3664 L-151261 3664 L-150428 3664 L-150350 3664 L-147778 3663 L-144529 3663 L-144374 3663 L-143425 3663 L-141684 3663 L-140969 3664 L-137428 3664 L-130851 3665 L-129434 3667 L-129413 3667 L-128462 3666 L-124988 3666 L-124235 3666 L-123673 3666 L-122891 3666 L-115387 3665 L-113789 3665 L-112215 3665 L-109029 3665 L-104696 3665 L-96126 3665 L-87380 3665 L-84306 3664 L-81040 3664 L-80494 3664 L-73356 3664 L-67689 3664 L-53624 3664 L-47613 3664 L-42907 3664 L-38903 3663 L-33796 3663 L-24082 3663 L-8511 3663 L-5429 3662 L-5126 3587 L-5107 3493 L-5088 3387 L-5068 3269 L-5049 3214 L-5029 3169 L-5011 3127 L-4983 3086 L-4962 3045 L-4934 3003 L-4899 2956 L-4885 2917 L-4872 2882 L-4854 2854 L-4835 2833 L-4815 2812 L-4797 2790 L-4778 2769 L-4758 2747 L-4737 2725 L-4720 2703 L-4701 2681 L-4681 2661 L-4661 2640 L-4642 2617 L-4623 2594 L-4604 2570 L-4584 2547 L-4565 2524 L-4546 2503 L-4525 2483 L-4500 2462 L-4486 2442 L-4468 2423 L-4449 2403 L-4429 2384 L-4410 2363 L-4391 2342 L-4371 2322 L-4351 2303 L-4333 2285 L-4314 2267 L-4294 2251 L-4273 2236 L-4256 2222 L-4237 2209 L-4217 2196 L-4198 2184 L-4178 2172 L-4159 2162 L-4140 2152 L-4120 2143 L-4101 2134 L-4082 2125 L-4055 2114 L-4034 2102 L-4006 2089 L-3972 2075 L-3958 2063 L-3945 2052 L-3926 2043 L-3907 2035 L-3887 2026 L-3869 2016 L-3849 2006 L-3829 1996 L-3809 1987 L-3791 1979 L-3773 1969 L-3752 1960 L-3732 1950 L-3714 1938 L-3695 1925 L-3675 1912 L-3655 1899 L-3637 1885 L-3618 1872 L-3597 1856 L-3572 1840 L-3558 1823 L-3540 1808 L-3521 1793 L-3501 1777 L-3482 1761 L-3463 1744 L-3443 1728 L-3423 1712 L-3404 1697 L-3386 1682 L-3365 1668 L-3345 1653 L-3327 1640 L-3308 1628 L-3288 1615 L-3270 1604 L-3250 1593 L-3231 1581 L-3211 1571 L-3192 1559 L-3172 1548 L-3154 1537 L-3125 1526 L-3105 1515 L-3077 1505 L-3040 1492 L-3025 1480 L-3012 1469 L-2995 1458 L-2978 1450 L-2959 1443 L-2940 1437 L-2921 1430 L-2901 1424 L-2880 1418 L-2863 1411 L-2844 1403 L-2824 1395 L-2804 1387 L-2785 1379 L-2767 1370 L-2747 1360 L-2727 1350 L-2708 1340 L-2689 1330 L-2668 1321 L-2644 1310 L-2629 1301 L-2612 1291 L-2592 1281 L-2573 1271 L-2553 1261 L-2534 1250 L-2514 1239 L-2494 1229 L-2476 1218 L-2457 1209 L-2437 1200 L-2417 1191 L-2399 1183 L-2380 1174 L-2360 1166 L-2341 1158 L-2321 1149 L-2302 1141 L-2282 1133 L-2263 1125 L-2244 1118 L-2225 1110 L-2197 1102 L-2177 1094 L-2149 1085 L-2112 1072 L-2098 1060 L-2085 1050 L-2068 1040 L-2050 1034 L-2030 1027 L-2011 1020 L-1991 1011 L-1972 1003 L-1951 993 L-1932 983 L-1915 973 L-1895 962 L-1874 950 L-1856 938 L-1838 926 L-1818 913 L-1797 901 L-1780 890 L-1761 880 L-1739 873 L-1714 867 L-1700 861 L-1682 855 L-1663 848 L-1644 842 L-1625 835 L-1606 828 L-1586 822 L-1565 817 L-1547 812 L-1528 807 L-1508 799 L-1487 791 L-1470 783 L-1451 776 L-1431 771 L-1412 767 L-1393 764 L-1374 760 L-1354 755 L-1334 751 L-1315 746 L-1296 742 L-1269 737 L-1248 733 L-1220 729 L-1185 723 L-1172 718 L-1158 714 L-1140 711 L-1121 707 L-1101 704 L-1083 701 L-1063 697 L-1043 694 L-1022 691 L-1005 688 L-987 685 L-966 681 L-946 677 L-928 673 L-909 669 L-889 666 L-869 663 L-851 660 L-832 657 L-811 653 L-786 650 L-771 647 L-754 645 L-735 642 L-715 638 L-696 635 L-677 631 L-657 627 L-636 624 L-619 621 L-600 618 L-579 614 L-559 612 L-541 609 L-523 605 L-502 603 L-484 600 L-464 597 L-445 595 L-425 593 L-406 591 L-387 589 L-368 593 L-339 596 L-319 599 L-291 602 L-254 599 L-239 597 L-226 595 L-209 593 L-192 591 L-173 589 L-154 587 L-135 585 L-115 583 L-94 582 L-77 580 L-58 579 L-38 577 L-17 575 L0 573 L18 571 L38 569 L58 567 L77 565 L95 563 L117 562 L142 560 L156 558 L173 556 L193 554 L212 552 L232 550 L251 548 L270 546 L291 543 L309 540 L328 537 L348 535 L369 533 L386 530 L405 528 L425 526 L444 523 L464 521 L482 518 L502 515 L522 513 L541 512 L560 510 L587 508 L608 505 L636 503 L671 500 L684 498 L698 496 L717 494 L735 492 L755 490 L773 488 L793 486 L813 484 L834 482 L851 480 L869 478 L890 475 L910 473 L928 470 L947 467 L967 463 L987 460 L1005 457 L1024 454 L1045 452 L1070 448 L1085 446 L1102 442 L1121 439 L1141 437 L1160 434 L1179 430 L1199 428 L1220 425 L1237 422 L1256 419 L1277 417 L1298 414 L1315 412 L1334 410 L1354 408 L1373 407 L1392 405 L1411 403 L1431 402 L1451 400 L1470 399 L1488 397 L1516 396 L1537 394 L1564 392 L1600 389 L1614 386 L1627 383 L1645 381 L1664 379 L1683 377 L1702 375 L1722 373 L1741 371 L1762 369 L1779 367 L1798 365 L1819 363 L1838 360 L1857 358 L1876 356 L1895 353 L1916 351 L1934 348 L1953 347 L1974 345 L1999 343 L2014 341 L2031 339 L2050 337 L2070 335 L2089 332 L2108 330 L2128 327 L2149 323 L2166 320 L2185 317 L2206 315 L2226 313 L2243 311 L2262 309 L2282 308 L2301 307 L2321 305 L2339 304 L2359 302 L2379 300 L2398 299 L2417 298 L2444 296 L2465 295 L2493 294 L2527 292 L2541 291 L2555 290 L2573 288 L2592 287 L2612 286 L2630 285 L2650 284 L2670 283 L2690 282 L2708 281 L2726 280 L2747 278 L2767 277 L2785 276 L2804 275 L2824 274 L2844 273 L2862 272 L2881 271 L2902 270 L2927 269 L2941 268 L2959 267 L2978 265 L2998 264 L3017 263 L3036 262 L3056 261 L3076 259 L3094 256 L3113 254 L3134 251 L3154 249 L3172 248 L3191 246 L3211 245 L3229 243 L3249 241 L3268 240 L3288 239 L3307 237 L3327 236 L3345 235 L3374 234 L3422 233 L3459 232 L3474 230 L3486 229 L3503 228 L3521 228 L3540 227 L3559 226 L3578 225 L3598 224 L3619 223 L3636 223 L3655 222 L3675 221 L3695 220 L3714 219 L3732 218 L3752 217 L3772 216 L3791 215 L3810 214 L3831 212 L3855 210 L3870 208 L3887 206 L3907 205 L3926 203 L3946 201 L3964 200 L3985 198 L4005 196 L4023 195 L4042 193 L4062 192 L4082 190 L4100 189 L4119 188 L4139 187 L4158 186 L4178 185 L4197 184 L4217 182 L4236 181 L4255 180 L4274 178 L4302 177 L4323 176 L4351 174 L4387 172 L4402 169 L4414 167 L4432 164 L4449 163 L4470 162 L4488 161 L4508 160 L4527 159 L4548 158 L4565 157 L4584 155 L4604 154 L4625 152 L4643 150 L4662 147 L4681 145 L4702 142 L4720 140 L4738 139 L4760 137 L4785 135 L4800 133 L4817 132 L4836 130 L4856 129 L4875 127 L4893 125 L4913 123 L4935 122 L4952 120 L4971 118 L4991 117 L5012 115 L5029 114 L5048 113 L5068 111 L5087 110 L5106 109 L5125 108 L5145 106 L5165 105 L5184 104 L5203 103 L5231 997 L5251 995 L5279 994 L5315 992 L5329 95 L5342 93 L5360 92 L5378 91 L5398 90 L5416 89 L5436 88 L5456 87 L5477 85 L5494 83 L5512 81 L5533 79 L5553 77 L5571 75 L5590 72 L5610 70 L5631 68 L5648 67 L5667 65 L5688 64 L5713 62 L5728 59 L5758 57 L5798 54 L5821 52 L5850 49 L5867 46 L5880 44 L5900 42 L5920 41 L5941 40 L5957 39 L5976 37 L5997 36 L6015 35 L6035 35 L6054 34 L6074 33 L6094 32 L6112 31 L6131 29 L6159 28 L6180 27 L6208 26 L6243 24 L6256 23 L6288 22 L6307 20 L6326 20 L6345 19 L6364 18 L6384 17 L6405 16 L6422 15 L6441 13 L6461 10 L6482 6 L6500 1" />
</svg>
