<svg xmlns="http://www.w3.org/2000/svg" version="1.1" viewBox="0 0 6500 1000">
	<path fill="none" stroke="gold" stroke-width="125" stroke-linecap="round" stroke-linejoin="round" d="M0 3210  L-729435 3210 L-726831 3209 L-725163 3209 L-706834 3209 L-706664 3209 L-699506 3208 L-699473 3208 L-686042 3208 L-683120 3208 L-669779 3208 L-665610 3208 L-664450 3207 L-663831 3206 L-661819 3206 L-658047 3205 L-657447 3205 L-657118 3205 L-656905 3205 L-656364 3204 L-655126 3203 L-653947 3202 L-651082 3201 L-650560 3200 L-645705 3200 L-642767 3199 L-642724 3199 L-642416 3199 L-642164 3199 L-639569 3198 L-635314 3198 L-635296 3198 L-634059 3198 L-632181 3198 L-630228 3198 L-629280 3198 L-629009 3197 L-628699 3197 L-628601 3197 L-627771 3197 L-625740 3197 L-625450 3196 L-623303 3196 L-623148 3195 L-619492 3194 L-619240 3194 L-619142 3194 L-618625 3195 L-616474 3195 L-615545 3196 L-614019 3197 L-612779 3197 L-611233 3197 L-608271 3196 L-607149 3196 L-606840 3196 L-605629 3196 L-602622 3197 L-602602 3197 L-602255 3197 L-602042 3197 L-601916 3195 L-601674 3194 L-601636 3194 L-601617 3194 L-601597 3194 L-601538 3193 L-601480 3193 L-601462 3193 L-601019 3193 L-599779 3192 L-598234 3192 L-594846 3192 L-589120 3192 L-588918 3191 L-587282 3191 L-585560 3191 L-584128 3191 L-583896 3191 L-583180 3191 L-577048 3191 L-576681 3190 L-576526 3190 L-575948 3190 L-575655 3190 L-574688 3189 L-574378 3189 L-573779 3189 L-572173 3189 L-571438 3189 L-571128 3189 L-570360 3189 L-568324 3189 L-567898 3188 L-567086 3188 L-559657 3188 L-559134 3188 L-558961 3187 L-558226 3187 L-556658 3187 L-556252 3187 L-554027 3186 L-553079 3186 L-552654 3186 L-552324 3186 L-551280 3186 L-549172 3186 L-548920 3185 L-548301 3185 L-547488 3185 L-545380 3185 L-545332 3184 L-543404 3184 L-543078 3184 L-542943 3184 L-542440 3183 L-541027 3183 L-540524 3183 L-540002 3182 L-536443 3182 L-535708 3181 L-533283 3181 L-531994 3181 L-531587 3181 L-528434 3181 L-528279 3181 L-528259 3181 L-527892 3181 L-526634 3181 L-525919 3181 L-525029 3181 L-524622 3181 L-523694 3181 L-522585 3181 L-522282 3182 L-516033 3182 L-515086 3182 L-513460 3182 L-512958 3183 L-509282 3183 L-508450 3183 L-504497 3183 L-503085 3183 L-500595 3182 L-499919 3182 L-499880 3182 L-499009 3182 L-495798 3182 L-492935 3182 L-491967 3181 L-490846 3181 L-490827 3181 L-489202 3181 L-488738 3180 L-488646 3180 L-482276 3180 L-481328 3180 L-478871 3180 L-477999 3179 L-476762 3179 L-474761 3179 L-474364 3179 L-472927 3179 L-470901 3178 L-470688 3178 L-469508 3178 L-467999 3178 L-467979 3178 L-465967 3178 L-465098 3177 L-464227 3177 L-463642 3177 L-463105 3177 L-462447 3176 L-461209 3176 L-460648 3176 L-459467 3176 L-458230 3176 L-458191 3176 L-457804 3175 L-457262 3175 L-456489 3175 L-455366 3175 L-453277 3175 L-452944 3174 L-452658 3174 L-451730 3174 L-451246 3174 L-450511 3173 L-446880 3173 L-445752 3173 L-445597 3173 L-444571 3173 L-440857 3173 L-439639 3172 L-437821 3172 L-435035 3172 L-434474 3172 L-430586 3172 L-428109 3172 L-426774 3172 L-426271 3171 L-425788 3171 L-423098 3171 L-419327 3171 L-416870 3171 L-415690 3171 L-415051 3171 L-412691 3171 L-412614 3171 L-411566 3171 L-411473 3170 L-410970 3170 L-410524 3170 L-410467 3170 L-410253 3170 L-407293 3170 L-404586 3170 L-404431 3170 L-400910 3170 L-400387 3169 L-399420 3169 L-399071 3169 L-398027 3169 L-397099 3168 L-396673 3168 L-395164 3168 L-394197 3168 L-394178 3168 L-392282 3158 L-392166 3148 L-392118 3138 L-392094 3127 L-389090 3127 L-387059 3127 L-385298 3127 L-384931 3127 L-384485 3126 L-384119 3126 L-383705 3126 L-381720 3126 L-381506 3126 L-381352 3126 L-379746 3126 L-378625 3126 L-377676 3125 L-376419 3125 L-374774 3125 L-373595 3125 L-367005 3125 L-366959 3124 L-366553 3124 L-365508 3124 L-365372 3124 L-363690 3124 L-363670 3124 L-362333 3123 L-361097 3123 L-360943 3123 L-360569 3123 L-360363 3123 L-360053 3123 L-359279 3122 L-356958 3122 L-356300 3122 L-354172 3122 L-352450 3122 L-352256 3121 L-349703 3121 L-349427 3121 L-349238 3121 L-348406 3121 L-347633 3120 L-346935 3120 L-341935 3120 L-341559 3120 L-337306 3120 L-336819 3134 L-336800 3134 L-336721 3133 L-336645 3133 L-336626 3119 L-335813 3119 L-335059 3119 L-333840 3119 L-332408 3119 L-332312 3119 L-332137 3119 L-331783 3118 L-330474 3118 L-328616 3118 L-326914 3118 L-326411 3118 L-326146 3117 L-325753 3117 L-325618 3117 L-324709 3117 L-324332 3117 L-323404 3117 L-323065 3117 L-323025 3117 L-322987 3117 L-321072 3117 L-320898 3116 L-319369 3116 L-319041 3116 L-318925 3116 L-318518 3116 L-318170 3116 L-316526 3116 L-315975 3115 L-315732 3115 L-315191 3115 L-314360 3115 L-313818 3115 L-312283 3114 L-312191 3114 L-312154 3114 L-312018 3114 L-311631 3114 L-310606 3114 L-308730 3114 L-308633 3113 L-308033 3118 L-307666 3123 L-307181 3127 L-307143 3132 L-306370 3132 L-306312 3132 L-306138 3132 L-305944 3132 L-304339 3131 L-304319 3131 L-304164 3132 L-304048 3132 L-302869 3132 L-302714 3132 L-302047 3132 L-299599 3144 L-297084 3155 L-294414 3166 L-286715 3177 L-281047 3177 L-278833 3177 L-278809 3177 L-277835 3180 L-277815 3180 L-276952 3180 L-274211 3180 L-268413 3177 L-268259 3176 L-265474 3176 L-251865 3176 L-251119 3176 L-246709 3176 L-230363 3175 L-230130 3175 L-229593 3175 L-221134 3175 L-212428 3175 L-212216 3175 L-210243 3174 L-207457 3174 L-202970 3175 L-202815 3174 L-202646 3174 L-202505 3174 L-202215 3174 L-202176 3174 L-201905 3174 L-201734 3174 L-201323 3173 L-200203 3173 L-199023 3173 L-197746 3173 L-194882 3173 L-191962 3173 L-189970 3173 L-188422 3172 L-185384 3172 L-176060 3172 L-175536 3172 L-169812 3172 L-168305 3172 L-167490 3172 L-165807 3172 L-165086 3171 L-164917 3171 L-163872 3171 L-161805 3171 L-160443 3171 L-155999 3171 L-155902 3171 L-155864 3170 L-155845 3170 L-155012 3170 L-154934 3170 L-152362 3170 L-149113 3170 L-148958 3169 L-148009 3169 L-146268 3169 L-145553 3170 L-142012 3171 L-135435 3171 L-134018 3173 L-133997 3172 L-133046 3172 L-129572 3172 L-128819 3172 L-128257 3172 L-127475 3172 L-119971 3171 L-118372 3171 L-116799 3171 L-113613 3171 L-109280 3171 L-100710 3171 L-91964 3171 L-88890 3171 L-85624 3170 L-85078 3170 L-77940 3170 L-72273 3170 L-58208 3170 L-52197 3170 L-47491 3170 L-43487 3170 L-38380 3170 L-28666 3169 L-13095 3169 L-10013 3169 L-9710 3107 L-9691 3031 L-9672 2945 L-9652 2848 L-9633 2804 L-9613 2767 L-9595 2733 L-9567 2699 L-9546 2666 L-9518 2632 L-9483 2594 L-9469 2561 L-9456 2533 L-9438 2510 L-9419 2493 L-9399 2476 L-9381 2458 L-9362 2441 L-9342 2423 L-9321 2405 L-9304 2387 L-9285 2370 L-9265 2353 L-9245 2336 L-9226 2318 L-9207 2299 L-9188 2279 L-9167 2260 L-9149 2242 L-9130 2225 L-9109 2208 L-9084 2191 L-9070 2175 L-9052 2159 L-9033 2143 L-9013 2128 L-8994 2111 L-8975 2093 L-8955 2077 L-8935 2062 L-8917 2046 L-8898 2032 L-8878 2019 L-8857 2007 L-8840 1996 L-8821 1985 L-8801 1975 L-8782 1965 L-8762 1955 L-8743 1946 L-8724 1939 L-8704 1931 L-8685 1924 L-8666 1917 L-8639 1908 L-8618 1898 L-8590 1887 L-8556 1875 L-8542 1866 L-8529 1857 L-8510 1849 L-8491 1843 L-8471 1836 L-8453 1827 L-8433 1820 L-8413 1811 L-8393 1804 L-8375 1797 L-8356 1790 L-8336 1782 L-8316 1774 L-8298 1764 L-8279 1753 L-8259 1743 L-8239 1732 L-8221 1721 L-8202 1710 L-8181 1697 L-8156 1684 L-8142 1671 L-8124 1658 L-8105 1646 L-8085 1633 L-8066 1620 L-8047 1606 L-8027 1593 L-8007 1580 L-7988 1568 L-7970 1556 L-7949 1544 L-7929 1532 L-7911 1521 L-7892 1511 L-7872 1501 L-7854 1492 L-7834 1483 L-7815 1474 L-7795 1465 L-7776 1455 L-7756 1446 L-7737 1437 L-7709 1428 L-7689 1420 L-7661 1411 L-7624 1401 L-7609 1391 L-7596 1382 L-7579 1373 L-7562 1367 L-7542 1361 L-7524 1356 L-7505 1351 L-7485 1346 L-7464 1340 L-7447 1334 L-7428 1328 L-7408 1322 L-7388 1316 L-7369 1309 L-7351 1301 L-7331 1293 L-7311 1285 L-7292 1277 L-7273 1269 L-7252 1261 L-7228 1253 L-7213 1245 L-7196 1237 L-7176 1228 L-7157 1221 L-7137 1212 L-7118 1203 L-7098 1195 L-7078 1186 L-7060 1178 L-7041 1170 L-7021 1163 L-7001 1156 L-6983 1149 L-6964 1142 L-6944 1135 L-6925 1128 L-6905 1121 L-6886 1115 L-6866 1108 L-6847 1102 L-6828 1096 L-6809 1089 L-6781 1083 L-6761 1076 L-6733 1069 L-6696 1059 L-6682 1049 L-6669 1040 L-6652 1032 L-6634 1027 L-6614 1022 L-6595 1016 L-6575 1009 L-6556 1002 L-6535 994 L-6516 986 L-6499 978 L-6479 969 L-6458 960 L-6440 950 L-6422 939 L-6402 929 L-6381 919 L-6364 910 L-6345 902 L-6323 897 L-6298 891 L-6284 887 L-6266 882 L-6247 876 L-6228 871 L-6209 865 L-6190 860 L-6170 855 L-6149 851 L-6131 847 L-6112 842 L-6092 836 L-6071 829 L-6054 823 L-6035 818 L-6015 813 L-5996 810 L-5977 807 L-5958 804 L-5938 801 L-5918 797 L-5899 793 L-5880 790 L-5853 786 L-5832 783 L-5804 779 L-5769 774 L-5756 770 L-5742 767 L-5724 764 L-5705 762 L-5685 759 L-5667 756 L-5647 753 L-5627 751 L-5606 748 L-5589 746 L-5571 743 L-5550 740 L-5530 737 L-5512 733 L-5493 730 L-5473 728 L-5453 725 L-5435 723 L-5416 720 L-5395 717 L-5370 715 L-5355 713 L-5338 710 L-5319 708 L-5299 705 L-5280 703 L-5261 700 L-5241 696 L-5220 694 L-5203 691 L-5184 688 L-5163 686 L-5143 683 L-5125 681 L-5106 678 L-5086 676 L-5068 674 L-5048 672 L-5029 670 L-5009 668 L-4990 667 L-4971 665 L-4952 668 L-4923 671 L-4903 673 L-4875 676 L-4838 673 L-4823 671 L-4810 670 L-4793 668 L-4776 667 L-4757 665 L-4738 664 L-4718 662 L-4699 661 L-4678 659 L-4661 658 L-4642 657 L-4622 655 L-4601 653 L-4583 652 L-4565 650 L-4545 648 L-4525 647 L-4506 645 L-4488 644 L-4466 643 L-4441 641 L-4427 640 L-4410 638 L-4390 636 L-4371 635 L-4351 633 L-4332 632 L-4313 630 L-4292 627 L-4274 625 L-4255 623 L-4235 621 L-4214 619 L-4197 617 L-4178 615 L-4158 613 L-4139 612 L-4119 609 L-4101 607 L-4081 605 L-4061 603 L-4042 602 L-4023 601 L-3996 599 L-3975 597 L-3947 595 L-3912 593 L-3899 591 L-3885 589 L-3866 587 L-3848 586 L-3828 584 L-3810 583 L-3790 581 L-3770 579 L-3749 578 L-3732 576 L-3714 574 L-3693 572 L-3673 570 L-3655 568 L-3636 565 L-3616 563 L-3596 560 L-3578 558 L-3559 555 L-3538 553 L-3513 551 L-3498 548 L-3481 546 L-3462 543 L-3442 541 L-3423 538 L-3404 536 L-3384 534 L-3363 531 L-3346 529 L-3327 527 L-3306 525 L-3285 523 L-3268 521 L-3249 519 L-3229 518 L-3210 516 L-3191 515 L-3172 514 L-3152 512 L-3132 511 L-3113 510 L-3095 509 L-3067 508 L-3046 506 L-3018 505 L-2983 502 L-2969 500 L-2956 498 L-2937 495 L-2919 494 L-2900 492 L-2881 491 L-2861 489 L-2842 488 L-2821 486 L-2804 485 L-2785 483 L-2764 481 L-2744 479 L-2726 477 L-2707 475 L-2688 473 L-2667 471 L-2649 469 L-2630 468 L-2609 466 L-2584 465 L-2569 463 L-2552 462 L-2533 460 L-2513 458 L-2494 456 L-2475 454 L-2455 451 L-2434 449 L-2417 446 L-2398 444 L-2377 442 L-2357 440 L-2340 439 L-2321 437 L-2301 436 L-2282 435 L-2262 434 L-2243 432 L-2224 431 L-2204 430 L-2185 429 L-2166 428 L-2139 427 L-2118 426 L-2090 424 L-2056 423 L-2042 422 L-2028 421 L-2010 420 L-1991 419 L-1971 418 L-1953 417 L-1933 416 L-1913 416 L-1893 415 L-1875 414 L-1857 413 L-1836 412 L-1816 411 L-1798 410 L-1779 409 L-1759 408 L-1739 407 L-1721 407 L-1702 406 L-1681 405 L-1656 404 L-1641 404 L-1624 402 L-1605 401 L-1585 401 L-1566 400 L-1547 399 L-1527 398 L-1507 396 L-1489 394 L-1470 392 L-1449 390 L-1429 388 L-1411 387 L-1392 386 L-1372 385 L-1354 383 L-1334 382 L-1315 381 L-1295 380 L-1276 379 L-1256 378 L-1237 377 L-1209 376 L-1161 375 L-1124 374 L-1109 373 L-1097 372 L-1080 371 L-1062 371 L-1043 370 L-1024 370 L-1005 369 L-985 368 L-964 367 L-947 367 L-928 366 L-908 366 L-888 365 L-869 364 L-851 363 L-831 362 L-811 361 L-792 360 L-773 359 L-752 358 L-728 356 L-713 355 L-696 353 L-676 352 L-657 351 L-637 349 L-619 348 L-598 347 L-578 345 L-560 344 L-541 343 L-521 341 L-500 340 L-483 340 L-464 339 L-444 338 L-425 337 L-405 336 L-386 335 L-366 334 L-347 333 L-328 332 L-309 331 L-281 330 L-260 329 L-232 327 L-196 325 L-181 323 L-168 321 L-151 319 L-134 318 L-113 317 L-95 316 L-75 316 L-56 315 L-35 314 L-18 313 L0 312 L20 310 L41 309 L59 307 L78 305 L97 303 L118 301 L136 300 L154 298 L176 297 L201 295 L216 294 L233 293 L252 291 L272 290 L291 289 L309 287 L329 286 L351 284 L368 283 L387 282 L407 280 L428 279 L445 278 L464 277 L484 276 L503 275 L522 274 L541 273 L561 272 L581 271 L600 270 L619 269 L647 997 L667 996 L695 995 L731 993 L745 263 L758 261 L776 260 L794 259 L814 259 L832 258 L852 257 L872 256 L893 254 L910 253 L928 251 L949 250 L969 248 L987 246 L1006 244 L1026 242 L1047 241 L1064 239 L1083 238 L1105 237 L1129 235 L1145 234 L1174 232 L1214 229 L1237 227 L1266 225 L1283 223 L1296 221 L1316 220 L1336 219 L1357 218 L1374 217 L1392 216 L1413 215 L1431 214 L1451 213 L1470 213 L1490 212 L1510 211 L1528 210 L1547 209 L1575 208 L1596 207 L1624 206 L1659 205 L1672 204 L1704 203 L1723 202 L1742 201 L1761 200 L1781 200 L1800 199 L1821 198 L1838 198 L1857 196 L1877 193 L1898 190 L1916 186 L1935 183 L1954 180 L1975 178 L1993 176 L2012 175 L2033 174 L2058 172 L2073 171 L2090 170 L2109 168 L2129 167 L2148 165 L2167 164 L2187 163 L2208 161 L2225 159 L2244 158 L2264 157 L2285 156 L2302 155 L2321 154 L2341 153 L2360 153 L2380 151 L2399 150 L2418 149 L2438 148 L2457 147 L2476 147 L2504 146 L2524 145 L2594 143 L2622 141 L2637 138 L2651 136 L2671 135 L2689 134 L2709 133 L2729 131 L2750 130 L2767 129 L2785 128 L2806 128 L2826 127 L2844 126 L2863 125 L2883 123 L2904 122 L2921 121 L2940 120 L2961 119 L2986 118 L3001 117 L3019 116 L3037 114 L3058 113 L3076 112 L3096 110 L3115 109 L3137 109 L3153 108 L3173 107 L3193 106 L3214 105 L3231 104 L3289 103 L3308 102 L3327 101 L3347 100 L3367 99 L3386 99 L3404 98 L3432 97 L3453 97 L3481 96 L3517 96 L3532 95 L3544 94 L3562 94 L3580 93 L3600 93 L3618 92 L3638 92 L3657 91 L3679 91 L3695 91 L3714 90 L3735 90 L3755 89 L3773 88 L3792 88 L3812 87 L3832 86 L3850 85 L3869 85 L3890 84 L3915 83 L3930 83 L3947 82 L3966 82 L3986 81 L4005 80 L4024 79 L4044 78 L4065 77 L4082 76 L4101 75 L4122 75 L4142 74 L4159 74 L4178 73 L4198 73 L4217 72 L4237 72 L4256 72 L4275 71 L4296 71 L4314 70 L4333 70 L4361 70 L4381 69 L4409 69 L4444 68 L4458 67 L4472 67 L4490 66 L4508 66 L4528 65 L4546 65 L4586 64 L4606 64 L4624 63 L4642 63 L4663 62 L4683 61 L4701 60 L4720 59 L4740 59 L4760 58 L4778 58 L4797 57 L4818 57 L4843 56 L4857 56 L4875 55 L4894 55 L4913 54 L4933 53 L4952 53 L4972 52 L4992 51 L5010 51 L5029 50 L5050 50 L5070 49 L5088 48 L5107 48 L5127 47 L5145 47 L5165 47 L5184 46 L5204 46 L5223 45 L5243 45 L5262 44 L5290 44 L5338 43 L5375 43 L5391 42 L5403 42 L5420 41 L5437 41 L5456 41 L5475 40 L5494 40 L5514 40 L5535 39 L5552 39 L5571 39 L5591 39 L5611 39 L5630 38 L5648 38 L5668 38 L5688 37 L5707 37 L5726 36 L5747 36 L5771 35 L5786 34 L5803 34 L5823 33 L5842 32 L5862 31 L5880 29 L5901 28 L5921 27 L5939 26 L5958 25 L5978 24 L5999 23 L6016 22 L6035 21 L6055 20 L6074 19 L6094 18 L6113 17 L6133 16 L6152 15 L6171 14 L6190 13 L6219 11 L6239 11 L6267 10 L6303 9 L6318 8 L6331 8 L6349 7 L6366 6 L6386 5 L6404 5 L6424 4 L6443 4 L6465 3 L6481 2 L6500 1" />
</svg>
