<svg xmlns="http://www.w3.org/2000/svg" version="1.1" viewBox="0 0 6500 1000">
	<path fill="none" stroke="gold" stroke-width="125" stroke-linecap="round" stroke-linejoin="round" d="M0 3360  L-727482 3360 L-724878 3360 L-723210 3359 L-704881 3359 L-704710 3359 L-697553 3359 L-697519 3359 L-684089 3358 L-681167 3359 L-667826 3358 L-663657 3357 L-662497 3357 L-661878 3356 L-659866 3356 L-656094 3355 L-655494 3355 L-655165 3355 L-654952 3354 L-654410 3354 L-653172 3353 L-651994 3352 L-649129 3351 L-648607 3349 L-643751 3349 L-640814 3349 L-640771 3349 L-640463 3348 L-640211 3348 L-637616 3348 L-633361 3348 L-633343 3348 L-632106 3348 L-630228 3348 L-628275 3347 L-627327 3347 L-627056 3347 L-626746 3347 L-626648 3346 L-625818 3346 L-623787 3347 L-623497 3345 L-621350 3345 L-621195 3344 L-617538 3343 L-617287 3343 L-617189 3343 L-616672 3344 L-614520 3344 L-613592 3345 L-612066 3346 L-610826 3346 L-609280 3346 L-606318 3345 L-605196 3345 L-604887 3345 L-603676 3345 L-600669 3346 L-600649 3346 L-600302 3346 L-600089 3346 L-599963 3344 L-599721 3344 L-599683 3343 L-599663 3343 L-599644 3343 L-599585 3342 L-599527 3342 L-599509 3342 L-599066 3341 L-597826 3341 L-596280 3341 L-592893 3341 L-587166 3340 L-586965 3340 L-585329 3340 L-583607 3340 L-582175 3340 L-581943 3340 L-581227 3340 L-575095 3339 L-574727 3339 L-574573 3339 L-573995 3339 L-573702 3338 L-572735 3338 L-572425 3338 L-571826 3337 L-570220 3337 L-569485 3337 L-569175 3338 L-568407 3338 L-566371 3337 L-565945 3337 L-565133 3337 L-557704 3337 L-557181 3336 L-557008 3336 L-556272 3336 L-554705 3335 L-554299 3335 L-552074 3335 L-551126 3335 L-550701 3335 L-550371 3335 L-549327 3334 L-547219 3334 L-546967 3334 L-546348 3334 L-545535 3333 L-543427 3333 L-543379 3333 L-541451 3333 L-541125 3332 L-540990 3332 L-540487 3332 L-539074 3332 L-538571 3331 L-538049 3331 L-534490 3330 L-533755 3329 L-531330 3329 L-530040 3329 L-529633 3329 L-526481 3329 L-526326 3329 L-526306 3329 L-525939 3329 L-524681 3329 L-523966 3329 L-523076 3329 L-522669 3329 L-521741 3329 L-520632 3329 L-520329 3330 L-514080 3330 L-513133 3330 L-511506 3331 L-511005 3331 L-507329 3331 L-506497 3331 L-502543 3331 L-501132 3331 L-498642 3331 L-497966 3330 L-497927 3330 L-497056 3330 L-493845 3330 L-490982 3330 L-490014 3330 L-488893 3329 L-488874 3329 L-487249 3329 L-486784 3328 L-486692 3328 L-480323 3328 L-479375 3328 L-476918 3328 L-476045 3327 L-474809 3327 L-472808 3327 L-472410 3327 L-470974 3327 L-468948 3326 L-468735 3326 L-467555 3326 L-466046 3326 L-466026 3326 L-464014 3326 L-463144 3325 L-462274 3325 L-461689 3325 L-461151 3324 L-460494 3324 L-459256 3324 L-458695 3324 L-457514 3324 L-456276 3323 L-456238 3323 L-455851 3323 L-455309 3323 L-454535 3323 L-453413 3323 L-451324 3322 L-450991 3322 L-450705 3322 L-449776 3322 L-449293 3321 L-448558 3321 L-444926 3321 L-443799 3321 L-443644 3321 L-442618 3320 L-438903 3320 L-437686 3320 L-435868 3320 L-433082 3320 L-432520 3319 L-428633 3319 L-426156 3319 L-424821 3319 L-424318 3319 L-423835 3319 L-421145 3319 L-417374 3319 L-414916 3319 L-413737 3319 L-413097 3319 L-410738 3318 L-410660 3318 L-409613 3318 L-409519 3318 L-409017 3318 L-408571 3318 L-408513 3318 L-408300 3318 L-405340 3317 L-402633 3317 L-402478 3317 L-398957 3317 L-398434 3317 L-397467 3316 L-397118 3316 L-396074 3316 L-395145 3316 L-394720 3316 L-393211 3316 L-392244 3315 L-392225 3315 L-390329 3305 L-390213 3294 L-390165 3283 L-390141 3272 L-387136 3272 L-385106 3271 L-383345 3271 L-382978 3271 L-382532 3271 L-382165 3271 L-381751 3270 L-379766 3270 L-379553 3270 L-379398 3270 L-377793 3270 L-376671 3270 L-375723 3270 L-374466 3270 L-372821 3269 L-371642 3269 L-365052 3269 L-365005 3269 L-364600 3269 L-363555 3268 L-363419 3268 L-361737 3268 L-361717 3268 L-360380 3268 L-359144 3267 L-358990 3267 L-358616 3267 L-358409 3267 L-358100 3267 L-357326 3266 L-355005 3266 L-354347 3266 L-352219 3266 L-350497 3266 L-350303 3266 L-347750 3265 L-347473 3265 L-347285 3265 L-346453 3265 L-345680 3265 L-344982 3264 L-339982 3264 L-339606 3264 L-335353 3264 L-334866 3278 L-334847 3278 L-334768 3278 L-334692 3278 L-334672 3263 L-333860 3263 L-333106 3263 L-331887 3263 L-330455 3263 L-330359 3262 L-330184 3262 L-329830 3262 L-328520 3262 L-326663 3262 L-324961 3262 L-324458 3261 L-324193 3261 L-323800 3261 L-323665 3261 L-322756 3261 L-322379 3261 L-321451 3261 L-321112 3261 L-321072 3261 L-321034 3260 L-319119 3260 L-318945 3260 L-317416 3260 L-317088 3260 L-316972 3260 L-316565 3260 L-316217 3260 L-314573 3259 L-314022 3259 L-313779 3259 L-313238 3259 L-312406 3259 L-311865 3258 L-310330 3258 L-310238 3258 L-310201 3258 L-310065 3258 L-309678 3257 L-308653 3257 L-306777 3257 L-306680 3257 L-306080 3262 L-305713 3267 L-305228 3272 L-305190 3277 L-304416 3277 L-304359 3277 L-304184 3277 L-303991 3277 L-302386 3276 L-302366 3276 L-302210 3276 L-302095 3277 L-300915 3277 L-300761 3277 L-300094 3277 L-297646 3289 L-295131 3301 L-292461 3313 L-284762 3325 L-279094 3325 L-276879 3325 L-276856 3325 L-275882 3328 L-275862 3328 L-274999 3328 L-272258 3328 L-266460 3324 L-266306 3324 L-263520 3324 L-249912 3324 L-249166 3324 L-244756 3323 L-228409 3323 L-228177 3323 L-227640 3323 L-219181 3323 L-210475 3322 L-210263 3322 L-208290 3322 L-205504 3322 L-201017 3322 L-200862 3322 L-200693 3322 L-200552 3322 L-200262 3322 L-200223 3322 L-199952 3321 L-199780 3321 L-199370 3321 L-198250 3321 L-197069 3321 L-195793 3321 L-192929 3321 L-190009 3320 L-188017 3320 L-186469 3320 L-183431 3320 L-174106 3320 L-173582 3320 L-167859 3320 L-166352 3319 L-165537 3319 L-163853 3319 L-163132 3319 L-162964 3319 L-161919 3319 L-159852 3318 L-158490 3318 L-154046 3318 L-153949 3318 L-153910 3318 L-153891 3318 L-153059 3318 L-152981 3317 L-150409 3317 L-147159 3317 L-147005 3317 L-146056 3317 L-144315 3316 L-143600 3317 L-140059 3318 L-133482 3319 L-132064 3320 L-132044 3320 L-131093 3320 L-127619 3320 L-126866 3319 L-126304 3319 L-125522 3319 L-118018 3319 L-116419 3319 L-114845 3319 L-111660 3318 L-107327 3318 L-98757 3318 L-90011 3318 L-86937 3318 L-83671 3318 L-83125 3318 L-75987 3317 L-70320 3317 L-56255 3317 L-50244 3318 L-45538 3317 L-41534 3317 L-36427 3317 L-26713 3317 L-11142 3317 L-8059 3316 L-7757 3250 L-7738 3169 L-7719 3077 L-7699 2974 L-7679 2927 L-7660 2887 L-7641 2850 L-7614 2814 L-7593 2780 L-7565 2743 L-7530 2702 L-7516 2667 L-7503 2638 L-7485 2613 L-7466 2595 L-7446 2576 L-7428 2558 L-7408 2539 L-7389 2520 L-7367 2501 L-7351 2481 L-7332 2463 L-7311 2445 L-7291 2427 L-7273 2407 L-7254 2387 L-7235 2366 L-7214 2346 L-7196 2326 L-7177 2308 L-7156 2290 L-7131 2272 L-7116 2255 L-7099 2238 L-7080 2221 L-7060 2204 L-7041 2186 L-7022 2168 L-7002 2150 L-6982 2134 L-6964 2118 L-6945 2103 L-6924 2088 L-6904 2075 L-6887 2063 L-6868 2052 L-6848 2041 L-6829 2030 L-6809 2020 L-6790 2011 L-6770 2002 L-6751 1995 L-6732 1987 L-6713 1979 L-6686 1969 L-6665 1959 L-6637 1947 L-6603 1935 L-6589 1924 L-6575 1915 L-6557 1907 L-6538 1900 L-6518 1892 L-6500 1884 L-6480 1875 L-6460 1867 L-6440 1859 L-6422 1851 L-6403 1843 L-6383 1835 L-6363 1826 L-6345 1816 L-6326 1805 L-6306 1793 L-6286 1782 L-6267 1770 L-6249 1758 L-6227 1745 L-6203 1730 L-6188 1716 L-6171 1703 L-6151 1690 L-6132 1676 L-6113 1662 L-6094 1648 L-6074 1634 L-6053 1620 L-6035 1606 L-6016 1593 L-5996 1581 L-5976 1568 L-5958 1557 L-5939 1546 L-5919 1535 L-5900 1526 L-5881 1516 L-5862 1506 L-5842 1496 L-5823 1486 L-5803 1477 L-5784 1467 L-5756 1457 L-5736 1448 L-5708 1439 L-5671 1428 L-5656 1418 L-5643 1408 L-5626 1399 L-5609 1392 L-5589 1386 L-5571 1380 L-5552 1374 L-5532 1369 L-5511 1363 L-5494 1357 L-5475 1351 L-5454 1344 L-5435 1337 L-5416 1330 L-5397 1322 L-5377 1313 L-5358 1305 L-5339 1296 L-5320 1287 L-5299 1279 L-5275 1270 L-5260 1262 L-5243 1253 L-5223 1244 L-5204 1236 L-5184 1227 L-5165 1217 L-5145 1208 L-5125 1199 L-5107 1190 L-5088 1182 L-5068 1174 L-5047 1166 L-5030 1159 L-5010 1152 L-4991 1144 L-4972 1137 L-4952 1130 L-4933 1123 L-4913 1116 L-4894 1109 L-4875 1102 L-4856 1095 L-4828 1088 L-4807 1082 L-4779 1074 L-4743 1063 L-4729 1053 L-4716 1043 L-4698 1035 L-4680 1029 L-4661 1024 L-4642 1017 L-4622 1010 L-4603 1002 L-4581 994 L-4563 985 L-4546 977 L-4526 967 L-4505 957 L-4487 946 L-4468 935 L-4448 924 L-4428 914 L-4410 904 L-4391 896 L-4370 890 L-4345 884 L-4331 879 L-4313 874 L-4294 868 L-4274 862 L-4255 856 L-4236 851 L-4216 845 L-4196 841 L-4178 837 L-4159 832 L-4139 825 L-4118 818 L-4101 811 L-4082 805 L-4062 801 L-4043 797 L-4024 794 L-4005 791 L-3985 787 L-3965 783 L-3946 779 L-3927 775 L-3900 771 L-3879 768 L-3851 764 L-3816 759 L-3803 755 L-3789 751 L-3770 748 L-3752 745 L-3732 742 L-3714 739 L-3694 737 L-3674 734 L-3653 731 L-3636 729 L-3618 725 L-3597 722 L-3577 719 L-3559 715 L-3540 712 L-3520 709 L-3500 707 L-3482 704 L-3463 701 L-3442 698 L-3417 696 L-3402 693 L-3385 691 L-3366 688 L-3346 685 L-3327 682 L-3308 679 L-3288 676 L-3267 673 L-3250 670 L-3231 667 L-3210 664 L-3190 662 L-3172 659 L-3153 657 L-3133 654 L-3115 652 L-3095 650 L-3076 648 L-3056 646 L-3037 644 L-3017 642 L-2999 645 L-2970 648 L-2950 651 L-2922 654 L-2885 651 L-2870 649 L-2857 647 L-2839 646 L-2823 644 L-2803 643 L-2785 641 L-2765 639 L-2746 637 L-2724 636 L-2708 635 L-2689 633 L-2668 632 L-2648 630 L-2630 628 L-2611 626 L-2592 625 L-2571 623 L-2553 621 L-2534 620 L-2513 618 L-2488 617 L-2474 615 L-2456 614 L-2437 612 L-2418 610 L-2398 609 L-2379 607 L-2359 605 L-2339 602 L-2321 600 L-2302 597 L-2282 595 L-2261 593 L-2244 591 L-2225 589 L-2205 587 L-2186 585 L-2166 583 L-2147 581 L-2128 578 L-2108 576 L-2089 575 L-2070 573 L-2042 572 L-2022 569 L-1994 567 L-1959 565 L-1945 563 L-1932 561 L-1913 559 L-1895 558 L-1875 556 L-1856 554 L-1837 553 L-1817 551 L-1796 549 L-1779 547 L-1760 545 L-1740 543 L-1720 541 L-1702 539 L-1683 536 L-1663 533 L-1643 530 L-1625 528 L-1606 525 L-1584 523 L-1559 520 L-1545 518 L-1528 515 L-1508 512 L-1489 510 L-1470 507 L-1451 504 L-1431 502 L-1410 500 L-1393 497 L-1373 495 L-1353 492 L-1332 490 L-1315 489 L-1296 487 L-1276 485 L-1257 484 L-1238 482 L-1219 481 L-1199 479 L-1179 478 L-1160 477 L-1141 476 L-1114 474 L-1093 473 L-1065 471 L-1030 468 L-1016 466 L-1003 463 L-984 461 L-966 459 L-946 458 L-928 456 L-908 455 L-889 453 L-868 451 L-851 450 L-832 447 L-811 446 L-791 444 L-773 441 L-754 439 L-734 437 L-714 435 L-696 433 L-677 431 L-656 430 L-631 428 L-616 427 L-599 425 L-580 423 L-560 421 L-541 419 L-522 417 L-502 414 L-481 411 L-464 408 L-445 406 L-424 404 L-404 402 L-387 400 L-368 399 L-348 398 L-329 397 L-309 395 L-290 394 L-270 393 L-251 391 L-231 390 L-213 389 L-186 388 L-165 387 L-137 385 L-103 384 L-88 383 L-75 382 L-57 381 L-38 380 L-18 379 L0 378 L19 377 L39 376 L59 375 L77 374 L96 373 L116 372 L136 371 L154 370 L173 369 L193 368 L213 367 L232 366 L250 366 L272 365 L296 364 L311 363 L328 362 L348 361 L367 360 L386 359 L405 358 L425 357 L446 355 L464 353 L483 351 L503 349 L523 347 L541 346 L560 344 L580 343 L599 341 L619 340 L637 339 L657 338 L676 336 L696 335 L715 334 L743 334 L791 333 L828 332 L843 330 L855 329 L872 328 L890 328 L909 328 L928 327 L947 326 L968 325 L988 324 L1005 324 L1024 323 L1044 323 L1064 322 L1083 321 L1102 320 L1122 319 L1141 318 L1160 317 L1179 316 L1200 314 L1225 313 L1239 311 L1256 309 L1276 308 L1295 306 L1315 305 L1334 304 L1354 302 L1374 301 L1392 299 L1411 298 L1432 297 L1452 296 L1470 295 L1488 294 L1509 293 L1527 292 L1547 291 L1566 290 L1586 289 L1605 287 L1625 286 L1643 285 L1672 284 L1692 283 L1720 281 L1756 279 L1771 277 L1784 275 L1801 273 L1819 272 L1839 271 L1857 270 L1877 269 L1896 268 L1918 267 L1934 266 L1953 265 L1974 263 L1994 262 L2012 260 L2031 258 L2051 256 L2071 254 L2089 252 L2108 250 L2129 249 L2154 247 L2169 246 L2187 245 L2205 243 L2225 242 L2244 241 L2263 239 L2283 237 L2304 236 L2321 234 L2340 233 L2360 232 L2382 230 L2398 229 L2417 228 L2437 227 L2456 226 L2476 225 L2494 223 L2514 222 L2534 221 L2553 221 L2572 219 L2600 997 L2620 996 L2648 995 L2684 993 L2698 212 L2711 211 L2729 210 L2747 209 L2767 208 L2785 207 L2805 207 L2825 205 L2846 204 L2863 202 L2881 200 L2902 199 L2922 197 L2940 195 L2959 193 L2979 191 L3000 189 L3017 188 L3036 187 L3058 185 L3083 184 L3098 182 L3127 180 L3167 177 L3190 175 L3219 172 L3236 170 L3249 168 L3269 167 L3289 166 L3310 165 L3327 163 L3346 162 L3366 161 L3385 161 L3404 160 L3423 159 L3443 158 L3463 157 L3482 156 L3500 156 L3528 155 L3549 154 L3577 152 L3612 151 L3625 150 L3657 149 L3676 148 L3696 147 L3714 146 L3734 145 L3753 145 L3774 144 L3791 143 L3810 141 L3831 138 L3851 135 L3869 131 L3888 128 L3908 125 L3928 122 L3946 120 L3965 119 L3986 117 L4011 116 L4026 115 L4043 113 L4062 111 L4082 110 L4101 109 L4120 107 L4140 106 L4161 104 L4178 102 L4197 101 L4218 100 L4239 99 L4255 98 L4274 97 L4294 96 L4314 95 L4333 94 L4352 93 L4372 91 L4391 90 L4410 90 L4429 89 L4457 88 L4477 87 L4547 85 L4575 82 L4590 80 L4604 78 L4624 76 L4642 75 L4662 74 L4682 72 L4703 71 L4720 70 L4739 69 L4759 69 L4779 68 L4797 67 L4816 65 L4836 64 L4857 62 L4874 61 L4893 60 L4915 59 L4940 58 L4955 57 L4972 56 L4991 54 L5011 53 L5030 51 L5049 50 L5068 49 L5090 48 L5107 47 L5126 46 L5146 45 L5167 44 L5184 43 L5242 42 L5262 41 L5280 40 L5300 39 L5320 38 L5339 38 L5358 37 L5385 36 L5406 36 L5434 35 L5470 34 L5485 33 L5497 33 L5515 32 L5533 32 L5553 31 L5571 31 L5591 30 L5611 30 L5632 29 L5648 29 L5667 28 L5688 28 L5708 27 L5726 27 L5745 26 L5765 25 L5785 24 L5803 23 L5822 22 L5843 22 L5868 21 L5883 21 L5900 20 L5919 19 L5939 18 L5958 18 L5977 17 L5997 15 L6018 14 L6035 13 L6054 12 L6075 12 L6096 11 L6112 11 L6131 10 L6152 10 L6171 9 L6190 9 L6209 9 L6229 8 L6249 8 L6267 7 L6286 7 L6314 6 L6334 6 L6362 5 L6398 5 L6411 4 L6425 3 L6443 3 L6461 2 L6481 2 L6500 1" />
</svg>
