<svg xmlns="http://www.w3.org/2000/svg" version="1.1" viewBox="0 0 6500 1000">
	<path fill="none" stroke="gold" stroke-width="125" stroke-linecap="round" stroke-linejoin="round" d="M0 58964  L-134017 58964 L-131413 58517 L-129745 58071 L-111415 57178 L-111245 56285 L-104087 55392 L-104054 55392 L-90623 54946 L-87701 55392 L-74360 54053 L-70191 52267 L-69031 50035 L-68412 47803 L-66400 46464 L-62629 45571 L-62029 44678 L-61700 43785 L-61487 42892 L-60945 42000 L-59707 38428 L-58528 34857 L-55664 31285 L-55142 27714 L-50286 26821 L-47349 25928 L-47306 25035 L-46998 24142 L-46746 23250 L-44151 22357 L-39895 22357 L-39877 22357 L-38641 22357 L-36763 22357 L-34810 21464 L-33862 20571 L-33591 19678 L-33281 19232 L-33183 18785 L-32353 18785 L-30322 19232 L-30031 15214 L-27885 13428 L-27729 10750 L-24073 8071 L-23822 9410 L-23723 8964 L-23206 10303 L-21055 12535 L-20126 14767 L-18600 17000 L-17361 17000 L-15814 16553 L-12853 15660 L-11731 14767 L-11421 13875 L-10210 13428 L-7204 18339 L-7184 17892 L-6837 17446 L-6623 17000 L-6497 10750 L-6256 9857 L-6218 8964 L-6198 8071 L-6179 7178 L-6120 6285 L-6061 5392 L-6043 4500 L-5600 3607 L-4361 2714 L-2815 1821 L572 928 L6298 482 L6500 35" />
</svg>
