<svg xmlns="http://www.w3.org/2000/svg" version="1.1" viewBox="0 0 6500 1000">
	<path fill="none" stroke="gold" stroke-width="125" stroke-linecap="round" stroke-linejoin="round" d="M0 1016  L-718508 1016 L-715904 1015 L-714236 1015 L-695906 1015 L-695736 1015 L-688578 1015 L-688545 1015 L-675114 1015 L-672192 1015 L-658852 1015 L-654683 1015 L-653522 1014 L-652903 1014 L-650891 1014 L-647120 1014 L-646520 1014 L-646191 1014 L-645978 1014 L-645436 1013 L-644198 1013 L-643019 1013 L-640155 1012 L-639633 1012 L-634777 1012 L-631840 1012 L-631797 1011 L-631489 1011 L-631237 1011 L-628642 1011 L-624386 1011 L-624368 1011 L-623132 1011 L-621254 1011 L-619301 1011 L-618353 1011 L-618082 1011 L-617772 1011 L-617674 1011 L-616844 1011 L-614813 1011 L-614522 1010 L-612376 1010 L-612221 1010 L-608564 1009 L-608313 1010 L-608215 1009 L-607697 1010 L-605546 1010 L-604617 1010 L-603091 1010 L-601852 1010 L-600305 1010 L-597344 1010 L-596222 1010 L-595913 1010 L-594701 1010 L-591695 1011 L-591675 1011 L-591328 1010 L-591115 1010 L-590988 1010 L-590747 1010 L-590709 1009 L-590689 1009 L-590670 1009 L-590611 1009 L-590552 1009 L-590534 1009 L-590091 1009 L-588852 1009 L-587306 1009 L-583918 1008 L-578192 1008 L-577991 1008 L-576355 1008 L-574633 1008 L-573201 1008 L-572968 1008 L-572253 1008 L-566121 1008 L-565753 1008 L-565599 1008 L-565020 1008 L-564728 1008 L-563760 1008 L-563451 1007 L-562852 1007 L-561246 1007 L-560510 1007 L-560201 1007 L-559432 1007 L-557396 1007 L-556971 1007 L-556158 1007 L-548730 1007 L-548207 1007 L-548033 1007 L-547298 1007 L-545731 1007 L-545325 1006 L-543100 1006 L-542152 1006 L-541727 1006 L-541397 1006 L-540353 1006 L-538245 1006 L-537993 1006 L-537374 1006 L-536561 1006 L-534453 1006 L-534405 1006 L-532476 1006 L-532151 1005 L-532016 1005 L-531512 1005 L-530100 1005 L-529597 1005 L-529075 1005 L-525515 1005 L-524780 1004 L-522356 1004 L-521066 1004 L-520659 1004 L-517507 1004 L-517352 1004 L-517332 1004 L-516965 1004 L-515707 1004 L-514992 1004 L-514102 1004 L-513695 1004 L-512766 1004 L-511658 1004 L-511354 1004 L-505106 1005 L-504158 1005 L-502532 1005 L-502030 1005 L-498355 1005 L-497522 1005 L-493569 1005 L-492157 1005 L-489668 1005 L-488992 1005 L-488953 1005 L-488082 1005 L-484871 1005 L-482008 1004 L-481040 1004 L-479918 1004 L-479899 1004 L-478274 1004 L-477810 1004 L-477718 1004 L-471349 1004 L-470400 1004 L-467943 1004 L-467071 1004 L-465835 1004 L-463834 1003 L-463436 1003 L-462000 1003 L-459974 1003 L-459761 1003 L-458580 1003 L-457072 1003 L-457052 1003 L-455040 1003 L-454170 1003 L-453299 1003 L-452714 1003 L-452177 1003 L-451520 1002 L-450281 1002 L-449721 1002 L-448540 1002 L-447302 1002 L-447264 1002 L-446877 1002 L-446335 1002 L-445561 1002 L-444439 1002 L-442350 1002 L-442016 1002 L-441731 1001 L-440802 1001 L-440319 1001 L-439584 1001 L-435952 1001 L-434825 1001 L-434670 1001 L-433644 1001 L-429929 1001 L-428712 1001 L-426893 1001 L-424108 1001 L-423546 1001 L-419658 1001 L-417182 1001 L-415847 1001 L-415343 1000 L-414860 1000 L-412171 1000 L-408399 1000 L-405942 1000 L-404762 1000 L-404123 1000 L-401764 1000 L-401686 1000 L-400639 1000 L-400545 1000 L-400042 1000 L-399597 1000 L-399539 1000 L-399326 1000 L-396366 1000 L-393658 1000 L-393504 1000 L-389983 1000 L-389460 1000 L-388493 1000 L-388143 999 L-387100 999 L-386171 999 L-385746 999 L-384237 999 L-383270 999 L-383251 999 L-381355 995 L-381239 991 L-381191 987 L-381166 983 L-378162 983 L-376132 983 L-374371 983 L-374004 983 L-373558 983 L-373191 983 L-372777 983 L-370792 982 L-370579 982 L-370424 982 L-368819 982 L-367697 982 L-366749 982 L-365492 982 L-363847 982 L-362667 982 L-356078 982 L-356031 982 L-355626 982 L-354580 982 L-354445 982 L-352762 982 L-352742 982 L-351406 981 L-350170 981 L-350015 981 L-349641 981 L-349435 981 L-349126 981 L-348352 981 L-346030 981 L-345373 981 L-343245 981 L-341522 981 L-341329 981 L-338775 981 L-338499 981 L-338311 980 L-337478 980 L-336706 980 L-336008 980 L-331007 980 L-330631 980 L-326379 980 L-325892 985 L-325872 985 L-325793 985 L-325718 985 L-325698 980 L-324885 980 L-324132 980 L-322912 980 L-321481 980 L-321384 980 L-321210 980 L-320855 979 L-319546 979 L-317689 979 L-315987 979 L-315484 979 L-315218 979 L-314825 979 L-314691 979 L-313781 979 L-313405 979 L-312476 979 L-312137 979 L-312098 979 L-312060 979 L-310144 979 L-309971 979 L-308442 979 L-308114 979 L-307998 979 L-307591 979 L-307242 978 L-305599 978 L-305048 978 L-304805 978 L-304263 978 L-303432 978 L-302890 978 L-301356 978 L-301264 978 L-301227 978 L-301091 978 L-300704 978 L-299679 978 L-297802 978 L-297706 978 L-297106 979 L-296739 981 L-296254 983 L-296216 985 L-295442 985 L-295385 985 L-295210 985 L-295017 985 L-293411 985 L-293391 985 L-293236 985 L-293121 985 L-291941 985 L-291786 985 L-291119 985 L-288671 989 L-286156 994 L-283487 998 L-275787 1003 L-270120 1003 L-267905 1003 L-267882 1003 L-266908 1004 L-266888 1004 L-266024 1004 L-263284 1004 L-257486 1003 L-257332 1002 L-254546 1002 L-240938 1002 L-240192 1002 L-235781 1002 L-219435 1002 L-219203 1002 L-218666 1002 L-210206 1002 L-201501 1002 L-201288 1002 L-199316 1002 L-196530 1002 L-192042 1002 L-191887 1002 L-191718 1002 L-191578 1002 L-191287 1001 L-191249 1001 L-190978 1001 L-190806 1001 L-190396 1001 L-189275 1001 L-188095 1001 L-186818 1001 L-183954 1001 L-181034 1001 L-179042 1001 L-177495 1001 L-174457 1001 L-165132 1001 L-164608 1001 L-158884 1001 L-157377 1001 L-156563 1001 L-154879 1001 L-154158 1000 L-153990 1000 L-152945 1000 L-150877 1000 L-149515 1000 L-145072 1000 L-144975 1000 L-144936 1000 L-144917 1000 L-144085 1000 L-144007 1000 L-141434 1000 L-138185 1000 L-138030 1000 L-137082 1000 L-135341 1000 L-134626 1000 L-131085 1000 L-124507 1000 L-123090 1001 L-123069 1001 L-122119 1001 L-118645 1001 L-117891 1001 L-117330 1001 L-116548 1001 L-109043 1000 L-107445 1000 L-105871 1000 L-102686 1000 L-98353 1000 L-89783 1000 L-81037 1000 L-77963 1000 L-74697 1000 L-74150 1000 L-67013 1000 L-61345 1000 L-47281 1000 L-41270 1000 L-36563 1000 L-32560 1000 L-27453 1000 L-17739 1000 L-2168 1000 L914 999 L1216 975 L1236 945 L1254 911 L1274 873 L1294 855 L1313 841 L1332 827 L1359 814 L1380 801 L1408 787 L1443 772 L1457 759 L1470 748 L1489 739 L1507 732 L1527 726 L1545 719 L1565 712 L1585 705 L1606 698 L1623 691 L1641 684 L1662 677 L1682 670 L1700 663 L1719 656 L1739 648 L1759 640 L1777 633 L1796 626 L1817 620 L1842 613 L1857 607 L1874 600 L1894 594 L1913 588 L1932 581 L1951 574 L1971 568 L1992 562 L2009 556 L2028 550 L2049 545 L2069 540 L2087 536 L2106 532 L2126 527 L2144 524 L2164 520 L2183 516 L2203 513 L2222 510 L2242 508 L2260 505 L2288 501 L2309 497 L2336 493 L2370 488 L2385 484 L2398 481 L2416 478 L2435 475 L2455 473 L2474 469 L2493 466 L2513 463 L2534 460 L2551 457 L2570 454 L2590 451 L2610 448 L2629 444 L2647 440 L2667 436 L2687 432 L2706 427 L2725 423 L2746 418 L2770 413 L2785 407 L2802 402 L2822 398 L2841 393 L2861 387 L2879 382 L2900 377 L2920 372 L2938 367 L2957 362 L2977 357 L2997 353 L3015 348 L3034 344 L3054 340 L3073 337 L3093 333 L3111 329 L3131 326 L3151 322 L3170 319 L3189 315 L3218 312 L3237 308 L3265 305 L3302 301 L3318 297 L3330 293 L3347 290 L3364 287 L3384 285 L3402 283 L3422 281 L3442 279 L3462 277 L3480 275 L3498 272 L3519 270 L3539 267 L3557 264 L3576 261 L3596 258 L3616 255 L3634 252 L3653 249 L3674 246 L3699 242 L3713 239 L3730 236 L3751 233 L3769 230 L3789 226 L3808 223 L3828 219 L3848 216 L3867 213 L3885 210 L3906 207 L3926 204 L3944 201 L3963 198 L3983 196 L4001 193 L4021 190 L4040 188 L4060 185 L4079 183 L4099 180 L4118 178 L4146 175 L4166 173 L4194 170 L4230 166 L4244 162 L4257 158 L4275 155 L4293 153 L4313 151 L4331 149 L4351 146 L4371 143 L4392 140 L4410 137 L4427 134 L4448 130 L4468 126 L4486 123 L4505 118 L4525 114 L4545 110 L4563 107 L4582 104 L4603 101 L4628 99 L4643 98 L4660 96 L4679 94 L4699 91 L4718 89 L4737 87 L4757 85 L4778 84 L4795 82 L4814 80 L4835 78 L4855 75 L4872 72 L4891 70 L4912 69 L4930 67 L4950 66 L4969 65 L4989 64 L5008 62 L5027 61 L5046 59 L5074 58 L5094 56 L5122 55 L5157 53 L5171 52 L5184 50 L5203 49 L5221 48 L5241 47 L5260 46 L5279 45 L5299 44 L5320 43 L5337 42 L5356 41 L5376 40 L5396 38 L5414 37 L5433 36 L5453 35 L5473 34 L5492 33 L5510 32 L5532 31 L5557 30 L5571 29 L5588 28 L5608 27 L5627 26 L5646 25 L5665 24 L5685 22 L5706 21 L5724 20 L5743 19 L5763 18 L5784 17 L5801 16 L5820 15 L5840 14 L5859 14 L5879 13 L5897 12 L5917 11 L5937 11 L5956 10 L5975 11 L6003 12 L6023 13 L6051 14 L6088 13 L6104 13 L6116 12 L6134 11 L6150 11 L6170 10 L6188 9 L6208 9 L6228 8 L6249 8 L6266 7 L6284 7 L6305 6 L6325 5 L6343 5 L6362 4 L6382 3 L6402 3 L6420 2 L6439 2 L6460 1 L6485 1 L6500 0" />
</svg>
