<svg xmlns="http://www.w3.org/2000/svg" version="1.1" viewBox="0 0 6500 1000">
	<path fill="none" stroke="gold" stroke-width="125" stroke-linecap="round" stroke-linejoin="round" d="M0 1031  L-714345 1031 L-711741 1031 L-710073 1031 L-691743 1031 L-691573 1030 L-684415 1030 L-684382 1030 L-670951 1030 L-668029 1030 L-654688 1030 L-650519 1029 L-649359 1029 L-648740 1028 L-646728 1028 L-642957 1028 L-642357 1028 L-642028 1027 L-641815 1027 L-641273 1027 L-640035 1026 L-638856 1025 L-635992 1024 L-635470 1023 L-630614 1023 L-627677 1023 L-627634 1023 L-627325 1023 L-627074 1022 L-624479 1022 L-620223 1022 L-620205 1022 L-618968 1022 L-617091 1022 L-615138 1022 L-614190 1022 L-613919 1022 L-613609 1021 L-613511 1021 L-612680 1021 L-610650 1021 L-610359 1020 L-608213 1020 L-608057 1019 L-604401 1019 L-604150 1019 L-604051 1019 L-603534 1019 L-601383 1020 L-600454 1020 L-598928 1021 L-597689 1021 L-596142 1021 L-593181 1021 L-592059 1020 L-591749 1020 L-590538 1020 L-587532 1021 L-587512 1021 L-587165 1021 L-586951 1021 L-586825 1019 L-586584 1019 L-586546 1019 L-586526 1019 L-586507 1019 L-586448 1018 L-586389 1018 L-586371 1018 L-585928 1018 L-584689 1017 L-583143 1017 L-579755 1017 L-574029 1017 L-573827 1017 L-572192 1017 L-570470 1017 L-569038 1016 L-568805 1016 L-568090 1016 L-561958 1016 L-561590 1016 L-561436 1016 L-560857 1016 L-560565 1015 L-559597 1015 L-559288 1015 L-558689 1015 L-557082 1015 L-556347 1015 L-556038 1015 L-555269 1015 L-553233 1015 L-552808 1014 L-551995 1014 L-544567 1014 L-544044 1014 L-543870 1014 L-543135 1013 L-541567 1013 L-541162 1013 L-538937 1013 L-537989 1013 L-537564 1013 L-537234 1013 L-536190 1013 L-534082 1012 L-533829 1012 L-533211 1012 L-532398 1012 L-530290 1012 L-530242 1011 L-528313 1011 L-527988 1011 L-527853 1011 L-527349 1011 L-525937 1010 L-525434 1010 L-524912 1010 L-521352 1009 L-520617 1009 L-518192 1009 L-516903 1009 L-516496 1008 L-513344 1008 L-513189 1008 L-513168 1009 L-512802 1009 L-511544 1009 L-510829 1009 L-509939 1009 L-509532 1009 L-508603 1009 L-507495 1009 L-507191 1009 L-500943 1009 L-499995 1010 L-498369 1010 L-497867 1010 L-494192 1010 L-493359 1010 L-489406 1010 L-487994 1010 L-485505 1010 L-484829 1009 L-484790 1009 L-483919 1009 L-480708 1009 L-477845 1009 L-476877 1009 L-475755 1009 L-475736 1009 L-474111 1008 L-473647 1008 L-473555 1008 L-467186 1008 L-466237 1008 L-463780 1008 L-462908 1007 L-461672 1007 L-459671 1007 L-459273 1007 L-457837 1007 L-455811 1007 L-455597 1006 L-454417 1006 L-452909 1006 L-452889 1006 L-450877 1006 L-450007 1006 L-449136 1006 L-448551 1005 L-448014 1005 L-447356 1005 L-446118 1005 L-445558 1005 L-444377 1005 L-443139 1004 L-443101 1004 L-442714 1004 L-442172 1004 L-441398 1004 L-440276 1004 L-438187 1004 L-437853 1003 L-437568 1003 L-436639 1003 L-436156 1003 L-435420 1003 L-431789 1003 L-430662 1003 L-430507 1002 L-429481 1002 L-425766 1002 L-424549 1002 L-422730 1002 L-419945 1002 L-419383 1001 L-415495 1001 L-413019 1001 L-411684 1001 L-411180 1001 L-410697 1001 L-408008 1001 L-404236 1001 L-401779 1001 L-400599 1001 L-399960 1001 L-397601 1001 L-397523 1001 L-396476 1001 L-396382 1000 L-395879 1000 L-395434 1000 L-395376 1000 L-395162 1000 L-392203 1000 L-389495 1000 L-389340 1000 L-385820 1000 L-385297 1000 L-384329 999 L-383980 999 L-382937 999 L-382008 999 L-381582 999 L-380073 999 L-379106 999 L-379088 999 L-377192 991 L-377076 983 L-377028 975 L-377003 967 L-373999 967 L-371968 967 L-370208 966 L-369840 966 L-369395 966 L-369028 966 L-368614 966 L-366629 966 L-366416 966 L-366261 966 L-364656 966 L-363534 965 L-362586 965 L-361328 965 L-359684 965 L-358504 965 L-351915 965 L-351868 965 L-351462 964 L-350417 964 L-350282 964 L-348599 964 L-348579 964 L-347243 964 L-346006 964 L-345852 964 L-345478 963 L-345272 963 L-344963 963 L-344189 963 L-341867 963 L-341209 963 L-339082 963 L-337359 962 L-337166 962 L-334612 962 L-334336 962 L-334148 962 L-333315 962 L-332543 961 L-331845 961 L-326844 961 L-326468 961 L-322216 961 L-321728 972 L-321709 972 L-321630 972 L-321555 971 L-321535 961 L-320722 960 L-319969 960 L-318749 960 L-317317 960 L-317221 960 L-317047 960 L-316692 960 L-315383 960 L-313526 960 L-311823 959 L-311321 959 L-311055 959 L-310662 959 L-310528 959 L-309618 959 L-309242 959 L-308313 959 L-307974 959 L-307935 959 L-307897 958 L-305981 958 L-305808 958 L-304279 958 L-303951 958 L-303835 958 L-303428 958 L-303079 958 L-301436 958 L-300885 958 L-300642 957 L-300100 957 L-299269 957 L-298727 957 L-297193 957 L-297101 957 L-297064 957 L-296928 956 L-296540 956 L-295516 956 L-293639 956 L-293543 956 L-292943 959 L-292576 963 L-292091 967 L-292053 970 L-291279 971 L-291222 971 L-291047 970 L-290854 970 L-289248 970 L-289228 970 L-289073 970 L-288958 970 L-287778 970 L-287623 971 L-286956 971 L-284508 979 L-281993 988 L-279323 997 L-271624 1006 L-265957 1006 L-263742 1006 L-263719 1006 L-262745 1008 L-262725 1008 L-261861 1008 L-259121 1007 L-253322 1005 L-253169 1005 L-250383 1005 L-236775 1005 L-236029 1005 L-231618 1004 L-215272 1004 L-215040 1004 L-214503 1004 L-206043 1004 L-197338 1004 L-197125 1004 L-195153 1004 L-192367 1004 L-187879 1004 L-187724 1004 L-187555 1004 L-187415 1003 L-187124 1003 L-187086 1003 L-186815 1003 L-186643 1003 L-186233 1003 L-185112 1003 L-183932 1003 L-182655 1002 L-179791 1002 L-176871 1002 L-174879 1002 L-173331 1002 L-170294 1002 L-160969 1002 L-160445 1002 L-154721 1002 L-153214 1001 L-152400 1001 L-150716 1001 L-149995 1001 L-149827 1001 L-148781 1001 L-146714 1001 L-145352 1001 L-140909 1001 L-140812 1001 L-140773 1000 L-140754 1000 L-139922 1000 L-139844 1000 L-137271 1000 L-134022 1000 L-133867 1000 L-132919 1000 L-131178 999 L-130462 1000 L-126922 1001 L-120344 1001 L-118927 1002 L-118906 1002 L-117956 1002 L-114481 1002 L-113728 1001 L-113167 1001 L-112384 1001 L-104880 1001 L-103282 1001 L-101708 1001 L-98523 1001 L-94190 1001 L-85620 1001 L-76874 1001 L-73800 1001 L-70534 1000 L-69987 1000 L-62850 1000 L-57182 1000 L-43118 1000 L-37106 1000 L-32400 1000 L-28397 1000 L-23289 1000 L-13575 1000 L1994 999 L5077 999 L5379 951 L5399 892 L5418 824 L5437 749 L5457 715 L5476 686 L5495 659 L5522 633 L5543 607 L5571 580 L5606 551 L5620 526 L5633 504 L5652 486 L5670 473 L5690 459 L5708 445 L5728 432 L5748 418 L5769 404 L5786 390 L5804 376 L5825 363 L5845 350 L5863 336 L5882 321 L5902 306 L5922 291 L5940 276 L5959 263 L5980 250 L6005 237 L6020 224 L6037 212 L6057 200 L6076 187 L6095 174 L6114 161 L6134 148 L6155 136 L6173 124 L6191 113 L6212 103 L6233 93 L6250 85 L6269 76 L6289 68 L6308 60 L6327 53 L6346 46 L6366 40 L6386 34 L6405 29 L6423 23 L6451 16 L6472 8 L6500 0" />
</svg>
