<svg xmlns="http://www.w3.org/2000/svg" version="1.1" viewBox="0 0 6500 1000">
	<path fill="none" stroke="gold" stroke-width="125" stroke-linecap="round" stroke-linejoin="round" d="M0 3421  L-726709 3421 L-724105 3421 L-722437 3421 L-704107 3421 L-703937 3420 L-696779 3420 L-696746 3420 L-683315 3420 L-680393 3420 L-667052 3419 L-662883 3419 L-661723 3418 L-661104 3417 L-659092 3417 L-655321 3417 L-654721 3416 L-654392 3416 L-654179 3416 L-653637 3415 L-652399 3414 L-651220 3413 L-648356 3412 L-647834 3411 L-642978 3410 L-640041 3410 L-639998 3410 L-639689 3409 L-639438 3409 L-636843 3409 L-632587 3409 L-632569 3409 L-631332 3409 L-629455 3409 L-627502 3408 L-626554 3408 L-626283 3408 L-625973 3408 L-625875 3408 L-625044 3408 L-623014 3408 L-622723 3406 L-620577 3406 L-620421 3405 L-616765 3404 L-616514 3404 L-616415 3404 L-615898 3405 L-613747 3405 L-612818 3406 L-611292 3407 L-610053 3407 L-608506 3407 L-605544 3407 L-604423 3406 L-604113 3406 L-602902 3406 L-599896 3407 L-599876 3407 L-599529 3407 L-599315 3407 L-599189 3405 L-598948 3405 L-598910 3404 L-598890 3404 L-598871 3404 L-598812 3403 L-598753 3403 L-598735 3403 L-598292 3402 L-597053 3402 L-595507 3402 L-592119 3402 L-586393 3401 L-586191 3401 L-584556 3401 L-582834 3401 L-581402 3401 L-581169 3401 L-580454 3401 L-574322 3400 L-573954 3400 L-573800 3400 L-573221 3399 L-572929 3399 L-571961 3399 L-571652 3399 L-571053 3398 L-569446 3398 L-568711 3398 L-568402 3398 L-567633 3398 L-565597 3398 L-565172 3398 L-564359 3398 L-556931 3397 L-556408 3397 L-556234 3397 L-555499 3396 L-553931 3396 L-553526 3396 L-551301 3396 L-550353 3396 L-549928 3395 L-549598 3395 L-548554 3395 L-546446 3395 L-546193 3395 L-545575 3394 L-544762 3394 L-542654 3394 L-542605 3394 L-540677 3393 L-540352 3393 L-540217 3393 L-539713 3393 L-538301 3392 L-537798 3392 L-537276 3391 L-533716 3391 L-532981 3390 L-530556 3390 L-529267 3390 L-528860 3390 L-525708 3390 L-525553 3390 L-525532 3390 L-525166 3390 L-523908 3390 L-523193 3390 L-522303 3390 L-521896 3390 L-520967 3390 L-519859 3390 L-519555 3390 L-513306 3391 L-512359 3391 L-510733 3391 L-510231 3391 L-506556 3392 L-505723 3392 L-501770 3392 L-500358 3391 L-497869 3391 L-497192 3391 L-497154 3391 L-496283 3391 L-493072 3391 L-490209 3390 L-489241 3390 L-488119 3390 L-488100 3390 L-486475 3389 L-486011 3389 L-485919 3389 L-479550 3389 L-478601 3388 L-476144 3388 L-475272 3388 L-474036 3388 L-472035 3388 L-471637 3387 L-470201 3387 L-468175 3387 L-467961 3387 L-466781 3387 L-465273 3386 L-465253 3386 L-463240 3386 L-462371 3386 L-461500 3386 L-460915 3385 L-460378 3385 L-459720 3385 L-458482 3384 L-457922 3384 L-456741 3384 L-455503 3384 L-455464 3384 L-455078 3384 L-454536 3383 L-453762 3383 L-452640 3383 L-450551 3383 L-450217 3382 L-449932 3382 L-449003 3382 L-448520 3382 L-447784 3382 L-444153 3381 L-443026 3381 L-442871 3381 L-441845 3381 L-438130 3381 L-436913 3380 L-435094 3380 L-432309 3380 L-431747 3380 L-427859 3380 L-425383 3379 L-424048 3379 L-423544 3379 L-423061 3379 L-420372 3379 L-416600 3379 L-414143 3379 L-412963 3379 L-412324 3379 L-409965 3379 L-409887 3379 L-408840 3378 L-408746 3378 L-408243 3378 L-407798 3378 L-407740 3378 L-407526 3378 L-404567 3378 L-401859 3378 L-401704 3378 L-398184 3377 L-397661 3377 L-396693 3377 L-396344 3377 L-395301 3376 L-394372 3376 L-393946 3376 L-392437 3376 L-391470 3376 L-391452 3376 L-389556 3365 L-389440 3353 L-389392 3342 L-389367 3331 L-386363 3331 L-384332 3331 L-382572 3330 L-382204 3330 L-381759 3330 L-381392 3330 L-380978 3330 L-378993 3329 L-378780 3329 L-378625 3329 L-377020 3329 L-375898 3329 L-374950 3329 L-373692 3329 L-372048 3328 L-370868 3328 L-364279 3328 L-364232 3328 L-363826 3328 L-362781 3328 L-362646 3327 L-360963 3327 L-360943 3327 L-359607 3327 L-358370 3327 L-358216 3326 L-357842 3326 L-357636 3326 L-357326 3326 L-356553 3325 L-354231 3325 L-353573 3325 L-351446 3325 L-349723 3325 L-349530 3325 L-346976 3324 L-346700 3324 L-346512 3324 L-345679 3324 L-344907 3324 L-344209 3323 L-339208 3323 L-338832 3323 L-334579 3323 L-334092 3338 L-334073 3338 L-333994 3338 L-333919 3337 L-333899 3322 L-333086 3322 L-332332 3322 L-331113 3322 L-329681 3322 L-329585 3321 L-329411 3321 L-329056 3321 L-327747 3321 L-325890 3321 L-324187 3320 L-323685 3320 L-323419 3320 L-323026 3320 L-322892 3320 L-321982 3320 L-321606 3320 L-320677 3320 L-320338 3319 L-320299 3319 L-320261 3319 L-318345 3319 L-318172 3319 L-316643 3319 L-316315 3319 L-316199 3319 L-315792 3319 L-315443 3318 L-313800 3318 L-313249 3318 L-313006 3318 L-312464 3318 L-311633 3317 L-311091 3317 L-309557 3317 L-309465 3317 L-309428 3317 L-309292 3316 L-308904 3316 L-307880 3316 L-306003 3316 L-305907 3316 L-305307 3321 L-304940 3326 L-304455 3331 L-304417 3336 L-303643 3336 L-303586 3336 L-303411 3336 L-303217 3336 L-301612 3336 L-301592 3335 L-301437 3336 L-301322 3336 L-300142 3336 L-299987 3336 L-299320 3336 L-296872 3349 L-294357 3361 L-291687 3374 L-283988 3386 L-278320 3386 L-276106 3386 L-276083 3386 L-275109 3389 L-275089 3389 L-274225 3388 L-271485 3388 L-265686 3385 L-265533 3385 L-262747 3385 L-249139 3384 L-248393 3384 L-243982 3384 L-227636 3384 L-227404 3383 L-226867 3383 L-218407 3383 L-209702 3383 L-209489 3383 L-207517 3383 L-204731 3383 L-200243 3383 L-200088 3383 L-199919 3383 L-199779 3382 L-199488 3382 L-199450 3382 L-199179 3382 L-199007 3382 L-198597 3382 L-197476 3381 L-196296 3381 L-195019 3381 L-192155 3381 L-189235 3381 L-187243 3381 L-185695 3380 L-182658 3380 L-173333 3380 L-172809 3380 L-167085 3380 L-165578 3380 L-164764 3380 L-163080 3379 L-162359 3379 L-162191 3379 L-161145 3379 L-159078 3379 L-157716 3379 L-153273 3379 L-153176 3378 L-153137 3378 L-153118 3378 L-152286 3378 L-152208 3378 L-149635 3378 L-146386 3377 L-146231 3377 L-145283 3377 L-143542 3377 L-142826 3378 L-139286 3378 L-132708 3379 L-131291 3381 L-131270 3380 L-130320 3380 L-126845 3380 L-126092 3380 L-125530 3380 L-124748 3379 L-117244 3379 L-115646 3379 L-114072 3379 L-110887 3379 L-106554 3379 L-97984 3379 L-89237 3379 L-86164 3378 L-82898 3378 L-82351 3378 L-75214 3378 L-69546 3378 L-55482 3378 L-49470 3378 L-44764 3378 L-40761 3378 L-35653 3377 L-25939 3377 L-10369 3377 L-7286 3377 L-6984 3309 L-6964 3226 L-6945 3131 L-6926 3025 L-6906 2977 L-6887 2936 L-6868 2899 L-6841 2862 L-6820 2826 L-6792 2788 L-6756 2746 L-6743 2711 L-6730 2680 L-6711 2655 L-6693 2636 L-6673 2617 L-6655 2598 L-6635 2579 L-6615 2560 L-6594 2540 L-6577 2520 L-6559 2501 L-6538 2483 L-6518 2464 L-6500 2444 L-6481 2423 L-6461 2402 L-6441 2381 L-6423 2361 L-6404 2342 L-6383 2323 L-6358 2305 L-6343 2287 L-6326 2270 L-6306 2253 L-6287 2236 L-6268 2217 L-6249 2198 L-6229 2180 L-6208 2163 L-6190 2147 L-6172 2131 L-6151 2117 L-6130 2103 L-6113 2091 L-6094 2079 L-6074 2068 L-6055 2057 L-6036 2046 L-6017 2037 L-5997 2029 L-5977 2021 L-5958 2012 L-5940 2005 L-5912 1994 L-5891 1984 L-5863 1972 L-5829 1959 L-5815 1949 L-5802 1939 L-5783 1931 L-5764 1923 L-5745 1916 L-5726 1907 L-5707 1898 L-5687 1889 L-5666 1881 L-5649 1873 L-5630 1865 L-5610 1857 L-5590 1848 L-5571 1837 L-5553 1826 L-5533 1814 L-5513 1802 L-5494 1790 L-5475 1778 L-5454 1764 L-5430 1750 L-5415 1735 L-5398 1721 L-5378 1708 L-5359 1694 L-5339 1680 L-5321 1665 L-5300 1650 L-5280 1636 L-5262 1622 L-5243 1609 L-5223 1596 L-5202 1583 L-5185 1571 L-5166 1560 L-5146 1549 L-5127 1539 L-5107 1529 L-5088 1519 L-5069 1509 L-5049 1499 L-5030 1489 L-5011 1479 L-4982 1469 L-4962 1460 L-4935 1451 L-4897 1439 L-4882 1429 L-4870 1418 L-4853 1409 L-4836 1402 L-4816 1396 L-4797 1390 L-4778 1384 L-4758 1379 L-4738 1373 L-4720 1367 L-4701 1360 L-4681 1353 L-4661 1346 L-4643 1338 L-4624 1330 L-4604 1322 L-4584 1313 L-4565 1303 L-4547 1295 L-4526 1286 L-4501 1277 L-4487 1268 L-4469 1260 L-4449 1250 L-4430 1242 L-4411 1232 L-4392 1223 L-4372 1213 L-4352 1204 L-4333 1195 L-4314 1187 L-4294 1178 L-4274 1171 L-4256 1163 L-4237 1156 L-4217 1148 L-4199 1141 L-4179 1133 L-4160 1126 L-4140 1119 L-4121 1112 L-4101 1105 L-4082 1098 L-4054 1091 L-4034 1084 L-4006 1075 L-3970 1064 L-3956 1054 L-3943 1044 L-3925 1036 L-3907 1030 L-3887 1024 L-3869 1017 L-3849 1010 L-3829 1002 L-3808 994 L-3790 985 L-3773 976 L-3752 966 L-3732 956 L-3714 945 L-3695 934 L-3675 922 L-3655 911 L-3637 902 L-3618 893 L-3597 887 L-3572 881 L-3557 876 L-3540 870 L-3521 865 L-3501 859 L-3482 853 L-3463 847 L-3443 841 L-3422 837 L-3405 832 L-3386 827 L-3365 821 L-3344 813 L-3328 806 L-3309 800 L-3288 796 L-3270 792 L-3250 789 L-3231 785 L-3211 782 L-3192 777 L-3173 773 L-3154 769 L-3126 766 L-3105 762 L-3078 758 L-3043 753 L-3029 749 L-3016 745 L-2997 742 L-2979 739 L-2959 736 L-2940 733 L-2921 730 L-2901 727 L-2880 724 L-2863 721 L-2844 718 L-2823 715 L-2804 711 L-2786 708 L-2767 705 L-2747 702 L-2727 699 L-2708 696 L-2689 693 L-2668 690 L-2643 688 L-2629 685 L-2612 683 L-2592 680 L-2573 677 L-2553 674 L-2534 671 L-2515 667 L-2494 664 L-2476 661 L-2457 659 L-2437 656 L-2416 653 L-2399 651 L-2380 648 L-2360 645 L-2341 643 L-2321 640 L-2303 638 L-2283 637 L-2263 635 L-2244 633 L-2225 636 L-2196 639 L-2177 642 L-2149 645 L-2111 642 L-2096 640 L-2084 638 L-2066 636 L-2050 635 L-2030 633 L-2012 632 L-1992 630 L-1972 628 L-1951 627 L-1934 625 L-1916 624 L-1895 622 L-1875 620 L-1857 618 L-1838 617 L-1818 615 L-1798 613 L-1780 611 L-1761 610 L-1740 609 L-1715 607 L-1700 605 L-1683 604 L-1664 602 L-1644 600 L-1625 598 L-1606 596 L-1586 594 L-1565 592 L-1548 589 L-1529 587 L-1508 585 L-1488 583 L-1470 581 L-1451 578 L-1431 576 L-1413 575 L-1393 572 L-1374 570 L-1354 567 L-1334 565 L-1315 564 L-1297 562 L-1269 560 L-1248 558 L-1220 556 L-1186 554 L-1172 552 L-1159 550 L-1140 548 L-1121 546 L-1101 545 L-1083 543 L-1063 541 L-1044 539 L-1023 537 L-1006 535 L-987 534 L-966 531 L-946 529 L-928 527 L-910 524 L-890 521 L-869 518 L-851 515 L-832 513 L-811 510 L-786 508 L-771 505 L-754 502 L-735 500 L-715 497 L-696 494 L-677 491 L-657 489 L-636 487 L-619 484 L-600 482 L-579 479 L-559 477 L-542 475 L-523 473 L-503 472 L-484 470 L-464 469 L-445 467 L-426 466 L-406 464 L-387 463 L-368 462 L-340 460 L-320 459 L-292 457 L-256 455 L-243 452 L-230 449 L-211 447 L-193 445 L-173 444 L-155 442 L-135 440 L-115 439 L-94 437 L-77 435 L-59 433 L-38 431 L-18 429 L0 427 L18 425 L38 422 L58 420 L76 418 L95 417 L117 415 L142 413 L156 412 L173 410 L193 408 L212 406 L231 404 L250 402 L270 399 L291 396 L308 393 L328 391 L348 388 L369 386 L386 385 L405 383 L425 382 L444 381 L463 380 L482 378 L502 377 L522 375 L541 374 L560 373 L587 372 L608 371 L635 369 L670 368 L684 367 L697 366 L716 365 L735 364 L754 363 L773 361 L792 361 L812 360 L833 359 L850 358 L869 357 L889 356 L909 354 L928 353 L946 352 L966 351 L987 351 L1005 350 L1024 349 L1045 349 L1069 348 L1084 346 L1101 345 L1121 344 L1140 343 L1160 342 L1179 341 L1198 340 L1219 338 L1237 336 L1256 334 L1276 332 L1297 330 L1314 329 L1333 327 L1353 326 L1372 324 L1392 323 L1411 321 L1431 320 L1450 319 L1469 318 L1488 317 L1517 316 L1564 315 L1601 314 L1616 313 L1629 312 L1646 311 L1663 311 L1683 310 L1702 309 L1721 308 L1741 307 L1761 307 L1779 306 L1798 306 L1818 305 L1837 304 L1856 303 L1875 302 L1895 301 L1915 300 L1933 299 L1952 298 L1973 297 L1998 295 L2013 293 L2030 291 L2050 290 L2069 288 L2088 287 L2107 286 L2127 284 L2148 283 L2166 281 L2185 280 L2205 278 L2225 277 L2243 276 L2262 275 L2282 274 L2301 273 L2320 272 L2339 271 L2359 270 L2378 269 L2398 268 L2417 267 L2445 266 L2465 264 L2493 263 L2530 260 L2544 258 L2557 256 L2575 254 L2592 253 L2612 252 L2630 251 L2650 250 L2670 249 L2691 248 L2708 247 L2726 246 L2747 244 L2767 243 L2785 241 L2804 239 L2824 236 L2845 234 L2862 233 L2881 231 L2902 229 L2927 228 L2942 226 L2960 225 L2978 224 L2999 222 L3017 221 L3036 219 L3056 217 L3077 216 L3094 214 L3114 213 L3134 212 L3155 210 L3172 209 L3191 208 L3210 207 L3229 206 L3249 204 L3268 203 L3288 202 L3308 201 L3327 200 L3345 199 L3373 997 L3394 996 L3421 995 L3457 993 L3471 192 L3485 190 L3503 189 L3521 188 L3540 188 L3559 187 L3578 186 L3598 185 L3619 183 L3636 181 L3655 180 L3676 178 L3696 176 L3714 174 L3733 172 L3752 170 L3773 168 L3791 167 L3810 165 L3831 164 L3856 162 L3871 160 L3901 158 L3940 156 L3963 153 L3993 151 L4009 148 L4023 147 L4042 145 L4062 144 L4083 143 L4100 142 L4119 141 L4139 139 L4158 139 L4178 138 L4196 137 L4216 137 L4236 136 L4255 134 L4274 134 L4302 133 L4322 131 L4350 130 L4385 129 L4399 128 L4431 127 L4449 125 L4469 125 L4487 124 L4507 123 L4527 122 L4548 122 L4565 121 L4583 119 L4604 116 L4624 112 L4642 108 L4661 105 L4681 102 L4701 100 L4719 97 L4738 96 L4760 94 L4785 93 L4799 92 L4817 90 L4835 88 L4856 87 L4874 86 L4894 84 L4913 82 L4935 81 L4951 79 L4971 77 L4991 76 L5012 75 L5029 74 L5048 73 L5068 72 L5087 71 L5106 70 L5125 69 L5145 68 L5165 67 L5184 66 L5202 65 L5230 64 L5251 63 L5321 61 L5349 58 L5363 56 L5378 54 L5398 52 L5416 51 L5435 50 L5455 48 L5476 47 L5493 46 L5512 45 L5533 44 L5553 44 L5571 42 L5590 41 L5610 40 L5630 38 L5648 37 L5667 35 L5688 34 L5713 34 L5728 32 L5745 31 L5764 30 L5784 28 L5803 27 L5822 25 L5842 24 L5863 23 L5880 22 L5899 21 L5920 20 L5941 19 L5957 18 L6015 17 L6035 16 L6054 15 L6073 14 L6094 13 L6112 12 L6131 12 L6159 11 L6179 11 L6207 10 L6244 9 L6258 8 L6271 7 L6289 7 L6306 6 L6326 6 L6344 5 L6364 5 L6384 5 L6405 4 L6422 4 L6440 3 L6461 3 L6481 2 L6500 1" />
</svg>
