<svg xmlns="http://www.w3.org/2000/svg" version="1.1" viewBox="0 0 6500 1000">
	<path fill="none" stroke="gold" stroke-width="125" stroke-linecap="round" stroke-linejoin="round" d="M0 10868  L-182932 10868 L-180328 10813 L-178660 10759 L-160331 10650 L-160161 10540 L-153003 10431 L-152970 10431 L-139539 10377 L-136617 10431 L-123276 10268 L-119107 10049 L-117947 9776 L-117328 9503 L-115316 9340 L-111544 9230 L-110944 9121 L-110615 9012 L-110402 8903 L-109861 8794 L-108623 8357 L-107444 7920 L-104579 7484 L-104057 7047 L-99202 6938 L-96264 6829 L-96221 6719 L-95913 6610 L-95661 6501 L-93066 6392 L-88811 6392 L-88793 6392 L-87556 6392 L-85679 6392 L-83725 6283 L-82777 6174 L-82506 6064 L-82196 6010 L-82098 5955 L-81268 5955 L-79237 6010 L-78947 5519 L-76800 5300 L-76645 4973 L-72989 4645 L-72738 4809 L-72639 4754 L-72122 4918 L-69971 5191 L-69042 5464 L-67516 5737 L-66276 5737 L-64730 5682 L-61768 5573 L-60646 5464 L-60337 5355 L-59126 5300 L-56119 5901 L-56099 5846 L-55752 5792 L-55539 5737 L-55413 4973 L-55171 4864 L-55133 4754 L-55114 4645 L-55094 4536 L-55035 4427 L-54977 4318 L-54959 4209 L-54516 4099 L-53276 3990 L-51731 3881 L-48343 3772 L-42617 3717 L-42415 3663 L-40779 3608 L-39057 3554 L-37625 3499 L-37393 3444 L-36678 3390 L-30545 3335 L-30178 3226 L-30023 3117 L-29445 3008 L-29152 2899 L-28185 2789 L-27875 2680 L-27276 2571 L-25670 2571 L-24935 2571 L-24625 2626 L-23857 2626 L-21821 2516 L-21395 2407 L-20583 2353 L-13154 2243 L-12631 2134 L-12458 2025 L-11723 1916 L-10155 1807 L-9749 1752 L-7524 1643 L-6576 1588 L-6151 1534 L-5821 1534 L-4777 1479 L-2669 1370 L-2417 1261 L-1798 1152 L-985 1097 L1122 988 L1170 879 L3098 770 L3424 661 L3559 551 L4062 497 L5475 388 L5978 169 L6500 6" />
</svg>
