<svg xmlns="http://www.w3.org/2000/svg" version="1.1" viewBox="0 0 6500 1000">
	<path fill="none" stroke="gold" stroke-width="125" stroke-linecap="round" stroke-linejoin="round" d="M0 3075  L-722104 3075 L-719500 3075 L-717832 3075 L-699503 3074 L-699332 3074 L-692175 3074 L-692142 3074 L-678711 3073 L-675789 3074 L-662448 3073 L-658279 3073 L-657119 3072 L-656500 3071 L-654488 3071 L-650716 3070 L-650116 3070 L-649787 3070 L-649574 3069 L-649033 3069 L-647795 3068 L-646616 3067 L-643751 3066 L-643229 3064 L-638374 3064 L-635436 3064 L-635393 3064 L-635085 3063 L-634833 3063 L-632238 3063 L-627983 3063 L-627965 3063 L-626728 3063 L-624850 3063 L-622897 3062 L-621949 3062 L-621678 3062 L-621368 3062 L-621270 3061 L-620440 3061 L-618409 3062 L-618119 3060 L-615972 3060 L-615817 3059 L-612160 3058 L-611909 3058 L-611811 3058 L-611294 3059 L-609143 3059 L-608214 3060 L-606688 3061 L-605448 3061 L-603902 3061 L-600940 3060 L-599818 3060 L-599509 3060 L-598298 3060 L-595291 3061 L-595271 3061 L-594924 3061 L-594711 3061 L-594585 3059 L-594343 3058 L-594305 3058 L-594286 3058 L-594266 3058 L-594207 3057 L-594149 3057 L-594131 3057 L-593688 3056 L-592448 3056 L-590902 3056 L-587515 3056 L-581789 3055 L-581587 3055 L-579951 3055 L-578229 3055 L-576797 3055 L-576565 3055 L-575849 3054 L-569717 3054 L-569349 3054 L-569195 3054 L-568617 3053 L-568324 3053 L-567357 3053 L-567047 3053 L-566448 3052 L-564842 3052 L-564107 3052 L-563797 3052 L-563029 3052 L-560993 3052 L-560567 3052 L-559755 3052 L-552326 3051 L-551803 3051 L-551630 3051 L-550895 3050 L-549327 3050 L-548921 3050 L-546696 3050 L-545748 3050 L-545323 3049 L-544993 3049 L-543949 3049 L-541841 3049 L-541589 3049 L-540970 3048 L-540157 3048 L-538049 3048 L-538001 3048 L-536073 3047 L-535747 3047 L-535612 3047 L-535109 3047 L-533696 3046 L-533193 3046 L-532671 3045 L-529112 3045 L-528377 3044 L-525952 3044 L-524663 3044 L-524256 3044 L-521103 3044 L-520948 3044 L-520928 3044 L-520561 3044 L-519303 3044 L-518588 3044 L-517698 3044 L-517291 3044 L-516363 3044 L-515254 3044 L-514951 3045 L-508702 3045 L-507755 3045 L-506128 3045 L-505627 3046 L-501951 3046 L-501119 3046 L-497166 3046 L-495754 3046 L-493264 3045 L-492588 3045 L-492549 3045 L-491678 3045 L-488467 3045 L-485604 3045 L-484636 3044 L-483515 3044 L-483496 3044 L-481871 3044 L-481407 3043 L-481315 3043 L-474945 3043 L-473997 3043 L-471540 3042 L-470667 3042 L-469431 3042 L-467430 3042 L-467033 3042 L-465596 3041 L-463570 3041 L-463357 3041 L-462177 3041 L-460668 3041 L-460648 3040 L-458636 3040 L-457767 3040 L-456896 3040 L-456311 3040 L-455774 3039 L-455116 3039 L-453878 3039 L-453317 3038 L-452136 3038 L-450899 3038 L-450860 3038 L-450473 3038 L-449931 3038 L-449158 3037 L-448035 3037 L-445946 3037 L-445613 3037 L-445327 3036 L-444399 3036 L-443915 3036 L-443180 3036 L-439549 3036 L-438421 3036 L-438266 3035 L-437240 3035 L-433526 3035 L-432308 3035 L-430490 3034 L-427704 3034 L-427143 3034 L-423255 3034 L-420778 3034 L-419443 3034 L-418940 3034 L-418457 3033 L-415767 3033 L-411996 3033 L-409539 3033 L-408359 3033 L-407720 3033 L-405360 3033 L-405283 3033 L-404235 3033 L-404142 3032 L-403639 3032 L-403193 3032 L-403136 3032 L-402922 3032 L-399962 3032 L-397255 3032 L-397100 3032 L-393579 3032 L-393056 3031 L-392089 3031 L-391740 3031 L-390696 3031 L-389768 3030 L-389342 3030 L-387833 3030 L-386866 3030 L-386847 3030 L-384951 3019 L-384835 3008 L-384787 2997 L-384763 2986 L-381759 2986 L-379728 2986 L-377967 2985 L-377600 2985 L-377154 2985 L-376787 2985 L-376374 2985 L-374389 2984 L-374175 2984 L-374020 2984 L-372415 2984 L-371293 2984 L-370345 2984 L-369088 2984 L-367443 2984 L-366264 2983 L-359674 2983 L-359628 2983 L-359222 2983 L-358177 2983 L-358041 2982 L-356359 2982 L-356339 2982 L-355002 2982 L-353766 2982 L-353612 2981 L-353238 2981 L-353032 2981 L-352722 2981 L-351948 2981 L-349627 2980 L-348969 2980 L-346841 2980 L-345119 2980 L-344925 2980 L-342372 2980 L-342095 2979 L-341907 2979 L-341075 2979 L-340302 2979 L-339604 2978 L-334604 2978 L-334228 2978 L-329975 2978 L-329488 2993 L-329469 2993 L-329390 2993 L-329314 2992 L-329295 2977 L-328482 2977 L-327728 2977 L-326509 2977 L-325077 2977 L-324981 2977 L-324806 2977 L-324452 2976 L-323143 2976 L-321285 2976 L-319583 2976 L-319080 2976 L-318815 2975 L-318422 2975 L-318287 2975 L-317378 2975 L-317001 2975 L-316073 2975 L-315734 2975 L-315694 2975 L-315656 2974 L-313741 2974 L-313567 2974 L-312038 2974 L-311710 2974 L-311594 2974 L-311187 2974 L-310839 2974 L-309195 2973 L-308644 2973 L-308401 2973 L-307860 2973 L-307028 2973 L-306487 2972 L-304952 2972 L-304860 2972 L-304823 2972 L-304687 2972 L-304300 2972 L-303275 2971 L-301399 2971 L-301302 2971 L-300702 2976 L-300335 2981 L-299850 2986 L-299812 2991 L-299039 2991 L-298981 2991 L-298806 2991 L-298613 2991 L-297008 2990 L-296988 2990 L-296832 2991 L-296717 2991 L-295537 2991 L-295383 2991 L-294716 2991 L-292268 3004 L-289753 3016 L-287083 3028 L-279384 3040 L-273716 3040 L-271501 3040 L-271478 3040 L-270504 3043 L-270484 3043 L-269621 3042 L-266880 3042 L-261082 3039 L-260928 3039 L-258143 3039 L-244534 3038 L-243788 3038 L-239378 3038 L-223031 3038 L-222799 3038 L-222262 3037 L-213803 3037 L-205097 3037 L-204885 3037 L-202912 3037 L-200126 3037 L-195639 3037 L-195484 3037 L-195315 3037 L-195174 3037 L-194884 3036 L-194845 3036 L-194574 3036 L-194403 3036 L-193992 3036 L-192872 3036 L-191692 3036 L-190415 3035 L-187551 3035 L-184631 3035 L-182639 3035 L-181091 3035 L-178053 3034 L-168729 3034 L-168205 3034 L-162481 3034 L-160974 3034 L-160159 3034 L-158476 3034 L-157755 3034 L-157586 3033 L-156541 3033 L-154474 3033 L-153112 3033 L-148668 3033 L-148571 3033 L-148533 3033 L-148514 3032 L-147681 3032 L-147603 3032 L-145031 3032 L-141782 3032 L-141627 3032 L-140678 3031 L-138937 3031 L-138222 3032 L-134681 3033 L-128104 3034 L-126687 3035 L-126666 3035 L-125715 3034 L-122241 3034 L-121488 3034 L-120926 3034 L-120144 3034 L-112640 3034 L-111041 3033 L-109467 3033 L-106282 3033 L-101949 3033 L-93379 3033 L-84633 3033 L-81559 3033 L-78293 3032 L-77747 3032 L-70609 3032 L-64942 3032 L-50877 3032 L-44866 3032 L-40160 3032 L-36156 3032 L-31049 3032 L-21335 3032 L-5764 3031 L-2682 3031 L-2379 2964 L-2360 2882 L-2341 2789 L-2321 2685 L-2302 2637 L-2282 2597 L-2264 2560 L-2236 2524 L-2215 2488 L-2187 2451 L-2152 2410 L-2138 2375 L-2125 2345 L-2107 2320 L-2088 2302 L-2068 2283 L-2050 2264 L-2030 2245 L-2011 2226 L-1990 2206 L-1973 2187 L-1954 2168 L-1933 2150 L-1914 2132 L-1895 2112 L-1876 2092 L-1857 2070 L-1836 2050 L-1818 2030 L-1799 2011 L-1778 1993 L-1753 1975 L-1739 1958 L-1721 1941 L-1702 1924 L-1682 1907 L-1663 1889 L-1644 1870 L-1624 1852 L-1604 1836 L-1586 1819 L-1567 1804 L-1546 1790 L-1526 1776 L-1509 1764 L-1490 1753 L-1470 1742 L-1451 1731 L-1431 1721 L-1412 1711 L-1392 1703 L-1373 1695 L-1354 1687 L-1335 1679 L-1308 1669 L-1287 1659 L-1259 1647 L-1225 1635 L-1211 1624 L-1198 1615 L-1179 1606 L-1160 1599 L-1140 1592 L-1122 1583 L-1102 1574 L-1082 1565 L-1062 1557 L-1044 1550 L-1025 1542 L-1005 1534 L-985 1525 L-967 1514 L-948 1503 L-928 1492 L-908 1480 L-890 1468 L-871 1456 L-850 1442 L-825 1428 L-811 1414 L-793 1400 L-774 1387 L-754 1373 L-735 1359 L-716 1344 L-696 1330 L-676 1316 L-657 1303 L-639 1289 L-618 1277 L-598 1264 L-580 1252 L-561 1241 L-541 1230 L-522 1221 L-503 1211 L-484 1201 L-464 1191 L-445 1181 L-425 1171 L-406 1162 L-378 1152 L-358 1143 L-330 1133 L-293 1122 L-278 1112 L-265 1102 L-248 1092 L-231 1086 L-211 1079 L-193 1073 L-174 1068 L-154 1063 L-133 1057 L-116 1051 L-97 1044 L-77 1037 L-57 1030 L-38 1023 L-20 1015 L0 1006 L19 997 L38 988 L57 980 L78 971 L102 962 L117 954 L134 945 L154 936 L173 928 L193 919 L212 909 L232 900 L252 891 L270 882 L289 873 L309 865 L330 858 L347 850 L366 843 L386 835 L405 828 L425 820 L444 813 L464 807 L483 800 L502 793 L521 786 L549 779 L569 772 L597 764 L634 753 L648 743 L661 733 L678 725 L696 719 L716 714 L735 707 L755 700 L774 692 L795 684 L814 675 L831 666 L851 656 L872 646 L890 635 L909 624 L928 613 L949 602 L967 593 L985 584 L1007 578 L1032 572 L1046 567 L1064 562 L1083 556 L1102 550 L1122 544 L1140 539 L1160 533 L1181 529 L1199 524 L1218 519 L1238 513 L1259 505 L1276 498 L1295 493 L1315 488 L1334 485 L1353 482 L1372 478 L1392 474 L1412 470 L1431 466 L1450 462 L1477 459 L1498 455 L1526 451 L1561 446 L1574 442 L1588 438 L1606 435 L1625 432 L1645 429 L1663 426 L1683 423 L1703 421 L1724 418 L1741 415 L1759 412 L1780 409 L1800 405 L1818 402 L1837 399 L1857 396 L1877 393 L1895 390 L1914 387 L1935 385 L1960 382 L1975 379 L1992 377 L2011 374 L2031 371 L2050 368 L2069 365 L2089 362 L2110 359 L2127 356 L2146 353 L2167 350 L2187 348 L2205 345 L2224 343 L2244 340 L2262 338 L2282 335 L2301 333 L2321 332 L2340 330 L2359 328 L2378 331 L2407 334 L2427 337 L2455 340 L2492 337 L2507 335 L2520 333 L2537 331 L2554 330 L2574 328 L2592 326 L2612 325 L2631 323 L2653 322 L2669 320 L2688 319 L2708 317 L2729 315 L2747 314 L2765 312 L2785 310 L2805 308 L2824 307 L2843 305 L2864 304 L2889 302 L2903 301 L2920 299 L2940 297 L2959 295 L2979 294 L2998 292 L3017 290 L3038 287 L3056 285 L3075 283 L3095 280 L3116 278 L3133 276 L3152 274 L3172 272 L3191 270 L3211 268 L3229 266 L3249 263 L3269 261 L3288 260 L3307 258 L3334 256 L3355 254 L3383 252 L3418 250 L3431 248 L3445 246 L3464 244 L3482 242 L3502 241 L3520 239 L3540 237 L3560 235 L3581 234 L3598 232 L3616 230 L3637 228 L3657 226 L3675 223 L3694 220 L3714 217 L3734 215 L3752 212 L3771 210 L3792 207 L3817 204 L3832 202 L3849 199 L3868 197 L3888 194 L3907 191 L3926 189 L3946 186 L3967 184 L3984 181 L4004 179 L4024 177 L4045 174 L4062 173 L4081 171 L4101 169 L4120 168 L4139 166 L4158 165 L4178 163 L4198 162 L4217 161 L4235 159 L4263 158 L4284 157 L4312 155 L4347 152 L4361 150 L4374 147 L4393 145 L4411 143 L4431 142 L4449 140 L4469 138 L4488 137 L4509 135 L4526 133 L4545 131 L4566 129 L4586 127 L4604 125 L4623 123 L4642 120 L4663 118 L4681 116 L4700 115 L4721 113 L4746 112 L4761 110 L4778 108 L4797 106 L4817 105 L4836 102 L4855 100 L4875 97 L4896 94 L4913 92 L4932 89 L4953 87 L4973 85 L4990 83 L5009 82 L5029 81 L5048 80 L5068 78 L5087 77 L5107 76 L5126 74 L5145 73 L5164 72 L5191 71 L5212 70 L5240 68 L5274 67 L5288 66 L5302 65 L5320 64 L5339 63 L5359 62 L5377 60 L5397 60 L5417 59 L5437 58 L5455 57 L5473 56 L5494 55 L5514 54 L5532 52 L5551 51 L5571 51 L5591 50 L5609 49 L5628 48 L5649 48 L5674 47 L5689 46 L5706 44 L5725 43 L5745 43 L5764 41 L5783 41 L5803 39 L5824 37 L5841 35 L5860 33 L5881 31 L5901 29 L5919 28 L5938 27 L5958 25 L5976 24 L5996 22 L6015 21 L6035 20 L6054 19 L6074 18 L6093 17 L6121 16 L6169 15 L6206 14 L6221 13 L6233 12 L6250 11 L6268 10 L6287 10 L6306 9 L6325 8 L6345 7 L6366 7 L6383 6 L6402 5 L6422 5 L6442 4 L6461 3 L6479 2 L6500 1" />
</svg>
