<svg xmlns="http://www.w3.org/2000/svg" version="1.1" viewBox="0 0 6500 1000">
	<path fill="none" stroke="gold" stroke-width="125" stroke-linecap="round" stroke-linejoin="round" d="M0 1017  L-716611 1017 L-714007 1017 L-712339 1017 L-694010 1017 L-693840 1017 L-686682 1017 L-686649 1017 L-673218 1017 L-670296 1017 L-656955 1017 L-652786 1016 L-651626 1016 L-651007 1016 L-648995 1016 L-645223 1016 L-644623 1015 L-644295 1015 L-644082 1015 L-643540 1015 L-642302 1015 L-641123 1014 L-638259 1014 L-637736 1013 L-632881 1013 L-629944 1013 L-629901 1013 L-629592 1013 L-629340 1013 L-626745 1012 L-622490 1012 L-622472 1012 L-621235 1012 L-619358 1012 L-617404 1012 L-616456 1012 L-616186 1012 L-615876 1012 L-615778 1012 L-614947 1012 L-612916 1012 L-612626 1011 L-610480 1011 L-610324 1011 L-606668 1010 L-606417 1011 L-606318 1011 L-605801 1011 L-603650 1011 L-602721 1011 L-601195 1012 L-599956 1012 L-598409 1012 L-595447 1011 L-594325 1011 L-594016 1011 L-592805 1011 L-589798 1012 L-589779 1012 L-589431 1012 L-589218 1012 L-589092 1011 L-588850 1011 L-588812 1011 L-588793 1010 L-588774 1010 L-588715 1010 L-588656 1010 L-588638 1010 L-588195 1010 L-586956 1010 L-585410 1010 L-582022 1010 L-576296 1009 L-576094 1009 L-574458 1009 L-572736 1009 L-571304 1009 L-571072 1009 L-570357 1009 L-564225 1009 L-563857 1009 L-563702 1009 L-563124 1009 L-562831 1009 L-561864 1008 L-561555 1008 L-560955 1008 L-559349 1008 L-558614 1008 L-558304 1008 L-557536 1008 L-555500 1008 L-555075 1008 L-554262 1008 L-546833 1008 L-546310 1008 L-546137 1008 L-545402 1007 L-543834 1007 L-543429 1007 L-541203 1007 L-540256 1007 L-539831 1007 L-539500 1007 L-538456 1007 L-536348 1007 L-536096 1007 L-535477 1007 L-534665 1007 L-532557 1006 L-532508 1006 L-530580 1006 L-530254 1006 L-530119 1006 L-529616 1006 L-528203 1006 L-527700 1006 L-527179 1005 L-523619 1005 L-522884 1005 L-520459 1005 L-519170 1005 L-518763 1005 L-515610 1005 L-515455 1005 L-515435 1005 L-515069 1005 L-513810 1005 L-513095 1005 L-512205 1005 L-511798 1005 L-510870 1005 L-509761 1005 L-509458 1005 L-503209 1005 L-502262 1005 L-500636 1005 L-500134 1005 L-496458 1006 L-495626 1006 L-491673 1006 L-490261 1005 L-487772 1005 L-487095 1005 L-487057 1005 L-486186 1005 L-482974 1005 L-480111 1005 L-479143 1005 L-478022 1005 L-478003 1005 L-476378 1005 L-475914 1004 L-475822 1004 L-469453 1004 L-468504 1004 L-466047 1004 L-465175 1004 L-463939 1004 L-461937 1004 L-461540 1004 L-460104 1004 L-458077 1004 L-457864 1004 L-456684 1003 L-455176 1003 L-455155 1003 L-453143 1003 L-452274 1003 L-451403 1003 L-450818 1003 L-450281 1003 L-449623 1003 L-448385 1003 L-447824 1003 L-446643 1002 L-445406 1002 L-445367 1002 L-444980 1002 L-444439 1002 L-443665 1002 L-442543 1002 L-440453 1002 L-440120 1002 L-439834 1002 L-438906 1002 L-438423 1002 L-437687 1001 L-434056 1001 L-432928 1001 L-432774 1001 L-431748 1001 L-428033 1001 L-426815 1001 L-424997 1001 L-422211 1001 L-421650 1001 L-417762 1001 L-415285 1001 L-413950 1001 L-413447 1001 L-412964 1001 L-410275 1001 L-406503 1001 L-404046 1001 L-402866 1001 L-402227 1000 L-399867 1000 L-399790 1000 L-398742 1000 L-398649 1000 L-398146 1000 L-397700 1000 L-397643 1000 L-397429 1000 L-394470 1000 L-391762 1000 L-391607 1000 L-388086 1000 L-387563 1000 L-386596 1000 L-386247 999 L-385203 999 L-384275 999 L-383849 999 L-382340 999 L-381373 999 L-381354 999 L-379458 995 L-379342 990 L-379294 986 L-379270 981 L-376266 981 L-374235 981 L-372474 981 L-372107 981 L-371662 981 L-371295 981 L-370881 981 L-368896 981 L-368683 981 L-368528 980 L-366922 980 L-365801 980 L-364852 980 L-363595 980 L-361951 980 L-360771 980 L-354181 980 L-354135 980 L-353729 980 L-352684 980 L-352549 980 L-350866 980 L-350846 980 L-349509 979 L-348273 979 L-348119 979 L-347745 979 L-347539 979 L-347229 979 L-346455 979 L-344134 979 L-343476 979 L-341348 979 L-339626 979 L-339432 979 L-336879 979 L-336603 978 L-336415 978 L-335582 978 L-334810 978 L-334112 978 L-329111 978 L-328735 978 L-324482 978 L-323995 984 L-323976 984 L-323897 984 L-323822 984 L-323802 978 L-322989 978 L-322235 977 L-321016 977 L-319584 977 L-319488 977 L-319314 977 L-318959 977 L-317650 977 L-315793 977 L-314090 977 L-313587 977 L-313322 977 L-312929 977 L-312795 977 L-311885 977 L-311509 977 L-310580 977 L-310241 977 L-310201 977 L-310164 976 L-308248 976 L-308074 976 L-306546 976 L-306217 976 L-306101 976 L-305694 976 L-305346 976 L-303702 976 L-303152 976 L-302908 976 L-302367 976 L-301536 976 L-300994 976 L-299460 976 L-299367 975 L-299330 975 L-299194 975 L-298807 975 L-297782 975 L-295906 975 L-295810 975 L-295209 977 L-294842 979 L-294358 981 L-294320 983 L-293546 983 L-293488 983 L-293314 983 L-293120 983 L-291515 983 L-291495 983 L-291340 983 L-291224 983 L-290045 983 L-289890 983 L-289223 983 L-286775 988 L-284260 993 L-281590 998 L-273891 1003 L-268223 1003 L-266009 1003 L-265985 1003 L-265012 1004 L-264992 1004 L-264128 1004 L-261388 1004 L-255589 1003 L-255436 1003 L-252650 1003 L-239042 1003 L-238296 1002 L-233885 1002 L-217539 1002 L-217307 1002 L-216769 1002 L-208310 1002 L-199604 1002 L-199392 1002 L-197420 1002 L-194633 1002 L-190146 1002 L-189991 1002 L-189822 1002 L-189682 1002 L-189391 1002 L-189352 1002 L-189081 1002 L-188910 1002 L-188500 1001 L-187379 1001 L-186199 1001 L-184922 1001 L-182058 1001 L-179138 1001 L-177146 1001 L-175598 1001 L-172560 1001 L-163236 1001 L-162712 1001 L-156988 1001 L-155481 1001 L-154666 1001 L-152983 1001 L-152262 1001 L-152093 1001 L-151048 1000 L-148981 1000 L-147619 1000 L-143176 1000 L-143078 1000 L-143040 1000 L-143021 1000 L-142188 1000 L-142111 1000 L-139538 1000 L-136289 1000 L-136134 1000 L-135186 1000 L-133445 1000 L-132729 1000 L-129188 1000 L-122611 1001 L-121194 1001 L-121173 1001 L-120223 1001 L-116748 1001 L-115995 1001 L-115433 1001 L-114651 1001 L-107147 1001 L-105549 1001 L-103975 1000 L-100789 1000 L-96456 1000 L-87887 1000 L-79140 1000 L-76066 1000 L-72800 1000 L-72254 1000 L-65117 1000 L-59449 1000 L-45385 1000 L-39373 1000 L-34667 1000 L-30664 1000 L-25556 1000 L-15842 1000 L-272 1000 L2810 999 L3112 972 L3132 939 L3151 901 L3171 858 L3190 839 L3209 823 L3228 808 L3256 793 L3277 778 L3304 763 L3340 746 L3353 732 L3366 720 L3385 710 L3404 702 L3424 695 L3442 687 L3461 679 L3481 672 L3502 664 L3519 656 L3538 648 L3558 641 L3578 633 L3597 625 L3615 617 L3635 608 L3655 600 L3674 592 L3693 584 L3714 577 L3739 569 L3753 562 L3770 555 L3790 548 L3809 541 L3828 534 L3847 526 L3867 519 L3888 512 L3906 506 L3925 500 L3945 494 L3966 488 L3983 483 L4002 479 L4022 474 L4041 470 L4061 466 L4079 462 L4099 458 L4119 455 L4138 452 L4157 449 L4184 445 L4205 440 L4233 436 L4267 431 L4281 426 L4294 423 L4313 419 L4332 416 L4352 413 L4370 409 L4390 406 L4409 402 L4430 399 L4447 396 L4466 393 L4486 390 L4506 386 L4525 382 L4544 377 L4564 372 L4583 367 L4602 363 L4621 358 L4642 352 L4666 346 L4681 341 L4698 335 L4718 330 L4737 324 L4757 318 L4776 312 L4796 306 L4816 301 L4834 295 L4853 290 L4873 285 L4894 280 L4912 275 L4931 270 L4951 266 L4969 262 L4989 258 L5008 254 L5028 250 L5047 246 L5066 242 L5085 238 L5114 234 L5134 230 L5162 226 L5199 222 L5214 218 L5226 213 L5243 210 L5260 207 L5280 204 L5299 202 L5318 200 L5338 198 L5359 195 L5376 193 L5395 190 L5415 187 L5435 184 L5453 181 L5472 178 L5492 175 L5512 171 L5531 167 L5549 164 L5571 160 L5595 157 L5610 153 L5627 150 L5647 146 L5666 143 L5686 139 L5704 135 L5724 131 L5745 127 L5763 124 L5782 120 L5802 117 L5822 114 L5840 111 L5859 108 L5879 105 L5898 102 L5918 99 L5937 96 L5956 93 L5976 90 L5995 88 L6014 85 L6042 82 L6062 79 L6090 76 L6126 71 L6141 67 L6154 63 L6171 60 L6189 58 L6209 55 L6228 52 L6247 50 L6267 46 L6288 43 L6307 40 L6324 36 L6344 32 L6364 28 L6382 23 L6401 19 L6421 14 L6442 10 L6459 6 L6478 3 L6500 0" />
</svg>
