<svg xmlns="http://www.w3.org/2000/svg" version="1.1" viewBox="0 0 6500 1000">
	<path fill="none" stroke="gold" stroke-width="125" stroke-linecap="round" stroke-linejoin="round" d="M0 3351  L-727618 3351 L-725014 3351 L-723346 3351 L-705017 3350 L-704847 3350 L-697689 3350 L-697656 3350 L-684225 3350 L-681303 3350 L-667962 3349 L-663793 3349 L-662633 3348 L-662014 3347 L-660002 3347 L-656230 3347 L-655630 3346 L-655301 3346 L-655088 3346 L-654547 3346 L-653309 3344 L-652130 3343 L-649265 3342 L-648743 3341 L-643888 3341 L-640950 3340 L-640907 3340 L-640599 3340 L-640347 3339 L-637752 3339 L-633497 3339 L-633479 3339 L-632242 3339 L-630365 3339 L-628411 3339 L-627463 3338 L-627192 3338 L-626882 3338 L-626784 3338 L-625954 3338 L-623923 3338 L-623633 3337 L-621486 3336 L-621331 3335 L-617675 3334 L-617424 3335 L-617325 3335 L-616808 3335 L-614657 3336 L-613728 3337 L-612202 3337 L-610962 3337 L-609416 3337 L-606454 3337 L-605332 3337 L-605023 3336 L-603812 3336 L-600805 3338 L-600785 3338 L-600438 3337 L-600225 3337 L-600099 3335 L-599857 3335 L-599819 3335 L-599800 3334 L-599780 3334 L-599721 3334 L-599663 3334 L-599645 3333 L-599202 3333 L-597962 3333 L-596417 3332 L-593029 3332 L-587303 3332 L-587101 3332 L-585465 3332 L-583743 3331 L-582311 3331 L-582079 3331 L-581364 3331 L-575231 3331 L-574864 3331 L-574709 3330 L-574131 3330 L-573838 3330 L-572871 3329 L-572561 3329 L-571962 3329 L-570356 3329 L-569621 3329 L-569311 3329 L-568543 3329 L-566507 3329 L-566081 3328 L-565269 3328 L-557840 3328 L-557317 3328 L-557144 3327 L-556409 3327 L-554841 3327 L-554435 3327 L-552210 3326 L-551262 3326 L-550837 3326 L-550507 3326 L-549463 3326 L-547355 3326 L-547103 3325 L-546484 3325 L-545671 3325 L-543563 3325 L-543515 3324 L-541587 3324 L-541261 3324 L-541126 3323 L-540623 3323 L-539210 3323 L-538707 3322 L-538185 3322 L-534626 3321 L-533891 3321 L-531466 3321 L-530177 3321 L-529770 3320 L-526617 3320 L-526462 3320 L-526442 3321 L-526075 3321 L-524817 3321 L-524102 3321 L-523212 3321 L-522805 3321 L-521877 3321 L-520768 3321 L-520465 3321 L-514216 3322 L-513269 3322 L-511643 3322 L-511141 3322 L-507465 3322 L-506633 3323 L-502680 3323 L-501268 3322 L-498778 3322 L-498102 3322 L-498063 3322 L-497192 3322 L-493981 3321 L-491118 3321 L-490150 3321 L-489029 3321 L-489010 3321 L-487385 3320 L-486921 3320 L-486829 3320 L-480459 3320 L-479511 3319 L-477054 3319 L-476182 3319 L-474946 3319 L-472944 3319 L-472547 3318 L-471110 3318 L-469084 3318 L-468871 3318 L-467691 3317 L-466182 3317 L-466162 3317 L-464150 3317 L-463281 3317 L-462410 3317 L-461825 3316 L-461288 3316 L-460630 3316 L-459392 3315 L-458831 3315 L-457650 3315 L-456413 3315 L-456374 3315 L-455987 3315 L-455445 3314 L-454672 3314 L-453549 3314 L-451460 3314 L-451127 3314 L-450841 3313 L-449913 3313 L-449429 3313 L-448694 3313 L-445063 3312 L-443935 3312 L-443780 3312 L-442754 3312 L-439040 3312 L-437822 3311 L-436004 3311 L-433218 3311 L-432657 3311 L-428769 3311 L-426292 3311 L-424957 3311 L-424454 3310 L-423971 3310 L-421281 3310 L-417510 3310 L-415053 3310 L-413873 3310 L-413234 3310 L-410874 3310 L-410797 3310 L-409749 3310 L-409656 3309 L-409153 3309 L-408707 3309 L-408650 3309 L-408436 3309 L-405476 3309 L-402769 3309 L-402614 3309 L-399093 3309 L-398570 3308 L-397603 3308 L-397254 3308 L-396210 3308 L-395282 3307 L-394856 3307 L-393347 3307 L-392380 3307 L-392361 3307 L-390465 3296 L-390349 3285 L-390301 3274 L-390277 3264 L-387273 3263 L-385242 3263 L-383481 3263 L-383114 3263 L-382668 3263 L-382302 3262 L-381888 3262 L-379903 3262 L-379689 3262 L-379535 3262 L-377929 3262 L-376808 3262 L-375859 3262 L-374602 3261 L-372957 3261 L-371778 3261 L-365188 3261 L-365142 3260 L-364736 3260 L-363691 3260 L-363555 3260 L-361873 3260 L-361853 3260 L-360516 3259 L-359280 3259 L-359126 3259 L-358752 3259 L-358546 3259 L-358236 3258 L-357462 3258 L-355141 3258 L-354483 3258 L-352355 3258 L-350633 3258 L-350439 3257 L-347886 3257 L-347610 3257 L-347421 3257 L-346589 3256 L-345816 3256 L-345118 3256 L-340118 3256 L-339742 3256 L-335489 3256 L-335002 3270 L-334983 3270 L-334904 3270 L-334828 3270 L-334809 3255 L-333996 3255 L-333242 3254 L-332023 3254 L-330591 3254 L-330495 3254 L-330320 3254 L-329966 3254 L-328657 3254 L-326799 3254 L-325097 3253 L-324594 3253 L-324329 3253 L-323936 3253 L-323801 3253 L-322892 3253 L-322515 3252 L-321587 3252 L-321248 3252 L-321208 3252 L-321170 3252 L-319255 3252 L-319081 3252 L-317553 3252 L-317224 3252 L-317108 3252 L-316701 3251 L-316353 3251 L-314709 3251 L-314158 3251 L-313915 3251 L-313374 3251 L-312543 3250 L-312001 3250 L-310466 3250 L-310374 3250 L-310337 3250 L-310201 3249 L-309814 3249 L-308789 3249 L-306913 3249 L-306816 3249 L-306216 3253 L-305849 3258 L-305365 3264 L-305326 3269 L-304553 3269 L-304495 3269 L-304321 3268 L-304127 3268 L-302522 3268 L-302502 3268 L-302347 3268 L-302231 3268 L-301052 3268 L-300897 3269 L-300230 3269 L-297782 3281 L-295267 3293 L-292597 3305 L-284898 3317 L-279230 3317 L-277016 3317 L-276992 3317 L-276018 3320 L-275998 3320 L-275135 3319 L-272394 3319 L-266596 3316 L-266443 3316 L-263657 3316 L-250048 3315 L-249302 3315 L-244892 3315 L-228546 3315 L-228313 3314 L-227776 3314 L-219317 3314 L-210611 3314 L-210399 3314 L-208426 3314 L-205640 3314 L-201153 3314 L-200998 3314 L-200829 3314 L-200688 3314 L-200398 3313 L-200359 3313 L-200088 3313 L-199917 3313 L-199507 3313 L-198386 3312 L-197206 3312 L-195929 3312 L-193065 3312 L-190145 3312 L-188153 3312 L-186605 3311 L-183567 3311 L-174243 3311 L-173719 3311 L-167995 3311 L-166488 3311 L-165673 3311 L-163990 3311 L-163269 3310 L-163100 3310 L-162055 3310 L-159988 3310 L-158626 3310 L-154182 3310 L-154085 3310 L-154047 3309 L-154028 3309 L-153195 3309 L-153117 3309 L-150545 3309 L-147296 3309 L-147141 3308 L-146192 3308 L-144451 3308 L-143736 3309 L-140195 3310 L-133618 3310 L-132201 3312 L-132180 3311 L-131229 3311 L-127755 3311 L-127002 3311 L-126440 3311 L-125658 3311 L-118154 3310 L-116556 3310 L-114982 3310 L-111796 3310 L-107463 3310 L-98893 3310 L-90147 3310 L-87073 3310 L-83807 3309 L-83261 3309 L-76123 3309 L-70456 3309 L-56391 3309 L-50380 3309 L-45674 3309 L-41670 3309 L-36563 3309 L-26849 3308 L-11278 3308 L-8196 3308 L-7893 3242 L-7874 3161 L-7855 3069 L-7835 2966 L-7816 2920 L-7796 2880 L-7778 2844 L-7750 2808 L-7729 2773 L-7701 2736 L-7666 2696 L-7652 2661 L-7639 2632 L-7621 2607 L-7602 2589 L-7582 2571 L-7564 2552 L-7545 2533 L-7525 2515 L-7504 2495 L-7487 2476 L-7468 2457 L-7448 2440 L-7428 2422 L-7409 2402 L-7390 2382 L-7371 2361 L-7351 2341 L-7332 2321 L-7313 2303 L-7292 2285 L-7267 2267 L-7253 2250 L-7235 2233 L-7216 2216 L-7196 2200 L-7177 2182 L-7158 2163 L-7138 2146 L-7118 2130 L-7100 2113 L-7081 2099 L-7061 2084 L-7040 2071 L-7023 2059 L-7004 2048 L-6984 2037 L-6965 2026 L-6945 2016 L-6926 2007 L-6907 1999 L-6887 1991 L-6868 1983 L-6849 1975 L-6822 1966 L-6801 1955 L-6773 1944 L-6739 1931 L-6725 1921 L-6712 1912 L-6693 1904 L-6674 1897 L-6654 1889 L-6636 1880 L-6616 1872 L-6596 1863 L-6576 1856 L-6558 1848 L-6540 1840 L-6519 1832 L-6500 1823 L-6481 1813 L-6462 1802 L-6442 1790 L-6422 1779 L-6404 1767 L-6385 1755 L-6364 1742 L-6339 1728 L-6325 1714 L-6307 1700 L-6288 1687 L-6268 1674 L-6249 1660 L-6230 1645 L-6210 1631 L-6190 1618 L-6171 1604 L-6153 1591 L-6132 1579 L-6112 1566 L-6094 1555 L-6075 1544 L-6055 1533 L-6037 1524 L-6017 1514 L-5998 1504 L-5978 1495 L-5959 1484 L-5939 1475 L-5921 1465 L-5892 1456 L-5872 1447 L-5844 1438 L-5807 1426 L-5792 1416 L-5779 1406 L-5762 1397 L-5745 1390 L-5726 1384 L-5707 1378 L-5688 1373 L-5668 1368 L-5647 1362 L-5630 1356 L-5611 1349 L-5591 1343 L-5571 1336 L-5552 1328 L-5534 1321 L-5514 1312 L-5494 1303 L-5475 1295 L-5456 1286 L-5435 1278 L-5411 1269 L-5396 1261 L-5379 1252 L-5359 1243 L-5340 1235 L-5320 1226 L-5301 1216 L-5281 1207 L-5261 1198 L-5243 1189 L-5224 1181 L-5204 1173 L-5184 1166 L-5166 1159 L-5147 1151 L-5127 1144 L-5108 1137 L-5088 1129 L-5069 1122 L-5049 1115 L-5030 1109 L-5011 1102 L-4992 1095 L-4964 1088 L-4944 1081 L-4916 1073 L-4879 1062 L-4865 1052 L-4852 1043 L-4835 1035 L-4817 1029 L-4797 1024 L-4778 1017 L-4758 1010 L-4739 1002 L-4718 994 L-4699 985 L-4682 977 L-4662 967 L-4641 957 L-4623 947 L-4605 935 L-4585 924 L-4564 914 L-4547 904 L-4528 896 L-4506 890 L-4481 884 L-4467 879 L-4449 874 L-4430 869 L-4411 863 L-4392 857 L-4373 851 L-4353 846 L-4332 842 L-4314 837 L-4295 832 L-4275 826 L-4254 818 L-4237 811 L-4218 806 L-4198 802 L-4179 798 L-4160 795 L-4141 792 L-4121 788 L-4101 784 L-4082 780 L-4063 776 L-4036 772 L-4015 769 L-3987 765 L-3952 760 L-3939 756 L-3925 752 L-3907 749 L-3888 746 L-3868 743 L-3850 740 L-3830 738 L-3810 735 L-3789 732 L-3772 730 L-3754 726 L-3733 723 L-3713 720 L-3695 716 L-3676 713 L-3656 711 L-3636 708 L-3618 705 L-3599 702 L-3578 699 L-3553 697 L-3538 694 L-3521 692 L-3502 689 L-3482 686 L-3463 684 L-3444 680 L-3424 677 L-3403 674 L-3386 671 L-3367 668 L-3346 666 L-3326 663 L-3308 661 L-3290 658 L-3269 656 L-3251 653 L-3231 651 L-3212 649 L-3192 647 L-3173 645 L-3154 643 L-3135 647 L-3106 649 L-3086 653 L-3058 655 L-3021 653 L-3006 650 L-2993 648 L-2976 647 L-2959 646 L-2940 644 L-2921 642 L-2902 640 L-2882 639 L-2861 637 L-2844 636 L-2825 635 L-2805 633 L-2784 631 L-2766 629 L-2748 628 L-2728 626 L-2708 624 L-2689 623 L-2671 621 L-2649 620 L-2624 619 L-2610 617 L-2593 615 L-2573 613 L-2554 611 L-2534 610 L-2515 608 L-2496 606 L-2475 604 L-2457 601 L-2438 599 L-2418 597 L-2397 595 L-2380 593 L-2361 591 L-2341 589 L-2322 587 L-2302 584 L-2284 582 L-2264 580 L-2244 578 L-2225 577 L-2206 575 L-2179 573 L-2158 571 L-2130 569 L-2095 567 L-2082 565 L-2068 563 L-2049 561 L-2031 559 L-2011 558 L-1993 556 L-1973 554 L-1953 552 L-1932 551 L-1915 549 L-1897 547 L-1876 545 L-1856 543 L-1838 540 L-1819 538 L-1799 535 L-1779 532 L-1761 529 L-1742 527 L-1721 525 L-1696 522 L-1681 519 L-1664 517 L-1645 514 L-1625 512 L-1606 509 L-1587 506 L-1567 504 L-1546 501 L-1529 499 L-1510 497 L-1489 494 L-1468 492 L-1451 491 L-1432 489 L-1412 487 L-1393 486 L-1374 484 L-1355 483 L-1335 481 L-1315 480 L-1296 479 L-1278 478 L-1250 476 L-1229 475 L-1202 473 L-1166 470 L-1152 468 L-1139 465 L-1121 463 L-1102 461 L-1083 460 L-1064 458 L-1044 457 L-1025 455 L-1004 453 L-987 452 L-968 449 L-947 448 L-928 446 L-909 443 L-890 441 L-871 439 L-850 437 L-832 435 L-813 434 L-792 432 L-767 430 L-752 429 L-735 427 L-716 425 L-696 423 L-677 421 L-658 419 L-638 416 L-617 413 L-600 411 L-581 408 L-560 406 L-540 404 L-523 403 L-504 401 L-484 400 L-465 399 L-445 398 L-427 396 L-407 395 L-387 394 L-368 393 L-349 391 L-322 390 L-301 389 L-273 388 L-239 386 L-225 385 L-211 384 L-193 383 L-174 382 L-154 381 L-136 380 L-116 379 L-96 378 L-76 377 L-58 376 L-40 375 L-19 374 L0 373 L18 372 L37 371 L57 370 L77 369 L95 369 L114 368 L135 367 L160 366 L174 365 L192 364 L211 363 L231 362 L250 361 L269 360 L289 359 L309 357 L327 355 L346 353 L367 351 L387 349 L405 348 L424 347 L444 345 L462 344 L482 342 L501 341 L521 340 L540 339 L560 338 L578 337 L607 336 L655 335 L692 334 L707 333 L719 332 L736 331 L754 330 L773 330 L792 329 L811 328 L831 328 L852 327 L869 326 L888 326 L908 325 L928 324 L947 323 L965 322 L985 321 L1005 321 L1024 319 L1043 318 L1064 317 L1088 315 L1103 313 L1120 312 L1140 310 L1159 309 L1179 308 L1197 306 L1218 305 L1238 303 L1256 302 L1275 300 L1295 299 L1315 298 L1333 297 L1352 296 L1372 295 L1391 294 L1411 293 L1430 292 L1450 291 L1469 290 L1488 289 L1507 288 L1535 287 L1556 286 L1584 284 L1620 282 L1635 279 L1647 277 L1665 276 L1682 274 L1703 273 L1721 272 L1741 272 L1760 271 L1781 270 L1798 269 L1817 268 L1837 266 L1858 265 L1876 263 L1895 261 L1914 258 L1935 257 L1953 255 L1971 253 L1993 252 L2018 250 L2033 249 L2050 247 L2069 246 L2089 245 L2108 244 L2126 242 L2146 240 L2168 238 L2185 237 L2204 236 L2224 234 L2245 233 L2262 232 L2281 231 L2301 230 L2320 229 L2339 227 L2358 226 L2378 225 L2398 224 L2417 223 L2436 222 L2464 997 L2484 996 L2512 995 L2548 993 L2562 215 L2575 214 L2593 213 L2611 212 L2631 211 L2649 210 L2669 209 L2689 208 L2710 207 L2727 205 L2745 203 L2766 202 L2786 200 L2804 198 L2823 196 L2843 194 L2864 192 L2881 191 L2900 190 L2921 188 L2946 187 L2961 185 L2991 183 L3031 180 L3054 178 L3083 175 L3100 173 L3113 171 L3133 170 L3153 169 L3174 168 L3190 167 L3209 165 L3230 164 L3248 164 L3268 163 L3287 162 L3307 162 L3327 161 L3345 160 L3364 159 L3392 158 L3413 157 L3441 156 L3476 154 L3489 153 L3521 152 L3540 151 L3559 150 L3578 149 L3597 149 L3617 148 L3638 147 L3655 146 L3674 144 L3694 142 L3715 138 L3732 134 L3752 131 L3771 128 L3792 126 L3810 123 L3829 122 L3850 121 L3875 119 L3890 118 L3907 116 L3926 115 L3946 113 L3965 112 L3984 111 L4004 109 L4025 107 L4042 106 L4061 104 L4081 103 L4102 102 L4119 101 L4138 100 L4158 99 L4177 98 L4197 97 L4216 96 L4235 95 L4255 94 L4274 93 L4293 92 L4321 91 L4341 90 L4411 88 L4439 86 L4454 83 L4468 81 L4488 80 L4506 78 L4525 77 L4546 76 L4567 75 L4584 73 L4602 73 L4623 72 L4643 71 L4661 70 L4680 69 L4700 67 L4721 66 L4738 64 L4757 63 L4778 62 L4803 62 L4818 60 L4836 59 L4854 58 L4874 56 L4893 55 L4913 53 L4932 52 L4953 52 L4970 51 L4990 50 L5010 49 L5031 48 L5048 47 L5106 45 L5125 44 L5144 44 L5164 43 L5184 42 L5203 41 L5221 40 L5249 40 L5270 39 L5298 39 L5334 38 L5349 37 L5361 36 L5379 36 L5397 35 L5417 34 L5435 34 L5455 34 L5474 33 L5496 33 L5512 32 L5531 32 L5552 31 L5572 31 L5590 30 L5609 29 L5629 28 L5649 28 L5667 27 L5686 26 L5707 25 L5732 25 L5747 24 L5764 23 L5783 23 L5803 22 L5822 21 L5841 20 L5861 19 L5882 18 L5899 17 L5918 16 L5939 15 L5959 15 L5976 14 L5995 14 L6015 13 L6034 13 L6054 13 L6073 12 L6092 12 L6113 11 L6131 11 L6150 11 L6178 10 L6198 10 L6226 9 L6261 8 L6275 8 L6289 7 L6307 7 L6325 6 L6345 5 L6363 5 L6403 4 L6423 4 L6441 4 L6459 3 L6480 2 L6500 1" />
</svg>
