<svg xmlns="http://www.w3.org/2000/svg" version="1.1" viewBox="0 0 6500 1000">
	<path fill="none" stroke="gold" stroke-width="125" stroke-linecap="round" stroke-linejoin="round" d="M0 47613  L-232089 47613 L-229485 47383 L-227817 47154 L-209488 46694 L-209317 46234 L-202160 45774 L-202126 45774 L-188696 45544 L-185774 45774 L-172433 45085 L-168264 44165 L-167104 43016 L-166485 41866 L-164473 41177 L-160701 40717 L-160101 40257 L-159772 39797 L-159559 39337 L-159017 38878 L-157779 37039 L-156601 35200 L-153736 33360 L-153214 31521 L-148358 31062 L-145421 30602 L-145378 30142 L-145070 29682 L-144818 29222 L-142223 28763 L-137968 28763 L-137950 28763 L-136713 28763 L-134835 28763 L-132882 28303 L-131934 27843 L-131663 27383 L-131353 27154 L-131255 26924 L-130425 26924 L-128394 27154 L-128104 25085 L-125957 24165 L-125802 22786 L-122145 21406 L-121894 22096 L-121796 21866 L-121279 22556 L-119127 23705 L-118199 24855 L-116673 26004 L-115433 26004 L-113887 25774 L-110925 25314 L-109803 24855 L-109494 24395 L-108283 24165 L-105276 26694 L-105256 26464 L-104909 26234 L-104696 26004 L-104570 22786 L-104328 22326 L-104290 21866 L-104270 21406 L-104251 20947 L-104192 20487 L-104134 20027 L-104116 19567 L-103673 19108 L-102433 18648 L-100887 18188 L-97500 17728 L-91773 17498 L-91572 17268 L-89936 17039 L-88214 16809 L-86782 16579 L-86550 16349 L-85834 16119 L-79702 15889 L-79334 15429 L-79180 14970 L-78602 14510 L-78309 14050 L-77342 13590 L-77032 13131 L-76433 12671 L-74827 12671 L-74092 12671 L-73782 12901 L-73014 12901 L-70978 12441 L-70552 11981 L-69740 11751 L-62311 11291 L-61788 10832 L-61615 10372 L-60879 9912 L-59312 9452 L-58906 9222 L-56681 8763 L-55733 8533 L-55308 8303 L-54978 8303 L-53934 8073 L-51826 7613 L-51574 7154 L-50955 6694 L-50142 6464 L-48034 6004 L-47986 5544 L-46058 5085 L-45732 4625 L-45597 4165 L-45094 3935 L-43681 3475 L-43178 2556 L-42656 1866 L-39097 947 L-38362 27 L-35937 27 L-34647 -432 L-34240 -662 L-31088 -662 L-30933 -662 L-30913 -432 L-30546 -432 L-29288 -202 L-28573 27 L-27683 27 L-27276 27 L-26348 27 L-25239 -202 L-24936 717 L-18687 1177 L-17740 1636 L-16113 2096 L-15612 2326 L-11936 2556 L-11104 2786 L-7150 3016 L-5739 2326 L-3249 1866 L-2573 1406 L-2534 1177 L-1663 1177 L1547 947 L4410 717 L5378 487 L6500 27" />
</svg>
