<svg xmlns="http://www.w3.org/2000/svg" version="1.1" viewBox="0 0 6500 1000">
	<path fill="none" stroke="gold" stroke-width="125" stroke-linecap="round" stroke-linejoin="round" d="M0 3784  L-724531 3784 L-721927 3784 L-720259 3784 L-701930 3783 L-701760 3783 L-694602 3783 L-694569 3783 L-681138 3783 L-678216 3783 L-664875 3782 L-660706 3781 L-659546 3781 L-658927 3780 L-656915 3779 L-653143 3779 L-652543 3779 L-652215 3778 L-652002 3778 L-651460 3777 L-650222 3776 L-649043 3775 L-646178 3773 L-645656 3772 L-640801 3772 L-637863 3771 L-637821 3771 L-637512 3771 L-637260 3770 L-634665 3770 L-630410 3770 L-630392 3770 L-629155 3770 L-627278 3770 L-625324 3770 L-624376 3769 L-624105 3769 L-623796 3769 L-623697 3769 L-622867 3769 L-620836 3769 L-620546 3767 L-618399 3766 L-618244 3765 L-614588 3764 L-614337 3765 L-614238 3765 L-613721 3765 L-611570 3766 L-610641 3767 L-609115 3768 L-607875 3768 L-606329 3768 L-603367 3767 L-602245 3767 L-601936 3767 L-600725 3766 L-597718 3768 L-597699 3768 L-597351 3768 L-597138 3768 L-597012 3765 L-596770 3765 L-596732 3765 L-596713 3764 L-596693 3764 L-596635 3764 L-596576 3763 L-596558 3763 L-596115 3763 L-594875 3762 L-593330 3762 L-589942 3762 L-584216 3761 L-584014 3761 L-582378 3761 L-580656 3761 L-579224 3761 L-578992 3761 L-578277 3760 L-572144 3760 L-571777 3760 L-571622 3760 L-571044 3759 L-570751 3759 L-569784 3758 L-569474 3758 L-568875 3758 L-567269 3758 L-566534 3758 L-566224 3758 L-565456 3758 L-563420 3758 L-562994 3757 L-562182 3757 L-554753 3757 L-554230 3756 L-554057 3756 L-553322 3756 L-551754 3755 L-551348 3755 L-549123 3755 L-548175 3755 L-547751 3754 L-547420 3754 L-546376 3754 L-544268 3754 L-544016 3754 L-543397 3753 L-542584 3753 L-540477 3753 L-540428 3752 L-538500 3752 L-538174 3752 L-538039 3751 L-537536 3751 L-536123 3751 L-535620 3750 L-535099 3750 L-531539 3749 L-530804 3748 L-528379 3748 L-527090 3748 L-526683 3748 L-523530 3748 L-523375 3748 L-523355 3748 L-522989 3748 L-521730 3748 L-521015 3748 L-520125 3748 L-519718 3748 L-518790 3748 L-517681 3748 L-517378 3749 L-511129 3749 L-510182 3749 L-508556 3750 L-508054 3750 L-504378 3750 L-503546 3750 L-499593 3751 L-498181 3750 L-495692 3750 L-495015 3749 L-494976 3749 L-494106 3749 L-490894 3749 L-488031 3749 L-487063 3749 L-485942 3748 L-485923 3748 L-484298 3748 L-483834 3747 L-483742 3747 L-477373 3747 L-476424 3747 L-473967 3746 L-473095 3746 L-471859 3746 L-469857 3746 L-469460 3745 L-468023 3745 L-465997 3745 L-465784 3744 L-464604 3744 L-463096 3744 L-463075 3744 L-461063 3744 L-460194 3743 L-459323 3743 L-458738 3743 L-458201 3743 L-457543 3742 L-456305 3742 L-455744 3742 L-454563 3742 L-453326 3741 L-453287 3741 L-452900 3741 L-452359 3741 L-451585 3740 L-450463 3740 L-448373 3740 L-448040 3740 L-447754 3739 L-446826 3739 L-446342 3739 L-445607 3739 L-441976 3738 L-440848 3738 L-440693 3738 L-439667 3738 L-435953 3738 L-434735 3737 L-432917 3737 L-430131 3737 L-429570 3736 L-425682 3736 L-423205 3736 L-421870 3736 L-421367 3736 L-420884 3736 L-418195 3736 L-414423 3736 L-411966 3736 L-410786 3736 L-410147 3736 L-407787 3735 L-407710 3735 L-406662 3735 L-406569 3735 L-406066 3735 L-405620 3735 L-405563 3735 L-405349 3735 L-402389 3734 L-399682 3734 L-399527 3734 L-396006 3734 L-395483 3733 L-394516 3733 L-394167 3733 L-393123 3733 L-392195 3732 L-391769 3732 L-390260 3732 L-389293 3732 L-389274 3732 L-387378 3719 L-387262 3706 L-387214 3693 L-387190 3680 L-384186 3680 L-382155 3680 L-380394 3680 L-380027 3680 L-379582 3679 L-379215 3679 L-378801 3679 L-376816 3679 L-376603 3679 L-376448 3678 L-374842 3678 L-373721 3678 L-372772 3678 L-371515 3678 L-369870 3678 L-368691 3677 L-362101 3677 L-362055 3677 L-361649 3677 L-360604 3676 L-360468 3676 L-358786 3676 L-358766 3676 L-357429 3675 L-356193 3675 L-356039 3675 L-355665 3675 L-355459 3675 L-355149 3674 L-354375 3674 L-352054 3674 L-351396 3674 L-349268 3674 L-347546 3673 L-347352 3673 L-344799 3673 L-344523 3673 L-344335 3672 L-343502 3672 L-342730 3672 L-342032 3672 L-337031 3672 L-336655 3671 L-332402 3671 L-331915 3688 L-331896 3688 L-331817 3688 L-331741 3688 L-331722 3670 L-330909 3670 L-330155 3670 L-328936 3670 L-327504 3670 L-327408 3669 L-327233 3669 L-326879 3669 L-325570 3669 L-323712 3669 L-322010 3668 L-321507 3668 L-321242 3668 L-320849 3668 L-320715 3668 L-319805 3667 L-319428 3667 L-318500 3667 L-318161 3667 L-318121 3667 L-318084 3667 L-316168 3667 L-315994 3667 L-314466 3667 L-314137 3667 L-314021 3666 L-313614 3666 L-313266 3666 L-311622 3666 L-311071 3665 L-310828 3665 L-310287 3665 L-309456 3665 L-308914 3665 L-307379 3664 L-307287 3664 L-307250 3664 L-307114 3664 L-306727 3664 L-305702 3663 L-303826 3663 L-303730 3663 L-303129 3669 L-302762 3674 L-302278 3680 L-302240 3686 L-301466 3687 L-301408 3687 L-301234 3686 L-301040 3686 L-299435 3686 L-299415 3685 L-299260 3686 L-299144 3686 L-297965 3686 L-297810 3687 L-297143 3687 L-294695 3701 L-292180 3715 L-289510 3729 L-281811 3743 L-276143 3743 L-273929 3743 L-273905 3743 L-272931 3747 L-272912 3747 L-272048 3746 L-269308 3746 L-263509 3743 L-263356 3742 L-260570 3742 L-246961 3742 L-246216 3742 L-241805 3741 L-225459 3741 L-225226 3741 L-224689 3740 L-216230 3740 L-207524 3740 L-207312 3740 L-205340 3740 L-202553 3740 L-198066 3740 L-197911 3740 L-197742 3740 L-197602 3740 L-197311 3739 L-197272 3739 L-197001 3739 L-196830 3739 L-196420 3739 L-195299 3738 L-194119 3738 L-192842 3738 L-189978 3738 L-187058 3738 L-185066 3738 L-183518 3737 L-180480 3737 L-171156 3737 L-170632 3737 L-164908 3737 L-163401 3737 L-162586 3737 L-160903 3736 L-160182 3736 L-160013 3736 L-158968 3736 L-156901 3735 L-155539 3735 L-151095 3735 L-150998 3735 L-150960 3735 L-150941 3735 L-150108 3734 L-150030 3734 L-147458 3734 L-144209 3734 L-144054 3734 L-143106 3733 L-141364 3733 L-140649 3734 L-137108 3735 L-130531 3736 L-129114 3737 L-129093 3737 L-128143 3737 L-124668 3737 L-123915 3737 L-123353 3736 L-122571 3736 L-115067 3736 L-113469 3736 L-111895 3736 L-108709 3735 L-104376 3735 L-95807 3735 L-87060 3735 L-83986 3735 L-80720 3735 L-80174 3734 L-73037 3734 L-67369 3734 L-53304 3734 L-47293 3734 L-42587 3734 L-38584 3734 L-33476 3734 L-23762 3734 L-8191 3733 L-5109 3733 L-4807 3655 L-4787 3559 L-4768 3450 L-4748 3329 L-4729 3273 L-4709 3226 L-4691 3183 L-4663 3141 L-4642 3100 L-4614 3056 L-4579 3008 L-4566 2967 L-4552 2932 L-4534 2903 L-4515 2882 L-4495 2860 L-4477 2838 L-4458 2816 L-4438 2794 L-4417 2770 L-4400 2748 L-4381 2726 L-4361 2705 L-4341 2683 L-4322 2660 L-4304 2637 L-4284 2612 L-4264 2588 L-4245 2565 L-4226 2543 L-4205 2522 L-4180 2500 L-4166 2481 L-4149 2461 L-4129 2440 L-4110 2421 L-4090 2400 L-4072 2378 L-4052 2357 L-4031 2338 L-4013 2319 L-3994 2301 L-3974 2284 L-3953 2268 L-3936 2255 L-3917 2241 L-3897 2228 L-3878 2216 L-3858 2203 L-3840 2192 L-3820 2183 L-3800 2174 L-3781 2164 L-3762 2155 L-3735 2144 L-3714 2131 L-3686 2118 L-3652 2103 L-3638 2091 L-3625 2080 L-3606 2070 L-3587 2062 L-3567 2053 L-3549 2043 L-3529 2033 L-3509 2022 L-3489 2013 L-3471 2004 L-3453 1995 L-3432 1986 L-3413 1975 L-3394 1963 L-3375 1949 L-3355 1936 L-3336 1922 L-3317 1909 L-3298 1895 L-3277 1879 L-3252 1862 L-3238 1845 L-3221 1829 L-3201 1814 L-3182 1798 L-3162 1782 L-3143 1764 L-3123 1748 L-3103 1731 L-3085 1716 L-3066 1700 L-3046 1686 L-3025 1671 L-3007 1657 L-2988 1644 L-2968 1631 L-2950 1620 L-2930 1608 L-2911 1597 L-2891 1586 L-2872 1574 L-2852 1562 L-2834 1551 L-2805 1540 L-2785 1529 L-2757 1518 L-2720 1505 L-2705 1493 L-2693 1481 L-2675 1470 L-2658 1462 L-2639 1455 L-2620 1448 L-2601 1442 L-2581 1436 L-2560 1429 L-2543 1422 L-2524 1414 L-2504 1406 L-2484 1398 L-2466 1389 L-2447 1380 L-2427 1370 L-2407 1359 L-2388 1349 L-2369 1339 L-2348 1329 L-2324 1319 L-2309 1309 L-2292 1299 L-2272 1288 L-2253 1278 L-2233 1267 L-2215 1256 L-2195 1245 L-2174 1235 L-2156 1224 L-2137 1215 L-2117 1205 L-2097 1196 L-2079 1188 L-2060 1179 L-2040 1170 L-2021 1162 L-2001 1153 L-1982 1145 L-1963 1137 L-1943 1129 L-1924 1121 L-1905 1113 L-1877 1104 L-1857 1096 L-1829 1087 L-1793 1074 L-1778 1062 L-1765 1051 L-1748 1041 L-1730 1035 L-1710 1028 L-1691 1020 L-1672 1012 L-1652 1003 L-1631 993 L-1612 983 L-1595 972 L-1575 961 L-1555 949 L-1537 937 L-1518 924 L-1498 911 L-1477 898 L-1460 887 L-1441 877 L-1419 870 L-1394 863 L-1380 857 L-1362 851 L-1343 844 L-1324 838 L-1305 831 L-1286 824 L-1266 818 L-1245 812 L-1228 807 L-1208 801 L-1188 794 L-1167 785 L-1150 777 L-1131 770 L-1111 765 L-1092 761 L-1073 757 L-1054 753 L-1034 749 L-1014 744 L-995 739 L-976 735 L-949 730 L-928 726 L-900 722 L-865 716 L-852 711 L-839 707 L-820 703 L-801 700 L-781 696 L-763 693 L-743 689 L-724 686 L-703 683 L-686 680 L-667 676 L-646 672 L-626 668 L-608 664 L-589 660 L-569 657 L-549 654 L-531 651 L-512 647 L-491 644 L-466 641 L-451 638 L-434 635 L-415 632 L-396 629 L-376 625 L-357 622 L-337 618 L-316 614 L-299 611 L-280 608 L-260 604 L-239 601 L-222 598 L-203 595 L-183 592 L-164 589 L-144 587 L-125 584 L-105 582 L-86 580 L-67 578 L-48 582 L-19 585 L0 589 L28 592 L65 589 L80 586 L93 584 L110 582 L126 580 L146 578 L165 576 L184 574 L204 572 L225 571 L242 569 L261 567 L281 565 L301 563 L319 561 L338 559 L358 557 L378 555 L396 553 L415 551 L437 550 L461 548 L476 546 L493 544 L513 542 L532 540 L551 538 L571 536 L590 534 L611 531 L629 528 L648 525 L668 523 L689 520 L706 518 L725 515 L745 513 L764 511 L784 508 L802 505 L822 503 L842 500 L861 499 L880 497 L907 495 L928 492 L956 490 L991 487 L1004 485 L1018 482 L1037 480 L1055 478 L1075 476 L1093 474 L1113 472 L1133 470 L1154 468 L1171 466 L1189 464 L1210 461 L1230 459 L1248 456 L1267 453 L1287 449 L1307 446 L1325 443 L1344 440 L1365 437 L1390 434 L1405 431 L1422 428 L1441 425 L1461 422 L1480 419 L1499 415 L1519 413 L1540 410 L1557 407 L1576 404 L1597 401 L1618 399 L1635 397 L1654 395 L1674 393 L1692 391 L1712 389 L1731 387 L1751 386 L1771 384 L1790 383 L1808 381 L1836 380 L1857 378 L1884 376 L1920 373 L1934 370 L1947 367 L1965 364 L1984 362 L2003 360 L2022 358 L2041 357 L2061 355 L2082 353 L2099 351 L2118 348 L2138 346 L2158 344 L2177 341 L2195 339 L2215 336 L2236 334 L2254 331 L2273 329 L2294 328 L2319 326 L2334 324 L2351 322 L2370 320 L2390 317 L2409 315 L2428 312 L2448 309 L2469 305 L2486 302 L2505 299 L2525 297 L2546 295 L2563 293 L2582 291 L2602 290 L2621 288 L2641 287 L2659 285 L2679 284 L2699 282 L2718 281 L2737 279 L2764 278 L2785 276 L2813 275 L2847 273 L2861 272 L2874 271 L2893 270 L2912 268 L2932 267 L2950 266 L2970 265 L2990 264 L3010 263 L3027 262 L3046 261 L3067 259 L3087 258 L3105 257 L3124 255 L3144 254 L3164 253 L3182 253 L3201 252 L3222 251 L3247 250 L3261 249 L3279 247 L3298 246 L3318 245 L3337 244 L3356 243 L3376 241 L3396 239 L3414 237 L3433 234 L3454 232 L3474 230 L3492 228 L3511 226 L3531 225 L3549 223 L3569 221 L3588 220 L3608 218 L3627 217 L3647 216 L3665 215 L3694 214 L3742 213 L3779 211 L3793 210 L3806 209 L3823 208 L3841 207 L3860 207 L3879 206 L3898 205 L3918 204 L3939 203 L3956 202 L3975 202 L3995 201 L4015 200 L4033 199 L4052 198 L4072 197 L4092 195 L4111 194 L4130 193 L4151 191 L4175 189 L4190 187 L4207 185 L4227 184 L4246 182 L4266 180 L4284 179 L4304 177 L4325 175 L4343 174 L4362 172 L4382 170 L4402 169 L4420 168 L4439 167 L4459 166 L4478 165 L4498 163 L4516 162 L4536 161 L4556 159 L4575 158 L4594 157 L4622 156 L4642 154 L4670 152 L4707 150 L4722 147 L4734 144 L4752 142 L4769 141 L4789 140 L4808 139 L4827 138 L4847 137 L4868 136 L4885 134 L4903 133 L4924 131 L4945 129 L4962 127 L4982 125 L5001 122 L5022 120 L5040 118 L5058 116 L5080 114 L5105 112 L5120 110 L5137 109 L5156 107 L5176 106 L5194 104 L5213 102 L5233 100 L5255 98 L5272 97 L5291 95 L5311 94 L5332 92 L5349 91 L5368 89 L5388 88 L5407 87 L5426 85 L5445 84 L5465 83 L5485 81 L5504 80 L5523 79 L5551 997 L5571 995 L5599 994 L5635 992 L5649 71 L5662 69 L5680 68 L5698 67 L5718 66 L5736 65 L5756 64 L5775 62 L5797 61 L5813 59 L5832 57 L5853 55 L5873 53 L5891 50 L5910 48 L5930 45 L5951 43 L5968 42 L5987 40 L6008 39 L6033 37 L6048 35 L6078 32 L6118 29 L6141 27 L6170 24 L6186 21 L6200 19 L6220 17 L6240 16 L6261 15 L6277 13 L6296 12 L6316 11 L6335 10 L6355 9 L6374 8 L6394 7 L6414 6 L6432 5 L6451 4 L6479 3 L6500 1" />
</svg>
