<svg xmlns="http://www.w3.org/2000/svg" version="1.1" viewBox="0 0 6500 1000">
	<path fill="none" stroke="gold" stroke-width="125" stroke-linecap="round" stroke-linejoin="round" d="M0 1016  L-717482 1016 L-714878 1016 L-713210 1016 L-694880 1016 L-694710 1016 L-687552 1016 L-687519 1016 L-674088 1016 L-671166 1016 L-657825 1015 L-653656 1015 L-652496 1015 L-651877 1015 L-649865 1015 L-646094 1014 L-645493 1014 L-645165 1014 L-644952 1014 L-644410 1014 L-643172 1014 L-641993 1013 L-639129 1013 L-638606 1012 L-633751 1012 L-630814 1012 L-630771 1012 L-630462 1012 L-630211 1012 L-627616 1011 L-623360 1011 L-623342 1011 L-622105 1011 L-620228 1011 L-618275 1011 L-617327 1011 L-617056 1011 L-616746 1011 L-616648 1011 L-615817 1011 L-613787 1011 L-613496 1011 L-611350 1010 L-611194 1010 L-607538 1010 L-607287 1010 L-607188 1010 L-606671 1010 L-604520 1010 L-603591 1011 L-602065 1011 L-600826 1011 L-599279 1011 L-596317 1011 L-595196 1011 L-594886 1010 L-593675 1010 L-590668 1011 L-590649 1011 L-590302 1011 L-590088 1011 L-589962 1010 L-589721 1010 L-589683 1010 L-589663 1010 L-589644 1010 L-589585 1009 L-589526 1009 L-589508 1009 L-589065 1009 L-587826 1009 L-586280 1009 L-582892 1009 L-577166 1009 L-576964 1009 L-575329 1009 L-573607 1009 L-572175 1009 L-571942 1008 L-571227 1008 L-565095 1008 L-564727 1008 L-564573 1008 L-563994 1008 L-563702 1008 L-562734 1008 L-562425 1008 L-561826 1008 L-560219 1008 L-559484 1008 L-559174 1008 L-558406 1008 L-556370 1008 L-555945 1007 L-555132 1007 L-547704 1007 L-547181 1007 L-547007 1007 L-546272 1007 L-544704 1007 L-544299 1007 L-542074 1007 L-541126 1007 L-540701 1007 L-540370 1007 L-539327 1006 L-537219 1006 L-536966 1006 L-536348 1006 L-535535 1006 L-533427 1006 L-533378 1006 L-531450 1006 L-531125 1006 L-530989 1005 L-530486 1005 L-529074 1005 L-528571 1005 L-528049 1005 L-524489 1005 L-523754 1004 L-521329 1004 L-520040 1004 L-519633 1004 L-516480 1004 L-516326 1004 L-516305 1004 L-515939 1004 L-514681 1004 L-513966 1004 L-513076 1004 L-512669 1004 L-511740 1004 L-510632 1004 L-510328 1005 L-504079 1005 L-503132 1005 L-501506 1005 L-501004 1005 L-497328 1005 L-496496 1005 L-492543 1005 L-491131 1005 L-488642 1005 L-487965 1005 L-487927 1005 L-487056 1005 L-483845 1005 L-480982 1005 L-480014 1005 L-478892 1004 L-478873 1004 L-477248 1004 L-476784 1004 L-476692 1004 L-470323 1004 L-469374 1004 L-466917 1004 L-466045 1004 L-464809 1004 L-462808 1004 L-462410 1004 L-460974 1003 L-458948 1003 L-458734 1003 L-457554 1003 L-456046 1003 L-456026 1003 L-454013 1003 L-453144 1003 L-452273 1003 L-451688 1003 L-451151 1003 L-450493 1003 L-449255 1002 L-448695 1002 L-447514 1002 L-446276 1002 L-446237 1002 L-445851 1002 L-445309 1002 L-444535 1002 L-443413 1002 L-441324 1002 L-440990 1002 L-440705 1002 L-439776 1002 L-439293 1001 L-438557 1001 L-434926 1001 L-433799 1001 L-433644 1001 L-432618 1001 L-428903 1001 L-427686 1001 L-425867 1001 L-423082 1001 L-422520 1001 L-418632 1001 L-416156 1001 L-414821 1001 L-414317 1000 L-413834 1000 L-411145 1000 L-407373 1000 L-404916 1000 L-403736 1000 L-403097 1000 L-400737 1000 L-400660 1000 L-399613 1000 L-399519 1000 L-399016 1000 L-398571 1000 L-398513 1000 L-398299 1000 L-395340 1000 L-392632 1000 L-392477 1000 L-388957 1000 L-388434 1000 L-387466 1000 L-387117 999 L-386074 999 L-385145 999 L-384719 999 L-383210 999 L-382243 999 L-382224 999 L-380329 995 L-380213 991 L-380165 987 L-380140 982 L-377136 982 L-375105 982 L-373345 982 L-372977 982 L-372532 982 L-372165 982 L-371751 982 L-369766 982 L-369553 982 L-369398 982 L-367793 982 L-366671 982 L-365723 982 L-364465 982 L-362821 982 L-361641 981 L-355052 981 L-355005 981 L-354599 981 L-353554 981 L-353419 981 L-351736 981 L-351716 981 L-350380 981 L-349143 981 L-348989 981 L-348615 981 L-348409 981 L-348099 981 L-347326 980 L-345004 980 L-344346 980 L-342219 980 L-340496 980 L-340303 980 L-337749 980 L-337473 980 L-337285 980 L-336452 980 L-335680 980 L-334982 980 L-329981 980 L-329605 979 L-325352 979 L-324865 985 L-324846 985 L-324767 985 L-324692 985 L-324672 979 L-323859 979 L-323105 979 L-321886 979 L-320454 979 L-320358 979 L-320184 979 L-319829 979 L-318520 979 L-316663 979 L-314960 979 L-314458 978 L-314192 978 L-313799 978 L-313665 978 L-312755 978 L-312379 978 L-311450 978 L-311111 978 L-311072 978 L-311034 978 L-309118 978 L-308945 978 L-307416 978 L-307088 978 L-306972 978 L-306564 978 L-306216 978 L-304573 978 L-304022 978 L-303779 978 L-303237 977 L-302406 977 L-301864 977 L-300330 977 L-300237 977 L-300201 977 L-300065 977 L-299677 977 L-298653 977 L-296776 977 L-296680 977 L-296080 979 L-295712 981 L-295228 982 L-295190 984 L-294416 984 L-294359 984 L-294184 984 L-293990 984 L-292385 984 L-292365 984 L-292210 984 L-292095 984 L-290915 984 L-290760 984 L-290093 984 L-287645 989 L-285130 994 L-282460 998 L-274761 1003 L-269093 1003 L-266879 1003 L-266856 1003 L-265882 1004 L-265862 1004 L-264998 1004 L-262258 1004 L-256459 1003 L-256306 1003 L-253520 1002 L-239912 1002 L-239166 1002 L-234755 1002 L-218409 1002 L-218177 1002 L-217640 1002 L-209180 1002 L-200475 1002 L-200262 1002 L-198290 1002 L-195504 1002 L-191016 1002 L-190861 1002 L-190692 1002 L-190552 1002 L-190261 1002 L-190222 1002 L-189952 1001 L-189780 1001 L-189370 1001 L-188249 1001 L-187069 1001 L-185792 1001 L-182928 1001 L-180008 1001 L-178016 1001 L-176468 1001 L-173430 1001 L-164106 1001 L-163582 1001 L-157858 1001 L-156351 1001 L-155537 1001 L-153853 1001 L-153132 1000 L-152964 1000 L-151918 1000 L-149851 1000 L-148489 1000 L-144046 1000 L-143949 1000 L-143910 1000 L-143891 1000 L-143058 1000 L-142981 1000 L-140408 1000 L-137159 1000 L-137004 1000 L-136056 1000 L-134315 1000 L-133599 1000 L-130059 1000 L-123481 1000 L-122064 1001 L-122043 1001 L-121093 1001 L-117618 1001 L-116865 1001 L-116303 1001 L-115521 1001 L-108017 1000 L-106419 1000 L-104845 1000 L-101660 1000 L-97326 1000 L-88757 1000 L-80010 1000 L-76937 1000 L-73671 1000 L-73124 1000 L-65987 1000 L-60319 1000 L-46255 1000 L-40243 1000 L-35537 1000 L-31534 1000 L-26426 1000 L-16712 1000 L-1142 1000 L1940 999 L2242 974 L2262 943 L2281 908 L2300 868 L2320 850 L2339 835 L2358 821 L2386 807 L2406 794 L2434 780 L2470 764 L2483 751 L2496 740 L2515 730 L2533 723 L2553 716 L2571 709 L2591 702 L2611 695 L2632 687 L2649 680 L2667 673 L2688 666 L2708 659 L2726 651 L2745 644 L2765 636 L2785 628 L2803 620 L2822 613 L2844 606 L2868 599 L2883 593 L2900 586 L2920 580 L2939 574 L2958 567 L2977 560 L2997 553 L3018 547 L3036 540 L3054 535 L3075 529 L3096 524 L3113 520 L3132 515 L3152 511 L3171 507 L3190 503 L3209 499 L3229 496 L3249 493 L3268 490 L3286 487 L3314 484 L3335 480 L3363 475 L3397 470 L3411 466 L3424 463 L3443 460 L3462 457 L3481 454 L3500 451 L3519 448 L3539 444 L3560 441 L3577 438 L3596 435 L3616 432 L3636 429 L3655 425 L3673 421 L3693 416 L3713 412 L3732 407 L3751 403 L3772 398 L3796 392 L3811 387 L3828 382 L3848 376 L3867 371 L3887 366 L3906 360 L3926 355 L3946 350 L3964 345 L3983 340 L4003 335 L4024 330 L4041 326 L4060 321 L4080 317 L4099 314 L4119 310 L4138 306 L4158 302 L4177 299 L4196 295 L4215 291 L4244 287 L4264 284 L4291 281 L4329 276 L4344 272 L4356 268 L4373 265 L4390 262 L4410 260 L4429 258 L4448 256 L4468 254 L4488 252 L4506 249 L4525 247 L4545 244 L4565 241 L4583 239 L4602 236 L4622 232 L4642 229 L4661 226 L4679 222 L4700 219 L4725 216 L4739 213 L4757 209 L4777 206 L4796 203 L4815 199 L4834 195 L4854 192 L4874 189 L4893 185 L4912 182 L4932 179 L4952 176 L4970 173 L4989 170 L5009 168 L5027 165 L5047 162 L5066 159 L5086 157 L5105 154 L5125 152 L5144 149 L5172 146 L5192 144 L5220 141 L5256 136 L5270 132 L5283 129 L5301 126 L5319 124 L5339 121 L5357 119 L5377 116 L5397 113 L5418 110 L5436 107 L5453 103 L5474 100 L5494 96 L5512 92 L5531 88 L5551 83 L5571 79 L5589 76 L5608 72 L5629 70 L5654 68 L5669 66 L5686 64 L5705 62 L5725 60 L5744 57 L5763 55 L5783 53 L5804 51 L5821 50 L5840 48 L5861 45 L5882 43 L5898 40 L5918 38 L5938 36 L5956 35 L5976 34 L5995 32 L6015 31 L6034 29 L6053 28 L6072 26 L6100 25 L6121 23 L6148 22 L6183 20 L6197 18 L6210 17 L6229 16 L6247 15 L6267 14 L6286 13 L6305 11 L6325 11 L6346 9 L6363 8 L6382 7 L6403 6 L6422 5 L6441 3 L6459 2 L6479 1 L6500 0" />
</svg>
