<svg xmlns="http://www.w3.org/2000/svg" version="1.1" viewBox="0 0 6500 1000">
	<path fill="none" stroke="gold" stroke-width="125" stroke-linecap="round" stroke-linejoin="round" d="M0 113069  L-296664 113069 L-294060 112662 L-292392 112256 L-274062 111443 L-273892 110630 L-266734 109817 L-266701 109817 L-253270 109410 L-250348 109817 L-237008 108597 L-232839 106971 L-231679 104939 L-231059 102906 L-229048 101686 L-225276 100873 L-224676 100060 L-224347 99247 L-224134 98434 L-223592 97621 L-222354 94369 L-221175 91117 L-218311 87865 L-217789 84613 L-212933 83800 L-209996 82987 L-209953 82174 L-209645 81361 L-209393 80548 L-206798 79735 L-202542 79735 L-202524 79735 L-201288 79735 L-199410 79735 L-197457 78922 L-196509 78109 L-196238 77296 L-195928 76890 L-195830 76483 L-195000 76483 L-192969 76890 L-192678 73231 L-190532 71605 L-190377 69166 L-186720 66727 L-186469 67947 L-186371 67540 L-185853 68760 L-183702 70792 L-182773 72825 L-181247 74857 L-180008 74857 L-178461 74451 L-175500 73638 L-174378 72825 L-174069 72012 L-172857 71605 L-169851 76077 L-169831 75670 L-169484 75264 L-169271 74857 L-169144 69166 L-168903 68353 L-168865 67540 L-168845 66727 L-168826 65914 L-168767 65101 L-168708 64288 L-168690 63475 L-168247 62662 L-167008 61849 L-165462 61036 L-162074 60223 L-156348 59817 L-156147 59410 L-154511 59004 L-152789 58597 L-151357 58191 L-151124 57784 L-150409 57378 L-144277 56971 L-143909 56158 L-143755 55345 L-143176 54532 L-142884 53719 L-141916 52906 L-141607 52093 L-141008 51280 L-139402 51280 L-138667 51280 L-138357 51686 L-137588 51686 L-135552 50873 L-135127 50060 L-134314 49654 L-126886 48841 L-126363 48028 L-126189 47215 L-125454 46402 L-123887 45589 L-123481 45182 L-121256 44369 L-120308 43963 L-119883 43556 L-119553 43556 L-118509 43150 L-116401 42337 L-116149 41524 L-115530 40711 L-114717 40304 L-112609 39491 L-112561 38678 L-110632 37865 L-110307 37052 L-110172 36239 L-109669 35833 L-108256 35020 L-107753 33394 L-107231 32174 L-103671 30548 L-102936 28922 L-100512 28922 L-99222 28109 L-98815 27703 L-95663 27703 L-95508 27703 L-95488 28109 L-95121 28109 L-93863 28516 L-93148 28922 L-92258 28922 L-91851 28922 L-90922 28922 L-89814 28516 L-89510 30142 L-83262 30955 L-82314 31768 L-80688 32581 L-80186 32987 L-76511 33394 L-75678 33800 L-71725 34207 L-70313 32987 L-67824 32174 L-67148 31361 L-67109 30955 L-66238 30955 L-63027 30548 L-60164 30142 L-59196 29735 L-58074 28922 L-58055 28109 L-56430 27296 L-55966 26077 L-55874 25670 L-49505 25264 L-48557 24857 L-46099 24451 L-45227 23638 L-43991 23231 L-41990 22825 L-41592 22012 L-40156 21199 L-38130 20792 L-37917 19979 L-36736 19573 L-35228 19166 L-35208 18760 L-33196 18353 L-32326 17540 L-31455 17134 L-30870 16321 L-30333 15508 L-29676 14695 L-28437 13882 L-27877 13475 L-26696 13069 L-25458 12662 L-25420 12256 L-25033 11849 L-24491 11036 L-23717 10630 L-22595 10223 L-20506 9410 L-20172 8597 L-19887 7784 L-18958 7378 L-18475 6565 L-17740 6158 L-14108 5752 L-12981 5345 L-12826 4939 L-11800 4126 L-8085 3719 L-6868 2906 L-5049 2093 L-2264 1686 L-1702 873 L2185 873 L4661 467 L5996 467 L6500 60" />
</svg>
