<svg xmlns="http://www.w3.org/2000/svg" version="1.1" viewBox="0 0 6500 1000">
	<path fill="none" stroke="gold" stroke-width="125" stroke-linecap="round" stroke-linejoin="round" d="M0 11307  L-730565 11307 L-727961 11307 L-726293 11306 L-707963 11305 L-707793 11304 L-700635 11303 L-700602 11303 L-687171 11303 L-684249 11303 L-670909 11302 L-666740 11300 L-665579 11297 L-664960 11295 L-662948 11294 L-659177 11293 L-658577 11292 L-658248 11291 L-658035 11290 L-657493 11289 L-656255 11285 L-655076 11281 L-652212 11277 L-651690 11274 L-646834 11273 L-643897 11272 L-643854 11271 L-643546 11270 L-643294 11269 L-640699 11268 L-636443 11268 L-636425 11268 L-635189 11268 L-633311 11268 L-631358 11267 L-630410 11266 L-630139 11265 L-629829 11265 L-629731 11264 L-628901 11264 L-626870 11265 L-626579 11260 L-624433 11258 L-624278 11256 L-620621 11253 L-620370 11254 L-620272 11254 L-619754 11255 L-617603 11257 L-616674 11260 L-615148 11262 L-613909 11262 L-612362 11262 L-609401 11261 L-608279 11260 L-607970 11259 L-606758 11258 L-603752 11264 L-603732 11263 L-603385 11263 L-603172 11262 L-603045 11256 L-602804 11255 L-602766 11254 L-602746 11253 L-602727 11252 L-602668 11251 L-602609 11250 L-602591 11249 L-602148 11248 L-600909 11247 L-599363 11246 L-595975 11245 L-590249 11245 L-590048 11244 L-588412 11244 L-586690 11243 L-585258 11243 L-585025 11242 L-584310 11242 L-578178 11241 L-577810 11240 L-577656 11239 L-577077 11238 L-576785 11237 L-575817 11237 L-575508 11236 L-574909 11235 L-573303 11235 L-572567 11235 L-572258 11235 L-571489 11235 L-569453 11234 L-569028 11233 L-568215 11233 L-560787 11232 L-560264 11231 L-560090 11230 L-559355 11229 L-557788 11228 L-557382 11227 L-555157 11227 L-554209 11226 L-553784 11226 L-553454 11226 L-552410 11225 L-550302 11224 L-550050 11223 L-549431 11222 L-548618 11222 L-546510 11221 L-546462 11220 L-544533 11219 L-544208 11218 L-544073 11217 L-543569 11217 L-542157 11216 L-541654 11214 L-541132 11212 L-537572 11210 L-536837 11208 L-534413 11208 L-533123 11207 L-532716 11207 L-529564 11207 L-529409 11207 L-529389 11207 L-529022 11207 L-527764 11208 L-527049 11208 L-526159 11208 L-525752 11208 L-524823 11208 L-523715 11208 L-523411 11210 L-517163 11211 L-516215 11212 L-514589 11213 L-514087 11213 L-510412 11214 L-509579 11214 L-505626 11215 L-504214 11213 L-501725 11212 L-501049 11211 L-501010 11211 L-500139 11211 L-496928 11210 L-494065 11210 L-493097 11209 L-491975 11208 L-491956 11207 L-490331 11206 L-489867 11205 L-489775 11205 L-483406 11204 L-482457 11204 L-480000 11203 L-479128 11202 L-477892 11202 L-475891 11201 L-475493 11200 L-474057 11199 L-472031 11199 L-471818 11198 L-470637 11197 L-469129 11197 L-469109 11196 L-467097 11196 L-466227 11195 L-465356 11195 L-464771 11194 L-464234 11193 L-463577 11192 L-462338 11191 L-461778 11190 L-460597 11190 L-459359 11189 L-459321 11189 L-458934 11188 L-458392 11187 L-457618 11187 L-456496 11186 L-454407 11186 L-454073 11185 L-453788 11184 L-452859 11183 L-452376 11182 L-451641 11182 L-448009 11181 L-446882 11181 L-446727 11180 L-445701 11179 L-441986 11179 L-440769 11178 L-438950 11177 L-436165 11176 L-435603 11176 L-431715 11176 L-429239 11175 L-427904 11175 L-427400 11175 L-426917 11174 L-424228 11174 L-420456 11174 L-417999 11174 L-416819 11174 L-416180 11174 L-413821 11173 L-413743 11172 L-412696 11172 L-412602 11171 L-412099 11171 L-411654 11171 L-411596 11171 L-411383 11171 L-408423 11170 L-405715 11169 L-405561 11169 L-402040 11168 L-401517 11167 L-400550 11166 L-400200 11166 L-399157 11165 L-398228 11164 L-397803 11164 L-396294 11164 L-395327 11163 L-395308 11163 L-393412 11128 L-393296 11092 L-393248 11057 L-393223 11022 L-390219 11021 L-388189 11020 L-386428 11020 L-386061 11019 L-385615 11018 L-385248 11018 L-384834 11017 L-382849 11016 L-382636 11016 L-382481 11016 L-380876 11016 L-379754 11016 L-378806 11015 L-377549 11014 L-375904 11014 L-374724 11013 L-368135 11012 L-368088 11012 L-367683 11011 L-366637 11011 L-366502 11010 L-364819 11009 L-364800 11009 L-363463 11008 L-362227 11007 L-362072 11007 L-361698 11006 L-361492 11006 L-361183 11005 L-360409 11004 L-358087 11004 L-357430 11003 L-355302 11003 L-353579 11002 L-353386 11001 L-350832 11001 L-350556 11000 L-350368 10999 L-349535 10998 L-348763 10998 L-348065 10997 L-343064 10997 L-342688 10996 L-338436 10996 L-337949 11043 L-337929 11043 L-337850 11043 L-337775 11042 L-337755 10994 L-336942 10993 L-336189 10992 L-334969 10992 L-333538 10992 L-333441 10991 L-333267 10991 L-332912 10990 L-331603 10990 L-329746 10989 L-328044 10988 L-327541 10988 L-327275 10987 L-326882 10987 L-326748 10986 L-325838 10986 L-325462 10986 L-324533 10986 L-324194 10985 L-324155 10985 L-324117 10985 L-322201 10985 L-322028 10984 L-320499 10984 L-320171 10984 L-320055 10983 L-319648 10982 L-319299 10982 L-317656 10981 L-317105 10980 L-316862 10980 L-316320 10979 L-315489 10978 L-314947 10978 L-313413 10977 L-313321 10976 L-313284 10976 L-313148 10975 L-312761 10975 L-311736 10975 L-309859 10974 L-309763 10974 L-309163 10989 L-308796 11005 L-308311 11022 L-308273 11038 L-307499 11039 L-307442 11038 L-307267 11037 L-307074 11037 L-305468 11036 L-305448 11036 L-305293 11036 L-305178 11037 L-303998 11037 L-303843 11039 L-303176 11039 L-300728 11078 L-298213 11118 L-295544 11156 L-287844 11195 L-282177 11195 L-279962 11195 L-279939 11195 L-278965 11204 L-278945 11204 L-278081 11203 L-275341 11203 L-269543 11193 L-269389 11192 L-266603 11191 L-252995 11190 L-252249 11190 L-247838 11189 L-231492 11188 L-231260 11187 L-230723 11187 L-222263 11186 L-213558 11186 L-213345 11186 L-211373 11185 L-208587 11185 L-204099 11186 L-203944 11185 L-203775 11185 L-203635 11185 L-203344 11184 L-203306 11183 L-203035 11183 L-202863 11182 L-202453 11182 L-201332 11181 L-200152 11181 L-198875 11180 L-196012 11180 L-193091 11179 L-191099 11179 L-189552 11178 L-186514 11177 L-177189 11177 L-176665 11176 L-170941 11176 L-169434 11176 L-168620 11176 L-166936 11175 L-166215 11175 L-166047 11174 L-165002 11174 L-162934 11173 L-161572 11173 L-157129 11172 L-157032 11172 L-156993 11171 L-156974 11171 L-156142 11170 L-156064 11169 L-153491 11169 L-150242 11168 L-150087 11168 L-149139 11167 L-147398 11166 L-146683 11169 L-143142 11172 L-136564 11175 L-135147 11178 L-135126 11178 L-134176 11177 L-130702 11177 L-129948 11176 L-129387 11176 L-128605 11175 L-121100 11175 L-119502 11174 L-117928 11174 L-114743 11173 L-110410 11173 L-101840 11172 L-93094 11172 L-90020 11172 L-86754 11171 L-86207 11170 L-79070 11170 L-73402 11170 L-59338 11170 L-53327 11170 L-48620 11170 L-44617 11169 L-39510 11168 L-29796 11168 L-14225 11167 L-11142 11166 L-10840 10952 L-10820 10688 L-10802 10388 L-10782 10053 L-10762 9900 L-10743 9771 L-10724 9653 L-10697 9536 L-10676 9422 L-10648 9302 L-10613 9170 L-10599 9058 L-10586 8961 L-10567 8881 L-10549 8822 L-10529 8762 L-10511 8701 L-10491 8641 L-10471 8580 L-10450 8516 L-10433 8454 L-10415 8394 L-10394 8335 L-10374 8276 L-10356 8213 L-10337 8147 L-10317 8079 L-10297 8013 L-10279 7950 L-10260 7890 L-10239 7832 L-10214 7772 L-10199 7718 L-10182 7663 L-10162 7607 L-10143 7553 L-10124 7495 L-10105 7435 L-10085 7378 L-10064 7324 L-10047 7272 L-10028 7223 L-10007 7177 L-9987 7133 L-9969 7096 L-9950 7059 L-9930 7022 L-9912 6988 L-9892 6955 L-9873 6924 L-9853 6898 L-9834 6873 L-9814 6847 L-9796 6822 L-9768 6790 L-9747 6757 L-9720 6719 L-9686 6678 L-9671 6645 L-9658 6615 L-9640 6588 L-9621 6565 L-9601 6540 L-9582 6512 L-9563 6485 L-9543 6456 L-9522 6431 L-9505 6407 L-9486 6381 L-9466 6355 L-9446 6326 L-9427 6292 L-9409 6255 L-9389 6219 L-9369 6181 L-9350 6143 L-9331 6105 L-9310 6061 L-9286 6014 L-9271 5968 L-9254 5924 L-9234 5882 L-9215 5838 L-9195 5793 L-9177 5745 L-9156 5700 L-9136 5655 L-9118 5612 L-9099 5569 L-9079 5529 L-9059 5488 L-9041 5450 L-9022 5415 L-9002 5379 L-8983 5349 L-8963 5316 L-8945 5284 L-8925 5254 L-8905 5221 L-8886 5190 L-8867 5159 L-8838 5127 L-8819 5098 L-8791 5068 L-8754 5032 L-8738 4998 L-8726 4966 L-8709 4936 L-8692 4914 L-8672 4894 L-8654 4875 L-8634 4858 L-8614 4840 L-8594 4822 L-8576 4802 L-8558 4780 L-8537 4759 L-8517 4736 L-8499 4712 L-8480 4687 L-8460 4659 L-8441 4631 L-8422 4602 L-8403 4574 L-8382 4548 L-8357 4518 L-8343 4491 L-8326 4463 L-8305 4434 L-8287 4407 L-8267 4377 L-8248 4347 L-8228 4317 L-8208 4287 L-8189 4258 L-8171 4232 L-8150 4206 L-8130 4181 L-8112 4158 L-8093 4134 L-8073 4110 L-8055 4086 L-8035 4062 L-8016 4040 L-7996 4017 L-7977 3995 L-7957 3974 L-7938 3951 L-7910 3929 L-7890 3906 L-7862 3880 L-7826 3845 L-7812 3812 L-7799 3781 L-7781 3754 L-7763 3737 L-7743 3719 L-7725 3696 L-7705 3674 L-7685 3649 L-7664 3622 L-7646 3594 L-7629 3565 L-7608 3534 L-7588 3501 L-7570 3467 L-7551 3431 L-7531 3395 L-7511 3361 L-7493 3330 L-7474 3303 L-7453 3282 L-7428 3264 L-7413 3248 L-7396 3231 L-7377 3213 L-7357 3194 L-7338 3175 L-7319 3156 L-7299 3139 L-7278 3125 L-7261 3111 L-7242 3094 L-7221 3073 L-7201 3050 L-7184 3027 L-7165 3009 L-7144 2994 L-7126 2983 L-7106 2973 L-7087 2962 L-7067 2950 L-7048 2937 L-7029 2923 L-7010 2911 L-6982 2899 L-6962 2888 L-6934 2875 L-6899 2859 L-6885 2845 L-6872 2834 L-6853 2823 L-6835 2814 L-6815 2805 L-6796 2795 L-6777 2786 L-6757 2778 L-6736 2769 L-6719 2760 L-6700 2750 L-6680 2739 L-6660 2728 L-6642 2716 L-6623 2706 L-6603 2698 L-6583 2689 L-6564 2680 L-6546 2670 L-6524 2661 L-6499 2653 L-6485 2644 L-6468 2637 L-6448 2628 L-6429 2619 L-6410 2610 L-6391 2599 L-6371 2588 L-6350 2579 L-6332 2569 L-6313 2560 L-6293 2551 L-6272 2543 L-6255 2535 L-6236 2526 L-6216 2519 L-6197 2510 L-6177 2503 L-6159 2497 L-6139 2491 L-6119 2485 L-6100 2479 L-6081 2489 L-6053 2499 L-6033 2509 L-6005 2517 L-5968 2509 L-5952 2502 L-5940 2495 L-5922 2490 L-5906 2486 L-5886 2480 L-5868 2475 L-5848 2469 L-5828 2464 L-5807 2459 L-5790 2455 L-5772 2450 L-5751 2445 L-5731 2439 L-5713 2433 L-5694 2428 L-5674 2422 L-5654 2416 L-5636 2411 L-5617 2406 L-5596 2402 L-5571 2398 L-5557 2392 L-5539 2386 L-5520 2380 L-5500 2375 L-5481 2370 L-5462 2364 L-5442 2357 L-5421 2349 L-5404 2341 L-5385 2334 L-5364 2327 L-5344 2320 L-5326 2314 L-5307 2307 L-5287 2300 L-5269 2294 L-5249 2287 L-5230 2279 L-5210 2272 L-5191 2266 L-5171 2261 L-5153 2256 L-5125 2249 L-5104 2243 L-5077 2236 L-5042 2228 L-5028 2222 L-5015 2216 L-4996 2210 L-4977 2205 L-4957 2199 L-4939 2194 L-4920 2188 L-4900 2182 L-4879 2176 L-4862 2170 L-4843 2165 L-4823 2158 L-4803 2151 L-4784 2143 L-4766 2134 L-4746 2124 L-4725 2115 L-4707 2107 L-4689 2099 L-4667 2091 L-4642 2082 L-4627 2074 L-4610 2065 L-4591 2057 L-4571 2049 L-4552 2040 L-4533 2031 L-4513 2024 L-4493 2016 L-4475 2008 L-4456 2000 L-4436 1993 L-4415 1986 L-4398 1980 L-4379 1974 L-4359 1969 L-4340 1964 L-4320 1959 L-4302 1954 L-4282 1950 L-4262 1946 L-4243 1941 L-4224 1938 L-4197 1933 L-4176 1928 L-4148 1924 L-4113 1915 L-4099 1907 L-4086 1898 L-4067 1890 L-4049 1885 L-4029 1880 L-4011 1875 L-3991 1870 L-3971 1865 L-3950 1859 L-3933 1853 L-3915 1846 L-3894 1840 L-3874 1834 L-3856 1826 L-3837 1820 L-3817 1813 L-3797 1806 L-3779 1800 L-3760 1795 L-3738 1790 L-3714 1784 L-3699 1779 L-3682 1774 L-3662 1767 L-3643 1762 L-3624 1755 L-3605 1747 L-3585 1738 L-3564 1728 L-3547 1720 L-3528 1712 L-3507 1705 L-3486 1699 L-3469 1694 L-3450 1689 L-3430 1686 L-3411 1682 L-3392 1677 L-3373 1673 L-3353 1668 L-3333 1664 L-3314 1661 L-3296 1656 L-3268 1652 L-3247 1649 L-3220 1645 L-3185 1641 L-3171 1637 L-3158 1633 L-3139 1630 L-3121 1626 L-3101 1623 L-3082 1620 L-3063 1617 L-3043 1615 L-3022 1612 L-3005 1608 L-2986 1605 L-2966 1601 L-2946 1597 L-2928 1594 L-2909 1591 L-2889 1588 L-2869 1585 L-2850 1583 L-2831 1581 L-2810 1579 L-2786 1575 L-2771 1572 L-2754 1568 L-2734 1565 L-2715 1562 L-2695 1559 L-2677 1556 L-2657 1552 L-2636 1546 L-2618 1539 L-2599 1533 L-2579 1525 L-2558 1520 L-2541 1515 L-2522 1511 L-2502 1506 L-2483 1502 L-2463 1497 L-2444 1493 L-2425 1489 L-2405 1485 L-2386 1482 L-2367 1479 L-2338 1476 L-2291 1474 L-2254 1470 L-2239 1466 L-2226 1463 L-2209 1460 L-2192 1458 L-2172 1457 L-2154 1455 L-2134 1452 L-2114 1449 L-2094 1446 L-2076 1445 L-2058 1443 L-2037 1441 L-2018 1438 L-1999 1435 L-1980 1432 L-1960 1429 L-1940 1426 L-1922 1423 L-1903 1418 L-1882 1414 L-1857 1408 L-1842 1403 L-1825 1398 L-1806 1393 L-1787 1388 L-1767 1384 L-1748 1380 L-1728 1375 L-1707 1370 L-1689 1365 L-1671 1361 L-1650 1357 L-1630 1353 L-1612 1350 L-1593 1347 L-1573 1344 L-1554 1341 L-1535 1337 L-1516 1334 L-1496 1330 L-1477 1326 L-1457 1323 L-1438 1319 L-1410 1316 L-1390 1312 L-1362 1307 L-1325 1300 L-1311 1292 L-1298 1285 L-1281 1280 L-1263 1276 L-1243 1272 L-1225 1269 L-1205 1267 L-1185 1264 L-1164 1262 L-1147 1258 L-1129 1254 L-1108 1249 L-1088 1244 L-1070 1238 L-1051 1231 L-1031 1224 L-1010 1217 L-993 1212 L-974 1206 L-953 1202 L-928 1196 L-913 1192 L-895 1187 L-877 1183 L-857 1179 L-838 1175 L-819 1169 L-799 1163 L-778 1158 L-761 1153 L-742 1150 L-721 1145 L-700 1141 L-684 1137 L-665 1133 L-645 1130 L-626 1126 L-606 1123 L-587 1119 L-567 1115 L-547 1112 L-529 1109 L-510 1105 L-482 3632 L-462 3628 L-434 3624 L-398 3618 L-384 1083 L-370 1078 L-353 1074 L-335 1072 L-315 1069 L-296 1067 L-277 1064 L-257 1060 L-236 1054 L-219 1049 L-200 1044 L-180 1039 L-159 1033 L-141 1026 L-122 1019 L-103 1012 L-82 1007 L-64 1003 L-46 999 L-24 995 L0 989 L15 983 L44 976 L84 968 L107 961 L137 952 L153 945 L167 939 L186 934 L206 931 L227 928 L244 924 L263 920 L283 917 L302 914 L322 912 L340 910 L360 908 L380 904 L399 901 L418 898 L445 895 L466 892 L494 888 L529 884 L543 880 L574 876 L593 872 L613 870 L631 868 L651 865 L671 863 L692 861 L709 858 L727 852 L748 842 L768 831 L786 819 L805 808 L825 798 L845 791 L863 783 L882 778 L904 774 L928 770 L943 765 L961 761 L979 755 L999 751 L1018 746 L1038 741 L1057 736 L1078 731 L1095 725 L1115 721 L1135 717 L1156 713 L1173 711 L1192 708 L1212 704 L1231 701 L1250 697 L1269 694 L1289 690 L1309 687 L1327 684 L1346 681 L1374 678 L1395 675 L1465 668 L1493 660 L1507 652 L1521 645 L1541 641 L1560 637 L1579 632 L1599 628 L1620 624 L1637 621 L1656 618 L1676 616 L1696 613 L1715 610 L1734 605 L1753 601 L1774 596 L1792 591 L1811 587 L1832 584 L1857 581 L1872 578 L1889 574 L1908 569 L1928 564 L1947 560 L1966 555 L1986 552 L2007 549 L2024 546 L2043 543 L2063 540 L2085 536 L2101 533 L2159 529 L2179 526 L2197 523 L2217 520 L2237 517 L2256 515 L2275 513 L2303 510 L2323 509 L2351 507 L2388 504 L2402 501 L2415 499 L2432 497 L2450 495 L2470 493 L2488 492 L2508 490 L2528 490 L2549 488 L2566 487 L2584 485 L2605 483 L2625 481 L2643 479 L2662 476 L2682 473 L2703 471 L2720 468 L2739 466 L2761 463 L2786 461 L2800 460 L2817 457 L2837 455 L2857 452 L2875 450 L2894 447 L2914 442 L2935 439 L2952 435 L2972 433 L2992 431 L3013 430 L3030 428 L3049 426 L3069 424 L3088 423 L3107 422 L3126 420 L3146 419 L3166 418 L3185 417 L3203 415 L3231 414 L3252 412 L3280 410 L3315 408 L3328 406 L3342 404 L3360 402 L3378 400 L3398 399 L3417 397 L3456 395 L3477 394 L3494 392 L3513 390 L3533 388 L3553 385 L3572 381 L3590 379 L3610 377 L3630 375 L3649 372 L3668 370 L3689 369 L3713 367 L3728 365 L3745 364 L3765 362 L3784 360 L3804 357 L3822 355 L3842 353 L3863 351 L3881 349 L3900 347 L3920 344 L3941 342 L3958 340 L3977 339 L3997 337 L4016 336 L4036 334 L4054 332 L4074 331 L4094 329 L4113 328 L4132 326 L4161 324 L4208 322 L4246 320 L4261 319 L4274 317 L4291 316 L4307 314 L4327 313 L4345 312 L4365 311 L4385 310 L4406 309 L4423 309 L4442 308 L4462 308 L4481 307 L4500 306 L4519 304 L4539 303 L4558 302 L4577 300 L4596 299 L4617 297 L4642 295 L4656 292 L4674 290 L4693 287 L4713 283 L4732 279 L4751 274 L4771 270 L4791 266 L4810 262 L4828 259 L4849 255 L4869 252 L4887 248 L4906 244 L4926 240 L4944 237 L4964 234 L4983 232 L5003 229 L5022 225 L5042 220 L5061 216 L5089 212 L5109 209 L5137 207 L5174 203 L5189 201 L5201 199 L5219 195 L5236 193 L5256 191 L5274 189 L5294 187 L5314 185 L5335 182 L5352 179 L5370 176 L5391 173 L5412 169 L5429 167 L5449 164 L5468 161 L5489 159 L5506 156 L5525 153 L5546 149 L5571 146 L5586 142 L5604 139 L5622 135 L5643 131 L5661 128 L5681 124 L5700 120 L5722 116 L5738 111 L5758 107 L5778 104 L5799 100 L5816 98 L5834 96 L5854 94 L5873 92 L5893 89 L5912 87 L5932 84 L5951 81 L5970 79 L5989 76 L6037 72 L6065 69 L6098 65 L6113 62 L6125 59 L6144 55 L6164 53 L6184 50 L6203 47 L6222 44 L6242 42 L6263 39 L6280 37 L6299 35 L6319 33 L6339 30 L6357 28 L6376 24 L6396 20 L6416 18 L6435 14 L6453 11 L6475 8 L6500 5" />
</svg>
