<svg xmlns="http://www.w3.org/2000/svg" version="1.1" viewBox="0 0 6500 1000">
	<path fill="none" stroke="gold" stroke-width="125" stroke-linecap="round" stroke-linejoin="round" d="M0 3478  L-726051 3478 L-723447 3478 L-721779 3478 L-703449 3478 L-703279 3477 L-696121 3477 L-696088 3477 L-682657 3477 L-679735 3477 L-666395 3477 L-662226 3476 L-661066 3475 L-660446 3474 L-658435 3474 L-654663 3474 L-654063 3473 L-653734 3473 L-653521 3473 L-652979 3472 L-651741 3471 L-650562 3470 L-647698 3469 L-647176 3467 L-642320 3467 L-639383 3467 L-639340 3467 L-639032 3466 L-638780 3466 L-636185 3466 L-631929 3466 L-631911 3466 L-630675 3466 L-628797 3466 L-626844 3465 L-625896 3465 L-625625 3465 L-625315 3465 L-625217 3464 L-624387 3464 L-622356 3465 L-622065 3463 L-619919 3463 L-619764 3462 L-616107 3461 L-615856 3461 L-615758 3461 L-615240 3461 L-613089 3462 L-612160 3463 L-610634 3464 L-609395 3464 L-607848 3464 L-604887 3463 L-603765 3463 L-603456 3463 L-602244 3463 L-599238 3464 L-599218 3464 L-598871 3464 L-598658 3464 L-598531 3462 L-598290 3461 L-598252 3461 L-598232 3461 L-598213 3460 L-598154 3460 L-598095 3460 L-598077 3459 L-597634 3459 L-596395 3459 L-594849 3459 L-591461 3458 L-585735 3458 L-585534 3458 L-583898 3458 L-582176 3458 L-580744 3457 L-580511 3457 L-579796 3457 L-573664 3457 L-573296 3457 L-573142 3456 L-572563 3456 L-572271 3456 L-571304 3455 L-570994 3455 L-570395 3455 L-568789 3455 L-568054 3455 L-567744 3455 L-566975 3455 L-564939 3455 L-564514 3454 L-563701 3454 L-556273 3454 L-555750 3454 L-555576 3453 L-554841 3453 L-553274 3453 L-552868 3452 L-550643 3452 L-549695 3452 L-549270 3452 L-548940 3452 L-547896 3452 L-545788 3451 L-545536 3451 L-544917 3451 L-544104 3451 L-541996 3450 L-541948 3450 L-540019 3450 L-539694 3449 L-539559 3449 L-539056 3449 L-537643 3449 L-537140 3448 L-536618 3448 L-533058 3447 L-532323 3446 L-529899 3446 L-528609 3446 L-528202 3446 L-525050 3446 L-524895 3446 L-524875 3446 L-524508 3446 L-523250 3446 L-522535 3446 L-521645 3446 L-521238 3446 L-520309 3446 L-519201 3446 L-518897 3447 L-512649 3447 L-511701 3447 L-510075 3448 L-509573 3448 L-505898 3448 L-505065 3448 L-501112 3448 L-499700 3448 L-497211 3448 L-496535 3447 L-496496 3447 L-495625 3447 L-492414 3447 L-489551 3447 L-488583 3447 L-487461 3446 L-487442 3446 L-485817 3446 L-485353 3445 L-485261 3445 L-478892 3445 L-477944 3445 L-475486 3445 L-474614 3444 L-473378 3444 L-471377 3444 L-470979 3444 L-469543 3443 L-467517 3443 L-467304 3443 L-466124 3443 L-464615 3443 L-464595 3442 L-462583 3442 L-461713 3442 L-460842 3442 L-460257 3442 L-459720 3441 L-459063 3441 L-457824 3441 L-457264 3440 L-456083 3440 L-454845 3440 L-454807 3440 L-454420 3440 L-453878 3440 L-453104 3439 L-451982 3439 L-449893 3439 L-449560 3439 L-449274 3438 L-448345 3438 L-447862 3438 L-447127 3438 L-443495 3438 L-442368 3437 L-442213 3437 L-441187 3437 L-437472 3437 L-436255 3436 L-434436 3436 L-431651 3436 L-431089 3436 L-427201 3436 L-424725 3436 L-423390 3436 L-422887 3435 L-422403 3435 L-419714 3435 L-415942 3435 L-413485 3435 L-412305 3435 L-411666 3435 L-409307 3435 L-409229 3435 L-408182 3434 L-408088 3434 L-407585 3434 L-407140 3434 L-407082 3434 L-406869 3434 L-403909 3434 L-401201 3434 L-401047 3434 L-397526 3433 L-397003 3433 L-396036 3433 L-395686 3433 L-394643 3432 L-393714 3432 L-393289 3432 L-391780 3432 L-390813 3432 L-390794 3432 L-388898 3420 L-388782 3409 L-388734 3397 L-388709 3386 L-385705 3386 L-383675 3386 L-381914 3385 L-381547 3385 L-381101 3385 L-380734 3385 L-380320 3384 L-378335 3384 L-378122 3384 L-377967 3384 L-376362 3384 L-375240 3384 L-374292 3384 L-373035 3384 L-371390 3383 L-370210 3383 L-363621 3383 L-363574 3383 L-363169 3383 L-362123 3382 L-361988 3382 L-360305 3382 L-360286 3382 L-358949 3382 L-357713 3381 L-357558 3381 L-357184 3381 L-356978 3381 L-356669 3381 L-355895 3380 L-353573 3380 L-352916 3380 L-350788 3380 L-349065 3380 L-348872 3379 L-346319 3379 L-346042 3379 L-345854 3379 L-345022 3378 L-344249 3378 L-343551 3378 L-338550 3378 L-338175 3378 L-333922 3378 L-333435 3393 L-333415 3393 L-333336 3393 L-333261 3393 L-333241 3377 L-332428 3377 L-331675 3376 L-330455 3376 L-329024 3376 L-328927 3376 L-328753 3376 L-328398 3376 L-327089 3376 L-325232 3376 L-323530 3375 L-323027 3375 L-322761 3375 L-322368 3375 L-322234 3375 L-321324 3374 L-320948 3374 L-320019 3374 L-319680 3374 L-319641 3374 L-319603 3374 L-317688 3374 L-317514 3374 L-315985 3374 L-315657 3374 L-315541 3374 L-315134 3373 L-314786 3373 L-313142 3373 L-312591 3373 L-312348 3372 L-311806 3372 L-310975 3372 L-310433 3372 L-308899 3372 L-308807 3371 L-308770 3371 L-308634 3371 L-308247 3371 L-307222 3371 L-305345 3371 L-305249 3370 L-304649 3375 L-304282 3381 L-303797 3386 L-303759 3391 L-302985 3392 L-302928 3391 L-302753 3391 L-302560 3391 L-300954 3391 L-300934 3390 L-300779 3391 L-300664 3391 L-299484 3391 L-299329 3392 L-298662 3392 L-296214 3404 L-293699 3417 L-291030 3430 L-283330 3442 L-277663 3442 L-275448 3442 L-275425 3442 L-274451 3445 L-274431 3445 L-273567 3445 L-270827 3444 L-265029 3441 L-264875 3441 L-262089 3441 L-248481 3440 L-247735 3440 L-243324 3440 L-226978 3440 L-226746 3440 L-226209 3439 L-217749 3439 L-209044 3439 L-208832 3439 L-206859 3439 L-204073 3439 L-199585 3439 L-199431 3439 L-199261 3439 L-199121 3439 L-198830 3438 L-198792 3438 L-198521 3438 L-198349 3438 L-197939 3438 L-196819 3438 L-195638 3437 L-194361 3437 L-191498 3437 L-188577 3437 L-186585 3437 L-185038 3436 L-182000 3436 L-172675 3436 L-172151 3436 L-166427 3436 L-164920 3436 L-164106 3436 L-162422 3436 L-161701 3435 L-161533 3435 L-160488 3435 L-158420 3435 L-157058 3435 L-152615 3435 L-152518 3434 L-152479 3434 L-152460 3434 L-151628 3434 L-151550 3434 L-148978 3434 L-145728 3433 L-145573 3433 L-144625 3433 L-142884 3433 L-142169 3434 L-138628 3434 L-132051 3435 L-130633 3437 L-130612 3436 L-129662 3436 L-126188 3436 L-125434 3436 L-124873 3436 L-124091 3436 L-116586 3435 L-114988 3435 L-113414 3435 L-110229 3435 L-105896 3435 L-97326 3435 L-88580 3435 L-85506 3434 L-82240 3434 L-81693 3434 L-74556 3434 L-68888 3434 L-54824 3434 L-48813 3434 L-44106 3434 L-40103 3434 L-34996 3433 L-25282 3433 L-9711 3433 L-6628 3433 L-6326 3363 L-6306 3278 L-6288 3181 L-6268 3073 L-6248 3023 L-6229 2982 L-6210 2943 L-6183 2906 L-6162 2869 L-6134 2830 L-6099 2787 L-6085 2751 L-6072 2720 L-6053 2694 L-6035 2675 L-6015 2656 L-5997 2636 L-5977 2616 L-5957 2597 L-5936 2576 L-5919 2556 L-5901 2536 L-5880 2518 L-5860 2498 L-5842 2478 L-5823 2457 L-5803 2435 L-5783 2413 L-5765 2393 L-5746 2373 L-5725 2355 L-5700 2336 L-5685 2318 L-5668 2300 L-5649 2282 L-5629 2265 L-5610 2246 L-5591 2226 L-5571 2208 L-5550 2191 L-5533 2174 L-5514 2158 L-5493 2143 L-5473 2129 L-5455 2117 L-5436 2105 L-5416 2093 L-5398 2082 L-5378 2071 L-5359 2061 L-5339 2053 L-5320 2045 L-5300 2036 L-5282 2028 L-5254 2018 L-5233 2007 L-5206 1995 L-5172 1982 L-5157 1971 L-5144 1961 L-5126 1953 L-5107 1945 L-5087 1937 L-5068 1928 L-5049 1919 L-5029 1910 L-5008 1902 L-4991 1894 L-4972 1886 L-4952 1877 L-4932 1868 L-4913 1857 L-4895 1845 L-4875 1833 L-4855 1821 L-4836 1809 L-4817 1796 L-4796 1782 L-4772 1767 L-4757 1752 L-4740 1738 L-4720 1724 L-4701 1710 L-4681 1696 L-4663 1680 L-4643 1665 L-4622 1651 L-4604 1637 L-4585 1623 L-4565 1610 L-4545 1597 L-4527 1585 L-4508 1573 L-4488 1562 L-4469 1552 L-4449 1541 L-4431 1531 L-4411 1521 L-4391 1511 L-4372 1501 L-4353 1491 L-4324 1480 L-4305 1471 L-4277 1461 L-4240 1450 L-4225 1439 L-4212 1428 L-4195 1419 L-4178 1412 L-4158 1405 L-4140 1399 L-4120 1393 L-4100 1388 L-4080 1382 L-4062 1375 L-4044 1368 L-4023 1361 L-4003 1354 L-3985 1346 L-3966 1338 L-3946 1329 L-3927 1320 L-3908 1311 L-3889 1302 L-3868 1293 L-3843 1284 L-3829 1275 L-3812 1266 L-3792 1256 L-3773 1248 L-3753 1238 L-3734 1228 L-3714 1218 L-3694 1209 L-3675 1199 L-3657 1191 L-3636 1183 L-3616 1175 L-3598 1167 L-3579 1159 L-3559 1152 L-3541 1144 L-3521 1136 L-3502 1129 L-3482 1122 L-3463 1114 L-3443 1107 L-3424 1100 L-3396 1093 L-3376 1086 L-3348 1077 L-3312 1066 L-3298 1055 L-3285 1045 L-3267 1036 L-3249 1031 L-3229 1025 L-3211 1018 L-3191 1010 L-3171 1002 L-3150 994 L-3132 985 L-3115 975 L-3094 965 L-3074 955 L-3056 944 L-3037 932 L-3017 920 L-2997 909 L-2979 899 L-2960 891 L-2939 884 L-2914 878 L-2899 873 L-2882 867 L-2863 862 L-2843 855 L-2824 849 L-2805 843 L-2785 838 L-2764 833 L-2747 829 L-2728 823 L-2707 816 L-2687 809 L-2670 801 L-2651 795 L-2631 791 L-2612 787 L-2592 784 L-2573 780 L-2553 777 L-2534 772 L-2515 768 L-2496 764 L-2468 760 L-2448 756 L-2420 752 L-2385 747 L-2371 743 L-2358 739 L-2339 736 L-2321 733 L-2301 730 L-2282 726 L-2263 723 L-2243 721 L-2222 718 L-2205 715 L-2186 712 L-2166 708 L-2146 705 L-2128 701 L-2109 698 L-2089 695 L-2069 692 L-2050 689 L-2032 686 L-2010 683 L-1986 680 L-1971 678 L-1954 675 L-1934 672 L-1915 670 L-1896 666 L-1877 663 L-1857 659 L-1836 656 L-1818 653 L-1799 651 L-1779 648 L-1758 645 L-1741 642 L-1722 639 L-1702 637 L-1683 634 L-1664 632 L-1645 630 L-1625 628 L-1605 626 L-1586 624 L-1567 628 L-1539 631 L-1519 634 L-1491 637 L-1454 634 L-1438 632 L-1426 629 L-1408 628 L-1392 626 L-1372 625 L-1354 623 L-1334 621 L-1314 619 L-1293 618 L-1276 616 L-1258 615 L-1237 613 L-1217 611 L-1199 609 L-1180 608 L-1160 606 L-1140 604 L-1122 602 L-1103 601 L-1082 599 L-1057 598 L-1043 596 L-1025 594 L-1006 592 L-986 591 L-967 589 L-948 587 L-928 585 L-907 582 L-890 580 L-871 577 L-850 575 L-830 573 L-812 571 L-793 568 L-774 566 L-755 564 L-735 562 L-716 560 L-696 557 L-677 555 L-657 554 L-639 552 L-611 550 L-591 548 L-563 546 L-528 543 L-514 541 L-501 539 L-482 537 L-464 536 L-443 534 L-425 532 L-406 530 L-386 528 L-365 526 L-348 524 L-329 523 L-309 520 L-289 518 L-270 516 L-252 513 L-232 510 L-211 507 L-193 504 L-175 502 L-153 499 L-128 496 L-114 493 L-96 490 L-77 488 L-58 485 L-39 482 L-19 479 L0 477 L20 474 L38 472 L57 469 L77 467 L98 465 L115 463 L134 461 L154 459 L173 458 L193 456 L211 455 L231 453 L251 452 L270 450 L289 449 L316 448 L337 446 L365 445 L400 442 L414 439 L427 437 L446 434 L464 432 L484 431 L502 429 L522 427 L542 426 L563 424 L580 422 L598 420 L619 418 L639 416 L657 413 L676 411 L696 409 L716 407 L734 405 L753 403 L774 401 L799 400 L814 398 L831 396 L850 394 L870 392 L889 390 L908 388 L928 385 L949 382 L966 379 L985 376 L1006 374 L1027 372 L1044 370 L1063 369 L1083 368 L1102 366 L1121 365 L1140 364 L1160 362 L1179 361 L1199 360 L1217 358 L1245 357 L1266 356 L1293 354 L1328 353 L1342 352 L1355 351 L1374 350 L1392 349 L1412 348 L1431 346 L1450 346 L1470 345 L1491 344 L1508 343 L1527 342 L1547 340 L1567 339 L1585 338 L1604 337 L1624 336 L1644 335 L1663 335 L1682 334 L1703 333 L1727 332 L1742 331 L1759 330 L1779 329 L1798 328 L1818 327 L1836 326 L1856 324 L1877 323 L1895 320 L1914 318 L1934 316 L1955 314 L1972 313 L1991 311 L2011 310 L2030 308 L2050 307 L2068 305 L2088 304 L2108 303 L2127 302 L2146 301 L2175 300 L2222 299 L2259 298 L2274 297 L2286 296 L2304 295 L2321 294 L2341 294 L2359 293 L2379 292 L2399 291 L2419 290 L2437 290 L2455 289 L2476 289 L2495 288 L2514 287 L2533 286 L2553 285 L2573 284 L2591 283 L2610 281 L2631 280 L2656 278 L2670 276 L2688 275 L2707 273 L2726 272 L2746 270 L2765 269 L2785 267 L2806 266 L2823 264 L2842 263 L2863 261 L2883 260 L2901 259 L2920 258 L2940 257 L2958 256 L2978 255 L2997 254 L3017 253 L3036 252 L3056 251 L3075 249 L3103 248 L3123 247 L3151 245 L3188 243 L3202 241 L3215 238 L3232 237 L3250 235 L3270 234 L3288 233 L3308 232 L3328 232 L3349 231 L3366 229 L3384 228 L3405 227 L3425 225 L3443 223 L3462 221 L3482 218 L3502 216 L3520 214 L3539 213 L3560 211 L3585 210 L3600 208 L3618 207 L3636 205 L3656 204 L3675 203 L3694 201 L3714 199 L3735 197 L3752 196 L3771 194 L3792 193 L3813 192 L3829 190 L3848 189 L3868 188 L3887 187 L3907 186 L3926 184 L3945 183 L3966 182 L3984 181 L4003 180 L4031 997 L4051 996 L4079 994 L4115 992 L4129 173 L4143 171 L4160 170 L4178 169 L4198 168 L4216 168 L4236 167 L4256 165 L4277 164 L4294 162 L4313 160 L4333 159 L4353 157 L4371 154 L4391 152 L4410 150 L4431 148 L4448 147 L4467 146 L4489 144 L4514 143 L4529 141 L4558 138 L4598 136 L4621 134 L4651 131 L4667 128 L4681 126 L4700 125 L4720 124 L4741 123 L4758 121 L4777 120 L4797 119 L4816 118 L4836 118 L4854 117 L4874 116 L4894 115 L4913 114 L4932 113 L4959 112 L4980 111 L5008 110 L5043 109 L5057 107 L5088 106 L5107 105 L5127 104 L5145 103 L5165 103 L5185 102 L5206 101 L5222 100 L5241 98 L5262 95 L5282 91 L5300 87 L5319 84 L5339 81 L5359 78 L5377 76 L5396 74 L5417 73 L5442 72 L5457 70 L5475 69 L5493 67 L5513 65 L5532 64 L5552 63 L5571 61 L5592 59 L5609 57 L5628 56 L5649 55 L5670 53 L5686 53 L5706 52 L5726 51 L5745 50 L5764 48 L5783 47 L5803 46 L5823 45 L5841 44 L5860 43 L5888 42 L5909 41 L5979 39 L6007 36 L6021 34 L6035 31 L6055 30 L6074 29 L6093 27 L6113 26 L6134 24 L6151 23 L6170 22 L6190 22 L6210 21 L6229 20 L6247 18 L6267 17 L6288 15 L6306 14 L6324 13 L6346 12 L6371 11 L6386 10 L6403 8 L6422 7 L6442 5 L6461 4 L6480 2 L6500 1" />
</svg>
