<svg xmlns="http://www.w3.org/2000/svg" version="1.1" viewBox="0 0 6500 1000">
	<path fill="none" stroke="gold" stroke-width="125" stroke-linecap="round" stroke-linejoin="round" d="M0 1070  L-719744 1070 L-717140 1070 L-715472 1070 L-697142 1070 L-696972 1070 L-689814 1070 L-689781 1070 L-676350 1070 L-673429 1070 L-660088 1070 L-655919 1069 L-654759 1069 L-654139 1069 L-652128 1069 L-648356 1069 L-647756 1069 L-647427 1068 L-647214 1068 L-646672 1068 L-645434 1068 L-644255 1067 L-641391 1067 L-640869 1067 L-636013 1066 L-633076 1066 L-633033 1066 L-632725 1066 L-632473 1066 L-629878 1066 L-625622 1066 L-625604 1066 L-624368 1066 L-622490 1066 L-620537 1066 L-619589 1066 L-619318 1066 L-619008 1065 L-618910 1065 L-618080 1065 L-616049 1065 L-615758 1065 L-613612 1065 L-613457 1064 L-609800 1064 L-609549 1064 L-609451 1064 L-608934 1064 L-606782 1065 L-605854 1065 L-604327 1065 L-603088 1065 L-601542 1065 L-598580 1065 L-597458 1065 L-597149 1065 L-595937 1065 L-592931 1065 L-592911 1065 L-592564 1065 L-592351 1065 L-592224 1064 L-591983 1064 L-591945 1064 L-591925 1064 L-591906 1064 L-591847 1064 L-591788 1064 L-591770 1064 L-591327 1064 L-590088 1063 L-588542 1063 L-585154 1063 L-579428 1063 L-579227 1063 L-577591 1063 L-575869 1063 L-574437 1063 L-574204 1063 L-573489 1063 L-567357 1063 L-566989 1063 L-566835 1063 L-566256 1062 L-565964 1062 L-564997 1062 L-564687 1062 L-564088 1062 L-562482 1062 L-561747 1062 L-561437 1062 L-560668 1062 L-558632 1062 L-558207 1062 L-557394 1062 L-549966 1062 L-549443 1062 L-549269 1061 L-548534 1061 L-546967 1061 L-546561 1061 L-544336 1061 L-543388 1061 L-542963 1061 L-542633 1061 L-541589 1061 L-539481 1061 L-539229 1061 L-538610 1061 L-537797 1061 L-535689 1060 L-535641 1060 L-533712 1060 L-533387 1060 L-533252 1060 L-532749 1060 L-531336 1060 L-530833 1060 L-530311 1059 L-526752 1059 L-526016 1059 L-523592 1059 L-522302 1059 L-521895 1059 L-518743 1059 L-518588 1059 L-518568 1059 L-518201 1059 L-516943 1059 L-516228 1059 L-515338 1059 L-514931 1059 L-514002 1059 L-512894 1059 L-512591 1059 L-506342 1059 L-505394 1059 L-503768 1060 L-503266 1060 L-499591 1060 L-498758 1060 L-494805 1060 L-493393 1060 L-490904 1059 L-490228 1059 L-490189 1059 L-489318 1059 L-486107 1059 L-483244 1059 L-482276 1059 L-481154 1059 L-481135 1059 L-479510 1059 L-479046 1059 L-478954 1059 L-472585 1059 L-471637 1058 L-469180 1058 L-468307 1058 L-467071 1058 L-465070 1058 L-464672 1058 L-463236 1058 L-461210 1058 L-460997 1058 L-459817 1058 L-458308 1058 L-458288 1058 L-456276 1058 L-455406 1058 L-454535 1057 L-453951 1057 L-453413 1057 L-452756 1057 L-451517 1057 L-450957 1057 L-449776 1057 L-448538 1057 L-448500 1057 L-448113 1057 L-447571 1057 L-446797 1057 L-445675 1057 L-443586 1056 L-443253 1056 L-442967 1056 L-442038 1056 L-441555 1056 L-440820 1056 L-437188 1056 L-436061 1056 L-435906 1056 L-434880 1056 L-431165 1056 L-429948 1056 L-428129 1055 L-425344 1055 L-424782 1055 L-420894 1055 L-418418 1055 L-417083 1055 L-416580 1055 L-416096 1055 L-413407 1055 L-409635 1055 L-407178 1055 L-405998 1055 L-405359 1055 L-403000 1055 L-402922 1055 L-401875 1055 L-401781 1055 L-401278 1055 L-400833 1055 L-400775 1055 L-400562 1055 L-397602 1055 L-394894 1055 L-394740 1055 L-391219 1054 L-390696 1054 L-389729 1054 L-389380 1054 L-388336 1054 L-387407 1054 L-386982 1054 L-385473 1054 L-384506 1054 L-384487 1054 L-382591 1050 L-382475 1046 L-382427 1042 L-382402 1038 L-379398 1038 L-377368 1037 L-375607 1037 L-375240 1037 L-374794 1037 L-374427 1037 L-374013 1037 L-372028 1037 L-371815 1037 L-371660 1037 L-370055 1037 L-368933 1037 L-367985 1037 L-366728 1037 L-365083 1037 L-363903 1037 L-357314 1037 L-357267 1037 L-356862 1036 L-355816 1036 L-355681 1036 L-353998 1036 L-353979 1036 L-352642 1036 L-351406 1036 L-351251 1036 L-350877 1036 L-350671 1036 L-350362 1036 L-349588 1036 L-347266 1036 L-346609 1036 L-344481 1035 L-342758 1035 L-342565 1035 L-340012 1035 L-339735 1035 L-339547 1035 L-338715 1035 L-337942 1035 L-337244 1035 L-332243 1035 L-331868 1035 L-327615 1035 L-327128 1040 L-327108 1040 L-327029 1040 L-326954 1040 L-326934 1034 L-326121 1034 L-325368 1034 L-324148 1034 L-322717 1034 L-322620 1034 L-322446 1034 L-322092 1034 L-320782 1034 L-318925 1034 L-317223 1034 L-316720 1034 L-316454 1034 L-316061 1034 L-315927 1034 L-315017 1034 L-314641 1034 L-313712 1034 L-313373 1033 L-313334 1033 L-313296 1033 L-311381 1033 L-311207 1033 L-309678 1033 L-309350 1033 L-309234 1033 L-308827 1033 L-308479 1033 L-306835 1033 L-306284 1033 L-306041 1033 L-305500 1033 L-304668 1033 L-304127 1033 L-302592 1033 L-302500 1032 L-302463 1032 L-302327 1032 L-301940 1032 L-300915 1032 L-299038 1032 L-298942 1032 L-298342 1034 L-297975 1036 L-297490 1038 L-297452 1040 L-296678 1040 L-296621 1040 L-296446 1039 L-296253 1039 L-294647 1039 L-294627 1039 L-294472 1039 L-294357 1039 L-293177 1039 L-293022 1040 L-292355 1040 L-289907 1044 L-287392 1049 L-284723 1053 L-277023 1058 L-271356 1058 L-269141 1057 L-269118 1057 L-268144 1059 L-268124 1059 L-267260 1058 L-264520 1058 L-258722 1057 L-258568 1057 L-255782 1057 L-242174 1057 L-241428 1057 L-237017 1057 L-220671 1057 L-220439 1057 L-219902 1057 L-211443 1057 L-202737 1056 L-202525 1056 L-200552 1056 L-197766 1056 L-193278 1056 L-193124 1056 L-192954 1056 L-192814 1056 L-192523 1056 L-192485 1056 L-192214 1056 L-192042 1056 L-191632 1056 L-190512 1056 L-189331 1056 L-188054 1056 L-185191 1056 L-182270 1056 L-180278 1056 L-178731 1056 L-175693 1055 L-166368 1055 L-165844 1055 L-160121 1055 L-158613 1055 L-157799 1055 L-156115 1055 L-155394 1055 L-155226 1055 L-154181 1055 L-152113 1055 L-150751 1055 L-146308 1055 L-146211 1055 L-146172 1055 L-146153 1055 L-145321 1055 L-145243 1055 L-142671 1055 L-139421 1054 L-139266 1054 L-138318 1054 L-136577 1054 L-135862 1055 L-132321 1055 L-125744 1055 L-124326 1056 L-124305 1056 L-123355 1055 L-119881 1055 L-119127 1055 L-118566 1055 L-117784 1055 L-110280 1055 L-108681 1055 L-107107 1055 L-103922 1055 L-99589 1055 L-91019 1055 L-82273 1055 L-79199 1055 L-75933 1055 L-75386 1055 L-68249 1055 L-62581 1055 L-48517 1055 L-42506 1055 L-37799 1055 L-33796 1055 L-28689 1054 L-18975 1054 L-3404 1054 L-321 1054 L-19 1030 L0 999 L18 965 L38 927 L58 909 L77 894 L96 881 L123 868 L144 855 L172 841 L207 826 L221 813 L234 802 L252 793 L271 786 L291 779 L309 772 L329 765 L349 758 L370 751 L387 744 L405 737 L426 730 L446 723 L464 716 L483 709 L503 701 L523 693 L541 686 L560 679 L581 672 L606 666 L621 659 L638 653 L657 647 L677 641 L696 634 L715 627 L735 620 L756 614 L773 608 L792 603 L813 597 L833 592 L851 588 L869 584 L890 580 L908 576 L928 572 L947 569 L967 566 L986 563 L1006 560 L1024 557 L1052 553 L1073 549 L1100 545 L1134 540 L1149 537 L1162 533 L1180 530 L1199 527 L1219 525 L1238 521 L1257 518 L1277 515 L1298 512 L1315 509 L1334 506 L1354 503 L1374 500 L1393 496 L1411 492 L1431 488 L1451 483 L1470 479 L1489 475 L1510 470 L1534 464 L1549 459 L1566 454 L1586 449 L1605 444 L1625 439 L1643 434 L1663 428 L1684 423 L1702 418 L1721 413 L1741 409 L1761 404 L1779 400 L1798 396 L1818 392 L1837 388 L1857 384 L1875 381 L1895 377 L1915 374 L1934 370 L1953 366 L1982 363 L2001 359 L2029 356 L2066 352 L2081 348 L2094 344 L2111 341 L2128 338 L2148 336 L2166 334 L2186 332 L2206 330 L2226 328 L2244 326 L2262 323 L2283 321 L2302 318 L2321 315 L2340 312 L2360 309 L2379 306 L2398 303 L2417 299 L2438 296 L2462 293 L2477 290 L2494 287 L2514 283 L2533 280 L2553 277 L2572 273 L2592 270 L2612 267 L2631 263 L2649 260 L2669 257 L2690 254 L2708 252 L2727 249 L2747 246 L2765 244 L2785 241 L2804 238 L2824 236 L2843 233 L2863 231 L2881 228 L2910 226 L2930 223 L2958 220 L2994 216 L3008 212 L3021 209 L3039 206 L3057 204 L3077 202 L3095 199 L3115 196 L3135 194 L3156 190 L3174 187 L3191 184 L3212 180 L3232 177 L3250 173 L3269 169 L3289 164 L3309 161 L3327 157 L3346 154 L3367 152 L3392 150 L3407 148 L3424 146 L3443 144 L3463 141 L3482 139 L3501 137 L3521 135 L3542 134 L3559 132 L3578 130 L3599 128 L3619 125 L3636 122 L3655 120 L3675 119 L3694 117 L3714 116 L3733 115 L3753 114 L3772 112 L3791 110 L3810 109 L3838 108 L3858 106 L3886 105 L3921 103 L3935 102 L3948 100 L3967 99 L3985 98 L4005 97 L4024 96 L4043 95 L4063 94 L4084 93 L4101 92 L4120 91 L4140 89 L4160 88 L4178 87 L4197 86 L4217 85 L4237 84 L4255 83 L4274 82 L4296 80 L4320 79 L4335 79 L4352 78 L4372 77 L4391 76 L4410 75 L4429 73 L4449 72 L4470 71 L4488 70 L4507 69 L4527 68 L4548 67 L4565 66 L4584 65 L4604 64 L4623 63 L4642 62 L4661 62 L4681 61 L4701 60 L4720 60 L4739 61 L4767 62 L4787 63 L4815 64 L4852 63 L4868 62 L4880 61 L4898 61 L4914 60 L4934 60 L4952 59 L4972 58 L4992 58 L5013 57 L5030 57 L5048 56 L5069 56 L5089 55 L5107 54 L5126 54 L5146 53 L5166 52 L5184 52 L5203 51 L5224 51 L5249 50 L5263 50 L5281 49 L5300 48 L5320 48 L5339 47 L5358 46 L5378 46 L5399 45 L5416 44 L5435 43 L5456 42 L5476 41 L5494 41 L5512 40 L5532 39 L5551 38 L5571 38 L5590 37 L5610 36 L5629 35 L5648 35 L5667 34 L5695 33 L5715 33 L5743 32 L5778 31 L5792 30 L5805 29 L5824 29 L5842 28 L5863 28 L5881 27 L5900 26 L5920 26 L5941 25 L5958 24 L5977 24 L5997 23 L6017 22 L6036 21 L6054 20 L6074 19 L6095 18 L6113 17 L6131 16 L6153 15 L6178 14 L6192 13 L6210 12 L6229 11 L6248 10 L6267 9 L6286 8 L6307 7 L6327 7 L6345 6 L6364 5 L6384 4 L6405 3 L6422 2 L6441 2 L6461 1 L6480 1 L6500 0" />
</svg>
