<svg xmlns="http://www.w3.org/2000/svg" version="1.1" viewBox="0 0 6500 1000">
	<path fill="none" stroke="gold" stroke-width="125" stroke-linecap="round" stroke-linejoin="round" d="M0 3317  L-728063 3317 L-725459 3317 L-723791 3317 L-705461 3316 L-705291 3316 L-698133 3316 L-698100 3316 L-684669 3316 L-681747 3316 L-668406 3315 L-664237 3315 L-663077 3314 L-662458 3313 L-660446 3313 L-656675 3313 L-656074 3312 L-655746 3312 L-655533 3312 L-654991 3311 L-653753 3310 L-652574 3309 L-649710 3308 L-649187 3307 L-644332 3306 L-641395 3306 L-641352 3306 L-641043 3306 L-640791 3305 L-638197 3305 L-633941 3305 L-633923 3305 L-632686 3305 L-630809 3305 L-628855 3305 L-627907 3304 L-627637 3304 L-627327 3304 L-627229 3304 L-626398 3304 L-624368 3304 L-624077 3303 L-621931 3302 L-621775 3301 L-618119 3300 L-617868 3301 L-617769 3301 L-617252 3301 L-615101 3302 L-614172 3303 L-612646 3303 L-611407 3303 L-609860 3303 L-606898 3303 L-605777 3303 L-605467 3302 L-604256 3302 L-601249 3304 L-601230 3304 L-600882 3303 L-600669 3303 L-600543 3301 L-600302 3301 L-600264 3301 L-600244 3300 L-600225 3300 L-600166 3300 L-600107 3300 L-600089 3299 L-599646 3299 L-598407 3299 L-596861 3298 L-593473 3298 L-587747 3298 L-587545 3298 L-585910 3298 L-584188 3298 L-582755 3297 L-582523 3297 L-581808 3297 L-575676 3297 L-575308 3297 L-575154 3296 L-574575 3296 L-574283 3296 L-573315 3296 L-573006 3295 L-572407 3295 L-570800 3295 L-570065 3295 L-569755 3295 L-568987 3295 L-566951 3295 L-566526 3295 L-565713 3294 L-558285 3294 L-557762 3294 L-557588 3294 L-556853 3293 L-555285 3293 L-554880 3293 L-552655 3293 L-551707 3292 L-551282 3292 L-550951 3292 L-549908 3292 L-547800 3292 L-547547 3292 L-546928 3291 L-546116 3291 L-544008 3291 L-543959 3291 L-542031 3290 L-541705 3290 L-541570 3290 L-541067 3289 L-539655 3289 L-539152 3289 L-538630 3288 L-535070 3288 L-534335 3287 L-531910 3287 L-530621 3287 L-530214 3287 L-527061 3287 L-526907 3287 L-526886 3287 L-526520 3287 L-525262 3287 L-524547 3287 L-523657 3287 L-523250 3287 L-522321 3287 L-521212 3287 L-520909 3287 L-514660 3288 L-513713 3288 L-512087 3288 L-511585 3288 L-507909 3289 L-507077 3289 L-503124 3289 L-501712 3288 L-499223 3288 L-498546 3288 L-498508 3288 L-497637 3288 L-494426 3288 L-491563 3287 L-490595 3287 L-489473 3287 L-489454 3287 L-487829 3286 L-487365 3286 L-487273 3286 L-480904 3286 L-479955 3286 L-477498 3285 L-476626 3285 L-475390 3285 L-473389 3285 L-472991 3285 L-471555 3284 L-469529 3284 L-469315 3284 L-468135 3284 L-466627 3284 L-466607 3283 L-464594 3283 L-463725 3283 L-462854 3283 L-462269 3283 L-461732 3282 L-461074 3282 L-459836 3282 L-459276 3282 L-458094 3281 L-456857 3281 L-456818 3281 L-456431 3281 L-455890 3281 L-455116 3281 L-453994 3280 L-451905 3280 L-451571 3280 L-451285 3280 L-450357 3279 L-449874 3279 L-449138 3279 L-445507 3279 L-444379 3279 L-444225 3279 L-443199 3278 L-439484 3278 L-438267 3278 L-436448 3278 L-433662 3277 L-433101 3277 L-429213 3277 L-426737 3277 L-425402 3277 L-424898 3277 L-424415 3277 L-421726 3277 L-417954 3277 L-415497 3277 L-414317 3277 L-413678 3277 L-411318 3276 L-411241 3276 L-410194 3276 L-410100 3276 L-409597 3276 L-409152 3276 L-409094 3276 L-408880 3276 L-405921 3275 L-403213 3275 L-403058 3275 L-399537 3275 L-399015 3275 L-398047 3274 L-397698 3274 L-396655 3274 L-395726 3274 L-395300 3274 L-393791 3274 L-392824 3273 L-392805 3273 L-390909 3263 L-390793 3252 L-390746 3241 L-390721 3231 L-387717 3230 L-385686 3230 L-383925 3230 L-383558 3230 L-383113 3230 L-382746 3229 L-382332 3229 L-380347 3229 L-380134 3229 L-379979 3229 L-378374 3229 L-377252 3229 L-376304 3229 L-375046 3228 L-373402 3228 L-372222 3228 L-365633 3228 L-365586 3228 L-365180 3227 L-364135 3227 L-364000 3227 L-362317 3227 L-362297 3227 L-360960 3226 L-359724 3226 L-359570 3226 L-359196 3226 L-358990 3226 L-358680 3226 L-357907 3225 L-355585 3225 L-354927 3225 L-352799 3225 L-351077 3225 L-350884 3224 L-348330 3224 L-348054 3224 L-347866 3224 L-347033 3224 L-346261 3223 L-345563 3223 L-340562 3223 L-340186 3223 L-335933 3223 L-335446 3237 L-335427 3237 L-335348 3237 L-335273 3237 L-335253 3222 L-334440 3222 L-333686 3222 L-332467 3222 L-331035 3222 L-330939 3221 L-330765 3221 L-330410 3221 L-329101 3221 L-327244 3221 L-325541 3221 L-325039 3220 L-324773 3220 L-324380 3220 L-324246 3220 L-323336 3220 L-322960 3220 L-322031 3220 L-321692 3220 L-321652 3220 L-321615 3219 L-319699 3219 L-319526 3219 L-317997 3219 L-317669 3219 L-317553 3219 L-317145 3219 L-316797 3219 L-315154 3218 L-314603 3218 L-314360 3218 L-313818 3218 L-312987 3218 L-312445 3217 L-310911 3217 L-310818 3217 L-310781 3217 L-310646 3217 L-310258 3217 L-309234 3216 L-307357 3216 L-307261 3216 L-306661 3221 L-306293 3226 L-305809 3231 L-305771 3236 L-304997 3236 L-304939 3236 L-304765 3235 L-304571 3235 L-302966 3235 L-302946 3235 L-302791 3235 L-302676 3235 L-301496 3235 L-301341 3236 L-300674 3236 L-298226 3248 L-295711 3260 L-293041 3271 L-285342 3283 L-279674 3283 L-277460 3283 L-277437 3283 L-276463 3286 L-276443 3286 L-275579 3285 L-272839 3285 L-267040 3282 L-266887 3282 L-264101 3282 L-250493 3282 L-249747 3281 L-245336 3281 L-228990 3281 L-228758 3281 L-228221 3281 L-219761 3280 L-211056 3280 L-210843 3280 L-208871 3280 L-206085 3280 L-201597 3280 L-201442 3280 L-201273 3280 L-201133 3280 L-200842 3280 L-200803 3279 L-200533 3279 L-200361 3279 L-199951 3279 L-198830 3279 L-197650 3279 L-196373 3279 L-193509 3278 L-190589 3278 L-188597 3278 L-187049 3278 L-184011 3278 L-174687 3278 L-174163 3277 L-168439 3277 L-166932 3277 L-166118 3277 L-164434 3277 L-163713 3277 L-163544 3277 L-162499 3277 L-160432 3276 L-159070 3276 L-154627 3276 L-154529 3276 L-154491 3276 L-154472 3276 L-153639 3276 L-153562 3275 L-150989 3275 L-147740 3275 L-147585 3275 L-146637 3275 L-144896 3274 L-144180 3275 L-140640 3276 L-134062 3277 L-132645 3278 L-132624 3278 L-131674 3278 L-128199 3278 L-127446 3277 L-126884 3277 L-126102 3277 L-118598 3277 L-117000 3277 L-115426 3277 L-112240 3276 L-107907 3276 L-99338 3276 L-90591 3276 L-87518 3276 L-84251 3276 L-83705 3276 L-76568 3275 L-70900 3275 L-56836 3275 L-50824 3276 L-46118 3275 L-42115 3275 L-37007 3275 L-27293 3275 L-11723 3275 L-8640 3274 L-8338 3209 L-8318 3130 L-8299 3039 L-8280 2938 L-8260 2892 L-8241 2853 L-8222 2817 L-8194 2781 L-8174 2747 L-8146 2711 L-8110 2671 L-8097 2637 L-8084 2608 L-8065 2584 L-8047 2566 L-8027 2548 L-8008 2529 L-7989 2511 L-7969 2493 L-7948 2473 L-7931 2455 L-7913 2436 L-7892 2419 L-7872 2401 L-7854 2382 L-7835 2362 L-7815 2341 L-7795 2321 L-7776 2302 L-7758 2284 L-7736 2266 L-7712 2249 L-7697 2232 L-7680 2215 L-7660 2199 L-7641 2182 L-7622 2165 L-7603 2147 L-7583 2129 L-7562 2113 L-7544 2097 L-7525 2083 L-7505 2069 L-7484 2055 L-7467 2044 L-7448 2033 L-7428 2022 L-7409 2011 L-7390 2001 L-7371 1992 L-7351 1984 L-7331 1977 L-7312 1969 L-7293 1961 L-7266 1952 L-7245 1942 L-7217 1930 L-7183 1918 L-7169 1908 L-7156 1899 L-7137 1891 L-7118 1884 L-7098 1876 L-7080 1868 L-7061 1859 L-7041 1851 L-7020 1843 L-7003 1836 L-6984 1828 L-6964 1820 L-6944 1811 L-6925 1801 L-6907 1790 L-6887 1779 L-6867 1767 L-6848 1756 L-6829 1744 L-6808 1731 L-6784 1717 L-6769 1703 L-6752 1690 L-6732 1677 L-6713 1664 L-6693 1650 L-6674 1636 L-6654 1622 L-6634 1609 L-6616 1595 L-6597 1582 L-6577 1570 L-6556 1558 L-6539 1547 L-6520 1536 L-6500 1525 L-6481 1516 L-6461 1506 L-6442 1497 L-6422 1487 L-6403 1477 L-6384 1468 L-6365 1459 L-6336 1449 L-6316 1440 L-6289 1431 L-6251 1420 L-6236 1410 L-6224 1400 L-6207 1391 L-6190 1385 L-6170 1379 L-6151 1373 L-6132 1368 L-6112 1362 L-6091 1357 L-6074 1351 L-6055 1344 L-6035 1338 L-6015 1331 L-5997 1324 L-5978 1316 L-5958 1308 L-5938 1299 L-5919 1290 L-5901 1282 L-5880 1274 L-5855 1265 L-5841 1257 L-5823 1248 L-5803 1240 L-5784 1231 L-5765 1222 L-5746 1213 L-5726 1204 L-5705 1195 L-5687 1186 L-5668 1179 L-5648 1171 L-5628 1163 L-5610 1156 L-5591 1149 L-5571 1142 L-5552 1135 L-5533 1127 L-5514 1120 L-5494 1114 L-5475 1107 L-5455 1100 L-5436 1094 L-5408 1087 L-5388 1080 L-5360 1072 L-5324 1062 L-5310 1052 L-5297 1042 L-5279 1034 L-5261 1029 L-5241 1023 L-5223 1017 L-5203 1010 L-5183 1002 L-5162 994 L-5144 986 L-5127 977 L-5106 968 L-5086 958 L-5068 947 L-5049 936 L-5029 925 L-5009 915 L-4991 906 L-4972 898 L-4951 892 L-4926 886 L-4911 881 L-4894 876 L-4875 870 L-4855 865 L-4836 859 L-4817 853 L-4797 848 L-4776 844 L-4759 840 L-4740 835 L-4719 828 L-4698 821 L-4681 814 L-4662 809 L-4642 804 L-4624 801 L-4604 798 L-4585 795 L-4565 791 L-4546 787 L-4526 783 L-4508 779 L-4480 776 L-4459 772 L-4432 768 L-4397 763 L-4383 759 L-4370 756 L-4351 753 L-4332 750 L-4313 747 L-4294 744 L-4275 741 L-4255 739 L-4234 736 L-4217 733 L-4198 730 L-4177 727 L-4157 724 L-4139 720 L-4121 717 L-4101 715 L-4080 712 L-4062 709 L-4043 707 L-4022 704 L-3997 701 L-3983 699 L-3966 696 L-3946 694 L-3927 691 L-3907 688 L-3888 685 L-3869 682 L-3848 679 L-3830 676 L-3811 673 L-3791 671 L-3770 668 L-3753 666 L-3734 663 L-3714 661 L-3695 658 L-3675 656 L-3657 654 L-3636 652 L-3617 650 L-3598 649 L-3579 652 L-3550 655 L-3531 658 L-3503 660 L-3465 658 L-3450 656 L-3437 654 L-3420 652 L-3404 651 L-3384 649 L-3366 647 L-3346 646 L-3326 644 L-3305 643 L-3288 641 L-3270 640 L-3249 638 L-3229 637 L-3211 635 L-3192 633 L-3172 631 L-3152 630 L-3134 628 L-3115 627 L-3094 625 L-3069 624 L-3054 622 L-3037 621 L-3017 619 L-2998 617 L-2979 616 L-2960 614 L-2940 612 L-2919 609 L-2902 607 L-2883 605 L-2862 603 L-2841 601 L-2824 599 L-2805 597 L-2785 595 L-2766 593 L-2747 591 L-2728 588 L-2708 586 L-2688 584 L-2669 583 L-2651 581 L-2623 579 L-2602 577 L-2574 575 L-2539 573 L-2526 571 L-2513 569 L-2494 567 L-2475 566 L-2455 564 L-2437 562 L-2417 561 L-2398 559 L-2377 557 L-2360 555 L-2341 554 L-2320 552 L-2300 549 L-2282 547 L-2263 544 L-2244 541 L-2223 539 L-2205 536 L-2186 534 L-2165 531 L-2140 529 L-2125 526 L-2108 524 L-2089 521 L-2069 519 L-2050 516 L-2031 513 L-2011 511 L-1990 509 L-1973 506 L-1954 504 L-1933 502 L-1913 500 L-1896 498 L-1877 496 L-1857 495 L-1838 493 L-1818 491 L-1799 490 L-1780 489 L-1760 487 L-1741 486 L-1722 485 L-1694 484 L-1674 482 L-1646 481 L-1610 478 L-1597 476 L-1583 473 L-1565 471 L-1547 469 L-1527 468 L-1508 466 L-1489 465 L-1469 463 L-1448 461 L-1431 460 L-1412 457 L-1392 456 L-1372 454 L-1354 451 L-1335 449 L-1315 447 L-1294 445 L-1277 443 L-1258 442 L-1236 440 L-1211 439 L-1197 437 L-1180 435 L-1160 434 L-1141 432 L-1122 430 L-1103 427 L-1083 425 L-1062 422 L-1044 419 L-1025 417 L-1005 415 L-984 413 L-967 411 L-948 410 L-928 409 L-909 408 L-890 406 L-871 405 L-851 404 L-831 402 L-812 401 L-793 400 L-766 399 L-745 398 L-717 396 L-683 395 L-669 394 L-656 393 L-637 392 L-618 391 L-599 390 L-580 389 L-561 388 L-541 387 L-520 387 L-503 386 L-484 385 L-464 383 L-444 382 L-425 381 L-407 380 L-387 379 L-366 379 L-348 378 L-329 377 L-308 377 L-283 376 L-269 375 L-252 373 L-232 372 L-213 372 L-193 371 L-174 370 L-154 368 L-134 367 L-116 365 L-97 363 L-77 360 L-56 359 L-38 357 L-19 356 L0 355 L18 353 L38 352 L57 351 L77 350 L96 348 L115 347 L134 347 L163 346 L211 345 L247 344 L262 342 L275 341 L292 341 L309 340 L329 340 L348 339 L367 338 L387 337 L407 337 L425 336 L444 335 L464 335 L484 334 L502 333 L521 332 L541 331 L561 330 L579 329 L598 328 L620 327 L644 325 L659 323 L676 322 L696 320 L715 319 L734 318 L753 316 L773 315 L794 314 L812 312 L831 311 L851 310 L871 308 L889 307 L908 306 L928 305 L947 305 L966 304 L985 302 L1005 301 L1025 300 L1044 299 L1063 298 L1091 297 L1111 296 L1139 294 L1176 292 L1190 290 L1203 288 L1221 286 L1238 285 L1258 284 L1276 283 L1296 282 L1316 282 L1337 281 L1354 280 L1372 278 L1393 277 L1413 275 L1431 274 L1450 271 L1470 269 L1491 267 L1508 266 L1527 264 L1548 263 L1573 261 L1588 260 L1606 258 L1624 257 L1645 256 L1663 255 L1682 253 L1702 251 L1724 249 L1740 248 L1760 247 L1780 246 L1801 244 L1818 243 L1837 242 L1856 241 L1876 240 L1895 239 L1914 238 L1934 237 L1954 235 L1973 235 L1991 234 L2019 997 L2040 996 L2067 995 L2103 993 L2117 227 L2131 225 L2149 224 L2167 223 L2186 223 L2205 222 L2224 221 L2244 220 L2266 218 L2282 217 L2301 215 L2322 213 L2342 211 L2360 209 L2379 207 L2398 205 L2419 204 L2437 203 L2456 201 L2477 200 L2502 198 L2517 197 L2547 194 L2586 192 L2609 190 L2639 187 L2655 185 L2669 183 L2688 182 L2709 181 L2729 180 L2746 179 L2765 178 L2785 176 L2804 176 L2824 175 L2843 174 L2862 174 L2883 173 L2901 172 L2920 171 L2948 170 L2968 169 L2996 168 L3031 167 L3045 165 L3077 164 L3095 163 L3115 162 L3134 162 L3153 161 L3173 160 L3194 160 L3211 159 L3229 157 L3250 154 L3271 151 L3288 147 L3307 144 L3327 141 L3347 138 L3365 136 L3384 135 L3406 133 L3431 132 L3446 131 L3463 129 L3482 128 L3502 126 L3520 125 L3540 124 L3559 122 L3581 120 L3597 119 L3617 117 L3637 116 L3658 115 L3675 114 L3694 113 L3714 112 L3733 111 L3752 110 L3771 109 L3791 108 L3811 107 L3830 106 L3848 105 L3876 104 L3897 103 L3967 101 L3995 99 L4009 97 L4024 94 L4044 93 L4062 92 L4081 91 L4101 89 L4122 88 L4139 87 L4158 86 L4179 86 L4199 85 L4217 84 L4236 82 L4256 81 L4276 79 L4294 78 L4313 77 L4334 76 L4359 75 L4374 74 L4392 73 L4410 71 L4430 70 L4449 69 L4468 67 L4488 66 L4509 65 L4526 64 L4545 63 L4566 62 L4587 61 L4603 60 L4661 59 L4681 58 L4700 57 L4720 57 L4740 56 L4758 55 L4777 54 L4805 54 L4825 53 L4853 53 L4890 52 L4904 51 L4917 50 L4935 50 L4952 49 L4972 49 L4991 48 L5010 48 L5030 47 L5051 47 L5068 47 L5087 46 L5107 45 L5127 45 L5146 44 L5164 43 L5184 42 L5205 42 L5223 41 L5241 40 L5263 39 L5288 39 L5302 38 L5319 38 L5339 37 L5359 36 L5377 35 L5397 34 L5416 33 L5438 32 L5455 31 L5474 30 L5494 30 L5515 29 L5532 29 L5551 28 L5571 28 L5590 27 L5609 27 L5628 26 L5648 26 L5668 26 L5687 25 L5706 25 L5733 24 L5754 24 L5782 23 L5817 23 L5831 22 L5844 21 L5862 21 L5881 20 L5901 20 L5919 19 L5958 19 L5979 18 L5996 18 L6015 17 L6035 17 L6055 16 L6074 15 L6092 14 L6112 13 L6132 13 L6151 12 L6170 11 L6191 11 L6215 10 L6230 10 L6247 9 L6267 9 L6286 8 L6306 7 L6325 7 L6345 6 L6365 5 L6383 5 L6402 4 L6423 3 L6443 3 L6460 2 L6479 2 L6500 1" />
</svg>
