<svg xmlns="http://www.w3.org/2000/svg" version="1.1" viewBox="0 0 6500 1000">
	<path fill="none" stroke="gold" stroke-width="125" stroke-linecap="round" stroke-linejoin="round" d="M0 62092  L-407203 62092 L-404599 62001 L-402931 61911 L-384601 61730 L-384431 61550 L-377273 61369 L-377240 61369 L-363809 61279 L-360887 61369 L-347546 61098 L-343377 60737 L-342217 60285 L-341598 59833 L-339586 59562 L-335814 59382 L-335214 59201 L-334886 59020 L-334673 58840 L-334131 58659 L-332893 57936 L-331714 57214 L-328850 56491 L-328327 55768 L-323472 55588 L-320535 55407 L-320492 55226 L-320183 55046 L-319931 54865 L-317337 54684 L-313081 54684 L-313063 54684 L-311826 54684 L-309949 54684 L-307995 54504 L-307047 54323 L-306777 54142 L-306467 54052 L-306369 53962 L-305538 53962 L-303507 54052 L-303217 53239 L-301071 52878 L-300915 52336 L-297259 51794 L-297008 52065 L-296909 51974 L-296392 52245 L-294241 52697 L-293312 53149 L-291786 53600 L-290547 53600 L-289000 53510 L-286038 53329 L-284917 53149 L-284607 52968 L-283396 52878 L-280389 53871 L-280370 53781 L-280022 53691 L-279809 53600 L-279683 52336 L-279442 52155 L-279404 51974 L-279384 51794 L-279365 51613 L-279306 51432 L-279247 51252 L-279229 51071 L-278786 50890 L-277547 50710 L-276001 50529 L-272613 50348 L-266887 50258 L-266685 50168 L-265049 50077 L-263328 49987 L-261895 49897 L-261663 49806 L-260948 49716 L-254816 49626 L-254448 49445 L-254293 49264 L-253715 49084 L-253423 48903 L-252455 48722 L-252146 48542 L-251547 48361 L-249940 48361 L-249205 48361 L-248895 48451 L-248127 48451 L-246091 48271 L-245666 48090 L-244853 48000 L-237425 47819 L-236902 47638 L-236728 47457 L-235993 47277 L-234425 47096 L-234020 47006 L-231795 46825 L-230847 46735 L-230422 46644 L-230091 46644 L-229048 46554 L-226939 46373 L-226687 46193 L-226068 46012 L-225256 45922 L-223148 45741 L-223099 45560 L-221171 45380 L-220845 45199 L-220710 45018 L-220207 44928 L-218795 44747 L-218292 44386 L-217770 44115 L-214210 43754 L-213475 43392 L-211050 43392 L-209761 43212 L-209354 43121 L-206201 43121 L-206047 43121 L-206026 43212 L-205660 43212 L-204402 43302 L-203687 43392 L-202797 43392 L-202390 43392 L-201461 43392 L-200352 43302 L-200049 43663 L-193800 43844 L-192853 44025 L-191227 44205 L-190725 44296 L-187049 44386 L-186217 44476 L-182264 44567 L-180852 44296 L-178363 44115 L-177686 43934 L-177648 43844 L-176777 43844 L-173566 43754 L-170702 43663 L-169735 43573 L-168613 43392 L-168594 43212 L-166969 43031 L-166505 42760 L-166413 42670 L-160044 42579 L-159095 42489 L-156638 42399 L-155766 42218 L-154530 42128 L-152528 42037 L-152131 41857 L-150695 41676 L-148669 41586 L-148455 41405 L-147275 41315 L-145767 41224 L-145747 41134 L-143734 41044 L-142865 40863 L-141994 40773 L-141409 40592 L-140872 40411 L-140214 40231 L-138976 40050 L-138416 39960 L-137234 39869 L-135997 39779 L-135958 39689 L-135571 39598 L-135030 39418 L-134256 39327 L-133134 39237 L-131045 39056 L-130711 38876 L-130425 38695 L-129497 38605 L-129014 38424 L-128278 38334 L-124647 38243 L-123519 38153 L-123365 38063 L-122339 37882 L-118624 37792 L-117407 37611 L-115588 37430 L-112802 37340 L-112241 37159 L-108353 37159 L-105877 37069 L-104542 37069 L-104038 36979 L-103555 36888 L-100866 36888 L-97094 36888 L-94637 36888 L-93457 36888 L-92818 36798 L-90458 36617 L-90381 36527 L-89333 36437 L-89240 36256 L-88737 36256 L-88292 36256 L-88234 36256 L-88020 36256 L-85061 36075 L-82353 35985 L-82198 35895 L-78677 35804 L-78155 35624 L-77187 35443 L-76838 35353 L-75795 35172 L-74866 34991 L-74440 34901 L-72931 34901 L-71964 34811 L-71945 34720 L-70049 28126 L-69933 21351 L-69885 14666 L-69861 7981 L-66857 7891 L-64826 7710 L-63065 7620 L-62698 7530 L-62253 7349 L-61886 7259 L-61472 7078 L-59487 6988 L-59274 6988 L-59119 6897 L-57514 6897 L-56392 6807 L-55444 6717 L-54186 6536 L-52542 6446 L-51362 6265 L-44773 6175 L-44726 6084 L-44320 5994 L-43275 5904 L-43140 5813 L-41457 5633 L-41437 5542 L-40100 5362 L-38864 5271 L-38710 5181 L-38336 5000 L-38130 4910 L-37820 4820 L-37047 4639 L-34725 4549 L-34067 4458 L-31939 4368 L-30217 4278 L-30024 4097 L-27470 4007 L-27194 3826 L-27006 3645 L-26173 3555 L-25401 3465 L-24703 3374 L-19702 3374 L-19326 3194 L-15073 3103 L-14586 12046 L-14567 12046 L-14488 11956 L-14413 11866 L-14393 2652 L-13580 2561 L-12826 2381 L-11607 2290 L-10175 2290 L-10079 2200 L-9905 2200 L-9550 2019 L-8241 1929 L-6384 1839 L-4681 1658 L-4178 1568 L-3913 1477 L-3520 1387 L-3386 1297 L-2476 1206 L-2100 1116 L-1171 1116 L-832 1026 L-792 1026 L-755 935 L1160 935 L1333 845 L2862 845 L3190 755 L3306 664 L3714 484 L4062 393 L5705 213 L6256 122 L6500 32" />
</svg>
