<svg xmlns="http://www.w3.org/2000/svg" version="1.1" viewBox="0 0 6500 1000">
	<path fill="none" stroke="gold" stroke-width="125" stroke-linecap="round" stroke-linejoin="round" d="M0 81546  L-310244 81546 L-307640 81257 L-305972 80968 L-287642 80390 L-287472 79812 L-280314 79234 L-280281 79234 L-266850 78945 L-263928 79234 L-250587 78367 L-246418 77210 L-245258 75765 L-244639 74320 L-242627 73453 L-238856 72875 L-238256 72297 L-237927 71719 L-237714 71141 L-237172 70563 L-235934 68251 L-234755 65939 L-231891 63627 L-231369 61315 L-226513 60736 L-223576 60158 L-223533 59580 L-223224 59002 L-222973 58424 L-220378 57846 L-216122 57846 L-216104 57846 L-214867 57846 L-212990 57846 L-211037 57268 L-210089 56690 L-209818 56112 L-209508 55823 L-209410 55534 L-208579 55534 L-206549 55823 L-206258 53222 L-204112 52066 L-203956 50332 L-200300 48598 L-200049 49465 L-199950 49176 L-199433 50043 L-197282 51488 L-196353 52933 L-194827 54378 L-193588 54378 L-192041 54089 L-189079 53511 L-187958 52933 L-187648 52355 L-186437 52066 L-183431 55245 L-183411 54956 L-183064 54667 L-182850 54378 L-182724 50332 L-182483 49754 L-182445 49176 L-182425 48598 L-182406 48020 L-182347 47442 L-182288 46864 L-182270 46286 L-181827 45708 L-180588 45130 L-179042 44552 L-175654 43973 L-169928 43684 L-169726 43395 L-168091 43106 L-166369 42817 L-164937 42528 L-164704 42239 L-163989 41950 L-157857 41661 L-157489 41083 L-157335 40505 L-156756 39927 L-156464 39349 L-155496 38771 L-155187 38193 L-154588 37615 L-152981 37615 L-152246 37615 L-151937 37904 L-151168 37904 L-149132 37326 L-148707 36748 L-147894 36459 L-140466 35881 L-139943 35303 L-139769 34725 L-139034 34147 L-137466 33569 L-137061 33280 L-134836 32702 L-133888 32413 L-133463 32124 L-133133 32124 L-132089 31835 L-129981 31257 L-129728 30679 L-129110 30101 L-128297 29812 L-126189 29234 L-126140 28656 L-124212 28078 L-123887 27500 L-123752 26921 L-123248 26632 L-121836 26054 L-121333 24898 L-120811 24031 L-117251 22875 L-116516 21719 L-114091 21719 L-112802 21141 L-112395 20852 L-109243 20852 L-109088 20852 L-109067 21141 L-108701 21141 L-107443 21430 L-106728 21719 L-105838 21719 L-105431 21719 L-104502 21719 L-103394 21430 L-103090 22586 L-96841 23164 L-95894 23742 L-94268 24320 L-93766 24609 L-90091 24898 L-89258 25187 L-85305 25476 L-83893 24609 L-81404 24031 L-80727 23453 L-80689 23164 L-79818 23164 L-76607 22875 L-73744 22586 L-72776 22297 L-71654 21719 L-71635 21141 L-70010 20563 L-69546 19696 L-69454 19407 L-63085 19118 L-62136 18829 L-59679 18540 L-58807 17962 L-57571 17673 L-55570 17384 L-55172 16806 L-53736 16228 L-51710 15939 L-51496 15361 L-50316 15072 L-48808 14783 L-48788 14494 L-46775 14205 L-45906 13627 L-45035 13338 L-44450 12760 L-43913 12182 L-43255 11604 L-42017 11026 L-41457 10736 L-40276 10447 L-39038 10158 L-38999 9869 L-38613 9580 L-38071 9002 L-37297 8713 L-36175 8424 L-34086 7846 L-33752 7268 L-33467 6690 L-32538 6401 L-32055 5823 L-31319 5534 L-27688 5245 L-26561 4956 L-26406 4667 L-25380 4089 L-21665 3800 L-20448 3222 L-18629 2644 L-15844 2355 L-15282 1777 L-11394 1777 L-8918 1488 L-7583 1488 L-7079 1199 L-6596 910 L-3907 910 L-135 910 L2321 910 L3501 910 L4140 621 L6500 43" />
</svg>
