<svg xmlns="http://www.w3.org/2000/svg" version="1.1" viewBox="0 0 6500 1000">
	<path fill="none" stroke="gold" stroke-width="125" stroke-linecap="round" stroke-linejoin="round" d="M0 24123  L-174015 24123 L-171411 23986 L-169743 23849 L-151413 23575 L-151243 23301 L-144085 23027 L-144052 23027 L-130621 22890 L-127699 23027 L-114358 22616 L-110189 22068 L-109029 21383 L-108410 20698 L-106398 20287 L-102627 20013 L-102027 19739 L-101698 19465 L-101485 19191 L-100943 18917 L-99705 17821 L-98526 16726 L-95662 15630 L-95140 14534 L-90284 14260 L-87347 13986 L-87304 13712 L-86996 13438 L-86744 13164 L-84149 12890 L-79893 12890 L-79875 12890 L-78639 12890 L-76761 12890 L-74808 12616 L-73860 12342 L-73589 12068 L-73279 11931 L-73181 11794 L-72351 11794 L-70320 11931 L-70029 10698 L-67883 10150 L-67727 9328 L-64071 8506 L-63820 8917 L-63721 8780 L-63204 9191 L-61053 9876 L-60124 10561 L-58598 11246 L-57359 11246 L-55812 11109 L-52851 10835 L-51729 10561 L-51419 10287 L-50208 10150 L-47202 11657 L-47182 11520 L-46835 11383 L-46621 11246 L-46495 9328 L-46254 9054 L-46216 8780 L-46196 8506 L-46177 8232 L-46118 7958 L-46059 7684 L-46041 7410 L-45598 7136 L-44359 6863 L-42813 6589 L-39425 6315 L-33699 6178 L-33497 6041 L-31862 5904 L-30140 5767 L-28708 5630 L-28475 5493 L-27760 5356 L-21628 5219 L-21260 4945 L-21106 4671 L-20527 4397 L-20235 4123 L-19267 3849 L-18958 3575 L-18359 3301 L-16752 3301 L-16017 3301 L-15708 3438 L-14939 3438 L-12903 3164 L-12478 2890 L-11665 2753 L-4237 2479 L-3714 2205 L-3540 1931 L-2805 1657 L-1237 1383 L-832 1246 L1392 972 L2340 835 L2765 698 L3095 698 L4139 561 L6247 287 L6500 13" />
</svg>
