<svg xmlns="http://www.w3.org/2000/svg" version="1.1" viewBox="0 0 6500 1000">
	<path fill="none" stroke="gold" stroke-width="125" stroke-linecap="round" stroke-linejoin="round" d="M0 1016  L-718583 1016 L-715979 1015 L-714311 1015 L-695982 1015 L-695812 1015 L-688654 1015 L-688621 1015 L-675190 1015 L-672268 1015 L-658927 1015 L-654758 1015 L-653598 1014 L-652979 1014 L-650967 1014 L-647195 1014 L-646595 1014 L-646266 1014 L-646053 1014 L-645512 1013 L-644274 1013 L-643095 1013 L-640230 1012 L-639708 1012 L-634853 1012 L-631915 1011 L-631872 1011 L-631564 1011 L-631312 1011 L-628717 1011 L-624462 1011 L-624444 1011 L-623207 1011 L-621330 1011 L-619376 1011 L-618428 1011 L-618157 1011 L-617848 1011 L-617749 1011 L-616919 1011 L-614888 1011 L-614598 1010 L-612451 1010 L-612296 1010 L-608640 1009 L-608389 1009 L-608290 1009 L-607773 1010 L-605622 1010 L-604693 1010 L-603167 1010 L-601927 1010 L-600381 1010 L-597419 1010 L-596297 1010 L-595988 1010 L-594777 1010 L-591770 1011 L-591751 1011 L-591403 1010 L-591190 1010 L-591064 1010 L-590822 1010 L-590784 1009 L-590765 1009 L-590745 1009 L-590686 1009 L-590628 1009 L-590610 1009 L-590167 1009 L-588927 1009 L-587382 1009 L-583994 1008 L-578268 1008 L-578066 1008 L-576430 1008 L-574708 1008 L-573276 1008 L-573044 1008 L-572329 1008 L-566196 1008 L-565829 1008 L-565674 1008 L-565096 1008 L-564803 1008 L-563836 1007 L-563526 1007 L-562927 1007 L-561321 1007 L-560586 1007 L-560276 1007 L-559508 1007 L-557472 1007 L-557046 1007 L-556234 1007 L-548805 1007 L-548282 1007 L-548109 1007 L-547374 1007 L-545806 1007 L-545400 1006 L-543175 1006 L-542227 1006 L-541802 1006 L-541472 1006 L-540428 1006 L-538320 1006 L-538068 1006 L-537449 1006 L-536636 1006 L-534529 1006 L-534480 1006 L-532552 1005 L-532226 1005 L-532091 1005 L-531588 1005 L-530175 1005 L-529672 1005 L-529151 1005 L-525591 1005 L-524856 1004 L-522431 1004 L-521142 1004 L-520735 1004 L-517582 1004 L-517427 1004 L-517407 1004 L-517041 1004 L-515782 1004 L-515067 1004 L-514177 1004 L-513770 1004 L-512842 1004 L-511733 1004 L-511430 1004 L-505181 1005 L-504234 1005 L-502608 1005 L-502106 1005 L-498430 1005 L-497598 1005 L-493645 1005 L-492233 1005 L-489744 1005 L-489067 1005 L-489028 1005 L-488158 1005 L-484946 1005 L-482083 1004 L-481115 1004 L-479994 1004 L-479975 1004 L-478350 1004 L-477886 1004 L-477794 1004 L-471424 1004 L-470476 1004 L-468019 1004 L-467147 1004 L-465911 1004 L-463909 1003 L-463512 1003 L-462075 1003 L-460049 1003 L-459836 1003 L-458656 1003 L-457148 1003 L-457127 1003 L-455115 1003 L-454246 1003 L-453375 1003 L-452790 1003 L-452253 1003 L-451595 1002 L-450357 1002 L-449796 1002 L-448615 1002 L-447378 1002 L-447339 1002 L-446952 1002 L-446411 1002 L-445637 1002 L-444515 1002 L-442425 1002 L-442092 1002 L-441806 1001 L-440878 1001 L-440394 1001 L-439659 1001 L-436028 1001 L-434900 1001 L-434745 1001 L-433719 1001 L-430005 1001 L-428787 1001 L-426969 1001 L-424183 1001 L-423622 1001 L-419734 1001 L-417257 1001 L-415922 1001 L-415419 1000 L-414936 1000 L-412247 1000 L-408475 1000 L-406018 1000 L-404838 1000 L-404199 1000 L-401839 1000 L-401762 1000 L-400714 1000 L-400621 1000 L-400118 1000 L-399672 1000 L-399615 1000 L-399401 1000 L-396441 1000 L-393734 1000 L-393579 1000 L-390058 1000 L-389535 1000 L-388568 1000 L-388219 999 L-387175 999 L-386247 999 L-385821 999 L-384312 999 L-383345 999 L-383326 999 L-381430 995 L-381314 991 L-381266 987 L-381242 983 L-378238 983 L-376207 983 L-374446 983 L-374079 983 L-373634 983 L-373267 983 L-372853 983 L-370868 982 L-370655 982 L-370500 982 L-368894 982 L-367773 982 L-366824 982 L-365567 982 L-363922 982 L-362743 982 L-356153 982 L-356107 982 L-355701 982 L-354656 982 L-354520 982 L-352838 982 L-352818 982 L-351481 982 L-350245 981 L-350091 981 L-349717 981 L-349511 981 L-349201 981 L-348427 981 L-346106 981 L-345448 981 L-343320 981 L-341598 981 L-341404 981 L-338851 981 L-338575 981 L-338386 980 L-337554 980 L-336782 980 L-336083 980 L-331083 980 L-330707 980 L-326454 980 L-325967 986 L-325948 986 L-325869 985 L-325793 985 L-325774 980 L-324961 980 L-324207 980 L-322988 980 L-321556 980 L-321460 980 L-321285 980 L-320931 980 L-319622 979 L-317764 979 L-316062 979 L-315559 979 L-315294 979 L-314901 979 L-314767 979 L-313857 979 L-313480 979 L-312552 979 L-312213 979 L-312173 979 L-312136 979 L-310220 979 L-310046 979 L-308518 979 L-308189 979 L-308073 979 L-307666 979 L-307318 979 L-305674 978 L-305123 978 L-304880 978 L-304339 978 L-303508 978 L-302966 978 L-301431 978 L-301339 978 L-301302 978 L-301166 978 L-300779 978 L-299754 978 L-297878 978 L-297782 978 L-297181 979 L-296814 981 L-296330 983 L-296291 985 L-295518 985 L-295460 985 L-295286 985 L-295092 985 L-293487 985 L-293467 985 L-293312 985 L-293196 985 L-292017 985 L-291862 985 L-291195 985 L-288747 989 L-286232 994 L-283562 998 L-275863 1003 L-270195 1003 L-267981 1003 L-267957 1003 L-266983 1004 L-266963 1004 L-266100 1004 L-263360 1004 L-257561 1003 L-257408 1002 L-254622 1002 L-241013 1002 L-240268 1002 L-235857 1002 L-219511 1002 L-219278 1002 L-218741 1002 L-210282 1002 L-201576 1002 L-201364 1002 L-199391 1002 L-196605 1002 L-192118 1002 L-191963 1002 L-191794 1002 L-191654 1002 L-191363 1001 L-191324 1001 L-191053 1001 L-190882 1001 L-190472 1001 L-189351 1001 L-188171 1001 L-186894 1001 L-184030 1001 L-181110 1001 L-179118 1001 L-177570 1001 L-174532 1001 L-165208 1001 L-164684 1001 L-158960 1001 L-157453 1001 L-156638 1001 L-154955 1001 L-154234 1000 L-154065 1000 L-153020 1000 L-150953 1000 L-149591 1000 L-145147 1000 L-145050 1000 L-145012 1000 L-144993 1000 L-144160 1000 L-144082 1000 L-141510 1000 L-138261 1000 L-138106 1000 L-137158 1000 L-135416 1000 L-134701 1000 L-131160 1000 L-124583 1000 L-123166 1001 L-123145 1001 L-122194 1001 L-118720 1001 L-117967 1001 L-117405 1001 L-116623 1001 L-109119 1000 L-107521 1000 L-105947 1000 L-102761 1000 L-98428 1000 L-89859 1000 L-81112 1000 L-78038 1000 L-74772 1000 L-74226 1000 L-67089 1000 L-61421 1000 L-47356 1000 L-41345 1000 L-36639 1000 L-32636 1000 L-27528 1000 L-17814 1000 L-2243 1000 L838 999 L1141 975 L1160 945 L1179 911 L1199 873 L1218 856 L1238 841 L1256 828 L1284 814 L1305 801 L1333 788 L1368 773 L1381 760 L1395 749 L1413 740 L1432 733 L1452 726 L1470 719 L1489 713 L1509 706 L1530 698 L1547 691 L1566 684 L1586 678 L1606 671 L1625 664 L1643 656 L1663 649 L1683 641 L1702 634 L1721 627 L1742 621 L1767 614 L1781 608 L1798 601 L1818 595 L1838 589 L1857 582 L1875 576 L1896 569 L1916 563 L1934 557 L1953 551 L1973 546 L1994 541 L2011 537 L2030 533 L2050 529 L2069 525 L2089 521 L2107 517 L2127 515 L2147 512 L2166 509 L2185 506 L2212 502 L2233 498 L2261 494 L2295 490 L2309 486 L2322 482 L2341 479 L2360 477 L2380 474 L2398 471 L2418 468 L2438 464 L2458 461 L2476 459 L2494 456 L2515 453 L2534 449 L2553 446 L2572 442 L2592 437 L2611 433 L2630 429 L2649 424 L2670 419 L2695 414 L2709 409 L2726 404 L2746 399 L2765 394 L2785 389 L2804 384 L2824 378 L2844 373 L2862 368 L2881 363 L2902 359 L2922 354 L2940 350 L2959 346 L2979 342 L2997 338 L3017 335 L3036 331 L3056 328 L3075 324 L3095 320 L3113 317 L3142 313 L3162 310 L3190 307 L3227 302 L3242 299 L3254 295 L3272 292 L3289 289 L3308 287 L3327 285 L3346 283 L3366 281 L3387 279 L3404 276 L3423 274 L3443 271 L3463 269 L3482 266 L3500 263 L3520 260 L3540 257 L3559 254 L3578 250 L3599 247 L3623 244 L3638 241 L3655 238 L3675 235 L3694 231 L3714 228 L3733 225 L3753 221 L3773 218 L3791 215 L3810 212 L3830 209 L3850 206 L3868 203 L3887 200 L3907 198 L3926 195 L3946 192 L3965 190 L3984 187 L4004 185 L4023 182 L4042 180 L4070 177 L4090 175 L4118 172 L4154 168 L4169 164 L4182 160 L4199 157 L4217 155 L4237 153 L4256 151 L4275 148 L4295 145 L4316 142 L4335 139 L4352 136 L4372 132 L4392 129 L4410 125 L4429 121 L4449 116 L4470 113 L4487 109 L4506 106 L4528 104 L4553 102 L4567 100 L4585 98 L4604 96 L4623 94 L4642 91 L4661 89 L4681 87 L4702 86 L4719 84 L4739 82 L4759 80 L4780 77 L4797 75 L4816 73 L4836 71 L4855 70 L4874 69 L4893 67 L4913 66 L4933 64 L4952 63 L4971 62 L4998 60 L5019 59 L5047 57 L5082 56 L5095 54 L5109 53 L5127 52 L5146 51 L5166 49 L5184 48 L5204 47 L5223 46 L5244 45 L5262 44 L5280 43 L5301 42 L5321 41 L5339 39 L5358 38 L5378 37 L5398 36 L5416 35 L5435 34 L5456 33 L5481 32 L5496 31 L5513 30 L5532 29 L5551 28 L5571 27 L5590 26 L5610 25 L5631 24 L5648 23 L5667 22 L5688 21 L5708 20 L5726 19 L5744 18 L5764 17 L5783 16 L5803 15 L5822 14 L5842 14 L5861 13 L5880 12 L5899 14 L5928 15 L5948 16 L5976 17 L6013 16 L6028 15 L6041 14 L6058 14 L6074 13 L6094 13 L6113 12 L6132 11 L6152 11 L6173 10 L6190 10 L6209 9 L6229 9 L6249 8 L6267 7 L6286 7 L6306 6 L6326 5 L6344 5 L6363 4 L6385 4 L6410 3 L6424 2 L6441 2 L6461 1 L6480 1 L6500 0" />
</svg>
