<svg xmlns="http://www.w3.org/2000/svg" version="1.1" viewBox="0 0 6500 1000">
	<path fill="none" stroke="gold" stroke-width="125" stroke-linecap="round" stroke-linejoin="round" d="M0 5588  L-723517 5588 L-720913 5588 L-719245 5587 L-700915 5587 L-700745 5586 L-693587 5586 L-693554 5586 L-680123 5586 L-677202 5586 L-663861 5585 L-659692 5584 L-658532 5583 L-657912 5581 L-655901 5581 L-652129 5580 L-651529 5580 L-651200 5579 L-650987 5579 L-650445 5578 L-649207 5576 L-648028 5574 L-645164 5572 L-644642 5570 L-639786 5569 L-636849 5569 L-636806 5568 L-636498 5568 L-636246 5567 L-633651 5567 L-629395 5567 L-629377 5567 L-628141 5567 L-626263 5567 L-624310 5566 L-623362 5565 L-623091 5565 L-622781 5565 L-622683 5564 L-621853 5564 L-619822 5565 L-619531 5562 L-617385 5561 L-617230 5560 L-613573 5558 L-613322 5559 L-613224 5559 L-612707 5559 L-610555 5561 L-609627 5562 L-608100 5563 L-606861 5563 L-605315 5563 L-602353 5563 L-601231 5562 L-600922 5562 L-599710 5561 L-596704 5564 L-596684 5564 L-596337 5564 L-596124 5563 L-595997 5560 L-595756 5559 L-595718 5559 L-595698 5558 L-595679 5558 L-595620 5557 L-595561 5557 L-595543 5556 L-595100 5556 L-593861 5555 L-592315 5555 L-588927 5554 L-583201 5554 L-583000 5553 L-581364 5553 L-579642 5553 L-578210 5553 L-577977 5552 L-577262 5552 L-571130 5552 L-570762 5551 L-570608 5551 L-570029 5550 L-569737 5550 L-568770 5549 L-568460 5549 L-567861 5548 L-566255 5548 L-565520 5548 L-565210 5549 L-564441 5549 L-562405 5548 L-561980 5547 L-561167 5547 L-553739 5547 L-553216 5546 L-553042 5546 L-552307 5545 L-550740 5545 L-550334 5544 L-548109 5544 L-547161 5544 L-546736 5543 L-546406 5543 L-545362 5543 L-543254 5543 L-543002 5542 L-542383 5541 L-541570 5541 L-539462 5541 L-539414 5540 L-537485 5540 L-537160 5539 L-537025 5539 L-536522 5538 L-535109 5538 L-534606 5537 L-534084 5536 L-530525 5535 L-529789 5534 L-527365 5534 L-526075 5533 L-525668 5533 L-522516 5533 L-522361 5533 L-522341 5533 L-521974 5533 L-520716 5534 L-520001 5534 L-519111 5534 L-518704 5534 L-517775 5534 L-516667 5534 L-516364 5535 L-510115 5535 L-509167 5536 L-507541 5536 L-507039 5536 L-503364 5537 L-502531 5537 L-498578 5537 L-497166 5536 L-494677 5536 L-494001 5535 L-493962 5535 L-493091 5535 L-489880 5535 L-487017 5535 L-486049 5534 L-484927 5534 L-484908 5533 L-483283 5533 L-482819 5532 L-482727 5532 L-476358 5532 L-475410 5531 L-472953 5531 L-472080 5530 L-470844 5530 L-468843 5530 L-468445 5529 L-467009 5529 L-464983 5529 L-464770 5528 L-463590 5528 L-462081 5528 L-462061 5527 L-460049 5527 L-459179 5527 L-458308 5526 L-457724 5526 L-457186 5525 L-456529 5525 L-455290 5524 L-454730 5524 L-453549 5524 L-452311 5523 L-452273 5523 L-451886 5523 L-451344 5522 L-450570 5522 L-449448 5522 L-447359 5521 L-447026 5521 L-446740 5520 L-445811 5520 L-445328 5520 L-444593 5519 L-440961 5519 L-439834 5519 L-439679 5518 L-438653 5518 L-434938 5518 L-433721 5517 L-431902 5517 L-429117 5516 L-428555 5516 L-424667 5516 L-422191 5516 L-420856 5516 L-420353 5515 L-419869 5515 L-417180 5515 L-413408 5515 L-410951 5515 L-409771 5515 L-409132 5515 L-406773 5514 L-406695 5514 L-405648 5514 L-405554 5513 L-405051 5513 L-404606 5513 L-404548 5513 L-404335 5513 L-401375 5513 L-398667 5512 L-398513 5512 L-394992 5512 L-394469 5511 L-393502 5511 L-393153 5511 L-392109 5510 L-391180 5510 L-390755 5509 L-389246 5509 L-388279 5509 L-388260 5509 L-386364 5490 L-386248 5470 L-386200 5451 L-386175 5432 L-383171 5431 L-381141 5431 L-379380 5431 L-379013 5430 L-378567 5430 L-378200 5430 L-377786 5429 L-375801 5429 L-375588 5429 L-375433 5428 L-373828 5428 L-372706 5428 L-371758 5428 L-370501 5427 L-368856 5427 L-367676 5427 L-361087 5426 L-361040 5426 L-360635 5426 L-359589 5426 L-359454 5425 L-357771 5425 L-357752 5425 L-356415 5424 L-355179 5424 L-355024 5424 L-354650 5423 L-354444 5423 L-354135 5422 L-353361 5422 L-351039 5422 L-350382 5421 L-348254 5421 L-346531 5421 L-346338 5420 L-343785 5420 L-343508 5420 L-343320 5419 L-342488 5419 L-341715 5419 L-341017 5418 L-336016 5418 L-335641 5418 L-331388 5418 L-330901 5443 L-330881 5443 L-330802 5443 L-330727 5443 L-330707 5416 L-329894 5416 L-329141 5415 L-327921 5415 L-326490 5415 L-326393 5415 L-326219 5415 L-325865 5414 L-324555 5414 L-322698 5414 L-320996 5413 L-320493 5413 L-320227 5413 L-319834 5413 L-319700 5412 L-318790 5412 L-318414 5412 L-317485 5412 L-317146 5412 L-317107 5412 L-317069 5411 L-315154 5411 L-314980 5411 L-313451 5411 L-313123 5411 L-313007 5410 L-312600 5410 L-312252 5410 L-310608 5409 L-310057 5409 L-309814 5409 L-309273 5408 L-308441 5408 L-307900 5408 L-306365 5407 L-306273 5407 L-306236 5407 L-306100 5406 L-305713 5406 L-304688 5406 L-302811 5406 L-302715 5405 L-302115 5414 L-301748 5422 L-301263 5432 L-301225 5440 L-300451 5441 L-300394 5441 L-300219 5440 L-300026 5440 L-298420 5439 L-298400 5439 L-298245 5440 L-298130 5440 L-296950 5440 L-296795 5441 L-296128 5441 L-293680 5462 L-291165 5484 L-288496 5505 L-280796 5527 L-275129 5527 L-272914 5526 L-272891 5526 L-271917 5532 L-271897 5532 L-271033 5531 L-268293 5531 L-262495 5525 L-262341 5525 L-259555 5524 L-245947 5524 L-245201 5524 L-240790 5523 L-224444 5523 L-224212 5522 L-223675 5522 L-215216 5522 L-206510 5522 L-206298 5521 L-204325 5521 L-201539 5521 L-197051 5521 L-196897 5521 L-196727 5521 L-196587 5521 L-196296 5520 L-196258 5520 L-195987 5520 L-195815 5520 L-195405 5519 L-194285 5519 L-193104 5519 L-191827 5518 L-188964 5518 L-186043 5518 L-184051 5518 L-182504 5517 L-179466 5517 L-170141 5517 L-169617 5516 L-163894 5516 L-162386 5516 L-161572 5516 L-159888 5516 L-159167 5515 L-158999 5515 L-157954 5515 L-155886 5515 L-154524 5514 L-150081 5514 L-149984 5514 L-149945 5514 L-149926 5513 L-149094 5513 L-149016 5512 L-146444 5512 L-143194 5512 L-143039 5512 L-142091 5511 L-140350 5511 L-139635 5512 L-136094 5514 L-129517 5515 L-128099 5517 L-128078 5517 L-127128 5517 L-123654 5517 L-122900 5516 L-122339 5516 L-121557 5516 L-114053 5515 L-112454 5515 L-110880 5515 L-107695 5515 L-103362 5514 L-94792 5514 L-86046 5514 L-82972 5514 L-79706 5513 L-79159 5513 L-72022 5513 L-66354 5513 L-52290 5513 L-46279 5513 L-41572 5513 L-37569 5512 L-32462 5512 L-22748 5512 L-7177 5511 L-4094 5511 L-3792 5393 L-3772 5249 L-3754 5084 L-3734 4901 L-3714 4817 L-3695 4746 L-3676 4682 L-3649 4617 L-3628 4555 L-3600 4490 L-3565 4417 L-3551 4356 L-3538 4303 L-3520 4259 L-3501 4227 L-3481 4194 L-3463 4160 L-3443 4127 L-3423 4094 L-3402 4059 L-3385 4025 L-3367 3992 L-3346 3960 L-3326 3928 L-3308 3893 L-3289 3857 L-3269 3820 L-3249 3784 L-3231 3749 L-3212 3716 L-3191 3684 L-3166 3651 L-3151 3621 L-3134 3591 L-3115 3561 L-3095 3531 L-3076 3499 L-3057 3466 L-3037 3435 L-3016 3406 L-2999 3377 L-2980 3351 L-2959 3325 L-2939 3301 L-2921 3281 L-2903 3260 L-2882 3241 L-2864 3222 L-2844 3203 L-2825 3187 L-2805 3172 L-2786 3159 L-2766 3144 L-2748 3131 L-2720 3113 L-2699 3095 L-2672 3075 L-2638 3052 L-2623 3034 L-2610 3017 L-2592 3003 L-2573 2990 L-2553 2976 L-2534 2961 L-2515 2946 L-2495 2931 L-2474 2916 L-2457 2903 L-2438 2889 L-2418 2875 L-2398 2859 L-2379 2840 L-2361 2820 L-2341 2800 L-2321 2779 L-2302 2759 L-2283 2738 L-2262 2714 L-2238 2688 L-2223 2663 L-2206 2639 L-2186 2616 L-2167 2592 L-2147 2567 L-2129 2541 L-2109 2516 L-2088 2491 L-2070 2468 L-2051 2444 L-2031 2422 L-2011 2400 L-1993 2379 L-1974 2360 L-1954 2340 L-1935 2324 L-1915 2306 L-1897 2288 L-1877 2272 L-1857 2254 L-1838 2236 L-1819 2219 L-1790 2202 L-1771 2186 L-1743 2170 L-1706 2150 L-1691 2132 L-1678 2114 L-1661 2098 L-1644 2086 L-1624 2075 L-1606 2064 L-1586 2055 L-1566 2045 L-1546 2035 L-1528 2024 L-1510 2012 L-1489 2000 L-1470 1988 L-1451 1975 L-1432 1961 L-1412 1946 L-1393 1930 L-1374 1914 L-1355 1899 L-1334 1885 L-1310 1869 L-1295 1854 L-1278 1839 L-1258 1823 L-1239 1808 L-1219 1792 L-1200 1775 L-1180 1758 L-1160 1742 L-1141 1726 L-1123 1712 L-1103 1698 L-1082 1684 L-1064 1672 L-1045 1658 L-1025 1645 L-1007 1632 L-987 1619 L-968 1607 L-948 1594 L-929 1582 L-909 1570 L-890 1558 L-862 1546 L-842 1533 L-814 1519 L-778 1500 L-764 1482 L-751 1465 L-733 1450 L-715 1441 L-695 1431 L-677 1418 L-657 1406 L-637 1392 L-616 1378 L-598 1362 L-581 1347 L-560 1329 L-540 1311 L-522 1293 L-503 1273 L-483 1253 L-463 1235 L-445 1217 L-426 1203 L-405 1192 L-380 1182 L-365 1173 L-348 1163 L-329 1154 L-309 1143 L-290 1133 L-271 1122 L-251 1113 L-230 1105 L-213 1098 L-194 1089 L-173 1077 L-153 1064 L-136 1052 L-117 1042 L-97 1034 L-78 1028 L-58 1022 L-39 1016 L-19 1010 L0 1002 L18 995 L37 988 L65 982 L85 975 L113 968 L148 959 L162 952 L175 946 L194 940 L212 935 L232 930 L251 924 L270 919 L290 915 L311 910 L328 905 L347 900 L367 894 L387 888 L405 881 L424 876 L444 871 L464 866 L482 861 L501 856 L523 851 L547 847 L562 842 L579 838 L599 833 L618 828 L637 823 L656 817 L676 811 L697 806 L715 801 L734 796 L754 791 L775 787 L792 782 L811 777 L831 773 L850 769 L869 764 L888 761 L908 758 L928 755 L947 751 L966 757 L994 762 L1014 768 L1042 772 L1079 768 L1095 764 L1107 760 L1125 757 L1141 755 L1161 752 L1179 749 L1199 746 L1219 743 L1240 741 L1257 738 L1275 736 L1296 733 L1316 730 L1334 726 L1353 723 L1373 720 L1393 717 L1411 714 L1430 712 L1451 709 L1476 707 L1490 704 L1508 701 L1527 697 L1547 694 L1566 692 L1585 688 L1605 685 L1626 680 L1643 676 L1662 672 L1683 668 L1703 665 L1721 661 L1739 657 L1759 654 L1778 650 L1798 646 L1817 642 L1837 638 L1856 635 L1875 632 L1894 629 L1922 626 L1942 622 L1970 618 L2005 614 L2019 611 L2032 607 L2051 604 L2069 601 L2090 598 L2108 595 L2127 592 L2147 589 L2168 585 L2185 582 L2204 579 L2224 576 L2244 572 L2263 567 L2281 562 L2301 557 L2322 552 L2340 547 L2358 543 L2380 539 L2405 534 L2419 530 L2437 525 L2456 520 L2475 516 L2494 511 L2513 506 L2534 502 L2554 498 L2572 493 L2591 489 L2611 485 L2632 481 L2649 478 L2668 475 L2688 472 L2707 469 L2727 467 L2745 464 L2765 462 L2785 459 L2804 457 L2823 455 L2850 452 L2871 450 L2899 447 L2934 442 L2948 438 L2961 433 L2980 429 L2998 426 L3018 423 L3036 420 L3056 418 L3076 415 L3097 412 L3114 409 L3132 405 L3153 402 L3173 398 L3191 394 L3210 390 L3230 386 L3250 383 L3268 379 L3287 376 L3308 374 L3333 371 L3348 368 L3365 365 L3384 362 L3404 358 L3423 355 L3442 350 L3462 345 L3483 340 L3500 336 L3519 331 L3540 327 L3561 324 L3578 321 L3597 319 L3617 317 L3635 315 L3655 312 L3674 310 L3694 307 L3713 305 L3733 303 L3751 301 L3779 298 L3800 297 L3827 294 L3862 292 L3876 290 L3889 288 L3908 286 L3926 284 L3946 283 L3965 281 L3984 279 L4004 278 L4025 276 L4042 274 L4061 273 L4081 271 L4101 268 L4119 267 L4138 265 L4158 263 L4178 262 L4197 261 L4216 260 L4237 258 L4261 256 L4276 255 L4293 253 L4313 251 L4332 249 L4351 247 L4370 246 L4390 243 L4411 240 L4429 237 L4448 233 L4468 229 L4489 226 L4506 224 L4525 221 L4545 219 L4564 216 L4584 214 L4602 211 L4622 209 L4642 207 L4661 205 L4680 204 L4709 202 L4756 201 L4793 199 L4808 196 L4820 195 L4838 193 L4855 192 L4875 191 L4893 190 L4912 189 L4933 187 L4953 186 L4970 185 L4989 184 L5010 183 L5029 181 L5048 179 L5067 178 L5087 176 L5107 175 L5125 173 L5144 170 L5165 168 L5190 165 L5204 162 L5222 159 L5241 157 L5260 154 L5280 151 L5299 149 L5319 147 L5340 144 L5357 141 L5376 139 L5397 137 L5417 135 L5435 133 L5454 131 L5474 129 L5492 128 L5512 126 L5531 124 L5551 122 L5570 120 L5590 118 L5609 116 L5637 114 L5657 112 L5685 109 L5722 105 L5736 101 L5749 98 L5766 94 L5784 92 L5804 90 L5822 89 L5842 87 L5862 86 L5883 84 L5899 82 L5918 80 L5939 77 L5959 75 L5977 71 L5996 68 L6016 64 L6036 60 L6054 57 L6073 54 L6094 52 L6119 49 L6134 46 L6152 44 L6170 41 L6190 39 L6209 37 L6228 34 L6248 31 L6269 28 L6286 25 L6305 23 L6325 21 L6347 18 L6363 16 L6382 14 L6402 12 L6421 10 L6441 8 L6460 6 L6479 4 L6500 2" />
</svg>
