<svg xmlns="http://www.w3.org/2000/svg" version="1.1" viewBox="0 0 6500 1000">
	<path fill="none" stroke="gold" stroke-width="125" stroke-linecap="round" stroke-linejoin="round" d="M0 3805  L-724387 3805 L-721783 3805 L-720115 3805 L-701785 3805 L-701615 3804 L-694457 3804 L-694424 3804 L-680993 3804 L-678072 3804 L-664731 3804 L-660562 3803 L-659402 3802 L-658782 3801 L-656771 3801 L-652999 3800 L-652399 3800 L-652070 3800 L-651857 3799 L-651315 3799 L-650077 3797 L-648898 3796 L-646034 3795 L-645512 3793 L-640656 3793 L-637719 3793 L-637676 3792 L-637368 3792 L-637116 3791 L-634521 3791 L-630265 3791 L-630248 3791 L-629011 3791 L-627133 3791 L-625180 3791 L-624232 3790 L-623961 3790 L-623651 3790 L-623553 3790 L-622723 3790 L-620692 3790 L-620401 3788 L-618255 3788 L-618100 3787 L-614443 3786 L-614192 3786 L-614094 3786 L-613577 3786 L-611425 3787 L-610497 3788 L-608970 3789 L-607731 3789 L-606185 3789 L-603223 3789 L-602101 3788 L-601792 3788 L-600580 3788 L-597574 3790 L-597554 3789 L-597207 3789 L-596994 3789 L-596867 3787 L-596626 3786 L-596588 3786 L-596568 3786 L-596549 3785 L-596490 3785 L-596431 3785 L-596413 3784 L-595970 3784 L-594731 3783 L-593185 3783 L-589797 3783 L-584071 3783 L-583870 3782 L-582234 3782 L-580512 3782 L-579080 3782 L-578847 3782 L-578132 3782 L-572000 3781 L-571632 3781 L-571478 3781 L-570899 3780 L-570607 3780 L-569640 3780 L-569330 3779 L-568731 3779 L-567125 3779 L-566390 3779 L-566080 3779 L-565311 3779 L-563275 3779 L-562850 3778 L-562037 3778 L-554609 3778 L-554086 3778 L-553912 3777 L-553177 3777 L-551610 3777 L-551204 3776 L-548979 3776 L-548031 3776 L-547606 3776 L-547276 3776 L-546232 3775 L-544124 3775 L-543872 3775 L-543253 3774 L-542440 3774 L-540332 3774 L-540284 3774 L-538355 3773 L-538030 3773 L-537895 3772 L-537392 3772 L-535979 3772 L-535476 3771 L-534954 3771 L-531395 3770 L-530659 3769 L-528235 3769 L-526945 3769 L-526538 3769 L-523386 3769 L-523231 3769 L-523211 3769 L-522844 3769 L-521586 3769 L-520871 3769 L-519981 3769 L-519574 3769 L-518645 3769 L-517537 3769 L-517234 3770 L-510985 3770 L-510037 3771 L-508411 3771 L-507909 3771 L-504234 3771 L-503401 3771 L-499448 3772 L-498036 3771 L-495547 3771 L-494871 3770 L-494832 3770 L-493961 3770 L-490750 3770 L-487887 3770 L-486919 3770 L-485797 3769 L-485778 3769 L-484153 3769 L-483689 3768 L-483597 3768 L-477228 3768 L-476280 3768 L-473823 3767 L-472950 3767 L-471714 3767 L-469713 3767 L-469315 3766 L-467879 3766 L-465853 3766 L-465640 3766 L-464460 3765 L-462951 3765 L-462931 3765 L-460919 3765 L-460049 3764 L-459178 3764 L-458594 3764 L-458056 3764 L-457399 3763 L-456160 3763 L-455600 3763 L-454419 3763 L-453181 3762 L-453143 3762 L-452756 3762 L-452214 3762 L-451440 3762 L-450318 3761 L-448229 3761 L-447896 3761 L-447610 3760 L-446681 3760 L-446198 3760 L-445463 3760 L-441831 3759 L-440704 3759 L-440549 3759 L-439523 3759 L-435808 3759 L-434591 3758 L-432772 3758 L-429987 3758 L-429425 3757 L-425537 3757 L-423061 3757 L-421726 3757 L-421223 3757 L-420739 3757 L-418050 3757 L-414278 3757 L-411821 3757 L-410641 3757 L-410002 3757 L-407643 3756 L-407565 3756 L-406518 3756 L-406424 3756 L-405921 3756 L-405476 3756 L-405418 3756 L-405205 3756 L-402245 3755 L-399537 3755 L-399383 3755 L-395862 3755 L-395339 3754 L-394372 3754 L-394023 3754 L-392979 3753 L-392050 3753 L-391625 3753 L-390116 3753 L-389149 3753 L-389130 3753 L-387234 3740 L-387118 3727 L-387070 3714 L-387045 3701 L-384041 3701 L-382011 3701 L-380250 3700 L-379883 3700 L-379437 3700 L-379070 3700 L-378656 3699 L-376671 3699 L-376458 3699 L-376303 3699 L-374698 3699 L-373576 3699 L-372628 3699 L-371371 3698 L-369726 3698 L-368546 3698 L-361957 3698 L-361910 3697 L-361505 3697 L-360459 3697 L-360324 3697 L-358641 3697 L-358622 3696 L-357285 3696 L-356049 3696 L-355894 3696 L-355520 3695 L-355314 3695 L-355005 3695 L-354231 3695 L-351909 3694 L-351252 3694 L-349124 3694 L-347401 3694 L-347208 3694 L-344655 3693 L-344378 3693 L-344190 3693 L-343358 3692 L-342585 3692 L-341887 3692 L-336886 3692 L-336511 3692 L-332258 3692 L-331771 3709 L-331751 3709 L-331672 3709 L-331597 3709 L-331577 3691 L-330764 3691 L-330011 3690 L-328791 3690 L-327360 3690 L-327263 3690 L-327089 3690 L-326735 3690 L-325425 3689 L-323568 3689 L-321866 3689 L-321363 3689 L-321097 3688 L-320704 3688 L-320570 3688 L-319660 3688 L-319284 3688 L-318355 3688 L-318016 3688 L-317977 3688 L-317939 3687 L-316024 3687 L-315850 3687 L-314321 3687 L-313993 3687 L-313877 3687 L-313470 3687 L-313122 3686 L-311478 3686 L-310927 3686 L-310684 3686 L-310143 3686 L-309311 3685 L-308770 3685 L-307235 3685 L-307143 3684 L-307106 3684 L-306970 3684 L-306583 3684 L-305558 3684 L-303681 3684 L-303585 3683 L-302985 3689 L-302618 3695 L-302133 3701 L-302095 3707 L-301321 3707 L-301264 3707 L-301089 3707 L-300896 3707 L-299290 3706 L-299270 3706 L-299115 3706 L-299000 3707 L-297820 3707 L-297665 3707 L-296998 3707 L-294550 3722 L-292035 3736 L-289366 3750 L-281666 3764 L-275999 3764 L-273784 3764 L-273761 3764 L-272787 3768 L-272767 3768 L-271903 3767 L-269163 3767 L-263365 3764 L-263211 3763 L-260425 3763 L-246817 3763 L-246071 3763 L-241660 3762 L-225314 3762 L-225082 3762 L-224545 3762 L-216086 3761 L-207380 3761 L-207168 3761 L-205195 3761 L-202409 3761 L-197921 3761 L-197767 3761 L-197598 3761 L-197457 3761 L-197166 3760 L-197128 3760 L-196857 3760 L-196685 3760 L-196275 3760 L-195155 3759 L-193974 3759 L-192697 3759 L-189834 3759 L-186913 3759 L-184921 3759 L-183374 3758 L-180336 3758 L-171011 3758 L-170487 3758 L-164764 3758 L-163256 3758 L-162442 3758 L-160758 3757 L-160037 3757 L-159869 3757 L-158824 3757 L-156756 3756 L-155394 3756 L-150951 3756 L-150854 3756 L-150815 3756 L-150796 3756 L-149964 3755 L-149886 3755 L-147314 3755 L-144064 3755 L-143909 3755 L-142961 3754 L-141220 3754 L-140505 3755 L-136964 3756 L-130387 3757 L-128969 3758 L-128949 3758 L-127998 3758 L-124524 3758 L-123770 3758 L-123209 3757 L-122427 3757 L-114923 3757 L-113324 3757 L-111750 3757 L-108565 3756 L-104232 3756 L-95662 3756 L-86916 3756 L-83842 3756 L-80576 3756 L-80029 3755 L-72892 3755 L-67224 3755 L-53160 3755 L-47149 3755 L-42442 3755 L-38439 3755 L-33332 3755 L-23618 3755 L-8047 3754 L-4964 3754 L-4662 3675 L-4642 3579 L-4624 3469 L-4604 3346 L-4584 3291 L-4565 3243 L-4546 3200 L-4519 3157 L-4498 3116 L-4470 3072 L-4435 3023 L-4421 2982 L-4408 2947 L-4390 2918 L-4371 2896 L-4351 2874 L-4333 2852 L-4313 2830 L-4293 2807 L-4272 2784 L-4255 2761 L-4237 2739 L-4216 2718 L-4196 2696 L-4178 2673 L-4159 2649 L-4139 2624 L-4119 2600 L-4101 2577 L-4082 2555 L-4061 2534 L-4036 2512 L-4021 2492 L-4004 2472 L-3985 2451 L-3965 2432 L-3946 2410 L-3927 2388 L-3907 2368 L-3887 2348 L-3869 2329 L-3850 2311 L-3829 2294 L-3809 2278 L-3791 2264 L-3773 2251 L-3752 2237 L-3734 2225 L-3714 2213 L-3695 2201 L-3675 2192 L-3656 2183 L-3636 2173 L-3618 2164 L-3590 2152 L-3569 2140 L-3542 2127 L-3508 2112 L-3493 2099 L-3480 2088 L-3462 2078 L-3443 2070 L-3423 2061 L-3404 2051 L-3385 2041 L-3365 2030 L-3344 2021 L-3327 2012 L-3308 2003 L-3288 1993 L-3268 1982 L-3249 1970 L-3231 1957 L-3211 1943 L-3191 1929 L-3172 1916 L-3153 1902 L-3132 1886 L-3108 1869 L-3093 1852 L-3076 1836 L-3056 1820 L-3037 1804 L-3017 1788 L-2999 1770 L-2979 1753 L-2958 1737 L-2940 1721 L-2921 1705 L-2901 1691 L-2881 1676 L-2863 1662 L-2844 1649 L-2824 1636 L-2805 1625 L-2785 1613 L-2767 1601 L-2747 1590 L-2727 1578 L-2708 1567 L-2689 1555 L-2660 1544 L-2641 1533 L-2613 1522 L-2576 1509 L-2561 1497 L-2548 1485 L-2531 1474 L-2514 1466 L-2494 1459 L-2476 1452 L-2456 1445 L-2436 1439 L-2416 1432 L-2399 1425 L-2380 1417 L-2359 1409 L-2340 1401 L-2321 1392 L-2302 1383 L-2282 1373 L-2263 1362 L-2244 1352 L-2225 1341 L-2204 1332 L-2180 1321 L-2165 1311 L-2148 1301 L-2128 1290 L-2109 1280 L-2089 1269 L-2070 1258 L-2050 1247 L-2030 1237 L-2011 1226 L-1993 1216 L-1973 1207 L-1952 1198 L-1934 1189 L-1915 1180 L-1895 1172 L-1877 1163 L-1857 1154 L-1838 1146 L-1818 1138 L-1799 1130 L-1779 1122 L-1761 1113 L-1732 1105 L-1712 1097 L-1684 1087 L-1648 1075 L-1634 1063 L-1621 1051 L-1603 1041 L-1585 1035 L-1565 1028 L-1547 1020 L-1527 1012 L-1507 1003 L-1486 993 L-1468 983 L-1451 972 L-1430 961 L-1410 949 L-1392 936 L-1373 923 L-1353 910 L-1333 898 L-1315 886 L-1296 876 L-1275 869 L-1250 862 L-1235 856 L-1218 850 L-1199 843 L-1179 836 L-1160 829 L-1141 823 L-1121 816 L-1100 811 L-1083 806 L-1064 800 L-1043 792 L-1023 784 L-1006 775 L-987 769 L-967 763 L-948 759 L-928 755 L-909 751 L-889 747 L-870 742 L-851 737 L-832 733 L-804 728 L-784 724 L-756 720 L-721 714 L-707 709 L-694 705 L-675 701 L-657 697 L-637 694 L-618 690 L-599 687 L-579 684 L-558 681 L-541 677 L-522 674 L-502 670 L-482 666 L-464 661 L-445 658 L-425 655 L-405 651 L-387 648 L-368 645 L-346 641 L-322 638 L-307 635 L-290 632 L-270 629 L-251 626 L-232 622 L-213 619 L-193 615 L-172 611 L-154 608 L-135 604 L-115 601 L-95 598 L-77 595 L-58 592 L-38 589 L-19 586 L0 583 L18 581 L38 579 L58 577 L77 575 L96 579 L124 582 L144 586 L172 589 L209 586 L225 583 L237 581 L255 579 L271 577 L291 575 L309 573 L329 571 L349 569 L370 568 L387 566 L405 564 L426 562 L446 560 L464 558 L483 556 L503 554 L523 552 L541 550 L560 548 L581 546 L606 545 L620 543 L638 541 L657 539 L677 537 L696 535 L715 533 L735 530 L756 527 L773 524 L792 522 L813 519 L833 517 L851 514 L869 512 L889 509 L908 507 L928 504 L947 502 L967 499 L986 497 L1005 495 L1024 493 L1052 491 L1072 488 L1100 486 L1135 483 L1149 481 L1162 478 L1181 476 L1199 474 L1219 472 L1238 470 L1257 468 L1277 466 L1298 464 L1315 462 L1334 460 L1354 457 L1374 455 L1393 452 L1411 448 L1431 445 L1452 442 L1470 438 L1488 436 L1510 433 L1535 429 L1549 427 L1567 423 L1586 420 L1605 417 L1624 414 L1643 411 L1664 408 L1684 405 L1702 402 L1721 400 L1741 397 L1762 394 L1779 392 L1798 390 L1818 388 L1837 386 L1856 384 L1875 383 L1895 381 L1915 379 L1934 378 L1953 377 L1980 375 L2001 373 L2029 371 L2064 368 L2078 365 L2091 362 L2110 359 L2128 357 L2148 356 L2166 354 L2186 352 L2206 350 L2227 348 L2244 346 L2262 343 L2283 341 L2303 339 L2321 336 L2340 333 L2360 331 L2380 328 L2398 326 L2417 324 L2438 322 L2463 320 L2478 319 L2495 317 L2514 314 L2534 312 L2553 310 L2572 307 L2592 303 L2613 300 L2630 297 L2649 294 L2670 291 L2691 289 L2708 287 L2727 286 L2747 284 L2765 283 L2785 281 L2804 280 L2824 278 L2843 276 L2863 275 L2881 274 L2909 272 L2930 271 L2957 269 L2992 268 L3006 267 L3019 265 L3038 264 L3056 263 L3076 261 L3095 260 L3114 259 L3134 258 L3155 257 L3172 256 L3191 255 L3211 253 L3231 252 L3249 251 L3268 250 L3288 249 L3308 248 L3327 247 L3346 246 L3367 245 L3391 244 L3406 243 L3423 241 L3443 240 L3462 239 L3481 238 L3500 237 L3520 235 L3541 233 L3559 231 L3578 228 L3598 226 L3619 224 L3636 222 L3655 221 L3675 219 L3694 217 L3714 215 L3732 214 L3752 212 L3772 211 L3791 210 L3810 209 L3839 208 L3886 207 L3923 205 L3938 204 L3950 203 L3968 202 L3985 201 L4005 201 L4023 200 L4042 199 L4063 198 L4083 197 L4100 196 L4119 195 L4140 195 L4159 194 L4178 193 L4197 192 L4217 190 L4237 189 L4255 188 L4274 187 L4295 185 L4320 183 L4334 181 L4352 179 L4371 177 L4390 176 L4410 174 L4429 172 L4449 171 L4470 169 L4487 167 L4506 165 L4527 164 L4547 163 L4565 162 L4584 160 L4604 159 L4622 158 L4642 157 L4661 155 L4681 154 L4700 153 L4720 152 L4738 150 L4767 149 L4787 148 L4815 146 L4852 143 L4866 140 L4879 138 L4896 136 L4914 134 L4934 133 L4952 132 L4972 131 L4992 130 L5013 129 L5029 128 L5048 126 L5069 124 L5089 123 L5107 120 L5126 118 L5146 115 L5166 113 L5184 111 L5203 109 L5224 107 L5249 105 L5264 104 L5282 102 L5300 100 L5320 99 L5339 97 L5358 95 L5378 93 L5399 91 L5416 90 L5435 88 L5455 87 L5477 85 L5493 84 L5512 82 L5532 81 L5551 80 L5571 78 L5590 77 L5609 76 L5629 74 L5648 73 L5667 72 L5695 997 L5715 995 L5743 994 L5779 991 L5793 64 L5807 62 L5824 60 L5842 60 L5862 59 L5880 58 L5900 57 L5920 55 L5941 53 L5958 51 L5977 50 L5997 48 L6017 45 L6035 43 L6055 40 L6074 38 L6095 36 L6112 35 L6131 33 L6153 32 L6178 29 L6193 27 L6222 25 L6262 22 L6285 19 L6315 16 L6331 13 L6345 11 L6364 9 L6384 8 L6405 7 L6422 6 L6441 4 L6461 3 L6480 2 L6500 1" />
</svg>
