<svg xmlns="http://www.w3.org/2000/svg" version="1.1" viewBox="0 0 6500 1000">
	<path fill="none" stroke="gold" stroke-width="125" stroke-linecap="round" stroke-linejoin="round" d="M0 4965  L-723169 4965 L-720565 4965 L-718897 4965 L-700568 4965 L-700397 4964 L-693240 4964 L-693207 4964 L-679776 4963 L-676854 4964 L-663513 4963 L-659344 4962 L-658184 4961 L-657565 4960 L-655553 4959 L-651781 4958 L-651181 4958 L-650852 4958 L-650639 4957 L-650098 4957 L-648860 4955 L-647681 4953 L-644816 4951 L-644294 4949 L-639439 4949 L-636501 4948 L-636458 4948 L-636150 4947 L-635898 4947 L-633303 4946 L-629048 4946 L-629030 4946 L-627793 4946 L-625915 4946 L-623962 4946 L-623014 4945 L-622743 4945 L-622433 4945 L-622335 4944 L-621505 4944 L-619474 4945 L-619184 4943 L-617037 4942 L-616882 4940 L-613225 4939 L-612974 4940 L-612876 4939 L-612359 4940 L-610208 4941 L-609279 4942 L-607753 4944 L-606513 4944 L-604967 4943 L-602005 4943 L-600883 4942 L-600574 4942 L-599363 4942 L-596356 4944 L-596336 4944 L-595989 4944 L-595776 4944 L-595650 4940 L-595408 4940 L-595370 4939 L-595351 4939 L-595331 4938 L-595272 4938 L-595214 4937 L-595196 4937 L-594753 4937 L-593513 4936 L-591967 4936 L-588580 4935 L-582854 4935 L-582652 4935 L-581016 4934 L-579294 4934 L-577862 4934 L-577630 4934 L-576914 4933 L-570782 4933 L-570414 4933 L-570260 4932 L-569682 4932 L-569389 4931 L-568422 4931 L-568112 4930 L-567513 4930 L-565907 4930 L-565172 4930 L-564862 4930 L-564094 4930 L-562058 4930 L-561632 4929 L-560820 4929 L-553391 4929 L-552868 4928 L-552695 4928 L-551960 4927 L-550392 4927 L-549986 4926 L-547761 4926 L-546813 4926 L-546388 4926 L-546058 4926 L-545014 4925 L-542906 4925 L-542654 4924 L-542035 4924 L-541222 4924 L-539114 4923 L-539066 4923 L-537138 4922 L-536812 4922 L-536677 4921 L-536174 4921 L-534761 4921 L-534258 4920 L-533736 4919 L-530177 4918 L-529442 4917 L-527017 4917 L-525728 4917 L-525321 4916 L-522168 4916 L-522013 4916 L-521993 4917 L-521626 4917 L-520368 4917 L-519653 4917 L-518763 4917 L-518356 4917 L-517428 4917 L-516319 4917 L-516016 4918 L-509767 4918 L-508820 4919 L-507193 4919 L-506692 4919 L-503016 4920 L-502184 4920 L-498231 4920 L-496819 4919 L-494329 4919 L-493653 4919 L-493614 4918 L-492743 4918 L-489532 4918 L-486669 4918 L-485701 4918 L-484580 4917 L-484561 4917 L-482936 4916 L-482472 4915 L-482380 4915 L-476010 4915 L-475062 4915 L-472605 4915 L-471732 4914 L-470496 4914 L-468495 4914 L-468098 4913 L-466661 4913 L-464635 4912 L-464422 4912 L-463242 4912 L-461733 4912 L-461713 4911 L-459701 4911 L-458832 4911 L-457961 4910 L-457376 4910 L-456839 4909 L-456181 4909 L-454943 4908 L-454382 4908 L-453201 4908 L-451964 4908 L-451925 4908 L-451538 4907 L-450996 4907 L-450223 4907 L-449100 4906 L-447011 4906 L-446678 4905 L-446392 4905 L-445464 4905 L-444980 4904 L-444245 4904 L-440614 4904 L-439486 4904 L-439331 4903 L-438305 4903 L-434591 4903 L-433373 4902 L-431555 4902 L-428769 4901 L-428208 4901 L-424320 4901 L-421843 4901 L-420508 4901 L-420005 4901 L-419522 4900 L-416832 4900 L-413061 4900 L-410604 4900 L-409424 4900 L-408785 4900 L-406425 4900 L-406348 4899 L-405300 4899 L-405207 4899 L-404704 4899 L-404258 4899 L-404201 4899 L-403987 4899 L-401027 4898 L-398320 4898 L-398165 4898 L-394644 4897 L-394121 4897 L-393154 4897 L-392805 4896 L-391761 4896 L-390833 4895 L-390407 4895 L-388898 4895 L-387931 4895 L-387912 4895 L-386016 4878 L-385900 4860 L-385852 4843 L-385828 4826 L-382824 4825 L-380793 4825 L-379032 4825 L-378665 4824 L-378219 4824 L-377852 4824 L-377439 4823 L-375454 4823 L-375240 4823 L-375085 4823 L-373480 4823 L-372358 4823 L-371410 4822 L-370153 4822 L-368508 4822 L-367329 4821 L-360739 4821 L-360693 4821 L-360287 4820 L-359242 4820 L-359106 4820 L-357424 4819 L-357404 4819 L-356067 4819 L-354831 4819 L-354677 4818 L-354303 4818 L-354097 4818 L-353787 4817 L-353013 4817 L-350692 4817 L-350034 4816 L-347906 4816 L-346184 4816 L-345990 4815 L-343437 4815 L-343160 4815 L-342972 4814 L-342140 4814 L-341367 4814 L-340669 4814 L-335669 4814 L-335293 4813 L-331040 4813 L-330553 4836 L-330534 4836 L-330455 4836 L-330379 4836 L-330360 4812 L-329547 4812 L-328793 4811 L-327574 4811 L-326142 4811 L-326046 4811 L-325871 4811 L-325517 4810 L-324208 4810 L-322350 4810 L-320648 4809 L-320145 4809 L-319880 4809 L-319487 4808 L-319352 4808 L-318443 4808 L-318066 4808 L-317138 4808 L-316799 4808 L-316759 4808 L-316721 4807 L-314806 4807 L-314632 4807 L-313103 4807 L-312775 4807 L-312659 4807 L-312252 4806 L-311904 4806 L-310260 4805 L-309709 4805 L-309466 4805 L-308925 4805 L-308093 4804 L-307552 4804 L-306017 4804 L-305925 4803 L-305888 4803 L-305752 4803 L-305365 4803 L-304340 4802 L-302464 4802 L-302367 4802 L-301767 4809 L-301400 4817 L-300915 4826 L-300877 4833 L-300104 4834 L-300046 4834 L-299871 4833 L-299678 4833 L-298073 4833 L-298053 4832 L-297897 4833 L-297782 4833 L-296602 4833 L-296448 4834 L-295781 4834 L-293333 4853 L-290818 4873 L-288148 4892 L-280449 4911 L-274781 4911 L-272566 4910 L-272543 4910 L-271569 4915 L-271549 4915 L-270686 4915 L-267945 4914 L-262147 4909 L-261993 4909 L-259208 4909 L-245599 4908 L-244853 4908 L-240443 4908 L-224096 4907 L-223864 4907 L-223327 4907 L-214868 4906 L-206162 4906 L-205950 4906 L-203977 4906 L-201191 4906 L-196704 4906 L-196549 4906 L-196380 4906 L-196239 4905 L-195949 4905 L-195910 4905 L-195639 4905 L-195468 4904 L-195057 4904 L-193937 4904 L-192757 4904 L-191480 4903 L-188616 4903 L-185696 4903 L-183704 4903 L-182156 4902 L-179118 4902 L-169794 4902 L-169270 4901 L-163546 4901 L-162039 4901 L-161224 4901 L-159541 4901 L-158820 4901 L-158651 4900 L-157606 4900 L-155539 4900 L-154177 4900 L-149733 4899 L-149636 4899 L-149598 4899 L-149579 4899 L-148746 4898 L-148668 4898 L-146096 4898 L-142847 4897 L-142692 4897 L-141743 4897 L-140002 4897 L-139287 4898 L-135746 4899 L-129169 4901 L-127752 4902 L-127731 4902 L-126780 4902 L-123306 4902 L-122553 4901 L-121991 4901 L-121209 4901 L-113705 4901 L-112106 4900 L-110532 4900 L-107347 4900 L-103014 4900 L-94444 4899 L-85698 4899 L-82624 4899 L-79358 4899 L-78812 4898 L-71674 4898 L-66007 4898 L-51942 4898 L-45931 4898 L-41225 4898 L-37221 4898 L-32114 4897 L-22400 4897 L-6829 4897 L-3747 4896 L-3444 4791 L-3425 4662 L-3406 4515 L-3386 4350 L-3367 4275 L-3347 4212 L-3329 4154 L-3301 4097 L-3280 4041 L-3252 3982 L-3217 3917 L-3203 3862 L-3190 3815 L-3172 3776 L-3153 3747 L-3133 3717 L-3115 3687 L-3095 3658 L-3076 3628 L-3055 3597 L-3038 3566 L-3019 3536 L-2998 3508 L-2979 3479 L-2960 3448 L-2941 3416 L-2922 3382 L-2901 3350 L-2883 3319 L-2864 3289 L-2843 3261 L-2818 3232 L-2804 3205 L-2786 3178 L-2767 3151 L-2747 3124 L-2728 3096 L-2709 3066 L-2689 3038 L-2669 3012 L-2651 2986 L-2632 2963 L-2611 2940 L-2591 2918 L-2574 2900 L-2555 2882 L-2535 2864 L-2516 2847 L-2496 2831 L-2477 2816 L-2457 2803 L-2438 2791 L-2419 2778 L-2400 2766 L-2373 2750 L-2352 2734 L-2324 2715 L-2290 2695 L-2276 2679 L-2263 2664 L-2244 2651 L-2225 2640 L-2205 2628 L-2187 2614 L-2167 2600 L-2147 2586 L-2127 2574 L-2109 2562 L-2090 2549 L-2070 2537 L-2050 2522 L-2032 2506 L-2013 2488 L-1993 2470 L-1973 2451 L-1955 2433 L-1936 2414 L-1915 2393 L-1890 2370 L-1876 2347 L-1858 2325 L-1839 2304 L-1819 2283 L-1800 2261 L-1781 2238 L-1761 2215 L-1741 2193 L-1722 2172 L-1704 2151 L-1683 2131 L-1663 2111 L-1645 2093 L-1626 2075 L-1606 2058 L-1587 2043 L-1568 2027 L-1549 2011 L-1529 1997 L-1510 1980 L-1490 1965 L-1471 1950 L-1443 1934 L-1423 1920 L-1395 1905 L-1358 1888 L-1343 1871 L-1330 1855 L-1313 1841 L-1296 1830 L-1276 1820 L-1258 1811 L-1239 1802 L-1219 1794 L-1198 1785 L-1181 1775 L-1162 1764 L-1142 1754 L-1122 1743 L-1103 1731 L-1085 1718 L-1065 1705 L-1045 1691 L-1026 1677 L-1007 1663 L-986 1650 L-962 1636 L-947 1623 L-930 1609 L-910 1594 L-891 1581 L-871 1567 L-852 1552 L-832 1537 L-812 1523 L-794 1508 L-775 1495 L-755 1483 L-734 1470 L-717 1459 L-698 1447 L-678 1436 L-659 1424 L-639 1412 L-620 1401 L-600 1390 L-581 1379 L-562 1369 L-543 1358 L-515 1347 L-495 1336 L-467 1323 L-430 1306 L-416 1289 L-403 1274 L-386 1261 L-368 1252 L-348 1244 L-329 1233 L-309 1221 L-290 1209 L-269 1196 L-250 1182 L-233 1168 L-213 1153 L-192 1137 L-174 1120 L-155 1103 L-136 1085 L-115 1068 L-97 1053 L-79 1040 L-57 1030 L-32 1021 L-18 1013 L0 1004 L18 996 L37 986 L57 977 L75 968 L95 959 L116 952 L134 946 L153 937 L173 927 L194 915 L211 904 L230 895 L250 888 L269 883 L288 878 L307 872 L327 867 L347 860 L366 853 L385 848 L412 842 L433 836 L461 830 L496 822 L509 815 L523 810 L541 804 L560 800 L580 795 L598 790 L618 786 L638 782 L659 778 L676 773 L694 768 L715 763 L735 757 L753 752 L772 747 L792 743 L812 738 L830 734 L849 729 L870 725 L895 721 L910 717 L927 713 L946 709 L966 704 L985 700 L1004 694 L1024 689 L1045 684 L1062 680 L1081 675 L1102 671 L1122 667 L1140 663 L1159 659 L1179 655 L1197 651 L1217 647 L1236 644 L1256 641 L1275 638 L1294 636 L1313 641 L1342 645 L1362 650 L1390 654 L1427 650 L1442 647 L1455 643 L1472 641 L1489 639 L1509 636 L1527 633 L1547 631 L1566 628 L1588 626 L1604 624 L1623 621 L1643 619 L1664 616 L1682 613 L1700 610 L1720 607 L1740 605 L1759 602 L1778 600 L1799 598 L1824 596 L1838 593 L1855 590 L1875 587 L1894 584 L1914 582 L1933 579 L1952 576 L1973 572 L1991 568 L2010 564 L2030 561 L2051 558 L2068 554 L2087 551 L2107 548 L2126 545 L2146 541 L2164 538 L2184 534 L2204 531 L2223 529 L2242 526 L2269 523 L2290 520 L2318 516 L2353 513 L2366 509 L2380 507 L2399 504 L2417 501 L2437 498 L2455 496 L2475 493 L2495 490 L2516 487 L2533 484 L2551 481 L2572 478 L2592 475 L2610 471 L2629 466 L2649 461 L2669 457 L2687 453 L2706 449 L2727 445 L2752 441 L2767 437 L2784 433 L2803 429 L2823 425 L2842 420 L2861 416 L2881 412 L2902 408 L2919 404 L2939 401 L2959 397 L2980 394 L2997 391 L3016 388 L3036 386 L3055 383 L3074 380 L3093 378 L3113 376 L3133 374 L3152 372 L3170 370 L3198 368 L3219 365 L3247 363 L3282 359 L3296 355 L3309 351 L3328 347 L3346 344 L3366 342 L3384 339 L3404 337 L3423 334 L3444 331 L3461 329 L3480 325 L3501 322 L3521 319 L3539 315 L3558 312 L3577 309 L3598 305 L3616 302 L3635 300 L3656 298 L3681 295 L3696 292 L3713 290 L3732 287 L3752 284 L3771 280 L3790 276 L3810 272 L3831 267 L3848 263 L3867 259 L3888 256 L3908 253 L3925 250 L3944 248 L3964 246 L3983 244 L4003 242 L4022 240 L4042 238 L4061 236 L4080 234 L4099 232 L4126 230 L4147 228 L4175 226 L4209 224 L4223 223 L4237 221 L4255 219 L4274 217 L4294 216 L4312 214 L4332 213 L4352 212 L4372 210 L4390 208 L4408 207 L4429 205 L4449 203 L4467 201 L4486 200 L4506 198 L4526 197 L4544 196 L4563 195 L4584 194 L4609 192 L4624 191 L4641 189 L4660 187 L4680 186 L4699 184 L4718 183 L4738 181 L4759 178 L4776 175 L4795 171 L4816 168 L4836 165 L4854 163 L4873 161 L4893 159 L4911 156 L4931 154 L4950 152 L4970 150 L4989 148 L5009 147 L5028 145 L5056 144 L5104 142 L5141 141 L5156 139 L5168 137 L5185 136 L5203 135 L5222 134 L5241 133 L5260 132 L5280 130 L5301 129 L5318 128 L5337 127 L5357 126 L5377 125 L5396 123 L5414 122 L5435 120 L5454 119 L5473 117 L5492 115 L5513 113 L5537 110 L5552 108 L5569 105 L5589 103 L5608 101 L5628 98 L5646 96 L5667 94 L5687 92 L5705 89 L5724 87 L5744 85 L5765 83 L5782 82 L5801 80 L5821 79 L5840 77 L5860 76 L5879 74 L5899 72 L5918 70 L5937 69 L5956 67 L5984 65 L6005 63 L6033 61 L6069 57 L6084 53 L6097 50 L6114 47 L6131 45 L6152 44 L6170 42 L6190 41 L6209 40 L6231 38 L6247 37 L6266 34 L6286 32 L6307 30 L6325 27 L6344 23 L6363 20 L6384 17 L6402 14 L6420 11 L6442 9 L6467 6 L6482 4 L6500 2" />
</svg>
