<svg xmlns="http://www.w3.org/2000/svg" version="1.1" viewBox="0 0 6500 1000">
	<path fill="none" stroke="gold" stroke-width="125" stroke-linecap="round" stroke-linejoin="round" d="M0 1027  L-714778 1027 L-712174 1027 L-710506 1026 L-692177 1026 L-692007 1026 L-684849 1026 L-684816 1026 L-671385 1026 L-668463 1026 L-655122 1026 L-650953 1025 L-649793 1025 L-649174 1024 L-647162 1024 L-643390 1024 L-642790 1024 L-642462 1023 L-642249 1023 L-641707 1023 L-640469 1022 L-639290 1022 L-636425 1021 L-635903 1020 L-631048 1020 L-628110 1020 L-628068 1020 L-627759 1019 L-627507 1019 L-624912 1019 L-620657 1019 L-620639 1019 L-619402 1019 L-617525 1019 L-615571 1019 L-614623 1019 L-614352 1019 L-614043 1018 L-613944 1018 L-613114 1018 L-611083 1018 L-610793 1018 L-608646 1017 L-608491 1017 L-604835 1016 L-604584 1016 L-604485 1016 L-603968 1017 L-601817 1017 L-600888 1017 L-599362 1018 L-598122 1018 L-596576 1018 L-593614 1018 L-592492 1017 L-592183 1017 L-590972 1017 L-587965 1018 L-587946 1018 L-587598 1018 L-587385 1018 L-587259 1017 L-587017 1016 L-586979 1016 L-586960 1016 L-586940 1016 L-586882 1016 L-586823 1016 L-586805 1015 L-586362 1015 L-585122 1015 L-583577 1015 L-580189 1015 L-574463 1015 L-574261 1014 L-572625 1014 L-570903 1014 L-569471 1014 L-569239 1014 L-568524 1014 L-562391 1014 L-562024 1014 L-561869 1014 L-561291 1013 L-560998 1013 L-560031 1013 L-559721 1013 L-559122 1013 L-557516 1013 L-556781 1013 L-556471 1013 L-555703 1013 L-553667 1012 L-553241 1012 L-552429 1012 L-545000 1012 L-544477 1012 L-544304 1012 L-543569 1011 L-542001 1011 L-541595 1011 L-539370 1011 L-538422 1011 L-537998 1011 L-537667 1011 L-536623 1011 L-534515 1011 L-534263 1010 L-533644 1010 L-532831 1010 L-530724 1010 L-530675 1010 L-528747 1010 L-528421 1009 L-528286 1009 L-527783 1009 L-526370 1009 L-525867 1009 L-525346 1008 L-521786 1008 L-521051 1008 L-518626 1008 L-517337 1007 L-516930 1007 L-513777 1007 L-513622 1007 L-513602 1007 L-513236 1007 L-511977 1007 L-511262 1008 L-510372 1008 L-509965 1008 L-509037 1008 L-507928 1007 L-507625 1008 L-501376 1008 L-500429 1008 L-498803 1008 L-498301 1008 L-494625 1009 L-493793 1009 L-489840 1009 L-488428 1008 L-485939 1008 L-485262 1008 L-485223 1008 L-484353 1008 L-481141 1008 L-478278 1008 L-477310 1008 L-476189 1008 L-476170 1007 L-474545 1007 L-474081 1007 L-473989 1007 L-467620 1007 L-466671 1007 L-464214 1006 L-463342 1006 L-462106 1006 L-460104 1006 L-459707 1006 L-458270 1006 L-456244 1006 L-456031 1005 L-454851 1005 L-453343 1005 L-453322 1005 L-451310 1005 L-450441 1005 L-449570 1005 L-448985 1005 L-448448 1004 L-447790 1004 L-446552 1004 L-445991 1004 L-444810 1004 L-443573 1004 L-443534 1004 L-443147 1004 L-442606 1003 L-441832 1003 L-440710 1003 L-438620 1003 L-438287 1003 L-438001 1003 L-437073 1003 L-436589 1002 L-435854 1002 L-432223 1002 L-431095 1002 L-430940 1002 L-429914 1002 L-426200 1002 L-424982 1002 L-423164 1001 L-420378 1001 L-419817 1001 L-415929 1001 L-413452 1001 L-412117 1001 L-411614 1001 L-411131 1001 L-408442 1001 L-404670 1001 L-402213 1001 L-401033 1001 L-400394 1001 L-398034 1001 L-397957 1000 L-396909 1000 L-396816 1000 L-396313 1000 L-395867 1000 L-395810 1000 L-395596 1000 L-392636 1000 L-389929 1000 L-389774 1000 L-386253 1000 L-385730 1000 L-384763 999 L-384414 999 L-383370 999 L-382442 999 L-382016 999 L-380507 999 L-379540 999 L-379521 999 L-377625 992 L-377509 985 L-377461 978 L-377437 971 L-374433 971 L-372402 971 L-370641 971 L-370274 971 L-369829 971 L-369462 971 L-369048 970 L-367063 970 L-366850 970 L-366695 970 L-365089 970 L-363968 970 L-363019 970 L-361762 970 L-360117 970 L-358938 970 L-352348 969 L-352302 969 L-351896 969 L-350851 969 L-350716 969 L-349033 969 L-349013 969 L-347676 969 L-346440 969 L-346286 968 L-345912 968 L-345706 968 L-345396 968 L-344622 968 L-342301 968 L-341643 968 L-339515 968 L-337793 968 L-337599 967 L-335046 967 L-334770 967 L-334582 967 L-333749 967 L-332977 967 L-332279 967 L-327278 967 L-326902 966 L-322649 966 L-322162 975 L-322143 975 L-322064 975 L-321988 975 L-321969 966 L-321156 966 L-320402 966 L-319183 965 L-317751 965 L-317655 965 L-317480 965 L-317126 965 L-315817 965 L-313959 965 L-312257 965 L-311754 965 L-311489 965 L-311096 965 L-310962 964 L-310052 964 L-309675 964 L-308747 964 L-308408 964 L-308368 964 L-308331 964 L-306415 964 L-306241 964 L-304713 964 L-304384 964 L-304268 964 L-303861 964 L-303513 964 L-301869 963 L-301318 963 L-301075 963 L-300534 963 L-299703 963 L-299161 963 L-297626 963 L-297534 963 L-297497 962 L-297361 962 L-296974 962 L-295949 962 L-294073 962 L-293977 962 L-293376 965 L-293009 968 L-292525 971 L-292487 974 L-291713 975 L-291655 975 L-291481 974 L-291287 974 L-289682 974 L-289662 974 L-289507 974 L-289391 974 L-288212 974 L-288057 975 L-287390 975 L-284942 982 L-282427 990 L-279757 997 L-272058 1005 L-266390 1005 L-264176 1005 L-264152 1005 L-263178 1007 L-263159 1007 L-262295 1006 L-259555 1006 L-253756 1004 L-253603 1004 L-250817 1004 L-237208 1004 L-236463 1004 L-232052 1004 L-215706 1004 L-215474 1003 L-214936 1003 L-206477 1003 L-197771 1003 L-197559 1003 L-195587 1003 L-192800 1003 L-188313 1003 L-188158 1003 L-187989 1003 L-187849 1003 L-187558 1003 L-187519 1003 L-187248 1003 L-187077 1002 L-186667 1002 L-185546 1002 L-184366 1002 L-183089 1002 L-180225 1002 L-177305 1002 L-175313 1002 L-173765 1002 L-170727 1002 L-161403 1001 L-160879 1001 L-155155 1001 L-153648 1001 L-152833 1001 L-151150 1001 L-150429 1001 L-150260 1001 L-149215 1001 L-147148 1001 L-145786 1001 L-141342 1000 L-141245 1000 L-141207 1000 L-141188 1000 L-140355 1000 L-140277 1000 L-137705 1000 L-134456 1000 L-134301 1000 L-133353 1000 L-131611 999 L-130896 1000 L-127355 1000 L-120778 1001 L-119361 1002 L-119340 1002 L-118390 1002 L-114915 1001 L-114162 1001 L-113600 1001 L-112818 1001 L-105314 1001 L-103716 1001 L-102142 1001 L-98956 1001 L-94623 1001 L-86054 1000 L-77307 1000 L-74233 1000 L-70967 1000 L-70421 1000 L-63284 1000 L-57616 1000 L-43551 1000 L-37540 1000 L-32834 1000 L-28831 1000 L-23723 1000 L-14009 1000 L1561 999 L4643 999 L4945 958 L4965 907 L4984 848 L5004 783 L5023 754 L5043 729 L5061 706 L5089 683 L5110 661 L5138 638 L5173 612 L5186 590 L5200 572 L5218 556 L5237 545 L5257 533 L5275 521 L5294 509 L5314 498 L5335 485 L5352 473 L5371 461 L5391 450 L5411 439 L5430 426 L5448 414 L5468 401 L5488 388 L5507 375 L5526 364 L5547 352 L5572 341 L5586 330 L5603 320 L5623 309 L5642 299 L5662 287 L5680 276 L5700 265 L5721 254 L5739 244 L5758 234 L5778 226 L5799 217 L5816 210 L5835 203 L5855 196 L5874 189 L5894 182 L5912 176 L5932 171 L5952 166 L5971 162 L5990 157 L6017 150 L6038 144 L6066 137 L6100 129 L6114 122 L6127 117 L6146 111 L6165 107 L6185 102 L6203 97 L6223 91 L6243 86 L6263 81 L6281 76 L6299 71 L6320 66 L6339 60 L6358 54 L6377 47 L6397 40 L6416 32 L6435 25 L6454 17 L6475 9 L6500 0" />
</svg>
