<svg xmlns="http://www.w3.org/2000/svg" version="1.1" viewBox="0 0 6500 1000">
	<path fill="none" stroke="gold" stroke-width="125" stroke-linecap="round" stroke-linejoin="round" d="M0 5076  L-416565 5076 L-413961 5069 L-412293 5062 L-393964 5047 L-393793 5033 L-386636 5018 L-386603 5018 L-373172 5011 L-370250 5018 L-356909 4997 L-352740 4968 L-351580 4931 L-350961 4895 L-348949 4873 L-345177 4859 L-344577 4844 L-344248 4830 L-344035 4815 L-343494 4801 L-342256 4743 L-341077 4685 L-338212 4627 L-337690 4569 L-332834 4554 L-329897 4540 L-329854 4525 L-329546 4511 L-329294 4496 L-326699 4482 L-322444 4482 L-322426 4482 L-321189 4482 L-319311 4482 L-317358 4467 L-316410 4453 L-316139 4438 L-315829 4431 L-315731 4424 L-314901 4424 L-312870 4431 L-312580 4366 L-310433 4337 L-310278 4294 L-306621 4250 L-306370 4272 L-306272 4265 L-305755 4286 L-303604 4323 L-302675 4359 L-301149 4395 L-299909 4395 L-298363 4388 L-295401 4373 L-294279 4359 L-293970 4344 L-292759 4337 L-289752 4417 L-289732 4410 L-289385 4402 L-289172 4395 L-289046 4294 L-288804 4279 L-288766 4265 L-288747 4250 L-288727 4236 L-288668 4221 L-288610 4207 L-288592 4192 L-288149 4178 L-286909 4163 L-285363 4149 L-281976 4134 L-276249 4127 L-276048 4120 L-274412 4112 L-272690 4105 L-271258 4098 L-271026 4091 L-270310 4083 L-264178 4076 L-263810 4062 L-263656 4047 L-263078 4033 L-262785 4018 L-261818 4004 L-261508 3989 L-260909 3975 L-259303 3975 L-258568 3975 L-258258 3982 L-257490 3982 L-255454 3967 L-255028 3953 L-254216 3946 L-246787 3931 L-246264 3917 L-246091 3902 L-245356 3888 L-243788 3873 L-243382 3866 L-241157 3851 L-240209 3844 L-239784 3837 L-239454 3837 L-238410 3830 L-236302 3815 L-236050 3801 L-235431 3786 L-234618 3779 L-232510 3764 L-232462 3750 L-230534 3735 L-230208 3721 L-230073 3706 L-229570 3699 L-228157 3685 L-227654 3656 L-227132 3634 L-223573 3605 L-222838 3576 L-220413 3576 L-219123 3561 L-218717 3554 L-215564 3554 L-215409 3554 L-215389 3561 L-215022 3561 L-213764 3569 L-213049 3576 L-212159 3576 L-211752 3576 L-210824 3576 L-209715 3569 L-209412 3598 L-203163 3612 L-202216 3627 L-200589 3641 L-200088 3648 L-196412 3656 L-195580 3663 L-191627 3670 L-190215 3648 L-187725 3634 L-187049 3619 L-187010 3612 L-186139 3612 L-182928 3605 L-180065 3598 L-179097 3590 L-177976 3576 L-177957 3561 L-176332 3547 L-175868 3525 L-175776 3518 L-169406 3511 L-168458 3503 L-166001 3496 L-165128 3482 L-163892 3474 L-161891 3467 L-161494 3453 L-160057 3438 L-158031 3431 L-157818 3416 L-156638 3409 L-155129 3402 L-155109 3395 L-153097 3387 L-152228 3373 L-151357 3366 L-150772 3351 L-150235 3337 L-149577 3322 L-148339 3308 L-147778 3300 L-146597 3293 L-145360 3286 L-145321 3279 L-144934 3271 L-144392 3257 L-143619 3250 L-142496 3242 L-140407 3228 L-140074 3213 L-139788 3199 L-138860 3192 L-138376 3177 L-137641 3170 L-134010 3163 L-132882 3155 L-132727 3148 L-131701 3134 L-127987 3126 L-126769 3112 L-124951 3097 L-122165 3090 L-121604 3076 L-117716 3076 L-115239 3068 L-113904 3068 L-113401 3061 L-112918 3054 L-110228 3054 L-106457 3054 L-104000 3054 L-102820 3054 L-102181 3047 L-99821 3032 L-99744 3025 L-98696 3018 L-98603 3003 L-98100 3003 L-97654 3003 L-97597 3003 L-97383 3003 L-94423 2989 L-91716 2981 L-91561 2974 L-88040 2967 L-87517 2952 L-86550 2938 L-86201 2931 L-85157 2916 L-84229 2902 L-83803 2894 L-82294 2894 L-81327 2887 L-81308 2880 L-79412 2351 L-79296 1807 L-79248 1271 L-79224 734 L-76220 727 L-74189 713 L-72428 705 L-72061 698 L-71615 684 L-71248 676 L-70835 662 L-68850 655 L-68636 655 L-68481 647 L-66876 647 L-65754 640 L-64806 633 L-63549 618 L-61904 611 L-60725 597 L-54135 589 L-54089 582 L-53683 575 L-52638 568 L-52502 560 L-50820 546 L-50800 539 L-49463 524 L-48227 517 L-48073 510 L-47699 495 L-47492 488 L-47183 481 L-46409 466 L-44088 459 L-43430 452 L-41302 444 L-39580 437 L-39386 423 L-36833 415 L-36556 401 L-36368 386 L-35536 379 L-34763 372 L-34065 365 L-29065 365 L-28689 350 L-24436 343 L-23949 1060 L-23930 1060 L-23851 1053 L-23775 1046 L-23755 307 L-22943 299 L-22189 285 L-20970 278 L-19538 278 L-19442 270 L-19267 270 L-18913 256 L-17604 249 L-15746 241 L-14044 227 L-13541 220 L-13276 212 L-12883 205 L-12748 198 L-11839 191 L-11462 183 L-10534 183 L-10195 176 L-10155 176 L-10117 169 L-8202 169 L-8028 162 L-6499 162 L-6171 154 L-6055 147 L-5648 133 L-5300 125 L-3656 111 L-3105 104 L-2862 96 L-2321 89 L-1489 75 L-948 67 L586 53 L678 46 L715 38 L851 31 L1238 24 L2263 17 L4139 9 L4236 2 L4836 234 L5203 481 L5688 734 L5726 981 L6500 995" />
</svg>
