<svg xmlns="http://www.w3.org/2000/svg" version="1.1" viewBox="0 0 6500 1000">
	<path fill="none" stroke="gold" stroke-width="125" stroke-linecap="round" stroke-linejoin="round" d="M0 1046  L-713727 1046 L-711123 1046 L-709455 1045 L-691126 1045 L-690956 1045 L-683798 1045 L-683765 1045 L-670334 1044 L-667412 1045 L-654071 1044 L-649902 1043 L-648742 1043 L-648123 1042 L-646111 1041 L-642339 1041 L-641739 1041 L-641410 1040 L-641197 1040 L-640656 1040 L-639418 1039 L-638239 1037 L-635374 1036 L-634852 1035 L-629997 1034 L-627059 1034 L-627016 1034 L-626708 1033 L-626456 1033 L-623861 1033 L-619606 1033 L-619588 1033 L-618351 1033 L-616474 1033 L-614520 1033 L-613572 1032 L-613301 1032 L-612992 1032 L-612893 1032 L-612063 1032 L-610032 1032 L-609742 1030 L-607595 1030 L-607440 1029 L-603784 1028 L-603533 1028 L-603434 1028 L-602917 1029 L-600766 1029 L-599837 1030 L-598311 1031 L-597071 1031 L-595525 1031 L-592563 1031 L-591441 1030 L-591132 1030 L-589921 1030 L-586914 1031 L-586895 1031 L-586547 1031 L-586334 1031 L-586208 1029 L-585966 1028 L-585928 1028 L-585909 1028 L-585889 1028 L-585830 1027 L-585772 1027 L-585754 1027 L-585311 1026 L-584071 1026 L-582526 1026 L-579138 1025 L-573412 1025 L-573210 1025 L-571574 1025 L-569852 1025 L-568420 1025 L-568188 1024 L-567473 1024 L-561340 1024 L-560973 1024 L-560818 1023 L-560240 1023 L-559947 1023 L-558980 1022 L-558670 1022 L-558071 1022 L-556465 1022 L-555730 1022 L-555420 1022 L-554652 1022 L-552616 1022 L-552190 1021 L-551378 1021 L-543949 1021 L-543426 1021 L-543253 1020 L-542518 1020 L-540950 1020 L-540544 1019 L-538319 1019 L-537371 1019 L-536946 1019 L-536616 1019 L-535572 1019 L-533464 1018 L-533212 1018 L-532593 1018 L-531780 1018 L-529673 1017 L-529624 1017 L-527696 1017 L-527370 1016 L-527235 1016 L-526732 1016 L-525319 1016 L-524816 1015 L-524295 1014 L-520735 1014 L-520000 1013 L-517575 1013 L-516286 1013 L-515879 1013 L-512726 1013 L-512571 1013 L-512551 1013 L-512184 1013 L-510926 1013 L-510211 1013 L-509321 1013 L-508914 1013 L-507986 1013 L-506877 1013 L-506574 1014 L-500325 1014 L-499378 1014 L-497752 1015 L-497250 1015 L-493574 1015 L-492742 1015 L-488789 1015 L-487377 1015 L-484888 1014 L-484211 1014 L-484172 1014 L-483302 1014 L-480090 1014 L-477227 1014 L-476259 1013 L-475138 1013 L-475119 1013 L-473494 1013 L-473030 1012 L-472938 1012 L-466568 1012 L-465620 1012 L-463163 1011 L-462291 1011 L-461055 1011 L-459053 1011 L-458656 1010 L-457219 1010 L-455193 1010 L-454980 1010 L-453800 1010 L-452292 1009 L-452271 1009 L-450259 1009 L-449390 1009 L-448519 1009 L-447934 1008 L-447397 1008 L-446739 1008 L-445501 1007 L-444940 1007 L-443759 1007 L-442522 1007 L-442483 1007 L-442096 1007 L-441554 1006 L-440781 1006 L-439659 1006 L-437569 1006 L-437236 1005 L-436950 1005 L-436022 1005 L-435538 1004 L-434803 1004 L-431172 1004 L-430044 1004 L-429889 1004 L-428863 1004 L-425149 1003 L-423931 1003 L-422113 1003 L-419327 1003 L-418766 1002 L-414878 1002 L-412401 1002 L-411066 1002 L-410563 1002 L-410080 1002 L-407391 1002 L-403619 1002 L-401162 1002 L-399982 1002 L-399343 1002 L-396983 1001 L-396906 1001 L-395858 1001 L-395765 1001 L-395262 1001 L-394816 1001 L-394759 1001 L-394545 1001 L-391585 1000 L-388878 1000 L-388723 1000 L-385202 1000 L-384679 1000 L-383712 999 L-383363 999 L-382319 999 L-381391 999 L-380965 998 L-379456 998 L-378489 998 L-378470 998 L-376574 987 L-376458 975 L-376410 963 L-376386 951 L-373382 951 L-371351 951 L-369590 951 L-369223 951 L-368778 950 L-368411 950 L-367997 950 L-366012 950 L-365799 950 L-365644 949 L-364038 949 L-362917 949 L-361968 949 L-360711 949 L-359066 949 L-357887 948 L-351297 948 L-351251 948 L-350845 948 L-349800 948 L-349664 948 L-347982 947 L-347962 947 L-346625 947 L-345389 947 L-345235 946 L-344861 946 L-344655 946 L-344345 946 L-343571 946 L-341250 945 L-340592 945 L-338464 945 L-336742 945 L-336548 945 L-333995 944 L-333719 944 L-333530 944 L-332698 944 L-331925 943 L-331227 943 L-326227 943 L-325851 943 L-321598 943 L-321111 958 L-321092 958 L-321013 958 L-320937 958 L-320918 942 L-320105 942 L-319351 942 L-318132 941 L-316700 941 L-316604 941 L-316429 941 L-316075 941 L-314766 941 L-312908 941 L-311206 940 L-310703 940 L-310438 940 L-310045 940 L-309911 940 L-309001 940 L-308624 939 L-307696 939 L-307357 939 L-307317 939 L-307279 939 L-305364 939 L-305190 939 L-303662 939 L-303333 939 L-303217 939 L-302810 938 L-302462 938 L-300818 938 L-300267 938 L-300024 937 L-299483 937 L-298652 937 L-298110 937 L-296575 937 L-296483 936 L-296446 936 L-296310 936 L-295923 936 L-294898 936 L-293022 936 L-292926 935 L-292325 940 L-291958 946 L-291474 951 L-291435 957 L-290662 957 L-290604 957 L-290430 957 L-290236 956 L-288631 956 L-288611 956 L-288456 956 L-288340 956 L-287161 957 L-287006 957 L-286339 957 L-283891 970 L-281376 983 L-278706 996 L-271007 1009 L-265339 1009 L-263125 1009 L-263101 1009 L-262127 1012 L-262107 1012 L-261244 1011 L-258504 1011 L-252705 1008 L-252552 1008 L-249766 1007 L-236157 1007 L-235412 1007 L-231001 1007 L-214655 1007 L-214422 1006 L-213885 1006 L-205426 1006 L-196720 1006 L-196508 1006 L-194535 1005 L-191749 1005 L-187262 1006 L-187107 1005 L-186938 1005 L-186798 1005 L-186507 1005 L-186468 1005 L-186197 1005 L-186026 1004 L-185616 1004 L-184495 1004 L-183315 1004 L-182038 1004 L-179174 1004 L-176254 1004 L-174262 1003 L-172714 1003 L-169676 1003 L-160352 1003 L-159828 1003 L-154104 1003 L-152597 1002 L-151782 1002 L-150099 1002 L-149378 1002 L-149209 1002 L-148164 1002 L-146097 1001 L-144735 1001 L-140291 1001 L-140194 1001 L-140156 1001 L-140137 1001 L-139304 1001 L-139226 1000 L-136654 1000 L-133405 1000 L-133250 1000 L-132301 1000 L-130560 999 L-129845 1000 L-126304 1001 L-119727 1002 L-118310 1003 L-118289 1003 L-117338 1003 L-113864 1003 L-113111 1002 L-112549 1002 L-111767 1002 L-104263 1002 L-102665 1002 L-101091 1002 L-97905 1001 L-93572 1001 L-85002 1001 L-76256 1001 L-73182 1001 L-69916 1001 L-69370 1001 L-62232 1000 L-56565 1000 L-42500 1000 L-36489 1001 L-31783 1000 L-27779 1000 L-22672 1000 L-12958 1000 L2612 999 L5694 999 L5997 928 L6016 841 L6035 742 L6055 631 L6074 580 L6094 537 L6112 498 L6140 460 L6161 422 L6189 382 L6224 338 L6238 301 L6251 269 L6269 243 L6288 223 L6308 204 L6326 183 L6345 163 L6365 143 L6386 122 L6403 102 L6422 82 L6442 62 L6462 43 L6481 22 L6500 0" />
</svg>
