<svg xmlns="http://www.w3.org/2000/svg" version="1.1" viewBox="0 0 6500 1000">
	<path fill="none" stroke="gold" stroke-width="125" stroke-linecap="round" stroke-linejoin="round" d="M0 1015  L-719145 1015 L-716541 1015 L-714873 1015 L-696543 1015 L-696373 1015 L-689215 1015 L-689182 1015 L-675751 1015 L-672829 1015 L-659488 1015 L-655319 1014 L-654159 1014 L-653540 1014 L-651528 1014 L-647757 1014 L-647157 1013 L-646828 1013 L-646615 1013 L-646073 1013 L-644835 1013 L-643656 1012 L-640792 1012 L-640270 1011 L-635414 1011 L-632477 1011 L-632434 1011 L-632125 1011 L-631874 1011 L-629279 1011 L-625023 1011 L-625005 1011 L-623768 1011 L-621891 1011 L-619938 1011 L-618990 1011 L-618719 1011 L-618409 1010 L-618311 1010 L-617480 1010 L-615450 1010 L-615159 1010 L-613013 1010 L-612857 1009 L-609201 1009 L-608950 1009 L-608851 1009 L-608334 1009 L-606183 1010 L-605254 1010 L-603728 1010 L-602489 1010 L-600942 1010 L-597981 1010 L-596859 1010 L-596549 1010 L-595338 1010 L-592332 1010 L-592312 1010 L-591965 1010 L-591751 1010 L-591625 1009 L-591384 1009 L-591346 1009 L-591326 1009 L-591307 1009 L-591248 1009 L-591189 1009 L-591171 1009 L-590728 1009 L-589489 1008 L-587943 1008 L-584555 1008 L-578829 1008 L-578627 1008 L-576992 1008 L-575270 1008 L-573838 1008 L-573605 1008 L-572890 1008 L-566758 1008 L-566390 1008 L-566236 1008 L-565657 1008 L-565365 1007 L-564397 1007 L-564088 1007 L-563489 1007 L-561882 1007 L-561147 1007 L-560838 1007 L-560069 1007 L-558033 1007 L-557608 1007 L-556795 1007 L-549367 1007 L-548844 1007 L-548670 1007 L-547935 1006 L-546367 1006 L-545962 1006 L-543737 1006 L-542789 1006 L-542364 1006 L-542034 1006 L-540990 1006 L-538882 1006 L-538629 1006 L-538011 1006 L-537198 1006 L-535090 1006 L-535042 1005 L-533113 1005 L-532788 1005 L-532653 1005 L-532149 1005 L-530737 1005 L-530234 1005 L-529712 1005 L-526152 1004 L-525417 1004 L-522992 1004 L-521703 1004 L-521296 1004 L-518144 1004 L-517989 1004 L-517968 1004 L-517602 1004 L-516344 1004 L-515629 1004 L-514739 1004 L-514332 1004 L-513403 1004 L-512295 1004 L-511991 1004 L-505743 1004 L-504795 1005 L-503169 1005 L-502667 1005 L-498992 1005 L-498159 1005 L-494206 1005 L-492794 1005 L-490305 1005 L-489629 1005 L-489590 1004 L-488719 1004 L-485508 1004 L-482645 1004 L-481677 1004 L-480555 1004 L-480536 1004 L-478911 1004 L-478447 1004 L-478355 1004 L-471986 1004 L-471037 1004 L-468580 1004 L-467708 1004 L-466472 1003 L-464471 1003 L-464073 1003 L-462637 1003 L-460611 1003 L-460397 1003 L-459217 1003 L-457709 1003 L-457689 1003 L-455677 1003 L-454807 1003 L-453936 1003 L-453351 1003 L-452814 1002 L-452156 1002 L-450918 1002 L-450358 1002 L-449177 1002 L-447939 1002 L-447901 1002 L-447514 1002 L-446972 1002 L-446198 1002 L-445076 1002 L-442987 1002 L-442653 1002 L-442368 1001 L-441439 1001 L-440956 1001 L-440220 1001 L-436589 1001 L-435462 1001 L-435307 1001 L-434281 1001 L-430566 1001 L-429349 1001 L-427530 1001 L-424745 1001 L-424183 1001 L-420295 1001 L-417819 1000 L-416484 1000 L-415980 1000 L-415497 1000 L-412808 1000 L-409036 1000 L-406579 1000 L-405399 1000 L-404760 1000 L-402401 1000 L-402323 1000 L-401276 1000 L-401182 1000 L-400679 1000 L-400234 1000 L-400176 1000 L-399962 1000 L-397003 1000 L-394295 1000 L-394140 1000 L-390620 1000 L-390097 1000 L-389129 1000 L-388780 999 L-387737 999 L-386808 999 L-386382 999 L-384873 999 L-383907 999 L-383888 999 L-381992 995 L-381876 991 L-381828 987 L-381803 983 L-378799 983 L-376768 983 L-375008 983 L-374640 983 L-374195 983 L-373828 983 L-373414 983 L-371429 983 L-371216 983 L-371061 983 L-369456 983 L-368334 983 L-367386 983 L-366128 983 L-364484 983 L-363304 982 L-356715 982 L-356668 982 L-356262 982 L-355217 982 L-355082 982 L-353399 982 L-353379 982 L-352043 982 L-350806 982 L-350652 982 L-350278 982 L-350072 982 L-349763 982 L-348989 981 L-346667 981 L-346009 981 L-343882 981 L-342159 981 L-341966 981 L-339412 981 L-339136 981 L-338948 981 L-338115 981 L-337343 981 L-336645 981 L-331644 981 L-331268 981 L-327016 981 L-326528 986 L-326509 986 L-326430 986 L-326355 986 L-326335 980 L-325522 980 L-324769 980 L-323549 980 L-322117 980 L-322021 980 L-321847 980 L-321492 980 L-320183 980 L-318326 980 L-316623 980 L-316121 980 L-315855 980 L-315462 980 L-315328 979 L-314418 979 L-314042 979 L-313113 979 L-312774 979 L-312735 979 L-312697 979 L-310781 979 L-310608 979 L-309079 979 L-308751 979 L-308635 979 L-308228 979 L-307879 979 L-306236 979 L-305685 979 L-305442 979 L-304900 979 L-304069 979 L-303527 979 L-301993 978 L-301901 978 L-301864 978 L-301728 978 L-301340 978 L-300316 978 L-298439 978 L-298343 978 L-297743 980 L-297376 982 L-296891 983 L-296853 985 L-296079 985 L-296022 985 L-295847 985 L-295654 985 L-294048 985 L-294028 985 L-293873 985 L-293758 985 L-292578 985 L-292423 985 L-291756 985 L-289308 990 L-286793 994 L-284123 998 L-276424 1003 L-270757 1003 L-268542 1003 L-268519 1003 L-267545 1004 L-267525 1004 L-266661 1004 L-263921 1004 L-258122 1002 L-257969 1002 L-255183 1002 L-241575 1002 L-240829 1002 L-236418 1002 L-220072 1002 L-219840 1002 L-219303 1002 L-210843 1002 L-202138 1002 L-201925 1002 L-199953 1002 L-197167 1002 L-192679 1002 L-192524 1002 L-192355 1002 L-192215 1002 L-191924 1001 L-191886 1001 L-191615 1001 L-191443 1001 L-191033 1001 L-189912 1001 L-188732 1001 L-187455 1001 L-184591 1001 L-181671 1001 L-179679 1001 L-178131 1001 L-175094 1001 L-165769 1001 L-165245 1001 L-159521 1001 L-158014 1001 L-157200 1001 L-155516 1000 L-154795 1000 L-154627 1000 L-153581 1000 L-151514 1000 L-150152 1000 L-145709 1000 L-145612 1000 L-145573 1000 L-145554 1000 L-144722 1000 L-144644 1000 L-142071 1000 L-138822 1000 L-138667 1000 L-137719 1000 L-135978 1000 L-135262 1000 L-131722 1000 L-125144 1000 L-123727 1001 L-123706 1001 L-122756 1001 L-119281 1001 L-118528 1001 L-117967 1001 L-117184 1000 L-109680 1000 L-108082 1000 L-106508 1000 L-103323 1000 L-98990 1000 L-90420 1000 L-81674 1000 L-78600 1000 L-75334 1000 L-74787 1000 L-67650 1000 L-61982 1000 L-47918 1000 L-41906 1000 L-37200 1000 L-33197 1000 L-28089 1000 L-18375 1000 L-2805 1000 L277 999 L579 976 L599 946 L618 913 L637 876 L657 859 L676 844 L695 831 L722 818 L743 805 L771 792 L806 777 L820 765 L833 754 L852 745 L870 739 L890 732 L908 725 L928 718 L948 712 L969 704 L986 698 L1004 691 L1025 684 L1045 678 L1063 671 L1082 663 L1102 656 L1122 649 L1140 641 L1159 635 L1180 628 L1205 622 L1220 616 L1237 610 L1257 603 L1276 597 L1295 591 L1314 584 L1334 578 L1355 572 L1373 566 L1391 561 L1412 555 L1433 551 L1450 546 L1469 542 L1489 538 L1508 534 L1527 531 L1546 527 L1566 524 L1586 522 L1605 519 L1623 516 L1651 512 L1672 509 L1699 504 L1733 500 L1748 496 L1761 493 L1779 490 L1798 487 L1818 485 L1837 481 L1856 478 L1876 475 L1897 472 L1914 470 L1933 467 L1953 464 L1973 461 L1992 457 L2010 453 L2030 449 L2050 444 L2069 440 L2088 436 L2109 431 L2133 426 L2148 421 L2165 416 L2185 411 L2204 406 L2224 401 L2242 396 L2263 391 L2283 386 L2301 381 L2320 376 L2340 372 L2361 367 L2378 363 L2397 359 L2417 355 L2436 352 L2456 348 L2475 345 L2494 341 L2514 338 L2533 334 L2552 331 L2581 327 L2601 324 L2628 321 L2666 317 L2681 313 L2693 309 L2710 306 L2727 304 L2747 301 L2766 299 L2785 297 L2805 295 L2825 293 L2843 291 L2861 289 L2882 286 L2902 284 L2920 281 L2939 278 L2959 275 L2979 272 L2997 269 L3016 266 L3037 263 L3062 259 L3076 256 L3094 253 L3114 250 L3133 247 L3152 244 L3171 240 L3191 237 L3211 234 L3230 230 L3248 228 L3269 225 L3289 222 L3307 219 L3326 217 L3346 214 L3364 211 L3384 209 L3403 206 L3423 204 L3442 201 L3462 199 L3481 196 L3509 194 L3529 191 L3557 188 L3593 184 L3607 181 L3620 177 L3638 174 L3656 172 L3676 170 L3694 168 L3714 165 L3734 163 L3755 160 L3773 157 L3790 153 L3811 150 L3831 146 L3849 142 L3868 138 L3888 134 L3908 131 L3926 127 L3945 124 L3966 122 L3991 120 L4006 118 L4023 116 L4042 114 L4062 112 L4081 110 L4100 108 L4120 106 L4141 104 L4158 103 L4177 101 L4198 99 L4219 96 L4235 93 L4254 91 L4275 90 L4293 89 L4313 87 L4332 86 L4352 85 L4371 83 L4390 82 L4409 81 L4437 79 L4458 78 L4485 76 L4520 75 L4534 73 L4547 72 L4566 71 L4584 70 L4604 69 L4623 68 L4642 67 L4662 66 L4683 65 L4700 64 L4719 63 L4739 61 L4759 60 L4777 59 L4796 58 L4816 57 L4836 56 L4855 55 L4873 54 L4895 53 L4920 52 L4934 51 L4951 50 L4971 49 L4990 48 L5010 47 L5029 46 L5048 45 L5069 43 L5087 42 L5106 41 L5126 40 L5147 40 L5164 39 L5183 38 L5203 37 L5222 36 L5242 35 L5260 34 L5280 34 L5300 33 L5319 32 L5338 34 L5367 35 L5386 36 L5414 37 L5452 36 L5467 35 L5479 34 L5497 34 L5513 33 L5533 33 L5551 32 L5571 31 L5591 31 L5612 30 L5629 30 L5647 29 L5668 29 L5688 28 L5706 27 L5725 27 L5745 26 L5765 25 L5783 25 L5802 24 L5823 24 L5848 23 L5863 23 L5880 22 L5899 21 L5919 21 L5938 20 L5957 20 L5977 19 L5998 18 L6015 17 L6034 16 L6055 15 L6075 15 L6093 14 L6112 13 L6132 13 L6150 12 L6170 11 L6189 10 L6209 9 L6228 9 L6248 8 L6266 8 L6294 7 L6315 6 L6343 5 L6377 5 L6391 4 L6404 3 L6423 2 L6442 2 L6462 1 L6480 1 L6500 0" />
</svg>
