<svg xmlns="http://www.w3.org/2000/svg" version="1.1" viewBox="0 0 6500 1000">
	<path fill="none" stroke="gold" stroke-width="125" stroke-linecap="round" stroke-linejoin="round" d="M0 9128  L-120313 9128 L-117709 9039 L-116041 8949 L-97711 8771 L-97541 8592 L-90383 8413 L-90350 8413 L-76919 8323 L-73997 8413 L-60656 8144 L-56487 7787 L-55327 7339 L-54708 6892 L-52696 6624 L-48925 6445 L-48325 6266 L-47996 6087 L-47783 5908 L-47241 5729 L-46003 5014 L-44824 4298 L-41960 3583 L-41438 2867 L-36582 2688 L-33645 2509 L-33602 2330 L-33293 2152 L-33042 1973 L-30447 1794 L-26191 1794 L-26173 1794 L-24936 1794 L-23059 1794 L-21106 1615 L-20158 1436 L-19887 1257 L-19577 1168 L-19479 1078 L-18648 1078 L-16618 1168 L-16327 363 L-14181 5 L-14025 -531 L-10369 -1067 L-10118 -799 L-10019 -889 L-9502 -620 L-7351 -173 L-6422 273 L-4896 720 L-3657 720 L-2110 631 L851 452 L1972 273 L2282 94 L3493 5 L6500 989" />
</svg>
