<svg xmlns="http://www.w3.org/2000/svg" version="1.1" viewBox="0 0 6500 1000">
	<path fill="none" stroke="gold" stroke-width="125" stroke-linecap="round" stroke-linejoin="round" d="M0 3449  L-726322 3449 L-723718 3449 L-722050 3448 L-703720 3448 L-703550 3448 L-696392 3448 L-696359 3448 L-682928 3447 L-680006 3448 L-666665 3447 L-662496 3447 L-661336 3446 L-660717 3445 L-658705 3445 L-654934 3444 L-654333 3444 L-654005 3444 L-653792 3443 L-653250 3443 L-652012 3442 L-650833 3441 L-647969 3439 L-647446 3438 L-642591 3438 L-639654 3438 L-639611 3437 L-639302 3437 L-639050 3437 L-636456 3436 L-632200 3436 L-632182 3436 L-630945 3436 L-629068 3436 L-627114 3436 L-626166 3436 L-625896 3435 L-625586 3435 L-625488 3435 L-624657 3435 L-622627 3435 L-622336 3434 L-620190 3433 L-620034 3432 L-616378 3431 L-616127 3432 L-616028 3432 L-615511 3432 L-613360 3433 L-612431 3434 L-610905 3434 L-609666 3434 L-608119 3434 L-605157 3434 L-604036 3434 L-603726 3433 L-602515 3433 L-599508 3435 L-599489 3435 L-599141 3435 L-598928 3434 L-598802 3432 L-598561 3432 L-598523 3432 L-598503 3431 L-598484 3431 L-598425 3431 L-598366 3431 L-598348 3430 L-597905 3430 L-596666 3430 L-595120 3429 L-591732 3429 L-586006 3429 L-585804 3429 L-584169 3429 L-582447 3428 L-581014 3428 L-580782 3428 L-580067 3428 L-573935 3428 L-573567 3427 L-573412 3427 L-572834 3427 L-572542 3427 L-571574 3426 L-571265 3426 L-570666 3426 L-569059 3426 L-568324 3426 L-568014 3426 L-567246 3426 L-565210 3426 L-564785 3425 L-563972 3425 L-556544 3425 L-556021 3424 L-555847 3424 L-555112 3424 L-553544 3424 L-553139 3423 L-550914 3423 L-549966 3423 L-549541 3423 L-549210 3423 L-548167 3423 L-546059 3422 L-545806 3422 L-545187 3422 L-544375 3422 L-542267 3421 L-542218 3421 L-540290 3421 L-539964 3420 L-539829 3420 L-539326 3420 L-537914 3420 L-537411 3419 L-536889 3419 L-533329 3418 L-532594 3417 L-530169 3417 L-528880 3417 L-528473 3417 L-525320 3417 L-525166 3417 L-525145 3417 L-524779 3417 L-523521 3417 L-522806 3417 L-521916 3417 L-521509 3417 L-520580 3417 L-519471 3417 L-519168 3418 L-512919 3418 L-511972 3418 L-510346 3419 L-509844 3419 L-506168 3419 L-505336 3419 L-501383 3419 L-499971 3419 L-497482 3419 L-496805 3418 L-496767 3418 L-495896 3418 L-492685 3418 L-489821 3418 L-488854 3418 L-487732 3417 L-487713 3417 L-486088 3417 L-485624 3416 L-485532 3416 L-479163 3416 L-478214 3416 L-475757 3416 L-474885 3415 L-473649 3415 L-471648 3415 L-471250 3415 L-469814 3414 L-467788 3414 L-467574 3414 L-466394 3414 L-464886 3414 L-464866 3413 L-462853 3413 L-461984 3413 L-461113 3413 L-460528 3413 L-459991 3412 L-459333 3412 L-458095 3412 L-457535 3412 L-456353 3411 L-455116 3411 L-455077 3411 L-454690 3411 L-454149 3411 L-453375 3410 L-452253 3410 L-450164 3410 L-449830 3410 L-449544 3409 L-448616 3409 L-448133 3409 L-447397 3409 L-443766 3409 L-442638 3408 L-442484 3408 L-441458 3408 L-437743 3408 L-436526 3408 L-434707 3407 L-431921 3407 L-431360 3407 L-427472 3407 L-424996 3407 L-423661 3407 L-423157 3406 L-422674 3406 L-419985 3406 L-416213 3406 L-413756 3406 L-412576 3406 L-411937 3406 L-409577 3406 L-409500 3406 L-408453 3406 L-408359 3405 L-407856 3405 L-407411 3405 L-407353 3405 L-407139 3405 L-404180 3405 L-401472 3405 L-401317 3405 L-397796 3405 L-397274 3404 L-396306 3404 L-395957 3404 L-394914 3403 L-393985 3403 L-393559 3403 L-392050 3403 L-391083 3403 L-391064 3403 L-389168 3392 L-389052 3380 L-389004 3369 L-388980 3358 L-385976 3357 L-383945 3357 L-382184 3357 L-381817 3357 L-381372 3357 L-381005 3356 L-380591 3356 L-378606 3356 L-378393 3356 L-378238 3356 L-376633 3356 L-375511 3356 L-374563 3356 L-373305 3355 L-371661 3355 L-370481 3355 L-363892 3355 L-363845 3354 L-363439 3354 L-362394 3354 L-362259 3354 L-360576 3354 L-360556 3354 L-359219 3353 L-357983 3353 L-357829 3353 L-357455 3353 L-357249 3352 L-356939 3352 L-356166 3352 L-353844 3352 L-353186 3352 L-351058 3352 L-349336 3351 L-349143 3351 L-346589 3351 L-346313 3351 L-346125 3350 L-345292 3350 L-344520 3350 L-343822 3350 L-338821 3350 L-338445 3350 L-334192 3349 L-333705 3364 L-333686 3364 L-333607 3364 L-333532 3364 L-333512 3349 L-332699 3349 L-331945 3348 L-330726 3348 L-329294 3348 L-329198 3348 L-329024 3348 L-328669 3348 L-327360 3347 L-325503 3347 L-323800 3347 L-323297 3347 L-323032 3347 L-322639 3347 L-322505 3346 L-321595 3346 L-321219 3346 L-320290 3346 L-319951 3346 L-319911 3346 L-319874 3346 L-317958 3346 L-317785 3346 L-316256 3346 L-315928 3345 L-315812 3345 L-315404 3345 L-315056 3345 L-313413 3345 L-312862 3344 L-312619 3344 L-312077 3344 L-311246 3344 L-310704 3344 L-309170 3343 L-309077 3343 L-309040 3343 L-308905 3343 L-308517 3343 L-307493 3343 L-305616 3342 L-305520 3342 L-304919 3347 L-304552 3352 L-304068 3358 L-304030 3363 L-303256 3363 L-303198 3363 L-303024 3363 L-302830 3363 L-301225 3362 L-301205 3362 L-301050 3362 L-300934 3363 L-299755 3363 L-299600 3363 L-298933 3363 L-296485 3376 L-293970 3388 L-291300 3401 L-283601 3413 L-277933 3413 L-275719 3413 L-275695 3413 L-274722 3416 L-274702 3416 L-273838 3416 L-271098 3415 L-265299 3412 L-265146 3412 L-262360 3412 L-248752 3412 L-248006 3411 L-243595 3411 L-227249 3411 L-227017 3411 L-226480 3410 L-218020 3410 L-209315 3410 L-209102 3410 L-207130 3410 L-204344 3410 L-199856 3410 L-199701 3410 L-199532 3410 L-199392 3410 L-199101 3409 L-199062 3409 L-198792 3409 L-198620 3409 L-198210 3409 L-197089 3409 L-195909 3408 L-194632 3408 L-191768 3408 L-188848 3408 L-186856 3408 L-185308 3408 L-182270 3407 L-172946 3407 L-172422 3407 L-166698 3407 L-165191 3407 L-164377 3407 L-162693 3407 L-161972 3406 L-161803 3406 L-160758 3406 L-158691 3406 L-157329 3406 L-152886 3406 L-152788 3406 L-152750 3405 L-152731 3405 L-151898 3405 L-151821 3405 L-149248 3405 L-145999 3405 L-145844 3404 L-144896 3404 L-143155 3404 L-142439 3405 L-138899 3406 L-132321 3406 L-130904 3408 L-130883 3408 L-129933 3407 L-126458 3407 L-125705 3407 L-125143 3407 L-124361 3407 L-116857 3406 L-115259 3406 L-113685 3406 L-110499 3406 L-106166 3406 L-97597 3406 L-88850 3406 L-85777 3406 L-82510 3405 L-81964 3405 L-74827 3405 L-69159 3405 L-55095 3405 L-49083 3405 L-44377 3405 L-40374 3405 L-35266 3405 L-25552 3404 L-9982 3404 L-6899 3404 L-6597 3335 L-6577 3251 L-6558 3155 L-6539 3048 L-6519 2999 L-6500 2958 L-6481 2920 L-6453 2883 L-6433 2847 L-6405 2808 L-6369 2766 L-6356 2730 L-6343 2699 L-6324 2674 L-6306 2655 L-6286 2636 L-6267 2616 L-6248 2597 L-6228 2578 L-6207 2557 L-6190 2537 L-6172 2518 L-6151 2500 L-6131 2481 L-6113 2460 L-6094 2439 L-6074 2418 L-6054 2397 L-6035 2376 L-6017 2357 L-5995 2339 L-5971 2320 L-5956 2302 L-5939 2285 L-5919 2267 L-5900 2250 L-5881 2231 L-5862 2212 L-5842 2194 L-5821 2177 L-5803 2160 L-5784 2144 L-5764 2129 L-5743 2115 L-5726 2103 L-5707 2092 L-5687 2080 L-5668 2069 L-5649 2058 L-5630 2049 L-5610 2040 L-5590 2032 L-5571 2024 L-5552 2016 L-5525 2006 L-5504 1995 L-5476 1983 L-5442 1970 L-5428 1959 L-5415 1950 L-5396 1941 L-5377 1934 L-5357 1926 L-5339 1917 L-5320 1908 L-5300 1899 L-5279 1891 L-5262 1883 L-5243 1875 L-5223 1867 L-5203 1857 L-5184 1847 L-5166 1835 L-5146 1823 L-5126 1811 L-5107 1799 L-5088 1787 L-5067 1773 L-5043 1758 L-5028 1743 L-5011 1729 L-4991 1716 L-4972 1702 L-4952 1687 L-4933 1672 L-4913 1658 L-4893 1643 L-4875 1629 L-4856 1616 L-4836 1603 L-4815 1590 L-4798 1578 L-4779 1567 L-4759 1555 L-4740 1545 L-4720 1535 L-4701 1525 L-4681 1515 L-4662 1505 L-4643 1495 L-4624 1485 L-4595 1474 L-4575 1465 L-4548 1456 L-4510 1444 L-4495 1433 L-4483 1423 L-4466 1414 L-4449 1407 L-4429 1400 L-4410 1394 L-4391 1389 L-4371 1383 L-4350 1377 L-4333 1371 L-4314 1364 L-4294 1357 L-4274 1350 L-4256 1342 L-4237 1334 L-4217 1325 L-4197 1316 L-4178 1307 L-4160 1298 L-4139 1289 L-4114 1280 L-4100 1272 L-4082 1263 L-4062 1253 L-4043 1245 L-4024 1235 L-4005 1225 L-3985 1216 L-3964 1206 L-3946 1197 L-3927 1189 L-3907 1180 L-3887 1172 L-3869 1165 L-3850 1157 L-3830 1150 L-3811 1142 L-3792 1134 L-3773 1127 L-3753 1120 L-3734 1113 L-3714 1106 L-3695 1099 L-3667 1092 L-3647 1085 L-3619 1076 L-3583 1065 L-3569 1055 L-3556 1045 L-3538 1036 L-3520 1031 L-3500 1025 L-3482 1018 L-3462 1010 L-3442 1002 L-3421 994 L-3403 985 L-3386 976 L-3365 966 L-3345 955 L-3327 944 L-3308 933 L-3288 921 L-3268 910 L-3250 900 L-3231 892 L-3210 885 L-3185 880 L-3170 874 L-3153 869 L-3134 863 L-3114 857 L-3095 851 L-3076 845 L-3056 840 L-3035 835 L-3018 831 L-2999 825 L-2978 819 L-2957 811 L-2940 804 L-2921 798 L-2901 793 L-2883 790 L-2863 786 L-2844 783 L-2824 779 L-2805 775 L-2785 771 L-2767 767 L-2739 763 L-2718 759 L-2691 755 L-2656 750 L-2642 746 L-2629 742 L-2610 739 L-2591 736 L-2572 733 L-2553 730 L-2534 727 L-2514 724 L-2493 721 L-2476 718 L-2457 715 L-2436 712 L-2416 708 L-2398 704 L-2380 701 L-2360 699 L-2339 696 L-2321 693 L-2302 690 L-2281 687 L-2256 684 L-2242 681 L-2225 679 L-2205 676 L-2186 673 L-2166 670 L-2147 667 L-2128 664 L-2107 660 L-2089 657 L-2070 655 L-2050 652 L-2029 649 L-2012 647 L-1993 644 L-1973 641 L-1954 639 L-1934 636 L-1916 634 L-1895 632 L-1876 631 L-1857 629 L-1838 632 L-1809 635 L-1790 638 L-1762 641 L-1724 638 L-1709 636 L-1696 634 L-1679 632 L-1663 631 L-1643 629 L-1625 627 L-1605 625 L-1585 624 L-1564 622 L-1547 621 L-1529 619 L-1508 618 L-1488 616 L-1470 614 L-1451 612 L-1431 610 L-1411 609 L-1393 607 L-1374 605 L-1353 604 L-1328 603 L-1313 601 L-1296 599 L-1276 597 L-1257 595 L-1238 594 L-1219 592 L-1199 590 L-1178 587 L-1161 585 L-1142 582 L-1121 580 L-1100 578 L-1083 576 L-1064 574 L-1044 572 L-1025 570 L-1006 567 L-987 565 L-967 563 L-947 561 L-928 559 L-910 557 L-882 555 L-861 553 L-833 551 L-798 549 L-785 547 L-772 545 L-753 543 L-734 541 L-714 539 L-696 538 L-676 536 L-657 534 L-636 532 L-619 530 L-600 528 L-579 526 L-559 524 L-541 521 L-522 518 L-503 515 L-482 512 L-464 510 L-445 507 L-424 505 L-399 502 L-384 499 L-367 496 L-348 494 L-328 491 L-309 489 L-290 486 L-270 483 L-249 481 L-232 478 L-213 476 L-192 473 L-172 471 L-155 469 L-136 467 L-116 466 L-97 464 L-77 463 L-58 461 L-39 460 L-19 458 L0 457 L18 456 L46 454 L66 453 L94 451 L130 448 L143 446 L157 443 L175 441 L193 439 L213 437 L232 436 L251 434 L271 432 L292 431 L309 429 L328 427 L348 425 L368 423 L386 420 L405 418 L425 416 L446 414 L463 412 L482 410 L504 409 L529 407 L543 405 L560 403 L580 401 L599 400 L618 397 L637 395 L657 392 L678 389 L696 386 L715 384 L735 381 L756 379 L773 378 L792 376 L812 375 L831 374 L850 373 L869 371 L889 370 L909 368 L928 367 L947 366 L974 365 L995 363 L1023 362 L1057 361 L1071 360 L1084 358 L1103 357 L1122 356 L1141 355 L1160 354 L1179 353 L1199 353 L1220 352 L1237 351 L1256 349 L1276 348 L1296 347 L1315 346 L1333 345 L1353 344 L1374 343 L1392 342 L1411 342 L1432 341 L1457 340 L1471 339 L1489 338 L1508 337 L1527 336 L1547 335 L1566 334 L1586 332 L1606 331 L1624 328 L1643 326 L1663 324 L1684 322 L1702 321 L1721 320 L1740 318 L1759 317 L1779 315 L1798 314 L1818 313 L1837 311 L1856 310 L1875 309 L1904 308 L1952 308 L1988 306 L2003 305 L2016 304 L2033 303 L2050 303 L2070 302 L2089 301 L2108 301 L2128 300 L2148 299 L2166 298 L2185 298 L2205 297 L2225 296 L2243 295 L2262 294 L2282 293 L2302 292 L2320 291 L2339 290 L2361 288 L2385 287 L2400 285 L2417 283 L2437 282 L2456 280 L2475 279 L2494 278 L2514 276 L2535 274 L2553 273 L2572 271 L2592 270 L2612 269 L2630 268 L2649 267 L2669 266 L2688 265 L2708 264 L2726 263 L2746 262 L2766 260 L2785 259 L2804 258 L2832 257 L2852 256 L2880 254 L2917 252 L2931 250 L2944 247 L2962 246 L2979 244 L2999 243 L3017 242 L3037 241 L3057 241 L3078 240 L3095 239 L3113 237 L3134 236 L3154 234 L3172 232 L3191 230 L3211 228 L3232 226 L3249 224 L3268 222 L3289 221 L3314 219 L3329 217 L3347 216 L3365 215 L3386 213 L3404 212 L3423 210 L3443 208 L3465 207 L3481 205 L3501 204 L3521 203 L3542 201 L3559 200 L3578 199 L3597 198 L3617 197 L3636 195 L3655 194 L3675 193 L3695 192 L3714 191 L3732 190 L3760 997 L3781 996 L3809 994 L3844 992 L3858 183 L3872 181 L3890 180 L3908 179 L3927 178 L3946 178 L3965 177 L3985 175 L4007 174 L4023 172 L4042 170 L4063 169 L4083 167 L4101 164 L4120 162 L4139 160 L4160 159 L4178 157 L4197 156 L4218 155 L4243 153 L4258 151 L4288 149 L4327 146 L4350 144 L4380 141 L4396 139 L4410 137 L4429 135 L4450 134 L4470 133 L4487 132 L4506 131 L4526 130 L4545 129 L4565 128 L4584 128 L4603 127 L4624 126 L4642 125 L4661 124 L4689 123 L4709 122 L4737 121 L4772 119 L4786 118 L4818 117 L4836 115 L4856 115 L4875 114 L4894 113 L4914 112 L4935 112 L4952 111 L4970 109 L4991 106 L5012 102 L5029 98 L5048 95 L5068 92 L5088 89 L5106 87 L5125 85 L5147 84 L5172 83 L5187 81 L5204 80 L5223 78 L5243 77 L5261 75 L5281 74 L5300 72 L5322 70 L5338 68 L5358 67 L5378 66 L5399 65 L5416 64 L5435 63 L5455 62 L5474 61 L5493 59 L5512 58 L5532 57 L5552 56 L5571 55 L5589 54 L5617 53 L5638 52 L5708 50 L5736 48 L5750 45 L5765 43 L5785 41 L5803 40 L5822 39 L5842 37 L5863 36 L5880 35 L5899 34 L5920 33 L5940 33 L5958 32 L5977 30 L5997 29 L6017 27 L6035 26 L6054 24 L6075 23 L6100 23 L6115 21 L6133 20 L6151 19 L6171 17 L6190 16 L6209 14 L6229 13 L6250 12 L6267 11 L6286 10 L6307 9 L6328 8 L6344 7 L6402 6 L6422 5 L6441 4 L6461 3 L6481 2 L6500 1" />
</svg>
