<svg xmlns="http://www.w3.org/2000/svg" version="1.1" viewBox="0 0 6500 1000">
	<path fill="none" stroke="gold" stroke-width="125" stroke-linecap="round" stroke-linejoin="round" d="M0 11634  L-730867 11634 L-728263 11633 L-726595 11633 L-708266 11632 L-708095 11631 L-700938 11630 L-700904 11630 L-687474 11629 L-684552 11630 L-671211 11629 L-667042 11627 L-665882 11624 L-665263 11622 L-663251 11620 L-659479 11619 L-658879 11618 L-658550 11617 L-658337 11616 L-657795 11615 L-656557 11611 L-655379 11608 L-652514 11604 L-651992 11600 L-647136 11599 L-644199 11598 L-644156 11597 L-643848 11596 L-643596 11595 L-641001 11594 L-636746 11594 L-636728 11594 L-635491 11594 L-633613 11594 L-631660 11593 L-630712 11592 L-630441 11591 L-630131 11590 L-630033 11590 L-629203 11590 L-627172 11590 L-626882 11586 L-624735 11584 L-624580 11581 L-620923 11578 L-620672 11580 L-620574 11579 L-620057 11581 L-617906 11583 L-616977 11586 L-615451 11588 L-614211 11588 L-612665 11588 L-609703 11587 L-608581 11586 L-608272 11585 L-607061 11584 L-604054 11589 L-604034 11589 L-603687 11589 L-603474 11588 L-603348 11581 L-603106 11580 L-603068 11579 L-603048 11578 L-603029 11577 L-602970 11576 L-602912 11575 L-602894 11574 L-602451 11573 L-601211 11572 L-599665 11571 L-596278 11570 L-590551 11570 L-590350 11569 L-588714 11569 L-586992 11569 L-585560 11568 L-585328 11568 L-584612 11567 L-578480 11567 L-578112 11566 L-577958 11565 L-577380 11564 L-577087 11563 L-576120 11562 L-575810 11561 L-575211 11560 L-573605 11560 L-572870 11560 L-572560 11560 L-571792 11560 L-569756 11559 L-569330 11558 L-568518 11558 L-561089 11557 L-560566 11556 L-560393 11555 L-559657 11554 L-558090 11553 L-557684 11552 L-555459 11551 L-554511 11551 L-554086 11550 L-553756 11550 L-552712 11550 L-550604 11549 L-550352 11548 L-549733 11547 L-548920 11547 L-546812 11546 L-546764 11545 L-544836 11544 L-544510 11543 L-544375 11542 L-543872 11541 L-542459 11540 L-541956 11538 L-541434 11537 L-537875 11535 L-537140 11533 L-534715 11533 L-533425 11532 L-533018 11531 L-529866 11531 L-529711 11531 L-529691 11532 L-529324 11532 L-528066 11532 L-527351 11533 L-526461 11533 L-526054 11533 L-525126 11533 L-524017 11532 L-523714 11534 L-517465 11535 L-516518 11536 L-514891 11537 L-514390 11538 L-510714 11538 L-509882 11539 L-505928 11539 L-504517 11538 L-502027 11537 L-501351 11536 L-501312 11535 L-500441 11535 L-497230 11535 L-494367 11534 L-493399 11534 L-492278 11533 L-492259 11532 L-490634 11531 L-490169 11529 L-490078 11529 L-483708 11529 L-482760 11528 L-480303 11528 L-479430 11527 L-478194 11526 L-476193 11526 L-475795 11525 L-474359 11524 L-472333 11523 L-472120 11522 L-470940 11522 L-469431 11521 L-469411 11521 L-467399 11520 L-466529 11519 L-465659 11519 L-465074 11518 L-464537 11517 L-463879 11516 L-462641 11515 L-462080 11514 L-460899 11514 L-459661 11513 L-459623 11513 L-459236 11512 L-458694 11511 L-457921 11511 L-456798 11510 L-454709 11509 L-454376 11509 L-454090 11508 L-453161 11507 L-452678 11506 L-451943 11506 L-448311 11505 L-447184 11505 L-447029 11504 L-446003 11503 L-442289 11503 L-441071 11502 L-439253 11501 L-436467 11500 L-435905 11499 L-432018 11499 L-429541 11499 L-428206 11499 L-427703 11498 L-427220 11498 L-424530 11498 L-420759 11498 L-418301 11498 L-417122 11498 L-416482 11497 L-414123 11496 L-414045 11496 L-412998 11495 L-412904 11494 L-412402 11494 L-411956 11494 L-411898 11494 L-411685 11494 L-408725 11493 L-406018 11493 L-405863 11492 L-402342 11492 L-401819 11491 L-400852 11490 L-400503 11489 L-399459 11489 L-398530 11488 L-398105 11487 L-396596 11487 L-395629 11487 L-395610 11486 L-393714 11450 L-393598 11414 L-393550 11378 L-393526 11342 L-390521 11341 L-388491 11340 L-386730 11340 L-386363 11339 L-385917 11338 L-385550 11338 L-385136 11337 L-383151 11336 L-382938 11336 L-382783 11336 L-381178 11336 L-380056 11335 L-379108 11335 L-377851 11334 L-376206 11333 L-375027 11332 L-368437 11332 L-368390 11331 L-367985 11331 L-366940 11330 L-366804 11330 L-365122 11329 L-365102 11328 L-363765 11328 L-362529 11327 L-362375 11327 L-362001 11326 L-361794 11325 L-361485 11325 L-360711 11324 L-358390 11323 L-357732 11323 L-355604 11322 L-353882 11322 L-353688 11321 L-351135 11320 L-350858 11319 L-350670 11318 L-349838 11318 L-349065 11317 L-348367 11317 L-343367 11317 L-342991 11316 L-338738 11315 L-338251 11364 L-338232 11364 L-338153 11363 L-338077 11363 L-338057 11313 L-337245 11312 L-336491 11311 L-335272 11311 L-333840 11311 L-333744 11310 L-333569 11310 L-333215 11309 L-331905 11309 L-330048 11308 L-328346 11308 L-327843 11307 L-327578 11307 L-327185 11306 L-327050 11306 L-326141 11305 L-325764 11305 L-324836 11305 L-324497 11304 L-324457 11304 L-324419 11304 L-322504 11304 L-322330 11303 L-320801 11303 L-320473 11303 L-320357 11302 L-319950 11301 L-319602 11301 L-317958 11300 L-317407 11299 L-317164 11299 L-316623 11298 L-315791 11297 L-315250 11297 L-313715 11296 L-313623 11295 L-313586 11295 L-313450 11294 L-313063 11294 L-312038 11293 L-310162 11293 L-310065 11292 L-309465 11308 L-309098 11325 L-308613 11342 L-308575 11358 L-307801 11359 L-307744 11359 L-307569 11358 L-307376 11357 L-305771 11356 L-305751 11356 L-305595 11357 L-305480 11357 L-304300 11358 L-304146 11359 L-303479 11359 L-301031 11399 L-298516 11440 L-295846 11480 L-288147 11519 L-282479 11519 L-280264 11519 L-280241 11519 L-279267 11529 L-279247 11529 L-278384 11528 L-275643 11527 L-269845 11517 L-269691 11516 L-266906 11515 L-253297 11514 L-252551 11514 L-248141 11513 L-231794 11512 L-231562 11511 L-231025 11511 L-222566 11510 L-213860 11510 L-213648 11509 L-211675 11509 L-208889 11509 L-204402 11509 L-204247 11509 L-204078 11509 L-203937 11509 L-203647 11508 L-203608 11507 L-203337 11507 L-203165 11506 L-202755 11506 L-201635 11505 L-200454 11505 L-199178 11504 L-196314 11504 L-193394 11503 L-191402 11503 L-189854 11502 L-186816 11501 L-177492 11501 L-176968 11500 L-171244 11500 L-169737 11500 L-168922 11500 L-167239 11499 L-166518 11498 L-166349 11498 L-165304 11497 L-163237 11497 L-161875 11496 L-157431 11496 L-157334 11495 L-157295 11495 L-157276 11494 L-156444 11494 L-156366 11493 L-153794 11492 L-150544 11492 L-150390 11491 L-149441 11491 L-147700 11490 L-146985 11493 L-143444 11495 L-136867 11498 L-135449 11502 L-135429 11502 L-134478 11501 L-131004 11501 L-130251 11500 L-129689 11499 L-128907 11499 L-121403 11498 L-119804 11498 L-118230 11497 L-115045 11497 L-110712 11496 L-102142 11496 L-93396 11496 L-90322 11495 L-87056 11494 L-86510 11494 L-79372 11493 L-73705 11493 L-59640 11493 L-53629 11494 L-48923 11493 L-44919 11492 L-39812 11492 L-30098 11491 L-14527 11490 L-11444 11489 L-11142 11270 L-11123 11000 L-11104 10692 L-11084 10349 L-11064 10193 L-11045 10061 L-11027 9940 L-10999 9820 L-10978 9703 L-10950 9580 L-10915 9445 L-10901 9330 L-10888 9231 L-10870 9149 L-10851 9089 L-10831 9027 L-10813 8965 L-10793 8903 L-10774 8840 L-10752 8775 L-10736 8712 L-10717 8650 L-10696 8590 L-10676 8530 L-10658 8464 L-10639 8397 L-10620 8328 L-10599 8260 L-10581 8195 L-10562 8134 L-10541 8074 L-10516 8013 L-10501 7957 L-10484 7901 L-10465 7844 L-10445 7789 L-10426 7729 L-10407 7668 L-10387 7610 L-10367 7554 L-10349 7501 L-10330 7451 L-10309 7404 L-10289 7359 L-10272 7320 L-10253 7282 L-10233 7245 L-10214 7210 L-10194 7176 L-10175 7145 L-10155 7118 L-10136 7092 L-10117 7066 L-10098 7040 L-10071 7007 L-10050 6973 L-10022 6935 L-9988 6893 L-9974 6858 L-9961 6828 L-9942 6800 L-9923 6777 L-9903 6751 L-9885 6723 L-9865 6694 L-9845 6666 L-9825 6639 L-9807 6615 L-9788 6588 L-9768 6562 L-9748 6531 L-9730 6497 L-9711 6460 L-9691 6422 L-9671 6383 L-9652 6345 L-9634 6305 L-9613 6261 L-9588 6213 L-9573 6165 L-9556 6121 L-9536 6077 L-9517 6032 L-9498 5986 L-9479 5937 L-9459 5890 L-9438 5844 L-9420 5800 L-9401 5756 L-9381 5715 L-9361 5673 L-9343 5634 L-9324 5599 L-9304 5562 L-9285 5531 L-9266 5498 L-9247 5465 L-9227 5434 L-9208 5400 L-9188 5368 L-9169 5336 L-9141 5303 L-9121 5274 L-9093 5243 L-9056 5206 L-9041 5172 L-9028 5139 L-9011 5108 L-8994 5086 L-8974 5065 L-8956 5046 L-8937 5028 L-8917 5010 L-8896 4991 L-8879 4971 L-8860 4949 L-8839 4926 L-8820 4903 L-8801 4879 L-8782 4853 L-8762 4825 L-8743 4796 L-8724 4766 L-8705 4738 L-8684 4710 L-8660 4680 L-8645 4653 L-8628 4624 L-8608 4594 L-8589 4566 L-8569 4536 L-8550 4504 L-8530 4474 L-8510 4444 L-8492 4414 L-8473 4387 L-8453 4360 L-8432 4335 L-8415 4312 L-8395 4287 L-8376 4262 L-8357 4238 L-8337 4213 L-8318 4190 L-8298 4167 L-8279 4145 L-8260 4122 L-8241 4099 L-8213 4076 L-8192 4054 L-8164 4027 L-8128 3991 L-8114 3957 L-8101 3925 L-8083 3897 L-8065 3880 L-8046 3861 L-8027 3838 L-8007 3815 L-7988 3790 L-7966 3762 L-7948 3734 L-7931 3704 L-7911 3672 L-7890 3638 L-7872 3604 L-7853 3567 L-7834 3530 L-7813 3495 L-7795 3463 L-7776 3435 L-7755 3414 L-7730 3396 L-7716 3379 L-7698 3362 L-7679 3343 L-7659 3324 L-7640 3304 L-7621 3285 L-7602 3268 L-7581 3253 L-7563 3239 L-7544 3222 L-7524 3200 L-7503 3176 L-7486 3152 L-7467 3134 L-7447 3119 L-7428 3108 L-7409 3097 L-7390 3086 L-7370 3074 L-7350 3060 L-7331 3047 L-7312 3034 L-7285 3022 L-7264 3010 L-7236 2997 L-7201 2980 L-7188 2967 L-7174 2955 L-7156 2944 L-7137 2935 L-7117 2925 L-7099 2915 L-7079 2906 L-7059 2897 L-7038 2888 L-7021 2879 L-7003 2869 L-6982 2857 L-6962 2846 L-6944 2834 L-6925 2824 L-6905 2815 L-6885 2806 L-6867 2797 L-6848 2788 L-6827 2778 L-6802 2770 L-6787 2761 L-6770 2753 L-6751 2744 L-6731 2735 L-6712 2725 L-6693 2714 L-6673 2703 L-6652 2693 L-6635 2684 L-6616 2675 L-6595 2666 L-6575 2657 L-6557 2649 L-6538 2640 L-6518 2632 L-6500 2624 L-6480 2616 L-6461 2610 L-6441 2604 L-6422 2597 L-6402 2591 L-6384 2602 L-6355 2611 L-6335 2622 L-6307 2630 L-6270 2622 L-6255 2615 L-6242 2608 L-6225 2603 L-6208 2598 L-6188 2593 L-6170 2587 L-6150 2581 L-6131 2576 L-6109 2571 L-6093 2567 L-6074 2562 L-6053 2556 L-6033 2550 L-6015 2545 L-5996 2539 L-5977 2533 L-5956 2527 L-5938 2522 L-5919 2517 L-5898 2512 L-5873 2508 L-5859 2502 L-5842 2496 L-5822 2490 L-5803 2485 L-5783 2480 L-5764 2473 L-5744 2467 L-5724 2458 L-5706 2450 L-5687 2443 L-5667 2435 L-5646 2429 L-5629 2422 L-5610 2415 L-5590 2409 L-5571 2402 L-5551 2394 L-5532 2387 L-5513 2379 L-5493 2373 L-5474 2368 L-5455 2363 L-5427 2356 L-5407 2349 L-5379 2343 L-5344 2335 L-5330 2328 L-5317 2322 L-5298 2316 L-5280 2310 L-5260 2305 L-5241 2299 L-5222 2293 L-5202 2287 L-5181 2281 L-5164 2275 L-5145 2269 L-5125 2263 L-5105 2255 L-5087 2247 L-5068 2238 L-5048 2228 L-5028 2219 L-5010 2210 L-4991 2203 L-4969 2194 L-4944 2185 L-4930 2177 L-4913 2168 L-4893 2159 L-4874 2151 L-4855 2142 L-4836 2133 L-4816 2125 L-4795 2117 L-4778 2109 L-4758 2101 L-4738 2093 L-4717 2087 L-4700 2081 L-4681 2074 L-4661 2069 L-4642 2064 L-4623 2059 L-4604 2054 L-4584 2049 L-4564 2045 L-4545 2041 L-4526 2037 L-4499 2032 L-4478 2027 L-4450 2023 L-4415 2013 L-4401 2005 L-4388 1997 L-4369 1988 L-4351 1983 L-4331 1978 L-4313 1972 L-4293 1967 L-4274 1962 L-4253 1956 L-4236 1950 L-4217 1944 L-4196 1937 L-4176 1930 L-4158 1923 L-4139 1916 L-4119 1909 L-4099 1902 L-4081 1896 L-4062 1890 L-4041 1886 L-4016 1880 L-4001 1875 L-3984 1869 L-3965 1863 L-3945 1857 L-3926 1849 L-3907 1842 L-3887 1832 L-3866 1823 L-3849 1814 L-3830 1806 L-3809 1799 L-3789 1792 L-3772 1787 L-3753 1783 L-3733 1779 L-3714 1775 L-3694 1770 L-3675 1766 L-3655 1761 L-3636 1757 L-3617 1753 L-3598 1749 L-3571 1745 L-3550 1741 L-3522 1737 L-3488 1733 L-3473 1729 L-3460 1725 L-3442 1722 L-3423 1718 L-3403 1715 L-3385 1711 L-3365 1708 L-3345 1706 L-3325 1703 L-3307 1700 L-3288 1696 L-3268 1692 L-3248 1688 L-3230 1685 L-3211 1682 L-3191 1679 L-3171 1676 L-3152 1674 L-3134 1672 L-3112 1669 L-3088 1666 L-3073 1663 L-3056 1659 L-3036 1655 L-3017 1652 L-2998 1649 L-2979 1646 L-2959 1642 L-2938 1636 L-2920 1629 L-2902 1622 L-2881 1615 L-2861 1609 L-2843 1605 L-2824 1600 L-2804 1595 L-2785 1591 L-2766 1586 L-2747 1581 L-2727 1578 L-2708 1574 L-2688 1570 L-2669 1567 L-2641 1565 L-2593 1562 L-2556 1558 L-2541 1554 L-2529 1550 L-2512 1547 L-2494 1546 L-2475 1545 L-2456 1542 L-2437 1539 L-2417 1536 L-2396 1534 L-2379 1532 L-2360 1530 L-2340 1528 L-2320 1525 L-2301 1522 L-2282 1519 L-2262 1516 L-2243 1513 L-2224 1509 L-2205 1505 L-2184 1501 L-2160 1495 L-2145 1489 L-2128 1484 L-2108 1479 L-2089 1474 L-2069 1469 L-2050 1465 L-2030 1461 L-2010 1456 L-1992 1451 L-1973 1446 L-1952 1442 L-1932 1438 L-1915 1435 L-1896 1432 L-1876 1428 L-1857 1425 L-1837 1422 L-1818 1418 L-1798 1415 L-1779 1411 L-1759 1407 L-1741 1404 L-1712 1400 L-1692 1396 L-1664 1391 L-1628 1384 L-1613 1376 L-1600 1369 L-1583 1363 L-1565 1359 L-1545 1355 L-1527 1352 L-1507 1350 L-1488 1347 L-1466 1344 L-1450 1341 L-1431 1336 L-1410 1331 L-1390 1326 L-1372 1320 L-1353 1313 L-1334 1305 L-1313 1299 L-1295 1293 L-1276 1288 L-1255 1283 L-1230 1278 L-1215 1273 L-1197 1268 L-1179 1264 L-1159 1260 L-1140 1256 L-1121 1249 L-1101 1244 L-1080 1239 L-1063 1234 L-1044 1230 L-1024 1225 L-1002 1221 L-986 1217 L-967 1213 L-947 1209 L-928 1206 L-908 1202 L-890 1198 L-870 1195 L-850 1191 L-831 1188 L-812 1184 L-784 3773 L-764 3769 L-736 3764 L-700 3758 L-686 1162 L-673 1157 L-655 1152 L-637 1150 L-617 1147 L-599 1145 L-579 1142 L-559 1138 L-538 1132 L-521 1127 L-503 1122 L-482 1116 L-462 1110 L-444 1103 L-425 1096 L-405 1089 L-384 1084 L-367 1080 L-348 1076 L-326 1071 L-301 1065 L-286 1059 L-257 1052 L-217 1044 L-194 1037 L-165 1028 L-148 1020 L-135 1014 L-115 1009 L-95 1006 L-74 1003 L-57 999 L-38 995 L-18 991 L0 989 L19 987 L38 984 L58 982 L78 979 L97 975 L115 972 L143 969 L164 965 L192 962 L227 958 L240 953 L272 949 L291 946 L311 943 L329 941 L349 939 L368 936 L389 934 L406 931 L425 924 L446 915 L466 903 L484 891 L503 880 L523 870 L543 862 L561 855 L580 849 L601 845 L626 841 L641 836 L658 831 L677 825 L697 821 L716 817 L735 812 L755 806 L776 801 L793 795 L812 790 L833 787 L854 783 L870 780 L889 777 L909 774 L929 771 L948 766 L967 763 L987 759 L1006 756 L1025 753 L1044 750 L1072 747 L1092 743 L1162 737 L1190 728 L1205 721 L1219 713 L1239 708 L1257 704 L1277 700 L1297 695 L1318 691 L1335 688 L1354 685 L1374 683 L1394 681 L1412 677 L1431 672 L1451 667 L1472 662 L1489 658 L1508 654 L1530 651 L1555 648 L1570 644 L1587 641 L1606 635 L1626 630 L1645 626 L1664 621 L1683 618 L1705 615 L1721 611 L1741 608 L1761 605 L1782 601 L1799 598 L1857 594 L1876 591 L1895 588 L1915 585 L1935 582 L1954 580 L1973 578 L2000 575 L2021 573 L2049 571 L2085 568 L2100 565 L2112 563 L2130 561 L2148 560 L2168 558 L2186 556 L2206 555 L2226 554 L2247 552 L2263 551 L2282 549 L2303 547 L2323 545 L2341 543 L2360 540 L2380 537 L2400 535 L2418 532 L2437 529 L2458 527 L2483 524 L2498 523 L2515 520 L2534 519 L2554 516 L2573 513 L2592 510 L2612 505 L2633 502 L2650 498 L2669 496 L2690 494 L2711 493 L2727 491 L2746 489 L2767 487 L2786 485 L2805 484 L2824 483 L2844 481 L2864 480 L2882 479 L2901 478 L2929 476 L2949 474 L2977 472 L3013 470 L3026 468 L3040 466 L3058 464 L3076 462 L3096 460 L3114 459 L3154 457 L3174 456 L3192 454 L3211 452 L3231 449 L3251 446 L3269 443 L3288 440 L3308 438 L3328 436 L3347 434 L3365 432 L3386 430 L3411 428 L3426 426 L3443 425 L3463 423 L3482 420 L3501 418 L3520 416 L3540 414 L3561 412 L3579 409 L3597 407 L3618 405 L3638 403 L3656 401 L3675 399 L3695 397 L3714 396 L3733 395 L3752 393 L3772 391 L3792 389 L3811 388 L3830 386 L3858 384 L3906 382 L3943 380 L3959 379 L3971 377 L3988 376 L4005 374 L4025 373 L4043 372 L4062 371 L4082 369 L4103 369 L4120 368 L4139 368 L4160 367 L4179 366 L4198 365 L4217 364 L4236 363 L4256 361 L4275 360 L4294 358 L4315 356 L4339 354 L4354 351 L4371 349 L4391 346 L4410 342 L4430 338 L4449 333 L4469 329 L4489 324 L4507 321 L4526 317 L4546 314 L4567 310 L4585 306 L4604 302 L4624 299 L4642 295 L4662 292 L4681 290 L4701 286 L4720 282 L4739 278 L4758 274 L4787 269 L4807 266 L4835 264 L4872 260 L4886 258 L4899 256 L4917 252 L4934 250 L4954 248 L4972 246 L4992 244 L5011 241 L5033 239 L5049 236 L5068 233 L5089 229 L5109 226 L5127 223 L5146 220 L5166 218 L5186 215 L5204 212 L5223 209 L5244 205 L5269 202 L5284 198 L5302 194 L5320 190 L5341 187 L5359 183 L5379 179 L5398 176 L5419 171 L5436 166 L5455 162 L5476 159 L5497 155 L5513 153 L5532 151 L5552 149 L5571 147 L5591 144 L5609 141 L5629 138 L5648 135 L5668 133 L5687 130 L5735 126 L5763 123 L5796 119 L5811 116 L5823 112 L5842 109 L5862 107 L5881 103 L5900 100 L5919 98 L5940 95 L5960 93 L5978 90 L5996 88 L6017 86 L6037 83 L6055 80 L6074 77 L6094 73 L6114 70 L6132 67 L6151 63 L6172 60 L6197 58 L6212 54 L6229 50 L6248 46 L6268 41 L6287 37 L6306 33 L6326 30 L6347 26 L6364 23 L6384 20 L6404 18 L6425 15 L6442 12 L6461 10 L6481 8 L6500 5" />
</svg>
