<svg xmlns="http://www.w3.org/2000/svg" version="1.1" viewBox="0 0 6500 1000">
	<path fill="none" stroke="gold" stroke-width="125" stroke-linecap="round" stroke-linejoin="round" d="M0 2252  L-721330 2252 L-718726 2252 L-717058 2252 L-698729 2252 L-698558 2251 L-691401 2251 L-691367 2251 L-677937 2251 L-675015 2251 L-661674 2251 L-657505 2250 L-656345 2250 L-655726 2249 L-653714 2249 L-649942 2249 L-649342 2249 L-649013 2248 L-648800 2248 L-648259 2248 L-647021 2247 L-645842 2246 L-642977 2245 L-642455 2244 L-637599 2244 L-634662 2244 L-634619 2244 L-634311 2244 L-634059 2243 L-631464 2243 L-627209 2243 L-627191 2243 L-625954 2243 L-624076 2243 L-622123 2243 L-621175 2243 L-620904 2242 L-620594 2242 L-620496 2242 L-619666 2242 L-617635 2242 L-617345 2241 L-615198 2241 L-615043 2240 L-611386 2240 L-611135 2240 L-611037 2240 L-610520 2240 L-608369 2241 L-607440 2241 L-605914 2242 L-604674 2242 L-603128 2242 L-600166 2241 L-599044 2241 L-598735 2241 L-597524 2241 L-594517 2242 L-594497 2242 L-594150 2242 L-593937 2242 L-593811 2240 L-593569 2240 L-593531 2240 L-593511 2240 L-593492 2239 L-593433 2239 L-593375 2239 L-593357 2239 L-592914 2238 L-591674 2238 L-590128 2238 L-586741 2238 L-581014 2238 L-580813 2238 L-579177 2237 L-577455 2237 L-576023 2237 L-575791 2237 L-575075 2237 L-568943 2237 L-568575 2237 L-568421 2236 L-567843 2236 L-567550 2236 L-566583 2236 L-566273 2236 L-565674 2235 L-564068 2235 L-563333 2235 L-563023 2235 L-562255 2235 L-560219 2235 L-559793 2235 L-558981 2235 L-551552 2235 L-551029 2235 L-550856 2234 L-550121 2234 L-548553 2234 L-548147 2234 L-545922 2234 L-544974 2233 L-544549 2233 L-544219 2233 L-543175 2233 L-541067 2233 L-540815 2233 L-540196 2233 L-539383 2232 L-537275 2232 L-537227 2232 L-535299 2232 L-534973 2232 L-534838 2231 L-534335 2231 L-532922 2231 L-532419 2231 L-531897 2230 L-528338 2230 L-527603 2229 L-525178 2229 L-523888 2229 L-523481 2229 L-520329 2229 L-520174 2229 L-520154 2229 L-519787 2229 L-518529 2229 L-517814 2229 L-516924 2229 L-516517 2229 L-515589 2229 L-514480 2229 L-514177 2230 L-507928 2230 L-506981 2230 L-505354 2230 L-504853 2230 L-501177 2231 L-500345 2231 L-496391 2231 L-494980 2230 L-492490 2230 L-491814 2230 L-491775 2230 L-490904 2230 L-487693 2230 L-484830 2230 L-483862 2230 L-482741 2229 L-482722 2229 L-481097 2229 L-480632 2229 L-480541 2228 L-474171 2228 L-473223 2228 L-470766 2228 L-469893 2228 L-468657 2228 L-466656 2228 L-466259 2227 L-464822 2227 L-462796 2227 L-462583 2227 L-461403 2227 L-459894 2227 L-459874 2227 L-457862 2226 L-456992 2226 L-456122 2226 L-455537 2226 L-455000 2226 L-454342 2225 L-453104 2225 L-452543 2225 L-451362 2225 L-450124 2225 L-450086 2225 L-449699 2225 L-449157 2224 L-448384 2224 L-447261 2224 L-445172 2224 L-444839 2224 L-444553 2224 L-443624 2223 L-443141 2223 L-442406 2223 L-438775 2223 L-437647 2223 L-437492 2223 L-436466 2223 L-432752 2223 L-431534 2222 L-429716 2222 L-426930 2222 L-426368 2222 L-422481 2222 L-420004 2222 L-418669 2222 L-418166 2222 L-417683 2221 L-414993 2221 L-411222 2221 L-408764 2221 L-407585 2221 L-406945 2221 L-404586 2221 L-404508 2221 L-403461 2221 L-403367 2221 L-402865 2221 L-402419 2221 L-402362 2221 L-402148 2221 L-399188 2220 L-396481 2220 L-396326 2220 L-392805 2220 L-392282 2220 L-391315 2220 L-390966 2220 L-389922 2219 L-388994 2219 L-388568 2219 L-387059 2219 L-386092 2219 L-386073 2219 L-384177 2211 L-384061 2202 L-384013 2194 L-383989 2186 L-380985 2186 L-378954 2186 L-377193 2186 L-376826 2186 L-376380 2185 L-376013 2185 L-375599 2185 L-373615 2185 L-373401 2185 L-373246 2185 L-371641 2185 L-370519 2185 L-369571 2185 L-368314 2184 L-366669 2184 L-365490 2184 L-358900 2184 L-358854 2184 L-358448 2184 L-357403 2184 L-357267 2184 L-355585 2183 L-355565 2183 L-354228 2183 L-352992 2183 L-352838 2183 L-352464 2183 L-352257 2182 L-351948 2182 L-351174 2182 L-348853 2182 L-348195 2182 L-346067 2182 L-344345 2182 L-344151 2181 L-341598 2181 L-341321 2181 L-341133 2181 L-340301 2181 L-339528 2181 L-338830 2181 L-333830 2181 L-333454 2180 L-329201 2180 L-328714 2191 L-328695 2191 L-328616 2191 L-328540 2191 L-328520 2180 L-327708 2180 L-326954 2179 L-325735 2179 L-324303 2179 L-324207 2179 L-324032 2179 L-323678 2179 L-322368 2179 L-320511 2179 L-318809 2178 L-318306 2178 L-318041 2178 L-317648 2178 L-317513 2178 L-316604 2178 L-316227 2178 L-315299 2178 L-314960 2178 L-314920 2178 L-314882 2178 L-312967 2178 L-312793 2177 L-311264 2177 L-310936 2177 L-310820 2177 L-310413 2177 L-310065 2177 L-308421 2177 L-307870 2177 L-307627 2176 L-307086 2176 L-306254 2176 L-305713 2176 L-304178 2176 L-304086 2176 L-304049 2176 L-303913 2176 L-303526 2175 L-302501 2175 L-300625 2175 L-300528 2175 L-299928 2179 L-299561 2182 L-299076 2186 L-299038 2190 L-298264 2190 L-298207 2190 L-298032 2190 L-297839 2190 L-296234 2189 L-296214 2189 L-296058 2190 L-295943 2190 L-294763 2190 L-294609 2190 L-293942 2190 L-291494 2199 L-288979 2208 L-286309 2217 L-278610 2226 L-272942 2226 L-270727 2226 L-270704 2226 L-269730 2228 L-269710 2228 L-268847 2228 L-266106 2228 L-260308 2226 L-260154 2225 L-257369 2225 L-243760 2225 L-243014 2225 L-238604 2225 L-222257 2225 L-222025 2224 L-221488 2224 L-213029 2224 L-204323 2224 L-204111 2224 L-202138 2224 L-199352 2224 L-194865 2224 L-194710 2224 L-194541 2224 L-194400 2224 L-194110 2224 L-194071 2223 L-193800 2223 L-193628 2223 L-193218 2223 L-192098 2223 L-190918 2223 L-189641 2223 L-186777 2223 L-183857 2223 L-181865 2223 L-180317 2222 L-177279 2222 L-167955 2222 L-167431 2222 L-161707 2222 L-160200 2222 L-159385 2222 L-157702 2222 L-156981 2222 L-156812 2221 L-155767 2221 L-153700 2221 L-152338 2221 L-147894 2221 L-147797 2221 L-147758 2221 L-147740 2221 L-146907 2221 L-146829 2220 L-144257 2220 L-141007 2220 L-140853 2220 L-139904 2220 L-138163 2220 L-137448 2220 L-133907 2221 L-127330 2222 L-125912 2222 L-125892 2222 L-124941 2222 L-121467 2222 L-120714 2222 L-120152 2222 L-119370 2222 L-111866 2222 L-110267 2221 L-108693 2221 L-105508 2221 L-101175 2221 L-92605 2221 L-83859 2221 L-80785 2221 L-77519 2221 L-76973 2221 L-69835 2220 L-64168 2220 L-50103 2220 L-44092 2221 L-39386 2220 L-35382 2220 L-30275 2220 L-20561 2220 L-4990 2220 L-1907 2220 L-1605 2170 L-1586 2109 L-1567 2040 L-1547 1962 L-1528 1927 L-1508 1897 L-1490 1870 L-1462 1843 L-1441 1817 L-1413 1789 L-1378 1758 L-1364 1732 L-1351 1710 L-1333 1691 L-1314 1678 L-1294 1664 L-1276 1650 L-1256 1636 L-1237 1622 L-1215 1607 L-1199 1593 L-1180 1579 L-1159 1565 L-1139 1552 L-1121 1537 L-1102 1522 L-1083 1506 L-1062 1491 L-1044 1476 L-1025 1462 L-1004 1449 L-979 1435 L-965 1423 L-947 1410 L-928 1397 L-908 1385 L-889 1371 L-870 1357 L-850 1344 L-830 1332 L-812 1320 L-793 1308 L-772 1298 L-752 1288 L-735 1279 L-716 1270 L-696 1262 L-677 1254 L-657 1246 L-638 1239 L-618 1233 L-599 1227 L-580 1221 L-561 1216 L-534 1208 L-513 1200 L-485 1192 L-451 1182 L-437 1175 L-424 1168 L-405 1161 L-386 1156 L-366 1150 L-348 1144 L-328 1138 L-308 1131 L-288 1125 L-270 1120 L-251 1114 L-231 1108 L-211 1101 L-193 1093 L-174 1085 L-154 1076 L-134 1067 L-116 1059 L-97 1050 L-76 1040 L-51 1029 L-36 1018 L-19 1008 L0 998 L19 988 L38 978 L57 967 L77 956 L97 946 L116 936 L134 926 L155 917 L175 907 L193 898 L212 890 L232 882 L251 875 L270 868 L289 860 L309 853 L328 846 L348 838 L367 831 L395 824 L415 817 L443 810 L480 802 L495 794 L508 787 L525 780 L542 775 L562 770 L580 766 L599 762 L619 758 L640 753 L657 749 L676 744 L697 739 L716 734 L735 728 L754 722 L773 716 L793 709 L812 702 L831 696 L852 690 L876 683 L891 677 L908 670 L928 664 L947 657 L967 651 L986 643 L1006 637 L1026 630 L1044 623 L1063 617 L1083 611 L1104 605 L1121 600 L1140 594 L1160 589 L1179 583 L1199 578 L1218 573 L1238 567 L1257 562 L1276 557 L1295 552 L1323 547 L1344 542 L1372 536 L1408 528 L1422 520 L1435 513 L1452 507 L1471 503 L1490 498 L1509 493 L1529 488 L1548 482 L1570 476 L1588 470 L1605 463 L1625 456 L1646 448 L1664 440 L1683 432 L1702 424 L1723 416 L1741 408 L1760 402 L1781 398 L1806 393 L1820 390 L1838 386 L1857 381 L1877 377 L1896 373 L1915 368 L1934 364 L1955 361 L1973 358 L1992 354 L2012 349 L2033 344 L2050 338 L2069 334 L2089 331 L2108 328 L2127 326 L2146 323 L2166 321 L2186 318 L2205 315 L2224 312 L2251 309 L2272 306 L2300 303 L2335 300 L2348 297 L2362 294 L2380 291 L2399 289 L2419 287 L2437 285 L2457 283 L2477 281 L2498 279 L2515 277 L2533 274 L2554 272 L2574 269 L2592 267 L2611 264 L2631 262 L2651 260 L2669 258 L2688 256 L2709 254 L2734 252 L2749 250 L2766 248 L2785 246 L2805 244 L2824 242 L2843 240 L2863 237 L2884 235 L2901 233 L2920 231 L2941 229 L2961 227 L2979 225 L2998 223 L3018 221 L3036 219 L3056 217 L3075 216 L3095 215 L3114 213 L3134 212 L3152 214 L3181 216 L3201 219 L3229 221 L3266 219 L3281 217 L3294 216 L3311 214 L3328 213 L3348 212 L3366 211 L3386 210 L3405 208 L3427 207 L3443 206 L3462 205 L3483 204 L3503 203 L3521 201 L3540 200 L3559 199 L3579 197 L3598 196 L3617 195 L3638 194 L3663 193 L3677 192 L3694 190 L3714 189 L3733 188 L3753 187 L3772 185 L3792 184 L3812 182 L3830 180 L3849 178 L3869 177 L3890 175 L3907 174 L3926 172 L3946 171 L3965 169 L3985 167 L4004 166 L4023 164 L4043 163 L4062 161 L4081 160 L4109 159 L4129 157 L4157 156 L4192 154 L4206 152 L4219 151 L4238 150 L4256 148 L4276 147 L4294 146 L4314 145 L4334 143 L4355 142 L4372 141 L4390 139 L4411 138 L4431 136 L4449 134 L4468 132 L4488 130 L4508 128 L4526 126 L4545 124 L4566 122 L4592 120 L4606 118 L4623 116 L4642 114 L4662 112 L4681 110 L4700 108 L4720 107 L4741 105 L4758 103 L4778 101 L4798 99 L4819 98 L4836 97 L4855 95 L4875 94 L4894 93 L4913 92 L4932 91 L4952 90 L4972 89 L4991 88 L5010 87 L5037 86 L5058 85 L5086 84 L5121 81 L5135 80 L5148 78 L5167 76 L5185 75 L5205 73 L5223 72 L5243 71 L5262 70 L5283 69 L5300 67 L5319 66 L5340 64 L5360 63 L5378 61 L5397 60 L5416 58 L5437 56 L5455 55 L5474 54 L5495 53 L5520 51 L5535 50 L5552 49 L5571 47 L5591 46 L5610 44 L5629 43 L5649 41 L5670 38 L5687 36 L5706 35 L5727 33 L5747 32 L5764 30 L5783 29 L5803 28 L5822 28 L5842 27 L5861 26 L5881 25 L5900 24 L5919 23 L5938 22 L5965 21 L5986 20 L6014 19 L6048 18 L6063 17 L6076 16 L6094 16 L6113 15 L6133 14 L6151 13 L6171 13 L6191 12 L6211 11 L6229 11 L6248 10 L6268 9 L6288 8 L6306 7 L6325 7 L6345 6 L6365 5 L6383 5 L6402 4 L6423 4 L6448 3 L6463 2 L6480 1 L6500 1" />
</svg>
