<svg xmlns="http://www.w3.org/2000/svg" version="1.1" viewBox="0 0 6500 1000">
	<path fill="none" stroke="gold" stroke-width="125" stroke-linecap="round" stroke-linejoin="round" d="M0 189828  L-294826 189828 L-292222 189143 L-290554 188458 L-272224 187089 L-272054 185719 L-264896 184349 L-264863 184349 L-251432 183664 L-248510 184349 L-235169 182294 L-231000 179554 L-229840 176130 L-229221 172705 L-227209 170650 L-223437 169280 L-222837 167910 L-222509 166541 L-222296 165171 L-221754 163801 L-220516 158321 L-219337 152842 L-216473 147363 L-215950 141883 L-211095 140513 L-208158 139143 L-208115 137773 L-207806 136404 L-207554 135034 L-204960 133664 L-200704 133664 L-200686 133664 L-199449 133664 L-197572 133664 L-195618 132294 L-194670 130924 L-194400 129554 L-194090 128869 L-193992 128184 L-193161 128184 L-191130 128869 L-190840 122705 L-188694 119965 L-188538 115856 L-184882 111746 L-184631 113801 L-184532 113116 L-184015 115171 L-181864 118595 L-180935 122020 L-179409 125445 L-178170 125445 L-176623 124760 L-173661 123390 L-172539 122020 L-172230 120650 L-171019 119965 L-168012 127500 L-167993 126815 L-167645 126130 L-167432 125445 L-167306 115856 L-167064 114486 L-167027 113116 L-167007 111746 L-166988 110376 L-166929 109006 L-166870 107636 L-166852 106267 L-166409 104897 L-165170 103527 L-163624 102157 L-160236 100787 L-154510 100102 L-154308 99417 L-152672 98732 L-150951 98047 L-149518 97363 L-149286 96678 L-148571 95993 L-142439 95308 L-142071 93938 L-141916 92568 L-141338 91198 L-141045 89828 L-140078 88458 L-139769 87089 L-139170 85719 L-137563 85719 L-136828 85719 L-136518 86404 L-135750 86404 L-133714 85034 L-133289 83664 L-132476 82979 L-125048 81609 L-124525 80239 L-124351 78869 L-123616 77500 L-122048 76130 L-121643 75445 L-119418 74075 L-118470 73390 L-118045 72705 L-117714 72705 L-116671 72020 L-114562 70650 L-114310 69280 L-113691 67910 L-112879 67226 L-110771 65856 L-110722 64486 L-108794 63116 L-108468 61746 L-108333 60376 L-107830 59691 L-106418 58321 L-105915 55582 L-105393 53527 L-101833 50787 L-101098 48047 L-98673 48047 L-97384 46678 L-96977 45993 L-93824 45993 L-93670 45993 L-93649 46678 L-93283 46678 L-92024 47363 L-91309 48047 L-90420 48047 L-90013 48047 L-89084 48047 L-87975 47363 L-87672 50102 L-81423 51472 L-80476 52842 L-78850 54212 L-78348 54897 L-74672 55582 L-73840 56267 L-69887 56952 L-68475 54897 L-65986 53527 L-65309 52157 L-65271 51472 L-64400 51472 L-61189 50787 L-58325 50102 L-57357 49417 L-56236 48047 L-56217 46678 L-54592 45308 L-54128 43253 L-54036 42568 L-47667 41883 L-46718 41198 L-44261 40513 L-43389 39143 L-42153 38458 L-40151 37773 L-39754 36404 L-38318 35034 L-36291 34349 L-36078 32979 L-34898 32294 L-33390 31609 L-33370 30924 L-31357 30239 L-30488 28869 L-29617 28184 L-29032 26815 L-28495 25445 L-27837 24075 L-26599 22705 L-26039 22020 L-24857 21335 L-23620 20650 L-23581 19965 L-23194 19280 L-22653 17910 L-21879 17226 L-20757 16541 L-18668 15171 L-18334 13801 L-18048 12431 L-17120 11746 L-16637 10376 L-15901 9691 L-12270 9006 L-11142 8321 L-10988 7636 L-9962 6267 L-6247 5582 L-5030 4212 L-3211 2842 L-425 2157 L135 787 L4023 787 L6500 102" />
</svg>
