<svg xmlns="http://www.w3.org/2000/svg" version="1.1" viewBox="0 0 6500 1000">
	<path fill="none" stroke="gold" stroke-width="125" stroke-linecap="round" stroke-linejoin="round" d="M0 5421  L-723420 5421 L-720816 5421 L-719148 5421 L-700818 5420 L-700648 5420 L-693490 5419 L-693457 5419 L-680026 5419 L-677104 5419 L-663763 5418 L-659594 5417 L-658434 5416 L-657815 5415 L-655803 5414 L-652031 5414 L-651431 5413 L-651103 5413 L-650890 5412 L-650348 5412 L-649110 5410 L-647931 5407 L-645067 5405 L-644544 5403 L-639689 5403 L-636752 5402 L-636709 5402 L-636400 5401 L-636148 5401 L-633554 5400 L-629298 5400 L-629280 5400 L-628043 5400 L-626166 5400 L-624212 5400 L-623264 5399 L-622994 5399 L-622684 5399 L-622586 5398 L-621755 5398 L-619724 5399 L-619434 5396 L-617288 5395 L-617132 5394 L-613476 5392 L-613225 5393 L-613126 5393 L-612609 5394 L-610458 5395 L-609529 5396 L-608003 5397 L-606764 5397 L-605217 5397 L-602255 5397 L-601133 5396 L-600824 5396 L-599613 5395 L-596606 5398 L-596587 5398 L-596239 5398 L-596026 5397 L-595900 5394 L-595658 5393 L-595621 5393 L-595601 5392 L-595582 5392 L-595523 5391 L-595464 5391 L-595446 5390 L-595003 5390 L-593764 5389 L-592218 5389 L-588830 5388 L-583104 5388 L-582902 5388 L-581266 5387 L-579545 5387 L-578112 5387 L-577880 5387 L-577165 5386 L-571033 5386 L-570665 5386 L-570510 5385 L-569932 5385 L-569639 5384 L-568672 5384 L-568363 5383 L-567764 5383 L-566157 5383 L-565422 5383 L-565112 5383 L-564344 5383 L-562308 5382 L-561883 5382 L-561070 5382 L-553642 5381 L-553119 5381 L-552945 5380 L-552210 5380 L-550642 5379 L-550237 5379 L-548012 5378 L-547064 5378 L-546639 5378 L-546308 5378 L-545265 5378 L-543156 5377 L-542904 5377 L-542285 5376 L-541473 5376 L-539365 5375 L-539316 5375 L-537388 5374 L-537062 5374 L-536927 5373 L-536424 5373 L-535012 5372 L-534509 5371 L-533987 5371 L-530427 5370 L-529692 5369 L-527267 5369 L-525978 5368 L-525571 5368 L-522418 5368 L-522264 5368 L-522243 5368 L-521877 5368 L-520618 5368 L-519903 5369 L-519014 5369 L-518607 5369 L-517678 5369 L-516569 5368 L-516266 5369 L-510017 5370 L-509070 5370 L-507444 5371 L-506942 5371 L-503266 5371 L-502434 5372 L-498481 5372 L-497069 5371 L-494580 5371 L-493903 5370 L-493865 5370 L-492994 5370 L-489783 5370 L-486919 5369 L-485951 5369 L-484830 5369 L-484811 5368 L-483186 5368 L-482722 5367 L-482630 5367 L-476261 5366 L-475312 5366 L-472855 5366 L-471983 5365 L-470747 5365 L-468745 5365 L-468348 5364 L-466912 5364 L-464885 5364 L-464672 5363 L-463492 5363 L-461984 5363 L-461964 5362 L-459951 5362 L-459082 5362 L-458211 5361 L-457626 5361 L-457089 5360 L-456431 5360 L-455193 5359 L-454633 5359 L-453451 5359 L-452214 5359 L-452175 5358 L-451788 5358 L-451247 5358 L-450473 5357 L-449351 5357 L-447262 5357 L-446928 5356 L-446642 5356 L-445714 5355 L-445231 5355 L-444495 5354 L-440864 5354 L-439736 5354 L-439582 5354 L-438556 5353 L-434841 5353 L-433624 5352 L-431805 5352 L-429019 5352 L-428458 5351 L-424570 5351 L-422093 5351 L-420759 5351 L-420255 5351 L-419772 5350 L-417083 5350 L-413311 5350 L-410854 5350 L-409674 5350 L-409035 5350 L-406675 5350 L-406598 5349 L-405550 5349 L-405457 5349 L-404954 5349 L-404509 5349 L-404451 5349 L-404237 5349 L-401278 5348 L-398570 5348 L-398415 5348 L-394894 5347 L-394372 5347 L-393404 5346 L-393055 5346 L-392012 5346 L-391083 5345 L-390657 5345 L-389148 5345 L-388181 5345 L-388162 5344 L-386266 5326 L-386150 5307 L-386102 5288 L-386078 5269 L-383074 5269 L-381043 5269 L-379282 5268 L-378915 5268 L-378470 5268 L-378103 5267 L-377689 5267 L-375704 5266 L-375491 5266 L-375336 5266 L-373731 5266 L-372609 5266 L-371660 5266 L-370403 5265 L-368759 5265 L-367579 5264 L-360990 5264 L-360943 5264 L-360537 5264 L-359492 5263 L-359357 5263 L-357674 5263 L-357654 5262 L-356317 5262 L-355081 5262 L-354927 5261 L-354553 5261 L-354347 5261 L-354037 5260 L-353264 5260 L-350942 5260 L-350284 5259 L-348156 5259 L-346434 5259 L-346241 5258 L-343687 5258 L-343411 5258 L-343223 5257 L-342390 5257 L-341618 5257 L-340920 5256 L-335919 5256 L-335543 5256 L-331290 5256 L-330803 5281 L-330784 5281 L-330705 5280 L-330630 5280 L-330610 5254 L-329797 5254 L-329043 5254 L-327824 5253 L-326392 5253 L-326296 5253 L-326122 5253 L-325767 5253 L-324458 5252 L-322601 5252 L-320898 5252 L-320395 5251 L-320130 5251 L-319737 5251 L-319603 5251 L-318693 5250 L-318317 5250 L-317388 5250 L-317049 5250 L-317009 5250 L-316972 5250 L-315056 5250 L-314883 5249 L-313354 5249 L-313026 5249 L-312909 5249 L-312502 5248 L-312154 5248 L-310511 5247 L-309960 5247 L-309716 5247 L-309175 5247 L-308344 5246 L-307802 5246 L-306268 5245 L-306175 5245 L-306138 5245 L-306002 5245 L-305615 5244 L-304590 5244 L-302714 5244 L-302618 5244 L-302017 5252 L-301650 5260 L-301166 5269 L-301128 5278 L-300354 5278 L-300296 5278 L-300122 5278 L-299928 5277 L-298323 5277 L-298303 5277 L-298148 5277 L-298032 5277 L-296853 5278 L-296698 5278 L-296031 5278 L-293583 5299 L-291068 5321 L-288398 5341 L-280699 5362 L-275031 5362 L-272817 5361 L-272793 5361 L-271820 5366 L-271800 5366 L-270936 5366 L-268196 5366 L-262397 5360 L-262244 5360 L-259458 5360 L-245850 5359 L-245104 5359 L-240693 5358 L-224347 5358 L-224115 5358 L-223578 5357 L-215118 5357 L-206413 5357 L-206200 5357 L-204228 5356 L-201441 5356 L-196954 5357 L-196799 5356 L-196630 5356 L-196490 5356 L-196199 5356 L-196160 5355 L-195890 5355 L-195718 5355 L-195308 5354 L-194187 5354 L-193007 5354 L-191730 5354 L-188866 5353 L-185946 5353 L-183954 5353 L-182406 5352 L-179368 5352 L-170044 5352 L-169520 5352 L-163796 5352 L-162289 5351 L-161474 5351 L-159791 5351 L-159070 5351 L-158901 5350 L-157856 5350 L-155789 5350 L-154427 5350 L-149984 5349 L-149886 5349 L-149848 5349 L-149829 5349 L-148996 5348 L-148919 5348 L-146346 5348 L-143097 5347 L-142942 5347 L-141994 5347 L-140253 5346 L-139537 5348 L-135997 5349 L-129419 5351 L-128002 5353 L-127981 5352 L-127031 5352 L-123556 5352 L-122803 5351 L-122241 5351 L-121459 5351 L-113955 5351 L-112357 5350 L-110783 5350 L-107597 5350 L-103264 5350 L-94695 5349 L-85948 5349 L-82874 5349 L-79608 5349 L-79062 5348 L-71925 5348 L-66257 5348 L-52193 5348 L-46181 5348 L-41475 5348 L-37472 5348 L-32364 5347 L-22650 5347 L-7080 5347 L-3997 5346 L-3695 5232 L-3675 5092 L-3656 4932 L-3636 4753 L-3617 4672 L-3598 4603 L-3579 4540 L-3551 4478 L-3531 4418 L-3503 4354 L-3467 4283 L-3454 4224 L-3441 4172 L-3422 4130 L-3404 4098 L-3384 4066 L-3365 4034 L-3346 4002 L-3326 3969 L-3305 3935 L-3288 3902 L-3269 3870 L-3249 3839 L-3229 3808 L-3211 3774 L-3192 3739 L-3172 3703 L-3152 3668 L-3133 3634 L-3115 3602 L-3093 3571 L-3069 3539 L-3054 3510 L-3037 3481 L-3017 3451 L-2998 3423 L-2979 3391 L-2960 3359 L-2940 3329 L-2919 3301 L-2901 3273 L-2882 3247 L-2862 3222 L-2841 3199 L-2824 3179 L-2805 3159 L-2785 3140 L-2766 3122 L-2747 3104 L-2728 3088 L-2708 3074 L-2688 3060 L-2669 3046 L-2650 3033 L-2623 3016 L-2602 2998 L-2574 2978 L-2540 2957 L-2526 2939 L-2513 2923 L-2494 2908 L-2475 2896 L-2455 2883 L-2437 2868 L-2418 2853 L-2398 2839 L-2377 2825 L-2360 2812 L-2341 2798 L-2321 2784 L-2301 2769 L-2282 2751 L-2264 2731 L-2243 2712 L-2224 2692 L-2205 2672 L-2186 2651 L-2165 2628 L-2141 2603 L-2126 2579 L-2109 2555 L-2089 2532 L-2070 2509 L-2050 2485 L-2031 2460 L-2011 2436 L-1991 2412 L-1973 2389 L-1954 2366 L-1934 2344 L-1913 2323 L-1896 2302 L-1877 2284 L-1856 2265 L-1838 2249 L-1818 2231 L-1799 2214 L-1779 2198 L-1760 2181 L-1741 2164 L-1722 2147 L-1693 2130 L-1673 2115 L-1646 2099 L-1608 2080 L-1593 2062 L-1581 2045 L-1564 2029 L-1547 2017 L-1527 2007 L-1508 1997 L-1489 1987 L-1469 1978 L-1448 1968 L-1431 1957 L-1412 1946 L-1392 1934 L-1372 1922 L-1354 1910 L-1335 1896 L-1315 1882 L-1295 1866 L-1276 1851 L-1258 1836 L-1236 1822 L-1212 1807 L-1197 1792 L-1180 1777 L-1160 1762 L-1141 1747 L-1122 1732 L-1103 1715 L-1083 1699 L-1062 1684 L-1044 1668 L-1025 1654 L-1005 1640 L-985 1627 L-967 1615 L-948 1602 L-928 1589 L-909 1577 L-889 1564 L-871 1552 L-851 1540 L-831 1528 L-812 1516 L-793 1505 L-765 1493 L-745 1481 L-717 1467 L-681 1448 L-667 1431 L-653 1414 L-636 1400 L-618 1390 L-598 1381 L-580 1369 L-560 1357 L-540 1344 L-519 1329 L-500 1314 L-484 1299 L-463 1282 L-443 1265 L-425 1247 L-406 1228 L-386 1208 L-366 1190 L-348 1174 L-329 1159 L-308 1148 L-283 1139 L-268 1130 L-251 1121 L-232 1111 L-212 1101 L-193 1091 L-174 1081 L-154 1072 L-133 1065 L-116 1057 L-97 1048 L-76 1037 L-55 1024 L-38 1012 L-19 1003 L0 995 L19 989 L38 984 L57 978 L77 971 L97 964 L116 957 L134 951 L162 944 L183 938 L211 931 L245 923 L259 916 L272 910 L291 904 L310 899 L329 894 L348 889 L368 884 L387 880 L408 875 L425 870 L444 865 L465 859 L485 853 L503 847 L521 842 L541 837 L562 832 L580 827 L599 823 L620 818 L645 813 L659 809 L676 805 L696 800 L715 795 L735 790 L754 785 L774 779 L794 774 L812 769 L831 764 L851 759 L872 755 L889 751 L908 746 L928 742 L947 737 L967 733 L985 730 L1006 727 L1025 724 L1044 721 L1063 726 L1092 731 L1111 736 L1139 741 L1177 736 L1192 733 L1205 729 L1222 727 L1238 724 L1258 721 L1277 718 L1296 715 L1316 713 L1337 710 L1354 708 L1372 705 L1393 702 L1413 699 L1431 696 L1450 693 L1470 690 L1490 687 L1508 684 L1527 682 L1549 680 L1573 677 L1588 674 L1605 671 L1625 668 L1644 665 L1663 663 L1682 659 L1702 656 L1723 651 L1741 647 L1759 643 L1780 640 L1801 636 L1818 633 L1837 629 L1857 626 L1876 622 L1895 618 L1914 614 L1934 610 L1954 607 L1973 605 L1992 602 L2019 598 L2040 595 L2068 591 L2103 587 L2116 584 L2129 581 L2148 577 L2167 575 L2187 572 L2205 569 L2225 566 L2244 562 L2265 559 L2282 556 L2301 553 L2322 550 L2342 546 L2360 542 L2379 537 L2398 532 L2419 527 L2437 522 L2456 519 L2477 514 L2502 509 L2517 505 L2534 500 L2553 496 L2573 492 L2592 487 L2611 482 L2631 478 L2652 474 L2669 470 L2688 466 L2709 462 L2729 458 L2746 455 L2765 452 L2785 449 L2804 447 L2824 444 L2843 441 L2862 439 L2882 437 L2901 434 L2920 433 L2948 430 L2968 428 L2996 425 L3032 420 L3045 416 L3059 412 L3077 407 L3095 404 L3115 402 L3134 399 L3153 396 L3173 394 L3194 390 L3211 387 L3230 384 L3250 381 L3270 377 L3288 373 L3307 370 L3327 366 L3348 362 L3365 359 L3384 356 L3406 354 L3431 351 L3445 348 L3462 345 L3482 342 L3501 339 L3521 335 L3539 331 L3559 326 L3581 321 L3598 316 L3617 312 L3637 309 L3658 305 L3675 302 L3694 300 L3714 298 L3733 296 L3753 294 L3771 291 L3791 289 L3811 287 L3830 285 L3849 283 L3876 280 L3897 279 L3925 276 L3959 274 L3973 272 L3986 270 L4005 268 L4024 267 L4043 265 L4062 263 L4081 262 L4101 260 L4122 259 L4139 257 L4158 255 L4178 253 L4198 251 L4217 249 L4235 248 L4256 246 L4276 245 L4294 244 L4313 243 L4334 241 L4359 240 L4373 238 L4391 236 L4410 234 L4429 232 L4449 231 L4468 229 L4488 227 L4508 224 L4526 220 L4545 217 L4565 213 L4586 210 L4604 208 L4623 205 L4642 203 L4661 201 L4681 198 L4700 195 L4720 194 L4739 192 L4759 190 L4777 188 L4806 187 L4854 185 L4890 183 L4905 181 L4918 179 L4935 178 L4952 177 L4972 176 L4991 175 L5010 174 L5030 172 L5051 171 L5068 170 L5087 169 L5107 168 L5127 166 L5145 165 L5164 163 L5184 161 L5204 160 L5222 158 L5241 156 L5263 154 L5287 151 L5302 148 L5319 145 L5339 142 L5358 140 L5377 137 L5396 135 L5416 133 L5437 130 L5455 128 L5474 125 L5494 123 L5514 121 L5532 120 L5551 118 L5571 116 L5590 115 L5610 113 L5628 111 L5648 109 L5668 107 L5687 105 L5706 103 L5734 101 L5754 99 L5782 97 L5819 93 L5834 89 L5846 85 L5864 82 L5881 80 L5901 78 L5919 77 L5939 75 L5959 74 L5980 72 L5997 70 L6015 68 L6036 66 L6056 63 L6074 60 L6093 56 L6113 52 L6134 49 L6151 46 L6170 43 L6192 41 L6216 38 L6232 35 L6249 33 L6267 31 L6288 29 L6306 26 L6325 23 L6345 20 L6367 17 L6383 15 L6403 13 L6423 11 L6444 8 L6461 6 L6480 4 L6500 2" />
</svg>
