<svg xmlns="http://www.w3.org/2000/svg" version="1.1" viewBox="0 0 6500 1000">
	<path fill="none" stroke="gold" stroke-width="125" stroke-linecap="round" stroke-linejoin="round" d="M0 173338  L-471815 173338 L-469211 172633 L-467543 171929 L-449214 170521 L-449044 169112 L-441886 167704 L-441853 167704 L-428422 167000 L-425500 167704 L-412159 165591 L-407990 162774 L-406830 159253 L-406211 155732 L-404199 153619 L-400427 152211 L-399827 150802 L-399498 149394 L-399285 147985 L-398744 146577 L-397506 140943 L-396327 135309 L-393462 129676 L-392940 124042 L-388085 122633 L-385147 121225 L-385104 119816 L-384796 118408 L-384544 117000 L-381949 115591 L-377694 115591 L-377676 115591 L-376439 115591 L-374562 115591 L-372608 114183 L-371660 112774 L-371389 111366 L-371080 110661 L-370981 109957 L-370151 109957 L-368120 110661 L-367830 104323 L-365683 101507 L-365528 97281 L-361872 93056 L-361621 95169 L-361522 94464 L-361005 96577 L-358854 100098 L-357925 103619 L-356399 107140 L-355159 107140 L-353613 106436 L-350651 105028 L-349529 103619 L-349220 102211 L-348009 101507 L-345002 109253 L-344983 108549 L-344635 107845 L-344422 107140 L-344296 97281 L-344054 95873 L-344016 94464 L-343997 93056 L-343977 91647 L-343918 90239 L-343860 88830 L-343842 87422 L-343399 86014 L-342159 84605 L-340614 83197 L-337226 81788 L-331500 81084 L-331298 80380 L-329662 79676 L-327940 78971 L-326508 78267 L-326276 77563 L-325561 76859 L-319428 76154 L-319061 74746 L-318906 73338 L-318328 71929 L-318035 70521 L-317068 69112 L-316758 67704 L-316159 66295 L-314553 66295 L-313818 66295 L-313508 67000 L-312740 67000 L-310704 65591 L-310278 64183 L-309466 63478 L-302037 62070 L-301514 60661 L-301341 59253 L-300606 57845 L-299038 56436 L-298632 55732 L-296407 54323 L-295459 53619 L-295034 52915 L-294704 52915 L-293660 52211 L-291552 50802 L-291300 49394 L-290681 47985 L-289868 47281 L-287761 45873 L-287712 44464 L-285784 43056 L-285458 41647 L-285323 40239 L-284820 39535 L-283407 38126 L-282904 35309 L-282383 33197 L-278823 30380 L-278088 27563 L-275663 27563 L-274374 26154 L-273967 25450 L-270814 25450 L-270659 25450 L-270639 26154 L-270272 26154 L-269014 26859 L-268299 27563 L-267409 27563 L-267002 27563 L-266074 27563 L-264965 26859 L-264662 29676 L-258413 31084 L-257466 32492 L-255840 33901 L-255338 34605 L-251662 35309 L-250830 36014 L-246877 36718 L-245465 34605 L-242976 33197 L-242299 31788 L-242260 31084 L-241390 31084 L-238178 30380 L-235315 29676 L-234347 28971 L-233226 27563 L-233207 26154 L-231582 24746 L-231118 22633 L-231026 21929 L-224656 21225 L-223708 20521 L-221251 19816 L-220379 18408 L-219143 17704 L-217141 17000 L-216744 15591 L-215307 14183 L-213281 13478 L-213068 12070 L-211888 11366 L-210380 10661 L-210359 9957 L-208347 9253 L-207478 7845 L-206607 7140 L-206022 5732 L-205485 4323 L-204827 2915 L-203589 1507 L-203028 802 L-201847 98 L-200610 -605 L-200571 -1309 L-200184 -2014 L-199642 -3422 L-198869 -4126 L-197747 -4830 L-195657 -6239 L-195324 -7647 L-195038 -9056 L-194110 -9760 L-193626 -11169 L-192891 -11873 L-189260 -12577 L-188132 -13281 L-187977 -13985 L-186951 -15394 L-183237 -16098 L-182019 -17507 L-180201 -18915 L-177415 -19619 L-176854 -21028 L-172966 -21028 L-170489 -21732 L-169154 -21732 L-168651 -22436 L-168168 -23140 L-165479 -23140 L-161707 -23140 L-159250 -23140 L-158070 -23140 L-157431 -23845 L-155071 -25253 L-154994 -25957 L-153946 -26661 L-153853 -28070 L-153350 -28070 L-152904 -28070 L-152847 -28070 L-152633 -28070 L-149673 -29478 L-146966 -30183 L-146811 -30887 L-143290 -31591 L-142767 -33000 L-141800 -34408 L-141451 -35112 L-140407 -36521 L-139479 -37929 L-139053 -38633 L-137544 -38633 L-136577 -39338 L-136558 -40042 L-134662 -91450 L-134546 -144267 L-134498 -196380 L-134474 -248492 L-131470 -249197 L-129439 -250605 L-127678 -251309 L-127311 -252014 L-126865 -253422 L-126499 -254126 L-126085 -255535 L-124100 -256239 L-123887 -256239 L-123732 -256943 L-122126 -256943 L-121005 -257647 L-120056 -258352 L-118799 -259760 L-117154 -260464 L-115975 -261873 L-109385 -262577 L-109339 -263281 L-108933 -263985 L-107888 -264690 L-107752 -265394 L-106070 -266802 L-106050 -267507 L-104713 -268915 L-103477 -269619 L-103323 -270323 L-102949 -271732 L-102743 -272436 L-102433 -273140 L-101659 -274549 L-99338 -275253 L-98680 -275957 L-96552 -276661 L-94830 -277366 L-94636 -278774 L-92083 -279478 L-91807 -280887 L-91618 -282295 L-90786 -283000 L-90013 -283704 L-89315 -284408 L-84315 -284408 L-83939 -285816 L-79686 -286521 L-79199 -216802 L-79180 -216802 L-79101 -217507 L-79025 -218211 L-79006 -290042 L-78193 -290746 L-77439 -292154 L-76220 -292859 L-74788 -292859 L-74692 -293563 L-74517 -293563 L-74163 -294971 L-72854 -295676 L-70996 -296380 L-69294 -297788 L-68791 -298492 L-68526 -299197 L-68133 -299901 L-67999 -300605 L-67089 -301309 L-66712 -302014 L-65784 -302014 L-65445 -302718 L-65405 -302718 L-65367 -303422 L-63452 -303422 L-63278 -304126 L-61750 -304126 L-61421 -304830 L-61305 -305535 L-60898 -306943 L-60550 -307647 L-58906 -309056 L-58355 -309760 L-58112 -310464 L-57571 -311169 L-56740 -312577 L-56198 -313281 L-54663 -314690 L-54571 -315394 L-54534 -316098 L-54398 -316802 L-54011 -317507 L-52986 -318211 L-51110 -318915 L-51014 -319619 L-50413 -297084 L-50046 -273140 L-49562 -248492 L-49523 -224549 L-48750 -223140 L-48692 -223845 L-48518 -225253 L-48324 -225957 L-46719 -227366 L-46699 -228070 L-46544 -226661 L-46428 -225957 L-45249 -225253 L-45094 -223140 L-44427 -223140 L-41979 -165394 L-39464 -106239 L-36794 -49197 L-29095 7845 L-23427 7845 L-21213 7140 L-21189 7140 L-20215 21225 L-20195 21225 L-19332 19816 L-16592 19112 L-10793 4323 L-10640 2915 L-7854 2211 L5754 802 L6500 98" />
</svg>
