<svg xmlns="http://www.w3.org/2000/svg" version="1.1" viewBox="0 0 6500 1000">
	<path fill="none" stroke="gold" stroke-width="125" stroke-linecap="round" stroke-linejoin="round" d="M0 31858  L-138807 31858 L-136203 31622 L-134535 31386 L-116205 30915 L-116035 30443 L-108877 29971 L-108844 29971 L-95413 29735 L-92491 29971 L-79150 29264 L-74981 28320 L-73821 27141 L-73202 25962 L-71190 25254 L-67419 24783 L-66818 24311 L-66490 23839 L-66277 23367 L-65735 22896 L-64497 21009 L-63318 19122 L-60454 17235 L-59931 15349 L-55076 14877 L-52139 14405 L-52096 13933 L-51787 13462 L-51536 12990 L-48941 12518 L-44685 12518 L-44667 12518 L-43430 12518 L-41553 12518 L-39599 12047 L-38651 11575 L-38381 11103 L-38071 10867 L-37973 10632 L-37142 10632 L-35112 10867 L-34821 8745 L-32675 7801 L-32519 6386 L-28863 4971 L-28612 5679 L-28513 5443 L-27996 6150 L-25845 7330 L-24916 8509 L-23390 9688 L-22151 9688 L-20604 9452 L-17642 8981 L-16521 8509 L-16211 8037 L-15000 7801 L-11993 10396 L-11974 10160 L-11626 9924 L-11413 9688 L-11287 6386 L-11046 5915 L-11008 5443 L-10988 4971 L-10969 4500 L-10910 4028 L-10851 3556 L-10833 3084 L-10390 2613 L-9151 2141 L-7605 1669 L-4217 1198 L1508 962 L1710 726 L3345 490 L5067 254 L6500 18" />
</svg>
