<svg xmlns="http://www.w3.org/2000/svg" version="1.1" viewBox="0 0 6500 1000">
	<path fill="none" stroke="gold" stroke-width="125" stroke-linecap="round" stroke-linejoin="round" d="M0 32917  L-588917 32917 L-586313 32798 L-584645 32680 L-566316 32443 L-566145 32207 L-558988 31970 L-558954 31970 L-545524 31852 L-542602 31970 L-529261 31615 L-525092 31142 L-523932 30550 L-523313 29958 L-521301 29603 L-517529 29366 L-516929 29130 L-516600 28893 L-516387 28656 L-515846 28420 L-514608 27473 L-513429 26526 L-510564 25579 L-510042 24633 L-505186 24396 L-502249 24159 L-502206 23923 L-501898 23686 L-501646 23449 L-499051 23213 L-494796 23213 L-494778 23213 L-493541 23213 L-491663 23213 L-489710 22976 L-488762 22739 L-488491 22502 L-488181 22384 L-488083 22266 L-487253 22266 L-485222 22384 L-484932 21319 L-482785 20846 L-482630 20136 L-478973 19426 L-478722 19781 L-478624 19662 L-478107 20017 L-475956 20609 L-475027 21201 L-473501 21792 L-472261 21792 L-470715 21674 L-467753 21437 L-466631 21201 L-466322 20964 L-465111 20846 L-462104 22147 L-462084 22029 L-461737 21911 L-461524 21792 L-461398 20136 L-461156 19899 L-461118 19662 L-461098 19426 L-461079 19189 L-461020 18952 L-460962 18715 L-460944 18479 L-460501 18242 L-459261 18005 L-457715 17769 L-454328 17532 L-448601 17414 L-448400 17295 L-446764 17177 L-445042 17059 L-443610 16940 L-443378 16822 L-442662 16704 L-436530 16585 L-436162 16349 L-436008 16112 L-435430 15875 L-435137 15639 L-434170 15402 L-433860 15165 L-433261 14928 L-431655 14928 L-430920 14928 L-430610 15047 L-429842 15047 L-427806 14810 L-427380 14573 L-426568 14455 L-419139 14218 L-418616 13982 L-418443 13745 L-417708 13508 L-416140 13272 L-415734 13153 L-413509 12917 L-412561 12798 L-412136 12680 L-411806 12680 L-410762 12562 L-408654 12325 L-408402 12088 L-407783 11852 L-406970 11733 L-404862 11497 L-404814 11260 L-402886 11023 L-402560 10786 L-402425 10550 L-401922 10431 L-400509 10195 L-400006 9721 L-399484 9366 L-395925 8893 L-395190 8420 L-392765 8420 L-391475 8183 L-391068 8065 L-387916 8065 L-387761 8065 L-387741 8183 L-387374 8183 L-386116 8301 L-385401 8420 L-384511 8420 L-384104 8420 L-383176 8420 L-382067 8301 L-381764 8775 L-375515 9011 L-374568 9248 L-372941 9485 L-372440 9603 L-368764 9721 L-367932 9840 L-363978 9958 L-362567 9603 L-360077 9366 L-359401 9130 L-359362 9011 L-358491 9011 L-355280 8893 L-352417 8775 L-351449 8656 L-350328 8420 L-350309 8183 L-348684 7946 L-348219 7591 L-348128 7473 L-341758 7355 L-340810 7236 L-338353 7118 L-337480 6881 L-336244 6763 L-334243 6644 L-333846 6408 L-332409 6171 L-330383 6053 L-330170 5816 L-328990 5698 L-327481 5579 L-327461 5461 L-325449 5343 L-324579 5106 L-323709 4988 L-323124 4751 L-322587 4514 L-321929 4278 L-320691 4041 L-320130 3923 L-318949 3804 L-317711 3686 L-317673 3568 L-317286 3449 L-316744 3213 L-315971 3094 L-314848 2976 L-312759 2739 L-312426 2502 L-312140 2266 L-311211 2147 L-310728 1911 L-309993 1792 L-306362 1674 L-305234 1556 L-305079 1437 L-304053 1201 L-300339 1082 L-299121 846 L-297303 609 L-294517 491 L-293955 254 L-290068 254 L-287591 136 L-286256 136 L-285753 17 L-285270 -100 L-282580 -100 L-278809 -100 L-276352 -100 L-275172 -100 L-274533 -218 L-272173 -455 L-272095 -573 L-271048 -692 L-270954 -928 L-270452 -928 L-270006 -928 L-269949 -928 L-269735 -928 L-266775 -1165 L-264068 -1284 L-263913 -1402 L-260392 -1520 L-259869 -1757 L-258902 -1994 L-258553 -2112 L-257509 -2349 L-256581 -2585 L-256155 -2704 L-254646 -2704 L-253679 -2822 L-253660 -2940 L-251764 -11579 L-251648 -20455 L-251600 -29213 L-251576 -37970 L-248572 -38088 L-246541 -38325 L-244780 -38443 L-244413 -38562 L-243967 -38798 L-243600 -38917 L-243186 -39153 L-241202 -39272 L-240988 -39272 L-240833 -39390 L-239228 -39390 L-238106 -39508 L-237158 -39627 L-235901 -39863 L-234256 -39982 L-233077 -40218 L-226487 -40337 L-226441 -40455 L-226035 -40573 L-224990 -40692 L-224854 -40810 L-223172 -41047 L-223152 -41165 L-221815 -41402 L-220579 -41520 L-220425 -41639 L-220051 -41875 L-219844 -41994 L-219535 -42112 L-218761 -42349 L-216440 -42467 L-215782 -42585 L-213654 -42704 L-211932 -42822 L-211738 -43059 L-209185 -43177 L-208908 -43414 L-208720 -43650 L-207888 -43769 L-207115 -43887 L-206417 -44005 L-201417 -44005 L-201041 -44242 L-196788 -44360 L-196301 -32644 L-196282 -32644 L-196203 -32763 L-196127 -32881 L-196107 -44952 L-195295 -45071 L-194541 -45307 L-193322 -45426 L-191890 -45426 L-191794 -45544 L-191619 -45544 L-191265 -45781 L-189955 -45899 L-188098 -46017 L-186396 -46254 L-185893 -46372 L-185628 -46491 L-185235 -46609 L-185100 -46727 L-184191 -46846 L-183814 -46964 L-182886 -46964 L-182547 -47082 L-182507 -47082 L-182469 -47201 L-180554 -47201 L-180380 -47319 L-178851 -47319 L-178523 -47437 L-178407 -47556 L-178000 -47792 L-177652 -47911 L-176008 -48147 L-175457 -48266 L-175214 -48384 L-174673 -48502 L-173841 -48739 L-173300 -48857 L-171765 -49094 L-171673 -49213 L-171636 -49331 L-171500 -49449 L-171113 -49568 L-170088 -49686 L-168212 -49804 L-168115 -49923 L-167515 -46136 L-167148 -42112 L-166663 -37970 L-166625 -33946 L-165851 -33710 L-165794 -33828 L-165619 -34065 L-165426 -34183 L-163821 -34420 L-163801 -34538 L-163645 -34301 L-163530 -34183 L-162350 -34065 L-162196 -33710 L-161529 -33710 L-159081 -24005 L-156566 -14065 L-153896 -4479 L-146197 5106 L-140529 5106 L-138314 4988 L-138291 4988 L-137317 7355 L-137297 7355 L-136434 7118 L-133693 7000 L-127895 4514 L-127741 4278 L-124956 4159 L-111347 3923 L-110601 3804 L-106191 3568 L-89844 3449 L-89612 3213 L-89075 3094 L-80616 2976 L-71910 2857 L-71698 2739 L-69725 2621 L-66939 2621 L-62452 2739 L-62297 2621 L-62128 2621 L-61987 2502 L-61697 2266 L-61658 2147 L-61387 2029 L-61215 1911 L-60805 1792 L-59685 1674 L-58505 1556 L-57228 1437 L-54364 1319 L-51444 1201 L-49452 1082 L-47904 846 L-44866 727 L-35542 609 L-35018 491 L-29294 491 L-27787 372 L-26972 372 L-25289 136 L-24568 17 L-24399 -100 L-23354 -218 L-21287 -337 L-19925 -455 L-15481 -573 L-15384 -692 L-15345 -810 L-15327 -928 L-14494 -1047 L-14416 -1284 L-11844 -1402 L-8595 -1520 L-8440 -1639 L-7491 -1757 L-5750 -1994 L-5035 -1284 L-1494 -692 L5082 17 L6500 964" />
</svg>
