<svg xmlns="http://www.w3.org/2000/svg" version="1.1" viewBox="0 0 6500 1000">
	<path fill="none" stroke="gold" stroke-width="125" stroke-linecap="round" stroke-linejoin="round" d="M0 3386  L-727037 3386 L-724433 3386 L-722765 3386 L-704435 3386 L-704265 3385 L-697107 3385 L-697074 3385 L-683643 3385 L-680722 3385 L-667381 3385 L-663212 3384 L-662052 3383 L-661433 3383 L-659421 3382 L-655649 3382 L-655049 3382 L-654720 3381 L-654507 3381 L-653965 3381 L-652727 3379 L-651548 3378 L-648684 3377 L-648162 3376 L-643306 3376 L-640369 3375 L-640326 3375 L-640018 3375 L-639766 3374 L-637171 3374 L-632916 3374 L-632898 3374 L-631661 3374 L-629783 3374 L-627830 3374 L-626882 3374 L-626611 3373 L-626301 3373 L-626203 3373 L-625373 3373 L-623342 3373 L-623051 3372 L-620905 3371 L-620750 3370 L-617093 3369 L-616842 3370 L-616744 3370 L-616227 3370 L-614075 3371 L-613147 3372 L-611621 3372 L-610381 3372 L-608835 3372 L-605873 3372 L-604751 3372 L-604442 3371 L-603231 3371 L-600224 3373 L-600204 3373 L-599857 3372 L-599644 3372 L-599517 3370 L-599276 3370 L-599238 3370 L-599218 3369 L-599199 3369 L-599140 3369 L-599082 3368 L-599063 3368 L-598620 3368 L-597381 3368 L-595835 3367 L-592448 3367 L-586721 3367 L-586520 3367 L-584884 3367 L-583162 3366 L-581730 3366 L-581498 3366 L-580782 3366 L-574650 3366 L-574282 3366 L-574128 3365 L-573549 3365 L-573257 3365 L-572290 3364 L-571980 3364 L-571381 3364 L-569775 3364 L-569040 3364 L-568730 3364 L-567962 3364 L-565925 3364 L-565500 3363 L-564688 3363 L-557259 3363 L-556736 3363 L-556562 3362 L-555827 3362 L-554260 3362 L-553854 3362 L-551629 3361 L-550681 3361 L-550256 3361 L-549926 3361 L-548882 3361 L-546774 3360 L-546522 3360 L-545903 3360 L-545090 3360 L-542982 3359 L-542934 3359 L-541006 3359 L-540680 3359 L-540545 3358 L-540042 3358 L-538629 3358 L-538126 3357 L-537604 3357 L-534045 3356 L-533310 3356 L-530885 3356 L-529595 3355 L-529188 3355 L-526036 3355 L-525881 3355 L-525861 3355 L-525494 3355 L-524236 3355 L-523521 3356 L-522631 3356 L-522224 3356 L-521295 3356 L-520187 3355 L-519884 3356 L-513635 3356 L-512687 3357 L-511061 3357 L-510560 3357 L-506884 3357 L-506051 3357 L-502098 3358 L-500687 3357 L-498197 3357 L-497521 3356 L-497482 3356 L-496611 3356 L-493400 3356 L-490537 3356 L-489569 3356 L-488447 3356 L-488428 3355 L-486803 3355 L-486339 3355 L-486247 3354 L-479878 3354 L-478930 3354 L-476473 3354 L-475600 3354 L-474364 3354 L-472363 3353 L-471965 3353 L-470529 3353 L-468503 3353 L-468290 3352 L-467110 3352 L-465601 3352 L-465581 3352 L-463569 3352 L-462699 3351 L-461828 3351 L-461244 3351 L-460706 3351 L-460049 3350 L-458811 3350 L-458250 3350 L-457069 3350 L-455831 3350 L-455793 3350 L-455406 3349 L-454864 3349 L-454090 3349 L-452968 3349 L-450879 3348 L-450546 3348 L-450260 3348 L-449331 3348 L-448848 3347 L-448113 3347 L-444481 3347 L-443354 3347 L-443199 3347 L-442173 3347 L-438458 3346 L-437241 3346 L-435423 3346 L-432637 3346 L-432075 3345 L-428188 3345 L-425711 3345 L-424376 3345 L-423873 3345 L-423389 3345 L-420700 3345 L-416929 3345 L-414471 3345 L-413292 3345 L-412652 3345 L-410293 3344 L-410215 3344 L-409168 3344 L-409074 3344 L-408571 3344 L-408126 3344 L-408068 3344 L-407855 3344 L-404895 3344 L-402188 3343 L-402033 3343 L-398512 3343 L-397989 3343 L-397022 3343 L-396673 3342 L-395629 3342 L-394700 3342 L-394275 3342 L-392766 3342 L-391799 3342 L-391780 3341 L-389884 3331 L-389768 3319 L-389720 3308 L-389696 3297 L-386691 3297 L-384661 3297 L-382900 3297 L-382533 3297 L-382087 3296 L-381720 3296 L-381306 3296 L-379321 3296 L-379108 3296 L-378953 3296 L-377348 3296 L-376226 3296 L-375278 3295 L-374021 3295 L-372376 3295 L-371196 3295 L-364607 3295 L-364560 3294 L-364155 3294 L-363110 3294 L-362974 3294 L-361292 3294 L-361272 3293 L-359935 3293 L-358699 3293 L-358544 3293 L-358171 3293 L-357964 3292 L-357655 3292 L-356881 3292 L-354559 3292 L-353902 3292 L-351774 3292 L-350051 3291 L-349858 3291 L-347305 3291 L-347028 3291 L-346840 3290 L-346008 3290 L-345235 3290 L-344537 3290 L-339537 3290 L-339161 3290 L-334908 3289 L-334421 3304 L-334401 3304 L-334322 3304 L-334247 3304 L-334227 3289 L-333415 3289 L-332661 3288 L-331442 3288 L-330010 3288 L-329913 3288 L-329739 3288 L-329385 3288 L-328075 3288 L-326218 3287 L-324516 3287 L-324013 3287 L-323748 3287 L-323354 3287 L-323220 3287 L-322310 3286 L-321934 3286 L-321006 3286 L-320666 3286 L-320627 3286 L-320589 3286 L-318674 3286 L-318500 3286 L-316971 3286 L-316643 3286 L-316527 3285 L-316120 3285 L-315772 3285 L-314128 3285 L-313577 3285 L-313334 3284 L-312793 3284 L-311961 3284 L-311420 3284 L-309885 3284 L-309793 3283 L-309756 3283 L-309620 3283 L-309233 3283 L-308208 3283 L-306331 3283 L-306235 3283 L-305635 3287 L-305268 3292 L-304783 3297 L-304745 3303 L-303971 3303 L-303914 3303 L-303739 3302 L-303546 3302 L-301940 3302 L-301920 3302 L-301765 3302 L-301650 3302 L-300470 3302 L-300315 3303 L-299649 3303 L-297200 3315 L-294686 3327 L-292016 3339 L-284317 3351 L-278649 3351 L-276434 3351 L-276411 3351 L-275437 3354 L-275417 3354 L-274553 3354 L-271813 3354 L-266015 3351 L-265861 3350 L-263075 3350 L-249467 3350 L-248721 3350 L-244310 3350 L-227964 3349 L-227732 3349 L-227195 3349 L-218736 3349 L-210030 3349 L-209818 3348 L-207845 3348 L-205059 3348 L-200571 3348 L-200417 3348 L-200248 3348 L-200107 3348 L-199817 3348 L-199778 3348 L-199507 3348 L-199335 3347 L-198925 3347 L-197805 3347 L-196624 3347 L-195348 3347 L-192484 3347 L-189563 3347 L-187571 3346 L-186024 3346 L-182986 3346 L-173661 3346 L-173137 3346 L-167414 3346 L-165907 3346 L-165092 3346 L-163408 3345 L-162687 3345 L-162519 3345 L-161474 3345 L-159406 3345 L-158044 3344 L-153601 3344 L-153504 3344 L-153465 3344 L-153446 3344 L-152614 3344 L-152536 3343 L-149964 3343 L-146714 3343 L-146560 3343 L-145611 3343 L-143870 3343 L-143155 3343 L-139614 3344 L-133037 3345 L-131619 3346 L-131599 3346 L-130648 3346 L-127174 3346 L-126421 3346 L-125859 3345 L-125077 3345 L-117573 3345 L-115974 3345 L-114400 3345 L-111215 3345 L-106882 3344 L-98312 3344 L-89566 3344 L-86492 3344 L-83226 3344 L-82679 3344 L-75542 3344 L-69875 3344 L-55810 3344 L-49799 3344 L-45092 3344 L-41089 3343 L-35982 3343 L-26268 3343 L-10697 3343 L-7614 3342 L-7312 3276 L-7293 3194 L-7274 3100 L-7254 2996 L-7234 2948 L-7215 2908 L-7196 2871 L-7169 2835 L-7148 2800 L-7120 2762 L-7085 2721 L-7071 2686 L-7058 2656 L-7040 2631 L-7021 2613 L-7001 2594 L-6983 2575 L-6963 2556 L-6943 2537 L-6922 2517 L-6905 2498 L-6887 2479 L-6866 2461 L-6846 2443 L-6828 2423 L-6809 2403 L-6789 2381 L-6769 2361 L-6751 2341 L-6732 2322 L-6711 2304 L-6686 2286 L-6671 2269 L-6654 2252 L-6635 2235 L-6615 2218 L-6596 2200 L-6577 2181 L-6557 2163 L-6537 2146 L-6519 2130 L-6500 2115 L-6479 2101 L-6459 2087 L-6442 2075 L-6423 2064 L-6403 2052 L-6384 2042 L-6364 2031 L-6345 2022 L-6325 2014 L-6306 2006 L-6286 1998 L-6268 1990 L-6240 1980 L-6219 1970 L-6192 1958 L-6158 1945 L-6144 1935 L-6130 1926 L-6112 1917 L-6093 1910 L-6073 1902 L-6054 1894 L-6035 1885 L-6015 1876 L-5994 1868 L-5977 1861 L-5958 1853 L-5938 1845 L-5918 1836 L-5900 1825 L-5881 1814 L-5861 1802 L-5841 1790 L-5822 1779 L-5804 1767 L-5782 1753 L-5758 1739 L-5743 1724 L-5726 1711 L-5706 1697 L-5687 1684 L-5667 1670 L-5649 1655 L-5629 1641 L-5608 1627 L-5590 1613 L-5571 1600 L-5551 1588 L-5531 1575 L-5513 1563 L-5494 1552 L-5474 1541 L-5455 1531 L-5435 1521 L-5417 1511 L-5397 1502 L-5377 1492 L-5358 1482 L-5339 1472 L-5310 1462 L-5291 1453 L-5263 1444 L-5226 1433 L-5211 1422 L-5198 1412 L-5181 1403 L-5164 1396 L-5144 1390 L-5126 1384 L-5107 1379 L-5086 1373 L-5066 1367 L-5049 1361 L-5030 1355 L-5009 1348 L-4990 1341 L-4971 1333 L-4952 1325 L-4932 1317 L-4913 1308 L-4894 1299 L-4875 1290 L-4854 1282 L-4830 1273 L-4815 1265 L-4798 1256 L-4778 1247 L-4759 1238 L-4739 1229 L-4720 1220 L-4700 1210 L-4680 1201 L-4662 1192 L-4643 1184 L-4623 1176 L-4602 1168 L-4584 1161 L-4565 1153 L-4545 1146 L-4527 1139 L-4507 1131 L-4488 1124 L-4468 1117 L-4449 1110 L-4429 1103 L-4411 1096 L-4382 1089 L-4362 1083 L-4334 1074 L-4298 1063 L-4284 1053 L-4271 1044 L-4253 1035 L-4235 1030 L-4215 1024 L-4197 1017 L-4177 1010 L-4158 1002 L-4136 994 L-4118 985 L-4101 976 L-4080 967 L-4060 956 L-4042 946 L-4023 935 L-4003 923 L-3983 913 L-3965 903 L-3946 895 L-3925 888 L-3900 883 L-3886 878 L-3868 872 L-3849 867 L-3829 861 L-3810 855 L-3791 849 L-3771 844 L-3750 839 L-3733 835 L-3714 830 L-3694 823 L-3673 816 L-3656 809 L-3637 803 L-3617 799 L-3598 795 L-3578 792 L-3559 788 L-3540 785 L-3520 781 L-3501 776 L-3482 773 L-3454 769 L-3434 765 L-3406 761 L-3371 756 L-3357 752 L-3344 749 L-3325 745 L-3307 743 L-3287 740 L-3269 736 L-3249 734 L-3229 731 L-3208 728 L-3191 725 L-3172 722 L-3152 719 L-3132 716 L-3114 712 L-3095 709 L-3075 706 L-3055 703 L-3037 701 L-3018 698 L-2996 695 L-2972 692 L-2957 690 L-2940 687 L-2920 685 L-2901 682 L-2882 679 L-2863 676 L-2843 672 L-2822 669 L-2804 666 L-2786 664 L-2765 661 L-2745 658 L-2727 656 L-2708 653 L-2688 650 L-2669 648 L-2650 646 L-2631 644 L-2611 642 L-2592 640 L-2572 638 L-2554 641 L-2525 644 L-2505 647 L-2477 650 L-2440 647 L-2425 645 L-2412 643 L-2394 642 L-2378 640 L-2358 639 L-2340 637 L-2320 635 L-2301 633 L-2279 632 L-2263 631 L-2244 629 L-2223 627 L-2203 626 L-2185 624 L-2166 622 L-2146 620 L-2126 619 L-2108 617 L-2089 615 L-2068 614 L-2043 613 L-2029 611 L-2011 609 L-1992 607 L-1972 606 L-1953 604 L-1934 602 L-1914 600 L-1893 598 L-1876 595 L-1857 593 L-1836 591 L-1816 589 L-1799 587 L-1780 584 L-1760 583 L-1741 581 L-1721 578 L-1702 576 L-1682 574 L-1663 572 L-1644 570 L-1625 569 L-1597 567 L-1577 565 L-1549 563 L-1514 560 L-1500 558 L-1487 556 L-1468 554 L-1450 553 L-1430 551 L-1411 549 L-1392 548 L-1372 546 L-1351 544 L-1334 542 L-1315 540 L-1295 538 L-1275 536 L-1257 533 L-1238 531 L-1218 528 L-1198 525 L-1179 522 L-1161 520 L-1139 517 L-1114 515 L-1100 512 L-1083 509 L-1063 507 L-1044 504 L-1025 502 L-1006 499 L-986 496 L-965 494 L-947 492 L-928 489 L-908 487 L-887 485 L-870 483 L-851 481 L-831 480 L-812 478 L-793 476 L-774 475 L-754 473 L-734 472 L-715 471 L-696 470 L-669 468 L-648 467 L-620 465 L-585 462 L-571 460 L-558 457 L-539 455 L-521 453 L-501 452 L-483 450 L-463 449 L-443 447 L-422 445 L-405 443 L-387 441 L-366 439 L-346 437 L-328 435 L-309 433 L-289 431 L-269 429 L-251 427 L-232 425 L-211 424 L-186 422 L-171 420 L-154 419 L-135 417 L-115 415 L-96 413 L-77 410 L-57 407 L-36 404 L-19 402 L0 399 L20 397 L40 395 L57 394 L76 392 L97 391 L115 390 L135 389 L154 387 L174 386 L193 384 L213 383 L231 382 L259 381 L280 380 L307 378 L341 377 L356 376 L369 375 L387 374 L406 373 L426 372 L445 371 L464 370 L484 369 L505 368 L522 367 L541 366 L561 365 L581 364 L599 363 L618 362 L638 361 L658 360 L677 359 L696 359 L717 358 L741 357 L756 356 L773 355 L793 354 L812 353 L831 352 L850 351 L870 349 L891 348 L909 346 L928 344 L948 341 L969 340 L986 338 L1005 337 L1025 335 L1044 334 L1064 333 L1082 331 L1102 330 L1121 329 L1141 328 L1160 327 L1188 326 L1236 325 L1273 324 L1288 323 L1300 322 L1317 321 L1335 320 L1355 320 L1373 319 L1392 318 L1413 317 L1433 317 L1450 316 L1469 316 L1490 315 L1509 314 L1528 313 L1547 312 L1567 311 L1586 310 L1605 309 L1624 308 L1645 307 L1670 305 L1684 303 L1701 302 L1721 300 L1740 299 L1760 297 L1779 296 L1799 294 L1819 293 L1837 292 L1856 290 L1877 289 L1897 288 L1915 287 L1934 286 L1954 285 L1972 284 L1992 283 L2011 282 L2031 281 L2050 279 L2070 278 L2088 277 L2117 276 L2137 275 L2165 273 L2201 271 L2216 269 L2229 267 L2246 265 L2264 264 L2284 262 L2302 262 L2322 261 L2341 260 L2363 259 L2379 258 L2398 257 L2419 255 L2439 254 L2457 252 L2476 250 L2496 247 L2516 245 L2534 244 L2553 242 L2574 240 L2599 239 L2614 237 L2632 236 L2650 235 L2670 234 L2689 232 L2708 230 L2728 229 L2749 227 L2766 226 L2785 224 L2805 223 L2827 222 L2843 220 L2862 219 L2882 218 L2901 217 L2921 216 L2940 215 L2959 214 L2979 212 L2998 212 L3017 211 L3045 997 L3065 996 L3093 995 L3129 993 L3143 204 L3157 202 L3174 201 L3192 200 L3212 199 L3230 199 L3250 198 L3270 196 L3291 195 L3308 193 L3326 191 L3347 190 L3367 188 L3385 186 L3404 184 L3424 181 L3445 180 L3462 179 L3481 177 L3503 176 L3528 174 L3543 172 L3572 170 L3612 168 L3635 166 L3664 163 L3681 161 L3695 159 L3714 157 L3734 156 L3755 155 L3772 154 L3791 153 L3811 152 L3830 151 L3849 150 L3868 150 L3888 149 L3908 148 L3927 147 L3945 146 L3973 145 L3994 144 L4022 143 L4057 142 L4070 140 L4102 139 L4121 138 L4141 137 L4159 137 L4179 136 L4198 135 L4220 134 L4236 133 L4255 132 L4276 129 L4296 125 L4314 121 L4333 118 L4353 115 L4373 113 L4391 110 L4410 109 L4431 108 L4456 106 L4471 105 L4488 103 L4507 101 L4527 100 L4546 99 L4565 97 L4585 96 L4606 94 L4623 92 L4642 91 L4663 90 L4684 89 L4700 88 L4719 87 L4740 86 L4759 85 L4778 83 L4797 82 L4817 81 L4837 80 L4855 79 L4874 78 L4902 78 L4922 77 L4993 74 L5020 72 L5035 70 L5049 67 L5069 66 L5088 65 L5107 63 L5127 62 L5148 61 L5165 60 L5184 59 L5204 58 L5224 57 L5242 56 L5261 55 L5281 53 L5302 52 L5319 50 L5338 49 L5360 48 L5385 47 L5400 46 L5417 45 L5436 44 L5456 42 L5475 41 L5494 39 L5513 38 L5535 37 L5552 36 L5571 35 L5591 34 L5612 33 L5629 32 L5687 31 L5707 30 L5725 29 L5745 28 L5765 27 L5784 27 L5803 26 L5831 25 L5851 25 L5879 24 L5915 23 L5930 22 L5943 22 L5960 21 L5978 21 L5998 20 L6016 20 L6036 19 L6056 19 L6077 18 L6094 18 L6112 18 L6133 17 L6153 16 L6171 16 L6190 15 L6210 14 L6231 13 L6248 12 L6267 11 L6289 11 L6313 10 L6328 9 L6345 9 L6365 8 L6384 7 L6403 7 L6422 5 L6442 4 L6463 3 L6480 2 L6500 1" />
</svg>
