<svg xmlns="http://www.w3.org/2000/svg" version="1.1" viewBox="0 0 6500 1000">
	<path fill="none" stroke="gold" stroke-width="125" stroke-linecap="round" stroke-linejoin="round" d="M0 3320  L-728023 3320 L-725419 3319 L-723751 3319 L-705422 3319 L-705252 3319 L-698094 3318 L-698061 3318 L-684630 3318 L-681708 3318 L-668367 3318 L-664198 3317 L-663038 3317 L-662419 3316 L-660407 3315 L-656635 3315 L-656035 3315 L-655707 3315 L-655494 3314 L-654952 3314 L-653714 3313 L-652535 3312 L-649671 3311 L-649148 3309 L-644293 3309 L-641356 3309 L-641313 3309 L-641004 3308 L-640752 3308 L-638157 3308 L-633902 3308 L-633884 3308 L-632647 3308 L-630770 3308 L-628816 3307 L-627868 3307 L-627597 3307 L-627288 3307 L-627190 3307 L-626359 3307 L-624328 3307 L-624038 3305 L-621892 3305 L-621736 3304 L-618080 3303 L-617829 3304 L-617730 3303 L-617213 3304 L-615062 3305 L-614133 3305 L-612607 3306 L-611368 3306 L-609821 3306 L-606859 3306 L-605737 3305 L-605428 3305 L-604217 3305 L-601210 3306 L-601191 3306 L-600843 3306 L-600630 3306 L-600504 3304 L-600262 3304 L-600224 3303 L-600205 3303 L-600186 3303 L-600127 3303 L-600068 3302 L-600050 3302 L-599607 3302 L-598368 3301 L-596822 3301 L-593434 3301 L-587708 3301 L-587506 3300 L-585870 3300 L-584148 3300 L-582716 3300 L-582484 3300 L-581769 3300 L-575637 3300 L-575269 3299 L-575114 3299 L-574536 3299 L-574243 3298 L-573276 3298 L-572966 3298 L-572367 3298 L-570761 3298 L-570026 3298 L-569716 3298 L-568948 3298 L-566912 3297 L-566487 3297 L-565674 3297 L-558245 3297 L-557722 3296 L-557549 3296 L-556814 3296 L-555246 3296 L-554840 3295 L-552615 3295 L-551668 3295 L-551243 3295 L-550912 3295 L-549868 3295 L-547760 3294 L-547508 3294 L-546889 3294 L-546077 3294 L-543969 3293 L-543920 3293 L-541992 3293 L-541666 3293 L-541531 3292 L-541028 3292 L-539615 3292 L-539112 3291 L-538591 3291 L-535031 3290 L-534296 3290 L-531871 3290 L-530582 3289 L-530175 3289 L-527022 3289 L-526867 3289 L-526847 3289 L-526481 3289 L-525222 3290 L-524507 3290 L-523617 3290 L-523210 3290 L-522282 3290 L-521173 3290 L-520870 3290 L-514621 3290 L-513674 3291 L-512048 3291 L-511546 3291 L-507870 3291 L-507038 3291 L-503085 3292 L-501673 3291 L-499184 3291 L-498507 3291 L-498468 3290 L-497598 3290 L-494386 3290 L-491523 3290 L-490555 3290 L-489434 3290 L-489415 3289 L-487790 3289 L-487326 3289 L-487234 3289 L-480865 3288 L-479916 3288 L-477459 3288 L-476587 3288 L-475351 3288 L-473349 3288 L-472952 3287 L-471516 3287 L-469489 3287 L-469276 3287 L-468096 3286 L-466588 3286 L-466567 3286 L-464555 3286 L-463686 3286 L-462815 3286 L-462230 3285 L-461693 3285 L-461035 3285 L-459797 3284 L-459236 3284 L-458055 3284 L-456818 3284 L-456779 3284 L-456392 3284 L-455851 3283 L-455077 3283 L-453955 3283 L-451865 3283 L-451532 3282 L-451246 3282 L-450318 3282 L-449835 3282 L-449099 3282 L-445468 3281 L-444340 3281 L-444186 3281 L-443160 3281 L-439445 3281 L-438227 3280 L-436409 3280 L-433623 3280 L-433062 3280 L-429174 3280 L-426697 3280 L-425362 3280 L-424859 3279 L-424376 3279 L-421687 3279 L-417915 3279 L-415458 3279 L-414278 3279 L-413639 3279 L-411279 3279 L-411202 3279 L-410154 3279 L-410061 3278 L-409558 3278 L-409112 3278 L-409055 3278 L-408841 3278 L-405882 3278 L-403174 3278 L-403019 3278 L-399498 3278 L-398975 3277 L-398008 3277 L-397659 3277 L-396615 3277 L-395687 3276 L-395261 3276 L-393752 3276 L-392785 3276 L-392766 3276 L-390870 3265 L-390754 3255 L-390706 3244 L-390682 3233 L-387678 3233 L-385647 3233 L-383886 3233 L-383519 3232 L-383074 3232 L-382707 3232 L-382293 3232 L-380308 3232 L-380095 3232 L-379940 3231 L-378334 3231 L-377213 3231 L-376264 3231 L-375007 3231 L-373363 3231 L-372183 3230 L-365593 3230 L-365547 3230 L-365141 3230 L-364096 3230 L-363961 3230 L-362278 3229 L-362258 3229 L-360921 3229 L-359685 3229 L-359531 3229 L-359157 3228 L-358951 3228 L-358641 3228 L-357867 3228 L-355546 3228 L-354888 3228 L-352760 3227 L-351038 3227 L-350844 3227 L-348291 3227 L-348015 3227 L-347827 3226 L-346994 3226 L-346222 3226 L-345524 3226 L-340523 3226 L-340147 3226 L-335894 3225 L-335407 3240 L-335388 3240 L-335309 3240 L-335234 3239 L-335214 3225 L-334401 3225 L-333647 3224 L-332428 3224 L-330996 3224 L-330900 3224 L-330725 3224 L-330371 3224 L-329062 3224 L-327205 3223 L-325502 3223 L-324999 3223 L-324734 3223 L-324341 3223 L-324207 3223 L-323297 3222 L-322921 3222 L-321992 3222 L-321653 3222 L-321613 3222 L-321576 3222 L-319660 3222 L-319486 3222 L-317958 3222 L-317629 3222 L-317513 3222 L-317106 3221 L-316758 3221 L-315114 3221 L-314564 3221 L-314320 3221 L-313779 3220 L-312948 3220 L-312406 3220 L-310872 3220 L-310779 3220 L-310742 3219 L-310606 3219 L-310219 3219 L-309194 3219 L-307318 3219 L-307222 3219 L-306621 3223 L-306254 3228 L-305770 3233 L-305732 3238 L-304958 3238 L-304900 3238 L-304726 3238 L-304532 3238 L-302927 3238 L-302907 3237 L-302752 3238 L-302636 3238 L-301457 3238 L-301302 3238 L-300635 3238 L-298187 3250 L-295672 3262 L-293002 3274 L-285303 3286 L-279635 3286 L-277421 3286 L-277397 3286 L-276424 3288 L-276404 3288 L-275540 3288 L-272800 3288 L-267001 3285 L-266848 3285 L-264062 3284 L-250454 3284 L-249708 3284 L-245297 3284 L-228951 3284 L-228719 3283 L-228181 3283 L-219722 3283 L-211016 3283 L-210804 3283 L-208832 3283 L-206045 3283 L-201558 3283 L-201403 3283 L-201234 3283 L-201094 3282 L-200803 3282 L-200764 3282 L-200493 3282 L-200322 3282 L-199912 3282 L-198791 3281 L-197611 3281 L-196334 3281 L-193470 3281 L-190550 3281 L-188558 3281 L-187010 3280 L-183972 3280 L-174648 3280 L-174124 3280 L-168400 3280 L-166893 3280 L-166078 3280 L-164395 3280 L-163674 3279 L-163505 3279 L-162460 3279 L-160393 3279 L-159031 3279 L-154588 3279 L-154490 3279 L-154452 3278 L-154433 3278 L-153600 3278 L-153523 3278 L-150950 3278 L-147701 3278 L-147546 3277 L-146598 3277 L-144857 3277 L-144141 3278 L-140600 3279 L-134023 3279 L-132606 3281 L-132585 3280 L-131635 3280 L-128160 3280 L-127407 3280 L-126845 3280 L-126063 3280 L-118559 3279 L-116961 3279 L-115387 3279 L-112201 3279 L-107868 3279 L-99299 3279 L-90552 3279 L-87478 3279 L-84212 3278 L-83666 3278 L-76529 3278 L-70861 3278 L-56797 3278 L-50785 3278 L-46079 3278 L-42076 3278 L-36968 3278 L-27254 3277 L-11684 3277 L-8601 3277 L-8299 3212 L-8279 3132 L-8260 3041 L-8240 2940 L-8221 2894 L-8202 2855 L-8183 2819 L-8155 2784 L-8134 2749 L-8107 2713 L-8071 2673 L-8058 2639 L-8045 2610 L-8026 2586 L-8007 2568 L-7987 2549 L-7969 2531 L-7950 2513 L-7930 2494 L-7909 2475 L-7892 2456 L-7873 2438 L-7853 2420 L-7833 2402 L-7814 2383 L-7796 2363 L-7776 2343 L-7756 2323 L-7737 2304 L-7718 2285 L-7697 2268 L-7672 2250 L-7658 2233 L-7641 2217 L-7621 2200 L-7602 2184 L-7583 2166 L-7564 2148 L-7544 2131 L-7523 2114 L-7505 2099 L-7486 2084 L-7466 2070 L-7445 2057 L-7428 2045 L-7409 2034 L-7389 2023 L-7370 2013 L-7350 2003 L-7332 1993 L-7312 1985 L-7292 1978 L-7273 1970 L-7254 1962 L-7227 1953 L-7206 1943 L-7178 1931 L-7144 1919 L-7130 1909 L-7117 1900 L-7098 1892 L-7079 1885 L-7059 1877 L-7041 1869 L-7021 1860 L-7002 1852 L-6981 1844 L-6964 1837 L-6945 1829 L-6924 1821 L-6905 1812 L-6886 1802 L-6867 1791 L-6847 1780 L-6828 1768 L-6809 1757 L-6790 1745 L-6769 1732 L-6745 1718 L-6730 1704 L-6713 1691 L-6693 1678 L-6674 1665 L-6654 1651 L-6635 1637 L-6615 1623 L-6595 1609 L-6577 1596 L-6558 1583 L-6538 1571 L-6517 1559 L-6499 1547 L-6480 1537 L-6460 1526 L-6442 1517 L-6422 1507 L-6403 1497 L-6383 1488 L-6364 1478 L-6345 1468 L-6326 1459 L-6297 1449 L-6277 1441 L-6249 1432 L-6212 1421 L-6197 1411 L-6185 1401 L-6168 1392 L-6151 1385 L-6131 1379 L-6112 1373 L-6093 1368 L-6073 1363 L-6052 1357 L-6035 1351 L-6016 1345 L-5996 1338 L-5976 1331 L-5958 1324 L-5939 1316 L-5919 1308 L-5899 1299 L-5880 1291 L-5862 1282 L-5840 1274 L-5816 1265 L-5801 1257 L-5784 1249 L-5764 1240 L-5745 1232 L-5725 1223 L-5707 1213 L-5687 1204 L-5666 1195 L-5648 1187 L-5629 1179 L-5609 1171 L-5589 1163 L-5571 1156 L-5552 1149 L-5532 1142 L-5513 1135 L-5493 1127 L-5474 1121 L-5455 1114 L-5435 1107 L-5416 1101 L-5397 1094 L-5369 1087 L-5349 1080 L-5321 1072 L-5285 1062 L-5270 1052 L-5257 1042 L-5240 1034 L-5222 1029 L-5202 1023 L-5183 1017 L-5164 1010 L-5144 1002 L-5123 994 L-5104 986 L-5087 977 L-5067 967 L-5047 958 L-5029 947 L-5010 936 L-4990 925 L-4969 915 L-4952 906 L-4933 898 L-4911 891 L-4887 886 L-4872 881 L-4854 876 L-4835 870 L-4816 865 L-4797 859 L-4778 853 L-4758 848 L-4737 844 L-4720 840 L-4700 834 L-4680 828 L-4659 821 L-4642 814 L-4623 809 L-4603 804 L-4584 801 L-4565 798 L-4546 794 L-4526 791 L-4506 787 L-4487 783 L-4469 779 L-4441 775 L-4420 772 L-4392 768 L-4358 763 L-4344 759 L-4331 756 L-4312 752 L-4293 750 L-4273 747 L-4255 744 L-4235 741 L-4216 739 L-4195 736 L-4178 733 L-4159 730 L-4138 727 L-4118 723 L-4100 720 L-4082 717 L-4062 714 L-4041 712 L-4023 709 L-4004 706 L-3983 703 L-3958 701 L-3944 698 L-3926 696 L-3907 693 L-3888 691 L-3868 688 L-3849 685 L-3829 681 L-3808 678 L-3791 675 L-3772 673 L-3752 670 L-3731 668 L-3714 665 L-3695 663 L-3675 660 L-3656 658 L-3636 655 L-3617 654 L-3597 652 L-3578 650 L-3559 648 L-3540 651 L-3511 654 L-3491 657 L-3463 660 L-3426 657 L-3411 655 L-3398 653 L-3381 652 L-3365 650 L-3345 649 L-3326 647 L-3307 645 L-3287 644 L-3266 642 L-3249 641 L-3230 639 L-3210 638 L-3190 636 L-3172 634 L-3153 633 L-3133 631 L-3113 629 L-3095 628 L-3076 626 L-3054 625 L-3030 624 L-3015 622 L-2998 620 L-2978 618 L-2959 617 L-2940 615 L-2921 613 L-2901 611 L-2880 609 L-2862 606 L-2843 604 L-2823 602 L-2802 600 L-2785 598 L-2766 596 L-2746 594 L-2727 592 L-2708 590 L-2689 588 L-2669 586 L-2649 584 L-2630 582 L-2611 581 L-2584 579 L-2563 577 L-2535 575 L-2500 572 L-2487 570 L-2473 569 L-2454 567 L-2436 565 L-2416 564 L-2398 562 L-2378 560 L-2358 558 L-2337 557 L-2320 555 L-2302 553 L-2281 551 L-2261 549 L-2243 547 L-2224 544 L-2204 541 L-2184 538 L-2166 536 L-2147 533 L-2126 531 L-2101 528 L-2086 526 L-2069 523 L-2050 521 L-2030 518 L-2011 516 L-1992 513 L-1972 510 L-1951 508 L-1934 506 L-1915 503 L-1894 501 L-1873 499 L-1856 497 L-1838 495 L-1818 494 L-1799 492 L-1779 491 L-1760 489 L-1740 488 L-1720 487 L-1702 486 L-1683 485 L-1655 483 L-1634 482 L-1607 480 L-1571 477 L-1557 475 L-1544 473 L-1526 470 L-1508 469 L-1488 467 L-1469 465 L-1450 464 L-1430 462 L-1409 461 L-1392 459 L-1373 457 L-1353 455 L-1333 453 L-1314 451 L-1296 449 L-1276 447 L-1255 445 L-1237 443 L-1219 441 L-1197 440 L-1172 438 L-1158 437 L-1140 435 L-1121 433 L-1101 431 L-1082 429 L-1063 427 L-1043 424 L-1022 421 L-1005 419 L-986 416 L-966 414 L-945 412 L-928 411 L-909 409 L-889 408 L-870 407 L-850 406 L-832 404 L-812 403 L-792 402 L-773 401 L-754 399 L-727 398 L-706 397 L-678 396 L-644 395 L-630 393 L-617 392 L-598 391 L-579 390 L-559 389 L-541 388 L-521 387 L-502 387 L-481 386 L-464 385 L-445 384 L-424 383 L-404 381 L-386 380 L-367 379 L-347 379 L-327 378 L-309 377 L-290 377 L-269 376 L-244 375 L-230 374 L-212 373 L-193 372 L-174 371 L-154 370 L-135 369 L-115 368 L-95 366 L-77 364 L-58 362 L-38 360 L-17 358 L0 357 L19 355 L39 354 L57 353 L77 351 L96 350 L116 349 L135 348 L155 347 L173 346 L202 345 L250 344 L287 343 L301 342 L314 341 L331 340 L348 339 L368 339 L387 338 L406 337 L426 337 L447 336 L464 335 L483 335 L503 334 L523 333 L541 332 L560 331 L580 330 L600 330 L619 329 L637 327 L659 326 L683 324 L698 323 L715 321 L735 320 L754 318 L774 317 L792 316 L812 314 L833 313 L851 311 L870 310 L890 309 L910 308 L928 307 L947 306 L967 305 L986 304 L1006 303 L1024 302 L1044 301 L1064 299 L1083 298 L1102 297 L1130 296 L1150 295 L1178 294 L1215 291 L1230 289 L1242 287 L1260 285 L1277 284 L1297 283 L1316 282 L1335 281 L1355 281 L1376 280 L1393 279 L1411 277 L1432 276 L1453 274 L1470 273 L1490 271 L1509 268 L1530 266 L1547 265 L1566 263 L1588 262 L1613 260 L1628 259 L1645 257 L1664 256 L1684 255 L1702 254 L1721 252 L1741 250 L1763 249 L1779 247 L1799 246 L1819 245 L1840 243 L1857 242 L1876 241 L1896 240 L1915 239 L1934 238 L1953 237 L1973 236 L1993 234 L2012 234 L2031 233 L2059 997 L2079 996 L2107 995 L2143 993 L2157 226 L2170 224 L2188 223 L2206 222 L2225 222 L2244 221 L2263 220 L2283 219 L2305 217 L2321 216 L2340 214 L2361 212 L2381 211 L2399 209 L2418 206 L2438 204 L2459 203 L2476 202 L2495 200 L2516 199 L2541 197 L2556 196 L2586 194 L2626 191 L2649 189 L2678 186 L2694 184 L2708 182 L2727 181 L2748 180 L2769 179 L2785 178 L2804 177 L2824 176 L2843 175 L2863 174 L2882 174 L2902 173 L2922 172 L2940 171 L2959 170 L2987 169 L3007 168 L3035 167 L3070 166 L3084 164 L3116 163 L3134 162 L3154 161 L3173 161 L3192 160 L3212 159 L3233 159 L3250 158 L3268 156 L3289 153 L3310 150 L3327 146 L3346 143 L3366 140 L3386 137 L3404 135 L3423 134 L3445 132 L3470 131 L3485 130 L3502 128 L3521 127 L3541 125 L3559 124 L3579 123 L3598 121 L3620 119 L3637 118 L3656 116 L3676 115 L3697 114 L3714 113 L3733 112 L3753 111 L3772 110 L3792 109 L3811 108 L3830 107 L3850 106 L3869 105 L3888 104 L3915 103 L3936 102 L4006 100 L4034 98 L4049 96 L4063 93 L4083 92 L4101 91 L4120 90 L4140 88 L4161 87 L4179 86 L4197 85 L4218 84 L4238 84 L4256 83 L4275 81 L4295 80 L4315 78 L4333 77 L4352 76 L4373 75 L4398 74 L4413 73 L4431 72 L4449 70 L4469 69 L4488 68 L4507 66 L4527 65 L4548 64 L4565 63 L4585 62 L4605 61 L4626 60 L4643 59 L4701 58 L4720 57 L4739 56 L4759 55 L4779 55 L4798 54 L4816 53 L4844 53 L4865 52 L4892 51 L4929 51 L4943 50 L4956 49 L4974 48 L4992 48 L5011 47 L5030 47 L5050 47 L5069 46 L5090 46 L5107 45 L5126 45 L5146 44 L5167 44 L5185 43 L5204 42 L5223 41 L5244 41 L5262 40 L5281 39 L5302 38 L5327 38 L5341 37 L5359 36 L5378 36 L5398 35 L5417 34 L5436 33 L5456 32 L5477 31 L5494 30 L5513 29 L5533 29 L5554 28 L5571 28 L5590 27 L5610 27 L5629 26 L5649 26 L5667 25 L5687 25 L5707 25 L5726 24 L5745 24 L5772 23 L5793 23 L5821 22 L5856 21 L5870 21 L5884 20 L5902 20 L5920 19 L5940 19 L5958 18 L5997 18 L6018 17 L6035 17 L6054 16 L6075 15 L6094 15 L6113 14 L6132 13 L6152 12 L6171 12 L6190 11 L6209 10 L6230 10 L6255 9 L6269 9 L6286 8 L6306 8 L6325 7 L6345 6 L6364 5 L6384 5 L6404 4 L6422 4 L6441 3 L6462 2 L6482 2 L6500 1" />
</svg>
