<svg xmlns="http://www.w3.org/2000/svg" version="1.1" viewBox="0 0 6500 1000">
	<path fill="none" stroke="gold" stroke-width="125" stroke-linecap="round" stroke-linejoin="round" d="M0 28010  L-276055 28010 L-273451 27904 L-271783 27798 L-253454 27586 L-253283 27374 L-246126 27162 L-246092 27162 L-232662 27056 L-229740 27162 L-216399 26844 L-212230 26419 L-211070 25889 L-210451 25359 L-208439 25041 L-204667 24829 L-204067 24617 L-203738 24405 L-203525 24193 L-202984 23980 L-201746 23132 L-200567 22284 L-197702 21435 L-197180 20587 L-192324 20375 L-189387 20163 L-189344 19951 L-189036 19739 L-188784 19527 L-186189 19314 L-181934 19314 L-181916 19314 L-180679 19314 L-178801 19314 L-176848 19102 L-175900 18890 L-175629 18678 L-175319 18572 L-175221 18466 L-174391 18466 L-172360 18572 L-172070 17618 L-169923 17194 L-169768 16557 L-166111 15921 L-165860 16239 L-165762 16133 L-165245 16451 L-163094 16981 L-162165 17512 L-160639 18042 L-159399 18042 L-157853 17936 L-154891 17724 L-153769 17512 L-153460 17300 L-152249 17194 L-149242 18360 L-149222 18254 L-148875 18148 L-148662 18042 L-148536 16557 L-148294 16345 L-148256 16133 L-148236 15921 L-148217 15709 L-148158 15497 L-148100 15285 L-148082 15073 L-147639 14861 L-146399 14648 L-144853 14436 L-141466 14224 L-135739 14118 L-135538 14012 L-133902 13906 L-132180 13800 L-130748 13694 L-130516 13588 L-129800 13482 L-123668 13376 L-123300 13164 L-123146 12952 L-122568 12740 L-122275 12528 L-121308 12316 L-120998 12103 L-120399 11891 L-118793 11891 L-118058 11891 L-117748 11997 L-116980 11997 L-114944 11785 L-114518 11573 L-113706 11467 L-106277 11255 L-105754 11043 L-105581 10831 L-104846 10619 L-103278 10407 L-102872 10301 L-100647 10089 L-99699 9983 L-99274 9876 L-98944 9876 L-97900 9770 L-95792 9558 L-95540 9346 L-94921 9134 L-94108 9028 L-92000 8816 L-91952 8604 L-90024 8392 L-89698 8180 L-89563 7968 L-89060 7862 L-87647 7650 L-87144 7225 L-86622 6907 L-83063 6483 L-82328 6059 L-79903 6059 L-78613 5847 L-78206 5741 L-75054 5741 L-74899 5741 L-74879 5847 L-74512 5847 L-73254 5953 L-72539 6059 L-71649 6059 L-71242 6059 L-70314 6059 L-69205 5953 L-68902 6377 L-62653 6589 L-61706 6801 L-60079 7013 L-59578 7119 L-55902 7225 L-55070 7331 L-51116 7437 L-49705 7119 L-47215 6907 L-46539 6695 L-46500 6589 L-45629 6589 L-42418 6483 L-39555 6377 L-38587 6271 L-37466 6059 L-37447 5847 L-35822 5635 L-35357 5317 L-35266 5211 L-28896 5104 L-27948 4998 L-25491 4892 L-24618 4680 L-23382 4574 L-21381 4468 L-20983 4256 L-19547 4044 L-17521 3938 L-17308 3726 L-16128 3620 L-14619 3514 L-14599 3408 L-12587 3302 L-11717 3090 L-10847 2984 L-10262 2772 L-9725 2559 L-9067 2347 L-7829 2135 L-7268 2029 L-6087 1923 L-4849 1817 L-4811 1711 L-4424 1605 L-3882 1393 L-3109 1287 L-1986 1181 L102 969 L435 757 L721 545 L1650 439 L2133 226 L2868 120 L6500 14" />
</svg>
