<svg xmlns="http://www.w3.org/2000/svg" version="1.1" viewBox="0 0 6500 1000">
	<path fill="none" stroke="gold" stroke-width="125" stroke-linecap="round" stroke-linejoin="round" d="M0 2938  L-330769 2938 L-328165 2931 L-326497 2925 L-308167 2912 L-307997 2899 L-300839 2886 L-300806 2886 L-287375 2879 L-284453 2886 L-271112 2866 L-266943 2840 L-265783 2808 L-265164 2775 L-263152 2756 L-259381 2742 L-258780 2729 L-258452 2716 L-258239 2703 L-257697 2690 L-256459 2638 L-255280 2586 L-252416 2534 L-251893 2482 L-247038 2469 L-244101 2456 L-244058 2443 L-243749 2430 L-243498 2417 L-240903 2404 L-236647 2404 L-236629 2404 L-235392 2404 L-233515 2404 L-231561 2391 L-230613 2378 L-230343 2365 L-230033 2358 L-229935 2352 L-229104 2352 L-227074 2358 L-226783 2300 L-224637 2274 L-224481 2235 L-220825 2196 L-220574 2215 L-220475 2209 L-219958 2228 L-217807 2261 L-216878 2293 L-215352 2326 L-214113 2326 L-212566 2319 L-209604 2306 L-208483 2293 L-208173 2280 L-206962 2274 L-203955 2345 L-203936 2339 L-203588 2332 L-203375 2326 L-203249 2235 L-203008 2222 L-202970 2209 L-202950 2196 L-202931 2182 L-202872 2169 L-202813 2156 L-202795 2143 L-202352 2130 L-201113 2117 L-199567 2104 L-196179 2091 L-190453 2085 L-190251 2078 L-188616 2072 L-186894 2065 L-185462 2059 L-185229 2052 L-184514 2046 L-178382 2039 L-178014 2026 L-177860 2013 L-177281 2000 L-176989 1987 L-176021 1974 L-175712 1961 L-175113 1948 L-173506 1948 L-172771 1948 L-172461 1955 L-171693 1955 L-169657 1942 L-169232 1929 L-168419 1922 L-160991 1909 L-160468 1896 L-160294 1883 L-159559 1870 L-157991 1857 L-157586 1850 L-155361 1837 L-154413 1831 L-153988 1824 L-153657 1824 L-152614 1818 L-150506 1805 L-150253 1792 L-149634 1779 L-148822 1772 L-146714 1759 L-146665 1746 L-144737 1733 L-144411 1720 L-144276 1707 L-143773 1701 L-142361 1688 L-141858 1662 L-141336 1642 L-137776 1616 L-137041 1590 L-134616 1590 L-133327 1577 L-132920 1570 L-129767 1570 L-129613 1570 L-129592 1577 L-129226 1577 L-127968 1583 L-127253 1590 L-126363 1590 L-125956 1590 L-125027 1590 L-123919 1583 L-123615 1609 L-117366 1622 L-116419 1635 L-114793 1649 L-114291 1655 L-110615 1662 L-109783 1668 L-105830 1675 L-104418 1655 L-101929 1642 L-101252 1629 L-101214 1622 L-100343 1622 L-97132 1616 L-94269 1609 L-93301 1603 L-92179 1590 L-92160 1577 L-90535 1564 L-90071 1544 L-89979 1538 L-83610 1531 L-82661 1525 L-80204 1518 L-79332 1505 L-78096 1499 L-76095 1492 L-75697 1479 L-74261 1466 L-72235 1460 L-72021 1447 L-70841 1440 L-69333 1434 L-69313 1427 L-67300 1421 L-66431 1408 L-65560 1401 L-64975 1388 L-64438 1375 L-63780 1362 L-62542 1349 L-61982 1342 L-60800 1336 L-59563 1329 L-59524 1323 L-59137 1316 L-58596 1303 L-57822 1297 L-56700 1290 L-54611 1277 L-54277 1264 L-53992 1251 L-53063 1245 L-52580 1232 L-51844 1225 L-48213 1219 L-47085 1212 L-46931 1206 L-45905 1193 L-42190 1186 L-40973 1173 L-39154 1160 L-36369 1154 L-35807 1141 L-31919 1141 L-29443 1134 L-28108 1134 L-27604 1128 L-27121 1121 L-24432 1121 L-20660 1121 L-18203 1121 L-17023 1121 L-16384 1115 L-14024 1102 L-13947 1095 L-12900 1089 L-12806 1075 L-12303 1075 L-11858 1075 L-11800 1075 L-11586 1075 L-8627 1062 L-5919 1056 L-5764 1049 L-2244 1043 L-1721 1030 L-753 1017 L-404 1010 L638 997 L1567 984 L1993 978 L3502 978 L4469 971 L4488 965 L6384 489 L6500 1" />
</svg>
