<svg xmlns="http://www.w3.org/2000/svg" version="1.1" viewBox="0 0 6500 1000">
	<path fill="none" stroke="gold" stroke-width="125" stroke-linecap="round" stroke-linejoin="round" d="M0 3304  L-728327 3304 L-725723 3304 L-724055 3304 L-705725 3304 L-705555 3303 L-698397 3303 L-698364 3303 L-684933 3303 L-682011 3303 L-668670 3303 L-664501 3302 L-663341 3301 L-662722 3301 L-660710 3300 L-656938 3300 L-656338 3300 L-656010 3299 L-655797 3299 L-655255 3299 L-654017 3298 L-652838 3297 L-649974 3295 L-649451 3294 L-644596 3294 L-641659 3294 L-641616 3293 L-641307 3293 L-641055 3293 L-638461 3292 L-634205 3292 L-634187 3292 L-632950 3292 L-631073 3292 L-629119 3292 L-628171 3292 L-627901 3292 L-627591 3291 L-627493 3291 L-626662 3291 L-624631 3291 L-624341 3290 L-622195 3290 L-622039 3289 L-618383 3288 L-618132 3288 L-618033 3288 L-617516 3289 L-615365 3289 L-614436 3290 L-612910 3291 L-611671 3291 L-610124 3291 L-607162 3290 L-606040 3290 L-605731 3290 L-604520 3290 L-601513 3291 L-601494 3291 L-601146 3291 L-600933 3291 L-600807 3289 L-600565 3288 L-600528 3288 L-600508 3288 L-600489 3288 L-600430 3287 L-600371 3287 L-600353 3287 L-599910 3286 L-598671 3286 L-597125 3286 L-593737 3286 L-588011 3285 L-587809 3285 L-586173 3285 L-584452 3285 L-583019 3285 L-582787 3285 L-582072 3285 L-575940 3284 L-575572 3284 L-575417 3284 L-574839 3284 L-574547 3283 L-573579 3283 L-573270 3283 L-572671 3282 L-571064 3282 L-570329 3282 L-570019 3283 L-569251 3283 L-567215 3282 L-566790 3282 L-565977 3282 L-558549 3282 L-558026 3281 L-557852 3281 L-557117 3281 L-555549 3280 L-555144 3280 L-552919 3280 L-551971 3280 L-551546 3280 L-551215 3280 L-550172 3280 L-548063 3279 L-547811 3279 L-547192 3279 L-546380 3279 L-544272 3278 L-544223 3278 L-542295 3278 L-541969 3277 L-541834 3277 L-541331 3277 L-539919 3277 L-539416 3276 L-538894 3276 L-535334 3275 L-534599 3275 L-532174 3275 L-530885 3274 L-530478 3274 L-527325 3274 L-527171 3274 L-527150 3274 L-526784 3274 L-525525 3274 L-524811 3275 L-523921 3275 L-523514 3275 L-522585 3275 L-521476 3274 L-521173 3275 L-514924 3275 L-513977 3276 L-512351 3276 L-511849 3276 L-508173 3276 L-507341 3276 L-503388 3276 L-501976 3276 L-499487 3276 L-498810 3275 L-498772 3275 L-497901 3275 L-494690 3275 L-491826 3275 L-490858 3275 L-489737 3275 L-489718 3274 L-488093 3274 L-487629 3274 L-487537 3273 L-481168 3273 L-480219 3273 L-477762 3273 L-476890 3273 L-475654 3273 L-473652 3272 L-473255 3272 L-471819 3272 L-469792 3272 L-469579 3271 L-468399 3271 L-466891 3271 L-466871 3271 L-464858 3271 L-463989 3271 L-463118 3270 L-462533 3270 L-461996 3270 L-461338 3270 L-460100 3269 L-459540 3269 L-458358 3269 L-457121 3269 L-457082 3269 L-456695 3269 L-456154 3268 L-455380 3268 L-454258 3268 L-452169 3268 L-451835 3267 L-451549 3267 L-450621 3267 L-450138 3267 L-449402 3267 L-445771 3266 L-444643 3266 L-444489 3266 L-443463 3266 L-439748 3266 L-438531 3265 L-436712 3265 L-433926 3265 L-433365 3265 L-429477 3265 L-427001 3265 L-425666 3265 L-425162 3264 L-424679 3264 L-421990 3264 L-418218 3264 L-415761 3264 L-414581 3264 L-413942 3264 L-411582 3264 L-411505 3264 L-410457 3264 L-410364 3263 L-409861 3263 L-409416 3263 L-409358 3263 L-409144 3263 L-406185 3263 L-403477 3263 L-403322 3263 L-399801 3263 L-399279 3262 L-398311 3262 L-397962 3262 L-396919 3262 L-395990 3261 L-395564 3261 L-394055 3261 L-393088 3261 L-393069 3261 L-391173 3250 L-391057 3240 L-391009 3229 L-390985 3218 L-387981 3218 L-385950 3218 L-384189 3218 L-383822 3218 L-383377 3217 L-383010 3217 L-382596 3217 L-380611 3217 L-380398 3217 L-380243 3217 L-378638 3217 L-377516 3217 L-376567 3216 L-375310 3216 L-373666 3216 L-372486 3216 L-365897 3216 L-365850 3215 L-365444 3215 L-364399 3215 L-364264 3215 L-362581 3215 L-362561 3215 L-361224 3214 L-359988 3214 L-359834 3214 L-359460 3214 L-359254 3214 L-358944 3213 L-358171 3213 L-355849 3213 L-355191 3213 L-353063 3213 L-351341 3213 L-351148 3212 L-348594 3212 L-348318 3212 L-348130 3212 L-347297 3211 L-346525 3211 L-345827 3211 L-340826 3211 L-340450 3211 L-336197 3211 L-335710 3225 L-335691 3225 L-335612 3225 L-335537 3225 L-335517 3210 L-334704 3210 L-333950 3210 L-332731 3209 L-331299 3209 L-331203 3209 L-331029 3209 L-330674 3209 L-329365 3209 L-327508 3209 L-325805 3208 L-325302 3208 L-325037 3208 L-324644 3208 L-324510 3208 L-323600 3208 L-323224 3208 L-322295 3208 L-321956 3207 L-321916 3207 L-321879 3207 L-319963 3207 L-319790 3207 L-318261 3207 L-317933 3207 L-317817 3207 L-317409 3207 L-317061 3206 L-315418 3206 L-314867 3206 L-314623 3206 L-314082 3206 L-313251 3205 L-312709 3205 L-311175 3205 L-311082 3205 L-311045 3205 L-310910 3205 L-310522 3204 L-309497 3204 L-307621 3204 L-307525 3204 L-306924 3209 L-306557 3213 L-306073 3218 L-306035 3223 L-305261 3224 L-305203 3223 L-305029 3223 L-304835 3223 L-303230 3223 L-303210 3223 L-303055 3223 L-302939 3223 L-301760 3223 L-301605 3224 L-300938 3224 L-298490 3235 L-295975 3247 L-293305 3259 L-285606 3271 L-279938 3271 L-277724 3270 L-277700 3270 L-276727 3273 L-276707 3273 L-275843 3273 L-273103 3273 L-267304 3270 L-267151 3270 L-264365 3269 L-250757 3269 L-250011 3269 L-245600 3269 L-229254 3269 L-229022 3268 L-228485 3268 L-220025 3268 L-211320 3268 L-211107 3268 L-209135 3268 L-206349 3268 L-201861 3268 L-201706 3268 L-201537 3268 L-201397 3267 L-201106 3267 L-201067 3267 L-200797 3267 L-200625 3267 L-200215 3267 L-199094 3266 L-197914 3266 L-196637 3266 L-193773 3266 L-190853 3266 L-188861 3266 L-187313 3265 L-184275 3265 L-174951 3265 L-174427 3265 L-168703 3265 L-167196 3265 L-166381 3265 L-164698 3265 L-163977 3264 L-163808 3264 L-162763 3264 L-160696 3264 L-159334 3264 L-154891 3264 L-154793 3264 L-154755 3263 L-154736 3263 L-153903 3263 L-153826 3263 L-151253 3263 L-148004 3263 L-147849 3262 L-146901 3262 L-145160 3262 L-144444 3263 L-140904 3264 L-134326 3264 L-132909 3266 L-132888 3265 L-131938 3265 L-128463 3265 L-127710 3265 L-127148 3265 L-126366 3265 L-118862 3264 L-117264 3264 L-115690 3264 L-112504 3264 L-108171 3264 L-99602 3264 L-90855 3264 L-87781 3264 L-84515 3263 L-83969 3263 L-76832 3263 L-71164 3263 L-57100 3263 L-51088 3263 L-46382 3263 L-42379 3263 L-37271 3263 L-27557 3262 L-11987 3262 L-8904 3262 L-8602 3197 L-8582 3118 L-8563 3028 L-8544 2927 L-8524 2881 L-8505 2843 L-8486 2807 L-8458 2772 L-8438 2738 L-8410 2702 L-8374 2662 L-8361 2628 L-8348 2599 L-8329 2575 L-8311 2557 L-8291 2539 L-8272 2521 L-8253 2503 L-8233 2484 L-8212 2465 L-8195 2447 L-8176 2428 L-8156 2411 L-8136 2393 L-8118 2374 L-8099 2354 L-8079 2334 L-8059 2314 L-8040 2295 L-8022 2277 L-8000 2260 L-7976 2242 L-7961 2225 L-7944 2209 L-7924 2192 L-7905 2176 L-7886 2158 L-7867 2140 L-7847 2123 L-7826 2107 L-7808 2091 L-7789 2077 L-7769 2063 L-7748 2050 L-7731 2038 L-7712 2027 L-7692 2016 L-7673 2006 L-7654 1996 L-7635 1987 L-7615 1979 L-7595 1971 L-7576 1964 L-7557 1956 L-7530 1946 L-7509 1936 L-7481 1925 L-7447 1913 L-7433 1903 L-7420 1894 L-7401 1886 L-7382 1879 L-7362 1871 L-7344 1863 L-7325 1855 L-7305 1846 L-7284 1838 L-7267 1831 L-7248 1824 L-7228 1816 L-7208 1807 L-7189 1797 L-7171 1786 L-7150 1775 L-7131 1763 L-7112 1752 L-7093 1740 L-7072 1727 L-7048 1713 L-7033 1699 L-7016 1686 L-6996 1673 L-6977 1660 L-6957 1647 L-6938 1632 L-6918 1619 L-6898 1605 L-6880 1592 L-6861 1579 L-6841 1567 L-6820 1555 L-6803 1544 L-6784 1533 L-6764 1522 L-6745 1513 L-6725 1503 L-6706 1494 L-6686 1485 L-6667 1475 L-6648 1465 L-6629 1456 L-6600 1446 L-6580 1438 L-6553 1429 L-6515 1418 L-6500 1408 L-6488 1398 L-6471 1389 L-6454 1383 L-6434 1377 L-6415 1371 L-6396 1366 L-6376 1360 L-6355 1355 L-6338 1349 L-6319 1342 L-6299 1336 L-6279 1329 L-6261 1322 L-6242 1314 L-6222 1306 L-6202 1297 L-6183 1289 L-6165 1280 L-6143 1272 L-6119 1264 L-6104 1255 L-6087 1247 L-6067 1238 L-6048 1230 L-6029 1221 L-6010 1212 L-5990 1203 L-5969 1194 L-5951 1185 L-5932 1178 L-5912 1170 L-5892 1162 L-5874 1155 L-5855 1148 L-5835 1141 L-5816 1134 L-5797 1126 L-5778 1120 L-5758 1113 L-5738 1106 L-5719 1100 L-5700 1093 L-5672 1086 L-5652 1080 L-5624 1072 L-5588 1061 L-5574 1051 L-5560 1042 L-5543 1034 L-5525 1029 L-5505 1023 L-5487 1017 L-5467 1010 L-5447 1002 L-5426 994 L-5408 986 L-5391 977 L-5370 968 L-5350 958 L-5332 948 L-5313 937 L-5293 926 L-5273 916 L-5255 906 L-5236 898 L-5215 892 L-5190 887 L-5175 882 L-5158 877 L-5139 871 L-5119 865 L-5100 860 L-5081 854 L-5061 849 L-5040 845 L-5023 841 L-5004 836 L-4983 829 L-4962 822 L-4945 815 L-4926 810 L-4906 805 L-4887 802 L-4868 799 L-4849 796 L-4829 792 L-4809 788 L-4790 784 L-4772 781 L-4744 777 L-4723 773 L-4695 770 L-4661 765 L-4647 761 L-4634 757 L-4615 754 L-4596 751 L-4577 749 L-4558 745 L-4539 743 L-4519 740 L-4498 738 L-4481 735 L-4462 732 L-4441 729 L-4421 725 L-4403 722 L-4385 719 L-4365 716 L-4344 714 L-4326 711 L-4307 708 L-4286 705 L-4261 703 L-4247 700 L-4230 698 L-4210 695 L-4191 693 L-4171 690 L-4152 687 L-4132 683 L-4112 680 L-4094 678 L-4075 675 L-4055 672 L-4034 670 L-4017 667 L-3998 665 L-3978 662 L-3959 660 L-3939 658 L-3921 656 L-3900 654 L-3881 652 L-3862 651 L-3843 654 L-3814 656 L-3795 659 L-3767 662 L-3729 659 L-3714 657 L-3701 655 L-3684 654 L-3668 653 L-3648 651 L-3629 649 L-3610 648 L-3590 646 L-3569 645 L-3552 643 L-3534 642 L-3513 640 L-3493 639 L-3475 637 L-3456 635 L-3436 633 L-3416 632 L-3398 630 L-3379 629 L-3357 627 L-3333 626 L-3318 624 L-3301 623 L-3281 621 L-3262 619 L-3243 618 L-3224 616 L-3204 614 L-3183 611 L-3165 609 L-3147 607 L-3126 605 L-3105 603 L-3088 601 L-3069 599 L-3049 597 L-3030 595 L-3011 593 L-2992 591 L-2972 588 L-2952 586 L-2933 585 L-2914 583 L-2887 582 L-2866 580 L-2838 578 L-2803 575 L-2790 573 L-2777 572 L-2758 570 L-2739 568 L-2719 567 L-2701 565 L-2681 563 L-2662 561 L-2641 560 L-2624 558 L-2605 556 L-2584 554 L-2564 552 L-2546 549 L-2527 547 L-2508 544 L-2487 541 L-2469 539 L-2450 536 L-2429 534 L-2404 531 L-2389 529 L-2372 526 L-2353 524 L-2333 521 L-2314 519 L-2295 516 L-2275 514 L-2254 511 L-2237 509 L-2218 507 L-2197 504 L-2177 502 L-2160 501 L-2141 499 L-2121 497 L-2102 496 L-2082 494 L-2063 493 L-2044 492 L-2024 490 L-2005 489 L-1986 488 L-1958 487 L-1938 485 L-1910 484 L-1874 481 L-1861 478 L-1847 476 L-1829 474 L-1811 472 L-1791 471 L-1772 469 L-1753 467 L-1733 466 L-1712 464 L-1695 462 L-1676 460 L-1656 459 L-1636 457 L-1618 454 L-1599 452 L-1579 450 L-1558 448 L-1541 446 L-1522 445 L-1500 443 L-1475 442 L-1461 440 L-1444 439 L-1424 437 L-1405 435 L-1385 433 L-1367 431 L-1347 428 L-1325 425 L-1308 422 L-1289 420 L-1269 418 L-1248 416 L-1231 414 L-1212 413 L-1192 412 L-1173 411 L-1153 410 L-1135 408 L-1115 407 L-1095 406 L-1076 405 L-1057 403 L-1030 402 L-1009 401 L-981 400 L-947 399 L-933 397 L-920 396 L-901 395 L-882 394 L-863 393 L-844 392 L-825 391 L-805 391 L-784 390 L-767 389 L-748 388 L-728 387 L-708 386 L-689 385 L-671 384 L-650 383 L-630 382 L-612 381 L-593 381 L-572 380 L-547 379 L-533 378 L-515 377 L-496 376 L-477 375 L-457 374 L-438 373 L-418 372 L-398 370 L-380 368 L-361 366 L-341 364 L-320 362 L-302 361 L-283 360 L-264 358 L-245 357 L-225 356 L-206 354 L-186 353 L-167 352 L-148 351 L-129 350 L-100 349 L-52 348 L-16 347 L-1 346 L11 345 L28 344 L45 344 L65 343 L84 343 L103 342 L123 341 L144 340 L161 340 L180 339 L200 338 L220 338 L238 337 L257 336 L277 335 L297 334 L315 333 L334 332 L356 330 L380 329 L395 327 L412 326 L432 324 L451 323 L470 321 L489 320 L509 319 L530 317 L548 316 L567 314 L587 313 L607 312 L625 311 L644 310 L664 309 L683 308 L703 307 L721 306 L741 305 L761 304 L780 303 L799 302 L827 301 L847 300 L875 298 L912 296 L927 294 L939 292 L957 290 L974 289 L994 288 L1012 287 L1032 286 L1052 285 L1073 285 L1090 283 L1108 282 L1129 281 L1149 279 L1167 277 L1186 275 L1206 273 L1227 271 L1244 270 L1263 268 L1285 267 L1309 265 L1325 264 L1342 262 L1360 261 L1381 260 L1399 259 L1418 257 L1438 255 L1460 254 L1476 252 L1496 251 L1516 250 L1537 248 L1554 247 L1573 246 L1592 245 L1612 244 L1631 243 L1650 242 L1670 241 L1690 240 L1709 239 L1728 238 L1755 997 L1776 996 L1804 995 L1839 993 L1853 231 L1867 230 L1885 228 L1903 228 L1922 227 L1941 226 L1960 225 L1980 224 L2002 222 L2018 221 L2037 219 L2058 218 L2078 216 L2096 214 L2115 212 L2134 210 L2155 208 L2173 207 L2192 206 L2213 204 L2238 203 L2253 201 L2283 199 L2322 196 L2346 194 L2375 192 L2391 189 L2405 188 L2424 186 L2445 185 L2465 184 L2482 183 L2501 182 L2521 181 L2540 180 L2560 180 L2579 179 L2598 178 L2619 177 L2637 176 L2656 175 L2684 174 L2704 173 L2732 172 L2767 171 L2781 170 L2813 169 L2831 168 L2851 167 L2870 166 L2889 166 L2909 165 L2930 164 L2947 163 L2965 161 L2986 159 L3007 155 L3024 151 L3043 148 L3063 145 L3083 143 L3101 141 L3120 139 L3142 138 L3167 137 L3182 135 L3199 134 L3218 132 L3238 131 L3256 130 L3276 128 L3295 127 L3317 125 L3333 123 L3353 122 L3373 121 L3394 120 L3411 119 L3430 118 L3450 117 L3469 116 L3488 115 L3508 114 L3527 113 L3547 112 L3566 111 L3585 110 L3612 109 L3633 108 L3703 106 L3731 104 L3746 102 L3760 99 L3780 98 L3798 97 L3817 96 L3837 94 L3858 93 L3875 92 L3894 91 L3915 90 L3935 90 L3953 89 L3972 87 L3992 86 L4012 84 L4030 83 L4049 82 L4070 81 L4095 80 L4110 79 L4128 78 L4146 76 L4166 75 L4185 74 L4204 72 L4224 71 L4245 70 L4262 69 L4281 69 L4302 68 L4323 67 L4339 66 L4398 64 L4417 63 L4436 63 L4456 62 L4476 61 L4495 60 L4513 60 L4541 59 L4561 58 L4589 58 L4626 57 L4640 56 L4653 55 L4671 55 L4688 54 L4708 54 L4727 53 L4746 53 L4766 53 L4787 52 L4804 52 L4823 51 L4843 51 L4864 50 L4882 49 L4900 49 L4920 48 L4941 47 L4959 46 L4977 45 L4999 45 L5024 44 L5038 44 L5055 43 L5075 42 L5095 41 L5113 41 L5133 40 L5152 38 L5174 37 L5191 36 L5210 36 L5230 35 L5251 35 L5268 34 L5287 34 L5307 33 L5326 33 L5346 32 L5364 32 L5384 31 L5404 31 L5423 31 L5442 30 L5469 30 L5490 29 L5518 29 L5553 28 L5567 27 L5580 27 L5598 26 L5617 26 L5637 25 L5655 25 L5694 24 L5715 24 L5732 23 L5751 23 L5771 22 L5791 21 L5810 20 L5828 19 L5848 19 L5868 18 L5887 17 L5906 17 L5927 16 L5951 16 L5966 15 L5983 15 L6003 14 L6022 13 L6042 13 L6061 12 L6081 11 L6101 11 L6119 10 L6138 10 L6159 9 L6179 8 L6196 8 L6215 7 L6236 7 L6254 6 L6274 6 L6293 5 L6313 5 L6332 4 L6351 4 L6370 3 L6399 3 L6447 2 L6484 2 L6500 1" />
</svg>
