<svg xmlns="http://www.w3.org/2000/svg" version="1.1" viewBox="0 0 6500 1000">
	<path fill="none" stroke="gold" stroke-width="125" stroke-linecap="round" stroke-linejoin="round" d="M0 2065  L-721119 2065 L-718514 2064 L-716846 2064 L-698517 2064 L-698347 2064 L-691189 2064 L-691156 2064 L-677725 2064 L-674803 2064 L-661462 2063 L-657293 2063 L-656133 2063 L-655514 2062 L-653502 2062 L-649730 2062 L-649130 2061 L-648802 2061 L-648589 2061 L-648047 2061 L-646809 2060 L-645630 2059 L-642766 2058 L-642243 2057 L-637388 2057 L-634451 2057 L-634408 2057 L-634099 2057 L-633847 2056 L-631252 2056 L-626997 2056 L-626979 2056 L-625742 2056 L-623865 2056 L-621911 2056 L-620963 2056 L-620693 2056 L-620383 2056 L-620285 2055 L-619454 2055 L-617423 2056 L-617133 2055 L-614987 2054 L-614831 2054 L-611175 2053 L-610924 2053 L-610825 2053 L-610308 2054 L-608157 2054 L-607228 2055 L-605702 2055 L-604463 2055 L-602916 2055 L-599954 2055 L-598832 2055 L-598523 2054 L-597312 2054 L-594305 2055 L-594286 2055 L-593938 2055 L-593725 2055 L-593599 2054 L-593357 2053 L-593320 2053 L-593300 2053 L-593281 2053 L-593222 2053 L-593163 2052 L-593145 2052 L-592702 2052 L-591463 2052 L-589917 2052 L-586529 2051 L-580803 2051 L-580601 2051 L-578965 2051 L-577243 2051 L-575811 2051 L-575579 2051 L-574864 2051 L-568732 2051 L-568364 2050 L-568209 2050 L-567631 2050 L-567338 2050 L-566371 2050 L-566062 2049 L-565462 2049 L-563856 2049 L-563121 2049 L-562811 2049 L-562043 2049 L-560007 2049 L-559582 2049 L-558769 2049 L-551340 2049 L-550817 2048 L-550644 2048 L-549909 2048 L-548341 2048 L-547936 2048 L-545711 2047 L-544763 2047 L-544338 2047 L-544007 2047 L-542964 2047 L-540855 2047 L-540603 2047 L-539984 2047 L-539172 2046 L-537064 2046 L-537015 2046 L-535087 2046 L-534761 2046 L-534626 2045 L-534123 2045 L-532710 2045 L-532207 2045 L-531686 2044 L-528126 2044 L-527391 2044 L-524966 2044 L-523677 2043 L-523270 2043 L-520117 2043 L-519962 2043 L-519942 2043 L-519576 2043 L-518317 2044 L-517602 2044 L-516712 2044 L-516305 2044 L-515377 2044 L-514268 2044 L-513965 2044 L-507716 2044 L-506769 2044 L-505143 2045 L-504641 2045 L-500965 2045 L-500133 2045 L-496180 2045 L-494768 2045 L-492279 2044 L-491602 2044 L-491564 2044 L-490693 2044 L-487481 2044 L-484618 2044 L-483650 2044 L-482529 2044 L-482510 2043 L-480885 2043 L-480421 2043 L-480329 2043 L-473960 2043 L-473011 2043 L-470554 2042 L-469682 2042 L-468446 2042 L-466444 2042 L-466047 2042 L-464611 2042 L-462584 2042 L-462371 2041 L-461191 2041 L-459683 2041 L-459662 2041 L-457650 2041 L-456781 2041 L-455910 2041 L-455325 2040 L-454788 2040 L-454130 2040 L-452892 2040 L-452331 2040 L-451150 2040 L-449913 2040 L-449874 2039 L-449487 2039 L-448946 2039 L-448172 2039 L-447050 2039 L-444960 2039 L-444627 2039 L-444341 2038 L-443413 2038 L-442930 2038 L-442194 2038 L-438563 2038 L-437435 2038 L-437281 2038 L-436255 2037 L-432540 2037 L-431323 2037 L-429504 2037 L-426718 2037 L-426157 2037 L-422269 2037 L-419792 2037 L-418457 2037 L-417954 2036 L-417471 2036 L-414782 2036 L-411010 2036 L-408553 2036 L-407373 2036 L-406734 2036 L-404374 2036 L-404297 2036 L-403249 2036 L-403156 2036 L-402653 2036 L-402207 2036 L-402150 2036 L-401936 2036 L-398977 2035 L-396269 2035 L-396114 2035 L-392593 2035 L-392070 2035 L-391103 2035 L-390754 2035 L-389710 2034 L-388782 2034 L-388356 2034 L-386847 2034 L-385880 2034 L-385861 2034 L-383965 2026 L-383849 2019 L-383801 2011 L-383777 2004 L-380773 2004 L-378742 2004 L-376981 2004 L-376614 2003 L-376169 2003 L-375802 2003 L-375388 2003 L-373403 2003 L-373190 2003 L-373035 2003 L-371429 2003 L-370308 2003 L-369359 2003 L-368102 2002 L-366458 2002 L-365278 2002 L-358688 2002 L-358642 2002 L-358236 2002 L-357191 2002 L-357056 2001 L-355373 2001 L-355353 2001 L-354016 2001 L-352780 2001 L-352626 2001 L-352252 2001 L-352046 2000 L-351736 2000 L-350962 2000 L-348641 2000 L-347983 2000 L-345855 2000 L-344133 2000 L-343939 2000 L-341386 1999 L-341110 1999 L-340922 1999 L-340089 1999 L-339317 1999 L-338619 1999 L-333618 1999 L-333242 1999 L-328989 1998 L-328502 2008 L-328483 2008 L-328404 2008 L-328329 2008 L-328309 1998 L-327496 1998 L-326742 1998 L-325523 1998 L-324091 1998 L-323995 1997 L-323821 1997 L-323466 1997 L-322157 1997 L-320300 1997 L-318597 1997 L-318094 1997 L-317829 1997 L-317436 1997 L-317302 1996 L-316392 1996 L-316016 1996 L-315087 1996 L-314748 1996 L-314708 1996 L-314671 1996 L-312755 1996 L-312581 1996 L-311053 1996 L-310724 1996 L-310608 1996 L-310201 1996 L-309853 1995 L-308209 1995 L-307659 1995 L-307415 1995 L-306874 1995 L-306043 1995 L-305501 1995 L-303967 1994 L-303874 1994 L-303837 1994 L-303701 1994 L-303314 1994 L-302289 1994 L-300413 1994 L-300317 1994 L-299716 1997 L-299349 2000 L-298865 2004 L-298827 2007 L-298053 2008 L-297995 2007 L-297821 2007 L-297627 2007 L-296022 2007 L-296002 2007 L-295847 2007 L-295731 2007 L-294552 2007 L-294397 2008 L-293730 2008 L-291282 2016 L-288767 2024 L-286097 2033 L-278398 2041 L-272730 2041 L-270516 2041 L-270492 2041 L-269519 2043 L-269499 2043 L-268635 2042 L-265895 2042 L-260096 2040 L-259943 2040 L-257157 2040 L-243549 2040 L-242803 2040 L-238392 2039 L-222046 2039 L-221814 2039 L-221277 2039 L-212817 2039 L-204111 2039 L-203899 2039 L-201927 2039 L-199140 2039 L-194653 2039 L-194498 2039 L-194329 2039 L-194189 2039 L-193898 2038 L-193859 2038 L-193588 2038 L-193417 2038 L-193007 2038 L-191886 2038 L-190706 2038 L-189429 2038 L-186565 2038 L-183645 2037 L-181653 2037 L-180105 2037 L-177067 2037 L-167743 2037 L-167219 2037 L-161495 2037 L-159988 2037 L-159173 2037 L-157490 2037 L-156769 2036 L-156600 2036 L-155555 2036 L-153488 2036 L-152126 2036 L-147683 2036 L-147585 2036 L-147547 2036 L-147528 2036 L-146695 2036 L-146618 2035 L-144045 2035 L-140796 2035 L-140641 2035 L-139693 2035 L-137952 2035 L-137236 2035 L-133695 2036 L-127118 2036 L-125701 2037 L-125680 2037 L-124730 2037 L-121255 2037 L-120502 2037 L-119940 2037 L-119158 2037 L-111654 2036 L-110056 2036 L-108482 2036 L-105296 2036 L-100963 2036 L-92394 2036 L-83647 2036 L-80573 2036 L-77307 2036 L-76761 2036 L-69624 2035 L-63956 2035 L-49892 2035 L-43880 2036 L-39174 2035 L-35171 2035 L-30063 2035 L-20349 2035 L-4779 2035 L-1696 2035 L-1394 1989 L-1374 1933 L-1355 1869 L-1335 1798 L-1316 1765 L-1297 1738 L-1278 1713 L-1250 1688 L-1229 1664 L-1202 1638 L-1166 1610 L-1153 1586 L-1140 1566 L-1121 1549 L-1102 1536 L-1082 1524 L-1064 1511 L-1045 1498 L-1025 1485 L-1004 1471 L-987 1458 L-968 1445 L-948 1433 L-928 1420 L-910 1407 L-891 1393 L-871 1378 L-851 1364 L-832 1351 L-813 1338 L-792 1326 L-767 1313 L-753 1302 L-736 1290 L-716 1278 L-697 1267 L-678 1254 L-659 1241 L-639 1229 L-618 1218 L-600 1207 L-581 1196 L-561 1187 L-540 1177 L-523 1169 L-504 1161 L-484 1154 L-465 1146 L-445 1139 L-427 1133 L-407 1127 L-387 1122 L-368 1116 L-349 1111 L-322 1104 L-301 1097 L-273 1089 L-239 1081 L-225 1073 L-212 1067 L-193 1061 L-174 1057 L-154 1051 L-136 1045 L-116 1039 L-97 1033 L-76 1028 L-59 1023 L-40 1017 L-20 1012 L0 1006 L18 998 L37 991 L57 983 L76 975 L95 967 L114 959 L135 949 L159 940 L174 930 L191 920 L211 911 L230 902 L250 892 L269 882 L289 873 L309 863 L327 854 L346 845 L366 836 L387 828 L405 819 L424 812 L444 804 L462 798 L482 791 L501 784 L521 778 L540 771 L559 764 L578 758 L607 751 L627 745 L655 738 L692 731 L707 723 L719 717 L736 710 L753 706 L773 701 L792 697 L811 694 L831 690 L852 686 L869 682 L888 677 L908 673 L928 668 L946 663 L965 657 L985 651 L1005 645 L1024 639 L1042 633 L1064 628 L1088 621 L1103 616 L1120 610 L1140 604 L1159 598 L1179 592 L1197 585 L1217 579 L1238 572 L1256 566 L1275 561 L1295 555 L1315 550 L1333 545 L1352 540 L1372 535 L1391 530 L1411 524 L1430 520 L1449 515 L1469 510 L1488 506 L1507 501 L1535 496 L1555 491 L1583 486 L1619 478 L1634 471 L1647 465 L1664 459 L1682 455 L1702 451 L1721 447 L1740 442 L1760 437 L1781 431 L1800 425 L1817 419 L1837 412 L1857 405 L1875 398 L1894 390 L1914 383 L1935 375 L1952 369 L1971 363 L1992 359 L2017 355 L2032 351 L2050 348 L2069 344 L2088 340 L2107 336 L2126 332 L2146 328 L2167 325 L2184 322 L2204 319 L2224 314 L2245 309 L2262 304 L2281 301 L2301 297 L2320 295 L2339 293 L2358 291 L2378 288 L2398 285 L2417 282 L2435 280 L2463 277 L2484 275 L2512 272 L2546 269 L2560 266 L2573 263 L2592 261 L2611 259 L2630 257 L2649 255 L2669 253 L2688 251 L2709 250 L2726 248 L2745 245 L2766 243 L2786 241 L2804 238 L2822 236 L2842 234 L2863 232 L2881 231 L2900 229 L2921 227 L2946 225 L2960 223 L2978 221 L2997 220 L3016 218 L3036 216 L3055 213 L3075 211 L3096 209 L3113 207 L3132 205 L3152 203 L3173 202 L3190 200 L3209 198 L3229 196 L3248 195 L3268 193 L3287 192 L3307 190 L3326 189 L3345 188 L3364 190 L3393 192 L3413 194 L3440 196 L3478 194 L3493 193 L3506 191 L3523 190 L3539 189 L3559 188 L3578 187 L3597 186 L3617 185 L3638 184 L3655 183 L3674 182 L3694 181 L3714 179 L3732 178 L3751 177 L3771 176 L3791 175 L3809 173 L3828 172 L3850 172 L3874 171 L3889 169 L3906 168 L3926 167 L3945 166 L3964 165 L3983 163 L4003 162 L4024 160 L4042 159 L4061 157 L4081 156 L4102 154 L4119 153 L4138 151 L4158 150 L4177 149 L4196 147 L4215 146 L4235 144 L4255 143 L4274 142 L4293 140 L4320 139 L4341 138 L4369 136 L4404 135 L4417 133 L4431 132 L4450 131 L4468 130 L4488 129 L4506 127 L4526 126 L4546 125 L4567 124 L4584 122 L4602 121 L4623 120 L4643 118 L4661 116 L4680 115 L4700 113 L4720 111 L4738 109 L4757 107 L4778 106 L4803 104 L4818 102 L4835 100 L4854 98 L4874 97 L4893 95 L4912 93 L4932 91 L4953 89 L4970 88 L4989 86 L5010 85 L5031 83 L5048 82 L5066 81 L5086 80 L5105 78 L5125 77 L5144 76 L5164 75 L5183 75 L5202 74 L5221 73 L5249 72 L5269 71 L5297 70 L5333 68 L5347 66 L5360 65 L5378 63 L5396 62 L5416 61 L5435 59 L5454 58 L5474 57 L5495 56 L5512 55 L5531 53 L5551 52 L5571 51 L5590 49 L5608 48 L5628 46 L5649 45 L5667 44 L5685 42 L5707 41 L5732 40 L5746 39 L5764 38 L5783 37 L5802 35 L5822 34 L5841 32 L5860 30 L5882 28 L5899 27 L5918 25 L5938 23 L5959 22 L5976 21 L5995 20 L6015 19 L6034 18 L6054 18 L6072 17 L6092 16 L6112 15 L6131 14 L6150 13 L6177 12 L6198 11 L6226 11 L6260 10 L6274 9 L6287 8 L6306 7 L6325 7 L6345 6 L6363 5 L6383 5 L6402 4 L6423 4 L6440 3 L6459 2 L6479 1 L6500 1" />
</svg>
