<svg xmlns="http://www.w3.org/2000/svg" version="1.1" viewBox="0 0 6500 1000">
	<path fill="none" stroke="gold" stroke-width="125" stroke-linecap="round" stroke-linejoin="round" d="M0 1405  L-720073 1405 L-717469 1405 L-715801 1405 L-697472 1405 L-697302 1405 L-690144 1405 L-690111 1405 L-676680 1404 L-673758 1405 L-660417 1404 L-656248 1404 L-655088 1404 L-654469 1403 L-652457 1403 L-648685 1403 L-648085 1403 L-647756 1403 L-647543 1403 L-647002 1402 L-645764 1402 L-644585 1401 L-641720 1401 L-641198 1400 L-636343 1400 L-633405 1400 L-633362 1400 L-633054 1400 L-632802 1399 L-630207 1399 L-625952 1399 L-625934 1399 L-624697 1399 L-622820 1399 L-620866 1399 L-619918 1399 L-619647 1399 L-619337 1399 L-619239 1399 L-618409 1399 L-616378 1399 L-616088 1398 L-613941 1398 L-613786 1397 L-610130 1397 L-609879 1397 L-609780 1397 L-609263 1397 L-607112 1398 L-606183 1398 L-604657 1398 L-603417 1398 L-601871 1398 L-598909 1398 L-597787 1398 L-597478 1398 L-596267 1398 L-593260 1399 L-593241 1399 L-592893 1398 L-592680 1398 L-592554 1397 L-592312 1397 L-592274 1397 L-592255 1397 L-592235 1397 L-592176 1397 L-592118 1397 L-592100 1396 L-591657 1396 L-590417 1396 L-588872 1396 L-585484 1396 L-579758 1396 L-579556 1396 L-577920 1396 L-576198 1396 L-574766 1396 L-574534 1395 L-573819 1395 L-567686 1395 L-567319 1395 L-567164 1395 L-566586 1395 L-566293 1395 L-565326 1395 L-565016 1394 L-564417 1394 L-562811 1394 L-562076 1394 L-561766 1394 L-560998 1394 L-558962 1394 L-558536 1394 L-557724 1394 L-550295 1394 L-549772 1394 L-549599 1394 L-548864 1393 L-547296 1393 L-546890 1393 L-544665 1393 L-543717 1393 L-543292 1393 L-542962 1393 L-541918 1393 L-539810 1393 L-539558 1393 L-538939 1392 L-538126 1392 L-536019 1392 L-535970 1392 L-534042 1392 L-533716 1392 L-533581 1392 L-533078 1392 L-531665 1391 L-531162 1391 L-530641 1391 L-527081 1391 L-526346 1390 L-523921 1390 L-522632 1390 L-522225 1390 L-519072 1390 L-518917 1390 L-518897 1390 L-518530 1390 L-517272 1390 L-516557 1390 L-515667 1390 L-515260 1390 L-514332 1390 L-513223 1390 L-512920 1391 L-506671 1391 L-505724 1391 L-504098 1391 L-503596 1391 L-499920 1391 L-499088 1391 L-495135 1391 L-493723 1391 L-491234 1391 L-490557 1391 L-490518 1391 L-489647 1391 L-486436 1391 L-483573 1391 L-482605 1391 L-481484 1390 L-481465 1390 L-479840 1390 L-479376 1390 L-479284 1390 L-472914 1390 L-471966 1390 L-469509 1390 L-468637 1389 L-467401 1389 L-465399 1389 L-465002 1389 L-463565 1389 L-461539 1389 L-461326 1389 L-460146 1389 L-458638 1389 L-458617 1389 L-456605 1389 L-455736 1388 L-454865 1388 L-454280 1388 L-453743 1388 L-453085 1388 L-451847 1388 L-451286 1388 L-450105 1388 L-448868 1388 L-448829 1388 L-448442 1387 L-447900 1387 L-447127 1387 L-446005 1387 L-443915 1387 L-443582 1387 L-443296 1387 L-442368 1387 L-441884 1387 L-441149 1386 L-437518 1386 L-436390 1386 L-436235 1386 L-435209 1386 L-431495 1386 L-430277 1386 L-428459 1386 L-425673 1386 L-425112 1386 L-421224 1386 L-418747 1385 L-417412 1385 L-416909 1385 L-416426 1385 L-413737 1385 L-409965 1385 L-407508 1385 L-406328 1385 L-405689 1385 L-403329 1385 L-403252 1385 L-402204 1385 L-402111 1385 L-401608 1385 L-401162 1385 L-401105 1385 L-400891 1385 L-397931 1385 L-395224 1385 L-395069 1385 L-391548 1384 L-391025 1384 L-390058 1384 L-389709 1384 L-388665 1384 L-387737 1384 L-387311 1384 L-385802 1384 L-384835 1384 L-384816 1384 L-382920 1378 L-382804 1373 L-382756 1368 L-382732 1363 L-379728 1363 L-377697 1362 L-375936 1362 L-375569 1362 L-375123 1362 L-374757 1362 L-374343 1362 L-372358 1362 L-372144 1362 L-371990 1362 L-370384 1362 L-369263 1362 L-368314 1362 L-367057 1361 L-365412 1361 L-364233 1361 L-357643 1361 L-357597 1361 L-357191 1361 L-356146 1361 L-356010 1361 L-354328 1361 L-354308 1361 L-352971 1361 L-351735 1360 L-351581 1360 L-351207 1360 L-351001 1360 L-350691 1360 L-349917 1360 L-347596 1360 L-346938 1360 L-344810 1360 L-343088 1360 L-342894 1360 L-340341 1359 L-340065 1359 L-339876 1359 L-339044 1359 L-338271 1359 L-337573 1359 L-332573 1359 L-332197 1359 L-327944 1359 L-327457 1366 L-327438 1366 L-327359 1366 L-327283 1366 L-327264 1358 L-326451 1358 L-325697 1358 L-324478 1358 L-323046 1358 L-322950 1358 L-322775 1358 L-322421 1358 L-321112 1358 L-319254 1358 L-317552 1358 L-317049 1358 L-316784 1358 L-316391 1357 L-316257 1357 L-315347 1357 L-314970 1357 L-314042 1357 L-313703 1357 L-313663 1357 L-313625 1357 L-311710 1357 L-311536 1357 L-310008 1357 L-309679 1357 L-309563 1357 L-309156 1357 L-308808 1357 L-307164 1357 L-306613 1356 L-306370 1356 L-305829 1356 L-304998 1356 L-304456 1356 L-302921 1356 L-302829 1356 L-302792 1356 L-302656 1356 L-302269 1356 L-301244 1356 L-299368 1356 L-299271 1355 L-298671 1358 L-298304 1360 L-297820 1363 L-297781 1365 L-297008 1365 L-296950 1365 L-296776 1365 L-296582 1365 L-294977 1365 L-294957 1365 L-294802 1365 L-294686 1365 L-293507 1365 L-293352 1365 L-292685 1365 L-290237 1371 L-287722 1377 L-285052 1383 L-277353 1388 L-271685 1388 L-269471 1388 L-269447 1388 L-268473 1390 L-268453 1390 L-267590 1390 L-264850 1390 L-259051 1388 L-258898 1388 L-256112 1388 L-242503 1388 L-241757 1388 L-237347 1388 L-221001 1387 L-220768 1387 L-220231 1387 L-211772 1387 L-203066 1387 L-202854 1387 L-200881 1387 L-198095 1387 L-193608 1387 L-193453 1387 L-193284 1387 L-193144 1387 L-192853 1387 L-192814 1387 L-192543 1387 L-192372 1387 L-191962 1386 L-190841 1386 L-189661 1386 L-188384 1386 L-185520 1386 L-182600 1386 L-180608 1386 L-179060 1386 L-176022 1386 L-166698 1386 L-166174 1386 L-160450 1386 L-158943 1386 L-158128 1386 L-156445 1385 L-155724 1385 L-155555 1385 L-154510 1385 L-152443 1385 L-151081 1385 L-146637 1385 L-146540 1385 L-146502 1385 L-146483 1385 L-145650 1385 L-145572 1385 L-143000 1385 L-139751 1384 L-139596 1384 L-138647 1384 L-136906 1384 L-136191 1385 L-132650 1385 L-126073 1385 L-124656 1386 L-124635 1386 L-123684 1386 L-120210 1386 L-119457 1386 L-118895 1386 L-118113 1385 L-110609 1385 L-109011 1385 L-107437 1385 L-104251 1385 L-99918 1385 L-91348 1385 L-82602 1385 L-79528 1385 L-76262 1385 L-75716 1385 L-68578 1385 L-62911 1385 L-48846 1385 L-42835 1385 L-38129 1385 L-34125 1385 L-29018 1384 L-19304 1384 L-3733 1384 L-651 1384 L-348 1352 L-329 1313 L-310 1268 L-290 1218 L-271 1196 L-251 1176 L-233 1159 L-205 1141 L-184 1125 L-156 1107 L-121 1087 L-107 1070 L-94 1056 L-76 1044 L-57 1035 L-37 1026 L-19 1017 L0 1008 L19 999 L40 990 L57 980 L76 971 L96 963 L116 954 L135 944 L154 935 L173 925 L193 915 L212 905 L231 896 L252 888 L277 879 L291 871 L308 863 L328 854 L348 846 L367 838 L386 829 L406 820 L426 812 L444 804 L463 797 L483 790 L504 784 L521 778 L540 773 L560 767 L579 762 L599 757 L618 753 L637 749 L657 745 L676 741 L695 737 L722 733 L743 728 L771 722 L805 716 L819 711 L832 707 L851 703 L870 699 L890 695 L908 691 L928 687 L948 683 L968 679 L986 676 L1004 672 L1025 668 L1044 664 L1063 658 L1082 653 L1102 648 L1122 642 L1140 636 L1159 631 L1180 624 L1205 617 L1219 610 L1237 604 L1256 597 L1276 591 L1295 584 L1314 577 L1334 570 L1354 564 L1372 557 L1391 551 L1412 545 L1432 539 L1450 533 L1469 528 L1489 523 L1507 518 L1527 513 L1546 509 L1566 504 L1585 499 L1605 494 L1623 490 L1652 485 L1672 481 L1700 476 L1737 471 L1752 466 L1765 461 L1782 457 L1799 453 L1818 450 L1837 448 L1856 445 L1876 442 L1897 440 L1914 437 L1933 433 L1953 430 L1973 427 L1992 423 L2010 420 L2030 415 L2050 411 L2069 407 L2088 403 L2109 399 L2133 394 L2148 390 L2165 386 L2185 382 L2204 378 L2224 374 L2243 369 L2263 364 L2283 360 L2301 356 L2320 352 L2340 348 L2360 344 L2378 341 L2397 337 L2417 334 L2436 330 L2456 327 L2475 323 L2495 320 L2514 317 L2533 313 L2552 310 L2580 307 L2600 303 L2628 299 L2665 294 L2679 289 L2692 285 L2709 281 L2727 278 L2747 275 L2766 272 L2786 269 L2805 265 L2826 261 L2845 257 L2862 253 L2882 248 L2902 243 L2921 238 L2939 233 L2959 227 L2980 222 L2997 218 L3016 214 L3038 211 L3063 208 L3077 205 L3095 203 L3114 200 L3133 197 L3152 194 L3171 192 L3191 189 L3212 187 L3230 185 L3249 182 L3269 179 L3290 176 L3307 172 L3326 170 L3346 168 L3365 166 L3384 164 L3403 163 L3423 161 L3443 159 L3462 157 L3481 155 L3508 153 L3529 152 L3557 150 L3592 147 L3605 145 L3619 144 L3637 142 L3656 141 L3676 139 L3694 138 L3714 137 L3734 135 L3755 134 L3772 133 L3790 131 L3811 130 L3831 128 L3849 126 L3868 125 L3888 123 L3908 122 L3926 121 L3945 119 L3966 118 L3991 117 L4006 115 L4023 114 L4042 113 L4062 112 L4081 110 L4100 109 L4120 107 L4141 106 L4158 104 L4177 103 L4198 102 L4218 100 L4236 99 L4254 98 L4274 97 L4293 96 L4313 94 L4332 94 L4352 93 L4371 92 L4390 91 L4409 92 L4438 94 L4458 95 L4486 97 L4523 95 L4538 94 L4551 93 L4568 93 L4585 92 L4604 91 L4623 90 L4642 89 L4662 89 L4683 88 L4700 87 L4719 87 L4739 86 L4759 85 L4778 84 L4796 83 L4816 82 L4836 82 L4855 81 L4873 80 L4895 79 L4920 79 L4934 78 L4951 77 L4971 76 L4990 75 L5010 75 L5029 74 L5048 73 L5069 72 L5087 70 L5106 69 L5126 68 L5147 67 L5164 66 L5183 65 L5203 64 L5222 63 L5242 62 L5260 61 L5280 60 L5300 59 L5319 58 L5338 58 L5365 57 L5386 56 L5414 55 L5449 54 L5462 53 L5476 52 L5495 51 L5513 50 L5533 49 L5551 48 L5571 48 L5591 47 L5612 46 L5629 45 L5647 44 L5668 43 L5688 42 L5706 41 L5725 39 L5745 38 L5765 37 L5783 35 L5802 34 L5823 33 L5848 32 L5863 31 L5880 29 L5899 28 L5919 27 L5938 26 L5957 24 L5977 23 L5998 22 L6015 21 L6034 20 L6055 18 L6076 18 L6093 17 L6112 16 L6132 15 L6151 14 L6170 13 L6189 13 L6209 12 L6229 11 L6248 11 L6266 10 L6294 10 L6315 9 L6342 8 L6378 7 L6392 6 L6405 4 L6423 3 L6442 2 L6461 2 L6480 1 L6500 0" />
</svg>
