<svg xmlns="http://www.w3.org/2000/svg" version="1.1" viewBox="0 0 6500 1000">
	<path fill="none" stroke="gold" stroke-width="125" stroke-linecap="round" stroke-linejoin="round" d="M0 65437  L-322548 65437 L-319944 65214 L-318276 64991 L-299946 64544 L-299776 64098 L-292618 63651 L-292585 63651 L-279154 63428 L-276232 63651 L-262891 62982 L-258722 62089 L-257562 60973 L-256943 59857 L-254931 59187 L-251159 58741 L-250559 58294 L-250231 57848 L-250018 57401 L-249476 56955 L-248238 55169 L-247059 53383 L-244195 51598 L-243672 49812 L-238817 49366 L-235880 48919 L-235837 48473 L-235528 48026 L-235276 47580 L-232681 47133 L-228426 47133 L-228408 47133 L-227171 47133 L-225294 47133 L-223340 46687 L-222392 46241 L-222122 45794 L-221812 45571 L-221714 45348 L-220883 45348 L-218852 45571 L-218562 43562 L-216416 42669 L-216260 41330 L-212604 39991 L-212353 40660 L-212254 40437 L-211737 41107 L-209586 42223 L-208657 43339 L-207131 44455 L-205892 44455 L-204345 44232 L-201383 43785 L-200261 43339 L-199952 42892 L-198741 42669 L-195734 45125 L-195715 44901 L-195367 44678 L-195154 44455 L-195028 41330 L-194786 40883 L-194749 40437 L-194729 39991 L-194710 39544 L-194651 39098 L-194592 38651 L-194574 38205 L-194131 37758 L-192892 37312 L-191346 36866 L-187958 36419 L-182232 36196 L-182030 35973 L-180394 35750 L-178672 35526 L-177240 35303 L-177008 35080 L-176293 34857 L-170161 34633 L-169793 34187 L-169638 33741 L-169060 33294 L-168767 32848 L-167800 32401 L-167491 31955 L-166892 31508 L-165285 31508 L-164550 31508 L-164240 31732 L-163472 31732 L-161436 31285 L-161011 30839 L-160198 30616 L-152770 30169 L-152246 29723 L-152073 29276 L-151338 28830 L-149770 28383 L-149365 28160 L-147140 27714 L-146192 27491 L-145767 27267 L-145436 27267 L-144393 27044 L-142284 26598 L-142032 26151 L-141413 25705 L-140601 25482 L-138493 25035 L-138444 24589 L-136516 24142 L-136190 23696 L-136055 23250 L-135552 23026 L-134139 22580 L-133637 21687 L-133115 21017 L-129555 20125 L-128820 19232 L-126395 19232 L-125106 18785 L-124699 18562 L-121546 18562 L-121392 18562 L-121371 18785 L-121005 18785 L-119746 19008 L-119031 19232 L-118142 19232 L-117735 19232 L-116806 19232 L-115697 19008 L-115394 19901 L-109145 20348 L-108198 20794 L-106572 21241 L-106070 21464 L-102394 21687 L-101562 21910 L-97609 22133 L-96197 21464 L-93708 21017 L-93031 20571 L-92993 20348 L-92122 20348 L-88911 20125 L-86047 19901 L-85079 19678 L-83958 19232 L-83939 18785 L-82314 18339 L-81850 17669 L-81758 17446 L-75389 17223 L-74440 17000 L-71983 16776 L-71111 16330 L-69875 16107 L-67873 15883 L-67476 15437 L-66040 14991 L-64013 14767 L-63800 14321 L-62620 14098 L-61112 13875 L-61092 13651 L-59079 13428 L-58210 12982 L-57339 12758 L-56754 12312 L-56217 11866 L-55559 11419 L-54321 10973 L-53760 10750 L-52579 10526 L-51342 10303 L-51303 10080 L-50916 9857 L-50375 9410 L-49601 9187 L-48479 8964 L-46389 8517 L-46056 8071 L-45770 7625 L-44842 7401 L-44359 6955 L-43623 6732 L-39992 6508 L-38864 6285 L-38710 6062 L-37684 5616 L-33969 5392 L-32752 4946 L-30933 4500 L-28147 4276 L-27586 3830 L-23698 3830 L-21221 3607 L-19887 3607 L-19383 3383 L-18900 3160 L-16211 3160 L-12439 3160 L-9982 3160 L-8802 3160 L-8163 2937 L-5803 2491 L-5726 2267 L-4678 2044 L-4585 1598 L-4082 1598 L-3637 1598 L-3579 1598 L-3365 1598 L-406 1151 L2301 928 L2456 705 L5977 482 L6500 35" />
</svg>
