<svg xmlns="http://www.w3.org/2000/svg" version="1.1" viewBox="0 0 6500 1000">
	<path fill="none" stroke="gold" stroke-width="125" stroke-linecap="round" stroke-linejoin="round" d="M0 1034  L-714114 1034 L-711510 1033 L-709842 1033 L-691512 1033 L-691342 1033 L-684184 1033 L-684151 1033 L-670720 1032 L-667799 1033 L-654458 1032 L-650289 1032 L-649129 1031 L-648509 1031 L-646498 1030 L-642726 1030 L-642126 1030 L-641797 1030 L-641584 1029 L-641042 1029 L-639804 1028 L-638625 1027 L-635761 1026 L-635239 1025 L-630383 1025 L-627446 1025 L-627403 1025 L-627095 1024 L-626843 1024 L-624248 1024 L-619992 1024 L-619974 1024 L-618738 1024 L-616860 1024 L-614907 1024 L-613959 1024 L-613688 1023 L-613378 1023 L-613280 1023 L-612450 1023 L-610419 1023 L-610128 1022 L-607982 1022 L-607827 1021 L-604170 1020 L-603919 1021 L-603821 1021 L-603303 1021 L-601152 1021 L-600223 1022 L-598697 1023 L-597458 1023 L-595911 1023 L-592950 1022 L-591828 1022 L-591519 1022 L-590307 1022 L-587301 1023 L-587281 1023 L-586934 1023 L-586721 1023 L-586594 1021 L-586353 1021 L-586315 1021 L-586295 1020 L-586276 1020 L-586217 1020 L-586158 1020 L-586140 1019 L-585697 1019 L-584458 1019 L-582912 1019 L-579524 1018 L-573798 1018 L-573597 1018 L-571961 1018 L-570239 1018 L-568807 1018 L-568574 1018 L-567859 1018 L-561727 1018 L-561359 1017 L-561205 1017 L-560626 1017 L-560334 1017 L-559367 1016 L-559057 1016 L-558458 1016 L-556852 1016 L-556117 1016 L-555807 1016 L-555038 1016 L-553002 1016 L-552577 1016 L-551764 1015 L-544336 1015 L-543813 1015 L-543639 1015 L-542904 1015 L-541337 1014 L-540931 1014 L-538706 1014 L-537758 1014 L-537333 1014 L-537003 1014 L-535959 1014 L-533851 1013 L-533599 1013 L-532980 1013 L-532167 1013 L-530059 1013 L-530011 1012 L-528082 1012 L-527757 1012 L-527622 1012 L-527119 1012 L-525706 1011 L-525203 1011 L-524681 1010 L-521122 1010 L-520386 1010 L-517962 1010 L-516672 1009 L-516265 1009 L-513113 1009 L-512958 1009 L-512938 1009 L-512571 1009 L-511313 1009 L-510598 1010 L-509708 1010 L-509301 1010 L-508372 1010 L-507264 1009 L-506961 1010 L-500712 1010 L-499764 1010 L-498138 1011 L-497636 1011 L-493961 1011 L-493128 1011 L-489175 1011 L-487763 1011 L-485274 1010 L-484598 1010 L-484559 1010 L-483688 1010 L-480477 1010 L-477614 1010 L-476646 1010 L-475524 1010 L-475505 1009 L-473880 1009 L-473416 1009 L-473324 1009 L-466955 1009 L-466007 1008 L-463549 1008 L-462677 1008 L-461441 1008 L-459440 1008 L-459042 1008 L-457606 1007 L-455580 1007 L-455367 1007 L-454187 1007 L-452678 1007 L-452658 1007 L-450646 1007 L-449776 1006 L-448905 1006 L-448320 1006 L-447783 1006 L-447126 1005 L-445887 1005 L-445327 1005 L-444146 1005 L-442908 1005 L-442870 1005 L-442483 1005 L-441941 1004 L-441167 1004 L-440045 1004 L-437956 1004 L-437623 1004 L-437337 1004 L-436408 1003 L-435925 1003 L-435190 1003 L-431558 1003 L-430431 1003 L-430276 1003 L-429250 1002 L-425535 1002 L-424318 1002 L-422499 1002 L-419714 1002 L-419152 1002 L-415264 1002 L-412788 1001 L-411453 1001 L-410950 1001 L-410466 1001 L-407777 1001 L-404005 1001 L-401548 1001 L-400368 1001 L-399729 1001 L-397370 1001 L-397292 1001 L-396245 1001 L-396151 1000 L-395648 1000 L-395203 1000 L-395145 1000 L-394932 1000 L-391972 1000 L-389264 1000 L-389110 1000 L-385589 1000 L-385066 1000 L-384099 999 L-383749 999 L-382706 999 L-381777 999 L-381352 999 L-379843 999 L-378876 999 L-378857 998 L-376961 990 L-376845 981 L-376797 973 L-376772 964 L-373768 964 L-371738 964 L-369977 964 L-369610 964 L-369164 963 L-368797 963 L-368383 963 L-366398 963 L-366185 963 L-366030 963 L-364425 963 L-363303 963 L-362355 963 L-361098 962 L-359453 962 L-358273 962 L-351684 962 L-351637 962 L-351232 962 L-350186 961 L-350051 961 L-348368 961 L-348349 961 L-347012 961 L-345776 961 L-345621 961 L-345247 960 L-345041 960 L-344732 960 L-343958 960 L-341636 960 L-340979 960 L-338851 959 L-337128 959 L-336935 959 L-334382 959 L-334105 959 L-333917 959 L-333085 958 L-332312 958 L-331614 958 L-326613 958 L-326238 958 L-321985 958 L-321498 969 L-321478 969 L-321399 969 L-321324 969 L-321304 957 L-320491 957 L-319738 957 L-318518 957 L-317087 957 L-316990 957 L-316816 957 L-316462 956 L-315152 956 L-313295 956 L-311593 956 L-311090 956 L-310824 956 L-310431 956 L-310297 956 L-309387 955 L-309011 955 L-308082 955 L-307743 955 L-307704 955 L-307666 955 L-305751 955 L-305577 955 L-304048 955 L-303720 955 L-303604 955 L-303197 955 L-302849 954 L-301205 954 L-300654 954 L-300411 954 L-299869 954 L-299038 954 L-298496 953 L-296962 953 L-296870 953 L-296833 953 L-296697 953 L-296310 953 L-295285 953 L-293408 953 L-293312 952 L-292712 956 L-292345 960 L-291860 964 L-291822 968 L-291048 968 L-290991 968 L-290816 968 L-290623 968 L-289017 968 L-288997 967 L-288842 968 L-288727 968 L-287547 968 L-287392 968 L-286725 968 L-284277 978 L-281762 988 L-279093 997 L-271393 1006 L-265726 1006 L-263511 1006 L-263488 1006 L-262514 1009 L-262494 1009 L-261630 1008 L-258890 1008 L-253092 1006 L-252938 1005 L-250152 1005 L-236544 1005 L-235798 1005 L-231387 1005 L-215041 1005 L-214809 1004 L-214272 1004 L-205812 1004 L-197107 1004 L-196895 1004 L-194922 1004 L-192136 1004 L-187648 1004 L-187494 1004 L-187324 1004 L-187184 1004 L-186893 1004 L-186855 1003 L-186584 1003 L-186412 1003 L-186002 1003 L-184882 1003 L-183701 1003 L-182424 1003 L-179561 1003 L-176640 1002 L-174648 1002 L-173101 1002 L-170063 1002 L-160738 1002 L-160214 1002 L-154490 1002 L-152983 1002 L-152169 1002 L-150485 1001 L-149764 1001 L-149596 1001 L-148551 1001 L-146483 1001 L-145121 1001 L-140678 1001 L-140581 1001 L-140542 1001 L-140523 1000 L-139691 1000 L-139613 1000 L-137041 1000 L-133791 1000 L-133636 1000 L-132688 1000 L-130947 999 L-130232 1000 L-126691 1001 L-120114 1001 L-118696 1002 L-118675 1002 L-117725 1002 L-114251 1002 L-113497 1002 L-112936 1002 L-112154 1001 L-104649 1001 L-103051 1001 L-101477 1001 L-98292 1001 L-93959 1001 L-85389 1001 L-76643 1001 L-73569 1001 L-70303 1000 L-69756 1000 L-62619 1000 L-56951 1000 L-42887 1000 L-36876 1000 L-32169 1000 L-28166 1000 L-23059 1000 L-13345 1000 L2225 999 L5308 999 L5610 947 L5630 883 L5648 810 L5668 728 L5688 691 L5707 660 L5726 631 L5753 603 L5774 575 L5802 546 L5837 514 L5851 486 L5864 463 L5883 443 L5901 429 L5921 414 L5939 400 L5959 385 L5979 370 L6000 355 L6017 340 L6035 325 L6056 311 L6076 296 L6094 281 L6113 265 L6133 248 L6153 232 L6171 217 L6190 202 L6211 188 L6236 174 L6251 160 L6268 147 L6287 133 L6307 120 L6326 106 L6345 92 L6365 78 L6386 65 L6403 52 L6422 40 L6443 29 L6463 18 L6481 9 L6500 0" />
</svg>
