<svg xmlns="http://www.w3.org/2000/svg" version="1.1" viewBox="0 0 6500 1000">
	<path fill="none" stroke="gold" stroke-width="125" stroke-linecap="round" stroke-linejoin="round" d="M0 3299  L-728430 3299 L-725826 3299 L-724158 3299 L-705828 3298 L-705658 3298 L-698500 3298 L-698467 3298 L-685036 3298 L-682115 3298 L-668774 3297 L-664605 3297 L-663445 3296 L-662825 3295 L-660814 3295 L-657042 3295 L-656442 3294 L-656113 3294 L-655900 3294 L-655358 3294 L-654120 3292 L-652941 3291 L-650077 3290 L-649555 3289 L-644699 3289 L-641762 3288 L-641719 3288 L-641411 3288 L-641159 3288 L-638564 3287 L-634308 3287 L-634291 3287 L-633054 3287 L-631176 3287 L-629223 3287 L-628275 3287 L-628004 3286 L-627694 3286 L-627596 3286 L-626766 3286 L-624735 3286 L-624444 3285 L-622298 3284 L-622143 3284 L-618486 3283 L-618235 3283 L-618137 3283 L-617620 3283 L-615468 3284 L-614540 3285 L-613013 3286 L-611774 3286 L-610228 3285 L-607266 3285 L-606144 3285 L-605835 3285 L-604623 3284 L-601617 3286 L-601597 3286 L-601250 3286 L-601037 3286 L-600910 3284 L-600669 3283 L-600631 3283 L-600611 3283 L-600592 3282 L-600533 3282 L-600474 3282 L-600456 3282 L-600013 3281 L-598774 3281 L-597228 3281 L-593840 3280 L-588114 3280 L-587913 3280 L-586277 3280 L-584555 3280 L-583123 3280 L-582890 3280 L-582175 3279 L-576043 3279 L-575675 3279 L-575521 3279 L-574942 3278 L-574650 3278 L-573683 3278 L-573373 3278 L-572774 3277 L-571168 3277 L-570433 3277 L-570123 3277 L-569354 3277 L-567318 3277 L-566893 3277 L-566080 3277 L-558652 3276 L-558129 3276 L-557955 3276 L-557220 3276 L-555653 3275 L-555247 3275 L-553022 3275 L-552074 3275 L-551649 3275 L-551319 3275 L-550275 3274 L-548167 3274 L-547915 3274 L-547296 3274 L-546483 3273 L-544375 3273 L-544327 3273 L-542398 3273 L-542073 3272 L-541938 3272 L-541435 3272 L-540022 3272 L-539519 3271 L-538997 3271 L-535438 3270 L-534702 3269 L-532278 3269 L-530988 3269 L-530581 3269 L-527429 3269 L-527274 3269 L-527254 3269 L-526887 3269 L-525629 3269 L-524914 3269 L-524024 3269 L-523617 3269 L-522688 3269 L-521580 3269 L-521277 3270 L-515028 3270 L-514080 3270 L-512454 3271 L-511952 3271 L-508277 3271 L-507444 3271 L-503491 3271 L-502079 3271 L-499590 3271 L-498914 3270 L-498875 3270 L-498004 3270 L-494793 3270 L-491930 3270 L-490962 3270 L-489840 3269 L-489821 3269 L-488196 3269 L-487732 3268 L-487640 3268 L-481271 3268 L-480323 3268 L-477866 3268 L-476993 3268 L-475757 3267 L-473756 3267 L-473358 3267 L-471922 3267 L-469896 3267 L-469683 3266 L-468503 3266 L-466994 3266 L-466974 3266 L-464962 3266 L-464092 3265 L-463221 3265 L-462637 3265 L-462099 3265 L-461442 3264 L-460203 3264 L-459643 3264 L-458462 3264 L-457224 3264 L-457186 3264 L-456799 3263 L-456257 3263 L-455483 3263 L-454361 3263 L-452272 3263 L-451939 3262 L-451653 3262 L-450724 3262 L-450241 3262 L-449506 3261 L-445874 3261 L-444747 3261 L-444592 3261 L-443566 3261 L-439851 3261 L-438634 3260 L-436815 3260 L-434030 3260 L-433468 3260 L-429580 3260 L-427104 3259 L-425769 3259 L-425266 3259 L-424782 3259 L-422093 3259 L-418321 3259 L-415864 3259 L-414684 3259 L-414045 3259 L-411686 3259 L-411608 3259 L-410561 3258 L-410467 3258 L-409964 3258 L-409519 3258 L-409461 3258 L-409248 3258 L-406288 3258 L-403580 3258 L-403426 3258 L-399905 3257 L-399382 3257 L-398415 3257 L-398066 3257 L-397022 3256 L-396093 3256 L-395668 3256 L-394159 3256 L-393192 3256 L-393173 3256 L-391277 3245 L-391161 3235 L-391113 3224 L-391088 3213 L-388084 3213 L-386054 3213 L-384293 3213 L-383926 3213 L-383480 3212 L-383113 3212 L-382699 3212 L-380714 3212 L-380501 3212 L-380346 3212 L-378741 3212 L-377619 3212 L-376671 3211 L-375414 3211 L-373769 3211 L-372589 3211 L-366000 3211 L-365953 3210 L-365548 3210 L-364502 3210 L-364367 3210 L-362684 3210 L-362665 3210 L-361328 3209 L-360092 3209 L-359937 3209 L-359563 3209 L-359357 3209 L-359048 3208 L-358274 3208 L-355952 3208 L-355295 3208 L-353167 3208 L-351444 3208 L-351251 3207 L-348698 3207 L-348421 3207 L-348233 3207 L-347401 3206 L-346628 3206 L-345930 3206 L-340929 3206 L-340554 3206 L-336301 3206 L-335814 3220 L-335794 3220 L-335715 3220 L-335640 3220 L-335620 3205 L-334807 3205 L-334054 3205 L-332835 3204 L-331403 3204 L-331306 3204 L-331132 3204 L-330778 3204 L-329468 3204 L-327611 3204 L-325909 3203 L-325406 3203 L-325140 3203 L-324747 3203 L-324613 3203 L-323703 3203 L-323327 3203 L-322398 3203 L-322059 3202 L-322020 3202 L-321982 3202 L-320067 3202 L-319893 3202 L-318364 3202 L-318036 3202 L-317920 3202 L-317513 3202 L-317165 3201 L-315521 3201 L-314970 3201 L-314727 3201 L-314186 3201 L-313354 3200 L-312813 3200 L-311278 3200 L-311186 3200 L-311149 3200 L-311013 3200 L-310626 3199 L-309601 3199 L-307724 3199 L-307628 3199 L-307028 3204 L-306661 3208 L-306176 3213 L-306138 3218 L-305364 3219 L-305307 3218 L-305132 3218 L-304939 3218 L-303333 3218 L-303313 3218 L-303158 3218 L-303043 3218 L-301863 3218 L-301708 3219 L-301041 3219 L-298593 3230 L-296078 3242 L-293409 3254 L-285709 3265 L-280042 3265 L-277827 3265 L-277804 3265 L-276830 3268 L-276810 3268 L-275946 3268 L-273206 3268 L-267408 3265 L-267254 3264 L-264468 3264 L-250860 3264 L-250114 3264 L-245703 3264 L-229357 3263 L-229125 3263 L-228588 3263 L-220129 3263 L-211423 3263 L-211211 3263 L-209238 3262 L-206452 3262 L-201964 3263 L-201810 3262 L-201641 3262 L-201500 3262 L-201209 3262 L-201171 3262 L-200900 3262 L-200728 3262 L-200318 3261 L-199198 3261 L-198017 3261 L-196740 3261 L-193877 3261 L-190956 3261 L-188964 3261 L-187417 3260 L-184379 3260 L-175054 3260 L-174530 3260 L-168807 3260 L-167299 3260 L-166485 3260 L-164801 3259 L-164080 3259 L-163912 3259 L-162867 3259 L-160799 3259 L-159437 3259 L-154994 3259 L-154897 3258 L-154858 3258 L-154839 3258 L-154007 3258 L-153929 3258 L-151357 3258 L-148107 3257 L-147952 3257 L-147004 3257 L-145263 3257 L-144548 3258 L-141007 3258 L-134430 3259 L-133012 3260 L-132992 3260 L-132041 3260 L-128567 3260 L-127813 3260 L-127252 3260 L-126470 3259 L-118966 3259 L-117367 3259 L-115793 3259 L-112608 3259 L-108275 3259 L-99705 3259 L-90959 3259 L-87885 3258 L-84619 3258 L-84072 3258 L-76935 3258 L-71267 3258 L-57203 3258 L-51192 3258 L-46485 3258 L-42482 3258 L-37375 3257 L-27661 3257 L-12090 3257 L-9007 3257 L-8705 3192 L-8685 3113 L-8667 3023 L-8647 2923 L-8627 2877 L-8608 2838 L-8589 2803 L-8562 2768 L-8541 2734 L-8513 2698 L-8478 2658 L-8464 2624 L-8451 2595 L-8433 2571 L-8414 2554 L-8394 2536 L-8376 2517 L-8356 2499 L-8336 2481 L-8315 2462 L-8298 2443 L-8280 2425 L-8259 2408 L-8239 2390 L-8221 2371 L-8202 2351 L-8182 2331 L-8162 2311 L-8144 2292 L-8125 2274 L-8104 2257 L-8079 2239 L-8064 2223 L-8047 2206 L-8028 2189 L-8008 2173 L-7989 2156 L-7970 2138 L-7950 2121 L-7930 2105 L-7912 2089 L-7893 2074 L-7872 2060 L-7852 2047 L-7835 2036 L-7816 2025 L-7795 2014 L-7777 2004 L-7757 1994 L-7738 1985 L-7718 1977 L-7699 1969 L-7679 1961 L-7661 1954 L-7633 1944 L-7612 1934 L-7585 1923 L-7551 1911 L-7536 1901 L-7523 1892 L-7505 1884 L-7486 1877 L-7466 1869 L-7447 1861 L-7428 1853 L-7408 1844 L-7387 1837 L-7370 1829 L-7351 1822 L-7331 1814 L-7311 1805 L-7292 1795 L-7274 1784 L-7254 1773 L-7234 1762 L-7215 1750 L-7196 1739 L-7175 1726 L-7151 1712 L-7136 1698 L-7119 1685 L-7099 1672 L-7080 1659 L-7060 1645 L-7042 1631 L-7022 1617 L-7001 1604 L-6983 1591 L-6964 1578 L-6944 1566 L-6924 1554 L-6906 1542 L-6887 1532 L-6867 1521 L-6848 1512 L-6828 1502 L-6810 1493 L-6790 1484 L-6770 1474 L-6751 1464 L-6732 1455 L-6703 1445 L-6684 1437 L-6656 1428 L-6619 1417 L-6604 1407 L-6591 1397 L-6574 1388 L-6557 1382 L-6537 1376 L-6519 1370 L-6499 1365 L-6479 1360 L-6459 1354 L-6442 1348 L-6423 1342 L-6402 1335 L-6383 1328 L-6364 1321 L-6345 1313 L-6325 1305 L-6306 1297 L-6287 1288 L-6268 1280 L-6247 1272 L-6223 1263 L-6208 1255 L-6191 1246 L-6171 1238 L-6152 1230 L-6132 1221 L-6113 1211 L-6093 1202 L-6073 1194 L-6054 1185 L-6036 1177 L-6016 1169 L-5995 1162 L-5977 1155 L-5958 1148 L-5938 1141 L-5920 1133 L-5900 1126 L-5881 1119 L-5861 1113 L-5842 1106 L-5822 1100 L-5804 1093 L-5775 1086 L-5755 1079 L-5727 1072 L-5691 1061 L-5677 1051 L-5664 1042 L-5646 1034 L-5628 1029 L-5608 1023 L-5590 1016 L-5570 1010 L-5550 1002 L-5529 994 L-5511 986 L-5494 977 L-5473 968 L-5453 958 L-5435 948 L-5416 937 L-5396 926 L-5376 916 L-5358 906 L-5339 898 L-5318 892 L-5293 887 L-5278 882 L-5261 877 L-5242 871 L-5222 866 L-5203 860 L-5184 854 L-5164 849 L-5143 845 L-5126 841 L-5107 836 L-5086 830 L-5066 822 L-5049 816 L-5030 810 L-5010 806 L-4991 803 L-4971 800 L-4952 796 L-4932 793 L-4913 789 L-4894 785 L-4875 781 L-4847 777 L-4827 774 L-4799 770 L-4764 765 L-4750 761 L-4737 758 L-4718 755 L-4700 752 L-4680 749 L-4661 746 L-4642 743 L-4622 741 L-4601 738 L-4584 736 L-4565 733 L-4545 729 L-4525 726 L-4507 723 L-4488 720 L-4468 717 L-4448 714 L-4430 712 L-4411 709 L-4389 706 L-4365 704 L-4350 701 L-4333 699 L-4313 696 L-4294 693 L-4275 691 L-4256 687 L-4236 684 L-4215 681 L-4197 678 L-4178 676 L-4158 673 L-4138 671 L-4120 668 L-4101 666 L-4081 663 L-4062 661 L-4043 659 L-4024 657 L-4004 655 L-3984 653 L-3965 651 L-3946 655 L-3918 657 L-3898 660 L-3870 663 L-3833 660 L-3817 658 L-3805 656 L-3787 655 L-3771 653 L-3751 652 L-3733 650 L-3713 648 L-3693 647 L-3672 646 L-3655 644 L-3637 643 L-3616 641 L-3596 639 L-3578 638 L-3559 636 L-3539 634 L-3519 633 L-3501 631 L-3482 630 L-3461 628 L-3436 627 L-3422 625 L-3404 624 L-3385 622 L-3365 620 L-3346 619 L-3327 617 L-3307 615 L-3286 612 L-3269 610 L-3250 608 L-3229 606 L-3209 604 L-3191 602 L-3173 600 L-3153 598 L-3134 596 L-3114 594 L-3095 592 L-3075 589 L-3056 587 L-3037 586 L-3018 584 L-2990 583 L-2970 581 L-2942 579 L-2907 576 L-2893 574 L-2880 573 L-2861 571 L-2843 569 L-2823 568 L-2804 566 L-2785 564 L-2765 562 L-2744 561 L-2727 559 L-2708 557 L-2688 555 L-2668 553 L-2649 551 L-2631 548 L-2611 545 L-2590 542 L-2572 540 L-2554 538 L-2532 535 L-2507 532 L-2493 530 L-2475 527 L-2456 525 L-2437 522 L-2418 520 L-2399 517 L-2379 515 L-2358 512 L-2340 510 L-2321 508 L-2301 506 L-2280 504 L-2263 502 L-2244 500 L-2224 499 L-2205 497 L-2186 495 L-2167 494 L-2147 493 L-2127 491 L-2108 490 L-2089 489 L-2062 488 L-2041 486 L-2013 485 L-1978 482 L-1964 480 L-1951 477 L-1932 475 L-1914 473 L-1894 472 L-1876 470 L-1856 469 L-1836 467 L-1815 465 L-1798 464 L-1780 462 L-1759 460 L-1739 458 L-1721 456 L-1702 454 L-1682 452 L-1662 450 L-1644 448 L-1625 446 L-1604 445 L-1579 443 L-1564 442 L-1547 440 L-1528 438 L-1508 436 L-1489 434 L-1470 432 L-1450 429 L-1429 426 L-1412 424 L-1393 421 L-1372 419 L-1351 417 L-1334 416 L-1315 415 L-1295 413 L-1277 412 L-1257 411 L-1238 410 L-1218 408 L-1199 407 L-1179 406 L-1161 405 L-1133 403 L-1112 402 L-1085 401 L-1050 400 L-1036 399 L-1023 398 L-1004 397 L-986 396 L-966 395 L-947 394 L-928 393 L-908 392 L-887 391 L-870 390 L-851 389 L-831 388 L-811 387 L-793 386 L-774 385 L-754 384 L-734 383 L-715 383 L-696 382 L-675 381 L-651 380 L-636 379 L-619 378 L-599 377 L-580 376 L-561 375 L-542 375 L-522 373 L-501 372 L-483 370 L-464 368 L-444 365 L-423 364 L-406 362 L-387 361 L-367 360 L-348 358 L-328 357 L-310 356 L-290 355 L-270 353 L-251 352 L-232 352 L-203 351 L-156 350 L-119 349 L-104 348 L-92 347 L-74 346 L-57 345 L-37 345 L-19 344 L0 343 L20 342 L40 342 L57 341 L76 341 L97 340 L116 339 L135 338 L154 337 L174 336 L194 336 L212 335 L231 333 L252 332 L277 330 L291 329 L309 327 L328 326 L347 324 L367 323 L386 322 L406 320 L427 319 L444 317 L463 316 L484 315 L504 314 L522 313 L541 312 L561 311 L579 310 L599 309 L618 308 L638 307 L657 306 L677 305 L695 304 L724 303 L744 301 L772 300 L809 298 L823 295 L836 293 L853 292 L871 291 L891 289 L909 289 L929 288 L949 287 L970 286 L986 285 L1005 284 L1026 282 L1046 281 L1064 279 L1083 277 L1103 275 L1123 273 L1141 271 L1160 270 L1181 268 L1206 267 L1221 265 L1239 264 L1257 263 L1277 262 L1296 260 L1315 258 L1335 257 L1356 255 L1373 254 L1392 253 L1412 251 L1434 250 L1450 249 L1469 248 L1489 247 L1508 246 L1528 245 L1547 243 L1566 242 L1586 241 L1605 241 L1624 239 L1652 997 L1672 996 L1700 995 L1736 993 L1750 233 L1764 231 L1781 230 L1799 229 L1819 229 L1837 228 L1857 227 L1877 226 L1898 224 L1915 223 L1934 221 L1954 219 L1974 218 L1992 216 L2012 213 L2031 211 L2052 210 L2069 209 L2088 208 L2110 206 L2135 205 L2150 203 L2179 201 L2219 198 L2242 196 L2272 194 L2288 191 L2302 190 L2321 188 L2341 187 L2362 186 L2379 185 L2398 184 L2418 183 L2437 182 L2456 182 L2475 181 L2495 180 L2515 179 L2534 178 L2553 177 L2580 176 L2601 175 L2629 174 L2664 173 L2678 172 L2709 171 L2728 170 L2748 169 L2766 168 L2786 167 L2806 167 L2827 166 L2843 165 L2862 163 L2883 161 L2903 157 L2921 153 L2940 150 L2960 147 L2980 145 L2998 143 L3017 141 L3038 140 L3063 139 L3078 137 L3096 136 L3114 134 L3134 133 L3153 132 L3172 130 L3192 129 L3213 127 L3230 125 L3249 124 L3270 123 L3291 122 L3307 121 L3326 120 L3347 119 L3366 118 L3385 117 L3404 116 L3424 115 L3444 114 L3462 113 L3481 112 L3509 111 L3530 110 L3600 108 L3628 106 L3642 104 L3656 101 L3676 100 L3695 99 L3714 98 L3734 96 L3755 95 L3772 94 L3791 93 L3811 93 L3831 92 L3849 91 L3868 89 L3888 88 L3909 87 L3927 85 L3945 84 L3967 83 L3992 82 L4007 81 L4024 80 L4043 79 L4063 77 L4082 76 L4101 74 L4120 73 L4142 73 L4159 72 L4178 71 L4198 70 L4220 69 L4236 68 L4294 67 L4314 66 L4332 65 L4352 64 L4372 63 L4391 62 L4410 62 L4438 61 L4458 60 L4486 60 L4522 59 L4537 58 L4550 57 L4567 57 L4585 56 L4605 56 L4623 55 L4643 55 L4663 55 L4684 54 L4701 54 L4719 53 L4740 53 L4760 52 L4778 52 L4797 51 L4817 50 L4838 49 L4855 48 L4874 48 L4896 47 L4920 46 L4935 46 L4952 45 L4972 44 L4991 44 L5010 43 L5029 42 L5049 41 L5070 40 L5087 38 L5107 38 L5127 37 L5148 37 L5165 36 L5183 36 L5204 35 L5223 35 L5242 34 L5261 34 L5281 34 L5301 33 L5320 33 L5338 32 L5366 32 L5387 31 L5414 31 L5450 30 L5463 30 L5477 29 L5495 29 L5513 28 L5533 27 L5552 27 L5591 26 L5612 26 L5629 26 L5648 25 L5668 24 L5688 23 L5706 22 L5725 21 L5745 21 L5765 20 L5784 20 L5803 19 L5823 18 L5848 18 L5863 17 L5880 17 L5900 16 L5919 16 L5939 15 L5957 14 L5977 14 L5998 13 L6016 12 L6035 12 L6055 11 L6076 11 L6093 10 L6112 9 L6132 9 L6151 9 L6171 8 L6189 8 L6209 7 L6229 7 L6248 6 L6267 6 L6296 5 L6343 5 L6381 4 L6396 3 L6408 3 L6425 3 L6442 2 L6462 2 L6480 1 L6500 1" />
</svg>
