<svg xmlns="http://www.w3.org/2000/svg" version="1.1" viewBox="0 0 6500 1000">
	<path fill="none" stroke="gold" stroke-width="125" stroke-linecap="round" stroke-linejoin="round" d="M0 3435  L-726498 3435 L-723894 3435 L-722226 3434 L-703896 3434 L-703726 3434 L-696568 3433 L-696535 3433 L-683104 3433 L-680182 3433 L-666841 3433 L-662672 3432 L-661512 3432 L-660893 3431 L-658881 3430 L-655110 3430 L-654510 3430 L-654181 3430 L-653968 3429 L-653426 3429 L-652188 3428 L-651009 3427 L-648145 3425 L-647623 3424 L-642767 3424 L-639830 3424 L-639787 3423 L-639478 3423 L-639227 3423 L-636632 3422 L-632376 3422 L-632358 3422 L-631121 3422 L-629244 3422 L-627291 3422 L-626343 3422 L-626072 3421 L-625762 3421 L-625664 3421 L-624833 3421 L-622803 3421 L-622512 3420 L-620366 3419 L-620210 3418 L-616554 3417 L-616303 3418 L-616204 3418 L-615687 3418 L-613536 3419 L-612607 3420 L-611081 3420 L-609842 3420 L-608295 3420 L-605333 3420 L-604212 3420 L-603902 3419 L-602691 3419 L-599685 3421 L-599665 3421 L-599318 3421 L-599104 3420 L-598978 3418 L-598737 3418 L-598699 3418 L-598679 3417 L-598660 3417 L-598601 3417 L-598542 3417 L-598524 3416 L-598081 3416 L-596842 3416 L-595296 3415 L-591908 3415 L-586182 3415 L-585980 3415 L-584345 3415 L-582623 3414 L-581191 3414 L-580958 3414 L-580243 3414 L-574111 3414 L-573743 3414 L-573589 3413 L-573010 3413 L-572718 3413 L-571750 3412 L-571441 3412 L-570842 3412 L-569235 3412 L-568500 3412 L-568191 3412 L-567422 3412 L-565386 3412 L-564961 3411 L-564148 3411 L-556720 3411 L-556197 3410 L-556023 3410 L-555288 3410 L-553720 3410 L-553315 3409 L-551090 3409 L-550142 3409 L-549717 3409 L-549387 3409 L-548343 3409 L-546235 3408 L-545982 3408 L-545364 3408 L-544551 3408 L-542443 3407 L-542395 3407 L-540466 3407 L-540141 3406 L-540006 3406 L-539502 3406 L-538090 3406 L-537587 3405 L-537065 3405 L-533505 3404 L-532770 3403 L-530345 3403 L-529056 3403 L-528649 3403 L-525497 3403 L-525342 3403 L-525321 3403 L-524955 3403 L-523697 3403 L-522982 3403 L-522092 3403 L-521685 3403 L-520756 3403 L-519648 3403 L-519344 3404 L-513096 3404 L-512148 3404 L-510522 3405 L-510020 3405 L-506345 3405 L-505512 3405 L-501559 3405 L-500147 3405 L-497658 3405 L-496981 3404 L-496943 3404 L-496072 3404 L-492861 3404 L-489998 3404 L-489030 3404 L-487908 3403 L-487889 3403 L-486264 3403 L-485800 3402 L-485708 3402 L-479339 3402 L-478390 3402 L-475933 3402 L-475061 3401 L-473825 3401 L-471824 3401 L-471426 3401 L-469990 3401 L-467964 3400 L-467750 3400 L-466570 3400 L-465062 3400 L-465042 3400 L-463029 3399 L-462160 3399 L-461289 3399 L-460704 3399 L-460167 3398 L-459509 3398 L-458271 3398 L-457711 3398 L-456530 3397 L-455292 3397 L-455253 3397 L-454867 3397 L-454325 3397 L-453551 3397 L-452429 3396 L-450340 3396 L-450006 3396 L-449721 3396 L-448792 3395 L-448309 3395 L-447573 3395 L-443942 3395 L-442815 3395 L-442660 3394 L-441634 3394 L-437919 3394 L-436702 3394 L-434883 3393 L-432098 3393 L-431536 3393 L-427648 3393 L-425172 3393 L-423837 3393 L-423333 3393 L-422850 3392 L-420161 3392 L-416389 3392 L-413932 3392 L-412752 3392 L-412113 3392 L-409754 3392 L-409676 3392 L-408629 3392 L-408535 3391 L-408032 3391 L-407587 3391 L-407529 3391 L-407315 3391 L-404356 3391 L-401648 3391 L-401493 3391 L-397973 3391 L-397450 3390 L-396482 3390 L-396133 3390 L-395090 3390 L-394161 3389 L-393735 3389 L-392226 3389 L-391259 3389 L-391241 3389 L-389345 3378 L-389229 3366 L-389181 3355 L-389156 3344 L-386152 3344 L-384121 3344 L-382361 3343 L-381993 3343 L-381548 3343 L-381181 3343 L-380767 3343 L-378782 3342 L-378569 3342 L-378414 3342 L-376809 3342 L-375687 3342 L-374739 3342 L-373481 3342 L-371837 3342 L-370657 3341 L-364068 3341 L-364021 3341 L-363615 3341 L-362570 3341 L-362435 3340 L-360752 3340 L-360732 3340 L-359396 3340 L-358159 3340 L-358005 3339 L-357631 3339 L-357425 3339 L-357116 3339 L-356342 3338 L-354020 3338 L-353362 3338 L-351235 3338 L-349512 3338 L-349319 3338 L-346765 3337 L-346489 3337 L-346301 3337 L-345468 3337 L-344696 3337 L-343998 3336 L-338997 3336 L-338621 3336 L-334368 3336 L-333881 3351 L-333862 3351 L-333783 3351 L-333708 3351 L-333688 3335 L-332875 3335 L-332121 3335 L-330902 3335 L-329470 3335 L-329374 3334 L-329200 3334 L-328845 3334 L-327536 3334 L-325679 3334 L-323976 3333 L-323474 3333 L-323208 3333 L-322815 3333 L-322681 3333 L-321771 3333 L-321395 3333 L-320466 3333 L-320127 3332 L-320088 3332 L-320050 3332 L-318134 3332 L-317961 3332 L-316432 3332 L-316104 3332 L-315988 3332 L-315581 3332 L-315232 3331 L-313589 3331 L-313038 3331 L-312795 3331 L-312253 3331 L-311422 3330 L-310880 3330 L-309346 3330 L-309254 3330 L-309217 3330 L-309081 3329 L-308693 3329 L-307669 3329 L-305792 3329 L-305696 3329 L-305096 3334 L-304729 3339 L-304244 3344 L-304206 3349 L-303432 3350 L-303375 3349 L-303200 3349 L-303006 3349 L-301401 3349 L-301381 3348 L-301226 3349 L-301111 3349 L-299931 3349 L-299776 3350 L-299109 3350 L-296661 3362 L-294146 3375 L-291476 3387 L-283777 3399 L-278109 3399 L-275895 3399 L-275872 3399 L-274898 3402 L-274878 3402 L-274014 3402 L-271274 3402 L-265475 3398 L-265322 3398 L-262536 3398 L-248928 3398 L-248182 3397 L-243771 3397 L-227425 3397 L-227193 3397 L-226656 3397 L-218196 3396 L-209491 3396 L-209278 3396 L-207306 3396 L-204520 3396 L-200032 3396 L-199877 3396 L-199708 3396 L-199568 3396 L-199277 3396 L-199239 3395 L-198968 3395 L-198796 3395 L-198386 3395 L-197265 3395 L-196085 3395 L-194808 3394 L-191944 3394 L-189024 3394 L-187032 3394 L-185484 3394 L-182447 3394 L-173122 3393 L-172598 3393 L-166874 3393 L-165367 3393 L-164553 3393 L-162869 3393 L-162148 3393 L-161980 3392 L-160934 3392 L-158867 3392 L-157505 3392 L-153062 3392 L-152965 3392 L-152926 3392 L-152907 3391 L-152075 3391 L-151997 3391 L-149424 3391 L-146175 3391 L-146020 3391 L-145072 3390 L-143331 3390 L-142615 3391 L-139075 3392 L-132497 3393 L-131080 3394 L-131059 3394 L-130109 3394 L-126634 3393 L-125881 3393 L-125319 3393 L-124537 3393 L-117033 3393 L-115435 3392 L-113861 3392 L-110676 3392 L-106343 3392 L-97773 3392 L-89027 3392 L-85953 3392 L-82687 3391 L-82140 3391 L-75003 3391 L-69335 3391 L-55271 3391 L-49259 3391 L-44553 3391 L-40550 3391 L-35442 3391 L-25728 3391 L-10158 3390 L-7075 3390 L-6773 3322 L-6753 3238 L-6734 3143 L-6715 3036 L-6695 2988 L-6676 2947 L-6657 2909 L-6630 2872 L-6609 2836 L-6581 2798 L-6545 2756 L-6532 2720 L-6519 2690 L-6500 2664 L-6482 2645 L-6462 2626 L-6444 2607 L-6424 2588 L-6404 2568 L-6383 2548 L-6366 2529 L-6348 2509 L-6327 2491 L-6307 2472 L-6289 2452 L-6270 2431 L-6250 2410 L-6230 2389 L-6212 2368 L-6193 2349 L-6172 2331 L-6147 2312 L-6132 2295 L-6115 2277 L-6095 2260 L-6076 2243 L-6057 2224 L-6038 2205 L-6018 2187 L-5997 2170 L-5979 2153 L-5961 2138 L-5940 2123 L-5919 2109 L-5902 2097 L-5883 2085 L-5863 2074 L-5844 2063 L-5825 2052 L-5806 2043 L-5786 2034 L-5766 2026 L-5747 2018 L-5729 2010 L-5701 2000 L-5680 1989 L-5652 1978 L-5618 1965 L-5604 1954 L-5591 1944 L-5572 1936 L-5553 1929 L-5534 1921 L-5515 1912 L-5496 1903 L-5476 1894 L-5455 1886 L-5438 1878 L-5419 1870 L-5399 1862 L-5379 1853 L-5360 1842 L-5342 1830 L-5322 1819 L-5302 1807 L-5283 1795 L-5264 1782 L-5243 1769 L-5219 1754 L-5204 1739 L-5187 1725 L-5167 1712 L-5148 1698 L-5128 1683 L-5110 1668 L-5089 1654 L-5069 1640 L-5051 1626 L-5032 1612 L-5012 1599 L-4991 1586 L-4974 1574 L-4955 1563 L-4935 1552 L-4916 1542 L-4896 1532 L-4877 1522 L-4858 1512 L-4838 1502 L-4819 1492 L-4800 1482 L-4771 1472 L-4751 1463 L-4724 1453 L-4686 1442 L-4671 1431 L-4659 1421 L-4642 1411 L-4625 1404 L-4605 1398 L-4586 1392 L-4567 1386 L-4547 1381 L-4527 1375 L-4509 1369 L-4490 1362 L-4470 1355 L-4450 1348 L-4432 1340 L-4413 1332 L-4393 1323 L-4373 1314 L-4354 1305 L-4336 1296 L-4315 1288 L-4290 1279 L-4276 1270 L-4258 1261 L-4238 1252 L-4219 1243 L-4200 1234 L-4181 1224 L-4161 1214 L-4141 1205 L-4122 1196 L-4103 1188 L-4083 1179 L-4063 1171 L-4045 1164 L-4026 1157 L-4006 1149 L-3988 1141 L-3968 1134 L-3949 1127 L-3929 1119 L-3910 1112 L-3890 1106 L-3871 1098 L-3843 1091 L-3823 1084 L-3795 1076 L-3759 1065 L-3745 1054 L-3732 1044 L-3714 1036 L-3696 1030 L-3676 1025 L-3658 1017 L-3638 1010 L-3618 1002 L-3597 994 L-3579 985 L-3562 976 L-3541 966 L-3521 955 L-3503 945 L-3484 933 L-3464 922 L-3444 911 L-3426 901 L-3407 893 L-3386 886 L-3361 880 L-3346 875 L-3329 870 L-3310 864 L-3290 858 L-3271 852 L-3252 846 L-3232 840 L-3211 836 L-3194 832 L-3175 826 L-3154 820 L-3133 812 L-3117 805 L-3098 799 L-3077 795 L-3059 791 L-3039 788 L-3020 784 L-3000 780 L-2981 776 L-2962 772 L-2943 768 L-2915 764 L-2894 761 L-2867 757 L-2832 751 L-2818 747 L-2805 744 L-2786 740 L-2768 737 L-2748 734 L-2729 731 L-2710 728 L-2690 726 L-2669 723 L-2652 720 L-2633 717 L-2613 713 L-2593 710 L-2575 706 L-2556 703 L-2536 700 L-2516 697 L-2497 695 L-2478 692 L-2457 689 L-2432 686 L-2418 683 L-2401 681 L-2381 678 L-2362 675 L-2342 672 L-2323 669 L-2304 665 L-2283 662 L-2265 659 L-2246 657 L-2226 654 L-2205 651 L-2188 649 L-2169 646 L-2149 643 L-2130 641 L-2110 638 L-2092 636 L-2072 635 L-2052 633 L-2033 631 L-2014 634 L-1985 637 L-1966 640 L-1938 643 L-1900 640 L-1885 638 L-1873 636 L-1855 634 L-1839 633 L-1819 631 L-1801 629 L-1781 628 L-1761 626 L-1740 625 L-1723 623 L-1705 622 L-1684 620 L-1664 618 L-1646 616 L-1627 614 L-1607 613 L-1587 611 L-1569 609 L-1550 608 L-1529 606 L-1504 605 L-1489 603 L-1472 601 L-1453 600 L-1433 598 L-1414 596 L-1395 594 L-1375 592 L-1354 590 L-1337 587 L-1318 585 L-1297 582 L-1277 580 L-1259 578 L-1240 576 L-1220 574 L-1202 572 L-1182 570 L-1163 567 L-1143 565 L-1124 563 L-1104 562 L-1086 560 L-1058 558 L-1037 556 L-1009 554 L-975 551 L-961 549 L-948 547 L-929 545 L-910 544 L-890 542 L-872 540 L-852 538 L-833 536 L-812 535 L-795 533 L-776 531 L-755 529 L-735 527 L-717 524 L-699 521 L-679 518 L-658 515 L-640 513 L-621 510 L-600 508 L-575 505 L-560 502 L-543 499 L-524 497 L-504 494 L-485 491 L-466 489 L-446 486 L-425 484 L-408 481 L-389 479 L-368 476 L-348 474 L-331 472 L-312 470 L-292 469 L-273 467 L-253 466 L-234 464 L-215 463 L-195 461 L-176 460 L-157 459 L-129 457 L-109 456 L-81 454 L-45 452 L-32 449 L-19 446 L0 444 L17 442 L37 441 L55 439 L75 437 L95 436 L116 434 L133 432 L151 430 L172 428 L192 426 L210 424 L229 421 L249 419 L269 417 L287 415 L306 413 L328 412 L352 410 L367 409 L384 407 L404 405 L423 403 L442 401 L461 398 L481 395 L502 392 L519 390 L539 387 L559 385 L580 383 L597 381 L616 380 L636 379 L655 378 L674 376 L693 375 L713 373 L733 372 L752 371 L770 370 L798 368 L819 367 L846 366 L881 365 L895 363 L908 362 L927 361 L946 360 L965 359 L984 358 L1003 357 L1023 356 L1044 355 L1061 354 L1080 353 L1100 352 L1120 351 L1139 350 L1157 349 L1177 348 L1197 347 L1216 346 L1235 346 L1256 345 L1280 344 L1295 343 L1312 342 L1332 341 L1351 340 L1371 339 L1390 338 L1409 336 L1430 334 L1448 332 L1467 330 L1487 328 L1508 326 L1525 325 L1544 323 L1564 322 L1583 321 L1603 319 L1622 318 L1642 316 L1661 315 L1680 314 L1699 313 L1728 312 L1775 311 L1812 310 L1827 309 L1840 308 L1857 307 L1874 307 L1894 306 L1913 305 L1932 305 L1952 304 L1972 303 L1990 302 L2009 302 L2029 301 L2048 300 L2067 299 L2086 298 L2106 297 L2126 296 L2144 295 L2163 294 L2184 293 L2209 291 L2224 289 L2241 287 L2261 286 L2280 284 L2299 283 L2318 282 L2338 280 L2359 279 L2377 277 L2396 276 L2416 274 L2436 273 L2454 272 L2473 271 L2493 270 L2512 269 L2531 268 L2550 267 L2570 266 L2589 265 L2609 264 L2628 262 L2656 261 L2676 260 L2704 259 L2741 256 L2755 254 L2768 252 L2786 250 L2803 249 L2823 247 L2841 247 L2861 246 L2881 245 L2902 244 L2919 243 L2937 242 L2958 240 L2978 238 L2996 237 L3015 234 L3035 232 L3056 230 L3073 228 L3092 227 L3113 225 L3138 223 L3153 222 L3171 221 L3189 219 L3210 218 L3228 217 L3247 215 L3267 213 L3288 211 L3305 210 L3325 209 L3345 207 L3366 206 L3383 205 L3402 203 L3421 202 L3440 201 L3460 200 L3479 199 L3499 198 L3519 197 L3538 196 L3556 195 L3584 997 L3605 996 L3632 994 L3668 993 L3682 187 L3696 186 L3714 185 L3732 184 L3751 183 L3770 182 L3789 181 L3809 180 L3830 178 L3847 177 L3866 175 L3887 173 L3907 171 L3925 169 L3944 167 L3963 165 L3984 163 L4002 162 L4021 161 L4042 159 L4067 158 L4082 156 L4112 154 L4151 151 L4174 149 L4204 146 L4220 144 L4234 142 L4253 140 L4273 139 L4294 138 L4311 137 L4330 136 L4350 135 L4369 134 L4389 133 L4407 133 L4427 132 L4447 131 L4466 130 L4485 129 L4513 128 L4533 127 L4561 126 L4596 124 L4610 123 L4642 122 L4660 121 L4680 120 L4698 119 L4718 118 L4738 118 L4759 117 L4776 116 L4794 114 L4815 111 L4835 107 L4853 103 L4872 100 L4892 97 L4912 95 L4930 92 L4949 91 L4971 89 L4996 88 L5010 87 L5028 85 L5046 83 L5067 82 L5085 80 L5105 79 L5124 77 L5145 76 L5162 74 L5182 72 L5202 71 L5223 70 L5240 69 L5259 68 L5279 67 L5298 66 L5317 65 L5336 64 L5356 63 L5376 62 L5395 61 L5413 60 L5441 59 L5462 58 L5532 56 L5560 53 L5574 51 L5589 48 L5609 47 L5627 46 L5646 44 L5666 43 L5687 42 L5704 41 L5723 40 L5744 39 L5764 38 L5782 37 L5801 36 L5821 34 L5841 33 L5859 31 L5878 30 L5899 29 L5924 28 L5939 27 L5956 26 L5975 24 L5995 23 L6014 21 L6033 20 L6053 19 L6074 18 L6091 17 L6110 16 L6131 15 L6152 14 L6168 13 L6226 12 L6246 10 L6265 10 L6284 9 L6305 8 L6323 7 L6342 6 L6370 6 L6390 5 L6418 4 L6455 3 L6469 3 L6482 2 L6500 1" />
</svg>
