<svg xmlns="http://www.w3.org/2000/svg" version="1.1" viewBox="0 0 6500 1000">
	<path fill="none" stroke="gold" stroke-width="125" stroke-linecap="round" stroke-linejoin="round" d="M0 3594  L-725354 3594 L-722750 3594 L-721082 3594 L-702753 3593 L-702582 3593 L-695425 3593 L-695391 3593 L-681961 3593 L-679039 3593 L-665698 3592 L-661529 3592 L-660369 3591 L-659750 3590 L-657738 3590 L-653966 3589 L-653366 3589 L-653037 3589 L-652824 3588 L-652283 3588 L-651045 3587 L-649866 3585 L-647001 3584 L-646479 3583 L-641623 3583 L-638686 3582 L-638643 3582 L-638335 3582 L-638083 3581 L-635488 3581 L-631233 3581 L-631215 3581 L-629978 3581 L-628100 3581 L-626147 3581 L-625199 3580 L-624928 3580 L-624618 3580 L-624520 3580 L-623690 3580 L-621659 3580 L-621369 3578 L-619222 3578 L-619067 3577 L-615410 3576 L-615159 3576 L-615061 3576 L-614544 3577 L-612393 3577 L-611464 3578 L-609938 3579 L-608698 3579 L-607152 3579 L-604190 3578 L-603068 3578 L-602759 3578 L-601548 3578 L-598541 3579 L-598521 3579 L-598174 3579 L-597961 3579 L-597835 3577 L-597593 3576 L-597555 3576 L-597535 3576 L-597516 3575 L-597457 3575 L-597399 3575 L-597381 3574 L-596938 3574 L-595698 3574 L-594152 3573 L-590765 3573 L-585038 3573 L-584837 3573 L-583201 3573 L-581479 3573 L-580047 3572 L-579815 3572 L-579099 3572 L-572967 3572 L-572599 3572 L-572445 3571 L-571867 3571 L-571574 3571 L-570607 3570 L-570297 3570 L-569698 3570 L-568092 3570 L-567357 3570 L-567047 3570 L-566279 3570 L-564243 3569 L-563817 3569 L-563005 3569 L-555576 3569 L-555053 3568 L-554880 3568 L-554145 3568 L-552577 3567 L-552171 3567 L-549946 3567 L-548998 3567 L-548573 3567 L-548243 3567 L-547199 3566 L-545091 3566 L-544839 3566 L-544220 3565 L-543407 3565 L-541299 3565 L-541251 3565 L-539323 3564 L-538997 3564 L-538862 3564 L-538359 3564 L-536946 3563 L-536443 3563 L-535921 3562 L-532362 3561 L-531627 3561 L-529202 3561 L-527912 3560 L-527505 3560 L-524353 3560 L-524198 3560 L-524178 3560 L-523811 3560 L-522553 3561 L-521838 3561 L-520948 3561 L-520541 3561 L-519613 3561 L-518504 3561 L-518201 3561 L-511952 3562 L-511005 3562 L-509378 3562 L-508877 3562 L-505201 3563 L-504369 3563 L-500415 3563 L-499004 3562 L-496514 3562 L-495838 3562 L-495799 3562 L-494928 3562 L-491717 3561 L-488854 3561 L-487886 3561 L-486765 3561 L-486746 3560 L-485121 3560 L-484656 3560 L-484565 3559 L-478195 3559 L-477247 3559 L-474790 3559 L-473917 3559 L-472681 3559 L-470680 3558 L-470282 3558 L-468846 3558 L-466820 3558 L-466607 3557 L-465427 3557 L-463918 3557 L-463898 3557 L-461886 3557 L-461016 3556 L-460146 3556 L-459561 3556 L-459024 3555 L-458366 3555 L-457128 3555 L-456567 3555 L-455386 3554 L-454148 3554 L-454110 3554 L-453723 3554 L-453181 3554 L-452408 3554 L-451285 3553 L-449196 3553 L-448863 3553 L-448577 3552 L-447648 3552 L-447165 3552 L-446430 3552 L-442799 3552 L-441671 3551 L-441516 3551 L-440490 3551 L-436776 3551 L-435558 3550 L-433740 3550 L-430954 3550 L-430392 3550 L-426505 3550 L-424028 3549 L-422693 3549 L-422190 3549 L-421707 3549 L-419017 3549 L-415246 3549 L-412788 3549 L-411609 3549 L-410969 3549 L-408610 3549 L-408532 3549 L-407485 3548 L-407391 3548 L-406889 3548 L-406443 3548 L-406385 3548 L-406172 3548 L-403212 3548 L-400505 3548 L-400350 3547 L-396829 3547 L-396306 3547 L-395339 3547 L-394990 3546 L-393946 3546 L-393017 3546 L-392592 3546 L-391083 3546 L-390116 3545 L-390097 3545 L-388201 3534 L-388085 3521 L-388037 3510 L-388013 3498 L-385009 3497 L-382978 3497 L-381217 3497 L-380850 3497 L-380404 3496 L-380037 3496 L-379623 3496 L-377638 3496 L-377425 3496 L-377270 3496 L-375665 3496 L-374543 3495 L-373595 3495 L-372338 3495 L-370693 3495 L-369514 3495 L-362924 3494 L-362878 3494 L-362472 3494 L-361427 3494 L-361291 3494 L-359609 3493 L-359589 3493 L-358252 3493 L-357016 3493 L-356862 3493 L-356488 3492 L-356281 3492 L-355972 3492 L-355198 3492 L-352877 3491 L-352219 3491 L-350091 3491 L-348369 3491 L-348175 3491 L-345622 3490 L-345345 3490 L-345157 3490 L-344325 3490 L-343552 3490 L-342854 3489 L-337854 3489 L-337478 3489 L-333225 3489 L-332738 3505 L-332719 3505 L-332640 3505 L-332564 3505 L-332544 3488 L-331732 3488 L-330978 3488 L-329759 3487 L-328327 3487 L-328231 3487 L-328056 3487 L-327702 3487 L-326392 3487 L-324535 3487 L-322833 3486 L-322330 3486 L-322065 3486 L-321672 3486 L-321537 3486 L-320628 3485 L-320251 3485 L-319323 3485 L-318984 3485 L-318944 3485 L-318906 3485 L-316991 3485 L-316817 3485 L-315288 3485 L-314960 3485 L-314844 3485 L-314437 3484 L-314089 3484 L-312445 3484 L-311894 3484 L-311651 3483 L-311110 3483 L-310278 3483 L-309737 3483 L-308202 3482 L-308110 3482 L-308073 3482 L-307937 3482 L-307550 3482 L-306525 3482 L-304649 3481 L-304552 3481 L-303952 3486 L-303585 3492 L-303100 3498 L-303062 3503 L-302288 3503 L-302231 3503 L-302056 3503 L-301863 3503 L-300258 3502 L-300238 3502 L-300082 3503 L-299967 3503 L-298787 3503 L-298633 3503 L-297966 3503 L-295518 3517 L-293003 3530 L-290333 3543 L-282634 3556 L-276966 3556 L-274751 3556 L-274728 3556 L-273754 3559 L-273734 3559 L-272871 3559 L-270130 3559 L-264332 3555 L-264178 3555 L-261393 3555 L-247784 3555 L-247038 3554 L-242628 3554 L-226281 3554 L-226049 3554 L-225512 3554 L-217053 3553 L-208347 3553 L-208135 3553 L-206162 3553 L-203376 3553 L-198889 3553 L-198734 3553 L-198565 3553 L-198424 3553 L-198134 3552 L-198095 3552 L-197824 3552 L-197652 3552 L-197242 3552 L-196122 3552 L-194941 3551 L-193665 3551 L-190801 3551 L-187881 3551 L-185889 3551 L-184341 3550 L-181303 3550 L-171979 3550 L-171455 3550 L-165731 3550 L-164224 3550 L-163409 3550 L-161726 3549 L-161005 3549 L-160836 3549 L-159791 3549 L-157724 3549 L-156362 3549 L-151918 3549 L-151821 3548 L-151782 3548 L-151763 3548 L-150931 3548 L-150853 3548 L-148281 3547 L-145031 3547 L-144877 3547 L-143928 3547 L-142187 3547 L-141472 3548 L-137931 3548 L-131354 3549 L-129936 3551 L-129916 3550 L-128965 3550 L-125491 3550 L-124738 3550 L-124176 3550 L-123394 3549 L-115890 3549 L-114291 3549 L-112717 3549 L-109532 3549 L-105199 3549 L-96629 3549 L-87883 3549 L-84809 3548 L-81543 3548 L-80997 3548 L-73859 3548 L-68192 3548 L-54127 3548 L-48116 3548 L-43410 3548 L-39406 3547 L-34299 3547 L-24585 3547 L-9014 3547 L-5931 3546 L-5629 3474 L-5610 3385 L-5591 3283 L-5571 3170 L-5551 3118 L-5532 3074 L-5514 3034 L-5486 2995 L-5465 2956 L-5437 2916 L-5402 2871 L-5388 2833 L-5375 2800 L-5357 2773 L-5338 2753 L-5318 2733 L-5300 2712 L-5280 2692 L-5261 2671 L-5239 2650 L-5223 2629 L-5204 2608 L-5183 2589 L-5163 2569 L-5145 2547 L-5126 2525 L-5107 2502 L-5086 2480 L-5068 2458 L-5049 2438 L-5028 2418 L-5003 2398 L-4989 2379 L-4971 2361 L-4952 2342 L-4932 2324 L-4913 2304 L-4894 2284 L-4874 2265 L-4854 2246 L-4836 2229 L-4817 2212 L-4796 2197 L-4776 2182 L-4759 2169 L-4740 2156 L-4720 2144 L-4701 2133 L-4681 2121 L-4662 2111 L-4642 2102 L-4623 2094 L-4604 2085 L-4585 2076 L-4558 2066 L-4537 2054 L-4509 2042 L-4475 2028 L-4461 2016 L-4448 2006 L-4429 1997 L-4410 1989 L-4390 1981 L-4372 1972 L-4352 1962 L-4332 1953 L-4312 1944 L-4294 1936 L-4275 1927 L-4255 1918 L-4235 1908 L-4217 1897 L-4198 1885 L-4178 1872 L-4158 1859 L-4139 1847 L-4121 1834 L-4100 1819 L-4075 1803 L-4060 1787 L-4043 1773 L-4023 1758 L-4004 1743 L-3985 1728 L-3966 1712 L-3946 1697 L-3926 1681 L-3907 1667 L-3888 1652 L-3868 1639 L-3848 1625 L-3830 1612 L-3811 1600 L-3791 1588 L-3772 1578 L-3753 1567 L-3734 1556 L-3714 1546 L-3695 1535 L-3675 1524 L-3656 1513 L-3628 1503 L-3608 1493 L-3580 1483 L-3543 1471 L-3528 1459 L-3515 1448 L-3498 1438 L-3481 1431 L-3461 1424 L-3443 1418 L-3424 1412 L-3404 1406 L-3383 1400 L-3366 1393 L-3347 1386 L-3326 1378 L-3307 1371 L-3288 1362 L-3269 1354 L-3250 1345 L-3230 1335 L-3211 1325 L-3192 1316 L-3171 1307 L-3147 1297 L-3132 1288 L-3115 1278 L-3095 1268 L-3076 1259 L-3056 1249 L-3037 1239 L-3017 1229 L-2997 1219 L-2979 1209 L-2960 1200 L-2940 1191 L-2919 1183 L-2902 1175 L-2883 1167 L-2863 1159 L-2844 1151 L-2824 1142 L-2805 1135 L-2785 1127 L-2766 1120 L-2747 1112 L-2728 1105 L-2700 1097 L-2679 1090 L-2651 1081 L-2615 1069 L-2601 1058 L-2588 1047 L-2570 1038 L-2552 1032 L-2533 1026 L-2514 1019 L-2494 1011 L-2475 1003 L-2453 994 L-2435 984 L-2418 974 L-2398 964 L-2377 953 L-2359 941 L-2340 929 L-2321 917 L-2300 905 L-2282 895 L-2263 886 L-2242 879 L-2217 872 L-2203 867 L-2185 861 L-2166 855 L-2146 849 L-2127 842 L-2108 836 L-2089 830 L-2068 825 L-2050 821 L-2031 815 L-2011 808 L-1990 800 L-1973 792 L-1954 786 L-1934 781 L-1915 777 L-1896 774 L-1877 770 L-1857 766 L-1837 762 L-1818 757 L-1799 753 L-1772 749 L-1751 745 L-1723 741 L-1688 735 L-1675 731 L-1661 727 L-1643 723 L-1624 720 L-1604 717 L-1586 714 L-1566 710 L-1546 708 L-1525 705 L-1508 702 L-1490 698 L-1469 695 L-1449 691 L-1431 687 L-1412 684 L-1392 681 L-1372 678 L-1354 675 L-1335 671 L-1314 668 L-1289 666 L-1274 663 L-1257 660 L-1238 657 L-1218 654 L-1199 651 L-1180 647 L-1160 644 L-1139 640 L-1122 637 L-1103 634 L-1082 631 L-1062 628 L-1044 626 L-1025 623 L-1005 620 L-987 617 L-967 615 L-948 613 L-928 611 L-909 609 L-889 607 L-871 610 L-842 613 L-822 617 L-794 620 L-757 617 L-742 614 L-729 612 L-712 610 L-695 609 L-675 607 L-657 605 L-637 603 L-618 602 L-596 600 L-580 598 L-561 597 L-540 595 L-520 593 L-502 591 L-483 589 L-464 587 L-443 585 L-425 584 L-406 582 L-385 581 L-360 579 L-346 577 L-329 575 L-309 573 L-290 571 L-270 570 L-251 568 L-231 565 L-211 563 L-193 560 L-174 558 L-154 555 L-133 553 L-116 551 L-97 548 L-77 546 L-58 544 L-38 542 L-19 539 L0 537 L19 534 L38 533 L57 531 L85 529 L105 527 L133 524 L168 522 L182 520 L195 518 L214 516 L232 514 L252 512 L271 510 L290 508 L310 506 L331 504 L348 502 L367 500 L387 498 L407 496 L425 493 L444 490 L464 487 L484 484 L502 481 L521 478 L543 475 L568 472 L582 470 L599 467 L619 464 L638 461 L657 458 L676 455 L696 453 L717 450 L734 447 L754 445 L774 442 L795 440 L812 438 L831 436 L851 434 L870 432 L889 431 L908 429 L928 428 L948 426 L967 425 L986 424 L1013 422 L1034 420 L1062 419 L1097 416 L1111 413 L1124 410 L1143 407 L1161 406 L1181 404 L1199 402 L1219 401 L1238 399 L1259 397 L1276 395 L1295 393 L1316 391 L1336 388 L1354 386 L1373 384 L1392 381 L1413 379 L1431 377 L1450 375 L1471 373 L1496 372 L1511 370 L1528 368 L1547 366 L1567 364 L1586 362 L1605 359 L1625 356 L1646 353 L1663 350 L1682 347 L1703 345 L1723 343 L1740 341 L1759 339 L1779 338 L1798 337 L1818 335 L1837 334 L1857 332 L1876 331 L1895 330 L1914 328 L1941 327 L1962 326 L1990 324 L2024 323 L2039 322 L2052 320 L2070 319 L2089 318 L2109 317 L2127 316 L2147 315 L2167 314 L2187 313 L2205 312 L2224 311 L2244 310 L2264 308 L2282 307 L2301 306 L2321 305 L2341 304 L2360 304 L2378 303 L2399 302 L2424 301 L2439 300 L2456 299 L2476 297 L2495 296 L2514 295 L2533 294 L2553 293 L2574 291 L2592 289 L2610 286 L2631 284 L2651 282 L2669 281 L2688 279 L2708 278 L2727 276 L2746 274 L2765 273 L2785 272 L2804 270 L2824 269 L2843 268 L2871 267 L2919 266 L2956 265 L2971 264 L2983 263 L3000 262 L3018 261 L3037 261 L3056 260 L3075 259 L3095 258 L3116 257 L3133 257 L3152 256 L3172 255 L3192 254 L3211 253 L3229 252 L3250 251 L3269 250 L3288 249 L3307 248 L3328 246 L3352 244 L3367 243 L3384 241 L3404 239 L3423 238 L3443 236 L3462 235 L3482 233 L3502 231 L3520 230 L3539 228 L3559 227 L3580 226 L3597 225 L3616 224 L3636 222 L3655 221 L3675 220 L3694 219 L3714 218 L3733 217 L3753 216 L3771 214 L3800 213 L3820 212 L3848 210 L3884 208 L3899 205 L3912 203 L3929 201 L3947 200 L3967 198 L3985 197 L4005 196 L4024 196 L4046 195 L4062 193 L4081 192 L4102 190 L4122 189 L4140 187 L4159 184 L4178 182 L4199 180 L4217 178 L4236 176 L4257 174 L4282 173 L4297 171 L4315 170 L4333 168 L4353 167 L4372 165 L4391 163 L4411 162 L4432 160 L4449 158 L4468 157 L4488 155 L4509 154 L4526 153 L4545 151 L4565 150 L4584 149 L4604 148 L4622 146 L4642 145 L4662 144 L4681 143 L4700 142 L4728 997 L4748 996 L4776 994 L4812 992 L4826 134 L4839 133 L4857 131 L4875 130 L4895 130 L4913 129 L4933 128 L4953 126 L4974 125 L4991 123 L5009 121 L5030 119 L5050 117 L5068 115 L5087 113 L5107 110 L5128 109 L5145 107 L5164 106 L5186 104 L5211 103 L5226 100 L5255 98 L5295 95 L5318 93 L5347 90 L5364 88 L5377 86 L5397 84 L5417 83 L5438 82 L5455 80 L5474 79 L5494 78 L5513 77 L5532 77 L5551 76 L5571 75 L5591 74 L5610 73 L5628 72 L5656 71 L5677 69 L5705 68 L5740 67 L5753 65 L5785 64 L5804 63 L5824 62 L5842 61 L5862 61 L5881 60 L5902 59 L5919 58 L5938 56 L5959 53 L5979 49 L5997 45 L6016 41 L6036 38 L6056 35 L6074 33 L6093 31 L6114 30 L6139 28 L6154 27 L6171 25 L6190 23 L6210 22 L6229 20 L6248 19 L6268 17 L6289 15 L6306 13 L6325 12 L6346 10 L6367 9 L6383 8 L6402 7 L6422 6 L6442 5 L6461 4 L6480 3 L6500 1" />
</svg>
