<svg xmlns="http://www.w3.org/2000/svg" version="1.1" viewBox="0 0 6500 1000">
	<path fill="none" stroke="gold" stroke-width="125" stroke-linecap="round" stroke-linejoin="round" d="M0 3315  L-728101 3315 L-725497 3315 L-723829 3315 L-705500 3315 L-705329 3314 L-698172 3314 L-698138 3314 L-684708 3314 L-681786 3314 L-668445 3314 L-664276 3313 L-663116 3312 L-662497 3312 L-660485 3311 L-656713 3311 L-656113 3311 L-655784 3310 L-655571 3310 L-655029 3310 L-653791 3309 L-652613 3307 L-649748 3306 L-649226 3305 L-644370 3305 L-641433 3305 L-641390 3304 L-641082 3304 L-640830 3304 L-638235 3303 L-633980 3303 L-633962 3303 L-632725 3303 L-630847 3303 L-628894 3303 L-627946 3303 L-627675 3303 L-627365 3302 L-627267 3302 L-626437 3302 L-624406 3302 L-624116 3301 L-621969 3301 L-621814 3300 L-618157 3299 L-617906 3299 L-617808 3299 L-617291 3300 L-615139 3300 L-614211 3301 L-612685 3302 L-611445 3302 L-609899 3302 L-606937 3301 L-605815 3301 L-605506 3301 L-604295 3301 L-601288 3302 L-601268 3302 L-600921 3302 L-600708 3302 L-600582 3300 L-600340 3299 L-600302 3299 L-600282 3299 L-600263 3298 L-600204 3298 L-600146 3298 L-600128 3298 L-599685 3297 L-598445 3297 L-596899 3297 L-593512 3296 L-587785 3296 L-587584 3296 L-585948 3296 L-584226 3296 L-582794 3296 L-582562 3296 L-581846 3295 L-575714 3295 L-575346 3295 L-575192 3295 L-574614 3294 L-574321 3294 L-573354 3294 L-573044 3294 L-572445 3293 L-570839 3293 L-570104 3293 L-569794 3293 L-569026 3293 L-566990 3293 L-566564 3293 L-565752 3293 L-558323 3292 L-557800 3292 L-557627 3292 L-556891 3292 L-555324 3291 L-554918 3291 L-552693 3291 L-551745 3291 L-551320 3291 L-550990 3291 L-549946 3290 L-547838 3290 L-547586 3290 L-546967 3290 L-546154 3289 L-544046 3289 L-543998 3289 L-542070 3289 L-541744 3288 L-541609 3288 L-541106 3288 L-539693 3288 L-539190 3287 L-538668 3287 L-535109 3286 L-534374 3285 L-531949 3285 L-530659 3285 L-530252 3285 L-527100 3285 L-526945 3285 L-526925 3285 L-526558 3285 L-525300 3285 L-524585 3285 L-523695 3285 L-523288 3285 L-522360 3285 L-521251 3285 L-520948 3286 L-514699 3286 L-513752 3286 L-512125 3287 L-511624 3287 L-507948 3287 L-507116 3287 L-503162 3287 L-501751 3287 L-499261 3287 L-498585 3286 L-498546 3286 L-497675 3286 L-494464 3286 L-491601 3286 L-490633 3286 L-489512 3285 L-489493 3285 L-487868 3285 L-487403 3284 L-487311 3284 L-480942 3284 L-479994 3284 L-477537 3284 L-476664 3284 L-475428 3283 L-473427 3283 L-473029 3283 L-471593 3283 L-469567 3283 L-469354 3282 L-468174 3282 L-466665 3282 L-466645 3282 L-464633 3282 L-463763 3281 L-462893 3281 L-462308 3281 L-461770 3281 L-461113 3280 L-459875 3280 L-459314 3280 L-458133 3280 L-456895 3280 L-456857 3280 L-456470 3279 L-455928 3279 L-455154 3279 L-454032 3279 L-451943 3279 L-451610 3278 L-451324 3278 L-450395 3278 L-449912 3277 L-449177 3277 L-445545 3277 L-444418 3277 L-444263 3277 L-443237 3277 L-439522 3276 L-438305 3276 L-436487 3276 L-433701 3276 L-433139 3275 L-429252 3275 L-426775 3275 L-425440 3275 L-424937 3275 L-424454 3275 L-421764 3275 L-417993 3275 L-415535 3275 L-414356 3275 L-413716 3275 L-411357 3275 L-411279 3274 L-410232 3274 L-410138 3274 L-409636 3274 L-409190 3274 L-409132 3274 L-408919 3274 L-405959 3274 L-403252 3274 L-403097 3273 L-399576 3273 L-399053 3273 L-398086 3273 L-397737 3273 L-396693 3272 L-395764 3272 L-395339 3272 L-393830 3272 L-392863 3272 L-392844 3272 L-390948 3261 L-390832 3250 L-390784 3240 L-390760 3229 L-387755 3229 L-385725 3229 L-383964 3228 L-383597 3228 L-383151 3228 L-382784 3228 L-382370 3228 L-380385 3227 L-380172 3227 L-380017 3227 L-378412 3227 L-377290 3227 L-376342 3227 L-375085 3227 L-373440 3227 L-372261 3226 L-365671 3226 L-365624 3226 L-365219 3226 L-364174 3226 L-364038 3226 L-362356 3225 L-362336 3225 L-360999 3225 L-359763 3225 L-359609 3225 L-359235 3224 L-359028 3224 L-358719 3224 L-357945 3224 L-355624 3224 L-354966 3223 L-352838 3223 L-351116 3223 L-350922 3223 L-348369 3223 L-348092 3222 L-347904 3222 L-347072 3222 L-346299 3222 L-345601 3222 L-340601 3222 L-340225 3221 L-335972 3221 L-335485 3235 L-335466 3235 L-335387 3235 L-335311 3235 L-335291 3221 L-334479 3220 L-333725 3220 L-332506 3220 L-331074 3220 L-330978 3220 L-330803 3220 L-330449 3220 L-329139 3219 L-327282 3219 L-325580 3219 L-325077 3219 L-324812 3219 L-324419 3219 L-324284 3218 L-323375 3218 L-322998 3218 L-322070 3218 L-321731 3218 L-321691 3218 L-321653 3218 L-319738 3218 L-319564 3218 L-318035 3218 L-317707 3218 L-317591 3217 L-317184 3217 L-316836 3217 L-315192 3217 L-314641 3217 L-314398 3216 L-313857 3216 L-313025 3216 L-312484 3216 L-310949 3215 L-310857 3215 L-310820 3215 L-310684 3215 L-310297 3215 L-309272 3215 L-307396 3215 L-307299 3214 L-306699 3219 L-306332 3224 L-305847 3229 L-305809 3234 L-305035 3234 L-304978 3234 L-304803 3234 L-304610 3234 L-303005 3233 L-302985 3233 L-302829 3233 L-302714 3234 L-301534 3234 L-301380 3234 L-300713 3234 L-298265 3246 L-295750 3258 L-293080 3270 L-285381 3281 L-279713 3281 L-277498 3281 L-277475 3281 L-276501 3284 L-276481 3284 L-275618 3284 L-272877 3284 L-267079 3281 L-266925 3280 L-264139 3280 L-250531 3280 L-249785 3280 L-245375 3280 L-229028 3279 L-228796 3279 L-228259 3279 L-219800 3279 L-211094 3279 L-210882 3279 L-208909 3278 L-206123 3278 L-201636 3279 L-201481 3278 L-201312 3278 L-201171 3278 L-200881 3278 L-200842 3278 L-200571 3278 L-200399 3277 L-199989 3277 L-198869 3277 L-197688 3277 L-196412 3277 L-193548 3277 L-190628 3277 L-188636 3276 L-187088 3276 L-184050 3276 L-174725 3276 L-174201 3276 L-168478 3276 L-166971 3276 L-166156 3276 L-164472 3275 L-163751 3275 L-163583 3275 L-162538 3275 L-160471 3275 L-159109 3275 L-154665 3274 L-154568 3274 L-154529 3274 L-154510 3274 L-153678 3274 L-153600 3274 L-151028 3273 L-147778 3273 L-147624 3273 L-146675 3273 L-144934 3273 L-144219 3274 L-140678 3274 L-134101 3275 L-132683 3276 L-132663 3276 L-131712 3276 L-128238 3276 L-127485 3276 L-126923 3275 L-126141 3275 L-118637 3275 L-117038 3275 L-115464 3275 L-112279 3275 L-107946 3275 L-99376 3274 L-90630 3274 L-87556 3274 L-84290 3274 L-83744 3274 L-76606 3274 L-70939 3274 L-56874 3274 L-50863 3274 L-46157 3274 L-42153 3273 L-37046 3273 L-27332 3273 L-11761 3273 L-8678 3273 L-8376 3208 L-8357 3128 L-8338 3038 L-8318 2936 L-8298 2890 L-8279 2851 L-8260 2816 L-8233 2780 L-8212 2746 L-8184 2710 L-8149 2670 L-8135 2636 L-8122 2607 L-8104 2583 L-8085 2565 L-8065 2547 L-8047 2528 L-8027 2510 L-8008 2491 L-7986 2472 L-7970 2454 L-7951 2435 L-7930 2418 L-7910 2400 L-7892 2381 L-7873 2361 L-7854 2340 L-7833 2320 L-7815 2301 L-7796 2283 L-7775 2266 L-7750 2248 L-7735 2231 L-7718 2215 L-7699 2198 L-7679 2181 L-7660 2164 L-7641 2146 L-7621 2129 L-7601 2112 L-7583 2096 L-7564 2082 L-7543 2068 L-7523 2055 L-7506 2043 L-7487 2032 L-7467 2021 L-7448 2011 L-7428 2001 L-7409 1991 L-7389 1984 L-7370 1976 L-7351 1968 L-7332 1961 L-7305 1951 L-7284 1941 L-7256 1930 L-7222 1917 L-7208 1907 L-7194 1898 L-7176 1890 L-7157 1883 L-7137 1876 L-7119 1867 L-7099 1859 L-7079 1850 L-7059 1842 L-7041 1835 L-7022 1827 L-7002 1820 L-6982 1811 L-6964 1800 L-6945 1790 L-6925 1778 L-6905 1767 L-6886 1756 L-6868 1744 L-6846 1731 L-6822 1717 L-6807 1703 L-6790 1690 L-6770 1677 L-6751 1663 L-6732 1650 L-6713 1635 L-6693 1622 L-6672 1608 L-6654 1595 L-6635 1582 L-6615 1570 L-6595 1558 L-6577 1546 L-6558 1536 L-6538 1525 L-6519 1516 L-6500 1506 L-6481 1496 L-6461 1487 L-6442 1477 L-6422 1468 L-6403 1458 L-6375 1449 L-6355 1440 L-6327 1431 L-6290 1420 L-6275 1410 L-6262 1400 L-6245 1391 L-6228 1384 L-6208 1378 L-6190 1373 L-6171 1367 L-6151 1362 L-6130 1357 L-6113 1350 L-6094 1344 L-6073 1337 L-6054 1331 L-6035 1323 L-6016 1316 L-5996 1307 L-5977 1299 L-5958 1290 L-5939 1282 L-5918 1274 L-5894 1265 L-5879 1257 L-5862 1248 L-5842 1239 L-5823 1231 L-5803 1222 L-5784 1213 L-5764 1204 L-5744 1195 L-5726 1186 L-5707 1178 L-5687 1171 L-5666 1163 L-5649 1156 L-5629 1149 L-5610 1142 L-5591 1134 L-5571 1127 L-5552 1120 L-5532 1114 L-5513 1107 L-5494 1100 L-5475 1094 L-5447 1087 L-5426 1080 L-5398 1072 L-5362 1061 L-5348 1052 L-5335 1042 L-5317 1034 L-5299 1029 L-5280 1023 L-5261 1017 L-5241 1010 L-5222 1002 L-5200 994 L-5182 986 L-5165 977 L-5145 968 L-5124 958 L-5106 947 L-5087 936 L-5067 926 L-5047 915 L-5029 906 L-5010 898 L-4989 892 L-4964 886 L-4950 881 L-4932 876 L-4913 871 L-4893 865 L-4874 859 L-4855 853 L-4835 848 L-4815 844 L-4797 840 L-4778 835 L-4758 828 L-4737 821 L-4720 814 L-4701 809 L-4681 805 L-4662 801 L-4643 798 L-4624 795 L-4604 791 L-4584 787 L-4565 783 L-4546 780 L-4519 776 L-4498 772 L-4470 768 L-4435 764 L-4422 760 L-4408 756 L-4390 753 L-4371 750 L-4351 747 L-4333 744 L-4313 742 L-4293 739 L-4272 736 L-4255 734 L-4237 731 L-4216 727 L-4196 724 L-4178 721 L-4159 718 L-4139 715 L-4119 712 L-4101 709 L-4082 707 L-4061 704 L-4036 701 L-4021 699 L-4004 697 L-3985 694 L-3965 691 L-3946 688 L-3927 685 L-3907 682 L-3886 679 L-3869 676 L-3850 674 L-3829 671 L-3809 668 L-3791 666 L-3772 663 L-3752 661 L-3734 658 L-3714 656 L-3695 654 L-3675 653 L-3656 651 L-3636 649 L-3618 652 L-3589 655 L-3569 658 L-3541 660 L-3504 658 L-3489 656 L-3476 654 L-3458 652 L-3442 651 L-3422 649 L-3404 648 L-3384 646 L-3365 644 L-3343 643 L-3327 642 L-3308 640 L-3287 639 L-3267 637 L-3249 635 L-3230 633 L-3211 632 L-3190 630 L-3172 628 L-3153 627 L-3132 626 L-3107 624 L-3093 623 L-3075 621 L-3056 619 L-3037 617 L-3017 616 L-2998 614 L-2978 612 L-2958 610 L-2940 607 L-2921 605 L-2901 603 L-2880 601 L-2863 599 L-2844 597 L-2824 595 L-2805 593 L-2785 591 L-2766 589 L-2747 586 L-2727 584 L-2708 583 L-2689 581 L-2661 580 L-2641 578 L-2613 576 L-2578 573 L-2564 571 L-2551 570 L-2532 568 L-2514 566 L-2494 564 L-2475 563 L-2456 561 L-2436 559 L-2415 557 L-2398 556 L-2379 554 L-2359 552 L-2339 550 L-2321 547 L-2302 545 L-2282 542 L-2262 539 L-2244 536 L-2225 534 L-2203 532 L-2178 529 L-2164 527 L-2147 524 L-2127 521 L-2108 519 L-2089 516 L-2070 514 L-2050 511 L-2029 509 L-2012 507 L-1992 504 L-1972 502 L-1951 500 L-1934 498 L-1915 496 L-1895 495 L-1876 493 L-1857 492 L-1838 490 L-1818 489 L-1798 488 L-1779 487 L-1760 486 L-1733 484 L-1712 483 L-1684 481 L-1649 478 L-1635 476 L-1622 474 L-1603 471 L-1585 470 L-1565 468 L-1547 466 L-1527 465 L-1508 463 L-1487 462 L-1470 460 L-1451 458 L-1430 456 L-1410 454 L-1392 452 L-1373 450 L-1353 448 L-1333 446 L-1315 444 L-1296 442 L-1275 441 L-1250 439 L-1235 438 L-1218 436 L-1199 434 L-1179 432 L-1160 430 L-1141 428 L-1121 425 L-1100 422 L-1083 420 L-1064 417 L-1043 415 L-1023 413 L-1006 412 L-987 410 L-967 409 L-948 408 L-928 407 L-909 405 L-889 404 L-870 403 L-850 402 L-832 400 L-805 399 L-784 398 L-756 397 L-722 396 L-707 395 L-694 393 L-676 392 L-657 391 L-637 390 L-619 389 L-599 389 L-579 388 L-559 387 L-541 386 L-522 385 L-502 384 L-482 383 L-464 382 L-445 381 L-425 380 L-405 379 L-386 378 L-368 378 L-346 377 L-322 376 L-307 375 L-290 374 L-270 373 L-251 372 L-232 371 L-213 370 L-193 369 L-172 367 L-154 365 L-135 363 L-115 361 L-95 359 L-77 358 L-58 357 L-38 355 L-19 354 L0 352 L18 351 L38 350 L57 349 L77 348 L96 347 L124 346 L172 345 L209 344 L224 343 L236 342 L253 341 L271 341 L290 340 L309 339 L328 339 L348 338 L369 337 L386 336 L405 336 L425 335 L445 334 L464 334 L483 333 L503 332 L522 331 L541 330 L560 329 L581 327 L606 326 L620 324 L637 322 L657 321 L676 319 L696 318 L715 317 L735 315 L755 314 L773 313 L792 311 L813 310 L833 309 L850 308 L869 307 L890 306 L908 305 L928 304 L947 303 L967 302 L986 301 L1006 300 L1024 299 L1053 298 L1073 296 L1101 295 L1137 293 L1152 290 L1165 288 L1182 287 L1200 286 L1220 284 L1238 284 L1258 283 L1277 282 L1299 281 L1315 280 L1334 279 L1355 277 L1375 276 L1393 274 L1412 272 L1432 270 L1452 268 L1470 266 L1489 265 L1510 263 L1535 262 L1550 260 L1568 259 L1586 257 L1606 256 L1625 255 L1644 253 L1664 252 L1685 250 L1702 249 L1721 247 L1741 246 L1763 245 L1779 244 L1798 243 L1818 241 L1837 240 L1857 239 L1875 238 L1895 237 L1915 236 L1934 235 L1953 234 L1981 997 L2001 996 L2029 995 L2065 993 L2079 227 L2092 226 L2110 225 L2128 224 L2148 223 L2166 222 L2186 222 L2206 220 L2227 219 L2244 217 L2262 215 L2283 214 L2303 212 L2321 210 L2340 208 L2360 206 L2381 204 L2398 203 L2417 202 L2439 201 L2464 199 L2479 197 L2508 195 L2548 193 L2571 190 L2600 188 L2617 186 L2630 184 L2650 182 L2670 181 L2691 180 L2708 179 L2727 178 L2747 177 L2766 176 L2785 176 L2804 175 L2824 174 L2844 173 L2863 172 L2881 171 L2909 170 L2930 169 L2958 168 L2993 167 L3006 166 L3038 165 L3057 164 L3077 163 L3095 162 L3115 162 L3134 161 L3155 160 L3172 159 L3191 157 L3212 155 L3232 151 L3250 147 L3269 144 L3289 141 L3309 139 L3327 137 L3346 135 L3367 134 L3392 133 L3407 131 L3424 130 L3443 128 L3463 127 L3482 126 L3501 124 L3521 123 L3542 121 L3559 119 L3578 118 L3599 117 L3620 116 L3636 115 L3655 114 L3675 113 L3695 112 L3714 111 L3733 110 L3753 109 L3772 108 L3791 107 L3810 106 L3838 105 L3858 104 L3928 102 L3956 100 L3971 97 L3985 95 L4005 94 L4023 93 L4043 91 L4063 90 L4084 89 L4101 88 L4120 87 L4140 86 L4160 85 L4178 84 L4197 83 L4217 82 L4238 80 L4255 79 L4274 78 L4296 77 L4321 76 L4336 75 L4353 74 L4372 72 L4392 71 L4411 69 L4430 68 L4449 67 L4471 66 L4487 65 L4507 64 L4527 63 L4548 62 L4565 61 L4623 60 L4642 59 L4661 58 L4681 57 L4701 56 L4720 56 L4739 55 L4766 54 L4787 54 L4815 53 L4851 52 L4866 52 L4878 51 L4896 50 L4914 50 L4934 49 L4952 49 L4972 48 L4992 48 L5013 48 L5029 47 L5048 47 L5069 46 L5089 46 L5107 45 L5126 44 L5146 43 L5166 42 L5184 42 L5203 41 L5224 40 L5249 39 L5264 39 L5281 38 L5300 38 L5320 37 L5339 36 L5358 35 L5378 34 L5399 33 L5416 32 L5435 31 L5456 31 L5477 30 L5493 29 L5512 29 L5533 28 L5552 28 L5571 28 L5590 27 L5610 27 L5630 26 L5648 26 L5667 26 L5695 25 L5715 25 L5743 24 L5779 23 L5792 23 L5806 22 L5824 22 L5842 21 L5862 21 L5880 20 L5920 20 L5940 19 L5958 19 L5977 18 L5997 17 L6017 16 L6035 15 L6054 15 L6074 14 L6094 13 L6113 13 L6131 12 L6152 12 L6177 11 L6192 11 L6209 10 L6229 10 L6248 9 L6267 8 L6286 7 L6306 7 L6327 6 L6345 5 L6363 5 L6384 4 L6404 4 L6422 3 L6441 2 L6461 2 L6480 2 L6500 1" />
</svg>
