<svg xmlns="http://www.w3.org/2000/svg" version="1.1" viewBox="0 0 6500 1000">
	<path fill="none" stroke="gold" stroke-width="125" stroke-linecap="round" stroke-linejoin="round" d="M0 5198  L-723303 5198 L-720699 5198 L-719031 5197 L-700702 5197 L-700532 5196 L-693374 5196 L-693341 5196 L-679910 5196 L-676988 5196 L-663647 5195 L-659478 5194 L-658318 5193 L-657699 5192 L-655687 5191 L-651915 5191 L-651315 5190 L-650987 5190 L-650774 5189 L-650232 5189 L-648994 5187 L-647815 5185 L-644950 5183 L-644428 5181 L-639573 5180 L-636635 5180 L-636593 5179 L-636284 5179 L-636032 5178 L-633437 5178 L-629182 5178 L-629164 5178 L-627927 5178 L-626050 5178 L-624096 5177 L-623148 5177 L-622877 5176 L-622568 5176 L-622470 5176 L-621639 5176 L-619608 5176 L-619318 5174 L-617172 5173 L-617016 5172 L-613360 5170 L-613109 5171 L-613010 5171 L-612493 5171 L-610342 5173 L-609413 5174 L-607887 5175 L-606647 5175 L-605101 5175 L-602139 5174 L-601017 5174 L-600708 5173 L-599497 5173 L-596490 5176 L-596471 5175 L-596123 5175 L-595910 5175 L-595784 5172 L-595542 5171 L-595504 5171 L-595485 5170 L-595465 5170 L-595407 5169 L-595348 5169 L-595330 5168 L-594887 5168 L-593647 5167 L-592102 5167 L-588714 5166 L-582988 5166 L-582786 5166 L-581150 5165 L-579428 5165 L-577996 5165 L-577764 5165 L-577049 5164 L-570916 5164 L-570549 5164 L-570394 5163 L-569816 5163 L-569523 5162 L-568556 5162 L-568246 5161 L-567647 5161 L-566041 5161 L-565306 5161 L-564996 5161 L-564228 5161 L-562192 5161 L-561767 5160 L-560954 5160 L-553525 5159 L-553002 5159 L-552829 5158 L-552094 5158 L-550526 5157 L-550120 5157 L-547895 5157 L-546947 5156 L-546523 5156 L-546192 5156 L-545148 5156 L-543040 5155 L-542788 5155 L-542169 5155 L-541357 5154 L-539249 5154 L-539200 5153 L-537272 5153 L-536946 5152 L-536811 5152 L-536308 5152 L-534895 5151 L-534392 5150 L-533871 5149 L-530311 5148 L-529576 5147 L-527151 5147 L-525862 5147 L-525455 5147 L-522302 5147 L-522147 5147 L-522127 5147 L-521761 5147 L-520502 5147 L-519787 5147 L-518897 5147 L-518490 5147 L-517562 5147 L-516453 5147 L-516150 5148 L-509901 5149 L-508954 5149 L-507328 5150 L-506826 5150 L-503150 5150 L-502318 5150 L-498365 5151 L-496953 5150 L-494464 5149 L-493787 5149 L-493748 5149 L-492878 5149 L-489666 5148 L-486803 5148 L-485835 5148 L-484714 5147 L-484695 5147 L-483070 5146 L-482606 5146 L-482514 5145 L-476145 5145 L-475196 5145 L-472739 5145 L-471867 5144 L-470631 5144 L-468629 5144 L-468232 5143 L-466795 5143 L-464769 5143 L-464556 5142 L-463376 5142 L-461868 5142 L-461847 5141 L-459835 5141 L-458966 5141 L-458095 5140 L-457510 5140 L-456973 5139 L-456315 5139 L-455077 5138 L-454516 5138 L-453335 5138 L-452098 5138 L-452059 5137 L-451672 5137 L-451131 5137 L-450357 5136 L-449235 5136 L-447145 5136 L-446812 5135 L-446526 5135 L-445598 5135 L-445115 5134 L-444379 5134 L-440748 5134 L-439620 5133 L-439465 5133 L-438439 5133 L-434725 5132 L-433507 5132 L-431689 5131 L-428903 5131 L-428342 5131 L-424454 5131 L-421977 5130 L-420642 5130 L-420139 5130 L-419656 5130 L-416967 5130 L-413195 5130 L-410738 5130 L-409558 5130 L-408919 5130 L-406559 5129 L-406482 5129 L-405434 5129 L-405341 5128 L-404838 5128 L-404392 5128 L-404335 5128 L-404121 5128 L-401162 5128 L-398454 5127 L-398299 5127 L-394778 5127 L-394255 5126 L-393288 5126 L-392939 5126 L-391895 5125 L-390967 5125 L-390541 5125 L-389032 5125 L-388065 5124 L-388046 5124 L-386150 5106 L-386034 5088 L-385986 5070 L-385962 5052 L-382958 5052 L-380927 5051 L-379166 5051 L-378799 5051 L-378354 5050 L-377987 5050 L-377573 5049 L-375588 5049 L-375375 5049 L-375220 5049 L-373614 5049 L-372493 5049 L-371544 5048 L-370287 5048 L-368642 5048 L-367463 5047 L-360873 5047 L-360827 5047 L-360421 5047 L-359376 5046 L-359241 5046 L-357558 5046 L-357538 5045 L-356201 5045 L-354965 5045 L-354811 5044 L-354437 5044 L-354231 5044 L-353921 5043 L-353147 5043 L-350826 5043 L-350168 5042 L-348040 5042 L-346318 5042 L-346124 5041 L-343571 5041 L-343295 5041 L-343107 5040 L-342274 5040 L-341502 5040 L-340804 5039 L-335803 5039 L-335427 5039 L-331174 5039 L-330687 5063 L-330668 5063 L-330589 5063 L-330513 5062 L-330494 5038 L-329681 5037 L-328927 5037 L-327708 5037 L-326276 5037 L-326180 5036 L-326005 5036 L-325651 5036 L-324342 5036 L-322484 5035 L-320782 5035 L-320279 5035 L-320014 5034 L-319621 5034 L-319487 5034 L-318577 5034 L-318200 5033 L-317272 5033 L-316933 5033 L-316893 5033 L-316856 5033 L-314940 5033 L-314766 5033 L-313238 5033 L-312909 5032 L-312793 5032 L-312386 5032 L-312038 5031 L-310394 5031 L-309843 5031 L-309600 5030 L-309059 5030 L-308228 5030 L-307686 5029 L-306151 5029 L-306059 5029 L-306022 5028 L-305886 5028 L-305499 5028 L-304474 5028 L-302598 5028 L-302502 5027 L-301901 5035 L-301534 5043 L-301050 5052 L-301012 5060 L-300238 5061 L-300180 5060 L-300006 5060 L-299812 5060 L-298207 5059 L-298187 5059 L-298032 5059 L-297916 5060 L-296737 5060 L-296582 5061 L-295915 5061 L-293467 5081 L-290952 5101 L-288282 5121 L-280583 5141 L-274915 5141 L-272701 5140 L-272677 5140 L-271704 5145 L-271684 5145 L-270820 5145 L-268080 5145 L-262281 5139 L-262128 5139 L-259342 5139 L-245733 5138 L-244988 5138 L-240577 5137 L-224231 5137 L-223999 5137 L-223461 5136 L-215002 5136 L-206296 5136 L-206084 5136 L-204112 5135 L-201325 5135 L-196838 5136 L-196683 5135 L-196514 5135 L-196374 5135 L-196083 5135 L-196044 5135 L-195773 5134 L-195602 5134 L-195192 5134 L-194071 5134 L-192891 5133 L-191614 5133 L-188750 5133 L-185830 5133 L-183838 5132 L-182290 5132 L-179252 5132 L-169928 5131 L-169404 5131 L-163680 5131 L-162173 5131 L-161358 5131 L-159675 5130 L-158954 5130 L-158785 5130 L-157740 5130 L-155673 5129 L-154311 5129 L-149868 5129 L-149770 5129 L-149732 5128 L-149713 5128 L-148880 5128 L-148803 5127 L-146230 5127 L-142981 5127 L-142826 5127 L-141878 5126 L-140137 5126 L-139421 5127 L-135880 5129 L-129303 5130 L-127886 5132 L-127865 5132 L-126915 5132 L-123440 5131 L-122687 5131 L-122125 5131 L-121343 5130 L-113839 5130 L-112241 5130 L-110667 5130 L-107481 5129 L-103148 5129 L-94579 5129 L-85832 5129 L-82758 5129 L-79492 5128 L-78946 5128 L-71809 5128 L-66141 5128 L-52077 5128 L-46065 5128 L-41359 5128 L-37356 5127 L-32248 5127 L-22534 5127 L-6964 5126 L-3881 5126 L-3579 5016 L-3559 4881 L-3540 4727 L-3520 4556 L-3501 4478 L-3481 4412 L-3463 4351 L-3435 4291 L-3414 4233 L-3387 4172 L-3351 4104 L-3338 4047 L-3325 3998 L-3306 3957 L-3287 3926 L-3267 3896 L-3249 3864 L-3230 3833 L-3210 3802 L-3189 3770 L-3172 3738 L-3153 3707 L-3133 3677 L-3113 3647 L-3094 3614 L-3076 3581 L-3056 3546 L-3036 3513 L-3017 3480 L-2998 3449 L-2977 3419 L-2952 3389 L-2938 3361 L-2921 3333 L-2901 3305 L-2882 3277 L-2863 3247 L-2844 3216 L-2824 3187 L-2803 3160 L-2785 3133 L-2766 3108 L-2746 3085 L-2725 3062 L-2708 3043 L-2689 3024 L-2669 3005 L-2650 2988 L-2630 2971 L-2612 2955 L-2592 2942 L-2572 2929 L-2553 2916 L-2534 2903 L-2507 2886 L-2486 2869 L-2458 2850 L-2424 2829 L-2410 2812 L-2397 2797 L-2378 2783 L-2359 2771 L-2339 2759 L-2321 2744 L-2301 2730 L-2281 2716 L-2261 2703 L-2243 2690 L-2225 2677 L-2204 2664 L-2185 2649 L-2166 2631 L-2147 2613 L-2127 2594 L-2108 2575 L-2089 2555 L-2070 2536 L-2049 2513 L-2025 2490 L-2010 2466 L-1993 2444 L-1973 2422 L-1954 2399 L-1934 2376 L-1915 2352 L-1895 2328 L-1875 2306 L-1857 2283 L-1838 2261 L-1818 2241 L-1797 2220 L-1779 2201 L-1760 2183 L-1740 2164 L-1722 2149 L-1702 2132 L-1683 2116 L-1663 2100 L-1644 2084 L-1624 2067 L-1606 2052 L-1577 2035 L-1557 2021 L-1529 2005 L-1492 1987 L-1477 1969 L-1465 1953 L-1448 1938 L-1430 1927 L-1411 1916 L-1392 1907 L-1373 1898 L-1353 1889 L-1332 1879 L-1315 1869 L-1296 1858 L-1276 1847 L-1256 1835 L-1238 1823 L-1219 1810 L-1199 1796 L-1179 1782 L-1160 1767 L-1141 1753 L-1120 1739 L-1096 1724 L-1081 1710 L-1064 1696 L-1044 1681 L-1025 1667 L-1005 1652 L-987 1636 L-967 1621 L-946 1606 L-928 1591 L-909 1578 L-889 1564 L-869 1551 L-851 1540 L-832 1527 L-812 1515 L-793 1503 L-773 1491 L-754 1479 L-735 1468 L-715 1456 L-696 1445 L-677 1434 L-649 1422 L-629 1411 L-601 1397 L-565 1379 L-550 1363 L-537 1347 L-520 1333 L-502 1324 L-482 1315 L-463 1303 L-444 1292 L-424 1279 L-403 1265 L-384 1251 L-367 1236 L-347 1220 L-327 1203 L-309 1186 L-290 1168 L-270 1149 L-249 1132 L-232 1116 L-213 1102 L-191 1092 L-166 1082 L-152 1074 L-134 1065 L-115 1056 L-96 1046 L-77 1036 L-58 1027 L-38 1018 L-17 1011 L0 1004 L19 995 L39 985 L60 972 L77 961 L96 951 L116 944 L135 939 L154 933 L173 928 L193 921 L213 915 L232 908 L250 902 L278 895 L299 890 L327 883 L362 875 L375 868 L388 862 L407 857 L426 852 L446 847 L464 842 L484 837 L503 833 L524 829 L541 824 L560 819 L581 813 L601 808 L619 802 L638 797 L657 792 L678 788 L696 783 L715 778 L736 774 L761 769 L775 765 L793 761 L812 757 L831 752 L851 747 L870 742 L890 736 L911 731 L928 726 L947 722 L967 717 L988 713 L1005 709 L1024 705 L1044 701 L1063 696 L1083 693 L1102 689 L1122 686 L1141 683 L1160 680 L1179 686 L1208 690 L1228 696 L1256 700 L1293 696 L1308 692 L1321 689 L1338 686 L1354 684 L1374 681 L1393 678 L1412 675 L1432 673 L1453 670 L1470 668 L1489 666 L1509 663 L1529 660 L1547 657 L1566 654 L1586 651 L1606 648 L1624 646 L1643 643 L1665 641 L1689 639 L1704 636 L1721 633 L1741 630 L1760 627 L1779 625 L1798 621 L1818 618 L1839 614 L1857 610 L1876 606 L1896 602 L1917 599 L1934 596 L1953 592 L1973 589 L1992 586 L2012 582 L2030 578 L2050 574 L2070 571 L2089 569 L2108 566 L2135 563 L2156 560 L2184 556 L2219 552 L2232 549 L2246 546 L2265 543 L2283 540 L2303 537 L2321 534 L2341 531 L2361 528 L2382 525 L2399 522 L2417 520 L2438 516 L2458 512 L2476 508 L2495 504 L2515 499 L2535 494 L2553 490 L2572 486 L2593 482 L2618 477 L2633 473 L2650 469 L2669 464 L2689 460 L2708 456 L2727 451 L2747 447 L2768 443 L2785 439 L2804 435 L2825 432 L2846 428 L2863 425 L2882 422 L2902 420 L2920 417 L2940 414 L2959 412 L2979 410 L2999 407 L3018 405 L3036 404 L3064 401 L3085 399 L3112 396 L3148 392 L3162 387 L3175 383 L3193 379 L3211 376 L3231 374 L3250 371 L3269 369 L3289 366 L3310 363 L3327 360 L3346 357 L3366 354 L3386 350 L3405 346 L3423 343 L3443 339 L3464 336 L3482 333 L3501 330 L3522 328 L3547 325 L3561 322 L3579 319 L3598 316 L3618 313 L3637 310 L3656 306 L3676 301 L3697 296 L3714 292 L3733 288 L3753 284 L3774 281 L3791 278 L3810 276 L3830 274 L3849 272 L3869 270 L3887 268 L3907 266 L3927 263 L3946 262 L3965 259 L3992 257 L4013 256 L4041 253 L4075 251 L4089 249 L4102 248 L4121 246 L4140 244 L4160 242 L4178 241 L4198 239 L4217 238 L4238 237 L4255 235 L4274 233 L4295 231 L4315 229 L4333 228 L4352 226 L4372 224 L4392 223 L4410 222 L4429 221 L4450 220 L4475 218 L4489 216 L4507 214 L4526 213 L4546 211 L4565 210 L4584 208 L4604 206 L4624 203 L4642 200 L4661 196 L4682 192 L4702 190 L4720 187 L4739 185 L4759 183 L4777 181 L4797 178 L4816 176 L4836 174 L4855 172 L4875 170 L4893 169 L4922 167 L4970 166 L5007 164 L5021 162 L5034 160 L5051 159 L5069 158 L5088 157 L5107 156 L5126 155 L5146 153 L5167 152 L5184 151 L5203 150 L5223 149 L5243 148 L5261 146 L5280 145 L5300 143 L5320 142 L5339 140 L5358 138 L5379 135 L5403 132 L5418 130 L5435 127 L5455 125 L5474 122 L5494 120 L5512 118 L5532 115 L5553 113 L5571 111 L5590 108 L5610 106 L5630 104 L5648 103 L5667 101 L5687 99 L5706 98 L5726 96 L5744 94 L5764 93 L5784 91 L5803 89 L5822 87 L5850 85 L5870 83 L5898 81 L5935 77 L5950 73 L5962 70 L5980 67 L5997 65 L6017 63 L6036 61 L6055 60 L6075 59 L6096 57 L6113 55 L6131 53 L6152 51 L6173 48 L6190 45 L6210 42 L6229 38 L6250 35 L6267 32 L6286 29 L6308 27 L6333 24 L6348 22 L6365 19 L6384 17 L6404 15 L6422 13 L6441 10 L6461 7 L6483 5 L6500 2" />
</svg>
