<svg xmlns="http://www.w3.org/2000/svg" version="1.1" viewBox="0 0 6500 1000">
	<path fill="none" stroke="gold" stroke-width="125" stroke-linecap="round" stroke-linejoin="round" d="M0 1015  L-719221 1015 L-716617 1015 L-714949 1015 L-696620 1015 L-696449 1015 L-689292 1015 L-689258 1015 L-675828 1015 L-672906 1015 L-659565 1015 L-655396 1014 L-654236 1014 L-653617 1014 L-651605 1014 L-647833 1014 L-647233 1013 L-646904 1013 L-646691 1013 L-646150 1013 L-644912 1013 L-643733 1012 L-640868 1012 L-640346 1011 L-635490 1011 L-632553 1011 L-632510 1011 L-632202 1011 L-631950 1011 L-629355 1011 L-625100 1011 L-625082 1011 L-623845 1011 L-621967 1011 L-620014 1011 L-619066 1011 L-618795 1010 L-618485 1010 L-618387 1010 L-617557 1010 L-615526 1010 L-615236 1010 L-613089 1010 L-612934 1009 L-609277 1009 L-609026 1009 L-608928 1009 L-608411 1009 L-606260 1010 L-605331 1010 L-603805 1010 L-602565 1010 L-601019 1010 L-598057 1010 L-596935 1010 L-596626 1010 L-595415 1010 L-592408 1010 L-592388 1010 L-592041 1010 L-591828 1010 L-591702 1009 L-591460 1009 L-591422 1009 L-591402 1009 L-591383 1009 L-591324 1009 L-591266 1009 L-591248 1009 L-590805 1009 L-589565 1008 L-588019 1008 L-584632 1008 L-578905 1008 L-578704 1008 L-577068 1008 L-575346 1008 L-573914 1008 L-573682 1008 L-572966 1008 L-566834 1008 L-566466 1008 L-566312 1008 L-565734 1008 L-565441 1007 L-564474 1007 L-564164 1007 L-563565 1007 L-561959 1007 L-561224 1007 L-560914 1007 L-560146 1007 L-558110 1007 L-557684 1007 L-556872 1007 L-549443 1007 L-548920 1007 L-548747 1007 L-548012 1006 L-546444 1006 L-546038 1006 L-543813 1006 L-542865 1006 L-542440 1006 L-542110 1006 L-541066 1006 L-538958 1006 L-538706 1006 L-538087 1006 L-537274 1006 L-535166 1006 L-535118 1005 L-533190 1005 L-532864 1005 L-532729 1005 L-532226 1005 L-530813 1005 L-530310 1005 L-529788 1005 L-526229 1004 L-525494 1004 L-523069 1004 L-521779 1004 L-521372 1004 L-518220 1004 L-518065 1004 L-518045 1004 L-517678 1004 L-516420 1004 L-515705 1004 L-514815 1004 L-514408 1004 L-513480 1004 L-512371 1004 L-512068 1004 L-505819 1004 L-504872 1005 L-503245 1005 L-502744 1005 L-499068 1005 L-498236 1005 L-494282 1005 L-492871 1005 L-490381 1005 L-489705 1005 L-489666 1004 L-488795 1004 L-485584 1004 L-482721 1004 L-481753 1004 L-480632 1004 L-480613 1004 L-478988 1004 L-478523 1004 L-478432 1004 L-472062 1004 L-471114 1004 L-468657 1004 L-467784 1004 L-466548 1003 L-464547 1003 L-464149 1003 L-462713 1003 L-460687 1003 L-460474 1003 L-459294 1003 L-457785 1003 L-457765 1003 L-455753 1003 L-454883 1003 L-454013 1003 L-453428 1003 L-452891 1002 L-452233 1002 L-450995 1002 L-450434 1002 L-449253 1002 L-448015 1002 L-447977 1002 L-447590 1002 L-447048 1002 L-446275 1002 L-445152 1002 L-443063 1002 L-442730 1002 L-442444 1001 L-441515 1001 L-441032 1001 L-440297 1001 L-436666 1001 L-435538 1001 L-435383 1001 L-434357 1001 L-430643 1001 L-429425 1001 L-427607 1001 L-424821 1001 L-424259 1001 L-420372 1001 L-417895 1000 L-416560 1000 L-416057 1000 L-415574 1000 L-412884 1000 L-409113 1000 L-406655 1000 L-405476 1000 L-404836 1000 L-402477 1000 L-402399 1000 L-401352 1000 L-401258 1000 L-400756 1000 L-400310 1000 L-400252 1000 L-400039 1000 L-397079 1000 L-394372 1000 L-394217 1000 L-390696 1000 L-390173 1000 L-389206 1000 L-388857 999 L-387813 999 L-386884 999 L-386459 999 L-384950 999 L-383983 999 L-383964 999 L-382068 995 L-381952 991 L-381904 987 L-381880 983 L-378876 983 L-376845 983 L-375084 983 L-374717 983 L-374271 983 L-373904 983 L-373490 983 L-371505 983 L-371292 983 L-371137 983 L-369532 983 L-368410 983 L-367462 983 L-366205 983 L-364560 983 L-363381 982 L-356791 982 L-356745 982 L-356339 982 L-355294 982 L-355158 982 L-353476 982 L-353456 982 L-352119 982 L-350883 982 L-350729 982 L-350355 982 L-350148 982 L-349839 982 L-349065 982 L-346744 981 L-346086 981 L-343958 981 L-342236 981 L-342042 981 L-339489 981 L-339212 981 L-339024 981 L-338192 981 L-337419 981 L-336721 981 L-331721 981 L-331345 981 L-327092 981 L-326605 986 L-326586 986 L-326507 986 L-326431 986 L-326411 980 L-325599 980 L-324845 980 L-323626 980 L-322194 980 L-322098 980 L-321923 980 L-321569 980 L-320259 980 L-318402 980 L-316700 980 L-316197 980 L-315932 980 L-315539 980 L-315404 980 L-314495 979 L-314118 979 L-313190 979 L-312851 979 L-312811 979 L-312773 979 L-310858 979 L-310684 979 L-309155 979 L-308827 979 L-308711 979 L-308304 979 L-307956 979 L-306312 979 L-305761 979 L-305518 979 L-304977 979 L-304145 979 L-303604 979 L-302069 978 L-301977 978 L-301940 978 L-301804 978 L-301417 978 L-300392 978 L-298516 978 L-298419 978 L-297819 980 L-297452 982 L-296967 983 L-296929 985 L-296155 985 L-296098 985 L-295923 985 L-295730 985 L-294125 985 L-294105 985 L-293949 985 L-293834 985 L-292654 985 L-292500 985 L-291833 985 L-289385 990 L-286870 994 L-284200 998 L-276501 1003 L-270833 1003 L-268618 1003 L-268595 1003 L-267621 1004 L-267601 1004 L-266738 1004 L-263997 1004 L-258199 1002 L-258045 1002 L-255260 1002 L-241651 1002 L-240905 1002 L-236495 1002 L-220148 1002 L-219916 1002 L-219379 1002 L-210920 1002 L-202214 1002 L-202002 1002 L-200029 1002 L-197243 1002 L-192756 1002 L-192601 1002 L-192432 1002 L-192291 1002 L-192001 1001 L-191962 1001 L-191691 1001 L-191519 1001 L-191109 1001 L-189989 1001 L-188808 1001 L-187532 1001 L-184668 1001 L-181748 1001 L-179756 1001 L-178208 1001 L-175170 1001 L-165846 1001 L-165322 1001 L-159598 1001 L-158091 1001 L-157276 1001 L-155593 1000 L-154872 1000 L-154703 1000 L-153658 1000 L-151591 1000 L-150229 1000 L-145785 1000 L-145688 1000 L-145649 1000 L-145630 1000 L-144798 1000 L-144720 1000 L-142148 1000 L-138898 1000 L-138744 1000 L-137795 1000 L-136054 1000 L-135339 1000 L-131798 1000 L-125221 1000 L-123803 1001 L-123783 1001 L-122832 1001 L-119358 1001 L-118605 1001 L-118043 1001 L-117261 1000 L-109757 1000 L-108158 1000 L-106584 1000 L-103399 1000 L-99066 1000 L-90496 1000 L-81750 1000 L-78676 1000 L-75410 1000 L-74864 1000 L-67726 1000 L-62059 1000 L-47994 1000 L-41983 1000 L-37277 1000 L-33273 1000 L-28166 1000 L-18452 1000 L-2881 1000 L201 999 L503 976 L522 946 L541 913 L561 876 L581 859 L600 845 L618 831 L646 818 L667 806 L695 793 L730 778 L744 765 L757 755 L775 746 L794 739 L814 733 L832 726 L852 719 L871 712 L893 705 L909 698 L928 692 L949 685 L969 679 L987 672 L1006 664 L1025 657 L1046 649 L1064 642 L1083 636 L1104 629 L1129 623 L1143 617 L1161 611 L1180 604 L1200 598 L1219 592 L1238 585 L1258 579 L1278 573 L1296 567 L1315 562 L1336 557 L1356 552 L1373 548 L1392 543 L1412 539 L1431 536 L1451 532 L1470 528 L1490 526 L1509 523 L1528 520 L1547 517 L1574 514 L1595 510 L1623 506 L1657 501 L1671 497 L1684 494 L1703 491 L1722 489 L1742 486 L1760 483 L1780 480 L1800 477 L1820 474 L1838 471 L1857 468 L1877 465 L1897 462 L1915 458 L1934 454 L1954 450 L1974 446 L1993 442 L2011 437 L2032 433 L2057 427 L2072 422 L2089 417 L2109 413 L2128 408 L2147 403 L2166 398 L2186 393 L2206 388 L2225 383 L2244 378 L2264 374 L2284 369 L2302 365 L2321 361 L2341 357 L2360 354 L2379 350 L2398 346 L2418 343 L2437 339 L2457 336 L2476 332 L2504 329 L2524 326 L2552 322 L2589 318 L2604 315 L2617 311 L2634 308 L2651 305 L2671 303 L2689 301 L2708 299 L2728 297 L2749 295 L2766 293 L2785 290 L2806 288 L2825 286 L2844 283 L2863 280 L2882 277 L2902 274 L2921 271 L2940 268 L2961 265 L2985 261 L3000 258 L3017 255 L3037 252 L3056 249 L3076 246 L3095 242 L3115 239 L3135 236 L3153 232 L3172 230 L3192 227 L3213 224 L3230 221 L3249 219 L3269 216 L3288 213 L3308 211 L3327 208 L3347 206 L3366 203 L3385 201 L3404 198 L3432 196 L3453 193 L3481 191 L3517 187 L3531 183 L3544 180 L3562 176 L3580 175 L3599 173 L3618 170 L3638 168 L3657 165 L3679 162 L3697 159 L3714 156 L3734 152 L3755 148 L3773 145 L3792 141 L3811 137 L3832 133 L3850 129 L3869 126 L3890 124 L3915 122 L3929 120 L3947 118 L3966 116 L3986 114 L4005 112 L4024 110 L4043 108 L4064 107 L4082 105 L4101 103 L4121 101 L4142 98 L4159 96 L4178 94 L4198 92 L4217 91 L4236 90 L4255 89 L4275 87 L4295 86 L4314 84 L4333 83 L4360 82 L4381 80 L4409 79 L4444 77 L4457 76 L4471 74 L4489 73 L4508 72 L4528 71 L4546 70 L4566 69 L4586 68 L4607 67 L4624 66 L4642 65 L4663 64 L4683 63 L4701 61 L4720 60 L4740 59 L4760 58 L4778 57 L4797 56 L4818 55 L4843 54 L4858 53 L4875 52 L4894 51 L4914 50 L4933 49 L4952 48 L4972 47 L4993 46 L5010 45 L5029 44 L5050 43 L5070 42 L5088 41 L5107 40 L5127 39 L5145 38 L5165 38 L5184 37 L5204 36 L5223 36 L5243 35 L5261 36 L5290 37 L5310 38 L5338 39 L5375 38 L5390 37 L5403 37 L5420 36 L5437 36 L5457 35 L5475 34 L5495 34 L5514 33 L5536 33 L5552 32 L5571 32 L5592 31 L5612 30 L5630 30 L5649 29 L5668 29 L5689 28 L5707 27 L5726 27 L5747 26 L5772 26 L5786 25 L5803 25 L5823 24 L5842 23 L5862 23 L5881 22 L5901 21 L5921 20 L5939 20 L5958 19 L5978 18 L5999 17 L6016 17 L6035 16 L6055 15 L6074 14 L6094 14 L6113 13 L6132 12 L6152 11 L6171 11 L6190 10 L6218 9 L6238 9 L6266 8 L6301 7 L6315 6 L6328 6 L6347 5 L6365 4 L6385 4 L6404 3 L6423 3 L6443 2 L6464 1 L6481 1 L6500 0" />
</svg>
