<svg xmlns="http://www.w3.org/2000/svg" version="1.1" viewBox="0 0 6500 1000">
	<path fill="none" stroke="gold" stroke-width="125" stroke-linecap="round" stroke-linejoin="round" d="M0 1125  L-713283 1125 L-710679 1125 L-709011 1124 L-690681 1123 L-690511 1122 L-683353 1122 L-683320 1122 L-669889 1121 L-666967 1122 L-653626 1120 L-649457 1119 L-648297 1116 L-647678 1114 L-645666 1113 L-641894 1112 L-641294 1111 L-640966 1110 L-640753 1110 L-640211 1109 L-638973 1105 L-637794 1102 L-634930 1098 L-634407 1095 L-629552 1094 L-626615 1093 L-626572 1092 L-626263 1092 L-626011 1091 L-623417 1090 L-619161 1090 L-619143 1090 L-617906 1090 L-616029 1090 L-614075 1089 L-613127 1088 L-612857 1087 L-612547 1087 L-612449 1087 L-611618 1087 L-609587 1087 L-609297 1083 L-607151 1081 L-606995 1079 L-603339 1076 L-603088 1078 L-602989 1077 L-602472 1078 L-600321 1081 L-599392 1083 L-597866 1085 L-596627 1085 L-595080 1084 L-592118 1084 L-590996 1083 L-590687 1082 L-589476 1081 L-586469 1086 L-586450 1086 L-586102 1085 L-585889 1085 L-585763 1079 L-585521 1078 L-585484 1077 L-585464 1076 L-585445 1075 L-585386 1075 L-585327 1074 L-585309 1073 L-584866 1072 L-583627 1071 L-582081 1070 L-578693 1069 L-572967 1069 L-572765 1069 L-571129 1068 L-569408 1068 L-567975 1067 L-567743 1067 L-567028 1066 L-560896 1066 L-560528 1065 L-560373 1064 L-559795 1063 L-559502 1063 L-558535 1062 L-558226 1061 L-557627 1060 L-556020 1060 L-555285 1060 L-554975 1060 L-554207 1060 L-552171 1060 L-551746 1059 L-550933 1058 L-543505 1057 L-542982 1057 L-542808 1056 L-542073 1055 L-540505 1054 L-540100 1054 L-537875 1053 L-536927 1052 L-536502 1052 L-536171 1052 L-535128 1051 L-533019 1051 L-532767 1050 L-532148 1049 L-531336 1048 L-529228 1048 L-529179 1047 L-527251 1046 L-526925 1045 L-526790 1044 L-526287 1044 L-524875 1043 L-524372 1041 L-523850 1040 L-520290 1038 L-519555 1037 L-517130 1037 L-515841 1036 L-515434 1035 L-512281 1035 L-512127 1035 L-512106 1036 L-511740 1036 L-510481 1036 L-509767 1037 L-508877 1037 L-508470 1037 L-507541 1037 L-506432 1036 L-506129 1038 L-499880 1039 L-498933 1040 L-497307 1040 L-496805 1041 L-493129 1041 L-492297 1042 L-488344 1042 L-486932 1041 L-484443 1040 L-483766 1039 L-483728 1039 L-482857 1039 L-479646 1038 L-476782 1038 L-475814 1037 L-474693 1037 L-474674 1036 L-473049 1035 L-472585 1034 L-472493 1033 L-466124 1033 L-465175 1032 L-462718 1032 L-461846 1031 L-460610 1031 L-458608 1030 L-458211 1029 L-456775 1028 L-454748 1028 L-454535 1027 L-453355 1027 L-451847 1026 L-451827 1026 L-449814 1025 L-448945 1025 L-448074 1024 L-447489 1023 L-446952 1022 L-446294 1022 L-445056 1021 L-444496 1020 L-443314 1020 L-442077 1019 L-442038 1019 L-441651 1019 L-441110 1018 L-440336 1017 L-439214 1017 L-437125 1016 L-436791 1015 L-436505 1014 L-435577 1014 L-435094 1013 L-434358 1013 L-430727 1012 L-429599 1012 L-429445 1011 L-428419 1010 L-424704 1010 L-423487 1009 L-421668 1008 L-418882 1008 L-418321 1007 L-414433 1007 L-411957 1007 L-410622 1007 L-410118 1006 L-409635 1006 L-406946 1006 L-403174 1006 L-400717 1006 L-399537 1006 L-398898 1005 L-396538 1004 L-396461 1004 L-395413 1004 L-395320 1003 L-394817 1003 L-394372 1003 L-394314 1003 L-394100 1003 L-391141 1002 L-388433 1001 L-388278 1001 L-384757 1001 L-384235 1000 L-383267 999 L-382918 999 L-381875 998 L-380946 997 L-380520 996 L-379011 996 L-378044 996 L-378025 996 L-376129 964 L-376013 932 L-375965 901 L-375941 869 L-372937 869 L-370906 868 L-369145 867 L-368778 867 L-368333 866 L-367966 866 L-367552 865 L-365567 864 L-365354 864 L-365199 864 L-363594 864 L-362472 864 L-361523 863 L-360266 862 L-358622 862 L-357442 861 L-350853 861 L-350806 860 L-350400 860 L-349355 859 L-349220 859 L-347537 858 L-347517 858 L-346180 857 L-344944 856 L-344790 856 L-344416 855 L-344210 855 L-343900 854 L-343127 853 L-340805 853 L-340147 852 L-338019 852 L-336297 852 L-336104 851 L-333550 850 L-333274 849 L-333086 849 L-332253 848 L-331481 848 L-330783 847 L-325782 847 L-325406 846 L-321153 846 L-320666 888 L-320647 888 L-320568 888 L-320493 887 L-320473 844 L-319660 843 L-318906 843 L-317687 842 L-316255 842 L-316159 842 L-315985 842 L-315630 841 L-314321 840 L-312464 840 L-310761 839 L-310258 839 L-309993 838 L-309600 838 L-309466 837 L-308556 837 L-308180 837 L-307251 837 L-306912 836 L-306872 836 L-306835 836 L-304919 836 L-304746 835 L-303217 835 L-302889 835 L-302772 834 L-302365 834 L-302017 833 L-300374 832 L-299823 832 L-299579 831 L-299038 831 L-298207 830 L-297665 830 L-296131 829 L-296038 828 L-296001 828 L-295865 828 L-295478 827 L-294453 827 L-292577 826 L-292481 826 L-291880 840 L-291513 854 L-291029 869 L-290991 884 L-290217 884 L-290159 884 L-289985 883 L-289791 883 L-288186 882 L-288166 881 L-288011 882 L-287895 883 L-286716 883 L-286561 884 L-285894 884 L-283446 919 L-280931 955 L-278261 990 L-270562 1025 L-264894 1025 L-262680 1024 L-262656 1024 L-261683 1033 L-261663 1033 L-260799 1032 L-258059 1031 L-252260 1022 L-252107 1022 L-249321 1021 L-235713 1020 L-234967 1020 L-230556 1019 L-214210 1019 L-213978 1018 L-213441 1017 L-204981 1017 L-196276 1016 L-196063 1016 L-194091 1016 L-191304 1016 L-186817 1016 L-186662 1016 L-186493 1016 L-186353 1015 L-186062 1014 L-186023 1014 L-185753 1013 L-185581 1013 L-185171 1013 L-184050 1012 L-182870 1012 L-181593 1011 L-178729 1011 L-175809 1010 L-173817 1010 L-172269 1009 L-169231 1009 L-159907 1008 L-159383 1008 L-153659 1008 L-152152 1007 L-151337 1007 L-149654 1007 L-148933 1006 L-148764 1006 L-147719 1005 L-145652 1005 L-144290 1004 L-139847 1004 L-139749 1004 L-139711 1003 L-139692 1003 L-138859 1002 L-138782 1001 L-136209 1001 L-132960 1001 L-132805 1000 L-131857 1000 L-130116 999 L-129400 1001 L-125860 1004 L-119282 1006 L-117865 1010 L-117844 1009 L-116894 1009 L-113419 1008 L-112666 1007 L-112104 1007 L-111322 1007 L-103818 1006 L-102220 1006 L-100646 1005 L-97460 1005 L-93127 1004 L-84558 1004 L-75811 1004 L-72737 1004 L-69471 1003 L-68925 1002 L-61788 1002 L-56120 1002 L-42056 1002 L-36044 1002 L-31338 1002 L-27335 1001 L-22227 1001 L-12513 1000 L3056 999 L6139 999 L6441 806 L6461 570 L6480 300 L6500 0" />
</svg>
