<svg xmlns="http://www.w3.org/2000/svg" version="1.1" viewBox="0 0 6500 1000">
	<path fill="none" stroke="gold" stroke-width="125" stroke-linecap="round" stroke-linejoin="round" d="M0 3436  L-726480 3436 L-723876 3436 L-722208 3436 L-703879 3436 L-703708 3435 L-696551 3435 L-696517 3435 L-683086 3435 L-680165 3435 L-666824 3435 L-662655 3434 L-661495 3433 L-660876 3432 L-658864 3432 L-655092 3432 L-654492 3431 L-654163 3431 L-653950 3431 L-653408 3430 L-652170 3429 L-650992 3428 L-648127 3427 L-647605 3426 L-642749 3425 L-639812 3425 L-639769 3425 L-639461 3424 L-639209 3424 L-636614 3424 L-632359 3424 L-632341 3424 L-631104 3424 L-629226 3424 L-627273 3423 L-626325 3423 L-626054 3423 L-625744 3423 L-625646 3423 L-624816 3423 L-622785 3423 L-622495 3421 L-620348 3421 L-620193 3420 L-616536 3419 L-616285 3419 L-616187 3419 L-615670 3420 L-613518 3420 L-612590 3421 L-611064 3422 L-609824 3422 L-608278 3422 L-605316 3421 L-604194 3421 L-603885 3421 L-602674 3421 L-599667 3422 L-599647 3422 L-599300 3422 L-599087 3422 L-598961 3420 L-598719 3420 L-598681 3419 L-598661 3419 L-598642 3419 L-598583 3418 L-598525 3418 L-598507 3418 L-598063 3417 L-596824 3417 L-595278 3417 L-591891 3416 L-586164 3416 L-585963 3416 L-584327 3416 L-582605 3416 L-581173 3416 L-580941 3416 L-580225 3415 L-574093 3415 L-573725 3415 L-573571 3415 L-572993 3414 L-572700 3414 L-571733 3414 L-571423 3413 L-570824 3413 L-569218 3413 L-568483 3413 L-568173 3413 L-567405 3413 L-565369 3413 L-564943 3413 L-564131 3413 L-556702 3412 L-556179 3412 L-556006 3412 L-555270 3411 L-553703 3411 L-553297 3411 L-551072 3411 L-550124 3410 L-549699 3410 L-549369 3410 L-548325 3410 L-546217 3410 L-545965 3410 L-545346 3409 L-544533 3409 L-542425 3409 L-542377 3408 L-540449 3408 L-540123 3408 L-539988 3408 L-539485 3407 L-538072 3407 L-537569 3407 L-537047 3406 L-533488 3405 L-532753 3405 L-530328 3405 L-529038 3405 L-528631 3404 L-525479 3404 L-525324 3404 L-525304 3405 L-524937 3405 L-523679 3405 L-522964 3405 L-522074 3405 L-521667 3405 L-520739 3405 L-519630 3405 L-519327 3405 L-513078 3406 L-512131 3406 L-510504 3406 L-510003 3406 L-506327 3407 L-505494 3407 L-501541 3407 L-500130 3406 L-497640 3406 L-496964 3406 L-496925 3406 L-496054 3406 L-492843 3405 L-489980 3405 L-489012 3405 L-487890 3405 L-487872 3405 L-486247 3404 L-485782 3404 L-485690 3404 L-479321 3403 L-478373 3403 L-475916 3403 L-475043 3403 L-473807 3403 L-471806 3403 L-471408 3402 L-469972 3402 L-467946 3402 L-467733 3402 L-466553 3401 L-465044 3401 L-465024 3401 L-463012 3401 L-462142 3401 L-461271 3400 L-460687 3400 L-460149 3400 L-459492 3400 L-458254 3399 L-457693 3399 L-456512 3399 L-455274 3399 L-455236 3399 L-454849 3398 L-454307 3398 L-453533 3398 L-452411 3398 L-450322 3398 L-449989 3397 L-449703 3397 L-448774 3397 L-448291 3397 L-447556 3396 L-443924 3396 L-442797 3396 L-442642 3396 L-441616 3396 L-437901 3395 L-436684 3395 L-434866 3395 L-432080 3395 L-431518 3394 L-427631 3394 L-425154 3394 L-423819 3394 L-423316 3394 L-422833 3394 L-420143 3394 L-416372 3394 L-413914 3394 L-412735 3394 L-412095 3394 L-409736 3393 L-409658 3393 L-408611 3393 L-408517 3393 L-408015 3393 L-407569 3393 L-407511 3393 L-407298 3393 L-404338 3393 L-401631 3392 L-401476 3392 L-397955 3392 L-397432 3392 L-396465 3392 L-396116 3391 L-395072 3391 L-394143 3391 L-393718 3391 L-392209 3391 L-391242 3390 L-391223 3390 L-389327 3379 L-389211 3368 L-389163 3357 L-389139 3346 L-386134 3345 L-384104 3345 L-382343 3345 L-381976 3345 L-381530 3344 L-381163 3344 L-380749 3344 L-378764 3344 L-378551 3344 L-378396 3344 L-376791 3344 L-375669 3344 L-374721 3343 L-373464 3343 L-371819 3343 L-370639 3343 L-364050 3342 L-364003 3342 L-363598 3342 L-362553 3342 L-362417 3342 L-360735 3342 L-360715 3341 L-359378 3341 L-358142 3341 L-357988 3341 L-357614 3341 L-357407 3340 L-357098 3340 L-356324 3340 L-354003 3340 L-353345 3340 L-351217 3339 L-349494 3339 L-349301 3339 L-346748 3339 L-346471 3339 L-346283 3338 L-345451 3338 L-344678 3338 L-343980 3338 L-338980 3338 L-338604 3337 L-334351 3337 L-333864 3352 L-333844 3352 L-333766 3352 L-333690 3352 L-333670 3337 L-332858 3336 L-332104 3336 L-330885 3336 L-329453 3336 L-329357 3336 L-329182 3336 L-328828 3336 L-327518 3335 L-325661 3335 L-323959 3335 L-323456 3335 L-323191 3335 L-322797 3334 L-322663 3334 L-321753 3334 L-321377 3334 L-320449 3334 L-320110 3334 L-320070 3334 L-320032 3334 L-318117 3334 L-317943 3334 L-316414 3334 L-316086 3333 L-315970 3333 L-315563 3333 L-315215 3333 L-313571 3332 L-313020 3332 L-312777 3332 L-312236 3332 L-311404 3332 L-310863 3332 L-309328 3331 L-309236 3331 L-309199 3331 L-309063 3331 L-308676 3331 L-307651 3331 L-305775 3330 L-305678 3330 L-305078 3335 L-304711 3340 L-304226 3346 L-304188 3351 L-303414 3351 L-303357 3351 L-303182 3350 L-302989 3350 L-301383 3350 L-301364 3350 L-301208 3350 L-301093 3350 L-299913 3350 L-299759 3351 L-299092 3351 L-296643 3363 L-294129 3376 L-291459 3388 L-283760 3401 L-278092 3401 L-275877 3400 L-275854 3400 L-274880 3403 L-274860 3403 L-273997 3403 L-271256 3403 L-265458 3400 L-265304 3400 L-262518 3399 L-248910 3399 L-248164 3399 L-243754 3399 L-227407 3398 L-227175 3398 L-226638 3398 L-218179 3398 L-209473 3398 L-209261 3398 L-207288 3397 L-204502 3397 L-200015 3398 L-199860 3397 L-199691 3397 L-199550 3397 L-199260 3397 L-199221 3397 L-198950 3397 L-198778 3397 L-198368 3396 L-197248 3396 L-196067 3396 L-194791 3396 L-191927 3396 L-189007 3396 L-187015 3395 L-185467 3395 L-182429 3395 L-173104 3395 L-172580 3395 L-166857 3395 L-165350 3395 L-164535 3395 L-162851 3394 L-162130 3394 L-161962 3394 L-160917 3394 L-158850 3394 L-157487 3393 L-153044 3393 L-152947 3393 L-152908 3393 L-152889 3393 L-152057 3393 L-151979 3392 L-149407 3392 L-146157 3392 L-146003 3392 L-145054 3392 L-143313 3392 L-142598 3392 L-139057 3393 L-132480 3394 L-131062 3395 L-131042 3395 L-130091 3395 L-126617 3395 L-125864 3395 L-125302 3394 L-124520 3394 L-117016 3394 L-115417 3394 L-113843 3394 L-110658 3394 L-106325 3393 L-97755 3393 L-89009 3393 L-85935 3393 L-82669 3393 L-82122 3393 L-74985 3393 L-69318 3393 L-55253 3393 L-49242 3393 L-44536 3393 L-40532 3392 L-35425 3392 L-25711 3392 L-10140 3392 L-7057 3391 L-6755 3323 L-6736 3239 L-6717 3144 L-6697 3038 L-6677 2989 L-6658 2948 L-6639 2910 L-6612 2873 L-6591 2837 L-6563 2799 L-6528 2757 L-6514 2721 L-6501 2691 L-6483 2665 L-6464 2646 L-6444 2627 L-6426 2608 L-6406 2589 L-6387 2569 L-6365 2549 L-6349 2529 L-6330 2510 L-6309 2492 L-6289 2473 L-6271 2453 L-6252 2432 L-6233 2410 L-6212 2389 L-6194 2369 L-6175 2350 L-6154 2332 L-6129 2313 L-6114 2295 L-6097 2278 L-6078 2260 L-6058 2243 L-6039 2225 L-6020 2206 L-6000 2188 L-5980 2170 L-5962 2154 L-5943 2138 L-5922 2124 L-5902 2110 L-5885 2098 L-5866 2086 L-5846 2074 L-5827 2064 L-5807 2053 L-5788 2043 L-5768 2035 L-5749 2027 L-5730 2019 L-5711 2011 L-5684 2001 L-5663 1990 L-5635 1978 L-5601 1965 L-5587 1954 L-5573 1945 L-5555 1936 L-5536 1929 L-5516 1921 L-5497 1912 L-5478 1904 L-5458 1895 L-5438 1886 L-5420 1879 L-5401 1871 L-5381 1862 L-5361 1853 L-5343 1842 L-5324 1831 L-5304 1819 L-5284 1807 L-5265 1795 L-5247 1783 L-5225 1769 L-5201 1754 L-5186 1740 L-5169 1726 L-5149 1712 L-5130 1698 L-5111 1684 L-5092 1669 L-5072 1654 L-5051 1640 L-5033 1626 L-5014 1613 L-4994 1600 L-4974 1587 L-4956 1575 L-4937 1564 L-4917 1552 L-4898 1543 L-4879 1532 L-4860 1522 L-4840 1512 L-4821 1502 L-4801 1492 L-4782 1482 L-4753 1472 L-4734 1463 L-4706 1453 L-4669 1442 L-4654 1431 L-4641 1421 L-4624 1411 L-4607 1405 L-4587 1398 L-4569 1392 L-4550 1387 L-4530 1381 L-4509 1375 L-4492 1369 L-4473 1362 L-4452 1355 L-4433 1348 L-4414 1340 L-4395 1332 L-4375 1324 L-4356 1314 L-4337 1305 L-4318 1296 L-4297 1288 L-4273 1279 L-4258 1270 L-4241 1261 L-4221 1252 L-4202 1243 L-4182 1234 L-4163 1224 L-4143 1215 L-4123 1205 L-4105 1196 L-4086 1188 L-4066 1179 L-4045 1172 L-4027 1164 L-4008 1157 L-3989 1149 L-3970 1141 L-3950 1134 L-3931 1127 L-3911 1120 L-3892 1113 L-3873 1106 L-3854 1098 L-3826 1091 L-3805 1084 L-3777 1076 L-3741 1065 L-3727 1054 L-3714 1044 L-3696 1036 L-3678 1030 L-3659 1025 L-3640 1017 L-3620 1010 L-3601 1002 L-3579 994 L-3561 985 L-3544 976 L-3523 966 L-3503 955 L-3485 945 L-3466 933 L-3446 922 L-3426 911 L-3408 901 L-3389 892 L-3368 886 L-3343 880 L-3329 875 L-3311 870 L-3292 864 L-3272 858 L-3253 852 L-3234 846 L-3214 840 L-3193 836 L-3176 831 L-3157 826 L-3137 820 L-3116 812 L-3099 805 L-3080 799 L-3060 794 L-3041 791 L-3021 788 L-3003 784 L-2983 780 L-2963 776 L-2944 772 L-2925 768 L-2898 764 L-2877 760 L-2849 756 L-2814 751 L-2800 747 L-2787 743 L-2768 740 L-2750 737 L-2730 734 L-2712 731 L-2692 728 L-2672 726 L-2651 723 L-2634 720 L-2616 717 L-2595 713 L-2575 710 L-2557 706 L-2538 703 L-2518 700 L-2498 697 L-2480 694 L-2461 691 L-2440 689 L-2415 686 L-2400 683 L-2383 681 L-2363 678 L-2344 675 L-2325 672 L-2306 669 L-2286 665 L-2265 662 L-2248 659 L-2229 656 L-2208 654 L-2188 651 L-2170 648 L-2151 646 L-2131 643 L-2113 641 L-2093 638 L-2074 636 L-2054 634 L-2035 632 L-2015 631 L-1997 634 L-1968 637 L-1948 640 L-1920 643 L-1883 640 L-1868 638 L-1855 636 L-1837 634 L-1821 633 L-1801 631 L-1783 629 L-1763 627 L-1744 626 L-1722 624 L-1706 623 L-1687 621 L-1666 620 L-1646 618 L-1628 616 L-1609 614 L-1590 612 L-1569 611 L-1551 609 L-1532 607 L-1511 606 L-1486 605 L-1472 603 L-1454 601 L-1435 599 L-1416 597 L-1396 596 L-1377 594 L-1357 592 L-1337 589 L-1319 587 L-1300 584 L-1280 582 L-1259 580 L-1242 578 L-1223 576 L-1203 574 L-1184 572 L-1164 569 L-1145 567 L-1125 565 L-1106 563 L-1087 561 L-1068 560 L-1040 558 L-1020 556 L-992 553 L-957 551 L-943 549 L-930 547 L-911 545 L-893 543 L-873 542 L-854 540 L-835 538 L-815 536 L-794 534 L-777 533 L-758 531 L-738 529 L-718 526 L-700 524 L-681 521 L-661 518 L-641 515 L-623 512 L-604 510 L-582 507 L-557 505 L-543 502 L-526 499 L-506 496 L-487 494 L-468 491 L-449 488 L-429 486 L-408 483 L-390 481 L-371 478 L-351 476 L-330 474 L-313 472 L-294 470 L-274 469 L-255 467 L-236 465 L-217 464 L-197 462 L-177 461 L-158 460 L-139 459 L-112 457 L-91 456 L-63 454 L-28 451 L-14 449 L-1 446 L17 444 L35 442 L55 440 L73 439 L93 437 L112 435 L134 434 L150 432 L169 430 L190 428 L210 425 L228 423 L247 421 L267 419 L287 417 L305 415 L324 413 L345 412 L370 410 L385 408 L402 406 L421 404 L441 403 L460 400 L479 398 L499 395 L520 392 L537 389 L556 387 L577 385 L597 383 L614 381 L633 380 L654 378 L672 377 L692 376 L711 374 L731 373 L750 372 L770 371 L788 369 L815 368 L836 367 L864 365 L898 364 L913 363 L926 362 L944 361 L963 360 L983 359 L1001 358 L1021 357 L1041 356 L1062 355 L1079 354 L1098 353 L1118 352 L1138 350 L1156 349 L1175 348 L1195 347 L1215 347 L1234 346 L1252 345 L1274 345 L1298 343 L1313 342 L1330 341 L1350 340 L1369 339 L1388 338 L1407 337 L1427 336 L1448 334 L1466 332 L1485 330 L1505 328 L1525 326 L1543 324 L1562 323 L1582 322 L1601 320 L1621 319 L1639 317 L1659 316 L1678 315 L1698 314 L1717 313 L1745 312 L1793 311 L1830 310 L1845 309 L1857 308 L1874 307 L1892 306 L1911 306 L1930 305 L1949 304 L1970 303 L1990 302 L2007 302 L2026 301 L2047 301 L2066 300 L2085 299 L2104 298 L2124 297 L2143 296 L2162 295 L2181 294 L2202 292 L2227 290 L2241 289 L2258 287 L2278 285 L2297 284 L2317 282 L2336 281 L2356 280 L2376 278 L2394 277 L2413 275 L2434 274 L2454 273 L2472 272 L2490 271 L2511 270 L2529 269 L2549 268 L2568 267 L2588 266 L2607 264 L2627 263 L2645 262 L2674 261 L2694 260 L2722 258 L2758 256 L2773 253 L2786 251 L2803 249 L2821 248 L2841 247 L2859 246 L2879 245 L2898 245 L2920 244 L2936 242 L2955 241 L2976 240 L2996 238 L3014 236 L3033 234 L3053 232 L3073 230 L3091 228 L3110 226 L3131 225 L3156 223 L3171 221 L3189 220 L3207 219 L3227 218 L3246 216 L3265 214 L3285 213 L3306 211 L3323 209 L3342 208 L3362 207 L3384 205 L3400 204 L3419 203 L3439 202 L3458 201 L3478 200 L3496 198 L3516 197 L3536 196 L3555 195 L3574 194 L3602 997 L3622 996 L3650 994 L3686 993 L3700 187 L3713 185 L3731 184 L3749 183 L3769 183 L3787 182 L3807 181 L3827 180 L3848 178 L3865 176 L3883 175 L3904 173 L3924 171 L3942 169 L3961 167 L3981 164 L4002 163 L4019 162 L4038 160 L4060 159 L4085 157 L4100 155 L4129 153 L4169 150 L4192 148 L4221 145 L4238 143 L4251 141 L4271 140 L4291 139 L4312 138 L4329 136 L4348 135 L4368 134 L4387 133 L4406 133 L4425 132 L4445 131 L4465 130 L4484 129 L4502 128 L4530 127 L4551 126 L4579 125 L4614 124 L4627 122 L4659 121 L4678 120 L4698 119 L4716 119 L4736 118 L4755 117 L4776 116 L4793 115 L4812 113 L4833 111 L4853 107 L4871 103 L4890 99 L4910 96 L4930 94 L4948 92 L4967 90 L4988 89 L5013 87 L5028 86 L5045 84 L5064 83 L5084 81 L5103 80 L5122 78 L5142 77 L5163 75 L5180 73 L5199 72 L5220 71 L5241 69 L5257 69 L5276 68 L5296 67 L5316 66 L5335 64 L5354 63 L5374 62 L5393 61 L5412 60 L5431 59 L5459 58 L5479 57 L5549 55 L5577 53 L5592 50 L5606 48 L5626 46 L5645 45 L5664 44 L5684 42 L5705 41 L5722 40 L5741 39 L5761 38 L5781 38 L5799 36 L5818 35 L5838 34 L5859 32 L5876 31 L5895 29 L5917 28 L5942 28 L5957 26 L5974 25 L5993 24 L6013 22 L6032 21 L6051 19 L6070 18 L6092 17 L6109 16 L6128 15 L6148 14 L6169 13 L6186 12 L6244 11 L6264 10 L6282 9 L6302 8 L6322 7 L6341 6 L6360 6 L6387 5 L6408 4 L6436 4 L6472 3 L6487 2 L6500 1" />
</svg>
