<svg xmlns="http://www.w3.org/2000/svg" version="1.1" viewBox="0 0 6500 1000">
	<path fill="none" stroke="gold" stroke-width="125" stroke-linecap="round" stroke-linejoin="round" d="M0 29049  L-154611 29049 L-152007 28859 L-150339 28669 L-132010 28290 L-131839 27910 L-124682 27531 L-124648 27531 L-111217 27341 L-108296 27531 L-94955 26962 L-90786 26203 L-89626 25254 L-89007 24305 L-86995 23736 L-83223 23356 L-82623 22977 L-82294 22597 L-82081 22218 L-81539 21838 L-80301 20320 L-79122 18802 L-76258 17284 L-75736 15766 L-70880 15387 L-67943 15007 L-67900 14628 L-67592 14248 L-67340 13869 L-64745 13489 L-60490 13489 L-60472 13489 L-59235 13489 L-57357 13489 L-55404 13110 L-54456 12730 L-54185 12351 L-53875 12161 L-53777 11971 L-52947 11971 L-50916 12161 L-50626 10453 L-48479 9694 L-48324 8555 L-44667 7417 L-44416 7986 L-44318 7796 L-43801 8366 L-41649 9314 L-40721 10263 L-39195 11212 L-37955 11212 L-36409 11022 L-33447 10643 L-32325 10263 L-32016 9884 L-30805 9694 L-27798 11781 L-27778 11592 L-27431 11402 L-27218 11212 L-27092 8555 L-26850 8176 L-26812 7796 L-26792 7417 L-26773 7037 L-26714 6658 L-26656 6278 L-26638 5899 L-26194 5519 L-24955 5140 L-23409 4760 L-20022 4381 L-14295 4191 L-14094 4001 L-12458 3812 L-10736 3622 L-9304 3432 L-9072 3242 L-8356 3053 L-2224 2863 L-1856 2483 L-1702 2104 L-1124 1724 L-831 1345 L135 965 L445 586 L1044 206 L2650 206 L3385 206 L3695 396 L4463 396 L6500 17" />
</svg>
