<svg xmlns="http://www.w3.org/2000/svg" version="1.1" viewBox="0 0 6500 1000">
	<path fill="none" stroke="gold" stroke-width="125" stroke-linecap="round" stroke-linejoin="round" d="M0 1016  L-717964 1016 L-715360 1016 L-713692 1016 L-695363 1015 L-695192 1015 L-688035 1015 L-688001 1015 L-674571 1015 L-671649 1015 L-658308 1015 L-654139 1015 L-652979 1015 L-652360 1014 L-650348 1014 L-646576 1014 L-645976 1014 L-645647 1014 L-645434 1014 L-644893 1014 L-643655 1013 L-642476 1013 L-639611 1012 L-639089 1012 L-634233 1012 L-631296 1012 L-631253 1012 L-630945 1011 L-630693 1011 L-628098 1011 L-623843 1011 L-623825 1011 L-622588 1011 L-620710 1011 L-618757 1011 L-617809 1011 L-617538 1011 L-617228 1011 L-617130 1011 L-616300 1011 L-614269 1011 L-613979 1010 L-611832 1010 L-611677 1010 L-608020 1009 L-607769 1010 L-607671 1010 L-607154 1010 L-605003 1010 L-604074 1010 L-602548 1011 L-601308 1011 L-599762 1010 L-596800 1010 L-595678 1010 L-595369 1010 L-594158 1010 L-591151 1011 L-591131 1011 L-590784 1011 L-590571 1011 L-590445 1010 L-590203 1010 L-590165 1010 L-590145 1009 L-590126 1009 L-590067 1009 L-590009 1009 L-589991 1009 L-589548 1009 L-588308 1009 L-586762 1009 L-583375 1009 L-577648 1009 L-577447 1008 L-575811 1008 L-574089 1008 L-572657 1008 L-572425 1008 L-571709 1008 L-565577 1008 L-565209 1008 L-565055 1008 L-564477 1008 L-564184 1008 L-563217 1008 L-562907 1007 L-562308 1007 L-560702 1007 L-559967 1007 L-559657 1007 L-558889 1007 L-556853 1007 L-556427 1007 L-555615 1007 L-548186 1007 L-547663 1007 L-547490 1007 L-546755 1007 L-545187 1007 L-544781 1007 L-542556 1006 L-541608 1006 L-541183 1006 L-540853 1006 L-539809 1006 L-537701 1006 L-537449 1006 L-536830 1006 L-536017 1006 L-533909 1006 L-533861 1006 L-531933 1006 L-531607 1005 L-531472 1005 L-530969 1005 L-529556 1005 L-529053 1005 L-528531 1005 L-524972 1005 L-524237 1004 L-521812 1004 L-520522 1004 L-520115 1004 L-516963 1004 L-516808 1004 L-516788 1004 L-516421 1004 L-515163 1004 L-514448 1004 L-513558 1004 L-513151 1004 L-512223 1004 L-511114 1004 L-510811 1005 L-504562 1005 L-503615 1005 L-501988 1005 L-501487 1005 L-497811 1005 L-496979 1005 L-493025 1005 L-491614 1005 L-489124 1005 L-488448 1005 L-488409 1005 L-487538 1005 L-484327 1005 L-481464 1005 L-480496 1004 L-479375 1004 L-479356 1004 L-477731 1004 L-477266 1004 L-477175 1004 L-470805 1004 L-469857 1004 L-467400 1004 L-466527 1004 L-465291 1004 L-463290 1004 L-462893 1003 L-461456 1003 L-459430 1003 L-459217 1003 L-458037 1003 L-456528 1003 L-456508 1003 L-454496 1003 L-453626 1003 L-452756 1003 L-452171 1003 L-451634 1003 L-450976 1002 L-449738 1002 L-449177 1002 L-447996 1002 L-446758 1002 L-446720 1002 L-446333 1002 L-445791 1002 L-445018 1002 L-443895 1002 L-441806 1002 L-441473 1002 L-441187 1002 L-440258 1001 L-439775 1001 L-439040 1001 L-435409 1001 L-434281 1001 L-434126 1001 L-433100 1001 L-429386 1001 L-428168 1001 L-426350 1001 L-423564 1001 L-423002 1001 L-419115 1001 L-416638 1001 L-415303 1001 L-414800 1000 L-414317 1000 L-411627 1000 L-407856 1000 L-405399 1000 L-404219 1000 L-403580 1000 L-401220 1000 L-401142 1000 L-400095 1000 L-400001 1000 L-399499 1000 L-399053 1000 L-398996 1000 L-398782 1000 L-395822 1000 L-393115 1000 L-392960 1000 L-389439 1000 L-388916 1000 L-387949 1000 L-387600 999 L-386556 999 L-385628 999 L-385202 999 L-383693 999 L-382726 999 L-382707 999 L-380811 995 L-380695 991 L-380647 987 L-380623 983 L-377619 983 L-375588 983 L-373827 983 L-373460 983 L-373014 982 L-372647 982 L-372233 982 L-370249 982 L-370035 982 L-369880 982 L-368275 982 L-367153 982 L-366205 982 L-364948 982 L-363303 982 L-362124 982 L-355534 982 L-355488 982 L-355082 982 L-354037 982 L-353901 982 L-352219 981 L-352199 981 L-350862 981 L-349626 981 L-349472 981 L-349098 981 L-348891 981 L-348582 981 L-347808 981 L-345487 981 L-344829 981 L-342701 981 L-340979 981 L-340785 981 L-338232 980 L-337955 980 L-337767 980 L-336935 980 L-336162 980 L-335464 980 L-330464 980 L-330088 980 L-325835 980 L-325348 985 L-325329 985 L-325250 985 L-325174 985 L-325154 980 L-324342 980 L-323588 979 L-322369 979 L-320937 979 L-320841 979 L-320666 979 L-320312 979 L-319002 979 L-317145 979 L-315443 979 L-314940 979 L-314675 979 L-314282 979 L-314147 979 L-313238 979 L-312861 979 L-311933 979 L-311594 979 L-311554 979 L-311516 979 L-309601 979 L-309427 979 L-307898 979 L-307570 978 L-307454 978 L-307047 978 L-306699 978 L-305055 978 L-304504 978 L-304261 978 L-303720 978 L-302888 978 L-302347 978 L-300812 978 L-300720 978 L-300683 978 L-300547 978 L-300160 978 L-299135 977 L-297259 977 L-297162 977 L-296562 979 L-296195 981 L-295710 983 L-295672 985 L-294898 985 L-294841 985 L-294666 985 L-294473 985 L-292868 985 L-292848 984 L-292692 985 L-292577 985 L-291397 985 L-291243 985 L-290576 985 L-288128 989 L-285613 994 L-282943 998 L-275244 1003 L-269576 1003 L-267361 1003 L-267338 1003 L-266364 1004 L-266344 1004 L-265481 1004 L-262740 1004 L-256942 1003 L-256788 1002 L-254003 1002 L-240394 1002 L-239648 1002 L-235238 1002 L-218891 1002 L-218659 1002 L-218122 1002 L-209663 1002 L-200957 1002 L-200745 1002 L-198772 1002 L-195986 1002 L-191499 1002 L-191344 1002 L-191175 1002 L-191034 1002 L-190744 1002 L-190705 1001 L-190434 1001 L-190262 1001 L-189852 1001 L-188732 1001 L-187552 1001 L-186275 1001 L-183411 1001 L-180491 1001 L-178499 1001 L-176951 1001 L-173913 1001 L-164589 1001 L-164065 1001 L-158341 1001 L-156834 1001 L-156019 1001 L-154336 1001 L-153615 1000 L-153446 1000 L-152401 1000 L-150334 1000 L-148972 1000 L-144528 1000 L-144431 1000 L-144392 1000 L-144374 1000 L-143541 1000 L-143463 1000 L-140891 1000 L-137642 1000 L-137487 1000 L-136538 1000 L-134797 1000 L-134082 1000 L-130541 1000 L-123964 1000 L-122546 1001 L-122526 1001 L-121575 1001 L-118101 1001 L-117348 1001 L-116786 1001 L-116004 1001 L-108500 1000 L-106901 1000 L-105327 1000 L-102142 1000 L-97809 1000 L-89239 1000 L-80493 1000 L-77419 1000 L-74153 1000 L-73607 1000 L-66469 1000 L-60802 1000 L-46737 1000 L-40726 1000 L-36020 1000 L-32016 1000 L-26909 1000 L-17195 1000 L-1624 1000 L1458 999 L1760 975 L1779 944 L1798 910 L1818 871 L1837 854 L1857 839 L1875 825 L1903 812 L1924 799 L1952 785 L1987 770 L2001 757 L2014 746 L2032 737 L2051 730 L2071 723 L2089 716 L2109 709 L2128 702 L2150 695 L2166 687 L2185 680 L2206 674 L2226 667 L2244 660 L2263 652 L2282 644 L2303 637 L2321 629 L2340 623 L2361 616 L2386 609 L2400 603 L2418 596 L2437 590 L2457 584 L2476 577 L2495 570 L2515 564 L2535 557 L2553 551 L2572 546 L2593 541 L2613 536 L2630 531 L2649 527 L2669 523 L2688 519 L2708 515 L2727 511 L2747 508 L2766 506 L2785 503 L2804 500 L2831 496 L2852 492 L2880 488 L2914 483 L2928 479 L2941 476 L2960 473 L2979 470 L2999 467 L3017 464 L3037 461 L3057 458 L3077 455 L3095 452 L3114 449 L3134 446 L3154 443 L3172 439 L3191 435 L3211 430 L3231 426 L3249 422 L3268 417 L3289 412 L3314 407 L3329 401 L3346 396 L3366 391 L3385 387 L3404 381 L3423 376 L3443 371 L3463 365 L3482 360 L3500 355 L3521 351 L3541 346 L3559 342 L3578 338 L3598 334 L3617 330 L3636 326 L3655 323 L3675 319 L3694 315 L3714 312 L3733 308 L3761 305 L3781 301 L3809 298 L3846 294 L3861 290 L3874 286 L3891 283 L3908 280 L3928 278 L3946 276 L3965 274 L3985 272 L4006 270 L4023 267 L4042 265 L4063 262 L4082 260 L4101 257 L4119 254 L4139 251 L4159 248 L4178 244 L4197 241 L4218 238 L4242 235 L4257 232 L4274 228 L4294 225 L4313 222 L4333 218 L4352 215 L4372 211 L4392 208 L4410 205 L4429 202 L4449 199 L4470 196 L4487 193 L4506 190 L4526 188 L4545 185 L4565 182 L4584 180 L4604 177 L4623 174 L4642 172 L4661 169 L4689 167 L4710 164 L4738 161 L4774 157 L4788 153 L4801 150 L4818 147 L4837 145 L4856 143 L4875 140 L4895 137 L4914 135 L4936 132 L4954 128 L4971 125 L4991 121 L5012 118 L5030 114 L5049 110 L5068 105 L5089 101 L5107 98 L5126 95 L5147 92 L5172 90 L5186 89 L5204 87 L5223 84 L5243 82 L5262 80 L5281 78 L5300 76 L5321 74 L5339 73 L5358 71 L5378 68 L5399 66 L5416 63 L5435 61 L5455 59 L5474 58 L5493 57 L5512 56 L5532 54 L5552 53 L5571 51 L5590 50 L5617 48 L5638 47 L5666 46 L5701 44 L5714 42 L5728 41 L5746 40 L5765 39 L5785 37 L5803 36 L5823 35 L5843 34 L5864 33 L5881 32 L5899 31 L5920 30 L5940 29 L5958 27 L5977 26 L5997 25 L6017 24 L6035 23 L6054 22 L6075 21 L6100 20 L6115 19 L6132 18 L6151 17 L6171 16 L6190 15 L6209 14 L6229 13 L6250 11 L6267 10 L6286 9 L6307 8 L6327 7 L6345 6 L6364 5 L6384 5 L6402 4 L6422 3 L6441 2 L6461 1 L6480 1 L6500 0" />
</svg>
