<svg xmlns="http://www.w3.org/2000/svg" version="1.1" viewBox="0 0 6500 1000">
	<path fill="none" stroke="gold" stroke-width="125" stroke-linecap="round" stroke-linejoin="round" d="M0 16366  L-179531 16366 L-176927 16278 L-175259 16190 L-156929 16013 L-156759 15836 L-149601 15659 L-149568 15659 L-136137 15571 L-133216 15659 L-119875 15394 L-115706 15040 L-114546 14598 L-113927 14156 L-111915 13891 L-108143 13714 L-107543 13537 L-107214 13360 L-107001 13183 L-106459 13007 L-105221 12299 L-104042 11592 L-101178 10885 L-100656 10177 L-95800 10000 L-92863 9824 L-92820 9647 L-92512 9470 L-92260 9293 L-89665 9116 L-85409 9116 L-85392 9116 L-84155 9116 L-82277 9116 L-80324 8939 L-79376 8763 L-79105 8586 L-78795 8497 L-78697 8409 L-77867 8409 L-75836 8497 L-75545 7702 L-73399 7348 L-73244 6817 L-69587 6287 L-69336 6552 L-69238 6464 L-68721 6729 L-66569 7171 L-65641 7613 L-64115 8055 L-62875 8055 L-61329 7967 L-58367 7790 L-57245 7613 L-56936 7436 L-55724 7348 L-52718 8320 L-52698 8232 L-52351 8144 L-52138 8055 L-52011 6817 L-51770 6641 L-51732 6464 L-51712 6287 L-51693 6110 L-51634 5933 L-51575 5756 L-51557 5580 L-51114 5403 L-49875 5226 L-48329 5049 L-44941 4872 L-39215 4784 L-39014 4695 L-37378 4607 L-35656 4519 L-34224 4430 L-33991 4342 L-33276 4253 L-27144 4165 L-26776 3988 L-26622 3811 L-26043 3634 L-25751 3458 L-24784 3281 L-24474 3104 L-23875 2927 L-22269 2927 L-21534 2927 L-21224 3015 L-20456 3015 L-18419 2839 L-17994 2662 L-17181 2573 L-9753 2396 L-9230 2220 L-9056 2043 L-8321 1866 L-6754 1689 L-6348 1601 L-4123 1424 L-3175 1335 L-2750 1247 L-2420 1247 L-1376 1159 L731 982 L983 805 L1602 628 L2415 540 L4523 363 L4571 186 L6500 9" />
</svg>
