<svg xmlns="http://www.w3.org/2000/svg" version="1.1" viewBox="0 0 6500 1000">
	<path fill="none" stroke="gold" stroke-width="125" stroke-linecap="round" stroke-linejoin="round" d="M0 3231  L-729174 3231 L-726570 3231 L-724902 3230 L-706573 3230 L-706403 3230 L-699245 3230 L-699212 3230 L-685781 3229 L-682859 3230 L-669518 3229 L-665349 3229 L-664189 3228 L-663570 3227 L-661558 3227 L-657786 3227 L-657186 3226 L-656857 3226 L-656644 3226 L-656103 3225 L-654865 3224 L-653686 3223 L-650821 3222 L-650299 3221 L-645444 3221 L-642506 3220 L-642463 3220 L-642155 3220 L-641903 3220 L-639308 3219 L-635053 3219 L-635035 3219 L-633798 3219 L-631921 3219 L-629967 3219 L-629019 3219 L-628748 3219 L-628438 3218 L-628340 3218 L-627510 3218 L-625479 3218 L-625189 3217 L-623042 3217 L-622887 3216 L-619231 3215 L-618980 3215 L-618881 3215 L-618364 3216 L-616213 3216 L-615284 3217 L-613758 3218 L-612518 3218 L-610972 3218 L-608010 3217 L-606888 3217 L-606579 3217 L-605368 3217 L-602361 3218 L-602341 3218 L-601994 3218 L-601781 3218 L-601655 3216 L-601413 3215 L-601375 3215 L-601356 3215 L-601336 3215 L-601277 3214 L-601219 3214 L-601201 3214 L-600758 3214 L-599518 3213 L-597973 3213 L-594585 3213 L-588859 3213 L-588657 3212 L-587021 3212 L-585299 3212 L-583867 3212 L-583635 3212 L-582920 3212 L-576787 3212 L-576420 3211 L-576265 3211 L-575687 3211 L-575394 3210 L-574427 3210 L-574117 3210 L-573518 3210 L-571912 3210 L-571177 3210 L-570867 3210 L-570099 3210 L-568063 3210 L-567637 3209 L-566825 3209 L-559396 3209 L-558873 3209 L-558700 3208 L-557965 3208 L-556397 3208 L-555991 3208 L-553766 3207 L-552818 3207 L-552393 3207 L-552063 3207 L-551019 3207 L-548911 3207 L-548659 3206 L-548040 3206 L-547227 3206 L-545119 3206 L-545071 3205 L-543143 3205 L-542817 3205 L-542682 3205 L-542179 3204 L-540766 3204 L-540263 3204 L-539741 3203 L-536182 3203 L-535447 3202 L-533022 3202 L-531733 3202 L-531326 3202 L-528173 3202 L-528018 3202 L-527998 3202 L-527631 3202 L-526373 3202 L-525658 3202 L-524768 3202 L-524361 3202 L-523433 3202 L-522324 3202 L-522021 3202 L-515772 3203 L-514825 3203 L-513199 3203 L-512697 3203 L-509021 3204 L-508189 3204 L-504236 3204 L-502824 3203 L-500334 3203 L-499658 3203 L-499619 3203 L-498748 3203 L-495537 3203 L-492674 3202 L-491706 3202 L-490585 3202 L-490566 3202 L-488941 3201 L-488477 3201 L-488385 3201 L-482015 3201 L-481067 3201 L-478610 3201 L-477738 3200 L-476502 3200 L-474500 3200 L-474103 3200 L-472666 3199 L-470640 3199 L-470427 3199 L-469247 3199 L-467738 3199 L-467718 3199 L-465706 3198 L-464837 3198 L-463966 3198 L-463381 3198 L-462844 3197 L-462186 3197 L-460948 3197 L-460387 3197 L-459206 3197 L-457969 3196 L-457930 3196 L-457543 3196 L-457001 3196 L-456228 3196 L-455105 3196 L-453016 3195 L-452683 3195 L-452397 3195 L-451469 3195 L-450985 3194 L-450250 3194 L-446619 3194 L-445491 3194 L-445336 3194 L-444310 3194 L-440596 3193 L-439378 3193 L-437560 3193 L-434774 3193 L-434213 3192 L-430325 3192 L-427848 3192 L-426513 3192 L-426010 3192 L-425527 3192 L-422837 3192 L-419066 3192 L-416609 3192 L-415429 3192 L-414790 3192 L-412430 3192 L-412353 3192 L-411305 3191 L-411212 3191 L-410709 3191 L-410263 3191 L-410206 3191 L-409992 3191 L-407032 3191 L-404325 3191 L-404170 3191 L-400649 3190 L-400126 3190 L-399159 3190 L-398810 3190 L-397766 3189 L-396838 3189 L-396412 3189 L-394903 3189 L-393936 3189 L-393917 3189 L-392021 3179 L-391905 3168 L-391857 3158 L-391833 3148 L-388829 3148 L-386798 3147 L-385037 3147 L-384670 3147 L-384224 3147 L-383858 3147 L-383444 3146 L-381459 3146 L-381245 3146 L-381091 3146 L-379485 3146 L-378364 3146 L-377415 3146 L-376158 3145 L-374513 3145 L-373334 3145 L-366744 3145 L-366698 3145 L-366292 3145 L-365247 3145 L-365111 3144 L-363429 3144 L-363409 3144 L-362072 3144 L-360836 3144 L-360682 3143 L-360308 3143 L-360102 3143 L-359792 3143 L-359018 3143 L-356697 3142 L-356039 3142 L-353911 3142 L-352189 3142 L-351995 3142 L-349442 3142 L-349166 3141 L-348977 3141 L-348145 3141 L-347372 3141 L-346674 3141 L-341674 3141 L-341298 3140 L-337045 3140 L-336558 3154 L-336539 3154 L-336460 3154 L-336384 3154 L-336365 3140 L-335552 3139 L-334798 3139 L-333579 3139 L-332147 3139 L-332051 3139 L-331876 3139 L-331522 3139 L-330213 3138 L-328355 3138 L-326653 3138 L-326150 3138 L-325885 3138 L-325492 3138 L-325357 3137 L-324448 3137 L-324071 3137 L-323143 3137 L-322804 3137 L-322764 3137 L-322726 3137 L-320811 3137 L-320637 3137 L-319108 3137 L-318780 3137 L-318664 3136 L-318257 3136 L-317909 3136 L-316265 3136 L-315714 3136 L-315471 3136 L-314930 3135 L-314099 3135 L-313557 3135 L-312022 3135 L-311930 3135 L-311893 3134 L-311757 3134 L-311370 3134 L-310345 3134 L-308469 3134 L-308372 3134 L-307772 3138 L-307405 3143 L-306920 3148 L-306882 3152 L-306109 3153 L-306051 3153 L-305877 3152 L-305683 3152 L-304078 3152 L-304058 3152 L-303903 3152 L-303787 3152 L-302608 3152 L-302453 3153 L-301786 3153 L-299338 3164 L-296823 3176 L-294153 3187 L-286454 3198 L-280786 3198 L-278572 3198 L-278548 3198 L-277574 3201 L-277554 3201 L-276691 3201 L-273950 3200 L-268152 3197 L-267999 3197 L-265213 3197 L-251604 3197 L-250858 3197 L-246448 3196 L-230102 3196 L-229869 3196 L-229332 3196 L-220873 3196 L-212167 3196 L-211955 3195 L-209982 3195 L-207196 3195 L-202709 3195 L-202554 3195 L-202385 3195 L-202244 3195 L-201954 3195 L-201915 3195 L-201644 3195 L-201473 3194 L-201063 3194 L-199942 3194 L-198762 3194 L-197485 3194 L-194621 3194 L-191701 3194 L-189709 3193 L-188161 3193 L-185123 3193 L-175799 3193 L-175275 3193 L-169551 3193 L-168044 3193 L-167229 3193 L-165546 3192 L-164825 3192 L-164656 3192 L-163611 3192 L-161544 3192 L-160182 3192 L-155738 3192 L-155641 3191 L-155603 3191 L-155584 3191 L-154751 3191 L-154673 3191 L-152101 3191 L-148852 3190 L-148697 3190 L-147748 3190 L-146007 3190 L-145292 3191 L-141751 3191 L-135174 3192 L-133757 3193 L-133736 3193 L-132785 3193 L-129311 3193 L-128558 3193 L-127996 3192 L-127214 3192 L-119710 3192 L-118112 3192 L-116538 3192 L-113352 3192 L-109019 3192 L-100449 3192 L-91703 3192 L-88629 3191 L-85363 3191 L-84817 3191 L-77679 3191 L-72012 3191 L-57947 3191 L-51936 3191 L-47230 3191 L-43226 3191 L-38119 3190 L-28405 3190 L-12834 3190 L-9752 3190 L-9449 3127 L-9430 3051 L-9411 2963 L-9391 2866 L-9372 2821 L-9352 2784 L-9334 2749 L-9306 2715 L-9285 2682 L-9257 2647 L-9222 2609 L-9208 2576 L-9195 2548 L-9177 2525 L-9158 2508 L-9138 2490 L-9120 2472 L-9101 2455 L-9081 2437 L-9060 2419 L-9043 2400 L-9024 2383 L-9004 2366 L-8984 2349 L-8965 2330 L-8946 2311 L-8927 2291 L-8906 2272 L-8888 2254 L-8869 2236 L-8848 2219 L-8823 2202 L-8809 2186 L-8791 2170 L-8772 2154 L-8752 2138 L-8733 2121 L-8714 2104 L-8694 2087 L-8674 2072 L-8656 2056 L-8637 2042 L-8617 2029 L-8596 2016 L-8579 2005 L-8560 1994 L-8540 1984 L-8521 1974 L-8501 1964 L-8482 1955 L-8463 1948 L-8443 1940 L-8424 1933 L-8405 1925 L-8378 1916 L-8357 1907 L-8329 1896 L-8295 1884 L-8281 1874 L-8268 1865 L-8249 1857 L-8230 1851 L-8210 1844 L-8192 1835 L-8172 1827 L-8152 1819 L-8132 1812 L-8114 1805 L-8096 1797 L-8075 1790 L-8055 1781 L-8037 1771 L-8018 1761 L-7998 1750 L-7978 1739 L-7960 1728 L-7941 1717 L-7920 1704 L-7895 1691 L-7881 1677 L-7863 1664 L-7844 1652 L-7824 1639 L-7805 1626 L-7786 1612 L-7766 1599 L-7746 1586 L-7727 1573 L-7709 1561 L-7688 1549 L-7668 1537 L-7650 1526 L-7631 1516 L-7611 1506 L-7593 1497 L-7573 1487 L-7554 1478 L-7534 1469 L-7515 1460 L-7495 1450 L-7476 1441 L-7448 1432 L-7428 1424 L-7400 1415 L-7363 1405 L-7348 1395 L-7335 1385 L-7318 1377 L-7301 1370 L-7281 1365 L-7263 1359 L-7244 1354 L-7224 1349 L-7203 1343 L-7186 1338 L-7167 1331 L-7147 1325 L-7127 1319 L-7108 1311 L-7090 1304 L-7070 1296 L-7050 1288 L-7031 1279 L-7012 1271 L-6991 1264 L-6967 1255 L-6952 1247 L-6935 1239 L-6915 1231 L-6896 1223 L-6876 1214 L-6857 1205 L-6837 1196 L-6817 1188 L-6799 1180 L-6780 1172 L-6760 1164 L-6740 1157 L-6722 1150 L-6703 1143 L-6683 1136 L-6664 1129 L-6644 1122 L-6625 1116 L-6605 1109 L-6586 1103 L-6567 1097 L-6548 1090 L-6520 1084 L-6500 1077 L-6472 1069 L-6435 1059 L-6421 1050 L-6408 1041 L-6391 1033 L-6373 1028 L-6353 1022 L-6334 1016 L-6314 1009 L-6295 1002 L-6274 994 L-6255 986 L-6238 978 L-6218 969 L-6197 959 L-6179 949 L-6161 939 L-6141 928 L-6120 918 L-6103 909 L-6084 901 L-6062 896 L-6037 890 L-6023 886 L-6005 881 L-5986 875 L-5967 870 L-5948 864 L-5929 859 L-5909 854 L-5888 850 L-5870 846 L-5851 841 L-5831 835 L-5810 828 L-5793 821 L-5774 816 L-5754 812 L-5735 808 L-5716 805 L-5697 802 L-5677 799 L-5657 795 L-5638 791 L-5619 788 L-5592 784 L-5571 781 L-5543 777 L-5508 772 L-5495 768 L-5481 765 L-5463 762 L-5444 759 L-5424 757 L-5406 754 L-5386 751 L-5366 749 L-5345 746 L-5328 743 L-5310 740 L-5289 737 L-5269 734 L-5251 731 L-5232 728 L-5212 725 L-5192 723 L-5174 720 L-5155 717 L-5134 715 L-5109 712 L-5094 710 L-5077 708 L-5058 705 L-5038 702 L-5019 700 L-5000 697 L-4980 693 L-4959 691 L-4942 688 L-4923 685 L-4902 683 L-4882 680 L-4864 678 L-4846 675 L-4825 673 L-4807 671 L-4787 669 L-4768 667 L-4748 665 L-4729 663 L-4710 662 L-4691 665 L-4662 667 L-4642 670 L-4614 673 L-4577 670 L-4562 668 L-4549 666 L-4532 665 L-4515 664 L-4496 662 L-4477 660 L-4458 659 L-4438 657 L-4417 656 L-4400 655 L-4381 653 L-4361 652 L-4340 650 L-4322 648 L-4304 647 L-4284 645 L-4264 643 L-4245 642 L-4227 640 L-4205 639 L-4180 638 L-4166 636 L-4149 635 L-4129 633 L-4110 631 L-4090 630 L-4071 628 L-4052 626 L-4031 624 L-4013 622 L-3994 619 L-3974 617 L-3953 616 L-3936 614 L-3917 612 L-3897 610 L-3878 608 L-3858 606 L-3840 604 L-3820 601 L-3800 600 L-3781 598 L-3762 597 L-3735 595 L-3714 593 L-3686 591 L-3651 589 L-3638 587 L-3624 585 L-3605 583 L-3587 582 L-3567 580 L-3549 579 L-3529 577 L-3509 575 L-3488 574 L-3471 572 L-3453 570 L-3432 568 L-3412 566 L-3394 564 L-3375 561 L-3355 558 L-3335 556 L-3317 553 L-3298 551 L-3277 549 L-3252 546 L-3237 544 L-3220 541 L-3201 539 L-3181 537 L-3162 534 L-3143 531 L-3123 529 L-3102 527 L-3085 525 L-3066 522 L-3045 520 L-3024 518 L-3007 517 L-2988 515 L-2968 513 L-2949 512 L-2930 510 L-2911 509 L-2891 508 L-2871 506 L-2852 505 L-2834 504 L-2806 503 L-2785 501 L-2757 500 L-2722 497 L-2708 495 L-2695 493 L-2677 490 L-2658 489 L-2639 487 L-2620 486 L-2600 484 L-2581 483 L-2560 481 L-2543 480 L-2524 478 L-2503 476 L-2483 474 L-2465 472 L-2446 470 L-2427 468 L-2406 466 L-2388 464 L-2369 463 L-2348 461 L-2323 459 L-2308 458 L-2291 456 L-2272 455 L-2252 453 L-2233 451 L-2214 449 L-2194 446 L-2173 443 L-2156 441 L-2137 439 L-2116 436 L-2096 435 L-2079 433 L-2060 432 L-2040 431 L-2021 430 L-2001 428 L-1982 427 L-1963 426 L-1943 425 L-1924 424 L-1905 422 L-1878 421 L-1857 420 L-1829 419 L-1795 418 L-1781 417 L-1767 416 L-1749 415 L-1730 414 L-1710 413 L-1692 412 L-1672 411 L-1652 410 L-1632 409 L-1614 408 L-1596 407 L-1575 406 L-1555 405 L-1537 404 L-1518 403 L-1498 402 L-1478 402 L-1460 401 L-1441 400 L-1420 400 L-1395 399 L-1381 398 L-1363 397 L-1344 396 L-1324 395 L-1305 394 L-1286 393 L-1266 392 L-1246 390 L-1228 388 L-1209 386 L-1188 384 L-1168 383 L-1150 381 L-1131 380 L-1111 379 L-1093 377 L-1073 376 L-1054 375 L-1034 374 L-1015 373 L-995 372 L-977 371 L-948 370 L-900 369 L-863 368 L-848 367 L-836 366 L-819 365 L-801 365 L-782 364 L-763 364 L-744 363 L-724 362 L-703 361 L-686 361 L-667 360 L-647 360 L-627 359 L-608 358 L-590 357 L-570 356 L-550 355 L-531 354 L-512 353 L-491 352 L-467 350 L-452 349 L-435 347 L-415 346 L-396 344 L-376 343 L-358 342 L-337 340 L-317 339 L-299 338 L-280 336 L-260 335 L-239 334 L-222 333 L-203 332 L-183 331 L-164 330 L-144 329 L-125 328 L-105 327 L-86 326 L-67 325 L-48 324 L-20 323 L0 322 L28 321 L64 319 L79 316 L91 314 L109 313 L126 312 L147 310 L165 310 L185 309 L204 308 L225 307 L242 306 L261 305 L281 304 L302 302 L320 301 L339 298 L358 296 L379 295 L397 293 L415 291 L437 290 L462 288 L477 287 L494 286 L513 285 L533 283 L552 282 L570 280 L590 279 L612 277 L629 276 L648 275 L668 274 L689 272 L706 271 L725 270 L745 269 L764 268 L783 267 L802 266 L822 265 L842 264 L861 263 L880 262 L908 997 L928 996 L956 995 L992 993 L1006 255 L1019 254 L1037 253 L1055 252 L1075 251 L1093 251 L1113 250 L1133 249 L1154 247 L1171 246 L1189 244 L1210 243 L1230 241 L1248 239 L1267 237 L1287 235 L1308 233 L1325 232 L1344 231 L1365 230 L1390 228 L1405 226 L1435 224 L1475 222 L1498 220 L1527 217 L1544 215 L1557 214 L1577 212 L1597 211 L1618 210 L1634 209 L1653 208 L1674 207 L1692 206 L1712 206 L1731 205 L1751 204 L1771 203 L1789 203 L1808 202 L1836 201 L1857 200 L1885 199 L1920 198 L1933 196 L1965 195 L1984 194 L2003 193 L2022 193 L2041 192 L2061 191 L2082 191 L2099 190 L2118 188 L2138 185 L2159 182 L2177 179 L2196 175 L2215 173 L2236 170 L2254 168 L2273 167 L2294 166 L2319 164 L2334 163 L2351 162 L2370 160 L2390 159 L2409 157 L2428 156 L2448 155 L2469 153 L2486 151 L2505 150 L2525 149 L2546 148 L2563 147 L2582 146 L2602 145 L2621 144 L2641 143 L2660 142 L2679 141 L2699 140 L2718 139 L2737 138 L2765 138 L2785 137 L2855 135 L2883 132 L2898 130 L2912 128 L2932 127 L2950 126 L2969 124 L2990 123 L3011 122 L3028 121 L3046 120 L3067 119 L3087 119 L3105 118 L3124 116 L3144 115 L3165 114 L3182 112 L3201 111 L3222 110 L3247 110 L3262 108 L3280 107 L3298 106 L3319 105 L3337 103 L3357 102 L3376 101 L3397 100 L3414 99 L3434 98 L3454 97 L3475 96 L3492 95 L3550 94 L3569 93 L3588 92 L3608 92 L3628 91 L3647 90 L3665 90 L3693 89 L3714 88 L3742 88 L3778 87 L3793 86 L3805 85 L3823 85 L3841 84 L3861 84 L3879 83 L3899 83 L3918 83 L3940 82 L3956 82 L3975 82 L3996 81 L4016 80 L4034 80 L4053 79 L4073 78 L4093 77 L4111 77 L4130 76 L4151 75 L4176 74 L4191 74 L4208 73 L4227 73 L4247 72 L4266 71 L4285 70 L4305 69 L4326 68 L4343 67 L4362 66 L4383 66 L4403 65 L4420 65 L4439 64 L4459 64 L4478 63 L4498 63 L4517 63 L4536 62 L4557 62 L4575 62 L4594 61 L4622 61 L4642 60 L4670 60 L4705 59 L4719 58 L4733 58 L4751 57 L4769 57 L4789 56 L4807 56 L4847 55 L4867 55 L4885 54 L4903 54 L4924 53 L4944 52 L4962 51 L4981 50 L5001 50 L5021 49 L5039 49 L5058 48 L5079 48 L5104 47 L5118 47 L5136 46 L5155 46 L5174 45 L5194 44 L5213 44 L5233 43 L5253 42 L5271 42 L5290 41 L5311 40 L5331 40 L5349 39 L5368 39 L5388 38 L5406 38 L5426 38 L5445 37 L5465 37 L5484 36 L5504 36 L5523 35 L5551 35 L5599 34 L5636 34 L5652 33 L5664 33 L5681 32 L5698 32 L5717 31 L5736 31 L5755 31 L5775 30 L5796 30 L5813 30 L5832 30 L5852 30 L5872 30 L5891 29 L5909 29 L5929 29 L5949 28 L5968 28 L5987 27 L6008 27 L6032 26 L6047 25 L6064 25 L6084 24 L6103 23 L6123 21 L6141 20 L6162 19 L6182 18 L6200 17 L6219 16 L6239 15 L6260 14 L6277 12 L6296 11 L6316 10 L6335 9 L6355 8 L6374 8 L6394 7 L6413 6 L6432 4 L6451 3 L6480 2 L6500 1" />
</svg>
