<svg xmlns="http://www.w3.org/2000/svg" version="1.1" viewBox="0 0 6500 1000">
	<path fill="none" stroke="gold" stroke-width="125" stroke-linecap="round" stroke-linejoin="round" d="M0 11231  L-454522 11231 L-451918 11184 L-450250 11137 L-431920 11044 L-431750 10950 L-424592 10857 L-424559 10857 L-411128 10810 L-408206 10857 L-394866 10717 L-390697 10529 L-389536 10296 L-388917 10062 L-386905 9921 L-383134 9828 L-382534 9734 L-382205 9641 L-381992 9547 L-381450 9454 L-380212 9079 L-379033 8705 L-376169 8331 L-375647 7957 L-370791 7863 L-367854 7770 L-367811 7676 L-367503 7583 L-367251 7489 L-364656 7396 L-360400 7396 L-360382 7396 L-359146 7396 L-357268 7396 L-355315 7302 L-354367 7209 L-354096 7115 L-353786 7068 L-353688 7021 L-352858 7021 L-350827 7068 L-350536 6647 L-348390 6460 L-348234 6180 L-344578 5899 L-344327 6039 L-344229 5992 L-343711 6133 L-341560 6367 L-340631 6601 L-339105 6834 L-337866 6834 L-336319 6788 L-333358 6694 L-332236 6601 L-331927 6507 L-330715 6460 L-327709 6975 L-327689 6928 L-327342 6881 L-327129 6834 L-327002 6180 L-326761 6086 L-326723 5992 L-326703 5899 L-326684 5805 L-326625 5712 L-326566 5618 L-326548 5525 L-326105 5431 L-324866 5338 L-323320 5244 L-319932 5151 L-314206 5104 L-314005 5057 L-312369 5010 L-310647 4963 L-309215 4917 L-308982 4870 L-308267 4823 L-302135 4776 L-301767 4683 L-301613 4589 L-301034 4496 L-300742 4402 L-299774 4309 L-299465 4215 L-298866 4122 L-297260 4122 L-296524 4122 L-296215 4168 L-295446 4168 L-293410 4075 L-292985 3981 L-292172 3934 L-284744 3841 L-284221 3747 L-284047 3654 L-283312 3560 L-281745 3467 L-281339 3420 L-279114 3326 L-278166 3280 L-277741 3233 L-277411 3233 L-276367 3186 L-274259 3093 L-274007 2999 L-273388 2905 L-272575 2859 L-270467 2765 L-270419 2672 L-268490 2578 L-268165 2485 L-268030 2391 L-267526 2344 L-266114 2251 L-265611 2064 L-265089 1923 L-261529 1736 L-260794 1549 L-258369 1549 L-257080 1456 L-256673 1409 L-253521 1409 L-253366 1409 L-253346 1456 L-252979 1456 L-251721 1502 L-251006 1549 L-250116 1549 L-249709 1549 L-248780 1549 L-247672 1502 L-247368 1689 L-241120 1783 L-240172 1876 L-238546 1970 L-238044 2017 L-234369 2064 L-233536 2110 L-229583 2157 L-228171 2017 L-225682 1923 L-225006 1830 L-224967 1783 L-224096 1783 L-220885 1736 L-218022 1689 L-217054 1643 L-215932 1549 L-215913 1456 L-214288 1362 L-213824 1222 L-213732 1175 L-207363 1128 L-206414 1081 L-203957 1035 L-203085 941 L-201849 894 L-199848 847 L-199450 754 L-198014 660 L-195988 614 L-195775 520 L-194594 473 L-193086 427 L-193066 380 L-191054 333 L-190184 239 L-189313 193 L-188728 99 L-188191 6 L-187533 -87 L-186295 -181 L-185735 -227 L-184554 -274 L-183316 -321 L-183278 -368 L-182891 -414 L-182349 -508 L-181575 -555 L-180453 -601 L-178364 -695 L-178030 -789 L-177745 -882 L-176816 -929 L-176333 -1022 L-175597 -1069 L-171966 -1116 L-170839 -1163 L-170684 -1210 L-169658 -1303 L-165943 -1350 L-164726 -1443 L-162907 -1537 L-160122 -1584 L-159560 -1677 L-155672 -1677 L-153196 -1724 L-151861 -1724 L-151357 -1771 L-150874 -1818 L-148185 -1818 L-144413 -1818 L-141956 -1818 L-140776 -1818 L-140137 -1864 L-137778 -1958 L-137700 -2005 L-136653 -2051 L-136559 -2145 L-136056 -2145 L-135611 -2145 L-135553 -2145 L-135340 -2145 L-132380 -2239 L-129672 -2285 L-129518 -2332 L-125997 -2379 L-125474 -2472 L-124506 -2566 L-124157 -2613 L-123114 -2706 L-122185 -2800 L-121760 -2847 L-120250 -2847 L-119284 -2893 L-119265 -2940 L-117369 -6355 L-117253 -9862 L-117205 -13324 L-117180 -16785 L-114176 -16832 L-112145 -16925 L-110385 -16972 L-110018 -17019 L-109572 -17112 L-109205 -17159 L-108791 -17253 L-106806 -17299 L-106593 -17299 L-106438 -17346 L-104833 -17346 L-103711 -17393 L-102763 -17440 L-101505 -17533 L-99861 -17580 L-98681 -17673 L-92092 -17720 L-92045 -17767 L-91639 -17814 L-90594 -17861 L-90459 -17907 L-88776 -18001 L-88756 -18048 L-87420 -18141 L-86183 -18188 L-86029 -18235 L-85655 -18328 L-85449 -18375 L-85140 -18422 L-84366 -18515 L-82044 -18562 L-81387 -18609 L-79259 -18656 L-77536 -18702 L-77343 -18796 L-74789 -18843 L-74513 -18936 L-74325 -19030 L-73492 -19077 L-72720 -19123 L-72022 -19170 L-67021 -19170 L-66645 -19264 L-62393 -19311 L-61905 -14680 L-61886 -14680 L-61807 -14727 L-61732 -14774 L-61712 -19544 L-60899 -19591 L-60146 -19685 L-58926 -19731 L-57495 -19731 L-57398 -19778 L-57224 -19778 L-56869 -19872 L-55560 -19919 L-53703 -19965 L-52001 -20059 L-51498 -20106 L-51232 -20152 L-50839 -20199 L-50705 -20246 L-49795 -20293 L-49419 -20340 L-48490 -20340 L-48151 -20386 L-48112 -20386 L-48074 -20433 L-46158 -20433 L-45985 -20480 L-44456 -20480 L-44128 -20527 L-44012 -20573 L-43605 -20667 L-43256 -20714 L-41613 -20807 L-41062 -20854 L-40819 -20901 L-40277 -20948 L-39446 -21041 L-38904 -21088 L-37370 -21181 L-37278 -21228 L-37241 -21275 L-37105 -21322 L-36718 -21369 L-35693 -21415 L-33816 -21462 L-33720 -21509 L-33120 -20012 L-32753 -18422 L-32268 -16785 L-32230 -15195 L-31456 -15101 L-31399 -15148 L-31224 -15241 L-31031 -15288 L-29425 -15382 L-29405 -15428 L-29250 -15335 L-29135 -15288 L-27955 -15241 L-27800 -15101 L-27133 -15101 L-24685 -11266 L-22170 -7337 L-19501 -3548 L-11801 239 L-6134 239 L-3919 193 L-3896 193 L-2922 1128 L-2902 1128 L-2038 1035 L701 988 L6500 6" />
</svg>
