<svg xmlns="http://www.w3.org/2000/svg" version="1.1" viewBox="0 0 6500 1000">
	<path fill="none" stroke="gold" stroke-width="125" stroke-linecap="round" stroke-linejoin="round" d="M0 3744  L-724792 3744 L-722188 3744 L-720520 3744 L-702191 3743 L-702021 3743 L-694863 3743 L-694830 3743 L-681399 3743 L-678477 3743 L-665136 3742 L-660967 3742 L-659807 3741 L-659188 3740 L-657176 3739 L-653404 3739 L-652804 3739 L-652476 3738 L-652263 3738 L-651721 3738 L-650483 3736 L-649304 3735 L-646439 3734 L-645917 3732 L-641062 3732 L-638125 3732 L-638082 3731 L-637773 3731 L-637521 3731 L-634926 3730 L-630671 3730 L-630653 3730 L-629416 3730 L-627539 3730 L-625585 3730 L-624637 3730 L-624366 3729 L-624057 3729 L-623959 3729 L-623128 3729 L-621097 3729 L-620807 3727 L-618661 3727 L-618505 3726 L-614849 3725 L-614598 3725 L-614499 3725 L-613982 3726 L-611831 3726 L-610902 3727 L-609376 3728 L-608136 3728 L-606590 3728 L-603628 3728 L-602506 3727 L-602197 3727 L-600986 3727 L-597979 3729 L-597960 3728 L-597612 3728 L-597399 3728 L-597273 3726 L-597031 3725 L-596993 3725 L-596974 3725 L-596954 3724 L-596896 3724 L-596837 3724 L-596819 3723 L-596376 3723 L-595137 3723 L-593591 3722 L-590203 3722 L-584477 3722 L-584275 3722 L-582639 3721 L-580917 3721 L-579485 3721 L-579253 3721 L-578538 3721 L-572405 3721 L-572038 3720 L-571883 3720 L-571305 3720 L-571012 3719 L-570045 3719 L-569735 3719 L-569136 3718 L-567530 3718 L-566795 3718 L-566485 3718 L-565717 3718 L-563681 3718 L-563256 3718 L-562443 3718 L-555014 3717 L-554491 3717 L-554318 3717 L-553583 3716 L-552015 3716 L-551609 3716 L-549384 3715 L-548437 3715 L-548012 3715 L-547681 3715 L-546637 3715 L-544529 3715 L-544277 3714 L-543658 3714 L-542846 3714 L-540738 3713 L-540689 3713 L-538761 3713 L-538435 3712 L-538300 3712 L-537797 3712 L-536384 3711 L-535881 3711 L-535360 3710 L-531800 3710 L-531065 3709 L-528640 3709 L-527351 3709 L-526944 3708 L-523791 3708 L-523636 3708 L-523616 3709 L-523250 3709 L-521991 3709 L-521276 3709 L-520386 3709 L-519979 3709 L-519051 3709 L-517942 3709 L-517639 3709 L-511390 3710 L-510443 3710 L-508817 3710 L-508315 3711 L-504639 3711 L-503807 3711 L-499854 3711 L-498442 3711 L-495953 3710 L-495276 3710 L-495237 3710 L-494367 3710 L-491155 3710 L-488292 3709 L-487324 3709 L-486203 3709 L-486184 3709 L-484559 3708 L-484095 3708 L-484003 3708 L-477634 3707 L-476685 3707 L-474228 3707 L-473356 3707 L-472120 3706 L-470118 3706 L-469721 3706 L-468284 3706 L-466258 3705 L-466045 3705 L-464865 3705 L-463357 3705 L-463336 3705 L-461324 3704 L-460455 3704 L-459584 3704 L-458999 3704 L-458462 3703 L-457804 3703 L-456566 3703 L-456005 3702 L-454824 3702 L-453587 3702 L-453548 3702 L-453161 3702 L-452620 3701 L-451846 3701 L-450724 3701 L-448634 3701 L-448301 3700 L-448015 3700 L-447087 3700 L-446604 3700 L-445868 3699 L-442237 3699 L-441109 3699 L-440955 3699 L-439929 3698 L-436214 3698 L-434996 3698 L-433178 3698 L-430392 3697 L-429831 3697 L-425943 3697 L-423466 3697 L-422131 3697 L-421628 3697 L-421145 3697 L-418456 3697 L-414684 3697 L-412227 3697 L-411047 3697 L-410408 3696 L-408048 3696 L-407971 3696 L-406923 3696 L-406830 3695 L-406327 3695 L-405881 3695 L-405824 3695 L-405610 3695 L-402651 3695 L-399943 3695 L-399788 3695 L-396267 3695 L-395744 3694 L-394777 3694 L-394428 3694 L-393384 3693 L-392456 3693 L-392030 3693 L-390521 3693 L-389554 3693 L-389535 3693 L-387639 3680 L-387523 3667 L-387475 3655 L-387451 3642 L-384447 3642 L-382416 3642 L-380655 3641 L-380288 3641 L-379843 3641 L-379476 3641 L-379062 3640 L-377077 3640 L-376864 3640 L-376709 3640 L-375103 3640 L-373982 3640 L-373033 3640 L-371776 3639 L-370131 3639 L-368952 3639 L-362362 3639 L-362316 3638 L-361910 3638 L-360865 3638 L-360730 3638 L-359047 3638 L-359027 3637 L-357690 3637 L-356454 3637 L-356300 3637 L-355926 3636 L-355720 3636 L-355410 3636 L-354636 3636 L-352315 3636 L-351657 3635 L-349529 3635 L-347807 3635 L-347613 3635 L-345060 3635 L-344784 3634 L-344596 3634 L-343763 3634 L-342991 3634 L-342293 3633 L-337292 3633 L-336916 3633 L-332663 3633 L-332176 3650 L-332157 3650 L-332078 3650 L-332002 3649 L-331983 3632 L-331170 3632 L-330416 3631 L-329197 3631 L-327765 3631 L-327669 3631 L-327494 3631 L-327140 3631 L-325831 3631 L-323974 3630 L-322271 3630 L-321768 3630 L-321503 3630 L-321110 3630 L-320976 3629 L-320066 3629 L-319690 3629 L-318761 3629 L-318422 3629 L-318382 3629 L-318345 3629 L-316429 3629 L-316255 3629 L-314727 3629 L-314398 3628 L-314282 3628 L-313875 3628 L-313527 3628 L-311883 3627 L-311332 3627 L-311089 3627 L-310548 3627 L-309717 3627 L-309175 3626 L-307640 3626 L-307548 3626 L-307511 3626 L-307375 3626 L-306988 3625 L-305963 3625 L-304087 3625 L-303991 3625 L-303390 3630 L-303023 3636 L-302539 3642 L-302501 3648 L-301727 3648 L-301669 3648 L-301495 3648 L-301301 3647 L-299696 3647 L-299676 3647 L-299521 3647 L-299405 3647 L-298226 3648 L-298071 3648 L-297404 3648 L-294956 3662 L-292441 3676 L-289771 3690 L-282072 3704 L-276404 3704 L-274190 3704 L-274166 3704 L-273193 3707 L-273173 3707 L-272309 3707 L-269569 3707 L-263770 3703 L-263617 3703 L-260831 3703 L-247223 3702 L-246477 3702 L-242066 3702 L-225720 3702 L-225488 3701 L-224950 3701 L-216491 3701 L-207785 3701 L-207573 3701 L-205601 3701 L-202814 3701 L-198327 3701 L-198172 3701 L-198003 3701 L-197863 3700 L-197572 3700 L-197533 3700 L-197262 3700 L-197091 3700 L-196681 3699 L-195560 3699 L-194380 3699 L-193103 3699 L-190239 3699 L-187319 3698 L-185327 3698 L-183779 3698 L-180741 3698 L-171417 3698 L-170893 3697 L-165169 3697 L-163662 3697 L-162847 3697 L-161164 3697 L-160443 3697 L-160274 3697 L-159229 3696 L-157162 3696 L-155800 3696 L-151357 3696 L-151259 3696 L-151221 3696 L-151202 3695 L-150369 3695 L-150292 3695 L-147719 3695 L-144470 3695 L-144315 3694 L-143367 3694 L-141626 3694 L-140910 3695 L-137369 3696 L-130792 3697 L-129375 3698 L-129354 3698 L-128404 3698 L-124929 3698 L-124176 3697 L-123614 3697 L-122832 3697 L-115328 3697 L-113730 3697 L-112156 3696 L-108970 3696 L-104637 3696 L-96068 3696 L-87321 3696 L-84247 3696 L-80981 3695 L-80435 3695 L-73298 3695 L-67630 3695 L-53566 3695 L-47554 3695 L-42848 3695 L-38845 3695 L-33737 3695 L-24023 3694 L-8453 3694 L-5370 3694 L-5068 3617 L-5048 3523 L-5029 3415 L-5009 3295 L-4990 3241 L-4970 3194 L-4952 3152 L-4924 3110 L-4903 3070 L-4876 3027 L-4840 2979 L-4827 2939 L-4814 2904 L-4795 2876 L-4776 2855 L-4756 2833 L-4738 2811 L-4719 2790 L-4699 2768 L-4678 2745 L-4661 2723 L-4642 2701 L-4622 2680 L-4602 2659 L-4583 2636 L-4565 2613 L-4545 2589 L-4525 2565 L-4506 2542 L-4487 2521 L-4466 2500 L-4441 2479 L-4427 2459 L-4410 2440 L-4390 2420 L-4371 2400 L-4352 2379 L-4333 2358 L-4313 2338 L-4292 2318 L-4274 2300 L-4255 2282 L-4235 2266 L-4214 2250 L-4197 2237 L-4178 2223 L-4158 2210 L-4139 2198 L-4119 2186 L-4101 2175 L-4081 2166 L-4061 2157 L-4042 2148 L-4023 2139 L-3996 2127 L-3975 2115 L-3947 2102 L-3913 2087 L-3899 2075 L-3886 2065 L-3867 2055 L-3848 2047 L-3828 2038 L-3810 2028 L-3790 2018 L-3770 2008 L-3750 1999 L-3733 1990 L-3714 1981 L-3693 1971 L-3674 1961 L-3655 1949 L-3636 1936 L-3616 1923 L-3597 1909 L-3578 1896 L-3559 1882 L-3538 1866 L-3514 1850 L-3499 1833 L-3482 1817 L-3462 1802 L-3443 1787 L-3423 1770 L-3404 1753 L-3384 1737 L-3364 1721 L-3346 1705 L-3327 1690 L-3307 1676 L-3286 1661 L-3268 1647 L-3249 1635 L-3229 1622 L-3211 1611 L-3191 1600 L-3172 1588 L-3152 1577 L-3133 1566 L-3113 1554 L-3095 1543 L-3066 1532 L-3046 1522 L-3018 1511 L-2981 1498 L-2966 1486 L-2954 1474 L-2937 1464 L-2920 1456 L-2900 1449 L-2881 1442 L-2862 1435 L-2842 1429 L-2821 1423 L-2804 1415 L-2785 1408 L-2765 1400 L-2745 1392 L-2727 1383 L-2708 1374 L-2688 1365 L-2668 1354 L-2649 1344 L-2630 1334 L-2609 1324 L-2585 1314 L-2570 1304 L-2553 1294 L-2533 1284 L-2514 1274 L-2494 1264 L-2476 1252 L-2456 1242 L-2435 1231 L-2417 1221 L-2398 1212 L-2378 1202 L-2358 1193 L-2340 1185 L-2321 1176 L-2301 1168 L-2282 1159 L-2262 1151 L-2243 1143 L-2224 1135 L-2204 1127 L-2185 1119 L-2166 1111 L-2138 1103 L-2118 1095 L-2090 1086 L-2054 1073 L-2039 1061 L-2026 1050 L-2009 1040 L-1991 1034 L-1971 1028 L-1952 1020 L-1933 1012 L-1913 1003 L-1892 993 L-1873 983 L-1856 973 L-1836 962 L-1816 950 L-1798 938 L-1779 925 L-1759 912 L-1738 900 L-1721 888 L-1702 879 L-1680 872 L-1656 865 L-1641 859 L-1623 853 L-1604 847 L-1585 840 L-1566 833 L-1547 826 L-1527 820 L-1506 815 L-1489 810 L-1469 804 L-1449 797 L-1428 788 L-1411 780 L-1392 774 L-1372 768 L-1353 765 L-1334 761 L-1315 757 L-1295 753 L-1275 748 L-1256 743 L-1238 739 L-1210 734 L-1189 730 L-1161 726 L-1127 720 L-1113 715 L-1100 711 L-1081 707 L-1062 704 L-1042 701 L-1024 697 L-1004 694 L-985 691 L-964 688 L-947 684 L-928 681 L-907 677 L-887 673 L-869 669 L-851 665 L-831 662 L-810 659 L-792 656 L-773 653 L-752 649 L-727 646 L-713 643 L-695 640 L-676 637 L-657 634 L-637 631 L-618 627 L-598 623 L-577 620 L-560 616 L-541 613 L-521 610 L-500 607 L-483 604 L-464 601 L-444 598 L-425 595 L-405 592 L-386 590 L-366 588 L-347 586 L-328 584 L-309 588 L-280 591 L-260 595 L-232 598 L-195 595 L-180 592 L-167 590 L-150 588 L-134 586 L-114 584 L-95 582 L-76 580 L-56 579 L-35 577 L-18 575 L0 574 L20 572 L40 570 L58 568 L77 566 L97 564 L117 561 L135 560 L154 558 L176 556 L200 555 L215 553 L232 551 L252 549 L271 547 L290 545 L309 543 L329 540 L350 537 L368 535 L387 532 L407 529 L428 527 L445 525 L464 522 L484 520 L503 518 L522 515 L541 513 L561 510 L581 508 L600 506 L619 504 L646 502 L667 499 L695 497 L730 494 L743 492 L757 490 L776 488 L794 486 L814 484 L832 482 L852 480 L872 478 L893 476 L910 473 L928 471 L949 469 L969 466 L987 464 L1006 460 L1026 457 L1046 454 L1064 451 L1083 448 L1104 445 L1129 442 L1144 439 L1161 436 L1180 433 L1200 430 L1219 427 L1238 424 L1258 421 L1279 418 L1296 415 L1315 413 L1336 410 L1357 408 L1374 405 L1392 403 L1412 402 L1431 400 L1451 398 L1470 396 L1490 395 L1510 393 L1528 391 L1547 390 L1575 389 L1596 387 L1623 385 L1659 382 L1673 379 L1686 376 L1704 373 L1722 371 L1742 370 L1761 368 L1780 366 L1800 364 L1821 362 L1838 360 L1857 358 L1877 355 L1897 353 L1916 350 L1934 348 L1954 345 L1975 343 L1993 341 L2011 339 L2033 337 L2058 335 L2072 334 L2090 331 L2109 329 L2129 327 L2148 325 L2167 322 L2187 319 L2208 315 L2225 312 L2244 309 L2264 307 L2285 305 L2302 303 L2321 301 L2341 300 L2360 299 L2380 297 L2398 295 L2418 294 L2438 292 L2457 291 L2476 290 L2503 288 L2524 287 L2552 285 L2586 284 L2600 283 L2613 281 L2632 280 L2651 279 L2671 278 L2689 276 L2709 275 L2728 275 L2749 273 L2766 272 L2785 271 L2806 270 L2826 268 L2844 267 L2863 266 L2883 265 L2903 264 L2921 263 L2940 263 L2961 262 L2986 261 L3000 259 L3018 258 L3037 257 L3056 256 L3076 255 L3095 254 L3115 252 L3135 250 L3153 248 L3172 245 L3193 243 L3213 241 L3231 239 L3250 238 L3270 236 L3288 234 L3308 233 L3327 231 L3347 230 L3366 228 L3386 227 L3404 226 L3433 225 L3481 224 L3518 223 L3532 221 L3545 220 L3562 219 L3580 219 L3599 218 L3618 217 L3637 216 L3657 215 L3678 214 L3695 214 L3714 213 L3734 212 L3754 211 L3772 210 L3791 209 L3811 208 L3831 207 L3850 206 L3869 204 L3890 203 L3914 201 L3929 199 L3946 197 L3966 195 L3985 194 L4005 192 L4023 190 L4043 189 L4064 187 L4082 185 L4101 184 L4121 182 L4141 181 L4159 180 L4178 179 L4198 177 L4217 176 L4237 175 L4255 174 L4275 173 L4295 171 L4314 170 L4333 169 L4361 168 L4381 166 L4409 164 L4446 162 L4461 159 L4473 157 L4491 155 L4508 153 L4528 152 L4547 151 L4566 150 L4586 149 L4607 148 L4624 147 L4642 145 L4663 144 L4684 142 L4701 140 L4721 137 L4740 135 L4761 132 L4778 130 L4797 128 L4819 127 L4844 125 L4859 123 L4876 122 L4895 120 L4915 119 L4933 117 L4952 115 L4972 113 L4994 111 L5010 109 L5030 108 L5050 107 L5071 105 L5088 104 L5107 102 L5127 101 L5146 100 L5165 98 L5184 97 L5204 96 L5224 94 L5243 94 L5262 92 L5290 997 L5310 995 L5338 994 L5374 992 L5388 84 L5401 83 L5419 81 L5437 80 L5456 79 L5475 78 L5495 77 L5514 76 L5536 74 L5552 72 L5571 70 L5592 68 L5612 66 L5630 64 L5649 61 L5669 59 L5690 57 L5707 56 L5726 54 L5747 53 L5772 51 L5787 48 L5817 46 L5857 43 L5880 41 L5909 38 L5925 35 L5939 33 L5958 31 L5979 30 L6000 29 L6016 27 L6035 26 L6055 25 L6074 24 L6094 23 L6113 22 L6133 21 L6153 20 L6171 19 L6190 18 L6218 17 L6238 16 L6266 15 L6302 13 L6315 11 L6347 10 L6365 9 L6385 8 L6404 7 L6423 6 L6443 5 L6464 5 L6481 4 L6500 1" />
</svg>
