<svg xmlns="http://www.w3.org/2000/svg" version="1.1" viewBox="0 0 6500 1000">
	<path fill="none" stroke="gold" stroke-width="125" stroke-linecap="round" stroke-linejoin="round" d="M0 1019  L-716049 1019 L-713444 1019 L-711776 1019 L-693447 1019 L-693277 1019 L-686119 1019 L-686086 1019 L-672655 1019 L-669733 1019 L-656392 1018 L-652223 1018 L-651063 1018 L-650444 1017 L-648432 1017 L-644660 1017 L-644060 1017 L-643732 1017 L-643519 1017 L-642977 1017 L-641739 1016 L-640560 1016 L-637696 1015 L-637173 1014 L-632318 1014 L-629381 1014 L-629338 1014 L-629029 1014 L-628777 1014 L-626182 1014 L-621927 1014 L-621909 1014 L-620672 1014 L-618795 1014 L-616841 1014 L-615893 1013 L-615623 1013 L-615313 1013 L-615215 1013 L-614384 1013 L-612353 1013 L-612063 1013 L-609917 1012 L-609761 1012 L-606105 1012 L-605854 1012 L-605755 1012 L-605238 1012 L-603087 1012 L-602158 1013 L-600632 1013 L-599393 1013 L-597846 1013 L-594884 1013 L-593762 1013 L-593453 1012 L-592242 1012 L-589235 1013 L-589216 1013 L-588868 1013 L-588655 1013 L-588529 1012 L-588287 1012 L-588250 1012 L-588230 1012 L-588211 1011 L-588152 1011 L-588093 1011 L-588075 1011 L-587632 1011 L-586393 1011 L-584847 1011 L-581459 1010 L-575733 1010 L-575531 1010 L-573895 1010 L-572173 1010 L-570741 1010 L-570509 1010 L-569794 1010 L-563662 1010 L-563294 1010 L-563139 1010 L-562561 1009 L-562268 1009 L-561301 1009 L-560992 1009 L-560392 1009 L-558786 1009 L-558051 1009 L-557741 1009 L-556973 1009 L-554937 1009 L-554512 1009 L-553699 1009 L-546270 1009 L-545747 1008 L-545574 1008 L-544839 1008 L-543271 1008 L-542866 1008 L-540641 1008 L-539693 1008 L-539268 1008 L-538937 1008 L-537894 1008 L-535785 1007 L-535533 1007 L-534914 1007 L-534102 1007 L-531994 1007 L-531945 1007 L-530017 1007 L-529691 1007 L-529556 1006 L-529053 1006 L-527640 1006 L-527137 1006 L-526616 1006 L-523056 1006 L-522321 1005 L-519896 1005 L-518607 1005 L-518200 1005 L-515047 1005 L-514892 1005 L-514872 1005 L-514506 1005 L-513247 1005 L-512532 1005 L-511642 1005 L-511235 1005 L-510307 1005 L-509198 1005 L-508895 1005 L-502646 1006 L-501699 1006 L-500073 1006 L-499571 1006 L-495895 1006 L-495063 1006 L-491110 1006 L-489698 1006 L-487209 1006 L-486532 1006 L-486494 1006 L-485623 1006 L-482411 1006 L-479548 1005 L-478580 1005 L-477459 1005 L-477440 1005 L-475815 1005 L-475351 1005 L-475259 1005 L-468890 1005 L-467941 1005 L-465484 1005 L-464612 1004 L-463376 1004 L-461374 1004 L-460977 1004 L-459541 1004 L-457514 1004 L-457301 1004 L-456121 1004 L-454613 1004 L-454593 1004 L-452580 1004 L-451711 1003 L-450840 1003 L-450255 1003 L-449718 1003 L-449060 1003 L-447822 1003 L-447261 1003 L-446080 1003 L-444843 1003 L-444804 1003 L-444417 1002 L-443876 1002 L-443102 1002 L-441980 1002 L-439890 1002 L-439557 1002 L-439271 1002 L-438343 1002 L-437860 1002 L-437124 1002 L-433493 1001 L-432365 1001 L-432211 1001 L-431185 1001 L-427470 1001 L-426253 1001 L-424434 1001 L-421648 1001 L-421087 1001 L-417199 1001 L-414722 1001 L-413388 1001 L-412884 1001 L-412401 1000 L-409712 1000 L-405940 1000 L-403483 1000 L-402303 1000 L-401664 1000 L-399304 1000 L-399227 1000 L-398179 1000 L-398086 1000 L-397583 1000 L-397137 1000 L-397080 1000 L-396866 1000 L-393907 1000 L-391199 1000 L-391044 1000 L-387523 1000 L-387000 1000 L-386033 999 L-385684 999 L-384640 999 L-383712 999 L-383286 999 L-381777 999 L-380810 999 L-380791 999 L-378895 994 L-378779 989 L-378731 984 L-378707 979 L-375703 979 L-373672 979 L-371911 979 L-371544 979 L-371099 979 L-370732 979 L-370318 978 L-368333 978 L-368120 978 L-367965 978 L-366359 978 L-365238 978 L-364289 978 L-363032 978 L-361388 978 L-360208 978 L-353618 978 L-353572 978 L-353166 978 L-352121 978 L-351986 978 L-350303 977 L-350283 977 L-348946 977 L-347710 977 L-347556 977 L-347182 977 L-346976 977 L-346666 977 L-345892 977 L-343571 977 L-342913 977 L-340785 976 L-339063 976 L-338869 976 L-336316 976 L-336040 976 L-335852 976 L-335019 976 L-334247 976 L-333549 976 L-328548 976 L-328172 976 L-323919 976 L-323432 982 L-323413 982 L-323334 982 L-323259 982 L-323239 975 L-322426 975 L-321672 975 L-320453 975 L-319021 975 L-318925 975 L-318751 975 L-318396 975 L-317087 975 L-315230 975 L-313527 974 L-313024 974 L-312759 974 L-312366 974 L-312232 974 L-311322 974 L-310946 974 L-310017 974 L-309678 974 L-309638 974 L-309601 974 L-307685 974 L-307511 974 L-305983 974 L-305654 974 L-305538 974 L-305131 974 L-304783 973 L-303139 973 L-302589 973 L-302345 973 L-301804 973 L-300973 973 L-300431 973 L-298897 973 L-298804 973 L-298767 973 L-298631 973 L-298244 973 L-297219 972 L-295343 972 L-295247 972 L-294646 974 L-294279 977 L-293795 979 L-293757 981 L-292983 982 L-292925 981 L-292751 981 L-292557 981 L-290952 981 L-290932 981 L-290777 981 L-290661 981 L-289482 981 L-289327 982 L-288660 982 L-286212 987 L-283697 993 L-281027 998 L-273328 1003 L-267660 1003 L-265446 1003 L-265422 1003 L-264449 1005 L-264429 1005 L-263565 1005 L-260825 1004 L-255026 1003 L-254873 1003 L-252087 1003 L-238479 1003 L-237733 1003 L-233322 1003 L-216976 1002 L-216744 1002 L-216207 1002 L-207747 1002 L-199041 1002 L-198829 1002 L-196857 1002 L-194070 1002 L-189583 1002 L-189428 1002 L-189259 1002 L-189119 1002 L-188828 1002 L-188789 1002 L-188518 1002 L-188347 1002 L-187937 1002 L-186816 1001 L-185636 1001 L-184359 1001 L-181495 1001 L-178575 1001 L-176583 1001 L-175035 1001 L-171997 1001 L-162673 1001 L-162149 1001 L-156425 1001 L-154918 1001 L-154103 1001 L-152420 1001 L-151699 1001 L-151530 1000 L-150485 1000 L-148418 1000 L-147056 1000 L-142613 1000 L-142515 1000 L-142477 1000 L-142458 1000 L-141625 1000 L-141548 1000 L-138975 1000 L-135726 1000 L-135571 1000 L-134623 1000 L-132882 999 L-132166 1000 L-128625 1000 L-122048 1001 L-120631 1001 L-120610 1001 L-119660 1001 L-116185 1001 L-115432 1001 L-114870 1001 L-114088 1001 L-106584 1001 L-104986 1000 L-103412 1000 L-100226 1000 L-95893 1000 L-87324 1000 L-78577 1000 L-75503 1000 L-72237 1000 L-71691 1000 L-64554 1000 L-58886 1000 L-44822 1000 L-38810 1000 L-34104 1000 L-30101 1000 L-24993 1000 L-15279 1000 L290 999 L3373 999 L3675 969 L3695 932 L3714 890 L3734 843 L3753 822 L3772 804 L3791 787 L3819 771 L3840 755 L3867 738 L3903 719 L3916 704 L3929 690 L3948 679 L3967 671 L3986 662 L4005 654 L4024 645 L4044 637 L4065 628 L4082 619 L4101 611 L4121 602 L4141 594 L4159 585 L4178 576 L4198 566 L4218 557 L4237 548 L4255 540 L4277 532 L4302 523 L4316 516 L4333 508 L4353 500 L4372 493 L4391 485 L4410 476 L4430 468 L4451 461 L4469 453 L4488 446 L4508 440 L4529 434 L4546 429 L4565 423 L4585 418 L4604 413 L4623 409 L4642 404 L4662 401 L4682 397 L4701 394 L4720 390 L4747 386 L4768 381 L4796 376 L4830 370 L4844 365 L4857 361 L4876 357 L4895 354 L4915 351 L4933 347 L4953 343 L4972 339 L4993 335 L5010 332 L5029 328 L5049 325 L5069 321 L5088 316 L5107 311 L5127 306 L5146 300 L5165 295 L5184 290 L5205 283 L5229 277 L5244 270 L5261 264 L5281 258 L5300 252 L5320 246 L5339 239 L5359 233 L5379 227 L5397 220 L5416 214 L5436 209 L5457 203 L5475 198 L5494 193 L5514 188 L5532 184 L5552 179 L5571 175 L5591 170 L5610 166 L5629 161 L5648 157 L5677 152 L5697 148 L5725 144 L5762 139 L5777 134 L5789 130 L5806 126 L5823 123 L5843 120 L5862 117 L5881 115 L5901 112 L5922 110 L5939 107 L5958 104 L5978 101 L5998 98 L6016 94 L6035 91 L6055 87 L6075 83 L6094 79 L6112 75 L6134 71 L6158 67 L6173 63 L6190 59 L6210 55 L6229 52 L6248 47 L6267 43 L6287 39 L6308 35 L6326 31 L6345 27 L6365 23 L6385 20 L6403 17 L6422 13 L6442 10 L6461 7 L6481 3 L6500 0" />
</svg>
