<svg xmlns="http://www.w3.org/2000/svg" version="1.1" viewBox="0 0 6500 1000">
	<path fill="none" stroke="gold" stroke-width="125" stroke-linecap="round" stroke-linejoin="round" d="M0 3772  L-724608 3772 L-722004 3772 L-720336 3772 L-702006 3771 L-701836 3771 L-694678 3771 L-694645 3771 L-681214 3771 L-678293 3771 L-664952 3770 L-660783 3769 L-659623 3769 L-659004 3768 L-656992 3767 L-653220 3767 L-652620 3767 L-652291 3766 L-652078 3766 L-651536 3766 L-650298 3764 L-649119 3763 L-646255 3761 L-645733 3760 L-640877 3760 L-637940 3759 L-637897 3759 L-637589 3759 L-637337 3758 L-634742 3758 L-630486 3758 L-630469 3758 L-629232 3758 L-627354 3758 L-625401 3758 L-624453 3757 L-624182 3757 L-623872 3757 L-623774 3757 L-622944 3757 L-620913 3757 L-620622 3755 L-618476 3755 L-618321 3753 L-614664 3752 L-614413 3753 L-614315 3753 L-613798 3753 L-611646 3754 L-610718 3755 L-609192 3756 L-607952 3756 L-606406 3756 L-603444 3755 L-602322 3755 L-602013 3755 L-600801 3755 L-597795 3756 L-597775 3756 L-597428 3756 L-597215 3756 L-597088 3753 L-596847 3753 L-596809 3753 L-596789 3752 L-596770 3752 L-596711 3752 L-596652 3751 L-596634 3751 L-596191 3751 L-594952 3750 L-593406 3750 L-590019 3750 L-584292 3750 L-584091 3749 L-582455 3749 L-580733 3749 L-579301 3749 L-579068 3749 L-578353 3748 L-572221 3748 L-571853 3748 L-571699 3748 L-571120 3747 L-570828 3747 L-569861 3747 L-569551 3746 L-568952 3746 L-567346 3746 L-566611 3746 L-566301 3746 L-565533 3746 L-563496 3746 L-563071 3745 L-562259 3745 L-554830 3745 L-554307 3745 L-554133 3744 L-553398 3744 L-551831 3743 L-551425 3743 L-549200 3743 L-548252 3743 L-547827 3743 L-547497 3743 L-546453 3742 L-544345 3742 L-544093 3742 L-543474 3741 L-542661 3741 L-540553 3741 L-540505 3741 L-538577 3740 L-538251 3740 L-538116 3740 L-537613 3739 L-536200 3739 L-535697 3738 L-535175 3738 L-531616 3737 L-530881 3736 L-528456 3736 L-527166 3736 L-526759 3736 L-523607 3736 L-523452 3736 L-523432 3736 L-523065 3736 L-521807 3736 L-521092 3736 L-520202 3736 L-519795 3736 L-518866 3736 L-517758 3736 L-517455 3737 L-511206 3737 L-510258 3738 L-508632 3738 L-508130 3738 L-504455 3738 L-503622 3738 L-499669 3739 L-498257 3738 L-495768 3738 L-495092 3737 L-495053 3737 L-494182 3737 L-490971 3737 L-488108 3737 L-487140 3737 L-486018 3736 L-485999 3736 L-484374 3736 L-483910 3735 L-483818 3735 L-477449 3735 L-476501 3735 L-474044 3735 L-473171 3734 L-471935 3734 L-469934 3734 L-469536 3733 L-468100 3733 L-466074 3733 L-465861 3733 L-464681 3732 L-463172 3732 L-463152 3732 L-461140 3732 L-460270 3732 L-459399 3731 L-458815 3731 L-458277 3731 L-457620 3730 L-456382 3730 L-455821 3730 L-454640 3730 L-453402 3730 L-453364 3729 L-452977 3729 L-452435 3729 L-451661 3729 L-450539 3729 L-448450 3728 L-448117 3728 L-447831 3727 L-446902 3727 L-446419 3727 L-445684 3727 L-442052 3727 L-440925 3726 L-440770 3726 L-439744 3726 L-436029 3726 L-434812 3725 L-432994 3725 L-430208 3725 L-429646 3725 L-425758 3725 L-423282 3724 L-421947 3724 L-421444 3724 L-420960 3724 L-418271 3724 L-414500 3724 L-412042 3724 L-410863 3724 L-410223 3724 L-407864 3724 L-407786 3723 L-406739 3723 L-406645 3723 L-406142 3723 L-405697 3723 L-405639 3723 L-405426 3723 L-402466 3722 L-399758 3722 L-399604 3722 L-396083 3722 L-395560 3722 L-394593 3721 L-394244 3721 L-393200 3721 L-392271 3720 L-391846 3720 L-390337 3720 L-389370 3720 L-389351 3720 L-387455 3707 L-387339 3694 L-387291 3682 L-387267 3669 L-384262 3669 L-382232 3668 L-380471 3668 L-380104 3668 L-379658 3668 L-379291 3668 L-378877 3667 L-376892 3667 L-376679 3667 L-376524 3667 L-374919 3667 L-373797 3667 L-372849 3666 L-371592 3666 L-369947 3666 L-368767 3666 L-362178 3665 L-362131 3665 L-361726 3665 L-360681 3665 L-360545 3665 L-358863 3664 L-358843 3664 L-357506 3664 L-356270 3664 L-356115 3664 L-355742 3663 L-355535 3663 L-355226 3663 L-354452 3663 L-352130 3662 L-351473 3662 L-349345 3662 L-347622 3662 L-347429 3662 L-344876 3661 L-344599 3661 L-344411 3661 L-343579 3660 L-342806 3660 L-342108 3660 L-337108 3660 L-336732 3660 L-332479 3660 L-331992 3677 L-331972 3677 L-331893 3676 L-331818 3676 L-331798 3659 L-330986 3659 L-330232 3658 L-329013 3658 L-327581 3658 L-327484 3658 L-327310 3658 L-326956 3658 L-325646 3657 L-323789 3657 L-322087 3657 L-321584 3657 L-321319 3657 L-320925 3656 L-320791 3656 L-319881 3656 L-319505 3656 L-318577 3656 L-318237 3656 L-318198 3656 L-318160 3655 L-316245 3655 L-316071 3655 L-314542 3655 L-314214 3655 L-314098 3655 L-313691 3655 L-313343 3654 L-311699 3654 L-311148 3654 L-310905 3654 L-310364 3654 L-309532 3653 L-308991 3653 L-307456 3653 L-307364 3653 L-307327 3652 L-307191 3652 L-306804 3652 L-305779 3652 L-303902 3652 L-303806 3652 L-303206 3657 L-302839 3663 L-302354 3669 L-302316 3675 L-301542 3675 L-301485 3675 L-301310 3675 L-301117 3674 L-299511 3674 L-299491 3674 L-299336 3674 L-299221 3674 L-298041 3675 L-297886 3675 L-297220 3675 L-294771 3689 L-292257 3704 L-289587 3718 L-281887 3732 L-276220 3732 L-274005 3731 L-273982 3731 L-273008 3735 L-272988 3735 L-272124 3735 L-269384 3734 L-263586 3731 L-263432 3730 L-260646 3730 L-247038 3730 L-246292 3730 L-241881 3729 L-225535 3729 L-225303 3729 L-224766 3729 L-216307 3729 L-207601 3728 L-207389 3728 L-205416 3728 L-202630 3728 L-198142 3728 L-197988 3728 L-197819 3728 L-197678 3728 L-197388 3727 L-197349 3727 L-197078 3727 L-196906 3727 L-196496 3727 L-195376 3727 L-194195 3726 L-192919 3726 L-190055 3726 L-187134 3726 L-185142 3726 L-183595 3725 L-180557 3725 L-171232 3725 L-170708 3725 L-164985 3725 L-163478 3725 L-162663 3725 L-160979 3724 L-160258 3724 L-160090 3724 L-159045 3724 L-156977 3724 L-155615 3724 L-151172 3723 L-151075 3723 L-151036 3723 L-151017 3723 L-150185 3723 L-150107 3722 L-147535 3722 L-144285 3722 L-144131 3722 L-143182 3722 L-141441 3721 L-140726 3722 L-137185 3723 L-130608 3724 L-129190 3726 L-129170 3725 L-128219 3725 L-124745 3725 L-123991 3725 L-123430 3725 L-122648 3724 L-115144 3724 L-113545 3724 L-111971 3724 L-108786 3724 L-104453 3724 L-95883 3723 L-87137 3723 L-84063 3723 L-80797 3723 L-80250 3723 L-73113 3722 L-67446 3722 L-53381 3722 L-47370 3723 L-42663 3722 L-38660 3722 L-33553 3722 L-23839 3722 L-8268 3721 L-5185 3721 L-4883 3644 L-4864 3548 L-4845 3440 L-4825 3319 L-4805 3263 L-4786 3217 L-4767 3174 L-4740 3132 L-4719 3091 L-4691 3047 L-4656 2999 L-4642 2959 L-4629 2924 L-4611 2895 L-4592 2874 L-4572 2852 L-4554 2830 L-4534 2808 L-4514 2786 L-4493 2763 L-4476 2740 L-4458 2719 L-4437 2698 L-4417 2676 L-4399 2653 L-4380 2629 L-4360 2605 L-4340 2581 L-4322 2558 L-4303 2536 L-4282 2515 L-4257 2494 L-4242 2474 L-4225 2454 L-4206 2434 L-4186 2415 L-4167 2394 L-4148 2372 L-4128 2351 L-4108 2332 L-4090 2313 L-4071 2295 L-4050 2279 L-4030 2263 L-4013 2249 L-3994 2236 L-3974 2223 L-3955 2210 L-3935 2198 L-3916 2187 L-3896 2178 L-3877 2169 L-3857 2159 L-3839 2150 L-3811 2139 L-3790 2127 L-3763 2113 L-3729 2098 L-3714 2086 L-3701 2075 L-3683 2066 L-3664 2057 L-3644 2048 L-3625 2038 L-3606 2028 L-3586 2018 L-3565 2009 L-3548 2000 L-3529 1991 L-3509 1981 L-3489 1971 L-3471 1958 L-3452 1945 L-3432 1932 L-3412 1918 L-3393 1905 L-3375 1891 L-3353 1875 L-3329 1858 L-3314 1842 L-3297 1826 L-3277 1810 L-3258 1795 L-3238 1778 L-3220 1761 L-3200 1744 L-3179 1728 L-3161 1713 L-3142 1697 L-3122 1683 L-3102 1668 L-3084 1654 L-3065 1641 L-3045 1628 L-3026 1617 L-3006 1606 L-2988 1594 L-2968 1583 L-2948 1571 L-2929 1560 L-2910 1549 L-2881 1537 L-2862 1527 L-2834 1516 L-2797 1503 L-2782 1491 L-2769 1479 L-2752 1468 L-2735 1460 L-2715 1453 L-2697 1446 L-2678 1440 L-2657 1434 L-2637 1427 L-2620 1420 L-2601 1412 L-2580 1404 L-2561 1396 L-2542 1387 L-2523 1378 L-2503 1368 L-2484 1358 L-2465 1347 L-2446 1337 L-2425 1328 L-2401 1317 L-2386 1307 L-2369 1297 L-2349 1287 L-2330 1277 L-2310 1266 L-2291 1255 L-2271 1244 L-2251 1234 L-2233 1223 L-2214 1214 L-2194 1204 L-2173 1195 L-2155 1187 L-2136 1178 L-2116 1170 L-2098 1161 L-2078 1152 L-2059 1144 L-2039 1136 L-2020 1128 L-2000 1120 L-1982 1112 L-1953 1104 L-1933 1096 L-1905 1086 L-1869 1074 L-1855 1062 L-1842 1051 L-1824 1041 L-1806 1035 L-1786 1028 L-1768 1020 L-1748 1012 L-1729 1003 L-1707 993 L-1689 983 L-1672 973 L-1651 961 L-1631 949 L-1613 937 L-1594 924 L-1574 911 L-1554 899 L-1536 887 L-1517 878 L-1496 870 L-1471 864 L-1456 858 L-1439 852 L-1420 845 L-1400 838 L-1381 831 L-1362 825 L-1342 818 L-1321 813 L-1304 808 L-1285 802 L-1265 795 L-1244 786 L-1227 778 L-1208 771 L-1188 766 L-1169 762 L-1149 758 L-1130 754 L-1111 750 L-1091 745 L-1072 740 L-1053 736 L-1025 732 L-1005 728 L-977 723 L-942 717 L-928 712 L-915 708 L-896 704 L-878 701 L-858 698 L-839 694 L-820 691 L-800 688 L-779 684 L-762 681 L-743 678 L-723 674 L-703 670 L-685 666 L-666 662 L-646 659 L-626 656 L-608 652 L-589 649 L-567 646 L-543 643 L-528 640 L-511 637 L-491 634 L-472 630 L-453 627 L-434 623 L-414 619 L-393 616 L-375 612 L-357 609 L-336 606 L-316 603 L-298 600 L-279 597 L-259 594 L-240 591 L-221 588 L-202 586 L-182 584 L-163 582 L-143 580 L-125 584 L-96 587 L-76 590 L-48 594 L-11 590 L3 588 L16 586 L34 584 L50 582 L70 580 L88 578 L108 576 L127 574 L149 573 L166 571 L184 569 L205 567 L225 565 L243 563 L262 561 L282 559 L302 557 L320 555 L339 553 L360 552 L385 550 L399 548 L417 546 L436 544 L456 542 L475 540 L494 538 L514 536 L535 533 L552 530 L571 527 L592 525 L612 522 L629 520 L648 517 L668 515 L687 513 L707 510 L726 508 L746 505 L765 503 L784 501 L803 499 L831 497 L851 494 L879 492 L914 489 L928 487 L941 485 L960 482 L978 481 L998 479 L1017 477 L1036 475 L1056 472 L1077 470 L1094 468 L1113 466 L1133 464 L1153 461 L1171 458 L1190 455 L1210 451 L1230 448 L1249 445 L1267 442 L1289 440 L1314 436 L1328 433 L1345 430 L1365 427 L1384 424 L1403 421 L1422 418 L1442 415 L1463 412 L1481 409 L1500 407 L1520 404 L1541 401 L1558 399 L1577 397 L1597 395 L1616 394 L1635 392 L1654 390 L1674 388 L1694 387 L1713 385 L1732 384 L1759 382 L1780 381 L1808 379 L1843 376 L1857 373 L1870 370 L1889 367 L1907 365 L1927 363 L1945 361 L1965 359 L1985 358 L2006 355 L2023 353 L2041 351 L2062 349 L2082 346 L2100 344 L2119 341 L2139 339 L2159 336 L2177 334 L2196 332 L2217 331 L2242 328 L2257 327 L2274 325 L2293 322 L2313 320 L2332 318 L2351 315 L2371 312 L2392 308 L2409 305 L2428 302 L2449 300 L2469 298 L2486 296 L2505 294 L2526 293 L2544 291 L2564 290 L2583 288 L2603 287 L2622 285 L2642 284 L2660 282 L2688 281 L2709 280 L2736 278 L2770 277 L2785 275 L2798 274 L2816 273 L2835 271 L2855 270 L2874 269 L2893 268 L2913 267 L2934 266 L2951 265 L2970 264 L2990 262 L3010 261 L3028 260 L3047 259 L3067 257 L3087 257 L3106 256 L3125 255 L3146 254 L3170 253 L3185 252 L3202 250 L3222 249 L3241 248 L3260 247 L3279 246 L3299 244 L3320 242 L3338 240 L3357 238 L3377 235 L3398 233 L3415 231 L3434 230 L3454 228 L3473 226 L3493 225 L3511 223 L3531 222 L3550 220 L3570 219 L3589 218 L3617 217 L3665 216 L3702 215 L3717 213 L3729 212 L3746 211 L3764 211 L3784 210 L3802 209 L3821 208 L3842 207 L3862 206 L3879 206 L3898 205 L3919 204 L3938 203 L3957 202 L3976 201 L3996 200 L4015 199 L4034 198 L4053 196 L4074 195 L4099 193 L4113 191 L4130 189 L4150 187 L4169 185 L4189 184 L4208 182 L4228 181 L4248 179 L4266 177 L4285 175 L4306 174 L4326 173 L4344 172 L4363 170 L4383 169 L4401 168 L4421 167 L4440 166 L4460 164 L4479 163 L4499 162 L4517 160 L4546 159 L4566 158 L4594 156 L4630 153 L4645 151 L4658 148 L4675 146 L4693 145 L4713 143 L4731 142 L4751 141 L4770 141 L4792 140 L4808 138 L4827 137 L4848 135 L4868 133 L4886 131 L4905 128 L4925 126 L4945 124 L4963 121 L4982 120 L5003 118 L5028 116 L5043 114 L5061 113 L5079 111 L5099 110 L5118 108 L5137 106 L5157 104 L5178 102 L5195 100 L5214 99 L5234 97 L5256 96 L5272 95 L5291 93 L5311 92 L5330 91 L5350 89 L5369 88 L5388 87 L5408 85 L5427 84 L5446 83 L5474 997 L5494 995 L5522 994 L5558 992 L5572 75 L5586 73 L5603 72 L5621 71 L5641 70 L5659 69 L5679 68 L5699 66 L5720 65 L5737 63 L5755 61 L5776 59 L5796 57 L5814 54 L5833 52 L5853 49 L5874 48 L5891 46 L5910 45 L5932 43 L5957 41 L5972 39 L6001 36 L6041 33 L6064 31 L6093 28 L6110 25 L6124 23 L6143 21 L6163 20 L6184 19 L6201 17 L6220 16 L6240 15 L6259 14 L6278 13 L6297 12 L6317 12 L6337 10 L6356 9 L6375 8 L6402 7 L6423 6 L6451 4 L6486 3 L6500 1" />
</svg>
