<svg xmlns="http://www.w3.org/2000/svg" version="1.1" viewBox="0 0 6500 1000">
	<path fill="none" stroke="gold" stroke-width="125" stroke-linecap="round" stroke-linejoin="round" d="M0 1037  L-713959 1037 L-711355 1037 L-709687 1037 L-691358 1036 L-691188 1036 L-684030 1036 L-683997 1036 L-670566 1036 L-667644 1036 L-654303 1036 L-650134 1035 L-648974 1034 L-648355 1034 L-646343 1033 L-642571 1033 L-641971 1033 L-641642 1033 L-641429 1032 L-640888 1032 L-639650 1031 L-638471 1030 L-635606 1029 L-635084 1028 L-630229 1028 L-627291 1028 L-627248 1027 L-626940 1027 L-626688 1027 L-624093 1026 L-619838 1026 L-619820 1026 L-618583 1026 L-616706 1026 L-614752 1026 L-613804 1026 L-613533 1026 L-613224 1026 L-613125 1025 L-612295 1025 L-610264 1026 L-609974 1024 L-607827 1024 L-607672 1023 L-604016 1022 L-603765 1023 L-603666 1023 L-603149 1023 L-600998 1024 L-600069 1024 L-598543 1025 L-597303 1025 L-595757 1025 L-592795 1025 L-591673 1024 L-591364 1024 L-590153 1024 L-587146 1025 L-587127 1025 L-586779 1025 L-586566 1025 L-586440 1023 L-586198 1023 L-586160 1023 L-586141 1022 L-586121 1022 L-586062 1022 L-586004 1022 L-585986 1021 L-585543 1021 L-584303 1021 L-582758 1021 L-579370 1020 L-573644 1020 L-573442 1020 L-571806 1020 L-570084 1020 L-568652 1020 L-568420 1020 L-567705 1019 L-561572 1019 L-561205 1019 L-561050 1019 L-560472 1019 L-560179 1018 L-559212 1018 L-558902 1018 L-558303 1018 L-556697 1018 L-555962 1018 L-555652 1018 L-554884 1018 L-552848 1017 L-552422 1017 L-551610 1017 L-544181 1017 L-543658 1017 L-543485 1016 L-542750 1016 L-541182 1016 L-540776 1016 L-538551 1015 L-537603 1015 L-537178 1015 L-536848 1015 L-535804 1015 L-533696 1015 L-533444 1015 L-532825 1014 L-532012 1014 L-529905 1014 L-529856 1014 L-527928 1013 L-527602 1013 L-527467 1013 L-526964 1013 L-525551 1012 L-525048 1012 L-524527 1012 L-520967 1011 L-520232 1011 L-517807 1011 L-516518 1010 L-516111 1010 L-512958 1010 L-512803 1010 L-512783 1010 L-512416 1010 L-511158 1010 L-510443 1011 L-509553 1011 L-509146 1011 L-508218 1011 L-507109 1010 L-506806 1011 L-500557 1011 L-499610 1011 L-497984 1012 L-497482 1012 L-493806 1012 L-492974 1012 L-489021 1012 L-487609 1012 L-485120 1012 L-484443 1011 L-484404 1011 L-483534 1011 L-480322 1011 L-477459 1011 L-476491 1011 L-475370 1011 L-475351 1010 L-473726 1010 L-473262 1010 L-473170 1010 L-466800 1009 L-465852 1009 L-463395 1009 L-462523 1009 L-461287 1009 L-459285 1009 L-458888 1008 L-457451 1008 L-455425 1008 L-455212 1008 L-454032 1008 L-452524 1007 L-452503 1007 L-450491 1007 L-449622 1007 L-448751 1007 L-448166 1007 L-447629 1006 L-446971 1006 L-445733 1006 L-445172 1006 L-443991 1006 L-442754 1005 L-442715 1005 L-442328 1005 L-441786 1005 L-441013 1005 L-439891 1005 L-437801 1004 L-437468 1004 L-437182 1004 L-436254 1004 L-435770 1004 L-435035 1003 L-431404 1003 L-430276 1003 L-430121 1003 L-429095 1003 L-425381 1003 L-424163 1002 L-422345 1002 L-419559 1002 L-418998 1002 L-415110 1002 L-412633 1002 L-411298 1002 L-410795 1001 L-410312 1001 L-407623 1001 L-403851 1001 L-401394 1001 L-400214 1001 L-399575 1001 L-397215 1001 L-397138 1001 L-396090 1001 L-395997 1000 L-395494 1000 L-395048 1000 L-394991 1000 L-394777 1000 L-391817 1000 L-389110 1000 L-388955 1000 L-385434 1000 L-384911 1000 L-383944 999 L-383595 999 L-382551 999 L-381623 999 L-381197 999 L-379688 999 L-378721 998 L-378702 998 L-376806 989 L-376690 979 L-376642 970 L-376618 961 L-373614 960 L-371583 960 L-369822 960 L-369455 960 L-369010 960 L-368643 960 L-368229 959 L-366244 959 L-366031 959 L-365876 959 L-364270 959 L-363149 959 L-362200 959 L-360943 959 L-359298 958 L-358119 958 L-351529 958 L-351483 958 L-351077 958 L-350032 958 L-349896 957 L-348214 957 L-348194 957 L-346857 957 L-345621 957 L-345467 957 L-345093 956 L-344887 956 L-344577 956 L-343803 956 L-341482 956 L-340824 956 L-338696 955 L-336974 955 L-336780 955 L-334227 955 L-333951 955 L-333762 954 L-332930 954 L-332157 954 L-331459 954 L-326459 954 L-326083 954 L-321830 954 L-321343 966 L-321324 966 L-321245 966 L-321169 966 L-321150 953 L-320337 953 L-319583 953 L-318364 953 L-316932 953 L-316836 952 L-316661 952 L-316307 952 L-314998 952 L-313140 952 L-311438 952 L-310935 952 L-310670 951 L-310277 951 L-310143 951 L-309233 951 L-308856 951 L-307928 951 L-307589 951 L-307549 951 L-307512 951 L-305596 951 L-305422 950 L-303894 950 L-303565 950 L-303449 950 L-303042 950 L-302694 950 L-301050 950 L-300499 949 L-300256 949 L-299715 949 L-298884 949 L-298342 949 L-296807 949 L-296715 948 L-296678 948 L-296542 948 L-296155 948 L-295130 948 L-293254 948 L-293158 948 L-292557 952 L-292190 956 L-291706 961 L-291667 965 L-290894 965 L-290836 965 L-290662 965 L-290468 965 L-288863 964 L-288843 964 L-288688 965 L-288572 965 L-287393 965 L-287238 965 L-286571 965 L-284123 976 L-281608 986 L-278938 997 L-271239 1007 L-265571 1007 L-263357 1007 L-263333 1007 L-262359 1009 L-262339 1009 L-261476 1009 L-258736 1009 L-252937 1006 L-252784 1006 L-249998 1006 L-236389 1006 L-235644 1006 L-231233 1005 L-214887 1005 L-214654 1005 L-214117 1005 L-205658 1005 L-196952 1005 L-196740 1004 L-194767 1004 L-191981 1004 L-187494 1004 L-187339 1004 L-187170 1004 L-187030 1004 L-186739 1004 L-186700 1004 L-186429 1004 L-186258 1004 L-185848 1003 L-184727 1003 L-183547 1003 L-182270 1003 L-179406 1003 L-176486 1003 L-174494 1003 L-172946 1002 L-169908 1002 L-160584 1002 L-160060 1002 L-154336 1002 L-152829 1002 L-152014 1002 L-150331 1002 L-149610 1001 L-149441 1001 L-148396 1001 L-146329 1001 L-144967 1001 L-140523 1001 L-140426 1001 L-140388 1001 L-140369 1000 L-139536 1000 L-139458 1000 L-136886 1000 L-133637 1000 L-133482 1000 L-132533 1000 L-130792 999 L-130077 1000 L-126536 1001 L-119959 1001 L-118542 1003 L-118521 1002 L-117570 1002 L-114096 1002 L-113343 1002 L-112781 1002 L-111999 1002 L-104495 1001 L-102897 1001 L-101323 1001 L-98137 1001 L-93804 1001 L-85234 1001 L-76488 1001 L-73414 1001 L-70148 1000 L-69602 1000 L-62465 1000 L-56797 1000 L-42732 1000 L-36721 1000 L-32015 1000 L-28011 1000 L-22904 1000 L-13190 1000 L2380 999 L5462 999 L5765 942 L5784 871 L5803 791 L5823 701 L5842 660 L5862 626 L5880 594 L5908 563 L5929 532 L5957 500 L5992 465 L6005 435 L6019 409 L6037 387 L6056 372 L6076 355 L6094 339 L6113 323 L6133 307 L6154 290 L6171 273 L6190 257 L6210 241 L6230 225 L6249 208 L6267 191 L6287 173 L6307 155 L6326 138 L6345 122 L6366 106 L6391 90 L6405 76 L6422 61 L6442 46 L6462 32 L6481 16 L6500 0" />
</svg>
