<svg xmlns="http://www.w3.org/2000/svg" version="1.1" viewBox="0 0 6500 1000">
	<path fill="none" stroke="gold" stroke-width="125" stroke-linecap="round" stroke-linejoin="round" d="M0 2463  L-721485 2463 L-718881 2463 L-717213 2463 L-698884 2462 L-698714 2462 L-691556 2462 L-691523 2462 L-678092 2462 L-675170 2462 L-661829 2461 L-657660 2461 L-656500 2460 L-655881 2460 L-653869 2459 L-650097 2459 L-649497 2459 L-649169 2459 L-648956 2458 L-648414 2458 L-647176 2457 L-645997 2456 L-643133 2455 L-642610 2454 L-637755 2454 L-634818 2454 L-634775 2454 L-634466 2453 L-634214 2453 L-631619 2453 L-627364 2453 L-627346 2453 L-626109 2453 L-624232 2453 L-622278 2453 L-621330 2452 L-621059 2452 L-620750 2452 L-620652 2452 L-619821 2452 L-617790 2452 L-617500 2451 L-615354 2451 L-615198 2450 L-611542 2449 L-611291 2449 L-611192 2449 L-610675 2450 L-608524 2450 L-607595 2451 L-606069 2451 L-604830 2451 L-603283 2451 L-600321 2451 L-599199 2451 L-598890 2451 L-597679 2451 L-594672 2452 L-594653 2452 L-594305 2452 L-594092 2451 L-593966 2450 L-593724 2450 L-593686 2449 L-593667 2449 L-593648 2449 L-593589 2449 L-593530 2448 L-593512 2448 L-593069 2448 L-591830 2448 L-590284 2447 L-586896 2447 L-581170 2447 L-580968 2447 L-579332 2447 L-577610 2447 L-576178 2447 L-575946 2446 L-575231 2446 L-569099 2446 L-568731 2446 L-568576 2446 L-567998 2445 L-567705 2445 L-566738 2445 L-566428 2445 L-565829 2445 L-564223 2445 L-563488 2445 L-563178 2445 L-562410 2445 L-560374 2444 L-559949 2444 L-559136 2444 L-551707 2444 L-551184 2444 L-551011 2443 L-550276 2443 L-548708 2443 L-548302 2443 L-546077 2442 L-545130 2442 L-544705 2442 L-544374 2442 L-543330 2442 L-541222 2442 L-540970 2442 L-540351 2441 L-539539 2441 L-537431 2441 L-537382 2441 L-535454 2441 L-535128 2440 L-534993 2440 L-534490 2440 L-533077 2440 L-532574 2439 L-532053 2439 L-528493 2438 L-527758 2438 L-525333 2438 L-524044 2438 L-523637 2438 L-520484 2438 L-520329 2438 L-520309 2438 L-519943 2438 L-518684 2438 L-517969 2438 L-517079 2438 L-516672 2438 L-515744 2438 L-514635 2438 L-514332 2438 L-508083 2439 L-507136 2439 L-505510 2439 L-505008 2439 L-501332 2439 L-500500 2439 L-496547 2439 L-495135 2439 L-492646 2439 L-491969 2439 L-491930 2439 L-491060 2439 L-487848 2438 L-484985 2438 L-484017 2438 L-482896 2438 L-482877 2438 L-481252 2437 L-480788 2437 L-480696 2437 L-474327 2437 L-473378 2437 L-470921 2437 L-470049 2436 L-468813 2436 L-466811 2436 L-466414 2436 L-464978 2436 L-462951 2436 L-462738 2435 L-461558 2435 L-460050 2435 L-460029 2435 L-458017 2435 L-457148 2435 L-456277 2434 L-455692 2434 L-455155 2434 L-454497 2434 L-453259 2433 L-452698 2433 L-451517 2433 L-450280 2433 L-450241 2433 L-449854 2433 L-449313 2433 L-448539 2433 L-447417 2432 L-445327 2432 L-444994 2432 L-444708 2432 L-443780 2432 L-443297 2431 L-442561 2431 L-438930 2431 L-437802 2431 L-437648 2431 L-436622 2431 L-432907 2431 L-431689 2430 L-429871 2430 L-427085 2430 L-426524 2430 L-422636 2430 L-420159 2430 L-418824 2430 L-418321 2429 L-417838 2429 L-415149 2429 L-411377 2429 L-408920 2429 L-407740 2429 L-407101 2429 L-404741 2429 L-404664 2429 L-403616 2429 L-403523 2428 L-403020 2428 L-402574 2428 L-402517 2428 L-402303 2428 L-399344 2428 L-396636 2428 L-396481 2428 L-392960 2428 L-392437 2428 L-391470 2427 L-391121 2427 L-390077 2427 L-389149 2427 L-388723 2427 L-387214 2427 L-386247 2427 L-386228 2426 L-384332 2418 L-384216 2409 L-384168 2400 L-384144 2391 L-381140 2391 L-379109 2391 L-377348 2390 L-376981 2390 L-376536 2390 L-376169 2390 L-375755 2390 L-373770 2390 L-373557 2390 L-373402 2390 L-371796 2390 L-370675 2389 L-369726 2389 L-368469 2389 L-366825 2389 L-365645 2389 L-359055 2389 L-359009 2388 L-358603 2388 L-357558 2388 L-357423 2388 L-355740 2388 L-355720 2388 L-354383 2387 L-353147 2387 L-352993 2387 L-352619 2387 L-352413 2387 L-352103 2387 L-351329 2387 L-349008 2386 L-348350 2386 L-346222 2386 L-344500 2386 L-344306 2386 L-341753 2386 L-341477 2385 L-341289 2385 L-340456 2385 L-339684 2385 L-338986 2385 L-333985 2385 L-333609 2385 L-329356 2384 L-328869 2396 L-328850 2396 L-328771 2396 L-328696 2396 L-328676 2384 L-327863 2384 L-327109 2384 L-325890 2383 L-324458 2383 L-324362 2383 L-324187 2383 L-323833 2383 L-322524 2383 L-320667 2383 L-318964 2383 L-318461 2382 L-318196 2382 L-317803 2382 L-317669 2382 L-316759 2382 L-316383 2382 L-315454 2382 L-315115 2382 L-315075 2382 L-315038 2382 L-313122 2382 L-312948 2381 L-311420 2381 L-311091 2381 L-310975 2381 L-310568 2381 L-310220 2381 L-308576 2381 L-308026 2381 L-307782 2380 L-307241 2380 L-306410 2380 L-305868 2380 L-304334 2380 L-304241 2380 L-304204 2379 L-304068 2379 L-303681 2379 L-302656 2379 L-300780 2379 L-300684 2379 L-300083 2383 L-299716 2387 L-299232 2391 L-299194 2395 L-298420 2395 L-298362 2395 L-298188 2395 L-297994 2395 L-296389 2395 L-296369 2394 L-296214 2395 L-296098 2395 L-294919 2395 L-294764 2395 L-294097 2395 L-291649 2405 L-289134 2415 L-286464 2425 L-278765 2435 L-273097 2435 L-270883 2434 L-270859 2434 L-269886 2437 L-269866 2437 L-269002 2437 L-266262 2436 L-260463 2434 L-260310 2434 L-257524 2434 L-243916 2433 L-243170 2433 L-238759 2433 L-222413 2433 L-222181 2433 L-221643 2433 L-213184 2432 L-204478 2432 L-204266 2432 L-202294 2432 L-199507 2432 L-195020 2432 L-194865 2432 L-194696 2432 L-194556 2432 L-194265 2432 L-194226 2432 L-193955 2431 L-193784 2431 L-193374 2431 L-192253 2431 L-191073 2431 L-189796 2431 L-186932 2431 L-184012 2431 L-182020 2431 L-180472 2430 L-177434 2430 L-168110 2430 L-167586 2430 L-161862 2430 L-160355 2430 L-159540 2430 L-157857 2430 L-157136 2429 L-156967 2429 L-155922 2429 L-153855 2429 L-152493 2429 L-148050 2429 L-147952 2429 L-147914 2429 L-147895 2428 L-147062 2428 L-146985 2428 L-144412 2428 L-141163 2428 L-141008 2428 L-140060 2428 L-138319 2427 L-137603 2428 L-134062 2429 L-127485 2429 L-126068 2430 L-126047 2430 L-125097 2430 L-121622 2430 L-120869 2430 L-120307 2430 L-119525 2430 L-112021 2429 L-110423 2429 L-108849 2429 L-105663 2429 L-101330 2429 L-92761 2429 L-84014 2429 L-80940 2429 L-77674 2428 L-77128 2428 L-69991 2428 L-64323 2428 L-50259 2428 L-44247 2428 L-39541 2428 L-35538 2428 L-30430 2428 L-20716 2428 L-5146 2428 L-2063 2427 L-1761 2373 L-1741 2307 L-1722 2231 L-1702 2147 L-1683 2109 L-1664 2076 L-1645 2046 L-1617 2017 L-1596 1988 L-1569 1958 L-1533 1925 L-1520 1897 L-1507 1872 L-1488 1852 L-1469 1837 L-1449 1822 L-1431 1807 L-1412 1792 L-1392 1776 L-1371 1760 L-1354 1745 L-1335 1729 L-1315 1715 L-1295 1700 L-1276 1684 L-1258 1667 L-1238 1650 L-1218 1634 L-1199 1618 L-1180 1603 L-1159 1588 L-1134 1573 L-1120 1559 L-1103 1546 L-1083 1532 L-1064 1518 L-1045 1503 L-1026 1488 L-1006 1474 L-985 1460 L-967 1447 L-948 1435 L-928 1423 L-907 1412 L-890 1403 L-871 1393 L-851 1384 L-832 1376 L-812 1367 L-794 1360 L-774 1353 L-754 1347 L-735 1340 L-716 1334 L-689 1326 L-668 1317 L-640 1308 L-606 1298 L-592 1289 L-579 1282 L-560 1275 L-541 1269 L-521 1263 L-503 1256 L-483 1249 L-464 1242 L-443 1235 L-426 1229 L-407 1223 L-386 1216 L-367 1209 L-348 1200 L-329 1191 L-309 1182 L-290 1172 L-271 1163 L-252 1153 L-231 1142 L-207 1131 L-192 1119 L-175 1108 L-155 1097 L-136 1086 L-116 1075 L-97 1063 L-77 1051 L-57 1040 L-39 1029 L-20 1018 L0 1008 L20 998 L38 988 L57 980 L77 971 L95 963 L115 955 L134 947 L154 939 L173 931 L193 923 L211 915 L240 907 L260 900 L288 892 L325 883 L340 875 L352 867 L369 859 L386 854 L406 849 L425 844 L444 839 L464 835 L485 830 L502 825 L521 820 L541 814 L561 809 L579 803 L598 796 L618 790 L638 782 L657 775 L675 768 L697 761 L721 754 L736 747 L753 740 L773 733 L792 726 L812 719 L830 711 L850 703 L871 696 L889 689 L908 682 L928 675 L948 669 L966 663 L985 657 L1005 651 L1024 645 L1044 639 L1063 634 L1082 628 L1102 622 L1121 617 L1140 611 L1168 606 L1188 600 L1216 593 L1252 585 L1267 576 L1280 568 L1297 562 L1315 557 L1335 553 L1354 547 L1373 541 L1393 535 L1414 528 L1433 521 L1450 514 L1470 506 L1490 498 L1508 489 L1527 480 L1547 471 L1568 463 L1585 455 L1604 448 L1626 443 L1650 438 L1665 434 L1683 430 L1702 425 L1721 421 L1740 416 L1759 411 L1779 407 L1800 403 L1817 400 L1837 396 L1857 390 L1878 384 L1895 379 L1914 374 L1934 370 L1953 368 L1972 365 L1991 362 L2011 359 L2031 356 L2050 353 L2068 350 L2096 346 L2117 344 L2145 340 L2179 336 L2193 333 L2206 330 L2225 327 L2244 325 L2264 323 L2282 320 L2302 318 L2321 316 L2342 314 L2359 311 L2378 309 L2399 306 L2419 303 L2437 300 L2455 298 L2475 296 L2496 293 L2514 291 L2533 289 L2554 287 L2579 284 L2593 282 L2611 280 L2630 278 L2649 276 L2669 274 L2688 271 L2708 268 L2729 266 L2746 263 L2765 261 L2785 259 L2806 257 L2823 255 L2842 253 L2862 251 L2881 249 L2901 247 L2920 245 L2940 244 L2959 242 L2978 241 L2997 243 L3026 246 L3046 248 L3074 250 L3111 248 L3126 246 L3139 245 L3156 243 L3172 242 L3192 241 L3211 240 L3230 238 L3250 237 L3271 236 L3288 235 L3307 233 L3327 232 L3347 231 L3365 229 L3384 228 L3404 226 L3424 225 L3442 224 L3461 222 L3483 221 L3507 220 L3522 219 L3539 217 L3559 216 L3578 214 L3597 213 L3616 212 L3636 210 L3657 208 L3675 206 L3694 204 L3714 202 L3735 201 L3752 199 L3771 197 L3791 196 L3810 194 L3829 192 L3848 191 L3868 189 L3888 187 L3907 186 L3926 185 L3953 183 L3974 181 L4002 180 L4037 178 L4050 176 L4064 175 L4083 173 L4101 172 L4121 170 L4139 169 L4159 167 L4179 166 L4200 164 L4217 163 L4235 162 L4256 160 L4276 158 L4294 156 L4313 154 L4333 151 L4353 149 L4371 147 L4390 145 L4411 143 L4436 141 L4451 139 L4468 137 L4487 135 L4507 132 L4526 130 L4545 128 L4565 126 L4586 124 L4603 122 L4622 120 L4643 118 L4664 117 L4681 115 L4699 114 L4719 112 L4738 111 L4758 110 L4777 109 L4797 108 L4817 106 L4835 105 L4854 105 L4882 103 L4903 102 L4930 101 L4966 99 L4980 97 L4993 95 L5011 93 L5029 91 L5049 90 L5068 89 L5087 87 L5107 86 L5128 85 L5145 83 L5164 82 L5184 80 L5204 78 L5223 76 L5241 75 L5261 73 L5282 71 L5300 70 L5318 68 L5340 67 L5365 66 L5379 65 L5397 63 L5416 62 L5436 60 L5455 58 L5474 56 L5494 54 L5515 52 L5532 50 L5551 48 L5571 46 L5592 44 L5609 43 L5628 42 L5648 41 L5667 40 L5687 39 L5705 38 L5725 37 L5745 36 L5764 35 L5783 34 L5810 33 L5831 32 L5859 31 L5893 30 L5907 29 L5920 28 L5939 27 L5958 26 L5978 25 L5996 24 L6016 24 L6035 23 L6056 22 L6073 22 L6092 21 L6113 20 L6133 19 L6151 18 L6170 17 L6190 16 L6210 16 L6228 15 L6247 15 L6268 14 L6293 13 L6307 12 L6325 12 L6344 11 L6363 10 L6383 9 L6402 8 L6422 7 L6442 6 L6460 4 L6479 3 L6500 1" />
</svg>
