<svg xmlns="http://www.w3.org/2000/svg" version="1.1" viewBox="0 0 6500 1000">
	<path fill="none" stroke="gold" stroke-width="125" stroke-linecap="round" stroke-linejoin="round" d="M0 1035  L-714057 1035 L-711453 1034 L-709785 1034 L-691456 1034 L-691286 1034 L-684128 1034 L-684095 1034 L-670664 1033 L-667742 1034 L-654401 1033 L-650232 1033 L-649072 1032 L-648453 1032 L-646441 1031 L-642669 1031 L-642069 1031 L-641740 1030 L-641527 1030 L-640986 1030 L-639748 1029 L-638569 1028 L-635704 1027 L-635182 1026 L-630327 1026 L-627389 1026 L-627346 1025 L-627038 1025 L-626786 1025 L-624191 1025 L-619936 1025 L-619918 1025 L-618681 1025 L-616803 1025 L-614850 1025 L-613902 1024 L-613631 1024 L-613321 1024 L-613223 1024 L-612393 1024 L-610362 1024 L-610072 1023 L-607925 1022 L-607770 1022 L-604114 1021 L-603862 1021 L-603764 1021 L-603247 1022 L-601096 1022 L-600167 1023 L-598641 1023 L-597401 1023 L-595855 1023 L-592893 1023 L-591771 1023 L-591462 1022 L-590251 1022 L-587244 1024 L-587224 1024 L-586877 1023 L-586664 1023 L-586538 1022 L-586296 1021 L-586258 1021 L-586239 1021 L-586219 1021 L-586160 1020 L-586102 1020 L-586084 1020 L-585641 1020 L-584401 1020 L-582856 1019 L-579468 1019 L-573742 1019 L-573540 1019 L-571904 1019 L-570182 1019 L-568750 1018 L-568518 1018 L-567802 1018 L-561670 1018 L-561303 1018 L-561148 1018 L-560570 1017 L-560277 1017 L-559310 1017 L-559000 1017 L-558401 1016 L-556795 1016 L-556060 1016 L-555750 1017 L-554982 1017 L-552946 1016 L-552520 1016 L-551708 1016 L-544279 1016 L-543756 1015 L-543583 1015 L-542848 1015 L-541280 1015 L-540874 1015 L-538649 1014 L-537701 1014 L-537276 1014 L-536946 1014 L-535902 1014 L-533794 1014 L-533542 1014 L-532923 1013 L-532110 1013 L-530002 1013 L-529954 1013 L-528026 1012 L-527700 1012 L-527565 1012 L-527062 1012 L-525649 1012 L-525146 1011 L-524624 1011 L-521065 1010 L-520330 1010 L-517905 1010 L-516616 1010 L-516209 1009 L-513056 1009 L-512901 1009 L-512881 1010 L-512514 1010 L-511256 1010 L-510541 1010 L-509651 1010 L-509244 1010 L-508316 1010 L-507207 1010 L-506904 1010 L-500655 1010 L-499708 1011 L-498082 1011 L-497580 1011 L-493904 1011 L-493072 1011 L-489119 1011 L-487707 1011 L-485217 1011 L-484541 1011 L-484502 1010 L-483631 1010 L-480420 1010 L-477557 1010 L-476589 1010 L-475468 1010 L-475449 1010 L-473824 1009 L-473360 1009 L-473268 1009 L-466898 1009 L-465950 1009 L-463493 1009 L-462621 1008 L-461384 1008 L-459383 1008 L-458986 1008 L-457549 1008 L-455523 1007 L-455310 1007 L-454130 1007 L-452621 1007 L-452601 1007 L-450589 1007 L-449720 1007 L-448849 1006 L-448264 1006 L-447727 1006 L-447069 1006 L-445831 1005 L-445270 1005 L-444089 1005 L-442852 1005 L-442813 1005 L-442426 1005 L-441884 1005 L-441111 1004 L-439988 1004 L-437899 1004 L-437566 1004 L-437280 1004 L-436352 1004 L-435868 1003 L-435133 1003 L-431502 1003 L-430374 1003 L-430219 1003 L-429193 1003 L-425479 1002 L-424261 1002 L-422443 1002 L-419657 1002 L-419096 1002 L-415208 1002 L-412731 1001 L-411396 1001 L-410893 1001 L-410410 1001 L-407720 1001 L-403949 1001 L-401492 1001 L-400312 1001 L-399673 1001 L-397313 1001 L-397236 1001 L-396188 1001 L-396095 1000 L-395592 1000 L-395146 1000 L-395089 1000 L-394875 1000 L-391915 1000 L-389208 1000 L-389053 1000 L-385532 1000 L-385009 1000 L-384042 999 L-383693 999 L-382649 999 L-381721 999 L-381295 999 L-379786 999 L-378819 999 L-378800 998 L-376904 990 L-376788 981 L-376740 972 L-376716 963 L-373712 963 L-371681 963 L-369920 963 L-369553 962 L-369107 962 L-368741 962 L-368327 962 L-366342 962 L-366128 962 L-365974 962 L-364368 962 L-363246 962 L-362298 961 L-361041 961 L-359396 961 L-358217 961 L-351627 961 L-351581 961 L-351175 960 L-350130 960 L-349994 960 L-348312 960 L-348292 960 L-346955 960 L-345719 959 L-345565 959 L-345191 959 L-344985 959 L-344675 959 L-343901 959 L-341580 959 L-340922 958 L-338794 958 L-337072 958 L-336878 958 L-334325 958 L-334049 958 L-333860 957 L-333028 957 L-332255 957 L-331557 957 L-326557 957 L-326181 957 L-321928 957 L-321441 968 L-321422 968 L-321343 968 L-321267 968 L-321248 956 L-320435 956 L-319681 956 L-318462 956 L-317030 956 L-316934 955 L-316759 955 L-316405 955 L-315096 955 L-313238 955 L-311536 955 L-311033 955 L-310768 954 L-310375 954 L-310240 954 L-309331 954 L-308954 954 L-308026 954 L-307687 954 L-307647 954 L-307609 954 L-305694 954 L-305520 954 L-303991 954 L-303663 954 L-303547 953 L-303140 953 L-302792 953 L-301148 953 L-300597 953 L-300354 953 L-299813 952 L-298982 952 L-298440 952 L-296905 952 L-296813 952 L-296776 952 L-296640 952 L-296253 951 L-295228 951 L-293352 951 L-293255 951 L-292655 955 L-292288 959 L-291803 963 L-291765 967 L-290992 967 L-290934 967 L-290760 967 L-290566 967 L-288961 967 L-288941 967 L-288786 967 L-288670 967 L-287491 967 L-287336 967 L-286669 967 L-284221 977 L-281706 987 L-279036 997 L-271337 1007 L-265669 1007 L-263455 1006 L-263431 1006 L-262457 1009 L-262437 1009 L-261574 1009 L-258833 1008 L-253035 1006 L-252881 1006 L-250096 1006 L-236487 1005 L-235741 1005 L-231331 1005 L-214985 1005 L-214752 1005 L-214215 1004 L-205756 1004 L-197050 1004 L-196838 1004 L-194865 1004 L-192079 1004 L-187592 1004 L-187437 1004 L-187268 1004 L-187127 1004 L-186837 1004 L-186798 1004 L-186527 1003 L-186356 1003 L-185945 1003 L-184825 1003 L-183645 1003 L-182368 1003 L-179504 1003 L-176584 1003 L-174592 1002 L-173044 1002 L-170006 1002 L-160682 1002 L-160158 1002 L-154434 1002 L-152927 1002 L-152112 1002 L-150429 1001 L-149708 1001 L-149539 1001 L-148494 1001 L-146427 1001 L-145065 1001 L-140621 1001 L-140524 1001 L-140486 1001 L-140467 1000 L-139634 1000 L-139556 1000 L-136984 1000 L-133735 1000 L-133580 1000 L-132631 1000 L-130890 999 L-130175 1000 L-126634 1001 L-120057 1001 L-118640 1002 L-118619 1002 L-117668 1002 L-114194 1002 L-113441 1002 L-112879 1002 L-112097 1001 L-104593 1001 L-102994 1001 L-101421 1001 L-98235 1001 L-93902 1001 L-85332 1001 L-76586 1001 L-73512 1001 L-70246 1000 L-69700 1000 L-62562 1000 L-56895 1000 L-42830 1000 L-36819 1000 L-32113 1000 L-28109 1000 L-23002 1000 L-13288 1000 L2282 999 L5364 999 L5667 946 L5686 879 L5705 804 L5725 720 L5744 682 L5764 650 L5782 620 L5810 591 L5831 562 L5859 532 L5894 499 L5908 471 L5921 447 L5939 427 L5958 412 L5978 397 L5996 382 L6015 367 L6035 351 L6056 335 L6073 320 L6092 305 L6112 290 L6132 275 L6151 259 L6170 243 L6189 226 L6210 210 L6228 194 L6247 179 L6268 164 L6293 149 L6307 135 L6325 122 L6344 108 L6364 94 L6383 80 L6402 65 L6422 50 L6442 37 L6460 24 L6479 12 L6500 0" />
</svg>
