<svg xmlns="http://www.w3.org/2000/svg" version="1.1" viewBox="0 0 6500 1000">
	<path fill="none" stroke="gold" stroke-width="125" stroke-linecap="round" stroke-linejoin="round" d="M0 638474  L-355930 638474 L-353326 637443 L-351658 636412 L-333328 634350 L-333158 632288 L-326000 630226 L-325967 630226 L-312536 629195 L-309614 630226 L-296273 627134 L-292104 623010 L-290944 617855 L-290325 612701 L-288313 609608 L-284541 607546 L-283941 605484 L-283613 603422 L-283400 601360 L-282858 599298 L-281620 591051 L-280441 582804 L-277577 574556 L-277054 566309 L-272199 564247 L-269262 562185 L-269219 560123 L-268910 558061 L-268658 556000 L-266063 553938 L-261808 553938 L-261790 553938 L-260553 553938 L-258676 553938 L-256722 551876 L-255774 549814 L-255504 547752 L-255194 546721 L-255096 545690 L-254265 545690 L-252234 546721 L-251944 537443 L-249798 533319 L-249642 527134 L-245986 520948 L-245735 524041 L-245636 523010 L-245119 526103 L-242968 531257 L-242039 536412 L-240513 541567 L-239274 541567 L-237727 540536 L-234765 538474 L-233643 536412 L-233334 534350 L-232123 533319 L-229116 544659 L-229097 543628 L-228749 542597 L-228536 541567 L-228410 527134 L-228168 525072 L-228131 523010 L-228111 520948 L-228092 518886 L-228033 516824 L-227974 514762 L-227956 512701 L-227513 510639 L-226274 508577 L-224728 506515 L-221340 504453 L-215614 503422 L-215412 502391 L-213776 501360 L-212055 500329 L-210622 499298 L-210390 498268 L-209675 497237 L-203543 496206 L-203175 494144 L-203020 492082 L-202442 490020 L-202149 487958 L-201182 485896 L-200873 483835 L-200274 481773 L-198667 481773 L-197932 481773 L-197622 482804 L-196854 482804 L-194818 480742 L-194393 478680 L-193580 477649 L-186152 475587 L-185628 473525 L-185455 471463 L-184720 469402 L-183152 467340 L-182747 466309 L-180522 464247 L-179574 463216 L-179149 462185 L-178818 462185 L-177775 461154 L-175666 459092 L-175414 457030 L-174795 454969 L-173983 453938 L-171875 451876 L-171826 449814 L-169898 447752 L-169572 445690 L-169437 443628 L-168934 442597 L-167522 440536 L-167019 436412 L-166497 433319 L-162937 429195 L-162202 425072 L-159777 425072 L-158488 423010 L-158081 421979 L-154928 421979 L-154774 421979 L-154753 423010 L-154387 423010 L-153128 424041 L-152413 425072 L-151524 425072 L-151117 425072 L-150188 425072 L-149079 424041 L-148776 428164 L-142527 430226 L-141580 432288 L-139954 434350 L-139452 435381 L-135776 436412 L-134944 437443 L-130991 438474 L-129579 435381 L-127090 433319 L-126413 431257 L-126375 430226 L-125504 430226 L-122293 429195 L-119429 428164 L-118461 427134 L-117340 425072 L-117321 423010 L-115696 420948 L-115232 417855 L-115140 416824 L-108771 415793 L-107822 414762 L-105365 413731 L-104493 411670 L-103257 410639 L-101255 409608 L-100858 407546 L-99422 405484 L-97395 404453 L-97182 402391 L-96002 401360 L-94494 400329 L-94474 399298 L-92461 398268 L-91592 396206 L-90721 395175 L-90136 393113 L-89599 391051 L-88941 388989 L-87703 386927 L-87143 385896 L-85961 384865 L-84724 383835 L-84685 382804 L-84298 381773 L-83757 379711 L-82983 378680 L-81861 377649 L-79771 375587 L-79438 373525 L-79152 371463 L-78224 370432 L-77741 368371 L-77005 367340 L-73374 366309 L-72246 365278 L-72092 364247 L-71066 362185 L-67351 361154 L-66134 359092 L-64315 357030 L-61529 356000 L-60968 353938 L-57080 353938 L-54603 352907 L-53269 352907 L-52765 351876 L-52282 350845 L-49593 350845 L-45821 350845 L-43364 350845 L-42184 350845 L-41545 349814 L-39185 347752 L-39108 346721 L-38060 345690 L-37967 343628 L-37464 343628 L-37019 343628 L-36961 343628 L-36747 343628 L-33788 341567 L-31080 340536 L-30925 339505 L-27404 338474 L-26882 336412 L-25914 334350 L-25565 333319 L-24522 331257 L-23593 329195 L-23167 328164 L-21658 328164 L-20691 327134 L-20672 326103 L-18776 250845 L-18660 173525 L-18612 97237 L-18588 20948 L-15584 19917 L-13553 17855 L-11792 16824 L-11425 15793 L-10980 13731 L-10613 12701 L-10199 10639 L-8214 9608 L-8001 9608 L-7846 8577 L-6241 8577 L-5119 7546 L-4170 6515 L-2913 4453 L-1269 3422 L-89 1360 L6500 329" />
</svg>
