<svg xmlns="http://www.w3.org/2000/svg" version="1.1" viewBox="0 0 6500 1000">
	<path fill="none" stroke="gold" stroke-width="125" stroke-linecap="round" stroke-linejoin="round" d="M0 3586  L-725412 3586 L-722808 3586 L-721140 3586 L-702810 3586 L-702640 3585 L-695482 3585 L-695449 3585 L-682018 3585 L-679096 3585 L-665755 3584 L-661586 3584 L-660426 3583 L-659807 3582 L-657795 3582 L-654023 3581 L-653423 3581 L-653095 3581 L-652882 3580 L-652340 3580 L-651102 3579 L-649923 3578 L-647059 3576 L-646536 3575 L-641681 3575 L-638744 3574 L-638701 3574 L-638392 3574 L-638140 3573 L-635546 3573 L-631290 3573 L-631272 3573 L-630035 3573 L-628158 3573 L-626204 3573 L-625256 3572 L-624986 3572 L-624676 3572 L-624578 3572 L-623747 3572 L-621716 3572 L-621426 3570 L-619280 3570 L-619124 3569 L-615468 3568 L-615217 3568 L-615118 3568 L-614601 3569 L-612450 3569 L-611521 3570 L-609995 3571 L-608756 3571 L-607209 3571 L-604247 3571 L-603126 3570 L-602816 3570 L-601605 3570 L-598598 3572 L-598579 3571 L-598231 3571 L-598018 3571 L-597892 3569 L-597651 3569 L-597613 3568 L-597593 3568 L-597574 3568 L-597515 3567 L-597456 3567 L-597438 3567 L-596995 3566 L-595756 3566 L-594210 3566 L-590822 3565 L-585096 3565 L-584894 3565 L-583258 3565 L-581537 3565 L-580104 3565 L-579872 3564 L-579157 3564 L-573025 3564 L-572657 3564 L-572502 3563 L-571924 3563 L-571632 3563 L-570664 3562 L-570355 3562 L-569756 3562 L-568149 3562 L-567414 3562 L-567104 3562 L-566336 3562 L-564300 3562 L-563875 3561 L-563062 3561 L-555634 3561 L-555111 3560 L-554937 3560 L-554202 3560 L-552634 3560 L-552229 3559 L-550004 3559 L-549056 3559 L-548631 3559 L-548300 3559 L-547257 3559 L-545148 3558 L-544896 3558 L-544277 3558 L-543465 3557 L-541357 3557 L-541308 3557 L-539380 3556 L-539054 3556 L-538919 3556 L-538416 3556 L-537004 3555 L-536501 3555 L-535979 3554 L-532419 3554 L-531684 3553 L-529259 3553 L-527970 3553 L-527563 3552 L-524410 3552 L-524256 3552 L-524235 3553 L-523869 3553 L-522611 3553 L-521896 3553 L-521006 3553 L-520599 3553 L-519670 3553 L-518561 3553 L-518258 3553 L-512009 3554 L-511062 3554 L-509436 3554 L-508934 3555 L-505258 3555 L-504426 3555 L-500473 3555 L-499061 3555 L-496572 3554 L-495895 3554 L-495857 3554 L-494986 3554 L-491775 3554 L-488911 3553 L-487944 3553 L-486822 3553 L-486803 3553 L-485178 3552 L-484714 3552 L-484622 3552 L-478253 3551 L-477304 3551 L-474847 3551 L-473975 3551 L-472739 3551 L-470737 3551 L-470340 3550 L-468904 3550 L-466877 3550 L-466664 3549 L-465484 3549 L-463976 3549 L-463956 3549 L-461943 3549 L-461074 3548 L-460203 3548 L-459618 3548 L-459081 3548 L-458423 3547 L-457185 3547 L-456625 3547 L-455443 3547 L-454206 3547 L-454167 3546 L-453780 3546 L-453239 3546 L-452465 3546 L-451343 3546 L-449254 3545 L-448920 3545 L-448634 3545 L-447706 3544 L-447223 3544 L-446487 3544 L-442856 3544 L-441728 3544 L-441574 3543 L-440548 3543 L-436833 3543 L-435616 3543 L-433797 3542 L-431011 3542 L-430450 3542 L-426562 3542 L-424086 3542 L-422751 3542 L-422247 3542 L-421764 3541 L-419075 3541 L-415303 3541 L-412846 3541 L-411666 3541 L-411027 3541 L-408667 3541 L-408590 3541 L-407542 3541 L-407449 3540 L-406946 3540 L-406501 3540 L-406443 3540 L-406229 3540 L-403270 3540 L-400562 3540 L-400407 3540 L-396886 3539 L-396364 3539 L-395396 3539 L-395047 3539 L-394004 3538 L-393075 3538 L-392649 3538 L-391140 3538 L-390173 3538 L-390154 3538 L-388258 3526 L-388142 3514 L-388094 3502 L-388070 3490 L-385066 3490 L-383035 3489 L-381274 3489 L-380907 3489 L-380462 3489 L-380095 3489 L-379681 3488 L-377696 3488 L-377483 3488 L-377328 3488 L-375723 3488 L-374601 3488 L-373652 3488 L-372395 3487 L-370751 3487 L-369571 3487 L-362982 3487 L-362935 3487 L-362529 3486 L-361484 3486 L-361349 3486 L-359666 3486 L-359646 3486 L-358309 3485 L-357073 3485 L-356919 3485 L-356545 3485 L-356339 3484 L-356029 3484 L-355256 3484 L-352934 3484 L-352276 3484 L-350148 3484 L-348426 3483 L-348233 3483 L-345679 3483 L-345403 3483 L-345215 3482 L-344382 3482 L-343610 3482 L-342912 3482 L-337911 3482 L-337535 3481 L-333282 3481 L-332795 3497 L-332776 3497 L-332697 3497 L-332622 3497 L-332602 3480 L-331789 3480 L-331035 3480 L-329816 3480 L-328384 3480 L-328288 3480 L-328114 3480 L-327759 3479 L-326450 3479 L-324593 3479 L-322890 3479 L-322387 3479 L-322122 3478 L-321729 3478 L-321595 3478 L-320685 3478 L-320309 3478 L-319380 3478 L-319041 3478 L-319001 3478 L-318964 3477 L-317048 3477 L-316875 3477 L-315346 3477 L-315018 3477 L-314902 3477 L-314494 3477 L-314146 3476 L-312503 3476 L-311952 3476 L-311708 3476 L-311167 3476 L-310336 3475 L-309794 3475 L-308260 3475 L-308167 3475 L-308130 3475 L-307995 3474 L-307607 3474 L-306583 3474 L-304706 3474 L-304610 3474 L-304009 3479 L-303642 3484 L-303158 3490 L-303120 3495 L-302346 3496 L-302288 3496 L-302114 3495 L-301920 3495 L-300315 3495 L-300295 3495 L-300140 3495 L-300024 3495 L-298845 3495 L-298690 3496 L-298023 3496 L-295575 3509 L-293060 3522 L-290390 3535 L-282691 3548 L-277023 3548 L-274809 3548 L-274785 3548 L-273812 3551 L-273792 3551 L-272928 3551 L-270188 3551 L-264389 3548 L-264236 3547 L-261450 3547 L-247842 3547 L-247096 3547 L-242685 3546 L-226339 3546 L-226107 3546 L-225570 3546 L-217110 3546 L-208405 3545 L-208192 3545 L-206220 3545 L-203434 3545 L-198946 3545 L-198791 3545 L-198622 3545 L-198482 3545 L-198191 3545 L-198152 3544 L-197882 3544 L-197710 3544 L-197300 3544 L-196179 3544 L-194999 3544 L-193722 3543 L-190858 3543 L-187938 3543 L-185946 3543 L-184398 3543 L-181360 3542 L-172036 3542 L-171512 3542 L-165788 3542 L-164281 3542 L-163466 3542 L-161783 3542 L-161062 3542 L-160893 3541 L-159848 3541 L-157781 3541 L-156419 3541 L-151976 3541 L-151878 3541 L-151840 3540 L-151821 3540 L-150988 3540 L-150911 3540 L-148338 3540 L-145089 3539 L-144934 3539 L-143986 3539 L-142245 3539 L-141529 3540 L-137989 3541 L-131411 3542 L-129994 3543 L-129973 3543 L-129023 3542 L-125548 3542 L-124795 3542 L-124233 3542 L-123451 3542 L-115947 3542 L-114349 3541 L-112775 3541 L-109589 3541 L-105256 3541 L-96687 3541 L-87940 3541 L-84866 3541 L-81600 3540 L-81054 3540 L-73917 3540 L-68249 3540 L-54185 3540 L-48173 3540 L-43467 3540 L-39464 3540 L-34356 3539 L-24642 3539 L-9072 3539 L-5989 3539 L-5687 3466 L-5667 3377 L-5648 3276 L-5629 3163 L-5609 3112 L-5590 3068 L-5571 3028 L-5543 2989 L-5523 2950 L-5495 2910 L-5459 2865 L-5446 2827 L-5433 2795 L-5414 2768 L-5396 2748 L-5376 2728 L-5357 2707 L-5338 2687 L-5318 2666 L-5297 2645 L-5280 2624 L-5261 2603 L-5241 2584 L-5221 2564 L-5203 2542 L-5184 2520 L-5164 2497 L-5144 2475 L-5125 2454 L-5107 2433 L-5085 2414 L-5061 2394 L-5046 2375 L-5029 2357 L-5009 2338 L-4990 2320 L-4971 2300 L-4952 2280 L-4932 2261 L-4911 2243 L-4893 2225 L-4874 2208 L-4854 2193 L-4833 2178 L-4816 2165 L-4797 2153 L-4777 2141 L-4758 2129 L-4739 2118 L-4720 2108 L-4700 2099 L-4680 2090 L-4661 2082 L-4642 2073 L-4615 2062 L-4594 2051 L-4566 2038 L-4532 2025 L-4518 2013 L-4505 2003 L-4486 1994 L-4467 1986 L-4447 1978 L-4429 1969 L-4410 1959 L-4390 1950 L-4369 1941 L-4352 1933 L-4333 1924 L-4313 1916 L-4293 1906 L-4274 1894 L-4256 1882 L-4235 1870 L-4216 1857 L-4197 1844 L-4178 1831 L-4157 1816 L-4133 1801 L-4118 1785 L-4101 1770 L-4081 1756 L-4062 1741 L-4042 1726 L-4023 1710 L-4003 1694 L-3983 1679 L-3965 1665 L-3946 1650 L-3926 1637 L-3905 1623 L-3888 1610 L-3869 1598 L-3849 1586 L-3830 1576 L-3810 1565 L-3791 1554 L-3771 1544 L-3752 1533 L-3733 1522 L-3714 1512 L-3685 1501 L-3665 1491 L-3638 1481 L-3600 1469 L-3585 1458 L-3573 1447 L-3556 1437 L-3539 1429 L-3519 1423 L-3500 1416 L-3481 1410 L-3461 1405 L-3440 1398 L-3423 1392 L-3404 1384 L-3384 1377 L-3364 1369 L-3346 1361 L-3327 1353 L-3307 1344 L-3287 1334 L-3268 1324 L-3250 1315 L-3228 1306 L-3204 1296 L-3190 1287 L-3172 1277 L-3152 1268 L-3133 1258 L-3114 1248 L-3095 1238 L-3075 1228 L-3054 1218 L-3036 1208 L-3017 1199 L-2997 1191 L-2977 1182 L-2959 1174 L-2940 1166 L-2920 1158 L-2901 1150 L-2882 1142 L-2863 1134 L-2843 1127 L-2824 1120 L-2804 1112 L-2785 1105 L-2757 1097 L-2737 1089 L-2709 1081 L-2673 1069 L-2659 1058 L-2646 1047 L-2628 1038 L-2610 1032 L-2590 1026 L-2572 1019 L-2552 1011 L-2532 1003 L-2511 994 L-2493 984 L-2476 974 L-2455 964 L-2435 953 L-2417 941 L-2398 929 L-2378 917 L-2358 905 L-2340 895 L-2321 886 L-2300 879 L-2275 873 L-2260 867 L-2243 862 L-2224 856 L-2204 849 L-2185 843 L-2166 836 L-2146 831 L-2125 826 L-2108 821 L-2089 815 L-2068 808 L-2047 800 L-2030 793 L-2011 787 L-1991 782 L-1973 778 L-1953 775 L-1934 771 L-1914 767 L-1895 762 L-1875 758 L-1857 754 L-1829 750 L-1808 746 L-1781 741 L-1746 736 L-1732 731 L-1719 728 L-1700 724 L-1681 721 L-1662 718 L-1643 714 L-1624 711 L-1604 709 L-1583 706 L-1566 703 L-1547 699 L-1526 695 L-1506 692 L-1488 688 L-1470 685 L-1450 682 L-1429 679 L-1411 676 L-1392 672 L-1371 669 L-1346 667 L-1332 664 L-1315 661 L-1295 658 L-1276 655 L-1256 652 L-1237 648 L-1218 645 L-1197 641 L-1179 638 L-1160 635 L-1140 632 L-1119 630 L-1102 627 L-1083 624 L-1063 621 L-1044 618 L-1024 616 L-1006 614 L-985 612 L-966 610 L-947 608 L-928 611 L-899 614 L-880 618 L-852 621 L-814 618 L-799 616 L-786 613 L-769 612 L-753 610 L-733 608 L-715 606 L-695 605 L-675 603 L-654 601 L-637 600 L-619 598 L-598 596 L-578 594 L-560 592 L-541 591 L-521 589 L-501 587 L-483 585 L-464 583 L-442 582 L-418 580 L-403 578 L-386 577 L-366 575 L-347 573 L-328 571 L-309 569 L-289 567 L-268 564 L-251 561 L-232 559 L-211 556 L-190 554 L-173 552 L-154 550 L-134 548 L-115 546 L-96 543 L-77 541 L-57 538 L-37 536 L-18 534 L0 533 L27 530 L48 528 L76 526 L111 523 L124 521 L137 519 L156 517 L175 515 L195 514 L213 512 L233 510 L252 508 L273 506 L290 504 L309 502 L330 500 L350 497 L368 494 L387 491 L406 488 L427 485 L445 482 L464 480 L485 477 L510 474 L525 471 L542 468 L561 466 L581 463 L600 460 L619 457 L639 454 L660 452 L677 449 L696 446 L717 444 L737 442 L754 440 L773 438 L793 436 L812 434 L832 432 L851 431 L870 429 L890 428 L909 426 L928 425 L956 424 L976 422 L1004 421 L1040 417 L1053 415 L1067 412 L1085 409 L1103 408 L1123 406 L1142 404 L1161 402 L1181 401 L1202 399 L1219 397 L1238 394 L1258 392 L1278 390 L1296 388 L1315 385 L1335 383 L1356 381 L1373 379 L1392 377 L1414 375 L1439 373 L1453 372 L1470 370 L1490 368 L1509 366 L1528 363 L1547 361 L1567 358 L1589 355 L1606 352 L1625 349 L1645 347 L1666 345 L1683 343 L1702 341 L1722 340 L1741 339 L1760 337 L1779 336 L1799 334 L1819 333 L1838 332 L1857 330 L1884 329 L1905 328 L1933 326 L1967 325 L1981 324 L1994 323 L2013 321 L2032 320 L2051 319 L2070 318 L2089 317 L2109 316 L2130 315 L2147 314 L2166 313 L2186 312 L2206 310 L2225 309 L2243 308 L2264 307 L2284 306 L2302 306 L2321 305 L2342 304 L2367 303 L2381 302 L2399 301 L2418 300 L2437 299 L2457 297 L2476 296 L2496 295 L2516 293 L2534 291 L2553 289 L2573 286 L2594 284 L2612 283 L2631 281 L2650 280 L2669 278 L2689 277 L2708 275 L2728 274 L2747 273 L2766 272 L2785 271 L2814 270 L2862 269 L2898 267 L2913 266 L2926 265 L2943 264 L2960 264 L2980 263 L2999 262 L3018 261 L3038 260 L3059 260 L3076 259 L3095 258 L3115 258 L3135 257 L3153 256 L3172 255 L3192 254 L3212 253 L3230 251 L3249 250 L3271 249 L3295 247 L3310 245 L3327 243 L3347 242 L3366 240 L3385 238 L3404 237 L3424 235 L3445 234 L3463 232 L3482 231 L3502 229 L3522 228 L3540 227 L3559 226 L3579 225 L3598 224 L3618 223 L3636 221 L3656 220 L3676 219 L3695 218 L3714 217 L3742 215 L3762 214 L3790 212 L3827 210 L3841 207 L3854 205 L3872 203 L3889 202 L3909 201 L3927 200 L3947 199 L3967 198 L3988 197 L4005 196 L4023 194 L4044 193 L4064 191 L4082 189 L4101 187 L4121 184 L4142 182 L4159 180 L4178 179 L4200 177 L4224 175 L4240 174 L4257 172 L4275 171 L4296 169 L4314 168 L4333 166 L4353 164 L4375 162 L4391 161 L4411 159 L4431 158 L4452 157 L4469 155 L4488 154 L4507 153 L4527 152 L4546 150 L4565 149 L4585 148 L4605 147 L4624 146 L4642 144 L4670 997 L4691 996 L4719 994 L4754 992 L4768 137 L4782 135 L4800 134 L4818 133 L4837 132 L4856 131 L4875 130 L4895 129 L4917 127 L4933 126 L4952 124 L4973 122 L4993 120 L5011 118 L5030 115 L5049 113 L5070 111 L5088 110 L5107 109 L5128 107 L5153 105 L5168 103 L5198 101 L5237 98 L5261 96 L5290 93 L5306 90 L5320 88 L5339 87 L5360 86 L5380 85 L5397 83 L5416 82 L5436 81 L5455 80 L5475 79 L5494 79 L5513 78 L5534 77 L5552 76 L5571 75 L5599 73 L5619 72 L5647 71 L5682 70 L5696 68 L5728 67 L5746 66 L5766 65 L5785 64 L5804 63 L5824 63 L5845 62 L5862 61 L5880 59 L5901 56 L5922 52 L5939 48 L5958 44 L5978 41 L5998 38 L6016 36 L6035 34 L6057 33 L6082 31 L6097 30 L6114 28 L6133 26 L6153 25 L6171 23 L6191 22 L6210 20 L6232 18 L6248 16 L6268 15 L6288 14 L6309 12 L6326 11 L6345 10 L6365 9 L6384 8 L6403 7 L6422 6 L6442 4 L6462 3 L6481 2 L6500 1" />
</svg>
