<svg xmlns="http://www.w3.org/2000/svg" version="1.1" viewBox="0 0 6500 1000">
	<path fill="none" stroke="gold" stroke-width="125" stroke-linecap="round" stroke-linejoin="round" d="M0 80679  L-297147 80679 L-294543 80390 L-292875 80101 L-274545 79523 L-274375 78945 L-267217 78367 L-267184 78367 L-253753 78078 L-250832 78367 L-237491 77500 L-233322 76343 L-232162 74898 L-231543 73453 L-229531 72586 L-225759 72008 L-225159 71430 L-224830 70852 L-224617 70274 L-224075 69696 L-222837 67384 L-221658 65072 L-218794 62760 L-218272 60447 L-213416 59869 L-210479 59291 L-210436 58713 L-210128 58135 L-209876 57557 L-207281 56979 L-203026 56979 L-203008 56979 L-201771 56979 L-199893 56979 L-197940 56401 L-196992 55823 L-196721 55245 L-196411 54956 L-196313 54667 L-195483 54667 L-193452 54956 L-193161 52355 L-191015 51199 L-190860 49465 L-187203 47731 L-186952 48598 L-186854 48309 L-186337 49176 L-184185 50621 L-183257 52066 L-181731 53511 L-180491 53511 L-178945 53222 L-175983 52644 L-174861 52066 L-174552 51488 L-173341 51199 L-170334 54378 L-170314 54089 L-169967 53800 L-169754 53511 L-169627 49465 L-169386 48887 L-169348 48309 L-169328 47731 L-169309 47153 L-169250 46575 L-169192 45997 L-169173 45419 L-168730 44841 L-167491 44263 L-165945 43684 L-162558 43106 L-156831 42817 L-156630 42528 L-154994 42239 L-153272 41950 L-151840 41661 L-151608 41372 L-150892 41083 L-144760 40794 L-144392 40216 L-144238 39638 L-143659 39060 L-143367 38482 L-142400 37904 L-142090 37326 L-141491 36748 L-139885 36748 L-139150 36748 L-138840 37037 L-138072 37037 L-136035 36459 L-135610 35881 L-134798 35592 L-127369 35014 L-126846 34436 L-126672 33858 L-125937 33280 L-124370 32702 L-123964 32413 L-121739 31835 L-120791 31546 L-120366 31257 L-120036 31257 L-118992 30968 L-116884 30390 L-116632 29812 L-116013 29234 L-115200 28945 L-113092 28367 L-113044 27789 L-111116 27210 L-110790 26632 L-110655 26054 L-110152 25765 L-108739 25187 L-108236 24031 L-107714 23164 L-104155 22008 L-103420 20852 L-100995 20852 L-99705 20274 L-99298 19985 L-96146 19985 L-95991 19985 L-95971 20274 L-95604 20274 L-94346 20563 L-93631 20852 L-92741 20852 L-92334 20852 L-91405 20852 L-90297 20563 L-89994 21719 L-83745 22297 L-82797 22875 L-81171 23453 L-80670 23742 L-76994 24031 L-76161 24320 L-72208 24609 L-70797 23742 L-68307 23164 L-67631 22586 L-67592 22297 L-66721 22297 L-63510 22008 L-60647 21719 L-59679 21430 L-58557 20852 L-58538 20274 L-56913 19696 L-56449 18829 L-56357 18540 L-49988 18251 L-49040 17962 L-46583 17673 L-45710 17095 L-44474 16806 L-42473 16517 L-42075 15939 L-40639 15361 L-38613 15072 L-38400 14494 L-37220 14205 L-35711 13916 L-35691 13627 L-33679 13338 L-32809 12760 L-31938 12471 L-31354 11893 L-30816 11315 L-30159 10736 L-28921 10158 L-28360 9869 L-27179 9580 L-25941 9291 L-25903 9002 L-25516 8713 L-24974 8135 L-24200 7846 L-23078 7557 L-20989 6979 L-20656 6401 L-20370 5823 L-19441 5534 L-18958 4956 L-18223 4667 L-14591 4378 L-13464 4089 L-13309 3800 L-12283 3222 L-8568 2933 L-7351 2355 L-5533 1777 L-2747 1488 L-2185 910 L1701 910 L4178 621 L5513 621 L6016 332 L6500 43" />
</svg>
