<svg xmlns="http://www.w3.org/2000/svg" version="1.1" viewBox="0 0 6500 1000">
	<path fill="none" stroke="gold" stroke-width="125" stroke-linecap="round" stroke-linejoin="round" d="M0 20879  L-128089 20879 L-125485 20719 L-123817 20558 L-105487 20237 L-105317 19916 L-98159 19595 L-98126 19595 L-84695 19434 L-81774 19595 L-68433 19113 L-64264 18471 L-63104 17669 L-62485 16866 L-60473 16385 L-56701 16064 L-56101 15743 L-55772 15422 L-55559 15101 L-55017 14780 L-53779 13495 L-52600 12211 L-49736 10927 L-49214 9643 L-44358 9322 L-41421 9001 L-41378 8680 L-41070 8359 L-40818 8038 L-38223 7717 L-33967 7717 L-33950 7717 L-32713 7717 L-30835 7717 L-28882 7396 L-27934 7075 L-27663 6754 L-27353 6593 L-27255 6433 L-26425 6433 L-24394 6593 L-24103 5149 L-21957 4507 L-21802 3544 L-18145 2581 L-17894 3062 L-17796 2902 L-17279 3383 L-15127 4186 L-14199 4988 L-12673 5791 L-11433 5791 L-9887 5630 L-6925 5309 L-5803 4988 L-5494 4667 L-4282 4507 L-1276 6272 L-1256 6112 L-909 5951 L-696 5791 L-569 3544 L-328 3223 L-290 2902 L-270 2581 L-251 2260 L-192 1939 L-133 1617 L-115 1296 L327 975 L1566 654 L3112 333 L6500 12" />
</svg>
