<svg xmlns="http://www.w3.org/2000/svg" version="1.1" viewBox="0 0 6500 1000">
	<path fill="none" stroke="gold" stroke-width="125" stroke-linecap="round" stroke-linejoin="round" d="M0 2028  L-721078 2028 L-718474 2028 L-716806 2027 L-698477 2027 L-698306 2027 L-691149 2027 L-691116 2027 L-677685 2027 L-674763 2027 L-661422 2027 L-657253 2026 L-656093 2026 L-655474 2025 L-653462 2025 L-649690 2025 L-649090 2024 L-648761 2024 L-648548 2024 L-648007 2024 L-646769 2023 L-645590 2022 L-642725 2021 L-642203 2021 L-637347 2021 L-634410 2020 L-634367 2020 L-634059 2020 L-633807 2020 L-631212 2020 L-626957 2020 L-626939 2020 L-625702 2020 L-623824 2020 L-621871 2019 L-620923 2019 L-620652 2019 L-620342 2019 L-620244 2019 L-619414 2019 L-617383 2019 L-617093 2018 L-614946 2018 L-614791 2017 L-611134 2016 L-610883 2017 L-610785 2017 L-610268 2017 L-608117 2017 L-607188 2018 L-605662 2018 L-604422 2018 L-602876 2018 L-599914 2018 L-598792 2018 L-598483 2018 L-597272 2018 L-594265 2019 L-594245 2019 L-593898 2018 L-593685 2018 L-593559 2017 L-593317 2017 L-593279 2017 L-593260 2016 L-593240 2016 L-593181 2016 L-593123 2016 L-593105 2016 L-592662 2015 L-591422 2015 L-589876 2015 L-586489 2015 L-580762 2015 L-580561 2015 L-578925 2014 L-577203 2014 L-575771 2014 L-575539 2014 L-574823 2014 L-568691 2014 L-568323 2014 L-568169 2014 L-567591 2013 L-567298 2013 L-566331 2013 L-566021 2013 L-565422 2013 L-563816 2013 L-563081 2013 L-562771 2013 L-562003 2013 L-559967 2012 L-559541 2012 L-558729 2012 L-551300 2012 L-550777 2012 L-550604 2012 L-549869 2011 L-548301 2011 L-547895 2011 L-545670 2011 L-544722 2011 L-544297 2011 L-543967 2011 L-542923 2011 L-540815 2010 L-540563 2010 L-539944 2010 L-539131 2010 L-537023 2010 L-536975 2009 L-535047 2009 L-534721 2009 L-534586 2009 L-534083 2009 L-532670 2009 L-532167 2008 L-531645 2008 L-528086 2007 L-527351 2007 L-524926 2007 L-523636 2007 L-523230 2007 L-520077 2007 L-519922 2007 L-519902 2007 L-519535 2007 L-518277 2007 L-517562 2007 L-516672 2007 L-516265 2007 L-515337 2007 L-514228 2007 L-513925 2007 L-507676 2008 L-506729 2008 L-505102 2008 L-504601 2008 L-500925 2008 L-500093 2008 L-496140 2008 L-494728 2008 L-492238 2008 L-491562 2008 L-491523 2008 L-490652 2008 L-487441 2007 L-484578 2007 L-483610 2007 L-482489 2007 L-482470 2007 L-480845 2007 L-480380 2006 L-480289 2006 L-473919 2006 L-472971 2006 L-470514 2006 L-469641 2006 L-468405 2006 L-466404 2006 L-466007 2005 L-464570 2005 L-462544 2005 L-462331 2005 L-461151 2005 L-459642 2005 L-459622 2005 L-457610 2004 L-456740 2004 L-455870 2004 L-455285 2004 L-454748 2004 L-454090 2004 L-452852 2003 L-452291 2003 L-451110 2003 L-449872 2003 L-449834 2003 L-449447 2003 L-448905 2003 L-448132 2003 L-447009 2002 L-444920 2002 L-444587 2002 L-444301 2002 L-443373 2002 L-442889 2002 L-442154 2001 L-438523 2001 L-437395 2001 L-437240 2001 L-436214 2001 L-432500 2001 L-431282 2001 L-429464 2001 L-426678 2000 L-426117 2000 L-422229 2000 L-419752 2000 L-418417 2000 L-417914 2000 L-417431 2000 L-414741 2000 L-410970 2000 L-408513 2000 L-407333 2000 L-406694 2000 L-404334 2000 L-404257 2000 L-403209 1999 L-403115 1999 L-402613 1999 L-402167 1999 L-402110 1999 L-401896 1999 L-398936 1999 L-396229 1999 L-396074 1999 L-392553 1999 L-392030 1999 L-391063 1998 L-390714 1998 L-389670 1998 L-388742 1998 L-388316 1998 L-386807 1998 L-385840 1998 L-385821 1998 L-383925 1990 L-383809 1983 L-383761 1975 L-383737 1968 L-380733 1968 L-378702 1968 L-376941 1968 L-376574 1968 L-376128 1967 L-375761 1967 L-375348 1967 L-373363 1967 L-373149 1967 L-372994 1967 L-371389 1967 L-370267 1967 L-369319 1967 L-368062 1966 L-366417 1966 L-365238 1966 L-358648 1966 L-358602 1966 L-358196 1966 L-357151 1966 L-357015 1966 L-355333 1965 L-355313 1965 L-353976 1965 L-352740 1965 L-352586 1965 L-352212 1965 L-352005 1965 L-351696 1965 L-350922 1964 L-348601 1964 L-347943 1964 L-345815 1964 L-344093 1964 L-343899 1964 L-341346 1964 L-341069 1963 L-340881 1963 L-340049 1963 L-339276 1963 L-338578 1963 L-333578 1963 L-333202 1963 L-328949 1963 L-328462 1973 L-328443 1973 L-328364 1972 L-328288 1972 L-328268 1962 L-327456 1962 L-326702 1962 L-325483 1962 L-324051 1962 L-323955 1962 L-323780 1962 L-323426 1961 L-322117 1961 L-320259 1961 L-318557 1961 L-318054 1961 L-317789 1961 L-317396 1961 L-317261 1961 L-316352 1961 L-315975 1960 L-315047 1960 L-314708 1960 L-314668 1960 L-314630 1960 L-312715 1960 L-312541 1960 L-311012 1960 L-310684 1960 L-310568 1960 L-310161 1960 L-309813 1960 L-308169 1960 L-307618 1959 L-307375 1959 L-306834 1959 L-306002 1959 L-305461 1959 L-303926 1959 L-303834 1959 L-303797 1959 L-303661 1958 L-303274 1958 L-302249 1958 L-300373 1958 L-300276 1958 L-299676 1961 L-299309 1965 L-298824 1968 L-298786 1971 L-298012 1972 L-297955 1972 L-297780 1971 L-297587 1971 L-295982 1971 L-295962 1971 L-295806 1971 L-295691 1971 L-294511 1971 L-294357 1972 L-293690 1972 L-291242 1980 L-288727 1988 L-286057 1996 L-278358 2004 L-272690 2004 L-270475 2004 L-270452 2004 L-269478 2006 L-269458 2006 L-268595 2006 L-265854 2006 L-260056 2004 L-259902 2004 L-257117 2003 L-243508 2003 L-242762 2003 L-238352 2003 L-222005 2003 L-221773 2003 L-221236 2003 L-212777 2002 L-204071 2002 L-203859 2002 L-201886 2002 L-199100 2002 L-194613 2002 L-194458 2002 L-194289 2002 L-194148 2002 L-193858 2002 L-193819 2002 L-193548 2002 L-193377 2002 L-192966 2001 L-191846 2001 L-190666 2001 L-189389 2001 L-186525 2001 L-183605 2001 L-181613 2001 L-180065 2001 L-177027 2001 L-167703 2001 L-167179 2000 L-161455 2000 L-159948 2000 L-159133 2000 L-157450 2000 L-156729 2000 L-156560 2000 L-155515 2000 L-153448 2000 L-152086 2000 L-147642 2000 L-147545 1999 L-147506 1999 L-147488 1999 L-146655 1999 L-146577 1999 L-144005 1999 L-140756 1999 L-140601 1999 L-139652 1999 L-137911 1998 L-137196 1999 L-133655 1999 L-127078 2000 L-125661 2001 L-125640 2001 L-124689 2001 L-121215 2001 L-120462 2000 L-119900 2000 L-119118 2000 L-111614 2000 L-110015 2000 L-108441 2000 L-105256 2000 L-100923 2000 L-92353 2000 L-83607 2000 L-80533 1999 L-77267 1999 L-76721 1999 L-69583 1999 L-63916 1999 L-49851 1999 L-43840 1999 L-39134 1999 L-35130 1999 L-30023 1999 L-20309 1999 L-4738 1998 L-1656 1998 L-1353 1953 L-1334 1898 L-1315 1836 L-1295 1766 L-1276 1734 L-1256 1707 L-1238 1682 L-1210 1658 L-1189 1634 L-1161 1609 L-1126 1581 L-1112 1558 L-1099 1538 L-1081 1521 L-1062 1508 L-1042 1496 L-1024 1483 L-1004 1471 L-985 1458 L-964 1445 L-947 1432 L-928 1419 L-907 1407 L-888 1394 L-869 1381 L-850 1367 L-831 1353 L-810 1340 L-792 1326 L-773 1314 L-752 1301 L-727 1289 L-713 1278 L-695 1266 L-676 1255 L-656 1243 L-637 1231 L-618 1219 L-598 1207 L-578 1196 L-560 1185 L-541 1174 L-520 1165 L-500 1156 L-483 1148 L-464 1140 L-444 1132 L-425 1125 L-405 1118 L-386 1112 L-366 1106 L-347 1101 L-328 1096 L-309 1091 L-282 1084 L-261 1077 L-233 1069 L-199 1061 L-185 1054 L-172 1047 L-153 1042 L-134 1037 L-114 1032 L-96 1026 L-76 1020 L-56 1014 L-36 1009 L-18 1004 L0 998 L20 993 L40 987 L58 980 L77 972 L97 965 L117 957 L135 949 L154 941 L175 932 L200 922 L214 912 L232 903 L251 894 L271 885 L290 876 L309 866 L329 856 L349 847 L368 838 L386 829 L407 820 L427 812 L445 804 L464 797 L484 789 L503 783 L522 776 L541 769 L561 763 L580 756 L600 749 L619 743 L647 736 L667 730 L695 724 L732 717 L747 709 L760 703 L777 697 L794 692 L814 688 L832 684 L851 680 L871 677 L892 673 L909 668 L928 664 L949 659 L968 655 L987 650 L1005 644 L1025 639 L1045 633 L1064 627 L1083 621 L1104 615 L1128 609 L1143 604 L1160 598 L1180 592 L1199 586 L1219 580 L1238 573 L1258 567 L1278 561 L1296 555 L1315 549 L1335 544 L1356 539 L1373 534 L1392 529 L1412 524 L1431 519 L1451 514 L1470 509 L1490 505 L1509 500 L1528 495 L1547 491 L1575 486 L1596 481 L1623 476 L1660 469 L1674 462 L1687 455 L1704 450 L1722 446 L1742 442 L1761 437 L1781 433 L1800 428 L1821 422 L1840 416 L1857 410 L1877 404 L1898 397 L1916 390 L1935 382 L1954 374 L1975 367 L1993 361 L2012 355 L2033 351 L2058 347 L2072 344 L2090 340 L2109 336 L2128 333 L2148 329 L2166 325 L2186 321 L2207 318 L2225 315 L2244 312 L2264 307 L2285 302 L2302 298 L2321 294 L2341 291 L2360 289 L2379 286 L2398 284 L2418 282 L2438 279 L2457 276 L2476 273 L2503 271 L2524 269 L2552 266 L2587 262 L2600 260 L2614 257 L2632 255 L2651 253 L2671 251 L2689 249 L2709 247 L2729 246 L2750 244 L2767 242 L2785 240 L2806 237 L2826 235 L2844 233 L2863 231 L2883 229 L2903 227 L2921 225 L2940 223 L2961 221 L2986 219 L3001 218 L3018 216 L3037 214 L3057 212 L3076 210 L3095 208 L3115 206 L3136 204 L3153 202 L3172 200 L3193 198 L3213 197 L3231 195 L3250 193 L3270 191 L3288 190 L3308 188 L3327 187 L3347 186 L3366 184 L3385 183 L3404 185 L3433 187 L3453 189 L3481 191 L3518 189 L3533 188 L3546 187 L3563 185 L3580 185 L3600 183 L3618 182 L3638 181 L3657 180 L3679 179 L3695 178 L3714 177 L3734 176 L3755 175 L3773 174 L3791 172 L3811 171 L3831 170 L3850 169 L3869 168 L3890 167 L3915 166 L3929 165 L3946 164 L3966 163 L3985 161 L4005 160 L4024 159 L4043 158 L4064 156 L4082 154 L4101 153 L4121 151 L4142 150 L4159 149 L4178 147 L4198 146 L4217 145 L4237 143 L4255 141 L4275 140 L4295 139 L4314 138 L4333 136 L4360 135 L4381 134 L4409 132 L4444 131 L4457 129 L4471 128 L4490 127 L4508 126 L4528 125 L4546 124 L4566 122 L4586 121 L4607 120 L4624 119 L4642 117 L4663 116 L4683 115 L4701 113 L4720 111 L4740 109 L4760 107 L4778 105 L4797 104 L4818 102 L4843 100 L4858 99 L4875 97 L4894 95 L4914 93 L4933 91 L4952 90 L4972 88 L4993 86 L5010 85 L5030 83 L5050 82 L5071 80 L5088 79 L5107 78 L5127 77 L5146 76 L5165 74 L5184 73 L5204 73 L5224 72 L5243 71 L5262 70 L5289 69 L5310 68 L5338 67 L5373 65 L5387 64 L5400 62 L5419 60 L5437 59 L5457 58 L5475 57 L5495 56 L5514 55 L5535 54 L5552 52 L5571 51 L5592 50 L5612 48 L5630 47 L5649 45 L5668 44 L5689 43 L5707 41 L5726 40 L5747 39 L5772 38 L5787 37 L5804 36 L5823 34 L5843 33 L5862 32 L5881 30 L5901 28 L5922 26 L5939 24 L5958 23 L5979 21 L5999 20 L6016 19 L6035 18 L6055 17 L6074 17 L6094 16 L6113 15 L6133 14 L6152 13 L6171 12 L6190 11 L6217 10 L6238 10 L6266 9 L6300 8 L6314 7 L6328 6 L6346 6 L6365 5 L6385 4 L6403 4 L6423 3 L6443 3 L6463 2 L6481 1 L6500 1" />
</svg>
