<svg xmlns="http://www.w3.org/2000/svg" version="1.1" viewBox="0 0 6500 1000">
	<path fill="none" stroke="gold" stroke-width="125" stroke-linecap="round" stroke-linejoin="round" d="M0 189068  L-547399 189068 L-544795 188379 L-543127 187689 L-524798 186310 L-524627 184931 L-517470 183551 L-517436 183551 L-504006 182862 L-501084 183551 L-487743 181482 L-483574 178724 L-482414 175275 L-481795 171827 L-479783 169758 L-476011 168379 L-475411 167000 L-475082 165620 L-474869 164241 L-474327 162862 L-473089 157344 L-471911 151827 L-469046 146310 L-468524 140793 L-463668 139413 L-460731 138034 L-460688 136655 L-460380 135275 L-460128 133896 L-457533 132517 L-453278 132517 L-453260 132517 L-452023 132517 L-450145 132517 L-448192 131137 L-447244 129758 L-446973 128379 L-446663 127689 L-446565 127000 L-445735 127000 L-443704 127689 L-443414 121482 L-441267 118724 L-441112 114586 L-437455 110448 L-437204 112517 L-437106 111827 L-436589 113896 L-434437 117344 L-433509 120793 L-431983 124241 L-430743 124241 L-429197 123551 L-426235 122172 L-425113 120793 L-424804 119413 L-423593 118724 L-420586 126310 L-420566 125620 L-420219 124931 L-420006 124241 L-419880 114586 L-419638 113206 L-419600 111827 L-419580 110448 L-419561 109068 L-419502 107689 L-419444 106310 L-419426 104931 L-418983 103551 L-417743 102172 L-416197 100793 L-412810 99413 L-407083 98724 L-406882 98034 L-405246 97344 L-403524 96655 L-402092 95965 L-401860 95275 L-401144 94586 L-395012 93896 L-394644 92517 L-394490 91137 L-393912 89758 L-393619 88379 L-392652 87000 L-392342 85620 L-391743 84241 L-390137 84241 L-389402 84241 L-389092 84931 L-388324 84931 L-386288 83551 L-385862 82172 L-385050 81482 L-377621 80103 L-377098 78724 L-376925 77344 L-376189 75965 L-374622 74586 L-374216 73896 L-371991 72517 L-371043 71827 L-370618 71137 L-370288 71137 L-369244 70448 L-367136 69068 L-366884 67689 L-366265 66310 L-365452 65620 L-363344 64241 L-363296 62862 L-361368 61482 L-361042 60103 L-360907 58724 L-360404 58034 L-358991 56655 L-358488 53896 L-357966 51827 L-354407 49068 L-353672 46310 L-351247 46310 L-349957 44931 L-349550 44241 L-346398 44241 L-346243 44241 L-346223 44931 L-345856 44931 L-344598 45620 L-343883 46310 L-342993 46310 L-342586 46310 L-341658 46310 L-340549 45620 L-340246 48379 L-333997 49758 L-333050 51137 L-331423 52517 L-330922 53206 L-327246 53896 L-326414 54586 L-322460 55275 L-321049 53206 L-318559 51827 L-317883 50448 L-317844 49758 L-316973 49758 L-313762 49068 L-310899 48379 L-309931 47689 L-308810 46310 L-308791 44931 L-307166 43551 L-306701 41482 L-306609 40793 L-300240 40103 L-299292 39413 L-296835 38724 L-295962 37344 L-294726 36655 L-292725 35965 L-292327 34586 L-290891 33206 L-288865 32517 L-288652 31137 L-287472 30448 L-285963 29758 L-285943 29068 L-283931 28379 L-283061 27000 L-282191 26310 L-281606 24931 L-281068 23551 L-280411 22172 L-279173 20793 L-278612 20103 L-277431 19413 L-276193 18724 L-276155 18034 L-275768 17344 L-275226 15965 L-274452 15275 L-273330 14586 L-271241 13206 L-270908 11827 L-270622 10448 L-269693 9758 L-269210 8379 L-268475 7689 L-264843 7000 L-263716 6310 L-263561 5620 L-262535 4241 L-258820 3551 L-257603 2172 L-255785 793 L-252999 103 L-252437 -1275 L-248550 -1275 L-246073 -1965 L-244738 -1965 L-244235 -2655 L-243752 -3344 L-241062 -3344 L-237291 -3344 L-234833 -3344 L-233654 -3344 L-233014 -4034 L-230655 -5413 L-230577 -6103 L-229530 -6793 L-229436 -8172 L-228934 -8172 L-228488 -8172 L-228430 -8172 L-228217 -8172 L-225257 -9551 L-222550 -10241 L-222395 -10931 L-218874 -11620 L-218351 -13000 L-217384 -14379 L-217035 -15068 L-215991 -16448 L-215062 -17827 L-214637 -18517 L-213128 -18517 L-212161 -19206 L-212142 -19896 L-210246 -70241 L-210130 -121965 L-210082 -173000 L-210058 -224034 L-207053 -224724 L-205023 -226103 L-203262 -226793 L-202895 -227482 L-202449 -228862 L-202082 -229551 L-201668 -230931 L-199683 -231620 L-199470 -231620 L-199315 -232310 L-197710 -232310 L-196588 -233000 L-195640 -233689 L-194383 -235068 L-192738 -235758 L-191559 -237137 L-184969 -237827 L-184922 -238517 L-184517 -239206 L-183472 -239896 L-183336 -240586 L-181654 -241965 L-181634 -242655 L-180297 -244034 L-179061 -244724 L-178907 -245413 L-178533 -246793 L-178326 -247482 L-178017 -248172 L-177243 -249551 L-174922 -250241 L-174264 -250931 L-172136 -251620 L-170414 -252310 L-170220 -253689 L-167667 -254379 L-167390 -255758 L-167202 -257137 L-166370 -257827 L-165597 -258517 L-164899 -259206 L-159899 -259206 L-159523 -260586 L-155270 -261275 L-154783 -193000 L-154764 -193000 L-154685 -193689 L-154609 -194379 L-154589 -264724 L-153777 -265413 L-153023 -266793 L-151804 -267482 L-150372 -267482 L-150276 -268172 L-150101 -268172 L-149747 -269551 L-148437 -270241 L-146580 -270931 L-144878 -272310 L-144375 -273000 L-144110 -273689 L-143717 -274379 L-143582 -275068 L-142673 -275758 L-142296 -276448 L-141368 -276448 L-141029 -277137 L-140989 -277137 L-140951 -277827 L-139036 -277827 L-138862 -278517 L-137333 -278517 L-137005 -279206 L-136889 -279896 L-136482 -281275 L-136134 -281965 L-134490 -283344 L-133939 -284034 L-133696 -284724 L-133155 -285413 L-132323 -286793 L-131782 -287482 L-130247 -288862 L-130155 -289551 L-130118 -290241 L-129982 -290931 L-129595 -291620 L-128570 -292310 L-126694 -293000 L-126597 -293689 L-125997 -271620 L-125630 -248172 L-125145 -224034 L-125107 -200586 L-124333 -199206 L-124276 -199896 L-124101 -201275 L-123908 -201965 L-122303 -203344 L-122283 -204034 L-122127 -202655 L-122012 -201965 L-120832 -201275 L-120678 -199206 L-120011 -199206 L-117563 -142655 L-115048 -84724 L-112378 -28862 L-104679 27000 L-99011 27000 L-96796 26310 L-96773 26310 L-95799 40103 L-95779 40103 L-94916 38724 L-92175 38034 L-86377 23551 L-86223 22172 L-83437 21482 L-69829 20103 L-69083 19413 L-64673 18034 L-48326 17344 L-48094 15965 L-47557 15275 L-39098 14586 L-30392 13896 L-30180 13206 L-28207 12517 L-25421 12517 L-20934 13206 L-20779 12517 L-20610 12517 L-20469 11827 L-20179 10448 L-20140 9758 L-19869 9068 L-19697 8379 L-19287 7689 L-18167 7000 L-16986 6310 L-15710 5620 L-12846 4931 L-9926 4241 L-7934 3551 L-6386 2172 L-3348 1482 L5976 793 L6500 103" />
</svg>
