<svg xmlns="http://www.w3.org/2000/svg" version="1.1" viewBox="0 0 6500 1000">
	<path fill="none" stroke="gold" stroke-width="125" stroke-linecap="round" stroke-linejoin="round" d="M0 6866  L-415753 6866 L-413149 6857 L-411481 6847 L-393152 6827 L-392982 6808 L-385824 6788 L-385791 6788 L-372360 6778 L-369438 6788 L-356097 6759 L-351928 6719 L-350768 6670 L-350149 6621 L-348137 6592 L-344365 6572 L-343765 6553 L-343436 6533 L-343223 6513 L-342682 6494 L-341444 6415 L-340265 6337 L-337400 6259 L-336878 6180 L-332023 6160 L-329085 6141 L-329042 6121 L-328734 6102 L-328482 6082 L-325887 6062 L-321632 6062 L-321614 6062 L-320377 6062 L-318500 6062 L-316546 6043 L-315598 6023 L-315327 6004 L-315017 5994 L-314919 5984 L-314089 5984 L-312058 5994 L-311768 5906 L-309621 5866 L-309466 5808 L-305810 5749 L-305559 5778 L-305460 5768 L-304943 5798 L-302792 5847 L-301863 5896 L-300337 5945 L-299097 5945 L-297551 5935 L-294589 5915 L-293467 5896 L-293158 5876 L-291947 5866 L-288940 5974 L-288920 5964 L-288573 5955 L-288360 5945 L-288234 5808 L-287992 5788 L-287954 5768 L-287935 5749 L-287915 5729 L-287856 5709 L-287798 5690 L-287780 5670 L-287337 5651 L-286097 5631 L-284552 5611 L-281164 5592 L-275438 5582 L-275236 5572 L-273600 5562 L-271878 5553 L-270446 5543 L-270214 5533 L-269499 5523 L-263366 5513 L-262999 5494 L-262844 5474 L-262266 5455 L-261973 5435 L-261006 5415 L-260696 5396 L-260097 5376 L-258491 5376 L-257756 5376 L-257446 5386 L-256678 5386 L-254642 5366 L-254216 5347 L-253404 5337 L-245975 5317 L-245452 5298 L-245279 5278 L-244544 5258 L-242976 5239 L-242570 5229 L-240345 5209 L-239397 5200 L-238972 5190 L-238642 5190 L-237598 5180 L-235490 5160 L-235238 5141 L-234619 5121 L-233806 5111 L-231698 5092 L-231650 5072 L-229722 5053 L-229396 5033 L-229261 5013 L-228758 5004 L-227345 4984 L-226842 4945 L-226320 4915 L-222761 4876 L-222026 4837 L-219601 4837 L-218312 4817 L-217905 4807 L-214752 4807 L-214597 4807 L-214577 4817 L-214210 4817 L-212952 4827 L-212237 4837 L-211347 4837 L-210940 4837 L-210012 4837 L-208903 4827 L-208600 4866 L-202351 4886 L-201404 4905 L-199778 4925 L-199276 4935 L-195600 4945 L-194768 4954 L-190815 4964 L-189403 4935 L-186913 4915 L-186237 4896 L-186198 4886 L-185327 4886 L-182116 4876 L-179253 4866 L-178285 4856 L-177164 4837 L-177145 4817 L-175520 4798 L-175056 4768 L-174964 4758 L-168594 4749 L-167646 4739 L-165189 4729 L-164317 4709 L-163081 4700 L-161079 4690 L-160682 4670 L-159245 4651 L-157219 4641 L-157006 4621 L-155826 4611 L-154317 4602 L-154297 4592 L-152285 4582 L-151416 4562 L-150545 4552 L-149960 4533 L-149423 4513 L-148765 4494 L-147527 4474 L-146966 4464 L-145785 4454 L-144548 4445 L-144509 4435 L-144122 4425 L-143580 4405 L-142807 4396 L-141684 4386 L-139595 4366 L-139262 4347 L-138976 4327 L-138048 4317 L-137564 4298 L-136829 4288 L-133198 4278 L-132070 4268 L-131915 4258 L-130889 4239 L-127175 4229 L-125957 4209 L-124139 4190 L-121353 4180 L-120792 4160 L-116904 4160 L-114427 4150 L-113092 4150 L-112589 4141 L-112106 4131 L-109416 4131 L-105645 4131 L-103188 4131 L-102008 4131 L-101369 4121 L-99009 4101 L-98932 4092 L-97884 4082 L-97791 4062 L-97288 4062 L-96842 4062 L-96785 4062 L-96571 4062 L-93611 4043 L-90904 4033 L-90749 4023 L-87228 4013 L-86705 3994 L-85738 3974 L-85389 3964 L-84345 3945 L-83417 3925 L-82991 3915 L-81482 3915 L-80515 3905 L-80496 3896 L-78600 3180 L-78484 2444 L-78436 1719 L-78412 993 L-75408 984 L-73377 964 L-71616 954 L-71249 944 L-70803 925 L-70437 915 L-70023 895 L-68038 885 L-67824 885 L-67670 876 L-66064 876 L-64943 866 L-63994 856 L-62737 836 L-61092 827 L-59913 807 L-53323 797 L-53277 787 L-52871 778 L-51826 768 L-51690 758 L-50008 738 L-49988 729 L-48651 709 L-47415 699 L-47261 689 L-46887 670 L-46681 660 L-46371 650 L-45597 631 L-43276 621 L-42618 611 L-40490 601 L-38768 591 L-38574 572 L-36021 562 L-35745 542 L-35556 523 L-34724 513 L-33951 503 L-33253 493 L-28253 493 L-27877 474 L-23624 464 L-23137 1435 L-23118 1435 L-23039 1425 L-22963 1415 L-22944 415 L-22131 405 L-21377 385 L-20158 376 L-18726 376 L-18630 366 L-18455 366 L-18101 346 L-16792 336 L-14934 327 L-13232 307 L-12729 297 L-12464 287 L-12071 278 L-11936 268 L-11027 258 L-10650 248 L-9722 248 L-9383 238 L-9343 238 L-9305 229 L-7390 229 L-7216 219 L-5687 219 L-5359 209 L-5243 199 L-4836 180 L-4488 170 L-2844 150 L-2293 140 L-2050 130 L-1509 121 L-678 101 L-136 91 L1398 72 L1490 62 L1527 52 L1663 42 L2050 32 L3075 23 L4951 13 L5048 3 L5648 317 L6015 650 L6500 993" />
</svg>
