<svg xmlns="http://www.w3.org/2000/svg" version="1.1" viewBox="0 0 6500 1000">
	<path fill="none" stroke="gold" stroke-width="125" stroke-linecap="round" stroke-linejoin="round" d="M0 1032  L-714231 1032 L-711627 1032 L-709959 1032 L-691629 1032 L-691459 1031 L-684301 1031 L-684268 1031 L-670837 1031 L-667915 1031 L-654575 1031 L-650406 1030 L-649245 1030 L-648626 1029 L-646614 1029 L-642843 1029 L-642243 1029 L-641914 1028 L-641701 1028 L-641159 1028 L-639921 1027 L-638742 1026 L-635878 1025 L-635356 1024 L-630500 1024 L-627563 1024 L-627520 1024 L-627212 1023 L-626960 1023 L-624365 1023 L-620109 1023 L-620091 1023 L-618855 1023 L-616977 1023 L-615024 1023 L-614076 1023 L-613805 1022 L-613495 1022 L-613397 1022 L-612567 1022 L-610536 1022 L-610245 1021 L-608099 1021 L-607944 1020 L-604287 1019 L-604036 1020 L-603938 1020 L-603420 1020 L-601269 1021 L-600340 1021 L-598814 1022 L-597575 1022 L-596028 1022 L-593067 1021 L-591945 1021 L-591636 1021 L-590424 1021 L-587418 1022 L-587398 1022 L-587051 1022 L-586838 1022 L-586711 1020 L-586470 1020 L-586432 1020 L-586412 1019 L-586393 1019 L-586334 1019 L-586275 1019 L-586257 1019 L-585814 1018 L-584575 1018 L-583029 1018 L-579641 1018 L-573915 1018 L-573714 1017 L-572078 1017 L-570356 1017 L-568924 1017 L-568691 1017 L-567976 1017 L-561844 1017 L-561476 1017 L-561322 1016 L-560743 1016 L-560451 1016 L-559483 1016 L-559174 1015 L-558575 1015 L-556969 1015 L-556233 1015 L-555924 1015 L-555155 1015 L-553119 1015 L-552694 1015 L-551881 1015 L-544453 1015 L-543930 1014 L-543756 1014 L-543021 1014 L-541454 1014 L-541048 1014 L-538823 1013 L-537875 1013 L-537450 1013 L-537120 1013 L-536076 1013 L-533968 1013 L-533716 1013 L-533097 1012 L-532284 1012 L-530176 1012 L-530128 1012 L-528199 1012 L-527874 1011 L-527739 1011 L-527235 1011 L-525823 1011 L-525320 1010 L-524798 1010 L-521238 1010 L-520503 1009 L-518078 1009 L-516789 1009 L-516382 1009 L-513230 1009 L-513075 1009 L-513055 1009 L-512688 1009 L-511430 1009 L-510715 1009 L-509825 1009 L-509418 1009 L-508489 1009 L-507381 1009 L-507077 1009 L-500829 1010 L-499881 1010 L-498255 1010 L-497753 1010 L-494078 1010 L-493245 1010 L-489292 1011 L-487880 1010 L-485391 1010 L-484715 1010 L-484676 1010 L-483805 1010 L-480594 1010 L-477731 1009 L-476763 1009 L-475641 1009 L-475622 1009 L-473997 1009 L-473533 1008 L-473441 1008 L-467072 1008 L-466123 1008 L-463666 1008 L-462794 1008 L-461558 1008 L-459557 1007 L-459159 1007 L-457723 1007 L-455697 1007 L-455484 1007 L-454303 1007 L-452795 1006 L-452775 1006 L-450763 1006 L-449893 1006 L-449022 1006 L-448437 1006 L-447900 1005 L-447243 1005 L-446004 1005 L-445444 1005 L-444263 1005 L-443025 1005 L-442987 1005 L-442600 1004 L-442058 1004 L-441284 1004 L-440162 1004 L-438073 1004 L-437739 1004 L-437454 1003 L-436525 1003 L-436042 1003 L-435307 1003 L-431675 1003 L-430548 1003 L-430393 1003 L-429367 1002 L-425652 1002 L-424435 1002 L-422616 1002 L-419831 1002 L-419269 1001 L-415381 1001 L-412905 1001 L-411570 1001 L-411066 1001 L-410583 1001 L-407894 1001 L-404122 1001 L-401665 1001 L-400485 1001 L-399846 1001 L-397487 1001 L-397409 1001 L-396362 1001 L-396268 1000 L-395765 1000 L-395320 1000 L-395262 1000 L-395049 1000 L-392089 1000 L-389381 1000 L-389227 1000 L-385706 1000 L-385183 1000 L-384216 999 L-383866 999 L-382823 999 L-381894 999 L-381469 999 L-379960 999 L-378993 999 L-378974 998 L-377078 990 L-376962 982 L-376914 974 L-376889 966 L-373885 966 L-371854 965 L-370094 965 L-369727 965 L-369281 965 L-368914 965 L-368500 965 L-366515 964 L-366302 964 L-366147 964 L-364542 964 L-363420 964 L-362472 964 L-361215 964 L-359570 964 L-358390 964 L-351801 963 L-351754 963 L-351348 963 L-350303 963 L-350168 963 L-348485 963 L-348465 963 L-347129 962 L-345893 962 L-345738 962 L-345364 962 L-345158 962 L-344849 962 L-344075 962 L-341753 961 L-341096 961 L-338968 961 L-337245 961 L-337052 961 L-334498 961 L-334222 961 L-334034 960 L-333201 960 L-332429 960 L-331731 960 L-326730 960 L-326354 960 L-322102 960 L-321615 971 L-321595 971 L-321516 971 L-321441 970 L-321421 959 L-320608 959 L-319855 959 L-318635 959 L-317204 959 L-317107 959 L-316933 959 L-316578 958 L-315269 958 L-313412 958 L-311710 958 L-311207 958 L-310941 958 L-310548 958 L-310414 957 L-309504 957 L-309128 957 L-308199 957 L-307860 957 L-307821 957 L-307783 957 L-305867 957 L-305694 957 L-304165 957 L-303837 957 L-303721 957 L-303314 956 L-302965 956 L-301322 956 L-300771 956 L-300528 956 L-299986 956 L-299155 956 L-298613 955 L-297079 955 L-296987 955 L-296950 955 L-296814 955 L-296427 955 L-295402 955 L-293525 955 L-293429 954 L-292829 958 L-292462 962 L-291977 966 L-291939 969 L-291165 970 L-291108 970 L-290933 969 L-290740 969 L-289134 969 L-289114 969 L-288959 969 L-288844 969 L-287664 969 L-287509 970 L-286842 970 L-284394 979 L-281879 988 L-279210 997 L-271510 1006 L-265843 1006 L-263628 1006 L-263605 1006 L-262631 1008 L-262611 1008 L-261747 1008 L-259007 1008 L-253209 1005 L-253055 1005 L-250269 1005 L-236661 1005 L-235915 1005 L-231504 1005 L-215158 1004 L-214926 1004 L-214389 1004 L-205929 1004 L-197224 1004 L-197011 1004 L-195039 1004 L-192253 1004 L-187765 1004 L-187610 1004 L-187441 1004 L-187301 1004 L-187010 1003 L-186972 1003 L-186701 1003 L-186529 1003 L-186119 1003 L-184998 1003 L-183818 1003 L-182541 1003 L-179677 1002 L-176757 1002 L-174765 1002 L-173218 1002 L-170180 1002 L-160855 1002 L-160331 1002 L-154607 1002 L-153100 1002 L-152286 1002 L-150602 1001 L-149881 1001 L-149713 1001 L-148668 1001 L-146600 1001 L-145238 1001 L-140795 1001 L-140698 1001 L-140659 1000 L-140640 1000 L-139808 1000 L-139730 1000 L-137157 1000 L-133908 1000 L-133753 1000 L-132805 1000 L-131064 999 L-130349 1000 L-126808 1001 L-120230 1001 L-118813 1002 L-118792 1002 L-117842 1002 L-114368 1002 L-113614 1002 L-113053 1001 L-112271 1001 L-104766 1001 L-103168 1001 L-101594 1001 L-98409 1001 L-94076 1001 L-85506 1001 L-76760 1001 L-73686 1001 L-70420 1000 L-69873 1000 L-62736 1000 L-57068 1000 L-43004 1000 L-36993 1000 L-32286 1000 L-28283 1000 L-23176 1000 L-13462 1000 L2108 999 L5191 999 L5493 949 L5513 888 L5531 818 L5551 740 L5571 705 L5590 675 L5609 647 L5636 620 L5657 593 L5685 565 L5720 535 L5734 509 L5747 486 L5766 467 L5784 454 L5804 440 L5822 426 L5842 412 L5862 397 L5883 382 L5900 368 L5918 354 L5939 340 L5959 327 L5977 312 L5996 297 L6016 281 L6036 266 L6054 251 L6073 237 L6094 223 L6119 209 L6134 197 L6151 184 L6171 171 L6190 158 L6209 145 L6228 131 L6248 118 L6269 105 L6286 93 L6305 82 L6326 71 L6346 61 L6364 52 L6383 43 L6403 35 L6421 27 L6441 19 L6460 12 L6480 6 L6500 0" />
</svg>
