<svg xmlns="http://www.w3.org/2000/svg" version="1.1" viewBox="0 0 6500 1000">
	<path fill="none" stroke="gold" stroke-width="125" stroke-linecap="round" stroke-linejoin="round" d="M0 1019  L-716154 1019 L-713550 1019 L-711882 1019 L-693553 1019 L-693382 1018 L-686225 1018 L-686191 1018 L-672760 1018 L-669839 1018 L-656498 1018 L-652329 1018 L-651169 1017 L-650550 1017 L-648538 1017 L-644766 1017 L-644166 1017 L-643837 1017 L-643624 1016 L-643082 1016 L-641844 1016 L-640665 1015 L-637801 1015 L-637279 1014 L-632423 1014 L-629486 1014 L-629443 1014 L-629135 1014 L-628883 1014 L-626288 1013 L-622033 1013 L-622015 1013 L-620778 1013 L-618900 1013 L-616947 1013 L-615999 1013 L-615728 1013 L-615418 1013 L-615320 1013 L-614490 1013 L-612459 1013 L-612169 1012 L-610022 1012 L-609867 1012 L-606210 1011 L-605959 1012 L-605861 1011 L-605344 1012 L-603192 1012 L-602264 1012 L-600738 1013 L-599498 1013 L-597952 1013 L-594990 1012 L-593868 1012 L-593559 1012 L-592348 1012 L-589341 1013 L-589321 1013 L-588974 1013 L-588761 1013 L-588635 1012 L-588393 1012 L-588355 1011 L-588335 1011 L-588316 1011 L-588257 1011 L-588199 1011 L-588181 1011 L-587737 1011 L-586498 1011 L-584952 1010 L-581565 1010 L-575838 1010 L-575637 1010 L-574001 1010 L-572279 1010 L-570847 1010 L-570615 1010 L-569899 1010 L-563767 1010 L-563399 1010 L-563245 1009 L-562667 1009 L-562374 1009 L-561407 1009 L-561097 1009 L-560498 1009 L-558892 1009 L-558157 1009 L-557847 1009 L-557079 1009 L-555043 1009 L-554617 1009 L-553805 1009 L-546376 1008 L-545853 1008 L-545679 1008 L-544944 1008 L-543377 1008 L-542971 1008 L-540746 1008 L-539798 1008 L-539373 1008 L-539043 1008 L-537999 1008 L-535891 1007 L-535639 1007 L-535020 1007 L-534207 1007 L-532099 1007 L-532051 1007 L-530123 1007 L-529797 1007 L-529662 1006 L-529159 1006 L-527746 1006 L-527243 1006 L-526721 1006 L-523162 1005 L-522427 1005 L-520002 1005 L-518712 1005 L-518305 1005 L-515153 1005 L-514998 1005 L-514978 1005 L-514611 1005 L-513353 1005 L-512638 1005 L-511748 1005 L-511341 1005 L-510413 1005 L-509304 1005 L-509001 1005 L-502752 1006 L-501805 1006 L-500178 1006 L-499677 1006 L-496001 1006 L-495168 1006 L-491215 1006 L-489804 1006 L-487314 1006 L-486638 1006 L-486599 1006 L-485728 1006 L-482517 1005 L-479654 1005 L-478686 1005 L-477564 1005 L-477546 1005 L-475920 1005 L-475456 1005 L-475364 1005 L-468995 1005 L-468047 1005 L-465590 1004 L-464717 1004 L-463481 1004 L-461480 1004 L-461082 1004 L-459646 1004 L-457620 1004 L-457407 1004 L-456227 1004 L-454718 1004 L-454698 1004 L-452686 1003 L-451816 1003 L-450945 1003 L-450361 1003 L-449823 1003 L-449166 1003 L-447928 1003 L-447367 1003 L-446186 1003 L-444948 1003 L-444910 1003 L-444523 1002 L-443981 1002 L-443207 1002 L-442085 1002 L-439996 1002 L-439663 1002 L-439377 1002 L-438448 1002 L-437965 1002 L-437230 1002 L-433598 1001 L-432471 1001 L-432316 1001 L-431290 1001 L-427575 1001 L-426358 1001 L-424540 1001 L-421754 1001 L-421192 1001 L-417305 1001 L-414828 1001 L-413493 1001 L-412990 1001 L-412507 1000 L-409817 1000 L-406046 1000 L-403588 1000 L-402409 1000 L-401769 1000 L-399410 1000 L-399332 1000 L-398285 1000 L-398191 1000 L-397689 1000 L-397243 1000 L-397185 1000 L-396972 1000 L-394012 1000 L-391305 1000 L-391150 1000 L-387629 1000 L-387106 1000 L-386139 999 L-385790 999 L-384746 999 L-383817 999 L-383392 999 L-381883 999 L-380916 999 L-380897 999 L-379001 994 L-378885 989 L-378837 984 L-378813 979 L-375808 979 L-373778 979 L-372017 979 L-371650 979 L-371204 979 L-370837 979 L-370423 979 L-368438 979 L-368225 979 L-368070 979 L-366465 979 L-365343 979 L-364395 978 L-363138 978 L-361493 978 L-360313 978 L-353724 978 L-353677 978 L-353272 978 L-352227 978 L-352091 978 L-350409 978 L-350389 978 L-349052 978 L-347816 977 L-347661 977 L-347288 977 L-347081 977 L-346772 977 L-345998 977 L-343677 977 L-343019 977 L-340891 977 L-339168 977 L-338975 977 L-336422 977 L-336145 976 L-335957 976 L-335125 976 L-334352 976 L-333654 976 L-328654 976 L-328278 976 L-324025 976 L-323538 982 L-323518 982 L-323440 982 L-323364 982 L-323344 976 L-322532 975 L-321778 975 L-320559 975 L-319127 975 L-319031 975 L-318856 975 L-318502 975 L-317192 975 L-315335 975 L-313633 975 L-313130 975 L-312865 975 L-312471 975 L-312337 975 L-311427 974 L-311051 974 L-310123 974 L-309783 974 L-309744 974 L-309706 974 L-307791 974 L-307617 974 L-306088 974 L-305760 974 L-305644 974 L-305237 974 L-304889 974 L-303245 974 L-302694 974 L-302451 974 L-301910 974 L-301078 973 L-300537 973 L-299002 973 L-298910 973 L-298873 973 L-298737 973 L-298350 973 L-297325 973 L-295449 973 L-295352 973 L-294752 975 L-294385 977 L-293900 979 L-293862 982 L-293088 982 L-293031 982 L-292856 982 L-292663 982 L-291057 981 L-291038 981 L-290882 981 L-290767 982 L-289587 982 L-289433 982 L-288766 982 L-286317 987 L-283803 993 L-281133 998 L-273434 1003 L-267766 1003 L-265551 1003 L-265528 1003 L-264554 1005 L-264534 1005 L-263671 1004 L-260930 1004 L-255132 1003 L-254978 1003 L-252192 1003 L-238584 1003 L-237838 1003 L-233428 1003 L-217081 1002 L-216849 1002 L-216312 1002 L-207853 1002 L-199147 1002 L-198935 1002 L-196962 1002 L-194176 1002 L-189689 1002 L-189534 1002 L-189365 1002 L-189224 1002 L-188934 1002 L-188895 1002 L-188624 1002 L-188452 1002 L-188042 1002 L-186922 1001 L-185741 1001 L-184465 1001 L-181601 1001 L-178681 1001 L-176689 1001 L-175141 1001 L-172103 1001 L-162778 1001 L-162254 1001 L-156531 1001 L-155024 1001 L-154209 1001 L-152525 1001 L-151804 1001 L-151636 1000 L-150591 1000 L-148523 1000 L-147161 1000 L-142718 1000 L-142621 1000 L-142582 1000 L-142563 1000 L-141731 1000 L-141653 1000 L-139081 1000 L-135831 1000 L-135677 1000 L-134728 1000 L-132987 999 L-132272 1000 L-128731 1000 L-122154 1001 L-120736 1001 L-120716 1001 L-119765 1001 L-116291 1001 L-115538 1001 L-114976 1001 L-114194 1001 L-106690 1001 L-105091 1000 L-103517 1000 L-100332 1000 L-95999 1000 L-87429 1000 L-78683 1000 L-75609 1000 L-72343 1000 L-71796 1000 L-64659 1000 L-58992 1000 L-44927 1000 L-38916 1000 L-34210 1000 L-30206 1000 L-25099 1000 L-15385 1000 L185 999 L3268 999 L3570 970 L3589 933 L3608 892 L3628 846 L3648 825 L3667 807 L3686 790 L3713 774 L3734 759 L3762 742 L3797 724 L3811 708 L3824 695 L3842 684 L3861 676 L3881 667 L3899 659 L3919 651 L3938 642 L3960 633 L3976 625 L3995 617 L4016 608 L4036 600 L4054 592 L4073 583 L4093 573 L4113 564 L4131 555 L4150 547 L4171 539 L4196 531 L4211 523 L4228 516 L4247 508 L4267 501 L4286 492 L4305 484 L4325 476 L4345 469 L4363 462 L4382 455 L4403 449 L4423 442 L4440 437 L4459 432 L4479 427 L4498 422 L4518 418 L4537 414 L4557 410 L4576 407 L4596 403 L4614 399 L4641 395 L4662 390 L4690 385 L4724 380 L4738 375 L4752 371 L4770 367 L4789 364 L4809 361 L4828 357 L4847 353 L4867 349 L4888 345 L4905 342 L4924 339 L4944 335 L4964 331 L4982 326 L5001 321 L5021 316 L5041 311 L5060 306 L5078 300 L5100 294 L5124 288 L5139 282 L5156 276 L5176 270 L5195 264 L5214 257 L5233 251 L5253 245 L5274 238 L5292 232 L5311 226 L5331 221 L5351 215 L5369 210 L5388 205 L5408 200 L5427 196 L5447 192 L5465 187 L5485 183 L5504 178 L5524 174 L5543 170 L5572 165 L5591 161 L5619 157 L5656 152 L5671 148 L5684 143 L5701 139 L5718 136 L5738 133 L5756 131 L5775 128 L5795 126 L5816 123 L5833 121 L5852 118 L5873 115 L5892 111 L5911 108 L5930 105 L5950 101 L5969 97 L5988 93 L6007 89 L6028 85 L6052 81 L6067 78 L6084 74 L6104 70 L6123 66 L6143 62 L6162 58 L6182 54 L6202 50 L6220 46 L6239 42 L6259 38 L6280 35 L6298 32 L6317 28 L6336 25 L6355 22 L6375 18 L6394 15 L6414 12 L6433 9 L6452 6 L6471 3 L6500 0" />
</svg>
