<svg xmlns="http://www.w3.org/2000/svg" version="1.1" viewBox="0 0 6500 1000">
	<path fill="none" stroke="gold" stroke-width="125" stroke-linecap="round" stroke-linejoin="round" d="M0 3839  L-724218 3839 L-721614 3839 L-719946 3839 L-701617 3838 L-701447 3838 L-694289 3838 L-694256 3838 L-680825 3838 L-677903 3838 L-664562 3837 L-660393 3836 L-659233 3836 L-658614 3835 L-656602 3834 L-652830 3834 L-652230 3833 L-651901 3833 L-651688 3833 L-651147 3832 L-649909 3831 L-648730 3830 L-645865 3828 L-645343 3827 L-640488 3826 L-637550 3826 L-637507 3826 L-637199 3825 L-636947 3825 L-634352 3825 L-630097 3825 L-630079 3825 L-628842 3825 L-626965 3825 L-625011 3824 L-624063 3824 L-623792 3824 L-623483 3823 L-623384 3823 L-622554 3823 L-620523 3823 L-620233 3822 L-618086 3821 L-617931 3820 L-614275 3819 L-614024 3820 L-613925 3819 L-613408 3820 L-611257 3821 L-610328 3822 L-608802 3823 L-607562 3823 L-606016 3822 L-603054 3822 L-601932 3822 L-601623 3821 L-600412 3821 L-597405 3823 L-597386 3823 L-597038 3823 L-596825 3823 L-596699 3820 L-596457 3820 L-596419 3819 L-596400 3819 L-596380 3819 L-596321 3818 L-596263 3818 L-596245 3818 L-595802 3817 L-594562 3817 L-593017 3817 L-589629 3816 L-583903 3816 L-583701 3816 L-582065 3816 L-580343 3815 L-578911 3815 L-578679 3815 L-577964 3815 L-571831 3815 L-571464 3814 L-571309 3814 L-570731 3814 L-570438 3813 L-569471 3813 L-569161 3813 L-568562 3812 L-566956 3812 L-566221 3812 L-565911 3812 L-565143 3812 L-563107 3812 L-562681 3812 L-561869 3812 L-554440 3811 L-553917 3811 L-553744 3811 L-553009 3810 L-551441 3810 L-551035 3810 L-548810 3809 L-547862 3809 L-547437 3809 L-547107 3809 L-546063 3809 L-543955 3808 L-543703 3808 L-543084 3808 L-542271 3808 L-540164 3807 L-540115 3807 L-538187 3806 L-537861 3806 L-537726 3806 L-537223 3806 L-535810 3805 L-535307 3805 L-534786 3804 L-531226 3803 L-530491 3803 L-528066 3803 L-526777 3802 L-526370 3802 L-523217 3802 L-523062 3802 L-523042 3802 L-522676 3802 L-521417 3802 L-520702 3803 L-519812 3803 L-519405 3803 L-518477 3803 L-517368 3802 L-517065 3803 L-510816 3803 L-509869 3804 L-508243 3804 L-507741 3804 L-504065 3805 L-503233 3805 L-499280 3805 L-497868 3804 L-495379 3804 L-494702 3804 L-494663 3803 L-493793 3803 L-490581 3803 L-487718 3803 L-486750 3803 L-485629 3803 L-485610 3802 L-483985 3802 L-483521 3801 L-483429 3801 L-477059 3801 L-476111 3801 L-473654 3801 L-472782 3800 L-471546 3800 L-469544 3800 L-469147 3800 L-467710 3799 L-465684 3799 L-465471 3799 L-464291 3799 L-462783 3798 L-462762 3798 L-460750 3798 L-459881 3798 L-459010 3797 L-458425 3797 L-457888 3797 L-457230 3796 L-455992 3796 L-455431 3796 L-454250 3796 L-453013 3796 L-452974 3795 L-452587 3795 L-452046 3795 L-451272 3795 L-450150 3794 L-448060 3794 L-447727 3794 L-447441 3793 L-446513 3793 L-446029 3793 L-445294 3793 L-441663 3793 L-440535 3792 L-440380 3792 L-439354 3792 L-435640 3792 L-434422 3791 L-432604 3791 L-429818 3791 L-429257 3790 L-425369 3790 L-422892 3790 L-421557 3790 L-421054 3790 L-420571 3790 L-417882 3790 L-414110 3790 L-411653 3790 L-410473 3790 L-409834 3790 L-407474 3789 L-407397 3789 L-406349 3789 L-406256 3789 L-405753 3789 L-405307 3789 L-405250 3789 L-405036 3789 L-402076 3788 L-399369 3788 L-399214 3788 L-395693 3788 L-395170 3787 L-394203 3787 L-393854 3787 L-392810 3787 L-391882 3786 L-391456 3786 L-389947 3786 L-388980 3786 L-388961 3786 L-387065 3773 L-386949 3760 L-386901 3747 L-386877 3733 L-383873 3733 L-381842 3733 L-380081 3733 L-379714 3733 L-379269 3732 L-378902 3732 L-378488 3732 L-376503 3732 L-376290 3732 L-376135 3731 L-374529 3731 L-373408 3731 L-372459 3731 L-371202 3731 L-369557 3730 L-368378 3730 L-361788 3730 L-361742 3730 L-361336 3730 L-360291 3729 L-360155 3729 L-358473 3729 L-358453 3729 L-357116 3728 L-355880 3728 L-355726 3728 L-355352 3728 L-355146 3727 L-354836 3727 L-354062 3727 L-351741 3727 L-351083 3727 L-348955 3726 L-347233 3726 L-347039 3726 L-344486 3726 L-344210 3725 L-344021 3725 L-343189 3725 L-342417 3725 L-341718 3724 L-336718 3724 L-336342 3724 L-332089 3724 L-331602 3741 L-331583 3741 L-331504 3741 L-331428 3741 L-331409 3723 L-330596 3723 L-329842 3723 L-328623 3722 L-327191 3722 L-327095 3722 L-326920 3722 L-326566 3722 L-325257 3722 L-323399 3721 L-321697 3721 L-321194 3721 L-320929 3721 L-320536 3721 L-320402 3720 L-319492 3720 L-319115 3720 L-318187 3720 L-317848 3720 L-317808 3720 L-317771 3720 L-315855 3720 L-315681 3720 L-314153 3720 L-313824 3719 L-313708 3719 L-313301 3719 L-312953 3719 L-311309 3718 L-310758 3718 L-310515 3718 L-309974 3718 L-309143 3717 L-308601 3717 L-307066 3717 L-306974 3717 L-306937 3717 L-306801 3716 L-306414 3716 L-305389 3716 L-303513 3716 L-303417 3716 L-302816 3721 L-302449 3727 L-301965 3733 L-301926 3739 L-301153 3740 L-301095 3740 L-300921 3739 L-300727 3739 L-299122 3739 L-299102 3739 L-298947 3739 L-298831 3739 L-297652 3739 L-297497 3740 L-296830 3740 L-294382 3754 L-291867 3769 L-289197 3783 L-281498 3798 L-275830 3798 L-273616 3797 L-273592 3797 L-272618 3801 L-272598 3801 L-271735 3801 L-268995 3800 L-263196 3797 L-263043 3796 L-260257 3796 L-246648 3796 L-245903 3796 L-241492 3795 L-225146 3795 L-224913 3795 L-224376 3795 L-215917 3794 L-207211 3794 L-206999 3794 L-205026 3794 L-202240 3794 L-197753 3794 L-197598 3794 L-197429 3794 L-197289 3794 L-196998 3793 L-196959 3793 L-196688 3793 L-196517 3793 L-196107 3793 L-194986 3793 L-193806 3792 L-192529 3792 L-189665 3792 L-186745 3792 L-184753 3792 L-183205 3791 L-180167 3791 L-170843 3791 L-170319 3791 L-164595 3791 L-163088 3791 L-162273 3791 L-160590 3790 L-159869 3790 L-159700 3790 L-158655 3790 L-156588 3790 L-155226 3789 L-150782 3789 L-150685 3789 L-150647 3789 L-150628 3789 L-149795 3788 L-149717 3788 L-147145 3788 L-143896 3788 L-143741 3788 L-142793 3787 L-141051 3787 L-140336 3788 L-136795 3789 L-130218 3790 L-128801 3791 L-128780 3791 L-127829 3791 L-124355 3791 L-123602 3791 L-123040 3790 L-122258 3790 L-114754 3790 L-113156 3790 L-111582 3790 L-108396 3790 L-104063 3789 L-95494 3789 L-86747 3789 L-83673 3789 L-80407 3789 L-79861 3788 L-72724 3788 L-67056 3788 L-52991 3788 L-46980 3788 L-42274 3788 L-38271 3788 L-33163 3788 L-23449 3788 L-7878 3787 L-4796 3787 L-4493 3708 L-4474 3610 L-4455 3499 L-4435 3375 L-4416 3318 L-4396 3270 L-4378 3226 L-4350 3183 L-4329 3141 L-4301 3097 L-4266 3048 L-4253 3006 L-4239 2970 L-4221 2941 L-4202 2919 L-4182 2897 L-4164 2874 L-4145 2852 L-4125 2829 L-4104 2805 L-4087 2782 L-4068 2760 L-4048 2739 L-4028 2717 L-4009 2693 L-3991 2669 L-3971 2644 L-3951 2619 L-3932 2596 L-3913 2573 L-3892 2552 L-3867 2530 L-3853 2510 L-3836 2490 L-3816 2469 L-3796 2449 L-3777 2427 L-3759 2405 L-3738 2384 L-3718 2364 L-3700 2345 L-3681 2327 L-3661 2310 L-3640 2293 L-3623 2279 L-3604 2266 L-3584 2252 L-3565 2240 L-3545 2227 L-3527 2216 L-3507 2206 L-3487 2197 L-3468 2187 L-3449 2178 L-3422 2166 L-3401 2154 L-3373 2140 L-3339 2125 L-3325 2112 L-3312 2101 L-3293 2091 L-3274 2083 L-3254 2074 L-3236 2063 L-3216 2053 L-3196 2043 L-3176 2033 L-3158 2024 L-3140 2015 L-3119 2005 L-3100 1994 L-3081 1982 L-3062 1968 L-3042 1955 L-3023 1941 L-3004 1927 L-2985 1912 L-2964 1896 L-2939 1879 L-2925 1862 L-2908 1846 L-2888 1830 L-2869 1814 L-2849 1797 L-2830 1779 L-2810 1762 L-2790 1746 L-2772 1730 L-2753 1714 L-2732 1699 L-2712 1684 L-2694 1670 L-2675 1657 L-2655 1644 L-2637 1632 L-2617 1620 L-2598 1609 L-2578 1597 L-2559 1585 L-2539 1573 L-2521 1562 L-2492 1550 L-2472 1540 L-2444 1528 L-2407 1515 L-2392 1503 L-2380 1491 L-2362 1480 L-2345 1472 L-2326 1464 L-2307 1457 L-2288 1451 L-2268 1444 L-2247 1437 L-2230 1430 L-2211 1422 L-2191 1414 L-2171 1406 L-2152 1397 L-2134 1387 L-2114 1377 L-2094 1367 L-2075 1356 L-2056 1346 L-2035 1336 L-2011 1325 L-1996 1315 L-1979 1304 L-1959 1294 L-1940 1284 L-1920 1273 L-1901 1261 L-1881 1250 L-1861 1239 L-1843 1229 L-1824 1219 L-1804 1209 L-1784 1200 L-1766 1192 L-1747 1183 L-1727 1174 L-1708 1165 L-1688 1156 L-1669 1148 L-1650 1139 L-1630 1131 L-1611 1123 L-1592 1115 L-1564 1107 L-1544 1098 L-1516 1089 L-1480 1076 L-1465 1063 L-1452 1052 L-1435 1042 L-1417 1035 L-1397 1029 L-1378 1020 L-1359 1012 L-1339 1003 L-1318 993 L-1299 983 L-1282 972 L-1262 960 L-1242 948 L-1224 936 L-1205 922 L-1185 909 L-1164 896 L-1147 885 L-1128 875 L-1106 867 L-1081 860 L-1067 854 L-1049 848 L-1030 841 L-1011 834 L-992 827 L-973 820 L-953 814 L-932 809 L-915 804 L-895 798 L-875 790 L-854 781 L-837 772 L-818 766 L-798 760 L-779 756 L-760 753 L-741 748 L-721 744 L-701 739 L-682 734 L-663 730 L-636 725 L-615 721 L-587 716 L-552 710 L-539 705 L-525 701 L-507 697 L-488 694 L-468 690 L-450 687 L-430 683 L-411 680 L-390 677 L-372 673 L-354 670 L-333 666 L-313 662 L-295 657 L-276 654 L-256 651 L-236 647 L-218 644 L-199 641 L-178 637 L-153 634 L-138 631 L-121 628 L-102 625 L-83 621 L-63 618 L-44 614 L-24 610 L-3 606 L13 603 L32 600 L53 596 L73 593 L91 590 L109 587 L129 584 L148 581 L168 578 L187 576 L207 574 L226 572 L245 570 L264 573 L293 577 L313 581 L341 584 L378 581 L393 578 L406 576 L423 574 L439 572 L459 570 L478 568 L497 566 L517 564 L538 562 L555 561 L574 559 L594 557 L614 555 L632 553 L651 551 L671 548 L691 546 L709 544 L728 543 L750 541 L775 539 L789 537 L806 535 L826 533 L845 531 L865 529 L884 527 L903 524 L924 521 L942 518 L961 516 L981 513 L1002 511 L1019 508 L1038 506 L1058 503 L1077 501 L1097 498 L1115 496 L1135 493 L1155 491 L1174 489 L1193 487 L1220 485 L1241 482 L1269 480 L1304 477 L1317 474 L1331 472 L1350 470 L1368 468 L1388 466 L1406 464 L1426 462 L1446 460 L1467 457 L1484 455 L1502 453 L1523 451 L1543 448 L1561 445 L1580 442 L1600 438 L1620 435 L1638 432 L1657 429 L1678 426 L1703 423 L1718 420 L1735 416 L1754 413 L1774 410 L1793 407 L1812 404 L1832 401 L1853 398 L1870 395 L1889 392 L1910 389 L1931 387 L1948 385 L1967 383 L1987 381 L2006 379 L2025 377 L2044 375 L2064 374 L2084 372 L2103 370 L2121 369 L2149 367 L2170 366 L2197 364 L2233 361 L2247 358 L2260 355 L2278 352 L2297 350 L2316 348 L2335 346 L2354 344 L2374 342 L2395 340 L2412 338 L2431 335 L2451 333 L2471 331 L2490 328 L2508 325 L2528 323 L2549 320 L2567 318 L2586 316 L2607 314 L2632 312 L2647 310 L2664 308 L2683 306 L2703 304 L2722 301 L2741 298 L2761 295 L2782 292 L2799 288 L2818 286 L2839 283 L2859 281 L2876 279 L2895 277 L2915 276 L2934 274 L2954 273 L2972 271 L2992 269 L3012 268 L3031 267 L3050 265 L3077 263 L3098 262 L3126 261 L3160 259 L3174 258 L3188 256 L3206 255 L3225 254 L3245 253 L3263 251 L3283 250 L3303 249 L3323 248 L3340 247 L3359 246 L3380 244 L3400 243 L3418 242 L3437 241 L3457 240 L3477 239 L3495 238 L3514 237 L3535 236 L3560 235 L3574 234 L3592 232 L3611 231 L3631 230 L3650 229 L3669 228 L3689 226 L3709 224 L3727 222 L3746 219 L3767 216 L3787 214 L3805 213 L3824 211 L3844 209 L3862 208 L3882 206 L3901 204 L3921 203 L3940 202 L3960 200 L3978 199 L4007 198 L4055 197 L4092 196 L4106 194 L4119 193 L4136 192 L4154 192 L4173 191 L4192 190 L4211 189 L4231 188 L4252 187 L4269 186 L4288 186 L4308 185 L4328 184 L4347 183 L4365 182 L4385 181 L4405 180 L4424 178 L4443 177 L4464 175 L4488 173 L4503 171 L4520 169 L4540 167 L4559 166 L4579 164 L4597 162 L4617 161 L4638 159 L4656 157 L4675 155 L4695 154 L4715 153 L4733 152 L4752 150 L4772 149 L4791 148 L4811 147 L4830 145 L4849 144 L4869 143 L4888 141 L4907 140 L4935 139 L4955 137 L4983 135 L5020 133 L5035 130 L5047 128 L5065 125 L5082 124 L5103 123 L5121 122 L5140 121 L5160 120 L5181 119 L5198 117 L5217 116 L5237 114 L5258 112 L5275 110 L5295 107 L5314 105 L5335 102 L5353 100 L5371 98 L5393 96 L5418 95 L5433 93 L5450 91 L5469 90 L5489 88 L5507 87 L5526 84 L5546 82 L5568 80 L5585 79 L5604 77 L5624 76 L5645 74 L5662 73 L5681 71 L5701 70 L5720 69 L5739 67 L5758 66 L5778 65 L5798 63 L5817 62 L5836 61 L5864 997 L5884 995 L5912 994 L5948 991 L5962 53 L5975 51 L5993 49 L6011 48 L6031 47 L6049 47 L6069 46 L6088 44 L6110 42 L6126 40 L6145 38 L6166 36 L6186 34 L6204 31 L6223 29 L6243 26 L6264 25 L6281 23 L6300 22 L6321 20 L6346 18 L6361 16 L6391 13 L6431 10 L6454 7 L6483 4 L6500 1" />
</svg>
