<svg xmlns="http://www.w3.org/2000/svg" version="1.1" viewBox="0 0 6500 1000">
	<path fill="none" stroke="gold" stroke-width="125" stroke-linecap="round" stroke-linejoin="round" d="M0 11663  L-730964 11663 L-728360 11662 L-726692 11662 L-708363 11661 L-708192 11660 L-701035 11659 L-701001 11659 L-687571 11659 L-684649 11659 L-671308 11658 L-667139 11656 L-665979 11653 L-665360 11651 L-663348 11649 L-659576 11648 L-658976 11647 L-658647 11646 L-658434 11645 L-657892 11644 L-656654 11640 L-655476 11637 L-652611 11633 L-652089 11629 L-647233 11628 L-644296 11627 L-644253 11626 L-643945 11625 L-643693 11624 L-641098 11623 L-636843 11623 L-636825 11623 L-635588 11623 L-633710 11623 L-631757 11622 L-630809 11621 L-630538 11620 L-630228 11619 L-630130 11619 L-629300 11619 L-627269 11619 L-626979 11615 L-624832 11613 L-624677 11610 L-621020 11607 L-620769 11609 L-620671 11608 L-620154 11610 L-618003 11612 L-617074 11615 L-615548 11617 L-614308 11617 L-612762 11617 L-609800 11616 L-608678 11615 L-608369 11614 L-607158 11613 L-604151 11618 L-604131 11618 L-603784 11617 L-603571 11617 L-603445 11610 L-603203 11609 L-603165 11608 L-603145 11607 L-603126 11606 L-603067 11605 L-603009 11604 L-602991 11603 L-602548 11602 L-601308 11601 L-599762 11600 L-596375 11599 L-590648 11599 L-590447 11598 L-588811 11598 L-587089 11597 L-585657 11597 L-585425 11596 L-584709 11596 L-578577 11596 L-578209 11595 L-578055 11594 L-577477 11593 L-577184 11592 L-576217 11591 L-575907 11590 L-575308 11589 L-573702 11589 L-572967 11589 L-572657 11589 L-571889 11589 L-569853 11588 L-569427 11587 L-568615 11587 L-561186 11586 L-560663 11585 L-560490 11584 L-559755 11583 L-558187 11582 L-557781 11581 L-555556 11580 L-554608 11580 L-554183 11579 L-553853 11579 L-552809 11579 L-550701 11578 L-550449 11577 L-549830 11576 L-549017 11575 L-546909 11574 L-546861 11574 L-544933 11573 L-544607 11572 L-544472 11571 L-543969 11570 L-542556 11569 L-542053 11567 L-541531 11566 L-537972 11564 L-537237 11562 L-534812 11562 L-533522 11561 L-533115 11560 L-529963 11560 L-529808 11560 L-529788 11561 L-529421 11561 L-528163 11561 L-527448 11562 L-526558 11562 L-526151 11562 L-525223 11562 L-524114 11561 L-523811 11563 L-517562 11564 L-516615 11565 L-514988 11566 L-514487 11567 L-510811 11567 L-509979 11568 L-506025 11568 L-504614 11567 L-502124 11566 L-501448 11565 L-501409 11564 L-500538 11564 L-497327 11564 L-494464 11563 L-493496 11563 L-492375 11562 L-492356 11561 L-490731 11560 L-490266 11558 L-490175 11558 L-483805 11557 L-482857 11557 L-480400 11556 L-479527 11555 L-478291 11555 L-476290 11554 L-475892 11553 L-474456 11553 L-472430 11552 L-472217 11551 L-471037 11551 L-469528 11550 L-469508 11550 L-467496 11549 L-466626 11548 L-465756 11548 L-465171 11547 L-464634 11546 L-463976 11545 L-462738 11544 L-462177 11543 L-460996 11543 L-459758 11542 L-459720 11542 L-459333 11541 L-458791 11540 L-458018 11540 L-456895 11539 L-454806 11538 L-454473 11537 L-454187 11536 L-453258 11536 L-452775 11535 L-452040 11534 L-448408 11534 L-447281 11533 L-447126 11533 L-446100 11532 L-442386 11532 L-441168 11531 L-439350 11530 L-436564 11529 L-436002 11528 L-432115 11528 L-429638 11528 L-428303 11528 L-427800 11527 L-427317 11527 L-424627 11527 L-420856 11527 L-418398 11527 L-417219 11527 L-416579 11526 L-414220 11525 L-414142 11525 L-413095 11524 L-413001 11523 L-412499 11523 L-412053 11523 L-411995 11523 L-411782 11523 L-408822 11522 L-406115 11522 L-405960 11521 L-402439 11521 L-401916 11520 L-400949 11519 L-400600 11518 L-399556 11517 L-398627 11516 L-398202 11516 L-396693 11516 L-395726 11515 L-395707 11515 L-393811 11479 L-393695 11443 L-393647 11406 L-393623 11370 L-390619 11370 L-388588 11369 L-386827 11368 L-386460 11368 L-386014 11367 L-385647 11366 L-385233 11365 L-383248 11365 L-383035 11365 L-382880 11364 L-381275 11364 L-380153 11364 L-379205 11363 L-377948 11362 L-376303 11362 L-375124 11361 L-368534 11361 L-368487 11360 L-368082 11360 L-367037 11359 L-366901 11359 L-365219 11358 L-365199 11357 L-363862 11356 L-362626 11356 L-362472 11355 L-362098 11354 L-361891 11354 L-361582 11353 L-360808 11352 L-358487 11352 L-357829 11351 L-355701 11351 L-353979 11350 L-353785 11349 L-351232 11349 L-350955 11348 L-350767 11347 L-349935 11346 L-349162 11346 L-348464 11345 L-343464 11345 L-343088 11344 L-338835 11344 L-338348 11392 L-338329 11392 L-338250 11392 L-338174 11391 L-338154 11341 L-337342 11341 L-336588 11340 L-335369 11340 L-333937 11340 L-333841 11339 L-333666 11339 L-333312 11338 L-332002 11338 L-330145 11337 L-328443 11336 L-327940 11336 L-327675 11335 L-327282 11335 L-327147 11334 L-326238 11334 L-325861 11333 L-324933 11333 L-324594 11333 L-324554 11333 L-324516 11332 L-322601 11332 L-322427 11332 L-320898 11332 L-320570 11331 L-320454 11331 L-320047 11330 L-319699 11329 L-318055 11328 L-317504 11328 L-317261 11327 L-316720 11327 L-315888 11326 L-315347 11325 L-313812 11324 L-313720 11324 L-313683 11323 L-313547 11323 L-313160 11322 L-312135 11322 L-310259 11321 L-310162 11321 L-309562 11337 L-309195 11353 L-308710 11370 L-308672 11387 L-307898 11388 L-307841 11387 L-307666 11386 L-307473 11386 L-305868 11385 L-305848 11384 L-305692 11385 L-305577 11386 L-304397 11386 L-304243 11388 L-303576 11388 L-301128 11428 L-298613 11469 L-295943 11509 L-288244 11548 L-282576 11548 L-280361 11548 L-280338 11548 L-279364 11557 L-279344 11557 L-278481 11556 L-275740 11556 L-269942 11546 L-269788 11545 L-267003 11544 L-253394 11543 L-252648 11543 L-248238 11542 L-231891 11541 L-231659 11540 L-231122 11540 L-222663 11539 L-213957 11539 L-213745 11538 L-211772 11538 L-208986 11538 L-204499 11538 L-204344 11538 L-204175 11538 L-204034 11537 L-203744 11536 L-203705 11536 L-203434 11535 L-203262 11535 L-202852 11534 L-201732 11534 L-200551 11533 L-199275 11533 L-196411 11532 L-193491 11532 L-191499 11532 L-189951 11531 L-186913 11530 L-177589 11530 L-177065 11529 L-171341 11529 L-169834 11529 L-169019 11529 L-167336 11528 L-166615 11527 L-166446 11527 L-165401 11526 L-163334 11526 L-161972 11525 L-157528 11525 L-157431 11524 L-157392 11524 L-157373 11523 L-156541 11523 L-156463 11522 L-153891 11521 L-150641 11521 L-150487 11520 L-149538 11520 L-147797 11519 L-147082 11522 L-143541 11524 L-136964 11527 L-135546 11531 L-135526 11531 L-134575 11530 L-131101 11530 L-130348 11529 L-129786 11528 L-129004 11528 L-121500 11527 L-119901 11527 L-118327 11526 L-115142 11526 L-110809 11525 L-102239 11525 L-93493 11525 L-90419 11524 L-87153 11523 L-86607 11523 L-79469 11522 L-73802 11522 L-59737 11522 L-53726 11523 L-49020 11522 L-45016 11521 L-39909 11521 L-30195 11520 L-14624 11519 L-11541 11518 L-11239 11298 L-11220 11028 L-11201 10720 L-11181 10377 L-11161 10220 L-11142 10087 L-11124 9966 L-11096 9846 L-11075 9730 L-11047 9607 L-11012 9471 L-10998 9356 L-10985 9257 L-10967 9175 L-10948 9114 L-10928 9053 L-10910 8990 L-10890 8928 L-10871 8865 L-10849 8800 L-10833 8736 L-10814 8674 L-10793 8615 L-10773 8554 L-10755 8489 L-10736 8422 L-10717 8352 L-10696 8285 L-10678 8219 L-10659 8157 L-10638 8098 L-10613 8037 L-10598 7981 L-10581 7925 L-10562 7868 L-10542 7813 L-10523 7752 L-10504 7691 L-10484 7633 L-10464 7578 L-10446 7524 L-10427 7474 L-10406 7427 L-10386 7382 L-10369 7343 L-10350 7305 L-10330 7268 L-10311 7233 L-10291 7198 L-10272 7167 L-10252 7140 L-10233 7114 L-10214 7088 L-10195 7062 L-10168 7029 L-10147 6995 L-10119 6957 L-10085 6915 L-10071 6880 L-10058 6850 L-10039 6822 L-10020 6799 L-10000 6773 L-9982 6745 L-9962 6716 L-9942 6687 L-9922 6661 L-9904 6637 L-9885 6610 L-9865 6583 L-9845 6553 L-9827 6518 L-9808 6481 L-9788 6444 L-9768 6405 L-9749 6366 L-9731 6326 L-9710 6282 L-9685 6234 L-9670 6187 L-9653 6142 L-9633 6098 L-9614 6053 L-9595 6007 L-9576 5958 L-9556 5911 L-9535 5865 L-9517 5821 L-9498 5777 L-9478 5736 L-9458 5694 L-9440 5655 L-9421 5619 L-9401 5582 L-9382 5551 L-9363 5518 L-9344 5485 L-9324 5454 L-9305 5420 L-9285 5388 L-9266 5356 L-9238 5323 L-9218 5294 L-9190 5263 L-9153 5226 L-9138 5191 L-9125 5158 L-9108 5128 L-9091 5105 L-9071 5085 L-9053 5065 L-9034 5047 L-9014 5030 L-8993 5011 L-8976 4990 L-8957 4968 L-8936 4946 L-8917 4923 L-8898 4898 L-8879 4872 L-8860 4844 L-8840 4815 L-8821 4785 L-8802 4757 L-8781 4729 L-8757 4699 L-8742 4672 L-8725 4643 L-8705 4613 L-8686 4585 L-8666 4555 L-8647 4523 L-8627 4492 L-8607 4462 L-8589 4433 L-8570 4406 L-8550 4379 L-8529 4354 L-8512 4330 L-8493 4305 L-8473 4281 L-8454 4256 L-8434 4231 L-8415 4208 L-8395 4185 L-8376 4163 L-8357 4141 L-8338 4118 L-8310 4095 L-8289 4072 L-8261 4045 L-8225 4009 L-8211 3975 L-8198 3943 L-8180 3915 L-8162 3898 L-8143 3879 L-8124 3856 L-8104 3833 L-8085 3807 L-8063 3780 L-8045 3751 L-8028 3722 L-8008 3690 L-7987 3656 L-7969 3621 L-7950 3584 L-7931 3547 L-7910 3512 L-7892 3480 L-7873 3453 L-7852 3432 L-7827 3413 L-7813 3396 L-7795 3379 L-7776 3360 L-7756 3341 L-7737 3321 L-7718 3302 L-7699 3285 L-7678 3270 L-7660 3256 L-7641 3239 L-7621 3217 L-7600 3193 L-7583 3169 L-7564 3151 L-7544 3136 L-7525 3125 L-7506 3114 L-7487 3103 L-7467 3091 L-7447 3077 L-7428 3063 L-7409 3051 L-7382 3038 L-7361 3027 L-7333 3013 L-7298 2997 L-7285 2983 L-7271 2971 L-7253 2961 L-7234 2951 L-7214 2942 L-7196 2931 L-7176 2922 L-7156 2914 L-7135 2904 L-7118 2895 L-7100 2885 L-7079 2874 L-7059 2862 L-7041 2851 L-7022 2840 L-7002 2832 L-6982 2822 L-6964 2813 L-6945 2804 L-6924 2795 L-6899 2786 L-6884 2777 L-6867 2769 L-6848 2760 L-6828 2751 L-6809 2741 L-6790 2731 L-6770 2719 L-6749 2710 L-6732 2700 L-6713 2691 L-6692 2682 L-6672 2673 L-6654 2665 L-6635 2656 L-6615 2648 L-6597 2640 L-6577 2632 L-6558 2625 L-6538 2620 L-6519 2613 L-6499 2607 L-6481 2618 L-6452 2627 L-6432 2638 L-6404 2647 L-6367 2638 L-6352 2631 L-6339 2624 L-6322 2619 L-6305 2614 L-6285 2609 L-6267 2603 L-6247 2597 L-6228 2592 L-6206 2587 L-6190 2583 L-6171 2578 L-6150 2572 L-6130 2566 L-6112 2561 L-6093 2555 L-6074 2549 L-6053 2543 L-6035 2538 L-6016 2533 L-5995 2528 L-5970 2524 L-5956 2518 L-5939 2512 L-5919 2506 L-5900 2500 L-5880 2496 L-5861 2489 L-5841 2482 L-5821 2474 L-5803 2466 L-5784 2458 L-5764 2451 L-5743 2445 L-5726 2438 L-5707 2431 L-5687 2424 L-5668 2418 L-5648 2410 L-5629 2403 L-5610 2395 L-5590 2389 L-5571 2384 L-5552 2378 L-5524 2372 L-5504 2365 L-5476 2358 L-5441 2350 L-5427 2344 L-5414 2338 L-5395 2331 L-5377 2326 L-5357 2321 L-5338 2315 L-5319 2309 L-5299 2303 L-5278 2297 L-5261 2291 L-5242 2285 L-5222 2278 L-5202 2271 L-5184 2262 L-5165 2253 L-5145 2243 L-5125 2234 L-5107 2225 L-5088 2218 L-5066 2210 L-5041 2200 L-5027 2192 L-5010 2183 L-4990 2175 L-4971 2166 L-4952 2157 L-4933 2148 L-4913 2140 L-4892 2132 L-4875 2124 L-4855 2116 L-4835 2109 L-4814 2102 L-4797 2096 L-4778 2090 L-4758 2085 L-4739 2079 L-4720 2074 L-4701 2069 L-4681 2065 L-4661 2060 L-4642 2056 L-4623 2052 L-4596 2048 L-4575 2043 L-4547 2038 L-4512 2028 L-4498 2020 L-4485 2012 L-4466 2004 L-4448 1998 L-4428 1993 L-4410 1987 L-4390 1983 L-4371 1977 L-4350 1971 L-4333 1965 L-4314 1959 L-4293 1952 L-4273 1945 L-4255 1938 L-4236 1931 L-4217 1924 L-4196 1917 L-4178 1911 L-4159 1905 L-4138 1900 L-4113 1895 L-4098 1890 L-4081 1884 L-4062 1878 L-4042 1872 L-4023 1864 L-4004 1856 L-3984 1847 L-3963 1837 L-3946 1829 L-3927 1821 L-3906 1814 L-3886 1807 L-3869 1802 L-3850 1797 L-3830 1793 L-3811 1790 L-3791 1785 L-3772 1780 L-3752 1776 L-3733 1771 L-3714 1768 L-3695 1764 L-3668 1759 L-3647 1756 L-3619 1751 L-3585 1748 L-3570 1744 L-3557 1740 L-3539 1736 L-3520 1733 L-3500 1729 L-3482 1726 L-3462 1723 L-3442 1721 L-3422 1718 L-3404 1714 L-3385 1711 L-3365 1707 L-3345 1703 L-3327 1700 L-3308 1696 L-3288 1693 L-3268 1691 L-3249 1688 L-3231 1686 L-3209 1684 L-3185 1681 L-3170 1677 L-3153 1673 L-3133 1670 L-3114 1667 L-3095 1664 L-3076 1661 L-3056 1656 L-3035 1650 L-3017 1643 L-2999 1637 L-2978 1629 L-2958 1623 L-2940 1619 L-2921 1615 L-2901 1610 L-2882 1605 L-2863 1600 L-2844 1596 L-2824 1592 L-2805 1588 L-2785 1585 L-2766 1582 L-2738 1579 L-2690 1576 L-2653 1572 L-2638 1568 L-2626 1565 L-2609 1562 L-2591 1560 L-2572 1559 L-2553 1557 L-2534 1554 L-2514 1551 L-2493 1548 L-2476 1546 L-2457 1544 L-2437 1542 L-2417 1539 L-2398 1536 L-2379 1534 L-2359 1530 L-2340 1527 L-2321 1524 L-2302 1519 L-2281 1515 L-2257 1509 L-2242 1504 L-2225 1498 L-2205 1493 L-2186 1489 L-2166 1484 L-2147 1480 L-2127 1475 L-2107 1470 L-2089 1465 L-2070 1460 L-2050 1456 L-2029 1452 L-2012 1450 L-1993 1446 L-1973 1443 L-1954 1440 L-1934 1436 L-1915 1432 L-1895 1429 L-1876 1425 L-1856 1422 L-1838 1418 L-1809 1414 L-1789 1410 L-1761 1405 L-1725 1398 L-1710 1390 L-1697 1383 L-1680 1377 L-1662 1373 L-1642 1369 L-1624 1366 L-1604 1364 L-1585 1362 L-1563 1359 L-1547 1355 L-1528 1350 L-1507 1345 L-1487 1340 L-1469 1334 L-1450 1327 L-1431 1320 L-1410 1313 L-1392 1307 L-1373 1302 L-1352 1297 L-1327 1292 L-1312 1287 L-1294 1282 L-1276 1278 L-1256 1274 L-1237 1270 L-1218 1263 L-1198 1258 L-1177 1253 L-1160 1248 L-1141 1244 L-1121 1239 L-1099 1235 L-1083 1231 L-1064 1227 L-1044 1223 L-1025 1220 L-1005 1216 L-987 1212 L-967 1209 L-947 1205 L-928 1202 L-909 1198 L-881 3790 L-861 3786 L-833 3782 L-797 3776 L-783 1175 L-770 1171 L-752 1166 L-734 1164 L-714 1161 L-696 1159 L-676 1156 L-656 1152 L-635 1146 L-618 1141 L-600 1135 L-579 1130 L-559 1124 L-541 1117 L-522 1109 L-502 1103 L-481 1098 L-464 1093 L-445 1089 L-423 1085 L-398 1079 L-383 1073 L-354 1066 L-314 1058 L-291 1050 L-262 1042 L-245 1034 L-232 1028 L-212 1023 L-192 1020 L-171 1016 L-154 1012 L-135 1008 L-115 1005 L-96 1002 L-77 1001 L-58 998 L-38 996 L-18 992 L0 989 L18 986 L46 982 L67 979 L95 976 L130 971 L143 967 L175 963 L194 959 L214 957 L232 955 L252 952 L271 950 L292 947 L309 944 L328 938 L349 929 L369 917 L387 904 L406 893 L426 883 L446 875 L464 868 L483 863 L504 859 L529 854 L544 850 L561 845 L580 839 L600 834 L619 830 L638 825 L658 820 L679 814 L696 809 L715 804 L736 800 L757 796 L773 793 L792 790 L812 787 L832 784 L851 780 L870 776 L890 772 L909 769 L928 766 L947 763 L975 760 L995 757 L1065 750 L1093 742 L1108 734 L1122 726 L1142 722 L1160 718 L1180 713 L1200 708 L1221 704 L1238 701 L1257 698 L1277 696 L1297 694 L1315 690 L1334 685 L1354 681 L1375 676 L1392 671 L1411 667 L1433 664 L1458 661 L1473 657 L1490 654 L1509 648 L1529 643 L1548 639 L1567 634 L1586 631 L1608 628 L1624 624 L1644 621 L1664 618 L1685 615 L1702 611 L1760 607 L1779 604 L1798 601 L1818 598 L1838 595 L1857 593 L1876 591 L1903 588 L1924 586 L1952 584 L1988 581 L2003 578 L2015 576 L2033 574 L2051 573 L2071 571 L2089 569 L2109 568 L2129 567 L2150 565 L2166 564 L2185 562 L2206 560 L2226 558 L2244 556 L2263 553 L2283 550 L2303 548 L2321 545 L2340 542 L2361 540 L2386 537 L2401 536 L2418 533 L2437 532 L2457 529 L2476 526 L2495 523 L2515 518 L2536 515 L2553 511 L2572 509 L2593 507 L2614 506 L2630 504 L2649 502 L2670 500 L2689 498 L2708 497 L2727 496 L2747 494 L2767 493 L2785 492 L2804 490 L2832 489 L2852 487 L2880 485 L2916 483 L2929 481 L2943 479 L2961 477 L2979 475 L2999 473 L3017 471 L3057 470 L3077 468 L3095 467 L3114 465 L3134 462 L3154 459 L3172 456 L3191 453 L3211 451 L3231 449 L3250 447 L3268 445 L3289 443 L3314 441 L3329 439 L3346 438 L3366 436 L3385 433 L3404 431 L3423 428 L3443 426 L3464 425 L3482 422 L3500 420 L3521 418 L3541 416 L3559 414 L3578 412 L3598 410 L3617 409 L3636 407 L3655 405 L3675 404 L3695 402 L3714 401 L3733 399 L3761 397 L3809 395 L3846 393 L3862 391 L3874 390 L3891 388 L3908 387 L3928 386 L3946 384 L3965 383 L3985 382 L4006 382 L4023 381 L4042 381 L4063 380 L4082 379 L4101 378 L4120 377 L4139 376 L4159 374 L4178 373 L4197 371 L4218 369 L4242 367 L4257 364 L4274 361 L4294 359 L4313 355 L4333 351 L4352 346 L4372 341 L4392 337 L4410 334 L4429 330 L4449 326 L4470 323 L4488 319 L4506 315 L4527 311 L4545 308 L4565 305 L4584 302 L4604 299 L4623 295 L4642 291 L4661 286 L4690 282 L4710 279 L4738 276 L4775 273 L4789 271 L4802 268 L4820 265 L4837 263 L4857 260 L4875 258 L4895 256 L4914 254 L4936 251 L4952 248 L4971 245 L4992 242 L5012 238 L5030 235 L5049 233 L5069 230 L5089 228 L5107 224 L5126 221 L5147 218 L5172 214 L5187 211 L5205 207 L5223 203 L5244 199 L5262 196 L5282 192 L5301 188 L5322 184 L5339 179 L5358 174 L5379 171 L5400 168 L5416 165 L5435 163 L5455 161 L5474 159 L5494 156 L5512 153 L5532 150 L5551 148 L5571 145 L5590 142 L5638 139 L5666 136 L5699 131 L5714 128 L5726 125 L5745 121 L5765 119 L5784 116 L5803 113 L5822 110 L5843 107 L5863 105 L5881 103 L5899 101 L5920 98 L5940 95 L5958 93 L5977 89 L5997 85 L6017 83 L6035 79 L6054 76 L6075 73 L6100 70 L6115 66 L6132 62 L6151 58 L6171 54 L6190 49 L6209 45 L6229 42 L6250 39 L6267 36 L6287 33 L6307 30 L6328 27 L6345 24 L6364 22 L6384 20 L6402 18 L6422 16 L6441 14 L6461 11 L6480 8 L6500 5" />
</svg>
