<svg xmlns="http://www.w3.org/2000/svg" version="1.1" viewBox="0 0 6500 1000">
	<path fill="none" stroke="gold" stroke-width="125" stroke-linecap="round" stroke-linejoin="round" d="M0 3555  L-725587 3555 L-722983 3555 L-721315 3555 L-702985 3554 L-702815 3554 L-695657 3554 L-695624 3554 L-682193 3554 L-679271 3554 L-665930 3553 L-661761 3553 L-660601 3552 L-659982 3551 L-657970 3551 L-654199 3550 L-653599 3550 L-653270 3550 L-653057 3549 L-652515 3549 L-651277 3548 L-650098 3546 L-647234 3545 L-646712 3544 L-641856 3544 L-638919 3543 L-638876 3543 L-638567 3543 L-638316 3542 L-635721 3542 L-631465 3542 L-631447 3542 L-630210 3542 L-628333 3542 L-626380 3542 L-625432 3541 L-625161 3541 L-624851 3541 L-624753 3541 L-623922 3541 L-621892 3541 L-621601 3539 L-619455 3539 L-619299 3538 L-615643 3537 L-615392 3537 L-615293 3537 L-614776 3538 L-612625 3538 L-611696 3539 L-610170 3540 L-608931 3540 L-607384 3540 L-604422 3540 L-603301 3539 L-602991 3539 L-601780 3539 L-598774 3541 L-598754 3540 L-598407 3540 L-598193 3540 L-598067 3538 L-597826 3538 L-597788 3537 L-597768 3537 L-597749 3537 L-597690 3536 L-597631 3536 L-597613 3536 L-597170 3535 L-595931 3535 L-594385 3535 L-590997 3534 L-585271 3534 L-585069 3534 L-583434 3534 L-581712 3534 L-580280 3534 L-580047 3533 L-579332 3533 L-573200 3533 L-572832 3533 L-572678 3532 L-572099 3532 L-571807 3532 L-570839 3531 L-570530 3531 L-569931 3531 L-568324 3531 L-567589 3531 L-567280 3531 L-566511 3531 L-564475 3531 L-564050 3530 L-563237 3530 L-555809 3530 L-555286 3530 L-555112 3529 L-554377 3529 L-552809 3529 L-552404 3528 L-550179 3528 L-549231 3528 L-548806 3528 L-548476 3528 L-547432 3528 L-545324 3527 L-545071 3527 L-544453 3527 L-543640 3527 L-541532 3526 L-541484 3526 L-539555 3526 L-539230 3525 L-539095 3525 L-538591 3525 L-537179 3525 L-536676 3524 L-536154 3523 L-532594 3523 L-531859 3522 L-529434 3522 L-528145 3522 L-527738 3522 L-524586 3522 L-524431 3522 L-524410 3522 L-524044 3522 L-522786 3522 L-522071 3522 L-521181 3522 L-520774 3522 L-519845 3522 L-518737 3522 L-518433 3523 L-512185 3523 L-511237 3523 L-509611 3524 L-509109 3524 L-505434 3524 L-504601 3524 L-500648 3524 L-499236 3524 L-496747 3523 L-496070 3523 L-496032 3523 L-495161 3523 L-491950 3523 L-489087 3523 L-488119 3522 L-486997 3522 L-486978 3522 L-485353 3521 L-484889 3521 L-484797 3521 L-478428 3521 L-477479 3521 L-475022 3520 L-474150 3520 L-472914 3520 L-470913 3520 L-470515 3519 L-469079 3519 L-467053 3519 L-466839 3519 L-465659 3518 L-464151 3518 L-464131 3518 L-462118 3518 L-461249 3518 L-460378 3518 L-459793 3517 L-459256 3517 L-458598 3517 L-457360 3516 L-456800 3516 L-455619 3516 L-454381 3516 L-454342 3516 L-453956 3515 L-453414 3515 L-452640 3515 L-451518 3515 L-449429 3514 L-449095 3514 L-448810 3514 L-447881 3514 L-447398 3513 L-446662 3513 L-443031 3513 L-441904 3513 L-441749 3513 L-440723 3512 L-437008 3512 L-435791 3512 L-433972 3512 L-431187 3511 L-430625 3511 L-426737 3511 L-424261 3511 L-422926 3511 L-422422 3511 L-421939 3511 L-419250 3511 L-415478 3511 L-413021 3511 L-411841 3511 L-411202 3511 L-408843 3510 L-408765 3510 L-407718 3510 L-407624 3510 L-407121 3510 L-406676 3510 L-406618 3510 L-406404 3510 L-403445 3509 L-400737 3509 L-400582 3509 L-397062 3509 L-396539 3508 L-395571 3508 L-395222 3508 L-394179 3508 L-393250 3507 L-392824 3507 L-391315 3507 L-390348 3507 L-390330 3507 L-388434 3495 L-388318 3483 L-388270 3472 L-388245 3460 L-385241 3460 L-383210 3459 L-381450 3459 L-381082 3459 L-380637 3459 L-380270 3459 L-379856 3458 L-377871 3458 L-377658 3458 L-377503 3458 L-375898 3458 L-374776 3458 L-373828 3458 L-372570 3457 L-370926 3457 L-369746 3457 L-363157 3457 L-363110 3457 L-362704 3456 L-361659 3456 L-361524 3456 L-359841 3456 L-359821 3456 L-358485 3455 L-357248 3455 L-357094 3455 L-356720 3455 L-356514 3454 L-356205 3454 L-355431 3454 L-353109 3454 L-352451 3454 L-350324 3454 L-348601 3453 L-348408 3453 L-345854 3453 L-345578 3453 L-345390 3452 L-344557 3452 L-343785 3452 L-343087 3452 L-338086 3452 L-337710 3451 L-333457 3451 L-332970 3467 L-332951 3467 L-332872 3467 L-332797 3467 L-332777 3451 L-331964 3450 L-331210 3450 L-329991 3450 L-328559 3450 L-328463 3450 L-328289 3450 L-327934 3449 L-326625 3449 L-324768 3449 L-323065 3449 L-322563 3449 L-322297 3448 L-321904 3448 L-321770 3448 L-320860 3448 L-320484 3448 L-319555 3448 L-319216 3448 L-319177 3448 L-319139 3448 L-317223 3448 L-317050 3447 L-315521 3447 L-315193 3447 L-315077 3447 L-314670 3447 L-314321 3447 L-312678 3446 L-312127 3446 L-311884 3446 L-311342 3446 L-310511 3445 L-309969 3445 L-308435 3445 L-308343 3445 L-308306 3445 L-308170 3444 L-307782 3444 L-306758 3444 L-304881 3444 L-304785 3444 L-304185 3449 L-303818 3454 L-303333 3460 L-303295 3465 L-302521 3466 L-302464 3465 L-302289 3465 L-302095 3465 L-300490 3465 L-300470 3464 L-300315 3465 L-300200 3465 L-299020 3465 L-298865 3466 L-298198 3466 L-295750 3479 L-293235 3492 L-290565 3505 L-282866 3518 L-277198 3518 L-274984 3518 L-274961 3518 L-273987 3521 L-273967 3521 L-273103 3520 L-270363 3520 L-264564 3517 L-264411 3517 L-261625 3516 L-248017 3516 L-247271 3516 L-242860 3516 L-226514 3515 L-226282 3515 L-225745 3515 L-217285 3515 L-208580 3515 L-208367 3514 L-206395 3514 L-203609 3514 L-199121 3514 L-198966 3514 L-198797 3514 L-198657 3514 L-198366 3514 L-198328 3514 L-198057 3514 L-197885 3513 L-197475 3513 L-196354 3513 L-195174 3513 L-193897 3513 L-191033 3513 L-188113 3512 L-186121 3512 L-184573 3512 L-181536 3512 L-172211 3512 L-171687 3511 L-165963 3511 L-164456 3511 L-163642 3511 L-161958 3511 L-161237 3511 L-161069 3511 L-160023 3511 L-157956 3510 L-156594 3510 L-152151 3510 L-152054 3510 L-152015 3510 L-151996 3510 L-151164 3509 L-151086 3509 L-148513 3509 L-145264 3509 L-145109 3509 L-144161 3508 L-142420 3508 L-141704 3509 L-138164 3510 L-131586 3511 L-130169 3512 L-130148 3512 L-129198 3512 L-125723 3512 L-124970 3511 L-124408 3511 L-123626 3511 L-116122 3511 L-114524 3511 L-112950 3511 L-109765 3510 L-105432 3510 L-96862 3510 L-88116 3510 L-85042 3510 L-81776 3510 L-81229 3509 L-74092 3509 L-68424 3509 L-54360 3509 L-48348 3509 L-43642 3509 L-39639 3509 L-34531 3509 L-24817 3509 L-9247 3508 L-6164 3508 L-5862 3437 L-5842 3349 L-5823 3249 L-5804 3137 L-5784 3086 L-5765 3043 L-5746 3004 L-5719 2965 L-5698 2927 L-5670 2887 L-5634 2843 L-5621 2805 L-5608 2773 L-5589 2746 L-5571 2727 L-5551 2707 L-5533 2686 L-5513 2666 L-5493 2646 L-5472 2625 L-5455 2604 L-5437 2584 L-5416 2565 L-5396 2545 L-5378 2524 L-5359 2502 L-5339 2479 L-5319 2457 L-5301 2436 L-5282 2416 L-5261 2397 L-5236 2377 L-5221 2359 L-5204 2340 L-5184 2322 L-5165 2304 L-5146 2284 L-5127 2264 L-5107 2245 L-5086 2228 L-5068 2210 L-5050 2194 L-5029 2178 L-5008 2164 L-4991 2151 L-4972 2139 L-4952 2127 L-4933 2115 L-4914 2104 L-4895 2094 L-4875 2085 L-4855 2077 L-4836 2068 L-4818 2060 L-4790 2049 L-4769 2038 L-4741 2026 L-4707 2012 L-4693 2001 L-4680 1991 L-4661 1982 L-4642 1974 L-4623 1966 L-4604 1957 L-4585 1948 L-4565 1938 L-4544 1930 L-4527 1922 L-4508 1913 L-4488 1904 L-4468 1895 L-4449 1883 L-4431 1871 L-4411 1859 L-4391 1846 L-4372 1834 L-4353 1821 L-4332 1807 L-4308 1791 L-4293 1776 L-4276 1761 L-4256 1747 L-4237 1732 L-4217 1717 L-4199 1701 L-4178 1686 L-4158 1671 L-4140 1657 L-4121 1642 L-4101 1629 L-4080 1615 L-4063 1603 L-4044 1591 L-4024 1579 L-4005 1569 L-3985 1558 L-3966 1548 L-3947 1537 L-3927 1527 L-3908 1516 L-3889 1506 L-3860 1495 L-3840 1486 L-3813 1476 L-3775 1463 L-3760 1452 L-3748 1441 L-3731 1432 L-3714 1424 L-3694 1418 L-3675 1411 L-3656 1405 L-3636 1400 L-3616 1393 L-3598 1387 L-3579 1380 L-3559 1372 L-3539 1365 L-3521 1357 L-3502 1348 L-3482 1339 L-3462 1330 L-3443 1320 L-3425 1311 L-3404 1302 L-3379 1292 L-3365 1283 L-3347 1274 L-3327 1264 L-3308 1255 L-3289 1245 L-3270 1235 L-3250 1225 L-3230 1215 L-3211 1206 L-3192 1197 L-3172 1188 L-3152 1180 L-3134 1172 L-3115 1164 L-3095 1156 L-3077 1148 L-3057 1140 L-3038 1133 L-3018 1125 L-2999 1118 L-2979 1111 L-2960 1103 L-2932 1096 L-2912 1088 L-2884 1080 L-2848 1068 L-2834 1057 L-2821 1047 L-2803 1038 L-2785 1032 L-2765 1026 L-2747 1018 L-2727 1011 L-2707 1002 L-2686 994 L-2668 984 L-2651 975 L-2630 964 L-2610 953 L-2592 942 L-2573 930 L-2553 918 L-2533 907 L-2515 896 L-2496 887 L-2475 880 L-2450 874 L-2435 869 L-2418 863 L-2399 857 L-2379 851 L-2360 845 L-2341 838 L-2321 833 L-2300 828 L-2283 823 L-2264 818 L-2243 811 L-2222 803 L-2206 795 L-2187 789 L-2166 784 L-2148 781 L-2128 777 L-2109 774 L-2089 770 L-2070 765 L-2051 761 L-2032 757 L-2004 753 L-1983 749 L-1956 745 L-1921 739 L-1907 735 L-1894 731 L-1875 727 L-1857 724 L-1837 721 L-1818 718 L-1799 715 L-1779 712 L-1758 709 L-1741 706 L-1722 703 L-1702 699 L-1682 695 L-1664 692 L-1645 688 L-1625 685 L-1605 682 L-1586 679 L-1567 676 L-1546 673 L-1521 671 L-1507 668 L-1490 665 L-1470 662 L-1451 659 L-1431 656 L-1412 653 L-1393 649 L-1372 646 L-1354 643 L-1335 640 L-1315 637 L-1294 634 L-1277 631 L-1258 628 L-1238 626 L-1219 623 L-1199 621 L-1181 618 L-1161 617 L-1141 615 L-1122 613 L-1103 616 L-1074 619 L-1055 622 L-1027 625 L-989 622 L-974 620 L-962 618 L-944 616 L-928 615 L-908 613 L-890 611 L-870 609 L-850 608 L-829 606 L-812 605 L-794 603 L-773 601 L-753 599 L-735 597 L-716 595 L-696 594 L-676 592 L-658 590 L-639 588 L-618 587 L-593 585 L-578 584 L-561 582 L-542 580 L-522 578 L-503 576 L-484 574 L-464 572 L-443 569 L-426 567 L-407 564 L-386 562 L-366 560 L-348 558 L-329 555 L-309 553 L-291 551 L-271 548 L-252 546 L-232 544 L-213 541 L-193 540 L-175 538 L-147 536 L-126 534 L-98 532 L-64 529 L-50 527 L-37 525 L-18 523 L0 521 L20 519 L38 518 L58 516 L77 514 L98 512 L115 510 L134 508 L155 506 L175 503 L193 501 L211 498 L231 494 L252 491 L270 488 L289 486 L310 483 L335 480 L350 478 L367 475 L386 472 L406 469 L425 466 L444 463 L464 461 L485 458 L502 456 L521 453 L542 451 L562 448 L579 446 L598 444 L618 443 L637 441 L657 439 L676 438 L695 436 L715 435 L734 433 L753 432 L781 431 L801 429 L829 428 L865 424 L878 422 L891 419 L910 416 L928 415 L948 413 L966 411 L986 410 L1006 408 L1027 406 L1044 404 L1062 402 L1083 400 L1103 398 L1121 395 L1140 393 L1160 391 L1180 388 L1198 386 L1217 384 L1239 383 L1263 381 L1278 379 L1295 378 L1315 375 L1334 374 L1353 371 L1372 369 L1392 366 L1413 362 L1430 360 L1450 357 L1470 355 L1491 353 L1508 351 L1527 349 L1547 348 L1566 347 L1585 345 L1604 344 L1624 342 L1644 341 L1663 340 L1681 338 L1709 337 L1730 336 L1757 334 L1792 333 L1806 332 L1819 331 L1838 330 L1857 328 L1876 327 L1895 326 L1914 325 L1934 324 L1955 324 L1972 322 L1991 321 L2011 320 L2031 319 L2050 318 L2068 317 L2088 316 L2108 315 L2127 314 L2146 313 L2167 313 L2191 311 L2206 310 L2223 309 L2243 308 L2262 307 L2282 306 L2301 305 L2320 304 L2341 302 L2359 299 L2378 297 L2398 295 L2419 293 L2436 291 L2455 290 L2475 288 L2494 287 L2514 285 L2533 284 L2553 283 L2572 281 L2591 280 L2610 279 L2639 278 L2686 277 L2723 276 L2738 275 L2751 274 L2768 273 L2785 272 L2805 272 L2824 271 L2843 270 L2863 269 L2883 268 L2901 268 L2920 267 L2940 267 L2959 266 L2978 265 L2997 264 L3017 263 L3037 262 L3055 261 L3074 259 L3095 258 L3120 256 L3135 254 L3152 252 L3172 251 L3191 249 L3210 247 L3229 246 L3249 245 L3270 243 L3288 241 L3307 240 L3327 239 L3347 237 L3365 236 L3384 235 L3404 234 L3423 233 L3442 232 L3461 231 L3481 230 L3500 228 L3520 227 L3539 226 L3567 225 L3587 224 L3615 222 L3652 220 L3666 217 L3679 215 L3697 213 L3714 212 L3734 210 L3752 209 L3772 209 L3792 208 L3813 207 L3830 206 L3848 204 L3869 203 L3889 201 L3907 199 L3926 197 L3946 194 L3967 192 L3984 190 L4003 188 L4024 187 L4049 185 L4064 184 L4082 182 L4100 181 L4121 179 L4139 178 L4158 176 L4178 174 L4199 172 L4216 171 L4236 170 L4256 168 L4277 167 L4294 165 L4313 164 L4332 163 L4351 162 L4371 161 L4390 159 L4410 158 L4430 157 L4449 156 L4467 155 L4495 997 L4516 996 L4543 994 L4579 992 L4593 147 L4607 146 L4625 144 L4643 144 L4662 143 L4681 142 L4700 141 L4720 140 L4741 138 L4758 136 L4777 134 L4798 133 L4818 130 L4836 128 L4855 126 L4874 124 L4895 122 L4913 121 L4932 119 L4953 118 L4978 116 L4993 114 L5023 112 L5062 109 L5085 107 L5115 104 L5131 101 L5145 99 L5164 98 L5184 97 L5205 96 L5222 94 L5241 93 L5261 92 L5280 91 L5300 90 L5318 90 L5338 89 L5358 88 L5377 87 L5396 86 L5424 85 L5444 84 L5472 82 L5507 81 L5521 80 L5553 78 L5571 77 L5591 76 L5609 76 L5629 75 L5649 74 L5670 73 L5687 72 L5705 70 L5726 67 L5746 63 L5764 59 L5783 56 L5803 52 L5823 50 L5841 47 L5860 46 L5882 44 L5907 43 L5921 41 L5939 40 L5957 38 L5978 37 L5996 35 L6016 34 L6035 32 L6056 30 L6073 28 L6093 27 L6113 25 L6134 24 L6151 23 L6170 22 L6190 21 L6209 20 L6228 19 L6247 18 L6267 16 L6287 15 L6306 14 L6324 13 L6352 12 L6373 11 L6443 9 L6471 6 L6485 4 L6500 1" />
</svg>
