<svg xmlns="http://www.w3.org/2000/svg" version="1.1" viewBox="0 0 6500 1000">
	<path fill="none" stroke="gold" stroke-width="125" stroke-linecap="round" stroke-linejoin="round" d="M0 1036  L-714000 1036 L-711396 1036 L-709728 1036 L-691398 1035 L-691228 1035 L-684070 1035 L-684037 1035 L-670606 1035 L-667685 1035 L-654344 1035 L-650175 1034 L-649015 1033 L-648395 1033 L-646384 1032 L-642612 1032 L-642012 1032 L-641683 1032 L-641470 1031 L-640928 1031 L-639690 1030 L-638511 1029 L-635647 1028 L-635125 1027 L-630269 1027 L-627332 1027 L-627289 1026 L-626981 1026 L-626729 1026 L-624134 1026 L-619878 1026 L-619861 1026 L-618624 1026 L-616746 1026 L-614793 1025 L-613845 1025 L-613574 1025 L-613264 1025 L-613166 1025 L-612336 1025 L-610305 1025 L-610014 1024 L-607868 1023 L-607713 1023 L-604056 1022 L-603805 1022 L-603707 1022 L-603190 1022 L-601038 1023 L-600110 1024 L-598583 1024 L-597344 1024 L-595798 1024 L-592836 1024 L-591714 1024 L-591405 1023 L-590193 1023 L-587187 1025 L-587167 1024 L-586820 1024 L-586607 1024 L-586480 1023 L-586239 1022 L-586201 1022 L-586181 1022 L-586162 1022 L-586103 1021 L-586044 1021 L-586026 1021 L-585583 1021 L-584344 1020 L-582798 1020 L-579410 1020 L-573684 1020 L-573483 1020 L-571847 1019 L-570125 1019 L-568693 1019 L-568460 1019 L-567745 1019 L-561613 1019 L-561245 1019 L-561091 1018 L-560512 1018 L-560220 1018 L-559253 1018 L-558943 1017 L-558344 1017 L-556738 1017 L-556003 1017 L-555693 1017 L-554924 1017 L-552888 1017 L-552463 1017 L-551650 1017 L-544222 1016 L-543699 1016 L-543525 1016 L-542790 1016 L-541223 1015 L-540817 1015 L-538592 1015 L-537644 1015 L-537219 1015 L-536889 1015 L-535845 1015 L-533737 1014 L-533485 1014 L-532866 1014 L-532053 1014 L-529945 1013 L-529897 1013 L-527968 1013 L-527643 1013 L-527508 1012 L-527005 1012 L-525592 1012 L-525089 1012 L-524567 1011 L-521008 1011 L-520272 1010 L-517848 1010 L-516558 1010 L-516151 1010 L-512999 1010 L-512844 1010 L-512824 1010 L-512457 1010 L-511199 1010 L-510484 1010 L-509594 1010 L-509187 1010 L-508258 1010 L-507150 1010 L-506847 1011 L-500598 1011 L-499650 1011 L-498024 1011 L-497522 1011 L-493847 1012 L-493014 1012 L-489061 1012 L-487649 1011 L-485160 1011 L-484484 1011 L-484445 1011 L-483574 1011 L-480363 1011 L-477500 1011 L-476532 1010 L-475410 1010 L-475391 1010 L-473766 1010 L-473302 1009 L-473210 1009 L-466841 1009 L-465893 1009 L-463436 1009 L-462563 1009 L-461327 1009 L-459326 1008 L-458928 1008 L-457492 1008 L-455466 1008 L-455253 1008 L-454073 1007 L-452564 1007 L-452544 1007 L-450532 1007 L-449662 1007 L-448791 1007 L-448207 1006 L-447669 1006 L-447012 1006 L-445773 1006 L-445213 1006 L-444032 1005 L-442794 1005 L-442756 1005 L-442369 1005 L-441827 1005 L-441053 1005 L-439931 1005 L-437842 1004 L-437509 1004 L-437223 1004 L-436294 1004 L-435811 1003 L-435076 1003 L-431444 1003 L-430317 1003 L-430162 1003 L-429136 1003 L-425421 1003 L-424204 1002 L-422385 1002 L-419600 1002 L-419038 1002 L-415150 1002 L-412674 1002 L-411339 1002 L-410836 1001 L-410352 1001 L-407663 1001 L-403891 1001 L-401434 1001 L-400254 1001 L-399615 1001 L-397256 1001 L-397178 1001 L-396131 1001 L-396037 1000 L-395534 1000 L-395089 1000 L-395031 1000 L-394818 1000 L-391858 1000 L-389150 1000 L-388996 1000 L-385475 1000 L-384952 1000 L-383985 999 L-383636 999 L-382592 999 L-381663 999 L-381238 999 L-379729 999 L-378762 998 L-378743 998 L-376847 989 L-376731 980 L-376683 971 L-376658 962 L-373654 962 L-371624 961 L-369863 961 L-369496 961 L-369050 961 L-368683 961 L-368269 960 L-366284 960 L-366071 960 L-365916 960 L-364311 960 L-363189 960 L-362241 960 L-360984 960 L-359339 960 L-358159 959 L-351570 959 L-351523 959 L-351118 959 L-350072 959 L-349937 959 L-348254 958 L-348235 958 L-346898 958 L-345662 958 L-345507 958 L-345133 958 L-344927 957 L-344618 957 L-343844 957 L-341522 957 L-340865 957 L-338737 957 L-337014 957 L-336821 956 L-334268 956 L-333991 956 L-333803 956 L-332971 956 L-332198 955 L-331500 955 L-326499 955 L-326124 955 L-321871 955 L-321384 967 L-321364 967 L-321285 967 L-321210 967 L-321190 954 L-320377 954 L-319624 954 L-318404 954 L-316973 954 L-316876 954 L-316702 954 L-316348 954 L-315038 953 L-313181 953 L-311479 953 L-310976 953 L-310710 953 L-310317 953 L-310183 953 L-309273 952 L-308897 952 L-307968 952 L-307629 952 L-307590 952 L-307552 952 L-305637 952 L-305463 952 L-303934 952 L-303606 952 L-303490 952 L-303083 951 L-302735 951 L-301091 951 L-300540 951 L-300297 951 L-299756 951 L-298924 950 L-298383 950 L-296848 950 L-296756 950 L-296719 950 L-296583 950 L-296196 950 L-295171 949 L-293294 949 L-293198 949 L-292598 953 L-292231 957 L-291746 962 L-291708 966 L-290934 966 L-290877 966 L-290702 966 L-290509 966 L-288903 965 L-288883 965 L-288728 966 L-288613 966 L-287433 966 L-287278 966 L-286611 966 L-284163 976 L-281648 987 L-278979 997 L-271279 1007 L-265612 1007 L-263397 1007 L-263374 1007 L-262400 1009 L-262380 1009 L-261516 1009 L-258776 1009 L-252978 1006 L-252824 1006 L-250038 1006 L-236430 1006 L-235684 1005 L-231273 1005 L-214927 1005 L-214695 1005 L-214158 1005 L-205699 1005 L-196993 1004 L-196781 1004 L-194808 1004 L-192022 1004 L-187534 1004 L-187380 1004 L-187210 1004 L-187070 1004 L-186779 1004 L-186741 1004 L-186470 1004 L-186298 1003 L-185888 1003 L-184768 1003 L-183587 1003 L-182310 1003 L-179447 1003 L-176526 1003 L-174534 1003 L-172987 1002 L-169949 1002 L-160624 1002 L-160100 1002 L-154377 1002 L-152869 1002 L-152055 1002 L-150371 1002 L-149650 1001 L-149482 1001 L-148437 1001 L-146369 1001 L-145007 1001 L-140564 1001 L-140467 1001 L-140428 1001 L-140409 1000 L-139577 1000 L-139499 1000 L-136927 1000 L-133677 1000 L-133522 1000 L-132574 1000 L-130833 999 L-130118 1000 L-126577 1001 L-120000 1001 L-118582 1002 L-118561 1002 L-117611 1002 L-114137 1002 L-113383 1002 L-112822 1002 L-112040 1002 L-104536 1001 L-102937 1001 L-101363 1001 L-98178 1001 L-93845 1001 L-85275 1001 L-76529 1001 L-73455 1001 L-70189 1000 L-69642 1000 L-62505 1000 L-56837 1000 L-42773 1000 L-36762 1000 L-32055 1000 L-28052 1000 L-22945 1000 L-13231 1000 L2339 999 L5422 999 L5724 943 L5744 875 L5762 797 L5782 710 L5802 670 L5821 636 L5840 606 L5867 575 L5888 546 L5916 514 L5951 480 L5965 451 L5978 426 L5996 405 L6015 390 L6035 374 L6053 358 L6073 342 L6093 327 L6114 310 L6131 294 L6149 278 L6170 263 L6190 248 L6208 231 L6227 214 L6247 196 L6267 179 L6285 163 L6304 147 L6325 132 L6350 117 L6365 102 L6382 88 L6401 74 L6421 60 L6440 44 L6459 29 L6479 14 L6500 0" />
</svg>
