<svg xmlns="http://www.w3.org/2000/svg" version="1.1" viewBox="0 0 6500 1000">
	<path fill="none" stroke="gold" stroke-width="125" stroke-linecap="round" stroke-linejoin="round" d="M0 1039  L-719589 1039 L-716985 1039 L-715317 1039 L-696988 1039 L-696817 1039 L-689660 1039 L-689626 1039 L-676196 1039 L-673274 1039 L-659933 1039 L-655764 1038 L-654604 1038 L-653985 1038 L-651973 1038 L-648201 1038 L-647601 1037 L-647272 1037 L-647059 1037 L-646517 1037 L-645279 1037 L-644101 1036 L-641236 1036 L-640714 1035 L-635858 1035 L-632921 1035 L-632878 1035 L-632570 1035 L-632318 1035 L-629723 1035 L-625468 1035 L-625450 1035 L-624213 1035 L-622335 1035 L-620382 1035 L-619434 1035 L-619163 1034 L-618853 1034 L-618755 1034 L-617925 1034 L-615894 1034 L-615604 1034 L-613457 1034 L-613302 1033 L-609645 1033 L-609394 1033 L-609296 1033 L-608779 1033 L-606627 1034 L-605699 1034 L-604173 1034 L-602933 1034 L-601387 1034 L-598425 1034 L-597303 1034 L-596994 1034 L-595783 1034 L-592776 1034 L-592756 1034 L-592409 1034 L-592196 1034 L-592070 1033 L-591828 1033 L-591790 1033 L-591770 1033 L-591751 1033 L-591692 1033 L-591634 1033 L-591616 1033 L-591173 1033 L-589933 1032 L-588387 1032 L-585000 1032 L-579273 1032 L-579072 1032 L-577436 1032 L-575714 1032 L-574282 1032 L-574050 1032 L-573334 1032 L-567202 1032 L-566834 1032 L-566680 1032 L-566102 1031 L-565809 1031 L-564842 1031 L-564532 1031 L-563933 1031 L-562327 1031 L-561592 1031 L-561282 1031 L-560514 1031 L-558478 1031 L-558052 1031 L-557240 1031 L-549811 1031 L-549288 1031 L-549115 1031 L-548379 1030 L-546812 1030 L-546406 1030 L-544181 1030 L-543233 1030 L-542808 1030 L-542478 1030 L-541434 1030 L-539326 1030 L-539074 1030 L-538455 1030 L-537642 1030 L-535534 1030 L-535486 1029 L-533558 1029 L-533232 1029 L-533097 1029 L-532594 1029 L-531181 1029 L-530678 1029 L-530156 1029 L-526597 1028 L-525862 1028 L-523437 1028 L-522147 1028 L-521740 1028 L-518588 1028 L-518433 1028 L-518413 1028 L-518046 1028 L-516788 1028 L-516073 1028 L-515183 1028 L-514776 1028 L-513848 1028 L-512739 1028 L-512436 1028 L-506187 1028 L-505240 1029 L-503613 1029 L-503112 1029 L-499436 1029 L-498604 1029 L-494650 1029 L-493239 1029 L-490749 1029 L-490073 1028 L-490034 1028 L-489163 1028 L-485952 1028 L-483089 1028 L-482121 1028 L-481000 1028 L-480981 1028 L-479356 1028 L-478891 1028 L-478799 1028 L-472430 1028 L-471482 1028 L-469025 1028 L-468152 1027 L-466916 1027 L-464915 1027 L-464517 1027 L-463081 1027 L-461055 1027 L-460842 1027 L-459662 1027 L-458153 1027 L-458133 1027 L-456121 1027 L-455251 1027 L-454380 1027 L-453796 1026 L-453258 1026 L-452601 1026 L-451363 1026 L-450802 1026 L-449621 1026 L-448383 1026 L-448345 1026 L-447958 1026 L-447416 1026 L-446642 1026 L-445520 1026 L-443431 1026 L-443098 1025 L-442812 1025 L-441883 1025 L-441400 1025 L-440665 1025 L-437033 1025 L-435906 1025 L-435751 1025 L-434725 1025 L-431010 1025 L-429793 1025 L-427975 1025 L-425189 1025 L-424627 1024 L-420740 1024 L-418263 1024 L-416928 1024 L-416425 1024 L-415942 1024 L-413252 1024 L-409481 1024 L-407023 1024 L-405844 1024 L-405204 1024 L-402845 1024 L-402767 1024 L-401720 1024 L-401626 1024 L-401124 1024 L-400678 1024 L-400620 1024 L-400407 1024 L-397447 1024 L-394740 1024 L-394585 1024 L-391064 1024 L-390541 1024 L-389574 1023 L-389225 1023 L-388181 1023 L-387252 1023 L-386827 1023 L-385318 1023 L-384351 1023 L-384332 1023 L-382436 1019 L-382320 1015 L-382272 1011 L-382248 1007 L-379243 1007 L-377213 1007 L-375452 1007 L-375085 1007 L-374639 1007 L-374272 1007 L-373858 1007 L-371873 1007 L-371660 1007 L-371505 1007 L-369900 1007 L-368778 1007 L-367830 1007 L-366573 1006 L-364928 1006 L-363749 1006 L-357159 1006 L-357112 1006 L-356707 1006 L-355662 1006 L-355526 1006 L-353844 1006 L-353824 1006 L-352487 1006 L-351251 1006 L-351097 1006 L-350723 1006 L-350516 1005 L-350207 1005 L-349433 1005 L-347112 1005 L-346454 1005 L-344326 1005 L-342603 1005 L-342410 1005 L-339857 1005 L-339580 1005 L-339392 1005 L-338560 1005 L-337787 1005 L-337089 1005 L-332089 1005 L-331713 1004 L-327460 1004 L-326973 1010 L-326953 1010 L-326875 1010 L-326799 1010 L-326779 1004 L-325967 1004 L-325213 1004 L-323994 1004 L-322562 1004 L-322466 1004 L-322291 1004 L-321937 1004 L-320627 1004 L-318770 1004 L-317068 1004 L-316565 1004 L-316300 1003 L-315907 1003 L-315772 1003 L-314862 1003 L-314486 1003 L-313558 1003 L-313219 1003 L-313179 1003 L-313141 1003 L-311226 1003 L-311052 1003 L-309523 1003 L-309195 1003 L-309079 1003 L-308672 1003 L-308324 1003 L-306680 1003 L-306129 1003 L-305886 1003 L-305345 1003 L-304513 1002 L-303972 1002 L-302437 1002 L-302345 1002 L-302308 1002 L-302172 1002 L-301785 1002 L-300760 1002 L-298884 1002 L-298787 1002 L-298187 1004 L-297820 1005 L-297335 1007 L-297297 1009 L-296523 1009 L-296466 1009 L-296291 1009 L-296098 1009 L-294492 1009 L-294473 1009 L-294317 1009 L-294202 1009 L-293022 1009 L-292868 1009 L-292201 1009 L-289752 1014 L-287238 1018 L-284568 1022 L-276869 1027 L-271201 1027 L-268986 1027 L-268963 1027 L-267989 1028 L-267969 1028 L-267106 1028 L-264365 1028 L-258567 1026 L-258413 1026 L-255627 1026 L-242019 1026 L-241273 1026 L-236863 1026 L-220516 1026 L-220284 1026 L-219747 1026 L-211288 1026 L-202582 1026 L-202370 1026 L-200397 1026 L-197611 1026 L-193124 1026 L-192969 1026 L-192800 1026 L-192659 1025 L-192369 1025 L-192330 1025 L-192059 1025 L-191887 1025 L-191477 1025 L-190357 1025 L-189176 1025 L-187900 1025 L-185036 1025 L-182116 1025 L-180124 1025 L-178576 1025 L-175538 1025 L-166213 1025 L-165689 1025 L-159966 1025 L-158459 1025 L-157644 1025 L-155960 1024 L-155239 1024 L-155071 1024 L-154026 1024 L-151959 1024 L-150596 1024 L-146153 1024 L-146056 1024 L-146017 1024 L-145998 1024 L-145166 1024 L-145088 1024 L-142516 1024 L-139266 1024 L-139112 1024 L-138163 1024 L-136422 1023 L-135707 1024 L-132166 1024 L-125589 1024 L-124171 1025 L-124151 1025 L-123200 1025 L-119726 1025 L-118973 1025 L-118411 1024 L-117629 1024 L-110125 1024 L-108526 1024 L-106952 1024 L-103767 1024 L-99434 1024 L-90864 1024 L-82118 1024 L-79044 1024 L-75778 1024 L-75231 1024 L-68094 1024 L-62427 1024 L-48362 1024 L-42351 1024 L-37645 1024 L-33641 1024 L-28534 1024 L-18820 1024 L-3249 1024 L-166 1023 L135 999 L154 970 L173 936 L193 899 L213 882 L232 868 L251 854 L278 841 L299 829 L327 815 L362 800 L376 788 L389 777 L407 768 L426 761 L446 755 L464 748 L484 741 L503 734 L525 727 L541 720 L560 714 L581 707 L601 700 L619 693 L638 686 L657 678 L678 671 L696 664 L715 657 L736 651 L761 644 L776 638 L793 632 L812 626 L832 620 L851 613 L870 606 L890 600 L910 594 L928 588 L947 583 L968 578 L988 573 L1005 569 L1024 564 L1044 560 L1063 557 L1083 553 L1102 549 L1122 546 L1141 544 L1160 541 L1179 538 L1206 534 L1227 531 L1255 527 L1289 522 L1303 518 L1317 515 L1335 512 L1354 509 L1374 506 L1392 503 L1412 500 L1432 497 L1452 494 L1470 492 L1489 489 L1509 486 L1529 482 L1547 479 L1566 475 L1586 471 L1606 466 L1625 462 L1643 458 L1665 453 L1689 448 L1704 443 L1721 438 L1741 433 L1760 428 L1779 423 L1798 418 L1818 413 L1839 408 L1857 403 L1876 398 L1896 393 L1916 389 L1934 385 L1953 381 L1973 377 L1992 373 L2011 370 L2030 366 L2050 363 L2069 359 L2089 356 L2108 352 L2137 349 L2156 345 L2184 342 L2221 338 L2236 334 L2249 331 L2266 327 L2283 325 L2303 323 L2321 320 L2340 318 L2360 317 L2381 314 L2398 312 L2417 310 L2438 307 L2457 305 L2476 302 L2495 299 L2515 296 L2534 293 L2553 290 L2572 287 L2593 284 L2617 281 L2632 278 L2649 274 L2669 271 L2688 268 L2708 265 L2727 261 L2747 258 L2767 255 L2785 252 L2804 249 L2824 246 L2845 243 L2862 240 L2882 238 L2901 235 L2920 232 L2940 230 L2959 227 L2979 225 L2998 222 L3017 220 L3036 217 L3064 215 L3085 212 L3113 209 L3149 205 L3163 202 L3176 198 L3194 195 L3212 193 L3231 191 L3250 189 L3270 186 L3289 183 L3311 180 L3329 177 L3346 174 L3367 171 L3387 167 L3405 163 L3424 159 L3444 155 L3464 151 L3482 148 L3501 145 L3522 142 L3547 140 L3561 139 L3579 137 L3598 135 L3618 133 L3637 130 L3656 128 L3676 126 L3696 125 L3714 123 L3733 121 L3753 119 L3774 116 L3791 114 L3810 112 L3830 110 L3849 109 L3869 108 L3887 107 L3907 105 L3927 104 L3946 102 L3965 101 L3992 100 L4013 98 L4041 97 L4076 95 L4089 94 L4103 92 L4122 91 L4140 90 L4160 89 L4178 88 L4198 87 L4218 86 L4239 85 L4256 84 L4274 83 L4295 82 L4315 80 L4333 79 L4352 78 L4372 77 L4392 76 L4410 75 L4429 74 L4450 73 L4475 72 L4490 71 L4507 70 L4527 69 L4546 68 L4565 67 L4584 66 L4604 65 L4625 64 L4642 63 L4661 62 L4682 61 L4702 60 L4720 59 L4739 58 L4759 57 L4777 56 L4797 55 L4816 55 L4836 54 L4855 53 L4875 53 L4893 54 L4922 55 L4942 56 L4970 57 L5007 56 L5022 55 L5035 54 L5053 54 L5069 53 L5089 53 L5107 52 L5127 52 L5146 51 L5168 50 L5184 50 L5203 49 L5224 49 L5244 48 L5262 48 L5281 47 L5300 46 L5321 46 L5339 45 L5358 45 L5379 44 L5404 44 L5418 43 L5436 42 L5455 42 L5474 41 L5494 40 L5513 40 L5533 39 L5553 38 L5571 37 L5590 36 L5610 36 L5631 35 L5648 34 L5667 33 L5687 33 L5706 32 L5726 31 L5745 30 L5765 30 L5784 29 L5803 28 L5822 28 L5850 27 L5870 26 L5898 26 L5933 25 L5947 24 L5960 23 L5979 23 L5997 22 L6017 21 L6036 21 L6055 20 L6075 19 L6096 19 L6113 18 L6132 18 L6152 17 L6172 16 L6190 15 L6209 14 L6229 13 L6249 12 L6267 11 L6286 10 L6308 9 L6333 8 L6347 7 L6364 6 L6384 6 L6403 5 L6422 4 L6441 3 L6461 2 L6482 1 L6500 0" />
</svg>
