<svg xmlns="http://www.w3.org/2000/svg" version="1.1" viewBox="0 0 6500 1000">
	<path fill="none" stroke="gold" stroke-width="125" stroke-linecap="round" stroke-linejoin="round" d="M0 77678  L-349340 77678 L-346736 77552 L-345068 77427 L-326739 77175 L-326568 76924 L-319411 76673 L-319377 76673 L-305947 76547 L-303025 76673 L-289684 76296 L-285515 75793 L-284355 75165 L-283736 74537 L-281724 74160 L-277952 73909 L-277352 73658 L-277023 73407 L-276810 73155 L-276268 72904 L-275030 71899 L-273852 70894 L-270987 69889 L-270465 68884 L-265609 68633 L-262672 68381 L-262629 68130 L-262321 67879 L-262069 67628 L-259474 67376 L-255219 67376 L-255201 67376 L-253964 67376 L-252086 67376 L-250133 67125 L-249185 66874 L-248914 66623 L-248604 66497 L-248506 66371 L-247676 66371 L-245645 66497 L-245355 65366 L-243208 64864 L-243053 64110 L-239396 63356 L-239145 63733 L-239047 63608 L-238530 63984 L-236378 64613 L-235450 65241 L-233924 65869 L-232684 65869 L-231138 65743 L-228176 65492 L-227054 65241 L-226745 64989 L-225534 64864 L-222527 66246 L-222507 66120 L-222160 65994 L-221947 65869 L-221821 64110 L-221579 63859 L-221541 63608 L-221521 63356 L-221502 63105 L-221443 62854 L-221385 62603 L-221367 62351 L-220923 62100 L-219684 61849 L-218138 61597 L-214751 61346 L-209024 61221 L-208823 61095 L-207187 60969 L-205465 60844 L-204033 60718 L-203801 60592 L-203085 60467 L-196953 60341 L-196585 60090 L-196431 59839 L-195853 59587 L-195560 59336 L-194593 59085 L-194283 58834 L-193684 58582 L-192078 58582 L-191343 58582 L-191033 58708 L-190265 58708 L-188229 58457 L-187803 58206 L-186991 58080 L-179562 57829 L-179039 57577 L-178866 57326 L-178130 57075 L-176563 56824 L-176157 56698 L-173932 56447 L-172984 56321 L-172559 56195 L-172229 56195 L-171185 56070 L-169077 55819 L-168825 55567 L-168206 55316 L-167393 55190 L-165285 54939 L-165237 54688 L-163309 54437 L-162983 54185 L-162848 53934 L-162345 53809 L-160932 53557 L-160429 53055 L-159907 52678 L-156348 52175 L-155613 51673 L-153188 51673 L-151898 51422 L-151491 51296 L-148339 51296 L-148184 51296 L-148164 51422 L-147797 51422 L-146539 51547 L-145824 51673 L-144934 51673 L-144527 51673 L-143599 51673 L-142490 51547 L-142187 52050 L-135938 52301 L-134991 52552 L-133364 52804 L-132863 52929 L-129187 53055 L-128354 53180 L-124401 53306 L-122990 52929 L-120500 52678 L-119824 52427 L-119785 52301 L-118914 52301 L-115703 52175 L-112840 52050 L-111872 51924 L-110750 51673 L-110732 51422 L-109107 51170 L-108642 50793 L-108550 50668 L-102181 50542 L-101233 50417 L-98776 50291 L-97903 50040 L-96667 49914 L-94666 49788 L-94268 49537 L-92832 49286 L-90806 49160 L-90593 48909 L-89413 48783 L-87904 48658 L-87884 48532 L-85872 48407 L-85002 48155 L-84131 48030 L-83547 47778 L-83009 47527 L-82352 47276 L-81114 47025 L-80553 46899 L-79372 46773 L-78134 46648 L-78096 46522 L-77709 46396 L-77167 46145 L-76393 46020 L-75271 45894 L-73182 45643 L-72849 45391 L-72563 45140 L-71634 45015 L-71151 44763 L-70416 44638 L-66784 44512 L-65657 44386 L-65502 44261 L-64476 44010 L-60761 43884 L-59544 43633 L-57726 43381 L-54940 43256 L-54378 43005 L-50491 43005 L-48014 42879 L-46679 42879 L-46176 42753 L-45693 42628 L-43003 42628 L-39232 42628 L-36774 42628 L-35595 42628 L-34955 42502 L-32596 42251 L-32518 42125 L-31471 42000 L-31377 41748 L-30875 41748 L-30429 41748 L-30371 41748 L-30158 41748 L-27198 41497 L-24491 41371 L-24336 41246 L-20815 41120 L-20292 40869 L-19325 40618 L-18976 40492 L-17932 40241 L-17003 39989 L-16578 39864 L-15069 39864 L-14102 39738 L-14083 39613 L-12187 30442 L-12071 21020 L-12023 11723 L-11999 2427 L-8994 2301 L-6964 2050 L-5203 1924 L-4836 1798 L-4390 1547 L-4023 1422 L-3609 1170 L-1624 1045 L-1411 1045 L-1256 919 L348 919 L1470 793 L2418 668 L3675 417 L5320 291 L6500 40" />
</svg>
