<svg xmlns="http://www.w3.org/2000/svg" version="1.1" viewBox="0 0 6500 1000">
	<path fill="none" stroke="gold" stroke-width="125" stroke-linecap="round" stroke-linejoin="round" d="M0 105818  L-520429 105818 L-517825 105407 L-516157 104995 L-497828 104172 L-497658 103349 L-490500 102526 L-490467 102526 L-477036 102115 L-474114 102526 L-460773 101292 L-456604 99646 L-455444 97588 L-454825 95530 L-452813 94296 L-449041 93473 L-448441 92650 L-448112 91827 L-447899 91004 L-447358 90181 L-446120 86888 L-444941 83596 L-442076 80304 L-441554 77012 L-436699 76189 L-433761 75366 L-433718 74543 L-433410 73720 L-433158 72897 L-430563 72074 L-426308 72074 L-426290 72074 L-425053 72074 L-423176 72074 L-421222 71251 L-420274 70427 L-420003 69604 L-419693 69193 L-419595 68781 L-418765 68781 L-416734 69193 L-416444 65489 L-414297 63843 L-414142 61374 L-410486 58905 L-410235 60139 L-410136 59728 L-409619 60962 L-407468 63020 L-406539 65078 L-405013 67135 L-403773 67135 L-402227 66724 L-399265 65901 L-398143 65078 L-397834 64255 L-396623 63843 L-393616 68370 L-393596 67958 L-393249 67547 L-393036 67135 L-392910 61374 L-392668 60551 L-392630 59728 L-392611 58905 L-392591 58082 L-392532 57259 L-392474 56436 L-392456 55613 L-392013 54790 L-390773 53967 L-389228 53144 L-385840 52320 L-380114 51909 L-379912 51497 L-378276 51086 L-376554 50674 L-375122 50263 L-374890 49851 L-374175 49440 L-368042 49028 L-367675 48205 L-367520 47382 L-366942 46559 L-366649 45736 L-365682 44913 L-365372 44090 L-364773 43267 L-363167 43267 L-362432 43267 L-362122 43679 L-361354 43679 L-359318 42855 L-358892 42032 L-358080 41621 L-350651 40798 L-350128 39975 L-349955 39152 L-349220 38329 L-347652 37506 L-347246 37094 L-345021 36271 L-344073 35860 L-343648 35448 L-343318 35448 L-342274 35037 L-340166 34213 L-339914 33390 L-339295 32567 L-338482 32156 L-336375 31333 L-336326 30510 L-334398 29687 L-334072 28864 L-333937 28041 L-333434 27629 L-332021 26806 L-331518 25160 L-330997 23925 L-327437 22279 L-326702 20633 L-324277 20633 L-322988 19810 L-322581 19399 L-319428 19399 L-319273 19399 L-319253 19810 L-318886 19810 L-317628 20222 L-316913 20633 L-316023 20633 L-315616 20633 L-314688 20633 L-313579 20222 L-313276 21868 L-307027 22691 L-306080 23514 L-304454 24337 L-303952 24748 L-300276 25160 L-299444 25572 L-295491 25983 L-294079 24748 L-291590 23925 L-290913 23102 L-290874 22691 L-290003 22691 L-286792 22279 L-283929 21868 L-282961 21456 L-281840 20633 L-281821 19810 L-280196 18987 L-279732 17753 L-279640 17341 L-273270 16930 L-272322 16518 L-269865 16106 L-268993 15283 L-267757 14872 L-265755 14460 L-265358 13637 L-263921 12814 L-261895 12403 L-261682 11580 L-260502 11168 L-258993 10757 L-258973 10345 L-256961 9934 L-256092 9111 L-255221 8699 L-254636 7876 L-254099 7053 L-253441 6230 L-252203 5407 L-251642 4995 L-250461 4584 L-249224 4172 L-249185 3761 L-248798 3349 L-248256 2526 L-247483 2115 L-246360 1703 L-244271 880 L-243938 57 L-243652 -765 L-242724 -1176 L-242240 -2000 L-241505 -2411 L-237874 -2823 L-236746 -3234 L-236591 -3646 L-235565 -4469 L-231851 -4880 L-230633 -5703 L-228815 -6526 L-226029 -6938 L-225468 -7761 L-221580 -7761 L-219103 -8172 L-217768 -8172 L-217265 -8584 L-216782 -8995 L-214092 -8995 L-210321 -8995 L-207864 -8995 L-206684 -8995 L-206045 -9407 L-203685 -10230 L-203608 -10641 L-202560 -11053 L-202467 -11876 L-201964 -11876 L-201518 -11876 L-201461 -11876 L-201247 -11876 L-198287 -12699 L-195580 -13111 L-195425 -13522 L-191904 -13934 L-191381 -14757 L-190414 -15580 L-190065 -15991 L-189021 -16814 L-188093 -17637 L-187667 -18049 L-186158 -18049 L-185191 -18460 L-185172 -18872 L-183276 -48913 L-183160 -79777 L-183112 -110230 L-183088 -140683 L-180084 -141094 L-178053 -141917 L-176292 -142329 L-175925 -142740 L-175479 -143563 L-175113 -143975 L-174699 -144798 L-172714 -145209 L-172500 -145209 L-172346 -145621 L-170740 -145621 L-169619 -146032 L-168670 -146444 L-167413 -147267 L-165768 -147679 L-164589 -148502 L-157999 -148913 L-157953 -149325 L-157547 -149736 L-156502 -150148 L-156366 -150559 L-154684 -151382 L-154664 -151794 L-153327 -152617 L-152091 -153028 L-151937 -153440 L-151563 -154263 L-151357 -154674 L-151047 -155086 L-150273 -155909 L-147952 -156320 L-147294 -156732 L-145166 -157144 L-143444 -157555 L-143250 -158378 L-140697 -158790 L-140421 -159613 L-140232 -160436 L-139400 -160847 L-138627 -161259 L-137929 -161670 L-132929 -161670 L-132553 -162493 L-128300 -162905 L-127813 -122164 L-127794 -122164 L-127715 -122576 L-127639 -122987 L-127620 -164962 L-126807 -165374 L-126053 -166197 L-124834 -166609 L-123402 -166609 L-123306 -167020 L-123131 -167020 L-122777 -167843 L-121468 -168255 L-119610 -168666 L-117908 -169489 L-117405 -169901 L-117140 -170312 L-116747 -170724 L-116612 -171135 L-115703 -171547 L-115326 -171958 L-114398 -171958 L-114059 -172370 L-114019 -172370 L-113981 -172781 L-112066 -172781 L-111892 -173193 L-110364 -173193 L-110035 -173604 L-109919 -174016 L-109512 -174839 L-109164 -175251 L-107520 -176074 L-106969 -176485 L-106726 -176897 L-106185 -177308 L-105354 -178131 L-104812 -178543 L-103277 -179366 L-103185 -179777 L-103148 -180189 L-103012 -180600 L-102625 -181012 L-101600 -181423 L-99724 -181835 L-99627 -182246 L-99027 -169078 L-98660 -155086 L-98176 -140683 L-98137 -126691 L-97364 -125868 L-97306 -126279 L-97132 -127102 L-96938 -127514 L-95333 -128337 L-95313 -128748 L-95158 -127925 L-95042 -127514 L-93863 -127102 L-93708 -125868 L-93041 -125868 L-90593 -92123 L-88078 -57555 L-85408 -24222 L-77709 9111 L-72041 9111 L-69827 8699 L-69803 8699 L-68829 16930 L-68809 16930 L-67946 16106 L-65206 15695 L-59407 7053 L-59254 6230 L-56468 5818 L-42859 4995 L-42113 4584 L-37703 3761 L-21357 3349 L-21124 2526 L-20587 2115 L-12128 1703 L-3422 1292 L-3210 880 L-1237 469 L1548 469 L6035 880 L6190 469 L6359 469 L6500 57" />
</svg>
