<svg xmlns="http://www.w3.org/2000/svg" version="1.1" viewBox="0 0 6500 1000">
	<path fill="none" stroke="gold" stroke-width="125" stroke-linecap="round" stroke-linejoin="round" d="M0 1025  L-714946 1025 L-712342 1025 L-710674 1024 L-692345 1024 L-692175 1024 L-685017 1024 L-684984 1024 L-671553 1024 L-668631 1024 L-655290 1024 L-651121 1023 L-649961 1023 L-649342 1023 L-647330 1022 L-643558 1022 L-642958 1022 L-642629 1022 L-642416 1022 L-641875 1021 L-640637 1021 L-639458 1020 L-636593 1019 L-636071 1019 L-631216 1018 L-628278 1018 L-628235 1018 L-627927 1018 L-627675 1018 L-625080 1018 L-620825 1018 L-620807 1018 L-619570 1018 L-617693 1018 L-615739 1017 L-614791 1017 L-614520 1017 L-614210 1017 L-614112 1017 L-613282 1017 L-611251 1017 L-610961 1016 L-608814 1016 L-608659 1015 L-605003 1015 L-604752 1015 L-604653 1015 L-604136 1015 L-601985 1016 L-601056 1016 L-599530 1017 L-598290 1017 L-596744 1017 L-593782 1016 L-592660 1016 L-592351 1016 L-591140 1016 L-588133 1017 L-588114 1017 L-587766 1017 L-587553 1017 L-587427 1015 L-587185 1015 L-587147 1015 L-587128 1015 L-587108 1015 L-587049 1015 L-586991 1014 L-586973 1014 L-586530 1014 L-585290 1014 L-583745 1014 L-580357 1014 L-574631 1013 L-574429 1013 L-572793 1013 L-571071 1013 L-569639 1013 L-569407 1013 L-568692 1013 L-562559 1013 L-562192 1013 L-562037 1012 L-561459 1012 L-561166 1012 L-560199 1012 L-559889 1012 L-559290 1012 L-557684 1012 L-556949 1012 L-556639 1012 L-555871 1012 L-553835 1012 L-553409 1011 L-552597 1011 L-545168 1011 L-544645 1011 L-544472 1011 L-543737 1011 L-542169 1010 L-541763 1010 L-539538 1010 L-538590 1010 L-538165 1010 L-537835 1010 L-536791 1010 L-534683 1010 L-534431 1010 L-533812 1009 L-532999 1009 L-530892 1009 L-530843 1009 L-528915 1009 L-528589 1009 L-528454 1008 L-527951 1008 L-526538 1008 L-526035 1008 L-525514 1008 L-521954 1007 L-521219 1007 L-518794 1007 L-517505 1007 L-517098 1007 L-513945 1007 L-513790 1007 L-513770 1007 L-513403 1007 L-512145 1007 L-511430 1007 L-510540 1007 L-510133 1007 L-509205 1007 L-508096 1007 L-507793 1007 L-501544 1007 L-500597 1008 L-498971 1008 L-498469 1008 L-494793 1008 L-493961 1008 L-490008 1008 L-488596 1008 L-486107 1008 L-485430 1007 L-485391 1007 L-484520 1007 L-481309 1007 L-478446 1007 L-477478 1007 L-476357 1007 L-476338 1007 L-474713 1007 L-474249 1006 L-474157 1006 L-467787 1006 L-466839 1006 L-464382 1006 L-463510 1006 L-462274 1006 L-460272 1006 L-459875 1005 L-458438 1005 L-456412 1005 L-456199 1005 L-455019 1005 L-453510 1005 L-453490 1005 L-451478 1005 L-450609 1005 L-449738 1004 L-449153 1004 L-448616 1004 L-447958 1004 L-446720 1004 L-446159 1004 L-444978 1004 L-443741 1003 L-443702 1003 L-443315 1003 L-442773 1003 L-442000 1003 L-440877 1003 L-438788 1003 L-438455 1003 L-438169 1002 L-437241 1002 L-436757 1002 L-436022 1002 L-432391 1002 L-431263 1002 L-431108 1002 L-430082 1002 L-426368 1002 L-425150 1001 L-423332 1001 L-420546 1001 L-419985 1001 L-416097 1001 L-413620 1001 L-412285 1001 L-411782 1001 L-411299 1001 L-408610 1001 L-404838 1001 L-402381 1001 L-401201 1001 L-400562 1001 L-398202 1001 L-398125 1000 L-397077 1000 L-396984 1000 L-396481 1000 L-396035 1000 L-395978 1000 L-395764 1000 L-392804 1000 L-390097 1000 L-389942 1000 L-386421 1000 L-385898 1000 L-384931 999 L-384582 999 L-383538 999 L-382610 999 L-382184 999 L-380675 999 L-379708 999 L-379689 999 L-377793 992 L-377677 986 L-377629 980 L-377605 973 L-374601 973 L-372570 973 L-370809 973 L-370442 973 L-369996 973 L-369630 973 L-369216 972 L-367231 972 L-367017 972 L-366863 972 L-365257 972 L-364136 972 L-363187 972 L-361930 972 L-360285 972 L-359106 972 L-352516 972 L-352470 972 L-352064 971 L-351019 971 L-350883 971 L-349201 971 L-349181 971 L-347844 971 L-346608 971 L-346454 971 L-346080 971 L-345874 970 L-345564 970 L-344790 970 L-342469 970 L-341811 970 L-339683 970 L-337961 970 L-337767 970 L-335214 970 L-334938 969 L-334749 969 L-333917 969 L-333144 969 L-332446 969 L-327446 969 L-327070 969 L-322817 969 L-322330 977 L-322311 977 L-322232 977 L-322156 977 L-322137 968 L-321324 968 L-320570 968 L-319351 968 L-317919 968 L-317823 968 L-317648 968 L-317294 968 L-315985 968 L-314127 968 L-312425 967 L-311922 967 L-311657 967 L-311264 967 L-311130 967 L-310220 967 L-309843 967 L-308915 967 L-308576 967 L-308536 967 L-308498 967 L-306583 967 L-306409 967 L-304881 967 L-304552 966 L-304436 966 L-304029 966 L-303681 966 L-302037 966 L-301486 966 L-301243 966 L-300702 966 L-299871 966 L-299329 965 L-297794 965 L-297702 965 L-297665 965 L-297529 965 L-297142 965 L-296117 965 L-294241 965 L-294144 965 L-293544 967 L-293177 970 L-292693 973 L-292654 976 L-291881 976 L-291823 976 L-291649 976 L-291455 976 L-289850 976 L-289830 976 L-289675 976 L-289559 976 L-288380 976 L-288225 976 L-287558 976 L-285110 983 L-282595 991 L-279925 998 L-272226 1005 L-266558 1005 L-264344 1004 L-264320 1004 L-263346 1006 L-263326 1006 L-262463 1006 L-259723 1006 L-253924 1004 L-253771 1004 L-250985 1004 L-237376 1004 L-236630 1004 L-232220 1003 L-215874 1003 L-215641 1003 L-215104 1003 L-206645 1003 L-197939 1003 L-197727 1003 L-195754 1003 L-192968 1003 L-188481 1003 L-188326 1003 L-188157 1003 L-188017 1003 L-187726 1002 L-187687 1002 L-187416 1002 L-187245 1002 L-186835 1002 L-185714 1002 L-184534 1002 L-183257 1002 L-180393 1002 L-177473 1002 L-175481 1002 L-173933 1001 L-170895 1001 L-161571 1001 L-161047 1001 L-155323 1001 L-153816 1001 L-153001 1001 L-151318 1001 L-150597 1001 L-150428 1001 L-149383 1001 L-147316 1001 L-145954 1001 L-141510 1000 L-141413 1000 L-141375 1000 L-141356 1000 L-140523 1000 L-140445 1000 L-137873 1000 L-134624 1000 L-134469 1000 L-133520 1000 L-131779 999 L-131064 1000 L-127523 1000 L-120946 1001 L-119529 1002 L-119508 1001 L-118557 1001 L-115083 1001 L-114330 1001 L-113768 1001 L-112986 1001 L-105482 1001 L-103884 1001 L-102310 1001 L-99124 1001 L-94791 1001 L-86221 1000 L-77475 1000 L-74401 1000 L-71135 1000 L-70589 1000 L-63451 1000 L-57784 1000 L-43719 1000 L-37708 1000 L-33002 1000 L-28998 1000 L-23891 1000 L-14177 1000 L1393 999 L4475 999 L4778 961 L4797 913 L4816 859 L4836 799 L4855 772 L4875 748 L4893 727 L4921 706 L4942 686 L4970 664 L5005 640 L5019 620 L5032 603 L5050 588 L5069 578 L5089 567 L5107 556 L5126 545 L5146 534 L5167 523 L5184 511 L5203 501 L5223 490 L5243 479 L5262 468 L5281 456 L5300 444 L5320 432 L5339 421 L5358 410 L5379 399 L5404 389 L5418 379 L5436 369 L5455 359 L5475 349 L5494 339 L5513 328 L5533 318 L5553 308 L5571 299 L5590 290 L5610 282 L5631 274 L5648 267 L5667 260 L5687 254 L5706 248 L5726 242 L5745 236 L5764 231 L5784 227 L5803 222 L5822 218 L5849 212 L5870 206 L5898 199 L5932 192 L5946 186 L5959 181 L5978 176 L5997 172 L6017 167 L6035 162 L6055 157 L6075 152 L6095 147 L6113 143 L6131 138 L6152 134 L6171 128 L6190 122 L6209 116 L6229 109 L6249 102 L6267 96 L6286 89 L6307 81 L6332 73 L6346 64 L6364 56 L6383 49 L6403 41 L6422 33 L6441 24 L6461 16 L6481 8 L6500 0" />
</svg>
