<svg xmlns="http://www.w3.org/2000/svg" version="1.1" viewBox="0 0 6500 1000">
	<path fill="none" stroke="gold" stroke-width="125" stroke-linecap="round" stroke-linejoin="round" d="M0 11207  L-730461 11207 L-727857 11206 L-726189 11206 L-707860 11205 L-707690 11204 L-700532 11203 L-700499 11203 L-687068 11202 L-684146 11203 L-670805 11201 L-666636 11200 L-665476 11197 L-664857 11195 L-662845 11193 L-659073 11192 L-658473 11192 L-658144 11191 L-657931 11190 L-657390 11189 L-656152 11185 L-654973 11181 L-652108 11177 L-651586 11174 L-646731 11173 L-643793 11172 L-643750 11171 L-643442 11170 L-643190 11169 L-640595 11168 L-636340 11168 L-636322 11168 L-635085 11168 L-633208 11168 L-631254 11167 L-630306 11166 L-630035 11165 L-629725 11165 L-629627 11164 L-628797 11164 L-626766 11165 L-626476 11160 L-624329 11158 L-624174 11156 L-620518 11153 L-620267 11154 L-620168 11154 L-619651 11155 L-617500 11157 L-616571 11160 L-615045 11162 L-613805 11162 L-612259 11162 L-609297 11161 L-608175 11160 L-607866 11159 L-606655 11158 L-603648 11164 L-603629 11163 L-603281 11163 L-603068 11162 L-602942 11156 L-602700 11155 L-602662 11154 L-602643 11153 L-602623 11152 L-602564 11151 L-602506 11150 L-602488 11149 L-602045 11148 L-600805 11147 L-599260 11146 L-595872 11145 L-590146 11145 L-589944 11144 L-588308 11144 L-586586 11143 L-585154 11143 L-584922 11142 L-584207 11142 L-578074 11141 L-577707 11140 L-577552 11140 L-576974 11139 L-576681 11138 L-575714 11137 L-575404 11136 L-574805 11135 L-573199 11135 L-572464 11135 L-572154 11135 L-571386 11135 L-569350 11134 L-568924 11133 L-568112 11133 L-560683 11132 L-560160 11131 L-559987 11130 L-559252 11129 L-557684 11128 L-557278 11128 L-555053 11127 L-554105 11126 L-553680 11126 L-553350 11126 L-552306 11125 L-550198 11124 L-549946 11123 L-549327 11123 L-548514 11122 L-546407 11121 L-546358 11120 L-544430 11119 L-544104 11118 L-543969 11117 L-543466 11117 L-542053 11116 L-541550 11114 L-541029 11113 L-537469 11111 L-536734 11109 L-534309 11109 L-533020 11108 L-532613 11107 L-529460 11107 L-529305 11107 L-529285 11108 L-528918 11108 L-527660 11108 L-526945 11109 L-526055 11109 L-525648 11109 L-524720 11109 L-523611 11108 L-523308 11110 L-517059 11111 L-516112 11112 L-514486 11113 L-513984 11114 L-510308 11114 L-509476 11114 L-505523 11115 L-504111 11114 L-501622 11113 L-500945 11112 L-500906 11111 L-500035 11111 L-496824 11111 L-493961 11110 L-492993 11110 L-491872 11109 L-491853 11108 L-490228 11107 L-489764 11106 L-489672 11105 L-483302 11105 L-482354 11104 L-479897 11104 L-479025 11103 L-477789 11102 L-475787 11102 L-475390 11101 L-473953 11100 L-471927 11099 L-471714 11098 L-470534 11098 L-469025 11097 L-469005 11097 L-466993 11097 L-466124 11096 L-465253 11095 L-464668 11094 L-464131 11093 L-463473 11092 L-462235 11091 L-461674 11091 L-460493 11090 L-459256 11090 L-459217 11089 L-458830 11089 L-458288 11088 L-457515 11088 L-456392 11087 L-454303 11086 L-453970 11085 L-453684 11084 L-452756 11084 L-452272 11083 L-451537 11082 L-447906 11082 L-446778 11081 L-446623 11081 L-445597 11080 L-441883 11080 L-440665 11079 L-438847 11078 L-436061 11077 L-435500 11076 L-431612 11076 L-429135 11076 L-427800 11076 L-427297 11075 L-426814 11075 L-424125 11075 L-420353 11075 L-417896 11075 L-416716 11075 L-416077 11074 L-413717 11073 L-413640 11073 L-412592 11072 L-412499 11071 L-411996 11071 L-411550 11071 L-411493 11071 L-411279 11071 L-408319 11071 L-405612 11070 L-405457 11070 L-401936 11069 L-401413 11068 L-400446 11067 L-400097 11067 L-399053 11066 L-398125 11065 L-397699 11064 L-396190 11064 L-395223 11064 L-395204 11063 L-393308 11029 L-393192 10993 L-393144 10958 L-393120 10924 L-390116 10923 L-388085 10922 L-386324 10922 L-385957 10921 L-385511 10920 L-385145 10920 L-384731 10919 L-382746 10918 L-382532 10918 L-382378 10918 L-380772 10918 L-379651 10917 L-378702 10917 L-377445 10916 L-375800 10915 L-374621 10915 L-368031 10914 L-367985 10914 L-367579 10913 L-366534 10913 L-366398 10912 L-364716 10911 L-364696 10911 L-363359 10910 L-362123 10909 L-361969 10909 L-361595 10908 L-361389 10907 L-361079 10907 L-360305 10906 L-357984 10906 L-357326 10905 L-355198 10905 L-353476 10904 L-353282 10903 L-350729 10903 L-350453 10902 L-350264 10901 L-349432 10900 L-348659 10900 L-347961 10899 L-342961 10899 L-342585 10898 L-338332 10898 L-337845 10945 L-337826 10945 L-337747 10944 L-337671 10944 L-337652 10896 L-336839 10895 L-336085 10894 L-334866 10894 L-333434 10894 L-333338 10893 L-333163 10893 L-332809 10892 L-331500 10892 L-329642 10891 L-327940 10890 L-327437 10890 L-327172 10889 L-326779 10889 L-326645 10889 L-325735 10888 L-325358 10888 L-324430 10888 L-324091 10887 L-324051 10887 L-324013 10887 L-322098 10887 L-321924 10886 L-320396 10886 L-320067 10886 L-319951 10885 L-319544 10884 L-319196 10884 L-317552 10883 L-317001 10882 L-316758 10882 L-316217 10881 L-315386 10880 L-314844 10880 L-313309 10879 L-313217 10879 L-313180 10878 L-313044 10878 L-312657 10877 L-311632 10877 L-309756 10876 L-309659 10876 L-309059 10891 L-308692 10907 L-308208 10924 L-308169 10940 L-307396 10941 L-307338 10940 L-307164 10939 L-306970 10939 L-305365 10938 L-305345 10937 L-305190 10938 L-305074 10939 L-303895 10939 L-303740 10941 L-303073 10941 L-300625 10979 L-298110 11019 L-295440 11057 L-287741 11096 L-282073 11096 L-279859 11095 L-279835 11095 L-278861 11105 L-278841 11105 L-277978 11104 L-275238 11103 L-269439 11093 L-269286 11092 L-266500 11092 L-252891 11091 L-252145 11090 L-247735 11089 L-231389 11089 L-231156 11088 L-230619 11088 L-222160 11087 L-213454 11087 L-213242 11086 L-211269 11086 L-208483 11086 L-203996 11086 L-203841 11086 L-203672 11086 L-203532 11085 L-203241 11084 L-203202 11084 L-202931 11083 L-202760 11083 L-202350 11082 L-201229 11082 L-200049 11081 L-198772 11081 L-195908 11080 L-192988 11080 L-190996 11080 L-189448 11079 L-186410 11078 L-177086 11078 L-176562 11077 L-170838 11077 L-169331 11077 L-168516 11077 L-166833 11076 L-166112 11075 L-165943 11075 L-164898 11074 L-162831 11074 L-161469 11073 L-157025 11073 L-156928 11072 L-156890 11072 L-156871 11071 L-156038 11071 L-155960 11070 L-153388 11070 L-150139 11069 L-149984 11069 L-149035 11068 L-147294 11067 L-146579 11070 L-143038 11072 L-136461 11075 L-135044 11079 L-135023 11079 L-134072 11078 L-130598 11078 L-129845 11077 L-129283 11076 L-128501 11076 L-120997 11075 L-119399 11075 L-117825 11074 L-114639 11074 L-110306 11073 L-101736 11073 L-92990 11073 L-89916 11072 L-86650 11071 L-86104 11071 L-78966 11071 L-73299 11071 L-59234 11071 L-53223 11071 L-48517 11071 L-44513 11070 L-39406 11069 L-29692 11069 L-14121 11068 L-11039 11067 L-10736 10854 L-10717 10592 L-10698 10294 L-10678 9962 L-10659 9810 L-10639 9682 L-10621 9565 L-10593 9449 L-10572 9336 L-10544 9217 L-10509 9086 L-10495 8975 L-10482 8879 L-10464 8799 L-10445 8741 L-10425 8681 L-10407 8621 L-10388 8560 L-10368 8500 L-10347 8437 L-10330 8375 L-10311 8315 L-10291 8257 L-10271 8199 L-10252 8136 L-10233 8071 L-10214 8003 L-10194 7938 L-10175 7875 L-10156 7815 L-10135 7757 L-10110 7699 L-10096 7644 L-10078 7590 L-10059 7535 L-10039 7481 L-10020 7423 L-10001 7364 L-9981 7307 L-9961 7254 L-9943 7202 L-9924 7154 L-9904 7108 L-9883 7064 L-9866 7027 L-9847 6990 L-9827 6954 L-9808 6920 L-9788 6887 L-9769 6857 L-9750 6831 L-9730 6806 L-9711 6780 L-9692 6755 L-9665 6724 L-9644 6690 L-9616 6654 L-9582 6613 L-9568 6579 L-9555 6550 L-9536 6523 L-9517 6500 L-9497 6476 L-9479 6448 L-9459 6421 L-9439 6393 L-9419 6367 L-9401 6344 L-9383 6318 L-9362 6292 L-9343 6263 L-9324 6229 L-9305 6193 L-9285 6157 L-9265 6119 L-9247 6082 L-9228 6043 L-9207 6000 L-9182 5954 L-9168 5908 L-9150 5865 L-9131 5822 L-9111 5779 L-9092 5734 L-9073 5687 L-9053 5642 L-9033 5597 L-9014 5554 L-8996 5512 L-8975 5472 L-8955 5431 L-8937 5393 L-8918 5359 L-8898 5323 L-8880 5293 L-8860 5261 L-8841 5229 L-8821 5199 L-8802 5167 L-8782 5135 L-8764 5105 L-8735 5073 L-8715 5045 L-8687 5015 L-8650 4979 L-8635 4945 L-8622 4913 L-8605 4884 L-8588 4862 L-8569 4842 L-8550 4823 L-8531 4806 L-8511 4789 L-8490 4770 L-8473 4751 L-8454 4729 L-8434 4708 L-8414 4685 L-8395 4661 L-8377 4636 L-8357 4609 L-8337 4581 L-8318 4552 L-8299 4525 L-8278 4498 L-8254 4469 L-8239 4442 L-8222 4414 L-8202 4386 L-8183 4359 L-8163 4329 L-8144 4299 L-8124 4269 L-8104 4240 L-8086 4211 L-8067 4185 L-8047 4159 L-8027 4135 L-8009 4112 L-7990 4088 L-7970 4064 L-7951 4041 L-7931 4016 L-7912 3994 L-7892 3972 L-7873 3950 L-7854 3929 L-7835 3906 L-7807 3884 L-7787 3862 L-7759 3836 L-7722 3801 L-7708 3768 L-7695 3738 L-7678 3711 L-7660 3694 L-7640 3676 L-7621 3653 L-7601 3631 L-7582 3606 L-7561 3580 L-7542 3552 L-7525 3523 L-7505 3492 L-7485 3460 L-7466 3426 L-7448 3390 L-7428 3354 L-7407 3321 L-7390 3289 L-7371 3263 L-7349 3243 L-7324 3225 L-7310 3209 L-7292 3192 L-7273 3174 L-7254 3155 L-7235 3136 L-7216 3117 L-7196 3100 L-7175 3086 L-7157 3072 L-7138 3056 L-7118 3035 L-7097 3011 L-7080 2989 L-7061 2971 L-7041 2957 L-7022 2946 L-7003 2935 L-6984 2924 L-6964 2913 L-6944 2899 L-6925 2886 L-6906 2874 L-6879 2862 L-6858 2851 L-6830 2838 L-6795 2822 L-6782 2809 L-6768 2797 L-6750 2787 L-6731 2778 L-6711 2769 L-6693 2759 L-6673 2750 L-6653 2742 L-6632 2733 L-6615 2724 L-6597 2714 L-6576 2703 L-6556 2692 L-6538 2681 L-6519 2671 L-6499 2662 L-6479 2653 L-6461 2644 L-6442 2635 L-6421 2626 L-6396 2618 L-6381 2609 L-6364 2602 L-6345 2593 L-6325 2584 L-6306 2575 L-6287 2564 L-6267 2553 L-6246 2544 L-6229 2535 L-6210 2526 L-6189 2517 L-6169 2509 L-6151 2501 L-6133 2492 L-6112 2484 L-6094 2476 L-6074 2469 L-6055 2463 L-6035 2457 L-6016 2451 L-5997 2445 L-5978 2456 L-5949 2465 L-5929 2474 L-5901 2483 L-5864 2474 L-5849 2468 L-5836 2461 L-5819 2456 L-5802 2452 L-5783 2447 L-5764 2441 L-5745 2435 L-5725 2430 L-5704 2426 L-5687 2421 L-5668 2416 L-5648 2411 L-5628 2405 L-5609 2400 L-5591 2394 L-5571 2388 L-5551 2383 L-5532 2378 L-5514 2373 L-5492 2369 L-5467 2364 L-5453 2359 L-5436 2353 L-5416 2347 L-5397 2342 L-5377 2337 L-5358 2331 L-5339 2324 L-5318 2316 L-5300 2308 L-5281 2301 L-5261 2294 L-5240 2288 L-5223 2281 L-5204 2274 L-5184 2268 L-5165 2262 L-5145 2254 L-5127 2247 L-5107 2240 L-5087 2233 L-5068 2229 L-5049 2223 L-5022 2217 L-5001 2211 L-4973 2204 L-4938 2197 L-4925 2190 L-4911 2184 L-4892 2178 L-4874 2173 L-4854 2168 L-4836 2162 L-4816 2156 L-4796 2150 L-4775 2145 L-4758 2139 L-4740 2133 L-4719 2127 L-4699 2119 L-4681 2111 L-4662 2102 L-4642 2093 L-4622 2084 L-4604 2076 L-4585 2068 L-4564 2060 L-4539 2051 L-4524 2043 L-4507 2034 L-4488 2026 L-4468 2018 L-4449 2010 L-4430 2001 L-4410 1993 L-4389 1985 L-4372 1978 L-4353 1970 L-4332 1963 L-4311 1956 L-4294 1950 L-4275 1944 L-4255 1939 L-4236 1934 L-4217 1929 L-4198 1924 L-4178 1920 L-4158 1916 L-4139 1912 L-4121 1908 L-4093 1903 L-4072 1899 L-4045 1894 L-4009 1885 L-3995 1877 L-3982 1869 L-3964 1861 L-3945 1856 L-3926 1851 L-3907 1845 L-3887 1841 L-3868 1835 L-3847 1830 L-3830 1824 L-3811 1817 L-3790 1811 L-3771 1805 L-3752 1798 L-3733 1791 L-3714 1784 L-3693 1777 L-3675 1771 L-3656 1766 L-3635 1761 L-3610 1756 L-3595 1751 L-3578 1745 L-3559 1739 L-3539 1733 L-3520 1726 L-3501 1719 L-3481 1710 L-3460 1700 L-3443 1692 L-3424 1684 L-3403 1677 L-3383 1671 L-3366 1666 L-3347 1661 L-3327 1658 L-3308 1654 L-3288 1650 L-3270 1645 L-3250 1641 L-3230 1636 L-3211 1633 L-3192 1629 L-3165 1625 L-3144 1621 L-3116 1617 L-3082 1613 L-3068 1609 L-3054 1606 L-3036 1602 L-3017 1599 L-2997 1596 L-2979 1592 L-2959 1590 L-2939 1587 L-2919 1584 L-2901 1581 L-2883 1578 L-2862 1574 L-2842 1570 L-2824 1567 L-2805 1564 L-2785 1561 L-2765 1558 L-2747 1556 L-2728 1554 L-2707 1552 L-2682 1548 L-2668 1545 L-2650 1541 L-2631 1538 L-2611 1535 L-2592 1532 L-2573 1529 L-2553 1525 L-2533 1519 L-2515 1513 L-2496 1506 L-2475 1499 L-2455 1493 L-2437 1489 L-2418 1485 L-2398 1480 L-2380 1476 L-2360 1471 L-2341 1466 L-2321 1463 L-2302 1459 L-2282 1456 L-2264 1453 L-2235 1450 L-2187 1447 L-2150 1444 L-2135 1440 L-2123 1436 L-2106 1434 L-2088 1432 L-2069 1431 L-2050 1428 L-2031 1426 L-2011 1423 L-1990 1420 L-1973 1418 L-1954 1417 L-1934 1415 L-1914 1412 L-1895 1409 L-1877 1406 L-1857 1403 L-1837 1400 L-1818 1397 L-1799 1392 L-1778 1388 L-1754 1383 L-1739 1377 L-1722 1372 L-1702 1367 L-1683 1363 L-1663 1358 L-1645 1354 L-1624 1349 L-1604 1345 L-1586 1340 L-1567 1335 L-1547 1332 L-1527 1328 L-1509 1325 L-1490 1322 L-1470 1318 L-1451 1315 L-1431 1312 L-1412 1308 L-1392 1305 L-1373 1301 L-1354 1298 L-1335 1294 L-1307 1291 L-1286 1287 L-1258 1282 L-1222 1275 L-1207 1267 L-1195 1261 L-1177 1255 L-1160 1251 L-1139 1247 L-1121 1245 L-1101 1242 L-1082 1240 L-1061 1237 L-1044 1233 L-1025 1229 L-1005 1224 L-984 1219 L-966 1213 L-947 1206 L-928 1199 L-907 1193 L-889 1187 L-871 1182 L-849 1177 L-824 1172 L-809 1167 L-792 1163 L-773 1159 L-753 1155 L-734 1151 L-716 1145 L-696 1140 L-674 1134 L-657 1130 L-638 1126 L-618 1122 L-597 1117 L-580 1114 L-561 1110 L-541 1106 L-522 1103 L-503 1099 L-484 1095 L-464 1092 L-444 1088 L-425 1086 L-406 1082 L-378 3590 L-358 3586 L-330 3582 L-294 3575 L-280 1060 L-267 1055 L-249 1051 L-231 1048 L-211 1046 L-193 1044 L-173 1041 L-153 1037 L-132 1031 L-115 1026 L-97 1021 L-76 1016 L-56 1010 L-38 1003 L-19 996 L0 989 L21 985 L38 980 L57 977 L78 972 L103 967 L118 960 L148 954 L188 946 L211 939 L240 930 L257 923 L270 917 L290 912 L310 909 L331 906 L347 902 L366 898 L387 895 L405 892 L425 890 L444 888 L464 886 L484 882 L502 879 L521 876 L549 873 L570 870 L598 866 L633 862 L646 858 L678 854 L696 851 L716 848 L735 846 L754 844 L774 841 L795 839 L812 836 L831 830 L851 821 L872 810 L889 797 L909 786 L928 777 L949 769 L967 762 L986 757 L1007 753 L1032 749 L1047 744 L1064 740 L1083 734 L1103 730 L1122 725 L1141 721 L1161 716 L1182 710 L1199 705 L1218 700 L1238 697 L1259 693 L1276 690 L1295 687 L1315 684 L1334 681 L1354 677 L1373 674 L1392 670 L1412 666 L1431 664 L1450 661 L1478 658 L1498 655 L1568 648 L1596 640 L1611 632 L1625 625 L1645 621 L1663 617 L1682 613 L1703 608 L1724 604 L1741 601 L1759 598 L1780 596 L1800 594 L1818 590 L1837 586 L1857 581 L1878 576 L1895 571 L1914 568 L1935 565 L1960 562 L1975 558 L1993 555 L2011 550 L2031 545 L2050 541 L2070 536 L2089 533 L2110 530 L2127 526 L2147 524 L2167 520 L2188 517 L2205 514 L2263 510 L2282 507 L2301 504 L2321 501 L2341 498 L2360 496 L2378 494 L2406 492 L2427 490 L2455 488 L2491 485 L2506 482 L2518 480 L2536 478 L2554 476 L2574 474 L2592 473 L2612 472 L2631 471 L2653 469 L2669 468 L2688 466 L2709 465 L2729 463 L2747 460 L2766 457 L2786 455 L2806 452 L2824 449 L2843 447 L2864 445 L2889 442 L2904 441 L2921 439 L2940 437 L2960 434 L2979 431 L2998 428 L3018 424 L3039 421 L3056 417 L3075 414 L3096 413 L3116 412 L3133 410 L3152 408 L3172 406 L3191 405 L3211 404 L3230 402 L3249 401 L3270 400 L3288 398 L3307 397 L3335 396 L3355 394 L3383 392 L3418 389 L3432 388 L3446 386 L3464 384 L3482 382 L3502 380 L3520 379 L3560 377 L3580 376 L3598 374 L3616 372 L3637 370 L3656 367 L3675 363 L3694 361 L3714 359 L3734 357 L3752 354 L3771 353 L3792 351 L3817 349 L3831 347 L3849 346 L3868 344 L3887 342 L3907 339 L3926 337 L3946 335 L3966 333 L3984 331 L4003 329 L4024 327 L4044 325 L4062 323 L4081 321 L4101 319 L4119 318 L4139 317 L4158 315 L4178 313 L4197 311 L4217 310 L4236 309 L4264 307 L4312 305 L4349 303 L4365 301 L4377 300 L4394 298 L4411 297 L4430 296 L4449 294 L4468 293 L4488 292 L4509 292 L4526 291 L4545 291 L4565 290 L4585 289 L4604 288 L4622 287 L4642 286 L4662 284 L4681 283 L4700 281 L4721 279 L4745 277 L4760 275 L4777 272 L4797 269 L4816 266 L4836 262 L4854 257 L4875 253 L4895 249 L4913 245 L4932 241 L4952 238 L4973 235 L4990 231 L5009 227 L5029 223 L5048 220 L5068 217 L5087 215 L5107 212 L5126 208 L5145 204 L5164 199 L5192 195 L5212 192 L5241 190 L5277 187 L5292 184 L5305 182 L5322 179 L5339 177 L5360 174 L5378 172 L5398 171 L5417 168 L5439 165 L5455 163 L5473 160 L5495 156 L5515 153 L5533 150 L5552 147 L5571 145 L5592 143 L5609 139 L5628 137 L5650 133 L5675 130 L5690 126 L5707 122 L5726 119 L5746 115 L5765 112 L5784 108 L5804 104 L5825 100 L5842 95 L5861 91 L5881 88 L5903 85 L5919 82 L5938 80 L5958 78 L5977 76 L5996 74 L6015 71 L6035 68 L6054 65 L6074 63 L6093 60 L6141 57 L6169 54 L6202 50 L6216 46 L6229 43 L6248 40 L6268 38 L6287 34 L6306 32 L6325 29 L6345 26 L6366 24 L6384 22 L6402 20 L6423 17 L6443 15 L6461 12 L6480 8 L6500 5" />
</svg>
