<svg xmlns="http://www.w3.org/2000/svg" version="1.1" viewBox="0 0 6500 1000">
	<path fill="none" stroke="gold" stroke-width="125" stroke-linecap="round" stroke-linejoin="round" d="M0 1019  L-716253 1019 L-713648 1018 L-711980 1018 L-693651 1018 L-693481 1018 L-686323 1018 L-686290 1018 L-672859 1018 L-669937 1018 L-656596 1018 L-652427 1018 L-651267 1017 L-650648 1017 L-648636 1017 L-644864 1017 L-644264 1016 L-643936 1016 L-643723 1016 L-643181 1016 L-641943 1016 L-640764 1015 L-637900 1014 L-637377 1014 L-632522 1014 L-629585 1014 L-629542 1014 L-629233 1013 L-628981 1013 L-626386 1013 L-622131 1013 L-622113 1013 L-620876 1013 L-618999 1013 L-617045 1013 L-616097 1013 L-615827 1013 L-615517 1013 L-615419 1013 L-614588 1013 L-612557 1013 L-612267 1012 L-610121 1012 L-609965 1012 L-606309 1011 L-606058 1011 L-605959 1011 L-605442 1011 L-603291 1012 L-602362 1012 L-600836 1012 L-599597 1012 L-598050 1012 L-595088 1012 L-593966 1012 L-593657 1012 L-592446 1012 L-589439 1013 L-589420 1013 L-589072 1012 L-588859 1012 L-588733 1012 L-588491 1011 L-588454 1011 L-588434 1011 L-588415 1011 L-588356 1011 L-588297 1011 L-588279 1011 L-587836 1010 L-586597 1010 L-585051 1010 L-581663 1010 L-575937 1010 L-575735 1010 L-574099 1010 L-572377 1010 L-570945 1010 L-570713 1010 L-569998 1010 L-563866 1010 L-563498 1009 L-563343 1009 L-562765 1009 L-562472 1009 L-561505 1009 L-561196 1009 L-560596 1009 L-558990 1009 L-558255 1009 L-557945 1009 L-557177 1009 L-555141 1009 L-554716 1008 L-553903 1008 L-546474 1008 L-545951 1008 L-545778 1008 L-545043 1008 L-543475 1008 L-543070 1008 L-540845 1008 L-539897 1008 L-539472 1007 L-539141 1007 L-538098 1007 L-535989 1007 L-535737 1007 L-535118 1007 L-534306 1007 L-532198 1007 L-532149 1007 L-530221 1007 L-529895 1006 L-529760 1006 L-529257 1006 L-527844 1006 L-527341 1006 L-526820 1006 L-523260 1005 L-522525 1005 L-520100 1005 L-518811 1005 L-518404 1005 L-515251 1005 L-515096 1005 L-515076 1005 L-514710 1005 L-513451 1005 L-512736 1005 L-511846 1005 L-511439 1005 L-510511 1005 L-509402 1005 L-509099 1005 L-502850 1005 L-501903 1006 L-500277 1006 L-499775 1006 L-496099 1006 L-495267 1006 L-491314 1006 L-489902 1006 L-487413 1006 L-486736 1005 L-486698 1005 L-485827 1005 L-482615 1005 L-479752 1005 L-478784 1005 L-477663 1005 L-477644 1005 L-476019 1005 L-475555 1005 L-475463 1005 L-469094 1005 L-468145 1004 L-465688 1004 L-464816 1004 L-463580 1004 L-461578 1004 L-461181 1004 L-459745 1004 L-457718 1004 L-457505 1004 L-456325 1004 L-454817 1004 L-454797 1003 L-452784 1003 L-451915 1003 L-451044 1003 L-450459 1003 L-449922 1003 L-449264 1003 L-448026 1003 L-447465 1003 L-446284 1003 L-445047 1003 L-445008 1002 L-444621 1002 L-444080 1002 L-443306 1002 L-442184 1002 L-440094 1002 L-439761 1002 L-439475 1002 L-438547 1002 L-438064 1002 L-437328 1001 L-433697 1001 L-432569 1001 L-432415 1001 L-431389 1001 L-427674 1001 L-426457 1001 L-424638 1001 L-421852 1001 L-421291 1001 L-417403 1001 L-414926 1001 L-413592 1001 L-413088 1001 L-412605 1000 L-409916 1000 L-406144 1000 L-403687 1000 L-402507 1000 L-401868 1000 L-399508 1000 L-399431 1000 L-398383 1000 L-398290 1000 L-397787 1000 L-397341 1000 L-397284 1000 L-397070 1000 L-394111 1000 L-391403 1000 L-391248 1000 L-387727 1000 L-387204 1000 L-386237 999 L-385888 999 L-384844 999 L-383916 999 L-383490 999 L-381981 999 L-381014 999 L-380995 999 L-379099 994 L-378983 989 L-378935 985 L-378911 980 L-375907 980 L-373876 980 L-372115 979 L-371748 979 L-371303 979 L-370936 979 L-370522 979 L-368537 979 L-368324 979 L-368169 979 L-366563 979 L-365442 979 L-364493 979 L-363236 979 L-361592 979 L-360412 979 L-353822 978 L-353776 978 L-353370 978 L-352325 978 L-352190 978 L-350507 978 L-350487 978 L-349150 978 L-347914 978 L-347760 978 L-347386 978 L-347180 978 L-346870 977 L-346096 977 L-343775 977 L-343117 977 L-340989 977 L-339267 977 L-339073 977 L-336520 977 L-336244 977 L-336056 977 L-335223 977 L-334451 977 L-333753 976 L-328752 976 L-328376 976 L-324123 976 L-323636 983 L-323617 983 L-323538 983 L-323463 983 L-323443 976 L-322630 976 L-321876 976 L-320657 976 L-319225 976 L-319129 976 L-318955 976 L-318600 975 L-317291 975 L-315434 975 L-313731 975 L-313228 975 L-312963 975 L-312570 975 L-312436 975 L-311526 975 L-311150 975 L-310221 975 L-309882 975 L-309842 975 L-309805 975 L-307889 975 L-307715 975 L-306187 975 L-305858 975 L-305742 974 L-305335 974 L-304987 974 L-303343 974 L-302793 974 L-302549 974 L-302008 974 L-301177 974 L-300635 974 L-299101 974 L-299008 974 L-298971 974 L-298835 973 L-298448 973 L-297423 973 L-295547 973 L-295451 973 L-294850 975 L-294483 977 L-293999 980 L-293961 982 L-293187 982 L-293129 982 L-292955 982 L-292761 982 L-291156 982 L-291136 982 L-290981 982 L-290865 982 L-289686 982 L-289531 982 L-288864 982 L-286416 987 L-283901 993 L-281231 998 L-273532 1003 L-267864 1003 L-265650 1003 L-265626 1003 L-264653 1005 L-264633 1005 L-263769 1004 L-261029 1004 L-255230 1003 L-255077 1003 L-252291 1003 L-238683 1003 L-237937 1003 L-233526 1002 L-217180 1002 L-216948 1002 L-216411 1002 L-207951 1002 L-199245 1002 L-199033 1002 L-197061 1002 L-194274 1002 L-189787 1002 L-189632 1002 L-189463 1002 L-189323 1002 L-189032 1002 L-188993 1002 L-188722 1002 L-188551 1002 L-188141 1001 L-187020 1001 L-185840 1001 L-184563 1001 L-181699 1001 L-178779 1001 L-176787 1001 L-175239 1001 L-172201 1001 L-162877 1001 L-162353 1001 L-156629 1001 L-155122 1001 L-154307 1001 L-152624 1001 L-151903 1001 L-151734 1000 L-150689 1000 L-148622 1000 L-147260 1000 L-142817 1000 L-142719 1000 L-142681 1000 L-142662 1000 L-141829 1000 L-141752 1000 L-139179 1000 L-135930 1000 L-135775 1000 L-134827 1000 L-133086 999 L-132370 1000 L-128829 1000 L-122252 1001 L-120835 1001 L-120814 1001 L-119864 1001 L-116389 1001 L-115636 1001 L-115074 1001 L-114292 1001 L-106788 1001 L-105190 1000 L-103616 1000 L-100430 1000 L-96097 1000 L-87528 1000 L-78781 1000 L-75707 1000 L-72441 1000 L-71895 1000 L-64758 1000 L-59090 1000 L-45026 1000 L-39014 1000 L-34308 1000 L-30305 1000 L-25197 1000 L-15483 1000 L86 999 L3169 999 L3471 970 L3491 934 L3510 894 L3530 848 L3549 827 L3568 810 L3587 794 L3615 778 L3636 762 L3663 746 L3699 728 L3712 713 L3725 700 L3744 689 L3763 681 L3783 673 L3801 664 L3820 656 L3840 648 L3861 639 L3878 631 L3897 623 L3917 615 L3937 607 L3955 598 L3974 589 L3994 580 L4014 571 L4033 562 L4051 554 L4073 546 L4098 538 L4112 531 L4129 523 L4149 516 L4168 508 L4187 500 L4206 492 L4226 485 L4247 477 L4265 470 L4284 464 L4304 457 L4325 451 L4342 446 L4361 441 L4381 436 L4400 432 L4420 427 L4438 423 L4458 419 L4478 416 L4497 412 L4516 409 L4543 405 L4564 400 L4592 395 L4626 390 L4640 385 L4653 381 L4672 377 L4691 374 L4711 371 L4729 367 L4749 363 L4768 359 L4789 356 L4806 353 L4825 349 L4845 346 L4865 342 L4884 337 L4903 332 L4923 327 L4942 322 L4961 317 L4980 312 L5001 306 L5025 299 L5040 293 L5057 287 L5077 281 L5096 275 L5116 269 L5135 263 L5155 257 L5175 250 L5193 245 L5212 239 L5232 233 L5253 228 L5271 223 L5290 218 L5310 213 L5328 209 L5348 204 L5367 200 L5387 196 L5406 191 L5425 187 L5444 183 L5473 179 L5493 175 L5521 171 L5558 166 L5573 161 L5585 157 L5602 153 L5619 150 L5639 147 L5658 144 L5677 142 L5697 140 L5718 137 L5735 135 L5754 132 L5774 129 L5794 126 L5812 122 L5831 119 L5851 115 L5871 111 L5890 107 L5908 104 L5930 100 L5954 96 L5969 92 L5986 88 L6006 85 L6025 81 L6045 77 L6063 73 L6083 69 L6104 65 L6122 61 L6141 57 L6161 54 L6181 50 L6199 47 L6218 44 L6238 41 L6257 37 L6277 34 L6296 31 L6315 28 L6335 25 L6354 22 L6373 19 L6401 16 L6421 13 L6449 9 L6485 4 L6500 0" />
</svg>
