<svg xmlns="http://www.w3.org/2000/svg" version="1.1" viewBox="0 0 6500 1000">
	<path fill="none" stroke="gold" stroke-width="125" stroke-linecap="round" stroke-linejoin="round" d="M0 1833  L-720673 1833 L-718069 1832 L-716401 1832 L-698071 1832 L-697901 1832 L-690743 1832 L-690710 1832 L-677279 1832 L-674357 1832 L-661016 1832 L-656847 1831 L-655687 1831 L-655068 1830 L-653056 1830 L-649284 1830 L-648684 1830 L-648356 1829 L-648143 1829 L-647601 1829 L-646363 1828 L-645184 1828 L-642320 1827 L-641797 1826 L-636942 1826 L-634005 1826 L-633962 1826 L-633653 1825 L-633401 1825 L-630807 1825 L-626551 1825 L-626533 1825 L-625296 1825 L-623419 1825 L-621465 1825 L-620517 1825 L-620247 1825 L-619937 1824 L-619839 1824 L-619008 1824 L-616977 1824 L-616687 1824 L-614541 1823 L-614385 1823 L-610729 1822 L-610478 1822 L-610379 1822 L-609862 1823 L-607711 1823 L-606782 1824 L-605256 1824 L-604017 1824 L-602470 1824 L-599508 1824 L-598387 1824 L-598077 1823 L-596866 1823 L-593859 1824 L-593840 1824 L-593492 1824 L-593279 1824 L-593153 1823 L-592912 1823 L-592874 1822 L-592854 1822 L-592835 1822 L-592776 1822 L-592717 1822 L-592699 1821 L-592256 1821 L-591017 1821 L-589471 1821 L-586083 1821 L-580357 1821 L-580155 1821 L-578519 1820 L-576798 1820 L-575365 1820 L-575133 1820 L-574418 1820 L-568286 1820 L-567918 1820 L-567763 1820 L-567185 1819 L-566893 1819 L-565925 1819 L-565616 1819 L-565017 1819 L-563410 1819 L-562675 1819 L-562365 1819 L-561597 1819 L-559561 1819 L-559136 1818 L-558323 1818 L-550895 1818 L-550372 1818 L-550198 1818 L-549463 1818 L-547895 1817 L-547490 1817 L-545265 1817 L-544317 1817 L-543892 1817 L-543561 1817 L-542518 1817 L-540409 1817 L-540157 1817 L-539538 1816 L-538726 1816 L-536618 1816 L-536569 1816 L-534641 1816 L-534315 1816 L-534180 1815 L-533677 1815 L-532265 1815 L-531762 1815 L-531240 1814 L-527680 1814 L-526945 1814 L-524520 1814 L-523231 1814 L-522824 1813 L-519671 1813 L-519517 1813 L-519496 1814 L-519130 1814 L-517872 1814 L-517157 1814 L-516267 1814 L-515860 1814 L-514931 1814 L-513822 1814 L-513519 1814 L-507270 1814 L-506323 1814 L-504697 1815 L-504195 1815 L-500519 1815 L-499687 1815 L-495734 1815 L-494322 1815 L-491833 1814 L-491156 1814 L-491118 1814 L-490247 1814 L-487036 1814 L-484172 1814 L-483205 1814 L-482083 1814 L-482064 1814 L-480439 1813 L-479975 1813 L-479883 1813 L-473514 1813 L-472565 1813 L-470108 1813 L-469236 1813 L-468000 1813 L-465998 1812 L-465601 1812 L-464165 1812 L-462138 1812 L-461925 1812 L-460745 1812 L-459237 1812 L-459217 1812 L-457204 1811 L-456335 1811 L-455464 1811 L-454879 1811 L-454342 1811 L-453684 1811 L-452446 1810 L-451886 1810 L-450704 1810 L-449467 1810 L-449428 1810 L-449041 1810 L-448500 1810 L-447726 1810 L-446604 1810 L-444515 1809 L-444181 1809 L-443895 1809 L-442967 1809 L-442484 1809 L-441748 1809 L-438117 1809 L-436989 1809 L-436835 1808 L-435809 1808 L-432094 1808 L-430877 1808 L-429058 1808 L-426272 1808 L-425711 1808 L-421823 1808 L-419347 1807 L-418012 1807 L-417508 1807 L-417025 1807 L-414336 1807 L-410564 1807 L-408107 1807 L-406927 1807 L-406288 1807 L-403928 1807 L-403851 1807 L-402803 1807 L-402710 1807 L-402207 1807 L-401762 1807 L-401704 1807 L-401490 1807 L-398531 1806 L-395823 1806 L-395668 1806 L-392147 1806 L-391625 1806 L-390657 1806 L-390308 1806 L-389265 1806 L-388336 1805 L-387910 1805 L-386401 1805 L-385434 1805 L-385415 1805 L-383519 1798 L-383403 1792 L-383355 1785 L-383331 1778 L-380327 1778 L-378296 1778 L-376535 1778 L-376168 1778 L-375723 1778 L-375356 1778 L-374942 1777 L-372957 1777 L-372744 1777 L-372589 1777 L-370984 1777 L-369862 1777 L-368913 1777 L-367656 1777 L-366012 1777 L-364832 1777 L-358243 1776 L-358196 1776 L-357790 1776 L-356745 1776 L-356610 1776 L-354927 1776 L-354907 1776 L-353570 1776 L-352334 1776 L-352180 1775 L-351806 1775 L-351600 1775 L-351290 1775 L-350517 1775 L-348195 1775 L-347537 1775 L-345409 1775 L-343687 1775 L-343494 1774 L-340940 1774 L-340664 1774 L-340476 1774 L-339643 1774 L-338871 1774 L-338173 1774 L-333172 1774 L-332796 1773 L-328543 1773 L-328056 1782 L-328037 1782 L-327958 1782 L-327883 1782 L-327863 1773 L-327050 1773 L-326296 1773 L-325077 1773 L-323645 1773 L-323549 1772 L-323375 1772 L-323020 1772 L-321711 1772 L-319854 1772 L-318151 1772 L-317648 1772 L-317383 1772 L-316990 1772 L-316856 1772 L-315946 1771 L-315570 1771 L-314641 1771 L-314302 1771 L-314262 1771 L-314225 1771 L-312309 1771 L-312136 1771 L-310607 1771 L-310279 1771 L-310163 1771 L-309755 1771 L-309407 1771 L-307764 1770 L-307213 1770 L-306969 1770 L-306428 1770 L-305597 1770 L-305055 1770 L-303521 1770 L-303428 1770 L-303391 1770 L-303256 1769 L-302868 1769 L-301844 1769 L-299967 1769 L-299871 1769 L-299270 1772 L-298903 1775 L-298419 1778 L-298381 1781 L-297607 1782 L-297549 1781 L-297375 1781 L-297181 1781 L-295576 1781 L-295556 1781 L-295401 1781 L-295285 1781 L-294106 1781 L-293951 1782 L-293284 1782 L-290836 1789 L-288321 1797 L-285651 1804 L-277952 1811 L-272284 1811 L-270070 1811 L-270046 1811 L-269073 1813 L-269053 1813 L-268189 1813 L-265449 1813 L-259650 1811 L-259497 1811 L-256711 1811 L-243103 1810 L-242357 1810 L-237946 1810 L-221600 1810 L-221368 1810 L-220831 1810 L-212371 1810 L-203666 1810 L-203453 1809 L-201481 1809 L-198695 1809 L-194207 1809 L-194052 1809 L-193883 1809 L-193743 1809 L-193452 1809 L-193413 1809 L-193143 1809 L-192971 1809 L-192561 1809 L-191440 1809 L-190260 1809 L-188983 1808 L-186119 1808 L-183199 1808 L-181207 1808 L-179659 1808 L-176621 1808 L-167297 1808 L-166773 1808 L-161049 1808 L-159542 1808 L-158727 1808 L-157044 1807 L-156323 1807 L-156154 1807 L-155109 1807 L-153042 1807 L-151680 1807 L-147237 1807 L-147139 1807 L-147101 1807 L-147082 1807 L-146249 1807 L-146172 1806 L-143599 1806 L-140350 1806 L-140195 1806 L-139247 1806 L-137506 1806 L-136790 1806 L-133250 1807 L-126672 1807 L-125255 1808 L-125234 1808 L-124284 1808 L-120809 1808 L-120056 1808 L-119494 1808 L-118712 1807 L-111208 1807 L-109610 1807 L-108036 1807 L-104850 1807 L-100517 1807 L-91948 1807 L-83201 1807 L-80127 1807 L-76861 1807 L-76315 1807 L-69178 1806 L-63510 1806 L-49446 1806 L-43434 1807 L-38728 1806 L-34725 1806 L-29617 1806 L-19903 1806 L-4333 1806 L-1250 1806 L-948 1765 L-928 1715 L-909 1658 L-890 1594 L-870 1565 L-851 1540 L-832 1518 L-804 1496 L-784 1474 L-756 1451 L-720 1426 L-707 1405 L-694 1386 L-675 1371 L-657 1360 L-637 1348 L-618 1337 L-599 1325 L-579 1314 L-558 1302 L-541 1290 L-522 1278 L-502 1267 L-482 1256 L-464 1244 L-445 1231 L-425 1218 L-405 1206 L-386 1194 L-368 1182 L-346 1171 L-322 1160 L-307 1150 L-290 1139 L-270 1129 L-251 1118 L-232 1107 L-213 1096 L-193 1085 L-172 1075 L-154 1065 L-135 1056 L-115 1047 L-94 1038 L-77 1031 L-58 1024 L-38 1017 L-19 1011 L0 1004 L18 999 L38 994 L58 989 L77 984 L96 979 L123 973 L144 967 L172 960 L206 952 L220 945 L233 940 L252 935 L271 930 L291 926 L309 920 L328 915 L348 910 L369 905 L386 900 L405 895 L425 890 L445 885 L464 878 L482 871 L503 864 L522 857 L541 850 L560 843 L581 834 L605 826 L620 817 L637 808 L657 800 L676 792 L696 783 L715 774 L735 766 L755 757 L773 749 L792 741 L812 733 L833 725 L850 718 L869 711 L889 705 L908 699 L928 693 L947 687 L967 681 L986 675 L1005 669 L1024 663 L1053 657 L1073 651 L1100 646 L1138 639 L1153 632 L1165 626 L1182 620 L1199 616 L1219 612 L1238 609 L1257 605 L1277 602 L1298 599 L1315 595 L1334 591 L1354 587 L1374 582 L1392 578 L1411 573 L1431 568 L1451 562 L1470 557 L1488 552 L1510 546 L1534 541 L1548 536 L1566 530 L1586 525 L1605 520 L1624 514 L1643 508 L1663 503 L1684 497 L1702 491 L1721 486 L1741 482 L1761 477 L1779 472 L1798 468 L1818 463 L1837 459 L1856 454 L1875 450 L1895 446 L1914 441 L1934 437 L1953 433 L1981 429 L2001 425 L2029 420 L2065 413 L2079 407 L2092 401 L2110 396 L2128 392 L2148 389 L2166 385 L2186 380 L2206 375 L2227 370 L2245 365 L2262 360 L2283 354 L2303 347 L2321 341 L2340 334 L2360 327 L2380 321 L2398 315 L2417 310 L2438 306 L2463 302 L2478 299 L2495 296 L2514 293 L2534 289 L2553 285 L2572 282 L2592 279 L2613 276 L2630 273 L2649 270 L2670 266 L2691 261 L2708 257 L2727 254 L2747 251 L2765 249 L2785 247 L2804 245 L2824 243 L2843 240 L2863 237 L2881 235 L2909 233 L2930 231 L2957 228 L2992 225 L3006 223 L3019 220 L3038 218 L3057 217 L3076 215 L3095 213 L3114 211 L3134 210 L3155 208 L3172 206 L3191 204 L3212 202 L3232 200 L3250 198 L3268 196 L3288 195 L3309 193 L3327 191 L3346 189 L3367 188 L3392 186 L3406 184 L3423 183 L3443 181 L3462 180 L3482 178 L3501 176 L3520 174 L3541 172 L3559 170 L3578 168 L3598 167 L3619 165 L3636 164 L3655 162 L3675 160 L3694 159 L3714 157 L3732 156 L3753 155 L3772 154 L3791 153 L3810 155 L3839 157 L3858 159 L3886 160 L3924 159 L3939 157 L3952 156 L3969 155 L3985 154 L4005 153 L4023 152 L4043 151 L4063 150 L4084 149 L4101 148 L4119 147 L4140 146 L4160 145 L4178 144 L4197 143 L4217 142 L4237 141 L4255 140 L4274 139 L4296 138 L4320 137 L4335 136 L4352 135 L4372 134 L4391 133 L4410 132 L4429 131 L4449 130 L4470 128 L4487 127 L4506 125 L4527 124 L4548 123 L4565 121 L4584 120 L4604 119 L4623 118 L4642 116 L4661 115 L4681 114 L4701 112 L4720 111 L4739 110 L4766 109 L4787 108 L4815 107 L4850 105 L4863 104 L4876 103 L4895 102 L4914 101 L4934 100 L4952 99 L4972 98 L4991 96 L5012 95 L5029 94 L5048 93 L5069 92 L5089 90 L5107 89 L5126 87 L5145 85 L5166 84 L5184 82 L5203 81 L5224 79 L5249 77 L5264 76 L5281 74 L5300 73 L5320 71 L5339 69 L5358 68 L5378 66 L5399 65 L5416 63 L5435 62 L5456 60 L5476 59 L5493 58 L5512 57 L5532 56 L5551 55 L5571 54 L5590 53 L5609 52 L5629 51 L5648 51 L5667 50 L5695 49 L5715 48 L5743 47 L5779 46 L5792 44 L5806 42 L5824 41 L5842 40 L5862 39 L5881 38 L5900 37 L5920 36 L5941 35 L5958 34 L5977 33 L5997 31 L6017 30 L6035 29 L6054 28 L6074 26 L6095 25 L6112 24 L6131 23 L6153 22 L6178 21 L6192 20 L6209 19 L6229 18 L6248 16 L6267 15 L6286 14 L6306 12 L6328 10 L6345 8 L6364 7 L6384 6 L6405 4 L6422 3 L6441 3 L6461 2 L6480 1 L6500 0" />
</svg>
