<svg xmlns="http://www.w3.org/2000/svg" version="1.1" viewBox="0 0 6500 1000">
	<path fill="none" stroke="gold" stroke-width="125" stroke-linecap="round" stroke-linejoin="round" d="M0 1031  L-714379 1031 L-711775 1031 L-710107 1030 L-691777 1030 L-691607 1030 L-684449 1030 L-684416 1030 L-670985 1030 L-668063 1030 L-654722 1029 L-650553 1029 L-649393 1029 L-648774 1028 L-646762 1028 L-642991 1027 L-642391 1027 L-642062 1027 L-641849 1027 L-641307 1027 L-640069 1026 L-638890 1025 L-636026 1024 L-635504 1023 L-630648 1023 L-627711 1023 L-627668 1023 L-627359 1022 L-627108 1022 L-624513 1022 L-620257 1022 L-620239 1022 L-619002 1022 L-617125 1022 L-615172 1022 L-614224 1022 L-613953 1021 L-613643 1021 L-613545 1021 L-612714 1021 L-610684 1021 L-610393 1020 L-608247 1020 L-608091 1019 L-604435 1019 L-604184 1019 L-604085 1019 L-603568 1019 L-601417 1020 L-600488 1020 L-598962 1021 L-597723 1021 L-596176 1021 L-593215 1020 L-592093 1020 L-591783 1020 L-590572 1020 L-587566 1021 L-587546 1021 L-587199 1021 L-586985 1021 L-586859 1019 L-586618 1019 L-586580 1019 L-586560 1019 L-586541 1018 L-586482 1018 L-586423 1018 L-586405 1018 L-585962 1017 L-584723 1017 L-583177 1017 L-579789 1017 L-574063 1017 L-573861 1017 L-572226 1017 L-570504 1016 L-569072 1016 L-568839 1016 L-568124 1016 L-561992 1016 L-561624 1016 L-561470 1016 L-560891 1015 L-560599 1015 L-559631 1015 L-559322 1015 L-558723 1015 L-557116 1015 L-556381 1015 L-556072 1015 L-555303 1015 L-553267 1014 L-552842 1014 L-552029 1014 L-544601 1014 L-544078 1014 L-543904 1013 L-543169 1013 L-541601 1013 L-541196 1013 L-538971 1013 L-538023 1013 L-537598 1013 L-537268 1013 L-536224 1012 L-534116 1012 L-533863 1012 L-533245 1012 L-532432 1012 L-530324 1011 L-530276 1011 L-528347 1011 L-528022 1011 L-527887 1011 L-527383 1010 L-525971 1010 L-525468 1010 L-524946 1010 L-521386 1009 L-520651 1009 L-518226 1009 L-516937 1008 L-516530 1008 L-513378 1008 L-513223 1008 L-513202 1008 L-512836 1008 L-511578 1009 L-510863 1009 L-509973 1009 L-509566 1009 L-508637 1009 L-507529 1009 L-507225 1009 L-500977 1009 L-500029 1009 L-498403 1010 L-497901 1010 L-494226 1010 L-493393 1010 L-489440 1010 L-488028 1010 L-485539 1010 L-484863 1009 L-484824 1009 L-483953 1009 L-480742 1009 L-477879 1009 L-476911 1009 L-475789 1009 L-475770 1008 L-474145 1008 L-473681 1008 L-473589 1008 L-467220 1008 L-466271 1008 L-463814 1008 L-462942 1007 L-461706 1007 L-459705 1007 L-459307 1007 L-457871 1007 L-455845 1007 L-455631 1006 L-454451 1006 L-452943 1006 L-452923 1006 L-450911 1006 L-450041 1006 L-449170 1006 L-448585 1005 L-448048 1005 L-447390 1005 L-446152 1005 L-445592 1005 L-444411 1005 L-443173 1004 L-443135 1004 L-442748 1004 L-442206 1004 L-441432 1004 L-440310 1004 L-438221 1004 L-437887 1003 L-437602 1003 L-436673 1003 L-436190 1003 L-435454 1003 L-431823 1003 L-430696 1003 L-430541 1002 L-429515 1002 L-425800 1002 L-424583 1002 L-422764 1002 L-419979 1002 L-419417 1001 L-415529 1001 L-413053 1001 L-411718 1001 L-411214 1001 L-410731 1001 L-408042 1001 L-404270 1001 L-401813 1001 L-400633 1001 L-399994 1001 L-397635 1001 L-397557 1001 L-396510 1001 L-396416 1000 L-395913 1000 L-395468 1000 L-395410 1000 L-395196 1000 L-392237 1000 L-389529 1000 L-389374 1000 L-385854 1000 L-385331 1000 L-384363 999 L-384014 999 L-382971 999 L-382042 999 L-381616 999 L-380107 999 L-379141 999 L-379122 999 L-377226 991 L-377110 983 L-377062 975 L-377037 967 L-374033 967 L-372002 967 L-370242 967 L-369874 967 L-369429 966 L-369062 966 L-368648 966 L-366663 966 L-366450 966 L-366295 966 L-364690 966 L-363568 966 L-362620 966 L-361362 965 L-359718 965 L-358538 965 L-351949 965 L-351902 965 L-351496 965 L-350451 965 L-350316 965 L-348633 964 L-348613 964 L-347277 964 L-346040 964 L-345886 964 L-345512 964 L-345306 964 L-344997 963 L-344223 963 L-341901 963 L-341243 963 L-339116 963 L-337393 963 L-337200 963 L-334646 962 L-334370 962 L-334182 962 L-333349 962 L-332577 962 L-331879 962 L-326878 962 L-326502 961 L-322250 961 L-321762 972 L-321743 972 L-321664 972 L-321589 972 L-321569 961 L-320756 961 L-320003 961 L-318783 960 L-317351 960 L-317255 960 L-317081 960 L-316726 960 L-315417 960 L-313560 960 L-311857 960 L-311355 960 L-311089 959 L-310696 959 L-310562 959 L-309652 959 L-309276 959 L-308347 959 L-308008 959 L-307969 959 L-307931 959 L-306015 959 L-305842 959 L-304313 959 L-303985 959 L-303869 959 L-303462 958 L-303113 958 L-301470 958 L-300919 958 L-300676 958 L-300134 958 L-299303 957 L-298761 957 L-297227 957 L-297135 957 L-297098 957 L-296962 957 L-296574 957 L-295550 957 L-293673 957 L-293577 956 L-292977 960 L-292610 963 L-292125 967 L-292087 971 L-291313 971 L-291256 971 L-291081 971 L-290888 971 L-289282 970 L-289262 970 L-289107 970 L-288992 971 L-287812 971 L-287657 971 L-286990 971 L-284542 980 L-282027 989 L-279357 997 L-271658 1006 L-265991 1006 L-263776 1006 L-263753 1006 L-262779 1008 L-262759 1008 L-261895 1008 L-259155 1007 L-253356 1005 L-253203 1005 L-250417 1005 L-236809 1005 L-236063 1005 L-231652 1004 L-215306 1004 L-215074 1004 L-214537 1004 L-206077 1004 L-197372 1004 L-197159 1004 L-195187 1003 L-192401 1003 L-187913 1004 L-187758 1003 L-187589 1003 L-187449 1003 L-187158 1003 L-187120 1003 L-186849 1003 L-186677 1003 L-186267 1003 L-185146 1003 L-183966 1003 L-182689 1002 L-179825 1002 L-176905 1002 L-174913 1002 L-173365 1002 L-170328 1002 L-161003 1002 L-160479 1002 L-154755 1002 L-153248 1001 L-152434 1001 L-150750 1001 L-150029 1001 L-149861 1001 L-148815 1001 L-146748 1001 L-145386 1001 L-140943 1001 L-140846 1001 L-140807 1000 L-140788 1000 L-139956 1000 L-139878 1000 L-137305 1000 L-134056 1000 L-133901 1000 L-132953 1000 L-131212 999 L-130496 1000 L-126956 1001 L-120378 1001 L-118961 1002 L-118940 1002 L-117990 1002 L-114515 1002 L-113762 1001 L-113201 1001 L-112418 1001 L-104914 1001 L-103316 1001 L-101742 1001 L-98557 1001 L-94224 1001 L-85654 1001 L-76908 1001 L-73834 1001 L-70568 1000 L-70021 1000 L-62884 1000 L-57216 1000 L-43152 1000 L-37140 1000 L-32434 1000 L-28431 1000 L-23323 1000 L-13609 1000 L1960 999 L5043 999 L5345 952 L5365 893 L5384 826 L5403 751 L5423 717 L5442 689 L5461 662 L5488 636 L5509 611 L5537 584 L5572 555 L5586 530 L5599 508 L5618 491 L5636 477 L5656 464 L5674 450 L5694 437 L5714 423 L5735 409 L5752 395 L5770 382 L5791 369 L5811 356 L5829 342 L5848 327 L5868 312 L5888 297 L5906 283 L5925 270 L5946 257 L5971 244 L5986 231 L6003 219 L6023 207 L6042 195 L6061 182 L6080 168 L6100 156 L6121 144 L6139 132 L6157 121 L6178 111 L6199 101 L6216 93 L6235 85 L6255 77 L6274 69 L6293 62 L6312 55 L6332 49 L6352 43 L6371 38 L6389 32 L6417 25 L6438 17 L6465 9 L6500 0" />
</svg>
