<svg xmlns="http://www.w3.org/2000/svg" version="1.1" viewBox="0 0 6500 1000">
	<path fill="none" stroke="gold" stroke-width="125" stroke-linecap="round" stroke-linejoin="round" d="M0 1016  L-717674 1016 L-715070 1016 L-713402 1016 L-695072 1016 L-694902 1016 L-687744 1015 L-687711 1015 L-674280 1015 L-671358 1015 L-658017 1015 L-653848 1015 L-652688 1015 L-652069 1015 L-650057 1014 L-646286 1014 L-645686 1014 L-645357 1014 L-645144 1014 L-644602 1014 L-643364 1013 L-642185 1013 L-639321 1012 L-638799 1012 L-633943 1012 L-631006 1012 L-630963 1012 L-630655 1012 L-630403 1011 L-627808 1011 L-623552 1011 L-623534 1011 L-622298 1011 L-620420 1011 L-618467 1011 L-617519 1011 L-617248 1011 L-616938 1011 L-616840 1011 L-616009 1011 L-613979 1011 L-613688 1010 L-611542 1010 L-611386 1010 L-607730 1010 L-607479 1010 L-607380 1010 L-606863 1010 L-604712 1010 L-603783 1010 L-602257 1011 L-601018 1011 L-599471 1011 L-596510 1011 L-595388 1010 L-595078 1010 L-593867 1010 L-590861 1011 L-590841 1011 L-590494 1011 L-590280 1011 L-590154 1010 L-589913 1010 L-589875 1010 L-589855 1010 L-589836 1009 L-589777 1009 L-589718 1009 L-589700 1009 L-589257 1009 L-588018 1009 L-586472 1009 L-583084 1009 L-577358 1009 L-577156 1009 L-575521 1009 L-573799 1008 L-572367 1008 L-572134 1008 L-571419 1008 L-565287 1008 L-564919 1008 L-564765 1008 L-564186 1008 L-563894 1008 L-562926 1008 L-562617 1008 L-562018 1007 L-560411 1007 L-559676 1007 L-559367 1008 L-558598 1008 L-556562 1007 L-556137 1007 L-555324 1007 L-547896 1007 L-547373 1007 L-547199 1007 L-546464 1007 L-544896 1007 L-544491 1007 L-542266 1007 L-541318 1006 L-540893 1006 L-540563 1006 L-539519 1006 L-537411 1006 L-537158 1006 L-536540 1006 L-535727 1006 L-533619 1006 L-533571 1006 L-531642 1006 L-531317 1006 L-531182 1005 L-530678 1005 L-529266 1005 L-528763 1005 L-528241 1005 L-524681 1005 L-523946 1004 L-521521 1004 L-520232 1004 L-519825 1004 L-516673 1004 L-516518 1004 L-516497 1004 L-516131 1004 L-514873 1004 L-514158 1004 L-513268 1004 L-512861 1004 L-511932 1004 L-510824 1004 L-510520 1005 L-504272 1005 L-503324 1005 L-501698 1005 L-501196 1005 L-497521 1005 L-496688 1005 L-492735 1005 L-491323 1005 L-488834 1005 L-488158 1005 L-488119 1005 L-487248 1005 L-484037 1005 L-481174 1005 L-480206 1005 L-479084 1004 L-479065 1004 L-477440 1004 L-476976 1004 L-476884 1004 L-470515 1004 L-469566 1004 L-467109 1004 L-466237 1004 L-465001 1004 L-463000 1004 L-462602 1003 L-461166 1003 L-459140 1003 L-458926 1003 L-457746 1003 L-456238 1003 L-456218 1003 L-454206 1003 L-453336 1003 L-452465 1003 L-451880 1003 L-451343 1003 L-450685 1002 L-449447 1002 L-448887 1002 L-447706 1002 L-446468 1002 L-446430 1002 L-446043 1002 L-445501 1002 L-444727 1002 L-443605 1002 L-441516 1002 L-441182 1002 L-440897 1002 L-439968 1001 L-439485 1001 L-438749 1001 L-435118 1001 L-433991 1001 L-433836 1001 L-432810 1001 L-429095 1001 L-427878 1001 L-426059 1001 L-423274 1001 L-422712 1001 L-418824 1001 L-416348 1001 L-415013 1001 L-414509 1000 L-414026 1000 L-411337 1000 L-407565 1000 L-405108 1000 L-403928 1000 L-403289 1000 L-400930 1000 L-400852 1000 L-399805 1000 L-399711 1000 L-399208 1000 L-398763 1000 L-398705 1000 L-398491 1000 L-395532 1000 L-392824 1000 L-392669 1000 L-389149 1000 L-388626 1000 L-387658 1000 L-387309 999 L-386266 999 L-385337 999 L-384911 999 L-383402 999 L-382436 999 L-382417 999 L-380521 995 L-380405 991 L-380357 987 L-380332 983 L-377328 983 L-375297 982 L-373537 982 L-373170 982 L-372724 982 L-372357 982 L-371943 982 L-369958 982 L-369745 982 L-369590 982 L-367985 982 L-366863 982 L-365915 982 L-364657 982 L-363013 982 L-361833 982 L-355244 982 L-355197 981 L-354791 981 L-353746 981 L-353611 981 L-351928 981 L-351908 981 L-350572 981 L-349335 981 L-349181 981 L-348807 981 L-348601 981 L-348292 981 L-347518 981 L-345196 981 L-344538 980 L-342411 980 L-340688 980 L-340495 980 L-337941 980 L-337665 980 L-337477 980 L-336644 980 L-335872 980 L-335174 980 L-330173 980 L-329797 980 L-325545 980 L-325057 985 L-325038 985 L-324959 985 L-324884 985 L-324864 979 L-324051 979 L-323298 979 L-322078 979 L-320646 979 L-320550 979 L-320376 979 L-320021 979 L-318712 979 L-316855 979 L-315152 979 L-314650 979 L-314384 979 L-313991 979 L-313857 979 L-312947 978 L-312571 978 L-311642 978 L-311303 978 L-311264 978 L-311226 978 L-309310 978 L-309137 978 L-307608 978 L-307280 978 L-307164 978 L-306757 978 L-306408 978 L-304765 978 L-304214 978 L-303971 978 L-303429 978 L-302598 978 L-302056 978 L-300522 977 L-300430 977 L-300393 977 L-300257 977 L-299869 977 L-298845 977 L-296968 977 L-296872 977 L-296272 979 L-295905 981 L-295420 983 L-295382 985 L-294608 985 L-294551 985 L-294376 984 L-294183 984 L-292577 984 L-292557 984 L-292402 984 L-292287 984 L-291107 984 L-290952 985 L-290285 985 L-287837 989 L-285322 994 L-282652 998 L-274953 1003 L-269286 1003 L-267071 1003 L-267048 1003 L-266074 1004 L-266054 1004 L-265190 1004 L-262450 1004 L-256651 1003 L-256498 1002 L-253712 1002 L-240104 1002 L-239358 1002 L-234947 1002 L-218601 1002 L-218369 1002 L-217832 1002 L-209372 1002 L-200667 1002 L-200454 1002 L-198482 1002 L-195696 1002 L-191208 1002 L-191053 1002 L-190884 1002 L-190744 1002 L-190453 1002 L-190415 1001 L-190144 1001 L-189972 1001 L-189562 1001 L-188441 1001 L-187261 1001 L-185984 1001 L-183120 1001 L-180200 1001 L-178208 1001 L-176660 1001 L-173623 1001 L-164298 1001 L-163774 1001 L-158050 1001 L-156543 1001 L-155729 1001 L-154045 1001 L-153324 1000 L-153156 1000 L-152110 1000 L-150043 1000 L-148681 1000 L-144238 1000 L-144141 1000 L-144102 1000 L-144083 1000 L-143251 1000 L-143173 1000 L-140600 1000 L-137351 1000 L-137196 1000 L-136248 1000 L-134507 1000 L-133791 1000 L-130251 1000 L-123673 1000 L-122256 1001 L-122235 1001 L-121285 1001 L-117810 1001 L-117057 1001 L-116496 1001 L-115713 1001 L-108209 1000 L-106611 1000 L-105037 1000 L-101852 1000 L-97519 1000 L-88949 1000 L-80203 1000 L-77129 1000 L-73863 1000 L-73316 1000 L-66179 1000 L-60511 1000 L-46447 1000 L-40435 1000 L-35729 1000 L-31726 1000 L-26618 1000 L-16904 1000 L-1334 1000 L1748 999 L2050 974 L2070 944 L2089 909 L2108 870 L2128 852 L2147 837 L2166 823 L2193 809 L2214 796 L2242 782 L2277 767 L2291 754 L2304 742 L2323 733 L2341 726 L2361 719 L2379 712 L2399 705 L2419 698 L2440 690 L2457 683 L2475 676 L2496 669 L2516 662 L2534 655 L2553 647 L2573 639 L2593 632 L2611 624 L2630 617 L2651 610 L2676 604 L2691 597 L2708 591 L2728 584 L2747 578 L2766 571 L2785 564 L2805 558 L2826 551 L2844 545 L2862 540 L2883 534 L2904 529 L2921 525 L2940 520 L2960 516 L2979 512 L2998 508 L3017 505 L3037 502 L3057 499 L3076 496 L3094 493 L3122 489 L3143 485 L3170 481 L3204 476 L3219 472 L3232 469 L3250 465 L3269 463 L3289 460 L3308 457 L3327 453 L3347 450 L3368 447 L3385 444 L3404 441 L3424 438 L3444 435 L3463 431 L3481 427 L3501 422 L3521 418 L3540 413 L3559 409 L3580 404 L3604 398 L3619 393 L3636 388 L3656 383 L3675 378 L3695 373 L3713 367 L3734 362 L3754 357 L3772 351 L3791 346 L3811 342 L3832 337 L3849 333 L3868 329 L3888 324 L3907 321 L3927 317 L3946 313 L3965 310 L3985 306 L4004 302 L4023 299 L4052 295 L4072 292 L4099 288 L4137 284 L4152 280 L4164 276 L4181 273 L4198 270 L4218 268 L4237 266 L4256 264 L4276 262 L4296 259 L4314 257 L4332 255 L4353 252 L4373 249 L4391 247 L4410 244 L4430 240 L4450 237 L4468 234 L4487 230 L4508 227 L4533 224 L4547 221 L4565 217 L4585 214 L4604 211 L4623 207 L4642 204 L4662 200 L4682 197 L4701 194 L4719 191 L4740 187 L4760 185 L4778 182 L4797 179 L4817 176 L4835 174 L4855 171 L4874 168 L4894 165 L4913 163 L4933 160 L4952 158 L4980 155 L5000 153 L5028 149 L5064 145 L5078 142 L5091 138 L5109 135 L5127 133 L5147 131 L5165 128 L5185 125 L5205 122 L5226 119 L5244 116 L5261 113 L5282 109 L5302 105 L5320 101 L5339 97 L5359 93 L5379 89 L5397 85 L5416 82 L5437 80 L5462 78 L5477 76 L5494 74 L5513 72 L5533 69 L5552 67 L5571 65 L5591 63 L5612 61 L5629 60 L5648 58 L5669 55 L5689 53 L5706 50 L5725 48 L5746 46 L5764 45 L5784 44 L5803 42 L5823 41 L5842 39 L5861 38 L5880 36 L5908 35 L5929 34 L5956 32 L5991 30 L6005 29 L6018 27 L6037 26 L6055 25 L6075 24 L6094 23 L6113 22 L6133 21 L6154 20 L6171 19 L6190 18 L6210 16 L6230 15 L6248 14 L6267 13 L6287 12 L6307 10 L6326 9 L6344 8 L6366 7 L6391 6 L6405 5 L6422 4 L6442 3 L6461 2 L6481 1 L6500 0" />
</svg>
