<svg xmlns="http://www.w3.org/2000/svg" version="1.1" viewBox="0 0 6500 1000">
	<path fill="none" stroke="gold" stroke-width="125" stroke-linecap="round" stroke-linejoin="round" d="M0 1369  L-720035 1369 L-717431 1368 L-715763 1368 L-697434 1368 L-697263 1368 L-690106 1368 L-690073 1368 L-676642 1368 L-673720 1368 L-660379 1368 L-656210 1367 L-655050 1367 L-654431 1367 L-652419 1367 L-648647 1366 L-648047 1366 L-647718 1366 L-647505 1366 L-646964 1366 L-645726 1365 L-644547 1365 L-641682 1364 L-641160 1364 L-636305 1364 L-633367 1363 L-633324 1363 L-633016 1363 L-632764 1363 L-630169 1363 L-625914 1363 L-625896 1363 L-624659 1363 L-622781 1363 L-620828 1363 L-619880 1363 L-619609 1362 L-619299 1362 L-619201 1362 L-618371 1362 L-616340 1362 L-616050 1362 L-613903 1361 L-613748 1361 L-610091 1361 L-609840 1361 L-609742 1361 L-609225 1361 L-607074 1361 L-606145 1362 L-604619 1362 L-603379 1362 L-601833 1362 L-598871 1362 L-597749 1362 L-597440 1362 L-596229 1361 L-593222 1362 L-593202 1362 L-592855 1362 L-592642 1362 L-592516 1361 L-592274 1361 L-592236 1361 L-592217 1361 L-592197 1361 L-592138 1360 L-592080 1360 L-592062 1360 L-591619 1360 L-590379 1360 L-588834 1360 L-585446 1360 L-579720 1359 L-579518 1359 L-577882 1359 L-576160 1359 L-574728 1359 L-574496 1359 L-573780 1359 L-567648 1359 L-567281 1359 L-567126 1359 L-566548 1359 L-566255 1358 L-565288 1358 L-564978 1358 L-564379 1358 L-562773 1358 L-562038 1358 L-561728 1358 L-560960 1358 L-558924 1358 L-558498 1358 L-557686 1358 L-550257 1358 L-549734 1357 L-549561 1357 L-548826 1357 L-547258 1357 L-546852 1357 L-544627 1357 L-543679 1357 L-543254 1357 L-542924 1357 L-541880 1357 L-539772 1356 L-539520 1356 L-538901 1356 L-538088 1356 L-535980 1356 L-535932 1356 L-534004 1356 L-533678 1356 L-533543 1355 L-533040 1355 L-531627 1355 L-531124 1355 L-530602 1355 L-527043 1354 L-526308 1354 L-523883 1354 L-522594 1354 L-522187 1354 L-519034 1354 L-518879 1354 L-518859 1354 L-518492 1354 L-517234 1354 L-516519 1354 L-515629 1354 L-515222 1354 L-514294 1354 L-513185 1354 L-512882 1354 L-506633 1355 L-505686 1355 L-504060 1355 L-503558 1355 L-499882 1355 L-499050 1355 L-495097 1355 L-493685 1355 L-491195 1355 L-490519 1355 L-490480 1355 L-489609 1355 L-486398 1354 L-483535 1354 L-482567 1354 L-481446 1354 L-481427 1354 L-479802 1354 L-479338 1354 L-479246 1354 L-472876 1354 L-471928 1354 L-469471 1353 L-468599 1353 L-467362 1353 L-465361 1353 L-464964 1353 L-463527 1353 L-461501 1353 L-461288 1353 L-460108 1353 L-458599 1353 L-458579 1352 L-456567 1352 L-455698 1352 L-454827 1352 L-454242 1352 L-453705 1352 L-453047 1352 L-451809 1352 L-451248 1352 L-450067 1352 L-448830 1351 L-448791 1351 L-448404 1351 L-447862 1351 L-447089 1351 L-445966 1351 L-443877 1351 L-443544 1351 L-443258 1351 L-442330 1351 L-441846 1350 L-441111 1350 L-437480 1350 L-436352 1350 L-436197 1350 L-435171 1350 L-431457 1350 L-430239 1350 L-428421 1350 L-425635 1350 L-425074 1349 L-421186 1349 L-418709 1349 L-417374 1349 L-416871 1349 L-416388 1349 L-413698 1349 L-409927 1349 L-407470 1349 L-406290 1349 L-405651 1349 L-403291 1349 L-403214 1349 L-402166 1349 L-402073 1349 L-401570 1349 L-401124 1349 L-401067 1349 L-400853 1349 L-397893 1349 L-395186 1349 L-395031 1348 L-391510 1348 L-390987 1348 L-390020 1348 L-389671 1348 L-388627 1348 L-387699 1348 L-387273 1348 L-385764 1348 L-384797 1348 L-384778 1348 L-382882 1343 L-382766 1337 L-382718 1332 L-382694 1327 L-379690 1327 L-377659 1327 L-375898 1327 L-375531 1327 L-375085 1327 L-374719 1327 L-374305 1326 L-372320 1326 L-372106 1326 L-371951 1326 L-370346 1326 L-369224 1326 L-368276 1326 L-367019 1326 L-365374 1326 L-364195 1326 L-357605 1326 L-357559 1326 L-357153 1326 L-356108 1326 L-355972 1325 L-354290 1325 L-354270 1325 L-352933 1325 L-351697 1325 L-351543 1325 L-351169 1325 L-350963 1325 L-350653 1325 L-349879 1325 L-347558 1324 L-346900 1324 L-344772 1324 L-343050 1324 L-342856 1324 L-340303 1324 L-340027 1324 L-339838 1324 L-339006 1324 L-338233 1324 L-337535 1324 L-332535 1324 L-332159 1323 L-327906 1323 L-327419 1330 L-327400 1330 L-327321 1330 L-327245 1330 L-327226 1323 L-326413 1323 L-325659 1323 L-324440 1323 L-323008 1323 L-322912 1323 L-322737 1323 L-322383 1323 L-321074 1322 L-319216 1322 L-317514 1322 L-317011 1322 L-316746 1322 L-316353 1322 L-316218 1322 L-315309 1322 L-314932 1322 L-314004 1322 L-313665 1322 L-313625 1322 L-313587 1322 L-311672 1322 L-311498 1322 L-309969 1322 L-309641 1322 L-309525 1322 L-309118 1321 L-308770 1321 L-307126 1321 L-306575 1321 L-306332 1321 L-305791 1321 L-304959 1321 L-304418 1321 L-302883 1321 L-302791 1321 L-302754 1320 L-302618 1320 L-302231 1320 L-301206 1320 L-299330 1320 L-299233 1320 L-298633 1322 L-298266 1325 L-297781 1327 L-297743 1329 L-296970 1330 L-296912 1330 L-296738 1329 L-296544 1329 L-294939 1329 L-294919 1329 L-294764 1329 L-294648 1329 L-293469 1329 L-293314 1330 L-292647 1330 L-290199 1335 L-287684 1341 L-285014 1347 L-277315 1352 L-271647 1352 L-269433 1352 L-269409 1352 L-268435 1354 L-268415 1354 L-267552 1353 L-264811 1353 L-259013 1352 L-258859 1352 L-256074 1352 L-242465 1352 L-241719 1352 L-237309 1351 L-220962 1351 L-220730 1351 L-220193 1351 L-211734 1351 L-203028 1351 L-202816 1351 L-200843 1351 L-198057 1351 L-193570 1351 L-193415 1351 L-193246 1351 L-193105 1351 L-192815 1351 L-192776 1351 L-192505 1350 L-192334 1350 L-191923 1350 L-190803 1350 L-189623 1350 L-188346 1350 L-185482 1350 L-182562 1350 L-180570 1350 L-179022 1350 L-175984 1350 L-166660 1350 L-166136 1350 L-160412 1350 L-158905 1350 L-158090 1350 L-156407 1349 L-155686 1349 L-155517 1349 L-154472 1349 L-152405 1349 L-151043 1349 L-146599 1349 L-146502 1349 L-146464 1349 L-146445 1349 L-145612 1349 L-145534 1349 L-142962 1348 L-139713 1348 L-139558 1348 L-138609 1348 L-136868 1348 L-136153 1349 L-132612 1349 L-126035 1349 L-124618 1350 L-124597 1350 L-123646 1350 L-120172 1350 L-119419 1350 L-118857 1349 L-118075 1349 L-110571 1349 L-108972 1349 L-107398 1349 L-104213 1349 L-99880 1349 L-91310 1349 L-82564 1349 L-79490 1349 L-76224 1349 L-75678 1349 L-68540 1349 L-62873 1349 L-48808 1349 L-42797 1349 L-38091 1349 L-34087 1348 L-28980 1348 L-19266 1348 L-3695 1348 L-613 1348 L-310 1317 L-291 1279 L-272 1235 L-252 1186 L-233 1164 L-213 1146 L-195 1128 L-167 1111 L-146 1095 L-118 1078 L-83 1058 L-69 1042 L-56 1028 L-38 1016 L-19 1008 L0 999 L18 990 L37 981 L57 973 L78 963 L95 954 L114 946 L134 937 L154 929 L173 919 L192 910 L211 900 L232 890 L250 881 L269 872 L290 864 L315 855 L329 848 L347 840 L366 831 L386 824 L405 815 L424 806 L444 798 L464 790 L482 783 L501 776 L522 769 L542 763 L559 757 L578 752 L598 747 L617 742 L637 737 L656 732 L676 729 L695 725 L714 721 L733 717 L760 713 L781 708 L809 703 L843 697 L857 692 L870 687 L889 684 L908 680 L928 677 L946 673 L966 669 L986 664 L1006 661 L1024 657 L1043 654 L1063 650 L1083 645 L1101 641 L1120 635 L1140 630 L1160 624 L1178 619 L1197 613 L1218 607 L1243 600 L1257 594 L1275 587 L1294 581 L1314 575 L1333 568 L1352 561 L1372 555 L1392 548 L1411 542 L1429 536 L1450 530 L1470 524 L1488 518 L1507 513 L1527 508 L1546 504 L1565 499 L1584 494 L1604 490 L1623 485 L1643 481 L1662 476 L1690 471 L1710 467 L1738 463 L1775 458 L1790 453 L1803 448 L1820 444 L1837 441 L1857 438 L1875 435 L1894 432 L1914 430 L1935 427 L1952 424 L1971 421 L1991 418 L2011 415 L2030 411 L2048 408 L2068 404 L2088 399 L2107 395 L2126 391 L2147 387 L2171 383 L2186 379 L2203 375 L2223 371 L2242 367 L2262 363 L2281 358 L2301 354 L2321 350 L2339 345 L2358 342 L2378 338 L2398 334 L2416 331 L2435 327 L2455 324 L2474 320 L2494 317 L2513 314 L2533 310 L2552 307 L2571 304 L2590 301 L2618 298 L2638 294 L2666 290 L2703 285 L2717 281 L2730 276 L2747 272 L2765 270 L2785 267 L2804 264 L2824 260 L2843 257 L2864 253 L2883 249 L2900 245 L2920 240 L2941 235 L2959 231 L2977 225 L2997 220 L3018 215 L3036 211 L3054 207 L3076 204 L3101 201 L3115 199 L3133 196 L3152 194 L3171 191 L3190 188 L3209 185 L3229 183 L3250 181 L3268 179 L3287 176 L3307 173 L3328 170 L3345 167 L3364 164 L3384 162 L3403 160 L3422 159 L3441 157 L3461 155 L3481 154 L3500 152 L3519 150 L3546 148 L3567 146 L3595 145 L3630 142 L3643 140 L3657 139 L3675 137 L3694 136 L3714 134 L3732 133 L3752 132 L3772 130 L3793 129 L3810 128 L3828 126 L3849 125 L3869 123 L3887 122 L3906 120 L3926 119 L3946 118 L3964 116 L3983 115 L4004 114 L4029 112 L4044 111 L4061 110 L4080 109 L4100 107 L4119 106 L4138 105 L4158 103 L4179 102 L4196 100 L4215 99 L4236 98 L4256 96 L4274 95 L4293 94 L4313 93 L4331 92 L4351 91 L4370 90 L4390 89 L4409 88 L4428 87 L4447 89 L4476 90 L4496 91 L4524 93 L4561 91 L4576 90 L4589 89 L4606 89 L4623 88 L4642 87 L4661 86 L4681 86 L4700 85 L4722 84 L4738 84 L4757 83 L4777 82 L4798 81 L4816 80 L4834 80 L4854 79 L4874 78 L4893 77 L4912 77 L4933 76 L4958 75 L4972 74 L4989 74 L5009 73 L5028 72 L5048 71 L5067 70 L5086 69 L5107 68 L5125 67 L5144 66 L5164 65 L5185 64 L5202 63 L5221 62 L5241 61 L5260 60 L5280 59 L5298 58 L5318 57 L5338 56 L5357 55 L5376 55 L5403 54 L5424 53 L5452 52 L5487 51 L5500 50 L5514 49 L5533 48 L5551 47 L5571 47 L5589 46 L5609 45 L5629 44 L5650 43 L5667 42 L5685 41 L5706 40 L5726 39 L5744 38 L5763 37 L5783 36 L5803 34 L5821 33 L5840 32 L5861 31 L5886 29 L5901 28 L5918 27 L5937 26 L5957 25 L5976 23 L5995 22 L6015 21 L6036 20 L6053 19 L6072 18 L6093 17 L6114 16 L6131 15 L6150 14 L6170 13 L6189 12 L6208 12 L6227 11 L6247 10 L6267 10 L6286 9 L6304 9 L6332 8 L6353 7 L6381 6 L6416 5 L6430 4 L6443 3 L6462 2 L6480 1 L6500 0" />
</svg>
