<svg xmlns="http://www.w3.org/2000/svg" version="1.1" viewBox="0 0 6500 1000">
	<path fill="none" stroke="gold" stroke-width="125" stroke-linecap="round" stroke-linejoin="round" d="M0 3973  L-723768 3973 L-721164 3973 L-719496 3973 L-701166 3973 L-700996 3972 L-693838 3972 L-693805 3972 L-680374 3972 L-677452 3972 L-664112 3971 L-659943 3971 L-658783 3970 L-658163 3969 L-656152 3968 L-652380 3968 L-651780 3968 L-651451 3967 L-651238 3967 L-650696 3966 L-649458 3965 L-648279 3964 L-645415 3962 L-644893 3961 L-640037 3960 L-637100 3960 L-637057 3959 L-636749 3959 L-636497 3959 L-633902 3958 L-629646 3958 L-629628 3958 L-628392 3958 L-626514 3958 L-624561 3958 L-623613 3958 L-623342 3957 L-623032 3957 L-622934 3957 L-622104 3957 L-620073 3957 L-619782 3955 L-617636 3955 L-617481 3954 L-613824 3952 L-613573 3953 L-613475 3953 L-612957 3953 L-610806 3954 L-609877 3955 L-608351 3956 L-607112 3956 L-605565 3956 L-602604 3956 L-601482 3955 L-601173 3955 L-599961 3955 L-596955 3957 L-596935 3956 L-596588 3956 L-596375 3956 L-596248 3954 L-596007 3953 L-595969 3953 L-595949 3952 L-595930 3952 L-595871 3952 L-595812 3951 L-595794 3951 L-595351 3951 L-594112 3950 L-592566 3950 L-589178 3949 L-583452 3949 L-583251 3949 L-581615 3949 L-579893 3949 L-578461 3949 L-578228 3948 L-577513 3948 L-571381 3948 L-571013 3948 L-570859 3947 L-570280 3947 L-569988 3947 L-569021 3946 L-568711 3946 L-568112 3945 L-566506 3945 L-565771 3945 L-565461 3946 L-564692 3946 L-562656 3945 L-562231 3945 L-561418 3945 L-553990 3944 L-553467 3944 L-553293 3944 L-552558 3943 L-550991 3943 L-550585 3943 L-548360 3942 L-547412 3942 L-546987 3942 L-546657 3942 L-545613 3942 L-543505 3941 L-543253 3941 L-542634 3941 L-541821 3940 L-539713 3940 L-539665 3940 L-537736 3939 L-537411 3939 L-537276 3939 L-536773 3938 L-535360 3938 L-534857 3937 L-534335 3937 L-530775 3936 L-530040 3935 L-527616 3935 L-526326 3935 L-525919 3935 L-522767 3935 L-522612 3935 L-522592 3935 L-522225 3935 L-520967 3935 L-520252 3935 L-519362 3935 L-518955 3935 L-518026 3935 L-516918 3935 L-516614 3936 L-510366 3936 L-509418 3937 L-507792 3937 L-507290 3937 L-503615 3937 L-502782 3937 L-498829 3938 L-497417 3937 L-494928 3937 L-494252 3936 L-494213 3936 L-493342 3936 L-490131 3936 L-487268 3936 L-486300 3936 L-485178 3935 L-485159 3935 L-483534 3934 L-483070 3934 L-482978 3934 L-476609 3934 L-475661 3933 L-473203 3933 L-472331 3933 L-471095 3933 L-469094 3932 L-468696 3932 L-467260 3932 L-465234 3932 L-465021 3931 L-463841 3931 L-462332 3931 L-462312 3931 L-460300 3930 L-459430 3930 L-458559 3930 L-457974 3930 L-457437 3929 L-456780 3929 L-455541 3928 L-454981 3928 L-453800 3928 L-452562 3928 L-452524 3928 L-452137 3927 L-451595 3927 L-450821 3927 L-449699 3927 L-447610 3926 L-447277 3926 L-446991 3926 L-446062 3925 L-445579 3925 L-444844 3925 L-441212 3925 L-440085 3925 L-439930 3924 L-438904 3924 L-435189 3924 L-433972 3923 L-432153 3923 L-429368 3923 L-428806 3922 L-424918 3922 L-422442 3922 L-421107 3922 L-420604 3922 L-420120 3922 L-417431 3922 L-413659 3922 L-411202 3922 L-410022 3922 L-409383 3922 L-407024 3921 L-406946 3921 L-405899 3921 L-405805 3921 L-405302 3921 L-404857 3921 L-404799 3921 L-404586 3921 L-401626 3920 L-398918 3920 L-398764 3920 L-395243 3920 L-394720 3919 L-393753 3919 L-393403 3919 L-392360 3918 L-391431 3918 L-391006 3918 L-389497 3918 L-388530 3918 L-388511 3918 L-386615 3904 L-386499 3890 L-386451 3876 L-386426 3863 L-383422 3863 L-381392 3862 L-379631 3862 L-379264 3862 L-378818 3862 L-378451 3861 L-378037 3861 L-376052 3861 L-375839 3861 L-375684 3861 L-374079 3861 L-372957 3860 L-372009 3860 L-370752 3860 L-369107 3860 L-367927 3859 L-361338 3859 L-361291 3859 L-360886 3859 L-359840 3859 L-359705 3858 L-358022 3858 L-358003 3858 L-356666 3857 L-355430 3857 L-355275 3857 L-354901 3857 L-354695 3857 L-354386 3856 L-353612 3856 L-351290 3856 L-350633 3856 L-348505 3855 L-346782 3855 L-346589 3855 L-344036 3855 L-343759 3854 L-343571 3854 L-342739 3854 L-341966 3854 L-341268 3853 L-336267 3853 L-335892 3853 L-331639 3853 L-331152 3871 L-331132 3871 L-331053 3871 L-330978 3871 L-330958 3852 L-330145 3852 L-329392 3851 L-328172 3851 L-326741 3851 L-326644 3851 L-326470 3851 L-326115 3851 L-324806 3850 L-322949 3850 L-321247 3850 L-320744 3850 L-320478 3850 L-320085 3849 L-319951 3849 L-319041 3849 L-318665 3849 L-317736 3849 L-317397 3849 L-317358 3849 L-317320 3848 L-315405 3848 L-315231 3848 L-313702 3848 L-313374 3848 L-313258 3848 L-312851 3847 L-312503 3847 L-310859 3847 L-310308 3847 L-310065 3847 L-309523 3846 L-308692 3846 L-308150 3846 L-306616 3845 L-306524 3845 L-306487 3845 L-306351 3845 L-305964 3845 L-304939 3845 L-303062 3844 L-302966 3844 L-302366 3850 L-301999 3856 L-301514 3863 L-301476 3869 L-300702 3869 L-300645 3869 L-300470 3869 L-300277 3869 L-298671 3868 L-298651 3868 L-298496 3869 L-298381 3869 L-297201 3869 L-297046 3869 L-296379 3869 L-293931 3885 L-291416 3900 L-288747 3915 L-281047 3930 L-275380 3930 L-273165 3930 L-273142 3930 L-272168 3934 L-272148 3934 L-271284 3933 L-268544 3933 L-262746 3929 L-262592 3929 L-259806 3929 L-246198 3928 L-245452 3928 L-241041 3928 L-224695 3927 L-224463 3927 L-223926 3927 L-215466 3927 L-206761 3927 L-206549 3926 L-204576 3926 L-201790 3926 L-197302 3926 L-197148 3926 L-196978 3926 L-196838 3926 L-196547 3926 L-196509 3925 L-196238 3925 L-196066 3925 L-195656 3925 L-194536 3925 L-193355 3925 L-192078 3924 L-189215 3924 L-186294 3924 L-184302 3924 L-182755 3923 L-179717 3923 L-170392 3923 L-169868 3923 L-164144 3923 L-162637 3923 L-161823 3923 L-160139 3922 L-159418 3922 L-159250 3922 L-158205 3922 L-156137 3922 L-154775 3921 L-150332 3921 L-150235 3921 L-150196 3921 L-150177 3921 L-149345 3920 L-149267 3920 L-146695 3920 L-143445 3920 L-143290 3920 L-142342 3919 L-140601 3919 L-139886 3920 L-136345 3921 L-129768 3922 L-128350 3924 L-128329 3923 L-127379 3923 L-123905 3923 L-123151 3923 L-122590 3922 L-121808 3922 L-114303 3922 L-112705 3922 L-111131 3922 L-107946 3922 L-103613 3921 L-95043 3921 L-86297 3921 L-83223 3921 L-79957 3921 L-79410 3920 L-72273 3920 L-66605 3920 L-52541 3920 L-46530 3920 L-41823 3920 L-37820 3920 L-32713 3920 L-22999 3920 L-7428 3919 L-4345 3919 L-4043 3836 L-4023 3733 L-4005 3617 L-3985 3487 L-3965 3428 L-3946 3378 L-3927 3332 L-3900 3286 L-3879 3242 L-3851 3196 L-3816 3145 L-3802 3101 L-3789 3064 L-3770 3033 L-3752 3010 L-3732 2986 L-3714 2963 L-3694 2939 L-3674 2916 L-3653 2891 L-3636 2867 L-3618 2843 L-3597 2821 L-3577 2798 L-3559 2773 L-3540 2748 L-3520 2721 L-3500 2696 L-3482 2671 L-3463 2648 L-3442 2625 L-3417 2602 L-3402 2581 L-3385 2560 L-3366 2538 L-3346 2518 L-3327 2495 L-3308 2472 L-3288 2450 L-3267 2429 L-3250 2408 L-3231 2389 L-3210 2372 L-3190 2355 L-3172 2340 L-3153 2326 L-3133 2312 L-3115 2298 L-3095 2285 L-3076 2273 L-3056 2263 L-3037 2254 L-3017 2244 L-2999 2234 L-2971 2221 L-2950 2208 L-2923 2194 L-2889 2178 L-2874 2165 L-2861 2154 L-2843 2143 L-2824 2134 L-2804 2125 L-2785 2114 L-2766 2103 L-2746 2092 L-2725 2082 L-2708 2073 L-2689 2063 L-2669 2053 L-2649 2041 L-2630 2028 L-2612 2014 L-2592 2000 L-2572 1985 L-2553 1970 L-2534 1956 L-2513 1939 L-2489 1921 L-2474 1903 L-2457 1886 L-2437 1869 L-2418 1852 L-2398 1835 L-2380 1816 L-2360 1798 L-2339 1781 L-2321 1764 L-2302 1748 L-2282 1732 L-2262 1716 L-2244 1702 L-2225 1688 L-2205 1674 L-2186 1662 L-2166 1650 L-2148 1637 L-2128 1626 L-2108 1613 L-2089 1601 L-2070 1589 L-2041 1576 L-2022 1565 L-1994 1554 L-1957 1539 L-1942 1526 L-1929 1514 L-1912 1502 L-1895 1494 L-1875 1486 L-1857 1479 L-1837 1472 L-1817 1465 L-1797 1458 L-1779 1450 L-1761 1442 L-1740 1433 L-1720 1425 L-1702 1415 L-1683 1406 L-1663 1395 L-1644 1384 L-1625 1373 L-1606 1362 L-1585 1352 L-1560 1340 L-1546 1330 L-1529 1319 L-1509 1308 L-1490 1297 L-1470 1286 L-1451 1274 L-1431 1262 L-1411 1251 L-1392 1239 L-1374 1229 L-1353 1219 L-1333 1210 L-1315 1201 L-1296 1191 L-1276 1182 L-1258 1173 L-1238 1163 L-1219 1155 L-1199 1146 L-1180 1137 L-1160 1129 L-1141 1120 L-1113 1112 L-1093 1103 L-1065 1093 L-1029 1079 L-1015 1066 L-1002 1054 L-984 1044 L-966 1037 L-946 1030 L-928 1021 L-908 1013 L-888 1003 L-867 993 L-849 982 L-832 971 L-811 958 L-791 946 L-773 933 L-754 919 L-734 905 L-714 891 L-696 879 L-677 869 L-656 861 L-631 854 L-616 848 L-599 841 L-580 834 L-560 827 L-541 819 L-522 812 L-502 805 L-481 800 L-464 794 L-445 788 L-424 780 L-404 771 L-387 762 L-368 755 L-347 749 L-329 745 L-309 741 L-290 737 L-270 732 L-251 727 L-232 722 L-213 717 L-185 712 L-165 708 L-137 703 L-102 696 L-88 691 L-75 687 L-56 683 L-38 679 L-18 676 L0 672 L19 668 L39 665 L60 662 L77 658 L96 654 L116 650 L136 646 L154 641 L173 637 L193 634 L213 631 L232 627 L250 624 L272 620 L297 617 L311 613 L328 610 L348 607 L367 604 L386 600 L405 596 L425 592 L446 588 L464 584 L483 581 L503 577 L524 574 L541 571 L560 568 L580 565 L599 561 L619 558 L637 556 L657 554 L677 551 L696 549 L715 553 L743 557 L763 561 L791 564 L828 561 L844 558 L856 556 L874 554 L890 552 L910 550 L928 548 L948 545 L968 543 L989 542 L1006 540 L1024 538 L1045 536 L1065 534 L1083 532 L1102 529 L1122 527 L1142 525 L1160 523 L1179 521 L1200 519 L1225 518 L1239 515 L1257 513 L1276 511 L1296 509 L1315 507 L1334 505 L1354 502 L1375 499 L1392 496 L1411 493 L1432 490 L1452 488 L1470 485 L1489 482 L1508 480 L1527 478 L1547 475 L1566 472 L1586 469 L1605 466 L1625 465 L1643 463 L1671 460 L1691 458 L1719 455 L1754 452 L1768 449 L1781 447 L1800 445 L1819 443 L1839 441 L1857 439 L1876 436 L1896 434 L1917 432 L1934 430 L1953 427 L1973 425 L1993 422 L2012 419 L2030 415 L2050 412 L2071 408 L2089 405 L2107 402 L2129 399 L2154 395 L2168 392 L2186 389 L2205 386 L2224 382 L2243 379 L2263 376 L2283 373 L2303 369 L2321 367 L2340 364 L2360 361 L2381 358 L2398 356 L2417 353 L2437 352 L2456 350 L2476 348 L2494 346 L2514 344 L2534 342 L2553 341 L2572 339 L2599 338 L2620 336 L2648 334 L2683 330 L2697 327 L2710 324 L2729 321 L2747 319 L2767 317 L2785 315 L2805 313 L2825 311 L2846 309 L2863 306 L2881 304 L2902 302 L2922 299 L2940 296 L2959 294 L2979 291 L2999 288 L3017 286 L3036 284 L3057 282 L3082 280 L3097 278 L3114 276 L3133 273 L3153 271 L3172 268 L3191 265 L3211 262 L3232 258 L3249 255 L3268 252 L3289 249 L3310 247 L3327 245 L3346 243 L3366 241 L3385 240 L3404 238 L3423 236 L3443 235 L3462 233 L3482 232 L3500 230 L3528 229 L3549 227 L3576 226 L3611 224 L3625 223 L3638 221 L3657 220 L3675 219 L3695 217 L3714 216 L3733 215 L3753 214 L3774 213 L3791 212 L3810 210 L3830 209 L3850 207 L3868 206 L3887 205 L3907 204 L3927 203 L3946 202 L3965 201 L3986 200 L4010 199 L4025 198 L4042 196 L4062 195 L4081 194 L4101 192 L4119 191 L4139 190 L4160 187 L4178 185 L4197 182 L4217 179 L4238 177 L4255 176 L4274 174 L4294 172 L4313 170 L4333 168 L4351 167 L4371 165 L4391 164 L4410 163 L4429 161 L4458 160 L4505 159 L4542 158 L4557 156 L4570 155 L4587 154 L4604 153 L4624 153 L4642 152 L4662 151 L4682 150 L4702 149 L4720 148 L4738 147 L4759 147 L4778 145 L4797 144 L4816 143 L4836 142 L4856 141 L4874 139 L4893 138 L4914 136 L4939 134 L4953 132 L4971 130 L4990 128 L5009 126 L5029 124 L5048 123 L5068 121 L5089 119 L5106 117 L5125 115 L5146 114 L5166 113 L5184 111 L5203 110 L5223 109 L5242 108 L5261 106 L5280 105 L5300 104 L5319 102 L5339 101 L5358 99 L5386 98 L5406 97 L5434 95 L5471 92 L5485 89 L5498 86 L5515 84 L5533 83 L5553 81 L5571 80 L5591 79 L5611 78 L5632 77 L5649 76 L5667 74 L5688 72 L5708 70 L5726 68 L5745 65 L5765 62 L5785 60 L5803 58 L5822 56 L5843 54 L5868 52 L5883 50 L5901 48 L5919 47 L5939 45 L5958 43 L5977 41 L5997 39 L6018 37 L6035 35 L6054 34 L6075 32 L6096 30 L6112 29 L6131 27 L6151 26 L6170 25 L6190 23 L6209 22 L6228 20 L6249 19 L6267 18 L6286 16 L6314 997 L6334 995 L6362 993 L6398 991 L6412 8 L6426 6 L6443 4 L6461 3 L6481 2 L6500 1" />
</svg>
