<svg xmlns="http://www.w3.org/2000/svg" version="1.1" viewBox="0 0 6500 1000">
	<path fill="none" stroke="gold" stroke-width="125" stroke-linecap="round" stroke-linejoin="round" d="M0 1469  L-720170 1469 L-717566 1469 L-715898 1469 L-697569 1469 L-697399 1469 L-690241 1469 L-690208 1469 L-676777 1469 L-673855 1469 L-660514 1469 L-656345 1468 L-655185 1468 L-654566 1467 L-652554 1467 L-648782 1467 L-648182 1467 L-647853 1467 L-647640 1467 L-647099 1467 L-645861 1466 L-644682 1465 L-641817 1465 L-641295 1464 L-636440 1464 L-633502 1464 L-633459 1464 L-633151 1464 L-632899 1463 L-630304 1463 L-626049 1463 L-626031 1463 L-624794 1463 L-622917 1463 L-620963 1463 L-620015 1463 L-619744 1463 L-619435 1463 L-619336 1463 L-618506 1463 L-616475 1463 L-616185 1462 L-614038 1462 L-613883 1461 L-610227 1461 L-609976 1461 L-609877 1461 L-609360 1461 L-607209 1462 L-606280 1462 L-604754 1462 L-603514 1462 L-601968 1462 L-599006 1462 L-597884 1462 L-597575 1462 L-596364 1462 L-593357 1463 L-593338 1463 L-592990 1462 L-592777 1462 L-592651 1461 L-592409 1461 L-592371 1461 L-592352 1461 L-592332 1461 L-592273 1461 L-592215 1460 L-592197 1460 L-591754 1460 L-590514 1460 L-588969 1460 L-585581 1460 L-579855 1460 L-579653 1460 L-578017 1460 L-576295 1459 L-574863 1459 L-574631 1459 L-573916 1459 L-567783 1459 L-567416 1459 L-567261 1459 L-566683 1459 L-566390 1459 L-565423 1458 L-565113 1458 L-564514 1458 L-562908 1458 L-562173 1458 L-561863 1458 L-561095 1458 L-559059 1458 L-558633 1458 L-557821 1458 L-550392 1458 L-549869 1458 L-549696 1457 L-548961 1457 L-547393 1457 L-546987 1457 L-544762 1457 L-543814 1457 L-543389 1457 L-543059 1457 L-542015 1457 L-539907 1456 L-539655 1456 L-539036 1456 L-538223 1456 L-536116 1456 L-536067 1456 L-534139 1456 L-533813 1456 L-533678 1455 L-533175 1455 L-531762 1455 L-531259 1455 L-530738 1455 L-527178 1454 L-526443 1454 L-524018 1454 L-522729 1454 L-522322 1454 L-519169 1454 L-519014 1454 L-518994 1454 L-518627 1454 L-517369 1454 L-516654 1454 L-515764 1454 L-515357 1454 L-514429 1454 L-513320 1454 L-513017 1454 L-506768 1454 L-505821 1455 L-504195 1455 L-503693 1455 L-500017 1455 L-499185 1455 L-495232 1455 L-493820 1455 L-491331 1455 L-490654 1454 L-490615 1454 L-489745 1454 L-486533 1454 L-483670 1454 L-482702 1454 L-481581 1454 L-481562 1454 L-479937 1454 L-479473 1454 L-479381 1453 L-473011 1453 L-472063 1453 L-469606 1453 L-468734 1453 L-467498 1453 L-465496 1453 L-465099 1453 L-463662 1453 L-461636 1453 L-461423 1452 L-460243 1452 L-458735 1452 L-458714 1452 L-456702 1452 L-455833 1452 L-454962 1452 L-454377 1452 L-453840 1452 L-453182 1451 L-451944 1451 L-451383 1451 L-450202 1451 L-448965 1451 L-448926 1451 L-448539 1451 L-447998 1451 L-447224 1451 L-446102 1451 L-444012 1450 L-443679 1450 L-443393 1450 L-442465 1450 L-441981 1450 L-441246 1450 L-437615 1450 L-436487 1450 L-436332 1450 L-435306 1450 L-431592 1449 L-430374 1449 L-428556 1449 L-425770 1449 L-425209 1449 L-421321 1449 L-418844 1449 L-417509 1449 L-417006 1449 L-416523 1449 L-413834 1449 L-410062 1449 L-407605 1449 L-406425 1449 L-405786 1449 L-403426 1448 L-403349 1448 L-402301 1448 L-402208 1448 L-401705 1448 L-401259 1448 L-401202 1448 L-400988 1448 L-398028 1448 L-395321 1448 L-395166 1448 L-391645 1448 L-391122 1448 L-390155 1448 L-389806 1447 L-388762 1447 L-387834 1447 L-387408 1447 L-385899 1447 L-384932 1447 L-384913 1447 L-383017 1442 L-382901 1436 L-382853 1431 L-382829 1425 L-379825 1425 L-377794 1425 L-376033 1425 L-375666 1425 L-375221 1425 L-374854 1424 L-374440 1424 L-372455 1424 L-372242 1424 L-372087 1424 L-370481 1424 L-369360 1424 L-368411 1424 L-367154 1424 L-365509 1424 L-364330 1424 L-357740 1424 L-357694 1424 L-357288 1423 L-356243 1423 L-356107 1423 L-354425 1423 L-354405 1423 L-353068 1423 L-351832 1423 L-351678 1423 L-351304 1423 L-351098 1423 L-350788 1422 L-350014 1422 L-347693 1422 L-347035 1422 L-344907 1422 L-343185 1422 L-342991 1422 L-340438 1422 L-340162 1422 L-339973 1422 L-339141 1421 L-338368 1421 L-337670 1421 L-332670 1421 L-332294 1421 L-328041 1421 L-327554 1428 L-327535 1428 L-327456 1428 L-327380 1428 L-327361 1421 L-326548 1421 L-325794 1420 L-324575 1420 L-323143 1420 L-323047 1420 L-322872 1420 L-322518 1420 L-321209 1420 L-319351 1420 L-317649 1420 L-317146 1420 L-316881 1420 L-316488 1420 L-316354 1420 L-315444 1420 L-315067 1419 L-314139 1419 L-313800 1419 L-313760 1419 L-313723 1419 L-311807 1419 L-311633 1419 L-310105 1419 L-309776 1419 L-309660 1419 L-309253 1419 L-308905 1419 L-307261 1419 L-306710 1419 L-306467 1419 L-305926 1418 L-305095 1418 L-304553 1418 L-303018 1418 L-302926 1418 L-302889 1418 L-302753 1418 L-302366 1418 L-301341 1418 L-299465 1418 L-299369 1418 L-298768 1420 L-298401 1422 L-297917 1425 L-297878 1428 L-297105 1428 L-297047 1428 L-296873 1428 L-296679 1427 L-295074 1427 L-295054 1427 L-294899 1427 L-294783 1427 L-293604 1428 L-293449 1428 L-292782 1428 L-290334 1434 L-287819 1440 L-285149 1446 L-277450 1452 L-271782 1452 L-269568 1452 L-269544 1452 L-268570 1453 L-268550 1453 L-267687 1453 L-264947 1453 L-259148 1452 L-258995 1451 L-256209 1451 L-242600 1451 L-241855 1451 L-237444 1451 L-221098 1451 L-220865 1451 L-220328 1451 L-211869 1451 L-203163 1451 L-202951 1450 L-200978 1450 L-198192 1450 L-193705 1450 L-193550 1450 L-193381 1450 L-193241 1450 L-192950 1450 L-192911 1450 L-192640 1450 L-192469 1450 L-192059 1450 L-190938 1450 L-189758 1450 L-188481 1450 L-185617 1450 L-182697 1450 L-180705 1449 L-179157 1449 L-176119 1449 L-166795 1449 L-166271 1449 L-160547 1449 L-159040 1449 L-158225 1449 L-156542 1449 L-155821 1449 L-155652 1449 L-154607 1449 L-152540 1449 L-151178 1448 L-146734 1448 L-146637 1448 L-146599 1448 L-146580 1448 L-145747 1448 L-145669 1448 L-143097 1448 L-139848 1448 L-139693 1448 L-138744 1448 L-137003 1448 L-136288 1448 L-132747 1448 L-126170 1449 L-124753 1449 L-124732 1449 L-123781 1449 L-120307 1449 L-119554 1449 L-118992 1449 L-118210 1449 L-110706 1449 L-109108 1449 L-107534 1449 L-104348 1449 L-100015 1448 L-91445 1448 L-82699 1448 L-79625 1448 L-76359 1448 L-75813 1448 L-68676 1448 L-63008 1448 L-48943 1448 L-42932 1448 L-38226 1448 L-34222 1448 L-29115 1448 L-19401 1448 L-3830 1448 L-748 1447 L-445 1414 L-426 1373 L-407 1327 L-387 1275 L-368 1251 L-348 1231 L-330 1213 L-302 1194 L-281 1177 L-253 1158 L-218 1138 L-205 1120 L-191 1105 L-173 1093 L-154 1084 L-134 1074 L-116 1065 L-97 1056 L-77 1046 L-56 1036 L-39 1027 L-20 1017 L0 1008 L19 999 L38 989 L56 979 L76 968 L96 958 L115 948 L134 939 L155 930 L180 921 L194 912 L211 904 L231 895 L251 887 L270 878 L288 868 L309 860 L329 851 L347 843 L366 836 L386 828 L407 822 L424 816 L443 810 L463 804 L482 799 L502 794 L520 789 L540 785 L560 781 L579 777 L598 773 L625 768 L646 763 L674 757 L708 751 L722 746 L735 741 L754 737 L773 733 L793 730 L811 725 L831 721 L851 717 L871 713 L889 709 L907 705 L928 701 L947 696 L966 691 L985 685 L1005 680 L1025 674 L1043 668 L1062 662 L1083 655 L1108 648 L1122 641 L1139 634 L1159 627 L1178 621 L1198 614 L1217 606 L1237 599 L1257 592 L1275 585 L1294 579 L1315 573 L1335 566 L1353 560 L1372 555 L1392 549 L1410 545 L1430 540 L1449 535 L1469 530 L1488 525 L1508 520 L1526 515 L1555 510 L1575 506 L1603 501 L1640 496 L1655 490 L1667 485 L1685 481 L1702 477 L1721 474 L1740 471 L1759 468 L1779 466 L1800 463 L1817 460 L1836 457 L1856 453 L1876 450 L1895 446 L1913 442 L1933 438 L1953 433 L1972 429 L1991 424 L2012 420 L2036 416 L2051 412 L2068 407 L2088 403 L2107 399 L2127 394 L2146 389 L2166 385 L2186 380 L2204 375 L2223 371 L2243 367 L2263 364 L2281 360 L2300 356 L2320 353 L2339 349 L2359 345 L2378 342 L2397 338 L2417 335 L2436 331 L2455 328 L2483 324 L2503 321 L2531 317 L2567 311 L2582 306 L2595 301 L2612 297 L2630 295 L2650 292 L2669 288 L2688 285 L2708 281 L2729 277 L2748 272 L2765 268 L2785 263 L2805 258 L2824 253 L2842 247 L2862 241 L2883 236 L2900 231 L2919 227 L2941 224 L2966 221 L2980 219 L2998 216 L3017 213 L3036 210 L3055 207 L3074 204 L3094 202 L3115 200 L3133 197 L3152 195 L3172 192 L3193 188 L3210 184 L3229 182 L3249 179 L3268 178 L3287 176 L3306 174 L3326 172 L3346 170 L3365 168 L3384 166 L3411 165 L3432 163 L3460 161 L3495 158 L3508 156 L3522 154 L3540 153 L3559 151 L3579 150 L3597 148 L3617 147 L3636 146 L3657 144 L3675 143 L3693 141 L3714 140 L3734 138 L3752 136 L3771 135 L3791 133 L3811 132 L3829 130 L3848 129 L3869 128 L3894 126 L3909 125 L3926 124 L3945 122 L3965 121 L3984 120 L4003 118 L4023 116 L4044 115 L4061 113 L4080 112 L4101 111 L4121 109 L4139 108 L4157 107 L4177 105 L4196 104 L4216 103 L4235 102 L4255 101 L4274 100 L4293 99 L4312 101 L4341 102 L4361 104 L4389 105 L4426 104 L4441 103 L4454 102 L4471 101 L4487 100 L4507 100 L4526 99 L4545 98 L4565 97 L4586 96 L4603 96 L4622 95 L4642 94 L4662 93 L4681 92 L4699 91 L4719 90 L4739 90 L4757 89 L4776 88 L4798 87 L4823 87 L4837 86 L4854 85 L4874 84 L4893 83 L4913 82 L4932 81 L4951 80 L4972 79 L4990 78 L5009 77 L5029 76 L5050 75 L5067 74 L5086 73 L5106 72 L5125 71 L5145 69 L5163 68 L5183 67 L5203 66 L5222 66 L5241 65 L5268 64 L5289 63 L5317 62 L5352 60 L5365 59 L5379 59 L5398 58 L5416 57 L5436 56 L5454 55 L5474 54 L5494 53 L5515 52 L5532 51 L5550 51 L5571 50 L5591 48 L5609 47 L5628 46 L5648 44 L5668 43 L5686 42 L5705 40 L5726 39 L5751 38 L5766 37 L5783 35 L5802 34 L5822 33 L5841 31 L5860 30 L5880 29 L5901 27 L5918 26 L5937 25 L5958 24 L5979 23 L5996 22 L6015 21 L6035 20 L6054 19 L6073 19 L6092 18 L6112 17 L6132 17 L6151 16 L6169 15 L6197 15 L6218 14 L6245 13 L6281 12 L6295 11 L6308 9 L6326 8 L6345 7 L6364 6 L6383 6 L6402 5 L6422 4 L6443 3 L6460 2 L6479 1 L6500 0" />
</svg>
