<svg xmlns="http://www.w3.org/2000/svg" version="1.1" viewBox="0 0 6500 1000">
	<path fill="none" stroke="gold" stroke-width="125" stroke-linecap="round" stroke-linejoin="round" d="M0 32917  L-593363 32917 L-590759 32798 L-589091 32680 L-570761 32443 L-570591 32207 L-563433 31970 L-563400 31970 L-549969 31852 L-547047 31970 L-533707 31615 L-529538 31142 L-528377 30550 L-527758 29958 L-525746 29603 L-521975 29366 L-521375 29130 L-521046 28893 L-520833 28656 L-520291 28420 L-519053 27473 L-517874 26526 L-515010 25579 L-514488 24633 L-509632 24396 L-506695 24159 L-506652 23923 L-506344 23686 L-506092 23449 L-503497 23213 L-499241 23213 L-499223 23213 L-497987 23213 L-496109 23213 L-494156 22976 L-493208 22739 L-492937 22502 L-492627 22384 L-492529 22266 L-491699 22266 L-489668 22384 L-489377 21319 L-487231 20846 L-487075 20136 L-483419 19426 L-483168 19781 L-483070 19662 L-482552 20017 L-480401 20609 L-479472 21201 L-477946 21792 L-476707 21792 L-475160 21674 L-472199 21437 L-471077 21201 L-470768 20964 L-469556 20846 L-466550 22147 L-466530 22029 L-466183 21911 L-465970 21792 L-465843 20136 L-465602 19899 L-465564 19662 L-465544 19426 L-465525 19189 L-465466 18952 L-465407 18715 L-465389 18479 L-464946 18242 L-463707 18005 L-462161 17769 L-458773 17532 L-453047 17414 L-452846 17295 L-451210 17177 L-449488 17059 L-448056 16940 L-447823 16822 L-447108 16704 L-440976 16585 L-440608 16349 L-440454 16112 L-439875 15875 L-439583 15639 L-438615 15402 L-438306 15165 L-437707 14928 L-436101 14928 L-435365 14928 L-435056 15047 L-434287 15047 L-432251 14810 L-431826 14573 L-431013 14455 L-423585 14218 L-423062 13982 L-422888 13745 L-422153 13508 L-420586 13272 L-420180 13153 L-417955 12917 L-417007 12798 L-416582 12680 L-416252 12680 L-415208 12562 L-413100 12325 L-412848 12088 L-412229 11852 L-411416 11733 L-409308 11497 L-409260 11260 L-407331 11023 L-407006 10786 L-406871 10550 L-406367 10431 L-404955 10195 L-404452 9721 L-403930 9366 L-400370 8893 L-399635 8420 L-397210 8420 L-395921 8183 L-395514 8065 L-392362 8065 L-392207 8065 L-392187 8183 L-391820 8183 L-390562 8301 L-389847 8420 L-388957 8420 L-388550 8420 L-387621 8420 L-386513 8301 L-386209 8775 L-379961 9011 L-379013 9248 L-377387 9485 L-376885 9603 L-373210 9721 L-372377 9840 L-368424 9958 L-367012 9603 L-364523 9366 L-363847 9130 L-363808 9011 L-362937 9011 L-359726 8893 L-356863 8775 L-355895 8656 L-354773 8420 L-354754 8183 L-353129 7946 L-352665 7591 L-352573 7473 L-346204 7355 L-345255 7236 L-342798 7118 L-341926 6881 L-340690 6763 L-338689 6644 L-338291 6408 L-336855 6171 L-334829 6053 L-334616 5816 L-333435 5698 L-331927 5579 L-331907 5461 L-329895 5343 L-329025 5106 L-328154 4988 L-327569 4751 L-327032 4514 L-326374 4278 L-325136 4041 L-324576 3923 L-323395 3804 L-322157 3686 L-322119 3568 L-321732 3449 L-321190 3213 L-320416 3094 L-319294 2976 L-317205 2739 L-316871 2502 L-316586 2266 L-315657 2147 L-315174 1911 L-314438 1792 L-310807 1674 L-309680 1556 L-309525 1437 L-308499 1201 L-304784 1082 L-303567 846 L-301748 609 L-298963 491 L-298401 254 L-294513 254 L-292037 136 L-290702 136 L-290198 17 L-289715 -100 L-287026 -100 L-283254 -100 L-280797 -100 L-279617 -100 L-278978 -218 L-276619 -455 L-276541 -573 L-275494 -692 L-275400 -928 L-274897 -928 L-274452 -928 L-274394 -928 L-274181 -928 L-271221 -1165 L-268513 -1284 L-268359 -1402 L-264838 -1520 L-264315 -1757 L-263347 -1994 L-262998 -2112 L-261955 -2349 L-261026 -2585 L-260601 -2704 L-259091 -2704 L-258125 -2822 L-258106 -2940 L-256210 -11579 L-256094 -20455 L-256046 -29213 L-256021 -37970 L-253017 -38088 L-250986 -38325 L-249226 -38443 L-248859 -38562 L-248413 -38798 L-248046 -38917 L-247632 -39153 L-245647 -39272 L-245434 -39272 L-245279 -39390 L-243674 -39390 L-242552 -39508 L-241604 -39627 L-240346 -39863 L-238702 -39982 L-237522 -40218 L-230933 -40337 L-230886 -40455 L-230480 -40573 L-229435 -40692 L-229300 -40810 L-227617 -41047 L-227597 -41165 L-226261 -41402 L-225024 -41520 L-224870 -41639 L-224496 -41875 L-224290 -41994 L-223981 -42112 L-223207 -42349 L-220885 -42467 L-220228 -42585 L-218100 -42704 L-216377 -42822 L-216184 -43059 L-213630 -43177 L-213354 -43414 L-213166 -43650 L-212333 -43769 L-211561 -43887 L-210863 -44005 L-205862 -44005 L-205486 -44242 L-201234 -44360 L-200746 -32644 L-200727 -32644 L-200648 -32763 L-200573 -32881 L-200553 -44952 L-199740 -45071 L-198987 -45307 L-197767 -45426 L-196336 -45426 L-196239 -45544 L-196065 -45544 L-195710 -45781 L-194401 -45899 L-192544 -46017 L-190842 -46254 L-190339 -46372 L-190073 -46491 L-189680 -46609 L-189546 -46727 L-188636 -46846 L-188260 -46964 L-187331 -46964 L-186992 -47082 L-186953 -47082 L-186915 -47201 L-184999 -47201 L-184826 -47319 L-183297 -47319 L-182969 -47437 L-182853 -47556 L-182446 -47792 L-182097 -47911 L-180454 -48147 L-179903 -48266 L-179660 -48384 L-179118 -48502 L-178287 -48739 L-177745 -48857 L-176211 -49094 L-176119 -49213 L-176082 -49331 L-175946 -49449 L-175559 -49568 L-174534 -49686 L-172657 -49804 L-172561 -49923 L-171961 -46136 L-171594 -42112 L-171109 -37970 L-171071 -33946 L-170297 -33710 L-170240 -33828 L-170065 -34065 L-169872 -34183 L-168266 -34420 L-168246 -34538 L-168091 -34301 L-167976 -34183 L-166796 -34065 L-166641 -33710 L-165974 -33710 L-163526 -24005 L-161011 -14065 L-158342 -4479 L-150642 5106 L-144975 5106 L-142760 4988 L-142737 4988 L-141763 7355 L-141743 7355 L-140879 7118 L-138139 7000 L-132340 4514 L-132187 4278 L-129401 4159 L-115793 3923 L-115047 3804 L-110636 3568 L-94290 3449 L-94058 3213 L-93521 3094 L-85061 2976 L-76356 2857 L-76143 2739 L-74171 2621 L-71385 2621 L-66897 2739 L-66742 2621 L-66573 2621 L-66433 2502 L-66142 2266 L-66104 2147 L-65833 2029 L-65661 1911 L-65251 1792 L-64130 1674 L-62950 1556 L-61673 1437 L-58809 1319 L-55889 1201 L-53897 1082 L-52350 846 L-49312 727 L-39987 609 L-39463 491 L-33739 491 L-32232 372 L-31418 372 L-29734 136 L-29013 17 L-28845 -100 L-27800 -218 L-25732 -337 L-24370 -455 L-19927 -573 L-19830 -692 L-19791 -810 L-19772 -928 L-18940 -1047 L-18862 -1284 L-16289 -1402 L-13040 -1520 L-12885 -1639 L-11937 -1757 L-10196 -1994 L-9481 -1284 L-5940 -692 L637 17 L2054 964 L2075 846 L3025 727 L6500 609" />
</svg>
