<svg xmlns="http://www.w3.org/2000/svg" version="1.1" viewBox="0 0 6500 1000">
	<path fill="none" stroke="gold" stroke-width="125" stroke-linecap="round" stroke-linejoin="round" d="M0 607000  L-546875 607000 L-544271 604777 L-542603 602555 L-524274 598111 L-524103 593666 L-516946 589222 L-516912 589222 L-503482 587000 L-500560 589222 L-487219 582555 L-483050 573666 L-481890 562555 L-481271 551444 L-479259 544777 L-475487 540333 L-474887 535888 L-474558 531444 L-474345 527000 L-473803 522555 L-472565 504777 L-471387 487000 L-468522 469222 L-468000 451444 L-463144 447000 L-460207 442555 L-460164 438111 L-459856 433666 L-459604 429222 L-457009 424777 L-452754 424777 L-452736 424777 L-451499 424777 L-449621 424777 L-447668 420333 L-446720 415888 L-446449 411444 L-446139 409222 L-446041 407000 L-445211 407000 L-443180 409222 L-442890 389222 L-440743 380333 L-440588 367000 L-436931 353666 L-436680 360333 L-436582 358111 L-436065 364777 L-433913 375888 L-432985 387000 L-431459 398111 L-430219 398111 L-428673 395888 L-425711 391444 L-424589 387000 L-424280 382555 L-423069 380333 L-420062 404777 L-420042 402555 L-419695 400333 L-419482 398111 L-419356 367000 L-419114 362555 L-419076 358111 L-419056 353666 L-419037 349222 L-418978 344777 L-418920 340333 L-418902 335888 L-418459 331444 L-417219 327000 L-415673 322555 L-412286 318111 L-406559 315888 L-406358 313666 L-404722 311444 L-403000 309222 L-401568 307000 L-401336 304777 L-400620 302555 L-394488 300333 L-394120 295888 L-393966 291444 L-393388 287000 L-393095 282555 L-392128 278111 L-391818 273666 L-391219 269222 L-389613 269222 L-388878 269222 L-388568 271444 L-387800 271444 L-385764 267000 L-385338 262555 L-384526 260333 L-377097 255888 L-376574 251444 L-376401 247000 L-375665 242555 L-374098 238111 L-373692 235888 L-371467 231444 L-370519 229222 L-370094 227000 L-369764 227000 L-368720 224777 L-366612 220333 L-366360 215888 L-365741 211444 L-364928 209222 L-362820 204777 L-362772 200333 L-360844 195888 L-360518 191444 L-360383 187000 L-359880 184777 L-358467 180333 L-357964 171444 L-357442 164777 L-353883 155888 L-353148 147000 L-350723 147000 L-349433 142555 L-349026 140333 L-345874 140333 L-345719 140333 L-345699 142555 L-345332 142555 L-344074 144777 L-343359 147000 L-342469 147000 L-342062 147000 L-341134 147000 L-340025 144777 L-339722 153666 L-333473 158111 L-332526 162555 L-330899 167000 L-330398 169222 L-326722 171444 L-325890 173666 L-321936 175888 L-320525 169222 L-318035 164777 L-317359 160333 L-317320 158111 L-316449 158111 L-313238 155888 L-310375 153666 L-309407 151444 L-308286 147000 L-308267 142555 L-306642 138111 L-306177 131444 L-306085 129222 L-299716 127000 L-298768 124777 L-296311 122555 L-295438 118111 L-294202 115888 L-292201 113666 L-291803 109222 L-290367 104777 L-288341 102555 L-288128 98111 L-286948 95888 L-285439 93666 L-285419 91444 L-283407 89222 L-282537 84777 L-281667 82555 L-281082 78111 L-280544 73666 L-279887 69222 L-278649 64777 L-278088 62555 L-276907 60333 L-275669 58111 L-275631 55888 L-275244 53666 L-274702 49222 L-273929 47000 L-272806 44777 L-270717 40333 L-270384 35888 L-270098 31444 L-269169 29222 L-268686 24777 L-267951 22555 L-264319 20333 L-263192 18111 L-263037 15888 L-262011 11444 L-258296 9222 L-257079 4777 L-255261 333 L-252475 -1888 L-251913 -6333 L-248026 -6333 L-245549 -8555 L-244214 -8555 L-243711 -10777 L-243228 -13000 L-240538 -13000 L-236767 -13000 L-234309 -13000 L-233130 -13000 L-232490 -15222 L-230131 -19666 L-230053 -21888 L-229006 -24111 L-228912 -28555 L-228410 -28555 L-227964 -28555 L-227906 -28555 L-227693 -28555 L-224733 -33000 L-222026 -35222 L-221871 -37444 L-218350 -39666 L-217827 -44111 L-216860 -48555 L-216511 -50777 L-215467 -55222 L-214538 -59666 L-214113 -61888 L-212604 -61888 L-211637 -64111 L-211618 -66333 L-209722 -228555 L-209606 -395222 L-209558 -559666 L-209534 -724111 L-206529 -726333 L-204499 -730777 L-202738 -733000 L-202371 -735222 L-201925 -739666 L-201558 -741888 L-201144 -746333 L-199159 -748555 L-198946 -748555 L-198791 -750777 L-197186 -750777 L-196064 -753000 L-195116 -755222 L-193859 -759666 L-192214 -761888 L-191035 -766333 L-184445 -768555 L-184398 -770777 L-183993 -773000 L-182948 -775222 L-182812 -777444 L-181130 -781888 L-181110 -784111 L-179773 -788555 L-178537 -790777 L-178383 -793000 L-178009 -797444 L-177802 -799666 L-177493 -801888 L-176719 -806333 L-174398 -808555 L-173740 -810777 L-171612 -813000 L-169890 -815222 L-169696 -819666 L-167143 -821888 L-166866 -826333 L-166678 -830777 L-165846 -833000 L-165073 -835222 L-164375 -837444 L-159375 -837444 L-158999 -841888 L-154746 -844111 L-154259 -624111 L-154240 -624111 L-154161 -626333 L-154085 -628555 L-154065 -855222 L-153253 -857444 L-152499 -861888 L-151280 -864111 L-149848 -864111 L-149752 -866333 L-149577 -866333 L-149223 -870777 L-147913 -873000 L-146056 -875222 L-144354 -879666 L-143851 -881888 L-143586 -884111 L-143193 -886333 L-143058 -888555 L-142149 -890777 L-141772 -893000 L-140844 -893000 L-140505 -895222 L-140465 -895222 L-140427 -897444 L-138512 -897444 L-138338 -899666 L-136809 -899666 L-136481 -901888 L-136365 -904111 L-135958 -908555 L-135610 -910777 L-133966 -915222 L-133415 -917444 L-133172 -919666 L-132631 -921888 L-131799 -926333 L-131258 -928555 L-129723 -933000 L-129631 -935222 L-129594 -937444 L-129458 -939666 L-129071 -941888 L-128046 -944111 L-126170 -946333 L-126073 -948555 L-125473 -877444 L-125106 -801888 L-124621 -724111 L-124583 -648555 L-123809 -644111 L-123752 -646333 L-123577 -650777 L-123384 -653000 L-121779 -657444 L-121759 -659666 L-121603 -655222 L-121488 -653000 L-120308 -650777 L-120154 -644111 L-119487 -644111 L-117039 -461888 L-114524 -275222 L-111854 -95222 L-104155 84777 L-98487 84777 L-96272 82555 L-96249 82555 L-95275 127000 L-95255 127000 L-94392 122555 L-91651 120333 L-85853 73666 L-85699 69222 L-82913 67000 L-69305 62555 L-68559 60333 L-64149 55888 L-47802 53666 L-47570 49222 L-47033 47000 L-38574 44777 L-29868 42555 L-29656 40333 L-27683 38111 L-24897 38111 L-20410 40333 L-20255 38111 L-20086 38111 L-19945 35888 L-19655 31444 L-19616 29222 L-19345 27000 L-19173 24777 L-18763 22555 L-17643 20333 L-16462 18111 L-15186 15888 L-12322 13666 L-9402 11444 L-7410 9222 L-5862 4777 L-2824 2555 L6500 333" />
</svg>
