<svg xmlns="http://www.w3.org/2000/svg" version="1.1" viewBox="0 0 6500 1000">
	<path fill="none" stroke="gold" stroke-width="125" stroke-linecap="round" stroke-linejoin="round" d="M0 1018  L-716321 1018 L-713717 1018 L-712049 1018 L-693720 1018 L-693549 1018 L-686392 1018 L-686358 1018 L-672927 1018 L-670006 1018 L-656665 1018 L-652496 1017 L-651336 1017 L-650717 1017 L-648705 1016 L-644933 1016 L-644333 1016 L-644004 1016 L-643791 1016 L-643249 1016 L-642011 1015 L-640832 1015 L-637968 1014 L-637446 1014 L-632590 1014 L-629653 1014 L-629610 1013 L-629302 1013 L-629050 1013 L-626455 1013 L-622200 1013 L-622182 1013 L-620945 1013 L-619067 1013 L-617114 1013 L-616166 1013 L-615895 1013 L-615585 1013 L-615487 1013 L-614657 1013 L-612626 1013 L-612336 1012 L-610189 1012 L-610034 1011 L-606377 1011 L-606126 1011 L-606028 1011 L-605511 1011 L-603359 1012 L-602431 1012 L-600905 1012 L-599665 1012 L-598119 1012 L-595157 1012 L-594035 1012 L-593726 1012 L-592515 1012 L-589508 1012 L-589488 1012 L-589141 1012 L-588928 1012 L-588802 1011 L-588560 1011 L-588522 1011 L-588502 1011 L-588483 1011 L-588424 1011 L-588366 1011 L-588348 1010 L-587904 1010 L-586665 1010 L-585119 1010 L-581732 1010 L-576005 1010 L-575804 1010 L-574168 1010 L-572446 1010 L-571014 1010 L-570782 1010 L-570066 1010 L-563934 1009 L-563566 1009 L-563412 1009 L-562834 1009 L-562541 1009 L-561574 1009 L-561264 1009 L-560665 1009 L-559059 1009 L-558324 1009 L-558014 1009 L-557246 1009 L-555210 1008 L-554784 1008 L-553972 1008 L-546543 1008 L-546020 1008 L-545846 1008 L-545111 1008 L-543544 1008 L-543138 1008 L-540913 1007 L-539965 1007 L-539540 1007 L-539210 1007 L-538166 1007 L-536058 1007 L-535806 1007 L-535187 1007 L-534374 1007 L-532266 1007 L-532218 1007 L-530290 1006 L-529964 1006 L-529829 1006 L-529326 1006 L-527913 1006 L-527410 1006 L-526888 1006 L-523329 1005 L-522594 1005 L-520169 1005 L-518879 1005 L-518472 1005 L-515320 1005 L-515165 1005 L-515145 1005 L-514778 1005 L-513520 1005 L-512805 1005 L-511915 1005 L-511508 1005 L-510580 1005 L-509471 1005 L-509168 1005 L-502919 1005 L-501972 1005 L-500345 1006 L-499844 1006 L-496168 1006 L-495335 1006 L-491382 1006 L-489971 1006 L-487481 1006 L-486805 1005 L-486766 1005 L-485895 1005 L-482684 1005 L-479821 1005 L-478853 1005 L-477731 1005 L-477713 1005 L-476087 1005 L-475623 1005 L-475531 1005 L-469162 1004 L-468214 1004 L-465757 1004 L-464884 1004 L-463648 1004 L-461647 1004 L-461249 1004 L-459813 1004 L-457787 1004 L-457574 1004 L-456394 1004 L-454885 1004 L-454865 1003 L-452853 1003 L-451983 1003 L-451112 1003 L-450528 1003 L-449990 1003 L-449333 1003 L-448095 1003 L-447534 1003 L-446353 1003 L-445115 1002 L-445077 1002 L-444690 1002 L-444148 1002 L-443374 1002 L-442252 1002 L-440163 1002 L-439830 1002 L-439544 1002 L-438615 1002 L-438132 1002 L-437397 1001 L-433765 1001 L-432638 1001 L-432483 1001 L-431457 1001 L-427742 1001 L-426525 1001 L-424707 1001 L-421921 1001 L-421359 1001 L-417472 1001 L-414995 1001 L-413660 1001 L-413157 1001 L-412674 1000 L-409984 1000 L-406213 1000 L-403755 1000 L-402576 1000 L-401936 1000 L-399577 1000 L-399499 1000 L-398452 1000 L-398358 1000 L-397856 1000 L-397410 1000 L-397352 1000 L-397139 1000 L-394179 1000 L-391472 1000 L-391317 1000 L-387796 1000 L-387273 1000 L-386306 999 L-385957 999 L-384913 999 L-383984 999 L-383559 999 L-382050 999 L-381083 999 L-381064 999 L-379168 994 L-379052 989 L-379004 985 L-378980 980 L-375975 980 L-373945 980 L-372184 980 L-371817 980 L-371371 980 L-371004 979 L-370590 979 L-368605 979 L-368392 979 L-368237 979 L-366632 979 L-365510 979 L-364562 979 L-363305 979 L-361660 979 L-360480 979 L-353891 979 L-353844 979 L-353439 979 L-352394 979 L-352258 978 L-350576 978 L-350556 978 L-349219 978 L-347983 978 L-347828 978 L-347455 978 L-347248 978 L-346939 978 L-346165 978 L-343844 978 L-343186 977 L-341058 977 L-339335 977 L-339142 977 L-336589 977 L-336312 977 L-336124 977 L-335292 977 L-334519 977 L-333821 977 L-328821 977 L-328445 977 L-324192 977 L-323705 983 L-323685 983 L-323607 983 L-323531 983 L-323511 976 L-322699 976 L-321945 976 L-320726 976 L-319294 976 L-319198 976 L-319023 976 L-318669 976 L-317359 976 L-315502 976 L-313800 976 L-313297 975 L-313032 975 L-312638 975 L-312504 975 L-311594 975 L-311218 975 L-310290 975 L-309950 975 L-309911 975 L-309873 975 L-307958 975 L-307784 975 L-306255 975 L-305927 975 L-305811 975 L-305404 975 L-305056 975 L-303412 974 L-302861 974 L-302618 974 L-302077 974 L-301245 974 L-300704 974 L-299169 974 L-299077 974 L-299040 974 L-298904 974 L-298517 974 L-297492 974 L-295616 974 L-295519 974 L-294919 976 L-294552 978 L-294067 980 L-294029 982 L-293255 982 L-293198 982 L-293023 982 L-292830 982 L-291224 982 L-291205 982 L-291049 982 L-290934 982 L-289754 982 L-289600 982 L-288933 982 L-286484 988 L-283970 993 L-281300 998 L-273601 1003 L-267933 1003 L-265718 1003 L-265695 1003 L-264721 1004 L-264701 1004 L-263838 1004 L-261097 1004 L-255299 1003 L-255145 1003 L-252359 1003 L-238751 1003 L-238005 1003 L-233595 1002 L-217248 1002 L-217016 1002 L-216479 1002 L-208020 1002 L-199314 1002 L-199102 1002 L-197129 1002 L-194343 1002 L-189856 1002 L-189701 1002 L-189532 1002 L-189391 1002 L-189101 1002 L-189062 1002 L-188791 1002 L-188619 1002 L-188209 1001 L-187089 1001 L-185908 1001 L-184632 1001 L-181768 1001 L-178848 1001 L-176856 1001 L-175308 1001 L-172270 1001 L-162945 1001 L-162421 1001 L-156698 1001 L-155191 1001 L-154376 1001 L-152692 1001 L-151971 1001 L-151803 1000 L-150758 1000 L-148690 1000 L-147328 1000 L-142885 1000 L-142788 1000 L-142749 1000 L-142730 1000 L-141898 1000 L-141820 1000 L-139248 1000 L-135998 1000 L-135844 1000 L-134895 1000 L-133154 999 L-132439 1000 L-128898 1000 L-122321 1001 L-120903 1001 L-120883 1001 L-119932 1001 L-116458 1001 L-115705 1001 L-115143 1001 L-114361 1001 L-106857 1001 L-105258 1000 L-103684 1000 L-100499 1000 L-96166 1000 L-87596 1000 L-78850 1000 L-75776 1000 L-72510 1000 L-71963 1000 L-64826 1000 L-59159 1000 L-45094 1000 L-39083 1000 L-34377 1000 L-30373 1000 L-25266 1000 L-15552 1000 L18 999 L3101 999 L3403 971 L3422 935 L3441 895 L3461 850 L3481 829 L3500 812 L3519 796 L3546 781 L3567 765 L3595 749 L3630 731 L3644 716 L3657 703 L3675 693 L3694 685 L3714 677 L3732 669 L3752 660 L3771 652 L3793 644 L3809 635 L3828 627 L3849 620 L3869 612 L3887 603 L3906 594 L3925 585 L3946 576 L3964 568 L3983 560 L4004 552 L4029 544 L4044 537 L4061 529 L4080 522 L4100 515 L4119 507 L4138 499 L4158 491 L4178 484 L4196 477 L4215 470 L4236 464 L4256 458 L4273 453 L4292 448 L4312 443 L4331 439 L4351 434 L4370 430 L4390 427 L4409 423 L4429 420 L4447 416 L4474 412 L4495 408 L4523 403 L4557 397 L4571 393 L4585 389 L4603 385 L4622 382 L4642 379 L4661 375 L4680 371 L4700 367 L4721 364 L4738 361 L4757 357 L4777 354 L4797 350 L4815 345 L4834 340 L4854 335 L4874 330 L4893 325 L4911 320 L4933 314 L4957 308 L4972 302 L4989 296 L5009 290 L5028 284 L5047 278 L5066 272 L5086 266 L5107 260 L5125 254 L5144 248 L5164 243 L5184 237 L5202 232 L5221 228 L5241 223 L5260 219 L5280 214 L5298 210 L5318 206 L5337 202 L5357 197 L5376 193 L5405 189 L5424 185 L5452 181 L5489 176 L5504 172 L5517 167 L5534 163 L5551 160 L5571 158 L5589 155 L5608 153 L5628 151 L5649 148 L5666 145 L5685 142 L5706 140 L5725 137 L5744 133 L5763 130 L5783 126 L5802 122 L5821 119 L5840 115 L5861 111 L5885 107 L5900 104 L5917 100 L5937 96 L5956 92 L5976 88 L5995 84 L6015 80 L6035 76 L6053 72 L6072 69 L6092 65 L6113 62 L6131 59 L6150 56 L6169 53 L6188 49 L6208 46 L6227 43 L6247 40 L6266 37 L6285 34 L6304 31 L6332 28 L6353 25 L6381 22 L6417 17 L6431 13 L6444 8 L6462 5 L6480 2 L6500 0" />
</svg>
