<svg xmlns="http://www.w3.org/2000/svg" version="1.1" viewBox="0 0 6500 1000">
	<path fill="none" stroke="gold" stroke-width="125" stroke-linecap="round" stroke-linejoin="round" d="M0 115101  L-566935 115101 L-564331 114695 L-562663 114288 L-544334 113475 L-544164 112662 L-537006 111849 L-536973 111849 L-523542 111443 L-520620 111849 L-507279 110630 L-503110 109004 L-501950 106971 L-501331 104939 L-499319 103719 L-495547 102906 L-494947 102093 L-494619 101280 L-494406 100467 L-493864 99654 L-492626 96402 L-491447 93150 L-488582 89898 L-488060 86646 L-483205 85833 L-480267 85020 L-480225 84207 L-479916 83394 L-479664 82581 L-477069 81768 L-472814 81768 L-472796 81768 L-471559 81768 L-469682 81768 L-467728 80955 L-466780 80142 L-466509 79329 L-466200 78922 L-466101 78516 L-465271 78516 L-463240 78922 L-462950 75264 L-460803 73638 L-460648 71199 L-456992 68760 L-456741 69979 L-456642 69573 L-456125 70792 L-453974 72825 L-453045 74857 L-451519 76890 L-450279 76890 L-448733 76483 L-445771 75670 L-444649 74857 L-444340 74044 L-443129 73638 L-440122 78109 L-440103 77703 L-439755 77296 L-439542 76890 L-439416 71199 L-439174 70386 L-439136 69573 L-439117 68760 L-439097 67947 L-439039 67134 L-438980 66321 L-438962 65508 L-438519 64695 L-437279 63882 L-435734 63069 L-432346 62256 L-426620 61849 L-426418 61443 L-424782 61036 L-423060 60630 L-421628 60223 L-421396 59817 L-420681 59410 L-414548 59004 L-414181 58191 L-414026 57378 L-413448 56565 L-413155 55752 L-412188 54939 L-411878 54126 L-411279 53313 L-409673 53313 L-408938 53313 L-408628 53719 L-407860 53719 L-405824 52906 L-405399 52093 L-404586 51686 L-397157 50873 L-396634 50060 L-396461 49247 L-395726 48434 L-394158 47621 L-393752 47215 L-391527 46402 L-390579 45995 L-390155 45589 L-389824 45589 L-388780 45182 L-386672 44369 L-386420 43556 L-385801 42743 L-384988 42337 L-382881 41524 L-382832 40711 L-380904 39898 L-380578 39085 L-380443 38272 L-379940 37865 L-378527 37052 L-378024 35426 L-377503 34207 L-373943 32581 L-373208 30955 L-370783 30955 L-369494 30142 L-369087 29735 L-365934 29735 L-365779 29735 L-365759 30142 L-365393 30142 L-364134 30548 L-363419 30955 L-362529 30955 L-362122 30955 L-361194 30955 L-360085 30548 L-359782 32174 L-353533 32987 L-352586 33800 L-350960 34613 L-350458 35020 L-346782 35426 L-345950 35833 L-341997 36239 L-340585 35020 L-338096 34207 L-337419 33394 L-337380 32987 L-336510 32987 L-333298 32581 L-330435 32174 L-329467 31768 L-328346 30955 L-328327 30142 L-326702 29329 L-326238 28109 L-326146 27703 L-319777 27296 L-318828 26890 L-316371 26483 L-315499 25670 L-314263 25264 L-312261 24857 L-311864 24044 L-310427 23231 L-308401 22825 L-308188 22012 L-307008 21605 L-305500 21199 L-305479 20792 L-303467 20386 L-302598 19573 L-301727 19166 L-301142 18353 L-300605 17540 L-299947 16727 L-298709 15914 L-298148 15508 L-296967 15101 L-295730 14695 L-295691 14288 L-295304 13882 L-294763 13069 L-293989 12662 L-292867 12256 L-290777 11443 L-290444 10630 L-290158 9817 L-289230 9410 L-288746 8597 L-288011 8191 L-284380 7784 L-283252 7378 L-283097 6971 L-282071 6158 L-278357 5752 L-277139 4939 L-275321 4126 L-272535 3719 L-271974 2906 L-268086 2906 L-265609 2500 L-264274 2500 L-263771 2093 L-263288 1686 L-260599 1686 L-256827 1686 L-254370 1686 L-253190 1686 L-252551 1280 L-250191 467 L-250114 60 L-249066 -345 L-248973 -1158 L-248470 -1158 L-248024 -1158 L-247967 -1158 L-247753 -1158 L-244793 -1971 L-242086 -2378 L-241931 -2784 L-238410 -3191 L-237887 -4004 L-236920 -4817 L-236571 -5223 L-235527 -6036 L-234599 -6849 L-234173 -7256 L-232664 -7256 L-231697 -7662 L-231678 -8069 L-229782 -37743 L-229666 -68231 L-229618 -98313 L-229594 -128394 L-226590 -128800 L-224559 -129613 L-222798 -130020 L-222431 -130426 L-221986 -131239 L-221619 -131646 L-221205 -132459 L-219220 -132865 L-219007 -132865 L-218852 -133272 L-217246 -133272 L-216125 -133678 L-215176 -134085 L-213919 -134898 L-212274 -135304 L-211095 -136117 L-204505 -136524 L-204459 -136930 L-204053 -137337 L-203008 -137743 L-202873 -138150 L-201190 -138963 L-201170 -139369 L-199833 -140182 L-198597 -140589 L-198443 -140995 L-198069 -141808 L-197863 -142215 L-197553 -142621 L-196779 -143434 L-194458 -143841 L-193800 -144247 L-191672 -144654 L-189950 -145060 L-189756 -145873 L-187203 -146280 L-186927 -147093 L-186739 -147906 L-185906 -148313 L-185134 -148719 L-184436 -149126 L-179435 -149126 L-179059 -149939 L-174806 -150345 L-174319 -110101 L-174300 -110101 L-174221 -110508 L-174145 -110914 L-174126 -152378 L-173313 -152784 L-172559 -153597 L-171340 -154004 L-169908 -154004 L-169812 -154410 L-169637 -154410 L-169283 -155223 L-167974 -155630 L-166116 -156036 L-164414 -156849 L-163911 -157256 L-163646 -157662 L-163253 -158069 L-163119 -158475 L-162209 -158882 L-161832 -159288 L-160904 -159288 L-160565 -159695 L-160525 -159695 L-160488 -160101 L-158572 -160101 L-158398 -160508 L-156870 -160508 L-156541 -160914 L-156425 -161321 L-156018 -162134 L-155670 -162540 L-154026 -163353 L-153475 -163760 L-153232 -164166 L-152691 -164573 L-151860 -165386 L-151318 -165792 L-149783 -166605 L-149691 -167012 L-149654 -167418 L-149518 -167825 L-149131 -168231 L-148106 -168638 L-146230 -169044 L-146134 -169451 L-145533 -156443 L-145166 -142621 L-144682 -128394 L-144644 -114573 L-143870 -113760 L-143812 -114166 L-143638 -114979 L-143444 -115386 L-141839 -116199 L-141819 -116605 L-141664 -115792 L-141548 -115386 L-140369 -114979 L-140214 -113760 L-139547 -113760 L-137099 -80426 L-134584 -46280 L-131914 -13353 L-124215 19573 L-118547 19573 L-116333 19166 L-116309 19166 L-115335 27296 L-115316 27296 L-114452 26483 L-111712 26077 L-105913 17540 L-105760 16727 L-102974 16321 L-89365 15508 L-88620 15101 L-84209 14288 L-67863 13882 L-67631 13069 L-67093 12662 L-58634 12256 L-49928 11849 L-49716 11443 L-47744 11036 L-44957 11036 L-40470 11443 L-40315 11036 L-40146 11036 L-40006 10630 L-39715 9817 L-39676 9410 L-39405 9004 L-39234 8597 L-38824 8191 L-37703 7784 L-36523 7378 L-35246 6971 L-32382 6565 L-29462 6158 L-27470 5752 L-25922 4939 L-22884 4532 L-13560 4126 L-13036 3719 L-7312 3719 L-5805 3313 L-4990 3313 L-3307 2500 L-2586 2093 L-2417 1686 L-1372 1280 L694 873 L2056 467 L6500 60" />
</svg>
