<svg xmlns="http://www.w3.org/2000/svg" version="1.1" viewBox="0 0 6500 1000">
	<path fill="none" stroke="gold" stroke-width="125" stroke-linecap="round" stroke-linejoin="round" d="M0 3335  L-727830 3335 L-725226 3335 L-723558 3334 L-705229 3334 L-705058 3334 L-697901 3334 L-697867 3334 L-684437 3333 L-681515 3334 L-668174 3333 L-664005 3332 L-662845 3332 L-662226 3331 L-660214 3331 L-656442 3330 L-655842 3330 L-655513 3330 L-655300 3329 L-654759 3329 L-653521 3328 L-652342 3327 L-649477 3326 L-648955 3325 L-644099 3324 L-641162 3324 L-641119 3324 L-640811 3323 L-640559 3323 L-637964 3323 L-633709 3323 L-633691 3323 L-632454 3323 L-630576 3323 L-628623 3322 L-627675 3322 L-627404 3322 L-627094 3322 L-626996 3322 L-626166 3322 L-624135 3322 L-623845 3320 L-621698 3320 L-621543 3319 L-617886 3318 L-617635 3319 L-617537 3318 L-617020 3319 L-614869 3320 L-613940 3320 L-612414 3321 L-611174 3321 L-609628 3321 L-606666 3321 L-605544 3320 L-605235 3320 L-604024 3320 L-601017 3321 L-600997 3321 L-600650 3321 L-600437 3321 L-600311 3319 L-600069 3319 L-600031 3318 L-600011 3318 L-599992 3318 L-599933 3318 L-599875 3317 L-599857 3317 L-599414 3317 L-598174 3316 L-596628 3316 L-593241 3316 L-587514 3316 L-587313 3316 L-585677 3315 L-583955 3315 L-582523 3315 L-582291 3315 L-581575 3315 L-575443 3315 L-575075 3314 L-574921 3314 L-574343 3314 L-574050 3313 L-573083 3313 L-572773 3313 L-572174 3313 L-570568 3313 L-569833 3313 L-569523 3313 L-568755 3313 L-566719 3312 L-566293 3312 L-565481 3312 L-558052 3312 L-557529 3311 L-557356 3311 L-556621 3311 L-555053 3311 L-554647 3310 L-552422 3310 L-551474 3310 L-551049 3310 L-550719 3310 L-549675 3310 L-547567 3309 L-547315 3309 L-546696 3309 L-545883 3309 L-543775 3308 L-543727 3308 L-541799 3308 L-541473 3308 L-541338 3307 L-540835 3307 L-539422 3307 L-538919 3306 L-538397 3306 L-534838 3305 L-534103 3305 L-531678 3305 L-530388 3304 L-529981 3304 L-526829 3304 L-526674 3304 L-526654 3304 L-526287 3304 L-525029 3305 L-524314 3305 L-523424 3305 L-523017 3305 L-522089 3305 L-520980 3305 L-520677 3305 L-514428 3305 L-513481 3306 L-511854 3306 L-511353 3306 L-507677 3306 L-506845 3306 L-502891 3307 L-501480 3306 L-498990 3306 L-498314 3306 L-498275 3305 L-497404 3305 L-494193 3305 L-491330 3305 L-490362 3305 L-489241 3305 L-489222 3304 L-487597 3304 L-487132 3304 L-487041 3303 L-480671 3303 L-479723 3303 L-477266 3303 L-476393 3303 L-475157 3303 L-473156 3302 L-472759 3302 L-471322 3302 L-469296 3302 L-469083 3301 L-467903 3301 L-466394 3301 L-466374 3301 L-464362 3301 L-463492 3301 L-462622 3300 L-462037 3300 L-461500 3300 L-460842 3300 L-459604 3299 L-459043 3299 L-457862 3299 L-456624 3299 L-456586 3299 L-456199 3299 L-455657 3298 L-454884 3298 L-453761 3298 L-451672 3298 L-451339 3297 L-451053 3297 L-450124 3297 L-449641 3297 L-448906 3297 L-445275 3296 L-444147 3296 L-443992 3296 L-442966 3296 L-439252 3296 L-438034 3295 L-436216 3295 L-433430 3295 L-432868 3295 L-428981 3295 L-426504 3294 L-425169 3294 L-424666 3294 L-424183 3294 L-421493 3294 L-417722 3294 L-415264 3294 L-414085 3294 L-413445 3294 L-411086 3294 L-411008 3294 L-409961 3293 L-409867 3293 L-409365 3293 L-408919 3293 L-408862 3293 L-408648 3293 L-405688 3293 L-402981 3293 L-402826 3293 L-399305 3292 L-398782 3292 L-397815 3292 L-397466 3292 L-396422 3291 L-395494 3291 L-395068 3291 L-393559 3291 L-392592 3291 L-392573 3291 L-390677 3280 L-390561 3269 L-390513 3259 L-390489 3248 L-387485 3248 L-385454 3247 L-383693 3247 L-383326 3247 L-382880 3247 L-382513 3247 L-382099 3246 L-380115 3246 L-379901 3246 L-379746 3246 L-378141 3246 L-377019 3246 L-376071 3246 L-374814 3245 L-373169 3245 L-371990 3245 L-365400 3245 L-365354 3245 L-364948 3245 L-363903 3244 L-363767 3244 L-362085 3244 L-362065 3244 L-360728 3244 L-359492 3243 L-359338 3243 L-358964 3243 L-358757 3243 L-358448 3243 L-357674 3242 L-355353 3242 L-354695 3242 L-352567 3242 L-350845 3242 L-350651 3242 L-348098 3241 L-347821 3241 L-347633 3241 L-346801 3241 L-346028 3241 L-345330 3240 L-340330 3240 L-339954 3240 L-335701 3240 L-335214 3254 L-335195 3254 L-335116 3254 L-335040 3254 L-335020 3239 L-334208 3239 L-333454 3239 L-332235 3239 L-330803 3239 L-330707 3239 L-330532 3239 L-330178 3238 L-328868 3238 L-327011 3238 L-325309 3238 L-324806 3237 L-324541 3237 L-324148 3237 L-324013 3237 L-323104 3237 L-322727 3237 L-321799 3237 L-321460 3237 L-321420 3237 L-321382 3236 L-319467 3236 L-319293 3236 L-317764 3236 L-317436 3236 L-317320 3236 L-316913 3236 L-316565 3236 L-314921 3235 L-314370 3235 L-314127 3235 L-313586 3235 L-312754 3235 L-312213 3234 L-310678 3234 L-310586 3234 L-310549 3234 L-310413 3234 L-310026 3234 L-309001 3233 L-307125 3233 L-307028 3233 L-306428 3238 L-306061 3243 L-305576 3248 L-305538 3253 L-304764 3253 L-304707 3253 L-304532 3253 L-304339 3252 L-302734 3252 L-302714 3252 L-302558 3252 L-302443 3252 L-301263 3253 L-301109 3253 L-300442 3253 L-297994 3265 L-295479 3277 L-292809 3289 L-285110 3301 L-279442 3301 L-277227 3300 L-277204 3300 L-276230 3303 L-276210 3303 L-275347 3303 L-272606 3303 L-266808 3300 L-266654 3300 L-263869 3299 L-250260 3299 L-249514 3299 L-245104 3299 L-228757 3299 L-228525 3298 L-227988 3298 L-219529 3298 L-210823 3298 L-210611 3298 L-208638 3298 L-205852 3298 L-201365 3298 L-201210 3298 L-201041 3298 L-200900 3297 L-200610 3297 L-200571 3297 L-200300 3297 L-200128 3297 L-199718 3297 L-198598 3296 L-197418 3296 L-196141 3296 L-193277 3296 L-190357 3296 L-188365 3296 L-186817 3295 L-183779 3295 L-174455 3295 L-173931 3295 L-168207 3295 L-166700 3295 L-165885 3295 L-164202 3294 L-163481 3294 L-163312 3294 L-162267 3294 L-160200 3294 L-158838 3294 L-154394 3294 L-154297 3293 L-154258 3293 L-154240 3293 L-153407 3293 L-153329 3293 L-150757 3293 L-147507 3292 L-147353 3292 L-146404 3292 L-144663 3292 L-143948 3293 L-140407 3293 L-133830 3294 L-132412 3296 L-132392 3295 L-131441 3295 L-127967 3295 L-127214 3295 L-126652 3295 L-125870 3294 L-118366 3294 L-116767 3294 L-115193 3294 L-112008 3294 L-107675 3294 L-99105 3294 L-90359 3294 L-87285 3293 L-84019 3293 L-83473 3293 L-76335 3293 L-70668 3293 L-56603 3293 L-50592 3293 L-45886 3293 L-41882 3293 L-36775 3292 L-27061 3292 L-11490 3292 L-8407 3292 L-8105 3226 L-8086 3146 L-8067 3055 L-8047 2953 L-8028 2906 L-8008 2867 L-7990 2831 L-7962 2795 L-7941 2761 L-7913 2724 L-7878 2684 L-7864 2650 L-7851 2620 L-7833 2596 L-7814 2578 L-7794 2560 L-7776 2541 L-7756 2523 L-7737 2504 L-7715 2485 L-7699 2466 L-7680 2447 L-7659 2430 L-7639 2412 L-7621 2392 L-7602 2372 L-7583 2352 L-7562 2332 L-7544 2312 L-7525 2294 L-7504 2276 L-7479 2258 L-7465 2241 L-7447 2225 L-7428 2208 L-7408 2191 L-7389 2174 L-7370 2155 L-7350 2138 L-7330 2122 L-7312 2106 L-7293 2091 L-7272 2077 L-7252 2064 L-7235 2052 L-7216 2041 L-7196 2030 L-7177 2019 L-7157 2009 L-7138 2000 L-7118 1992 L-7099 1984 L-7080 1976 L-7061 1969 L-7034 1959 L-7013 1949 L-6985 1937 L-6951 1925 L-6937 1915 L-6924 1906 L-6905 1897 L-6886 1890 L-6866 1883 L-6848 1874 L-6828 1866 L-6808 1857 L-6788 1850 L-6770 1842 L-6751 1834 L-6731 1826 L-6711 1817 L-6693 1807 L-6674 1796 L-6654 1785 L-6634 1773 L-6616 1762 L-6597 1750 L-6576 1737 L-6551 1723 L-6536 1709 L-6519 1695 L-6499 1682 L-6480 1669 L-6461 1655 L-6442 1641 L-6422 1627 L-6402 1613 L-6383 1600 L-6365 1587 L-6344 1575 L-6324 1562 L-6306 1551 L-6287 1540 L-6267 1529 L-6248 1520 L-6229 1510 L-6210 1500 L-6190 1491 L-6171 1481 L-6151 1472 L-6132 1462 L-6104 1452 L-6084 1444 L-6056 1435 L-6019 1423 L-6004 1413 L-5991 1403 L-5974 1394 L-5957 1388 L-5937 1382 L-5919 1376 L-5900 1370 L-5880 1365 L-5859 1360 L-5842 1353 L-5823 1347 L-5802 1340 L-5783 1333 L-5764 1326 L-5745 1318 L-5726 1310 L-5706 1301 L-5687 1293 L-5668 1284 L-5647 1276 L-5623 1267 L-5608 1259 L-5591 1250 L-5571 1241 L-5552 1233 L-5532 1224 L-5513 1215 L-5493 1206 L-5473 1197 L-5455 1188 L-5436 1180 L-5416 1172 L-5395 1164 L-5378 1157 L-5359 1150 L-5339 1143 L-5320 1136 L-5300 1128 L-5281 1121 L-5261 1115 L-5242 1108 L-5223 1101 L-5204 1094 L-5176 1088 L-5155 1081 L-5127 1073 L-5091 1062 L-5077 1052 L-5064 1043 L-5047 1034 L-5028 1029 L-5009 1024 L-4990 1017 L-4970 1010 L-4951 1002 L-4929 994 L-4911 986 L-4894 977 L-4874 967 L-4853 957 L-4835 947 L-4816 936 L-4797 925 L-4776 915 L-4758 905 L-4739 897 L-4718 891 L-4693 885 L-4679 880 L-4661 875 L-4642 870 L-4622 864 L-4603 858 L-4584 852 L-4565 847 L-4544 843 L-4526 838 L-4507 833 L-4487 827 L-4466 820 L-4449 813 L-4430 807 L-4410 803 L-4391 800 L-4372 796 L-4353 793 L-4333 789 L-4313 785 L-4294 781 L-4275 778 L-4248 774 L-4227 770 L-4199 767 L-4164 762 L-4151 758 L-4137 754 L-4119 751 L-4100 748 L-4080 745 L-4062 742 L-4042 739 L-4022 737 L-4001 734 L-3984 731 L-3966 728 L-3945 725 L-3925 722 L-3907 718 L-3888 715 L-3868 713 L-3848 710 L-3830 707 L-3811 704 L-3790 702 L-3765 699 L-3750 696 L-3733 694 L-3714 691 L-3694 689 L-3675 686 L-3656 683 L-3636 679 L-3615 676 L-3598 673 L-3579 671 L-3558 668 L-3538 666 L-3520 663 L-3501 660 L-3481 658 L-3463 656 L-3443 653 L-3424 651 L-3404 650 L-3385 648 L-3365 646 L-3347 649 L-3318 652 L-3298 655 L-3270 658 L-3233 655 L-3218 653 L-3205 651 L-3188 649 L-3171 648 L-3151 646 L-3133 645 L-3113 643 L-3094 641 L-3072 640 L-3056 639 L-3037 637 L-3016 636 L-2996 634 L-2978 632 L-2959 630 L-2940 629 L-2920 627 L-2901 625 L-2882 624 L-2861 622 L-2836 621 L-2822 619 L-2805 618 L-2785 616 L-2766 614 L-2746 613 L-2727 611 L-2707 609 L-2687 606 L-2669 604 L-2650 602 L-2630 600 L-2609 598 L-2592 596 L-2573 593 L-2553 592 L-2534 590 L-2514 587 L-2495 585 L-2476 583 L-2456 581 L-2437 580 L-2418 578 L-2390 576 L-2370 574 L-2342 572 L-2307 570 L-2293 568 L-2280 566 L-2261 564 L-2243 562 L-2223 561 L-2205 559 L-2185 557 L-2165 555 L-2144 554 L-2127 552 L-2109 550 L-2088 548 L-2068 546 L-2050 544 L-2031 541 L-2011 538 L-1991 535 L-1973 533 L-1954 530 L-1933 528 L-1907 525 L-1893 523 L-1876 520 L-1857 517 L-1837 515 L-1818 512 L-1799 510 L-1779 507 L-1758 505 L-1741 502 L-1721 500 L-1701 498 L-1680 496 L-1663 494 L-1644 492 L-1624 491 L-1605 489 L-1586 488 L-1567 486 L-1547 485 L-1527 483 L-1508 482 L-1489 481 L-1462 480 L-1441 478 L-1413 477 L-1378 474 L-1364 472 L-1351 469 L-1332 467 L-1314 465 L-1294 464 L-1276 462 L-1256 460 L-1237 459 L-1216 457 L-1199 455 L-1180 453 L-1159 451 L-1139 449 L-1121 447 L-1102 445 L-1083 443 L-1062 441 L-1044 439 L-1025 438 L-1004 436 L-979 434 L-964 433 L-947 431 L-928 429 L-908 428 L-889 425 L-870 423 L-850 420 L-829 417 L-812 415 L-793 412 L-772 410 L-752 408 L-735 407 L-716 405 L-696 404 L-677 403 L-657 402 L-638 400 L-618 399 L-599 398 L-580 397 L-561 395 L-534 394 L-513 393 L-485 392 L-451 391 L-436 389 L-423 388 L-405 387 L-386 386 L-366 385 L-348 384 L-328 383 L-308 383 L-288 382 L-270 381 L-251 380 L-231 379 L-211 377 L-193 376 L-174 375 L-154 375 L-134 374 L-116 373 L-97 373 L-76 372 L-51 371 L-36 370 L-19 369 L0 368 L19 367 L38 366 L57 365 L77 364 L98 362 L116 360 L134 358 L155 356 L175 354 L193 353 L212 351 L232 350 L251 348 L270 347 L289 346 L309 345 L328 343 L348 342 L367 341 L395 341 L443 340 L480 339 L495 337 L507 336 L524 336 L542 335 L561 335 L580 334 L599 333 L619 332 L640 331 L657 331 L676 330 L696 330 L716 329 L735 328 L753 327 L774 326 L793 325 L812 324 L831 323 L852 322 L876 320 L891 318 L908 317 L928 315 L947 314 L967 312 L986 311 L1006 310 L1026 308 L1044 307 L1063 305 L1083 304 L1104 303 L1121 302 L1140 301 L1160 300 L1179 299 L1199 298 L1218 297 L1238 296 L1257 295 L1277 294 L1295 293 L1324 292 L1344 291 L1372 289 L1408 287 L1423 284 L1436 282 L1453 281 L1471 280 L1491 278 L1509 278 L1529 277 L1548 276 L1570 275 L1586 274 L1605 273 L1625 271 L1646 270 L1664 268 L1683 266 L1702 264 L1723 262 L1741 260 L1760 258 L1781 257 L1806 255 L1821 254 L1839 253 L1857 251 L1877 250 L1896 249 L1915 247 L1935 245 L1956 244 L1973 242 L1992 241 L2012 240 L2033 238 L2050 237 L2069 236 L2089 235 L2108 234 L2127 233 L2146 232 L2166 231 L2186 229 L2205 229 L2224 228 L2252 997 L2272 996 L2300 995 L2336 993 L2350 221 L2363 219 L2381 218 L2399 217 L2419 217 L2437 216 L2457 215 L2477 214 L2498 212 L2515 210 L2533 209 L2554 207 L2574 205 L2592 203 L2611 201 L2631 199 L2652 198 L2669 196 L2688 195 L2710 194 L2734 192 L2750 190 L2779 188 L2819 186 L2842 184 L2871 181 L2888 179 L2901 177 L2921 176 L2941 175 L2962 174 L2979 172 L2998 171 L3018 170 L3037 169 L3056 169 L3075 168 L3095 167 L3115 166 L3134 165 L3152 165 L3180 163 L3201 162 L3229 161 L3264 160 L3277 159 L3309 158 L3328 157 L3348 156 L3366 155 L3386 154 L3405 154 L3426 153 L3443 152 L3462 150 L3483 148 L3503 144 L3521 140 L3540 137 L3560 134 L3580 132 L3598 130 L3617 128 L3638 127 L3663 125 L3678 124 L3695 123 L3714 121 L3734 120 L3753 118 L3772 117 L3792 115 L3813 114 L3830 112 L3849 110 L3869 109 L3891 108 L3907 107 L3926 106 L3946 105 L3966 105 L3985 103 L4004 102 L4023 101 L4043 100 L4062 99 L4081 98 L4109 97 L4129 96 L4199 94 L4227 92 L4242 90 L4256 87 L4276 86 L4294 85 L4314 84 L4334 82 L4355 81 L4372 80 L4391 79 L4411 78 L4431 78 L4449 77 L4468 75 L4488 74 L4509 72 L4526 71 L4545 70 L4567 69 L4592 68 L4607 67 L4624 66 L4643 64 L4663 63 L4681 62 L4701 60 L4720 59 L4742 58 L4758 57 L4778 56 L4798 55 L4819 54 L4836 53 L4894 52 L4913 51 L4932 50 L4952 49 L4972 48 L4991 48 L5010 47 L5037 46 L5058 46 L5086 45 L5122 44 L5137 44 L5149 43 L5167 42 L5185 42 L5205 41 L5223 41 L5243 40 L5263 40 L5284 40 L5300 39 L5319 39 L5340 38 L5360 38 L5378 37 L5397 36 L5417 35 L5437 34 L5455 34 L5474 33 L5495 32 L5520 31 L5535 31 L5552 30 L5571 30 L5591 29 L5610 28 L5629 27 L5649 26 L5670 25 L5687 24 L5706 23 L5727 22 L5748 22 L5764 21 L5783 21 L5804 20 L5823 20 L5842 19 L5861 19 L5881 19 L5901 18 L5919 18 L5938 17 L5966 17 L5986 16 L6014 16 L6049 15 L6063 15 L6077 14 L6095 13 L6113 13 L6133 12 L6151 12 L6191 11 L6211 11 L6229 10 L6248 10 L6268 9 L6288 8 L6306 7 L6325 6 L6345 6 L6365 5 L6383 4 L6402 4 L6423 3 L6448 3 L6463 2 L6480 2 L6500 1" />
</svg>
