<svg xmlns="http://www.w3.org/2000/svg" version="1.1" viewBox="0 0 6500 1000">
	<path fill="none" stroke="gold" stroke-width="125" stroke-linecap="round" stroke-linejoin="round" d="M0 60932  L-534513 60932 L-531909 60707 L-530241 60483 L-511911 60033 L-511741 59584 L-504583 59134 L-504550 59134 L-491119 58910 L-488197 59134 L-474856 58460 L-470687 57561 L-469527 56438 L-468908 55314 L-466896 54640 L-463125 54191 L-462525 53741 L-462196 53292 L-461983 52842 L-461441 52393 L-460203 50595 L-459024 48797 L-456160 47000 L-455638 45202 L-450782 44752 L-447845 44303 L-447802 43853 L-447494 43404 L-447242 42955 L-444647 42505 L-440391 42505 L-440373 42505 L-439137 42505 L-437259 42505 L-435306 42056 L-434358 41606 L-434087 41157 L-433777 40932 L-433679 40707 L-432849 40707 L-430818 40932 L-430527 38910 L-428381 38011 L-428225 36662 L-424569 35314 L-424318 35988 L-424219 35764 L-423702 36438 L-421551 37561 L-420622 38685 L-419096 39808 L-417857 39808 L-416310 39584 L-413349 39134 L-412227 38685 L-411917 38235 L-410706 38011 L-407700 40483 L-407680 40258 L-407333 40033 L-407119 39808 L-406993 36662 L-406752 36213 L-406714 35764 L-406694 35314 L-406675 34865 L-406616 34415 L-406557 33966 L-406539 33516 L-406096 33067 L-404857 32617 L-403311 32168 L-399923 31719 L-394197 31494 L-393995 31269 L-392360 31044 L-390638 30820 L-389206 30595 L-388973 30370 L-388258 30146 L-382126 29921 L-381758 29471 L-381604 29022 L-381025 28573 L-380733 28123 L-379765 27674 L-379456 27224 L-378857 26775 L-377250 26775 L-376515 26775 L-376206 27000 L-375437 27000 L-373401 26550 L-372976 26101 L-372163 25876 L-364735 25426 L-364212 24977 L-364038 24528 L-363303 24078 L-361735 23629 L-361330 23404 L-359105 22955 L-358157 22730 L-357732 22505 L-357402 22505 L-356358 22280 L-354250 21831 L-353997 21382 L-353379 20932 L-352566 20707 L-350458 20258 L-350410 19808 L-348481 19359 L-348156 18910 L-348021 18460 L-347517 18235 L-346105 17786 L-345602 16887 L-345080 16213 L-341520 15314 L-340785 14415 L-338360 14415 L-337071 13966 L-336664 13741 L-333512 13741 L-333357 13741 L-333337 13966 L-332970 13966 L-331712 14191 L-330997 14415 L-330107 14415 L-329700 14415 L-328771 14415 L-327663 14191 L-327359 15089 L-321111 15539 L-320163 15988 L-318537 16438 L-318035 16662 L-314360 16887 L-313527 17112 L-309574 17337 L-308162 16662 L-305673 16213 L-304997 15764 L-304958 15539 L-304087 15539 L-300876 15314 L-298013 15089 L-297045 14865 L-295923 14415 L-295904 13966 L-294279 13516 L-293815 12842 L-293723 12617 L-287354 12393 L-286405 12168 L-283948 11943 L-283076 11494 L-281840 11269 L-279839 11044 L-279441 10595 L-278005 10146 L-275979 9921 L-275765 9471 L-274585 9247 L-273077 9022 L-273057 8797 L-271045 8573 L-270175 8123 L-269304 7898 L-268719 7449 L-268182 7000 L-267524 6550 L-266286 6101 L-265726 5876 L-264545 5651 L-263307 5426 L-263269 5202 L-262882 4977 L-262340 4528 L-261566 4303 L-260444 4078 L-258355 3629 L-258021 3179 L-257736 2730 L-256807 2505 L-256324 2056 L-255588 1831 L-251957 1606 L-250830 1382 L-250675 1157 L-249649 707 L-245934 483 L-244717 33 L-242898 -415 L-240113 -640 L-239551 -1089 L-235663 -1089 L-233187 -1314 L-231852 -1314 L-231348 -1539 L-230865 -1764 L-228176 -1764 L-224404 -1764 L-221947 -1764 L-220767 -1764 L-220128 -1988 L-217769 -2438 L-217691 -2662 L-216644 -2887 L-216550 -3337 L-216047 -3337 L-215602 -3337 L-215544 -3337 L-215330 -3337 L-212371 -3786 L-209663 -4011 L-209508 -4235 L-205988 -4460 L-205465 -4910 L-204497 -5359 L-204148 -5584 L-203105 -6033 L-202176 -6483 L-201750 -6707 L-200241 -6707 L-199275 -6932 L-199256 -7157 L-197360 -23561 L-197244 -40415 L-197196 -57044 L-197171 -73674 L-194167 -73898 L-192136 -74348 L-190376 -74573 L-190009 -74797 L-189563 -75247 L-189196 -75471 L-188782 -75921 L-186797 -76146 L-186584 -76146 L-186429 -76370 L-184824 -76370 L-183702 -76595 L-182754 -76820 L-181496 -77269 L-179852 -77494 L-178672 -77943 L-172083 -78168 L-172036 -78393 L-171630 -78617 L-170585 -78842 L-170450 -79067 L-168767 -79516 L-168747 -79741 L-167411 -80191 L-166174 -80415 L-166020 -80640 L-165646 -81089 L-165440 -81314 L-165131 -81539 L-164357 -81988 L-162035 -82213 L-161377 -82438 L-159250 -82662 L-157527 -82887 L-157334 -83337 L-154780 -83561 L-154504 -84011 L-154316 -84460 L-153483 -84685 L-152711 -84910 L-152013 -85134 L-147012 -85134 L-146636 -85584 L-142384 -85808 L-141896 -63561 L-141877 -63561 L-141798 -63786 L-141723 -64011 L-141703 -86932 L-140890 -87157 L-140137 -87606 L-138917 -87831 L-137486 -87831 L-137389 -88056 L-137215 -88056 L-136860 -88505 L-135551 -88730 L-133694 -88955 L-131991 -89404 L-131489 -89629 L-131223 -89853 L-130830 -90078 L-130696 -90303 L-129786 -90528 L-129410 -90752 L-128481 -90752 L-128142 -90977 L-128103 -90977 L-128065 -91202 L-126149 -91202 L-125976 -91426 L-124447 -91426 L-124119 -91651 L-124003 -91876 L-123596 -92325 L-123247 -92550 L-121604 -93000 L-121053 -93224 L-120810 -93449 L-120268 -93674 L-119437 -94123 L-118895 -94348 L-117361 -94797 L-117269 -95022 L-117232 -95247 L-117096 -95471 L-116709 -95696 L-115684 -95921 L-113807 -96146 L-113711 -96370 L-113111 -89179 L-112744 -81539 L-112259 -73674 L-112221 -66033 L-111447 -65584 L-111390 -65808 L-111215 -66258 L-111022 -66483 L-109416 -66932 L-109396 -67157 L-109241 -66707 L-109126 -66483 L-107946 -66258 L-107791 -65584 L-107124 -65584 L-104676 -47157 L-102161 -28280 L-99491 -10078 L-91792 8123 L-86125 8123 L-83910 7898 L-83887 7898 L-82913 12393 L-82893 12393 L-82029 11943 L-79289 11719 L-73490 7000 L-73337 6550 L-70551 6325 L-56943 5876 L-56197 5651 L-51786 5202 L-35440 4977 L-35208 4528 L-34671 4303 L-26211 4078 L-17506 3853 L-17293 3629 L-15321 3404 L-12535 3404 L-8047 3629 L-7892 3404 L-7723 3404 L-7583 3179 L-7292 2730 L-7254 2505 L-6983 2280 L-6811 2056 L-6401 1831 L-5280 1606 L-4100 1382 L-2823 1157 L40 932 L2960 707 L4952 483 L6500 33" />
</svg>
