<svg xmlns="http://www.w3.org/2000/svg" version="1.1" viewBox="0 0 6500 1000">
	<path fill="none" stroke="gold" stroke-width="125" stroke-linecap="round" stroke-linejoin="round" d="M0 1016  L-717887 1016 L-715283 1016 L-713615 1016 L-695285 1016 L-695115 1015 L-687957 1015 L-687924 1015 L-674493 1015 L-671571 1015 L-658231 1015 L-654062 1015 L-652902 1015 L-652282 1014 L-650271 1014 L-646499 1014 L-645899 1014 L-645570 1014 L-645357 1014 L-644815 1014 L-643577 1013 L-642398 1013 L-639534 1012 L-639012 1012 L-634156 1012 L-631219 1012 L-631176 1012 L-630868 1011 L-630616 1011 L-628021 1011 L-623765 1011 L-623747 1011 L-622511 1011 L-620633 1011 L-618680 1011 L-617732 1011 L-617461 1011 L-617151 1011 L-617053 1011 L-616223 1011 L-614192 1011 L-613901 1010 L-611755 1010 L-611600 1010 L-607943 1009 L-607692 1010 L-607594 1010 L-607076 1010 L-604925 1010 L-603996 1010 L-602470 1011 L-601231 1011 L-599684 1011 L-596723 1010 L-595601 1010 L-595292 1010 L-594080 1010 L-591074 1011 L-591054 1011 L-590707 1011 L-590494 1011 L-590367 1010 L-590126 1010 L-590088 1010 L-590068 1009 L-590049 1009 L-589990 1009 L-589931 1009 L-589913 1009 L-589470 1009 L-588231 1009 L-586685 1009 L-583297 1009 L-577571 1009 L-577370 1008 L-575734 1008 L-574012 1008 L-572580 1008 L-572347 1008 L-571632 1008 L-565500 1008 L-565132 1008 L-564978 1008 L-564399 1008 L-564107 1008 L-563140 1008 L-562830 1008 L-562231 1007 L-560625 1007 L-559890 1007 L-559580 1007 L-558811 1007 L-556775 1007 L-556350 1007 L-555537 1007 L-548109 1007 L-547586 1007 L-547412 1007 L-546677 1007 L-545110 1007 L-544704 1007 L-542479 1006 L-541531 1006 L-541106 1006 L-540776 1006 L-539732 1006 L-537624 1006 L-537372 1006 L-536753 1006 L-535940 1006 L-533832 1006 L-533784 1006 L-531855 1006 L-531530 1005 L-531395 1005 L-530892 1005 L-529479 1005 L-528976 1005 L-528454 1005 L-524894 1005 L-524159 1004 L-521735 1004 L-520445 1004 L-520038 1004 L-516886 1004 L-516731 1004 L-516711 1004 L-516344 1004 L-515086 1004 L-514371 1004 L-513481 1004 L-513074 1004 L-512145 1004 L-511037 1004 L-510733 1005 L-504485 1005 L-503537 1005 L-501911 1005 L-501409 1005 L-497734 1005 L-496901 1005 L-492948 1005 L-491536 1005 L-489047 1005 L-488371 1005 L-488332 1005 L-487461 1005 L-484250 1005 L-481387 1005 L-480419 1004 L-479297 1004 L-479278 1004 L-477653 1004 L-477189 1004 L-477097 1004 L-470728 1004 L-469780 1004 L-467322 1004 L-466450 1004 L-465214 1004 L-463213 1004 L-462815 1003 L-461379 1003 L-459353 1003 L-459140 1003 L-457960 1003 L-456451 1003 L-456431 1003 L-454419 1003 L-453549 1003 L-452678 1003 L-452093 1003 L-451556 1003 L-450899 1002 L-449660 1002 L-449100 1002 L-447919 1002 L-446681 1002 L-446643 1002 L-446256 1002 L-445714 1002 L-444940 1002 L-443818 1002 L-441729 1002 L-441396 1002 L-441110 1002 L-440181 1001 L-439698 1001 L-438963 1001 L-435331 1001 L-434204 1001 L-434049 1001 L-433023 1001 L-429308 1001 L-428091 1001 L-426272 1001 L-423487 1001 L-422925 1001 L-419037 1001 L-416561 1001 L-415226 1001 L-414723 1000 L-414239 1000 L-411550 1000 L-407778 1000 L-405321 1000 L-404141 1000 L-403502 1000 L-401143 1000 L-401065 1000 L-400018 1000 L-399924 1000 L-399421 1000 L-398976 1000 L-398918 1000 L-398705 1000 L-395745 1000 L-393037 1000 L-392883 1000 L-389362 1000 L-388839 1000 L-387872 1000 L-387522 999 L-386479 999 L-385550 999 L-385125 999 L-383616 999 L-382649 999 L-382630 999 L-380734 995 L-380618 991 L-380570 987 L-380545 983 L-377541 983 L-375511 983 L-373750 983 L-373383 983 L-372937 982 L-372570 982 L-372156 982 L-370171 982 L-369958 982 L-369803 982 L-368198 982 L-367076 982 L-366128 982 L-364871 982 L-363226 982 L-362046 982 L-355457 982 L-355410 982 L-355005 982 L-353959 982 L-353824 982 L-352141 981 L-352122 981 L-350785 981 L-349549 981 L-349394 981 L-349020 981 L-348814 981 L-348505 981 L-347731 981 L-345409 981 L-344752 981 L-342624 981 L-340901 981 L-340708 980 L-338155 980 L-337878 980 L-337690 980 L-336858 980 L-336085 980 L-335387 980 L-330386 980 L-330011 980 L-325758 980 L-325271 985 L-325251 985 L-325172 985 L-325097 985 L-325077 980 L-324264 980 L-323511 979 L-322291 979 L-320860 979 L-320763 979 L-320589 979 L-320234 979 L-318925 979 L-317068 979 L-315366 979 L-314863 979 L-314597 979 L-314204 979 L-314070 979 L-313160 979 L-312784 979 L-311855 979 L-311516 979 L-311477 979 L-311439 979 L-309524 979 L-309350 978 L-307821 978 L-307493 978 L-307377 978 L-306970 978 L-306622 978 L-304978 978 L-304427 978 L-304184 978 L-303642 978 L-302811 978 L-302269 978 L-300735 978 L-300643 978 L-300606 978 L-300470 978 L-300083 977 L-299058 977 L-297181 977 L-297085 977 L-296485 979 L-296118 981 L-295633 983 L-295595 985 L-294821 985 L-294764 985 L-294589 985 L-294396 985 L-292790 984 L-292770 984 L-292615 985 L-292500 985 L-291320 985 L-291165 985 L-290498 985 L-288050 989 L-285535 994 L-282866 998 L-275166 1003 L-269499 1003 L-267284 1003 L-267261 1003 L-266287 1004 L-266267 1004 L-265403 1004 L-262663 1004 L-256865 1003 L-256711 1002 L-253925 1002 L-240317 1002 L-239571 1002 L-235160 1002 L-218814 1002 L-218582 1002 L-218045 1002 L-209585 1002 L-200880 1002 L-200668 1002 L-198695 1002 L-195909 1002 L-191421 1002 L-191267 1002 L-191097 1002 L-190957 1002 L-190666 1002 L-190628 1001 L-190357 1001 L-190185 1001 L-189775 1001 L-188655 1001 L-187474 1001 L-186197 1001 L-183334 1001 L-180413 1001 L-178421 1001 L-176874 1001 L-173836 1001 L-164511 1001 L-163987 1001 L-158263 1001 L-156756 1001 L-155942 1001 L-154258 1001 L-153537 1000 L-153369 1000 L-152324 1000 L-150256 1000 L-148894 1000 L-144451 1000 L-144354 1000 L-144315 1000 L-144296 1000 L-143464 1000 L-143386 1000 L-140814 1000 L-137564 1000 L-137409 1000 L-136461 1000 L-134720 1000 L-134005 1000 L-130464 1000 L-123887 1000 L-122469 1001 L-122448 1001 L-121498 1001 L-118024 1001 L-117270 1001 L-116709 1001 L-115927 1001 L-108422 1000 L-106824 1000 L-105250 1000 L-102065 1000 L-97732 1000 L-89162 1000 L-80416 1000 L-77342 1000 L-74076 1000 L-73529 1000 L-66392 1000 L-60724 1000 L-46660 1000 L-40649 1000 L-35942 1000 L-31939 1000 L-26832 1000 L-17118 1000 L-1547 1000 L1535 999 L1837 975 L1857 944 L1875 910 L1895 871 L1915 853 L1934 839 L1953 825 L1980 811 L2001 798 L2029 784 L2064 769 L2078 756 L2091 745 L2110 736 L2128 729 L2148 722 L2166 715 L2186 708 L2206 701 L2227 694 L2244 687 L2262 680 L2283 673 L2303 666 L2321 659 L2340 651 L2360 643 L2380 636 L2398 628 L2417 621 L2438 615 L2463 608 L2478 602 L2495 595 L2514 589 L2534 583 L2553 576 L2572 569 L2592 562 L2613 556 L2630 550 L2649 545 L2670 539 L2690 534 L2708 530 L2727 526 L2747 521 L2765 517 L2785 514 L2804 510 L2824 507 L2843 504 L2863 501 L2881 498 L2909 495 L2930 491 L2957 486 L2991 482 L3006 478 L3019 474 L3037 471 L3056 469 L3076 466 L3095 463 L3114 459 L3134 456 L3155 453 L3172 450 L3191 447 L3211 444 L3231 441 L3250 437 L3268 433 L3288 429 L3308 424 L3327 420 L3346 416 L3367 411 L3391 405 L3406 400 L3423 395 L3443 390 L3462 385 L3482 380 L3500 374 L3520 369 L3541 364 L3559 359 L3578 354 L3598 349 L3618 344 L3636 340 L3655 336 L3675 332 L3694 328 L3714 325 L3732 321 L3752 317 L3772 314 L3791 310 L3810 306 L3839 303 L3858 299 L3886 296 L3923 292 L3938 288 L3951 284 L3968 281 L3985 278 L4005 276 L4023 274 L4043 272 L4063 270 L4083 268 L4101 265 L4119 263 L4140 260 L4160 258 L4178 255 L4197 252 L4217 249 L4236 246 L4255 242 L4274 239 L4295 236 L4320 233 L4334 229 L4351 226 L4371 223 L4390 220 L4410 216 L4429 213 L4449 209 L4469 206 L4488 203 L4506 200 L4527 197 L4547 194 L4565 191 L4584 188 L4604 185 L4622 183 L4642 180 L4661 177 L4681 175 L4700 172 L4720 170 L4739 167 L4767 165 L4787 162 L4815 159 L4851 155 L4865 151 L4878 147 L4896 144 L4914 142 L4934 140 L4952 138 L4972 135 L4992 132 L5013 129 L5031 126 L5048 123 L5069 119 L5089 115 L5107 111 L5126 107 L5146 103 L5166 99 L5184 95 L5203 92 L5224 90 L5249 88 L5264 86 L5281 84 L5300 82 L5320 80 L5339 78 L5358 75 L5378 73 L5399 72 L5416 70 L5435 68 L5456 66 L5476 63 L5493 60 L5512 58 L5532 57 L5551 55 L5571 54 L5590 53 L5610 52 L5629 50 L5648 49 L5667 47 L5695 46 L5715 44 L5743 43 L5778 41 L5792 40 L5805 38 L5824 37 L5842 36 L5862 35 L5881 34 L5900 33 L5920 32 L5941 31 L5958 30 L5977 28 L5997 27 L6017 26 L6035 25 L6054 23 L6074 22 L6094 21 L6113 20 L6131 19 L6153 18 L6177 17 L6192 16 L6209 15 L6229 14 L6248 13 L6267 12 L6286 11 L6306 10 L6327 9 L6345 8 L6364 7 L6384 6 L6405 5 L6422 4 L6441 3 L6461 2 L6480 1 L6500 0" />
</svg>
