<svg xmlns="http://www.w3.org/2000/svg" version="1.1" viewBox="0 0 6500 1000">
	<path fill="none" stroke="gold" stroke-width="125" stroke-linecap="round" stroke-linejoin="round" d="M0 1019  L-716107 1019 L-713503 1019 L-711835 1019 L-693506 1019 L-693335 1019 L-686178 1018 L-686144 1018 L-672713 1018 L-669792 1018 L-656451 1018 L-652282 1018 L-651122 1018 L-650503 1017 L-648491 1017 L-644719 1017 L-644119 1017 L-643790 1017 L-643577 1017 L-643035 1016 L-641797 1016 L-640618 1015 L-637754 1015 L-637232 1014 L-632376 1014 L-629439 1014 L-629396 1014 L-629088 1014 L-628836 1014 L-626241 1014 L-621986 1014 L-621968 1014 L-620731 1014 L-618853 1014 L-616900 1013 L-615952 1013 L-615681 1013 L-615371 1013 L-615273 1013 L-614443 1013 L-612412 1013 L-612121 1012 L-609975 1012 L-609820 1012 L-606163 1011 L-605912 1012 L-605814 1012 L-605297 1012 L-603145 1012 L-602217 1012 L-600691 1013 L-599451 1013 L-597905 1013 L-594943 1013 L-593821 1012 L-593512 1012 L-592301 1012 L-589294 1013 L-589274 1013 L-588927 1013 L-588714 1013 L-588587 1012 L-588346 1012 L-588308 1012 L-588288 1011 L-588269 1011 L-588210 1011 L-588152 1011 L-588133 1011 L-587690 1011 L-586451 1011 L-584905 1010 L-581518 1010 L-575791 1010 L-575590 1010 L-573954 1010 L-572232 1010 L-570800 1010 L-570568 1010 L-569852 1010 L-563720 1010 L-563352 1010 L-563198 1010 L-562620 1009 L-562327 1009 L-561360 1009 L-561050 1009 L-560451 1009 L-558845 1009 L-558110 1009 L-557800 1009 L-557032 1009 L-554995 1009 L-554570 1009 L-553758 1009 L-546329 1008 L-545806 1008 L-545632 1008 L-544897 1008 L-543330 1008 L-542924 1008 L-540699 1008 L-539751 1008 L-539326 1008 L-538996 1008 L-537952 1008 L-535844 1007 L-535592 1007 L-534973 1007 L-534160 1007 L-532052 1007 L-532004 1007 L-530076 1007 L-529750 1007 L-529615 1006 L-529112 1006 L-527699 1006 L-527196 1006 L-526674 1006 L-523115 1006 L-522380 1005 L-519955 1005 L-518665 1005 L-518258 1005 L-515106 1005 L-514951 1005 L-514931 1005 L-514564 1005 L-513306 1005 L-512591 1005 L-511701 1005 L-511294 1005 L-510366 1005 L-509257 1005 L-508954 1005 L-502705 1006 L-501757 1006 L-500131 1006 L-499630 1006 L-495954 1006 L-495121 1006 L-491168 1006 L-489757 1006 L-487267 1006 L-486591 1006 L-486552 1006 L-485681 1006 L-482470 1006 L-479607 1005 L-478639 1005 L-477517 1005 L-477498 1005 L-475873 1005 L-475409 1005 L-475317 1005 L-468948 1005 L-468000 1005 L-465543 1005 L-464670 1004 L-463434 1004 L-461433 1004 L-461035 1004 L-459599 1004 L-457573 1004 L-457360 1004 L-456180 1004 L-454671 1004 L-454651 1004 L-452639 1004 L-451769 1003 L-450898 1003 L-450314 1003 L-449776 1003 L-449119 1003 L-447881 1003 L-447320 1003 L-446139 1003 L-444901 1003 L-444863 1003 L-444476 1002 L-443934 1002 L-443160 1002 L-442038 1002 L-439949 1002 L-439616 1002 L-439330 1002 L-438401 1002 L-437918 1002 L-437183 1002 L-433551 1001 L-432424 1001 L-432269 1001 L-431243 1001 L-427528 1001 L-426311 1001 L-424493 1001 L-421707 1001 L-421145 1001 L-417258 1001 L-414781 1001 L-413446 1001 L-412943 1001 L-412460 1000 L-409770 1000 L-405999 1000 L-403541 1000 L-402362 1000 L-401722 1000 L-399363 1000 L-399285 1000 L-398238 1000 L-398144 1000 L-397642 1000 L-397196 1000 L-397138 1000 L-396925 1000 L-393965 1000 L-391258 1000 L-391103 1000 L-387582 1000 L-387059 1000 L-386092 999 L-385743 999 L-384699 999 L-383770 999 L-383345 999 L-381836 999 L-380869 999 L-380850 999 L-378954 994 L-378838 989 L-378790 984 L-378766 979 L-375761 979 L-373731 979 L-371970 979 L-371603 979 L-371157 979 L-370790 979 L-370376 979 L-368391 979 L-368178 979 L-368023 979 L-366418 979 L-365296 978 L-364348 978 L-363091 978 L-361446 978 L-360266 978 L-353677 978 L-353630 978 L-353225 978 L-352180 978 L-352044 978 L-350362 978 L-350342 978 L-349005 977 L-347769 977 L-347614 977 L-347241 977 L-347034 977 L-346725 977 L-345951 977 L-343629 977 L-342972 977 L-340844 977 L-339121 977 L-338928 976 L-336375 976 L-336098 976 L-335910 976 L-335078 976 L-334305 976 L-333607 976 L-328607 976 L-328231 976 L-323978 976 L-323491 982 L-323471 982 L-323392 982 L-323317 982 L-323297 975 L-322485 975 L-321731 975 L-320512 975 L-319080 975 L-318983 975 L-318809 975 L-318455 975 L-317145 975 L-315288 975 L-313586 975 L-313083 975 L-312818 975 L-312424 974 L-312290 974 L-311380 974 L-311004 974 L-310076 974 L-309736 974 L-309697 974 L-309659 974 L-307744 974 L-307570 974 L-306041 974 L-305713 974 L-305597 974 L-305190 974 L-304842 974 L-303198 974 L-302647 974 L-302404 973 L-301863 973 L-301031 973 L-300490 973 L-298955 973 L-298863 973 L-298826 973 L-298690 973 L-298303 973 L-297278 973 L-295401 973 L-295305 973 L-294705 975 L-294338 977 L-293853 979 L-293815 982 L-293041 982 L-292984 982 L-292809 981 L-292616 981 L-291010 981 L-290990 981 L-290835 981 L-290720 981 L-289540 981 L-289386 982 L-288719 982 L-286270 987 L-283756 993 L-281086 998 L-273387 1003 L-267719 1003 L-265504 1003 L-265481 1003 L-264507 1005 L-264487 1005 L-263623 1005 L-260883 1004 L-255085 1003 L-254931 1003 L-252145 1003 L-238537 1003 L-237791 1003 L-233380 1003 L-217034 1002 L-216802 1002 L-216265 1002 L-207806 1002 L-199100 1002 L-198888 1002 L-196915 1002 L-194129 1002 L-189642 1002 L-189487 1002 L-189318 1002 L-189177 1002 L-188887 1002 L-188848 1002 L-188577 1002 L-188405 1002 L-187995 1002 L-186875 1001 L-185694 1001 L-184418 1001 L-181554 1001 L-178634 1001 L-176641 1001 L-175094 1001 L-172056 1001 L-162731 1001 L-162207 1001 L-156484 1001 L-154977 1001 L-154162 1001 L-152478 1001 L-151757 1001 L-151589 1000 L-150544 1000 L-148476 1000 L-147114 1000 L-142671 1000 L-142574 1000 L-142535 1000 L-142516 1000 L-141684 1000 L-141606 1000 L-139034 1000 L-135784 1000 L-135630 1000 L-134681 1000 L-132940 999 L-132225 1000 L-128684 1000 L-122107 1001 L-120689 1001 L-120669 1001 L-119718 1001 L-116244 1001 L-115491 1001 L-114929 1001 L-114147 1001 L-106643 1001 L-105044 1000 L-103470 1000 L-100285 1000 L-95952 1000 L-87382 1000 L-78636 1000 L-75562 1000 L-72296 1000 L-71749 1000 L-64612 1000 L-58945 1000 L-44880 1000 L-38869 1000 L-34162 1000 L-30159 1000 L-25052 1000 L-15338 1000 L232 999 L3315 999 L3617 970 L3636 933 L3655 891 L3675 845 L3695 823 L3714 806 L3733 789 L3760 773 L3781 757 L3809 740 L3844 722 L3858 706 L3871 693 L3889 682 L3908 674 L3928 665 L3946 657 L3966 648 L3986 640 L4007 631 L4024 623 L4042 614 L4063 606 L4083 598 L4101 589 L4120 580 L4140 570 L4160 561 L4178 552 L4197 544 L4218 536 L4243 528 L4258 520 L4275 513 L4294 505 L4314 497 L4333 489 L4352 481 L4372 473 L4392 466 L4410 458 L4429 452 L4450 445 L4470 439 L4487 434 L4506 429 L4526 424 L4545 419 L4565 414 L4584 410 L4604 406 L4623 403 L4643 399 L4661 396 L4689 391 L4709 387 L4737 382 L4771 376 L4785 371 L4799 367 L4817 363 L4836 360 L4856 357 L4875 353 L4894 349 L4914 345 L4935 341 L4952 338 L4971 335 L4991 331 L5011 327 L5029 322 L5048 317 L5068 312 L5088 307 L5107 301 L5125 296 L5147 290 L5171 284 L5186 277 L5203 271 L5223 265 L5242 259 L5262 253 L5280 246 L5300 240 L5321 234 L5339 228 L5358 222 L5378 216 L5398 210 L5416 205 L5435 200 L5455 195 L5474 191 L5494 187 L5512 182 L5532 178 L5552 173 L5571 169 L5590 165 L5619 160 L5638 156 L5666 152 L5703 147 L5718 142 L5731 138 L5748 134 L5765 131 L5785 128 L5803 125 L5822 123 L5842 120 L5863 118 L5880 115 L5899 112 L5920 109 L5939 106 L5958 103 L5977 99 L5997 95 L6016 91 L6035 87 L6054 83 L6075 80 L6099 76 L6114 72 L6131 68 L6151 64 L6170 60 L6190 56 L6209 52 L6229 48 L6249 44 L6267 40 L6286 36 L6306 32 L6327 29 L6345 26 L6364 22 L6384 19 L6402 16 L6422 12 L6441 9 L6461 6 L6480 3 L6500 0" />
</svg>
