<svg xmlns="http://www.w3.org/2000/svg" version="1.1" viewBox="0 0 6500 1000">
	<path fill="none" stroke="gold" stroke-width="125" stroke-linecap="round" stroke-linejoin="round" d="M0 14977  L-168908 14977 L-166303 14889 L-164635 14800 L-146306 14623 L-146136 14446 L-138978 14269 L-138945 14269 L-125514 14180 L-122592 14269 L-109251 14003 L-105082 13649 L-103922 13206 L-103303 12763 L-101291 12497 L-97519 12320 L-96919 12143 L-96591 11966 L-96378 11789 L-95836 11612 L-94598 10903 L-93419 10194 L-90555 9486 L-90032 8777 L-85177 8600 L-82240 8423 L-82197 8246 L-81888 8069 L-81636 7891 L-79041 7714 L-74786 7714 L-74768 7714 L-73531 7714 L-71654 7714 L-69700 7537 L-68752 7360 L-68482 7183 L-68172 7094 L-68074 7006 L-67243 7006 L-65212 7094 L-64922 6297 L-62776 5943 L-62620 5411 L-58964 4880 L-58713 5146 L-58614 5057 L-58097 5323 L-55946 5766 L-55017 6209 L-53491 6651 L-52252 6651 L-50705 6563 L-47743 6386 L-46621 6209 L-46312 6031 L-45101 5943 L-42094 6917 L-42075 6829 L-41727 6740 L-41514 6651 L-41388 5411 L-41146 5234 L-41108 5057 L-41089 4880 L-41070 4703 L-41011 4526 L-40952 4348 L-40934 4171 L-40491 3994 L-39252 3817 L-37706 3640 L-34318 3463 L-28592 3374 L-28390 3286 L-26754 3197 L-25032 3108 L-23600 3020 L-23368 2931 L-22653 2843 L-16521 2754 L-16153 2577 L-15998 2400 L-15420 2223 L-15127 2046 L-14160 1868 L-13851 1691 L-13251 1514 L-11645 1514 L-10910 1514 L-10600 1603 L-9832 1603 L-7796 1426 L-7371 1248 L-6558 1160 L870 983 L1393 806 L1566 628 L2301 451 L3869 274 L4274 186 L6500 8" />
</svg>
