<svg xmlns="http://www.w3.org/2000/svg" version="1.1" viewBox="0 0 6500 1000">
	<path fill="none" stroke="gold" stroke-width="125" stroke-linecap="round" stroke-linejoin="round" d="M0 4280  L-722917 4280 L-720313 4280 L-718645 4279 L-700315 4279 L-700145 4279 L-692987 4278 L-692954 4278 L-679523 4278 L-676602 4278 L-663261 4278 L-659092 4277 L-657932 4276 L-657312 4275 L-655301 4274 L-651529 4274 L-650929 4273 L-650600 4273 L-650387 4273 L-649845 4272 L-648607 4270 L-647428 4269 L-644564 4267 L-644042 4266 L-639186 4265 L-636249 4265 L-636206 4264 L-635898 4264 L-635646 4264 L-633051 4263 L-628795 4263 L-628777 4263 L-627541 4263 L-625663 4263 L-623710 4263 L-622762 4262 L-622491 4262 L-622181 4262 L-622083 4262 L-621253 4262 L-619222 4262 L-618931 4260 L-616785 4259 L-616630 4258 L-612973 4257 L-612722 4257 L-612624 4257 L-612106 4258 L-609955 4259 L-609026 4260 L-607500 4261 L-606261 4261 L-604714 4261 L-601753 4260 L-600631 4260 L-600322 4259 L-599110 4259 L-596104 4261 L-596084 4261 L-595737 4261 L-595524 4261 L-595397 4258 L-595156 4258 L-595118 4257 L-595098 4257 L-595079 4256 L-595020 4256 L-594961 4255 L-594943 4255 L-594500 4255 L-593261 4254 L-591715 4254 L-588327 4253 L-582601 4253 L-582400 4253 L-580764 4253 L-579042 4253 L-577610 4252 L-577377 4252 L-576662 4252 L-570530 4252 L-570162 4251 L-570008 4251 L-569429 4251 L-569137 4250 L-568170 4250 L-567860 4249 L-567261 4249 L-565655 4249 L-564920 4249 L-564610 4249 L-563841 4249 L-561805 4249 L-561380 4248 L-560567 4248 L-553139 4248 L-552616 4247 L-552442 4247 L-551707 4247 L-550140 4246 L-549734 4246 L-547509 4246 L-546561 4245 L-546136 4245 L-545806 4245 L-544762 4245 L-542654 4245 L-542402 4244 L-541783 4244 L-540970 4244 L-538862 4243 L-538814 4243 L-536885 4242 L-536560 4242 L-536425 4241 L-535922 4241 L-534509 4241 L-534006 4240 L-533484 4239 L-529925 4239 L-529189 4238 L-526765 4238 L-525475 4237 L-525068 4237 L-521916 4237 L-521761 4237 L-521741 4237 L-521374 4237 L-520116 4238 L-519401 4238 L-518511 4238 L-518104 4238 L-517175 4238 L-516067 4238 L-515764 4238 L-509515 4239 L-508567 4239 L-506941 4240 L-506439 4240 L-502764 4240 L-501931 4240 L-497978 4240 L-496566 4240 L-494077 4239 L-493401 4239 L-493362 4239 L-492491 4239 L-489280 4239 L-486417 4238 L-485449 4238 L-484327 4238 L-484308 4237 L-482683 4237 L-482219 4236 L-482127 4236 L-475758 4236 L-474810 4236 L-472353 4236 L-471480 4235 L-470244 4235 L-468243 4235 L-467845 4234 L-466409 4234 L-464383 4234 L-464170 4233 L-462990 4233 L-461481 4233 L-461461 4233 L-459449 4233 L-458579 4232 L-457708 4232 L-457123 4232 L-456586 4231 L-455929 4231 L-454690 4230 L-454130 4230 L-452949 4230 L-451711 4230 L-451673 4230 L-451286 4229 L-450744 4229 L-449970 4229 L-448848 4229 L-446759 4228 L-446426 4228 L-446140 4227 L-445211 4227 L-444728 4227 L-443993 4226 L-440361 4226 L-439234 4226 L-439079 4226 L-438053 4225 L-434338 4225 L-433121 4225 L-431302 4224 L-428517 4224 L-427955 4224 L-424067 4224 L-421591 4224 L-420256 4224 L-419753 4223 L-419269 4223 L-416580 4223 L-412808 4223 L-410351 4223 L-409171 4223 L-408532 4223 L-406173 4223 L-406095 4222 L-405048 4222 L-404954 4222 L-404451 4222 L-404006 4222 L-403948 4222 L-403735 4222 L-400775 4221 L-398067 4221 L-397913 4221 L-394392 4221 L-393869 4220 L-392902 4220 L-392552 4220 L-391509 4219 L-390580 4219 L-390155 4219 L-388646 4219 L-387679 4219 L-387660 4218 L-385764 4204 L-385648 4188 L-385600 4173 L-385575 4158 L-382571 4158 L-380541 4158 L-378780 4158 L-378413 4157 L-377967 4157 L-377600 4157 L-377186 4156 L-375201 4156 L-374988 4156 L-374833 4156 L-373228 4156 L-372106 4156 L-371158 4156 L-369901 4155 L-368256 4155 L-367076 4155 L-360487 4154 L-360440 4154 L-360035 4154 L-358989 4154 L-358854 4153 L-357171 4153 L-357152 4153 L-355815 4152 L-354579 4152 L-354424 4152 L-354050 4152 L-353844 4151 L-353535 4151 L-352761 4151 L-350439 4151 L-349782 4150 L-347654 4150 L-345931 4150 L-345738 4150 L-343185 4149 L-342908 4149 L-342720 4149 L-341888 4148 L-341115 4148 L-340417 4148 L-335416 4148 L-335041 4148 L-330788 4147 L-330301 4167 L-330281 4167 L-330202 4167 L-330127 4167 L-330107 4146 L-329294 4146 L-328541 4146 L-327321 4146 L-325890 4146 L-325793 4145 L-325619 4145 L-325265 4145 L-323955 4145 L-322098 4145 L-320396 4144 L-319893 4144 L-319627 4144 L-319234 4144 L-319100 4143 L-318190 4143 L-317814 4143 L-316885 4143 L-316546 4143 L-316507 4143 L-316469 4143 L-314554 4143 L-314380 4142 L-312851 4142 L-312523 4142 L-312407 4142 L-312000 4142 L-311652 4141 L-310008 4141 L-309457 4141 L-309214 4141 L-308672 4140 L-307841 4140 L-307299 4140 L-305765 4139 L-305673 4139 L-305636 4139 L-305500 4139 L-305113 4138 L-304088 4138 L-302211 4138 L-302115 4138 L-301515 4144 L-301148 4151 L-300663 4158 L-300625 4165 L-299851 4166 L-299794 4165 L-299619 4165 L-299426 4165 L-297820 4164 L-297800 4164 L-297645 4165 L-297530 4165 L-296350 4165 L-296195 4166 L-295528 4166 L-293080 4182 L-290565 4199 L-287896 4216 L-280196 4232 L-274529 4232 L-272314 4232 L-272291 4232 L-271317 4236 L-271297 4236 L-270433 4236 L-267693 4235 L-261895 4231 L-261741 4231 L-258955 4231 L-245347 4230 L-244601 4230 L-240190 4230 L-223844 4229 L-223612 4229 L-223075 4229 L-214615 4229 L-205910 4228 L-205698 4228 L-203725 4228 L-200939 4228 L-196451 4228 L-196297 4228 L-196127 4228 L-195987 4228 L-195696 4227 L-195658 4227 L-195387 4227 L-195215 4227 L-194805 4226 L-193685 4226 L-192504 4226 L-191227 4226 L-188364 4226 L-185443 4225 L-183451 4225 L-181904 4225 L-178866 4225 L-169541 4224 L-169017 4224 L-163293 4224 L-161786 4224 L-160972 4224 L-159288 4224 L-158567 4223 L-158399 4223 L-157354 4223 L-155286 4223 L-153924 4223 L-149481 4222 L-149384 4222 L-149345 4222 L-149326 4222 L-148494 4222 L-148416 4221 L-145844 4221 L-142594 4221 L-142439 4221 L-141491 4220 L-139750 4220 L-139035 4221 L-135494 4222 L-128917 4223 L-127499 4225 L-127478 4225 L-126528 4225 L-123054 4224 L-122300 4224 L-121739 4224 L-120957 4224 L-113452 4223 L-111854 4223 L-110280 4223 L-107095 4223 L-102762 4223 L-94192 4222 L-85446 4222 L-82372 4222 L-79106 4222 L-78559 4222 L-71422 4221 L-65754 4221 L-51690 4221 L-45679 4222 L-40972 4221 L-36969 4221 L-31862 4221 L-22148 4221 L-6577 4220 L-3494 4220 L-3192 4129 L-3172 4016 L-3154 3888 L-3134 3746 L-3114 3681 L-3095 3626 L-3076 3576 L-3049 3526 L-3028 3477 L-3000 3426 L-2965 3370 L-2951 3322 L-2938 3281 L-2919 3247 L-2901 3222 L-2881 3196 L-2863 3170 L-2843 3145 L-2823 3119 L-2802 3092 L-2785 3065 L-2767 3039 L-2746 3015 L-2726 2990 L-2708 2962 L-2689 2935 L-2669 2906 L-2649 2878 L-2631 2851 L-2612 2825 L-2591 2800 L-2566 2775 L-2551 2752 L-2534 2728 L-2515 2705 L-2495 2682 L-2476 2657 L-2457 2631 L-2437 2607 L-2416 2584 L-2399 2562 L-2380 2541 L-2359 2522 L-2339 2503 L-2321 2487 L-2303 2471 L-2282 2456 L-2264 2441 L-2244 2427 L-2225 2414 L-2205 2403 L-2186 2392 L-2166 2381 L-2148 2370 L-2120 2357 L-2099 2343 L-2072 2327 L-2038 2309 L-2023 2295 L-2010 2282 L-1992 2271 L-1973 2261 L-1953 2251 L-1934 2239 L-1915 2227 L-1895 2215 L-1874 2204 L-1857 2194 L-1838 2183 L-1818 2172 L-1798 2159 L-1779 2145 L-1761 2129 L-1741 2114 L-1721 2097 L-1702 2081 L-1683 2065 L-1662 2047 L-1638 2027 L-1623 2007 L-1606 1988 L-1586 1970 L-1567 1952 L-1547 1932 L-1529 1912 L-1509 1893 L-1488 1874 L-1470 1855 L-1451 1837 L-1431 1820 L-1411 1802 L-1393 1786 L-1374 1771 L-1354 1756 L-1335 1743 L-1315 1729 L-1297 1716 L-1277 1703 L-1257 1689 L-1238 1675 L-1219 1662 L-1190 1649 L-1171 1637 L-1143 1624 L-1106 1608 L-1091 1594 L-1078 1580 L-1061 1568 L-1044 1558 L-1024 1550 L-1006 1542 L-986 1534 L-966 1527 L-946 1519 L-928 1510 L-910 1501 L-889 1492 L-870 1482 L-851 1472 L-832 1461 L-812 1450 L-793 1438 L-774 1425 L-755 1414 L-734 1402 L-710 1390 L-695 1378 L-678 1366 L-658 1354 L-639 1342 L-619 1330 L-600 1317 L-580 1304 L-560 1291 L-541 1279 L-523 1268 L-502 1257 L-482 1246 L-464 1236 L-445 1226 L-425 1216 L-407 1206 L-387 1196 L-368 1186 L-348 1176 L-329 1167 L-309 1158 L-290 1148 L-262 1139 L-242 1129 L-214 1118 L-178 1103 L-164 1089 L-151 1076 L-133 1064 L-115 1057 L-95 1049 L-77 1040 L-57 1030 L-37 1020 L-16 1008 L1 996 L18 984 L39 971 L59 957 L77 942 L96 927 L116 911 L136 897 L154 884 L173 872 L194 864 L219 856 L234 849 L251 842 L270 834 L290 826 L309 818 L328 810 L348 803 L369 796 L386 791 L405 784 L426 775 L446 764 L463 755 L482 747 L502 741 L521 736 L541 732 L560 727 L580 722 L599 716 L618 711 L637 706 L665 700 L685 696 L713 690 L748 683 L762 677 L775 673 L794 668 L812 664 L832 660 L851 656 L870 652 L890 649 L911 645 L928 641 L947 637 L967 632 L987 627 L1005 623 L1024 618 L1044 615 L1064 611 L1083 607 L1101 603 L1123 599 L1147 596 L1162 592 L1179 589 L1199 585 L1218 581 L1237 577 L1256 573 L1276 568 L1297 564 L1315 560 L1334 556 L1354 552 L1375 549 L1392 545 L1411 542 L1431 538 L1450 535 L1469 532 L1488 529 L1508 527 L1528 524 L1547 522 L1566 526 L1594 530 L1614 534 L1642 538 L1679 534 L1695 531 L1707 528 L1725 526 L1741 524 L1761 522 L1779 520 L1799 517 L1819 515 L1840 513 L1857 511 L1875 509 L1896 507 L1916 505 L1934 502 L1953 500 L1973 497 L1993 495 L2011 493 L2030 491 L2051 489 L2076 487 L2090 484 L2108 482 L2127 480 L2147 477 L2166 475 L2185 472 L2205 470 L2226 466 L2243 463 L2262 460 L2283 457 L2303 454 L2321 451 L2339 448 L2359 445 L2378 443 L2398 440 L2417 437 L2437 433 L2456 431 L2476 429 L2494 426 L2522 424 L2542 421 L2570 418 L2605 415 L2619 412 L2632 410 L2651 407 L2669 405 L2690 403 L2708 400 L2727 398 L2747 395 L2768 393 L2785 390 L2804 388 L2824 385 L2844 382 L2863 378 L2881 375 L2901 370 L2922 367 L2940 363 L2958 360 L2980 356 L3005 353 L3019 349 L3037 345 L3056 342 L3075 338 L3094 335 L3113 331 L3134 328 L3154 324 L3172 321 L3191 318 L3211 315 L3232 312 L3249 309 L3268 307 L3288 305 L3307 302 L3327 300 L3345 298 L3365 296 L3385 294 L3404 293 L3423 291 L3450 289 L3471 287 L3499 285 L3534 281 L3548 278 L3561 274 L3580 271 L3598 269 L3618 267 L3636 264 L3656 262 L3676 260 L3697 258 L3714 255 L3732 252 L3753 250 L3773 247 L3791 244 L3810 241 L3830 238 L3850 235 L3868 232 L3887 230 L3908 228 L3933 226 L3948 224 L3965 221 L3984 219 L4004 216 L4023 213 L4042 210 L4062 206 L4083 202 L4100 198 L4119 195 L4140 192 L4161 189 L4178 187 L4197 185 L4217 184 L4236 182 L4255 180 L4274 178 L4294 176 L4313 175 L4333 173 L4351 171 L4379 170 L4400 168 L4427 166 L4462 165 L4476 163 L4489 161 L4508 160 L4526 159 L4546 157 L4565 156 L4584 155 L4604 154 L4625 152 L4642 151 L4661 149 L4681 148 L4701 146 L4719 145 L4738 143 L4758 142 L4778 141 L4797 140 L4816 139 L4837 138 L4861 137 L4876 135 L4893 134 L4913 132 L4932 131 L4952 130 L4970 129 L4990 127 L5011 124 L5029 121 L5048 119 L5068 116 L5089 113 L5106 111 L5125 110 L5145 107 L5164 106 L5184 104 L5202 102 L5222 100 L5242 99 L5261 97 L5280 96 L5309 95 L5356 93 L5393 92 L5408 90 L5420 89 L5438 88 L5455 87 L5475 86 L5493 85 L5513 84 L5533 83 L5553 82 L5571 81 L5589 80 L5610 80 L5629 78 L5648 77 L5667 76 L5687 74 L5707 73 L5725 72 L5744 70 L5765 68 L5790 66 L5804 63 L5822 61 L5841 59 L5860 57 L5880 55 L5899 54 L5919 52 L5940 49 L5957 47 L5976 45 L5997 44 L6017 42 L6035 41 L6054 40 L6074 38 L6092 37 L6112 36 L6131 34 L6151 32 L6170 31 L6190 29 L6209 28 L6237 26 L6257 25 L6285 23 L6322 19 L6336 16 L6349 13 L6366 11 L6384 9 L6404 8 L6422 7 L6442 5 L6462 4 L6483 3 L6500 2" />
</svg>
