<svg xmlns="http://www.w3.org/2000/svg" version="1.1" viewBox="0 0 6500 1000">
	<path fill="none" stroke="gold" stroke-width="125" stroke-linecap="round" stroke-linejoin="round" d="M0 3188  L-729652 3188 L-727048 3188 L-725380 3188 L-707050 3188 L-706880 3187 L-699722 3187 L-699689 3187 L-686258 3187 L-683336 3187 L-669995 3187 L-665827 3186 L-664666 3186 L-664047 3185 L-662035 3184 L-658264 3184 L-657664 3184 L-657335 3184 L-657122 3183 L-656580 3183 L-655342 3182 L-654163 3181 L-651299 3180 L-650777 3179 L-645921 3178 L-642984 3178 L-642941 3178 L-642633 3178 L-642381 3177 L-639786 3177 L-635530 3177 L-635512 3177 L-634276 3177 L-632398 3177 L-630445 3177 L-629497 3177 L-629226 3176 L-628916 3176 L-628818 3176 L-627988 3176 L-625957 3176 L-625666 3175 L-623520 3174 L-623364 3174 L-619708 3173 L-619457 3173 L-619358 3173 L-618841 3173 L-616690 3174 L-615761 3175 L-614235 3175 L-612996 3175 L-611449 3175 L-608488 3175 L-607366 3175 L-607057 3175 L-605845 3174 L-602839 3176 L-602819 3176 L-602472 3176 L-602258 3175 L-602132 3174 L-601891 3173 L-601853 3173 L-601833 3173 L-601814 3172 L-601755 3172 L-601696 3172 L-601678 3172 L-601235 3171 L-599996 3171 L-598450 3171 L-595062 3171 L-589336 3170 L-589135 3170 L-587499 3170 L-585777 3170 L-584345 3170 L-584112 3170 L-583397 3170 L-577265 3169 L-576897 3169 L-576743 3169 L-576164 3169 L-575872 3168 L-574904 3168 L-574595 3168 L-573996 3168 L-572390 3168 L-571654 3168 L-571345 3168 L-570576 3168 L-568540 3167 L-568115 3167 L-567302 3167 L-559874 3167 L-559351 3166 L-559177 3166 L-558442 3166 L-556875 3166 L-556469 3166 L-554244 3165 L-553296 3165 L-552871 3165 L-552541 3165 L-551497 3165 L-549389 3165 L-549137 3164 L-548518 3164 L-547705 3164 L-545597 3164 L-545549 3163 L-543620 3163 L-543295 3163 L-543160 3163 L-542656 3162 L-541244 3162 L-540741 3162 L-540219 3161 L-536659 3161 L-535924 3160 L-533499 3160 L-532210 3160 L-531803 3160 L-528651 3160 L-528496 3160 L-528476 3160 L-528109 3160 L-526851 3160 L-526136 3160 L-525246 3160 L-524839 3160 L-523910 3160 L-522802 3160 L-522498 3160 L-516250 3161 L-515302 3161 L-513676 3161 L-513174 3161 L-509499 3162 L-508666 3162 L-504713 3162 L-503301 3161 L-500812 3161 L-500136 3161 L-500097 3161 L-499226 3161 L-496015 3161 L-493152 3160 L-492184 3160 L-491062 3160 L-491043 3160 L-489418 3160 L-488954 3159 L-488862 3159 L-482493 3159 L-481544 3159 L-479087 3159 L-478215 3158 L-476979 3158 L-474978 3158 L-474580 3158 L-473144 3158 L-471118 3157 L-470904 3157 L-469724 3157 L-468216 3157 L-468196 3157 L-466184 3157 L-465314 3156 L-464443 3156 L-463858 3156 L-463321 3156 L-462663 3155 L-461425 3155 L-460865 3155 L-459684 3155 L-458446 3155 L-458408 3155 L-458021 3154 L-457479 3154 L-456705 3154 L-455583 3154 L-453494 3154 L-453160 3153 L-452875 3153 L-451946 3153 L-451463 3153 L-450727 3152 L-447096 3152 L-445969 3152 L-445814 3152 L-444788 3152 L-441073 3152 L-439856 3151 L-438037 3151 L-435252 3151 L-434690 3151 L-430802 3151 L-428326 3151 L-426991 3151 L-426487 3150 L-426004 3150 L-423315 3150 L-419543 3150 L-417086 3150 L-415906 3150 L-415267 3150 L-412908 3150 L-412830 3150 L-411783 3150 L-411689 3149 L-411186 3149 L-410741 3149 L-410683 3149 L-410469 3149 L-407510 3149 L-404802 3149 L-404647 3149 L-401127 3149 L-400604 3148 L-399636 3148 L-399287 3148 L-398244 3148 L-397315 3147 L-396890 3147 L-395380 3147 L-394414 3147 L-394395 3147 L-392499 3137 L-392383 3127 L-392335 3117 L-392310 3107 L-389306 3107 L-387275 3106 L-385515 3106 L-385148 3106 L-384702 3106 L-384335 3106 L-383921 3105 L-381936 3105 L-381723 3105 L-381568 3105 L-379963 3105 L-378841 3105 L-377893 3105 L-376635 3105 L-374991 3104 L-373811 3104 L-367222 3104 L-367175 3104 L-366769 3104 L-365724 3104 L-365589 3104 L-363906 3103 L-363886 3103 L-362550 3103 L-361313 3103 L-361159 3103 L-360785 3102 L-360579 3102 L-360270 3102 L-359496 3102 L-357174 3102 L-356517 3101 L-354389 3101 L-352666 3101 L-352473 3101 L-349919 3101 L-349643 3101 L-349455 3100 L-348622 3100 L-347850 3100 L-347152 3100 L-342151 3100 L-341775 3100 L-337523 3099 L-337035 3113 L-337016 3113 L-336937 3113 L-336862 3113 L-336842 3099 L-336029 3099 L-335276 3098 L-334056 3098 L-332625 3098 L-332528 3098 L-332354 3098 L-331999 3098 L-330690 3098 L-328833 3098 L-327131 3097 L-326628 3097 L-326362 3097 L-325969 3097 L-325835 3097 L-324925 3097 L-324549 3096 L-323620 3096 L-323281 3096 L-323242 3096 L-323204 3096 L-321288 3096 L-321115 3096 L-319586 3096 L-319258 3096 L-319142 3096 L-318735 3096 L-318386 3095 L-316743 3095 L-316192 3095 L-315949 3095 L-315407 3095 L-314576 3094 L-314034 3094 L-312500 3094 L-312408 3094 L-312371 3094 L-312235 3094 L-311848 3093 L-310823 3093 L-308946 3093 L-308850 3093 L-308250 3097 L-307883 3102 L-307398 3107 L-307360 3111 L-306586 3112 L-306529 3112 L-306354 3111 L-306161 3111 L-304555 3111 L-304535 3111 L-304380 3111 L-304265 3111 L-303085 3111 L-302930 3112 L-302263 3112 L-299815 3123 L-297300 3134 L-294631 3145 L-286931 3156 L-281264 3156 L-279049 3156 L-279026 3156 L-278052 3159 L-278032 3159 L-277168 3159 L-274428 3158 L-268629 3156 L-268476 3155 L-265690 3155 L-252082 3155 L-251336 3155 L-246925 3155 L-230579 3154 L-230347 3154 L-229810 3154 L-221350 3154 L-212645 3154 L-212432 3154 L-210460 3153 L-207674 3153 L-203186 3154 L-203031 3153 L-202862 3153 L-202722 3153 L-202431 3153 L-202393 3153 L-202122 3153 L-201950 3153 L-201540 3152 L-200419 3152 L-199239 3152 L-197962 3152 L-195098 3152 L-192178 3152 L-190186 3152 L-188639 3151 L-185601 3151 L-176276 3151 L-175752 3151 L-170028 3151 L-168521 3151 L-167707 3151 L-166023 3151 L-165302 3150 L-165134 3150 L-164089 3150 L-162021 3150 L-160659 3150 L-156216 3150 L-156119 3150 L-156080 3149 L-156061 3149 L-155229 3149 L-155151 3149 L-152578 3149 L-149329 3149 L-149174 3149 L-148226 3148 L-146485 3148 L-145770 3149 L-142229 3150 L-135651 3150 L-134234 3152 L-134213 3151 L-133263 3151 L-129788 3151 L-129035 3151 L-128474 3151 L-127692 3151 L-120187 3150 L-118589 3150 L-117015 3150 L-113830 3150 L-109497 3150 L-100927 3150 L-92181 3150 L-89107 3150 L-85841 3149 L-85294 3149 L-78157 3149 L-72489 3149 L-58425 3149 L-52414 3149 L-47707 3149 L-43704 3149 L-38597 3149 L-28882 3149 L-13312 3148 L-10229 3148 L-9927 3087 L-9907 3011 L-9889 2926 L-9869 2830 L-9849 2787 L-9830 2750 L-9811 2716 L-9784 2683 L-9763 2650 L-9735 2616 L-9700 2578 L-9686 2546 L-9673 2519 L-9654 2496 L-9636 2479 L-9616 2462 L-9598 2444 L-9578 2427 L-9558 2410 L-9537 2391 L-9520 2374 L-9502 2357 L-9481 2340 L-9461 2323 L-9443 2305 L-9424 2286 L-9404 2267 L-9384 2248 L-9366 2230 L-9347 2213 L-9326 2196 L-9301 2179 L-9286 2164 L-9269 2148 L-9249 2132 L-9230 2117 L-9211 2100 L-9192 2083 L-9172 2067 L-9151 2051 L-9134 2036 L-9115 2022 L-9094 2009 L-9074 1997 L-9056 1986 L-9037 1975 L-9017 1965 L-8999 1955 L-8979 1946 L-8960 1937 L-8940 1930 L-8920 1922 L-8901 1915 L-8883 1908 L-8855 1899 L-8834 1889 L-8807 1879 L-8773 1867 L-8758 1857 L-8745 1849 L-8727 1841 L-8708 1835 L-8688 1828 L-8669 1819 L-8650 1812 L-8630 1804 L-8609 1796 L-8592 1789 L-8573 1782 L-8553 1775 L-8533 1766 L-8514 1757 L-8496 1746 L-8476 1736 L-8456 1725 L-8437 1714 L-8418 1703 L-8397 1691 L-8373 1677 L-8358 1664 L-8341 1652 L-8321 1639 L-8302 1627 L-8282 1614 L-8264 1601 L-8243 1588 L-8223 1575 L-8205 1562 L-8186 1550 L-8166 1539 L-8145 1527 L-8128 1516 L-8109 1506 L-8089 1496 L-8070 1487 L-8050 1478 L-8031 1469 L-8012 1460 L-7992 1451 L-7973 1442 L-7954 1433 L-7925 1424 L-7905 1416 L-7878 1407 L-7840 1397 L-7825 1387 L-7813 1378 L-7796 1370 L-7779 1363 L-7759 1358 L-7740 1352 L-7721 1347 L-7701 1342 L-7681 1337 L-7663 1331 L-7645 1325 L-7624 1319 L-7604 1312 L-7586 1306 L-7567 1298 L-7547 1291 L-7527 1282 L-7509 1274 L-7490 1266 L-7469 1259 L-7444 1250 L-7430 1243 L-7412 1235 L-7392 1226 L-7374 1219 L-7354 1210 L-7335 1201 L-7315 1193 L-7295 1184 L-7276 1176 L-7258 1169 L-7237 1161 L-7217 1154 L-7199 1148 L-7180 1141 L-7160 1134 L-7142 1127 L-7122 1120 L-7103 1114 L-7083 1107 L-7064 1101 L-7044 1095 L-7025 1088 L-6997 1082 L-6977 1076 L-6949 1068 L-6913 1058 L-6899 1049 L-6886 1040 L-6868 1032 L-6850 1027 L-6830 1022 L-6812 1016 L-6792 1009 L-6772 1002 L-6751 994 L-6733 986 L-6716 978 L-6695 969 L-6675 960 L-6657 950 L-6638 940 L-6618 930 L-6598 920 L-6580 911 L-6561 903 L-6540 898 L-6515 892 L-6500 888 L-6483 883 L-6464 878 L-6444 872 L-6425 867 L-6406 861 L-6386 857 L-6365 853 L-6348 849 L-6329 844 L-6308 838 L-6288 831 L-6271 824 L-6252 819 L-6231 815 L-6213 812 L-6193 809 L-6174 806 L-6154 803 L-6135 799 L-6116 795 L-6097 792 L-6069 788 L-6048 785 L-6021 781 L-5986 776 L-5972 773 L-5959 769 L-5940 766 L-5922 764 L-5902 761 L-5883 758 L-5864 756 L-5844 753 L-5823 751 L-5806 748 L-5787 745 L-5767 742 L-5747 739 L-5729 736 L-5710 733 L-5690 731 L-5670 728 L-5651 725 L-5633 723 L-5611 720 L-5586 718 L-5572 715 L-5555 713 L-5535 711 L-5516 708 L-5497 705 L-5478 702 L-5458 699 L-5437 697 L-5419 694 L-5400 691 L-5380 689 L-5359 686 L-5342 684 L-5323 682 L-5303 679 L-5284 677 L-5264 675 L-5246 673 L-5226 672 L-5206 670 L-5187 668 L-5168 671 L-5140 674 L-5120 677 L-5092 679 L-5055 677 L-5039 675 L-5027 673 L-5009 671 L-4993 670 L-4973 669 L-4955 667 L-4935 665 L-4915 664 L-4894 663 L-4877 661 L-4859 660 L-4838 658 L-4818 657 L-4800 655 L-4781 653 L-4761 652 L-4741 650 L-4723 649 L-4704 647 L-4683 646 L-4658 645 L-4643 643 L-4626 642 L-4607 640 L-4587 638 L-4568 637 L-4549 635 L-4529 633 L-4508 631 L-4491 629 L-4472 627 L-4451 625 L-4431 623 L-4413 621 L-4394 619 L-4374 617 L-4356 615 L-4336 613 L-4317 611 L-4297 609 L-4278 607 L-4258 606 L-4240 604 L-4212 603 L-4191 601 L-4163 599 L-4129 597 L-4115 595 L-4102 593 L-4083 591 L-4064 590 L-4044 588 L-4026 587 L-4007 585 L-3987 583 L-3966 582 L-3949 580 L-3930 578 L-3910 576 L-3890 574 L-3871 572 L-3853 570 L-3833 567 L-3812 564 L-3794 562 L-3776 560 L-3754 557 L-3729 555 L-3714 553 L-3697 550 L-3678 548 L-3658 545 L-3639 543 L-3620 540 L-3600 538 L-3580 536 L-3562 534 L-3543 531 L-3523 529 L-3502 527 L-3485 526 L-3466 524 L-3446 523 L-3427 521 L-3407 520 L-3389 518 L-3369 517 L-3349 516 L-3330 515 L-3311 514 L-3283 512 L-3263 511 L-3235 510 L-3199 507 L-3186 505 L-3173 502 L-3154 500 L-3136 499 L-3116 497 L-3098 496 L-3078 494 L-3058 493 L-3037 491 L-3020 489 L-3002 488 L-2981 486 L-2961 484 L-2943 482 L-2924 480 L-2904 478 L-2884 476 L-2866 474 L-2847 473 L-2825 471 L-2801 470 L-2786 468 L-2769 467 L-2749 465 L-2730 463 L-2711 461 L-2692 459 L-2672 457 L-2651 454 L-2634 451 L-2614 449 L-2594 447 L-2573 445 L-2556 444 L-2537 443 L-2517 442 L-2498 441 L-2479 439 L-2460 438 L-2440 437 L-2420 436 L-2401 435 L-2383 433 L-2355 432 L-2334 431 L-2307 430 L-2272 429 L-2258 428 L-2245 427 L-2226 426 L-2207 425 L-2188 424 L-2169 423 L-2150 422 L-2130 421 L-2109 421 L-2092 420 L-2073 419 L-2053 418 L-2033 416 L-2014 416 L-1996 415 L-1976 414 L-1956 413 L-1937 412 L-1918 412 L-1897 411 L-1873 410 L-1858 409 L-1841 408 L-1821 407 L-1802 406 L-1782 405 L-1764 405 L-1744 403 L-1723 402 L-1705 400 L-1686 398 L-1666 396 L-1645 394 L-1628 393 L-1609 392 L-1589 390 L-1570 389 L-1550 388 L-1531 387 L-1512 386 L-1492 385 L-1473 384 L-1454 383 L-1425 382 L-1378 381 L-1341 380 L-1326 379 L-1313 378 L-1296 377 L-1279 377 L-1259 376 L-1241 376 L-1221 375 L-1201 374 L-1181 373 L-1163 373 L-1145 372 L-1124 372 L-1105 371 L-1086 370 L-1067 369 L-1047 368 L-1027 368 L-1009 367 L-990 365 L-969 364 L-944 362 L-929 361 L-912 359 L-892 358 L-873 357 L-854 355 L-835 354 L-815 353 L-794 352 L-776 350 L-758 349 L-737 348 L-717 347 L-699 346 L-680 345 L-660 344 L-641 343 L-622 342 L-603 341 L-583 340 L-564 339 L-544 338 L-525 337 L-497 336 L-477 335 L-449 334 L-412 331 L-398 329 L-385 327 L-368 326 L-350 325 L-330 324 L-312 323 L-292 322 L-272 321 L-251 321 L-234 320 L-216 318 L-195 317 L-175 315 L-157 314 L-138 312 L-118 310 L-97 308 L-80 306 L-61 305 L-40 303 L-15 302 L0 301 L17 299 L35 298 L55 297 L74 296 L93 294 L113 293 L134 291 L151 290 L171 289 L191 287 L212 286 L228 285 L248 284 L267 283 L286 282 L306 281 L325 280 L345 279 L365 278 L384 277 L402 276 L430 997 L451 996 L478 995 L514 993 L528 270 L542 268 L559 267 L577 266 L597 266 L616 265 L635 264 L655 263 L676 261 L693 260 L712 258 L732 257 L753 255 L771 253 L790 251 L809 249 L830 248 L848 247 L866 246 L888 244 L913 243 L928 241 L957 239 L997 237 L1020 235 L1050 232 L1066 230 L1080 229 L1099 227 L1119 226 L1140 225 L1157 224 L1176 223 L1196 222 L1215 221 L1235 221 L1253 220 L1273 220 L1293 219 L1312 218 L1331 217 L1358 216 L1379 215 L1407 214 L1442 213 L1456 212 L1487 210 L1506 210 L1526 209 L1544 208 L1564 207 L1584 207 L1605 206 L1622 205 L1640 204 L1661 201 L1681 198 L1699 194 L1718 191 L1738 188 L1758 186 L1776 184 L1795 183 L1817 182 L1841 180 L1856 179 L1874 178 L1892 176 L1912 175 L1931 173 L1951 172 L1970 171 L1991 169 L2008 168 L2028 166 L2048 165 L2069 164 L2086 163 L2105 162 L2125 162 L2144 161 L2163 159 L2182 159 L2202 157 L2222 157 L2241 156 L2259 155 L2287 154 L2308 153 L2378 151 L2406 149 L2420 147 L2434 145 L2455 143 L2473 142 L2492 141 L2512 140 L2533 139 L2550 138 L2569 137 L2589 136 L2610 136 L2628 134 L2647 133 L2666 132 L2687 131 L2705 129 L2724 128 L2745 127 L2770 126 L2785 125 L2802 124 L2821 123 L2841 122 L2860 120 L2879 119 L2899 118 L2920 117 L2937 116 L2956 115 L2976 114 L2998 114 L3014 113 L3072 111 L3092 111 L3110 110 L3130 109 L3150 108 L3169 107 L3188 107 L3216 106 L3236 106 L3264 105 L3301 104 L3315 103 L3328 103 L3345 102 L3363 102 L3383 101 L3401 101 L3421 100 L3441 100 L3462 100 L3479 99 L3497 99 L3518 98 L3538 98 L3556 97 L3575 96 L3595 96 L3616 95 L3633 94 L3652 93 L3674 93 L3699 92 L3713 92 L3730 91 L3750 90 L3770 90 L3788 89 L3807 88 L3827 87 L3848 86 L3865 85 L3885 84 L3905 84 L3926 83 L3943 83 L3962 82 L3982 82 L4001 81 L4020 81 L4039 80 L4059 80 L4079 80 L4098 79 L4116 79 L4144 79 L4165 78 L4193 78 L4228 77 L4241 76 L4255 76 L4273 75 L4291 75 L4311 74 L4330 74 L4369 73 L4390 73 L4407 72 L4426 72 L4446 71 L4466 70 L4485 69 L4503 69 L4523 68 L4543 67 L4562 67 L4581 66 L4602 66 L4626 65 L4641 65 L4658 64 L4678 64 L4697 63 L4717 62 L4735 62 L4755 61 L4776 61 L4794 60 L4813 59 L4833 59 L4854 58 L4871 58 L4890 57 L4910 57 L4929 56 L4949 56 L4968 55 L4987 55 L5007 54 L5026 54 L5045 54 L5074 53 L5121 52 L5159 52 L5174 51 L5187 51 L5204 51 L5220 50 L5240 50 L5258 49 L5278 49 L5298 49 L5319 49 L5336 49 L5355 48 L5375 48 L5394 48 L5413 48 L5432 47 L5452 47 L5472 47 L5490 46 L5509 46 L5530 45 L5555 45 L5569 44 L5587 43 L5606 42 L5626 41 L5645 40 L5664 39 L5684 38 L5705 36 L5723 35 L5742 34 L5762 33 L5782 32 L5800 31 L5819 30 L5839 29 L5858 28 L5877 27 L5896 27 L5916 26 L5935 25 L5955 23 L5974 22 L6002 21 L6022 20 L6050 19 L6087 18 L6102 18 L6115 17 L6132 16 L6149 16 L6169 15 L6187 14 L6207 14 L6227 13 L6248 12 L6265 12 L6283 11 L6304 10 L6325 9 L6342 8 L6362 7 L6381 7 L6402 6 L6419 5 L6438 4 L6460 3 L6484 2 L6500 1" />
</svg>
