<svg xmlns="http://www.w3.org/2000/svg" version="1.1" viewBox="0 0 6500 1000">
	<path fill="none" stroke="gold" stroke-width="125" stroke-linecap="round" stroke-linejoin="round" d="M0 1029  L-714521 1029 L-711917 1029 L-710249 1029 L-691920 1029 L-691750 1029 L-684592 1028 L-684559 1028 L-671128 1028 L-668206 1028 L-654865 1028 L-650696 1028 L-649536 1027 L-648917 1027 L-646905 1026 L-643133 1026 L-642533 1026 L-642205 1026 L-641992 1026 L-641450 1025 L-640212 1025 L-639033 1024 L-636169 1023 L-635646 1022 L-630791 1022 L-627854 1022 L-627811 1021 L-627502 1021 L-627250 1021 L-624655 1021 L-620400 1021 L-620382 1021 L-619145 1021 L-617268 1021 L-615314 1021 L-614366 1020 L-614095 1020 L-613786 1020 L-613688 1020 L-612857 1020 L-610826 1020 L-610536 1019 L-608390 1019 L-608234 1018 L-604578 1018 L-604327 1018 L-604228 1018 L-603711 1018 L-601560 1019 L-600631 1019 L-599105 1020 L-597866 1020 L-596319 1020 L-593357 1019 L-592235 1019 L-591926 1019 L-590715 1019 L-587708 1020 L-587689 1020 L-587341 1020 L-587128 1020 L-587002 1018 L-586760 1018 L-586722 1018 L-586703 1018 L-586684 1017 L-586625 1017 L-586566 1017 L-586548 1017 L-586105 1017 L-584866 1016 L-583320 1016 L-579932 1016 L-574206 1016 L-574004 1016 L-572368 1016 L-570646 1016 L-569214 1016 L-568982 1015 L-568267 1015 L-562135 1015 L-561767 1015 L-561612 1015 L-561034 1015 L-560741 1014 L-559774 1014 L-559464 1014 L-558865 1014 L-557259 1014 L-556524 1014 L-556214 1014 L-555446 1014 L-553410 1014 L-552985 1014 L-552172 1013 L-544743 1013 L-544220 1013 L-544047 1013 L-543312 1013 L-541744 1012 L-541338 1012 L-539113 1012 L-538166 1012 L-537741 1012 L-537410 1012 L-536366 1012 L-534258 1012 L-534006 1011 L-533387 1011 L-532575 1011 L-530467 1011 L-530418 1011 L-528490 1010 L-528164 1010 L-528029 1010 L-527526 1010 L-526113 1010 L-525610 1009 L-525089 1009 L-521529 1009 L-520794 1008 L-518369 1008 L-517080 1008 L-516673 1008 L-513520 1008 L-513365 1008 L-513345 1008 L-512979 1008 L-511720 1008 L-511005 1008 L-510115 1008 L-509708 1008 L-508780 1008 L-507671 1008 L-507368 1009 L-501119 1009 L-500172 1009 L-498546 1009 L-498044 1009 L-494368 1009 L-493536 1009 L-489583 1010 L-488171 1009 L-485682 1009 L-485005 1009 L-484966 1009 L-484096 1009 L-480884 1009 L-478021 1009 L-477053 1008 L-475932 1008 L-475913 1008 L-474288 1008 L-473824 1008 L-473732 1007 L-467363 1007 L-466414 1007 L-463957 1007 L-463085 1007 L-461849 1007 L-459847 1007 L-459450 1007 L-458014 1006 L-455987 1006 L-455774 1006 L-454594 1006 L-453086 1006 L-453065 1006 L-451053 1006 L-450184 1005 L-449313 1005 L-448728 1005 L-448191 1005 L-447533 1005 L-446295 1005 L-445734 1004 L-444553 1004 L-443316 1004 L-443277 1004 L-442890 1004 L-442349 1004 L-441575 1004 L-440453 1004 L-438363 1003 L-438030 1003 L-437744 1003 L-436816 1003 L-436333 1003 L-435597 1003 L-431966 1002 L-430838 1002 L-430684 1002 L-429658 1002 L-425943 1002 L-424725 1002 L-422907 1002 L-420121 1001 L-419560 1001 L-415672 1001 L-413195 1001 L-411860 1001 L-411357 1001 L-410874 1001 L-408185 1001 L-404413 1001 L-401956 1001 L-400776 1001 L-400137 1001 L-397777 1001 L-397700 1001 L-396652 1000 L-396559 1000 L-396056 1000 L-395610 1000 L-395553 1000 L-395339 1000 L-392380 1000 L-389672 1000 L-389517 1000 L-385996 1000 L-385473 1000 L-384506 999 L-384157 999 L-383113 999 L-382185 999 L-381759 999 L-380250 999 L-379283 999 L-379264 999 L-377368 991 L-377252 984 L-377204 976 L-377180 969 L-374176 969 L-372145 968 L-370384 968 L-370017 968 L-369572 968 L-369205 968 L-368791 968 L-366806 968 L-366593 968 L-366438 967 L-364832 967 L-363711 967 L-362762 967 L-361505 967 L-359861 967 L-358681 967 L-352091 967 L-352045 967 L-351639 966 L-350594 966 L-350459 966 L-348776 966 L-348756 966 L-347419 966 L-346183 966 L-346029 966 L-345655 965 L-345449 965 L-345139 965 L-344365 965 L-342044 965 L-341386 965 L-339258 965 L-337536 965 L-337342 964 L-334789 964 L-334513 964 L-334325 964 L-333492 964 L-332720 964 L-332022 963 L-327021 963 L-326645 963 L-322392 963 L-321905 973 L-321886 973 L-321807 973 L-321732 973 L-321712 963 L-320899 963 L-320145 962 L-318926 962 L-317494 962 L-317398 962 L-317223 962 L-316869 962 L-315560 962 L-313703 962 L-312000 962 L-311497 961 L-311232 961 L-310839 961 L-310705 961 L-309795 961 L-309419 961 L-308490 961 L-308151 961 L-308111 961 L-308074 961 L-306158 961 L-305984 961 L-304456 961 L-304127 961 L-304011 960 L-303604 960 L-303256 960 L-301612 960 L-301062 960 L-300818 960 L-300277 960 L-299446 959 L-298904 959 L-297370 959 L-297277 959 L-297240 959 L-297104 959 L-296717 959 L-295692 959 L-293816 959 L-293720 958 L-293119 962 L-292752 965 L-292268 969 L-292230 972 L-291456 972 L-291398 972 L-291224 972 L-291030 972 L-289425 972 L-289405 972 L-289250 972 L-289134 972 L-287955 972 L-287800 972 L-287133 972 L-284685 981 L-282170 989 L-279500 997 L-271801 1005 L-266133 1005 L-263919 1005 L-263895 1005 L-262922 1007 L-262902 1007 L-262038 1007 L-259298 1007 L-253499 1005 L-253346 1005 L-250560 1005 L-236952 1004 L-236206 1004 L-231795 1004 L-215449 1004 L-215217 1004 L-214679 1004 L-206220 1004 L-197514 1004 L-197302 1003 L-195330 1003 L-192543 1003 L-188056 1003 L-187901 1003 L-187732 1003 L-187592 1003 L-187301 1003 L-187262 1003 L-186991 1003 L-186820 1003 L-186410 1003 L-185289 1002 L-184109 1002 L-182832 1002 L-179968 1002 L-177048 1002 L-175056 1002 L-173508 1002 L-170470 1002 L-161146 1002 L-160622 1001 L-154898 1001 L-153391 1001 L-152576 1001 L-150893 1001 L-150172 1001 L-150003 1001 L-148958 1001 L-146891 1001 L-145529 1001 L-141086 1001 L-140988 1000 L-140950 1000 L-140931 1000 L-140098 1000 L-140021 1000 L-137448 1000 L-134199 1000 L-134044 1000 L-133096 1000 L-131355 999 L-130639 1000 L-127098 1000 L-120521 1001 L-119104 1002 L-119083 1002 L-118133 1002 L-114658 1002 L-113905 1001 L-113343 1001 L-112561 1001 L-105057 1001 L-103459 1001 L-101885 1001 L-98699 1001 L-94366 1001 L-85797 1001 L-77050 1001 L-73976 1000 L-70710 1000 L-70164 1000 L-63027 1000 L-57359 1000 L-43295 1000 L-37283 1000 L-32577 1000 L-28574 1000 L-23466 1000 L-13752 1000 L1817 999 L4900 999 L5202 954 L5222 898 L5241 834 L5261 763 L5280 731 L5300 703 L5318 678 L5346 653 L5367 629 L5394 604 L5430 576 L5443 552 L5456 531 L5475 514 L5494 502 L5514 489 L5532 476 L5551 463 L5571 451 L5592 437 L5609 424 L5628 411 L5648 399 L5668 386 L5687 373 L5705 359 L5725 344 L5745 330 L5764 317 L5783 304 L5804 292 L5829 279 L5843 268 L5860 256 L5880 244 L5899 233 L5918 220 L5937 208 L5957 196 L5978 184 L5996 173 L6015 163 L6035 153 L6056 144 L6073 136 L6092 128 L6112 120 L6131 113 L6151 106 L6169 99 L6189 94 L6209 88 L6228 83 L6247 78 L6274 71 L6295 64 L6323 56 L6357 47 L6371 40 L6384 34 L6403 28 L6422 23 L6442 18 L6460 12 L6480 6 L6500 0" />
</svg>
