<svg xmlns="http://www.w3.org/2000/svg" version="1.1" viewBox="0 0 6500 1000">
	<path fill="none" stroke="gold" stroke-width="125" stroke-linecap="round" stroke-linejoin="round" d="M0 1015  L-718643 1015 L-716039 1015 L-714371 1015 L-696042 1015 L-695871 1015 L-688714 1015 L-688680 1015 L-675249 1015 L-672328 1015 L-658987 1015 L-654818 1015 L-653658 1014 L-653039 1014 L-651027 1014 L-647255 1014 L-646655 1014 L-646326 1014 L-646113 1014 L-645571 1013 L-644333 1013 L-643154 1013 L-640290 1012 L-639768 1012 L-634912 1012 L-631975 1011 L-631932 1011 L-631624 1011 L-631372 1011 L-628777 1011 L-624522 1011 L-624504 1011 L-623267 1011 L-621389 1011 L-619436 1011 L-618488 1011 L-618217 1011 L-617907 1011 L-617809 1011 L-616979 1011 L-614948 1011 L-614658 1010 L-612511 1010 L-612356 1010 L-608699 1009 L-608448 1009 L-608350 1009 L-607833 1010 L-605681 1010 L-604753 1010 L-603227 1010 L-601987 1010 L-600441 1010 L-597479 1010 L-596357 1010 L-596048 1010 L-594837 1010 L-591830 1011 L-591810 1010 L-591463 1010 L-591250 1010 L-591124 1010 L-590882 1010 L-590844 1009 L-590824 1009 L-590805 1009 L-590746 1009 L-590688 1009 L-590670 1009 L-590226 1009 L-588987 1009 L-587441 1009 L-584054 1008 L-578327 1008 L-578126 1008 L-576490 1008 L-574768 1008 L-573336 1008 L-573104 1008 L-572388 1008 L-566256 1008 L-565888 1008 L-565734 1008 L-565156 1008 L-564863 1008 L-563896 1007 L-563586 1007 L-562987 1007 L-561381 1007 L-560646 1007 L-560336 1007 L-559568 1007 L-557531 1007 L-557106 1007 L-556294 1007 L-548865 1007 L-548342 1007 L-548168 1007 L-547433 1007 L-545866 1007 L-545460 1006 L-543235 1006 L-542287 1006 L-541862 1006 L-541532 1006 L-540488 1006 L-538380 1006 L-538128 1006 L-537509 1006 L-536696 1006 L-534588 1006 L-534540 1006 L-532612 1005 L-532286 1005 L-532151 1005 L-531648 1005 L-530235 1005 L-529732 1005 L-529210 1005 L-525651 1005 L-524916 1004 L-522491 1004 L-521201 1004 L-520794 1004 L-517642 1004 L-517487 1004 L-517467 1004 L-517100 1004 L-515842 1004 L-515127 1004 L-514237 1004 L-513830 1004 L-512902 1004 L-511793 1004 L-511490 1004 L-505241 1005 L-504294 1005 L-502667 1005 L-502166 1005 L-498490 1005 L-497657 1005 L-493704 1005 L-492293 1005 L-489803 1005 L-489127 1005 L-489088 1005 L-488217 1005 L-485006 1005 L-482143 1004 L-481175 1004 L-480053 1004 L-480034 1004 L-478409 1004 L-477945 1004 L-477853 1004 L-471484 1004 L-470536 1004 L-468079 1004 L-467206 1004 L-465970 1004 L-463969 1003 L-463571 1003 L-462135 1003 L-460109 1003 L-459896 1003 L-458716 1003 L-457207 1003 L-457187 1003 L-455175 1003 L-454305 1003 L-453434 1003 L-452850 1003 L-452312 1003 L-451655 1002 L-450417 1002 L-449856 1002 L-448675 1002 L-447437 1002 L-447399 1002 L-447012 1002 L-446470 1002 L-445696 1002 L-444574 1002 L-442485 1002 L-442152 1002 L-441866 1001 L-440937 1001 L-440454 1001 L-439719 1001 L-436087 1001 L-434960 1001 L-434805 1001 L-433779 1001 L-430064 1001 L-428847 1001 L-427029 1001 L-424243 1001 L-423681 1001 L-419794 1001 L-417317 1001 L-415982 1001 L-415479 1000 L-414996 1000 L-412306 1000 L-408535 1000 L-406077 1000 L-404898 1000 L-404258 1000 L-401899 1000 L-401821 1000 L-400774 1000 L-400680 1000 L-400178 1000 L-399732 1000 L-399674 1000 L-399461 1000 L-396501 1000 L-393794 1000 L-393639 1000 L-390118 1000 L-389595 1000 L-388628 1000 L-388279 999 L-387235 999 L-386306 999 L-385881 999 L-384372 999 L-383405 999 L-383386 999 L-381490 995 L-381374 991 L-381326 987 L-381302 983 L-378297 983 L-376267 983 L-374506 983 L-374139 983 L-373693 983 L-373326 983 L-372912 983 L-370927 983 L-370714 983 L-370559 982 L-368954 982 L-367832 982 L-366884 982 L-365627 982 L-363982 982 L-362802 982 L-356213 982 L-356166 982 L-355761 982 L-354716 982 L-354580 982 L-352898 982 L-352878 982 L-351541 982 L-350305 982 L-350150 981 L-349777 981 L-349570 981 L-349261 981 L-348487 981 L-346165 981 L-345508 981 L-343380 981 L-341657 981 L-341464 981 L-338911 981 L-338634 981 L-338446 981 L-337614 980 L-336841 980 L-336143 980 L-331143 980 L-330767 980 L-326514 980 L-326027 986 L-326007 986 L-325928 985 L-325853 985 L-325833 980 L-325021 980 L-324267 980 L-323048 980 L-321616 980 L-321520 980 L-321345 980 L-320991 980 L-319681 980 L-317824 979 L-316122 979 L-315619 979 L-315354 979 L-314960 979 L-314826 979 L-313916 979 L-313540 979 L-312612 979 L-312272 979 L-312233 979 L-312195 979 L-310280 979 L-310106 979 L-308577 979 L-308249 979 L-308133 979 L-307726 979 L-307378 979 L-305734 978 L-305183 978 L-304940 978 L-304399 978 L-303567 978 L-303026 978 L-301491 978 L-301399 978 L-301362 978 L-301226 978 L-300839 978 L-299814 978 L-297938 978 L-297841 978 L-297241 979 L-296874 981 L-296389 983 L-296351 985 L-295577 985 L-295520 985 L-295345 985 L-295152 985 L-293546 985 L-293527 985 L-293371 985 L-293256 985 L-292076 985 L-291922 985 L-291255 985 L-288806 989 L-286292 994 L-283622 998 L-275923 1003 L-270255 1003 L-268040 1003 L-268017 1003 L-267043 1004 L-267023 1004 L-266159 1004 L-263419 1004 L-257621 1003 L-257467 1002 L-254681 1002 L-241073 1002 L-240327 1002 L-235917 1002 L-219570 1002 L-219338 1002 L-218801 1002 L-210342 1002 L-201636 1002 L-201424 1002 L-199451 1002 L-196665 1002 L-192178 1002 L-192023 1002 L-191854 1002 L-191713 1002 L-191423 1001 L-191384 1001 L-191113 1001 L-190941 1001 L-190531 1001 L-189411 1001 L-188230 1001 L-186954 1001 L-184090 1001 L-181170 1001 L-179178 1001 L-177630 1001 L-174592 1001 L-165267 1001 L-164743 1001 L-159020 1001 L-157513 1001 L-156698 1001 L-155014 1001 L-154293 1000 L-154125 1000 L-153080 1000 L-151012 1000 L-149650 1000 L-145207 1000 L-145110 1000 L-145071 1000 L-145052 1000 L-144220 1000 L-144142 1000 L-141570 1000 L-138320 1000 L-138166 1000 L-137217 1000 L-135476 1000 L-134761 1000 L-131220 1000 L-124643 1000 L-123225 1001 L-123205 1001 L-122254 1001 L-118780 1001 L-118027 1001 L-117465 1001 L-116683 1001 L-109179 1000 L-107580 1000 L-106006 1000 L-102821 1000 L-98488 1000 L-89918 1000 L-81172 1000 L-78098 1000 L-74832 1000 L-74285 1000 L-67148 1000 L-61481 1000 L-47416 1000 L-41405 1000 L-36698 1000 L-32695 1000 L-27588 1000 L-17874 1000 L-2303 1000 L779 999 L1081 975 L1100 945 L1119 911 L1139 873 L1159 856 L1178 841 L1197 828 L1224 815 L1245 802 L1273 788 L1308 773 L1322 761 L1335 750 L1353 740 L1372 734 L1392 727 L1410 720 L1430 713 L1450 706 L1471 699 L1487 692 L1506 685 L1527 679 L1547 672 L1565 665 L1584 657 L1604 650 L1624 642 L1642 635 L1661 628 L1682 621 L1707 615 L1722 609 L1739 602 L1758 596 L1778 590 L1797 583 L1816 577 L1836 570 L1856 564 L1874 558 L1893 553 L1914 547 L1934 542 L1951 538 L1970 534 L1990 530 L2009 526 L2029 522 L2048 519 L2068 516 L2087 513 L2107 510 L2125 507 L2153 503 L2173 500 L2201 495 L2235 491 L2249 487 L2263 484 L2281 481 L2300 478 L2320 475 L2339 472 L2358 469 L2378 466 L2399 463 L2416 460 L2435 457 L2455 454 L2475 451 L2493 447 L2512 443 L2532 439 L2552 434 L2571 430 L2589 426 L2611 421 L2635 416 L2650 410 L2667 405 L2687 400 L2706 396 L2725 390 L2744 385 L2764 380 L2785 375 L2803 370 L2822 365 L2842 360 L2862 356 L2880 351 L2899 348 L2919 343 L2938 340 L2958 336 L2976 333 L2996 329 L3015 326 L3035 322 L3054 318 L3083 315 L3102 312 L3130 308 L3167 304 L3182 300 L3195 297 L3212 293 L3229 291 L3249 289 L3267 286 L3286 284 L3306 282 L3327 280 L3344 278 L3363 276 L3384 273 L3403 271 L3422 268 L3441 265 L3461 262 L3480 259 L3499 255 L3518 252 L3539 249 L3563 246 L3578 243 L3595 240 L3615 236 L3634 233 L3654 230 L3673 226 L3693 223 L3713 220 L3731 216 L3750 213 L3770 211 L3791 208 L3809 205 L3828 202 L3848 200 L3866 197 L3886 194 L3905 192 L3925 189 L3944 187 L3963 184 L3982 182 L4011 179 L4031 177 L4059 174 L4095 170 L4109 166 L4122 162 L4140 159 L4158 157 L4178 155 L4196 153 L4216 150 L4235 147 L4257 144 L4275 141 L4292 138 L4313 134 L4333 131 L4351 127 L4370 123 L4390 119 L4410 115 L4428 111 L4447 108 L4468 106 L4493 104 L4507 102 L4525 100 L4544 98 L4564 96 L4583 94 L4602 92 L4622 90 L4643 88 L4660 86 L4679 85 L4699 82 L4720 79 L4737 77 L4756 75 L4776 73 L4795 72 L4815 71 L4834 69 L4853 68 L4873 67 L4892 65 L4911 64 L4938 62 L4959 61 L4987 60 L5022 58 L5036 56 L5049 55 L5068 54 L5086 53 L5106 52 L5124 51 L5144 50 L5164 49 L5185 48 L5202 47 L5220 45 L5241 44 L5261 43 L5279 42 L5298 41 L5318 40 L5338 39 L5356 37 L5375 36 L5396 35 L5421 34 L5436 33 L5453 33 L5473 32 L5492 31 L5511 30 L5530 28 L5550 27 L5571 26 L5589 25 L5607 24 L5628 23 L5648 22 L5666 21 L5685 20 L5705 19 L5723 18 L5743 17 L5762 17 L5782 16 L5801 15 L5821 15 L5839 16 L5868 17 L5888 18 L5916 19 L5953 18 L5968 17 L5981 17 L5999 16 L6015 16 L6035 15 L6053 14 L6073 14 L6092 13 L6114 13 L6130 12 L6149 11 L6170 11 L6190 10 L6208 10 L6227 9 L6246 8 L6267 8 L6285 7 L6304 6 L6325 6 L6350 6 L6364 5 L6382 4 L6401 4 L6421 3 L6440 2 L6459 2 L6479 1 L6500 0" />
</svg>
