<svg xmlns="http://www.w3.org/2000/svg" version="1.1" viewBox="0 0 6500 1000">
	<path fill="none" stroke="gold" stroke-width="125" stroke-linecap="round" stroke-linejoin="round" d="M0 6034  L-390623 6034 L-388019 6025 L-386351 6016 L-368022 5998 L-367851 5980 L-360694 5961 L-360660 5961 L-347229 5952 L-344308 5961 L-330967 5934 L-326798 5898 L-325638 5852 L-325019 5807 L-323007 5780 L-319235 5761 L-318635 5743 L-318306 5725 L-318093 5707 L-317551 5689 L-316313 5616 L-315134 5543 L-312270 5470 L-311748 5397 L-306892 5379 L-303955 5361 L-303912 5343 L-303604 5325 L-303352 5306 L-300757 5288 L-296502 5288 L-296484 5288 L-295247 5288 L-293369 5288 L-291416 5270 L-290468 5252 L-290197 5234 L-289887 5225 L-289789 5215 L-288959 5215 L-286928 5225 L-286637 5143 L-284491 5106 L-284336 5052 L-280679 4997 L-280428 5024 L-280330 5015 L-279813 5043 L-277661 5088 L-276733 5134 L-275207 5179 L-273967 5179 L-272421 5170 L-269459 5152 L-268337 5134 L-268028 5115 L-266817 5106 L-263810 5206 L-263790 5197 L-263443 5188 L-263230 5179 L-263103 5052 L-262862 5034 L-262824 5015 L-262804 4997 L-262785 4979 L-262726 4961 L-262668 4943 L-262649 4924 L-262206 4906 L-260967 4888 L-259421 4870 L-256034 4852 L-250307 4842 L-250106 4833 L-248470 4824 L-246748 4815 L-245316 4806 L-245084 4797 L-244368 4788 L-238236 4779 L-237868 4761 L-237714 4742 L-237136 4724 L-236843 4706 L-235876 4688 L-235566 4670 L-234967 4651 L-233361 4651 L-232626 4651 L-232316 4661 L-231548 4661 L-229511 4642 L-229086 4624 L-228274 4615 L-220845 4597 L-220322 4579 L-220148 4560 L-219413 4542 L-217846 4524 L-217440 4515 L-215215 4497 L-214267 4488 L-213842 4479 L-213512 4479 L-212468 4469 L-210360 4451 L-210108 4433 L-209489 4415 L-208676 4406 L-206568 4388 L-206520 4369 L-204592 4351 L-204266 4333 L-204131 4315 L-203628 4306 L-202215 4288 L-201712 4251 L-201190 4224 L-197631 4187 L-196896 4151 L-194471 4151 L-193181 4133 L-192774 4124 L-189622 4124 L-189467 4124 L-189447 4133 L-189080 4133 L-187822 4142 L-187107 4151 L-186217 4151 L-185810 4151 L-184882 4151 L-183773 4142 L-183470 4178 L-177221 4197 L-176274 4215 L-174647 4233 L-174146 4242 L-170470 4251 L-169637 4260 L-165684 4269 L-164273 4242 L-161783 4224 L-161107 4206 L-161068 4197 L-160197 4197 L-156986 4187 L-154123 4178 L-153155 4169 L-152033 4151 L-152014 4133 L-150389 4115 L-149925 4087 L-149833 4078 L-143464 4069 L-142516 4060 L-140059 4051 L-139186 4033 L-137950 4024 L-135949 4015 L-135551 3996 L-134115 3978 L-132089 3969 L-131876 3951 L-130696 3942 L-129187 3933 L-129167 3924 L-127155 3915 L-126285 3896 L-125414 3887 L-124830 3869 L-124292 3851 L-123635 3833 L-122397 3814 L-121836 3805 L-120655 3796 L-119417 3787 L-119379 3778 L-118992 3769 L-118450 3751 L-117676 3742 L-116554 3733 L-114465 3714 L-114132 3696 L-113846 3678 L-112917 3669 L-112434 3651 L-111699 3642 L-108067 3633 L-106940 3623 L-106785 3614 L-105759 3596 L-102044 3587 L-100827 3569 L-99009 3551 L-96223 3542 L-95661 3523 L-91774 3523 L-89297 3514 L-87962 3514 L-87459 3505 L-86976 3496 L-84286 3496 L-80515 3496 L-78057 3496 L-76878 3496 L-76238 3487 L-73879 3469 L-73801 3460 L-72754 3451 L-72660 3432 L-72158 3432 L-71712 3432 L-71654 3432 L-71441 3432 L-68481 3414 L-65774 3405 L-65619 3396 L-62098 3387 L-61575 3369 L-60608 3350 L-60259 3341 L-59215 3323 L-58286 3305 L-57861 3296 L-56352 3296 L-55385 3287 L-55366 3278 L-53470 2614 L-53354 1931 L-53306 1258 L-53282 585 L-50277 576 L-48247 558 L-46486 548 L-46119 539 L-45673 521 L-45306 512 L-44892 494 L-42907 485 L-42694 485 L-42539 476 L-40934 476 L-39812 467 L-38864 457 L-37607 439 L-35962 430 L-34782 412 L-28193 403 L-28146 394 L-27741 385 L-26696 376 L-26560 366 L-24878 348 L-24858 339 L-23521 321 L-22285 312 L-22130 303 L-21757 285 L-21550 276 L-21241 266 L-20467 248 L-18145 239 L-17488 230 L-15360 221 L-13637 212 L-13444 194 L-10891 185 L-10614 166 L-10426 148 L-9594 139 L-8821 130 L-8123 121 L-3123 121 L-2747 103 L1505 94 L1992 994 L2012 994 L2091 985 L2166 976 L2186 48 L2998 39 L3752 21 L4971 12 L6403 12 L6500 3" />
</svg>
