<svg xmlns="http://www.w3.org/2000/svg" version="1.1" viewBox="0 0 6500 1000">
	<path fill="none" stroke="gold" stroke-width="125" stroke-linecap="round" stroke-linejoin="round" d="M0 3428  L-726614 3428 L-724010 3428 L-722342 3428 L-704013 3427 L-703843 3427 L-696685 3427 L-696652 3427 L-683221 3427 L-680299 3427 L-666958 3426 L-662789 3426 L-661629 3425 L-661010 3424 L-658998 3424 L-655226 3424 L-654626 3423 L-654298 3423 L-654084 3423 L-653543 3422 L-652305 3421 L-651126 3420 L-648261 3419 L-647739 3418 L-642884 3417 L-639946 3417 L-639903 3417 L-639595 3416 L-639343 3416 L-636748 3416 L-632493 3416 L-632475 3416 L-631238 3416 L-629361 3416 L-627407 3415 L-626459 3415 L-626188 3415 L-625879 3415 L-625780 3415 L-624950 3415 L-622919 3415 L-622629 3413 L-620482 3413 L-620327 3412 L-616671 3411 L-616420 3411 L-616321 3411 L-615804 3412 L-613653 3412 L-612724 3413 L-611198 3414 L-609958 3414 L-608412 3414 L-605450 3413 L-604328 3413 L-604019 3413 L-602808 3413 L-599801 3414 L-599782 3414 L-599434 3414 L-599221 3414 L-599095 3412 L-598853 3411 L-598815 3411 L-598796 3411 L-598776 3411 L-598717 3410 L-598659 3410 L-598641 3410 L-598198 3409 L-596958 3409 L-595413 3409 L-592025 3408 L-586299 3408 L-586097 3408 L-584461 3408 L-582739 3408 L-581307 3408 L-581075 3408 L-580360 3407 L-574227 3407 L-573860 3407 L-573705 3407 L-573127 3406 L-572834 3406 L-571867 3406 L-571557 3405 L-570958 3405 L-569352 3405 L-568617 3405 L-568307 3405 L-567539 3405 L-565503 3405 L-565077 3405 L-564265 3405 L-556836 3404 L-556313 3404 L-556140 3404 L-555405 3403 L-553837 3403 L-553431 3403 L-551206 3403 L-550258 3402 L-549833 3402 L-549503 3402 L-548459 3402 L-546351 3402 L-546099 3402 L-545480 3401 L-544667 3401 L-542560 3401 L-542511 3400 L-540583 3400 L-540257 3400 L-540122 3400 L-539619 3399 L-538206 3399 L-537703 3399 L-537182 3398 L-533622 3397 L-532887 3397 L-530462 3397 L-529173 3397 L-528766 3396 L-525613 3396 L-525458 3396 L-525438 3397 L-525072 3397 L-523813 3397 L-523098 3397 L-522208 3397 L-521801 3397 L-520873 3397 L-519764 3397 L-519461 3397 L-513212 3398 L-512265 3398 L-510639 3398 L-510137 3398 L-506461 3399 L-505629 3399 L-501676 3399 L-500264 3398 L-497775 3398 L-497098 3398 L-497059 3398 L-496189 3398 L-492977 3397 L-490114 3397 L-489146 3397 L-488025 3397 L-488006 3397 L-486381 3396 L-485917 3396 L-485825 3396 L-479455 3395 L-478507 3395 L-476050 3395 L-475178 3395 L-473942 3395 L-471940 3395 L-471543 3394 L-470106 3394 L-468080 3394 L-467867 3394 L-466687 3393 L-465179 3393 L-465158 3393 L-463146 3393 L-462277 3393 L-461406 3392 L-460821 3392 L-460284 3392 L-459626 3392 L-458388 3391 L-457827 3391 L-456646 3391 L-455409 3391 L-455370 3391 L-454983 3391 L-454442 3390 L-453668 3390 L-452546 3390 L-450456 3390 L-450123 3389 L-449837 3389 L-448909 3389 L-448425 3389 L-447690 3388 L-444059 3388 L-442931 3388 L-442776 3388 L-441750 3388 L-438036 3387 L-436818 3387 L-435000 3387 L-432214 3387 L-431653 3386 L-427765 3386 L-425288 3386 L-423953 3386 L-423450 3386 L-422967 3386 L-420278 3386 L-416506 3386 L-414049 3386 L-412869 3386 L-412230 3386 L-409870 3386 L-409793 3385 L-408745 3385 L-408652 3385 L-408149 3385 L-407703 3385 L-407646 3385 L-407432 3385 L-404472 3385 L-401765 3384 L-401610 3384 L-398089 3384 L-397566 3384 L-396599 3384 L-396250 3383 L-395206 3383 L-394278 3383 L-393852 3383 L-392343 3383 L-391376 3383 L-391357 3382 L-389461 3371 L-389345 3360 L-389297 3349 L-389273 3338 L-386269 3338 L-384238 3337 L-382477 3337 L-382110 3337 L-381665 3337 L-381298 3337 L-380884 3336 L-378899 3336 L-378686 3336 L-378531 3336 L-376925 3336 L-375804 3336 L-374855 3336 L-373598 3335 L-371953 3335 L-370774 3335 L-364184 3335 L-364138 3335 L-363732 3334 L-362687 3334 L-362551 3334 L-360869 3334 L-360849 3334 L-359512 3333 L-358276 3333 L-358122 3333 L-357748 3333 L-357542 3333 L-357232 3332 L-356458 3332 L-354137 3332 L-353479 3332 L-351351 3332 L-349629 3332 L-349435 3331 L-346882 3331 L-346606 3331 L-346417 3330 L-345585 3330 L-344813 3330 L-344114 3330 L-339114 3330 L-338738 3330 L-334485 3330 L-333998 3345 L-333979 3345 L-333900 3344 L-333824 3344 L-333805 3329 L-332992 3329 L-332238 3328 L-331019 3328 L-329587 3328 L-329491 3328 L-329316 3328 L-328962 3328 L-327653 3328 L-325795 3327 L-324093 3327 L-323590 3327 L-323325 3327 L-322932 3327 L-322798 3327 L-321888 3326 L-321511 3326 L-320583 3326 L-320244 3326 L-320204 3326 L-320167 3326 L-318251 3326 L-318077 3326 L-316549 3326 L-316220 3326 L-316104 3325 L-315697 3325 L-315349 3325 L-313705 3325 L-313154 3325 L-312911 3324 L-312370 3324 L-311539 3324 L-310997 3324 L-309462 3324 L-309370 3323 L-309333 3323 L-309197 3323 L-308810 3323 L-307785 3323 L-305909 3323 L-305813 3322 L-305212 3327 L-304845 3332 L-304361 3338 L-304323 3343 L-303549 3343 L-303491 3343 L-303317 3343 L-303123 3343 L-301518 3342 L-301498 3342 L-301343 3342 L-301227 3343 L-300048 3343 L-299893 3343 L-299226 3343 L-296778 3356 L-294263 3368 L-291593 3380 L-283894 3393 L-278226 3393 L-276012 3392 L-275988 3392 L-275014 3395 L-274994 3395 L-274131 3395 L-271391 3395 L-265592 3392 L-265439 3392 L-262653 3391 L-249044 3391 L-248299 3391 L-243888 3391 L-227542 3391 L-227309 3390 L-226772 3390 L-218313 3390 L-209607 3390 L-209395 3390 L-207422 3389 L-204636 3389 L-200149 3390 L-199994 3389 L-199825 3389 L-199685 3389 L-199394 3389 L-199355 3389 L-199084 3389 L-198913 3389 L-198503 3388 L-197382 3388 L-196202 3388 L-194925 3388 L-192061 3388 L-189141 3388 L-187149 3387 L-185601 3387 L-182563 3387 L-173239 3387 L-172715 3387 L-166991 3387 L-165484 3387 L-164669 3387 L-162986 3386 L-162265 3386 L-162096 3386 L-161051 3386 L-158984 3386 L-157622 3386 L-153178 3385 L-153081 3385 L-153043 3385 L-153024 3385 L-152191 3385 L-152113 3384 L-149541 3384 L-146292 3384 L-146137 3384 L-145189 3384 L-143447 3384 L-142732 3384 L-139191 3385 L-132614 3386 L-131197 3387 L-131176 3387 L-130225 3387 L-126751 3387 L-125998 3387 L-125436 3386 L-124654 3386 L-117150 3386 L-115552 3386 L-113978 3386 L-110792 3386 L-106459 3386 L-97890 3385 L-89143 3385 L-86069 3385 L-82803 3385 L-82257 3385 L-75120 3385 L-69452 3385 L-55387 3385 L-49376 3385 L-44670 3385 L-40667 3384 L-35559 3384 L-25845 3384 L-10274 3384 L-7192 3383 L-6890 3316 L-6870 3232 L-6851 3137 L-6831 3031 L-6812 2982 L-6792 2942 L-6774 2904 L-6746 2867 L-6725 2831 L-6697 2793 L-6662 2751 L-6649 2716 L-6635 2685 L-6617 2660 L-6598 2641 L-6578 2622 L-6560 2603 L-6541 2584 L-6521 2564 L-6500 2544 L-6483 2524 L-6464 2505 L-6444 2487 L-6424 2468 L-6405 2448 L-6387 2427 L-6367 2406 L-6347 2385 L-6328 2365 L-6309 2346 L-6288 2327 L-6263 2309 L-6249 2291 L-6232 2274 L-6212 2256 L-6193 2239 L-6173 2221 L-6155 2202 L-6134 2184 L-6114 2167 L-6096 2150 L-6077 2135 L-6057 2120 L-6036 2106 L-6019 2094 L-6000 2082 L-5980 2071 L-5961 2060 L-5941 2049 L-5923 2040 L-5903 2032 L-5883 2024 L-5864 2015 L-5845 2007 L-5818 1997 L-5797 1987 L-5769 1975 L-5735 1962 L-5721 1951 L-5708 1942 L-5689 1933 L-5670 1926 L-5650 1918 L-5632 1909 L-5612 1901 L-5592 1892 L-5572 1884 L-5554 1876 L-5536 1868 L-5515 1860 L-5496 1850 L-5477 1839 L-5458 1828 L-5438 1816 L-5419 1804 L-5400 1792 L-5381 1780 L-5360 1766 L-5335 1752 L-5321 1737 L-5304 1723 L-5284 1710 L-5265 1696 L-5245 1682 L-5226 1666 L-5206 1652 L-5186 1638 L-5168 1624 L-5149 1610 L-5128 1598 L-5108 1585 L-5090 1573 L-5071 1562 L-5051 1550 L-5033 1541 L-5013 1531 L-4994 1520 L-4974 1511 L-4955 1500 L-4935 1490 L-4917 1481 L-4888 1470 L-4868 1461 L-4840 1452 L-4803 1440 L-4788 1430 L-4776 1419 L-4758 1410 L-4741 1403 L-4722 1397 L-4703 1391 L-4684 1385 L-4664 1380 L-4643 1374 L-4626 1368 L-4607 1361 L-4587 1354 L-4567 1347 L-4549 1339 L-4530 1331 L-4510 1322 L-4490 1313 L-4471 1304 L-4452 1295 L-4431 1287 L-4407 1278 L-4392 1269 L-4375 1260 L-4355 1251 L-4336 1243 L-4316 1233 L-4297 1223 L-4277 1214 L-4257 1205 L-4239 1195 L-4220 1187 L-4200 1179 L-4180 1171 L-4162 1164 L-4143 1156 L-4123 1149 L-4104 1141 L-4084 1133 L-4065 1126 L-4046 1119 L-4026 1112 L-4007 1105 L-3988 1098 L-3960 1091 L-3940 1084 L-3912 1076 L-3876 1065 L-3861 1054 L-3848 1044 L-3831 1036 L-3813 1030 L-3793 1025 L-3774 1017 L-3755 1010 L-3735 1002 L-3714 994 L-3695 985 L-3678 976 L-3658 966 L-3638 956 L-3620 945 L-3601 933 L-3581 922 L-3560 911 L-3543 901 L-3524 893 L-3502 886 L-3477 881 L-3463 875 L-3445 870 L-3426 864 L-3407 858 L-3388 852 L-3369 846 L-3349 841 L-3328 836 L-3311 832 L-3291 827 L-3271 820 L-3250 813 L-3233 805 L-3214 800 L-3194 795 L-3175 792 L-3156 788 L-3137 785 L-3117 781 L-3097 777 L-3078 773 L-3059 769 L-3032 765 L-3011 761 L-2983 757 L-2948 752 L-2935 748 L-2922 744 L-2903 741 L-2884 738 L-2864 735 L-2846 732 L-2826 729 L-2807 726 L-2786 724 L-2768 721 L-2750 718 L-2729 714 L-2709 711 L-2691 707 L-2672 704 L-2652 701 L-2632 698 L-2614 695 L-2595 692 L-2574 690 L-2549 687 L-2534 684 L-2517 682 L-2498 679 L-2479 676 L-2459 673 L-2440 670 L-2420 666 L-2399 663 L-2382 660 L-2363 658 L-2342 655 L-2322 652 L-2304 650 L-2286 647 L-2266 644 L-2247 642 L-2227 639 L-2208 637 L-2188 636 L-2169 634 L-2150 632 L-2131 635 L-2102 638 L-2082 641 L-2054 644 L-2017 641 L-2002 639 L-1989 637 L-1972 635 L-1956 634 L-1936 632 L-1917 630 L-1898 629 L-1878 627 L-1857 626 L-1840 624 L-1821 623 L-1801 621 L-1781 619 L-1763 617 L-1744 616 L-1724 614 L-1704 612 L-1686 610 L-1667 609 L-1645 607 L-1620 606 L-1606 604 L-1589 602 L-1569 601 L-1550 599 L-1531 597 L-1511 595 L-1492 593 L-1471 591 L-1453 588 L-1434 586 L-1414 584 L-1393 582 L-1376 579 L-1357 577 L-1337 575 L-1318 573 L-1298 571 L-1280 569 L-1260 566 L-1240 564 L-1221 563 L-1202 561 L-1175 559 L-1154 557 L-1126 555 L-1091 552 L-1078 550 L-1064 549 L-1045 547 L-1027 545 L-1007 543 L-989 541 L-969 540 L-949 538 L-928 536 L-911 534 L-893 532 L-872 530 L-852 528 L-834 525 L-815 522 L-795 519 L-775 517 L-757 514 L-738 512 L-717 509 L-692 506 L-677 504 L-660 501 L-641 498 L-621 496 L-602 493 L-583 490 L-563 488 L-542 485 L-525 483 L-506 480 L-485 478 L-464 476 L-447 474 L-428 472 L-408 470 L-390 469 L-370 467 L-351 466 L-331 464 L-311 463 L-292 461 L-274 460 L-246 459 L-225 457 L-198 456 L-162 453 L-148 450 L-135 448 L-117 445 L-98 444 L-79 442 L-60 440 L-41 439 L-21 437 L0 435 L16 434 L35 431 L55 430 L75 427 L94 425 L112 423 L132 421 L153 419 L171 417 L190 415 L211 414 L236 412 L251 410 L268 408 L287 406 L307 405 L326 402 L345 400 L365 397 L386 394 L403 391 L422 389 L442 387 L463 385 L480 383 L499 382 L519 380 L538 379 L558 378 L576 376 L596 375 L616 374 L635 373 L654 371 L681 370 L702 369 L730 368 L764 366 L778 365 L792 364 L810 363 L829 362 L849 361 L867 360 L887 359 L907 358 L927 357 L944 356 L963 355 L984 354 L1004 353 L1022 352 L1041 350 L1061 350 L1081 349 L1099 348 L1118 347 L1139 347 L1164 346 L1178 345 L1196 343 L1215 342 L1235 341 L1254 340 L1273 339 L1293 338 L1313 336 L1331 334 L1350 332 L1371 330 L1391 328 L1409 327 L1428 325 L1448 324 L1466 322 L1486 321 L1505 319 L1525 318 L1544 317 L1564 316 L1582 315 L1611 314 L1659 313 L1696 312 L1710 311 L1723 310 L1740 309 L1758 309 L1777 308 L1796 307 L1815 306 L1835 306 L1856 305 L1873 304 L1892 304 L1912 303 L1932 302 L1951 301 L1969 300 L1989 299 L2009 298 L2028 297 L2047 296 L2068 294 L2092 293 L2107 291 L2124 289 L2144 288 L2163 286 L2183 285 L2201 284 L2221 282 L2242 281 L2260 279 L2279 278 L2299 276 L2319 275 L2337 274 L2356 273 L2376 272 L2395 271 L2415 270 L2434 269 L2453 268 L2473 267 L2492 266 L2511 264 L2539 263 L2559 262 L2587 261 L2624 258 L2639 256 L2651 254 L2669 252 L2686 251 L2707 250 L2725 249 L2744 248 L2764 247 L2785 246 L2802 245 L2821 244 L2841 242 L2862 240 L2879 239 L2899 236 L2918 234 L2939 232 L2957 230 L2975 229 L2997 227 L3022 226 L3037 224 L3054 223 L3073 221 L3093 220 L3111 219 L3130 217 L3150 215 L3172 213 L3189 212 L3208 211 L3228 209 L3249 208 L3266 207 L3285 206 L3305 204 L3324 203 L3343 202 L3362 201 L3382 200 L3402 199 L3421 198 L3440 197 L3468 997 L3488 996 L3516 995 L3552 993 L3566 190 L3579 188 L3597 187 L3615 186 L3635 185 L3653 185 L3673 184 L3692 182 L3714 181 L3730 179 L3749 177 L3770 176 L3790 174 L3808 172 L3827 169 L3847 167 L3868 166 L3885 164 L3904 163 L3925 162 L3950 160 L3965 158 L3995 156 L4035 153 L4058 151 L4087 148 L4103 146 L4117 144 L4137 143 L4157 142 L4178 140 L4194 139 L4213 138 L4234 137 L4252 136 L4272 136 L4291 135 L4311 134 L4331 133 L4349 132 L4368 131 L4396 130 L4417 129 L4444 128 L4480 127 L4493 125 L4525 124 L4543 123 L4563 122 L4582 121 L4601 121 L4621 120 L4642 119 L4659 118 L4678 116 L4698 113 L4719 110 L4736 106 L4756 102 L4775 99 L4796 97 L4814 95 L4833 93 L4854 92 L4879 90 L4894 89 L4911 88 L4930 86 L4950 84 L4969 83 L4988 81 L5008 80 L5029 78 L5046 76 L5065 75 L5085 74 L5106 73 L5123 72 L5142 71 L5162 70 L5181 69 L5201 67 L5220 66 L5239 65 L5259 64 L5278 63 L5297 62 L5325 61 L5345 60 L5415 58 L5443 56 L5458 53 L5472 51 L5492 49 L5510 48 L5529 47 L5550 45 L5570 44 L5588 43 L5606 42 L5627 42 L5647 41 L5665 40 L5684 38 L5704 37 L5724 35 L5742 34 L5761 33 L5782 32 L5807 31 L5822 30 L5840 29 L5858 27 L5878 25 L5897 24 L5917 22 L5936 21 L5957 21 L5974 19 L5994 19 L6014 18 L6035 16 L6052 15 L6110 14 L6129 13 L6148 12 L6168 11 L6188 10 L6207 10 L6225 9 L6253 8 L6274 8 L6301 7 L6338 6 L6352 5 L6365 5 L6383 4 L6401 3 L6421 3 L6439 2 L6459 2 L6478 2 L6500 1" />
</svg>
