<svg xmlns="http://www.w3.org/2000/svg" version="1.1" viewBox="0 0 6500 1000">
	<path fill="none" stroke="gold" stroke-width="125" stroke-linecap="round" stroke-linejoin="round" d="M0 512812  L-90753 512812 L-88149 506562 L-86481 500312 L-68152 487812 L-67982 475312 L-60824 462812 L-60791 462812 L-47360 456562 L-44438 462812 L-31097 444062 L-26928 419062 L-25768 387812 L-25149 356562 L-23137 337812 L-19365 325312 L-18765 312812 L-18436 300312 L-18223 287812 L-17682 275312 L-16444 225312 L-15265 175312 L-12400 125312 L-11878 75312 L-7023 62812 L-4085 50312 L-4042 37812 L-3734 25312 L-3482 12812 L-887 312 L3367 312 L3385 312 L4622 312 L6500 312" />
</svg>
