<svg xmlns="http://www.w3.org/2000/svg" version="1.1" viewBox="0 0 6500 1000">
	<path fill="none" stroke="gold" stroke-width="125" stroke-linecap="round" stroke-linejoin="round" d="M0 1545  L-720268 1545 L-717664 1545 L-715996 1545 L-697666 1544 L-697496 1544 L-690338 1544 L-690305 1544 L-676874 1544 L-673952 1544 L-660611 1544 L-656442 1544 L-655282 1543 L-654663 1543 L-652651 1543 L-648880 1542 L-648279 1542 L-647951 1542 L-647738 1542 L-647196 1542 L-645958 1541 L-644779 1541 L-641915 1540 L-641392 1539 L-636537 1539 L-633600 1539 L-633557 1539 L-633248 1539 L-632996 1539 L-630402 1538 L-626146 1538 L-626128 1538 L-624891 1538 L-623014 1538 L-621060 1538 L-620112 1538 L-619842 1538 L-619532 1538 L-619434 1538 L-618603 1538 L-616573 1538 L-616282 1537 L-614136 1537 L-613980 1536 L-610324 1536 L-610073 1536 L-609974 1536 L-609457 1536 L-607306 1537 L-606377 1537 L-604851 1537 L-603612 1537 L-602065 1537 L-599103 1537 L-597982 1537 L-597672 1537 L-596461 1537 L-593454 1538 L-593435 1538 L-593087 1538 L-592874 1537 L-592748 1536 L-592507 1536 L-592469 1536 L-592449 1536 L-592430 1536 L-592371 1536 L-592312 1535 L-592294 1535 L-591851 1535 L-590612 1535 L-589066 1535 L-585678 1535 L-579952 1535 L-579750 1534 L-578115 1534 L-576393 1534 L-574960 1534 L-574728 1534 L-574013 1534 L-567881 1534 L-567513 1534 L-567359 1534 L-566780 1534 L-566488 1533 L-565520 1533 L-565211 1533 L-564612 1533 L-563005 1533 L-562270 1533 L-561960 1533 L-561192 1533 L-559156 1533 L-558731 1533 L-557918 1533 L-550490 1532 L-549967 1532 L-549793 1532 L-549058 1532 L-547490 1532 L-547085 1532 L-544860 1532 L-543912 1532 L-543487 1531 L-543156 1531 L-542113 1531 L-540005 1531 L-539752 1531 L-539133 1531 L-538321 1531 L-536213 1531 L-536164 1531 L-534236 1530 L-533910 1530 L-533775 1530 L-533272 1530 L-531860 1530 L-531357 1530 L-530835 1529 L-527275 1529 L-526540 1529 L-524115 1529 L-522826 1529 L-522419 1528 L-519266 1528 L-519112 1528 L-519091 1529 L-518725 1529 L-517467 1529 L-516752 1529 L-515862 1529 L-515455 1529 L-514526 1529 L-513417 1529 L-513114 1529 L-506865 1529 L-505918 1529 L-504292 1529 L-503790 1529 L-500114 1530 L-499282 1530 L-495329 1530 L-493917 1529 L-491428 1529 L-490751 1529 L-490713 1529 L-489842 1529 L-486631 1529 L-483768 1529 L-482800 1529 L-481678 1529 L-481659 1529 L-480034 1528 L-479570 1528 L-479478 1528 L-473109 1528 L-472160 1528 L-469703 1528 L-468831 1528 L-467595 1528 L-465594 1528 L-465196 1527 L-463760 1527 L-461734 1527 L-461520 1527 L-460340 1527 L-458832 1527 L-458812 1527 L-456799 1527 L-455930 1527 L-455059 1526 L-454474 1526 L-453937 1526 L-453279 1526 L-452041 1526 L-451481 1526 L-450299 1526 L-449062 1526 L-449023 1526 L-448636 1525 L-448095 1525 L-447321 1525 L-446199 1525 L-444110 1525 L-443776 1525 L-443490 1525 L-442562 1525 L-442079 1524 L-441343 1524 L-437712 1524 L-436584 1524 L-436430 1524 L-435404 1524 L-431689 1524 L-430472 1524 L-428653 1524 L-425867 1523 L-425306 1523 L-421418 1523 L-418942 1523 L-417607 1523 L-417103 1523 L-416620 1523 L-413931 1523 L-410159 1523 L-407702 1523 L-406522 1523 L-405883 1523 L-403523 1523 L-403446 1523 L-402399 1523 L-402305 1523 L-401802 1523 L-401357 1523 L-401299 1523 L-401085 1523 L-398126 1522 L-395418 1522 L-395263 1522 L-391743 1522 L-391220 1522 L-390252 1522 L-389903 1522 L-388860 1522 L-387931 1521 L-387505 1521 L-385996 1521 L-385029 1521 L-385010 1521 L-383114 1516 L-382998 1510 L-382951 1504 L-382926 1498 L-379922 1498 L-377891 1498 L-376130 1498 L-375763 1498 L-375318 1498 L-374951 1498 L-374537 1498 L-372552 1497 L-372339 1497 L-372184 1497 L-370579 1497 L-369457 1497 L-368509 1497 L-367251 1497 L-365607 1497 L-364427 1497 L-357838 1497 L-357791 1497 L-357385 1497 L-356340 1497 L-356205 1496 L-354522 1496 L-354502 1496 L-353165 1496 L-351929 1496 L-351775 1496 L-351401 1496 L-351195 1496 L-350885 1496 L-350112 1495 L-347790 1495 L-347132 1495 L-345004 1495 L-343282 1495 L-343089 1495 L-340535 1495 L-340259 1495 L-340071 1495 L-339238 1495 L-338466 1494 L-337768 1494 L-332767 1494 L-332391 1494 L-328138 1494 L-327651 1502 L-327632 1502 L-327553 1502 L-327478 1502 L-327458 1494 L-326645 1494 L-325891 1494 L-324672 1493 L-323240 1493 L-323144 1493 L-322970 1493 L-322615 1493 L-321306 1493 L-319449 1493 L-317746 1493 L-317244 1493 L-316978 1493 L-316585 1493 L-316451 1493 L-315541 1493 L-315165 1492 L-314236 1492 L-313897 1492 L-313857 1492 L-313820 1492 L-311904 1492 L-311731 1492 L-310202 1492 L-309874 1492 L-309758 1492 L-309350 1492 L-309002 1492 L-307359 1492 L-306808 1492 L-306565 1492 L-306023 1491 L-305192 1491 L-304650 1491 L-303116 1491 L-303023 1491 L-302986 1491 L-302851 1491 L-302463 1491 L-301439 1491 L-299562 1491 L-299466 1491 L-298866 1493 L-298498 1496 L-298014 1498 L-297976 1501 L-297202 1501 L-297144 1501 L-296970 1501 L-296776 1501 L-295171 1501 L-295151 1501 L-294996 1501 L-294881 1501 L-293701 1501 L-293546 1501 L-292879 1501 L-290431 1507 L-287916 1514 L-285246 1520 L-277547 1527 L-271879 1527 L-269665 1526 L-269642 1526 L-268668 1528 L-268648 1528 L-267784 1528 L-265044 1528 L-259245 1526 L-259092 1526 L-256306 1526 L-242698 1526 L-241952 1526 L-237541 1526 L-221195 1525 L-220963 1525 L-220426 1525 L-211966 1525 L-203261 1525 L-203048 1525 L-201076 1525 L-198290 1525 L-193802 1525 L-193647 1525 L-193478 1525 L-193338 1525 L-193047 1525 L-193008 1525 L-192738 1524 L-192566 1524 L-192156 1524 L-191035 1524 L-189855 1524 L-188578 1524 L-185714 1524 L-182794 1524 L-180802 1524 L-179254 1524 L-176216 1524 L-166892 1524 L-166368 1523 L-160644 1523 L-159137 1523 L-158323 1523 L-156639 1523 L-155918 1523 L-155749 1523 L-154704 1523 L-152637 1523 L-151275 1523 L-146832 1523 L-146734 1523 L-146696 1523 L-146677 1523 L-145844 1522 L-145767 1522 L-143194 1522 L-139945 1522 L-139790 1522 L-138842 1522 L-137101 1522 L-136385 1522 L-132845 1523 L-126267 1523 L-124850 1524 L-124829 1524 L-123879 1524 L-120404 1524 L-119651 1523 L-119089 1523 L-118307 1523 L-110803 1523 L-109205 1523 L-107631 1523 L-104445 1523 L-100112 1523 L-91543 1523 L-82796 1523 L-79723 1523 L-76456 1523 L-75910 1522 L-68773 1522 L-63105 1522 L-49041 1522 L-43029 1522 L-38323 1522 L-34320 1522 L-29212 1522 L-19498 1522 L-3928 1522 L-845 1522 L-543 1487 L-523 1444 L-504 1395 L-485 1341 L-465 1316 L-446 1295 L-427 1276 L-399 1257 L-379 1238 L-351 1219 L-315 1197 L-302 1179 L-289 1163 L-270 1150 L-252 1141 L-232 1131 L-214 1121 L-194 1111 L-174 1101 L-153 1091 L-136 1081 L-118 1071 L-97 1062 L-77 1052 L-59 1042 L-40 1031 L-20 1020 L0 1009 L18 999 L36 989 L58 980 L82 970 L97 961 L114 952 L134 943 L153 935 L172 925 L191 915 L211 906 L232 897 L250 889 L269 881 L289 873 L310 866 L327 860 L346 854 L366 848 L385 843 L404 837 L423 832 L443 828 L463 824 L482 820 L501 816 L528 810 L549 805 L577 799 L611 792 L625 787 L638 782 L657 778 L676 774 L696 770 L714 765 L733 761 L753 756 L774 752 L791 748 L810 744 L830 740 L850 735 L869 729 L887 724 L907 718 L927 711 L946 705 L965 699 L986 692 L1010 684 L1025 677 L1042 670 L1062 663 L1081 656 L1101 648 L1120 641 L1140 633 L1160 626 L1178 619 L1197 612 L1217 605 L1238 599 L1255 593 L1274 587 L1294 581 L1313 576 L1333 571 L1352 566 L1372 561 L1391 555 L1410 550 L1429 545 L1458 540 L1478 535 L1505 531 L1543 525 L1558 519 L1570 514 L1587 509 L1604 506 L1624 502 L1643 499 L1662 496 L1682 494 L1703 491 L1720 487 L1739 484 L1759 480 L1779 477 L1797 473 L1816 469 L1836 464 L1856 459 L1875 455 L1893 450 L1914 446 L1939 441 L1953 437 L1971 432 L1991 427 L2010 423 L2029 418 L2048 413 L2068 408 L2089 404 L2107 399 L2126 395 L2146 390 L2166 386 L2184 383 L2203 379 L2223 375 L2242 371 L2261 367 L2280 363 L2300 360 L2319 356 L2339 353 L2358 349 L2386 345 L2406 342 L2434 337 L2470 332 L2484 326 L2497 321 L2515 317 L2533 314 L2553 311 L2571 308 L2591 304 L2611 300 L2632 295 L2650 291 L2667 286 L2688 281 L2708 276 L2726 270 L2745 264 L2765 259 L2785 253 L2803 248 L2822 244 L2843 240 L2868 237 L2883 235 L2900 232 L2919 229 L2939 226 L2958 223 L2977 220 L2997 217 L3018 215 L3035 212 L3054 210 L3075 206 L3096 202 L3113 199 L3132 196 L3152 193 L3170 192 L3190 190 L3209 188 L3229 186 L3248 184 L3268 182 L3286 180 L3314 178 L3335 176 L3362 174 L3397 171 L3411 169 L3424 167 L3443 166 L3462 164 L3481 163 L3500 161 L3519 160 L3539 158 L3560 157 L3577 155 L3596 154 L3617 152 L3637 150 L3655 148 L3673 147 L3693 145 L3714 144 L3732 142 L3751 141 L3772 139 L3797 138 L3811 137 L3828 135 L3848 134 L3867 132 L3887 131 L3906 129 L3925 127 L3946 126 L3964 124 L3983 123 L4003 121 L4024 120 L4041 119 L4060 117 L4080 116 L4099 115 L4119 114 L4137 113 L4158 112 L4177 111 L4196 110 L4215 111 L4244 113 L4263 114 L4291 116 L4329 114 L4344 113 L4357 112 L4374 111 L4390 111 L4410 110 L4428 109 L4448 108 L4468 107 L4489 106 L4506 106 L4524 105 L4545 104 L4565 103 L4583 102 L4602 101 L4622 100 L4642 99 L4660 99 L4679 98 L4700 97 L4725 96 L4740 96 L4757 95 L4777 94 L4796 93 L4815 92 L4834 91 L4854 90 L4875 89 L4892 87 L4911 86 L4932 85 L4952 84 L4970 83 L4989 82 L5009 81 L5028 80 L5047 78 L5066 77 L5086 76 L5106 75 L5125 74 L5143 73 L5171 72 L5192 71 L5220 70 L5254 69 L5268 68 L5281 67 L5300 66 L5319 65 L5339 64 L5357 63 L5377 62 L5396 61 L5417 60 L5434 60 L5453 59 L5474 57 L5494 56 L5512 55 L5531 54 L5550 52 L5571 51 L5589 49 L5608 48 L5629 47 L5654 45 L5669 44 L5686 42 L5705 41 L5725 40 L5744 38 L5763 37 L5783 36 L5804 34 L5821 33 L5840 32 L5861 31 L5881 30 L5898 29 L5917 28 L5937 27 L5956 26 L5976 25 L5995 24 L6014 24 L6034 23 L6053 22 L6072 22 L6100 21 L6120 20 L6148 19 L6184 18 L6197 17 L6211 15 L6229 14 L6247 13 L6267 12 L6286 11 L6305 11 L6325 10 L6346 9 L6363 8 L6382 7 L6402 6 L6422 5 L6440 4 L6459 3 L6479 1 L6500 0" />
</svg>
