<svg xmlns="http://www.w3.org/2000/svg" version="1.1" viewBox="0 0 6500 1000">
	<path fill="none" stroke="gold" stroke-width="125" stroke-linecap="round" stroke-linejoin="round" d="M0 1020  L-715894 1020 L-713290 1020 L-711622 1020 L-693292 1019 L-693122 1019 L-685964 1019 L-685931 1019 L-672500 1019 L-669578 1019 L-656237 1019 L-652068 1019 L-650908 1018 L-650289 1018 L-648277 1018 L-644506 1018 L-643906 1017 L-643577 1017 L-643364 1017 L-642822 1017 L-641584 1017 L-640405 1016 L-637541 1015 L-637019 1015 L-632163 1015 L-629226 1015 L-629183 1014 L-628874 1014 L-628623 1014 L-626028 1014 L-621772 1014 L-621754 1014 L-620517 1014 L-618640 1014 L-616687 1014 L-615739 1014 L-615468 1014 L-615158 1014 L-615060 1013 L-614229 1013 L-612199 1014 L-611908 1013 L-609762 1013 L-609606 1012 L-605950 1012 L-605699 1012 L-605600 1012 L-605083 1012 L-602932 1013 L-602003 1013 L-600477 1013 L-599238 1013 L-597691 1013 L-594729 1013 L-593608 1013 L-593298 1013 L-592087 1013 L-589081 1013 L-589061 1013 L-588714 1013 L-588500 1013 L-588374 1012 L-588133 1012 L-588095 1012 L-588075 1012 L-588056 1012 L-587997 1012 L-587938 1011 L-587920 1011 L-587477 1011 L-586238 1011 L-584692 1011 L-581304 1011 L-575578 1011 L-575376 1011 L-573741 1011 L-572019 1010 L-570587 1010 L-570354 1010 L-569639 1010 L-563507 1010 L-563139 1010 L-562985 1010 L-562406 1010 L-562114 1010 L-561146 1010 L-560837 1009 L-560238 1009 L-558631 1009 L-557896 1009 L-557587 1009 L-556818 1009 L-554782 1009 L-554357 1009 L-553544 1009 L-546116 1009 L-545593 1009 L-545419 1009 L-544684 1008 L-543116 1008 L-542711 1008 L-540486 1008 L-539538 1008 L-539113 1008 L-538783 1008 L-537739 1008 L-535631 1008 L-535378 1008 L-534760 1007 L-533947 1007 L-531839 1007 L-531791 1007 L-529862 1007 L-529537 1007 L-529402 1007 L-528898 1007 L-527486 1006 L-526983 1006 L-526461 1006 L-522901 1006 L-522166 1005 L-519741 1005 L-518452 1005 L-518045 1005 L-514893 1005 L-514738 1005 L-514717 1005 L-514351 1005 L-513093 1005 L-512378 1005 L-511488 1005 L-511081 1005 L-510152 1005 L-509044 1005 L-508740 1006 L-502492 1006 L-501544 1006 L-499918 1006 L-499416 1006 L-495741 1006 L-494908 1006 L-490955 1006 L-489543 1006 L-487054 1006 L-486377 1006 L-486339 1006 L-485468 1006 L-482257 1006 L-479394 1006 L-478426 1006 L-477304 1005 L-477285 1005 L-475660 1005 L-475196 1005 L-475104 1005 L-468735 1005 L-467786 1005 L-465329 1005 L-464457 1005 L-463221 1004 L-461220 1004 L-460822 1004 L-459386 1004 L-457360 1004 L-457146 1004 L-455966 1004 L-454458 1004 L-454438 1004 L-452425 1004 L-451556 1004 L-450685 1003 L-450100 1003 L-449563 1003 L-448905 1003 L-447667 1003 L-447107 1003 L-445926 1003 L-444688 1003 L-444649 1003 L-444263 1003 L-443721 1002 L-442947 1002 L-441825 1002 L-439736 1002 L-439402 1002 L-439117 1002 L-438188 1002 L-437705 1002 L-436969 1002 L-433338 1002 L-432211 1001 L-432056 1001 L-431030 1001 L-427315 1001 L-426098 1001 L-424279 1001 L-421494 1001 L-420932 1001 L-417044 1001 L-414568 1001 L-413233 1001 L-412729 1001 L-412246 1001 L-409557 1001 L-405785 1001 L-403328 1001 L-402148 1001 L-401509 1000 L-399150 1000 L-399072 1000 L-398025 1000 L-397931 1000 L-397428 1000 L-396983 1000 L-396925 1000 L-396711 1000 L-393752 1000 L-391044 1000 L-390889 1000 L-387369 1000 L-386846 1000 L-385878 999 L-385529 999 L-384486 999 L-383557 999 L-383131 999 L-381622 999 L-380655 999 L-380637 999 L-378741 994 L-378625 989 L-378577 984 L-378552 979 L-375548 978 L-373517 978 L-371757 978 L-371389 978 L-370944 978 L-370577 978 L-370163 978 L-368178 978 L-367965 978 L-367810 978 L-366205 978 L-365083 978 L-364135 978 L-362877 977 L-361233 977 L-360053 977 L-353464 977 L-353417 977 L-353011 977 L-351966 977 L-351831 977 L-350148 977 L-350128 977 L-348792 977 L-347555 976 L-347401 976 L-347027 976 L-346821 976 L-346512 976 L-345738 976 L-343416 976 L-342758 976 L-340631 976 L-338908 976 L-338715 976 L-336161 976 L-335885 975 L-335697 975 L-334864 975 L-334092 975 L-333394 975 L-328393 975 L-328017 975 L-323764 975 L-323277 982 L-323258 982 L-323179 982 L-323104 981 L-323084 974 L-322271 974 L-321517 974 L-320298 974 L-318866 974 L-318770 974 L-318596 974 L-318241 974 L-316932 974 L-315075 974 L-313372 974 L-312870 974 L-312604 974 L-312211 974 L-312077 973 L-311167 973 L-310791 973 L-309862 973 L-309523 973 L-309484 973 L-309446 973 L-307530 973 L-307357 973 L-305828 973 L-305500 973 L-305384 973 L-304977 973 L-304628 973 L-302985 973 L-302434 973 L-302191 973 L-301649 972 L-300818 972 L-300276 972 L-298742 972 L-298650 972 L-298613 972 L-298477 972 L-298089 972 L-297065 972 L-295188 972 L-295092 972 L-294492 974 L-294125 976 L-293640 979 L-293602 981 L-292828 981 L-292771 981 L-292596 981 L-292402 981 L-290797 981 L-290777 981 L-290622 981 L-290507 981 L-289327 981 L-289172 981 L-288505 981 L-286057 987 L-283542 992 L-280872 998 L-273173 1004 L-267505 1004 L-265291 1003 L-265268 1003 L-264294 1005 L-264274 1005 L-263410 1005 L-260670 1005 L-254871 1003 L-254718 1003 L-251932 1003 L-238324 1003 L-237578 1003 L-233167 1003 L-216821 1003 L-216589 1002 L-216052 1002 L-207592 1002 L-198887 1002 L-198674 1002 L-196702 1002 L-193916 1002 L-189428 1002 L-189273 1002 L-189104 1002 L-188964 1002 L-188673 1002 L-188635 1002 L-188364 1002 L-188192 1002 L-187782 1002 L-186661 1002 L-185481 1001 L-184204 1001 L-181340 1001 L-178420 1001 L-176428 1001 L-174880 1001 L-171843 1001 L-162518 1001 L-161994 1001 L-156270 1001 L-154763 1001 L-153949 1001 L-152265 1001 L-151544 1001 L-151376 1001 L-150330 1000 L-148263 1000 L-146901 1000 L-142458 1000 L-142361 1000 L-142322 1000 L-142303 1000 L-141471 1000 L-141393 1000 L-138820 1000 L-135571 1000 L-135416 1000 L-134468 1000 L-132727 999 L-132011 1000 L-128471 1000 L-121893 1001 L-120476 1001 L-120455 1001 L-119505 1001 L-116030 1001 L-115277 1001 L-114715 1001 L-113933 1001 L-106429 1001 L-104831 1001 L-103257 1000 L-100072 1000 L-95739 1000 L-87169 1000 L-78423 1000 L-75349 1000 L-72083 1000 L-71536 1000 L-64399 1000 L-58731 1000 L-44667 1000 L-38655 1000 L-33949 1000 L-29946 1000 L-24838 1000 L-15124 1000 L445 999 L3528 999 L3830 968 L3850 930 L3869 887 L3888 839 L3908 817 L3927 798 L3946 781 L3973 764 L3994 748 L4022 731 L4058 712 L4071 696 L4084 682 L4103 670 L4121 662 L4141 653 L4159 644 L4179 635 L4199 627 L4220 617 L4237 608 L4255 600 L4276 591 L4296 583 L4314 574 L4333 564 L4353 554 L4373 545 L4391 536 L4410 527 L4431 519 L4456 510 L4471 502 L4488 494 L4508 486 L4527 479 L4546 470 L4565 462 L4585 453 L4606 446 L4624 438 L4642 431 L4663 424 L4684 418 L4701 413 L4720 407 L4740 402 L4759 397 L4778 392 L4797 388 L4817 384 L4837 381 L4856 377 L4874 373 L4902 369 L4923 364 L4951 358 L4985 353 L4999 348 L5012 343 L5031 340 L5050 336 L5069 333 L5088 329 L5107 325 L5127 321 L5148 317 L5165 313 L5184 310 L5204 306 L5224 302 L5243 297 L5261 292 L5281 286 L5301 281 L5320 275 L5339 270 L5360 264 L5384 257 L5399 250 L5416 244 L5436 238 L5455 231 L5475 225 L5493 218 L5514 212 L5534 205 L5552 199 L5571 193 L5591 187 L5612 181 L5629 175 L5648 170 L5668 165 L5687 161 L5707 156 L5726 152 L5745 147 L5765 143 L5784 138 L5803 134 L5832 129 L5852 125 L5879 120 L5917 115 L5932 110 L5944 106 L5961 101 L5978 98 L5998 95 L6017 93 L6036 90 L6056 88 L6076 85 L6094 82 L6112 79 L6133 76 L6153 73 L6171 69 L6190 65 L6210 62 L6230 57 L6249 53 L6267 49 L6288 45 L6313 41 L6327 37 L6345 33 L6365 29 L6384 25 L6403 21 L6422 16 L6442 12 L6462 8 L6481 4 L6500 0" />
</svg>
