<svg xmlns="http://www.w3.org/2000/svg" version="1.1" viewBox="0 0 6500 1000">
	<path fill="none" stroke="gold" stroke-width="125" stroke-linecap="round" stroke-linejoin="round" d="M0 3559  L-722471 3559 L-719867 3559 L-718199 3559 L-699870 3559 L-699699 3558 L-692542 3558 L-692508 3558 L-679077 3558 L-676156 3558 L-662815 3557 L-658646 3557 L-657486 3556 L-656867 3555 L-654855 3554 L-651083 3554 L-650483 3554 L-650154 3553 L-649941 3553 L-649399 3553 L-648161 3551 L-646982 3550 L-644118 3549 L-643596 3547 L-638740 3547 L-635803 3547 L-635760 3546 L-635452 3546 L-635200 3546 L-632605 3545 L-628350 3545 L-628332 3545 L-627095 3545 L-625217 3545 L-623264 3545 L-622316 3545 L-622045 3544 L-621735 3544 L-621637 3544 L-620807 3544 L-618776 3544 L-618486 3543 L-616339 3542 L-616184 3541 L-612527 3540 L-612276 3540 L-612178 3540 L-611661 3541 L-609509 3542 L-608581 3542 L-607055 3543 L-605815 3543 L-604269 3543 L-601307 3543 L-600185 3542 L-599876 3542 L-598665 3542 L-595658 3544 L-595638 3544 L-595291 3543 L-595078 3543 L-594952 3541 L-594710 3541 L-594672 3540 L-594652 3540 L-594633 3539 L-594574 3539 L-594516 3539 L-594498 3538 L-594054 3538 L-592815 3538 L-591269 3537 L-587882 3537 L-582155 3537 L-581954 3537 L-580318 3537 L-578596 3536 L-577164 3536 L-576932 3536 L-576216 3536 L-570084 3536 L-569716 3535 L-569562 3535 L-568984 3535 L-568691 3534 L-567724 3534 L-567414 3534 L-566815 3533 L-565209 3533 L-564474 3533 L-564164 3534 L-563396 3534 L-561360 3533 L-560934 3533 L-560122 3533 L-552693 3532 L-552170 3532 L-551996 3532 L-551261 3531 L-549694 3531 L-549288 3531 L-547063 3530 L-546115 3530 L-545690 3530 L-545360 3530 L-544316 3530 L-542208 3530 L-541956 3529 L-541337 3529 L-540524 3529 L-538416 3528 L-538368 3528 L-536440 3528 L-536114 3527 L-535979 3527 L-535476 3527 L-534063 3527 L-533560 3526 L-533038 3525 L-529479 3525 L-528744 3524 L-526319 3524 L-525029 3524 L-524622 3523 L-521470 3523 L-521315 3523 L-521295 3524 L-520928 3524 L-519670 3524 L-518955 3524 L-518065 3524 L-517658 3524 L-516730 3524 L-515621 3524 L-515318 3525 L-509069 3525 L-508122 3525 L-506495 3526 L-505994 3526 L-502318 3526 L-501485 3526 L-497532 3526 L-496121 3526 L-493631 3525 L-492955 3525 L-492916 3525 L-492045 3525 L-488834 3525 L-485971 3525 L-485003 3524 L-483881 3524 L-483862 3524 L-482237 3523 L-481773 3523 L-481681 3523 L-475312 3522 L-474364 3522 L-471907 3522 L-471034 3522 L-469798 3522 L-467797 3521 L-467399 3521 L-465963 3521 L-463937 3521 L-463724 3520 L-462544 3520 L-461035 3520 L-461015 3520 L-459003 3520 L-458133 3519 L-457262 3519 L-456678 3519 L-456140 3518 L-455483 3518 L-454245 3518 L-453684 3518 L-452503 3517 L-451265 3517 L-451227 3517 L-450840 3517 L-450298 3517 L-449524 3516 L-448402 3516 L-446313 3516 L-445980 3515 L-445694 3515 L-444765 3515 L-444282 3515 L-443547 3514 L-439915 3514 L-438788 3514 L-438633 3514 L-437607 3514 L-433892 3513 L-432675 3513 L-430857 3513 L-428071 3513 L-427509 3512 L-423622 3512 L-421145 3512 L-419810 3512 L-419307 3512 L-418824 3512 L-416134 3512 L-412363 3512 L-409905 3512 L-408726 3512 L-408086 3512 L-405727 3511 L-405649 3511 L-404602 3511 L-404508 3511 L-404006 3511 L-403560 3511 L-403502 3511 L-403289 3511 L-400329 3510 L-397622 3510 L-397467 3510 L-393946 3510 L-393423 3509 L-392456 3509 L-392107 3509 L-391063 3509 L-390134 3508 L-389709 3508 L-388200 3508 L-387233 3508 L-387214 3508 L-385318 3495 L-385202 3482 L-385154 3470 L-385130 3457 L-382125 3457 L-380095 3457 L-378334 3457 L-377967 3456 L-377521 3456 L-377154 3456 L-376740 3456 L-374755 3455 L-374542 3455 L-374387 3455 L-372782 3455 L-371660 3455 L-370712 3455 L-369455 3455 L-367810 3454 L-366630 3454 L-360041 3454 L-359994 3454 L-359589 3454 L-358544 3453 L-358408 3453 L-356726 3453 L-356706 3453 L-355369 3452 L-354133 3452 L-353978 3452 L-353605 3452 L-353398 3452 L-353089 3451 L-352315 3451 L-349993 3451 L-349336 3451 L-347208 3451 L-345485 3450 L-345292 3450 L-342739 3450 L-342462 3449 L-342274 3449 L-341442 3449 L-340669 3449 L-339971 3449 L-334971 3449 L-334595 3448 L-330342 3448 L-329855 3465 L-329835 3465 L-329756 3465 L-329681 3465 L-329661 3447 L-328849 3447 L-328095 3447 L-326876 3447 L-325444 3447 L-325348 3446 L-325173 3446 L-324819 3446 L-323509 3446 L-321652 3446 L-319950 3445 L-319447 3445 L-319182 3445 L-318788 3445 L-318654 3445 L-317744 3445 L-317368 3444 L-316440 3444 L-316100 3444 L-316061 3444 L-316023 3444 L-314108 3444 L-313934 3444 L-312405 3444 L-312077 3444 L-311961 3444 L-311554 3443 L-311206 3443 L-309562 3443 L-309011 3443 L-308768 3442 L-308227 3442 L-307395 3442 L-306854 3442 L-305319 3441 L-305227 3441 L-305190 3441 L-305054 3441 L-304667 3441 L-303642 3440 L-301766 3440 L-301669 3440 L-301069 3446 L-300702 3451 L-300217 3457 L-300179 3463 L-299405 3463 L-299348 3463 L-299173 3463 L-298980 3463 L-297374 3462 L-297355 3462 L-297199 3463 L-297084 3463 L-295904 3463 L-295750 3463 L-295083 3463 L-292634 3477 L-290120 3492 L-287450 3505 L-279751 3519 L-274083 3519 L-271868 3519 L-271845 3519 L-270871 3522 L-270851 3522 L-269988 3522 L-267247 3522 L-261449 3518 L-261295 3518 L-258509 3518 L-244901 3518 L-244155 3517 L-239745 3517 L-223398 3517 L-223166 3517 L-222629 3516 L-214170 3516 L-205464 3516 L-205252 3516 L-203279 3516 L-200493 3516 L-196006 3516 L-195851 3516 L-195682 3516 L-195541 3515 L-195251 3515 L-195212 3515 L-194941 3515 L-194769 3515 L-194359 3514 L-193239 3514 L-192058 3514 L-190782 3514 L-187918 3514 L-184998 3514 L-183006 3513 L-181458 3513 L-178420 3513 L-169095 3513 L-168571 3513 L-162848 3513 L-161341 3512 L-160526 3512 L-158842 3512 L-158121 3512 L-157953 3512 L-156908 3512 L-154840 3511 L-153478 3511 L-149035 3511 L-148938 3511 L-148899 3511 L-148880 3511 L-148048 3510 L-147970 3510 L-145398 3510 L-142148 3510 L-141994 3510 L-141045 3509 L-139304 3509 L-138589 3510 L-135048 3511 L-128471 3512 L-127053 3513 L-127033 3513 L-126082 3513 L-122608 3513 L-121855 3512 L-121293 3512 L-120511 3512 L-113007 3512 L-111408 3512 L-109834 3512 L-106649 3511 L-102316 3511 L-93746 3511 L-85000 3511 L-81926 3511 L-78660 3511 L-78113 3510 L-70976 3510 L-65309 3510 L-51244 3510 L-45233 3510 L-40526 3510 L-36523 3510 L-31416 3510 L-21702 3510 L-6131 3509 L-3048 3509 L-2746 3432 L-2727 3338 L-2708 3231 L-2688 3111 L-2668 3057 L-2649 3011 L-2630 2968 L-2603 2926 L-2582 2886 L-2554 2843 L-2519 2796 L-2505 2756 L-2492 2721 L-2474 2693 L-2455 2672 L-2435 2650 L-2417 2628 L-2397 2607 L-2378 2585 L-2356 2562 L-2340 2540 L-2321 2518 L-2300 2498 L-2280 2477 L-2262 2454 L-2243 2431 L-2223 2406 L-2203 2383 L-2185 2360 L-2166 2338 L-2145 2318 L-2120 2297 L-2105 2277 L-2088 2257 L-2069 2238 L-2049 2218 L-2030 2197 L-2011 2176 L-1991 2156 L-1971 2137 L-1953 2118 L-1934 2100 L-1913 2084 L-1893 2068 L-1876 2055 L-1857 2042 L-1837 2029 L-1818 2016 L-1798 2004 L-1779 1994 L-1759 1984 L-1740 1975 L-1720 1966 L-1702 1957 L-1674 1946 L-1654 1934 L-1626 1920 L-1592 1906 L-1578 1894 L-1564 1883 L-1546 1873 L-1527 1865 L-1507 1856 L-1488 1846 L-1469 1837 L-1449 1827 L-1428 1817 L-1411 1809 L-1392 1800 L-1372 1790 L-1352 1780 L-1334 1768 L-1315 1755 L-1295 1742 L-1275 1728 L-1256 1715 L-1238 1701 L-1216 1685 L-1192 1669 L-1177 1652 L-1160 1636 L-1140 1621 L-1121 1606 L-1102 1590 L-1083 1573 L-1063 1556 L-1042 1540 L-1024 1525 L-1005 1509 L-985 1495 L-965 1480 L-947 1467 L-928 1454 L-908 1442 L-889 1431 L-869 1419 L-851 1408 L-831 1397 L-812 1385 L-792 1374 L-773 1363 L-744 1352 L-725 1341 L-697 1331 L-660 1318 L-645 1306 L-632 1294 L-615 1283 L-598 1276 L-578 1268 L-560 1262 L-541 1255 L-521 1249 L-500 1243 L-483 1235 L-464 1228 L-443 1220 L-424 1212 L-405 1203 L-386 1194 L-366 1185 L-347 1174 L-328 1164 L-309 1154 L-288 1145 L-264 1134 L-249 1125 L-232 1114 L-212 1104 L-193 1094 L-173 1084 L-154 1073 L-134 1062 L-114 1052 L-96 1041 L-77 1032 L-57 1023 L-36 1014 L-18 1006 L0 997 L20 988 L38 980 L58 971 L77 963 L97 955 L116 947 L135 940 L154 932 L183 924 L203 916 L231 906 L267 894 L281 882 L294 871 L312 861 L330 855 L350 849 L368 841 L388 832 L407 824 L429 814 L447 804 L464 794 L485 783 L505 771 L523 759 L542 746 L562 733 L582 721 L600 710 L619 700 L640 693 L665 686 L679 680 L697 674 L716 668 L736 661 L755 654 L774 648 L794 642 L815 636 L832 631 L851 626 L871 618 L892 610 L909 601 L928 595 L948 590 L967 586 L987 582 L1006 578 L1025 574 L1045 569 L1064 564 L1083 560 L1110 556 L1131 552 L1159 547 L1194 541 L1208 537 L1221 532 L1240 529 L1258 525 L1278 522 L1296 519 L1316 515 L1336 512 L1357 509 L1374 506 L1392 502 L1413 498 L1433 495 L1451 490 L1470 487 L1490 484 L1510 481 L1528 477 L1547 474 L1568 471 L1593 468 L1608 465 L1625 462 L1645 459 L1664 456 L1683 452 L1702 449 L1722 445 L1743 441 L1760 438 L1779 435 L1800 432 L1820 429 L1838 426 L1857 423 L1877 420 L1895 417 L1915 414 L1934 412 L1954 410 L1973 408 L1993 406 L2011 409 L2040 413 L2060 416 L2088 419 L2125 416 L2140 414 L2153 411 L2171 410 L2187 408 L2207 406 L2225 404 L2245 402 L2264 400 L2286 399 L2302 397 L2321 395 L2342 393 L2362 391 L2380 389 L2399 387 L2418 385 L2439 383 L2457 381 L2476 380 L2497 378 L2522 377 L2536 375 L2554 373 L2573 370 L2593 368 L2612 367 L2631 365 L2651 362 L2671 359 L2689 356 L2708 354 L2728 351 L2749 349 L2766 347 L2785 344 L2805 342 L2824 340 L2844 337 L2863 334 L2883 332 L2902 329 L2921 328 L2940 326 L2968 324 L2988 321 L3016 319 L3051 316 L3065 314 L3078 312 L3097 310 L3115 308 L3135 306 L3154 304 L3173 302 L3193 300 L3214 297 L3231 295 L3250 293 L3270 291 L3290 288 L3308 286 L3327 282 L3347 279 L3367 276 L3386 273 L3404 270 L3426 267 L3451 264 L3465 261 L3482 258 L3502 255 L3521 252 L3540 249 L3559 246 L3579 243 L3600 240 L3618 237 L3637 235 L3657 232 L3678 230 L3695 228 L3714 225 L3734 224 L3753 222 L3772 220 L3791 218 L3811 217 L3831 215 L3850 214 L3869 212 L3896 211 L3917 209 L3945 207 L3980 204 L3994 201 L4007 198 L4026 195 L4044 194 L4064 192 L4082 190 L4102 188 L4121 186 L4143 184 L4159 182 L4178 180 L4199 178 L4219 175 L4237 173 L4256 170 L4276 168 L4296 165 L4314 163 L4333 161 L4354 160 L4379 157 L4394 156 L4411 154 L4430 152 L4450 149 L4469 147 L4488 144 L4508 141 L4529 138 L4546 134 L4565 132 L4586 129 L4606 127 L4623 125 L4642 124 L4663 122 L4681 121 L4701 119 L4720 118 L4740 116 L4759 115 L4779 113 L4797 112 L4825 110 L4845 109 L4873 108 L4907 106 L4922 105 L4935 104 L4953 102 L4972 101 L4992 100 L5010 99 L5030 98 L5050 97 L5071 96 L5088 95 L5107 93 L5127 92 L5147 91 L5165 90 L5184 88 L5204 87 L5224 87 L5243 86 L5262 85 L5283 84 L5307 83 L5322 82 L5339 80 L5359 79 L5378 78 L5397 77 L5416 76 L5436 74 L5457 72 L5475 70 L5494 68 L5514 65 L5534 63 L5552 62 L5571 60 L5591 58 L5610 57 L5630 55 L5648 53 L5668 52 L5687 51 L5707 50 L5726 49 L5754 48 L5802 47 L5839 45 L5854 44 L5866 43 L5883 42 L5901 41 L5921 41 L5939 40 L5958 39 L5979 38 L5999 37 L6016 36 L6035 35 L6056 35 L6075 34 L6094 33 L6113 32 L6133 31 L6152 30 L6171 28 L6190 27 L6211 25 L6236 23 L6250 21 L6267 19 L6287 18 L6306 16 L6326 14 L6345 13 L6365 11 L6385 10 L6403 8 L6422 6 L6443 5 L6463 3 L6481 2 L6500 1" />
</svg>
