<svg xmlns="http://www.w3.org/2000/svg" version="1.1" viewBox="0 0 6500 1000">
	<path fill="none" stroke="gold" stroke-width="125" stroke-linecap="round" stroke-linejoin="round" d="M0 67199  L-398602 67199 L-395998 67099 L-394330 67000 L-376001 66800 L-375831 66601 L-368673 66402 L-368640 66402 L-355209 66303 L-352287 66402 L-338946 66104 L-334777 65706 L-333617 65208 L-332998 64711 L-330986 64412 L-327214 64213 L-326614 64014 L-326286 63815 L-326073 63616 L-325531 63417 L-324293 62621 L-323114 61825 L-320249 61029 L-319727 60233 L-314872 60034 L-311934 59835 L-311892 59636 L-311583 59437 L-311331 59238 L-308736 59039 L-304481 59039 L-304463 59039 L-303226 59039 L-301349 59039 L-299395 58840 L-298447 58641 L-298176 58442 L-297867 58343 L-297769 58243 L-296938 58243 L-294907 58343 L-294617 57447 L-292471 57049 L-292315 56452 L-288659 55855 L-288408 56154 L-288309 56054 L-287792 56353 L-285641 56850 L-284712 57348 L-283186 57845 L-281946 57845 L-280400 57746 L-277438 57547 L-276316 57348 L-276007 57149 L-274796 57049 L-271789 58144 L-271770 58044 L-271422 57945 L-271209 57845 L-271083 56452 L-270841 56253 L-270803 56054 L-270784 55855 L-270764 55656 L-270706 55457 L-270647 55258 L-270629 55059 L-270186 54860 L-268946 54661 L-267401 54462 L-264013 54263 L-258287 54164 L-258085 54064 L-256449 53965 L-254727 53865 L-253295 53766 L-253063 53666 L-252348 53567 L-246215 53467 L-245848 53268 L-245693 53069 L-245115 52870 L-244822 52671 L-243855 52472 L-243545 52273 L-242946 52074 L-241340 52074 L-240605 52074 L-240295 52174 L-239527 52174 L-237491 51975 L-237066 51776 L-236253 51676 L-228824 51477 L-228301 51278 L-228128 51079 L-227393 50880 L-225825 50681 L-225419 50582 L-223194 50383 L-222246 50283 L-221822 50184 L-221491 50184 L-220447 50084 L-218339 49885 L-218087 49686 L-217468 49487 L-216656 49388 L-214548 49189 L-214499 48990 L-212571 48791 L-212245 48592 L-212110 48393 L-211607 48293 L-210194 48094 L-209691 47696 L-209170 47398 L-205610 47000 L-204875 46601 L-202450 46601 L-201161 46402 L-200754 46303 L-197601 46303 L-197446 46303 L-197426 46402 L-197060 46402 L-195801 46502 L-195086 46601 L-194196 46601 L-193789 46601 L-192861 46601 L-191752 46502 L-191449 46900 L-185200 47099 L-184253 47298 L-182627 47497 L-182125 47597 L-178449 47696 L-177617 47796 L-173664 47895 L-172252 47597 L-169763 47398 L-169086 47199 L-169047 47099 L-168177 47099 L-164965 47000 L-162102 46900 L-161134 46800 L-160013 46601 L-159994 46402 L-158369 46203 L-157905 45905 L-157813 45805 L-151444 45706 L-150495 45606 L-148038 45507 L-147166 45308 L-145930 45208 L-143928 45109 L-143531 44910 L-142094 44711 L-140068 44611 L-139855 44412 L-138675 44313 L-137167 44213 L-137146 44114 L-135134 44014 L-134265 43815 L-133394 43716 L-132809 43517 L-132272 43318 L-131614 43119 L-130376 42920 L-129815 42820 L-128634 42721 L-127397 42621 L-127358 42522 L-126971 42422 L-126430 42223 L-125656 42124 L-124534 42024 L-122444 41825 L-122111 41626 L-121825 41427 L-120897 41328 L-120414 41129 L-119678 41029 L-116047 40930 L-114919 40830 L-114764 40731 L-113738 40532 L-110024 40432 L-108806 40233 L-106988 40034 L-104202 39935 L-103641 39736 L-99753 39736 L-97276 39636 L-95941 39636 L-95438 39537 L-94955 39437 L-92266 39437 L-88494 39437 L-86037 39437 L-84857 39437 L-84218 39338 L-81858 39139 L-81781 39039 L-80733 38940 L-80640 38741 L-80137 38741 L-79691 38741 L-79634 38741 L-79420 38741 L-76461 38542 L-73753 38442 L-73598 38343 L-70077 38243 L-69554 38044 L-68587 37845 L-68238 37746 L-67194 37547 L-66266 37348 L-65840 37248 L-64331 37248 L-63364 37149 L-63345 37049 L-61449 29786 L-61333 22323 L-61285 14960 L-61261 7597 L-58257 7497 L-56226 7298 L-54465 7199 L-54098 7099 L-53653 6900 L-53286 6800 L-52872 6601 L-50887 6502 L-50674 6502 L-50519 6402 L-48913 6402 L-47792 6303 L-46843 6203 L-45586 6004 L-43941 5905 L-42762 5706 L-36172 5606 L-36126 5507 L-35720 5407 L-34675 5308 L-34540 5208 L-32857 5009 L-32837 4910 L-31500 4711 L-30264 4611 L-30110 4512 L-29736 4313 L-29530 4213 L-29220 4114 L-28446 3915 L-26125 3815 L-25467 3716 L-23339 3616 L-21617 3517 L-21423 3318 L-18870 3218 L-18594 3019 L-18406 2820 L-17573 2721 L-16801 2621 L-16103 2522 L-11102 2522 L-10726 2323 L-6473 2223 L-5986 12074 L-5967 12074 L-5888 11975 L-5812 11875 L-5793 1726 L-4980 1626 L-4226 1427 L-3007 1328 L-1575 1328 L-1479 1228 L-1304 1228 L-950 1029 L358 930 L2216 830 L3918 631 L4421 532 L4686 432 L5079 333 L5213 233 L6123 134 L6500 34" />
</svg>
