<svg xmlns="http://www.w3.org/2000/svg" version="1.1" viewBox="0 0 6500 1000">
	<path fill="none" stroke="gold" stroke-width="125" stroke-linecap="round" stroke-linejoin="round" d="M0 3693  L-724890 3693 L-722286 3693 L-720618 3692 L-702289 3692 L-702118 3692 L-694961 3691 L-694928 3691 L-681497 3691 L-678575 3691 L-665234 3691 L-661065 3690 L-659905 3689 L-659286 3689 L-657274 3688 L-653502 3688 L-652902 3687 L-652573 3687 L-652360 3687 L-651819 3686 L-650581 3685 L-649402 3684 L-646537 3682 L-646015 3681 L-641159 3681 L-638222 3680 L-638179 3680 L-637871 3680 L-637619 3679 L-635024 3679 L-630769 3679 L-630751 3679 L-629514 3679 L-627636 3679 L-625683 3679 L-624735 3678 L-624464 3678 L-624154 3678 L-624056 3678 L-623226 3678 L-621195 3678 L-620905 3676 L-618758 3676 L-618603 3675 L-614946 3674 L-614695 3674 L-614597 3674 L-614080 3674 L-611929 3675 L-611000 3676 L-609474 3677 L-608234 3677 L-606688 3677 L-603726 3676 L-602604 3676 L-602295 3676 L-601084 3676 L-598077 3677 L-598057 3677 L-597710 3677 L-597497 3677 L-597371 3675 L-597129 3674 L-597091 3674 L-597071 3674 L-597052 3673 L-596993 3673 L-596935 3673 L-596917 3672 L-596474 3672 L-595234 3672 L-593688 3671 L-590301 3671 L-584574 3671 L-584373 3671 L-582737 3670 L-581015 3670 L-579583 3670 L-579351 3670 L-578635 3670 L-572503 3670 L-572135 3669 L-571981 3669 L-571403 3669 L-571110 3668 L-570143 3668 L-569833 3668 L-569234 3667 L-567628 3667 L-566893 3667 L-566583 3667 L-565815 3667 L-563779 3667 L-563353 3667 L-562541 3667 L-555112 3666 L-554589 3666 L-554416 3666 L-553681 3665 L-552113 3665 L-551707 3665 L-549482 3664 L-548534 3664 L-548109 3664 L-547779 3664 L-546735 3664 L-544627 3664 L-544375 3663 L-543756 3663 L-542943 3663 L-540835 3662 L-540787 3662 L-538859 3662 L-538533 3661 L-538398 3661 L-537895 3661 L-536482 3661 L-535979 3660 L-535457 3659 L-531898 3659 L-531163 3658 L-528738 3658 L-527448 3658 L-527042 3658 L-523889 3658 L-523734 3658 L-523714 3658 L-523347 3658 L-522089 3658 L-521374 3658 L-520484 3658 L-520077 3658 L-519149 3658 L-518040 3658 L-517737 3659 L-511488 3659 L-510541 3659 L-508914 3660 L-508413 3660 L-504737 3660 L-503905 3660 L-499952 3660 L-498540 3660 L-496050 3659 L-495374 3659 L-495335 3659 L-494464 3659 L-491253 3659 L-488390 3659 L-487422 3658 L-486301 3658 L-486282 3658 L-484657 3657 L-484192 3657 L-484101 3657 L-477731 3657 L-476783 3656 L-474326 3656 L-473453 3656 L-472217 3656 L-470216 3656 L-469819 3655 L-468382 3655 L-466356 3655 L-466143 3654 L-464963 3654 L-463454 3654 L-463434 3654 L-461422 3654 L-460552 3653 L-459682 3653 L-459097 3653 L-458560 3653 L-457902 3652 L-456664 3652 L-456103 3652 L-454922 3652 L-453684 3651 L-453646 3651 L-453259 3651 L-452717 3651 L-451944 3651 L-450821 3650 L-448732 3650 L-448399 3650 L-448113 3649 L-447184 3649 L-446701 3649 L-445966 3649 L-442335 3649 L-441207 3648 L-441052 3648 L-440026 3648 L-436312 3648 L-435094 3647 L-433276 3647 L-430490 3647 L-429929 3647 L-426041 3647 L-423564 3646 L-422229 3646 L-421726 3646 L-421243 3646 L-418553 3646 L-414782 3646 L-412325 3646 L-411145 3646 L-410506 3646 L-408146 3646 L-408069 3645 L-407021 3645 L-406927 3645 L-406425 3645 L-405979 3645 L-405922 3645 L-405708 3645 L-402748 3645 L-400041 3644 L-399886 3644 L-396365 3644 L-395842 3644 L-394875 3643 L-394526 3643 L-393482 3643 L-392554 3643 L-392128 3642 L-390619 3642 L-389652 3642 L-389633 3642 L-387737 3630 L-387621 3617 L-387573 3605 L-387549 3593 L-384545 3592 L-382514 3592 L-380753 3592 L-380386 3592 L-379940 3591 L-379573 3591 L-379160 3591 L-377175 3591 L-376961 3591 L-376806 3590 L-375201 3590 L-374079 3590 L-373131 3590 L-371874 3590 L-370229 3590 L-369050 3589 L-362460 3589 L-362414 3589 L-362008 3589 L-360963 3589 L-360827 3588 L-359145 3588 L-359125 3588 L-357788 3588 L-356552 3587 L-356398 3587 L-356024 3587 L-355817 3587 L-355508 3587 L-354734 3586 L-352413 3586 L-351755 3586 L-349627 3586 L-347905 3586 L-347711 3585 L-345158 3585 L-344881 3585 L-344693 3584 L-343861 3584 L-343088 3584 L-342390 3584 L-337390 3584 L-337014 3584 L-332761 3583 L-332274 3600 L-332255 3600 L-332176 3600 L-332100 3600 L-332080 3583 L-331268 3582 L-330514 3582 L-329295 3582 L-327863 3582 L-327767 3582 L-327592 3582 L-327238 3581 L-325928 3581 L-324071 3581 L-322369 3581 L-321866 3581 L-321601 3580 L-321208 3580 L-321073 3580 L-320164 3580 L-319787 3580 L-318859 3580 L-318520 3580 L-318480 3580 L-318442 3579 L-316527 3579 L-316353 3579 L-314824 3579 L-314496 3579 L-314380 3579 L-313973 3579 L-313625 3578 L-311981 3578 L-311430 3578 L-311187 3578 L-310646 3578 L-309814 3577 L-309273 3577 L-307738 3577 L-307646 3577 L-307609 3576 L-307473 3576 L-307086 3576 L-306061 3576 L-304185 3576 L-304088 3576 L-303488 3581 L-303121 3587 L-302636 3593 L-302598 3598 L-301824 3599 L-301767 3598 L-301592 3598 L-301399 3598 L-299794 3598 L-299774 3597 L-299618 3598 L-299503 3598 L-298323 3598 L-298169 3599 L-297502 3599 L-295054 3612 L-292539 3626 L-289869 3640 L-282170 3653 L-276502 3653 L-274287 3653 L-274264 3653 L-273290 3657 L-273270 3657 L-272407 3656 L-269666 3656 L-263868 3653 L-263714 3652 L-260929 3652 L-247320 3652 L-246574 3652 L-242164 3651 L-225817 3651 L-225585 3651 L-225048 3651 L-216589 3650 L-207883 3650 L-207671 3650 L-205698 3650 L-202912 3650 L-198425 3650 L-198270 3650 L-198101 3650 L-197960 3650 L-197670 3649 L-197631 3649 L-197360 3649 L-197188 3649 L-196778 3649 L-195658 3649 L-194478 3648 L-193201 3648 L-190337 3648 L-187417 3648 L-185425 3648 L-183877 3647 L-180839 3647 L-171515 3647 L-170991 3647 L-165267 3647 L-163760 3647 L-162945 3647 L-161262 3646 L-160541 3646 L-160372 3646 L-159327 3646 L-157260 3646 L-155898 3646 L-151454 3645 L-151357 3645 L-151318 3645 L-151300 3645 L-150467 3645 L-150389 3644 L-147817 3644 L-144568 3644 L-144413 3644 L-143464 3644 L-141723 3643 L-141008 3644 L-137467 3645 L-130890 3646 L-129473 3648 L-129452 3647 L-128501 3647 L-125027 3647 L-124274 3647 L-123712 3647 L-122930 3646 L-115426 3646 L-113827 3646 L-112253 3646 L-109068 3646 L-104735 3646 L-96165 3645 L-87419 3645 L-84345 3645 L-81079 3645 L-80533 3645 L-73395 3645 L-67728 3645 L-53663 3645 L-47652 3645 L-42946 3645 L-38942 3644 L-33835 3644 L-24121 3644 L-8550 3644 L-5468 3643 L-5165 3568 L-5146 3475 L-5127 3370 L-5107 3252 L-5088 3199 L-5068 3153 L-5050 3112 L-5022 3071 L-5001 3031 L-4973 2989 L-4938 2942 L-4924 2903 L-4911 2869 L-4893 2841 L-4874 2820 L-4854 2799 L-4836 2777 L-4816 2756 L-4797 2735 L-4775 2712 L-4759 2691 L-4740 2669 L-4719 2649 L-4699 2628 L-4681 2606 L-4662 2583 L-4643 2559 L-4622 2536 L-4604 2513 L-4585 2492 L-4564 2472 L-4539 2451 L-4525 2432 L-4507 2413 L-4488 2393 L-4468 2374 L-4449 2354 L-4430 2333 L-4410 2313 L-4390 2294 L-4372 2275 L-4353 2258 L-4332 2242 L-4312 2227 L-4295 2213 L-4276 2200 L-4256 2188 L-4237 2176 L-4217 2164 L-4198 2153 L-4178 2144 L-4159 2135 L-4140 2126 L-4121 2117 L-4094 2106 L-4073 2094 L-4045 2081 L-4011 2067 L-3997 2055 L-3984 2045 L-3965 2035 L-3946 2027 L-3926 2018 L-3908 2008 L-3888 1999 L-3868 1989 L-3848 1980 L-3830 1972 L-3811 1962 L-3791 1953 L-3771 1943 L-3753 1931 L-3734 1918 L-3714 1905 L-3694 1892 L-3676 1879 L-3657 1865 L-3636 1850 L-3611 1834 L-3596 1817 L-3579 1802 L-3560 1787 L-3540 1772 L-3521 1756 L-3502 1739 L-3482 1723 L-3462 1707 L-3443 1692 L-3425 1677 L-3404 1663 L-3384 1649 L-3366 1635 L-3347 1623 L-3327 1610 L-3308 1600 L-3289 1588 L-3270 1577 L-3250 1566 L-3231 1555 L-3211 1544 L-3192 1533 L-3164 1522 L-3144 1512 L-3116 1501 L-3079 1489 L-3064 1477 L-3051 1465 L-3034 1455 L-3017 1447 L-2997 1440 L-2979 1433 L-2960 1427 L-2940 1421 L-2919 1415 L-2902 1408 L-2883 1400 L-2862 1392 L-2843 1385 L-2824 1376 L-2806 1367 L-2786 1358 L-2766 1348 L-2747 1337 L-2728 1328 L-2707 1318 L-2683 1308 L-2668 1299 L-2651 1289 L-2631 1279 L-2612 1269 L-2592 1259 L-2573 1248 L-2553 1237 L-2533 1227 L-2515 1217 L-2496 1208 L-2476 1198 L-2455 1190 L-2438 1182 L-2419 1173 L-2399 1165 L-2380 1156 L-2360 1148 L-2341 1140 L-2321 1132 L-2302 1124 L-2283 1117 L-2264 1109 L-2236 1101 L-2215 1093 L-2188 1084 L-2151 1072 L-2137 1060 L-2124 1049 L-2107 1040 L-2088 1034 L-2069 1027 L-2050 1019 L-2030 1011 L-2011 1003 L-1989 993 L-1971 983 L-1954 973 L-1934 962 L-1913 951 L-1895 939 L-1876 926 L-1857 913 L-1836 902 L-1818 891 L-1799 881 L-1778 874 L-1753 868 L-1739 862 L-1721 856 L-1702 850 L-1682 843 L-1663 836 L-1644 830 L-1625 824 L-1604 819 L-1586 814 L-1567 808 L-1547 801 L-1526 792 L-1509 784 L-1490 778 L-1470 773 L-1451 769 L-1432 765 L-1413 761 L-1393 757 L-1373 753 L-1354 748 L-1335 744 L-1308 739 L-1287 735 L-1259 731 L-1224 725 L-1211 720 L-1197 716 L-1179 713 L-1160 710 L-1140 706 L-1122 703 L-1102 700 L-1082 697 L-1061 693 L-1044 690 L-1026 687 L-1005 683 L-985 679 L-967 675 L-948 672 L-928 669 L-908 665 L-890 662 L-871 659 L-850 656 L-825 653 L-810 650 L-793 647 L-774 644 L-754 641 L-735 638 L-716 634 L-696 630 L-675 627 L-658 623 L-639 620 L-618 617 L-598 614 L-580 612 L-561 608 L-541 606 L-523 603 L-503 600 L-484 598 L-464 596 L-445 594 L-426 592 L-407 595 L-378 599 L-358 602 L-330 605 L-293 602 L-278 600 L-265 597 L-248 596 L-231 594 L-211 592 L-193 590 L-173 588 L-154 586 L-132 585 L-116 583 L-97 582 L-77 580 L-56 578 L-38 576 L-20 574 L0 572 L19 570 L38 568 L57 566 L78 565 L103 563 L117 561 L134 559 L154 557 L173 555 L193 553 L212 551 L232 549 L252 546 L270 543 L289 541 L309 538 L330 536 L347 534 L366 531 L386 529 L405 527 L425 524 L444 522 L463 519 L483 517 L502 515 L521 513 L548 511 L569 509 L597 506 L632 504 L646 501 L659 499 L678 497 L696 495 L716 494 L734 492 L754 490 L774 487 L795 485 L812 483 L830 481 L851 479 L871 476 L889 474 L908 470 L928 467 L948 464 L966 461 L985 458 L1006 456 L1031 452 L1046 450 L1063 446 L1082 444 L1102 441 L1121 438 L1140 434 L1160 432 L1181 429 L1198 426 L1218 424 L1238 421 L1259 419 L1276 417 L1295 414 L1315 413 L1334 411 L1353 409 L1372 407 L1392 406 L1412 404 L1431 403 L1450 402 L1477 400 L1498 398 L1526 397 L1561 394 L1575 391 L1588 388 L1607 385 L1625 383 L1645 381 L1663 379 L1683 378 L1702 376 L1723 374 L1740 372 L1759 370 L1780 367 L1800 365 L1818 363 L1837 360 L1856 358 L1877 355 L1895 353 L1914 351 L1935 350 L1960 348 L1975 346 L1992 344 L2011 342 L2031 340 L2050 337 L2069 335 L2089 331 L2110 328 L2127 325 L2146 322 L2167 320 L2187 318 L2204 316 L2223 314 L2243 313 L2262 312 L2282 310 L2301 309 L2321 307 L2340 306 L2359 304 L2378 303 L2405 301 L2426 300 L2454 299 L2488 297 L2502 296 L2516 295 L2534 293 L2553 292 L2573 291 L2591 290 L2611 289 L2631 288 L2651 287 L2669 286 L2688 285 L2708 283 L2728 282 L2746 281 L2765 280 L2785 279 L2805 278 L2823 277 L2842 276 L2863 276 L2888 274 L2903 273 L2920 272 L2939 271 L2959 270 L2978 269 L2997 268 L3017 266 L3038 264 L3055 262 L3074 259 L3095 257 L3115 255 L3133 253 L3152 252 L3172 250 L3191 249 L3210 247 L3229 245 L3249 244 L3268 243 L3288 242 L3307 241 L3335 240 L3383 239 L3420 237 L3435 236 L3447 235 L3464 234 L3482 233 L3501 233 L3520 232 L3539 231 L3559 230 L3580 229 L3597 228 L3616 228 L3636 227 L3656 226 L3675 225 L3693 224 L3714 223 L3733 222 L3752 221 L3771 219 L3792 218 L3816 216 L3831 214 L3848 212 L3868 210 L3887 209 L3907 207 L3926 206 L3946 204 L3966 202 L3984 201 L4003 199 L4023 198 L4044 196 L4061 195 L4080 194 L4100 193 L4119 192 L4139 191 L4158 189 L4178 188 L4197 187 L4217 186 L4235 184 L4264 183 L4284 182 L4312 180 L4348 178 L4363 175 L4376 172 L4393 170 L4410 169 L4431 168 L4449 167 L4469 166 L4488 165 L4510 164 L4526 163 L4545 161 L4565 160 L4586 158 L4604 156 L4623 153 L4642 151 L4663 149 L4681 147 L4700 145 L4721 143 L4746 141 L4761 140 L4779 138 L4797 137 L4817 135 L4836 134 L4855 132 L4875 130 L4896 128 L4913 126 L4932 125 L4952 123 L4973 122 L4990 120 L5009 119 L5029 118 L5048 117 L5067 115 L5086 114 L5106 113 L5126 111 L5145 111 L5164 109 L5192 997 L5212 995 L5240 994 L5276 992 L5290 101 L5303 100 L5321 98 L5339 97 L5359 97 L5377 96 L5397 95 L5417 93 L5438 91 L5455 90 L5473 88 L5494 86 L5514 84 L5532 81 L5551 79 L5571 76 L5592 75 L5609 73 L5628 72 L5650 70 L5674 68 L5690 66 L5719 64 L5759 61 L5782 59 L5811 56 L5828 53 L5841 51 L5861 49 L5881 48 L5902 47 L5919 46 L5938 44 L5958 43 L5977 42 L5996 41 L6015 41 L6035 40 L6055 39 L6074 37 L6092 36 L6120 35 L6141 34 L6169 33 L6204 31 L6217 30 L6249 29 L6268 27 L6288 27 L6306 26 L6326 25 L6345 24 L6366 23 L6383 22 L6402 20 L6423 17 L6443 13 L6461 9 L6480 5 L6500 1" />
</svg>
