<svg xmlns="http://www.w3.org/2000/svg" version="1.1" viewBox="0 0 6500 1000">
	<path fill="none" stroke="gold" stroke-width="125" stroke-linecap="round" stroke-linejoin="round" d="M0 1050  L-713650 1050 L-711046 1050 L-709378 1050 L-691048 1049 L-690878 1049 L-683720 1049 L-683687 1049 L-670256 1048 L-667334 1049 L-653993 1048 L-649824 1047 L-648664 1046 L-648045 1046 L-646033 1045 L-642261 1045 L-641661 1044 L-641333 1044 L-641120 1044 L-640578 1043 L-639340 1042 L-638161 1041 L-635297 1039 L-634774 1038 L-629919 1038 L-626982 1037 L-626939 1037 L-626630 1037 L-626378 1036 L-623784 1036 L-619528 1036 L-619510 1036 L-618273 1036 L-616396 1036 L-614442 1035 L-613494 1035 L-613224 1035 L-612914 1035 L-612816 1034 L-611985 1034 L-609954 1035 L-609664 1033 L-607518 1032 L-607362 1031 L-603706 1030 L-603455 1031 L-603356 1031 L-602839 1031 L-600688 1032 L-599759 1033 L-598233 1034 L-596994 1034 L-595447 1034 L-592485 1033 L-591364 1033 L-591054 1033 L-589843 1032 L-586836 1034 L-586817 1034 L-586469 1034 L-586256 1034 L-586130 1031 L-585889 1031 L-585851 1031 L-585831 1030 L-585812 1030 L-585753 1030 L-585694 1029 L-585676 1029 L-585233 1029 L-583994 1028 L-582448 1028 L-579060 1028 L-573334 1027 L-573132 1027 L-571496 1027 L-569775 1027 L-568342 1027 L-568110 1027 L-567395 1026 L-561263 1026 L-560895 1026 L-560740 1026 L-560162 1025 L-559870 1025 L-558902 1025 L-558593 1024 L-557994 1024 L-556387 1024 L-555652 1024 L-555342 1024 L-554574 1024 L-552538 1024 L-552113 1023 L-551300 1023 L-543872 1023 L-543349 1022 L-543175 1022 L-542440 1022 L-540872 1021 L-540467 1021 L-538242 1021 L-537294 1021 L-536869 1021 L-536538 1021 L-535495 1020 L-533387 1020 L-533134 1020 L-532515 1019 L-531703 1019 L-529595 1019 L-529546 1018 L-527618 1018 L-527292 1018 L-527157 1017 L-526654 1017 L-525242 1017 L-524739 1016 L-524217 1016 L-520657 1015 L-519922 1014 L-517497 1014 L-516208 1014 L-515801 1014 L-512648 1014 L-512494 1014 L-512473 1014 L-512107 1014 L-510849 1014 L-510134 1014 L-509244 1014 L-508837 1014 L-507908 1014 L-506799 1014 L-506496 1015 L-500247 1015 L-499300 1016 L-497674 1016 L-497172 1016 L-493496 1016 L-492664 1016 L-488711 1017 L-487299 1016 L-484810 1016 L-484133 1015 L-484095 1015 L-483224 1015 L-480013 1015 L-477149 1015 L-476182 1015 L-475060 1014 L-475041 1014 L-473416 1014 L-472952 1013 L-472860 1013 L-466491 1013 L-465542 1013 L-463085 1012 L-462213 1012 L-460977 1012 L-458975 1012 L-458578 1011 L-457142 1011 L-455116 1011 L-454902 1011 L-453722 1010 L-452214 1010 L-452194 1010 L-450181 1010 L-449312 1010 L-448441 1009 L-447856 1009 L-447319 1009 L-446661 1008 L-445423 1008 L-444863 1008 L-443681 1008 L-442444 1008 L-442405 1007 L-442018 1007 L-441477 1007 L-440703 1007 L-439581 1006 L-437492 1006 L-437158 1006 L-436872 1005 L-435944 1005 L-435461 1005 L-434725 1005 L-431094 1005 L-429966 1004 L-429812 1004 L-428786 1004 L-425071 1004 L-423854 1003 L-422035 1003 L-419249 1003 L-418688 1003 L-414800 1003 L-412324 1002 L-410989 1002 L-410485 1002 L-410002 1002 L-407313 1002 L-403541 1002 L-401084 1002 L-399904 1002 L-399265 1002 L-396905 1002 L-396828 1001 L-395780 1001 L-395687 1001 L-395184 1001 L-394739 1001 L-394681 1001 L-394467 1001 L-391508 1000 L-388800 1000 L-388645 1000 L-385124 1000 L-384602 1000 L-383634 999 L-383285 999 L-382242 999 L-381313 998 L-380887 998 L-379378 998 L-378411 998 L-378392 998 L-376496 985 L-376380 972 L-376332 960 L-376308 947 L-373304 947 L-371273 947 L-369512 946 L-369145 946 L-368700 946 L-368333 946 L-367919 945 L-365934 945 L-365721 945 L-365566 945 L-363961 945 L-362839 945 L-361891 945 L-360633 944 L-358989 944 L-357809 944 L-351220 944 L-351173 943 L-350767 943 L-349722 943 L-349587 943 L-347904 943 L-347884 942 L-346547 942 L-345311 942 L-345157 942 L-344783 941 L-344577 941 L-344267 941 L-343494 941 L-341172 941 L-340514 940 L-338386 940 L-336664 940 L-336471 940 L-333917 940 L-333641 939 L-333453 939 L-332620 939 L-331848 939 L-331150 938 L-326149 938 L-325773 938 L-321520 938 L-321033 955 L-321014 955 L-320935 955 L-320860 954 L-320840 937 L-320027 937 L-319273 936 L-318054 936 L-316622 936 L-316526 936 L-316352 936 L-315997 936 L-314688 936 L-312831 935 L-311128 935 L-310625 935 L-310360 935 L-309967 935 L-309833 934 L-308923 934 L-308547 934 L-307618 934 L-307279 934 L-307239 934 L-307202 934 L-305286 934 L-305113 934 L-303584 934 L-303256 933 L-303140 933 L-302732 933 L-302384 933 L-300741 932 L-300190 932 L-299947 932 L-299405 932 L-298574 931 L-298032 931 L-296498 931 L-296405 931 L-296368 931 L-296233 930 L-295845 930 L-294821 930 L-292944 930 L-292848 930 L-292247 935 L-291880 941 L-291396 947 L-291358 953 L-290584 953 L-290526 953 L-290352 953 L-290158 953 L-288553 952 L-288533 952 L-288378 952 L-288262 953 L-287083 953 L-286928 953 L-286261 953 L-283813 967 L-281298 982 L-278628 996 L-270929 1010 L-265261 1010 L-263047 1009 L-263023 1009 L-262050 1013 L-262030 1013 L-261166 1012 L-258426 1012 L-252627 1009 L-252474 1008 L-249688 1008 L-236080 1008 L-235334 1008 L-230923 1007 L-214577 1007 L-214345 1007 L-213808 1007 L-205348 1006 L-196643 1006 L-196430 1006 L-194458 1006 L-191672 1006 L-187184 1006 L-187029 1006 L-186860 1006 L-186720 1006 L-186429 1005 L-186390 1005 L-186120 1005 L-185948 1005 L-185538 1005 L-184417 1005 L-183237 1004 L-181960 1004 L-179096 1004 L-176176 1004 L-174184 1004 L-172636 1003 L-169598 1003 L-160274 1003 L-159750 1003 L-154026 1003 L-152519 1003 L-151704 1003 L-150021 1002 L-149300 1002 L-149131 1002 L-148086 1002 L-146019 1002 L-144657 1002 L-140214 1001 L-140116 1001 L-140078 1001 L-140059 1001 L-139226 1001 L-139149 1000 L-136576 1000 L-133327 1000 L-133172 1000 L-132224 1000 L-130483 999 L-129767 1000 L-126227 1001 L-119649 1002 L-118232 1004 L-118211 1003 L-117261 1003 L-113786 1003 L-113033 1003 L-112471 1003 L-111689 1002 L-104185 1002 L-102587 1002 L-101013 1002 L-97827 1002 L-93494 1002 L-84925 1001 L-76178 1001 L-73104 1001 L-69838 1001 L-69292 1001 L-62155 1000 L-56487 1000 L-42423 1000 L-36411 1001 L-31705 1000 L-27702 1000 L-22594 1000 L-12880 1000 L2689 999 L5772 999 L6074 922 L6094 827 L6113 719 L6132 598 L6152 543 L6171 496 L6190 454 L6218 412 L6238 371 L6266 328 L6302 280 L6315 239 L6328 205 L6347 176 L6365 154 L6385 133 L6404 111 L6423 89 L6443 67 L6464 44 L6481 22 L6500 0" />
</svg>
