<svg xmlns="http://www.w3.org/2000/svg" version="1.1" viewBox="0 0 6500 1000">
	<path fill="none" stroke="gold" stroke-width="125" stroke-linecap="round" stroke-linejoin="round" d="M0 14422  L-181908 14422 L-179304 14347 L-177636 14272 L-159306 14122 L-159136 13972 L-151978 13822 L-151945 13822 L-138514 13746 L-135592 13822 L-122251 13596 L-118082 13296 L-116922 12921 L-116303 12545 L-114291 12320 L-110519 12170 L-109919 12020 L-109591 11870 L-109378 11719 L-108836 11569 L-107598 10969 L-106419 10368 L-103555 9768 L-103032 9167 L-98177 9017 L-95240 8867 L-95197 8716 L-94888 8566 L-94636 8416 L-92041 8266 L-87786 8266 L-87768 8266 L-86531 8266 L-84654 8266 L-82700 8116 L-81752 7966 L-81482 7816 L-81172 7740 L-81074 7665 L-80243 7665 L-78212 7740 L-77922 7065 L-75776 6765 L-75620 6314 L-71964 5864 L-71713 6089 L-71614 6014 L-71097 6239 L-68946 6614 L-68017 6990 L-66491 7365 L-65252 7365 L-63705 7290 L-60743 7140 L-59621 6990 L-59312 6840 L-58101 6765 L-55094 7590 L-55075 7515 L-54727 7440 L-54514 7365 L-54388 6314 L-54146 6164 L-54109 6014 L-54089 5864 L-54070 5713 L-54011 5563 L-53952 5413 L-53934 5263 L-53491 5113 L-52252 4963 L-50706 4813 L-47318 4662 L-41592 4587 L-41390 4512 L-39754 4437 L-38032 4362 L-36600 4287 L-36368 4212 L-35653 4137 L-29521 4062 L-29153 3912 L-28998 3762 L-28420 3611 L-28127 3461 L-27160 3311 L-26851 3161 L-26252 3011 L-24645 3011 L-23910 3011 L-23600 3086 L-22832 3086 L-20796 2936 L-20371 2786 L-19558 2710 L-12130 2560 L-11606 2410 L-11433 2260 L-10698 2110 L-9130 1960 L-8725 1885 L-6500 1734 L-5552 1659 L-5127 1584 L-4796 1584 L-3753 1509 L-1644 1359 L-1392 1209 L-773 1059 L38 984 L2146 834 L2195 683 L4123 533 L4449 383 L4584 233 L5087 158 L6500 8" />
</svg>
