<svg xmlns="http://www.w3.org/2000/svg" version="1.1" viewBox="0 0 6500 1000">
	<path fill="none" stroke="gold" stroke-width="125" stroke-linecap="round" stroke-linejoin="round" d="M0 1032  L-714250 1032 L-711646 1032 L-709978 1032 L-691649 1031 L-691478 1031 L-684321 1031 L-684287 1031 L-670856 1031 L-667935 1031 L-654594 1031 L-650425 1030 L-649265 1030 L-648646 1029 L-646634 1029 L-642862 1029 L-642262 1028 L-641933 1028 L-641720 1028 L-641178 1028 L-639940 1027 L-638761 1026 L-635897 1025 L-635375 1024 L-630519 1024 L-627582 1024 L-627539 1023 L-627231 1023 L-626979 1023 L-624384 1023 L-620129 1023 L-620111 1023 L-618874 1023 L-616996 1023 L-615043 1023 L-614095 1022 L-613824 1022 L-613514 1022 L-613416 1022 L-612586 1022 L-610555 1022 L-610265 1021 L-608118 1021 L-607963 1020 L-604306 1019 L-604055 1020 L-603957 1020 L-603440 1020 L-601288 1020 L-600360 1021 L-598834 1022 L-597594 1022 L-596048 1021 L-593086 1021 L-591964 1021 L-591655 1021 L-590444 1021 L-587437 1022 L-587417 1022 L-587070 1022 L-586857 1022 L-586731 1020 L-586489 1020 L-586451 1020 L-586431 1019 L-586412 1019 L-586353 1019 L-586295 1019 L-586277 1018 L-585833 1018 L-584594 1018 L-583048 1018 L-579661 1018 L-573934 1017 L-573733 1017 L-572097 1017 L-570375 1017 L-568943 1017 L-568711 1017 L-567995 1017 L-561863 1017 L-561495 1016 L-561341 1016 L-560763 1016 L-560470 1016 L-559503 1016 L-559193 1015 L-558594 1015 L-556988 1015 L-556253 1015 L-555943 1015 L-555175 1015 L-553139 1015 L-552713 1015 L-551901 1015 L-544472 1014 L-543949 1014 L-543775 1014 L-543040 1014 L-541473 1014 L-541067 1013 L-538842 1013 L-537894 1013 L-537469 1013 L-537139 1013 L-536095 1013 L-533987 1013 L-533735 1012 L-533116 1012 L-532303 1012 L-530195 1012 L-530147 1012 L-528219 1011 L-527893 1011 L-527758 1011 L-527255 1011 L-525842 1011 L-525339 1010 L-524817 1010 L-521258 1009 L-520523 1009 L-518098 1009 L-516808 1009 L-516401 1009 L-513249 1009 L-513094 1009 L-513074 1009 L-512707 1009 L-511449 1009 L-510734 1009 L-509844 1009 L-509437 1009 L-508509 1009 L-507400 1009 L-507097 1009 L-500848 1010 L-499901 1010 L-498274 1010 L-497773 1010 L-494097 1010 L-493264 1010 L-489311 1010 L-487900 1010 L-485410 1010 L-484734 1010 L-484695 1010 L-483824 1010 L-480613 1009 L-477750 1009 L-476782 1009 L-475660 1009 L-475642 1009 L-474017 1009 L-473552 1008 L-473460 1008 L-467091 1008 L-466143 1008 L-463686 1008 L-462813 1008 L-461577 1008 L-459576 1007 L-459178 1007 L-457742 1007 L-455716 1007 L-455503 1007 L-454323 1007 L-452814 1006 L-452794 1006 L-450782 1006 L-449912 1006 L-449041 1006 L-448457 1006 L-447919 1005 L-447262 1005 L-446024 1005 L-445463 1005 L-444282 1005 L-443044 1005 L-443006 1005 L-442619 1004 L-442077 1004 L-441303 1004 L-440181 1004 L-438092 1004 L-437759 1004 L-437473 1003 L-436544 1003 L-436061 1003 L-435326 1003 L-431694 1003 L-430567 1003 L-430412 1003 L-429386 1002 L-425671 1002 L-424454 1002 L-422636 1002 L-419850 1002 L-419288 1001 L-415401 1001 L-412924 1001 L-411589 1001 L-411086 1001 L-410603 1001 L-407913 1001 L-404142 1001 L-401684 1001 L-400505 1001 L-399865 1001 L-397506 1001 L-397428 1001 L-396381 1001 L-396287 1000 L-395785 1000 L-395339 1000 L-395281 1000 L-395068 1000 L-392108 1000 L-389401 1000 L-389246 1000 L-385725 1000 L-385202 1000 L-384235 999 L-383886 999 L-382842 999 L-381913 999 L-381488 999 L-379979 999 L-379012 999 L-378993 998 L-377097 990 L-376981 982 L-376933 974 L-376909 966 L-373904 966 L-371874 966 L-370113 965 L-369746 965 L-369300 965 L-368933 965 L-368519 965 L-366534 965 L-366321 965 L-366166 965 L-364561 965 L-363439 964 L-362491 964 L-361234 964 L-359589 964 L-358409 964 L-351820 964 L-351773 964 L-351368 963 L-350323 963 L-350187 963 L-348505 963 L-348485 963 L-347148 963 L-345912 963 L-345757 962 L-345384 962 L-345177 962 L-344868 962 L-344094 962 L-341773 962 L-341115 962 L-338987 961 L-337264 961 L-337071 961 L-334518 961 L-334241 961 L-334053 961 L-333221 960 L-332448 960 L-331750 960 L-326750 960 L-326374 960 L-322121 960 L-321634 971 L-321614 971 L-321536 971 L-321460 971 L-321440 959 L-320628 959 L-319874 959 L-318655 959 L-317223 959 L-317127 959 L-316952 959 L-316598 959 L-315288 958 L-313431 958 L-311729 958 L-311226 958 L-310961 958 L-310567 958 L-310433 958 L-309523 958 L-309147 957 L-308219 957 L-307880 957 L-307840 957 L-307802 957 L-305887 957 L-305713 957 L-304184 957 L-303856 957 L-303740 957 L-303333 957 L-302985 957 L-301341 956 L-300790 956 L-300547 956 L-300006 956 L-299174 956 L-298633 956 L-297098 955 L-297006 955 L-296969 955 L-296833 955 L-296446 955 L-295421 955 L-293545 955 L-293448 955 L-292848 958 L-292481 962 L-291996 966 L-291958 970 L-291184 970 L-291127 970 L-290952 969 L-290759 969 L-289153 969 L-289134 969 L-288978 969 L-288863 969 L-287683 969 L-287529 970 L-286862 970 L-284413 979 L-281899 988 L-279229 997 L-271530 1006 L-265862 1006 L-263647 1006 L-263624 1006 L-262650 1008 L-262630 1008 L-261767 1008 L-259026 1008 L-253228 1005 L-253074 1005 L-250288 1005 L-236680 1005 L-235934 1005 L-231524 1005 L-215177 1004 L-214945 1004 L-214408 1004 L-205949 1004 L-197243 1004 L-197031 1004 L-195058 1004 L-192272 1004 L-187785 1004 L-187630 1004 L-187461 1004 L-187320 1004 L-187030 1003 L-186991 1003 L-186720 1003 L-186548 1003 L-186138 1003 L-185018 1003 L-183837 1003 L-182561 1003 L-179697 1002 L-176777 1002 L-174785 1002 L-173237 1002 L-170199 1002 L-160874 1002 L-160350 1002 L-154627 1002 L-153120 1002 L-152305 1002 L-150621 1001 L-149900 1001 L-149732 1001 L-148687 1001 L-146619 1001 L-145257 1001 L-140814 1001 L-140717 1001 L-140678 1000 L-140659 1000 L-139827 1000 L-139749 1000 L-137177 1000 L-133927 1000 L-133773 1000 L-132824 1000 L-131083 999 L-130368 1000 L-126827 1001 L-120250 1001 L-118832 1002 L-118812 1002 L-117861 1002 L-114387 1002 L-113634 1002 L-113072 1001 L-112290 1001 L-104786 1001 L-103187 1001 L-101613 1001 L-98428 1001 L-94095 1001 L-85525 1001 L-76779 1001 L-73705 1001 L-70439 1000 L-69892 1000 L-62755 1000 L-57088 1000 L-43023 1000 L-37012 1000 L-32306 1000 L-28302 1000 L-23195 1000 L-13481 1000 L2089 999 L5172 999 L5474 950 L5493 889 L5512 819 L5532 742 L5552 706 L5571 676 L5590 649 L5617 622 L5638 596 L5666 568 L5701 537 L5715 512 L5728 489 L5746 471 L5765 457 L5785 443 L5803 429 L5823 415 L5842 401 L5864 386 L5880 372 L5899 358 L5920 344 L5940 331 L5958 316 L5977 301 L5996 285 L6017 270 L6035 255 L6054 241 L6075 228 L6100 214 L6115 201 L6132 189 L6151 176 L6171 163 L6190 150 L6209 136 L6229 123 L6249 110 L6267 98 L6286 87 L6307 76 L6327 66 L6344 58 L6363 49 L6383 41 L6402 33 L6422 25 L6441 18 L6461 12 L6480 6 L6500 0" />
</svg>
