<svg xmlns="http://www.w3.org/2000/svg" version="1.1" viewBox="0 0 6500 1000">
	<path fill="none" stroke="gold" stroke-width="125" stroke-linecap="round" stroke-linejoin="round" d="M0 1019  L-715952 1019 L-713348 1019 L-711680 1019 L-693351 1019 L-693180 1019 L-686023 1019 L-685989 1019 L-672559 1019 L-669637 1019 L-656296 1019 L-652127 1018 L-650967 1018 L-650348 1018 L-648336 1018 L-644564 1017 L-643964 1017 L-643635 1017 L-643422 1017 L-642880 1017 L-641642 1016 L-640464 1016 L-637599 1015 L-637077 1015 L-632221 1015 L-629284 1014 L-629241 1014 L-628933 1014 L-628681 1014 L-626086 1014 L-621831 1014 L-621813 1014 L-620576 1014 L-618698 1014 L-616745 1014 L-615797 1014 L-615526 1013 L-615216 1013 L-615118 1013 L-614288 1013 L-612257 1013 L-611967 1013 L-609820 1013 L-609665 1012 L-606008 1012 L-605757 1012 L-605659 1012 L-605142 1012 L-602990 1012 L-602062 1013 L-600536 1013 L-599296 1013 L-597750 1013 L-594788 1013 L-593666 1013 L-593357 1013 L-592146 1013 L-589139 1013 L-589119 1013 L-588772 1013 L-588559 1013 L-588433 1012 L-588191 1012 L-588153 1012 L-588133 1012 L-588114 1012 L-588055 1011 L-587997 1011 L-587979 1011 L-587535 1011 L-586296 1011 L-584750 1011 L-581363 1011 L-575636 1011 L-575435 1010 L-573799 1010 L-572077 1010 L-570645 1010 L-570413 1010 L-569697 1010 L-563565 1010 L-563197 1010 L-563043 1010 L-562465 1010 L-562172 1010 L-561205 1009 L-560895 1009 L-560296 1009 L-558690 1009 L-557955 1009 L-557645 1009 L-556877 1009 L-554841 1009 L-554415 1009 L-553603 1009 L-546174 1009 L-545651 1009 L-545478 1008 L-544742 1008 L-543175 1008 L-542769 1008 L-540544 1008 L-539596 1008 L-539171 1008 L-538841 1008 L-537797 1008 L-535689 1008 L-535437 1007 L-534818 1007 L-534005 1007 L-531897 1007 L-531849 1007 L-529921 1007 L-529595 1007 L-529460 1007 L-528957 1007 L-527544 1006 L-527041 1006 L-526519 1006 L-522960 1006 L-522225 1005 L-519800 1005 L-518510 1005 L-518103 1005 L-514951 1005 L-514796 1005 L-514776 1005 L-514409 1005 L-513151 1005 L-512436 1005 L-511546 1005 L-511139 1005 L-510211 1005 L-509102 1005 L-508799 1006 L-502550 1006 L-501603 1006 L-499976 1006 L-499475 1006 L-495799 1006 L-494967 1006 L-491013 1006 L-489602 1006 L-487112 1006 L-486436 1006 L-486397 1006 L-485526 1006 L-482315 1006 L-479452 1006 L-478484 1006 L-477362 1005 L-477344 1005 L-475719 1005 L-475254 1005 L-475162 1005 L-468793 1005 L-467845 1005 L-465388 1005 L-464515 1005 L-463279 1004 L-461278 1004 L-460880 1004 L-459444 1004 L-457418 1004 L-457205 1004 L-456025 1004 L-454516 1004 L-454496 1004 L-452484 1004 L-451614 1003 L-450743 1003 L-450159 1003 L-449621 1003 L-448964 1003 L-447726 1003 L-447165 1003 L-445984 1003 L-444746 1003 L-444708 1003 L-444321 1003 L-443779 1002 L-443005 1002 L-441883 1002 L-439794 1002 L-439461 1002 L-439175 1002 L-438246 1002 L-437763 1002 L-437028 1002 L-433396 1002 L-432269 1001 L-432114 1001 L-431088 1001 L-427373 1001 L-426156 1001 L-424338 1001 L-421552 1001 L-420990 1001 L-417103 1001 L-414626 1001 L-413291 1001 L-412788 1001 L-412305 1000 L-409615 1000 L-405844 1000 L-403386 1000 L-402207 1000 L-401567 1000 L-399208 1000 L-399130 1000 L-398083 1000 L-397989 1000 L-397487 1000 L-397041 1000 L-396983 1000 L-396770 1000 L-393810 1000 L-391103 1000 L-390948 1000 L-387427 1000 L-386904 1000 L-385937 999 L-385588 999 L-384544 999 L-383615 999 L-383190 999 L-381681 999 L-380714 999 L-380695 999 L-378799 994 L-378683 989 L-378635 984 L-378611 979 L-375606 979 L-373576 979 L-371815 978 L-371448 978 L-371002 978 L-370635 978 L-370221 978 L-368236 978 L-368023 978 L-367868 978 L-366263 978 L-365141 978 L-364193 978 L-362936 978 L-361291 978 L-360112 977 L-353522 977 L-353475 977 L-353070 977 L-352025 977 L-351889 977 L-350207 977 L-350187 977 L-348850 977 L-347614 977 L-347460 977 L-347086 977 L-346879 976 L-346570 976 L-345796 976 L-343475 976 L-342817 976 L-340689 976 L-338966 976 L-338773 976 L-336220 976 L-335943 976 L-335755 976 L-334923 975 L-334150 975 L-333452 975 L-328452 975 L-328076 975 L-323823 975 L-323336 982 L-323316 982 L-323238 982 L-323162 982 L-323142 975 L-322330 975 L-321576 975 L-320357 974 L-318925 974 L-318829 974 L-318654 974 L-318300 974 L-316990 974 L-315133 974 L-313431 974 L-312928 974 L-312663 974 L-312270 974 L-312135 974 L-311225 974 L-310849 974 L-309921 974 L-309582 974 L-309542 974 L-309504 973 L-307589 973 L-307415 973 L-305886 973 L-305558 973 L-305442 973 L-305035 973 L-304687 973 L-303043 973 L-302492 973 L-302249 973 L-301708 973 L-300876 973 L-300335 973 L-298800 972 L-298708 972 L-298671 972 L-298535 972 L-298148 972 L-297123 972 L-295247 972 L-295150 972 L-294550 974 L-294183 976 L-293698 979 L-293660 981 L-292886 981 L-292829 981 L-292654 981 L-292461 981 L-290855 981 L-290836 981 L-290680 981 L-290565 981 L-289385 981 L-289231 981 L-288564 981 L-286115 987 L-283601 992 L-280931 998 L-273232 1003 L-267564 1003 L-265349 1003 L-265326 1003 L-264352 1005 L-264332 1005 L-263469 1005 L-260728 1005 L-254930 1003 L-254776 1003 L-251990 1003 L-238382 1003 L-237636 1003 L-233226 1003 L-216879 1003 L-216647 1002 L-216110 1002 L-207651 1002 L-198945 1002 L-198733 1002 L-196760 1002 L-193974 1002 L-189487 1002 L-189332 1002 L-189163 1002 L-189022 1002 L-188732 1002 L-188693 1002 L-188422 1002 L-188250 1002 L-187840 1002 L-186720 1002 L-185539 1001 L-184263 1001 L-181399 1001 L-178479 1001 L-176487 1001 L-174939 1001 L-171901 1001 L-162576 1001 L-162052 1001 L-156329 1001 L-154822 1001 L-154007 1001 L-152323 1001 L-151602 1001 L-151434 1000 L-150389 1000 L-148322 1000 L-146959 1000 L-142516 1000 L-142419 1000 L-142380 1000 L-142361 1000 L-141529 1000 L-141451 1000 L-138879 1000 L-135629 1000 L-135475 1000 L-134526 1000 L-132785 999 L-132070 1000 L-128529 1000 L-121952 1001 L-120534 1001 L-120514 1001 L-119563 1001 L-116089 1001 L-115336 1001 L-114774 1001 L-113992 1001 L-106488 1001 L-104889 1000 L-103315 1000 L-100130 1000 L-95797 1000 L-87227 1000 L-78481 1000 L-75407 1000 L-72141 1000 L-71594 1000 L-64457 1000 L-58790 1000 L-44725 1000 L-38714 1000 L-34008 1000 L-30004 1000 L-24897 1000 L-15183 1000 L387 999 L3470 999 L3772 969 L3791 931 L3810 888 L3830 841 L3850 819 L3869 800 L3888 784 L3915 767 L3936 751 L3964 734 L3999 715 L4013 699 L4026 685 L4044 674 L4063 665 L4083 657 L4101 648 L4121 639 L4140 631 L4162 621 L4178 613 L4197 604 L4218 596 L4238 587 L4256 578 L4275 569 L4294 559 L4315 550 L4333 541 L4352 532 L4373 524 L4398 515 L4413 508 L4430 500 L4449 492 L4469 484 L4488 476 L4507 467 L4527 459 L4547 451 L4565 444 L4584 437 L4605 430 L4625 424 L4642 419 L4661 414 L4681 408 L4700 404 L4720 399 L4739 394 L4759 391 L4778 387 L4797 383 L4816 380 L4843 375 L4864 371 L4892 365 L4926 359 L4940 355 L4954 350 L4972 346 L4991 343 L5011 340 L5029 336 L5049 332 L5069 328 L5089 324 L5107 321 L5126 317 L5146 313 L5166 309 L5184 304 L5203 299 L5223 294 L5243 288 L5262 283 L5280 278 L5302 271 L5326 265 L5341 258 L5358 252 L5378 246 L5397 240 L5416 233 L5435 226 L5455 220 L5476 213 L5494 207 L5513 201 L5533 195 L5553 190 L5571 184 L5590 179 L5610 174 L5629 170 L5648 165 L5667 161 L5687 156 L5706 152 L5726 147 L5745 143 L5774 138 L5793 134 L5821 130 L5858 125 L5873 120 L5886 115 L5903 111 L5920 108 L5940 105 L5958 102 L5977 100 L5997 97 L6018 95 L6035 92 L6054 89 L6075 86 L6094 82 L6113 79 L6132 75 L6152 71 L6171 67 L6190 63 L6209 59 L6230 56 L6254 51 L6269 47 L6286 43 L6306 39 L6325 35 L6345 31 L6364 27 L6384 23 L6404 18 L6422 14 L6441 11 L6461 7 L6482 3 L6500 0" />
</svg>
