<svg xmlns="http://www.w3.org/2000/svg" version="1.1" viewBox="0 0 6500 1000">
	<path fill="none" stroke="gold" stroke-width="125" stroke-linecap="round" stroke-linejoin="round" d="M0 3099  L-722143 3099 L-719539 3099 L-717871 3098 L-699541 3098 L-699371 3098 L-692213 3098 L-692180 3098 L-678749 3097 L-675827 3098 L-662486 3097 L-658317 3097 L-657157 3096 L-656538 3095 L-654526 3095 L-650754 3094 L-650154 3094 L-649826 3094 L-649613 3093 L-649071 3093 L-647833 3092 L-646654 3091 L-643790 3089 L-643267 3088 L-638412 3088 L-635475 3088 L-635432 3087 L-635123 3087 L-634871 3087 L-632276 3087 L-628021 3087 L-628003 3087 L-626766 3087 L-624889 3087 L-622935 3086 L-621987 3086 L-621717 3086 L-621407 3085 L-621309 3085 L-620478 3085 L-618447 3085 L-618157 3084 L-616011 3084 L-615855 3083 L-612199 3082 L-611948 3082 L-611849 3082 L-611332 3082 L-609181 3083 L-608252 3084 L-606726 3085 L-605487 3085 L-603940 3085 L-600978 3084 L-599856 3084 L-599547 3084 L-598336 3084 L-595329 3085 L-595310 3085 L-594962 3085 L-594749 3085 L-594623 3083 L-594381 3082 L-594344 3082 L-594324 3082 L-594305 3081 L-594246 3081 L-594187 3081 L-594169 3081 L-593726 3080 L-592487 3080 L-590941 3080 L-587553 3079 L-581827 3079 L-581625 3079 L-579989 3079 L-578267 3079 L-576835 3079 L-576603 3078 L-575888 3078 L-569756 3078 L-569388 3078 L-569233 3078 L-568655 3077 L-568362 3077 L-567395 3077 L-567086 3076 L-566487 3076 L-564880 3076 L-564145 3076 L-563835 3076 L-563067 3076 L-561031 3076 L-560606 3076 L-559793 3075 L-552364 3075 L-551841 3075 L-551668 3075 L-550933 3074 L-549365 3074 L-548960 3074 L-546735 3074 L-545787 3073 L-545362 3073 L-545031 3073 L-543988 3073 L-541879 3073 L-541627 3072 L-541008 3072 L-540196 3072 L-538088 3072 L-538039 3071 L-536111 3071 L-535785 3071 L-535650 3071 L-535147 3070 L-533734 3070 L-533232 3069 L-532710 3069 L-529150 3068 L-528415 3068 L-525990 3068 L-524701 3068 L-524294 3067 L-521141 3067 L-520987 3067 L-520966 3068 L-520600 3068 L-519341 3068 L-518626 3068 L-517736 3068 L-517330 3068 L-516401 3068 L-515292 3068 L-514989 3068 L-508740 3069 L-507793 3069 L-506167 3069 L-505665 3069 L-501989 3069 L-501157 3070 L-497204 3070 L-495792 3069 L-493303 3069 L-492626 3069 L-492588 3069 L-491717 3069 L-488506 3068 L-485642 3068 L-484674 3068 L-483553 3068 L-483534 3068 L-481909 3067 L-481445 3067 L-481353 3067 L-474984 3067 L-474035 3066 L-471578 3066 L-470706 3066 L-469470 3066 L-467468 3066 L-467071 3065 L-465635 3065 L-463608 3065 L-463395 3065 L-462215 3064 L-460707 3064 L-460687 3064 L-458674 3064 L-457805 3064 L-456934 3064 L-456349 3063 L-455812 3063 L-455154 3063 L-453916 3062 L-453355 3062 L-452174 3062 L-450937 3062 L-450898 3062 L-450511 3062 L-449970 3061 L-449196 3061 L-448074 3061 L-445984 3061 L-445651 3060 L-445365 3060 L-444437 3060 L-443954 3060 L-443218 3059 L-439587 3059 L-438459 3059 L-438305 3059 L-437279 3059 L-433564 3059 L-432347 3058 L-430528 3058 L-427742 3058 L-427181 3058 L-423293 3058 L-420816 3057 L-419482 3057 L-418978 3057 L-418495 3057 L-415806 3057 L-412034 3057 L-409577 3057 L-408397 3057 L-407758 3057 L-405398 3057 L-405321 3057 L-404273 3056 L-404180 3056 L-403677 3056 L-403231 3056 L-403174 3056 L-402960 3056 L-400001 3056 L-397293 3056 L-397138 3055 L-393617 3055 L-393094 3055 L-392127 3055 L-391778 3055 L-390735 3054 L-389806 3054 L-389380 3054 L-387871 3054 L-386904 3054 L-386885 3054 L-384989 3043 L-384873 3031 L-384825 3020 L-384801 3009 L-381797 3009 L-379766 3009 L-378005 3009 L-377638 3009 L-377193 3008 L-376826 3008 L-376412 3008 L-374427 3008 L-374214 3008 L-374059 3008 L-372454 3008 L-371332 3007 L-370383 3007 L-369126 3007 L-367482 3007 L-366302 3006 L-359712 3006 L-359666 3006 L-359260 3006 L-358215 3006 L-358080 3006 L-356397 3005 L-356377 3005 L-355040 3005 L-353804 3005 L-353650 3005 L-353276 3004 L-353070 3004 L-352760 3004 L-351986 3004 L-349665 3004 L-349007 3004 L-346879 3003 L-345157 3003 L-344963 3003 L-342410 3003 L-342134 3002 L-341946 3002 L-341113 3002 L-340341 3002 L-339643 3002 L-334642 3002 L-334266 3001 L-330013 3001 L-329526 3016 L-329507 3016 L-329428 3016 L-329353 3016 L-329333 3001 L-328520 3000 L-327766 3000 L-326547 3000 L-325115 3000 L-325019 3000 L-324845 3000 L-324490 2999 L-323181 2999 L-321324 2999 L-319621 2999 L-319118 2999 L-318853 2999 L-318460 2998 L-318326 2998 L-317416 2998 L-317040 2998 L-316111 2998 L-315772 2998 L-315732 2998 L-315695 2998 L-313779 2998 L-313606 2998 L-312077 2998 L-311749 2997 L-311632 2997 L-311225 2997 L-310877 2997 L-309234 2996 L-308683 2996 L-308439 2996 L-307898 2996 L-307067 2996 L-306525 2996 L-304991 2995 L-304898 2995 L-304861 2995 L-304725 2995 L-304338 2995 L-303313 2995 L-301437 2994 L-301341 2994 L-300740 2999 L-300373 3004 L-299889 3009 L-299851 3014 L-299077 3015 L-299019 3015 L-298845 3014 L-298651 3014 L-297046 3014 L-297026 3014 L-296871 3014 L-296755 3014 L-295576 3014 L-295421 3015 L-294754 3015 L-292306 3027 L-289791 3039 L-287121 3052 L-279422 3064 L-273754 3064 L-271540 3064 L-271516 3064 L-270543 3067 L-270523 3067 L-269659 3066 L-266919 3066 L-261120 3063 L-260967 3063 L-258181 3062 L-244573 3062 L-243827 3062 L-239416 3062 L-223070 3062 L-222838 3061 L-222301 3061 L-213841 3061 L-205136 3061 L-204923 3061 L-202951 3061 L-200164 3061 L-195677 3061 L-195522 3061 L-195353 3061 L-195213 3060 L-194922 3060 L-194883 3060 L-194613 3060 L-194441 3060 L-194031 3059 L-192910 3059 L-191730 3059 L-190453 3059 L-187589 3059 L-184669 3059 L-182677 3059 L-181129 3058 L-178091 3058 L-168767 3058 L-168243 3058 L-162519 3058 L-161012 3058 L-160197 3058 L-158514 3057 L-157793 3057 L-157624 3057 L-156579 3057 L-154512 3057 L-153150 3057 L-148707 3057 L-148609 3056 L-148571 3056 L-148552 3056 L-147719 3056 L-147642 3056 L-145069 3055 L-141820 3055 L-141665 3055 L-140717 3055 L-138976 3055 L-138260 3056 L-134720 3056 L-128142 3057 L-126725 3058 L-126704 3058 L-125754 3058 L-122279 3058 L-121526 3058 L-120964 3058 L-120182 3057 L-112678 3057 L-111080 3057 L-109506 3057 L-106320 3057 L-101987 3057 L-93418 3057 L-84671 3057 L-81597 3056 L-78331 3056 L-77785 3056 L-70648 3056 L-64980 3056 L-50916 3056 L-44904 3056 L-40198 3056 L-36195 3055 L-31087 3055 L-21373 3055 L-5803 3055 L-2720 3055 L-2418 2987 L-2398 2905 L-2379 2811 L-2359 2706 L-2340 2658 L-2321 2617 L-2302 2580 L-2274 2544 L-2254 2508 L-2226 2470 L-2190 2429 L-2177 2394 L-2164 2364 L-2145 2339 L-2127 2320 L-2107 2301 L-2088 2282 L-2069 2263 L-2049 2244 L-2028 2224 L-2011 2205 L-1992 2186 L-1972 2167 L-1952 2149 L-1934 2129 L-1915 2109 L-1895 2087 L-1875 2067 L-1856 2047 L-1838 2028 L-1816 2010 L-1792 1991 L-1777 1974 L-1760 1957 L-1740 1939 L-1721 1922 L-1702 1904 L-1683 1885 L-1663 1867 L-1642 1851 L-1624 1834 L-1605 1819 L-1585 1804 L-1564 1791 L-1547 1779 L-1528 1767 L-1508 1756 L-1489 1745 L-1470 1735 L-1451 1725 L-1431 1717 L-1411 1709 L-1392 1701 L-1373 1693 L-1346 1683 L-1325 1673 L-1297 1661 L-1263 1648 L-1249 1638 L-1236 1628 L-1217 1620 L-1198 1613 L-1178 1605 L-1160 1596 L-1141 1587 L-1121 1579 L-1100 1571 L-1083 1563 L-1064 1555 L-1044 1547 L-1024 1538 L-1005 1527 L-987 1516 L-966 1504 L-947 1492 L-928 1480 L-909 1468 L-888 1455 L-864 1440 L-849 1426 L-832 1412 L-812 1398 L-793 1385 L-773 1371 L-754 1356 L-734 1341 L-714 1327 L-696 1314 L-677 1300 L-657 1288 L-636 1275 L-619 1263 L-600 1252 L-579 1241 L-561 1231 L-541 1221 L-522 1211 L-502 1202 L-483 1191 L-464 1182 L-445 1172 L-416 1162 L-396 1153 L-368 1144 L-331 1132 L-316 1122 L-304 1111 L-287 1102 L-270 1095 L-250 1089 L-231 1083 L-212 1078 L-192 1072 L-171 1066 L-154 1060 L-135 1053 L-115 1047 L-95 1039 L-77 1032 L-58 1024 L-38 1015 L-18 1006 L0 997 L18 989 L40 980 L64 971 L79 963 L96 954 L116 945 L135 936 L154 927 L173 917 L193 908 L214 899 L232 890 L251 882 L271 873 L291 866 L309 858 L328 851 L348 843 L367 836 L387 828 L405 821 L425 814 L445 807 L464 801 L483 793 L511 786 L531 779 L559 771 L595 760 L609 750 L623 740 L640 732 L658 726 L678 721 L696 714 L716 706 L736 699 L757 690 L776 682 L793 673 L813 663 L833 652 L851 642 L870 631 L890 619 L910 609 L928 599 L947 590 L968 584 L993 578 L1008 573 L1026 568 L1044 562 L1064 556 L1083 550 L1102 544 L1122 539 L1143 535 L1160 530 L1180 525 L1200 518 L1221 511 L1238 504 L1257 498 L1277 494 L1296 490 L1315 487 L1334 483 L1354 480 L1374 476 L1393 471 L1411 468 L1439 464 L1460 460 L1488 456 L1522 451 L1536 447 L1549 443 L1568 440 L1587 437 L1606 434 L1625 431 L1645 428 L1664 426 L1685 423 L1702 420 L1721 417 L1742 413 L1762 410 L1780 406 L1798 403 L1818 401 L1839 398 L1857 395 L1876 392 L1897 389 L1922 387 L1936 384 L1954 382 L1973 379 L1992 376 L2012 373 L2031 370 L2051 366 L2072 363 L2089 360 L2108 358 L2128 355 L2149 352 L2166 350 L2185 347 L2205 345 L2224 342 L2244 340 L2262 338 L2283 336 L2302 334 L2321 332 L2340 335 L2369 338 L2388 341 L2416 344 L2454 341 L2469 339 L2482 337 L2499 336 L2515 334 L2535 333 L2554 331 L2573 329 L2593 327 L2614 326 L2631 325 L2650 323 L2670 321 L2690 320 L2708 318 L2727 316 L2747 314 L2767 312 L2785 311 L2804 309 L2826 308 L2850 307 L2865 305 L2882 303 L2902 301 L2921 299 L2940 298 L2959 296 L2979 294 L3000 291 L3018 289 L3036 287 L3057 284 L3078 282 L3095 280 L3114 278 L3134 276 L3153 274 L3172 272 L3191 270 L3211 267 L3231 265 L3250 264 L3269 262 L3296 260 L3317 258 L3345 256 L3380 254 L3393 252 L3406 250 L3425 248 L3444 246 L3464 245 L3482 243 L3502 241 L3521 239 L3543 237 L3560 235 L3578 234 L3599 232 L3619 229 L3637 227 L3656 224 L3676 221 L3696 218 L3714 215 L3733 213 L3754 211 L3779 208 L3794 205 L3811 202 L3830 200 L3850 197 L3869 195 L3888 192 L3908 189 L3929 187 L3946 184 L3965 182 L3986 180 L4006 178 L4023 176 L4042 174 L4062 172 L4081 171 L4101 169 L4120 168 L4139 166 L4159 165 L4178 164 L4197 163 L4225 161 L4245 160 L4273 158 L4309 155 L4323 153 L4336 150 L4354 148 L4372 146 L4392 144 L4411 143 L4430 141 L4450 140 L4471 138 L4488 136 L4507 134 L4527 132 L4547 130 L4565 128 L4584 126 L4604 123 L4625 121 L4642 119 L4661 118 L4683 116 L4708 114 L4722 113 L4739 111 L4759 109 L4778 107 L4798 105 L4816 103 L4836 100 L4858 97 L4875 94 L4894 92 L4914 90 L4935 88 L4952 86 L4971 85 L4991 83 L5010 82 L5030 81 L5048 79 L5068 78 L5088 77 L5107 76 L5126 74 L5153 73 L5174 72 L5202 71 L5236 69 L5250 68 L5263 67 L5282 66 L5301 65 L5320 64 L5339 63 L5358 62 L5378 61 L5399 60 L5416 59 L5435 58 L5455 57 L5475 56 L5494 55 L5513 54 L5533 53 L5553 52 L5571 51 L5590 51 L5611 50 L5636 49 L5650 48 L5668 47 L5687 46 L5706 45 L5726 44 L5745 43 L5765 42 L5785 40 L5803 38 L5822 36 L5842 33 L5863 32 L5881 30 L5900 29 L5920 27 L5938 26 L5958 24 L5977 23 L5997 22 L6016 21 L6036 20 L6054 19 L6083 18 L6131 17 L6167 16 L6182 15 L6195 14 L6212 13 L6229 12 L6249 12 L6268 11 L6287 10 L6307 9 L6328 9 L6345 8 L6364 7 L6384 7 L6404 6 L6422 5 L6441 4 L6461 3 L6481 2 L6500 1" />
</svg>
