<svg xmlns="http://www.w3.org/2000/svg" version="1.1" viewBox="0 0 6500 1000">
	<path fill="none" stroke="gold" stroke-width="125" stroke-linecap="round" stroke-linejoin="round" d="M0 29428  L-155036 29428 L-152432 29239 L-150764 29049 L-132435 28669 L-132265 28290 L-125107 27910 L-125074 27910 L-111643 27721 L-108721 27910 L-95380 27341 L-91211 26582 L-90051 25633 L-89432 24685 L-87420 24115 L-83648 23736 L-83048 23356 L-82720 22977 L-82507 22597 L-81965 22218 L-80727 20700 L-79548 19182 L-76683 17664 L-76161 16146 L-71306 15766 L-68368 15387 L-68326 15007 L-68017 14628 L-67765 14248 L-65170 13869 L-60915 13869 L-60897 13869 L-59660 13869 L-57783 13869 L-55829 13489 L-54881 13110 L-54610 12730 L-54301 12540 L-54202 12351 L-53372 12351 L-51341 12540 L-51051 10833 L-48904 10074 L-48749 8935 L-45093 7796 L-44842 8366 L-44743 8176 L-44226 8745 L-42075 9694 L-41146 10643 L-39620 11592 L-38380 11592 L-36834 11402 L-33872 11022 L-32750 10643 L-32441 10263 L-31230 10074 L-28223 12161 L-28204 11971 L-27856 11781 L-27643 11592 L-27517 8935 L-27275 8555 L-27237 8176 L-27218 7796 L-27198 7417 L-27140 7037 L-27081 6658 L-27063 6278 L-26620 5899 L-25380 5519 L-23835 5140 L-20447 4760 L-14721 4571 L-14519 4381 L-12883 4191 L-11161 4001 L-9729 3812 L-9497 3622 L-8782 3432 L-2649 3242 L-2282 2863 L-2127 2483 L-1549 2104 L-1256 1724 L-289 1345 L20 965 L619 586 L2225 586 L2960 586 L3270 776 L4038 776 L6074 396 L6500 17" />
</svg>
