<svg xmlns="http://www.w3.org/2000/svg" version="1.1" viewBox="0 0 6500 1000">
	<path fill="none" stroke="gold" stroke-width="125" stroke-linecap="round" stroke-linejoin="round" d="M0 1016  L-718257 1016 L-715653 1016 L-713985 1016 L-695656 1015 L-695486 1015 L-688328 1015 L-688295 1015 L-674864 1015 L-671942 1015 L-658601 1015 L-654432 1015 L-653272 1015 L-652653 1014 L-650641 1014 L-646869 1014 L-646269 1014 L-645940 1014 L-645727 1014 L-645186 1014 L-643948 1013 L-642769 1013 L-639904 1012 L-639382 1012 L-634527 1012 L-631589 1012 L-631546 1012 L-631238 1011 L-630986 1011 L-628391 1011 L-624136 1011 L-624118 1011 L-622881 1011 L-621003 1011 L-619050 1011 L-618102 1011 L-617831 1011 L-617521 1011 L-617423 1011 L-616593 1011 L-614562 1011 L-614272 1010 L-612125 1010 L-611970 1010 L-608314 1009 L-608062 1010 L-607964 1010 L-607447 1010 L-605296 1010 L-604367 1010 L-602841 1011 L-601601 1011 L-600055 1010 L-597093 1010 L-595971 1010 L-595662 1010 L-594451 1010 L-591444 1011 L-591424 1011 L-591077 1011 L-590864 1011 L-590738 1010 L-590496 1010 L-590458 1010 L-590439 1009 L-590419 1009 L-590360 1009 L-590302 1009 L-590284 1009 L-589841 1009 L-588601 1009 L-587056 1009 L-583668 1009 L-577942 1009 L-577740 1008 L-576104 1008 L-574382 1008 L-572950 1008 L-572718 1008 L-572002 1008 L-565870 1008 L-565503 1008 L-565348 1008 L-564770 1008 L-564477 1008 L-563510 1008 L-563200 1007 L-562601 1007 L-560995 1007 L-560260 1007 L-559950 1007 L-559182 1007 L-557146 1007 L-556720 1007 L-555908 1007 L-548479 1007 L-547956 1007 L-547783 1007 L-547048 1007 L-545480 1007 L-545074 1007 L-542849 1006 L-541901 1006 L-541476 1006 L-541146 1006 L-540102 1006 L-537994 1006 L-537742 1006 L-537123 1006 L-536310 1006 L-534202 1006 L-534154 1006 L-532226 1006 L-531900 1005 L-531765 1005 L-531262 1005 L-529849 1005 L-529346 1005 L-528824 1005 L-525265 1005 L-524530 1004 L-522105 1004 L-520816 1004 L-520409 1004 L-517256 1004 L-517101 1004 L-517081 1004 L-516714 1004 L-515456 1004 L-514741 1004 L-513851 1004 L-513444 1004 L-512516 1004 L-511407 1004 L-511104 1005 L-504855 1005 L-503908 1005 L-502282 1005 L-501780 1005 L-498104 1005 L-497272 1005 L-493319 1005 L-491907 1005 L-489417 1005 L-488741 1005 L-488702 1005 L-487831 1005 L-484620 1005 L-481757 1005 L-480789 1004 L-479668 1004 L-479649 1004 L-478024 1004 L-477560 1004 L-477468 1004 L-471098 1004 L-470150 1004 L-467693 1004 L-466821 1004 L-465584 1004 L-463583 1004 L-463186 1003 L-461749 1003 L-459723 1003 L-459510 1003 L-458330 1003 L-456821 1003 L-456801 1003 L-454789 1003 L-453920 1003 L-453049 1003 L-452464 1003 L-451927 1003 L-451269 1002 L-450031 1002 L-449470 1002 L-448289 1002 L-447052 1002 L-447013 1002 L-446626 1002 L-446084 1002 L-445311 1002 L-444188 1002 L-442099 1002 L-441766 1002 L-441480 1002 L-440552 1001 L-440068 1001 L-439333 1001 L-435702 1001 L-434574 1001 L-434419 1001 L-433393 1001 L-429679 1001 L-428461 1001 L-426643 1001 L-423857 1001 L-423296 1001 L-419408 1001 L-416931 1001 L-415596 1001 L-415093 1000 L-414610 1000 L-411920 1000 L-408149 1000 L-405692 1000 L-404512 1000 L-403873 1000 L-401513 1000 L-401436 1000 L-400388 1000 L-400295 1000 L-399792 1000 L-399346 1000 L-399289 1000 L-399075 1000 L-396115 1000 L-393408 1000 L-393253 1000 L-389732 1000 L-389209 1000 L-388242 1000 L-387893 999 L-386849 999 L-385921 999 L-385495 999 L-383986 999 L-383019 999 L-383000 999 L-381104 995 L-380988 991 L-380940 987 L-380916 983 L-377912 983 L-375881 983 L-374120 983 L-373753 983 L-373307 983 L-372941 982 L-372527 982 L-370542 982 L-370328 982 L-370174 982 L-368568 982 L-367446 982 L-366498 982 L-365241 982 L-363596 982 L-362417 982 L-355827 982 L-355781 982 L-355375 982 L-354330 982 L-354194 982 L-352512 981 L-352492 981 L-351155 981 L-349919 981 L-349765 981 L-349391 981 L-349185 981 L-348875 981 L-348101 981 L-345780 981 L-345122 981 L-342994 981 L-341272 981 L-341078 981 L-338525 981 L-338249 980 L-338060 980 L-337228 980 L-336455 980 L-335757 980 L-330757 980 L-330381 980 L-326128 980 L-325641 985 L-325622 985 L-325543 985 L-325467 985 L-325448 980 L-324635 980 L-323881 980 L-322662 979 L-321230 979 L-321134 979 L-320959 979 L-320605 979 L-319296 979 L-317438 979 L-315736 979 L-315233 979 L-314968 979 L-314575 979 L-314440 979 L-313531 979 L-313154 979 L-312226 979 L-311887 979 L-311847 979 L-311809 979 L-309894 979 L-309720 979 L-308191 979 L-307863 979 L-307747 978 L-307340 978 L-306992 978 L-305348 978 L-304797 978 L-304554 978 L-304013 978 L-303182 978 L-302640 978 L-301105 978 L-301013 978 L-300976 978 L-300840 978 L-300453 978 L-299428 978 L-297552 977 L-297455 977 L-296855 979 L-296488 981 L-296003 983 L-295965 985 L-295192 985 L-295134 985 L-294960 985 L-294766 985 L-293161 985 L-293141 985 L-292986 985 L-292870 985 L-291691 985 L-291536 985 L-290869 985 L-288421 989 L-285906 994 L-283236 998 L-275537 1003 L-269869 1003 L-267655 1003 L-267631 1003 L-266657 1004 L-266637 1004 L-265774 1004 L-263033 1004 L-257235 1003 L-257081 1002 L-254296 1002 L-240687 1002 L-239941 1002 L-235531 1002 L-219184 1002 L-218952 1002 L-218415 1002 L-209956 1002 L-201250 1002 L-201038 1002 L-199065 1002 L-196279 1002 L-191792 1002 L-191637 1002 L-191468 1002 L-191327 1002 L-191037 1002 L-190998 1001 L-190727 1001 L-190556 1001 L-190145 1001 L-189025 1001 L-187845 1001 L-186568 1001 L-183704 1001 L-180784 1001 L-178792 1001 L-177244 1001 L-174206 1001 L-164882 1001 L-164358 1001 L-158634 1001 L-157127 1001 L-156312 1001 L-154629 1001 L-153908 1000 L-153739 1000 L-152694 1000 L-150627 1000 L-149265 1000 L-144821 1000 L-144724 1000 L-144686 1000 L-144667 1000 L-143834 1000 L-143756 1000 L-141184 1000 L-137935 1000 L-137780 1000 L-136831 1000 L-135090 1000 L-134375 1000 L-130834 1000 L-124257 1000 L-122840 1001 L-122819 1001 L-121868 1001 L-118394 1001 L-117641 1001 L-117079 1001 L-116297 1001 L-108793 1000 L-107194 1000 L-105620 1000 L-102435 1000 L-98102 1000 L-89532 1000 L-80786 1000 L-77712 1000 L-74446 1000 L-73900 1000 L-66762 1000 L-61095 1000 L-47030 1000 L-41019 1000 L-36313 1000 L-32309 1000 L-27202 1000 L-17488 1000 L-1917 1000 L1164 999 L1467 975 L1486 945 L1505 910 L1525 872 L1544 854 L1564 839 L1582 826 L1610 812 L1631 799 L1659 786 L1694 770 L1708 757 L1721 746 L1739 737 L1758 730 L1778 724 L1796 717 L1815 710 L1835 703 L1856 695 L1873 688 L1892 681 L1912 675 L1932 668 L1951 660 L1970 653 L1989 645 L2010 638 L2028 630 L2047 623 L2068 617 L2093 610 L2107 604 L2125 597 L2144 591 L2164 585 L2183 578 L2202 571 L2222 565 L2242 558 L2260 552 L2279 547 L2300 542 L2320 537 L2337 532 L2356 528 L2376 524 L2395 520 L2415 516 L2434 513 L2453 510 L2473 507 L2492 504 L2511 501 L2538 497 L2559 493 L2587 489 L2621 484 L2635 480 L2648 477 L2667 474 L2686 471 L2706 468 L2724 465 L2744 462 L2764 459 L2784 456 L2802 453 L2821 450 L2841 447 L2861 444 L2879 440 L2898 436 L2918 432 L2938 427 L2956 423 L2975 418 L2996 413 L3021 408 L3035 403 L3053 398 L3072 393 L3092 388 L3111 383 L3130 377 L3150 372 L3170 367 L3189 362 L3207 357 L3228 352 L3248 348 L3266 343 L3285 339 L3305 335 L3324 332 L3343 328 L3362 324 L3382 321 L3401 317 L3421 313 L3440 310 L3468 306 L3488 303 L3516 299 L3553 295 L3568 291 L3581 288 L3598 284 L3615 282 L3635 280 L3653 277 L3672 275 L3692 273 L3713 271 L3730 269 L3749 266 L3769 264 L3789 261 L3808 259 L3826 256 L3846 253 L3866 249 L3885 246 L3904 243 L3925 240 L3949 236 L3964 233 L3981 230 L4001 227 L4020 224 L4040 220 L4059 217 L4079 213 L4099 210 L4117 207 L4136 204 L4156 201 L4176 198 L4194 195 L4213 192 L4233 190 L4252 187 L4272 184 L4291 181 L4311 179 L4330 176 L4349 174 L4368 171 L4396 169 L4416 166 L4444 163 L4481 159 L4495 155 L4508 152 L4525 149 L4543 147 L4563 145 L4582 142 L4602 139 L4621 137 L4642 133 L4661 130 L4678 127 L4698 123 L4719 120 L4737 116 L4755 112 L4775 107 L4796 104 L4813 100 L4832 97 L4854 94 L4879 92 L4893 91 L4911 89 L4930 87 L4949 84 L4968 82 L4987 80 L5007 78 L5028 76 L5046 75 L5065 73 L5085 70 L5106 68 L5123 65 L5142 63 L5162 61 L5181 60 L5200 59 L5219 58 L5239 56 L5259 55 L5278 53 L5297 52 L5324 50 L5345 49 L5373 48 L5408 46 L5421 44 L5435 43 L5453 42 L5472 41 L5492 40 L5510 39 L5530 37 L5550 37 L5571 35 L5588 34 L5606 33 L5627 32 L5647 31 L5665 29 L5684 28 L5704 27 L5724 26 L5742 25 L5761 24 L5782 23 L5807 22 L5822 21 L5839 20 L5858 19 L5878 18 L5897 17 L5916 16 L5936 15 L5957 14 L5974 13 L5993 12 L6014 11 L6034 10 L6052 9 L6071 8 L6091 7 L6109 6 L6129 5 L6148 4 L6168 4 L6187 3 L6206 2 L6225 3 L6254 4 L6274 6 L6302 7 L6339 6 L6354 5 L6367 4 L6384 4 L6401 3 L6420 2 L6439 2 L6459 1 L6478 1 L6500 0" />
</svg>
