<svg xmlns="http://www.w3.org/2000/svg" version="1.1" viewBox="0 0 6500 1000">
	<path fill="none" stroke="gold" stroke-width="125" stroke-linecap="round" stroke-linejoin="round" d="M0 3522  L-725799 3522 L-723195 3522 L-721527 3521 L-703197 3521 L-703027 3521 L-695869 3520 L-695836 3520 L-682405 3520 L-679483 3520 L-666143 3520 L-661974 3519 L-660814 3519 L-660194 3518 L-658183 3517 L-654411 3517 L-653811 3517 L-653482 3516 L-653269 3516 L-652727 3516 L-651489 3515 L-650310 3513 L-647446 3512 L-646924 3511 L-642068 3510 L-639131 3510 L-639088 3510 L-638780 3510 L-638528 3509 L-635933 3509 L-631677 3509 L-631659 3509 L-630423 3509 L-628545 3509 L-626592 3509 L-625644 3508 L-625373 3508 L-625063 3508 L-624965 3508 L-624135 3508 L-622104 3508 L-621813 3506 L-619667 3506 L-619512 3505 L-615855 3504 L-615604 3504 L-615506 3504 L-614988 3505 L-612837 3505 L-611908 3506 L-610382 3507 L-609143 3507 L-607596 3507 L-604635 3507 L-603513 3506 L-603204 3506 L-601992 3506 L-598986 3507 L-598966 3507 L-598619 3507 L-598406 3507 L-598279 3505 L-598038 3504 L-598000 3504 L-597980 3504 L-597961 3504 L-597902 3503 L-597843 3503 L-597825 3503 L-597382 3502 L-596143 3502 L-594597 3502 L-591209 3501 L-585483 3501 L-585282 3501 L-583646 3501 L-581924 3501 L-580492 3501 L-580259 3500 L-579544 3500 L-573412 3500 L-573044 3500 L-572890 3499 L-572311 3499 L-572019 3499 L-571052 3499 L-570742 3498 L-570143 3498 L-568537 3498 L-567802 3498 L-567492 3498 L-566723 3498 L-564687 3498 L-564262 3497 L-563449 3497 L-556021 3497 L-555498 3497 L-555324 3496 L-554589 3496 L-553022 3496 L-552616 3496 L-550391 3495 L-549443 3495 L-549018 3495 L-548688 3495 L-547644 3495 L-545536 3494 L-545284 3494 L-544665 3494 L-543852 3494 L-541744 3493 L-541696 3493 L-539767 3493 L-539442 3492 L-539307 3492 L-538804 3492 L-537391 3492 L-536888 3491 L-536366 3491 L-532806 3490 L-532071 3489 L-529647 3489 L-528357 3489 L-527950 3489 L-524798 3489 L-524643 3489 L-524623 3489 L-524256 3489 L-522998 3489 L-522283 3489 L-521393 3489 L-520986 3489 L-520057 3489 L-518949 3489 L-518645 3490 L-512397 3490 L-511449 3490 L-509823 3491 L-509321 3491 L-505646 3491 L-504813 3491 L-500860 3491 L-499448 3491 L-496959 3491 L-496283 3490 L-496244 3490 L-495373 3490 L-492162 3490 L-489299 3490 L-488331 3490 L-487209 3489 L-487190 3489 L-485565 3489 L-485101 3488 L-485009 3488 L-478640 3488 L-477692 3488 L-475234 3488 L-474362 3487 L-473126 3487 L-471125 3487 L-470727 3487 L-469291 3486 L-467265 3486 L-467052 3486 L-465872 3486 L-464363 3486 L-464343 3485 L-462331 3485 L-461461 3485 L-460590 3485 L-460005 3484 L-459468 3484 L-458811 3484 L-457572 3484 L-457012 3483 L-455831 3483 L-454593 3483 L-454555 3483 L-454168 3483 L-453626 3482 L-452852 3482 L-451730 3482 L-449641 3482 L-449308 3481 L-449022 3481 L-448093 3481 L-447610 3481 L-446875 3481 L-443243 3480 L-442116 3480 L-441961 3480 L-440935 3480 L-437220 3480 L-436003 3479 L-434184 3479 L-431399 3479 L-430837 3478 L-426949 3478 L-424473 3478 L-423138 3478 L-422635 3478 L-422151 3478 L-419462 3478 L-415690 3478 L-413233 3478 L-412053 3478 L-411414 3478 L-409055 3478 L-408977 3477 L-407930 3477 L-407836 3477 L-407333 3477 L-406888 3477 L-406830 3477 L-406617 3477 L-403657 3477 L-400949 3476 L-400795 3476 L-397274 3476 L-396751 3476 L-395784 3476 L-395434 3475 L-394391 3475 L-393462 3475 L-393037 3475 L-391528 3475 L-390561 3474 L-390542 3474 L-388646 3463 L-388530 3451 L-388482 3439 L-388457 3428 L-385453 3428 L-383423 3427 L-381662 3427 L-381295 3427 L-380849 3427 L-380482 3427 L-380068 3426 L-378083 3426 L-377870 3426 L-377715 3426 L-376110 3426 L-374988 3426 L-374040 3426 L-372783 3425 L-371138 3425 L-369958 3425 L-363369 3425 L-363322 3425 L-362917 3424 L-361871 3424 L-361736 3424 L-360053 3424 L-360034 3424 L-358697 3423 L-357461 3423 L-357306 3423 L-356932 3423 L-356726 3423 L-356417 3422 L-355643 3422 L-353321 3422 L-352664 3422 L-350536 3422 L-348813 3421 L-348620 3421 L-346067 3421 L-345790 3421 L-345602 3420 L-344770 3420 L-343997 3420 L-343299 3420 L-338298 3420 L-337923 3420 L-333670 3419 L-333183 3435 L-333163 3435 L-333084 3435 L-333009 3435 L-332989 3419 L-332176 3418 L-331423 3418 L-330203 3418 L-328772 3418 L-328675 3418 L-328501 3418 L-328146 3418 L-326837 3417 L-324980 3417 L-323278 3417 L-322775 3417 L-322509 3417 L-322116 3416 L-321982 3416 L-321072 3416 L-320696 3416 L-319767 3416 L-319428 3416 L-319389 3416 L-319351 3416 L-317436 3416 L-317262 3416 L-315733 3416 L-315405 3415 L-315289 3415 L-314882 3415 L-314534 3415 L-312890 3414 L-312339 3414 L-312096 3414 L-311554 3414 L-310723 3414 L-310181 3413 L-308647 3413 L-308555 3413 L-308518 3413 L-308382 3413 L-307995 3413 L-306970 3412 L-305093 3412 L-304997 3412 L-304397 3417 L-304030 3422 L-303545 3428 L-303507 3433 L-302733 3434 L-302676 3433 L-302501 3433 L-302308 3433 L-300702 3433 L-300682 3432 L-300527 3433 L-300412 3433 L-299232 3433 L-299077 3434 L-298410 3434 L-295962 3446 L-293447 3460 L-290778 3472 L-283078 3485 L-277411 3485 L-275196 3485 L-275173 3485 L-274199 3488 L-274179 3488 L-273315 3488 L-270575 3487 L-264777 3484 L-264623 3484 L-261837 3484 L-248229 3483 L-247483 3483 L-243072 3483 L-226726 3483 L-226494 3482 L-225957 3482 L-217497 3482 L-208792 3482 L-208580 3482 L-206607 3482 L-203821 3482 L-199333 3482 L-199179 3482 L-199009 3482 L-198869 3481 L-198578 3481 L-198540 3481 L-198269 3481 L-198097 3481 L-197687 3481 L-196567 3480 L-195386 3480 L-194109 3480 L-191246 3480 L-188325 3480 L-186333 3480 L-184786 3479 L-181748 3479 L-172423 3479 L-171899 3479 L-166175 3479 L-164668 3479 L-163854 3479 L-162170 3478 L-161449 3478 L-161281 3478 L-160236 3478 L-158168 3478 L-156806 3478 L-152363 3477 L-152266 3477 L-152227 3477 L-152208 3477 L-151376 3477 L-151298 3476 L-148726 3476 L-145476 3476 L-145321 3476 L-144373 3476 L-142632 3476 L-141917 3476 L-138376 3477 L-131799 3478 L-130381 3479 L-130360 3479 L-129410 3479 L-125936 3479 L-125182 3479 L-124621 3478 L-123839 3478 L-116334 3478 L-114736 3478 L-113162 3478 L-109977 3478 L-105644 3478 L-97074 3477 L-88328 3477 L-85254 3477 L-81988 3477 L-81441 3477 L-74304 3477 L-68636 3477 L-54572 3477 L-48561 3477 L-43854 3477 L-39851 3476 L-34744 3476 L-25030 3476 L-9459 3476 L-6376 3475 L-6074 3405 L-6054 3318 L-6036 3219 L-6016 3109 L-5996 3059 L-5977 3016 L-5958 2978 L-5931 2939 L-5910 2902 L-5882 2862 L-5847 2819 L-5833 2782 L-5820 2750 L-5801 2724 L-5783 2704 L-5763 2685 L-5745 2665 L-5725 2645 L-5705 2625 L-5684 2604 L-5667 2583 L-5649 2563 L-5628 2544 L-5608 2525 L-5590 2504 L-5571 2482 L-5551 2460 L-5531 2438 L-5513 2417 L-5494 2398 L-5473 2378 L-5448 2359 L-5433 2341 L-5416 2323 L-5397 2305 L-5377 2287 L-5358 2268 L-5339 2248 L-5319 2229 L-5298 2212 L-5281 2194 L-5262 2178 L-5241 2163 L-5221 2149 L-5203 2136 L-5184 2124 L-5164 2112 L-5146 2101 L-5126 2090 L-5107 2080 L-5087 2071 L-5068 2063 L-5048 2055 L-5030 2046 L-5002 2036 L-4981 2025 L-4954 2013 L-4920 1999 L-4905 1988 L-4892 1978 L-4874 1969 L-4855 1962 L-4835 1954 L-4816 1944 L-4797 1935 L-4777 1926 L-4756 1918 L-4739 1910 L-4720 1901 L-4700 1893 L-4680 1883 L-4661 1872 L-4643 1860 L-4623 1848 L-4603 1835 L-4584 1823 L-4565 1810 L-4544 1796 L-4520 1781 L-4505 1765 L-4488 1751 L-4468 1737 L-4449 1723 L-4429 1708 L-4411 1692 L-4391 1677 L-4370 1662 L-4352 1648 L-4333 1634 L-4313 1621 L-4293 1607 L-4275 1595 L-4256 1583 L-4236 1572 L-4217 1562 L-4197 1551 L-4179 1540 L-4159 1530 L-4139 1520 L-4120 1509 L-4101 1499 L-4072 1489 L-4053 1479 L-4025 1469 L-3988 1457 L-3973 1446 L-3960 1436 L-3943 1426 L-3926 1419 L-3906 1412 L-3888 1406 L-3868 1400 L-3848 1394 L-3828 1388 L-3810 1382 L-3792 1375 L-3771 1368 L-3751 1360 L-3733 1352 L-3714 1344 L-3694 1335 L-3675 1326 L-3656 1316 L-3637 1307 L-3616 1298 L-3591 1289 L-3577 1280 L-3560 1270 L-3540 1261 L-3521 1252 L-3501 1242 L-3482 1232 L-3462 1222 L-3442 1213 L-3423 1203 L-3405 1194 L-3384 1186 L-3364 1178 L-3346 1170 L-3327 1162 L-3307 1154 L-3289 1146 L-3269 1138 L-3250 1131 L-3230 1124 L-3211 1117 L-3191 1109 L-3172 1102 L-3144 1095 L-3124 1087 L-3096 1079 L-3060 1067 L-3046 1056 L-3033 1046 L-3015 1037 L-2997 1031 L-2977 1025 L-2959 1018 L-2939 1011 L-2919 1002 L-2898 994 L-2880 984 L-2863 975 L-2842 965 L-2822 954 L-2804 943 L-2785 931 L-2765 919 L-2745 908 L-2727 897 L-2708 889 L-2687 882 L-2662 876 L-2647 871 L-2630 865 L-2611 859 L-2591 853 L-2572 847 L-2553 840 L-2533 835 L-2512 830 L-2495 826 L-2476 820 L-2455 813 L-2435 805 L-2418 798 L-2399 792 L-2379 787 L-2360 784 L-2340 780 L-2321 777 L-2301 773 L-2282 768 L-2263 764 L-2244 760 L-2216 756 L-2196 752 L-2168 748 L-2133 743 L-2119 738 L-2106 734 L-2087 731 L-2069 728 L-2049 725 L-2030 722 L-2011 719 L-1991 716 L-1970 713 L-1953 710 L-1934 707 L-1914 703 L-1894 699 L-1876 696 L-1857 692 L-1837 690 L-1817 687 L-1798 684 L-1780 681 L-1758 678 L-1733 675 L-1719 672 L-1702 670 L-1682 667 L-1663 664 L-1644 661 L-1625 657 L-1605 654 L-1584 650 L-1566 647 L-1547 644 L-1527 641 L-1506 639 L-1489 636 L-1470 633 L-1450 631 L-1431 628 L-1411 625 L-1393 623 L-1373 622 L-1353 620 L-1334 618 L-1315 621 L-1287 624 L-1267 627 L-1239 630 L-1202 627 L-1186 625 L-1174 623 L-1156 621 L-1140 620 L-1120 618 L-1102 616 L-1082 614 L-1062 613 L-1041 611 L-1024 610 L-1006 608 L-985 606 L-965 604 L-947 603 L-928 601 L-908 599 L-888 597 L-870 595 L-851 594 L-830 592 L-805 591 L-791 589 L-773 587 L-754 585 L-734 583 L-715 582 L-696 580 L-676 578 L-655 575 L-638 572 L-619 570 L-598 568 L-578 565 L-560 563 L-541 561 L-522 559 L-503 557 L-483 554 L-464 552 L-444 549 L-425 547 L-405 546 L-387 544 L-359 542 L-339 540 L-311 538 L-276 535 L-262 533 L-249 531 L-230 529 L-212 527 L-191 526 L-173 524 L-154 522 L-134 520 L-113 518 L-96 516 L-77 514 L-57 512 L-37 510 L-18 507 L0 504 L19 501 L40 498 L58 495 L76 493 L98 490 L123 487 L137 484 L155 481 L174 479 L193 476 L212 473 L232 470 L252 468 L272 465 L290 463 L309 460 L329 458 L350 455 L367 454 L386 452 L406 450 L425 448 L445 447 L463 445 L483 444 L503 442 L522 441 L541 440 L568 438 L589 437 L617 435 L652 432 L666 429 L679 427 L698 424 L716 422 L736 421 L754 419 L774 417 L794 416 L815 414 L832 412 L850 410 L871 408 L891 405 L909 403 L928 401 L948 398 L968 396 L986 394 L1005 392 L1026 391 L1051 389 L1066 387 L1083 386 L1102 384 L1122 382 L1141 379 L1160 377 L1180 374 L1201 371 L1218 368 L1237 365 L1258 363 L1279 361 L1296 359 L1315 358 L1335 357 L1354 355 L1373 354 L1392 352 L1412 351 L1431 350 L1451 348 L1469 347 L1497 346 L1518 345 L1545 343 L1580 342 L1594 341 L1607 339 L1626 338 L1644 337 L1664 336 L1683 335 L1702 334 L1722 333 L1743 332 L1760 331 L1779 330 L1799 329 L1819 328 L1837 327 L1856 325 L1876 324 L1896 324 L1915 323 L1934 322 L1955 322 L1979 320 L1994 319 L2011 318 L2031 317 L2050 316 L2070 315 L2088 314 L2108 313 L2129 311 L2147 309 L2166 306 L2186 304 L2207 302 L2224 301 L2243 299 L2263 298 L2282 296 L2302 295 L2320 293 L2340 292 L2360 291 L2379 290 L2398 289 L2427 288 L2474 287 L2511 286 L2526 284 L2538 283 L2556 282 L2573 282 L2593 281 L2611 281 L2631 280 L2651 279 L2671 278 L2689 277 L2707 277 L2728 276 L2747 275 L2766 274 L2785 273 L2805 272 L2825 271 L2843 270 L2862 269 L2883 267 L2908 265 L2922 264 L2940 262 L2959 260 L2978 259 L2998 257 L3017 256 L3037 254 L3058 253 L3075 251 L3094 250 L3115 249 L3135 247 L3153 246 L3172 245 L3192 244 L3210 243 L3230 242 L3249 241 L3269 240 L3288 238 L3308 237 L3327 236 L3355 235 L3375 234 L3403 232 L3440 230 L3454 227 L3467 225 L3484 223 L3502 222 L3522 221 L3540 220 L3560 219 L3580 218 L3601 217 L3618 216 L3636 215 L3657 213 L3677 211 L3695 209 L3714 207 L3734 205 L3754 203 L3772 201 L3791 199 L3812 197 L3837 196 L3852 194 L3870 193 L3888 191 L3908 190 L3927 189 L3946 187 L3966 185 L3987 183 L4004 182 L4023 180 L4044 179 L4065 178 L4081 176 L4100 175 L4120 174 L4139 173 L4159 171 L4178 170 L4197 169 L4218 168 L4236 167 L4255 166 L4283 997 L4303 996 L4331 994 L4367 992 L4381 158 L4395 157 L4412 155 L4430 155 L4450 154 L4468 153 L4488 152 L4508 151 L4529 149 L4546 147 L4565 146 L4585 144 L4605 142 L4623 140 L4643 137 L4662 135 L4683 134 L4700 132 L4719 131 L4741 129 L4766 128 L4781 126 L4810 123 L4850 121 L4873 118 L4903 115 L4919 113 L4933 111 L4952 110 L4972 108 L4993 107 L5010 106 L5029 105 L5049 104 L5068 103 L5088 102 L5106 102 L5126 101 L5146 100 L5165 99 L5184 98 L5211 97 L5232 95 L5260 94 L5295 93 L5309 92 L5340 90 L5359 89 L5379 88 L5397 88 L5417 87 L5437 86 L5458 85 L5474 84 L5493 82 L5514 79 L5534 76 L5552 71 L5571 68 L5591 65 L5611 62 L5629 60 L5648 58 L5669 57 L5694 55 L5709 54 L5727 52 L5745 50 L5765 49 L5784 48 L5804 46 L5823 44 L5844 43 L5861 41 L5880 39 L5901 38 L5922 37 L5938 36 L5958 35 L5978 34 L5997 33 L6016 32 L6035 30 L6055 29 L6075 28 L6093 27 L6112 26 L6140 25 L6161 24 L6231 22 L6259 19 L6273 17 L6287 14 L6307 13 L6326 12 L6345 10 L6365 9 L6386 7 L6403 6 L6422 5 L6442 5 L6462 4 L6481 3 L6500 1" />
</svg>
