<svg xmlns="http://www.w3.org/2000/svg" version="1.1" viewBox="0 0 6500 1000">
	<path fill="none" stroke="gold" stroke-width="125" stroke-linecap="round" stroke-linejoin="round" d="M0 37848  L-209977 37848 L-207373 37661 L-205705 37473 L-187375 37099 L-187205 36724 L-180047 36350 L-180014 36350 L-166583 36162 L-163662 36350 L-150321 35788 L-146152 35039 L-144992 34102 L-144373 33166 L-142361 32604 L-138589 32230 L-137989 31855 L-137660 31481 L-137447 31106 L-136905 30732 L-135667 29234 L-134488 27735 L-131624 26237 L-131102 24739 L-126246 24365 L-123309 23990 L-123266 23616 L-122958 23241 L-122706 22867 L-120111 22492 L-115855 22492 L-115838 22492 L-114601 22492 L-112723 22492 L-110770 22117 L-109822 21743 L-109551 21368 L-109241 21181 L-109143 20994 L-108313 20994 L-106282 21181 L-105991 19496 L-103845 18747 L-103690 17623 L-100033 16500 L-99782 17061 L-99684 16874 L-99167 17436 L-97015 18372 L-96087 19308 L-94561 20245 L-93321 20245 L-91775 20058 L-88813 19683 L-87691 19308 L-87382 18934 L-86170 18747 L-83164 20807 L-83144 20619 L-82797 20432 L-82584 20245 L-82457 17623 L-82216 17249 L-82178 16874 L-82158 16500 L-82139 16125 L-82080 15750 L-82021 15376 L-82003 15001 L-81560 14627 L-80321 14252 L-78775 13878 L-75388 13503 L-69661 13316 L-69460 13129 L-67824 12941 L-66102 12754 L-64670 12567 L-64437 12380 L-63722 12192 L-57590 12005 L-57222 11631 L-57068 11256 L-56489 10882 L-56197 10507 L-55230 10132 L-54920 9758 L-54321 9383 L-52715 9383 L-51980 9383 L-51670 9571 L-50902 9571 L-48865 9196 L-48440 8822 L-47628 8634 L-40199 8260 L-39676 7885 L-39502 7511 L-38767 7136 L-37200 6762 L-36794 6574 L-34569 6200 L-33621 6013 L-33196 5825 L-32866 5825 L-31822 5638 L-29714 5264 L-29462 4889 L-28843 4514 L-28030 4327 L-25922 3953 L-25874 3578 L-23946 3204 L-23620 2829 L-23485 2455 L-22982 2267 L-21569 1893 L-21066 1144 L-20544 582 L-16985 -166 L-16250 -915 L-13825 -915 L-12535 -1290 L-12128 -1477 L-8976 -1477 L-8821 -1477 L-8801 -1290 L-8434 -1290 L-7176 -1102 L-6461 -915 L-5571 -915 L-5164 -915 L-4235 -915 L-3127 -1102 L-2824 -353 L3424 20 L4372 395 L5998 769 L6500 956" />
</svg>
