<svg xmlns="http://www.w3.org/2000/svg" version="1.1" viewBox="0 0 6500 1000">
	<path fill="none" stroke="gold" stroke-width="125" stroke-linecap="round" stroke-linejoin="round" d="M0 24220  L-266446 24220 L-263842 24124 L-262174 24028 L-243845 23836 L-243674 23644 L-236517 23452 L-236483 23452 L-223053 23356 L-220131 23452 L-206790 23164 L-202621 22780 L-201461 22299 L-200842 21819 L-198830 21531 L-195058 21339 L-194458 21146 L-194129 20954 L-193916 20762 L-193374 20570 L-192136 19802 L-190958 19033 L-188093 18265 L-187571 17496 L-182715 17304 L-179778 17112 L-179735 16920 L-179427 16728 L-179175 16536 L-176580 16343 L-172325 16343 L-172307 16343 L-171070 16343 L-169192 16343 L-167239 16151 L-166291 15959 L-166020 15767 L-165710 15671 L-165612 15575 L-164782 15575 L-162751 15671 L-162461 14806 L-160314 14422 L-160159 13846 L-156502 13269 L-156251 13558 L-156153 13462 L-155636 13750 L-153484 14230 L-152556 14710 L-151030 15191 L-149790 15191 L-148244 15095 L-145282 14902 L-144160 14710 L-143851 14518 L-142640 14422 L-139633 15479 L-139613 15383 L-139266 15287 L-139053 15191 L-138927 13846 L-138685 13654 L-138647 13462 L-138627 13269 L-138608 13077 L-138549 12885 L-138491 12693 L-138473 12501 L-138030 12309 L-136790 12117 L-135244 11925 L-131857 11732 L-126130 11636 L-125929 11540 L-124293 11444 L-122571 11348 L-121139 11252 L-120907 11156 L-120191 11060 L-114059 10964 L-113691 10772 L-113537 10580 L-112959 10388 L-112666 10195 L-111699 10003 L-111389 9811 L-110790 9619 L-109184 9619 L-108449 9619 L-108139 9715 L-107371 9715 L-105335 9523 L-104909 9331 L-104097 9235 L-96668 9043 L-96145 8851 L-95972 8658 L-95236 8466 L-93669 8274 L-93263 8178 L-91038 7986 L-90090 7890 L-89665 7794 L-89335 7794 L-88291 7698 L-86183 7506 L-85931 7314 L-85312 7121 L-84499 7025 L-82391 6833 L-82343 6641 L-80415 6449 L-80089 6257 L-79954 6065 L-79451 5969 L-78038 5777 L-77535 5392 L-77013 5104 L-73454 4720 L-72719 4336 L-70294 4336 L-69004 4144 L-68597 4048 L-65445 4048 L-65290 4048 L-65270 4144 L-64903 4144 L-63645 4240 L-62930 4336 L-62040 4336 L-61633 4336 L-60705 4336 L-59596 4240 L-59293 4624 L-53044 4816 L-52097 5008 L-50470 5200 L-49969 5296 L-46293 5392 L-45461 5488 L-41507 5585 L-40096 5296 L-37606 5104 L-36930 4912 L-36891 4816 L-36020 4816 L-32809 4720 L-29946 4624 L-28978 4528 L-27857 4336 L-27838 4144 L-26213 3951 L-25748 3663 L-25656 3567 L-19287 3471 L-18339 3375 L-15882 3279 L-15009 3087 L-13773 2991 L-11772 2895 L-11374 2703 L-9938 2511 L-7912 2414 L-7699 2222 L-6519 2126 L-5010 2030 L-4990 1934 L-2978 1838 L-2108 1646 L-1238 1550 L-653 1358 L-115 1166 L541 974 L1779 781 L2340 685 L3521 589 L4759 493 L4797 397 L5184 301 L5726 109 L6500 13" />
</svg>
