<svg xmlns="http://www.w3.org/2000/svg" version="1.1" viewBox="0 0 6500 1000">
	<path fill="none" stroke="gold" stroke-width="125" stroke-linecap="round" stroke-linejoin="round" d="M0 1017  L-716726 1017 L-714122 1017 L-712454 1017 L-694125 1017 L-693954 1017 L-686797 1017 L-686764 1017 L-673333 1017 L-670411 1017 L-657070 1016 L-652901 1016 L-651741 1016 L-651122 1016 L-649110 1015 L-645338 1015 L-644738 1015 L-644409 1015 L-644196 1015 L-643655 1015 L-642417 1014 L-641238 1014 L-638373 1013 L-637851 1013 L-632996 1013 L-630058 1013 L-630015 1013 L-629707 1012 L-629455 1012 L-626860 1012 L-622605 1012 L-622587 1012 L-621350 1012 L-619472 1012 L-617519 1012 L-616571 1012 L-616300 1012 L-615990 1012 L-615892 1012 L-615062 1012 L-613031 1012 L-612741 1011 L-610594 1011 L-610439 1011 L-606782 1010 L-606531 1011 L-606433 1010 L-605916 1011 L-603765 1011 L-602836 1011 L-601310 1012 L-600070 1012 L-598524 1011 L-595562 1011 L-594440 1011 L-594131 1011 L-592920 1011 L-589913 1012 L-589893 1012 L-589546 1012 L-589333 1012 L-589207 1011 L-588965 1011 L-588927 1010 L-588908 1010 L-588888 1010 L-588829 1010 L-588771 1010 L-588753 1010 L-588310 1010 L-587070 1010 L-585524 1009 L-582137 1009 L-576411 1009 L-576209 1009 L-574573 1009 L-572851 1009 L-571419 1009 L-571187 1009 L-570471 1009 L-564339 1009 L-563972 1009 L-563817 1009 L-563239 1009 L-562946 1008 L-561979 1008 L-561669 1008 L-561070 1008 L-559464 1008 L-558729 1008 L-558419 1008 L-557651 1008 L-555615 1008 L-555189 1008 L-554377 1008 L-546948 1008 L-546425 1008 L-546252 1007 L-545517 1007 L-543949 1007 L-543543 1007 L-541318 1007 L-540370 1007 L-539945 1007 L-539615 1007 L-538571 1007 L-536463 1007 L-536211 1007 L-535592 1007 L-534779 1006 L-532671 1006 L-532623 1006 L-530695 1006 L-530369 1006 L-530234 1006 L-529731 1006 L-528318 1006 L-527815 1005 L-527293 1005 L-523734 1005 L-522999 1005 L-520574 1005 L-519285 1005 L-518878 1005 L-515725 1005 L-515570 1005 L-515550 1005 L-515183 1005 L-513925 1005 L-513210 1005 L-512320 1005 L-511913 1005 L-510985 1005 L-509876 1005 L-509573 1005 L-503324 1005 L-502377 1005 L-500750 1005 L-500249 1005 L-496573 1005 L-495741 1005 L-491788 1006 L-490376 1005 L-487886 1005 L-487210 1005 L-487171 1005 L-486300 1005 L-483089 1005 L-480226 1005 L-479258 1005 L-478137 1005 L-478118 1005 L-476493 1005 L-476029 1004 L-475937 1004 L-469567 1004 L-468619 1004 L-466162 1004 L-465289 1004 L-464053 1004 L-462052 1004 L-461655 1004 L-460218 1004 L-458192 1004 L-457979 1003 L-456799 1003 L-455290 1003 L-455270 1003 L-453258 1003 L-452389 1003 L-451518 1003 L-450933 1003 L-450396 1003 L-449738 1003 L-448500 1003 L-447939 1003 L-446758 1002 L-445521 1002 L-445482 1002 L-445095 1002 L-444553 1002 L-443780 1002 L-442657 1002 L-440568 1002 L-440235 1002 L-439949 1002 L-439021 1002 L-438537 1002 L-437802 1001 L-434171 1001 L-433043 1001 L-432888 1001 L-431862 1001 L-428148 1001 L-426930 1001 L-425112 1001 L-422326 1001 L-421765 1001 L-417877 1001 L-415400 1001 L-414065 1001 L-413562 1001 L-413079 1000 L-410389 1000 L-406618 1000 L-404161 1000 L-402981 1000 L-402342 1000 L-399982 1000 L-399905 1000 L-398857 1000 L-398764 1000 L-398261 1000 L-397815 1000 L-397758 1000 L-397544 1000 L-394584 1000 L-391877 1000 L-391722 1000 L-388201 1000 L-387678 1000 L-386711 1000 L-386362 999 L-385318 999 L-384390 999 L-383964 999 L-382455 999 L-381488 999 L-381469 999 L-379573 995 L-379457 990 L-379409 986 L-379385 981 L-376381 981 L-374350 981 L-372589 981 L-372222 981 L-371776 981 L-371410 981 L-370996 981 L-369011 981 L-368797 981 L-368642 981 L-367037 981 L-365915 981 L-364967 981 L-363710 980 L-362065 980 L-360886 980 L-354296 980 L-354250 980 L-353844 980 L-352799 980 L-352663 980 L-350981 980 L-350961 980 L-349624 980 L-348388 980 L-348234 980 L-347860 979 L-347654 979 L-347344 979 L-346570 979 L-344249 979 L-343591 979 L-341463 979 L-339741 979 L-339547 979 L-336994 979 L-336718 979 L-336529 979 L-335697 979 L-334924 978 L-334226 978 L-329226 978 L-328850 978 L-324597 978 L-324110 984 L-324091 984 L-324012 984 L-323936 984 L-323917 978 L-323104 978 L-322350 978 L-321131 978 L-319699 978 L-319603 978 L-319428 978 L-319074 977 L-317765 977 L-315907 977 L-314205 977 L-313702 977 L-313437 977 L-313044 977 L-312909 977 L-312000 977 L-311623 977 L-310695 977 L-310356 977 L-310316 977 L-310278 977 L-308363 977 L-308189 977 L-306660 977 L-306332 977 L-306216 977 L-305809 976 L-305461 976 L-303817 976 L-303266 976 L-303023 976 L-302482 976 L-301650 976 L-301109 976 L-299574 976 L-299482 976 L-299445 976 L-299309 976 L-298922 976 L-297897 976 L-296021 975 L-295924 975 L-295324 977 L-294957 979 L-294472 981 L-294434 983 L-293661 984 L-293603 984 L-293429 983 L-293235 983 L-291630 983 L-291610 983 L-291454 983 L-291339 983 L-290160 983 L-290005 984 L-289338 984 L-286890 988 L-284375 993 L-281705 998 L-274006 1003 L-268338 1003 L-266123 1003 L-266100 1003 L-265126 1004 L-265106 1004 L-264243 1004 L-261502 1004 L-255704 1003 L-255550 1003 L-252765 1003 L-239156 1003 L-238410 1002 L-234000 1002 L-217653 1002 L-217421 1002 L-216884 1002 L-208425 1002 L-199719 1002 L-199507 1002 L-197534 1002 L-194748 1002 L-190261 1002 L-190106 1002 L-189937 1002 L-189796 1002 L-189506 1002 L-189467 1002 L-189196 1002 L-189025 1002 L-188614 1001 L-187494 1001 L-186314 1001 L-185037 1001 L-182173 1001 L-179253 1001 L-177261 1001 L-175713 1001 L-172675 1001 L-163351 1001 L-162827 1001 L-157103 1001 L-155596 1001 L-154781 1001 L-153098 1001 L-152377 1001 L-152208 1000 L-151163 1000 L-149096 1000 L-147734 1000 L-143290 1000 L-143193 1000 L-143155 1000 L-143136 1000 L-142303 1000 L-142225 1000 L-139653 1000 L-136404 1000 L-136249 1000 L-135300 1000 L-133559 1000 L-132844 1000 L-129303 1000 L-122726 1001 L-121309 1001 L-121288 1001 L-120337 1001 L-116863 1001 L-116110 1001 L-115548 1001 L-114766 1001 L-107262 1001 L-105663 1000 L-104089 1000 L-100904 1000 L-96571 1000 L-88001 1000 L-79255 1000 L-76181 1000 L-72915 1000 L-72369 1000 L-65231 1000 L-59564 1000 L-45499 1000 L-39488 1000 L-34782 1000 L-30778 1000 L-25671 1000 L-15957 1000 L-386 1000 L2695 999 L2998 973 L3017 940 L3036 902 L3056 860 L3075 841 L3095 825 L3113 810 L3141 796 L3162 781 L3190 766 L3225 750 L3239 736 L3252 724 L3270 714 L3289 706 L3309 699 L3327 691 L3347 684 L3366 676 L3387 668 L3404 660 L3423 653 L3444 645 L3463 638 L3482 630 L3501 622 L3520 613 L3541 605 L3559 597 L3578 590 L3599 582 L3624 575 L3638 568 L3656 561 L3675 554 L3695 548 L3714 540 L3733 533 L3753 526 L3773 519 L3791 512 L3810 506 L3831 501 L3851 495 L3868 490 L3887 486 L3907 481 L3926 477 L3946 473 L3965 469 L3985 466 L4004 463 L4023 459 L4042 456 L4069 452 L4090 448 L4118 443 L4152 438 L4166 434 L4179 430 L4198 427 L4217 424 L4237 421 L4255 417 L4275 414 L4295 410 L4315 407 L4333 404 L4352 401 L4372 398 L4392 394 L4410 390 L4429 385 L4449 381 L4469 376 L4487 371 L4506 366 L4527 361 L4552 355 L4566 349 L4584 344 L4603 339 L4623 333 L4642 327 L4661 322 L4681 316 L4701 310 L4720 305 L4738 299 L4759 294 L4779 289 L4797 285 L4816 280 L4836 276 L4855 272 L4874 268 L4893 264 L4913 260 L4932 256 L4952 252 L4971 248 L4999 244 L5019 241 L5047 237 L5084 232 L5099 228 L5112 224 L5129 220 L5146 218 L5166 215 L5184 213 L5203 210 L5223 208 L5244 206 L5261 204 L5280 201 L5300 198 L5320 195 L5339 192 L5357 189 L5377 186 L5397 182 L5416 178 L5435 175 L5456 172 L5480 168 L5495 165 L5512 161 L5532 158 L5551 154 L5571 150 L5590 147 L5610 143 L5630 139 L5648 136 L5667 132 L5687 129 L5708 126 L5725 123 L5744 120 L5764 117 L5783 114 L5803 111 L5822 108 L5842 105 L5861 103 L5880 100 L5899 97 L5927 94 L5947 92 L5975 88 L6012 84 L6026 80 L6039 76 L6056 72 L6074 70 L6094 68 L6113 65 L6133 62 L6152 59 L6173 56 L6192 52 L6209 49 L6229 45 L6250 41 L6268 37 L6286 32 L6306 28 L6327 23 L6345 19 L6363 16 L6385 13 L6410 11 L6424 9 L6442 7 L6461 5 L6480 2 L6500 0" />
</svg>
