<svg xmlns="http://www.w3.org/2000/svg" version="1.1" viewBox="0 0 6500 1000">
	<path fill="none" stroke="gold" stroke-width="125" stroke-linecap="round" stroke-linejoin="round" d="M0 3864  L-724150 3864 L-721546 3864 L-719878 3864 L-701548 3863 L-701378 3863 L-694220 3862 L-694187 3862 L-680756 3862 L-677834 3862 L-664493 3862 L-660324 3861 L-659164 3860 L-658545 3859 L-656533 3859 L-652761 3859 L-652161 3858 L-651833 3858 L-651620 3857 L-651078 3857 L-649840 3856 L-648661 3854 L-645797 3853 L-645274 3851 L-640419 3851 L-637482 3851 L-637439 3850 L-637130 3850 L-636878 3850 L-634284 3849 L-630028 3849 L-630010 3849 L-628773 3849 L-626896 3849 L-624942 3849 L-623994 3849 L-623724 3848 L-623414 3848 L-623316 3848 L-622485 3848 L-620454 3848 L-620164 3846 L-618018 3846 L-617862 3845 L-614206 3844 L-613955 3844 L-613856 3844 L-613339 3844 L-611188 3845 L-610259 3846 L-608733 3847 L-607494 3847 L-605947 3847 L-602985 3847 L-601863 3846 L-601554 3846 L-600343 3846 L-597336 3848 L-597317 3848 L-596969 3847 L-596756 3847 L-596630 3845 L-596388 3844 L-596351 3844 L-596331 3844 L-596312 3843 L-596253 3843 L-596194 3843 L-596176 3842 L-595733 3842 L-594494 3841 L-592948 3841 L-589560 3841 L-583834 3841 L-583632 3840 L-581996 3840 L-580275 3840 L-578842 3840 L-578610 3840 L-577895 3840 L-571763 3839 L-571395 3839 L-571240 3839 L-570662 3838 L-570369 3838 L-569402 3838 L-569093 3837 L-568494 3837 L-566887 3837 L-566152 3837 L-565842 3837 L-565074 3837 L-563038 3837 L-562613 3836 L-561800 3836 L-554372 3836 L-553849 3835 L-553675 3835 L-552940 3835 L-551372 3834 L-550967 3834 L-548742 3834 L-547794 3834 L-547369 3833 L-547038 3833 L-545995 3833 L-543886 3833 L-543634 3833 L-543015 3832 L-542203 3832 L-540095 3832 L-540046 3831 L-538118 3831 L-537792 3831 L-537657 3830 L-537154 3830 L-535742 3830 L-535239 3829 L-534717 3828 L-531157 3828 L-530422 3827 L-527997 3827 L-526708 3827 L-526301 3827 L-523148 3827 L-522994 3827 L-522973 3827 L-522607 3827 L-521348 3827 L-520633 3827 L-519744 3827 L-519337 3827 L-518408 3827 L-517299 3827 L-516996 3828 L-510747 3828 L-509800 3828 L-508174 3829 L-507672 3829 L-503996 3829 L-503164 3829 L-499211 3829 L-497799 3829 L-495310 3828 L-494633 3828 L-494595 3828 L-493724 3828 L-490513 3828 L-487649 3828 L-486681 3827 L-485560 3827 L-485541 3827 L-483916 3826 L-483452 3826 L-483360 3826 L-476991 3825 L-476042 3825 L-473585 3825 L-472713 3825 L-471477 3825 L-469475 3824 L-469078 3824 L-467642 3824 L-465615 3823 L-465402 3823 L-464222 3823 L-462714 3823 L-462694 3823 L-460681 3822 L-459812 3822 L-458941 3822 L-458356 3822 L-457819 3821 L-457161 3821 L-455923 3820 L-455363 3820 L-454181 3820 L-452944 3820 L-452905 3820 L-452518 3820 L-451977 3819 L-451203 3819 L-450081 3819 L-447992 3819 L-447658 3818 L-447372 3818 L-446444 3818 L-445961 3817 L-445225 3817 L-441594 3817 L-440466 3817 L-440312 3817 L-439286 3816 L-435571 3816 L-434354 3816 L-432535 3815 L-429749 3815 L-429188 3815 L-425300 3815 L-422824 3815 L-421489 3815 L-420985 3814 L-420502 3814 L-417813 3814 L-414041 3814 L-411584 3814 L-410404 3814 L-409765 3814 L-407405 3814 L-407328 3814 L-406280 3813 L-406187 3813 L-405684 3813 L-405239 3813 L-405181 3813 L-404967 3813 L-402008 3813 L-399300 3812 L-399145 3812 L-395624 3812 L-395102 3812 L-394134 3811 L-393785 3811 L-392742 3811 L-391813 3811 L-391387 3810 L-389878 3810 L-388911 3810 L-388892 3810 L-386996 3797 L-386880 3784 L-386832 3770 L-386808 3757 L-383804 3757 L-381773 3757 L-380012 3757 L-379645 3756 L-379200 3756 L-378833 3756 L-378419 3756 L-376434 3755 L-376221 3755 L-376066 3755 L-374461 3755 L-373339 3755 L-372390 3755 L-371133 3754 L-369489 3754 L-368309 3754 L-361720 3754 L-361673 3754 L-361267 3753 L-360222 3753 L-360087 3753 L-358404 3753 L-358384 3752 L-357047 3752 L-355811 3752 L-355657 3752 L-355283 3751 L-355077 3751 L-354767 3751 L-353994 3751 L-351672 3751 L-351014 3750 L-348886 3750 L-347164 3750 L-346971 3750 L-344417 3749 L-344141 3749 L-343953 3749 L-343120 3749 L-342348 3748 L-341650 3748 L-336649 3748 L-336273 3748 L-332020 3748 L-331533 3765 L-331514 3765 L-331435 3765 L-331360 3765 L-331340 3747 L-330527 3747 L-329773 3746 L-328554 3746 L-327122 3746 L-327026 3746 L-326852 3746 L-326497 3746 L-325188 3745 L-323331 3745 L-321628 3745 L-321125 3745 L-320860 3744 L-320467 3744 L-320333 3744 L-319423 3744 L-319047 3744 L-318118 3744 L-317779 3744 L-317739 3744 L-317702 3743 L-315786 3743 L-315613 3743 L-314084 3743 L-313756 3743 L-313639 3743 L-313232 3743 L-312884 3742 L-311241 3742 L-310690 3742 L-310446 3742 L-309905 3741 L-309074 3741 L-308532 3741 L-306998 3741 L-306905 3740 L-306868 3740 L-306732 3740 L-306345 3740 L-305320 3740 L-303444 3740 L-303348 3739 L-302747 3745 L-302380 3751 L-301896 3757 L-301858 3763 L-301084 3764 L-301026 3764 L-300852 3763 L-300658 3763 L-299053 3763 L-299033 3762 L-298878 3763 L-298762 3763 L-297583 3763 L-297428 3764 L-296761 3764 L-294313 3778 L-291798 3793 L-289128 3808 L-281429 3822 L-275761 3822 L-273547 3822 L-273523 3822 L-272550 3825 L-272530 3825 L-271666 3825 L-268926 3825 L-263127 3821 L-262974 3821 L-260188 3821 L-246580 3820 L-245834 3820 L-241423 3820 L-225077 3820 L-224845 3819 L-224308 3819 L-215848 3819 L-207143 3819 L-206930 3819 L-204958 3818 L-202171 3818 L-197684 3819 L-197529 3818 L-197360 3818 L-197220 3818 L-196929 3818 L-196890 3818 L-196620 3817 L-196448 3817 L-196038 3817 L-194917 3817 L-193737 3817 L-192460 3817 L-189596 3816 L-186676 3816 L-184684 3816 L-183136 3816 L-180098 3815 L-170774 3815 L-170250 3815 L-164526 3815 L-163019 3815 L-162204 3815 L-160521 3815 L-159800 3814 L-159631 3814 L-158586 3814 L-156519 3814 L-155157 3814 L-150714 3814 L-150616 3813 L-150578 3813 L-150559 3813 L-149726 3813 L-149649 3812 L-147076 3812 L-143827 3812 L-143672 3812 L-142724 3812 L-140983 3811 L-140267 3812 L-136727 3813 L-130149 3814 L-128732 3816 L-128711 3816 L-127761 3815 L-124286 3815 L-123533 3815 L-122971 3815 L-122189 3815 L-114685 3814 L-113087 3814 L-111513 3814 L-108327 3814 L-103994 3814 L-95425 3814 L-86678 3814 L-83604 3813 L-80338 3813 L-79792 3813 L-72655 3813 L-66987 3813 L-52923 3813 L-46911 3813 L-42205 3813 L-38202 3812 L-33094 3812 L-23380 3812 L-7810 3812 L-4727 3811 L-4425 3731 L-4405 3633 L-4386 3520 L-4366 3395 L-4347 3338 L-4328 3290 L-4309 3246 L-4281 3202 L-4261 3160 L-4233 3115 L-4197 3065 L-4184 3024 L-4171 2988 L-4152 2958 L-4134 2936 L-4114 2913 L-4095 2890 L-4076 2868 L-4056 2845 L-4035 2821 L-4018 2798 L-3999 2775 L-3979 2754 L-3959 2732 L-3941 2708 L-3922 2683 L-3902 2658 L-3882 2633 L-3863 2610 L-3845 2587 L-3823 2565 L-3799 2543 L-3784 2523 L-3767 2502 L-3747 2482 L-3728 2462 L-3709 2440 L-3690 2417 L-3670 2396 L-3649 2376 L-3631 2356 L-3612 2338 L-3592 2321 L-3571 2305 L-3554 2291 L-3535 2277 L-3515 2263 L-3496 2250 L-3477 2238 L-3458 2227 L-3438 2217 L-3418 2207 L-3399 2198 L-3380 2188 L-3353 2176 L-3332 2164 L-3304 2150 L-3270 2135 L-3256 2122 L-3243 2111 L-3224 2101 L-3205 2092 L-3185 2083 L-3167 2073 L-3148 2062 L-3128 2052 L-3107 2042 L-3090 2033 L-3071 2024 L-3051 2014 L-3031 2003 L-3012 1990 L-2994 1977 L-2973 1963 L-2954 1949 L-2935 1935 L-2916 1920 L-2895 1904 L-2871 1887 L-2856 1869 L-2839 1853 L-2819 1837 L-2800 1821 L-2780 1804 L-2761 1786 L-2741 1769 L-2721 1752 L-2703 1736 L-2684 1720 L-2664 1705 L-2643 1690 L-2626 1676 L-2607 1663 L-2586 1649 L-2568 1638 L-2548 1626 L-2529 1614 L-2509 1602 L-2490 1590 L-2471 1578 L-2452 1567 L-2423 1555 L-2403 1544 L-2376 1533 L-2338 1520 L-2323 1507 L-2311 1495 L-2294 1484 L-2277 1476 L-2257 1468 L-2238 1461 L-2219 1454 L-2199 1448 L-2178 1441 L-2161 1434 L-2142 1426 L-2122 1417 L-2102 1409 L-2084 1400 L-2065 1391 L-2045 1380 L-2025 1370 L-2006 1359 L-1988 1349 L-1966 1339 L-1942 1328 L-1927 1318 L-1910 1307 L-1890 1296 L-1871 1286 L-1852 1275 L-1833 1264 L-1813 1252 L-1792 1241 L-1774 1231 L-1755 1221 L-1735 1211 L-1715 1202 L-1697 1193 L-1678 1184 L-1658 1175 L-1639 1166 L-1619 1157 L-1601 1149 L-1581 1141 L-1561 1132 L-1542 1124 L-1523 1116 L-1495 1107 L-1475 1099 L-1447 1089 L-1411 1076 L-1397 1064 L-1383 1052 L-1366 1042 L-1348 1036 L-1328 1029 L-1310 1021 L-1290 1012 L-1270 1003 L-1249 993 L-1230 982 L-1214 972 L-1193 960 L-1173 948 L-1155 935 L-1136 922 L-1116 908 L-1096 895 L-1078 884 L-1059 874 L-1038 866 L-1013 859 L-998 853 L-981 847 L-962 840 L-942 833 L-923 826 L-904 819 L-884 812 L-863 807 L-846 802 L-827 796 L-806 788 L-785 779 L-768 770 L-749 764 L-729 758 L-710 754 L-691 750 L-672 746 L-652 742 L-632 737 L-613 732 L-595 727 L-567 723 L-546 719 L-518 714 L-484 708 L-470 703 L-457 698 L-438 694 L-419 691 L-400 688 L-381 684 L-361 680 L-342 677 L-321 674 L-304 671 L-285 667 L-264 663 L-244 659 L-226 654 L-208 651 L-188 648 L-167 644 L-149 641 L-130 637 L-109 634 L-84 631 L-70 628 L-53 625 L-33 622 L-14 618 L5 615 L24 611 L44 607 L64 603 L82 599 L101 596 L121 593 L142 590 L159 587 L178 583 L198 581 L217 578 L237 575 L255 572 L276 570 L295 568 L314 566 L333 570 L362 573 L381 577 L409 580 L447 577 L462 574 L475 572 L492 570 L508 568 L528 566 L547 564 L566 562 L586 560 L607 559 L624 557 L642 555 L663 553 L683 551 L701 549 L720 547 L740 544 L760 542 L778 540 L797 539 L819 537 L843 535 L858 533 L875 531 L895 529 L914 527 L933 525 L952 523 L972 520 L993 517 L1011 514 L1029 512 L1050 509 L1071 507 L1088 504 L1107 501 L1127 499 L1146 497 L1165 494 L1184 491 L1204 488 L1224 486 L1243 484 L1262 482 L1289 480 L1310 478 L1338 475 L1373 472 L1386 470 L1399 468 L1418 465 L1437 463 L1457 461 L1475 459 L1495 457 L1514 455 L1535 453 L1552 451 L1571 448 L1592 446 L1612 443 L1630 440 L1649 437 L1668 433 L1689 430 L1707 427 L1726 424 L1747 421 L1772 418 L1787 415 L1804 411 L1823 408 L1843 405 L1862 402 L1881 399 L1901 396 L1922 393 L1939 390 L1958 387 L1979 384 L1999 382 L2016 380 L2035 377 L2055 375 L2074 373 L2094 372 L2113 370 L2132 368 L2152 367 L2171 365 L2190 364 L2218 362 L2238 360 L2266 358 L2302 355 L2315 352 L2329 349 L2347 346 L2365 344 L2385 342 L2404 340 L2423 338 L2443 336 L2464 334 L2481 332 L2500 330 L2520 327 L2540 325 L2558 322 L2577 320 L2597 317 L2618 314 L2635 312 L2654 310 L2676 308 L2701 306 L2715 304 L2732 302 L2752 300 L2771 298 L2791 295 L2809 292 L2829 289 L2851 285 L2868 282 L2887 279 L2907 277 L2928 274 L2945 272 L2964 271 L2984 269 L3003 268 L3023 266 L3041 265 L3061 263 L3081 261 L3100 260 L3119 259 L3146 257 L3167 256 L3195 254 L3229 253 L3243 251 L3256 250 L3275 249 L3294 247 L3313 246 L3332 245 L3351 244 L3371 243 L3392 242 L3409 241 L3428 239 L3448 238 L3468 236 L3487 235 L3505 234 L3526 233 L3546 232 L3564 231 L3583 230 L3604 230 L3629 228 L3643 227 L3661 226 L3680 224 L3699 223 L3719 222 L3738 221 L3758 219 L3778 217 L3796 215 L3815 212 L3835 210 L3856 207 L3874 206 L3893 204 L3912 203 L3931 201 L3951 199 L3970 197 L3990 196 L4009 195 L4029 193 L4047 192 L4076 191 L4124 190 L4160 189 L4175 187 L4188 186 L4205 185 L4222 185 L4242 184 L4261 183 L4280 182 L4300 181 L4321 180 L4338 179 L4357 179 L4377 178 L4397 177 L4415 176 L4434 175 L4454 173 L4474 172 L4492 171 L4511 170 L4533 168 L4557 166 L4572 164 L4589 162 L4609 160 L4628 158 L4647 157 L4666 155 L4686 153 L4707 152 L4725 150 L4744 148 L4764 147 L4784 145 L4802 144 L4821 143 L4841 142 L4860 141 L4880 139 L4898 138 L4918 137 L4938 135 L4957 134 L4976 133 L5004 131 L5024 130 L5052 128 L5089 125 L5104 122 L5116 120 L5134 118 L5151 116 L5171 115 L5189 114 L5209 113 L5229 112 L5250 111 L5267 110 L5285 108 L5306 106 L5326 104 L5344 102 L5363 99 L5383 97 L5404 94 L5421 92 L5440 90 L5462 89 L5486 87 L5502 85 L5519 83 L5537 82 L5558 80 L5576 79 L5595 76 L5615 74 L5637 72 L5653 71 L5673 69 L5693 68 L5714 66 L5731 65 L5750 63 L5769 62 L5789 61 L5808 59 L5827 58 L5847 56 L5867 55 L5886 54 L5905 53 L5932 997 L5953 995 L5981 994 L6016 991 L6030 44 L6044 43 L6062 41 L6080 40 L6099 39 L6118 38 L6137 37 L6157 36 L6179 34 L6195 32 L6214 30 L6235 28 L6255 25 L6273 23 L6292 20 L6312 18 L6332 16 L6350 14 L6369 13 L6390 11 L6415 9 L6430 7 L6460 4 L6500 1" />
</svg>
