<svg xmlns="http://www.w3.org/2000/svg" version="1.1" viewBox="0 0 6500 1000">
	<path fill="none" stroke="gold" stroke-width="125" stroke-linecap="round" stroke-linejoin="round" d="M0 1877  L-720769 1877 L-718165 1877 L-716497 1877 L-698167 1877 L-697997 1876 L-690839 1876 L-690806 1876 L-677375 1876 L-674453 1876 L-661112 1876 L-656943 1876 L-655783 1875 L-655164 1875 L-653152 1874 L-649381 1874 L-648781 1874 L-648452 1874 L-648239 1874 L-647697 1873 L-646459 1873 L-645280 1872 L-642416 1871 L-641894 1870 L-637038 1870 L-634101 1870 L-634058 1870 L-633749 1870 L-633498 1870 L-630903 1869 L-626647 1869 L-626629 1869 L-625392 1869 L-623515 1869 L-621562 1869 L-620614 1869 L-620343 1869 L-620033 1869 L-619935 1869 L-619104 1869 L-617074 1869 L-616783 1868 L-614637 1868 L-614481 1867 L-610825 1866 L-610574 1867 L-610475 1867 L-609958 1867 L-607807 1867 L-606878 1868 L-605352 1868 L-604113 1868 L-602566 1868 L-599604 1868 L-598483 1868 L-598173 1868 L-596962 1868 L-593956 1869 L-593936 1868 L-593589 1868 L-593375 1868 L-593249 1867 L-593008 1867 L-592970 1867 L-592950 1866 L-592931 1866 L-592872 1866 L-592813 1866 L-592795 1866 L-592352 1865 L-591113 1865 L-589567 1865 L-586179 1865 L-580453 1865 L-580251 1865 L-578616 1865 L-576894 1865 L-575462 1864 L-575229 1864 L-574514 1864 L-568382 1864 L-568014 1864 L-567860 1864 L-567281 1864 L-566989 1863 L-566021 1863 L-565712 1863 L-565113 1863 L-563506 1863 L-562771 1863 L-562462 1863 L-561693 1863 L-559657 1863 L-559232 1863 L-558419 1863 L-550991 1862 L-550468 1862 L-550294 1862 L-549559 1862 L-547991 1862 L-547586 1861 L-545361 1861 L-544413 1861 L-543988 1861 L-543658 1861 L-542614 1861 L-540506 1861 L-540253 1861 L-539635 1860 L-538822 1860 L-536714 1860 L-536665 1860 L-534737 1860 L-534412 1860 L-534277 1859 L-533773 1859 L-532361 1859 L-531858 1859 L-531336 1859 L-527776 1858 L-527041 1858 L-524616 1858 L-523327 1858 L-522920 1858 L-519768 1858 L-519613 1858 L-519592 1858 L-519226 1858 L-517968 1858 L-517253 1858 L-516363 1858 L-515956 1858 L-515027 1858 L-513919 1858 L-513615 1858 L-507367 1858 L-506419 1858 L-504793 1859 L-504291 1859 L-500616 1859 L-499783 1859 L-495830 1859 L-494418 1859 L-491929 1859 L-491252 1858 L-491214 1858 L-490343 1858 L-487132 1858 L-484269 1858 L-483301 1858 L-482179 1858 L-482160 1858 L-480535 1857 L-480071 1857 L-479979 1857 L-473610 1857 L-472661 1857 L-470204 1857 L-469332 1857 L-468096 1856 L-466095 1856 L-465697 1856 L-464261 1856 L-462235 1856 L-462021 1856 L-460841 1856 L-459333 1856 L-459313 1855 L-457300 1855 L-456431 1855 L-455560 1855 L-454975 1855 L-454438 1855 L-453780 1855 L-452542 1854 L-451982 1854 L-450801 1854 L-449563 1854 L-449524 1854 L-449138 1854 L-448596 1854 L-447822 1854 L-446700 1854 L-444611 1853 L-444277 1853 L-443992 1853 L-443063 1853 L-442580 1853 L-441844 1853 L-438213 1853 L-437086 1852 L-436931 1852 L-435905 1852 L-432190 1852 L-430973 1852 L-429154 1852 L-426369 1852 L-425807 1851 L-421919 1851 L-419443 1851 L-418108 1851 L-417604 1851 L-417121 1851 L-414432 1851 L-410660 1851 L-408203 1851 L-407023 1851 L-406384 1851 L-404025 1851 L-403947 1851 L-402900 1851 L-402806 1850 L-402303 1850 L-401858 1850 L-401800 1850 L-401586 1850 L-398627 1850 L-395919 1850 L-395764 1850 L-392244 1850 L-391721 1850 L-390753 1850 L-390404 1850 L-389361 1849 L-388432 1849 L-388006 1849 L-386497 1849 L-385530 1849 L-385512 1849 L-383616 1842 L-383500 1835 L-383452 1828 L-383427 1821 L-380423 1821 L-378392 1821 L-376632 1821 L-376264 1821 L-375819 1821 L-375452 1821 L-375038 1821 L-373053 1820 L-372840 1820 L-372685 1820 L-371080 1820 L-369958 1820 L-369010 1820 L-367752 1820 L-366108 1820 L-364928 1820 L-358339 1820 L-358292 1820 L-357886 1819 L-356841 1819 L-356706 1819 L-355023 1819 L-355003 1819 L-353667 1819 L-352430 1819 L-352276 1819 L-351902 1818 L-351696 1818 L-351387 1818 L-350613 1818 L-348291 1818 L-347633 1818 L-345506 1818 L-343783 1818 L-343590 1818 L-341036 1817 L-340760 1817 L-340572 1817 L-339739 1817 L-338967 1817 L-338269 1817 L-333268 1817 L-332892 1817 L-328639 1816 L-328152 1826 L-328133 1826 L-328054 1826 L-327979 1825 L-327959 1816 L-327146 1816 L-326392 1816 L-325173 1816 L-323741 1816 L-323645 1816 L-323471 1816 L-323116 1815 L-321807 1815 L-319950 1815 L-318247 1815 L-317745 1815 L-317479 1815 L-317086 1815 L-316952 1815 L-316042 1815 L-315666 1814 L-314737 1814 L-314398 1814 L-314359 1814 L-314321 1814 L-312405 1814 L-312232 1814 L-310703 1814 L-310375 1814 L-310259 1814 L-309852 1814 L-309503 1814 L-307860 1814 L-307309 1813 L-307066 1813 L-306524 1813 L-305693 1813 L-305151 1813 L-303617 1813 L-303525 1813 L-303488 1813 L-303352 1813 L-302964 1812 L-301940 1812 L-300063 1812 L-299967 1812 L-299367 1815 L-299000 1818 L-298515 1821 L-298477 1825 L-297703 1825 L-297646 1825 L-297471 1825 L-297277 1824 L-295672 1824 L-295652 1824 L-295497 1824 L-295382 1824 L-294202 1825 L-294047 1825 L-293380 1825 L-290932 1832 L-288417 1840 L-285747 1848 L-278048 1855 L-272380 1855 L-270166 1855 L-270143 1855 L-269169 1857 L-269149 1857 L-268285 1857 L-265545 1857 L-259746 1855 L-259593 1855 L-256807 1854 L-243199 1854 L-242453 1854 L-238042 1854 L-221696 1854 L-221464 1854 L-220927 1854 L-212467 1854 L-203762 1853 L-203549 1853 L-201577 1853 L-198791 1853 L-194303 1853 L-194148 1853 L-193979 1853 L-193839 1853 L-193548 1853 L-193510 1853 L-193239 1853 L-193067 1853 L-192657 1853 L-191536 1853 L-190356 1852 L-189079 1852 L-186215 1852 L-183295 1852 L-181303 1852 L-179755 1852 L-176718 1852 L-167393 1852 L-166869 1852 L-161145 1852 L-159638 1851 L-158824 1851 L-157140 1851 L-156419 1851 L-156251 1851 L-155205 1851 L-153138 1851 L-151776 1851 L-147333 1851 L-147236 1851 L-147197 1851 L-147178 1850 L-146346 1850 L-146268 1850 L-143695 1850 L-140446 1850 L-140291 1850 L-139343 1850 L-137602 1850 L-136886 1850 L-133346 1851 L-126768 1851 L-125351 1852 L-125330 1852 L-124380 1852 L-120905 1852 L-120152 1851 L-119590 1851 L-118808 1851 L-111304 1851 L-109706 1851 L-108132 1851 L-104947 1851 L-100614 1851 L-92044 1851 L-83297 1851 L-80224 1851 L-76958 1850 L-76411 1850 L-69274 1850 L-63606 1850 L-49542 1850 L-43530 1850 L-38824 1850 L-34821 1850 L-29713 1850 L-19999 1850 L-4429 1850 L-1346 1850 L-1044 1808 L-1024 1757 L-1005 1698 L-986 1633 L-966 1603 L-947 1578 L-928 1555 L-901 1533 L-880 1510 L-852 1487 L-816 1461 L-803 1440 L-790 1421 L-771 1405 L-753 1394 L-733 1382 L-715 1370 L-695 1359 L-675 1347 L-654 1334 L-637 1322 L-619 1310 L-598 1299 L-578 1288 L-560 1275 L-541 1263 L-521 1249 L-501 1237 L-483 1224 L-464 1212 L-443 1201 L-418 1190 L-403 1179 L-386 1168 L-366 1158 L-347 1147 L-328 1136 L-309 1124 L-289 1113 L-268 1103 L-250 1092 L-232 1083 L-211 1074 L-190 1065 L-173 1058 L-154 1051 L-134 1044 L-115 1037 L-96 1031 L-77 1025 L-57 1020 L-37 1015 L-18 1010 L0 1005 L27 999 L48 992 L76 985 L110 977 L124 970 L137 965 L156 959 L175 955 L194 950 L213 945 L232 939 L252 934 L273 929 L290 924 L309 919 L329 914 L349 908 L368 902 L386 895 L406 888 L426 880 L445 873 L464 865 L485 857 L509 848 L524 839 L541 830 L561 822 L580 814 L600 805 L618 796 L639 787 L659 778 L677 769 L696 761 L716 753 L737 745 L754 738 L773 731 L793 724 L812 718 L832 712 L851 706 L870 700 L890 694 L909 687 L928 681 L957 675 L977 670 L1004 664 L1042 657 L1057 650 L1069 644 L1086 638 L1103 634 L1123 630 L1142 626 L1161 623 L1181 620 L1201 616 L1219 612 L1238 608 L1258 604 L1278 599 L1296 595 L1315 590 L1335 584 L1355 579 L1374 573 L1392 568 L1413 563 L1438 557 L1452 552 L1470 546 L1490 541 L1509 535 L1528 530 L1547 524 L1567 518 L1587 512 L1606 506 L1625 501 L1645 496 L1665 491 L1683 487 L1702 482 L1722 478 L1740 473 L1760 468 L1779 464 L1799 460 L1818 455 L1838 451 L1857 447 L1885 442 L1905 438 L1933 433 L1969 426 L1983 420 L1996 414 L2014 408 L2032 405 L2052 401 L2070 397 L2090 393 L2110 388 L2131 383 L2149 377 L2166 372 L2187 366 L2207 359 L2225 353 L2244 346 L2264 338 L2284 332 L2302 326 L2321 321 L2342 317 L2367 313 L2382 310 L2399 307 L2418 303 L2438 299 L2457 296 L2476 292 L2496 289 L2517 286 L2534 283 L2553 280 L2574 276 L2595 271 L2611 267 L2630 263 L2651 261 L2669 258 L2689 256 L2708 254 L2728 252 L2747 249 L2766 247 L2785 244 L2813 242 L2834 240 L2861 237 L2896 234 L2910 232 L2923 229 L2942 227 L2960 226 L2980 224 L2999 222 L3018 220 L3038 218 L3059 217 L3076 215 L3095 213 L3116 211 L3135 209 L3153 207 L3172 205 L3192 203 L3212 201 L3231 199 L3250 198 L3271 196 L3296 194 L3310 193 L3327 191 L3347 189 L3366 188 L3386 186 L3405 184 L3424 182 L3445 180 L3463 178 L3482 176 L3502 174 L3523 173 L3540 171 L3559 170 L3579 168 L3598 166 L3618 165 L3636 164 L3656 163 L3676 161 L3695 160 L3714 162 L3743 164 L3762 166 L3790 168 L3828 166 L3843 165 L3855 164 L3873 163 L3889 162 L3909 161 L3927 160 L3947 158 L3967 157 L3988 157 L4005 156 L4023 155 L4044 154 L4064 153 L4082 151 L4101 150 L4121 149 L4141 148 L4159 147 L4178 146 L4199 145 L4224 145 L4239 143 L4256 142 L4275 141 L4295 140 L4314 139 L4333 138 L4353 137 L4374 135 L4391 134 L4410 132 L4431 131 L4451 130 L4469 128 L4488 127 L4508 126 L4526 124 L4546 123 L4565 122 L4585 120 L4605 119 L4624 118 L4642 117 L4670 116 L4691 114 L4719 113 L4753 112 L4767 110 L4780 109 L4799 108 L4818 107 L4838 106 L4856 105 L4876 104 L4895 103 L4916 101 L4933 100 L4952 99 L4973 98 L4993 97 L5011 95 L5029 93 L5049 91 L5070 90 L5088 88 L5107 87 L5128 85 L5153 83 L5168 82 L5185 80 L5204 78 L5224 77 L5243 75 L5262 73 L5282 72 L5303 70 L5320 69 L5339 67 L5360 66 L5380 65 L5397 63 L5416 62 L5436 61 L5455 60 L5475 59 L5494 58 L5513 57 L5533 57 L5552 56 L5571 55 L5599 54 L5619 53 L5647 52 L5683 51 L5696 49 L5709 47 L5728 46 L5746 45 L5766 44 L5784 43 L5804 42 L5824 41 L5845 40 L5862 39 L5880 37 L5901 36 L5921 35 L5939 34 L5958 32 L5978 31 L5998 30 L6016 28 L6035 27 L6057 26 L6082 25 L6096 24 L6113 23 L6133 22 L6152 21 L6171 20 L6190 18 L6210 16 L6231 14 L6248 13 L6268 11 L6288 10 L6309 9 L6326 8 L6345 7 L6365 6 L6384 5 L6403 5 L6422 4 L6442 3 L6462 2 L6481 1 L6500 0" />
</svg>
