<svg xmlns="http://www.w3.org/2000/svg" version="1.1" viewBox="0 0 6500 1000">
	<path fill="none" stroke="gold" stroke-width="125" stroke-linecap="round" stroke-linejoin="round" d="M0 3306  L-728311 3306 L-725707 3305 L-724039 3305 L-705710 3305 L-705539 3305 L-698382 3304 L-698348 3304 L-684918 3304 L-681996 3304 L-668655 3304 L-664486 3303 L-663326 3303 L-662707 3302 L-660695 3302 L-656923 3301 L-656323 3301 L-655994 3301 L-655781 3300 L-655239 3300 L-654001 3299 L-652823 3298 L-649958 3297 L-649436 3296 L-644580 3295 L-641643 3295 L-641600 3295 L-641292 3294 L-641040 3294 L-638445 3294 L-634190 3294 L-634172 3294 L-632935 3294 L-631057 3294 L-629104 3294 L-628156 3293 L-627885 3293 L-627575 3293 L-627477 3293 L-626647 3293 L-624616 3293 L-624326 3292 L-622179 3291 L-622024 3290 L-618367 3289 L-618116 3290 L-618018 3290 L-617501 3290 L-615349 3291 L-614421 3291 L-612895 3292 L-611655 3292 L-610109 3292 L-607147 3292 L-606025 3291 L-605716 3291 L-604505 3291 L-601498 3293 L-601478 3292 L-601131 3292 L-600918 3292 L-600792 3290 L-600550 3290 L-600512 3290 L-600492 3289 L-600473 3289 L-600414 3289 L-600356 3288 L-600338 3288 L-599895 3288 L-598655 3288 L-597109 3287 L-593722 3287 L-587995 3287 L-587794 3287 L-586158 3287 L-584436 3286 L-583004 3286 L-582772 3286 L-582056 3286 L-575924 3286 L-575556 3286 L-575402 3285 L-574824 3285 L-574531 3285 L-573564 3284 L-573254 3284 L-572655 3284 L-571049 3284 L-570314 3284 L-570004 3284 L-569236 3284 L-567200 3284 L-566774 3283 L-565962 3283 L-558533 3283 L-558010 3283 L-557837 3282 L-557101 3282 L-555534 3282 L-555128 3282 L-552903 3281 L-551955 3281 L-551530 3281 L-551200 3281 L-550156 3281 L-548048 3281 L-547796 3280 L-547177 3280 L-546364 3280 L-544256 3280 L-544208 3279 L-542280 3279 L-541954 3279 L-541819 3278 L-541316 3278 L-539903 3278 L-539400 3277 L-538878 3277 L-535319 3276 L-534584 3276 L-532159 3276 L-530869 3276 L-530462 3275 L-527310 3275 L-527155 3275 L-527135 3276 L-526768 3276 L-525510 3276 L-524795 3276 L-523905 3276 L-523498 3276 L-522570 3276 L-521461 3276 L-521158 3276 L-514909 3277 L-513962 3277 L-512335 3277 L-511834 3277 L-508158 3277 L-507326 3278 L-503372 3278 L-501961 3277 L-499471 3277 L-498795 3277 L-498756 3277 L-497885 3277 L-494674 3276 L-491811 3276 L-490843 3276 L-489722 3276 L-489703 3276 L-488078 3275 L-487613 3275 L-487522 3275 L-481152 3275 L-480204 3274 L-477747 3274 L-476874 3274 L-475638 3274 L-473637 3274 L-473239 3273 L-471803 3273 L-469777 3273 L-469564 3273 L-468384 3273 L-466875 3272 L-466855 3272 L-464843 3272 L-463973 3272 L-463103 3272 L-462518 3271 L-461981 3271 L-461323 3271 L-460085 3271 L-459524 3270 L-458343 3270 L-457105 3270 L-457067 3270 L-456680 3270 L-456138 3270 L-455365 3269 L-454242 3269 L-452153 3269 L-451820 3269 L-451534 3268 L-450605 3268 L-450122 3268 L-449387 3268 L-445755 3268 L-444628 3268 L-444473 3267 L-443447 3267 L-439733 3267 L-438515 3267 L-436697 3266 L-433911 3266 L-433349 3266 L-429462 3266 L-426985 3266 L-425650 3266 L-425147 3266 L-424664 3266 L-421974 3266 L-418203 3266 L-415745 3266 L-414566 3266 L-413926 3265 L-411567 3265 L-411489 3265 L-410442 3265 L-410348 3265 L-409846 3265 L-409400 3265 L-409342 3265 L-409129 3265 L-406169 3264 L-403462 3264 L-403307 3264 L-399786 3264 L-399263 3264 L-398296 3263 L-397947 3263 L-396903 3263 L-395974 3263 L-395549 3262 L-394040 3262 L-393073 3262 L-393054 3262 L-391158 3252 L-391042 3241 L-390994 3230 L-390970 3220 L-387965 3220 L-385935 3219 L-384174 3219 L-383807 3219 L-383361 3219 L-382994 3219 L-382580 3218 L-380595 3218 L-380382 3218 L-380227 3218 L-378622 3218 L-377500 3218 L-376552 3218 L-375295 3217 L-373650 3217 L-372471 3217 L-365881 3217 L-365834 3217 L-365429 3217 L-364384 3216 L-364248 3216 L-362566 3216 L-362546 3216 L-361209 3216 L-359973 3215 L-359819 3215 L-359445 3215 L-359238 3215 L-358929 3215 L-358155 3214 L-355834 3214 L-355176 3214 L-353048 3214 L-351326 3214 L-351132 3214 L-348579 3213 L-348302 3213 L-348114 3213 L-347282 3213 L-346509 3213 L-345811 3212 L-340811 3212 L-340435 3212 L-336182 3212 L-335695 3226 L-335676 3226 L-335597 3226 L-335521 3226 L-335501 3211 L-334689 3211 L-333935 3211 L-332716 3211 L-331284 3211 L-331188 3211 L-331013 3211 L-330659 3210 L-329349 3210 L-327492 3210 L-325790 3210 L-325287 3210 L-325022 3209 L-324629 3209 L-324494 3209 L-323585 3209 L-323208 3209 L-322280 3209 L-321941 3209 L-321901 3209 L-321863 3209 L-319948 3209 L-319774 3208 L-318245 3208 L-317917 3208 L-317801 3208 L-317394 3208 L-317046 3208 L-315402 3207 L-314851 3207 L-314608 3207 L-314067 3207 L-313235 3207 L-312694 3207 L-311159 3206 L-311067 3206 L-311030 3206 L-310894 3206 L-310507 3206 L-309482 3206 L-307606 3205 L-307509 3205 L-306909 3210 L-306542 3215 L-306057 3220 L-306019 3225 L-305245 3225 L-305188 3225 L-305013 3224 L-304820 3224 L-303215 3224 L-303195 3224 L-303039 3224 L-302924 3224 L-301744 3224 L-301590 3225 L-300923 3225 L-298475 3237 L-295960 3249 L-293290 3260 L-285591 3272 L-279923 3272 L-277708 3272 L-277685 3272 L-276711 3275 L-276691 3275 L-275828 3274 L-273087 3274 L-267289 3271 L-267135 3271 L-264349 3271 L-250741 3270 L-249995 3270 L-245585 3270 L-229238 3270 L-229006 3270 L-228469 3269 L-220010 3269 L-211304 3269 L-211092 3269 L-209119 3269 L-206333 3269 L-201846 3269 L-201691 3269 L-201522 3269 L-201381 3269 L-201091 3268 L-201052 3268 L-200781 3268 L-200609 3268 L-200199 3268 L-199079 3268 L-197898 3268 L-196622 3267 L-193758 3267 L-190838 3267 L-188846 3267 L-187298 3267 L-184260 3267 L-174936 3266 L-174412 3266 L-168688 3266 L-167181 3266 L-166366 3266 L-164683 3266 L-163962 3266 L-163793 3266 L-162748 3265 L-160681 3265 L-159319 3265 L-154875 3265 L-154778 3265 L-154739 3265 L-154720 3265 L-153888 3264 L-153810 3264 L-151238 3264 L-147988 3264 L-147834 3264 L-146885 3264 L-145144 3263 L-144429 3264 L-140888 3265 L-134311 3266 L-132893 3267 L-132873 3267 L-131922 3267 L-128448 3266 L-127695 3266 L-127133 3266 L-126351 3266 L-118847 3266 L-117248 3266 L-115674 3265 L-112489 3265 L-108156 3265 L-99586 3265 L-90840 3265 L-87766 3265 L-84500 3265 L-83954 3264 L-76816 3264 L-71149 3264 L-57084 3264 L-51073 3264 L-46367 3264 L-42363 3264 L-37256 3264 L-27542 3264 L-11971 3263 L-8888 3263 L-8586 3199 L-8567 3119 L-8548 3029 L-8528 2928 L-8508 2882 L-8489 2844 L-8471 2808 L-8443 2773 L-8422 2739 L-8394 2703 L-8359 2663 L-8345 2629 L-8332 2600 L-8314 2576 L-8295 2558 L-8275 2540 L-8257 2522 L-8237 2504 L-8218 2485 L-8196 2466 L-8180 2447 L-8161 2429 L-8140 2412 L-8120 2394 L-8102 2375 L-8083 2355 L-8064 2335 L-8043 2315 L-8025 2296 L-8006 2278 L-7985 2260 L-7960 2242 L-7945 2226 L-7928 2210 L-7909 2193 L-7889 2177 L-7870 2159 L-7851 2141 L-7831 2124 L-7811 2108 L-7793 2092 L-7774 2077 L-7753 2063 L-7733 2050 L-7716 2039 L-7697 2028 L-7677 2017 L-7658 2007 L-7638 1997 L-7619 1987 L-7599 1979 L-7580 1972 L-7561 1964 L-7542 1957 L-7515 1947 L-7494 1937 L-7466 1926 L-7432 1913 L-7418 1903 L-7405 1894 L-7386 1886 L-7367 1879 L-7347 1872 L-7329 1863 L-7309 1855 L-7289 1847 L-7269 1839 L-7251 1832 L-7232 1824 L-7212 1816 L-7192 1807 L-7174 1797 L-7155 1786 L-7135 1775 L-7115 1764 L-7096 1752 L-7078 1741 L-7057 1728 L-7032 1714 L-7017 1700 L-7000 1687 L-6980 1674 L-6961 1661 L-6942 1647 L-6923 1633 L-6903 1619 L-6882 1606 L-6864 1593 L-6845 1580 L-6825 1568 L-6805 1555 L-6787 1544 L-6768 1533 L-6748 1522 L-6729 1513 L-6710 1504 L-6691 1494 L-6671 1485 L-6652 1475 L-6632 1466 L-6613 1456 L-6585 1447 L-6565 1438 L-6537 1429 L-6500 1418 L-6485 1408 L-6472 1398 L-6455 1389 L-6438 1383 L-6418 1377 L-6400 1371 L-6381 1366 L-6361 1361 L-6340 1355 L-6323 1349 L-6304 1343 L-6283 1336 L-6264 1329 L-6245 1322 L-6226 1314 L-6206 1306 L-6187 1298 L-6168 1289 L-6149 1281 L-6128 1273 L-6104 1264 L-6089 1256 L-6072 1247 L-6052 1238 L-6033 1230 L-6013 1221 L-5994 1212 L-5974 1203 L-5954 1194 L-5936 1186 L-5917 1178 L-5897 1170 L-5876 1162 L-5859 1155 L-5839 1148 L-5820 1141 L-5801 1134 L-5781 1127 L-5762 1120 L-5742 1113 L-5723 1106 L-5704 1100 L-5685 1093 L-5657 1086 L-5636 1080 L-5608 1072 L-5572 1061 L-5558 1051 L-5545 1042 L-5527 1034 L-5509 1029 L-5490 1023 L-5471 1017 L-5451 1010 L-5432 1002 L-5410 994 L-5392 986 L-5375 977 L-5355 968 L-5334 958 L-5316 948 L-5297 937 L-5278 926 L-5257 916 L-5239 906 L-5220 898 L-5199 892 L-5174 887 L-5160 882 L-5142 877 L-5123 871 L-5103 865 L-5084 860 L-5065 854 L-5045 849 L-5025 845 L-5007 840 L-4988 835 L-4968 829 L-4947 822 L-4930 815 L-4911 810 L-4891 805 L-4872 802 L-4853 799 L-4834 796 L-4814 792 L-4794 788 L-4775 784 L-4756 780 L-4729 777 L-4708 773 L-4680 769 L-4645 765 L-4632 761 L-4618 757 L-4600 754 L-4581 751 L-4561 748 L-4543 745 L-4523 743 L-4503 740 L-4482 737 L-4465 735 L-4447 732 L-4426 728 L-4406 725 L-4388 722 L-4369 719 L-4349 716 L-4329 713 L-4311 711 L-4292 708 L-4271 705 L-4246 703 L-4231 700 L-4214 698 L-4195 695 L-4175 692 L-4156 690 L-4137 686 L-4117 683 L-4096 680 L-4079 677 L-4060 675 L-4039 672 L-4019 670 L-4001 667 L-3982 665 L-3962 662 L-3944 660 L-3924 658 L-3905 656 L-3885 654 L-3866 652 L-3846 650 L-3828 654 L-3799 656 L-3779 659 L-3751 662 L-3714 659 L-3699 657 L-3686 655 L-3668 654 L-3652 652 L-3632 651 L-3614 649 L-3594 647 L-3575 646 L-3553 645 L-3537 643 L-3518 642 L-3497 640 L-3477 638 L-3459 637 L-3440 635 L-3421 633 L-3400 631 L-3382 630 L-3363 628 L-3342 627 L-3317 626 L-3303 624 L-3286 622 L-3266 621 L-3247 619 L-3227 618 L-3208 616 L-3188 614 L-3168 611 L-3150 609 L-3131 607 L-3111 605 L-3090 603 L-3073 601 L-3054 599 L-3034 597 L-3015 595 L-2995 593 L-2976 590 L-2957 588 L-2937 586 L-2918 585 L-2899 583 L-2871 581 L-2851 579 L-2823 577 L-2788 575 L-2774 573 L-2761 571 L-2742 569 L-2724 568 L-2704 566 L-2685 565 L-2666 563 L-2646 561 L-2625 559 L-2608 558 L-2589 556 L-2569 554 L-2549 552 L-2531 549 L-2512 547 L-2492 544 L-2472 541 L-2454 538 L-2435 536 L-2413 534 L-2388 531 L-2374 529 L-2357 526 L-2337 523 L-2318 521 L-2299 518 L-2280 516 L-2260 513 L-2239 511 L-2222 509 L-2202 506 L-2182 504 L-2161 502 L-2144 500 L-2125 499 L-2105 497 L-2086 496 L-2067 494 L-2048 493 L-2028 491 L-2008 490 L-1989 489 L-1970 488 L-1943 486 L-1922 485 L-1894 483 L-1859 481 L-1845 478 L-1832 476 L-1813 473 L-1795 472 L-1775 470 L-1757 469 L-1737 467 L-1718 466 L-1697 464 L-1680 462 L-1661 460 L-1640 458 L-1620 456 L-1602 454 L-1583 452 L-1563 450 L-1543 448 L-1525 446 L-1506 445 L-1485 443 L-1460 441 L-1445 440 L-1428 438 L-1409 436 L-1389 435 L-1370 432 L-1351 430 L-1331 427 L-1310 425 L-1293 422 L-1274 420 L-1253 418 L-1233 416 L-1216 414 L-1197 413 L-1177 412 L-1158 411 L-1138 409 L-1119 408 L-1099 407 L-1080 405 L-1060 404 L-1042 403 L-1015 402 L-994 401 L-966 399 L-932 398 L-917 397 L-904 396 L-886 395 L-867 394 L-847 393 L-829 392 L-809 391 L-789 390 L-769 390 L-751 389 L-732 388 L-712 386 L-692 385 L-674 384 L-655 383 L-635 382 L-615 382 L-596 381 L-578 380 L-556 380 L-532 379 L-517 378 L-500 376 L-480 375 L-461 375 L-442 374 L-423 373 L-403 371 L-382 370 L-364 368 L-345 366 L-325 364 L-305 362 L-287 361 L-268 359 L-248 358 L-229 357 L-209 355 L-191 354 L-171 353 L-152 352 L-132 351 L-113 350 L-85 349 L-37 348 L0 347 L14 346 L26 345 L43 344 L61 343 L80 343 L99 342 L118 341 L138 341 L159 340 L176 339 L195 339 L215 338 L235 337 L254 336 L273 336 L293 335 L312 334 L331 333 L350 331 L371 330 L396 328 L410 327 L427 325 L447 324 L466 322 L486 321 L505 320 L525 318 L545 317 L563 315 L582 314 L603 313 L623 312 L640 311 L659 310 L679 309 L698 308 L718 307 L737 306 L757 305 L776 304 L796 303 L814 302 L843 301 L863 299 L891 298 L927 296 L942 293 L955 291 L972 290 L990 289 L1010 287 L1028 287 L1048 286 L1067 285 L1089 284 L1105 283 L1124 282 L1145 280 L1165 279 L1183 277 L1202 275 L1222 273 L1242 271 L1260 269 L1279 268 L1300 266 L1325 265 L1340 263 L1358 262 L1376 261 L1396 259 L1415 258 L1434 256 L1454 255 L1475 253 L1492 252 L1511 251 L1531 249 L1553 248 L1569 247 L1588 246 L1608 245 L1627 244 L1647 242 L1665 241 L1685 240 L1705 239 L1724 238 L1743 237 L1771 997 L1791 996 L1819 995 L1855 993 L1869 231 L1882 229 L1900 228 L1918 227 L1938 226 L1956 226 L1976 225 L1996 223 L2017 222 L2034 220 L2052 219 L2073 217 L2093 215 L2111 213 L2130 211 L2150 209 L2171 208 L2188 206 L2207 205 L2229 204 L2254 202 L2269 200 L2298 198 L2338 196 L2361 194 L2390 191 L2407 189 L2420 187 L2440 186 L2460 185 L2481 184 L2498 183 L2517 182 L2537 181 L2556 180 L2575 179 L2594 179 L2614 178 L2634 177 L2653 176 L2671 175 L2699 174 L2720 173 L2748 172 L2783 171 L2796 169 L2828 168 L2847 167 L2867 166 L2885 166 L2905 165 L2924 164 L2945 164 L2962 163 L2981 161 L3002 158 L3022 155 L3040 151 L3059 148 L3079 145 L3099 143 L3117 140 L3136 139 L3157 138 L3182 136 L3197 135 L3214 134 L3233 132 L3253 131 L3272 129 L3291 128 L3311 126 L3332 125 L3349 123 L3368 121 L3389 120 L3410 119 L3426 118 L3445 118 L3465 117 L3485 116 L3504 114 L3523 113 L3543 112 L3562 111 L3581 110 L3600 110 L3628 109 L3648 108 L3718 106 L3746 103 L3761 101 L3775 99 L3795 97 L3813 96 L3833 95 L3853 94 L3874 92 L3891 91 L3910 91 L3930 90 L3950 89 L3968 88 L3987 87 L4007 85 L4028 84 L4045 83 L4064 81 L4086 81 L4111 80 L4126 79 L4143 78 L4162 76 L4182 74 L4201 73 L4220 72 L4239 71 L4261 70 L4277 69 L4297 68 L4317 67 L4338 66 L4355 65 L4413 64 L4432 63 L4451 62 L4471 61 L4491 60 L4510 60 L4529 59 L4556 58 L4577 58 L4605 57 L4641 56 L4656 55 L4668 55 L4686 54 L4704 54 L4724 53 L4742 53 L4762 52 L4782 52 L4803 52 L4819 51 L4838 51 L4859 50 L4879 50 L4897 49 L4916 48 L4936 47 L4956 46 L4974 46 L4993 45 L5014 44 L5039 43 L5054 43 L5071 42 L5090 42 L5110 41 L5129 40 L5148 39 L5168 38 L5189 37 L5206 36 L5225 35 L5246 35 L5267 34 L5283 34 L5302 33 L5323 32 L5342 32 L5361 32 L5380 31 L5400 31 L5420 31 L5438 30 L5457 30 L5485 29 L5505 29 L5533 28 L5569 27 L5582 27 L5596 26 L5614 26 L5632 25 L5652 25 L5670 24 L5710 24 L5730 23 L5748 23 L5767 22 L5787 21 L5807 20 L5825 19 L5844 19 L5864 18 L5884 17 L5903 17 L5921 16 L5942 16 L5967 15 L5982 15 L5999 14 L6019 14 L6038 13 L6057 12 L6076 11 L6096 11 L6117 10 L6135 10 L6153 9 L6174 8 L6194 8 L6212 7 L6231 7 L6251 6 L6270 6 L6289 5 L6308 5 L6328 4 L6348 4 L6367 3 L6386 3 L6414 2 L6462 2 L6500 1" />
</svg>
