<svg xmlns="http://www.w3.org/2000/svg" version="1.1" viewBox="0 0 6500 1000">
	<path fill="none" stroke="gold" stroke-width="125" stroke-linecap="round" stroke-linejoin="round" d="M0 74845  L-401863 74845 L-399259 74734 L-397591 74624 L-379261 74403 L-379091 74182 L-371933 73961 L-371900 73961 L-358469 73850 L-355547 73961 L-342207 73629 L-338038 73187 L-336878 72635 L-336258 72082 L-334247 71751 L-330475 71530 L-329875 71309 L-329546 71088 L-329333 70867 L-328791 70646 L-327553 69762 L-326374 68878 L-323510 67994 L-322988 67110 L-318132 66889 L-315195 66668 L-315152 66447 L-314844 66226 L-314592 66005 L-311997 65784 L-307741 65784 L-307723 65784 L-306487 65784 L-304609 65784 L-302656 65563 L-301708 65342 L-301437 65121 L-301127 65011 L-301029 64900 L-300199 64900 L-298168 65011 L-297877 64016 L-295731 63574 L-295576 62911 L-291919 62248 L-291668 62580 L-291570 62469 L-291052 62801 L-288901 63353 L-287972 63906 L-286446 64458 L-285207 64458 L-283660 64348 L-280699 64127 L-279577 63906 L-279268 63685 L-278056 63574 L-275050 64790 L-275030 64679 L-274683 64569 L-274470 64458 L-274343 62911 L-274102 62690 L-274064 62469 L-274044 62248 L-274025 62027 L-273966 61806 L-273907 61585 L-273889 61364 L-273446 61143 L-272207 60922 L-270661 60701 L-267273 60480 L-261547 60370 L-261346 60259 L-259710 60149 L-257988 60038 L-256556 59928 L-256323 59817 L-255608 59707 L-249476 59596 L-249108 59375 L-248954 59154 L-248375 58933 L-248083 58712 L-247115 58491 L-246806 58270 L-246207 58049 L-244601 58049 L-243866 58049 L-243556 58160 L-242787 58160 L-240751 57939 L-240326 57718 L-239513 57607 L-232085 57386 L-231562 57165 L-231388 56944 L-230653 56723 L-229086 56502 L-228680 56392 L-226455 56171 L-225507 56060 L-225082 55950 L-224752 55950 L-223708 55839 L-221600 55618 L-221348 55397 L-220729 55176 L-219916 55066 L-217808 54845 L-217760 54624 L-215831 54403 L-215506 54182 L-215371 53961 L-214868 53850 L-213455 53629 L-212952 53187 L-212430 52856 L-208870 52414 L-208135 51972 L-205711 51972 L-204421 51751 L-204014 51640 L-200862 51640 L-200707 51640 L-200687 51751 L-200320 51751 L-199062 51861 L-198347 51972 L-197457 51972 L-197050 51972 L-196121 51972 L-195013 51861 L-194709 52303 L-188461 52524 L-187513 52745 L-185887 52966 L-185385 53077 L-181710 53187 L-180877 53298 L-176924 53408 L-175512 53077 L-173023 52856 L-172347 52635 L-172308 52524 L-171437 52524 L-168226 52414 L-165363 52303 L-164395 52193 L-163273 51972 L-163254 51751 L-161629 51530 L-161165 51198 L-161073 51088 L-154704 50977 L-153756 50867 L-151298 50756 L-150426 50535 L-149190 50425 L-147189 50314 L-146791 50093 L-145355 49872 L-143329 49762 L-143116 49541 L-141936 49430 L-140427 49320 L-140407 49209 L-138395 49099 L-137525 48878 L-136654 48767 L-136069 48546 L-135532 48325 L-134875 48104 L-133636 47883 L-133076 47773 L-131895 47662 L-130657 47552 L-130619 47441 L-130232 47331 L-129690 47110 L-128916 47000 L-127794 46889 L-125705 46668 L-125372 46447 L-125086 46226 L-124157 46116 L-123674 45895 L-122939 45784 L-119307 45674 L-118180 45563 L-118025 45453 L-116999 45232 L-113284 45121 L-112067 44900 L-110248 44679 L-107463 44569 L-106901 44348 L-103013 44348 L-100537 44237 L-99202 44237 L-98699 44127 L-98215 44016 L-95526 44016 L-91754 44016 L-89297 44016 L-88117 44016 L-87478 43906 L-85119 43685 L-85041 43574 L-83994 43464 L-83900 43243 L-83397 43243 L-82952 43243 L-82894 43243 L-82681 43243 L-79721 43022 L-77013 42911 L-76859 42801 L-73338 42690 L-72815 42469 L-71848 42248 L-71498 42138 L-70455 41917 L-69526 41696 L-69101 41585 L-67592 41585 L-66625 41475 L-66606 41364 L-64710 33298 L-64594 25011 L-64546 16834 L-64521 8657 L-61517 8546 L-59487 8325 L-57726 8215 L-57359 8104 L-56913 7883 L-56546 7773 L-56132 7552 L-54147 7441 L-53934 7441 L-53779 7331 L-52174 7331 L-51052 7220 L-50104 7110 L-48847 6889 L-47202 6779 L-46022 6558 L-39433 6447 L-39386 6337 L-38981 6226 L-37935 6116 L-37800 6005 L-36117 5784 L-36098 5674 L-34761 5453 L-33525 5342 L-33370 5232 L-32996 5011 L-32790 4900 L-32481 4790 L-31707 4569 L-29385 4458 L-28728 4348 L-26600 4237 L-24877 4127 L-24684 3906 L-22131 3795 L-21854 3574 L-21666 3353 L-20834 3243 L-20061 3132 L-19363 3022 L-14362 3022 L-13987 2801 L-9734 2690 L-9247 13629 L-9227 13629 L-9148 13519 L-9073 13408 L-9053 2138 L-8240 2027 L-7487 1806 L-6267 1696 L-4836 1696 L-4739 1585 L-4565 1585 L-4210 1364 L-2901 1254 L-1044 1143 L657 922 L1160 812 L1426 701 L1819 591 L1953 480 L2863 370 L3239 259 L4168 259 L4507 149 L4546 149 L4584 38 L6500 38" />
</svg>
