<svg xmlns="http://www.w3.org/2000/svg" version="1.1" viewBox="0 0 6500 1000">
	<path fill="none" stroke="gold" stroke-width="125" stroke-linecap="round" stroke-linejoin="round" d="M0 5649  L-108916 5649 L-106312 5600 L-104644 5550 L-86314 5451 L-86144 5352 L-78986 5253 L-78953 5253 L-65522 5204 L-62601 5253 L-49260 5105 L-45091 4906 L-43931 4659 L-43311 4411 L-41300 4263 L-37528 4163 L-36928 4064 L-36599 3965 L-36386 3866 L-35844 3767 L-34606 3371 L-33427 2975 L-30563 2578 L-30041 2182 L-25185 2083 L-22248 1984 L-22205 1885 L-21897 1786 L-21645 1687 L-19050 1588 L-14794 1588 L-14777 1588 L-13540 1588 L-11662 1588 L-9709 1489 L-8761 1390 L-8490 1291 L-8180 1241 L-8082 1192 L-7252 1192 L-5221 1241 L-4930 795 L-2784 597 L-2629 300 L1027 3 L1278 152 L1376 102 L1893 251 L4045 498 L4973 746 L6500 994" />
</svg>
