<svg xmlns="http://www.w3.org/2000/svg" version="1.1" viewBox="0 0 6500 1000">
	<path fill="none" stroke="gold" stroke-width="125" stroke-linecap="round" stroke-linejoin="round" d="M0 3947  L-723864 3947 L-721260 3947 L-719592 3947 L-701262 3947 L-701092 3946 L-693934 3946 L-693901 3946 L-680470 3946 L-677549 3946 L-664208 3945 L-660039 3945 L-658879 3944 L-658260 3943 L-656248 3942 L-652476 3942 L-651876 3941 L-651547 3941 L-651334 3941 L-650792 3940 L-649554 3939 L-648375 3937 L-645511 3936 L-644989 3935 L-640133 3934 L-637196 3934 L-637153 3933 L-636845 3933 L-636593 3933 L-633998 3932 L-629742 3932 L-629725 3932 L-628488 3932 L-626610 3932 L-624657 3932 L-623709 3932 L-623438 3931 L-623128 3931 L-623030 3931 L-622200 3931 L-620169 3931 L-619878 3929 L-617732 3929 L-617577 3928 L-613920 3926 L-613669 3927 L-613571 3927 L-613054 3927 L-610902 3928 L-609974 3929 L-608448 3930 L-607208 3930 L-605662 3930 L-602700 3930 L-601578 3929 L-601269 3929 L-600057 3929 L-597051 3931 L-597031 3930 L-596684 3930 L-596471 3930 L-596344 3928 L-596103 3927 L-596065 3927 L-596045 3926 L-596026 3926 L-595967 3926 L-595908 3925 L-595890 3925 L-595447 3925 L-594208 3924 L-592662 3924 L-589274 3924 L-583548 3923 L-583347 3923 L-581711 3923 L-579989 3923 L-578557 3923 L-578324 3922 L-577609 3922 L-571477 3922 L-571109 3922 L-570955 3921 L-570376 3921 L-570084 3921 L-569117 3920 L-568807 3920 L-568208 3919 L-566602 3919 L-565867 3919 L-565557 3920 L-564789 3920 L-562752 3919 L-562327 3919 L-561514 3919 L-554086 3918 L-553563 3918 L-553389 3918 L-552654 3917 L-551087 3917 L-550681 3917 L-548456 3916 L-547508 3916 L-547083 3916 L-546753 3916 L-545709 3916 L-543601 3915 L-543349 3915 L-542730 3915 L-541917 3915 L-539809 3914 L-539761 3914 L-537832 3913 L-537507 3913 L-537372 3913 L-536869 3913 L-535456 3912 L-534953 3911 L-534431 3911 L-530872 3910 L-530136 3909 L-527712 3909 L-526422 3909 L-526015 3909 L-522863 3909 L-522708 3909 L-522688 3909 L-522321 3909 L-521063 3909 L-520348 3909 L-519458 3909 L-519051 3909 L-518122 3909 L-517014 3909 L-516711 3910 L-510462 3910 L-509514 3911 L-507888 3911 L-507386 3911 L-503711 3911 L-502878 3912 L-498925 3912 L-497513 3911 L-495024 3911 L-494348 3911 L-494309 3910 L-493438 3910 L-490227 3910 L-487364 3910 L-486396 3910 L-485274 3909 L-485255 3909 L-483630 3909 L-483166 3908 L-483074 3908 L-476705 3908 L-475757 3908 L-473300 3907 L-472427 3907 L-471191 3907 L-469190 3907 L-468792 3906 L-467356 3906 L-465330 3906 L-465117 3905 L-463937 3905 L-462428 3905 L-462408 3905 L-460396 3905 L-459526 3904 L-458655 3904 L-458071 3904 L-457533 3903 L-456876 3903 L-455637 3903 L-455077 3902 L-453896 3902 L-452658 3902 L-452620 3902 L-452233 3902 L-451691 3901 L-450917 3901 L-449795 3901 L-447706 3901 L-447373 3900 L-447087 3900 L-446158 3900 L-445675 3899 L-444940 3899 L-441308 3899 L-440181 3899 L-440026 3899 L-439000 3898 L-435285 3898 L-434068 3898 L-432250 3897 L-429464 3897 L-428902 3897 L-425014 3897 L-422538 3897 L-421203 3897 L-420700 3896 L-420216 3896 L-417527 3896 L-413756 3896 L-411298 3896 L-410119 3896 L-409479 3896 L-407120 3896 L-407042 3896 L-405995 3895 L-405901 3895 L-405398 3895 L-404953 3895 L-404895 3895 L-404682 3895 L-401722 3895 L-399014 3894 L-398860 3894 L-395339 3894 L-394816 3894 L-393849 3893 L-393500 3893 L-392456 3893 L-391527 3892 L-391102 3892 L-389593 3892 L-388626 3892 L-388607 3892 L-386711 3878 L-386595 3865 L-386547 3851 L-386523 3838 L-383518 3837 L-381488 3837 L-379727 3837 L-379360 3837 L-378914 3836 L-378547 3836 L-378133 3836 L-376148 3836 L-375935 3836 L-375780 3835 L-374175 3835 L-373053 3835 L-372105 3835 L-370848 3835 L-369203 3835 L-368023 3834 L-361434 3834 L-361387 3834 L-360982 3834 L-359936 3833 L-359801 3833 L-358119 3833 L-358099 3833 L-356762 3832 L-355526 3832 L-355371 3832 L-354997 3832 L-354791 3831 L-354482 3831 L-353708 3831 L-351386 3831 L-350729 3830 L-348601 3830 L-346878 3830 L-346685 3830 L-344132 3830 L-343855 3829 L-343667 3829 L-342835 3829 L-342062 3828 L-341364 3828 L-336364 3828 L-335988 3828 L-331735 3828 L-331248 3846 L-331228 3846 L-331149 3846 L-331074 3846 L-331054 3827 L-330241 3827 L-329488 3826 L-328269 3826 L-326837 3826 L-326740 3826 L-326566 3826 L-326212 3826 L-324902 3825 L-323045 3825 L-321343 3825 L-320840 3825 L-320575 3824 L-320181 3824 L-320047 3824 L-319137 3824 L-318761 3824 L-317832 3824 L-317493 3824 L-317454 3824 L-317416 3823 L-315501 3823 L-315327 3823 L-313798 3823 L-313470 3823 L-313354 3823 L-312947 3822 L-312599 3822 L-310955 3822 L-310404 3822 L-310161 3822 L-309620 3821 L-308788 3821 L-308247 3821 L-306712 3820 L-306620 3820 L-306583 3820 L-306447 3820 L-306060 3820 L-305035 3820 L-303158 3819 L-303062 3819 L-302462 3825 L-302095 3831 L-301610 3838 L-301572 3844 L-300798 3844 L-300741 3844 L-300566 3844 L-300373 3843 L-298767 3843 L-298747 3843 L-298592 3843 L-298477 3843 L-297297 3844 L-297142 3844 L-296476 3844 L-294027 3859 L-291512 3875 L-288843 3889 L-281143 3904 L-275476 3904 L-273261 3904 L-273238 3904 L-272264 3908 L-272244 3908 L-271380 3907 L-268640 3907 L-262842 3903 L-262688 3903 L-259902 3903 L-246294 3902 L-245548 3902 L-241137 3902 L-224791 3902 L-224559 3901 L-224022 3901 L-215563 3901 L-206857 3901 L-206645 3901 L-204672 3900 L-201886 3900 L-197398 3901 L-197244 3900 L-197075 3900 L-196934 3900 L-196643 3900 L-196605 3900 L-196334 3900 L-196162 3899 L-195752 3899 L-194632 3899 L-193451 3899 L-192175 3899 L-189311 3898 L-186390 3898 L-184398 3898 L-182851 3898 L-179813 3898 L-170488 3897 L-169964 3897 L-164241 3897 L-162734 3897 L-161919 3897 L-160235 3897 L-159514 3896 L-159346 3896 L-158301 3896 L-156233 3896 L-154871 3896 L-150428 3896 L-150331 3895 L-150292 3895 L-150273 3895 L-149441 3895 L-149363 3894 L-146791 3894 L-143541 3894 L-143386 3894 L-142438 3894 L-140697 3893 L-139982 3894 L-136441 3895 L-129864 3896 L-128446 3898 L-128426 3898 L-127475 3898 L-124001 3897 L-123247 3897 L-122686 3897 L-121904 3897 L-114400 3896 L-112801 3896 L-111227 3896 L-108042 3896 L-103709 3896 L-95139 3896 L-86393 3896 L-83319 3895 L-80053 3895 L-79506 3895 L-72369 3895 L-66701 3895 L-52637 3895 L-46626 3895 L-41919 3895 L-37916 3894 L-32809 3894 L-23095 3894 L-7524 3893 L-4441 3893 L-4139 3811 L-4119 3709 L-4101 3594 L-4081 3465 L-4061 3406 L-4042 3357 L-4023 3311 L-3996 3266 L-3975 3223 L-3947 3177 L-3912 3126 L-3898 3083 L-3885 3045 L-3867 3015 L-3848 2992 L-3828 2969 L-3810 2945 L-3790 2922 L-3770 2899 L-3749 2874 L-3732 2850 L-3714 2827 L-3693 2805 L-3673 2782 L-3655 2758 L-3636 2733 L-3616 2706 L-3596 2681 L-3578 2657 L-3559 2633 L-3538 2611 L-3513 2588 L-3498 2567 L-3481 2546 L-3462 2525 L-3442 2504 L-3423 2482 L-3404 2459 L-3384 2437 L-3364 2416 L-3346 2396 L-3327 2377 L-3306 2359 L-3286 2343 L-3269 2328 L-3250 2314 L-3230 2300 L-3211 2287 L-3191 2274 L-3172 2262 L-3152 2252 L-3133 2242 L-3113 2233 L-3095 2223 L-3067 2211 L-3046 2198 L-3019 2184 L-2985 2168 L-2970 2155 L-2957 2143 L-2939 2133 L-2920 2124 L-2900 2115 L-2881 2104 L-2862 2093 L-2842 2082 L-2821 2073 L-2804 2063 L-2785 2054 L-2765 2043 L-2745 2032 L-2727 2019 L-2708 2005 L-2688 1991 L-2668 1976 L-2649 1962 L-2630 1947 L-2609 1930 L-2585 1913 L-2570 1895 L-2553 1878 L-2533 1861 L-2514 1845 L-2494 1827 L-2476 1809 L-2456 1791 L-2435 1774 L-2417 1758 L-2398 1741 L-2378 1726 L-2358 1710 L-2340 1695 L-2321 1682 L-2301 1668 L-2282 1657 L-2262 1644 L-2244 1632 L-2224 1620 L-2204 1607 L-2185 1595 L-2166 1583 L-2137 1571 L-2118 1560 L-2090 1549 L-2053 1535 L-2038 1522 L-2025 1509 L-2008 1498 L-1991 1490 L-1971 1482 L-1953 1474 L-1933 1468 L-1913 1461 L-1893 1454 L-1876 1446 L-1857 1438 L-1836 1430 L-1817 1421 L-1798 1412 L-1779 1402 L-1759 1392 L-1740 1381 L-1721 1369 L-1702 1359 L-1681 1348 L-1657 1337 L-1642 1327 L-1625 1316 L-1605 1305 L-1586 1294 L-1566 1283 L-1547 1271 L-1527 1260 L-1507 1249 L-1489 1237 L-1470 1227 L-1450 1217 L-1429 1208 L-1411 1199 L-1392 1190 L-1372 1180 L-1354 1171 L-1334 1162 L-1315 1153 L-1295 1145 L-1276 1136 L-1256 1128 L-1238 1119 L-1209 1111 L-1189 1102 L-1161 1092 L-1125 1078 L-1111 1066 L-1098 1054 L-1080 1043 L-1062 1037 L-1042 1030 L-1024 1021 L-1004 1012 L-985 1003 L-963 993 L-945 982 L-928 971 L-907 959 L-887 946 L-869 933 L-850 919 L-830 905 L-810 892 L-792 880 L-773 870 L-752 862 L-727 855 L-712 849 L-695 842 L-676 835 L-656 828 L-637 821 L-618 814 L-598 807 L-577 802 L-560 796 L-541 790 L-520 782 L-500 773 L-483 764 L-464 757 L-444 751 L-425 747 L-405 743 L-386 739 L-367 734 L-347 729 L-328 724 L-309 719 L-281 715 L-261 710 L-233 705 L-198 699 L-184 694 L-171 690 L-152 686 L-134 682 L-114 678 L-95 675 L-76 671 L-56 668 L-35 665 L-18 661 L0 657 L20 653 L40 649 L58 644 L77 641 L97 637 L117 634 L135 630 L154 627 L176 623 L200 620 L215 617 L232 614 L252 611 L271 607 L290 603 L309 599 L329 595 L350 591 L368 588 L386 585 L407 581 L427 578 L445 575 L464 571 L484 568 L503 565 L522 562 L541 560 L561 558 L581 555 L600 553 L618 557 L647 561 L667 565 L695 568 L732 565 L747 562 L760 559 L778 557 L794 556 L814 554 L832 552 L852 549 L872 547 L893 546 L910 544 L928 542 L949 540 L969 538 L987 536 L1006 533 L1026 531 L1046 529 L1064 527 L1083 525 L1104 524 L1129 522 L1143 520 L1161 518 L1180 515 L1200 513 L1219 511 L1238 509 L1258 506 L1279 503 L1296 500 L1315 497 L1336 495 L1356 492 L1374 490 L1392 487 L1412 485 L1431 482 L1451 479 L1470 476 L1490 474 L1509 471 L1528 469 L1547 467 L1575 465 L1595 462 L1623 460 L1658 457 L1672 454 L1685 452 L1704 450 L1722 448 L1742 446 L1761 444 L1780 441 L1800 439 L1821 437 L1838 435 L1857 432 L1877 430 L1897 427 L1916 424 L1934 420 L1954 417 L1974 413 L1993 410 L2011 407 L2033 404 L2058 401 L2072 398 L2090 394 L2109 391 L2128 388 L2147 385 L2166 381 L2186 378 L2207 375 L2225 372 L2244 369 L2264 366 L2285 364 L2302 361 L2321 359 L2341 357 L2360 355 L2379 353 L2398 351 L2418 350 L2438 348 L2457 346 L2476 345 L2503 343 L2524 342 L2552 340 L2587 336 L2601 333 L2614 330 L2633 327 L2651 325 L2671 323 L2689 321 L2709 319 L2729 317 L2750 315 L2767 313 L2785 310 L2806 308 L2826 305 L2844 302 L2863 300 L2883 297 L2903 294 L2921 292 L2940 290 L2961 288 L2986 286 L3001 284 L3018 282 L3037 280 L3057 277 L3076 275 L3095 272 L3115 268 L3136 265 L3153 261 L3172 258 L3193 256 L3213 253 L3231 251 L3250 250 L3270 248 L3288 247 L3308 245 L3327 243 L3347 242 L3366 240 L3386 239 L3404 237 L3432 235 L3453 234 L3480 232 L3515 231 L3529 229 L3542 228 L3560 227 L3579 225 L3599 224 L3618 223 L3637 222 L3657 221 L3678 220 L3695 218 L3714 217 L3734 216 L3754 214 L3772 213 L3791 212 L3811 211 L3831 210 L3850 209 L3869 208 L3890 207 L3914 206 L3929 205 L3946 203 L3966 202 L3985 201 L4004 199 L4023 198 L4043 197 L4064 194 L4082 192 L4101 189 L4121 187 L4142 184 L4159 183 L4178 181 L4198 179 L4217 178 L4237 176 L4255 174 L4275 173 L4294 171 L4314 170 L4333 169 L4361 168 L4409 167 L4446 165 L4461 164 L4473 162 L4491 161 L4508 161 L4528 160 L4546 159 L4565 158 L4586 157 L4606 156 L4623 155 L4642 155 L4663 154 L4682 153 L4701 152 L4720 151 L4740 149 L4760 148 L4778 147 L4797 145 L4818 144 L4843 142 L4857 140 L4874 138 L4894 136 L4913 134 L4933 132 L4952 131 L4972 129 L4993 127 L5010 125 L5029 123 L5050 122 L5070 120 L5088 119 L5107 118 L5127 117 L5145 116 L5165 114 L5184 113 L5204 112 L5223 110 L5243 109 L5261 107 L5290 106 L5310 105 L5338 103 L5374 100 L5389 97 L5402 94 L5419 92 L5437 91 L5457 89 L5475 88 L5495 87 L5515 86 L5536 85 L5552 84 L5571 82 L5592 80 L5612 78 L5630 76 L5649 73 L5669 71 L5689 68 L5707 66 L5726 64 L5747 62 L5772 60 L5787 58 L5805 57 L5823 55 L5843 53 L5862 52 L5881 49 L5901 47 L5922 45 L5939 44 L5958 42 L5978 40 L6000 39 L6016 37 L6035 36 L6055 34 L6074 33 L6094 32 L6113 30 L6132 29 L6152 27 L6171 27 L6190 25 L6218 997 L6238 995 L6266 993 L6302 991 L6316 16 L6330 15 L6347 13 L6365 12 L6385 11 L6403 10 L6423 9 L6443 8 L6464 6 L6481 3 L6500 1" />
</svg>
