<svg xmlns="http://www.w3.org/2000/svg" version="1.1" viewBox="0 0 6500 1000">
	<path fill="none" stroke="gold" stroke-width="125" stroke-linecap="round" stroke-linejoin="round" d="M0 62958  L-360602 62958 L-357998 62858 L-356330 62758 L-338000 62558 L-337830 62357 L-330672 62157 L-330639 62157 L-317208 62057 L-314286 62157 L-300945 61856 L-296776 61455 L-295616 60954 L-294997 60453 L-292985 60153 L-289214 59952 L-288613 59752 L-288285 59552 L-288072 59351 L-287530 59151 L-286292 58349 L-285113 57548 L-282249 56746 L-281726 55944 L-276871 55744 L-273934 55544 L-273891 55343 L-273582 55143 L-273331 54942 L-270736 54742 L-266480 54742 L-266462 54742 L-265225 54742 L-263348 54742 L-261394 54542 L-260446 54341 L-260176 54141 L-259866 54041 L-259768 53940 L-258937 53940 L-256907 54041 L-256616 53139 L-254470 52738 L-254314 52137 L-250658 51536 L-250407 51836 L-250308 51736 L-249791 52037 L-247640 52538 L-246711 53039 L-245185 53540 L-243946 53540 L-242399 53439 L-239437 53239 L-238316 53039 L-238006 52838 L-236795 52738 L-233788 53840 L-233769 53740 L-233421 53640 L-233208 53540 L-233082 52137 L-232841 51936 L-232803 51736 L-232783 51536 L-232764 51335 L-232705 51135 L-232646 50934 L-232628 50734 L-232185 50534 L-230946 50333 L-229400 50133 L-226012 49932 L-220286 49832 L-220084 49732 L-218449 49632 L-216727 49532 L-215295 49431 L-215062 49331 L-214347 49231 L-208215 49131 L-207847 48930 L-207693 48730 L-207114 48530 L-206822 48329 L-205854 48129 L-205545 47928 L-204946 47728 L-203339 47728 L-202604 47728 L-202294 47828 L-201526 47828 L-199490 47628 L-199065 47427 L-198252 47327 L-190824 47127 L-190301 46926 L-190127 46726 L-189392 46526 L-187824 46325 L-187419 46225 L-185194 46025 L-184246 45924 L-183821 45824 L-183490 45824 L-182447 45724 L-180339 45524 L-180086 45323 L-179468 45123 L-178655 45023 L-176547 44822 L-176498 44622 L-174570 44421 L-174244 44221 L-174109 44021 L-173606 43920 L-172194 43720 L-171691 43319 L-171169 43019 L-167609 42618 L-166874 42217 L-164449 42217 L-163160 42017 L-162753 41916 L-159600 41916 L-159446 41916 L-159425 42017 L-159059 42017 L-157801 42117 L-157086 42217 L-156196 42217 L-155789 42217 L-154860 42217 L-153752 42117 L-153448 42518 L-147199 42718 L-146252 42918 L-144626 43119 L-144124 43219 L-140448 43319 L-139616 43419 L-135663 43520 L-134251 43219 L-131762 43019 L-131085 42818 L-131047 42718 L-130176 42718 L-126965 42618 L-124102 42518 L-123134 42417 L-122012 42217 L-121993 42017 L-120368 41816 L-119904 41516 L-119812 41415 L-113443 41315 L-112494 41215 L-110037 41115 L-109165 40914 L-107929 40814 L-105928 40714 L-105530 40514 L-104094 40313 L-102068 40213 L-101854 40013 L-100674 39912 L-99166 39812 L-99146 39712 L-97133 39612 L-96264 39411 L-95393 39311 L-94808 39111 L-94271 38910 L-93613 38710 L-92375 38510 L-91815 38409 L-90634 38309 L-89396 38209 L-89357 38109 L-88970 38009 L-88429 37808 L-87655 37708 L-86533 37608 L-84444 37407 L-84110 37207 L-83825 37007 L-82896 36906 L-82413 36706 L-81677 36606 L-78046 36506 L-76919 36405 L-76764 36305 L-75738 36105 L-72023 36005 L-70806 35804 L-68987 35604 L-66202 35504 L-65640 35303 L-61752 35303 L-59276 35203 L-57941 35203 L-57437 35103 L-56954 35003 L-54265 35003 L-50493 35003 L-48036 35003 L-46856 35003 L-46217 34902 L-43857 34702 L-43780 34602 L-42733 34502 L-42639 34301 L-42136 34301 L-41691 34301 L-41633 34301 L-41419 34301 L-38460 34101 L-35752 34001 L-35597 33900 L-32077 33800 L-31554 33600 L-30586 33399 L-30237 33299 L-29194 33099 L-28265 32898 L-27839 32798 L-26330 32798 L-25363 32698 L-25344 32598 L-23448 25283 L-23333 17768 L-23285 10353 L-23260 2938 L-20256 2838 L-18225 2638 L-16465 2538 L-16097 2437 L-15652 2237 L-15285 2137 L-14871 1936 L-12886 1836 L-12673 1836 L-12518 1736 L-10913 1736 L-9791 1636 L-8843 1536 L-7585 1335 L-5941 1235 L-4761 1035 L1827 934 L1874 834 L2280 734 L3325 634 L3460 534 L5143 333 L5163 233 L6500 33" />
</svg>
