<svg xmlns="http://www.w3.org/2000/svg" version="1.1" viewBox="0 0 6500 1000">
	<path fill="none" stroke="gold" stroke-width="125" stroke-linecap="round" stroke-linejoin="round" d="M0 1022  L-715274 1022 L-712670 1022 L-711002 1022 L-692672 1022 L-692502 1022 L-685344 1022 L-685311 1022 L-671880 1022 L-668958 1022 L-655617 1022 L-651448 1021 L-650288 1021 L-649669 1020 L-647657 1020 L-643885 1020 L-643285 1020 L-642957 1020 L-642744 1020 L-642202 1019 L-640964 1019 L-639785 1018 L-636921 1018 L-636398 1017 L-631543 1017 L-628606 1017 L-628563 1016 L-628254 1016 L-628002 1016 L-625407 1016 L-621152 1016 L-621134 1016 L-619897 1016 L-618020 1016 L-616066 1016 L-615118 1016 L-614848 1016 L-614538 1015 L-614440 1015 L-613609 1015 L-611578 1015 L-611288 1015 L-609142 1014 L-608986 1014 L-605330 1014 L-605079 1014 L-604980 1014 L-604463 1014 L-602312 1014 L-601383 1015 L-599857 1015 L-598618 1015 L-597071 1015 L-594109 1015 L-592987 1015 L-592678 1015 L-591467 1014 L-588460 1015 L-588441 1015 L-588093 1015 L-587880 1015 L-587754 1014 L-587512 1014 L-587475 1014 L-587455 1014 L-587436 1013 L-587377 1013 L-587318 1013 L-587300 1013 L-586857 1013 L-585618 1013 L-584072 1012 L-580684 1012 L-574958 1012 L-574756 1012 L-573120 1012 L-571398 1012 L-569966 1012 L-569734 1012 L-569019 1012 L-562887 1012 L-562519 1011 L-562364 1011 L-561786 1011 L-561493 1011 L-560526 1011 L-560217 1011 L-559618 1011 L-558011 1011 L-557276 1011 L-556966 1011 L-556198 1011 L-554162 1010 L-553737 1010 L-552924 1010 L-545495 1010 L-544972 1010 L-544799 1010 L-544064 1010 L-542496 1009 L-542091 1009 L-539866 1009 L-538918 1009 L-538493 1009 L-538162 1009 L-537119 1009 L-535010 1009 L-534758 1009 L-534139 1009 L-533327 1008 L-531219 1008 L-531170 1008 L-529242 1008 L-528916 1008 L-528781 1008 L-528278 1008 L-526865 1007 L-526363 1007 L-525841 1007 L-522281 1007 L-521546 1006 L-519121 1006 L-517832 1006 L-517425 1006 L-514272 1006 L-514118 1006 L-514097 1006 L-513731 1006 L-512472 1006 L-511757 1006 L-510867 1006 L-510461 1006 L-509532 1006 L-508423 1006 L-508120 1006 L-501871 1007 L-500924 1007 L-499298 1007 L-498796 1007 L-495120 1007 L-494288 1007 L-490335 1007 L-488923 1007 L-486434 1007 L-485757 1007 L-485719 1007 L-484848 1007 L-481637 1007 L-478773 1006 L-477805 1006 L-476684 1006 L-476665 1006 L-475040 1006 L-474576 1006 L-474484 1006 L-468115 1006 L-467166 1005 L-464709 1005 L-463837 1005 L-462601 1005 L-460599 1005 L-460202 1005 L-458766 1005 L-456739 1005 L-456526 1005 L-455346 1004 L-453838 1004 L-453818 1004 L-451805 1004 L-450936 1004 L-450065 1004 L-449480 1004 L-448943 1004 L-448285 1004 L-447047 1003 L-446486 1003 L-445305 1003 L-444068 1003 L-444029 1003 L-443642 1003 L-443101 1003 L-442327 1003 L-441205 1003 L-439115 1003 L-438782 1002 L-438496 1002 L-437568 1002 L-437085 1002 L-436349 1002 L-432718 1002 L-431590 1002 L-431436 1002 L-430410 1002 L-426695 1001 L-425478 1001 L-423659 1001 L-420873 1001 L-420312 1001 L-416424 1001 L-413947 1001 L-412613 1001 L-412109 1001 L-411626 1001 L-408937 1001 L-405165 1001 L-402708 1001 L-401528 1001 L-400889 1001 L-398529 1000 L-398452 1000 L-397404 1000 L-397311 1000 L-396808 1000 L-396362 1000 L-396305 1000 L-396091 1000 L-393132 1000 L-390424 1000 L-390269 1000 L-386748 1000 L-386225 1000 L-385258 999 L-384909 999 L-383866 999 L-382937 999 L-382511 999 L-381002 999 L-380035 999 L-380016 999 L-378120 993 L-378004 987 L-377956 981 L-377932 976 L-374928 976 L-372897 975 L-371136 975 L-370769 975 L-370324 975 L-369957 975 L-369543 975 L-367558 975 L-367345 975 L-367190 975 L-365585 975 L-364463 975 L-363514 975 L-362257 974 L-360613 974 L-359433 974 L-352843 974 L-352797 974 L-352391 974 L-351346 974 L-351211 974 L-349528 974 L-349508 974 L-348171 973 L-346935 973 L-346781 973 L-346407 973 L-346201 973 L-345891 973 L-345117 973 L-342796 973 L-342138 973 L-340010 973 L-338288 972 L-338094 972 L-335541 972 L-335265 972 L-335077 972 L-334244 972 L-333472 972 L-332774 972 L-327773 972 L-327397 972 L-323144 971 L-322657 979 L-322638 979 L-322559 979 L-322484 979 L-322464 971 L-321651 971 L-320897 971 L-319678 971 L-318246 971 L-318150 971 L-317976 971 L-317621 971 L-316312 970 L-314455 970 L-312752 970 L-312249 970 L-311984 970 L-311591 970 L-311457 970 L-310547 970 L-310171 970 L-309242 970 L-308903 970 L-308863 970 L-308826 970 L-306910 970 L-306737 970 L-305208 970 L-304880 969 L-304763 969 L-304356 969 L-304008 969 L-302365 969 L-301814 969 L-301570 969 L-301029 969 L-300198 969 L-299656 968 L-298122 968 L-298029 968 L-297992 968 L-297856 968 L-297469 968 L-296444 968 L-294568 968 L-294472 968 L-293871 970 L-293504 973 L-293020 976 L-292982 978 L-292208 978 L-292150 978 L-291976 978 L-291782 978 L-290177 978 L-290157 978 L-290002 978 L-289886 978 L-288707 978 L-288552 978 L-287885 978 L-285437 985 L-282922 991 L-280252 998 L-272553 1004 L-266885 1004 L-264671 1004 L-264647 1004 L-263674 1006 L-263654 1006 L-262790 1005 L-260050 1005 L-254251 1004 L-254098 1004 L-251312 1003 L-237704 1003 L-236958 1003 L-232547 1003 L-216201 1003 L-215969 1003 L-215432 1003 L-206972 1003 L-198267 1003 L-198054 1003 L-196082 1002 L-193295 1002 L-188808 1003 L-188653 1002 L-188484 1002 L-188344 1002 L-188053 1002 L-188014 1002 L-187744 1002 L-187572 1002 L-187162 1002 L-186041 1002 L-184861 1002 L-183584 1002 L-180720 1002 L-177800 1002 L-175808 1001 L-174260 1001 L-171222 1001 L-161898 1001 L-161374 1001 L-155650 1001 L-154143 1001 L-153328 1001 L-151645 1001 L-150924 1001 L-150755 1001 L-149710 1001 L-147643 1000 L-146281 1000 L-141838 1000 L-141740 1000 L-141702 1000 L-141683 1000 L-140850 1000 L-140773 1000 L-138200 1000 L-134951 1000 L-134796 1000 L-133848 1000 L-132107 999 L-131391 1000 L-127851 1000 L-121273 1001 L-119856 1001 L-119835 1001 L-118885 1001 L-115410 1001 L-114657 1001 L-114095 1001 L-113313 1001 L-105809 1001 L-104211 1001 L-102637 1001 L-99451 1000 L-95118 1000 L-86549 1000 L-77802 1000 L-74728 1000 L-71462 1000 L-70916 1000 L-63779 1000 L-58111 1000 L-44047 1000 L-38035 1000 L-33329 1000 L-29326 1000 L-24218 1000 L-14504 1000 L1065 999 L4148 999 L4450 964 L4470 921 L4489 872 L4509 817 L4528 792 L4547 771 L4566 751 L4594 732 L4614 714 L4642 694 L4678 672 L4691 654 L4704 638 L4723 625 L4741 615 L4761 605 L4780 595 L4799 585 L4819 575 L4840 565 L4857 555 L4876 545 L4896 535 L4916 526 L4934 515 L4953 505 L4973 493 L4993 483 L5012 472 L5030 462 L5052 453 L5076 443 L5091 434 L5108 425 L5128 416 L5147 407 L5166 398 L5185 388 L5205 379 L5226 370 L5244 361 L5263 353 L5283 346 L5304 338 L5321 332 L5340 326 L5360 320 L5379 315 L5398 309 L5417 304 L5437 300 L5457 296 L5476 292 L5495 287 L5522 282 L5543 277 L5571 271 L5605 264 L5619 258 L5632 254 L5651 249 L5670 245 L5690 241 L5708 237 L5727 232 L5747 228 L5768 223 L5785 219 L5804 215 L5824 211 L5844 206 L5863 201 L5881 195 L5902 189 L5921 182 L5940 176 L5959 170 L5980 163 L6004 155 L6019 148 L6036 140 L6056 133 L6075 126 L6095 119 L6114 111 L6134 104 L6154 96 L6172 89 L6191 82 L6211 75 L6232 69 L6249 63 L6268 57 L6289 51 L6307 46 L6327 41 L6346 35 L6366 30 L6385 25 L6404 20 L6423 15 L6452 10 L6472 5 L6500 0" />
</svg>
