<svg xmlns="http://www.w3.org/2000/svg" version="1.1" viewBox="0 0 6500 1000">
	<path fill="none" stroke="gold" stroke-width="125" stroke-linecap="round" stroke-linejoin="round" d="M0 1986  L-330841 1986 L-328237 1983 L-326569 1980 L-308239 1973 L-308069 1966 L-300911 1960 L-300878 1960 L-287447 1957 L-284526 1960 L-271185 1950 L-267016 1937 L-265856 1920 L-265237 1903 L-263225 1894 L-259453 1887 L-258853 1880 L-258524 1874 L-258311 1867 L-257769 1860 L-256531 1834 L-255352 1807 L-252488 1781 L-251966 1754 L-247110 1748 L-244173 1741 L-244130 1734 L-243822 1728 L-243570 1721 L-240975 1714 L-236719 1714 L-236702 1714 L-235465 1714 L-233587 1714 L-231634 1708 L-230686 1701 L-230415 1695 L-230105 1691 L-230007 1688 L-229177 1688 L-227146 1691 L-226855 1661 L-224709 1648 L-224554 1628 L-220897 1608 L-220646 1618 L-220548 1615 L-220031 1625 L-217879 1642 L-216951 1658 L-215425 1675 L-214185 1675 L-212639 1671 L-209677 1665 L-208555 1658 L-208246 1652 L-207034 1648 L-204028 1685 L-204008 1681 L-203661 1678 L-203448 1675 L-203321 1628 L-203080 1622 L-203042 1615 L-203022 1608 L-203003 1602 L-202944 1595 L-202885 1589 L-202867 1582 L-202424 1575 L-201185 1569 L-199639 1562 L-196251 1555 L-190525 1552 L-190324 1549 L-188688 1545 L-186966 1542 L-185534 1539 L-185301 1535 L-184586 1532 L-178454 1529 L-178086 1522 L-177932 1516 L-177353 1509 L-177061 1502 L-176094 1496 L-175784 1489 L-175185 1482 L-173579 1482 L-172844 1482 L-172534 1486 L-171766 1486 L-169729 1479 L-169304 1472 L-168491 1469 L-161063 1463 L-160540 1456 L-160366 1449 L-159631 1443 L-158064 1436 L-157658 1433 L-155433 1426 L-154485 1423 L-154060 1419 L-153730 1419 L-152686 1416 L-150578 1409 L-150326 1403 L-149707 1396 L-148894 1393 L-146786 1386 L-146738 1380 L-144809 1373 L-144484 1366 L-144349 1360 L-143846 1356 L-142433 1350 L-141930 1337 L-141408 1327 L-137849 1313 L-137113 1300 L-134689 1300 L-133399 1293 L-132992 1290 L-129840 1290 L-129685 1290 L-129665 1293 L-129298 1293 L-128040 1297 L-127325 1300 L-126435 1300 L-126028 1300 L-125099 1300 L-123991 1297 L-123688 1310 L-117439 1317 L-116491 1323 L-114865 1330 L-114363 1333 L-110688 1337 L-109855 1340 L-105902 1343 L-104490 1333 L-102001 1327 L-101325 1320 L-101286 1317 L-100415 1317 L-97204 1313 L-94341 1310 L-93373 1307 L-92251 1300 L-92232 1293 L-90607 1287 L-90143 1277 L-90051 1274 L-83682 1270 L-82734 1267 L-80277 1264 L-79404 1257 L-78168 1254 L-76167 1250 L-75769 1244 L-74333 1237 L-72307 1234 L-72094 1227 L-70914 1224 L-69405 1221 L-69385 1217 L-67373 1214 L-66503 1207 L-65632 1204 L-65048 1197 L-64510 1191 L-63853 1184 L-62614 1177 L-62054 1174 L-60873 1171 L-59635 1167 L-59597 1164 L-59210 1161 L-58668 1154 L-57894 1151 L-56772 1148 L-54683 1141 L-54350 1134 L-54064 1128 L-53135 1124 L-52652 1118 L-51917 1114 L-48285 1111 L-47158 1108 L-47003 1104 L-45977 1098 L-42262 1095 L-41045 1088 L-39226 1081 L-36441 1078 L-35879 1071 L-31991 1071 L-29515 1068 L-28180 1068 L-27677 1065 L-27193 1061 L-24504 1061 L-20733 1061 L-18275 1061 L-17095 1061 L-16456 1058 L-14097 1051 L-14019 1048 L-12972 1045 L-12878 1038 L-12375 1038 L-11930 1038 L-11872 1038 L-11659 1038 L-8699 1032 L-5991 1028 L-5837 1025 L-2316 1022 L-1793 1015 L-826 1008 L-477 1005 L566 998 L1495 992 L1920 988 L3429 988 L4396 985 L4415 982 L6311 740 L6427 491 L6475 246 L6500 1" />
</svg>
