<svg xmlns="http://www.w3.org/2000/svg" version="1.1" viewBox="0 0 6500 1000">
	<path fill="none" stroke="gold" stroke-width="125" stroke-linecap="round" stroke-linejoin="round" d="M0 88120  L-345259 88120 L-342655 87977 L-340987 87833 L-322657 87545 L-322487 87258 L-315329 86971 L-315296 86971 L-301865 86827 L-298943 86971 L-285602 86540 L-281433 85965 L-280273 85247 L-279654 84528 L-277642 84097 L-273870 83810 L-273270 83522 L-272942 83235 L-272729 82948 L-272187 82660 L-270949 81511 L-269770 80362 L-266906 79212 L-266383 78063 L-261528 77775 L-258591 77488 L-258548 77201 L-258239 76913 L-257987 76626 L-255393 76339 L-251137 76339 L-251119 76339 L-249882 76339 L-248005 76339 L-246051 76051 L-245103 75764 L-244833 75477 L-244523 75333 L-244425 75189 L-243594 75189 L-241563 75333 L-241273 74040 L-239127 73465 L-238971 72603 L-235315 71741 L-235064 72172 L-234965 72028 L-234448 72459 L-232297 73178 L-231368 73896 L-229842 74614 L-228603 74614 L-227056 74471 L-224094 74183 L-222973 73896 L-222663 73609 L-221452 73465 L-218445 75045 L-218426 74902 L-218078 74758 L-217865 74614 L-217739 72603 L-217498 72316 L-217460 72028 L-217440 71741 L-217421 71454 L-217362 71166 L-217303 70879 L-217285 70591 L-216842 70304 L-215603 70017 L-214057 69729 L-210669 69442 L-204943 69298 L-204741 69155 L-203105 69011 L-201384 68867 L-199951 68724 L-199719 68580 L-199004 68436 L-192872 68293 L-192504 68005 L-192349 67718 L-191771 67431 L-191479 67143 L-190511 66856 L-190202 66568 L-189603 66281 L-187996 66281 L-187261 66281 L-186951 66425 L-186183 66425 L-184147 66137 L-183722 65850 L-182909 65706 L-175481 65419 L-174958 65132 L-174784 64844 L-174049 64557 L-172481 64270 L-172076 64126 L-169851 63839 L-168903 63695 L-168478 63551 L-168147 63551 L-167104 63408 L-164995 63120 L-164743 62833 L-164124 62545 L-163312 62402 L-161204 62114 L-161155 61827 L-159227 61540 L-158901 61252 L-158766 60965 L-158263 60821 L-156851 60534 L-156348 59959 L-155826 59528 L-152266 58954 L-151531 58379 L-149106 58379 L-147817 58091 L-147410 57948 L-144257 57948 L-144103 57948 L-144082 58091 L-143716 58091 L-142458 58235 L-141743 58379 L-140853 58379 L-140446 58379 L-139517 58379 L-138408 58235 L-138105 58810 L-131856 59097 L-130909 59385 L-129283 59672 L-128781 59816 L-125105 59959 L-124273 60103 L-120320 60247 L-118908 59816 L-116419 59528 L-115742 59241 L-115704 59097 L-114833 59097 L-111622 58954 L-108758 58810 L-107791 58666 L-106669 58379 L-106650 58091 L-105025 57804 L-104561 57373 L-104469 57229 L-98100 57086 L-97151 56942 L-94694 56798 L-93822 56511 L-92586 56367 L-90584 56224 L-90187 55936 L-88751 55649 L-86725 55505 L-86511 55218 L-85331 55074 L-83823 54931 L-83803 54787 L-81790 54643 L-80921 54356 L-80050 54212 L-79465 53925 L-78928 53637 L-78270 53350 L-77032 53063 L-76472 52919 L-75290 52775 L-74053 52632 L-74014 52488 L-73627 52344 L-73086 52057 L-72312 51913 L-71190 51770 L-69101 51482 L-68767 51195 L-68481 50908 L-67553 50764 L-67070 50477 L-66334 50333 L-62703 50189 L-61575 50045 L-61421 49902 L-60395 49614 L-56680 49471 L-55463 49183 L-53644 48896 L-50858 48752 L-50297 48465 L-46409 48465 L-43933 48321 L-42598 48321 L-42094 48178 L-41611 48034 L-38922 48034 L-35150 48034 L-32693 48034 L-31513 48034 L-30874 47890 L-28514 47603 L-28437 47459 L-27389 47316 L-27296 47028 L-26793 47028 L-26348 47028 L-26290 47028 L-26076 47028 L-23117 46741 L-20409 46597 L-20254 46454 L-16733 46310 L-16211 46022 L-15243 45735 L-14894 45591 L-13851 45304 L-12922 45017 L-12496 44873 L-10987 44873 L-10020 44729 L-10001 44586 L-8105 34097 L-7989 23321 L-7941 12689 L-7917 2057 L-4913 1913 L-2882 1626 L-1121 1482 L-754 1339 L-309 1051 L57 908 L471 620 L2456 477 L2669 477 L2824 333 L4429 333 L5551 189 L6500 45" />
</svg>
