<svg xmlns="http://www.w3.org/2000/svg" version="1.1" viewBox="0 0 6500 1000">
	<path fill="none" stroke="gold" stroke-width="125" stroke-linecap="round" stroke-linejoin="round" d="M0 1019  L-715971 1019 L-713367 1019 L-711699 1019 L-693370 1019 L-693199 1019 L-686042 1019 L-686008 1019 L-672578 1019 L-669656 1019 L-656315 1019 L-652146 1018 L-650986 1018 L-650367 1018 L-648355 1017 L-644583 1017 L-643983 1017 L-643654 1017 L-643441 1017 L-642899 1017 L-641661 1016 L-640483 1016 L-637618 1015 L-637096 1015 L-632240 1015 L-629303 1014 L-629260 1014 L-628952 1014 L-628700 1014 L-626105 1014 L-621850 1014 L-621832 1014 L-620595 1014 L-618717 1014 L-616764 1014 L-615816 1014 L-615545 1013 L-615235 1013 L-615137 1013 L-614307 1013 L-612276 1013 L-611986 1013 L-609839 1012 L-609684 1012 L-606027 1012 L-605776 1012 L-605678 1012 L-605161 1012 L-603010 1012 L-602081 1013 L-600555 1013 L-599315 1013 L-597769 1013 L-594807 1013 L-593685 1013 L-593376 1013 L-592165 1012 L-589158 1013 L-589138 1013 L-588791 1013 L-588578 1013 L-588452 1012 L-588210 1012 L-588172 1012 L-588152 1012 L-588133 1012 L-588074 1011 L-588016 1011 L-587998 1011 L-587555 1011 L-586315 1011 L-584769 1011 L-581382 1011 L-575655 1011 L-575454 1010 L-573818 1010 L-572096 1010 L-570664 1010 L-570432 1010 L-569716 1010 L-563584 1010 L-563216 1010 L-563062 1010 L-562484 1010 L-562191 1009 L-561224 1009 L-560914 1009 L-560315 1009 L-558709 1009 L-557974 1009 L-557664 1009 L-556896 1009 L-554860 1009 L-554434 1009 L-553622 1009 L-546193 1009 L-545670 1009 L-545497 1008 L-544762 1008 L-543194 1008 L-542788 1008 L-540563 1008 L-539615 1008 L-539190 1008 L-538860 1008 L-537816 1008 L-535708 1008 L-535456 1007 L-534837 1007 L-534024 1007 L-531916 1007 L-531868 1007 L-529940 1007 L-529614 1007 L-529479 1007 L-528976 1007 L-527563 1006 L-527060 1006 L-526538 1006 L-522979 1006 L-522244 1005 L-519819 1005 L-518529 1005 L-518122 1005 L-514970 1005 L-514815 1005 L-514795 1005 L-514428 1005 L-513170 1005 L-512455 1005 L-511565 1005 L-511158 1005 L-510230 1005 L-509121 1005 L-508818 1006 L-502569 1006 L-501622 1006 L-499995 1006 L-499494 1006 L-495818 1006 L-494986 1006 L-491032 1006 L-489621 1006 L-487131 1006 L-486455 1006 L-486416 1006 L-485545 1006 L-482334 1006 L-479471 1006 L-478503 1006 L-477382 1005 L-477363 1005 L-475738 1005 L-475273 1005 L-475182 1005 L-468812 1005 L-467864 1005 L-465407 1005 L-464534 1004 L-463298 1004 L-461297 1004 L-460899 1004 L-459463 1004 L-457437 1004 L-457224 1004 L-456044 1004 L-454535 1004 L-454515 1004 L-452503 1004 L-451633 1003 L-450763 1003 L-450178 1003 L-449641 1003 L-448983 1003 L-447745 1003 L-447184 1003 L-446003 1003 L-444765 1003 L-444727 1003 L-444340 1003 L-443798 1002 L-443025 1002 L-441902 1002 L-439813 1002 L-439480 1002 L-439194 1002 L-438265 1002 L-437782 1002 L-437047 1002 L-433415 1002 L-432288 1001 L-432133 1001 L-431107 1001 L-427393 1001 L-426175 1001 L-424357 1001 L-421571 1001 L-421009 1001 L-417122 1001 L-414645 1001 L-413310 1001 L-412807 1001 L-412324 1000 L-409634 1000 L-405863 1000 L-403405 1000 L-402226 1000 L-401586 1000 L-399227 1000 L-399149 1000 L-398102 1000 L-398008 1000 L-397506 1000 L-397060 1000 L-397002 1000 L-396789 1000 L-393829 1000 L-391122 1000 L-390967 1000 L-387446 1000 L-386923 1000 L-385956 999 L-385607 999 L-384563 999 L-383634 999 L-383209 999 L-381700 999 L-380733 999 L-380714 999 L-378818 994 L-378702 989 L-378654 984 L-378630 979 L-375626 979 L-373595 979 L-371834 979 L-371467 978 L-371021 978 L-370654 978 L-370240 978 L-368255 978 L-368042 978 L-367887 978 L-366282 978 L-365160 978 L-364212 978 L-362955 978 L-361310 978 L-360131 978 L-353541 977 L-353494 977 L-353089 977 L-352044 977 L-351908 977 L-350226 977 L-350206 977 L-348869 977 L-347633 977 L-347479 977 L-347105 977 L-346898 977 L-346589 976 L-345815 976 L-343494 976 L-342836 976 L-340708 976 L-338986 976 L-338792 976 L-336239 976 L-335962 976 L-335774 976 L-334942 976 L-334169 975 L-333471 975 L-328471 975 L-328095 975 L-323842 975 L-323355 982 L-323336 982 L-323257 982 L-323181 982 L-323161 975 L-322349 975 L-321595 975 L-320376 975 L-318944 975 L-318848 975 L-318673 975 L-318319 974 L-317009 974 L-315152 974 L-313450 974 L-312947 974 L-312682 974 L-312289 974 L-312154 974 L-311245 974 L-310868 974 L-309940 974 L-309601 974 L-309561 974 L-309523 974 L-307608 974 L-307434 973 L-305905 973 L-305577 973 L-305461 973 L-305054 973 L-304706 973 L-303062 973 L-302511 973 L-302268 973 L-301727 973 L-300895 973 L-300354 973 L-298819 972 L-298727 972 L-298690 972 L-298554 972 L-298167 972 L-297142 972 L-295266 972 L-295169 972 L-294569 974 L-294202 976 L-293717 979 L-293679 981 L-292905 981 L-292848 981 L-292673 981 L-292480 981 L-290875 981 L-290855 981 L-290699 981 L-290584 981 L-289404 981 L-289250 981 L-288583 981 L-286135 987 L-283620 993 L-280950 998 L-273251 1003 L-267583 1003 L-265368 1003 L-265345 1003 L-264371 1005 L-264351 1005 L-263488 1005 L-260747 1005 L-254949 1003 L-254795 1003 L-252010 1003 L-238401 1003 L-237655 1003 L-233245 1003 L-216898 1003 L-216666 1002 L-216129 1002 L-207670 1002 L-198964 1002 L-198752 1002 L-196779 1002 L-193993 1002 L-189506 1002 L-189351 1002 L-189182 1002 L-189041 1002 L-188751 1002 L-188712 1002 L-188441 1002 L-188269 1002 L-187859 1002 L-186739 1002 L-185558 1001 L-184282 1001 L-181418 1001 L-178498 1001 L-176506 1001 L-174958 1001 L-171920 1001 L-162596 1001 L-162072 1001 L-156348 1001 L-154841 1001 L-154026 1001 L-152343 1001 L-151622 1001 L-151453 1000 L-150408 1000 L-148341 1000 L-146979 1000 L-142535 1000 L-142438 1000 L-142399 1000 L-142380 1000 L-141548 1000 L-141470 1000 L-138898 1000 L-135648 1000 L-135494 1000 L-134545 1000 L-132804 999 L-132089 1000 L-128548 1000 L-121971 1001 L-120553 1001 L-120533 1001 L-119582 1001 L-116108 1001 L-115355 1001 L-114793 1001 L-114011 1001 L-106507 1001 L-104908 1000 L-103334 1000 L-100149 1000 L-95816 1000 L-87246 1000 L-78500 1000 L-75426 1000 L-72160 1000 L-71614 1000 L-64476 1000 L-58809 1000 L-44744 1000 L-38733 1000 L-34027 1000 L-30023 1000 L-24916 1000 L-15202 1000 L368 999 L3451 999 L3753 969 L3772 931 L3791 889 L3811 841 L3831 819 L3850 801 L3868 784 L3896 768 L3917 752 L3945 734 L3980 716 L3994 700 L4007 686 L4025 675 L4044 666 L4064 658 L4082 649 L4102 640 L4121 632 L4143 623 L4159 614 L4178 605 L4199 597 L4219 589 L4237 580 L4256 570 L4275 561 L4296 551 L4314 542 L4333 534 L4354 525 L4379 517 L4394 509 L4411 502 L4430 494 L4450 486 L4469 478 L4488 469 L4508 461 L4528 453 L4546 446 L4565 439 L4586 432 L4606 426 L4623 421 L4642 416 L4662 410 L4681 406 L4701 401 L4720 397 L4740 393 L4759 389 L4778 386 L4797 382 L4824 377 L4845 373 L4873 367 L4907 362 L4921 357 L4934 353 L4953 349 L4972 345 L4992 342 L5010 338 L5030 334 L5050 330 L5070 326 L5088 323 L5107 319 L5127 316 L5147 311 L5165 307 L5184 301 L5204 296 L5224 291 L5243 286 L5261 280 L5282 274 L5307 267 L5322 261 L5339 254 L5359 248 L5378 242 L5397 236 L5416 229 L5436 222 L5457 216 L5475 210 L5494 204 L5514 198 L5534 192 L5552 187 L5571 182 L5591 177 L5610 173 L5629 168 L5648 163 L5668 159 L5687 154 L5707 150 L5726 146 L5754 141 L5774 137 L5802 133 L5839 128 L5854 123 L5867 118 L5884 114 L5901 111 L5921 108 L5939 105 L5958 103 L5978 100 L5999 98 L6016 95 L6035 92 L6056 89 L6075 86 L6094 82 L6113 79 L6132 75 L6152 71 L6171 66 L6190 63 L6211 59 L6235 55 L6250 51 L6267 47 L6287 43 L6306 39 L6326 35 L6345 30 L6365 26 L6385 22 L6403 18 L6422 14 L6442 10 L6463 7 L6480 3 L6500 0" />
</svg>
