<svg xmlns="http://www.w3.org/2000/svg" version="1.1" viewBox="0 0 6500 1000">
	<path fill="none" stroke="gold" stroke-width="125" stroke-linecap="round" stroke-linejoin="round" d="M0 5004  L-723188 5004 L-720584 5004 L-718916 5003 L-700586 5003 L-700416 5002 L-693258 5002 L-693225 5002 L-679794 5002 L-676872 5002 L-663531 5001 L-659362 5000 L-658202 4999 L-657583 4998 L-655571 4997 L-651799 4997 L-651199 4996 L-650871 4996 L-650658 4995 L-650116 4995 L-648878 4993 L-647699 4991 L-644835 4989 L-644312 4987 L-639457 4987 L-636520 4986 L-636477 4986 L-636168 4985 L-635916 4985 L-633321 4984 L-629066 4984 L-629048 4984 L-627811 4984 L-625934 4984 L-623980 4984 L-623032 4984 L-622762 4983 L-622452 4983 L-622354 4983 L-621523 4983 L-619492 4983 L-619202 4981 L-617056 4980 L-616900 4978 L-613244 4977 L-612993 4978 L-612894 4977 L-612377 4978 L-610226 4979 L-609297 4980 L-607771 4982 L-606532 4982 L-604985 4981 L-602023 4981 L-600901 4980 L-600592 4980 L-599381 4980 L-596374 4982 L-596355 4982 L-596007 4982 L-595794 4982 L-595668 4978 L-595426 4978 L-595389 4977 L-595369 4977 L-595350 4976 L-595291 4976 L-595232 4976 L-595214 4975 L-594771 4975 L-593532 4974 L-591986 4974 L-588598 4973 L-582872 4973 L-582670 4973 L-581034 4972 L-579313 4972 L-577880 4972 L-577648 4972 L-576933 4972 L-570801 4971 L-570433 4971 L-570278 4970 L-569700 4970 L-569407 4969 L-568440 4969 L-568131 4968 L-567532 4968 L-565925 4968 L-565190 4968 L-564880 4968 L-564112 4968 L-562076 4968 L-561651 4967 L-560838 4967 L-553410 4967 L-552887 4966 L-552713 4966 L-551978 4965 L-550410 4965 L-550005 4964 L-547780 4964 L-546832 4964 L-546407 4964 L-546076 4964 L-545033 4963 L-542924 4963 L-542672 4962 L-542053 4962 L-541241 4962 L-539133 4961 L-539084 4961 L-537156 4960 L-536830 4960 L-536695 4959 L-536192 4959 L-534780 4959 L-534277 4958 L-533755 4957 L-530195 4956 L-529460 4955 L-527035 4955 L-525746 4955 L-525339 4954 L-522186 4954 L-522032 4954 L-522011 4955 L-521645 4955 L-520386 4955 L-519671 4955 L-518782 4955 L-518375 4955 L-517446 4955 L-516337 4955 L-516034 4956 L-509785 4956 L-508838 4957 L-507212 4957 L-506710 4957 L-503034 4958 L-502202 4958 L-498249 4958 L-496837 4957 L-494348 4957 L-493671 4956 L-493633 4956 L-492762 4956 L-489551 4956 L-486687 4956 L-485719 4956 L-484598 4955 L-484579 4955 L-482954 4954 L-482490 4953 L-482398 4953 L-476029 4953 L-475080 4953 L-472623 4952 L-471751 4952 L-470515 4952 L-468513 4952 L-468116 4951 L-466680 4951 L-464653 4950 L-464440 4950 L-463260 4950 L-461752 4949 L-461732 4949 L-459719 4949 L-458850 4948 L-457979 4948 L-457394 4948 L-456857 4947 L-456199 4947 L-454961 4946 L-454401 4946 L-453219 4946 L-451982 4946 L-451943 4945 L-451556 4945 L-451015 4945 L-450241 4944 L-449119 4944 L-447029 4944 L-446696 4943 L-446410 4943 L-445482 4943 L-444999 4942 L-444263 4942 L-440632 4942 L-439504 4941 L-439350 4941 L-438324 4941 L-434609 4940 L-433392 4940 L-431573 4940 L-428787 4939 L-428226 4939 L-424338 4939 L-421861 4939 L-420527 4939 L-420023 4938 L-419540 4938 L-416851 4938 L-413079 4938 L-410622 4938 L-409442 4938 L-408803 4938 L-406443 4937 L-406366 4937 L-405318 4937 L-405225 4936 L-404722 4936 L-404277 4936 L-404219 4936 L-404005 4936 L-401046 4936 L-398338 4936 L-398183 4936 L-394662 4935 L-394140 4935 L-393172 4934 L-392823 4934 L-391780 4934 L-390851 4933 L-390425 4933 L-388916 4933 L-387949 4933 L-387930 4932 L-386034 4915 L-385918 4898 L-385870 4880 L-385846 4863 L-382842 4863 L-380811 4862 L-379050 4862 L-378683 4862 L-378238 4861 L-377871 4861 L-377457 4860 L-375472 4860 L-375259 4860 L-375104 4860 L-373499 4860 L-372377 4860 L-371428 4860 L-370171 4859 L-368527 4859 L-367347 4858 L-360758 4858 L-360711 4858 L-360305 4858 L-359260 4857 L-359125 4857 L-357442 4857 L-357422 4856 L-356085 4856 L-354849 4856 L-354695 4856 L-354321 4855 L-354115 4855 L-353805 4855 L-353032 4854 L-350710 4854 L-350052 4854 L-347924 4853 L-346202 4853 L-346009 4853 L-343455 4852 L-343179 4852 L-342991 4852 L-342158 4851 L-341386 4851 L-340688 4851 L-335687 4851 L-335311 4850 L-331058 4850 L-330571 4873 L-330552 4873 L-330473 4873 L-330398 4873 L-330378 4849 L-329565 4849 L-328811 4848 L-327592 4848 L-326160 4848 L-326064 4848 L-325890 4848 L-325535 4847 L-324226 4847 L-322369 4847 L-320666 4846 L-320163 4846 L-319898 4846 L-319505 4846 L-319371 4845 L-318461 4845 L-318085 4845 L-317156 4845 L-316817 4845 L-316777 4845 L-316740 4844 L-314824 4844 L-314651 4844 L-313122 4844 L-312794 4844 L-312677 4844 L-312270 4843 L-311922 4843 L-310279 4843 L-309728 4842 L-309484 4842 L-308943 4842 L-308112 4841 L-307570 4841 L-306036 4841 L-305943 4840 L-305906 4840 L-305770 4840 L-305383 4840 L-304358 4840 L-302482 4839 L-302386 4839 L-301785 4847 L-301418 4855 L-300934 4863 L-300896 4871 L-300122 4871 L-300064 4871 L-299890 4871 L-299696 4870 L-298091 4870 L-298071 4870 L-297916 4870 L-297800 4870 L-296621 4871 L-296466 4871 L-295799 4871 L-293351 4891 L-290836 4910 L-288166 4929 L-280467 4948 L-274799 4948 L-272585 4948 L-272561 4948 L-271588 4953 L-271568 4953 L-270704 4952 L-267964 4952 L-262165 4947 L-262012 4947 L-259226 4947 L-245618 4946 L-244872 4946 L-240461 4945 L-224115 4945 L-223883 4945 L-223346 4944 L-214886 4944 L-206181 4944 L-205968 4944 L-203996 4944 L-201209 4944 L-196722 4944 L-196567 4944 L-196398 4944 L-196258 4943 L-195967 4943 L-195928 4943 L-195658 4942 L-195486 4942 L-195076 4942 L-193955 4942 L-192775 4941 L-191498 4941 L-188634 4941 L-185714 4941 L-183722 4940 L-182174 4940 L-179136 4940 L-169812 4940 L-169288 4939 L-163564 4939 L-162057 4939 L-161242 4939 L-159559 4939 L-158838 4938 L-158669 4938 L-157624 4938 L-155557 4938 L-154195 4937 L-149752 4937 L-149654 4937 L-149616 4937 L-149597 4936 L-148764 4936 L-148687 4936 L-146114 4936 L-142865 4935 L-142710 4935 L-141762 4935 L-140021 4934 L-139305 4936 L-135765 4937 L-129187 4938 L-127770 4940 L-127749 4940 L-126799 4940 L-123324 4940 L-122571 4939 L-122009 4939 L-121227 4939 L-113723 4938 L-112125 4938 L-110551 4938 L-107365 4938 L-103032 4937 L-94463 4937 L-85716 4937 L-82642 4937 L-79376 4936 L-78830 4936 L-71693 4936 L-66025 4936 L-51961 4936 L-45949 4936 L-41243 4936 L-37240 4936 L-32132 4935 L-22418 4935 L-6848 4935 L-3765 4934 L-3463 4828 L-3443 4698 L-3424 4550 L-3404 4384 L-3385 4309 L-3366 4245 L-3347 4187 L-3319 4129 L-3299 4073 L-3271 4013 L-3235 3948 L-3222 3893 L-3209 3845 L-3190 3805 L-3172 3776 L-3152 3747 L-3133 3716 L-3114 3686 L-3094 3656 L-3073 3625 L-3056 3594 L-3037 3564 L-3017 3536 L-2997 3506 L-2979 3475 L-2960 3443 L-2940 3409 L-2920 3377 L-2901 3345 L-2883 3315 L-2861 3287 L-2837 3258 L-2822 3230 L-2805 3203 L-2785 3176 L-2766 3149 L-2747 3120 L-2728 3091 L-2708 3063 L-2687 3036 L-2669 3010 L-2650 2986 L-2630 2963 L-2609 2942 L-2592 2923 L-2573 2905 L-2553 2887 L-2534 2870 L-2515 2853 L-2496 2838 L-2476 2825 L-2456 2813 L-2437 2800 L-2418 2788 L-2391 2772 L-2370 2756 L-2342 2737 L-2308 2717 L-2294 2700 L-2281 2686 L-2262 2672 L-2243 2661 L-2223 2649 L-2205 2635 L-2186 2621 L-2166 2607 L-2145 2595 L-2128 2583 L-2109 2570 L-2089 2557 L-2069 2543 L-2050 2526 L-2032 2508 L-2011 2490 L-1992 2471 L-1973 2453 L-1954 2433 L-1933 2412 L-1909 2389 L-1894 2366 L-1877 2345 L-1857 2323 L-1838 2302 L-1818 2280 L-1799 2256 L-1779 2233 L-1759 2211 L-1741 2190 L-1722 2169 L-1702 2149 L-1681 2129 L-1664 2110 L-1645 2093 L-1624 2075 L-1606 2060 L-1586 2044 L-1567 2028 L-1547 2013 L-1528 1997 L-1509 1981 L-1490 1966 L-1461 1950 L-1441 1936 L-1414 1921 L-1376 1904 L-1361 1887 L-1349 1871 L-1332 1856 L-1315 1845 L-1295 1836 L-1276 1826 L-1257 1817 L-1237 1809 L-1216 1800 L-1199 1790 L-1180 1779 L-1160 1768 L-1140 1757 L-1122 1745 L-1103 1733 L-1083 1720 L-1063 1705 L-1044 1691 L-1026 1677 L-1004 1664 L-980 1650 L-965 1636 L-948 1623 L-928 1608 L-909 1595 L-890 1580 L-871 1565 L-851 1550 L-830 1536 L-812 1521 L-793 1508 L-773 1496 L-753 1483 L-735 1472 L-716 1460 L-696 1448 L-677 1436 L-657 1424 L-639 1413 L-619 1402 L-599 1392 L-580 1381 L-561 1370 L-533 1359 L-513 1348 L-485 1335 L-449 1317 L-435 1301 L-421 1286 L-404 1272 L-386 1264 L-366 1255 L-348 1244 L-328 1232 L-308 1220 L-287 1207 L-268 1193 L-252 1179 L-231 1163 L-211 1147 L-193 1131 L-174 1113 L-154 1095 L-134 1078 L-116 1063 L-97 1049 L-76 1039 L-51 1030 L-36 1022 L-19 1014 L0 1005 L19 995 L38 986 L57 977 L77 968 L98 961 L115 955 L134 946 L155 936 L176 924 L193 913 L212 904 L232 897 L251 891 L270 886 L289 881 L309 875 L329 868 L348 862 L366 856 L394 850 L415 844 L443 838 L477 830 L491 823 L504 818 L523 812 L542 808 L561 803 L580 798 L600 794 L619 790 L640 785 L657 781 L676 776 L697 771 L717 765 L735 759 L753 755 L773 750 L794 746 L812 741 L831 737 L852 732 L877 728 L891 724 L908 720 L928 716 L947 711 L967 707 L986 702 L1006 696 L1026 691 L1044 687 L1063 683 L1083 678 L1104 674 L1121 670 L1140 666 L1160 662 L1179 658 L1199 654 L1217 651 L1238 648 L1257 645 L1276 642 L1295 647 L1324 652 L1343 657 L1371 661 L1409 657 L1424 654 L1437 650 L1454 648 L1470 646 L1490 643 L1509 640 L1528 637 L1548 635 L1569 633 L1586 630 L1604 628 L1625 625 L1645 623 L1663 620 L1682 617 L1702 614 L1722 611 L1740 609 L1759 606 L1781 604 L1805 602 L1820 599 L1837 596 L1857 594 L1876 591 L1895 588 L1914 585 L1934 582 L1955 578 L1973 574 L1991 571 L2012 567 L2033 564 L2050 561 L2069 557 L2089 554 L2108 551 L2127 547 L2146 544 L2166 540 L2186 537 L2205 535 L2224 532 L2251 529 L2272 526 L2300 522 L2335 519 L2348 515 L2361 512 L2380 509 L2399 507 L2419 504 L2437 501 L2457 499 L2476 495 L2497 493 L2514 490 L2533 487 L2554 484 L2574 480 L2592 476 L2611 472 L2630 467 L2651 463 L2669 458 L2688 455 L2709 451 L2734 446 L2749 442 L2766 438 L2785 434 L2805 430 L2824 426 L2843 421 L2863 417 L2884 413 L2901 410 L2920 406 L2941 402 L2961 399 L2978 396 L2997 393 L3017 391 L3036 388 L3056 385 L3075 383 L3094 381 L3114 379 L3133 377 L3152 375 L3180 373 L3200 370 L3228 368 L3264 363 L3277 359 L3291 355 L3309 351 L3327 349 L3347 346 L3366 344 L3385 341 L3405 339 L3426 336 L3443 333 L3462 330 L3482 327 L3502 323 L3520 320 L3539 317 L3559 313 L3580 310 L3597 307 L3616 304 L3638 302 L3663 299 L3677 297 L3694 294 L3714 291 L3733 288 L3753 284 L3771 281 L3791 276 L3813 271 L3830 267 L3849 263 L3869 260 L3890 257 L3907 254 L3926 252 L3946 250 L3965 248 L3985 246 L4003 244 L4023 242 L4043 240 L4062 238 L4081 236 L4108 234 L4129 232 L4157 230 L4191 228 L4205 226 L4218 224 L4237 223 L4256 221 L4275 219 L4294 218 L4313 216 L4333 215 L4354 214 L4371 212 L4390 210 L4410 209 L4430 207 L4449 205 L4467 203 L4488 202 L4508 201 L4526 200 L4545 199 L4566 198 L4591 196 L4605 194 L4623 192 L4642 191 L4661 189 L4681 188 L4700 186 L4720 184 L4740 181 L4758 178 L4777 175 L4797 171 L4818 168 L4836 166 L4855 164 L4874 162 L4893 160 L4913 157 L4932 155 L4952 153 L4971 151 L4991 150 L5009 148 L5038 147 L5086 146 L5122 144 L5137 142 L5150 140 L5167 139 L5184 138 L5204 137 L5223 136 L5242 135 L5262 133 L5283 132 L5300 131 L5319 130 L5339 129 L5359 128 L5377 126 L5396 125 L5416 123 L5436 122 L5454 120 L5473 118 L5495 116 L5519 113 L5534 111 L5551 108 L5571 106 L5590 103 L5609 101 L5628 99 L5648 97 L5669 94 L5687 92 L5706 90 L5726 88 L5746 86 L5764 85 L5783 83 L5803 81 L5822 80 L5842 78 L5860 76 L5880 75 L5900 73 L5919 71 L5938 69 L5966 68 L5986 66 L6014 63 L6051 60 L6066 56 L6078 53 L6096 50 L6113 48 L6133 46 L6151 45 L6171 43 L6191 42 L6212 41 L6229 39 L6247 37 L6268 34 L6288 32 L6306 29 L6325 26 L6345 22 L6366 19 L6383 16 L6402 14 L6424 11 L6448 9 L6464 6 L6481 4 L6500 2" />
</svg>
