<svg xmlns="http://www.w3.org/2000/svg" version="1.1" viewBox="0 0 6500 1000">
	<path fill="none" stroke="gold" stroke-width="125" stroke-linecap="round" stroke-linejoin="round" d="M0 23052  L-146987 23052 L-144383 22892 L-142715 22732 L-124386 22412 L-124215 22092 L-117058 21772 L-117024 21772 L-103593 21612 L-100672 21772 L-87331 21292 L-83162 20652 L-82002 19852 L-81383 19052 L-79371 18572 L-75599 18252 L-74999 17932 L-74670 17612 L-74457 17292 L-73915 16972 L-72677 15692 L-71498 14412 L-68634 13132 L-68112 11852 L-63256 11532 L-60319 11212 L-60276 10892 L-59968 10572 L-59716 10252 L-57121 9932 L-52866 9932 L-52848 9932 L-51611 9932 L-49733 9932 L-47780 9612 L-46832 9292 L-46561 8972 L-46251 8812 L-46153 8652 L-45323 8652 L-43292 8812 L-43001 7372 L-40855 6732 L-40700 5772 L-37043 4812 L-36792 5292 L-36694 5132 L-36177 5612 L-34025 6412 L-33097 7212 L-31571 8012 L-30331 8012 L-28785 7852 L-25823 7532 L-24701 7212 L-24392 6892 L-23181 6732 L-20174 8492 L-20154 8332 L-19807 8172 L-19594 8012 L-19467 5772 L-19226 5452 L-19188 5132 L-19168 4812 L-19149 4492 L-19090 4172 L-19032 3852 L-19013 3532 L-18570 3212 L-17331 2892 L-15785 2572 L-12398 2252 L-6671 2092 L-6470 1932 L-4834 1772 L-3112 1612 L-1680 1452 L-1448 1292 L-732 1132 L5399 972 L5767 652 L5921 332 L6500 12" />
</svg>
