<svg xmlns="http://www.w3.org/2000/svg" version="1.1" viewBox="0 0 6500 1000">
	<path fill="none" stroke="gold" stroke-width="125" stroke-linecap="round" stroke-linejoin="round" d="M0 59314  L-214485 59314 L-211881 59014 L-210213 58715 L-191884 58116 L-191713 57517 L-184556 56919 L-184522 56919 L-171092 56619 L-168170 56919 L-154829 56020 L-150660 54823 L-149500 53326 L-148881 51829 L-146869 50931 L-143097 50332 L-142497 49733 L-142168 49134 L-141955 48535 L-141413 47937 L-140175 45541 L-138997 43146 L-136132 40751 L-135610 38356 L-130754 37757 L-127817 37158 L-127774 36559 L-127466 35961 L-127214 35362 L-124619 34763 L-120364 34763 L-120346 34763 L-119109 34763 L-117231 34763 L-115278 34164 L-114330 33565 L-114059 32967 L-113749 32667 L-113651 32368 L-112821 32368 L-110790 32667 L-110500 29973 L-108353 28775 L-108198 26979 L-104541 25182 L-104290 26080 L-104192 25781 L-103675 26679 L-101523 28176 L-100595 29673 L-99069 31170 L-97829 31170 L-96283 30871 L-93321 30272 L-92199 29673 L-91890 29074 L-90679 28775 L-87672 32068 L-87652 31769 L-87305 31470 L-87092 31170 L-86966 26979 L-86724 26380 L-86686 25781 L-86666 25182 L-86647 24583 L-86588 23985 L-86530 23386 L-86512 22787 L-86068 22188 L-84829 21589 L-83283 20991 L-79896 20392 L-74169 20092 L-73968 19793 L-72332 19494 L-70610 19194 L-69178 18895 L-68946 18595 L-68230 18296 L-62098 17997 L-61730 17398 L-61576 16799 L-60998 16200 L-60705 15601 L-59738 15002 L-59428 14404 L-58829 13805 L-57223 13805 L-56488 13805 L-56178 14104 L-55410 14104 L-53374 13505 L-52948 12907 L-52136 12607 L-44707 12008 L-44184 11410 L-44011 10811 L-43275 10212 L-41708 9613 L-41302 9314 L-39077 8715 L-38129 8416 L-37704 8116 L-37374 8116 L-36330 7817 L-34222 7218 L-33970 6619 L-33351 6020 L-32538 5721 L-30430 5122 L-30382 4523 L-28454 3925 L-28128 3326 L-27993 2727 L-27490 2428 L-26077 1829 L-25574 631 L-25052 -266 L-21493 -1464 L-20758 -2661 L-18333 -2661 L-17043 -3260 L-16636 -3559 L-13484 -3559 L-13329 -3559 L-13309 -3260 L-12942 -3260 L-11684 -2961 L-10969 -2661 L-10079 -2661 L-9672 -2661 L-8744 -2661 L-7635 -2961 L-7332 -1763 L-1083 -1164 L-136 -565 L1490 32 L1991 332 L5667 631 L6500 931" />
</svg>
